<?xml version="1.0" encoding="utf-8"?>
<!-- Generator: Adobe Illustrator 15.0.0, SVG Export Plug-In . SVG Version: 6.00 Build 0)  -->
<!DOCTYPE svg PUBLIC "-//W3C//DTD SVG 1.1//EN" "http://www.w3.org/Graphics/SVG/1.1/DTD/svg11.dtd">
<svg version="1.1" id="Layer_1" xmlns="http://www.w3.org/2000/svg" xmlns:xlink="http://www.w3.org/1999/xlink" x="0px" y="0px"
	 width="822px" height="567px" viewBox="0 0 822 567" enable-background="new 0 0 822 567" xml:space="preserve">
<polyline fill="#FFFFFF" points="0,0 822,0 822,567 "/>
<path fill="#FFFFFF" stroke="#000000" stroke-width="2" stroke-miterlimit="10" d="M650,445.6c0,0,5.8,1.101,5.7-20.8h0.5
	c2.3-33.899,19.3-17.8,19.3-17.8c24.2-42.2,17.1,5.3,17.1,5.3c38.4-27.6-3.6,52-3.6,52c35.5-19-17.8,40.101-17.8,40.101
	c27.7-1.2-18.9,28.8-21.2,30.199c9-5.199,10.4,1.301,9,3c-27.7,34.5-61.3,0.801-68-6.699c-0.3-0.9-0.7-1.801-1.1-2.801
	c0,0,2.199,1.101,5.1,1c4.8-0.1,11.6-3.5,13.7-20.6c0,0,19.399,14.8,16.8-25c0,0,14.2,16,10.3-25C635.7,458.7,654.5,487.8,650,445.6
	z"/>
<path fill="#FFFFFF" stroke="#000000" stroke-width="2" stroke-miterlimit="10" d="M639,358.9c25.8,29.699,14.9,39.8,14.9,39.8
	c1.3,11.2,1.899,19.7,1.899,26.1c0,21.8-5.7,20.8-5.7,20.8C654.6,487.8,635.9,458.7,635.9,458.7c3.899,41-10.301,25-10.301,25
	c2.601,39.8-16.8,25-16.8,25c-2,17.1-8.8,20.5-13.7,20.6c-2.899,0.101-5.1-1-5.1-1c0.4,1,0.8,1.9,1.1,2.8c7.9,22-8,22-8,22
	c-27.8,4.301-113.699-3.3-135-5.3c34-18.2,0.9-35.8,0.9-35.8c7.1,0,40.4,1.7,40.4,1.7l-37.101-9.2c-9.1,10.2-29.1-19.5-29.1-19.5
	c-8.4,10.1-9.7-23.2-9.7-23.2c-19.4,3.601-51-12.5-51-12.5c-1.3,54.101-9.7,13.7-9.7,13.7c-1.2,4.5-2.899,8.7-5.1,12.6
	C330.4,507,285.6,523,285.6,523c0.8,7.3-6.6,15.2-12.9,20.5c16.4-16-31.7-27-31.7-27c21.3-5.3,38.9-51.2,38.9-51.2l5.6-14.1
	c-5.3,2.2-12.7,0.2-13.3,0c13.4,2.2-3.6-34.601-4-35.4c20,19,3.9-36.7,3.9-36.7c25.2,16.601-3.2-22.699-3.2-22.699
	c25.2-0.601,0-27,0-27c16.7-5.5,7.8-22.4,1.4-31.5l0,0c0-0.101-0.5-1.5-5.9-16.3c-2.2-6.1,5.9,3.8,5.9,3.8s12.3,18.399,20.9-6.601
	c0,0,15.899,11.5,15.899-12.5c0,0,30.4,10.2,12.301-17.6c14.5,20,38.8,9.4,38.8,9.4c98-20.4,65.899-6.5,65.899-6.5
	c116.301-3.6,80.101,8.3,80.101,8.3c120.2,28.5,76.2,27.9,76.2,27.9c73,37.399,34.899,32.7,34.899,32.7
	C655.8,361.3,639,358.9,639,358.9z"/>
<path fill="#FFFFFF" stroke="#000000" stroke-width="2" stroke-miterlimit="10" d="M391.5,50.6c15,13.5,15.9,31.6-43.9,78.4
	c-28.5,22.3-70.3,45.3-79.7,51.1c-16.4,10.1-1.1-10.3,0.2-14.3C268.1,165.8,365.9,27.4,391.5,50.6z"/>
<path fill="#FFFFFF" stroke="#000000" stroke-width="2" stroke-miterlimit="10" d="M307.8,39.3C339.1,6,376.4,0.2,367.6,35.8
	c-0.6,2.4-2.199,4.4-3.699,5.9C335.7,57.5,300.3,92.9,273,121.3c-16.1,16.7-36.5,20.8-36.5,20.8c-2.2-1.3-4.7-2.5-7.2-3.4
	C229.2,138.7,270.8,78.7,307.8,39.3z"/>
<path fill="#FFFFFF" stroke="#000000" stroke-width="2" stroke-miterlimit="10" d="M198.3,175c4,0,7.3,3.1,7.3,6.8
	c0,3.8-3.3,6.8-7.3,6.8s-7.3-3.1-7.3-6.8C191.1,178.1,194.3,175,198.3,175z"/>
<path fill="#FFFFFF" stroke="#000000" stroke-width="2" stroke-miterlimit="10" d="M197.3,169.8c7.9,0,14.3,5.5,14.3,12.2
	s-6.4,12.2-14.3,12.2c-7.9,0-14.3-5.5-14.3-12.2S189.4,169.8,197.3,169.8z M205.6,181.8c0-3.8-3.3-6.8-7.3-6.8s-7.3,3.1-7.3,6.8
	c0,3.8,3.3,6.8,7.3,6.8C202.4,188.7,205.6,185.6,205.6,181.8z"/>
<path fill="#FFFFFF" stroke="#000000" stroke-width="2" stroke-miterlimit="10" d="M223.7,175c9.1,7.6-25.6,35.8-53.7,23.3
	C170.1,198.3,183,141.1,223.7,175z M211.6,182c0-6.7-6.4-12.2-14.3-12.2c-7.9,0-14.3,5.5-14.3,12.2s6.4,12.2,14.3,12.2
	C205.2,194.2,211.6,188.7,211.6,182z"/>
<path fill="#FFFFFF" stroke="#000000" stroke-width="2" stroke-miterlimit="10" d="M101.4,223.3c0,0,5.2-14,14.9-8.2
	c-2.6,7.1-9.7,9.5-9.7,9.5S104.2,224.4,101.4,223.3z"/>
<path fill="#FFFFFF" stroke="#000000" stroke-width="2" stroke-miterlimit="10" d="M101.4,197.8c0,0,13.6-4.6,14.9,17.4
	c-9.7-5.9-14.9,8.2-14.9,8.2C94.9,220.9,86.5,214.4,101.4,197.8z"/>
<path fill="#FFFFFF" stroke="#000000" stroke-width="2" stroke-miterlimit="10" d="M116.3,215.2c0,0,82.1-16,74.9,21.4
	c0,0,35.3,44.9-46.2,24.1l0,0c-2.3-0.9-4.8-1.7-7.3-2.3c-2.1-0.5-4.3-0.9-6.6-1.1c-8.8-2-23.5-7.5-24.4-22.5
	c-0.2-2.5,3.2-9.1,0-10.1C106.6,224.7,113.7,222.3,116.3,215.2z"/>
<path fill="#FFFFFF" stroke="#000000" stroke-width="2" stroke-miterlimit="10" d="M199.5,306.2c-11.6-23.2-23.1-20.9-23.1-20.9
	s-11.9-17.1-31.4-24.7c81.5,20.8,46.2-24.1,46.2-24.1c7.1-37.4-74.9-21.4-74.9-21.4c-1.3-22-14.9-17.4-14.9-17.4
	s16.2-45.6,83.4-61.6c0,0,25.6-4.2,44.5,2.6c2.5,0.9,5,2,7.2,3.4c0,0,20.4-4.1,36.5-20.8c27.4-28.4,62.8-63.8,90.9-79.6
	c21.399-12,38.6-12.7,45.1,9.5c4.5,15.5-5.5,29.4-18.7,45.7c-20.2,24.9-62.6,85.9-92.3,93.3c-1.6,0.1-2.7,0.5-2.7,0.5
	c0.9-0.1,1.8-0.3,2.7-0.5c6.2-0.4,20.9,4.3,19.9,56.4c0.399,0.7,0.8,1.3,1.3,1.9l0,0c18.1,27.8-12.3,17.6-12.3,17.6
	c0,24.1-15.9,12.5-15.9,12.5c-8.6,25-20.9,6.6-20.9,6.6s-8.1-9.9-5.9-3.8c5.4,14.8,5.9,16.1,5.9,16.3c-2.5-3.601-4.6-5.9-4.6-5.9
	c-14.9-12.5-24.5,10.7-24.5,10.7c-4.4,8.3-15.7-4.8-15.7-4.8c-3,6.7-3,7.1-3,7.1c-9.2,7.101-16.5-12.899-16.5-12.899
	C199.5,306.2,202,311.2,199.5,306.2z M347.7,129c59.7-46.8,58.8-64.9,43.899-78.4C365.9,27.4,268.2,165.8,268.2,165.8
	c-1.3,4-16.5,24.4-0.2,14.3C277.3,174.3,319.2,151.3,347.7,129z M170.1,198.3c28.1,12.5,62.8-15.7,53.7-23.3
	C183,141.1,170.1,198.3,170.1,198.3z"/>
<path fill="#FFFFFF" stroke="#000000" stroke-width="2" stroke-miterlimit="10" d="M186,328.6c-0.6,0.801-19.6,25.301-4.4-26.199
	c0,0-20.7,17.199-5.2-17.2c0,0,11.5-2.2,23.1,20.899c2.5,5,0,0,6.3-14.3c0,0,7.2,20,16.5,12.9c0,0,0-0.4,3-7.101
	c0,0,11.4,13,15.7,4.801c0,0,9.7-23.2,24.5-10.7c0,0,2.1,2.399,4.6,5.899l0,0c6.4,9.101,15.3,25.9-1.4,31.5c0,0,25.2,26.4,0,27
	c0,0,28.4,39.301,3.2,22.7c0,0,16.1,55.7-3.9,36.7c0.4,0.8,17.4,37.6,4,35.4l0,0c-3-0.5-7.5-2.9-14-8.101c0,0,1.6,6.7,2.9,14
	c2.8,15.8,3.9,34.101-17.4-9.5c0,0-11.6,17.8-20.7-17.2c0,0-3.4,3.801-7,3.5l0,0c-4.1-0.399-8.5-6-8.5-28.399
	c0,0-19.4,34.399-14.2-14.9c0,0-11.6,6.5-5.2-29.7C188,360.7,175,372.3,186,328.6z"/>
<path fill="#FFFFFF" stroke="#000000" stroke-width="2" stroke-miterlimit="10" d="M285.4,451.1l-5.6,14.101
	c-4.4,0.6-18.8-8.2-18.8-8.2l0,0c-1.3-7.2-2.9-14-2.9-14c6.5,5.2,11,7.6,14,8.1l0,0C272.7,451.3,280.1,453.3,285.4,451.1z"/>
<path fill="#FFFFFF" stroke="#000000" stroke-width="2" stroke-miterlimit="10" d="M489.4,513.6c0,0-33.301-1.699-40.4-1.699
	c0,0-14.9-6.9-33.1-4.2c-6.301-1-13.7-4.5-13.7-4.5s-18.601-11.3-15.5-6.9c9.2,13.2-16.5-11.5-16.5-11.5
	c-2.601,6.9-22.5-9.3-22.5-9.3l0,0c2.2-4,3.899-8.2,5.1-12.6c0,0,8.4,40.399,9.7-13.7c0,0,31.7,16,51,12.5c0,0,1.3,33.3,9.7,23.2
	c0,0,20,29.699,29.1,19.5L489.4,513.6z"/>
<path fill="#FFFFFF" stroke="#000000" stroke-width="2" stroke-miterlimit="10" d="M415.8,507.7c18.2-2.7,33.101,4.2,33.101,4.2
	s33,17.5-0.9,35.8c-3.1-0.3-4.8-0.5-4.8-0.5C430.3,559.7,418,542.1,418,542.1c-18.1,9.2-25.2-9.8-25.2-9.8c-7.1,4.8-12.3,0-12.3,0
	C367,504.5,407,509.8,407,509.8C410,508.8,413,508.2,415.8,507.7z"/>
<path fill="#FFFFFF" stroke="#000000" stroke-width="2" stroke-miterlimit="10" d="M261,456.9c0,0,14.4,8.8,18.8,8.199
	c0,0-17.5,45.801-38.9,51.2c0,0-9.3-3.5-18.7,0.2C214.5,503,186,511,186,511c33.9-23,29.9-76.4,29.8-77.3c3.6,0.3,7-3.5,7-3.5
	c9,35,20.7,17.2,20.7,17.2C264.9,491,263.8,472.7,261,456.9L261,456.9z"/>
<path fill="#FFFFFF" stroke="#000000" stroke-width="2" stroke-miterlimit="10" d="M241,516.3c0,0,48.1,11,31.7,27
	c-1.3,1.101-2.5,2.101-3.6,2.9l0,0c-2.8,2.1-4.7,3.3-4.7,3.3c-26.5,13.7-48.2-1.2-48.2-1.2c-10.1,4.8-15.8-6.2-15.8-6.2
	c-7.1-17.5,12.9-19.3,12.9-19.3c2.8-3.2,5.9-5.2,9.1-6.399C231.7,512.8,241,516.3,241,516.3z"/>
<path fill="#FFFFFF" stroke="#000000" stroke-width="2" stroke-miterlimit="10" d="M222.2,516.5c-3.1,1.2-6.3,3.2-9.1,6.4
	c0,0-20,1.8-12.9,19.3c-16.2,9.2-29.7-0.9-29.7-0.9c-11,3.601-17.4-4.7-17.4-4.7c-5.2-41,33-25.5,33-25.5S214.5,503,222.2,516.5z"/>
<g>
	<path d="M278.9,464.8c2.2-5.2,4.1-10.6,5.7-16.1s3-11,4.1-16.601c1.1-5.6,1.8-11.3,2-17c0.2-5.699-0.1-11.5-1.3-17.1
		c1.3,5.6,1.8,11.3,1.8,17.1c0,5.7-0.6,11.5-1.5,17.2c-0.9,5.7-2.1,11.3-3.6,16.9c-1.5,5.6-3.2,11-5.3,16.399L278.9,464.8z"/>
</g>
<g>
	<path d="M361.6,448.7c2.101-4.101,3.601-8.7,4.9-13.2c1.3-4.6,2.3-9.2,3-13.9c1.5-9.399,2-18.899,1.8-28.399
		c-0.399-19-3.7-38-8.899-56.3c5.5,18.3,9.199,37.199,9.899,56.3c0.4,9.6,0,19.2-1.399,28.7c-0.7,4.699-1.601,9.5-2.801,14.1
		c-1.3,4.7-2.699,9.2-4.8,13.7L361.6,448.7z"/>
</g>
<g>
	<path d="M412.5,462.2c1.7-8.5,4.1-16.8,6.9-24.9c2.899-8.1,6.199-16.1,10.199-23.7c4-7.6,8.5-15,13.801-21.8
		c5.3-6.8,11.399-13,18.199-18.3c6.9-5.2,14.5-9.4,22.7-12.2s16.8-4.1,25.4-4.1c8.6,0,17.2,1.2,25.5,3.3s16.399,5,24.3,8.5
		c-7.9-3.4-16-6.2-24.3-8.2s-16.9-3.1-25.4-3c-8.5,0.101-17.1,1.5-25.1,4.3c-8.101,2.801-15.601,7-22.3,12.301
		c-6.7,5.199-12.7,11.5-17.801,18.199c-5.199,6.801-9.6,14.101-13.5,21.7C427.2,421.9,424,429.8,421.2,437.9
		c-2.7,8.1-5,16.3-6.601,24.699L412.5,462.2z"/>
</g>
<g>
	<path d="M169.6,541.6c-0.7-2.1-1-4.199-1.2-6.3c-0.1-2.1,0-4.3,0.7-6.399c0.6-2.101,1.8-4,3.5-5.301c1.7-1.3,3.7-2.1,5.7-2.6
		c-2,0.6-3.9,1.5-5.4,2.9c-1.5,1.399-2.4,3.199-2.9,5.199c-0.4,1.9-0.4,4-0.1,6c0.3,2,0.8,4,1.5,5.801L169.6,541.6z"/>
</g>
<g>
	<path d="M192.7,545.5c-0.8-1.7-1.5-3.5-2.1-5.3s-1-3.601-1.3-5.5c-0.2-1.9-0.3-3.8,0.3-5.7c0.3-0.9,0.8-1.8,1.5-2.4
		c0.7-0.699,1.6-1.1,2.4-1.3c-0.9,0.3-1.7,0.8-2.3,1.5c-0.6,0.7-1,1.5-1.2,2.4c-0.4,1.8-0.2,3.6,0.2,5.399c0.4,1.801,1,3.5,1.7,5.2
		c0.7,1.7,1.5,3.3,2.4,4.9L192.7,545.5z"/>
</g>
<g>
	<path d="M215.1,548.8c-0.7-1.899-1.3-3.899-1.7-5.899s-0.6-4.101-0.3-6.101c0.1-1,0.4-2.1,1-3c0.5-0.899,1.3-1.7,2.3-2.1
		c1.9-0.9,4-0.8,5.9-0.5c-2-0.101-4,0-5.7,1c-1.7,1-2.4,2.899-2.5,4.8s0.3,3.8,0.8,5.7c0.5,1.8,1.2,3.7,2.1,5.399L215.1,548.8z"/>
</g>
<g>
	<path d="M238.5,556c-1.4-1.8-2.6-3.7-3.7-5.7c-1.1-2-2.1-4-2.6-6.2c-0.3-1.1-0.4-2.3-0.3-3.399c0.1-1.2,0.5-2.3,1.3-3.2
		c0.8-0.9,1.8-1.4,2.9-1.8c1.1-0.3,2.2-0.5,3.3-0.601c-1.1,0.2-2.2,0.4-3.2,0.801c-1,0.399-1.9,1-2.6,1.899
		c-0.6,0.8-0.9,1.9-0.9,2.9s0.2,2.1,0.5,3.1c0.7,2,1.7,3.9,2.9,5.7c1.2,1.8,2.5,3.5,4,5.1L238.5,556z"/>
</g>
<g>
	<path d="M391.9,532.7c-0.7-2.101-1-4.2-1-6.4s0.5-4.399,1.8-6.2c1.3-1.8,3.399-2.899,5.399-3.3c2.101-0.5,4.2-0.5,6.2-0.3
		c-2.1,0-4.2,0.1-6.1,0.7c-1.9,0.6-3.7,1.7-4.7,3.399c-1,1.7-1.3,3.7-1.2,5.601c0.101,2,0.601,4,1.3,5.7L391.9,532.7z"/>
</g>
<g>
	<path d="M417.2,541.5c1.1-1.2,2.1-2.5,3.1-3.8s1.9-2.7,2.601-4.2c0.8-1.5,1.399-3,1.6-4.6c0.1-0.801,0.1-1.601-0.1-2.4
		c-0.2-0.8-0.7-1.5-1.301-2.1c0.7,0.5,1.2,1.199,1.601,2c0.3,0.8,0.399,1.699,0.399,2.5c-0.1,1.699-0.6,3.399-1.199,5
		c-0.601,1.6-1.4,3.1-2.301,4.6c-0.899,1.5-1.8,2.9-2.8,4.3L417.2,541.5z"/>
</g>
<g>
	<path d="M442.6,546.5c1.301-1,2.5-2.2,3.5-3.6c1-1.301,1.801-2.9,2-4.5c0.301-1.601-0.1-3.301-1.1-4.801c-1-1.399-2.3-2.6-3.8-3.5
		c1.6,0.801,3.1,1.801,4.2,3.301c1.199,1.399,1.8,3.3,1.699,5.199c-0.1,1.9-0.8,3.7-1.8,5.2c-1,1.601-2.1,3-3.5,4.3L442.6,546.5z"/>
</g>
<g>
	<path d="M130.4,229.3c7.7-4.2,15.8-7.7,24.1-10.8c8.3-3,16.8-5.4,25.5-7.2c8.6-1.8,17.5-3,26.3-3c8.9,0,17.7,0.9,26.3,3.3v0.2
		c-8.7-1.3-17.5-1.8-26.2-1.5c-8.7,0.3-17.4,1-26.1,2.6c-8.6,1.6-17.1,3.8-25.4,6.6c-8.3,2.8-16.5,6-24.3,10L130.4,229.3z"/>
</g>
<g>
	<path d="M152.7,229.5c8.5-2,17-3.6,25.5-5c8.6-1.4,17.2-2.5,25.8-3.3c8.7-0.8,17.4-1.4,26.1-1c8.7,0.5,17.5,1.4,25.7,4.4l-0.1,0.2
		c-8.5-1.9-17.1-2.5-25.7-2.6c-8.6-0.1-17.3,0-25.9,0.6c-8.6,0.6-17.2,1.5-25.8,2.7c-8.6,1.2-17.2,2.5-25.7,4.2L152.7,229.5z"/>
</g>
<g>
	<path d="M135.6,243c5.4-2.5,11.1-4.3,16.8-6c5.7-1.6,11.5-3,17.3-4.1c11.7-2.2,23.5-3.5,35.4-4s23.8-0.4,35.7,0.8
		c11.8,1.3,23.6,3.2,35.1,6.1v0.2c-11.7-1.8-23.5-3.4-35.2-4.3c-11.8-0.9-23.6-1.5-35.4-1.2c-11.8,0.3-23.6,1.4-35.3,3.4
		c-5.8,1-11.6,2.2-17.4,3.7c-5.7,1.5-11.4,3.3-16.8,5.6L135.6,243z"/>
</g>
<g>
	<path d="M168.6,252.5c6.6-2.4,13.4-4.2,20.3-5.7c6.9-1.4,13.9-2.4,21-2.9c7-0.5,14.2-0.6,21.2,0.3c3.5,0.5,7,1.1,10.4,2
		c1.7,0.4,3.4,0.9,5.1,1.5c1.7,0.6,3.3,1.2,5,1.9l-0.1,0.2c-1.7-0.4-3.4-0.8-5.1-1.2c-1.7-0.4-3.4-0.7-5.2-1
		c-3.4-0.6-6.9-1-10.4-1.3c-6.9-0.6-13.9-1-20.9-0.7c-7,0.3-14,1.1-20.9,2.3c-6.9,1.2-13.8,2.7-20.5,4.9L168.6,252.5z"/>
</g>
<g>
	<path d="M152.6,248.4c5.1-2.1,10.4-3.7,15.7-5.1c5.3-1.4,10.7-2.6,16.2-3.5c10.9-1.9,21.9-2.8,33-2.9s22.2,0.6,33.1,2.5
		c10.9,2,21.6,4.9,31.9,9l-0.1,0.2c-10.6-3-21.3-5.6-32.1-7.2c-10.8-1.7-21.8-2.8-32.7-2.9c-11-0.1-22,0.7-32.8,2.3
		c-5.4,0.8-10.8,1.8-16.2,3.1c-5.3,1.3-10.7,2.8-15.8,4.7L152.6,248.4z"/>
</g>
</svg>
