<?xml version="1.0" encoding="utf-8"?>
<!-- Generator: Adobe Illustrator 15.0.0, SVG Export Plug-In . SVG Version: 6.00 Build 0)  -->
<!DOCTYPE svg PUBLIC "-//W3C//DTD SVG 1.1//EN" "http://www.w3.org/Graphics/SVG/1.1/DTD/svg11.dtd">
<svg version="1.1" id="Layer_x5F_www.ABC-color.com"
	 xmlns="http://www.w3.org/2000/svg" xmlns:xlink="http://www.w3.org/1999/xlink" x="0px" y="0px" width="822px" height="567px"
	 viewBox="0 0 822 567" enable-background="new 0 0 822 567" xml:space="preserve">
<path fill="#FFFFFF" stroke="#000000" d="M437.1,212.9l0.102,0.1c-3,6.1-5.3,13.8-8.102,20.3c0.2-3-1.3-7.4-8.1-13.3l-0.8-0.2
	C425.6,218.2,432.1,215.3,437.1,212.9z"/>
<path fill="#FFFFFF" stroke="#000000" d="M797,465.1l0.4,0.2c0,0,21.3-2.7,24.698,19.3v9.302C810.8,470.6,793.4,473.2,793.4,473.2
	L793.1,473C794.3,470.4,795.6,467.7,797,465.1z"/>
<path fill="#FFFFFF" stroke="#000000" d="M790,462.7l0.3,0.2c-1.6,2.6-3.2,5.3-4.7,8l-0.3-0.2c-35.3,3.8-79.8-46-83.1-49.8
	c1.898-2,3.7-4.2,5.398-6.5l0.4,0.3C708,414.7,748,462,790,462.7z"/>
<path fill="#FFFFFF" stroke="#000000" d="M659.4,252.8c-7.5,1.9-15.4,2.9-23.4,2.9c-0.7,0-1.3,0-2,0v-0.8l0,0h0.1c0,0,0,0,0.102,0
	c0,0,0,0,0.1,0h0.102c2.398-1,17.398-7.6,20.398-13.5C656.9,247.4,658.8,251.4,659.4,252.8z"/>
<path fill="#FFFFFF" stroke="#000000" d="M651.2,229.9c1.2,4.3,2.398,8.1,3.6,11.3c-3.1,5.9-18,12.5-20.398,13.5H634.3
	c0,0,0,0-0.1,0c0,0,0,0-0.102,0H634l0,0v0.8c-5.7-0.1-11.3-0.7-16.8-1.8l0.1-0.5c2.7,0,32.7-18,33.3-23.3H651.2z"/>
<path fill="#FFFFFF" stroke="#000000" d="M651.2,229.9l-0.5,0.1c-0.7,5.3-30.7,23.3-33.3,23.3l-0.102,0.5c-5-1-10-2.4-14.7-4.1
	l0.102-0.4c23.2-12.1,37.3-23.3,45.6-31.5C649.2,222.2,650.2,226.2,651.2,229.9z"/>
<path fill="#FFFFFF" stroke="#000000" d="M708,223.3l0.4,0.4c-3.4,3.6-7,7-10.802,10c-2.698-1.9-6.198-14.4-6.198-14.4l0.3-0.8
	C696.9,220.4,702.4,222,708,223.3z"/>
<path fill="#FFFFFF" stroke="#000000" d="M691.3,219.3c0,0,3.602,12.6,6.2,14.4c-3.4,2.7-7,5.3-10.8,7.5L675.6,212.6l0.2-0.4
	c5.102,2.3,10.3,4.4,15.8,6.3L691.3,219.3z"/>
<path fill="#FFFFFF" stroke="#000000" d="M675.7,212.7l11.1,28.6c-3.1,1.9-6.398,3.7-9.7,5.2L666.7,208l0.1-0.2c3,1.6,6,3,9.102,4.4
	L675.7,212.7z"/>
<path fill="#FFFFFF" stroke="#000000" d="M666.7,208l10.398,38.5c-2.398,1.1-4.898,2.2-7.3,3.1l-0.1-0.3L657.3,208l-0.398-0.1
	c1.5-2,2-3.2,2-3.2l0.5-0.8c2.398,1.4,4.8,2.7,7.3,4L666.7,208L666.7,208z"/>
<path fill="#FFFFFF" stroke="#000000" d="M726,198.7L726,198.7c-0.3,0.8-0.8,1.6-1.2,2.4c-0.898,1.6-1.8,3.2-2.7,4.7l-0.8-0.5
	c-11.6-2.9-23-8-34.1-14.5l0.1-0.2C687.3,190.7,726.7,196,726,198.7z"/>
<path fill="#FFFFFF" stroke="#000000" d="M728.3,194.2c-0.7,1.5-1.398,3-2.2,4.5H726c0.7-2.7-38.7-8-38.7-8l-0.1,0.2
	c-3.602-2.1-7.2-4.4-10.7-6.8c4.2,0,13.7-1.1,24.1-2.8l0.102,0.8c1.3,0.5,15.898,5.3,28.6,5.3l1.602,0.6
	C730.1,190,729.2,192.1,728.3,194.2z"/>
<path fill="#FFFFFF" stroke="#000000" d="M735.3,172l0.4,0.1c-1.2,5.5-2.9,10.7-4.9,15.8l-1.6-0.6c-12.7,0-27.2-4.8-28.602-5.3
	l-0.1-0.8C714.2,179,729.2,175.6,735.3,172z"/>
<path fill="#FFFFFF" stroke="#000000" d="M738,158L738,158c-0.4,4.8-1.2,9.5-2.3,14.1l-0.4-0.1c-6.1,3.6-21.1,7-34.7,9.2
	c-10.398,1.7-19.898,2.8-24.1,2.8c-1.5-1-3-2.1-4.6-3.2c1.198-2.1,2.3-4.3,3.3-6.5l1.398,0.4C676.7,174.7,724.7,172,738,158z"/>
<path fill="#FFFFFF" stroke="#000000" d="M738.5,140.2c0.1,1.9,0.1,3.8,0.1,5.8c0,4.1-0.198,8.1-0.6,12h-0.1
	C724.6,172,676.6,174.7,676.6,174.7l-1.398-0.4c1.8-4.1,3.3-8.4,4.5-12.8l1.6,0.5C681.3,162,726.3,160,738.5,140.2z"/>
<path fill="#FFFFFF" stroke="#000000" d="M719.4,140.5c6.8-3.6,13.1-8.5,17.398-15.1c0.9,4.8,1.4,9.8,1.7,14.8
	C726.3,160,681.3,162,681.3,162l-1.6-0.5c1-3.6,1.8-7.3,2.398-11.1l1.2,0.2c0,0,1.5-0.1,4-0.4c3.7-0.5,9.7-1.5,16.4-3.5
	C708.8,145.3,714.2,143.2,719.4,140.5z"/>
<path fill="#FFFFFF" stroke="#000000" d="M703.7,146.7c0,0,25-39.3,25-46.7l0.5-0.2c1.6,3.7,3,7.5,4.3,11.4l-14,29.2
	C714.2,143.2,708.8,145.3,703.7,146.7L703.7,146.7z"/>
<path fill="#FFFFFF" stroke="#000000" d="M733.4,111.2c1.398,4.6,2.6,9.3,3.398,14.2c-4.3,6.6-10.6,11.4-17.398,15.1L733.4,111.2z"
	/>
<path fill="#FFFFFF" stroke="#000000" d="M729.1,99.8l-0.5,0.2c0,7.3-25,46.7-25,46.7v0.1c-6.698,2-12.698,3-16.398,3.5
	C690.7,145,724,93.8,724,90l0.2-0.1C726,93.1,727.7,96.4,729.1,99.8z"/>
<path fill="#FFFFFF" stroke="#000000" d="M724.2,89.9L724,90c0,3.8-33.3,55-36.7,60.2c-2.5,0.3-4,0.4-4,0.4l-1.2-0.2
	c0.9-5.6,1.4-11.4,1.602-17.2h0.2c0,0,28-45.2,33-54.7C719.6,82.2,722,86,724.2,89.9z"/>
<path fill="#FFFFFF" stroke="#000000" d="M709.1,69c2.802,3,5.5,6.3,7.9,9.7c-5,9.5-33,54.7-33,54.7h-0.2
	c0.2-5.3,0.102-10.6-0.2-15.9l1.2-0.1c0,0,24-43.3,24-48L709.1,69z"/>
<path fill="#FFFFFF" stroke="#000000" d="M696.9,57.7c4.3,3.4,8.398,7.2,12.198,11.3l-0.398,0.4c0,4.7-24,48-24,48l-1.2,0.1
	c-0.3-4.7-0.7-9.4-1.3-14l0.5-0.1c0,0,16.7-38,14-45.3L696.9,57.7z"/>
<path fill="#FFFFFF" stroke="#000000" d="M696.9,57.7l-0.2,0.3c2.7,7.3-14,45.3-14,45.3l-0.5,0.1c-0.9-7.3-2.2-14.3-3.602-20.8
	C679.7,77.5,683.4,59.1,684,50l0.4-0.7C688.8,51.8,693,54.6,696.9,57.7z"/>
<path fill="#FFFFFF" stroke="#000000" d="M684.4,49.3L684,50c-0.6,9.1-4.3,27.5-5.4,32.6c-5-23.6-12-40.6-12-40.6l0.2-0.6
	C673,43.4,678.8,46.1,684.4,49.3z"/>
<path fill="#FFFFFF" stroke="#000000" d="M678.6,82.6c1.4,6.5,2.602,13.5,3.602,20.8c0.6,4.6,1,9.3,1.3,14
	c0.3,5.3,0.4,10.6,0.2,15.9c-0.2,5.8-0.7,11.5-1.602,17.2c-0.6,3.8-1.398,7.5-2.398,11.1c-1.2,4.4-2.7,8.7-4.5,12.8
	c-1,2.2-2.102,4.4-3.3,6.5c-3.4-2.5-6.802-5.1-10.2-7.8l0.8-1c22-52.3-8.9-126.5-12.3-134.6c5.7,0.8,11.2,2.2,16.6,4l-0.2,0.6
	C666.7,42,673.6,59,678.6,82.6z"/>
<path fill="#FFFFFF" stroke="#000000" d="M650.3,37.4c3.5,8.1,34.4,82.3,12.3,134.6l-0.8,1c-4.1-3.3-8-6.7-11.898-10.3l0.1-0.1
	c26.7-55.3-14-126.3-14-126.3C640.9,36.3,645.6,36.7,650.3,37.4z"/>
<path fill="#FFFFFF" stroke="#000000" d="M636,36.3c0,0,40.7,71,14,126.3l-0.1,0.1c-2.9-2.6-5.802-5.4-8.602-8.1l0.602-0.7
	c1.698-6.4,2.8-12.9,3.5-19.3c4.8-48.5-18.302-93.9-20.302-97.7C628.7,36.5,632.3,36.3,636,36.3z"/>
<path fill="#FFFFFF" stroke="#000000" d="M625.1,36.9c2,3.9,25.102,49.2,20.302,97.7H645.3c0,0-20.7-78.7-32.7-95.3v-0.1
	C616.7,38.2,620.9,37.4,625.1,36.9z"/>
<path fill="#FFFFFF" stroke="#000000" d="M645.3,134.7h0.102c-0.602,6.4-1.802,12.9-3.5,19.3l-0.602,0.7c-1.3-1.3-2.6-2.6-3.898-3.8
	l0.198-0.2c0,0-10.3-70.7-35-107.3l-0.398-1c3.398-1.3,6.8-2.3,10.3-3.2v0.1C624.7,56,645.3,134.7,645.3,134.7z"/>
<path fill="#FFFFFF" stroke="#000000" d="M637.7,150.7l-0.2,0.2c-3.5-3.5-6.9-7.1-10.2-10.7l0,0c-3-10.3-24.898-84-36.7-90.8
	L589.9,48c4-2.2,8.1-4,12.398-5.6l0.4,1C627.3,80,637.7,150.7,637.7,150.7z"/>
<path fill="#FFFFFF" stroke="#000000" d="M607.3,116c-0.398-0.9-23.398-55.4-28.7-60l-0.5-0.6c3.7-2.7,7.7-5.2,11.7-7.4l0.7,1.4
	c11.8,6.8,33.6,80.5,36.7,90.8c-7.3-8-14.2-16.1-20.4-23.8L607.3,116z"/>
<path fill="#FFFFFF" stroke="#000000" d="M607.3,116l-0.398,0.3c-23.2-29-37.602-53.6-37.602-53.6l0,0c2.8-2.6,5.8-5,8.9-7.3
	l0.5,0.6C584,60.6,607,115.1,607.3,116z"/>
<path fill="#FFFFFF" stroke="#000000" d="M627.3,140.1c3.3,3.6,6.7,7.2,10.2,10.7c1.3,1.3,2.6,2.6,3.9,3.8
	c2.8,2.7,5.698,5.4,8.6,8.1c3.9,3.5,7.9,7,11.9,10.3c3.3,2.7,6.698,5.3,10.198,7.8c1.5,1.1,3,2.2,4.602,3.2
	c3.5,2.4,7.1,4.7,10.7,6.8c11.1,6.5,22.5,11.6,34.1,14.5l0.8,0.5c-1,1.7-2.1,3.4-3.2,5l-0.198-0.1
	c-66.7,2.7-153.302-144-153.302-144l-0.1-0.1c1.3-1.3,2.7-2.7,4.1-3.9l0,0c0,0,14.5,24.6,37.602,53.6
	C613.2,124,620,132.1,627.3,140.1L627.3,140.1z"/>
<path fill="#FFFFFF" stroke="#000000" d="M718.8,210.8c-1.398,2-2.8,4-4.3,5.9C624.6,205.2,560.7,72,560.7,72l-0.3-0.2
	c1.5-1.8,3.198-3.5,4.8-5.2l0.1,0.1c0,0,86.7,146.7,153.3,144L718.8,210.8z"/>
<path fill="#FFFFFF" stroke="#000000" d="M628.3,181.5c-2.398-2-4.7-4.1-6.898-6.2c-3.302-3.1-6.4-6.2-9.4-9.3s-5.8-6.3-8.5-9.4
	c-2.1-2.4-4.1-4.9-6.1-7.3c-2.102-2.7-4.2-5.3-6.102-7.9C566.7,108,555.7,78,555.7,78l-0.102-0.1c1.602-2.1,3.2-4.1,4.9-6.1l0.3,0.2
	c0,0,63.9,133.2,153.9,144.6c-1.9,2.5-4,4.8-6.102,7.1l-0.398-0.4c-5.602-1.4-11.102-3-16.4-4.8c-5.398-1.9-10.7-4-15.8-6.3
	c-3.1-1.4-6.1-2.9-9.1-4.4c-2.5-1.3-4.9-2.6-7.302-4c-3.8-2.2-7.5-4.6-11.1-7c-3.1-2.1-6.2-4.3-9.1-6.5c-2.801-2.1-5.5-4.3-8.2-6.5
	C630.1,183,629.2,182.3,628.3,181.5z"/>
<path fill="#FFFFFF" stroke="#000000" d="M591.3,141.3c-0.5-0.5-6.8-6.6-14.5-14.5l0,0c-12.2-12.4-28-29.2-30.2-34.7
	c2.602-5,5.602-9.8,9-14.2L555.7,78C555.7,78,566.7,108,591.3,141.3L591.3,141.3z"/>
<path fill="#FFFFFF" stroke="#000000" d="M546.6,92.1c2.2,5.5,18,22.2,30.2,34.7c-4.3-2-18.3-8.5-13.398-6.8
	c1.698,0.6-8.7-4.7-22-16l-0.2-0.1C542.7,99.9,544.5,95.9,546.6,92.1z"/>
<path fill="#FFFFFF" stroke="#000000" d="M591.3,141.3L591.3,141.3c2,2.6,4,5.3,6.2,7.9l-0.1,0.1c-0.9-0.4-58.7-28.1-58.7-36.6
	l-0.5-0.1c0.898-2.9,1.8-5.8,3-8.6l0.2,0.1c13.3,11.3,23.698,16.6,22,16c-4.802-1.8,9.1,4.8,13.398,6.8l0,0
	C584.5,134.6,590.8,140.8,591.3,141.3z"/>
<path fill="#FFFFFF" stroke="#000000" d="M597.3,149.3l0.102-0.1c2,2.4,4,4.9,6.1,7.3c-8.9-1.8-48.4-12.7-68.2-32.2
	c0.8-4,1.7-8,2.9-11.8l0.5,0.1C538.7,121.3,596.4,148.9,597.3,149.3z"/>
<path fill="#FFFFFF" stroke="#000000" d="M612.1,165.9L612.1,165.9C572.7,166,534.7,139.3,534.7,139.3l-1.102-0.1
	c0.302-5.1,0.9-10,1.802-14.9c19.8,19.5,59.3,30.3,68.198,32.2C606.3,159.7,609.1,162.8,612.1,165.9z"/>
<path fill="#FFFFFF" stroke="#000000" d="M534.7,139.3c0,0,38,26.7,77.3,26.7l0.1-0.1c3,3.1,6.102,6.3,9.4,9.3l-0.1,0.1
	c-50,1.3-87.302-26-87.302-26h-0.6c0-0.3,0-0.5,0-0.8c0.2-2.3,0.3-4.5,0-6.6c0-0.9,0.1-1.8,0.1-2.7L534.7,139.3z"/>
<path fill="#FFFFFF" stroke="#000000" d="M621.4,175.2c2.198,2.1,4.5,4.2,6.898,6.2c-49.6,7.3-86.5-13.5-93.7-18
	c-0.698-4.6-1.1-9.4-1.3-14.1h0.602C534,149.3,571.3,176.7,621.4,175.2L621.4,175.2z"/>
<path fill="#FFFFFF" stroke="#000000" d="M594.3,193.2v0.1c-3.3,3.3-48.3,4-48.3,4l-0.6,0.3c-2.802-5.5-5.102-11.3-7-17.4l0.898-0.3
	C539.3,180,561.7,193.1,594.3,193.2z"/>
<path fill="#FFFFFF" stroke="#000000" d="M628.3,181.5c0.9,0.8,1.8,1.5,2.7,2.3c-0.5,0.8-1.9,2.7-3.9,5.1
	c-3.1,0.9-6.198,1.6-9.198,2.1c-8.302,1.6-16.2,2.2-23.602,2.2c-32.7-0.1-55-13.2-55-13.2l-0.898,0.3c-1.7-5.4-3-11-3.802-16.8
	C541.9,168,578.7,188.8,628.3,181.5z"/>
<path fill="#FFFFFF" stroke="#000000" d="M500.3,152.7c6.602,0,12,5.5,12,12.3s-5.398,12.3-12,12.3c-6.6,0-12-5.5-12-12.3
	C488.3,156.2,494.3,152.7,500.3,152.7z"/>
<path fill="#FFFFFF" stroke="#000000" d="M516.8,145.5c0.602-0.7,12.8-15.1,15.5-8.5c0.602,1.5,1,3.2,1.2,5c-0.1,1.3-0.1,2.7-0.1,4
	c0,0.9,0,1.7,0,2.5c-1.2,12.6-7.802,28-9.9,32.2c0-0.1,0.2-0.4,0.4-0.9c-4.7,6.2-5.4,8.6-4.602,15.9c0,0-3.5,45.1-45.3,58.2
	c6.2-3.2,13.3-8.1,15.3-16.3c1.7-6.8-16.2-2.7-17.398-2.4c5.898-1.9,9.8-10.1,9.8-10.1c2.3-10.8-14.4-2.9-15.602-2.3
	c9.4-4.8,4.7-12.3,4.7-12.3c-1.3-1.7-3.398-2.4-5.5-2.6v-0.2c12.8-4.2,11.8-10.6,15.102-20.8c0,0-9.302-36.8-4.302-50.5
	c0,0,1.5-11.3,11.5-11.8c0,0,3.5,1.8,3.5,12.3c0,0.3-1,0,0.302,0.8c0,0,3-13.5,10-11.5c0,0,8.198,3.2,3.6,12.6
	c0.8-1.6,9.4-17.4,13.9-7.4C518.8,131.5,520.5,140.5,516.8,145.5z M512.2,165c0-6.8-5.4-12.3-12-12.3c-5.9,0-12,3.5-12,12.3
	c0,6.8,5.398,12.3,12,12.3C506.8,177.3,512.2,171.8,512.2,165z"/>
<path fill="#FFFFFF" stroke="#000000" d="M617.9,191l0.1,0.3c-16.7,18-64,19.3-64,19.3l-0.6,0.4c-3-4.3-5.602-8.8-8-13.5l0.6-0.3
	c0,0,45-0.7,48.3-4v-0.1C601.7,193.3,609.6,192.6,617.9,191z"/>
<path fill="#FFFFFF" stroke="#000000" d="M617.9,191c3-0.6,6.1-1.3,9.198-2.1c-9,11-32.1,34-65.8,30.4l-1,0.8
	c-2.5-2.9-4.8-5.9-7-9.1l0.602-0.4c0,0,47.3-1.3,64-19.3V191z"/>
<path fill="#FFFFFF" stroke="#000000" d="M627.2,188.9c2-2.4,3.3-4.3,3.898-5.1c2.602,2.2,5.4,4.4,8.2,6.5
	c-1.398,3.6-16,38.4-67,41.7c-4.3-3.6-8.2-7.5-11.898-11.8l1-0.8C595,222.9,618.2,199.9,627.2,188.9z"/>
<path fill="#FFFFFF" stroke="#000000" d="M639.2,190.3c3,2.3,6,4.4,9.1,6.5c-1.8,4.5-12.898,26-61.5,45.5c-5.2-3-10-6.5-14.6-10.3
	C623.2,228.7,637.8,194,639.2,190.3z"/>
<path fill="#FFFFFF" stroke="#000000" d="M648.3,217.8c-8.3,8.2-22.398,19.4-45.6,31.5l-0.102,0.4c-5.5-2-10.698-4.5-15.698-7.4
	c48.5-19.5,59.6-41,61.5-45.5c3.6,2.4,7.3,4.8,11.1,7l-0.5,0.8c0,0-0.6,1.1-2,3.2C655.3,210.1,652.6,213.6,648.3,217.8z"/>
<path fill="#FFFFFF" stroke="#000000" d="M654.8,241.2c-1.1-3.2-2.398-7-3.6-11.3c-1-3.6-2-7.7-2.9-12c4.3-4.3,7.102-7.7,8.7-10
	l0.4,0.1l12.3,41.3l0.1,0.3c-3.398,1.3-6.8,2.3-10.3,3.2C658.8,251.4,656.9,247.4,654.8,241.2z"/>
<path fill="#FFFFFF" stroke="#000000" d="M702.2,420.9c-3.5,3.6-7.3,6.5-11.5,8.398c0,0-67.3,29.3-46.7,54
	c20.7,24.7,50.7,28,56,26.7s71.3,6.7,73.3-9.3c0.7-5.9,5.7-17.8,12.3-29.8c1.5-2.7,3-5.4,4.7-8c10.9-17.602,24.4-32.302,31.7-23.5
	v6.698c-6.9-8.3-16.8,3.602-25,19.102c-1.4,2.6-2.7,5.3-4,8c-5.8,12.6-10.2,25.8-11,32.2c-2,16-87.3,9.3-92.7,10.698
	C684,517.4,654.6,505.4,634,480.8c-20.7-24.7,46.7-54,46.7-54c5.7-2.7,10.7-7,15.1-12.5c1.602-2.1,3.2-4.3,4.602-6.6
	C721.3,374.1,724.7,314.1,724.7,314.1c-14.7-35.3,18-74,18-74c5.3-24-17.3-38.7-17.3-38.7l-0.5-0.3c0.398-0.8,0.8-1.6,1.198-2.3
	c0.802-1.5,1.5-3,2.2-4.5l1.102,0.5c0,0,28.698,24,23.3,48c0,0-32.7,38.7-18,74c0,0-3.7,65.3-27.102,97.7
	C705.9,416.7,704.1,418.9,702.2,420.9z"/>
<path fill="#FFFFFF" stroke="#000000" d="M580.8,509c-2.8-1.7-5.5-3.4-8.1-5.3c0,0-39.3-27.3-62-24c0,0-32.7-15-37.3-21.7H473
	c-0.3-6.2-0.6-11.9-1-17.3l0.8-0.102c4.7,21.302,38,30.7,38,30.7c22.3-3.3,60.8,23.2,62,24l0,0c2.9,2.102,5.9,4,9,5.8
	c85.7,50.5,240.3,10.2,240.3,10.2v3.3v2.7v2.3C822,519.7,666.3,560.3,580.8,509z"/>
<path fill="#FFFFFF" stroke="#000000" d="M700,407.3l0.4,0.2c-1.4,2.3-3,4.5-4.602,6.6l-1.1-0.8c-4-2.7-12.7-6.7-12.7-6.7
	c-23.3-18-129.3,31.302-129.3,31.302C540,443.2,582,500.6,582,500.6l-0.3,0.5c-3.102-1.8-6.102-3.8-9-5.8l0,0
	c-1.4-1.3-51.602-45.7-23.3-70C549.3,425.3,669.3,367.3,700,407.3z"/>
<path fill="#FFFFFF" stroke="#000000" d="M473.5,478.5c0.1,5,22,6,13,17.5c0,0-15.5,9-44-1.5c-10.6-3.9-6.5-68.6-40.2-54.1
	C402,428.8,401,418.7,399.4,410c11.3-12,20.6-27,26.898-44.3l0.602,0.2c12.898-0.5,38-15.4,44.898,74.698
	c0.4,5.4,0.8,11.102,1,17.302C473.2,464.4,473.4,471.2,473.5,478.5z"/>
<path fill="#FFFFFF" stroke="#000000" d="M580.8,509c0.4,14.5-48.1,33-48.1,33c-80,22.7-97.3,4-97.3,4
	c-38-34.7-99.302-4.7-99.302-4.7c-43.3,40.7-78.7,8.7-78.7,8.7C202.7,496.7,50,556.7,50,556.7c-54-14.7-9.3-34-9.3-34
	c135.3-89.3,184.7-92,184.7-92l0.3-0.7c3.4,1.3,7,2.6,10.6,4.1l-0.2,0.5c0,0-48,2-183.3,91.302c0,0-40.7,8.698-4.3,22
	c0,0,152.7-60,207.3-6.7c0,0,35.3,32,78.7-8.7c0,0,61.3-30,99.3,4.7c0,0,17.3,18.7,97.3-4c0,0,44.302-15,41.7-29.7
	C575.3,505.5,578,507.3,580.8,509z"/>
<path fill="#FFFFFF" stroke="#000000" d="M435.5,300c1.6,23.8-1.9,46.2-9.1,65.8C420,383,410.8,398,399.5,410
	c-9.8-56-40.2-55-40.2-55c10.7-2.5,0.602-26.4,0.602-26.4v-0.3c5.898,0.2,13,0.601,21.398,1.5c16.2,1.601,38.5-3.3,54-29.899
	L435.5,300z"/>
<path fill="#FFFFFF" stroke="#000000" d="M318,337c0,0,5,21.5-42.9,2.6c2.4-4.5,4.5-8.5,6.3-11.8l0.5,0.3
	C282,328,308.5,342.5,318,337z"/>
<path fill="#FFFFFF" stroke="#000000" d="M328.5,309.5c0,0,3,22.5-40.5,6.5c1.8-3.8,3.8-7.6,5.9-11.5
	C298,306.7,315.8,315.7,328.5,309.5z"/>
<path fill="#FFFFFF" stroke="#000000" d="M309,281c0,0,25,8.5,34.5,7c0,0-12.7,15.2-41,1.9c2-3.2,4-6.3,6-9.3L309,281z"/>
<path fill="#FFFFFF" stroke="#000000" d="M352,456.4h-0.7c-4.7,11.198-12.7,22.1-26.3,29.6c-3.8,3.7-42,10-61-39
	c-9.8-5-19.1-9.3-27.8-12.8c-3.6-1.5-7.2-2.9-10.6-4.102c-96.9-35.499-121,17.302-116.6,16c-9,26.7-42.5,41.5-42.5,41.5
	C57,468.5,86,417,86,417c53.5-82,173.3,0.2,173.3,0.2c-5.7-33.3,4.3-54.7,4.3-54.7c4.2-8.5,8.2-16.3,11.6-22.9
	C323,358.5,318,337,318,337c-9.5,5.5-36-9-36-9l-0.5-0.3c4-7.4,6.5-11.7,6.5-11.7c43.5,16,40.5-6.5,40.5-6.5
	c-12.8,6.2-30.5-2.8-34.6-5c2.7-4.9,5.6-9.8,8.6-14.5c28.3,13.2,41-1.9,41-1.9c-9.5,1.5-34.5-7-34.5-7l-0.5-0.4
	c11.4-17.2,22-30.6,22-30.6l0.1-0.5c10,2,19.302,0.9,26.802-1l0.1,0.5c0.6,6.3-0.8,17.9-0.8,17.9c-0.2,7.1,7,4.3,7,4.3
	c15-6.3,37.3-7.3,37.3-7.3c8.4-17.8,22.8-24.5,25.9-25.8l-0.102-0.3c0.2-0.2,2.102-1.8,2.3-4.7c2.802-6.5,5.102-14.2,8.102-20.3
	c1.898-3.9,4.2-7.2,7.1-9.1c0,0,2.8-2.9,6.8-4.1c0.2-0.1,0.4-0.1,0.7-0.2c2.8-0.6,6.9-0.7,8.8,1.6c0,0,2.2,0.1-3.898,8.3
	c-0.3,0.1-0.5,0.2-0.7,0.3c-0.8-0.1-2.1-0.3-1.7,0.7c0,0,0.7-0.3,1.7-0.7c0.3,0,0.5,0,0.5,0s0.1-0.1,0.2-0.2
	c2.2-0.8,5.5-1.7,8.5-1.5c2.2,0.1,4.2,0.8,5.5,2.6c0,0,4.7,7.5-4.7,12.3c1.3-0.6,18-8.5,15.6,2.3c0,0-3.898,8.2-9.8,10.1
	c1.3-0.3,19.2-4.5,17.4,2.4c-2.102,8.2-9.102,13.1-15.3,16.3c-3.5,1.8-6.802,3.1-8.7,4.1c-0.2,0-14,1.6-22.3,24.8
	c-2.302,6.5-4.9,12.2-7.802,17.1c-15.5,26.6-37.8,31.5-54,29.9c-8.398-0.801-15.5-1.301-21.398-1.5v0.3
	c0,0,10.1,23.899-0.602,26.399c0,0,30.4-0.899,40.2,54.999c1.5,8.7,2.5,18.7,2.9,30.4c0.2,7.8,0.1,16.3-0.3,25.6l6.5,18.5
	c0,0,22.5,18-1.9,17.7c-2.6,0-5.8-0.3-9.7-0.8c-2.8-0.4-5.898-0.9-9.398-1.5c-2.802-0.5-5.802-1.2-9.102-1.9
	c-1.898-0.398-3.898-0.898-6-1.398c-2.7-0.602-5.5-1.4-8.5-2.102C355.5,492.3,351.7,470.4,352,456.4z"/>
<path fill="#FFFFFF" stroke="#000000" d="M421,220c6.8,5.8,8.3,10.3,8.1,13.3c-0.698,1.7-1.5,3.3-2.3,4.7l0,0l0.102,0.3
	c-3.102,1.3-17.5,8-25.9,25.8c0,0-22.3,1-37.3,7.3c0,0-7.3,2.8-7-4.3c0,0,1.398-11.6,0.8-17.9l-0.1-0.5
	c11-2.8,18.198-7.4,18.198-7.4c31.4,2.4,37.7-20.1,37.7-20.1c1.7,0.1,4.102-0.4,6.8-1.2H421z"/>
<path fill="#FFFFFF" stroke="#000000" d="M387.5,204c0,0,5.1,6.5,10.8,7c-6.5,12.4-15.3,6.5-15.3,6.5l0.3-0.3c3.2-5,4-9.6,3.9-13.2
	H387.5z"/>
<path fill="#FFFFFF" stroke="#000000" d="M379,180.8c3.5-1,7.2-2,10.5-2.8c4.8-1.2,3,12.5-5.5,19c0,0-12.2,1.8-20.7-7
	c-2.5-2.6,3.4-5.3,11.3-7.9C376,181.7,377.5,181.3,379,180.8z"/>
<path fill="#FFFFFF" stroke="#000000" d="M389.3,147.3c1.4-1.1,16,6.7,10,18.7C389.3,158,386.6,149.5,389.3,147.3z"/>
<path fill="#FFFFFF" stroke="#000000" d="M399.3,166c6-12-8.6-19.8-10-18.7C386.6,149.5,389.3,158,399.3,166z M425.5,162.1
	c-5.7,0.3-25.9,2.1-34.4,10.8c0,0-22.6-25.4-2.698-29.9C388.4,143,400.2,141.5,425.5,162.1L425.5,162.1z"/>
<path fill="#FFFFFF" stroke="#000000" d="M356.5,184c-4.2-1-9.9,0-15.7,1.7c-13.6,4-28.3,12.3-28.3,12.3c10-31,22-36.5,22-36.5
	C355.3,151.4,356.5,184,356.5,184z M341.5,184.6c7.3-10.5-0.5-20.1-2-19.6c-3.3,1-1.5,10.7,1.2,19L341.5,184.6z"/>
<path fill="#FFFFFF" stroke="#000000" d="M339.5,165c1.6-0.5,9.3,9.1,2,19.6l-0.9-0.6C338,175.7,336.2,166,339.5,165z"/>
<path fill="#FFFFFF" stroke="#000000" d="M383.8,47.4c-10.1,10.7-2,54.8-2,54.8c-3.6-0.6-7.2-0.7-10.8-0.4
	C370.6,97.1,367.8,56.3,383.8,47.4z"/>
<path fill="#FFFFFF" stroke="#000000" d="M326.5,117.3c0,0,0.3,0.2,0.9,0.5c-7.302,4.5-12.4,8.5-14.102,9.8l-0.3-0.3
	c-7.4-16.1-43.7-38.9-43.7-38.9C297.6,83.9,326.5,117.3,326.5,117.3z"/>
<path fill="#FFFFFF" stroke="#000000" d="M379,180.8c-1.5,0.4-3,0.9-4.4,1.3c-13.3-42.5-41.898-61.2-47.198-64.4
	c11.198-6.9,27.398-14.9,43.6-15.9c0,0.3,0,0.4,0,0.4S362.5,133.9,379,180.8z"/>
<path fill="#FFFFFF" stroke="#000000" d="M387.2,204c0.1,3.6-0.7,8.2-3.9,13.2l-0.3,0.3c0,0,8.8,5.9,15.3-6.5
	c-5.7-0.5-10.8-7-10.8-7H387.2z M425.5,162.1L425.5,162.1c-25.3-20.6-37.1-19-37.1-19c-19.9,4.5,2.698,29.9,2.698,29.9
	C399.6,164.2,419.8,162.4,425.5,162.1z M340.8,185.7c5.9-1.7,11.602-2.6,15.7-1.7c0,0-1.3-32.6-22-22.5c0,0-12,5.5-22,36.5
	C312.5,198,327.2,189.6,340.8,185.7z M313.3,127.5c1.602-1.3,6.8-5.3,14.102-9.8c5.3,3.2,33.898,21.9,47.198,64.4
	c-7.898,2.5-13.698,5.3-11.3,7.9c8.5,8.8,20.7,7,20.7,7c8.5-6.5,10.3-20.2,5.5-19c-3.4,0.9-7,1.8-10.5,2.8c-16.4-46.9-8-78.6-8-78.6
	s0-0.1,0-0.4c3.6-0.2,7.2-0.1,10.8,0.4c0,0-8-44.1,2-54.8c0,0,32.7,27,26.4,56c0,0,17.6,20.1,20.1,61.6
	c5.102,2.5,16.8,2.5,20.8,14.8c0,0,5.4,9.4,0.802,19.9c-0.2,0.1-0.5,0.1-0.7,0.2c-4,1.2-6.8,4.1-6.8,4.1c-2.9,1.9-5.2,5.2-7.102,9.1
	l-0.1-0.1c-4.9,2.4-11.5,5.3-16.9,6.9c-2.7,0.8-5.1,1.3-6.8,1.2c0,0-6.3,22.5-37.7,20.1c0,0-7.2,4.6-18.2,7.4
	c-7.5,1.9-16.8,2.9-26.8,1c-7.398-1.4-15.1-4.5-22.8-10c0,0-12.3-13.8,2-30.3c0,0-27.5-18-24.8-60c0,0-16.9-3.7-15.7-60.9
	c0,0,36.3,22.9,43.7,38.9L313.3,127.5z"/>
<path fill="none" stroke="#000000" d="M311.9,168.2c0,0,3.8-5.3-14.3-14.3"/>
<path fill="none" stroke="#000000" d="M319.9,162.7c0,0,1.3-6.3-12.802-18.3"/>
<path fill="none" stroke="#000000" d="M327.9,159.2c0,0,5.8-7.3-8.302-20.3"/>
<path fill="none" stroke="#000000" d="M330,217.3c0,0-31.1,1.1-39.8,3.4"/>
<path fill="none" stroke="#000000" d="M325.9,224.2c-26,6.8-23.801,7.5-38.5,13.5"/>
<line fill="none" stroke="#000000" x1="332.9" y1="228.7" x2="294.8" y2="253.2"/>
<path fill="none" stroke="#000000" d="M428.9,179c0,0,17.5-22.3,24.8-28.3"/>
<line fill="none" stroke="#000000" x1="437.7" y1="180" x2="472.4" y2="160.2"/>
<line fill="none" stroke="#000000" x1="433.7" y1="190.7" x2="469.2" y2="183.7"/>
<path fill="none" stroke="#000000" d="M382.9,216.7c-1,1.6-2.302,3.3-3.9,5.1c0,0-16.2,6-16.9-12.3"/>
<path fill="none" stroke="#000000" d="M398.1,210.4c2.2,0.1,4.5-0.6,6.602-3.1c0,0,11.5-7.9,2.398-13.9"/>
<path fill="none" stroke="#000000" d="M286.6,385.2c0,0-3.8-51.601,72.3-30.8"/>
<path fill="none" stroke="#000000" d="M401.3,135.8c0,0-3.7-0.8,2.8-20.8"/>
<path fill="none" stroke="#000000" d="M391.9,134.6c0,0-4.302-4.6,3.698-21.6"/>
<path fill="none" stroke="#000000" d="M384.5,136.3c-6.8-8.8,1.7-26.7-0.8-22.3"/>
<path fill="none" stroke="#000000" d="M359.5,327.7c-17.9-0.601-24.9,1.2-24.9,1.2"/>
<path fill="none" stroke="#000000" d="M356.2,409.5c0,0,4.2,23.9-5.2,46.4"/>
<path fill="none" stroke="#000000" d="M398.2,489c0,0,9,4.5,6,11.5"/>
<path fill="none" stroke="#000000" d="M385.2,490c0,0,6.5,2,4.5,10.5"/>
<path fill="none" stroke="#000000" d="M373.2,489.5c0,0,7.5,3.1,5,8"/>
<path fill="none" stroke="#000000" d="M473.2,489c0,0,7-1,7,7"/>
</svg>
