<?xml version="1.0" encoding="utf-8"?>
<!-- Generator: Adobe Illustrator 15.0.0, SVG Export Plug-In . SVG Version: 6.00 Build 0)  -->
<!DOCTYPE svg PUBLIC "-//W3C//DTD SVG 1.1//EN" "http://www.w3.org/Graphics/SVG/1.1/DTD/svg11.dtd">
<svg version="1.1" id="Layer_1" xmlns="http://www.w3.org/2000/svg" xmlns:xlink="http://www.w3.org/1999/xlink" x="0px" y="0px"
	 width="567px" height="822px" viewBox="0 0 567 822" enable-background="new 0 0 567 822" xml:space="preserve">
<path fill="#FFFFFF" stroke="#000000" stroke-width="2" stroke-miterlimit="10" d="M195.5,757.5c0,0,3.4,16.4-2.6,18.4
	c0,0-37.9,2-38-0.5c0,0,9.4-13.601,16-19.301c1.3-1.1,2.5-1.899,3.5-2.3L195.5,757.5z"/>
<path fill="#FFFFFF" stroke="#000000" stroke-width="2" stroke-miterlimit="10" d="M328.1,760.6c0.2,4.5-0.3,10.601-3.8,11.801
	c0,0-36.399,1.8-36.5-0.5c0,0,14.9-17.5,20.4-19.301l19.5,3.301C327.8,755.9,328.1,758,328.1,760.6z"/>
<path fill="#FFFFFF" stroke="#000000" stroke-width="2" stroke-miterlimit="10" d="M371.8,490l21-23.8
	c-2.5,64.3-42.3,98.3-42.3,98.3c-6.1,9,1.3,18.8,1.3,18.8c0,7.5,27,34,27,34c18.3,19.3-0.3,43.2-0.3,43.2l-41.8,82.1l-3.8,5
	c3.399,16-3.301,13.7-4.7,13.101c-0.101-2.7-0.4-4.8-0.4-4.8l-19.5-3.301c-3.1-5.3,6.8-14.899,6.8-14.899L349.7,671
	c4-29.8-11-43.3-11-43.3c-7-4.3-37-42.8-37-42.8c-5.3-0.5-11.8-16.801-11.8-16.801s17-14.3,23.5-20.5
	C313.5,547.8,349.5,534.8,371.8,490z"/>
<path fill="#FFFFFF" stroke="#000000" stroke-width="2" stroke-miterlimit="10" d="M433.8,473.2c-0.1-0.101-0.3-0.3-0.399-0.3
	C433.5,473,433.6,473.1,433.8,473.2z M433.8,473.2c4.5,4.3,8,16.8,8,16.8c-4.5-8.3-15.3-16.5-15.3-16.5c7.5,8.5,4.8,19.5,4.8,19.5
	c-0.8-8.3-12-20.5-12-20.5c4.8,9.8,4.8,20,4.8,20c-2-12.8-19.8-29.8-19.8-29.8c-5.3-0.8-11.5,3.5-11.5,3.5s-7.5-5.3-9.8-11.601
	c-1.3-3.8-0.7-8,4.8-11.6c0,0,1.101-1,3.2-2.7c11.5-9.3,52.2-38.2,87.8-17c0,0,45.3,4.3,20.7,12.3c0,0,58.5,11,50.5,15.5
	c0,0-15.5-1-18.5,1c0,0,21.5,0.9,24.5,6.5c0,0-5,1.7-19.5,0c0,0,28,7.801,28,22.2c0,0-12.3-12.7-28-14.5c0,0,24,21.9,26,44.2
	c0,0-21.8-31.5-26.5-29.7c0,0,12.5,12.5,13.5,19.8c0,0,11.5,34.5,1.9,22.5c0,0,12.1,19-23.4,48c0,0-39,26-57.3,34.301
	c0,0,8.5-12.2,13.6-15.5c-0.8,0.3-27.399,9-30.6,13.199c0.399-0.5,11.6-17.199,24.6-21.199c-2.3,0.699-40,11.8-51.1,20.699
	c0.899-0.899,28.899-28.5,49.5-28c0.3,0,0.7,0,1,0c21,1.5-32.5-13.199-61.2,20.7c0.5-0.899,16.9-28,45.2-28c0,0-18-5.1-28.7,1.7
	c7.4-6.1,24.2-18.4,39-16.7c0,0-39-7.3-62.2,35.5c0.4-1.5,15.9-52.8,60-42.2c0,0-7.8-21.3-36.2,1.2c0.5-0.7,21.301-27.1,43.2-12.7
	c0,0,2.8-20.3-40-15.8c0,0,33.601-11.1,47.601,5.8c0,0,1.899-6.5-10.601-13.5c1.4,0.601,28.101,12.301,24.3,4.101
	c6.4-36.4-11.899-33.8-11.899-33.8l-14.8-6.801c-4.801-1.8-15.301,2-15.301,2c1.5,0.801,11.301,3.801,11.301,3.801
	c-6,1.3-14.301-0.5-14.301-0.5c2.801,3.3,7.5,5.5,7.5,5.5C446.8,483.7,436.3,475.3,433.8,473.2z"/>
<path fill="#FFFFFF" stroke="#000000" stroke-width="2" stroke-miterlimit="10" d="M132.5,148c0.6-0.2,13.9-5,13,3.3
	c-12.5,17.8-23,6.5-23,6.5L132.5,148L132.5,148z"/>
<path fill="#FFFFFF" stroke="#000000" stroke-width="2" stroke-miterlimit="10" d="M134.2,133.8c0,0,8.8-1.1,4.8,7.8l-6.5,6.4l0,0
	l-10,9.8c-4.3,1.3-4.3-3.8-4.3-3.8c-3,2-4.8-3.5-4.8-3.5c0.2-0.2,0.3-0.7,0.5-1.4C114,149.1,131.2,133.8,134.2,133.8z"/>
<path fill="#FFFFFF" stroke="#000000" stroke-width="2" stroke-miterlimit="10" d="M121.8,128.5c1.1,0.5,1.3,2.1,0.6,3.6
	c-0.7,1.4-2.2,2.1-3.3,1.6c-1.1-0.6-1.3-2.1-0.6-3.6C119.3,128.6,120.8,127.9,121.8,128.5z"/>
<path fill="#FFFFFF" stroke="#000000" stroke-width="2" stroke-miterlimit="10" d="M164.3,74c1.8,1.1,2,3.8,0.6,6s-3.9,3.1-5.7,2
	c-1.8-1.1-2-3.8-0.6-6S162.5,72.9,164.3,74z"/>
<path fill="#FFFFFF" stroke="#000000" stroke-width="2" stroke-miterlimit="10" d="M200.5,43.9V44c-3.1,0.3-5.1,0.8-5.1,0.8
	s-6.1-12.6-0.1-17.3C195.2,27.5,197.4,37.7,200.5,43.9z"/>
<path fill="#FFFFFF" stroke="#000000" stroke-width="2" stroke-miterlimit="10" d="M198.2,52.3c-6.6,7.6-15.5,0.3-15.5,0.3
	s-2.9-1-3.3-13c-0.1-5-7-14-0.5-20c1.5-1.4,5.7,10.1,6.5,12c2.3,5.1,2.8,6.7,9.8,13.3C195.3,44.8,196.4,47.7,198.2,52.3z"/>
<path fill="#FFFFFF" stroke="#000000" stroke-width="2" stroke-miterlimit="10" d="M284.3,312c-36.8-26-21.8-74-21.8-74
	c-7.5-6.5-8-40.5-8-40.5c5-22.5,0-42,0-42c-7-6-5-24-5-24c-7.5-7-13.3-23.3-13.3-23.3c-16.9-8-31.9-41-38-56
	c-1.9-4.6-2.9-7.5-2.9-7.5s2-0.5,5.1-0.8c6.2-0.5,17,0.1,26,8.4c0,0,4.6,16.1,24.3,23.1c0,0-14.4-2,15.4,22.2
	c0,0,32.8,21.3,37.8,43.8l-14-7.5c0,0,12.5,13,19,27c0,0,9,16.5,9,21c0,0-20.5-22-22.5-19.5c0,0,28.699,26.3,28.699,39.3
	c0,0,2.301,11.3-0.699,13.8c0,0-1-9.1-5.5-12.1c0,0-19-24-21-20c0,0,18.8,24.5,18.8,37c0,0-15.8-16-16.3-13c0,0,4,12,7.199,15
	c0,0,6.801,8,11.301,18l-11.301-7.5c0.301,0.6,11.7,21.7,7.301,34.5L299.7,252c0.5,1,8.8,18.6,6.8,22.5l-17-19
	c0.3,1.1,11.4,41.1,7.5,50.5c0,0-6.3-23-17.5-33.5C279.5,272.5,279.3,305.5,284.3,312z"/>
<path fill="#FFFFFF" stroke="#000000" stroke-width="2" stroke-miterlimit="10" d="M121.3,286.3c0,0-1.9,3.3-7.3,6.5l0,0
	c1.4-0.8-7-5.9-7-5.9c-3.5,0-6.5,10.7-6.5,10.7c-1.6,0.3-3.2,0.5-5,0.7l-11.7,2v-14.4c-2-11.3,6.4-18.3,6.4-18.3
	c14.4-13,27.3-1.5,27.3-1.5S119,280.3,121.3,286.3z"/>
<path fill="#FFFFFF" stroke="#000000" stroke-width="2" stroke-miterlimit="10" d="M77.4,329.9c6.1,0.8,14.7,2,23.5,3.2
	c0,3.9-3.7,6.7-3.7,6.7c5.3,1.3,3.3,3.8,3.3,3.8c-2-1.7-8.3,1-8.3,1c-5,0.7-7,19-7,19c-5.7-4-1.7-19.7-1.7-19.7
	C76.2,337.8,77.4,329.9,77.4,329.9z"/>
<path fill="#FFFFFF" stroke="#000000" stroke-width="2" stroke-miterlimit="10" d="M94.2,353.4c0,0-10.7,10.1-5.1,25.4
	c-3.4-1.7-3.9-15.3-3.9-15.3s2-18.3,7-19c0,0,6.3-2.7,8.3-1c0,0,5.9,1.2,5.7,9.9C105,349,101.9,344.1,94.2,353.4z"/>
<path fill="#FFFFFF" stroke="#000000" stroke-width="2" stroke-miterlimit="10" d="M106.2,353.4c0.6,2.3,0.8,4.4,0.8,4.4
	c-3.2,19.3-17.9,21-17.9,21c-5.6-15.4,5.1-25.4,5.1-25.4C101.9,344.1,105,349,106.2,353.4z"/>
<path fill="#FFFFFF" stroke="#000000" stroke-width="2" stroke-miterlimit="10" d="M90.3,401.5c13.8,9.8,6.3,24.8,6.3,24.8
	c-3,8-12.3,6.3-12.3,6.3c-2.2-0.5-3.8-1.899-4.9-3.6c-2.1-6,1.1-13.7,1.1-13.7C82.5,398.8,90.3,401.5,90.3,401.5z"/>
<path fill="#FFFFFF" stroke="#000000" stroke-width="2" stroke-miterlimit="10" d="M90.3,401.5c0,0-7.8-2.8-9.8,13.8
	c0,0-3.2,7.601-1.1,13.7c-2.9-4.6-2.4-11.7-2.4-11.7S76,399,83.3,399c0,0,3.9-0.5,5.9,0.9C89.7,400.3,90.1,400.8,90.3,401.5z"/>
<path fill="#FFFFFF" stroke="#000000" stroke-width="2" stroke-miterlimit="10" d="M87.6,396.8c-0.2-0.1-0.4-0.2-0.4-0.3
	C87.3,396.6,87.4,396.7,87.6,396.8z M119.2,133.6c1.1,0.6,2.5-0.1,3.3-1.6c0.7-1.4,0.5-3-0.6-3.6s-2.5,0.1-3.3,1.5
	C117.8,131.5,118.1,133,119.2,133.6z M159.2,82c1.8,1.1,4.3,0.2,5.7-2s1.1-4.9-0.6-6c-1.7-1.1-4.3-0.2-5.7,2S157.5,80.9,159.2,82z
	 M170.9,756.1c0,0,1.1-7.699,7.1-9.199c0,0,9-2,13-15.801c0.4-1.399,42.9-54.699,42.9-54.699c5.3-16.301,1-56,1-56
	c-7.8-7.801-5.8-54.801-5.8-54.801c-6-14.8-2-25.3-2-25.3c-9.3-14.8-7-31.5-7-31.5c-0.3-21,12.5-45.5,12.5-45.5
	c-2.5-1.3-9.3-14.8-9.3-14.8C155,435.6,148.8,357,148.8,357c-4.3-3.3-11.2-18.7-11.2-18.7c-1.2,0.1-2.1-0.1-2.1-0.1
	c-3.2-1-19.1-3.3-34.6-5.5c-8.8-1.2-17.4-2.4-23.5-3.2c-5.2-0.7-8.6-1.1-8.6-1.1c-4,7.5,8.6,44.8,8.6,44.8c2.9,1,3.1,10.5,3.1,10.5
	c-2.3,5.8,0,9.5,0,9.5s12-1,13.3,0c0,0-0.8,1.3-3.5,1.3l3.5,1.8c0,0-4.2,1-6.1,0.3c1.9,1,8.3,4.7,8.1,6l-6.6-2.8
	c-2-1.399-5.9-0.899-5.9-0.899c-7.3,0-6.3,18.3-6.3,18.3c-8.5-0.3-6.5-15.8-6.5-15.8c0-5.5-13-14.3-13-14.3c4.3-7-8-52.8-8-52.8
	C39,306,62.8,303.5,62.8,303.5l21.1-3.5l11.7-2c1.8-0.2,3.4-0.4,5-0.7c5.9-1.1,10.3-2.9,13.5-4.8c5.4-3.2,7.3-6.5,7.3-6.5
	c-2.3-6-3.8-20.3-3.8-20.3c-1.5-20,13.3-28.5,13.3-28.5C141,231,149.3,222,149.3,222c28.8-18.5,43.5-79.8,43.5-79.8
	c-1.3,1-15.3-1-15.3-1c-12.5,6.8-32,10-32,10c0.9-8.3-12.4-3.5-13-3.3l6.5-6.4c4-8.9-4.8-7.8-4.8-7.8c-3,0-20.2,15.4-20.2,15.4
	c0.8-3.6,1.3-12.9,1.3-12.9c0.3-10.3,4-11,4-11c1.8-2.8,5.8-2,5.8-2L151.3,94c3-3,4.5-6.3,4.5-6.3V79c0.3-5.3,1.8-6,1.8-6l5.8-6.8
	c2.5-1.5,7.3-2,7.3-2L183,52.4c0,0,8.9,7.4,15.5-0.3c6.1,15,21.2,48,38,56c0,0,5.8,16.3,13.3,23.3c0,0-2,18,5,24c0,0,5,19.5,0,42
	c0,0,0.5,34,8,40.5c0,0-15,48,21.8,74c16.2,11.5,43.801,53,43.801,53c20.5,10.8,63,75.3,63,75.3c-2.101,1.7-3.2,2.7-3.2,2.7
	c-5.5,3.6-6.101,7.8-4.8,11.6c2.199,6.3,9.8,11.6,9.8,11.6l-21,23.801c-22.3,44.8-58.3,57.8-58.3,57.8C307,554,290,568.3,290,568.3
	c0.5,4.8-11.3,34.3-11.3,34.3c0.5,5,3.2,45.601,0.8,60.5c-0.5,3.101-9.6,13.801-9.6,13.801L211.3,737.8c0,0-9.9,0-7.4,18.4
	c0,0-0.1,6.399-4.1,0c0,0,0,1.1,0,4.2c0,0-1.8-2.4-4.4-2.801l-21.1-3.6C173.4,754.2,172.2,755,170.9,756.1L170.9,756.1z"/>
<g>
	<path d="M192.3,142.2c0.5-7.9,0.6-15.8,0.5-23.6c-0.2-7.9-0.7-15.8-1.8-23.6c1.3,7.8,1.9,15.7,2.3,23.6c0.3,7.9,0.4,15.8,0,23.7
		L192.3,142.2z"/>
</g>
<g>
	<path d="M145.3,150.8c5.7-2,11.3-4.3,16.8-6.9c2.7-1.3,5.4-2.7,8-4.3c1.3-0.8,2.5-1.6,3.7-2.6c1.2-0.9,2.3-2,3.2-3.2
		c-0.8,1.3-1.9,2.3-3.1,3.3c-1.2,1-2.4,1.9-3.7,2.7c-2.5,1.7-5.2,3.1-7.9,4.5c-5.4,2.8-11,5.2-16.6,7.4L145.3,150.8z"/>
</g>
<g>
	<path d="M157.7,116c0.6,1.4,1.2,2.8,2,4.1c0.8,1.3,1.6,2.6,2.6,3.7c1.9,2.3,4.2,4.2,6.9,5.4c2.6,1.4,5.6,2,8.6,2.2
		c1.5,0.1,3,0.1,4.5,0c1.5,0,3-0.3,4.6-0.4v0.1c-3,0.7-6.1,1.2-9.2,1.1c-3.1-0.1-6.2-0.7-9-2.1c-2.8-1.3-5.2-3.4-7.1-5.9
		C159.9,121.8,158.4,119,157.7,116L157.7,116z"/>
</g>
<g>
	<path d="M145.5,142.5c1.6-2.4,3.5-4.4,5.5-6.4c1-0.9,2.1-1.9,3.2-2.7l1.7-1.3c0.6-0.4,1.2-0.8,1.8-1.1l0.1,0.1l-6.1,5.8
		L145.5,142.5L145.5,142.5z"/>
</g>
<g>
	<path d="M146,136.7c0.9-1.2,1.9-2.3,2.9-3.3c1-1.1,2-2.1,3-3.1s2-2,3-3c0.5-0.5,1-1,1.4-1.6c0.5-0.5,0.9-1.1,1.3-1.7h0.1
		c-0.4,1.4-1.3,2.6-2.2,3.8c-0.9,1.1-1.9,2.2-2.9,3.2C150.5,133.1,148.3,135,146,136.7L146,136.7z"/>
</g>
<g>
	<path d="M127,132.1c0.7-0.9,1.5-1.7,2.3-2.5l2.3-2.4c1.6-1.6,3.2-3.2,4.7-4.8c1.6-1.5,3.2-3.2,4.7-4.8c0.8-0.8,1.6-1.6,2.3-2.5
		c0.8-0.8,1.5-1.7,2.1-2.6h0.1c-1,2-2.4,3.8-3.9,5.5s-3,3.4-4.6,5C133.8,126.2,130.5,129.2,127,132.1L127,132.1z"/>
</g>
<g>
	<path d="M202.4,64.3c-0.9,1-1.6,2.4-2.1,3.8s-0.9,2.8-1.3,4.3c-0.6,2.9-0.8,6-0.8,9c0,6.1,1,12.1,2.3,18c-1.5-5.9-2.6-11.9-2.8-18
		c-0.1-3.1,0.1-6.1,0.6-9.2c0.3-1.5,0.6-3,1.2-4.5c0.5-1.5,1.2-2.9,2.2-4.2L202.4,64.3z"/>
</g>
<g>
	<path d="M170,73.5c0.7-0.8,1.6-1.4,2.6-2c1-0.5,2-0.9,3.1-1.2c2.2-0.6,4.6-0.4,6.7,0.6c2,1.1,3.6,2.8,4.7,4.7c0.5,1,1,2,1.3,3
		c0.3,1,0.6,2.1,0.8,3.1h-0.1c-0.7-2-1.5-3.9-2.6-5.7s-2.6-3.3-4.5-4.3s-4-1.2-6.1-0.8C173.7,71.5,171.7,72.3,170,73.5L170,73.5z"/>
</g>
<g>
	<path d="M114.1,280.8c-1.2-0.9-2.4-1.9-3.6-2.7c-1.2-0.8-2.5-1.6-3.9-2.2c-1.3-0.6-2.7-1.1-4.1-1.1c-1.4-0.1-2.6,0.3-3.7,1.1
		c-1,0.8-1.8,2-2.4,3.3c-0.6,1.3-1,2.7-1.4,4.2c-0.4,1.4-0.6,2.9-0.8,4.4c-0.3,1.5-0.4,3-0.6,4.5h-0.1c0-3,0.2-6.1,0.8-9.1
		c0.3-1.5,0.7-3,1.3-4.4c0.6-1.4,1.4-2.7,2.7-3.7c1.2-1,2.8-1.4,4.3-1.2c1.5,0.1,3,0.7,4.3,1.4C109.6,276.6,112,278.6,114.1,280.8
		L114.1,280.8z"/>
</g>
<g>
	<path d="M113.9,315l-14.7-1.2c-4.9-0.4-9.8-0.7-14.7-0.9c-4.9-0.3-9.8-0.4-14.7-0.2c-2.4,0.1-4.9,0.2-7.3,0.5
		c-2.4,0.3-4.8,0.8-7.1,1.7v-0.1c2.2-1.2,4.6-1.7,7-2.2c2.4-0.4,4.9-0.7,7.3-0.8c4.9-0.3,9.8-0.2,14.8,0c4.9,0.2,9.8,0.6,14.7,1.1
		C104.2,313.6,109.1,314.2,113.9,315L113.9,315z"/>
</g>
<g>
	<path d="M59,325.5c0.2,2.1,0.4,4.1,0.7,6.2c0.2,2.1,0.5,4.1,0.8,6.2c0.5,4.1,1,8.2,1.6,12.3l1.5,12.4l0.7,6.2
		c0.2,2.1,0.4,4.1,0.6,6.2h-0.1c-1.4-8.2-2.6-16.4-3.7-24.7c-0.5-4.1-1-8.3-1.4-12.4C59.4,333.8,59,329.7,59,325.5L59,325.5z"/>
</g>
<g>
	<path d="M67.9,389.5c0-1,0.3-2,0.8-2.9s1.4-1.7,2.5-2.1c1.1-0.4,2.2-0.4,3.2-0.1c1,0.3,1.9,0.8,2.6,1.6v0.1
		c-0.8-0.4-1.7-0.7-2.7-0.9c-0.9-0.1-1.9-0.1-2.7,0.3C69.8,386.1,68.6,387.8,67.9,389.5L67.9,389.5z"/>
</g>
<g>
	<path d="M136.3,139c-1.8,0.9-3.5,1.9-5.1,3c-1.7,1.1-3.3,2.2-4.8,3.5s-2.9,2.6-4.3,4s-2.6,2.9-3.8,4.5h-0.1
		c0.7-1.9,1.8-3.6,3.2-5.1c1.3-1.5,2.9-2.8,4.5-4C129.1,142.5,132.6,140.5,136.3,139L136.3,139z"/>
</g>
<g>
	<path d="M97.2,339.8l-2,0.3c-0.6,0-1.3-0.1-1.9-0.1c-1.3,0-2.5,0.1-3.8,0.3c-1.2,0.2-2.5,0.5-3.5,1.1c-0.5,0.3-1,0.6-1.3,1.1
		c-0.5,0.3-0.9,0.8-1.2,1.4c-0.1-0.7,0.1-1.4,0.4-2c0.5-0.6,1-1,1.6-1.3c1.2-0.7,2.5-1,3.8-1.2c1.3-0.2,2.6-0.3,3.9-0.3
		c0.7,0,1.3,0,2,0.1C95.9,339.3,96.6,339.5,97.2,339.8z"/>
</g>
<g>
	<path d="M138.7,338c1.9-1.7,3.7-3.7,5.3-5.7c1.6-2.1,3.1-4.2,4.5-6.4c2.8-4.5,5.1-9.2,7.2-14c2.1-4.8,3.8-9.8,5.4-14.8
		c0.9-2.5,2.2-4.8,3.6-7.1c1.4-2.3,2.9-4.4,4.5-6.6c6.3-8.5,13.7-16.1,21.3-23.3c7.7-7.2,15.8-14,24-20.5
		c-8.2,6.6-16.3,13.4-23.9,20.7c-7.6,7.3-14.9,15-21.1,23.4c-1.5,2.1-3,4.3-4.4,6.5c-1.3,2.2-2.6,4.6-3.5,7c-1.5,5-3.2,10-5.3,14.9
		c-2,4.9-4.4,9.6-7.2,14.1c-1.4,2.3-2.9,4.5-4.5,6.6c-1.6,2.1-3.3,4.1-5.4,5.9L138.7,338z"/>
</g>
<g>
	<path d="M232,463.4c0.7-4.4,2-8.5,3.4-12.601c1.4-4.1,3.1-8.1,4.9-12.1c3.6-7.9,7.9-15.5,12.6-22.8c9.3-14.601,20.3-28.2,32.1-40.9
		c-11.7,12.8-22.5,26.5-31.7,41.2c-4.6,7.399-8.8,15-12.3,22.899c-1.8,3.9-3.4,8-4.8,12.101c-1.4,4.1-2.6,8.3-3.3,12.5L232,463.4z"
		/>
</g>
<g>
	<path d="M223.5,448.3c3,2.101,6,4.2,9,6.3c-3.2-1.8-6.4-3.6-9.5-5.5L223.5,448.3z"/>
</g>
<g>
	<path d="M282.5,568.3c-2.4,3-4.9,5.8-7.6,8.5c-2.7,2.7-5.5,5.3-8.5,7.7l0.3-0.7c1.2,5.2,2,10.5,2.6,15.7c0.6,5.3,0.8,10.6,0.8,15.9
		c-0.1,2.699-0.2,5.3-0.5,8c-0.3,2.699-0.8,5.3-1.4,7.899c-1.3,5.2-3.5,10.3-7.1,14.2l-0.1-0.1c3.5-4,5.4-9.101,6.6-14.2
		c1.2-5.2,1.6-10.5,1.6-15.7c0.1-5.3-0.3-10.6-0.8-15.8c-0.6-5.3-1.3-10.5-2.4-15.7l0,0l0,0c2.9-2.4,5.8-4.9,8.6-7.5
		C277.3,573.8,280,571.1,282.5,568.3L282.5,568.3z"/>
</g>
<g>
	<path d="M267.5,546.5c0.6-1.3,1.3-2.5,1.9-3.8c0.7-1.2,1.5-2.4,2.3-3.601c1.6-2.3,3.4-4.5,5.4-6.6c2-2,4.2-3.9,6.6-5.5
		c1.2-0.8,2.5-1.4,3.8-2c1.3-0.5,2.7-0.9,4.1-1.1v0.1c-2.699,0.7-5.3,2-7.5,3.6c-2.3,1.601-4.399,3.5-6.3,5.5c-2,2-3.8,4.2-5.5,6.4
		C270.6,541.8,269,544.1,267.5,546.5L267.5,546.5z"/>
</g>
<g>
	<path d="M226.5,540.3c1.1-2.3,2.5-4.1,4.1-5.899c1.6-1.801,3.3-3.4,5.1-5c3.6-3.101,7.6-5.7,11.7-8.101
		c8.2-4.7,17.1-8.1,26.1-10.899c-9,2.899-17.7,6.5-25.8,11.3c-4,2.399-7.9,5.1-11.4,8.2c-1.8,1.6-3.4,3.199-4.9,5
		c-1.5,1.8-2.9,3.699-3.8,5.699L226.5,540.3z"/>
</g>
<g>
	<path d="M243,501c2.1-2.5,4.3-5,6.5-7.4c2.2-2.399,4.5-4.699,6.9-7c4.7-4.6,9.6-8.899,14.8-13c5.2-4,10.6-7.8,16.5-10.8
		c2.899-1.5,6-2.8,9.2-3.8c3.199-0.9,6.5-1.4,9.8-1v0.1c-3.3-0.3-6.5,0.4-9.601,1.4c-3.1,1-6.1,2.4-8.899,3.9
		c-5.7,3.1-11.1,6.899-16.2,10.899s-10.1,8.3-14.8,12.8C252.1,491.6,247.5,496.2,243,501L243,501z"/>
</g>
<g>
	<path d="M250.3,583.5c0.4,2.1,0.7,4.3,1,6.5l0.8,6.5c0.5,4.3,0.9,8.7,1.4,13c0.3,4.3,0.7,8.7,1,13l0.4,6.5c0.1,2.2,0.2,4.4,0.2,6.5
		H255l-2.4-26L250.3,583.5L250.3,583.5z"/>
</g>
<g>
	<path d="M344.1,587.5c1.101,1.5,2.2,3.1,3.2,4.6c1.101,1.5,2.101,3.101,3.101,4.7c2,3.101,4.1,6.2,6.1,9.4s3.9,6.399,5.9,9.6
		l2.8,4.9l1.399,2.5l0.7,1.3l0.3,0.7c0.101,0.2,0.2,0.399,0.301,0.8l-0.2-0.4c1.3,1.601,2,3.5,2.3,5.4s0.1,4-0.5,5.8s-1.6,3.5-2.8,5
		s-2.601,2.7-4.101,3.9l-0.1-0.101c1.4-1.199,2.7-2.5,3.8-4c1.101-1.5,2-3.1,2.601-4.899c0.5-1.8,0.699-3.7,0.3-5.5
		c-0.3-1.8-1.101-3.601-2.2-5l0,0l0,0c-0.3-0.9-0.8-1.7-1.2-2.5l-1.399-2.4l-2.801-4.8l-5.8-9.6
		C351.8,600.2,347.9,593.9,344.1,587.5L344.1,587.5z"/>
</g>
<g>
	<path d="M306.5,558c1.4,0.8,2.6,1.8,3.7,3c1.1,1.1,2.1,2.4,2.899,3.8c0.801,1.4,1.5,2.9,1.801,4.5c0.199,0.8,0.3,1.601,0.399,2.4
		c0,0.8,0,1.6-0.2,2.399H315c0-3.1-1.2-6.1-2.7-8.699C310.7,562.6,308.7,560.2,306.5,558L306.5,558z"/>
</g>
<g>
	<path d="M296.5,574c0-1.3,0.3-2.5,0.7-3.7c0.5-1.2,1.1-2.3,2.1-3.2c0.9-0.899,2.101-1.699,3.5-1.899c1.4-0.2,2.7,0.1,3.8,0.8v0.1
		c-1.1-0.399-2.399-0.5-3.5-0.1c-1.199,0.3-2.199,1-3,1.9c-0.8,0.8-1.5,1.899-2.1,2.899C297.3,571.7,296.9,572.9,296.5,574
		L296.5,574z"/>
</g>
<g>
	<path d="M323.5,577.5c0.4-1.4,1-2.7,1.7-3.9c0.7-1.199,1.6-2.399,2.7-3.399c1.1-1,2.3-1.9,3.8-2.4c0.7-0.2,1.5-0.3,2.3-0.3
		c0.8,0.1,1.5,0.3,2.1,0.7v0.1c-1.3-0.5-2.8-0.3-4,0.2c-1.3,0.5-2.399,1.4-3.399,2.4C326.5,572.8,324.9,575.1,323.5,577.5
		L323.5,577.5z"/>
</g>
<g>
	<path d="M333,587.5c-0.5-1.2-0.7-2.6-0.7-3.9c0-1.3,0.3-2.699,0.9-4c0.3-0.6,0.8-1.199,1.399-1.699c0.601-0.5,1.301-0.9,2-1
		c0.7-0.2,1.4-0.2,2.101-0.101c0.7,0.101,1.3,0.3,1.899,0.601v0.1c-1.199-0.3-2.5-0.3-3.699,0.1c-1.2,0.4-2.101,1.301-2.7,2.5
		c-0.601,1.101-0.9,2.4-1,3.601C332.9,585,332.9,586.2,333,587.5L333,587.5z"/>
</g>
<g>
	<path d="M232.5,164c-1.2,2.8-2.7,5.4-4.2,8c-1.6,2.6-3.3,5.1-5.1,7.5c-3.6,4.9-7.7,9.4-12.1,13.6c-4.5,4.1-9.4,7.8-14.7,10.8
		c-2.7,1.5-5.4,2.8-8.2,3.9c-2.8,1.1-5.7,2-8.7,2.7v-0.1c5.8-1.7,11.3-4.1,16.5-7.2c5.2-3.1,10-6.8,14.4-10.8
		c4.4-4.1,8.5-8.6,12.2-13.3C226.3,174.3,229.7,169.3,232.5,164L232.5,164z"/>
</g>
<g>
	<path d="M340.5,598c1.2,1.1,2.3,2.4,3.4,3.5l3.3,3.7c2.2,2.5,4.2,5,6.3,7.6c2,2.601,4,5.2,5.9,7.9c0.899,1.399,1.899,2.7,2.699,4.1
		c0.801,1.4,1.7,2.8,2.4,4.3l-0.1,0.101c-1.801-2.7-3.801-5.3-5.7-8c-2-2.601-4-5.2-6-7.7C348.7,608.2,344.6,603.1,340.5,598
		L340.5,598z"/>
</g>
<g>
	<path d="M90.3,372.5c0.2-1.7,0.5-3.5,0.9-5.2c0.4-1.7,0.9-3.4,1.4-5.1c0.5-1.7,1.3-3.3,2.2-4.9c0.9-1.5,2-3.1,3.7-4.2
		c0.4-0.2,0.9-0.4,1.5-0.5c0.3-0.1,0.5-0.1,0.8-0.1c0.3,0,0.4,0,0.7,0c0.9,0.1,1.9,0.2,2.9,0.6c0.5,0.2,1,0.6,1.3,1.1
		c0.3,0.5,0.5,1.1,0.5,1.7c0,1.1-0.3,2-0.7,2.8c-0.8,1.7-1.7,3.1-2.6,4.6s-1.9,2.9-2.3,4.6h-0.1c0.1-0.9,0.4-1.7,0.7-2.5
		c0.4-0.8,0.8-1.6,1.2-2.3c0.8-1.5,1.7-3,2.3-4.6c0.3-0.8,0.6-1.6,0.6-2.5s-0.5-1.6-1.3-2s-1.6-0.5-2.5-0.5
		c-0.9-0.1-1.7,0.1-2.5,0.5c-1.5,0.9-2.5,2.3-3.4,3.8s-1.6,3.1-2.2,4.7C92.1,365.8,91.1,369.1,90.3,372.5L90.3,372.5z"/>
</g>
<g>
	<path d="M84.8,408.1c-0.3,1.601-0.6,3.2-0.9,4.7c-0.2,1.601-0.5,3.2-0.6,4.7c-0.1,1.6-0.2,3.2-0.1,4.7c0.1,1.5,0.3,3.1,1,4.3
		l-0.1-0.2c0.6,0.5,1.4,1,2.2,1.2c0.8,0.2,1.6,0.2,2.4,0.1c1.6-0.399,3-1.699,4.1-3.199l0,0l0,0c0.9-1,1.7-2.301,2.3-3.7
		c0.6-1.3,1-2.8,1-4.2c0.1-1.5-0.2-2.9-0.7-4.4c-0.5-1.399-1.2-2.8-2.1-4.1l0.1-0.1c1,1.199,1.8,2.5,2.4,4c0.6,1.399,0.9,3,0.9,4.5
		c0,1.6-0.3,3.1-0.9,4.5c-0.6,1.399-1.4,2.8-2.4,4l0,0c-0.6,0.8-1.2,1.6-2,2.199c-0.8,0.601-1.6,1.2-2.6,1.4c-1,0.3-2,0.2-3-0.1
		c-1-0.301-1.8-0.801-2.6-1.5l0,0l0,0c-0.7-1.5-1-3.101-1.1-4.7c-0.1-1.601,0-3.2,0.2-4.8C83,414.3,83.7,411.2,84.8,408.1
		L84.8,408.1z"/>
</g>
<g>
	<path d="M364.5,677.5c-2.5,5.1-5,10.2-7.6,15.3C354.3,697.9,351.7,702.9,349.1,708c-2.699,5-5.3,10.1-8,15.1l-4.1,7.5
		c-1.4,2.5-2.8,5-4.2,7.4c1.2-2.6,2.5-5.1,3.7-7.7l3.8-7.6c2.601-5.101,5.2-10.101,7.8-15.2c2.7-5,5.301-10.1,8-15.1
		C359,687.4,361.7,682.4,364.5,677.5z"/>
</g>
<g>
	<path d="M261,672.5c-4.2,4.9-8.4,9.7-12.7,14.5c-4.3,4.8-8.6,9.6-12.9,14.3l-13.1,14.2l-6.6,7c-2.2,2.3-4.4,4.7-6.7,7
		c2.1-2.5,4.2-4.9,6.3-7.3l6.4-7.2l12.9-14.3c4.4-4.7,8.7-9.5,13.1-14.2C252.1,681.8,256.5,677.1,261,672.5z"/>
</g>
<g>
	<path d="M202,51.1c1.7-0.5,3.5-0.7,5.3-0.7c1.8,0,3.6,0.3,5.4,0.8c1.7,0.6,3.5,1.3,4.9,2.5c0.7,0.6,1.4,1.2,2,1.9
		c0.6,0.7,1.1,1.5,1.4,2.3V58c-1-1.4-2.3-2.7-3.8-3.6c-1.5-1-3.1-1.7-4.8-2.2c-1.7-0.5-3.4-0.8-5.2-1C205.5,51.1,203.7,51,202,51.1
		L202,51.1z"/>
</g>
<g>
	<path d="M211.5,58c0.9,0.9,1.8,1.7,2.8,2.5c0.9,0.8,1.9,1.6,2.8,2.4c1.9,1.5,3.9,3.1,5.9,4.4c2,1.4,4.2,2.6,6.4,3.6
		c1.1,0.5,2.2,1,3.4,1.4c1.1,0.5,2.3,0.8,3.5,1.2v0.1c-5-0.7-9.7-2.7-13.8-5.5c-2.1-1.4-4.1-2.9-5.9-4.6C214.8,61.8,213,60,211.5,58
		L211.5,58z"/>
</g>
<g>
	<path d="M211.5,68.5c1.5,0.5,3,1.1,4.4,1.7c1.5,0.6,2.9,1.3,4.3,2c2.9,1.4,5.6,2.9,8.4,4.4c2.7,1.7,5.4,3.3,7.9,5.3
		c1.3,1,2.5,2,3.6,3.2c1.1,1.2,2.2,2.4,2.8,3.9h-0.1c-0.7-1.4-1.9-2.5-3-3.6c-1.2-1-2.4-2-3.7-2.9c-2.6-1.8-5.3-3.5-8-5.1
		C222.8,74.3,217.2,71.3,211.5,68.5L211.5,68.5z"/>
</g>
<g>
	<path d="M221,81.7c0.5,1,0.9,2,1.4,3s0.9,2,1.5,2.9c1,1.9,2.1,3.8,3.4,5.5c1.2,1.8,2.6,3.4,4.1,4.9c0.7,0.8,1.5,1.5,2.4,2.1
		c0.8,0.7,1.7,1.3,2.7,1.9v0.1c-4.1-1.7-7.4-4.8-9.9-8.4c-1.3-1.8-2.3-3.7-3.2-5.7C222.3,85.9,221.5,83.9,221,81.7L221,81.7z"/>
</g>
<g>
	<path d="M232.5,91.8c2,0.3,4,0.8,5.9,1.4c1.9,0.6,3.8,1.5,5.5,2.4c1.8,1,3.5,2.1,4.9,3.6c0.7,0.7,1.4,1.6,1.9,2.5
		c0.5,0.9,0.8,2,0.8,3h-0.1c-0.3-2-1.7-3.6-3.1-4.9c-1.5-1.3-3.2-2.4-4.9-3.3C240,94.6,236.3,93.1,232.5,91.8L232.5,91.8z"/>
</g>
<g>
	<path d="M251.5,96.9c1.8,0.7,3.5,1.6,5.2,2.7c1.6,1,3.2,2.2,4.7,3.4c1.5,1.3,2.9,2.6,4.1,4.2c0.6,0.8,1.2,1.6,1.6,2.5
		c0.4,0.9,0.8,1.8,1,2.8H268c-0.7-1.8-1.9-3.3-3.1-4.8c-1.3-1.4-2.7-2.7-4.1-4C257.8,101.3,254.7,99,251.5,96.9L251.5,96.9z"/>
</g>
<g>
	<path d="M243,106.5c3.5,0.8,6.6,3.5,8.2,6.9c0.8,1.7,1.2,3.6,1.2,5.4c0,0.9-0.1,1.8-0.2,2.7c-0.2,0.9-0.4,1.8-0.7,2.6h-0.1
		c0.6-3.4,0.4-7.1-1.2-10.3c-0.7-1.6-1.8-3-3-4.3C246,108.3,244.6,107.2,243,106.5L243,106.5z"/>
</g>
<g>
	<path d="M258.8,112.5c0.6,1.4,1.2,2.9,1.9,4.3c0.6,1.4,1.2,2.9,1.9,4.3c1.3,2.8,2.7,5.6,4.3,8.2c1.5,2.7,3.3,5.2,5.3,7.5
		c1,1.2,2.1,2.2,3.3,3.1c1.2,1,2.5,1.7,4,2.3v0.1c-3-0.8-5.7-2.8-7.9-5c-2.2-2.2-4-4.8-5.6-7.5c-1.6-2.7-3-5.5-4.2-8.4
		C260.7,118.5,259.6,115.5,258.8,112.5L258.8,112.5z"/>
</g>
<g>
	<path d="M271.5,124c1.8,1,3.5,2.2,5.1,3.5s3.1,2.7,4.5,4.2s2.7,3.1,3.8,4.9c0.6,0.9,1.1,1.8,1.6,2.7c0.4,1,0.8,1.9,1.1,2.9h-0.1
		c-0.8-1.9-1.9-3.6-3.1-5.2c-1.2-1.6-2.601-3.2-3.9-4.6C277.6,129.5,274.6,126.7,271.5,124L271.5,124z"/>
</g>
<g>
	<path d="M274.8,116c1.5,0.2,2.9,0.7,4.2,1.4c1.3,0.7,2.6,1.5,3.7,2.5c1.1,1,2.2,2.1,3,3.4c0.399,0.6,0.8,1.3,1.1,2
		c0.3,0.7,0.601,1.4,0.7,2.1h-0.1c-1.301-2.6-3.2-4.9-5.4-6.8c-1.1-0.9-2.3-1.8-3.5-2.6C277.4,117.3,276.1,116.6,274.8,116
		L274.8,116z"/>
</g>
<g>
	<path d="M258.8,127.4c0.6,1.5,1.1,3.1,1.3,4.7c0.3,1.6,0.4,3.2,0.3,4.9c-0.1,1.6-0.3,3.3-1,4.9c-0.3,0.8-0.7,1.5-1.1,2.2
		c-0.5,0.7-1.1,1.3-1.8,1.7l-0.1-0.1c1.1-1.1,1.8-2.6,2.3-4.1c0.4-1.5,0.6-3.1,0.7-4.7C259.6,133.7,259.3,130.5,258.8,127.4
		L258.8,127.4z"/>
</g>
<g>
	<path d="M264,139c0.8,0.9,1.5,1.8,2.3,2.7c0.8,0.9,1.5,1.8,2.3,2.7c1.6,1.8,3.2,3.5,4.9,5.1c1.6,1.7,3.4,3.2,5.3,4.6
		c0.9,0.7,1.9,1.4,2.9,1.9c1,0.6,2.1,1.1,3.2,1.6v0.1c-2.4-0.5-4.5-1.6-6.5-3c-2-1.3-3.8-2.9-5.5-4.6c-1.7-1.7-3.3-3.5-4.8-5.4
		C266.6,143,265.2,141.1,264,139L264,139z"/>
</g>
<g>
	<path d="M287.5,148.8c1.3,0.2,2.5,0.6,3.7,1.1s2.3,1.2,3.399,1.9c1,0.8,2.101,1.6,2.9,2.6c0.4,0.5,0.8,1,1.2,1.6
		c0.3,0.6,0.7,1.1,0.899,1.8l-0.1,0.1c-1.4-2.1-3.4-3.7-5.4-5.1C292,151.2,289.8,149.9,287.5,148.8L287.5,148.8z"/>
</g>
<g>
	<path d="M264,157.7c1.2,1.4,2.3,3,3.1,4.6c0.9,1.7,1.6,3.4,2.1,5.3c0.5,1.8,0.8,3.8,0.6,5.7c-0.1,1-0.3,1.9-0.6,2.8
		c-0.4,0.9-0.9,1.7-1.6,2.4l-0.1-0.1c1.1-1.5,1.5-3.4,1.5-5.2c0-1.8-0.3-3.7-0.7-5.4c-0.5-1.8-1.1-3.5-1.8-5.2
		C265.7,161,264.9,159.4,264,157.7L264,157.7z"/>
</g>
<g>
	<path d="M271.5,160.1c1.1,0.2,2.2,0.6,3.2,0.9c1.1,0.4,2.1,0.8,3.1,1.2c2.1,0.9,4,2,6,3.1c1.9,1.2,3.8,2.5,5.4,4.1
		c0.8,0.8,1.6,1.6,2.3,2.5c0.6,0.9,1.3,1.9,1.6,3H293c-1.1-2-2.6-3.6-4.3-5s-3.5-2.7-5.4-3.8C279.6,163.8,275.6,161.9,271.5,160.1
		L271.5,160.1z"/>
</g>
<g>
	<path d="M279.5,175c0.3,1.7,0.6,3.5,1,5.1c0.4,1.7,0.7,3.3,1.3,4.9c0.5,1.6,1.2,3.1,2,4.5c0.4,0.7,1,1.3,1.601,1.9
		c0.6,0.6,1.3,1,2.1,1.5v0.1c-1.7-0.5-3.2-1.6-4.3-3c-1.1-1.4-1.8-3-2.4-4.7c-0.5-1.7-0.9-3.4-1.1-5.1
		C279.5,178.5,279.4,176.8,279.5,175L279.5,175z"/>
</g>
<g>
	<path d="M281.2,201.5c1.3,0.5,2.6,1.1,3.8,1.9c1.2,0.8,2.2,1.7,3.2,2.7s1.899,2.1,2.6,3.4c0.3,0.6,0.7,1.3,1,1.9
		c0.2,0.7,0.5,1.3,0.601,2H292.3c-1.2-2.5-2.899-4.7-4.8-6.7C285.5,204.8,283.4,203.1,281.2,201.5L281.2,201.5z"/>
</g>
<g>
	<path d="M271.5,183.5c1.2,1.1,2.1,2.5,2.9,3.9c0.7,1.4,1.3,3,1.6,4.6s0.4,3.3,0.2,4.9c-0.1,0.8-0.3,1.6-0.5,2.4
		c-0.3,0.8-0.5,1.5-0.9,2.2h-0.1c0.8-3,0.9-6.2,0.3-9.3c-0.3-1.5-0.7-3-1.3-4.5C273.1,186.2,272.4,184.8,271.5,183.5L271.5,183.5z"
		/>
</g>
<g>
	<path d="M261.5,187.3c-0.3,1.4-0.6,2.8-0.9,4.2c-0.3,1.4-0.5,2.8-0.7,4.2c-0.4,2.8-0.8,5.6-0.8,8.4c-0.2,2.8,0,5.6,0.3,8.3
		c0.2,1.4,0.4,2.8,0.8,4.1c0.3,1.4,0.8,2.7,1.3,4h-0.1c-1.4-2.5-2.3-5.3-2.8-8.1c-0.5-2.8-0.7-5.7-0.6-8.5c0.1-2.9,0.5-5.7,1.1-8.5
		C259.7,192.7,260.5,189.9,261.5,187.3L261.5,187.3z"/>
</g>
<g>
	<path d="M266.6,193c-0.3,1.8-0.6,3.5-0.9,5.2c-0.3,1.7-0.5,3.4-0.6,5.2c-0.1,1.7-0.1,3.4,0.1,5.1c0.1,0.8,0.3,1.7,0.5,2.5
		c0.2,0.8,0.5,1.6,0.9,2.5l-0.1,0.1c-1.1-1.4-1.7-3.1-2.1-4.9c-0.4-1.7-0.4-3.5-0.3-5.3c0.1-1.8,0.4-3.5,0.8-5.3
		C265.3,196.3,265.8,194.6,266.6,193L266.6,193z"/>
</g>
<g>
	<path d="M269.2,203.8c1.4,1.4,2.5,3.1,3.5,4.9c1,1.8,1.7,3.6,2.2,5.6s0.8,4,0.6,6.1c-0.1,1-0.3,2-0.6,3c-0.4,1-0.8,1.9-1.3,2.7
		h-0.1c0.8-1.8,1.2-3.7,1.2-5.7s-0.3-3.9-0.8-5.8s-1.2-3.7-2-5.5C271.1,207.3,270.2,205.5,269.2,203.8L269.2,203.8z"/>
</g>
<g>
	<path d="M279.6,213.5c0.3,1.9,0.6,3.9,0.8,5.8c0.3,1.9,0.5,3.8,0.8,5.7c0.3,1.9,0.7,3.7,1.2,5.5c0.3,0.9,0.6,1.8,1,2.6
		c0.4,0.9,0.9,1.6,1.6,2.3l-0.1,0.1c-1.601-1.1-2.601-3-3.3-4.8c-0.7-1.8-1.1-3.7-1.4-5.7C279.6,221.3,279.5,217.4,279.6,213.5
		L279.6,213.5z"/>
</g>
<g>
	<path d="M265.4,220.5c0.6,1.1,1.1,2.2,1.6,3.4c0.5,1.2,0.9,2.3,1.3,3.5c0.8,2.4,1.3,4.8,1.7,7.3c0.2,2.5,0.4,5.1,0,7.6
		c-0.2,1.3-0.6,2.5-1.1,3.7c-0.6,1.1-1.3,2.3-2.2,3.1l-0.1-0.1c1.6-1.9,2.3-4.3,2.6-6.8c0.3-2.4,0.1-4.9-0.2-7.4
		c-0.3-2.4-0.8-4.9-1.4-7.3C266.9,225.2,266.2,222.8,265.4,220.5L265.4,220.5z"/>
</g>
<g>
	<path d="M272,234.7c1.4,1,2.5,2.2,3.5,3.7c0.9,1.4,1.6,3.1,1.9,4.8c0.3,1.7,0.4,3.5,0.1,5.2c-0.2,0.8-0.4,1.7-0.7,2.5
		c-0.4,0.8-0.7,1.5-1.2,2.2h-0.1c1.3-3,1.7-6.4,1-9.6c-0.3-1.6-0.9-3.1-1.7-4.6C274,237.3,273,236,272,234.7L272,234.7z"/>
</g>
<g>
	<path d="M290,226.7c1.4,0.9,2.7,2.1,3.9,3.3c1.199,1.2,2.199,2.6,3.1,4c0.9,1.5,1.7,3,2.1,4.7c0.2,0.8,0.4,1.7,0.5,2.5
		c0,0.9,0.101,1.7-0.1,2.6h-0.1c0-1.7-0.5-3.3-1-4.8c-0.601-1.5-1.4-3-2.301-4.4C294.4,231.8,292.3,229.2,290,226.7L290,226.7z"/>
</g>
<g>
	<path d="M287.5,239.5c0.7,1.1,1.2,2.2,1.7,3.3c0.5,1.1,0.899,2.3,1.399,3.4c0.4,1.1,0.801,2.3,1.2,3.4c0.2,0.6,0.4,1.1,0.601,1.7
		c0.199,0.6,0.399,1.1,0.8,1.6L293.1,253c-0.5-0.4-0.899-0.9-1.199-1.4c-0.301-0.5-0.601-1.1-0.9-1.6c-0.5-1.1-1-2.3-1.4-3.4
		C288.8,244.2,288.1,241.9,287.5,239.5L287.5,239.5z"/>
</g>
<g>
	<path d="M281.2,249c1.1,1.2,2.1,2.6,2.899,4.1c0.801,1.5,1.4,3,1.9,4.6c0.4,1.6,0.7,3.3,0.6,5c-0.1,0.9-0.199,1.7-0.399,2.5
		c-0.3,0.8-0.601,1.6-1.101,2.3H285c0.7-1.5,0.9-3.1,0.9-4.7c-0.101-1.6-0.4-3.2-0.801-4.8C284.1,254.8,282.8,251.8,281.2,249
		L281.2,249z"/>
</g>
<g>
	<path d="M267.5,258.3c-0.1,1.3-0.3,2.6-0.3,4c-0.1,1.3-0.2,2.6-0.2,3.9c0,2.6,0,5.2,0.4,7.8c0.2,2.6,0.8,5.1,1.5,7.6
		c0.4,1.3,0.8,2.5,1.3,3.7c0.5,1.2,1.1,2.4,1.7,3.6l-0.1,0.1c-3.1-4.3-4.9-9.6-5.5-14.8c-0.3-2.7-0.3-5.3-0.2-8
		C266.5,263.5,266.8,260.8,267.5,258.3L267.5,258.3z"/>
</g>
<g>
	<path d="M276.9,261.3l-1.3,3c-0.4,1-0.8,2-1.1,3s-0.5,2-0.7,3c-0.2,1-0.2,2.1-0.2,3.2h-0.1c-0.7-2.1-0.6-4.5,0.1-6.6
		C274.2,264.9,275.3,263,276.9,261.3L276.9,261.3z"/>
</g>
<g>
	<path d="M261.5,164c0.3,1.7,0.6,3.4,0.8,5.1c0.2,1.7,0.4,3.4,0.6,5.1c0.2,1.7,0.5,3.4,0.8,5c0.1,0.8,0.3,1.6,0.6,2.4
		c0.2,0.8,0.6,1.6,1,2.3l-0.1,0.1c-1.2-1.3-1.8-3-2.3-4.6c-0.5-1.7-0.8-3.4-1-5.1C261.5,170.9,261.4,167.5,261.5,164L261.5,164z"/>
</g>
<g>
	<path d="M299.1,178.5c1.9,0.8,3.7,1.9,5.4,3.1c1.7,1.2,3.2,2.6,4.7,4c1.399,1.5,2.8,3,4.1,4.7c0.601,0.8,1.2,1.7,1.8,2.5
		c0.5,0.9,1.101,1.8,1.5,2.7l-0.1,0.1c-2.4-3.3-5.1-6.4-8-9.3c-1.4-1.4-2.9-2.8-4.5-4.1C302.4,180.9,300.8,179.6,299.1,178.5
		L299.1,178.5z"/>
</g>
<g>
	<path d="M290.4,184c1.1,1.2,2,2.5,2.699,3.8c0.801,1.4,1.4,2.8,1.801,4.3c0.399,1.5,0.8,3.1,0.8,4.7c0,0.8,0,1.6-0.2,2.4
		c-0.2,0.8-0.4,1.6-0.7,2.3h-0.1c0.3-1.5,0.399-3,0.2-4.6c-0.2-1.5-0.5-3-1-4.5C293.1,189.5,291.8,186.7,290.4,184L290.4,184z"/>
</g>
<g>
	<path d="M287.5,218.5c1.3-0.1,2.6,0,3.9,0.3c1.3,0.3,2.5,0.8,3.699,1.4c1.101,0.7,2.2,1.6,3,2.7c0.4,0.6,0.7,1.2,0.9,1.9
		c0.2,0.7,0.3,1.3,0.1,2H299c-0.2-1.2-0.7-2.4-1.5-3.4s-1.8-1.7-2.9-2.4C292.4,219.8,290,219,287.5,218.5L287.5,218.5z"/>
</g>
<g>
	<path d="M505,501c0.9,1.3,1.6,2.8,2.2,4.2c0.6,1.5,1.1,3,1.5,4.6c0.399,1.601,0.6,3.2,0.6,4.8c0,1.601-0.1,3.301-0.6,4.9
		c-1,3.2-3.4,6-6.5,7.4c-1.5,0.699-3.101,1.1-4.7,1.399c-1.6,0.2-3.2,0.3-4.8,0.2v-0.1c3.1-0.2,6.3-0.8,9.1-2.2
		c1.4-0.7,2.7-1.7,3.7-2.9s1.8-2.6,2.2-4.1c0.899-3,0.8-6.2,0.2-9.3C507.4,506.8,506.3,503.8,505,501L505,501z"/>
</g>
<g>
	<path d="M513.5,514.5c0.7,1.9,0.8,3.9,0.7,5.8c-0.2,2-0.7,4-1.601,5.8c-1.8,3.7-5.1,6.4-8.6,8.2c-3.6,1.7-7.5,2.8-11.4,3.3
		c-1.899,0.2-3.899,0.4-5.899,0.5c-2,0-3.9,0-5.8-0.199V537.8c3.899-0.1,7.8-0.3,11.6-1s7.6-1.7,11-3.399c3.4-1.7,6.6-4.301,8.4-7.7
		C513.8,522.4,514.3,518.3,513.5,514.5L513.5,514.5z"/>
</g>
<g>
	<path d="M514,535.3c-1,1.5-2.2,2.9-3.4,4.2c-1.3,1.3-2.6,2.6-4,3.7c-2.8,2.399-5.899,4.399-9.1,6c-3.3,1.5-6.9,2.7-10.6,3
		c-1.801,0.1-3.7,0.1-5.5-0.2c-1.801-0.3-3.601-0.8-5.2-1.5v-0.1c3.399,1.1,7.1,1.399,10.6,1c3.601-0.4,7-1.5,10.2-3.101
		c3.2-1.5,6.3-3.5,9.1-5.7C508.9,540.4,511.6,537.9,514,535.3L514,535.3z"/>
</g>
<g>
	<path d="M508.6,547.4c-1.199,1.5-2.6,2.699-4.1,4c-1.5,1.199-3,2.399-4.5,3.5c-3.1,2.199-6.5,4-10,5.5c-3.6,1.399-7.3,2.5-11.1,3
		c-1.9,0.199-3.801,0.399-5.7,0.3c-1.9-0.101-3.8-0.2-5.7-0.601V563c3.7,0.4,7.5,0.2,11.3-0.4c3.7-0.6,7.3-1.699,10.8-3.1
		s6.801-3.2,10-5.2C502.7,552.1,505.8,549.9,508.6,547.4L508.6,547.4z"/>
</g>
<g>
	<path d="M505.5,558c-1,1.7-2.2,3.2-3.4,4.7c-1.199,1.5-2.6,2.899-4,4.2c-1.399,1.3-2.899,2.6-4.6,3.6c-0.8,0.5-1.7,1-2.6,1.4
		C490,572.3,489,572.6,488,572.6v-0.1c1.9-0.5,3.5-1.6,5-2.7c1.5-1.2,3-2.399,4.4-3.7C500.3,563.6,502.9,560.9,505.5,558L505.5,558z
		"/>
</g>
<g>
	<path d="M503.5,572.8c-0.9,1.3-1.9,2.5-3,3.601c-1.1,1.1-2.3,2.1-3.6,3c-1.301,0.899-2.7,1.699-4.2,2.3c-0.8,0.3-1.5,0.5-2.3,0.7
		c-0.801,0.1-1.601,0.199-2.4,0V582.3c1.5-0.1,3-0.6,4.4-1.3c1.399-0.7,2.699-1.5,3.899-2.4C498.9,576.8,501.2,574.8,503.5,572.8
		L503.5,572.8z"/>
</g>
<g>
	<path d="M496.8,478.1c1.4,0.2,2.7,0.601,4,1.101s2.5,1.2,3.7,1.899c2.4,1.5,4.4,3.5,6.1,5.801c1.601,2.399,2.801,5,3.301,7.8
		c0.3,1.399,0.399,2.8,0.399,4.2c0,1.399-0.1,2.8-0.399,4.1H513.8c0.101-2.7-0.1-5.5-0.7-8.1c-0.699-2.601-1.8-5.2-3.399-7.4
		c-1.5-2.2-3.5-4.2-5.7-5.7C501.8,480.2,499.4,478.9,496.8,478.1L496.8,478.1z"/>
</g>
<g>
	<path d="M514.8,484c1.3,2.4,2.4,4.9,3.4,7.4s2,5.1,2.899,7.699c1.801,5.2,3.101,10.5,4,15.9c0.4,2.7,0.7,5.5,0.7,8.2
		c0,2.8-0.1,5.6-0.8,8.3c-0.6,2.7-1.7,5.4-3.5,7.6c-1.8,2.2-4.2,3.801-6.9,4.5v-0.1c2.601-0.9,4.9-2.5,6.5-4.7
		c1.601-2.2,2.601-4.8,3.101-7.399c1.1-5.301,0.6-10.801-0.2-16.2c-0.8-5.4-2.2-10.601-3.8-15.8C518.8,494.1,516.9,489,514.8,484
		L514.8,484z"/>
</g>
<g>
	<path d="M524.6,490c1.5,2.8,2.9,5.7,4.101,8.7s2.2,6,3,9.1c1.6,6.2,2.5,12.7,2.2,19.2c-0.4,6.4-2.101,13-5.601,18.5
		c-1.8,2.7-3.899,5.2-6.3,7.4c-2.5,2.1-5.2,3.8-8,5.3V558.1c5.5-3.1,10.4-7.5,13.7-13s4.899-11.8,5.3-18.1
		c0.4-6.4-0.5-12.7-1.9-18.9C529.4,501.8,527.3,495.7,524.6,490L524.6,490z"/>
</g>
<g>
	<path d="M534.5,497.6c2.1,2.5,3.8,5.301,5.3,8.301c1.4,3,2.4,6.199,3,9.399c1.2,6.5,0.7,13.3-1.3,19.601
		c-2.1,6.3-5.5,12.1-9.7,17.1c-2.1,2.5-4.3,4.9-6.7,7.1c-2.399,2.2-4.899,4.301-7.5,6.2l-0.1-0.1c5-4.101,9.7-8.7,13.7-13.8
		c4-5.101,7.3-10.801,9.3-17c2-6.2,2.6-12.801,1.5-19.2c-0.5-3.2-1.5-6.3-2.7-9.3C538,503.1,536.5,500.2,534.5,497.6L534.5,497.6z"
		/>
</g>
<g>
	<path d="M500.7,582.3c1-1.3,1.899-2.6,2.7-3.899c0.8-1.301,1.5-2.7,2.1-4.101c0.6-1.399,1.2-2.899,1.7-4.399
		c0.3-0.7,0.5-1.5,0.7-2.301c0.3-0.8,0.399-1.5,0.699-2.3h0.101c-0.2,3.2-1,6.4-2.2,9.3c-0.7,1.5-1.4,2.9-2.4,4.2
		C503,580.2,502,581.4,500.7,582.3L500.7,582.3z"/>
</g>
<g>
	<path d="M392.7,448.7c2.2-2.2,4.5-4.2,6.899-6.2c2.4-1.9,4.9-3.8,7.4-5.6c5.1-3.5,10.5-6.601,16.2-9.2c5.7-2.4,11.7-4.4,18-5.101
		c3.1-0.3,6.3-0.3,9.399,0.101c3.101,0.5,6.101,1.3,8.9,2.7v0.1c-5.7-2.4-12.1-2.9-18.1-2.1c-6.101,0.8-12,2.699-17.7,5.199
		c-5.601,2.5-11,5.5-16.2,8.9C402.3,441,397.4,444.7,392.7,448.7L392.7,448.7z"/>
</g>
<g>
	<path d="M407,448.7c2.5-2.5,5.3-4.601,8.2-6.5c3-1.9,6.1-3.5,9.3-5c6.4-2.9,13.3-4.8,20.2-5.8c7-0.9,14.1-1.101,21-0.301
		c3.5,0.4,6.899,1,10.399,1.801c3.4,0.8,6.801,1.8,10.101,2.899v0.101c-6.7-2-13.5-3.4-20.5-4c-6.9-0.601-13.9-0.5-20.8,0.5
		c-6.9,1-13.7,2.8-20.101,5.5c-3.2,1.399-6.3,2.899-9.3,4.699C412.6,444.5,409.7,446.4,407,448.7L407,448.7z"/>
</g>
<g>
	<path d="M450,440.2c3.2-0.101,6.4-0.101,9.6-0.101c3.2,0.101,6.4,0.301,9.601,0.5c6.399,0.5,12.7,1.301,19.1,2.4
		c6.3,1.3,12.601,2.8,18.601,5c3,1.1,6,2.4,8.8,3.9c2.8,1.6,5.5,3.399,7.899,5.5l-0.1,0.1c-5-4-10.9-6.7-16.9-8.8
		c-6-2.101-12.199-3.601-18.5-4.8c-6.3-1.2-12.6-2-18.899-2.601C462.8,440.8,456.4,440.4,450,440.2L450,440.2z"/>
</g>
<g>
	<path d="M476.1,451.6c2.601-0.1,5.101,0.101,7.7,0.301c2.5,0.3,5.101,0.6,7.601,1.1c5,0.9,10,2.4,14.8,4.3
		c4.7,2.101,9.3,4.601,13.2,8c1.899,1.7,3.699,3.7,5.199,5.8c1.4,2.101,2.7,4.5,3.4,6.9h-0.1c-1.9-4.7-5.101-8.9-9-12.1
		c-3.9-3.301-8.4-5.801-13.101-7.7c-4.7-2-9.6-3.4-14.6-4.5C486.3,452.8,481.2,452,476.1,451.6L476.1,451.6z"/>
</g>
<g>
	<path d="M481,464.9c1.6-0.2,3.1-0.101,4.7-0.2c1.6,0,3.1,0.1,4.7,0.3c3.1,0.3,6.199,0.9,9.3,1.7c3,0.899,6.1,2,8.7,3.899
		c1.3,0.9,2.6,2,3.6,3.301c1,1.3,1.7,2.8,2,4.3h-0.1c-0.9-3-3.2-5.3-5.9-7c-2.6-1.601-5.6-2.7-8.6-3.601
		c-3-0.899-6.101-1.399-9.101-1.899C487.2,465.3,484.1,465,481,464.9L481,464.9z"/>
</g>
<g>
	<path d="M407,457.9c1.3-1,2.8-1.7,4.5-2.101c1.6-0.399,3.3-0.6,5.1-0.3c1.7,0.3,3.4,1.2,4.5,2.5c0.601,0.7,1,1.4,1.4,2.2
		c0.3,0.8,0.5,1.6,0.6,2.399H423c-0.5-1.5-1.3-3-2.4-4.1c-1.1-1.1-2.6-1.8-4.199-2.1c-1.601-0.301-3.2-0.2-4.7,0.1
		C410.1,456.8,408.5,457.3,407,457.9L407,457.9z"/>
</g>
<g>
	<path d="M418.5,451.6c1.9-0.399,3.8-0.5,5.7-0.3c1.899,0.2,3.8,0.7,5.6,1.601c1.8,0.899,3.4,2.3,4.3,4.1c0.5,0.9,0.801,1.9,1,2.8
		c0.101,1,0.101,1.9,0,2.9H435c0-1.9-0.5-3.7-1.5-5.3c-1-1.601-2.5-2.801-4.1-3.601c-1.601-0.8-3.5-1.399-5.301-1.7
		C422.2,451.8,420.4,451.6,418.5,451.6L418.5,451.6z"/>
</g>
<g>
	<path d="M432.5,448.8c1.2,0,2.4,0.101,3.5,0.3c1.2,0.2,2.3,0.5,3.5,0.801c2.3,0.699,4.5,1.8,6.5,3.199c1.9,1.5,3.6,3.5,4.3,6
		c0.4,1.2,0.5,2.4,0.5,3.7c-0.1,1.2-0.3,2.4-0.7,3.5H450c0.5-2.3,0.5-4.7-0.3-6.899c-0.8-2.2-2.4-4-4.2-5.4s-4-2.5-6.1-3.3
		C437.1,449.8,434.8,449.2,432.5,448.8L432.5,448.8z"/>
</g>
<g>
	<path d="M453.4,451.6c1.8,0.4,3.6,0.801,5.3,1.601c1.7,0.7,3.399,1.6,4.899,2.8s2.9,2.7,3.4,4.8c0.2,1,0.2,2.101-0.1,3
		c-0.301,0.9-0.801,1.8-1.5,2.4L465.3,466.1c1-1.5,1.5-3.399,0.9-5.199c-0.601-1.7-1.9-3.101-3.3-4.2c-1.4-1.101-3-2.101-4.7-2.9
		C456.8,453.1,455,452.5,453.4,451.6L453.4,451.6z"/>
</g>
<g>
	<path d="M148.3,357.4c-0.8-3.2-1.3-6.5-1.6-9.7c-0.1-1.6-0.2-3.3,0-4.9c0.1-0.8,0.3-1.6,0.6-2.4c0.3-0.8,0.8-1.5,1.5-1.9
		c-0.7,0.5-1.1,1.2-1.4,2c-0.3,0.8-0.4,1.6-0.4,2.4c-0.1,1.6,0,3.3,0.2,4.9c0.4,3.2,1.2,6.4,2.1,9.5L148.3,357.4z"/>
</g>
<g>
	<path d="M327.9,365.5c-2.9-0.6-5.801-1.1-8.801-1.3c-1.5-0.1-3-0.2-4.399,0c-0.7,0.1-1.5,0.2-2.2,0.4c-0.7,0.2-1.4,0.6-1.8,1.2
		c0.399-0.7,1.1-1.1,1.8-1.3c0.7-0.3,1.4-0.4,2.2-0.5c1.5-0.2,3-0.3,4.5-0.2c3,0.1,6,0.4,8.899,0.9L327.9,365.5z"/>
</g>
<g>
	<path d="M120.9,285.9c3.1-3.8,6.1-7.7,8.9-11.7c1.4-2,2.8-4,4-6.2c0.6-1.1,1.2-2.1,1.7-3.3c0.5-1.1,0.9-2.3,0.9-3.5
		c0.1,1.2-0.3,2.4-0.7,3.6c-0.5,1.1-1,2.2-1.6,3.3c-1.2,2.2-2.4,4.3-3.8,6.3c-2.7,4.1-5.5,8.1-8.5,12L120.9,285.9z"/>
</g>
</svg>
