<?xml version="1.0" encoding="utf-8"?>
<!-- Generator: Adobe Illustrator 15.0.0, SVG Export Plug-In . SVG Version: 6.00 Build 0)  -->
<!DOCTYPE svg PUBLIC "-//W3C//DTD SVG 1.1//EN" "http://www.w3.org/Graphics/SVG/1.1/DTD/svg11.dtd">
<svg version="1.1" id="Layer_x5F_www.ABC-color.com"
	 xmlns="http://www.w3.org/2000/svg" xmlns:xlink="http://www.w3.org/1999/xlink" x="0px" y="0px" width="822px" height="567px"
	 viewBox="0 0 822 567" enable-background="new 0 0 822 567" xml:space="preserve">
<rect display="none" fill="#FFFFFF" width="822" height="567"/>
<path fill="#FFFFFF" stroke="#000000" d="M361.7,493.5c0.398-3.6,86.2-1.6,98.398-1.3c-14.898,2.398-22.8,6.8-22.8,6.8
	c-15.898,4.2-13.5,22.5-13.5,22.5s0,0.4,0.2,0.8l-0.6,0.102l-0.102,0.1c-0.1-0.1-0.1-0.3-0.1-0.4l-0.599,0.1
	c-6.5,7.1-46.8,1.199-46.8,1.199c-4.5,1.601-8.1,1.699-10.898,1.101c0,0,0,0-0.102,0c-5.2-1.4-7.6-5-7.6-5c0-0.5-0.8-0.2-0.8-0.2
	c-5.302,3-10.302,3.2-14.2,2.4c-0.2,0-0.4-0.102-0.5-0.102c-4.7-1.199-7.7-3.699-7.7-3.699C320.7,502.5,361.7,493.5,361.7,493.5z"/>
<path fill="#FFFFFF" stroke="#000000" d="M254.8,195.2c1.8-6.4,2.4-14.7-0.3-24.4c0,0-2.2-106.7,41.1-129.6c0,0,37.1-21.8,34-1.5
	c0,0-8.398,93.3-21.898,114.5C307.8,154.2,293.6,185.7,254.8,195.2z"/>
<path fill="#FFFFFF" stroke="#000000" d="M193.7,517.7c-15.6-11.3,22.9-20.602,22.9-20.602C239,489.7,242.2,477.2,242.2,477.2
	c6.5-6.102,2.3-27.7,2.3-27.7s3.3,5.2,7,4.5c3.6-0.6,0.3-3.3,0-3.5c0.4,0.2,6.2,3.8,9.8,3.8c3.7,0-1.4-3.898-1.4-3.898
	s8.4,3.898,10.3,2.3c1.9-1.602,0.5-5.102,0.5-5.102s5.1,3.5,6.5,2.302c7.5,44-41.9,51-41.9,51c-3.3,0-18.2,4-18.2,4
	c-12.6,3.198-15.4,14.1-17.3,14.398c-0.2,0-0.3,0-0.5,0c-0.2-0.1-0.3-0.2-0.3-0.2c-0.4,0.102-0.9,0-1.5-0.1
	C195.6,518.6,193.7,517.7,193.7,517.7z"/>
<path fill="#FFFFFF" stroke="#000000" d="M188.6,213.5c5.5,0,10,4.8,10,10.6c0,5.9-4.5,10.6-10,10.6s-10-4.8-10-10.6
	c0-2.4,0.7-4.6,2-6.4c1.7-1.5,3.7-2.9,6.1-4.1C187.3,213.6,187.9,213.5,188.6,213.5z"/>
<path fill="#FFFFFF" stroke="#000000" d="M172.6,231.5c1.1-4.3,3.4-9.5,8-13.7c-1.3,1.8-2,4-2,6.4c0,5.9,4.5,10.6,10,10.6
	s10-4.8,10-10.6c0-5.9-4.5-10.6-10-10.6c-0.6,0-1.3,0.1-1.9,0.2c1.8-0.9,3.9-1.6,6.2-2.1c0,0,6.5-2.7,16.7,3.5c1.9,2.6,3,5.7,3,9
	c0,9.7-9.4,17.5-21,17.5C183.2,241.7,175.9,237.5,172.6,231.5z"/>
<path fill="#FFFFFF" stroke="#000000" d="M226.9,232c-1.3,1.9-15.9,20.7-54.1,9.4c0,0-3.5,2.5-4.9,1.5l3.5-3c0,0-0.1-3.7,1.1-8.4
	c3.3,6,10.6,10.2,19.1,10.2c11.6,0,21-7.8,21-17.5c0-3.3-1.1-6.4-3-9c4.7,2.9,10.1,7.6,16,15.4c0,0,2,1.3,4,2c-1.5,0-3,0.1-3.5,0.9
	L226.9,232z"/>
<path fill="#FFFFFF" stroke="#000000" d="M220.7,185.8c0,0-25.4-0.5-47.1,4.5c3.1-3.4,10.8-20.5-10.7-100.4c0,0-13.3-50.6-6.1-60
	c3.6-4.8,7.4-6.4,11.1-5.8c17.8,4.6,33,59.1,35.2,65.9c6.6,20.3,21.9,63.6,21.7,64.5l-1,9.2C221.9,173.2,221.1,178.2,220.7,185.8z"
	/>
<path fill="#FFFFFF" stroke="#000000" d="M104.2,293.7c-1.2-4.2-0.5-6.8,0.5-8.4c1.3-2,3.3-2.4,3.3-2.4
	c18.7-14.5,30.3-14.7,30.3-14.7c25.7-2.3,35.5,3.5,39.2,9.2c3,4.6,1.8,9.2,1.8,9.2c-0.5,1.801-1.4,3.4-2.4,4.9
	c-4.2,6-12,9-19.8,10.4c-11.1,2-22.2,0.8-22.2,0.8c-20.5,1.6-30.8-9.601-30.8-9.601C104.3,293.2,104.3,293.5,104.2,293.7z"/>
<path fill="#FFFFFF" stroke="#000000" d="M75.8,284.8c1.6-7,7.1-13,7.1-13c13.7,1.5,21.9,12.9,21.9,12.9l0.3,0.2
	c-1.1,1.6-1.8,4.199-0.5,8.398c-0.8,6.301-11.2,10.5-11.2,10.5c-3.7-0.8-6.7-1.898-9.1-3.1c-4.4-2.2-6.9-4.9-8-7.801
	C75.2,290.3,75.2,287.5,75.8,284.8z"/>
<path fill="#FFFFFF" stroke="#000000" d="M692.9,414c-0.5,1.4-1,2.8-1.2,4.3C691.8,417.8,692.3,416.3,692.9,414z M254.8,195.2
	c38.8-9.5,53-40.9,53-40.9c13.5-21.2,21.9-114.5,21.9-114.5c3-20.3-34,1.5-34,1.5c-43.4,22.8-41.1,129.6-41.1,129.6
	C257.2,180.5,256.6,188.7,254.8,195.2z M172.6,231.5c-1.3,4.8-1.1,8.4-1.1,8.4l-3.5,3c1.4,1,4.9-1.5,4.9-1.5
	c38.2,11.3,52.8-7.5,54.1-9.4l-0.8,1.5c0.5-0.8,2-1,3.5-0.9c-2-0.7-4-2-4-2c-5.9-7.8-11.3-12.6-16-15.4c-10.1-6.2-16.7-3.5-16.7-3.5
	c-2.3,0.5-4.4,1.2-6.2,2.1c-2.4,1.1-4.5,2.5-6.1,4.1C176,221.9,173.7,227.1,172.6,231.5z M93.1,304.2c0,0,10.4-4.2,11.2-10.5
	c0-0.2,0.1-0.5,0.1-0.8c0,0,10.3,11.3,30.8,9.6c0,0,11,1.2,22.2-0.8c7.8-1.4,15.6-4.3,19.8-10.4c1-1.399,1.8-3.1,2.4-4.899
	c0,0,1.1-4.5-1.8-9.199c-3.7-5.7-13.5-11.5-39.2-9.2c0,0-11.6,0.2-30.3,14.7c0,0-2,0.5-3.3,2.398l-0.3-0.199
	c0,0-8.2-11.399-21.9-12.899l0,0C94.4,259.3,99,250,99,250c10-31.2,49.2-48.9,49.2-48.9c5.6-5.2,14.7-8.6,24.7-10.9l0.8,0.2
	c21.7-5,47.1-4.5,47.1-4.5c0.3-7.6,1.7-16.7,3.6-26.2h-0.2c0.2-0.9,0.2-2.1,0.1-3.6c6.1-28.6,16.2-59.1,16.2-59.1
	c23.2-63,84-75.2,84-75.2c41,15.8,0.4,132.4,0.4,132.4c0,31.2-42.4,47.9-42.4,47.9c15.9,17.7,2.5,52.3,2.5,52.3
	c42.4-20.6,80.1-3.4,80.1-3.4c14.9-13.5,68.302-16.3,68.302-16.3C588.8,235.2,679.7,332,679.7,332c25.2,25.2,16.898,67.9,13.2,82
	c6.3-16.9,28.1-25.3,28.1-25.3l3.7,0.3c0,0,0,1.5,0,1.9c0-1.9,3.3-6.102,3.3-6.102l3.7,3.801c0-2.301,4.7-6.801,4.7-6.801l3.3,4.5
	l2.8-5.5c2.3-1.898,6.5,6.4,6.5,6.4l4.2-4.5c4.7,2.898,2.3,14.5,2.3,14.5l5.1-4.5c3.302,2.898-3.3,22.2-3.3,22.2l5.602-2.9
	c0,3.2-9.802,18.7-9.802,18.7l8.4-2.602c0,6.802-15.4,19.602-15.4,19.602h6.102c0,3.5-29.4,18.3-29.4,18.3l5.102,0.6
	C716.7,476.6,666.8,478.2,666.8,478.2c-15.398,0-19.6,16.1-19.6,16.1c7,19.3-17.3,22.8-17.3,22.8
	C617.8,518.4,518.4,528.4,518.4,528.4C455.9,539.7,457.8,527.8,457.8,527.8c-17.7,6.8-27.5-2.898-27.5-2.898
	c-4.898,1.8-6.6-0.7-7.2-2.302l0.102-0.1l0,0c-0.102-0.5,0.5-1,0.5-1s-2.3-18.3,13.5-22.4c0,0,8-4.398,22.8-6.8l0.2-0.3l-13.602-6.2
	c0,0-6.1-0.6-8.398-0.6s-6.102-4.8-6.102-4.8l-4.698,2.3l-4.2-2.9c0,0-5.102-1.3-8.9-1.3c-3.7,0-10.3-3.899-10.3-3.899
	s-0.5,1.899-2.8,1.899s-10.7-5.5-10.7-5.5s-3.3,1-4.7,1.3c-1.398,0.3-10.7-5.1-10.7-5.1s-1.898-2.3-4.198,0.6
	c-2.302,2.9-14.5-5.1-14.5-5.1s-1.4,1-3.7,2.6c-2.3,1.602-9.3-4.8-9.3-4.8s0.5,1.9-2.802,3.2c-2.3,0.899-2.5-3.3-2.398-5.7
	c-6.2,9-7.8,20.2-7.8,20.2c-0.5,9.3-27.102,37.6-27.102,37.6c-12.6,10.9-43.4,13.2-43.4,13.2c-40.6,5.5-38.2-5.1-38.2-5.1
	c-8.5,5-20.5-2.801-22.5-4.301c0.2,0,0.4,0,0.5,0c1.9-0.301,4.7-11.199,17.3-14.399c0,0,15-4,18.2-4c0,0,49.4-7,41.9-51
	c-1.4,1.3-6.5-2.3-6.5-2.3s1.4,3.5-0.5,5.1c-1.9,1.602-10.3-2.3-10.3-2.3s5.1,3.9,1.4,3.9c-3.6,0-9.4-3.602-9.8-3.802
	c0.3,0.2,3.6,2.9,0,3.5c-3.7,0.602-7-4.5-7-4.5l-0.8-0.198c0,0-4.2,4.8-5.6,3.898c-1.4-1-6.1-9-6.1-9s0,4.2-2.3,4.2
	c-2.3,0-7.5-7.7-7.5-7.7s0.9,3.2-2.3,3.2c-3.2,0-6.1-9.3-6.1-9.3l-2.3,2.898c-3.7,0-3.7-9.698-3.7-9.698L204,431.3
	c-1.4-6.1-11.7-9-11.7-9l5.1,5.102C158.2,422.3,147,368.6,147,368.6l0.2-0.299c-32.3-12.9-24.8-37.9-24-40.4
	c-5.3-2.301-11.4-6.199-13.9-12C95.8,315.1,93.1,304.2,93.1,304.2 M93.1,304.2C93.3,304.3,92.8,304.1,93.1,304.2 M365.1,424.6
	l0.2,0.102C364.7,422.8,365.1,424.6,365.1,424.6z"/>
<path fill="none" stroke="#000000" stroke-linecap="round" stroke-linejoin="round" d="M109.6,315.7c5.4-0.101,13.8-3.9,22.2-7.2"/>
<path fill="none" stroke="#000000" stroke-linecap="round" stroke-linejoin="round" d="M132.2,330.7c0,0-3.7-0.8-8.3-2.7"/>
<path fill="none" stroke="#000000" stroke-linecap="round" stroke-linejoin="round" d="M221.8,523.7c0,0,1.4-12.5,20-11.3"/>
<path fill="none" stroke="#000000" stroke-linecap="round" stroke-linejoin="round" d="M370.1,403.1c2.802-1.3-0.5-14.5-6.5-16.398"
	/>
<path fill="none" stroke="#000000" stroke-linecap="round" stroke-linejoin="round" d="M368.7,426.5c0,0,0.5-7.1-2.3-10
	c0,0,6.1,0.3,5.6-0.3c-0.5-0.602-2.3-5.102-3.7-6.4"/>
<path fill="none" stroke="#000000" stroke-linecap="round" stroke-linejoin="round" d="M357.5,433c0,0,6.1,1.3,7,0.3
	c1-1,1.9-4.5,1-7.7"/>
<path fill="none" stroke="#000000" stroke-linecap="round" stroke-linejoin="round" d="M356.1,442.6c0.9-1.3,4.7-7.1,1.4-9.6"/>
<path fill="none" stroke="#000000" stroke-linecap="round" stroke-linejoin="round" d="M349.1,448.4l1.4,0.6c0,0,3.3-3.8,0.9-7.7
	c0,0,3.698,2.602,4.698,1.3"/>
<path fill="none" stroke="#000000" stroke-linecap="round" stroke-linejoin="round" d="M337.4,459.2c2.8-4.4,6.6-8.5,11.698-10.8"/>
<path fill="none" stroke="#000000" stroke-linecap="round" stroke-linejoin="round" d="M334.2,517.5c0,0,5.1-12.5,15.398-14.2"/>
<path fill="none" stroke="#000000" stroke-linecap="round" stroke-linejoin="round" d="M356.8,518.8c0,0,1.602-7.3,9.602-8"/>
<path fill="none" stroke="#000000" stroke-linecap="round" stroke-linejoin="round" d="M375.5,523.5c0,0-0.3-7.6,9.1-10.8"/>
<path fill="none" stroke="#000000" stroke-linecap="round" stroke-linejoin="round" d="M430.3,524.9c0,0-1.898-19.302,22.4-21.5"/>
<path fill="none" stroke="#000000" stroke-linecap="round" stroke-linejoin="round" d="M457.9,527.8c0,0,1.3-15.398,14.3-17"/>
<path fill="none" stroke="#000000" stroke-width="0.5" stroke-linecap="round" stroke-linejoin="round" d="M136.5,278.9
	c0,0,49-5.8,84.4,3.4"/>
<path fill="none" stroke="#000000" stroke-width="0.5" stroke-linecap="round" stroke-linejoin="round" d="M138.8,286
	c0,0,59.2,3.8,70,19.9"/>
<path fill="none" stroke="#000000" stroke-width="0.5" stroke-linecap="round" stroke-linejoin="round" d="M133.6,292.8
	c0,0,57.4,19.3,57.9,34.7"/>
<path fill="none" stroke="#000000" stroke-width="0.5" stroke-linecap="round" stroke-linejoin="round" d="M81.6,283.4
	c0,0-43.8,8.9-42.9,18.2"/>
<path fill="none" stroke="#000000" stroke-width="0.5" stroke-linecap="round" stroke-linejoin="round" d="M79.8,291
	c0,0-39.2,17-38.3,26.6"/>
<path fill="none" stroke="#000000" stroke-width="0.5" stroke-linecap="round" stroke-linejoin="round" d="M83.3,300.8
	c0,0-31.4,15.3-29.1,26"/>
<path fill="none" stroke="#000000" stroke-linecap="round" stroke-linejoin="round" d="M536.1,482.1c0,0-98.3-92.6,1.5-117"/>
<path fill="none" stroke="#000000" stroke-linecap="round" stroke-linejoin="round" d="M460.6,492.1c0,0,65.802-16.898,75.602-10"/>
<path fill="none" stroke="#000000" stroke-linecap="round" stroke-linejoin="round" d="M373.9,411.1c0,0-6-7-3.802-8
	c2.802-1.3-0.5-14.5-6.5-16.398"/>
</svg>
