<?xml version="1.0" encoding="utf-8"?>
<!-- Generator: Adobe Illustrator 15.0.0, SVG Export Plug-In . SVG Version: 6.00 Build 0)  -->
<!DOCTYPE svg PUBLIC "-//W3C//DTD SVG 1.1//EN" "http://www.w3.org/Graphics/SVG/1.1/DTD/svg11.dtd">
<svg version="1.1" id="abc" xmlns="http://www.w3.org/2000/svg" xmlns:xlink="http://www.w3.org/1999/xlink" x="0px" y="0px"
	 width="567px" height="822px" viewBox="0 0 567 822" enable-background="new 0 0 567 822" xml:space="preserve">
<title>Cororing pony</title>
<desc>Vector coloring pony</desc>
<g id="ZONE">
	<path fill="#FFFFFF" stroke="#000000" d="M410,667.95c-10.279,11.3-18.17,16.7-18.17,16.7c-4.53-9.44-11.33-32.15-11.33-32.15
		s20.5-17,23.5,12.5C404,665,402.5,670.91,410,667.95z"/>
	<path fill="#FFFFFF" stroke="#000000" d="M283.5,696.5c0,0,8.04-8.66,15.99,3.61c1.14,5.947,2.539,11.817,4.27,17.397
		C283.5,720.04,283.5,696.5,283.5,696.5z"/>
	<path fill="#FFFFFF" stroke="#000000" d="M269.84,595c-9.66-24.5,0-85.52,0-85.52c7.41,4.81,17.471,10.46,27.66,13.52
		c0,0-12.17,56.53-2.67,107.53c0,0-1.801,36,4.66,69.58c-7.95-12.271-15.99-3.61-15.99-3.61C272.5,662.5,269.84,595,269.84,595z"/>
	<path fill="#FFFFFF" stroke="#000000" d="M314.5,741c0,0,14-4,22.5,16.5c0,0,22.5-27,42,3.5c0,0,9.5-29.5,29-12.5
		c0,0,5,13.5-4.5,29.5c-19.07,32.13-68.471,19.43-81,3.5C316.12,773.39,314.5,741,314.5,741z"/>
	<path fill="#FFFFFF" stroke="#000000" d="M188.58,724.73c0,0,20.42-9.23,30.42,10.77c0,0,17-17.8,28.5,0c0,0,3.54-18.5,18.27-9.5
		c0,0,10.23,25-5.77,35c-34.01,21.26-57.95,1.75-65.79-13.08C191.84,743.44,189.6,731.01,188.58,724.73z"/>
	<path fill="#FFFFFF" stroke="#000000" d="M75.39,549.57c-5.38,10.85-14.74,17.17-20.89,14.107c-6.16-3.05-6.78-14.33-1.39-25.18
		c5.39-10.85,14.74-17.17,20.89-14.11C80.16,527.44,80.78,538.72,75.39,549.57z"/>
	<path fill="#FFFFFF" stroke="#000000" d="M40.17,566.53c0-25,15.15-45.313,33.98-45.79c-8.48-24.82-13.32-53.49-13.32-84.01
		c0-94.603,46.43-171.292,103.7-171.292c40.15,0,74.97,37.7,92.2,92.831c-1.33,0.579-2.65,1.21-3.96,1.869
		c-15.3-41.869-42.83-69.81-74.25-69.81c-48.06,0-87.02,65.37-87.02,146c0,27.74,4.61,53.68,12.62,75.77
		c0,0,37.91,83.053-25.61,99.98c-1.18,0.31-2.43,0.25-3.68,0.25c-1.15,0-2.28-0.07-3.4-0.22C53.88,609.85,40.17,590.31,40.17,566.53
		z M74,524.39c-6.15-3.06-15.5,3.263-20.89,14.11c-5.39,10.85-4.77,22.13,1.39,25.18c6.15,3.063,15.51-3.26,20.89-14.107
		C80.78,538.72,80.16,527.44,74,524.39z"/>
	<path fill="#FFFFFF" stroke="#000000" d="M74.83,612.33c1.25,0,2.5,0.06,3.68-0.25c63.52-16.93,25.61-99.98,25.61-99.98
		c-8.01-22.09-12.62-48.027-12.62-75.77c0-80.63,38.96-146,87.02-146c31.42,0,58.95,27.94,74.25,69.81
		c-1.25,0.631-2.49,1.29-3.72,1.99c-13.15-34.6-34.91-57.22-59.52-57.22c-40.15,0-72.7,60.17-72.7,134.38
		c0,33.15,6.5,63.5,17.27,86.94c0,0,25.85,54.077-9.62,84.18c-1.49,1.26-3.01,2.5-4.57,3.68c-6.6,4.98-13.94,8.91-22.74,8.91
		c-10.06,0-19.17-4.16-25.74-10.89C72.55,612.26,73.68,612.33,74.83,612.33z"/>
	<path fill="#FFFFFF" stroke="#000000" d="M139.17,629.67c-8.21,0-15.38-6.26-19.26-15.58c1.56-1.18,3.08-2.42,4.57-3.68
		c35.47-30.103,9.62-84.18,9.62-84.18c-10.77-23.44-17.27-53.79-17.27-86.94c0-74.21,32.55-134.38,72.7-134.38
		c24.61,0,46.37,22.62,59.52,57.22c-1.42,0.79-2.83,1.64-4.22,2.53c0,0-0.92,0.58-2.48,1.7c-11.55-17.37-27.23-28.03-44.49-28.03
		c-35.54,0-64.36,45.22-64.36,101c0,28.438,7.49,54.13,19.54,72.479c0,0,26.9,53.62-1.07,112.16c-0.51,1.07-1.21,1.94-2.06,2.66
		C147.12,629.02,142.83,629.67,139.17,629.67z"/>
	<path fill="#FFFFFF" stroke="#000000" d="M155.07,436.73c0,28.42,8.41,53.527,21.28,68.737c-8.51,20.67-12.54,47.34-0.85,77.53
		c0,0-1.19,20.69-0.25,48.45c-3,3.46-6.86,5.55-11.08,5.55c-5.92,0-11.14-4.1-14.26-10.37c0.85-0.72,1.55-1.59,2.06-2.66
		c27.97-58.54,1.07-112.16,1.07-112.16c-12.05-18.35-19.54-44.038-19.54-72.479c0-55.78,28.82-101,64.36-101
		c17.26,0,32.94,10.66,44.49,28.03c-1.5,1.08-3.58,2.66-6.03,4.7c-8.55-11.471-19.4-18.33-31.2-18.33
		C177.48,352.73,155.07,390.34,155.07,436.73z"/>
	<path fill="#FFFFFF" stroke="#000000" d="M174.17,426.03c0,21.81,7.6,40.8,18.81,50.607c-5.62,7.41-11.84,17.17-16.63,28.83
		c-12.87-15.21-21.28-40.317-21.28-68.737c0-46.393,22.41-84,50.05-84c11.8,0,22.65,6.859,31.2,18.329
		c-2.04,1.681-4.33,3.7-6.74,6.03c-5.57-5.55-12.15-8.76-19.2-8.76C190.38,368.33,174.17,394.16,174.17,426.03z"/>
	<path fill="#FFFFFF" stroke="#000000" d="M373.5,454.75c-1.391,0-2.51-1.96-2.51-4.38c0-2.41,1.119-4.37,2.51-4.37
		c0.029,0,0.05,0,0.08,0.01c0.061-0.64,0.16-1.24,0.279-1.8c-1.039-0.229-1.841-1.7-1.841-3.47c0-1.94,0.962-3.51,2.142-3.51
		c1.13,0,2.06,1.447,2.119,3.287c0.069-0.01,0.148-0.02,0.221-0.02c0.52,0,1.02,0.32,1.45,0.89c0.398-0.72,0.938-1.157,1.55-1.157
		c1.22,0,2.21,1.8,2.21,4.02s-0.99,4.02-2.21,4.02h-0.01c-0.04,0.9-0.142,1.75-0.301,2.521c1.198,0.11,2.141,1.65,2.141,3.51
		c0,1.95-1.021,3.521-2.29,3.521c-1.17,0-2.14-1.353-2.271-3.103c-0.09,0.021-0.181,0.03-0.271,0.03c-0.53,0-1.03-0.33-1.47-0.91
		C374.609,454.41,374.07,454.75,373.5,454.75z"/>
	<path fill="#FFFFFF" stroke="#000000" d="M372.02,440.74c0,1.77,0.802,3.24,1.843,3.47c-0.12,0.56-0.222,1.16-0.28,1.8
		c-0.03-0.01-0.05-0.01-0.08-0.01c-1.39,0-2.51,1.96-2.51,4.37c0,2.42,1.12,4.38,2.51,4.38c0.569,0,1.11-0.34,1.53-0.91
		c0.438,0.58,0.938,0.91,1.47,0.91c0.09,0,0.181-0.01,0.271-0.03c0.131,1.75,1.101,3.103,2.271,3.103c1.271,0,2.29-1.57,2.29-3.521
		c0-1.857-0.939-3.397-2.141-3.51c0.16-0.771,0.261-1.62,0.301-2.521h0.01c1.221,0,2.21-1.8,2.21-4.02s-0.989-4.021-2.21-4.021
		c-0.609,0-1.149,0.439-1.55,1.159c-0.431-0.567-0.931-0.89-1.45-0.89c-0.07,0-0.149,0.01-0.22,0.02
		c-0.063-1.84-0.99-3.289-2.12-3.289C372.98,437.23,372.02,438.8,372.02,440.74z M376.29,463.06c-3.979,0-7.21-7.027-7.21-15.697
		s3.229-15.69,7.21-15.69h0.01c3.98,0.01,7.2,7.03,7.2,15.69C383.5,456.03,380.27,463.06,376.29,463.06z"/>
	<path fill="#FFFFFF" stroke="#000000" d="M343.29,362.88c0,0,26.84,14.87,35.46,58.12c0,0,7.561-10.75,14.891-14.76
		c0.102,2.108,0.289,4.16,0.562,6.16c-6.92,0.76-17.57,18.697-17.9,19.27h-0.01c-12.88-50.66-36.08-63.34-36.08-63.34
		C341.21,366.47,342.25,364.65,343.29,362.88z"/>
	<path fill="#FFFFFF" stroke="#000000" d="M341.83,429.58c-8.46,6-23.13-7.21-23.66-63.58c-0.04-4.01-2.141-7.35-5.76-9.87
		c0,0,12.108-5.13,10.688-13.96c9.511,1.85,24.579,2.32,39.729-7.18c0,0-10.21,12.029-19.54,27.89c-1.04,1.771-2.08,3.59-3.08,5.45
		c-9.76,18.04-17.021,39.5-7.562,53.89c6.021,9.16,12.852-1.22,8.5-6.237c-2.528-2.923-5.709,0.56-2.829,3.92
		c1.5,1.75-6.931-4.053-1.649-8.32C344.029,405.63,352.67,421.92,341.83,429.58z"/>
	<path fill="#FFFFFF" stroke="#000000" d="M379,516c-3.779,5.2-19.18,10.85-20.85,11.45c-0.052-0.021-0.103-0.01-0.143,0.04
		c0.021,0,0.07-0.021,0.143-0.04c1.959,0.67,8.448,52.88,10.83,72.729c0.038,0.603,0.1,1.21,0.17,1.82
		c0.289,2.46,0.487,4.1,0.607,5.03c-0.13-1.25-0.398-3.643-0.777-6.853C366.65,569.07,401.34,557.82,393,548.5
		C384.5,539,383,510.5,379,516z M219,735.5c-10-20-30.42-10.77-30.42-10.77v-0.013c-9.13-28.66-12.36-64.71-13.33-93.27
		c-0.94-27.761,0.25-48.45,0.25-48.45c-11.69-30.19-7.66-56.86,0.85-77.53c4.79-11.66,11.01-21.42,16.63-28.83
		c7.84-10.357,14.52-16.14,14.52-16.14c-16.29-37.57,5.59-67.55,22.08-83.41c2.41-2.33,4.7-4.35,6.74-6.03
		c2.45-2.04,4.53-3.619,6.03-4.699c1.56-1.12,2.48-1.7,2.48-1.7c1.39-0.891,2.8-1.74,4.22-2.53c1.23-0.7,2.47-1.36,3.72-1.99
		c1.31-0.66,2.63-1.29,3.96-1.87c22.22-9.899,45.25-9.42,55.68-2.14c3.619,2.52,5.72,5.86,5.76,9.87
		c0.53,56.37,15.2,69.58,23.66,63.58c10.84-7.66,2.2-23.95-5.16-18c-5.279,4.27,3.15,10.068,1.65,8.318
		c-2.881-3.358,0.3-6.841,2.83-3.92c4.35,5.021-2.48,15.399-8.5,6.239c-9.461-14.39-2.2-35.85,7.56-53.89
		c0,0,23.2,12.68,36.08,63.34c-3.979,0-7.21,7.021-7.21,15.689c0,8.67,3.229,15.698,7.21,15.698c3.979,0,7.21-7.027,7.21-15.698
		c0-8.659-3.221-15.682-7.2-15.689c0.33-0.57,10.979-18.51,17.9-19.271c4.159,31.051,26.97,48.25,26.97,48.25s45.33,34,33.33,111.67
		c-7.271,47.021-28.71,78.278-44.5,95.631c-7.5,2.96-6-2.95-6-2.95c-3-29.5-23.5-12.5-23.5-12.5s6.8,22.71,11.33,32.149
		c0,0,0,0,10.67,31.851c10.67,31.85,5.5,32,5.5,32c-19.5-17-29,12.5-29,12.5c-19.5-30.5-42-3.5-42-3.5
		c-8.5-20.5-22.5-16.5-22.5-16.5c-4.521-6.54-8.03-14.65-10.74-23.49c-1.729-5.58-3.13-11.45-4.27-17.397
		c-6.461-33.58-4.66-69.58-4.66-69.58c-9.5-51,2.67-107.53,2.67-107.53c-10.189-3.062-20.25-8.71-27.66-13.521
		C262.7,504.85,258,501,258,501c-29,15.5-29,87-29,87c-1.5,25.5,15.5,53,31,93s5.77,45,5.77,45c-14.73-9-18.27,9.5-18.27,9.5
		C236,717.7,219,735.5,219,735.5z"/>
	<path fill="#FFFFFF" stroke="#000000" d="M433.08,394.8c6.28-2.54,14.07,2.102,17.398,10.36c3.342,8.26,0.962,17.01-5.311,19.54
		c-3.65,1.47-7.8,0.53-11.3-2.15c-0.01,0.01-0.021,0-0.03-0.02c-2.51-1.92-4.68-4.74-6.07-8.19
		C424.43,406.08,426.81,397.33,433.08,394.8z"/>
	<path fill="#FFFFFF" stroke="#000000" d="M285.01,244.23c4.87,21.4,1.891,40.33-6.66,42.28c-1.1,0.25-2.24,0.2-3.4-0.11
		c-2.19-0.59-4.46-2.13-6.67-4.46c7.33-5.47,12.96-19.81,13.68-36.85c0.18-4.4,0.03-8.65-0.42-12.64
		C282.88,236.1,284.061,240.06,285.01,244.23z"/>
	<path fill="#FFFFFF" stroke="#000000" d="M289.46,313.09c-1.69,1.75-4.01,2.24-5.181,1.101c-1.159-1.131-0.739-3.46,0.961-5.2
		c1.689-1.74,4.01-2.24,5.18-1.101C291.58,309.02,291.15,311.35,289.46,313.09z"/>
	<path fill="#FFFFFF" stroke="#000000" d="M307.029,332.23c0.141-0.23,0.301-0.48,0.471-0.73c11.609-16.71,5.88-33.88,5.88-33.88
		S307,316,299.55,320.76c-7.45,4.771-10.25-1.09-8.72-2.79c9.67-10.689,14.79-8.97,20.55-29.35c0,0,19.57,15.57,1.69,50.57
		C312.3,338.88,303.04,338.88,307.029,332.23z"/>
	<path fill="#FFFFFF" stroke="#000000" d="M307.029,332.23c0.021-6.011-7.479-11.471-7.479-11.471
		c7.45-4.76,13.83-23.14,13.83-23.14s5.729,17.17-5.88,33.88C307.33,331.75,307.17,332,307.029,332.23z"/>
	<path fill="#FFFFFF" stroke="#000000" d="M469.67,431.67c-15.06,27.26-44.88,6.41-51.5-3.33c-31.42-46.25,19-78.83,19-78.83
		c74.57-53.09,79.53-109.99,74.59-141.93c3.75-4.73,6.08-11.42,6.08-18.84c0-9.4-3.75-17.64-9.357-22.19
		c0.47-2.26,0.89-4.57,1.26-6.93c28.1,45.27,36.87,90.72,12.107,127.67c-4.92,7.34-11.407,13.11-17.407,19.37
		c-13.44,14.02-28.183,36.63-56.183,53.67c-3.46,2.11-12.438,12.7-0.5,16.5c-6.45-1.84-14.147-2.05-19.93,1.09
		c-10.561,5.73-16.18,19-12.46,32.1c5.8,20.48,20.05,25.052,26.03,25.65c4.22,0.41,9.09-1.32,10.59-2.34
		c10.09-6.79,12.85-16.6,7.21-28.6c-3.87-8.23-15.37-16.23-26.12-9.932c-6.271,2.53-8.65,11.28-5.313,19.54
		c1.393,3.45,3.563,6.271,6.07,8.19c-18.21-9.17-12.09-30.28-3.01-34.38c0.42-0.19,0.85-0.36,1.28-0.5v-0.011
		c11.72-4.47,20.22-1.27,22.56,0.19C474,400,474.97,422.07,469.67,431.67z"/>
	<path fill="#FFFFFF" stroke="#000000" d="M437.17,349.51c0,0-50.42,32.58-19,78.83c6.62,9.74,36.44,30.59,51.5,3.33
		c5.3-9.6,4.33-31.67-15-43.84c-2.34-1.46-10.84-4.66-22.56-0.19v0.011c-0.433,0.14-0.86,0.31-1.28,0.5
		c-9.08,4.1-15.2,25.21,3.01,34.38c0.01,0.02,0.021,0.027,0.03,0.02c3.5,2.683,7.647,3.62,11.3,2.15
		c6.271-2.53,8.65-11.28,5.313-19.54c-3.33-8.26-11.12-12.9-17.4-10.36c10.75-6.3,22.25,1.7,26.12,9.932
		c5.64,12,2.88,21.81-7.21,28.6c-1.5,1.02-6.37,2.75-10.59,2.34c-5.98-0.6-20.23-5.17-26.03-25.649
		c-3.721-13.101,1.898-26.37,12.46-32.101c5.78-3.14,13.479-2.93,19.93-1.09c0.04,0,0.07,0.01,0.103,0.03
		c1.05,0.319,2.26,0.6,3.64,0.81c17.33,2.66,48,23.33,27.271,58.66c-2.521,4.3-7.25,9.729-13.409,14.58
		c-0.011,0.01-0.021,0.01-0.03,0.02c-23.2,15.063-44.16-0.93-44.16-0.93c-34.81-32.19-19.67-77,0-98.67
		c85.771-94.49,73.98-130.38,67.69-139.84c2.8,2.07,6.02,3.25,9.449,3.25c5.21,0,9.96-2.72,13.448-7.16
		C516.7,239.52,511.74,296.42,437.17,349.51z"/>
	<path fill="#FFFFFF" stroke="#000000" d="M421.17,351.33c-19.67,21.67-34.811,66.479,0,98.67c0,0,20.96,15.99,44.16,0.93
		c-11.48,9.03-27.9,16-44.16,9.723c0,0-22.811-17.2-26.97-48.25c-0.271-2-0.46-4.052-0.563-6.16c-0.97-19.9,5.91-44.82,29.86-74.01
		c66-80.42,48.67-118.141,48.67-118.141c5.38-0.08,10.17-1.71,14.37-4.6c0.729,0.74,1.51,1.41,2.32,2
		C495.15,220.95,506.94,256.84,421.17,351.33z"/>
	<path fill="#FFFFFF" stroke="#000000" d="M498.31,209.54c8.633,0,15.633-9.31,15.633-20.8c0-11.49-7-20.8-15.633-20.8
		c-8.63,0-15.63,9.31-15.63,20.8C482.68,200.23,489.68,209.54,498.31,209.54z M498.31,214.74c-3.43,0-6.647-1.18-9.447-3.25
		c-0.813-0.59-1.593-1.26-2.32-2c-4.72-4.74-7.771-12.271-7.771-20.75c0-14.36,8.75-26,19.539-26c3.723,0,7.211,1.39,10.173,3.81
		c5.607,4.55,9.357,12.79,9.357,22.19c0,7.42-2.33,14.11-6.08,18.84C508.27,212.02,503.52,214.74,498.31,214.74z"/>
	<path fill="#FFFFFF" stroke="#000000" d="M488.54,188.74c0,7.18,4.37,13,9.77,13c5.393,0,9.771-5.82,9.771-13
		c0-7.18-4.38-13-9.771-13C492.91,175.74,488.54,181.56,488.54,188.74z M498.31,209.54c-8.63,0-15.63-9.31-15.63-20.8
		c0-11.49,7-20.8,15.63-20.8c8.633,0,15.633,9.31,15.633,20.8C513.94,200.23,506.94,209.54,498.31,209.54z"/>
	<path fill="#FFFFFF" stroke="#000000" d="M498.31,201.74c-5.397,0-9.77-5.82-9.77-13c0-7.18,4.37-13,9.77-13
		c5.393,0,9.771,5.82,9.771,13C508.08,195.92,503.7,201.74,498.31,201.74z"/>
	<path fill="#FFFFFF" stroke="#000000" d="M368.2,175.89c0,0,16.021-4.24,18.357-20.74c0,0,3.961,16.03-1.6,20.58
		c2.03-1.6,18.65-14.72,22.9-20.58c0,0-4.632,20.8-11.07,26.86c5.479-2.67,16.85-7.58,24.21-6.27c0,0-13.14,10.89-20.09,15.41
		c0,0,11.5-0.65,18,2.85c0,0-10.78,0.63-11.643,7.89c0,0,2.5,10.95,11.643,5.69c6.979-4.02-14,14.75-14,14.75
		C405.88,185.33,368.2,175.89,368.2,175.89z"/>
	<path fill="#FFFFFF" stroke="#000000" d="M364.27,180.22c20.882,2.34,37.23,23.96,37.23,50.28c0,12.68-3.8,24.28-10.07,33.15
		c-9.81-2.38-19.278-0.98-27.58,1.98c8.41-9.79,13.853-25.39,13.853-42.95C377.7,205.4,372.439,190.03,364.27,180.22z"/>
	<path fill="#FFFFFF" stroke="#000000" d="M343.29,276.35c-5.03-2.87-9.5-6.95-13.17-11.94c1.2,0.58,2.45,0.92,3.76,1.01
		c10.53,0.73,20.21-15.24,21.62-35.66c0.17-2.59,0.21-5.13,0.12-7.59c3.03-0.05,6.271-2.02,8.271-5.35
		c2.789-4.66,2.079-10.22-1.591-12.42c-2.568-1.54-5.898-1.03-8.63,1.02l-0.01-0.01c-3.01-9.79-8.46-16.36-14.96-16.66
		c-0.432-0.02-0.841-0.01-1.271,0.02c1.029-0.88,2.079-1.68,3.17-2.43c4.149-2.85,8.761-4.83,13.649-5.76
		c2.04-0.38,4.13-0.58,6.25-0.58c1.271,0,2.53,0.07,3.771,0.22c8.171,9.81,13.432,25.18,13.432,42.46
		c0,17.56-5.44,33.16-13.852,42.95c-7.841,2.8-14.641,6.99-19.698,10.7c-0.132,0.1-0.263,0.19-0.382,0.28
		C343.609,276.53,343.45,276.44,343.29,276.35z"/>
	<path fill="#FFFFFF" stroke="#000000" d="M355.62,222.17c-1.21,0.02-2.39-0.27-3.44-0.9c-3.67-2.2-4.38-7.76-1.59-12.42
		c0.84-1.4,1.9-2.56,3.08-3.43c2.73-2.05,6.062-2.56,8.63-1.02c3.671,2.2,4.38,7.76,1.591,12.42
		C361.891,220.15,358.65,222.12,355.62,222.17z"/>
	<path fill="#FFFFFF" stroke="#000000" d="M348.09,229.42c-1.14,1.84-3.09,2.69-4.35,1.9c-1.271-0.78-1.37-2.91-0.23-4.74
		c1.142-1.84,3.09-2.69,4.36-1.9C349.13,225.46,349.23,227.59,348.09,229.42z"/>
	<path fill="#FFFFFF" stroke="#000000" d="M335.939,240.38c-0.812,1.12-2.011,1.63-2.682,1.15c-0.67-0.49-0.56-1.79,0.25-2.91
		c0.813-1.12,2.011-1.63,2.682-1.15C336.859,237.96,336.75,239.26,335.939,240.38z"/>
	<path fill="#FFFFFF" stroke="#000000" d="M343.74,231.32c1.26,0.79,3.21-0.06,4.35-1.9c1.142-1.83,1.04-3.96-0.22-4.74
		c-1.271-0.79-3.22,0.06-4.36,1.9C342.37,228.41,342.471,230.54,343.74,231.32z M333.88,265.42c-1.31-0.09-2.56-0.43-3.76-1.01
		c-6.602-8.97-10.62-20.87-10.62-33.91c0-17.33,7.09-32.63,17.9-41.73c0.01,0,0.01,0,0.01,0h0.01h0.01
		c0.433-0.03,0.84-0.04,1.271-0.02c6.5,0.3,11.949,6.87,14.96,16.66l0.01,0.01c-1.18,0.87-2.239,2.03-3.08,3.43
		c-2.79,4.66-2.079,10.22,1.591,12.42c1.052,0.63,2.229,0.92,3.439,0.9c0.09,2.46,0.05,5-0.12,7.59
		C354.09,250.18,344.41,266.15,333.88,265.42z M333.26,241.53c0.67,0.479,1.87-0.03,2.683-1.15c0.81-1.12,0.92-2.42,0.25-2.91
		c-0.673-0.479-1.871,0.03-2.683,1.15C332.7,239.74,332.59,241.04,333.26,241.53z"/>
	<path fill="#FFFFFF" stroke="#000000" d="M262.95,251.64c0.2-0.82,0.77-1.38,1.26-1.26c0.49,0.12,0.72,0.89,0.52,1.71
		c-0.2,0.81-0.77,1.38-1.26,1.26C262.98,253.22,262.75,252.46,262.95,251.64z"/>
	<path fill="#FFFFFF" stroke="#000000" d="M267.08,245.18c-0.89-0.16-1.44-1.34-1.21-2.64s1.14-2.23,2.04-2.07
		c0.9,0.15,1.44,1.34,1.21,2.64C268.89,244.41,267.98,245.33,267.08,245.18z"/>
	<path fill="#FFFFFF" stroke="#000000" d="M269.58,237.55c-2.58-0.41-4.25-3.4-3.73-6.67c0.42-2.63,2.13-4.66,4.12-5.14
		c0.48-0.12,0.99-0.14,1.5-0.06c2.58,0.42,4.26,3.41,3.73,6.68c-0.33,2.07-1.46,3.77-2.9,4.63
		C271.47,237.49,270.53,237.7,269.58,237.55z"/>
	<path fill="#FFFFFF" stroke="#000000" d="M252.26,223.41c1.15-7.97,4.06-13.42,8.44-14.42c6.88-1.56,15.28,8.36,20.84,23.46
		c0.45,3.99,0.6,8.24,0.42,12.64c-0.72,17.04-6.35,31.38-13.68,36.85c-2.52-2.63-4.98-6.27-7.2-10.67c0.4,0.09,0.8,0.13,1.2,0.11
		c6.31-0.22,10.97-13.22,10.41-29.05c-0.07-1.83-0.19-3.61-0.39-5.34c1.44-0.86,2.57-2.56,2.9-4.63c0.53-3.27-1.15-6.26-3.73-6.68
		c-0.51-0.08-1.02-0.06-1.5,0.06c-2.33-7.18-5.89-11.78-9.71-11.65C256.97,214.2,254.14,217.78,252.26,223.41z"/>
	<path fill="#FFFFFF" stroke="#000000" d="M267.08,245.18c0.9,0.15,1.81-0.77,2.04-2.07c0.23-1.3-0.31-2.49-1.21-2.64
		c-0.9-0.16-1.81,0.771-2.04,2.07S266.19,245.02,267.08,245.18z M263.47,253.35c0.49,0.12,1.06-0.45,1.26-1.26
		c0.2-0.82-0.03-1.59-0.52-1.71c-0.49-0.12-1.06,0.44-1.26,1.26C262.75,252.46,262.98,253.22,263.47,253.35z M272.69,242.33
		c0.56,15.83-4.1,28.83-10.41,29.05c-0.4,0.02-0.8-0.02-1.2-0.11c-2.84-5.61-5.31-12.46-7.03-20c-1.33-5.88-2.08-11.57-2.27-16.77
		c-0.17-4.04,0-7.78,0.48-11.09c1.88-5.63,4.71-9.21,8-9.32c3.82-0.13,7.38,4.47,9.71,11.65c-1.99,0.48-3.7,2.51-4.12,5.14
		c-0.52,3.27,1.15,6.26,3.73,6.67c0.95,0.15,1.89-0.06,2.72-0.56C272.5,238.72,272.62,240.5,272.69,242.33z"/>
	<path fill="#FFFFFF" stroke="#000000" d="M251.71,234.5c-3.28,4.5-20.21-3-12.71-2.05c7.5,0.95,13.26-9.04,8.12-4.28
		c-5.13,4.77-13.62-2.54-13.62-2.54c3.5,1.13,8.85-3.46,8.85-3.46c-5.97,0.65-16.7-4.36-17.32-4.66
		c17.46,6.25,29.09-6.68,31.31-9.43c0.9-0.16,1.81-0.34,2.72-0.54l1.64,1.45c-4.38,1-7.29,6.45-8.44,14.42
		c-0.48,3.31-0.65,7.05-0.48,11.09H251.71z"/>
	<path fill="#FFFFFF" stroke="#000000" d="M368.2,175.89c0,0,37.68,9.44,36.71,46.44c0,0,20.979-18.77,14-14.75
		c-9.142,5.26-11.642-5.69-11.642-5.69c0.859-7.26,11.642-7.89,11.642-7.89c-6.5-3.5-18-2.85-18-2.85
		c6.949-4.52,20.09-15.41,20.09-15.41c-7.359-1.31-18.73,3.6-24.21,6.27c6.44-6.06,11.069-26.86,11.069-26.86
		c-4.25,5.86-20.869,18.98-22.899,20.58c5.56-4.55,1.601-20.58,1.601-20.58C384.221,171.65,368.2,175.89,368.2,175.89z
		 M284.279,314.19c1.171,1.14,3.49,0.649,5.181-1.101c1.69-1.74,2.12-4.07,0.96-5.2c-1.17-1.14-3.49-0.64-5.18,1.101
		C283.54,310.73,283.12,313.06,284.279,314.19z M260.7,208.99l-1.64-1.45c3-0.67,6.06-1.59,9.16-2.76
		c11.24,5.99,25.62,5.14,40.65-1.28c8.87-3.78,17.96-9.5,26.76-16.89c0.33,0.01,0.66,0.02,1,0.02c1.341,0,2.67-0.1,3.97-0.29
		c-1.09,0.75-2.14,1.55-3.17,2.43h-0.01h-0.01c0,0,0,0-0.01,0c-10.813,9.1-17.9,24.4-17.9,41.73c0,13.04,4.02,24.94,10.62,33.91
		c3.67,4.99,8.14,9.07,13.17,11.94c0.16,0.09,0.319,0.18,0.479,0.26c0.119-0.09,0.25-0.18,0.382-0.28
		c5.06-3.71,11.857-7.9,19.698-10.7c8.302-2.96,17.771-4.36,27.58-1.98c6.271-8.87,10.069-20.47,10.069-33.15
		c0-26.32-16.352-47.94-37.229-50.28c-1.239-0.15-2.5-0.22-3.771-0.22c-2.12,0-4.21,0.2-6.25,0.58
		c9.53-7.11,15.88-19.82,15.88-34.32c0-3.47-0.359-6.83-1.05-10.04v-0.01c0,0,25.398-17.84,66.58-11.19
		c0.438-2.97,0.938-6.03,1.49-9.15c0.64-3.57,1.367-7.23,2.18-10.95c1.54-7.01,3.398-14.21,5.67-21.39
		c5.91-18.73,14.55-37.3,27.17-51.87c27.86-32.17,48.03,63.25,37.57,127.96c-0.37,2.36-0.79,4.67-1.26,6.93
		c-2.963-2.42-6.45-3.81-10.173-3.81c-10.79,0-19.54,11.64-19.54,26c0,8.48,3.053,16.01,7.771,20.75c-4.2,2.89-8.99,4.52-14.37,4.6
		c0,0,17.33,37.72-48.67,118.141c-23.95,29.189-30.83,54.109-29.86,74.01c-7.33,4.01-14.89,14.76-14.89,14.76
		c-8.62-43.25-35.46-58.12-35.46-58.12c9.33-15.859,19.54-27.89,19.54-27.89c-15.149,9.5-30.22,9.03-39.729,7.18
		c-6.188-1.2-10.028-2.979-10.028-2.979c17.88-35-1.69-50.57-1.69-50.57c-5.76,20.38-10.88,18.66-20.55,29.35
		c-8.36,5.16-19.08,2.971-23.94-4.91c-4.86-7.869-2.02-18.43,6.35-23.6c1.04-0.64,2.07-1.21,1.71-3.06c1.16,0.31,2.3,0.36,3.4,0.11
		c8.549-1.95,11.53-20.88,6.66-42.28c-0.948-4.17-2.13-8.13-3.47-11.78C275.98,217.35,267.58,207.43,260.7,208.99z"/>
	<path fill="#FFFFFF" stroke="#000000" d="M435.66,125.02c-41.18-6.65-66.58,11.19-66.58,11.19c-0.09-0.43-0.18-0.86-0.29-1.28
		c0,0,0,0,0-0.01c0.03-0.71,1.989-37.29,68.36-19.05C436.6,118.99,436.1,122.05,435.66,125.02z"/>
	<path fill="#FFFFFF" stroke="#000000" d="M368.79,134.92c-38.66-66.59,70.54-30,70.54-30c-0.813,3.72-1.54,7.38-2.18,10.95
		C370.779,97.63,368.82,134.21,368.79,134.92z"/>
	<path fill="#FFFFFF" stroke="#000000" d="M367.98,137.72c-4.66,6.23-22.882,28.33-27.58,0.61
		c-13.593-80.11,88.39-66.88,90.067-66.65c4.933,3.53,9.78,7.47,14.53,11.85c-2.27,7.18-4.13,14.38-5.67,21.39
		c0,0-109.2-36.59-70.54,30c0,0.01,0,0.01,0,0.01c0.109,0.42,0.2,0.85,0.29,1.28v0.01h-0.011c-0.17,0.11-0.529,0.62-1.039,1.44
		C368.01,137.68,368,137.7,367.98,137.72z"/>
	<path fill="#FFFFFF" stroke="#000000" d="M367.98,137.72c-5.643,8.87-29.791,52.4-45.853,21.61
		c-30.278-58.04,34.29-101.6,51.5-111.9c19.15,3.47,38.5,11.05,56.84,24.25c-1.68-0.23-103.66-13.46-90.067,66.65
		C345.1,166.05,363.32,143.95,367.98,137.72z"/>
	<path fill="#FFFFFF" stroke="#000000" d="M373.63,47.43c-17.21,10.3-81.78,53.86-51.5,111.9c16.063,30.79,40.21-12.74,45.852-21.61
		c0.021-0.02,0.028-0.04,0.051-0.06c0.608-0.82,0.979-1.36,1.039-1.44h0.011c0.688,3.21,1.05,6.57,1.05,10.04
		c0,14.5-6.35,27.21-15.88,34.32c-4.89,0.93-9.5,2.91-13.649,5.76c-1.301,0.19-2.631,0.29-3.971,0.29c-0.34,0-0.67-0.01-1-0.02
		c0.03-0.03,0.062-0.05,0.08-0.07c-0.24,0.01-0.479,0.02-0.72,0.04c-8.091,0.38-15.54-1.36-21.852-5.48
		C287.3,164.22,272.741,120.94,345.8,45.11C354.939,45.01,364.26,45.73,373.63,47.43z"/>
	<path fill="#FFFFFF" stroke="#000000" d="M345.8,45.11c-73.06,75.83-58.5,119.11-32.659,135.99c6.312,4.12,13.761,5.86,21.852,5.48
		c0.21,0.01,0.43,0.02,0.64,0.03c-8.8,7.39-17.89,13.11-26.76,16.89c-101.37-36,19.8-156.93,19.8-156.93l-0.04-0.35
		C334.26,45.55,339.99,45.17,345.8,45.11z"/>
	<path fill="#FFFFFF" stroke="#000000" d="M328.67,46.57c0,0-121.17,120.93-19.8,156.93c-15.03,6.42-29.41,7.27-40.65,1.28
		c-0.85-0.45-1.69-0.94-2.5-1.47c-25.84-16.89-22.71-67.42,6.99-112.87c9.94-15.21,20.56-29.21,31.95-39.6
		c7.68-2.05,15.71-3.64,23.97-4.62L328.67,46.57z"/>
	<path fill="#FFFFFF" stroke="#000000" d="M272.71,90.44c-29.7,45.45-32.83,95.98-6.99,112.87c0.81,0.53,1.65,1.02,2.5,1.47
		c-3.1,1.17-6.16,2.09-9.16,2.76c-0.91,0.2-1.82,0.38-2.72,0.54c-3.64,0.63-7.18,0.87-10.59,0.69
		c-53.67-75.28,38.29-150.55,39.41-151.46c0.01-0.01,0.01-0.01,0.01-0.01c6.17-2.46,12.689-4.64,19.49-6.46
		C293.27,61.23,282.65,75.23,272.71,90.44z"/>
	<path fill="#FFFFFF" stroke="#000000" d="M285.16,57.31c-1.12,0.91-93.08,76.18-39.41,151.46c-6.41-0.31-12.33-2.09-17.49-5.46
		c-25.84-16.89-27.49-69.79,6.98-112.87C244.29,79.13,262.27,66.39,285.16,57.31z"/>
</g>
<g id="LINE">
	<path fill="none" stroke="#000000" d="M445,127.524c0,0,15.928-81.864,37.68-76.684C504.432,56.02,495.5,157,495.5,157"/>
	<path fill="none" stroke="#000000" d="M478.77,75.5c0,0,11.594,36,3.91,66.5"/>
	<path fill="none" stroke="#000000" d="M405.334,302.396C380.167,323.5,362.83,334.99,362.83,334.99"/>
	<path fill="none" stroke="#000000" d="M258,501c0,0,7-2.17,14-13.335"/>
	<path fill="none" stroke="#000000" d="M297.5,523c0,0,1.273-11,8.014-22"/>
	<path fill="none" stroke="#000000" d="M356.5,512c0,0-0.068,10.697,1.51,15.49"/>
	<path fill="none" stroke="#000000" d="M380.5,515.501c0,0,1.21-6.001-5.32-12.001"/>
	<path fill="none" stroke="#000000" d="M394.2,552.523c0,0,3.3-11.523,15.8-10.523"/>
	<path fill="none" stroke="#000000" d="M316.5,637c0,0,25,15.34,33.5-6.83"/>
	<path fill="none" stroke="#000000" d="M202.5,590c0,0,10.5,10,20.5,4"/>
	<path fill="none" stroke="#000000" d="M269.84,595c0,0,7.16-0.5,10.16-5"/>
	<path fill="none" stroke="#000000" d="M207.5,460.5c0,0,4.5-6,12.5-6"/>
	<path fill="none" stroke="#000000" d="M369.859,607.84c0,0,4.141,33.66,10.641,44.66"/>
</g>
</svg>
