<?xml version="1.0" encoding="utf-8"?>
<!-- Generator: Adobe Illustrator 15.0.0, SVG Export Plug-In . SVG Version: 6.00 Build 0)  -->
<!DOCTYPE svg PUBLIC "-//W3C//DTD SVG 1.1//EN" "http://www.w3.org/Graphics/SVG/1.1/DTD/svg11.dtd">
<svg version="1.1" id="Layer_x5F_www.ABC-color.com"
	 xmlns="http://www.w3.org/2000/svg" xmlns:xlink="http://www.w3.org/1999/xlink" x="0px" y="0px" width="822px" height="567px"
	 viewBox="0 0 822 567" enable-background="new 0 0 822 567" xml:space="preserve">
<rect display="none" fill="#FFFFFF" width="822" height="567"/>
<path fill="#FFFFFF" stroke="#000000" stroke-width="2" d="M329,301c1.7,0,3,1.3,3,3s-1.3,3-3,3s-3-1.3-3-3S327.3,301,329,301z"/>
<path fill="#FFFFFF" stroke="#000000" stroke-width="2" d="M337.8,283c3.2,0,5.8,2.6,5.8,5.8s-2.6,5.8-5.8,5.8s-5.8-2.6-5.8-5.8
	S334.6,283,337.8,283z"/>
<circle fill="#FFFFFF" stroke="#000000" stroke-width="2" cx="352" cy="306" r="5.5"/>
<circle fill="#FFFFFF" stroke="#000000" stroke-width="2" cx="360.5" cy="283.5" r="4"/>
<path fill="#FFFFFF" stroke="#000000" stroke-width="2" d="M377.3,285.5c2.602,0,4.8,2.1,4.8,4.8s-2.1,4.8-4.8,4.8s-4.8-2.1-4.8-4.8
	S374.6,285.5,377.3,285.5z"/>
<path fill="#FFFFFF" stroke="#000000" stroke-width="2" d="M393.3,270.5c2.4,0,4.3,1.9,4.3,4.3c0,2.4-1.898,4.3-4.3,4.3
	c-2.398,0-4.3-1.9-4.3-4.3C389,272.4,390.9,270.5,393.3,270.5z"/>
<path fill="#FFFFFF" stroke="#000000" stroke-width="2" d="M404.3,259.5c2.4,0,4.3,1.9,4.3,4.3c0,2.4-1.898,4.3-4.3,4.3
	c-2.398,0-4.3-1.9-4.3-4.3C400,261.4,401.9,259.5,404.3,259.5z"/>
<circle fill="#FFFFFF" stroke="#000000" stroke-width="2" cx="397.5" cy="224.5" r="4"/>
<path fill="#FFFFFF" stroke="#000000" stroke-width="2" d="M411.3,224c2.9,0,5.3,3.1,5.3,7s-2.3,7-5.3,7c-2.898,0-5.3-3.1-5.3-7
	S408.4,224,411.3,224z"/>
<path fill="#FFFFFF" stroke="#000000" stroke-width="2" d="M418,252c3,0,5.5,2.7,5.5,6s-2.5,6-5.5,6s-5.5-2.7-5.5-6S415,252,418,252
	z"/>
<circle fill="#FFFFFF" stroke="#000000" stroke-width="2" cx="434" cy="273.5" r="5"/>
<path fill="#FFFFFF" stroke="#000000" stroke-width="2" d="M412,277c3.9,0,7,3.1,7,7c0,3.9-3.1,7-7,7s-7-3.1-7-7
	C405,280.1,408.1,277,412,277z"/>
<circle fill="#FFFFFF" stroke="#000000" stroke-width="2" cx="487.8" cy="347.3" r="5.3"/>
<path fill="#FFFFFF" stroke="#000000" stroke-width="2" d="M483.5,363.5c3.3,0,6,2.7,6,6s-2.7,6-6,6s-6-2.7-6-6
	S480.2,363.5,483.5,363.5z"/>
<path fill="#FFFFFF" stroke="#000000" stroke-width="2" d="M452.3,369c2.602,0,4.8,2.1,4.8,4.8s-2.1,4.8-4.8,4.8s-4.8-2.1-4.8-4.8
	S449.6,369,452.3,369z"/>
<circle fill="#FFFFFF" stroke="#000000" stroke-width="2" cx="445" cy="355" r="5"/>
<path fill="#FFFFFF" stroke="#000000" stroke-width="2" d="M460.3,333c3.2,0,5.8,2.6,5.8,5.8s-2.6,5.8-5.8,5.8s-5.8-2.6-5.8-5.8
	S457.1,333,460.3,333z"/>
<circle fill="#FFFFFF" stroke="#000000" stroke-width="2" cx="458.3" cy="307.3" r="4.3"/>
<circle fill="#FFFFFF" stroke="#000000" stroke-width="2" cx="444.8" cy="323.3" r="5.3"/>
<circle fill="#FFFFFF" stroke="#000000" stroke-width="2" cx="425.8" cy="336.3" r="4.3"/>
<path fill="#FFFFFF" stroke="#000000" stroke-width="2" d="M408.5,329.5c3.3,0,6,2.7,6,6s-2.7,6-6,6s-6-2.7-6-6
	S405.2,329.5,408.5,329.5z"/>
<circle fill="#FFFFFF" stroke="#000000" stroke-width="2" cx="422.3" cy="366.8" r="6.3"/>
<circle fill="#FFFFFF" stroke="#000000" stroke-width="2" cx="401.5" cy="376.5" r="5"/>
<circle fill="#FFFFFF" stroke="#000000" stroke-width="2" cx="412.5" cy="396" r="5"/>
<circle fill="#FFFFFF" stroke="#000000" stroke-width="2" cx="401" cy="413.5" r="4"/>
<circle fill="#FFFFFF" stroke="#000000" stroke-width="2" cx="385.3" cy="395.8" r="5.3"/>
<circle fill="#FFFFFF" stroke="#000000" stroke-width="2" cx="383.8" cy="354.3" r="5.3"/>
<path fill="#FFFFFF" stroke="#000000" stroke-width="2" d="M367.5,335c3.3,0,6,2.7,6,6s-2.7,6-6,6s-6-2.7-6-6S364.2,335,367.5,335z"
	/>
<circle fill="#FFFFFF" stroke="#000000" stroke-width="2" cx="348.8" cy="354.3" r="6.3"/>
<path fill="#FFFFFF" stroke="#000000" stroke-width="2" d="M368.8,378.5c2.602,0,4.8,2.1,4.8,4.8s-2.1,4.8-4.8,4.8s-4.8-2.1-4.8-4.8
	S366.1,378.5,368.8,378.5z"/>
<circle fill="#FFFFFF" stroke="#000000" stroke-width="2" cx="356.5" cy="409" r="5"/>
<path fill="#FFFFFF" stroke="#000000" stroke-width="2" d="M321.8,406c2.4,0,4.3,1.9,4.3,4.3c0,2.4-1.898,4.3-4.3,4.3
	c-2.398,0-4.3-1.898-4.3-4.3C317.5,407.9,319.4,406,321.8,406z"/>
<circle fill="#FFFFFF" stroke="#000000" stroke-width="2" cx="334.3" cy="382.8" r="6.8"/>
<path fill="#FFFFFF" stroke="#000000" stroke-width="2" d="M317.3,337c4,0,7.3,3.3,7.3,7.3s-3.3,7.3-7.3,7.3s-7.3-3.3-7.3-7.3
	S313.3,337,317.3,337z"/>
<circle fill="#FFFFFF" stroke="#000000" stroke-width="2" cx="306.5" cy="361" r="5"/>
<path fill="#FFFFFF" stroke="#000000" stroke-width="2" d="M285.3,412c2.4,0,4.3,1.9,4.3,4.3c0,2.4-1.9,4.3-4.3,4.3
	c-2.4,0-4.3-1.898-4.3-4.3C281,413.9,282.9,412,285.3,412z"/>
<circle fill="#FFFFFF" stroke="#000000" stroke-width="2" cx="299.8" cy="388.8" r="6.8"/>
<path fill="#FFFFFF" stroke="#000000" stroke-width="2" d="M359.5,462.8c-1.2-1.398-4-5.6-4-15c0-1.898,0.1-2.8,0.1-3.1
	c0.2,0.398,0.302,0.7,0.302,0.7s-0.2-1.4-0.302-0.7c-1.698-3.4-9.5-19.2-8.6-23.602c4.5,0.5,9.2,1.4,14.1,3.102
	c0,0,5.802,0.3,13.9,0.2v0.698c0,0,2.8,28.9,15.1,32.5c0,0-10,16-7.6,16.5c0,0-19,8.5-24.3,8c0,0-15.5-0.198-15.2,21h-1.1
	L327.6,499.7c0,0-4.6-31,30.802-35.8L359.5,462.8z"/>
<path fill="#FFFFFF" stroke="#000000" stroke-width="2" d="M435.8,396.5l0.3,0.5c-0.898,2.7-1.8,5.3-2.698,7.8
	c-6.102,17.3-11.602,28.9-16.102,36.5l0.3,0.2l4.5,37.4c0,0,0.302,1.698,0.802,3.8c3.198,13.2-0.802,14.7-17.302,17.2
	c-0.6,0.1-6.198,1.898-7,2c-27.5,3-55.5,1.5-55.5,1.5c0-0.2,0-0.302,0-0.5c-0.3-21.2,15.2-21,15.2-21c5.3,0.5,24.3-8,24.3-8
	c-2.398-0.5,7.602-16.5,7.602-16.5C377.8,453.9,375,425,375,425v-0.7c15.1-0.3,38.4-2,47.8-10.2C422.8,414.1,424.3,403,435.8,396.5z
	"/>
<path fill="#FFFFFF" stroke="#000000" stroke-width="2" d="M614.7,405c9.6-25.2,22.398-75.9,7.8-145.5l0.1-0.3
	c1.5,0.3,3,0.5,4.602,0.5c2.1,0,4.1-0.3,6-0.8c22.5,47.6,12.8,110,3.8,146.1c-4.4,17.8-8.6,29.2-8.6,29.2
	c-85,101.5-142.2,7.2-159.7-29.2c-3-6.3-4.9-10.8-5.5-12.4c6.3,0.301,16.8-0.199,23.8-6.3c0.7,2,3.3,9.5,8,18.7
	c15.1,29.7,51.4,77.4,111.3,17.9C606.4,422.9,610.2,416.7,614.7,405z"/>
<path fill="#FFFFFF" stroke="#000000" stroke-width="2" d="M623,218.5l0.1,0.7c-4.1,0.7-7.8,2.5-10.698,5l-0.9-0.6
	c0,0-15.8-24.5-4.5-50.3C607,173.2,620.5,203.4,623,218.5z"/>
<path fill="#FFFFFF" stroke="#000000" stroke-width="2" d="M689.5,268c0,0-43.4,0.3-53.3-10.1c2.3-1,4.398-2.3,6.2-3.9l0,0
	C686.5,245.2,689.5,268,689.5,268z"/>
<path fill="#FFFFFF" stroke="#000000" stroke-width="2" d="M704.5,223.5c0,0-1.8,42.6-15,44.5c0,0-3-22.8-47-14l0,0
	c4.2-3.7,6.7-8.9,6.7-14.7c0-4.8-1.8-9.2-4.8-12.7l0.1-0.1C644.5,226.5,715.8,183.3,704.5,223.5z"/>
<path fill="#FFFFFF" stroke="#000000" stroke-width="2" d="M636.2,257.9c-1,0.4-2,0.8-3,1c-1.9,0.5-3.9,0.8-6,0.8
	c-1.602,0-3.102-0.2-4.602-0.5c-2.698-0.5-5.1-1.5-7.3-2.8c-2-1.2-3.8-2.7-5.3-4.4c-3-3.5-4.8-7.9-4.8-12.7
	c0-4.3,1.5-8.4,3.898-11.7c0.9-1.3,2.102-2.4,3.302-3.5c3-2.5,6.6-4.3,10.698-5c1.302-0.2,2.7-0.4,4.102-0.4c7,0,13.2,3,17.2,7.8
	c3,3.5,4.8,7.9,4.8,12.7c0,5.8-2.602,11-6.7,14.7C640.7,255.6,638.5,256.9,636.2,257.9z"/>
<path fill="#FFFFFF" stroke="#000000" stroke-width="2" d="M610,252c1.5,1.7,3.3,3.2,5.3,4.4c-5.7,8.3-21.898,16.9-23.1,17.5
	c0.398-0.3-6.9,3.6-24.102,0.5c-23.3-4.4-20-19.5-20-19.5c0.602-0.4,1.302-1,1.9-1.7c8.4-5.4,32.1-2.8,32.1-2.8
	C596.1,248.1,609.2,251.8,610,252z"/>
<path fill="#FFFFFF" stroke="#000000" stroke-width="2" d="M609,227.5L609,227.5c-2.4,3.4-3.8,7.4-3.8,11.7c0,4.8,1.8,9.3,4.8,12.7
	c-0.8-0.2-13.9-3.9-28-1.5c0,0-23.8-2.6-32.1,2.8c8.198-9.3,16.3-43,16.3-43C578,188.1,609,228,609,227.5z"/>
<path fill="#FFFFFF" stroke="#000000" stroke-width="2" d="M262.7,58.4c0,1.1-0.5,2.2-1.7,3.1c-8.1,6.3-3,4.5-12,9
	c-4.2,2.1-7.7,0.8-9.6-2.3c-1-1.6-1.5-3.7-1.5-6c0-6.8,5.8-12.3,12.9-12.3C256.3,49.9,262.6,54.4,262.7,58.4z"/>
<path fill="#FFFFFF" stroke="#000000" stroke-width="2" d="M412.7,109.7c124.5-66.7,99.398,17,99.398,17l-0.1-1.2
	c-18.2,28.3-84.8,27.6-84.8,27.6C395.7,142.4,412.7,109.7,412.7,109.7z"/>
<path fill="#FFFFFF" stroke="#000000" stroke-width="2" d="M486.9,55L486.9,55c-30.7-1.5-65.7,18.2-79.5,26.9l0,0
	c-7.7-7.3-17.7-11.7-28.602-14.2v-0.1C378.8,67.5,466.2-22.4,486.9,55z"/>
<path fill="#FFFFFF" stroke="#000000" stroke-width="2" d="M373.9,90.3c11.1,0.5,19.698,10,19.198,21.3
	c-0.398,10.2-5.6,17.8-15.3,18.9l-1.398-1.2c-1.5-2-3.102-4-4.9-5.8c6.5,0,11.9-4.6,12.1-10.5c0.302-6.1-5-11.2-11.8-11.5
	s-12.5,4.4-12.7,10.5l-0.6,0.9c-1.8-1.2-3.7-2.2-5.6-3.2C353.5,98.5,362.9,89.9,373.9,90.3z"/>
<path fill="#FFFFFF" stroke="#000000" stroke-width="2" d="M371.4,109.2c1.6,0,3,1.5,3,3.3s-1.4,3.3-3,3.3c-1.7,0-3-1.5-3-3.3
	C368.4,110.6,369.7,109.2,371.4,109.2z"/>
<path fill="#FFFFFF" stroke="#000000" stroke-width="2" d="M371.8,101.4c6.8,0.3,12,5.4,11.8,11.5c-0.198,5.9-5.6,10.5-12.1,10.5
	c-2.8-2.9-5.9-5.6-9.3-8.1c-1.2-0.9-2.4-1.7-3.7-2.5l0.6-0.9C359.4,105.8,365.1,101.1,371.8,101.4z M374.4,112.4
	c0-1.8-1.4-3.3-3-3.3c-1.7,0-3,1.5-3,3.3c0,1.8,1.3,3.3,3,3.3C373,115.7,374.4,114.2,374.4,112.4z"/>
<path fill="#FFFFFF" stroke="#000000" stroke-width="2" d="M371.5,123.4c1.8,1.9,3.4,3.8,4.9,5.8l1.398,1.2
	c9.7-1.1,14.9-8.6,15.3-18.9c0.5-11.3-8.1-20.8-19.198-21.3c-11-0.5-20.4,8.2-20.9,19.3c1.9,1,3.7,2,5.6,3.2
	c1.2,0.8,2.5,1.6,3.7,2.5C365.6,117.8,368.8,120.5,371.5,123.4z M263.3,58.3c0,0,4.1,16.8,32.4,14.3c0,0,46.398-13.4,83-4.9
	c10.898,2.5,20.898,6.9,28.6,14.2l0,0c13.8-8.6,48.8-28.4,79.5-26.8C505.4,56,522.4,64.7,532.1,88.4c0,0,19.5,71.1-101.3,84.9
	c0,0-8.7,17.5-25.398,31.7c-17.2,14.6-42.9,25.6-76.302,10c-20.8-9.7-44.6-29.7-71.2-65.6c0,0-1.3-8.2,6.3-9.4l58,5.4
	c-2-0.5-66.9-18.1-71.2-24.3c0,0-11.3-5-11.3-15.7c0,0,2.8-31.5-0.4-37.1l0,0c1.9,3.1,5.4,4.4,9.6,2.3c9-4.5,3.9-2.7,12-9
	c1.2-0.9,1.7-2,1.7-3.1L263.3,58.3z M512.1,126.7c0,0,25.2-83.6-99.398-17c0,0-17,32.7,14.5,43.4c0,0,66.6,0.7,84.8-27.6
	L512.1,126.7z"/>
<path fill="#FFFFFF" stroke="#000000" stroke-width="2" d="M308.5,312c0,0-0.2,0.1-0.3,0.3l-0.4-0.5c4.7-3.3,6.9-15.899,6.9-15.899
	l0.1-0.699l1.8-20.1l0.102-0.7c3.7,0.7,5.398,0.7,5.398,0.7c93-3.5,74-35,74-35c-3-25-74.898-2.1-72.5-6.5
	c8.4-15.9,6.2-18.2,5.602-18.5l0.1-0.1c33.4,15.6,59.102,4.6,76.3-10c13.9,5.4,44.7,78.3,45.102,79.101
	c-6.4-5.101-10.9-3.201-14.7,7.5c0,0-21.8-4.399-27.7,10.899c0,0-19.3-4.8-23.3,11.2c0,0-22-6.801-30.7,6.5c0,0-11.7-9-22.3,1.3
	c-0.7,0.7-5.8-9.101-16.5-2.8C315.5,318.5,316,305.9,308.5,312L308.5,312z M439,273.5c0-2.8-2.2-5-5-5s-5,2.2-5,5s2.2,5,5,5
	S439,276.3,439,273.5z M423.5,258c0-3.3-2.5-6-5.5-6s-5.5,2.7-5.5,6s2.5,6,5.5,6S423.5,261.3,423.5,258z M419,284c0-3.9-3.1-7-7-7
	s-7,3.1-7,7c0,3.9,3.1,7,7,7S419,287.9,419,284z M416.5,231c0-3.9-2.3-7-5.3-7c-2.9,0-5.3,3.1-5.3,7s2.398,7,5.3,7
	C414.2,238,416.5,234.9,416.5,231z M408.5,263.8c0-2.4-1.9-4.3-4.3-4.3c-2.4,0-4.3,1.9-4.3,4.3c0,2.4,1.898,4.3,4.3,4.3
	C406.6,268.1,408.5,266.1,408.5,263.8z M401.5,224.5c0-2.2-1.8-4-4-4s-4,1.8-4,4s1.8,4,4,4S401.5,226.7,401.5,224.5z M397.5,274.8
	c0-2.3-1.9-4.3-4.3-4.3c-2.4,0-4.3,1.9-4.3,4.3c0,2.4,1.898,4.3,4.3,4.3C395.6,279.1,397.5,277.1,397.5,274.8z M382,290.3
	c0-2.6-2.1-4.8-4.8-4.8s-4.8,2.1-4.8,4.8s2.1,4.8,4.8,4.8S382,292.9,382,290.3z M364.5,283.5c0-2.2-1.8-4-4-4s-4,1.8-4,4s1.8,4,4,4
	S364.5,285.7,364.5,283.5z M357.5,306c0-3-2.5-5.5-5.5-5.5s-5.5,2.5-5.5,5.5s2.5,5.5,5.5,5.5S357.5,309,357.5,306z M343.5,288.8
	c0-3.2-2.6-5.8-5.8-5.8s-5.8,2.6-5.8,5.8s2.6,5.8,5.8,5.8S343.5,291.9,343.5,288.8z M332,304c0-1.7-1.3-3-3-3s-3,1.3-3,3s1.3,3,3,3
	S332,305.7,332,304z"/>
<path fill="#FFFFFF" stroke="#000000" stroke-width="2" d="M347.1,421c-17.5-1.9-30.698,3.6-30.698,3.6
	c-34,1.302-55.7-1.698-55.7-1.698c2.3-5.302,5-11.4,7.9-18c12.6-28.9,28.9-67.001,36.2-84.102l0.8,0.101c0,0,3.801-2.5,7.5,3.5
	c0,0,8.302-3.5,15.7,5.801c0,0,18.3-8,26,0.699c0,0,18.8-17,31.8-2.5c0,0,15.2-22.699,29.5-11c0,0,11.802-20.199,27-15
	c0,0,2-16,16-12l1-0.101c16.302,16.3,41.102,50.8,46,60.601c3,6,13.2,12.199,13.5,13c5.2,12.801-25.5,9.5-25.5,9.5
	c-1,5.801-3.6,10-6.898,12.801c-7.102,6.1-17.602,6.6-23.8,6.3c-3.2-0.2-5.302-0.601-5.302-0.601
	c-9.898-0.399-17.1,1.601-22.198,4.501c-11.5,6.5-13,17.5-13,17.5c-9.4,8.198-32.7,10-47.802,10.198
	C367,424.2,361.2,423.9,361.2,423.9C356.3,422.5,351.5,421.5,347.1,421z M493,347.3c0-2.899-2.3-5.3-5.3-5.3s-5.3,2.3-5.3,5.3
	s2.3,5.3,5.3,5.3S493,350.2,493,347.3z M489.5,369.5c0-3.3-2.7-6-6-6s-6,2.7-6,6s2.7,6,6,6S489.5,372.8,489.5,369.5z M466,338.8
	c0-3.2-2.6-5.8-5.8-5.8s-5.8,2.6-5.8,5.8s2.6,5.8,5.8,5.8S466,341.9,466,338.8z M462.5,307.3c0-2.3-1.9-4.3-4.3-4.3
	c-2.4,0-4.3,1.9-4.3,4.3c0,2.4,1.898,4.3,4.3,4.3C460.6,311.6,462.5,309.6,462.5,307.3z M457,373.8c0-2.6-2.1-4.8-4.8-4.8
	s-4.8,2.1-4.8,4.8s2.1,4.8,4.8,4.8S457,376.4,457,373.8z M450,355c0-2.8-2.2-5-5-5s-5,2.2-5,5s2.2,5,5,5S450,357.8,450,355z
	 M450,323.3c0-2.899-2.3-5.3-5.3-5.3s-5.3,2.3-5.3,5.3s2.3,5.3,5.3,5.3S450,326.2,450,323.3z M430,336.3c0-2.3-1.9-4.3-4.3-4.3
	c-2.4,0-4.3,1.9-4.3,4.3c0,2.4,1.898,4.3,4.3,4.3C428.1,340.6,430,338.6,430,336.3z M428.5,366.8c0-3.5-2.8-6.3-6.3-6.3
	s-6.3,2.8-6.3,6.3s2.8,6.3,6.3,6.3S428.5,370.2,428.5,366.8z M417.5,396c0-2.8-2.2-5-5-5s-5,2.2-5,5s2.2,5,5,5
	S417.5,398.8,417.5,396z M414.5,335.5c0-3.3-2.7-6-6-6s-6,2.7-6,6s2.7,6,6,6S414.5,338.8,414.5,335.5z M406.5,376.5c0-2.8-2.2-5-5-5
	s-5,2.2-5,5s2.2,5,5,5S406.5,379.3,406.5,376.5z M405,413.5c0-2.2-1.8-4-4-4s-4,1.8-4,4s1.8,4,4,4S405,415.7,405,413.5z
	 M390.5,395.8c0-2.899-2.4-5.3-5.3-5.3c-2.9,0-5.3,2.3-5.3,5.3s2.398,5.3,5.3,5.3C388.1,401.1,390.5,398.7,390.5,395.8z M389,354.3
	c0-2.899-2.4-5.3-5.3-5.3c-2.9,0-5.3,2.3-5.3,5.3s2.398,5.3,5.3,5.3C386.6,359.6,389,357.2,389,354.3z M373.5,383.3
	c0-2.6-2.1-4.8-4.8-4.8s-4.8,2.1-4.8,4.8s2.1,4.8,4.8,4.8S373.5,385.9,373.5,383.3z M373.5,341c0-3.3-2.7-6-6-6s-6,2.7-6,6
	s2.7,6,6,6S373.5,344.3,373.5,341z M361.5,409c0-2.8-2.2-5-5-5s-5,2.2-5,5s2.2,5,5,5S361.5,411.8,361.5,409z M355,354.3
	c0-3.5-2.8-6.3-6.3-6.3s-6.3,2.8-6.3,6.3s2.8,6.3,6.3,6.3S355,357.7,355,354.3z M341,382.8c0-3.7-3-6.8-6.8-6.8s-6.8,3-6.8,6.8
	s3,6.8,6.8,6.8S341,386.5,341,382.8z M326,410.3c0-2.3-1.9-4.3-4.3-4.3c-2.4,0-4.3,1.9-4.3,4.3c0,2.4,1.898,4.3,4.3,4.3
	C324.1,414.6,326,412.6,326,410.3z M324.5,344.3c0-4-3.3-7.3-7.3-7.3s-7.3,3.3-7.3,7.3s3.3,7.3,7.3,7.3S324.5,348.3,324.5,344.3z
	 M311.5,361c0-2.8-2.2-5-5-5s-5,2.2-5,5s2.2,5,5,5S311.5,363.8,311.5,361z M306.5,388.8c0-3.7-3-6.8-6.8-6.8c-3.8,0-6.8,3-6.8,6.8
	s3,6.8,6.8,6.8C303.5,395.6,306.5,392.5,306.5,388.8z M289.5,416.3c0-2.3-1.9-4.3-4.3-4.3c-2.4,0-4.3,1.9-4.3,4.3
	c0,2.4,1.9,4.3,4.3,4.3C287.6,420.6,289.5,418.6,289.5,416.3z"/>
<path fill="#FFFFFF" stroke="#000000" stroke-width="2" d="M313,324.5c-3.7-6-7.5-3.5-7.5-3.5l-0.8-0.1c2.3-5.4,3.7-8.7,3.8-8.9l0,0
	c7.5-6.1,7,6.5,7,6.5c10.7-6.3,15.8,3.5,16.5,2.8c10.7-10.3,22.3-1.3,22.3-1.3c8.7-13.3,30.7-6.5,30.7-6.5c4-16,23.3-11.2,23.3-11.2
	C414.2,287,436,291.4,436,291.4c3.8-10.7,8.3-12.5,14.7-7.5l0,0c1.7,1.3-1.5-2.3,1.3-0.5c2.3,1.5,5,3.9,8,6.9l-1,0.101
	c-14-4-16,12-16,12c-15.2-5.199-27,15-27,15c-14.3-11.699-29.5,11-29.5,11c-13-14.5-31.8,2.5-31.8,2.5c-7.7-8.699-26-0.699-26-0.699
	C321.3,321,313,324.5,313,324.5z"/>
<path fill="#FFFFFF" stroke="#000000" stroke-width="2" d="M216.5,254.5c-1.1-4.3-2-8-1-8c1.2,0.1,2.4,0.5,3.5,1.2
	c7.6,4.8,12.8,22.4,15.5,22.7c38,4.3,50.5-4,50.5-4l0.1-0.2c16.1,4.9,26.1,7,31.6,8l-0.102,0.7l-1.8,20.1l-0.6-0.1
	c0,0-31.2,6.898-51.9,4.6c-12.8-1.4-30.7-5.3-30.7-5.3c-8.6-2.101-18.3-0.7-21.7-2.7c-0.5-0.3-21.2-4.7-21.3-6
	c-0.7-6.7,20.2-0.8,20.4-2.2c0.2-1.4-20.6-3.5-18.5-7.9c2.1-4.5,18.9,1.8,18.8,1.1c-0.1-1.4-18.6-6.4-18.8-11c0-0.7,0.4-1.4,1.4-2.1
	c1.5-1,18.3,8.2,19,6.5c1.1-2.6-21.4-8.5-19.8-15.6c0.6-2.5,11.4,2.9,19.4,7.2c4.7,2.6,8.4,4.7,8.4,4.7
	C220,266.8,218,260.2,216.5,254.5z"/>
<path fill="#FFFFFF" stroke="#000000" stroke-width="2" d="M213.7,194.4c-3.5-4.6-6.4-8.8-5.7-9.4c0,0-1.2-4.4,4.1-2.7
	c3.1,1,8.4,4,17.4,11.2c0,0,31,23.1,36,33.8c0,0,25.9,8.7,58,6.2c-2.4,4.4,69.5-18.5,72.5,6.5c0,0,19,31.5-74,35
	c0,0-1.6-0.1-5.4-0.7c-5.5-1-15.5-3.1-31.6-8c-8.8-2.7-19.4-6.1-32.1-10.7c0,0-22-4.1-33.5-11.7c-4.2-2.8-6.9-6-6.8-9.7
	c0,0,0.5-2.6,1.5-6.2c2-8,5.9-20.8,9.8-20.8C224,207.2,218.3,200.5,213.7,194.4z"/>
<path fill="none" stroke="#1F1D21" d="M330.7,136.5c0,0-13.3,6.2-6.2,17.1"/>
<path fill="none" stroke="#1F1D21" stroke-width="2" d="M403.5,456.4c0,0,3.6,1.8,13-13.802"/>
<path fill="none" stroke="#1F1D21" d="M367.8,487.8c0,0-10-1.8-11.5,16.5"/>
<path fill="none" stroke="#1F1D21" stroke-width="2" d="M359.6,463.7c0,0,1.802-0.602,3.2,2.3c1.5,2.8-1.5-2.8-1.5-2.8"/>
<path fill="none" stroke="#1F1D21" d="M347.3,478c0,0-9,1.7-9.8,22.6"/>
<path fill="none" stroke="#1F1D21" stroke-width="2" d="M378.2,131.4c3.8,5.1,6.1,8.1,7.898,13.5"/>
<path fill="none" stroke="#1F1D21" stroke-width="2" d="M340.7,104.4c3.898,0.9,10.2,4.9,14.1,6.6"/>
<path fill="none" stroke="#1F1D21" d="M228.3,221.4c0,0-9.7-9.3-8-8.3"/>
<path fill="none" stroke="#1F1D21" d="M224,230.4c0,0-8.4-6-8.8-7.6"/>
<line fill="none" stroke="#1F1D21" x1="606.8" y1="232.3" x2="595.8" y2="224.8"/>
<line fill="none" stroke="#1F1D21" x1="606.5" y1="239" x2="594.8" y2="238.8"/>
<line fill="none" stroke="#1F1D21" x1="647.9" y1="234.5" x2="663.3" y2="227.8"/>
<line fill="none" stroke="#1F1D21" x1="650.3" y1="241.3" x2="658.3" y2="242.3"/>
</svg>
