<?xml version="1.0" encoding="utf-8"?>
<!-- Generator: Adobe Illustrator 15.0.0, SVG Export Plug-In . SVG Version: 6.00 Build 0)  -->
<!DOCTYPE svg PUBLIC "-//W3C//DTD SVG 1.1//EN" "http://www.w3.org/Graphics/SVG/1.1/DTD/svg11.dtd">
<svg version="1.1" id="Layer_x5F_www.ABC-color.com"
	 xmlns="http://www.w3.org/2000/svg" xmlns:xlink="http://www.w3.org/1999/xlink" x="0px" y="0px" width="822px" height="567px"
	 viewBox="0 0 822 567" enable-background="new 0 0 822 567" xml:space="preserve">
<rect display="none" fill="#FFFFFF" width="822" height="567"/>
<path fill="#FFFFFF" stroke="#000000" d="M341.5,82.5c25.1,3.2,37.8,33.8,35,61c-0.9,8.7-3.6,21-10.2,28c-12,12.8-30,8.5-46.8,18
	c8.4-17.9,4.2-47-15.7-54.3c-0.7-3.8-0.1-7.8-0.3-11.7C305,94.3,321,79.9,341.5,82.5z"/>
<path fill="#FFFFFF" stroke="#000000" d="M223.5,88.5c14.9,4,16.3,19.6,12,34c-17.6,2.6-32.5,15.8-34,34c-4.3,5.5-5.5,13.5-9.2,19.7
	c-25.8,0.7-34.7-26.9-31.8-44.7C164.7,106,204.1,83.3,223.5,88.5z"/>
<path fill="#FFFFFF" stroke="#000000" d="M205.5,258.5c2.5,5,3.8,10.5,6.5,15.5c-8.3,5.8-18,12.5-28.5,8.5
	c-9.6-13.6-39.9-52.8-3-54.2c0.3,0.1,0.7,0.1,1,0.2C180.9,242.9,193.1,254,205.5,258.5z"/>
<path fill="#FFFFFF" stroke="#000000" d="M211.5,212.5c14.8-1.3,31.2,1.5,39.7,15c-1.3,20.6-27.8,30.3-45.7,31
	c-12.4-4.5-24.6-15.6-24-30c-0.4-3,1.4-5.6,3.5-7.5C192.4,215.2,202.4,213.7,211.5,212.5z"/>
<path fill="#FFFFFF" stroke="#000000" d="M210.5,177.7c3.1,1.1,5.5,4.3,4.9,7.7c-3.2,3-8.6,5.1-12,8.5c2.8,1.5,6.7-0.1,9.8,0.9
	c-2.2,8.5-11.6,18.8-21.7,16.4c-2.4-1.1-2.9-3.7-4-5.7C187.5,193,196.7,177.5,210.5,177.7z"/>
<path fill="#FFFFFF" stroke="#000000" d="M212.5,164.7c21,1.5,8.6,36.7-1,47.8c-9.1,1.2-19.1,2.7-26.5,8.5
	c-7-12.1-1.8-31.9,7.7-44.5C198.4,169.1,205.5,164.2,212.5,164.7z M215.4,185.4c0.6-3.4-1.8-6.6-4.9-7.7c-13.8-0.2-23,15.2-23,27.8
	c1.1,2,1.6,4.6,4,5.7c10,2.4,19.5-7.9,21.7-16.4c-3.1-1-7,0.6-9.8-0.9C206.8,190.5,212.2,188.5,215.4,185.4z"/>
<path fill="#FFFFFF" stroke="#000000" d="M245.5,215.5c14.7,31.5,54.5-27.7,38.9-47C260.3,159.1,243.5,194.8,245.5,215.5z
	 M201.5,156.5c1.5-18.3,16.4-31.4,34-34c5.8,1.8,9.9,6.8,13.1,11.4c13.9-14.6,37.7-25.9,54.9-10.4c0.2,3.9-0.4,7.9,0.3,11.7
	c19.9,7.3,24.102,36.4,15.7,54.3c-12.1,6.5-20,18.8-18.5,32.5c0.3,0.4,0.4,1,0.5,1.5c0.2,0.5,0.5,0.8,0.8,1.2
	c2,7.8,4.602,15.8,3.2,23.8c-3.6,20.7-34.1,57.8-60,65.8c-11.9,3.7-37.2,9-50-2c-7.1-6.1-8.2-18.7-12-29.8c10.5,4,20.3-2.7,28.5-8.5
	c-2.7-5-4-10.5-6.5-15.5c17.9-0.7,44.4-10.4,45.7-31c-8.5-13.5-24.9-16.3-39.7-15c9.6-11.1,22-46.2,1-47.8
	c-7-0.5-14.1,4.4-19.8,11.8l-0.5-0.3C196,170,197.2,162,201.5,156.5z"/>
<path fill="#FFFFFF" stroke="#000000" d="M284.4,168.5c15.6,19.3-24.2,78.5-38.9,47C243.5,194.8,260.3,159.1,284.4,168.5z
	 M278.2,191.2c-0.6-2.7-0.7-6-3.7-7.4c-14.9-2.3-25.7,15.2-24,28.7c1.2,2.4,3.3,4.5,6,4.9c8.4-1.1,17.3-8.3,18.7-16.6
	c-3.6-0.6-7.4-1.1-10.8-1.9C268.2,195.4,273.4,193.2,278.2,191.2z"/>
<path fill="#FFFFFF" stroke="#000000" d="M274.5,183.8c3,1.4,3.1,4.7,3.7,7.4c-4.8,2-10,4.2-13.8,7.7c3.4,0.7,7.2,1.2,10.8,1.9
	c-1.4,8.3-10.3,15.6-18.7,16.6c-2.8-0.4-4.8-2.5-6-4.9C248.8,199,259.6,181.5,274.5,183.8z"/>
<path fill="#FFFFFF" stroke="#000000" d="M712.2,546.5c0.5,1.8,0.7,4.3-0.7,5.8c-1.7,0.602-3.3,0.7-5-0.8c0.2-1.9-0.6-4.3,1-5.7
	C709.1,545.4,710.9,545.5,712.2,546.5z"/>
<path fill="#FFFFFF" stroke="#000000" d="M715.2,553.2c-4.102,2.3-8.7,3.8-13.7,3.3c-26.3-18.1,25.8-35.6,14-4
	C715.4,552.7,715.3,553,715.2,553.2z M706.5,551.5c1.7,1.4,3.3,1.4,5,0.8c1.4-1.5,1.2-4,0.7-5.8c-1.3-1-3.102-1-4.7-0.7
	C705.9,547.2,706.7,549.6,706.5,551.5z"/>
<path fill="#FFFFFF" stroke="#000000" d="M669.5,548.8c2,2.5,1.1,6.4-1.5,8.2c-3.4-0.8-4.2-4.6-3.2-7.5
	C666.1,548.5,667.9,548.4,669.5,548.8z"/>
<path fill="#FFFFFF" stroke="#000000" d="M676.2,544.5c1.898,5.4-1.8,14-8.2,12.5c2.6-1.8,3.5-5.7,1.5-8.2
	c-1.6-0.398-3.4-0.398-4.7,0.7c-1,2.9-0.2,6.7,3.2,7.5c-5.8,3.9-15.8-1.3-16.4-8.5C652.7,536.7,670.6,535.1,676.2,544.5z"/>
<path fill="#FFFFFF" stroke="#000000" d="M624.4,541.8c1.698,1.102,1.398,4.102,0.1,5.4c-1.3,0.2-2.7,0.3-4-0.7
	c0.1-1.6-0.1-3.4,1-4.7C622.5,541.6,623.5,541.5,624.4,541.8z"/>
<path fill="#FFFFFF" stroke="#000000" d="M623.5,530.5c12.8-0.4,13.3,22.9-0.5,21.2c-0.2,0-0.4-0.102-0.6-0.102
	c-3.5-0.6-5.302-2.698-7.9-7.1c-0.4-2.6-0.3-4.8,0.1-6.6C615.9,532.5,620.3,530.6,623.5,530.5z M624.5,547.2
	c1.3-1.3,1.6-4.3-0.1-5.4c-0.9-0.3-1.9-0.2-2.9,0c-1.1,1.3-0.9,3.102-1,4.7C621.8,547.4,623.2,547.4,624.5,547.2z"/>
<path fill="#FFFFFF" stroke="#000000" d="M602.5,522.5c0.4,4.8-6.8,5.3-9,2c0.2-1.3,0.5-2.6,1.3-3.8
	C597.1,518.6,601.6,519.5,602.5,522.5z"/>
<path fill="#FFFFFF" stroke="#000000" d="M611.2,516.5c4,10.2-7.3,17.1-17.7,15c-3.9-3.2-5.4-6.5-5.4-9.6
	C588.1,511.3,606.1,503.6,611.2,516.5z M593.5,524.5c2.2,3.3,9.4,2.8,9-2c-0.9-3-5.4-3.9-7.7-1.8C594,521.9,593.7,523.2,593.5,524.5
	z"/>
<path fill="#FFFFFF" stroke="#000000" d="M366.4,536.8c3.5,2.4,2.1,8.7-1.9,9.602c-1.3-0.4-2.7-1.4-4-2.9c-0.2-2.4,0.1-5,2-6.7
	C363.8,536.5,365.2,536.5,366.4,536.8z"/>
<path fill="#FFFFFF" stroke="#000000" d="M373.3,531.5c11.4,14-18.5,27-23.3,6.5c0.5-1.9,1.9-3.4,1.5-5.5
	C358.3,526.7,368.5,525.7,373.3,531.5z M364.5,546.4c4-0.9,5.4-7.2,1.9-9.602c-1.302-0.3-2.602-0.3-3.9,0c-1.9,1.7-2.2,4.3-2,6.7
	C361.8,545,363.2,546,364.5,546.4z"/>
<path fill="#FFFFFF" stroke="#000000" d="M319.5,530.5c5.3-0.5,5.6,9,1,10c-1.3-0.2-2.7-0.5-4-2
	C316.6,535.7,315.6,531.2,319.5,530.5z"/>
<path fill="#FFFFFF" stroke="#000000" d="M333.2,528.5c4.6,13.1-17.9,22.4-25.7,7C304.8,517.7,329.3,517.4,333.2,528.5z
	 M320.5,540.5c4.6-0.9,4.3-10.5-1-10c-3.9,0.7-2.9,5.2-3,8C317.8,540,319.2,540.3,320.5,540.5z"/>
<path fill="#FFFFFF" stroke="#000000" d="M282.5,523.8c3.9-1.898,6.4,4.3,3,6.4c-1.3,0.2-2.7,0.3-4-0.7
	C281.7,527.6,280.9,525.2,282.5,523.8z"/>
<path fill="#FFFFFF" stroke="#000000" d="M296.5,523.5c1,10.4-15.2,16.1-22,3C273.5,511.2,295.4,512.7,296.5,523.5z M285.5,530.2
	c3.4-2.102,0.9-8.3-3-6.4c-1.6,1.4-0.8,3.8-1,5.7C282.8,530.4,284.2,530.4,285.5,530.2z"/>
<path fill="#FFFFFF" stroke="#000000" d="M248.5,533.2c-23-7.9,14.4-32.102,18.9-8.7c-0.5,5.3-5.8,9.1-10.9,9
	c0.5-4.3,2.8-11.2-1.9-13.7c-3.2,3.9-1.4,9.102-1.1,13.7C251.9,533.4,250.1,533.8,248.5,533.2z"/>
<path fill="#FFFFFF" stroke="#000000" d="M254.6,519.8c4.7,2.5,2.4,9.4,1.9,13.7c-1,0-2,0-3,0C253.2,528.9,251.4,523.7,254.6,519.8z
	"/>
<path fill="#FFFFFF" stroke="#000000" d="M219.5,501.5c12.5,3.5,9.5,28.3-3,28c-1.7-3.1-0.3-6.9-2-10c1.5-2.8,4.8-1.3,6.7-3
	c0.6-1.8,0.3-3.9,0-5.7c-2.1-0.7-4.5-0.1-6.7-0.3c-0.6-3.4,1.4-6.1,3-8.7c0.3-0.1,0.7-0.2,1-0.3
	C218.8,501.5,219.2,501.5,219.5,501.5z"/>
<path fill="#FFFFFF" stroke="#000000" d="M221.2,510.8c0.3,1.9,0.6,3.9,0,5.7c-1.9,1.7-5.2,0.2-6.7,3c-2.4,0.4-3.4,3-5.5,4.2
	c-3.3-4.102-0.8-13.9,5.5-13.2C216.7,510.7,219.1,510.1,221.2,510.8z"/>
<path fill="#FFFFFF" stroke="#000000" d="M136.9,312.1c-23-54.898-38.3-114.7-30.4-169.6c0.2-1.5,0.5-3,0.8-4.5
	c12.8-67.9,95.6-140.1,159.3-78.3c1.9,3.3,5.2,5.4,7.2,8.5c0.6,0.2,1.2,0.2,1.8,0.3c28.7-8,53.2-20.1,82-17
	C393.4,55.3,415.7,87.7,427.7,124.8c4,12.4,6.8,25.2,8.7,37.7c2.8,19,3.5,40.6-8.5,59c-0.102,0.7-0.2,1.3-0.302,2
	c-38.8,48.2-79.1,98.7-131,134c-8.2,5.7-20,8.2-25,17c-21.6,18.8-38.6,45.5-66,56.8c-7.5-0.898-11.6-10.1-15.8-17
	C171.7,384.5,152.5,349.4,136.9,312.1z M160.5,131.5c-3,17.8,6,45.4,31.8,44.7l0.5,0.3c-9.6,12.6-14.8,32.3-7.7,44.5
	c-2.1,1.9-3.9,4.5-3.5,7.5c-0.3-0.1-0.7-0.1-1-0.2c-36.9,1.4-6.6,40.6,3,54.2c3.8,11.1,4.9,23.7,12,29.8c12.8,11,38.1,5.7,50,2
	c25.9-8,56.4-45.1,60-65.8c1.4-8-1.199-16-3.199-23.8c-0.301-0.4-0.601-0.7-0.801-1.2c-0.1-0.6-0.199-1.1-0.5-1.5
	c-1.5-13.8,6.4-26,18.5-32.5c16.802-9.5,34.802-5.2,46.802-18c6.6-7.1,9.3-19.3,10.198-28c2.802-27.3-9.898-57.8-35-61
	c-20.5-2.6-36.5,11.8-38,41c-17.2-15.5-41-4.2-54.899,10.4c-3.2-4.6-7.3-9.6-13.1-11.4c4.3-14.4,2.9-30-12-34
	C204.1,83.3,164.7,106,160.5,131.5z"/>
<path fill="#FFFFFF" stroke="#000000" d="M611.2,516.5c-5.102-12.9-23.102-5.2-23.102,5.4h-0.3c-0.6-13.5,2.8-24.802,27.8-23.4
	c14.802-9.9,16.9-29.4,14.802-40c-5.102-25.8-39.302-31.6-43.802-59c-0.8-5,0.602-9.8,0-15c0.102-0.2,0.2-0.5,0.302-0.7
	c10.5-4.5,20.5-10.3,30.698-15.3c0.2,0.1,0.5,0.2,0.7,0.3c17.4,44,46.102,87.8,42.102,136.4c-8.5,3.5-23.102-2-25.802,11.3
	c-11.6-0.9-22.398,9-22.3,20.7c-6.5,0.398-13.7-1.3-18.7-5.7C604,533.6,615.2,526.7,611.2,516.5z"/>
<path fill="#FFFFFF" stroke="#000000" d="M267.4,524.5c-4.5-23.4-41.9,0.8-18.9,8.7c1.6,0.6,3.4,0.2,5,0.3c1,0,2,0,3,0
	C261.6,533.6,266.9,529.8,267.4,524.5z M278.5,502.5c-10.5,8-12.2,24.4-5,35c-9.4,6.5-23.6,4.7-32-3c-8,1.8-21.6,5.8-25-5
	c12.5,0.3,15.5-24.5,3-28c-0.3,0-0.7,0-1,0c4.9-6.7,14.5-5.1,21.7-7.3c2.4-41.4,15.3-81.3,31.3-119.7c5-8.8,16.8-11.3,25-17
	c5.4,21.4,17.7,41.1,18.5,63.5c-8.9,26.4-22.3,52.1-31.5,78.5C281.9,500.6,280,501.3,278.5,502.5z"/>
<path fill="#FFFFFF" stroke="#000000" d="M668,557c6.5,1.5,10.1-7.1,8.2-12.5c-5.602-9.4-23.5-7.8-24.602,4
	C652.2,555.7,662.2,560.9,668,557z M715.5,305.5c-0.2,26.3,3.1,68.7,0,98c-4,37.6-11.7,76.4-12,113c19.5-1.4,34.8,28.5,12,36
	c11.8-31.6-40.3-14.1-14,4c-5.8-0.1-12.1,0.8-17-3c-10.9,11.4-30.8,10.5-42,0c-4.6,2.4-14.3-1-19.5-1.8
	c13.9,1.7,13.3-21.602,0.5-21.2c-3.2,0.1-7.6,2-8.9,7.4l-2.398-0.7c-0.102-11.7,10.7-21.602,22.3-20.7c2.7-13.3,17.3-7.8,25.8-11.3
	c4-48.602-24.7-92.4-42.1-136.4c-0.2-0.1-0.5-0.2-0.7-0.3c-10.2,5-20.2,10.8-30.7,15.3c-0.1,0.2-0.2,0.5-0.3,0.7
	c-59.2,26.7-131.2,34.6-189-1c-1,0.1-2,0.1-2.9,0.3c-23.198,39.7-31.1,86.9-31.8,132.4c11.3,2,18.9,9.3,19.7,18.3
	c1.9,20.9-30,30.8-44,13c-11.4,4.3-24.8,1.9-34-6c-10.1,3.7-22.8,4.1-31-4c-7.2-10.6-5.5-27,5-35c1.5-1.2,3.4-1.9,5-3
	c8.9-2.6,18.2,0.2,25.9,4.7c3-27,5.398-55.602,5.6-83.2c-0.8-22.4-13.1-42.1-18.5-63.5c51.9-35.3,92.2-85.8,131-134
	c68.8-1.7,151.5,1.5,227,12c52.5,7.3,65.3,56,102,51c18.9-2.6,18.4-22.2,15-37c-10.3-44.8-55.6-42.6-87.2-82.7
	c-0.398-0.3-0.6-0.8-0.8-1.3c-0.2-1.7,1.5-3.3,3-5c18.6,36.4,73.1,30.6,91.7,67c7.5,14.8,7.8,33,6.3,46c-1.5,13.5-7.2,22.5-15.8,28
	c-10.9,6.9-26.4,8.1-44.2,5C721.7,305,718.5,305.6,715.5,305.5z M350,538c4.8,20.5,34.7,7.5,23.3-6.5c-4.8-5.8-14.898-4.8-21.8,1
	C351.9,534.6,350.5,536.1,350,538z M307.5,535.5c7.9,15.4,30.3,6.1,25.7-7C329.3,517.4,304.8,517.7,307.5,535.5z M274.5,526.5
	c6.8,13.1,23,7.4,22-3C295.4,512.7,273.5,511.2,274.5,526.5z"/>
<path fill="#FFFFFF" stroke="#000000" d="M698.6,141.1c-4.898,6-10.698,11.9-12.1,19.4c-1.5,1.7-3.2,3.3-3,5
	c-16-3.6-36.1-0.8-47.7-15c-0.7-5.7-1.1-11.6-1.1-17.5c0.1-22,5.398-44.5,17.8-62.2c1.7-1.3,3.9-1.4,6-1.3
	c20.5,12.2,31.5,35.1,47.7,52C707.3,129.4,703.3,135.3,698.6,141.1z"/>
<path fill="none" stroke="#000000" stroke-width="0.5" stroke-linecap="round" d="M264.9,159.1c12.8-12.3,34.3-6.9,38,11"/>
<path fill="none" stroke="#000000" stroke-width="0.5" stroke-linecap="round" d="M642.9,554.1c-9.802-10.3-4.602-29,9-33"/>
<path fill="none" stroke="#000000" stroke-width="0.5" stroke-linecap="round" d="M684.9,554.1c11.1-9.6,5.398-29-8-33"/>
<path fill="none" stroke="#000000" stroke-width="0.5" stroke-linecap="round" d="M703.9,517.1c-4.5-0.398-8.7,0.302-13,1"/>
<path fill="none" stroke="#000000" stroke-width="0.5" stroke-linecap="round" d="M304.9,542.1c-9.101-12.3-0.7-30,14-33"/>
<path fill="none" stroke="#000000" stroke-width="0.5" stroke-linecap="round" d="M338.9,548.1c4.6-2.3,8.6-5.198,11.5-9.5"/>
<path fill="none" stroke="#000000" stroke-width="0.5" stroke-linecap="round" d="M351.9,533.1c1.6-5.8-0.302-12.8-5-17"/>
<path fill="none" stroke="#000000" stroke-width="0.5" stroke-linecap="round" d="M397.9,384.1c2.6-4.1,7-7.3,9-12"/>
<path fill="none" stroke="#000000" stroke-width="0.5" stroke-linecap="round" d="M617.9,369.1c-1.4-16.898,3.198-33.1,11-48"/>
<path fill="none" stroke="#000000" stroke-width="0.5" stroke-linecap="round" d="M634.9,517.1c2.1-0.3,4.1,0.302,6,1"/>
<path fill="none" stroke="#000000" stroke-width="0.5" stroke-linecap="round" d="M615.9,499.1c3.1,1.4,6.8,1.5,10,3"/>
<path fill="none" stroke="#000000" stroke-width="0.5" stroke-linecap="round" d="M241.9,535.1c-6-9.3-5.4-22.5,2-31"/>
<path fill="none" stroke="#000000" stroke-width="0.5" stroke-linecap="round" d="M278.9,503.1c-2.5-2.398-5.9-3.8-9-5"/>
<path fill="none" stroke="#000000" stroke-width="0.5" stroke-linecap="round" d="M212.4,274.6c8.2,9.7,31.2,15.9,41.5,13.5
	c15.6-3.6,27.6-28.1,29.9-44c-0.7-1.7-0.9-3.3-0.9-5"/>
<path fill="none" stroke="#000000" stroke-width="0.5" stroke-linecap="round" d="M201.9,157.1c8.2-4.1,25.4-15,28,2"/>
<path fill="none" stroke="#000000" stroke-width="0.5" stroke-linecap="round" d="M185.9,166.1c-0.3-0.2-0.7-0.5-1-0.7
	c-35.5-25.1,4.4-72.6,38-68c0.9,1.1,1.6,2.4,1.9,3.7c-4.1,14.1-14.8,25.9-26.9,34"/>
<path fill="none" stroke="#000000" stroke-width="0.5" stroke-linecap="round" d="M347.9,140.1c-13.102,46.9-50-28.4-16-40.8
	c27.198-9.9,38.398,23.7,36,44.8c-2.2,19.3-11.2,27.9-30,29"/>
<path fill="none" stroke="#000000" stroke-width="0.5" stroke-linecap="round" d="M191.9,138.1c-9.7,0.1-5.7-12.8,0-16"/>
<path fill="none" stroke="#000000" stroke-width="0.5" stroke-linecap="round" d="M272.9,229.1c4.3-3.1,9.6-2,14,0"/>
</svg>
