<?xml version="1.0" encoding="utf-8"?>
<!-- Generator: Adobe Illustrator 15.0.0, SVG Export Plug-In . SVG Version: 6.00 Build 0)  -->
<!DOCTYPE svg PUBLIC "-//W3C//DTD SVG 1.1//EN" "http://www.w3.org/Graphics/SVG/1.1/DTD/svg11.dtd">
<svg version="1.1" id="layer_x5F_www.ABC-color.com"
	 xmlns="http://www.w3.org/2000/svg" xmlns:xlink="http://www.w3.org/1999/xlink" x="0px" y="0px" width="822px" height="567px"
	 viewBox="0 0 822 567" enable-background="new 0 0 822 567" xml:space="preserve">
<path fill="#FFFFFF" stroke="#000000" stroke-miterlimit="10" d="M556.2,133.7c0.6,0.6-20.3-3.2-20.9-2.7c-1,0.8,12.2,8.7,12.2,8.7
	l-18.7-4c0,0-21.898,7.4-38.5-3c-0.2-0.1-0.5-0.3-0.7-0.4c0,0-9.698-36,33.4-39.5c0,0,19.8-42.1,44.4-39.9c0,0,41.1-14.1,56-2.4
	c-3.302,2-5.9,4-7.4,5.9c0,0-22.7,4.2-14.9,13.9c0.802,1,1.4,2,1.9,3c3.3,6.9,0.3,13.8,0.3,13.8c-31.1,1.6-12.898,20.5-12.898,20.5
	c26.398,10.5,15.698,17,15.698,17c2.7-9.3-20.898-10.4-20.898-10.4c-25.602-2.7-9.9,15.1-9.9,15.1c5.4,2.1,16.9-0.4,17.4-0.5
	c-18.9,8.7-24.3,1.9-24.3,1.9c-8.5-14.3-13.802-19.6-13.802-19.6c-14.3-7.8-20.198-3.9-20.198-3.9c-18.802,7.1,12.8,10,12.8,10
	s-15.8,3.3-13,3.5c4.7,0.3,21.5,3,21.5,3c2.8,2-12.7-2.8-11.602,3.1C544.6,130,553.2,130.9,556.2,133.7z"/>
<path fill="#FFFFFF" stroke="#000000" stroke-miterlimit="10" d="M690,104.8c-8.4-6.7-48.5-37-87-31.7c-0.5-1-1.1-2-1.9-3
	c-7.8-9.6,14.9-13.9,14.9-13.9c1.5-1.9,4.1-3.9,7.4-5.9C636.6,42.2,660,34,660,34c2.2-3.4,16.7-11,16.7-11c40.1-8,33,15,33,15
	c-8.8-16.6-25.5-8.2-25.5-8.2c-20.2,6-14.2,32.9-13.3,33.7c15.6,12.2,60.5-35.1,60.5-35.1c21.898-19.8,33.5,4.2,33.5,4.2
	c-33.802-14.2-42.7,22.1-42.7,22.1C721,80.9,680.6,86.6,680.6,86.6c2,6.6,17.2,10.3,18.7,10.7c-3.6,0.2-10,1.5-9.2,7.5H690z"/>
<path id="ABC-color.com" fill="#FFFFFF" stroke="#000000" stroke-miterlimit="10" d="M717.4,205.5c25.3,7.4,27.6-4.3,27.6-4.3
	s0.3-8.4,1.5-0.1c1.2,8.2-9.1,11.5-9.1,11.5c-52.5,8.9-21.4-19.9-21.4-19.9c14.7-8.1,13.5-12.4,13.5-12.4
	c-1.2-20.7-21.2-18.3-21.2-18.3s-12.1-11.9-6.398-22.8c-0.302-0.8-4.302-7.3-2.4-8.9c4.1-3.4,19.9-2.3,19.9-2.3
	c3,0.3,4.198,1.2,2.1-1.5c-11.7-15.1-26.6-10.2-26.3-11.6c0,0,0.898-6-3.602-8.9c0,0-0.5-0.5-1.6-1.3l0.1-0.1
	c-0.898-6,5.602-7.2,9.2-7.5c1.3-0.1,2.3,0,2.3,0C722.9,100.4,724.4,84.5,724.4,84.5c0.1-7.1,5.1-9.1,6.6-9.5
	c-3.6,1.4,2.2,9.5,2.2,9.5c10.1-13.6,16.8-5,16.8-5c-6.4-3.5-9.9,12.2-9.9,12.2c22.302-13.8,33.5,8.9,34,10
	c-1.698-3.4-6.5-0.3-6.5-0.3c11.2,5,8.5,20.2,8.5,20.2c-7.398-11.2-29.1-7.2-29.1-7.2c13.3,6.3,18,26.5,18,26.5
	c-4.5-5.3-7.8-0.2-7.8-0.2c9.7,12.9,18.3,1.8,18.3,1.8c3.3-8.9,14.6-6.3,14.6-6.3c11.102,0.9,6.302,17.5,6.302,17.5
	c-2-13.2-10.802-6.4-10.802-6.4c0.802,20.5-12.898,19.5-12.898,19.5c-9.5-1.3-16.9-5.3-20-7.1c-0.4-0.3-0.9-0.6-1.4-0.9
	c0.2,0.2,0.7,0.5,1.4,0.9C771.8,173,738.6,191,738.6,191C712.3,198.1,717.4,205.5,717.4,205.5z"/>
<path fill="#FFFFFF" stroke="#000000" stroke-miterlimit="10" d="M678.8,165c0-1.9-1.8-3.5-4-3.5s-4,1.6-4,3.5s1.8,3.5,4,3.5
	S678.8,166.9,678.8,165z M675,151.8c12.4,19.1-6.3,25.9-6.3,25.9c-3.8-17,4.7-25.9,4.7-25.9H675z"/>
<path fill="#FFFFFF" stroke="#000000" stroke-miterlimit="10" d="M674.8,161.5c2.2,0,4,1.6,4,3.5s-1.8,3.5-4,3.5s-4-1.6-4-3.5
	S672.5,161.5,674.8,161.5z"/>
<path fill="#FFFFFF" stroke="#000000" stroke-miterlimit="10" d="M649,252.5c3.6,0.1-0.4,3.2-2.5,3.3
	C644.5,255.8,649,252.5,649,252.5z"/>
<path fill="#FFFFFF" stroke="#000000" stroke-miterlimit="10" d="M440.7,483c10.898,1.6,23.6-8,23.6-8c11,7.3,16,19.3,16,19.3
	c-23.3,6-35.7-1-35.7-1C443.8,489.3,442.3,485.8,440.7,483z"/>
<path fill="#FFFFFF" stroke="#000000" stroke-miterlimit="10" d="M368,471.3c19,0.3,20,19.7,20,19.7c-28,1-34.3-6.3-34.3-6.3
	c0.898-2.3,1.3-4.5,1.398-6.7C357.5,477.6,371,475.6,368,471.3z"/>
<path fill="#FFFFFF" stroke="#000000" stroke-miterlimit="10" d="M368,471.3c3,4.3-10.5,6.3-13,6.602c0.2-6.5-2.4-12-2.4-12
	c-1.1-1.102-2.698,2.8-2.698,2.8s-0.9-7.102-1.2-7.602c-0.602-1-2.102,2.4-2.102,2.4s0-6.8-0.198-7.6
	c-0.602-1.9-3.302,2.6-3.302,2.6l3.5-9.5c2.602-41.7,29.302-54.7,29.302-54.7c9.5-8.3,6.3-27,6.3-27c15.3-14.3,14.3-21.3,14.3-21.3
	c8.2-28.5,20-36.7,20.3-37l-0.1-0.3c16.2-3.8,23.5-4.2,46.3-22.7l-0.8,2.3c0,0-2-1.5-2.102,27.7c-55,37.8-46.398,47.3-46.398,47.3
	c5,10-16,29.7-16,29.7c-18.7,12.3-31,59-31,59C358,467.7,368,471.3,368,471.3z"/>
<path id="www.ABC-color.com" fill="#FFFFFF" stroke="#000000" stroke-miterlimit="10" d="M646.5,255.8c2.1,0,6.1-3.2,2.5-3.3
	C649,252.5,644.5,255.8,646.5,255.8z M212,322c-10.3-3.4,4.5-1.8,5-1.8c-0.2-0.4-6.2-14.3-19.5-18.8l8.3-0.5
	c0,0-20.5-14.9-45.4-15.602v-0.1c2-5,4.7-11.3,4.7-11.3c-35-41-8.5-82.5-8.5-82.5l11-15c42.8-48.8,129.5-28.2,129.5-28.2
	c113.7,18.3,155.7,3.7,155.7,3.7c23.7-4.5,28-10.1,37.602-19.4c16.6,10.4,38.5,3,38.5,3l18.698,4c0,0-13.198-7.9-12.198-8.7
	c0.6-0.5,21.5,3.3,20.898,2.7c-3-2.8-11.6-3.7-12.3-7.1c-1.1-5.9,14.4-1.2,11.6-3.1c0,0-16.8-2.7-21.5-3c-2.8-0.2,13-3.5,13-3.5
	s-31.6-2.9-12.8-10c0,0,5.9-3.9,20.2,3.9c0,0,5.3,5.3,13.8,19.6c0,0,5.5,6.8,24.3-1.9c-0.5,0.1-12.1,2.6-17.398,0.5
	c0,0-15.7-17.8,9.898-15.1c0,0,23.602,1.2,20.9,10.4c0,0,10.7-6.5-15.7-17c0,0-18.3-18.9,12.9-20.5c0,0,3.1-6.9-0.3-13.8
	c38.6-5.2,78.698,25,87,31.7c1,0.8,1.6,1.3,1.6,1.3c4.6,2.9,3.6,8.9,3.6,8.9c-0.198,1.4,14.7-3.5,26.302,11.6
	c2.1,2.7,0.898,1.8-2.102,1.5c0,0-15.8-1.1-19.898,2.3c-2,1.6,2,8.1,2.398,8.9c-5.7,10.9,6.4,22.8,6.4,22.8
	c-2.3,9.6-23.2,30.7-23.2,30.7c-21.8,15.2-23.3,56-23.3,56C649.1,274.8,636,261,636,261c-2.5-1.7,2.7-20.2,2.7-20.2
	c-2.602,0.7-7.8,11.3-7.8,11.3c-3.102,3.9-7.9,1.4-7.9,1.4c-8.8-9.7,7-29.1,7-29.1c3.9-10-13.1-50-13.1-50
	c-5.5-11.6,16.3-28.6,17.5-29.5C588.8,171,590,202.7,590,202.7c-3.8,21.7-67,88.7-67,88.7c2.3,13.3-49,74-49,74c0.7,19.3-5,24-5,24
	c-12,7-26.7,47-26.7,47c-8.3,15.698,3.7,35,3.7,35c3,4.3,18.3,3.698,18.3,3.698s-12.7,9.602-23.6,8c-2.5-4.5-5.602-7.5-7.9-9.398
	c-0.1-0.102-1.7,2.2-1.7,2.2l-1.8-4.5c-0.398-0.302-1.5,1.3-1.5,1.3s-1.1-3.4-1.7-4c-0.398-0.4-2.5,1.3-2.5,1.3s-0.5-4.5-1.1-5.4
	c-2.9-4.3-2.3-7.3-2.3-7.3c-0.7-5.3,18.7-48.7,18.7-48.7c6-14,4.3-32.699,4.3-32.699c17.3-13.699,17.7-22.301,17.7-22.301
	c-0.5-16.3-0.602-28.5-0.602-37.699c0.102-29.199,2.102-27.699,2.102-27.699l0.8-2.301C440.4,304.4,433.1,304.8,416.9,308.6
	c-1.9,0.4-3.9,0.9-6.102,1.5c-35.1,9.301-63.3,1-83.8-11.1c-25.8-15.2-39.4-36.5-39.4-36.5c0,7.7-26.7,37-26.7,37
	c-3,7.1-20.5,15.9-32.5,21.2c-6.6,2.899-11.5,4.8-11.5,4.8h-0.2C215.8,324.1,214.3,322.8,212,322z M668.8,177.7
	c0,0,18.602-6.8,6.3-25.9h-1.6C673.4,151.8,665,160.7,668.8,177.7z"/>
<path fill="#FFFFFF" stroke="#000000" stroke-miterlimit="10" d="M245,473c-4.8,6.8-24.5-9.5-24.5-9.5s3.8-8.8,10-12.3
	c1.4-0.8-2-1-2-1s2.2-2.102,2.7-2.9c1.3-2.3-1.8-0.8-2-0.7c0.3-0.3,4.6-4.398,5.1-5.3c0.5-1-2.2-0.3-2.2-0.3s4.6-6.8,7-10.6
	c0.3-0.102,1-0.602,2.1-1.7c0,0,10.2-8.2-21.4-36.9c-0.7-0.6-12.8-7.3-13.6-7.8c0,0-5.3-8.7,1.3-12.3c0,0,29-16,27.3-29
	c0,0-4.5-21.3-6.5-21.7v-0.1c12-5.301,29.5-14.102,32.5-21.2c0,0,26.7-29.3,26.7-37c0,0,13.6,21.3,39.4,36.5v0.1
	c-0.7-0.399-31-14.8-31.3-6.2c0,0,34,26.7-30,56.7c0,0-34.3,20.7-17,38.3c0,0,21.1,31.9,18,39.302C263.6,434.6,245,466.6,245,473z"
	/>
<path fill="#FFFFFF" stroke="#000000" stroke-miterlimit="10" d="M220.5,463.5c0,0,19.8,16.3,24.5,9.5c0,22-10,25-10,25
	c-13-1-20-35-20-35L220.5,463.5z"/>
<path fill="#FFFFFF" stroke="#000000" stroke-miterlimit="10" d="M150.7,518c7.7,4.7,1.7,8.7,1.7,8.7c-1,1.3-27.7,2.7-27.7,2.7
	c-10,1.698-10-4-10-4c15.3-6.302,12.7-21.7,12.7-21.7C135.7,503.3,150.7,518,150.7,518z"/>
<path fill="#FFFFFF" stroke="#000000" stroke-miterlimit="10" d="M127.3,503.7c0,0,2.7,15.3-12.7,21.7
	c-0.6-2.802-8.5-12.302-12.9-15.802c-0.9-0.698-0.8,4.5-0.8,4.5s-2.1-6-3-7c-1.2-1.3-1.3,5.302-1.3,5.302s-2-1.4-2.4-2.102
	c-0.9-1.7-0.6-7.6-0.6-7.6l-2.3,2.7L88,493.7c-6-3-4-12.7-4-12.7c5.3-3.3,16.7-56.3,16.7-56.3c3.3-12,1.7-43.3,1.7-43.3
	c35.3-20,38.3-47.7,38.3-47.7l-0.1-0.5c13-3.5,29.5-3.3,37.3,16.3c-39.4,18.6-58.9,82.8-58.9,82.8c-7.3,15.3-9,55.3-9,55.3
	C115,502.3,127.3,503.7,127.3,503.7z"/>
<path fill="#FFFFFF" stroke="#000000" stroke-miterlimit="10" d="M88,154.5c25.5-14.5,79.5,22,79.5,22l-11,15c-21-1-43.5,21-43.5,21
	c-27.5,26.5-5.5,70-5.5,70c12.5,6.5,39.5,4,39.5,4c4.5-0.9,9-1.2,13.3-1.1c24.9,0.699,45.4,15.6,45.4,15.6l-8.3,0.5
	c13.3,4.4,19.3,18.3,19.5,18.8c-0.5-0.1-15.3-1.7-5,1.8c2.3,0.801,3.8,2.102,4.8,3.7c3.2,5.2,0.7,13.3,0.7,13.3s-8.8-15.5-15.5-4.5
	c-0.3,0.5,1.2,0.102,1.8,0.2c8.1,2.3,7.7,19.8,7.7,19.8c0-6.5-12-7.5-12-7.5c7,5.5,7,18.5,7,18.5C205,361,196,355,196,355
	c10,13,1.8,27.5,1.8,27.5c-4,10.5-13.8,12-13.8,12c-29,12.5-19.8,21-19.8,21c15.4,13.5,11.9-3,11.8-3.7c9,15.2-6.5,12.7-6.5,12.7
	c-26.5-11-10-22.5-10-22.5c28-17.5,21-43.5,21-43.5c-0.7-3.3-1.6-6.3-2.6-9c-7.8-19.7-24.4-19.9-37.3-16.3c-10.1,2.8-18,7.8-18,7.8
	c-50,14.5-78-25.5-78-25.5c-26.5-2-27-56.5-27-56.5c-13-41.5,23-61.5,23-61.5C61,161.5,88,154.5,88,154.5z"/>
<g>
	<path d="M164.8,179.5c-6-2.7-12.1-4.9-18.4-6.8c-6.3-1.9-12.7-3.4-19.2-4.3s-13.1-1.2-19.6-0.5c-6.5,0.7-13,2.6-18.6,6.1
		c5.5-3.6,12-5.5,18.5-6.3c6.5-0.8,13.2-0.6,19.7,0.2c6.5,0.8,13,2.2,19.3,4c6.3,1.8,12.6,4,18.6,6.6L164.8,179.5z"/>
</g>
<g>
	<path d="M162.3,183.5c-5.4-2-10.9-3.7-16.5-5c-5.6-1.3-11.3-2.3-17.1-2.7c-5.7-0.4-11.5-0.4-17.2,0.6s-11.3,2.9-16,6.2
		c4.7-3.4,10.3-5.4,16-6.4s11.5-1.2,17.3-0.8c5.8,0.4,11.5,1.3,17.2,2.5c5.7,1.2,11.2,2.8,16.7,4.8L162.3,183.5z"/>
</g>
<g>
	<path d="M160.9,185.5c-4.2-0.8-8.4-1.4-12.7-2c-4.3-0.5-8.5-0.9-12.8-1.1c-4.3-0.2-8.6-0.2-12.8,0.2c-2.1,0.2-4.3,0.6-6.3,1.1
		c-2.1,0.6-4.1,1.4-5.8,2.8c1.6-1.4,3.7-2.3,5.7-2.9c2.1-0.6,4.2-1,6.3-1.3c4.3-0.5,8.6-0.6,12.9-0.5c4.3,0.1,8.6,0.4,12.9,0.9
		c4.3,0.4,8.5,1,12.8,1.7L160.9,185.5z"/>
</g>
<g>
	<path d="M158.4,188.5c-3-0.4-6.1-0.7-9.1-0.9c-3.1-0.2-6.1-0.3-9.2-0.2s-6.1,0.3-9.1,1c-1.5,0.3-3,0.8-4.3,1.5
		c-1.3,0.7-2.6,1.7-3.2,3.1c0.5-1.5,1.8-2.5,3.2-3.2c1.4-0.7,2.8-1.2,4.3-1.6c3-0.7,6.1-1.1,9.1-1.2c3.1-0.2,6.2-0.2,9.2-0.1
		c3.1,0.1,6.1,0.3,9.2,0.6L158.4,188.5z"/>
</g>
<g>
	<path d="M108.9,284c-2.8-0.5-5.5-1.4-8.1-2.5c-2.6-1.1-5-2.5-7.3-4.1c-4.6-3.2-8.5-7.4-11.3-12.2c-2.9-4.8-4.7-10.2-5.7-15.6
		c-1-5.5-1.3-11.1-1-16.6c-0.2,5.5,0.2,11.1,1.3,16.5c1.1,5.4,3,10.7,5.9,15.4c2.9,4.7,6.8,8.8,11.3,11.9c4.5,3.1,9.7,5.3,15.1,6.2
		L108.9,284z"/>
</g>
<g>
	<path d="M122.4,286.8c-6.8,0.601-13.5,0.3-20.2-0.8c-6.6-1.1-13.2-2.9-19.3-5.8c-6.1-2.8-11.7-6.7-16.4-11.6
		c-4.7-4.8-8.4-10.6-11-16.7c2.7,6.1,6.4,11.8,11.2,16.6c4.7,4.8,10.4,8.5,16.5,11.3c6.1,2.8,12.6,4.5,19.2,5.5
		c6.6,0.9,13.3,1.2,19.9,0.5L122.4,286.8z"/>
</g>
<g>
	<path d="M41.4,197.6c-2.9,3.9-5.4,8.1-7.5,12.5s-3.7,9.1-4.6,13.9c-0.9,4.8-1.1,9.8-0.1,14.6c0.9,4.8,3,9.4,5.9,13.4
		c-3-3.9-5.1-8.5-6.1-13.3c-1-4.8-0.9-9.9-0.1-14.7c0.8-4.9,2.4-9.6,4.4-14.1s4.5-8.8,7.4-12.8L41.4,197.6z"/>
</g>
<g>
	<path d="M18.2,258.6c0.4,3.4,1.2,6.7,2.3,9.9s2.7,6.3,4.7,9s4.7,5,7.8,6.5s6.6,2.1,10,2c-3.4,0.2-6.9-0.3-10.1-1.7
		c-3.2-1.4-5.9-3.7-8.1-6.4c-2.2-2.7-3.8-5.8-5-9.1c-1.2-3.2-2.1-6.6-2.6-10.1L18.2,258.6z"/>
</g>
<g>
	<path d="M45.1,315.5c2.9,0.7,5.8,1.3,8.7,1.8c2.9,0.5,5.9,0.9,8.9,1.2s5.9,0.4,8.9,0.2c1.5-0.101,3-0.3,4.4-0.7s2.9-0.9,4-1.9
		c-1.1,1-2.5,1.602-3.9,2.102c-1.4,0.398-2.9,0.699-4.4,0.8c-3,0.3-6,0.2-9,0.101c-3-0.199-6-0.5-8.9-0.899
		c-3-0.399-5.9-0.899-8.9-1.5L45.1,315.5z"/>
</g>
<g>
	<path d="M197.9,302.5c-4.6-1.4-9.2-2.5-13.8-3.5c-4.7-1-9.3-1.9-14.1-2.5c-4.7-0.6-9.5-1-14.2-0.8c-2.4,0.1-4.8,0.3-7.1,0.8
		c-2.3,0.5-4.6,1.3-6.6,2.6c2-1.398,4.3-2.199,6.6-2.699c2.3-0.5,4.7-0.801,7.1-0.899c4.8-0.2,9.6,0.101,14.3,0.601
		c4.8,0.5,9.5,1.301,14.2,2.301c4.7,0.898,9.3,2,14,3.3L197.9,302.5z"/>
</g>
<g>
	<path d="M208.2,320.4c-3.4-2.102-7-3.9-10.7-5.602s-7.4-3.1-11.3-4.199c-3.9-1.101-7.8-1.899-11.9-1.899c-4,0-8.1,0.899-11.4,3.3
		c3.2-2.5,7.4-3.5,11.4-3.5c4.1-0.1,8.1,0.6,12,1.7c3.9,1,7.7,2.399,11.5,4c3.7,1.6,7.4,3.399,10.9,5.399L208.2,320.4z"/>
</g>
<g>
	<path d="M201.8,335c-2.6,0.1-5.1-0.2-7.5-0.8c-2.4-0.601-4.8-1.5-7-2.601c-4.5-2.301-8.3-5.5-11.5-9.301
		c3.3,3.7,7.3,6.801,11.8,8.9c2.2,1,4.6,1.8,7,2.3s4.9,0.8,7.2,0.601V335z"/>
</g>
<g>
	<path d="M201.6,348.2c-3.2-0.8-6.4-1.7-9.6-2.8c-1.6-0.602-3.1-1.2-4.6-2c-0.7-0.4-1.5-0.801-2.1-1.301c-0.6-0.5-1.3-1.199-1.3-2
		c0.1,0.899,0.7,1.5,1.4,1.899c0.7,0.5,1.4,0.899,2.1,1.2c1.5,0.699,3.1,1.199,4.6,1.699c3.2,1,6.4,1.699,9.6,2.301L201.6,348.2z"/>
</g>
<g>
	<path d="M195.7,355.1c-2.1-1.398-4.2-2.898-6.1-4.5c-2-1.6-3.9-3.199-5.6-5.1c1.8,1.8,3.8,3.3,5.9,4.7c2.1,1.399,4.2,2.8,6.4,4
		L195.7,355.1z"/>
</g>
<g>
	<path d="M286.8,262.3c-0.9-1.5-1.6-3-2.3-4.6c-0.6-1.6-1.2-3.2-1.7-4.8c-1-3.2-1.7-6.6-2.1-9.9c0.7,3.3,1.5,6.6,2.6,9.7
		c0.6,1.6,1.2,3.1,1.9,4.7c0.7,1.5,1.5,3,2.4,4.3L286.8,262.3z"/>
</g>
<g>
	<path d="M164.4,273.7c0.3-0.4,0.6-0.9,0.8-1.4c0.2-0.5,0.4-1.1,0.5-1.7c0.2-1.2,0.2-2.4,0-3.6c0.3,1.2,0.5,2.4,0.5,3.6
		c0,0.6-0.1,1.2-0.3,1.9c-0.2,0.6-0.4,1.2-0.8,1.8L164.4,273.7z"/>
</g>
<g>
	<path d="M462.7,285.9c0.5-0.301,1-0.801,1.5-1.2c0.5-0.4,0.898-0.9,1.398-1.4c0.9-1,1.7-2,2.5-3c-0.6,1.1-1.3,2.3-2.1,3.3
		c-0.4,0.5-0.8,1.1-1.2,1.6c-0.398,0.5-0.898,1-1.398,1.5L462.7,285.9z"/>
</g>
<g>
	<path d="M295.9,293c-0.9-0.2-1.6-0.6-2.2-1c-0.7-0.4-1.3-1-1.8-1.5c-1.1-1.2-1.8-2.5-2.4-4c0.7,1.4,1.6,2.6,2.7,3.6
		c0.6,0.5,1.2,0.9,1.8,1.301c0.6,0.301,1.4,0.601,2,0.699L295.9,293z"/>
</g>
<g>
	<path d="M608.7,72.6c0.2-0.7,0.5-1.3,0.8-1.9c0.3-0.6,0.7-1.1,1.2-1.6c0.898-1,2-1.8,3.2-2.2c-1.2,0.6-2.102,1.5-2.802,2.5
		c-0.398,0.5-0.6,1.1-0.898,1.7c-0.2,0.6-0.4,1.2-0.5,1.8L608.7,72.6z"/>
</g>
<g>
	<path d="M612.9,71.9c2-1.7,4.198-3.3,6.398-4.6c1.102-0.7,2.3-1.3,3.5-1.8s2.5-0.9,3.8-1c-1.3,0.2-2.5,0.6-3.698,1.2
		c-1.2,0.6-2.302,1.3-3.4,2c-2.1,1.5-4.2,3.2-6,4.9L612.9,71.9z"/>
</g>
<g>
	<path d="M620.9,72.7c1.5-1.4,3-2.7,4.5-3.9c0.8-0.6,1.6-1.2,2.398-1.8c0.8-0.5,1.7-1.1,2.7-1.3c-0.9,0.3-1.7,0.9-2.5,1.5
		c-0.8,0.6-1.5,1.3-2.2,2c-1.398,1.4-2.8,2.8-4.1,4.3L620.9,72.7z"/>
</g>
<g>
	<path d="M629.4,74.4c0.3-1.1,0.8-2.2,1.5-3.1c0.6-0.9,1.398-1.8,2.3-2.5c0.898-0.7,2-1.2,3-1.4c1.1-0.3,2.2-0.3,3.3-0.2
		c-2.2-0.1-4.4,0.6-6,2c-0.8,0.7-1.5,1.6-2,2.5c-0.5,0.9-0.9,1.9-1.1,2.9L629.4,74.4z"/>
</g>
<g>
	<path d="M636,75.6c0.7-0.9,1.5-1.8,2.4-2.6c0.398-0.4,0.898-0.8,1.398-1.1c0.5-0.3,1.102-0.6,1.602-0.5
		c-0.602,0.1-1.102,0.4-1.5,0.8c-0.4,0.4-0.802,0.8-1.2,1.2c-0.7,0.9-1.4,1.8-1.9,2.8L636,75.6z"/>
</g>
<g>
	<path d="M642.3,77.5c1.602-2.1,3.4-4.1,5.4-5.9c1-0.9,2.1-1.7,3.3-2.3c1.2-0.6,2.6-1,3.8-0.5c-1.3-0.5-2.6,0-3.7,0.7
		c-1.1,0.7-2.1,1.5-3,2.4c-1.8,1.8-3.5,3.9-4.898,6.1L642.3,77.5z"/>
</g>
<g>
	<path d="M650.3,80.7c0.3-0.6,0.602-1,0.9-1.4c0.398-0.4,0.8-0.8,1.2-1.2c0.898-0.7,2-1,3-1.1c-1,0.2-2,0.7-2.7,1.5
		c-0.4,0.4-0.7,0.8-0.9,1.2c-0.2,0.4-0.5,0.9-0.6,1.3L650.3,80.7z"/>
</g>
<g>
	<path d="M655.5,83.4c0.6-1.1,1.3-2,2-2.9c0.8-0.9,1.6-1.7,2.5-2.4c1.8-1.5,4-2.5,6.2-3c-2.2,0.7-4.2,1.9-5.9,3.4
		c-0.8,0.8-1.6,1.6-2.3,2.5s-1.3,1.9-1.7,2.9L655.5,83.4z"/>
</g>
<g>
	<path d="M660.1,85.6c1.102-0.9,2.2-1.6,3.4-2.2s2.5-1,3.8-0.9c-1.3,0-2.5,0.6-3.6,1.3c-1.102,0.7-2.102,1.6-2.9,2.5L660.1,85.6z"/>
</g>
<g>
	<path d="M669,90c0.4-0.5,0.9-0.9,1.4-1.2c0.5-0.4,1-0.7,1.6-0.9c0.6-0.2,1.2-0.3,1.8-0.3c0.602,0,1.2,0.3,1.7,0.6
		c-0.5-0.3-1.1-0.4-1.7-0.3c-0.6,0.1-1.1,0.2-1.6,0.5c-0.5,0.3-0.9,0.6-1.4,1c-0.398,0.4-0.8,0.8-1.1,1.3L669,90z"/>
</g>
<g>
	<polygon points="678.9,96.1 682.5,93 679.6,96.8 	"/>
</g>
<g>
	<polygon points="683.4,99.6 685.6,96.8 684.3,100.1 	"/>
</g>
<g>
	<polygon points="672.2,92.2 675.5,90.2 672.8,93 	"/>
</g>
<g>
	<path d="M533.5,120.6c-1.6,0.4-3.3,0.6-4.9,0.8c-1.6,0.2-3.3,0.3-5,0.2c-1.6-0.1-3.3-0.3-4.8-1.1c-0.7-0.4-1.398-1-1.7-1.8
		c-0.398-0.8-0.398-1.6-0.3-2.4c-0.1,0.8,0,1.7,0.4,2.4c0.398,0.7,1,1.3,1.7,1.6c1.398,0.7,3.1,0.9,4.698,0.9
		c1.602,0,3.2-0.2,4.802-0.4c1.6-0.3,3.198-0.6,4.698-1.1L533.5,120.6z"/>
</g>
<g>
	<path d="M534.6,132c-0.698-0.7-1.8-1.2-2.8-1.5c-1.1-0.3-2.2-0.5-3.3-0.6c-2.3-0.1-4.6,0.2-6.8,0.7c2.2-0.7,4.5-1.1,6.8-1.2
		c1.2,0,2.3,0.1,3.5,0.4c1.2,0.3,2.3,0.7,3.3,1.5L534.6,132z"/>
</g>
<g>
	<path d="M528.1,135.5c-2.198-0.3-4.3-0.7-6.398-1.2c-2.102-0.5-4.2-1.1-6.2-2.1c2,0.8,4.1,1.2,6.3,1.6c2.102,0.3,4.3,0.6,6.4,0.7
		L528.1,135.5z"/>
</g>
<g>
	<path d="M523.3,92.6c-0.7,1.8-1.3,3.6-1.5,5.5c-0.1,0.9-0.1,1.9,0.4,2.7c0.5,0.8,1.6,1,2.6,0.8c-0.5,0.1-1,0.2-1.5,0.1
		c-0.5-0.1-1-0.4-1.3-0.8c-0.6-0.8-0.7-1.9-0.7-2.9s0.102-2,0.3-3c0.2-1,0.4-1.9,0.7-2.9L523.3,92.6z"/>
</g>
<g>
	<path d="M522.8,93.2c-2.5,2.5-4.8,5.1-7,7.8s-4.2,5.6-5.898,8.6c-1.7,3-3.2,6.3-3.5,9.8c-0.2,1.7,0,3.5,0.8,5.1
		c0.7,1.6,2,2.9,3.5,3.8c-1.5-0.9-2.8-2.1-3.602-3.7c-0.8-1.6-1.1-3.4-0.898-5.2c0.3-3.6,1.7-6.9,3.3-10c1.7-3.1,3.7-6,5.8-8.8
		c2.102-2.8,4.4-5.5,6.9-8.1L522.8,93.2z"/>
</g>
<g>
	<path d="M576.1,114.3c-3-1.1-6-2.4-8.898-3.8c-2.9-1.4-5.7-3-8.4-4.8c-1.3-0.9-2.6-1.9-3.8-3c-1.2-1.1-2.3-2.4-3-3.8
		s-1-3.2-0.5-4.7c0.5-1.6,1.6-2.8,2.9-3.8c-1.2,1-2.302,2.3-2.802,3.9c-0.5,1.5-0.198,3.2,0.602,4.6s1.8,2.6,3,3.7s2.5,2,3.8,2.9
		c2.7,1.8,5.5,3.2,8.4,4.6c2.898,1.3,5.898,2.5,8.898,3.6L576.1,114.3z"/>
</g>
<g>
	<path d="M590,107.9c-3.3-2.2-6.4-4.6-9.3-7.2c-2.9-2.6-5.7-5.5-7.9-8.7c-2.3-3.2-4.1-6.9-4.398-10.8c-0.2-2,0.1-4,0.898-5.8
		c0.7-1.8,1.9-3.5,3.2-4.9c-1.3,1.5-2.4,3.1-3.1,4.9c-0.7,1.8-0.9,3.8-0.7,5.7c0.398,3.9,2.3,7.5,4.6,10.6c2.3,3.1,5.102,5.9,8,8.5
		c3,2.5,6.102,4.9,9.4,7L590,107.9z"/>
</g>
<g>
	<path d="M600,67.9c-2.3,0.4-4.6,0.7-6.9,0.8c-2.3,0.1-4.698,0-6.898-0.6c-1.102-0.3-2.2-0.8-3.2-1.5c-0.9-0.8-1.5-1.9-1.6-3.1
		c-0.102-1.2,0.1-2.3,0.5-3.4C582.3,59,582.8,58,583.3,57c-0.5,1-1,2.1-1.3,3.2c-0.3,1.1-0.5,2.2-0.4,3.4
		c0.102,1.1,0.7,2.1,1.602,2.8c0.898,0.7,2,1.1,3,1.3c2.2,0.5,4.5,0.5,6.8,0.3s4.5-0.5,6.7-1.1L600,67.9z"/>
</g>
<g>
	<path d="M566.8,53.7c-1.398,0.3-2.8,1-4.1,1.8s-2.602,1.7-3.7,2.7c-2.3,2-4.3,4.4-6,7c-3.4,5.2-5.7,11-7.4,17c1.5-6,3.7-12,7-17.3
		c1.7-2.7,3.602-5.2,5.9-7.3c1.2-1.1,2.4-2,3.8-2.9c1.4-0.8,2.8-1.6,4.4-2L566.8,53.7z"/>
</g>
<g>
	<path d="M602.9,86.9c-0.4-1.9-1-3.8-1.802-5.6c-0.8-1.8-1.898-3.5-3.3-4.9c-1.398-1.4-3.1-2.4-5.1-2.8s-4-0.1-5.9,0.5
		c1.9-0.7,3.9-1.1,5.9-0.8c2,0.3,3.898,1.3,5.398,2.7s2.7,3.1,3.602,4.9c0.898,1.8,1.6,3.7,2.1,5.7L602.9,86.9z"/>
</g>
<g>
	<path d="M615.2,56.6c0.2,0.4,0.1,0.6,0.1,0.8c-0.1,0.2-0.1,0.4-0.2,0.6c-0.198,0.4-0.398,0.7-0.698,0.9c-0.5,0.5-1.102,1-1.602,1.4
		c-1.2,0.8-2.398,1.5-3.7,2.1c1.2-0.8,2.302-1.6,3.302-2.5c0.5-0.5,1-1,1.398-1.5c0.2-0.3,0.4-0.5,0.5-0.8
		c0.102-0.1,0.102-0.3,0.102-0.4c0-0.1,0-0.3,0-0.2L615.2,56.6z"/>
</g>
<g>
	<path d="M684.8,30.3c-3.398,0.8-6.7,1.9-9.898,3.3c-3.2,1.4-6.302,3-9.302,4.8c-5.898,3.7-11.1,8.7-14.5,14.9
		c3.2-6.3,8.4-11.4,14.2-15.3c2.9-2,6-3.7,9.2-5.1s6.5-2.7,10-3.6L684.8,30.3z"/>
</g>
<g>
	<path d="M658.8,35.1c-3.7,2.4-7.398,5.1-10.7,8c-1.698,1.5-3.3,3-4.8,4.7c-0.7,0.8-1.398,1.7-2,2.7c-0.6,1-1,2-1,3.1
		c0-1.1,0.4-2.2,0.9-3.2s1.2-1.9,1.898-2.8c1.4-1.8,3-3.4,4.602-4.9c3.3-3,6.8-5.8,10.5-8.4L658.8,35.1z"/>
</g>
<g>
	<path d="M723,53.9c-2.6,2.1-5.2,4.1-7.9,6.1c-2.698,1.9-5.5,3.8-8.3,5.5c-5.7,3.4-11.7,6.4-18,8.3c6.3-2,12.2-5.2,17.8-8.7
		c2.802-1.8,5.5-3.7,8.102-5.6c2.6-2,5.2-4,7.7-6.2L723,53.9z"/>
</g>
<g>
	<path d="M734.2,84.2c-0.8,0.8-1.5,1.9-2.2,3c-0.7,1.1-1.3,2.2-1.8,3.3c-1.102,2.3-2.102,4.6-3.102,7c0.802-2.4,1.602-4.8,2.602-7.2
		c0.5-1.2,1-2.4,1.6-3.5c0.602-1.2,1.2-2.3,2.102-3.3L734.2,84.2z"/>
</g>
<g>
	<path d="M740.7,92c-0.8,0.6-1.7,1.3-2.4,2c-0.8,0.7-1.5,1.5-2.1,2.4c-0.602,0.9-1.2,1.8-1.602,2.8c-0.398,1-0.6,2.1-0.398,3.2
		c-0.2-1.1-0.102-2.2,0.2-3.3c0.3-1.1,0.8-2.1,1.398-3c0.602-0.9,1.3-1.8,2-2.6s1.5-1.6,2.4-2.3L740.7,92z"/>
</g>
<g>
	<path d="M767.7,102.5c-1.602-1.1-3.3-2-5-2.7c-1.8-0.8-3.602-1.3-5.5-1.6c-1.9-0.3-3.8-0.2-5.602,0.4c-1.8,0.6-3.398,1.9-4.5,3.4
		c1.102-1.6,2.602-3,4.4-3.7c1.8-0.7,3.8-0.9,5.8-0.7c2,0.2,3.9,0.7,5.7,1.4s3.6,1.6,5.3,2.6L767.7,102.5z"/>
</g>
<g>
	<path d="M747,114.8c-3.2-2-6.5-3.8-9.8-5.5c-3.4-1.6-6.8-3.1-10.4-4.2c-1.8-0.5-3.6-0.9-5.5-1.1c-1.898-0.2-3.8-0.1-5.5,0.5
		c-1.8,0.6-3.3,1.9-4,3.6c-0.8,1.7-1,3.6-1,5.5c0-1.9,0.102-3.8,0.9-5.6c0.7-1.8,2.2-3.2,4.1-3.8c1.8-0.7,3.8-0.8,5.602-0.6
		c1.898,0.1,3.8,0.5,5.6,1c3.7,1,7.2,2.4,10.6,4c3.4,1.6,6.802,3.4,10,5.3L747,114.8z"/>
</g>
<g>
	<path d="M756.9,141.3c-1.4-2.9-3.102-5.7-5-8.3c-2-2.6-4.2-5-7-6.7c-1.4-0.9-2.9-1.5-4.4-1.9c-1.6-0.3-3.2-0.3-4.8,0.1
		c-3.2,0.8-5.9,2.8-8.2,5.1c2.2-2.4,4.9-4.5,8.1-5.4c1.602-0.4,3.302-0.5,4.9-0.2s3.2,1,4.6,1.8c2.9,1.7,5.2,4.1,7.302,6.7
		c2.1,2.6,3.8,5.4,5.3,8.4L756.9,141.3z"/>
</g>
<g>
	<path d="M786.5,147.5c-1.2,3.3-3.9,5.8-7,7.1c-3.1,1.3-6.5,1.5-9.8,1.2c-3.3-0.3-6.5-1.2-9.602-2.2c-3.1-1.1-6.1-2.4-9-3.9
		c3,1.4,6,2.6,9.102,3.6c3.1,1,6.3,1.7,9.6,2c3.2,0.2,6.602-0.1,9.5-1.4c2.9-1.3,5.3-3.7,6.3-6.7L786.5,147.5z"/>
</g>
<g>
	<path d="M728.9,181.8c1.8-3.6,3.398-7.2,4.398-11c1-3.8,1.4-7.8,0.3-11.6c-0.5-1.9-1.5-3.6-2.8-5.1s-2.898-2.7-4.7-3.6
		c-3.5-1.8-7.5-2.7-11.398-3.1c3.898,0.4,7.898,1.1,11.5,2.9c1.8,0.9,3.5,2,4.8,3.5c1.4,1.5,2.4,3.3,3,5.2c1.2,3.9,0.9,8.1-0.1,11.9
		c-0.9,3.9-2.5,7.6-4.2,11.2L728.9,181.8z"/>
</g>
<g>
	<path d="M633.6,145c3.602-2.2,7.302-4.3,11.2-5.9c1.9-0.8,3.9-1.6,6-2c1-0.2,2.102-0.4,3.102-0.4c1.1,0,2.1,0.1,3.1,0.5
		c-1-0.4-2-0.5-3.1-0.4c-1,0.1-2.102,0.3-3.102,0.6c-2,0.6-4,1.4-5.898,2.2c-3.802,1.8-7.4,4-10.802,6.3L633.6,145z"/>
</g>
<g>
	<path d="M752.4,160.2c-1.4-0.6-2.4-1.5-3.5-2.5c-1-1-1.802-2.1-2.5-3.3c-1.4-2.4-2.2-5-2.7-7.7c0.6,2.6,1.6,5.2,3.1,7.4
		c0.7,1.1,1.602,2.1,2.602,3s2.1,1.6,3.3,2.1L752.4,160.2z"/>
</g>
<g>
	<path d="M717.5,205.8c-0.7,0-1.3-0.1-1.9-0.3c-0.6-0.2-1.198-0.5-1.6-1.1s-0.4-1.3-0.2-1.8c0.2-0.6,0.4-1.1,0.8-1.6
		c-0.198,0.5-0.398,1.1-0.5,1.7c-0.1,0.6,0,1.1,0.4,1.5c0.3,0.4,0.9,0.6,1.4,0.7s1.1,0.1,1.6,0.1V205.8z"/>
</g>
<g>
	<path d="M722.6,128.8c-1.3-0.2-2.5-0.5-3.698-1c-0.602-0.2-1.2-0.5-1.7-0.9s-1-0.9-1.2-1.5c0.3,0.6,0.8,1,1.3,1.3
		c0.5,0.3,1.102,0.5,1.7,0.6c1.2,0.3,2.4,0.4,3.7,0.4L722.6,128.8z"/>
</g>
<g>
	<path d="M701.8,138.7c4.7-1.6,9.5-2.5,14.4-2.5c4.898,0,9.898,1.1,14,3.8c4.1,2.7,7,7,8.6,11.5c1.602,4.6,2.2,9.5,2.4,14.3
		c-0.2-4.8-0.9-9.7-2.602-14.2c-1.698-4.5-4.6-8.7-8.698-11.2c-4.102-2.6-9-3.6-13.7-3.5c-4.8,0.1-9.602,1-14.102,2.7L701.8,138.7z"
		/>
</g>
<g>
	<path d="M489.7,131.7c1-0.1,2-0.2,3-0.4c1-0.2,2-0.5,2.898-1c0.9-0.5,1.7-1.1,2.302-1.9c0.5-0.9,0.698-1.9,0.398-3
		c0.3,1,0.3,2.1-0.2,3.1s-1.3,1.7-2.198,2.2c-0.9,0.6-1.9,1-2.9,1.3s-2,0.5-3.1,0.7L489.7,131.7z"/>
</g>
<g>
	<path d="M574.5,129.4c-1.2-1.1-2.2-2.3-3.2-3.6c-1-1.3-1.898-2.6-2.7-3.9c-1.698-2.7-3-5.6-4-8.6c1.2,2.9,2.7,5.7,4.4,8.3
		c0.9,1.3,1.8,2.5,2.9,3.7c1,1.2,2.1,2.3,3.3,3.3L574.5,129.4z"/>
</g>
<g>
	<path d="M679.7,86.3c-0.5-0.7-1-1.4-1.602-2.1c-0.6-0.6-1.3-1.2-2-1.7c-0.698-0.4-1.6-0.7-2.5-0.5c-0.8,0.2-1.6,0.8-2.1,1.5
		c0.5-0.8,1.1-1.5,2-1.8c0.9-0.3,1.9-0.1,2.8,0.3c0.9,0.4,1.602,0.9,2.3,1.6c0.7,0.6,1.302,1.3,1.9,2L679.7,86.3z"/>
</g>
<g>
	<path d="M670.2,64.1c-0.102-0.1-0.4-0.1-0.7-0.1s-0.6,0.1-0.8,0.2c-0.602,0.2-1.102,0.6-1.602,1c-1,0.8-1.8,1.9-2.5,3
		c0.602-1.2,1.302-2.3,2.2-3.3c0.5-0.5,1-1,1.602-1.3c0.6-0.3,1.3-0.6,2.3-0.3L670.2,64.1z"/>
</g>
<g>
	<path d="M775.5,121.2c-0.9-2.4-2.1-4.7-3.5-6.8s-3.1-4-5.2-5.6c-2-1.5-4.5-2.5-7.1-2.7c-2.602-0.2-5.102,0.5-7.5,1.5
		c2.3-1.1,4.898-1.9,7.5-1.8c2.6,0.1,5.2,1,7.3,2.5c2.2,1.5,4,3.4,5.5,5.5c1.5,2.1,2.8,4.4,3.9,6.8L775.5,121.2z"/>
</g>
<g>
	<path d="M678.8,159.9c-0.3-1.3-0.5-2.7-0.6-4c-0.102-1.3,0-2.7,0.3-4c0.3-1.3,0.8-2.6,1.6-3.7c0.802-1.1,1.9-1.9,3.2-2.4
		c-1.2,0.5-2.3,1.4-3,2.5c-0.7,1.1-1.1,2.4-1.3,3.6c-0.2,1.3-0.2,2.6,0,3.9c0.1,1.3,0.4,2.6,0.8,3.8L678.8,159.9z"/>
</g>
<g>
	<path d="M678.8,164c0-1.1,0-2.2,0.2-3.3c0.2-1.1,0.4-2.1,0.7-3.2c0.7-2,1.898-4,3.8-5.1c-1.8,1.2-2.8,3.2-3.3,5.2
		c-0.3,1-0.4,2.1-0.5,3.1c-0.102,1-0.102,2.1,0.1,3.1L678.8,164z"/>
</g>
<g>
	<path d="M674.9,152.9c-0.2-0.8-0.302-1.6-0.302-2.4s0.102-1.6,0.302-2.4c0.398-1.5,1.3-2.9,2.398-3.9c-1.1,1.1-1.8,2.5-1.898,4
		c-0.102,0.7-0.102,1.5,0,2.2c0.1,0.7,0.3,1.5,0.5,2.1L674.9,152.9z"/>
</g>
<g>
	<path d="M678.8,164.5c0-1,0.102-2,0.3-2.9c0.2-0.9,0.5-1.9,1-2.7c0.5-0.9,1.102-1.6,2-2.1c0.802-0.5,1.802-0.7,2.7-0.7
		c-0.898,0.1-1.898,0.4-2.6,0.9s-1.3,1.3-1.602,2.2c-0.398,0.8-0.6,1.7-0.698,2.6c-0.102,0.9-0.102,1.8-0.102,2.7H678.8z"/>
</g>
<path fill="none" stroke="#000000" stroke-width="0.25" stroke-miterlimit="10" d="M696.2,115.2c0,0-12,2.2-12.3,10.5"/>
<path fill="none" stroke="#000000" stroke-width="0.25" stroke-miterlimit="10" d="M699.5,130.4c0,0-3.3,1.1-4.2,3.6"/>
<g>
	<path d="M691.8,128c1.3-1.2,2.7-2.2,4.3-3c1.602-0.8,3.2-1.4,4.9-1.8c1.7-0.3,3.5-0.4,5.2-0.3s3.5,0.6,5.1,1.2
		c-1.7-0.6-3.398-0.9-5.1-1.1c-1.7-0.1-3.5,0-5.2,0.4c-1.7,0.3-3.3,0.9-4.9,1.7C694.6,125.9,693.2,126.9,691.8,128z"/>
</g>
</svg>
