<?xml version="1.0" encoding="utf-8"?>
<!-- Generator: Adobe Illustrator 15.0.0, SVG Export Plug-In . SVG Version: 6.00 Build 0)  -->
<!DOCTYPE svg PUBLIC "-//W3C//DTD SVG 1.1//EN" "http://www.w3.org/Graphics/SVG/1.1/DTD/svg11.dtd">
<svg version="1.1" id="layer_x5F_www.ABC-color.com"
	 xmlns="http://www.w3.org/2000/svg" xmlns:xlink="http://www.w3.org/1999/xlink" x="0px" y="0px" width="822px" height="567px"
	 viewBox="0 0 822 567" enable-background="new 0 0 822 567" xml:space="preserve">
<rect display="none" fill="#FFFFFF" width="822" height="567"/>
<path fill="#FFFFFF" stroke="#000000" d="M417,210.3c-7.1,11.2-17,5.7-17,5.7c-8.9-6-4.4-14.5-4.4-14.5
	C411.9,193.8,417,210.3,417,210.3z"/>
<path fill="#FFFFFF" stroke="#000000" d="M756.6,477.9c0,0,11.9,8.1,7.9,11.1c-5.6,4.1-10.1,11.9-10.1,11.9
	C726.4,541.1,678.9,527.6,666.3,523.1C705.4,495.5,663.9,452.9,663.9,452.9C731.2,422.6,756.6,477.9,756.6,477.9z"/>
<path fill="#FFFFFF" stroke="#000000" d="M666.3,523.1C665.9,523.4,665.4,523.7,665,524c0,0-38.5-32.5-1.1-71.1
	C663.9,452.9,705.4,495.5,666.3,523.1z"/>
<path fill="#FFFFFF" stroke="#000000" d="M157.2,534.9c1.1,0-49.8,30.1-86.2-22.2c0,0-4.5-7.8-10.1-11.9c-4-3,7.9-11.1,7.9-11.1
	s25.4-55.3,92.7-25c0,0-42.7,40.7-3.5,68.2L157.2,534.9z"/>
<path fill="#FFFFFF" stroke="#000000" d="M158,533c-39.2-27.5,3.5-68.2,3.5-68.2c37.4,38.602-2.2,69-2.2,69
	C158.8,533.5,158.4,533.2,158,533z"/>
<path fill="#FFFFFF" stroke="#000000" d="M383.1,481.1L381.7,481.2c-3,2-1,11-23,36c-12.4,14-75,20-91,18c-9.9-1.2,12.7-18.8,24-23
	c27-10,44-15,44-15c-22.9-38.8-25.3-64.4-19.3-81.4c10.3-29,45.3-32.6,45.3-32.6l0.6-0.2c9.3,24.2,21.602,48.9,23.5,52.5
	C382.8,448.7,381.4,463.8,383.1,481.1z"/>
<path fill="#FFFFFF" stroke="#000000" d="M437.8,492.4H437c-0.9,23.1-13.3,50.898-13.3,50.898c-122,33-91,6-91,6l58-31
	c-4.102-13.3-6.5-25.7-7.602-37.1c-1.6-17.3-0.3-32.5,2.7-45.602c9.5-41.6,35.602-62.3,35.602-62.3c53.3-35,82.3,45,82.3,45
	s1.8,3.8,4.3,9.7c7.1,16.8,19.9,51.1,13.7,65.3c0,0-6.7,51.7-56.7,45.7C465,539,435.7,532.9,437.8,492.4z"/>
<path fill="#FFFFFF" stroke="#000000" d="M354.1,334.5c1.7-5.7,3.4-12.5,3.802-17.6c2.1-2.102,5.3-7,9.898-16
	c5.9,31.398,43.9,40.398,43.9,40.398s-1,29.5,9.7,32c0,0-26.102,20.7-35.602,62.3c-1.8-3.6-14.1-28.3-23.5-52.499
	c-6.1-15.899-10.898-31.5-10.6-41C352.4,340.1,353.2,337.5,354.1,334.5z"/>
<path fill="#FFFFFF" stroke="#000000" d="M423.9,285.2c0.198,7.1,0.8,15.1,0.8,15.1c-4.2,18.8-23,3-23,3c-20.602-30.2-31-32-31-32
	c-5.102-5.2-11.2-6-16.7-5l-0.3-2c0,0-1.2-1.9-3.5-5c1.398-2.6,6-10.4,17.1-20c0,0,0.102,37.2,37.7,20.1c0,0,7.3,4.7,18.4,7.5
	l-0.102,0.4C422.9,273.5,423.9,285.2,423.9,285.2z"/>
<path fill="#FFFFFF" stroke="#000000" d="M400.8,239.9l-0.398,0.3c0,0-21.802,7.5-20.802-14.8v-0.2c8.102,2,18.4-3,18.4-3h0.3
	C397.5,227.5,397.2,234.8,400.8,239.9z"/>
<path fill="#FFFFFF" stroke="#000000" d="M454.7,182.7c0,0,18.2,11.3,5,39.6c0,0-5.4-4.2-12.5-7.7c1.8-2.4,3.398-5.6,4.6-9.4
	c2.602-8.3,2.102-15.8-1.2-16.9c-3.3-1-8.1,4.8-10.8,13.1c-1.1,3.5-1.7,6.9-1.7,9.7c-4-1.1-8.1-1.6-11.8-0.8
	C426.4,210.3,434,172.6,454.7,182.7z"/>
<path fill="#FFFFFF" stroke="#000000" d="M450.7,188.3c3.3,1.1,3.898,8.6,1.2,16.9c-1.2,3.8-2.9,7.1-4.602,9.4
	c-2.8-1.4-5.898-2.7-9-3.5c0-2.8,0.5-6.2,1.7-9.7C442.5,193.1,447.3,187.3,450.7,188.3z"/>
<path fill="#FFFFFF" stroke="#000000" d="M749.7,97.3c4.398,10.8-25.7-3.4-57.3,21.9l-36.7,7.1l28-30l-29,8l22-25l-43,7l27-22
	l-0.2-0.8c10.4-2.5,21.5-4.2,33.3-5c9.5-0.6,28.9,6.8,37.9,15.8C731.7,74.3,740.7,75.3,749.7,97.3z"/>
<path fill="#FFFFFF" stroke="#000000" d="M655.7,126.3l36.7-7.1c-6.302,5-12.602,11.5-18.7,20.1c-37.7,53-21,183-53.9,270.3
	C603.5,452.9,575,485.7,521.7,493.3c6.1-14.3-6.7-48.5-13.7-65.3c-1-31.4,0-36.7,0.7-33c0,0.1,0,0.2,0,0.3
	c0,0-28.7-288.1,151.8-331.8l0.2,0.8l-27,22l43-7l-22,25l29-8L655.7,126.3z"/>
<path fill="#FFFFFF" stroke="#000000" d="M507.5,76.8c0.5,2.4,1.8,4.4,3.4,5.8c-11,14.5-37.4,50.1-43.302,62.9
	c-1.1-0.9-6.198-5-13.6-9.8l0.1-0.2C454.1,135.5,481.3,83.5,507.5,76.8z"/>
<path fill="#FFFFFF" stroke="#000000" d="M507.5,76.8c-0.2-0.8-0.3-1.6-0.3-2.5c0-3.8,1.8-7.2,4.6-9c1.4-0.9,3.102-1.5,4.9-1.5
	c5.3,0,9.5,4.7,9.5,10.5c0,0.9-0.102,1.8-0.3,2.6c-1.102,4.5-4.802,7.9-9.2,7.9c-0.3,0-0.7,0-1,0c-1.8-0.2-3.5-1-4.8-2.1
	C509.2,81.2,508,79.1,507.5,76.8z"/>
<path fill="#FFFFFF" stroke="#000000" d="M513.7,38.1c23.6,12.2,13,38,12.7,38.8l0,0l-0.5-0.1c0.198-0.8,0.3-1.7,0.3-2.6
	c0-5.8-4.3-10.5-9.5-10.5c-1.8,0-3.5,0.6-4.9,1.5l-0.1-0.2C511.7,65.1,518.7,44.1,513.7,38.1z"/>
<path fill="#FFFFFF" stroke="#000000" d="M399.9,33.8c-3.102,0-5.9,1.6-7.5,4l-0.4-0.1c0,0,5.9-16.9,4.5-23.8
	c-1.7-8.3-1.2-8.2,1.8-5.2c13.2,13.2,10.9,30.1,10.4,32.8C408.1,37.1,404.4,33.8,399.9,33.8z"/>
<path fill="#FFFFFF" stroke="#000000" d="M408.8,41.4c0.102,0.4,0.102,0.9,0.102,1.4c0,3.4-1.9,6.3-4.602,7.9
	c-0.8,0.4-1.6,0.7-2.398,0.9c-0.602,0.1-1.302,0.2-1.9,0.2c-1.9,0-3.6-0.6-5-1.5c-0.1-0.1-0.1-0.1-0.2-0.1c-2.3-1.6-3.8-4.3-3.8-7.3
	c0-1.9,0.6-3.6,1.5-5c1.6-2.4,4.3-4,7.5-4C404.4,33.8,408.1,37.1,408.8,41.4L408.8,41.4z"/>
<path fill="#FFFFFF" stroke="#000000" d="M404.2,50.6c9.398,18.2,5.898,63.4,5.5,68.4c-3.602-0.2-7.2-0.1-10.8,0.4
	c0,0,7.3-47.7,2.898-67.9C402.7,51.4,403.5,51,404.2,50.6z"/>
<path fill="#FFFFFF" stroke="#000000" d="M388.7,156.8c22.398,5.4,4.3,39.4,4.3,39.4c-2.3-3-5.8-5.3-9.6-6.9
	c1.8-2.2,3.5-5.1,4.898-8.5c3.2-8.1,3.2-15.7,0-16.9c-3.2-1.3-8.5,4.2-11.7,12.3c-1.5,3.7-2.3,7.3-2.398,10.2
	c-7.7-1.8-14.5-2-14.5-2C367.4,154,388.7,156.8,388.7,156.8z"/>
<path fill="#FFFFFF" stroke="#000000" d="M388.2,163.7c3.2,1.3,3.2,8.9,0,16.9c-1.4,3.4-3.102,6.4-4.9,8.5c-3-1.3-6.2-2.3-9.2-3
	c0.102-2.9,0.9-6.5,2.4-10.2C379.8,168,385,162.5,388.2,163.7z"/>
<path fill="#FFFFFF" stroke="#000000" d="M383.4,189.2c3.8,1.7,7.3,3.9,9.6,6.9c0,0,18.1-33.9-4.3-39.4c0,0-21.3-2.8-29,27.4
	c0,0,6.8,0.2,14.5,2C377.2,187,380.4,187.9,383.4,189.2z M400,216c0,0,9.9,5.5,17-5.7c0,0-5.1-16.6-21.4-8.8
	C395.6,201.5,391.1,210,400,216z M400.8,239.9c-3.6-5.2-3.3-12.5-2.398-17.6H398.1c0,0-10.3,5-18.398,3v0.2
	c-1,22.3,20.8,14.8,20.8,14.8L400.8,239.9z M447.3,214.6c7.102,3.5,12.5,7.7,12.5,7.7c13.2-28.3-5-39.6-5-39.6
	c-20.8-10.1-28.3,27.7-28.3,27.7c3.7-0.8,7.8-0.4,11.8,0.8C441.4,212,444.5,213.3,447.3,214.6z M467.7,145.4
	C473.6,132.7,500,97.1,511,82.5c1.4,1.2,3,1.9,4.8,2.1c-0.8,52.1-20.1,82.8-20.1,82.8c2.8,42-24.8,60-24.8,60
	c14.3,16.5,2,30.3,2,30.3c-7.7,5.5-15.5,8.6-22.802,10c-9.898,1.9-19.1,1-26.6-0.9c-11.1-2.8-18.4-7.5-18.4-7.5
	c-37.6,17.1-37.698-20.1-37.698-20.1c-8.2,0.5-30.9-11.8-30.9-11.8c-16-13.5-6.8-29.5-6.8-29.5c4-12.3,15.6-12.2,20.8-14.8
	c2.5-42.2,20-62.6,20-62.6c-4.9-23.1,15.3-57,24.2-70.5c0.1,0,0.1,0.1,0.2,0.1c1.398,1,3.1,1.5,5,1.5c0.698,0,1.3-0.1,1.898-0.2
	c4.4,20.2-2.898,67.9-2.898,67.9c3.5-0.6,7.198-0.7,10.8-0.4c16.5,1.1,33.1,9.6,44.3,16.7C461.5,140.4,466.6,144.5,467.7,145.4z"/>
<path fill="#FFFFFF" stroke="#000000" d="M352,281c-0.8,0.5-41.7,24.7-13.3-7.8c0,0,2.398-1.9,6.1-3.8c2.602-1.3,5.8-2.6,9.3-3.2
	c5.5-1,11.5-0.1,16.7,5c0,0,10.4,1.8,31,32c0,0,18.8,15.8,23-3c0,0-0.6-8-0.8-15.101c0,0-1-11.601-0.5-17.899l0.1-0.4
	c7.5,1.9,16.7,2.8,26.602,0.9l0.1,0.5c0,0,29.602,22,39.602,64c0,0,13.898,32.3,19,62.7c-0.7-3.7-1.602,1.6-0.7,33
	c-2.5-5.9-4.3-9.7-4.3-9.7s-29-80-82.301-45c-10.699-2.5-9.699-32-9.699-32s-38-9-43.9-40.4c-4.6,9-7.8,13.9-9.899,16
	c-8.199,8.3,0-26.1,0.101-25.899C358,291,324,315,352,281z"/>
<path fill="#FFFFFF" stroke="#000000" d="M358,291c0-0.2-8.3,34.2-0.1,25.9c-0.4,5.1-2.102,12-3.802,17.6
	c-1.6,1.5-2.3,4.1-2.398,7.5c-0.602,1.8-1,3-1,3c-4.5,8.8-1.9,18.3-1.9,18.3l-18-4.7c-31.5,0.9-55.1-23.699-57-25.6
	c-3.7-25-9.2-60.5-4.8-58.2c6.7,3.5,37.3,31.601,60.4,34.601c10.898,1.5-33.9-57.5-33.9-57.5c25.6,14,49.2,17.4,49.2,17.4l0.1,0.2
	c-3.7,1.9-6.1,3.8-6.1,3.8c-28.4,32.5,12.5,8.2,13.3,7.8C324,315,358,291,358,291z"/>
<path fill="#FFFFFF" stroke="#000000" d="M295.5,251.9c0,0,44.9,59,33.9,57.5C306.3,306.3,275.7,278.3,269,274.8
	c-4.4-2.3,1.2,33.2,4.8,58.2c2,13.5,3.4,24,2.4,23.6c-27.4-9.898-44.3-60.699-44.3-60.699c-5-34.601,9.2-55.199,9.2-55.199L252,229
	c48.9-26.9,86.8,15.3,98.2,30.3c2.3,3,3.5,5,3.5,5l0.3,2c-3.5,0.6-6.7,1.9-9.3,3.2l-0.102-0.2C344.7,269.3,321.1,265.9,295.5,251.9z
	"/>
<path fill="#FFFFFF" stroke="#000000" d="M252,229l-10.8,11.6C228,218,216,206,216,206s-15-12,2-10C238.9,198.5,252,229,252,229z"/>
<path fill="none" stroke="#000000" stroke-width="0.25" d="M468.4,186.2c0,0,2.5-14,26.5-20"/>
<path fill="none" stroke="#000000" stroke-width="0.25" d="M460.4,180.7c0,0,0.8-18.5,24.5-25.8"/>
<path fill="none" stroke="#000000" stroke-width="0.25" d="M452.4,177.2c0,0-7.5-13.3,21-31.5"/>
<path fill="none" stroke="#000000" d="M401.3,239.7c0,0,18.2,11.7,18.9-6.5"/>
<path fill="none" stroke="#000000" d="M380,226.5c-1.2-0.6-5.4-4.6-6.4-5.7c0,0-6.698-8.7,2.302-12.4"/>
<path fill="none" stroke="#000000" stroke-width="0.25" d="M379,153.7c0,0,7-12.4-7.8-32.3"/>
<path fill="none" stroke="#000000" stroke-width="0.25" d="M388.4,152.5c0,0,7.898-16.7-9.802-34.2"/>
<path fill="none" stroke="#000000" stroke-width="0.25" d="M395.9,154.2c0,0,12.8-8.2-3.9-37.7"/>
<path fill="none" stroke="#000000" d="M436.8,493.2c0,0,4.9-61.102,18.5-63"/>
<path fill="none" stroke="#000000" d="M411.5,341.9c0,0,35.2,13,45.1-13"/>
</svg>
