<?xml version="1.0" encoding="utf-8"?>
<!-- Generator: Adobe Illustrator 15.0.0, SVG Export Plug-In . SVG Version: 6.00 Build 0)  -->
<!DOCTYPE svg PUBLIC "-//W3C//DTD SVG 1.1//EN" "http://www.w3.org/Graphics/SVG/1.1/DTD/svg11.dtd">
<svg version="1.1" id="layer_x5F_www.ABC-color.com"
	 xmlns="http://www.w3.org/2000/svg" xmlns:xlink="http://www.w3.org/1999/xlink" x="0px" y="0px" width="822px" height="567px"
	 viewBox="0 0 822 567" enable-background="new 0 0 822 567" xml:space="preserve">
<rect display="none" fill="#FFFFFF" width="822" height="567"/>
<path fill="#FFFFFF" stroke="#000000" d="M662.4,281.5c3.3,3.7,8.198,5.4,12.698,7.3c0.102,0.2,0.2,0.5,0.302,0.7
	c-6,6.5-19.802,7.1-25-1C654.5,286.2,658.6,284,662.4,281.5z"/>
<path fill="#FFFFFF" stroke="#000000" d="M663.4,263.5c-10.2,1-22.4-9.4-17.7-19.8c10.398-0.7,22,1.9,32.6-0.9
	C684.9,252,673.3,263.6,663.4,263.5z"/>
<path fill="#FFFFFF" stroke="#000000" d="M623.4,316.5c4.898,15.3-15.602,30.1-19.802,50c-1.3,6.4,0.2,20-10.198,24.7
	c-1.5,0.399-2.4,0-3.2-0.5c-6,8.1-16.102,23.6-29,16c-6.9,6-17.4,7.6-24.8,12.8c-8.802,4-15.602,15.3-27,13
	c-13.2-3.7-11.802,10.8-17,18c-7.102,7.5-17.302,9.2-27,10c-15.302,3.8-28.9-9.4-42.302-8.7c-14.6,0.7-23.3,19.3-37.5,5.7
	c-2.6-3.3-4.5-7-6.5-10.7c-10.398-1.7-19.1,5.7-28.698,8.7c-9.5,0.6-14.102-9.2-19-15.6c-14.302,6.3-44.4,38-51.3,8.898
	c-4.1-1.3-8,1.4-11.7,2.7c-9.1,6.1-23.5,10.1-31-1c-5-5.9-10.4-11.7-16.3-16.7c-2.9-1-6,0.3-8.4,2c-0.1,0.2-0.2,0.5-0.3,0.7
	c-17.4,7.4-24.7-11.1-26-24.7c-4.1-0.3-8.2-0.398-12-2.3c-11.6-6.4-11.4-20.899-14-31.7c-13.3-1.898-30.1-8.3-33.3-23
	c-0.2-0.1-0.5-0.199-0.7-0.3c-0.5-3.3,0.2-11.5-1-17c-2.7-12.2-13.4-10.2-18.8-23c-1.8-4.3-1.4-11.601-1.2-18c0.5-17.9,0-43.2,0-64
	c0-1,0.4-2,0.8-3c-0.9-35,26-60.8,56.2-74.2c11.3-25.8,40.8-27.3,65-26.1c5.1-20.8,32.9-17.3,49.7-17c11.8-8.3,17.9-21.3,36.3-18.7
	c9.698,1.4,28.1,14.7,38,8.7c17.398-10.6,24.898-13.8,39-11.7c6.6,1,16.6,6.4,24.698,8.7c7.2-3,12.4-4.2,18.302-3.7
	c13.5,1.3,29.198,19.8,40.198,16.2c17.7-5.8,38.302-3.2,50,11.5c16.802,0.3,23.7,20.2,30.802,32.3c-7.9,12.3-15.302,29.3-30,34
	c16.198,4.4,37.198,5.4,54,4c-1.2,23.1-4.602,51.6-1,73C581.4,290,594.6,300.8,623.4,316.5z"/>
<path fill="#FFFFFF" stroke="#000000" d="M125.5,337.5c1.2,5.5,0.5,13.7,1,17c-10.5,10.8-25,10.5-34,3.8
	c-14.9-11.2-29.6-63.2-27-84.8c0.7-5.4,1.9-10.6,3.7-15.4c6.2-16.7,19-28.5,36.3-25.6c0,20.8,0.5,46.1,0,64
	c-0.2,6.4-0.6,13.7,1.2,18C112.1,327.3,122.7,325.3,125.5,337.5z"/>
<path fill="#FFFFFF" stroke="#000000" d="M236.5,530.4c-0.4-25.802-0.6-53.802,1-80c7.5,11.1,21.9,7.1,31,1c-1.2,27,3.1,55.198-4,81
	C255.2,531.1,245.9,530.3,236.5,530.4z"/>
<path fill="#FFFFFF" stroke="#000000" d="M174.5,409.5c3.8,1.9,7.9,2,12,2.3c1.3,13.602,8.6,32.102,26,24.7
	c-0.9,29.3,1.3,58.5,0.5,87.5c-11.5-2.6-23.6-1.1-35.5-1.5C180.5,484.2,156.4,446.4,174.5,409.5z"/>
<path fill="#FFFFFF" stroke="#000000" d="M213,523.9c0.8,5.698-1,12.5-4.6,17.198c-1.3,0.302-2.6,0.302-3.9,0
	c-2.6-1.398-4.4-8.6-6-10.698c-2.7,5.398-8.1,9.6-13.7,11.698c-2.8-6.5-9.4-11.698-7.3-19.698C189.3,522.8,201.5,521.3,213,523.9z"
	/>
<path fill="#FFFFFF" stroke="#000000" d="M264.5,532.4c-0.9,5.698-2.3,13.198-6.9,16.698c-3.1-3.8-4.7-8.698-6.4-13.3
	c-4.5,1.5-4.9,7.9-7.7,11.3c-7.8-0.1-7.1-10.898-7-16.698C245.9,530.3,255.2,531.1,264.5,532.4z"/>
<path fill="#FFFFFF" stroke="#000000" d="M455.4,530.4c9.1-2,22.8,2.5,32.198,2.198c-2,6.102-3.3,18.4-14.198,17.5
	c-1.102-1.6-4.4-7.198-4.5-9.198c-0.9,2.198-1.2,4.898-3.5,6.198c-1.7,0.4-3.302,1.102-5,1.102c-0.602-0.4-1.2-0.8-1.7-1.102
	C456.8,541.8,455.2,536.2,455.4,530.4z"/>
<path fill="#FFFFFF" stroke="#000000" d="M506.4,531.4c10.5,2.5,21,6.198,32,6c-2.2,5.1-2.7,10.698-5.2,15.698
	c-4.2,0.4-9.7-1.1-10.3-5.8c-3,1.9-1.802,6.8-5.5,7.9C505.2,555.2,506.1,540.3,506.4,531.4z"/>
<path fill="#FFFFFF" stroke="#000000" d="M536.4,419.5c-5.2,40.1,14.6,79.2,2,118c-11,0.2-21.5-3.5-32-6
	c-1.302-16.9,6.398-31.4,8-47c1.698-16.9-4.102-36-5-52C520.8,434.7,527.7,423.4,536.4,419.5z"/>
<path fill="#FFFFFF" stroke="#000000" d="M492.4,450.4C493.6,475.3,495.3,509,487.6,532.6C478.2,532.9,464.5,528.4,455.4,530.4
	c-3-23.802,8.198-46.5,10-70C475.2,459.6,485.3,457.9,492.4,450.4z"/>
<path fill="#FFFFFF" stroke="#000000" d="M773.5,173c-20.1,6.5-43.5,5.3-64.1-0.5c0.3-19.6-1-39.3-10-57
	C726.5,96.8,748.9,164,773.5,173z"/>
<path fill="#FFFFFF" stroke="#000000" d="M586.9,120c27.698,14.1,28.6,69.8-8.5,73.5c-16.802,1.4-37.802,0.4-54-4
	c14.698-4.7,22.1-21.7,30-34c8.198-11.4,14.5-24.3,25.5-33.5C582.2,121,584.4,120.3,586.9,120z"/>
<path fill="#FFFFFF" stroke="#000000" d="M695.6,203.6c-12.898-4.8-23.1,1.3-25.198,3.8c-6.5-12.6-3.9-35.4,11-40.9
	c13.398,6,14.1,24.2,16,36.9L695.6,203.6z M681.7,200.5c4,0,7.3-4.5,7.3-10s-3.3-10-7.3-10s-7.3,4.5-7.3,10S677.7,200.5,681.7,200.5
	z"/>
<path fill="#FFFFFF" stroke="#000000" d="M681.7,180.5c4,0,7.3,4.5,7.3,10s-3.3,10-7.3,10s-7.3-4.5-7.3-10S677.7,180.5,681.7,180.5z
	 M685,192.2c0-2-1.4-3.7-3.2-3.7s-3.2,1.6-3.2,3.7c0,2,1.4,3.7,3.2,3.7S685,194.2,685,192.2z"/>
<path fill="#FFFFFF" stroke="#000000" d="M681.8,188.5c1.8,0,3.2,1.6,3.2,3.7c0,2-1.4,3.7-3.2,3.7s-3.2-1.6-3.2-3.7
	C678.7,190.1,680.1,188.5,681.8,188.5z"/>
<path fill="#FFFFFF" stroke="#000000" d="M623.4,187.5c8.3,3.6,7.6,18.5-2.4,19.2c-9.8-1-9.7-14.3-2.6-18.9
	C620.3,186.5,621.5,186.7,623.4,187.5z M625,198.2c0-1.9-1.6-3.5-3.5-3.5s-3.5,1.6-3.5,3.5c0,1.9,1.6,3.5,3.5,3.5
	S625,200.1,625,198.2z"/>
<path fill="#FFFFFF" stroke="#000000" d="M621.5,194.7c1.9,0,3.5,1.6,3.5,3.5c0,1.9-1.6,3.5-3.5,3.5s-3.5-1.6-3.5-3.5
	C618,196.2,619.6,194.7,621.5,194.7z"/>
<path fill="#FFFFFF" stroke="#000000" d="M636.3,209.3c-11-2.8-19.898-0.9-25.7,1.6l-0.198-0.4c0.398-12.7-0.9-26.7,6.1-37.7
	c13.5,3.2,18,25,19.8,36.4L636.3,209.3L636.3,209.3z M621,206.7c10-0.7,10.8-15.6,2.4-19.2c-1.9-0.8-3.102-1-5,0.3
	C611.3,192.4,611.2,205.7,621,206.7z"/>
<path fill="#FFFFFF" stroke="#000000" d="M663.4,263.5c9.8,0.1,21.5-11.4,14.898-20.7c-10.7,2.9-22.2,0.2-32.6,0.9
	C641,254,653.2,264.5,663.4,263.5z M695.6,203.6l1.802-0.2c-1.9-12.7-2.602-30.9-16-36.9c-14.9,5.5-17.5,28.3-11,40.9
	C672.4,205,682.7,198.8,695.6,203.6z M601.4,107.5c3.3,1.6,6,5,10,5c-2.7,24.4,30,28,27,1c0-0.3,0-0.7,0-1c5.698-1,10.398-6.4,14-11
	c3.8-0.7,7,1.1,10,3c-5.802,21.5,28.698,30.9,27,5c4,0.8,7,3.5,10,6c9,17.6,10.3,37.4,10,57c-1.7,9-2.2,16.4-1,24
	c2.5,15.4,14.5,23.1,18,42c1.3,6.9,0.698,14.9-0.4,22.5c-0.8,5.5-1.9,10.8-2.8,15.5c-10.602,53.6-61.4,60.5-98.8,40
	c-0.302,0-0.7,0-1,0c-28.802-15.7-42.102-26.5-46-50c-3.602-21.4-0.2-49.9,1-73c37.1-3.7,36.198-59.4,8.5-73.5
	C592.4,116.5,598.7,113.9,601.4,107.5z M662.4,281.5c-3.802,2.6-7.9,4.7-12,7c5.198,8.1,19,7.5,25,1c-0.102-0.2-0.2-0.5-0.302-0.7
	C670.7,286.8,665.8,285.2,662.4,281.5z M636.3,209.3v-0.1c-1.898-11.4-6.3-33.2-19.8-36.4c-7,11-5.7,25-6.1,37.7l0.198,0.4
	C616.4,208.3,625.3,206.5,636.3,209.3z"/>
<path fill="#FFFFFF" stroke="#000000" d="M636.4,64.5c2.898,15.6,1.8,31.9,2,48c0,0.3,0,0.7,0,1c3,27-29.7,23.4-27-1
	c1.5-19.2,4.198-44.7-14-57c-24.2-14.7-51.802,44.7-19.2,45.8c15.3-6.4-1.7-31.4,16.2-33.8c14.5,6.3,9.8,27.4,7,40
	c-2.7,6.4-9,9-14.5,12.5c-2.5,0.3-4.802,1-7,2c-0.2-0.1-0.4-0.2-0.602-0.4C518.4,125,546.1,26.7,596.4,28.5c5.3,0.2,13.3,3.6,20,5
	c4.698,4.6,10.8,8.7,14,15C633.1,53.6,634.5,59.3,636.4,64.5z"/>
<path fill="#FFFFFF" stroke="#000000" d="M653.4,22.5c37.6,6.2,37.398,51,36,87c1.698,25.9-32.802,16.5-27-5
	c4.698-21.8-0.2-67-32-56c-3.2-6.3-9.302-10.4-14-15C629.6,23.6,640.3,20.3,653.4,22.5z"/>
<path fill="#FFFFFF" stroke="#000000" d="M652.4,101.5c-3.602,4.6-8.302,10-14,11c-0.2-16.1,0.898-32.4-2-48
	C658.2,50.7,657.9,88.8,652.4,101.5z"/>
<path fill="#FFFFFF" stroke="#000000" d="M597.4,55.5c18.198,12.3,15.5,37.8,14,57c-4,0-6.7-3.4-10-5c2.8-12.6,7.5-33.7-7-40
	C594.7,63.4,597.6,59.7,597.4,55.5z"/>
<path fill="none" stroke="#000000" stroke-width="0.25" d="M206.4,400.3c0.7-2.3,5.6-0.398,8-1C213.7,401.5,208.8,399.7,206.4,400.3
	z"/>
<path fill="none" stroke="#000000" stroke-width="0.25" d="M498.4,364.3c-1,0.5-4.4,5.2-4,1C496.2,365.4,496.5,364.1,498.4,364.3z"
	/>
<path fill="none" stroke="#000000" stroke-width="0.25" stroke-linecap="round" d="M425.9,184.8c5,0,10,0,15,0"/>
<path fill="none" stroke="#000000" stroke-width="0.25" stroke-linecap="round" d="M274.9,149.8c15.3-6.2,30.7-18.7,48-14"/>
<path fill="none" stroke="#000000" stroke-width="0.25" stroke-linecap="round" d="M370.9,147.8c4-6.9,15-10.8,22-6"/>
<path fill="none" stroke="#000000" stroke-width="0.25" stroke-linecap="round" d="M452.9,147.8c15.398-9.1,35.1,4.7,34,22"/>
<path fill="none" stroke="#000000" stroke-width="0.25" stroke-linecap="round" d="M215.9,178.8c2-4.7,3.9-9.7,8-13"/>
<path fill="none" stroke="#000000" stroke-linecap="round" d="M665.3,212.3c0.8-1.3,4.4-3.2,5.602-4.5"/>
<path fill="none" stroke="#000000" stroke-linecap="round" d="M697.5,204.6c2.4,1,4.8,2.4,7.3,4.2"/>
<path fill="none" stroke="#000000" stroke-width="0.25" stroke-linecap="round" d="M312.9,181.8c0.8-15.5,24.198-15,32-5"/>
<path fill="none" stroke="#000000" stroke-linecap="round" d="M636.7,209.6c3,0.8,6.1,1.9,9.398,3.4"/>
<path fill="none" stroke="#000000" stroke-linecap="round" d="M603.6,215.7c1.102-1,3.602-2.9,7.4-4.5"/>
<path fill="none" stroke="#000000" stroke-width="0.25" stroke-linecap="round" d="M448.9,185.8c4.398,0.6,13.198,3,10,9"/>
<path fill="none" stroke="#000000" stroke-width="0.25" stroke-linecap="round" d="M253.9,202.8c6.6-11.7,24.4-16.4,36-10"/>
<path fill="none" stroke="#000000" stroke-width="0.25" stroke-linecap="round" d="M191.9,223.8c0-3.3-0.3-6.7,1.3-9.7
	c3.3-0.3,6.5-0.4,9.7-1.3"/>
<path fill="none" stroke="#000000" stroke-width="0.25" stroke-linecap="round" d="M138.9,238.8c-2.3-7.7-4.7-20.4,5-24"/>
<path fill="none" stroke="#000000" stroke-width="0.25" stroke-linecap="round" d="M404.9,233.8c5.1-19.2,30.698-15,45-10"/>
<path fill="none" stroke="#000000" stroke-width="0.25" stroke-linecap="round" d="M319.9,255.8c-4.802-10.9,5.198-19.1,13-25"/>
<path fill="none" stroke="#000000" stroke-width="0.25" stroke-linecap="round" d="M515.9,231.8c4.898,2.3,8,7.9,9,13"/>
<path fill="none" stroke="#000000" stroke-linecap="round" d="M675.8,289.8c5-0.399,10.3,0.9,15-1"/>
<path fill="none" stroke="#000000" stroke-linecap="round" d="M638.9,290.8c4.198,0.601,7.898-1.5,12-2"/>
<path fill="none" stroke="#000000" stroke-width="0.25" stroke-linecap="round" d="M250.9,274.8c3.5-8.6,12.2-16.1,22-15"/>
<path fill="none" stroke="#000000" stroke-width="0.25" stroke-linecap="round" d="M437.9,279.8c2.698-9,9.898-18,20-18"/>
<path fill="none" stroke="#000000" stroke-width="0.25" stroke-linecap="round" d="M381.9,287.8c4.8-7,13.6-11.4,22-12"/>
<path fill="none" stroke="#000000" stroke-width="0.25" stroke-linecap="round" d="M538.9,299.8c4.8-5.1,8.6-13.1,6-20"/>
<path fill="none" stroke="#000000" stroke-width="0.25" stroke-linecap="round" d="M375.9,315.8c-13.102-2.2-20.602-15.5-20-28"/>
<path fill="none" stroke="#000000" stroke-width="0.25" stroke-linecap="round" d="M472.9,324.8c14.698-6.3,24.698-20.899,23-37"/>
<path fill="none" stroke="#000000" stroke-width="0.25" stroke-linecap="round" d="M152.9,323.8c-10.8-8.7-5.3-25.399,4-33"/>
<path fill="none" stroke="#000000" stroke-width="0.25" stroke-linecap="round" d="M239.9,298.8c11.3,7.101,24.1,18.8,38,16"/>
<path fill="none" stroke="#000000" stroke-width="0.25" stroke-linecap="round" d="M580.9,340.8c2.6-6.399,4.8-12.899,4-20"/>
<path fill="none" stroke="#000000" stroke-width="0.25" stroke-linecap="round" d="M338.9,346.8c-9.302-2.7-21.802-6.2-25.9-16
	c0.4-3.6,2.7-6.399,5.9-8"/>
<path fill="none" stroke="#000000" stroke-width="0.25" stroke-linecap="round" d="M202.9,345.8c2.8,5.7,9.9,8.3,16,8"/>
<path fill="none" stroke="#000000" stroke-width="0.25" stroke-linecap="round" d="M502.9,362.8c8-1.5,17.898-2.7,23-10"/>
<path fill="none" stroke="#000000" stroke-width="0.25" stroke-linecap="round" d="M422.9,365.8c9.198-0.6,18.1-4.8,25-11"/>
<path fill="none" stroke="#000000" stroke-width="0.25" stroke-linecap="round" d="M352.9,367.8c10.698,1.3,21.898,1.5,32-3"/>
<path fill="none" stroke="#000000" stroke-width="0.25" stroke-linecap="round" d="M285.9,376.8c-9.1,2.2-23.4,2.601-26-9"/>
<path fill="none" stroke="#000000" stroke-width="0.25" stroke-linecap="round" d="M490.9,407.8c14.1-3.5,32.1-4.7,41-18"/>
<path fill="none" stroke="#000000" stroke-width="0.25" stroke-linecap="round" d="M217.9,401.8c13.3,2,28.1,13.7,41,6"/>
<path fill="none" stroke="#000000" stroke-width="0.25" stroke-linecap="round" d="M396.9,408.8c14.3,2.5,31.198,13.8,45,4"/>
<path fill="none" stroke="#000000" stroke-width="0.25" stroke-linecap="round" d="M350.9,431.8c-7,1.3-14.2,0.5-21-2"/>
</svg>
