<?xml version="1.0" encoding="utf-8"?>
<!-- Generator: Adobe Illustrator 15.0.0, SVG Export Plug-In . SVG Version: 6.00 Build 0)  -->
<!DOCTYPE svg PUBLIC "-//W3C//DTD SVG 1.1//EN" "http://www.w3.org/Graphics/SVG/1.1/DTD/svg11.dtd">
<svg version="1.1" id="Layer_1" xmlns="http://www.w3.org/2000/svg" xmlns:xlink="http://www.w3.org/1999/xlink" x="0px" y="0px"
	 width="822px" height="567px" viewBox="0 0 822 567" enable-background="new 0 0 822 567" xml:space="preserve">
<path fill="#FFFFFF" stroke="#000000" d="M622.1,425.3c-7-0.1-11.5-4.399-11.5-4.399c-15,10.6-34-20.801-34-20.801
	c-1.699,1.7-3.6,3.301-5.5,4.801l0,0c-12.399,10-27,17.3-27,17.3c-6.5,5-13.6,2.1-19.699-2.8l0,0
	c-8.101-6.5-14.301-16.5-14.301-16.5c-15.5,14.3-31-1.801-31-1.801c-17.5,11.5-30.5-4.199-30.5-4.199c-12.5,8.8-15.5,29.5-15.5,29.5
	c-3.399,10.3-10,10.899-13.899,10.199c-1.8-0.3-3.101-0.899-3.101-0.899c-15.5,12-23,1.399-23,1.399
	C384.6,440.7,380.2,437.7,377.9,434l0,0c-2.101-3.4-2.301-7.5-2.301-7.5c-17.5,15.7-23,0.9-23,0.9c-14.5,4.199-20-39.101-20-39.101
	c-10.5-1.3-10-11.2-10-11.2c-7.5,0.5-10.5-10.399-10.5-10.399c-7-1.2-4.5-16.3-4.5-16.3s0,3.5,3-14.9c0,0,11.301-15.5,1.101-27.7
	c39.399-5.6,67.399-55.7,58.5-87.4c-18.4-65.5-68.8-67.1-97.6-61.3c-38.6,7.8-57.6,35.6-66.8,58.6c9.5-25.1-6.9-11.5-6.9-11.5
	c-1.7-28.1-23.5-3-23.5-3c-7.4-26.7-17.6,3.4-17.6,3.4c-14.6-11.1-23,12.3-23,12.3c-2.3-1.5-4.9-2.8-7.9-3.9l0,0
	c-6.9-7.8,1.4-11.1,1.4-11.1c-5-10.1,5-14.8,5-14.8c-2-15.7,8.5-12.4,8.5-12.4c-9.5-15.7,6.5-19.4,6.5-19.4c-1.5-18.4,7-19.8,7-19.8
	c-2-24,18.5-18,18.5-18c4.5-18.9,14.5-18,14.5-18c6-21.2,25.5-13.4,25.5-13.4c14-25.8,32.5-18.5,32.5-18.5
	c15.5-26.7,33-13.8,33-13.8c12-19.8,27.5-3.7,27.5-3.7c9.5-20.3,28.5-7.4,28.5-7.4c16-22.6,32.5-7.8,32.5-7.8
	c20-17.1,31.5-0.5,31.5-0.5c13.5-15.2,27.5-3.2,27.5-3.2c7.5-11.5,19-0.5,19-0.5c17-20.3,35.5-4.3,35.5-4.3c16-13.5,25.5,7,25.5,7
	c23-12,24.5-0.9,24.5-0.9c16.5-14.3,19,0.9,19,0.9C570,23.9,583,40,583,40c21-8.3,25,13.4,25,13.4c25.5-8.3,24.5,17.5,24.5,17.5
	c29-11.5,26,22.1,26,22.1c27,0.9,22,16.6,22,16.6c24.5-1.4,21.5,24,21.5,24c22.5,5.1,15,27.2,15,27.2c16.5,1.4,8.5,20.7,8.5,20.7
	c16,3.2,8.5,19.4,8.5,19.4c15.5,8.8,4.5,20.7,4.5,20.7c19.5,7.8,4.5,21.2,4.5,21.2c14,11.1,0,23.1,0,23.1c8.5,12-6.5,17.3-6.5,17.3
	c9,14.6-9.5,22.3-9.5,22.3c9,18-10,28.6-10,28.6c4,14.301-19,20.601-19,20.601c0.5,17.899-18.5,11.899-18.5,11.899
	c-0.1,0.9-0.2,1.7-0.4,2.5c-4.1,20.2-21.6,43.101-21.6,43.101c-1.7,2.1-3.3,3.8-5,5l0,0c-9.1,7.2-17.1,2.7-17.1,2.7
	C630.6,424,626,425.3,622.1,425.3z"/>
<path fill="#FFFFFF" stroke="#000000" d="M656.6,482.1c5,7.801,0,15.7,0,15.7c-12,24.9-23,17.101-23,17.101l5.5-16.601
	C626.6,514,613.6,514.9,613.6,514.9c-3.5-10.601,10.5-32.7,10.5-32.7c0.7-1,1.301-2.2,1.7-3.3l0.2,0.1c0,0,2.6,9.8,7.6,7.3
	c0,0,4,8.2,10-3.399c0,0,7,4.699,12.301-4.801C656.3,480.5,656.6,482.1,656.6,482.1z"/>
<path fill="#FFFFFF" stroke="#000000" d="M652.7,417.2c-3.9,13.7,1.3,48.5,3.2,60.7c-5.301,9.5-12.301,4.8-12.301,4.8
	c-6,11.6-10,3.399-10,3.399c-5,2.601-7.6-7.3-7.6-7.3l-0.2-0.1c7.7-18.2-3.5-52.7-3.7-53.5c3.9,0,8.5-1.3,13.5-5.4
	C635.6,419.9,643.5,424.4,652.7,417.2z"/>
<path fill="#FFFFFF" stroke="#000000" d="M571,466.9c8.5,8.3-7,21.699-7,21.699c-4-3.199-4-17.1-4-17.1c-2,10.6-14,19.2-14,19.2
	c-6.5-3.9,0-21.5,0-21.5c-0.2-1.3-0.4-2.601-0.7-3.9c0,0,9.8,3.9,11.3-2.6c0,0,3.601,6.6,10,3.7C566.5,466.5,568.7,471.5,571,466.9z
	"/>
<path fill="#FFFFFF" stroke="#000000" d="M567,449.9c12,8.3,4,17.1,4,17.1c-2.3,4.5-4.5-0.4-4.5-0.4c-6.4,2.801-10-3.699-10-3.699
	c-1.5,6.5-11.3,2.6-11.3,2.6c-0.8-3.6-2-7.2-3.3-10.5c-6.4-16-17.301-34.9-17.7-35.5c6.1,4.9,13.3,7.8,19.7,2.8
	c0,0,14.699-7.3,27-17.3L567,449.9z"/>
<path fill="#FFFFFF" stroke="#000000" d="M383.7,480.7c2.7-13.7-5.8-45.9-6-46.8c2.3,3.699,6.6,6.6,15.2,3.1c0,0,7.5,10.6,23-1.4
	c0,0,1.199,0.601,3.1,0.9c-7.2,1,3.6,29.5,3.6,29.5c11,27.5-2.699,29-2.699,29c-5.9,5.1-14.5-6.7-14.5-6.7
	c-2.5,11.3-12.5,4.4-12.5,4.4c-11.9,4.8-10-8.101-9.301-11.4C383.6,481,383.7,480.8,383.7,480.7z"/>
<path fill="#FFFFFF" stroke="#000000" d="M419.9,495c6,13.8,0,32.7,0,32.7c-6,10.1-23.5,15.1-23.5,15.1c-4.5-3.3-3.5-25.7-3.5-25.7
	c-10,23-37,23-37,23c-10.5-3.199,27-56.699,27-56.699c0.3-0.601,0.5-1.4,0.699-2.2c-0.6,3.3-2.5,16.2,9.301,11.399
	c0,0,10,7,12.5-4.399C405.4,488.4,414,500.2,419.9,495z"/>
<path fill="#FFFFFF" stroke="#000000" d="M311.4,307.7c-18.9,2.7-40.5-4.9-61.8-29.8l0,0c-0.6-1.5-1.3-2.7-2.1-3.9
	c-2.2-7.7-10.7-44.3,19.9-57.7c27.6-12.1,41.4,28.5,41.4,28.5c2,11.5-6.5,4.1-6.5,4.1c-33.3-40.7-46.8,0.7-43.5,10.6
	c14.5,44.7,68.101,26.7,76.601,3.7c15.899-43-20.9-65.8-42-68.2c-27.3-3.2-42.5,13.6-48.4,32.8c-0.4,1.3-1.7,14.6-1.7,14.6
	c-0.1,1.6-0.2,7.2-0.3,8.9c-0.3,5.7-0.1,5.8,0.6,8.7c1.6,6.5,2.4,10.5,3.4,13.4c-3.4-4.4-7.7-6.4-7.7-6.4c-1-9.2-11.5-6-11.5-6
	c4-14.8-13.5-9.2-13.5-9.2c-0.8-8.8-13-3-17.2-0.8c0,0,1.2-15.1,8.4-33.3c0,0,0,0,0-0.1c9.2-23,28.1-50.8,66.8-58.6
	c28.9-5.8,79.2-4.2,97.601,61.3C378.7,252,350.7,302.1,311.4,307.7z"/>
<path fill="#FFFFFF" stroke="#000000" d="M293.3,194.9c21.101,2.5,57.9,25.2,42,68.2c-8.5,23.1-62.1,41-76.6-3.7
	c-3.2-9.9,10.3-51.3,43.5-10.6c0,0,8.5,7.4,6.5-4.1c0,0-13.8-40.6-41.4-28.5c-30.6,13.5-22.1,50.1-19.9,57.7
	c-0.2-0.2-0.3-0.4-0.5-0.6l0,0c-1.1-2.9-1.8-6.9-3.4-13.4c-0.7-2.9-0.9-2.9-0.6-8.7c0.1-1.7,0.2-7.3,0.3-8.9c0,0,1.3-13.3,1.7-14.6
	C250.8,208.5,266,191.7,293.3,194.9z"/>
<path fill="#FFFFFF" stroke="#000000" d="M322.3,377c0,0-0.5,9.9,10,11.2c0,0-15.5,11.1-16.7,9.6l-0.5,0.2
	c-2-5.6-7.5-11.8-18.899-18.2c0,0-23.6-17.1-12.7-25.2l0,0c3.6-2.699,10.8-4.399,23.7-4.3c0,0-2.5,15.2,4.5,16.3
	C311.8,366.6,314.8,377.5,322.3,377z"/>
<path fill="#FFFFFF" stroke="#000000" d="M315.1,398c4.9,13.6-10.399,23.8-10.399,23.8c-7.5,2.601-15.6,3.8-23.5,4.2
	c9.8-25.1-32.8-33.8-18.6-24.7c22.6,14.5,7.7,24,6.5,24.7l0,0c-16.5-0.8-29.6-4.2-29.6-4.2c0.4-4.7,7.4-4.8,7.4-9.399
	c0-6.801-5.2-12.101-12.3-9.2c-24.2-5.4-31.2-52.9-31.2-52.9s-11.2-24.6-14.2-23c0,0-7.3,0.4,2,18.7c0,0,7,33.5,12.5,39.6
	c0,0,12,22.5,18.1,26.5c0,0-1.8,3.7,0.4,7.801l-0.4,0.1c-27.5-10.5-46.9-53.6-46.9-53.6l-2.8-0.5c3-1.601,9.8-7.301-1.2-23
	c-12-29.5-32.5-23.101-32.5-23.101c-1.4,0.3-2.4,0.9-3,1.7l0,0c-0.4,0.2-0.7,0.4-1.1,0.6c-0.4-3.1-2-10.6-7.3-17.899
	c-2.1-5.3-3.4-9.7-4.1-13.4c-2.6-12.2,0.8-15.8,0.8-15.8s3.5-7.7,7.1-1.2c0,0,4-14.8,9-10.6c0,0-4.5-9.8,5.5-8.8c0,0,4.5-12.4,7-7.3
	c0,0,6.5-14.3,15,0c0,0,11-10.6,16.5,4.6c0,0,7.5-11.5,11.5,0c0,0,0.5-0.3,1.4-0.8c4.1-2.2,16.3-8,17.2,0.8c0,0,17.5-5.5,13.5,9.2
	c0,0,10.5-3.2,11.5,6c0,0,4.4,2.1,7.7,6.4l0,0c0.3,0.8,0.6,1.4,0.9,2.1c0.5,0.9,1,1.7,1.7,2.5l0,0c1.3,3.4,1.7,7.5,0.2,12.5
	c0,0,18,1.8,18,20.3c0,0,13.5,7.399,10,22.1c0,0,14.2,9.5,5.8,21.8l0,0c-11,8.2,12.7,25.2,12.7,25.2
	C307.6,386.1,313.1,392.3,315.1,398z M210.7,331.4c0,0,36.8,39,36-10.101c0,0-4.5-30.899-36-30.399
	C210.7,290.8,195.6,307.4,210.7,331.4z M203.7,277.9c0,0-21.2-2-19,25.8c0,0-2.8,16.899,4.9,1.5
	C189.5,305.2,191.3,286.6,203.7,277.9z M168.6,311.1c17,6.5,2.5-4.1,2.5-4.1c-19-21.7-33-6.9-33-6.9
	C153.6,298.6,168.6,311.1,168.6,311.1z"/>
<path fill="#FFFFFF" stroke="#000000" d="M311.4,307.7c10.199,12.3-1.101,27.7-1.101,27.7c-3,18.3-3,14.899-3,14.899
	c-12.9-0.1-20.1,1.601-23.7,4.3c8.3-12.3-5.8-21.8-5.8-21.8c3.5-14.8-10-22.1-10-22.1c0-18.4-18-20.3-18-20.3
	c1.5-5,1.1-9.101-0.2-12.5C270.9,302.8,292.4,310.4,311.4,307.7z"/>
<path fill="#FFFFFF" stroke="#000000" d="M262.7,401.3c-14.2-9.1,28.4-0.399,18.6,24.7c-4.1,0.2-8.2,0.2-12,0
	C270.5,425.3,285.3,415.8,262.7,401.3z"/>
<path fill="#FFFFFF" stroke="#000000" d="M269.3,426L269.3,426c3.9,0.2,7.9,0.2,12,0v0.1c-23.5,4.301-24,40-24,40
	c-10,8-13.5,0.2-13.5,0.2c-9.5,9.2-15,2.8-15,2.8c-8.5,5.101-9.3-6.899-9.3-6.899s19.3-29.5,20.3-40.601
	C239.7,421.7,252.8,425.2,269.3,426z"/>
<path fill="#FFFFFF" stroke="#000000" d="M257.2,466.2c7.5,11.7-3.5,24.3-3.5,24.3c-17.5,24.4-32,19.8-32,19.8
	c-1.5-2.8,0.5-23.5,0.5-23.5c-16,24-38,16.101-38,16.101c-7.5-13.801,35.3-40.601,35.3-40.601s0.8,12,9.3,6.9c0,0,5.5,6.3,15-2.8
	C243.7,466.4,247.2,474.2,257.2,466.2z"/>
<path fill="#FFFFFF" stroke="#000000" d="M246.7,321.2c0.8,49.1-36,10.1-36,10.1s4.3-3.2,10.1-6.3c0.7,1.5,1.6,3,2.7,4.6
	c4.6,6.9,10.3,11.5,12.6,10.2c2.4-1.3,0.5-8-4.1-15c-0.8-1.2-1.6-2.3-2.4-3.3l-0.2-0.5C235.8,318.7,242.5,317.7,246.7,321.2z"/>
<path fill="#FFFFFF" stroke="#000000" d="M247.1,412.4c0,4.6-7,4.6-7.4,9.399c-4.8,3.2-7.4,6.8-16.3-0.3c-0.4-0.5-0.7-1.1-1-1.6
	c-2.1-4.2-0.4-7.801-0.4-7.801c8.2-4.5,7.4-6.699,12.8-8.899C241.9,400.3,247.1,405.6,247.1,412.4z"/>
<path fill="#FFFFFF" stroke="#000000" d="M220.7,325.1c-5.8,3.101-10.1,6.301-10.1,6.301c-15-24,0-40.601,0-40.601
	c31.5-0.5,36,30.4,36,30.4c-4.2-3.5-10.9-2.601-17.3-0.2C226.4,322.2,223.4,323.6,220.7,325.1z"/>
<path fill="#FFFFFF" stroke="#000000" d="M232,324.8c4.6,7,6.5,13.7,4.1,15c-2.3,1.3-8-3.2-12.6-10.2c-1-1.6-1.9-3.1-2.7-4.6
	c2.6-1.4,5.6-2.9,8.6-4l0.2,0.5C230.4,322.5,231.2,323.6,232,324.8z"/>
<path fill="#FFFFFF" stroke="#000000" d="M234.9,403.2c-5.3,2.2-4.6,4.399-12.8,8.899c-6.1-4-18.1-26.5-18.1-26.5
	c-5.5-6.199-12.5-39.6-12.5-39.6c-9.4-18.2-2-18.7-2-18.7c3-1.5,14.2,23,14.2,23S210.7,397.8,234.9,403.2z"/>
<path fill="#FFFFFF" stroke="#000000" d="M198.6,206c0,0,16.4-13.6,6.9,11.5c0,0,0,0,0,0.1c-7.3,18.1-8.4,33.3-8.4,33.3
	c-0.8,0.5-1.4,0.8-1.4,0.8c-4-11.5-11.5,0-11.5,0c-5.5-15.2-16.5-4.6-16.5-4.6c-8.5-14.3-15,0-15,0s-2.3-18.1-18.1-28.3
	c0,0,8.3-23.4,23-12.3c0,0,10.2-30.2,17.6-3.4C175.1,203,196.9,177.9,198.6,206z"/>
<path fill="#FFFFFF" stroke="#000000" d="M184.6,303.7c-2.1-27.8,19-25.8,19-25.8c-12.4,8.7-14.1,27.3-14.1,27.3
	C181.9,320.6,184.6,303.7,184.6,303.7z"/>
<path fill="#FFFFFF" stroke="#000000" d="M171.1,306.9c0,0,14.5,10.6-2.5,4.1c0,0-15-12.5-30.5-11.1
	C138.1,300,152.1,285.3,171.1,306.9z"/>
<path fill="#FFFFFF" stroke="#000000" d="M171.1,342.9c11,15.699,4.1,21.399,1.2,23c-0.7,0.399-1.2,0.5-1.2,0.5
	c-8,2.3-23-15.7-23-15.7c1.1-2.101,2.6-3.7,4.4-4.9c0.8,1.601,1.7,3.3,2.9,5c4.6,6.9,10.3,11.5,12.6,10.2c2.4-1.3,0.5-8-4.1-15
	c-0.8-1.2-1.6-2.3-2.4-3.3l0,0C166.6,342,171.1,342.9,171.1,342.9z"/>
<path fill="#FFFFFF" stroke="#000000" d="M163.9,346c4.6,6.9,6.5,13.7,4.1,15s-8-3.2-12.6-10.2c-1.1-1.7-2.1-3.399-2.9-5
	c2.7-1.899,6-2.8,9-3.2l0,0C162.3,343.8,163.1,344.8,163.9,346z"/>
<path fill="#FFFFFF" stroke="#000000" d="M134.7,323.5c0.1-0.8,0.4-1.4,0.9-2l0,0c0.6-0.8,1.6-1.4,3-1.7c0,0,20.5-6.399,32.5,23.101
	c0,0-4.5-0.9-9.7-0.2c-3,0.399-6.3,1.3-9,3.2c-1.7,1.199-3.3,2.8-4.4,4.899C148.1,350.7,133,331.8,134.7,323.5z"/>
<path fill="#FFFFFF" stroke="#000000" d="M114.7,246.9c-4.3-1.7-8.3-1.7-8.3-1.7c-27.4,4-21.4,36-21.4,36c4,16,10.1,23.8,16.5,27.1
	c12.4,6.4,25.7-4.1,25.7-4.1c5.3,7.3,6.8,14.899,7.3,17.899c-4.3,2.301-8.4,4-12.3,5.4c-43.9,15-65.3-23.7-65.3-23.7
	c-27.5-65.9,25-87.1,25-87.1c20-6.2,34.3-5.6,44.7-1.8c2.9,1.1,5.5,2.4,7.9,3.9c15.7,10.2,18.1,28.3,18.1,28.3c-2.5-5.1-7,7.3-7,7.3
	c-10-0.9-5.5,8.8-5.5,8.8c-5-4.1-9,10.6-9,10.6c-3.7-6.5-7.1,1.2-7.1,1.2C129.8,256.7,121.7,249.6,114.7,246.9z"/>
<path fill="#FFFFFF" stroke="#000000" d="M148.1,350.7c0,0-3.9,5.7-10,0c0,0-13.1-0.2-10.8-10.7c0,0-9.7-4.1-5-12.6
	c3.9-1.301,8-3.101,12.3-5.4c0.1,0.8,0.1,1.3,0.2,1.4C133,331.8,148.1,350.7,148.1,350.7z"/>
<path fill="#FFFFFF" stroke="#000000" d="M114.7,246.9c7,2.7,15.1,9.8,9.3,28.1c0,0-3.4,3.6-0.8,15.8c0,0-2.9,2.8-6.7,4.3
	c0,0-4.3-9.5-2.3-17.3c0,0-10-12.4-2-14.7C112.1,263.1,110.7,247.3,114.7,246.9z"/>
<path fill="#FFFFFF" stroke="#000000" d="M123.1,290.8c0.8,3.601,2.1,8,4.1,13.4c0,0-13.3,10.399-25.7,4.1
	c-18-20.1-8.9-35.4-8.9-35.4c5.7-8.9,7-1.4,7-1.4c0.7,25.6,10,26.5,16.7,23.7C120.2,293.5,123.1,290.8,123.1,290.8z"/>
<g>
	<path d="M313,170.2c0.7,1.7,1,3.6,1,5.5c0,1.9-0.2,3.8-0.8,5.6c-0.601,1.8-1.601,3.4-2.8,4.9c-1.2,1.5-2.601,2.7-4.2,3.7l0,0
		c3-2.2,5.5-5.1,6.7-8.7c0.6-1.8,0.899-3.6,0.899-5.5C313.8,173.8,313.5,172,313,170.2L313,170.2z"/>
</g>
<g>
	<path d="M290.7,170c1.2,1.3,2.1,2.8,2.7,4.4s1,3.3,1,5.1s-0.4,3.5-1.1,5.1c-0.6,1.6-1.6,3.1-2.7,4.4l0,0c1-1.4,1.9-2.8,2.6-4.5
		c0.6-1.6,1-3.3,1-5s-0.3-3.4-0.9-5C292.6,172.9,291.8,171.4,290.7,170L290.7,170z"/>
</g>
<g>
	<path d="M265.2,171.8c1.8,0.9,3.3,2.1,4.7,3.5c1.4,1.4,2.5,3.1,3.4,4.9c0.8,1.8,1.3,3.7,1.5,5.7c0.2,2,0.1,3.9-0.3,5.9l0,0
		c0.6-3.9,0.3-7.9-1.4-11.5c-0.8-1.8-1.9-3.4-3.3-4.8C268.4,174,266.9,172.7,265.2,171.8L265.2,171.8z"/>
</g>
<g>
	<path d="M241,183.9c2,0.1,3.9,0.6,5.7,1.4c1.8,0.8,3.5,1.8,5,3.2c1.5,1.3,2.7,2.9,3.7,4.7c1,1.7,1.7,3.6,2.1,5.5l0,0
		c-1-3.8-2.9-7.4-5.9-10c-1.5-1.3-3.1-2.4-4.9-3.2C244.9,184.7,242.9,184.1,241,183.9L241,183.9z"/>
</g>
<g>
	<path d="M223.4,206.1c1-0.3,1.9-0.5,2.9-0.6s2-0.1,3,0c2,0.2,4,0.8,5.7,1.8s3.3,2.4,4.6,3.9c1.3,1.5,2.4,3.2,3.3,5l0,0
		c-1.9-3.5-4.5-6.7-8-8.7c-1.7-1-3.7-1.6-5.6-1.9C227.3,205.4,225.3,205.6,223.4,206.1L223.4,206.1z"/>
</g>
<g>
	<path d="M216.3,231.8c1.7-0.9,3.6-1.5,5.6-1.8s4-0.3,5.9,0.1c1.9,0.4,3.8,1.1,5.5,2.1c1.7,1,3.3,2.2,4.6,3.6l0,0
		c-2.8-2.7-6.3-4.8-10.2-5.4c-1.9-0.4-3.9-0.4-5.8-0.1C220,230.4,218.1,230.9,216.3,231.8L216.3,231.8z"/>
</g>
<g>
	<path d="M329.7,179.5c0.2,1.7,0.1,3.4-0.2,5c-0.3,1.7-0.8,3.3-1.5,4.8c-0.8,1.5-1.9,2.9-3.2,4c-0.6,0.5-1.399,1-2.1,1.4
		c-0.8,0.4-1.5,0.7-2.3,0.9l0,0c1.6-0.5,3.1-1.3,4.3-2.4c1.3-1.1,2.3-2.5,3-3.9c0.8-1.5,1.3-3.1,1.6-4.7
		C329.6,182.9,329.7,181.2,329.7,179.5L329.7,179.5z"/>
</g>
<g>
	<path d="M342.7,194c0,1-0.3,3-0.8,4.4s-1.101,2.8-2.101,4c-1,1.2-2.3,2.1-3.7,2.6c-0.699,0.3-1.5,0.4-2.199,0.5
		c-0.801,0-1.5,0-2.2-0.1l0,0c1.5,0.1,3,0,4.399-0.5c1.4-0.5,2.601-1.4,3.601-2.6c0.899-1.1,1.6-2.5,2.1-3.9
		C342.2,196.9,342.5,195,342.7,194L342.7,194z"/>
</g>
<g>
	<path d="M354.3,218.7c-0.5,1.1-1.1,2.2-1.899,3.1c-0.801,0.9-1.7,1.7-2.801,2.3c-1.1,0.5-2.399,0.8-3.6,0.7
		c-1.2-0.1-2.4-0.6-3.4-1.2l0,0c1.101,0.5,2.2,0.9,3.4,1s2.4-0.2,3.5-0.7s2-1.3,2.8-2.2C353.1,220.8,353.8,219.8,354.3,218.7
		L354.3,218.7z"/>
</g>
<g>
	<path d="M357.3,248.7c-0.7,0.9-1.6,1.6-2.6,2.1s-2.2,0.7-3.3,0.6c-1.101-0.1-2.301-0.4-3.301-0.9s-2-1.1-2.8-1.8l0,0
		c1.8,1.3,3.8,2.4,6.101,2.5C353.6,251.3,355.9,250.3,357.3,248.7L357.3,248.7z"/>
</g>
<g>
	<path d="M345.3,277.9c-0.899,0.3-1.8,0.4-2.8,0.3c-0.9,0-1.9-0.3-2.8-0.7c-0.8-0.5-1.601-1.2-2-2.1c-0.4-0.9-0.601-1.8-0.7-2.7l0,0
		c0.1,0.9,0.4,1.8,0.8,2.6c0.4,0.8,1.101,1.5,1.9,1.9c0.8,0.5,1.7,0.7,2.6,0.8C343.5,278.1,344.4,278,345.3,277.9L345.3,277.9z"/>
</g>
<g>
	<path d="M327.7,294.8c-0.8-0.399-1.5-0.899-2.2-1.399c-0.7-0.601-1.3-1.2-1.9-1.9c-0.5-0.7-1-1.6-1.1-2.5c-0.2-0.9,0.1-1.9,0.6-2.6
		l0,0c-0.399,0.8-0.6,1.699-0.399,2.6s0.6,1.7,1.1,2.4C324.8,292.7,326.2,293.8,327.7,294.8L327.7,294.8z"/>
</g>
<path fill="none" stroke="#000000" stroke-width="0.25" d="M302,293.3c0,0-4.3,3.7,0,8.3"/>
<path fill="none" stroke="#000000" stroke-width="0.25" d="M282.3,290.8c0,0-3,3.2,0,6.7"/>
<path fill="none" stroke="#000000" stroke-width="0.25" d="M279.5,217.5c0,0,6.1,4.2,2.6,9.3"/>
<path fill="none" stroke="#000000" stroke-width="0.25" d="M261.5,223.7c0,0,9.2-0.5,7.7,8.2"/>
<path fill="none" stroke="#000000" stroke-width="0.25" d="M252.2,235.7c0,0,6.8-1.4,6.8,4.9"/>
<path fill="none" stroke="#000000" stroke-width="0.25" d="M129.3,248.7c0,0,3-8.7,11-6"/>
<path fill="none" stroke="#000000" stroke-width="0.25" d="M121,242.2c0,0-5.6-14,8.4-14.8"/>
<path fill="none" stroke="#000000" stroke-width="0.25" d="M105,238.1c0,0,0-14.7,6-16.4"/>
<path fill="none" stroke="#000000" stroke-width="0.25" d="M92.3,240.7c0,0-7.3-12.6,0-18.9"/>
<path fill="none" stroke="#000000" stroke-width="0.25" d="M82.7,248.7c0,0-15.2,0.1-11.7-13.9"/>
<path fill="none" stroke="#000000" stroke-width="0.25" d="M78.7,268.5c0,0-22.7-0.8-20-12.1"/>
<path fill="none" stroke="#000000" stroke-width="0.25" d="M78.7,286.3c0,0-16.4,8.3-20.2-1.7"/>
<path fill="none" stroke="#000000" stroke-width="0.25" d="M85.3,299.7c0,0-8.6,13-16.8,4.5"/>
<path fill="none" stroke="#000000" stroke-width="0.25" d="M90.7,311.1c0,0-0.4,9.9-9.7,5.2"/>
<path fill="none" stroke="#000000" stroke-width="0.25" d="M106.8,317.6c0,0-1.1,9.101-5.9,7.801"/>
<path fill="none" stroke="#000000" stroke-width="0.25" d="M123.1,314.3c0,0,1.5,8.7-2.1,9.2"/>
<path fill="none" stroke="#000000" stroke-width="0.25" d="M108,306.5c0,0,7.7-5.5,4.8-6.8"/>
<path fill="none" stroke="#000000" stroke-width="0.25" d="M118.3,304.1c0,0,5-4.1,1.5-6.5"/>
</svg>
