<?xml version="1.0" encoding="utf-8"?>
<!-- Generator: Adobe Illustrator 15.0.0, SVG Export Plug-In . SVG Version: 6.00 Build 0)  -->
<!DOCTYPE svg PUBLIC "-//W3C//DTD SVG 1.1//EN" "http://www.w3.org/Graphics/SVG/1.1/DTD/svg11.dtd">
<svg version="1.1" id="Layer_x5F_www.ABC-color.com"
	 xmlns="http://www.w3.org/2000/svg" xmlns:xlink="http://www.w3.org/1999/xlink" x="0px" y="0px" width="822px" height="567px"
	 viewBox="0 0 822 567" enable-background="new 0 0 822 567" xml:space="preserve">
<path fill="#FFFFFF" stroke="#000000" d="M758.1,31.3c0,0,0.602,14-1.5,21.4c-1.5-1.1-3.1-2.1-4.8-3.2c0,0-7.2-2.1-16.8-4.6
	C737,42.9,751.7,28.4,758.1,31.3z"/>
<path fill="#FFFFFF" stroke="#000000" d="M757.5,237.6c-0.6,15.1-26.4,4.4-26.4,4.4c-17-45.3-86.198-71.1-86.198-71.1l-14.5,40.3
	c-6.9,30.8-50.9,88-50.9,88c-4.8,10.1-9.8,18.5-14.9,25.399c-29.1,39.5-60.5,31.801-60.5,31.801l-0.8-0.102
	c-0.5,5.4-0.8,10.801-0.7,15.801c0.102,17.699,2.802,31.601,2.802,32.699c0,6.3-2.5,44.102,1.3,54.7c3.1,8.7,20.1,30.8,20.1,30.8
	L484,496l-0.8-0.1c0.1-0.7,0.2-1.2,0.2-1.2c-16.4,2.5-18.2-62.3-18.2-62.3c-21.7-28.5-14.4-65.2-14.4-65.2
	c-7.898,2-38-0.601-48.1-3.601c-0.3-0.301-0.8-0.399-1.5-0.5c-26.7-8.101-54.9-27-54.9-27c-29.6-4.399-42.8,15.101-42.8,15.101
	c-2.8,1.1-5.8,2.6-8.7,4.399c-4.5,2.601-9,5.801-13.3,9.199C265,377.6,250.7,393.4,250.7,393.4c-9.4,20.1,1.9,45.3,1.9,45.3
	c8.2-0.602,6.9,46.5,6.9,46.5c-8.2,10.1-32.7,12-32.7,12c0-0.2-0.3-0.602-0.8-1.3c-3.1-4.602-15.2-12.802-15-18.802
	c0.1-1.8,1.9-71.698,1.9-71.698s0-3.2,1.9-7.5c1.9-4.4,1.3-23.9,1.3-23.9c-34-78-28.3-102.5-28.3-102.5c3-24.4,12.1-41.9,23.7-54.3
	c4.1-4.4,8.6-8.3,13.3-11.5c30.9-21.6,69.3-19.1,69.3-19.1c156.6,44.7,215.1-10.7,215.1-10.7l0,0c1-0.5,64.2-34.1,71.7-53.5
	c0,0,59-74.3,78.6-58.5c1.4-9.2,3-16.5,4.5-22.2c7.5-27.2,16.2-19.2,23.3-3.6c7.5,16.5,13.101,41.5,13.101,41.5
	c44.601,35.9,64.199,20,64.801,19.5c-6.301,12.6,5.699,75.5,5.699,75.5c27.699,37.1,19.5,56.6,19.5,56.6
	C787.7,245.1,757.5,237.6,757.5,237.6z M748.4,133c1.898-3.7-3.9-10.5-12.9-15.3c-9.1-4.8-18-5.6-19.9-1.9
	c-1.898,3.7,3.802,10.5,12.9,15.3C737.6,135.8,746.5,136.7,748.4,133z"/>
<path fill="#FFFFFF" stroke="#000000" d="M224.1,204.9l0.5,0.8c-4.6,3.3-9.1,7.1-13.3,11.5l-0.4-0.4
	c-68.1-75.6-101.5-30.8-115.1-3.1c-26.2,53.4,56.6,86.2,56.6,86.2c1.3,3.1-2.5,4.398-2.5,4.398C-14.8,304.9,11.6,183,43,153.3
	C158.1,44.5,224.1,204.9,224.1,204.9z"/>
<path fill="#FFFFFF" stroke="#000000" d="M662.5,41.4l1.3,0.4c-1.6,5.8-3.1,13.1-4.5,22.2c-19.6-15.9-78.6,58.5-78.6,58.5
	c-7.5,19.4-70.7,52.9-71.7,53.5C561.9,33.2,662.5,41.4,662.5,41.4z"/>
<path fill="#FFFFFF" stroke="#000000" d="M756.6,52.7c32,23,8.4,46.5,8.4,46.5l0,0c-0.6,0.5-20.2,16.4-64.8-19.5
	c0,0-5.602-25-13.102-41.5c6.602-3.1,31,2.3,47.9,6.7c9.6,2.5,16.8,4.6,16.8,4.6C753.5,50.6,755.1,51.6,756.6,52.7z"/>
<path fill="#FFFFFF" stroke="#000000" d="M401,363.3c-11.6-0.7-73.7,25.2-73.7,25.2c-15.1,11.3-5,51.6-5,51.6
	c0,5.7,32.102,38.4,32.102,38.4s-42.802,8.8-44,1.3L282,448.9c-12-30.2,0-83,0-83l-0.7-0.9c4.4-3.4,8.9-6.6,13.3-9.2
	c3-1.7,5.9-3.2,8.7-4.399c0,0,13.2-19.5,42.8-15.101C346.2,336.3,374.4,355.2,401,363.3z"/>
<path fill="#FFFFFF" stroke="#000000" d="M649.3,367.1c17.602,12.602-0.6,46.5-0.6,46.5C631.1,424.9,611.1,450.8,595.9,459.5
	c-17.602,10.1-49.102-3.8-49.102-3.8s0,0-0.1,0l0.1-0.602c2.5-10,23.2-20.1,23.2-20.1c6.4-2.8,20.2-15,20.2-15
	c26.398-20.8,10.7-37.7,10.7-37.7c-1.7-9.898-85.7-10.1-98.4-10.1c0-5,0.2-10.4,0.7-15.801l0.8,0.101c0,0,31.4,7.7,60.5-31.8
	l0.5,0.3L649.3,367.1z"/>
<path fill="#FFFFFF" stroke="#000000" d="M739.2,125.9c0-3.3-2.5-6-5.7-6c-3.1,0-5.7,2.7-5.7,6c0,3.3,2.5,6,5.7,6
	S739.2,129.2,739.2,125.9z M735.5,117.7c9.1,4.8,14.9,11.6,12.9,15.3c-1.9,3.7-10.9,2.8-19.9-1.9c-9.1-4.8-14.9-11.6-12.9-15.3
	C717.5,112.1,726.4,112.9,735.5,117.7z"/>
<path fill="#FFFFFF" stroke="#000000" d="M733.6,120c3.102,0,5.7,2.7,5.7,6s-2.5,6-5.7,6c-3.1,0-5.698-2.7-5.698-6
	S730.5,120,733.6,120z"/>
<path fill="#FFFFFF" stroke="#000000" d="M554.3,422.5c3.2-3.1,14.102,13.2,15.602,12.5c0,0-20.7,10.1-23.2,20.2l-0.102,0.6
	c-17.5-1.898-24.5-13.8-24.5-13.8C517.2,442,554.3,422.5,554.3,422.5z"/>
<path fill="#FFFFFF" stroke="#000000" d="M526.7,490.4c18.2,3.1,13.2,28.3,13.2,28.3c-5.7,4.398-52.2-1.9-56-2.5
	c-3.2-0.5-1.4-15.9-0.802-20.2l0.802,0.1L526.7,490.4z"/>
<path fill="#FFFFFF" stroke="#000000" d="M354.3,478.5c10.7,9.4,1.9,20.8,1.9,20.8s-43.4-1.3-46.5-3.1c-3.102-1.9,0.6-16.4,0.6-16.4
	C311.6,487.3,354.3,478.5,354.3,478.5z"/>
<path fill="#FFFFFF" stroke="#000000" d="M259.4,485.4c23.3-4.4,20.1,25.8,17,29.6c-0.4,0.5-1.5,0.8-3,1.1
	c-10.9,1.7-46-1.698-46-1.698l-0.6-17C226.7,497.3,251.2,495.5,259.4,485.4z"/>
<path fill="none" stroke="#000000" d="M623.3,137.3c0,0,4.5,17.8,21.602,33.6"/>
<path fill="none" stroke="#000000" d="M757.5,237.6c0,0-11.5-10.2-10.2-18.2"/>
<path fill="none" stroke="#000000" d="M450.7,367.3c0,0-1.3-4,7.3-30.7"/>
<path fill="none" stroke="#000000" d="M518.7,318c0,0-21.3,21.3-15.5,38.4"/>
<path fill="none" stroke="#000000" d="M768,228c0,0,8-5.3,4,4"/>
<path fill="none" stroke="#000000" d="M666.7,62.7c0,0,10-61.3,23.3,12.7"/>
</svg>
