<?xml version="1.0" encoding="utf-8"?>
<!-- Generator: Adobe Illustrator 15.0.0, SVG Export Plug-In . SVG Version: 6.00 Build 0)  -->
<!DOCTYPE svg PUBLIC "-//W3C//DTD SVG 1.1//EN" "http://www.w3.org/Graphics/SVG/1.1/DTD/svg11.dtd">
<svg version="1.1" id="Layer_1" xmlns="http://www.w3.org/2000/svg" xmlns:xlink="http://www.w3.org/1999/xlink" x="0px" y="0px"
	 width="822px" height="567px" viewBox="0 0 822 567" enable-background="new 0 0 822 567" xml:space="preserve">
<title>Coloring cat</title>
<desc>Vector coloring</desc>
<g>
	<g>
		<path fill="#FFFFFF" stroke="#000000" d="M525.3,114.2c1.8-0.5,4.8,4.8,6.5,11.7s1.7,12.9-0.2,13.4c-1.899,0.5-4.8-4.8-6.5-11.7
			C523.3,120.6,523.4,114.6,525.3,114.2z"/>
		<path fill="#FFFFFF" stroke="#000000" d="M525.1,127.5c1.7,6.9,4.7,12.1,6.5,11.7c1.9-0.5,1.9-6.5,0.2-13.4
			c-1.7-6.9-4.7-12.1-6.5-11.7C523.4,114.6,523.3,120.6,525.1,127.5z M522.1,146.5c-1.1-4.3-11.899-9.7-11.899-9.7
			c-1.8-0.7-3.5-1.2-5.2-1.4c0,0,4-37.2,23.8-28.6c0,0,13.601,8,19.8,30.9v0.5C541.6,138.6,522.6,140.5,522.1,146.5z"/>
		<path fill="#FFFFFF" stroke="#000000" d="M632,532c-23,1-15-20-15-20c-25-30,16-16,16-16l70-17c7-11,16-23,27-5c3,4.8-5,14-5,14
			l12,9c-2,29-31,1-31,1C639,508,632,532,632,532z"/>
		<path fill="#FFFFFF" stroke="#000000" d="M568.5,397c6.9,0,12.5-5.4,12.5-12s-5.6-12-12.5-12s-12.5,5.4-12.5,12
			S561.6,397,568.5,397z M538.2,383.1l1.8-0.1c0,0,7.7-31.7,29.7-27.3c17.1,12.7,37.2,33.1,34.3,57.1c0,0-7.4,13.7-17,5.4l-0.2,0.3
			c0,0-16,14.4-18,0l-1.3,0.2c-8.5,8-10.2,0.8-10-6.9H557c0,0-17.3,9.3-9.7-19c0,0-1.6-5.8-8.6-9.399
			C538.5,383.3,538.3,383.2,538.2,383.1z"/>
		<path fill="#FFFFFF" stroke="#000000" d="M551.1,138c1.7,0.3,11.101,2.8,18.101,8.8c0.1,0.1,0.3,0.2,0.399,0.4
			c4.9,4.2,8.4,10.1,7.301,18c-0.7,5.1-3.4,11-9,17.9c-0.7,0.9-1.5,1.8-2.301,2.7c0,0-2.6,1.5-7.199,3.1l0,0
			c-0.2,0.1-0.301,0.1-0.5,0.2c-9.4,3.2-26.7,6.7-47-0.8l-4.4-15.7l15.7-25.1c0.1-0.3,0-0.6-0.101-1c0.5-6,19.601-7.8,26.5-8.3
			C550.1,138,551.1,138,551.1,138z"/>
		<path fill="#FFFFFF" stroke="#000000" d="M568.5,397c-6.9,0-12.5-5.4-12.5-12s5.6-12,12.5-12s12.5,5.4,12.5,12
			S575.4,397,568.5,397z"/>
		<path fill="#FFFFFF" stroke="#000000" d="M538.2,383.1c-2.7-1.3-6.101-2.199-10.4-2.3c9.9-11.399,15.4-25.3,18.3-39.3l1.301,0.3
			c0,0,10.399,5.101,22.399,14c-22-4.399-29.7,27.3-29.7,27.3H538.2z"/>
		<path fill="#FFFFFF" stroke="#000000" d="M425.9,107.2c0,0,29.6-49.1,78.6-28.9c8.5-28.8,29-59.4,30.2-59.1c0,0,5,38.4,9.399,47.2
			c4.4,8.8,19.5,27,19.5,27c6.301,10.8,7.601,27.8,7.7,41.3c0,4.3-0.1,8.3-0.3,11.5c0,0.3,0,0.6,0,0.9l-1.4,0.1
			c-0.1-0.1-0.3-0.2-0.399-0.4c-7-5.9-16.4-8.5-18.101-8.8c0,0-1,0-2.5,0.1v-0.5c-6.199-22.8-19.8-30.9-19.8-30.9
			C509,98.1,505,135.3,505,135.3l0,0c-8.7-1.3-16.6,2.5-21.1,5.4C472.1,115.8,449.8,129.8,449.8,129.8c-23.3,22-1.899,39-1.899,39
			s-8.301,7-13.801,16.6c-2.899,5-5,10.8-4.699,16.6H428c-4.3-3.9-8.3-8.4-11.8-13c-12.9-16.7-20.601-35.1-21.101-35.6
			c-0.199-1.9-1.699-11.1-7.699-22.7c-6.301-12.2-17.7-27-38.101-38.6l0,0C371.2,82.6,388.2,83.3,425.9,107.2z"/>
		<path fill="#FFFFFF" stroke="#000000" d="M540.1,239.6l1.601,37.1l-29.101-6v-0.1c2.301-0.7,3.801-2.7,3.7-4.9
			c-0.1-2.7-2.8-4.8-5.899-4.7L540.1,239.6z"/>
		<path fill="#FFFFFF" stroke="#000000" d="M556,195.6c-28.7,60.8-89,31.9-90,31.4l0,0l-0.2-0.6c10.7-3.8,25.4-14.6,45-38.1
			c20.3,7.4,37.601,4,47,0.8l0.4,1.2C557.8,191.2,557,193.1,556,195.6z"/>
		<path fill="#FFFFFF" stroke="#000000" d="M483.9,140.7c4.5-2.9,12.3-6.8,21.1-5.4l0,0c1.7,0.3,3.4,0.7,5.2,1.4
			c0,0,10.8,5.4,11.899,9.7c0,0.3,0,0.6,0.101,1l-15.7,25.1c0,0-26.4-0.6-27-3.8c-0.3-1.6-4.4-3.3-6.3-6.9l0,0
			c-1.9-3.6-1.601-9.1,6.899-18.2C480,143.6,481.5,142.3,483.9,140.7z"/>
		<path fill="#FFFFFF" stroke="#000000" d="M511,270.9c-3.1,0.2-5.8-1.9-5.9-4.7c-0.1-2.7,2.301-5.1,5.4-5.2
			c3.1-0.2,5.8,1.9,5.9,4.7c0.1,2.2-1.5,4.2-3.7,4.9C512.2,270.8,511.6,270.9,511,270.9z"/>
		<path fill="#FFFFFF" stroke="#000000" d="M512.7,270.7L474.5,287v-40.4l36,14.5c-3.1,0.1-5.5,2.5-5.4,5.2
			c0.101,2.7,2.801,4.8,5.9,4.7C511.6,270.9,512.2,270.8,512.7,270.7L512.7,270.7z"/>
		<path fill="#FFFFFF" stroke="#000000" d="M519,521.6c0,0-4.4,9.4-23.9,0c0,0-7.8-3.199-17.3-9.199c-7.399-27,24.5-28.5,31.7-28.5
			c1.9,1.8,4.3,3.5,7.5,4.3c0,0,27.7-7.5,23.3,18.2c0,0-4.399,10.699-9.399,6.899C531,513.5,529.7,525.4,519,521.6z"/>
		<path fill="#FFFFFF" stroke="#000000" d="M473.1,161.9c1.9,3.6,6,5.4,6.301,6.9c0.6,3.1,27,3.8,27,3.8l4.399,15.7
			c-19.7,23.5-34.399,34.3-45,38.1c-0.899,0.3-1.8,0.6-2.7,0.8c-5.3,1.4-9.399,0.9-12.6-0.6c-0.4-0.2-0.7-0.3-1-0.5
			c-10.5-5.1-16.1-11-18.5-17.1c-1-2.3-1.4-4.7-1.5-7.1c-0.2-5.8,1.9-11.6,4.7-16.6c5.5-9.6,13.8-16.6,13.8-16.6
			C457.2,158.9,472.5,161.8,473.1,161.9L473.1,161.9z"/>
		<path fill="#FFFFFF" stroke="#000000" d="M541.8,276.7l-1.6-37.1L510.6,261.1l-36-14.5V287l38.301-16.3L541.8,276.7z M463.1,227.2
			c0.9-0.2,1.801-0.5,2.7-0.8l0.2,0.6l0,0c0.9,0.5,61.3,29.4,90-31.4c-5.5,13.4-17.1,47.1-11.2,78.9c0,0,1,4.1,2,10.8L500,332
			l-41.2-52.9C469,253,463.7,229.8,463.1,227.2z"/>
		<path fill="#FFFFFF" stroke="#000000" d="M456.5,148.1c3.3,6.3,7.4,10.7,9.1,9.8c1.7-0.9,0.4-6.7-3-13
			c-3.3-6.3-7.399-10.7-9.1-9.8C451.9,136,453.2,141.8,456.5,148.1z M449.8,129.8c0,0,22.3-14,34.101,10.9c-2.5,1.6-3.9,2.9-3.9,2.9
			c-8.5,9.1-8.8,14.6-6.9,18.2c-0.5-0.1-15.899-3-25.199,6.9C447.9,168.8,426.5,151.8,449.8,129.8z"/>
		<path fill="#FFFFFF" stroke="#000000" d="M401.3,513.1c-1.3,0.4-3.6,1-3.6,1s-57.9,7.5-67.3-3.1c0,0-11.601-15.7-18.2-30
			c-2.8-6-4.601-11.7-4.4-15.9c-3.3-31,4.4-43.399,4.4-43.399c8.2-47.2,91.8-87.4,91.8-87.4c10.6-5.1,19.4-10.8,26.7-16.899
			c14.6-12.101,23.3-25.5,28.2-38.3L500,332l46.8-46.8c1.101,7.6,2.3,18.5,2,30.8c-0.2,8.1-0.899,16.8-2.7,25.5
			c-2.899,14-8.399,28-18.3,39.3c0,0-37.8,49.101-26.3,86.4c0.6,2.1,1.4,4.1,2.4,6.1c0,0,1,6.101,5.699,10.8
			c-7.199,0-39.1,1.5-31.699,28.5C477.6,512.4,477.3,512.2,477,512c1.2,1.9,2.6,6.2-10.1,6.7C466.8,518.5,408.6,514.4,401.3,513.1
			c1.101-0.3,1.5-0.5-0.5-0.3C400.3,512.9,400.5,513,401.3,513.1z"/>
		<path fill="#FFFFFF" stroke="#000000" d="M465.6,157.9c-1.699,0.9-5.8-3.5-9.1-9.8c-3.3-6.3-4.6-12.1-3-13
			c1.7-0.9,5.8,3.5,9.1,9.8C466,151.2,467.3,157,465.6,157.9z"/>
		<path fill="#FFFFFF" stroke="#000000" d="M225.7,127H297l15.3-48.6c34.4,16.9,54.601,39,65.9,62.1c28.6,58.4,0,122.6,0,122.6
			C368,279.8,353.6,301.4,341.7,319c-12.3,18.2-22,32.1-22,32.1c-28.3,44.7-7.5,70.4-7.5,70.4s-7.7,12.4-4.4,43.4
			c0,0-58.5,0.6-52.2-47.2c0,0,7.9-54.8,16.3-95.101c1.9-9.1,3.8-17.5,5.7-24.399c0,0,13.8-137.1-22.6-153.5
			c-7.9-3.5-16-8.5-23.9-14C229.2,129.6,227.5,128.3,225.7,127z"/>
		<path fill="#FFFFFF" stroke="#000000" d="M195.7,84.5c0,0,38.1,21.1,24.5,10.1c-96.5-78.5,19.7-15.1,22-13.9
			c-0.9-0.8-20.1-18.4-18.2-23.9c1.9-5.7,43.4,15.1,43.4,15.1c-8.2-22,34.6,8.2,34.6,8.2l-1.3-6.9c4,1.7,7.8,3.4,11.5,5.2L297,127
			h-71.3C191.3,100.8,165.1,64.8,195.7,84.5z"/>
	</g>
	<g>
		<path fill="none" stroke="#000000" d="M403.8,122.2c-17.3-21.7-53.6-29.3-54.7-29.6"/>
		<path fill="none" stroke="#000000" d="M534.6,19.7c0,0-8.8,44-5,61"/>
		<path fill="none" stroke="#000000" d="M530.9,514.1c0,0,0.6-15.1-15.101-13.199"/>
		<path fill="none" stroke="#000000" d="M518.9,522.2c0,0-4.4-13.8-10.7-12.601"/>
		<path fill="none" stroke="#000000" d="M459.2,416.6c0,0,1.3-52.199-36.5-42.1"/>
		<path fill="none" stroke="#000000" d="M400.7,513.4c0,0-32.7-29.601-17-55.301"/>
		<path fill="none" stroke="#000000" d="M586.8,418.8c-0.899-0.8-1.8-1.7-2.7-2.899c-6.6-8.4,5.301-13.2,5.301-13.2"/>
		<path fill="none" stroke="#000000" d="M568.6,419.1c-0.5-3.5-0.1-8.699,1.5-16.199"/>
		<path fill="none" stroke="#000000" d="M558.5,400.2c0,0-1.2,6.2-1.3,12.1"/>
		<path fill="none" stroke="#000000" d="M510.7,188.9c0,0,6,6.6,5.2,13.7c-0.5,4.2-4.801,9.6-10,12"/>
		<polyline fill="none" stroke="#000000" stroke-width="0.25" points="547.2,155 569.1,147.4 571,146.7 625.2,127.9 		"/>
		<polyline fill="none" stroke="#000000" stroke-width="0.25" points="547.9,167.5 576.8,165.8 630.2,162.5 		"/>
		<polyline fill="none" stroke="#000000" stroke-width="0.25" points="547.9,180.7 567.8,183.7 625.2,192.1 		"/>
		<polyline fill="none" stroke="#000000" stroke-width="0.25" points="464.2,180.1 434.1,186 416.1,189.6 396.9,193.3 		"/>
		<polyline fill="none" stroke="#000000" stroke-width="0.25" points="468.6,194.6 430.8,209.7 402.6,221 		"/>
		<polyline fill="none" stroke="#000000" stroke-width="0.25" points="476.2,205.3 449.3,226.8 415.8,253.7 		"/>
		<path fill="none" stroke="#000000" d="M515.9,202.6c0,0,7.199,4.2,16,1"/>
		<path fill="none" stroke="#000000" d="M621.8,508.3c-1.8,0.4-3.6,1.7-4.899,4.3"/>
		<path fill="none" stroke="#000000" d="M712.9,486.6c0,0,1.3-0.3,3.1-0.5"/>
		<path fill="none" stroke="#000000" d="M478.2,511.7c0,0-44.4-79.601-6.8-117.3"/>
		<path fill="none" stroke="#000000" d="M716,486.2c2.7-0.2,6.5,0.1,8.9,2.5"/>
	</g>
</g>
</svg>
