<?xml version="1.0" encoding="utf-8"?>
<!-- Generator: Adobe Illustrator 15.0.0, SVG Export Plug-In . SVG Version: 6.00 Build 0)  -->
<!DOCTYPE svg PUBLIC "-//W3C//DTD SVG 1.1//EN" "http://www.w3.org/Graphics/SVG/1.1/DTD/svg11.dtd">
<svg version="1.1" id="layer_x5F_www.ABC-color.com"
	 xmlns="http://www.w3.org/2000/svg" xmlns:xlink="http://www.w3.org/1999/xlink" x="0px" y="0px" width="822px" height="567px"
	 viewBox="0 0 822 567" enable-background="new 0 0 822 567" xml:space="preserve">
<polyline fill="#FFFFFF" points="0,0 822,0 822,567 "/>
<path fill="#FFFFFF" stroke="#000000" stroke-miterlimit="10" d="M608.5,400.1l0.1,0.302c-0.1,0.198-12.1,67.398-37.698,106.1
	c-23.4,1.8-30.9-21.3-30.9-21.3l-0.2-0.102c23.2-40.3,27.2-74.5,28.2-84.3C583,406,596.8,404.4,608.5,400.1z"/>
<path fill="#FFFFFF" stroke="#000000" stroke-miterlimit="10" d="M544.4,507.6c-0.7,0.2-26.9,9.9-22.802,4.7
	c7.102-9.2,13.2-18.398,18.302-27.2l0.198,0.102c0,0,7.5,23.1,30.9,21.3c-7.1,10.7-15.2,19.2-24.3,23.5
	C546.6,530,535.7,515.9,544.4,507.6z"/>
<path fill="#FFFFFF" stroke="#000000" stroke-miterlimit="10" d="M401.9,461.7c0,0,26.1,25.898,34.8,23.6l0.398,0.3
	C419,509,404.7,505.4,398.6,507.7c-7.5-2.3,5.102-26.5,5.4-27.102c-0.7,0.4-29,14.302-23.9,8.2c6.5-7.6,13.9-17.3,21.302-27.398
	L401.9,461.7z"/>
<path fill="#FFFFFF" stroke="#000000" stroke-miterlimit="10" d="M440.9,404.2L440.6,403.6c11.5-5,16.802-16.1,16.802-16.1
	c6.3,5.7,12.3,10,17.898,13.2l-0.5,0.898c-13.398,44-26.3,69.302-37.7,84l-0.398-0.3c-8.7,2.3-34.8-23.6-34.8-23.6l-0.5-0.3
	C420.3,435.5,439,407.2,440.9,404.2z"/>
<path fill="#FFFFFF" stroke="#000000" stroke-miterlimit="10" d="M351.9,405.9v0.398c-7.602,36.5-20.7,56.5-20.7,56.5
	c-0.2,3.5-2.2,7.602-5,11.9c-15.2,3-35.3-10.7-35.3-10.7l-0.7-0.5c28.2-40.4,16.5-69.399,16.8-76.399
	C317.5,402.5,335,406.5,351.9,405.9z"/>
<path fill="#FFFFFF" stroke="#000000" stroke-miterlimit="10" d="M291,464c0,0,20.1,13.8,35.3,10.7c-9.6,14.8-29.8,31.7-29.8,31.7
	c-9.8,0-1.1-23.602-1.1-23.602c-27.2,16.5-29.4,8.3-29.4,8.3c10.3-9.698,18.2-18.898,24.3-27.6L291,464z"/>
<path fill="#FFFFFF" stroke="#000000" stroke-miterlimit="10" d="M186.5,481.7c0,0,16.3,18.8,32.6,11.8
	c-19.6,21.2-41.3,17.7-41.3,17.7l10.9-16.5l-27.2,5.898c9.7-6.5,17.7-13,24.2-19.6L186.5,481.7z"/>
<path fill="#FFFFFF" stroke="#000000" stroke-miterlimit="10" d="M262.7,386.3c21,14.8-40.8,103-43.6,107.2
	c-16.3,7.1-32.6-11.8-32.6-11.8l-0.8-0.8c37.7-37.802,28.4-75,28.5-80C225.8,416.3,244.5,399.6,262.7,386.3z"/>
<path fill="#FFFFFF" stroke="#000000" stroke-miterlimit="10" d="M262.7,386.3c-18.3,13.3-36.9,30-48.5,14.602
	c-1.8-2.4-3.5-5.7-4.9-9.9c0,0-7.3,7.9-41.2,1.101c27.1-31.801,16.2-78.801,16.2-78.801c-2.2-27.1-27.2-44.8-27.2-44.8
	c2.2-21.2-30.5-15.3-30.5-15.3c13.1-30.6-20.7-31.8-20.7-31.8l-0.5-0.5c1.3-1.3,2.7-2.5,4.1-3.7c-10.8,9.3-64.7,52-47.1-31.9
	c0,0,19.2-30.6,37.7-9.4c-0.6-1.3-43.5-93.3,66.7-79.3c3.4-10.6,44-83.2,79-12.6c0,0,33.7-65.2,72.5-29.9c0,0,98.3-67.1,75.4,9.4
	c0,0,101.5-66,114.6,13.4c0,0,160.602-24.7,107.3,44.8c0,0,130.9-9.8,66.7,52.6c0,0,120.7,66,39.2,63.6c0,0,44.6,58.9,4.4,86
	c0,0-7.602,100.101-81.602,50.601c0,0-14.2,17.5-36,25.601c-11.6,4.301-25.398,5.899-40.398,0.699c-8-2.699-16.302-7.398-24.7-14.5
	c0,0-25.4,38.5-68,14.4c-5.7-3.2-11.7-7.5-17.9-13.2c0,0-5.3,11.101-16.8,16.101c-9.3,4.101-22.8,4.199-40.9-9
	c0,0-23.398,10.5-47.898,11.399c-16.9,0.601-34.3-3.5-44.8-18.8c-0.7-1-1.3-2.102-2-3.2C294.8,365.6,278.9,374.6,262.7,386.3z
	 M198.5,289.7c38.1-41.2-44.6-57.7-44.6-57.7C183.3,300.3,198.5,289.7,198.5,289.7z"/>
<path fill="#FFFFFF" stroke="#000000" stroke-miterlimit="10" d="M153.9,232c0,0,82.7,16.5,44.6,57.7
	C198.5,289.7,183.3,300.3,153.9,232z"/>
<path fill="#FFFFFF" stroke="#000000" stroke-miterlimit="10" d="M184.4,313.3c0,0,10.9,47-16.2,78.8c-3.1-0.6-6.4-1.398-9.9-2.199
	c0,0-26.1,76.601-81.6,28.301c0,0-62.6-110.801,28.9-197.2l0.5,0.5c0,0,33.7,1.2,20.7,31.8c0,0,32.6-5.9,30.5,15.3
	C157.2,268.5,182.2,286.2,184.4,313.3z M119.1,301.5c0-20,6.5-25.9,2.2-29.5c-4.3-3.6-2,15.9-22.8,23.6
	c-10.2,3.801-8.6,30.602-4.4,34.2C98.4,333.3,119.1,313.2,119.1,301.5z M114.8,269.7C99.6,266.2,80,290.9,74.5,299.1
	c-5.4,8.301,8.7,5.9,8.7,5.9C93.7,276.9,114.8,269.7,114.8,269.7z M108.2,408.1c0-3.6-3.9-6.5-8.7-6.5s-8.7,2.9-8.7,6.5
	c0,3.602,3.9,6.5,8.7,6.5S108.2,411.7,108.2,408.1z"/>
<path fill="#FFFFFF" stroke="#000000" stroke-miterlimit="10" d="M121.3,272c4.3,3.6-2.2,9.4-2.2,29.5c0,11.7-20.7,31.8-25,28.3
	c-4.3-3.6-5.9-30.399,4.4-34.2C119.3,287.9,117,268.5,121.3,272z M113.1,310.4c0-5.5-4.1-9.9-9.2-9.9s-9.2,4.4-9.2,9.9
	s4.1,9.898,9.2,9.898S113.1,315.9,113.1,310.4z"/>
<path fill="#FFFFFF" stroke="#000000" stroke-miterlimit="10" d="M74.5,299.1c5.4-8.199,25-33,40.3-29.398c0,0-21,7.3-31.5,35.3
	C83.2,305,69.1,307.4,74.5,299.1z"/>
<path id="www.ABC-color.com" fill="#FFFFFF" stroke="#000000" stroke-miterlimit="10" d="M104,300.5c5.1,0,9.2,4.4,9.2,9.9
	s-4.1,9.898-9.2,9.898s-9.2-4.398-9.2-9.898S98.9,300.5,104,300.5z M107,310.3c0-1.899-1.5-3.5-3.3-3.5c-1.8,0-3.3,1.601-3.3,3.5
	c0,2,1.5,3.5,3.3,3.5C105.5,313.8,107,312.3,107,310.3z"/>
<path fill="#FFFFFF" stroke="#000000" stroke-miterlimit="10" d="M103.7,306.8c1.8,0,3.3,1.601,3.3,3.5c0,2-1.5,3.5-3.3,3.5
	c-1.8,0-3.3-1.6-3.3-3.5C100.4,308.4,101.9,306.8,103.7,306.8z"/>
<path id="ABC-color.com" fill="#FFFFFF" stroke="#000000" stroke-miterlimit="10" d="M99.5,401.6c4.8,0,8.7,2.9,8.7,6.5
	c0,3.602-3.9,6.5-8.7,6.5s-8.7-2.898-8.7-6.5C90.8,404.5,94.7,401.6,99.5,401.6z"/>
<path fill="none" stroke="#000000" d="M153.9,232c0,0,82.7,16.5,44.6,57.7C198.5,289.7,183.3,300.3,153.9,232z"/>
<path fill="none" stroke="#000000" d="M158.3,389.8c0,0,4.4-42.399-5.4-49.5"/>
<path fill="none" stroke="#000000" d="M135.4,343.9c0,0,23.9,3.5,25-15.301"/>
<path fill="none" stroke="#000000" d="M111.5,215.5c0,0,22.8-20-35.9-13c0,0-13.1,23.6,6.5,22.4"/>
<path fill="none" stroke="#000000" d="M100.3,175.8c0,0,55.8,0.8,62.4-20.4c6.9-22.4-24-95.9-62-20c0,0,9.8,40.1,46.8,3.5
	c0,0-1.1-25.9-22.8-10.6"/>
<path fill="none" stroke="#000000" d="M167,94.2c0,0,26.1,57.7,64.2,10.6c0,0,0-61.3-25-27.1c0,0-6.5,28.3,9.8,20"/>
<path fill="none" stroke="#000000" d="M246,84c0,0,1.4,38.9,55.8,16.5c0,0,31.5-25.1,2.2-39.3c0,0-38.1-9.4-27.2,24.7"/>
<path fill="none" stroke="#000000" d="M318.5,54.1c0,0,10.2,29.8,33.4,23.6c0,0,54-22.8,7.3-32.2c0,0-17,0.4-9.4,15.7"/>
<path fill="none" stroke="#000000" d="M393.9,63.5c0,0-18.102,55.4,63.5,45.9c0,0,44.6-30.6,16.3-47.1c0,0-46.8-23.6-31.5,22.4"/>
<path fill="none" stroke="#000000" d="M615.8,121.6c0,0-41,36.1,8,37.3c0,0,57.3,11.8,29-24.7c0,0-16.7-10.6-23.2,16.5"/>
<path fill="none" stroke="#000000" d="M682.6,174.3c0,0-99,16.5-45.698,43.6c0,0,82.698,21.2,64.198-8.2c0,0-23.898-20-32.6-5.9"/>
<path fill="none" stroke="#000000" d="M720.6,236.7c0,0-84.8-13-50,24.7c0,0,57.7,61.3,51.102,22.4"/>
<path fill="none" stroke="#000000" d="M723.9,321.5c0,0-107.7-78.9-81.602-14.1c0,0,33.7,78.898,40.2,38.898"/>
<path fill="none" stroke="#000000" d="M644.5,373.3c0,0-118.6-61.3-68.5-63.6c0,0,69.6,2.399,51.1,23.6"/>
<path fill="none" stroke="#000000" d="M543.3,386.3c0,0-71.8-89.5-27.2-77.7c0,0,63.102,31.801,34.802,47.102"/>
<path fill="none" stroke="#000000" d="M456.3,385.1c0,0-8.7-74.199,16.3-48.3c0,0,27.2,25.9,5.4,29.4"/>
<path fill="none" stroke="#000000" d="M398.7,393.4c0,0-63.102-82.5-22.8-67.102c0,0,48.898,4.7,27.198,28.301
	c0,0-8.698,9.399-17.398-1.199"/>
<path fill="none" stroke="#000000" d="M210.5,389.8c0,0,43.5-45.899,13.1-57.7c0,0-35.9,5.9-19.6,29.4"/>
<path fill="none" stroke="#000000" d="M294.2,373.3c0,0-54.4-63.6-30.5-61.3c0,0,114.2,9.4,68.5,33c0,0-43.5,23.6-42.4,2.4"/>
<path fill="none" stroke="#000000" d="M197.4,179c0,0-21.8,24.7,4.4,33c0,0,30.5,16.5,34.8-5.9c0,0-2.2-45.9-14.1-33
	c0,0-15.2,16.5-3.3,23.6"/>
<path fill="none" stroke="#000000" d="M331.2,135.4c0,0-35.9-27.1-33.7,29.4c0,0,2.2,28.3,22.8,28.3c6.5,0,51.102,2.4,45.7-20
	c0,0-52.2-44.8-56.6-9.4"/>
<path fill="none" stroke="#000000" d="M294.2,230.8c0,0-50,9.4-20.7,34.2s29.4,40,47.9,25.9c18.5-14.102,46.8-18.8,29.398-38.9
	c-17.398-20.1-37-27.1-42.398-7.1c-5.4,20-3.301,29.4,2.198,29.4c5.4,0,20.7-1.2,20.7-11.8"/>
<path fill="none" stroke="#000000" d="M424.8,146c0,0-26.1-16.5-25,18.8c0,0-13.1,37.7,5.4,40c18.5,2.4,21.8,9.4,37-9.4
	c15.2-18.8,30.5-29.4,14.1-31.8c-16.3-2.4-39.2-1.2-38.1,15.3"/>
<path fill="none" stroke="#000000" d="M498.7,226.1c0,0-40.2,5.9-22.8,21.2c17.398,15.3,31.5,25.9,44.6,16.5
	c13.1-9.4,44.6-13,34.8-37.7c-9.8-24.7-26.1-54.2-37-30.6c-10.898,23.6-20.7,40-9.8,44.8c10.9,4.7,16.3,5.9,26.1-2.4
	c9.802-8.2,9.802-20,1.102-22.4"/>
<path fill="none" stroke="#000000" d="M485.7,134.2c0,0-16.3,20-6.5,24.7c9.8,4.7,3.3,21.2,15.2,18.8c12-2.4,23.898-10.6,30.5-22.4
	c6.5-11.8,4.398-34.2-9.802-27.1c-14.198,7.1-25,21.2-18.5,24.7"/>
<path fill="none" stroke="#000000" d="M579.2,171.9c0,0-17.4-9.4-15.2,13s2.2,34.2,14.1,35.3c12,1.2,28.302,0,28.302-7.1
	s-21.802-36.5-25-25.9"/>
<path fill="none" stroke="#000000" d="M561.8,115.4c0,0-27.2,22.4-15.2,30.6s20.7,13,29.4,5.9s8.7-21.2,5.4-22.4
	c-3.302-1.2-15.2-1.2-16.302,10.6"/>
<path fill="none" stroke="#000000" d="M412.8,237.9c0,0-28.3,2.4-16.3,33s13.1,22.4,30.5,16.5c17.4-5.9,33.7-9.4,28.3-24.7
	c-5.398-15.3-22.8-20-29.398-5.9c-6.602,14.1-14.102,10.6-14.102,23.6"/>
<path fill="none" stroke="#000000" d="M233.3,260.3c0,0-21.8,24.7-10.9,30.601c10.9,5.899,19.6,15.301,27.2,7.101
	s17.4-17.7,9.8-25.9c-7.6-8.2-25-1.2-18.5,7.1"/>
<path fill="none" stroke="#000000" d="M140.9,183.7c0,0-19.6,15.3-5.4,21.2s25,17.7,30.5,7.1c5.4-10.6,7.6-27.1,0-24.7
	c-7.6,2.4-13.1,14.1-13.1,14.1"/>
<path fill="none" stroke="#000000" d="M236.6,127.1c0,0-35.9,10.6-26.1,18.8c9.8,8.2,25,15.3,35.9,10.6s27.2-2.4,26.1-13
	s-15.2-17.7-23.9-5.9"/>
<path fill="none" stroke="#000000" d="M263.8,176.6c0,0-21.8,37.7-8.7,40c13.1,2.4,19.6,13,30.5,3.5c10.9-9.4,16.3-28.3,3.3-24.7
	c-13.1,3.5-25,10.6-21.8,14.1"/>
<path fill="none" stroke="#000000" d="M374.7,207.2c0,0-20.7,7.1-12,22.4c8.7,15.3,12,30.6,16.3,28.3c4.4-2.4,13.1-18.8,13.1-28.3
	c0-9.4-14.1-15.3-14.1-4.7"/>
<path fill="none" stroke="#000000" d="M601,247.3c0,0-30.5-8.2-29.4,5.9c1.102,14.1-5.398,35.3,3.302,36.5
	c8.698,1.2,16.3,5.899,26.1-2.4c9.8-8.2,5.4-29.4-5.4-25.9"/>
<path fill="none" stroke="#000000" d="M360.6,104.8c0,0-15.198-3.5-14.1,9.4c1.1,13,5.4,27.1,14.1,27.1c8.7,0,20.7,4.7,26.102-4.7
	c5.398-9.4,0-23.6-10.9-17.7c-10.898,5.9-17.398,1.2-15.2,7.1"/>
<path fill="none" stroke="#000000" d="M478.1,281.5c0,0-12-2.4-12,10.6c0,13,5.4,22.4,10.9,21.2s17.4-9.399,19.6-16.5
	c2.2-7.1-8.698-16.5-14.1-5.899"/>
<path fill="none" stroke="#000000" d="M368.2,282.6c0,0-25,10.6-14.102,16.5c10.9,5.9,13.102,13,20.7,10.602
	c7.602-2.4,15.2-5.9,14.102-11.801c-1.102-5.899-8.7-8.199-13.102,0"/>
<path fill="none" stroke="#000000" d="M423.7,315.6c0,0-10.9,17.7-2.2,18.801c8.7,1.199,12,7.101,18.5,1.199
	c6.5-5.898,6.5-16.5,5.4-20c-1.102-3.5-13.102,1.2-12,7.102"/>
<path fill="none" stroke="#000000" d="M349.7,362.7c0,0-25,0-20.7,13c4.4,13,12,16.5,20.7,14.1c8.7-2.399,17.398-10.6,18.5-15.3
	c1.1-4.7-15.2-8.2-17.4-1.2"/>
<path fill="none" stroke="#000000" d="M539,85.5c0,0,68.9-2.4,58,9.4c-10.9,11.8-40.6,1.6-40.6,1.6c-2.2,13-14.102,10.6-43.5,5.9
	c-29.4-4.7-4.4-25.5-4.4-25.5"/>
</svg>
