<?xml version="1.0" encoding="utf-8"?>
<!-- Generator: Adobe Illustrator 15.0.0, SVG Export Plug-In . SVG Version: 6.00 Build 0)  -->
<!DOCTYPE svg PUBLIC "-//W3C//DTD SVG 1.1//EN" "http://www.w3.org/Graphics/SVG/1.1/DTD/svg11.dtd">
<svg version="1.1" id="Layer_x5F_www.ABC-color.com"
	 xmlns="http://www.w3.org/2000/svg" xmlns:xlink="http://www.w3.org/1999/xlink" x="0px" y="0px" width="822px" height="567px"
	 viewBox="0 0 822 567" enable-background="new 0 0 822 567" xml:space="preserve">
<polyline fill="#FFFFFF" points="0,0 822,0 822,567 "/>
<path fill="#FFFFFF" stroke="#000000" stroke-width="2" d="M632.8,134.4c-7.3-2.2-34.2-22.7-34.2-22.7C584,88.2,594.5,86,594.5,86
	C618.1,96.3,632.8,134.4,632.8,134.4z"/>
<path fill="#FFFFFF" stroke="#000000" stroke-width="2" d="M741.9,78.7c0,0,7.3-1.5,4.1,10.3c0,0-9,30.1-26,30.1l-0.3,0.3
	c-2.9-2.2-6.602-4.5-11.102-6.9c0,0-1.198-2.7-3.5-7.1C708.3,105.2,718.2,102.2,741.9,78.7z"/>
<path fill="#FFFFFF" stroke="#000000" stroke-width="2" d="M675.9,98.5l13,17.6c-4.102-2.9-12.2,5.1-12.2,5.1
	C673.4,119,659.6,115,659.6,115h-0.3c0.2-0.7,0.3-1.1,0.3-1.1c-29.198-41.8-87-57.9-87-57.9c-11.398-5.1-6.5-10.3-6.5-10.3
	C597,31.8,675.9,98.5,675.9,98.5z"/>
<path fill="#FFFFFF" stroke="#000000" stroke-width="2" d="M705,105.3c2.2,4.4,3.5,7.1,3.5,7.1s-15.5,0.7-19.5,3.7l-13-17.6
	c-7.3-33-51.3-75.5-51.3-75.5c-4.102-6.6,2.398-7.3,2.398-7.3C660.7,22.3,694.4,84.1,705,105.3z"/>
<path fill="#FFFFFF" stroke="#000000" stroke-width="2" d="M754,189.5c-0.2,0.7-0.4,1.4-0.6,2.1c-0.9,1-2.5,1.4-3.4,1.4
	c-1.4,0-2.4-1.6-2.4-3.7c0-2,1.5-2.4,2.802-2.2C752.6,187.5,753.8,188,754,189.5z"/>
<path fill="#FFFFFF" stroke="#000000" stroke-width="2" d="M734.1,188.6c2.102,1.2-1.698,3.7-5.3,3.7c-3.6,0-4.1-1.1-4.1-3.3
	s0.1-1.8,3.7-1.8C732,187.2,731.7,187.2,734.1,188.6z"/>
<path fill="#FFFFFF" stroke="#000000" stroke-width="2" d="M733.5,136.1l-0.2,0.1c-9.1,9.2-0.5,15,0.7,15.7c-0.8,1-1.7,1.5-2.7,1.5
	c-2.7,0-4.898-4.1-4.898-9.2c0-5.1,2.198-9.2,4.898-9.2C732.1,135.1,732.8,135.5,733.5,136.1z"/>
<path fill="#FFFFFF" stroke="#000000" stroke-width="2" d="M733.5,136.1c1.6,1.5,2.7,4.6,2.7,8.2c0,3.2-0.9,6-2.2,7.6
	c-1.2-0.7-9.8-6.4-0.7-15.7L733.5,136.1z"/>
<ellipse fill="#FFFFFF" stroke="#000000" stroke-width="2" cx="677.6" cy="146.5" rx="6.5" ry="8.4"/>
<path fill="#FFFFFF" stroke="#000000" stroke-width="2" d="M684.1,146.5c0-4.7-2.898-8.4-6.5-8.4c-3.6,0-6.5,3.8-6.5,8.4
	c0,4.7,2.9,8.4,6.5,8.4C681.2,154.9,684.1,151.1,684.1,146.5z M680,136.6c0,0,9.8,14.7,13,18.3c0,0-19.6,6.9-22.8,3.7
	c-4-4-6.5-13.2-13.8-17.6C656.4,141,673.5,133.7,680,136.6z"/>
<path fill="#FFFFFF" stroke="#000000" stroke-width="2" d="M715.8,231.1c2.4,5.2,6.5,36.6,3.2,33c-3.3-3.7-6.5-14.7-6.5-14.7
	c0,7.3,3.3,28.6,3.3,28.6c-1.6-2.2-6.5-11-6.5-11c-0.8,9.5,4.9,27.9,4.9,27.9c0,7.199-9.5-19-9.8-19.8
	c6.3,20.7-6.602,33.8-7.302,34.4c5.7-5.9,2.4-29.3,2.4-29.3c-8.1-3.7-9.8-47.6-9.8-47.6c4.1-13.9-0.8-23.5-0.8-23.5
	s19.5,10,35.8,13.3c-1.5,6,4.1,26.2,4.1,26.2C724.8,246.6,716.1,231.6,715.8,231.1z"/>
<path fill="#FFFFFF" stroke="#000000" stroke-width="2" d="M607.6,276.9l3,43.7c-0.398-0.1-0.698-0.1-0.698-0.1
	c-4.9,0-14.602-27.1-14.602-27.1S600.8,286.1,607.6,276.9z"/>
<path fill="#FFFFFF" stroke="#000000" stroke-width="2" d="M646.4,225.3c0-1.5-0.2-2.8-0.602-3.7C645.8,221.6,646,223.1,646.4,225.3
	z M607.6,276.9c-6.898,9.2-12.3,16.6-12.3,16.6C550.6,214.3,572.6,185,572.6,185l35-19.8c9,0,25.2-30.8,25.2-30.8
	S618.1,96.3,594.5,86c8.1-8.8,27.7,16.9,27.7,16.9l30.898,17.6c3.802,1.7,5.602-3.2,6.302-5.5h0.3c0,0,13.8,4,17.1,6.2
	c0,0,8.102-8.1,12.2-5.1c4.1-2.9,19.5-3.7,19.5-3.7c4.6,2.4,8.2,4.7,11.1,6.9c11.7,8.8,11.7,15.8,11.7,15.8
	c-2.7,0-4.898,4.1-4.898,9.2c0,5.1,2.198,9.2,4.898,9.2l13,16.9c10.102,6.9,10.8,14.3,9.7,19.2c-0.2-1.6-1.4-2.1-3.6-2.4
	c-1.302-0.2-2.802,0.2-2.802,2.2s1.102,3.7,2.4,3.7c0.9,0,2.6-0.4,3.4-1.4c-0.802,2.2-1.802,3.6-1.802,3.6
	c5.7,14.7-6.698,24.9-7.698,24.9v0.4c-3.802,3.6-11.102,3.6-19.2,2c-16.3-3.3-35.8-13.3-35.8-13.3c-4.102-3.7-26.9,1.5-26.9,1.5
	c7.3,7.3,1.3,29.9,0.8,25.7c-0.8-7.3-9.8-22-9.8-22c3.3,13.9-2.4,34.4-2.4,34.4c-1.198-4.3-3.3-17-4.3-23.4
	c0,10.8-8.7,34.4-8.7,34.4c-0.8-8.8-1.6-19.1-1.6-19.1C633.5,242.5,618.7,262.1,607.6,276.9z M728.8,192.3c3.602,0,7.3-2.4,5.3-3.7
	c-2.398-1.5-2.1-1.5-5.698-1.5c-3.602,0-3.7-0.4-3.7,1.8C724.7,191.1,725.2,192.3,728.8,192.3z M693,154.9c-3.3-3.7-13-18.3-13-18.3
	c-6.5-2.9-23.6,4.4-23.6,4.4c7.3,4.4,9.898,13.6,13.8,17.6C673.4,161.8,693,154.9,693,154.9z"/>
<path fill="#FFFFFF" stroke="#000000" stroke-width="2" d="M595.4,293.4c0,0,9.8,27.1,14.6,27.1c0,0-14.6,3.7-16.3,5.9L585.6,308.8
	c0,0-47.198-75.5-27.698-116.5l14.6-7.3C572.6,185,550.6,214.3,595.4,293.4z"/>
<path fill="#FFFFFF" stroke="#000000" stroke-width="2" d="M611.7,365c9.3,1.4,17,4.7,17,4.7c-1.602,8.1-14.7,6.2-14.7,6.2
	c0-1.7-1-3.2-2.4-4l0,0V365.3L611.7,365z"/>
<path fill="#FFFFFF" stroke="#000000" stroke-width="2" d="M614.1,375.9c0,2.6-2.398,4.8-5.3,4.8c-2.898,0-5.3-2.101-5.3-4.8
	l0.2-1.2c0.6-2.101,2.7-3.601,5.1-3.601c1.102,0,2,0.301,2.8,0.699C613.1,372.7,614.1,374.2,614.1,375.9z"/>
<path fill="#FFFFFF" stroke="#000000" stroke-width="2" d="M611.7,365v0.3v6.601l0,0c-0.8-0.5-1.8-0.699-2.8-0.699
	c-2.5,0-4.5,1.5-5.102,3.6l1.5-10.199v-0.101C607.3,364.5,609.6,364.7,611.7,365z"/>
<path fill="#FFFFFF" stroke="#000000" stroke-width="2" d="M605.1,364.5l-1.5,10.2c-0.1,0.399-0.198,0.8-0.198,1.2
	c-4.102,1.8-19.5-2.602-19.5-2.602C588.9,366.2,597.1,364.3,605.1,364.5L605.1,364.5z"/>
<path fill="#FFFFFF" stroke="#000000" stroke-width="2" d="M610,320.5c0,0,0.2,0,0.7,0.1c2.7,0.5,13.1,5.301,18.1,49.102
	c0,0-7.7-3.301-17-4.7c-2.1-0.3-4.3-0.5-6.6-0.601c-8-0.199-16.3,1.801-21.2,8.899c0,0,2.4-44.7,9.8-46.899L610,320.5z"/>
<path fill="#FFFFFF" stroke="#000000" stroke-width="2" d="M520.9,527.5l7.698,15.1c-0.8,7.302-8.1,3.7-8.1,3.7l-4.9-9.5l0.802,9.5
	c-1.602,8.8-15.5,5.9-15.5,5.9c-12.2,0.7-17.9-20.5-17.9-20.5l1.8-7.8c1.7,2,14.4,15.698,34.8,3.398
	C519.7,527.2,520.1,527.4,520.9,527.5z"/>
<path fill="#FFFFFF" stroke="#000000" stroke-width="2" d="M546.5,521.4c-3.3,2.198-7.3-1.5-7.3-1.5s-5-5.102-4.102-2.2
	c2.4,7.3,5.7,11,5.7,11c-2.1,3.1-15.7-0.102-19.898-1.102l-2-4c0,0-1-3.5-2.5-8.8h0.1c0,0,15.5-0.7,17.9-10.3c0,0-0.2-1.4-0.5-3.6
	l0.5-0.102C538.4,500.1,546.5,521.4,546.5,521.4z"/>
<path fill="#FFFFFF" stroke="#000000" stroke-width="2" d="M534,364.7c1.6-1.5,1.3,1.5,0,6.399c-3,11.601-11.1,33.801-11.1,33.801
	c9.8,25.698,1.6,31.5,1.6,31.5c-2.4,7.3,2.4,36.6,2.4,36.6c3.198,2.8,5.8,20.2,6.898,27.9c0.3,2.198,0.5,3.6,0.5,3.6
	C531.9,514,516.4,514.8,516.4,514.8H516.3c-4.1-14.398-11.5-41.7-9.7-45.5c0,0,9.802-30.8,3.302-37.398c0,0,3.3-13.9,4.1-29.302
	C514,402.6,518.8,378.7,534,364.7z"/>
<path fill="#FFFFFF" stroke="#000000" stroke-width="2" d="M211.4,422.2c-14.6,31.5,3.1,57.8,3.1,57.8c-10.6,13.9-36.2,7.3-36.2,7.3
	l-0.4-11.398l-7.4,2.5c3.2-1.4,7-13.5,7-13.5l-5.3,1.8c3.7-1.5,4.9-13.9,4.9-13.9l-4.1-0.4c4.7-2.802,2.4-22.7,2-24.102
	c6.8-2.8,11.6-2.898,13.5-6.7C188.4,421.7,196.4,427.7,211.4,422.2z"/>
<path fill="#FFFFFF" stroke="#000000" stroke-width="2" d="M178.3,487.3c0,0,25.6,6.602,36.2-7.3c0,0,22.4,21.3,16.7,29.3
	c0,0-7.7,1.5-10.2-0.7c0,0-3.3,10.602-7.3,7.302C213.7,515.9,188.8,516.2,178.3,487.3z"/>
<path fill="#FFFFFF" stroke="#000000" stroke-width="2" d="M111.1,509.6c6.1,4.4,4.5,11.4,4.5,11.4c-2.4,1.8-12.6,0-12.6,0l-0.4,6.2
	C63.1,539.3,63.9,499,63.9,499s29.7,6.2,34.6-7L111.1,509.6z"/>
<path fill="#FFFFFF" stroke="#000000" stroke-width="2" d="M179.2,427.1c-0.5,0.2-3.8,1-4.3,1.2c-7.4,2.8-17.8-13.1-18.2-14.2
	c-4.3-11.1-9.4-20.398-9.4-21.699c22.1-17,52.2-39.399,57-39.601c0,0,8.3-5.7,48.1,10.4l-0.1,0.2c-2.4,24.898-26.4,47.6-26.4,47.6
	c-19.5,21.3-34.3,12.3-34.3,12.3C185.1,424.6,186.1,424.4,179.2,427.1z"/>
<path fill="#FFFFFF" stroke="#000000" stroke-width="2" d="M164.8,128.2l-10.6,14.3c-35,46.6,1.9,51.8,9.9,52.3
	c-4.6,2.1-31.8,14.6-35.1,23.7c-3.3,2.7-9,3.9-9,3.9l-2.4,0.2c-7.4-1.4-11-10.5-11-10.5l4.5,1.2c0.8,0.4,1.7,0.6,2.4,0.6l-2.4-0.6
	c-5.1-2.1-11.4-8.9-11.4-8.9l7.7,0.7c-9-3.7-10.6-13.6-10.6-13.6l6.6,4.7c0.5,0.5,1,0.9,1.6,1.1l-1.6-1.1
	c-3.6-3.4-5.3-11.2-5.7-13.4c1,3.2,10.1,10.1,10.1,10.1c-7.3-10.6-5.7-19.4-5.7-19.4c0,5.1,9,12.1,9,12.1
	c-8.1-20.5,1.6-30.8,1.6-30.8c-2.4,3.7,0.4,19.4,0.4,19.4c1.6-24.9,11.8-27.9,11.8-27.9c-4.9,3.7-3.3,16.9-3.3,16.9
	c12.2-29,17.1-24.9,17.1-24.9c-6.1,5.5-2.8,14.3-2.8,14.3c2.8-14.1,17.4-22.1,17.9-22.3l-4.1,7.7
	C155.5,131.8,164.8,128.2,164.8,128.2z"/>
<path fill="#FFFFFF" stroke="#000000" stroke-width="2" d="M129.1,218.5c3.3-9,30.5-21.6,35.1-23.7c0.9,0.1,1.5,0.1,1.5,0.1
	c50.5-31.5,100.1-15.4,100.1-15.4c85.5,30.8,157.9,26.8,157.9,26.8c14.2-13.9,76.898-13.9,76.898-13.9c9.802,4.4,57.4,0,57.4,0
	c-19.5,41,27.7,116.5,27.7,116.5c-4.102,22-51.3,62.3-51.3,62.3l-0.3-0.101c1.302-4.898,1.602-7.898,0-6.398
	c-15.198,14-20.1,38-20.1,38c-0.8,15.398-4.1,29.3-4.1,29.3c6.5,6.6-3.302,37.4-3.302,37.4c-1.8,3.8,5.602,31.1,9.7,45.5
	c1.5,5.3,2.5,8.8,2.5,8.8l2,4c-0.8-0.2-1.2-0.3-1.2-0.3C499.2,539.6,486.5,526,484.8,524l1.4-6.1l-7.3,2.198l3.3-8.1l-8.102,6.6
	l4.102-8.8c13-18.3,3.3-48.398,3.3-48.398c-5.7-12.5-1.6-22-1.6-22c-4.102-8.102-8.102-55-8.102-55l-6.898-2.2
	c-4.9,4-48,10.3-48,10.3c-6.9,3.3-98.102,0.4-150.2-23.1c-5.1-2.301-9.8-4.301-14.1-6.102c-39.8-16.1-48.1-10.398-48.1-10.398
	c-4.8,0.199-34.9,22.6-57,39.6c-13.5,10.3-24,18.7-24,18.7c-6.1,3.7-18.3,27.1-18.3,27.1c-5.3,4.8-9.8,28.602-9.8,28.602
	c-3.3,5.898,3.3,25.3,3.3,25.3c-4.9,13.2-34.6,7-34.6,7c-4.1,0.398-6.5-1.5-6.5-1.5c3.7,0,6.5-8.4,6.5-8.4c-6.5,4.8-8.5,0.7-8.5,0.7
	c9-2.9,20.3-52,20.3-52c-1.8,2.9-8.1,1.5-9.5,1.2c1.9-0.102,9.9-9.2,9.9-9.2c-1.2,1.1-5.7,1.6-7.8,1.8c2.5-1.3,7.4-8.398,7.4-8.398
	c-6.5,4-4.5,1.1-4.5,1.1c4.5-1.1,7.3-9.2,7.3-9.2c-6.1-5.898,2.4-16.898,2.4-16.898c27.7-19.4,40.3-60.802,40.3-60.802
	c7.7-21.299-3.7-50.6-3.7-50.6c-8.5-23.8,1.2-52,1.2-52c-0.7-5.7-4.3-8.7-5.6-9.6c2.3,0.9,6.8-2.5,6.8-2.5c-0.8,0-1.6,0-2.4-0.2
	l2.4-0.2C120.1,222.3,125.8,221.2,129.1,218.5z"/>
<path fill="none" stroke="#000000" stroke-width="2" d="M534.8,363.5c1.8-5.6,4.5-12.2,4.3-17.3"/>
<path fill="none" stroke="#000000" stroke-width="2" d="M448.3,355.2c0,0,5.2,28.2,23.3,29.1"/>
<path fill="none" stroke="#000000" stroke-width="2" d="M639.7,192.8c0,0,4.1,16.1,22.8,18.3"/>
<path fill="none" stroke="#000000" stroke-width="2" d="M622.9,175.1c0,0-6.4-16.7-0.7-23.3"/>
<path fill="none" stroke="#000000" stroke-width="2" d="M700.1,192.6c0,0,35.602,44.4,41.7,10.4c0,0-1.898,15.2,7.9,11.5"/>
<path fill="none" stroke="#000000" stroke-width="2" d="M734.3,190.1c0,0,8.3,9.3,7.5,13c-0.8,3.7,4.9-9.3,8.2-10"/>
<path fill="none" stroke="#000000" stroke-width="2" d="M639,26c0,0,4.9-2.7,6.5-1.9"/>
<path fill="none" stroke="#000000" stroke-width="2" d="M645.9,33.6c0,0,4.898-4.2,6.898-2.7"/>
<path fill="none" stroke="#000000" stroke-width="2" d="M652.1,41.7c0,0,4.102-5,9-3.8"/>
<path fill="none" stroke="#000000" stroke-width="2" d="M657.8,50.5c0,0,6.102-5.7,10.2-3.4"/>
<path fill="none" stroke="#000000" stroke-width="2" d="M663.5,57c0,0,7.8-5.7,9.8-2.7"/>
<path fill="none" stroke="#000000" stroke-width="2" d="M670.8,67.7c0,0,8.2-4.2,10.2-2.3"/>
<path fill="none" stroke="#000000" stroke-width="2" d="M676.1,76.9c0,0,8.2-4.2,11-2.3"/>
<path fill="none" stroke="#000000" stroke-width="2" d="M679.8,84.9c0,0,9.8-5,11.8-2.3"/>
<path fill="none" stroke="#000000" stroke-width="2" d="M680.6,95.6c0,0,10.602-8.4,15.9-3.8"/>
<path fill="none" stroke="#000000" stroke-width="2" d="M687.2,102.9c0,0,9.1-6.1,15.7-1.9"/>
<path fill="none" stroke="#000000" stroke-width="2" d="M690,109.4c0,0,14.3-3.4,15.1-1.1"/>
<path fill="none" stroke="#000000" stroke-width="2" d="M577.8,43.2c0,0-4.898,5.4-5.3,6.5"/>
<path fill="none" stroke="#000000" stroke-width="2" d="M585.5,45.1c0,0-6.1,3.8-5.7,7.7"/>
<path fill="none" stroke="#000000" stroke-width="2" d="M593.7,47.4c0,0-6.9,3.4-6.5,5.7"/>
<path fill="none" stroke="#000000" stroke-width="2" d="M599.8,50.1c0,0-7.8,2.3-8.2,7.3"/>
<path fill="none" stroke="#000000" stroke-width="2" d="M606.3,52c0,0-10.6,4.2-9.8,5.7"/>
<path fill="none" stroke="#000000" stroke-width="2" d="M611.7,54.7c0,0-8.2,2.3-7.8,4.2"/>
<path fill="none" stroke="#000000" stroke-width="2" d="M617,58.5c0,0-7.3,2.3-6.9,3.8"/>
<path fill="none" stroke="#000000" stroke-width="2" d="M622.3,61.2c0,0-7.8,1.5-7.8,3.8"/>
<path fill="none" stroke="#000000" stroke-width="2" d="M627.6,64.2c0,0-6.5,3.4-6.1,5"/>
<path fill="none" stroke="#000000" stroke-width="2" d="M634.9,69.6c0,0-10.2,1.9-9,6.5"/>
<path fill="none" stroke="#000000" stroke-width="2" d="M642.7,74.6c0,0-8.602,0.4-9.4,6.1"/>
<path fill="none" stroke="#000000" stroke-width="2" d="M652.1,81.8c0,0-9,0.8-10.198,5.4"/>
<path fill="none" stroke="#000000" stroke-width="2" d="M661.4,89.5c0,0-9.802-0.8-11,3.8"/>
<path fill="none" stroke="#000000" stroke-width="2" d="M669.6,96c0,0-10.6,0.4-10.198,5"/>
<path fill="none" stroke="#000000" stroke-width="2" d="M678.2,104.8c0,0-14.7,1.9-14.7,6.5"/>
<path fill="none" stroke="#000000" stroke-width="2" d="M681.4,110.5c0,0-9.802,1.5-11,4.6"/>
<path fill="none" stroke="#000000" stroke-width="2" d="M201.7,354.3c0,0,31.4-22.399,45.6-18.7"/>
<path fill="none" stroke="#000000" stroke-width="2" d="M135.8,152.4c0,0-9.6,24.5-1,36.2"/>
<path fill="none" stroke="#000000" stroke-width="2" d="M122.4,163.5c0,0-5.5,19.6,8.3,26.9"/>
<path fill="none" stroke="#000000" stroke-width="2" d="M113.8,171.6c0,0,1,21.8,10.4,24"/>
<path fill="none" stroke="#000000" stroke-width="2" d="M110,184.5c0,0,7.2,15.8,11.7,16.5"/>
<path fill="none" stroke="#000000" stroke-width="2" d="M107.9,192.5c0,0,5.7,10.3,12.6,10.3"/>
<path fill="none" stroke="#000000" stroke-width="2" d="M104.7,197.5c0,0,8.9,8.3,13,8.7"/>
<path fill="none" stroke="#000000" stroke-width="2" d="M104.7,205.5c0,0,9.3,3.2,11.8,3.2"/>
<path fill="none" stroke="#000000" stroke-width="2" d="M110.6,212.3c0,0,5.1,5.2,9.9,3.3"/>
<path fill="none" stroke="#000000" stroke-width="2" d="M94.9,507.3c0,0,8.9,13.5,7.7,15.7"/>
<path fill="none" stroke="#000000" stroke-width="2" d="M213.2,492c0,0,9.8,14.6,6.1,18.6"/>
<path fill="none" stroke="#000000" stroke-width="2" d="M223.3,369.2c0,0-21.1,53-35.4,54.5"/>
<path fill="none" stroke="#000000" stroke-width="2" d="M657,128.2c0,0,9.2,6.2,9.2,9.8"/>
<path fill="none" stroke="#000000" stroke-width="2" d="M662.9,126.3c0,1.9,6.198,5.5,6.698,10.4"/>
<path fill="none" stroke="#000000" stroke-width="2" d="M667.9,126.1c6.8,6.2,5.1,9,5.398,10.6"/>
<path fill="none" stroke="#000000" stroke-width="2" d="M728.5,138.3c0,0-6.5-6.6-8.9-5.1"/>
<path fill="none" stroke="#000000" stroke-width="2" d="M729.7,135.6c0,0-8-11.2-9.602-9"/>
<path fill="none" stroke="#000000" stroke-width="2" d="M701.6,189.5c0,0-0.5,5.6-3.8,5.6"/>
<path fill="none" stroke="#000000" stroke-width="2" d="M735.4,215.4c0,0,3.198,3.7,9.698-0.6"/>
</svg>
