<?xml version="1.0" encoding="utf-8"?>
<!-- Generator: Adobe Illustrator 15.0.0, SVG Export Plug-In . SVG Version: 6.00 Build 0)  -->
<!DOCTYPE svg PUBLIC "-//W3C//DTD SVG 1.1//EN" "http://www.w3.org/Graphics/SVG/1.1/DTD/svg11.dtd">
<svg version="1.1" id="Layer_1" xmlns="http://www.w3.org/2000/svg" xmlns:xlink="http://www.w3.org/1999/xlink" x="0px" y="0px"
	 width="822px" height="567px" viewBox="0 0 822 567" enable-background="new 0 0 822 567" xml:space="preserve">
<title>Coloring colt</title>
<desc>Vector coloring colt</desc>
<g>
	<path fill="#FFFFFF" stroke="#000000" d="M253.9,202.6c-1.9,1.5-3.7,3-5.5,4.7c0,0-73.8-80.5-122-5.5
		C94.8,251,153.8,313.3,159.5,361c1.9,16-8.8,51.3-58.9,4.8c0.4-0.3,1.3-0.1,2.6,0.601c77.2,44.8-1.1-67.7-2.6-122.101
		c-2.1-78.4,60.5-98.5,91.1-92.8C227.7,158,244.3,179.3,253.9,202.6z"/>
	<path fill="#FFFFFF" stroke="#000000" d="M248.4,207.3c-2.5,2.2-4.8,4.6-7.1,7.2c0,0-36.7-32.7-64.3-30.4
		c-27.6,2.2-78.4,26.5-8,150.5c16.2,28.4,14.4,72.5-29.2,61.9c-11.2-2.8-20.6-11.3-39.2-30.6l0,0c50,46.5,60.8,11.199,58.9-4.801
		C153.8,313.4,94.8,251.2,126.4,201.8C174.6,126.7,248.4,207.3,248.4,207.3z"/>
	<path fill="#FFFFFF" stroke="#000000" d="M241.3,214.4c-1.8,2-3.6,4.3-5.3,6.5c-89-54.3-97.8-3.4-86.6,35.8
		c9.3,32.3,68.7,121.1,32.2,142.7c-41,24.399-80-32.2-81-33.7c18.6,19.3,27.9,27.899,39.2,30.6c43.5,10.7,45.3-33.5,29.2-61.899
		c-70.4-123.9-19.6-148.2,8-150.4S241.3,214.4,241.3,214.4z"/>
	<path fill="#FFFFFF" stroke="#000000" d="M236.1,220.8c-2,2.7-3.9,5.5-5.7,8.5l0,0c-148.1-48.9-4.8,91.601-20.2,151.4
		c-0.9,3.5-9.4,31.8-45.4,28.8c-48.4-4.1-64.1-43.8-64.1-43.8l0,0c1,1.5,39.9,58,81,33.7c36.4-21.601-23-110.4-32.2-142.7
		C138.2,217.6,147.1,166.6,236.1,220.8z"/>
	<path fill="#FFFFFF" stroke="#000000" d="M230.4,229.3L230.4,229.3c-1.3,2.2-2.6,4.6-3.8,6.9c-18.4-10.5-59.1,0.7-29.6,50.6
		c51.6,87.3,20.5,130.5-22.3,130.2c-46.2-0.3-78.8-48.5-74-51.3c0,0,15.7,39.6,64.1,43.8c36,3.1,44.7-25.3,45.4-28.8
		C225.6,320.9,82.3,180.4,230.4,229.3z"/>
	<path fill="#FFFFFF" stroke="#000000" d="M315.3,346c12.8-3.8,25.101-10.8,35.601-20.5l0,0c0,0,4.199-1.5,10.8-2.3
		c-13.9,18.2-43.9,61.1-34.601,81.7c11.7,26.1,43.301,83.6,43.301,83.6c-5.601-2.8-29.2,10.6-29.2,10.6
		c-2.8-29.699-26.601-45.699-44-75c-3-5-13.3-31.199-15.2-45.5c0.7-1.199,1.4-2.199,2.1-3.1C297.3,359.5,314.7,346.4,315.3,346
		L315.3,346z"/>
	<path fill="#FFFFFF" stroke="#000000" d="M222.8,297.6c0-0.1-0.1-0.199-0.1-0.3c-7.3-22.1-6-48.2,5.7-72.3
		c2.6-5.9,17.9-27.4,30.1-36.8c18.6-13.9,41.1-20.1,62.6-16.6c0,0,0,0,0.101,0c2.399,0.3,41.8,5.2,60.3,26.2
		c8.7,9.8,35.1,9.5,45.1,8.4c-0.199,0.7-0.5,1.4-0.699,2.3c-3.9,15.7,0.6,15.1-4.5,25.2c-5.101,10.1,9-1.8,12.3-6.2
		c-0.9,9.2-4.3,12-10.7,15.5c-6.1,3.4,5.9,2.7,14.8,0.4c-1.2,1.7-2.6,3.5-4.2,5.4c0,0,14.4-4.9,19.4-10.1
		c-18.4,19.4,13.2-2.3,18.7-6.4l0,0c-2.3,4.6-5.4,8.2-9.2,10.7c-9.3,6.1,14.5,1.5,20.5-2.6l-0.1-0.6c2.6-0.5,5.699-1.4,9.1-3.1l0,0
		c3.7-0.2,10.5-2.9,18.5-17c3.1-2.4,7.3-6.7,10.7-10.5c-1.601,4.6-3.101,7.5-3.2,7.7c0.4-0.5,12-15.5,13.8-26.5
		c-0.399,7.5-1.399,10.5-1.5,10.7c0.5-0.6,15.101-18.5,16.9-50.8c4.7,11.2,17.399,25.6,28.1,30.3c2.601,1.2,5.5,1.5,8.2,2.2
		c-5.2,3.9-15.5,17.9-2.3,64.9c8.2,16.8,16.399,34.3,4.8,66.1c-0.4,1.101-0.8,2.2-1.2,3.3c0,0-13.3,18.101-16.899,35.301
		c-0.801,3.699-1.101,7.299-0.801,10.699c2.2,23,22.301,70.9,12.9,98.601c-5.9,17.1-4,75.899-4,75.899c-9-6.5-30.8-3.5-30.8-3.5
		c6.3-49.1-7.601-107.399-22-126.699c-14.8-19.9-37.8-49.301-37.8-49.301c-6.601,1.2-44.2,2-72.5-20.899
		C394.1,322.1,373.7,321.5,361.6,323c-6.699,0.8-10.8,2.3-10.8,2.3l0,0c-10.5,9.7-22.8,16.7-35.6,20.5l0,0c-0.5,0.4-18,13.5-31,29.5
		c-0.7,0.9-1.4,1.9-2.1,3.101c-8.6,14.6-12.9,46.899-8.1,57.5c11.7,26.1,43.3,83.6,43.3,83.6c-5.6-2.8-29.2,10.6-29.2,10.6
		c-2.8-29.699-35.3-69.399-44-75c-8.7-5.6-19.1-27.3-4.8-48.699C249.1,392,224.4,303.4,222.8,297.6z"/>
	<path fill="#FFFFFF" stroke="#000000" d="M618.3,218.6c1.3-0.2-3.899,1.9-8.8,0.4c-0.2-0.1-0.4-0.1-0.6-0.2
		c-2.101-0.7-3.601-2.5-4.5-4.2C604.8,215.1,608.2,219.9,618.3,218.6z"/>
	<path fill="#FFFFFF" stroke="#000000" d="M617.7,251.3c-0.5-0.4-1-0.8-1.5-1.3c-5.5-5.1-9-12.2-9-20c0-4.4,0.399-7.3,2.399-11
		c4.9,1.4,10-0.6,8.801-0.4c-10.2,1.3-13.5-3.4-13.801-4c0.9,1.7,2.4,3.5,4.5,4.2c0,0-12.3,14.7-1.1,30.5
		c-11.8-6.6-20.5-27.4-21.6-40.7c0,0,0,0,0-0.1c-0.101-14.7,2.6-23.4-0.301-24.8c-0.8-0.3-1.5-0.6-2.3-0.8c-2.7-0.8-5.6-1.1-8.2-2.2
		c-10.8-4.7-23.399-19.1-28.1-30.3c0.5-9.2,0-19.5-2.2-30.9C539.9,91,566.8,76.8,566.8,76.8c3.4,6.4,7.2,10.4,7.2,10.4
		s5.2,4.6,12.3-0.4l0,0c1.7-1.2,3.4-2.9,5.2-5.4c0.3-0.4,0.6-0.8,0.9-1.3c0,0,12.7-4.6,12.7,27.3c0,0,7.8-9.2,7.199-20.7
		c0,0,15.2,14.6,14.7,29.9c0,0,7.2-3.8,6.3-13.4c0-0.4,5.7,28.2,28.301,28c0,0,3.5,10.6-2.9,32.2c-3,10-3.5,38.6,0.3,44
		c5.4,7.6,7.9,13.1,7.9,22.8c0,15.5-13.3,28-29.7,28C629.6,258,622.9,255.5,617.7,251.3z M621.9,148.7
		c0.199-1.4,2.399-22.5-13.4-31.5c-34.3-19.6-33.4,13.1-33.4,13.1l0,0c-1.899,10.4,34.5,30.8,45.101,23
		c0.899-0.7,1.399-2.3,1.399-4.6H621.9z M637.1,243.2c2.5-1.1,4.101-4.8,2.801-7.9c-1.301-3.1-5-4.4-7.601-3.3
		C629.8,233,634.6,244.3,637.1,243.2z"/>
	<path fill="#FFFFFF" stroke="#000000" d="M623.9,50.2c2.699,0.6,5.5,1.5,8.1,2.6c17.7,7.8,27.8,26.7,28.5,48.6
		c0,0-1.5,26.6,15,36.1c0,0-6.9-0.9-14.2-6.4c-6.5-4.9-13.3-13.4-16-28c-4.2-23-26-33.1-38.8-36.5l0,0c-4.5-1.2-7.8-1.5-9-1.3h-0.2
		c0.4-4.2,0.2-8.5-0.399-12.7C605.9,49.2,615.2,48.3,623.9,50.2z"/>
	<path fill="#FFFFFF" stroke="#000000" d="M661.4,131.1c-22.601,0.3-28.301-28.4-28.301-28c-1.3-16.6-25.699-35.9-26.5-36.5
		c12.801,3.3,34.5,13.5,38.801,36.5C648.1,117.7,654.9,126.2,661.4,131.1z"/>
	<path fill="#FFFFFF" stroke="#000000" d="M642.6,346.4c31.7,19.199-2.3,115.899-2.3,115.899c-10.7-2.8-30,7.8-30,7.8
		c13.7-77.899,33-97.899-42.1-117.5c3.6-17.3,16.899-35.3,16.899-35.3c0.4-1.1,0.9-2.2,1.2-3.3C599.2,321.2,626.8,336.9,642.6,346.4
		z"/>
	<path fill="#FFFFFF" stroke="#000000" d="M640.3,462.3c0,0,10.9,25.2-2.2,28.601c-4.699,1.199-13.8,3.3-24-0.2
		c-4.3-1.5-3.8-20.7-3.8-20.7S629.5,459.5,640.3,462.3z"/>
	<path fill="#FFFFFF" stroke="#000000" d="M639.9,235.2c1.3,3.1-0.2,6.8-2.801,7.9c-2.6,1.1-7.399-10.1-4.8-11.2
		C634.9,230.9,638.6,232.1,639.9,235.2z"/>
	<path fill="#FFFFFF" stroke="#000000" d="M633.1,103.1c1,9.7-6.3,13.4-6.3,13.4c0.601-15.4-14.7-29.9-14.7-29.9
		s-3.399-16.2-16-15.1c0.601-2,1-4.1,1.2-6.2h0.2c1.2-0.2,4.5,0.1,9,1.3l0,0C607.4,67.2,631.8,86.5,633.1,103.1z"/>
	<path fill="#FFFFFF" stroke="#000000" d="M620.2,15.6c0,0,4.7,16.8,3.8,34.6c-8.8-1.9-18.1-1-27,2.4c-0.7-4.5-1.8-8.9-3.2-13.2
		c3.8-3.3,9.9-7.5,14.101-9.8C620.1,22.9,620.2,15.8,620.2,15.6z"/>
	<path fill="#FFFFFF" stroke="#000000" d="M608.6,117.1c15.801,9,13.5,30.1,13.4,31.5h-0.3c0.1-7.2-4.5-20.4-13.9-25.5
		c-12.3-6.7-26.7-4.1-32.1,5.8c-0.2,0.4-0.4,0.8-0.4,1.3l0,0C575.1,130.2,574.3,97.6,608.6,117.1z"/>
	<path fill="#FFFFFF" stroke="#000000" d="M607.7,123.2c9.399,5.1,14,18.3,13.899,25.5c0,2.3-0.5,3.9-1.399,4.6
		c-10.5,7.8-47-12.6-45.101-23c0.101-0.4,0.2-0.9,0.4-1.3C581,119.1,595.4,116.5,607.7,123.2z M611.2,132.7c0-6.7-5.8-12.1-13-12.1
		s-13,5.4-13,12.1c0,6.7,5.8,12.1,13,12.1C605.3,144.8,611.2,139.4,611.2,132.7z"/>
	<path fill="#FFFFFF" stroke="#000000" d="M616.2,250c0.5,0.4,1,0.9,1.5,1.3c-0.8,0.1-1.5,0.1-2.3,0.1c-2.601,0-5.101-0.8-7.5-2.1
		c-11.2-15.8,1.1-30.5,1.1-30.5c0.2,0.1,0.4,0.1,0.6,0.2c-1.899,3.7-2.399,6.6-2.399,11C607.2,237.9,610.6,245,616.2,250z"/>
	<path fill="#FFFFFF" stroke="#000000" d="M612.2,86.6c0.6,11.5-7.2,20.7-7.2,20.7c0-31.9-12.7-27.3-12.7-27.3
		c1.8-2.7,3-5.5,3.9-8.5C608.8,70.3,612.2,86.6,612.2,86.6z"/>
	<path fill="#FFFFFF" stroke="#000000" d="M598.2,120.6c7.2,0,13,5.4,13,12.1c0,6.7-5.8,12.1-13,12.1s-13-5.4-13-12.1
		C585.2,126,591,120.6,598.2,120.6z M605.4,132.9c0-3.6-2.601-6.4-5.801-6.4c-3.199,0-5.8,2.9-5.8,6.4s2.601,6.4,5.8,6.4
		C602.8,139.3,605.4,136.5,605.4,132.9z"/>
	<path fill="#FFFFFF" stroke="#000000" d="M599.6,126.5c3.2,0,5.801,2.9,5.801,6.4s-2.601,6.4-5.801,6.4c-3.199,0-5.8-2.9-5.8-6.4
		C593.8,129.3,596.4,126.5,599.6,126.5z M599.6,130.1c0-1.4-1-2.5-2.199-2.5c-1.2,0-2.2,1.1-2.2,2.5s1,2.5,2.2,2.5
		C598.6,132.6,599.6,131.5,599.6,130.1z"/>
	<path fill="#FFFFFF" stroke="#000000" d="M597.4,127.5c1.199,0,2.199,1.1,2.199,2.5s-1,2.5-2.199,2.5c-1.2,0-2.2-1.1-2.2-2.5
		C595.3,128.7,596.2,127.5,597.4,127.5z"/>
	<path fill="#FFFFFF" stroke="#000000" d="M596.9,52.5c0.699,4.3,0.899,8.6,0.399,12.7c-0.2,2.1-0.6,4.2-1.2,6.2
		c-0.899,3-2.1,5.8-3.899,8.5c-0.3,0.4-0.601,0.8-0.9,1.3c-1.8,2.5-3.6,4.2-5.2,5.4c0.301-0.8,10.301-24.2-7.399-53.1
		c0,0-23.5,23.4-4.9,53.5c0,0-3.8-3.9-7.2-10.4c-2.8-5.3-5.3-12.2-5.3-20c0-8.5,3-18,11.8-27.5c9.2-9.9,7.5-16.6,7.301-17.1
		c0.5,0.7,8.3,12.6,13.199,27.3C595.1,43.6,596.3,48.1,596.9,52.5z"/>
	<path fill="#FFFFFF" stroke="#000000" d="M578.8,33.5c17.8,28.9,7.8,52.3,7.4,53.1l0,0c-7.101,5.1-12.3,0.4-12.3,0.4
		C555.3,57,578.8,33.5,578.8,33.5z"/>
	<path fill="#FFFFFF" stroke="#000000" d="M576.2,537.7c0,0,13.5,22.6,0,21c-4.8-0.5-26.5,3-34.8-3.9
		c-3.5-2.899,3.899-20.7,3.899-20.7S567.2,531.3,576.2,537.7z"/>
	<path fill="#FFFFFF" stroke="#000000" d="M561.4,56.7c0,7.8,2.5,14.8,5.3,20c0,0-27,14.2-21.5,42.7c2.2,11.4,2.7,21.8,2.2,30.9
		c-1.801,32.2-16.4,50.2-16.9,50.8c0.1-0.2,1.1-3.2,1.5-10.7l0,0c0.3-6.4,0.2-16.2-1.5-30.4c-7.1-59.6,12.7-89.7,18.7-101.6
		c0.5-1,1-1.8,1.5-2.5C556.1,48.1,561.4,56.7,561.4,56.7z"/>
	<path fill="#FFFFFF" stroke="#000000" d="M550.6,55.9c-0.5,0.7-1,1.5-1.5,2.5c-6,11.9-25.8,42-18.699,101.6
		c1.699,14.2,1.899,24,1.5,30.4l0,0c-1.801,11-13.5,26-13.801,26.5c0.101-0.2,1.601-3.1,3.2-7.7c1.5-4.4,3.2-10.4,3.9-17.1
		c0.8-8.1,0.3-17.3-3.4-26.2c-10.1-24.6-6.399-69.8,4.5-92.5c3-6.2,6.101-10.3,9.101-13C543.5,53.1,550.6,55.9,550.6,55.9z"/>
	<path fill="#FFFFFF" stroke="#000000" d="M535.5,60.3c-3,2.7-6.2,6.8-9.1,13c-10.801,22.8-14.601,67.9-4.5,92.5
		c3.699,8.9,4.199,18.1,3.399,26.2l0,0c-4.5,15.4-9.3,13.3-9.3,13.3c2.3-8.5-0.5-35.1-6.8-55C499,117.7,499.6,97,504.5,83.7
		C513.1,60.4,535.2,60.3,535.5,60.3z"/>
	<path fill="#FFFFFF" stroke="#000000" d="M510.7,219.8c-2.9,2.2-4.8,2.8-4.5,0c1.399-12.1,8.399-20.1-1.7-64.2
		c-2.6-11.2-10.8-26.1-14.4-43.8c-5.5-26.9,14.4-28,14.4-28c-4.9,13.3-5.5,34.1,4.7,66.6c6.3,20,9.1,46.5,6.8,55c0,0,4.8,2,9.3-13.3
		l0,0c-0.7,6.8-2.399,12.7-3.899,17.1C517.9,213.1,513.8,217.4,510.7,219.8z"/>
	<path fill="#FFFFFF" stroke="#000000" d="M506.2,219.7c-0.3,2.8,1.7,2.2,4.5,0c-8.101,14-14.9,16.7-18.5,17c-1.9,0.1-3-0.4-3-0.4
		c18.6-12.6,10.3-46.5,8.899-71.1c-1.3-22.6-13-30.6-14.699-40.2c-0.2-0.9-0.2-1.7-0.2-2.6c0.3-10.9,6.899-10.6,6.899-10.6
		c3.601,17.8,11.801,32.7,14.4,43.8C514.6,199.6,507.5,207.6,506.2,219.7z"/>
	<path fill="#FFFFFF" stroke="#000000" d="M472,142c1.1-16.4,11.4-16.9,11.4-16.9c1.699,9.6,13.399,17.6,14.699,40.2
		c1.4,24.6,9.7,58.5-8.899,71.1c0,0,1.1,0.6,3,0.4l0,0c-3.3,1.7-6.5,2.6-9.101,3.1c-4.6,0.9-7.699,0.4-7.699,0.4
		c2.8-2.7,9.8-11.9,9.3-38.1c-0.7-36.1-13.5-42.4-12.601-59.5C471.9,142.5,472,142.2,472,142z"/>
	<path fill="#FFFFFF" stroke="#000000" d="M462.8,155.8c1-10.2,6.101-13,9.101-13.8c0,0.2,0,0.5,0,0.8
		c-0.801,17.2,11.899,23.4,12.6,59.5c0.5,26.2-6.5,35.4-9.3,38.1c0,0,3.1,0.4,7.7-0.4l0.1,0.6c-6,4.2-29.7,8.7-20.5,2.6
		c3.8-2.5,6.9-6.1,9.2-10.7c3.2-6.5,4.8-14.9,4.8-25.2c0-17.6-13.7-28.3-14-47.1C462.7,158.5,462.7,157.1,462.8,155.8z"/>
	<path fill="#FFFFFF" stroke="#000000" d="M453.1,176.7c-1.3-16.5,5.801-20.1,9.7-20.9c-0.1,1.3-0.2,2.7-0.2,4.3
		c0.301,18.9,14,29.5,14,47.1c0,10.3-1.6,18.7-4.8,25.2l0,0c-5.5,4.1-37.1,25.7-18.7,6.4l0.101-0.1c0.6-0.6,1.2-1.2,1.899-1.9
		c22.4-22.8,0-37.1-2-59.8C453.1,176.9,453.1,176.8,453.1,176.7z"/>
	<path fill="#FFFFFF" stroke="#000000" d="M444.3,195.1c0-2.1,0.2-4.3,0.7-6.7c2.3-11.4,5.5-13,8.1-11.8c0,0.1,0,0.2,0,0.3
		c2,22.7,24.4,37,2,59.8c-0.699,0.7-1.3,1.3-1.899,1.9l-0.101,0.1c-5,5.2-19.399,10.1-19.399,10.1c1.5-1.9,2.899-3.7,4.2-5.4
		C456,218.7,444.3,211.2,444.3,195.1z"/>
	<path fill="#FFFFFF" stroke="#000000" d="M436.8,202.2c2.2-3.7,5.3-5.9,7.5-7.1c0,16.1,11.7,23.6-6.3,48.4
		c-8.9,2.3-20.9,3-14.8-0.4c6.3-3.5,9.8-6.4,10.7-15.5c0.3-3,0.3-6.7,0-11.3C433.4,210.1,434.8,205.5,436.8,202.2z"/>
	<path fill="#FFFFFF" stroke="#000000" d="M426.6,206.3c2.601-7.2,7-6.1,10.101-4.1c-2,3.3-3.4,7.8-3,14c0.3,4.6,0.3,8.3,0,11.3
		c-3.4,4.4-17.4,16.3-12.3,6.2c5.1-10.1,0.5-9.5,4.5-25.2C426.1,207.7,426.4,207,426.6,206.3L426.6,206.3z"/>
	<path fill="#FFFFFF" stroke="#000000" d="M370.5,488.4c14,9,15.7,14.6,10.2,20.699c-5.4,6.2-34.7,11.101-37.2,4.5
		c-2.2-6.199-2.2-14.6-2.2-14.6S364.9,485.6,370.5,488.4z"/>
	<path fill="#FFFFFF" stroke="#000000" d="M317.4,519.7c14,9,15.699,14.6,10.199,20.7c-5.399,6.199-34.7,11.1-37.2,4.5
		c-2.2-6.2-2.2-14.601-2.2-14.601S311.7,516.9,317.4,519.7z"/>
</g>
<g>
	<path fill="none" stroke="#000000" stroke-width="0.5" stroke-linecap="round" stroke-linejoin="round" d="M486,358.1
		c-24.7-14.399-34.8-49.199-24.4-83.8"/>
	<path fill="none" stroke="#000000" stroke-width="0.5" stroke-linecap="round" stroke-linejoin="round" d="M350.9,325.5
		c8.199-7.9,17.1-19.4,22.5-30.4"/>
</g>
</svg>
