<?xml version="1.0" encoding="utf-8"?>
<!-- Generator: Adobe Illustrator 15.0.0, SVG Export Plug-In . SVG Version: 6.00 Build 0)  -->
<!DOCTYPE svg PUBLIC "-//W3C//DTD SVG 1.1//EN" "http://www.w3.org/Graphics/SVG/1.1/DTD/svg11.dtd">
<svg version="1.1" id="Layer_x5F_www.ABC-color.com"
	 xmlns="http://www.w3.org/2000/svg" xmlns:xlink="http://www.w3.org/1999/xlink" x="0px" y="0px" width="822px" height="567px"
	 viewBox="0 0 822 567" enable-background="new 0 0 822 567" xml:space="preserve">
<rect display="none" fill="#FFFFFF" width="822" height="567"/>
<text id="image_1_" transform="matrix(1 0 0 1 16 549)" display="none" enable-background="new    " font-family="'ArialMT'" font-size="12">www . ABC - color . com</text>
<path fill="#FFFFFF" stroke="#000000" stroke-width="0.5" d="M183.4,438.4c0.6,0.698,0.8,1.5,0.8,2.398c0,0.102,0,0.2,0,0.3
	c-0.1,1.2-0.7,2.302-1.8,3.102c-1.9,1.6-4.7,1.5-6.1-0.2c-0.5-0.7-0.8-1.5-0.8-2.3c0-0.102,0-0.2,0-0.3c0.1-1.2,0.7-2.302,1.8-3.102
	C179.3,436.5,182,436.7,183.4,438.4z"/>
<path fill="#FFFFFF" stroke="#000000" stroke-width="0.5" d="M126.1,438.3c-0.6,0.602-1.3,1-2.2,1.2c-2.2,0.4-4.3-1.4-4.7-3.9
	c-0.2-1.3,0.1-2.6,0.8-3.6c0,0,0.1-0.1,0.1-0.2c0.6-0.6,1.3-1.1,2.2-1.2c2.2-0.398,4.3,1.4,4.7,3.9c0.2,1.3-0.1,2.6-0.7,3.5
	c0,0,0,0-0.1,0.1C126.2,438.2,126.2,438.2,126.1,438.3z"/>
<path fill="#FFFFFF" stroke="#000000" stroke-width="0.5" d="M78.6,437.3c0,0.8-0.3,1.7-0.8,2.3c-1.4,1.7-4.1,1.802-6.1,0.2
	c-1-0.8-1.6-2-1.8-3.1c0-0.102,0-0.2,0-0.3c0-0.9,0.3-1.7,0.8-2.302c1.4-1.698,4.1-1.8,6.1-0.3c1,0.8,1.6,2,1.8,3.102
	C78.6,437.1,78.6,437.2,78.6,437.3z"/>
<path fill="#FFFFFF" stroke="#000000" stroke-width="0.5" d="M293.7,517.9L293.7,517.9c-0.3,0.8-0.7,1.5-1.2,2.398l-7.6-1.8
	c-8.2,6.1-10.6,5.2-10.6,5.2c3.5-1.2,5.8-7.3,5.8-7.3l-4.4-1.102c-10.4,12-12.8,8.4-12.8,8.4c5.4-1.3,7.8-11.601,7.8-11.601
	s-2.8-1.699-3.2-0.899c-6,10.399-13.9,9.6-13.9,9.6s10.8-8.698,9.5-12.398c-0.3-0.8-4.2-1.602-4.2-1.602
	c-7.8,13.802-13.4,9.4-13.4,9.4c7.2-0.9,9.7-11.5,9.7-11.5l-5.8-2.4l-0.5-0.3c0.5-1,0.8-2,1.1-3l0.4,0.102l5.7,2.5
	c0,0,5.8-9.2,1.5-15c0,0,7.1,1,2.6,16.198c0,0,3.3,2.302,4.1,1.9c3.5-1.7,2.2-15.5,2.2-15.5s6.1,5.1,2.9,16.6
	c-0.2,0.9,2.9,1.7,2.9,1.7s5.8-8.898,2.9-13.7c0,0,4.2-0.8,2.9,15l3.9,2.4c0,0,2.8-6,1.2-9.3c0.2,0.1,3.6,2.1,3.5,11.3L293.7,517.9z
	"/>
<path fill="#FFFFFF" stroke="#000000" stroke-width="0.5" d="M317.1,513.9c-7.5,3.398-13.8,9.6-14.199,25.8
	c-4.101-6.3-11.9-13.602-13-16.4c1-1,1.9-2,2.5-3c0.5-0.8,0.9-1.6,1.2-2.398l0,0l0,0c0.8-2,0.8-3.4,0.8-3.7
	C295.3,514.4,315.3,514,317.1,513.9z"/>
<path fill="#FFFFFF" stroke="#000000" stroke-width="0.5" d="M165.8,487.2l10.1,11.7H171l-4.1-5c-1.7-1.9-2.7-3.2-3.8-4.5H163
	c-0.9,1.3-1.8,2.5-3.5,4.5l-3.9,5h-4.8l9.9-11.5l-9.5-11.302h4.9l4.3,5.302c1.2,1.5,2.1,2.6,3,3.898h0.1
	c0.9-1.3,1.7-2.398,2.9-3.898l4.4-5.302h4.8L165.8,487.2z"/>
<path fill="#FFFFFF" stroke="#000000" stroke-width="0.5" d="M133.1,476.1h5l11.1,22.802h-4.5l-3.5-7.2h-11.5l-3.4,7.2H122
	L133.1,476.1z M140.4,489.4l-3.2-6.602c-0.7-1.5-1.2-2.8-1.7-4.2h-0.1c-0.5,1.302-1,2.7-1.6,4.102l-3.2,6.6h9.8V489.4z"/>
<path fill="#FFFFFF" stroke="#000000" stroke-width="0.5" d="M91,479h-0.1c-0.1,2.8-0.3,6.7-0.6,10.1l-0.9,9.802h-4l2.3-22.802H93
	l5.5,11c1.4,2.802,2.5,5.302,3.3,7.7h0.1l2.6,1.3l-1.4,2.602H100l-5.2-10.8C93.3,484.7,92,481.7,91,479z"/>
<path fill="#FFFFFF" stroke="#000000" stroke-width="0.5" d="M111.2,476.1h5.3l2,22.802h-4.1l-0.8-10c-0.2-3.2-0.5-7-0.5-9.802H113
	c-1.1,2.7-2.4,5.602-4.1,8.7l-4.4,8.4l-2.6-1.3c0.8-2.302,2-4.802,3.4-7.7L111.2,476.1z"/>
<path fill="#FFFFFF" stroke="#000000" stroke-width="0.5" d="M238,489.4c0.2,0.8,0.1,1.698-0.3,2.5c-1,2-3.6,2.698-5.8,1.6
	c-1.3-0.6-2.1-1.6-2.5-2.8V490.6c-0.2-0.8-0.1-1.698,0.3-2.5c1-2,3.6-2.698,5.9-1.6c1.2,0.6,2.1,1.6,2.5,2.8
	C238,489.3,238,489.4,238,489.4z"/>
<path fill="#FFFFFF" stroke="#000000" stroke-width="0.5" d="M229.5,490.8c0.3,1.2,1.2,2.3,2.5,3c2.3,1.102,4.9,0.4,5.8-1.6
	c0.4-0.9,0.5-1.8,0.2-2.7v-0.1c-0.3-1.2-1.2-2.302-2.5-3c-2.3-1.102-4.9-0.4-5.9,1.6c-0.4,0.8-0.5,1.8-0.2,2.7
	C229.4,490.7,229.4,490.7,229.5,490.8z M251,483.8c0,0,1,8.102-1,15.2c-0.3,1-0.7,2-1.1,3c-2.3,4.9-6.7,8.4-15,6.5
	c-9-4.9-16.1-11.3-18.1-19.7c1.6-2.5,12.1-9.1,25.7-7.2L251,483.8z"/>
<path fill="#FFFFFF" stroke="#000000" stroke-width="0.5" d="M404.5,21.1c5.8,5,19.1,65.9,19.1,65.9h0.102c-2.9,4.2-5.2,8.9-6.8,14
	l0,0c-17.4,0-13.802-17.7-13.802-17.7C408.1,73.5,404.5,21.1,404.5,21.1z"/>
<path fill="#FFFFFF" stroke="#000000" stroke-width="0.5" d="M448.4,66.5C438.1,71.3,429.6,78.2,423.6,87h-0.1
	c0,0-13.3-61-19.1-65.9c13-5.2,43.5,44.5,43.5,44.5L448.4,66.5z"/>
<path fill="#FFFFFF" stroke="#000000" stroke-width="0.5" d="M438.1,123.4c-8-12.8,8.302-21.7,8.302-21.7
	c5.198,17.5-5.302,21.4-7.602,22.1C438.6,123.7,438.4,123.6,438.1,123.4z"/>
<path fill="#FFFFFF" stroke="#000000" stroke-width="0.5" d="M438.1,123.4c-5-2.5-10.5-4.5-16.398-5.2c-4.7-17.8,6.7-18.5,6.7-18.5
	v0.1c36.1-13.5,39.898,37.3,39.898,37.3v0.2c-3.2,0.2-6.2,0.7-9.2,1.3c-1.898-1.9-9.698-9.3-20.3-14.8c2.3-0.6,12.8-4.6,7.602-22.1
	C446.5,101.7,430.2,110.6,438.1,123.4z"/>
<path fill="#FFFFFF" stroke="#000000" stroke-width="0.5" d="M565.5,24.4c0,0-5.4,51.1-0.3,60.9c0,0,3.5,16.9-12.602,17.7
	c-1.8-4.2-4-8.2-6.6-12l0.4-0.3C546.4,90.6,557.4,31.2,565.5,24.4z"/>
<path fill="#FFFFFF" stroke="#000000" stroke-width="0.5" d="M520.3,67.6c0,0,32.2-48.5,45.3-43.2c-8.198,6.8-19.1,66.2-19.1,66.2
	l-0.4,0.3c-6.5-9.3-15.5-17.2-26-22.8L520.3,67.6z"/>
<path fill="#FFFFFF" stroke="#000000" stroke-width="0.5" d="M517.8,124.6c-1.2-0.3-12.6-3.9-7.1-22.5c0,0,15.8,9.4,7.3,22.4
	C517.9,124.5,517.9,124.6,517.8,124.6z"/>
<path fill="#FFFFFF" stroke="#000000" stroke-width="0.5" d="M518,124.5c8.5-13-7.3-22.4-7.3-22.4c-5.5,18.7,5.898,22.2,7.1,22.5
	c-12,6.2-20.5,15.1-20.5,15.1l-0.398,1.1c-2.7-0.9-5.5-1.7-8.5-2.3l0.198-0.7c0,0,5.802-52.3,39.9-37.3c0.5,0,11.3,1.1,6.6,18.5
	C529.1,119.6,523.2,121.9,518,124.5z"/>
<path fill="#FFFFFF" stroke="#000000" stroke-width="0.5" d="M475,163.1c7.3,0.4,16.2-4.5,26.7-20.1l0.1-0.2
	c6.7,3.1,12.2,7.2,15.7,12.1c2.7,3.7,4.3,7.9,4.5,12.2c0,0.3,0,0.6,0,0.8c0,4.3-1.3,8.3-3.8,12c-4,6.1-11,11.2-19.8,14.5
	c-3.5,1.3-7-3.6-10.802-9c-4-5.8-8.3-12.2-12.898-12.2l0.1-9.8L475,163.1z"/>
<path fill="#FFFFFF" stroke="#000000" stroke-width="0.5" d="M452.9,140.3c0.6-0.2,1.3-0.4,1.898-0.6c1.4-0.4,2.9-0.8,4.4-1.1
	c2.898-0.6,6-1.1,9.2-1.3c1.898-0.1,3.8-0.2,5.8-0.2c5,0,9.8,0.5,14.3,1.4c3,0.6,5.8,1.4,8.5,2.3c1.7,0.6,3.3,1.2,4.9,2l-0.1,0.2
	c-10.5,15.7-19.5,20.6-26.7,20.1C460.9,162.3,453.2,141,453.2,141L452.9,140.3z"/>
<path fill="#FFFFFF" stroke="#000000" stroke-width="0.5" d="M458.5,184.8c-4.8,5.1-9.3,9.5-13.1,7.6c-7.7-3.8-13.602-9-16.7-15
	c-1.602-3-2.4-6.3-2.4-9.6c0-0.9,0.102-1.8,0.2-2.8c0.6-4.2,2.4-8.1,5.3-11.6c4.7-5.7,12.102-10.4,21.102-13.2l0.198,0.7
	c0,0,7.602,21.3,21.9,22.1v0.2l-0.1,9.8C469.3,173.1,463.7,179.4,458.5,184.8z"/>
<path fill="#FFFFFF" stroke="#000000" stroke-width="0.5" d="M487,185.5c-13.6,14-28.1-0.4-28.1-0.4l-0.5-0.3
	c5.198-5.5,10.8-11.7,16.398-11.7c4.602,0,8.9,6.4,12.9,12.2L487,185.5z"/>
<path fill="#FFFFFF" stroke="#000000" stroke-width="0.5" d="M520,68.1c10.5,5.6,19.5,13.5,26,22.8c2.7,3.8,4.9,7.8,6.6,12
	c2.602,6.3,4.102,12.9,4.4,19.8c0,0-0.1-0.1-0.2-0.1v6.7c0.2-2.2,0.2-4.4,0.2-6.5c13.9,10.3,22.3,23.5,22.3,37.9
	c0,20.5-17,38.6-43,49.3c-15.7,6.5-34.6,10.3-55,10.3c-22.898,0-44-4.8-60.7-12.8c-22.698-10.9-37.3-27.8-37.3-46.8
	c0-23.6,14.3-28.6,30.5-39.2v-1.4c0-6.8,1-13.2,2.9-19c1.6-5,3.898-9.7,6.8-14c6-8.8,14.5-15.8,24.8-20.5
	c10.4-4.8,22.602-7.4,35.9-7.4C497,59.1,509.3,62.4,520,68.1z M428.7,177.5c3.1,6,8.898,11.2,16.7,15c3.8,1.9,8.3-2.5,13.1-7.6
	l0.5,0.3c0,0,14.4,14.3,28.1,0.4l0.7-0.2c3.8,5.4,7.3,10.3,10.8,9c8.802-3.3,15.802-8.4,19.802-14.5c2.398-3.7,3.8-7.7,3.8-12
	c0-0.3,0-0.6,0-0.8c-0.2-4.4-1.8-8.5-4.5-12.2c-3.5-4.8-9-9-15.7-12.1c-1.6-0.7-3.2-1.4-4.9-2l0.4-1.1c0,0,8.4-8.8,20.5-15.1h0.1
	c0,0,0-0.1,0.102-0.1c5.2-2.7,11.1-4.9,17.2-5.7c4.6-17.4-6.102-18.4-6.602-18.5c-34.2-15-39.898,37.3-39.898,37.3l-0.2,0.7
	c-4.5-0.9-9.4-1.4-14.3-1.4c-2,0-3.9,0.1-5.802,0.2v-0.2c0,0-3.8-50.8-39.898-37.3v-0.1c0,0-11.4,0.6-6.7,18.5
	c5.8,0.7,11.4,2.7,16.4,5.2c0.1,0.2,0.198,0.3,0.3,0.5c0,0,0.2,0,0.5-0.1c10.6,5.4,18.398,12.9,20.3,14.8c-1.5,0.3-3,0.7-4.4,1.1
	c-0.6,0.2-1.3,0.4-1.898,0.6c-9,2.9-16.4,7.5-21.102,13.2c-2.898,3.5-4.8,7.4-5.3,11.6c-0.1,0.9-0.2,1.8-0.2,2.8
	C426.3,171.2,427.1,174.4,428.7,177.5z"/>
<path fill="#FFFFFF" stroke="#000000" stroke-width="0.5" d="M420.7,207.4c16.7,8,37.8,12.8,60.7,12.8c20.398,0,39.3-3.8,55-10.3
	l0.398,1l2.5,47.6L511.7,243l3,42l-28.2-23.4l-6,28.8l-13.2-13.8l-16.8,39.6l-12-53.4L417,284.4l4.8-39.602l-18,10.8l10.2-41.4
	l-0.9-0.5c4.2-3.7,7.302-5.6,7.302-5.6L420.7,207.4z"/>
<path fill="#FFFFFF" stroke="#000000" stroke-width="0.5" d="M706.8,474.8c0,0.9-0.3,1.7-0.8,2.3c-1.4,1.7-4.1,1.802-6.1,0.2
	c-1-0.8-1.602-2-1.802-3.1c0-0.102,0-0.2,0-0.3c0-0.9,0.302-1.7,0.802-2.4c1.398-1.7,4.1-1.8,6.1-0.2c1,0.8,1.6,2,1.8,3.102
	C706.8,474.6,706.8,474.7,706.8,474.8z"/>
<path fill="#FFFFFF" stroke="#000000" stroke-width="0.5" d="M699.6,493.4c-8.3-7-14.398-15.302-14.398-24.4
	c2.2-2.2,15.2-6.6,28.8-0.2l3.9-7.898l0.8,6.898l9.3-4.898l-3.8,7.8l9.398-1.102L729.7,475.2l7.5,0.398l-4.9,4.302l5.8,1.698
	l-4.6,2.5l4.7,2.302l-4.7,1.5c1.5,2.5,2.9,5.3,4.2,8.5l2.898-1.7l2.9,9.2l-3.4-1.102c0.802,2.2,1.5,4.602,2.2,7.102
	c5.5-0.4,13.7-0.9,17,0.198c-8.898,5.302-15.2,7.4-18.1,22.102c-2-5.602-3.2-12.8-3.8-17.3c-1.4-0.602-2.9-1.2-4.5-1.9l-0.102,0.8
	l-0.898,5l-9.5-3.399l1.8-6.399c-7.4-3.601-15.7-8.3-22.8-13.9L704,505.2l-6.3-5.4L699.6,493.4z M705.9,477.4
	c0.6-0.7,0.898-1.602,0.8-2.602c0-0.1,0-0.2,0-0.3c-0.102-1.2-0.7-2.5-1.8-3.3c-2-1.602-4.7-1.5-6.102,0.2
	c-0.6,0.698-0.898,1.6-0.8,2.6c0,0.1,0,0.2,0,0.3c0.1,1.2,0.7,2.5,1.8,3.3C701.8,479.2,704.5,479.1,705.9,477.4z"/>
<path fill="#FFFFFF" stroke="#000000" stroke-width="0.5" d="M362.1,453.7c-10.5,13.5-4.898,26.6,1,34.898
	C355,487,345.7,486.4,336.9,486.2c-3.302-0.102-6.602-0.102-9.602,0c-12.8,0.2-22.5,1.2-22.5,1.2
	C294.9,449.2,356.1,453.2,362.1,453.7z"/>
<path fill="#FFFFFF" stroke="#000000" stroke-width="0.5" d="M478.2,419.9c32.3,2.1,148.398,7.6,96.3-27.102c0,0-3.7-11,9-13.699
	c1.8-0.399,3.8-0.601,6.3-0.601c0,0,85.9,10.7,64.2,74.5c0,0,8.5,63.6-199.9,73.8c-20.5,1-96.3,12.2-102.8,2.102
	c-2.1-3.4,28.102-16.5,19.3-31.5c-0.3-0.5-4-3.802-7.5-8.802c-5.898-8.3-11.5-21.5-1-34.898c2.802-3.602,6.7-7.102,12-10.7
	c8.2-5.4,19.602-10.7,35.5-15.5c9.7-2.9,20.9-5.7,34.102-8.2h26.5C470.2,419.3,473.2,419.6,478.2,419.9z"/>
<path fill="#FFFFFF" stroke="#000000" stroke-width="0.5" d="M402.8,316c4.102,19.1,10,57.9,6.8,111.5
	c-15.898,4.8-27.3,10.1-35.5,15.5l-0.3-0.4c0,0-49-44.8-49-54.1s-7.2-48,17.7-63.8c0,0,28.1-25.101,59.4-8.601L402.8,316z"/>
<path fill="#FFFFFF" stroke="#000000" stroke-width="0.5" d="M574.5,392.8c52.1,34.7-64.1,29.2-96.3,27.102
	c-5-0.302-8-0.602-8-0.602h-26.5c-13.102,2.5-24.4,5.3-34.102,8.2c3.2-53.6-2.698-92.4-6.8-111.5c-1.398-6.5-2.5-10.7-3-12.4
	c-25.2-47.7-0.1-78.1,13.3-89.898l0.9,0.5l-10.2,41.4l18-10.8L417,284.4l21.6-21.602l12,53.4l16.802-39.6l13.198,13.799l6-28.799
	l28.2,23.4l-3-42l27.602,15.6l-2.5-47.6c0,0,45,7.2,46.6,167.601l0.1,0.601C570.8,381.8,574.5,392.8,574.5,392.8z"/>
<path fill="#FFFFFF" stroke="#000000" stroke-width="0.5" d="M144.7,462.8c1.3-3,2.7-5.7,4.1-8.2l-4.7-1.5l4.7-2.3l-4.6-2.5l5.8-1.7
	l-4.9-4.3l0,0l7.5-0.398l-4-5.602l9.4,1.102l-3.8-7.802l9.3,4.9l0.8-7l3.9,7.9c13.7-6.4,26.6-2,28.8,0.1c0,8.5-5.2,16.2-12.5,22.8
	c-2.3,0.4-4.6,0.8-7.1,1.2C167.7,461.3,156.5,462.4,144.7,462.8L144.7,462.8z M184.2,440.7c0-0.9-0.2-1.8-0.8-2.602
	c-1.4-1.698-4.1-1.8-6.1-0.198c-1.1,0.898-1.7,2.1-1.8,3.3c0,0.1,0,0.2,0,0.3c0,0.9,0.2,1.8,0.8,2.6c1.4,1.7,4.1,1.802,6.1,0.2
	c1.1-0.898,1.7-2.1,1.8-3.3C184.2,440.9,184.2,440.8,184.2,440.7z"/>
<path fill="#FFFFFF" stroke="#000000" stroke-width="0.5" d="M108.4,447.4c-0.5-3.2-0.3-6.102,0.4-8.802c1.5-6.5,5.6-11.8,9.9-16.6
	c3.1-0.1,10.9,2.7,16.9,16.6l8.2-3.3l-4,5.8l5.4,1.302v0.1l0,0l4.9,4.3l-5.8,1.7l4.6,2.5l-4.7,2.3l4.7,1.5c-1.4,2.5-2.8,5.2-4.1,8.2
	v0.1c-5.4,0.2-11,0.4-16.7,0.4c-5.5,0-10.8-0.1-16-0.3v-0.3c-1.3-4.102-2.4-8.4-3.1-12.602l-4.8,9.2l-1.1-8.2L108.4,447.4z
	 M126.3,438c0.7-1,1.1-2.3,0.9-3.7c-0.4-2.5-2.5-4.2-4.7-3.898c-0.9,0.1-1.7,0.6-2.3,1.398c-0.1,0.102-0.1,0.102-0.1,0.2
	c-0.8,1-1.2,2.3-0.9,3.8c0.4,2.5,2.5,4.2,4.7,3.9c0.9-0.2,1.7-0.7,2.3-1.4C126.2,438.2,126.2,438.2,126.3,438
	C126.3,438.1,126.3,438,126.3,438z"/>
<path fill="#FFFFFF" stroke="#000000" stroke-width="0.5" d="M166.9,493.8l4.1,5h4.9l-10.1-11.7l9.9-11.1h-4.8l-4.4,5.3
	c-1.2,1.5-2,2.5-2.9,3.9h-0.1c-0.9-1.2-1.8-2.4-3-3.9l-4.3-5.3h-4.9l9.5,11.3l-9.9,11.5h4.8l3.9-5c1.7-2,2.6-3.2,3.5-4.5h0.1
	C164.1,490.6,165.2,491.9,166.9,493.8z M149.2,498.8L138.1,476h-5l-11,22.8h4.3l3.4-7.2h11.5l3.5,7.2H149.2z M90.3,489.1
	c0.3-3.398,0.5-7.198,0.6-10.1H91c0.9,2.7,2.2,5.7,3.8,8.9l5.2,10.8h3.2l1.4-2.602l4.4-8.398c1.6-3.102,3-6,4.1-8.7h0.2
	c-0.1,2.8,0.2,6.7,0.5,9.8l0.8,10h4.1l-2-22.8h-5.3l-5.8,11c-1.4,2.9-2.6,5.4-3.4,7.7h-0.1c-0.8-2.4-1.9-4.9-3.3-7.7l-5.5-11H88
	l-2.3,22.8h4L90.3,489.1z M37.5,446c5.3,5.4,18.5,10,36.5,13.1c11.1,1.9,23.9,3.302,37.9,3.802c5.2,0.198,10.6,0.3,16,0.3
	c5.7,0,11.3-0.102,16.7-0.4c11.9-0.5,23-1.6,32.9-3.1c2.4-0.4,4.8-0.8,7.1-1.2c18.9-3.5,32-8.7,35.4-14.7l0.3,0.2
	c0,0-9.6,26.4-15.6,30s-21,18-20.4,29.4c0,8-24.6,12-56.4,12c-31.8,0-55.5-4.102-55.2-12C73.3,492,58.3,477.6,52.3,474
	C47.4,471,39.8,452.1,37.5,446z"/>
<path fill="#FFFFFF" stroke="#000000" stroke-width="0.5" d="M74,459.1C56,456,42.7,451.4,37.5,446c-1.7-1.7-2.5-3.4-2.5-5.2
	c0-12.398,41.6-22.5,92.9-22.5c51.3,0,93,10.102,93,22.5c0,1.102-0.3,2.102-0.9,3.102c-3.4,6-16.5,11.198-35.4,14.698
	c7.3-6.6,12.5-14.3,12.5-22.8c-2.2-2.2-15.2-6.6-28.8-0.1l-3.9-7.9l-0.8,7l-9.3-4.898l3.8,7.8l-9.4-1.102l4,5.602l-7.5,0.398v-0.1
	l-5.4-1.3l4-5.8l-8.2,3.3c-6-13.9-13.8-16.8-16.9-16.602c-4.3,4.802-8.4,10.102-9.9,16.602l-1-0.2l-6.2-0.6l3.9-5.602l-9.4,1.102
	l3.8-7.802l-9.3,4.9l-0.9-7l-3.9,7.9c-13.6-6.4-26.6-2-28.8,0.1c0,9.2,8.8,20.2,17,27.2V459.1L74,459.1z"/>
<path fill="#FFFFFF" stroke="#000000" stroke-width="0.5" d="M85.9,431.3l3.9-7.898l0.9,7l9.3-4.9l-3.8,7.8l9.4-1.1l-3.9,5.6
	l6.2,0.602l1,0.198c-0.7,2.7-0.8,5.602-0.4,8.802l-5.4,3.6l1.1,8.2l4.8-9.2c0.8,4.2,1.9,8.5,3.1,12.6v0.302
	C98,462.3,85.1,461,74,459.1l0.1-0.398c-8.3-7-17.1-18-17-27.2C59.3,429.3,72.2,424.9,85.9,431.3z M77.8,439.8
	c0.6-0.7,0.9-1.6,0.8-2.5c0-0.1,0-0.2,0-0.3c-0.1-1.2-0.7-2.5-1.8-3.3c-1.9-1.602-4.7-1.5-6.1,0.2c-0.6,0.698-0.9,1.6-0.8,2.5
	c0,0.1,0,0.198,0,0.3c0.1,1.2,0.7,2.5,1.8,3.398C73.7,441.7,76.4,441.6,77.8,439.8z"/>
<line fill="none" stroke="#000000" stroke-width="0.5" stroke-miterlimit="10" x1="546" y1="140.3" x2="504.4" y2="163.1"/>
<line fill="none" stroke="#000000" stroke-miterlimit="10" x1="512" y1="170.5" x2="556" y2="170.5"/>
<line fill="none" stroke="#000000" stroke-miterlimit="10" x1="504.4" y1="178.1" x2="539.3" y2="187.4"/>
<line fill="none" stroke="#000000" stroke-miterlimit="10" x1="448.4" y1="158" x2="404.5" y2="142.7"/>
<line fill="none" stroke="#000000" stroke-miterlimit="10" x1="441.9" y1="168.7" x2="404.5" y2="173.1"/>
<line fill="none" stroke="#000000" stroke-miterlimit="10" x1="447.9" y1="178.1" x2="413.2" y2="194.6"/>
<path fill="none" stroke="#000000" stroke-width="0.5" stroke-miterlimit="10" d="M525.2,331c0,0-45.4,19.3-24.2,90.1"/>
<line fill="none" stroke="#000000" stroke-width="0.5" stroke-miterlimit="10" x1="450.6" y1="331" x2="452.9" y2="419.3"/>
<path fill="none" stroke="#000000" stroke-width="0.25" stroke-miterlimit="10" d="M86.8,432.5c0,0,0.4,19.8-16.8,18.5"/>
<path fill="none" stroke="#000000" stroke-width="0.25" stroke-miterlimit="10" d="M92.8,439.5c0,0,3.9,5.1-2.3,4.3"/>
<path fill="none" stroke="#000000" stroke-width="0.25" stroke-miterlimit="10" d="M89,447.3c0,0,2.5,4.9-2.2,3.8"/>
<path fill="none" stroke="#000000" stroke-width="0.25" stroke-miterlimit="10" d="M81.5,453.5c0,0,4.2,3.2-3.1,2.8"/>
<path fill="none" stroke="#000000" stroke-width="0.25" stroke-miterlimit="10" d="M96,447.3c1.3,2.3,0.7,5.102-2,3.8"/>
<path fill="none" stroke="#000000" stroke-width="0.25" stroke-miterlimit="10" d="M88.2,457.5c0,0,5.5-1,4-4"/>
<path fill="none" stroke="#000000" stroke-width="0.25" stroke-miterlimit="10" d="M96.6,459.1c0,0,5.4-0.1,3.1-3.6"/>
<path fill="none" stroke="#000000" stroke-width="0.25" stroke-miterlimit="10" d="M100.3,447.3c0,0,6.1-2.7,2.6-4.6"/>
<line fill="none" stroke="#000000" stroke-width="0.25" stroke-miterlimit="10" x1="88.2" y1="430.6" x2="89.7" y2="427.7"/>
<line fill="none" stroke="#000000" stroke-width="0.25" stroke-miterlimit="10" x1="92.2" y1="432.5" x2="96.6" y2="427.7"/>
<line fill="none" stroke="#000000" stroke-width="0.25" stroke-miterlimit="10" x1="98.5" y1="436" x2="102.1" y2="432.7"/>
<line fill="none" stroke="#000000" stroke-width="0.25" stroke-miterlimit="10" x1="104" y1="439.5" x2="107.3" y2="439.7"/>
<line fill="none" stroke="#000000" stroke-width="0.25" stroke-miterlimit="10" x1="105.6" y1="442.6" x2="108.3" y2="440.7"/>
<path fill="none" stroke="#000000" stroke-width="0.25" stroke-miterlimit="10" d="M107,460c0,0,4.5-0.3,1.4-4.5"/>
<line fill="none" stroke="#000000" stroke-width="0.25" stroke-miterlimit="10" x1="107" y1="449.3" x2="104.6" y2="453.5"/>
<line fill="none" stroke="#000000" stroke-width="0.25" stroke-miterlimit="10" x1="140.4" y1="443.9" x2="145.8" y2="445.3"/>
<line fill="none" stroke="#000000" stroke-width="0.25" stroke-miterlimit="10" x1="141.8" y1="447.3" x2="144.1" y2="445.5"/>
<line fill="none" stroke="#000000" stroke-width="0.25" stroke-miterlimit="10" x1="141.8" y1="449.3" x2="145.8" y2="451.1"/>
<line fill="none" stroke="#000000" stroke-width="0.25" stroke-miterlimit="10" x1="144.1" y1="457.3" x2="145.8" y2="455.5"/>
<line fill="none" stroke="#000000" stroke-width="0.25" stroke-miterlimit="10" x1="158.8" y1="434.4" x2="161.8" y2="436.8"/>
<line fill="none" stroke="#000000" stroke-width="0.25" stroke-miterlimit="10" x1="152.5" y1="438.7" x2="156.8" y2="440.7"/>
<line fill="none" stroke="#000000" stroke-width="0.25" stroke-miterlimit="10" x1="150" y1="444.6" x2="152.5" y2="445.5"/>
<line fill="none" stroke="#000000" stroke-width="0.25" stroke-miterlimit="10" x1="148.3" y1="449.2" x2="150.8" y2="449.3"/>
<path fill="none" stroke="#000000" stroke-width="0.25" stroke-miterlimit="10" d="M169.5,437c0,0-4.3,18.6,12.5,20.3"/>
<path fill="none" stroke="#000000" stroke-width="0.25" stroke-miterlimit="10" d="M160.3,446.4c0,0-4.5,3.1,1.5,1.898"/>
<path fill="none" stroke="#000000" stroke-width="0.25" stroke-miterlimit="10" d="M165,451.4c0,0-3.5,6.198,2,4.898"/>
<path fill="none" stroke="#000000" stroke-width="0.25" stroke-miterlimit="10" d="M165.5,441c0,0-3.9,2.6,0,3.6"/>
<path fill="none" stroke="#000000" stroke-width="0.25" stroke-miterlimit="10" d="M155.8,451.1c0,0-1.3,3.4,3,2.4"/>
<path fill="none" stroke="#000000" stroke-width="0.25" stroke-miterlimit="10" d="M157.2,456.3c0,0-0.7,4.4,3.1,2.8"/>
<path fill="none" stroke="#000000" stroke-width="0.25" stroke-miterlimit="10" d="M152.5,457.3c0,0-1.1,3.602,2.1,2.7"/>
<path fill="none" stroke="#000000" stroke-width="0.25" stroke-miterlimit="10" d="M148.3,458.7c0,0-0.1,1.398,2.6,1.398"/>
<path fill="none" stroke="#000000" stroke-width="0.25" stroke-miterlimit="10" d="M170.6,455.5c0,0-1.1,3.9,2.7,2.3"/>
<path fill="none" stroke="#000000" stroke-width="0.25" stroke-miterlimit="10" d="M110.3,441c0,0,14.7,11.4,21.7-1.3"/>
<path fill="none" stroke="#000000" stroke-width="0.25" stroke-miterlimit="10" d="M111.9,443.9c0,0,4.1,3.698,9.2,3.5"/>
<path fill="none" stroke="#000000" stroke-width="0.25" stroke-miterlimit="10" d="M114,452.4c0,0,3.1,4.8,4.5,1.6"/>
<path fill="none" stroke="#000000" stroke-width="0.25" stroke-miterlimit="10" d="M124.5,452.4c0,0,2.8,3.5,4.4-1.302"/>
<path fill="none" stroke="#000000" stroke-width="0.25" stroke-miterlimit="10" d="M132,449.3c0,0,5.3,1.7,5.3-2.898"/>
<path fill="none" stroke="#000000" stroke-width="0.25" stroke-miterlimit="10" d="M130.6,455.5c0,0,3.4,2.9,4-1.6"/>
<path fill="none" stroke="#000000" stroke-width="0.25" stroke-miterlimit="10" d="M121.1,457.8c0,0,1.9,4.7,3.4,1"/>
<path fill="none" stroke="#000000" stroke-width="0.25" stroke-miterlimit="10" d="M127.9,460c0,0,4.3,1.8,4.1-1.8"/>
<path fill="none" stroke="#000000" stroke-width="0.25" stroke-miterlimit="10" d="M135.5,459.3c0,0,3.8,5.102,4.9-0.6"/>
<path fill="none" stroke="#000000" stroke-width="0.25" stroke-miterlimit="10" d="M114,458.7c0,0-0.5,3.8,2.5,1.398"/>
<path fill="none" stroke="#000000" stroke-width="0.25" stroke-miterlimit="10" d="M137.3,441.8c0,0,4.3,12.5,5.7,18.4"/>
<path fill="none" stroke="#000000" stroke-width="0.25" stroke-miterlimit="10" d="M167,438.7c0,0-11.4,4.7-16.2,15.3"/>
<path fill="none" stroke="#000000" stroke-width="0.25" stroke-miterlimit="10" d="M89.7,434.4c0,0,10.2,7.1,10.6,8.398"/>
<path fill="none" stroke="#000000" stroke-width="0.25" stroke-miterlimit="10" d="M217.7,494.1c0,0,8.8,5.2,11.5,2.4"/>
<path fill="none" stroke="#000000" stroke-width="0.25" stroke-miterlimit="10" d="M714.8,472.3c0,0-1.1,16.5-16.7,14.5"/>
<path fill="none" stroke="#000000" stroke-width="0.25" stroke-miterlimit="10" d="M698.1,488.3c0,0,3.4,1.3,7.2,0"/>
<line fill="none" stroke="#000000" stroke-width="0.25" stroke-miterlimit="10" x1="700.5" y1="496.5" x2="701.7" y2="500.8"/>
<line fill="none" stroke="#000000" stroke-width="0.25" stroke-miterlimit="10" x1="725.8" y1="510" x2="724.5" y2="513.5"/>
<line fill="none" stroke="#000000" stroke-width="0.25" stroke-miterlimit="10" x1="728" y1="511.8" x2="725.8" y2="514.8"/>
<line fill="none" stroke="#000000" stroke-width="0.25" stroke-miterlimit="10" x1="729.3" y1="513.3" x2="728" y2="514.8"/>
<line fill="none" stroke="#000000" stroke-width="0.25" stroke-miterlimit="10" x1="740" y1="514.8" x2="741.5" y2="525.3"/>
<line fill="none" stroke="#000000" stroke-width="0.25" stroke-miterlimit="10" x1="741.5" y1="513.3" x2="744.5" y2="516.8"/>
<line fill="none" stroke="#000000" stroke-width="0.25" stroke-miterlimit="10" x1="743" y1="511.8" x2="754.3" y2="510"/>
<path fill="none" stroke="#000000" stroke-width="0.25" stroke-miterlimit="10" d="M717.5,472.3c0,0,9,8,11.8,12.8"/>
<line fill="none" stroke="#000000" stroke-width="0.25" stroke-miterlimit="10" x1="720.5" y1="472.3" x2="724.5" y2="466.3"/>
<line fill="none" stroke="#000000" stroke-width="0.25" stroke-miterlimit="10" x1="724.5" y1="474.4" x2="729.3" y2="472.3"/>
<line fill="none" stroke="#000000" stroke-width="0.25" stroke-miterlimit="10" x1="726.9" y1="478.5" x2="731.8" y2="476.8"/>
<path fill="none" stroke="#000000" stroke-width="0.25" stroke-miterlimit="10" d="M706.4,493c0,0,2.3,1.8,3.3-1.3"/>
<path fill="none" stroke="#000000" stroke-width="0.25" stroke-miterlimit="10" d="M712.5,488.8c0,0,5.8,0.2,3.8-3.8"/>
<path fill="none" stroke="#000000" stroke-width="0.25" stroke-miterlimit="10" d="M716.7,481.5c0,0,3.1-2.2,2.1-3.9
	c-1-1.698-2.1-3.3-2.1-3.3"/>
<path fill="none" stroke="#000000" stroke-width="0.25" stroke-miterlimit="10" d="M687.4,478.7c0,0,5.3,3.5,7.6,2.8"/>
<line fill="none" stroke="#000000" stroke-width="0.25" stroke-miterlimit="10" x1="738.8" y1="498.7" x2="740.8" y2="496.5"/>
<line fill="none" stroke="#000000" stroke-width="0.25" stroke-miterlimit="10" x1="739.8" y1="500.5" x2="742.4" y2="500.3"/>
<path fill="none" stroke="#000000" stroke-width="0.25" stroke-miterlimit="10" d="M720.5,486.9c0,0,4-0.9,2.9-3.2"/>
<path fill="none" stroke="#000000" stroke-width="0.25" stroke-miterlimit="10" d="M712.5,496.5c0,0,4.8-0.3,4.2-3"/>
<path fill="none" stroke="#000000" stroke-width="0.25" stroke-miterlimit="10" d="M720.5,495c0,0,4.5,1.2,4-2.4"/>
<path fill="none" stroke="#000000" stroke-width="0.25" stroke-miterlimit="10" d="M729.3,488.8c0,0,2.2,3.8-1.3,3.8"/>
<path fill="none" stroke="#000000" stroke-width="0.25" stroke-miterlimit="10" d="M720.5,498.7c0,0-0.8,4.1-3.8,3.1"/>
<path fill="none" stroke="#000000" stroke-width="0.25" stroke-miterlimit="10" d="M722,503c0,0,6.7,1.5,4.8-2.3"/>
<path fill="none" stroke="#000000" stroke-width="0.25" stroke-miterlimit="10" d="M730,498.7c0,0,4,1.2,3.5-2.102"/>
<path fill="none" stroke="#000000" stroke-width="0.25" stroke-miterlimit="10" d="M730,506.3c0,0,5.6,1.5,3.6-3"/>
<path fill="none" stroke="#000000" stroke-width="0.25" stroke-miterlimit="10" d="M736,510c0,0,2.8,1.5,2.8-1.8"/>
<path fill="none" stroke="#000000" stroke-width="0.25" stroke-miterlimit="10" d="M736,504.9c0,0,3.3-1.4,1.4-4.102"/>
<rect x="700.7" y="470.6" fill="none" width="5.3" height="5.302"/>
<ellipse cx="701.1" cy="473" rx="2.302" ry="2.2"/>
<ellipse fill="#201600" cx="231.6" cy="488.6" rx="2.3" ry="2.2"/>
<ellipse fill="#201600" cx="179.9" cy="440.7" rx="2.3" ry="2.2"/>
<ellipse fill="#201600" cx="123.2" cy="434.4" rx="2.3" ry="2.2"/>
<ellipse fill="#201600" cx="72.3" cy="435.1" rx="2.3" ry="2.2"/>
<path fill="none" stroke="#000000" stroke-width="0.25" d="M59.6,441c0,0,6.4,3.3,8.2,1.6"/>
<path fill="none" stroke="#000000" stroke-width="0.25" d="M113,429.2c0,0-0.3,6.3,1,6.8"/>
<path fill="none" stroke="#000000" stroke-width="0.25" d="M186.3,448.5c0,0,8.8-2.7,9.6-5.4"/>
<line fill="none" stroke="#000000" stroke-width="0.25" x1="296.3" y1="522.5" x2="300" y2="531.3"/>
<line fill="none" stroke="#000000" stroke-width="0.25" x1="296.3" y1="519.5" x2="303.5" y2="522.5"/>
<line fill="none" stroke="#000000" stroke-width="0.25" x1="298.1" y1="517.8" x2="310.3" y2="516.5"/>
<path fill="none" stroke="#000000" stroke-width="0.25" d="M254,502.3c0,0,35.4,14.2,36,14.9"/>
<path fill="none" stroke="#000000" stroke-width="0.25" d="M269.6,498.8c0,0-2.1,12.3-8.1,17.602"/>
<path fill="none" stroke="#000000" stroke-width="0.25" d="M277,503.5c0,0-2.7,11.8-6.3,14.3"/>
<path fill="none" stroke="#000000" stroke-width="0.25" d="M285,509.7c0,0,0.2,5.898-3.3,8.1"/>
<path fill="none" stroke="#000000" stroke-width="0.25" d="M260,497.3c0,0-2.2,10.3-6,13.3"/>
</svg>
