<?xml version="1.0" encoding="utf-8"?>
<!-- Generator: Adobe Illustrator 15.0.0, SVG Export Plug-In . SVG Version: 6.00 Build 0)  -->
<!DOCTYPE svg PUBLIC "-//W3C//DTD SVG 1.1//EN" "http://www.w3.org/Graphics/SVG/1.1/DTD/svg11.dtd">
<svg version="1.1" id="layer_x5F_www.ABC-color.com"
	 xmlns="http://www.w3.org/2000/svg" xmlns:xlink="http://www.w3.org/1999/xlink" x="0px" y="0px" width="822px" height="567px"
	 viewBox="0 0 822 567" enable-background="new 0 0 822 567" xml:space="preserve">
<rect display="none" fill="#FFFFFF" width="822" height="567"/>
<path fill="#FFFFFF" stroke="#1F1E21" d="M322.1,506.5c0,0,19.5-13.8,26.4-11.3l0.4,0.6c-0.602,0.8-1.2,1.7-1.802,2.8
	c-3.698,2.7-8.398,4.302-13,5.9c5.9,5.8,6.302,15.1,2.2,23.8c6.602,10.9,23,2.2,38.7,2.8c-0.6-0.5-1.2-1.1-1.8-1.6v-0.1l7.6,5.898
	c-17.3-0.7-34.7,8.4-47.8-1.2c-1.7-7.1,1.4-10.6,2.2-17.8c-2.5-7.1-7.2-9-13-8.8L322.1,506.5z"/>
<path fill="#FFFFFF" stroke="#1F1E21" d="M301.4,387.7c1.3,5.399-5.2,8.398-4.4,13.2c0,11.8,4,8.898,6.7,14.6
	c-14.1,1.5-19-5.6-16.1-19c-7.1-1.9-12.1-5.7-8.8-15.1C283.3,387.5,290.2,388.8,301.4,387.7z"/>
<path fill="#FFFFFF" stroke="#1F1E21" d="M602.7,78.3c36,7.1,78.8,8.1,83.8,8.2c-6.1,15.3-62,5.7-77.4,4.9c0,0-22.1-0.5-10.8-9.9
	c1.602-1.3,2.602-2.5,3.2-3.5L602.7,78.3z"/>
<path fill="#FFFFFF" stroke="#1F1E21" d="M584.3,51c-1.7-0.5-3.6-0.7-5.5-0.7c-9.5,0-17.3,6.3-17.3,14.2c0,3.4,1.5,6.5,3.9,9
	l0.1,0.4c-12.9,3.8-23.6,9.4-18.8,6.3C556.1,39.3,578.6,46.6,584.3,51z"/>
<path fill="#FFFFFF" stroke="#1F1E21" d="M201,429.5l-0.2,0.3C178,442,110.2,498,80,475.7c23.6-9.5,52.2-18.9,80.2-36.5
	c4.2,0,0.2-6,2.2-5.9c7.5-5.5,16-9.2,25-11.398C192.4,424.3,196.9,426.9,201,429.5z"/>
<path fill="#FFFFFF" stroke="#1F1E21" d="M234.8,464c-3.2-6.3-7.9-12.9-14.6-19.5c0-0.1,0.1-0.2,0.1-0.2c-0.1,0-0.2,0-0.3,0
	c-5.1-5-11.3-10-19-14.8c-4.1-2.6-8.6-5.1-13.6-7.6c17.3-4.302,36.7-3.302,55.4-0.5c59.601,9.1,125.5-0.2,173.102-28.7
	c96.8-57.9,130.8-164.8,130.8-164.8h0.2c3.698,16.8,7,31.2,7.398,39c0.7,15.6-5,45.9-24.5,68.6c-38,31.7-67.2,102-106.5,132.2
	C405.3,476.1,390,487.6,369,492.6c0,0-11.8-7.198-19.9,3.2l-0.398-0.6c-6.9-2.5-26.4,11.3-26.4,11.3v1c-7,0.2-15.7,3.5-24,4
	c-18.7,1.2-36.9-4.2-57.9-9.8l0.1-0.3C240.4,501.5,245.4,484.7,234.8,464z"/>
<path fill="#FFFFFF" stroke="#1F1E21" d="M220.3,444.3c0,0.102,0,0.2-0.1,0.2c-0.1-0.1-0.1-0.1-0.2-0.2
	C220.1,444.3,220.2,444.3,220.3,444.3z"/>
<path fill="#FFFFFF" stroke="#1F1E21" d="M582.5,57.2c3,0,5.4,2.4,5.4,5.3c0,3-2.4,5.4-5.4,5.4c-2.9,0-5.3-2.4-5.3-5.4
	C577.2,59.6,579.6,57.2,582.5,57.2z"/>
<path fill="#FFFFFF" stroke="#1F1E21" d="M158,427.3c15,1.3,25-12.6,41.3-14.3l-12.4,8.6c0.2,0.102,0.3,0.2,0.5,0.2
	c-9,2.2-17.5,5.9-25,11.4c-2,0,2.1,6-2.2,5.898c-28,17.7-56.6,27.102-80.2,36.5c30.2,22.302,98-33.8,120.8-45.898
	C200.2,436,175,459.3,170,463c-11,8-23.3,17.3-35.9,22.5c8.1-1.3,16.2-0.1,23.9-2.4c11.3-3.398,52.7-37.1,62-38.8
	c0.1,0.102,0.1,0.102,0.2,0.2c-3.4,8.8-47.3,32.8-52.4,38.6c6.4-0.1,12.5,0.2,18.5,0.9l48.5-20c10.6,20.7,5.6,37.5,5.6,37.5
	l-0.1,0.3c-4.1-1.1-8.3-2.2-12.7-3.3c-5.8-1.4-11.9-0.8-17.4-2.4c-17.3-5.1-37.1-4.698-57.9-2.898c-4.9,1.2-11.6-3.3-20.1-1.9
	c-7.1,1.102-5.1,0.602-12.2,0c-3.1-0.3-25.5,2.3-28.7,1.9c-16.4-1.9-46.1-20.8-44-38.4c6,0.3,15.4,8.2,18.9,5.7
	c1.6-5.399,14-3.899,18.2-8.2c3.6-6.2,25.4-8.2,30.2-10.1c15.1-5.8,21.9-10.4,36.9-16.3c2-3,4.1-6.102,6.3-9l0.2,0.1l6.9-2.5
	l0.2,0.101C162.5,418.8,160.2,423,158,427.3z M158,433.3c-4,1.3-1.7-4.5-5.4-3.6c-16.6,9.2-57.5,27.2-71.3,31.6
	C95.1,470.1,140.8,441.8,158,433.3z"/>
<path fill="#FFFFFF" stroke="#1F1E21" d="M234.8,464l-48.5,20c-5.9-0.6-12.1-1-18.5-0.9c5.1-5.8,49-29.8,52.4-38.6
	C226.9,451.1,231.5,457.8,234.8,464z"/>
<path fill="#FFFFFF" stroke="#1F1E21" d="M347.1,510.4c-1.5-4.9,3.102-9.2,0-11.9c0.602-1,1.2-1.9,1.802-2.8
	c8.1-10.4,19.898-3.2,19.898-3.2c0.602,7.5,0.3,8.4,1.102,13.1l5.398,3.602c10.3,10.5,23,24.3,41.3,13.1c0,0,5.5-3.2,8.602-3.2v-0.5
	c14.898,1,29.3-13.5,47.898-14.198c2.102,9.8-2,7.1-7.6,14.3c3.3,7.5,20.6-0.4,23.9,7.1c0,1.601,0,3.2,0,4.8
	c-1.302,6.5-11.9,2.801-14.102,8.301c2.5,7.601,14.602,4.699,16.3,13.101c-8.698,6.899-21.898,2.8-33.698,2.399
	c-26.2-1-53.5,5.899-72.802-1.199c-1.8-5.5-0.1-14.9-4.3-17.801l-7.6-5.899v0.1C365.5,522.8,355.8,515.7,347.1,510.4z M359.9,494.6
	c-3.102-2.5-11.302,0.602-8.4,14.7c12.1,10,36.7,17.602,36.9,39.2c4.198,5.9,21.1,3.8,20.6,1.2c6.1,0.2,49.6,0.3,66.5,1
	c-2.4-7.3-10.1-3.8-22.6-13.2c5.198-3,26.6-3.8,28.3-10.7c-16.2,1.5-44.602,5-16.3-15.1c-21.7,8-40.9,16.7-63.4,23.8
	C363.1,519.6,365.5,498.4,359.9,494.6z"/>
<path fill="#FFFFFF" stroke="#1F1E21" d="M152.6,429.7c3.7-0.9,1.4,4.8,5.4,3.6c-17.2,8.5-62.9,36.8-76.8,28
	C95.1,456.9,136,438.9,152.6,429.7z"/>
<path fill="#FFFFFF" stroke="#1F1E21" d="M383.1,326c8.9-6.2,13.5-4.3,22.7-6.8c-13.398,18.2-34.7,27.8-54.3,39.2
	c1.2,10.6,21.6,2.3,26,4.1c0.1,4.9-4.9,4.1-3.8,10.1c3.7,5.5,16.1-3.199,20.8-4.398c-1.3,6.898-8,14.199-1.7,12.8
	c-3.6,6.2-11.6,0.2-13-3.601c-6.6,0.801-10,5.801-13.6,0.801c-0.5-4.102-1.9-5.301-1.3-8.2c-4.302-0.399-7.5-2.399-12.4-3.3
	c-2.1-2.102-4.8-3.4-4.4-8.301c-7.898,1.699-13.5,5.801-21.698,7.101c0,1.601,0,3.2,0,4.7c1.6,8.398,17.8,4.5,22.8,2.398
	c1.2,18.102,5.1,18.602,21.898,22.5c-9.3,5.802-25.5-0.1-28.3-12c-6.2,2.102-15.7-2.5-20.8-5c-1.9-2.3,1.4-8.6,0-11.5
	c-27.2,1.2-44.3,10.2-69.6,15.4c-0.7,11.4,8.8,11.7,17.4,13.1c0.6,5.4-1.9,7.4-1.1,13.102c4.3,8.398,13.5,3.6,16.3,9.5
	c-7.6,2.898-22.6-4.5-26.6-9.4c0-3.2,1.3-4.398,1.3-7.5c-2.7-3.3-11.3,1.5-15.1-0.6c-0.9-3.8,4.6-11,4.5-15.7
	c-3.8-2.2-66.8,26.9-68.7,22.6c-0.3-7.5,58.5-54.1,64.1-64.1c23.9-24.5,49-53.399,82.4-48.399c1.8-0.301,9.398-5.699,34.6-8.199
	c-12,13.398-70.6,37.8-77.7,56.6c17.101,10.801,49.2-22.9,63.8-26.4C360.2,331.1,319.9,342.4,300.1,358.4
	c15.101,4.5,34.7-6.301,47.5-9.102C361.1,346.4,372.1,333.7,383.1,326z M291.3,355.6c-4.5-0.1-13.7,0.9-18.9,0
	c-5.1-1.699,3.7-15.398,0-16.3c-5.5,6.601-23.9,13-38.3,38.9c-1.5,0.399-1.9,0.899-0.7,1.3c0.2-0.4,0.5-0.9,0.7-1.3
	C242.9,375.6,289.6,372.1,291.3,355.6z"/>
<path fill="#FFFFFF" stroke="#1F1E21" d="M615.6,70c-1.1,2.6-7.3,0.9-6.5-2.4C611.8,64.5,614.3,67.8,615.6,70z"/>
<path fill="#FFFFFF" stroke="#1F1E21" d="M589.5,71.5c-6.6-1.7-15.7-0.1-24,2.4l-0.1-0.4c-2.5-2.4-3.9-5.6-3.9-9
	c0-7.8,7.8-14.2,17.3-14.2c1.9,0,3.8,0.3,5.5,0.7C593.8,56.2,593.9,62.6,589.5,71.5z M582.5,67.9c3,0,5.4-2.4,5.4-5.4
	s-2.4-5.3-5.4-5.3c-2.9,0-5.3,2.4-5.3,5.3C577.2,65.5,579.6,67.9,582.5,67.9z"/>
<path fill="#FFFFFF" stroke="#1F1E21" d="M234.2,378.2c-0.2,0.399-0.5,0.899-0.7,1.3C232.3,379,232.7,378.6,234.2,378.2z"/>
<path fill="#FFFFFF" stroke="#1F1E21" d="M272.5,355.6c5.1,0.9,14.4-0.1,18.9,0c-1.7,16.5-48.5,20-57.1,22.602
	c14.4-25.9,32.8-32.301,38.3-38.9C276.2,340.2,267.3,353.9,272.5,355.6z"/>
<path fill="#FFFFFF" stroke="#1F1E21" d="M375,531.1c-15.7-0.6-32.1,8.102-38.7-2.8c4.102-8.6,3.7-18-2.2-23.8
	c4.602-1.7,9.4-3.2,13-5.9c3.102,2.7-1.5,6.9,0,11.9c8.602,5.2,18.302,12.3,26,19C373.8,530,374.4,530.5,375,531.1z"/>
<path fill="#FFFFFF" stroke="#1F1E21" d="M686.9,84.5c-0.102,0.7-0.302,1.3-0.5,1.9c-5-0.1-47.7-1.1-83.802-8.2l-1.198-0.4
	c2.3-3.7-0.7-5.3-0.7-5.3s-4.8-33.1,13.8-22.8C632.9,64.5,656.4,80.7,686.9,84.5z M609,67.6c-0.8,3.3,5.4,5,6.5,2.4
	C614.3,67.8,611.8,64.5,609,67.6z"/>
<path fill="#FFFFFF" stroke="#1F1E21" d="M481.3,526.7c-1.7,6.898-23.1,7.7-28.3,10.7c12.6,9.398,20.3,5.898,22.6,13.198
	c-17-0.6-60.398-0.698-66.5-1c0.5,2.602-16.398,4.7-20.6-1.198c-0.2-21.602-24.9-29.102-36.9-39.2c-2.898-14,5.302-17.2,8.4-14.7
	c5.7,3.8,3.2,25,41.6,40.8c22.5-7.1,41.7-15.8,63.4-23.8C436.6,531.7,465.1,528.2,481.3,526.7z"/>
<path fill="#FFFFFF" stroke="#1F1E21" d="M165.1,414.8l-0.2-0.1l-6.9,2.5l-0.2-0.102c23.7-32.898,53.6-61.999,81.7-91.898
	c21.5-22.8,47.7-45.9,75-58.2c29.2-13.2,61-22.9,100-24.9c18.3-6.6,24.2-19.5,35.9-29.7c11.398-14.7,14.698-31.5,19.6-49.9
	c6.3-23.8-3.8-47.9,6.3-69.9c0.7-4.7,1.2-8.5,1.9-13.2c5.398-28.9,28.7-40.1,51.6-49.9c1.9-5.9-5.398-14.5-1.3-17.9
	c4.9-1.8,7.9,3.4,9.9,4.8C557.5,27,569.6,18.7,585.1,27.1c7.9,4.3,17.5,13.1,29.4,22.6c-18.6-10.3-13.8,22.8-13.8,22.8
	s3,1.6,0.7,5.3c-0.602,1-1.602,2.2-3.2,3.5c-11.3,9.4,10.8,9.9,10.8,9.9c-10.6,3.2-15.9,16-27.2,22.6
	c-12.3,7.1-27.6,6.5-35.898,15.4c-15.802,17-6.9,63.1,0.8,98.6h-0.2c0,0-34,106.9-130.8,164.8C368.1,421,302.2,430.3,242.6,421.3
	c-18.7-2.8-38.1-3.8-55.4,0.5c-0.1-0.1-0.3-0.2-0.5-0.2l12.4-8.6c-16.3,1.6-26.3,15.5-41.3,14.3C160.2,423,162.5,418.8,165.1,414.8z
	 M589.5,71.5c4.4-8.8,4.4-15.2-5.2-20.5c-5.7-4.4-28.2-11.8-37.6,29.1c-4.8,3,5.898-2.5,18.8-6.3C573.7,71.4,582.9,69.7,589.5,71.5z
	 M405.8,319.3c-9.2,2.4-13.8,0.601-22.7,6.8c-11.1,7.7-22,20.301-35.198,23.301c-12.9,2.899-32.5,13.601-47.5,9.101
	c19.899-16.101,60.1-27.399,47.5-41.8c-14.7,3.6-46.7,37.199-63.8,26.398c7-18.8,65.6-43.3,77.7-56.6c-25.2,2.5-32.8,7.8-34.6,8.2
	c-33.4-4.9-58.5,23.899-82.4,48.399c-5.7,10.101-64.5,56.699-64.1,64.101c1.8,4.3,64.9-24.8,68.7-22.601
	c0,4.699-5.4,11.899-4.5,15.699c3.8,2.102,12.4-2.7,15.1,0.602c0,3.198-1.3,4.398-1.3,7.5c4,5,18.9,12.3,26.6,9.398
	c-2.8-5.898-12-1.1-16.3-9.5c-0.8-5.7,1.7-7.6,1.1-13.1c-8.5-1.301-18.1-1.602-17.4-13.102c25.2-5.199,42.3-14.3,69.6-15.398
	c1.4,2.898-1.898,9.199,0,11.5c5,2.5,14.602,7.1,20.8,5c2.802,11.8,19,17.7,28.302,12c-16.802-4-20.802-4.4-21.9-22.5
	c-5.1,2.1-21.2,6-22.8-2.4c0-1.6,0-3.199,0-4.699c8.2-1.301,13.898-5.399,21.7-7.101c-0.5,4.899,2.3,6.2,4.398,8.3
	c4.8,0.9,8,2.9,12.4,3.301c-0.7,2.801,0.8,4.1,1.3,8.199c3.5,5.102,7,0,13.6-0.8c1.4,3.7,9.4,9.8,13,3.601
	c-6.3,1.399,0.5-5.899,1.7-12.801c-4.6,1.2-17,9.9-20.8,4.4c-1.1-5.9,3.9-5.2,3.8-10.102c-4.398-1.8-24.8,6.5-26-4.1
	C371.1,347,392.4,337.5,405.8,319.3z M297,400.9c-0.8-4.802,5.7-7.801,4.4-13.2c-11.2,1.1-18.101-0.2-22.601-6.3
	c-3.4,9.398,1.6,13.199,8.8,15.1c-2.9,13.3,2,20.4,16.1,19C301,409.8,297,412.7,297,400.9z"/>
<path fill="#FFFFFF" stroke="#1F1E21" d="M399.5,512.2c8.2-5.7,16.5-9.3,22-7.5c-2.5,7.6-22.6,16.3-4.8,17.6
	c-18.3,11.2-31-2.5-41.3-13.1c8.198-6.102,18.5-4.7,26-11.5C409.6,502.1,395.7,509.4,399.5,512.2z"/>
<path fill="#FFFFFF" stroke="#1F1E21" d="M201,429.5c7.7,4.8,13.9,9.8,19,14.8c-9.3,1.7-50.6,35.4-62,38.8
	c-7.7,2.302-15.8,1-23.9,2.4C146.7,480.3,159,471,170,463c5-3.7,30.2-26.9,30.8-33.1L201,429.5z"/>
<path fill="#FFFFFF" stroke="#1F1E21" d="M408,499.8c8.1,4.5,18.8-5.898,25,0c-0.7,9.9-11.5,8.8-13,17.8c1.8,0.602,3.6,1,5.4,1.102
	v0.5c-3.2,0-8.602,3.2-8.602,3.2c-17.8-1.302,2.4-10,4.8-17.602c-5.6-1.8-13.8,1.9-22,7.5c-3.8-2.8,10.102-10.1,1.9-14.5
	c-7.5,6.8-17.8,5.4-26,11.5l-5.4-3.6c15.102-4.9,27.802-12.4,41.302-19C415.5,492.3,404.9,495.4,408,499.8z"/>
<path fill="none" stroke="#000000" stroke-linecap="round" stroke-linejoin="round" d="M451.5,332.3c5.5-1.1,10.7-8.899,15.2-7.1"/>
<path fill="none" stroke="#000000" stroke-linecap="round" stroke-linejoin="round" d="M365.6,404.8
	c31.802-16.399,61.602-44,85.9-72.399"/>
<path fill="none" stroke="#000000" stroke-linecap="round" stroke-linejoin="round" d="M301.5,420.2c22.8-1.8,42.3-12.2,64.1-15.4"
	/>
<path fill="none" stroke="#000000" stroke-linecap="round" stroke-linejoin="round" d="M202.1,412.8c33.2-2.5,66.7,9.9,99.4,7.4"/>
<path fill="none" stroke="#000000" stroke-linecap="round" stroke-linejoin="round" d="M203.7,369.2c-13.6,14-26.3,27.2-36.4,42.3"
	/>
<path fill="none" stroke="#000000" stroke-linecap="round" stroke-linejoin="round" d="M266.7,309.8c-24.1,20.2-41.7,37.4-63,59.4"
	/>
<path fill="none" stroke="#000000" stroke-linecap="round" stroke-linejoin="round" d="M378.8,260c-34,3.1-89.4,30.8-112,49.8"/>
</svg>
