<?xml version="1.0" encoding="utf-8"?>
<!-- Generator: Adobe Illustrator 15.0.0, SVG Export Plug-In . SVG Version: 6.00 Build 0)  -->
<!DOCTYPE svg PUBLIC "-//W3C//DTD SVG 1.1//EN" "http://www.w3.org/Graphics/SVG/1.1/DTD/svg11.dtd">
<svg version="1.1" id="layer_x5F_www.ABC-color.com"
	 xmlns="http://www.w3.org/2000/svg" xmlns:xlink="http://www.w3.org/1999/xlink" x="0px" y="0px" width="822px" height="567px"
	 viewBox="0 0 822 567" enable-background="new 0 0 822 567" xml:space="preserve">
<rect display="none" fill="#FFFFFF" width="822" height="567"/>
<path fill="#FFFFFF" stroke="#000000" stroke-miterlimit="10" d="M64.5,279.7c1.8,16.8,6.6,78,34.8,67.8
	c11.4-4.1,15.5-82.9,27.6-83.4c8.1,12.2,19.4,23.7,35,32.2c-1.3-0.3-2.1-0.2-2.4,0.601c-3,7.5-24.8,6,4.2,44.399
	c18.6,24.601,8.4,19.8,4.8,22.2l-0.1,0.1c4.2,6.2,15.8,19,20.9,22.4c6.2,4,12.6,7.1,18.6,11.4c7.7,5.6,12.5,9.5,19.2,16.198
	c4,4,13.8,9.602,8.9,16.7c-3.6,0.102-6.7,0-10.1-1.1l-0.1,0.1c5.4,4.3,11,8.3,16.7,12.3c10.4,7.102,23.2,10.2,33.2,18.102
	c4.1,3.3,10.8,13.8,9.5,19.2c-4.8,0.198-11.1,1.398-14.5-2.4l-0.9,0.8c3,3.3,6.1,6.602,9.1,9.9c16,17.3,66.6,42.6,66.6,42.6
	s-31.1,17.4-213-84C102,428.7,79.1,397,67.7,361c-1.5-4.6-50-152.6-4.2-177c22.1-11.8,39,1.2,39,1.2c0-1.5,1.1,4.6,1.7,7.5
	c-11.6,0.2-25.3-0.8-34.9,6.7c-7.2,5.7-7.5,15.1-7.9,23.6C61,230.9,63.6,271.6,64.5,279.7z"/>
<path fill="#FFFFFF" stroke="#000000" stroke-miterlimit="10" d="M303.1,251.9c1.4,0.5,2.4,0.7,2.601,0.8
	C305.5,252.6,304.5,252.3,303.1,251.9z M281.3,250.2c1-4,15.6-0.1,21.8,1.7c-3.3-1.1-8.399-3.5-9.2-7.3c-1.3-5.7,16.4,2.5,16.4,2.5
	c3.102-1.3,10.8,12.8,2.5,15.1c-18.2,5-25.8-1.9-25.8-1.9s21.5-2.5,17-2.5C296.4,257.8,280.5,253.3,281.3,250.2z"/>
<path fill="#FFFFFF" stroke="#000000" stroke-miterlimit="10" d="M279.8,290.3c1.4,0.5,2.4,0.7,2.6,0.8
	C282.2,291,281.3,290.7,279.8,290.3z M258,288.6c1-4,15.6-0.1,21.8,1.7c-3.3-1.1-8.4-3.5-9.2-7.3c-1.3-5.7,16.4,2.5,16.4,2.5
	c3.1-1.3,10,10.4,1.9,13.2c-14.5,5-25.2,0-25.2,0s21.5-2.5,17-2.5C273.1,296.1,257.2,291.6,258,288.6z"/>
<path fill="#FFFFFF" stroke="#000000" stroke-miterlimit="10" d="M303.1,251.9c-6.2-1.8-20.8-5.6-21.8-1.7c-0.8,3,15.1,7.5,22.7,7.5
	c4.5,0-17,2.5-17,2.5s7.6,6.9,25.8,1.9c8.3-2.3,0.602-16.4-2.5-15.1c0,0-17.6-8.2-16.4-2.5C294.7,248.4,299.8,250.7,303.1,251.9z
	 M279.8,290.3c-6.2-1.8-20.8-5.7-21.8-1.7c-0.8,3,15.1,7.5,22.6,7.5c4.5,0-17,2.5-17,2.5s10.7,5,25.2,0c8.1-2.8,1.3-14.5-1.9-13.199
	c0,0-17.6-8.199-16.4-2.5C271.4,286.7,276.5,289.1,279.8,290.3z M105.9,197.3c0-23.7,77.8-57.1,80.8-57.3c8.7-0.7,2.6-1.8,6.8,1.1
	c5.2,3.6,1.8,9.6,6,14.4s36.5-12.2,36.5-12.2C362.7,34.7,372,70.7,466.7,84.7c36.6,5.4-94.7,18-94.7,18l-28.5,18.6
	c-18.6,15.6-37.2,21-37.2,21s-16.8,3-27.6,11.4c-10.8,8.4-6.8,18.7-4.8,22.2c4.2,7.2,42.1,32.6,150.8,113.4
	c23.3,17.3-16.2,26.3-62.4,24.601v0.301c-0.7-0.301-1.1-0.5-1.2-0.5c-3-1.2-164-6.4-176.1-9.2c-11.6-2.7-19.4-7.2-23.1-8.2
	c-15.6-8.5-26.9-20-35-32.2C108.7,236.7,106.2,205.8,105.9,197.3L105.9,197.3z"/>
<path fill="#FFFFFF" stroke="#000000" stroke-miterlimit="10" d="M99.3,347.5c-28.2,10.2-33-51-34.8-67.8
	c-0.9-8.1-3.5-48.8-3.1-56.7c0.4-8.5,0.7-17.9,7.9-23.6c9.6-7.5,23.2-6.5,34.9-6.7c0.2,0.9,0.3,1.5,0.4,1.5l1.4,0.9
	c0,0,0,0.8,0.1,2.3c0.3,8.5,2.8,39.4,20.9,66.8C114.7,264.6,110.6,343.4,99.3,347.5z"/>
<ellipse fill="#FFFFFF" stroke="#000000" stroke-miterlimit="10" cx="102.9" cy="62.5" rx="1.9" ry="1.9"/>
<path fill="#FFFFFF" stroke="#000000" stroke-miterlimit="10" d="M109,66.5c0.5-0.6-11.5-0.6-10.9,0.4c-1.3-2.3-2-8,1.6-10.1
	c3.6-2.1,5.3-1.1,7.6,0.3C110,58.5,112.5,64.4,109,66.5z M101,62.5c0,1,0.9,1.9,1.9,1.9s1.9-0.8,1.9-1.9s-0.9-1.9-1.9-1.9
	S101,61.5,101,62.5z"/>
<path fill="#FFFFFF" stroke="#000000" stroke-miterlimit="10" d="M99,152.1c-2.9-18.5-6.5-31.3-10-40.1l0.7-0.3
	c22.8,15,48.6-11.4,66.6-10.5c21-0.3,24,5.7,18.6,17.7c-3.4,7.6-11.4,15.6-17.7,18.3c-8.1,3.6-48,17-56.7,14.7L99,152.1z"/>
<path fill="#FFFFFF" stroke="#000000" stroke-miterlimit="10" d="M72.6,89.4c-4-3.3-13.9-4.4-13.9-4.4s-12.5-1-16.8-1.8
	c-7.2-1.2,1.8-3.6,9.6-5.4c12.2-2.8,19-3.8,21.6-7.7l1,0.3C72.4,74.4,87.3,80,72.6,89.4L72.6,89.4z"/>
<path fill="#FFFFFF" stroke="#000000" stroke-miterlimit="10" d="M98.2,66.8c-0.6-1,11.4-1,10.9-0.4c3.5-2.1,0.9-8-1.7-9.5
	c-2.3-1.3-4-2.3-7.6-0.3C96.2,58.8,96.8,64.5,98.2,66.8z M73.1,89.8c-0.1-0.1-0.3-0.3-0.5-0.4l0.1-0.1c14.7-9.3-0.3-15,1.4-18.9
	l-1-0.3c61.2-91.7,132.6,37.1,132.6,37.1s17.4,19.2,35.4-1.8s40.7-32.8,57-38.4C495-0.3,658.7,104.2,688.7,183.4
	c3,7.8-44.2-27.8-51-23c-5.2,3.7-7.5-0.9-28.7-5.3c-11.5-2.4-14.7-17.3-30.7-12c-11.7,3.9-4.7-17.3-34-2.7
	c-7.3,3.7-11-9.4-24.7-11.3c-12.198-1.8-15.3,10.7-24.698,12.7c-15.2,3.3-23.802-10.5-39.302,0.7c-36,26-50.398,6.9-58,10
	c-32.698,13.3-25.898,17.2-28,20c-14,18.7-55.3,9.3-55.3,9.3c85.8,78.6,455.3,144.5,455.3,144.5s11.102,4.7,10.2,7.8
	c-1.2,3.9-16.2,1.2-16.2,1.2s-290.5-31.7-303-33c-33.6-3.6-9,13.8-9,13.8l237,133.2l28.802,18c0,0,20,11.8,17.398,14.4
	C730,486.6,697,471.5,697,471.5c-9.9-11-313.1-147.7-334.8-157.3v-0.3c46.2,1.8,85.7-7.301,62.398-24.602
	C315.9,208.5,278,183.1,273.8,175.9c-2-3.5-6-13.8,4.8-22.2c10.8-8.4,27.6-11.4,27.6-11.4s18.6-5.4,37.2-21l28.5-18.6
	c0,0,131.3-12.6,94.698-18c-94.698-14-104-50-230.7,58.7c0,0-32.3,17-36.5,12.2c-4.2-4.8-0.8-10.8-6-14.4c-4.2-2.9,1.9-1.8-6.8-1.1
	c-2.9,0.2-80.8,33.6-80.8,57.3l0,0c-0.1-1.5-0.1-2.3-0.1-2.3l-1.4-0.9c0,0,0-0.4-0.1-1.5c0-0.1,0-0.2,0-0.3
	c-0.4-3.5-1.6-12.8-4.3-33c-0.4-2.5-0.7-5-1.1-7.3l1.5-0.2c8.8,2.3,48.6-11.1,56.7-14.7c6.3-2.7,14.3-10.7,17.7-18.3
	c5.4-12,2.4-18-18.6-17.7c-18-0.9-43.8,25.5-66.6,10.5L89,112C82.1,94.9,75.3,92.1,73.1,89.8z"/>
</svg>
