<?xml version="1.0" encoding="utf-8"?>
<!-- Generator: Adobe Illustrator 15.0.0, SVG Export Plug-In . SVG Version: 6.00 Build 0)  -->
<!DOCTYPE svg PUBLIC "-//W3C//DTD SVG 1.1//EN" "http://www.w3.org/Graphics/SVG/1.1/DTD/svg11.dtd">
<svg version="1.1" id="layer_x5F_www.ABC-color.com"
	 xmlns="http://www.w3.org/2000/svg" xmlns:xlink="http://www.w3.org/1999/xlink" x="0px" y="0px" width="822px" height="567px"
	 viewBox="0 0 822 567" enable-background="new 0 0 822 567" xml:space="preserve">
<rect display="none" fill="#FFFFFF" width="822" height="567"/>
<path fill="#FFFFFF" stroke="#000000" d="M727.5,296c28.9,1.5,54.8,5.6,45.7,15.6c0,0,6,19.301-168,36.301l-0.102-0.199
	C629.4,333.4,661.2,311.9,663.2,295.6C663.2,295.6,697.1,294.4,727.5,296z"/>
<path fill="#FFFFFF" stroke="#000000" d="M757.2,275c0,0,6,2-6,11.3l-23.7,9.7c-30.5-1.6-64.3-0.4-64.3-0.4s-1-5.1-19.602,1.801
	L643.2,296.3c0,0,16-20.7,0.7-24c0,0-19.302-3.5-33.2,6.7l-0.2-0.3c9.8-7.4,16-14.4,14.8-19.7c8.7,2,63.7,0.2,99.9,4.1
	C743.6,265.1,757.2,268.7,757.2,275z"/>
<path fill="#FFFFFF" stroke="#000000" d="M711.2,238c0,0,39,15,14,25v0.2c-36.2-4-91.3-2.2-99.9-4.1c-0.2-1-0.7-1.8-1.398-2.7
	c0,0-13,3.2-34.102,10.6c7.4-6.2,28.102-24.5,18.602-30l0.1-0.2c0.5,0.3,0.9,0.6,1.4,0.9C609.9,237.6,703.2,227.3,711.2,238z"/>
<path fill="#FFFFFF" stroke="#000000" d="M577.8,238.6h0.5c2.5-0.6,5-1.2,7.602-1.7c12.3-2.2,19.198-1.9,22.5,0
	c9.5,5.5-11.2,23.8-18.602,30c21.102-7.4,34.102-10.6,34.102-10.6c0.698,0.8,1.198,1.7,1.398,2.7c1.2,5.3-5,12.3-14.8,19.7l0.2,0.3
	c13.898-10.2,33.2-6.7,33.2-6.7c15.3,3.3-0.7,24-0.7,24l0.398,1.101C662.2,290.5,663.2,295.6,663.2,295.6
	c-2,16.301-33.8,37.9-58.102,52.102C590,356.6,577.7,362.6,577.2,362.9l0,0c-255.3,61.3-210.7-72-210.7-72l-0.2-0.5
	c4.102-1.7,7.3-5.301,7.602-12.102c0,0,12.698,12.7,22-16c0,0,7.5,6.3,14-10.3c9.398-3.8,111.398-44.4,143.3-17.8
	C569.2,231.1,575.8,236.3,577.8,238.6z"/>
<path fill="#FFFFFF" stroke="#000000" d="M608.5,236.8l-0.1,0.2c-3.302-1.9-10.2-2.2-22.5,0c-2.5,0.5-5.102,1-7.602,1.7h-0.5
	c-2-2.3-8.6-7.5-24.6-4.4c-31.9-26.6-133.9,13.9-143.3,17.8c0.198-0.5,0.398-1.1,0.6-1.7c0,0,6.7-15.3-3.3-26.7l-0.2-0.2
	c1.9-2.4,2.7-6.1,0.9-11.8c0,0-9.2-17.8-19.4-16.3c0-0.1,0-0.3,0.1-0.4c0,0-0.198-7.1-3.698-14C397,181.1,525.9,184.3,608.5,236.8z"
	/>
<path fill="#FFFFFF" stroke="#000000" d="M416.1,449c-17,6.6-33.3,8-47.5,6.9c-29.398-2.4-50-15.5-50-15.5
	c-7.8-2.2-15.199-4.4-22.2-6.802C162.8,388.2,181.9,308.4,182.6,305.8l0,0c6.9-0.899,18-3.1,30-8.7c0,0,24,22,44,0.7
	c0,0,22.7,19.3,32.7,0.7c0,0,16.7,16,30.7-4.7c0,0,16,16,27.3-3.3c0,0,11.2,3.5,19.102,0.1l0.198,0.5c0,0-44.698,133.302,210.7,72
	l0,0c13.5-3.199-44.7,56-50.7,57.302c-1.3,0.3-2.8,0.6-4.5,1c-26.898,6-89.5,19.698-89.5,19.698C427,444.2,421.5,446.9,416.1,449z"
	/>
<path fill="#FFFFFF" stroke="#000000" d="M445.2,476.1c-15.102-7.698-26-22.6-29.102-27.198c5.4-2.102,10.9-4.802,16.5-8
	c0,0,62.602-13.7,89.5-19.7l0.2,0.7c-20.2,45.398-41.1,59-59,58.898C456.8,480.8,450.7,478.9,445.2,476.1z"/>
<path fill="#FFFFFF" stroke="#000000" d="M405.6,532.8c-1.3-0.5-4.6-1.1-10.398-1.1c0,0,0.6,7.5-15.8,4.898
	c-0.802-0.6-2.5-0.398-1.5-0.3c0.5,0.102,1,0.2,1.5,0.3c0.898,0.7,0.398,2.4-7.5,6.4c-5.102,2.5-2-7.3,7.3-11.3c0,0,12-15,25.3-12
	c0,0,13.3,0.7,20-4c0,0,20.6-30.2,20.7-39.5c5.5,2.8,11.5,4.6,18,4.7v0.1c0,0-30.7,38.7-5.3,46.7c0,0-11.302,7.3-20.7-4.7
	c0,0-8,0-4,4.7c0,0,13.7,6.7,15,18c0,0-1.5,9.1-1,13c0.7,4.7-3-11-3-11s-9.7,1.3-10.3-8l-13.9-5c2.2-3.8-0.8-0.3-0.8-0.3l0.8,0.3
	c-0.3,0.6-0.8,1.399-1.5,2.399c0,0-8.7,12.699-16.7,10c0,0,1.3,14.301-1.3,13c0,0-2.7-7.699-2.7-18.301c0,0,4.102-5.8,7.4-8.6
	C406.4,533.3,406.6,533.1,405.6,532.8z"/>
<path fill="#FFFFFF" stroke="#000000" d="M182.5,305.7L182.5,305.7c-4.6,0.6-7.3,0.6-7.3,0.6c-33.3-6.7,2-45.3,2-45.3l0.3-0.2
	c1.3,1.5,3,3,5.1,4.2c1.8,1.1,20,6,37.3-12c0,0,22.7,32.7,50.7,3.3c0,0,19.3,32,38-0.7c0,0,26,18.7,32.7-5.3c0,0,22,17.3,30-5.3
	c0,0,30.7,2.7,20.7-17.3c0,0,10.6,1.3,15.1-4.2l0.2,0.2c10,11.3,3.3,26.7,3.3,26.7c-0.198,0.6-0.398,1.2-0.6,1.7
	c-6.5,16.5-14,10.3-14,10.3c-9.3,28.7-22,16-22,16c-0.2,6.9-3.4,10.4-7.6,12.1c-7.9,3.3-19.102-0.1-19.102-0.1
	c-11.3,19.3-27.3,3.3-27.3,3.3c-14,20.7-30.7,4.7-30.7,4.7c-10,18.699-32.7-0.7-32.7-0.7c-20,21.3-44-0.7-44-0.7
	C200.5,302.6,189.4,304.8,182.5,305.7z"/>
<path fill="#FFFFFF" stroke="#000000" d="M407.9,211.6c1.8,5.7,1,9.4-0.9,11.8c-4.5,5.5-15.1,4.2-15.1,4.2
	c10,20-20.7,17.3-20.7,17.3c-8,22.7-30,5.3-30,5.3c-6.7,24-32.7,5.3-32.7,5.3c-18.7,32.7-38,0.7-38,0.7c-28,29.3-50.7-3.3-50.7-3.3
	c-17.3,18-35.5,13.1-37.3,12c-2-1.3-3.7-2.7-5.1-4.2c-15.9-18,12.4-52.5,12.4-52.5l0.1-1c3,0.3,6.6,0.2,10.9-0.3
	c2.7,0.8,5.5,1,7.7,1v0.3c0,0,17.3,30,40.7,12.7c0,0,13.3,16.7,37.3-0.7c0,0,16.7,20.7,34.7,6c0,0,30.7,10.7,35.3-11.3
	c0,0,27.7,1.3,31.9-19.6l0,0C398.6,193.8,407.9,211.6,407.9,211.6z"/>
<path fill="#FFFFFF" stroke="#000000" d="M384.8,181c3.5,6.9,3.7,14,3.7,14c0,0.1,0,0.3-0.1,0.4l0,0
	c-4.302,20.9-31.9,19.6-31.9,19.6c-4.7,22-35.3,11.3-35.3,11.3c-18,14.7-34.7-6-34.7-6c-24,17.3-37.3,0.7-37.3,0.7
	c-23.3,17.3-40.7-12.7-40.7-12.7V208c2.6,0,4.5-0.4,4.5-0.4c27.5-6.1,24-31.3,19.5-46h0.1c0,0,12,14,26.7,0.7c0,0,13.3,19.3,32,2
	c0,0,13.3,20.7,31.3,4c0,0,12.7,16.7,25.302,5.3c0,0,18.1,8.8,21-5.1l1.698,0.4C377.9,170.9,382.2,175.9,384.8,181z"/>
<path fill="#FFFFFF" stroke="#000000" d="M259.9,104.5c2.7-8.8,1.8-16.6-2.6-18.5c-3.8-1.6-9.1,1.6-13.4,7.7c-1.5,2.1-2.8,4.4-3.9,7
	c-4.5,10.3-4,20.5,1.1,22.7c5.1,2.2,12.8-4.4,17.3-14.7C259,107.3,259.5,105.9,259.9,104.5z M246.4,76.5
	c24.5-16.2,50.1-16.2,50.1-16.2c19.2-0.4,33.6,3.7,44.4,10.4c41.8,26.3,28.3,92.9,28.3,92.9c0.1,1.9-0.102,3.5-0.4,4.9
	c-2.8,13.8-21,5.1-21,5.1c-12.7,11.3-25.3-5.3-25.3-5.3c-18,16.7-31.3-4-31.3-4c-18.7,17.3-32-2-32-2c-14.7,13.3-26.7-0.7-26.7-0.7
	h-0.1c-2-6.3-4.1-10.7-4.1-10.7l-2.7-0.4c7.1-2.7,16-9.4,10.9-26.3c0,0-16.1-9.3-19.2-15.3c0,0-0.1,0-0.3,0v-0.2
	C225,93.9,235.6,83.6,246.4,76.5z"/>
<path fill="#FFFFFF" stroke="#000000" d="M325.1,479.1c-5.898-0.398-10.6-2.8-14.398-6.398c-12.601-11.9-14.7-36.5-14.5-38.8
	l0.2-0.5c7,2.398,14.4,4.698,22.2,6.8c0,0,20.602,13.2,50,15.5v0.5C349.6,473.9,335.5,479.7,325.1,479.1z"/>
<path fill="#FFFFFF" stroke="#000000" d="M331.9,51c0,0,19.3,10.7,9.3,19.3l-0.3,0.4C330.1,63.9,315.8,59.8,296.5,60.3
	c0,0-25.6,0-50.1,16.2c-23.9,3.1-13.9-4.3-22.5-12.2c0,0-34-10.7,10.7-11.3c0,0-40.7-16.7,16-10.7c0,0-23.3-19.3,27.3-7.3
	c0,0-14.7-27.3,27.3,4C305.2,39,302.5,8.3,331.9,51z"/>
<path fill="#FFFFFF" stroke="#000000" d="M325.1,479.1C322.4,485,315.2,488.9,315.2,488.9s-10.2,5.3-12,7.3c-6,6.7-6,6.7-6,6.7
	c-1.9,3.198-8.6,6.1-6,12c8,18,1.3,13.3,1.3,13.3c-2.7,2-6-10-12-12.7c-3.8-1.7-29.3,20-36,10.7c-4.8-6.7-7.3,10-7.3,10
	c-2.7-11.3,1.3-13.3,1.3-13.3c-2.7-3.302,22.7-11.302,22.7-11.302c-28.7,5.302-44,2-44,2c-2.7,2.7-5.3,10-5.3,10c-2-6,3.3-14,3.3-14
	c29.3-11.3,42.7-6,42.7-6c0.7-4.698-21.3-4-21.3-4s-3.4-4.5-5.3-4.698c-5.8-0.7-11.7,1.8-12,2c8-18.7,50,2,56.7,2
	c2.8,0,28.3-18,34.7-26l0.2-0.2C314.5,476.3,319.2,478.8,325.1,479.1z"/>
<path fill="#FFFFFF" stroke="#000000" d="M257.3,86c4.4,1.9,5.3,9.7,2.6,18.5c-0.9-3.7-4.9-15.7-15.7-10.6l-0.3-0.2
	C248.3,87.6,253.5,84.3,257.3,86z"/>
<path fill="#FFFFFF" stroke="#000000" d="M259.9,104.5c-0.4,1.4-0.9,2.8-1.5,4.2c-4.5,10.3-12.2,16.9-17.3,14.7
	c-5.1-2.2-5.5-12.4-1.1-22.7c1.1-2.6,2.5-5,3.9-7l0.3,0.2C255,88.8,259,100.8,259.9,104.5z M250.3,108.9c1.4-5,0.6-9.6-1.8-10.3
	c-2.4-0.7-5.6,2.8-7,7.8s-0.6,9.6,1.8,10.3C245.7,117.4,248.9,113.9,250.3,108.9z"/>
<ellipse transform="matrix(-0.2756 0.9613 -0.9613 -0.2756 417.0388 -99.1114)" fill="#FFFFFF" stroke="#000000" cx="245.863" cy="107.579" rx="9.4" ry="4.6"/>
<path fill="#FFFFFF" stroke="#000000" d="M236.4,124.3c5.1,16.9-3.7,23.6-10.9,26.3c-4.1,1.5-7.7,1.7-7.7,1.7
	c-3.6-0.3-10.1-3.1-16.5-6.3c-8.7-4.4-17.1-9.4-17.5-9.7c13.6,4,31.5,0.7,31.5,0.7c2.5-0.7,9.3-6.7,9.3-6.7L236.4,124.3z"/>
<path fill="#FFFFFF" stroke="#000000" d="M236.4,124.3l-11.8,6c-4.9,2.7-14.9,2.7-14.9,2.7c-2.6,1.7-8.6-0.4-14.6-3.4
	c-8.3-4.1-16.7-9.9-16.7-9.9c1.2-4.4,34.8-10,38.4-10.6c0.2,0,0.3,0,0.3,0C220.3,115,236.4,124.3,236.4,124.3z M215,120.3
	c3.7,0,4.4-2.3,0.9-4.4c-0.5-0.3-8.1,2.6-8.1,3.1C207.8,119.6,211.3,120.3,215,120.3z"/>
<path fill="#FFFFFF" stroke="#000000" d="M200.8,207c-5.8-1.8-11.2-6.5-9.9-18c0,0,37.6-28.7,26.9-36.7c0,0,3.6-0.2,7.7-1.7l2.7,0.4
	c0,0,2.2,4.4,4.1,10.7c4.6,14.7,8,39.9-19.5,46c0,0-1.8,0.4-4.5,0.4C206.3,208,203.5,207.8,200.8,207z"/>
<path fill="#FFFFFF" stroke="#000000" d="M224.7,130.3c0,0-6.8,6-9.3,6.7c0,0-17.9,3.3-31.5-0.7l0,0l11.4-6.7v-0.1
	c6,3,12,5.1,14.6,3.4C209.8,133,219.7,133,224.7,130.3z"/>
<path fill="#FFFFFF" stroke="#000000" d="M217.9,152.3c10.7,8-26.9,36.7-26.9,36.7c-1.3,11.6,4.1,16.3,9.9,18
	c-4.2,0.5-7.8,0.5-10.9,0.3c-25.9-2.2-12.3-27.6-12.3-27.6c36.7-20.7,23.6-33.3,23.6-33.3l0.2-0.3
	C207.7,149.2,214.3,152,217.9,152.3z"/>
<path fill="#FFFFFF" stroke="#000000" d="M215.9,115.9c3.5,2.1,2.8,4.4-0.9,4.4s-7.3-0.7-7.3-1.3
	C207.8,118.5,215.4,115.6,215.9,115.9z"/>
<path fill="none" stroke="#000000" d="M642.9,297.7c-2.2,0.8-4.7,1.8-7.4,3c-19.6,8.6-60.2,33.2-94.2,45.2"/>
<path fill="none" stroke="#000000" d="M590.5,266.5c-19.2,6.9-48.1,18.5-76.1,32.5"/>
<path fill="none" stroke="#000000" d="M526.4,324c0,0,56.898-26.3,85.6-46.5"/>
<path fill="none" stroke="#000000" d="M578.5,238.7c-37.5,9.6-71.1,38.3-71.1,38.3"/>
<path fill="none" stroke="#000000" d="M551.8,234.6c2.7-0.6-2.3,0.5-3.5,0.9c-11.898,3.2-32.898,9.7-55,24.5"/>
<path fill="none" stroke="#000000" d="M224,64.3c0,0,14.1,3.7,17.3,2.7"/>
<path fill="none" stroke="#000000" d="M250.7,42.3c0,0,13.3,0.7,12,8.7"/>
<path fill="none" stroke="#000000" d="M278,35c0,0,9.3,5.3,5.3,10"/>
<path fill="none" stroke="#000000" d="M305.4,39c0,0,4,1.3,1.3,8.7"/>
<path fill="none" stroke="#000000" d="M332,51c0,0-0.7,6-6.7,7.3"/>
<path fill="none" stroke="#000000" d="M234.7,53c0,0,13.3,2,12.7,4"/>
<path fill="none" stroke="#000000" d="M244.7,93.7c0,0-12.7,3.3-19.3-10"/>
<path fill="none" stroke="#000000" d="M248,92.7c0,0-13.3,3-20-10.3"/>
<path fill="none" stroke="#000000" d="M250.7,92.7c0.2-0.1-11.7,2.9-19.3-12.3"/>
</svg>
