<?xml version="1.0" encoding="utf-8"?>
<!-- Generator: Adobe Illustrator 15.0.0, SVG Export Plug-In . SVG Version: 6.00 Build 0)  -->
<!DOCTYPE svg PUBLIC "-//W3C//DTD SVG 1.1//EN" "http://www.w3.org/Graphics/SVG/1.1/DTD/svg11.dtd">
<svg version="1.1" id="layer_x5F_www.ABC-color.com"
	 xmlns="http://www.w3.org/2000/svg" xmlns:xlink="http://www.w3.org/1999/xlink" x="0px" y="0px" width="822px" height="567px"
	 viewBox="0 0 822 567" enable-background="new 0 0 822 567" xml:space="preserve">
<rect x="0.5" y="0.5" display="none" fill="#FFFFFF" width="822" height="567"/>
<path fill="#FFFFFF" stroke="#000000" d="M744.7,358.2c0.2,0.899,0.1,1.8-0.102,2.5c-17.3-11.4-32.198-28.5-50.398-37.4
	c11.398,16,31.2,25.8,45.898,39.101c-19.3-2.699-35.3-17.801-54.1-23.5c-3-16.801,13.5-23.399,22-34c0.2,0.101,0.5,0.199,0.7,0.301
	C714,327.3,743.1,334.5,744.7,358.2z M735.6,346c0.4-3.1-3.398-6.2-6.1-7.3c-0.3,0.2-0.5,1.6,0.5,2.2
	C731.3,342.7,733.3,346.3,735.6,346z"/>
<path fill="#FFFFFF" stroke="#000000" d="M729.5,338.7c2.8,1.1,6.6,4.1,6.1,7.3c-2.3,0.3-4.3-3.3-5.698-5
	C728.9,340.3,729.1,338.9,729.5,338.7z"/>
<path fill="#FFFFFF" stroke="#000000" d="M669.7,293.8c-1.2-0.2-5.4-3.3-6-3.7c-1.4-0.3-3.3-0.3-4.5,0.9
	c0.6,13.1,14.5,21,26.398,15.6c0.602-0.5,1.2-0.8,1.5-1.199c0-0.399-0.3-0.801-0.5-1.199c-1.3-0.301-2.1-1.2-2.898-2
	c-0.9-0.102-1.602-0.4-2.3-0.7c-3.2-3-7.302-6.7-11.7-7.5V293.8z M657.1,258.8c20.9,6.9,43.5,22.6,50.802,46.2
	c-8.5,10.6-25,17.2-22,34c-7.302-0.8-16,3.1-24.2,4.8c-28.4,5.9-52.602-9.7-82.5-8.5c-37.4,17.4-79,38.601-118.5,57.5
	c-11.9,5.7-25.3,10.102-32.3,17.7c-3.4,1.5-6.7,4.1-9,7c-3,4.3-8.102,6.6-13.302,6.8c-0.3,0.4-0.5,0.8-0.8,1.3
	c-20.5,3.102-34.6-10.8-35.8-30.199c-21-1.899-43.1-5.899-63.2-6.801c-19-10.5-44.3-10.5-62.3-22.6c41.5-14.3,108.6,0.3,157.8-5.2
	c3.8-0.399,7.3-1.2,10-2c14.7-4.399,21.602-7.5,37-9c30.4-2.899,53.5-11.8,79.9-26.1c0.1-0.2,0.2-0.5,0.3-0.7
	c17.5-9.4,24.1-18.4,26.2-34.8C558,266.7,543,256.8,522,244c26.3,10.9,62.3,10.3,99,12C632.9,256.5,648.5,256,657.1,258.8z"/>
<path fill="#FFFFFF" stroke="#000000" d="M686.6,304.2c0.2,0.399,0.4,0.8,0.5,1.2c-0.3,0.5-0.898,0.8-1.5,1.199
	C673.7,312,659.8,304.1,659.2,291c1.1-1.2,3.1-1.2,4.5-0.9c0.6,0.4,4.8,3.5,6,3.7v0.2c-0.3,0-0.602-0.1-0.9-0.1
	c-2.1,1.398-2.2,4.6-1.6,6.8c2.898,5.1,11.3,6.2,14.2,0.8c0.698,0.3,1.398,0.6,2.3,0.7C684.5,303,685.3,303.9,686.6,304.2z"/>
<path fill="#FFFFFF" stroke="#000000" d="M669.7,294c4.5,0.8,8.5,4.5,11.7,7.5c-3,5.4-11.302,4.3-14.2-0.8
	c-0.602-2.2-0.602-5.4,1.6-6.8C669.1,293.9,669.4,294,669.7,294z"/>
<path fill="#FFFFFF" stroke="#000000" d="M417.5,334.5c-7.9-0.7-16.3-1.8-23-5c-7.3-0.1-15.7-2.3-22-5c0.3-0.2,0.5-0.3,0.8-0.4
	l-0.1-0.199c-1.5,0.199-21.5-4.301-23.3-4.699c0.398-0.2,0.8-0.4,1.198-0.7c-42.198,0.399-86.1,3.899-128.6,3.899
	c7.1-4.199,13.6-10.199,21.5-12.5c6.8-3.199,16.5-2.899,22.5-7.5c0.3,0,0.7,0,1,0c10.6-20.199,36.4-27,58-26
	c58.8-17.4,113.4-51.9,179.5-42c5.3,4.1,10.9,7.1,17,9.5v0.1c0,0,0,0,0-0.1c21,12.8,36,22.7,33.2,44.201
	c-2.102,16.399-8.7,25.399-26.2,34.801c-0.1-0.2-0.2-0.5-0.3-0.7c-30.8,4.899-62.5,20.1-93.7,15.7
	C428.9,337.7,422.9,336.9,417.5,334.5z"/>
<path fill="#FFFFFF" stroke="#000000" d="M389.5,170c-0.5-1.9-10.6-17.5,13.5-13c0-1-0.4-1.6-0.8-2.2c-0.2-0.9-0.102-1.8,0.1-2.5
	c0.602-0.7,1.3-1.4,1.9-2.1c5.1-1,10.2-0.8,15.2,0l0.1-0.7c0,0-12.3-16.3,11.3-12.3c14.8,2.5,18.8,2.7,19.7,2.4
	c32.8,11.9,64.9,25.7,96.2,41.6c0.1,0.8,0.6,1.4,1,2c0.1,0.6,0.2,1.2,0.2,1.8c-0.2,0.5-0.5,0.8-0.802,1.2c-0.1,0.6-0.3,1.1-0.5,1.5
	c-16.1,12.1-40.8,24.2-41.698,46.8c-66.102-9.9-120.7,24.6-179.5,42c-21.602-1.1-47.3,5.8-58,26c-0.3,0-0.7,0-1,0
	c-14.8-4.7-31.6-1.3-47.2-2.8c-0.4-5.601-0.8-11.7,0.2-17.2c1.2-5.7,2.9-11.7,6.5-16.5c1.6-5.4,4.8-10.8,8.5-15
	c6.1-11.2,15.1-21.9,23.7-31.5c4.1-5,9.1-7.6,14.3-11c3.9-3.7,8.5-6.8,13.3-9.4c2-1.1,4.1-2.1,6.2-3.1c6.7-4.3,14.3-8.1,22.5-9.5
	c16.398-8.1,37.8-8.6,56-6C369.4,177.2,364.2,163.2,389.5,170z"/>
<path fill="#FFFFFF" stroke="#000000" d="M537.2,467.5c-0.8,0.6-2.7-0.6-4.2-0.6c-5.1-4.102-5,1.898-8,1c-0.4-3.9,0.4-7.4,1-11
	C530.2,459.2,534.2,464,537.2,467.5z"/>
<path fill="#FFFFFF" stroke="#000000" d="M521.2,445.4c1-1.2,3.2,0,4,0.1c2.2,2.1,3.7,6.2,4.5,9.1c-4,0.602-6.7-4.898-11.2-4.198
	c0.8-1.4,0.8-3.602,2.4-4.302C520.9,445.8,521,445.6,521.2,445.4z"/>
<path fill="#FFFFFF" stroke="#000000" d="M183.5,343.5c13.9-4.8,25-16.3,39-21c42.5-0.1,86.4-3.5,128.6-3.9
	c-0.398,0.2-0.8,0.5-1.198,0.7c1.8,0.4,21.698,4.9,23.3,4.7l0.1,0.2c-0.3,0.1-0.5,0.3-0.8,0.399c6.3,2.699,14.7,4.899,22,5
	c6.7,3.199,15.1,4.301,23,5c5.4,2.399,11.4,3.199,17.5,3.5c31.2,4.399,62.9-10.801,93.7-15.699c0.1,0.199,0.2,0.5,0.3,0.699
	c-0.1,0.199-0.2,0.5-0.3,0.699C502.3,338,479.2,347,448.8,349.9c-15.398,1.5-22.3,4.6-37,9c-2.7,0.8-6.2,1.6-10,2
	c-49.2,5.5-116.2-9.102-157.8,5.199c-4.6,2.5-9.2,4.601-14,6.601l-1-2.601c-26.9,6.5-56.8,5.601-82.5-3.5
	C159.2,359.6,171.6,351.8,183.5,343.5z"/>
<path fill="#FFFFFF" stroke="#000000" d="M490.8,464.5v0.7c5,1.8,12.602,5.898,16.602,9.3c-1,2.5-4.602,3.6-4.5,6.5
	c-2.302-0.1-4.5,0.2-6.802-0.2c-11.6-5.8-20.8-16.3-33.5-19.5c-13.1-3.2-27.6,1.4-41.5,0.9c-3.898,0.8-7.8,3.398-12,2.6
	c-0.3-0.398-0.6-0.7-1-1c-0.5-1.5-1.5-2.7-1.6-4.398c-2.4-0.7-5.1-0.102-7.7-0.302c-0.1-1.898,0.3-4.3-1.5-5.5
	c15-3.698,33.102-0.1,49.2-1.8c0.1-0.398,0.3-0.898,0.1-1.5c-3.898-2.6-7.698-5.8-12.3-6.7c-1.398-2.398-4.3-3.1-6.5-4.5
	c-5.8-3.3-17.7-8.8-22.5-13.5c0.2-0.5,0.5-0.898,0.8-1.3c5.102-0.2,10.302-2.5,13.302-6.8c16.898,10.2,32.5,26.1,51.198,31.2
	c0.802-0.5,2-0.7,2.802-1.2c13.5-2.7,33.3-2.9,47.8-2.1c-0.2,0.198-0.3,0.5-0.4,0.8c-1.5,0.7-1.6,2.898-2.398,4.3
	c-8.4,3.1-23.7-1-29.5,4.6l0.5,0.4c12.198,0.4,24.198,1.6,36.5,1.5c-0.602,3.6-1.4,7.1-1,11C513.4,467.3,502,464.8,490.8,464.5z"/>
<path fill="#FFFFFF" stroke="#000000" d="M507.5,439.2c0.3,1.3,1.9,1,1.6,2c-1.8,0-3.198-0.2-4.898-0.5c-0.102-0.2-0.2-0.5-0.3-0.7
	c0-1.3,0-2.7,0-4C505.6,436.4,506.3,437.6,507.5,439.2z"/>
<path fill="#FFFFFF" stroke="#000000" d="M507.4,474.4c0.5,0.1,0.898,0.198,1.3,0.6c0,3.7-0.9,7.4-1.4,11.1
	c-0.398-0.1-0.7-0.198-1.2-0.5c-0.698-1.8-2.1-3.398-3.3-4.698C502.8,478,506.5,477,507.4,474.4z"/>
<path fill="#FFFFFF" stroke="#000000" d="M503.9,436c0,1.3,0,2.7,0,4c-10.7,1.6-21.7,2.1-32.2,4.5c0.2,0.5,0.398,1.2,1,1.7
	c0.3,0.398,0.5,0.8,0.8,1.2c-0.8,0.5-2,0.6-2.8,1.198c-18.7-5-34.3-20.898-51.2-31.198c2.3-2.9,5.6-5.5,9-7
	c10.4,9,21.5,17.1,31.7,26.3C475,438,489.2,435.5,503.9,436z"/>
<path fill="#FFFFFF" stroke="#000000" d="M315.3,160.3c-0.5-0.1-1-0.1-1.5-0.2c0.102,0,0.3,0.1,0.4,0.1
	C314.3,160.4,314.8,160.3,315.3,160.3z M316.5,160.5c-0.1-0.2-0.6-0.2-1.2-0.2C315.7,160.4,316.1,160.4,316.5,160.5z M332.5,134.5
	c-13.6-10.4-2.5-11.5,5.3-11v-0.6c0,0-9.3-12.7,7-14.3l0.102-0.3c35.8,8.5,71.1,18.9,105.6,31.4c-0.9,0.2-4.9,0.1-19.7-2.4
	c-23.7-4-11.3,12.3-11.3,12.3l-0.1,0.7c-5.102-0.8-10.102-1-15.2,0c-0.602,0.7-1.3,1.4-1.9,2.1c-0.2,0.7-0.3,1.6-0.1,2.5
	c0.398,0.6,0.8,1.2,0.8,2.2c-24.1-4.5-14,11.1-13.5,13c-25.3-6.8-20.1,7.3-19,10.5c-18.2-2.6-39.6-2.1-56,6
	c-8.2,1.4-15.8,5.2-22.5,9.5c-2.1,0.9-4.2,2-6.2,3.1c-1.4-1-16.7-8.7,4.7-12.6c-16.3-6.6,0.4-13,2-14c-1.4-1.2-11.1-16.8,21.2-12.4
	c-12.9-2.7-20.8-18.8,4.5-14.9c0.2,0.1,0.398,0.1,0.6,0.2l0.102-0.2C316.8,142.7,304.2,128.2,332.5,134.5z"/>
<path fill="#FFFFFF" stroke="#000000" d="M428,438.9c2.2,1.398,5.1,2.1,6.5,4.5c-18.4,0.198-36.8,6.398-54.3,6.3
	c-2.3-2.102-4.3-5.9-8.102-4.602c-0.198,0.102-0.398,0.2-0.6,0.4c-1.9-1.6-1.1-4-2-6c0.2-0.1,0.4-0.2,0.6-0.4
	C389.4,438.8,408.8,439.1,428,438.9z"/>
<path fill="#FFFFFF" stroke="#000000" d="M397.5,453.4c1.8,1.198,1.4,3.6,1.5,5.5c-1.6,0-3.1,0.198-4,1c-1.2,0-2.4,0.198-2.8,0.1
	C392.4,457.1,395.2,455.1,397.5,453.4z"/>
<path fill="#FFFFFF" stroke="#000000" d="M369.5,439.5c0.9,2,0.1,4.4,2,6c-1.6,1.1-2.2,2-2.8,3.2C364.7,448,366.3,441.2,369.5,439.5
	z"/>
<path fill="#FFFFFF" stroke="#000000" d="M175.5,183.5c-8-5.2-15.4-11.7-21-19.5c-20.4-10.6-38.8-25.3-54.5-42
	c-18.2-12.8-39.1-22.1-54.7-38.3c-0.2-0.7-0.3-1.5,0-2.4C67.4,80.1,86.9,91,108,94C86.5,76.5,54,69.7,34.3,51.3
	c19.9-1.6,37,7.5,55.2,12.7c-14-16.1-33.1-29-47.1-44.7c15,2.2,29.9,11.8,47.3,21c25.5,13.5,49.1,26.4,77.5,38.5
	c12.8,5.5,27.7,11.3,40.3,11.7c-22.1-17.3-52.6-27.2-67-52.7c0.6-0.7-3.6-5.3-3-6c46.5,14.5,88.2,45.6,133.7,58.9
	c14.7,4.3,29.7,7.8,45,11c9.6,2,19.2,4.2,28.7,6.4l-0.102,0.3c-16.3,1.7-7,14.3-7,14.3v0.6c-7.8-0.4-18.898,0.6-5.3,11
	c-28.3-6.3-15.7,8.2-13.6,10.7l-0.102,0.2c-0.2-0.1-0.398-0.1-0.6-0.2c-25.3-3.9-17.4,12.2-4.5,14.9c-32.3-4.3-22.6,11.2-21.2,12.4
	c-1.6,1-18.3,7.4-2,14c-21.4,3.9-6.1,11.5-4.7,12.6c-4.8,2.6-9.3,5.7-13.3,9.4c-5.2,3.4-10.3,6.1-14.3,11c-17.1-5.3-38.9-12-55-20.3
	l0.1-0.3C193.3,195.3,183.9,190.4,175.5,183.5z"/>
<path fill="#FFFFFF" stroke="#000000" d="M96,443.9c-13.7,2.198-28.6,0.6-42.8,0.8c-0.3-0.3-0.7-0.602-1.1-0.8
	c-0.5-0.102-1-0.2-1.3-0.5c0.1-0.4,0.2-0.7,0.5-1.2c0.4-0.2,0.9-0.5,1.5-0.5c35.5-24.9,79.5-30.7,115.7-53.3
	c20.9-4.102,41.9-8,61.5-15.9c4.8-1.9,9.4-4.1,14-6.6c18,12.199,43.4,12.1,62.5,22.5C236.2,407,168.3,432.6,96,443.9z"/>
<path fill="#FFFFFF" stroke="#000000" d="M229,370l1,2.6c-19.6,8-40.6,11.801-61.5,15.9c-33.2,2.1-66.4,8.5-99.6,11.3
	c-0.1-0.8,1.6-1.8,2.3-2.6c23.8-12.3,47.6-30.7,75.3-30.7C172.2,375.5,202.1,376.5,229,370z"/>
<path fill="none" stroke="#000000" stroke-linecap="round" stroke-linejoin="round" d="M463.4,245.5c0.398-2.2,4.898-0.4,7-1"/>
<path fill="none" stroke="#000000" stroke-linecap="round" stroke-linejoin="round" d="M516.9,269c2.398,0.1,4-2,6-3"/>
<path fill="none" stroke="#000000" stroke-linecap="round" stroke-linejoin="round" d="M469.9,291c-5.602,1.3-9.5-3.3-11-8"/>
<path fill="none" stroke="#000000" stroke-linecap="round" stroke-linejoin="round" d="M512.2,301.8c2.2-0.5,5.398-0.8,6.8-2.8"/>
<path fill="none" stroke="#000000" stroke-linecap="round" stroke-linejoin="round" d="M434,305c3.6,1.9,7.2,3.6,11,5"/>
<path fill="none" stroke="#000000" stroke-linecap="round" stroke-linejoin="round" d="M484.9,317c2,0,4,0,6,0"/>
<path fill="none" stroke="#000000" stroke-linecap="round" stroke-linejoin="round" d="M404.2,150.2c13-2.6,26.2,2.9,38.8,5.8"/>
<path fill="none" stroke="#000000" stroke-linecap="round" stroke-linejoin="round" d="M403,157c8.7,2.6,17.5,5.3,26,8"/>
<path fill="none" stroke="#000000" stroke-linecap="round" stroke-linejoin="round" d="M389.6,170.5c7.102,1.9,14,4.4,21.4,5.5"/>
<path fill="none" stroke="#000000" stroke-linecap="round" stroke-linejoin="round" d="M370.5,180.5c5.9,3.6,14,4.9,18.5,10.5"/>
<path fill="none" stroke="#000000" stroke-linecap="round" stroke-linejoin="round" d="M314.5,186.5c20.6,1.2,40.6,6.6,59.5,14.5"/>
<path fill="none" stroke="#000000" stroke-linecap="round" stroke-linejoin="round" d="M292.3,196.7c23.5,0.1,45.2,7.2,65.7,16.3"/>
<path fill="none" stroke="#000000" stroke-linecap="round" stroke-linejoin="round" d="M272.5,208.5c25.6,0.2,49.3,8.3,72.5,17.5"/>
<path fill="none" stroke="#000000" stroke-linecap="round" stroke-linejoin="round" d="M258.2,219.5c26.1-2.5,49,8.7,71.8,19.5"/>
<path fill="none" stroke="#000000" stroke-linecap="round" stroke-linejoin="round" d="M234.5,251c25.3-2.8,49.4,7.6,71.5,17"/>
<path fill="none" stroke="#000000" stroke-linecap="round" stroke-linejoin="round" d="M226,266c20.2-5.7,39.8,5.1,58,13"/>
<path fill="none" stroke="#000000" stroke-linecap="round" stroke-linejoin="round" d="M219.5,282.5c15.8-3.2,33.4-1.4,48.5,3.5"/>
<path fill="none" stroke="#000000" stroke-linecap="round" stroke-linejoin="round" d="M207.5,90.5c32.1,17.5,65,33.8,100.5,42.5"/>
<path fill="none" stroke="#000000" stroke-linecap="round" stroke-linejoin="round" d="M89.5,64c62.1,35.7,126.3,70.4,196.5,85"/>
<path fill="none" stroke="#000000" stroke-linecap="round" stroke-linejoin="round" d="M108,94c54.3,29.7,107,68.5,170,73"/>
<path fill="none" stroke="#000000" stroke-linecap="round" stroke-linejoin="round" d="M100,122c52.4,27.4,107.2,49.4,166,57"/>
<path fill="none" stroke="#000000" stroke-linecap="round" stroke-linejoin="round" d="M154.5,164c35.3,14,72.9,21.7,111.5,22"/>
<path fill="none" stroke="#000000" stroke-linecap="round" stroke-linejoin="round" d="M176.1,183.1c28,8.6,58.1,9.9,87.8,11.9"/>
<path fill="none" stroke="#000000" stroke-linecap="round" stroke-linejoin="round" d="M175.5,183.5c23.1,18.9,53.1,23,82.5,24.5"/>
<path fill="none" stroke="#000000" stroke-linecap="round" stroke-linejoin="round" d="M267.5,302.5c16.1,3.1,34.6,4.4,50.5-1.5"/>
<path fill="none" stroke="#000000" stroke-linecap="round" stroke-linejoin="round" d="M244.3,310.7c28,2.1,57.2,1,84.7-2.7"/>
<path fill="none" stroke="#000000" stroke-linecap="round" stroke-linejoin="round" d="M183.5,343.5c61.8,5.6,126.1-1.5,187.5-6.5"
	/>
<path fill="none" stroke="#000000" stroke-linecap="round" stroke-linejoin="round" d="M146.5,366.5c25.7,9.1,55.6,10,82.5,3.5"/>
<path fill="none" stroke="#000000" stroke-linecap="round" stroke-linejoin="round" d="M372.5,324.5c5.5-3,12.4-4.6,16.5-9.5"/>
<path fill="none" stroke="#000000" stroke-linecap="round" stroke-linejoin="round" d="M394.5,329.5c8-4.9,17.6-8.3,24.5-14.5"/>
<path fill="none" stroke="#000000" stroke-linecap="round" stroke-linejoin="round" d="M418.2,333.2c7.6-1.3,16-5.101,19.8-12.3"/>
<path fill="none" stroke="#000000" stroke-linecap="round" stroke-linejoin="round" d="M435,338c6-2.5,13-4.8,17-10"/>
<path fill="none" stroke="#000000" stroke-linecap="round" stroke-linejoin="round" d="M153.2,421.2C189.6,409.6,220.8,391,255,378"
	/>
<path fill="none" stroke="#000000" stroke-linecap="round" stroke-linejoin="round" d="M249,235c25-3.4,48,9.5,70,19"/>
<path fill="none" stroke="#000000" stroke-linecap="round" stroke-linejoin="round" d="M343,124c12,5.1,24.7,9.7,37,14"/>
<path fill="none" stroke="#000000" stroke-linecap="round" stroke-linejoin="round" d="M332.5,134.5c11.8,5.1,24.9,9.2,36.5,13.5"/>
<path fill="none" stroke="#000000" stroke-linecap="round" stroke-linejoin="round" d="M318.2,145.2c12.3,4.7,25.1,11.8,38,13.7"/>
<path fill="none" stroke="#000000" stroke-linecap="round" stroke-linejoin="round" d="M316.5,160.5c11.8,1.5,23.6,4.7,34.5,7.5"/>
<path fill="none" stroke="#000000" stroke-linecap="round" stroke-linejoin="round" d="M292.5,172.5c10.7,3.9,22.5,2.5,33.5,4.5"/>
<path fill="none" stroke="#000000" stroke-linecap="round" stroke-linejoin="round" d="M290.5,186.5c1.7,0.9,7.6,0.2,9.4,0.4"/>
<path fill="none" stroke="#000000" stroke-linecap="round" stroke-linejoin="round" d="M172,355c75.2-0.2,151.5,2.1,224-9"/>
<path fill="none" stroke="#000000" stroke-linecap="round" stroke-linejoin="round" d="M440,275c-6.9-1.5-13.6-6.1-16-13"/>
<path fill="none" stroke="#000000" stroke-linecap="round" stroke-linejoin="round" d="M465.9,269c-4.102,0.2-8.302-2.3-10-6"/>
<path fill="none" stroke="#000000" stroke-linecap="round" stroke-linejoin="round" d="M499.6,269.6c-0.8,0.2-1.3,0.7-1.898,1.1
	c-5,0.9-10.3-0.7-13.8-3.8"/>
<path fill="none" stroke="#000000" stroke-linecap="round" stroke-linejoin="round" d="M404,270c0.7,3,3.7,4.5,5,7"/>
<path fill="none" stroke="#000000" stroke-linecap="round" stroke-linejoin="round" d="M386.9,286.7c-1-1.4-0.9-3.1-1-4.7"/>
<path fill="none" stroke="#000000" stroke-linecap="round" stroke-linejoin="round" d="M397,290c-3.7,0-6.7-2.1-10-3.3"/>
<path fill="none" stroke="#000000" stroke-linecap="round" stroke-linejoin="round" d="M484.9,297c2.5,4.9,9.6,4.9,14,3"/>
</svg>
