<?xml version="1.0" encoding="utf-8"?>
<!-- Generator: Adobe Illustrator 15.0.0, SVG Export Plug-In . SVG Version: 6.00 Build 0)  -->
<!DOCTYPE svg PUBLIC "-//W3C//DTD SVG 1.1//EN" "http://www.w3.org/Graphics/SVG/1.1/DTD/svg11.dtd">
<svg version="1.1" id="layer_x5F_www.ABC-color.com"
	 xmlns="http://www.w3.org/2000/svg" xmlns:xlink="http://www.w3.org/1999/xlink" x="0px" y="0px" width="822px" height="567px"
	 viewBox="0 0 822 567" enable-background="new 0 0 822 567" xml:space="preserve">
<g id="www.ABC-color.com">
	<g>
		<path fill="#FFFFFF" d="M559,260.6c0,0,47.699-20.8,53.1-9.8c0,0-10.1,82.2-61.1,104.2c0,0,0,30-47,66c0,0-7,7-26,11
			c-5.801,1.2-14,2.6-13,9c2.699,16.9,0.6,33.8-6.5,40.8c-3.801,3.7-8.9,4.602-15.4,1.3c-8.6-4.3-19.5-15.898-32.899-38
			c0-0.198-10.899-1.3-13.199-1.6H396.9c-0.101,0-0.2,0-0.301,0h-0.1c-0.101,0-16.4,25.5-29.4,28.5c0,0-2.5,0.1-6.199-0.2
			c0.101-0.2,0.101-0.5,0.199-0.8l-24-7c0,0-0.199,0.2-0.6,0.8c-5.2-3.398-9.101-8.398-9.4-15.8l-3-34c-14.5-6.8-43-54.4-36.2-56
			c0,0,50.3-14.4,45.4-29.3c0,0,2.8-3-22.7-34.8c0,0-17.6-27.7-67.7-26v-0.1c18.801-18.4-5.3-6.2-5.3-6.2s8.7-27.6,43.2-25.5
			c-8.6-0.7-59.2-5.7-53.9-25.2l-0.199-0.1c9.6-7.6,14.1-18.1,14.899-20.3c0.101-0.3,0.101-0.4,0.101-0.4l-0.7-2.3l-1.4-4.2
			c0,0-15.5-22.9-31.3-25.5c-1.7-2.6-29.9-48.7,29.3-95.9c21.2,8.6,48.5,2,48.5,2s10.5-2.6,24.8-1.9c36,1.6,95.8,23.5,71.101,157.8
			l0,0c0,0,0.1,0.2,0.199,0.3c2.7,3.9,5.801,7.3,9,10.2l0,0c12.101,12.7,34.7,33.2,60.899,39.9c0,0,11.601,2,27.5,2.8
			c2.601,0.1,5.4,0.2,8.2,0.3c18.399,0.4,40.399-1.3,56.8-8.8C553.3,261.8,559,260.6,559,260.6z M306.199,172.9
			c0-5.8-0.199-10.5-0.699-14.6c-1.2-10.1-3.801-16-7.5-22.2c-1.5-2.6-3.101-4.8-4.8-6.6c-0.9-2.5-13-12.5-12.101-12.7
			c5.7-1.2-7.1-12.7-7.1-12.7c-2.5,3.2-3.8,9.8-3.8,9.8c-4.301-1.5-3-17-3-17c-10.301,2.9-5.301,19-5,20.1
			c-9.2-4-5.601-27.1-5.601-27.1c-9.899,18.1-1.399,33.3-0.1,35.3c-1.8,1.5-3.4,3-4.5,4l0.1,0.1c-1.399,1.4-2.6,2.8-3.6,4.3
			c-2.601,3.5-4.101,7.9-4.101,12.7c0,2.5,0.4,4.9,1.2,7.1v0.1c2.3,9.4,9,23.6,11.2,26.4c6-4.8,18.4-14.9,46.6-8
			C303.4,172,304.5,172.3,306.199,172.9z"/>
		<path fill="#FFFFFF" d="M483,510c-4.801,6.5,47-5.9,47.699-5.3c-2.199,4-14.699,7.8-32.5,11.8c0.301-0.1,36.2,1.9,36.2,1.9
			c-2.2,5.898-35.2,3.8-39.5,4.6c0,0,39.699,9.8,27.199,10.7c-31.699,2.3-48.699-14.2-48.699-14.2
			c-15.101-9.7-27.801-31.5-30.5-36.4c6.5,3.302,11.699,2.302,15.399-1.3c-2,9.5,12.8,30.3,33.5,16.2C495,496,489.8,507,483,510z"/>
		<path fill="#FFFFFF" d="M499.8,245.5c4.5-3.2,25.7-18,21-5.3c0,0,15.7,11.2-32.8,34.4c-2.801-0.1-5.601-0.2-8.2-0.3
			c-15.899-0.8-27.5-2.8-27.5-2.8c-26.2-6.7-48.8-27.1-60.899-39.9c17.699,16.2,86.899,8,106.8-27.7c0,0,11.101,12.3,0.7,21.3
			c0,0,4.3,1.1,10.399-9C509.199,216.2,514,234.8,499.8,245.5z"/>
		<path fill="#FFFFFF" d="M337,464l24,7c0,0.3-0.101,0.5-0.2,0.8c-1.5,5.102-9.101,3.4-14.8,6.2c-14.101,7-17.801,34.2-17.801,34.2
			c8.5,10.398,3.801,16.5,3.801,16.5l-13.301-8.9c-0.5,12.9-9.5,12.5-9.5,12.5c-6.6,6.5-48.6,30-50.699,26.4
			c-2-3.5,26.3-20.5,28-21.5c-3.5,0.898-49.5,8.6-49.5,8.6c-1.601-6.8,45.8-16.7,45.8-16.7c-7.6-5.198-45.8,2-45.8,2
			c11.7-17.698,62.3-10.398,62.3-10.398c4.2-0.3,18.5-24.5,28.5-42.4c4.399-7.8,7.3-11.898,8.5-13.5C336.8,464.2,337,464,337,464z"
			/>
		<path fill="#FFFFFF" d="M333.199,329.7C338.1,344.6,287.8,359,287.8,359c-6.8,1.7-13.3,3.1-19.6,4.3
			c-26.2-2.2-22.9-13.2-22.9-13.2c-26.2,0.5-26.9-15.5-26.9-15.5C195,331.1,200,317.2,200,317.2c-16.3-5-5-18.9-5-18.9
			c-17-6-0.7-19.9-0.7-19.9L194,278c18.899-6.1,35.1-8.8,48.8-9.2c50.1-1.7,67.7,26,67.7,26C336,326.7,333.199,329.7,333.199,329.7z
			"/>
		<path fill="#FFFFFF" d="M310.9,63.1c-14.3-0.6-24.8,1.9-24.8,1.9s-27.3,6.6-48.5-2c-15.7-6.4-28-21-23.399-52.7
			c0,0,8.199,29.8,18.1,30.8c0,0-13.2-30.8,3.3-33.3c0,0,3.8,35,14.5,35.9c0,0-14.3-27.2-6.899-33.2c3.699-3,4.899-3.9,5.199-4.1
			L248,6.8c0,0,0.8,25.9,15.7,30.8c0,0-4.9-19.8,9.899-25.3C273.2,13.7,267.3,40.5,310.9,63.1z"/>
		<path fill="#FFFFFF" d="M305.5,158.3c0.5,4.1,0.699,8.9,0.699,14.6c-1.8-0.6-2.8-1-2.8-1c-28.199-6.9-40.5,3.3-46.6,8
			c-2.2-2.8-8.9-17-11.2-26.4c2.7,7.7,9.601,13.2,17.7,13.2c10.5,0,19-9.1,19-20.4c0-11.3-8.5-20.4-19-20.4c-6,0-11.3,3-14.8,7.7
			c1-1.5,2.2-3,3.6-4.3c4.101-3.9,10.101-7.4,18.7-10.1c0,0,12.2-1,22.4,10.2c1.699,1.9,3.3,4,4.8,6.6
			C301.6,142.3,304.3,148.2,305.5,158.3z"/>
		<path fill="#FFFFFF" d="M274.1,104.1c0,0,12.7,11.5,7.101,12.7c-1,0.2,11.1,10.2,12.1,12.7c-10.2-11.2-22.4-10.2-22.4-10.2
			c-8.6,2.7-14.6,6.2-18.699,10.1l-0.101-0.1c1.101-1.1,2.601-2.5,4.5-4c-1.2-2-9.7-17.3,0.101-35.3c0,0-3.5,23,5.6,27.1
			c-0.3-1.1-5.3-17.2,5-20.1c0,0-1.3,15.5,3,17C270.3,113.9,271.6,107.4,274.1,104.1z"/>
		<path fill="#FFFFFF" d="M263.3,126c10.5,0,19,9.1,19,20.4c0,11.2-8.5,20.4-19,20.4c-8.1,0-15-5.4-17.7-13.2v-0.1
			c-0.899-3.7-1.2-7.5-0.5-11.3c0.5-2.9,1.601-5.8,3.4-8.4C252,129,257.3,126,263.3,126z M266.2,144.7c0-1.1-0.101-2.2-0.4-3.2
			l-6.3,0.7l5.1-3.5c-1.5-2.5-3.899-4.2-6.6-4.2c-4.5,0-8.2,4.6-8.2,10.2c0,5.6,3.6,10.2,8.2,10.2
			C262.5,154.8,266.2,150.3,266.2,144.7z"/>
		<path fill="#FFFFFF" d="M265.7,141.4c0.3,1,0.399,2.1,0.399,3.2c0,5.6-3.6,10.2-8.1,10.2s-8.2-4.6-8.2-10.2s3.6-10.2,8.2-10.2
			c2.7,0,5.1,1.7,6.6,4.2l-5.1,3.5L265.7,141.4z"/>
		<path fill="#FFFFFF" d="M268.2,363.3c-3.2,0.601-6.4,1.101-9.4,1.7c-76.2,12.3-113.4-8.2-113.4-8.2s-29.1-4.5,3.5-6.2
			c9.9-0.5,49.601-6.398,49.601-6.398c-30.5,1.5-36.101,0.699-45.3,2C109.4,352.1,100.4,321.1,100.4,321.1
			c38.5,11.602,56.301-0.699,57.101-1.3c-8.5,4-34,1-36.101,0.5C92.2,313.5,96.6,296.9,96.6,296.9c40.4,10,85-14.4,85-14.4
			c4.3-1.6,8.5-3.1,12.5-4.4l0.2,0.4c0,0-16.3,13.9,0.7,19.9c0,0-11.3,13.898,5,18.898c0,0-5,13.9,18.399,17.4
			c0,0,0.7,15.898,26.9,15.5C245.3,350,242,361.1,268.2,363.3z"/>
		<path fill="#FFFFFF" d="M241.4,191c0,0.1,0.101,0.3,0.101,0.4c-0.9,2.3-5.3,12.7-14.9,20.3c-6.399,5.1-15.2,8.8-26.7,8.1
			c0,0-19.1-1,3.5-28.8l0.101-0.3c2.7,0.6,5.6,1.1,8.399,1.6l-0.1,0.2c0,0-12.8,19.4-1.4,16.9c0,0,9.101-5.9,16.2-16.3
			C231.6,192.8,236.5,192.2,241.4,191z"/>
		<path fill="#FFFFFF" d="M241,188.6c0.1,0.8,0.2,1.5,0.5,2.4c-4.9,1.3-9.8,1.9-14.7,2c-5,0.2-10-0.2-14.7-0.8
			c-2.899-0.4-5.7-1-8.399-1.6C180.5,185.2,163,173,163,173c6.399-9.4,39-13.9,39-13.9c2.1-0.5,4.2-0.5,6.3-0.1
			c15.8,2.6,31.3,25.5,31.3,25.5L241,188.6z"/>
		<path fill="#FFFFFF" d="M212,192.2c4.8,0.7,9.7,1,14.7,0.8c-7.101,10.4-16.2,16.3-16.2,16.3c-11.4,2.5,1.399-16.9,1.399-16.9
			L212,192.2z"/>
	</g>
	<g>
		<path fill="none" stroke="#000000" stroke-miterlimit="10" d="M458.5,481.8c-2,9.5,12.8,30.3,33.5,16.2c3-2-2.2,9-9,12
			c-4.801,6.5,47-5.9,47.699-5.3c-2.199,4-14.699,7.8-32.5,11.8c0.301-0.1,36.2,1.9,36.2,1.9c-2.2,5.898-35.2,3.8-39.5,4.6
			c0,0,39.699,9.8,27.199,10.7c-31.699,2.3-48.699-14.2-48.699-14.2c-15.101-9.7-27.801-31.5-30.5-36.4"/>
		<path fill="none" stroke="#000000" stroke-miterlimit="10" d="M391.3,231.6c17.7,16.2,86.899,8,106.8-27.7
			c0,0,11.101,12.3,0.7,21.3c0,0,4.3,1.1,10.399-9c0,0,4.899,18.6-9.399,29.3c4.5-3.2,25.7-18,21-5.3c0,0,15.7,11.2-32.8,34.4"/>
		<path fill="none" stroke="#000000" stroke-miterlimit="10" d="M310.9,63.1c36,1.6,95.8,23.5,71.101,157.8l0,0
			c0,0,0.1,0.2,0.199,0.3c2.7,3.9,5.801,7.3,9,10.2l0,0c12.101,12.7,34.7,33.2,60.899,39.9c0,0,11.601,2,27.5,2.8
			c2.601,0.1,5.4,0.2,8.2,0.3c18.399,0.4,40.399-1.3,56.8-8.8c8.601-4,14.301-5.1,14.301-5.1s47.699-20.8,53.101-9.8
			c0,0-10.101,82.2-61.101,104.2c0,0,0,30-47,66c0,0-7,7-26,11c-5.801,1.198-14,2.6-13,9c2.699,16.898,0.601,33.8-6.5,40.8
			c-3.801,3.7-8.899,4.6-15.399,1.3c-8.601-4.3-19.5-15.9-32.9-38c0-0.2-10.899-1.3-13.199-1.6h-0.101c-0.101,0-0.2,0-0.3,0H396.4
			c-0.101,0-16.399,25.5-29.399,28.5c0,0-2.5,0.1-6.2-0.2c0.101-0.2,0.101-0.5,0.2-0.8"/>
		<path fill="none" stroke="#000000" stroke-miterlimit="10" d="M208.4,159c-1.699-2.6-29.899-48.7,29.301-95.9"/>
		<path fill="none" stroke="#000000" stroke-miterlimit="10" d="M241.6,191.3c0.101-0.3,0.101-0.4,0.101-0.4l-0.7-2.3"/>
		<path fill="none" stroke="#000000" stroke-miterlimit="10" d="M242.8,268.8v-0.1c18.8-18.4-5.3-6.2-5.3-6.2s8.7-27.6,43.2-25.5
			c-8.601-0.7-59.2-5.7-53.9-25.2l-0.2-0.1"/>
		<path fill="none" stroke="#000000" stroke-miterlimit="10" d="M337,464c0,0-0.2,0.2-0.601,0.8c-5.2-3.398-9.101-8.398-9.399-15.8
			l-3-34c-14.5-6.8-43-54.4-36.2-56"/>
		<line fill="none" stroke="#000000" stroke-miterlimit="10" x1="361" y1="471" x2="337" y2="464"/>
		<path fill="none" stroke="#000000" stroke-miterlimit="10" d="M248.5,133.7c-2.601,3.5-4.101,7.9-4.101,12.7
			c0,2.5,0.4,4.9,1.2,7.1"/>
		<path id="ABC-color.com" fill="none" stroke="#000000" stroke-miterlimit="10" d="M360.8,471.8c-1.5,5.102-9.101,3.4-14.8,6.2
			c-14.101,7-17.801,34.2-17.801,34.2c8.5,10.398,3.801,16.5,3.801,16.5l-13.301-8.9c-0.5,12.9-9.5,12.5-9.5,12.5
			c-6.6,6.5-48.6,30-50.699,26.4c-2-3.5,26.3-20.5,28-21.5c-3.5,0.898-49.5,8.6-49.5,8.6c-1.601-6.8,45.8-16.7,45.8-16.7
			c-7.6-5.198-45.8,2-45.8,2c11.7-17.698,62.3-10.398,62.3-10.398c4.2-0.3,18.5-24.5,28.5-42.4c4.399-7.8,7.3-11.898,8.5-13.5"/>
		<path fill="none" stroke="#000000" stroke-miterlimit="10" d="M194,278c18.899-6.1,35.1-8.8,48.8-9.2c50.1-1.7,67.7,26,67.7,26
			c25.5,31.9,22.699,34.8,22.699,34.8C338.1,344.5,287.8,358.9,287.8,358.9c-6.8,1.699-13.3,3.1-19.6,4.3"/>
		<path fill="none" stroke="#000000" stroke-miterlimit="10" d="M237.6,63.1c-15.7-6.4-28-21-23.399-52.7c0,0,8.199,29.8,18.1,30.8
			c0,0-13.2-30.8,3.3-33.3c0,0,3.8,35,14.5,35.9c0,0-14.3-27.2-6.899-33.2c3.699-3,4.899-3.9,5.199-4.1L248,6.9
			c0,0,0.8,25.9,15.7,30.8c0,0-4.9-19.8,9.899-25.3c-0.5,1.3-6.399,28.1,37.3,50.8c-14.3-0.6-24.8,1.9-24.8,1.9
			S258.8,71.7,237.6,63.1z"/>
		<path fill="none" stroke="#000000" stroke-miterlimit="10" d="M245.6,153.6v-0.1c-0.899-3.7-1.2-7.5-0.5-11.3
			c0.5-2.9,1.601-5.8,3.4-8.4"/>
		<path fill="none" stroke="#000000" stroke-miterlimit="10" d="M258,154.8c-4.5,0-8.2-4.6-8.2-10.2s3.6-10.2,8.2-10.2
			c2.7,0,5.1,1.7,6.6,4.2l-5.1,3.5l6.3-0.7c0.3,1,0.4,2.1,0.4,3.2C266.2,150.3,262.5,154.8,258,154.8z"/>
		<path fill="none" stroke="#000000" stroke-miterlimit="10" d="M252.1,129.4l-0.1-0.1c1.1-1.1,2.6-2.5,4.5-4
			c-1.2-2-9.7-17.3,0.1-35.3c0,0-3.5,23,5.601,27.1c-0.301-1.1-5.301-17.2,5-20.1c0,0-1.301,15.5,3,17c0,0,1.3-6.5,3.8-9.8
			c0,0,12.7,11.5,7.1,12.7c-1,0.2,11.101,10.2,12.101,12.7"/>
		<path fill="none" stroke="#000000" stroke-miterlimit="10" d="M252.1,129.4c4.101-3.9,10.101-7.4,18.7-10.1c0,0,12.2-1,22.4,10.2
			c1.699,1.9,3.3,4,4.8,6.6c3.6,6.2,6.199,12.1,7.5,22.2c0.5,4.1,0.699,8.9,0.699,14.6c-1.8-0.6-2.8-1-2.8-1
			c-28.199-6.9-40.5,3.3-46.6,8c-2.2-2.8-8.9-17-11.2-26.4c2.7,7.7,9.601,13.2,17.7,13.2c10.5,0,19-9.1,19-20.4
			c0-11.3-8.5-20.4-19-20.4c-6,0-11.3,3-14.8,7.7C249.5,132.2,250.7,130.8,252.1,129.4z"/>
		<path fill="none" stroke="#000000" stroke-miterlimit="10" d="M268.2,363.3c-3.2,0.601-6.4,1.101-9.4,1.7
			c-76.2,12.3-113.4-8.2-113.4-8.2s-29.1-4.5,3.5-6.2c9.9-0.5,49.601-6.398,49.601-6.398c-30.5,1.5-36.101,0.699-45.3,2
			C109.4,352.1,100.4,321.1,100.4,321.1c38.5,11.602,56.301-0.699,57.101-1.3c-8.5,4-34,1-36.101,0.5
			C92.2,313.5,96.6,296.9,96.6,296.9c40.4,10,85-14.4,85-14.4c4.3-1.6,8.5-3.1,12.5-4.4l0.2,0.4c0,0-16.3,13.9,0.7,19.9
			c0,0-11.3,13.898,5,18.898c0,0-5,13.9,18.399,17.4c0,0,0.7,15.898,26.9,15.5C245.3,350,242,361.1,268.2,363.3z"/>
		<path fill="none" stroke="#000000" stroke-miterlimit="10" d="M203.6,190.6C180.5,185.2,163,173,163,173
			c6.399-9.4,39-13.9,39-13.9c2.1-0.5,4.2-0.5,6.3-0.1c15.8,2.6,31.3,25.5,31.3,25.5l1.4,4.2c0.1,0.8,0.2,1.5,0.5,2.4"/>
		<path fill="none" stroke="#000000" stroke-miterlimit="10" d="M212,192.2c4.8,0.7,9.7,1,14.7,0.8"/>
		<path fill="none" stroke="#000000" stroke-miterlimit="10" d="M212,192.2l-0.101,0.2c0,0-12.8,19.4-1.399,16.9
			c0,0,9.1-5.9,16.2-16.3c4.899-0.2,9.8-0.8,14.699-2c0,0.1,0.101,0.3,0.101,0.4c-0.9,2.3-5.3,12.7-14.9,20.3
			c-6.399,5.1-15.2,8.8-26.7,8.1c0,0-19.1-1,3.5-28.8l0.101-0.3C206.3,191.2,209.2,191.7,212,192.2z"/>
	</g>
</g>
</svg>
