<?xml version="1.0" encoding="utf-8"?>
<!-- Generator: Adobe Illustrator 15.0.0, SVG Export Plug-In . SVG Version: 6.00 Build 0)  -->
<!DOCTYPE svg PUBLIC "-//W3C//DTD SVG 1.1//EN" "http://www.w3.org/Graphics/SVG/1.1/DTD/svg11.dtd">
<svg version="1.1" id="layer_x5F_www.ABC-color.com"
	 xmlns="http://www.w3.org/2000/svg" xmlns:xlink="http://www.w3.org/1999/xlink" x="0px" y="0px" width="822px" height="567px"
	 viewBox="0 0 822 567" enable-background="new 0 0 822 567" xml:space="preserve">
<path fill="#FFFFFF" stroke="#000000" stroke-miterlimit="10" d="M358.5,391.4L358.5,391.4C373,389,389.199,383.1,407,372
	c0,0,38-24,36-52c0,0-8-65-140-28c0,0-2.801,1.2-6.8,3.6c-12.8,1.801-54.6,6.9-67.2-1.6c0,0-10.101,7.7,4.1,16.5
	c0,0-22.1-3.5-22.1,3.5c0,0,3,11.3,19.899,20.4C215.3,332.9,211,344,211,344c4.5,8.2,15.3,13.3,27.1,16.5L238,361c-9,0-6,12-6,12
	c3.7,4.9,15.2,7,27.399,7.7C254,382.9,251,389,251,389C253.7,408.1,342.5,394.1,358.5,391.4z M503,388c-1,21-64,51-64,51
	c-9.801,2.3-19.101,4.3-28,5.8c-31,5.3-56.9,6-78.601,3.8c-13.301-1.3-25-3.8-35.3-6.8C248.7,427.2,233,398,233,398
	c-49-59.5-50-108.4-42.4-138.8c0.7-2.9,8.4,18.8,2.4-8.2c-0.5-2.2,1.399-4.1,2.2-5.9c5.1-13,10.899-20.1,10.899-20.1
	c23,39,55,42,55,42c95,9,137-30,137-30l0,0c3.5,1.5,7.101,2.8,11,4c0,0,90.899,21.4,125.801-7.3C625.3,317.4,503,388,503,388z"/>
<path fill="#FFFFFF" stroke="#000000" stroke-miterlimit="10" d="M503,133c17.1,0,31,11.9,31,26.5S520.1,186,503,186
	c-17.101,0-31-11.9-31-26.5S485.9,133,503,133z M526,159.5c0-9.7-8.7-17.5-19.5-17.5c-10.801,0-19.5,7.8-19.5,17.5
	s8.699,17.5,19.5,17.5C517.3,177,526,169.2,526,159.5z"/>
<path id="ABC-color.com" fill="#FFFFFF" stroke="#000000" stroke-miterlimit="10" d="M506.5,142c10.8,0,19.5,7.8,19.5,17.5
	s-8.7,17.5-19.5,17.5c-10.801,0-19.5-7.8-19.5-17.5S495.699,142,506.5,142z M516,160c0-5.5-4.301-10-9.5-10c-5.2,0-9.5,4.5-9.5,10
	s4.3,10,9.5,10C511.699,170,516,165.5,516,160z"/>
<path fill="#FFFFFF" stroke="#000000" stroke-miterlimit="10" d="M506.5,150c5.3,0,9.5,4.5,9.5,10s-4.301,10-9.5,10
	c-5.2,0-9.5-4.5-9.5-10S501.3,150,506.5,150z"/>
<path fill="#FFFFFF" stroke="#000000" stroke-miterlimit="10" d="M572.5,165.2c2.699,1.3,4.5,2.8,4.5,2.8c5,4,16,7,16,7
	c24,4,11,21,11,21c-9,4-53,21-53,21c-1.801,0.1-3.4,0-4.801-0.4C535.1,213.8,532,199,532,199c0-7,22-30,22-30
	C559.199,160.5,567.5,162.7,572.5,165.2z"/>
<path fill="#FFFFFF" stroke="#000000" stroke-miterlimit="10" d="M438.4,447.8L438,448c4,11-2,18-2,18c-8.7,10.5-27.4,1.1-32-1.4
	c6.3-8.198,7-19.6,7-19.6v-0.2c8.899-1.5,18.3-3.398,28-5.8C439,439,436,444.4,438.4,447.8z"/>
<path fill="#FFFFFF" stroke="#000000" stroke-miterlimit="10" d="M442,450c0,0,74,0,67,16c0,0-14,5-27,5c0,0,38,0.4,22,14
	c-4.801,4.1-14,3-21,1c0,0,14,8,12,19c0,0,0,0-40-7c0,0-54-3-59-18c-2-4,2-10,2-10c2.5-1.4,4.399-3.3,6-5.4
	c4.6,2.5,23.199,11.9,32,1.4c0,0,6-7,2-18l0.399-0.2C439.1,448.8,440.199,449.6,442,450z"/>
<path fill="#FFFFFF" stroke="#000000" stroke-miterlimit="10" d="M295,457l-2,18c0,0,28,17,38-9c6,1,34,6,57,16c0,0,1,9-18,10
	c0,0,20,5,20,16c0,0-16,4-26-2c0,0,12,16,3,17c0,0-31-2-65-14c0,0-10-3-20-18c-5.101-7.7-8-26,11-29l1-5.2L295,457z"/>
<path fill="#FFFFFF" stroke="#000000" stroke-miterlimit="10" d="M297.1,441.7c10.2,3.1,21.9,5.5,35.3,6.8
	c-1.801,4.4-6.301,16.6-1.399,17.5c-10,26-38,9-38,9l2-18l-1-0.2L297.1,441.7z"/>
<path fill="#FFFFFF" stroke="#000000" stroke-miterlimit="10" d="M296.2,379c14.199,8.8,35.3,16.7,62.3,12.3v0.101
	C342.5,394.1,253.7,408.1,251,389c0,0,3-6.1,8.399-8.3C276.9,381.7,296,380,296,380L296.2,379z"/>
<path fill="#FFFFFF" stroke="#000000" stroke-miterlimit="10" d="M259.4,380.7c-12.2-0.7-23.7-2.8-27.4-7.7c0,0-3-12,6-12l0.1-0.5
	c17,4.6,36.101,5.3,41.4,5.4c3.6,3.5,9.1,8.398,16.6,13l-0.2,1C296,380,277,381.7,259.4,380.7z"/>
<path fill="#FFFFFF" stroke="#000000" stroke-miterlimit="10" d="M275,361c0,0,1.5,2,4.6,5c-5.3-0.1-24.399-0.8-41.399-5.4
	C226.4,357.4,215.5,352.2,211.1,344.1c0,0,4.3-11.1,19.9-9.6c8.6,4.6,20.7,8.7,37.899,10.5C269.8,349.9,271.8,355.3,275,361z"/>
<path fill="#FFFFFF" stroke="#000000" stroke-miterlimit="10" d="M230.9,334.4C214,325.3,211,314,211,314c0-7,22.1-3.5,22.1-3.5
	c6.3,3.8,17.3,7.9,35.9,11.5l1.7,0.7c-2.601,6.399-3.601,13.8-1.9,22.1C251.6,343.1,239.5,339,230.9,334.4z"/>
<path fill="#FFFFFF" stroke="#000000" stroke-miterlimit="10" d="M296.2,295.6c-7.8,4.601-20.1,13.7-25.6,27.2L269,322
	c-18.601-3.7-29.601-7.7-35.9-11.5c-14.3-8.7-4.1-16.5-4.1-16.5C241.6,302.4,283.4,297.4,296.2,295.6z"/>
<path fill="#FFFFFF" stroke="#000000" stroke-miterlimit="10" d="M296.2,295.6c3.999-2.398,6.8-3.6,6.8-3.6c132-37,140,28,140,28
	c2,28-36,52-36,52c-17.801,11.1-34,17-48.5,19.3c-27,4.3-48.101-3.5-62.3-12.3c-7.5-4.6-13-9.5-16.601-13c-3-3-4.6-5-4.6-5
	c-3.2-5.7-5.2-11.1-6.3-16.1C267,336.5,268.1,329.1,270.6,322.8C276.1,309.2,288.5,300.2,296.2,295.6z"/>
<path id="www.ABC-color.com" fill="#FFFFFF" stroke="#000000" stroke-miterlimit="10" d="M534.8,233.7C499.9,262.4,409,241,409,241
	c-3.9-1.2-7.5-2.6-11-4c-79.9-33.7-67-131-67-131c-20-15-16-46-16-46c12,13,37,18,37,18l-3-2c3,2,30-24,30-24c70-62,156-9,156-9
	c86.5,46.1,43,114.3,37.5,122.2c-5.101-2.5-13.301-4.7-18.5,3.8c0,0-22,23-22,30c0,0,3.1,14.8,14.199,17.6L546,218
	C543.699,224.4,539.8,229.6,534.8,233.7z M534,159.5c0-14.6-13.9-26.5-31-26.5c-17.101,0-31,11.9-31,26.5s13.9,26.5,31,26.5
	S534,174.1,534,159.5z"/>
<path fill="none" stroke="#000000" stroke-miterlimit="10" d="M352,97c0,0-16,0-27-13"/>
<g>
	<path d="M459.3,142c1.8-2.4,3.8-4.6,5.8-6.8c2.101-2.2,4.2-4.2,6.5-6.2c2.301-2,4.7-3.8,7.2-5.6c2.5-1.7,5.101-3.3,7.899-4.7
		c2.7-1.4,5.601-2.7,8.601-3.7s6.2-1.6,9.399-1.5c6.399,0,12.899,2,17.5,6.2l-0.3,0.5c-3-0.5-5.9-0.9-8.7-1
		c-2.8-0.1-5.601,0-8.3,0.3c-2.7,0.3-5.4,0.8-8.101,1.3s-5.5,1.3-8.101,2.3c-2.601,1.1-5.2,2.3-7.8,3.7c-2.5,1.4-5,2.9-7.4,4.5
		c-4.899,3.2-9.399,7-13.699,11L459.3,142z"/>
</g>
<g>
	<path d="M533,194.5c11.1,0.8,22.3,1.4,33.5,1.9c5.6,0.3,11.199,0.5,16.699,0.6c5.601,0.1,11.2,0.2,16.801,0
		c-5.601,0.3-11.2,0.3-16.801,0.3c-5.601-0.1-11.199-0.2-16.8-0.4c-11.2-0.3-22.301-0.8-33.5-1.4L533,194.5z"/>
</g>
<g>
	<path d="M502.1,387.5c-2.899,0.3-5.8,0.3-8.699,0.2c-2.899-0.101-5.801-0.3-8.601-0.8s-5.7-1.2-8.3-2.4c-2.601-1.2-5.101-3-6.4-5.6
		c1.4,2.5,3.9,4.199,6.5,5.3c2.601,1.1,5.5,1.7,8.301,2.1c2.8,0.4,5.699,0.5,8.601,0.5c2.899,0,5.699-0.2,8.6-0.5L502.1,387.5
		L502.1,387.5z"/>
</g>
</svg>
