<?xml version="1.0" encoding="utf-8"?>
<!-- Generator: Adobe Illustrator 15.0.0, SVG Export Plug-In . SVG Version: 6.00 Build 0)  -->
<!DOCTYPE svg PUBLIC "-//W3C//DTD SVG 1.1//EN" "http://www.w3.org/Graphics/SVG/1.1/DTD/svg11.dtd">
<svg version="1.1" id="layer_x5F_www.ABC-color.com"
	 xmlns="http://www.w3.org/2000/svg" xmlns:xlink="http://www.w3.org/1999/xlink" x="0px" y="0px" width="822px" height="567px"
	 viewBox="0 0 822 567" enable-background="new 0 0 822 567" xml:space="preserve">
<rect display="none" fill="#FFFFFF" width="822" height="567"/>
<path fill="#FFFFFF" stroke="#000000" stroke-miterlimit="10" d="M797.1,126.2c-9.198,0-59.1,0-59.1,0c-4.8-17,5-21.6,15.8-22.3
	C760.2,105.2,797.1,126.2,797.1,126.2z"/>
<path fill="#FFFFFF" stroke="#000000" stroke-miterlimit="10" d="M665.3,156.8c-73.398-3.4-90.2-70.1-91.3-77.9l-0.8-0.8
	c1.1-1,2.3-2.1,3.398-3.1C703.9-44.9,762.1,103.3,753.8,103.9c-10.7,0.7-20.6,5.3-15.8,22.3l-15.3,23l-0.7-0.5
	C700.1,155.3,681.4,157.5,665.3,156.8z M717.1,78.9c0-5.1-6.8-9.2-15.1-9.2s-15.1,4.1-15.1,9.2s6.8,9.2,15.1,9.2
	S717.1,84,717.1,78.9z"/>
<path fill="#FFFFFF" stroke="#000000" stroke-miterlimit="10" d="M722.8,149.1l-3.1,4.6c-18.5,74.7-68.9,121.1-112.8,148.5
	L606.8,302c46.3-37.8,57.2-132,58.5-145.3c16.102,0.7,34.8-1.5,56.7-8.1L722.8,149.1z"/>
<path fill="#FFFFFF" stroke="#000000" stroke-miterlimit="10" d="M707.9,73.7c4.3,0,7.898,2.6,7.898,5.9c0,3.3-3.5,5.9-7.898,5.9
	c-4.302,0-7.9-2.6-7.9-5.9C700,76.3,703.5,73.7,707.9,73.7z"/>
<path fill="#FFFFFF" stroke="#000000" stroke-miterlimit="10" d="M702,69.7c8.3,0,15.1,4.1,15.1,9.2s-6.8,9.2-15.1,9.2
	s-15.1-4.1-15.1-9.2C686.9,73.9,693.6,69.7,702,69.7z M715.8,79.6c0-3.3-3.5-5.9-7.898-5.9c-4.302,0-7.9,2.6-7.9,5.9
	c0,3.3,3.5,5.9,7.9,5.9C712.2,85.5,715.8,82.9,715.8,79.6z"/>
<path fill="#FFFFFF" stroke="#000000" stroke-miterlimit="10" d="M523.4,368.4c-4.5,3.398-12,2.5-17.7,1.5c-2.8-0.5-5.2-1-6.602-1
	c-5.3,0-9.198-27.602-9.198-27.602l-40,36.5L445.3,382c0,0-2.1,1-5.2,1.4c-6.5,0.8-17.5-0.7-23.698-18.4
	c-9.2-26.3,11.8-35.4,11.8-35.4C367.8,313.8,325.8,258.7,325.8,258.7l-0.1-1.5L532,246.9c0,0,2.8-1.1,7.4-3.1
	c30.3-13.6,136.1-69.4-27.102-124.2L512,119c21.7-10.7,42.4-23.9,61.2-40.9l0.8,0.8c1.1,7.8,17.9,74.5,91.3,77.9
	c-1.3,13.3-12.2,107.5-58.5,145.3l0.102,0.2c-40.2,25-74.9,34-74.9,34s-1.3,15.8-5.3,27.601C526,365.8,524.9,367.3,523.4,368.4z"/>
<path fill="#FFFFFF" stroke="#000000" stroke-miterlimit="10" d="M588.4,407c7.898,5.3,26.3,17.1,21,14.4
	C603.3,418.3,596.3,418.8,574,413.5c-3.3-0.8,20.3,22.9,21,23.6c-0.7-0.398-23.2-13.1-27.5-15.698c-17.7-10.802,0,15.8,0,15.8
	l-21.7-17.5L501.9,422.1l38.1-12.5L505.9,369.9c5.698,0.898,13.1,1.8,17.698-1.5l32.2,38.6C555.6,407,579.2,400.9,588.4,407z"/>
<path fill="#FFFFFF" stroke="#000000" stroke-miterlimit="10" d="M539.3,243.1c-13.5,2.2-30.898-16.4-46.398-38.3
	c-6-8.5-11.802-17.6-16.9-26.1c-10.4-17.4-18.2-32.7-20.4-37.2c19.102-6.2,38.102-13.4,56.4-22.4l0.3,0.6
	c163.2,54.8,57.4,110.6,27.102,124.2L539.3,243.1z"/>
<path fill="#FFFFFF" stroke="#000000" stroke-miterlimit="10" d="M550.4,451.7L528.1,445.1L514.2,443.4l15.3,21.398l-28.9-21
	c0,0-3.898,7.9-27.6,10.5c-9.4,1,13.7-6.3,15.8-11.8c3.9-10.5,3.9-10.5,3.9-10.5l-52.4-48.5c3.102-0.399,5.2-1.399,5.2-1.399
	l4.6-4.199l54.5,52.8l34.7,11.398L550.4,451.7z"/>
<path fill="#FFFFFF" stroke="#000000" stroke-miterlimit="10" d="M539.3,243.1l0.102,0.7c-4.602,2-7.4,3.1-7.4,3.1l-206.1,10.3
	l-82.602,4.1l-5.3-7.9c3.5-9.7,8.1-18.3,13.7-25.9c2.3-3.1,4.8-6.1,7.4-9l0.4,0.4c31.5-1.6,141.4,12.5,233.1-14.1l0.302-0.2
	C508.4,226.7,525.8,245.3,539.3,243.1z"/>
<path fill="#FFFFFF" stroke="#000000" stroke-miterlimit="10" d="M492.9,204.8L492.6,205C401,231.5,291,217.4,259.5,219l-0.4-0.4
	c5.3-5.7,11.2-10.8,17.7-15.4c4.7-3.3,9.7-6.4,14.9-9.3c3.1-1.7,6.3-3.3,9.5-4.9c3.899,0,139.7,11.3,174.8-10.5
	C481.1,187.2,486.8,196.2,492.9,204.8z"/>
<path fill="#FFFFFF" stroke="#000000" stroke-miterlimit="10" d="M455.6,141.4c2.302,4.5,10,19.8,20.4,37.2
	c-35.1,21.8-170.9,10.5-174.8,10.5C343.6,168.9,399.9,159.5,455.6,141.4z"/>
<path fill="#FFFFFF" stroke="#000000" stroke-miterlimit="10" d="M291.7,194c-5.3,2.9-10.2,6-14.9,9.3l-0.7-1
	c0,0-245.1-27.8-254.4-54.9c4.5-12.4,15.1-20.9,32.5-14.7C71.6,138.9,291.7,194,291.7,194z"/>
<path fill="#FFFFFF" stroke="#000000" stroke-miterlimit="10" d="M276.1,202.3l0.7,1c-6.5,4.6-12.4,9.7-17.7,15.4
	c-2.6,2.8-5.1,5.8-7.4,9l0,0c0,0-189.5-25.3-215.8-34.5c-15-5.3-20.2-29-14.2-45.7C30.9,174.5,276.1,202.3,276.1,202.3z"/>
</svg>
