<?xml version="1.0" encoding="utf-8"?>
<svg version="1.2" xmlns="http://www.w3.org/2000/svg" width="822px" height="567px" viewBox="0 0 822 567">
<title>Coloring pigeon</title><desc>Vector coloring pigeon</desc><text x="30" y="550" font-size="12">www.ABC-COLOR.COM</text>
<g id="FON">
	<rect x="0" y="0" fill="#FFFFFF" width="822" height="567"/>
</g>
<g fill="#FFFFFF" stroke="#000000">
<path d="M251.1,45.1c8.5,0,15.4,6.6,15.4,14.8c0,8.1-6.9,14.8-15.4,14.8	c-8.5,0-15.4-6.6-15.4-14.8C235.7,51.8,242.6,45.1,251.1,45.1z M258.2,59.9c0-3.8-3.2-6.8-7.2-6.8s-7.1,3.1-7.1,6.8	c0,3.8,3.2,6.9,7.1,6.9C255,66.7,258.2,63.6,258.2,59.9z"/>
<path d="M217.5,74.6c3.3-0.2,5.2,0,5.2,0c-8.2,3.9-11.9,13.1-11.9,13.1	c-14.1-4.5-37.7,2.7-38.8,3.1C191.7,77.7,209.3,75,217.5,74.6z"/>
<path d="M217.5,74.6L217.5,74.6c-8.3,0.5-25.8,3.1-45.5,16.2l0,0c0,0,9.1-18.2,25.4-25.5	C205.7,68.1,216.9,74.3,217.5,74.6z"/>
<path d="M222.7,74.6c0,0-1.8-0.2-5.2,0l0,0c-0.6-0.7-9.3-10.3-16.6-14.7c0,0,0.3-7.1,4.7-7.1	c0.5,0,1,0.1,1.5,0.3C212.8,54.8,222.3,67.9,222.7,74.6z"/>
<path d="M692.1,479.1c15.7,17.7-22.5,62.9-70.9,63.5c-23.6,0.3-45.2-5.5-63.8-14	c5.2-1.5,10.5-2.2,13.6-2.1c10.1,0.3,31.5,7.4,37.9-13.7c5.3-17.3,15.7-20.6,23.8-22.3c6-1.3,15.4-2.5,12.9-20 c-3.2-23.3,19.4-14.4,20.6-13.8l0,0C677,464.5,685.9,472.3,692.1,479.1z"/>
<path d="M666.2,456.5c-1.3-0.6-23.8-9.4-20.6,13.8c2.4,17.6-6.9,18.7-12.9,20	c-8.2,1.8-18.7,5-23.8,22.3c-6.3,21.1-27.7,14.1-37.9,13.7c-3.1-0.1-8.5,0.7-13.6,2.1c-10.2-4.7-19.6-10.1-27.9-15.9 c3.2-5.6,14.5-9.2,19.7-9.4c9.8-0.5,29,4.6,35.4-16.5c5.3-17.3,15.6-22.4,23.8-22.3c4.6,0,10.9,3.2,10.2-14.5	c-0.7-17.7,20-12.8,20-12.8C648.5,443.7,657.9,450.2,666.2,456.5z"/>
<path d="M638.4,437.1c0,0-20.7-4.9-20,12.8c0.7,17.7-5.6,14.6-10.2,14.5	c-8.3-0.1-18.7,5-23.8,22.3c-6.4,21.1-25.6,16.1-35.4,16.5c-5.1,0.3-16.4,3.8-19.7,9.4c-23.9-16.4-39.9-35.2-45.1-44.2 c36.2,10.1,62.1,11.8,89.9,6c38.8-8-4.8-43.6-56.6-93c-1.1-5.6-2.7-11.1-4.6-16.4C529.7,373.8,590.6,405.7,638.4,437.1z"/>
<path d="M517.6,381.5c51.9,49.3,95.5,84.9,56.6,93c-27.8,5.8-53.7,4.1-89.9-6l0,0	c-16-4.4-33.9-10.6-54.8-18.3c5.9-4.5,10.8-9.3,13.6-13.7c6.6-9.8,10.4-25.5,29.5-37.3c19.1-11.8,17.6-44.3,17.6-44.3 C499.4,364.1,508.6,373,517.6,381.5z"/>
<path d="M512.9,365.1c1.9,5.3,3.5,10.8,4.6,16.4c-9-8.5-18.1-17.4-27.3-26.6	c-4.1-4.2-8.2-8.5-12.3-12.8c-6.2-6.7-12.3-13.6-18-20.5c-2.9-3.5-5.7-7-8.5-10.6c-1.3-1.7-2.6-3.4-4-5l0,0 c-63.6-78.5-143-81.6-175.4-45.1c-30.6,34.4-22.7,106.4,76.3,156.3c6,3,12.4,6,19.1,8.9c2.2,0.9,4.6,2,6.9,2.9 c11,4.5,21.4,8.6,31.1,12.4c8.4,3.3,16.3,6.3,23.7,9.1c20.9,7.9,38.8,13.9,54.8,18.3c-10.2,2.4-25.8,4.8-44.3,3.4 c0,0-11.2,2.5-44.4-5.2c-3.1-0.7-5.6,5.7-13.1,9.4c0,0-11.7,5.4-25.6-8.4c-6.1-6.1-18.1-17.4-21.5-18.9c-10.1-4.4,1.8,0.9-9-4.1 c-6.1-2.9-12.3-6.1-18.3-9.6c-10.1-6-19.8-12.9-28.7-20.8c-61.8-55.4-102-101.1-102.4-134.1c-0.2-16.7-3.6-45,56.9-109.1 c50.6-53.5-23.3-83.3-23.3-83.3s3.7-9.2,11.9-13.1c-0.4-6.7-9.8-19.8-15.7-21.6c-0.6-0.2-1.1-0.3-1.5-0.3c0,0,30.1-51.8,76.7-38.9 c37.5,10.5,44.4,41.4,47.2,53.4c7.4,30.7-5.8,60.5-5.2,92.5c0.7,32.1,49.5,61.8,64,69.3c60.2,31.2,100.8,90.1,105,96.6 C497.5,332.9,506.8,347.8,512.9,365.1z M266.4,59.9c0-8.1-6.9-14.8-15.4-14.8s-15.4,6.6-15.4,14.8c0,8.1,6.8,14.8,15.4,14.8 C259.6,74.6,266.4,68,266.4,59.9z"/>
<path d="M490.3,354.9c0,0,1.5,32.5-17.6,44.3c-19.1,11.8-22.9,27.5-29.5,37.3 c-2.9,4.3-7.7,9.3-13.6,13.7c-7.5-2.8-15.5-5.9-23.7-9.1c12.3-5.6,23.1-14.9,28-22.3c6.5-9.8,10.4-25.5,29.5-37.3 c14.8-9.2,15.4-30.3,14.8-39.4C482.1,346.4,486.2,350.7,490.3,354.9z"/>
<path d="M478.1,342.1c0.5,9.1,0,30.3-14.8,39.4c-19.1,11.8-22.9,27.5-29.5,37.3	c-5,7.5-15.8,16.7-28,22.3c-9.7-3.8-20.1-7.9-31.1-12.4c-2.3-0.9-4.7-1.9-6.9-2.9c2.9-1.6,6.9-3.4,12.4-5 c15.7-4.6,30.6-16.4,36.6-25.5c6.5-9.8,10.4-25.5,29.5-37.3c16.6-10.3,14.7-31.2,13.9-36.5C465.8,328.5,471.8,335.3,478.1,342.1z"/>
<path d="M460.1,321.5c0.8,5.2,2.6,26.3-13.9,36.5c-19.1,11.8-22.9,27.5-29.5,37.3	c-6.1,9.2-20.9,20.9-36.6,25.5c-5.5,1.6-9.4,3.4-12.4,5c-6.7-2.8-13-5.8-19.1-8.9l0,0c0,0,3.5-5.9,19.2-10.6 c15.7-4.6,30.5-16.4,36.6-25.5c6.5-9.8,10.4-25.5,29.5-37.3c18.8-11.6,13.9-36.8,13.7-37.8c1.4,1.6,2.6,3.3,4,5	C454.3,314.5,457.1,318,460.1,321.5z"/>
<path d="M447.6,305.9c0.2,0.9,5,26.2-13.7,37.8c-19.1,11.8-22.9,27.5-29.5,37.3 c-6.1,9.2-20.9,20.9-36.6,25.5c-15.7,4.6-19.2,10.6-19.2,10.6l0,0c-99.1-50-107-121.9-76.4-156.3 C304.5,224.3,383.9,227.4,447.6,305.9L447.6,305.9z"/>
<path d="M301.6,518.9c0.1,0,0.2,0,0.3-0.1C301.8,518.9,301.7,518.9,301.6,518.9z M401,533.2 c-0.6,0-1.2,0.1-1.7,0.2l0,0c-1.8,0-3.9-0.5-6.6-1.7c-8.9-3.9-20.4-14.4-32.7-8.5s-28.6,6.2-37.5,10.2c-4.3,2-11.2,8.7-17.4,8.6 c-0.9,0-1.7-0.1-2.5-0.5c-3.4-1.2-3.1-3.8-2-6.1l0,0c0.6-1.3,1.5-2.4,2-3.1c0,0-3.8,1.7-6.9,1.7h-0.1c-2.3,0-4.2-1-3.8-4.3 c0.2-1.5,0.5-2.7,1-3.8c0.7-1.7,1.7-3,2.7-3.9c2.3-2.2,5-2.9,6-3.1c-1.6,0-1.9-3.6-1.3-6.4c0.3-1.2,0.9-2.3,1.6-2.9 c8.2-6.1,7,0.5,29.5,0.5c1.3,0,2.4,0,3.5-0.1c7.5-0.4,11.6-1.8,13.9-3.6c3.4-2.7,7.9-8.2,8.3-10.2c0.9-4.4,4.9-9.2,7-23.2 c10.5,5.2,14.8,3.9,18.3,2.9c-1.3,6.4-6.5,16.6-5.5,22.3c1.5,7.8-0.6,10.7,20.4,22.2c1.6,0.8,3.7,2.6,5.3,4.7l0,0 c0.8,1,1.3,2.1,1.6,3.2C404.7,530.4,403.6,532.5,401,533.2z"/>
<path d="M246.7,498.7c-1.6,0-1.9-3.6-1.3-6.4c0.3-1.2,0.9-2.3,1.6-2.9c8.2-6.1,7,0.5,29.5,0.5 c22.5,0,26.5-10.2,28.9-12.9c6.2-6.8,9.4-17.3,13-36c7.9,3.6,11.1,5.1,16.8,7.7c-8.6,6.6-12.7,22.8-13.1,29.4 c-0.5,7.9-0.6,10.7,20.4,22.2c1.9,1,4.8,3.5,6.1,6.1c-2.3,1.8-6.4,3.2-13.9,3.6c-8.4-4.5-18.8-12.2-29.7-7 c-12.3,5.9-28.6,6.2-37.5,10.2c-4.3,2-11.2,8.6-17.3,8.6c-0.9,0-1.8-0.1-2.5-0.5c-3.4-1.2-3.1-3.8-2-6.1l0,0c0.6-1.3,1.5-2.4,2-3.1 c0,0-3.8,1.7-6.9,1.7h-0.1c-2.2,0-4.2-1-3.8-4.3c0.2-1.5,0.5-2.7,1-3.8c0.7-1.7,1.7-2.9,2.7-3.9C243,499.6,245.7,498.9,246.7,498.7 z M247.1,498.7c-0.1,0-0.2,0-0.3,0.1C246.9,498.7,247,498.7,247.1,498.7z"/>
</g>
<g stroke="#000000">
<path d="M402.7,525.3c0.7,0.5,9.3,6.4,11.3,12.1c-0.5-0.3-8.5-4.1-13-4.2c2.6-0.7,3.7-2.8,3.2-4.7	C404,527.4,403.4,526.4,402.7,525.3z"/>
<path d="M251.1,53c4,0,7.2,3.1,7.2,6.8c0,3.8-3.2,6.9-7.2,6.9s-7.1-3.1-7.1-6.9C243.9,56.1,247.1,53,251.1,53z"/>
<path d="M302.6,541.5c0.8,0.3,1.7,0.5,2.5,0.5l0,0c-4.9,0-10.7,6.9-10.7,6.9c1.7-10,5.6-13.1,6.1-13.5	C299.5,537.7,299.2,540.3,302.6,541.5z"/>
<path d="M300.3,512.6c-0.7,2.8-0.4,6.3,1.3,6.4c-1.1,0.2-3.7,0.9-6,3.1c-2.3,0-9.2,5.1-9.2,5.1 c2.5-10.7,13.6-14.8,13.6-14.8L300.3,512.6z"/>
<path d="M281.7,543.2c0.6-7.1,9.2-15.4,11.2-17.3c-0.5,1.1-0.8,2.3-1,3.8c-0.4,3.3,1.5,4.3,3.8,4.3	C291.7,534.1,281.7,543.2,281.7,543.2z"/>
<path d="M247.8,521.4c0.9,0.3,1.7,0.5,2.5,0.5l0,0c-4.9-0.1-10.7,6.9-10.7,6.9c1.7-9.9,5.6-13.1,6.1-13.5	C244.7,517.5,244.4,520.1,247.8,521.4z"/>
<path d="M245.5,492.4c-0.7,2.8-0.4,6.3,1.3,6.4c-1.1,0.2-3.7,0.9-6,3.1c-2.3,0-9.2,5.1-9.2,5.1	c2.5-10.7,13.6-14.8,13.6-14.8L245.5,492.4z"/>
<path d="M237.1,509.6c-0.4,3.3,1.5,4.3,3.8,4.3c-3.9,0-14,9.1-14,9.1c0.6-7.1,9.3-15.5,11.2-17.3	C237.6,506.8,237.2,508.2,237.1,509.6z"/>
<path d="M200.8,59.9c7.3,4.4,16.1,14.1,16.6,14.7c-0.6-0.3-11.8-6.4-20.2-9.3C197.3,65.2,198.7,60.7,200.8,59.9z"/>
</g>
<g fill="none" stroke="#000000">
<path d="M246.3,498.5c5.4-1.6,16.9-2.7,24.5-1.9"/>
<path d="M257.6,504.7c-6.1,1.1-7.8,5.1-9.8,7.6"/>
<path d="M268.8,502.1c-6.1,1.4-3.9,1.4-11.2,2.6"/>
<path d="M292,494.7c2.4-0.8-19.7,6.6-23.2,7.4"/>
<path d="M301.1,518.7c5.4-1.6,16.9-2.7,24.5-1.9"/>
<path d="M312.4,524.8c-5.8,1-7.8,5.1-9.8,7.6"/>
<path d="M323.6,522.3c-6.1,1.4-3.9,1.4-11.2,2.6"/>
<path d="M346.8,514.9c2.4-0.8-19.7,6.6-23.2,7.4"/>
</g>
</svg>