<?xml version="1.0" encoding="utf-8"?>
<!-- Generator: Adobe Illustrator 15.0.0, SVG Export Plug-In . SVG Version: 6.00 Build 0)  -->
<!DOCTYPE svg PUBLIC "-//W3C//DTD SVG 1.1//EN" "http://www.w3.org/Graphics/SVG/1.1/DTD/svg11.dtd">
<svg version="1.1" id="layer_x5F_www.ABC-color.com"
	 xmlns="http://www.w3.org/2000/svg" xmlns:xlink="http://www.w3.org/1999/xlink" x="0px" y="0px" width="567px" height="822px"
	 viewBox="0 0 567 822" enable-background="new 0 0 567 822" xml:space="preserve">
<path fill="#FFFFFF" stroke="#000000" stroke-miterlimit="10" d="M339.7,256.5c-5.8,2.8-9.8,4.8-10.2,5
	C331.8,260.9,335.3,259.1,339.7,256.5z M339.8,256.5c19.3-9.2,59.3-27,63.8-18.4c5.9,11.1-74,55.4-78,57.7
	c3.4-1.6,57.7-26.8,53.802-14.5c-3.9,12.4-56.5,50.8-58.9,52.6c2.1-1.3,39.1-23.5,40.7-16.1c0,0-74.602,49.3-107.4,42.8
	c0,0,33.301-44.4,46.4-123.1c0,0,80.7-228.4,67.6-79.9c0,0,50.4-31.7,14.102,27.9c-12.5,20.6-41.802,45.4-54,55.3
	c18.198-14.3,75.5-58.2,74.698-43.2C401.8,212.2,361.2,243.9,339.8,256.5z"/>
<path fill="#FFFFFF" stroke="#000000" stroke-miterlimit="10" d="M370.3,463.4c4.102,2.1,8.5,4.398,12.4,6.6
	C378.3,467.5,374,465.3,370.3,463.4z"/>
<path id="ABC-color.com" fill="#FFFFFF" stroke="#000000" stroke-miterlimit="10" d="M425.5,676c-9.2-11.6-17-20.9-18.2-22.3
	C408.3,655.1,415.7,664.3,425.5,676z M284.5,579c0,0,55.1,53.8,41.1-47.8C333.7,541.5,345.7,554,361.7,563.5
	c0,0,171.8,139.5,159.3,158c0,0-23.7,11.6-59.7-33.5c-3.8-5.2-6.7-9-7.5-10c2.602,3.6,5.102,7,7.5,10c8.9,12.4,22.102,32.7,21.5,43
	c-0.7,11.2-35.1-28.2-57.3-54.9c16.4,20.9,37,49.2,30,52.302C432.3,739,381.9,661.1,381.9,661.1s-50.4-63.198-19.2,0
	c0,0,63.3,103.302,23.3,59.302c-6.9-7.602-27.3-37.2-30-41.102c3.8,6,45.6,71.102,36,80.8c-4.1,4.2-29.6-43.698-35.9-55.698
	c8.4,16.398,51.802,102.1,40,109C383,821,293.5,631.5,284.1,579.1L284.5,579z"/>
<path fill="#FFFFFF" stroke="#000000" stroke-miterlimit="10" d="M353.6,492.3c-6.8-3.1-12.1-5.398-13.6-6
	C341.5,487,346.6,489.5,353.6,492.3z M368.2,462.3c-6-3-10.2-5-10.9-5.3C358,457.4,362.6,459.5,368.2,462.3z M253.8,360.5
	c32.8,6.5,107.4-42.8,107.4-42.8c62.8-54,164.2-126.5,205.3-74c0,0-6,25.4-83.7,25.4c0,0,32.8,2.7,40.7,7.3c19,11,5.8,11.4-6.9,11.7
	c-12.698,0.3-43.898,0-43.898,0s68.3,4.1,31.3,24.1c-13.9,7.5-49.1,2.7-50.4,2.5c0.9,0.6,25.2,16,31.2,17.8
	c15.102,4.4,2.102,25.3-57,1.5c6.3,2.7,74.5,31.8,48.5,36.6c-27.6,5.1-50.898-5.1-73.1-5.1c0,0,97.3,50.1,47.398,46.9
	c0,0-30.198-3.2-56.398-10.102c1.7,0.7,29.7,12.2,46.8,37.4c14.7,21.6-68.5-9.102-73-10.7c4.2,1.9,82.8,37,56.3,45.6
	c-12.898,4.2-28.7,0.4-41.6-4.698c-3.9-2.302-8.3-4.602-12.4-6.602c3.8,1.9,8,4.2,12.4,6.602c19.3,10.8,40.5,25.3,28.5,31.3
	c-13.5,6.8-40.8-2.3-57.5-9c21,9.7,56.1,27.7,35.3,31.898c-32.2,6.4-75.6-11.398-75.6-11.398l0.1-0.3
	c-100.1-31.2-71.8-143.7-71.8-143.7l-0.3-0.2c2.6-3.9,5.3-6.8,8.1-8.5l0.1-0.3C250.9,360,252.4,360.3,253.8,360.5z"/>
<path fill="#FFFFFF" stroke="#000000" stroke-miterlimit="10" d="M237,548.7c6.9,8.6,13.7,14.7,20,19.1l-0.1,0.2
	c-11.4-2.5-12.1-9.5-20.8-10.7c-0.9-0.1-4,15.8-4.5-1.3c-0.1-1.9,1.5-4.3,1.3-5.7C232.5,547.7,235.5,548.3,237,548.7z"/>
<path fill="#FFFFFF" stroke="#000000" stroke-miterlimit="10" d="M245.5,528c0.5-0.2-0.8,14.6,2.8,18.4c0.4,0.5-0.5-8.802,0.2-8.802
	c2.4-0.1,1.4-6.8,6.5-7.1c0.4,0-0.5,16.8-0.2,17.2c0.5,0.5,1.4-3.601,1.9-5.2c0.1-0.2-0.3-1,0.4-1.1c3.1-0.4,8.6-17.7,14.4-8.4
	c2.9,4.7-0.1,9.5-1.3,13.3c-0.7,2-0.2,3.2-0.2,3.2l-3,3.2c13-1.5,14.8-18.2,16.6-32.4c4.5-34.898-5.6-0.6-9.1-2.5
	c-27.2-15.2-37.3,7-37.3,16.5c0,2.602,2.4,7.8,3,10.2c0,0-1-7.5,1.5-8.5C245.2,534.6,243.1,529,245.5,528z M241.7,368.7
	c0,0-28.3,112.6,71.8,143.7l-0.1,0.3c0,0,4.1,8,12.3,18.5C339.7,632.8,284.6,579,284.6,579l-0.398,0.1c0-0.1,0-0.198-0.102-0.3
	c0,0-11.8-0.3-27.1-11c-6.3-4.398-13.1-10.5-20-19.1C226,535,215.1,515.1,206.4,486.1c0,0,14.6-87.6,34.9-117.7L241.7,368.7z"/>
<path fill="#FFFFFF" stroke="#000000" stroke-miterlimit="10" d="M240.2,544.5c-0.6-2.4-3-7.6-3-10.2c0-9.5,10.1-31.7,37.3-16.5
	c3.5,2,13.6-32.3,9.1,2.5c-1.8,14.2-3.6,30.8-16.6,32.4l3-3.2c0,0-0.5-1.2,0.2-3.2c1.2-3.8,4.2-8.6,1.3-13.3
	c-5.8-9.3-11.3,8-14.4,8.4c-0.8,0.1-0.4,0.898-0.4,1.1c-0.5,1.6-1.3,5.7-1.9,5.2c-0.3-0.3,0.6-17.2,0.2-17.2c-5.2,0.3-4.2,7-6.5,7.1
	c-0.7,0,0.2,9.2-0.2,8.802c-3.5-3.802-2.3-18.602-2.8-18.4c-2.4,1-0.3,6.6-3.8,8C239.2,537,240.2,544.5,240.2,544.5z"/>
<path fill="#FFFFFF" stroke="#000000" stroke-miterlimit="10" d="M232,362c-5.6-11.3-23.5-17.2-25.8-17.9l-0.4-0.7
	c6.5-3.3,8.8-11.5-11.4-27.9c-3.2-50.7-21.4-60.3-36.1-59.5c-10.7,0.6-19.5,6.8-19.5,6.8c5.3-10.2-2-24.1-2-24.1
	c-0.2-0.1-0.3-0.3-0.5-0.4l0.7-0.8c0,0,95.1-11.1,77.5,81c0,0,5.3,20.2,19.5,32.7c0,3.8-0.6,7.5-1.9,10.8H232z"/>
<path fill="#FFFFFF" stroke="#000000" stroke-miterlimit="10" d="M206.4,486.1c0,0-34.3-8.898-36.3-82.5c0,0,51.5-12.5,62-41.6
	c1.2-3.4,1.9-7,1.9-10.8c4.3,3.8,9.5,6.9,15.6,8.5l-0.1,0.3c-2.8,1.7-5.5,4.6-8.1,8.5C221,398.5,206.4,486.1,206.4,486.1z"/>
<path fill="#FFFFFF" stroke="#000000" stroke-miterlimit="10" d="M126.6,273.4c3.2,7.6,20.5,43.8,65.9,70.6
	c2.5,1.5,8.9,1.6,13.4-0.6l0.4,0.7c2.2,0.7,20.1,6.7,25.8,17.9h0.1c-10.6,29.1-62,41.6-62,41.6S145,360.5,136.9,326.2
	c0,0,0-29.3-10.4-52.8H126.6z"/>
<path fill="#FFFFFF" stroke="#000000" stroke-miterlimit="10" d="M168.8,268.7c3.6,0,6.5,2.7,6.5,6c0,3.3-2.9,6-6.5,6
	c-3.6,0-6.5-2.7-6.5-6C162.3,271.4,165.2,268.7,168.8,268.7z"/>
<path fill="#FFFFFF" stroke="#000000" stroke-miterlimit="10" d="M168.8,280.7c3.6,0,6.5-2.7,6.5-6c0-3.3-2.9-6-6.5-6
	c-3.6,0-6.5,2.7-6.5,6C162.3,278,165.2,280.7,168.8,280.7z M169.3,263.9c5.8,1.5,9.4,4.5,10.3,10.3c0.8,5.6-4.6,10.3-10.3,10.3
	c-5.7,0-10.3-4.6-10.3-10.3C159,268.5,163.8,262.4,169.3,263.9z"/>
<path fill="#FFFFFF" stroke="#000000" stroke-miterlimit="10" d="M194.5,315.5c-11.2-13.2-31.8-31.9-44.6-43.1
	c-0.2-2.6-0.7-13.7,8.4-16.4C173.1,255.2,191.3,264.8,194.5,315.5z M159,274.1c0,5.7,4.6,10.3,10.3,10.3c5.7,0,11.1-4.6,10.3-10.3
	c-0.8-5.8-4.5-8.8-10.3-10.3C163.8,262.4,159,268.5,159,274.1z"/>
<path fill="#FFFFFF" stroke="#000000" stroke-miterlimit="10" d="M158.4,256c-9.1,2.7-8.7,13.8-8.4,16.4c-6.6-5.8-11.1-9.6-11.1-9.6
	S147.7,256.7,158.4,256z"/>
<path fill="#FFFFFF" stroke="#000000" stroke-miterlimit="10" d="M136.8,238.7c0,0,7.4,13.9,2,24.1c0,0-17.1-10.1-18.2,0
	c0,0-133.9-156.4-108.9-246.3c0,0,17.1,130.5,124.6,221.8C136.5,238.4,136.6,238.6,136.8,238.7z"/>
<path fill="#FFFFFF" stroke="#000000" stroke-miterlimit="10" d="M120.7,262.8c1-10.1,18.2,0,18.2,0s4.5,3.8,11.1,9.6
	c12.8,11.2,33.4,29.9,44.6,43.1c20.2,16.3,17.9,24.6,11.4,27.9c-4.4,2.2-10.9,2.1-13.4,0.6c-45.4-26.7-62.7-63-65.9-70.6l-0.1,0.1
	C124.8,269.7,122.9,266.1,120.7,262.8z"/>
<g>
	<path d="M485.9,269.5c-1.802-0.2-3.7-0.2-5.5-0.1c-1.9,0.1-3.7,0.2-5.602,0.4c-3.7,0.4-7.398,0.9-11,1.6
		c-7.3,1.4-14.5,3.5-21.398,6.4c6.8-3,14-5.3,21.3-6.9c3.6-0.8,7.3-1.4,11-1.9c1.898-0.2,3.7-0.4,5.6-0.5c1.9-0.1,3.7-0.2,5.7,0
		L485.9,269.5z"/>
</g>
<g>
	<path d="M475.4,288.7c-3.102-0.4-6.302-0.5-9.4-0.4c-3.2,0.1-6.3,0.3-9.5,0.7c-6.3,0.8-12.5,2.1-18.5,4.1c6-2.1,12.2-3.7,18.5-4.6
		c3.1-0.5,6.3-0.8,9.5-0.9s6.4-0.1,9.6,0.2L475.4,288.7z"/>
</g>
<g>
	<path d="M454.9,316c-2.302-0.6-4.602-1.1-7-1.5c-2.4-0.4-4.7-0.7-7.102-0.8c-2.398-0.1-4.8-0.1-7.2,0.3c-2.398,0.3-4.698,1-6.8,2.2
		c2.102-1.3,4.4-2,6.8-2.4c2.4-0.4,4.802-0.6,7.2-0.5c2.4,0,4.8,0.2,7.2,0.5c2.4,0.3,4.8,0.7,7.1,1.3L454.9,316z"/>
</g>
<g>
	<path d="M428.8,334L428.8,334c0,0-0.3,0.2-0.3,0.4c0,0.2,0,0.2,0,0.3c0.1,0.2,0.1,0.1,0.1,0.2l0,0h-0.1l-0.2-0.1
		c-0.2-0.1-0.3-0.1-0.5-0.2c-0.3-0.1-0.7-0.2-1-0.3c-0.7-0.2-1.398-0.3-2.1-0.5c-1.4-0.3-2.9-0.4-4.3-0.5
		c-2.9-0.2-5.802-0.1-8.7,0.3c-5.8,0.7-11.4,2.4-16.8,4.8c5.3-2.5,10.898-4.4,16.698-5.3c2.9-0.4,5.9-0.6,8.802-0.5
		c1.5,0,2.898,0.2,4.398,0.4c0.7,0.1,1.5,0.2,2.2,0.4c0.4,0.1,0.7,0.2,1.1,0.3c0.2,0.1,0.4,0.1,0.602,0.2c0.1,0,0.2,0.1,0.3,0.1
		s0.1,0.1,0.2,0.1c0,0,0.1,0,0.1,0.1c0,0,0,0,0.102,0.2c0,0.1,0.1,0.1,0,0.3c0,0.2-0.302,0.4-0.302,0.4l0,0L428.8,334z"/>
</g>
<g>
	<path d="M404.8,367.3c-2-1.4-4.398-2.3-6.8-2.9s-5-0.7-7.5-0.6c-5,0.3-10,1.9-14.5,4.2c4.5-2.4,9.3-4.2,14.5-4.7
		c2.6-0.2,5.2-0.2,7.7,0.3s5,1.3,7.3,2.8L404.8,367.3z"/>
</g>
<g>
	<path d="M396.8,404c-3-1.4-6.3-2.4-9.5-3.3c-3.3-0.8-6.6-1.4-9.898-1.601c-3.4-0.199-6.7-0.1-10.102,0.601
		c-3.3,0.6-6.5,1.8-9.5,3.5c2.9-1.8,6.102-3,9.4-3.7s6.7-1,10.1-0.8c3.4,0.1,6.8,0.6,10.102,1.399c3.3,0.801,6.6,1.7,9.698,3.101
		L396.8,404z"/>
</g>
<g>
	<path d="M369.6,430.3c-2.898-1.398-5.898-2.7-9-3.8c-3.1-1.1-6.198-2-9.398-2.7s-6.4-1.1-9.7-1.1s-6.6,0.5-9.5,1.898
		c2.9-1.5,6.3-2.1,9.5-2.198c3.3-0.102,6.6,0.3,9.8,0.898c3.2,0.602,6.4,1.5,9.5,2.5c3.102,1,6.2,2.2,9.2,3.602L369.6,430.3z"/>
</g>
<g>
	<path d="M359.5,458.7c-3.8-1.7-7.6-3.4-11.4-4.9c-3.8-1.6-7.698-3-11.698-4.398c-3.9-1.302-7.9-2.602-12-3.4
		c-2-0.4-4.102-0.7-6.2-0.7c-1,0-2.102,0.102-3,0.5c-0.5,0.2-0.9,0.5-1.3,0.9C313.6,447.1,313.3,447.6,313.3,448.1
		c0.102-0.5,0.3-1,0.602-1.398c0.3-0.4,0.8-0.7,1.3-0.9c1-0.398,2-0.5,3.1-0.6c2.102-0.102,4.2,0.2,6.2,0.6
		c4.1,0.8,8.1,1.9,12.1,3.2s7.9,2.7,11.802,4.2c3.898,1.5,7.698,3,11.6,4.7L359.5,458.7z"/>
</g>
<g>
	<path d="M339.3,486.6c-2.898-1.3-5.898-2.6-8.898-3.698c-3-1.2-6-2.2-9.102-3.2c-3.1-0.9-6.2-1.7-9.398-2.102
		c-1.602-0.198-3.2-0.3-4.802,0c-0.8,0.2-1.6,0.4-2.199,0.9c-0.699,0.5-1.101,1.2-1.301,2c0.102-0.8,0.602-1.5,1.2-2
		c0.601-0.5,1.4-0.8,2.2-1c1.6-0.3,3.2-0.3,4.8-0.2c3.2,0.3,6.4,1,9.5,1.9c3.102,0.898,6.2,1.898,9.2,3c3,1.1,6,2.3,9,3.5
		L339.3,486.6z"/>
</g>
<g>
	<path d="M308.3,253.3c1,1,2,2,2.8,3.2c0.9,1.1,1.602,2.4,2.2,3.7c0.602,1.3,1.102,2.7,1.2,4.2c0.1,0.7,0.1,1.5,0,2.2
		c-0.1,0.7-0.3,1.4-0.7,2.1h-0.1c0.3-1.3,0.3-2.8,0-4.1c-0.3-1.4-0.8-2.7-1.4-3.9c-0.6-1.3-1.3-2.5-2-3.7L308.3,253.3L308.3,253.3z"
		/>
</g>
<g>
	<path d="M312.4,289.4c0.898,0.9,1.5,2.1,1.898,3.3c0.4,1.2,0.602,2.5,0.602,3.8s-0.302,2.6-0.802,3.8c-0.5,1.2-1.198,2.3-2.198,3.1
		l-0.102-0.1c1.3-2,2.102-4.4,2.102-6.9c0-1.2-0.102-2.4-0.4-3.6C313.2,291.7,312.8,290.6,312.4,289.4L312.4,289.4z"/>
</g>
<g>
	<path d="M305.5,321.5c1.1-0.4,2.3-0.4,3.4-0.1c1.198,0.3,2.3,0.9,3.1,2c0.7,1.1,0.9,2.5,0.7,3.6c-0.2,1.2-0.7,2.2-1.3,3.1H311.3
		c0.3-1,0.602-2.1,0.602-3.1c0-1.1-0.2-2.1-0.802-3c-0.6-0.9-1.5-1.5-2.5-1.8C307.6,321.7,306.6,321.5,305.5,321.5L305.5,321.5z"/>
</g>
<g>
	<path d="M321.8,345.1c1.2,0.1,2.3,0.6,3.3,1.3c1,0.7,1.802,1.7,2.302,2.9c0.398,1.2,0.5,2.6,0.1,3.7c-0.4,1.2-1,2.2-1.9,3l-0.1-0.1
		c0.6-1,1-2,1.2-3.1c0.2-1.1,0.1-2.2-0.3-3.2c-0.4-1-1.102-1.9-1.9-2.7C323.7,346.2,322.8,345.6,321.8,345.1L321.8,345.1z"/>
</g>
<g>
	<path d="M299.2,274.8c0.899,0.7,1.5,1.6,2.1,2.6c0.601,1,0.9,2,1.2,3.1c0.2,1.1,0.3,2.2,0.2,3.4c-0.2,1.1-0.601,2.3-1.4,3.1h-0.1
		c0.899-1.9,0.899-4.1,0.399-6.2C301.1,278.7,300.2,276.7,299.2,274.8L299.2,274.8z"/>
</g>
<g>
	<path d="M295.7,300.2c0.8,1.1,1.5,2.3,2,3.6c0.5,1.2,0.899,2.5,1.2,3.9c0.199,1.3,0.398,2.7,0.199,4.1
		c-0.101,0.7-0.199,1.4-0.5,2.1c-0.301,0.6-0.801,1.3-1.399,1.6l-0.101-0.1c1-0.9,1.199-2.3,1.199-3.6c0-1.3-0.199-2.6-0.398-3.9
		C297.4,305.3,296.6,302.7,295.7,300.2L295.7,300.2z"/>
</g>
<g>
	<path d="M292,333.5c1.5-0.1,3,0.2,4.4,0.7c1.398,0.5,2.8,1.4,3.8,2.7c0.5,0.7,0.899,1.4,1.1,2.2c0.2,0.8,0.3,1.6,0.101,2.4
		c-0.101,0.8-0.301,1.5-0.601,2.2c-0.399,0.7-0.7,1.3-1.2,1.9h-0.1c0.6-1.3,1.1-2.7,1.2-4.1c0.1-1.4-0.4-2.8-1.2-4
		c-0.9-1.1-2.1-2-3.3-2.6C294.8,334.2,293.4,333.8,292,333.5L292,333.5z"/>
</g>
<g>
	<path d="M310.6,363.1c1-0.4,2-0.4,3.102-0.2c0.5,0.1,1.1,0.4,1.6,0.8c0.5,0.4,0.9,1,1.102,1.6c0.398,1.2,0.1,2.4-0.4,3.3
		s-1.1,1.7-1.9,2.4H314c0.5-0.8,0.9-1.7,1.2-2.6s0.5-1.9,0.2-2.8c-0.302-0.9-1.102-1.6-1.9-1.9C312.5,363.4,311.6,363.2,310.6,363.1
		L310.6,363.1z"/>
</g>
<g>
	<path d="M418.9,288.4c1.1,0.2,2.1,0.8,2.8,1.6c0.8,0.8,1.3,1.8,1.6,2.9s0.3,2.2,0.2,3.3c-0.2,1.1-0.5,2.1-1.1,3H422.3
		c0.5-1.9,0.7-4,0.102-5.9C421.9,291.2,420.6,289.5,418.9,288.4L418.9,288.4z"/>
</g>
<g>
	<path d="M407.7,307.2c1.2,0.9,2.2,2,3,3.2c0.8,1.3,1.398,2.7,1.5,4.3c0,0.8-0.102,1.7-0.4,2.5c-0.3,0.8-0.898,1.5-1.5,2
		c-0.6,0.5-1.398,0.8-2.1,1.1c-0.7,0.2-1.5,0.3-2.2,0.3v-0.1c1.4-0.4,2.7-0.9,3.8-1.9c1.102-0.9,1.602-2.4,1.4-3.8
		c-0.102-1.4-0.602-2.8-1.2-4C409.3,309.5,408.5,308.3,407.7,307.2L407.7,307.2z"/>
</g>
<g>
	<path d="M389.5,329.4c0.4,1.2,0.5,2.5,0.5,3.8c0,1.3-0.2,2.6-0.6,3.8c-0.4,1.2-0.9,2.5-1.802,3.5c-0.8,1-1.898,1.9-3.198,2.2v-0.1
		c1.1-0.6,1.898-1.5,2.6-2.6c0.7-1,1.1-2.2,1.5-3.4C389.2,334.4,389.5,331.9,389.5,329.4L389.5,329.4z"/>
</g>
<g>
	<path d="M368.9,359.9c0.5,1.2,0.6,2.4,0.398,3.7c-0.1,1.2-0.5,2.5-1.2,3.6c-0.698,1.1-1.6,2.1-2.8,2.7c-1.1,0.6-2.398,0.9-3.6,0.9
		v-0.1c1.1-0.3,2.2-0.7,3.2-1.4c1-0.7,1.8-1.6,2.3-2.6c0.6-1,1-2.1,1.2-3.3C368.7,362.2,368.8,361,368.9,359.9L368.9,359.9z"/>
</g>
<g>
	<path d="M350.2,388.4c0.6,1,0.8,2.2,0.6,3.3c-0.2,1.2-0.8,2.3-1.6,3.2s-1.8,1.5-2.9,1.9c-1.1,0.4-2.2,0.601-3.3,0.601V397.3
		c2-0.6,4-1.5,5.4-3c0.698-0.8,1.3-1.7,1.5-2.7C350.3,390.5,350.4,389.4,350.2,388.4L350.2,388.4z"/>
</g>
<g>
	<path d="M328.5,409.3c0.7,1,1.1,2.2,1.4,3.4c0.3,1.2,0.398,2.5,0.198,3.8c-0.198,1.3-0.6,2.6-1.6,3.6s-2.3,1.5-3.6,1.302V421.3
		c1.198-0.2,2.3-0.8,3-1.7c0.698-0.898,1.1-2.1,1.198-3.198c0.2-1.201,0.102-2.4,0-3.5C329,411.7,328.8,410.5,328.5,409.3
		L328.5,409.3z"/>
</g>
<g>
	<path d="M309.3,431.5c0.9,1.1,1.5,2.3,1.9,3.6c0.398,1.302,0.5,2.802,0.3,4.2c-0.2,1.4-0.9,2.9-2,3.9c-0.5,0.5-1.1,0.898-1.8,1.2
		c-0.7,0.198-1.3,0.5-2,0.5V444.8c1.2-0.5,2.398-1.1,3.2-2.1c0.898-1,1.398-2.2,1.6-3.5s0.1-2.602-0.1-3.9
		C310.2,434,309.8,432.8,309.3,431.5L309.3,431.5z"/>
</g>
<g>
	<path d="M298.2,458.8c1,1.102,1.8,2.4,2.399,3.8c0.5,1.4,0.801,3,0.601,4.602c-0.2,1.6-0.9,3.1-2.101,4.2
		c-0.601,0.5-1.199,1-1.899,1.398c-0.7,0.3-1.4,0.602-2.101,0.7v-0.1c1.301-0.602,2.5-1.4,3.399-2.5c0.899-1.102,1.5-2.4,1.601-3.9
		c0.199-1.4,0-2.9-0.399-4.2C299.5,461.4,298.9,460.1,298.2,458.8L298.2,458.8z"/>
</g>
<g>
	<path d="M376,320c0.6,0,1.1,0.2,1.6,0.6s0.9,0.9,1.102,1.4c0.5,1.1,0.6,2.3,0.5,3.4c-0.2,1.1-0.5,2.3-1.3,3.2
		c-0.7,0.9-1.802,1.6-3,1.5V330c1-0.3,1.8-1,2.3-1.9s0.8-1.9,1-2.9c0.1-1,0.1-2.1-0.3-3C377.7,321.2,377,320.3,376,320L376,320z"/>
</g>
<g>
	<path d="M361.5,334.5c1.1,0.1,2.1,0.7,2.9,1.5c0.398,0.4,0.698,1,0.898,1.6s0.2,1.2,0.102,1.8c-0.2,1.2-0.9,2.2-1.602,2.9
		c-0.8,0.8-1.6,1.3-2.6,1.7H361c0.8-0.6,1.5-1.3,2.1-2.1c0.602-0.8,1.102-1.7,1.302-2.6c0.198-1,0-2-0.602-2.8
		C363.2,335.6,362.4,335,361.5,334.5L361.5,334.5z"/>
</g>
<g>
	<path d="M350.7,362.4c0.8,1.3,1.2,2.8,1.398,4.3c0.2,1.5,0,3.2-0.698,4.7c-0.7,1.5-1.9,2.8-3.302,3.5c-0.698,0.4-1.5,0.6-2.198,0.8
		c-0.802,0.1-1.5,0.2-2.302,0.1v-0.1c1.4-0.3,2.802-0.7,4.102-1.5c1.2-0.8,2.2-1.9,2.8-3.2s0.8-2.8,0.8-4.2
		C351.3,365.3,351,363.8,350.7,362.4L350.7,362.4z"/>
</g>
<g>
	<path d="M332.5,384c0.7,1.1,1.1,2.4,1.1,3.8c0.102,1.3-0.198,2.7-0.8,4c-0.6,1.3-1.6,2.4-2.7,3.1c-0.6,0.4-1.198,0.7-1.8,0.9
		c-0.6,0.2-1.3,0.4-1.898,0.4V396.1c1.198-0.399,2.3-1,3.3-1.8c1-0.8,1.8-1.8,2.3-2.9s0.8-2.4,0.9-3.6
		C332.9,386.5,332.8,385.2,332.5,384L332.5,384z"/>
</g>
<g>
	<path d="M311.4,406.8c1,1.3,1.6,2.9,1.898,4.5c0.2,1.7,0,3.5-0.898,5.102c-0.9,1.6-2.302,2.8-3.802,3.398
		c-0.8,0.3-1.6,0.602-2.398,0.8c-0.8,0.102-1.601,0.302-2.4,0.2v-0.1c1.5-0.3,3.102-0.8,4.4-1.602c1.398-0.8,2.6-1.8,3.3-3.198
		c0.8-1.4,1-3,0.9-4.5C312.3,409.8,311.9,408.3,311.4,406.8L311.4,406.8z"/>
</g>
<g>
	<path d="M295.2,431.5c0.899,1.3,1.6,2.8,1.899,4.4c0.399,1.6,0.5,3.3,0.301,4.898c-0.301,1.7-0.9,3.3-2.102,4.602
		c-0.6,0.6-1.199,1.198-1.898,1.6c-0.7,0.4-1.5,0.8-2.301,0.9V447.8c1.399-0.7,2.699-1.7,3.601-2.898
		c0.899-1.302,1.5-2.802,1.7-4.302c0.199-1.5,0.199-3.1-0.102-4.698C296.1,434.6,295.7,433,295.2,431.5L295.2,431.5z"/>
</g>
<g>
	<path d="M291.5,407.5c1.4,0.5,2.7,1.3,3.7,2.3c1.1,1.101,1.899,2.5,2,4.2c0,0.8-0.2,1.7-0.5,2.4c-0.4,0.698-0.8,1.398-1.4,1.898
		c-0.6,0.5-1.2,1-1.8,1.3c-0.7,0.302-1.3,0.7-2,0.9l-0.1-0.1c1.199-0.7,2.398-1.602,3.3-2.602c0.899-1,1.6-2.398,1.5-3.8
		c0-1.4-0.7-2.7-1.601-3.8C293.7,409.2,292.7,408.3,291.5,407.5L291.5,407.5z"/>
</g>
<g>
	<path d="M308,386c1.2,0.8,2.3,1.7,3.2,3c0.8,1.2,1.5,2.8,1.1,4.6c-0.2,0.9-0.8,1.6-1.398,2.2c-0.7,0.5-1.4,0.9-2.102,1.101
		c-0.7,0.199-1.5,0.3-2.2,0.399c-0.699,0-1.398,0-2.199-0.1V397.1c1.399-0.199,2.801-0.399,4.001-0.899c1.3-0.5,2.5-1.4,2.8-2.8
		c0.3-1.3-0.2-2.7-0.9-3.9C309.8,388.1,308.9,387,308,386L308,386z"/>
</g>
<g>
	<path d="M324,370.5c1,0.6,1.6,1.9,1.9,3.1c0.198,1.2,0.1,2.5-0.302,3.6c-0.398,1.1-0.898,2.2-1.698,3.1c-0.7,0.9-1.5,1.8-2.5,2.4
		l-0.102-0.1c1.4-1.8,2.602-3.7,3.3-5.8c0.302-1.1,0.5-2.2,0.5-3.3C325,372.5,324.7,371.4,324,370.5L324,370.5z"/>
</g>
<g>
	<path d="M337,354c1.2,0.2,2.3,0.7,3.2,1.7c0.398,0.5,0.7,1.1,0.898,1.8c0.102,0.7,0.102,1.4-0.1,2c-0.4,1.3-1.1,2.3-2,3.1
		c-0.9,0.8-1.9,1.4-3,1.9l-0.1-0.1c0.898-0.7,1.698-1.5,2.398-2.3c0.7-0.8,1.4-1.8,1.602-2.9c0.3-1.1,0.1-2.2-0.5-3.1
		C338.9,355.2,338,354.5,337,354L337,354z"/>
</g>
<g>
	<path d="M346,342.5c1.3,0,2.6,0.5,3.6,1.4c0.5,0.4,1,1,1.302,1.7c0.3,0.7,0.5,1.4,0.5,2.1c0,1.4-0.5,2.8-1.2,3.8
		c-0.7,1.1-1.602,2-2.602,2.8l-0.1-0.1c0.8-1,1.4-2,2-3c0.5-1.1,0.9-2.3,0.9-3.5c0-1.2-0.5-2.4-1.4-3.2
		C348.2,343.5,347.1,342.9,346,342.5L346,342.5z"/>
</g>
<g>
	<path d="M391.5,297.4c1.7,0,3.4,0.2,5,0.8c1.6,0.6,3.3,1.4,4.5,3c0.6,0.9,0.8,2,0.6,3c-0.198,1-0.698,1.8-1.3,2.5
		c-0.6,0.7-1.3,1.2-2,1.7s-1.398,0.9-2.2,1.2l-0.1-0.1c1.3-1,2.6-2,3.6-3.4c0.5-0.7,0.9-1.4,1-2.2c0.2-0.8,0-1.6-0.5-2.3
		c-0.898-1.4-2.398-2.2-3.898-2.9C394.7,298.3,393.1,297.9,391.5,297.4L391.5,297.4z"/>
</g>
<g>
	<path d="M274,341.4c1-0.7,2.2-1.2,3.5-1.2s2.7,0.5,3.7,1.5c1,1.1,1.4,2.5,1.3,3.7c0,1.3-0.4,2.5-0.9,3.6h-0.1
		c0.2-1.1,0.4-2.3,0.3-3.5c-0.1-1.1-0.5-2.3-1.3-3.1c-0.8-0.8-1.9-1.3-3-1.4C276.3,340.9,275.1,341.1,274,341.4L274,341.4z"/>
</g>
<g>
	<path d="M281.5,321.5c1-0.1,1.9,0,2.9,0.3c0.898,0.3,1.8,0.8,2.6,1.5c0.4,0.4,0.7,0.9,0.9,1.4c0.199,0.6,0.199,1.2,0.1,1.7
		c-0.3,1.1-1,1.9-1.9,2.4l-0.1-0.1c0.6-0.7,1.1-1.5,1.2-2.4c0.1-0.9-0.3-1.8-0.9-2.4c-0.6-0.6-1.399-1.1-2.2-1.5
		C283.2,322.1,282.4,321.8,281.5,321.5L281.5,321.5z"/>
</g>
<g>
	<path d="M288,361.1c1.4,0.6,2.7,1.4,3.8,2.4c1.2,1,2.2,2.1,3.101,3.4c0.801,1.3,1.5,2.9,1.5,4.6c0,0.8-0.301,1.7-0.699,2.4
		c-0.5,0.7-1,1.3-1.7,1.6l-0.101-0.1c1.101-1,1.801-2.4,1.699-3.9c-0.1-1.5-0.699-2.8-1.5-4.1c-0.8-1.2-1.8-2.4-2.8-3.4
		C290.2,363,289.1,362,288,361.1L288,361.1z"/>
</g>
<g>
	<path d="M282,385.4c0.6,0.3,1.1,0.6,1.7,0.8c0.6,0.2,1.2,0.5,1.8,0.8c1.2,0.6,2.4,1.4,3.1,2.9c0.7,1.4,0.5,3.1,0,4.3
		c-0.3,0.6-0.6,1.2-0.898,1.8c-0.4,0.5-0.801,1.1-1.301,1.5l-0.101-0.1c0.601-1.101,1.2-2.3,1.5-3.5s0.4-2.6-0.1-3.7
		c-0.5-1.1-1.601-2-2.601-2.6C284,387,282.8,386.4,282,385.4L282,385.4z"/>
</g>
<g>
	<path d="M273.9,376.4c0.7,0.5,1.3,1.2,1.7,2c0.4,0.8,0.7,1.6,0.8,2.5s0,1.9-0.4,2.7c-0.4,0.9-1.1,1.6-2,1.9l-0.1-0.1
		c0.6-0.5,1-1.2,1.3-2c0.2-0.8,0.3-1.6,0.2-2.4C275.2,379.5,274.7,377.9,273.9,376.4L273.9,376.4z"/>
</g>
<g>
	<path d="M262,378c0.5-1.1,1-2.1,1.4-3.1c0.5-1,0.9-2,1.2-3c0.3-1,0.4-1.9,0.1-2.7c-0.3-0.8-1.2-1.5-2.2-2.1V367
		c1.1,0.3,2.2,0.8,2.8,1.8c0.6,1,0.5,2.3,0.2,3.4c-0.3,1.1-0.9,2.1-1.5,3.1C263.5,376.3,262.8,377.2,262,378L262,378z"/>
</g>
<g>
	<path d="M356.7,681.4c-5.7-12.5-11.5-25-17.5-37.302c-3-6.198-6.102-12.3-9.3-18.398c-1.602-3-3.2-6.102-4.9-9.102
		s-3.4-6-5.6-8.698c2.198,2.698,3.898,5.6,5.698,8.6c1.7,3,3.4,6,5,9c3.302,6.1,6.4,12.2,9.5,18.3c6.2,12.3,12.2,24.7,18,37.102
		L356.7,681.4z"/>
</g>
<g>
	<path d="M356.2,705.9c-4.9-7.802-9.7-15.602-14.5-23.5c-4.7-7.9-9.3-15.9-13.8-24c-4.4-8.102-8.7-16.2-12.7-24.5
		c-2-4.2-3.8-8.4-5.5-12.7c-0.8-2.2-1.602-4.3-2.2-6.5s-1.2-4.5-1.4-6.8c0.2,2.3,0.802,4.5,1.5,6.698c0.7,2.2,1.4,4.4,2.302,6.5
		c1.698,4.302,3.6,8.5,5.6,12.602c4,8.3,8.4,16.398,12.9,24.398s9.198,15.9,14,23.802C347.2,689.8,352.1,697.6,357.1,705.3
		L356.2,705.9z"/>
</g>
<g>
	<path d="M268.4,352.2c1-0.2,2-0.2,3,0.1c1,0.3,2,0.8,2.7,1.7c0.4,0.5,0.6,1,0.8,1.6c0.1,0.6,0.2,1.2,0,1.7c-0.2,1.1-0.8,2-1.5,2.7
		h-0.1c0.4-0.8,0.7-1.7,0.8-2.7c0.1-0.9-0.2-1.9-0.8-2.6c-0.6-0.7-1.4-1.2-2.3-1.6C270.3,352.7,269.4,352.4,268.4,352.2L268.4,352.2
		z"/>
</g>
<g>
	<path d="M274.5,409.9c1,0.1,1.9,0.3,2.7,0.8c0.8,0.399,1.6,1,2.3,1.8c0.3,0.4,0.6,0.9,0.8,1.4c0.2,0.5,0.2,1.198,0,1.698
		c-0.4,1.102-1.3,1.7-2.2,2l-0.1-0.1c0.7-0.5,1.3-1.2,1.5-2.1c0.2-0.9-0.2-1.7-0.8-2.4c-0.5-0.7-1.2-1.3-2-1.8
		C276,410.9,275.3,410.4,274.5,409.9L274.5,409.9z"/>
</g>
<g>
	<path d="M209.5,483.5c1,0.7,2,1.4,3,2c1,0.5,2,1,2.9,0.9c0.8,0,1.6-0.7,2.3-1.602c0.7-0.898,1.2-2,1.8-3.1h0.1
		c-0.3,1.2-0.6,2.398-1.2,3.5c-0.6,1.1-1.5,2.1-2.9,2.2c-1.3,0.1-2.5-0.5-3.5-1.2C211.1,485.4,210.2,484.6,209.5,483.5L209.5,483.5z
		"/>
</g>
<g>
	<path d="M229.6,474.7c1,1.1,2,2.2,3.1,3.1c0.5,0.4,1.1,0.8,1.6,0.9c0.5,0.1,0.9,0.1,1.3-0.3c0.4-0.302,0.8-0.9,1.1-1.5
		c0.3-0.602,0.6-1.302,0.9-1.9c0.3-0.7,0.5-1.4,0.7-2.1c0.3-0.7,0.5-1.4,0.8-2.102h0.1c-0.2,1.5-0.5,2.9-0.9,4.4
		c-0.4,1.398-0.9,2.898-2.1,3.898c-0.6,0.5-1.5,0.7-2.2,0.4s-1.3-0.7-1.9-1.3C231.1,477.3,230.3,476,229.6,474.7L229.6,474.7z"/>
</g>
<g>
	<path d="M253.9,457.5c0.8,0.8,1.6,1.7,2.5,2.3c0.4,0.3,0.8,0.5,1.2,0.5c0.3,0,0.5,0,0.8-0.3c0.6-0.5,1.1-1.6,1.6-2.6
		s0.9-2.102,1.5-3.102h0.1c-0.2,1.102-0.5,2.3-0.8,3.4c-0.4,1.1-0.8,2.2-1.7,3.1c-0.4,0.4-1.1,0.602-1.7,0.5
		c-0.6-0.1-1.1-0.5-1.5-0.898C254.9,459.6,254.3,458.6,253.9,457.5L253.9,457.5z"/>
</g>
<g>
	<path d="M273.6,457c1.1-0.3,2.2-0.6,3.1-0.9c1-0.3,1.9-0.8,2.2-1.398c0.4-0.5,0.4-1.4,0.2-2.4c-0.2-1-0.7-2-1.1-3.1l0.1-0.102
		c0.7,0.9,1.3,1.802,1.7,2.9c0.4,1,0.6,2.3-0.1,3.3c-0.7,1-1.8,1.4-2.9,1.602C275.8,457.1,274.7,457.1,273.6,457L273.6,457z"/>
</g>
<g>
	<path d="M266,472.1c0.8,0.7,1.5,1.4,2.2,1.9c0.7,0.6,1.5,0.9,1.9,0.7c0.5-0.102,1.1-0.7,1.7-1.5c0.5-0.8,1-1.602,1.7-2.5h0.1
		c-0.3,1-0.6,1.898-1.1,2.8s-1.1,1.8-2.1,2.1c-0.5,0.102-1.1,0-1.5-0.198c-0.5-0.2-0.8-0.602-1.2-0.9
		C266.9,473.9,266.3,473.1,266,472.1L266,472.1z"/>
</g>
<g>
	<path d="M244.8,482.9c1.1,0.5,2.2,0.8,3.2,0.898c1,0.102,1.9-0.2,2.5-0.898c0.7-0.602,1.3-1.602,1.8-2.602s0.9-2.1,1.5-3.2h0.1
		c-0.2,1.2-0.4,2.302-0.8,3.4s-0.9,2.2-1.8,3c-0.9,0.8-2.2,1.2-3.4,0.9C246.7,484.4,245.6,483.7,244.8,482.9L244.8,482.9z"/>
</g>
<g>
	<path d="M223.1,501.9c1.2,0.1,2.4,0.1,3.4,0c1.1-0.102,2.1-0.4,2.9-0.9c0.8-0.5,1.4-1.3,1.9-2.2c0.5-1,0.9-2,1.3-3.2h0.1
		c-0.1,1.2-0.2,2.4-0.6,3.5c-0.4,1.102-1.1,2.2-2.1,2.802c-1,0.6-2.2,0.898-3.4,0.8C225.3,502.7,224.1,502.5,223.1,501.9
		L223.1,501.9z"/>
</g>
<g>
	<path d="M240.7,505.1c1.1,0,2.2,0,3.1-0.198c1-0.102,1.9-0.4,2.5-0.9c0.6-0.5,1-1.2,1.3-2.2c0.3-0.898,0.4-2,0.6-3.1h0.1
		c0.2,1.1,0.3,2.1,0.1,3.2c-0.1,1.1-0.6,2.1-1.5,2.8s-2,0.898-3.1,0.898C242.8,505.7,241.7,505.5,240.7,505.1L240.7,505.1z"/>
</g>
<g>
	<path d="M258.9,494.3c1,0.5,1.9,1,2.7,1.4c0.9,0.398,1.8,0.6,2.4,0.5c0.6-0.102,1.1-0.7,1.6-1.5c0.4-0.8,0.8-1.8,1.3-2.8h0.1
		c-0.1,1-0.3,2.1-0.6,3.1c-0.3,1-1,2-2.1,2.2c-1.1,0.2-2.1-0.2-3-0.8C260.3,495.8,259.5,495.2,258.9,494.3L258.9,494.3z"/>
</g>
<g>
	<path d="M279.6,486.7c1.1-0.5,2.2-0.9,3.2-1.4s2-1,2.5-1.7c0.601-0.698,0.8-1.5,0.5-2.5c-0.2-1-0.7-2-1.3-3.198l0.1-0.102
		c0.801,0.9,1.5,1.8,1.9,3c0.2,0.602,0.3,1.2,0.2,1.8c-0.101,0.602-0.4,1.2-0.8,1.602c-0.801,0.898-1.9,1.398-3,1.8
		C281.9,486.5,280.8,486.7,279.6,486.7L279.6,486.7z"/>
</g>
<g>
	<path d="M291.9,502.6c1.1-0.198,2.199-0.398,3.199-0.6c1-0.3,1.899-0.6,2.601-1.1c0.7-0.5,1-1.302,1.1-2.2c0.101-1-0.1-2-0.2-3.2
		h0.102c0.398,1,0.8,2.1,0.898,3.2c0.102,1.1-0.3,2.3-1.199,3s-2,1-3.101,1.2C294.1,502.8,293,502.8,291.9,502.6L291.9,502.6z"/>
</g>
<g>
	<polygon points="313.3,514.1 305.6,505.5 314,513.4 	"/>
</g>
<g>
	<path d="M268.5,505.1c1,0.302,1.9,0.602,2.7,0.602c0.8,0,1.6-0.102,2.1-0.602c0.6-0.398,1.1-1.1,1.6-1.898s0.9-1.602,1.5-2.5h0.1
		c-0.2,1-0.5,1.898-0.9,2.8s-0.9,1.8-1.8,2.4c-0.8,0.6-1.9,0.8-2.9,0.6C270.1,506.3,269.2,505.8,268.5,505.1L268.5,505.1z"/>
</g>
<g>
	<path d="M226.1,519.1c0.9,0.5,1.6,1,2.4,1.4c0.7,0.4,1.5,0.8,2,0.8c0.3,0,0.4,0,0.7-0.2c0.2-0.198,0.5-0.5,0.7-0.8
		c0.4-0.7,0.8-1.5,1.2-2.398h0.1c-0.1,0.898-0.3,1.8-0.6,2.698c-0.2,0.4-0.4,0.802-0.8,1.2c-0.3,0.3-0.8,0.5-1.3,0.5
		c-1,0-1.8-0.6-2.5-1.1C227.3,520.5,226.6,519.9,226.1,519.1L226.1,519.1z"/>
</g>
<g>
	<path d="M287.6,526.7c0.801,0.6,1.602,1.1,2.301,1.398c0.399,0.102,0.699,0.2,1,0.102c0.301,0,0.5-0.102,0.801-0.4
		c0.5-0.398,1-1.1,1.5-1.898c0.5-0.802,0.898-1.602,1.5-2.4h0.1c-0.199,0.9-0.5,1.8-0.8,2.7c-0.399,0.898-0.8,1.7-1.601,2.398
		c-0.399,0.302-0.899,0.5-1.399,0.5s-1-0.198-1.399-0.398C288.7,528.2,288.1,527.5,287.6,526.7L287.6,526.7z"/>
</g>
<g>
	<path d="M298.7,521.6c0.8,0.9,1.5,1.802,2.3,2.602c0.7,0.8,1.5,1.7,2.2,2.2c0.399,0.3,0.7,0.398,1,0.398s0.6-0.2,1-0.5
		c0.7-0.7,1.3-1.7,2-2.7h0.1c-0.3,1.102-0.7,2.2-1.399,3.2c-0.399,0.5-0.899,0.9-1.5,1c-0.601,0.102-1.199-0.1-1.699-0.398
		c-1-0.7-1.7-1.602-2.4-2.602C299.7,523.7,299.1,522.7,298.7,521.6L298.7,521.6z"/>
</g>
<g>
	<path d="M284.1,548.9c0.9,0.198,1.7,0.398,2.5,0.6c0.801,0.1,1.5,0.2,2,0c0.5-0.1,0.801-0.6,1.102-1.3c0.3-0.7,0.5-1.5,0.8-2.4
		h0.101c0.101,0.9,0.101,1.8-0.101,2.602c-0.2,0.8-0.7,1.698-1.601,2.1c-0.899,0.3-1.801,0.1-2.601-0.2
		C285.5,549.9,284.8,549.5,284.1,548.9L284.1,548.9z"/>
</g>
<g>
	<path d="M299.7,544.4c0.8,0.198,1.6,0.398,2.3,0.398s1.2-0.1,1.6-0.398c0.4-0.302,0.801-0.9,1.102-1.602c0.3-0.701,0.6-1.398,1-2.2
		h0.1c0,0.802-0.1,1.602-0.3,2.4s-0.601,1.6-1.2,2.1c-0.699,0.602-1.6,0.602-2.398,0.4C301.1,545.4,300.3,545,299.7,544.4
		L299.7,544.4z"/>
</g>
<g>
	<path d="M313.4,543.2c0.398,0.2,0.698,0.398,1.1,0.5c0.3,0.1,0.6,0.1,0.7,0c0.2-0.102,0.5-0.8,0.7-1.5c0.198-0.7,0.398-1.5,0.6-2.3
		c0.2-0.802,0.5-1.602,0.9-2.4h0.1c-0.1,1.6-0.2,3.3-0.6,4.9c-0.102,0.398-0.302,0.8-0.5,1.198c-0.2,0.4-0.5,0.7-0.9,0.9
		c-0.4,0.1-0.9-0.1-1.2-0.3C313.8,543.9,313.5,543.6,313.4,543.2L313.4,543.2z"/>
</g>
<g>
	<path d="M265.5,564.7c1,0.5,1.9,1,2.8,1.5c0.9,0.5,1.8,0.898,2.6,1.1c0.9,0.2,1.4,0.102,2-0.5c0.6-0.6,1-1.6,1.5-2.6h0.1
		c-0.1,1.1-0.3,2.1-0.9,3.1c-0.3,0.5-0.7,0.8-1.3,1c-0.5,0.2-1.1,0.2-1.6,0.102c-1.1-0.2-2-0.802-2.9-1.4
		C267,566.3,266.1,565.6,265.5,564.7L265.5,564.7z"/>
</g>
<g>
	<path d="M281.1,564.8c0.7,0.5,1.4,1.102,2,1.3c0.1,0,0.2,0,0.2,0s-0.1,0-0.1-0.1c0.1-0.1,0.2-0.5,0.3-0.8c0.2-0.7,0.3-1.5,0.4-2.4
		c0.1-0.8,0.3-1.7,0.6-2.5h0.1c0,0.9,0.102,1.7,0.102,2.602c0,0.898-0.102,1.698-0.2,2.6c-0.101,0.4-0.2,0.8-0.5,1.2
		c-0.1,0.2-0.4,0.3-0.6,0.3c-0.2,0-0.5-0.1-0.6-0.2C281.9,566.3,281.5,565.5,281.1,564.8L281.1,564.8z"/>
</g>
<g>
	<path d="M297.2,560.9c1.8-0.302,3.5-0.602,4.5-1.5c0.5-0.4,0.899-1,1.2-1.7c0.3-0.7,0.5-1.602,0.8-2.5h0.1
		c0.101,0.898,0,1.8-0.2,2.7c-0.199,0.898-0.6,1.698-1.3,2.3c-0.7,0.6-1.6,0.898-2.5,1C298.9,561.3,298,561.2,297.2,560.9
		L297.2,560.9z"/>
</g>
<g id="www.ABC-color.com">
	<path d="M312.4,561.6c0.8,0.4,1.6,0.5,1.898,0.302c0.4-0.2,0.7-0.802,1-1.5c0.3-0.7,0.602-1.4,0.9-2.2s0.6-1.5,1.1-2.3h0.102
		c-0.2,1.6-0.5,3.3-1.2,4.8c-0.4,0.7-0.8,1.5-1.7,1.8S312.8,562.3,312.4,561.6L312.4,561.6z"/>
</g>
<g>
	<path d="M290.7,576.8c1.1,0.3,2.2,0.602,3.3,0.8c1.1,0.2,2.1,0.5,3.1,0.5s1.7-0.198,2.2-0.898s0.7-1.8,1-3h0.101
		c0.101,1.1,0.199,2.3-0.399,3.398c-0.3,0.5-0.7,0.9-1.2,1.2c-0.5,0.2-1.1,0.3-1.699,0.3c-1.101,0-2.301-0.398-3.301-0.8
		C292.6,577.9,291.6,577.4,290.7,576.8L290.7,576.8z"/>
</g>
<g>
	<path d="M308.3,582.5c1.102,0.1,2.2,0.2,3.102,0.2c1,0,1.8-0.3,2.1-0.8c0.4-0.5,0.6-1.5,0.7-2.5c0.1-1,0-2.102,0.1-3.2h0.102
		c0.3,1,0.5,2.1,0.6,3.2c0.1,1.1,0,2.198-0.6,3.1c-0.7,0.9-2,1.1-3,1C310.3,583.4,309.2,583,308.3,582.5L308.3,582.5z"/>
</g>
<g>
	<path d="M271.5,430.3c1,0.5,1.8,1.2,2.6,2c0.7,0.8,1.4,1.7,1.8,2.9c0.2,0.6,0.3,1.2,0.2,1.898c-0.1,0.7-0.4,1.302-0.8,1.802
		c-0.9,1-2.1,1.198-3.2,1.1v-0.1c1-0.302,2-0.7,2.6-1.5c0.7-0.802,0.6-1.9,0.3-2.9s-0.8-1.9-1.4-2.7
		C272.8,431.8,272.2,431.1,271.5,430.3L271.5,430.3z"/>
</g>
<g>
	<path d="M266.5,395.5c0.8,0.4,1.4,1.1,1.8,2c0.4,0.9,0.4,1.9,0.1,2.8c-0.3,0.9-0.8,1.7-1.4,2.3c-0.6,0.601-1.4,1.101-2.2,1.301
		l-0.1-0.101c1.2-1,2.4-2.3,2.8-3.8S267.5,396.7,266.5,395.5L266.5,395.5z"/>
</g>
<g>
	<path d="M244.8,528.6c0.4-1.698,1.1-3.198,2.1-4.6c1-1.3,2.3-2.4,3.8-3.2c3-1.6,6.4-1.898,9.6-1.7c-3.2-0.1-6.6,0.5-9.3,2.102
		c-1.4,0.8-2.5,1.898-3.4,3.2c-0.9,1.3-1.5,2.8-1.8,4.3L244.8,528.6z"/>
</g>
<g>
	<path d="M254.3,530.9c0.5-1.602,1.3-3.102,2.3-4.5c1-1.302,2.2-2.5,3.7-3.4c1.5-0.8,3.1-1.3,4.8-1.4c1.7-0.1,3.3,0.2,4.9,0.602
		c-1.6-0.4-3.2-0.5-4.8-0.4c-1.6,0.2-3.2,0.7-4.5,1.601c-1.3,0.899-2.5,2-3.3,3.399c-0.9,1.3-1.6,2.8-1.9,4.3L254.3,530.9z"/>
</g>
<g>
	<path d="M409.1,654.7l0.5,0.6l0.102,0.102l0,0l0,0c0.3-0.102-1.2,1.398-0.7,0.698c-0.1-0.1-0.1-0.1-0.1-0.1l-0.2-0.3l-0.9-1.102
		l-1.9-2.198l-3.7-4.302c-2.5-2.898-5-5.8-7.5-8.6c-5.102-5.7-10.2-11.4-15.4-16.9s-10.6-11-16.2-16.198
		c-2.8-2.602-5.698-5.102-8.698-7.5c-1.5-1.2-3-2.302-4.602-3.302c-1.6-1-3.3-2-5.1-2.5c1.8,0.5,3.5,1.5,5.1,2.5
		c1.602,1,3.2,2.102,4.7,3.302c3,2.3,5.9,4.8,8.8,7.398c5.7,5.102,11.102,10.5,16.4,16s10.5,11.102,15.6,16.8
		c2.602,2.802,5.102,5.7,7.602,8.602l3.8,4.3l1.898,2.2l0.9,1.1l0.2,0.3c0,0,0.1,0.102,0,0c0.5-0.698-1,0.802-0.7,0.7l0,0l0,0
		l-0.1-0.1l-0.5-0.602L409.1,654.7z"/>
</g>
<g>
	<path d="M353.2,634.8c-2.602-5.5-5.2-11-8-16.5c-1.4-2.7-2.8-5.398-4.2-8.1c-0.7-1.3-1.5-2.7-2.3-4c-0.4-0.7-0.8-1.3-1.2-1.9
		c-0.4-0.6-0.9-1.3-1.5-1.7c0.6,0.5,1.1,1.102,1.5,1.7c0.5,0.602,0.9,1.3,1.3,1.9c0.8,1.3,1.602,2.6,2.4,3.898
		c1.5,2.602,3,5.302,4.5,8c2.898,5.4,5.7,10.802,8.398,16.302L353.2,634.8z"/>
</g>
<g>
	<path d="M455.5,680.8c-7.8-8.5-15.8-16.898-23.8-25.2c-8-8.3-16.102-16.6-24.4-24.698C399.1,622.8,390.7,614.8,382,607.1
		c-4.3-3.8-8.7-7.6-13.3-11.1c-2.3-1.8-4.602-3.5-7-5.1c-2.4-1.602-4.9-3.102-7.7-3.9c2.8,0.8,5.3,2.4,7.7,3.9
		c2.398,1.6,4.8,3.3,7.1,5c4.602,3.5,9,7.198,13.4,11c8.7,7.6,17.1,15.6,25.398,23.6c8.302,8.1,16.5,16.3,24.602,24.5
		c8.1,8.3,16.1,16.6,24,25.1L455.5,680.8z"/>
</g>
<g>
	<path d="M138.7,263c-5.5-5.2-10.7-10.7-15.8-16.3c-5.1-5.6-10-11.3-14.8-17.2c-9.6-11.7-18.7-23.8-27.2-36.3
		c-17.1-25-32-51.4-44.2-79.1c12.2,27.7,27.2,54.1,44.4,79c8.6,12.5,17.7,24.5,27.3,36.2c4.8,5.8,9.8,11.5,14.9,17.1
		c5.1,5.6,10.3,11.1,15.8,16.3l0,0c0.1,0.1,0.1,0.3,0,0.4C138.9,263.1,138.8,263.1,138.7,263L138.7,263z"/>
</g>
<g>
	<path d="M368.6,156.6c-8.398,12.4-16.6,25-24.6,37.7c-4,6.4-7.9,12.8-11.7,19.2c-1.898,3.2-3.7,6.5-5.5,9.8
		c-1.8,3.3-3.5,6.7-4.898,10.1c1.398-3.5,3.1-6.8,4.898-10.1c1.8-3.3,3.602-6.6,5.5-9.8c3.8-6.5,7.7-12.9,11.602-19.3
		c7.898-12.7,16.1-25.3,24.5-37.8L368.6,156.6z"/>
</g>
</svg>
