<?xml version="1.0" encoding="utf-8"?>
<!-- Generator: Adobe Illustrator 15.0.0, SVG Export Plug-In . SVG Version: 6.00 Build 0)  -->
<!DOCTYPE svg PUBLIC "-//W3C//DTD SVG 1.1//EN" "http://www.w3.org/Graphics/SVG/1.1/DTD/svg11.dtd">
<svg version="1.1" id="layer_x5F_www.ABC-color.com"
	 xmlns="http://www.w3.org/2000/svg" xmlns:xlink="http://www.w3.org/1999/xlink" x="0px" y="0px" width="822px" height="567px"
	 viewBox="0 0 822 567" enable-background="new 0 0 822 567" xml:space="preserve">
<rect display="none" fill="#FFFFFF" width="822" height="567"/>
<path fill="#FFFFFF" stroke="#000000" stroke-miterlimit="10" d="M78.1,79.8c0.9,2.9,0,6.1-5.4,9.6l-0.2,0.2c-0.8-0.6-1.5-1.1-2-1.6
	c-3.6-3.6-14.4-4.8-14.4-4.8s-12.5-1.1-16.8-1.8c-7.2-1.2,1.8-3.6,9.6-5.4c12.2-2.8,19.1-3.8,21.6-7.7
	C69.5,70.8,76.5,74.8,78.1,79.8z"/>
<path fill="#FFFFFF" stroke="#000000" stroke-miterlimit="10" d="M102.9,64.4c1.1,0,1.9-0.8,1.9-1.9s-0.9-1.9-1.9-1.9
	s-1.9,0.8-1.9,1.9S101.9,64.4,102.9,64.4z M107.4,57c2.6,1.5,5.2,7.4,1.7,9.5c0.5-0.6-11.5-0.6-10.9,0.4c-1.3-2.3-2-8,1.6-10.1
	C103.3,54.7,105.1,55.7,107.4,57z"/>
<path fill="#FFFFFF" stroke="#000000" stroke-miterlimit="10" d="M78.1,79.8c36.2,2.6,23.3,18.9,84.3,12.6
	c20.9-2.1,17.1,18.2,12.5,26.6c-5.5,9.9-11.4,15.6-17.7,18.3c-8,3.6-50.8,16.8-60.4,15c-7.4-48.6-19-58.6-24.3-62.6l0.2-0.2
	C78.1,85.9,79,82.7,78.1,79.8L78.1,79.8z"/>
<path fill="#FFFFFF" stroke="#000000" stroke-miterlimit="10" d="M101.7,177.9c-1.1-3.3-2.7-9.7-4.2-20.4c-0.3-1.8-0.5-3.6-0.8-5.4
	c9.6,1.8,52.4-11.4,60.4-15c6.3-2.7,12.1-8.4,17.7-18.3c4.7-8.4,8.4-28.7-12.5-26.6c-61,6.3-48.1-9.9-84.3-12.6h-0.1
	c-1.6-5-8.6-9-7.5-11.5C131.6-23.6,203,105.2,203,105.2s17.4,19.2,35.4-1.8s41.9-30.1,57-38.4C388,14.5,427.2-35.3,708.9,91.1
	c20,9-70.7,6.9-74.2,5.7c-32.7-11.3-26.8,6.4-43.4-5.7c-17-12.3-5.7,13.2-9.398,10.7c-33.7-22.5-28.102-1.3-28.302-1.3
	c-17-0.6-27.8-11.2-41.5-13.2c-12.198-1.8,18.2,17.6-30.8,15.7c-9.8-0.4-35.3-7.1-31.398-3.8c18.898,16.4-55.5,27.5-66.7,32.1
	c-32.7,13.3-13.9,36.4-16,39.2c-14,18.7-55.3,9.3-55.3,9.3c85.8,78.6,455.3,144.5,455.3,144.5s11.1,4.7,10.2,7.8
	c-1.2,3.9-16.2,1.2-16.2,1.2s-290.5-31.7-303-33c-33.602-3.6-9,13.8-9,13.8l237,133.2l28.8,18c0,0,20,11.8,17.4,14.4
	C727.6,484.6,694.6,469.5,694.6,469.5c-9.5-10.6-290.198-137.3-331.1-155.6c45.7,1.6,84.3-7.5,61.2-24.602
	C315.9,208.5,293,183.8,288.8,176.6c-2-3.5,4.9-13.6,15.7-22s30.8-28.9,30.8-28.9l28.9-38.4c34-17.6,82.5-36,89.898-39
	c74.802-29.6-98.5-32.6-225.2,76.1c0,0-25.4,35.9-29.6,31.1c-4.2-4.8-0.8-10.8-6-14.4c-4.2-2.9,1.9-1.8-6.8-1.1
	c-2.9,0.2-79.5,33.1-80.7,56.8h-0.2c0,0.5,0,1.1,0,1.8h-0.5c0-1.3-0.9-6.1-1.8-10.8C102.6,183.4,101.8,179.2,101.7,177.9
	c1,2.9,1.5,3.3,0.9,1.7C101.9,177.4,101.7,177.1,101.7,177.9z M109,66.5c3.5-2.1,0.9-8-1.7-9.5c-2.3-1.3-4-2.3-7.6-0.3
	c-3.6,2.1-2.9,7.8-1.6,10.1C97.6,65.9,109.6,65.9,109,66.5z"/>
<path fill="#FFFFFF" stroke="#000000" stroke-miterlimit="10" d="M160,428.5c-73.1-4.2-150.5-196.3-55.5-230.9
	c0.5,1.4,0.7,1.6,0.7,0.9h0.5c-0.2,13.1,2,60.8,41.7,88.7c-12.4,2.399-33.1,34.3,15,127.5C166.9,423.5,163.7,428.7,160,428.5z"/>
<path fill="#FFFFFF" stroke="#000000" stroke-miterlimit="10" d="M104.5,197.6c-95,34.6-17.6,226.6,55.5,230.9
	c3.7,0.2,6.9-4.9,2.4-13.7c-48.1-93.3-27.4-125.1-15-127.5c3.1,2.2,6.4,4.2,10,6.2l0.2,0.9c-0.3,0.1-0.5,0.3-0.6,0.6
	c-3,7.5-24.8,6,4.2,44.4c18.6,24.6,8.4,19.8,4.8,22.199l1.7,0.899c3.5,5.7,16.1,19.8,21.6,23.399c6.2,4,12.6,7.101,18.6,11.399
	c7.7,5.602,12.5,9.5,19.2,16.2c4,4,13.8,9.6,8.9,16.7c-3.6,0.1-6.7,0-10.1-1.102l-0.1,0.102c5.4,4.3,11,8.3,16.7,12.3
	c10.4,7.1,23.2,10.2,33.2,18.1c4.1,3.302,10.8,13.802,9.5,19.2c-4.6,0.2-14.1-0.1-18.1-3.7c-0.3-0.3-0.6-0.6-0.9-0.898
	c0.2,0.3,0.5,0.6,0.9,0.898c3.1,3.4,6.2,6.7,9.2,10C292.3,502.4,342.9,527.7,342.9,527.7s-31.102,17.398-213-84
	c-30.4-17-53.4-48.601-64.8-84.601C63.6,354.5,17.2,234.7,63,210.3c22.1-11.8,40.3-22.6,40.3-22.6h0.1c0.9,4.7,1.8,9.5,1.8,10.8
	C105.2,199.2,105,199,104.5,197.6z"/>
<path fill="#FFFFFF" stroke="#000000" stroke-miterlimit="10" d="M182.5,302.5c-14-3.2-22.4-9.1-24.9-8.2l-0.2-0.899
	c-3.6-1.899-6.9-4-10-6.199c-39.7-27.9-41.9-75.6-41.7-88.7c0-0.7,0-1.3,0-1.8h0.2c1.2-23.7,77.8-56.6,80.7-56.8
	c8.7-0.7,2.6-1.8,6.8,1.1c5.2,3.6,1.8,9.6,6,14.4c4.2,4.8,29.6-31.1,29.6-31.1C355.7,15.6,529,18.6,454.2,48.2
	c-7.5,3-56,21.4-89.9,39L335.4,125.6c0,0-20,20.5-30.801,28.9c-10.8,8.4-17.8,18.5-15.7,22c4.2,7.2,27.1,31.9,135.9,112.7
	c23.102,17.2-15.5,26.2-61.2,24.6c-3-1.399-4.698-2.1-4.898-2.2C355.5,310.5,194.5,305.3,182.5,302.5z"/>
<ellipse fill="#FFFFFF" stroke="#000000" stroke-width="3" stroke-miterlimit="10" cx="102.9" cy="62.5" rx="1.9" ry="1.9"/>
</svg>
