<?xml version="1.0" encoding="utf-8"?>
<!-- Generator: Adobe Illustrator 15.0.0, SVG Export Plug-In . SVG Version: 6.00 Build 0)  -->
<!DOCTYPE svg PUBLIC "-//W3C//DTD SVG 1.1//EN" "http://www.w3.org/Graphics/SVG/1.1/DTD/svg11.dtd">
<svg version="1.1" id="layer_x5F_www.ABC-color.com"
	 xmlns="http://www.w3.org/2000/svg" xmlns:xlink="http://www.w3.org/1999/xlink" x="0px" y="0px" width="822px" height="567px"
	 viewBox="0 0 822 567" enable-background="new 0 0 822 567" xml:space="preserve">
<path fill="#FFFFFF" stroke="#000000" stroke-miterlimit="10" d="M430.2,32.5l-19,63.4c-6.8-2.4-15.8-4.3-27.602-5.1L364,37.5l24,16
	l10.5-23.9l9.6,23.9L430.2,32.5z"/>
<path fill="#FFFFFF" stroke="#000000" stroke-miterlimit="10" d="M421.3,115.4c0.8,0,1.4-0.9,1.4-2.1c0-1.1-0.602-2-1.4-2
	s-1.398,0.9-1.398,2C419.9,114.5,420.5,115.4,421.3,115.4z M425.5,113.8c1.3,2.5,2.5,4.8,1.2,6.1c-1.9,1.9-5.8-1.5-5.9-1.5
	c-2-2.1-8.3-9.2-7-10.5C415.1,106.6,422,107.2,425.5,113.8z"/>
<path fill="#FFFFFF" stroke="#000000" stroke-miterlimit="10" d="M454,163.7c-2.5,2.2-8.6-1.5-8.6-1.5
	c-2.802-3-24.602-13.5-42.102-21.8c13.102,3.9,17.3-5.2,17.3-5.2c1.802-2.8-3.6-10.7-5.5-13.3c3.802,4.7,8,1,8,1
	c1.4,1.9,8.602,0.8,8.602,0.8c2.5,6.4,21.6,34.4,21.6,34.4C454.8,159.9,454,163.7,454,163.7z M428.2,134.5c0,0,1.8,6,4.3,6
	C432.5,140.5,432.1,133.4,428.2,134.5z"/>
<path fill="#FFFFFF" stroke="#000000" stroke-miterlimit="10" d="M550.5,206.5c0,0,36-29,66,6.9c-23.3,106-90.9,187.2-174.5,206.5
	c29.4-19.5,40.7-46,14.5-107.4c-11.3-26.5-94-101-94-101c-3.3-4-6.2-7.8-8.7-11.5l0.7-0.5c0,0,40,32,69,4c0,0,38-19,65,5
	C488.5,208.5,521.5,238.5,550.5,206.5z"/>
<path fill="#FFFFFF" stroke="#000000" stroke-miterlimit="10" d="M331.4,250.4c0,0,155.1,126.7,41.8,162.7
	c-86.1-19.3-155.4-104.3-177.1-214.6l0.3-0.1c0,0,28-24,60,4c0,0,26,14,43-2l2-0.7C306.5,214.8,316,231.6,331.4,250.4z"/>
<path fill="#FFFFFF" stroke="#000000" stroke-miterlimit="10" d="M423.1,122.9c0,0-4.198,3.7-8-1c1.9,2.7,7.2,10.6,5.5,13.3
	c0,0-4.198,9.1-17.3,5.2c-0.7-0.3-1.3-0.6-1.898-0.9c-17-8-32.9-15.1-32.9-15.1S312,139.3,353.8,200c2.5,3.7,5.4,7.5,8.7,11.5
	c0,0,82.8,74.5,94,101c26.1,61.5,14.9,87.9-14.5,107.4c83.6-19.2,151.2-100.4,174.5-206.5c5.7-25.9,8.8-53.4,8.8-81.7
	c0-39.8-6-77.7-16.898-112.3c0,0,20.3,2.1,31.8,23l1-22c0,0,24.898-3,25.898,45.9l19.2-25.9c0,0,17.3,2,6.7,56.9l23-23.9
	c0,0,13.4,33.9,1.9,66.8l19.198-20c0,0,18.2,38.9,0,66.8l24.9-23.9c0,0,1.9,37.9-16.3,59.8l30.7-18c0,0,1,1.9-0.7,9.3
	c-1.602,6.9-5.5,18.4-14.7,37.6l23-12c0,0,5.8,37.9-21.1,63.8l23-11c0,0,13.398,28.9-28.802,58.801l22,2
	c0,0-13.398,41.899-43.1,51.899c0,0,24.3,2.102,30.4,1.602c-4,4.698-14.5,31.898-47.7,36.3l20.1,7c0,0-23,30.898-47,32.898l22,10
	c0,0-48.898,24.9-72.898,24.9l29.698,8c0,0-25.898,21-93,31.9c0,0-57.398-27.9-119.698-1c-33.4-32.9-95.9-6-95.9-6
	c-62.3-26.9-125.6,0-125.6,0c-67.1-11-93-31.9-93-31.9l29.7-8c-24,0-72.9-24.9-72.9-24.9l22.1-10c-24-2-47-32.898-47-32.898l20.1-7
	c-33.2-4.4-43.7-31.602-47.7-36.3c6.1,0.5,30.4-1.602,30.4-1.602C48.4,388.3,35,346.4,35,346.4l22.1-2
	c-42.2-29.9-28.8-58.9-28.8-58.9l23,11C24.6,270.9,30.4,233,30.4,233l23,12C34.2,205,38,198.1,38,198.1l30.7,18
	c-4.5-5.4-7.8-11.8-10.2-18.4c-7.2-20-6.1-41.5-6.1-41.5l24.9,23.9c-18.2-27.9,0-66.8,0-66.8l19.2,20c-11.5-32.9,1.9-66.8,1.9-66.8
	l23,23.9c-10.5-54.9,6.7-56.9,6.7-56.9l19.2,25.9c1-48.9,25.9-45.9,25.9-45.9l1,22c11.5-21,31.8-23,31.8-23
	C195.1,47,189,85,189,124.8c0,25.5,2.5,50.2,7.1,73.8c21.7,110.3,90.9,195.3,177.1,214.6c113.398-36-41.8-162.7-41.8-162.7
	c-15.5-18.8-24.9-35.6-29.9-50.6c-27.5-82.6,82-109.1,82-109.1c11.8,0.8,20.8,2.7,27.6,5.1c26.802,9.5,20.602,27.8,20.602,27.8
	S424.6,124.8,423.1,122.9z M415.1,121.9c-0.3-0.4-0.5-0.6-0.6-0.8C414.8,121.4,414.9,121.6,415.1,121.9z M420.8,118.4
	c0.102,0,4,3.4,5.9,1.5c1.3-1.3,0.1-3.6-1.2-6.1c-3.4-6.6-10.4-7.2-11.7-5.9C412.5,109.2,418.8,116.3,420.8,118.4z"/>
<path fill="#FFFFFF" stroke="#000000" stroke-miterlimit="10" d="M403.3,140.4c17.5,8.3,39.3,18.8,42.102,21.8c0,0,6.1,3.7,8.6,1.5
	c0,0,0.7-3.7-0.7-5.6c0,0-19.1-28-21.6-34.4c0,0,6.2-18.3-20.602-27.8l19-63.4l-22.1,21l-9.6-23.9L388,53.4l-24-16l19.5,53.2
	c0,0-109.5,26.5-82,109.1l-2,0.7c-17,16-43,2-43,2c-32-28-60-4-60-4l-0.3,0.1c-4.6-23.6-7.1-48.3-7.1-73.8c0-39.8,6-77.7,16.9-112.3
	c0,0-20.3,2.1-31.8,23l-1-22c0,0-24.9-3-25.9,45.9l-19.2-25.9c0,0-17.3,2-6.7,56.9l-23-23.9c0,0-13.4,33.9-1.9,66.8l-19.2-20
	c0,0-18.2,38.9,0,66.8l-24.9-23.9c0,0-1.1,21.5,6.1,41.5c-5.7-5.1-36.4-30-58.1-0.1V0.5h822v207c-20-23-46,7-46,7l-1-0.1
	c1.698-7.4,0.698-9.3,0.698-9.3l-30.698,18c18.198-21.9,16.3-59.8,16.3-59.8l-24.9,23.9c18.2-27.9,0-66.8,0-66.8l-19.2,20
	c11.5-32.9-1.898-66.8-1.898-66.8l-23,23.9c10.5-54.9-6.7-56.9-6.7-56.9l-19.2,25.9c-0.8-49-25.8-46-25.8-46l-1,22
	c-11.5-21-31.8-23-31.8-23C619.1,54.1,625.1,92,625.1,131.8c0,28.4-3.1,55.8-8.8,81.7c-30-35.9-66-6.9-66-6.9c-29,32-62,2-62,2
	c-27-24-65-5-65-5c-29,28-69-4-69-4l-0.7,0.5c-41.8-60.7,14.7-75.6,14.7-75.6s15.9,7.1,32.9,15.1C402,139.8,402.6,140.1,403.3,140.4
	z"/>
<ellipse fill="#1F1D21" stroke="#000000" stroke-miterlimit="10" cx="421.3" cy="113.5" rx="1.4" ry="2.3"/>
<path stroke="#000000" stroke-miterlimit="10" d="M432.5,140.5c0,0-0.8-6.9-4.3-6C428.2,134.5,431.2,141.3,432.5,140.5z"/>
</svg>
