<?xml version="1.0" encoding="utf-8"?>
<!-- Generator: Adobe Illustrator 15.0.0, SVG Export Plug-In . SVG Version: 6.00 Build 0)  -->
<!DOCTYPE svg PUBLIC "-//W3C//DTD SVG 1.1//EN" "http://www.w3.org/Graphics/SVG/1.1/DTD/svg11.dtd">
<svg version="1.1" id="layer_x5F_www.ABC-color.com"
	 xmlns="http://www.w3.org/2000/svg" xmlns:xlink="http://www.w3.org/1999/xlink" x="0px" y="0px" width="822px" height="567px"
	 viewBox="0 0 822 567" enable-background="new 0 0 822 567" xml:space="preserve">
<path fill="#FFFFFF" stroke="#000000" d="M465.171,390.689c5,6.301,10.4,12.102,15.8,17.301c-1.1,8.699-8.2,59.801-22.898,59.801
	C458.171,467.689,470.071,414.689,465.171,390.689L465.171,390.689z"/>
<path fill="#FFFFFF" stroke="#000000" d="M450.271,326.89c4.802-2.8,7.5-11.8,8.4-23c59.6,31.601,260.5,3.8,260.5,3.8s56,37-28,111
	c0,0-64,82-144,31c0,0-32.9-11.199-63.6-39.398c-0.802-0.801-1.7-1.602-2.5-2.4c-5.5-5.201-10.801-10.9-15.801-17.301
	c-2.8-3.5-5.5-7.1-8-11h-0.199c0.198-2.6,0.3-4,0.3-4c0.3-2.4,0.6-4.9,0.8-7.5c0.8-9.5,0.8-19.8-1.3-27.3
	C455.171,335.49,452.971,330.89,450.271,326.89L450.271,326.89z"/>
<path fill="#FFFFFF" stroke="#000000" d="M458.671,303.89c1.4-17.7-1.9-40.9-9-54l0.6-0.3c0,0,251.9-193,334.9-149c0,0,19,22,2,68
	c0,0-54,139-68,139C719.171,307.689,518.271,335.49,458.671,303.89z"/>
<path fill="#FFFFFF" stroke="#000000" d="M528.271,117.69c10-8,10,3,10,3c-16.1,46.5-98.898,74.4-107.3,77.1
	c-2.2-3.9-4.2-6.9-5.1-8.3C512.271,162.49,528.271,117.69,528.271,117.69z"/>
<path fill="#FFFFFF" stroke="#000000" d="M406.571,188.99c-2.7,3-4.9,5.8-6.802,8.5c-7-2.3-90.3-30.9-106.5-77.9c0,0,0-11,10-3
	C303.271,116.69,319.571,161.99,406.571,188.99z"/>
<path fill="#FFFFFF" stroke="#000000" d="M430.971,197.79c7.102,12.3,16.8,33.5,4.4,39.8c-16.102-7.8-29.3-5.6-38.4-1.5l-0.1-0.1
	c0,0-13.7-14.3,2.898-38.5c1.9-2.7,4.102-5.6,6.802-8.5c0,0,5.698-9.3,18.698-0.3c0,0,0.2,0.3,0.602,0.8
	C426.771,190.89,428.671,193.89,430.971,197.79z"/>
<path fill="#FFFFFF" stroke="#000000" d="M450.171,326.99c-16-22.2-49.3-19.801-62.8-1.2c-5.3-6.2-8.7-13.7-10.602-21.601
	c-5.3-21.2-0.398-45.7,6.5-58.5c0,0,4.9-5.6,13.7-9.6c9.102-4.1,22.3-6.3,38.4,1.5c2.3,1.1,4.7,2.5,7.2,4.1c2.698,1.7,5,4.6,7,8.3
	c7.198,13,10.398,36.3,9,54C457.771,315.09,455.071,324.09,450.171,326.99L450.171,326.99z"/>
<path fill="#FFFFFF" stroke="#000000" d="M387.371,325.79c13.5-18.601,46.8-21,62.8,1.2c2.8,3.899,5.1,8.5,6.6,13.899
	c2.102,7.5,2.2,17.8,1.302,27.3h-0.602c-50-28-79.3,0.5-79.3,0.5c-1-13.8-0.8-28.1,8.5-42
	C386.971,326.39,387.171,326.09,387.371,325.79z"/>
<path fill="#FFFFFF" stroke="#000000" d="M381.271,400.29c-0.898-6.8-1.6-14.2-2.3-22.2c-0.3-3-0.5-6.2-0.7-9.4
	c0,0,29.302-28.5,79.302-0.5h0.6c-0.2,2.601-0.5,5.101-0.8,7.5c0,0-0.102,1.5-0.3,4c-0.302,4.602-1,12.9-2.102,22.7
	C425.871,384.59,388.071,397.689,381.271,400.29z"/>
<path fill="#FFFFFF" stroke="#000000" d="M381.271,400.29c6.7-2.601,44.602-15.601,73.5,2.2c-1,8.398-2.3,18-4.198,27.6
	c-20.9-12.2-57.602-1.8-64.302,0.3C384.471,421.79,382.771,411.89,381.271,400.29z"/>
<path fill="#FFFFFF" stroke="#000000" d="M386.371,430.29c6.8-2.101,43.398-12.5,64.3-0.3c-1.8,9.398-4,18.699-6.8,26.699h-0.601
	c-19.8-10.3-46.6-2.399-49.699-1.399C390.971,448.689,388.571,440.49,386.371,430.29z"/>
<path fill="#FFFFFF" stroke="#000000" d="M443.871,456.689c-5.5,16-13.102,27-23.602,24c0,0-14.3,6.5-26.698-25.398
	c3.1-1,30-8.9,49.698,1.398H443.871z"/>
<path fill="#FFFFFF" stroke="#000000" d="M371.271,388.689c-4,45,7,77,7,77c-14.6,0-21.698-50.898-22.8-59.699l0,0
	C360.771,400.79,366.171,394.99,371.271,388.689L371.271,388.689z"/>
<path fill="#FFFFFF" stroke="#000000" d="M117.271,305.689c0,0,196.3,27.601,259.5-1.5c2,7.9,5.4,15.4,10.602,21.601
	c-0.2,0.3-0.4,0.6-0.602,0.899c-9.3,13.9-9.5,28.2-8.5,42c0.2,3.2,0.5,6.301,0.7,9.4c-2.5,3.7-5.1,7.2-7.8,10.6
	c-5,6.301-10.4,12.102-15.9,17.301c-0.8,0.801-1.698,1.601-2.5,2.399c-30.7,28.2-63.6,39.4-63.6,39.4c-80,51-144-31-144-31
	C61.271,342.689,117.271,305.689,117.271,305.689z"/>
<path fill="#FFFFFF" stroke="#000000" d="M383.271,245.69c-6.898,12.8-11.8,37.3-6.5,58.5c-63.2,29.101-259.5,1.5-259.5,1.5
	c-14,0-68-139-68-139c-17-46,2-68,2-68C134.271,54.69,383.271,245.69,383.271,245.69z"/>
</svg>
