<?xml version="1.0" encoding="utf-8"?>
<!-- Generator: Adobe Illustrator 15.0.0, SVG Export Plug-In . SVG Version: 6.00 Build 0)  -->
<!DOCTYPE svg PUBLIC "-//W3C//DTD SVG 1.1//EN" "http://www.w3.org/Graphics/SVG/1.1/DTD/svg11.dtd">
<svg version="1.1" id="layer_x5F_www.ABC-color.com"
	 xmlns="http://www.w3.org/2000/svg" xmlns:xlink="http://www.w3.org/1999/xlink" x="0px" y="0px" width="822px" height="567px"
	 viewBox="0 0 822 567" enable-background="new 0 0 822 567" xml:space="preserve">
<path fill="#FFFFFF" stroke="#000000" d="M417.5,248.6c0,0,43,19.6,37.5,25.7c-5,5.5-0.5,15.8,0,16.7c-0.6-1.2-5.5,1.4-8.1,11
	c-2.602,9.6-24.5-4.6-24.5-4.6S374.8,264.2,372.2,259.3c-2.602-4.9,0.3-11.8,0.3-11.8L417.5,248.6z"/>
<path fill="#FFFFFF" stroke="#000000" d="M505.6,394.7C548.7,440.1,454,434,454,414.7c0-26.2-26.2-52.4-26.2-52.4L383.9,282.2
	L439.3,313C439.3,313.1,473.1,360.5,505.6,394.7z"/>
<path fill="#FFFFFF" stroke="#000000" d="M542.2,356c25.398,51.1-23.102,20.5-23.102,20.5S446.4,325,451.6,312.3
	C456.8,299.6,466.2,298.4,466.2,298.4S516.8,304.9,542.2,356z"/>
<path fill="#FFFFFF" stroke="#000000" d="M555.6,326.1c0.802-5.398-80.898-30.8-92.398-38.5c-11.5-7.7,4.6-16.898,4.6-16.898
	s57,4.6,90.102,16.199C591,298.4,554.8,331.5,555.6,326.1z"/>
<path fill="#FFFFFF" stroke="#000000" d="M535.6,244.5c31.602,4.6,17.7,25.4,13.102,25.4c-4.602,0-90.9-8.5-90.9-8.5L444,249.9
	C464,238.4,533.3,244.2,535.6,244.5z"/>
<path fill="#FFFFFF" stroke="#000000" d="M455,291c-0.5-1-5-11.3,0-16.7c5.5-6.1-37.5-25.7-37.5-25.7l-45-1.2c0,0-2.9,6.9-0.3,11.8
	c2.6,4.9,50.2,38.1,50.2,38.1s21.898,14.2,24.5,4.601C449.5,292.3,454.4,289.9,455,291z M614.1,340.3l-14.698,4.2
	c0,0-19.602,9.8-14.7,38.5c4.898,28.7-16.8,25.9-16.8,25.9s5.6,14-7.7,19.6s-4.2,27.3-4.2,27.3s2.8,32.9,33.6,63
	c30.802,30.102-10.5,27.3-16.1,2.8s-39.9-79.8-39.9-79.8s-7.7,12.601-22.4,5.601S474.8,455.8,474.1,460c-0.698,4.2-14-3.5-8.398-8.4
	c5.6-4.898,4.7-21.3-7.9-19.198c-12.6,2.1-22.2-6.802-22.2-6.802s5.602-41.3-6.3-45.5c-11.898-4.199-48.3-96.6-54.6-96.6
	s-14-1.7-14-1.7h-0.2c0-6.8,0.1-15,0.2-24.6l0,0c0-2.3,0-4.8,0.1-7.3c0.102-5.3,0.102-11.1,0.2-17.3h0.9
	c110.898,6.9,165.6,0.9,186.698-2.8c4.102,2.8,42.9,29.4,54.2,59.3c0,0-14,27.301-4.2,39.9C608.1,341,613.6,340.4,614.1,340.3z
	 M555.6,326.1c-0.8,5.4,35.4-27.699,2.302-39.3C524.8,275.2,467.8,270.6,467.8,270.6s-16.2,9.2-4.6,16.9
	C474.8,295.3,556.4,320.8,555.6,326.1z M548.7,269.9c4.6,0,18.5-20.8-13.102-25.4c-2.3-0.3-71.6-6.2-91.6,5.4l13.9,11.5
	C457.8,261.5,544.1,269.9,548.7,269.9z M519.1,376.5c0,0,48.5,30.6,23.102-20.5c-25.4-51.1-75.9-57.6-75.9-57.6
	S456.9,299.6,451.7,312.3S519.1,376.5,519.1,376.5z M454,414.7c0,19.3,94.7,25.398,51.6-20C473.1,360.5,439.4,313.1,439.4,313.1
	L384,282.3l43.9,80.101C427.8,362.3,454,388.5,454,414.7z"/>
<path fill="#FFFFFF" stroke="#000000" d="M513.3,207.6c49.8,23.8,0,13.1-6.2,13.9c-1.698,0.2-57.8,12.3-135.5,2.3
	C371.6,223.7,460.1,182.2,513.3,207.6z"/>
<path fill="#FFFFFF" stroke="#000000" d="M372.4,208.3C499.4,99,553.3,192.1,553.3,192.1s17.7,30.8-20.8,7.7
	C492.2,175.7,354,213.6,372.4,208.3z"/>
<ellipse fill="#FFFFFF" stroke="#000000" cx="618.7" cy="57" rx="30" ry="35.8"/>
<path fill="#FFFFFF" stroke="#000000" d="M598,129c0,0,10.8,101.6-35.4,24.6C516.7,77,385.5,185.4,384,186.7
	C506.3,1.2,574.9,92.1,574.9,92.1L598,129z"/>
<path fill="#FFFFFF" stroke="#000000" d="M548.7,229.9c-21.102,3.7-75.8,9.7-186.7,2.8h-0.9c0-2.9,0.102-5.8,0.102-8.9
	c0-2,0.1-4.1,0.1-6.2c0.102-4.4,0.2-9,0.2-13.9l-2.9-5.1c2.302-2.4,4.2-5.6,4.9-9.6c0,0,148.4-249.9,317.101-174.3l4.199,6.3
	c0,0-47.6,158.2-68.6,177.1s-38.5,7.7-38.5,7.7s-16.102,8.4-9.102,19.6c7,11.2-9.1,2.1-9.1,2.1S556.3,228.6,548.7,229.9z
	 M383.9,186.8c1.5-1.3,132.698-109.6,178.6-33.1c46.2,77,35.4-24.6,35.4-24.6l-23.102-37C574.9,92.1,506.3,1.2,383.9,186.8z
	 M648.8,57c0-19.8-13.398-35.8-30-35.8c-16.6,0-30,16-30,35.8s13.4,35.8,30,35.8C635.4,92.8,648.8,76.8,648.8,57z M532.5,199.9
	c38.5,23.1,20.8-7.7,20.8-7.7S499.4,99,372.4,208.3C354,213.6,492.2,175.7,532.5,199.9z M507.1,221.4c6.2-0.8,56,10,6.2-13.9
	c-53.1-25.4-141.7,16.2-141.7,16.2C449.3,233.7,505.4,221.6,507.1,221.4z"/>
<path fill="#FFFFFF" stroke="#000000" d="M403.5,78.3c0.4-0.3,0.8-0.6,1.2-0.9c5.898-4,12.2-5.1,14.1-2.4c1.8,2.7,1.102,3.8-4.8,7.8
	c-4.1,2.8-7.2,2.6-10.4,3.8c-4.898,3.6-25.698,29.7-55.8,81.6c-0.8-0.4-1.5-0.7-2.2-0.9C348,162.9,393.9,80.8,403.5,78.3z"/>
<path fill="#FFFFFF" stroke="#000000" d="M282,79c9.6,2.6,55,84.7,57.2,88.7c-1.3,0.8-1.8,1.7-1.8,1.7
	c-30.2-51.9-48.602-78.4-53.5-82c-1.2-0.5-7.8-0.7-11.9-3.5c-5.9-4-7-5.5-5.2-8.2c1.8-2.7,8.1-1.7,14.1,2.4
	C281.2,78.4,281.6,78.7,282,79z"/>
<path fill="#FFFFFF" stroke="#000000" d="M352.7,171.8c1.8,1.7,3.898,4,6,7.3l-0.602,0.4c-3.8,1.5-12.8,9.4-6.198-7.3L352.7,171.8z"
	/>
<path fill="#FFFFFF" stroke="#000000" d="M332.7,172c10.398,18.1-7.3,8.6-7.3,8.6l0,0C327.7,176.3,330.4,173.6,332.7,172z"/>
<path fill="#FFFFFF" stroke="#000000" d="M363.6,189L363.6,189c-0.698,4-2.6,7.1-4.898,9.6C353.6,204,346,206,342,206
	c-8.8-0.6-13.8-3.3-16.6-6.4c-4.2-4.6-3.5-9.8-3.5-9.8c0.898-3.7,2.1-6.7,3.5-9.2l0,0c0,0,17.698,9.4,7.3-8.6c2.6-2,4.7-2.5,4.7-2.5
	s0.6-0.9,1.8-1.7c1.3-0.8,3.398-1.4,6.3-0.4c0.7,0.2,1.4,0.5,2.2,0.9c0,0,2.1,0.8,5,3.5l-0.8,0.4c-6.7,16.7,2.3,8.8,6.198,7.3
	l0.602-0.4C360.4,181.7,362.1,185,363.6,189z"/>
<path fill="#FFFFFF" stroke="#000000" d="M358.7,198.6l2.898,5.1c-0.1,4.8-0.198,9.4-0.198,13.9h-0.2c-23.102,22.7-37,0.8-37,0.8
	H323.6c0.102-4.6,0.102-9.6,0.2-15l1.2-3.5l0.4-0.2c2.8,3,7.8,5.8,16.6,6.4C345.9,206,353.5,204,358.7,198.6z"/>
<path fill="#FFFFFF" stroke="#000000" d="M361.2,217.6h0.2c0,2.1-0.102,4.2-0.102,6.2c-3.398,2.4-13.8,9.6-20.8,9.6
	c-5.6,0-14.1-5.4-16.9-9c0-1.9,0.102-3.9,0.102-6h0.6C324.2,218.3,338.1,240.3,361.2,217.6z"/>
<path fill="#FFFFFF" stroke="#000000" d="M361.2,223.8c0,3.1-0.102,6-0.102,8.9c-0.1,6.2-0.198,12-0.198,17.3h-0.5
	c-22.802,20.6-35.7,0.8-37.2-1.7c0-4.2,0.1-9.1,0.2-14.8c0-2.8,0.1-5.8,0.1-9.1c2.8,3.6,11.3,9,16.9,9
	C347.4,233.4,357.9,226.2,361.2,223.8z"/>
<path fill="#FFFFFF" stroke="#000000" d="M360.9,249.9c0,2.5-0.102,5-0.102,7.3l0,0c-0.2,0.5-5,11.2-20.8,11.9
	c-14.1-0.7-16.5-10.1-16.9-12.5l0,0c0-2.4,0-5.2,0.102-8.4c1.5,2.5,14.398,22.3,37.2,1.7H360.9L360.9,249.9z"/>
<path fill="#FFFFFF" stroke="#000000" d="M360.8,257.2c-0.1,9.7-0.2,17.8-0.2,24.6c0,0.5,0,0.9,0,1.3c-20.3,18.9-37.5,0.8-37.5,0.8
	c0-8.8-0.1-12.3,0.102-27.4c0.398,2.4,2.8,11.9,16.898,12.5C355.8,268.4,360.6,257.7,360.8,257.2z"/>
<path fill="#FFFFFF" stroke="#000000" d="M366.2,311.1c-17.7-20.8-48.102,0.4-48.102,0.4c1.5-11.5,3.4-21,5-27.5
	c0,0,17.2,18.2,37.5-0.8c0-0.4,0-0.9,0-1.3h0.2c1.8,6,4,15.9,5.8,29.2H366.2L366.2,311.1z"/>
<path fill="#FFFFFF" stroke="#000000" d="M369.3,344.2H368.9C349.3,309.9,315.8,341.1,315.8,341.1h-0.3c0.5-10.8,1.4-20.8,2.6-29.6
	c0,0,30.4-21.2,48.102-0.4l0.398-0.1C367.9,320.5,368.9,331.6,369.3,344.2z"/>
<path fill="#FFFFFF" stroke="#000000" d="M369.3,344.2c0.102,3.7,0.2,7.5,0.2,11.399c0,17-1.1,32.101-3.2,44.801h-0.1
	c-27.7-40.4-48.9-3.802-48.9-3.802h-0.1c-1.3-10.898-2.102-24.1-2.102-40.198c0-5.2,0.102-10.301,0.302-15.301h0.3
	c0,0,33.5-31.199,53.1,3.101H369.3z"/>
<path fill="#FFFFFF" stroke="#000000" d="M366.2,400.4h0.1C361.7,429.8,352.4,447,341.9,447c-2.4,0-18.802-1.2-24.7-50.4h0.1
	C317.3,396.6,338.5,360,366.2,400.4z"/>
<path fill="#FFFFFF" stroke="#000000" d="M301.5,283l-43.9,80.1c0,0-26.2,26.2-26.2,52.4c0,19.3-94.7,25.4-51.6-20
	c32.5-34.2,66.2-81.6,66.2-81.6L301.5,283z"/>
<path fill="#FFFFFF" stroke="#000000" d="M233.8,313.1c5.2,12.7-67.5,64.2-67.5,64.2s-48.5,30.602-23.1-20.5
	c25.4-51.1,75.9-57.6,75.9-57.6S228.6,300.4,233.8,313.1z"/>
<path fill="#FFFFFF" stroke="#000000" d="M313,248.2c0,0,2.9,6.9,0.3,11.8c-2.6,4.9-50.3,38.1-50.3,38.1s-21.9,14.102-24.5,4.602
	s-7.5-12.102-8.1-11c0.5-1,5-11.3,0-16.7c-5.5-6.1,37.5-25.7,37.5-25.7L313,248.2z"/>
<path fill="#FFFFFF" stroke="#000000" d="M222.2,288.4c-11.5,7.699-93.2,33.1-92.4,38.5c0.8,5.398-35.4-27.7-2.3-39.301
	s90.1-16.201,90.1-16.201S233.8,280.7,222.2,288.4z"/>
<path fill="#FFFFFF" stroke="#000000" d="M230.4,291.8c0.6-1.2,5.5,1.4,8.1,11c2.6,9.5,24.5-4.6,24.5-4.6s47.6-33.2,50.2-38.1
	c2.6-4.9-0.3-11.8-0.3-11.8l-45,1.2c0,0-43,19.6-37.5,25.7C235.4,280.5,230.8,290.8,230.4,291.8z M323.1,284c0,0-6.1,0.3-12.398,0.3
	c-6.299,0-42.701,92.4-54.601,96.601c-11.9,4.199-6.3,45.5-6.3,45.5s-9.6,8.898-22.2,6.8c-12.6-2.102-13.5,14.2-7.9,19.1
	c5.6,4.9-7.7,12.602-8.4,8.4c-0.7-4.2-22.4-19.602-37.1-12.602c-14.7,7-22.4-5.6-22.4-5.6s-34.3,55.3-39.9,79.8s-46.9,27.3-16.1-2.8
	c30.8-30.1,33.6-63,33.6-63s9.1-21.7-4.2-27.3c-13.3-5.602-7.7-19.602-7.7-19.602S95.8,412.4,100.7,383.7
	C105.6,355,86,345.2,86,345.2L71.3,341c0.5,0.1,6.1,0.8,15.4-11.2c9.8-12.6-4.2-39.899-4.2-39.899
	c11.3-29.899,50.3-56.601,54.3-59.299c21.1,3.6,75.8,9.7,186.7,2.8l0,0c-0.1,5.7-0.1,10.6-0.2,14.8c0,3.1-0.1,5.9-0.1,8.4l0,0
	C323,271.7,323.1,275.2,323.1,284z M257.6,363.1l43.9-80.1l-55.4,30.8c0,0-33.7,47.4-66.2,81.601
	c-43.1,45.399,51.6,39.301,51.6,20.001C231.4,389.3,257.6,363.1,257.6,363.1z M227.6,262.2l13.9-11.5c-20-11.6-89.3-5.7-91.6-5.4
	c-31.6,4.6-17.7,25.4-13.1,25.4C141.4,270.7,227.6,262.2,227.6,262.2z M166.3,377.3c0,0,72.7-51.5,67.5-64.2
	c-5.2-12.699-14.6-13.898-14.6-13.898s-50.5,6.398-75.9,57.6C117.9,408,166.3,377.3,166.3,377.3z M222.2,288.4
	c11.6-7.7-4.6-16.9-4.6-16.9s-57,4.6-90.1,16.2c-33.1,11.6,3.1,44.7,2.3,39.3C129,321.5,210.7,296.1,222.2,288.4z"/>
<path fill="#FFFFFF" stroke="#000000" d="M241.4,250.7l-13.9,11.5c0,0-86.2,8.5-90.9,8.5c-4.6,0-18.5-20.8,13.1-25.4
	C152.1,245,221.4,239.1,241.4,250.7z"/>
<path fill="#FFFFFF" stroke="#000000" d="M313.8,224.5c-77.8,10-133.8-2.1-135.5-2.3c-6.2-0.8-56,10-6.2-13.9
	C225.3,182.9,313.8,224.5,313.8,224.5z"/>
<path fill="#FFFFFF" stroke="#000000" d="M313.1,209.1c18.302,5.3-119.8-32.7-160.2-8.5c-38.5,23.1-20.8-7.7-20.8-7.7
	S186,99.8,313.1,209.1z"/>
<path fill="#FFFFFF" stroke="#000000" d="M301.5,187.5c-1.5-1.3-132.7-109.6-178.6-33.1c-46.2,77-35.4-24.6-35.4-24.6l23.1-37
	C110.5,92.8,179.1,2,301.5,187.5z"/>
<path fill="#FFFFFF" stroke="#000000" d="M136.7,230.6c-7.6-1.3-10.9-2.3-10.9-2.3s-16.1,9.1-9.1-2.1c7-11.2-9.1-19.6-9.1-19.6
	s-17.5,11.2-38.5-7.7S0.5,21.8,0.5,21.8l4.2-6.3c168.7-75.6,317.1,174.3,317.1,174.3s-0.7,5.3,3.5,9.8l-0.398,0.2l-1.2,3.5
	c-0.102,5.4-0.2,10.4-0.2,15c0,2.1-0.1,4.1-0.1,6c0,3.2-0.102,6.2-0.102,9.1l0,0C212.5,240.3,157.9,234.3,136.7,230.6z M301.5,187.5
	C179.1,2,110.5,92.8,110.5,92.8l-23.1,37c0,0-10.8,101.6,35.4,24.6C168.8,77.9,300,186.3,301.5,187.5z M152.9,200.6
	c40.3-24.2,178.5,13.8,160.2,8.5c-127.1-109.3-181-16.2-181-16.2S114.4,223.7,152.9,200.6z M178.3,222.2
	c1.7,0.2,57.8,12.3,135.5,2.3c0,0-88.6-41.6-141.7-16.2C122.3,232.2,172.1,221.4,178.3,222.2z M96.7,57.8C96.7,38,83.2,22,66.7,22
	c-16.6,0-30,16-30,35.8c0,19.8,13.4,35.8,30,35.8C83.2,93.6,96.7,77.6,96.7,57.8z"/>
<ellipse fill="#FFFFFF" stroke="#000000" cx="66.7" cy="57.8" rx="30" ry="35.8"/>
</svg>
