<?xml version="1.0" encoding="utf-8"?>
<!-- Generator: Adobe Illustrator 15.0.0, SVG Export Plug-In . SVG Version: 6.00 Build 0)  -->
<!DOCTYPE svg PUBLIC "-//W3C//DTD SVG 1.1//EN" "http://www.w3.org/Graphics/SVG/1.1/DTD/svg11.dtd">
<svg version="1.1" id="layer_x5F_www.ABC-color.com"
	 xmlns="http://www.w3.org/2000/svg" xmlns:xlink="http://www.w3.org/1999/xlink" x="0px" y="0px" width="822px" height="567px"
	 viewBox="0 0 822 567" enable-background="new 0 0 822 567" xml:space="preserve">
<path fill="#FFFFFF" stroke="#000000" d="M652.765,274.924c16,2.701,10,28.701,10,28.701s-1.7,4.699-4.8,12.199l-1.2-0.199
	c-15.3,7.3-26-2-26-2h-0.1c3.8-17.801,1.1-31,0.8-32.5l-0.1-2.101c4.698-0.2,8.698-0.601,11.6-1.101c3.3-0.6,6.5-2,9.4-3.699
	L652.765,274.924z"/>
<path fill="#FFFFFF" stroke="#000000" d="M656.765,315.524l1.2,0.2c-3.5,8.7-8.9,21.2-15.6,34.6l-0.302-0.2
	c-12,6.7-22.698-7.3-22.698-7.3l-0.5-0.3c6.3-10.2,9.8-20.2,11.698-29.101h0.102C630.765,313.524,641.465,322.925,656.765,315.524z"
	/>
<path fill="#FFFFFF" stroke="#000000" d="M617.564,392.824c1.5-17-12.698-30.6-12.698-30.6l-0.802-0.7
	c6.2-6.3,11.102-12.6,14.9-18.9l0.5,0.301c0,0,10.7,14,22.7,7.301l0.3,0.199C635.365,364.624,626.865,379.925,617.564,392.824z"/>
<path fill="#FFFFFF" stroke="#000000" d="M580.765,380.124c2.8,5.801,14.3,30.9,6.102,36.801v0.101
	c-28.2,10.601-61.602,4.7-64.102,4.2c0-0.4,0.102-0.801,0.102-1.2c0,0-2-5-6.5-13.3
	C543.665,399.624,564.564,390.324,580.765,380.124z"/>
<path fill="#FFFFFF" stroke="#000000" d="M604.765,362.225c0,0,14.2,13.6,12.7,30.6c-1.3,1.9-2.7,3.7-4.1,5.4
	c-7.102,9-16.5,15-26.602,18.7v-0.101c8.2-5.899-3.3-31-6.1-36.8c9.2-5.9,16.8-12,23-18.3c0.1-0.101,0.2-0.2,0.3-0.3
	L604.765,362.225z"/>
<path fill="#FFFFFF" stroke="#000000" d="M516.365,406.624c-3-5.5-7.102-12.6-12.4-20.6c11.6-2.1,107.5-21.9,106.2-107.7
	c7.3,0.801,14.898,0.9,21.2,0.6l0,0l0.1,2.101c0.3,1.5,3.1,14.7-0.8,32.5c-1.9,8.8-5.5,18.8-11.7,29.1
	c-3.9,6.301-8.8,12.602-14.9,18.9c-0.1,0.1-0.198,0.2-0.3,0.3c-6.3,6.3-13.898,12.5-23,18.3
	C564.564,390.324,543.665,399.624,516.365,406.624L516.365,406.624z"/>
<path fill="#FFFFFF" stroke="#000000" d="M541.765,330.824c-4.8,0.3-9.898-1.5-14.398-4.899c-4.7-10.3-0.9-22.3,8.698-26.8
	c6.9-3.199,14.802-1.699,20.602,3.301h0.2c2.3,8.899,0.698,17.6-4.102,22.999c-1.7,1.5-3.5,2.699-5.6,3.601
	C545.365,329.925,543.564,330.524,541.765,330.824z"/>
<path fill="#FFFFFF" stroke="#000000" d="M556.865,302.524h-0.2c-5.7-5-13.7-6.5-20.602-3.3c-9.5,4.5-13.398,16.4-8.698,26.8
	c-3.9-3-7.4-7.3-9.802-12.5c-6.3-13.5-3.1-28.399,7.102-33.101c10.2-4.699,23.7,2.301,30,15.9
	C555.564,298.324,556.265,300.424,556.865,302.524z"/>
<path fill="#FFFFFF" stroke="#000000" d="M527.365,326.024c4.5,3.4,9.6,5.2,14.398,4.9c-12.898,2.6-27.398-5.7-34.2-20.4
	c-7.8-16.8-2.898-35.8,11.2-42.3c14-6.5,31.7,1.8,39.602,18.699c6.698,14.4,4.1,30.301-5.602,38.7c4.8-5.398,6.4-14.1,4.102-22.999
	c-0.5-2.101-1.302-4.201-2.2-6.201c-6.3-13.5-19.7-20.6-30-15.899s-13.4,19.601-7.102,33.101
	C519.965,318.725,523.465,323.024,527.365,326.024z"/>
<path fill="#FFFFFF" stroke="#000000" d="M433.365,242.924c4.3-0.2,38.898-1,78,5.3c24.398,4,50.6,10.7,72.398,22.3
	c1.102,0.6,2.102,1.1,3.2,1.8c5.9,3.3,14.4,5.2,23.1,6.1c1.302,85.9-94.6,105.7-106.198,107.7c-10.4-15.699-25.5-35.3-46.4-55.1
	C449.765,257.824,438.365,244.924,433.365,242.924z M552.765,325.425c9.602-8.4,12.3-24.3,5.602-38.7
	c-7.9-16.9-25.602-25.2-39.602-18.7s-19,25.5-11.2,42.3c6.9,14.8,21.302,23,34.2,20.4c2-0.101,3.9-0.601,5.7-1.5
	C549.564,328.425,551.265,327.124,552.765,325.425z"/>
<path fill="#FFFFFF" stroke="#000000" d="M391.365,268.424c0,0,6.3-29.6,39.6-25.8l0,0c0.1-0.1,1-0.3,2.4,0.3
	c4.898,2,16.398,14.9,24.1,88.1c-13.3-12.7-29-25.399-47.3-37.399c0,0-9.3-11.101-19.2-24.301
	C391.265,268.725,391.365,268.424,391.365,268.424z"/>
<path fill="#FFFFFF" stroke="#000000" d="M419.865,376.124c1,2.2,1.8,4.5,2.398,6.801c-5.7-4.5-13.3-5.801-19.898-2.801
	c-9.4,4.4-13.302,16-8.9,26.301c-4.3-3-8-7.5-10.6-13c-6.302-13.5-3.102-28.399,7.1-33.199
	C400.165,355.524,413.564,362.624,419.865,376.124z"/>
<path fill="#FFFFFF" stroke="#000000" d="M393.365,406.425c6.1,4.398,13.3,5.699,19.398,2.898c8.5-4,12.2-15,9.5-26.398
	c-0.5-2.301-1.3-4.5-2.398-6.801c-6.302-13.5-19.7-20.601-30-15.899c-10.2,4.8-13.4,19.6-7.102,33.2
	C385.365,398.925,389.165,403.425,393.365,406.425z M411.564,410.524c-14,6.5-31.698-1.8-39.6-18.7c-7.9-16.8-2.9-35.8,11.1-42.3
	s31.7,1.8,39.602,18.7C430.564,385.024,425.564,404.024,411.564,410.524z"/>
<path fill="#FFFFFF" stroke="#000000" d="M422.265,382.925c2.7,11.399-0.899,22.399-9.5,26.399c-6,2.8-13.2,1.5-19.398-2.899
	c-4.4-10.199-0.5-21.899,8.898-26.301C408.965,377.124,416.564,378.425,422.265,382.925z"/>
<path fill="#FFFFFF" stroke="#000000" d="M477.265,460.225c15.5-13.3,29-30.7,39-53.5l0,0c4.5,8.3,6.5,13.3,6.5,13.3
	c0,0.4,0,0.8-0.1,1.2c-1.2,17.5-10.8,35.398-23.9,51.1l0,0c-10.7,3.3-20-11.3-20-11.3L477.265,460.225z"/>
<path fill="#FFFFFF" stroke="#000000" d="M498.865,472.225c-15,17.898-34.4,33-51,41.3l0,0l-0.302-0.7c-14,3.3-19.3-24.7-19.3-24.7
	v-0.199c17.3-6,34.102-14.9,49.2-27.802l1.5,0.7C478.765,460.925,488.165,475.524,498.865,472.225L498.865,472.225z"/>
<path fill="#FFFFFF" stroke="#000000" d="M447.765,513.624c-4.398,2.2-8.5,3.9-12.398,5.2c-14.4,4.5-35.9,4.9-58,4v-1.1
	c8-4,5.3-22.7,5.3-22.7l-0.102-0.8c14.7-1.602,30.2-4.7,45.4-10.102v0.2c0,0,5.3,28,19.3,24.7L447.765,513.624z"/>
<path fill="#FFFFFF" stroke="#000000" d="M330.765,519.624v0.102c-2.3-0.2-4.5-0.3-6.6-0.4c-15.6-0.898-23.6-12.898-27.8-25.6
	c3.4,0.8,16.1,3.398,34,4.898C337.965,512.925,330.865,519.624,330.765,519.624z"/>
<path fill="#FFFFFF" stroke="#000000" d="M382.765,498.925c0,0,2.7,18.698-5.3,22.698v1.102l0,0c-16.1-0.7-32.5-2-46.7-2.9v-0.1
	c0.1,0,7.2-6.7-0.4-21c14.7,1.2,32.9,1.6,52.3-0.602L382.765,498.925z"/>
<path fill="#FFFFFF" stroke="#000000" d="M330.365,498.725c-17.9-1.5-30.6-4.2-34-4.9c-1.8-5.5-2.9-11.2-3.5-16.2
	c4,0.4,179.6,15.4,209.9-91.3c0,0,0.4-0.1,1.102-0.2c5.3,8,9.398,15.102,12.398,20.602l0,0c-10,22.8-23.6,40.3-39,53.5
	c-15.1,12.898-31.899,21.799-49.2,27.799c-15.198,5.3-30.6,8.4-45.398,10.1C363.265,500.324,345.065,499.925,330.365,498.725z"/>
<path fill="#FFFFFF" stroke="#000000" d="M292.065,462.725c9.3,0.7,26.2-28.2,43.6-64c9.8-20.2,19.7-42.5,28.398-63
	c14.2-33.301,25.102-61.5,27.102-66.6c9.898,13.2,19.2,24.299,19.2,24.299c18.3,12,33.898,24.7,47.3,37.4
	c20.898,19.8,36,39.4,46.398,55.101c-0.698,0.1-1.099,0.199-1.099,0.199c-30.3,106.801-205.9,91.7-209.9,91.301
	C291.765,469.124,292.065,462.725,292.065,462.725z M411.564,410.524c14-6.5,19-25.5,11.102-42.3c-7.9-16.8-25.602-25.2-39.602-18.7
	s-19,25.5-11.1,42.3C379.865,408.725,397.564,417.124,411.564,410.524z"/>
<path fill="#FFFFFF" stroke="#000000" d="M288.765,404.024c14.4-0.9,30-2.6,46.9-5.3c-17.3,35.8-34.3,64.7-43.6,64
	c-6,3.5-12.8,5.7-19.9,6.8l-0.2-1.8C271.865,467.824,278.265,440.425,288.765,404.024z"/>
<path fill="#FFFFFF" stroke="#000000" d="M318.165,314.125l45.8,21.699c-8.7,20.4-18.6,42.8-28.4,63c-16.9,2.601-32.5,4.3-46.9,5.3
	C296.565,376.624,306.765,344.024,318.165,314.125z"/>
<path fill="#FFFFFF" stroke="#000000" d="M288.765,404.024c-10.4,36.4-16.8,63.8-16.8,63.8l0.2,1.8c-14.7,2.302-31,0.2-45.6-3.198
	l0.1-0.5c0,0,3.6-25.802,15.5-61.802C256.065,405.024,271.565,405.124,288.765,404.024z"/>
<path fill="#FFFFFF" stroke="#000000" d="M318.165,314.125c-11.4,29.899-21.5,62.499-29.4,89.899c-17.2,1.1-32.7,1-46.6,0
	c9.5-28.8,24.2-64.2,46.7-98.2c20.1,3.2,27.9,7.5,27.9,7.5L318.165,314.125z"/>
<path fill="#FFFFFF" stroke="#000000" d="M226.565,466.324c-23.9-5.6-43.3-14.898-43.3-14.898c6.1-18.102,16.7-36.802,23.9-52.2
	c10.4,2.3,22,4,35,4.898c-11.9,36-15.5,61.802-15.5,61.802L226.565,466.324z"/>
<path fill="#FFFFFF" stroke="#000000" d="M288.765,305.924c-22.5,34.001-37.2,69.4-46.7,98.2c-12.9-0.898-24.5-2.6-35-4.898
	c18.5-39.801,39.9-71.2,60.9-95.601C276.065,304.125,282.965,305.024,288.765,305.924z"/>
<path fill="#FFFFFF" stroke="#000000" d="M164.065,383.624c11.5,6.301,25.6,11.801,43.1,15.602c-7.2,15.5-17.8,34.1-23.9,52.2
	c-35.2,5.698-35.2-15.102-35.2-15.102s-25.2-20.1,15.7-52.2L164.065,383.624z"/>
<path fill="#FFFFFF" stroke="#000000" d="M663.564,110.225c1-18.1-1.6-36.2-9.398-53.4l-0.3-1.1c51.5-14,97.698-9.4,121.8,34.7
	l0.2,0.1c-1.7,5.7-3.9,10-3.9,10s-11.3,21.4-19.5,22.6c-8.2,1.3-17,4.4-17,4.4S709.865,82.524,663.564,110.225z"/>
<path fill="#FFFFFF" stroke="#000000" d="M656.165,151.424c42.1-12.6,49.1,18.9,49.1,18.9s3.102,20.1-7.6,32.1
	c-3.2-15.7-23.3-23.6-51.3-26.7c3.5-7.9,6.698-16.1,9.3-24.4L656.165,151.424z"/>
<path fill="#FFFFFF" stroke="#000000" d="M646.365,175.625c28.1,3.1,48.1,11.1,51.3,26.7c0,0,5.7,25.1-12.602,32.1
	c-6.5-10.2-28.698-17.6-57.698-22.9C634.165,200.524,640.765,188.424,646.365,175.625z"/>
<path fill="#FFFFFF" stroke="#000000" d="M627.465,211.625c29,5.3,51.1,12.7,57.7,22.9c0,0-3.8,25.8-20.8,29.6
	c0,0-19.302-9-57.802-21.4C613.064,233.824,620.365,223.324,627.465,211.625z"/>
<path fill="#FFFFFF" stroke="#000000" d="M660.965,130.424c1.3-6.7,2.2-13.4,2.6-20.2c46.302-27.7,71.9,17.3,71.9,17.3
	s3.1,11.3-13.8,13.8C721.564,141.324,707.265,107.024,660.965,130.424z"/>
<path fill="#FFFFFF" stroke="#000000" d="M655.665,151.225c2.2-6.9,4-13.8,5.3-20.8c46.2-23.5,60.6,10.9,60.6,10.9
	s-6.898,27-16.3,28.9c0,0-6.898-31.4-49.1-18.9L655.665,151.225z"/>
<path fill="#FFFFFF" stroke="#000000" d="M660.965,130.424c-1.4,7-3.2,14-5.3,20.8c-2.602,8.3-5.8,16.5-9.3,24.4
	c-31-3.4-71.9-1-110.7,3.4c0-0.4,0-0.7,0-1.1c-1.2-36.6-18-56.5-18-56.5l-0.2-0.3c41.9-26.6,91.2-53.1,136.4-65.4l0.3,1.1
	c7.899,17.2,10.5,35.3,9.399,53.4C663.165,117.024,662.265,123.725,660.965,130.424z M580.564,145.225c1.5,1.4,3.602,2.3,6.102,2.4
	c2.2,0.3,4.3-0.2,5.8-1.5c0.3-0.2,0.5-0.5,0.8-0.8l0,0c1.4-1.2,2.2-2.9,2.2-4.7c0-1-0.2-1.9-0.7-2.7l0,0c-0.5-2.9-1.898-6.1-4.3-9
	c-5.1-6.1-12.5-8.4-16.5-5.1c-4,3.3-3.1,11,2,17.2C577.365,142.824,578.965,144.225,580.564,145.225z"/>
<path fill="#FFFFFF" stroke="#000000" d="M583.865,270.324c0,0,9.898-10.5,22.698-27.7c38.501,12.4,57.802,21.4,57.802,21.4
	s-5,6-12,10.1c-2.9,1.7-6.102,3.1-9.4,3.7c-2.9,0.5-6.9,0.9-11.6,1.1l0,0c-6.4,0.301-13.9,0.201-21.2-0.6
	c-8.8-0.9-17.3-2.8-23.102-6.1c-1.1-0.6-2.1-1.2-3.198-1.8V270.324z"/>
<path fill="#FFFFFF" stroke="#000000" d="M533.365,201.324c32.5,2,66.398,5.2,94.1,10.3c-7.1,11.7-14.4,22.2-20.9,31
	c-20.6-6.7-46.8-14.3-78.5-22C530.865,211.924,532.765,204.024,533.365,201.324z"/>
<path fill="#FFFFFF" stroke="#000000" d="M511.465,248.024c6.3-0.3,12.4-14.6,16.5-27.5c31.7,7.7,57.9,15.3,78.5,22
	c-12.8,17.2-22.7,27.7-22.7,27.7l-0.1,0.1c-21.7-11.5-47.9-18.3-72.4-22.3H511.465z"/>
<path fill="#FFFFFF" stroke="#000000" d="M586.665,147.625c-2-0.2-4-1.1-6.102-2.4c-1.3-1.2-2.1-2.8-2.1-4.5c0-3.8,3.8-6.9,8.5-6.9
	c3.5,0,6.5,1.7,7.8,4.2l0,0c0.5,2.9,0,5.5-1.5,7.4l0,0c-1.5,1.4-3.8,2.2-6.3,2.2C586.865,147.625,586.765,147.625,586.665,147.625z"
	/>
<path fill="#FFFFFF" stroke="#000000" d="M573.965,123.924c4-3.3,11.4-1.1,16.5,5.1c2.4,2.9,3.9,6.1,4.3,9c-1.3-2.5-4.3-4.2-7.8-4.2
	c-4.7,0-8.5,3.1-8.5,6.9c0,1.7,0.8,3.3,2.1,4.5c-1.6-1.1-3.198-2.5-4.6-4.1C570.865,135.024,569.965,127.324,573.965,123.924z"/>
<path fill="#FFFFFF" stroke="#000000" d="M533.665,200.424c0,0,2.398-6.7,2-21.4c38.898-4.4,79.7-6.8,110.7-3.4
	c-5.7,12.8-12.2,24.9-18.9,35.9c-27.6-5.1-61.5-8.3-94.1-10.3C533.564,200.725,533.665,200.424,533.665,200.424z"/>
<path fill="#FFFFFF" stroke="#000000" d="M527.965,220.625c-32-7.8-69.5-15.6-112.7-22.6c1,0,57.102-0.4,118.102,3.4
	C532.765,204.024,530.865,211.924,527.965,220.625z"/>
<path fill="#FFFFFF" stroke="#000000" d="M406.165,186.924c9.1-8.3,223.399-202.1,332.399-141.7c0,0,28.9,13.2,36.5,23.9
	c4.102,5.8,2.802,14.6,0.802,21.4l-0.2-0.1c-24.102-44.1-70.301-48.6-121.801-34.7c-45.2,12.3-94.5,38.8-136.4,65.4
	c-57.4,36.5-100.9,73-100.9,73h-0.1c0-4.8-6.2-6.9-6.2-6.9S408.765,187.024,406.165,186.924z"/>
<path fill="#FFFFFF" stroke="#000000" d="M406.465,101.125c-24.5,58.5-21.4,88-21.4,88l0.302,0.8c-1.4,0.5-2.9,1.1-4.4,1.8l-0.9-1.3
	c-7.5-20.8,20.802-90.6,20.802-90.6S431.064,42.625,406.465,101.125z"/>
<path fill="#FFFFFF" stroke="#000000" d="M533.365,201.324c-61-3.8-117.102-3.4-118.102-3.4c12.5-2.4,64.4-12.7,120.4-18.9
	c0.3,14.7-2,21.4-2,21.4S533.564,200.725,533.365,201.324z"/>
<path fill="#FFFFFF" stroke="#000000" d="M415.365,197.725c0.8-1.3,1-2.5,1.1-3.6h0.1c0,0,43.5-36.6,100.9-73l0.2,0.3
	c0,0,16.8,19.9,18,56.5c0,0.4,0,0.8,0,1.1c-56,6.3-107.9,16.5-120.4,18.9l0,0C415.365,197.924,415.365,197.824,415.365,197.725z"/>
<path fill="#FFFFFF" stroke="#000000" d="M415.265,197.924c43.2,7,80.8,14.9,112.7,22.6c-4.2,12.9-10.2,27.2-16.5,27.5v0.1
	c-39.1-6.3-73.7-5.5-78-5.3c-1.4-0.6-2.2-0.3-2.4-0.3C445.465,233.125,415.265,197.924,415.265,197.924L415.265,197.924z"/>
<path fill="#FFFFFF" stroke="#000000" d="M362.165,225.225c-4-1.6-7.2-5.6-2.2-15.3c5-7.2,10.7-12.2,16.4-15.7
	c1.6-0.9,3.1-1.8,4.698-2.5c1.5-0.7,3-1.3,4.4-1.8c8.5-3.1,16.3-3.3,20.8-3.1c2.602,0.1,4.102,0.4,4.102,0.4s6.198,2.1,6.198,6.9
	c0,1.1-0.3,2.2-1.1,3.6c-1.2,0.3-2,0.5-2.5,0.6c-0.1,0-0.1,0-0.2,0c-7.3,1.4-28.8,7.3-42.7,27.9c0,0-2.398,0.2-5.1-0.2
	C363.965,225.824,363.064,225.625,362.165,225.225z"/>
<path fill="#FFFFFF" stroke="#000000" d="M368.165,227.524c0.398-0.7,1-1.1,1.898-1.3c13.9-20.6,35.4-26.4,42.7-27.9
	c-0.2,0-0.2,0.1-0.3,0.1c0.1,0,1.1-0.2,2.7-0.5l0,0l0,0c0,0,30.2,35.2,15.8,44.7l0,0c-33.3-3.8-39.6,25.8-39.6,25.8
	s-0.102,0.3-0.302,0.8C378.665,252.725,365.365,232.824,368.165,227.524z"/>
<path fill="#FFFFFF" stroke="#000000" d="M318.165,314.125c15.2-39.9,32.7-75,50-86.601c-2.8,5.3,10.5,25.1,23,41.7
	c-2,5.1-12.9,33.3-27.102,66.6L318.165,314.125z"/>
<path fill="#FFFFFF" stroke="#000000" d="M368.165,227.524c-17.3,11.6-34.8,46.7-50,86.601l-1.5-0.701c0,0-7.8-4.299-27.9-7.5
	c19.1-28.899,43.8-56.899,75.5-79l-0.2-0.2c0.5-0.2,0.802-0.3,0.802-0.3v-0.4c2.698,0.5,5.1,0.2,5.1,0.2
	C369.064,226.424,368.465,226.924,368.165,227.524z"/>
<path fill="#FFFFFF" stroke="#000000" d="M364.965,226.024v0.4c0,0-0.3,0.1-0.8,0.3c-6.3,2.7-50.1,23.2-96.1,76.8
	c-0.8-0.101-1.6-0.101-2.4-0.2c-34.5-2.3-35.6-33-35.5-37.9c64.7-25.2,123.8-38.5,132-40.3
	C363.064,225.625,363.965,225.824,364.965,226.024z"/>
<path fill="#FFFFFF" stroke="#000000" d="M116.065,324.824c-41.8,30.4-70.9,68-67.4,112.8l-0.7,0.5c-3.2-4.198-4.9-7.5-4.9-7.5
	c-27.1-152.1,316.9-220.7,316.9-220.7c-5,9.7-1.9,13.7,2.2,15.3c-8.2,1.8-67.3,15.1-132,40.3
	C190.765,280.824,149.365,300.625,116.065,324.824z"/>
<path fill="#FFFFFF" stroke="#000000" d="M277.565,155.225c56-5.7,102.5,35.2,102.5,35.2l0.9,1.3c-1.5,0.7-3.1,1.5-4.7,2.5v-0.1
	c-73-44-96.2-33.3-96.2-33.3S221.565,160.824,277.565,155.225z"/>
<path fill="#FFFFFF" stroke="#000000" d="M267.965,303.524c46-53.7,89.8-74.1,96.1-76.8l0.2,0.2c-31.7,22.1-56.4,50-75.5,79
	C282.965,305.024,276.065,304.125,267.965,303.524z"/>
<path fill="#FFFFFF" stroke="#000000" d="M230.665,338.024c-2.7,2.4-7.7,1.4-12.5-1.9c-0.5-2.5,0.4-5.6,2.7-7.898
	c3.1-3.102,7.5-3.7,10.3-1.602C233.165,331.425,233.165,335.824,230.665,338.024z"/>
<path fill="#FFFFFF" stroke="#000000" d="M218.165,336.124c4.8,3.4,9.8,4.301,12.5,1.9c2.5-2.2,2.6-6.6,0.5-11.4
	c-1-2.5-2.6-5-4.7-7.398c-6.1-7.101-14.2-10.2-18-6.9s-1.9,11.7,4.2,18.801C214.365,333.124,216.265,334.824,218.165,336.124z
	 M137.165,363.225c-16.9-17.8-20.6-35.3-21.2-38.3c33.3-24.3,74.8-44.001,114.1-59.3c0,4.8,1,35.6,35.5,37.9
	c0.8,0,1.6,0.101,2.4,0.2c-21,24.5-42.4,55.8-60.9,95.6c-17.5-3.8-31.6-9.3-43.1-15.6
	C152.665,377.324,143.865,370.225,137.165,363.225z"/>
<path fill="#FFFFFF" stroke="#000000" d="M220.865,328.225c-2.3,2.3-3.2,5.3-2.7,7.899c-1.9-1.301-3.8-3-5.5-5
	c-6.1-7.101-8-15.501-4.2-18.801s11.9-0.2,18,6.9c2.1,2.398,3.6,5,4.7,7.398C228.365,324.524,223.865,325.124,220.865,328.225z"/>
<path fill="#FFFFFF" stroke="#000000" d="M147.965,436.324c-11.9,20.102-34,4.4-34,4.4s-23.6-49.2,23.2-77.5
	c6.7,7,15.4,14.1,26.8,20.399l-0.3,0.5C122.865,416.225,147.965,436.324,147.965,436.324z"/>
<path fill="#FFFFFF" stroke="#000000" d="M48.665,437.624c-3.5-44.8,25.6-82.3,67.4-112.699c0.5,3.1,4.3,20.5,21.2,38.3
	c-46.8,28.399-23.2,77.5-23.2,77.5c-31.9,33.3-56.2,10.5-66.1-2.601L48.665,437.624z"/>
</svg>
