<?xml version="1.0" encoding="utf-8"?>
<!-- Generator: Adobe Illustrator 15.0.0, SVG Export Plug-In . SVG Version: 6.00 Build 0)  -->
<!DOCTYPE svg PUBLIC "-//W3C//DTD SVG 1.1//EN" "http://www.w3.org/Graphics/SVG/1.1/DTD/svg11.dtd">
<svg version="1.1" id="layer_x5F_www.ABC-color.com"
	 xmlns="http://www.w3.org/2000/svg" xmlns:xlink="http://www.w3.org/1999/xlink" x="0px" y="0px" width="822px" height="567px"
	 viewBox="0 0 822 567" enable-background="new 0 0 822 567" xml:space="preserve">
<path fill="#FFFFFF" stroke="#000000" d="M721.162,48.367c6.199,7.7,0.602,22.5-12.6,33.1c-13.1,10.5-28.801,12.8-35,5.1
	c-6.201-7.7-0.6-22.5,12.6-33.1C699.262,42.967,714.963,40.667,721.162,48.367z"/>
<path fill="#FFFFFF" stroke="#000000" d="M631.662,341.367c0,0,20.102,27,5.699,40.898c-10.5,10.102-8.1,27.5-4.5,36.9l-0.5,0.2
	c0,0-17.5,11.3-47.5-32.302c-1-5.3-2.299-11.199-4-17.898c27.4,4.699,43.5-12.602,50.201-28L631.662,341.367z"/>
<path fill="#FFFFFF" stroke="#000000" d="M636.662,425.667c3.801,1.898,19.5,28.898-17,44.7c0,0-32.699-25.2-34.6-51.602l-0.5-0.3
	c2.699-5.399,3-15.5,0.1-31.5c30,43.6,47.5,32.3,47.5,32.3l0.5-0.2C634.162,422.667,635.662,425.167,636.662,425.667z"/>
<path fill="#FFFFFF" stroke="#000000" d="M506.963,367.267c31.398,35,68.398,69.7,77.697,51.2l0.5,0.3
	c1.902,26.4,34.602,51.601,34.602,51.601c-33.6,14.5,34.301,42.899,41.701,44.8c0.5,3.5,20.5,36.2-19,28.2
	c-43.4-8.801-43.4-41.5-43.4-41.5s-18.9-35.802-32.701-34c-13.799,1.898-41.898-4.7-55.299-47.2c-3-9.5-8.201-17.5-14.301-24.2
	l0.398-0.4c0.4,0.602-2.1-19.6,6.4-32.699C504.563,364.667,505.762,365.967,506.963,367.267z"/>
<path fill="#FFFFFF" stroke="#000000" d="M503.361,363.267c-8.5,13.101-6,33.3-6.398,32.7l-0.4,0.4
	c-16.799-18.4-40.699-26.7-45.799-30h-0.701c0-0.7,0-1.301,0-2c0.799-30.801-3.301-60-3.301-60.7c0,0,1.1,0.6,3.1,1.7l0,0
	C450.861,306.566,479.662,336.566,503.361,363.267z"/>
<path fill="#FFFFFF" stroke="#000000" d="M584.762,386.967c2.898,16,2.6,26-0.102,31.5c-9.197,18.5-46.197-16.2-77.697-51.2
	c-1.201-1.3-2.4-2.7-3.5-4c-23.701-26.7-52.5-56.7-53.5-57.8c12.697,7,62.898,34.4,111.299,57.3c7.1,3.3,13.6,5.4,19.5,6.4
	C582.463,375.767,583.762,381.767,584.762,386.967z"/>
<path fill="#FFFFFF" stroke="#000000" d="M603.361,309.267c5,2.5,27,17,5.701,22.601c-21.301,5.601-61,17.899-159-37.399
	c0.799-2.7,1.199-5.5,1.199-8.5c0,0,0,0,0.1,0c0,0,0,0,0.102,0c0.898,0.2,5.699,1,13.199,1.899
	C500.861,293.066,599.262,307.267,603.361,309.267z"/>
<path fill="#FFFFFF" stroke="#000000" d="M671.262,180.367c6.201-3.9,66-17-1.9,57.9c-55.699,61.3-166.6,54.3-204.898,49.7
	c-7.4-1.1-12.201-1.7-13.201-1.9c0,0,0,0-0.102,0c-0.1,0-0.1,0-0.1,0c0-1.8-0.1-3.399-0.299-5h0.299l0,0
	C454.463,279.467,666.762,183.167,671.262,180.367z"/>
<path fill="#FFFFFF" stroke="#000000" d="M669.963,121.267c18.1,18.1-215.301,157.6-218.801,159.7l0,0h-0.301
	c-0.5-3.8-1.6-6.9-3.398-9.5C450.963,268.567,651.861,103.167,669.963,121.267z"/>
<path fill="#FFFFFF" stroke="#000000" d="M580.662,369.167c-6-1-12.5-3.101-19.5-6.4c-48.398-22.8-98.6-50.2-111.301-57.3l0,0
	c-2-1.1-3.1-1.7-3.1-1.7l0,0l-0.9-0.7c1.801-2.5,3.201-5.399,4.102-8.6c98,55.3,137.6,43,159,37.4
	c21.398-5.601-0.602-20.101-5.701-22.601c-4.102-2.1-102.5-16.2-138.9-21.399c38.301,4.6,149.201,11.6,204.9-49.7
	c67.898-74.8,8.1-61.8,1.898-57.9c-4.5,2.8-216.799,99.1-220.1,100.6c3.5-2.1,236.9-141.6,218.801-159.7
	c-18.1-18.1-219,147.3-222.6,150.3c-1.602-2.5-3.801-4.4-6.602-6l-1.1-0.1c5.299-3.5,8.699-9.3,8.699-15.9c0-4.1-1.299-7.9-3.602-11
	c15.703-14.8,264.004-248.1,301.805-214.6c39,34.6,0.1,47.4-6.9,46.5c-4.4-0.5-19.5,18.2-13.201,59.8
	c6.301,41.5-7.5,36.5-10.699,45.9c-3.1,9.4,5.699,17-1.301,28.3c-6.898,11.3-25.199,17-22.699,30.8c2.5,13.8,5,42.8-9.398,49.7
	c-14.5,6.899-52.201,25.199-48.4,37.699c1.102,3.7,0.102,10.9-3.301,18.7C624.162,356.566,608.162,373.767,580.662,369.167z
	 M708.563,81.467c13.199-10.5,18.799-25.4,12.6-33.1c-6.199-7.7-21.898-5.4-35,5.1c-13.1,10.5-18.801,25.4-12.6,33.1
	C679.762,94.267,695.463,91.967,708.563,81.467z"/>
<path fill="#FFFFFF" stroke="#000000" d="M503.162,107.767c-83.301,55.9-64.801,123.6-64.301,125.2c-1.799-1.1-3.898-1.9-6-2.3
	l0.201-0.9c0,0-16.701-67.8,68.699-127.4c2.801-1.9,5.5-5.6,9.301-8.6c8.199-6.4,15.9-10.3,17.199-8.7
	c1.301,1.6-4.299,8.2-12.5,14.6C510.963,103.367,506.463,106.267,503.162,107.767z"/>
<path fill="#FFFFFF" stroke="#000000" d="M354.662,108.267c-3.3-1.4-7.8-4.3-12.6-8c-8.2-6.5-13.8-13-12.5-14.6
	c1.3-1.6,9,2.3,17.1,8.7c3.8,3,6.6,6.7,9.4,8.6c85.401,59.6,68.7,127.4,68.7,127.4l0.1,0.3c-2,0.4-3.898,1.1-5.699,2
	C421.162,224.467,433.361,161.067,354.662,108.267z"/>
<path fill="#FFFFFF" stroke="#000000" d="M444.861,238.367c2.301,3.1,3.602,6.9,3.602,11c0,6.6-3.5,12.5-8.699,15.9
	c-3.201,2.1-7,3.3-11.102,3.3c-4.199,0-8.199-1.3-11.398-3.5c-0.5-0.3-0.9-0.6-1.301-1c-4.301-3.5-7.102-8.8-7.102-14.7
	c0-4,1.301-7.8,3.5-10.8c1.801-2.5,4.102-4.5,6.801-6c1.801-0.9,3.699-1.6,5.699-2c1.201-0.2,2.5-0.4,3.801-0.4
	c1.4,0,2.801,0.1,4.102,0.4c2.199,0.4,4.199,1.2,6,2.3C441.262,234.267,443.262,236.167,444.861,238.367z"/>
<path fill="#FFFFFF" stroke="#000000" d="M410.361,271.967c1.602-2.5,3.801-4.4,6.602-6l0.398-0.8c3.201,2.2,7.102,3.5,11.4,3.5
	c4.1,0,7.898-1.2,11.1-3.3l1.102,0.1c2.699,1.6,4.898,3.6,6.6,6c1.801,2.6,2.9,5.7,3.4,9.5c0.199,1.5,0.301,3.2,0.301,5
	c0,3-0.4,5.9-1.201,8.5c-0.9,3.2-2.299,6.1-4.1,8.6c-3.602,4.9-8.602,8-14.301,8l-5.5,0.5c-5.699,0-10.801-3.1-14.398-8.1
	c-1.701-2.4-3.102-5.3-4-8.5c-0.701-2.7-1.102-5.5-1.102-8.5c0-1.8,0.102-3.4,0.301-5
	C407.463,277.767,408.662,274.567,410.361,271.967z"/>
<path fill="#FFFFFF" stroke="#000000" d="M446.762,303.767c0.1,0.7,4.1,29.9,3.301,60.7c0,0.7,0,1.3,0,2c-3,100.4-36,127.2-42,0
	c-1.5-31.1,3.299-62.7,3.299-62.7l0.4-0.3c3.6,5,8.701,8.1,14.398,8.1l5.5-0.5c5.602,0,10.701-3.1,14.303-8L446.762,303.767
	L446.762,303.767z"/>
<path fill="#FFFFFF" stroke="#000000" d="M363.162,394.767c-0.8,0.601-0.3-18-8.8-30.899c24.1-27.2,53.601-57.801,53.601-57.801
	l-0.102-0.199c2.301-1.301,3.602-2,3.602-2s-4.801,31.6-3.301,62.699c-4.898,3.102-27.8,11.2-44.8,28.4L363.162,394.767z"/>
<path fill="#FFFFFF" stroke="#000000" d="M354.362,363.767c8.4,13,8,31.5,8.8,30.9l0.1,0.2c-7,7.1-13.1,15.699-16.4,26.198
	c-8.7,27.602-23.6,40-36.8,44.9l-0.3-2.1c0,0,13.8-23.9-1.3-54.102l-0.1-0.101c13.3-10.799,28.4-26.299,42.4-41.899
	C352.062,366.467,353.162,365.167,354.362,363.767z"/>
<path fill="#FFFFFF" stroke="#000000" d="M309.862,463.867l0.3,2.1c-7.1,2.6-13.7,3-18.6,2.3c-13.8-1.898-32.7,34-32.7,34
	s0,32.7-43.4,41.5c-39.6,8-19.5-24.7-19-28.2c7.4-1.898,75.3-30.3,41.7-44.8c0,0,32.7-25.2,34.6-51.6l0.5-0.2
	c5.1,10.2,18.8,4.1,35.3-9.3l0.1,0.1C323.662,439.967,309.862,463.867,309.862,463.867z"/>
<path fill="#FFFFFF" stroke="#000000" d="M273.162,418.967l-0.5,0.2c-1.9,26.398-34.6,51.6-34.6,51.6c-36.5-15.7-20.8-42.8-17-44.7
	c1-0.5,2.5-3,3.9-6.5l0.5,0.2c0,0,17.5,11.3,47.5-32.3C270.162,403.467,270.462,413.566,273.162,418.967z"/>
<path fill="#FFFFFF" stroke="#000000" d="M273.062,387.566c1-5.3,2.3-11.199,4-17.898c6-1,12.5-3.102,19.5-6.4
	c47.8-22.5,97.7-49.898,111.299-57.5l0.102,0.2c0,0-29.4,30.601-53.601,57.8c-1.2,1.301-2.4,2.7-3.6,4
	c-14,15.602-29.1,31.102-42.4,41.9c-16.5,13.398-30.2,19.5-35.3,9.3C270.462,413.566,270.162,403.467,273.062,387.566z"/>
<path fill="#FFFFFF" stroke="#000000" d="M277.062,369.667c-1.7,6.7-3,12.6-4,17.899c-30,43.601-47.5,32.301-47.5,32.301l-0.5-0.2
	c3.6-9.4,6-26.8-4.5-36.9c-14.5-13.8,5.7-40.899,5.7-40.899l0.8-0.2C233.662,357.066,249.662,374.267,277.062,369.667z"/>
<path fill="#FFFFFF" stroke="#000000" d="M406.662,286.467c0,3,0.4,5.9,1.102,8.5c-98,55.3-137.601,43-159,37.4
	c-21.4-5.602,0.6-20.102,5.7-22.602c4.1-2.1,102.5-16.199,138.9-21.4c7.5-0.899,12.2-1.699,13.2-1.899l0,0l0,0
	C406.662,286.566,406.662,286.467,406.662,286.467z"/>
<path fill="#FFFFFF" stroke="#000000" d="M406.662,281.467h0.301c-0.199,1.5-0.301,3.2-0.301,5c0,0,0,0-0.1,0l0,0l0,0
	c-1,0.1-5.801,0.8-13.201,1.9c-38.3,4.6-149.3,11.699-204.9-49.7c-67.9-74.8-6.5-60.7-1.9-57.9
	C193.362,185.067,403.361,279.967,406.662,281.467L406.662,281.467z"/>
<path fill="#FFFFFF" stroke="#000000" d="M410.361,271.967c-1.799,2.6-2.898,5.7-3.398,9.5h-0.301l0,0
	c-3.5-2.1-236.9-141.6-218.8-159.7C205.862,103.667,406.861,269.067,410.361,271.967z"/>
<path fill="#FFFFFF" stroke="#000000" d="M171.662,53.967c13.1,10.5,18.8,25.4,12.6,33.1c-6.2,7.7-21.9,5.4-35-5.1
	c-13.1-10.5-18.8-25.4-12.6-33.1C142.862,41.167,158.562,43.467,171.662,53.967z"/>
<path fill="#FFFFFF" stroke="#000000" d="M416.963,265.967c-2.701,1.6-4.9,3.6-6.602,6c-3.6-2.9-204.5-168.3-222.6-150.3
	c-18.099,18.1,215.301,157.6,218.801,159.7c-3.301-1.5-213.201-96.4-220.101-100.601c-4.6-2.8-66-17,1.9,57.9
	c55.7,61.399,166.7,54.3,205,49.7c-36.4,5.199-134.8,19.3-138.9,21.399c-5,2.5-27,17-5.7,22.601c21.3,5.601,61,17.899,159-37.399
	c0.898,3.2,2.301,6,4,8.5l-0.4,0.3c0,0-1.299,0.7-3.6,2c-13.601,7.5-63.5,34.9-111.3,57.5c-7.1,3.301-13.6,5.4-19.5,6.4
	c-27.4,4.699-43.5-12.602-50.2-28c-3.4-7.7-4.4-15-3.3-18.7c3.8-12.601-34-30.8-48.4-37.7c-14.5-6.9-12-35.9-9.4-49.7
	c2.5-13.8-15.7-19.5-22.6-30.8c-6.9-11.3,1.9-18.9-1.3-28.3c-3.1-9.4-17-4.4-10.7-45.9s-7.1-58.8-13.2-59.8
	c-4-0.701-45.8-11.901-6.8-46.501c39-34.6,300.6,213.8,300.6,213.8l0.602,0.5c-2.201,3.1-3.5,6.8-3.5,10.8
	c0,5.9,2.799,11.2,7.1,14.7c0.4,0.4,0.9,0.7,1.299,1L416.963,265.967z M184.262,87.067c6.2-7.7,0.6-22.5-12.6-33.1
	c-13.1-10.5-28.8-12.8-35-5.1c-6.2,7.7-0.6,22.5,12.6,33.1C162.462,92.567,178.062,94.767,184.262,87.067z"/>
</svg>
