<?xml version="1.0" encoding="utf-8"?>
<!-- Generator: Adobe Illustrator 15.0.0, SVG Export Plug-In . SVG Version: 6.00 Build 0)  -->
<!DOCTYPE svg PUBLIC "-//W3C//DTD SVG 1.1//EN" "http://www.w3.org/Graphics/SVG/1.1/DTD/svg11.dtd">
<svg version="1.1" id="layer_x5F_www.ABC-color.com"
	 xmlns="http://www.w3.org/2000/svg" xmlns:xlink="http://www.w3.org/1999/xlink" x="0px" y="0px" width="822px" height="567px"
	 viewBox="0 0 822 567" enable-background="new 0 0 822 567" xml:space="preserve">
<path fill="#FFFFFF" stroke="#000000" stroke-miterlimit="10" d="M398.5,171.1c2.6-0.8,9.6-1.8,11.699,9.3
	c-2.699,0.8-3.399,6.3-1.601,12.4c1.801,6.1,5.4,10.4,8,9.6c1.2-0.4,2-1.7,2.301-3.6h0.199l4.2,12l0.399,2.2
	c0.101,2.9-1.601,7.4-13.601,6.3c0,0-4.1-7.1-11.5-8.5c-7.399,1.4-11.5,8.5-11.5,8.5c-12,1-13.699-3.5-13.6-6.3l0.398-2.2l4.2-12
	h0.2c0.3,1.9,1.101,3.2,2.3,3.6c2.7,0.8,6.2-3.5,8-9.6c1.8-6.1,1.101-11.7-1.6-12.4C389.3,170.8,395.9,170.7,398.5,171.1z"/>
<path fill="#FFFFFF" stroke="#000000" stroke-miterlimit="10" d="M251.7,362.3c0.199,10.7-20.9,39.7-21.5,40.5
	c4.699-27.1-19.9-30.8-19.9-30.8s26.8-14.5,30.9-22.3C243.3,358.8,247.4,361.9,251.7,362.3L251.7,362.3z"/>
<path fill="#FFFFFF" stroke="#000000" stroke-miterlimit="10" d="M324.9,299.2c-13.601,20-32.399,42.2-54.601,54.7
	c-1,0.6-2,1.1-3,1.6c0,0-8.2,7.4-15.7,6.8c-4.3-0.399-8.399-3.5-10.399-12.5c-1.7-7.5-1.9-19.1,0.399-36.5l0,0
	c20.2-16.5,34.1-35.3,34.1-35.3l68.398-18.9l4.5-1.3C348.8,257.8,340,277,324.9,299.2z"/>
<path fill="#FFFFFF" stroke="#000000" stroke-miterlimit="10" d="M635.199,195.5c-3.601-15.2,2.801-21.6,7.5-24.2
	c2.301-1.3,4.2-1.6,4.2-1.6c-0.301-1.1-0.601-2.2-0.801-3.3c-2-11.2,2.5-18.4,6-22.2c2-2.2,3.7-3.2,3.7-3.2c-0.5-1.2-1-2.4-1.2-3.6
	c-2.5-9.7,2.601-17.5,6.601-21.8c2.2-2.4,4-3.7,4-3.7c-0.699-1.2-1.199-2.4-1.601-3.5c-2.6-7.8,1.301-14.5,5-18.7
	c2.601-3,5.2-4.8,5.2-4.8c-2.899-8.4,0.601-14.3,4.5-18c3.5-3.4,7.5-5,7.5-5c-3.5-15.5,9.5-20,9.5-20
	c-0.5-19,13.899-29.2,13.899-29.2l0,0C723,14.6,737.3,19.1,750.3,27.9c0,0,9,26-10,35c0,0,9,12-5,21c0,0,2,23.7-11,27.4
	c0,0,11,19.1-7,27.6c0,0,12,26-7,29c0,0,14.3,23.5-12,36c0,0,4,24-39,47c0,0-13.5,6.8-37.101,5.1c-7.8-5-8-11-6.601-15.5
	c1.101-3.6,3.2-6.1,3.2-6.1c-0.5-1.2-1-2.4-1.399-3.5l0,0c-6-17.6,4.199-24.3,12.101-26.8c4.199-1.4,7.8-1.5,7.8-1.5
	C636.5,200.1,635.8,197.7,635.199,195.5z M737.9,37.8c0-4.8-5.899-8.8-13.301-8.8c-7.3,0-13.3,3.9-13.3,8.8
	c0,4.9,5.899,8.8,13.3,8.8C732,46.5,737.9,42.6,737.9,37.8z M728.4,60.3c0-4-5.7-7.3-12.801-7.3c-7.1,0-12.8,3.3-12.8,7.3
	s5.7,7.3,12.8,7.3C722.7,67.6,728.4,64.3,728.4,60.3z M715.699,84.2c0-4-5.399-7.3-12.101-7.3c-6.7,0-12.1,3.3-12.1,7.3
	s5.399,7.3,12.1,7.3C710.3,91.5,715.699,88.3,715.699,84.2z M709.4,106.6c0-5-5.801-9.1-13-9.1c-7.2,0-13,4.1-13,9.1s5.8,9.1,13,9.1
	C703.6,115.7,709.4,111.6,709.4,106.6z M702.9,135.3c0-4.8-5.5-8.8-12.301-8.8c-6.8,0-12.3,3.9-12.3,8.8c0,4.9,5.5,8.8,12.3,8.8
	C697.5,144,702.9,140.1,702.9,135.3z M696.4,166.6c0-4.5-5.399-8.1-12-8.1s-12,3.6-12,8.1s5.399,8.1,12,8.1
	C691,174.7,696.4,171.1,696.4,166.6z M686.4,195.8c0-6.2-6-11.3-13.5-11.3s-13.5,5-13.5,11.3c0,6.3,6,11.3,13.5,11.3
	S686.4,202,686.4,195.8z M665.4,232.1c0-6.9-6.101-12.4-13.7-12.4c-7.601,0-13.699,5.6-13.699,12.4c0,6.9,6.1,12.4,13.699,12.4
	S665.4,238.9,665.4,232.1z"/>
<ellipse fill="#FFFFFF" stroke="#000000" stroke-miterlimit="10" cx="724.699" cy="37.8" rx="13.301" ry="8.8"/>
<path fill="#FFFFFF" stroke="#000000" stroke-miterlimit="10" d="M715.699,53c7,0,12.801,3.3,12.801,7.3s-5.7,7.3-12.801,7.3
	s-12.8-3.3-12.8-7.3S708.699,53,715.699,53z"/>
<path fill="#FFFFFF" stroke="#000000" stroke-miterlimit="10" d="M703.6,77c6.7,0,12.101,3.3,12.101,7.3s-5.399,7.3-12.101,7.3
	c-6.7,0-12.1-3.3-12.1-7.3C691.4,80.2,696.9,77,703.6,77z"/>
<path fill="#FFFFFF" stroke="#000000" stroke-miterlimit="10" d="M709.4,12.8L709.4,12.8c0,0-64.4-3.8-134.4,64.2
	c0,0-88,60-97.5,74.5c0,0-49.301,60.3-52.4,68.1l-0.3-1.9l-0.899-4.6c0-1.2-0.399-2.2-0.399-2.2s42-87,129-134c0,0,61-47,87-56
	C639.4,21,673,7.9,709.4,12.8z"/>
<path fill="#FFFFFF" stroke="#000000" stroke-miterlimit="10" d="M574.9,77C644.9,9,709.3,12.8,709.3,12.8S694.9,23,695.4,42
	c0,0-55.7-7.3-52.7,15.3c0,0,38.2-2.3,43.2,4.8c0,0-4,1.6-7.5,5c0,0-68.399,0.8-46.801,12.5c9.4,5.1,29.7-0.5,42.301,5.5
	c0,0-2.5,1.8-5.2,4.8c0,0-43.3-9.8-44.3,7.7c0,0,2,13.1,39.399,11c0.399,1.1,0.899,2.3,1.601,3.5c0,0-1.801,1.3-4,3.7
	c0,0-46.399-14.2-51.399,8.3c0,0-3,13.1,44.8,13.4l0,0c0.3,1.2,0.7,2.3,1.2,3.6c0,0-1.7,1-3.7,3.2l-0.601-0.2
	c0,0-63.199-16.5-61.199,4c0,0-0.5,9.4,55.8,18.5c0.2,1.1,0.399,2.1,0.8,3.3c0,0-1.899,0.3-4.199,1.6c0,0-65.2-20.4-73.2-4.9
	c0,0-17.2,13.4,65.8,29c0.5,2.2,1.2,4.6,2.2,7.1c0,0-3.601,0.1-7.8,1.5c0,0-84.7-31.1-94.2-12.6c0,0-27.7,32.4,82.101,39.5l0,0
	c0.399,1.1,0.8,2.3,1.399,3.5c0,0-2.101,2.5-3.2,6.1c0,0-97.899-23.3-80.3,3.1c-18.101-1.2-36-1-47,2.4c0,0-19,2-60-8l-1.3-7
	c5.699-9,62.399-39.9,85.8-47c37.2-11.2,67.399-26.4,78-46.5c4-7.6,22.5-29,22.5-29s-13,8-25.399,25.5c-12.801,18-35,34-75.101,46.4
	c-23.399,7.2-55.399,19.7-86.7,45.7l-1.199-6.4l0,0c3.101-7.9,52.399-68.1,52.399-68.1C486.9,137,574.9,77,574.9,77z M615.6,76.9
	c8.5-8.9,11.9-19.4,7.5-23.6c-4.399-4.2-14.8-0.4-23.3,8.4c-8.5,8.9-11.899,19.4-7.5,23.6C596.6,89.5,607.1,85.7,615.6,76.9z
	 M579.3,136c12.399-13.8,14.899-31.7,5.601-39.9c-9.2-8.3-26.7-3.8-39.101,10c-12.3,13.8-14.899,31.7-5.601,39.9
	C549.4,154.2,566.9,149.8,579.3,136z M512.4,174.2c14.101-5,23-16.3,19.899-25.2c-3.2-8.9-17.2-12-31.3-7
	c-14.2,5-23.101,16.3-19.9,25.2C484.199,176.1,498.199,179.2,512.4,174.2z"/>
<path fill="#FFFFFF" stroke="#000000" stroke-miterlimit="10" d="M696.4,97.5c7.199,0,13,4.1,13,9.1s-5.801,9.1-13,9.1
	c-7.2,0-13-4.1-13-9.1S689.3,97.5,696.4,97.5z"/>
<path fill="#FFFFFF" stroke="#000000" stroke-miterlimit="10" d="M690.699,126.5c6.801,0,12.301,3.9,12.301,8.8
	c0,4.9-5.5,8.8-12.301,8.8c-6.8,0-12.3-3.9-12.3-8.8C678.4,130.4,683.9,126.5,690.699,126.5z"/>
<path fill="#FFFFFF" stroke="#000000" stroke-miterlimit="10" d="M684.4,158.5c6.601,0,12,3.6,12,8.1s-5.399,8.1-12,8.1
	s-12-3.6-12-8.1S677.8,158.5,684.4,158.5z"/>
<path fill="#FFFFFF" stroke="#000000" stroke-miterlimit="10" d="M695.4,42c0,0-13,4.5-9.5,20c-5-7-43.2-4.8-43.2-4.8
	C639.699,34.8,695.4,42,695.4,42z"/>
<path fill="#FFFFFF" stroke="#000000" stroke-miterlimit="10" d="M672.9,184.5c7.5,0,13.5,5,13.5,11.3c0,6.3-6,11.3-13.5,11.3
	s-13.5-5-13.5-11.3C659.4,189.5,665.5,184.5,672.9,184.5z"/>
<path fill="#FFFFFF" stroke="#000000" stroke-miterlimit="10" d="M678.4,67c-3.899,3.7-7.399,9.6-4.5,18
	c-12.601-6-32.899-0.4-42.301-5.5C610,67.7,678.4,67,678.4,67z"/>
<path fill="#FFFFFF" stroke="#000000" stroke-miterlimit="10" d="M567.199,402.8c-4.699-27.1,19.899-30.8,19.899-30.8
	c-18.899-34.5,10.7-36,10.7-36c-29.2-14.5-9.7-42-9.7-42c-28.5-39.5,3.7-42.4,9-42.5c2,0.6,3.9,1.1,5.801,1.5l0,0
	c23.399,9,42.601,41,42.601,41s-29.101,8.5,18.5,52c0.1,1.7,0,3.4-0.2,5c0,0-27.899-4.7-2.3,52.9c-0.601,1.1-1.2,2.1-1.9,3.1
	c0,0-36-0.6-14.5,34.7c-0.899,4.3-2.699,6.898-4.699,8.5c0,0-43.5-20.4-0.4,63.1l0,0c2.4,13.4,3.601,23.602,3.601,23.602
	c-1,23-14,7-14,7c0-0.5-0.101-1.2-0.199-1.9l1.3-0.1c0,0-5.101-66-54.101-45l0,0c-1.399,0-2.699,0-4,0
	c-0.699-0.5-32.601-23-39.699,12c-5.4,1.198-9.601-0.5-12.9-3.4c0,0,3.9-36.2,0-42.7c0,0-0.5-1.398-1.399-3.6
	c-4.601-11-20.199-41.2-41-7.4c-1.101-1.3-2.101-2.6-3-3.898l0,0c2.101-29.9,42-18.102,42-18.102c-2-29.398,36.101-16,36.101-16
	c2.6-12.5,14.8-10.1,14.8-10.1C567.3,403.6,567.3,403.2,567.199,402.8z M637.9,362.3c-4.101-12.5-1.301-29.8-1.301-29.8
	c-15.399-17.6-23.5-3.5-23.5-3.5C602.8,343.5,637.9,362.3,637.9,362.3z M628.9,416.5c-1-18.5,13.8-22.8,13.8-22.8
	c-8.199-17.8-20-26.3-29.3-24.2C579.699,377.2,628.9,416.5,628.9,416.5z M627.4,314c-3.601-23.5,0-30.5,0-30.5
	c-13-22.5-19.5-2.9-19.5-2.9C605.4,298.7,627.4,314,627.4,314z M607.699,454.4c-1.8-18.602,13.399-17.9,13.399-17.9
	c-13.899-40.5-33-26-33-26c-9,7,6.4,34,6.4,34S609.4,473,607.699,454.4z M574.5,486.5c5.3-10.5,23.199-5.8,23.199-5.8
	C597.5,455.4,571.5,448,571.5,448C556.1,456.2,574.5,486.5,574.5,486.5z M559.9,480.8c6.8-18.3-20.101-31.398-20.101-31.398
	c-21.5,5.898-9.399,40.1-9.399,40.1C537.4,474.4,559.9,480.8,559.9,480.8z"/>
<path fill="#FFFFFF" stroke="#000000" stroke-miterlimit="10" d="M668.8,89.8c-3.7,4.2-7.5,10.9-5,18.7
	c-37.399,2.1-39.399-11-39.399-11C625.4,80,668.8,89.8,668.8,89.8z"/>
<path fill="#FFFFFF" stroke="#000000" stroke-miterlimit="10" d="M661.3,403.9c-25.601-57.602,2.3-52.9,2.3-52.9
	c-1.199,9.9-6.199,17-6.199,17C668.199,382.3,666.5,394.7,661.3,403.9z"/>
<path fill="#FFFFFF" stroke="#000000" stroke-miterlimit="10" d="M651.699,219.6c7.601,0,13.7,5.6,13.7,12.4
	c0,6.9-6.101,12.4-13.7,12.4c-7.601,0-13.699-5.6-13.699-12.4C637.9,225.2,644.1,219.6,651.699,219.6z"/>
<path fill="#FFFFFF" stroke="#000000" stroke-miterlimit="10" d="M645,441.7c-21.5-35.3,14.5-34.7,14.5-34.7c-6.5,9.5-16,15-16,15
	C645.699,430.9,645.9,437.2,645,441.7z"/>
<path fill="#FFFFFF" stroke="#000000" stroke-miterlimit="10" d="M654.699,137.4L654.699,137.4c-47.8-0.3-44.8-13.4-44.8-13.4
	c5-22.5,51.399-8.3,51.399-8.3C657.3,120,652.199,127.7,654.699,137.4z"/>
<path fill="#FFFFFF" stroke="#000000" stroke-miterlimit="10" d="M651.4,321c9.199,8.4,12.199,17.3,12.5,25
	c-47.5-43.5-18.5-52-18.5-52C647.4,308,651.4,321,651.4,321z"/>
<path fill="#FFFFFF" stroke="#000000" stroke-miterlimit="10" d="M651.699,144l0.601,0.2c-3.5,3.8-8,11.1-6,22.2
	c-56.3-9-55.8-18.5-55.8-18.5C588.4,127.5,651.699,144,651.699,144z"/>
<path fill="#FFFFFF" stroke="#000000" stroke-miterlimit="10" d="M627.4,468c5.699,13,9.8,31,12.399,45.4
	c-43.101-83.602,0.399-63.102,0.399-63.102c-3.3,2.7-6.8,2.7-6.8,2.7C623.4,455,627.4,468,627.4,468z"/>
<path fill="#FFFFFF" stroke="#000000" stroke-miterlimit="10" d="M636.6,332.5c0,0-2.699,17.3,1.301,29.8c0,0-35.2-18.8-24.801-33.3
	C613.199,329,621.199,314.9,636.6,332.5z"/>
<path fill="#FFFFFF" stroke="#000000" stroke-miterlimit="10" d="M642.699,171.3c-4.699,2.6-11,8.9-7.5,24.2
	c-82.899-15.6-65.8-29-65.8-29C577.5,150.9,642.699,171.3,642.699,171.3z"/>
<path fill="#FFFFFF" stroke="#000000" stroke-miterlimit="10" d="M630.5,542l-1.301,0.1C627.5,533.7,616.4,515,616.4,515
	c-7.101-14.2-24.601-17.9-40-18C625.4,476,630.5,542,630.5,542z"/>
<path fill="#FFFFFF" stroke="#000000" stroke-miterlimit="10" d="M642.699,393.7c0,0-14.899,4.3-13.8,22.8c0,0-49.2-39.3-15.399-47
	C622.699,367.4,634.5,375.9,642.699,393.7z"/>
<path fill="#FFFFFF" stroke="#000000" stroke-miterlimit="10" d="M627.4,283.5c0,0-3.601,7,0,30.5c0,0-22-15.3-19.5-33.4
	C607.9,280.6,614.4,261,627.4,283.5z"/>
<path fill="#FFFFFF" stroke="#000000" stroke-miterlimit="10" d="M623.1,53.2c4.4,4.2,1,14.8-7.5,23.6c-8.5,8.9-19,12.6-23.3,8.4
	c-4.399-4.2-1-14.8,7.5-23.6C608.199,52.8,618.699,49,623.1,53.2z"/>
<path fill="#FFFFFF" stroke="#000000" stroke-miterlimit="10" d="M621,436.5c0,0-15.101-0.7-13.4,17.9
	c1.801,18.6-13.199-9.9-13.199-9.9s-15.4-27-6.4-34C588,410.5,607.1,395.9,621,436.5z"/>
<path fill="#FFFFFF" stroke="#000000" stroke-miterlimit="10" d="M629.6,204.1c-7.8,2.5-18,9.2-12.1,26.8
	c-109.801-7-82.101-39.5-82.101-39.5C544.9,173,629.6,204.1,629.6,204.1z"/>
<path fill="#FFFFFF" stroke="#000000" stroke-miterlimit="10" d="M615.699,240.6c-1.399,4.4-1.199,10.5,6.601,15.5
	c-5.899-0.4-12.399-1.4-19.5-3.1l0,0c-1.7-0.7-3.399-1.2-5.101-1.6c-0.8-0.2-1.5-0.3-2.3-0.4c0,0-30.2-5.4-60-7.4
	C517.8,217.3,615.699,240.6,615.699,240.6z"/>
<path fill="#FFFFFF" stroke="#000000" stroke-miterlimit="10" d="M588,134c12.5-17.5,25.399-25.5,25.399-25.5s-18.5,21.4-22.5,29
	c-10.601,20.1-40.801,35.3-78,46.5c-23.399,7-80.101,37.9-85.801,47l-0.899-4.9c31.301-26,63.301-38.5,86.7-45.7
	C553,168,575.199,152,588,134z"/>
<path fill="#FFFFFF" stroke="#000000" stroke-miterlimit="10" d="M595.4,251c0.5,0.2,1,0.3,1.601,0.5c-5.301,0.2-37.5,3-9,42.5
	c0,0-48.301-26.2-66.4-16.1L453.201,259l-4.5-1.3l-22.8-6.3c1.3-7.5,2.601-13.4,2.601-13.4c41,10,60,8,60,8
	c10.899-3.4,28.899-3.5,47-2.4C565.199,245.6,595.4,251,595.4,251z"/>
<path fill="#FFFFFF" stroke="#000000" stroke-miterlimit="10" d="M597.699,480.8c0,0-17.899-4.7-23.199,5.8
	c0,0-18.4-30.3-2.9-38.398C571.6,448.1,597.5,455.5,597.699,480.8z"/>
<path fill="#FFFFFF" stroke="#000000" stroke-miterlimit="10" d="M584.9,96c9.199,8.3,6.699,26.1-5.601,39.9
	c-12.3,13.8-29.8,18.3-39.101,10C531,137.6,533.5,119.8,545.8,106C558.199,92.3,575.699,87.8,584.9,96z"/>
<path fill="#FFFFFF" stroke="#000000" stroke-miterlimit="10" d="M588,294c0,0-19.5,27.5,9.699,42c-15.199-3.6-29.8-12.8-42-22.8
	l0,0c-20.199-16.5-34.101-35.3-34.101-35.3C539.699,267.8,588,294,588,294z"/>
<path fill="#FFFFFF" stroke="#000000" stroke-miterlimit="10" d="M597.699,336c0,0-29.5,1.5-10.699,36c0,0-26.801-14.5-31-22.3
	c1.699-7.5,1.899-19.101-0.4-36.5C568,323.2,582.5,332.4,597.699,336z"/>
<path fill="#FFFFFF" stroke="#000000" stroke-miterlimit="10" d="M556.1,349.8c4.2,7.8,31,22.3,31,22.3s-24.5,3.801-19.899,30.802
	c-0.601-0.802-21.7-29.9-21.5-40.501l0,0C550.1,361.9,554.1,358.8,556.1,349.8z"/>
<path fill="#FFFFFF" stroke="#000000" stroke-miterlimit="10" d="M567.199,402.8c0.101,0.4,0.101,0.7,0.2,1.102
	c0,0-12.2-2.4-14.801,10.1c0,0-23.899-43.101-25.5-60.101c1,0.601,2,1.101,3,1.601c0,0,8.2,7.399,15.7,6.8l0,0
	C545.5,373,566.6,402,567.199,402.8z"/>
<path fill="#FFFFFF" stroke="#000000" stroke-miterlimit="10" d="M539.8,449.4c0,0,26.899,13.1,20.101,31.398c0,0-22.5-6.3-29.5,8.7
	C530.4,489.5,518.3,455.3,539.8,449.4z"/>
<path fill="#FFFFFF" stroke="#000000" stroke-miterlimit="10" d="M472.5,299.2c-15.101-22.1-23.9-41.4-23.9-41.4l4.5,1.3l68.4,18.9
	c0,0,13.899,18.8,34.1,35.3l0,0c2.301,17.5,2.101,29,0.4,36.5c-2,9-6.101,12.2-10.4,12.5c-7.399,0.601-15.699-6.8-15.699-6.8
	c-1-0.5-2-1-3-1.6C504.9,341.4,486.1,319.1,472.5,299.2z"/>
<path fill="#FFFFFF" stroke="#000000" stroke-miterlimit="10" d="M532.699,509.1c7.2-35,39-12.6,39.7-12c-13.2,0.4-24,3-24,3
	C542.3,505.4,537.1,508.2,532.699,509.1z"/>
<path fill="#FFFFFF" stroke="#000000" stroke-miterlimit="10" d="M527.1,353.9c1.601,17,25.5,60.1,25.5,60.1s-38.1-13.4-36.1,16
	c0,0-49.601-116.8-43.9-130.8C486.1,319.1,504.9,341.4,527.1,353.9z"/>
<path fill="#FFFFFF" stroke="#000000" stroke-miterlimit="10" d="M532.3,149c3.2,8.9-5.7,20.2-19.899,25.2c-14.2,5-28.2,1.9-31.4-7
	c-3.199-8.9,5.7-20.2,19.9-25.2C515,137,529.1,140.1,532.3,149z"/>
<path fill="#FFFFFF" stroke="#000000" stroke-miterlimit="10" d="M519.8,463c3.899,6.5,0,42.7,0,42.7
	C511.5,498.2,509.4,482,509.4,482c-34.801,1.6-34.2-19-32.801-27c1.2-0.9,2.5-1.7,3.7-2.3c0.899,3.8,2.3,6.898,3.7,9.3l0,0
	c0.399,0.6,0.8,1.2,1.1,1.7c4.2,5.8,9,7.3,9,7.3c9.101,1.4,14-3.4,16.5-7.9c0.2-0.398,0.4-0.698,0.601-1.1c1.601-3.4,2-6.3,2-6.3
	c3.2,2,5.2,3.7,5.2,3.7C519.3,461.6,519.8,463,519.8,463z"/>
<path fill="#FFFFFF" stroke="#000000" stroke-miterlimit="10" d="M518.4,459.4c0,0-1.899-1.7-5.2-3.7c-6.899-4.3-19.899-10-32.899-3
	c-1.2,0.7-2.5,1.398-3.7,2.3c0.301-1.9,0.801-3,0.801-3C498.3,418.2,513.8,448.4,518.4,459.4z"/>
<path fill="#FFFFFF" stroke="#000000" stroke-miterlimit="10" d="M513.3,455.7c0,0-0.399,3-2,6.3c-0.2,0.4-0.399,0.7-0.601,1.1
	c0,0-16.5,7.9-26.601-1.1l0,0c-1.5-2.4-2.8-5.5-3.699-9.3C493.4,445.7,506.4,451.3,513.3,455.7z"/>
<path fill="#FFFFFF" stroke="#000000" stroke-miterlimit="10" d="M516.4,430c0,0-39.899-11.9-42,18.1c-8.5-13.1-6-27.1-6-27.1
	c6-17,0-48,0-48c-4-29-32-74-32-74c-7-2-13-25.5-13-25.5c0-6.5,1.199-15,2.399-22.1l22.8,6.3c0,0,8.801,19.3,23.9,41.399
	C466.8,313.2,516.4,430,516.4,430z"/>
<path fill="#FFFFFF" stroke="#000000" stroke-miterlimit="10" d="M510.699,463.1c-2.5,4.602-7.3,9.302-16.5,7.9c0,0-4.8-1.5-9-7.3
	c-0.399-0.5-0.8-1.102-1.101-1.7C494.3,471,510.699,463.1,510.699,463.1z"/>
<path fill="#FFFFFF" stroke="#000000" stroke-miterlimit="10" d="M486.9,78.5c6.5-4.5,6.5,2.5,6.5,2.5c-3,9-24,25-24,25
	C475.4,94,486.9,78.5,486.9,78.5z"/>
<path fill="#FFFFFF" stroke="#000000" stroke-miterlimit="10" d="M426.199,226l0.899,4.9l1.301,7c0,0-1.301,5.9-2.601,13.4
	c-1.2,7.1-2.399,15.5-2.399,22.1c-0.2,0.5-1,1.7-2.5,3c-1.101,0.9-2.5,1.9-4.301,2.8c-3.8,1.8-9.399,3.2-17.899,2.9l0,0
	c-8.5,0.3-14.199-1.1-17.899-2.9c-1.899-0.9-3.3-1.9-4.3-2.8c-1.9-1.7-2.5-3-2.5-3c0-6.5-1.2-15-2.4-22.1
	c-1.3-7.5-2.6-13.4-2.6-13.4l1.3-7l0.899-4.9l1.2-6.4l0,0l0.399-1.9l0.899-4.6c-0.101,2.9,1.601,7.4,13.601,6.3
	c0,0,2.101,41.5,10.3,45.2c0,0,12.9,4.7,12.7-45.2c12,1,13.7-3.5,13.601-6.3l0.899,4.6l0.3,1.9l0,0L426.199,226z"/>
<path fill="#FFFFFF" stroke="#000000" stroke-miterlimit="10" d="M420.9,276.5c4.899,9.5-4.5,58-4.5,58c0,39-7.101,77.2-7.101,77.2
	c-11,23-19.601,0-19.601,0s-8.8-38.2-8.8-77.2c0,0-13-50.9-4.5-58c1,0.9,2.399,1.9,4.3,2.8c3.8,1.8,9.399,3.2,17.899,2.9l0,0
	c8.399,0.3,14.101-1.1,17.899-2.9C418.5,278.5,419.9,277.5,420.9,276.5z"/>
<path fill="#FFFFFF" stroke="#000000" stroke-miterlimit="10" d="M418.199,190.1c1,3.4,1.2,6.5,0.801,8.9
	c-0.301,1.9-1.2,3.2-2.301,3.6c-2.699,0.8-6.199-3.5-8-9.6c-1.8-6.1-1.101-11.7,1.601-12.4C412.9,179.7,416.5,184,418.199,190.1z"/>
<path fill="#FFFFFF" stroke="#000000" stroke-miterlimit="10" d="M410.199,219.5c0.2,49.8-12.699,45.2-12.699,45.2
	c-8.2-3.7-10.301-45.2-10.301-45.2s4.101-7.1,11.5-8.5C406.1,212.4,410.199,219.5,410.199,219.5z"/>
<path fill="#FFFFFF" stroke="#000000" stroke-miterlimit="10" d="M387.199,180.5c2.601,0.8,3.399,6.3,1.601,12.4s-5.399,10.4-8,9.6
	c-1.2-0.4-2-1.7-2.3-3.6c-0.4-2.3-0.2-5.5,0.8-8.9C381,184,384.6,179.7,387.199,180.5z"/>
<path fill="#FFFFFF" stroke="#000000" stroke-miterlimit="10" d="M374,211c0,0-0.4,0.9-0.4,2.2l-0.899,4.6l-0.399,1.9
	c-3.101-7.9-52.399-68.1-52.399-68.1C310.5,137,222.5,77,222.5,77C152.5,9,88,12.8,88,12.8l0,0c36.4-4.9,70,8.2,70,8.2
	c26,9,87,56,87,56C332,124,374,211,374,211z"/>
<path fill="#FFFFFF" stroke="#000000" stroke-miterlimit="10" d="M372.4,219.6L372.4,219.6l-1.2,6.4c-31.3-26-63.3-38.5-86.699-45.7
	c-40-12.3-62.3-28.4-75.101-46.4C197,116.5,184,108.5,184,108.5s18.5,21.4,22.5,29c10.6,20.1,40.8,35.3,78,46.5
	c23.399,7,80.1,37.9,85.8,47l-1.3,7c-41,10-60,8-60,8c-11-3.4-28.9-3.5-47-2.4c17.5-26.4-80.3-3.1-80.3-3.1
	c-1.101-3.6-3.2-6.1-3.2-6.1c0.5-1.2,1-2.4,1.399-3.5l0,0C289.7,223.9,262,191.4,262,191.4c-9.5-18.5-94.2,12.6-94.2,12.6
	c-4.2-1.4-7.8-1.5-7.8-1.5c1-2.6,1.7-4.9,2.2-7.1c82.899-15.6,65.8-29,65.8-29c-8.101-15.5-73.2,4.9-73.2,4.9
	c-2.3-1.3-4.2-1.6-4.2-1.6c0.3-1.1,0.601-2.2,0.8-3.3c56.301-9,55.801-18.5,55.801-18.5c2-20.5-61.2-4-61.2-4l-0.601,0.2
	c-2-2.2-3.699-3.2-3.699-3.2c0.5-1.2,1-2.4,1.199-3.6l0,0c47.7-0.3,44.801-13.4,44.801-13.4c-5-22.5-51.4-8.3-51.4-8.3
	c-2.2-2.4-4.1-3.7-4.1-3.7c0.699-1.2,1.199-2.4,1.6-3.5c37.4,2.1,39.4-11,39.4-11c-1-17.5-44.4-7.7-44.4-7.7c-2.6-3-5.1-4.8-5.1-4.8
	c12.6-6,32.899-0.4,42.3-5.5C187.4,67.7,119,67,119,67c-3.5-3.4-7.5-5-7.5-5c5-7,43.2-4.8,43.2-4.8C157.7,34.8,102,42,102,42
	c0.5-19-14-29.2-14-29.2S152.5,9,222.5,77c0,0,88,60,97.5,74.5C320,151.5,369.3,211.8,372.4,219.6z M316.4,167.2
	c3.199-8.9-5.7-20.2-19.899-25.2c-14.101-5-28.2-1.9-31.4,7c-3.2,8.9,5.7,20.2,19.9,25.2C299.199,179.2,313.3,176.1,316.4,167.2z
	 M257.2,146c9.199-8.3,6.699-26.1-5.601-39.9c-12.399-13.8-29.8-18.3-39.1-10c-9.2,8.3-6.7,26.1,5.6,39.9
	C230.5,149.8,248,154.2,257.2,146z M205.2,85.3c4.399-4.2,1-14.8-7.5-23.6c-8.5-8.9-19-12.6-23.301-8.4c-4.399,4.2-1,14.8,7.5,23.6
	C190.4,85.7,200.8,89.5,205.2,85.3z"/>
<path fill="#FFFFFF" stroke="#000000" stroke-miterlimit="10" d="M371.6,251.4c1.2,7.1,2.4,15.5,2.4,22.1c0,0-6,23.5-13,25.5
	c0,0-28,45-32,74c0,0-6,31,0,48c0,0,2.5,14-6,27.1c-2.1-29.899-42-18.1-42-18.1s49.6-116.8,43.899-130.8
	c15.101-22.1,23.899-41.4,23.899-41.4L371.6,251.4z"/>
<path fill="#FFFFFF" stroke="#000000" stroke-miterlimit="10" d="M369,238c0,0,1.3,5.9,2.6,13.4l-22.8,6.3l-4.5,1.3l-68.4,18.9
	c-18.1-10.1-66.4,16.1-66.4,16.1c28.5-39.6-3.7-42.4-9-42.5c0.5-0.1,1-0.3,1.6-0.5c0,0,30.2-5.4,60-7.4c18.101-1.2,36-1,47,2.4
	C309,246,328,248,369,238z"/>
<path fill="#FFFFFF" stroke="#000000" stroke-miterlimit="10" d="M371.199,226l-0.899,4.9c-5.7-9-62.399-39.9-85.8-47
	c-37.2-11.2-67.4-26.4-78-46.5c-4-7.6-22.5-29-22.5-29s13,8,25.399,25.5c12.801,18,35.101,34,75.101,46.4
	C307.9,187.6,339.9,200.1,371.199,226z"/>
<path fill="#FFFFFF" stroke="#000000" stroke-miterlimit="10" d="M324.9,299.2C330.6,313.2,281,430,281,430
	c2-29.4-36.101-16-36.101-16s23.9-43.1,25.5-60.1C292.5,341.4,311.3,319.1,324.9,299.2z"/>
<path fill="#FFFFFF" stroke="#000000" stroke-miterlimit="10" d="M230.2,402.8c-0.101,0.4-0.101,0.7-0.2,1.102
	c0,0,12.2-2.4,14.8,10.1c0,0,38.1-13.4,36.1,16c0,0,39.9-11.9,42,18.1l0,0c-0.899,1.302-1.801,2.602-3,3.9
	c-20.899-33.8-36.399-3.6-41,7.4C278,461.6,277.5,463,277.5,463c-3.9,6.5,0,42.7,0,42.7c-3.3,2.898-7.5,4.6-12.9,3.398
	c-7.2-35-39-12.6-39.7-12c-1.3,0-2.6,0-4,0l0,0c-49-21-54.1,45-54.1,45l1.3,0.102c-0.1,0.7-0.2,1.398-0.2,1.898c0,0-13,16-14-7
	c0,0,1.2-10.198,3.601-23.6l0,0c43.1-83.6-0.4-63.1-0.4-63.1c-2-1.602-3.8-4.302-4.7-8.5C174,406.4,138,407,138,407
	c-0.7-1-1.3-2-1.9-3.1c25.3-56.801-1.6-53-2.3-52.9c-0.2-1.6-0.3-3.3-0.2-5c47.5-43.5,18.5-52,18.5-52s19.3-32,42.601-41l0,0
	c1.899-0.5,3.8-1,5.8-1.5c5.3,0.2,37.5,3,9,42.5c0,0,19.5,27.5-9.7,42c0,0,29.5,1.5,10.7,36C210.4,372,234.9,375.8,230.2,402.8z
	 M267,489.5c0,0,12.1-34.2-9.4-40.1c0,0-26.899,13.1-20.1,31.398C237.5,480.8,260,474.4,267,489.5z M222.9,486.5
	c0,0,18.4-30.3,2.9-38.4c0,0-26,7.4-26.1,32.7C199.7,480.8,217.6,476,222.9,486.5z M203,444.5c0,0,15.399-27,6.399-34
	c0,0-19.1-14.6-33,26c0,0,15.101-0.7,13.4,17.9C188,473,203,444.5,203,444.5z M170,314c0,0,22-15.3,19.5-33.4c0,0-6.5-19.6-19.5,2.9
	C170,283.5,173.6,290.5,170,314z M168.6,416.5c0,0,49.2-39.3,15.4-47c-9.3-2.1-21,6.4-29.3,24.2C154.7,393.7,169.6,398,168.6,416.5z
	 M159.5,362.3c0,0,35.1-18.8,24.8-33.3c0,0-8-14.1-23.5,3.5C160.8,332.5,163.5,349.8,159.5,362.3z"/>
<path fill="#FFFFFF" stroke="#000000" stroke-miterlimit="10" d="M320.8,455c1.5,7.9,2,28.6-32.8,27c0,0-2,16.1-10.4,23.7
	c0,0-3.899-36.2,0-42.7c0,0,0.5-1.4,1.4-3.6c0,0,1.899-1.7,5.2-3.7c0,0,0.399,3,2,6.3c0.199,0.4,0.399,0.7,0.6,1.1
	c2.5,4.602,7.4,9.302,16.5,7.9c0,0,4.8-1.5,9-7.3c0.399-0.5,0.8-1.102,1.101-1.7c1.5-2.4,2.8-5.5,3.8-9.3
	C318.3,453.3,319.5,454.1,320.8,455z"/>
<path fill="#FFFFFF" stroke="#000000" stroke-miterlimit="10" d="M320,452c0,0,0.399,1.2,0.8,3c-1.2-0.9-2.5-1.7-3.7-2.3
	c-13-7-26-1.4-32.898,3c-3.2,2-5.2,3.7-5.2,3.7C283.6,448.4,299.1,418.2,320,452z"/>
<path fill="#FFFFFF" stroke="#000000" stroke-miterlimit="10" d="M310.5,78.5c0,0,11.5,15.5,17.5,27.5c0,0-21-16-24-25
	C304,81,304,74,310.5,78.5z"/>
<path fill="#FFFFFF" stroke="#000000" stroke-miterlimit="10" d="M296.5,142c14.1,5,23,16.3,19.899,25.2c-3.2,8.9-17.2,12-31.399,7
	c-14.101-5-23-16.3-19.9-25.2C268.4,140.1,282.4,137,296.5,142z"/>
<path fill="#FFFFFF" stroke="#000000" stroke-miterlimit="10" d="M317.1,452.7c-0.899,3.8-2.3,6.898-3.8,9.3
	c-10.101,9.1-26.6,1.1-26.6,1.1c-0.2-0.398-0.4-0.698-0.601-1.1c-1.6-3.4-2-6.3-2-6.3C291.1,451.3,304,445.7,317.1,452.7z"/>
<path fill="#FFFFFF" stroke="#000000" stroke-miterlimit="10" d="M313.3,462c-0.399,0.6-0.8,1.2-1.101,1.7c-4.2,5.8-9,7.3-9,7.3
	c-9.1,1.4-13.899-3.4-16.499-7.9C286.7,463.1,303.199,471.1,313.3,462z"/>
<path fill="#FFFFFF" stroke="#000000" stroke-miterlimit="10" d="M267.4,355.5c1-0.5,2-1,3-1.6c-1.6,17-25.5,60.1-25.5,60.1
	c-2.6-12.5-14.8-10.1-14.8-10.1c0.101-0.4,0.101-0.7,0.2-1.102c0.6-0.8,21.7-29.898,21.5-40.5l0,0
	C259.2,362.9,267.4,355.5,267.4,355.5z"/>
<path fill="#FFFFFF" stroke="#000000" stroke-miterlimit="10" d="M257.6,449.4c21.5,5.898,9.4,40.1,9.4,40.1
	c-7-15-29.5-8.7-29.5-8.7C230.7,462.4,257.6,449.4,257.6,449.4z"/>
<path fill="#FFFFFF" stroke="#000000" stroke-miterlimit="10" d="M209.4,294c0,0,48.301-26.2,66.4-16.1c0,0-13.9,18.8-34.1,35.3l0,0
	c-12.301,10-26.9,19.2-42,22.8C228.9,321.5,209.4,294,209.4,294z"/>
<path fill="#FFFFFF" stroke="#000000" stroke-miterlimit="10" d="M181.7,240.6c0,0,97.899-23.3,80.3,3.1c-29.8,1.9-60,7.4-60,7.4
	c-0.8,0.1-1.5,0.3-2.3,0.4c-1.7,0.4-3.4,0.9-5.101,1.6l0,0c-7.1,1.7-13.6,2.6-19.5,3.1C182.9,251.1,183.1,245,181.7,240.6z"/>
<path fill="#FFFFFF" stroke="#000000" stroke-miterlimit="10" d="M262,191.5c0,0,27.7,32.4-82.101,39.5c6-17.6-4.199-24.3-12.1-26.8
	C167.8,204.1,252.5,173,262,191.5z"/>
<path id="ABC-color.com" fill="#FFFFFF" stroke="#000000" stroke-miterlimit="10" d="M251.6,106c12.3,13.8,14.9,31.7,5.601,39.9
	c-9.2,8.3-26.7,3.8-39.101-10c-12.4-13.8-14.9-31.7-5.6-39.9S239.3,92.3,251.6,106z"/>
<path fill="#FFFFFF" stroke="#000000" stroke-miterlimit="10" d="M264.7,509.1c-4.4-0.898-9.601-3.698-15.7-9.1c0,0-10.8-2.6-24-3
	C225.8,496.5,257.6,474.1,264.7,509.1z"/>
<path fill="#FFFFFF" stroke="#000000" stroke-miterlimit="10" d="M241.8,313.2c-2.3,17.5-2.1,29-0.4,36.5
	c-4.2,7.8-30.9,22.3-30.9,22.3c18.899-34.5-10.7-36-10.7-36C214.9,332.4,229.5,323.2,241.8,313.2z"/>
<path fill="#FFFFFF" stroke="#000000" stroke-miterlimit="10" d="M228,166.5c0,0,17.2,13.4-65.8,29c3.6-15.2-2.801-21.6-7.5-24.2
	C154.7,171.3,219.9,150.9,228,166.5z"/>
<path fill="#FFFFFF" stroke="#000000" stroke-miterlimit="10" d="M225.9,448.1c15.5,8.101-2.9,38.4-2.9,38.4
	c-5.3-10.5-23.2-5.8-23.2-5.8C199.9,455.5,225.9,448.1,225.9,448.1z"/>
<path fill="#FFFFFF" stroke="#000000" stroke-miterlimit="10" d="M209.4,410.5c9,7-6.399,34-6.399,34s-15,28.5-13.2,9.9
	c1.8-18.602-13.4-17.9-13.4-17.9C190.3,395.9,209.4,410.5,209.4,410.5z"/>
<path fill="#FFFFFF" stroke="#000000" stroke-miterlimit="10" d="M145.8,144c0,0,63.2-16.5,61.2,4c0,0,0.5,9.4-55.8,18.5
	c2-11.2-2.5-18.4-6-22.2L145.8,144z"/>
<path fill="#FFFFFF" stroke="#000000" stroke-miterlimit="10" d="M197.7,61.6c8.5,8.9,11.899,19.4,7.5,23.6
	c-4.4,4.2-14.801,0.4-23.301-8.4c-8.5-8.9-11.899-19.4-7.5-23.6C178.8,49,189.2,52.8,197.7,61.6z"/>
<path fill="#FFFFFF" stroke="#000000" stroke-miterlimit="10" d="M166.9,542c0,0,5.101-66,54.101-45c-15.4,0.1-32.9,3.8-40,18
	c0,0-11,18.7-12.8,27.1L166.9,542z"/>
<path fill="#FFFFFF" stroke="#000000" stroke-miterlimit="10" d="M189.5,280.6C192,298.7,170,314,170,314c3.6-23.5,0-30.5,0-30.5
	C183,261,189.5,280.6,189.5,280.6z"/>
<path fill="#FFFFFF" stroke="#000000" stroke-miterlimit="10" d="M187.5,124c0,0,3,13.1-44.8,13.4l0,0c2.5-9.7-2.7-17.5-6.601-21.8
	C136.1,115.7,182.5,101.5,187.5,124z"/>
<path fill="#FFFFFF" stroke="#000000" stroke-miterlimit="10" d="M184,369.5c33.8,7.7-15.4,47-15.4,47
	c1-18.5-13.899-22.8-13.899-22.8C163,375.9,174.7,367.4,184,369.5z"/>
<path fill="#FFFFFF" stroke="#000000" stroke-miterlimit="10" d="M184.3,329c10.4,14.5-24.8,33.3-24.8,33.3
	c4-12.5,1.3-29.8,1.3-29.8C176.2,314.9,184.3,329,184.3,329z"/>
<path id="www.ABC-color.com" fill="#FFFFFF" stroke="#000000" stroke-miterlimit="10" d="M162.2,195.5c-0.5,2.2-1.2,4.6-2.2,7.1
	c0,0,3.6,0.1,7.8,1.5c7.9,2.5,18,9.2,12.1,26.8l0,0c-0.399,1.1-0.8,2.3-1.399,3.5c0,0,2.1,2.5,3.2,6.1
	c1.399,4.4,1.199,10.5-6.601,15.5c-23.6,1.7-37.1-5.1-37.1-5.1c-43-23-39-47-39-47c-26.3-12.5-12-36-12-36c-19-3-7-29-7-29
	c-18-8.5-7-27.6-7-27.6C60,107.7,62,84,62,84c-14-9-5-21-5-21c-19-9-10-35-10-35c13-8.8,27.2-13.3,41-15.2l0,0
	c0,0,14.5,10.2,14,29.2c0,0,13,4.5,9.5,20c0,0,4,1.6,7.5,5c3.899,3.7,7.399,9.6,4.5,18c0,0,2.5,1.8,5.1,4.8c3.7,4.2,7.5,10.9,5,18.7
	c-0.399,1.1-0.899,2.3-1.6,3.5c0,0,1.8,1.3,4.1,3.7c4,4.3,9.2,12,6.601,21.8c-0.301,1.2-0.7,2.3-1.2,3.6c0,0,1.7,1,3.7,3.2
	c3.5,3.8,8,11.1,6,22.2c-0.2,1.1-0.4,2.1-0.801,3.3c0,0,1.9,0.3,4.2,1.6C159.4,173.9,165.8,180.3,162.2,195.5z M159.5,232.1
	c0-6.9-6.101-12.4-13.7-12.4c-7.599,0-13.7,5.6-13.7,12.4c0,6.8,6.2,12.4,13.7,12.4C153.4,244.5,159.5,238.9,159.5,232.1z
	 M138,195.8c0-6.2-6-11.3-13.5-11.3s-13.5,5-13.5,11.3c0,6.3,6,11.3,13.5,11.3S138,202,138,195.8z M125,166.6c0-4.5-5.4-8.1-12-8.1
	c-6.601,0-12,3.6-12,8.1s5.399,8.1,12,8.1C119.6,174.7,125,171.1,125,166.6z M119,135.3c0-4.8-5.5-8.8-12.3-8.8
	c-6.801,0-12.301,3.9-12.301,8.8c0,4.9,5.5,8.8,12.301,8.8C113.5,144.1,119,140.1,119,135.3z M114,106.6c0-5-5.8-9.1-13-9.1
	s-13,4.1-13,9.1s5.8,9.1,13,9.1S114,111.6,114,106.6z M106,84.2c0-4-5.4-7.3-12.101-7.3c-6.699,0-12.1,3.3-12.1,7.3
	s5.4,7.3,12.1,7.3C100.6,91.5,106,88.3,106,84.2z M94.5,60.3c0-4-5.7-7.3-12.8-7.3C74.6,53,69,56.3,69,60.3s5.7,7.3,12.8,7.3
	C88.9,67.6,94.5,64.3,94.5,60.3z M86,37.8C86,33,80.1,29,72.7,29c-7.4,0-13.3,3.9-13.3,8.8c0,4.9,5.9,8.8,13.301,8.8
	C80.1,46.6,86,42.6,86,37.8z"/>
<path fill="#FFFFFF" stroke="#000000" stroke-miterlimit="10" d="M170,468c0,0,4-13-6-15c0,0-3.601,0-6.8-2.7
	c0,0,43.5-20.398,0.399,63.102C160.2,499,164.3,481,170,468z"/>
<path fill="#FFFFFF" stroke="#000000" stroke-miterlimit="10" d="M119,67c0,0,68.399,0.8,46.8,12.5c-9.4,5.1-29.7-0.5-42.3,5.5
	C126.4,76.6,122.9,70.7,119,67z"/>
<path fill="#FFFFFF" stroke="#000000" stroke-miterlimit="10" d="M145.8,219.6c7.6,0,13.7,5.6,13.7,12.4s-6.101,12.4-13.7,12.4
	c-7.599,0-13.7-5.6-13.7-12.4S138.2,219.6,145.8,219.6z"/>
<path fill="#FFFFFF" stroke="#000000" stroke-miterlimit="10" d="M102,42c0,0,55.7-7.3,52.7,15.3c0,0-38.2-2.3-43.2,4.8
	C115,46.5,102,42,102,42z"/>
<path fill="#FFFFFF" stroke="#000000" stroke-miterlimit="10" d="M138,407c0,0,36-0.6,14.5,34.7c-0.9-4.5-0.8-10.8,1.5-19.7
	C154,422,144.5,416.5,138,407z"/>
<path fill="#FFFFFF" stroke="#000000" stroke-miterlimit="10" d="M128.6,89.8c0,0,43.4-9.8,44.4,7.7c0,0-2,13.1-39.4,11
	C136.2,100.7,132.3,94,128.6,89.8z"/>
<path fill="#FFFFFF" stroke="#000000" stroke-miterlimit="10" d="M152,294c0,0,29.1,8.5-18.5,52c0.3-7.7,3.3-16.6,12.5-25
	C146,321,150,308,152,294z"/>
<path fill="#FFFFFF" stroke="#000000" stroke-miterlimit="10" d="M133.8,351c0.7-0.1,27.6-3.9,2.3,52.9
	c-5.2-9.2-6.899-21.602,3.9-35.9C140,368,134.9,360.9,133.8,351z"/>
<path fill="#FFFFFF" stroke="#000000" stroke-miterlimit="10" d="M124.5,184.5c7.5,0,13.5,5,13.5,11.3c0,6.3-6,11.3-13.5,11.3
	s-13.5-5-13.5-11.3C111,189.5,117,184.5,124.5,184.5z"/>
<path fill="#FFFFFF" stroke="#000000" stroke-miterlimit="10" d="M113,158.5c6.6,0,12,3.6,12,8.1s-5.4,8.1-12,8.1
	c-6.601,0-12-3.6-12-8.1S106.4,158.5,113,158.5z"/>
<path fill="#FFFFFF" stroke="#000000" stroke-miterlimit="10" d="M106.8,126.5c6.8,0,12.3,3.9,12.3,8.8c0,4.9-5.5,8.8-12.3,8.8
	c-6.8,0-12.3-3.9-12.3-8.8C94.5,130.4,100,126.5,106.8,126.5z"/>
<path fill="#FFFFFF" stroke="#000000" stroke-miterlimit="10" d="M101,97.5c7.2,0,13,4.1,13,9.1s-5.8,9.1-13,9.1s-13-4.1-13-9.1
	S93.9,97.5,101,97.5z"/>
<path fill="#FFFFFF" stroke="#000000" stroke-miterlimit="10" d="M93.9,77c6.7,0,12.1,3.3,12.1,7.3s-5.4,7.3-12.101,7.3
	c-6.699,0-12.1-3.3-12.1-7.3C81.8,80.2,87.2,77,93.9,77z"/>
<path fill="#FFFFFF" stroke="#000000" stroke-miterlimit="10" d="M81.8,53c7,0,12.8,3.3,12.8,7.3s-5.7,7.3-12.8,7.3
	c-7.1,0-12.8-3.3-12.8-7.3S74.7,53,81.8,53z"/>
<ellipse fill="#FFFFFF" stroke="#000000" stroke-miterlimit="10" cx="72.8" cy="37.8" rx="13.3" ry="8.8"/>
<path fill="none" stroke="#000000" stroke-width="0.5" stroke-linecap="round" stroke-linejoin="round" d="M328,106
	c0,0,26.6,39,61.8,70"/>
<path fill="none" stroke="#000000" stroke-width="0.5" stroke-linecap="round" stroke-linejoin="round" d="M469.4,106
	c0,0-25.301,39-60.601,70"/>
</svg>
