<?xml version="1.0" encoding="utf-8"?>
<!-- Generator: Adobe Illustrator 15.0.0, SVG Export Plug-In . SVG Version: 6.00 Build 0)  -->
<!DOCTYPE svg PUBLIC "-//W3C//DTD SVG 1.1//EN" "http://www.w3.org/Graphics/SVG/1.1/DTD/svg11.dtd">
<svg version="1.1" id="layer_x5F_www.ABC-color.com"
	 xmlns="http://www.w3.org/2000/svg" xmlns:xlink="http://www.w3.org/1999/xlink" x="0px" y="0px" width="822px" height="567px"
	 viewBox="0 0 822 567" enable-background="new 0 0 822 567" xml:space="preserve">
<path fill="#FFFFFF" stroke="#000000" stroke-miterlimit="10" d="M479.1,479.4c15.4,11.198,19.4,32.1,8.801,46.8
	c-10.601,14.7-31.7,17.5-47.101,6.3c-15.399-11.2-19.399-32.1-8.8-46.8C442.6,471.1,463.699,468.3,479.1,479.4z"/>
<path fill="#FFFFFF" stroke="#000000" stroke-miterlimit="10" d="M552.5,375c25.5,18.4,41.1,40.2,35,48.7
	c-6.101,8.5-31.801,0.5-57.2-18c-25.5-18.4-41.101-40.2-35-48.7C501.4,348.6,527,356.6,552.5,375z"/>
<path fill="#FFFFFF" stroke="#000000" stroke-miterlimit="10" d="M622.699,289.6C643.5,304.7,654.5,325,647.3,335
	c-7.3,10-30,6-50.899-9.1C575.6,310.799,564.6,290.5,571.8,280.5C579.1,270.5,601.9,274.6,622.699,289.6z"/>
<path fill="#FFFFFF" stroke="#000000" stroke-miterlimit="10" d="M202.3,270.8c12.8,9.3,14.6,28.7,4,43.3
	c-10.6,14.7-29.6,19-42.4,9.801c-12.8-9.301-14.6-28.699-4-43.299C170.5,265.9,189.5,261.5,202.3,270.8z"/>
<path id="www.ABC-color.com" fill="#FFFFFF" stroke="#000000" stroke-miterlimit="10" d="M273,173c19.3,14,29.1,33.4,21.8,43.4
	c-7.3,10-28.8,6.9-48.1-7.1c-19.301-14-29.101-33.4-21.801-43.4C232.2,155.9,253.7,159,273,173z"/>
<path fill="#FFFFFF" stroke="#000000" stroke-miterlimit="10" d="M348.699,83c15.399,11.2,20.7,30.2,11.801,42.6
	c-8.9,12.4-28.7,13.3-44.101,2.1C301,116.5,295.7,97.5,304.6,85.1C313.5,72.8,333.3,71.9,348.699,83z"/>
<path fill="#FFFFFF" stroke="#000000" stroke-miterlimit="10" d="M507.699,85.7c6.2,4.5,4.801,16.8-3,27.6
	c-7.8,10.8-19.199,15.9-25.3,11.5c-6.2-4.5-4.801-16.8,3-27.6C490.199,86.3,501.5,81.2,507.699,85.7z"/>
<path fill="#FFFFFF" stroke="#000000" stroke-miterlimit="10" d="M558.5,117.7c6.3,4.5,4.8,17.1-3.2,28.2c-8,11-19.5,16.4-25.8,11.8
	c-6.2-4.5-4.801-17.1,3.199-28.2S552.3,113.2,558.5,117.7z"/>
<path fill="#FFFFFF" stroke="#000000" stroke-miterlimit="10" d="M484.3,168.3c10.2,7.4,5.899,30.9-9.7,52.5
	c-10,13.9-22.3,23.6-32.5,26.8c-5.699,1.8-10.699,1.6-14.399-1.1c-3.399-2.5-5.2-6.8-5.5-12.2l0.2-0.2c0,0,0-1.4-0.101-3.9
	c0.8-10.3,6-23.6,15.2-36.3C453.1,172.4,474,160.9,484.3,168.3z"/>
<path fill="#FFFFFF" stroke="#000000" stroke-miterlimit="10" d="M442.1,247.6l0.301,1L405.1,323.7c0,0-64.8,42.5-65.699,67.399
	c-0.2,4,0.601,10.101,2,17.601c-39.5,53.8-59.399,43-59.399,43c-22.4-16.2,27.899-72.8,27.899-72.8l0,0
	c3.899-0.7,7.101-1.5,9.399-2.4c23.3-8.7,43.399-83.5,43.399-83.5l59.5-58.8c0.301,5.4,2.101,9.7,5.5,12.2
	C431.4,249.2,436.4,249.4,442.1,247.6z"/>
<path fill="#FFFFFF" stroke="#000000" stroke-miterlimit="10" d="M341.4,408.8c-1.399-7.5-2.2-13.7-2-17.6
	c0.899-24.8,65.699-67.4,65.699-67.4C437.2,375.4,512.5,425.5,549.3,447.901l-0.601,1c0,0-3,104.198-41.3,80.698
	c0,0-39.301,78-90.5-10.1c0,0-19.101,50-43.301,7C373.5,526.5,348.8,448.5,341.4,408.8z M487.8,526.2
	c10.601-14.7,6.7-35.602-8.8-46.8c-15.4-11.2-36.5-8.302-47.101,6.3c-10.601,14.7-6.7,35.6,8.8,46.8S477.3,540.8,487.8,526.2z"/>
<path fill="#FFFFFF" stroke="#000000" stroke-miterlimit="10" d="M362.699,293.2c0,0-20.101,74.8-43.399,83.5
	c-2.3,0.899-5.5,1.6-9.399,2.399c-35.7,6.601-129.7,7.7-129.7,7.7c-48.5-9.5-7-43.3-7-43.3c-99.7-21-38-82.8-38-82.8
	c-34.3-29.1,63.7-64.6,63.7-64.6l0.601-1C232.3,222.9,303.6,278.8,362.699,293.2z M206.3,314.1c10.6-14.699,8.8-34.1-4-43.3
	c-12.8-9.3-31.8-4.9-42.4,9.8c-10.6,14.7-8.8,34.1,4,43.3C176.7,333.2,195.7,328.8,206.3,314.1z"/>
<path id="ABC-color.com" fill="#FFFFFF" stroke="#000000" stroke-miterlimit="10" d="M672.5,266c0,0,59.3,76.9,2,73.8
	c0,0,10.399,79.8-52.801,55.4c0,0,17.801,110.7-51.3,65c0,0-8.2-4.5-21-12.3c-36.801-22.5-112.101-72.5-144.2-124.102l37.301-75.1
	C442.5,248.7,689.4,171.9,672.5,266z M647.3,335.1c7.3-10-3.8-30.398-24.601-45.398c-20.8-15.1-43.601-19.1-50.899-9.1
	c-7.3,10,3.8,30.4,24.601,45.4C617.3,341,640,345.1,647.3,335.1z M587.5,423.7c6.1-8.5-9.5-30.3-35-48.7s-51.101-26.5-57.2-18
	c-6.101,8.5,9.5,30.3,35,48.7C555.699,424.2,581.3,432.2,587.5,423.7z"/>
<path fill="#FFFFFF" stroke="#000000" stroke-miterlimit="10" d="M422.199,234.3l-59.5,58.8C303.6,278.8,232.3,222.9,199.5,195
	c-11.4-9.7-18.2-16-18.2-16c-65.1-51.3,45.7-69.1,45.7-69.1c-43-52.4,36.1-67.5,36.1-67.5C249-16,333.8,21.2,333.8,21.2
	c77.899-42.3,87.5,176.9,88.5,209.1C422.199,231.7,422.199,233,422.199,234.3z M360.5,125.6c8.899-12.4,3.6-31.4-11.801-42.6
	C333.3,71.8,313.5,72.8,304.6,85.1c-8.899,12.4-3.7,31.4,11.8,42.6C331.8,138.9,351.5,137.9,360.5,125.6z M294.8,216.4
	c7.3-10-2.5-29.5-21.8-43.4c-19.3-14-40.8-17.1-48.101-7.1c-7.3,10,2.5,29.5,21.801,43.4C266,223.3,287.5,226.4,294.8,216.4z"/>
</svg>
