<?xml version="1.0" encoding="utf-8"?>
<!-- Generator: Adobe Illustrator 15.0.0, SVG Export Plug-In . SVG Version: 6.00 Build 0)  -->
<!DOCTYPE svg PUBLIC "-//W3C//DTD SVG 1.1//EN" "http://www.w3.org/Graphics/SVG/1.1/DTD/svg11.dtd">
<svg version="1.1" id="Layer_1" xmlns="http://www.w3.org/2000/svg" xmlns:xlink="http://www.w3.org/1999/xlink" x="0px" y="0px"
	 width="822px" height="567px" viewBox="0 0 822 567" enable-background="new 0 0 822 567" xml:space="preserve">
<path fill="#FFFFFF" stroke="#000000" stroke-miterlimit="10" d="M439.1,183.8C511.3,82.8,666.4,78.3,660.2,80.4
	c-7.9,2.7-45.3,97.9-63.4,129.2C558.4,276.1,469.6,288.8,427,291c-10.1,0.5-17.6,0.4-21.2,0.3c-1.399-0.6-2.2-0.899-2.2-0.899
	s0,0-0.1,0c0.6-12.3,2.1-23.8,4.4-34.7C413.8,227.5,424.8,203.8,439.1,183.8L439.1,183.8z M613.7,142.6
	c11.7-13.3,12.8-30.4,2.399-38.2C605.7,96.6,587.7,101,576,114.2c-11.7,13.3-12.8,30.4-2.4,38.2C584,160.3,602,155.9,613.7,142.6z
	 M539.5,239.6c84.2-68.9,15.5-71.8,15.5-71.8s-4.9-69.9-79.2,5.5c-24.399,24.8-67.5,81.7-49.899,100
	C443.5,291.6,512.4,261.8,539.5,239.6z"/>
<path fill="#FFFFFF" stroke="#000000" stroke-miterlimit="10" d="M616.1,104.4c10.4,7.8,9.301,24.9-2.399,38.2
	c-11.7,13.3-29.7,17.7-40.101,9.8c-10.399-7.8-9.3-24.9,2.4-38.2C587.7,101,605.7,96.5,616.1,104.4z"/>
<path fill="#FFFFFF" stroke="#000000" stroke-miterlimit="10" d="M427,297.2C618.2,353.9,584.4,569,583,561.6
	c-0.1-0.199-0.2-0.5-0.4-0.8l0,0c-59.1-121.399-71.1-119-75.399-175.7c-3.8-49.699-80-84.699-99.2-92.8
	C414.5,293.7,420.9,295.3,427,297.2z"/>
<path fill="#FFFFFF" stroke="#000000" stroke-miterlimit="10" d="M582.6,560.7c-0.8-1.101-2.6-2.7-5.199-4.601l0,0
	c-2.4-1.8-5.5-3.899-9.2-6.3c0,0,0,0-0.101,0C538.9,529.1,452.2,462.8,472,417c22.1-50.9-55.5-116.1-67-125.4c1,0.2,2,0.4,3,0.7
	c19.2,8.101,95.5,43.101,99.2,92.8C511.5,441.8,523.5,439.3,582.6,560.7z"/>
<path fill="#FFFFFF" stroke="#000000" stroke-miterlimit="10" d="M555,167.8c0,0,68.8,3-15.5,71.8c-27.1,22.2-96,52-113.6,33.7
	c-17.601-18.3,25.5-75.2,49.899-100C550.1,97.9,555,167.8,555,167.8z M528.7,237.9c67.399-55.1,12.399-57.5,12.399-57.5
	s-3.899-55.9-63.399,4.4c-19.5,19.9-54,65.3-39.9,80C451.9,279.5,507,255.7,528.7,237.9z"/>
<path fill="#FFFFFF" stroke="#000000" stroke-miterlimit="10" d="M541.1,180.5c0,0,55,2.4-12.399,57.5
	c-21.7,17.8-76.8,41.6-90.9,26.9c-14.1-14.6,20.4-60.1,39.9-80C537.2,124.5,541.1,180.5,541.1,180.5z M505.7,238.7
	c44.5-35.5,8.7-36.5,8.7-36.5s-1.9-35.4-41.301,3.4c-13,12.8-35.899,41.9-26.899,51C455.2,265.8,491.3,250.1,505.7,238.7z"/>
<path fill="#FFFFFF" stroke="#000000" stroke-miterlimit="10" d="M539,31.3c0.7,4.1-5,8.3-12.8,9.4c-7.8,1.1-27.5,0.6-28.2-3.5
	c-0.7-4.1,17.9-10.2,25.6-11.3C531.5,24.8,538.3,27.2,539,31.3z"/>
<path fill="#FFFFFF" stroke="#000000" stroke-miterlimit="10" d="M568.1,549.7c-25.8-16.8-78.6-46.101-105-63.8l0,0
	c-1.399-1.101-54.8-41.5-35.5-86.9c19.5-46-27.399-90.3-27.399-90.3c1.5-10.3,3.1-16.7,3.3-17.4v-0.1c0.5,0.1,1.1,0.2,1.6,0.3
	c11.5,9.3,89.101,74.5,67,125.4C452.2,462.8,538.9,529.1,568.1,549.7z"/>
<path fill="#FFFFFF" stroke="#000000" stroke-miterlimit="10" d="M514.4,202.2c0,0,35.8,1-8.7,36.5c-14.4,11.5-50.5,27.1-59.5,18
	c-9-9.1,14-38.3,26.899-51C512.5,166.8,514.4,202.2,514.4,202.2z"/>
<path fill="#FFFFFF" stroke="#000000" stroke-miterlimit="10" d="M405,406.5c-1.9-6.4-3.4-12.9-4.5-19.3
	c-2.1-11.7-3.1-23.2-3.3-33.9c-0.4-17.8,1.2-33.5,2.899-44.7c0,0,46.9,44.301,27.4,90.301C408.3,444.3,461.6,484.7,463,485.8
	c-2.5-1.7-4.8-3.2-6.8-4.7C428.4,461,413.1,433.9,405,406.5z"/>
<path fill="#FFFFFF" stroke="#000000" stroke-miterlimit="10" d="M443.9,111.7c4.8,6.9,7.3,16.9,4.6,26.8
	C420.5,132.5,443.9,111.7,443.9,111.7z"/>
<path fill="#FFFFFF" stroke="#000000" stroke-miterlimit="10" d="M438.4,170c1.5,3.7,2.5,8.6,0.699,13.8l0,0
	c-14.3,20-25.3,43.7-31.199,71.9l0,0c1.1-20.7,0.199-48.1-7.801-75.4c1.7-6.9,4.2-12.4,6.101-16c0.3,0.6,9.3,23.9,7.1,44.1
	C413.3,208.5,431.4,173.9,438.4,170z"/>
<path fill="#FFFFFF" stroke="#000000" stroke-miterlimit="10" d="M435.1,164c0,0,1.9,2.4,3.301,6c-7,3.9-25.2,38.6-25.2,38.6
	c2.2-20.3-6.8-43.5-7.101-44.1c1.601-3.1,2.9-4.8,2.9-4.8l0.5-0.3c3,3.1,7.3,4,12.6,4.7c3.801,0.5,7.101,0.7,10,0L435.1,164z"/>
<path fill="#FFFFFF" stroke="#000000" stroke-miterlimit="10" d="M443.9,111.7c0,0-23.4,20.9,4.6,26.8c-4.8,17.8-9.8,23.9-16.4,25.5
	c-3,0.7-6.3,0.5-10,0c-5.3-0.7-9.6-1.6-12.6-4.7c-3.9-3.9-5.7-11.4-5.1-26.5c29.1,2.1,13.6-25.6,13.6-25.6l-0.2-0.3
	c4.3-3,9.101-4.4,13.601-3.8C436.1,103.6,440.6,106.9,443.9,111.7z"/>
<path fill="#FFFFFF" stroke="#000000" stroke-miterlimit="10" d="M427,291v6.2c-6.1-1.8-12.5-3.5-19-4.9c-0.8-0.3-1.4-0.6-2-0.8
	c0,0-0.1,0-0.2-0.1C409.4,291.4,416.9,291.5,427,291L427,291z"/>
<path fill="#FFFFFF" stroke="#000000" stroke-miterlimit="10" d="M418,107.2c0,0,15.5,27.7-13.6,25.6
	c0.399-11.4,6.199-20.9,13.399-25.9L418,107.2z"/>
<path fill="#FFFFFF" stroke="#000000" stroke-miterlimit="10" d="M400.1,180.4c8,27.3,8.9,54.6,7.801,75.4l0,0
	c-2.301,10.9-3.801,22.5-4.4,34.7l0,0c-0.4,0-1.5,0-3.3,0c-2.4-0.5-6.2-1.3-11-2.2H389.1c-9.699-2.3-18.899-5-27.5-8
	C188.9,219.6,215.2,18,216.7,25c1.7,7.6,98,56.3,128.8,77.5C375.5,123.2,391.7,151.7,400.1,180.4z M395.5,272.9
	c21.3-14.5-8-78.4-26.4-107.3c-55.8-88-76.2-20.5-76.2-20.5s-68-10.2-1,73.2C313.5,245.1,374.2,287.4,395.5,272.9z M277.1,126.9
	c11.7-6.1,13.7-23.2,4.5-38c-9.2-14.9-26.1-22-37.8-15.8c-11.7,6.1-13.7,23.2-4.6,38C248.5,125.9,265.4,133,277.1,126.9z"/>
<path fill="#FFFFFF" stroke="#000000" stroke-miterlimit="10" d="M403.4,291.2C403.4,291.2,403.4,291.3,403.4,291.2
	c-1.9,6.5-4,12.7-6.301,18.6l0,0c0,0-81.5,16.601-85.8,65.4c-4.1,46.5-64.9,63.8-73.2,65.899c-0.1,0-0.3,0.101-0.4,0.101
	c-0.1,0-0.2,0-0.3,0.1c-0.1,0-0.2,0-0.2,0c-72.5,16.8-138.5,4.8-134.2,4.3c0.4,0,0.9-0.3,1.4-0.6l0,0c1.9-0.7,190.8-24,178.7-78.4
	C272,316.4,384,294,401.4,290.8C402,291,402.7,291.1,403.4,291.2L403.4,291.2L403.4,291.2z"/>
<path fill="#FFFFFF" stroke="#000000" stroke-miterlimit="10" d="M400.5,387.3c1.1,6.4,2.6,12.8,4.5,19.3
	c-1.9,5.801-4,11.101-6.2,15.9c-13.1-3.3-29.899,3.5-29.899,3.5c-10.5-17.6-18.301-22.3-19.301-22.9c0.301-7,1-14.399,2.301-22.3
	l0,0c1.8-1.8,3.5-3.6,5.3-5.5l0,0c0.5,0,15.1-0.7,20.3,19.8c0,0,14.7-9.899,22.5-7.6L400.5,387.3z"/>
<path fill="#FFFFFF" stroke="#000000" stroke-miterlimit="10" d="M400.5,387.3L400,387.4c-7.8-2.301-22.5,7.6-22.5,7.6
	c-5.2-20.5-19.8-19.8-20.3-19.8c7.3-8,14.1-16.8,20.3-26.4c0,0,8.4,5.2,7.4,9.2s12.199-4.6,12.199-4.6h0.101
	C397.5,364.1,398.4,375.6,400.5,387.3z"/>
<path fill="#FFFFFF" stroke="#000000" stroke-miterlimit="10" d="M403.4,291.3c-0.2,0.7-1.801,7.2-3.301,17.4
	c-1.699,11.2-3.3,26.899-2.899,44.7H397.1c0,0-13.199,8.6-12.199,4.6s-7.4-9.2-7.4-9.2c7.5-11.7,14.1-24.6,19.6-39
	C399.4,303.9,401.5,297.7,403.4,291.3z"/>
<path fill="#FFFFFF" stroke="#000000" stroke-miterlimit="10" d="M399.3,290.4c0.7,0.1,1.4,0.3,2.101,0.399
	C384,294,272,316.4,283.2,366.6c12.1,54.301-176.8,77.7-178.7,78.4C251.3,378.7,247,337,247,337
	C253.8,289.2,374.8,290.1,399.3,290.4z"/>
<path fill="#FFFFFF" stroke="#000000" stroke-miterlimit="10" d="M379.5,8c6.2,4.1,21.9,18.4,19,22.1c-2.9,3.7-23.3-4.5-29.5-8.6
	s-8.9-10.4-6-14.1C366,3.6,373.3,4,379.5,8z"/>
<path fill="#FFFFFF" stroke="#000000" stroke-miterlimit="10" d="M397.2,309.8L397.2,309.8c-5.5,14.4-12.101,27.3-19.601,39
	c-6.199,9.7-13,18.5-20.3,26.4l0,0c-1.7,1.899-3.5,3.7-5.3,5.5l0,0c-32.8,33.1-74.3,51-113.8,60.3c8.4-2.1,69.1-19.4,73.2-65.9
	C315.7,326.4,397.2,309.8,397.2,309.8z"/>
<path fill="#FFFFFF" stroke="#000000" stroke-miterlimit="10" d="M369.1,165.5c18.301,28.9,47.7,92.8,26.4,107.3
	s-82-27.8-103.6-54.6c-67-83.4,1-73.2,1-73.2S313.4,77.5,369.1,165.5z M386.2,263.9c17.1-11.6-6.4-62.7-21.101-85.9
	c-44.6-70.4-61-16.4-61-16.4s-54.4-8.2-0.8,58.6C320.6,241.7,369.1,275.5,386.2,263.9z"/>
<path fill="#FFFFFF" stroke="#000000" stroke-miterlimit="10" d="M399.3,290.4C374.8,290.1,253.8,289.1,247,336.9
	c0,0,4.3,41.699-142.5,108c12.1-8,67-87.101,90.9-112.801c45.8-49.3,118.6-52.1,164.9-47.8c11.5,1.101,21.4,2.601,28.8,3.9h0.101
	C392.5,289,395.9,289.8,399.3,290.4z"/>
<path fill="#FFFFFF" stroke="#000000" stroke-miterlimit="10" d="M369,426c0,0,16.8-6.8,29.9-3.5c-9.4,20.8-20.9,32.3-31.4,30.6
	c-12.1-2-18.9-21.5-17.8-50C350.7,403.6,358.5,408.3,369,426z"/>
<path fill="#FFFFFF" stroke="#000000" stroke-miterlimit="10" d="M365.1,178c14.7,23.1,38.2,74.2,21.101,85.9
	c-17.101,11.6-65.601-22.2-82.9-43.7c-53.6-66.7,0.8-58.6,0.8-58.6S320.5,107.6,365.1,178z M370.6,246c10.7-7.3-4-39.2-13.199-53.7
	C329.5,148.3,319.3,182,319.3,182s-34-5.1-0.5,36.6C329.6,232.1,359.9,253.2,370.6,246z"/>
<path fill="#FFFFFF" stroke="#000000" stroke-miterlimit="10" d="M357.4,192.3C366.6,206.8,381.3,238.7,370.6,246
	c-10.699,7.3-41-13.9-51.8-27.3c-33.5-41.7,0.5-36.6,0.5-36.6S329.5,148.3,357.4,192.3z"/>
<path fill="#FFFFFF" stroke="#000000" stroke-miterlimit="10" d="M361.5,280.2c8.7,3,17.8,5.7,27.5,8c-7.4-1.3-17.3-2.8-28.8-3.9
	v-0.5L361.5,280.2z"/>
<path fill="#FFFFFF" stroke="#000000" stroke-miterlimit="10" d="M281.7,88.9c9.2,14.9,7.1,31.9-4.5,38c-11.7,6.1-28.6-1-37.8-15.9
	c-9.2-14.9-7.1-31.9,4.6-38C255.6,66.9,272.5,74,281.7,88.9z"/>
<path fill="none" stroke="#000000" stroke-width="0.5" stroke-linecap="round" stroke-linejoin="round" d="M421.6,104.9
	c0,0,4.601-65.8-23.1-74.8"/>
<path fill="none" stroke="#000000" stroke-width="0.5" stroke-linecap="round" stroke-linejoin="round" d="M441.2,108.2
	c0,0,9.2-63.9,56.899-70.9"/>
</svg>
