<?xml version="1.0" encoding="utf-8"?>
<!-- Generator: Adobe Illustrator 15.0.0, SVG Export Plug-In . SVG Version: 6.00 Build 0)  -->
<!DOCTYPE svg PUBLIC "-//W3C//DTD SVG 1.1//EN" "http://www.w3.org/Graphics/SVG/1.1/DTD/svg11.dtd">
<svg version="1.1" id="layer_x5F_www.ABC-color.com"
	 xmlns="http://www.w3.org/2000/svg" xmlns:xlink="http://www.w3.org/1999/xlink" x="0px" y="0px" width="822px" height="567px"
	 viewBox="0 0 822 567" enable-background="new 0 0 822 567" xml:space="preserve">
<path fill="#FFFFFF" stroke="#000000" d="M746.405,80.3c6.698,0,12.1,4.5,12.1,10.1s-5.4,10.1-12.1,10.1
	c-6.7,0-12.102-4.5-12.102-10.1S739.705,80.3,746.405,80.3z"/>
<path fill="#FFFFFF" stroke="#000000" d="M776.705,80.2c2.5,7.6-10.102,18.6-28.102,24.5c-18,5.9-34.698,4.6-37.198-3
	c-2.5-7.6,10.1-18.6,28.1-24.5C757.505,71.3,774.104,72.6,776.705,80.2z M758.505,90.4c0-5.6-5.4-10.1-12.1-10.1
	c-6.7,0-12.102,4.5-12.102,10.1s5.4,10.1,12.102,10.1C753.104,100.5,758.505,96,758.505,90.4z"/>
<path fill="#FFFFFF" stroke="#000000" d="M557.505,246.7c52.5-114.6,159.1-92.2,139.1-60.4
	C674.805,221.3,557.505,246.7,557.505,246.7z"/>
<path fill="#FFFFFF" stroke="#000000" d="M541.505,204.1c52.1-113.7,156.3-116,137.4-85.9
	C657.005,153.2,541.505,204.1,541.505,204.1z"/>
<path fill="#FFFFFF" stroke="#000000" d="M461.604,276c8,0,14.5,6.5,14.5,14.5s-6.5,14.5-14.5,14.5s-14.5-6.5-14.5-14.5
	S453.604,276,461.604,276z"/>
<path fill="#FFFFFF" stroke="#000000" d="M532.805,212.7c5.2,6.1-2.398,21-16.898,33.2c-14.401,12.3-30.401,17.2-35.501,11.1
	c-5.2-6.1,2.398-21,16.898-33.2C511.805,211.6,527.705,206.6,532.805,212.7z"/>
<path fill="#FFFFFF" stroke="#000000" d="M545.305,251.8c5.2,6.1-2.398,21-16.898,33.2s-30.4,17.2-35.602,11.1
	c-5.201-6.1,2.4-21,16.9-33.2C524.205,250.6,540.104,245.7,545.305,251.8z"/>
<path fill="#FFFFFF" stroke="#000000" d="M731.005,47.8c181.8,9.5,15.4,82.3,15.4,82.3s-34.9,31.4-11.2,124.9c0,0,16,29-20.7,35.5
	c-22.1,3.9-27,7-27.5,8.8l-0.4,0.101c0,0-183.1,29.1-256.1,25l-1.4-41.601l0,0C430.005,281,549.905,38.3,731.005,47.8z
	 M748.604,104.8c18-5.9,30.602-16.9,28.102-24.5c-2.5-7.6-19.2-9-37.2-3c-18,5.9-30.6,16.9-28.1,24.5
	C713.905,109.4,730.604,110.7,748.604,104.8z M712.705,258.6c18.898-30.2-78.8-55.6-147.4,35.5
	C565.205,294.1,690.705,293.5,712.705,258.6z M696.705,186.3c19.899-31.8-86.601-54.2-139.101,60.4
	C557.505,246.7,674.805,221.3,696.705,186.3z M678.905,118.2c18.899-30.2-85.301-27.8-137.4,85.9
	C541.505,204.1,657.005,153.2,678.905,118.2z M528.405,285c14.5-12.2,22.1-27.1,16.898-33.2c-5.2-6.1-21.1-1.2-35.6,11.1
	c-14.5,12.2-22,27.1-16.9,33.2C498.005,302.2,513.905,297.3,528.405,285z M516.005,246c14.5-12.2,22.1-27.1,16.9-33.2
	c-5.2-6.1-21.102-1.2-35.602,11.1c-14.5,12.3-22.1,27.1-16.898,33.2C485.505,263.1,501.505,258.2,516.005,246z M476.104,290.5
	c0-8-6.5-14.5-14.5-14.5s-14.5,6.5-14.5,14.5s6.5,14.5,14.5,14.5S476.104,298.5,476.104,290.5z"/>
<path fill="#FFFFFF" stroke="#000000" d="M565.205,294.1c68.7-91.2,166.398-65.7,147.398-35.5
	C690.705,293.5,565.205,294.1,565.205,294.1z"/>
<path fill="#FFFFFF" stroke="#000000" d="M693.705,329.5c25.3,17.2,38.2,42.2,28.898,55.9c-9.3,13.699-37.3,10.8-62.6-6.4
	s-38.2-42.2-28.9-55.9C640.405,309.4,668.405,312.3,693.705,329.5z"/>
<g id="XMLID_1_">
	<g>
		<path fill="#FFFFFF" d="M715.005,370.2c0,10-6,18.1-13.3,18.1c-7.4,0-13.3-8.1-13.3-18.1s6-18.101,13.3-18.101
			C709.104,352.1,715.005,360.2,715.005,370.2z"/>
	</g>
	<g>
		<path fill="none" stroke="#000000" d="M715.005,370.2c0-10-6-18.101-13.3-18.101c-7.4,0-13.3,8.101-13.3,18.101s6,18.1,13.3,18.1
			C709.104,388.2,715.005,380.1,715.005,370.2z"/>
	</g>
</g>
<path fill="#FFFFFF" stroke="#000000" d="M613.505,389.4c17.2,0,31.1,19.6,31.1,43.8s-13.899,43.8-31.1,43.8s-31.1-19.6-31.1-43.8
	S596.305,389.4,613.505,389.4z"/>
<path fill="#FFFFFF" stroke="#000000" d="M430.505,324.4l2.1,62.6c0,0-12.398,85.9-19.5,90l-8.3,0.6
	c-8.3,2.4-18.399-90.6-18.399-90.6l2.1-62.6l1.4-41.601l0,0c-0.102-0.8-4.5-36.1,19.6-38.5c24,2.4,19.6,37.7,19.5,38.5l0,0
	L430.505,324.4z"/>
<path fill="#FFFFFF" stroke="#000000" d="M687.005,299.3c-0.3,1.2,1.4,1.9,1.4,1.9s78.199,35.5,62.199,76.399
	c-10,25.5-12.5,41.102-17.198,48.602c-0.9,1.6-1.802,3.398-3.602,4.3c-2.2,0.8-4.6,1.399-7.2,1.899
	c-17.1,3.5-45.898,0.801-47.698,21.501c-1.802,18-4.5,39.6-23.4,46.6c-2.4,1.2-4.8,2.3-7.2,3.2c-2.398,0.898-4.8,1.7-7.2,2.398
	c-14.398,3.602-27.898-4.5-41.398-6.3c-2.7,0-6.3,1.8-8.102,4.7c-1.398,1.4-2.698,3.1-3.8,4.6c-2.2,3.102-3.7,5.9-3.7,5.9
	s-11.3,7.1-22.5-1.8c-11.2-8.9-127.9-84.101-119.001-110.7c8.9-26.7-1.8-10.7-1.8-10.7l-4.2-4.7l-2.1-62.6c73,4.1,256.1-25,256.1-25
	L687.005,299.3z M722.604,385.3c9.302-13.6-3.698-38.7-28.898-55.899c-25.3-17.2-53.3-20.101-62.602-6.4
	c-9.3,13.7,3.7,38.7,28.9,55.9C685.305,396.1,713.305,399,722.604,385.3z M670.604,435c1.5-55.6-162.198-126.7-203.1-91.2
	s82.6,125.3,126.7,144.5C635.104,506.1,670.005,458.3,670.604,435z"/>
<path fill="#FFFFFF" stroke="#000000" d="M467.505,343.8c40.8-35.5,204.6,35.5,203.1,91.2c-0.6,23.3-35.5,71-76.398,53.3
	C550.205,469.1,426.705,379.3,467.505,343.8z M644.604,433.2c0-24.2-13.898-43.8-31.1-43.8s-31.1,19.6-31.1,43.8
	s13.899,43.8,31.1,43.8S644.604,457.4,644.604,433.2z"/>
<path fill="#FFFFFF" stroke="#000000" d="M212.005,404.8c16.5,0,29.9,13.9,29.9,31.101c0,17.199-13.4,31.101-29.9,31.101
	s-29.9-13.9-29.9-31.101S195.505,404.8,212.005,404.8z"/>
<path fill="#FFFFFF" stroke="#000000" d="M351.505,343.8c40.9,35.5-82.6,125.3-126.7,144.5c-40.9,17.8-75.8-30-76.4-53.3
	C146.905,379.4,310.604,308.3,351.505,343.8z M241.905,435.9c0-17.2-13.4-31.102-29.9-31.102s-29.9,13.9-29.9,31.102
	c0,17.198,13.4,31.1,29.9,31.1S241.905,453.1,241.905,435.9z"/>
<path fill="#FFFFFF" stroke="#000000" d="M121.105,353.9c10.5,0,18.9,6,18.9,13.3c0,7.399-8.5,13.3-18.9,13.3c-10.5,0-19-6-19-13.3
	C102.205,359.9,110.705,353.9,121.105,353.9z"/>
<path fill="#FFFFFF" stroke="#000000" d="M187.905,323c9.3,13.7-3.7,38.7-28.9,55.9c-25.3,17.199-53.3,20.1-62.6,6.399
	c-9.3-13.6,3.7-38.7,28.9-55.899C150.605,312.3,178.605,309.4,187.905,323z M140.105,367.2c0-7.3-8.5-13.3-18.9-13.3
	c-10.5,0-19,6-19,13.3c0,7.399,8.5,13.3,19,13.3C131.605,380.5,140.105,374.6,140.105,367.2z"/>
<path fill="#FFFFFF" stroke="#000000" d="M132.405,299.4c0,0,183.1,29.1,256.1,25l-2.1,62.6l-4.102,4.7c0,0-10.7-16-1.8,10.7
	C389.405,429,272.705,504.2,261.505,513.1c-11.2,8.9-22.5,1.802-22.5,1.802s-1.4-2.802-3.7-5.9c-1.1-1.5-2.4-3.2-3.8-4.6
	c-1.8-2.9-5.4-4.7-8.1-4.7c-13.5,1.8-27,9.898-41.4,6.3c-2.4-0.7-4.8-1.5-7.2-2.4c-2.4-0.898-4.8-2-7.2-3.198
	c-18.9-7-21.6-28.602-23.4-46.602c-1.8-20.699-30.6-18-47.7-21.5c-2.6-0.5-5.1-1.1-7.2-1.898c-1.8-0.9-2.7-2.7-3.6-4.301
	c-4.7-7.502-7.2-23.102-17.2-48.602c-16-40.9,62.2-76.4,62.2-76.4s1.6-0.6,1.4-1.8L132.405,299.4z M224.805,488.3
	c44.1-19.2,167.602-109,126.7-144.5c-40.8-35.5-204.6,35.5-203.1,91.2C149.005,458.3,183.905,506.1,224.805,488.3z M159.005,378.9
	c25.3-17.2,38.2-42.2,28.9-55.9c-9.3-13.7-37.3-10.8-62.6,6.4c-25.3,17.199-38.2,42.199-28.9,55.899
	C105.705,399,133.705,396.1,159.005,378.9z"/>
<path fill="#FFFFFF" stroke="#000000" d="M358.604,274.5c6.9,0,12.4,6,12.4,13.3c0,7.4-5.6,13.3-12.4,13.3
	c-6.898,0-12.398-6-12.398-13.3C346.104,280.5,351.705,274.5,358.604,274.5z"/>
<path fill="#FFFFFF" stroke="#000000" d="M309.305,262.9c14.5,12.2,22.102,27.1,16.9,33.2c-5.201,6.101-21.101,1.2-35.6-11.1
	c-14.5-12.2-22.1-27.1-16.9-33.2C278.905,245.7,294.805,250.6,309.305,262.9z"/>
<path fill="#FFFFFF" stroke="#000000" d="M321.705,223.8c14.5,12.2,22.1,27.1,16.898,33.2c-5.198,6.1-21.1,1.2-35.6-11.1
	c-14.5-12.2-22.1-27.1-16.9-33.2C291.305,206.6,307.205,211.6,321.705,223.8z"/>
<path fill="#FFFFFF" stroke="#000000" d="M79.505,77.2c18,5.9,30.6,16.9,28.1,24.5c-2.5,7.6-19.2,9-37.2,3
	c-18-5.9-30.6-16.9-28.1-24.5C44.805,72.6,61.505,71.3,79.505,77.2z M88.605,92.5c0-4.7-5.7-8.6-12.7-8.6s-12.7,3.9-12.7,8.6
	s5.7,8.6,12.7,8.6S88.605,97.2,88.605,92.5z"/>
<path fill="#FFFFFF" stroke="#000000" d="M75.805,83.9c7,0,12.7,3.9,12.7,8.6s-5.7,8.6-12.7,8.6s-12.7-3.8-12.7-8.6
	S68.805,83.9,75.805,83.9z"/>
<path fill="#FFFFFF" stroke="#000000" d="M253.805,294.1c0,0-125.5-0.6-147.4-35.5C87.405,228.4,185.105,202.9,253.805,294.1z"/>
<path fill="#FFFFFF" stroke="#000000" d="M261.505,246.7c0,0-117.2-25.5-139.1-60.4C102.405,154.6,208.905,132.1,261.505,246.7z"/>
<path fill="#FFFFFF" stroke="#000000" d="M277.505,204.1c0,0-115.5-50.9-137.4-85.9C121.205,88.1,225.405,90.4,277.505,204.1z"/>
<path fill="#FFFFFF" stroke="#000000" d="M389.905,282.8C390.005,282.8,390.005,282.8,389.905,282.8l-1.4,41.601
	c-73.1,4.1-256.1-25-256.1-25h-0.4c-0.3-1.801-5-4.9-27.5-8.9c-36.7-6.5-20.7-35.5-20.7-35.5c23.7-93.5-11.2-124.9-11.2-124.9
	s-166.4-72.9,15.4-82.3C269.105,38.3,389.005,281,389.905,282.8z M371.005,287.9c0-7.4-5.6-13.3-12.4-13.3
	c-6.898,0-12.398,6-12.398,13.3c0,7.399,5.6,13.3,12.398,13.3C365.405,301.2,371.005,295.2,371.005,287.9z M338.604,257
	c5.2-6.1-2.398-21-16.898-33.2c-14.5-12.2-30.4-17.2-35.6-11.1c-5.2,6.1,2.4,21,16.9,33.2C317.505,258.2,333.505,263.1,338.604,257z
	 M326.205,296.1c5.2-6.1-2.4-21-16.9-33.2c-14.5-12.2-30.4-17.2-35.6-11.1c-5.2,6.1,2.4,21,16.9,33.2
	C305.105,297.3,321.005,302.2,326.205,296.1z M140.105,118.2c21.9,34.9,137.4,85.9,137.4,85.9
	C225.405,90.4,121.205,88.1,140.105,118.2z M122.305,186.3c21.9,34.9,139.1,60.4,139.1,60.4
	C208.905,132.1,102.405,154.6,122.305,186.3z M106.305,258.6c21.9,34.9,147.4,35.5,147.4,35.5
	C185.105,202.9,87.405,228.4,106.305,258.6z M107.605,101.7c2.5-7.6-10.1-18.5-28.1-24.5c-18-5.9-34.6-4.6-37.2,3
	c-2.5,7.6,10.1,18.6,28.1,24.5C88.405,110.7,105.105,109.4,107.605,101.7z"/>
<line fill="none" stroke="#000000" stroke-width="0.25" x1="400.604" y1="286.4" x2="397.405" y2="380.2"/>
<line fill="none" stroke="#000000" stroke-width="0.25" x1="422.505" y1="380.2" x2="419.305" y2="286.4"/>
<line fill="none" stroke="#000000" stroke-width="0.25" x1="410.705" y1="264.1" x2="407.805" y2="457.7"/>
<path fill="none" stroke="#000000" stroke-width="2" d="M406.205,244.8c0-64.8-27.3-117.2-61-117.2"/>
<path fill="none" stroke="#000000" stroke-width="2" d="M412.104,244.8c0-64.8,27.302-117.2,61-117.2"/>
<line fill="none" stroke="#000000" stroke-width="0.25" x1="400.104" y1="286.5" x2="396.905" y2="380.3"/>
<line fill="none" stroke="#000000" stroke-width="0.25" x1="422.005" y1="380.3" x2="418.805" y2="286.5"/>
<line fill="none" stroke="#000000" stroke-width="0.25" x1="410.205" y1="264.2" x2="407.305" y2="457.8"/>
</svg>
