<?xml version="1.0" encoding="utf-8"?>
<!-- Generator: Adobe Illustrator 15.0.0, SVG Export Plug-In . SVG Version: 6.00 Build 0)  -->
<!DOCTYPE svg PUBLIC "-//W3C//DTD SVG 1.1//EN" "http://www.w3.org/Graphics/SVG/1.1/DTD/svg11.dtd">
<svg version="1.1" id="layer_x5F_www.ABC-color.com"
	 xmlns="http://www.w3.org/2000/svg" xmlns:xlink="http://www.w3.org/1999/xlink" x="0px" y="0px" width="822px" height="567px"
	 viewBox="0 0 822 567" enable-background="new 0 0 822 567" xml:space="preserve">
<path fill="#FFFFFF" stroke="#000000" stroke-width="2" d="M382.7,188.8c0,0,11.6,16-7.4,15.6c-2.1-2.4-5.7-7.7-2.3-11
	c3.4-3.3,6.3-4.6,8.6-4.5c0.302,0,0.602-0.1,0.7-0.2L382.7,188.8z"/>
<path fill="#FFFFFF" stroke="#000000" stroke-width="2" d="M442.2,133.9c-2.4,4.1-18.9,35.8-24.7,46.6l-2.3-0.5
	c0.8-1.9,1.3-4.2,1.6-6.1c0.3-3.1,6.102-10.6,12.102-22.7c6-12.1,22.5-38.7,22.5-38.7s15.8-28.6,17.398-30.6
	c1.7-2,9.602-15.6,11.102-16.6s3.398,0.1,3.6,2.1c0.1,2-11.1,18.7-13,20.9C468.4,90.5,445.1,129,442.2,133.9z"/>
<path fill="#FFFFFF" stroke="#000000" stroke-width="2" d="M378.9,174.4c0.198,2.1,0.898,4.7,1.8,6.6l-2.3,0.6
	c-5.602-10.2-22.602-43-25-47.2C350.6,129.5,327.2,91,325.3,88.7c-1.898-2.3-13.1-19-13-20.9c0.102-2,2.102-3.1,3.602-2.1
	S325.3,80.3,327,82.3s17.4,30.6,17.4,30.6s16.5,26.5,22.5,38.7C372.8,163.8,378.6,171.3,378.9,174.4z"/>
<path fill="#FFFFFF" stroke="#000000" stroke-width="2" d="M414.1,188.4c2.2-0.1,5.2,1.2,8.5,4.5c3.4,3.3-0.198,8.6-2.3,11
	c-0.398,0.5-0.6,0.8-0.6,1.1l-0.9,0.1C399.1,199.1,414.1,188.4,414.1,188.4z"/>
<path fill="#FFFFFF" stroke="#000000" stroke-width="2" d="M417.5,180.5c-1.1,2-1.8,3.3-2,3.6c-1.3,1.7-3.6,4.4-1.4,4.4
	c0,0-15,10.7,4.7,16.7l0.9-0.1c0,0.4,0.5,0.6,1.2,0.7c-24,95.601-44.302,6.2-45.602,0.3c0.602-0.3,0.7-0.7-0.1-1.6
	c18.898,0.4,7.398-15.6,7.398-15.6h-0.5c0.802-0.6-1-2.8-2.1-4.2c-0.2-0.2-0.8-1.3-1.7-3l2.3-0.6c0.4,0.9,0.9,1.6,1.4,2.1
	c1.6,1.6,2.1,2.6,2.1,2c0-0.5,0.802-9.1,0.9-11.4c0.1-2.3,2-4.8,3.3-6.3s3.4-4.9,4.3-2.7c1,2.2,1.7,10.4,3.2,12.1l2,2.1
	c0.4-0.8,1-1.9,1.8-2.7c1.5-1.6,2.301-9.9,3.2-12.1c1-2.2,3.102,1.2,4.3,2.7c1.301,1.5,3.102,4,3.301,6.3
	c0.101,2.3,0.899,10.9,0.899,11.4c0,0.6,0.5-0.4,2.101-2c0.601-0.6,1.199-1.6,1.601-2.7L417.5,180.5z"/>
<path fill="#FFFFFF" stroke="#000000" stroke-width="2" d="M423.6,362.2c-1.6,0-2.1,3.1-2.398,5.899
	c-0.3,3.301-2.4,78.601-3.9,82.101c-1.5,3.6-1.8,7.898-1.7,11.5c0,3.7-1.198,2.398-2.3,5.3c-1,3-3.7,12.1-4.6,13.2
	c-0.9,1.1-2.602,3.2-4.9,4.1c-2.3,0.9-2.898,4.602-2.898,5.2s-1.5,2.7-1.5,2.7l-2.9-3.602l-2-4.398c-2.3-0.9-5.2-2.4-6.2-3.4
	c-1-1.1-3.6-10.2-4.6-13.2s-2.3-1.698-2.3-5.3c0.1-3.7-0.2-7.898-1.7-11.5c-1.5-3.6-5-78.8-5.4-82.1c-0.3-2.601-0.7-5.7-2.2-5.8
	c0.602-1.2,3.4-7.7,4.4-16.801l0.6,0.101c0,0,21.9-13,40.9,1.3l1.2-0.3c2,8.5,5,14.601,5,14.601L423.6,362.2z"/>
<path fill="#FFFFFF" stroke="#000000" stroke-width="2" d="M429.9,208.8c0,0-28.302,84.7,3.198,95.7
	c-17.398,10.3-16.8,29.3-13.8,42.6l-1.2,0.301C399.1,333.1,377.2,346.1,377.2,346.1L376.6,346c1.4-11.8-0.198-28.1-13.6-42.8
	c22.7-42.5,2.8-93.8,2.8-93.8s0.8-1.1,4.3-2.2c2.102-0.7,4.5-0.6,5.4-1c1.3,5.9,21.6,95.3,45.6-0.3c1.102,0.2,3,0.3,4.7,0.8
	C429.2,207.7,429.9,208.8,429.9,208.8z"/>
<path fill="#FFFFFF" stroke="#000000" stroke-width="2" d="M791.4,450.7c3.8,8.8,3.8,21.3,2.3,24.898c-1.5,3.602-4.5,2-6.3,0.7
	c-1.802-1.3-3.9-5.1-5.102-10.6s-6.3-14.102-10.7-19.3c-4.398-5.302-17-13-27.6-17.9s-34.6-5-39.8-4.7c-5.102,0.3-17,4.9-25.7,12.5
	c-8.7,7.602-7.4,26.4-5.3,39.9c2.1,13.5,15.2,23.1,16.5,25.1s18.8,9.2,23.8,10.5c4.9,1.3,9.5,4,8.4,5.2c-1.102,1.1-2.5,0.2-22.302-2
	c-19.698-2.2-35.6-21.7-38.398-25.9c-2.8-4.198-8.602-15-10.5-18c-1.9-3-7.8-7-11.7-6.8s-3.9,7.5-7.1,10.4
	c-3.302,2.898-10.102,2.6-13.4,2.7c-3.3,0.1-3.4,1.398-4.3,2.8c-0.9,1.398-4.9,1.398-6.8,0.3c-1.9-1-5.5,0.2-8.602,0.3
	c-3.1,0.102-15.398-5.8-21.8-8.2c-6.3-2.398-22.1-14.8-26.6-17.1c-4.4-2.3-18.801-15.8-24.7-20.2c-5.9-4.3-36.9-24.1-40.4-26.5
	c-3.6-2.3-29.5-19.8-35.398-24c-5.9-4.1-22.4-20.1-25.102-22c-0.5-0.3-0.898-0.5-1.3-0.5l0.7-0.6c0,0-3-6.102-5-14.602
	c-3.101-13.199-3.601-32.199,13.8-42.6l269-38.7l0,0c0,0,5.8,3.1,11.6,4.8c5.802,1.7,16.802,6.5,17.302,9.3
	c0.5,2.8,3,9.7,3.398,13.799c0.4,4.101,14.8,14.601,18.5,16.301c3.7,1.699,7.8,4.3,6.5,5.8s-7.2,3.601-9.6,8.5
	c-2.5,4.8,2,13.5,3.5,15.7c1.5,2.199-1.9,2.6-9.8,3.1c-7.9,0.5-9.4,12.301-11,15.1c-1.602,2.9,3.199,8.302,3.6,11.602
	c0.4,3.301-3.5,2.398-7,7s1.5,11.898,1.6,13.801c0.102,1.801,21.5,18.301,32.102,26.699C773.5,425.7,787.6,441.9,791.4,450.7z"/>
<path fill="#FFFFFF" stroke="#000000" stroke-width="2" d="M702.1,265.8l-269,38.7c-31.398-11-3.198-95.7-3.198-95.7
	s12.6-17,19.1-26.3c6.5-9.4,5.5-5.2,13.6-19.9c8.102-14.7,30.9-36.9,49.4-56.1s51.5-38.3,61.4-45.4C583.3,54,627.8,31.6,652.6,20.8
	C677.5,10,717.9,3.1,732.6,1.5C747.3-0.2,759.4,2.7,767.9,6.7s11.1,13.5,11.3,17.8s-0.3,3,0.5,13.9c0.8,11-5.602,42.7-9.5,55
	c-3.9,12.3-5.3,21.3-4.102,26.8c1.2,5.5,3.7,31.4,1.5,44.7c-2.198,13.3,4.9,25.2,5,27.8c0.2,2.7,2.9,12,4.102,18s1.2,18.2,1.8,22.2
	s-3.9,13.1-13.7,20.8C754.9,261.4,702.2,265.9,702.1,265.8L702.1,265.8z"/>
<path fill="#FFFFFF" stroke="#000000" stroke-width="2" d="M362.9,303.1c13.398,14.7,15,31,13.6,42.801
	c-1,9.101-3.9,15.601-4.4,16.801c-0.398-0.102-0.8,0.1-1.398,0.5c-2.7,1.898-19.2,17.898-25.102,22c-5.898,4.1-31.8,21.6-35.398,24
	c-3.602,2.3-34.5,22.1-40.4,26.5c-5.9,4.3-20.3,17.898-24.7,20.2c-4.4,2.3-20.3,14.698-26.6,17.1s-18.7,8.3-21.8,8.2
	c-3.1-0.102-6.6-1.3-8.6-0.3s-5.9,1-6.9-0.302c-1-1.398-1-2.698-4.3-2.8c-3.3-0.1-10.1,0.2-13.4-2.7c-3.3-2.898-3.2-10.1-7.1-10.398
	c-3.9-0.2-9.8,3.8-11.7,6.8c-1.9,3-7.7,13.8-10.5,18c-2.8,4.2-18.7,23.7-38.4,25.9c-19.7,2.198-21.1,3.198-22.3,2
	c-1.1-1.102,3.4-3.802,8.4-5.2c5-1.3,22.4-8.5,23.8-10.5c1.3-2,14.4-11.602,16.5-25.102c2.1-13.5,3.4-32.3-5.3-39.898
	c-8.7-7.602-20.6-12.2-25.7-12.5c-5.1-0.3-29.2-0.2-39.8,4.7C40.8,433.8,28.2,441.5,23.8,446.8c-4.4,5.3-9.6,13.9-10.7,19.4
	c-1.2,5.5-3.3,9.3-5.1,10.6s-4.8,2.9-6.3-0.7c-1.5-3.6-1.5-16,2.3-24.898c3.8-8.8,17.9-25,28.5-33.4c10.6-8.398,32-24.8,32.1-26.699
	c0.1-1.801,5.2-9.101,1.6-13.801c-3.5-4.6-7.3-3.8-7-7.1c0.4-3.301,5.1-8.801,3.6-11.602c-1.5-2.898-3.1-14.6-11-15.1
	c-7.9-0.5-11.3-1-9.8-3.1c1.5-2.2,6-10.801,3.5-15.7c-2.5-4.8-8.4-7-9.6-8.5c-1.3-1.5,2.8-4.101,6.5-5.8
	c3.7-1.7,18-12.2,18.4-16.301c0.4-4.101,2.9-11,3.4-13.801c0.5-2.8,11.6-7.6,17.4-9.3c5.8-1.7,11.6-4.8,11.6-4.8s-0.2,0-0.6,0
	l2.7-0.1C95.6,266.2,360.7,307.3,362.9,303.1z"/>
<path fill="#FFFFFF" stroke="#000000" stroke-width="2" d="M365.7,209.3c0,0,19.898,51.3-2.8,93.8
	C360.7,307.3,95.6,266.2,95.6,266.2l-2.7,0.1c-5.8-0.5-52.8-4.9-62-12.2c-9.9-7.7-14.3-16.8-13.7-20.8c0.6-4,0.6-16.2,1.8-22.2
	c1.2-5.9,4-15.3,4.1-18c0.1-2.7,7.2-14.6,5-27.8c-2.1-13.3,0.4-39.2,1.5-44.7c1.2-5.5-0.2-14.4-4.1-26.8c-3.9-12.3-10.3-44.1-9.5-55
	c0.8-11,0.2-9.6,0.5-13.9c0.3-4.3,2.9-13.7,11.3-17.8c8.5-4,20.6-6.9,35.3-5.2c14.7,1.6,55.1,8.6,79.9,19.3
	c24.8,10.8,69.3,33.2,79.2,40.3c9.9,7.2,42.9,26.3,61.4,45.4c18.5,19.2,41.3,41.4,49.4,56.1s7.1,10.5,13.6,19.9
	S365.7,209.3,365.7,209.3z"/>
<path fill="#FFFFFF" stroke="#000000" stroke-width="0.25" d="M642.1,456.5c9.802,11.5-9.8,3.5-10.198,6.2
	c-0.5,2.7-70.2-35-74.602-47.4c-4.398-12.398,9.8-8,9.8-8C588,433.9,632.3,445,642.1,456.5z"/>
<path fill="#FFFFFF" stroke="#000000" stroke-width="0.25" d="M648.9,431.2c9.3,31.898-20.5,7.1-20.5,7.1
	c-7.302-12.398-22.4-9.8-22.4-9.8c-8.8-0.4-17.5-19-17.5-19c13.2,4.4,26.8,2.2,26.8,2.2C636.7,409.5,648.9,431.2,648.9,431.2z"/>
<path fill="#FFFFFF" stroke="#000000" stroke-width="0.25" d="M665.4,413.9c-1.5-1.4-27.602-26.301-22.802-33.2
	c0,0,0.5-16.8,9.302-7.5c0,0-3.4,10.2,0.5,12.399c0,0,23.8,29.899,32.198,28.399c2.4-0.4,41-11.1,57.5,1.3
	c0,0,34.602,23.9,5.4,11.102c0,0-83.4-30.602-83.4,43l2,16.8c0,0-12.698-11.5-12.698-17.3c0-2.7-2.4-25.302,5.398-38.102
	c0,0-9.8-32.398-41.398-25.7c0,0-2.9-8,13.6-11.1C630.9,394,653.7,403.7,665.4,413.9z"/>
<path fill="#FFFFFF" stroke="#000000" stroke-width="0.25" d="M734.2,314.3c0,0,21.398,1.3,13.2,8c0,0-4.4,4-14.102,4.9
	c0,0,18,11.5,10.7,14.2c0,0-11.7-4-12.7,5.8c0,0-7.3,9.8-3.398,14.2c0,0,4.6,10.6,2.398,12c-1.5,0.898-3.398,6.199-8.3,9.3
	c0,0-2,12.8,5.8,19c0,0-40.898-2.7-41.898,3.5c0,0-24.4-12-26.302-23.5c0,0,2.9-14.601-8.8-16c-11.7-1.3,0-1.8,0-1.8
	s-16.1-12-14.1,9.3c0,0-28.3-26.101-31.7-35.9c0,0,26.8-14.2,65.8-15.1C670.8,322.2,714.2,324.9,734.2,314.3z M716.7,361.7
	c-5.4-8.9,4.898-31,4.898-31c-20.5-8-96.5,7.5-96.5,7.5c-8.8,5.8,9.302,13.7,9.302,13.7C655.9,339,686.6,387.3,686.6,387.3
	c9.802,8.9,28.302,4.4,28.302,4.4C707.4,390,716.7,361.7,716.7,361.7z"/>
<path fill="#FFFFFF" stroke="#000000" stroke-width="0.25" d="M721.5,330.7c0,0-10.2,22.2-4.9,31c0,0-9.3,28.3-1.898,30.1
	c0,0-18.5,4.4-28.3-4.399c0,0-30.7-48.301-52.2-35.399c0,0-18-8-9.3-13.7C625,338.2,701.1,322.7,721.5,330.7z M703,380.7
	c4.9-0.9-4.4-39.4-4.4-39.4c-26.8-11.5-31.698,10.2-31.698,10.2C675.2,354.6,698.1,381.6,703,380.7z"/>
<path fill="#FFFFFF" stroke="#000000" stroke-width="0.25" d="M698.6,341.3c0,0,9.302,38.5,4.4,39.4
	c-4.9,0.899-27.8-26.101-36.1-29.2C666.9,351.5,671.8,329.8,698.6,341.3z"/>
<path fill="#FFFFFF" stroke="#000000" stroke-width="0.25" d="M203.4,352.3c5.3,0,9.5,7.101,9.5,16c0,8.8-4.3,15.9-9.5,15.9
	c-5.2,0-9.5-7.101-9.5-15.9C193.9,359.4,198.2,352.3,203.4,352.3z"/>
<ellipse fill="#FFFFFF" stroke="#000000" stroke-width="0.25" cx="592.1" cy="372.3" rx="9.5" ry="16"/>
<path fill="#FFFFFF" stroke="#000000" stroke-width="0.25" d="M627.4,375.4c2.898,20.8-31.2,25.698-31.2,25.698
	c-16.602,8-36.602-27.499-87.3-38.999c-50.7-11.5-37.5-15.899-37.5-15.899c8.3-1.3,54.1-8.4,89.698-10.601
	C596.7,333.3,627.4,375.4,627.4,375.4z M601.6,372.3c0-8.8-4.3-16-9.5-16c-5.198,0-9.5,7.101-9.5,16c0,8.9,4.302,16,9.5,16
	C597.3,388.3,601.6,381.1,601.6,372.3z"/>
<path fill="#FFFFFF" stroke="#000000" stroke-width="0.25" d="M723.5,293c11.7,4.9,1.5,13.7,1.5,13.7
	c-2.9,5.3-150.6,22.2-150.6,22.2c-15.102-3.102-3.9-10.2-3.9-10.2C573.8,312.9,723.5,293,723.5,293z"/>
<path fill="#FFFFFF" stroke="#000000" stroke-width="0.25" d="M450.5,365.3c3.4,2,147.3,85.2,155.4,99.2c8.3,14.2-3.4,6.6-3.4,6.6
	C595.7,475.5,431.9,363.4,431.9,363.4c-15.602-31.5,6.3-47,6.3-47L699.5,278.3c10.7-1.8,4.4,8.4,4.4,8.4
	c-53.602,11.5-168.7,26.6-168.7,26.6c-74.102,7.5-80.9,15.101-80.9,15.101c49.7,0.5,103.8-1.301,103.8-1.301
	c-4.398,3.5-99.5,11.5-99.5,11.5c-24.898,6.602-2,13.7-2,13.7C496.6,363.4,558,401,558,401C550,412.5,453.2,366.5,450.5,365.3z"/>
<path fill="#FFFFFF" stroke="#000000" stroke-width="0.25" d="M748.5,180.8c11.7,14.2,0,21.3,0,21.3c7.8,10.2-4.4,17.3-4.4,17.3
	s-115.5,16-178.398,57.2c0,0-9.3,4.4-16.602,1.3l-15.6-4C595,208.7,748.5,180.8,748.5,180.8z"/>
<path fill="#FFFFFF" stroke="#000000" stroke-width="0.25" d="M747.1,167c7.302,6.2,1.5,13.7,1.5,13.7s-153.6,27.9-215,93
	c-6.3,14.2-21,8.9-21,8.9c-5.398,7.1-21.5-0.9-21.5-0.9C581.8,178,741.2,142.1,741.2,142.1c7.3,2.7,3.398,11.5,3.398,11.5
	C753.9,157.3,747.1,167,747.1,167z"/>
<path fill="#FFFFFF" stroke="#000000" stroke-width="0.25" d="M449.5,286.8c0.1-0.5,0.5-1.1,1.2-1.899
	C570.6,142.4,744.2,106.3,744.2,106.3c8.3,6.6,0,16.4,0,16.4c8.8,5.3-2.9,19.5-2.9,19.5S581.9,178.1,491.2,281.8
	c0,0-4.9,5.3-12.7,1.3c0,0-10.7,7.5-15.1,1.8C463.3,284.9,448.2,290.9,449.5,286.8z"/>
<path fill="#FFFFFF" stroke="#000000" stroke-width="0.25" d="M748.5,96.6c6.8,4.4-4.4,9.8-4.4,9.8S570.5,142.5,450.6,285
	c-0.698,0.8-1.1,1.4-1.198,1.9c-8.5,5.8-8.5-5.9-8.5-5.9c-10.2,3.6-8.302-8.4-8.302-8.4C554,93,736.8,77.1,736.8,77.1
	c5.8-0.5,5.4,7.5,5.4,7.5C737.8,92.1,748.5,96.6,748.5,96.6z"/>
<path fill="#FFFFFF" stroke="#000000" stroke-width="0.25" d="M728.1,55.8c5.9,4,30.2-6.2,27.302,5.8c-2.9,12-18.5,15.5-18.5,15.5
	S554,93,432.6,272.5l-0.5-15.1c-3.398-4,2.9-12.4,2.9-12.4c1.5-5.3-2.4-11.1-2.4-11.1c121.4-179.5,330-210,330-210
	S722.2,51.8,728.1,55.8z"/>
<path fill="#FFFFFF" stroke="#000000" stroke-width="0.25" d="M228.5,403.2c0,0,14.1-4.4,9.8,8c-4.4,12.398-74.1,50.1-74.6,47.398
	c-0.5-2.698-20,5.302-10.2-6.198C163.2,440.9,207.6,429.8,228.5,403.2z"/>
<path fill="#FFFFFF" stroke="#000000" stroke-width="0.25" d="M207.1,405.4c0,0-8.8,18.6-17.5,19c0,0-15.1-2.7-22.4,9.8
	c0,0-29.7,24.8-20.5-7.102c0,0,12.2-21.698,33.6-19.5C180.3,407.6,193.9,409.9,207.1,405.4z"/>
<path fill="#FFFFFF" stroke="#000000" stroke-width="0.25" d="M130.1,409.8c11.7-10.2,34.5-19.899,34.5-19.899
	c16.6,3.101,13.7,11.101,13.7,11.101c-31.7-6.7-41.4,25.7-41.4,25.7c7.8,12.898,5.4,35.398,5.4,38.1c0,5.8-12.7,17.3-12.7,17.3
	l1.9-16.8c0-73.5-83.4-43-83.4-43c-29.3,12.8,5.4-11.1,5.4-11.1c16.6-12.4,55.1-1.8,57.5-1.3c8.4,1.5,32.2-28.4,32.2-28.4
	c3.9-2.2,0.5-12.399,0.5-12.399c8.8-9.301,9.3,7.5,9.3,7.5C157.7,383.5,131.6,408.4,130.1,409.8z"/>
<path fill="#FFFFFF" stroke="#000000" stroke-width="0.25" d="M96.9,337.2c26.8-11.5,31.7,10.2,31.7,10.2
	c-8.3,3.1-31.2,30.1-36.1,29.3C87.7,375.7,96.9,337.2,96.9,337.2z"/>
<path fill="#FFFFFF" stroke="#000000" stroke-width="0.25" d="M190.5,333.2c-3.4,9.7-31.7,35.899-31.7,35.899
	c1.9-21.301-14.1-9.301-14.1-9.301s11.7,0.4,0,1.801c-11.7,1.301-8.8,16-8.8,16C134,389,109.6,401,109.6,401
	c-1-6.2-41.9-3.6-41.9-3.6c7.8-6.2,5.9-19,5.9-19c-4.9-3.102-6.8-8.4-8.3-9.301c-2.2-1.301,2.4-12,2.4-12
	c3.9-4.399-3.4-14.199-3.4-14.199c-1-9.7-12.7-5.801-12.7-5.801C44.3,334.4,62.3,322.9,62.3,322.9c-9.8-0.9-14.1-4.9-14.1-4.9
	c-8.3-6.7,13.2-8,13.2-8c20,10.6,63.4,8,63.4,8C163.7,319,190.5,333.2,190.5,333.2z M161.3,347.8c0,0,18-8,9.3-13.7
	c0,0-76-15.5-96.5-7.5c0,0,10.2,22.2,4.9,31c0,0,9.3,28.4,2,30.102c0,0,18.5,4.398,28.3-4.4C109.1,383.3,139.8,335,161.3,347.8z"/>
<path fill="#FFFFFF" stroke="#000000" stroke-width="0.25" d="M170.5,334.1c8.8,5.801-9.3,13.7-9.3,13.7
	C139.7,335,109,383.2,109,383.2c-9.8,8.899-28.3,4.399-28.3,4.399c7.3-1.801-2-30.101-2-30.101c5.4-8.899-4.9-31-4.9-31
	C94.5,318.6,170.5,334.1,170.5,334.1z M128.6,347.4c0,0-4.9-21.7-31.7-10.2c0,0-9.3,38.5-4.4,39.399
	C97.4,377.5,120.3,350.5,128.6,347.4z"/>
<path fill="#FFFFFF" stroke="#000000" stroke-width="0.25" d="M225.1,314.6c0,0,11.2,7.102-3.9,10.2c0,0-147.7-16.8-150.6-22.2
	c0,0-10.2-8.898,1.5-13.699C72.1,288.9,221.7,308.9,225.1,314.6z"/>
<path fill="#FFFFFF" stroke="#000000" stroke-width="0.25" d="M324.1,342.1c0,0,13.2,4.4-37.5,16c-50.7,11.5-70.7,47-87.3,39
	c0,0-34.1-4.898-31.2-25.699c0,0,30.7-42.101,66.3-39.899S315.8,340.7,324.1,342.1z M212.9,368.2c0-8.8-4.3-16-9.5-16
	c-5.2,0-9.5,7.1-9.5,16c0,8.8,4.3,15.899,9.5,15.899C208.6,384.1,212.9,377,212.9,368.2z"/>
<path fill="#FFFFFF" stroke="#000000" stroke-width="0.25" d="M345,361.2c-2.7,1.3-99.5,47.2-107.7,35.898
	c0,0,61.4-37.698,101.4-48.698c0,0,22.898-7.102-1.9-13.7c0,0-95.1-8-99.5-11.5c0,0,54.1,1.8,103.8,1.3c0,0-6.8-7.5-80.898-15.1
	c0,0-115.1-15.102-168.7-26.602c0,0-6.3-10.2,4.4-8.4l261.3,38.1c0,0,21.898,15.5,6.3,47c0,0-163.8,112.1-170.6,107.7
	c0,0-11.7,7.5-3.4-6.7C197.7,446.4,341.6,363.1,345,361.2z"/>
<path fill="#FFFFFF" stroke="#000000" stroke-width="0.25" d="M399,356c4.3,0,7.8,26,7.8,58c0,32.1-3.5,58-7.8,58s-7.8-26-7.8-58
	C391.2,381.9,394.7,356,399,356z"/>
<path fill="#FFFFFF" stroke="#000000" stroke-width="0.25" d="M414,295.3c-6.1,4.8-5.3,14-4.7,27.601
	c-4.8-3.5-7.3,4.301-11.3,11.399c-3.4-7.1-5.7-14.5-11.3-11.399c1.398-13.399,2.6-22.601-4.7-27.601c7.3-7.6,6.9-14.9,4.7-27.6
	c6.1,3.2,8.3-3,11.3-11.4c3.7,8.5,6.1,15,11.3,11.4C408,280.6,407.9,287.8,414,295.3z"/>
<path fill="#FFFFFF" stroke="#000000" stroke-width="0.25" d="M398,191.6c3.2,0,5.8,6.2,5.8,13.7c0,7.6-2.6,13.7-5.8,13.7
	s-5.9-6.1-5.9-13.7C392.2,197.7,394.8,191.6,398,191.6z"/>
<path fill="#FFFFFF" stroke="#000000" stroke-width="0.25" d="M258.6,271.9l-15.6,4c-7.3,3.1-16.6-1.3-16.6-1.3
	C163.5,233.3,48,217.4,48,217.4s-12.2-7.1-4.4-17.3c0,0-11.7-7.1,0-21.3C43.6,178.8,197.2,206.8,258.6,271.9z"/>
<path fill="#FFFFFF" stroke="#000000" stroke-width="0.25" d="M301,279.9c0,0-16.1,8-21.4,0.9c0,0-14.6,5.3-21-8.9
	c-61.4-65.1-215-93.1-215-93.1s-5.8-7.5,1.5-13.7c0,0-6.8-9.8,2.4-13.3c0,0-3.9-8.9,3.4-11.5C50.9,140.3,210.3,176.2,301,279.9z"/>
<path fill="#FFFFFF" stroke="#000000" stroke-width="0.25" d="M342.7,284.9c1.3,4.1-13.9-1.9-13.9-1.9c-4.398,5.8-15.1-1.8-15.1-1.8
	c-7.8,4-12.7-1.3-12.7-1.3C210.3,176.2,50.9,140.3,50.9,140.3s-11.7-14.2-2.9-19.5c0,0-8.3-9.7,0-16.4c0,0,173.6,36.1,293.5,178.6
	C342.2,283.8,342.5,284.4,342.7,284.9z"/>
<path fill="#FFFFFF" stroke="#000000" stroke-width="0.25" d="M359.5,270.6c0,0,2,12-8.3,8.4c0,0,0,11.7-8.5,5.9
	c-0.102-0.5-0.5-1.102-1.2-1.9C221.6,140.5,48,104.4,48,104.4s-11.2-5.3-4.4-9.8c0,0,10.7-4.4,6.3-12c0,0-0.5-8,5.4-7.5
	C55.3,75.2,238.1,91.1,359.5,270.6z"/>
<path fill="#FFFFFF" stroke="#000000" stroke-width="0.25" d="M357.1,243.1c0,0,6.302,8.4,2.9,12.4l-0.5,15.1
	C238.1,91.1,55.3,75.2,55.3,75.2s-15.6-3.6-18.5-15.5c-2.9-12,21.5-1.8,27.3-5.8c5.8-4-34.6-31.9-34.6-31.9s208.6,30.6,330,210
	C359.5,232,355.6,237.8,357.1,243.1z"/>
</svg>
