<svg version="1.1" xmlns="http://www.w3.org/2000/svg" width="550px" height="400px" viewBox="0 0 36 25">
<title>butterfly coloring</title><desc>Vector coloring butterfly. Author Lobaz Roman. Site www.abc-color.com</desc>
<g fill="#ffffff" stroke="#000000" stroke-width="0.1">
<ellipse cx="18" cy="15" rx="2" ry="9"/>
<path d="M16.5,10.5c-1.4-4.2-17-1.5-14.8,8.7C3.8,29.5,20.9,23.6,16.5,10.5z"/>
<path d="M16.5,10.5c0-2.3-16.8-16.3-16-5.8C1.4,16.5,16.5,12.8,16.5,10.5z"/>
<path d="M19.5,10.1c1.4-4.2,17.1-1.1,14.9,9.1C32.2,29.5,15,23.2,19.5,10.1z"/>
<path d="M19.5,10.1c0-2.3,16.8-16.2,16-5.7C34.6,16.2,19.5,12.5,19.5,10.1z"/>
<circle cx="18" cy="5" r="2"/>
<path d="M14.9,2.5c3.4,2.9-3.5-3.9-2.7-1.4C12.7,2.6,13,0.8,14.9,2.5z M21,2.8c-3.4,2.9,3.6-4.2,2.8-1.7C23.4,2.6,22.9,1.1,21,2.8z"/>
</g>
</svg>