<?xml version="1.0" encoding="utf-8"?>
<!-- Generator: Adobe Illustrator 15.0.0, SVG Export Plug-In . SVG Version: 6.00 Build 0)  -->
<!DOCTYPE svg PUBLIC "-//W3C//DTD SVG 1.1//EN" "http://www.w3.org/Graphics/SVG/1.1/DTD/svg11.dtd">
<svg version="1.1" id="layer_x5F_www.ABC-color.com"
	 xmlns="http://www.w3.org/2000/svg" xmlns:xlink="http://www.w3.org/1999/xlink" x="0px" y="0px" width="822px" height="567px"
	 viewBox="0 0 822 567" enable-background="new 0 0 822 567" xml:space="preserve">
<path fill="none" stroke="#000000" d="M596,226c-3,0-2,27-2,27c-16,13-26-8-26-8c7.5-4,12.8-17.3,13-25l0.2-0.2
	C584.1,222.4,588.8,224.6,596,226z"/>
<path fill="none" stroke="#000000" d="M541,131c21,4,15,93,15,93l-323-13c54-99,64-81,64-85S541,131,541,131z"/>
<path fill="none" stroke="#000000" d="M224,190l1.3,0.4c-4.3,9.2-7.3,16.5-8.5,19.8c-0.5,1.2-0.7,1.9-0.7,1.9
	c-5.7,2.1-11.1,4.2-16.4,6.3l-0.1-0.3c0,0-36.5-3-32.5-24C167,194,196,177,224,190z"/>
<path fill="none" stroke="#000000" d="M113,286c17.7,0,32,17,32,38s-14.3,38-32,38s-32-17-32-38S95.3,286,113,286z"/>
<path fill="none" stroke="#000000" d="M203,441.2v0.3c0,4.5,1.4,9.4-8.5,11.5c-40.5,8.5-53-22-53-22l0.1-0.4
	C166.8,437.1,190.3,440,203,441.2z"/>
<path fill="none" stroke="#000000" d="M423,311c17.7,0,32,17,32,38s-14.3,38-32,38s-32-17-32-38S405.3,311,423,311z"/>
<path fill="none" stroke="#000000" d="M532.1,463c-67.6,1.9-61.1-11.5-61.1-11.5l-0.1-0.8c14-2.102,25-5.2,33.3-8.102l0.3,0.9
	C504.5,443.5,515.7,461.9,532.1,463z"/>
<path fill="none" stroke="#000000" d="M677.7,368.5H649c-4,0-9.4,0-7.6-8.2L662,345C662,345,665.2,366.6,677.7,368.5z"/>
<path fill="none" stroke="#000000" d="M545.3,339c3.3,0.1,30.102,2.3,21.7,53c0,0-12,45-30,41c0,0-11.3,0-15.6-10.1
	C518.1,382.5,532.1,355.3,545.3,339z"/>
<path fill="none" stroke="#000000" d="M532.1,463c-16.398-1.1-27.6-19.5-27.6-19.5l-0.3-0.9c12.398-4.398,18.5-8.6,18.5-8.6
	c-0.602-3.8-1-7.5-1.3-11.1C525.7,433,537,433,537,433c18,4,30-41,30-41c8.5-50.7-18.3-52.9-21.7-53c4.602-5.7,9.102-10,12.7-13.1
	c34.3-1.9,31.6,39,26.8,64.398c-2.2,11.4-4.8,19.602-4.8,19.602C562.8,453,545.7,463.9,532.1,463z"/>
<path fill="none" stroke="#000000" d="M566,320c57-26,30,74,30,74l-10.5-3.5l-0.7-0.1c4.9-25.4,7.5-66.301-26.8-64.4
	C562.8,321.9,566,320,566,320z"/>
<path fill="none" stroke="#000000" d="M695.2,261.2c22.6,21.1-2.2,65.8-2.2,65.8c-12.1,24.3-21.7-6.4-22.9-10.5
	C677.7,296.9,688.6,274.4,695.2,261.2z"/>
<path fill="none" stroke="#000000" d="M710.2,240.1c29.1-27.4,20.5,24.6,19,32.8L725,272h-0.1c-1.302-11.8-5.302-22.9-13.9-31.5
	L710.2,240.1z"/>
<path fill="none" stroke="#000000" d="M677.7,368.5C665.2,366.6,662,345,662,345c0.5-6.9,3.8-17.2,8.1-28.5
	c1.2,4.2,10.7,34.8,22.9,10.5c0,0,24.8-44.7,2.2-65.8c3.5-6.9,5.8-11.2,5.8-11.2c3.4-4,6.5-7.3,9.2-9.9l0.8,0.4
	c8.6,8.6,12.7,19.7,13.9,31.5c3.698,34.6-16.9,75-16.9,75C694.4,364.7,684.6,369.6,677.7,368.5z"/>
<path fill="none" stroke="#000000" d="M759,176c0,0,9.2,15.8,8.1,34.3C714.5,226.5,759,176,759,176z"/>
<path fill="none" stroke="#000000" d="M687,162l-35,20l-8-39C661,129,687,162,687,162z"/>
<path fill="none" stroke="#000000" d="M582,197c0,0-5.6,7.2-5,14.6l0,0c0,0.1,0,0.3,0,0.4c0-3-14-80-14-80s58-14,67,15l6.5,42.2
	C619.1,184.3,596.4,182,582,197z"/>
<path fill="none" stroke="#000000" d="M636.5,189.2c14,4,24.5,9.8,24.5,9.8c1,31-65,27-65,27c-7.2-1.4-11.9-3.6-14.8-6.2
	c-2.7-2.5-3.9-5.3-4.2-8.1c0-1.1,0.1-3.8,0-0.1c-0.6-7.4,5-14.6,5-14.6C596.4,182,619.1,184.3,636.5,189.2z"/>
<path id="www.ABC-color.com" fill="none" stroke="#000000" d="M729.2,272.9c1.5-8.2,10.1-60.2-19-32.8c-2.7,2.6-5.8,5.8-9.2,9.9
	c0,0-2.3,4.3-5.8,11.2c-6.602,13.2-17.602,35.7-25.102,55.2c-4.398,11.3-7.6,21.699-8.1,28.5l-20.6,15.3L596,394c0,0,27-100-30-74
	c0,0-3.2,1.9-7.9,5.9C554.5,329,550,333.3,545.4,339c-13.2,16.2-27.302,43.5-24,83.9c0.3,3.6,0.698,7.3,1.3,11.1c0,0-6,4.2-18.5,8.6
	c-8.3,3-19.3,6-33.3,8.102c-16.7,2.5-37.5,3.6-62.602,1.3c0,0-188.2-2-195.3-10c0,0-3.7-0.2-10-0.8
	c-12.8-1.2-36.2-4.102-61.4-10.602C100.3,420,54.3,400,42.8,362.4c-1.9-6-2.8-12.5-2.8-19.5c0,0-10.5-57.4,159.6-124.7
	c5.3-2.1,10.8-4.2,16.4-6.3c0,0,0.2-0.6,0.7-1.9c1.3-3.3,4.2-10.6,8.5-19.8c12.5-26.5,36.6-68.9,65.7-76.4c0,0,215.8-45.9,340.5-1.6
	c1.5,0.5,3,1.1,4.5,1.6c18.198,6.9,33.6,13.1,46.6,18.5c75.5,32,70.5,41.1,76.5,43.7c0,0-44.5,50.5,8.1,34.3
	c-0.6,10.2-4.198,21.1-14.1,30.7l-24,33C729,274,729.1,273.6,729.2,272.9z M652,182l35-20c0,0-26-33-43-19L652,182z M596,226
	c0,0,66,4,65-27c0,0-10.5-5.8-24.5-9.8L630,147c-9-29-67-15-67-15s14,77,14,80c0,0.3,0,0.1,0-0.3c0.3,2.8,1.4,5.6,4.2,8.1L581,220
	c-0.2,7.8-5.5,21-13,25c0,0,10,21,26,8C594,253,593,226,596,226z M556,224c0,0,6-89-15-93c0,0-244-9-244-5s-10-14-64,85L556,224z
	 M455,349c0-21-14.3-38-32-38s-32,17-32,38s14.3,38,32,38S455,370,455,349z M145,324c0-21-14.3-38-32-38s-32,17-32,38s14.3,38,32,38
	S145,345,145,324z"/>
<path fill="none" stroke="#000000" d="M154.6,339.4c0,0,225,19,225,15"/>
<path fill="none" stroke="#000000" d="M157.6,307.4c0,0,36-56,90-73"/>
<path fill="none" stroke="#000000" d="M383.6,323.4c0,0,56-66,109-79"/>
<path fill="none" stroke="#000000" d="M600.1,227.4c0,0,22.5,22,22.5,46l-4,86l29-18c0,0,18-57,36-79c0,0-0.8-34.9-4-46
	c-1.1-3.9-4.1-7.8-8.698-11.9"/>
</svg>
