<?xml version="1.0" encoding="utf-8"?>
<!-- Generator: Adobe Illustrator 15.0.0, SVG Export Plug-In . SVG Version: 6.00 Build 0)  -->
<!DOCTYPE svg PUBLIC "-//W3C//DTD SVG 1.1//EN" "http://www.w3.org/Graphics/SVG/1.1/DTD/svg11.dtd">
<svg version="1.1" id="Layer_1" xmlns="http://www.w3.org/2000/svg" xmlns:xlink="http://www.w3.org/1999/xlink" x="0px" y="0px"
	 width="822px" height="567px" viewBox="0 0 822 567" enable-background="new 0 0 822 567" xml:space="preserve">
<title>Motor vehicle</title>
<desc>Vector coloring motor vehicle</desc>
<path fill="#FFFFFF" stroke="#000000" stroke-miterlimit="10" d="M215.82,446.74c0-10.79-12.78-19.75-29.53-21.45l0.03-0.3
	c25.97-1.03,39.5,20.47,47.67,26.63c8.17,6.17,15.5,0,15.5,0c-9.83,16.86-10.49,30.62-2.2,35.898c-3.61-1.06-5.63-0.729-5.63-0.729
	c-8.5-3.5-52.5,0-52.5,0c-2.01,0.15-28.5,1-28.5,1c-28.5,1-84.5-5.5-84.5-5.5c-18-0.25-19.5-7.5-19.5-7.5s-0.12-0.28-0.33-0.83
	v-0.01l-0.7-27.08c1.31,2.28,80.69-10.75,80.69-10.75c10.5-1.5,22.34-6.48,22.34-6.48c-8.22,3.98-13.5,10.16-13.5,17.102
	c0,12.01,15.82,21.75,35.33,21.75C200,468.49,215.82,458.75,215.82,446.74z"/>
<path fill="#FFFFFF" stroke="#000000" stroke-miterlimit="10" d="M247.29,487.52c-8.29-5.278-7.63-19.038,2.2-35.898
	c0,0,23.5-66.16,121.67-152c31.49-27.53,93.55-69.38,140.66-87.33c15.27-5.82,44.77-20.95,65.54-3.42l0.01,0.01
	c0.89,0.75,1.77,1.56,2.63,2.44c-5.33-2.45-11.85-3.6-19.84-2.69c0,0-52,3-142.34,71c0,0-136.17,106.32-150.83,177.66
	c0,0-2.91,13.51,0,20.34c-2.18,9.49-0.96,16.66-0.96,16.66l0.96,6.5l-0.1,0.1c-8.39-8.648-15.18-12.05-19.59-13.358L247.29,487.52z"
	/>
<path fill="#FFFFFF" stroke="#000000" stroke-miterlimit="10" d="M786.32,106.13c1.64,3.72,2.51,7.94,2.979,11.49
	c0,0-83.148,6.09-76.148,135.84c-12.83,8.83-38.5,11-38.5,11c-1.69-0.3-2.852,0.12-3.5,0.5c0,0-1.24-10.8,1.67-17.34l1.84-3.83
	c0,0,4.34-10.61,5.5-15.66c0.78-3.42,10.5-55.84,10.5-55.84v-38.34c-0.11-0.48-0.22-0.98-0.352-1.47l0.352-0.09
	c3.66-0.57,19.66-14.77,19.66-14.77c4.17-5.17,16.17-10.66,16.17-10.66s10.33-6.63,14-8.43
	C777.89,80.16,786.32,106.13,786.32,106.13z"/>
<path fill="#FFFFFF" stroke="#000000" stroke-miterlimit="10" d="M770.85,174.12h0.17c0,1.32-0.06,2.72-0.17,4.17h-7.35l-0.34-0.04
	c0.108-0.86,0.12-1.68,0.08-2.45l0.08-0.01L770.85,174.12z"/>
<path fill="#FFFFFF" stroke="#000000" stroke-miterlimit="10" d="M769.94,183.51l0.318,0.05c-0.34,2.28-0.81,4.69-1.438,7.23
	l-7.42-7.28c0.58-1,1-1.99,1.278-2.96l0.24,0.07L769.94,183.51z"/>
<path fill="#FFFFFF" stroke="#000000" stroke-miterlimit="10" d="M768.8,190.84c0.01-0.03,0.021-0.05,0.021-0.05
	S768.82,190.81,768.8,190.84z"/>
<path fill="#FFFFFF" stroke="#000000" stroke-miterlimit="10" d="M763.5,178.29h7.35c-0.119,1.67-0.31,3.43-0.59,5.27l-0.318-0.05
	l-7.021-2.89l-0.24-0.07c0.24-0.79,0.4-1.56,0.48-2.3L763.5,178.29z"/>
<path fill="#FFFFFF" stroke="#000000" stroke-miterlimit="10" d="M761.4,183.51l7.42,7.28c0,0-0.012,0.02-0.021,0.05
	c-0.188,0.4-1.58,3.39-3.29,3.98c-1.12,0.38-2.38-0.26-3.52-3.36c0,0-0.74-2.93-1.08-7.15C761.09,184.04,761.25,183.78,761.4,183.51
	z"/>
<path fill="#FFFFFF" stroke="#000000" stroke-miterlimit="10" d="M759.19,231l-0.04,0.17h-14.66c1.22-2.1,2.26-4.52,2.83-7.21
	c0,0,0.26-1.09,0.71-2.99C748.03,220.97,752.99,229.67,759.19,231z"/>
<path fill="#FFFFFF" stroke="#000000" stroke-miterlimit="10" d="M718.66,106.96c0,0,5.83-0.5,7.83,0c0,0-12,5.49-16.17,10.66
	c0,0-16,14.2-19.66,14.77l-0.352,0.09c-0.39-1.54-0.858-3.12-1.318-4.62c-0.58-1.87-1.142-3.6-1.5-4.94
	c-4.392-16.5-17.83-20.96-17.83-20.96c2.898-0.99,8.26-5.02,7.16-7.33c-1.84-3.89-10.23-3.97-14.24-2.7l-16.41-16.99
	c0.82-0.05,49.58-2.99,59.99,15.52c0,0,4.66,7.39,5.5,10.86C711.66,101.32,712.16,106.79,718.66,106.96z"/>
<path fill="#FFFFFF" stroke="#000000" stroke-miterlimit="10" d="M688.99,127.86c0.46,1.5,0.93,3.08,1.318,4.62
	c0.131,0.49,0.24,0.99,0.352,1.47v38.34c0,0-9.72,52.42-10.5,55.84c-1.16,5.05-5.5,15.66-5.5,15.66l-1.84,3.83
	c-16.7,13.24-38.762,28.16-52.131,36.97l-0.199-0.3c-5-64.66-23.28-101.55-23.28-101.55c16.78-9.43,37.04-20.55,40.28-21.12
	c0,0,39.479-19.59,51.489-33.76H688.99z M622.53,190.17c5.81-2.69,9.568-6.9,8.41-9.41c-1.16-2.51-6.812-2.36-12.62,0.33
	c-5.812,2.69-9.57,6.9-8.41,9.41S616.72,192.86,622.53,190.17z"/>
<path fill="#FFFFFF" stroke="#000000" stroke-miterlimit="10" d="M688.99,127.86h-0.01c-12.012,14.17-51.49,33.76-51.49,33.76
	c-3.24,0.57-23.5,11.69-40.28,21.12c0,0-1.59-5.06-1.95-6.78c-3.938-18.76-7.13-23.64-13.87-27.25
	c-5.729-3.08-9.898-6.42-9.898-6.42c25.33-7.17,70.22-27.42,80.17-31.5c14.979-6.14,12.5-7.16,12.5-7.16l-0.05-0.35
	c2.13-0.36,4.38-0.92,5.55-1.32c0,0,13.438,4.46,17.83,20.96C687.85,124.26,688.41,125.99,688.99,127.86z"/>
<path fill="#FFFFFF" stroke="#000000" stroke-miterlimit="10" d="M676.82,94.63c1.1,2.31-4.262,6.34-7.16,7.33
	c-1.17,0.4-3.42,0.96-5.55,1.32c-1.63,0.27-3.182,0.43-4.15,0.31c-0.53-0.06-0.88-0.21-0.97-0.46c-0.221-0.59-0.45-1.33-0.63-2.17
	c-0.32-1.48-0.45-3.23,0-4.83c0.278-0.99,0.778-1.93,1.6-2.7c0.46-0.44,1.021-0.82,1.7-1.14c0.27-0.13,0.58-0.24,0.92-0.36
	C666.59,90.66,674.98,90.74,676.82,94.63z"/>
<path fill="#FFFFFF" stroke="#000000" stroke-miterlimit="10" d="M650.33,94.65c3.66,4.41,6.33,7.74,6.33,7.74
	c-3.9,3.05-14.062,7.57-24.67,11.85c-0.09-2.021,0.09-5.46,0-7.28c-0.5-10.22-9.3-12.55-14.58-13.17
	c-11.49-1.35-22.15,3.87-22.15,3.87c-8.3-1.53-15.438,0.63-15.438,0.63c-3.38,1.17-6.38,2.56-9.021,4.1h-26.7l-0.26-0.26
	c1.33-1.33,2.66-2.61,4-3.84c5.16-4.6,12.602-9.36,19.5-13.31C567.34,84.98,610.01,82.17,650.33,94.65z"/>
<path fill="#FFFFFF" stroke="#000000" stroke-miterlimit="10" d="M645.02,88.32c1.19,1.39,2.36,2.78,3.472,4.11
	c-11.87-6.07-48.34-8.67-66.271-9.61C611.91,80.98,643.02,88.07,645.02,88.32z"/>
<path fill="#FFFFFF" stroke="#000000" stroke-miterlimit="10" d="M651.66,110.79c-9.95,4.08-54.84,24.33-80.17,31.5l-1.63-4.05
	c29.818-9.48,66.738-22.36,90.1-34.61v-0.04c0.97,0.12,2.521-0.04,4.15-0.31l0.05,0.35C664.16,103.63,666.64,104.65,651.66,110.79z"
	/>
<path fill="#FFFFFF" stroke="#000000" stroke-miterlimit="10" d="M640.53,69.23c-0.511-0.47-1.011-0.93-1.5-1.38
	C639.54,68.27,640.04,68.74,640.53,69.23z"/>
<path fill="#FFFFFF" stroke="#000000" stroke-miterlimit="10" d="M631.99,106.96c0.09,1.82-0.09,5.26,0,7.28
	c-2.37,0.95-4.771,1.9-7.12,2.81c2.11-26.56-21.771-16.75-21.771-16.75c-2.608-1.35-5.278-2.17-7.84-2.64c0,0,10.66-5.22,22.15-3.87
	C622.69,94.41,631.49,96.74,631.99,106.96z"/>
<path fill="#FFFFFF" stroke="#000000" stroke-miterlimit="10" d="M630.94,180.76c1.158,2.51-2.602,6.72-8.41,9.41
	c-5.812,2.69-11.46,2.84-12.62,0.33C609.91,190.5,617.73,189.23,630.94,180.76z"/>
<path fill="#FFFFFF" stroke="#000000" stroke-miterlimit="10" d="M618.32,181.09c5.81-2.69,11.46-2.84,12.62-0.33
	c-13.21,8.47-21.03,9.74-21.03,9.74C608.75,187.99,612.51,183.78,618.32,181.09z"/>
<path fill="#FFFFFF" stroke="#000000" stroke-miterlimit="10" d="M603.1,100.3c0,0,23.881-9.81,21.771,16.75
	c-2.58,1-5.12,1.96-7.51,2.85c0.1-0.65,0.028-1.43-0.182-2.28c0.23-12.16-8.34-13.28-8.34-13.28
	C607.01,102.64,605.08,101.32,603.1,100.3z"/>
<path fill="#FFFFFF" stroke="#000000" stroke-miterlimit="10" d="M620.49,284.29l0.2,0.3c-7.182,4.73-11.852,7.7-11.852,7.7
	c-3.32,2.34-5.74,0-5.74,0l-0.47-0.069c2.01-12.921,3.08-27.291,0.86-38.641c0,0-0.87-18.56-10.932-31.91
	c-0.01,0-0.01-0.01-0.01-0.02c-0.29-0.56-0.72-1.12-1.34-1.67c-2.97-3.52-6.65-6.56-11.21-8.66c-0.86-0.88-1.74-1.69-2.63-2.44
	l-0.011-0.01l-6.851-8.21c0,0-2.45-2.7,3.431-4.7c0,0,10.649-6.14,23.271-13.22C597.21,182.74,615.49,219.63,620.49,284.29z"/>
<path fill="#FFFFFF" stroke="#000000" stroke-miterlimit="10" d="M645.02,88.32c-4.148-4.89-8.528-9.86-11.51-12.73
	c-1.18-1.14-2.14-1.96-2.778-2.3c-5.53-2.99-9.021-8.16-27.632-4.41c0.99-0.26,2.012-0.51,3.062-0.75
	c17.04-3.88,22.01-0.42,27.83,3.5c6.56,4.41,24.37,24.5,24.37,24.5c-0.45,1.6-0.32,3.35,0,4.83l-1.7,1.43c0,0-2.67-3.33-6.33-7.74
	c-0.58-0.71-1.2-1.45-1.83-2.21l-0.01-0.01C647.38,91.1,646.21,89.71,645.02,88.32z"/>
<path fill="#FFFFFF" stroke="#000000" stroke-miterlimit="10" d="M608.84,104.34c0,0,8.57,1.12,8.34,13.28
	c-0.89-3.61-4.14-8.58-6.02-10.83C610.41,105.9,609.64,105.08,608.84,104.34z"/>
<path fill="#FFFFFF" stroke="#000000" stroke-miterlimit="10" d="M535.11,111.63c-1.13,1.34-2.25,2.71-3.36,4.13
	c-1.2,1.52-2.38,3.08-3.54,4.69c-0.95,1.3-1.89,2.64-2.82,4.01h-0.01c-0.43,0.64-0.86,1.28-1.29,1.94
	c-3.67,5.56-7.17,11.62-10.43,18.22c0,0-1.93,5.38,1.18,7.55c1.271,0.88,3.38,1.23,6.82,0.46c0,0,21.188-5.8,48.2-14.39l1.63,4.05
	l-53.5,16.67c0,0-17.67,7.33-12-15.33c0,0,14.83-38.67,55.17-62.67c0,0,30.83-18.5,53.66-19.5c0,0,13.34-2.64,23.88,6.1
	c0.108,0.09,0.22,0.18,0.33,0.29c0.489,0.45,0.989,0.91,1.5,1.38c0.02,0.02,0.028,0.03,0.05,0.05c0.52,0.49,1.05,0.99,1.58,1.51
	l4,4.15c0,0,0,0,0.01,0l16.41,16.99c-0.34,0.12-0.65,0.23-0.92,0.36c-0.68,0.32-1.24,0.7-1.7,1.14c0,0-17.27-18.62-23.8-23.97
	c-2.53-2.07-7.5-7.34-25.34-4.5c0,0-32.012,4.7-62.98,33.33c-1.34,1.23-2.67,2.51-4,3.84c-1.27,1.27-2.54,2.57-3.8,3.93
	C538.38,107.84,536.74,109.69,535.11,111.63z"/>
<path fill="#FFFFFF" stroke="#000000" stroke-miterlimit="10" d="M612.72,121.62v0.01c-7.06,2.59-12.06,4.33-12.06,4.33
	c-0.37,0.15-0.75,0.29-1.13,0.44c-2.012-1.83-3.852-2.72-5.312-3.14l0.102-0.34c0,0-3.67-10.54,8.77-16.65
	C607.36,109.19,611.26,113.94,612.72,121.62z"/>
<path fill="#FFFFFF" stroke="#000000" stroke-miterlimit="10" d="M594.32,102.39c0.91,0.23,1.88,0.52,2.88,0.88
	c-12.142,7.96-13.07,16.78-13.11,18.87c-3.28,0.9-5.59,3.26-5.76,3.44l-0.01,0.01c0,0-2.24,0.09-5.16-0.01v-0.01
	c0,0,0.64-2.09,1.95-5.12c0.608-1.4,1.358-3,2.26-4.69c0.72-1.34,1.53-2.74,2.438-4.13c1.23-1.89,2.632-3.77,4.222-5.5
	c0.92-1.01,1.91-1.98,2.96-2.86c0.688-0.59,1.42-1.14,2.17-1.64C590.81,101.7,592.53,101.93,594.32,102.39z"/>
<path fill="#FFFFFF" stroke="#000000" stroke-miterlimit="10" d="M594.32,122.92l-0.102,0.34c-1.97-0.56-3.229-0.27-3.229-0.27
	c-2.48-1.41-4.88-1.41-6.9-0.85c0.04-2.09,0.97-10.91,13.11-18.87h0.01c1.91,0.69,3.93,1.66,5.88,3
	C590.65,112.38,594.32,122.92,594.32,122.92z"/>
<path fill="#FFFFFF" stroke="#000000" stroke-miterlimit="10" d="M584.09,122.14c2.021-0.56,4.42-0.56,6.9,0.85
	c1.62,0.92,3.27,2.43,4.89,4.78c-1.06,0.38-2.148,0.78-3.28,1.18v-0.01c-2.8-5.13-8.408-5.15-8.5-5.15
	c-2.479,0.19-4.358,0.86-5.77,1.79C578.5,125.4,580.81,123.04,584.09,122.14z"/>
<path fill="#FFFFFF" stroke="#000000" stroke-miterlimit="10" d="M590.99,122.99c0,0,1.26-0.29,3.229,0.27
	c1.46,0.42,3.3,1.31,5.312,3.14c-1.16,0.45-2.38,0.9-3.65,1.37C594.26,125.42,592.61,123.91,590.99,122.99z"/>
<path fill="#FFFFFF" stroke="#000000" stroke-miterlimit="10" d="M592.55,221.65c-0.43-0.56-0.88-1.12-1.34-1.67
	C591.83,220.53,592.26,221.09,592.55,221.65z"/>
<path fill="#FFFFFF" stroke="#000000" stroke-miterlimit="10" d="M578.35,103.59c3.04-1.25,6.7-2.13,10.812-1.96
	c-0.75,0.5-1.48,1.05-2.17,1.64L578.35,103.59z"/>
<path fill="#FFFFFF" stroke="#000000" stroke-miterlimit="10" d="M584.03,106.13H573.47c1.37-0.88,3.011-1.78,4.88-2.54l8.642-0.32
	C585.94,104.15,584.95,105.12,584.03,106.13z"/>
<path fill="#FFFFFF" stroke="#000000" stroke-miterlimit="10" d="M573.47,106.13h10.562c-1.59,1.73-2.99,3.61-4.222,5.5h-12.09
	c0.48-0.35,0.88-0.88,0.94-1.67C568.66,109.96,570.4,108.09,573.47,106.13z"/>
<path fill="#FFFFFF" stroke="#000000" stroke-miterlimit="10" d="M645.02,88.32c-2-0.25-33.108-7.34-62.8-5.5
	c-1.43-0.07-2.738-0.14-3.898-0.2c0,0,48.87-8.06,55.188-7.03C636.49,78.46,640.87,83.43,645.02,88.32z"/>
<path fill="#FFFFFF" stroke="#000000" stroke-miterlimit="10" d="M560.82,120.45h14.29c-1.312,3.03-1.95,5.12-1.95,5.12v0.01
	c-4-0.16-9.271-0.69-11.7-2.35c-0.71-0.48-1.18-1.07-1.3-1.77C560.16,121.46,560.49,121.05,560.82,120.45z"/>
<path fill="#FFFFFF" stroke="#000000" stroke-miterlimit="10" d="M578.32,82.62c-1.53-0.06-2.83-0.12-3.83-0.16
	c-1.602-0.07-2.49-0.1-2.49-0.1c7.54-4.12,13.49-6.9,13.49-6.9s6.898-3.78,17.608-6.58c18.61-3.75,22.102,1.42,27.632,4.41
	c0.64,0.34,1.6,1.16,2.778,2.3C627.19,74.56,578.32,82.62,578.32,82.62z"/>
<path fill="#FFFFFF" stroke="#000000" stroke-miterlimit="10" d="M574.47,148.7l-0.43,0.14
	C574.21,148.78,574.35,148.74,574.47,148.7z"/>
<path fill="#FFFFFF" stroke="#000000" stroke-miterlimit="10" d="M592.6,128.95c-5.55,1.96-11.898,4.04-18.528,6.12v-0.01
	c0,0-0.012-0.12-0.021-0.33c-0.03-0.77,0-2.8,0.852-4.9c0.608-1.52,1.658-3.09,3.42-4.24l0.01-0.01c1.41-0.93,3.29-1.6,5.77-1.79
	c0.092,0,5.7,0.02,8.5,5.15L592.6,128.95L592.6,128.95z"/>
<path fill="#FFFFFF" stroke="#000000" stroke-miterlimit="10" d="M574.9,129.83c-0.852,2.1-0.881,4.13-0.852,4.9l-0.27,0.01
	c-4.392-3.78-9.23-4.94-9.23-4.94c5.13-1.66,10.26,0,10.26,0L574.9,129.83z"/>
<path fill="#FFFFFF" stroke="#000000" stroke-miterlimit="10" d="M573.76,148.93l-1.08,0.36
	C573.1,149.15,573.46,149.03,573.76,148.93z"/>
<path fill="#FFFFFF" stroke="#000000" stroke-miterlimit="10" d="M544.1,102.39h26.7c-1.99,1.16-3.78,2.42-5.398,3.74h-25.28
	l-0.08-0.07c1.26-1.36,2.53-2.66,3.8-3.93L544.1,102.39z"/>
<path fill="#FFFFFF" stroke="#000000" stroke-miterlimit="10" d="M569.39,136.52c-3.818,1.17-7.68,2.34-11.51,3.48v-4.71
	c0,0,0.5-0.88,2.102-1.22C561.66,133.72,564.56,133.99,569.39,136.52z"/>
<path fill="#FFFFFF" stroke="#000000" stroke-miterlimit="10" d="M582.22,82.82c17.932,0.94,54.4,3.54,66.271,9.61l0.01,0.01
	c0.63,0.76,1.25,1.5,1.83,2.21c-40.32-12.48-82.99-9.67-82.99-9.67c1.602-0.93,3.16-1.8,4.66-2.62c0,0,0.89,0.03,2.49,0.1
	c1,0.04,2.3,0.1,3.83,0.16C579.48,82.68,580.79,82.75,582.22,82.82z"/>
<path fill="#FFFFFF" stroke="#000000" stroke-miterlimit="10" d="M603.1,68.88c-10.71,2.8-17.608,6.58-17.608,6.58
	s-5.95,2.78-13.49,6.9c-1.5,0.82-3.06,1.69-4.66,2.62c-6.898,3.95-14.34,8.71-19.5,13.31c30.97-28.63,62.98-33.33,62.98-33.33
	c17.84-2.84,22.81,2.43,25.34,4.5c6.53,5.35,23.8,23.97,23.8,23.97c-0.82,0.77-1.32,1.71-1.6,2.7c0,0-17.812-20.09-24.37-24.5
	c-5.82-3.92-10.79-7.38-27.83-3.5C605.11,68.37,604.09,68.62,603.1,68.88z"/>
<path fill="#FFFFFF" stroke="#000000" stroke-miterlimit="10" d="M540.12,106.13h25.28c-2.131,1.73-3.95,3.59-5.512,5.5H535.11
	c1.63-1.94,3.27-3.79,4.93-5.57L540.12,106.13z"/>
<path fill="#FFFFFF" stroke="#000000" stroke-miterlimit="10" d="M563.64,114.79c0,0,1.852,0,2.182-2.5c0,0,1.068-0.06,1.898-0.66
	h12.091c-0.909,1.39-1.721,2.79-2.439,4.13h-13.73h-0.08C563.63,115.47,563.66,115.15,563.64,114.79z"/>
<path fill="#FFFFFF" stroke="#000000" stroke-miterlimit="10" d="M561.49,117.96c0,0,1.648-0.6,2.068-2.2h0.08h13.73
	c-0.9,1.69-1.65,3.29-2.26,4.69h-14.29C561.2,119.77,561.58,118.84,561.49,117.96z"/>
<path fill="#FFFFFF" stroke="#000000" stroke-miterlimit="10" d="M589.16,101.63c-4.11-0.17-7.771,0.71-10.812,1.96
	c-1.868,0.76-3.51,1.66-4.88,2.54c-3.068,1.96-4.81,3.83-4.81,3.83c-0.062,0.79-0.46,1.32-0.94,1.67
	c-0.83,0.6-1.898,0.66-1.898,0.66c-0.33,2.5-2.182,2.5-2.182,2.5c0.021,0.36-0.01,0.68-0.08,0.97c-0.42,1.6-2.068,2.2-2.068,2.2
	c0.09,0.88-0.29,1.81-0.67,2.49c-0.33,0.6-0.66,1.01-0.66,1.01c0.12,0.7,0.59,1.29,1.3,1.77l-0.94,1.23
	c-3.818,5.75-0.608,7.93-0.608,7.93l0.07,1.68c-1.602,0.34-2.102,1.22-2.102,1.22V140c-2.32,0.69-4.63,1.37-6.89,2.03
	c0,0-1.062-7.95,1.92-17.37h0.01c0.43-1.38,0.95-2.79,1.58-4.21c0.68-1.55,1.49-3.11,2.44-4.66c0.858-1.41,1.84-2.8,2.948-4.16
	c1.562-1.91,3.38-3.77,5.512-5.5c1.618-1.32,3.408-2.58,5.398-3.74c2.641-1.54,5.641-2.93,9.021-4.1c0,0,7.14-2.16,15.438-0.63
	c2.562,0.47,5.23,1.29,7.84,2.64c1.98,1.02,3.91,2.34,5.74,4.04c0.8,0.74,1.57,1.56,2.32,2.45c1.88,2.25,5.13,7.22,6.02,10.83
	c0.21,0.85,0.28,1.63,0.182,2.28c-1.62,0.61-3.17,1.19-4.642,1.72c-1.46-7.68-5.358-12.43-9.63-15.35c-1.95-1.34-3.97-2.31-5.88-3
	h-0.01c-1-0.36-1.97-0.65-2.88-0.88C592.53,101.93,590.81,101.7,589.16,101.63z"/>
<path fill="#FFFFFF" stroke="#000000" stroke-miterlimit="10" d="M573.78,134.74l0.27-0.01c0.011,0.21,0.021,0.33,0.021,0.33v0.01
	c-1.54,0.48-3.102,0.96-4.682,1.45c-4.83-2.53-7.729-2.8-9.408-2.45l-0.07-1.68c3.55-5.38,0.608-7.93,0.608-7.93l0.94-1.23
	c2.43,1.66,7.7,2.19,11.7,2.35c2.92,0.1,5.16,0.01,5.16,0.01c-1.762,1.15-2.812,2.72-3.42,4.24l-0.092-0.03c0,0-5.13-1.66-10.26,0
	C564.55,129.8,569.39,130.96,573.78,134.74z"/>
<path fill="#FFFFFF" stroke="#000000" stroke-miterlimit="10" d="M560.52,124.46c0,0,2.94,2.55-0.608,7.93
	C559.91,132.39,556.7,130.21,560.52,124.46z"/>
<path fill="#FFFFFF" stroke="#000000" stroke-miterlimit="10" d="M535.11,111.63h24.778c-1.108,1.36-2.09,2.75-2.948,4.16
	l-0.052-0.03h-25.14C532.86,114.34,533.98,112.97,535.11,111.63z"/>
<path fill="#FFFFFF" stroke="#000000" stroke-miterlimit="10" d="M556.89,115.76l0.052,0.03c-0.95,1.55-1.762,3.11-2.44,4.66h-26.29
	c1.16-1.61,2.34-3.17,3.54-4.69H556.89z"/>
<path fill="#FFFFFF" stroke="#000000" stroke-miterlimit="10" d="M528.21,120.45h26.29c-0.63,1.42-1.15,2.83-1.58,4.21h-0.01
	l-27.521-0.2C526.32,123.09,527.26,121.75,528.21,120.45z"/>
<path fill="#FFFFFF" stroke="#000000" stroke-miterlimit="10" d="M525.39,124.46l27.521,0.2c-2.98,9.42-1.92,17.37-1.92,17.37
	c-3.23,0.939-6.37,1.85-9.38,2.71l-0.12-0.42c-0.82-1.4-2.15-3.08-3.73-4.84c-5.409-6.05-13.67-13.08-13.67-13.08
	c0.431-0.66,0.86-1.3,1.29-1.94H525.39z"/>
<path fill="#FFFFFF" stroke="#000000" stroke-miterlimit="10" d="M541.61,144.74c3.01-0.86,6.148-1.771,9.38-2.71
	c2.26-0.66,4.568-1.34,6.89-2.03c3.83-1.14,7.69-2.31,11.51-3.48c1.58-0.49,3.142-0.97,4.682-1.45
	c6.63-2.08,12.979-4.16,18.528-6.12c1.132-0.4,2.222-0.8,3.28-1.18c1.271-0.47,2.49-0.92,3.65-1.37c0.38-0.15,0.76-0.29,1.13-0.44
	c0,0,5-1.74,12.06-4.33v-0.01c1.472-0.53,3.021-1.11,4.642-1.72c2.39-0.89,4.93-1.85,7.51-2.85c2.35-0.91,4.75-1.86,7.12-2.81
	c10.608-4.28,20.77-8.8,24.67-11.85l1.7-1.43c0.18,0.84,0.409,1.58,0.63,2.17c0.09,0.25,0.438,0.4,0.97,0.46v0.04
	c-23.359,12.25-60.28,25.13-90.1,34.61c-27.012,8.59-48.2,14.39-48.2,14.39c-3.44,0.77-5.55,0.42-6.82-0.46
	C514.84,152.17,526.43,149.07,541.61,144.74z"/>
<path fill="#FFFFFF" stroke="#000000" stroke-miterlimit="10" d="M541.49,144.32l0.12,0.42c-15.182,4.33-26.771,7.43-26.771,7.43
	c-3.108-2.17-1.18-7.55-1.18-7.55c3.26-6.6,6.76-12.66,10.43-18.22c0,0,8.26,7.03,13.67,13.08
	C539.34,141.24,540.67,142.92,541.49,144.32z"/>
<path fill="#FFFFFF" stroke="#000000" stroke-miterlimit="10" d="M404.41,135.04c7.93,7.43,2.729,16.5-12.47,19.99
	c-4.801,1.11-22.9,2.6-45.16,3.03l-0.03-1.96c0.95-0.02,1.89-0.04,2.83-0.06c21.81-0.54,40.91-3,47.46-8.5c0,0,7.12-5.5,1.12-9.69
	c0,0-52.851-38.59-128.61,0.4c-0.46,0.23-0.93,0.47-1.39,0.71l-1.04-1.98C348.36,94.06,404.41,135.04,404.41,135.04z"/>
<path fill="#FFFFFF" stroke="#000000" stroke-miterlimit="10" d="M357.14,133.77c0.601-3.56,1.021-4.17,1.21-4.23
	c0.04,0,0.07,0.01,0.11,0.02c12.11,1.62,20.54,3.72,21.11,3.86c0.02,0.01,0.029,0.01,0.029,0.01c7.07,3.05,10.811,5.73,10.811,5.73
	c6.75,5.13-0.5,9.13-0.5,9.13c-9,3.7-23.78,5.39-40.37,5.69c0.17-0.64-1.26-3.13-2.12-6.14c-1.39-4.87-1.28-11.1,9.55-13.04
	C357.03,134.43,357.08,134.09,357.14,133.77z"/>
<path fill="#FFFFFF" stroke="#000000" stroke-miterlimit="10" d="M358.46,129.56c-0.04-0.01-0.07-0.02-0.11-0.02
	C358.42,129.51,358.46,129.56,358.46,129.56z"/>
<path fill="#FFFFFF" stroke="#000000" stroke-miterlimit="10" d="M349.54,153.98c16.59-0.3,31.37-1.99,40.37-5.69
	c0,0,7.25-4,0.5-9.13c0,0-3.74-2.68-10.811-5.73c0,0-0.01,0-0.029-0.01c-17.721-7.64-56.32-17.63-109.36,6.12l-0.66-1.29
	c75.76-38.99,128.61-0.4,128.61-0.4c6,4.19-1.12,9.69-1.12,9.69c-6.55,5.5-25.65,7.96-47.46,8.5l-0.05-2.02
	C349.54,154.01,349.54,154,349.54,153.98z"/>
<path fill="#FFFFFF" stroke="#000000" stroke-miterlimit="10" d="M358.35,129.54c-0.189,0.06-0.609,0.67-1.21,4.23
	c-4.47,0.84-18.92,5.54-18.92,5.54l-15.31,6.36c-12,0-21.68,5.91-21.68,5.91v0.03c-1.17-0.12-2.33-0.25-3.47-0.39v-0.03
	c2.74-4.85,38.36-17.01,38.36-17.01s11.7-3.66,18.2-5.14C355.7,129.2,357.05,129.37,358.35,129.54z"/>
<path fill="#FFFFFF" stroke="#000000" stroke-miterlimit="10" d="M338.22,139.31c0,0,14.45-4.7,18.92-5.54
	c-0.06,0.32-0.109,0.66-0.17,1.03c-10.83,1.94-10.939,8.17-9.55,13.04l-5.74,1.67l-12.39,4.14v0.06c-9.49-0.39-19.06-1.12-28.06-2.1
	v-0.03c0,0,9.68-5.91,21.68-5.91L338.22,139.31z"/>
<path fill="#FFFFFF" stroke="#000000" stroke-miterlimit="10" d="M347.42,147.84c0.86,3.01,2.29,5.5,2.12,6.14
	c-6.55,0.11-13.38,0.01-20.25-0.27v-0.06l12.39-4.14L347.42,147.84z"/>
<path fill="#FFFFFF" stroke="#000000" stroke-miterlimit="10" d="M290.41,134.8c14.83-6.5,33.25-7.71,49.49-6.95v0.01l-7.431,1.18
	c0,0-48.09,13.07-49.25,14.88c0.01-0.63,0.07-1.3,0.15-1.89c0.13-1.05,0.29-1.86,0.29-1.86C286.41,139.29,290.41,134.8,290.41,134.8
	z"/>
<path fill="#FFFFFF" stroke="#000000" stroke-miterlimit="10" d="M339.9,127.86v-0.01c1.27,0.06,2.52,0.13,3.76,0.21v0.01
	c-3.25,0.59-11.19,2.97-11.19,2.97c-7.149,0.79-48.81,15.25-48.81,15.25c-0.38-0.37-0.47-1.32-0.44-2.37
	c1.16-1.81,49.25-14.88,49.25-14.88L339.9,127.86z"/>
<path fill="#FFFFFF" stroke="#000000" stroke-miterlimit="10" d="M358.46,129.56c0,0-0.04-0.05-0.11-0.02
	c-1.3-0.17-2.649-0.34-4.029-0.5c-3.36-0.39-6.94-0.73-10.66-0.98c-1.24-0.08-2.49-0.15-3.76-0.21
	c-16.24-0.76-34.66,0.45-49.49,6.95c0,0-4,4.49-6.75,5.37c0,0-0.16,0.81-0.29,1.86c-0.08,0.59-0.14,1.26-0.15,1.89
	c-0.03,1.05,0.06,2,0.44,2.37l-4.94,1.9l-0.05,0.26c-3.34-0.6-6.45-1.22-9.27-1.87c-5.27-1.21-1.25-6.11,0.81-7.04
	c53.04-23.75,91.64-13.76,109.36-6.12C379,133.28,370.57,131.18,358.46,129.56z"/>
<path fill="#FFFFFF" stroke="#000000" stroke-miterlimit="10" d="M283.66,146.29c0,0,41.66-14.46,48.81-15.25
	c0,0,7.94-2.38,11.19-2.97v-0.01c3.72,0.25,7.3,0.59,10.66,0.98c-6.5,1.48-18.2,5.14-18.2,5.14s-35.62,12.16-38.36,17.01v0.03
	c-6.86-0.8-13.32-1.74-19.09-2.77l0.05-0.26L283.66,146.29z"/>
<path fill="#FFFFFF" stroke="#000000" stroke-miterlimit="10" d="M346.75,156.1c-37.11,0.64-80.71-4.01-83.71-8.56
	c-2.13-3.25,2.75-7.34,5.12-8.58c0.46-0.24,0.93-0.48,1.39-0.71l0.66,1.29c-2.06,0.93-6.08,5.83-0.81,7.04
	c2.82,0.65,5.93,1.27,9.27,1.87c5.77,1.03,12.23,1.97,19.09,2.77c1.14,0.14,2.3,0.271,3.47,0.39c9,0.98,18.57,1.71,28.06,2.1
	c6.87,0.28,13.7,0.38,20.25,0.27c0,0.02,0,0.03-0.01,0.04l0.05,2.02C348.64,156.06,347.7,156.08,346.75,156.1z"/>
<path fill="#FFFFFF" stroke="#000000" stroke-miterlimit="10" d="M263.04,147.54c3,4.55,46.6,9.2,83.71,8.56l0.03,1.96
	c-28.891,0.58-64.78-0.63-87.7-6.77c-6.61-1.77,3.21-11.72,6.51-13.5c0.51-0.28,1.02-0.55,1.53-0.81l1.04,1.98
	C265.79,140.2,260.91,144.29,263.04,147.54z"/>
<path fill="#FFFFFF" stroke="#000000" stroke-miterlimit="10" d="M187.66,295.34l21.33-24.22c-17.82-7.5-61.67-10.88-61.67-10.88
	l-22,22.05C151.6,282.02,187.66,295.34,187.66,295.34z M146.82,258.29c0,0,45.74,3.67,65.54,12l-23.87,27c0,0-37.8-13.41-67-13.101
	L146.82,258.29z"/>
<path fill="#FFFFFF" stroke="#000000" stroke-miterlimit="10" d="M55.63,446.87c-0.02-0.04-0.02-0.08,0-0.13V446.87z"/>
<path fill="#FFFFFF" stroke="#000000" stroke-miterlimit="10" d="M30.6,337.29l-1.19,2.75C29.43,339.49,29.84,338.561,30.6,337.29z"
	/>
<path fill="#FFFFFF" stroke="#000000" stroke-miterlimit="10" d="M768.82,162.28l-6.87,8.17h-0.01c0.68-2.51,1.71-4.96,3.21-7.16
	C765.15,163.29,766.83,160.46,768.82,162.28z"/>
<path fill="#FFFFFF" stroke="#000000" stroke-miterlimit="10" d="M770.27,168.37l-7.35,5.03c-0.39-1.81-0.97-2.95-0.97-2.95
	l6.87-8.17c0.47,0.439,0.96,1.13,1.449,2.189c0.211,1.18,0.381,2.47,0.521,3.86L770.27,168.37z"/>
<path fill="#FFFFFF" stroke="#000000" stroke-miterlimit="10" d="M770.85,174.12l-7.528,1.67l-0.08,0.01
	c-0.05-0.88-0.17-1.69-0.32-2.4l7.35-5.03l0.521-0.04c0.16,1.77,0.25,3.7,0.229,5.79H770.85z"/>
<path fill="#FFFFFF" stroke="#000000" stroke-miterlimit="10" d="M761.95,170.45c0,0,0.58,1.14,0.97,2.95
	c0.15,0.71,0.271,1.52,0.32,2.4c0.04,0.77,0.028,1.59-0.08,2.45c-0.08,0.74-0.24,1.51-0.48,2.3c-0.278,0.97-0.698,1.96-1.278,2.96
	c-0.15,0.271-0.312,0.53-0.49,0.8c-0.32-3.94-0.29-9.01,1.03-13.86H761.95z"/>
<path fill="#FFFFFF" stroke="#000000" stroke-miterlimit="10" d="M768.82,162.28c-1.99-1.82-3.67,1.01-3.67,1.01
	c-1.5,2.2-2.53,4.65-3.21,7.16c-1.32,4.85-1.352,9.92-1.03,13.86c0.34,4.22,1.08,7.15,1.08,7.15c1.14,3.1,2.398,3.74,3.52,3.36
	c1.71-0.59,3.102-3.58,3.29-3.98c-0.26,0.87-4.318,13.73-12.83,19.08c-1.62-6.2-2.18-12.34-2.18-12.34
	c3.82-15.12,8.36-32.14,10.7-37.49c0,0,0.979-2.5,2.58-5.75c0,0,1.898,3.19,3.06,9.35c0.05,0.25,0.102,0.51,0.14,0.78
	C769.78,163.41,769.29,162.72,768.82,162.28z"/>
<path fill="#FFFFFF" stroke="#000000" stroke-miterlimit="10" d="M778.61,199.61c-0.73,7.61-6.222,21.36-10.62,27.18
	c-2.95,3.9-6,4.81-8.8,4.21c-6.2-1.33-11.16-10.03-11.16-10.03c1.08-4.49,3.27-13.54,5.76-23.39c0,0,0.56,6.14,2.18,12.34
	c1.8,6.93,4.92,13.94,10.021,12.54C765.99,222.46,773.66,217.77,778.61,199.61z"/>
<path fill="#FFFFFF" stroke="#000000" stroke-miterlimit="10" d="M778.32,140c0,0,5.33-4.38,3.33,43.29
	c-0.73,6.38-1.802,11.77-3.04,16.32c-4.95,18.16-12.62,22.85-12.62,22.85c-5.102,1.4-8.221-5.61-10.021-12.54
	c8.512-5.35,12.57-18.21,12.83-19.08c0.021-0.03,0.021-0.05,0.021-0.05c0.63-2.54,1.1-4.95,1.438-7.23
	c0.28-1.84,0.472-3.6,0.591-5.27c0.109-1.45,0.17-2.85,0.17-4.17c0.021-2.09-0.069-4.02-0.229-5.79c-0.14-1.39-0.31-2.68-0.521-3.86
	c-0.039-0.27-0.091-0.53-0.141-0.78c-1.16-6.16-3.06-9.35-3.06-9.35C769.69,149.01,773.97,141.68,778.32,140z"/>
<path fill="#FFFFFF" stroke="#000000" stroke-miterlimit="10" d="M789.82,125.57c0.67,41.44-8.17,57.72-8.17,57.72
	c2-47.67-3.33-43.29-3.33-43.29c-4.352,1.68-8.63,9.01-11.25,14.34c-1.602,3.25-2.58,5.75-2.58,5.75
	c-2.34,5.35-6.88,22.37-10.7,37.49c-2.49,9.85-4.68,18.9-5.76,23.39c-0.45,1.9-0.71,2.99-0.71,2.99c-0.57,2.69-1.61,5.11-2.83,7.21
	c-3.392,5.86-8.17,9.29-8.17,9.29c-1.17,2-23.17,13-23.17,13c-7-129.75,76.148-135.84,76.148-135.84
	C789.89,122.13,789.82,125.57,789.82,125.57z"/>
<path fill="#FFFFFF" stroke="#000000" stroke-miterlimit="10" d="M672.82,247.62c-2.91,6.54-1.67,17.34-1.67,17.34
	c-0.44,0.26-0.66,0.5-0.66,0.5c-13.892,15.55-74.17,58.78-75.11,59.45c0.931-3.2,4.79-16.852,7.25-32.689l0.47,0.069
	c0,0,2.42,2.34,5.74,0c0,0,4.67-2.97,11.852-7.7C634.06,275.78,656.12,260.86,672.82,247.62z"/>
<path fill="#FFFFFF" stroke="#000000" stroke-miterlimit="10" d="M586.82,286.63c1.34,14.66,2.34,30.33-2.23,48.33
	c0,0-4.59,26.729-14.59,32.07c10-45.222-2.22-87.82-2.22-87.82l-0.102-0.38C573.94,277.04,585.77,275.06,586.82,286.63z"/>
<path fill="#FFFFFF" stroke="#000000" stroke-miterlimit="10" d="M520.95,344.38l14.09,14.39c-3.82,4.961-8.55,7.66-13.14,6.86
	l-4.08-18.729h-1.262C518.1,346.9,519.64,345.971,520.95,344.38z"/>
<path fill="#FFFFFF" stroke="#000000" stroke-miterlimit="10" d="M517.82,346.9l4.08,18.729c-7.49-1.3-11-11.22-10.15-23.6
	c0.73,2.619,2.21,4.479,4.17,4.818c0.21,0.041,0.43,0.051,0.641,0.051h1.26V346.9z"/>
<path fill="#FFFFFF" stroke="#000000" stroke-miterlimit="10" d="M514.58,327.58c1.51-1.891,3.35-2.92,5.14-2.6
	c2.19,0.379,3.771,2.648,4.38,5.789c0.37,1.851,0.4,4,0.012,6.239c-0.521,3-1.69,5.601-3.16,7.37
	c-1.312,1.59-2.852,2.521-4.391,2.521c-0.211,0-0.431-0.012-0.641-0.051c-1.96-0.341-3.438-2.199-4.17-4.82v-0.01
	c0.14-1.979,0.39-4.029,0.75-6.109C513.01,332.971,513.71,330.17,514.58,327.58z"/>
<path fill="#FFFFFF" stroke="#000000" stroke-miterlimit="10" d="M528.09,311.01l-8.37,13.971c-1.79-0.319-3.63,0.711-5.14,2.601
	C517.56,318.6,522.46,312.13,528.09,311.01z"/>
<path fill="#FFFFFF" stroke="#000000" stroke-miterlimit="10" d="M541.58,322.21l-17.47,8.56H524.1
	c-0.608-3.14-2.188-5.408-4.38-5.789l8.37-13.971c1.08-0.229,2.19-0.26,3.32-0.06C536.1,311.76,539.68,316.061,541.58,322.21z"/>
<path fill="#FFFFFF" stroke="#000000" stroke-miterlimit="10" d="M541.58,322.21c1.63,5.25,2.02,11.86,0.81,18.819l-18.278-4.021
	c0.39-2.239,0.358-4.39-0.012-6.239h0.012L541.58,322.21z"/>
<path fill="#FFFFFF" stroke="#000000" stroke-miterlimit="10" d="M524.11,337.01l18.278,4.021c-1.238,7.119-3.93,13.33-7.35,17.738
	l-14.09-14.39C522.42,342.609,523.59,340.01,524.11,337.01z"/>
<path fill="#FFFFFF" stroke="#000000" stroke-miterlimit="10" d="M518.16,314.62c0,0,16.32-13.351,29.68-23.5
	c25.852,41,7.84,77.938-7.72,93.84c-30.13,30.8-50.11-9.31-51.82-12.91c-0.84-6.95-0.87-11.858-0.87-11.858
	C495.38,342.85,505.61,325.721,518.16,314.62z M541.58,322.21c-1.9-6.149-5.48-10.45-10.17-11.26c-1.13-0.2-2.24-0.171-3.32,0.06
	c-5.63,1.12-10.53,7.59-13.51,16.57c-0.87,2.59-1.57,5.391-2.08,8.33c-0.36,2.08-0.61,4.13-0.75,6.109v0.01
	c-0.85,12.381,2.66,22.301,10.15,23.601c4.59,0.8,9.318-1.899,13.14-6.86c3.42-4.408,6.11-10.619,7.35-17.738
	C543.6,334.07,543.21,327.46,541.58,322.21z"/>
<path fill="#FFFFFF" stroke="#000000" stroke-miterlimit="10" d="M488.3,372.05c2.26,18.94,10.432,53.062,39.91,44.74
	c8.74-2.47,29.24-14.6,39.13-61.78c3.79-18.1,3.49-34.97-5.68-73.75c1.09-0.66,1.938-1.11,2.5-1.3c0.56-0.19,1.84-0.65,3.52-1.13
	l0.102,0.38c0,0,12.22,42.601,2.22,87.819c0,0-14.47,50.011-42.66,60.141c0,0-4.02,1.26-9.729,1.41
	c-13.552,0.37-36.66-5.44-38.23-48.95c2.36-6.3,5.04-12.89,8.05-19.438C487.43,360.189,487.46,365.1,488.3,372.05z"/>
<path fill="#FFFFFF" stroke="#000000" stroke-miterlimit="10" d="M561.66,281.26c9.17,38.78,9.47,55.65,5.68,73.75
	c-9.89,47.182-30.39,59.312-39.13,61.78c-29.479,8.32-37.65-25.8-39.91-44.74c1.71,3.601,21.69,43.71,51.82,12.91
	c15.56-15.899,33.569-52.84,7.72-93.84C553.44,286.87,558.52,283.17,561.66,281.26z"/>
<path fill="#FFFFFF" stroke="#000000" stroke-miterlimit="10" d="M410.81,298.641c-0.949,1.229-61.63,79.819-101.979,103.311
	C309.35,400.88,343.02,332.37,410.81,298.641z"/>
<path fill="#FFFFFF" stroke="#000000" stroke-miterlimit="10" d="M410.81,298.641C343.02,332.37,309.35,400.88,308.83,401.95
	C349.18,378.46,409.86,299.87,410.81,298.641z M295.16,420.62c0,0,31.66-83,132.33-136.33
	C427.49,284.29,362.82,373.96,295.16,420.62z"/>
<path fill="#FFFFFF" stroke="#000000" stroke-miterlimit="10" d="M427.49,284.29c-100.67,53.33-132.33,136.33-132.33,136.33
	C362.82,373.96,427.49,284.29,427.49,284.29z M266.99,457.29c14.66-71.34,150.83-177.66,150.83-177.66c90.34-68,142.34-71,142.34-71
	c7.99-0.91,14.51,0.24,19.84,2.69c4.561,2.1,8.24,5.14,11.21,8.66c0.46,0.55,0.91,1.11,1.34,1.67c0,0.01,0,0.02,0.011,0.02
	C595.67,227.98,580,235.29,580,235.29c-8.83,1.33-79.51,51.67-79.51,51.67c-10.24,7-32.33,27.33-32.33,27.33
	c-10,12-37.67,32-37.67,32c-27.5,23.33-73.51,49.67-101,68.17c-34.44,23.17-41.62,27.28-53.17,41.33
	c-3.83,4.67-9.33,21.84-9.33,21.84C264.08,470.8,266.99,457.29,266.99,457.29z"/>
<path fill="#FFFFFF" stroke="#000000" stroke-miterlimit="10" d="M466,424.99c-4.74,26.358-20.84,35.97-20.84,35.97
	c-66.34,36-143.93,48.83-143.93,48.83c-11.24,2.7-25.91,0.83-29.07-3c-1.82-2.2-3.58-4.16-5.27-5.9l0.1-0.1l-0.96-6.5
	c4.87,12,33.46,7,33.46,7c61-1.67,158-58.33,158-58.33C459.82,440.62,466,424.99,466,424.99z"/>
<path fill="#FFFFFF" stroke="#000000" stroke-miterlimit="10" d="M479.38,379.63c1.57,43.51,24.68,49.32,38.23,48.95l0.01,0.14
	c-10.87,0.4-47.79,1.38-51.62-3.729c0.18-0.99,0.35-2,0.49-3.03C466.49,421.96,470.76,402.7,479.38,379.63z"/>
<path fill="#FFFFFF" stroke="#000000" stroke-miterlimit="10" d="M561.66,281.26c-3.142,1.91-8.22,5.61-13.82,9.86
	c-13.359,10.149-29.68,23.5-29.68,23.5c-12.55,11.101-22.78,28.229-30.73,45.569c-3.01,6.551-5.688,13.141-8.05,19.439
	c-8.62,23.07-12.89,42.33-12.89,42.33c-0.142,1.03-0.312,2.04-0.49,3.03c0,0-6.18,15.63-8.51,17.97c0,0-97,56.66-158,58.33
	c0,0-28.59,5-33.46-7c0,0-1.22-7.17,0.96-16.66c0,0,5.5-17.17,9.33-21.84c11.55-14.05,18.73-18.16,53.17-41.33
	c27.489-18.5,73.5-44.84,101-68.17c0,0,27.67-20,37.67-32c0,0,22.09-20.33,32.33-27.33c0,0,70.68-50.34,79.51-51.67
	c0,0,15.67-7.31,12.56-13.62c10.062,13.35,10.932,31.91,10.932,31.91c2.22,11.35,1.148,25.72-0.86,38.642
	c-2.46,15.838-6.32,29.488-7.25,32.688c-0.01,0.01-0.01,0.01-0.01,0.01c-0.141,0.46-0.21,0.7-0.21,0.7
	c-12,38.34-25.16,41.41-25.16,41.41c10-5.34,14.59-32.07,14.59-32.07c4.57-18,3.57-33.67,2.23-48.33
	c-1.052-11.57-12.88-9.59-19.142-7.8c-1.68,0.48-2.96,0.94-3.52,1.13C563.6,280.15,562.75,280.6,561.66,281.26z"/>
<path fill="#FFFFFF" stroke="#000000" stroke-miterlimit="10" d="M210.79,452.69c0.54-1.04,0.94-2.11,1.18-3.21h0.01
	c0.2-0.9,0.31-1.812,0.31-2.74c0-4.3-2.26-8.28-6.08-11.51c0,0-0.01,0-0.02-0.012c-3.1-2.62-7.23-4.738-12.01-6.148c0,0,0,0-0.01,0
	c-4.15-1.222-8.78-1.9-13.68-1.9c-4.9,0-9.54,0.68-13.69,1.9c0,0-0.01,0-0.02,0.01c-10.7,3.15-18.09,9.87-18.09,17.66
	c0,10.81,14.24,19.58,31.8,19.58c7.12,0,13.7-1.44,19-3.88h0.01C204.75,460.02,208.76,456.63,210.79,452.69z M186.29,425.29
	c16.75,1.7,29.53,10.66,29.53,21.45c0,12.01-15.82,21.75-35.33,21.75c-19.51,0-35.33-9.74-35.33-21.75
	c0-6.94,5.28-13.12,13.5-17.102c6.01-2.908,13.59-4.648,21.83-4.648C182.47,424.99,184.4,425.09,186.29,425.29z"/>
<path fill="#FFFFFF" stroke="#000000" stroke-miterlimit="10" d="M212.29,446.74c0,0.93-0.11,1.84-0.31,2.74h-0.01
	c-18.17,10.688-18.96,4.979-16.06,2.14c3.86-3.76,1.44-9.34,0-11.96c-6.29-11.45,9.62-4.72,10.28-4.44
	c0.01,0.012,0.02,0.012,0.02,0.012C210.03,438.46,212.29,442.44,212.29,446.74z"/>
<path fill="#FFFFFF" stroke="#000000" stroke-miterlimit="10" d="M195.91,451.62c-2.9,2.84-2.11,8.55,16.06-2.14
	c-0.24,1.1-0.64,2.17-1.18,3.21c-24.59,16.46-27.42,4.148-23.97-1.07c10.85-16.43,0.51-18.102-4.29-19.33
	c-10.91-2.79,11.07-3.21,11.64-3.22c0.01,0,0.01,0,0.01,0c4.78,1.41,8.91,3.528,12.01,6.148c-0.66-0.278-16.57-7.01-10.28,4.44
	C197.35,442.28,199.77,447.86,195.91,451.62z"/>
<path fill="#FFFFFF" stroke="#000000" stroke-miterlimit="10" d="M186.82,451.62c-3.45,5.22-0.62,17.53,23.97,1.07
	c-2.03,3.938-6.04,7.328-11.29,9.75h-0.01c-26,7.229-22.46-6.65-19.63-10.82c7.46-11,7.46-11,4.55-11.96
	c-4.16-1.36-12.94-2.15-17.25-2.87c-15.1-2.521-0.97-7.51-0.38-7.71c0.01-0.01,0.02-0.01,0.02-0.01c4.15-1.222,8.79-1.9,13.69-1.9
	c4.9,0,9.53,0.68,13.68,1.9c-0.57,0.01-22.55,0.43-11.64,3.22C187.33,433.52,197.67,435.19,186.82,451.62z"/>
<path fill="#FFFFFF" stroke="#000000" stroke-miterlimit="10" d="M179.86,451.62c-2.83,4.17-6.37,18.05,19.63,10.82
	c-5.3,2.438-11.88,3.88-19,3.88c-17.56,0-31.8-8.771-31.8-19.58c0-7.79,7.39-14.51,18.09-17.66c-0.59,0.2-14.72,5.188,0.38,7.71
	c4.31,0.72,13.09,1.51,17.25,2.87C187.32,440.62,187.32,440.62,179.86,451.62z"/>
<path fill="#FFFFFF" stroke="#000000" stroke-miterlimit="10" d="M73.75,317.17c-6.74,14.2-10.77,31.75-13.76,42.521
	c-6.66,23.93,1,63.1,1,63.1l-5.36,23.95c-0.02,0.05-0.02,0.09,0,0.13l0.7,27.08c-1.74-4.54-9.67-27.25-8.67-60.91
	C48.44,386.65,54.71,353.54,73.75,317.17z"/>
<path fill="#FFFFFF" stroke="#000000" stroke-miterlimit="10" d="M104.87,248.07c0.7-0.65,1.3-1.16,1.79-1.53l13.48-11.23
	c-1.3,1.38-78.96,84.25-89.54,101.98l5.31-12.25c0,0,1.51-1.761,4.09-4.771C52.99,305.17,93.08,258.8,104.87,248.07z"/>
<path fill="#FFFFFF" stroke="#000000" stroke-miterlimit="10" d="M35.91,325.04c24.36-43.07,67.6-75.96,68.95-76.98l0.01,0.01
	c-11.79,10.73-51.88,57.1-64.87,72.2C37.42,323.279,35.91,325.04,35.91,325.04z"/>
<path fill="#FFFFFF" stroke="#000000" stroke-miterlimit="10" d="M120.16,235.29c11-10,50.17-28.85,50.17-28.85
	c-2.56,2.01-5.07,4.02-7.52,6.03h-0.01c-28.94,23.65-50.92,47.26-67.48,70.08c0,0-0.05,0.07-0.16,0.22
	c-8.49,11.71-15.56,23.21-21.41,34.4c-19.04,36.37-25.31,69.48-26.09,95.87h-0.09c-4.59,0.25-18.16-3.25-18.16-3.25
	c-15-7.75-9.75-38.25-9.75-38.25c3.25-22.5,9.75-31.5,9.75-31.5l1.19-2.75c10.58-17.729,88.24-100.6,89.54-101.98
	C120.15,235.3,120.16,235.29,120.16,235.29z"/>
<path fill="#FFFFFF" stroke="#000000" stroke-miterlimit="10" d="M125.32,282.29l22-22.05c0,0,43.85,3.38,61.67,10.88l-21.33,24.22
	C187.66,295.34,151.6,282.02,125.32,282.29z"/>
<path fill="#FFFFFF" stroke="#000000" stroke-miterlimit="10" d="M201.91,247.29c5.25-1,42.5,6,42.5,6
	c11.09,2.33,15.96,2.53,18.1,2.29c-4.75,1.86-21.35-0.57-21.35-0.57c-6.25-2.03-30-3.97-30-3.97c-9.25-1-21.25,2.75-21.25,2.75
	s0.55-2.91,0.08-6.48l0.19-0.02C195.7,246.29,201.91,247.29,201.91,247.29z"/>
<path fill="#FFFFFF" stroke="#000000" stroke-miterlimit="10" d="M189.99,247.31c0.47,3.57-0.08,6.48-0.08,6.48
	c-15.25,4.25-17.25-4-17.25-4c-0.16-0.58-0.25-1.17-0.25-1.75c-0.06-2.11,0.81-4.22,2.02-6.08c2.44-3.82,6.23-6.67,6.23-6.67
	C187.29,237.5,189.41,242.91,189.99,247.31z"/>
<path fill="#FFFFFF" stroke="#000000" stroke-miterlimit="10" d="M174.43,241.96c-1.21,1.86-2.08,3.97-2.02,6.08h-0.02
	c-1.26-0.25-19.98-8.75-19.98-8.75c1.25-1,22.01,2.67,22.01,2.67H174.43z"/>
<path fill="#FFFFFF" stroke="#000000" stroke-miterlimit="10" d="M180.66,235.29c0,0-3.79,2.85-6.23,6.67h-0.01
	c0,0-20.76-3.67-22.01-2.67c0,0-4-4.25,32-6.25C180.78,234.46,180.66,235.29,180.66,235.29z"/>
<path fill="#FFFFFF" stroke="#000000" stroke-miterlimit="10" d="M259.41,251.79c2.03,1.29,4.5,1.94,4.75,3.22
	c0,0-0.13,0.4-1.65,0.57c-2.14,0.24-7.01,0.04-18.1-2.29c0,0-37.25-7-42.5-6c0,0-6.21-1-11.73,0l-0.19,0.02
	c-0.58-4.4-2.7-9.81-9.33-12.02c0,0,0.12-0.83,3.75-2.25c0,0,30-12.25,38.25-9c0,0,1.75,0.5,0,4.75c0,0-0.57,1.03-1.75,3.94
	c0,0-1.75,2.56,1.5,4.06C222.41,236.79,257.29,250.44,259.41,251.79z"/>
<path fill="#FFFFFF" stroke="#000000" stroke-miterlimit="10" d="M95.16,282.77c-2.96,4.14-46.25,65.97-10.5,93.02
	c0,0,54.5,5.5,112-31.5c0,0,117.26-77,133.38-93c0,0,17.53-14.5,18.82-18c0,0,15.3-15.5-6.2-22.5c0,0-69.95-18.76-125-18.5
	c-14.62,0.07-17.81,2.52-54.85,20.18c2.45-2.01,4.96-4.02,7.52-6.03c0.27-0.22,0.55-0.43,0.83-0.65c0,0,36-25.5,50-32
	c0,0,26.5-19,33-29.5c0,0,66.31-72,146.399-85c0,0,134.851-19.71,204.431-9c7.21,1.12,18.47,3.62,33.71,17.27
	c-10.54-8.74-23.88-6.1-23.88-6.1c-22.83,1-53.66,19.5-53.66,19.5c-40.34,24-55.17,62.67-55.17,62.67c-5.67,22.66,12,15.33,12,15.33
	l53.5-16.67c0,0,4.17,3.34,9.898,6.42c6.74,3.61,9.932,8.49,13.87,27.25c0.36,1.72,1.95,6.78,1.95,6.78
	c-12.62,7.08-23.27,13.22-23.27,13.22c-5.882,2-3.432,4.7-3.432,4.7l6.852,8.21c-20.771-17.53-50.271-2.4-65.54,3.42
	c-47.11,17.95-109.17,59.8-140.66,87.33c-98.17,85.84-121.67,152-121.67,152s-7.33,6.17-15.5,0c-8.17-6.16-21.7-27.66-47.67-26.63
	l-0.03,0.3c-1.89-0.2-3.82-0.3-5.8-0.3c-8.24,0-15.82,1.74-21.83,4.648c0,0-11.84,4.98-22.34,6.48c0,0-79.38,13.03-80.69,10.75
	v-0.13l5.36-23.95c0,0-7.66-39.17-1-63.1c2.99-10.771,7.02-28.32,13.76-42.521C79.6,305.98,86.67,294.48,95.16,282.77z
	 M391.94,155.03c15.199-3.49,20.399-12.561,12.47-19.99c0,0-56.05-40.98-137.29,1.94c-0.51,0.26-1.02,0.53-1.53,0.81
	c-3.3,1.78-13.12,11.73-6.51,13.5c22.92,6.14,58.81,7.35,87.7,6.77C369.04,157.63,387.14,156.14,391.94,155.03z"/>
<path fill="#FFFFFF" stroke="#000000" stroke-miterlimit="10" d="M342.66,210.79c21.5,7,6.2,22.5,6.2,22.5
	c-1.29,3.5-18.82,18-18.82,18c-16.12,16-133.38,93-133.38,93c-57.5,37-112,31.5-112,31.5c-35.75-27.05,7.54-88.88,10.5-93.02
	c0.11-0.15,0.16-0.22,0.16-0.22c16.56-22.82,38.54-46.43,67.48-70.08h0.01c37.04-17.66,40.23-20.11,54.85-20.18
	C272.71,192.03,342.66,210.79,342.66,210.79z M264.16,255.01c-0.25-1.28-2.72-1.93-4.75-3.22c-2.12-1.35-37-15-37-15
	c-3.25-1.5-1.5-4.06-1.5-4.06c1.18-2.91,1.75-3.94,1.75-3.94c1.75-4.25,0-4.75,0-4.75c-8.25-3.25-38.25,9-38.25,9
	c-36,2-32,6.25-32,6.25s18.72,8.5,19.98,8.75h0.02c0,0.58,0.09,1.17,0.25,1.75c0,0,2,8.25,17.25,4c0,0,12-3.75,21.25-2.75
	c0,0,23.75,1.94,30,3.97c0,0,16.6,2.43,21.35,0.57C264.03,255.41,264.16,255.01,264.16,255.01z M188.49,297.29l23.87-27
	c-19.8-8.33-65.54-12-65.54-12l-25.33,25.899C150.69,283.88,188.49,297.29,188.49,297.29z"/>
<path fill="#FFFFFF" d="M507.16,170.88l65.07-21.44C554.06,155.6,441.1,196.66,272.18,317.88c1.61-1.43,105.23-92.91,157.15-114.91
	c0,0-46.17-10.68,11.33-60.939c0,0,77.45-73.12,134.45-77.89c0,0-116.45,50.55-132.45,111.65
	C438.56,191.44,470.57,185.54,507.16,170.88z"/>
<path fill="#FFFFFF" d="M674.96,95.18c0.88,1.86-3.41,5.08-5.729,5.87c-2.03,0.69-8.132,2-8.53,0.93c-0.79-2.09-1.83-6.81,2.13-8.66
	C665.61,92.02,673.36,91.81,674.96,95.18z"/>
<path fill="none" stroke="#000000" stroke-miterlimit="10" d="M60.999,423.809c0,0,29.163-72.42,81.167-124.168"/>
<path fill="none" stroke="#000000" stroke-miterlimit="10" d="M716.166,116.771c0,0-24.045,61.415-23.545,71.396
	c0,0,44.543-111.804,89.044-85.832"/>
</svg>
