<?xml version="1.0" encoding="utf-8"?>
<!-- Generator: Adobe Illustrator 15.0.0, SVG Export Plug-In . SVG Version: 6.00 Build 0)  -->
<!DOCTYPE svg PUBLIC "-//W3C//DTD SVG 1.1//EN" "http://www.w3.org/Graphics/SVG/1.1/DTD/svg11.dtd">
<svg version="1.1" id="layer_x5F_www.ABC-color.com"
	 xmlns="http://www.w3.org/2000/svg" xmlns:xlink="http://www.w3.org/1999/xlink" x="0px" y="0px" width="822px" height="567px"
	 viewBox="0 0 822 567" enable-background="new 0 0 822 567" xml:space="preserve">
<g id="layer_x5F_www.ABC-color.com_1_">
	<g>
		<path fill="#FFFFFF" d="M777,198c17,14,12,117,12,117c0,15-7.5,19.5-7.5,19.5c-4,13-8,10.5-8,10.5c4.5-60-13.5-75.5-13.5-75.5
			c-19.5-17.5-42.5,4.5-42.5,4.5c-2,1.3-4.6,5.4-7.7,11.1c-7.898,15-18.2,41.2-25.1,59.801C680.1,357.1,677,366,677,366l-131,13
			c0-5,0.5-10,0.5-10c2.5-37-9.5-73-9.5-73c-8-27-29-26-29-26c-23.3-2.4-34.8,10.5-40.3,21.3C464,298.6,463,305,463,305
			c-2,28-9,81-9,81c-1.7,1.3-7.2,2.5-15.9,3.5c-41.698,4.9-154.8,6-246.7,6.1c-42.3,0-80.2-0.199-104.5-0.3c-17.5-0.1-28-0.2-28-0.2
			C50.2,387.8,46.3,375.2,45,361.9h0.2l31.7,0.8c0,0-2-19-10-19c-3.3,0-12.5-0.5-22.3-1.101c0.6-12.699,2.5-23.899,3.6-29.301
			c0.4-2.1,0.7-3.3,0.7-3.3c0-4.101,0.5-8.101,1.3-12c1.9,0.2,13.9,1.399,33.5,2.601c15-2.5,29.6-16.301,29.6-16.301S112,259,82,246
			c0-6,74-35,74-35c102-96,144-102,144-102c91-20,266-17,266-17l0.8,0.3c37.7-2.5,74.3,7.2,74.3,7.2c15,4.9,76,60.8,90.102,73.8
			c1.898,1.7,2.898,2.7,2.898,2.7l14,1C769,181,777,198,777,198z M731,242c0,0,4-49-20-56l-2-4c-10-33-56.5-67-56.5-67
			c-17.3-12.6-43.5-14.1-66.5-12.1c-26.1,2.3-48,9.1-48,9.1c-13,4-26,82-26,82s-17.9,32.4-7,31c8-1,8-6,23-22c0,0,28,25,26,153
			c0,0,54-5.7,89-7.9c15.8-1,27.7-1.3,29-0.1C676,352,688,263,731,242z M482,194c0,0,19-6,38-87c0,0-231,4-234,13c0,0-114,83-115,90
			C171,210,378,187,482,194z M438,281c0,0-1-32-5-48c0,0-66-13-135,50c0,0,4.8,11,17,13C321,297,426,286,438,281z M391,364
			c13-1,23-21,23-21s-43,3-51,3s-10,19-10,19L391,364z M297,247l-174,7l2,7l11.7,41.8c0.1,0,0.3,0,0.4,0
			c35.1,0.8,78.6,0.601,126-2.5V299.9c0.7-4.301,17.6-29.2,27.3-43.3C294.2,250.9,297,247,297,247z M252,355l-3-28l-122,2
			c0,0-4,27,0,27S252,355,252,355z"/>
		<path fill="#FFFFFF" d="M760,269.5c0,0,18,15.5,13.5,75.5l-3.5-0.5c0.2-9.3-11-93.5-59.5-59l-0.7-0.4c3-5.8,5.7-9.8,7.7-11.1
			C717.5,274,740.5,252,760,269.5z"/>
		<path fill="#FFFFFF" d="M710.5,285.5c48.5-34.5,59.7,49.7,59.5,59c-1,60.5-27,60.5-27,60.5c-28,10-46-7.2-48-11
			c-7.8-14.8-10-44.5-10.3-49.1c7-18.5,17.3-44.801,25.1-59.801L710.5,285.5z M732.5,389c11.9,0,21.5-21.3,21.5-47.5
			S742.9,296,731,296s-20,19.3-20,45.5S720.6,389,732.5,389z"/>
		<path fill="#FFFFFF" d="M754,341.5c0,26.2-9.6,47.5-21.5,47.5S711,367.7,711,341.5s8.1-45.5,20-45.5S754,315.3,754,341.5z
			 M747,355l1-19.5l-5,3.5l-1,3L747,355z M742.5,320.5l-9-13l5,20.5L742.5,320.5z M741.5,371.5l-6-16l-4,19L741.5,371.5z
			 M720.5,364.5l8.5-22l-11-0.5L720.5,364.5z M727.5,329.5c0,0,1-6.5-3.5-23l-4.5,26L727.5,329.5z"/>
		<polygon fill="#A0A0A4" points="748,335.5 747,355 742,342 743,339 		"/>
		<polygon fill="#FFFFFF" points="733.5,307.5 742.5,320.5 738.5,328 		"/>
		<polygon fill="#FFFFFF" points="735.5,355.5 741.5,371.5 731.5,374.5 		"/>
		<path fill="#FFFFFF" d="M711,186c24,7,20,56,20,56c-43,21-55,110-59,106c-1.3-1.3-13.2-0.9-29,0.1
			c31.2-125.7-17.5-152.6-19.9-153.898L711,186z M707,204.3c4.5-1.3,8.4-2.7,8.3-3.3c-0.1-0.7-3.7-0.8-9.1-0.2v-0.4
			c-1.8-3.5-6.3-5.6-11.102-4.9c-4.8,0.8-8.398,4.2-8.898,8.2l0.1,0.3c-5.2,1.2-8.6,2.4-8.5,3.1c0.102,0.7,3.8,1.4,9.2,1.2
			c1.8,3.6,6.3,5.8,11.1,5c5-0.8,8.7-4.6,9-8.8L707,204.3z"/>
		<polygon fill="#FFFFFF" points="729,342.5 720.5,364.5 718,342 		"/>
		<path fill="#FFFFFF" d="M724,306.5c4.5,16.5,3.5,23,3.5,23l-8,3L724,306.5z"/>
		<path fill="#FFFFFF" d="M715.3,201c0.102,0.6-3.8,2-8.3,3.3c-3.7,1.1-7.7,2.2-10.1,2.7c-3.602,0.8-7,1.2-9.9,1.3
			c-5.4,0.2-9-0.5-9.2-1.2c-0.1-0.7,3.3-1.9,8.5-3.1c2.9-0.7,6.3-1.3,9.9-1.9c3.7-0.6,7.1-1,10-1.3
			C711.5,200.3,715.1,200.3,715.3,201z"/>
		<path fill="#FFFFFF" d="M671,137l16,47.5v-0.6l16.1-1.4V182C699,164.1,671.4,137.4,671,137z M709,182l2,4l-87.9,8.2
			c-0.1,0-0.1,0-0.1,0l-37-91V103c23-2,49.2-0.6,66.5,12.1C652.5,115,699,149,709,182z M677.5,184.8c1.3-0.8,2.8-2.3,2.5-4.8
			c-0.7-5.3-16-47-16-47c-32-29.5-70-24-70-24l35.8,78.9l-0.1,1L677.5,184.8L677.5,184.8z"/>
		<path fill="#FFFFFF" d="M707,204.3v0.2c-0.3,4.2-4,8-9,8.8c-4.8,0.8-9.3-1.4-11.1-5c2.898-0.1,6.3-0.5,9.898-1.3
			C699.2,206.5,703.3,205.4,707,204.3z"/>
		<path fill="#FFFFFF" d="M706.2,200.4v0.4c-2.9,0.3-6.4,0.7-10,1.3c-3.7,0.6-7.102,1.3-9.9,1.9l-0.1-0.3c0.6-4,4.1-7.5,8.898-8.2
			C699.9,194.7,704.3,196.8,706.2,200.4z"/>
		<path fill="#FFFFFF" d="M703,182v0.5l-16.1,1.4v0.6L671,137C671.4,137.4,699,164.1,703,182z"/>
		<path fill="#FFFFFF" d="M680,180c0.3,2.4-1.2,3.9-2.5,4.8l0,0l-47.8,4.1l0.1-1L594,109c0,0,38-5.5,70,24
			C664,133,679.3,174.7,680,180z"/>
		<path fill="#FFFFFF" d="M623.1,194.2c2.5,1.3,51.102,28.2,19.9,153.899c-35,2.199-89,7.899-89,7.899c2-128-26-153-26-153
			L623.1,194.2z M630.5,220.9c4.4-1.5,8.3-3,8.2-3.6c-0.102-0.7-3.8-0.6-9.102,0.1V217c-2-3.5-6.5-5.4-11.198-4.5
			c-4.802,1-8.2,4.5-8.602,8.6l0.102,0.3c-5.2,1.4-8.5,2.7-8.4,3.4c0.1,0.7,3.8,1.3,9.2,0.8c1.898,3.5,6.5,5.5,11.3,4.6
			c5-1,8.5-4.9,8.7-9.1L630.5,220.9z"/>
		<path fill="#FFFFFF" d="M638.6,217.3c0.102,0.6-3.8,2.1-8.198,3.6c-3.7,1.2-7.602,2.4-10,3c-3.602,0.9-7,1.4-9.9,1.7
			c-5.4,0.4-9.1-0.1-9.2-0.8c-0.1-0.7,3.2-2,8.4-3.4c2.8-0.8,6.2-1.6,9.898-2.3c3.602-0.7,7-1.3,9.9-1.7
			C634.9,216.6,638.5,216.6,638.6,217.3z"/>
		<path fill="#FFFFFF" d="M630.5,220.9v0.1c-0.1,4.2-3.7,8.1-8.7,9.1c-4.8,0.9-9.3-1-11.3-4.6c2.9-0.2,6.3-0.8,9.9-1.7
			C622.8,223.3,626.8,222.1,630.5,220.9z"/>
		<path fill="#FFFFFF" d="M629.5,217v0.4c-2.9,0.4-6.3,1-9.9,1.7c-3.698,0.7-7,1.5-9.898,2.3l-0.102-0.3c0.4-4,3.9-7.6,8.602-8.6
			C623,211.5,627.6,213.5,629.5,217z"/>
		<path fill="#FFFFFF" d="M623.1,194.2L528,203l13-9c0,0,12.2,1.6,24,0.4l47.9-4.1c-1.5-4.8-27.102-86.6-32.9-81.8
			c0,0-39,4.5-39,10.5c0,0-19.5,43-15.5,68l0.1,0.2c-4.3,3.8-10.1,8-13.6,6.8c0,0,13-78,26-82c0,0,21.9-6.8,48-9.1v0.2L623.1,194.2
			C623,194.1,623,194.1,623.1,194.2z"/>
		<path fill="#FFFFFF" d="M612.9,190.3l-47.9,4.1c1-0.1,2.1-0.2,3.1-0.4c7.7-1.2,14.802-3.7,17.802-9c0,0,10-10-3-19
			c0,0-34.602-5.5-42,0c-8.5,6.3-10.7,11.8-10.102,16.1c-0.5,0.5-2.6,2.7-5.2,5l-0.1-0.2c-4-25,15.5-68,15.5-68c0-6,39-10.5,39-10.5
			C585.8,103.6,611.5,185.5,612.9,190.3z"/>
		<path fill="#FFFFFF" d="M583,166c13,9,3,19,3,19c-3,5.3-10.1,7.9-17.8,9c-1,0.2-2.102,0.3-3.102,0.4c-11.898,1.2-24-0.4-24-0.4
			s-9.1-4.4-10.1-11.9c-0.6-4.4,1.6-9.9,10.1-16.1C548.4,160.5,583,166,583,166z"/>
		<path fill="#FFFFFF" d="M537,296c0,0,12,36,9.5,73c0,0-0.5,5-0.5,10l-6.6,0.5c0.5-5.3,0.698-11.1,0.6-17.5c0,0,4.3-75.9-34-78
			c-31.2-1.7-37.2,5.2-38.3,7.3l0,0c5.5-10.8,17-23.7,40.3-21.3C508,270,529,269,537,296z"/>
		<path fill="#FFFFFF" d="M541,194l-13,9c-15,16-15,21-23,22c-10.9,1.4,7-31,7-31c3.5,1.2,9.3-3.1,13.6-6.8c2.7-2.3,4.7-4.5,5.2-5
			C531.9,189.6,541,194,541,194z"/>
		<path fill="#FFFFFF" d="M506,284c38.3,2.1,34,78,34,78c0.1,6.3-0.1,12.2-0.6,17.5C534.8,433.5,505,436,505,436c-16.5,5-41,1-41,1
			c-14.5-0.9-24.7-42.4-25.9-47.5c8.602-1,14.2-2.2,15.9-3.5c0,0,7-53,9-81c0,0,1-6.4,4.7-13.7l0,0C468.8,289.2,474.8,282.3,506,284
			z M528.5,363c0-29-13.2-52.5-29.5-52.5S469.5,334,469.5,363s13.2,52.5,29.5,52.5S528.5,392,528.5,363z"/>
		<path fill="#FFFFFF" d="M499,310.5c16.3,0,29.5,23.5,29.5,52.5s-13.2,52.5-29.5,52.5S469.5,392,469.5,363S482.7,310.5,499,310.5z
			 M505.5,352.5L520,356c0,0-5.5-29-10.5-27L505.5,352.5z M518,368.5h-14l2,27.5C509,396,518,368.5,518,368.5z M495,348
			c0,0,9-25.5,5-28.5S482,332,482,332L495,348z M498,403l-1.5-29L486,394C491,404,498,403,498,403z M490.5,362.5L479,345
			c0,0-3,33,1,33S490.5,362.5,490.5,362.5z"/>
		<path fill="#FFFFFF" d="M520,356l-14.5-3.5l4-23.5C514.5,327,520,356,520,356z"/>
		<path fill="#FFFFFF" d="M504,368.5h14c0,0-9,27.5-12,27.5L504,368.5z"/>
		<path fill="#FFFFFF" d="M500,319.5c4,3-5,28.5-5,28.5l-13-16C482,332,496,316.5,500,319.5z"/>
		<path fill="#FFFFFF" d="M496.5,374l1.5,29c0,0-7,1-12-9L496.5,374z"/>
		<path fill="#FFFFFF" d="M520,107c-19,81-38,87-38,87c-104-7-311,16-311,16c1-7,115-90,115-90C289,111,520,107,520,107z"/>
		<path fill="#FFFFFF" d="M479,345l11.5,17.5c0,0-6.5,15.5-10.5,15.5S479,345,479,345z"/>
		<path fill="#FFFFFF" d="M433,233c4,16,5,48,5,48c-12,5-117,16-123,15c-12.2-2-17-13-17-13C367,220,433,233,433,233z"/>
		<path fill="#FFFFFF" d="M414,343c0,0-10,20-23,21l-38,1c0,0,2-19,10-19S414,343,414,343z"/>
		<path fill="#FFFFFF" d="M123,254l174-7c0,0-2.8,3.9-6.7,9.7c-2-0.1-80.4-4.5-165.3,4.3l0,0L123,254z"/>
		<path fill="#FFFFFF" d="M290.3,256.7c-9.7,14.1-26.6,39.1-27.3,43.3v0.4c-47.4,3-90.8,3.3-126,2.5c-0.1,0-0.3,0-0.4,0L125,261l0,0
			C209.9,252.1,288.2,256.5,290.3,256.7z M215,273.5c0-7.5-6-13.5-13.5-13.5s-13.5,6-13.5,13.5s6,13.5,13.5,13.5S215,281,215,273.5z
			"/>
		<path fill="#FFFFFF" d="M249,327l3,28c0,0-121,1-125,1s0-27,0-27L249,327z"/>
		<path fill="#FFFFFF" d="M201.5,260c7.5,0,13.5,6,13.5,13.5s-6,13.5-13.5,13.5s-13.5-6-13.5-13.5S194,260,201.5,260z"/>
		<path fill="#FFFFFF" d="M87,395.2c24.3,0.2,62.1,0.399,104.5,0.3C177.3,436.1,149.9,440,143,441c-52.2,7.5-56-45-56-45V395.2z"/>
		<path fill="#FFFFFF" d="M82,246c30,13,31.3,38.3,31.3,38.3s-14.6,13.8-29.6,16.3C64.1,299.4,52.1,298.2,50.2,298
			C56.3,268.6,82,246,82,246z"/>
		<path fill="#FFFFFF" d="M77,362.7l-31.7-0.8h-0.2c-0.6-6.4-0.7-13-0.4-19.301c9.7,0.601,19,1.101,22.3,1.101
			C75,343.7,77,362.7,77,362.7z"/>
	</g>
	<g>
		<path fill="none" stroke="#000000" d="M541,194c0,0-9.1-4.4-10.1-11.9"/>
		<path fill="none" stroke="#000000" d="M191.5,395.6C177.3,436.1,149.9,440,143,441c-52.2,7.5-56-45-56-45v-0.8"/>
		<path fill="none" stroke="#000000" d="M45.1,361.8c-0.6-6.399-0.7-13-0.4-19.3"/>
		<path fill="none" stroke="#000000" d="M50.3,298c6-29.4,31.8-52,31.8-52"/>
		<path fill="none" stroke="#000000" d="M125,261L125,261c84.9-8.9,163.3-4.5,165.3-4.3"/>
		<path fill="none" stroke="#000000" d="M215,273.5c0,7.5-6,13.5-13.5,13.5s-13.5-6-13.5-13.5s6-13.5,13.5-13.5S215,266,215,273.5z"
			/>
		<path fill="none" stroke="#000000" d="M505.5,352.5L520,356c0,0-5.5-29-10.5-27L505.5,352.5z"/>
		<path fill="none" stroke="#000000" d="M504,368.5l2,27.5c3,0,12-27.5,12-27.5H504z"/>
		<path fill="none" stroke="#000000" d="M500,319.5c-4-3-18,12.5-18,12.5l13,16C495,348,504,322.5,500,319.5z"/>
		<path fill="none" stroke="#000000" d="M496.5,374L486,394c5,10,12,9,12,9L496.5,374z"/>
		<path fill="none" stroke="#000000" d="M479,345c0,0-3,33,1,33s10.5-15.5,10.5-15.5L479,345z"/>
		<line fill="none" stroke="#000000" x1="546" y1="379" x2="539.4" y2="379.5"/>
		<path fill="none" stroke="#000000" d="M467.7,291.3L467.7,291.3c1.1-2.2,7.1-9,38.3-7.3c38.3,2.1,34,78,34,78
			c0.1,6.3-0.1,12.2-0.6,17.5C534.8,433.5,505,436,505,436c-16.5,5-41,1-41,1c-14.5-0.9-24.7-42.4-25.9-47.5"/>
		<path fill="none" stroke="#000000" d="M499,310.5c-16.3,0-29.5,23.5-29.5,52.5s13.2,52.5,29.5,52.5s29.5-23.5,29.5-52.5
			S515.3,310.5,499,310.5z"/>
		<polygon fill="none" stroke="#000000" points="748,335.5 743,339 742,342 747,355 		"/>
		<polygon fill="none" stroke="#000000" points="741.5,371.5 735.5,355.5 731.5,374.5 		"/>
		<polygon fill="none" stroke="#000000" points="729,342.5 718,342 720.5,364.5 		"/>
		<polygon fill="none" stroke="#000000" points="742.5,320.5 738.5,328 733.5,307.5 		"/>
		<path fill="none" stroke="#000000" d="M724,306.5c4.5,16.5,3.5,23,3.5,23l-8,3L724,306.5z"/>
		<path fill="none" stroke="#000000" d="M770,344.5c-1,60.5-27,60.5-27,60.5c-28,10-46-7.2-48-11c-7.8-14.8-10-44.5-10.3-49.1"/>
		<path fill="none" stroke="#000000" d="M732.5,389c11.9,0,21.5-21.3,21.5-47.5S742.9,296,731,296s-20,19.3-20,45.5
			S720.6,389,732.5,389z"/>
		<path fill="none" stroke="#000000" d="M773.5,345l-3.5-0.5c0.2-9.3-11-93.5-59.5-59l-0.7-0.4"/>
		<path fill="none" stroke="#000000" d="M707,204.3c-3.7,1.1-7.7,2.2-10.1,2.7c-3.602,0.8-7,1.2-9.9,1.3"/>
		<path fill="none" stroke="#000000" d="M706.2,200.8c-2.9,0.3-6.4,0.7-10,1.3c-3.7,0.6-7.102,1.3-9.9,1.9"/>
		<path fill="none" stroke="#000000" d="M630.5,220.9c-3.7,1.2-7.6,2.4-10,3c-3.6,0.9-7,1.4-9.9,1.7"/>
		<path fill="none" stroke="#000000" d="M629.6,217.4c-2.898,0.4-6.3,1-9.898,1.7c-3.7,0.7-7,1.5-9.9,2.3"/>
		<path fill="none" stroke="#000000" d="M630.5,220.9c4.4-1.5,8.3-3,8.2-3.6c-0.102-0.7-3.8-0.6-9.102,0.1V217
			c-2-3.5-6.5-5.4-11.198-4.5c-4.802,1-8.2,4.5-8.602,8.6l0.102,0.3c-5.2,1.4-8.5,2.7-8.4,3.4c0.1,0.7,3.8,1.3,9.2,0.8
			c1.898,3.5,6.5,5.5,11.3,4.6c5-1,8.5-4.9,8.7-9.1L630.5,220.9z"/>
		<path fill="none" stroke="#000000" d="M623.1,194.2L528,203l13-9c0,0,12.2,1.6,24,0.4"/>
		<path fill="none" stroke="#000000" d="M525.6,187.2c-4.3,3.8-10.1,8-13.6,6.8"/>
		<path fill="none" stroke="#000000" d="M623.1,194.2C623,194.1,623,194.1,623.1,194.2l-37.1-91V103"/>
		<path fill="none" stroke="#000000" d="M671,137L671,137"/>
		<path fill="none" stroke="#000000" d="M671,137l16,47.5v-0.6l16.1-1.4V182C699,164.1,671.4,137.4,671,137z"/>
		<path fill="none" stroke="#000000" d="M643,348.1c31.2-125.7-17.5-152.6-19.9-153.898L711,186"/>
		<path fill="none" stroke="#000000" d="M707,204.3c4.5-1.3,8.4-2.7,8.3-3.3c-0.1-0.7-3.7-0.8-9.1-0.2v-0.4
			c-1.8-3.5-6.3-5.6-11.102-4.9c-4.8,0.8-8.398,4.2-8.898,8.2l0.1,0.3c-5.2,1.2-8.6,2.4-8.5,3.1c0.102,0.7,3.8,1.4,9.2,1.2
			c1.8,3.6,6.3,5.8,11.1,5c5-0.8,8.7-4.6,9-8.8L707,204.3z"/>
		<path fill="none" stroke="#000000" d="M680,180c0.3,2.4-1.2,3.9-2.5,4.8l0,0l-47.8,4.1l0.1-1L594,109c0,0,38-5.5,70,24
			C664,133,679.3,174.7,680,180z"/>
		<path fill="none" stroke="#000000" d="M525.6,187.2l-0.1-0.2c-4-25,15.5-68,15.5-68c0-6,39-10.5,39-10.5
			c5.8-4.9,31.5,77,32.9,81.8l-47.9,4.1c1-0.1,2.1-0.2,3.1-0.4c7.7-1.2,14.802-3.7,17.802-9c0,0,10-10-3-19c0,0-34.602-5.5-42,0
			c-8.5,6.3-10.7,11.8-10.102,16.1C530.3,182.7,528.3,184.8,525.6,187.2z"/>
		<path fill="none" stroke="#000000" d="M643,348.1c15.8-1,27.7-1.3,29-0.1c4,4,16-85,59-106c0,0,4-49-20-56l-2-4
			c-10-33-56.5-67-56.5-67c-17.3-12.6-43.5-14.1-66.5-12.1c-26.1,2.3-48,9.1-48,9.1c-13,4-26,82-26,82s-17.9,32.4-7,31
			c8-1,8-6,23-22c0,0,28,25,26,153C554,356,608,350.3,643,348.1z"/>
		<path fill="none" stroke="#000000" d="M438.1,389.5c-41.698,4.9-154.8,6-246.7,6.1c-42.3,0-80.2-0.199-104.5-0.3
			c-17.5-0.1-28-0.2-28-0.2C50.2,387.8,46.3,375.2,45,361.9h0.2l31.7,0.8c0,0-2-19-10-19c-3.3,0-12.5-0.5-22.3-1.101
			c0.6-12.699,2.5-23.899,3.6-29.301c0.4-2.1,0.7-3.3,0.7-3.3c0-4.101,0.5-8.101,1.3-12c1.9,0.2,13.9,1.399,33.5,2.601
			c15-2.5,29.6-16.301,29.6-16.301S112,259,82,246c0-6,74-35,74-35c102-96,144-102,144-102c91-20,266-17,266-17l0.8,0.3
			c37.7-2.5,74.3,7.2,74.3,7.2c15,4.9,76,60.8,90.102,73.8c1.898,1.7,2.898,2.7,2.898,2.7l14,1c21,4,29,21,29,21
			c17,14,12,117,12,117c0,15-7.5,19.5-7.5,19.5c-4,13-8,10.5-8,10.5c4.5-60-13.5-75.5-13.5-75.5c-19.5-17.5-42.5,4.5-42.5,4.5
			c-2,1.3-4.6,5.4-7.698,11.1c-7.9,15-18.2,41.2-25.102,59.801c-4.6,12.199-7.7,21.101-7.7,21.101l-131,13c0-5,0.5-10,0.5-10
			c2.5-37-9.5-73-9.5-73c-8-27-29-26-29-26c-23.3-2.4-34.8,10.5-40.3,21.3C464,298.6,463,305,463,305c-2,28-9,81-9,81
			C452.3,387.3,446.8,388.5,438.1,389.5z"/>
		<path fill="none" stroke="#000000" d="M433,233c0,0-66-13-135,50c0,0,4.8,11,17,13c6,1,111-10,123-15C438,281,437,249,433,233z"/>
		<path fill="none" stroke="#000000" d="M290.3,256.7c4-5.7,6.7-9.7,6.7-9.7l-174,7l2,7l11.7,41.8c0.1,0,0.3,0,0.4,0
			c35.1,0.8,78.6,0.601,126-2.5V299.9C263.7,295.7,280.6,270.8,290.3,256.7z"/>
		<path fill="none" stroke="#000000" d="M414,343c0,0-43,3-51,3s-10,19-10,19l38-1C404,363,414,343,414,343z"/>
		<path fill="none" stroke="#000000" d="M249,327l-122,2c0,0-4,27,0,27s125-1,125-1L249,327z"/>
		<path fill="none" stroke="#000000" d="M482,194c-104-7-311,16-311,16c1-7,115-90,115-90c3-9,234-13,234-13
			C501,188,482,194,482,194z"/>
	</g>
</g>
<line fill="none" stroke="#000000" x1="492.6" y1="197.2" x2="433.6" y2="233.2"/>
<line fill="none" stroke="#000000" x1="133.6" y1="268.2" x2="180.6" y2="268.2"/>
<line fill="none" stroke="#000000" x1="135.6" y1="275.2" x2="180.6" y2="275.2"/>
<line fill="none" stroke="#000000" x1="138.6" y1="283.2" x2="181.6" y2="283.2"/>
<line fill="none" stroke="#000000" x1="140.6" y1="293.2" x2="255.6" y2="290.2"/>
<line fill="none" stroke="#000000" x1="220.6" y1="281.2" x2="263.6" y2="281.2"/>
<line id="ABC-color.com" fill="none" stroke="#000000" x1="220.6" y1="272.2" x2="270.6" y2="272.2"/>
<line fill="none" stroke="#000000" x1="221.6" y1="265.2" x2="274.6" y2="263.2"/>
<path fill="none" stroke="#000000" d="M428.6,207.2c0,0-92,14-131,40"/>
<path id="www.ABC-color.com" fill="none" stroke="#000000" d="M451.6,290.2c0,0-43.698,42-86,42c-43,0-104,1-104,1"/>
</svg>
