<?xml version="1.0" encoding="utf-8"?>
<!-- Generator: Adobe Illustrator 15.0.0, SVG Export Plug-In . SVG Version: 6.00 Build 0)  -->
<!DOCTYPE svg PUBLIC "-//W3C//DTD SVG 1.1//EN" "http://www.w3.org/Graphics/SVG/1.1/DTD/svg11.dtd">
<svg version="1.1" id="Layer_1" xmlns="http://www.w3.org/2000/svg" xmlns:xlink="http://www.w3.org/1999/xlink" x="0px" y="0px"
	 width="822px" height="567px" viewBox="0 0 822 567" enable-background="new 0 0 822 567" xml:space="preserve">
<path fill="#FFFFFF" stroke="#000000" stroke-miterlimit="10" d="M791.1,377.8c4.4-6.399,12.601-23.5,6.101-55.5
	c-8.601-42.4-37.4-49.4-63.3-37.399c-0.101,0.1-0.2,0.1-0.301,0.1c-27.6,13.1-36.3,61.6-39.5,82.7c-0.399,2.899-0.8,5.3-1,7
	c-2.199,14.1-11.8,26.3-11.8,26.3l-10.3,2.3l-142.2,32c0,0,3.601-11.3,5.3-26.399c0,0,55.2-9.301,88.4-15.2
	c13.4-2.4,23.2-4.3,24.3-4.8c7.5-3.101,15.8-19,19.3-42.2c5.7-37,27.5-127.3,108.4-109.6c5.8,5,10.4,10.8,15.6,18.1
	c15.101,21.6,24.2,46.899,16.7,92.3c-5.3,32.2-12.3,35.5-15.899,34.6c-1.5-0.3-2.4-1.3-2.4-1.3S789.7,379.9,791.1,377.8L791.1,377.8
	z"/>
<path fill="#FFFFFF" stroke="#000000" stroke-miterlimit="10" d="M791.1,377.8L791.1,377.8c-1.399,2.101-2.5,3-2.5,3s0.9,1,2.4,1.3
	l0,0c-13.6,41.4-37.5,46.101-37.5,46.101c-1,1-12.7,1.399-18.9,1.6c0,0-42.5-4.2-40.399-62.1H694.1c3.2-21.101,11.9-69.5,39.5-82.7
	C807.2,270,791.4,375.9,791.1,377.8z M739.5,415.6c17.3,1,32.9-24.199,34.9-56.199S764,300.7,746.8,299.7c-17.3-0.9-35.3,26-37.3,58
	C707.5,389.6,722.3,414.6,739.5,415.6z"/>
<path fill="#FFFFFF" stroke="#000000" stroke-miterlimit="10" d="M767.5,342.1c0.8,5.301,1,11,0.7,16.9c-0.2,3-0.5,5.9-1,8.8
	L755.8,355l11.4-12.8L767.5,342.1z"/>
<path fill="#FFFFFF" stroke="#000000" stroke-miterlimit="10" d="M746.3,334.8l11.7-16.7c4.6,5.5,8,14,9.5,24h-0.4L755.8,355l0,0
	C755.6,344.8,751.8,336.5,746.3,334.8L746.3,334.8z"/>
<path fill="#FFFFFF" stroke="#000000" stroke-miterlimit="10" d="M758.8,391.5c-4.3,6.9-9.8,11.5-15.6,12.4l3.7-24.7L758.8,391.5
	L758.8,391.5z"/>
<path fill="#FFFFFF" stroke="#000000" stroke-miterlimit="10" d="M758.8,391.4L747,379.1l0,0c4.6-3.3,8.2-11.3,8.8-20.8
	c0.101-1.1,0.101-2.3,0-3.399l0,0l11.4,12.8C765.6,377,762.7,385.2,758.8,391.4z"/>
<path fill="#FFFFFF" stroke="#000000" stroke-miterlimit="10" d="M732.3,347.7L732.3,347.7c2.4-8.101,7.2-13.5,12.3-13.2
	c0.601,0,1.2,0.1,1.7,0.3l0,0c5.4,1.7,9.2,10,9.4,20.2c0,1.1,0,2.2,0,3.4c-0.601,9.399-4.2,17.399-8.8,20.8l0,0
	c-1.601,1.2-3.4,1.8-5.2,1.7c-3.7-0.2-6.9-3.4-8.9-8.4c-1.7-4.2-2.5-9.6-2.2-15.5C730.9,353.6,731.5,350.5,732.3,347.7L732.3,347.7z
	 M749.4,358c0.399-6.4-2.101-11.8-5.5-12c-3.5-0.2-6.601,4.8-7,11.3c-0.4,6.4,2.1,11.7,5.5,11.9C745.9,369.4,749,364.4,749.4,358z"
	/>
<path fill="#FFFFFF" stroke="#000000" stroke-miterlimit="10" d="M739.7,312.4c2.1-0.9,4.2-1.301,6.399-1.2
	c4.5,0.3,8.601,2.7,12,6.8L746.4,334.7L740,313L739.7,312.4z"/>
<path fill="#FFFFFF" stroke="#000000" stroke-miterlimit="10" d="M709.5,357.6c2-32,20.1-58.899,37.3-58
	c17.3,1,29.601,27.7,27.601,59.7s-17.7,57.2-34.9,56.2C722.3,414.6,707.5,389.6,709.5,357.6z M726.7,395.2c3.7,5.3,8.3,8.5,13.5,8.8
	c1,0,2,0,2.899-0.2C748.9,402.9,754.3,398.4,758.7,391.4l0,0c3.899-6.2,6.899-14.4,8.399-23.7c0.5-2.8,0.801-5.7,1-8.8
	c0.4-5.9,0.101-11.601-0.699-16.9c-1.5-10-4.801-18.5-9.5-24c-3.4-4.1-7.5-6.5-12-6.8c-2.2-0.101-4.301,0.3-6.4,1.2
	c-5.9,2.399-11.1,8.5-15,16.8c-2.9,6.3-5.1,14-6.1,22.3c-0.2,1.5-0.301,3.1-0.4,4.7c-0.5,7.6,0,14.899,1.4,21.3
	C721.1,384.6,723.5,390.7,726.7,395.2z"/>
<path fill="#FFFFFF" stroke="#000000" stroke-miterlimit="10" d="M637.1,262.7c1.301-0.9,2-2.5,1.7-4.1s-1.399-2.8-2.899-3.3v-0.1
	c-2.2-11.4-6.101-21.5-12.2-28.8l8.8-1.2c0,0,46.3-4.6,61.6-6.4c12.301-1.4,35.101-3.7,50.801,2.2l0.199-0.3
	c13.601,5.2,22.4,10.2,29.5,16.3c-81-17.7-102.8,72.6-108.399,109.6c-3.601,23.2-11.8,39.101-19.3,42.2c-1.2,0.5-11,2.4-24.301,4.8
	C624.5,386,643.3,311.8,637.1,262.7z"/>
<path fill="#FFFFFF" stroke="#000000" stroke-miterlimit="10" d="M742.5,369.2c-3.5-0.2-5.9-5.5-5.5-11.9
	c0.4-6.399,3.5-11.399,7-11.3c3.4,0.2,5.9,5.5,5.5,12C749,364.4,745.9,369.4,742.5,369.2z"/>
<path fill="#FFFFFF" stroke="#000000" stroke-miterlimit="10" d="M740.2,404c-5.2-0.3-9.9-3.5-13.5-8.8l6.1-22.7
	c2,4.9,5.101,8.1,8.9,8.4c1.8,0.1,3.6-0.5,5.2-1.7l-3.7,24.7C742.2,404,741.2,404,740.2,404z"/>
<path fill="#FFFFFF" stroke="#000000" stroke-miterlimit="10" d="M740,313l6.4,21.8c-0.601-0.2-1.101-0.3-1.7-0.3
	c-5.101-0.3-9.9,5.2-12.3,13.2l-7.7-18.4c3.899-8.399,9.2-14.399,15-16.8L740,313z"/>
<path fill="#FFFFFF" stroke="#000000" stroke-miterlimit="10" d="M791.1,377.8C791.4,375.9,807.2,270,733.6,285.1
	c0.101,0,0.2-0.1,0.301-0.1c25.899-12,54.8-5,63.3,37.4C803.7,354.3,795.5,371.4,791.1,377.8z"/>
<path fill="#FFFFFF" stroke="#000000" stroke-miterlimit="10" d="M732.8,372.5l-13.2,5.1C718.2,371.2,717.7,363.9,718.2,356.3
	c0.1-1.6,0.2-3.1,0.399-4.7l13.7-3.899c-0.8,2.8-1.399,5.899-1.6,9.2C730.3,362.8,731.2,368.3,732.8,372.5z"/>
<path fill="#FFFFFF" stroke="#000000" stroke-miterlimit="10" d="M732.8,372.5l-6.1,22.7c-3.2-4.5-5.601-10.601-7.101-17.7
	L732.8,372.5z"/>
<path fill="#FFFFFF" stroke="#000000" stroke-miterlimit="10" d="M724.7,329.3l7.7,18.4l0,0l-13.7,3.899
	C719.6,343.2,721.7,335.6,724.7,329.3z"/>
<path fill="#FFFFFF" stroke="#000000" stroke-miterlimit="10" d="M730.6,430c-51.6,3-59.6-26.6-59.6-26.6l10.3-2.301
	c0,0,9.7-12.1,11.8-26.3c0.301-1.7,0.601-4.1,1-7h0.101C692.1,425.8,734.6,429.9,734.6,429.9C732.2,430,730.6,430,730.6,430z"/>
<path fill="#FFFFFF" stroke="#000000" stroke-miterlimit="10" d="M683.4,204.9l-53.801,4.7c2.101-16-36.399-85-36.399-85
	C663.4,129,683.4,204.9,683.4,204.9z"/>
<path fill="#FFFFFF" stroke="#000000" stroke-miterlimit="10" d="M611.2,267.2c-2.5,0.4-4.9-1.2-5.3-3.6
	c-0.101-0.2-0.101-0.5-0.101-0.7c0-2.1,1.601-3.9,3.8-4.2l2.101-0.3l19.5-3l2.1-0.3c0.8-0.1,1.601,0,2.4,0.2
	c1.5,0.5,2.7,1.8,2.899,3.3c0.301,1.6-0.399,3.1-1.699,4.1c-0.601,0.5-1.301,0.8-2.101,0.9l-2.1,0.3l-19.601,3L611.2,267.2z"/>
<path fill="#FFFFFF" stroke="#000000" stroke-miterlimit="10" d="M593.2,124.6c0,0,38.6,69,36.399,85l53.801-4.7
	C683.4,204.9,663.4,129,593.2,124.6z M583.5,115.4c0,0,89.5,2.1,108.8,95l-175.7,16.1c4-2,7-5.3,8.601-9.2l92.5-7.7
	c7.5-20.1-37.4-85-37.4-85c-83.2-9.5-105.1,75.3-105.1,75.3c-6.5,2.8-10.7,8.9-10.7,15.6c0,0.6,0.1,1.3,0.1,2l-6.6,2.4
	C460,203.5,475.8,109.8,583.5,115.4z"/>
<path fill="#FFFFFF" stroke="#000000" stroke-miterlimit="10" d="M625,276.7c-4.7,0.7-9.4-3.5-11.7-9.7l19.601-3
	C632.7,270.6,629.7,275.9,625,276.7z"/>
<path fill="#FFFFFF" stroke="#000000" stroke-miterlimit="10" d="M631.3,255.4l-19.5,3c0.101-6.6,3.2-12,7.9-12.7
	C624.3,244.9,629,249.1,631.3,255.4z"/>
<path fill="#FFFFFF" stroke="#000000" stroke-miterlimit="10" d="M580.3,124.6c0,0,44.9,64.9,37.4,85l-92.5,7.7
	c1.1-2.8,1.5-6,0.899-9.2c-1.8-9.4-11.399-15.5-21.399-13.8l-25.101,4.4c-1.6,0.3-3,0.7-4.399,1.3
	C475.2,199.9,497.1,115.1,580.3,124.6z"/>
<path fill="#FFFFFF" stroke="#000000" stroke-miterlimit="10" d="M262.1,437.9c0,0,71.9,11.399,90.9-42.101
	C352.9,395.8,287.8,396.9,262.1,437.9z M67.6,376.5c0.1,0.1,0.2,0.1,0.3,0.3l-0.1,0.101c-0.1,0-0.1,0-0.2,0l0,0
	c-0.4,2.1,4.5,4.699,12.6,14.399c8.3,8.9,19.7,24.9,36,36.5c10.6,7.601,23.2,13.4,38,14.601c7.8,0.6,16.2,0,25.3-2.301
	c26-5.699,57.3-25.3,88.9-46.6L268,393c0.2,0,0.4,0,0.5,0c-1.7-0.6-27.2-3.4-41.6-13.1c-9.3-6.801-17.7-11.2-25.8-11.801
	c-4.6-0.399-9.1,0.5-13.6,2.801c-8.5,4.5-10.1,6.1-11.5,6c-0.5-0.101-1-0.4-2-0.9c-1.7-1-2.5-1.4-3.4-1.5c-1-0.1-2.1,0.3-4.8,0.8
	c-1.2,0.2-1.8,0.4-2.3,0.4c-1.3-0.101-2-1.601-8.3-7.4c-3.3-3-7.3-4.6-11.9-5c-8.1-0.6-18.1,2.3-30,7.3
	C94.8,377.8,68,376.1,67.6,376.5C67.5,376.5,67.5,376.5,67.6,376.5L67.6,376.5L67.6,376.5z M21.9,342.9l22.7,3.899
	c2.7,0.5,5.5-1.6,6-4.6c0,0,88.4,10.399,240.9,25.6h0.2c0.1,2.601,2.4,4.8,5.3,4.8l54.8,0.601c3,0,5.4-2.2,5.4-5
	c0,0,32.5-1.7,82.1-38.9c0,0,31.2-19.399,60.3-8.3c5.601,2.1,11.101,5.4,16.301,10.2c31.3,28.6,19,75,18.3,77.6
	c2.2-19.1,1.5-44.399-12.9-61.3c-25.8-30.3-50.6-28.4-69.8-16.1c-36.9,23.5-46.5,62.3-55.8,84.699c-1.101,2.601-2.2,5-3.3,7.2
	c-10.7,20.2-25.801,26.2-25.801,26.2c-25.699,8.1-51.5,11.1-51.5,11.1c-40.5,3.2-87.3,0-122.6-3.8c-32-3.399-54.6-7.3-54.6-7.3
	c-26.8-3.8-48.6-9.5-64.8-14.7c-22.2-7.1-34-13.5-34-13.5C-1.3,396,15.2,350.5,19,341.2C19.7,342,20.7,342.7,21.9,342.9z M24,383.9
	c0,0,1,8.899,8.7,14.1c11,7.5,24.1,17.7,23.6,12.5c-2.2-23.1-15.6-37.4-32.3-47.8C19.3,359.7,24,383.9,24,383.9z"/>
<path fill="#FFFFFF" stroke="#000000" stroke-miterlimit="10" d="M534.1,408.8c0.7-2.7,13-49-18.3-77.6c-5.2-4.8-10.7-8-16.3-10.2
	c1.3-14.1-2.4-56-7.3-77.4l131.5-17.1c6.1,7.3,10,17.3,12.2,28.8v0.1c-0.7-0.3-1.5-0.4-2.4-0.2l-2.1,0.3
	c-2.301-6.3-7.101-10.5-11.7-9.8c-4.7,0.7-7.8,6.1-7.9,12.7l-2.1,0.3c-2.2,0.3-3.8,2.2-3.8,4.2c0,0.2,0,0.5,0.1,0.7
	c0.4,2.3,2.8,3.9,5.3,3.6l2.101-0.3c2.3,6.3,7.1,10.5,11.699,9.7c4.601-0.7,7.7-6.1,7.801-12.7l2.1-0.3c0.8-0.1,1.5-0.4,2.1-0.9
	c6.301,49.1-12.6,123.3-14.5,131c-33.199,6-88.399,15.2-88.399,15.2S534.1,408.9,534.1,408.8z"/>
<path fill="#FFFFFF" stroke="#000000" stroke-miterlimit="10" d="M486.3,232.5c-4.7,0.8-9.2-0.1-13-2.3
	c-4.3-2.5-7.399-6.6-8.399-11.5c-0.101-0.4-0.101-0.8-0.2-1.2c-0.101-0.7-0.101-1.3-0.101-2c0-6.8,4.2-12.9,10.7-15.6
	c1.4-0.6,2.8-1.1,4.4-1.3l25.1-4.4c10-1.7,19.601,4.5,21.4,13.8c0.6,3.2,0.3,6.4-0.9,9.2c-1.5,3.9-4.6,7.2-8.6,9.2
	c-1.601,0.8-3.4,1.4-5.3,1.7l-23,4L486.3,232.5z"/>
<path fill="#FFFFFF" stroke="#000000" stroke-miterlimit="10" d="M453.7,481.1C482.2,485,510.4,455.9,516.6,416
	c6.2-39.8-11.899-75.3-40.399-79.3c-28.5-3.9-56.7,25.2-62.9,65.1C407.1,441.7,425.2,477.2,453.7,481.1z M458.2,501
	c-71.7-16.2-62.3-84.8-62.3-84.8l-0.2-0.101C405,393.7,414.6,354.9,451.5,331.4c19.2-12.2,44-14.2,69.8,16.1
	c14.3,16.9,15.101,42.1,12.9,61.3c0,0.101,0,0.101,0,0.101c-1.8,15.199-5.3,26.399-5.3,26.399C508.3,508,458.2,501,458.2,501z"/>
<path fill="#FFFFFF" stroke="#000000" stroke-miterlimit="10" d="M507,408.8l-20.1-8.2l16.899-20.8
	C506.7,388.4,507.9,398.3,507,408.8z"/>
<path fill="#FFFFFF" stroke="#000000" stroke-miterlimit="10" d="M486.9,400.6l20.1,8.2c-0.2,1.9-0.4,3.9-0.7,5.8
	c-1.399,9.2-4.3,17.7-8.3,25l-20.3-9.699c3.899-4.601,6.8-10.9,7.899-18.101c0.601-3.8,0.601-7.6,0.2-11.1L486.9,400.6z"/>
<path fill="#FFFFFF" stroke="#000000" stroke-miterlimit="10" d="M469.5,380c-1.3-0.2-2.6-0.2-3.8,0l13.5-26.6l0.2-0.9
	c11.199,3.7,19.899,13.9,24.399,27.4L486.9,400.7l-1.101,0.1C484.4,389.7,478.2,381.2,469.5,380z"/>
<path fill="#FFFFFF" stroke="#000000" stroke-miterlimit="10" d="M479.9,460.5l-2.2-30.6l0,0l0,0L498,439.6
	C493.3,448.5,487,455.7,479.9,460.5z"/>
<path fill="#FFFFFF" stroke="#000000" stroke-miterlimit="10" d="M413.3,401.8c6.2-39.899,34.3-69,62.9-65.1
	C504.7,340.6,522.8,376.1,516.6,416c-6.199,39.9-34.399,69-62.899,65.1C425.2,477.2,407.1,441.7,413.3,401.8z M422.7,414.5
	c-0.2,10.6,1.8,20.5,5.6,28.8c4.9,10.9,12.8,19,22.7,22.2c1.6,0.5,3.3,0.9,5.1,1.2c8.301,1.2,16.5-1.2,23.9-6.101
	c7.1-4.8,13.4-12,18.2-20.899c4-7.3,6.8-15.8,8.3-25c0.3-1.9,0.5-3.9,0.7-5.8c0.899-10.5-0.3-20.4-3.2-29
	c-4.6-13.5-13.2-23.7-24.4-27.4c-1.699-0.6-3.5-1-5.399-1.3c-7.5-1-15,0.8-21.8,4.899c-8.801,5.2-16.601,14.2-21.9,25.5
	c-0.3,0.601-0.6,1.2-0.8,1.801c-2.7,6-4.601,12.699-5.8,19.8C423,407,422.7,410.8,422.7,414.5z"/>
<path fill="#FFFFFF" stroke="#000000" stroke-miterlimit="10" d="M452.1,356c6.801-4.1,14.301-5.9,21.801-4.9
	c1.899,0.301,3.699,0.7,5.399,1.301l-0.2,0.899L465.7,380c0,0,0,0-0.101,0L452.1,356z"/>
<path fill="#FFFFFF" stroke="#000000" stroke-miterlimit="10" d="M464.8,218.7c1,5,4.2,9.1,8.4,11.5l-8.9,5.2
	c-8.6-1-12.899-13.1-12.899-13.1l6.699-2.4l6.601-2.4C464.7,217.9,464.8,218.3,464.8,218.7z"/>
<path fill="#FFFFFF" stroke="#000000" stroke-miterlimit="10" d="M462.7,423.3c5.7,0.8,11.3-5,12.6-13s-2.399-15.1-8.1-15.899
	c-5.7-0.801-11.3,5-12.601,13C453.4,415.5,457,422.6,462.7,423.3z M465.7,380c1.3-0.1,2.5-0.1,3.8,0c8.7,1.2,14.9,9.7,16.3,20.6
	c0.5,3.5,0.4,7.2-0.2,11.101c-1.1,7.2-4,13.5-7.899,18.1l0,0l0,0c-4.7,5.601-11,8.7-17.2,7.9c-3-0.4-5.7-1.7-8-3.601
	c-6.5-5.5-10-16.3-8.2-28.1C446.5,392,455.6,381.2,465.7,380L465.7,380L465.7,380z"/>
<path fill="#FFFFFF" stroke="#000000" stroke-miterlimit="10" d="M462.7,423.3c-5.7-0.8-9.3-7.899-8.101-15.899
	c1.301-8,6.9-13.801,12.601-13c5.7,0.8,9.399,7.899,8.1,15.899C474.1,418.3,468.4,424.1,462.7,423.3z"/>
<path fill="#FFFFFF" stroke="#000000" stroke-miterlimit="10" d="M452.5,434.1c2.3,1.9,5,3.2,8,3.601c6.3,0.899,12.5-2.3,17.2-7.9
	l2.2,30.601c-7.4,5-15.601,7.3-23.9,6.1c-1.8-0.2-3.5-0.6-5.1-1.2L452.5,434.1z"/>
<path fill="#FFFFFF" stroke="#000000" stroke-miterlimit="10" d="M452.5,434.1l-1.6,31.301C441.1,462.3,433.1,454.1,428.2,443.2
	L452.5,434.1z"/>
<path fill="#FFFFFF" stroke="#000000" stroke-miterlimit="10" d="M444.3,406.1L429.4,383.4c0.3-0.601,0.5-1.301,0.8-1.801
	c5.3-11.3,13.1-20.3,21.899-25.5l13.5,23.9C455.6,381.2,446.5,392,444.3,406.1z"/>
<path fill="#FFFFFF" stroke="#000000" stroke-miterlimit="10" d="M429.4,383.4L444.3,406.1l-21.6,8.4c0-3.7,0.399-7.5,1-11.3
	C424.8,396.1,426.7,389.4,429.4,383.4z"/>
<path fill="#FFFFFF" stroke="#000000" stroke-miterlimit="10" d="M452.5,434.1l-24.2,9.2c-3.7-8.3-5.7-18.2-5.6-28.8l21.6-8.4
	C442.5,417.8,446,428.6,452.5,434.1z"/>
<path fill="#FFFFFF" stroke="#000000" stroke-miterlimit="10" d="M346.3,134.8c23.101-2.2,45.9-0.1,64.8,3.1l-0.1,0.2
	c2.2,9.9,0.9,26-4.8,36.9c-11.4,21.8-39.601,31.1-57.8,22.7c-18.301-8.4-19.7-31.4-8.301-53.2c1.801-3.4,3.9-6.5,6.2-9.4V134.8z
	 M362.7,180.2c7.7,3.5,18.2-1.9,23.6-12.2c5.4-10.3,3.5-21.4-4.2-25c-7.699-3.5-18.199,1.9-23.6,12.2
	C353.2,165.5,355,176.7,362.7,180.2z"/>
<path fill="#FFFFFF" stroke="#000000" stroke-miterlimit="10" d="M316,140.4c13.8-49.7,85-40.1,85-40.1c64.4,3,56.9,49.4,56.9,49.4
	s-19.301-7.1-46.801-11.8c-18.899-3.2-41.699-5.3-64.8-3.1C336.1,135.7,325.9,137.5,316,140.4z"/>
<path fill="#FFFFFF" stroke="#000000" stroke-miterlimit="10" d="M458.2,501c-12.601,1-47.9-4-47.9-4
	c-47.7-10.1-43.6-47.5-43.6-47.5s15-6.1,25.8-26.2c1.1-2.1,2.2-4.5,3.3-7.2l0.2,0.101C395.9,416.2,386.5,484.8,458.2,501z"/>
<path fill="#FFFFFF" stroke="#000000" stroke-miterlimit="10" d="M327.7,289.7c21.2-9.9,44.2-7,51.3,6.5s-4.3,32.5-25.5,42.399
	c-21.2,9.9-44.2,7-51.3-6.5C295.1,318.6,306.5,299.6,327.7,289.7z M325.3,321.3c2.8,5.4,12.101,6.601,20.5,2.601
	c8.5-4,13.101-11.601,10.2-17c-2.9-5.4-12.1-6.601-20.5-2.601C327,308.3,322.4,315.9,325.3,321.3z"/>
<path fill="#FFFFFF" stroke="#000000" stroke-miterlimit="10" d="M386.3,168c-5.399,10.3-15.899,15.7-23.6,12.2s-9.5-14.8-4.2-25
	c5.4-10.3,15.9-15.7,23.6-12.2C389.8,146.6,391.7,157.7,386.3,168z"/>
<path fill="#FFFFFF" stroke="#000000" stroke-miterlimit="10" d="M302.2,332.1c7.1,13.5,30.1,16.4,51.3,6.5
	C374.7,328.7,386.1,309.7,379,296.2s-30.1-16.4-51.3-6.5C306.5,299.6,295.1,318.6,302.2,332.1z M31.3,312.3
	c1.9,5.601,15.3-4.2,21.9-15.7c6.7-11.5,8.3-26.899,2.1-25.8c13.5-20.1,30.3-35,47-45.9c-1.9,1.6-23.3,19.6-29,38.9
	c-4.4,14.8-7.7,44.4,39.3,49.2c23.4,2.4,80.2,3.9,93.9,6.3c26.3,4.601,65.1-1.8,99.9-35.5c18.1-17.5,53.8-38.5,96.3-36.9
	c18.5,0.7,36.5,2.9,73.3,44.7c5.6,6.4,17.7,17.801,23.4,29.4c-29.101-11.1-60.301,8.3-60.301,8.3C389.5,366.4,357,368.2,357,368.2
	c0-2.8-2.3-5-5.3-5.101l-54.8-0.6c0,0,0,0-0.1,0c-2.9,0-5.3,2.2-5.3,5c0,0.1,0,0.2,0,0.3h-0.2c-152.5-15.2-240.9-25.6-240.9-25.6
	c0.6-3-1.2-5.8-4-6.3L23.9,332c-0.3,0-0.5-0.1-0.8-0.1H23l-0.1-0.801L31.3,312.3z"/>
<path fill="#FFFFFF" stroke="#000000" stroke-miterlimit="10" d="M351.9,363c3,0,5.3,2.3,5.3,5.1c0,2.801-2.5,5-5.4,5l-54.8-0.6
	c-2.9,0-5.2-2.1-5.3-4.8c0-0.101,0-0.2,0-0.3c0-2.801,2.4-5,5.3-5c0.1,0,0.1,0,0.1,0L351.9,363z"/>
<path fill="#FFFFFF" stroke="#000000" stroke-miterlimit="10" d="M352.9,395.8C333.9,449.4,262,437.9,262,437.9
	C287.8,396.9,352.9,395.8,352.9,395.8z"/>
<path fill="#FFFFFF" stroke="#000000" stroke-miterlimit="10" d="M345.8,323.9c-8.5,4-17.7,2.8-20.5-2.601
	c-2.8-5.399,1.7-13,10.2-17s17.7-2.8,20.5,2.601C358.9,312.3,354.3,319.9,345.8,323.9z"/>
<path fill="#FFFFFF" stroke="#000000" stroke-miterlimit="10" d="M464.3,235.5l8.9-5.2c3.7,2.2,8.3,3.1,13,2.3l2.2-0.4l23-4
	c1.899-0.3,3.699-0.9,5.3-1.7l175.7-16.1c-19.301-92.8-108.801-95-108.801-95C475.8,109.9,460.1,203.5,458.2,220l-6.7,2.4
	C451.5,222.4,455.7,234.4,464.3,235.5z M173.8,300.4c3.8,2.699,10,0.8,13.9-4c3.9-4.9,4-11,0.2-13.601c-3.8-2.7-10-0.8-13.9,4
	C170.1,291.7,170,297.8,173.8,300.4z M102.6,224.8c35.7-23.4,70.7-28.6,70.7-28.6l0,0c-0.5,0.8-7,11.6,6.8,17.2
	c0,0-32.8,51,10.1,63.5c42.7,12.4,144.899-52.4,157.899-52.4l0,0c25,1.1,44,1.9,47.4,1.9c26.9,0,62.4,0,62.4-76.8
	c0,0,7.5-46.4-56.9-49.4c0,0-71.3-9.6-85,40.1c-1.4,0.4-2.8,0.8-4.1,1.2c-3.2-37.4-40.8-41.4-40.8-41.4
	c53.7-28.3,130.6-45,176.1-43.4c121,4,145.6,19.6,183.2,42.7c62.1,38,72.399,91.6,72.399,91.6c12.9,23.2,13,19.9,20.4,22.2
	c8.5,2.7,15.7,5.1,22,7.5L745,221c-15.7-5.9-38.5-3.6-50.8-2.2c-15.3,1.8-61.601,6.4-61.601,6.4l-8.8,1.2l-131.5,17.1
	c4.9,21.4,8.601,63.3,7.3,77.4c-5.699-11.601-17.8-23-23.399-29.4c-36.9-41.8-54.9-44-73.3-44.7c-42.601-1.6-78.2,19.4-96.301,36.9
	c-34.8,33.7-73.6,40-99.899,35.5c-13.7-2.4-70.5-3.9-93.9-6.3c-47-4.801-43.7-34.4-39.3-49.2c5.7-19.3,27.1-37.3,29-38.9H102.6z"/>
<path fill="#FFFFFF" stroke="#000000" stroke-miterlimit="10" d="M220.2,190.7c17.6,8.7,49.6-0.8,60.9-21c6.4-11.6,7.5-24.1,4-34.5
	l0.1-0.5c15.8,3.1,26.6,6.8,26.6,6.8c1.4-0.4,2.8-0.9,4.101-1.2c9.899-2.9,20.199-4.6,30.3-5.5v0.3c-2.3,2.9-4.4,6-6.2,9.4
	c-11.4,21.8-10,44.8,8.3,53.2c18.2,8.4,46.4-0.9,57.8-22.7c5.7-10.9,7.101-27,4.801-36.9l0.1-0.2c27.5,4.7,46.8,11.8,46.8,11.8
	s-0.7,5.7-3.3,15.1c-2.6,9.4-7.2,22.5-15,37.4c-12.8,24.3-64.4,17.2-64.4,17.2s-147.1-10.1-177.2-9.1c-29.1,1-25-13.1-24.7-14.1l0,0
	l29-55.5c5.5-2.9,11.5-5,17.7-6.5c-0.9,1.3-1.8,2.8-2.7,4.2C206,158.6,202.6,182,220.2,190.7z"/>
<path fill="#FFFFFF" stroke="#000000" stroke-miterlimit="10" d="M285.1,135.3c3.5,10.3,2.4,22.9-4,34.5
	c-11.3,20.2-43.3,29.6-60.9,21c-17.6-8.7-14.1-32.2-2.9-52.4c0.8-1.5,1.7-2.9,2.7-4.2c22.2-5.4,47-2.9,65.2,0.6L285.1,135.3z
	 M236.5,172.3c6.8,3.4,16.4-1.3,21.5-10.4c5-9.1,3.6-19.2-3.2-22.5c-6.8-3.4-16.4,1.3-21.5,10.4C228.3,158.9,229.7,169,236.5,172.3z
	"/>
<path fill="#FFFFFF" stroke="#000000" stroke-miterlimit="10" d="M271,100.2c0,0,37.6,4,40.8,41.4c0,0-10.9-3.8-26.6-6.8
	c-18.2-3.5-43-6.1-65.2-0.6c-6.2,1.5-12.1,3.6-17.7,6.5C233.5,95.2,271,100.2,271,100.2z"/>
<path fill="#FFFFFF" stroke="#000000" stroke-miterlimit="10" d="M180.1,213.4c3.6,1.5,8.6,3.7,16.9,4c0,0,92.3,4.5,151.2,7.1l0,0
	c-13,0-115.2,64.8-157.9,52.4C147.3,264.4,180.1,213.4,180.1,213.4z"/>
<path fill="#FFFFFF" stroke="#000000" stroke-miterlimit="10" d="M258,162c-5.1,9.1-14.7,13.7-21.5,10.4c-6.8-3.4-8.2-13.4-3.2-22.5
	c5.1-9.1,14.7-13.7,21.5-10.4C261.6,142.8,263.1,152.9,258,162z"/>
<path fill="#FFFFFF" stroke="#000000" stroke-miterlimit="10" d="M73,434.8c16.2,5.3,38,10.9,64.8,14.7c0,0,22.6,3.9,54.6,7.3l0,0
	c0,0-18,18.9-28.5,22c-9.8,2.8-27.2,0-27.2,0C95.6,476.8,73.7,436,73,434.8z"/>
<path fill="#FFFFFF" stroke="#000000" stroke-miterlimit="10" d="M187.8,282.7c3.8,2.6,3.7,8.7-0.2,13.6c-3.9,4.9-10.1,6.7-13.9,4
	c-3.8-2.6-3.7-8.7,0.2-13.6C177.9,281.9,184.1,280.1,187.8,282.7z"/>
<path fill="#FFFFFF" stroke="#000000" stroke-miterlimit="10" d="M173.3,196.2c-0.3,0.9-4.3,15.1,24.7,14.1
	c30.1-1,177.2,9.1,177.2,9.1s51.6,7.1,64.399-17.2c7.801-14.8,12.4-28,15-37.4c2.601-9.4,3.301-15.1,3.301-15.1
	c0,76.8-35.4,76.8-62.4,76.8c-3.4,0-22.4-0.8-47.4-1.9c-58.899-2.7-151.2-7.1-151.2-7.1c-8.3-0.3-13.2-2.5-16.9-4
	C166.2,207.8,172.8,197,173.3,196.2z"/>
<path fill="#FFFFFF" stroke="#000000" stroke-miterlimit="10" d="M67.9,376.8c6,4.7,86.1,64.8,198.5,16.2c0.7,0,1.2-0.1,1.6-0.1
	l0.4,0.5c-31.7,21.399-63,40.899-88.9,46.6c-9.1,2.3-17.5,2.9-25.3,2.3c-14.8-1.2-27.4-7-38-14.6C100,416.1,88.5,400.1,80.2,391.2
	c-8.1-9.601-13-12.3-12.6-14.4l0,0c0.1,0,0.1,0,0.2,0H67.9z"/>
<path fill="#FFFFFF" stroke="#000000" stroke-miterlimit="10" d="M67.5,376.5c0.5-0.4,27.3,1.3,45.8-5.9c11.9-5,21.9-7.899,30-7.3
	c4.6,0.4,8.6,2,11.9,5c6.3,5.8,7.1,7.3,8.3,7.4c0.5,0,1.1-0.2,2.3-0.4c2.7-0.5,3.8-0.899,4.8-0.8c0.9,0.1,1.7,0.5,3.4,1.5
	c1,0.5,1.5,0.9,2,0.9c1.3,0.1,2.9-1.5,11.5-6c4.4-2.4,9-3.2,13.6-2.801c8,0.7,16.5,5.101,25.8,11.801
	c14.4,9.699,39.9,12.5,41.6,13.1c-0.1,0-0.3,0-0.5,0c-0.4,0-0.9,0-1.6,0.1C154,441.6,73.9,381.4,67.9,376.8
	C67.8,376.7,67.6,376.6,67.5,376.5C67.6,376.5,67.5,376.5,67.5,376.5z"/>
<path fill="#FFFFFF" stroke="#000000" stroke-miterlimit="10" d="M53.3,296.6c-6.6,11.5-20,21.301-21.9,15.7
	c-2.1-6-2.6-9.3-1.9-12.6c3.1,1.399,8.4-2.3,11.9-8.4c3.6-6.2,4-12.5,0.9-14.1l-0.1-0.1c2.9-3.6,6.2-5.2,13.3-6.5
	C61.5,269.7,59.9,285.2,53.3,296.6z"/>
<path fill="#FFFFFF" stroke="#000000" stroke-miterlimit="10" d="M24,362.7c16.7,10.5,30.1,24.7,32.3,47.8c0.5,5.2-12.5-5-23.6-12.5
	c-7.7-5.2-8.7-14.1-8.7-14.1S19.3,359.7,24,362.7z"/>
<path fill="#FFFFFF" stroke="#000000" stroke-miterlimit="10" d="M42.2,277.4c3.1,1.6,2.7,7.9-0.9,14.1c-3.5,6.1-8.8,9.8-11.9,8.4
	c0.8-3.4,2.9-6.601,6.3-12.5c2.6-4.5,4.4-7.7,6.4-10H42.2z"/>
<path fill="#FFFFFF" stroke="#000000" stroke-miterlimit="10" d="M23.9,332l22.7,3.9c2.8,0.5,4.5,3.3,4,6.3c-0.6,3-3.3,5-6,4.6
	L21.9,342.9c-1.2-0.2-2.2-0.801-2.9-1.7c-1-1.2-1.4-2.9-1.1-4.601c0.5-2.699,2.7-4.6,5.2-4.699h0.1C23.4,331.9,23.7,332,23.9,332z"
	/>
<g>
	<path d="M388.8,132.5c3.4-1.6,6.8-3.3,10.2-5c3.4-1.8,6.7-3.6,10-5.5s6.5-4,9.6-6.2c1.5-1.1,3-2.3,4.4-3.6c1.4-1.3,2.8-2.6,3.9-4.2
		c-1,1.7-2.2,3.1-3.5,4.6c-1.301,1.4-2.7,2.7-4.2,4c-2.9,2.5-6,4.9-9.101,7.1c-3.1,2.2-6.3,4.4-9.6,6.4c-3.2,2.1-6.5,4.1-9.9,6
		L388.8,132.5z"/>
</g>
<g>
	<path d="M407.3,135.7c4.4-2.4,8.8-4.9,13-7.4c4.3-2.6,8.5-5.3,12.7-8.1c4.1-2.8,8.2-5.8,11.9-9.1c1.899-1.6,3.699-3.4,5.399-5.3
		c1.601-1.9,3.2-3.9,4.101-6.3c-0.801,2.4-2.2,4.6-3.7,6.6c-1.601,2-3.3,3.9-5.101,5.7c-3.6,3.6-7.5,6.9-11.399,10
		c-4,3.1-8.101,6.1-12.2,9c-4.2,2.9-8.4,5.7-12.7,8.4L407.3,135.7z"/>
</g>
<g>
	<path d="M419.8,137.8c5.601-2.3,11.2-4.9,16.601-7.8c5.399-2.9,10.699-6,15.8-9.4c5.1-3.4,10-7.2,14.399-11.4
		c4.4-4.3,8.4-9.1,11-14.7c-2.3,5.8-6.1,10.8-10.3,15.4s-9,8.6-14,12.4c-5,3.8-10.2,7.2-15.5,10.4c-5.399,3.2-10.8,6.2-16.5,8.9
		L419.8,137.8z"/>
</g>
<g>
	<path d="M430.7,141.1c5.2-1.5,10.399-3.4,15.399-5.4c5.101-2.1,10.101-4.4,14.9-7c4.8-2.6,9.5-5.5,13.8-8.9
		c4.3-3.4,8.3-7.3,11.3-11.9c-2.699,4.8-6.5,9-10.6,12.7c-4.2,3.7-8.7,6.9-13.4,9.9c-4.699,2.9-9.6,5.6-14.699,8
		c-5,2.4-10.101,4.6-15.5,6.5L430.7,141.1z"/>
</g>
<g>
	<path d="M443.7,143.5c4.3-1.1,8.6-2.5,12.899-3.9c4.301-1.4,8.5-2.9,12.601-4.7c4.2-1.7,8.2-3.6,12.2-5.8
		c3.899-2.2,7.699-4.7,10.699-8.1c-2.699,3.7-6.399,6.4-10.199,9c-3.801,2.5-7.801,4.7-11.9,6.7s-8.2,3.9-12.4,5.6
		c-4.199,1.7-8.399,3.4-12.8,4.9L443.7,143.5z"/>
</g>
<g>
	<path d="M454.2,145.5c3.3-0.2,6.7-0.6,10-1c3.3-0.5,6.6-1,9.899-1.8c3.301-0.8,6.5-1.7,9.601-2.9c3.1-1.3,6.2-2.9,8.3-5.5
		c-0.9,1.4-2.2,2.6-3.6,3.7c-1.4,1-2.801,1.9-4.4,2.7c-3,1.6-6.3,2.9-9.5,4c-3.3,1.1-6.6,2-9.9,2.8c-3.3,0.8-6.699,1.5-10.1,2
		L454.2,145.5z"/>
</g>
<g>
	<path d="M239.3,133.1c-2.7-1.3-5-2.7-7.4-4.3c-2.3-1.6-4.5-3.4-6.4-5.5c-1.9-2.1-3.6-4.4-4.6-7.1c-1-2.6-1.2-5.6-0.5-8.2
		c-0.3,2.7,0.2,5.5,1.4,7.8c1.2,2.4,3,4.4,5,6.1c2,1.7,4.3,3.1,6.6,4.4c2.3,1.2,4.8,2.3,7.2,3.1L239.3,133.1z"/>
</g>
<g>
	<path d="M225.2,134.7c-3.2-1.6-6.1-3.5-8.9-5.6c-2.8-2.1-5.3-4.5-7.6-7.1c-2.2-2.6-4.1-5.6-5.4-8.8c-1.3-3.2-1.9-6.6-1.7-10
		c0.2,3.4,1.1,6.7,2.6,9.6c1.5,2.9,3.6,5.6,6,7.8c2.4,2.3,5,4.3,7.8,6c2.8,1.7,5.8,3.2,8.7,4.4L225.2,134.7z"/>
</g>
<g>
	<path d="M210.5,138.1c-3.4-3-6.6-6.1-9.8-9.4c-3.1-3.3-6.1-6.6-8.8-10.2c-2.7-3.6-5.3-7.3-7.4-11.3c-2-4-3.7-8.3-3.7-12.8
		c0.4,4.5,2.3,8.6,4.6,12.3c2.3,3.8,5.1,7.2,8,10.5c3,3.3,6.1,6.4,9.4,9.3c3.3,2.9,6.7,5.8,10.2,8.4L210.5,138.1z"/>
</g>
<g>
	<path d="M202.2,142.6c-4.5-0.5-8.7-1.4-12.9-2.7c-4.2-1.3-8.2-2.9-12.1-5c-3.8-2.1-7.4-4.6-10.6-7.5c-3.2-3-5.8-6.4-7.9-10.2
		c2.3,3.6,5.2,6.8,8.5,9.4c3.3,2.6,7,4.8,10.8,6.5c3.8,1.7,7.9,3,12,3.9s8.3,1.5,12.3,1.6L202.2,142.6z"/>
</g>
<g>
	<path d="M203.3,142.3c-1.1,0.5-2.1,0.9-3.1,1.2s-2.1,0.6-3.1,0.8c-2.1,0.4-4.2,0.7-6.3,0.7c-4.2,0.1-8.4-0.5-12.4-1.8
		c-4-1.2-7.7-3.1-11.1-5.3c-3.4-2.2-6.6-4.8-9.5-7.6c6.2,5.1,13.4,9.2,21.1,11c3.8,0.9,7.8,1.1,11.6,0.7c1.9-0.2,3.8-0.6,5.7-1.1
		c0.9-0.3,1.8-0.6,2.7-0.9s1.8-0.8,2.4-1.2L203.3,142.3z"/>
</g>
<g>
	<path d="M205.5,140.5c-3.8-2-7.5-4.2-11.1-6.4c-3.6-2.2-7.2-4.6-10.7-7c-3.5-2.5-6.8-5.1-9.9-8.1c-1.5-1.5-3-3.1-4.1-4.9
		c-0.6-0.9-1.1-1.9-1.4-2.9c-0.3-1-0.5-2.1-0.2-3.2c-0.3,2.1,0.8,4.1,2.1,5.8c1.3,1.7,2.8,3.1,4.4,4.5c3.2,2.7,6.7,5,10.3,7.2
		s7.3,4.2,11,6.1c3.7,1.9,7.6,3.7,11.4,5.4L205.5,140.5z"/>
</g>
<g>
	<path d="M198.1,143.3c4-2.8,8.3-5.2,12.8-7.3s9.1-3.9,13.9-5.2c4.8-1.3,9.8-2.2,14.8-2.3c0.6,0,1.3,0,1.9,0h0.5h0.5l0.9,0.1
		l3.7,0.2c2.4,0.2,4.9,0.4,7.3,0.6c4.9,0.5,9.7,1.1,14.6,1.9c4.8,0.8,9.7,1.6,14.5,2.6c9.6,2,19.2,3.9,28.6,7h-0.5
		c6.4-2.3,12.801-4.1,19.4-5.5c6.5-1.5,13.2-2.6,19.9-3.4c6.699-0.8,13.399-1.1,20.1-1.2c6.7-0.1,13.5,0,20.2,0.6
		c13.399,1.1,26.7,3.5,39.7,7.1c12.899,3.6,25.5,8.4,37.5,14.3l-0.2,0.4c-3.101-1.1-6.3-2.3-9.4-3.3c-3.2-1-6.3-2.1-9.5-3
		c-6.399-1.9-12.8-3.6-19.2-5.1c-12.899-3-26-5-39.199-6.1c-6.601-0.5-13.2-0.9-19.801-0.9c-6.6-0.1-13.199,0.2-19.8,0.7
		c-6.6,0.5-13.2,1.2-19.7,2.3c-3.3,0.5-6.5,1.2-9.8,1.9c-3.2,0.7-6.5,1.5-9.6,2.6l-0.2,0.1l-0.2-0.1c-9.1-3.3-18.8-5.2-28.4-6.4
		c-4.8-0.6-9.7-1.1-14.5-1.6l-14.5-1.3l-7.3-0.6l-3.6-0.3l-0.9-0.1h-0.4h-0.4c-0.6,0-1.2,0-1.8,0c-4.7,0-9.5,0.6-14.1,1.7
		c-9.4,2.1-18.5,5.6-27.2,10L198.1,143.3z"/>
</g>
<line fill="none" stroke="#000000" stroke-miterlimit="10" x1="492.2" y1="243.5" x2="488.4" y2="232.2"/>
<line fill="none" stroke="#000000" stroke-miterlimit="10" x1="623.5" y1="226" x2="621.6" y2="217.5"/>
<path fill="none" stroke="#000000" stroke-miterlimit="10" d="M583.5,115.4c0,0,55.3,93.4,38,102.2"/>
</svg>
