<?xml version="1.0" encoding="utf-8"?>
<!-- Generator: Adobe Illustrator 15.0.0, SVG Export Plug-In . SVG Version: 6.00 Build 0)  -->
<!DOCTYPE svg PUBLIC "-//W3C//DTD SVG 1.1//EN" "http://www.w3.org/Graphics/SVG/1.1/DTD/svg11.dtd">
<svg version="1.1" id="Layer_1" xmlns="http://www.w3.org/2000/svg" xmlns:xlink="http://www.w3.org/1999/xlink" x="0px" y="0px"
	 width="822px" height="567px" viewBox="0 0 822 567" enable-background="new 0 0 822 567" xml:space="preserve">
<path fill="#FFFFFF" stroke="#000000" stroke-miterlimit="10" d="M153.8,371.9L153.8,371.9c-0.5-1.101-1-2.2-1.4-3.301h0.1
	c0,0,0.9-0.3,2.2-0.699c1.3-0.4,3.1-1.4,2.8-2.5c-0.3-1.2-2.4-1.4-3.7-1c-1.3,0.399-2.2,0.699-2.2,0.699h-0.1
	c-0.3-1.199-0.5-2.3-0.6-3.5h0.1l13.1-4c0.9-0.3,3.3-1.899,3.7-2.6c0.4-0.6,0.6-0.9,0.7-1.5s0.1-0.9,0-1.7c0-0.8-1.5-3.399-2.1-4.1
	l-9.8-9.8l0,0c0.6-1,1.4-1.9,2.1-2.801l0.1,0.101c0,0,0.7,0.7,1.7,1.7s4.2,3.399,5,2.5c0.8-0.9-1.6-4.2-2.6-5.101
	c-1-1-1.7-1.7-1.7-1.7l-0.1-0.1c0.8-0.8,1.7-1.6,2.6-2.3l0,0l9.8,9.8c0.7,0.7,3.2,2.1,4,2c0.7,0.1,1,0.1,1.6-0.1
	c0.6-0.2,0.8-0.301,1.4-0.801c0.7-0.399,2.1-3,2.3-4l3.2-13.8v-0.1c1.1,0.1,2.3,0.3,3.4,0.5v0.2c0,0-0.2,1-0.5,2.3
	c-0.3,1.399-0.1,4.3,1.1,4.6c1.1,0.3,2-2.3,2.3-3.7c0.3-1.399,0.5-2.3,0.5-2.3l0.1-0.1c1.1,0.3,2.2,0.7,3.2,1.2l0,0l-3.2,13.8
	c-0.2,0.899-0.1,3.899,0.3,4.6c0.3,0.7,0.4,1,0.9,1.4c0.4,0.399,0.7,0.6,1.4,0.8c0.7,0.4,3.6,0.4,4.4,0.1l13.1-4l0,0
	c0.5,1.101,0.9,2.2,1.3,3.301h-0.1c0,0-0.9,0.3-2.2,0.699c-1.3,0.4-3.9,1.301-3.6,2.5c0.3,1.2,3.3,1.4,4.6,1
	c1.3-0.399,2.2-0.699,2.2-0.699h0.1c0.3,1.199,0.5,2.3,0.6,3.5l0,0l-13.1,4c-0.9,0.3-3.3,1.899-3.7,2.6c-0.4,0.6-0.6,0.9-0.7,1.5
	s-0.1,0.9,0,1.7c0,0.8,1.5,3.399,2.1,4l0,0l9.8,9.8l0,0c-0.6,1-1.4,1.9-2.1,2.8l-0.1-0.1c0,0-0.7-0.7-1.7-1.7s-3.2-1.9-4-1
	c-0.8,0.9,0.6,2.7,1.6,3.7s1.7,1.7,1.7,1.7l0.1,0.1c-0.8,0.8-1.7,1.6-2.6,2.3l0,0l-9.8-9.8c-0.7-0.6-3.2-2.1-4-2
	c-0.7-0.1-1-0.1-1.6,0.1c-0.6,0.2-0.8,0.301-1.4,0.801c-0.7,0.399-2.1,3-2.3,3.899l-3.2,13.8l0,0c-1.1-0.1-2.3-0.3-3.4-0.5V390.4
	c0,0,0.2-1,0.5-2.301c0.3-1.399,0.4-3.8-0.7-4.1c-1.1-0.3-2.3,1.9-2.6,3.3c-0.3,1.4-0.5,2.3-0.5,2.3l-0.1,0.101
	c-1.1-0.3-2.2-0.7-3.2-1.2l0,0l3.2-13.8c0.2-0.9,0.1-3.9-0.3-4.601c-0.3-0.699-0.4-1-0.9-1.399c-0.4-0.4-0.7-0.601-1.4-0.8
	c-0.6-0.4-3.5-0.4-4.4-0.101L153.8,371.9z M170.3,363.1c1.1-0.3,2-0.6,2.2-0.699c1.2,2.8,3.4,5,6.3,6.199c0,0.2-0.3,1.101-0.5,2.301
	c-0.3,1.399,0,3.399,1.2,3.699c1.1,0.301,1.9-1.5,2.2-2.8c0.3-1.3,0.5-2.2,0.5-2.3c3,0.3,6-0.7,8.3-2.5c0.1,0.1,0.8,0.8,1.6,1.6
	c1,1,3.3,2.101,4.1,1.2c0.8-0.899-0.7-2.8-1.7-3.8c-0.9-0.9-1.5-1.5-1.6-1.6c0.8-1.2,1.5-2.601,1.8-4.2c0.4-1.5,0.4-3.101,0.2-4.601
	c0.1,0,1-0.3,2.2-0.699c1.3-0.4,3-0.9,2.6-2.101c-0.3-1.2-2.3-1.8-3.6-1.399c-1.2,0.399-2,0.6-2.2,0.699c-1.2-2.8-3.4-5-6.2-6.199
	c0-0.2,0.3-1.101,0.5-2.301c0.3-1.399,0.3-3.899-0.8-4.199c-1.1-0.301-2.3,2-2.6,3.3c-0.3,1.3-0.5,2.2-0.5,2.3c-3-0.3-6,0.7-8.3,2.5
	l0,0c-0.1-0.1-0.8-0.8-1.6-1.7c-1-1-3-1.899-3.8-1.1c-0.8,0.899,0.4,2.7,1.4,3.7c0.9,0.899,1.5,1.5,1.6,1.6
	c-0.8,1.2-1.5,2.6-1.8,4.2c-0.4,1.6-0.4,3.1-0.2,4.6c-0.2,0-1,0.3-2.2,0.7c-1.3,0.4-4.5,1.7-4.1,2.9
	C165.5,363.7,169,363.5,170.3,363.1z"/>
<path fill="#FFFFFF" stroke="#000000" stroke-miterlimit="10" d="M107.2,162.3c0.1,0,0.1,0,0.2,0c2.8-0.3,5.8-0.5,8.8-0.7
	c0.9-0.1,1.7-0.1,2.6-0.2c7-0.5,14.5-1,22.5-1.4c27.7-1.6,60.6-2.6,93.6-3.4v0.1l9.1-0.2v-0.1c43.9-0.9,87-1.3,116.8-1.3
	c12.4,0,25.601,0.4,38.8,1.4c9.101,0.7,18.101,1.6,26.9,2.8c22.1,3,42.3,7.9,56,15.1l-11.1,4.8c-9.5-4.3-21.301-7.8-34.601-10.5
	c-9.3-2.3-18.899-3.4-26.7-4.2c-14.899-1.7-30.899-2.7-47.399-2.9c-43-0.5-139.3-0.4-227,4c-11.6,0.3-25.9,1.9-27.6,2L107.2,162.3
	L107.2,162.3z"/>
<path fill="#FFFFFF" stroke="#000000" stroke-miterlimit="10" d="M147.9,357.3c0-20.399,15.8-36.899,35.3-36.899
	s35.3,16.5,35.3,36.899c0,20.4-15.8,36.9-35.3,36.9S147.9,377.7,147.9,357.3z M185.8,323.3c-8.2-0.7-16.1,1.9-22.3,6.8
	c-0.9,0.7-1.8,1.5-2.6,2.301c-0.9,0.8-1.7,1.699-2.4,2.6s-1.4,1.8-2.1,2.8c-2.2,3.3-3.9,7.101-4.8,11.3c-1,4.2-1.2,8.301-0.7,12.4
	c0.1,1.2,0.3,2.4,0.6,3.5c0.3,1.2,0.6,2.4,1,3.5s0.8,2.2,1.3,3.3c3.4,7.399,9.3,13.5,16.8,16.8c1,0.5,2.1,0.9,3.2,1.2
	c0.6,0.2,1.1,0.3,1.7,0.5c0.6,0.101,1.1,0.3,1.7,0.399c1.1,0.201,2.3,0.4,3.4,0.5c8.2,0.701,16.1-1.899,22.3-6.799
	c0.9-0.701,1.8-1.5,2.6-2.301c0.9-0.8,1.6-1.699,2.4-2.6c0.7-0.9,1.4-1.8,2.1-2.8c2.2-3.3,3.9-7.101,4.8-11.3
	c1-4.2,1.2-8.301,0.7-12.301c-0.1-1.199-0.3-2.399-0.6-3.5c-0.3-1.199-0.6-2.399-1-3.5c-0.4-1.1-0.8-2.199-1.3-3.3
	c-3.4-7.399-9.3-13.5-16.8-16.8c-1-0.5-2.1-0.9-3.2-1.2c-0.6-0.2-1.1-0.3-1.7-0.5c-0.6-0.1-1.1-0.3-1.7-0.399
	C188.1,323.5,187,323.4,185.8,323.3z"/>
<path fill="#FFFFFF" stroke="#000000" stroke-miterlimit="10" d="M676.4,346c0.399,1.1,0.699,2.3,1,3.5h-0.2c0,0-0.9,0.3-2.2,0.7
	c-1.3,0.399-4.5,0.3-4.8-0.9s2.5-2.2,3.8-2.6c1.3-0.4,2.2-0.7,2.2-0.7H676.4z"/>
<path fill="#FFFFFF" stroke="#000000" stroke-miterlimit="10" d="M67.1,279.6l0.4-14.5l0.4-15.3c0-3.1,1.4-8,2.7-10.8l150.4,1.5h4
	c-4.3,14.7-3.8,19.2-3.8,26.6c0,7.7,0.6,17.4,10.4,27.7c9.8,10.3,30.7,27.101,28.9,73.5h114.3h184.3
	c11.7-30.899,9.801-109.5-0.6-119.8h12.2v0.2c13,5.1,28.3,4.4,50,7.6c21.7,3.1,110.899,19.6,123.5,28.7v0.3c-0.7,0-1.3,0-1.8,0
	s-1.101,0-1.601,0.101c-3.3,0.199-5.2,1.399-6.899,4.399c-3.301,6-5.101,11.8-6.9,17.5c-10.3,0-18,0-19,0c-3.6,0-7.3,1.5-9.4,3
	l-0.3,0.2C684.4,293,664,285,645.8,285c-46.1,0-77.899,36.4-71.3,90.4c-7,0.3-16,2.6-16,2.6H260.6l-9.2,0.4
	c6.3-66.601-32.6-91.101-67.6-91.101c-15,0-30.3,4-42.9,13.7l-0.4-0.5c-4.6-1.8-10.5-3.8-13.2-3.8l-94.6-0.2h33.9L67.1,279.6z
	 M592.9,285.3c0-1.1-0.4-2.2-1.2-2.9c-0.7-0.8-1.7-1.2-2.8-1.2H579.8c-2.2,0-4,1.9-4,4.1c0,2.3,1.8,4.2,4,4.2h9.101
	C591.1,289.4,592.9,287.6,592.9,285.3z"/>
<path fill="#FFFFFF" stroke="#000000" stroke-miterlimit="10" d="M646.7,345c0.6,0,1.2,0.1,1.7,0.3c0.6,0.2,1.1,0.3,1.699,0.601
	c2.801,1.199,5,3.5,6.2,6.199c0.5,1.101,0.8,2.301,1,3.5c0.2,1.5,0.101,3-0.2,4.601c-0.399,1.6-1,3-1.8,4.2
	c-0.7,1-1.5,1.899-2.399,2.6c-2.301,1.9-5.301,2.8-8.301,2.5c-0.6,0-1.1-0.2-1.699-0.3c-0.601-0.2-1.101-0.3-1.7-0.601
	c-2.8-1.199-5-3.5-6.2-6.199c-0.5-1.101-0.8-2.301-1-3.5c-0.2-1.5-0.1-3,0.2-4.601c0.399-1.5,1-3,1.8-4.2c0.7-1,1.5-1.899,2.4-2.6
	C640.7,345.7,643.7,344.7,646.7,345z M653.5,359.3c1.1-4.5-1.6-9.1-5.9-10.2c-4.3-1.1-8.699,1.7-9.699,6.2s1.6,9.101,5.899,10.2
	S652.4,363.8,653.5,359.3z"/>
<path fill="#FFFFFF" stroke="#000000" stroke-miterlimit="10" d="M645.7,394.2c-19.5,0-35.3-16.5-35.3-36.9
	c0-20.399,15.8-36.899,35.3-36.899S681,336.9,681,357.3C681,377.7,665.2,394.2,645.7,394.2z M613.9,365.1c0.3,1.2,0.6,2.4,1,3.5
	c0.399,1.101,0.8,2.2,1.3,3.301c3.399,7.399,9.3,13.5,16.8,16.8c1,0.5,2.1,0.899,3.2,1.2c0.5,0.199,1.1,0.3,1.7,0.5
	c0.6,0.1,1.1,0.3,1.699,0.399c1.101,0.2,2.301,0.4,3.4,0.5c8.2,0.7,16.1-1.899,22.3-6.8c0.9-0.7,1.8-1.5,2.601-2.3
	c0.8-0.8,1.699-1.7,2.399-2.601c0.7-0.899,1.4-1.899,2.101-2.8c2.199-3.3,3.899-7.1,4.8-11.3c1-4.2,1.2-8.3,0.7-12.3
	c-0.101-1.2-0.4-2.4-0.601-3.5c-0.3-1.2-0.6-2.4-1-3.5c-0.399-1.101-0.8-2.2-1.3-3.3c-3.4-7.4-9.3-13.5-16.8-16.801
	c-1-0.5-2.101-0.899-3.2-1.199c-0.6-0.2-1.1-0.301-1.7-0.5c-0.6-0.101-1.1-0.301-1.7-0.4c-1.1-0.2-2.3-0.4-3.399-0.5
	c-8.2-0.7-16.101,1.9-22.3,6.8c-0.9,0.7-1.801,1.5-2.601,2.3c-0.899,0.801-1.7,1.7-2.399,2.601c-0.7,0.899-1.4,1.8-2.101,2.8
	c-2.2,3.3-3.899,7.1-4.8,11.3c-1,4.2-1.2,8.3-0.7,12.4C613.4,362.8,613.6,364,613.9,365.1z"/>
<path fill="#FFFFFF" stroke="#000000" stroke-miterlimit="10" d="M675.1,342.7L675.1,342.7l-13.1,4c-0.9,0.3-3.8,0.3-4.4-0.101
	c-0.699-0.3-0.899-0.399-1.399-0.8c-0.4-0.399-0.601-0.7-0.9-1.399c-0.399-0.7-0.5-3.7-0.3-4.601l3.2-13.8l0,0
	C665.9,329.2,671.8,335.3,675.1,342.7z"/>
<path fill="#FFFFFF" stroke="#000000" stroke-miterlimit="10" d="M656.4,352.1c-1.2-2.8-3.4-5-6.2-6.199c0-0.2,0.2-1.101,0.5-2.301
	c0.3-1.399,0.2-3.8-0.9-4c-1.1-0.3-2.1,1.801-2.5,3.2c-0.3,1.3-0.5,2.2-0.5,2.3c-3-0.3-6,0.7-8.3,2.5c-0.1-0.1-0.8-0.8-1.7-1.699
	c-1-1-3.5-1.5-4.3-0.601c-0.8,0.9,0.9,2.3,1.9,3.3c0.899,0.9,1.5,1.5,1.699,1.601c-0.8,1.2-1.5,2.6-1.8,4.2
	c-0.399,1.6-0.399,3.1-0.2,4.6c-0.199,0-1,0.3-2.199,0.7c-1.301,0.399-3.4,1.2-3.101,2.399c0.3,1.2,2.8,1.5,4,1.101
	c1.2-0.3,2-0.601,2.2-0.7c1.2,2.8,3.4,5,6.2,6.2c0,0.2-0.3,1.1-0.5,2.3c-0.3,1.4-0.601,4,0.6,4.3c1.101,0.3,2.5-2,2.8-3.399
	c0.301-1.301,0.5-2.2,0.5-2.301c3,0.301,6-0.699,8.301-2.5c0.1,0.101,0.8,0.801,1.699,1.601c1,1,2.9,2,3.7,1.1
	c0.8-0.899-0.3-2.8-1.3-3.7c-0.9-0.899-1.5-1.5-1.6-1.6c0.8-1.2,1.5-2.6,1.8-4.2c0.399-1.5,0.399-3.1,0.2-4.6
	c0.199,0,1-0.3,2.199-0.7c1.301-0.4,2.801-1.3,2.5-2.4c-0.3-1.199-2.1-1.5-3.399-1.1C657.4,351.8,656.5,352.1,656.4,352.1z
	 M616.3,364.4c-1.3,0.399-2.2,0.699-2.2,0.699H614c-0.3-1.199-0.5-2.3-0.6-3.5l0,0l13.1-4c0.9-0.3,3.3-1.899,3.7-2.6
	c0.399-0.6,0.6-0.9,0.7-1.5c0.1-0.6,0.1-0.9,0-1.7c0-0.8-1.5-3.399-2.101-4.1l-9.8-9.8l0,0c0.7-1,1.4-1.9,2.1-2.801l0.101,0.101
	c0,0,0.7,0.7,1.7,1.7s3.5,3,4.3,2.199c0.8-0.899-0.9-3.8-1.9-4.8s-1.7-1.7-1.7-1.7l-0.1-0.1c0.8-0.8,1.7-1.6,2.6-2.3l0,0l9.801,9.8
	c0.699,0.7,3.199,2.1,4,2c0.699,0.1,1,0.1,1.6-0.1c0.6-0.2,0.8-0.301,1.4-0.801c0.699-0.399,2.1-3,2.3-4l3.2-13.8v-0.1
	c1.1,0.1,2.3,0.3,3.399,0.5v0.2c0,0-0.2,1-0.5,2.3c-0.3,1.399,0,3.7,1.101,4c1.1,0.3,1.899-1.8,2.3-3.2c0.3-1.4,0.5-2.3,0.5-2.3
	V324.6c1.1,0.301,2.2,0.7,3.2,1.2l0,0l-3.2,13.8c-0.2,0.9-0.101,3.9,0.3,4.601c0.3,0.7,0.4,1,0.9,1.399
	c0.399,0.4,0.699,0.601,1.399,0.801c0.7,0.399,3.601,0.399,4.4,0.1l13.1-4l0,0c0.5,1.1,0.9,2.2,1.3,3.3h-0.1c0,0-0.9,0.3-2.2,0.7
	s-4.2,1.4-3.8,2.6c0.3,1.2,3.5,1.301,4.8,0.9s2.2-0.7,2.2-0.7h0.2c0.3,1.2,0.5,2.3,0.6,3.5l0,0l-13.1,4c-0.9,0.3-3.3,1.9-3.7,2.601
	c-0.4,0.6-0.6,0.899-0.7,1.5c-0.2,0.6-0.1,0.899,0,1.699c0,0,0,0.101,0,0.2c0,0.3,0.2,0.8,0.5,1.3c0.2,0.4,0.4,0.801,0.7,1.2
	c0.3,0.601,0.7,1.101,0.9,1.4l9.8,9.8l0,0l0,0c-0.601,1-1.3,1.9-2.101,2.8l-0.1-0.1c0,0-0.7-0.7-1.7-1.7s-3.1-1.8-3.899-1
	c-0.801,0.9,0.5,2.6,1.5,3.6s1.699,1.7,1.699,1.7l0.101,0.101c-0.8,0.8-1.7,1.6-2.601,2.3l0,0l-9.8-9.8c-0.7-0.601-3.2-2.101-4-2
	c-0.7-0.101-1-0.101-1.6,0.1c-0.601,0.2-0.8,0.3-1.4,0.8c-0.6,0.4-2.1,3-2.3,3.9l-3.2,13.8l0,0c-1.1-0.1-2.3-0.3-3.399-0.5v-0.2
	c0,0,0.199-1,0.6-2.3c0.3-1.4,0.1-3.2-1-3.5s-2.1,1.3-2.4,2.7c-0.3,1.399-0.5,2.3-0.5,2.3v0.1c-1.1-0.3-2.199-0.699-3.199-1.199l0,0
	L636.6,374.6c0.2-0.899,0.101-3.899-0.3-4.6c-0.3-0.7-0.399-1-0.899-1.4c-0.4-0.399-0.7-0.6-1.4-0.8c-0.7-0.399-3.5-0.399-4.4-0.1
	l-13.1,4l0,0c-0.5-1.101-0.9-2.2-1.3-3.3h0.1c0,0,0.9-0.301,2.2-0.7c1.3-0.4,4.6-2.2,4.2-3.4C621.1,363.4,617.6,364,616.3,364.4z"/>
<path fill="#FFFFFF" stroke="#000000" stroke-miterlimit="10" d="M212.7,342.7L212.7,342.7l-13.1,4c-0.9,0.3-3.8,0.3-4.4-0.101
	c-0.7-0.3-0.9-0.399-1.4-0.8c-0.4-0.399-0.6-0.7-0.9-1.399c-0.4-0.7-0.5-3.7-0.3-4.601l3.2-13.8l0,0
	C203.4,329.2,209.3,335.3,212.7,342.7z"/>
<path fill="#FFFFFF" stroke="#000000" stroke-miterlimit="10" d="M154.8,367.9c-1.3,0.399-2.2,0.699-2.2,0.699h-0.1
	c-0.4-1.199-0.7-2.3-1-3.5h0.1c0,0,0.9-0.3,2.2-0.699c1.3-0.4,3.4-0.2,3.7,1C157.9,366.5,156.1,367.5,154.8,367.9z"/>
<path fill="#FFFFFF" stroke="#000000" stroke-miterlimit="10" d="M614.9,368.6c-0.4-1.1-0.7-2.3-1-3.5h0.1c0,0,0.9-0.3,2.2-0.699
	c1.3-0.4,4.899-1,5.2,0.1c0.3,1.2-2.9,3-4.2,3.4c-1.3,0.399-2.2,0.699-2.2,0.699H614.9z"/>
<path fill="#FFFFFF" stroke="#000000" stroke-miterlimit="10" d="M759.4,303.8c2.6,0,3.199-3.399,1.399-7.5
	c-1.8-4.1-5.399-7.5-8-7.5c-2.6,0-3.2,3.4-1.399,7.5C753.2,300.5,756.8,303.8,759.4,303.8z M763.5,296.3c1.8,4.2,5.4,7.5,8,7.5
	s3.2-3.399,1.4-7.5c-1.801-4.1-5.4-7.5-8-7.5C762.3,288.8,761.7,292.2,763.5,296.3z M751.6,307.2c0,0-2-13.7-10.699-21.601v-0.3
	c0.5,0,1-0.1,1.6-0.1c0.5,0,1.1,0,1.8,0c5.3,0,15.8,0,20.8,0c1.801,0,4.301,1.1,7.2,3c0.601,0.399,1.3,0.899,2,1.3
	c3.7,2.6,7.7,6.2,11.3,10l0.101,0.1c2.2,2.4,4.3,4.9,6,7.5C791.7,307.2,771.8,307.2,751.6,307.2z"/>
<path fill="#FFFFFF" stroke="#000000" stroke-miterlimit="10" d="M184.3,345c0.6,0,1.1,0.1,1.7,0.3s1.1,0.3,1.7,0.601
	c2.8,1.199,5,3.5,6.2,6.199c0.5,1.101,0.8,2.301,1,3.5c0.2,1.5,0.1,3-0.2,4.601c-0.4,1.6-1,3-1.8,4.2c-0.7,1-1.5,1.899-2.4,2.6
	c-2.3,1.9-5.2,2.8-8.3,2.5c-0.6,0-1.1-0.2-1.7-0.3c-0.6-0.2-1.1-0.3-1.7-0.601c-2.8-1.199-5-3.5-6.3-6.199
	c-0.5-1.101-0.8-2.301-1-3.5c-0.2-1.5-0.1-3,0.2-4.601c0.4-1.5,1-3,1.8-4.2c0.7-1,1.5-1.899,2.4-2.6l0,0
	C178.3,345.7,181.3,344.7,184.3,345z M191.1,359.3c1-4.5-1.6-9.1-5.9-10.2c-4.3-1.1-8.7,1.7-9.7,6.2c-1.1,4.5,1.6,9.101,5.9,10.2
	C185.6,366.6,190,363.8,191.1,359.3z"/>
<path fill="#FFFFFF" stroke="#000000" stroke-miterlimit="10" d="M793.5,309.3c3.9,4.101,10.8,8.4,13.9,8.5c1.1,1.9,2,3.3,2,7
	c0,5.7-0.2,11.101-1.5,21.101c0,0-1.801,0-4.801,0c-11.199,0-40.899,0-44.1,0c-3.6,0-4.6,1-4.1,4.199c0.1,0.301,0.1,0.601,0.199,0.9
	c0.2,1,0.5,2.1,1,3.4c0.4,1.1,0.9,2.3,1.4,3.5l-41.9,0.1c-1.199-20.2-7.699-35.9-17-47.4l0.301-0.199c2.1-1.601,5.699-3,9.399-3
	c1.101,0,8.8,0,19,0c7.2,0,15.9,0,24.5,0c20.2,0,40.101,0,40.101,0C792.2,307.9,792.8,308.6,793.5,309.3z M800.8,329.1
	c0.2-1.199-0.399-4.6-0.899-6.199c-0.9-2.801-2.4-3.601-5.101-3.601s-62.8,0-66.1,0s-3.9,1.4-3.3,3.601
	c0.6,2.199,3.3,4.5,5.399,6.399c2.101,1.9,3.3,2.2,6.3,2.2c2.4,0,56.2,0.1,59.5,0.1C798.5,331.6,800.5,330.9,800.8,329.1z"/>
<path fill="#FFFFFF" stroke="#000000" stroke-miterlimit="10" d="M795.6,366.7L795.6,366.7c0.801-1.4,1.4-2.7,2-4
	c0.601-1.4,1.2-2.8,1.7-4.2c0.5-1.3,0.9-2.7,1.4-4.1c0.399-1.301,0.8-2.7,1.2-4.301c0.399-1.3,0.8-2.699,1.199-4.199
	c3,0,4.801,0,4.801,0c-1.601,11.5-8,24.8-9.801,27.699c-1.8,2.9-3.199,3.801-8.1,3.801c-5,0-9.1,0-26.7,0
	c-17.6,0-27.2,1.699-39.7,4.199c-7.5,1.5-12.899-2.899-12.899-3.6l4.399,0.1c0.7-7.1,0.801-13.8,0.5-20.1l41.9-0.1
	c0.1,0.199,0.2,0.5,0.3,0.699c0.7,1.5,1.4,3,2,4.301c0.4,0.8,0.8,1.5,1.101,2.1c1.3,2.3,4.3,1.9,7.5,1.9
	C771.8,366.7,772,366.7,795.6,366.7z"/>
<path fill="#FFFFFF" stroke="#000000" stroke-miterlimit="10" d="M805.3,313.9c0.7,1.699,1.4,2.899,2.101,3.899
	c-3-0.1-9.9-4.399-13.9-8.5h9.7l0,0C804,310.8,804.7,312.3,805.3,313.9z"/>
<path fill="#FFFFFF" stroke="#000000" stroke-miterlimit="10" d="M803.3,309.3L803.3,309.3l-9.7,0.101c-0.699-0.7-1.3-1.4-1.8-2.101
	c-0.7-1.1-1.6-2.2-2.5-3.3l10.7-0.5C801.2,305.2,802.3,307.2,803.3,309.3z"/>
<path fill="#FFFFFF" stroke="#000000" stroke-miterlimit="10" d="M758.9,345.9c3.199,0,33,0,44.1,0c-0.4,1.5-0.8,2.899-1.2,4.199
	l-0.2-0.1H754.7l0,0C754.3,346.9,755.3,345.9,758.9,345.9z"/>
<path fill="#FFFFFF" stroke="#000000" stroke-miterlimit="10" d="M801.7,350l0.2,0.1c-0.4,1.5-0.801,2.9-1.2,4.301l-0.3-0.101h-44.2
	L756,354.4c-0.4-1.2-0.8-2.4-1-3.4c-0.1-0.3-0.1-0.7-0.2-0.9l0,0h46.9V350z"/>
<path fill="#FFFFFF" stroke="#000000" stroke-miterlimit="10" d="M799.9,322.9c0.5,1.6,1.1,5,0.899,6.199
	c-0.3,1.801-2.3,2.5-4.2,2.5c-3.3,0-57.1-0.1-59.5-0.1c-3,0-4.199-0.3-6.3-2.2c-2.1-1.899-4.8-4.2-5.399-6.399
	c-0.601-2.2,0-3.601,3.3-3.601s63.399,0,66.1,0S799,320,799.9,322.9z"/>
<path fill="#FFFFFF" stroke="#000000" stroke-miterlimit="10" d="M800.4,354.3l0.3,0.101c-0.4,1.399-0.9,2.8-1.4,4.1l0,0h-41.5
	l-0.1,0.1c-0.101-0.199-0.2-0.5-0.3-0.699c-0.5-1.2-1-2.301-1.4-3.5l0.2-0.101H800.4z"/>
<path fill="#FFFFFF" stroke="#000000" stroke-miterlimit="10" d="M800,303.3l-10.7,0.5c-1.1-1.399-2.3-2.8-3.6-4.1L785.6,299.6
	c-0.3-0.3-0.6-0.6-0.899-0.899l0.1-0.101l11.4-0.6l0.1-0.1C797.7,299.7,798.9,301.5,800,303.3z"/>
<path fill="#FFFFFF" stroke="#000000" stroke-miterlimit="10" d="M799.3,358.5L799.3,358.5c-0.5,1.5-1.1,2.8-1.7,4.2l0,0h-37.8
	l-0.2,0.1c-0.6-1.2-1.3-2.7-2-4.3l0.101-0.1h41.6V358.5z"/>
<path fill="#FFFFFF" stroke="#000000" stroke-miterlimit="10" d="M797.6,362.7L797.6,362.7c-0.6,1.3-1.3,2.6-2,3.899v0.101
	c-23.6,0-23.8,0-27.399,0c-3.2,0-6.3,0.5-7.5-1.9c-0.3-0.6-0.7-1.3-1.101-2.1l0.2-0.101h37.8V362.7z"/>
<path fill="#FFFFFF" stroke="#000000" stroke-miterlimit="10" d="M796.3,297.9l-0.1,0.1l-11.4,0.6l-0.1,0.101
	c-1.8-1.9-3.7-3.7-5.601-5.3l0,0l11.801-1.5C793,293.9,794.8,295.9,796.3,297.9z"/>
<path fill="#FFFFFF" stroke="#000000" stroke-miterlimit="10" d="M791,291.8l-11.8,1.5l0,0c-1.601-1.399-3.2-2.6-4.8-3.8
	c-0.7-0.5-1.301-0.9-2-1.3c4.5-1,12.1-1.7,12.1-1.7l0.3-0.4C787.1,288.1,789.1,290,791,291.8z"/>
<path fill="#FFFFFF" stroke="#000000" stroke-miterlimit="10" d="M784.8,286.2l-0.3,0.399c0,0-7.6,0.801-12.1,1.7
	c-2.9-1.8-5.5-3-7.2-3c-5.101,0-15.5,0-20.8,0V285c-12.7-9.2-101.801-25.6-123.5-28.7c-21.801-3.2-37.101-2.5-50-7.6v-0.2h0.699
	c6.5,2.8,19.601,1.7,31.5-2.2c4-1.3,7.801-2.9,11.2-4.8c82.5,9.9,150.7,28.4,169.7,44C784.3,285.7,784.5,285.9,784.8,286.2z"/>
<path fill="#FFFFFF" stroke="#000000" stroke-miterlimit="10" d="M772.9,296.3c1.8,4.2,1.199,7.5-1.4,7.5s-6.2-3.399-8-7.5
	c-1.8-4.1-1.2-7.5,1.4-7.5C767.5,288.8,771.1,292.2,772.9,296.3z"/>
<path fill="#FFFFFF" stroke="#000000" stroke-miterlimit="10" d="M760.7,296.3c1.8,4.2,1.2,7.5-1.4,7.5c-2.6,0-6.2-3.399-8-7.5
	c-1.8-4.1-1.2-7.5,1.4-7.5C755.3,288.8,758.9,292.2,760.7,296.3z"/>
<path fill="#FFFFFF" stroke="#000000" stroke-miterlimit="10" d="M751.6,307.2c-8.6,0-17.3,0-24.5,0c1.801-5.7,3.601-11.5,6.9-17.5
	c1.7-3,3.6-4.101,6.9-4.4v0.3C749.7,293.5,751.6,307.2,751.6,307.2z"/>
<path fill="#FFFFFF" stroke="#000000" stroke-miterlimit="10" d="M715.5,357.9c0.4,6.3,0.2,15.899-0.5,23.1l-4.4-3.1
	c0-4.801,0-13,0-20c0-43.601-35.8-68.301-64.8-68.301c-35.899,0-66.1,27.2-66.1,65.4c0,8.5-0.2,11.9-0.5,20.1v0.301l-4.7-0.101
	c-6.7-54,25.2-90.399,71.3-90.399c18.2,0,38.601,8,52.601,25.399C707.8,322,714.3,337.7,715.5,357.9z"/>
<path fill="#FFFFFF" stroke="#000000" stroke-miterlimit="10" d="M710.6,357.9c0,7,0,15.199,0,20L697.2,377.6l-0.3-0.1
	c2.3-6.3,3.6-13.2,3.6-20.4c0-31.8-24.7-57.6-55.1-57.6c-30.4,0-55.101,25.8-55.101,57.6c0,6.5,1,12.7,2.9,18.5l-0.7,0.101
	l-13.2-0.2v-0.3c0.3-8.2,0.5-11.7,0.5-20.101C579.8,316.9,610,289.7,645.9,289.7C674.9,289.7,710.6,314.4,710.6,357.9z"/>
<path fill="#FFFFFF" stroke="#000000" stroke-miterlimit="10" d="M700.5,357.1c0,7.2-1.3,14.101-3.6,20.4
	c-7.9,21.7-28,37.2-51.5,37.2c-24.301,0-44.9-16.4-52.2-39.101c-1.9-5.8-2.9-12-2.9-18.5c0-31.8,24.7-57.6,55.101-57.6
	C675.8,299.5,700.5,325.3,700.5,357.1z M681,357.3c0-20.399-15.8-36.899-35.3-36.899s-35.3,16.5-35.3,36.899
	c0,20.4,15.8,36.9,35.3,36.9S681,377.7,681,357.3z"/>
<path fill="#FFFFFF" stroke="#000000" stroke-miterlimit="10" d="M678,353c0.5,4,0.3,8.2-0.7,12.3c-1,4.2-2.6,8-4.8,11.3l0,0l0,0
	l-9.8-9.8c-0.3-0.2-0.601-0.8-1-1.399c-0.2-0.4-0.5-0.801-0.7-1.2c-0.2-0.5-0.4-1-0.5-1.3c0-0.101,0-0.101,0-0.2
	c-0.1-0.8-0.1-1,0-1.7c0.1-0.6,0.3-0.9,0.7-1.5c0.399-0.7,2.8-2.3,3.7-2.6L678,353L678,353z"/>
<path fill="#FFFFFF" stroke="#000000" stroke-miterlimit="10" d="M670.3,379.4l0.101,0.1c-0.801,0.9-1.601,1.8-2.4,2.6l-0.1-0.1
	c0,0-0.7-0.7-1.7-1.7s-2.3-2.7-1.5-3.6c0.8-0.9,2.899,0,3.899,1S670.3,379.4,670.3,379.4z"/>
<path fill="#FFFFFF" stroke="#000000" stroke-miterlimit="10" d="M665.4,384.4L665.4,384.4c-6.2,5-14.101,7.6-22.301,6.899l0,0
	l3.2-13.8c0.2-0.9,1.601-3.5,2.3-3.9c0.601-0.5,0.801-0.6,1.4-0.8s0.9-0.2,1.6-0.1c0.801,0,3.301,1.399,4,2L665.4,384.4z"/>
<path fill="#FFFFFF" stroke="#000000" stroke-miterlimit="10" d="M662,352.5c0.3,1.2-1.2,2-2.5,2.4c-1.1,0.399-2,0.6-2.2,0.699
	c-0.2-1.199-0.5-2.399-1-3.5c0.2,0,1-0.3,2.2-0.699C659.8,351.1,661.6,351.4,662,352.5z"/>
<path fill="#FFFFFF" stroke="#000000" stroke-miterlimit="10" d="M656.9,366c1,1,2.1,2.9,1.3,3.7c-0.8,0.899-2.7-0.101-3.7-1.101
	c-0.9-0.899-1.5-1.5-1.7-1.6c0.9-0.7,1.7-1.6,2.4-2.6C655.4,364.5,656.1,365.2,656.9,366z"/>
<path fill="#FFFFFF" stroke="#000000" stroke-miterlimit="10" d="M655.1,324.7v0.1c0,0-0.199,1-0.5,2.3c-0.3,1.4-1.1,3.4-2.3,3.2
	c-1.1-0.3-1.5-2.6-1.1-4c0.3-1.399,0.5-2.3,0.5-2.3v-0.2c0.6,0.101,1.1,0.2,1.7,0.4C653.9,324.3,654.5,324.5,655.1,324.7z"/>
<path fill="#FFFFFF" stroke="#000000" stroke-miterlimit="10" d="M647.6,349.1c4.301,1.101,7,5.7,5.9,10.2c-1,4.5-5.4,7.3-9.7,6.2
	s-7-5.7-5.899-10.2C638.9,350.8,643.2,348,647.6,349.1z M650.3,358.5c0.601-2.7-0.899-5.4-3.5-6c-2.6-0.6-5.1,1-5.8,3.7
	c-0.6,2.7,1,5.399,3.5,6C647.1,362.8,649.7,361.1,650.3,358.5z"/>
<path fill="#FFFFFF" stroke="#000000" stroke-miterlimit="10" d="M649.7,339.5c1.1,0.3,1.2,2.7,0.899,4c-0.3,1.3-0.5,2.2-0.5,2.3
	c-0.5-0.2-1.1-0.399-1.699-0.6c-0.601-0.101-1.2-0.3-1.7-0.3c0-0.101,0.3-1,0.5-2.301C647.6,341.3,648.6,339.3,649.7,339.5z"/>
<path fill="#FFFFFF" stroke="#000000" stroke-miterlimit="10" d="M646.8,352.5c2.601,0.7,4.101,3.3,3.5,6c-0.6,2.7-3.2,4.3-5.8,3.7
	c-2.6-0.601-4.1-3.3-3.5-6C641.7,353.5,644.2,351.8,646.8,352.5z"/>
<path fill="#FFFFFF" stroke="#000000" stroke-miterlimit="10" d="M648.3,323.3L648.3,323.3l-3.2,13.9c-0.199,0.899-1.6,3.6-2.3,4
	c-0.6,0.5-0.8,0.6-1.399,0.8c-0.601,0.2-0.9,0.2-1.601,0.1c-0.8,0-3.3-1.399-4-2l-9.8-9.8l0,0C632.2,325.2,640.1,322.6,648.3,323.3z
	"/>
<path fill="#FFFFFF" stroke="#000000" stroke-miterlimit="10" d="M644.6,369.6c0,0.101-0.3,1.101-0.5,2.301
	c-0.3,1.399-1.699,3.699-2.8,3.399c-1.1-0.3-0.899-2.899-0.6-4.3c0.3-1.2,0.5-2.1,0.5-2.3c0.5,0.2,1.1,0.399,1.7,0.6
	C643.4,369.4,644,369.5,644.6,369.6z"/>
<path fill="#FFFFFF" stroke="#000000" stroke-miterlimit="10" d="M639.2,384.8c1.1,0.3,1.3,2.2,1,3.5c-0.3,1.4-0.601,2.3-0.601,2.3
	v0.2c-0.6-0.1-1.1-0.2-1.699-0.399c-0.601-0.2-1.101-0.301-1.7-0.5V389.8c0,0,0.2-1,0.5-2.3C637.2,386.1,638.1,384.5,639.2,384.8z"
	/>
<path fill="#FFFFFF" stroke="#000000" stroke-miterlimit="10" d="M636.8,345.9c0.9,0.899,1.5,1.6,1.7,1.699
	c-0.9,0.7-1.7,1.601-2.4,2.601c-0.1-0.101-0.8-0.8-1.699-1.601c-1-1-2.7-2.399-1.9-3.3C633.3,344.4,635.8,344.9,636.8,345.9z"/>
<path fill="#FFFFFF" stroke="#000000" stroke-miterlimit="10" d="M636,370.3c0.4,0.7,0.5,3.7,0.3,4.601l-3.2,13.8l0,0
	c-7.6-3.3-13.399-9.4-16.8-16.8l0,0l13.101-4c0.899-0.301,3.8-0.301,4.399,0.1c0.7,0.3,0.9,0.4,1.4,0.8
	C635.5,369.3,635.6,369.6,636,370.3z"/>
<path fill="#FFFFFF" stroke="#000000" stroke-miterlimit="10" d="M635,362.5c-0.1,0-1,0.3-2.2,0.7c-1.3,0.399-3.7,0.1-4-1.101
	c-0.3-1.199,1.8-2,3.101-2.399c1.199-0.4,2-0.601,2.199-0.7C634.1,360.2,634.5,361.4,635,362.5z"/>
<path fill="#FFFFFF" stroke="#000000" stroke-miterlimit="10" d="M630.8,351.9c0.101,0.8,0.101,1,0,1.699
	c-0.2,0.601-0.3,0.9-0.7,1.5c-0.399,0.7-2.8,2.301-3.699,2.601l-13.101,4l0,0c-0.5-4-0.3-8.2,0.7-12.4s2.6-8,4.8-11.3l0,0l9.8,9.8
	C629.3,348.5,630.8,351.1,630.8,351.9z"/>
<path fill="#FFFFFF" stroke="#000000" stroke-miterlimit="10" d="M625.1,334.2c1,1,2.7,3.899,1.9,4.8s-3.3-1.2-4.3-2.2
	s-1.7-1.7-1.7-1.7l-0.1-0.1c0.8-0.9,1.6-1.8,2.399-2.6l0.101,0.1C623.4,332.6,624.1,333.3,625.1,334.2z"/>
<path fill="#FFFFFF" stroke="#000000" stroke-miterlimit="10" d="M602.9,245.9l0.1,0.3c-11.9,3.9-25,5-31.5,2.2
	c-22.7-20-66.3-54.8-100.1-69V179l11.1-4.8C533.4,196.7,584,231.2,602.9,245.9z"/>
<path fill="#FFFFFF" stroke="#000000" stroke-miterlimit="10" d="M591.7,282.4c0.7,0.7,1.2,1.8,1.2,2.9c0,2.3-1.801,4.2-4,4.2H579.8
	c-2.2,0-4-1.9-4-4.2s1.8-4.1,4-4.1h9.101C590,281.2,591,281.6,591.7,282.4z"/>
<path fill="#FFFFFF" stroke="#000000" stroke-miterlimit="10" d="M571.5,248.5h-0.7h-12.2c0.2-0.6-23.3-22.7-36.699-32.7
	C499.1,198.7,478,186.2,463.8,181.4c-23.7-7.9-48.5-13.2-92.5-13.6H366.4H364.3H356c-40.2,0.4-113-0.1-113.7-0.1l0,0l0,0l-7.5,0.2
	l-4.2,0.1c-30.2,0-61.7,1.4-85.7,2.8c-24,1.4-40.5,2.8-40.8,2.8l4.1-5.9c1.7-0.1,15.9-1.7,27.6-2c87.7-4.4,184-4.5,227-4
	c16.5,0.2,32.5,1.1,47.4,2.9c7.8,0.8,17.399,1.9,26.7,4.2c13.3,2.7,25,6.2,34.6,10.5v0.4C505.1,193.7,548.8,228.5,571.5,248.5z"/>
<path fill="#FFFFFF" stroke="#000000" stroke-miterlimit="10" d="M558.6,248.5c10.4,10.3,12.301,88.9,0.601,119.8H374.9V367.9
	c7.199-19.601,9.1-96.101,1.6-124.3l10,0.3l135.8,4.7C522.3,248.6,558.4,249,558.6,248.5z M414.9,271v-3.1c0-0.4-0.301-0.7-0.7-0.7
	h-2.5c-0.2-3.6-3-6.5-6.4-6.5h-7.5c-3.399,0-6.2,2.9-6.399,6.5H385.1c-0.399,0-0.699,0.3-0.699,0.7v3.1c0,0.4,0.3,0.7,0.699,0.7
	h6.301c0.199,3.6,3,6.5,6.399,6.5h7.5c3.4,0,6.2-2.9,6.4-6.5h2.5C414.6,271.7,414.9,271.4,414.9,271z"/>
<path fill="#FFFFFF" stroke="#000000" stroke-miterlimit="10" d="M527.8,229.5c-3.399-4.4-7.899-8.3-7.899-8.3l-0.101-2.9
	c-22.3-16.7-43-29-56.8-33.5c-23.2-7.7-47.4-12.9-90-13.4c0.7,3.3,14.3,67.1,14.8,69.1c2.101,0.1,130.4,4.5,133.2,4.6l-0.1-1.4
	c3.6,0.3,9.399-3.8,9.399-3.8C533.1,237.8,530.9,233.5,527.8,229.5z M521.9,215.8C535.3,225.9,558.8,248,558.6,248.5
	c-0.199,0.5-36.3,0.1-36.3,0.1l-135.8-4.7l-10-0.3c-0.1-0.5-0.3-1-0.4-1.4l-12-74v-0.4h2.101h4.899c44,0.4,68.801,5.7,92.5,13.6
	C478,186.1,499.2,198.6,521.9,215.8z"/>
<path fill="#FFFFFF" stroke="#000000" stroke-miterlimit="10" d="M527.8,229.5c3.101,4,5.3,8.3,2.4,10.4c0,0-5.7,4.2-9.4,3.8
	c-2.7-1.1-4.8-2.3-6.5-3.6c6.2,1.9,7-2.8,7-2.8C522.9,228.8,527.1,229.4,527.8,229.5z"/>
<path fill="#FFFFFF" stroke="#000000" stroke-miterlimit="10" d="M527.8,229.5c-0.7-0.2-4.899-0.7-6.399,7.9c0,0-0.801,4.7-7,2.8
	c-7-5.2-6-11.1-6-11.1c0.8-7.3,11.5-7.8,11.5-7.8S524.4,225.1,527.8,229.5z"/>
<path fill="#FFFFFF" stroke="#000000" stroke-miterlimit="10" d="M514.4,240.1c1.699,1.3,3.8,2.5,6.5,3.6l0.1,1.4
	c-2.9-0.1-131.2-4.5-133.2-4.6c-0.399-2-14.1-65.9-14.8-69.1c42.6,0.5,66.9,5.7,90,13.4c13.8,4.6,34.5,16.8,56.8,33.5l0.101,2.9
	c0,0-10.7,0.5-11.5,7.8C508.4,229,507.4,234.9,514.4,240.1z"/>
<path fill="#FFFFFF" stroke="#000000" stroke-miterlimit="10" d="M426.4,159.1v0.2c-8.801-1.2-17.801-2.1-26.9-2.8l0,0
	c-4.2-2.3-8.9-4.6-18.9-5c-29.8-1.3-67.899-0.2-136.7-0.2v0.2c-3.1,0.1-6.1,0.1-9.1,0.1c-29.1,0.4-46.2,1.9-64.3,2.8
	c-12.1,0.6-22.9,1.6-29.2,5.4v0.2c-8,0.4-15.5,0.9-22.5,1.4l0,0c5.3-7.3,16.9-9.3,33.3-10.6c9.9-0.7,65.6-3.9,120.7-4.2
	c56.601-0.4,95.5-0.8,118.601,1.5C404.6,149.4,416.2,151.7,426.4,159.1z"/>
<path fill="#FFFFFF" stroke="#000000" stroke-miterlimit="10" d="M391.5,271.7h-6.3c-0.4,0-0.7-0.3-0.7-0.7v-3.1
	c0-0.4,0.3-0.7,0.7-0.7h6.3h20.2h2.5c0.399,0,0.7,0.3,0.7,0.7v3.1c0,0.4-0.301,0.7-0.7,0.7h-2.5H391.5z"/>
<path fill="#FFFFFF" stroke="#000000" stroke-miterlimit="10" d="M411.7,267.2h-20.2c0.2-3.6,3-6.5,6.4-6.5h7.5
	C408.8,260.7,411.6,263.6,411.7,267.2z"/>
<path fill="#FFFFFF" stroke="#000000" stroke-miterlimit="10" d="M391.5,271.7h20.2c-0.2,3.6-3,6.5-6.4,6.5h-7.5
	C394.4,278.2,391.7,275.3,391.5,271.7z"/>
<path fill="#FFFFFF" stroke="#000000" stroke-miterlimit="10" d="M376.5,243.6c7.5,28.2,5.6,104.7-1.6,124.3v0.399H260.6
	c1.8-46.399-19-63.1-28.9-73.5c-9.8-10.3-10.4-20-10.4-27.7c0-7.5-0.6-11.9,3.8-26.6l13,0.1c41.2,0.4,83.1,1.2,124.5,2.5l13.5,0.4
	L376.5,243.6z M259.4,267.9v-3.1c0-0.4-0.3-0.7-0.7-0.7H256v-0.3c0-3.8-2.6-6.2-6.2-6.2h-7.5c-3.4,0-6.2,2.9-6.4,6.5h-6.3
	c-0.4,0-0.7,0.3-0.7,0.7v3.1c0,0.4,0.3,0.7,0.7,0.7h6.3c0.2,3.6,3,6.5,6.4,6.5h7.5c3.4,0,6.2-2.9,6.4-6.5h2.5
	C259.1,268.6,259.4,268.3,259.4,267.9z"/>
<path fill="#FFFFFF" stroke="#000000" stroke-miterlimit="10" d="M376.5,243.6h-0.4l-13.5-0.4c-41.5-1.3-83.399-2.1-124.5-2.5
	l-13-0.1c0.2-0.6,0.4-1.1,0.5-1.8l9-70.2v-0.7l7.5-0.2l0,0l0,0c0.7,0,73.5,0.5,113.7,0.1h8.3v0.4l12,74
	C376.3,242.6,376.4,243.1,376.5,243.6z M361.1,239.6l-6.5-68.3c-37.699,0.4-103.2-0.1-112.399-0.1c-0.2,1.3-6.2,50.2-6.2,50.3
	c0,0.3,0.7,13.4,0.9,15.5C277.3,237.4,320.5,238.4,361.1,239.6z"/>
<path fill="#FFFFFF" stroke="#000000" stroke-miterlimit="10" d="M354.6,171.4l6.5,68.3c-40.6-1.2-83.899-2.3-124.1-2.6
	c-0.2-2.1-0.9-15.2-0.9-15.5c0-0.1,6-49,6.2-50.3C251.4,171.3,316.9,171.7,354.6,171.4z"/>
<path fill="#FFFFFF" stroke="#000000" stroke-miterlimit="10" d="M236,264.1h20h2.7c0.4,0,0.7,0.3,0.7,0.7v3.1
	c0,0.4-0.3,0.7-0.7,0.7h-2.5H236h-6.3c-0.4,0-0.7-0.3-0.7-0.7v-3.1c0-0.4,0.3-0.7,0.7-0.7H236z"/>
<path fill="#FFFFFF" stroke="#000000" stroke-miterlimit="10" d="M236,268.6h20.2c-0.2,3.6-3,6.5-6.4,6.5h-7.5
	C239,275.1,236.2,272.2,236,268.6z"/>
<path fill="#FFFFFF" stroke="#000000" stroke-miterlimit="10" d="M256.1,263.9v0.3h-20c0.2-3.6,3-6.5,6.4-6.5h7.5
	C253.4,257.6,256.1,260.1,256.1,263.9z"/>
<path fill="#FFFFFF" stroke="#000000" stroke-miterlimit="10" d="M183.9,287.2c35,0,73.9,24.5,67.6,91.1l-4,0.101
	c0-2.9-0.5-18.5-0.7-21.301c-3.2-38.6-26.8-65-62.3-65c-13.8,0-26.7,3.4-37.4,10.801c-12.1,8.5-21.5,22.199-26.2,42.3
	c-2.2,9.399-3.4,16.6-3.4,28.899L113,376c-1-1-2.3-1.4-3.8-1.6l2.8-0.2c0-10.8,1-20.4,2.9-28.9c1.1-5.3,2.6-10.1,4.4-14.6
	c5.1-13.2,12.8-22.9,21.7-29.8C153.5,291.2,168.9,287.2,183.9,287.2z"/>
<path fill="#FFFFFF" stroke="#000000" stroke-miterlimit="10" d="M251.5,378.4c0,0.1,0,0.199,0,0.3l-16.4-0.5l-0.7-0.3
	c2.4-6.4,3.7-13.4,3.7-20.7c0-31.8-24.7-57.601-55.1-57.601S127.9,325.4,127.9,357.2c0,6,0.9,11.899,2.5,17.399l-0.6,0.2
	l-12.2-0.399c0-12.301,1.1-19.5,3.4-28.9c4.7-20.1,14-33.8,26.2-42.3c10.7-7.5,23.6-10.8,37.4-10.8c35.5,0,59.1,26.399,62.3,65
	c0.2,2.8,0.7,18.399,0.7,21.3L251.5,378.4z"/>
<path fill="#FFFFFF" stroke="#000000" stroke-miterlimit="10" d="M244,151.5v4.8c-3,0.1-6,0.1-9.1,0.2v-4.9
	C237.8,151.6,240.8,151.5,244,151.5z"/>
<path fill="#FFFFFF" stroke="#000000" stroke-miterlimit="10" d="M238,357.1c0,7.301-1.3,14.301-3.7,20.7
	c-8,21.601-28,36.9-51.4,36.9c-24.7,0-45.5-16.9-52.6-40.3c-1.7-5.5-2.5-11.301-2.5-17.4c0-31.8,24.7-57.6,55.1-57.6
	C213.4,299.5,238,325.3,238,357.1z M218.6,357.3c0-20.399-15.8-36.899-35.3-36.899S148,336.9,148,357.3c0,20.4,15.8,36.9,35.3,36.9
	S218.6,377.7,218.6,357.3z"/>
<path fill="#FFFFFF" stroke="#000000" stroke-miterlimit="10" d="M234.6,167.9v0.7l-9,70.2c-0.2,0.6-0.4,1.2-0.5,1.8h-4l-150.4-1.5
	c-0.5,0,33.3-65.5,33.3-65.5c0.3,0,16.8-1.4,40.8-2.8c24-1.4,55.4-2.8,85.7-2.8L234.6,167.9z M222.7,217.2c2.5-18.9,6-43.8,6.2-45.7
	c-56.6,0.1-116,4.9-122.7,5.5c-0.6,1.2-30.2,58.6-30.2,58.6s141.6,1.4,143.9,1.4L222.7,217.2z"/>
<path fill="#FFFFFF" stroke="#000000" stroke-miterlimit="10" d="M228.9,171.5c-0.3,1.9-3.7,26.8-6.2,45.7L220,237
	c-2.3,0-143.9-1.4-143.9-1.4s29.5-57.5,30.2-58.6C112.9,176.4,172.3,171.6,228.9,171.5z"/>
<path fill="#FFFFFF" stroke="#000000" stroke-miterlimit="10" d="M215.6,353c0.5,4,0.3,8.2-0.7,12.3c-1,4.2-2.6,8-4.8,11.3l0,0
	l-9.8-9.8c-0.7-0.6-2.1-3.3-2.1-4c-0.1-0.8-0.1-1,0-1.7c0.1-0.6,0.3-0.899,0.7-1.5c0.4-0.699,2.8-2.3,3.7-2.6L215.6,353L215.6,353z"
	/>
<path fill="#FFFFFF" stroke="#000000" stroke-miterlimit="10" d="M215,349.5h-0.1c0,0-0.9,0.3-2.2,0.7c-1.3,0.399-4.2,0.2-4.6-1
	c-0.3-1.2,2.3-2.101,3.6-2.5c1.3-0.4,2.2-0.7,2.2-0.7h0.1C214.4,347.1,214.7,348.3,215,349.5z"/>
<path fill="#FFFFFF" stroke="#000000" stroke-miterlimit="10" d="M207.9,379.4l0.1,0.1c-0.8,0.9-1.6,1.8-2.4,2.6l-0.1-0.1
	c0,0-0.7-0.7-1.7-1.7s-2.4-2.8-1.6-3.7c0.8-0.899,3,0,4,1C207.2,378.7,207.9,379.4,207.9,379.4z"/>
<path fill="#FFFFFF" stroke="#000000" stroke-miterlimit="10" d="M202.9,384.4L202.9,384.4c-6.2,5-14.1,7.6-22.3,6.899l0,0l3.2-13.8
	c0.2-0.9,1.6-3.5,2.3-3.9c0.6-0.5,0.8-0.6,1.4-0.8s0.9-0.2,1.6-0.1c0.8,0,3.3,1.399,4,2L202.9,384.4z"/>
<path fill="#FFFFFF" stroke="#000000" stroke-miterlimit="10" d="M199.7,352.9c0.3,1.199-1.3,1.699-2.6,2.1c-1.2,0.4-2,0.6-2.2,0.7
	c-0.2-1.2-0.5-2.4-1-3.5c0.1,0,1-0.3,2.2-0.7C197.4,351.1,199.4,351.7,199.7,352.9z"/>
<path fill="#FFFFFF" stroke="#000000" stroke-miterlimit="10" d="M194.5,366c1,1,2.5,2.9,1.7,3.8c-0.8,0.9-3.1-0.2-4.1-1.2
	c-0.9-0.899-1.6-1.5-1.6-1.6c0.9-0.7,1.7-1.6,2.4-2.6C193,364.5,193.6,365.2,194.5,366z"/>
<path fill="#FFFFFF" stroke="#000000" stroke-miterlimit="10" d="M192.6,324.7l-0.1,0.1c0,0-0.2,1-0.5,2.3c-0.3,1.4-1.2,4-2.3,3.7
	c-1.1-0.3-1.4-3.2-1.1-4.6c0.3-1.4,0.5-2.3,0.5-2.3v-0.2c0.6,0.1,1.1,0.2,1.7,0.399C191.5,324.3,192.1,324.5,192.6,324.7z"/>
<path fill="#FFFFFF" stroke="#000000" stroke-miterlimit="10" d="M185.1,349.1c4.3,1.101,7,5.7,5.9,10.2s-5.4,7.3-9.7,6.2
	c-4.3-1.1-7-5.7-5.9-10.2C176.4,350.8,180.8,348,185.1,349.1z M187.9,358.5c0.6-2.7-0.9-5.4-3.5-6s-5.1,1-5.8,3.7
	c-0.7,2.7,0.9,5.399,3.5,6C184.7,362.8,187.2,361.1,187.9,358.5z"/>
<path fill="#FFFFFF" stroke="#000000" stroke-miterlimit="10" d="M187.4,339.4c1.1,0.3,1.1,2.8,0.8,4.199
	c-0.3,1.2-0.5,2.2-0.5,2.301c-0.5-0.2-1.1-0.4-1.7-0.601c-0.6-0.1-1.1-0.3-1.7-0.3c0-0.1,0.2-1,0.5-2.3
	C185.1,341.3,186.3,339.1,187.4,339.4z"/>
<path fill="#FFFFFF" stroke="#000000" stroke-miterlimit="10" d="M184.4,352.5c2.6,0.7,4.1,3.3,3.5,6s-3.2,4.3-5.8,3.7
	c-2.6-0.601-4.1-3.3-3.5-6S181.8,351.8,184.4,352.5z"/>
<path fill="#FFFFFF" stroke="#000000" stroke-miterlimit="10" d="M185.8,323.3L185.8,323.3l-3.2,13.9c-0.2,0.899-1.6,3.6-2.3,4
	c-0.6,0.5-0.8,0.6-1.4,0.8s-0.9,0.2-1.6,0.1c-0.8,0-3.3-1.399-4-2l-9.8-9.8l0,0C169.8,325.2,177.7,322.6,185.8,323.3z"/>
<path fill="#FFFFFF" stroke="#000000" stroke-miterlimit="10" d="M182.2,369.6c0,0.101-0.3,1.101-0.5,2.301
	c-0.3,1.399-1.1,3.1-2.2,2.8s-1.5-2.3-1.2-3.7c0.3-1.2,0.5-2.1,0.5-2.3c0.5,0.2,1.1,0.399,1.7,0.6
	C181,369.4,181.6,369.5,182.2,369.6z"/>
<path fill="#FFFFFF" stroke="#000000" stroke-miterlimit="10" d="M177.1,384.2c1.1,0.3,1,2.7,0.7,4.1c-0.3,1.4-0.5,2.3-0.5,2.3v0.2
	c-0.6-0.1-1.1-0.2-1.7-0.399c-0.6-0.2-1.1-0.301-1.7-0.5l0.1-0.101c0,0,0.2-1,0.5-2.3C174.7,386.1,175.9,383.9,177.1,384.2z"/>
<path fill="#FFFFFF" stroke="#000000" stroke-miterlimit="10" d="M174.4,345.9c0.9,0.899,1.5,1.5,1.6,1.699
	c-0.9,0.7-1.7,1.601-2.4,2.601c-0.1-0.101-0.8-0.8-1.6-1.601c-1-1-2.2-2.8-1.4-3.699C171.4,344,173.4,344.9,174.4,345.9z"/>
<path fill="#FFFFFF" stroke="#000000" stroke-miterlimit="10" d="M173.5,370.3c0.4,0.7,0.5,3.7,0.3,4.601l-3.2,13.8l0,0
	c-7.6-3.3-13.4-9.4-16.8-16.8l0,0l13.1-4c0.9-0.301,3.8-0.301,4.4,0.1c0.7,0.3,0.9,0.4,1.4,0.8C173.1,369.3,173.2,369.6,173.5,370.3
	z"/>
<path fill="#FFFFFF" stroke="#000000" stroke-miterlimit="10" d="M172.5,362.5c-0.2,0.1-1,0.3-2.2,0.7c-1.3,0.399-4.8,0.6-5.1-0.601
	c-0.3-1.199,2.8-2.5,4.1-2.899c1.2-0.4,2-0.601,2.2-0.7C171.7,360.2,172,361.4,172.5,362.5z"/>
<path fill="#FFFFFF" stroke="#000000" stroke-miterlimit="10" d="M168.4,351.9c0.1,0.8,0.1,1,0,1.699c-0.1,0.601-0.3,0.9-0.7,1.5
	c-0.4,0.7-2.8,2.301-3.7,2.601l-13.1,4h-0.1c-0.5-4-0.3-8.2,0.7-12.4s2.6-8,4.8-11.3l0,0l9.8,9.8
	C166.9,348.5,168.4,351.1,168.4,351.9z"/>
<path fill="#FFFFFF" stroke="#000000" stroke-miterlimit="10" d="M162.6,334.2c1,1,3.4,4.3,2.6,5.1c-0.8,0.9-4-1.5-5-2.5
	s-1.7-1.7-1.7-1.7l-0.1-0.1c0.8-0.9,1.6-1.8,2.4-2.6l0.1,0.1C161,332.6,161.7,333.3,162.6,334.2z"/>
<path fill="#FFFFFF" stroke="#000000" stroke-miterlimit="10" d="M140.5,300.4l0.4,0.5c-9,6.899-16.6,16.6-21.7,29.8l-0.3-0.101
	C92.4,328.6,36,326.7,9.1,326.7H8.8c-0.2-1-0.3-2-0.4-3.101c0-6.8,11.7-5.5,11.7-5.5c0-0.1,0-0.199,0-0.199c6,0.1,80.4,1.5,85.7,1.5
	c5.5,0,4.9,0.399,7.4-1.601c2.5-1.899,3.1-3.6,4.9-6.8c1.8-3.2-0.6-3.9-3.7-3.9c-3,0-87.9,0.2-93.3,0.2c0.9-4.2,2.2-6.3,2.7-6.899
	c0.1-0.101,0.2-0.2,0.2-0.2l8.7-3.9l94.6,0.2C130.1,296.6,135.9,298.6,140.5,300.4z"/>
<path fill="#FFFFFF" stroke="#000000" stroke-miterlimit="10" d="M119,330.6l0.3,0.101c-1.8,4.5-3.2,9.3-4.4,14.6l-0.4-0.1L12.2,341
	c-1.4-4.3-2.6-9.3-3.4-14.3h0.3C36.1,326.6,92.5,328.5,119,330.6z"/>
<path fill="#FFFFFF" stroke="#000000" stroke-miterlimit="10" d="M114.4,307.1c3.1,0,5.5,0.601,3.7,3.9c-1.9,3.2-2.5,4.9-4.9,6.8
	c-2.5,1.9-1.8,1.601-7.4,1.601c-5.3,0-79.8-1.4-85.7-1.5c0-4.4,0.5-7.9,1.1-10.5C26.6,307.3,111.5,307.1,114.4,307.1z"/>
<path fill="#FFFFFF" stroke="#000000" stroke-miterlimit="10" d="M114,157l2.2,4.6c-3,0.2-6,0.5-8.8,0.7v-0.1
	c0,0-49.8-34.4-49.3-34.6l48.6,30.6C106.7,158.2,112.4,156,114,157z"/>
<path fill="#FFFFFF" stroke="#000000" stroke-miterlimit="10" d="M114.5,345.2l0.4,0.1c-1.9,8.5-2.9,18.101-2.9,28.9l-2.8,0.2
	c-2.3-0.301-5.2-0.101-8.9-0.9c-6.1-1.3-53.7-3.9-70.9-15.5c0,0-8.6,1.3-11.6-3.9c-1.6-2.699-3.7-7.399-5.5-13.199L114.5,345.2z"/>
<path fill="#FFFFFF" stroke="#000000" stroke-miterlimit="10" d="M107.2,162.4l0.9,5.3l-4.1,5.9c0,0-33.8,65.5-33.3,65.5
	c-1.4,2.8-2.7,7.7-2.7,10.8l-28.6,0.8c-2.5,3.7-4.3,8.8-5.4,14.5c-0.9,4.6-1.4,9.7-1.6,14.5c-0.3,6.1-0.1,12,0.4,16.8l-8.7,3.9
	c-3.1-3.9-3.3-4.5-3.3-8.2l4.2-0.8l2.2-30.2l-3.1-1.3c0,0,2.4-12.3,5-16.5c0,0,2.2,0,7.9,0c0.3,0,0.5,0,0.8,0
	c3.7-0.2,5.7-1.4,7.7-4.4c0-0.1,0.1-0.1,0.1-0.2c0.8-1.1,1.5-2.4,2.2-4c7.1-14.7,25.8-44.7,34.7-55.8c4.3-5.4,8.7-9.1-3.6-10.6
	c2.2-3,2.9-3,8.6-3.8C93,163.7,99.6,163,107.2,162.4L107.2,162.4z"/>
<path fill="#FFFFFF" stroke="#000000" stroke-miterlimit="10" d="M78.8,168.3c12.2,1.5,7.9,5.2,3.6,10.6c-8.9,11-27.6,41-34.7,55.8
	c-0.8,1.6-1.5,2.9-2.2,4c0,0.1-0.1,0.1-0.1,0.2c-2.2,3.1-4.8,4.2-7.7,4.4c-0.3,0-0.5,0-0.8,0c-5.8,0-7.9,0-7.9,0
	C37.4,221.7,63.7,184.2,78.8,168.3z"/>
<path fill="#FFFFFF" stroke="#000000" stroke-miterlimit="10" d="M68,249.8l-0.4,15.3h-0.3H34h-0.1c1.1-5.7,2.8-10.8,5.4-14.5
	L68,249.8z"/>
<path fill="#FFFFFF" stroke="#000000" stroke-miterlimit="10" d="M67.5,265.1l-0.4,14.5H32.4h-0.1c0.2-4.9,0.7-9.9,1.6-14.5H34h33.2
	H67.5z"/>
<path fill="#FFFFFF" stroke="#000000" stroke-miterlimit="10" d="M67.1,279.6l-0.5,16.8H32.7c-0.5-4.7-0.7-10.601-0.4-16.8h0.1H67.1
	z"/>
<path fill="#FFFFFF" stroke="#000000" stroke-miterlimit="10" d="M27.1,261l-2.2,30.2l-4.2,0.8c-1.2-7.7,0.2-22.6,2.7-32.3L27.1,261
	z"/>
<path fill="none" stroke="#000000" stroke-width="0.25" stroke-linecap="round" stroke-linejoin="round" d="M561.2,324.2l-301.6-2.5
	c-2.2,0-4-1.9-4-4.2"/>
<path fill="none" stroke="#000000" stroke-width="0.25" stroke-linecap="round" stroke-linejoin="round" d="M255.6,317.5
	c0-2.3,1.8-4.2,4-4.1l301.6,2.5"/>
<path fill="none" stroke="#000000" stroke-width="0.25" stroke-linecap="round" stroke-linejoin="round" d="M561.3,315.9
	c2.2,0,4,1.899,4,4.199l0,0c0,2.301-1.8,4.2-4,4.2"/>
<line fill="none" stroke="#000000" stroke-width="0.5" stroke-linecap="round" stroke-linejoin="round" x1="260.6" y1="352.9" x2="246.8" y2="357.3"/>
<path fill="none" stroke="#000000" stroke-width="0.5" stroke-linecap="round" stroke-linejoin="round" d="M545.1,352.9
	c-16.6,0-284.399,0-284.399,0"/>
<path fill="none" stroke="#000000" stroke-width="0.5" stroke-linecap="round" stroke-linejoin="round" d="M579.8,355.1
	c0,0-18.1-2.199-34.7-2.199"/>
<g>
	<path d="M607.1,244c14.5,2,29.101,4.7,43.5,7.4c14.5,2.7,28.9,5.5,43.301,8.6c14.399,3.1,28.699,6.5,42.899,10.5
		c7.101,2,14.101,4.2,21,6.7c3.5,1.3,6.9,2.6,10.2,4.2s6.6,3.3,9.5,5.6c-2.9-2.3-6.2-4-9.5-5.5s-6.8-2.9-10.2-4.1
		c-6.899-2.5-14-4.6-21.1-6.6c-14.2-3.9-28.5-7.2-42.9-10.2c-14.399-3-28.8-5.8-43.3-8.3c-14.5-2.6-29-5-43.5-7.1
		c-0.3,0-0.5-0.3-0.4-0.6C606.5,244.2,606.8,244,607.1,244L607.1,244z"/>
</g>
<line fill="none" stroke="#000000" stroke-width="0.5" stroke-linecap="round" stroke-linejoin="round" x1="710.6" y1="357.9" x2="714.5" y2="357.9"/>
<path fill="none" stroke="#000000" stroke-width="0.5" stroke-linecap="round" stroke-linejoin="round" d="M694.8,314
	c0,0,1.8-2.2,3.9-3.8"/>
<line fill="none" stroke="#000000" stroke-width="0.5" stroke-linecap="round" stroke-linejoin="round" x1="464.4" y1="181.7" x2="471.4" y2="179.2"/>
<line fill="none" stroke="#000000" stroke-width="0.5" stroke-linecap="round" stroke-linejoin="round" x1="114.5" y1="345.1" x2="120.9" y2="345.4"/>
<path fill="none" stroke="#000000" stroke-width="0.5" stroke-linecap="round" stroke-linejoin="round" d="M147.1,303.1
	c0,0-2.9-1.3-6.5-2.699"/>
<path fill="none" stroke="#000000" stroke-width="0.5" stroke-linecap="round" stroke-linejoin="round" d="M125.5,331.1
	c-1.9-0.199-4.1-0.399-6.6-0.6"/>
</svg>
