<?xml version="1.0" encoding="utf-8"?>
<!-- Generator: Adobe Illustrator 15.0.0, SVG Export Plug-In . SVG Version: 6.00 Build 0)  -->
<!DOCTYPE svg PUBLIC "-//W3C//DTD SVG 1.1//EN" "http://www.w3.org/Graphics/SVG/1.1/DTD/svg11.dtd">
<svg version="1.1" id="Layer_1" xmlns="http://www.w3.org/2000/svg" xmlns:xlink="http://www.w3.org/1999/xlink" x="0px" y="0px"
	 width="822px" height="567px" viewBox="0 0 822 567" enable-background="new 0 0 822 567" xml:space="preserve">
<g id="COLORING">
	<circle fill="#FFFFFF" stroke="#000000" stroke-width="0.5" stroke-miterlimit="10" cx="617" cy="398" r="62.5"/>
	<circle fill="#FFFFFF" stroke="#000000" stroke-width="0.5" stroke-miterlimit="10" cx="217" cy="398" r="62.5"/>
	<circle fill="#FFFFFF" stroke="#000000" stroke-width="0.5" stroke-miterlimit="10" cx="217" cy="398" r="50"/>
	<circle fill="#FFFFFF" stroke="#000000" stroke-width="0.5" stroke-miterlimit="10" cx="217" cy="398" r="40"/>
	<circle fill="#FFFFFF" stroke="#000000" stroke-width="0.5" stroke-miterlimit="10" cx="217" cy="398" r="35"/>
	<circle fill="#FFFFFF" stroke="#000000" stroke-width="0.5" stroke-miterlimit="10" cx="217" cy="398" r="10"/>
	<circle fill="#FFFFFF" stroke="#000000" stroke-width="0.5" stroke-miterlimit="10" cx="617" cy="398" r="50"/>
	<circle fill="#FFFFFF" stroke="#000000" stroke-width="0.5" stroke-miterlimit="10" cx="617" cy="398" r="40"/>
	<circle fill="#FFFFFF" stroke="#000000" stroke-width="0.5" stroke-miterlimit="10" cx="617" cy="398" r="35"/>
	<circle fill="#FFFFFF" stroke="#000000" stroke-width="0.5" stroke-miterlimit="10" cx="617" cy="398" r="10"/>
	<path fill="none" stroke="#000000" stroke-width="0.5" stroke-miterlimit="10" d="M605,398"/>
	<path fill="none" stroke="#000000" stroke-width="0.5" stroke-miterlimit="10" d="M617,410"/>
	<path fill="none" stroke="#000000" stroke-width="0.5" stroke-miterlimit="10" d="M617,410"/>
	<path fill="none" stroke="#000000" stroke-width="0.5" stroke-miterlimit="10" d="M629,398"/>
	<path fill="none" stroke="#000000" stroke-width="0.5" stroke-miterlimit="10" d="M629,398"/>
	<path fill="none" stroke="#000000" stroke-width="0.5" stroke-miterlimit="10" d="M617,386"/>
	<path fill="none" stroke="#000000" stroke-width="0.5" stroke-miterlimit="10" d="M617,386"/>
	<path fill="none" stroke="#000000" stroke-width="0.5" stroke-miterlimit="10" d="M605,398"/>
	<path fill="none" stroke="#000000" stroke-width="0.5" stroke-miterlimit="10" d="M654.9,398"/>
	<path fill="none" stroke="#000000" stroke-width="0.5" stroke-miterlimit="10" d="M581.1,398"/>
	<path fill="none" stroke="#000000" stroke-width="0.5" stroke-miterlimit="10" d="M644.1,424.1"/>
	<path fill="none" stroke="#000000" stroke-width="0.5" stroke-miterlimit="10" d="M591.9,371.9"/>
	<path fill="none" stroke="#000000" stroke-width="0.5" stroke-miterlimit="10" d="M644.1,371.9"/>
	<path fill="none" stroke="#000000" stroke-width="0.5" stroke-miterlimit="10" d="M591.9,424.1"/>
	<path fill="none" stroke="#000000" stroke-width="0.5" stroke-miterlimit="10" d="M618,361.1"/>
	<path fill="none" stroke="#000000" stroke-width="0.5" stroke-miterlimit="10" d="M618,434.9"/>
	<g id="XMLID_51_">
		<path fill="#FFFFFF" stroke="#000000" stroke-width="0.5" stroke-miterlimit="10" d="M596.4,377.5c-0.4-0.4-0.601-1-0.601-1.7
			c0-0.8,0.3-1.399,0.9-1.899l0,0c1.7-1.4,3.5-2.7,5.5-3.7l0,0c0.399-0.3,0.899-0.4,1.399-0.4c1.101,0,2,0.7,2.301,1.601l6,14.199
			c0.1,0.2,0.1,0.4,0.1,0.601c0,0.6-0.3,1.1-0.8,1.3l0,0c-0.601,0.3-1.2,0.7-1.7,1.2l0,0c-0.3,0.2-0.6,0.3-0.9,0.3
			c-0.399,0-0.8-0.2-1-0.4L596.4,377.5z"/>
	</g>
	<g id="XMLID_50_">
		<path fill="#FFFFFF" stroke="#000000" stroke-width="0.5" stroke-miterlimit="10" d="M617.1,368.9c0-0.601,0.301-1.2,0.7-1.601
			c0.5-0.5,1.3-0.8,2-0.7l0,0c2.101,0.2,4.4,0.601,6.5,1.301l0,0c0.5,0.1,0.9,0.399,1.3,0.699c0.7,0.801,0.9,1.9,0.5,2.801
			l-5.899,14.3c-0.101,0.2-0.2,0.3-0.3,0.5c-0.4,0.399-1,0.5-1.5,0.399l0,0c-0.7-0.199-1.4-0.3-2-0.399l0,0
			c-0.301,0-0.601-0.2-0.9-0.4c-0.3-0.3-0.4-0.7-0.4-1V368.9z"/>
	</g>
	<g id="XMLID_49_">
		<path fill="#FFFFFF" stroke="#000000" stroke-width="0.5" stroke-miterlimit="10" d="M637.5,377.4c0.4-0.4,1-0.7,1.7-0.7
			c0.8,0,1.5,0.3,1.899,0.899l0,0c1.4,1.601,2.7,3.5,3.7,5.5l0,0c0.3,0.4,0.4,0.9,0.4,1.4c0,1.1-0.601,2-1.601,2.3l-14.199,6
			c-0.2,0.101-0.4,0.101-0.601,0.101c-0.6,0-1.1-0.301-1.3-0.801l0,0c-0.3-0.6-0.7-1.199-1.2-1.699l0,0
			c-0.2-0.301-0.3-0.601-0.3-0.9c0-0.4,0.2-0.8,0.4-1L637.5,377.4z"/>
	</g>
	<g id="XMLID_48_">
		<path fill="#FFFFFF" stroke="#000000" stroke-width="0.5" stroke-miterlimit="10" d="M646.1,398c0.601,0,1.2,0.3,1.601,0.7
			c0.5,0.5,0.8,1.3,0.7,2l0,0c-0.2,2.1-0.601,4.399-1.301,6.5l0,0c-0.1,0.5-0.399,0.899-0.699,1.3c-0.801,0.7-1.9,0.9-2.801,0.5
			l-14.3-5.8c-0.2-0.101-0.3-0.2-0.5-0.3c-0.399-0.4-0.5-1-0.399-1.5l0,0c0.199-0.7,0.3-1.4,0.399-2l0,0c0-0.301,0.2-0.601,0.4-0.9
			c0.3-0.3,0.7-0.4,1-0.4L646.1,398z"/>
	</g>
	<g id="XMLID_47_">
		<path fill="#FFFFFF" stroke="#000000" stroke-width="0.5" stroke-miterlimit="10" d="M637.6,418.5c0.4,0.4,0.601,1,0.601,1.7
			c0,0.8-0.4,1.399-0.9,1.899l0,0c-1.7,1.4-3.6,2.7-5.5,3.7l0,0c-0.399,0.3-0.899,0.4-1.399,0.4c-1.101,0-2-0.7-2.301-1.601
			l-6-14.199c-0.1-0.2-0.1-0.4-0.1-0.601c0-0.6,0.3-1.1,0.8-1.3l0,0c0.601-0.3,1.2-0.7,1.7-1.2l0,0c0.3-0.2,0.6-0.3,0.9-0.3
			c0.399,0,0.8,0.2,1,0.4L637.6,418.5z"/>
	</g>
	<g id="XMLID_46_">
		<path fill="#FFFFFF" stroke="#000000" stroke-width="0.5" stroke-miterlimit="10" d="M617.1,427.1c0,0.601-0.3,1.2-0.699,1.7
			c-0.5,0.5-1.301,0.8-2,0.7l0,0c-2.101-0.2-4.4-0.6-6.5-1.2l0,0c-0.5-0.1-0.9-0.399-1.301-0.7c-0.8-0.699-0.899-1.899-0.6-2.8
			l5.8-14.3c0.101-0.2,0.2-0.3,0.3-0.5c0.4-0.4,1-0.5,1.5-0.4l0,0c0.7,0.2,1.4,0.301,2,0.4l0,0c0.301,0,0.601,0.2,0.9,0.4
			c0.3,0.3,0.4,0.699,0.4,1L617.1,427.1z"/>
	</g>
	<g id="XMLID_45_">
		<path fill="#FFFFFF" stroke="#000000" stroke-width="0.5" stroke-miterlimit="10" d="M596.5,418.6c-0.4,0.4-1,0.7-1.7,0.7
			c-0.8,0-1.5-0.3-1.899-0.899l0,0c-1.4-1.601-2.7-3.5-3.7-5.5l0,0c-0.3-0.4-0.4-0.9-0.4-1.4c0-1.1,0.601-2,1.601-2.3l14.199-6
			c0.2-0.101,0.4-0.101,0.601-0.101c0.6,0,1.1,0.301,1.3,0.801l0,0c0.3,0.6,0.7,1.199,1.2,1.699l0,0c0.2,0.301,0.3,0.601,0.3,0.9
			c0,0.4-0.2,0.8-0.4,1L596.5,418.6z"/>
	</g>
	<g id="XMLID_44_">
		<path fill="#FFFFFF" stroke="#000000" stroke-width="0.5" stroke-miterlimit="10" d="M587.9,397.9c-0.601,0-1.2-0.301-1.601-0.7
			c-0.5-0.5-0.8-1.3-0.7-2l0,0c0.2-2.101,0.601-4.4,1.301-6.5l0,0c0.1-0.5,0.399-0.9,0.699-1.3c0.801-0.7,1.9-0.9,2.801-0.5
			l14.3,5.899c0.2,0.101,0.3,0.2,0.5,0.3c0.399,0.4,0.5,1,0.399,1.5l0,0c-0.199,0.7-0.3,1.4-0.399,2l0,0c0,0.301-0.2,0.601-0.4,0.9
			c-0.3,0.3-0.7,0.4-1,0.4H587.9z"/>
	</g>
	<g id="XMLID_43_">
		<path fill="#FFFFFF" stroke="#000000" stroke-width="0.5" stroke-miterlimit="10" d="M196.4,377.5c-0.4-0.4-0.6-1-0.6-1.7
			c0-0.8,0.3-1.399,0.9-1.899l0,0c1.7-1.4,3.5-2.7,5.5-3.7l0,0c0.4-0.3,0.9-0.4,1.4-0.4c1.1,0,2,0.7,2.3,1.601l6,14.199
			c0.1,0.2,0.1,0.4,0.1,0.601c0,0.6-0.3,1.1-0.8,1.3l0,0c-0.6,0.3-1.2,0.7-1.7,1.2l0,0c-0.3,0.2-0.6,0.3-0.9,0.3
			c-0.4,0-0.8-0.2-1-0.4L196.4,377.5z"/>
	</g>
	<g id="XMLID_42_">
		<path fill="#FFFFFF" stroke="#000000" stroke-width="0.5" stroke-miterlimit="10" d="M217.1,368.9c0-0.601,0.3-1.2,0.7-1.601
			c0.5-0.5,1.3-0.8,2-0.7l0,0c2.1,0.2,4.4,0.601,6.5,1.301l0,0c0.5,0.1,0.9,0.399,1.3,0.699c0.7,0.801,0.9,1.9,0.5,2.801l-5.9,14.3
			c-0.1,0.2-0.2,0.3-0.3,0.5c-0.4,0.399-1,0.5-1.5,0.399l0,0c-0.7-0.199-1.4-0.3-2-0.399l0,0c-0.3,0-0.6-0.2-0.9-0.4
			c-0.3-0.3-0.4-0.7-0.4-1V368.9z"/>
	</g>
	<g id="XMLID_41_">
		<path fill="#FFFFFF" stroke="#000000" stroke-width="0.5" stroke-miterlimit="10" d="M237.5,377.4c0.4-0.4,1-0.7,1.7-0.7
			c0.8,0,1.5,0.3,1.9,0.899l0,0c1.4,1.601,2.7,3.5,3.7,5.5l0,0c0.3,0.4,0.4,0.9,0.4,1.4c0,1.1-0.6,2-1.6,2.3l-14.2,6
			c-0.2,0.101-0.4,0.101-0.6,0.101c-0.6,0-1.1-0.301-1.3-0.801l0,0c-0.3-0.6-0.7-1.199-1.2-1.699l0,0c-0.2-0.301-0.3-0.601-0.3-0.9
			c0-0.4,0.2-0.8,0.4-1L237.5,377.4z"/>
	</g>
	<g id="XMLID_24_">
		<path fill="#FFFFFF" stroke="#000000" stroke-width="0.5" stroke-miterlimit="10" d="M246.1,398c0.6,0,1.2,0.3,1.6,0.7
			c0.5,0.5,0.8,1.3,0.7,2l0,0c-0.2,2.1-0.6,4.399-1.3,6.5l0,0c-0.1,0.5-0.4,0.899-0.7,1.3c-0.8,0.7-1.9,0.9-2.8,0.5l-14.3-5.8
			c-0.2-0.101-0.3-0.2-0.5-0.3c-0.4-0.4-0.5-1-0.4-1.5l0,0c0.2-0.7,0.3-1.4,0.4-2l0,0c0-0.301,0.2-0.601,0.4-0.9
			c0.3-0.3,0.7-0.4,1-0.4L246.1,398z"/>
	</g>
	<g id="XMLID_23_">
		<path fill="#FFFFFF" stroke="#000000" stroke-width="0.5" stroke-miterlimit="10" d="M237.6,418.5c0.4,0.4,0.6,1,0.6,1.7
			c0,0.8-0.4,1.399-0.9,1.899l0,0c-1.7,1.4-3.6,2.7-5.5,3.7l0,0c-0.4,0.3-0.9,0.4-1.4,0.4c-1.1,0-2-0.7-2.3-1.601l-6-14.199
			c-0.1-0.2-0.1-0.4-0.1-0.601c0-0.6,0.3-1.1,0.8-1.3l0,0c0.6-0.3,1.2-0.7,1.7-1.2l0,0c0.3-0.2,0.6-0.3,0.9-0.3c0.4,0,0.8,0.2,1,0.4
			L237.6,418.5z"/>
	</g>
	<g id="XMLID_22_">
		<path fill="#FFFFFF" stroke="#000000" stroke-width="0.5" stroke-miterlimit="10" d="M217.1,427.1c0,0.601-0.3,1.2-0.7,1.7
			c-0.5,0.5-1.3,0.8-2,0.7l0,0c-2.1-0.2-4.4-0.6-6.5-1.2l0,0c-0.5-0.1-0.9-0.399-1.3-0.7c-0.8-0.699-0.9-1.899-0.6-2.8l5.8-14.3
			c0.1-0.2,0.2-0.3,0.3-0.5c0.4-0.4,1-0.5,1.5-0.4l0,0c0.7,0.2,1.4,0.301,2,0.4l0,0c0.3,0,0.6,0.2,0.9,0.4c0.3,0.3,0.4,0.699,0.4,1
			L217.1,427.1z"/>
	</g>
	<g id="XMLID_21_">
		<path fill="#FFFFFF" stroke="#000000" stroke-width="0.5" stroke-miterlimit="10" d="M196.5,418.6c-0.4,0.4-1,0.7-1.7,0.7
			c-0.8,0-1.5-0.3-1.9-0.899l0,0c-1.4-1.601-2.7-3.5-3.7-5.5l0,0c-0.3-0.4-0.4-0.9-0.4-1.4c0-1.1,0.6-2,1.6-2.3l14.2-6
			c0.2-0.101,0.4-0.101,0.6-0.101c0.6,0,1.1,0.301,1.3,0.801l0,0c0.3,0.6,0.7,1.199,1.2,1.699l0,0c0.2,0.301,0.3,0.601,0.3,0.9
			c0,0.4-0.2,0.8-0.4,1L196.5,418.6z"/>
	</g>
	<g id="XMLID_20_">
		<path fill="#FFFFFF" stroke="#000000" stroke-width="0.5" stroke-miterlimit="10" d="M187.9,397.9c-0.6,0-1.2-0.301-1.6-0.7
			c-0.5-0.5-0.8-1.3-0.7-2l0,0c0.2-2.101,0.6-4.4,1.3-6.5l0,0c0.1-0.5,0.4-0.9,0.7-1.3c0.8-0.7,1.9-0.9,2.8-0.5l14.3,5.899
			c0.2,0.101,0.3,0.2,0.5,0.3c0.4,0.4,0.5,1,0.4,1.5l0,0c-0.2,0.7-0.3,1.4-0.4,2l0,0c0,0.301-0.2,0.601-0.4,0.9
			c-0.3,0.3-0.7,0.4-1,0.4H187.9z"/>
	</g>
	<g id="XMLID_19_">
		<path fill="#FFFFFF" stroke="#000000" stroke-width="0.5" stroke-miterlimit="10" d="M530,201l13,89c0,2.8-2.2,5-5,5l-75.1,0.8
			c-2.7,0-5-2.2-5-5l-1-90.3c0-2.8,2.199-5,5-5L525,196C527.8,196,530,198.2,530,201z"/>
		<path fill="#FFFFFF" stroke="#000000" stroke-width="0.5" stroke-miterlimit="10" d="M362.5,194.3c4.5,0,3.5,5.3,3.5,5.3l-31.3,95
			l-6,4.301L245,299c0.6-1.1,1.2-2.2,1.8-3.3l79-0.5l5.3-3.7l31-90.4c0,0,2.4-5.1-1.899-5.1l-10.8-1.3l-0.2-0.4
			c1-0.5,2.1-0.9,3.1-1.3l0.101,0.2L362.5,194.3z"/>
		<path fill="#FFFFFF" stroke="#000000" stroke-width="0.5" stroke-miterlimit="10" d="M369.5,198.5c0.9-3,3.6-5,6-5h67
			c2.4,0,4.4,2.3,4.4,5.3v95c0,2.9-2,5.3-4.4,5.3l-93-1.6c-2.4,0-5.5-2.5-5.5-5.4L369.5,198.5z M440.3,196h-63.8
			c-2.3,0-4.2,2.2-4.2,5l-24.8,89c0,2.8,1.9,5,4.2,5l88.6,1.5c2.3,0,4.2-2.2,4.2-5V201C444.5,198.2,442.6,196,440.3,196z"/>
		<path fill="#FFFFFF" stroke="#000000" stroke-width="0.5" stroke-miterlimit="10" d="M451.5,205.5l1.8,112.4
			c-1.1,0-2.3,0.1-3.5,0.1l-0.6-114.9c0-0.3,0-0.7,0-1h2C451.3,203.1,451.4,204.3,451.5,205.5z"/>
		<path fill="#FFFFFF" stroke="#000000" stroke-width="0.5" stroke-miterlimit="10" d="M453.3,317.9l1.5,88.1H450.4l-0.5-88
			C451,318,452.2,317.9,453.3,317.9z"/>
		<path fill="#FFFFFF" stroke="#000000" stroke-width="0.5" stroke-miterlimit="10" d="M454.8,198.3c0-2.9,2.3-5.3,5.2-5.3l66.2,0.5
			c2.899,0,5.2,2.4,5.2,5.3l13.699,93.5c0,2.9-2.3,5.3-5.199,5.3L461,298.4c-2.9,0-5.2-2.301-5.2-5.301L454.8,198.3z M458,290.8
			c0,2.8,2.2,5,5,5l75-0.8c2.7,0,5-2.2,5-5l-13-89c0-2.8-2.2-5-5-5l-63.1-0.5c-2.7,0-5,2.2-5,5L458,290.8z"/>
		<path fill="#FFFFFF" stroke="#000000" stroke-width="0.5" stroke-miterlimit="10" d="M543.5,200l12.5,88c0,2.8,2.2,5,5,5l33.5,0.3
			h0.1c0.101,0.5,0.2,1.4,0.5,2.5l-34.5-0.3c-2.899,0-6.8-2-6.8-4.9l-12.7-92.2c0-2.8,2.301-5,5.101-5.1c0.8,0.5,1.6,1,2.399,1.5
			l-0.199,0.3C545.7,195,543.5,197.2,543.5,200z"/>
		<path fill="#FFFFFF" stroke="#000000" stroke-width="0.5" stroke-miterlimit="10" d="M594.5,292.8c0,0,0,0.2,0.1,0.5h-0.1L561,293
			c-2.8,0-5-2.2-5-5l-12.5-88c0-2.8,2.2-5,5-5l0.2-0.3C568.1,207.4,590.6,234.5,594.5,292.8z"/>
		<path fill="#FFFFFF" stroke="#000000" stroke-width="0.5" stroke-miterlimit="10" d="M366,199.5c0,0,1-5.3-3.5-5.3l-10-1l-0.1-0.2
			c20.6-8.8,35.1-10,36-10l0,0l131.5,1v-0.2c2.899,0.3,13.699,1.9,26.3,9.4c-2.8,0.1-5.101,2.3-5.101,5.1l12.7,92.2
			c0,2.9,3.9,4.9,6.8,4.9l34.5,0.3c0.7,2.7,2.2,6.5,5.4,8.3c0.1,0.1,0.2,0.2,0.3,0.3c-1.6,0.2-3.2,0.3-4.8,0.5
			c-16.3,1.7-31.3,3.4-45.5,5.101l-16-109.9c0-6.3-2.7-8.5-5.8-8.5l-69.5-1c-4.2,1.1-8.101,2.8-8,11.6h-2c0-5.5-1-10.2-3.4-10.2
			H374.4c-2.5,0-4.4,1.5-5.601,3.5L367.4,200L366,199.5z"/>
		<path fill="#FFFFFF" stroke="#000000" stroke-width="0.5" stroke-miterlimit="10" d="M460.1,193c-2.899,0-5.199,2.4-5.199,5.3
			l1,94.7c0,2.9,2.3,5.3,5.199,5.3l78.9-0.8c2.9,0,5.2-2.3,5.2-5.3l-13.7-93.5c0-2.9-2.3-5.3-5.2-5.3L460.1,193z M459.3,190.5
			l69.5,1c3.101,0,5.8,2.2,5.8,8.5l16,109.9c-32.899,3.8-62.3,7-97.1,8l-1.8-112.4c-0.101-1.3-0.2-2.4-0.2-3.4
			C451.2,193.3,455,191.6,459.3,190.5z"/>
		<path fill="#FFFFFF" stroke="#000000" stroke-width="0.5" stroke-miterlimit="10" d="M367.5,200L337,303.5v9.9
			c-26.7-2.4-57-5.801-92-10.4c-0.9-0.1-1.8-0.2-2.6-0.3c0-0.101,0.1-0.2,0.1-0.3l2.5-3.4l83.8-0.3l6-4.3l31.3-95L367.5,200z"/>
		<path fill="#FFFFFF" stroke="#000000" stroke-width="0.5" stroke-miterlimit="10" d="M375.5,193.5c-2.4,0-5.1,2-6,5L344,292
			c0,2.9,3,5.4,5.5,5.4l93,1.6c2.4,0,4.4-2.3,4.4-5.3v-95c0-2.9-2-5.3-4.4-5.3h-67V193.5z M374.5,191.9h71.4
			c2.399,0,3.399,4.7,3.399,10.2c0,0.3,0,0.7,0,1L449.9,318c-31.101,0.7-66.7-0.4-112.9-4.5v-9.9L367.5,200l1.4-4.6
			C370.1,193.4,372,191.9,374.5,191.9z"/>
		<path fill="#FFFFFF" stroke="#000000" stroke-width="0.5" stroke-miterlimit="10" d="M432.7,323c0,0,6.8,2.6,1,10.9
			c-5.3,0.399-10.2-2.5-10.5-4.9C422.7,326.5,427,323.8,432.7,323z"/>
		<path fill="#FFFFFF" stroke="#000000" stroke-width="0.5" stroke-miterlimit="10" d="M443.6,326.1c0.4,2.5-3.399,6.9-9,7.7
			c-0.3,0-0.6,0.101-0.899,0.101c5.8-8.301-1-10.9-1-10.9C438.3,322.2,443.2,323.6,443.6,326.1z"/>
		<path fill="#FFFFFF" stroke="#000000" stroke-width="0.5" stroke-miterlimit="10" d="M533.2,322.9c1.5,0.899,5.3,3.899,0.2,11
			c-5.2,0.3-10-2.5-10.301-4.9c-0.399-2.5,3.9-5.3,9.601-6.1C532.8,322.9,533,322.9,533.2,322.9z"/>
		<path fill="#FFFFFF" stroke="#000000" stroke-width="0.5" stroke-miterlimit="10" d="M543.6,326.1c0.4,2.5-3.399,6.9-9,7.7
			c-0.399,0-0.8,0.101-1.199,0.101c5.1-7.101,1.3-10.2-0.2-11C538.6,322.2,543.2,323.7,543.6,326.1z"/>
		<path fill="#FFFFFF" stroke="#000000" stroke-width="0.5" stroke-miterlimit="10" d="M533.4,333.9c0.399,0,0.8-0.101,1.199-0.101
			c5.601-0.8,9.4-5.1,9-7.7c-0.399-2.5-4.899-3.899-10.399-3.199c-0.2,0-0.4,0-0.5,0.1c-5.7,0.8-9.9,3.5-9.601,6.1
			C523.4,331.4,528.2,334.2,533.4,333.9z M453.3,317.9c34.8-1,64.2-4.2,97.101-8l6.399,43.8h-0.1c-17.101,21.1-15.2,38.2-13.9,52.3
			h-88L453.3,317.9z"/>
		<path fill="#FFFFFF" stroke="#000000" stroke-width="0.5" stroke-miterlimit="10" d="M688.4,407l75.5-1
			c-7.9,7.3-12.601,12-12.601,12c0,2.8-2.7,5-6,5l-54.399-0.2C688.8,420,688.4,413.5,688.4,407z"/>
		<path fill="#FFFFFF" stroke="#000000" stroke-width="0.5" stroke-miterlimit="10" d="M786.9,385.5c2.3,1.5,2.199,3.6,1.8,4.8
			c-2.2,6.3-9.101,9.8-13.7,11l1.7-15.5v-0.3H786.9C786.8,385.5,786.9,385.5,786.9,385.5z"/>
		<path fill="#FFFFFF" stroke="#000000" stroke-width="0.5" stroke-miterlimit="10" d="M768.3,401.9h-2V401.3l1.2-15.5v-0.3h9.2v0.3
			l-1.7,15.5c-1.5,0.4-2.7,0.5-3.5,0.5L768.3,401.9z"/>
		<path fill="#FFFFFF" stroke="#000000" stroke-width="0.5" stroke-miterlimit="10" d="M767.5,385.5v0.3l-1.2,15.5v0.601l-6.1,0.1
			c-3.4,0-6.2-3.5-6.2-7.9v-0.8c0-4.3,2.8-7.899,6.2-7.899h7.3V385.5z"/>
		<path fill="#FFFFFF" stroke="#000000" stroke-width="0.5" stroke-miterlimit="10" d="M706.4,334.4c2.5,0.1,4.399,1.8,4.399,3.8
			l-0.5,19.2c0,2-2.1,3.6-4.5,3.6l-14.3-0.3c-2.5-0.101-4.4-1.8-4.4-3.8l0.5-19.2c0-2,2.101-3.601,4.5-3.601L706.4,334.4z"/>
		<path fill="#FFFFFF" stroke="#000000" stroke-width="0.5" stroke-miterlimit="10" d="M793.3,320l-0.3,2c1,8-20,10-20,10
			c-19,5-157-20-157-20c-6.1,0-13.4-6-15.3-7.6c78.899-7.4,148.6,5.3,189.399,15C791.3,319.6,792.3,319.8,793.3,320z"/>
		<path fill="#FFFFFF" stroke="#000000" stroke-width="0.5" stroke-miterlimit="10" d="M617,326.5c-39.5,0-71.5,32-71.5,71.5
			c0,2.5,0.2,5.2,0.4,8H542.8c-1.3-14-3.2-31.2,13.9-52.3h0.1l-6.399-43.8c14.3-1.601,29.199-3.4,45.5-5.101
			c1.6-0.2,3.199-0.3,4.8-0.5c1.8,1.601,9.2,7.601,15.3,7.601c0,0,138,25,157,20c0,0,21-2,20-10l0.3-2c4.601,0.8,7.9,0.8,10.2,2.3
			c5,3.3,4.5,5.6,3.3,10c-1,3.5-5.1,7.3-5.8,7.8c-9.1,6,2,30-14.1,45.5c0,0,0,0-0.101,0h-10.1h-9.2h-7.3c-3.4,0-6.2,3.5-6.2,7.9v0.8
			c0,4.3,2.8,7.899,6.2,7.899l6.1-0.1h2v0.1c-1.5,1.4-3,2.7-4.399,4l-75.5,1c0-3.1,0.1-6.199,0.1-9
			C688.5,358.5,656.5,326.5,617,326.5z M710.8,338.2c0.101-2-1.899-3.7-4.399-3.8L692.1,334.1c-2.5-0.1-4.5,1.5-4.5,3.601l-0.5,19.2
			c-0.1,2,1.9,3.699,4.4,3.8l14.3,0.3c2.5,0.1,4.5-1.5,4.5-3.6L710.8,338.2z"/>
		<path fill="#FFFFFF" stroke="#000000" stroke-width="0.5" stroke-miterlimit="10" d="M360.3,196c4.3,0,1.9,5.1,1.9,5.1l-31,90.4
			l-5.3,3.7l-79,0.5c32.6-60,73.2-88.2,102.6-101.4l0.2,0.4L360.3,196z"/>
		<path fill="#FFFFFF" stroke="#000000" stroke-width="0.5" stroke-miterlimit="10" d="M545.9,406c-0.2-2.8-0.4-5.5-0.4-8
			c0-39.5,32-71.5,71.5-71.5s71.5,32,71.5,71.5c0,2.8-0.1,5.9-0.1,9c0,6.5,0.3,13,2.5,15.8l-22.601-0.1l-0.5-2.8
			c3.9-7.5,4.3-13,4.3-22c0-30.4-24.6-55-55-55c-30.399,0-55,24.6-55,55c0,9.1,0.801,14.699,4.801,22.3L565,423h-22.7l0,0
			C546.7,420.3,546.4,413.2,545.9,406z"/>
		<path fill="#FFFFFF" stroke="#000000" stroke-width="0.5" stroke-miterlimit="10" d="M460.4,420c-3.101,0-5.601-5.1-5.601-11.4
			V406h88c0.2,2.5,0.4,5,0.5,7.3c0.2,5.4-2.8,5.9-2.8,5.9l-0.3-0.101L460.4,420z"/>
		<path fill="#FFFFFF" stroke="#000000" stroke-width="0.5" stroke-miterlimit="10" d="M545.9,406c0.5,7.2,0.8,14.3-3.601,17l0,0
			L291,423.5V423c-3.5-3.5-3.3-10.3-2.9-17h48.7v3.3c0,5.5,3.101,10.2,5.7,10.2l104.8,0.3c2.5,0,3.101-1.7,3.101-7.2V406h4.399v2.6
			c0,6.301,2.5,11.4,5.601,11.4l79.8-0.8l0.3,0.1c0,0,3-0.5,2.8-5.899c-0.1-2.301-0.3-4.801-0.5-7.301h3.101V406z"/>
		<path fill="#FFFFFF" stroke="#000000" stroke-width="0.5" stroke-miterlimit="10" d="M450.4,406v6.6c0,5.4-0.601,7.2-3.101,7.2
			l-104.8-0.3c-2.5,0-5.7-4.8-5.7-10.2V406H450.4L450.4,406z"/>
		<path fill="#FFFFFF" stroke="#000000" stroke-width="0.5" stroke-miterlimit="10" d="M444.5,201v90.5c0,2.8-1.9,5-4.2,5l-88.6-1.5
			c-2.3,0-4.2-2.2-4.2-5l24.8-89c0-2.8,1.9-5,4.2-5h63.8C442.6,196,444.5,198.2,444.5,201z"/>
		<path fill="#FFFFFF" stroke="#000000" stroke-width="0.5" stroke-miterlimit="10" d="M433.6,333.9c0.301,0,0.601-0.101,0.9-0.101
			c5.6-0.8,9.4-5.1,9-7.7c-0.4-2.5-5.2-4-10.9-3.199c-5.699,0.8-9.899,3.5-9.6,6.1C423.5,331.5,428.3,334.3,433.6,333.9z M449.9,318
			l0.5,88H336.8l0.2-92.6C383.2,317.6,418.8,318.7,449.9,318z"/>
		<path fill="#FFFFFF" stroke="#000000" stroke-width="0.5" stroke-miterlimit="10" d="M288.1,406c-0.4,6.7-0.7,13.5,2.9,17v0.5
			h-22.5l-1.3-2.3c3.8-7.5,4.8-14.3,4.8-23.3c0-30.4-24.6-55-55-55s-55,24.6-55,55c0,8.899,1.2,15.8,5,23.3l-1.8,2.3l-22.2,0.6
			c8.5-4.3,4-10.3,3.3-15.1c0-0.3-0.1-0.7-0.1-1c-0.5-3.3-0.7-6.6-0.7-10c0-39.5,32-71.5,71.5-71.5s71.5,32,71.5,71.5
			C288.5,400.5,288.3,403.3,288.1,406z"/>
		<path fill="#FFFFFF" stroke="#000000" stroke-width="0.5" stroke-miterlimit="10" d="M146.3,409c0.8,4.8,5.2,10.8-3.3,15.1L79,426
			c-3.3,0-6-2.2-6-5l-3.1-4c6-2.3,12.1-4.3,17.9-6l58.1-3h0.2C146.2,408.3,146.3,408.7,146.3,409z"/>
		<path fill="#FFFFFF" stroke="#000000" stroke-width="0.5" stroke-miterlimit="10" d="M87.9,411c-5.8,1.8-11.9,3.7-17.9,6
			c-2.4,0.9-4.9,1.9-7.3,3c-7.4,3.3-19.3-10.7-14.7-22.7c0.5-1.3,2.3-2.7,5-4c2.2-1.1,4.9-2.1,8.1-3c23-6.899,67.6-10,64.6,5.4
			C124.5,401.6,107.7,405,87.9,411z"/>
		<path fill="#FFFFFF" stroke="#000000" stroke-width="0.5" stroke-miterlimit="10" d="M51,348.7c0,0,12,12.7,10,41.3l0.1,0.3
			c-3.2,1-5.9,2-8.1,3c-0.6-0.7-22.4-25.1-36.4-45.3l0,0C16.7,348,44.7,339.3,51,348.7z"/>
		<path fill="#FFFFFF" stroke="#000000" stroke-width="0.5" stroke-miterlimit="10" d="M14.3,336c0,0-0.8,5.1,0,8.6
			c-3.9-6-7-11.399-8.3-15.6c0,0,3-0.7,5.3-3.7C11.3,325.3,11.3,335.7,14.3,336z"/>
		<path fill="#FFFFFF" stroke="#000000" stroke-width="0.5" stroke-miterlimit="10" d="M20.1,314.5c0.4-0.1,0.9-0.2,1.3-0.2
			c-1.9,2.8-5.5,3.9-9,3.101c-0.9-0.2-1.8-0.601-2.7-1.101c-4.4-2.5-6.1-7.7-3.9-11.6c1.1-1.9,3-3.2,5.2-3.7l0.3,0.2
			c-0.1,0.1-0.2,0.2-0.2,0.399c-2.2,3.9-0.5,9.101,3.9,11.601C16.7,314.1,18.4,314.5,20.1,314.5z"/>
		<path fill="#FFFFFF" stroke="#000000" stroke-width="0.5" stroke-miterlimit="10" d="M242.4,302.7c-1.9,4.3-7.8,5.3-10.8,5.2
			C189.9,306.1,71,329,71,329c-9,3-14,0-14,0l-31-15C26,314,129.1,288.2,242.4,302.7z"/>
		<path fill="#FFFFFF" stroke="#000000" stroke-width="0.5" stroke-miterlimit="10" d="M11.3,325.3C9,328.3,6,329,6,329
			c-0.6-1.7,0.5-7.7,6.5-11.6c3.5,0.8,7.1-0.301,9-3.101c1.4-0.2,2.9-0.3,4.5-0.3l31,15c0,0,5,3,14,0c0,0,118.9-22.9,160.6-21.1
			c3,0.1,8.9-1,10.8-5.2c0.9,0.1,1.8,0.2,2.6,0.3c35,4.7,65.3,8,92,10.4l-0.2,92.6h-48.7c0.2-2.7,0.4-5.5,0.4-8
			c0-39.5-32-71.5-71.5-71.5s-71.5,32-71.5,71.5c0,3.4,0.2,6.7,0.7,10H146l-58.1,3c19.9-6,36.6-9.4,37.8-15.3
			c3.1-15.3-41.6-12.3-64.6-5.4L61,390c2-28.7-10-41.3-10-41.3c-6.3-9.3-34.3-0.7-34.3-0.7l0,0c-0.8-1.2-1.6-2.3-2.3-3.4l0,0
			c-0.8-3.5,0-8.6,0-8.6C11.3,335.7,11.3,325.3,11.3,325.3z"/>
	</g>
	<path fill="#FFFFFF" stroke="#000000" stroke-width="0.5" stroke-miterlimit="10" d="M78.1,369.3c1.6,9.3,4,15.5-1.3,16.4
		c-5.3,0.899-10.9-5.8-12.5-15.101c-1.6-9.3,1.4-17.5,6.7-18.399C76.4,351.3,76.5,360.1,78.1,369.3z"/>
</g>
</svg>
