<?xml version="1.0" encoding="utf-8"?>
<!-- Generator: Adobe Illustrator 15.0.0, SVG Export Plug-In . SVG Version: 6.00 Build 0)  -->
<!DOCTYPE svg PUBLIC "-//W3C//DTD SVG 1.1//EN" "http://www.w3.org/Graphics/SVG/1.1/DTD/svg11.dtd">
<svg version="1.1" id="layer_x5F_www.ABC-color.com"
	 xmlns="http://www.w3.org/2000/svg" xmlns:xlink="http://www.w3.org/1999/xlink" x="0px" y="0px" width="822px" height="567px"
	 viewBox="0 0 822 567" enable-background="new 0 0 822 567" xml:space="preserve">
<polygon fill="#FFFFFF" stroke="#000000" stroke-width="2" points="823,315.3 823,568 462.3,568 "/>
<path fill="#FFFFFF" stroke="#000000" stroke-width="2" d="M534.9,274.5c1.3,0,2.398,2.4,2.398,5.4s-1.1,5.4-2.398,5.4H516.6
	c-1.3,0-2.398-2.4-2.398-5.4c0-1.5,0.3-2.8,0.7-3.8c0.398-1,1.1-1.6,1.698-1.6H534.9z"/>
<path fill="#FFFFFF" stroke="#000000" stroke-width="2" d="M197,418.6v0.4c-1.1,7.2-25,13-25,13l-15.7,0.5
	c-42.3,1.1-58.9-29.4-60.2-32c26.2,6.7,41,14.4,66.7,16.5C173.4,417.7,184.9,418.2,197,418.6z"/>
<path fill="#FFFFFF" stroke="#000000" stroke-width="2" d="M1.2,240l148.5,0.7v0.5c-4.3,0.2-8.7,0.6-13,1.3
	c0,0-162.5,20.7-100,104.2l4.6,5.8l-0.3,0.3L1,375.3V242.7C1,242.7,1,241.7,1.2,240z"/>
<path fill="#FFFFFF" stroke="#000000" stroke-width="2" d="M490.8,246.6c0.2,0,0.3-0.1,0.5-0.2c0,0,27.7-31,11.3,6
	c0,0-15.3,10.3-43.3,2c0,0,10.4-6.8,14.7-6.8C478.3,247.7,483.5,248.8,490.8,246.6z"/>
<path fill="#FFFFFF" stroke="#000000" stroke-width="2" d="M488.3,242.5c-0.898-2.1-1.3-4.4-1.3-6.8c0-9.2,7-16.7,15.6-16.7
	c8.602,0,15.602,7.5,15.602,16.7c0,2.3-0.4,4.5-1.2,6.5c-2.4,6-7.9,10.2-14.4,10.2c16.302-37-11.3-6-11.3-6
	c-0.2,0.1-0.3,0.1-0.5,0.2C489.8,245.4,489,244,488.3,242.5z"/>
<path fill="#FFFFFF" stroke="#000000" stroke-width="2" d="M479.4,179.7c0,0,73.3-14.3,61.398,63.2l-22.6-0.4l-1.2-0.3
	c0.8-2,1.2-4.2,1.2-6.5c0-9.2-7-16.7-15.602-16.7c-8.6,0-15.6,7.5-15.6,16.7c0,2.4,0.5,4.7,1.3,6.8l-16.398-0.8
	C471.9,241.7,468.7,183.3,479.4,179.7z"/>
<path fill="#FFFFFF" stroke="#000000" stroke-width="2" d="M454.7,178.5c10.8,7.1,7.5,62,7.5,62c0,3.6-267.1-4.8-267.1-4.8
	c2.1,0,3.2-4.8,5.4-7.2c9.7-16.7,14-40.5,43.7-63.1l177.1,2.3C442.8,169,454.7,178.5,454.7,178.5z"/>
<path fill="#FFFFFF" stroke="#000000" stroke-width="2" d="M299.5,315v6c0,7.9-5.8,14.3-12.9,14.3h-45.2
	c-7.1,0-12.9-6.399-12.9-14.3v-6c0-7.9,5.8-14.3,12.9-14.3h45.2C293.8,300.7,299.5,307.1,299.5,315z"/>
<polygon fill="#FFFFFF" stroke="#000000" stroke-width="2" points="184.4,299 193,315.7 184.3,332.3 166.9,332.2 158.3,315.5 
	167,298.9 "/>
<path fill="#FFFFFF" stroke="#000000" stroke-width="2" d="M131.5,310.3v6c0,7.9-5.8,14.3-12.9,14.3H73.3
	c-7.1,0-12.9-6.398-12.9-14.3v-6c0-7.899,5.8-14.3,12.9-14.3h45.3C125.7,296,131.5,302.3,131.5,310.3z"/>
<path fill="#FFFFFF" stroke="#000000" stroke-width="2" d="M130.4,360.6c11,0,19.9,5.5,19.9,12.2s-8.9,12.2-19.9,12.2
	s-19.9-5.5-19.9-12.2S119.4,360.6,130.4,360.6z"/>
<path fill="#FFFFFF" stroke="#000000" stroke-width="2" d="M224.1,360.3c11.6,0,21,6,21,13.4c0,7.399-9.4,13.399-21,13.399
	s-21-6-21-13.399C203.1,366.3,212.5,360.3,224.1,360.3z"/>
<path fill="#FFFFFF" stroke="#000000" stroke-width="2" d="M437.7,455.7c1.8,0.5,3.8,0.8,5.8,1.1l-0.1,0.5l-62-7
	c0,0-9.802,0.3-18.4-30.7v-1c11.4,0.102,22.3,0.302,32.4,0.602c0,0-6.5-19.102,3.198-45.301C398.6,374,394.6,444.6,437.7,455.7z"/>
<path fill="#FFFFFF" stroke="#000000" stroke-width="2" d="M489,387l1.4,0.3c-0.602,3.5-1.802,7-3.5,10.4
	c-6.9,13.5-18.302,21.7-28.802,22V419.1C458,419,454,384,489,387z"/>
<path fill="#FFFFFF" stroke="#000000" stroke-width="2" d="M435.3,365.7c0,0,33.7,25.3,3.7,42.3l-0.1,0.1
	C431.6,396.9,428.2,379.4,435.3,365.7z"/>
<path fill="#FFFFFF" stroke="#000000" stroke-width="2" d="M476.2,350.2c4.8,3,8.898,8,11.5,14.1C462.9,394.7,446,354,446,354
	l-0.6-0.8C455.1,345.6,467.3,344.6,476.2,350.2z"/>
<path fill="#FFFFFF" stroke="#000000" stroke-width="2" d="M458,419.6c-3.8,0.102-7.4-0.8-10.6-2.898c-3.102-2-6-5-8.5-8.7l0.1-0.1
	c30-17.001-3.7-42.302-3.7-42.302c2.7-5.3,6.2-9.398,10.102-12.5l0.6,0.801c0,0,16.9,40.699,41.7,10.301c3,6.8,4.2,14.8,2.7,22.898
	L489,387c-35-3-31,32-31,32V419.6z"/>
<path fill="#FFFFFF" stroke="#000000" stroke-width="2" d="M487.7,364.3c-2.7-6.1-6.7-11.1-11.5-14.1
	c-8.9-5.601-21.102-4.601-30.8,3c-3.9,3.1-7.4,7.2-10.102,12.5c-7,13.7-3.7,31.2,3.602,42.398c2.5,3.7,5.3,6.7,8.5,8.7
	c3.3,2,6.898,3,10.6,2.9c10.5-0.3,21.9-8.4,28.8-22c1.8-3.4,2.9-6.9,3.5-10.4C491.9,379.2,490.7,371.1,487.7,364.3z M510.7,344.2
	c0,0,11.898,27.399,9.7,47.7C512.9,456.3,460.1,456.3,460.1,456.3c-6.1,1-11.6,1.102-16.6,0.5c-2-0.3-3.9-0.6-5.8-1.1
	c-43.102-11.102-39-81.7-39-81.7S447.1,271.5,510.7,344.2z"/>
<path fill="#FFFFFF" stroke="#000000" stroke-width="2" d="M679.8,378.6c0.8,0.2,1.5,0.301,2.3,0.5l-37.8,0.9
	c-8.6-1.2-14-20.3-14-20.3l-2.6-0.5c14-5.2,24.3-9.2,25.2-10.3C652.9,349,659,373.7,679.8,378.6z"/>
<path fill="#FFFFFF" stroke="#000000" stroke-width="2" d="M695,355.1c5.7-1.1,10.8-4.199,14.6-8.6c4.602-5.2,7.302-12.3,7.302-20.2
	c0-8.2-3-15.6-8-20.899c10.6-5.101,19.398-6.101,22.5,1.801c15.1,52.5-32.302,70.3-32.302,70.3c-6.5,1.899-12.198,2.2-17.1,1.5
	c-0.8-0.101-1.6-0.3-2.3-0.5c-20.8-4.899-26.9-29.601-26.9-29.601c0.8-0.899,5.5-5.399,12.102-11.399l1.3,0.101
	c4,10.5,13.398,17.801,24.3,17.801C692.1,355.5,693.5,355.4,695,355.1z"/>
<path fill="#FFFFFF" stroke="#000000" stroke-width="2" d="M695,355.1c-1.4,0.301-2.9,0.4-4.4,0.4c-10.898,0-20.3-7.3-24.3-17.8
	L665,337.6c3.1-2.8,6.7-5.898,10.6-9.1l0.4,0.5C693.1,326.3,694.8,350.3,695,355.1z"/>
<path fill="#FFFFFF" stroke="#000000" stroke-width="2" d="M709,305.4c4.9,5.3,8,12.699,8,20.898c0,7.801-2.8,15-7.3,20.2L709,346
	c0,0-22.8-22.8-5.3-37.8C705.5,307.2,707.3,306.3,709,305.4z"/>
<path fill="#FFFFFF" stroke="#000000" stroke-width="2" d="M709,346l0.6,0.5c-3.8,4.4-8.898,7.5-14.6,8.6
	c-0.2-4.898-1.9-28.8-19-26.1l-0.4-0.5c8.802-7.3,18.9-14.9,28.2-20.3C686.2,323.2,709,346,709,346z"/>
<path fill="#FFFFFF" stroke="#000000" stroke-width="2" d="M759.4,254.4c1.6,6.7-1.9,13.5-7.9,15.4l-12.5,3.8
	c-6,1.8-12.2-2.1-13.9-8.8c-0.3-1.1-0.398-2.2-0.398-3.3c0-5.5,3.3-10.5,8.3-12.1l12.5-3.8C751.6,243.8,757.8,247.7,759.4,254.4z"/>
<path fill="#FFFFFF" stroke="#000000" stroke-width="2" d="M427.9,145.5C462.5,149,497.3,157,532,170.1
	c25.2,9.5,50.4,21.7,75.4,36.9l0.1-0.1c71.1-45.1,196.2-84.5,196.2-84.5c0,19.1-52.8,99-52.8,99c24.8,2.4,34.5,22.7,34.5,22.7
	c-6.5,47.7-53.9,63.2-53.9,63.2c-3.1-8-11.9-7-22.5-1.8c-1.7,0.8-3.5,1.8-5.3,2.8c-9.3,5.3-19.4,13-28.2,20.3
	c-3.9,3.2-7.4,6.301-10.6,9.102c-6.7,6-11.302,10.5-12.102,11.398c-0.898,1-11.1,5-25.2,10.301C593.1,372.2,535.4,392.1,535.4,392.1
	c-12.5,5.102-15.102,0-15.102,0c2.2-20.3-9.7-47.699-9.7-47.699c-63.5-72.699-112,29.801-112,29.801
	c-9.698,26.2-3.198,45.3-3.198,45.3c-10.102-0.4-21-0.6-32.4-0.6c-51.7-0.4-114,1.398-166-0.102c-12.1-0.3-23.6-0.898-34.3-1.601
	c-25.7-2.101-40.5-9.799-66.7-16.5c-3.4-0.899-7-1.699-10.9-2.601c-2.1-0.5-11.9-5.999-14.1-8.1L41.2,352.6l-4.6-5.801
	c-62.5-83.5,100-104.2,100-104.2c4.3-0.7,8.7-1,13-1.3c15.2-0.8,30.3,0.2,45.4-5.4c0,0,267.1,8.3,267.1,4.8c0,0,3.2-54.8-7.5-62
	c0,0-11.8-9.5-33.398-10.7l-177.1-2.3C303.8,147.2,365.5,139.2,427.9,145.5z M751.5,269.8c6-1.8,9.6-8.7,7.9-15.4
	c-1.602-6.7-7.9-10.6-13.9-8.8l-12.5,3.8c-5,1.5-8.3,6.6-8.3,12.1c0,1.1,0.1,2.2,0.398,3.3c1.7,6.7,7.9,10.6,13.9,8.8L751.5,269.8z
	 M540.8,242.9c11.9-77.5-61.398-63.2-61.398-63.2c-10.802,3.6-7.5,62-7.5,62l16.398,0.8c0.602,1.5,1.4,2.9,2.4,4.1
	c-7.3,2.2-12.5,1-16.7,1c-4.3,0-14.7,6.8-14.7,6.8c28,8.3,43.3-2,43.3-2c6.5,0,12-4.2,14.4-10.2l1.2,0.3L540.8,242.9z M537.3,279.8
	c0-3-1.1-5.4-2.398-5.4H516.6c-0.698,0-1.3,0.6-1.698,1.6c-0.4,1-0.7,2.3-0.7,3.8c0,3,1.1,5.4,2.398,5.4H534.9
	C536.3,285.2,537.3,282.8,537.3,279.8z M299.5,321v-6c0-7.9-5.8-14.3-12.9-14.3h-45.2c-7.1,0-12.9,6.399-12.9,14.3v6
	c0,7.9,5.8,14.3,12.9,14.3h45.2C293.8,335.3,299.5,328.9,299.5,321z M245.1,373.7c0-7.4-9.4-13.4-21-13.4s-21,6-21,13.4
	c0,7.399,9.4,13.399,21,13.399S245.1,381.1,245.1,373.7z M193,315.7l-8.6-16.7l-17.4-0.1l-8.8,16.6l8.6,16.7l17.4,0.1L193,315.7z
	 M150.4,372.8c0-6.8-8.9-12.2-19.9-12.2s-19.9,5.5-19.9,12.2s8.9,12.2,19.9,12.2C141.4,385.1,150.4,379.6,150.4,372.8z M131.5,316.2
	v-6c0-7.9-5.8-14.3-12.9-14.3H73.3c-7.1,0-12.9,6.398-12.9,14.3v6c0,7.899,5.8,14.3,12.9,14.3h45.3
	C125.7,330.5,131.5,324.1,131.5,316.2z"/>
<path fill="#FFFFFF" stroke="#000000" stroke-width="2" d="M458.2,131.7C516.9,106.3,573.6,88.4,573.6,88.4
	c0,13.4-26.1,56.8-41.6,81.5l-0.1,0.2C497.2,157,462.4,149,427.8,145.5C437.9,140.7,448.1,136.1,458.2,131.7z"/>
<path fill="#FFFFFF" stroke="#000000" stroke-width="2" d="M458.2,131.7c-10.2,4.4-20.4,9-30.3,13.8c-62.4-6.4-124.102,1.7-183.8,20
	c-29.7,22.5-34,46.4-43.7,63.1c-2.1,2.4-3.2,7.2-5.4,7.2c-15.1,5.6-30.2,4.6-45.4,5.4v-0.5L1.2,240c0.9-9.6,5.6-41.8,27.1-40.7
	c0,0,6.7-56,54-44.7c0,0,21.3-52.7,68.7-35.3c0,0,38.7-48,80.7-15.3c0,0,39.3-38,82.7-0.7c0,0,62.698-29.3,74.698,1.3
	C389,104.7,444.8,88.7,458.2,131.7z"/>
<path fill="#FFFFFF" stroke="#000000" stroke-width="2" d="M823,1v242.3l-37.6,0.8c0,0-9.7-20.3-34.5-22.7c0,0,52.8-79.9,52.8-99
	c0,0-125.102,39.4-196.2,84.5l-0.1,0.1c-25-15.2-50.2-27.4-75.4-36.9l0.1-0.2c15.5-24.6,41.602-68.1,41.602-81.5
	c0,0-56.7,17.8-115.4,43.3c-13.5-43-69.2-27.1-69.2-27.1c-12-30.7-74.698-1.3-74.698-1.3C271,66,231.7,104,231.7,104
	c-42-32.7-80.7,15.3-80.7,15.3c-47.3-17.3-68.7,35.3-68.7,35.3c-47.3-11.3-54,44.7-54,44.7C6.8,198.2,2.1,230.4,1.2,240H1V1H823z"/>
<path fill="none" stroke="#000000" stroke-width="2" d="M607.8,206.3c-19.8,12.6-35.398,25.6-43,38.3"/>
<path fill="none" stroke="#000000" d="M222.3,237.5c0,0-92.6,20.3-92.6,29.8"/>
<path id="www.ABC-color.com" fill="none" stroke="#000000" d="M439.9,241.1c0,0-125,44.1-136.801,40.5"/>
<path fill="none" stroke="#000000" d="M298.8,317.4c0,0,93.7-1.2,160.5-48.9L579.9,257.8"/>
<line fill="none" stroke="#000000" stroke-width="2" x1="751.2" y1="220.8" x2="659.6" y2="242.3"/>
<line fill="none" stroke="#000000" stroke-width="2" x1="553" y1="244.6" x2="584.2" y2="244.6"/>
<path fill="none" stroke="#000000" d="M24.1,300.7c0,0,26.9,14.3,36.6,8.899"/>
<path fill="none" stroke="#000000" d="M546.5,243.5c0,0,2.2,6,3.2,15.5c0,0,34.5,38.1,23.7,114.4"/>
<line fill="none" stroke="#000000" x1="201.3" y1="314.6" x2="224.3" y2="315.4"/>
<line fill="none" stroke="#000000" x1="138.3" y1="312.4" x2="152.3" y2="312.9"/>
</svg>
