<?xml version="1.0" encoding="utf-8"?>
<!-- Generator: Adobe Illustrator 15.0.0, SVG Export Plug-In . SVG Version: 6.00 Build 0)  -->
<!DOCTYPE svg PUBLIC "-//W3C//DTD SVG 1.1//EN" "http://www.w3.org/Graphics/SVG/1.1/DTD/svg11.dtd">
<svg version="1.1" id="www.ABC-color.com" xmlns="http://www.w3.org/2000/svg" xmlns:xlink="http://www.w3.org/1999/xlink" x="0px"
	 y="0px" width="822px" height="567px" viewBox="0 0 822 567" enable-background="new 0 0 822 567" xml:space="preserve">
<path fill="#FFFFFF" stroke="#000000" stroke-miterlimit="10" d="M746.1,365.6l-6.699,1.602l-3.4,0.8c-3-20.399-20.8-19-20.8-19
	c-24.8-1.2-35.101,36.5-35.101,36.5l-1.8,0.5l-7.3,2.2l-8.801,2.6c0,0,0-69.5,61.601-62.1C723.6,328.7,745.9,333,746.1,365.6z"/>
<path fill="#FFFFFF" stroke="#000000" stroke-miterlimit="10" d="M709.9,382.5c3.8,0,6.899,3.1,6.899,7s-3.101,7-6.899,7
	c-3.8,0-6.899-3.1-6.899-7S706.1,382.5,709.9,382.5z"/>
<path fill="#FFFFFF" stroke="#000000" stroke-miterlimit="10" d="M709.1,373.7c8,0,14.5,7,14.5,15.5c0,8.6-6.5,15.5-14.5,15.5
	s-14.5-7-14.5-15.5S701.1,373.7,709.1,373.7z M716.8,389.4c0-3.801-3.101-7-6.899-7c-3.8,0-6.9,3.1-6.9,7c0,3.898,3.101,7,6.9,7
	C713.699,396.4,716.8,393.3,716.8,389.4z"/>
<path fill="#FFFFFF" stroke="#000000" stroke-miterlimit="10" d="M739.5,367.7c0.899,52.7-13.301,62.2-31.5,62.8
	c-32.2,1.1-29.7-44.1-29.7-44.1l-0.101-0.4l1.801-0.5c0,0,10.3-37.6,35.1-36.5c0,0,17.801-1.4,20.801,19l3.399-0.8L739.5,367.7z
	 M723.6,389.2c0-8.601-6.5-15.5-14.5-15.5s-14.5,7-14.5,15.5c0,8.6,6.5,15.5,14.5,15.5C717.199,404.7,723.6,397.8,723.6,389.2z"/>
<path fill="#FFFFFF" stroke="#000000" stroke-miterlimit="10" d="M739.3,367.2l6.7-1.601c0,0.101,0,0.199,0,0.301
	c0,0,5,19.5-4.9,47.1c-3.699,10.3-10,27.4-39.399,27.4c-8.899-2.2-18.8-6.802-25.7-20c-9.1-17.4-5.199-31.9-5.199-31.9l-0.101-0.3
	l7.3-2.2l0.101,0.4c0,0-2.5,45.1,29.7,44.1c18.199-0.6,32.3-10.1,31.5-62.8L739.3,367.2L739.3,367.2z"/>
<path fill="#FFFFFF" stroke="#000000" stroke-miterlimit="10" d="M701.8,440.3l-23.601-2.2c-12.601,0.302-21.8-33-21.899-45.398
	l-0.101-0.301l5.801-1.699l8.8-2.602l0.101,0.301c0,0-4,14.501,5.199,31.899C683,433.5,692.8,438.2,701.8,440.3z"/>
<path fill="#FFFFFF" stroke="#000000" stroke-miterlimit="10" d="M58.7,474.7c0,0,42.699,5.5,99,10.7
	C138.3,523.1,95.2,511.3,95.2,511.3C63.5,503.8,58.7,474.7,58.7,474.7z"/>
<path fill="#FFFFFF" stroke="#000000" stroke-miterlimit="10" d="M253.3,433.3c1.5,0.102,2.7,1.3,2.7,2.7l-0.9,16.9
	c-0.1,1.398-1.399,2.5-2.899,2.398l-96.9-4.3c-1.5-0.1-2.7-1.3-2.7-2.7l0.9-16.898c0.1-1.4,1.399-2.5,2.899-2.5L253.3,433.3z"/>
<path fill="#FFFFFF" stroke="#000000" stroke-miterlimit="10" d="M441.6,409.9c0,0-1.399,32.198-29.3,53.898l-5.899,7.3
	c0,0-267.699,13.4-353.601-15c-1.4-0.5-2.6-1.1-3.8-2c-9.5-7.5-9.2-29.1-6-50.398c17,1.8,136,14.7,165.899,14.3
	C209,418,430.1,419.9,441.6,409.9z M255.9,436c0.101-1.4-1.1-2.6-2.699-2.7l-96.9-4.3c-1.5-0.1-2.8,1-2.9,2.5l-0.899,16.9
	c-0.101,1.398,1.1,2.6,2.7,2.698L252.1,455.4c1.5,0.1,2.9-1,2.9-2.4L255.9,436z"/>
<path fill="#FFFFFF" stroke="#000000" stroke-miterlimit="10" d="M157.8,485.4c-56.4-5.2-99-10.7-99-10.7s-20.5,0.3-10-8.3
	c4-4.602,0.3-12.302,0.3-12.302c1.101,0.9,2.4,1.5,3.8,2c85.801,28.4,353.601,15,353.601,15s0.199,7.5-2.101,8.2
	c-6.301,2-6.301,10.102-6.301,10.102C345.8,499.6,237.9,492.8,157.8,485.4z"/>
<path fill="#FFFFFF" stroke="#000000" stroke-miterlimit="10" d="M446.6,459.9c5.601-5.4,6-7.9,5.801-6.2c0,0.1,0,0.3,0,0.398
	l12.3-4.5C465,453.8,470.1,513.9,516.5,516.4v0.1l-40.301-2.7C454.6,502.8,448.199,470.7,446.6,459.9z"/>
<path fill="#FFFFFF" stroke="#000000" stroke-miterlimit="10" d="M570.5,417.7c3,9.6,1.6,38.398,1.6,38.398
	c-4.1,50.102-44,59.7-44,59.7c-4.1,0.5-8,0.7-11.6,0.5c-46.4-2.5-51.5-62.6-51.801-66.8l10-3.7c3.899,55.3,33,62.102,33,62.102
	C530.8,512.9,546,494,546,494c24.399-29.4,15.5-73.6,15.5-73.6L570.5,417.7z"/>
<path fill="#FFFFFF" stroke="#000000" stroke-miterlimit="10" d="M517.8,427.8c10.7,0,19.3,9.2,19.3,20.602
	c0,11.398-8.699,20.6-19.3,20.6c-10.7,0-19.399-9.2-19.399-20.6C498.5,437,507.1,427.8,517.8,427.8z M528,448.4
	c0-5.7-4.601-10.302-10.2-10.302c-5.601,0-10.2,4.602-10.2,10.302c0,5.698,4.601,10.3,10.2,10.3C523.4,458.7,528,454.1,528,448.4z"
	/>
<path fill="#FFFFFF" stroke="#000000" stroke-miterlimit="10" d="M517.8,438.2c5.601,0,10.2,4.6,10.2,10.3s-4.601,10.3-10.2,10.3
	c-5.601,0-10.2-4.6-10.2-10.3S512.199,438.2,517.8,438.2z"/>
<path fill="#FFFFFF" stroke="#000000" stroke-miterlimit="10" d="M474.699,445.9c4.399,0.1,2.5-5.5,2.5-5.5s5.399-38.4,39.301-50.5
	c0,0,29.199-5.301,38.1,26.6c1.301,4.5,4.801,4.5,4.801,4.5l2-0.6c0,0,8.899,44.198-15.5,73.6c0,0-15.2,18.9-38.301,13.9
	C507.6,507.9,478.5,501.1,474.699,445.9z M537.199,448.4c0-11.4-8.699-20.602-19.3-20.602c-10.7,0-19.399,9.2-19.399,20.602
	c0,11.398,8.699,20.6,19.399,20.6C528.5,469,537.199,459.8,537.199,448.4z"/>
<path fill="#FFFFFF" stroke="#000000" stroke-miterlimit="10" d="M570.5,417.7l-9.101,2.7l-2,0.6c-0.101,0-3.601,0-4.801-4.5
	c-8.899-31.8-38.1-26.6-38.1-26.6c-33.9,12.1-39.301,50.5-39.301,50.5s1.899,5.6-2.5,5.5l-10,3.698l-12.3,4.5c0-0.198,0-0.3,0-0.398
	c0.899-6.3,12.699-86.7,53.101-95c43.5-8.9,40.699-18.4,69.399,57.7L570.5,417.7z"/>
<path fill="#FFFFFF" stroke="#000000" stroke-miterlimit="10" d="M412.9,362.9C428.1,369.6,426.3,397,426.3,397H403
	c-11.301,0-13.4-0.6-13.4-0.6l4.801-33.5H412.9z"/>
<path fill="#FFFFFF" stroke="#000000" stroke-miterlimit="10" d="M387,362.9l-5.9,33.5c0,0-39.399,1.8-53.699,0.6
	c-1-2.8-0.399-14.5-2.7-23.3c0,0,0.399-7.8,10-10.8H387L387,362.9z"/>
<path fill="#FFFFFF" stroke="#000000" stroke-miterlimit="10" d="M327.3,397c14.3,1.2,53.7-0.6,53.7-0.6l5.899-33.5h-52.301
	c-9.6,3-10,10.8-10,10.8C326.9,382.5,326.4,394.2,327.3,397z M406.9,355.7c22.601,0,28.8,44.3,24.101,46.898
	c-4.601,2.602-47,1.5-47,1.5c-9.801,0.5-62-2.1-62-2.1l-2.7-17.399c-4.8-22,7.2-25.899,7.2-25.899L406.9,355.7z M426.199,397
	c0,0,1.801-27.4-13.399-34.1h-18.601l-4.8,33.5c0,0,2.101,0.6,13.399,0.6H426.199z"/>
<path fill="#FFFFFF" stroke="#000000" stroke-miterlimit="10" d="M64.3,359.8c0-4.1-1.3-6.899-8.5-6.1l-0.4-0.2
	c0.4-1.2,0.801-2.4,1.301-3.6l0,0c0.8,0,38.8-1.2,41.399,9.699c0,0,7,21.899-2.7,37.301c0,0-12.199,1.5-50.3-4.301
	c0.3-1.301,0.5-2.601,0.8-3.899l6.5,1.1c2.301,0.601,5.301-2.7,5.301-2.7L64.3,359.8z M95.3,369.8c0.4-10.1-11.5-12.5-11.5-12.5
	l-9-0.8c-4-0.5-5.4,2.3-5.4,2.3l-7.6,28.4c-1.5,5.5,10.9,5,10.9,5l9.1,0.5c5.4,0.399,7.9,1,10-2.8L95.3,369.8z"/>
<path fill="#FFFFFF" stroke="#000000" stroke-miterlimit="10" d="M64.3,359.8l-6.8,27.4c0,0-3,3.3-5.3,2.7l-6.5-1.102
	c2.3-11.1,5-21.1,7-27.6c0.8-2.5,1.6-5,2.5-7.602l0.399,0.2C62.9,352.8,64.3,355.6,64.3,359.8z"/>
<path fill="#FFFFFF" stroke="#000000" stroke-miterlimit="10" d="M83.8,357.3c0,0,12,2.4,11.5,12.5L91.8,389.9
	c-2.1,3.8-4.6,3.1-10,2.8l-9.1-0.5c0,0-12.4,0.5-10.9-5l7.6-28.4c0,0,1.5-2.7,5.4-2.3L83.8,357.3z"/>
<path fill="#FFFFFF" stroke="#000000" stroke-miterlimit="10" d="M278.2,373.6c0-0.3,0-0.6,0-0.898c-0.4-6.7-6.301-12-13.7-12.102
	l-113.8-1.8c-6.9-0.1-12.7,4.4-13.9,10.5c-0.1,0.7-0.2,1.4-0.3,2.2l-0.101,8l-0.1,7.7c-0.1,7.1,6,12.898,13.7,13.1l113.8,1.8
	c6.5,0.102,12-3.898,13.7-9.398c0.3-1,0.5-2.102,0.5-3.2l0.1-6.899L278.2,373.6z M417.4,347.5c0,0,42.8,2.3,24.101,62.5
	c-11.4,9.9-232.5,8-232.5,8c-29.9,0.5-149-12.4-166-14.3c0.6-3.7,1.2-7.4,1.899-11.101C83,398.4,95.2,396.9,95.2,396.9
	c9.7-15.4,2.7-37.301,2.7-37.301c-2.7-10.899-40.6-9.8-41.4-9.699c0.5-1.301,1-2.7,1.5-4C82.7,346.8,381.4,358.4,417.4,347.5z
	 M431,402.6c4.699-2.6-1.6-46.899-24.1-46.899l-80.399,3.1c0,0-12,3.9-7.2,25.9L322,402.1c0,0,52.1,2.602,62,2.102
	C384,404.1,426.4,405.2,431,402.6z"/>
<path fill="#FFFFFF" stroke="#000000" stroke-miterlimit="10" d="M136.3,387.2l141.1,5.5c-1.699,5.5-7.199,9.5-13.699,9.398
	L150,400.2C142.3,400.1,136.1,394.3,136.3,387.2z"/>
<path fill="#FFFFFF" stroke="#000000" stroke-miterlimit="10" d="M278,382.5l-0.101,6.9c0,1.1-0.199,2.199-0.5,3.199l-141.1-5.5
	l0.1-7.699L278,382.5z"/>
<path fill="#FFFFFF" stroke="#000000" stroke-miterlimit="10" d="M278.2,372.7l-141.4-3.5c1.2-6,7-10.601,13.9-10.5l113.8,1.8
	C271.9,360.7,277.8,366,278.2,372.7z"/>
<path fill="#FFFFFF" stroke="#000000" stroke-miterlimit="10" d="M278.2,373.6l-0.2,8.9l-141.601-3l0.101-8c0-0.8,0.1-1.5,0.3-2.2
	l141.4,3.5C278.2,373,278.2,373.3,278.2,373.6z"/>
<polygon fill="#FFFFFF" stroke="#000000" stroke-miterlimit="10" points="274.5,275 265.6,305.9 240.1,305.9 232.7,331.8 200.9,333 
	209.3,305.9 183.4,304.9 192,275 217.5,275 225.2,248 256.7,248 249,275 "/>
<path fill="#FFFFFF" stroke="#000000" stroke-miterlimit="10" d="M310.9,33.3l28.199,1.3c-11,3.8-18.199,10.1-18.5,17.5
	c-0.3,7.4,6.2,14.4,16.801,19.2L309.2,70c-7.699-0.4-13.699-6.4-13.3-13.5l0.5-11C296.7,38.4,303.199,33,310.9,33.3z"/>
<path fill="#FFFFFF" stroke="#000000" stroke-miterlimit="10" d="M366.6,46c11.5,0.5,20.7,5,20.4,10c-0.2,5-9.801,8.5-21.301,8
	S345,59,345.3,54C345.5,49,355.1,45.4,366.6,46z"/>
<path fill="#FFFFFF" stroke="#000000" stroke-miterlimit="10" d="M396.1,37.3C406.6,42.1,413.2,49,412.9,56.5
	C412.5,64,405.3,70.3,394.4,74l0,0l-56.9-2.7c-10.6-4.8-17.1-11.7-16.801-19.2c0.301-7.5,7.601-13.7,18.5-17.5L396.1,37.3z M387,56
	c0.199-5-8.9-9.4-20.4-10c-11.5-0.5-21,3-21.3,8c-0.2,5,8.899,9.4,20.399,10C377.199,64.5,386.8,60.9,387,56z"/>
<path fill="#FFFFFF" stroke="#000000" stroke-miterlimit="10" d="M424.3,38.7c7.7,0.4,13.7,6.4,13.3,13.5l-0.5,11
	c-0.3,7.1-6.8,12.5-14.5,12.2L394.3,74l0,0c11-3.8,18.2-10,18.5-17.5c0.3-7.4-6.3-14.4-16.8-19.2L424.3,38.7z"/>
<path fill="#FFFFFF" stroke="#000000" stroke-miterlimit="10" d="M455.9,110.9C476.1,121.4,441.5,225,441.5,225
	c-142.301-20-302.9-5.5-302.9-5.5c42.8-87.7,74.3-110.4,74.3-110.4C307.5,55.9,455.9,110.9,455.9,110.9z M420.6,214.3
	c0,0,29.2-87.4,12-96.4c0,0-126.199-46.8-206.6-1.5c0,0-26.7,19.3-63.101,93.8C162.9,210.3,299.6,197.3,420.6,214.3z"/>
<path fill="#FFFFFF" stroke="#000000" stroke-miterlimit="10" d="M432.6,117.9c17.2,9-12,96.4-12,96.4c-121-17-257.7-4.1-257.7-4.1
	c36.4-74.5,63.1-93.8,63.1-93.8C306.4,71.2,432.6,117.9,432.6,117.9z"/>
<polygon fill="#FFFFFF" stroke="#000000" stroke-miterlimit="10" points="715.1,150.7 711.4,182.9 685.199,184.2 681.8,212.5 
	649.5,214.1 652.9,185.7 626.8,187 630.5,154.8 656.699,153.5 660.1,125.2 692.4,123.6 689,152 "/>
<path fill="#FFFFFF" stroke="#000000" stroke-miterlimit="10" d="M610,148.3c0,1.1-0.101,2.2-0.2,3.3l-4.7,50.2
	c1.7,24.2-38.5,22-38.5,22c-15.8-1.5-28.3-3.1-31.399-17.9c-0.7-3.4-1-7-0.601-10.6l4.7-50.2c1.8-19.5,19.101-33.8,38.5-32
	C596.3,114.9,610,130.3,610,148.3z M603.6,155.3c0.101-0.9,0.101-1.9,0.101-2.8c0-15.1-11.5-27.9-26.8-29.3
	c-16.2-1.5-30.601,10.4-32.101,26.6l-3.899,41.8c-1,23.9,29.699,21.6,29.699,21.6c16.2,1.5,27.5,0.1,29-16.1L603.6,155.3z"/>
<path fill="#FFFFFF" stroke="#000000" stroke-miterlimit="10" d="M603.8,152.5c0,0.9,0,1.8-0.101,2.8l-3.899,41.8
	c-1.5,16.2-12.8,17.7-29,16.1c0,0-30.7,2.2-29.7-21.6l3.9-41.8c1.5-16.2,15.899-28.1,32.1-26.6C592.3,124.6,603.8,137.5,603.8,152.5
	z"/>
<polygon fill="#FFFFFF" stroke="#000000" stroke-miterlimit="10" points="751.3,248.3 755.199,287.6 451.8,311.3 468.3,261.3 "/>
<path fill="#FFFFFF" stroke="#000000" stroke-miterlimit="10" d="M452.4,453.7c0.199-1.7-0.2,0.8-5.801,6.2
	c-4.5,4.3-12.3,10.5-25.699,17.898L398,489.4c0,0,0-8.102,6.3-10.102c2.3-0.7,2.101-8.2,2.101-8.2l5.899-7.3
	c27.899-21.7,29.3-53.898,29.3-53.898c18.7-60.2-24.1-62.5-24.1-62.5c-36.001,11-334.7-0.602-359.4-1.602
	C93.2,252.2,201.4,95.2,268.8,40.1c49.8-40.7,266.101,0,266.101,0S693.6,46.2,717.4,83.7C757.3,146.6,776.2,355.6,776.2,355.6
	c0.301,2.699-5.399,4-5.399,4l-24.8,6C745.9,333,723.6,328.7,723.6,328.7c-61.6-7.3-61.6,62.1-61.6,62.1l-5.801,1.7L575,416.4
	c-28.801-76-25.9-66.602-69.4-57.7C465.1,367,453.3,447.4,452.4,453.7z M339.1,34.6L310.9,33.3c-7.7-0.4-14.199,5.1-14.5,12.2
	l-0.5,11c-0.3,7.1,5.601,13.1,13.3,13.5l28.2,1.3L394.3,74l28.2,1.3c7.699,0.4,14.199-5.1,14.5-12.2l0.5-11
	c0.3-7.1-5.601-13.1-13.301-13.5L396,37.3L339.1,34.6z M755.199,287.6l-3.8-39.2l-283,12.9l-16.5,50L755.199,287.6z M711.4,182.9
	l3.699-32.2L689,152l3.399-28.3l-32.301,1.6l-3.3,28.3l-26.2,1.3l-3.699,32.2L653,185.8l-3.4,28.3l32.301-1.6l3.399-28.3
	L711.4,182.9z M609.9,151.7c0.101-1.1,0.199-2.2,0.199-3.3c0-18.1-13.8-33.5-32.1-35.2c-19.5-1.8-36.7,12.5-38.5,32l-4.7,50.2
	c-0.3,3.7-0.101,7.2,0.601,10.6c3.101,14.8,15.601,16.5,31.399,17.9c0,0,40.2,2.2,38.5-22L609.9,151.7z M441.6,225
	c0,0,34.601-103.6,14.4-114.1c0,0-148.5-55-243-1.8c0,0-31.4,22.7-74.3,110.4C138.6,219.6,299.199,205,441.6,225z M265.6,305.9
	l8.9-30.9H249l7.7-27h-31.5l-7.7,27H192l-8.601,29.8l25.9,1.101l-8.4,27L232.7,331.8l7.4-25.899H265.6z"/>
</svg>
