<?xml version="1.0" encoding="utf-8"?>
<!-- Generator: Adobe Illustrator 15.0.0, SVG Export Plug-In . SVG Version: 6.00 Build 0)  -->
<!DOCTYPE svg PUBLIC "-//W3C//DTD SVG 1.1//EN" "http://www.w3.org/Graphics/SVG/1.1/DTD/svg11.dtd">
<svg version="1.1" id="layer_x5F_www.ABC-color.com"
	 xmlns="http://www.w3.org/2000/svg" xmlns:xlink="http://www.w3.org/1999/xlink" x="0px" y="0px" width="822px" height="567px"
	 viewBox="0 0 822 567" enable-background="new 0 0 822 567" xml:space="preserve">
<g id="XMLID_1_">
	<g>
		<path fill="#FFFFFF" d="M794,334c20,108-15,130-15,130c-0.7,0.5-1.5,1-2.3,1.5c-34.5,4.1-37.4-58.9-37.4-58.9s0,0-0.1,0l-0.3-1
			V405l0,0c0,0,0,0,0.1,0l0,0l4.3-2.7L748,370c0,0,4.6-19.9,11-37.9c0.1-0.398,0.3-0.699,0.4-1.1c0.1-0.3,0.198-0.6,0.3-0.9
			l2.398,0.9c-0.1,0.3-0.198,0.6-0.3,0.9c-0.1,0.3-0.3,0.699-0.398,1.1c-1.302,3.9-2.5,8.4-3.5,13.3c-0.5,2.8-1,5.7-1.4,8.7
			c-1,7.8-1.6,16.3-1.6,25.3c0,0.5,0,1,0,1.601c0,4.601,0.198,9,0.5,13.301c0.698,9.898,2.1,18.898,4.1,26.398l0,0l0,0
			c0.7,2.7,1.5,5.302,2.3,7.602V429.1c2.2,6.102,4.9,10.602,7.8,13c0.9,0.802,1.9,1.302,2.802,1.602c0.698,0.2,1.3,0.3,2,0.3
			c2.8,0,5.398-1.9,7.8-5.2c1.2-1.7,2.3-3.7,3.398-6.1c1.802-4,3.302-8.9,4.602-14.5c0.7-2.9,1.2-5.9,1.7-9.2
			c1.198-7.9,2-16.7,2.1-26c0-0.899,0-1.8,0-2.8c0-2.801,0-5.5-0.2-8.2c-0.5-12.3-2-23.5-4.3-32.5l0,0l2.2-0.601L794,334z"/>
		<path fill="#FFFFFF" d="M794.3,380.3c0,0.9,0,1.8,0,2.8l-16,2.801l-0.7-0.199c0.302-0.9,0.4-2,0.5-3.102c0-0.398,0-0.699,0-1.1
			c0-0.2,0-0.4,0-0.6c0-0.701-0.1-1.301-0.198-2L794.1,372C794.3,374.8,794.3,377.5,794.3,380.3z"/>
		<path fill="#FFFFFF" d="M778.3,385.9l16-2.801c-0.1,9.301-0.898,18.199-2.1,25.999L778.3,385.9z"/>
		<path fill="#FFFFFF" d="M794.1,372.1L778,379v-0.1c-0.3-1.602-0.8-3-1.4-4l11.7-40l0.2-0.102c0.5,1.5,0.9,3.102,1.3,4.7l0,0
			C792.1,348.7,793.7,359.8,794.1,372.1z"/>
		<path fill="#FFFFFF" d="M793.8,330l0.2,4l-2,5c-8.8-55.9-22.5-35.3-32.2-8.9c-0.1,0.301-0.2,0.602-0.3,0.9
			c-0.1,0.4-0.3,0.7-0.4,1.1c-6.5,18-11,37.9-11,37.9l-4.698,32.3L739,405l0,0c0,0,0,0-0.1,0l0,0v-11.1v-16V370.6
			c17.1-87,35.1-84.5,45.398-72.699l0.7,0.101c5,6,8,14,8,14L793.8,330z"/>
		<path fill="#FFFFFF" d="M778.3,385.9l13.9,23.198c-0.5,3.2-1.102,6.302-1.7,9.2l-13.8-28.8H775.6c0.9-0.7,1.602-2.101,2.102-3.8
			L778.3,385.9z"/>
		<path fill="#FFFFFF" d="M792,339l-2.2,0.6c-0.398-1.699-0.898-3.199-1.3-4.699c-2.2-6.899-4.8-12.301-7.8-15.301
			c-0.7-0.699-1.4-1.3-2.102-1.8c-1.3-0.8-2.6-1.3-3.898-1.3c-2.7,0-5.3,1.8-7.602,5c-0.8,1.1-1.698,2.5-2.398,4
			c-0.9,1.7-1.7,3.6-2.5,5.6l-2.4-0.898C769.5,303.7,783.2,283.1,792,339z"/>
		<path fill="#FFFFFF" d="M776.7,389.5l13.8,28.8c-1.3,5.602-2.8,10.5-4.6,14.5L776.7,389.5z"/>
		<path fill="#FFFFFF" d="M788.5,334.9l-0.2,0.1l-11.7,40l0,0c0-0.1-0.1-0.1-0.1-0.2l3.9-54.399l0.398-0.801
			C783.6,322.6,786.3,327.9,788.5,334.9z"/>
		<path fill="#FFFFFF" d="M776.7,389.5l9.1,43.4c-1,2.398-2.2,4.398-3.398,6.1l-0.102-0.6l-7.7-48.301V389.9
			c0.302-0.102,0.602-0.301,1-0.5L776.7,389.5z"/>
		<path fill="#FFFFFF" d="M621.3,389.8c4.102-33.2-0.3-76-50.398-77.3c0,0-26.602,0.3-40.102,24.5c-0.2,0.3-0.3,0.6-0.5,0.9
			c-8.8,16.398-11.5,43.5,3.4,88.1c-4.8,1-74.7,14.8-127.7,11c0,0-252,11-302,0c0,0-77-6-78-18c0,0-1.9-27.3,3.6-62.9
			c4.3-28.3,13.3-61.8,31.4-91.1c0,0,36.7-21.3,60.1-35.9c8-5,14.4-9.2,17.3-11.6c0.2-0.2,0.5-0.4,0.6-0.5c0,0,3.6-3.8,9.5-10
			c23.7-24.8,84.7-87.6,97.5-90c0,0,29-14,67-15l347,2c0,0,24-2,46,22c0,0,51,91,53,102c0,0,11,13,17,19c0,0,6.3,31.8,9.3,50.8
			L785,298l-0.7-0.1C774,286.1,756,283.6,738.9,370.6v7.301v16V405l0,0c-0.2,0.1-0.4,0.1-0.602,0.2c-4.898,1.2-20.1,5-38.398,9.2
			C671,421,634.4,428.7,619,428.6c-2.9,0-5-0.3-6.3-0.898c0.398-1.2,1.5-4.602,2.898-9.5c1.302-4.7,2.802-10.8,4-17.7
			c0.2-1.3,0.5-2.7,0.7-4.1c0-0.2,0.102-0.302,0.102-0.501c0.1-0.801,0.198-1.5,0.398-2.301c0.2-0.8,0.2-1.6,0.3-2.398
			C621.2,390.8,621.3,390.3,621.3,389.8z M728,202c0,0,3-2.7-9.7-28.7L698,132c0,0-9.3-17.7-49-20l-5.9,0.5l-5.5,0.5
			c-26-3-42.698,16-42.698,16c-6,8-10,82-10,82c0,13,6,18,6,18s4,18,17,13c0,0,4.898-0.8,12-1.7c2.198-0.3,4.5-0.6,7-0.9
			c11.8-1.5,26.5-3.1,36-3.4c0,0,18-2,18-15c0,0,1.1-0.2,2.898-0.5s4.3-0.9,7.2-1.5C703.6,216,723.9,210.2,728,202z M683.2,270.8
			c5.6-1.9,9.1-4.1,8.8-5.7s-4.2-2.3-9.8-2c-1.7-3.8-5-6.4-8.8-6.4c-4.9,0-9,4.2-9.802,9.8v0.1c-5.6,1.9-9.198,4.1-8.898,5.7
			c0.3,1.6,4.3,2.3,9.898,2v0.2c1.7,3.7,5,6.1,8.7,6.1C678.3,280.7,682.4,276.4,683.2,270.8z M578,129c2-14-5-14-5-14l-314,2
			c-12,1-17,7-17,7c-9-2-91,88-91,88c-4.1,4.1-1.1,6.2,3.4,7.1L154,221l-24,16c-10,6-23,67-23,67s-30-31-36-30c0,0-9-3-15,7
			c0,0-10,19-9,25c0,0-3.3,14.7,9,20l36,7l123.7,1.3c3.8,3.3,8.8,5.2,14.3,5.2c5.4,0,10.3-1.9,14-5l141,1.5l102-11c41-43,2-52,2-52
			c-6.3,0.3-13,1.1-19.7,2.3c5.8-10,68.7-43.3,68.7-43.3c9-3.3,8.6-9.9,8.2-12.2C567.6,215.4,566,202,566,202L578,129z M455,418
			c28-13,17-33,17-33l-101-1.2l-68-0.8l1-31l-156-3l-1,32.2L92.1,380.6L40,380c-8,29,13,40,13,40C324,456,455,418,455,418z"/>
		<path fill="#FFFFFF" d="M782.4,438.4l0.1,0.6c-2.4,3.4-5,5.2-7.8,5.2c-0.7,0-1.4-0.102-2-0.3V443.8l2.2-52L782.4,438.4z"/>
		<path fill="#FFFFFF" d="M780.7,319.5l-0.4,0.8l-3.898,54.4l0,0c-0.602-0.9-1.302-1.4-2.102-1.5l3.4-54.4l0.898-1
			C779.3,318.2,780,318.8,780.7,319.5z"/>
		<path fill="#FFFFFF" d="M778.6,317.8l-0.898,1l-3.4,54.4l0,0l0,0c-0.1,0-0.2,0-0.3,0l0,0l-5.5-51.5l-1.4-0.2
			c2.302-3.2,4.9-5,7.602-5C776,316.5,777.3,316.9,778.6,317.8z"/>
		<path fill="#FFFFFF" d="M774.6,390v0.2l-2,53.6v0.102c-1-0.302-1.898-0.9-2.8-1.602l2.7-51.3l0,0l0.4-1l0,0v-0.1
			c0.3,0.199,0.698,0.3,1,0.3C774.2,390.1,774.4,390,774.6,390z"/>
		<path fill="#FFFFFF" d="M739.3,406.6c0,0,2.9,63,37.4,58.9c-17.5,9.6-57.7,0.5-57.7,0.5c-19.6-8.9-19.4-44.1-19.1-51.6
			c18.3-4.2,33.5-8,38.398-9.2c0.2,0,0.4-0.102,0.602-0.2l0,0v0.6L739.3,406.6L739.3,406.6z"/>
		<path fill="#FFFFFF" d="M768.5,321.6l5.5,51.5h-0.1c-0.802,0-1.5,0.4-2.102,1.102l0,0l-6.3-48.4l-0.8-0.398
			c0.8-1.5,1.6-2.801,2.398-4L768.5,321.6z"/>
		<path fill="#FFFFFF" d="M772.8,389.9L772.4,390.8L762,429.2c-0.8-2.3-1.6-4.8-2.3-7.5l10.8-34.3l0.2-0.102
			C771.3,388.5,772,389.5,772.8,389.9z"/>
		<path fill="#FFFFFF" d="M762,429.2l10.4-38.3l-2.7,51.3C766.9,439.8,764.3,435.3,762,429.2z"/>
		<path fill="#FFFFFF" d="M765.5,325.8l6.3,48.4c-0.1,0.2-0.3,0.399-0.398,0.6l0,0L758.6,346.4l-0.5-0.102
			c1-4.898,2.102-9.398,3.5-13.3c0.102-0.399,0.2-0.7,0.4-1.101c0.1-0.301,0.2-0.601,0.3-0.899c0.8-2.101,1.602-4,2.5-5.601
			L765.5,325.8z"/>
		<path fill="#FFFFFF" d="M758.5,346.5l12.8,28.4c-0.8,1.199-1.3,2.8-1.5,4.8v0.1L757,355.1l-0.4-0.1c0.4-3,0.9-5.9,1.4-8.7
			L758.5,346.5z"/>
		<path fill="#FFFFFF" d="M770.7,387.1l-0.2,0.102l-14.9,8c-0.3-4.301-0.5-8.7-0.5-13.301h0.302L769.8,380.6c0,0.301,0,0.7,0,1
			c0,0.2,0,0.4,0,0.602C769.8,384.1,770.2,385.8,770.7,387.1z"/>
		<path fill="#FFFFFF" d="M770.5,387.2l-10.8,34.3c-2-7.5-3.4-16.5-4.102-26.4L770.5,387.2z"/>
		<path fill="#FFFFFF" d="M757.1,355.1l12.802,24.7c0,0.3-0.102,0.5-0.102,0.8v0.102L755.4,382H755c0-0.5,0-1,0-1.6
			c0-9,0.6-17.5,1.6-25.301H757.1L757.1,355.1z"/>
		<path fill="#FFFFFF" d="M718.3,173.3c12.7,26,9.7,28.7,9.7,28.7c-4.1,8.2-24.4,14-36.9,16.9c0-0.3,0-0.6,0-0.9
			c-1.1-17.8-42-106-42-106c39.7,2.3,49,20,49,20L718.3,173.3z"/>
		<path fill="#FFFFFF" d="M692,265c0.3,1.7-3.2,3.9-8.8,5.7c-2.602,0.9-5.7,1.7-9,2.3c-3.5,0.7-6.7,1.1-9.602,1.2
			c-5.6,0.3-9.6-0.4-9.898-2c-0.3-1.7,3.3-3.9,8.898-5.7c2.602-0.9,5.7-1.7,8.9-2.3c3.5-0.7,6.8-1.1,9.7-1.2
			C687.8,262.7,691.7,263.4,692,265z"/>
		<path fill="#FFFFFF" d="M691,218c0,0.3,0,0.6,0,0.9c-2.9,0.7-5.4,1.2-7.2,1.5c-1.398-32.1-40.7-106.5-40.7-106.5l-0.1-1.4l5.9-0.5
			C649,112,690,200.2,691,218z"/>
		<path fill="#FFFFFF" d="M683.9,220.5c-1.802,0.4-2.9,0.5-2.9,0.5s-1.7-4-5.3-8.7l0.3-0.3c-1-36-38.3-99-38.3-99l5.5-0.5l0.1,1.4
			C643.3,113.9,682.5,188.4,683.9,220.5z"/>
		<path fill="#FFFFFF" d="M683.2,270.8c-0.8,5.6-4.9,9.9-9.8,9.9c-3.7,0-7-2.5-8.7-6.1v-0.2c2.898-0.1,6.1-0.6,9.6-1.2
			C677.5,272.4,680.6,271.6,683.2,270.8z"/>
		<path fill="#FFFFFF" d="M675.7,212.3c3.6,4.7,5.3,8.7,5.3,8.7c0,13-18,15-18,15c-9.5,0.2-24.2,1.9-36,3.4c-2.5,0.3-4.8,0.6-7,0.9
			c-6.7,0.3-9-12.3-8-12.3c0,0-2-17,0-20c7.2-10.8,39.3-10.3,39.3-10.3C663.1,199,671,206.2,675.7,212.3z"/>
		<path fill="#FFFFFF" d="M673.3,256.7c3.8,0,7.102,2.6,8.8,6.4c-2.898,0.1-6.198,0.5-9.698,1.2c-3.302,0.6-6.302,1.4-8.9,2.3v-0.1
			C664.4,260.9,668.4,256.7,673.3,256.7z"/>
		<path fill="#FFFFFF" d="M676,212l-0.3,0.3c-4.7-6.1-12.602-13.3-24.4-14.6c0,0-32.1-0.5-39.3,10.3c-2,3,0,20,0,20c-26-8-21,1-21,1
			s-6-5-6-18c0,0,4-74,10-82c0,0,16.7-19,42.7-16C637.7,113,675,176,676,212z"/>
		<path fill="#FFFFFF" d="M570.9,312.6C621,313.8,625.4,356.7,621.3,389.9c-0.1,0.5-0.1,1-0.2,1.5c-0.1,0.8-0.198,1.6-0.3,2.398
			c-0.1,0.801-0.2,1.602-0.398,2.3c0,0.2-0.102,0.302-0.102,0.5c-0.2,1.4-0.5,2.7-0.7,4.102c-1.3,6.898-2.8,13-4,17.7
			c-1.3,4.898-2.5,8.198-2.898,9.5H612.6c0,0,0-0.302,0.102-0.802c1.7-9.6,17.7-106.1-42.5-104.198c0,0-19.602,0.199-31.602,21.5
			c-8.3,14.8-13,39.699-4.8,81.8c0,0-0.1,0-0.3,0c-14.9-44.601-12.1-71.601-3.4-88.101c0.2-0.301,0.302-0.601,0.5-0.899
			C544.3,312.9,570.9,312.6,570.9,312.6z"/>
		<path fill="#FFFFFF" d="M612,228c-1,0,1.4,12.6,8,12.3c-7.1,1-12,1.7-12,1.7c-13,5-17-13-17-13S586,220,612,228z"/>
		<path fill="#FFFFFF" d="M619,428.6v1.102c0,50-30,64.3-30,64.3c-3.7,2.6-18.7,4.4-35,5.1c-6.6-2-22.4-9.8-30.1-45.198l-0.4-1.802
			c1.8-0.398,3.6-0.8,5.4-1.1c0,0,8.8-7.4,6-21.1l0.898-0.2c1.602,7.8,3.9,15.1,6.8,21.398c1.4,3.102,3,6,4.7,8.602
			c4.5,6.898,9.8,12.1,15.602,14.898c1.8,0.9,3.8,1.5,5.698,1.9c1.4,0.3,2.9,0.4,4.4,0.4c5.5,0,10.7-2,15.5-5.7
			c2.4-1.9,4.7-4.2,6.9-6.9c3.6-4.5,6.8-10.1,9.398-16.5c1.3-3.3,2.5-6.7,3.5-10.398c1-3.5,1.8-7.2,2.5-11l2.102,0.398
			c-0.102,0.5-0.102,0.8-0.102,0.8h0.102C614,428.3,616.1,428.6,619,428.6z"/>
		<path fill="#FFFFFF" d="M570.3,322.7c60.2-1.9,44.2,94.6,42.5,104.2l-2.1-0.4c1-5.9,1.6-12.2,1.8-18.6c0-1,0-1.9,0-2.9
			c0-3.2-0.1-6.4-0.3-9.5c-0.9-12.5-3.602-23.9-7.5-33.6c-1.3-3.102-2.602-5.9-4.2-8.602c-4.4-7.898-9.9-13.8-16-17.199
			c-1.8-1-3.6-1.801-5.5-2.301c-2-0.5-4-0.8-6-0.8c-4.8,0-9.3,1.5-13.5,4.3c-2.1,1.4-4.2,3.2-6.1,5.2c-5.5,5.8-10.302,14-13.7,23.8
			c-1.102,3.102-2,6.4-2.9,9.801c-2.1,8.801-3.3,18.5-3.3,28.801c0,0.5,0,1.1,0,1.6c0.1,5.1,0.4,10.1,1,14.9
			c0.4,2.8,0.8,5.6,1.4,8.3l-0.9,0.2c-0.3-1.302-0.6-2.602-1-3.9c-8.2-42.1-3.6-67.1,4.8-81.8C550.7,322.9,570.3,322.7,570.3,322.7z
			"/>
		<path fill="#FFFFFF" d="M612.5,405c0,1,0,1.9,0,2.9l-32.4,3.198H579c0.7-1.398,1-2.898,1-4.5c0-1.1-0.2-2.198-0.5-3.198
			l32.7-7.801C612.4,398.6,612.5,401.8,612.5,405z"/>
		<path fill="#FFFFFF" d="M580,411.1l32.4-3.198c-0.102,6.5-0.802,12.698-1.802,18.6c-0.698,3.8-1.5,7.5-2.5,11L580,411.1z"/>
		<path fill="#FFFFFF" d="M612.2,395.5l-32.7,7.8c0-0.1,0-0.1-0.1-0.2l24.898-41l0.4-0.199C608.6,371.5,611.3,383,612.2,395.5z"/>
		<path fill="#FFFFFF" d="M580,411.1l28.2,26.5c-1,3.7-2.2,7.102-3.5,10.4l-27.9-32.8h-1.6c1.6-0.9,2.898-2.3,3.8-4L580,411.1z"/>
		<path fill="#FFFFFF" d="M576.8,415.1l27.9,32.802c-2.602,6.398-5.8,12-9.4,16.5L576.8,415.1z"/>
		<path fill="#FFFFFF" d="M604.7,361.9l-0.4,0.199l-24.898,40.999c-0.602-1.698-1.602-3.198-3-4.3l23.6-45.199l0.5-0.301
			C602,356,603.4,358.9,604.7,361.9z"/>
		<path fill="#FFFFFF" d="M600.5,353.3l-0.5,0.3l-23.6,45.2c-0.102-0.1-0.2-0.2-0.302-0.2l7.9-61.5l0.5-1
			C590.6,339.5,596.1,345.5,600.5,353.3z"/>
		<path fill="#FFFFFF" d="M576.8,415.1l18.5,49.302c-2.1,2.698-4.398,5-6.898,6.898L573,417.6l-1.5-1.6c1.3,0,2.6-0.3,3.7-0.9H576.8
			z"/>
		<path fill="#FFFFFF" d="M573,417.6l15.4,53.7c-4.802,3.7-10,5.7-15.5,5.7c-1.5,0-2.9-0.2-4.4-0.4L573,417.6z"/>
		<path fill="#FFFFFF" d="M584.5,336.1l-0.5,1l-7.9,61.5c-1.198-0.898-2.698-1.398-4.198-1.5l6.8-61.699l0.2-1.5
			C580.9,334.4,582.8,335.1,584.5,336.1z"/>
		<path fill="#FFFFFF" d="M579.5,403.3c0.3,1,0.5,2.102,0.5,3.2c0,1.6-0.4,3.2-1,4.5c-0.8,1.8-2.2,3.2-3.8,4
			c-1.102,0.6-2.4,0.9-3.7,0.9c-1,0-2-0.2-2.9-0.602c-1.6-0.6-2.898-1.8-3.898-3.2c-1.102-1.6-1.7-3.6-1.7-5.698
			c0-0.5,0-0.9,0.1-1.4c0-0.2,0.102-0.5,0.102-0.7c0.398-2.2,1.5-4.1,3.1-5.398c0.2-0.2,0.5-0.4,0.8-0.602
			c1.301-0.898,2.801-1.398,4.5-1.398l0,0c0.2,0,0.301,0,0.5,0c1.5,0.1,3,0.698,4.2,1.5c0.101,0.1,0.2,0.198,0.3,0.198
			c1.301,1.102,2.4,2.602,3,4.302C579.5,403.2,579.5,403.2,579.5,403.3z"/>
		<path fill="#FFFFFF" d="M579,333.8l-0.2,1.5L572,397c-0.2,0-0.3,0-0.5,0l0,0l-11.2-58.4l-0.8-1.3c4.2-2.8,8.8-4.3,13.5-4.3
			C575,333,577,333.3,579,333.8z"/>
		<path fill="#FFFFFF" d="M573,115c0,0,7,0,5,14l-12,73c0,0,1.6,13.4-19.8,17.8c-2.7,0.6-5.7,1-9.2,1.2l-370-1c0,0-7.3,0.3-12.6-0.9
			c-4.5-1-7.6-3-3.4-7.1c0,0,82-90,91-88c0,0,5-6,17-7L573,115z"/>
		<path fill="#FFFFFF" d="M571.5,416l1.5,1.6l-4.4,59c-2-0.398-3.898-1-5.698-1.898l5.398-58l0.3-1.2
			C569.5,415.8,570.5,416,571.5,416z"/>
		<path fill="#FFFFFF" d="M560.3,338.6l11.2,58.4c-1.6,0-3.2,0.5-4.5,1.4L554.2,343.3l-1-0.8c1.898-2,4-3.8,6.1-5.2L560.3,338.6z"/>
		<path fill="#FFFFFF" d="M568.6,415.4l-0.3,1.198l-21,43.2c-1.7-2.6-3.3-5.5-4.7-8.6l21.602-38.5l0.398-0.4
			C565.7,413.7,567,414.8,568.6,415.4z"/>
		<path fill="#FFFFFF" d="M568.3,416.6l-5.398,58c-5.802-2.8-11.102-8-15.602-14.898L568.3,416.6z"/>
		<path fill="#FFFFFF" d="M554.3,343.3l12.8,55.102c-0.3,0.198-0.5,0.398-0.8,0.6l-26-32.399l-0.6-0.199
			c3.398-9.801,8.1-18,13.7-23.801L554.3,343.3z"/>
		<path fill="#FFFFFF" d="M540.3,366.6l26,32.4c-1.5,1.3-2.6,3.2-3.1,5.4L537.3,376.3l-0.5-0.1c0.8-3.4,1.8-6.7,2.9-9.8L540.3,366.6
			z"/>
		<path fill="#FFFFFF" d="M564.7,412.2l-0.4,0.398l-29.7,8.9c-0.6-4.8-1-9.8-1-14.9h0.302l29.3-1.5c-0.102,0.5-0.102,0.9-0.102,1.4
			C563,408.6,563.6,410.6,564.7,412.2z"/>
		<path fill="#FFFFFF" d="M564.3,412.6l-21.6,38.5c-2.9-6.3-5.2-13.5-6.8-21.398c-0.5-2.7-1-5.4-1.4-8.3L564.3,412.6z"/>
		<path fill="#FFFFFF" d="M537.3,376.3l25.9,28.102c0,0.198-0.102,0.398-0.102,0.698l-29.3,1.5h-0.3c0-0.5,0-1,0-1.6
			c0-10.2,1.2-20,3.3-28.8L537.3,376.3z"/>
		<path fill="#FFFFFF" d="M546.2,219.8c0.398,2.3,0.8,8.9-8.2,12.2c0,0-62.9,33.4-68.7,43.3C427.1,282.9,381,306,381,306l-137.6-1
			c-3.6-2.8-8.3-4.5-13.4-4.5s-9.8,1.7-13.5,4.5l-0.2-0.2L107,304c0,0,13-61,23-67l24-16l0.4-1.9c5.3,1.1,12.6,0.9,12.6,0.9l370,1
			C540.5,220.8,543.5,220.4,546.2,219.8z"/>
		<path fill="#FFFFFF" d="M554,499.1c-14.7,0.602-30.5,0.302-40-1.1c-20-3-35-38-35-38l-0.1-1.4c16.3-1.6,31.3-3.8,44.698-6.5
			l0.4,1.802C531.7,489.3,547.5,497.1,554,499.1z"/>
		<path fill="#FFFFFF" d="M535,429.9c2.7,13.698-6,21.1-6,21.1c-1.8,0.4-3.6,0.8-5.4,1.1c-13.398,2.7-28.398,4.802-44.698,6.5
			C386.3,468,254,461.8,159.7,455C92.1,450.2,44,445,44,445c-23-1-18-26-18-26c1,12,78,18,78,18c50,11,302,0,302,0
			c53.1,3.9,122.9-10,127.7-11c0.2,0,0.3,0,0.3,0C534.5,427.3,534.8,428.7,535,429.9z"/>
		<path fill="#FFFFFF" d="M489,273c0,0,39,9-2,52l-102,11c0,0-40-9-4-30c0,0,46.1-23.1,88.3-30.7C476,274.1,482.7,273.3,489,273z"/>
		<path fill="#FFFFFF" d="M472,385c0,0,11,20-17,33c0,0-131,38-402,2c0,0-21-11-13-40l52.1,0.6c1.3,4.9,11.1,38.5,35.2,39.4
			c0,0,193.3,6.3,215.3-0.7c0,0,26.302,2,28.302-35v-0.5L472,385z M456,402.7c0-6.8-6-12.3-13.3-12.3c-7.4,0-13.3,5.5-13.3,12.3
			s6,12.3,13.3,12.3C450,414.9,456,409.4,456,402.7z M71.5,400c0-7.7-6-14-13.5-14s-13.5,6.3-13.5,14s6,14,13.5,14
			S71.5,407.7,71.5,400z"/>
		<path fill="#FFFFFF" d="M442.7,390.4c7.398,0,13.3,5.5,13.3,12.3s-6,12.3-13.3,12.3c-7.4,0-13.3-5.5-13.3-12.3
			C429.3,395.9,435.3,390.4,442.7,390.4z"/>
		<path fill="#FFFFFF" d="M385,336l-141-1.5c4.3-3.6,7-8.8,7-14.5c0-6-3-11.4-7.6-15l137.6,1C345,327,385,336,385,336z"/>
		<path fill="#FFFFFF" d="M371,383.8v0.5c-2,37-28.3,35-28.3,35c-22,7-215.3,0.7-215.3,0.7c-24.1-0.9-33.9-34.5-35.2-39.4
			l54.9,0.602l156,1.8L371,383.8z"/>
		<polygon fill="#FFFFFF" points="304,352 303,383 147,381.2 148,349 		"/>
		<path fill="#FFFFFF" d="M251,320c0,5.8-2.7,11-7,14.5c-3.7,3.1-8.6,5-14,5c-5.5,0-10.6-2-14.3-5.2c-4.1-3.6-6.7-8.6-6.7-14.3
			c0-6,2.9-11.4,7.5-15c3.6-2.8,8.4-4.5,13.5-4.5s9.8,1.7,13.4,4.5C248,308.6,251,314,251,320z"/>
		<path fill="#FFFFFF" d="M216.3,304.8l0.2,0.2c-4.6,3.6-7.5,9-7.5,15c0,5.6,2.6,10.7,6.7,14.3L92,333c0,0,19-3,15-29L216.3,304.8z"
			/>
		<path fill="#FFFFFF" d="M159.7,455v0.3c-1.7,2-16.7,30-33.7,36.7c-4.4,1.7-29-0.5-43-0.8c-5.9-0.102-10-0.2-10-0.2
			c-90-10-44-135-44-135l0.6,0.1C24.1,391.7,26,419,26,419s-5,25,18,26C44,445,92.1,450.2,159.7,455z"/>
		<path fill="#FFFFFF" d="M146,196c1.9,1,6.7,1.9,2.5,11c-5.9,6.1-9.5,10-9.5,10c-0.2,0.2-0.4,0.4-0.6,0.5
			c-2.9,2.3-9.3,6.6-17.3,11.6L121,229c0,0-13.7-2.1-16-4c-4-3.3-11-10-1-18C104,207,139.7,192.8,146,196z"/>
		<path fill="#FFFFFF" d="M107,304c4,26-15,29-15,29l-36-7c-12.3-5.3-9-20-9-20c-1-6,9-25,9-25c6-10,15-7,15-7
			C77,273,107,304,107,304z"/>
		<path fill="#FFFFFF" d="M58,386c7.5,0,13.5,6.3,13.5,14s-6,14-13.5,14s-13.5-6.3-13.5-14S50.5,386,58,386z"/>
	</g>
	<g>
		<path fill="none" stroke="#000000" stroke-miterlimit="10" d="M794,334c20,108-15,130-15,130c-0.7,0.5-1.5,1-2.3,1.5"/>
		<path fill="none" stroke="#000000" stroke-miterlimit="10" d="M759.7,421.6L759.7,421.6c0.7,2.802,1.5,5.302,2.3,7.602"/>
		<path fill="none" stroke="#000000" stroke-width="0.5" stroke-miterlimit="10" d="M794.1,372.1c0.102,2.7,0.2,5.4,0.2,8.2
			c0,0.9,0,1.8,0,2.8"/>
		<path fill="none" stroke="#000000" stroke-width="0.5" stroke-miterlimit="10" d="M778.1,381c0-0.7-0.1-1.3-0.198-2"/>
		<path fill="none" stroke="#000000" stroke-width="0.5" stroke-miterlimit="10" d="M777.6,385.7c0.302-0.9,0.4-2,0.5-3.101"/>
		<path fill="none" stroke="#000000" stroke-width="0.5" stroke-miterlimit="10" d="M778.3,385.9l16-2.801
			c-0.1,9.301-0.898,18.199-2.1,25.999"/>
		<path fill="none" stroke="#000000" stroke-width="0.5" stroke-miterlimit="10" d="M789.8,339.6L789.8,339.6
			c2.3,9.102,3.9,20.301,4.3,32.5L778,379l0,0c-0.3-1.6-0.8-3-1.4-4"/>
		<path fill="none" stroke="#000000" stroke-width="0.5" stroke-miterlimit="10" d="M790.5,418.3c-1.3,5.602-2.8,10.5-4.6,14.5"/>
		<polyline fill="none" stroke="#000000" stroke-width="0.5" stroke-miterlimit="10" points="772.6,443.7 774.8,391.7 782.4,438.4 
					"/>
		<path fill="none" stroke="#000000" stroke-width="0.5" stroke-miterlimit="10" d="M782.5,438.9c-2.4,3.398-5,5.198-7.8,5.198
			c-0.7,0-1.4-0.1-2-0.3"/>
		<path fill="none" stroke="#000000" stroke-width="0.5" stroke-miterlimit="10" d="M788.5,334.9l-0.2,0.1l-11.7,40v0.1
			c0-0.1-0.1-0.1-0.1-0.199"/>
		<path fill="none" stroke="#000000" stroke-width="0.5" stroke-miterlimit="10" d="M775.6,389.4c0.9-0.7,1.602-2.102,2.102-3.801
			l0.7,0.199L792.3,409c-0.5,3.2-1.1,6.3-1.7,9.2l-13.8-28.8"/>
		<path fill="none" stroke="#000000" stroke-width="0.5" stroke-miterlimit="10" d="M774.6,390c0.302-0.1,0.602-0.3,1-0.5h1.102
			l9.1,43.4c-1,2.398-2.2,4.398-3.398,6.1l-0.102-0.6l-7.7-48.301"/>
		<path fill="none" stroke="#000000" stroke-width="0.5" stroke-miterlimit="10" d="M780.7,319.5l-0.4,0.8l-3.898,54.4v0.1
			c-0.602-0.899-1.302-1.399-2.102-1.5l0,0"/>
		<path fill="none" stroke="#000000" stroke-width="0.5" stroke-miterlimit="10" d="M778.6,317.8l-0.898,1l-3.4,54.4v0.1
			c-0.1,0-0.2,0-0.3,0"/>
		<path fill="none" stroke="#000000" d="M769.7,380.6v-0.1c0-0.3,0-0.5,0.1-0.8V379.6c0.2-1.898,0.8-3.6,1.5-4.8l0,0
			c0.102-0.2,0.3-0.399,0.4-0.6l0,0c0.6-0.7,1.3-1.101,2.1-1.101h0.102l0,0c0.1,0,0.198,0,0.3,0l0,0l0,0
			c0.8,0.101,1.5,0.699,2.1,1.5l0,0c0,0.101,0.102,0.101,0.102,0.199l0,0c0.6,1,1.1,2.4,1.398,4v0.102c0.102,0.6,0.2,1.3,0.2,2
			c0,0.199,0,0.398,0,0.6c0,0.4,0,0.7,0,1.1c-0.1,1-0.2,2-0.5,2.9c-0.5,1.7-1.2,3-2.1,3.8c-0.302,0.3-0.602,0.4-1,0.5
			c-0.2,0.101-0.5,0.101-0.7,0.101c-0.4,0-0.7-0.101-1-0.301c-0.9-0.398-1.602-1.398-2.2-2.699c-0.6-1.301-0.9-2.899-1-4.699"/>
		<path fill="none" stroke="#000000" stroke-width="0.5" stroke-miterlimit="10" d="M772.5,390.8l0.4-0.899V389.8
			c0.3,0.2,0.698,0.3,1,0.3c0.198,0,0.5,0,0.698-0.1v0.2l-2,53.6v0.102c-1-0.302-1.898-0.9-2.8-1.602"/>
		<path fill="none" stroke="#000000" stroke-width="0.5" stroke-miterlimit="10" d="M771.8,374.4c-0.1,0.199-0.3,0.398-0.398,0.6"/>
		<path fill="none" stroke="#000000" stroke-width="0.5" stroke-miterlimit="10" d="M758,346.3c1-4.899,2.1-9.399,3.5-13.3
			c0.1-0.4,0.2-0.7,0.4-1.1c0.1-0.301,0.198-0.602,0.3-0.9"/>
		<path fill="none" stroke="#000000" stroke-width="0.5" stroke-miterlimit="10" d="M772.5,390.9l-2.7,51.3
			c-2.898-2.4-5.5-6.9-7.8-13l0,0l10.5-38.4V390.9"/>
		<path fill="none" stroke="#000000" stroke-width="0.5" stroke-miterlimit="10" d="M769.7,380.6c0,0.301,0,0.7,0,1
			c0,0.2,0,0.4,0,0.602c0.1,1.8,0.398,3.5,1,4.8l-0.2,0.101"/>
		<path fill="none" stroke="#000000" stroke-width="0.5" stroke-miterlimit="10" d="M755.6,395.2c-0.3-4.3-0.5-8.7-0.5-13.3"/>
		<path fill="none" stroke="#000000" stroke-width="0.5" stroke-miterlimit="10" d="M767.1,321.5l1.4,0.2l5.5,51.5v0.1h-0.1
			c-0.802,0-1.5,0.4-2.102,1.101V374.3l-6.3-48.399l-0.8-0.399"/>
		<path fill="none" stroke="#000000" stroke-width="0.5" stroke-miterlimit="10" d="M762,429.2L762,429.2c-0.9-2.3-1.7-4.8-2.4-7.5
			l0,0l10.802-34.3l0.198-0.102c0.5,1.301,1.302,2.2,2.102,2.7l0,0l-0.4,1l0,0L762,429.2z"/>
		<path fill="none" stroke="#000000" d="M792,339l-2.2,0.6c-0.398-1.699-0.898-3.199-1.3-4.699c-2.2-6.899-4.8-12.301-7.8-15.301
			c-0.7-0.699-1.4-1.3-2.102-1.8c-1.3-0.8-2.6-1.3-3.898-1.3c-2.7,0-5.3,1.8-7.602,5c-0.8,1.1-1.698,2.5-2.398,4
			c-0.9,1.7-1.7,3.6-2.5,5.6l-2.4-0.898"/>
		<path fill="none" stroke="#000000" stroke-width="0.5" stroke-miterlimit="10" d="M770.5,387.2l-10.8,34.3
			c-2-7.5-3.4-16.5-4.102-26.4L770.5,387.2z"/>
		<path fill="none" stroke="#000000" stroke-width="0.5" stroke-miterlimit="10" d="M756.6,355c0.4-3,0.9-5.9,1.4-8.7l0.5,0.101
			l12.8,28.399v0.101c-0.8,1.199-1.3,2.899-1.5,4.801"/>
		<path fill="none" stroke="#000000" stroke-width="0.5" stroke-miterlimit="10" d="M756.6,355l0.4,0.1l12.8,24.7l0,0
			c0,0.3-0.1,0.601-0.1,0.9l-14.4,1.3H755c0-0.5,0-1,0-1.6C755,371.3,755.6,362.8,756.6,355z"/>
		<path fill="none" stroke="#000000" stroke-miterlimit="10" d="M785,298c5,6,8,14,8,14l0.8,18l0.2,4l-2,5
			c-8.8-55.9-22.5-35.3-32.2-8.9c-0.1,0.301-0.2,0.602-0.3,0.9c-0.1,0.4-0.3,0.7-0.4,1.1c-6.5,18-11,37.9-11,37.9l-4.698,32.3
			L739,405l0,0c0,0,0,0-0.1,0l0,0"/>
		<path fill="none" stroke="#000000" stroke-miterlimit="10" d="M620.4,396c0.1-0.8,0.198-1.5,0.398-2.3s0.2-1.601,0.3-2.4"/>
		<path fill="none" stroke="#000000" stroke-miterlimit="10" d="M619.7,400.6c0.2-1.3,0.5-2.698,0.7-4.1"/>
		<path fill="none" stroke="#000000" stroke-miterlimit="10" d="M699.9,414.4C671,421,634.4,428.7,619,428.6"/>
		<polyline fill="none" stroke="#000000" stroke-miterlimit="10" points="738.9,370.6 738.9,377.9 738.9,393.9 738.9,405 		"/>
		<path fill="none" stroke="#000000" stroke-miterlimit="10" d="M738.9,405v0.6l0.3,1c0.1,0,0.1,0,0.1,0s2.9,63,37.4,58.9
			c-17.5,9.6-57.7,0.5-57.7,0.5c-19.6-8.9-19.4-44.1-19.1-51.6c18.3-4.2,33.5-8,38.398-9.2C738.5,405.1,738.7,405.1,738.9,405
			L738.9,405z"/>
		<path fill="none" stroke="#000000" stroke-miterlimit="10" d="M682.2,263c-2.9,0.1-6.2,0.5-9.7,1.2c-3.3,0.6-6.3,1.4-8.9,2.3"/>
		<path fill="none" stroke="#000000" stroke-miterlimit="10" d="M637.7,113c0,0,37.3,63,38.3,99l-0.3,0.3"/>
		<path fill="none" stroke="#000000" stroke-miterlimit="10" d="M649,112c0,0,41,88.2,42,106c0,0.3,0,0.6,0,0.9"/>
		<path fill="none" stroke="#000000" stroke-miterlimit="10" d="M683.9,220.5c-1.4-32.1-40.7-106.5-40.7-106.5l-0.102-1.4"/>
		<path fill="none" stroke="#000000" stroke-miterlimit="10" d="M664.6,274.3c2.9-0.1,6.102-0.6,9.602-1.2c3.3-0.6,6.398-1.5,9-2.3"
			/>
		<path fill="none" stroke="#000000" stroke-miterlimit="10" d="M612,228c0,0-2-17,0-20c7.2-10.8,39.3-10.3,39.3-10.3
			c11.8,1.3,19.7,8.5,24.4,14.6c3.6,4.7,5.3,8.7,5.3,8.7"/>
		<path fill="none" stroke="#000000" stroke-miterlimit="10" d="M621.3,389.8c-0.1,0.5-0.1,1-0.2,1.5"/>
		<path fill="none" stroke="#000000" stroke-miterlimit="10" d="M621.1,391.3c-0.1,0.8-0.198,1.601-0.3,2.4
			c-0.1,0.8-0.2,1.6-0.398,2.3c0,0.2-0.102,0.3-0.102,0.5c-0.2,1.4-0.5,2.7-0.7,4.1c-1.3,6.9-2.8,13-4,17.7
			c-1.3,4.9-2.5,8.2-2.898,9.5"/>
		<path fill="none" stroke="#000000" stroke-miterlimit="10" d="M534,426c-8.2-42.1-3.6-67.1,4.8-81.8
			c12-21.3,31.602-21.5,31.602-21.5c60.198-1.9,44.198,94.6,42.5,104.2"/>
		<path fill="none" stroke="#000000" stroke-miterlimit="10" d="M591,229c0,0-5-9,21-1c-1,0,1.4,12.6,8,12.3"/>
		<path fill="none" stroke="#000000" stroke-width="0.5" stroke-miterlimit="10" d="M612.5,407.9c-0.1,6.5-0.8,12.698-1.8,18.6"/>
		<path fill="none" stroke="#000000" stroke-width="0.5" stroke-miterlimit="10" d="M604.7,361.9c3.898,9.6,6.6,21.1,7.5,33.6"/>
		<path fill="none" stroke="#000000" stroke-width="0.5" stroke-miterlimit="10" d="M600.5,353.3c1.5,2.7,2.9,5.5,4.2,8.601
			l-0.4,0.199l-24.898,41"/>
		<path fill="none" stroke="#000000" stroke-width="0.5" stroke-miterlimit="10" d="M584.5,336.1c6.1,3.4,11.5,9.301,16,17.2
			l-0.5,0.3l-23.6,45.2"/>
		<line fill="none" stroke="#000000" stroke-width="0.5" stroke-miterlimit="10" x1="580" y1="411.1" x2="608.2" y2="437.5"/>
		<line fill="none" stroke="#000000" stroke-width="0.5" stroke-miterlimit="10" x1="604.7" y1="447.9" x2="576.8" y2="415.1"/>
		<path fill="none" stroke="#000000" stroke-width="0.5" stroke-miterlimit="10" d="M579,333.8c1.9,0.5,3.7,1.3,5.5,2.3l-0.5,1
			l-7.9,61.5"/>
		<path fill="none" stroke="#000000" stroke-width="0.5" stroke-miterlimit="10" d="M579.5,403.3l32.7-7.8c0.2,3.1,0.3,6.3,0.3,9.5
			c0,1,0,1.9,0,2.9l-32.4,3.198H579"/>
		<polyline fill="none" stroke="#000000" stroke-width="0.5" stroke-miterlimit="10" points="575.2,415.1 576.8,415.1 595.3,464.4 
					"/>
		<line fill="none" stroke="#000000" stroke-width="0.5" stroke-miterlimit="10" x1="588.5" y1="471.3" x2="573" y2="417.6"/>
		<path fill="none" stroke="#000000" stroke-width="0.5" stroke-miterlimit="10" d="M559.5,337.3c4.2-2.8,8.8-4.3,13.5-4.3
			c2,0,4,0.3,6,0.8l-0.2,1.5L572,397"/>
		<path fill="none" stroke="#000000" stroke-miterlimit="10" d="M571.5,397L571.5,397c0.2,0,0.3,0,0.5,0c1.5,0.1,3,0.7,4.2,1.5
			c0.1,0.1,0.2,0.2,0.3,0.2c1.3,1.1,2.4,2.6,3,4.3c0,0.1,0.1,0.1,0.1,0.2c0.302,1,0.5,2.1,0.5,3.2c0,1.6-0.398,3.198-1,4.5
			c-0.8,1.8-2.198,3.198-3.8,4c-1.1,0.6-2.398,0.898-3.7,0.898"/>
		<path fill="none" stroke="#000000" stroke-width="0.5" stroke-miterlimit="10" d="M568.6,415.4c0.9,0.398,1.9,0.6,2.9,0.6l1.5,1.6
			l-4.4,59"/>
		<path fill="none" stroke="#000000" stroke-width="0.5" stroke-miterlimit="10" d="M564.7,412.2c1,1.5,2.3,2.6,3.898,3.2
			l-0.3,1.198"/>
		<polyline fill="none" stroke="#000000" stroke-width="0.5" stroke-miterlimit="10" points="547.3,459.7 568.3,416.6 562.9,474.6 
					"/>
		<path fill="none" stroke="#000000" stroke-width="0.5" stroke-miterlimit="10" d="M553.3,342.5c1.9-2,4-3.8,6.102-5.2l0.8,1.3
			l11.2,58.4c-1.602,0-3.2,0.5-4.5,1.4"/>
		<path fill="none" stroke="#000000" stroke-width="0.5" stroke-miterlimit="10" d="M539.7,366.4c3.398-9.801,8.1-18,13.7-23.801
			l1,0.801l12.8,55.1c-0.3,0.2-0.5,0.4-0.8,0.6"/>
		<path fill="none" stroke="#000000" stroke-miterlimit="10" d="M154.4,219.1c5.3,1.1,12.6,0.9,12.6,0.9l370,1
			c3.5-0.2,6.5-0.6,9.2-1.2"/>
		<path fill="none" stroke="#000000" stroke-width="0.5" stroke-miterlimit="10" d="M535.9,429.8c-0.5-2.7-1-5.398-1.4-8.3"/>
		<line fill="none" stroke="#000000" stroke-width="0.5" stroke-miterlimit="10" x1="564.3" y1="412.6" x2="542.7" y2="451.1"/>
		<path fill="none" stroke="#000000" stroke-width="0.5" stroke-miterlimit="10" d="M536.8,376.2c0.8-3.4,1.8-6.7,2.9-9.8l0.6,0.199
			l26,32.399c-1.5,1.3-2.6,3.2-3.1,5.4"/>
		<path fill="none" stroke="#000000" stroke-miterlimit="10" d="M554,499.1c-14.7,0.602-30.5,0.302-40-1.1c-20-3-35-38-35-38
			l-0.1-1.4"/>
		<path fill="none" stroke="#000000" stroke-width="0.5" stroke-miterlimit="10" d="M533.5,406.6c0-0.5,0-1,0-1.6
			c0-10.2,1.2-20,3.3-28.8l0.5,0.1l25.9,28.102c0,0.198-0.102,0.398-0.102,0.698"/>
		<path fill="none" stroke="#000000" stroke-miterlimit="10" d="M535,429.9l0.9-0.2c1.6,7.8,3.898,15.1,6.8,21.398
			c1.398,3.102,3,6,4.7,8.602c4.5,6.898,9.8,12.1,15.6,14.898c1.8,0.9,3.8,1.5,5.7,1.9c1.398,0.3,2.898,0.4,4.398,0.4
			c5.5,0,10.7-2,15.5-5.7c2.4-1.9,4.7-4.2,6.9-6.9c3.6-4.5,6.8-10.1,9.4-16.5c1.3-3.3,2.5-6.7,3.5-10.398c1-3.5,1.8-7.2,2.5-11
			l2.1,0.398c-0.1,0.5-0.1,0.8-0.1,0.8h0.1c1.2,0.602,3.3,0.9,6.3,0.9v1.1c0,50-30,64.302-30,64.302c-3.7,2.6-18.7,4.398-35,5.1
			c-6.6-2-22.398-9.8-30.1-45.2l-0.4-1.8"/>
		<path fill="none" stroke="#000000" stroke-miterlimit="10" d="M533.7,426c0.2,0,0.3,0,0.3,0c0.5,1.3,0.8,2.7,1,3.9
			c2.7,13.698-6,21.1-6,21.1c-1.8,0.4-3.6,0.8-5.4,1.1c-13.398,2.7-28.398,4.802-44.698,6.5C386.3,468,254,461.8,159.7,455"/>
		<path fill="none" stroke="#000000" stroke-width="0.5" stroke-miterlimit="10" d="M534.5,421.5c-0.6-4.8-1-9.8-1-14.9h0.3
			l29.3-1.5c-0.1,0.5-0.1,0.9-0.1,1.4c0,2.1,0.6,4.1,1.7,5.7l-0.4,0.398L534.5,421.5z"/>
		<path fill="none" stroke="#000000" stroke-miterlimit="10" d="M381,306c0,0,46.1-23.1,88.3-30.7"/>
		<path fill="none" stroke="#000000" stroke-miterlimit="10" d="M442.7,414.9c-7.4,0-13.3-5.5-13.3-12.302c0-6.8,6-12.3,13.3-12.3
			c7.398,0,13.3,5.5,13.3,12.3C456,409.4,450,414.9,442.7,414.9z"/>
		<path fill="none" stroke="#000000" stroke-miterlimit="10" d="M243.4,305l137.6,1c-36,21,4,30,4,30"/>
		<path fill="none" stroke="#000000" stroke-miterlimit="10" d="M216.5,305c3.6-2.8,8.4-4.5,13.5-4.5s9.8,1.7,13.4,4.5
			c4.6,3.6,7.6,9,7.6,15c0,5.8-2.7,11-7,14.5"/>
		<path fill="none" stroke="#000000" stroke-miterlimit="10" d="M107,304l109.3,0.8l0.2,0.2c-4.6,3.6-7.5,9-7.5,15
			c0,5.6,2.6,10.7,6.7,14.3"/>
		<path fill="none" stroke="#000000" stroke-miterlimit="10" d="M663.5,266.6c-5.6,1.9-9.2,4.1-8.9,5.7c0.302,1.6,4.302,2.3,9.9,2
			v0.2c1.7,3.7,5,6.1,8.7,6.1c4.898,0,9-4.3,9.8-9.9c5.6-1.9,9.1-4.1,8.8-5.7s-4.2-2.3-9.8-2c-1.7-3.8-5-6.4-8.8-6.4
			c-4.9,0-9,4.2-9.8,9.8L663.5,266.6z"/>
		<path fill="none" stroke="#000000" stroke-miterlimit="10" d="M591,229c0,0,4,18,17,13c0,0,4.9-0.8,12-1.7c2.2-0.3,4.5-0.6,7-0.9
			c11.8-1.5,26.5-3.1,36-3.4c0,0,18-2,18-15c0,0,1.1-0.2,2.9-0.5c1.8-0.3,4.3-0.9,7.198-1.5c12.602-2.9,32.9-8.8,36.9-16.9
			c0,0,3-2.7-9.7-28.7L698,132c0,0-9.3-17.7-49-20l-5.9,0.5l-5.5,0.5c-26-3-42.698,16-42.698,16c-6,8-10,82-10,82
			C585,224,591,229,591,229z"/>
		<path fill="none" stroke="#000000" stroke-miterlimit="10" d="M148.5,207c23.7-24.8,84.7-87.6,97.5-90c0,0,29-14,67-15l347,2
			c0,0,24-2,46,22c0,0,51,91,53,102c0,0,11,13,17,19c0,0,6.3,31.8,9.3,50.8L785,298l-0.7-0.1C774,286.1,756,283.6,738.9,370.6"/>
		<path fill="none" stroke="#000000" stroke-miterlimit="10" d="M29.6,356.1c4.3-28.3,13.3-61.8,31.4-91.1c0,0,36.7-21.3,60.1-35.9"
			/>
		<path fill="none" stroke="#000000" stroke-miterlimit="10" d="M621.9,389.9L621.3,389.8c4.102-33.2-0.3-76-50.398-77.3
			c0,0-26.602,0.3-40.102,24.5c-0.2,0.3-0.3,0.6-0.5,0.9c-8.8,16.398-11.5,43.5,3.4,88.1c-4.8,1-74.7,14.8-127.7,11
			c0,0-252,11-302,0c0,0-77-6-78-18"/>
		<path fill="none" stroke="#000000" stroke-miterlimit="10" d="M92,333l123.7,1.3c3.8,3.3,8.8,5.2,14.3,5.2c5.4,0,10.3-1.9,14-5
			l141,1.5l102-11c41-43,2-52,2-52c-6.3,0.3-13,1.1-19.7,2.3c5.8-10,68.7-43.3,68.7-43.3c9-3.3,8.6-9.9,8.2-12.2
			C567.6,215.4,566,202,566,202l12-73c2-14-5-14-5-14l-314,2c-12,1-17,7-17,7c-9-2-91,88-91,88c-4.1,4.1-1.1,6.2,3.4,7.1L154,221
			l-24,16c-10,6-23,67-23,67"/>
		<polyline fill="none" stroke="#000000" stroke-miterlimit="10" points="303,383 304,352 148,349 147,381.2 		"/>
		<path fill="none" stroke="#000000" stroke-miterlimit="10" d="M92.1,380.6L40,380c-8,29,13,40,13,40c271,36,402-2,402-2
			c28-13,17-33,17-33l-101-1.2"/>
		<path fill="none" stroke="#000000" stroke-miterlimit="10" d="M148.5,207c-5.9,6.1-9.5,10-9.5,10c-0.2,0.2-0.4,0.4-0.6,0.5
			c-2.9,2.3-9.3,6.6-17.3,11.6L121,229c0,0-13.7-2.1-16-4c-4-3.3-11-10-1-18c0,0,35.7-14.2,42-11C147.9,197,152.7,197.9,148.5,207z"
			/>
		<path fill="none" stroke="#000000" stroke-miterlimit="10" d="M92.1,380.6L147,381.2l156,1.8l68,0.8v0.5c-2,37-28.3,35-28.3,35
			c-22,7-215.3,0.7-215.3,0.7C103.2,419.1,93.5,385.5,92.1,380.6z"/>
		<path fill="none" stroke="#000000" stroke-miterlimit="10" d="M92,333l-36-7c-12.3-5.3-9-20-9-20c-1-6,9-25,9-25c6-10,15-7,15-7
			c6-1,36,30,36,30C111,330,92,333,92,333z"/>
		<path fill="none" stroke="#000000" stroke-miterlimit="10" d="M44.5,400c0-7.7,6-14,13.5-14s13.5,6.3,13.5,14s-6,14-13.5,14
			S44.5,407.7,44.5,400z"/>
		<path fill="none" stroke="#000000" stroke-miterlimit="10" d="M29.6,356.1C24.1,391.7,26,419,26,419s-5,25,18,26
			c0,0,48.1,5.2,115.7,10v0.3c-1.7,2-16.7,30-33.7,36.7c-4.4,1.7-29-0.5-43-0.8c-5.9-0.102-10-0.2-10-0.2c-90-10-44-135-44-135
			L29.6,356.1z"/>
	</g>
</g>
<line fill="none" stroke="#000000" stroke-width="0.25" x1="721.9" y1="357.6" x2="621.9" y2="389.9"/>
<line fill="none" stroke="#000000" stroke-width="0.25" x1="738.9" y1="370.6" x2="721.9" y2="357.6"/>
<line fill="none" stroke="#000000" stroke-width="0.25" x1="591.9" y1="266.6" x2="747.9" y2="234.6"/>
<path fill="none" stroke="#000000" stroke-width="0.25" d="M741.9,304.2l11-15.3c-18-11-137,28.699-137,28.699
	s-12-16.699-44.7-19.301l74.7-19.7"/>
<line fill="none" stroke="#000000" stroke-width="0.25" x1="703.2" y1="263.9" x2="748.9" y2="254.6"/>
<path fill="none" stroke="#000000" stroke-width="0.25" d="M530.2,337.9c-5.9,0.5-14.5-0.5-16.3-2.301c0,0-11-18-20-18"/>
<path fill="none" stroke="#000000" stroke-width="0.25" d="M376.9,302.6c0,0,69-55,103-55"/>
<line fill="none" stroke="#000000" stroke-width="0.25" x1="138.9" y1="217.6" x2="107.9" y2="215.6"/>
<line id="www.ABC-color.com" fill="none" stroke="#000000" stroke-width="0.25" x1="116.9" y1="312.6" x2="198.9" y2="312.6"/>
<line fill="none" stroke="#000000" stroke-width="0.25" x1="111.9" y1="323.6" x2="204.9" y2="325.6"/>
<line fill="none" stroke="#000000" stroke-width="0.25" x1="260.9" y1="314.6" x2="351.9" y2="315.6"/>
<line fill="none" stroke="#000000" stroke-width="0.25" x1="253.9" y1="328.6" x2="362.9" y2="328.6"/>
<path fill="none" stroke="#000000" stroke-width="0.5" d="M643.2,113.9c0,0,39.3,74.7,40.7,106.7c0,0,7,11,10,25.3l8,15.3l6,28.7
	c0,0,7.3,24-6,73.3"/>
<path fill="none" stroke="#000000" stroke-width="0.25" d="M707.9,289.9c0,0,7.3,24-6,73.3"/>
<line fill="none" stroke="#000000" stroke-width="0.25" x1="619.6" y1="400.6" x2="738.9" y2="377.9"/>
<line fill="none" stroke="#000000" stroke-width="0.25" x1="615.6" y1="418.2" x2="738.6" y2="393.9"/>
<line fill="none" stroke="#000000" stroke-width="0.5" x1="698.6" y1="383.9" x2="700.6" y2="401.2"/>
<line fill="none" stroke="#000000" stroke-width="0.5" x1="701.9" y1="363.2" x2="698.6" y2="383.9"/>
</svg>
