<?xml version="1.0" encoding="utf-8"?>
<!-- Generator: Adobe Illustrator 15.0.2, SVG Export Plug-In . SVG Version: 6.00 Build 0)  -->
<!DOCTYPE svg PUBLIC "-//W3C//DTD SVG 1.1//EN" "http://www.w3.org/Graphics/SVG/1.1/DTD/svg11.dtd">
<svg version="1.1" id="layer_x5F_www.ABC-color.com"
	 xmlns="http://www.w3.org/2000/svg" xmlns:xlink="http://www.w3.org/1999/xlink" x="0px" y="0px" width="822px" height="567px"
	 viewBox="0 0 822 567" enable-background="new 0 0 822 567" xml:space="preserve">
<rect x="0.5" y="0.5" fill="#FFFFFF" width="822" height="567"/>
<polyline fill="none" stroke="#000000" points="16.9,540.4 18.2,548.4 20.1,540.5 21.9,548.4 23.3,540.4 "/>
<polyline fill="none" stroke="#000000" points="24.7,540.5 26,548.3 27.8,540.4 29.3,548.3 31,540.4 "/>
<polyline fill="none" stroke="#000000" points="32.3,540.4 33.6,548.1 35.4,540.4 37,548.1 38.4,540.4 "/>
<line fill="none" stroke="#000000" x1="51.9" y1="537.1" x2="51.9" y2="548.7"/>
<line fill="none" stroke="#000000" x1="62.6" y1="544.5" x2="64.5" y2="544.5"/>
<polyline fill="none" stroke="#000000" points="77.9,537 77.9,548.8 80.7,548.8 "/>
<path fill="none" stroke="#000000" d="M69.9,547.3c-0.3,0.8-0.9,1.3-1.4,1.3c-1.1,0-1.9-1.8-1.9-4c0-2.199,0.9-4,1.9-4
	c0.7,0,1.2,0.7,1.6,1.7"/>
<path fill="none" stroke="#000000" d="M73,548.8c-0.9,0-1.7-1.899-1.7-3.8c0-2.2,0.9-4,1.9-4s1.9,1.8,1.9,4s-0.6,3.7-1.4,3.7"/>
<path fill="none" stroke="#000000" d="M60.8,547.1c-0.4,0.801-0.9,1.301-1.4,1.301c-1.1,0-1.9-1.801-1.9-4c0-2.2,0.9-4,1.9-4
	c0.7,0,1.2,0.699,1.6,1.699"/>
<path fill="none" stroke="#000000" d="M51.9,542.3c0.3-0.6,1.3-0.6,1.8-0.6c0.7,0,1.7,1,1.7,3.3c0,1.3,0,2.3-0.9,2.9
	c-0.2,0.199-0.8,0.399-1.1,0.399"/>
<path fill="none" stroke="#000000" stroke-width="1.0581" d="M45.6,541c0,0,3.6-3.2,3.3,2.4c0,0-0.1,3.5,0.1,4.399
	c0.1,0.4,0.9,0.4,0.9,0.4"/>
<path fill="none" stroke="#000000" d="M41.4,548.4c0.7,0,0.7-1.101,0-1.101C40.7,547.3,40.7,548.4,41.4,548.4L41.4,548.4z"/>
<path fill="none" stroke="#000000" d="M82.7,549c-0.8,0-1.2-2.2-1.2-4c0-2.2,0.9-4,1.9-4s1.9,1.8,1.9,4s-0.9,4-1.9,4"/>
<line fill="none" stroke="#000000" x1="87.2" y1="540.4" x2="87.2" y2="549.2"/>
<path fill="none" stroke="#000000" d="M90.6,541.6c0,0-2.2-2.3-3.4,1.4"/>
<line fill="none" stroke="#000000" x1="108.4" y1="540.8" x2="108.4" y2="549.3"/>
<path fill="none" stroke="#000000" d="M112.1,549.3v-6c0,0-1.5-3.899-3.7,0"/>
<path fill="none" stroke="#000000" d="M115.5,549.3v-6.1c0,0-1-3.601-3.5-0.2"/>
<path fill="none" stroke="#000000" d="M99.8,547.4c-0.3,0.8-0.9,1.3-1.4,1.3c-1.1,0-1.9-1.8-1.9-4s0.9-4,1.9-4
	c0.7,0,1.2,0.7,1.6,1.7"/>
<path fill="none" stroke="#000000" d="M103.4,548.6c-1.1-0.5-2.2-7.699,0.9-7.899c1.1-0.101,1.9,1.8,1.9,4s-0.9,4-1.9,4"/>
<path fill="none" stroke="#000000" d="M92.9,549.1c0.7,0,0.7-1.1,0-1.1C92.2,548,92.2,549.1,92.9,549.1L92.9,549.1z"/>
<path fill="none" stroke="#000000" d="M48.9,544.9c-0.3-0.601-0.6-1.4-1.7-1.4c-0.7,0-1.6,0.1-1.6,2.4c0,1.3,0.5,1.8,0.9,2
	c0.2,0.1,0.8,0.399,1.1,0.399"/>
<path fill="#FFFFFF" stroke="#000000" d="M285.5,486.5c6,2,2,10,2,10l-10,3l-3-11C274.5,488.5,279.5,484.5,285.5,486.5z"/>
<path fill="#FFFFFF" stroke="#000000" d="M431.5,435.5c4,0,5,6,5,6v5l-4,1l-6,1l-9-2c0,0,0,0,5-11S427.5,435.5,431.5,435.5z"/>
<path fill="#FFFFFF" stroke="#000000" d="M109.5,472.5l2,8l-9,3l-8-4v-4l3-4c0,0,0,0,6-2L109.5,472.5z"/>
<path fill="#FFFFFF" stroke="#000000" d="M82.5,439.5c0,0,8-3,12-3s0,6,0,9s-1,6-7,6s-7-2-7-2L82.5,439.5z"/>
<path fill="#FFFFFF" stroke="#000000" d="M54.5,465.5c5-1,11,0,11,0s0,10-5,12s-11,2-11,2s-3-11,0-13
	C49.5,466.5,49.5,466.5,54.5,465.5z"/>
<path fill="#FFFFFF" stroke="#000000" d="M38.5,492.5c8,10-5,6-5,6s0,0-5,0s-7-1-7-1l1-4l1-4c0,0,0,0,3-5S30.5,482.5,38.5,492.5z"/>
<polygon fill="#FFFFFF" stroke="#000000" points="24.5,525.5 27.5,530.5 25.5,539.5 19.5,543.5 14.5,539.5 14.5,530.5 20.5,525.5 
	"/>
<path fill="#FFFFFF" stroke="#000000" d="M63.5,521.5c0,0,0,0,8,6s0,4-3,10s-6,1-12,1s-3-9-3-9s0,0,2-4S63.5,521.5,63.5,521.5z"/>
<path fill="#FFFFFF" stroke="#000000" d="M112.5,535.5c4,0,0,8,0,8l-3,6l-6,1l-8-2l2-7c0,0,0,0,4-4s7-2,7-2S108.5,535.5,112.5,535.5
	z"/>
<path fill="#FFFFFF" stroke="#000000" d="M105.5,502.5c0,0-4,9-8,9s-6-7-6-7l7-7L105.5,502.5z"/>
<polygon fill="#FFFFFF" stroke="#000000" points="150.5,477.5 146.5,489.5 136.5,491.5 131.5,487.5 141.5,481.5 "/>
<path fill="#FFFFFF" stroke="#000000" d="M156.5,523.5c0,0,0,0,4,3s-1,5-5,9s-10,1-10,1s-7-7-7-13c0-3.4,2.9-4.9,5.4-5.5
	c1.9-0.5,3.6-0.5,3.6-0.5L156.5,523.5z"/>
<path fill="#FFFFFF" stroke="#000000" d="M191.5,507.5c6,5,8,11,5,14s-13-2-18-2C178.5,519.5,185.5,502.5,191.5,507.5z"/>
<path fill="#FFFFFF" stroke="#000000" d="M168.5,466.5c0,0,11-1,14-1s0,7,0,7s-5,5-11,6l-3-5V466.5z"/>
<path fill="#FFFFFF" stroke="#000000" d="M212.5,465.5c0-5,5,0,11,0s2,6,2,6l-1,4l-13,2l1-7C212.5,470.5,212.5,470.5,212.5,465.5z"
	/>
<path fill="#FFFFFF" stroke="#000000" d="M262.5,498.5c3,0,5,5,5,9s-3,6-7,5s-5-11-5-11S259.5,498.5,262.5,498.5z"/>
<polygon fill="#FFFFFF" stroke="#000000" points="217.5,544.5 212.5,556.5 204.5,556.5 210.5,545.5 "/>
<path fill="#FFFFFF" stroke="#000000" d="M252.5,527.5c0,0-5,8-8,8s-13-5-13-5s1-5,1-9s9-2,9-2L252.5,527.5z"/>
<path fill="#FFFFFF" stroke="#000000" d="M284.5,541.5c0,0,4,1,7,1s0,6,0,6l-4,8l-4,1l-7-4v-5l-4-3L284.5,541.5z"/>
<path fill="#FFFFFF" stroke="#000000" d="M330.5,508.5c2,6,3,15-7,13s-10-2-10-2S328.5,502.5,330.5,508.5z"/>
<path fill="#FFFFFF" stroke="#000000" d="M327.5,457.5c0,0,2,5,1,8s-2,4-2,4l-11,3v-5l-1-6c0,0,2-4,5-6S327.5,457.5,327.5,457.5z"/>
<polygon fill="#FFFFFF" stroke="#000000" points="374.5,471.5 374.5,477.5 366.5,480.5 355.5,479.5 355.5,469.5 367.5,467.5 "/>
<path fill="#FFFFFF" stroke="#000000" d="M363.5,433.5c5-3,5,0,11-1s1,7,3,11s-1,9-1,9h-7l-6-1l1-5l-4-2c-4-2-2-8-2-8
	S358.5,436.5,363.5,433.5z"/>
<path fill="#FFFFFF" stroke="#000000" d="M419.5,467.5c3-1,12-1,14,2s-7,9-15,11s-7-3-10-8C408.5,472.5,416.5,468.5,419.5,467.5z"/>
<path fill="#FFFFFF" stroke="#000000" d="M435.5,499.5c4-2,7,2,7,2l-5,10l-8,4l-3-11C426.5,504.5,431.5,501.5,435.5,499.5z"/>
<path fill="#FFFFFF" stroke="#000000" d="M401.5,505.5c0,0,3,4-3,12s-4,0-9-4s0,0,0-5s0-7,0-7l5-2L401.5,505.5z"/>
<path fill="#FFFFFF" stroke="#000000" d="M367.5,528.5c9-4,6,5,6,5l-2,7c0,0-6,1-9,2s-7-2-7-2l6.8-9.7
	C363.5,530.3,365.2,529.5,367.5,528.5z"/>
<path fill="#FFFFFF" stroke="#000000" d="M420.5,540.5l1,8l-8,7l-12-5l2-5v-4c0,0,7-1,13-1H420.5z"/>
<path fill="#FFFFFF" stroke="#000000" d="M462.5,551.5c0,0-7,1-10,1s-6-4-6-4l2-10h4c0,0,0,0,3-4c0,0,7,3,12,3s0,6,0,6L462.5,551.5z
	"/>
<path fill="#FFFFFF" stroke="#000000" d="M669.5,463.5c0,0-2,4-6,5s-7,1-7,1l9-9L669.5,463.5z"/>
<polygon fill="#FFFFFF" stroke="#000000" points="519.5,442.5 517.5,451.5 508.5,451.5 508.5,445.5 514.5,441.5 "/>
<path fill="#FFFFFF" stroke="#000000" d="M471.5,453.5c5-1,10,0,10,0l-5,11c0,0-6,1-12,0s2-10,2-10l-3.9-1.9
	C463.3,452.9,467,454.4,471.5,453.5z"/>
<path fill="#FFFFFF" stroke="#000000" d="M473.5,487.5c0-7,0,0,3-2s8,3,8,3l3,6l-2,6l-9,1c0,0,0,0-3-3s0-4,0-4
	S473.5,494.5,473.5,487.5z"/>
<path fill="#FFFFFF" stroke="#000000" d="M601.5,514.5c6,5,1,9-1,12s-8,1-11,0s-6-2-7-6s1-6,7-7
	C589.5,513.5,595.5,509.5,601.5,514.5z"/>
<path fill="#FFFFFF" stroke="#000000" d="M582.5,544.5l-1,4l-6,3c0,0,0,0-5-2s4-7,4-7l-2-4L582.5,544.5z"/>
<path fill="#FFFFFF" stroke="#000000" d="M547.5,523.5l6,8l-1,4l-10,6l-2-8l-1-3c0,0,0,0,0-5L547.5,523.5z"/>
<path fill="#FFFFFF" stroke="#000000" d="M514.5,521.5c2,4-11,9-14,9s-12-3-10-8c0,0,5-4,9-5S512.5,517.5,514.5,521.5z"/>
<path fill="#FFFFFF" stroke="#000000" d="M520.5,501.5c-3,0-4-11-4-15l9,2l9,4l-2,7C532.5,499.5,523.5,501.5,520.5,501.5z"/>
<polygon fill="#FFFFFF" stroke="#000000" points="571.5,458.5 574.5,463.5 572.5,472.5 564.5,473.5 563.5,466.5 "/>
<path fill="#FFFFFF" stroke="#000000" d="M631.5,444.5l-6,4l-4,1h-6l-1-5l-3-2c0,0,0,0,3-7l6-2L631.5,444.5z"/>
<path fill="#FFFFFF" stroke="#000000" d="M633.5,489.5c0,0-6,11-9,11s-9-9-9-12l-1-4l14-6L633.5,489.5z"/>
<polygon fill="#FFFFFF" stroke="#000000" points="692.5,529.5 693.5,533.5 691.5,539.5 682.5,542.5 677.5,531.5 683.5,528.5 "/>
<path fill="#FFFFFF" stroke="#000000" d="M648.5,543.5c2,6,0,0-3,6l-6,2l-7-3c0,0,0,0,0-4S646.5,537.5,648.5,543.5z"/>
<path fill="#FFFFFF" stroke="#000000" d="M723.5,524.5c-3-6,0,0,0-4s0-5,0-5c4-2,11-2,14,1c0,0-1,9-11,14S726.5,530.5,723.5,524.5z"
	/>
<path fill="#FFFFFF" stroke="#000000" d="M685.5,489.5c0,0,11-2,13,1s-5,4-12,8s-9-1-9-1L685.5,489.5z"/>
<path fill="#FFFFFF" stroke="#000000" d="M708.5,464.5c-1-4,0,0,3,0s10,4,10,4v6v6l-4,3c0,0,0,0-3-5s-1-4-5-10L708.5,464.5z"/>
<path fill="#FFFFFF" stroke="#000000" d="M746.5,462.5c4,3-2,8-2,8l-5,5l-6-11l4-4C741.5,456.5,742.5,459.5,746.5,462.5z"/>
<path fill="#FFFFFF" stroke="#000000" d="M803.2,508.2c0.3-0.7,0.5-2.101-0.7-3.7c-3-4,0,0,1-8s0,0,3-3s7,4,7,4s0,0-7,7
	C804.5,506.5,803.6,507.6,803.2,508.2z"/>
<path fill="#FFFFFF" stroke="#000000" d="M777.5,485.5c3,1-4,15-4,15s-9,1-12,1s0-8,0-8s0-3,5-5S774.5,484.5,777.5,485.5z"/>
<path fill="#FFFFFF" stroke="#000000" d="M789.5,535.5c3,0,4,7,4,7l-2,9c0,0,0,0-13-4c-1.7-0.5-3-0.9-4.1-1.2l-0.9-3.8c0,0,0,0,2-8
	s0,0,4-1S786.5,535.5,789.5,535.5z"/>
<path fill="#FFFFFF" stroke="#000000" d="M822.5,533.5c0,0-4,6-5,13l-7-3l7-9L822.5,533.5z"/>
<path fill="#FFFFFF" stroke="#000000" d="M794.5,442.5c6-2,0,0,4,0s2,6,2,6l-3,8h-5l-4-2l-5-2l5-5l-4-2
	C784.5,442.5,788.5,444.5,794.5,442.5z"/>
<path fill="#FFFFFF" stroke="#000000" d="M704.5,399.6c1.8,0,3.5-0.399,5.1-1l0.2,0.601l6.3,21.3c-3.699,1.3-7.6,2-11.699,2
	c-3.601,0-7-0.5-10.301-1.5l7.9-21.5v-0.1C702.4,399.4,703.1,399.6,704.5,399.6z"/>
<path fill="#FFFFFF" stroke="#000000" d="M784.5,401.5c2-6,7-2,7-2s4,4,8,10s-4,10-4,10s0,0-3,0s-12-2-12-2l2-10L784.5,401.5z"/>
<path fill="#FFFFFF" stroke="#000000" d="M388,274c0,0,0.5-8.2,6.1-14.7c-1.199,2.8-4.3,11.9,3,16.7c-1.399-0.1-2.3,0.4-1.699,2.5
	C382.8,285.6,388,274,388,274z"/>
<path fill="#FFFFFF" stroke="#000000" d="M131.6,425.5c30.3,2,59.3,3.6,75,4.4v0.6c-40,33-75-4-75-4V425.5z"/>
<polygon fill="#FFFFFF" stroke="#000000" points="17.5,448.5 19.5,452.5 13.5,457.5 5.5,455.5 5.5,449.5 7.5,445.5 12.5,445.5 "/>
<path fill="#FFFFFF" stroke="#000000" d="M570.5,549.5c5,2,5,2,5,2l6-3l1-4l-10-6l2,4C574.5,542.5,565.5,547.5,570.5,549.5z
	 M632.5,544.5c0,4,0,4,0,4l7,3l6-2c3-6,5,0,3-6S632.5,540.5,632.5,544.5z M539.5,525.5c0,5,0,5,0,5l1,3l2,8l10-6l1-4l-6-8
	L539.5,525.5z M520.5,501.5c3,0,12-2,12-2l2-7l-9-4l-9-2C516.5,490.5,517.5,501.5,520.5,501.5z M780.5,417.5c0,0,9,2,12,2s3,0,3,0
	s8-4,4-10s-8-10-8-10s-5-4-7,2l-2,6L780.5,417.5z M500.5,530.5c3,0,16-5,14-9s-11-5-15-4s-9,5-9,5
	C488.5,527.5,497.5,530.5,500.5,530.5z M212.5,465.5c0,5,0,5,0,5l-1,7l13-2l1-4c0,0,4-6-2-6S212.5,460.5,212.5,465.5z M803.2,508.2
	C802.7,508.9,803,508.8,803.2,508.2L803.2,508.2z M803.2,508.2c0.399-0.601,1.3-1.8,3.3-3.7c7-7,7-7,7-7s-4-7-7-4s-2-5-3,3s-4,4-1,8
	C803.7,506.1,803.5,507.5,803.2,508.2z M464.5,464.5c6,1,12,0,12,0l5-11c0,0-5-1-10,0c-4.5,0.9-8.2-0.6-8.9-0.9l3.9,1.9
	C466.5,454.5,458.5,463.5,464.5,464.5z M663.5,468.5c4-1,6-5,6-5l-4-3l-9,9C656.5,469.5,659.5,469.5,663.5,468.5z M476.5,485.5
	c-3,2-3-5-3,2s0,7,0,7s-3,1,0,4s3,3,3,3l9-1l2-6l-3-6C484.5,488.5,479.5,483.5,476.5,485.5z M376.5,452.5c0,0,3-5,1-9s3-12-3-11
	s-6-2-11,1s-5,3-5,3s-2,6,2,8l4,2l-1,5l6,1H376.5z M56.5,538.5c6,0,9,5,12-1s11-4,3-10s-8-6-8-6s-6,0-8,4s-2,4-2,4
	S50.5,538.5,56.5,538.5z M328.5,465.5c1-3-1-8-1-8s-5-4-8-2s-5,6-5,6l1,6v5l11-3C326.5,469.5,327.5,468.5,328.5,465.5z M624.5,500.5
	c3,0,9-11,9-11l-5-11l-14,6l1,4C615.5,491.5,621.5,500.5,624.5,500.5z M80.5,449.5c0,0,1,2,7,2s7-3,7-6s4-9,0-9s-12,3-12,3
	L80.5,449.5z M323.5,521.5c10,2,9-7,7-13s-17,11-17,11S313.5,519.5,323.5,521.5z M231.5,530.5c0,0,10,5,13,5s8-8,8-8l-11-8
	c0,0-9-2-9,2S231.5,530.5,231.5,530.5z M358.9,532.3c0.399-0.2,1.399-0.6,3.399-1.5l-6.8,9.7c0,0,4,3,7,2s9-2,9-2l2-7c0,0,3-9-6-5
	c-2.3,1-4,1.8-5.2,2.3l0.2-0.3L358.9,532.3z M37.5,423.5c-6,1,3-7-6,1s-9,8-9,8h1c-0.3,0.5,0.2,1.6,3,4c7,6,13,5,13,5l2-6v-7
	C41.5,428.5,43.5,422.5,37.5,423.5z M452.5,552.5c3,0,10-1,10-1l5-8c0,0,5-6,0-6s-12-3-12-3c-3,4-3,4-3,4h-4l-2,10
	C446.5,548.5,449.5,552.5,452.5,552.5z M91.5,504.5c0,0,2,7,6,7s8-9,8-9l-7-5L91.5,504.5z M389.5,513.5c5,4,3,12,9,4s3-12,3-12l-7-6
	l-5,2c0,0,0,2,0,7S384.5,509.5,389.5,513.5z M714.5,478.5c3,5,3,5,3,5l4-3v-6v-6c0,0-7-4-10-4s-4-4-3,0l1,4
	C713.5,474.5,711.5,473.5,714.5,478.5z M255.5,501.5c0,0,1,10,5,11s7-1,7-5s-2-9-5-9S255.5,501.5,255.5,501.5z M778.5,547.5
	c13,4,13,4,13,4l2-9c0,0-1-7-4-7s-6-3-10-2s-2-7-4,1s-2,8-2,8l0.9,3.8c-2.101-0.6-2.9-0.8-3-0.8c0.199,0.1,3,1.1,3,1.1L774.3,546.4
	C775.5,546.6,776.8,547,778.5,547.5z M210.7,430.1c9.5,33.301,59.7,28.4,67.2,28.4c24.1,0,44.8-14.7,54-35.8l0.199,0.1l9.801,1.3
	l0.699,0.2v0.2l186.5-6.3v0.8c0,0,35.5,38.5,81.5-3.5l0,0l29-1c11,29,56.801,28,64.301,28c29.6,0,54.1-22.2,58.3-51h0.3l6,2l24-9
	c3.5-2.6,5.5-5.4,6.7-8l0,0l23.3-2v159l-5,1l-7,9l7,3c1-7,5-13,5-13v34H0.5v-150l26-5c0,2.7,17.4,5.4,41.6,7.9
	c18.6,1.899,41.4,3.6,63.4,5.1l-0.1,1c0,0,35,37,75,4v-0.6C208,430,209.4,430,210.7,430.1z M145.5,536.5c0,0,6,3,10-1s9-6,5-9
	s-4-3-4-3l-9-6c0,0-1.7,0-3.6,0.5c-2.5,0.6-5.4,2.1-5.4,5.5C138.5,529.5,145.5,536.5,145.5,536.5z M33.5,498.5c0,0,13,4,5-6
	s-9-13-12-8s-3,5-3,5l-1,4l-1,4c0,0,2,1,7,1S33.5,498.5,33.5,498.5z M723.5,520.5c0,4-3-2,0,4s-7,11,3,6s11-14,11-14c-3-3-10-3-14-1
	C723.5,515.5,723.5,516.5,723.5,520.5z M600.5,526.5c2-3,7-7,1-12s-12-1-12-1c-6,1-8,3-7,7s4,5,7,6S598.5,529.5,600.5,526.5z
	 M800.5,448.5c0,0,2-6-2-6s2-2-4,0s-10,0-10,3l4,2l-5,5l5,2l4,2h5L800.5,448.5z M773.5,500.5c0,0,7-14,4-15s-6,1-11,3s-5,5-5,5
	s-3,8,0,8S773.5,500.5,773.5,500.5z M744.5,470.5c0,0,6-5,2-8s-5-6-9-2l-4,4l6,11L744.5,470.5z M686.5,498.5c7-4,14-5,12-8
	s-13-1-13-1l-8,8C677.5,497.5,679.5,502.5,686.5,498.5z M693.5,533.5l-1-4l-9-1l-6,3l5,11l9-3L693.5,533.5z M625.5,448.5l6-4l-11-11
	l-6,2c-3,7-3,7-3,7l3,2l1,5h6L625.5,448.5z M574.5,463.5l-3-5l-8,8l1,7l8-1L574.5,463.5z M517.5,451.5l2-9l-5-1l-6,4v6H517.5z
	 M437.5,511.5l5-10c0,0-3-4-7-2s-9,5-9,5l3,11L437.5,511.5z M436.5,446.5v-5c0,0-1-6-5-6s-4-11-9,0s-5,11-5,11l9,2l6-1L436.5,446.5z
	 M418.5,480.5c8-2,17-8,15-11s-11-3-14-2s-11,5-11,5C411.5,477.5,410.5,482.5,418.5,480.5z M421.5,548.5l-1-8h-4c-6,0-13,1-13,1v4
	l-2,5l12,5L421.5,548.5z M374.5,477.5v-6l-7-4l-12,2v10l11,1L374.5,477.5z M291.5,548.5c0,0,3-6,0-6s-7-1-7-1l-12,4l4,3v5l7,4l4-1
	L291.5,548.5z M287.5,496.5c0,0,4-8-2-10s-11,2-11,2l3,11L287.5,496.5z M212.5,556.5l5-12l-7,1l-6,11H212.5z M196.5,521.5
	c3-3,1-9-5-14s-13,12-13,12C183.5,519.5,193.5,524.5,196.5,521.5z M182.5,472.5c0,0,3-7,0-7s-14,1-14,1v7l3,5
	C177.5,477.5,182.5,472.5,182.5,472.5z M146.5,489.5l4-12l-9,4l-10,6l5,4L146.5,489.5z M112.5,543.5c0,0,4-8,0-8s-4,0-4,0s-3-2-7,2
	s-4,4-4,4l-2,7l8,2l6-1L112.5,543.5z M111.5,480.5l-2-8l-6-3c-6,2-6,2-6,2l-3,4v4l8,4L111.5,480.5z M65.5,465.5c0,0-6-1-11,0
	s-5,1-5,1c-3,2,0,13,0,13s6,0,11-2S65.5,465.5,65.5,465.5z M27.5,530.5l-3-5h-4l-6,5v9l5,4l6-4L27.5,530.5z M19.5,452.5l-2-4l-5-3
	h-5l-2,4v6l8,2L19.5,452.5z"/>
<path fill="#FFFFFF" stroke="#000000" d="M31.5,424.5c9-8,0,0,6-1s4,5,4,5v7l-2,6c0,0-6,1-13-5c-2.8-2.4-3.4-3.5-3-4h3
	c0,0-2.5-0.7-3,0h-1C22.5,432.5,22.5,432.5,31.5,424.5z"/>
<path fill="#FFFFFF" stroke="#000000" d="M26.5,390.5v22l-26,5v-86l29.8-3.7c-8.7,10.7-7.8,17.7-7.8,17.7
	C15.5,345.5,26.5,390.5,26.5,390.5z"/>
<polygon fill="#FFFFFF" stroke="#000000" points="79.5,310.5 71.5,320.7 64.5,329.5 47.8,327.5 54.5,317.5 61.5,310.5 "/>
<path fill="#FFFFFF" stroke="#000000" d="M39.4,394.8c-7.2-2-12.9-4.3-12.9-4.3s-11-45-4-45l17.1,1.3c0.7,4.101,8.5,47.7-0.1,47.7
	L39.4,394.8z"/>
<path fill="#FFFFFF" stroke="#000000" d="M87.5,350.5c0,0,1.5,9.6,0.2,19.9c-1.5,11.8-6.7,24.5-22.2,25.1
	c-5.1,3.9-16.8,1.9-26.1-0.7l0.1-0.3c8.6,0,0.8-43.6,0.1-47.7L87.5,350.5z"/>
<path fill="#FFFFFF" stroke="#000000" d="M26.5,390.5c0,0,5.7,2.3,12.9,4.3c9.3,2.601,21,4.7,26.1,0.7l1.4,12.7l1.3,11.899v0.2
	c-24.3-2.5-41.6-5.2-41.6-7.899v-21.9H26.5z"/>
<path fill="#FFFFFF" stroke="#000000" d="M214.5,410.5c1.3,4.7,1.1,9.9,4,20c0,0-2.8-0.1-7.8-0.4c-1.3-0.1-2.6-0.1-4.1-0.199
	c-15.7-0.801-44.7-2.4-75-4.4c-22.1-1.5-44.8-3.3-63.4-5.1v-0.2l-1.3-11.9l0.6-0.1L214.5,410.5z"/>
<polygon fill="#FFFFFF" stroke="#000000" points="214.5,398.5 214.5,410.5 67.5,408.2 83.5,407.1 127.9,404.2 151.5,402.6 "/>
<polygon fill="#FFFFFF" stroke="#000000" points="154.5,372.5 151.5,402.5 151.5,402.6 127.9,404.2 127.8,403.5 133.8,373.8 
	138.5,373.5 "/>
<path fill="#FFFFFF" stroke="#000000" d="M127.8,403.5v0.7L83.4,407.1c0.4-1.199,7.9-21.5,15-33l40-0.699l0,0l-4.7,0.3L127.8,403.5z
	"/>
<path fill="#FFFFFF" stroke="#000000" d="M101.5,355.5c7-1,72-6,72-6s5,7,0,9s-64.6,6.8-68.3,8.3c-2,0.8-4.3,3.601-6.7,7.3
	c-7.1,11.4-14.6,31.801-15,33l-16,1l-0.6,0.101l-1.4-12.7c15.5-0.5,20.7-13.3,22.2-25.1C88.9,368.1,95.2,356.4,101.5,355.5z"/>
<path fill="#FFFFFF" stroke="#000000" d="M204.5,297.5c0,0-7,24-53,32l-66,7c0,0,31-30,50-30L204.5,297.5z"/>
<path fill="#FFFFFF" stroke="#000000" d="M304.2,325.2c41,19.7,39.3,68.3,39.3,68.3l4,9l-5,21.8l-0.7-0.2l-9.8-1.3l-0.2-0.1
	c3.2-7.4,5-15.601,5-24.3c0-33.101-26.399-60-59-60c-2,0-3.9,0.1-5.8,0.3v-0.3c0,0-34,1-45.8,10.399c10.6-17.1,24.6-21.7,24.6-21.7
	C283.5,316.5,304.2,325.2,304.2,325.2z"/>
<path fill="#FFFFFF" stroke="#000000" d="M210.7,430.1c5,0.301,7.8,0.4,7.8,0.4c-2.9-10.1-2.7-15.3-4-20v-12
	c-0.4-22.9,5-38.8,11.8-49.6c11.8-9.4,45.8-10.4,45.8-10.4v0.3c-29.9,3-53.2,28.601-53.2,59.7c0,33.1,26.4,60,59,60
	C270.4,458.5,220.1,463.4,210.7,430.1z"/>
<path fill="#FFFFFF" stroke="#000000" d="M230.3,401.5c0,26.5,21.1,48,47.2,48c26.1,0,47.2-21.5,47.2-48s-21.101-48-47.2-48
	C251.4,353.5,230.3,375,230.3,401.5z M277.8,338.5c32.601,0,59,26.9,59,60c0,8.6-1.8,16.8-5,24.3c-9.2,21.101-29.899,35.8-54,35.8
	c-32.6,0-59-26.899-59-60c0-31.199,23.3-56.699,53.2-59.699C273.9,338.6,275.9,338.5,277.8,338.5z"/>
<path fill="#FFFFFF" stroke="#000000" d="M278.5,415.6c1.8,0,3.5-0.399,5.1-1l0.2,0.601l6.3,21.3c-3.6,1.3-7.6,2-11.7,2
	c-3.6,0-7-0.5-10.3-1.5l7.9-21.5v-0.1C276.4,415.4,277.1,415.6,278.5,415.6z"/>
<path fill="#FFFFFF" stroke="#000000" d="M267.2,410.5l-15.3,15.7c-4.2-4.8-7.1-10.8-8.2-17.4l20.5-4.6h0.1c0.4,2.5,1.7,4.2,3.3,6.1
	L267.2,410.5z"/>
<path fill="#FFFFFF" stroke="#000000" d="M292.8,402.5l21,2c-0.5,8.6-3.899,16.4-9.3,22.3l-13.4-18
	C292.6,406.6,292.8,405.4,292.8,402.5z"/>
<path fill="#FFFFFF" stroke="#000000" d="M306.5,380.5l-0.4,0.3l-16.3,11c0,0-3.6-3.8-6.8-4.5l-0.2-0.5l1.7-19.3l0.1-0.5
	C293.5,368.6,301.3,373.5,306.5,380.5z"/>
<path fill="#FFFFFF" stroke="#000000" d="M245.5,389.4c2.5-6.601,6.9-12.2,12.5-16.2h0.8l10,16.7l0.4,0.6c-2.3,1.7-3,1.5-4,4.3
	l-19.3-5.3L245.5,389.4z"/>
<path fill="#FFFFFF" stroke="#000000" d="M283,387.3c3.2,0.7,6.8,4.5,6.8,4.5l16.3-11l0.4-0.3c4.6,6.1,7.4,13.7,7.4,22
	c0,0.7,0,1.3-0.101,2l-21-2c0,2.9-0.2,4.1-1.7,6.3l13.4,18c-3.9,4.3-8.8,7.7-14.4,9.7l-6.3-21.3l-0.2-0.601c-1.6,0.601-3.3,1-5.1,1
	c-1.4,0-2.1-0.1-2.3-0.199v0.1l-7.9,21.5c-6.4-2-12.1-5.8-16.4-10.8l15.3-15.7l0.3-0.3c-1.6-1.9-2.9-3.601-3.3-6.101h-0.1
	l-20.5,4.601c-0.4-2-0.5-4.101-0.5-6.2c0-4.6,0.9-9,2.4-13.1l0.3,0.1l19.3,5.3c1-2.8,1.7-2.6,4-4.3l-0.4-0.6l-10-16.7h-0.8
	c5.8-4.2,12.9-6.601,20.5-6.601c2.1,0,4.1,0.2,6.1,0.5l-0.1,0.5l-1.7,19.301L283,387.3z M271.3,401.5c0,3.5,2.8,6.3,6.3,6.3
	s6.3-2.8,6.3-6.3s-2.8-6.3-6.3-6.3S271.3,398,271.3,401.5z"/>
<circle fill="#FFFFFF" stroke="#000000" cx="277.5" cy="401.5" r="6.3"/>
<path fill="#FFFFFF" stroke="#000000" d="M268.3,437c3.2,1,6.7,1.5,10.3,1.5c4.1,0,8-0.7,11.7-2c5.6-2,10.5-5.3,14.4-9.7
	c5.399-6,8.8-13.7,9.3-22.3c0-0.7,0.1-1.3,0.1-2c0-8.3-2.699-15.9-7.399-22c-5.3-7-13.1-11.9-22-13.5c-2-0.4-4-0.5-6.1-0.5
	c-7.6,0-14.7,2.5-20.5,6.6c-5.6,4-9.9,9.7-12.5,16.2c-1.6,4.101-2.4,8.5-2.4,13.101c0,2.1,0.2,4.199,0.5,6.199
	c1.1,6.601,4,12.601,8.2,17.4C256.1,431.2,261.8,435,268.3,437z M277.5,353.5c26.1,0,47.2,21.5,47.2,48s-21.101,48-47.2,48
	c-26.1,0-47.2-21.5-47.2-48S251.4,353.5,277.5,353.5z"/>
<path fill="#FFFFFF" stroke="#000000" d="M610.5,415.5L610.5,415.5c-46,42-81.5,3.5-81.5,3.5v-0.8L610.5,415.5z"/>
<polygon fill="#FFFFFF" stroke="#000000" points="342.5,424.3 347.5,402.5 640.5,388.5 639.5,414.5 610.5,415.5 529,418.2 
	342.5,424.5 "/>
<polygon fill="#FFFFFF" stroke="#000000" points="641.5,370.5 640.5,388.5 347.5,402.5 343.5,393.5 353.5,392.7 523.5,379.6 
	631.5,371.3 "/>
<path fill="#FFFFFF" stroke="#000000" d="M822.5,278.5v96l-23.3,2c2.8-6.4,0.3-12,0.3-12c-0.5-1.3-0.8-2.9-1-4.5
	c-1.4-9.2,0-21.5,0-21.5c1-15.5,0-26-1-34c-0.1-0.8-0.4-2.1-0.8-3.8c-0.7-2.601-1.4-5.601-2.101-9c-0.8-3.5-1.699-7.4-2.8-11.2h1.7
	L822.5,278.5z"/>
<path fill="#FFFFFF" stroke="#000000" d="M783.7,260.4c3.5,5.4,6.1,12.8,8.1,20.1c1,3.9,2,7.7,2.8,11.2c-1.1,0.5-4.1,1.8-8,1.8
	c-5,0-15-23-15-23l12-10L783.7,260.4z"/>
<path fill="#FFFFFF" stroke="#000000" d="M768.5,372.5c0,0,23,5,31-8c0,0,2.5,5.5-0.3,12l0,0c-1.101,2.6-3.2,5.4-6.7,8l-24,9V372.5z
	"/>
<path fill="#FFFFFF" stroke="#000000" d="M762.8,358.6c3.3,0.801,30.9,7.5,35.601,1.5c0.3,1.601,0.6,3.101,1,4.5c-8,13-31,8-31,8
	S766.7,366.7,762.8,358.6z"/>
<circle fill="#FFFFFF" stroke="#000000" cx="704.5" cy="384.5" r="6.3"/>
<path fill="#FFFFFF" stroke="#000000" d="M693.5,394.2l-0.3,0.3l-15.3,15.7c-4.2-4.8-7.101-10.8-8.2-17.4l20.5-4.6l0,0
	C690.6,390.7,691.9,392.4,693.5,394.2z"/>
<path fill="#FFFFFF" stroke="#000000" d="M739.8,388.5c-0.5,8.6-3.899,16.4-9.3,22.3l-13.4-18c1.4-2.3,1.7-3.5,1.7-6.3L739.8,388.5
	L739.8,388.5z"/>
<path fill="#FFFFFF" stroke="#000000" d="M732.2,364.8l-16.3,11c0,0-3.601-3.8-6.801-4.5l-0.199-0.5l1.699-19.3l0.101-0.5
	c8.899,1.6,16.7,6.5,22,13.5L732.2,364.8z"/>
<path fill="#FFFFFF" stroke="#000000" d="M704.5,390.8c3.5,0,6.3-2.8,6.3-6.3s-2.8-6.3-6.3-6.3s-6.3,2.8-6.3,6.3
	S701,390.8,704.5,390.8z M684,357.1c5.8-4.199,12.9-6.6,20.5-6.6c2.1,0,4.1,0.2,6.1,0.5l-0.1,0.5l-1.7,19.3l0.2,0.5
	c3.2,0.7,6.8,4.5,6.8,4.5l16.3-11l0.4-0.3c4.6,6.1,7.4,13.7,7.4,22c0,0.7,0,1.3-0.101,2l0,0l-21-2c0,2.9-0.2,4.1-1.7,6.3l13.4,18
	c-3.9,4.3-8.8,7.7-14.4,9.7l-6.3-21.3l-0.2-0.601c-1.6,0.601-3.3,1-5.1,1c-1.4,0-2.1-0.1-2.3-0.199v0.1l-7.9,21.5
	c-6.399-2-12.1-5.8-16.399-10.8l15.3-15.7l0.3-0.3c-1.5-1.9-2.9-3.601-3.3-6.101l0,0l-20.5,4.601c-0.3-2-0.5-4.101-0.5-6.2
	c0-4.6,0.899-9,2.399-13.1l0.301,0.1l19.3,5.3c1-2.8,1.7-2.6,4-4.3l-0.4-0.6l-10-16.7L684,357.1z"/>
<path id="www.ABC-color.com" fill="#FFFFFF" stroke="#000000" d="M703.5,337.5c26.1,0,47.2,21.5,47.2,48s-21.101,48-47.2,48
	s-47.2-21.5-47.2-48S677.4,337.5,703.5,337.5z M669.6,392.7c1.101,6.6,4,12.6,8.2,17.399c4.3,5,10,8.801,16.4,10.801
	c3.2,1,6.7,1.5,10.3,1.5c4.1,0,8-0.7,11.7-2c5.6-2,10.5-5.301,14.399-9.7c5.4-6,8.801-13.7,9.301-22.3c0-0.7,0.1-1.301,0.1-2
	c0-8.301-2.7-15.9-7.4-22c-5.3-7-13.1-11.9-22-13.5c-2-0.4-4-0.5-6.1-0.5c-7.6,0-14.7,2.5-20.5,6.6c-5.6,4-10,9.7-12.5,16.3
	c-1.6,4.101-2.4,8.5-2.4,13.101C669.1,388.6,669.3,390.7,669.6,392.7z"/>
<path fill="#FFFFFF" stroke="#000000" d="M684,357.1h0.8l10,16.7l0.4,0.601c-2.3,1.699-3,1.5-4,4.3l-19.3-5.3L671.6,373.3
	C674,366.8,678.4,361.2,684,357.1z"/>
<path fill="#FFFFFF" stroke="#000000" d="M703.8,322.5c-32.6,0-59,26.9-59,60s26.4,60,59,60c-7.5,0-53.3,1-64.3-28l1-26l1-18
	c-2.2-21.1,7.4-35.3,18.9-44.7l0.6,0.7c19.5-6,45.5-4.5,45.5-4.5v0.6C705.6,322.5,704.7,322.5,703.8,322.5z"/>
<path fill="#FFFFFF" stroke="#000000" d="M656.3,385.5c0,26.5,21.101,48,47.2,48s47.2-21.5,47.2-48s-21.101-48-47.2-48
	S656.3,359,656.3,385.5z M706.5,322.6c31.4,1.4,56.3,27.7,56.3,59.9c0,3-0.2,6-0.7,9c-4.3,28.9-28.8,51-58.3,51
	c-32.6,0-59-26.9-59-60s26.4-60,59-60C704.7,322.5,705.6,322.5,706.5,322.6z"/>
<path fill="#FFFFFF" stroke="#000000" d="M694.5,309.5c37-5,58.8,29,68.3,49.1c3.8,8.101,5.7,13.9,5.7,13.9v21l-6-2h-0.3
	c0.399-2.9,0.7-5.9,0.7-9c0-32.2-25-58.5-56.301-59.9V322c0,0-26-1.5-45.5,4.5l-0.6-0.7C675.7,313.4,694.5,309.5,694.5,309.5z"/>
<path fill="#FFFFFF" stroke="#000000" d="M623.5,288.2c2.3,0,4.8,0,7.5-0.2s5.2-0.4,7.5-0.7c-0.7,2.2-2.3,4.2-4.7,5.101
	c-4.1,1.699-8.7,0-10.3-3.801V288.2z"/>
<path fill="#FFFFFF" stroke="#000000" d="M638.4,282.9c5.3,0.1,8.899,0.7,8.899,1.7c0.101,1-3.5,2-8.899,2.801
	c-2.2,0.3-4.801,0.5-7.5,0.699c-2.7,0.2-5.301,0.2-7.5,0.2c-5.4-0.1-9.101-0.7-9.101-1.7c-0.1-1,3.5-2,8.9-2.8
	c2.2-0.3,4.8-0.6,7.5-0.7C633.5,282.9,636.1,282.8,638.4,282.9z"/>
<path fill="#FFFFFF" stroke="#000000" d="M628,278.6c4.1-1.7,8.7,0,10.3,3.9c0.101,0.1,0.101,0.3,0.2,0.4c-2.3-0.1-4.9,0-7.7,0.2
	c-2.7,0.2-5.2,0.4-7.5,0.7C623.9,281.5,625.6,279.6,628,278.6z"/>
<path fill="#FFFFFF" stroke="#000000" d="M659,252.5c0-0.2,0-0.3-0.1-0.4C659,252.2,659,252.3,659,252.5z M623.5,288.2v0.399
	c1.6,3.801,6.2,5.5,10.3,3.801c2.4-1,4.101-2.9,4.7-5.101c5.3-0.7,8.9-1.8,8.9-2.8s-3.7-1.6-8.9-1.7c-0.1-0.1-0.1-0.3-0.2-0.4
	c-1.6-3.8-6.2-5.6-10.3-3.9c-2.4,1-4.1,2.9-4.7,5.1c-5.3,0.7-8.899,1.8-8.899,2.8S618.1,288.1,623.5,288.2z M659.2,253.6
	c0.7,4.7,2.2,16,2.8,24.4c0,0-1,22-13,32c-10,8.3-17,57.5-17.5,61.3l-108,8.3v-0.1c-4-10,0-114,0-114c106-4,112-18,112-18
	c17-13,8-39,8-39c-2.5-3-6.1-5.6-10.6-7.9l0.1-0.1c22,6.5,23.3,22.3,24.5,34C659.2,251.9,659.5,255.3,659.2,253.6z"/>
<path fill="#FFFFFF" stroke="#000000" d="M479.1,295.2c2.301,0,4.801,0,7.5-0.2c2.7-0.2,5.2-0.4,7.5-0.7
	c-0.699,2.2-2.399,4.101-4.699,5.101c-4.101,1.699-8.7,0-10.301-3.801V295.2z"/>
<path fill="#FFFFFF" stroke="#000000" d="M486.3,290c2.8-0.2,5.4-0.2,7.7-0.2c5.3,0.101,8.9,0.7,8.9,1.7c0.1,1-3.5,2-8.9,2.8
	c-2.2,0.3-4.8,0.5-7.5,0.7s-5.3,0.2-7.5,0.2c-5.4-0.101-9-0.7-9.1-1.7c-0.101-1,3.5-2,8.899-2.8C481.1,290.4,483.7,290.2,486.3,290z
	"/>
<path fill="#FFFFFF" stroke="#000000" d="M483.6,285.6c4.101-1.7,8.7,0,10.301,3.801c0.1,0.1,0.1,0.3,0.199,0.399
	c-2.3,0-4.899,0-7.699,0.2c-2.7,0.2-5.2,0.4-7.5,0.7C479.6,288.5,481.2,286.6,483.6,285.6z"/>
<path fill="#FFFFFF" stroke="#000000" d="M479.1,295.6c1.601,3.801,6.2,5.5,10.301,3.801c2.399-1,4.1-2.9,4.699-5.101
	c5.301-0.7,8.9-1.8,8.9-2.8s-3.7-1.6-8.9-1.7c0-0.1-0.1-0.3-0.199-0.399c-1.601-3.801-6.2-5.5-10.301-3.801
	c-2.399,1-4.1,2.9-4.699,5.101c-5.301,0.7-8.9,1.8-8.9,2.8s3.7,1.6,9.1,1.7V295.6z M455.2,195.5c-23.3,8.6-106.7,68-106.7,68
	c-12,8,3,11,3,11l31-1v0.2c-4.8,1-5,5.8-5,5.8c5,13.5,21.9,10.6,22,5c0.1-3.7-3.7-4.7-4.1-6c-0.601-2.1,0.3-2.6,1.699-2.5
	c1.601,1.1,3.7,1.9,6.4,2.5c0,0,17-0.5,23-2.5c2.9-1,4.4-3.5,5.2-5.8l0.3,0.1l91.5-4.8c0,0-4,104,0,114v0.1l-170,13.101v-0.2
	l-17-111c0,0-2-15,4-19c0,0,89.5-65.5,114.5-67.5L455.2,195.5z"/>
<path fill="#FFFFFF" stroke="#000000" d="M382.5,273.7c1.4-0.3,3.2-0.3,5.5,0.3c0,0-5.2,11.6,7.4,4.5c0.399,1.3,4.199,2.3,4.1,6
	c-0.1,5.6-17,8.5-22-5C377.5,279.5,377.8,274.7,382.5,273.7z"/>
<path fill="#FFFFFF" stroke="#000000" d="M416.5,251.5c0,0,15-3,16,14c0,0,0,2.2-0.8,4.7c-0.8,2.3-2.3,4.8-5.2,5.8
	c-6,2-23,2.5-23,2.5s-3.9-2.3-6.4-2.5c-7.3-4.9-4.199-14-3-16.7C398.2,254.5,405.1,250.7,416.5,251.5z"/>
<path fill="#FFFFFF" stroke="#000000" d="M348.5,263.5c0,0,83.4-59.3,106.7-68c1.8-0.7,3.3-1,4.3-1c0,0,129.4-15.7,173.4,6.1
	c4.5,2.2,8.1,4.8,10.6,7.9c0,0,9,26-8,39c0,0-6,14-112,18l-91.5,4.8l-0.3-0.1c0.8-2.5,0.8-4.7,0.8-4.7c-1-17-16-14-16-14
	c-11.4-0.8-18.3,3-22.4,7.8c-5.6,6.5-6.1,14.7-6.1,14.7c-2.3-0.6-4-0.6-5.5-0.3v-0.2l-31,1C351.5,274.5,336.5,271.5,348.5,263.5z"/>
<path fill="#FFFFFF" stroke="#000000" d="M641.5,370.5l-10,0.8C632,367.5,639,318.4,649,310c12-10,13-32,13-32
	c-0.7-8.4-2.2-19.7-2.8-24.4c0.3,1.7,0.1-1.7-1.7-19.1c-1.2-11.7-2.5-27.5-24.5-34l-0.1,0.1c-44.101-21.8-173.4-6.1-173.4-6.1
	c-1,0-2.5,0.4-4.3,1L455,195c-25,2-114.5,67.5-114.5,67.5c-6,4-4,19-4,19l17,111v0.2l-10,0.8c0,0,1.7-48.7-39.3-68.3
	c0,0-20.7-8.7-53.3,2c0,0-14,4.6-24.6,21.7c-6.7,10.8-12.1,26.699-11.8,49.6l-63,4.1v-0.1l3-30l-16,1l0,0l-40,0.7
	c2.3-3.8,4.6-6.5,6.7-7.3c3.7-1.5,63.3-6.301,68.3-8.301s0-9,0-9s-65,5-72,6c-6.3,0.9-12.6,12.601-13.8,14.9
	c1.3-10.3-0.2-19.9-0.2-19.9L39.6,346.9L22.5,345.6c0,0-0.8-7,7.8-17.699C44.8,310,85.8,281.8,201.5,258.6l1,0.7l99.3,9
	c0,0,105.7-73.7,120.7-74.7c0,0-58.6-11.2-68.1-7.5V186c16.899-5.7,32-9.4,43.199-9.4c0,0,98-14,175-4c0,0,103,18.5,133,51
	c0,0,30,24,67.5,29c4.301,0.6,7.801,3.6,10.7,7.9l-0.2,0.1l-12,10c0,0,10,23,15,23c3.9,0,6.9-1.199,8-1.8c0.801,3.3,1.5,6.4,2.101,9
	c0.399,1.7,0.7,3,0.8,3.8c1,8,2,18.5,1,34c0,0-1.5,12.301,0,21.5c-4.8,6-32.3-0.6-35.6-1.5c-9.5-20-31.301-54.1-68.301-49.1
	c0,0-18.8,3.9-34.1,16.3C648.9,335.2,639.3,349.4,641.5,370.5z M151.5,329.5c46-8,53-32,53-32l-69,9c-19,0-50,30-50,30L151.5,329.5z
	 M71.5,320.7l8-10.2h-18l-7,7l-6.7,10l16.7,2L71.5,320.7z"/>
<path fill="#FFFFFF" stroke="#000000" d="M354.3,185.9v0.1c9.5-3.7,68.101,7.5,68.101,7.5c-15,1-120.7,74.7-120.7,74.7l-99.3-9
	l-1-0.7C201.5,258.5,290.7,207.3,354.3,185.9z"/>
<path fill="#FFFFFF" stroke="#000000" d="M383.5,148.5c43-12,96-7,130-5s45-10,131-7s123,33,140,31s38-14,38-14v125l-29,2h-1.7
	c-2-7.4-4.6-14.8-8.1-20.1c-2.8-4.3-6.3-7.3-10.7-7.9c-37.5-5-67.5-29-67.5-29c-30-32.5-133-51-133-51c-77-10-175,4-175,4
	c-11.1,0-26.2,3.6-43.2,9.4c-63.6,21.5-152.8,72.6-152.8,72.6C85.8,281.6,44.8,309.9,30.3,327.8l-29.8,3.7v-170c0,0,138-22,266-11
	C266.5,150.5,340.5,160.5,383.5,148.5z"/>
<path fill="#FFFFFF" stroke="#000000" d="M232.5,23.5c20.1,1.5,50,21,61,46s89,27,108,27s84.7-32.6,101-38c15-5,25-33,56-14
	s79,58,100,59s55-23,93-34s68,12,71,18v66c0,0-21,12-38,14s-54-28-140-31s-97,9-131,7s-87-7-130,5s-117,2-117,2
	c-128-11-266,11-266,11v-91c0,0,28-43,59-36s42.5,15.9,45,14c20-15,12-12,57-15S192.5,20.5,232.5,23.5z"/>
<path fill="#FFFFFF" stroke="#000000" d="M104.5,48.5c-2.5,1.9-14-7-45-14s-59,36-59,36v-70h822v87c-3-6-33-29-71-18s-72,35-93,34
	s-69-40-100-59s-41,9-56,14c-16.3,5.4-82,38-101,38s-97-2-108-27s-40.9-44.5-61-46c-40-3-26,7-71,10S124.5,33.5,104.5,48.5z"/>
<line fill="none" stroke="#000000" x1="42.7" y1="317.5" x2="55.4" y2="317.9"/>
<path fill="none" stroke="#000000" d="M73.1,320.5l16.3,1c0,0,16.3-14.3,97-32.7l80-17"/>
<line fill="none" stroke="#000000" x1="46.4" y1="360.9" x2="77.4" y2="360.9"/>
<line fill="none" stroke="#000000" x1="47.4" y1="371.9" x2="79.4" y2="374.9"/>
<line fill="none" stroke="#000000" x1="50.4" y1="383.9" x2="69.4" y2="385.9"/>
<path fill="none" stroke="#000000" stroke-width="0.5" d="M769.4,340.9c0,0-29-70-95-40"/>
<line fill="none" stroke="#000000" stroke-width="0.25" x1="762.4" y1="314.9" x2="790.4" y2="314.9"/>
<line fill="none" stroke="#000000" stroke-width="0.25" x1="643.4" y1="308.9" x2="534.4" y2="311.9"/>
<line fill="none" stroke="#000000" stroke-width="0.25" x1="504.4" y1="312.9" x2="356.4" y2="320.9"/>
<line fill="none" stroke="#000000" stroke-width="0.25" x1="668.4" y1="253.4" x2="749.4" y2="253.9"/>
<line fill="none" stroke="#000000" stroke-width="0.25" x1="359.4" y1="298.9" x2="464.4" y2="292.9"/>
<line fill="none" stroke="#000000" stroke-width="0.25" x1="548.4" y1="287.9" x2="609.4" y2="286.9"/>
<line fill="none" stroke="#000000" stroke-width="0.25" x1="684.4" y1="278.9" x2="751.4" y2="276.9"/>
<line fill="none" stroke="#000000" x1="26.4" y1="354.9" x2="30.4" y2="385.9"/>
<path fill="none" stroke="#000000" stroke-width="0.5" stroke-linecap="round" stroke-linejoin="round" d="M197.5,371.9
	c0,0,48-118,135-42.4"/>
</svg>
