<?xml version="1.0" encoding="utf-8"?>
<!-- Generator: Adobe Illustrator 15.0.0, SVG Export Plug-In . SVG Version: 6.00 Build 0)  -->
<!DOCTYPE svg PUBLIC "-//W3C//DTD SVG 1.1//EN" "http://www.w3.org/Graphics/SVG/1.1/DTD/svg11.dtd">
<svg version="1.1" id="layer_x5F_www.ABC-color.com"
	 xmlns="http://www.w3.org/2000/svg" xmlns:xlink="http://www.w3.org/1999/xlink" x="0px" y="0px" width="822px" height="567px"
	 viewBox="0 0 822 567" enable-background="new 0 0 822 567" xml:space="preserve">
<path fill="#FFFFFF" stroke="#000000" d="M658,420.5v8h-15c-2.2,0-4-1.8-4-4c0-1.1,0.5-2.1,1.2-2.8s1.7-1.2,2.8-1.2H658z"/>
<path fill="#FFFFFF" stroke="#000000" d="M658,436.5v8h-16.3c-2.2,0-4-1.8-4-4c0-1.1,0.398-2.1,1.2-2.8c0.698-0.7,1.698-1.2,2.8-1.2
	H658z"/>
<path fill="#FFFFFF" stroke="#000000" d="M658,450v8h-0.5h-15c-2.2,0-4-1.8-4-4c0-1.1,0.5-2.1,1.2-2.8s1.7-1.2,2.8-1.2h15.2H658z"/>
<path fill="#FFFFFF" stroke="#000000" d="M658,466v8h-0.5h-16.3c-2.2,0-4-1.8-4-4c0-1.1,0.398-2.1,1.2-2.8
	c0.698-0.7,1.698-1.2,2.8-1.2h16.3H658z"/>
<path fill="#FFFFFF" stroke="#000000" d="M658,480.4v0.198c0,3-1.1,5.802-3,7.9l0,0h-13.2c-2.2,0-4-1.8-4-4c0-1.1,0.4-2.1,1.2-2.8
	c0.7-0.7,1.7-1.2,2.8-1.2H658V480.4z"/>
<path fill="#FFFFFF" stroke="#000000" d="M627,486.6c-0.9,0.5-2.7-0.198-4.1-1.698c-1.4-1.5-1.9-3.102-1-3.7l10.1-6.5
	c0.2-0.102,0.4-0.2,0.7-0.2c1,0,2.3,0.7,3.398,1.9c1.4,1.5,1.9,3.1,1,3.698L627,486.6z"/>
<path id="www.ABC-color.com" fill="#FFFFFF" stroke="#000000" d="M607.3,472.7l9.2,7.6c0.8,0.7,0.4,2.5-1,4.102
	c-1.3,1.6-3,2.398-3.8,1.698l-9.2-7.6c-0.8-0.7-0.3-2.5,1-4.1c1-1.2,2.2-1.9,3.1-1.9C606.9,472.5,607.1,472.5,607.3,472.7z"/>
<path fill="#FFFFFF" stroke="#000000" d="M608.6,456.7l9.2,7.6c0.8,0.7,0.4,2.5-1,4.102c-1.3,1.6-3,2.398-3.8,1.698l-9.2-7.6
	c-0.8-0.7-0.398-2.5,1-4.1c1-1.2,2.2-1.9,3.102-1.9C608.2,456.5,608.4,456.5,608.6,456.7z"/>
<path fill="#FFFFFF" stroke="#000000" d="M628.3,470.6c-0.898,0.5-2.7-0.198-4.1-1.698c-1.4-1.5-1.9-3.102-1-3.7l10.1-6.5
	c0.2-0.102,0.4-0.2,0.7-0.2c1,0,2.3,0.7,3.4,1.9c1.398,1.5,1.898,3.1,1,3.698L628.3,470.6z"/>
<path fill="#FFFFFF" stroke="#000000" d="M627.5,457.1c-0.9,0.5-2.7-0.198-4.1-1.698c-1.4-1.5-1.9-3.102-1-3.7l10.1-6.5
	c0.2-0.102,0.4-0.2,0.7-0.2c1,0,2.3,0.7,3.398,1.9c1.4,1.5,1.9,3.1,1,3.698L627.5,457.1z"/>
<path fill="#FFFFFF" stroke="#000000" d="M607.8,443.2l9.2,7.6c0.8,0.7,0.4,2.5-1,4.102c-1.3,1.6-3,2.398-3.8,1.698L603,449
	c-0.8-0.7-0.3-2.5,1-4.1c1-1.2,2.2-1.9,3.1-1.9C607.4,443,607.6,443,607.8,443.2z"/>
<path fill="#FFFFFF" stroke="#000000" d="M608.3,428.4l9.2,7.6c0.8,0.7,0.4,2.5-1,4.1c-1.4,1.602-3,2.4-3.8,1.7l-9.2-7.6
	c-0.8-0.7-0.3-2.5,1-4.102c1-1.198,2.2-2,3.1-2C607.9,428.1,608.1,428.2,608.3,428.4z"/>
<path fill="#FFFFFF" stroke="#000000" d="M628.8,441.1c-0.898,0.5-2.7-0.198-4.1-1.698c-1.4-1.5-1.9-3.102-1-3.7l10.1-6.5
	c0.2-0.102,0.4-0.2,0.7-0.2c1,0,2.3,0.7,3.4,1.9c1.398,1.5,1.898,3.1,1,3.698L628.8,441.1z"/>
<path fill="#FFFFFF" stroke="#000000" d="M628.3,426.7c-0.8,0.5-2.398-0.2-3.6-1.5c-1.3-1.3-1.7-2.8-0.9-3.2l8.9-5.7
	c0.2-0.1,0.398-0.2,0.6-0.2c0.8,0,2.102,0.602,3,1.7c1.3,1.3,1.7,2.8,0.9,3.2L628.3,426.7z"/>
<path fill="#FFFFFF" stroke="#000000" d="M611.2,416.3l7.5,6.2c0.6,0.5,0.3,2-0.8,3.3c-1.102,1.3-2.4,1.9-3.102,1.4l-7.5-6.2
	c-0.6-0.5-0.3-2,0.8-3.3c0.802-1,1.802-1.602,2.5-1.602C610.8,416.1,611,416.2,611.2,416.3z"/>
<path fill="#FFFFFF" stroke="#000000" d="M600.3,419.9c1.8,0,3.3,1.5,3.3,3.3c0,0.898-0.398,1.8-1,2.3c-0.6,0.6-1.398,1-2.398,1H587
	v-6.7h13.3V419.9z"/>
<path fill="#FFFFFF" stroke="#000000" d="M599,435.9c1.8,0,3.3,1.5,3.3,3.3c0,0.898-0.398,1.8-1,2.3c-0.6,0.6-1.398,1-2.3,1h-12
	v-6.7h12V435.9z"/>
<path fill="#FFFFFF" stroke="#000000" d="M599.8,449.4c1.8,0,3.3,1.5,3.3,3.3c0,0.898-0.398,1.8-1,2.3c-0.6,0.6-1.398,1-2.398,1
	l-12.8,0.2v-6.7h0.198L599.8,449.4z"/>
<path fill="#FFFFFF" stroke="#000000" d="M598.5,465.4c1.8,0,3.3,1.5,3.3,3.3c0,0.898-0.398,1.8-1,2.3c-0.6,0.6-1.398,1-2.3,1H587
	v-6.7h11.5V465.4z"/>
<path fill="#FFFFFF" stroke="#000000" d="M598.9,480.7c1.8,0,3.3,1.5,3.3,3.3c0,0.9-0.4,1.8-1,2.4c-0.602,0.6-1.4,1-2.4,1H589l0,0
	c-1.3-1.9-2.1-4.2-2.1-6.7H598.9L598.9,480.7z"/>
<path fill="#FFFFFF" stroke="#000000" d="M200,449.5v8h-0.5h-15c-2.2,0-4-1.8-4-4c0-1.1,0.5-2.1,1.2-2.8c0.7-0.7,1.7-1.2,2.8-1.2
	h15.2H200z"/>
<path fill="#FFFFFF" stroke="#000000" d="M200,465.5v8h-0.5h-16.3c-2.2,0-4-1.8-4-4c0-1.1,0.5-2.1,1.2-2.8c0.7-0.7,1.7-1.2,2.8-1.2
	h16.3H200z"/>
<path fill="#FFFFFF" stroke="#000000" d="M200,479.8v0.2c0,3-1.1,5.8-2.9,7.9H197h-13.2c-2.2,0-4-1.802-4-4
	c0-1.102,0.4-2.102,1.2-2.802c0.8-0.698,1.7-1.198,2.8-1.198H200V479.8z"/>
<path fill="#FFFFFF" stroke="#000000" d="M169,486.1c-0.9,0.5-2.7-0.198-4.1-1.698s-1.9-3.102-1-3.7l10.1-6.5
	c0.2-0.102,0.4-0.2,0.7-0.2c1,0,2.3,0.7,3.4,1.9c1.4,1.5,1.9,3.1,1,3.698L169,486.1z"/>
<path fill="#FFFFFF" stroke="#000000" d="M170.4,470.1c-0.9,0.5-2.7-0.198-4.1-1.698c-1.4-1.5-1.9-3.102-1-3.7l10.1-6.5
	c0.2-0.102,0.4-0.2,0.7-0.2c1,0,2.3,0.7,3.4,1.9c1.4,1.5,1.9,3.1,1,3.698L170.4,470.1z"/>
<path fill="#FFFFFF" stroke="#000000" d="M150.6,456.2l9.2,7.6c0.8,0.602,0.4,2.5-1,4.102c-1.3,1.6-3,2.398-3.8,1.698l-9.2-7.6
	c-0.8-0.7-0.4-2.5,1-4.1c1-1.2,2.2-1.9,3.1-1.9C150.2,455.9,150.4,456,150.6,456.2z"/>
<path fill="#FFFFFF" stroke="#000000" d="M149.3,472.2l9.2,7.6c0.8,0.602,0.4,2.5-1,4.102c-1.3,1.6-3,2.398-3.8,1.698l-9.2-7.6
	c-0.8-0.7-0.4-2.5,1-4.1c1-1.2,2.2-1.9,3.1-1.9C148.9,471.9,149.1,472,149.3,472.2z"/>
<path fill="#FFFFFF" stroke="#000000" d="M140.9,480.2c1.8,0,3.3,1.5,3.3,3.3c0,0.9-0.4,1.8-1,2.4c-0.6,0.6-1.4,1-2.4,1H131l0,0
	c-1.3-1.9-2.1-4.2-2.1-6.7H140.9L140.9,480.2z"/>
<path fill="#FFFFFF" stroke="#000000" d="M140.5,464.8c1.8,0,3.3,1.5,3.3,3.3c0,0.9-0.4,1.802-1,2.302c-0.6,0.6-1.4,1-2.4,1H129
	v-6.7h11.5V464.8z"/>
<path fill="#FFFFFF" stroke="#000000" d="M141.8,448.8c1.8,0,3.3,1.5,3.3,3.3c0,0.9-0.4,1.802-1,2.302c-0.6,0.6-1.4,1-2.4,1
	l-12.8,0.198V449h0.2L141.8,448.8z"/>
<path fill="#FFFFFF" stroke="#000000" d="M141,435.3c1.8,0,3.3,1.5,3.3,3.3c0,0.9-0.4,1.802-1,2.302c-0.6,0.6-1.4,1-2.4,1h-12v-6.7
	H141V435.3z"/>
<path fill="#FFFFFF" stroke="#000000" d="M150.3,427.8l9.2,7.602c0.8,0.698,0.4,2.5-1,4.1c-1.3,1.6-3,2.4-3.8,1.7l-9.2-7.602
	c-0.8-0.698-0.4-2.5,1-4.1c1-1.2,2.2-2,3.1-2C149.9,427.6,150.1,427.7,150.3,427.8z"/>
<path fill="#FFFFFF" stroke="#000000" d="M149.8,442.7l9.2,7.6c0.8,0.602,0.4,2.5-1,4.102c-1.3,1.6-3,2.398-3.8,1.698l-9.2-7.6
	c-0.8-0.7-0.4-2.5,1-4.1c1-1.2,2.2-1.9,3.1-1.9C149.4,442.4,149.6,442.5,149.8,442.7z"/>
<path fill="#FFFFFF" stroke="#000000" d="M169.5,456.6c-0.9,0.5-2.7-0.198-4.1-1.698s-1.9-3.102-1-3.7l10.1-6.5
	c0.2-0.102,0.4-0.2,0.7-0.2c1,0,2.3,0.7,3.4,1.9c1.4,1.5,1.9,3.1,1,3.698L169.5,456.6z"/>
<path fill="#FFFFFF" stroke="#000000" d="M170.9,440.6c-0.9,0.5-2.7-0.198-4.1-1.698c-1.4-1.5-1.9-3.102-1-3.7l10.1-6.5
	c0.2-0.102,0.4-0.2,0.7-0.2c1,0,2.3,0.7,3.4,1.9c1.4,1.5,1.9,3.1,1,3.698L170.9,440.6z"/>
<path fill="#FFFFFF" stroke="#000000" d="M200,436v8h-16.3c-2.2,0-4-1.8-4-4c0-1.1,0.5-2.1,1.2-2.8c0.7-0.7,1.7-1.2,2.8-1.2H200z"/>
<path fill="#FFFFFF" stroke="#000000" d="M200,420v8h-15c-2.2,0-4-1.8-4-4c0-1.1,0.5-2.1,1.2-2.8c0.7-0.7,1.7-1.2,2.8-1.2H200z"/>
<path fill="#FFFFFF" stroke="#000000" d="M170,427.1c-0.8,0.5-2.5-0.1-3.8-1.5c-1.3-1.398-1.7-2.898-0.9-3.398l9.5-6.2
	c0.2-0.1,0.4-0.2,0.7-0.2c0.9,0,2.1,0.602,3.1,1.7c1.3,1.4,1.7,2.9,0.9,3.4L170,427.1z"/>
<path fill="#FFFFFF" stroke="#000000" d="M152,415.8l8.2,6.8c0.7,0.602,0.4,2.2-0.8,3.602c-1.1,1.398-2.6,2-3.4,1.5l-8.2-6.8
	c-0.7-0.602-0.3-2.2,0.8-3.602c0.9-1,1.9-1.7,2.7-1.7C151.6,415.6,151.9,415.7,152,415.8z"/>
<path fill="#FFFFFF" stroke="#000000" d="M142.3,419.3c1.8,0,3.3,1.5,3.3,3.3c0,0.9-0.4,1.802-1,2.302c-0.6,0.6-1.4,1-2.4,1H129
	v-6.7h13.3V419.3z"/>
<path fill="#FFFFFF" stroke="#000000" d="M658,436.5h-16.3c-1.102,0-2.102,0.5-2.8,1.2c-0.7,0.7-1.2,1.7-1.2,2.8c0,2.2,1.8,4,4,4
	H658V436.5z M658,420.5h-15c-1.1,0-2.1,0.5-2.8,1.2s-1.2,1.7-1.2,2.8c0,2.2,1.8,4,4,4h15V420.5z M658,450h-0.3h-15.2
	c-1.1,0-2.1,0.5-2.8,1.2s-1.2,1.7-1.2,2.8c0,2.2,1.8,4,4,4h15h0.5V450z M658,480.5v-0.2h-16.2c-1.1,0-2.1,0.5-2.8,1.2
	s-1.2,1.7-1.2,2.8c0,2.2,1.8,4,4,4H655l0,0C656.9,486.3,658,483.6,658,480.5z M624.7,439.4c1.398,1.5,3.3,2.198,4.1,1.698
	l10.102-6.5c0.898-0.6,0.398-2.198-1-3.698c-1.102-1.2-2.5-1.9-3.4-1.9c-0.3,0-0.5,0.1-0.7,0.2l-10.1,6.5
	C622.8,436.3,623.3,438,624.7,439.4z M637.6,450.7c0.9-0.602,0.4-2.2-1-3.7c-1.1-1.2-2.5-1.9-3.398-1.9c-0.3,0-0.5,0.102-0.7,0.2
	l-10.1,6.5c-0.9,0.602-0.4,2.2,1,3.7c1.398,1.5,3.3,2.2,4.1,1.7L637.6,450.7z M628.3,470.6l10.102-6.5
	c0.898-0.6,0.398-2.198-1-3.698c-1.102-1.2-2.5-1.9-3.4-1.9c-0.3,0-0.5,0.1-0.7,0.2l-10.1,6.5c-0.9,0.6-0.4,2.2,1,3.7
	C625.6,470.4,627.5,471.2,628.3,470.6z M637.1,421.1c0.802-0.5,0.4-1.898-0.898-3.198c-1-1-2.2-1.7-3-1.7c-0.2,0-0.4,0.1-0.602,0.2
	L623.7,422.1c-0.8,0.5-0.4,1.9,0.898,3.2c1.302,1.3,2.9,2,3.602,1.5L637.1,421.1z M638.3,467.2c-0.7,0.7-1.2,1.7-1.2,2.8
	c0,2.2,1.802,4,4,4H657.4h0.5v-8h-0.5H641.1C640,466,639,466.5,638.3,467.2z M622.9,484.9c1.398,1.5,3.3,2.198,4.1,1.698l10.1-6.5
	c0.9-0.6,0.4-2.198-1-3.698c-1.1-1.2-2.5-1.9-3.398-1.9c-0.3,0-0.5,0.1-0.7,0.2l-10.1,6.5C621,481.8,621.5,483.5,622.9,484.9z
	 M611.7,486c0.8,0.7,2.5-0.1,3.8-1.7c1.3-1.6,1.8-3.398,1-4.1l-9.2-7.602c-0.2-0.198-0.398-0.198-0.7-0.198
	c-0.898,0-2.1,0.698-3.1,1.898c-1.3,1.602-1.7,3.4-1,4.102L611.7,486z M612.7,441.7c0.8,0.7,2.5-0.102,3.8-1.7s1.8-3.4,1-4.1
	l-9.2-7.602c-0.2-0.2-0.398-0.2-0.7-0.2c-0.898,0-2.1,0.7-3.1,2c-1.3,1.602-1.8,3.4-1,4.102L612.7,441.7z M614.8,427.2
	c0.7,0.5,2-0.102,3.102-1.4c1.1-1.3,1.398-2.8,0.8-3.3l-7.5-6.2c-0.2-0.1-0.4-0.2-0.602-0.2c-0.698,0-1.698,0.602-2.5,1.602
	c-1.1,1.3-1.398,2.8-0.8,3.3L614.8,427.2z M617.8,464.3l-9.2-7.6c-0.198-0.2-0.398-0.2-0.698-0.2c-0.9,0-2.102,0.7-3.102,1.9
	c-1.3,1.6-1.8,3.398-1,4.1l9.2,7.6c0.8,0.7,2.5-0.1,3.8-1.698C618.2,466.7,618.6,464.9,617.8,464.3z M603,449l9.2,7.6
	c0.8,0.7,2.5-0.1,3.8-1.698c1.3-1.602,1.8-3.4,1-4.102l-9.2-7.6c-0.2-0.2-0.398-0.2-0.7-0.2c-0.898,0-2.1,0.7-3.1,1.9
	C602.7,446.5,602.2,448.3,603,449z M587,447.5v-5h12c0.9,0,1.8-0.4,2.3-1c0.602-0.6,1-1.4,1-2.3c0-1.8-1.5-3.3-3.3-3.3h-12V426.6
	h13.3c0.9,0,1.8-0.398,2.4-1c0.6-0.6,1-1.398,1-2.3c0-1.8-1.5-3.3-3.3-3.3H587v-7v-0.5h71v68.2c0,6.6-5.3,12-11.9,12H598.7
	c-6.602,0-11.9-5.4-11.9-12v-33.2C586.9,447.5,587,447.5,587,447.5z M587,449.5v6.7l12.8-0.2c0.9,0,1.8-0.4,2.4-1
	c0.6-0.6,1-1.4,1-2.3c0-1.8-1.5-3.3-3.3-3.3l-12.7,0.198H587V449.5z M587,465.4v6.698h11.5c0.9,0,1.8-0.398,2.3-1
	c0.602-0.6,1-1.398,1-2.3c0-1.8-1.5-3.3-3.3-3.3H587V465.4z M589.2,487.4h9.8c0.9,0,1.8-0.4,2.4-1c0.6-0.602,1-1.4,1-2.4
	c0-1.8-1.5-3.3-3.302-3.3H587C587,483.2,587.8,485.5,589.2,487.4L589.2,487.4z"/>
<path fill="#FFFFFF" stroke="#000000" d="M166.1,425.6c1.3,1.4,3,2,3.8,1.5l9.5-6.198c0.8-0.5,0.4-2.102-0.9-3.4
	c-1-1-2.2-1.7-3.1-1.7c-0.3,0-0.5,0.102-0.7,0.2l-9.5,6.2C164.5,422.7,164.8,424.3,166.1,425.6z M166.2,468.4
	c1.4,1.5,3.3,2.198,4.1,1.698l10.1-6.5c0.9-0.6,0.4-2.198-1-3.698c-1.1-1.2-2.4-1.9-3.4-1.9c-0.3,0-0.5,0.1-0.7,0.2l-10.1,6.5
	C164.4,465.3,164.8,466.9,166.2,468.4z M166.7,438.9c1.4,1.5,3.3,2.198,4.1,1.698l10.1-6.5c0.9-0.6,0.4-2.198-1-3.698
	c-1.1-1.2-2.4-1.9-3.4-1.9c-0.3,0-0.5,0.1-0.7,0.2l-10.1,6.5C164.9,435.8,165.3,437.4,166.7,438.9z M164.9,484.4
	c1.4,1.5,3.3,2.198,4.1,1.698l10.1-6.5c0.9-0.6,0.4-2.198-1-3.698c-1.1-1.2-2.5-1.9-3.4-1.9c-0.3,0-0.5,0.1-0.7,0.2l-10.1,6.5
	C163,481.3,163.5,482.9,164.9,484.4z M165.4,454.9c1.4,1.5,3.3,2.198,4.1,1.698l10.1-6.5c0.9-0.6,0.4-2.198-1-3.698
	c-1.1-1.2-2.5-1.9-3.4-1.9c-0.3,0-0.5,0.1-0.7,0.2l-10.1,6.5C163.5,451.8,164,453.4,165.4,454.9z M147.9,420.8l8.2,6.8
	c0.7,0.602,2.2-0.1,3.4-1.5c1.1-1.398,1.5-3,0.8-3.6l-8.2-6.8c-0.2-0.102-0.4-0.2-0.6-0.2c-0.8,0-1.8,0.6-2.7,1.7
	C147.5,418.6,147.2,420.2,147.9,420.8z M153.7,485.5c0.8,0.7,2.5-0.1,3.8-1.7c1.3-1.6,1.8-3.398,1-4.1l-9.2-7.602
	c-0.2-0.198-0.4-0.198-0.7-0.198c-0.9,0-2.1,0.698-3.1,1.898c-1.3,1.602-1.8,3.4-1,4.102L153.7,485.5z M154.7,441.2
	c0.8,0.7,2.5-0.102,3.8-1.7s1.8-3.4,1-4.1l-9.2-7.602c-0.2-0.2-0.4-0.2-0.7-0.2c-0.9,0-2.1,0.7-3.1,2c-1.3,1.602-1.8,3.4-1,4.102
	L154.7,441.2z M155,469.5c0.8,0.7,2.5-0.1,3.8-1.7c1.3-1.6,1.8-3.398,1-4.1l-9.2-7.602c-0.2-0.198-0.4-0.198-0.7-0.198
	c-0.9,0-2.1,0.698-3.1,1.898c-1.3,1.602-1.8,3.4-1,4.102L155,469.5z M131.2,486.8h9.8c0.9,0,1.8-0.398,2.4-1
	c0.6-0.6,1-1.398,1-2.398c0-1.802-1.5-3.302-3.3-3.302H129C129,482.7,129.8,485,131.2,486.8L131.2,486.8z M145.7,422.7
	c0-1.8-1.5-3.3-3.3-3.3H129V412.6h71v7.5h-15c-1.1,0-2.1,0.5-2.8,1.2c-0.7,0.7-1.2,1.7-1.2,2.8c0,2.2,1.8,4,4,4h15v8h-16.3
	c-1.1,0-2.1,0.5-2.8,1.2c-0.7,0.7-1.2,1.7-1.2,2.8c0,2.2,1.8,4,4,4H200v4v1.5h-0.3h-15.2c-1.1,0-2.1,0.5-2.8,1.2
	c-0.7,0.7-1.2,1.7-1.2,2.8c0,2.2,1.8,4,4,4h15h0.5v8h-0.5h-16.3c-1.1,0-2.1,0.5-2.8,1.2c-0.7,0.7-1.2,1.7-1.2,2.8c0,2.2,1.8,4,4,4
	h16.3h0.5v6.302h-16.2c-1.1,0-2.1,0.5-2.8,1.198c-0.7,0.7-1.2,1.7-1.2,2.802c0,2.198,1.8,4,4,4H197h0.1c1.8-2.102,2.9-4.9,2.9-7.9
	v0.9c0,5.8-5,10.6-11.2,10.6h-48.6c-6.2,0-11.2-4.8-11.2-10.6v-9.4h11.5c0.9,0,1.8-0.4,2.4-1s1-1.4,1-2.3c0-1.8-1.5-3.3-3.3-3.3H129
	v-9.2l12.8-0.2c0.9,0,1.8-0.4,2.4-1c0.6-0.6,1-1.4,1-2.3c0-1.8-1.5-3.3-3.3-3.3l-12.7,0.198H129v-7h12c0.9,0,1.8-0.398,2.4-1
	c0.6-0.6,1-1.398,1-2.3c0-1.8-1.5-3.3-3.3-3.3h-12V426h13.3c0.9,0,1.8-0.4,2.4-1C145.3,424.4,145.7,423.6,145.7,422.7z M145,448.4
	l9.2,7.6c0.8,0.7,2.5-0.1,3.8-1.7c1.3-1.6,1.8-3.398,1-4.1l-9.2-7.602c-0.2-0.198-0.4-0.198-0.7-0.198c-0.9,0-2.1,0.698-3.1,1.898
	C144.7,446,144.2,447.8,145,448.4z"/>
<path fill="#FFFFFF" stroke="#000000" d="M577,271.5c24.8,0,45,19,45,42.5s-20.2,42.5-45,42.5s-45-19-45-42.5S552.2,271.5,577,271.5
	z M541,314c0,18.8,16.1,34,36,34s36-15.2,36-34s-16.1-34-36-34S541,295.2,541,314z"/>
<ellipse fill="#FFFFFF" stroke="#000000" cx="577" cy="314" rx="36" ry="34"/>
<path fill="#FFFFFF" stroke="#000000" d="M532,314c0,23.5,20.2,42.5,45,42.5s45-19,45-42.5s-20.2-42.5-45-42.5S532,290.5,532,314z
	 M514,388h-42.8c8.6-3.9,13.8-15,13.8-15c50-129,105-123,105-123c51,9.5,57,21,57,21c18.5,14.5,20,94,20,94c-9,25-4,34.5-4,34.5h-42
	c1.5,0,2.4-1.1,3.4-2.1s1.6-2.4,1.6-3.9c0-3-2.5-5.5-5.5-5.5H514c11.3,0,20.5-8.1,20.5-18s-9.2-18-20.5-18s-20.5,8.1-20.5,18
	S502.7,388,514,388z"/>
<ellipse fill="#FFFFFF" stroke="#000000" cx="514" cy="370" rx="20.5" ry="18"/>
<path fill="#FFFFFF" stroke="#000000" d="M586.8,412.5v35c-2.898-0.5-42.8-6.5-53.8-7c-63.5-2.8-63-5-68,3V424
	c0-5.4-3.6-10-8.6-11.5H586.8z"/>
<path fill="#FFFFFF" stroke="#000000" d="M200,412.5h140.6c-5,1.5-8.6,6.1-8.6,11.5v18h-0.5c-5-8-4.5-5.8-68-3c-11.5,0.5-63,9-63,9
	H200v-4v-8v-8v-8V412.5z"/>
<path fill="#FFFFFF" stroke="#000000" d="M465,443.5v1.5c0,6.6-5.4,12-12,12H344c-6.6,0-12-5.4-12-12v-3v-18c0-5.4,3.6-10,8.6-11.5
	h115.9c5,1.5,8.6,6.1,8.6,11.5v19.5H465z"/>
<path fill="#FFFFFF" stroke="#000000" d="M663,399.5c3.6,0,6.5,2.9,6.5,6.5s-2.9,6.5-6.5,6.5h-5h-71h-0.2H456.4
	c-1.102-0.3-2.2-0.5-3.4-0.5H344c-1.2,0-2.4,0.2-3.4,0.5H200h-71h-6c-3.6,0-6.5-2.9-6.5-6.5c0-1.8,0.7-3.4,1.9-4.6
	c1.2-1.2,2.8-1.9,4.6-1.9h52.7h0.8h444h0.5H663z"/>
<path fill="#FFFFFF" stroke="#000000" d="M338,388h133.2H514h106.5c3,0,5.5,2.5,5.5,5.5c0,1.5-0.6,2.9-1.6,3.9
	c-0.5,0.5-1.102,1-1.802,1.398c-0.698,0.4-1.398,0.7-2.1,0.7h-444c-2.6-0.4-5.5-3.2-5.5-6c0-1.5,0.6-2.899,1.6-3.899
	s2.4-1.601,3.9-1.601h161.4C338,388,338,388,338,388z"/>
<ellipse fill="#FFFFFF" stroke="#000000" cx="276" cy="369" rx="20.5" ry="18"/>
<path fill="#FFFFFF" stroke="#000000" d="M206,279.5c24.9,0,45,19,45,42.5s-20.1,42.5-45,42.5s-45-19-45-42.5S181.1,279.5,206,279.5
	z M170,322c0,18.8,16.1,34,36,34s36-15.2,36-34s-16.1-34-36-34S170,303.2,170,322z"/>
<ellipse fill="#FFFFFF" stroke="#000000" cx="206" cy="322" rx="36" ry="34"/>
<path fill="#FFFFFF" stroke="#000000" d="M276,387c11.3,0,20.5-8.1,20.5-18s-9.2-18-20.5-18s-20.5,8.1-20.5,18S264.7,387,276,387z
	 M337.9,388H176.5c-1.5,0-2.9,0.6-3.9,1.6s-1.6,2.4-1.6,3.9c0,1.4,0.5,2.8,1.3,3.9c0.8,1.1,2,1.898,3.3,2.1H123c0,0,13-2.5-1-30.5
	c0,0-19-85,29-100c0,0,14.1-8.2,35.7-7.4c7.9,0.3,16.8,1.8,26.3,5.4c43,16,90,93,90,93C318,387.4,336.3,388,337.9,388z M161,322
	c0,23.5,20.1,42.5,45,42.5s45-19,45-42.5s-20.1-42.5-45-42.5S161,298.5,161,322z"/>
<path fill="#FFFFFF" stroke="#000000" d="M379.5,215.5l7,144c-18,39-42,4-42,4c-17-44-104-134-104-134c-6-4-1-5-1-5l126-15
	C373.5,208.5,379.5,215.5,379.5,215.5z"/>
<path fill="#FFFFFF" stroke="#000000" d="M545.5,224c0,0,5,1-1,5c0,0-87,90-104,134c0,0-24,35-42-4l7-144c0,0,6-7,14-6L545.5,224z"
	/>
<path fill="#FFFFFF" stroke="#000000" d="M440,195l2,0.1v0.9c-6,4-24,7-22,2c0.4-0.9,3.2-2.4,7.5-4.3C446.1,185.9,493,172,493,172
	c20-1,5,4,5,4L440,195z"/>
<path fill="#FFFFFF" stroke="#000000" d="M371,173c20-1,5,4,5,4l-58,19c-8.7,6-22,8-20,3S371,173,371,173z"/>
<path fill="#FFFFFF" stroke="#000000" d="M493,172c0,0-46.9,13.9-65.5,21.7l-0.2-0.4C398,190,318,196,318,196l58-19c0,0,15-5-5-4
	c0,0-71,21-73,26c0,0-67,14-73,11c0,0-13,3-9-25c0,0-2-68,84-68c0,0,176-15,207-1c0,0,35,0,44,53l3,23c0,0,2,12-23,10l-77.7-6.2
	l-11.3-0.6l-2-0.1l58-19C498,176,513,171,493,172z"/>
<path fill="#FFFFFF" stroke="#000000" d="M564.6,171.9L590,250c0,0-55-6-105,123c0,0-5.2,11.1-13.8,15H338c0,0,0,0-0.1,0
	c-1.602,0-19.9-0.6-34.9-28c0,0-47-77-90-93c-9.6-3.6-18.4-5.1-26.3-5.4v-0.3c0,0,12.2-57.8,22.1-96.1c4.9-19,9.2-33.2,11.2-33.2
	c0,0,5-23,89-29c0,0,35.5-2.6,75.2-4.2C390.1,99.3,396.1,99.4,402,99c0,0,0.3-0.3,0.8-0.9c33-1,65.602-1.1,80.2,1.9c0,0,53,4,68,30
	L564.6,171.9z M225,210c6,3,73-11,73-11c-2,5,11.3,3,20-3c0,0,80-6,109.3-2.7l0.2,0.4c-4.3,1.8-7.1,3.3-7.5,4.3c-2,5,16,2,22-2v-0.9
	l11.3,0.6L531,202c25,2,23-10,23-10l-3-23c-9-53-44-53-44-53c-31-14-207,1-207,1c-86,0-84,68-84,68C212,213,225,210,225,210z
	 M544.5,229c6-4,1-5,1-5l-126-15c-8-1-14,6-14,6l-7,144c18,39,42,4,42,4C457.5,319,544.5,229,544.5,229z M386.5,359.5l-7-144
	c0,0-6-7-14-6l-126,15c0,0-5,1,1,5c0,0,87,90,104,134C344.5,363.5,368.5,398.5,386.5,359.5z"/>
</svg>
