<?xml version="1.0" encoding="utf-8"?>
<!-- Generator: Adobe Illustrator 15.0.0, SVG Export Plug-In . SVG Version: 6.00 Build 0)  -->
<!DOCTYPE svg PUBLIC "-//W3C//DTD SVG 1.1//EN" "http://www.w3.org/Graphics/SVG/1.1/DTD/svg11.dtd">
<svg version="1.1" id="layer_x5F_www.ABC-color.com"
	 xmlns="http://www.w3.org/2000/svg" xmlns:xlink="http://www.w3.org/1999/xlink" x="0px" y="0px" width="822px" height="567px"
	 viewBox="0 0 822 567" enable-background="new 0 0 822 567" xml:space="preserve">
<path fill="#FFFFFF" stroke="#000000" stroke-miterlimit="10" d="M778.699,270.2c0.101,0.2,0.301,0.5,0.399,0.7
	c-0.199-0.3-0.399-0.6-0.5-0.9h-0.699c-5.899-7.2-13.601-9.9-28.101-13.4c-68.7-17.2-145.399-23.4-181.8-26.9l-7.7,1.1l-0.3-2.4
	l27.199-6.9h-0.101c4.2,1.4,8.601,1.8,15.9,2.1c61.5,7.8,109.6,14.3,165,32c11.5,3.9,20.6,3.5,27.199,12.1
	c6.5,8.5,8.601,18.899,9.399,25.7l-0.6,0.1l-3.4,0.2c-2-8-2.899-15.7-8.8-23.3h-13.101v-0.2H778.699z"/>
<path fill="#FFFFFF" stroke="#000000" stroke-miterlimit="10" d="M124.7,294.3c-1.9,1.5-35.7,28.5-28.5,67.601l0.1,0.899l-5.5,0.4
	h-0.3c-38.5-1.9-29.8-5.3-68.5-10.5C14.7,351.3,8.3,312.6,7.9,307.6l4.5-8.3l-0.3,0.2l4.4-6.6l4.1,0.1l43.7,0.7V293.6l0.8-7.5
	l1.5-12.1l-0.1-0.2c6.1-2.7,5.2-10.6,1.6-20.3c-0.399-1.1-0.899-2.3-1.3-3.4l-5.1-11.6l267.199,8.8
	c-1.801,22.7-0.899,58.4,5.3,105.5l0.601-0.1l219.601,0.2c7.3-28.801,13.899-62.4,6.399-97.4c62.3,3.5,122.601,8.4,191.899,15.5
	c-0.3,0-0.5,0-0.8,0c-7.399,0.3,9.101,22.8,16.5,22.2l17.8,0.5c0-0.101,0-0.2-0.101-0.3l14.4,0.3l3.399-0.2l0.601-0.1
	c0.399,3.6,0.399,6.199,0.3,6.898l-94.3-0.3l0.5,0.7c-13.4-15.801-32.4-18.8-53.2-20.6c-49.5,5.299-64.7,43.1-64.7,43.1l-7.1,21.6
	l-4.4,20l-355.3-0.1c3.7-49.7-42.5-106-101.5-70.102L124.7,294.3z"/>
<path fill="#FFFFFF" stroke="#000000" stroke-miterlimit="10" d="M553.699,232.5v-0.8h1l0.601-0.2l4.899-0.7l7.7-1.1
	c36.399,3.5,113,9.6,181.8,26.9C764.3,260.1,772,262.9,777.8,270l-4-0.3c-8.8,0-11.5,0.7-21.3,1.1
	c-69.301-7.1-129.601-12-191.9-15.5C559,247.8,556.699,240.1,553.699,232.5z"/>
<path fill="#FFFFFF" stroke="#000000" stroke-miterlimit="10" d="M25.9,238.1l0.801,0.1c-0.9,6.7-1.301,11.5-1.301,15.4
	c-0.1,7.5,1.2,11.9,2.801,21.1H60.9c2.301,0,4.2-0.3,5.601-1l0.1,0.2L65.1,286l-0.8,7.5v0.1L20.6,293v-0.4l1.2-24l1.3-30.5H25.9z"/>
<path fill="#FFFFFF" stroke="#000000" stroke-miterlimit="10" d="M68,253.4h-0.1l-42.6,0.2c0-3.9,0.4-8.7,1.3-15.4
	c0.101-0.3,0.101-0.7,0.101-1.1l33.699,1.2h1.1l5.1,11.6C67.2,251.2,67.6,252.3,68,253.4z"/>
<path fill="#FFFFFF" stroke="#000000" stroke-miterlimit="10" d="M813.4,309.2l-1.7,18c0,0-3.8,29-9.699,33.5
	c-20.301,11.6-43.7,12.7-71.801,12.399c-0.3-10.5-1-20.699-2.5-30.199l0,0c-1.199-9.4-3.5-19.2-8.399-29
	c-0.7-1.602-1.5-3.102-2.3-4.5l96.199,0.5C813.3,309.8,813.3,309.6,813.4,309.2L813.4,309.2z"/>
<path fill="#FFFFFF" stroke="#000000" stroke-miterlimit="10" d="M804.8,300.1h0.5c0,0,6.899,3.5,8,5.801
	c0.3,0.601,0.2,2.301,0.101,3.301c0,0.398-0.101,0.6-0.101,0.6l-96.2-0.5c-1.899-3.3-3.899-6.3-6.1-8.8l-0.5-0.7L804.8,300.1z"/>
<path fill="#FFFFFF" stroke="#000000" stroke-miterlimit="10" d="M800.4,293.5l-14.4-0.3c-0.2-0.7-0.301-1.4-0.4-2
	c-0.399-2.101-0.8-4.101-1.3-6.3l0,0c-1.101-4.9-2.3-9-5.101-13.8c0-0.1-0.101-0.1-0.101-0.2c-0.1-0.2-0.3-0.5-0.399-0.7h13
	C797.6,277.9,798.5,285.6,800.4,293.5z"/>
<path fill="#FFFFFF" stroke="#000000" stroke-miterlimit="10" d="M777.8,270h0.7c0.199,0.3,0.399,0.6,0.5,0.9c0,0.1,0.1,0.1,0.1,0.2
	c2.5,4.8,4.101,9.4,5.101,13.8l0,0c0.399,1.898,0.8,4,1.3,6.3c0.101,0.7,0.2,1.399,0.301,2h0.101c0,0.1,0,0.2,0.1,0.3l-17.8-0.5
	c-7.399,0.6-23.899-21.9-16.5-22.2c0.3,0,0.5,0,0.8,0c9.801-0.4,12.601-1.1,21.301-1.1L777.8,270z"/>
<path fill="#FFFFFF" stroke="#000000" stroke-miterlimit="10" d="M646.3,289.3c-0.2,0-0.399,0.101-0.601,0.101
	c-0.399,0.101-0.899,0.199-1.3,0.301c-26.101,6.398-45.601,30.5-46,59.3c0,0.3,0,0.601,0,0.8c-0.101,6.7,0.899,13.5,3,20.2l-20,1.5
	l0.199-7l4.4-20l7.1-21.601c0,0,15.2-37.801,64.7-43.101c20.8,1.8,39.8,4.8,53.2,20.601l6,8.801c5.5,9.699,8.8,21,10.8,33.5l0,0
	c1.101,8.3,1.399,16.199,2,23.5l-14.5,1.699l0,0c1.7-5.699,2.601-11.801,2.601-18.199c0-34.102-26.801-61.9-59.7-61.9
	C654.1,288.1,650.1,288.5,646.3,289.3z"/>
<path fill="#FFFFFF" stroke="#000000" stroke-miterlimit="10" d="M717.9,349.9c0,6.3-0.899,12.398-2.601,18.199
	c-7.5,25.399-30.2,43.899-57.101,43.899c-32.899,0-59.8-27.7-59.8-62c0-0.3,0-0.601,0-0.8c0.601-27.2,18.399-52.4,46-59.301
	c0.399-0.101,0.899-0.199,1.3-0.301c0.2-0.1,0.399-0.1,0.601-0.1c3.899-0.8,7.899-1.3,12-1.3C691.199,288.1,717.9,315.8,717.9,349.9
	z M658.4,386.6c19.5,0,35.399-16.398,35.399-36.8c0-20.2-15.899-36.5-35.399-36.5c-19.301,0-35.2,16.3-35.2,36.5
	C623.199,370.1,639,386.6,658.4,386.6z"/>
<path fill="#FFFFFF" stroke="#000000" stroke-miterlimit="10" d="M693.8,349.8c0,20.4-15.899,36.8-35.399,36.8
	c-19.301,0-35.2-16.398-35.2-36.8c0-20.2,15.899-36.5,35.2-36.5C677.9,313.3,693.8,329.6,693.8,349.8z M678.6,350.9
	c0-11.801-8.899-21.2-20.3-21.2c-11.2,0-20.2,9.399-20.2,21.2c0,11.398,9.101,21,20.2,21C669.699,371.9,678.6,362.3,678.6,350.9z"/>
<path fill="#FFFFFF" stroke="#000000" stroke-miterlimit="10" d="M658.4,329.7c11.3,0,20.3,9.399,20.3,21.2
	c0,11.398-8.899,21-20.3,21c-11.2,0-20.2-9.5-20.2-21C638.1,339.1,647.199,329.7,658.4,329.7z M665.3,350.6c0-3.898-3.2-7-6.8-7
	c-3.601,0-6.801,3.102-6.801,7c0,3.9,3.2,7,6.801,7C662.199,357.6,665.3,354.5,665.3,350.6z"/>
<path fill="#FFFFFF" stroke="#000000" stroke-miterlimit="10" d="M658.5,343.5c3.6,0,6.8,3.1,6.8,7s-3.2,7-6.8,7
	c-3.601,0-6.801-3.1-6.801-7S654.9,343.5,658.5,343.5z"/>
<polygon fill="#FFFFFF" stroke="#000000" stroke-miterlimit="10" points="587,221.5 587.1,221.5 559.9,228.4 553.3,223.5 
	553.6,223.5 580,218.2 580.6,218 582.4,219.3 "/>
<polygon fill="#FFFFFF" stroke="#000000" stroke-miterlimit="10" points="581.6,364.7 581.4,371.7 560.3,373.3 516.6,372.7 
	350.5,373.1 226.3,370.2 226.3,369.8 226.3,364.6 231.3,365 "/>
<path fill="#FFFFFF" stroke="#000000" stroke-miterlimit="10" d="M580,218.2l-26.4,5.3l-101-76.5l7.399-4.1
	C496.9,160.2,541.9,190.2,580,218.2z"/>
<path fill="#FFFFFF" stroke="#000000" stroke-miterlimit="10" d="M560.699,255.3c7.601,35,0.899,68.601-6.399,97.4l-219.601-0.2
	l-0.601,0.1c-6.199-47.1-7.101-82.8-5.3-105.5l23.8,0.8C431.699,249.6,497.199,251.8,560.699,255.3z M363.3,260.5V260
	c0-1.1-0.8-1.9-1.8-1.9h-3.801c-1.699-1.9-5.699-3.3-10.3-3.3s-8.601,1.3-10.301,3.3h-3.3c-1,0-1.8,0.8-1.8,1.9v0.5
	c0,1.1,0.8,1.9,1.8,1.9h3.3c1.7,1.9,5.7,3.3,10.301,3.3s8.601-1.3,10.3-3.3h3.801C362.4,262.4,363.3,261.5,363.3,260.5z"/>
<path fill="#FFFFFF" stroke="#000000" stroke-miterlimit="10" d="M560.699,255.3c-63.399-3.6-128.899-5.7-208.101-7.4l-23.8-0.8
	c0.8-9.7,2.101-17,3.601-21.8l-0.101-0.3l221.3,6.6v0.8C556.699,240.1,559,247.8,560.699,255.3z"/>
<path fill="#FFFFFF" stroke="#000000" stroke-miterlimit="10" d="M317.3,138.3c-37.5-0.1-63.6,0.3-94.8,4
	c-55.2,4.9-95.7,31.6-138.7,65.1c-10.6,8.5-5.9,9.9,17.4,10.8l231.199,6.9l0.101,0.3c-1.601,4.8-2.9,12.1-3.601,21.8L61.7,238.4
	h-1.1v-0.1c-3.899-7.8-1.5-17.1,3.9-21.6c22.399-24.1,51.399-40.6,88.1-61.5c4.2-2.5,8.5-10.3,5.7-14.1l-0.1-0.4
	c27.8-7.6,91.3-12.7,165.6-13.1c49.3-0.2,86-1.7,136.601,15l-0.5,0.3l-7.4,4.1l101,76.5h-0.2l6.5,4.9l0.3,2.4l-4.899,0.7l-0.601,0.2
	c-32.899-26.6-59.399-49-89.5-68.3c-37.3-26-86-25.4-131.601-25.1C327.9,138.3,322.5,138.3,317.3,138.3z"/>
<path id="ABC-color.com" fill="#FFFFFF" stroke="#000000" stroke-miterlimit="10" d="M554.699,231.7h-1l-221.3-6.6l-15-86.8
	c5.199,0,10.601,0,16.3,0.1C379.3,138.1,428,137.5,465.3,163.5C495.3,182.7,521.8,205.1,554.699,231.7z M524.3,226.9
	c0.399-0.4,0.601-0.9,0.601-1.5c0-0.8-1.101-1.8-1.801-2.2l-0.199-0.1c1.899-1.6,1.5-6.9-1.301-9.5c-1.899-1.8-6-5-9.601-7.5
	l-1.3-4.3c-25.2-19.6-35.7-29.4-61.101-43.4c-30.5-16.8-74.8-15.8-125.3-16.4l16.3,79.9l173.9,4.9l0.1-0.1c0.4,0.6,1,0.9,1.7,0.9
	h6.3C523.4,227.6,523.9,227.3,524.3,226.9z"/>
<path fill="#FFFFFF" stroke="#000000" stroke-miterlimit="10" d="M524.9,225.4c0,0.6-0.2,1.1-0.601,1.5
	c-0.399,0.4-0.899,0.6-1.5,0.6h-6.3c-0.7,0-1.301-0.4-1.7-0.9c-0.2-0.4-0.399-0.8-0.399-1.2c0-0.6,0.199-1.1,0.601-1.5v-0.3
	c2.6,0,5.199,0,6.6,0c0.5,0,1-0.2,1.301-0.5l0.199,0.1C523.8,223.6,524.9,224.5,524.9,225.4z"/>
<path fill="#FFFFFF" stroke="#000000" stroke-miterlimit="10" d="M512.1,206c3.601,2.4,7.601,5.7,9.601,7.5c2.8,2.6,3.2,8,1.3,9.5
	c-0.399,0.3-0.8,0.5-1.3,0.5c-1.399,0-4.101,0-6.601,0c-3.3,0-6.399,0-6.399,0c-2.399,0-7.3-1.6-7.3-3.8c0-2.3,0-8.5,0-12.4
	c0-3.8,1.699-5.3,4.8-4.5C507.5,203.2,509.699,204.4,512.1,206z"/>
<path fill="#FFFFFF" stroke="#000000" stroke-miterlimit="10" d="M515,223.5v0.3c-0.4,0.4-0.601,0.9-0.601,1.5
	c0,0.5,0.101,0.9,0.399,1.2l-0.101,0.1L340.8,221.7L324.4,142c50.5,0.6,94.8-0.3,125.3,16.4c25.399,13.9,35.801,23.8,61.101,43.4
	l1.3,4.3c-2.399-1.6-4.5-2.8-5.8-3.2c-3.2-0.8-4.8,0.8-4.8,4.5c0,3.9,0,10,0,12.4c0,2.2,4.8,3.8,7.3,3.8
	C508.6,223.5,511.699,223.5,515,223.5z"/>
<path fill="#FFFFFF" stroke="#000000" stroke-miterlimit="10" d="M336.9,262.4H333.6c-1,0-1.8-0.8-1.8-1.9V260
	c0-1.1,0.8-1.9,1.8-1.9h3.301H357.6h3.801c1,0,1.8,0.8,1.8,1.9v0.5c0,1.1-0.8,1.9-1.8,1.9H357.6H336.9z"/>
<path fill="#FFFFFF" stroke="#000000" stroke-miterlimit="10" d="M357.6,258H336.9c1.699-1.9,5.699-3.3,10.3-3.3
	C351.9,254.7,355.9,256.1,357.6,258z"/>
<path fill="#FFFFFF" stroke="#000000" stroke-miterlimit="10" d="M336.9,262.4H357.6c-1.699,1.9-5.699,3.3-10.3,3.3
	C342.6,265.6,338.699,264.3,336.9,262.4z"/>
<path fill="#FFFFFF" stroke="#000000" stroke-miterlimit="10" d="M317.3,138.3l15,86.8l-231.2-6.9c-23.3-0.9-27.899-2.3-17.399-10.8
	c43.1-33.5,83.6-60.3,138.699-65.1C253.7,138.6,279.8,138.2,317.3,138.3z M322.4,221.7L311.8,142.6c-38.2-1.1-86.6,1.7-96.6,5.2
	l-11.5,2.3c-49.7,12-89.2,39.2-115.2,64L322.4,221.7z"/>
<path fill="#FFFFFF" stroke="#000000" stroke-miterlimit="10" d="M311.8,142.6l10.601,79.1l-233.8-7.5c26-24.9,65.4-52,115.2-64
	l11.5-2.3C225.3,144.3,273.6,141.5,311.8,142.6z"/>
<path fill="#FFFFFF" stroke="#000000" stroke-miterlimit="10" d="M124.8,294.5c59-35.9,105.2,20.4,101.5,70.1v5.301v0.301l-8.4-0.2
	l-0.5-0.2c1.7-5.898,2.601-12.1,2.601-18.6c0-25.2-14.4-47.801-35.7-56.2c-23.1-9.8-44.6-0.899-44.6-0.899
	c-23,8.601-39.301,30.5-39.301,57.199c0,3.801,0.301,7.602,1,11.2l-5.199,0.399L96.1,362c-7.1-39.1,26.601-66.1,28.5-67.6
	L124.8,294.5z"/>
<path fill="#FFFFFF" stroke="#000000" stroke-miterlimit="10" d="M101.4,362.4c-0.699-3.602-1-7.4-1-11.2
	c0-26.601,16.301-48.5,39.301-57.2c0,0,21.5-8.8,44.6,0.9c21.3,8.5,35.7,31,35.7,56.199c0,6.5-0.9,12.699-2.601,18.601
	c-7.3,25.2-29.199,43.398-55.8,43.398C132.1,413.2,106.7,391.3,101.4,362.4z M195.6,351c0-20.2-12.7-36.5-35.399-36.5
	c-19.301,0-33.9,16.3-33.9,36.5c0,20.4,15.7,36.8,35.1,36.8C181,387.8,195.6,371.4,195.6,351z"/>
<path fill="#FFFFFF" stroke="#000000" stroke-miterlimit="10" d="M160.3,314.5c22.7,0,35.4,16.3,35.4,36.5
	c0,20.4-14.7,36.8-34.2,36.8c-19.3,0-35.101-16.399-35.101-36.8C126.4,330.8,140.9,314.5,160.3,314.5z M181.7,352.1
	c0-11.699-8.9-21-20.301-21c-11,0-20.3,9.2-20.3,21c0,11.4,9.2,21,20.3,21C172.8,373.1,181.7,363.6,181.7,352.1z"/>
<path id="www.ABC-color.com" fill="#FFFFFF" stroke="#000000" stroke-miterlimit="10" d="M161.5,331.1c11.3,0,20.3,9.2,20.3,21
	c0,11.4-8.9,21-20.3,21c-11,0-20.3-9.5-20.3-21C141.2,340.4,150.4,331.1,161.5,331.1z M167.7,351.6c0-3.898-3.2-7-7-7
	c-3.5,0-6.7,3.102-6.7,7c0,3.9,3.2,7.2,6.7,7.2C164.5,358.9,167.7,355.6,167.7,351.6z"/>
<path fill="#FFFFFF" stroke="#000000" stroke-miterlimit="10" d="M160.7,344.6c3.8,0,7,3.102,7,7c0,3.9-3.2,7.2-7,7.2
	c-3.5,0-6.7-3.3-6.7-7.2C154.1,347.7,157.2,344.6,160.7,344.6z"/>
<path fill="#FFFFFF" stroke="#000000" stroke-miterlimit="10" d="M158.3,141c2.7,3.8-1.5,11.6-5.7,14.1
	c-36.7,21-65.8,37.4-88.1,61.5c-5.4,4.5-7.9,13.8-3.9,21.6v0.1l-33.7-1.2c-0.1,0.4-0.1,0.7-0.1,1.1l-0.8-0.1h-3l0.1-3.4l9.8-19.3
	l4.2-3.6l15.3,0.3c33.101-21.3,67.7-46.7,99.601-64l-4.9-3.2l-0.1-0.1c2.6-1.4,6.3-2.8,11.1-4.1L158.3,141z"/>
<path fill="#FFFFFF" stroke="#000000" stroke-miterlimit="10" d="M147.2,144.9l4.899,3.2c-31.899,17.4-66.5,42.8-99.6,64l-15.3-0.3
	c32.899-22.4,69.5-47.9,109.6-66.2L147.2,144.9z"/>
<path fill="#FFFFFF" stroke="#000000" stroke-miterlimit="10" d="M68,253.4c3.6,9.8,4.5,17.7-1.601,20.3c-1.5,0.6-3.3,1-5.6,1H28.2
	c-1.601-9.2-2.9-13.6-2.801-21.1L68,253.4L68,253.4z"/>
<g>
	<polygon points="583.9,355.9 225.8,355.9 583.9,354.9 	"/>
</g>
<g>
	<path d="M218.4,309.7l81.8-0.2l40.899-0.1c13.601,0,27.301-0.102,40.9,0.199c27.3,0.399,54.5,0.5,81.8,0.199
		c13.601-0.199,27.3-0.398,40.899-1c6.8-0.3,13.601-0.6,20.399-1.1c6.8-0.5,13.601-1.102,20.301-2.4c-6.7,1.4-13.5,1.9-20.301,2.5
		c-6.8,0.5-13.601,0.9-20.399,1.2c-13.601,0.601-27.2,0.899-40.899,1.101c-27.3,0.399-54.5,0.301-81.8,0
		c-13.601-0.301-27.301-0.101-40.9,0l-40.899,0.199l-81.8,0.4V309.7L218.4,309.7z"/>
</g>
<g>
	<path d="M715.5,299.9c-2.601-3.102-5.2-6.2-8-9.2c-2.801-2.9-5.801-5.7-9.101-8c-6.601-4.7-14.2-7.8-22.2-9.3c-4-0.8-8-1.2-12-1.4
		c-4-0.1-8.101,0-12.101,0.3c-8.1,0.5-16.1,1.8-23.8,4.2s-15.101,5.9-21.399,10.9c-6.399,5-11.5,11.398-15.301,18.5
		c-3.699,7.199-6,15-7.199,23c-1.301,8-1.5,16.199-1.2,24.3c-0.5-8.101-0.399-16.3,0.7-24.3c1.101-8,3.3-16,7-23.301
		c3.601-7.301,8.899-13.801,15.399-18.899c6.399-5.1,13.899-8.7,21.7-11.1c7.8-2.4,15.899-3.6,24.1-4.1
		c4.101-0.2,8.101-0.3,12.2-0.2c4.101,0.2,8.101,0.7,12.101,1.5c8,1.6,15.699,4.8,22.3,9.6c3.301,2.4,6.301,5.2,9,8.2
		C710.4,293.5,712.9,296.7,715.5,299.9z"/>
</g>
<g>
	<path d="M232.1,355.9c-0.6-7.2-2-14.301-3.899-21.301c-1.9-7-4.301-13.801-7.4-20.301c-3.099-6.5-7-12.6-11.7-18
		c-4.7-5.398-10.3-10-16.7-13.4c-6.3-3.4-13.3-5.4-20.399-6.3c-7.101-1-14.4-1-21.5-0.2c-7.101,0.9-14.101,2.8-20.601,6
		c-6.399,3.201-12.199,7.701-16.6,13.4l0,0l0,0c-4.2,4.4-7.7,9.4-10.8,14.7c-3.101,5.3-5.601,10.8-7.601,16.601
		s-3.399,11.801-4,17.801c-0.7,6.1-0.7,12.199-0.1,18.3c-1.5-12.101-0.3-24.7,3.6-36.3c1.9-5.801,4.5-11.5,7.5-16.801
		c3.1-5.3,6.6-10.399,10.8-14.899l0,0c4.5-5.8,10.3-10.4,16.8-13.7s13.7-5.2,20.899-6.1c7.2-0.9,14.601-0.9,21.7,0.2
		c7.2,0.9,14.3,3,20.7,6.4c6.4,3.4,12.1,8.1,16.9,13.6c4.8,5.5,8.6,11.7,11.699,18.301c3.101,6.601,5.5,13.399,7.2,20.399
		C230.3,341.5,231.6,348.7,232.1,355.9z"/>
</g>
<g>
	<path d="M211.6,299.4C266.7,299,321.9,298.8,377,299c27.6,0.1,55.1,0.3,82.699,0.8C473.5,300.1,487.3,300.4,501,300.9
		c6.899,0.3,13.8,0.6,20.699,1c3.399,0.199,6.899,0.5,10.301,0.8c1.699,0.2,3.399,0.399,5.1,0.6c1.7,0.3,3.4,0.5,5.101,1
		c-1.601-0.5-3.399-0.8-5.101-1c-1.7-0.2-3.399-0.399-5.1-0.6c-3.4-0.3-6.9-0.601-10.301-0.8c-6.899-0.4-13.8-0.7-20.699-0.9
		c-13.801-0.5-27.601-0.7-41.301-0.9c-27.601-0.398-55.101-0.5-82.699-0.6c-55.101,0-110.3,0.3-165.4,0.9V299.4L211.6,299.4z"/>
</g>
</svg>
