<?xml version="1.0" encoding="utf-8"?>
<!-- Generator: Adobe Illustrator 15.0.0, SVG Export Plug-In . SVG Version: 6.00 Build 0)  -->
<!DOCTYPE svg PUBLIC "-//W3C//DTD SVG 1.1//EN" "http://www.w3.org/Graphics/SVG/1.1/DTD/svg11.dtd">
<svg version="1.1" id="layer_x5F_www.ABC-color.com"
	 xmlns="http://www.w3.org/2000/svg" xmlns:xlink="http://www.w3.org/1999/xlink" x="0px" y="0px" width="822px" height="567px"
	 viewBox="0 0 822 567" enable-background="new 0 0 822 567" xml:space="preserve">
<path fill="#FFFFFF" stroke="#000000" stroke-width="2" d="M683,393l-166.8,8c0.6-2.5,0.8-4,0.8-4c0-0.2,0-0.4,0-0.6
	c0.9-4.2,2.2-11.102,3.3-19.602l1.7,0.2l189-5l2,0.3c-0.4,2.5-0.7,5.102-1,7.7c-1.3,10-7,12-7,12L683,393z"/>
<path fill="#FFFFFF" stroke="#000000" stroke-width="2" d="M684.1,207.4c5.602-0.2,10-0.2,10-0.2v6.6c0,0-4.198,0.1-9.6,0.1
	c-9.5,0-22.8-0.5-22.8-3C661.8,208.6,674.7,207.7,684.1,207.4z"/>
<path fill="#FFFFFF" stroke="#000000" stroke-width="2" d="M607.9,216.1c-11.7,22.3-16.7,0.3-16.9-0.7
	C595.9,215.9,602.5,216.1,607.9,216.1z"/>
<path fill="#FFFFFF" stroke="#000000" stroke-width="2" d="M607.9,216.1c-5.5,0-12-0.2-16.9-0.7c-4.1-0.5-7-1.2-7-2.4
	c0-1.1,2.5-1.9,6.1-2.4c4.802-0.8,11.602-1.1,17.302-1.4C613.3,209,618.1,209,618.1,209v7C618,216,613.6,216.1,607.9,216.1z"/>
<path fill="#FFFFFF" stroke="#000000" stroke-width="2" d="M607.3,209v0.2c-5.7,0.2-12.5,0.6-17.3,1.4V210
	C590,210,593.3,189,607.3,209z"/>
<path id="www.ABC-color.com" fill="#FFFFFF" stroke="#000000" stroke-width="2" d="M580,158c-5,11-46,9-46,9l-4,1.3
	c-4,1.7-12,4.7-12,4.7c-11-9-2-19-2-19C524,170,580,158,580,158z"/>
<path fill="#FFFFFF" stroke="#000000" stroke-width="2" d="M518,173l-10.4,1.9L500,163c0-3,2.8-5,6.1-6.4c4.5-1.9,9.9-2.6,9.9-2.6
	S507,164,518,173z"/>
<path fill="#FFFFFF" stroke="#000000" stroke-width="2" d="M600,77l33,98l2,4l10,11c3,1,5,42,5,42s0,0,2,3s0,64,0,64
	c-5,11-1,35-1,35l-2,34l0.1,2.1L544,373c-10-1-11-10-11-10l-4.1-99.2L528,243l-10-52l-10.3-16l115.3-1l-27-90l-28-3c-15-4-34,8-34,8
	c-13,6-28,67-28,67l0.1,0.6c-3.3,1.4-6.1,3.5-6.1,6.4c-5-43,27-85,27-85C545,62,600,77,600,77z M618,216v-7c0,0-4.7,0-10.7,0.2V209
	c-14-20-17.3,1-17.3,1l0.1,0.6c-3.6,0.6-6.1,1.4-6.1,2.4c0,1.2,2.9,1.9,7,2.4c0.2,1,5.3,23,16.9,0.7C613.6,216.1,618,216,618,216z"
	/>
<path fill="#FFFFFF" stroke="#000000" stroke-width="2" d="M583,142h0.3c0.102,4.4-0.898,9-1.898,12.1L581,154c-8,2-28-5-28-5
	C551,141,583,142,583,142z"/>
<path fill="#FFFFFF" stroke="#000000" stroke-width="2" d="M583.3,142H583c0,0-32-1-30,7c0,0,20,7,28,5l0.4,0.1
	c-0.7,2.4-1.4,3.9-1.4,3.9s-56,12-64-4c3-15,20-25,20-25l25-1c7.3-1.3,18,4,18,4C582,134.4,583.1,138.1,583.3,142z"/>
<path fill="#FFFFFF" stroke="#000000" stroke-width="2" d="M506,156c0,0,15-61,28-67c0,0,19-12,34-8l28,3l27,90l-115.3,1l-0.102-0.1
	L518,173c0,0,8-3,12-4.7l4-1.3c0,0,41,2,46-9c0,0,0.6-1.5,1.4-3.9c1-3.1,2-7.7,1.898-12.1c-0.1-3.9-1.2-7.6-4.3-10
	c0,0-10.7-5.3-18-4l-25,1c0,0-17,10-20,25c0,0-5.3,0.7-9.9,2.6L506,156z"/>
<path fill="#FFFFFF" stroke="#000000" stroke-width="2" d="M692,133l21,45h-20l-24-71C678,104,692,133,692,133z"/>
<polygon fill="#FFFFFF" stroke="#000000" stroke-width="2" points="662,102 687,178 640,173 613,89 "/>
<path fill="#FFFFFF" stroke="#000000" stroke-width="2" d="M684.1,207.4c-9.5,0.3-22.3,1.2-22.3,3.6s13.2,2.9,22.8,3
	c5.4,0,9.602-0.1,9.602-0.1v-6.6C694.2,207.2,689.7,207.2,684.1,207.4z M738,231v20l-28,98c-5,18-19,20-19,20l-41.9,1.1L649,368
	l2-34c0,0-4-24,1-35c0,0,2-61,0-64s-2-3-2-3s-2-41-5-42l-10-11l-2-4l-33-98c64,13,86,32,86,32l36,71l11,13C732,197,738,231,738,231z
	 M713,178l-21-45c0,0-14-29-23-26l24,71H713z M687,178l-25-76l-49-13l27,84L687,178z"/>
<path fill="#FFFFFF" stroke="#000000" stroke-width="2" d="M756,277c25,4,23,83,23,83s-1-59-31-59l-15-2l-0.4-0.2
	C744.6,275.1,756,277,756,277z"/>
<path fill="#FFFFFF" stroke="#000000" stroke-width="2" d="M752,449l0.1,0.5c-10.8,1.8-48,7-53.1-7.5c0,0-17-21-16-49l22-1
	c0,0,5.7-2,7-12c0.3-2.6,0.7-5.2,1-7.7c5.3-36.899,12.6-59.6,19.6-73.5l0.4,0.2l15,2c-17.2,10.9-20.6,30-24.8,50
	c-4.2,19.9-1.3,37.6,1,53C730,444,752,449,752,449z"/>
<path fill="#FFFFFF" stroke="#000000" stroke-width="2" d="M779,360c0,0,11,86-24,89c0,0-1.1,0.2-2.9,0.5L752,449c0,0-22-5-27.8-45
	c-2.3-15.4-5.2-33.1-1-53c4.3-20,7.7-39.1,24.8-50C778,301,779,360,779,360z M773.5,379c0-30.7-9.2-55.5-20.5-55.5
	s-20.5,24.8-20.5,55.5s9.2,55.5,20.5,55.5S773.5,409.7,773.5,379z"/>
<path fill="#FFFFFF" stroke="#000000" stroke-width="2" d="M745.3,383.5L738,402c-2.3-4-2.8-21.8-2.8-21.8L745.3,383.5z"/>
<path fill="#FFFFFF" stroke="#000000" stroke-width="2" d="M751.8,397.3l-0.5,31c-8.3-1-8.8-17-8.8-17L751.8,397.3z"/>
<path fill="#FFFFFF" stroke="#000000" stroke-width="2" d="M759.5,393.5L769,404c0,0-7,23.8-11,21L759.5,393.5z"/>
<path fill="#FFFFFF" stroke="#000000" stroke-width="2" d="M769,366c0,0,3,19.8,0,26l-6.5-16.3L769,366z"/>
<path fill="#FFFFFF" stroke="#000000" stroke-width="2" d="M763.8,340c0,0,5.3,13.5,5,16.8l-9.3,8.8L763.8,340z"/>
<path fill="#FFFFFF" stroke="#000000" stroke-width="2" d="M735.3,380.3c0,0,0.5,17.8,2.8,21.8l7.302-18.5L735.3,380.3z M736,367
	l9.8-1.3L743,340C743,340,738.5,346.8,736,367z M747,379c0,8.3,2.7,15,6,15s6-6.7,6-15s-2.7-15-6-15S747,370.7,747,379z M769,404
	l-9.5-10.5L758,425C762,427.8,769,404,769,404z M768.8,356.8c0.3-3.3-5-16.8-5-16.8l-4.3,25.5L768.8,356.8z M753,323.5
	c11.3,0,20.5,24.8,20.5,55.5s-9.2,55.5-20.5,55.5s-20.5-24.8-20.5-55.5S741.7,323.5,753,323.5z M769,392c3-6.3,0-26,0-26l-6.5,9.8
	L769,392z M752.5,358.5l7.8-24.3c-6.8-8.3-12.5-1.5-12.5-1.5L752.5,358.5z M751.3,428.3l0.5-31l-9.3,14
	C742.5,411.3,743,427.3,751.3,428.3z"/>
<path fill="#FFFFFF" stroke="#000000" stroke-width="2" d="M760.3,334.3l-7.8,24.3l-4.8-25.8C747.8,332.8,753.5,326,760.3,334.3z"/>
<path fill="#FFFFFF" stroke="#000000" stroke-width="2" d="M743,340l2.8,25.8L736,367C738.5,346.8,743,340,743,340z"/>
<path fill="#FFFFFF" stroke="#000000" stroke-width="2" d="M753,364c3.3,0,6,6.7,6,15s-2.7,15-6,15s-6-6.7-6-15S749.7,364,753,364z"
	/>
<path fill="#FFFFFF" stroke="#000000" stroke-width="2" d="M447.7,288.3L468.6,288c-11.198,1-28.6,16.2-30.398,17.8
	c3-7,6.1-12.8,9.3-17.7L447.7,288.3z"/>
<path fill="#FFFFFF" stroke="#000000" stroke-width="2" d="M517,396.4C523.8,284,470.3,288,470.3,288c-0.5,0-1.1,0-1.7,0h-0.1
	l-20.9,0.3l-0.198-0.1c20-30.7,41.5-23.2,41.5-23.2c36.8,22.2,35.5,79,31.3,111.8C519.2,385.3,517.9,392.1,517,396.4z"/>
<path fill="#FFFFFF" stroke="#000000" stroke-width="2" d="M474,367.5c3.6,0,6.5,6,6.5,13.5s-2.9,13.5-6.5,13.5s-6.5-6-6.5-13.5
	S470.4,367.5,474,367.5z"/>
<path fill="#FFFFFF" stroke="#000000" stroke-width="2" d="M466.7,401.7l1.898,42c-14.8-4-20.3-14-20.3-14L466.7,401.7z"/>
<path fill="#FFFFFF" stroke="#000000" stroke-width="2" d="M479.7,398.3l19.7,11.7c-2.102,16.2-19.5,27.6-19.5,27.6L479.7,398.3z"/>
<path fill="#FFFFFF" stroke="#000000" stroke-width="2" d="M503.7,366.3C510.1,384.8,501,402,501,402l-13.7-19.7L503.7,366.3z"/>
<path fill="#FFFFFF" stroke="#000000" stroke-width="2" d="M500.3,357.3l-18.3,7.3l2-40C498.4,332.3,500.3,357.3,500.3,357.3z"/>
<path fill="#FFFFFF" stroke="#000000" stroke-width="2" d="M474.1,321l-4.1,39.3l-17.8-35.6C469.5,313.8,474.1,321,474.1,321z"/>
<path fill="#FFFFFF" stroke="#000000" stroke-width="2" d="M446,334l15,39l-26-4.3C433.7,357.7,446,334,446,334z"/>
<path fill="#FFFFFF" stroke="#000000" stroke-width="2" d="M470,312.5c22.6,0,41,30.7,41,68.5s-18.4,68.5-41,68.5s-41-30.7-41-68.5
	S447.4,312.5,470,312.5z M501,402c0,0,9.1-17.2,2.7-35.7l-16.3,16L501,402z M482,364.7l18.3-7.3c0,0-1.898-25-16.3-32.7L482,364.7z
	 M499.3,410l-19.7-11.7l0.102,39.3C479.8,437.6,497.2,426.2,499.3,410z M480.5,381c0-7.5-2.9-13.5-6.5-13.5s-6.5,6-6.5,13.5
	s2.9,13.5,6.5,13.5S480.5,388.5,480.5,381z M470,360.3l4.1-39.3c0,0-4.6-7.2-21.898,3.7L470,360.3z M468.6,443.6l-1.898-42l-18.3,28
	C448.3,429.7,453.8,439.6,468.6,443.6z M461,373l-15-39c0,0-12.3,23.7-11,34.7L461,373z M443.3,423l17.3-35.7l-26.8,0.7
	C433.9,388.3,433.9,404.2,443.3,423z"/>
<path fill="#FFFFFF" stroke="#000000" stroke-width="2" d="M460.7,387.3L443.3,423c-9.398-18.8-9.398-34.7-9.398-35L460.7,387.3z"/>
<path fill="#FFFFFF" stroke="#000000" stroke-width="2" d="M462.3,471.6c-2-0.3-4.1-0.8-6.3-1.6c0,0-33.9,2-43-79.7
	c10.4-9.5,8-19.3,8-19.3c4.4-28.6,10.5-49.7,17.2-65.1C440,304.3,457.4,289.1,468.6,288.1h0.102h1.7c0,0,53.5-4,46.698,108.4
	c-0.6,3-1,4.6-1,4.6h0.2C512.6,417.2,497.1,476.8,462.3,471.6z M511,381c0-37.8-18.4-68.5-41-68.5s-41,30.7-41,68.5
	s18.4,68.5,41,68.5S511,418.8,511,381z"/>
<path fill="#FFFFFF" stroke="#000000" stroke-width="2" d="M413,390.3c9,81.7,43,79.7,43,79.7c2.2,0.8,4.3,1.3,6.3,1.6L393,469
	c-14.4-2.9-19.6-43.5-20-46.8l11-0.2c15-1,17-24,17-24C406.2,395.6,410.1,393,413,390.3z"/>
<path fill="#FFFFFF" stroke="#000000" stroke-width="2" d="M147.8,466.5c-7.9-1.6-28.1-8.7-36.4-39.2l86.6-1.7v0.4
	c0,0-14.6,46.7-48,41h1C151,467,149.8,466.9,147.8,466.5z"/>
<path fill="#FFFFFF" stroke="#000000" stroke-width="2" d="M150,467l-51.9-0.7C73,458.1,64.5,409.4,63.5,403c4,0.4,7.5,0,7.5,0
	c1,1,5.4,1.8,12.3,2.3v0.5L92,416c3,5,19.4,11.3,19.4,11.3c8.3,30.5,28.5,37.602,36.4,39.2C148.5,466.7,149.3,466.9,150,467z"/>
<path fill="#FFFFFF" stroke="#000000" stroke-width="2" d="M373,422.2L198,425.6l-86.6,1.7c0,0-16.4-6.3-19.4-11.3l-8.7-10.1v-0.5
	C143.7,410.1,401,398,401,398s-2,23-17,24L373,422.2z"/>
<path fill="#FFFFFF" stroke="#000000" stroke-width="2" d="M413,390.3c-2.9,2.7-6.8,5.3-12,7.7c0,0-257.3,12.1-317.7,7.3
	c-7-0.5-11.3-1.3-12.3-2.3c0,0-3.5,0.5-7.5,0c-4.2-0.5-8.9-1.9-10.5-6c0,0-3.8-10-7.5-25.1L50,371c0,0-9-27,5.8-30.3
	c0,0,22.2-2.7,28.2-1.7l12.3-0.3l145-3.3L303,334c0,0,18,6,22,18l9.8,12.9L421,371C421,371,423.5,380.8,413,390.3z M69,395l254-1
	c0,0-1-42-19-49l-239.2-0.3c0,0-8.8,6.3-5.8,17.3C59,362,64,390,69,395z"/>
<path fill="#FFFFFF" stroke="#000000" stroke-width="2" d="M323,394l-254,1c-5-5-10-33-10-33c-3-11,5.8-17.3,5.8-17.3L304,345
	C322,352,323,394,323,394z"/>
<path fill="#FFFFFF" stroke="#000000" stroke-width="2" d="M223,307v12c0,6.6-5.4,12-12,12h-96c-6.6,0-12-5.4-12-12v-12
	c0-6.6,5.4-12,12-12h96C217.6,295,223,300.4,223,307z"/>
<path fill="#FFFFFF" stroke="#000000" stroke-width="2" d="M209.1,149.4l0.7,0.8c-17,15-29.8,26.8-29.8,26.8
	C179,143,209.1,149.4,209.1,149.4z"/>
<path fill="#FFFFFF" stroke="#000000" stroke-width="2" d="M114.9,222.1c-11.2,14.8-35.7,55.8-18.6,114.8v1.8L84,339
	c-6-1-28.2,1.7-28.2,1.7C41,344,50,371,50,371l-4.5,0.9C37.8,340.5,30.7,286.7,59,253c0,0,28.5,16.5,44.9-39.2l0.8,0.2l15.4,1.6v0.4
	C120,216,117.9,218.1,114.9,222.1z"/>
<path fill="#FFFFFF" stroke="#000000" stroke-width="2" d="M59,253c0-48,47-47,47-47c-0.7,2.7-1.4,5.3-2.1,7.8
	C87.5,269.5,59,253,59,253z"/>
<path fill="#FFFFFF" stroke="#000000" stroke-width="2" d="M183,207c6.6,0,12,4.5,12,10s-5.4,10-12,10s-12-4.5-12-10
	S176.4,207,183,207z"/>
<path fill="#FFFFFF" stroke="#000000" stroke-width="2" d="M213.7,218.7c0,0,84.7-10,90.5-8.9c0,0-2.9,2.9-7.5,7.9l-0.1-0.1L211,228
	c-40,28-55-1-55-1l-41.1-4.9c3.1-4,5.1-6.1,5.1-6.1v-0.4l42,4.4c0,0,0,15,19,14C181,234,190.4,235.4,213.7,218.7z"/>
<path fill="#FFFFFF" stroke="#000000" stroke-width="2" d="M296.7,217.7L296.7,217.7c-17,19.1-57.6,69.3-55.4,116.1v1.7l-145,3.3
	V337c-17.1-59,7.4-100,18.6-114.8L156,227c0,0,15,29,55,1L296.7,217.7z M258,238h-48c0,0-15,15-35,14c-17-0.9-24-17.1-24-17.1
	l-30-0.9c-8,3-19,49-19,49l136,4C233,281,258,238,258,238z M223,319v-12c0-6.6-5.4-12-12-12h-96c-6.6,0-12,5.4-12,12v12
	c0,6.6,5.4,12,12,12h96C217.6,331,223,325.6,223,319z"/>
<path fill="#FFFFFF" stroke="#000000" stroke-width="2" d="M210,238h48c0,0-25,43-20,49l-136-4c0,0,11-46,19-49l30,0.9
	c0,0,7,16.3,24,17.1C195,253,210,238,210,238z"/>
<path fill="#FFFFFF" stroke="#000000" stroke-width="2" d="M434,189c0,0,8,14,4,18l-22,26l-110,23c0,0-13-11-12-16l37-35
	C331,205,426,182,434,189z"/>
<path fill="#FFFFFF" stroke="#000000" stroke-width="2" d="M528.9,263.8L533,363c0,0,1,9,11,10l105.1-2.9L691,369c0,0,14-2,19-20
	l28-98v-20c0,0-6-34-5-38l-11-13l-36-71c0,0-22-19-86-32c0,0-55-15-73,1c0,0-32,42-27,85l7,12h0.7l10.3,16l10,52L528.9,263.8z
	 M331,205l-37,35c-1,5,12,16,12,16l110-23l22-26c4-4-4-18-4-18C426,182,331,205,331,205z M421,371l-86.2-6.1L325,352
	c-4-12-22-18-22-18l-61.7,1.4v-1.7c-2.2-46.8,38.4-97,55.5-116c4.601-5.1,7.5-7.9,7.5-7.9c-5.8-1.2-90.5,8.9-90.5,8.9
	C190.4,235.4,181,234,181,234c-19,1-19-14-19-14l-42-4.4l-15.4-1.6l-0.8-0.2c0.7-2.5,1.4-5,2.1-7.8c0,0,17-24,74-29
	c0,0,12.7-11.8,29.8-26.8C239.5,124,282.2,88,293,88c0,0,155-33,243-24c0,0,93-1,167,46c0,0,36,67,38,73c0,0,32,28,45,133l-7,44
	c0,0,2-79-23-83c0,0-11.4-1.9-23.4,21.8c-7,13.9-14.3,36.5-19.6,73.5l-2-0.3l-189,5l-1.7-0.2c4.2-32.7,5.5-89.6-31.3-111.8
	c0,0-21.5-7.5-41.5,23.2c-3.2,4.899-6.3,10.7-9.3,17.7C431.5,321.3,425.4,342.4,421,371z M509,76c-7-15-221,18-221,18
	c-23,10-95,82-95,82l92-8c0-4,151-1,151-1c13,1,17-5,17-5s0.8-0.8,4-4C464.3,150.7,509,76,509,76z M195,217c0-5.5-5.4-10-12-10
	s-12,4.5-12,10s5.4,10,12,10S195,222.5,195,217z"/>
<path fill="#FFFFFF" stroke="#000000" stroke-width="2" d="M288,94c0,0,214-33,221-18c0,0-44.7,74.7-52,82c-3.2,3.2-4,4-4,4
	s-4,6-17,5c0,0-151-3-151,1l-92,8C193,176,265,104,288,94z"/>
<path fill="none" stroke="#000000" d="M737.4,233.4l-210,12c0,0-46.7-49-83.302-44.3"/>
<polyline fill="none" stroke="#000000" points="750.4,197.4 643.4,191.4 516.4,192.4 438.4,201.4 "/>
<line fill="none" stroke="#000000" x1="533.4" y1="338.4" x2="714.4" y2="335.4"/>
<line fill="none" stroke="#000000" x1="332.4" y1="216.4" x2="420.4" y2="197.4"/>
<line fill="none" stroke="#000000" x1="315.4" y1="232.4" x2="423.4" y2="212.4"/>
<line fill="none" stroke="#000000" x1="308.4" y1="245.4" x2="414.4" y2="225.4"/>
<polyline fill="none" stroke="#000000" points="415.4,235.4 443.4,252.4 458.4,277.4 "/>
<ellipse fill="none" stroke="#000000" cx="353.4" cy="301.9" rx="16" ry="17.5"/>
<path fill="none" stroke="#000000" d="M301.4,281.4c0,0,31,4,30,12c0,0,8,21-31,23c0,0,58,18,75-3c0,0,15-26-11-34L301.4,281.4z"/>
<line fill="none" stroke="#000000" x1="91.4" y1="271.4" x2="54.7" y2="261.4"/>
<path fill="none" stroke="#000000" d="M259.4,271.4c0,0,180-24,184-19"/>
<line fill="none" stroke="#000000" x1="69.4" y1="354.4" x2="302.4" y2="355.4"/>
<line fill="none" stroke="#000000" x1="66.4" y1="363.4" x2="309.4" y2="362.4"/>
<line fill="none" stroke="#000000" x1="67.4" y1="371.4" x2="311.4" y2="371.4"/>
<line fill="none" stroke="#000000" x1="73.4" y1="380.4" x2="312.4" y2="378.4"/>
<line fill="none" stroke="#000000" x1="74.4" y1="389.4" x2="309.4" y2="385.4"/>
<path fill="none" stroke="#000000" d="M43.4,316.4l5,1.5c13.5-12,1.5-27,1.5-27l-5.5,1"/>
</svg>
