<?xml version="1.0" encoding="utf-8"?>
<!-- Generator: Adobe Illustrator 15.0.0, SVG Export Plug-In . SVG Version: 6.00 Build 0)  -->
<!DOCTYPE svg PUBLIC "-//W3C//DTD SVG 1.1//EN" "http://www.w3.org/Graphics/SVG/1.1/DTD/svg11.dtd">
<svg version="1.1" id="Layer_1" xmlns="http://www.w3.org/2000/svg" xmlns:xlink="http://www.w3.org/1999/xlink" x="0px" y="0px"
	 width="822px" height="567px" viewBox="0 0 822 567" enable-background="new 0 0 822 567" xml:space="preserve">
<path fill="#FFFFFF" stroke="#000000" stroke-width="0.25" stroke-miterlimit="10" d="M563.7,93c-9-3.8-47.9-2.6-63.2,2
	c-12.2,3.6-9.5,34-9.5,34v16.9l-9.5-0.6l0.7-32c1.3-23.7,0.3-27.2,8-30.7c12.1-5.5,53.3-4,53.3-4c23.3-0.7,21.7,14.8,21.7,14.8
	l-0.101,0.1C564.7,93.4,564.2,93.2,563.7,93z"/>
<path fill="#FFFFFF" stroke="#000000" stroke-width="0.25" stroke-miterlimit="10" d="M499,159.4l-8-0.1v-13.4V129
	c0,0-2.7-30.4,9.5-34c15.3-4.6,54.2-5.8,63.2-2c0.5,0.2,1,0.4,1.399,0.6c7.101,3.4,9.2,8,12.301,33.7v21.3l0,0l-0.9,11.4l-7.6-0.1
	H563l-56-0.4L499,159.4z"/>
<path fill="#FFFFFF" stroke="#000000" stroke-miterlimit="10" d="M282.7,282.6l78.5-1.2c-2.601,2.7-4.601,6.7-5.2,12.6
	c0,0,0,0.4,0,1.1l-74,0.2l-7.3,0.101C271.2,293.6,280.3,284.8,282.7,282.6z"/>
<path fill="#FFFFFF" stroke="#000000" stroke-width="0.25" stroke-miterlimit="10" d="M233.3,163.8c1.9,0,3.9,0.1,6.1,0.3l47.7,0.4
	l6,0.1l23,0.2c0,0,8,5.3,9.301,12v0.4L200.7,181v-0.2C200.7,180.7,204.8,163.7,233.3,163.8z"/>
<path fill="#FFFFFF" stroke="#000000" stroke-width="0.25" stroke-miterlimit="10" d="M240,159.9l-0.6,4.1c-2.1-0.2-4.2-0.3-6.1-0.3
	L233,160v-0.1H240z"/>
<path fill="#FFFFFF" stroke="#000000" stroke-width="0.25" stroke-miterlimit="10" d="M233,160l0.3,3.8
	c-28.5-0.1-32.6,16.9-32.6,16.9v0.2l-14,0.4c0,0-3.6,0.5-6.4-1.3l1.1-0.2c0,0,14.6-31.3,41.3-31.3l0,0L223,160l10-0.1V160z"/>
<path fill="#FFFFFF" stroke="#000000" stroke-miterlimit="10" d="M517.4,282.6c2.5,2.3,11.5,11,8.1,12.8l-7.3-0.101l-74-0.2
	c0-0.699,0-1.1,0-1.1c-0.601-5.8-2.601-9.9-5.2-12.6L517.4,282.6z"/>
<path fill="#FFFFFF" stroke="#000000" stroke-width="0.25" stroke-miterlimit="10" d="M240,159.9h-7l-10,0.1l-0.3-11.4l0,0
	l-0.1-21.3c3.2-26,5.1-30.4,12.4-33.8c0.4-0.2,0.8-0.3,1.2-0.5c9-3.8,47.6-2.6,62.9,2c12.2,3.6,8.9,34,8.9,34v17v13.3l-15,0.1
	l-6,0.1L240,159.9z"/>
<path fill="#FFFFFF" stroke="#000000" stroke-miterlimit="10" d="M439.2,306c-3.2,3-8.4,5.3-17,4.5L400.1,311l-22.1-0.5
	c-8.6,0.8-13.9-1.5-17-4.5c-4-3.8-4.8-8.8-4.9-11c0-0.7,0-1.1,0-1.1c0.601-5.801,2.601-9.9,5.2-12.601c6.3-6.6,15.8-5.8,15.8-5.8
	l22.801-0.2h0.5l22.8,0.2c0,0,9.5-0.8,15.8,5.8c2.6,2.7,4.6,6.7,5.2,12.601c0,0,0,0.399,0,1.1C444,297.2,443.2,302.2,439.2,306z"/>
<path fill="#FFFFFF" stroke="#000000" stroke-miterlimit="10" d="M724.2,180c0,0,4.7,12.7-14.7,15.3l-26.7,2.7l-22-26.7l1.7-15.6
	c0,0-1.7-9.1,5.7-7.8l20,0.7C688.2,148.7,722.2,148.7,724.2,180z"/>
<path fill="#FFFFFF" stroke="#000000" stroke-miterlimit="10" d="M700.2,297.7l3,5.3l-3.7,220.3c1.3,12.7-13.3,20-13.3,20l-43.3,1.3
	c-13.301-1.3-22.7-16.699-22.7-16.699l-2-48.7v-0.5l25.899-0.2c49.301,2,47.301-90.7,47.301-90.7c2-48.7,5.699-76.101,8.5-90.399
	L700.2,297.7z"/>
<path fill="#FFFFFF" stroke="#000000" stroke-miterlimit="10" d="M623,391.5l-74.9,1.8h-1.3c-14,10-5.3,34-5.3,34l110,0.7
	c16.4-5.3,20.7-25,21.8-37.7l-8.8,0.2l-24.7,0.6L623,391.5z M556.8,361.1l100.7-1.1c10.7-0.7,11.3-6,11.3-6l-0.399-8l-0.301-6.7
	c1.301-2.7-4-5.3-4-5.3L541.4,337.3c-3.301-0.7-4.801,1-5.5,2.601c-0.5,1.399-0.5,2.699-0.5,2.699l-0.2,3.301l-0.4,6.699
	c0,3.301,4,8.7,4,8.7L556.8,361.1z M240.7,442H209h-68c2.3,6,11.7,12.9,11.7,12.9l56.7-0.101l31.7-0.1l36-0.101l33-0.1l37.7-0.1
	l38.3-0.101h13.2h1.8h13.2l38.3,0.101l37.7,0.1l33,0.1l36,0.101l31.7,0.1l56.7,0.101c0,0,9.3-6.9,11.7-12.9h-68h-31.7h-21.3
	c0,0-2.2,2.4-14.7,4.4c-1.2,0.199-2.5,0.399-4,0.5l-29-0.2l-38.101-0.2l-37.699-0.2l-15.301-0.1V446l-13.8,0.1l-37.7,0.301
	l-38.1,0.3l-29,0.2c-1.4-0.2-2.7-0.4-3.9-0.5c-12.5-2-14.7-4.4-14.7-4.4H240.7L240.7,442z M121.6,230.8c-2.5-15.7-4.3-32.8-4.3-32.8
	l21.7,0.4l15,0.3c-6.7,8.7,3.7,66.3,3.7,66.3v0.4l-4.4-0.1c-16.7,1.3-19.9,7.7-19.9,7.7l-1,45l68.9,0.6L212,318.7l37,0.3v-39
	c0.3-0.8,0.3-1.7,0.1-2.5l11.8,0.1l7,43.7c2,2,2.7,5.3,2.7,5.3l129.1-1h0.5l129.1,1c0,0,0.7-3.3,2.7-5.3l7-43.7l10.7-0.1
	c-0.2,0.8-0.101,1.7,0.1,2.5v39l38.2-0.3l10.7-0.101L667,318l-0.7-45c0,0-3.1-6.3-19.8-7.7l-4.2,0.1V265c0,0,10.3-57.7,3.7-66.3
	l15-0.3l21.7-0.4c0,0-1.8,17.3-4.4,33.1c3.8,3.2,13.8,17.5,19.8,26.4c2.801,4.2,4.801,7.2,4.801,7.2V284c0,0-0.2,1.3-1.101,4.6
	c-0.6,2.101-1.3,5.101-2,9c-2.8,14.301-6.6,41.7-8.5,90.4c0,0,2.101,92.7-47.3,90.7l-25.9,0.2L400.3,480L182,478.8l-26.1-0.2
	c-49.3,2-47.4-90.699-47.4-90.699c-2-48.2-5.8-75.601-8.7-90c-0.8-4.101-1.5-7.2-2.1-9.4c-0.9-3.3-1.7-4.6-1.7-4.6v-19.3
	c0,0,2.4-3.6,5.8-8.5C108.4,246.8,118.4,232.8,121.6,230.8z M126.9,390.3c1.1,12.7,5.4,32.4,21.8,37.7l110-0.7c0,0,8.7-24-5.3-34
	h-1.3l-74.9-1.8l-16.8-0.4l-24.6-0.6L126.9,390.3z M131.7,346l-0.4,8c0,0,0.7,5.3,11.3,6l100.7,1.1l18,0.2c0,0,4-5.3,4-8.7
	l-0.4-6.699l-0.2-3.301c0,0,0-1.3-0.5-2.699c-0.7-1.7-2.2-3.4-5.5-2.601L136,334c0,0-5.3,2.7-4,5.3L131.7,346z M627,332v-6
	c0-1.1-0.9-2-2-2h-27c-1.1,0-2,0.9-2,2v6c0,1.1,0.9,2,2,2h27C626.1,334,627,333.1,627,332z M518.8,424.7l2.7-32l-121,0.6h-0.8
	l-121-0.6l2.7,32c10,20.7,14.7,16.7,14.7,16.7l104.1-1.301l104.1,1.301C504.2,441.3,508.8,445.3,518.8,424.7z M502.2,352.3
	c0-3.5-3.4-6.3-7.7-6.3c-4.2,0-7.7,2.8-7.7,6.3s3.4,6.3,7.7,6.3C498.7,358.7,502.2,355.8,502.2,352.3z M482,386.5v-42
	c0-1.1-0.2-1.5-1.3-1.5H400h-80.5c-1.1,0-2.5,0.4-2.5,1.5v42c0,1.1,1.4,2.5,2.5,2.5H400h80.7C481.8,389,482,387.6,482,386.5z
	 M313.3,352.3c0-3.5-3.399-6.3-7.7-6.3c-4.2,0-7.7,2.8-7.7,6.3s3.4,6.3,7.7,6.3C309.9,358.7,313.3,355.8,313.3,352.3z M203,332v-6
	c0-1.1-0.9-2-2-2h-27c-1.1,0-2,0.9-2,2v6c0,1.1,0.9,2,2,2h27C202.1,334,203,333.1,203,332z"/>
<path fill="#FFFFFF" stroke="#000000" stroke-miterlimit="10" d="M698.5,257.3l-0.3,0.2c-6-8.9-15.9-23.2-19.8-26.4
	c2.5-15.8,4.399-33.1,4.399-33.1S691.8,210,698.5,257.3z"/>
<path fill="#FFFFFF" stroke="#000000" stroke-miterlimit="10" d="M660.8,171.3l22,26.7l-21.7,0.4v-0.1c0,0-51.699-129-63.699-163.7
	l0.3-0.3c4.899,5.9,10.8,14.8,16.399,27.6C614.2,62,655.5,169.3,660.8,171.3z"/>
<path fill="#FFFFFF" stroke="#000000" stroke-miterlimit="10" d="M664.5,390.5l8.8-0.2c-1,12.7-5.399,32.4-21.8,37.7l-110-0.7
	c0,0-8.7-24,5.3-34h1.3l0,0c0,0-3.3,6.8-1.5,7c0.4,0,0.9,0.101,1.5,0.2v0.2c-9.3,6.3-4.3,8.3-4.3,8.3h2v0.4
	c-7,6.699-3,7.699-3,7.699h2.7l0,0c-4.5,5.5-1.3,6-1.3,6l79.5,0.801l0.1-0.301c2.5,0.9,5.3,1.301,8.101,1.301
	c2.5,0,4.8-0.301,6.899-1L653,424c2.8-0.8,1.4-3,0.6-4h2.601c4.7,1,2.6-7,2.6-7l0.101-1.3l5.699,0.3c2.7-1-1-9.9-1-9.9l3.301-0.1
	c3.699-1.3-2.301-11-2.301-11L664.5,390.5z"/>
<path fill="#FFFFFF" stroke="#000000" stroke-width="0.25" stroke-miterlimit="10" d="M668.5,346l0.4,8c0,0-0.7,5.3-11.301,6
	L556.9,361.1l-0.2-15.1h0.2H668.5z M644.8,351.7c0-2-2.1-3.7-4.7-3.7c-2.6,0-4.699,1.6-4.699,3.7c0,2,2.1,3.7,4.699,3.7
	C642.7,355.4,644.8,353.7,644.8,351.7z"/>
<path fill="#FFFFFF" stroke="#000000" stroke-width="0.25" stroke-miterlimit="10" d="M668.2,339.3l0.3,6.7H556.8h-0.2H535.2
	l0.2-3.3c0,0,0-1.3,0.5-2.7h0.1L668.2,339.3z"/>
<path fill="#FFFFFF" stroke="#000000" stroke-width="0.25" stroke-miterlimit="10" d="M664.2,334c0,0,5.3,2.7,4,5.3l-132,0.7H536.1
	c0.7-1.7,2.2-3.4,5.5-2.6L664.2,334z"/>
<path fill="#FFFFFF" stroke="#000000" stroke-width="0.25" stroke-miterlimit="10" d="M666.5,273l0.7,45l-68.3,0.6l4-12.6l0.6-0.2
	c3.6,5.4,9.3,8.8,15.8,8.8c10.9,0,19.7-9.8,19.7-22c0-12.1-8.8-22-19.7-22c-6.5,0-12.2,3.5-15.8,8.8l-0.6-0.2L597.6,266l45-0.7
	l4.2-0.1C663.4,266.7,666.5,273,666.5,273z M659.5,303c0-1.7-1.8-3-4-3s-4,1.3-4,3s1.8,3,4,3S659.5,304.7,659.5,303z M658.8,285
	c0-2.4-1.899-4.3-4.3-4.3s-4.3,1.9-4.3,4.3c0,2.4,1.899,4.3,4.3,4.3S658.8,287.4,658.8,285z"/>
<path fill="#FFFFFF" stroke="#000000" stroke-miterlimit="10" d="M664.5,391c0,0,6,9.7,2.3,11l-3.3,0.1l-12,0.301l-1.3,0.3
	c-1.2-5.601-4.4-9.3-10.4-11.3v-0.2l24.7-0.601V391z"/>
<path fill="#FFFFFF" stroke="#000000" stroke-miterlimit="10" d="M663.5,402.1c0,0,3.7,8.9,1,9.9l-5.7-0.3l-7.3-0.4l-1-0.2
	c0.2-1,0.3-2,0.3-3.1c0-2-0.2-3.8-0.5-5.4l1.3-0.3L663.5,402.1z"/>
<path fill="#FFFFFF" stroke="#000000" stroke-miterlimit="10" d="M589.7,57c-1.101-0.4-2.2-0.6-3.5-0.7l-15.8-34.6
	c7.5,0.7,13.199,1.5,16.5,2.3c0,0,4.6,2.7,11,10.4l-0.301,0.3c12,34.7,63.7,163.7,63.7,163.7v0.1l-15,0.3l-46.7-132
	C599.5,66.7,596.4,59.3,589.7,57z"/>
<path fill="#FFFFFF" stroke="#000000" stroke-miterlimit="10" d="M591.2,442h68c-2.3,6-11.7,12.9-11.7,12.9l-56.7-0.101v-1.2
	L591.2,442z"/>
<path fill="#FFFFFF" stroke="#000000" stroke-miterlimit="10" d="M653.6,420c0.801,1,2.2,3.2-0.6,4l-14.1-0.2
	c6.1-1.8,10.5-6.2,11.5-12.6l1,0.2l7.3,0.399l-0.101,1.3c0,0,2.101,8-2.6,7h-2.4V420z"/>
<path fill="#FFFFFF" stroke="#000000" stroke-width="0.25" stroke-miterlimit="10" d="M655.5,300c2.2,0,4,1.3,4,3s-1.8,3-4,3
	s-4-1.3-4-3S653.3,300,655.5,300z"/>
<path fill="#FFFFFF" stroke="#000000" stroke-width="0.25" stroke-miterlimit="10" d="M654.5,280.7c2.4,0,4.3,1.9,4.3,4.3
	c0,2.4-1.899,4.3-4.3,4.3s-4.3-1.899-4.3-4.3C650.2,282.6,652.1,280.7,654.5,280.7z"/>
<path fill="#FFFFFF" stroke="#000000" stroke-miterlimit="10" d="M638.9,423.8c-2.101,0.7-4.5,1-6.9,1c-2.9,0-5.6-0.5-8.1-1.3
	c-3.801-1.3-7.101-3.7-9.101-6.8c-1.5-2.4-2.399-5.3-2.399-8.601c0-3,0.6-5.8,1.8-8.1c1.8-3.7,4.899-6.5,9-8.3l16.8-0.4v0.2
	c6,1.9,9.2,5.7,10.4,11.3c0.3,1.601,0.5,3.4,0.5,5.4c0,1.1-0.101,2.1-0.301,3.1C649.4,417.6,645,421.9,638.9,423.8z M644.8,408
	c0-7.4-6-13.3-13.3-13.3c-7.4,0-13.3,6-13.3,13.3s6,13.3,13.3,13.3C638.9,421.3,644.8,415.4,644.8,408z"/>
<path fill="#FFFFFF" stroke="#000000" stroke-width="0.25" stroke-miterlimit="10" d="M637.7,196.3c5.5,1.4,8.5,2.4,8.5,2.4
	c6.7,8.7-3.7,66.3-3.7,66.3v0.4l-45,0.7l-10,0.2l-27.1,0.4c0,0-2.4,1.3-4.9,3.3c2.7-52.6,33.3-81.3,33.3-81.3v-0.3
	C610.7,190,628,193.8,637.7,196.3z"/>
<path fill="#FFFFFF" stroke="#000000" stroke-miterlimit="10" d="M599.5,66.7l46.7,132c0,0-3-1-8.5-2.4c-2.8-8-44.9-131.7-48-139.3
	C596.4,59.3,599.5,66.7,599.5,66.7z"/>
<path fill="#FFFFFF" stroke="#000000" stroke-width="0.25" stroke-miterlimit="10" d="M640.2,348c2.6,0,4.7,1.6,4.7,3.7
	c0,2-2.101,3.7-4.7,3.7c-2.601,0-4.7-1.601-4.7-3.7C635.5,349.6,637.6,348,640.2,348z"/>
<path fill="#FFFFFF" stroke="#000000" stroke-miterlimit="10" d="M631.5,394.7c7.4,0,13.3,6,13.3,13.3s-6,13.3-13.3,13.3
	c-7.4,0-13.3-6-13.3-13.3S624.1,394.7,631.5,394.7z"/>
<path fill="#FFFFFF" stroke="#000000" stroke-width="0.25" stroke-miterlimit="10" d="M619.2,270.7c10.899,0,19.7,9.9,19.7,22
	c0,12.2-8.801,22-19.7,22c-6.5,0-12.2-3.5-15.8-8.8c-2.5-3.7-3.9-8.2-3.9-13.2s1.5-9.5,3.9-13.2C607,274.1,612.7,270.7,619.2,270.7z
	 M631.2,292.3c0-7.399-5.4-13.3-12-13.3c-6.601,0-12,6-12,13.3c0,7.4,5.399,13.3,12,13.3C625.8,305.6,631.2,299.7,631.2,292.3z"/>
<path fill="#FFFFFF" stroke="#000000" stroke-width="0.25" stroke-miterlimit="10" d="M619.2,279c6.6,0,12,6,12,13.3
	c0,7.4-5.4,13.3-12,13.3c-6.601,0-12-6-12-13.3S612.5,279,619.2,279z"/>
<path fill="#FFFFFF" stroke="#000000" stroke-width="0.25" stroke-miterlimit="10" d="M627,326v6c0,1.1-0.9,2-2,2h-27
	c-1.1,0-2-0.9-2-2v-6c0-1.1,0.9-2,2-2h27C626.1,324,627,324.9,627,326z"/>
<path fill="#FFFFFF" stroke="#000000" stroke-miterlimit="10" d="M623.9,423.4l-0.101,0.3l-79.5-0.8c0,0-3.3-0.5,1.3-6l0,0
	L613.9,416.6l0.899-0.1C616.8,419.8,620,422.1,623.9,423.4z"/>
<path fill="#FFFFFF" stroke="#000000" stroke-miterlimit="10" d="M548.2,393.3l74.899-1.8c-4,1.8-7.1,4.6-9,8.3l-0.8-0.399
	c0,0-51.399,2-65.1,1c-0.601-0.101-1.101-0.101-1.5-0.2C544.8,400.1,548.2,393.3,548.2,393.3L548.2,393.3z"/>
<path fill="#FFFFFF" stroke="#000000" stroke-width="0.25" stroke-miterlimit="10" d="M622.2,166.7c1.8,6.3,1,9.9-0.7,12
	c-0.7,0.9-1.6,1.5-2.5,1.9l-0.2-0.6c0,0-14.6-31.3-41.3-31.3l0,0v-21.3c-3.1-25.7-5.2-30.3-12.3-33.7l0.1-0.1
	c0,0,1.7-15.5-21.7-14.8c0,0-41.199-1.5-53.3,4c-7.7,3.5-6.7,7-8,30.7l-0.7,32c0,0-28.3,2.3-31,31l-7.5-0.2V176v-17
	c0,0-0.5-9.7-22.5-8.3c-13.5,0.8-18.8,1.1-20.8,1.3l0,0c-2.1-0.1-7.3-0.4-20.5-1.3c-22-1.3-23.1,8.3-23.1,8.3v17v0.1l-6.3,0.2
	c-2.7-28.7-31-31-31-31l-0.7-32c-1.3-23.7-0.4-27.2-8-30.7c-12.1-5.5-53.3-4-53.3-4C233.3,78,235,93.5,235,93.5l0,0
	c-7.3,3.4-9.3,7.8-12.4,33.8l0.1,21.3c-26.7,0-41.3,31.3-41.3,31.3l-1.1,0.2c-0.6-0.4-1.1-0.9-1.6-1.5c-1.7-2.1-2.4-5.7-0.7-12
	l32.7-92c0,0-1.3-8.7,19.3-10l176-6l164.2,6c20.7,1.3,19.3,10,19.3,10L622.2,166.7z"/>
<path fill="#FFFFFF" stroke="#000000" stroke-width="0.25" stroke-miterlimit="10" d="M618.8,179.9l0.2,0.6
	c-2.6,1.2-5.5,0.8-5.5,0.8l-14-0.4v-0.2c0,0-3.9-16.3-30.9-16.9l0.301-3.9l7.6,0.1l0.9-11.4C604.1,148.6,618.8,179.9,618.8,179.9z"
	/>
<path fill="#FFFFFF" stroke="#000000" stroke-miterlimit="10" d="M614.7,416.6l-0.9,0.101l-68.3,0.3h-2.7c0,0-4-1,3-7.7V408.9
	l66.5-1C612.3,411.3,613.2,414.2,614.7,416.6z"/>
<path fill="#FFFFFF" stroke="#000000" stroke-miterlimit="10" d="M214,56.3c1.3-0.1,2.6,0,4,0.3c0,0,181.8-10.3,194-8
	c36.5-1,170.2,8,170.2,8c1.399-0.3,2.8-0.4,4-0.3c1.3,0.1,2.399,0.3,3.5,0.7c3.2,7.6,45.3,131.2,48,139.3c-9.7-2.5-27-6.3-48.8-7.9
	c-2.5-0.2-5.2-0.4-7.801-0.5c-9.6-0.5-20-0.5-30.899,0.2L400.1,183.5L250,188c-10.9-0.7-21.2-0.6-30.9-0.2c-2.7,0.1-5.3,0.3-7.8,0.5
	c-21.8,1.7-39.2,5.4-48.8,7.9c2.8-8,44.9-131.7,48-139.3C211.6,56.6,212.7,56.4,214,56.3z M621.5,178.6c1.7-2.1,2.4-5.7,0.7-12
	l-32.7-92c0,0,1.3-8.7-19.3-10l-164.2-6l-176,6c-20.7,1.3-19.3,10-19.3,10l-32.7,92c-1.8,6.3-1,9.9,0.7,12c0.5,0.6,1,1.1,1.6,1.5
	c2.8,1.8,6.4,1.3,6.4,1.3l14-0.4l124.7-3.8l24.3-0.8l6.3-0.2l44.1-1.4l42.9,1.3l7.5,0.2l24.3,0.8l124.7,3.8l14,0.4
	c0,0,2.9,0.4,5.5-0.8C619.9,180.1,620.8,179.5,621.5,178.6z"/>
<path fill="#FFFFFF" stroke="#000000" stroke-miterlimit="10" d="M613.3,399.5l0.8,0.4c-1.199,2.399-1.8,5.1-1.8,8.1l-66.5,1h-2
	c0,0-5-2,4.3-8.3v-0.2C561.9,401.5,613.3,399.5,613.3,399.5z"/>
<path fill="#FFFFFF" stroke="#000000" stroke-width="0.25" stroke-miterlimit="10" d="M602.8,279.3l0.601,0.2
	c-2.5,3.7-3.9,8.2-3.9,13.2s1.5,9.5,3.9,13.2L602.8,306.1l-4,12.601l-10.7,0.1l8.7-14c-5.3-13.3-0.7-22-0.7-22l-8.699-16v-0.4
	l10-0.2L602.8,279.3z"/>
<path fill="#FFFFFF" stroke="#000000" stroke-width="0.25" stroke-miterlimit="10" d="M568.6,163.8c27,0.6,30.9,16.9,30.9,16.9v0.2
	l-124.7-3.8v-0.4c1.3-6.7,9.3-12,9.3-12l14.801-0.1l7.5-0.1l54.3-0.5c0.7-0.1,1.5-0.1,2.2-0.1C565,163.8,566.8,163.7,568.6,163.8z"
	/>
<path fill="#FFFFFF" stroke="#000000" stroke-width="0.25" stroke-miterlimit="10" d="M555.5,270c2.5-2,4.9-3.3,4.9-3.3l27.1-0.4
	v0.4l8.7,16c0,0-4.7,8.7,0.7,22l-8.7,14L550,319v-39c-0.3-0.8-0.3-1.7-0.1-2.5C550.4,274.6,553,271.9,555.5,270z M591.5,291.3
	c0-12.5-8.5-21.3-19-21.3s-19,8.8-19,21.3s8.2,20.7,18.7,20.7S591.5,303.8,591.5,291.3z"/>
<polygon fill="#FFFFFF" stroke="#000000" stroke-miterlimit="10" points="591.2,442 590.8,453.7 590.8,454.8 559.2,454.8 
	559.2,453.7 559.5,442 "/>
<path fill="#FFFFFF" stroke="#000000" stroke-width="0.25" stroke-miterlimit="10" d="M588.9,188.3v0.3c0,0-30.601,28.6-33.301,81.3
	c-2.5,2-5.1,4.7-5.6,7.6l-10.7,0.1l5-30.9c3.101-19.3,32.9-54.2,36.9-58.8C583.7,188,586.3,188.1,588.9,188.3z"/>
<path fill="#FFFFFF" stroke="#000000" stroke-width="0.25" stroke-miterlimit="10" d="M572.5,270c10.5,0,19,8.8,19,21.3
	s-8.8,20.7-19.3,20.7s-18.7-8.2-18.7-20.7S562,270,572.5,270z M588.2,291c0-9-7.2-16.3-16-16.3s-16,7.3-16,16.3s7.2,16.3,16,16.3
	S588.2,300,588.2,291z"/>
<path fill="#FFFFFF" stroke="#000000" stroke-miterlimit="10" d="M570.4,21.8l15.8,34.6c-1.3-0.1-2.601,0-4,0.3
	c0,0-133.7-8.9-170.2-8c-12.2-2.3-194,8-194,8c-1.4-0.3-2.8-0.4-4-0.3l15.8-34.5C280.4,17,412,14,412,14
	C452.3,15.1,533.2,18.1,570.4,21.8z"/>
<path fill="#FFFFFF" stroke="#000000" stroke-width="0.25" stroke-miterlimit="10" d="M572.2,274.7c8.8,0,16,7.3,16,16.3
	s-7.2,16.3-16,16.3s-16-7.3-16-16.3S563.3,274.7,572.2,274.7z M577.5,290.7c0-2.2-2.1-4-4.7-4c-2.6,0-4.7,1.8-4.7,4s2.101,4,4.7,4
	C575.4,294.7,577.5,292.9,577.5,290.7z"/>
<path fill="#FFFFFF" stroke="#000000" stroke-width="0.25" stroke-miterlimit="10" d="M572.8,286.7c2.601,0,4.7,1.8,4.7,4
	s-2.1,4-4.7,4c-2.6,0-4.7-1.8-4.7-4S570.3,286.7,572.8,286.7z"/>
<path fill="#FFFFFF" stroke="#000000" stroke-width="0.25" stroke-miterlimit="10" d="M550.2,188c10.899-0.7,21.2-0.6,30.899-0.2
	c-4,4.6-33.8,39.6-36.899,58.8l-5,30.9l-5.9,0.1l0.2-6.3c0,0,0.7-9.3-24-9.3l-109,0.6h-0.9l-109-0.6c-24.7,0-24,9.3-24,9.3l0.2,6.3
	l-5.9-0.1l-5-30.9c-3.1-19.3-32.9-54.2-36.9-58.8c9.6-0.5,20-0.5,30.9,0.2l150.1-4.6L550.2,188z"/>
<path fill="#FFFFFF" stroke="#000000" stroke-width="0.25" stroke-miterlimit="10" d="M568.9,159.9l-0.301,3.9c-1.8,0-3.6,0-5.6,0.1
	V160v-0.1H568.9z"/>
<path fill="#FFFFFF" stroke="#000000" stroke-width="0.25" stroke-miterlimit="10" d="M563,160v3.9c-0.7,0-1.4,0.1-2.2,0.1
	l-54.3,0.5V164l0.5-4.5l0,0l56,0.4V160z"/>
<path fill="#FFFFFF" stroke="#000000" stroke-miterlimit="10" d="M559.5,442l-0.3,11.7v1.1l-36-0.1V454l0.3-7.3v-0.3
	c12.5-2,14.7-4.4,14.7-4.4H559.5L559.5,442z"/>
<path fill="#FFFFFF" stroke="#000000" stroke-width="0.25" stroke-miterlimit="10" d="M556.7,346l0.2,15.1l-18,0.2c0,0-4-5.3-4-8.7
	l0.399-6.699h21.4V346z"/>
<polygon fill="#FFFFFF" stroke="#000000" stroke-width="0.25" stroke-miterlimit="10" points="539.2,277.6 532.2,321.3 533.3,277.7 
	"/>
<path fill="#FFFFFF" stroke="#000000" stroke-miterlimit="10" d="M266.8,277.7l-0.2-6.3c0,0-0.7-9.3,24-9.3l109,0.6h0.9l109-0.6
	c24.7,0,24,9.3,24,9.3l-0.2,6.3l-1.2,43.7c-2,2-2.699,5.3-2.699,5.3l-129.101-1h-0.5l-129.1,1c0,0-0.7-3.3-2.7-5.3L266.8,277.7z
	 M400.1,269.3L281.3,272c0,0-4,3.3-5.3,7.3c0,0-2.7,0.7-0.7,3.3l7.4-0.1c-2.5,2.3-11.5,11-8.1,12.8l7.3-0.1c0,0-9.3,11.5-5.3,11.5
	h6.7c0,0-8.7,10.7-4,11.399l120.2-0.3h1.2l120.2,0.3c4.699-0.699-4-11.399-4-11.399h6.699c4,0-5.3-11.5-5.3-11.5l7.3,0.1
	c3.5-1.7-5.6-10.5-8.1-12.8l7.4,0.1c2-2.7-0.7-3.3-0.7-3.3c-1.3-4-5.3-7.3-5.3-7.3L400.1,269.3z"/>
<path fill="#FFFFFF" stroke="#000000" stroke-miterlimit="10" d="M282.7,282.6l-7.4,0.1c-2-2.7,0.7-3.3,0.7-3.3
	c1.3-4,5.3-7.3,5.3-7.3l118.8-2.7l118.801,2.7c0,0,4,3.3,5.3,7.3c0,0,2.7,0.7,0.7,3.3l-7.4-0.1l-78.5-1.2
	c-6.3-6.6-15.8-5.8-15.8-5.8l-22.8-0.2h-0.5l-22.801,0.2c0,0-9.5-0.8-15.8,5.8L282.7,282.6z"/>
<path fill="#FFFFFF" stroke="#000000" stroke-miterlimit="10" d="M518.2,295.2c0,0,9.3,11.5,5.3,11.5h-6.7l-77.6-0.601
	c4-3.8,4.8-8.8,4.899-11L518.2,295.2z"/>
<path fill="#FFFFFF" stroke="#000000" stroke-miterlimit="10" d="M523.5,446.4v0.3l-0.3,7.3v0.7l-33-0.101v-1l0.3-6.899l29,0.2
	C520.9,446.7,522.2,446.6,523.5,446.4z"/>
<path fill="#FFFFFF" stroke="#000000" stroke-miterlimit="10" d="M400.1,440L296,441.3c0,0-4.7,4-14.7-16.7l-2.7-32l121,0.601h0.801
	l121-0.601l-2.7,32c-10,20.7-14.7,16.7-14.7,16.7L400.1,440z M512.5,416.7c0,0,4.5-2.3-3-9.7h1c5.3,0-1.3-8.7-1.3-8.7L400.7,398
	h-1.2L291,398.3c0,0-6.7,8.7-1.3,8.7h1c-7.5,7.4-3,9.7-3,9.7h2.4c-1.4,1.899-7.3,10.8-0.8,11.7h3c-0.3,0.399-7,11,10,9.699
	L399,437.4h2.2l96.7,0.699c17,1.301,10.3-9.199,10-9.699h3c6.5-0.9,0.6-9.801-0.801-11.7H512.5z"/>
<path fill="#FFFFFF" stroke="#000000" stroke-miterlimit="10" d="M400.1,311l22.101-0.5c8.6,0.8,13.899-1.5,17-4.5l77.6,0.6
	c0,0,8.7,10.7,4,11.4l-120.2-0.3H399.4L279.3,318c-4.7-0.7,4-11.4,4-11.4L361,306c3.2,3,8.4,5.3,17,4.5L400.1,311z"/>
<path fill="#FFFFFF" stroke="#000000" stroke-miterlimit="10" d="M290.1,416.7h-2.4c0,0-4.5-2.3,3-9.7l109.399,1l109.4-1
	c7.5,7.4,3,9.7,3,9.7h-2.4L400.7,417h-1.2L290.1,416.7z"/>
<path fill="#FFFFFF" stroke="#000000" stroke-miterlimit="10" d="M292.3,428.3h-3c-6.6-0.899-0.6-9.8,0.8-11.7l109.4,0.301h1.2
	L510.1,416.6c1.4,1.9,7.301,10.801,0.801,11.7h-3L400.1,428.6L292.3,428.3z"/>
<path fill="#FFFFFF" stroke="#000000" stroke-miterlimit="10" d="M290.7,407h-1c-5.3,0,1.3-8.7,1.3-8.7l108.5-0.3h1.2l108.5,0.3
	c0,0,6.7,8.7,1.3,8.7h-1l-109.4,1L290.7,407z"/>
<path fill="#FFFFFF" stroke="#000000" stroke-miterlimit="10" d="M400.1,428.7l107.801-0.3c0.3,0.399,7,11-10,9.699l-96.7-0.699H399
	l-96.7,0.699c-17,1.301-10.3-9.199-10-9.699L400.1,428.7z"/>
<polygon fill="#FFFFFF" stroke="#000000" stroke-width="0.25" stroke-miterlimit="10" points="507,159.5 507,159.5 506.5,164 
	506.5,164.5 499,164.5 499,164 499,159.4 "/>
<path fill="#FFFFFF" stroke="#000000" stroke-miterlimit="10" d="M494.5,346c4.2,0,7.7,2.8,7.7,6.3s-3.4,6.3-7.7,6.3
	c-4.2,0-7.7-2.8-7.7-6.3S490.3,346,494.5,346z"/>
<path fill="#FFFFFF" stroke="#000000" stroke-width="0.25" stroke-miterlimit="10" d="M499,164v0.5l-14.8,0.1c0,0-8,5.3-9.3,12v0.4
	l-24.301-0.8c2.7-28.7,31-31,31-31l9.5,0.6v13.4l8,0.1v4.7H499z"/>
<polygon fill="#FFFFFF" stroke="#000000" stroke-miterlimit="10" points="490.5,446.8 490.2,453.7 490.2,454.6 452.5,454.6 
	452.3,446.5 "/>
<path fill="#FFFFFF" stroke="#000000" stroke-miterlimit="10" d="M482,344.5v42c0,1.1-0.2,2.5-1.3,2.5H400h-80.5
	c-1.1,0-2.5-1.4-2.5-2.5v-42c0-1.1,1.4-1.5,2.5-1.5H400h80.7C481.8,343,482,343.4,482,344.5z"/>
<polygon fill="#FFFFFF" stroke="#000000" stroke-miterlimit="10" points="452.3,446.5 452.5,454.6 414.2,454.5 414.7,446.3 "/>
<path fill="#FFFFFF" stroke="#000000" stroke-width="0.25" stroke-miterlimit="10" d="M399.7,151.9c2.1-0.1,7.3-0.4,20.8-1.3
	c22-1.3,22.5,8.3,22.5,8.3v17v0.1l-42.9-1.3l-44.1,1.4V176v-17c0,0,1.1-9.7,23.1-8.3C392.3,151.5,397.6,151.8,399.7,151.9
	C399.6,151.9,399.6,151.9,399.7,151.9z"/>
<path fill="#FFFFFF" stroke="#000000" stroke-miterlimit="10" d="M414.7,446.3l-0.5,8.2H401h-1.8c0-2.8,0.1-5.4,0.1-8.2H414.7z"/>
<path fill="#FFFFFF" stroke="#000000" stroke-miterlimit="10" d="M399.3,446.1v0.2c0,2.8-0.1,5.4-0.1,8.2H386l-0.5-8.3L399.3,446.1z
	"/>
<polygon fill="#FFFFFF" stroke="#000000" stroke-miterlimit="10" points="385.5,446.2 386,454.5 347.7,454.6 347.8,446.5 "/>
<path fill="#FFFFFF" stroke="#000000" stroke-miterlimit="10" d="M361,306l-77.6,0.6h-6.7c-4,0,5.3-11.5,5.3-11.5l74-0.199
	C356.2,297.2,357,302.2,361,306z"/>
<path fill="#FFFFFF" stroke="#000000" stroke-width="0.25" stroke-miterlimit="10" d="M349.7,176.3l-24.3,0.8v-0.4
	c-1.301-6.7-9.301-12-9.301-12l-23-0.2V160v-0.6l15-0.1V146l10.7-0.7C318.7,145.3,347,147.7,349.7,176.3z"/>
<polygon fill="#FFFFFF" stroke="#000000" stroke-miterlimit="10" points="347.8,446.5 347.7,454.6 310,454.6 310,453.7 309.7,446.7 
	"/>
<path fill="#FFFFFF" stroke="#000000" stroke-width="0.25" stroke-miterlimit="10" d="M318,113.3l0.7,32L308,146v-17
	c0,0,3.3-30.4-8.9-34c-15.3-4.6-53.9-5.8-62.9-2c-0.4,0.2-0.8,0.4-1.2,0.5l0,0c0,0-1.7-15.5,21.7-14.8c0,0,41.2-1.5,53.3,4
	C317.6,86.1,316.7,89.7,318,113.3z"/>
<path fill="#FFFFFF" stroke="#000000" stroke-miterlimit="10" d="M305.7,346c4.2,0,7.7,2.8,7.7,6.3s-3.4,6.3-7.7,6.3
	c-4.2,0-7.7-2.8-7.7-6.3S301.4,346,305.7,346z"/>
<path fill="#FFFFFF" stroke="#000000" stroke-miterlimit="10" d="M310,453.7v1l-33,0.1V454l-0.3-7.3l0.1-0.3
	c1.2,0.199,2.5,0.399,3.9,0.5l29-0.2L310,453.7z"/>
<polygon fill="#FFFFFF" stroke="#000000" stroke-width="0.25" stroke-miterlimit="10" points="293,160 293,164.5 287,164.4 287,164 
	287,160 287,159.5 293,159.4 "/>
<polygon fill="#FFFFFF" stroke="#000000" stroke-width="0.25" stroke-miterlimit="10" points="287,164 287,164.4 239.3,164 
	240,159.9 287,159.5 287,160 "/>
<path fill="#FFFFFF" stroke="#000000" stroke-miterlimit="10" d="M277,454v0.7l-36,0.1v-1.1l-0.3-11.7H262c0,0,2.2,2.4,14.7,4.4
	l-0.1,0.3L277,454z"/>
<polygon fill="#FFFFFF" stroke="#000000" stroke-width="0.25" stroke-miterlimit="10" points="266.8,277.7 268,321.3 261,277.6 "/>
<path fill="#FFFFFF" stroke="#000000" stroke-width="0.25" stroke-miterlimit="10" d="M264.9,346l0.4,6.7c0,3.3-4,8.7-4,8.7l-18-0.2
	l0.2-15.101h21.4V346z"/>
<path fill="#FFFFFF" stroke="#000000" stroke-width="0.25" stroke-miterlimit="10" d="M264.7,342.7l0.2,3.3h-21.4h-0.2H131.7
	l0.3-6.7l132,0.7h0.1C264.7,341.3,264.7,342.7,264.7,342.7z"/>
<path fill="#FFFFFF" stroke="#000000" stroke-width="0.25" stroke-miterlimit="10" d="M264.1,340H264l-132-0.7c-1.3-2.7,4-5.3,4-5.3
	l122.7,3.3C262,336.6,263.5,338.3,264.1,340z"/>
<path fill="#FFFFFF" stroke="#000000" stroke-width="0.25" stroke-miterlimit="10" d="M256,246.7l5,30.9l-11.8-0.1
	c-0.4-2.7-2.7-5.3-5-7.2l0.5-0.3c-2.7-52.7-33.3-81.3-33.3-81.3v-0.3c2.5-0.2,5.2-0.4,7.8-0.5C223.1,192.5,252.9,227.4,256,246.7z"
	/>
<path fill="#FFFFFF" stroke="#000000" stroke-miterlimit="10" d="M253.3,393.3c14,10,5.3,34,5.3,34l-110,0.7
	c-16.4-5.3-20.7-25-21.8-37.7l8.8,0.2v0.5c0,0-6,9.7-2.3,11l3.3,0.1c0,0-3.7,8.9-1,9.9l5.6-0.3l0.1,1.3c0,0-2,8,2.7,7h2.8
	c-0.4,1.1-1,3.9,1.9,4.7l15.8,0.1v-0.3c1.6,0.2,3.2,0.3,5,0.3c1.6,0,3.2-0.2,4.6-0.5l82.6-0.3c0,0,2-2.8-2.1-7l0,0h2.7
	c0,0,4-1-3-7.7V408.9h2c0,0,5-2-4.3-8.301V400.4c0.6-0.101,1.1-0.101,1.5-0.2c1.8-0.2-1.5-7-1.5-7l0,0L253.3,393.3z"/>
<path fill="#FFFFFF" stroke="#000000" stroke-miterlimit="10" d="M254.3,409.3c7,6.7,3,7.7,3,7.7h-2.7l-68.3-0.3l-0.6-0.101
	c1.4-2.399,2.1-5.199,2.1-8.5l66.5,1V409.3z"/>
<path fill="#FFFFFF" stroke="#000000" stroke-miterlimit="10" d="M254.7,417c4.1,4.3,2.1,7,2.1,7l-82.6,0.3c5.1-1,9.3-3.7,11.6-7.7
	l0.6,0.101L254.7,417L254.7,417z"/>
<path fill="#FFFFFF" stroke="#000000" stroke-miterlimit="10" d="M252,400.7c9.3,6.3,4.3,8.3,4.3,8.3h-2l-66.5-1
	c0-3-0.6-5.8-1.8-8.1l0.8-0.4c0,0,51.4,2,65.1,1L252,400.7z"/>
<path fill="#FFFFFF" stroke="#000000" stroke-miterlimit="10" d="M252,393.3c0,0,3.3,6.8,1.5,7c-0.4,0-0.9,0.101-1.5,0.2
	c-13.7,1-65.1-1-65.1-1l-0.8,0.4c-1.8-3.7-4.9-6.5-9-8.301L252,393.3L252,393.3z"/>
<path fill="#FFFFFF" stroke="#000000" stroke-width="0.25" stroke-miterlimit="10" d="M249.1,277.5c0.1,0.8,0.1,1.7-0.1,2.5v39
	l-37-0.3l0,0l-8.7-14c3.7-6.7,0.7-22,0.7-22l8.7-16v-0.4l26.5,0.4c0,0,2.5,1.4,5,3.6C246.4,272.2,248.7,274.8,249.1,277.5z M228,312
	c10.5,0,18.7-8.2,18.7-20.7s-8.5-21.3-19-21.3s-19,8.3-19,20.8S217.5,312,228,312z"/>
<path fill="#FFFFFF" stroke="#000000" stroke-width="0.25" stroke-miterlimit="10" d="M202.6,266.1l-45-0.7V265
	c0,0-10.3-57.7-3.7-66.3c0,0,3-1,8.5-2.4c9.7-2.5,27-6.3,48.8-7.9v0.3c0,0,30.7,28.7,33.3,81.3l-0.5,0.3c-2.5-2.2-5-3.6-5-3.6
	l-26.5-0.4L202.6,266.1z"/>
<path fill="#FFFFFF" stroke="#000000" stroke-width="0.25" stroke-miterlimit="10" d="M243.5,346l-0.2,15.1L142.7,360
	c-10.7-0.7-11.3-6-11.3-6l0.4-8h111.6H243.5z M164.7,351.7c0-2-2.1-3.7-4.7-3.7s-4.7,1.6-4.7,3.7c0,2,2.1,3.7,4.7,3.7
	S164.7,353.7,164.7,351.7z"/>
<path fill="#FFFFFF" stroke="#000000" stroke-width="0.25" stroke-miterlimit="10" d="M246.7,291.3c0,12.5-8.2,20.7-18.7,20.7
	s-19.3-8.7-19.3-21.2s8.5-20.8,19-20.8S246.7,278.8,246.7,291.3z M244,291c0-9-7.2-16.3-16-16.3s-15.7,6.8-15.7,15.8
	s6.8,16.8,15.7,16.8S244,300,244,291z"/>
<polygon fill="#FFFFFF" stroke="#000000" stroke-miterlimit="10" points="241,453.7 241,454.8 209.3,454.8 209.3,453.7 209,442 
	240.7,442 "/>
<path fill="#FFFFFF" stroke="#000000" stroke-width="0.25" stroke-miterlimit="10" d="M228,274.7c8.8,0,16,7.3,16,16.3
	s-7.2,16.3-16,16.3s-15.7-7.8-15.7-16.8S219.2,274.7,228,274.7z M232,290.7c0-2.2-2.1-4-4.7-4c-2.6,0-4.7,1.8-4.7,4s2.1,4,4.7,4
	C229.9,294.7,232,292.9,232,290.7z"/>
<path fill="#FFFFFF" stroke="#000000" stroke-width="0.25" stroke-miterlimit="10" d="M227.3,286.7c2.6,0,4.7,1.8,4.7,4
	s-2.1,4-4.7,4c-2.6,0-4.7-1.8-4.7-4S224.8,286.7,227.3,286.7z"/>
<path fill="#FFFFFF" stroke="#000000" stroke-miterlimit="10" d="M210.5,57c-6.8,2.3-9.8,9.7-9.8,9.7l-46.7,132l-15-0.3v-0.1
	c0,0,51.7-129,63.7-163.7l-0.3-0.3c6.3-7.6,11-10.4,11-10.4c3.3-0.8,9-1.5,16.5-2.2L214,56.3C212.7,56.4,211.6,56.6,210.5,57z"/>
<path fill="#FFFFFF" stroke="#000000" stroke-width="0.25" stroke-miterlimit="10" d="M212.7,266.3v0.4l-8.7,16c0,0,3,15.3-0.7,22
	l8.7,14l0,0l-10.7-0.101l-4-12.6l-0.6-0.2c2.5-3.7,3.9-8.2,3.9-13.2s-1.4-9.5-3.9-13.2l0.6-0.2l5.3-13.2L212.7,266.3z"/>
<path fill="#FFFFFF" stroke="#000000" stroke-miterlimit="10" d="M209.3,453.7v1.2l-56.7,0.1c0,0-9.3-6.9-11.7-12.9h68L209.3,453.7z
	"/>
<path fill="#FFFFFF" stroke="#000000" stroke-width="0.25" stroke-miterlimit="10" d="M203,326v6c0,1.1-0.9,2-2,2h-27
	c-1.1,0-2-0.9-2-2v-6c0-1.1,0.9-2,2-2h27C202.1,324,203,324.9,203,326z"/>
<path fill="#FFFFFF" stroke="#000000" stroke-miterlimit="10" d="M202.4,34.4l0.3,0.3c-12,34.7-63.7,163.7-63.7,163.7v0.1l-21.7-0.4
	l22-26.7C144.7,169.3,186,62,186,62C191.5,49.2,197.5,40.3,202.4,34.4z"/>
<path fill="#FFFFFF" stroke="#000000" stroke-width="0.25" stroke-miterlimit="10" d="M202.6,266.1l-5.3,13.2l-0.6,0.2
	c-3.6-5.4-9.3-8.8-15.8-8.8c-10.9,0-19.7,9.9-19.7,22c0,12.2,8.8,22,19.7,22c6.5,0,12.2-3.5,15.8-8.8l0.6,0.199l4,12.601
	l-68.9-0.601l1-45c0,0,3.2-6.3,19.9-7.7l4.4,0.1L202.6,266.1z M150,285c0-2.4-1.9-4.3-4.3-4.3c-2.4,0-4.3,1.9-4.3,4.3
	c0,2.4,1.9,4.3,4.3,4.3C148.1,289.3,150,287.4,150,285z M148.7,303c0-1.7-1.8-3-4-3c-2.2,0-4,1.3-4,3s1.8,3,4,3
	C146.9,306,148.7,304.7,148.7,303z"/>
<path fill="#FFFFFF" stroke="#000000" stroke-miterlimit="10" d="M200.7,66.7c0,0,3.1-7.3,9.8-9.7c-3.2,7.6-45.3,131.2-48,139.3
	c-5.5,1.4-8.5,2.4-8.5,2.4L200.7,66.7z"/>
<path fill="#FFFFFF" stroke="#000000" stroke-width="0.25" stroke-miterlimit="10" d="M196.8,279.5c2.5,3.7,3.9,8.2,3.9,13.2
	s-1.4,9.5-3.9,13.2c-3.6,5.399-9.3,8.8-15.8,8.8c-10.9,0-19.7-9.8-19.7-22c0-12.1,8.8-22,19.7-22
	C187.5,270.7,193.2,274.1,196.8,279.5z M193,292.3c0-7.399-5.4-13.3-12-13.3s-12,6-12,13.3c0,7.4,5.4,13.3,12,13.3
	S193,299.7,193,292.3z"/>
<path fill="#FFFFFF" stroke="#000000" stroke-width="0.25" stroke-miterlimit="10" d="M181,279c6.6,0,12,6,12,13.3
	c0,7.4-5.4,13.3-12,13.3s-12-6-12-13.3S174.4,279,181,279z"/>
<path fill="#FFFFFF" stroke="#000000" stroke-miterlimit="10" d="M174.1,424.3c-1.5,0.3-3,0.5-4.6,0.5c-1.7,0-3.4-0.1-5-0.3
	c-4.5-0.7-8.3-2.5-10.9-5.3c-2-2.101-3.4-4.8-3.9-8c-0.2-1-0.3-2.101-0.3-3.2c0-2,0.2-3.8,0.5-5.4c1.2-5.6,4.4-9.3,10.4-11.3v-0.2
	l16.8,0.4c4,1.8,7.1,4.6,9,8.3c1.2,2.4,1.8,5.101,1.8,8.101c0,3.3-0.8,6.199-2.1,8.5C183.4,420.6,179.3,423.2,174.1,424.3z M182,408
	c0-7.4-6-13.3-13.3-13.3c-7.4,0-13.3,6-13.3,13.3s6,13.3,13.3,13.3C176,421.3,182,415.4,182,408z"/>
<path fill="#FFFFFF" stroke="#000000" stroke-miterlimit="10" d="M182,478.8v0.5l-2,48.7c0,0-9.3,15.3-22.7,16.7l-43.3-1.3
	c0,0-14.7-7.301-13.3-20L97,303l2.8-5c2.9,14.4,6.8,41.8,8.7,90c0,0-1.9,92.7,47.4,90.7L182,478.8z"/>
<path fill="#FFFFFF" stroke="#000000" stroke-miterlimit="10" d="M168.7,394.7c7.4,0,13.3,6,13.3,13.3s-6,13.3-13.3,13.3
	c-7.4,0-13.3-6-13.3-13.3S161.3,394.7,168.7,394.7z"/>
<path fill="#FFFFFF" stroke="#000000" stroke-miterlimit="10" d="M164.5,424.4v0.3l-15.8-0.101c-2.9-0.8-2.3-3.5-1.9-4.699h0.2h6
	l0.7-0.9C156.3,421.9,160,423.7,164.5,424.4z"/>
<path fill="#FFFFFF" stroke="#000000" stroke-width="0.25" stroke-miterlimit="10" d="M160,348c2.6,0,4.7,1.6,4.7,3.7
	c0,2-2.1,3.7-4.7,3.7s-4.7-1.601-4.7-3.7C155.3,349.6,157.4,348,160,348z"/>
<path fill="#FFFFFF" stroke="#000000" stroke-miterlimit="10" d="M160.3,391.1v0.2c-6,1.9-9.2,5.7-10.4,11.3l-1.3-0.3l-12-0.3
	l-3.3-0.1c-3.7-1.301,2.3-11,2.3-11v-0.5L160.3,391.1z"/>
<path fill="#FFFFFF" stroke="#000000" stroke-miterlimit="10" d="M146.8,420H144c-4.7,1-2.7-7-2.7-7l-0.1-1.3l7.4-0.4l1.1-0.2
	c0.5,3.2,1.9,5.801,3.9,8L153,420h-6H146.8z"/>
<path fill="#FFFFFF" stroke="#000000" stroke-miterlimit="10" d="M148.7,402.3l1.3,0.3c-0.3,1.601-0.5,3.4-0.5,5.4
	c0,1.1,0.1,2.2,0.3,3.2l-1.1,0.2l-7.4,0.399l-5.6,0.3c-2.7-1,1-9.899,1-9.899L148.7,402.3z"/>
<path fill="#FFFFFF" stroke="#000000" stroke-width="0.25" stroke-miterlimit="10" d="M145.7,280.7c2.4,0,4.3,1.9,4.3,4.3
	c0,2.4-1.9,4.3-4.3,4.3c-2.4,0-4.3-1.899-4.3-4.3C141.3,282.6,143.3,280.7,145.7,280.7z"/>
<path fill="#FFFFFF" stroke="#000000" stroke-width="0.25" stroke-miterlimit="10" d="M144.7,300c2.2,0,4,1.3,4,3s-1.8,3-4,3
	c-2.2,0-4-1.3-4-3S142.5,300,144.7,300z"/>
<path fill="#FFFFFF" stroke="#000000" stroke-miterlimit="10" d="M137.3,155l2.1,16.3l-22,26.7l-26.7-2.7C71.3,192.7,76,180,76,180
	c2-31.3,36-31.3,36-31.3l20-0.7C139.3,146.7,137.3,155,137.3,155z"/>
<path fill="#FFFFFF" stroke="#000000" stroke-miterlimit="10" d="M117.3,198c0,0,1.8,17,4.3,32.8c-3.2,2-13.3,16-19.8,25.4
	C108.5,209.8,117.3,198,117.3,198z"/>
<path fill="none" stroke="#000000" stroke-width="0.5" stroke-miterlimit="10" d="M120,230c0,0,13,17,14,40"/>
<path fill="none" stroke="#000000" stroke-width="0.5" stroke-miterlimit="10" d="M663,272c0,0,0-18,15-41"/>
</svg>
