<?xml version="1.0" encoding="utf-8"?>
<!-- Generator: Adobe Illustrator 15.0.0, SVG Export Plug-In . SVG Version: 6.00 Build 0)  -->
<!DOCTYPE svg PUBLIC "-//W3C//DTD SVG 1.1//EN" "http://www.w3.org/Graphics/SVG/1.1/DTD/svg11.dtd">
<svg version="1.1" id="Layer_1" xmlns="http://www.w3.org/2000/svg" xmlns:xlink="http://www.w3.org/1999/xlink" x="0px" y="0px"
	 width="567px" height="822px" viewBox="0 0 567 822" enable-background="new 0 0 567 822" xml:space="preserve">
<path fill="#FFFFFF" stroke="#000000" stroke-miterlimit="10" d="M390.6,181.7c10.5,0,17.5-2.4,22.301-5.7
	c-13.601,26.4-30.2,13.7-30.801,13.3C384.8,187.6,387.6,185.1,390.6,181.7z"/>
<path fill="#FFFFFF" stroke="#000000" stroke-miterlimit="10" d="M390.6,152.4c4.301,0.2,6.9,7.6-4.6,19.3c0,0-13.6,0.4-17.3-7.3
	c-1.601-3.3,4.5-8.2,13.7-3.4C382.4,161,385,152.1,390.6,152.4z"/>
<path fill="#FFFFFF" stroke="#000000" stroke-miterlimit="10" d="M435.7,112.7c0,0,0.2,4.8-3.9,9.5c-0.2,0.3-0.399,0.5-0.7,0.7
	c-2.8-0.1-11.1-4.7-3.8-16.8c0.2-0.1,0.4-0.2,0.5-0.2C427.9,105.9,434.4,100,435.7,112.7z"/>
<path fill="#FFFFFF" stroke="#000000" stroke-miterlimit="10" d="M340.6,153.7v0.6c0,0-6.899,9.4,2.9,11.4
	c-18,9.1-25.9-7.7-25.9-7.7C326.2,155.3,334.1,154.1,340.6,153.7z"/>
<path fill="#FFFFFF" stroke="#000000" stroke-miterlimit="10" d="M340.6,153.7c10.601-0.7,17.4,0.6,17.4,0.6
	c-5.4,5.6-10.2,9.3-14.5,11.4c-9.7-2-2.9-11.4-2.9-11.4V153.7z"/>
<path fill="#FFFFFF" stroke="#000000" stroke-miterlimit="10" d="M437.7,11.7c0,0,9.3,42.9,2.8,56.8C398,53.2,437.7,11.7,437.7,11.7
	z"/>
<path fill="#FFFFFF" stroke="#000000" stroke-miterlimit="10" d="M269.7,81c35.2,12.7,39.1,24.1,32,42c-1.101,2.6-2.3,5.2-3.7,7.7
	C276.4,126.4,269.7,81,269.7,81z"/>
<path fill="#FFFFFF" stroke="#000000" stroke-miterlimit="10" d="M427.4,106.1c-7.301,12.1,1,16.7,3.8,16.8
	c-4.3,4.4-12.101,8.4-27.8,13C403.3,135.9,412.9,112.9,427.4,106.1z"/>
<path fill="#FFFFFF" stroke="#000000" stroke-miterlimit="10" d="M412.9,176c-4.7,3.4-11.801,5.7-22.301,5.7
	c-3,3.4-5.899,5.8-8.5,7.6C382.6,189.7,399.3,202.4,412.9,176z M431.2,122.9c0.2-0.2,0.5-0.5,0.7-0.7c4.1-4.8,3.899-9.5,3.899-9.5
	c-1.3-12.7-7.8-6.8-7.8-6.8c-0.2,0.1-0.4,0.2-0.5,0.2c-14.5,6.7-24.1,29.8-24.1,29.8C419,131.3,426.9,127.4,431.2,122.9z
	 M383.2,220.5c-6.101-2.1-10.9-4.2-19.3-5.6c-6.801-1.1-16-1.8-30.101-1.7c-3.7,0-7.7,0.1-12.1,0.3c0,0-35.101-3.5-16.5-11.3
	c0,0-31.6,0.9-28.1-9.5l10-6.1c0,0-17.6-0.3-18.5-7.2c0,0,9.8-3.2,21.1-11.8c0,0-25,2.5-22.4-1.9c0,0,19.8-15.3,30.7-35
	c1.4-2.5,2.7-5.1,3.7-7.7c7.1-18,3.3-29.3-32-42c0,0,24.899-10.4,56.6-11.3c0,0,15.4-29.4,59.7-18c0,0,19.9-40.1,51.7-40
	c0,0-39.7,41.5,2.8,56.8c9,3.2,21.6,5.3,39,5.5l-13,13.9c0,0,13.8-2.6,22.5,0l-17.3,14.3c0.7-0.1,15.8-3,25.1-0.4
	c0,0-12.3,0.9-19.3,15.7l10.6-1.4c0,0-29.699,44.3-48.3,72.4l0,0c-4.399,6.7-8.2,12.4-10.8,16.4c-10.5,16.2-30.1,20.4-40.7,17.3
	C386.5,221.6,384.8,221,383.2,220.5z M386,171.7c11.5-11.7,8.9-19,4.6-19.3c-5.6-0.3-8.199,8.6-8.199,8.6
	c-9.2-4.8-15.301,0.1-13.7,3.4C372.4,172,386,171.7,386,171.7z M358,154.3c0,0-6.9-1.3-17.4-0.6c-6.5,0.4-14.399,1.6-23,4.4
	c0,0,7.9,16.8,25.9,7.7C347.8,163.6,352.6,160,358,154.3z"/>
<path fill="#FFFFFF" stroke="#000000" stroke-miterlimit="10" d="M439.8,188.4c-0.1,3.5-1.1,26.4-1.8,46.3c-0.2,5.1-0.3,10-0.4,14.3
	c-0.5,20.5-47.699-22.2-54.5-28.5c1.601,0.5,3.301,1.1,5.101,1.6c10.6,3.1,30.2-1.2,40.7-17.3C431.6,200.8,435.4,195.1,439.8,188.4z
	"/>
<path fill="#FFFFFF" stroke="#000000" stroke-miterlimit="10" d="M438,234.7c7.7,9.1,10.9,19.8,10,27.2c-0.7,5.4-3.4,9-8.2,9.2
	c-12.7,0.4-27.7-8.9-41-19.9c-19.3-16-35-35.7-35-35.7l0.101-0.6c8.399,1.4,13.199,3.5,19.3,5.6c6.8,6.2,54,49,54.5,28.5
	C437.8,244.7,437.9,239.8,438,234.7z"/>
<path fill="#FFFFFF" stroke="#000000" stroke-miterlimit="10" d="M454.7,281.8c2.2,6,3,14.1,0.1,25.3c-10.6-7.3-15.899-14-18.6-19.9
	l-0.9-2.1c-2.3-6.3-1.6-10.2,0.101-11.1c0.3-0.1,0.5-0.3,0.8-0.3c2.1-0.6,3.899,0.9,6.1,3.2c0-3,0.3-5.1,2.4-5.7
	c0.3-0.1,0.5-0.1,0.899-0.2c2-0.2,5.4,2.5,8.301,8.6L454.7,281.8z"/>
<path fill="#FFFFFF" stroke="#000000" stroke-miterlimit="10" d="M453.8,279.7c-2.8-6.2-6.3-8.8-8.3-8.6c-0.3,0-0.6,0.1-0.9,0.2
	c-2.1,0.6-2.399,2.7-2.399,5.7c-2.3-2.4-4-3.9-6.101-3.2c-0.3,0.1-0.5,0.2-0.8,0.3c-1.7,0.9-2.399,4.8-0.1,11.1l0.899,2.1
	c2.7,5.9,8.101,12.6,18.601,19.9c2.899-11.2,2.2-19.3-0.101-25.3L453.8,279.7z M462.8,363.4c-5.8,4.8-14.6,22.6-14.6,22.6
	c1-4,4.8-23.1,4.8-23.1c-5.8,12.1-13.1,8.1-13.1,8.1c9.399-9.2,2.199-33.5,2.199-33.5c-5,14.4-15.6,12.7-15.6,12.7
	c8.8-12.6,5.9-42.9,5.4-48.3c0.6,7.3-7.2,15.7-7.2,15.7c4-19.3-25.8-66.5-25.8-66.5c13.3,11,28.3,20.3,41,19.9
	c4.8-0.1,7.6-3.8,8.199-9.2h0.2c5.7,18.8,27.101,30,27.8,30.4c-11.5-2.9-12.699-2-12.699-2c8.699,10.4,15,22,15,22l-12-3
	c12.699,8.1,12,46.1,12,46.1c-4.601-2.3-9.801-16.2-9.801-16.2c-1.699,33,5.9,50.3,6.101,50.8c-5.5-2.9-8.7-6.5-10.5-10.1l0,0
	c-3.2-6.5-2.2-13.1-1.3-16.2C462.8,363.6,462.8,363.6,462.8,363.4C462.8,363.5,462.8,363.5,462.8,363.4z M462.8,363.4
	c0.2-0.5,0.3-1.1,0.5-1.6C463.3,361.8,463.1,362.4,462.8,363.4z"/>
<path fill="#FFFFFF" stroke="#000000" stroke-miterlimit="10" d="M426.5,608.5c-0.1,3.6-0.1,7-0.1,9.9
	c-3.301,3.399-6.801,6.5-10.5,9.399c2-31-4.2-39.3-4.2-39.3c-4-7.2-11.8-40.9-19.101-75.9c0,0,39.801-53.3,70.2-149.1
	c-0.8,3.1-1.899,9.8,1.3,16.2l0,0c0,0.7-0.3,22.6-28,75.399C436.1,455.3,427.4,560,426.5,608.5z"/>
<path fill="#FFFFFF" stroke="#000000" stroke-miterlimit="10" d="M379.3,649L379.3,649c-9.6,4.1-16.399,6-16.399,6l5.8-8.1
	c-5.8,8.1-31.2,12.1-31.2,12.1l15.6-12.7c-18.5,7.9-40.3,11-56.199,12.101V658c13-26.9,16.699-51.9,14.3-69.5
	c-0.5-3.7-1.4-7.6-2.601-11.5l0,0c27.4-11,49.5-34.7,49.5-34.7c4.801,7.9,9.601,15.9,14.4,23.8c0,0,15.1,30.301,0,47.9
	C372.4,614,356.5,631.5,379.3,649z"/>
<path fill="#FFFFFF" stroke="#000000" stroke-miterlimit="10" d="M308.5,577.1c1.2,4,2.1,7.801,2.6,11.5
	c2.4,17.601-1.3,42.5-14.3,69.5v0.4c-13.1,0.9-22.3,0.6-22.3,0.6l16.2-9.199c-111.4,5.1-128.7-41-128.7-41s-11.1-31.2-7.8-75
	c2.9-37.9,16.5-85.101,57.5-129.9c0,0,66.9-79.5,79.1-86.3c13.2-57.8,43-104.4,43-104.4v-0.1c14.101-0.1,23.3,0.5,30.101,1.7
	l-0.101,0.6c0,0,15.7,19.8,35,35.7c0,0,29.8,47.2,25.8,66.5c0,0,7.7-8.4,7.2-15.7c0.601,5.3,3.4,35.6-5.399,48.3
	c0,0,10.6,1.7,15.6-12.7c0,0,7.2,24.2-2.2,33.5c0,0,7.4,4,13.101-8.1c0,0-3.801,19-4.801,23.1c0,0,8.801-17.8,14.601-22.6v0.1
	c0,0,0,0.1,0,0.2C432.4,459.6,392.5,512.9,392.5,512.9c7.4,35,15.1,68.699,19.1,75.899c0,0,6.2,8.3,4.2,39.3
	c-12.399,9.801-26.2,16.7-36.6,21.101l0,0c-22.8-17.5-6.9-35-6.9-35c15.101-17.601,0-47.9,0-47.9c-4.8-7.9-9.7-15.9-14.399-23.8
	C358,542.4,336,566,308.5,577.1L308.5,577.1z"/>
<path fill="#FFFFFF" stroke="#000000" stroke-miterlimit="10" d="M324.8,786c13.8-1.7,72.2-24.4,72.2-24.4
	c-24.6,3.801-37-1.6-37-1.6c11.8-1.7,56.3-19.1,56.3-19.1c-6.2-0.601-49,5.8-43.1,3.699c50.2-18.3,68.8-46,68.8-46
	c-9.1,6.7-53.1,15-45.7,12.2c53.2-20.3,63.4-67.399,63.4-67.399C432,688.3,351.7,701.3,351.7,701.3c34.7-12.3,51.7-28,51.7-28
	C353.1,685.6,325.8,666,325.8,666c6.101-2.3,11.8-7,11.8-7s25.4-4,31.2-12.1L363,655c0,0,6.7-1.9,16.4-6
	c10.399-4.4,24.199-11.3,36.6-21.1c3.7-2.9,7.2-6,10.5-9.4c0-2.9,0-6.3,0.1-9.9c1-4.899,14.301-67.3,13.7-81.699
	c0,0,16.5,50.199,17.101,69.5v1.6c0-0.5,0-1,0-1.6l-0.601-54c0,0,24.4,36.1,32.4,66c-1-4.601-9.5-41.601-17-54.101
	c1,1.3,36.8,50.601,26,103.8l8-27.1c5.7,12.3-5.601,53.6-5.9,54.6c0.4-0.8,14-27.1,8.3-8.1c-16.699,55.2-51,65.1-63.1,75.8
	c0,0-1.6,2.3,18.8-4c0,0-12.399,20.7-132.3,36.7c-1.5,0.2-3,0.4-4.7,0.6C321.8,786.8,319.6,786.7,324.8,786z"/>
<path fill="#FFFFFF" stroke="#000000" stroke-miterlimit="10" d="M62.2,685.6c-0.4,1.101-0.6,2.301-0.7,3.5
	C61.9,687.1,62.2,685.8,62.2,685.6z M133.6,548.3c0.7,0.2,1.1,0.4,1.3,0.4C134.5,548.6,134.1,548.5,133.6,548.3z M327.1,786.6
	c9.7-0.3,29.601-1.5,33.301-1.899c0,0-24.101,14.1-91.5,7.7c-77.9-8.801-136.7-14-196.8-74.5c0,0-0.8-1.2-1.9-3.2
	c-3.1-5.601-9.1-17.3-8.6-25.601c-1.1,6.2-2.8,19.4,0,29.9c-0.4-1.1-13.6-34.2-14.8-52c0.2-7.4,0.2-9.9-0.1-3.4c0,1,0,2.2,0.1,3.4
	c-0.1,6.1-0.4,15.5-0.8,26.2c0,0-37.9-45.101,18-96.8c-0.9,0.699-15.6,11.1-26.2,17.8c0.9-1,29.5-30.8,38.7-36.5
	c1.6-0.8,2.3-1.101,1.3-0.7c-0.4,0.2-0.8,0.4-1.3,0.7c-5.7,2.7-23.5,10.8-23.5,10.8s19.1-33.5,50.2-38.1c0,0,21.3-4.601,30.4-2.2
	c-4-1.3-15.7-5.101-29-9.3c0,0,17.6-12.2,39.5,3.399c0,0-0.6-5.7-15-14.899c0,0,18.5-3.5,25.1,6.3c-3.3,43.8,7.8,75,7.8,75
	s17.3,46.1,128.7,41l-16.2,9.2c0,0,9.1,0.399,22.3-0.601c15.9-1.2,37.7-4.2,56.2-12.1L337.5,659c0,0-5.8,4.6-11.8,7
	c0,0,27.3,19.6,77.6,7.3c0,0-17,15.7-51.7,28c0,0,80.301-13,108-57.899c0,0-10.199,47-63.399,67.399c-7.3,2.8,36.7-5.5,45.7-12.2
	c0,0-18.7,27.7-68.801,46c-5.8,2.101,37-4.3,43.101-3.699c0,0-44.5,17.3-56.3,19.1c0,0,12.399,5.4,37,1.6c0,0-58.301,22.7-72.2,24.4
	C319.6,786.7,321.8,786.8,327.1,786.6z"/>
<g>
	<path d="M329.9,155c-1.5-1-2.9-2.2-4.2-3.5s-2.5-2.7-3.3-4.3c1,1.5,2.3,2.8,3.6,3.9c1.4,1.1,2.8,2.1,4.4,3L329.9,155z"/>
</g>
<g>
	<path d="M326.7,156.3c-0.9-0.1-1.8-0.3-2.601-0.6c-0.899-0.3-1.699-0.6-2.5-1c-0.8-0.4-1.5-1-2.1-1.6c-0.6-0.7-1-1.5-1.1-2.4
		c0.199,0.9,0.699,1.6,1.3,2.2c0.6,0.6,1.399,1,2.2,1.3c0.8,0.3,1.6,0.6,2.5,0.7c0.8,0.2,1.699,0.3,2.5,0.3L326.7,156.3z"/>
</g>
<g>
	<path d="M322.4,157.5c-0.9,0.2-1.801,0.3-2.801,0.3c-0.899,0-1.899,0-2.8-0.2c-0.899-0.2-1.8-0.5-2.6-1.1c-0.7-0.6-1.2-1.5-1.3-2.4
		c0.199,0.9,0.699,1.7,1.5,2.2c0.699,0.5,1.6,0.7,2.5,0.8c1.8,0.1,3.6-0.2,5.199-0.6L322.4,157.5z"/>
</g>
<g>
	<path d="M318.3,159.6c-0.8,0.1-1.6,0.2-2.399,0.2c-0.801,0-1.601-0.1-2.4-0.2c-1.6-0.3-3.1-0.8-4.3-1.8c1.3,0.8,2.8,1.2,4.399,1.3
		c0.801,0,1.5,0,2.301,0c0.699-0.1,1.5-0.2,2.199-0.4L318.3,159.6z"/>
</g>
<g>
	<path d="M357.6,154.6c-2.399-2.7-5.1-5.2-7.899-7.5c-2.8-2.3-5.8-4.4-9-6.1c-3.2-1.6-6.8-2.8-10.4-2.7c-1.8,0.1-3.6,0.5-5.2,1.3
		c-1.6,0.8-3.1,2-4.3,3.3c1.2-1.4,2.601-2.6,4.3-3.4c1.601-0.9,3.5-1.3,5.301-1.4c3.699-0.2,7.3,1,10.6,2.5c3.3,1.6,6.4,3.7,9.3,5.9
		c2.9,2.3,5.601,4.7,8.101,7.4L357.6,154.6z"/>
</g>
<g>
	<path d="M402.8,135.9c-1-4.2-1.399-8.5-1.5-12.8c0-4.3,0.5-8.7,2.101-12.7c0.8-2,1.899-3.9,3.3-5.5c1.399-1.6,3.2-2.9,5.2-3.8
		c3.899-1.8,8.399-2,12.6-1.6c-4.2-0.3-8.6,0-12.5,1.8c-1.9,0.9-3.6,2.2-5,3.8s-2.4,3.5-3.2,5.4c-1.5,4-1.899,8.3-1.8,12.5
		s0.7,8.5,1.7,12.6L402.8,135.9z"/>
</g>
<g>
	<path d="M427.1,105.7c0.101,0,0.4-0.2,0.5-0.4c0.2-0.2,0.301-0.4,0.5-0.7c0.301-0.5,0.5-1,0.7-1.6c0.4-1.1,0.5-2.3,0.601-3.5
		c0.1,1.2,0.1,2.4-0.2,3.7c-0.101,0.6-0.3,1.2-0.5,1.8c-0.3,0.6-0.5,1.2-1.3,1.7L427.1,105.7z"/>
</g>
<g>
	<path d="M432.2,104.6C432.2,104.6,432.2,104.7,432.2,104.6L432.2,104.6L432.2,104.6c0-0.1-0.101-0.2-0.101-0.2
		c0-0.1-0.3-0.2-0.399-0.2c-0.2,0-0.4,0.1-0.3,0.1l-0.101,0.1l0,0l0,0l0,0l0,0v-0.1l0.101-0.3l0.199-0.6l0.301-1.3l0.6-2.6l-0.1,2.7
		l-0.101,1.3v0.7L432.2,104.6v0.1v0.1l0,0l0,0l0,0c0,0,0,0.1-0.101,0.1c0,0-0.199,0.2-0.3,0.1c-0.1,0-0.399-0.2-0.399-0.2
		s0-0.1-0.101-0.1l0,0c0-0.1,0-0.1,0-0.1v-0.2L432.2,104.6z"/>
</g>
<g>
	<path d="M433.3,105.3c0.5-0.2,1-0.5,1.4-0.9c0.399-0.4,0.8-0.9,1.1-1.4c0.601-1,1-2.3,1.2-3.5c0,1.3-0.2,2.5-0.7,3.7
		c-0.3,0.6-0.6,1.2-1,1.7c-0.399,0.5-0.899,1-1.6,1.3L433.3,105.3z"/>
</g>
<g>
	<path d="M434.5,106.2c0.7,0.1,1.4,0,2.1-0.1c0.7-0.1,1.4-0.4,1.9-0.8c0.6-0.4,1-1,1.2-1.7c0.2-0.7,0.2-1.5,0.2-2.2
		c0.1,0.7,0.199,1.5,0.1,2.3c-0.1,0.8-0.5,1.5-1.1,2.1c-0.601,0.6-1.301,0.9-2,1.2c-0.801,0.2-1.5,0.4-2.301,0.4L434.5,106.2z"/>
</g>
<g>
	<path d="M368.7,155.7L368.7,155.7C368.7,155.8,368.7,155.7,368.7,155.7v-0.2l-0.101-0.4l-0.199-0.7c-0.101-0.5-0.301-0.9-0.4-1.4
		c-0.3-0.9-0.6-1.8-1-2.8c-0.7-1.8-1.5-3.6-2.4-5.3c-1.8-3.5-3.8-6.8-6.1-9.9c-2.3-3.2-4.8-6.1-7.5-9c-1.3-1.4-2.7-2.8-4.2-4.1
		c-1.399-1.4-2.899-2.6-4.399-3.9c1.6,1.1,3.199,2.3,4.699,3.6c1.5,1.3,3,2.6,4.4,4c2.8,2.7,5.4,5.8,7.7,8.9
		c2.3,3.2,4.399,6.6,6,10.2c0.8,1.8,1.6,3.6,2.2,5.5c0.3,0.9,0.6,1.9,0.8,2.8c0.1,0.5,0.2,1,0.3,1.4l0.1,0.7v0.4L368.7,155.7
		C368.7,155.7,368.7,155.8,368.7,155.7L368.7,155.7z"/>
</g>
<g>
	<path d="M310.9,133.5c-0.4-3.1-0.301-6.3,0.3-9.4c0.7-3.1,2-6.2,4.3-8.7c1.1-1.2,2.5-2.3,4-3.1c1.5-0.8,3.2-1.2,4.9-1.4
		c1.699-0.1,3.3,0,4.899,0.3c1.601,0.3,3.101,0.8,4.5,1.6l-0.1,0.3c-3.2,0.2-6.2,0.2-9,0.8c-1.4,0.3-2.7,0.6-4,1.1
		s-2.5,1.2-3.601,2.1c-2.1,1.9-3.6,4.5-4.5,7.4c-0.899,2.8-1.399,5.9-1.399,9H310.9z"/>
</g>
<g>
	<path d="M427.8,86.1c-2.3-2-5.1-3.5-7.899-4.4c-2.9-0.9-5.9-1.1-8.7-0.5c-2.9,0.6-5.4,2.1-7.9,3.6c-2.6,1.5-5,3.3-7.6,5.1l-0.2-0.2
		c1.4-2.9,3.6-5.4,6.2-7.3c2.6-2,5.899-3.1,9.2-3.5c3.3-0.4,6.699,0.2,9.6,1.4c2.9,1.3,5.6,3.2,7.6,5.6L427.8,86.1z"/>
</g>
<g>
	<path d="M365.9,176.1c-1.2-0.6-2.7-1.2-4.101-1.6c-1.399-0.4-2.899-0.8-4.399-1c-3-0.5-6-0.8-9.101-0.9c-6.1-0.2-12.3,0.4-18.3,1.4
		c-12.2,2-24,5.9-35.4,10.5c11.301-4.9,23.101-9.1,35.2-11.5c6.101-1.2,12.3-1.9,18.5-1.9c3.101,0,6.3,0.2,9.4,0.7
		c1.6,0.2,3.1,0.6,4.6,1c1.5,0.4,3,0.9,4.601,1.6L365.9,176.1z"/>
</g>
<g>
	<path d="M372.5,181.6c-7.3,0.5-14.7,1.4-22,2.5c-7.3,1.2-14.5,2.6-21.7,4.5c-7.1,1.9-14.2,4.1-21,7
		c-6.8,2.8-13.399,6.3-19.399,10.7c5.899-4.6,12.399-8.1,19.199-11.2c6.801-3,13.801-5.4,21-7.5c7.101-2,14.4-3.7,21.7-5
		c7.3-1.3,14.601-2.4,22.101-3L372.5,181.6z"/>
</g>
<g>
	<path d="M372.6,186.5c-5.8,1-11.6,2.8-17.1,4.9c-5.6,2.1-11,4.6-16.3,7.5c-10.5,5.8-20,13.2-28.101,22.1
		c7.801-9.1,17.301-16.8,27.601-23c5.2-3.1,10.6-5.8,16.2-8c5.6-2.3,11.3-4.2,17.3-5.4L372.6,186.5z"/>
</g>
<g>
	<path d="M405.3,156.9c5.101-3.7,10.4-7.1,15.8-10.3c5.4-3.2,10.9-6.3,16.601-9c5.7-2.7,11.5-5.2,17.5-7c3-0.9,6.1-1.6,9.2-2.1
		c3.1-0.4,6.3-0.6,9.399-0.1c-3.1-0.4-6.3-0.1-9.399,0.4c-3.101,0.5-6.101,1.3-9.101,2.3c-5.899,2-11.6,4.6-17.2,7.4
		c-5.5,2.9-10.899,6.1-16.199,9.4c-5.301,3.4-10.4,6.9-15.4,10.7L405.3,156.9z"/>
</g>
<g>
	<path d="M408.5,161.4c6.8-2,13.6-3.8,20.4-5.5c6.8-1.7,13.699-3.1,20.699-4.4c6.9-1.2,13.9-2.2,21-2.5c3.5-0.2,7-0.2,10.601,0.1
		c3.5,0.3,7,0.9,10.2,2.4c-3.2-1.5-6.801-2-10.2-2.2c-3.5-0.2-7-0.1-10.5,0.1c-7,0.5-13.9,1.7-20.8,3c-6.9,1.4-13.7,3-20.5,4.8
		c-6.801,1.8-13.5,3.8-20.2,6L408.5,161.4z"/>
</g>
<g>
	<path d="M408.7,167.4c5.7-0.7,11.5-1.1,17.2-1.5c5.8-0.3,11.5-0.5,17.3-0.4s11.5,0.5,17.2,1.4c2.8,0.5,5.699,1.1,8.399,2.1
		s5.4,2.3,7.2,4.5c-1.9-2.2-4.6-3.4-7.3-4.3c-2.7-0.9-5.5-1.4-8.4-1.8c-5.7-0.8-11.399-0.9-17.2-0.9c-5.699,0.1-11.5,0.4-17.199,0.9
		c-5.7,0.5-11.4,1.1-17.101,1.9L408.7,167.4z"/>
</g>
<line fill="none" stroke="#000000" stroke-miterlimit="10" x1="390.6" y1="181.7" x2="386" y2="171.7"/>
<path fill="none" stroke="#000000" stroke-miterlimit="10" d="M355.6,179.4c0,0,8.301,20.7,25.301,10.7"/>
<path fill="none" stroke="#000000" stroke-miterlimit="10" d="M422.1,154.3c0,0,1.801,12-7.3,20.2"/>
<g>
	<path d="M351.9,185.5c0.899-1.7,2.1-3.2,3.1-4.8c0.5-0.8,1.1-1.5,1.6-2.3c0.5-0.8,1-1.5,1.301-2.5c0.1,1-0.301,2-0.601,2.8
		c-0.399,0.9-0.899,1.7-1.5,2.5C354.8,182.8,353.5,184.3,351.9,185.5z"/>
</g>
<g>
	<path d="M417.5,154c1.8-0.2,3.6-0.3,5.3-0.5c0.9-0.1,1.7-0.2,2.601-0.3c0.899-0.2,1.699-0.4,2.5-0.8c-0.601,0.8-1.4,1.2-2.301,1.5
		c-0.899,0.3-1.8,0.5-2.699,0.6c-0.9,0.1-1.801,0.1-2.7,0C419.2,154.5,418.3,154.3,417.5,154z"/>
</g>
<g>
	<path d="M299.8,98.2c-2.899-1.3-5.899-2.4-8.899-3.3c-1.5-0.4-3.101-0.8-4.7-0.9c-1.601-0.1-3.2-0.2-4.7,0.6
		c1.4-0.9,3.1-0.9,4.7-0.9c1.6,0.1,3.2,0.4,4.8,0.7c3.1,0.7,6.2,1.7,9.2,2.9L299.8,98.2z"/>
</g>
<g>
	<path d="M302.9,103.2c-1-0.7-2.2-1.2-3.301-1.7c-1.199-0.5-2.399-0.9-3.6-1.1c-2.5-0.5-5.1-0.5-7.5,0.3c2.4-0.9,5-1.1,7.6-0.8
		c1.301,0.2,2.5,0.5,3.801,0.9c1.199,0.4,2.399,0.9,3.6,1.6L302.9,103.2z"/>
</g>
<g>
	<path d="M304.5,108.5c-0.5-0.7-1.3-1.3-2.1-1.8c-0.801-0.5-1.7-0.9-2.7-1.1c-1.9-0.4-3.9-0.3-5.8,0.3c1.8-0.7,3.899-1.1,5.899-0.8
		c1,0.1,2,0.4,2.9,0.9c0.899,0.5,1.8,1,2.5,1.8L304.5,108.5z"/>
</g>
<g>
	<path d="M420.2,42.9c0.8-1,1.6-1.9,2.5-2.8c0.899-0.9,1.899-1.7,2.8-2.4c2-1.5,4.2-2.7,6.5-3.6c-2.2,1-4.3,2.4-6.2,4
		c-0.899,0.8-1.8,1.7-2.6,2.6c-0.8,0.9-1.601,1.9-2.2,2.9L420.2,42.9z"/>
</g>
<g>
	<path d="M421,50.8c1.2-2.5,2.6-4.8,4.3-7c0.8-1.1,1.7-2.1,2.8-3c1-0.8,2.301-1.6,3.7-1.6c-1.399,0.1-2.5,0.9-3.5,1.8
		s-1.8,2-2.6,3.1c-1.5,2.2-2.7,4.6-3.7,7.1L421,50.8z"/>
</g>
<g>
	<path d="M423.2,56.5c0-1.2,0.3-2.4,0.6-3.6c0.3-1.2,0.8-2.3,1.5-3.3s1.5-1.9,2.5-2.6s2.101-1.2,3.2-1.4c-1.1,0.4-2.2,0.9-3.1,1.6
		c-0.9,0.7-1.601,1.6-2.2,2.6c-0.601,1-0.9,2.1-1.2,3.2c-0.2,1.1-0.4,2.3-0.3,3.4L423.2,56.5z"/>
</g>
<g>
	<path d="M429,62.9c-0.2-1-0.3-1.9-0.3-2.8s0.1-1.9,0.3-2.8c0.2-0.9,0.6-1.8,1.1-2.6c0.601-0.8,1.4-1.3,2.301-1.5
		c-0.9,0.3-1.601,0.9-2.101,1.7c-0.5,0.8-0.7,1.6-0.899,2.5c-0.101,0.9-0.101,1.8,0,2.7c0.1,0.9,0.3,1.8,0.5,2.6L429,62.9z"/>
</g>
<g>
	<path d="M388.3,200.9c1.7,0.8,3.5,1.3,5.3,1.6c1.801,0.2,3.601,0.1,5.4-0.3c3.5-0.8,6.6-3,9.4-5.5c-1.101,1.5-2.5,2.9-4,4
		c-1.5,1.1-3.301,2-5.2,2.4c-1.9,0.5-3.9,0.5-5.8,0.1C391.6,202.8,389.8,202,388.3,200.9z"/>
</g>
<g>
	<path d="M326.8,70c-0.5,0.8-0.899,1.7-1.3,2.6s-0.8,1.8-1.1,2.7c-0.7,1.9-1.301,3.7-1.9,5.7c0.4-2,0.9-3.9,1.4-5.8
		c0.3-1,0.6-1.9,0.899-2.9s0.7-1.9,1.101-2.8L326.8,70z"/>
</g>
<g>
	<path d="M386.2,51.3c1.6,0.7,3.1,1.6,4.399,2.6c1.301,1,2.601,2.3,3.2,3.9c-0.7-1.5-2.1-2.6-3.5-3.5c-1.399-0.9-3-1.6-4.5-2.1
		L386.2,51.3z"/>
</g>
<g>
	<path d="M388.7,145.8L388.7,145.8C388.7,145.9,388.7,145.8,388.7,145.8l-0.101-0.1l-0.199-0.3l-0.301-0.7
		c-0.199-0.5-0.3-0.9-0.5-1.4c-0.3-0.9-0.6-1.9-0.8-2.8c-0.5-1.9-0.8-3.9-1.1-5.8c-0.5-3.9-0.601-7.9-0.3-11.8
		c0.3-3.9,0.899-7.8,1.8-11.7c0.5-1.9,1-3.8,1.6-5.7c0.601-1.9,1.3-3.7,2.101-5.5c-0.601,1.9-1.101,3.8-1.601,5.7
		c-0.5,1.9-0.899,3.8-1.3,5.7c-0.8,3.8-1.3,7.7-1.6,11.6c-0.301,3.9-0.2,7.8,0.1,11.7c0.2,1.9,0.4,3.9,0.8,5.8
		c0.2,1,0.4,1.9,0.601,2.9c0.1,0.5,0.199,0.9,0.399,1.4l0.2,0.7l0.1,0.3H388.7C388.7,145.8,388.7,145.9,388.7,145.8L388.7,145.8z"/>
</g>
<g>
	<path d="M36.8,633.8c1.4-2.899,3.1-5.5,5-8.1c1.9-2.601,3.9-5,6.1-7.2c2.2-2.2,4.7-4.2,7.4-5.9c2.7-1.699,5.6-3,8.6-3.8
		c-3,0.9-5.9,2.2-8.5,4c-2.6,1.7-5,3.8-7.2,6.101c-2.2,2.3-4.1,4.699-5.9,7.3c-1.8,2.6-3.4,5.3-4.7,8.1L36.8,633.8z"/>
</g>
<g>
	<path d="M46.3,660c-0.2-2.3-0.1-4.6,0.1-6.8c0.3-2.2,0.7-4.5,1.3-6.601c1.2-4.399,2.9-8.5,5-12.5c-2,4-3.5,8.301-4.5,12.601
		c-0.5,2.2-0.9,4.399-1,6.6c-0.2,2.2-0.2,4.5,0.1,6.601L46.3,660z"/>
</g>
<g>
	<path d="M367,633.5c1.1,0,2.3-0.2,3.4-0.4c1.1-0.199,2.3-0.6,3.3-1c2.2-0.899,4.2-2.3,5.5-4.199c-1.2,2-3.2,3.6-5.3,4.699
		c-1.101,0.5-2.2,1-3.4,1.301c-1.2,0.3-2.3,0.6-3.6,0.699L367,633.5z"/>
</g>
<g>
	<path d="M372.4,643c2.399-0.4,4.8-1,7.1-1.9c1.1-0.5,2.3-1,3.2-1.699c1-0.7,1.899-1.601,2.2-2.9c-0.2,1.3-1,2.3-2,3.1
		c-1,0.801-2.101,1.4-3.2,2c-2.3,1.101-4.7,1.801-7.101,2.4L372.4,643z"/>
</g>
<g>
	<path d="M392.1,512.8L374.7,424.2V424.1V424c5.1-12.7,9.3-25.8,12.7-39.1c3.399-13.3,6.1-26.8,7.5-40.4
		c1.399-13.6,1.699-27.4-0.101-41s-5.8-27-13-38.7c7.3,11.6,11.4,25.1,13.2,38.7s1.6,27.4,0.2,41.1c-1.4,13.7-4,27.2-7.4,40.5
		c-3.399,13.3-7.5,26.4-12.6,39.2v-0.2l17.7,88.601L392.1,512.8z"/>
</g>
<g>
	<path d="M357.6,542.6L299.9,443.8l-0.101-0.1l0.101-0.101c1.899-1.1,3.6-2.8,5-4.5c1.399-1.8,2.6-3.699,3.6-5.8
		c2-4.1,3.1-8.6,3.8-13.1c0.601-4.5,0.7-9.101,0.5-13.7s-0.8-9.1-1.7-13.6c0.801,4.5,1.5,9,1.7,13.6c0.3,4.6,0.2,9.1-0.399,13.7
		c-0.601,4.5-1.801,9-3.7,13.2c-1,2.1-2.2,4-3.601,5.899c-1.399,1.8-3.1,3.5-5.1,4.7l0.1-0.2l58.301,98.4L357.6,542.6z"/>
</g>
<g>
	<path d="M308,577.2c-2-7.5-4.6-14.8-7.6-22s-6.4-14.2-10.2-20.9c-7.6-13.6-16.8-26.3-27.7-37.399c11,11,20.4,23.699,28.1,37.199
		c3.9,6.801,7.4,13.7,10.5,20.9c3.101,7.2,5.801,14.5,7.9,22L308,577.2z"/>
</g>
<g>
	<path d="M426,618.1c6.5-6.6,12-14.199,15.6-22.699l0.7-1.601v1.7c0.101,3.6-0.3,7.1-0.8,10.6c-0.6,3.5-1.4,6.9-2.4,10.301
		c-2.1,6.8-5,13.199-8.8,19.199c-3.8,5.9-8.399,11.301-13.7,16c-5.3,4.7-11.1,8.7-17.3,12c6.2-3.399,12-7.399,17.2-12.1
		s9.8-10.1,13.5-16.1c3.7-5.9,6.6-12.4,8.6-19.101c1-3.399,1.801-6.8,2.301-10.3s0.8-7,0.699-10.4l0.7,0.101
		c-3.6,8.6-9.1,16.399-15.6,23.1L426,618.1z"/>
</g>
<g>
	<path d="M490.3,611.2c1.8,8.3,2,16.899,0.8,25.3c0.9-8.4,0.301-16.9-1.8-25.1L490.3,611.2z"/>
</g>
<g>
	<path d="M291.3,317.8c-1,3.7-1.899,7.4-2.8,11.1c0.5-3.8,1.1-7.6,1.8-11.3L291.3,317.8z"/>
</g>
</svg>
