<?xml version="1.0" encoding="utf-8"?>
<!-- Generator: Adobe Illustrator 15.0.0, SVG Export Plug-In . SVG Version: 6.00 Build 0)  -->
<!DOCTYPE svg PUBLIC "-//W3C//DTD SVG 1.1//EN" "http://www.w3.org/Graphics/SVG/1.1/DTD/svg11.dtd">
<svg version="1.1" id="Layer_1" xmlns="http://www.w3.org/2000/svg" xmlns:xlink="http://www.w3.org/1999/xlink" x="0px" y="0px"
	 width="822px" height="567px" viewBox="0 0 822 567" enable-background="new 0 0 822 567" xml:space="preserve">
<path fill="#FFFFFF" stroke="#000000" stroke-miterlimit="10" d="M40,178.3c8.3,4.7,10,21.6,10,21.6C38,188.1,40,178.3,40,178.3z"/>
<path fill="#FFFFFF" stroke="#000000" stroke-miterlimit="10" d="M64.4,183.3c0.9,5.6-0.5,15.6-12.4,19.4c3.8-5.7,1.7-19.7-5.9-24.1
	c-4.5-2.6-8-3.6-8-3.6s13.2-5.2,24.4,2.2C63.6,178,64.2,182,64.4,183.3z"/>
<path fill="#FFFFFF" stroke="#000000" stroke-miterlimit="10" d="M40,178.3c0,0-1.9,9.8,10.1,21.6C50,199.9,48.3,183,40,178.3z
	 M38.1,175c0,0,3.5,1,8,3.6c7.6,4.4,9.8,18.5,5.9,24.1C52,202.7,30.8,197,38.1,175z"/>
<path fill="#FFFFFF" stroke="#000000" stroke-miterlimit="10" d="M61.3,226c7.8,4.7,1.3,24.8-23.2,31.5c0,0-14.4,0-17.7-16.9
	c0,0,5.2-5.6,12.5-10.4l0,0C41.1,224.8,52,220.4,61.3,226z"/>
<path fill="#FFFFFF" stroke="#000000" stroke-miterlimit="10" d="M20.4,240.7l-0.8,0.5c0,0-16.6-18.3,6-33.4c0,0,14.7,16.9,7.4,22.5
	l0,0C25.5,235.1,20.4,240.7,20.4,240.7z"/>
<path fill="#FFFFFF" stroke="#000000" stroke-miterlimit="10" d="M51.3,133l-7.8,4.9c0,0-22.3-40.7-28.4-59.6
	C16.1,79.1,46.7,105.4,51.3,133z"/>
<path fill="#FFFFFF" stroke="#000000" stroke-miterlimit="10" d="M148.3,103.5c-23-6.1-45.9,2.1-45.9,2.1
	c-11.7,0.5-9.5,10.9-20.7,1.2c-2-1.8-3.7-3.5-5.2-5.1l0,0C71.4,94,50.8,60.9,60,53c0,0,40.4,11.9,61.2,32
	C121.2,85,121.2,85,148.3,103.5z"/>
<path fill="#FFFFFF" stroke="#000000" stroke-miterlimit="10" d="M709.8,26.2c114.7,40.5,3.7,170.3,3.7,170.3l-0.7,0.5
	c-6.3-7.9-13.1-13.3-17.2-18.5c-4.3-5.5-9.1-10.3-14.199-14.3C737.3,72.8,660.6,78,660.6,78C647.2,84.5,640,85.7,640,85.7v-6.1
	c-9.8,9.4-31,9.1-31,9.1l3.8-8.7C586.3,95.2,565,98.5,565,98.5l9.2-12.5c-38.101,25.1-37,18.3-37,18.3l6.1-9.2
	c-7.1-1.9-32.2,29.2-32.2,29.2l2.601-13.1C486,154.5,455,136.4,455,136.4c-31.8-23,4.1-55.8,16.2-65.1
	c34.7-26.4,86.899-38.1,125.1-47.7C660.1,7.5,690.7,19.5,709.8,26.2z"/>
<path fill="#FFFFFF" stroke="#000000" stroke-miterlimit="10" d="M803.4,464.9L802.8,465l-6.8-15l-6.5,22v-30.1l-13,39.1v-14
	c-3,9-9.8,14.3-9.8,14.3L761.6,467l-7.399,14.3l-4.8-14c0.5-30.2-16.301-62.1-16.301-62.1C671.9,414,644.4,356.7,643.9,355.8
	c8.6-12.399,16.199-26.3,16.199-26.3l-0.699,12.6c7.3-7.6,13-24,13-24L673.3,331c11.3-8.8,13.9-34.3,13.9-34.3l1.3,18.3
	c4.6-11.3,14.6-25.2,14.6-25.2l-3.199,18.9c15.8-14.101,22.5-36.4,24.699-45.9c-4.1,45.3,15,69.2,15,69.2h-7.3
	c7.3,4.4,18.601,15.1,18.601,15.1L735.3,341.4c4,2.5,18.9,14.3,18.9,14.3l-11.9-0.4c0.7,3.8,24.5,9.4,24.5,9.4
	c29.2,3.2,30.5,27.7,30.5,27.7C794.1,398,799.2,439.4,803.4,464.9z"/>
<path fill="#FFFFFF" stroke="#000000" stroke-miterlimit="10" d="M807.4,484.7c10.199,21.8-4.601,27.7-4.601,27.7
	c-6.8,11-6.8,11-6.8,11c-15.3,16.699-37.6,6-37.6,6c-13.301,10.699-25.2,0-25.2,0C712,514.9,745.1,489.7,745.1,489.7
	c3-7,4.301-14.7,4.4-22.4l4.8,14l7.4-14.3l5.1,14.3c0,0,6.8-5.3,9.8-14.3v14l13-39.1V472l6.5-22l6.801,15l0.6-0.1
	C805.1,475.3,806.6,483.1,807.4,484.7z"/>
<path fill="#FFFFFF" stroke="#000000" stroke-miterlimit="10" d="M598,518.5l9.6,4.8c-2,3.3-4,7.4-7.8,15.7
	c-4.8,10.6-21.3,18.2-47.7,8.8c0,0-40.399,20.101-48.399,1.5c0,0-13.7,0.8-15.9-12.3c0,0-17.899-23.3,18.601-27.7
	c0,0,23.899-3.8,35.1-1.899c0,0,0.4-0.2,1.1-0.601l26.301-6.5l-5.5,9.601c0,0,17.1,0.8,23.1-5.601V518c0,0,8.2-7.7,15.3-8.8
	L598,518.5z"/>
<path fill="#FFFFFF" stroke="#000000" stroke-miterlimit="10" d="M305.7,489.9l17.8-7.9v8l12-4v4c0,0,5,4,13-8v9
	c0,0,18.4-6.1,17.6-18.7c2.5,30.601-4.1,57.8-36.6,54.601c0,0-31.2,34.3-45.9,20c0,0-12.4,5.6-19.6-5.601c0,0-25.8-15.2,6.2-32.399
	c0,0,19.4-9,30.6-11.301C300.8,497.7,296.8,496.7,305.7,489.9L305.7,489.9z"/>
<path fill="#FFFFFF" stroke="#000000" stroke-miterlimit="10" d="M192.8,517c0.9,9.6,6.1,7.5,3.4,12.9c-6.5,13.1-17.6,11.3-29.5,8
	c-19.4-5.4-46.4,0.899-46.4,0.899c-23.9,3.8-19.2-8.8-19.2-8.8c-19.9-6.9-6.2-22.8,0-24.6c17.8-5.101,27.4-9.801,33.5-14.301l20.4-3
	c-6,7,0,19.5,0,19.5c0.4-9.699,15-16,16-16.399c-5.9,3.1,8,21.899,8,21.899l6-15.3l6.9,15.3C192.4,514.3,192.7,515.6,192.8,517z"/>
<path fill="#FFFFFF" stroke="#000000" stroke-miterlimit="10" d="M305.9,489.7c0,0,15.6-18.3-6.8-40.3
	C280.6,431.1,285.4,426.1,283.8,420.1c-2.6-9.8-5.1-23.1-10.4-30c21.8,2.5,49.2,5,74.4,5.801c3.601,9.8,15.601,44.399,18.3,75.699
	c0,0.301,0.101,0.5,0.101,0.801C367,485,348.6,491.1,348.6,491.1v-9c-8,12-13,8-13,8v-4l-12,4v-8l-17.8,7.9l0,0
	C305.8,489.8,305.8,489.8,305.9,489.7z"/>
<path fill="#FFFFFF" stroke="#000000" stroke-miterlimit="10" d="M52,202.7c11.9-3.8,13.4-13.8,12.4-19.4c-0.2-1.4-0.8-5.4-2-6.1
	C51.3,169.8,38,175,38,175C30.8,197,52,202.7,52,202.7z M196.2,484.3c-0.1-0.1-0.2-0.3-0.3-0.399C195.9,484,196,484.1,196.2,484.3z
	 M196.3,484.5c5.5,7.3,4.9,35.4,4.9,35.4s-13.3-17.601-9.3-6.9l-6.9-15.3l-6,15.3c0,0-13.9-18.8-8-21.9c-0.9,0.4-15.6,6.7-16,16.4
	c0,0-6-12.5,0-19.5l-20.4,3c5.7-4.2,8.4-8.4,11.8-12.8c15.6-20,9.7-102.8,9.7-102.8l-1.8,3c-4.6-3.801,1.8-22.5,1.8-22.5L153,359
	c0,0,0,0-1.8-4.4c-1.8-4.399,5-17.699,5-17.699l-5.3,5c-4-5.7,5.3-20.2,5.3-20.2s0-17.2,4-25.3l-8,5.1c0,0,4-20.2-6-29
	c0,0-26.5-24-61-8.2l-4.1,1.3c0,0-35,8.2-42.9-8.2c24.5-6.7,31-26.8,23.2-31.5c-9.3-5.6-20.2-1.2-28.4,4.2
	c7.3-5.6-7.4-22.5-7.4-22.5s10.4-13.3-0.2-33.3c-7.7-14.6,17.1-26.7,18.3-36.5l7.8-4.9C46.9,105.3,16.3,79,15.3,78.2l0,0
	c-2-6.4-2.3-10.2,0.9-9.3c47.2,14.5,51.6,23,60.5,32.7l0,0c1.5,1.7,3.2,3.4,5.2,5.1c11.1,9.7,9-0.7,20.7-1.2c0,0,23-8.2,45.9-2.1
	l0,0c8,2.1,16,6,23,12.5l-11.3-3.5c0.7,0.4,23.9,14.2,23.9,17.3l-11.9-4.9c0.5,0.4,16.6,11.8,17.2,16.1h-6c0,0,22.6,7.6,30.3,8.2
	c9,0.7,32.2,7.6,34.8,9.5h-6.6c0,0,9.3,7,35.8,0c18.2-4.8,52.6,1.4,81.8,15.2c0,0,140-5.5,172.4-15.7
	c37.399-11.8,106.699-27.6,149.8,6c5.2,4,9.899,8.8,14.2,14.3c4.1,5.3,10.899,10.6,17.199,18.5c8.101,10.1,15.2,24.4,14.7,48.1
	c-1.3,6.3-2.2,12.2-2.7,17.8c-2.199,9.4-8.899,31.8-24.699,45.9l3.199-18.9c0,0-9.899,13.9-14.6,25.2l-1.3-18.3
	c0,0-2.601,25.5-13.9,34.3l-0.899-12.9c0,0-5.7,16.4-13,24l0.699-12.6c0,0-7.699,13.9-16.199,26.3c-5.9,8.601-12.301,16.4-16.9,18.5
	c0,0-5.3,8.2,9.3,18.3l9.9,10.7h-6c0,0,18.6,57.4,19.899,65c0,0,0,20.2-35.8,32.8c-10.3,14-13.5,16.9-16.8,22.2l-9.6-4.8l3.8-9.3
	c-7.101,1.2-15.3,8.8-15.3,8.8v-13.6c-6,6.399-23.101,5.6-23.101,5.6l5.5-9.6l-26.3,6.5c7.3-3.801,48.6-25.601,47.4-35.4
	c0,0-20-70-37.9-71.3c0,0-21.2-12-27.2-28.4c0,0-78.8,17.7-122.6,21.3c-13.5,2.9-33.3,3.4-54.5,2.7c-25.2-0.8-52.6-3.399-74.4-5.8
	c-24.2-2.7-41.5-5.3-41.5-5.3c-5.8-2.8-12.8,14.7-12.8,14.7c-1.3,3.8,0,59.899,0,59.899c-4.5-4.899-8-4.5-8-4.5
	c4.6,1.8,4.6,18.4,4.6,18.4c-1.3-3.8-8.6-6.3-8.6-6.3c3.3,3.8,4.6,16.399,4.6,16.399s-11.3-9.899-9.9-6.899
	c1.8,4.1,4.6,22.699,4.6,22.699C203.8,493.5,198,486.4,196.3,484.5z"/>
<g>
	<path d="M31,241.1c5.2-4.8,10.9-9,16.8-12.8c5.9-3.8,12.2-7.1,18.7-9.8s13.3-4.7,20.3-5.7c6.9-1.1,14.1-1.1,21,0
		c-6.9-1-14-0.9-21,0.2c-6.9,1.1-13.7,3.2-20.1,5.9c-6.4,2.7-12.6,6.1-18.5,9.9c-5.8,3.8-11.5,8.1-16.5,12.9L31,241.1z"/>
</g>
<g>
	<path d="M43.3,238.6c5.1-2.5,10.3-4.6,15.6-6.5c5.3-1.9,10.7-3.5,16.2-4.7c5.5-1.2,11.1-2,16.7-1.8c2.8,0.1,5.6,0.4,8.3,1.1
		c2.7,0.7,5.3,1.9,7.6,3.6c-2.3-1.6-4.9-2.8-7.6-3.4c-2.7-0.7-5.5-1-8.3-1c-5.6-0.1-11.2,0.8-16.6,2.1c-5.4,1.3-10.8,3-16,4.9
		c-5.2,2-10.4,4.2-15.4,6.7L43.3,238.6z"/>
</g>
<g>
	<path d="M37.9,250.2c5.1-1.6,10.2-3,15.4-4.3c5.2-1.2,10.4-2.3,15.6-3.1c5.2-0.8,10.5-1.4,15.9-1.4c2.7,0,5.3,0.1,7.9,0.5
		c2.6,0.4,5.2,1,7.7,2c-2.4-1-5.1-1.6-7.7-1.9c-2.6-0.3-5.3-0.4-7.9-0.3c-5.3,0.1-10.6,0.8-15.8,1.7s-10.4,2-15.5,3.4
		c-5.1,1.3-10.2,2.8-15.2,4.5L37.9,250.2z"/>
</g>
<g>
	<path d="M38.1,175.5c-1.5-0.1-3-0.5-4.4-1.2c-1.4-0.7-2.5-1.8-3.2-3.2c-0.6-1.4-0.7-2.9-0.5-4.4s0.7-2.9,1.2-4.2
		c-0.5,1.4-0.9,2.8-1,4.2c-0.1,1.4,0,2.9,0.7,4.1c0.6,1.3,1.8,2.2,3,2.7c1.3,0.6,2.7,0.8,4.1,0.8L38.1,175.5z"/>
</g>
<g>
	<path d="M39.5,175c-1-0.4-2-0.9-2.9-1.5s-1.7-1.3-2.4-2.1c-0.7-0.8-1.2-1.8-1.5-2.8c-0.2-1-0.2-2.1,0.2-3.1c-0.2,1-0.2,2.1,0.1,3.1
		s0.9,1.8,1.6,2.6c0.7,0.7,1.5,1.3,2.4,1.8s1.8,0.9,2.8,1.2L39.5,175z"/>
</g>
<g>
	<path d="M40.4,174.6c-0.8-0.5-1.4-1.1-2-1.8c-0.6-0.7-1.2-1.4-1.6-2.1c-0.4-0.8-0.8-1.6-1-2.5c-0.2-0.9-0.2-1.8,0-2.6
		c-0.1,0.9,0,1.7,0.2,2.6c0.3,0.8,0.7,1.6,1.1,2.3c0.5,0.7,1.1,1.3,1.7,1.9c0.6,0.6,1.3,1.1,2,1.5L40.4,174.6z"/>
</g>
<g>
	<path d="M42.1,174.2c-0.6-0.5-1.1-1-1.6-1.5c-0.5-0.6-0.9-1.2-1.2-1.8c-0.3-0.7-0.5-1.4-0.4-2.1c0-0.7,0.3-1.4,0.7-2
		c-0.3,0.6-0.5,1.3-0.4,2c0,0.7,0.3,1.3,0.6,1.9c0.3,0.6,0.8,1.1,1.3,1.5c0.5,0.5,1,0.9,1.6,1.2L42.1,174.2z"/>
</g>
<g>
	<path d="M44.7,173.8c-0.8-0.6-1.6-1.3-2.1-2.2c-0.3-0.4-0.5-0.9-0.6-1.4s0.1-1,0.3-1.4c-0.2,0.4-0.3,0.9-0.1,1.4
		c0.1,0.4,0.4,0.8,0.7,1.2c0.6,0.7,1.4,1.2,2.3,1.7L44.7,173.8z"/>
</g>
<g>
	<path d="M524.8,372.6c-1.7-8.8-2.399-17.8-2.2-26.8c0.2-8.899,1.5-17.899,4.301-26.399c2.8-8.5,7.3-16.5,13.699-22.801
		c6.4-6.3,14.5-10.6,23.101-13c-8.601,2.5-16.7,6.9-23,13.2s-10.7,14.3-13.4,22.8s-3.8,17.4-4,26.301
		c-0.1,8.899,0.601,17.8,2.4,26.5L524.8,372.6z"/>
</g>
<g>
	<path d="M100.3,505.1c3-0.6,5.9-0.899,8.9-0.899s6,0.1,8.9,1c-2.9-0.7-5.9-0.7-8.8-0.5c-2.9,0.2-5.9,0.7-8.7,1.399L100.3,505.1z"/>
</g>
<g>
	<path d="M100.6,530c-0.2-2.5,0.4-4.9,1.5-7c1.2-2.1,3.1-3.8,5.2-4.8c2.2-1,4.5-1.5,6.8-1.601c2.3-0.1,4.7,0,7,0.301
		c-2.3-0.2-4.7-0.301-7-0.101c-2.3,0.2-4.6,0.8-6.6,1.8s-3.8,2.7-4.8,4.7s-1.4,4.4-1.2,6.5L100.6,530z"/>
</g>
<g>
	<path d="M283.2,547.2c-1.2-1.8-2.1-3.8-2.6-5.9c-0.5-2.1-0.5-4.399,0.4-6.399s2.8-3.4,4.7-4.2c1.9-0.9,4-1.3,6.1-1.601
		c-2.1,0.4-4.1,0.9-6,1.801c-1.9,0.899-3.5,2.3-4.3,4.199c-0.8,1.9-0.7,4-0.2,6c0.6,2,1.5,3.801,2.7,5.5L283.2,547.2z"/>
</g>
<g>
	<path d="M261.7,540.1c-0.5-2.6-0.4-5.199,0.1-7.8c0.5-2.5,1.5-5,2.8-7.2c2.7-4.399,6.9-7.699,11.4-10.1c-4.4,2.5-8.4,5.9-11,10.3
		c-1.3,2.2-2.1,4.601-2.5,7.101s-0.4,5,0.2,7.399L261.7,540.1z"/>
</g>
<g>
	<path d="M487.3,537.2c-0.6-3-0.7-6.101-0.1-9.101c0.6-3,2.1-5.899,4.5-7.8c2.399-2,5.399-2.899,8.3-3.3c3-0.4,6-0.2,9,0.2
		c-3-0.3-6-0.4-8.9,0c-2.899,0.399-5.8,1.5-8.1,3.399c-2.2,1.9-3.6,4.7-4.1,7.601c-0.5,2.899-0.301,5.899,0.3,8.7L487.3,537.2z"/>
</g>
<g>
	<path d="M503.3,549.5c-1.1-2.6-1.899-5.4-2.3-8.2s-0.3-5.8,0.9-8.399c0.6-1.301,1.5-2.5,2.6-3.4s2.4-1.5,3.8-1.9
		c2.7-0.8,5.601-0.8,8.4-0.6c-2.8-0.1-5.7,0-8.3,0.9c-1.301,0.399-2.601,1.1-3.601,2c-1.1,0.899-1.899,2-2.399,3.3
		c-1.101,2.5-1,5.399-0.601,8.1c0.5,2.7,1.3,5.4,2.5,7.9L503.3,549.5z"/>
</g>
<g>
	<path d="M329.1,527.1c-0.5-2-0.399-4,0-5.899c0.4-1.9,1.301-3.7,2.5-5.2c1.2-1.5,2.801-2.7,4.4-3.7c1.7-1,3.5-1.7,5.3-2.2
		c-1.8,0.601-3.6,1.4-5.1,2.4c-1.601,1-3,2.3-4.2,3.8c-1.1,1.5-1.9,3.3-2.2,5.101c-0.3,1.8-0.2,3.699,0.3,5.5L329.1,527.1z"/>
</g>
<g>
	<path d="M758,529.9c-2.5-2-4.8-4.2-6.7-6.801c-1.8-2.6-3.3-5.6-3.3-8.8c0-1.6,0.4-3.2,1.2-4.6c0.8-1.4,1.8-2.601,3-3.7
		c2.399-2.1,5.2-3.6,8.1-4.8c-2.899,1.3-5.6,2.8-7.899,4.899c-1.101,1.101-2.101,2.301-2.801,3.7c-0.699,1.4-1.1,2.9-1,4.4
		c0.101,3.1,1.601,6,3.4,8.399c1.9,2.4,4.2,4.601,6.6,6.4L758,529.9z"/>
</g>
<g>
	<path d="M802.7,513c-2.7-0.4-5.101-1.3-7.4-2.8c-2.2-1.4-4.1-3.5-5.1-5.9c-1.101-2.399-1.3-5.1-1.101-7.7c0.2-2.6,0.9-5.1,1.7-7.5
		c-0.8,2.5-1.399,5-1.5,7.5c-0.1,2.5,0.2,5.2,1.3,7.4c1.101,2.3,2.9,4.2,5.101,5.5s4.6,2.1,7.1,2.4L802.7,513z"/>
</g>
<g>
	<path d="M729.6,527.2c-1.1-2.601-1.5-5.4-1.5-8.2s0.601-5.6,1.9-8c1.3-2.5,3.1-4.6,5.3-6.2c2.2-1.7,4.601-2.899,7.101-4
		c-2.5,1.101-4.9,2.4-7,4.101c-2.101,1.699-3.9,3.8-5,6.3c-1.2,2.399-1.7,5.1-1.601,7.8c0.101,2.7,0.601,5.3,1.7,7.7L729.6,527.2z"
		/>
</g>
</svg>
