<?xml version="1.0" encoding="utf-8"?>
<!-- Generator: Adobe Illustrator 15.0.0, SVG Export Plug-In . SVG Version: 6.00 Build 0)  -->
<!DOCTYPE svg PUBLIC "-//W3C//DTD SVG 1.1//EN" "http://www.w3.org/Graphics/SVG/1.1/DTD/svg11.dtd">
<svg version="1.1" id="Layer_1" xmlns="http://www.w3.org/2000/svg" xmlns:xlink="http://www.w3.org/1999/xlink" x="0px" y="0px"
	 width="822px" height="567px" viewBox="0 0 822 567" enable-background="new 0 0 822 567" xml:space="preserve">
<path fill="#FFFFFF" stroke="#000000" stroke-miterlimit="10" d="M745.4,118.1c1.399,101.3-49.601-9.4-50.101-10.6l0,0
	c-0.2-1.3-0.399-2.6-0.5-4c0,0-11.1-89.7,43.101-6C737.8,97.5,741.2,105,745.4,118.1z"/>
<path fill="#FFFFFF" stroke="#000000" stroke-miterlimit="10" d="M745.4,118.1c10.5,33.2,25.5,103,1.5,182.9
	c0,0-27.101,66.3-79.2,57.4C681,304,648.6,273.7,648.6,273.7S715,259.5,695.4,107.4C695.8,108.7,746.8,219.4,745.4,118.1z"/>
<path fill="#FFFFFF" stroke="#000000" stroke-miterlimit="10" d="M465.7,503.2c-0.3-7.3,0.7-13,0.7-13l1.699-3.7
	c5.101-6.7,11.801-10.3,18.601-12.1c2-0.5,4-0.9,6-1.2c0,0,29,31.2,109.6,18.899c6.4,9.2,10.2,35.5-18.5,32.301
	c0,0-51.2-3.5-71.1,7.699c-12.8,2.4-21.2,1.101-21.2,1.101C470.9,533,466.3,515.8,465.7,503.2z"/>
<path fill="#FFFFFF" stroke="#000000" stroke-miterlimit="10" d="M404.7,472.9c0,0,7.1-11.101,23.6-15.7c0,0,13.8,21.5,58.4,17.2
	c-6.8,1.8-13.5,5.399-18.601,12.1l-1.699,3.7c0,0-1,5.7-0.7,13c-4.101-0.9-26.8-5.5-36.3,0.1c-9.4,5.601-11.4,0-11.4,0
	c-7.2,2.7-14.5,0.601-16.1,0.101c-0.601-6.601-1.7-11.4-1.7-11.4C400.5,486.9,402.2,480.1,404.7,472.9z"/>
<path fill="#FFFFFF" stroke="#000000" stroke-miterlimit="10" d="M517.6,436.5l-15.5,36.4c-3-0.101-6.199,0-9.399,0.399
	c-2,0.2-4,0.601-6,1.2c-44.601,4.3-58.4-17.2-58.4-17.2c8-2.2,18.101-2.899,30.7,0c0,0,3.5-1.8-4.1-11.3
	C474.7,445.2,498.5,442.9,517.6,436.5z"/>
<path fill="#FFFFFF" stroke="#000000" stroke-miterlimit="10" d="M454.9,445.9c-21.801,0.699-38.601-0.5-38.601-0.5
	c5.8-12.101,11-21.4,11-21.4c22.4,6.7,80.5-7.7,80.5-7.7c2.8,7.9,6.3,14.601,9.8,20.3l0,0C498.5,442.9,474.7,445.2,454.9,445.9z"/>
<path fill="#FFFFFF" stroke="#000000" stroke-miterlimit="10" d="M424,211.9c3.3,61.4-28.9,81.6-28.9,81.6
	c29.601-49.7,0.4-73.4,0.4-73.4C401.9,217.9,411.7,214.8,424,211.9z"/>
<path fill="#FFFFFF" stroke="#000000" stroke-miterlimit="10" d="M481.8,203.1c-6.3,112.1-49.7,127.6-49.7,127.6
	c26.5-25.5,21-124.5,21-124.5C462.1,204.8,471.8,203.7,481.8,203.1z"/>
<path fill="#FFFFFF" stroke="#000000" stroke-miterlimit="10" d="M542.3,206.4L542.3,206.4c-19.3,87.4-50.8,79.1-50.8,79.1
	c33.3-44.5,16.3-81.6,16.3-81.6v-1.2C519.2,203.1,530.8,204.3,542.3,206.4z"/>
<path fill="#FFFFFF" stroke="#000000" stroke-miterlimit="10" d="M342,462.6c0,0,3.8-15.5,5.6-23.6c1.9-9.1-8-18.9-8-18.9
	c11.4-1.399-20.8-29.8-20.8-29.8C333.4,392.4,305.3,359.4,305.3,359.4c33.7,2.3-31.6-59.801-31.6-59.801l0,0
	c53.1-8.1,102.6-54.1,102.6-54.1c-20.7,5.1-42.6-11.3-42.6-11.3c18,5.3,43.8-6.3,53.5-11.2c0,0,2.899-1.2,8.2-2.9
	c0,0,29.3,23.7-0.4,73.4c0,0,32.2-20.2,28.9-81.6c8.6-2.1,18.5-4.1,29.1-5.7c0,0,5.4,99.1-21,124.5c0,0,43.4-15.5,49.7-127.6
	c8.5-0.5,17.2-0.7,26.1-0.4v1.2c0,0,17,37.1-16.3,81.6c0,0,31.5,8.3,50.8-79.1l0,0c39.101,7.4,77.9,26.5,106.2,67.4
	c0,0,32.4,30.3,19.1,84.7c-7.5,30.8-29.8,69.4-81,114.7c0,0,0.301,4.899,13.9,16.899c0.6,0.5,1.2,1.2,1.7,2
	C521.5,504.4,492.6,473.2,492.6,473.2c3.2-0.4,6.4-0.5,9.4-0.4c9.9,0.4,17.6,3,17.6,3l28.4,4.3c0,0-1.7-1.6-14.8-23.899
	c0,0-7.8-6.8-15.7-19.8c-3.4-5.601-6.9-12.4-9.8-20.301c0,0-58.101,14.5-80.5,7.7c0,0-5.2,9.2-11,21.4
	c-4.101,8.5-8.5,18.399-11.601,27.5c-2.5,7.3-4.3,14-4.399,19.2c0,0,1.1,4.8,1.7,11.399c-0.2-0.1-0.301-0.1-0.301-0.1
	c-70,14-101.899-12.7-108.399-19.2c2.6-0.8,5.3-1.2,8.2-1.4c18.701-1,40.6,10.301,41.3,10.7C342.6,493.1,339.8,481.3,342,462.6z"/>
<path fill="#FFFFFF" stroke="#000000" stroke-miterlimit="10" d="M402,503.5c1.4,14.7,0.5,38.5-19.4,39.9
	c0,0-45.399-7.7-66.399,0.699c-24.2,3.2-19.9-0.699-19.9-0.699c-9.9,3.1-16.2,0.5-19.9-4.601c-6-8.5-4.9-23.8-0.6-32.3
	c0.7-4.3,1.9-7.8,3.4-10.8c3.3-6.2,8.3-9.8,14-11.5c6.5,6.5,38.399,33.2,108.399,19.2C401.6,503.4,401.8,503.4,402,503.5z"/>
<path fill="#FFFFFF" stroke="#000000" stroke-miterlimit="10" d="M204.5,169.8c0.7,4.4,5.1,19.6,31.9,12.4c4.4-7.6,6.5-16,6.9-23.6
	c0.6-12.3-3.4-22.5-9.9-24.5c-6.1-1.8-13,1.9-18.8,10.4C210.4,150.6,206.8,159.2,204.5,169.8z M341.7,175.2
	c16.5,13.3,39.2,27.6,58.6,26.1c0,0-7.1,15.9-50.3,13.3c0,0,25.8,9.4,41.3,6.3c0,0-1.399,0.8-3.899,2.1
	c-9.7,4.9-35.5,16.5-53.5,11.2c0,0,21.899,16.4,42.6,11.3c0,0-49.6,46-102.6,54.1c-5.3,0.801-10.7,1.301-16.1,1.2
	c11.3-9.3,22.7-28.5,21.3-51.1c-6.5-100.9-95.1-17.5-95.1-17.5l-1.4,0.3c-2.1-6.2-9.6-22.6-26.3-12.6c0.1-7-1.2-49.7-44.8-38.5
	C97.3,185,91,241.3,103.2,254c-13.9-13.8-29.9-32.1-29.5-43.5c0,0,10.8-2,17.6,3.6c0,0-19.5-26.1-17.6-31.4L95,192
	c0,0-12.3-16.4-9.7-23.7c0,0,36.6,5.2,50.1-18c0.2-0.4,0.3-0.7,0.5-1c5.2,12.1,11,20.8,21.8,20.8c4.3,0,7.9-2.8,11.3-5.1
	c2.7-7.1,4.1-14.1,4.5-20.5c0.9-13.5-3-24-9.5-25.9c-5.4-1.6-10.3,1.4-15.6,8.5l-0.2-0.2c0,0,13.5-43.9,71.5-52.3l0.1-0.8
	c11.3,1.8,25.7,2.3,42.7-0.7c1.4,0.5,2.8,1,4.1,1.5c8,3.1,15,6.4,20.8,9.6c2.4,1.3,4.6,2.6,6.6,3.8c8.6,5.2,13.2,9.1,13.2,9.1
	c-19.1,44,10.899,57,11.6,57.3l0,0C321.3,156.9,330,165.8,341.7,175.2z"/>
<path fill="#FFFFFF" stroke="#000000" stroke-miterlimit="10" d="M360.9,51.9c0,0,9.899,15.3,9.8,43.6
	c-0.2,48.1-16.101,63.8-29,79.7c-11.7-9.4-20.4-18.3-22.7-20.8C319,84.1,360.9,51.9,360.9,51.9z"/>
<path fill="#FFFFFF" stroke="#000000" stroke-miterlimit="10" d="M233.1,374.8c-5.7,3-17-27.7-17.7-32.5
	c-4.5-31.7-50.9-33.2-51.8-33.2c2.2-1.5,4.1-3.199,5.8-5.1c59.8,11.6,75.1,7.5,88.3-3.3c5.4,0,10.7-0.4,16.1-1.2l0,0
	c0,0,65.3,62.2,31.6,59.8c0,0,28.1,33,13.5,30.9c0,0,32.1,28.399,20.8,29.8c0,0,9.899,9.8,8,18.9c-0.3,1.5-7-0.801-15-4.301
	c-8.101-3.5-17.4-8.199-22.5-11.199c-7.5-4.5-4.8,31.399-30.5-18.5c-7.2-13.9-9-8.9-9-8.9c-12.8,15.5-34.2-38.2-34.2-38.2
	C236.4,369,235.1,373.8,233.1,374.8z"/>
<path fill="#FFFFFF" stroke="#000000" stroke-miterlimit="10" d="M318.5,153.9l-0.1-0.1C318.4,153.8,318.5,153.8,318.5,153.9z
	 M318.5,153.9c0,0,0.1,0.1,0.2,0.2c0.1,0.1,0.2,0.2,0.3,0.3c-0.7-0.3-30.7-13.3-11.6-57.3c0,0,21.6-38.6,53.6-45.2
	c0,0-41.9,32.2-41.9,102.5l0,0c-0.1-0.1-0.199-0.2-0.3-0.3C318.6,154,318.6,153.9,318.5,153.9z"/>
<path fill="#FFFFFF" stroke="#000000" stroke-miterlimit="10" d="M293.2,484.2c-5.8,1.8-10.7,5.3-14,11.5l0,0
	c-37.2,22.399-90.1-11.3-90.1-11.3V484c13.4-0.2,25.5,2.4,25.5,2.4c30.6,2.1,43-63.5,43-63.5C242.8,410.4,233.3,375.6,233,374.8
	c1.9-1,3.2-5.899,3.2-17c0,0,21.4,53.7,34.2,38.2c0,0,1.9-5,9,8.9c25.7,50,23,14.1,30.5,18.5c5.1,3,14.399,7.699,22.5,11.199
	L301.2,482.7C298.6,483,295.8,483.4,293.2,484.2z"/>
<path fill="#FFFFFF" stroke="#000000" stroke-miterlimit="10" d="M294.1,88c-2-1.2-4.2-2.5-6.6-3.8c-1.2-4.9-3.1-9.5-5.5-13.8l0,0
	c-0.1-0.7-2.5-19.8-7.2-26.8C274.8,43.5,291.9,37.5,294.1,88z"/>
<path fill="#FFFFFF" stroke="#000000" stroke-miterlimit="10" d="M282,70.4c2.4,4.3,4.3,8.9,5.5,13.8c-5.8-3.2-12.8-6.5-20.8-9.6
	c-2.9-8.3-7-14.6-11.7-19.4l0,0c-0.3-0.5-5.7-8.2-14.4-22.3C240.6,32.8,268.7,46.4,282,70.4C282,70.3,282,70.4,282,70.4z"/>
<path fill="#FFFFFF" stroke="#000000" stroke-miterlimit="10" d="M279.2,495.7L279.2,495.7c-1.6,3-2.7,6.5-3.4,10.8
	c-4.3,8.5-5.4,23.9,0.6,32.3l-0.6,0.9c-1.5,4.7-30.4-3.8-30.4-3.8c-13.2-3.2-30.9,0.399-37.5,2l0,0l-22.3,3.899
	c-13.6,3.7-18.3,0-18.3,0c-30.6-48.399-2.3-57.399,21.8-57.7v0.4C189.1,484.4,242,518.1,279.2,495.7z"/>
<path fill="#FFFFFF" stroke="#000000" stroke-miterlimit="10" d="M279,249.7c1.4,22.6-9.9,41.7-21.3,51.1
	c-13.2,10.8-28.4,15-88.3,3.3c9.6-10.399,11.3-24.6,11.6-29.2c1.9-1.9,3.7-4.5,5.6-8c2.7-5.2,7.4-18.1-4.9-18.6
	c0,0,3.7-1.1,1.5-13.6c0,0-0.2-0.9-0.7-2.2l1.4-0.3C183.9,232.2,272.5,148.8,279,249.7z"/>
<path fill="#FFFFFF" stroke="#000000" stroke-miterlimit="10" d="M266.7,74.5c-1.3-0.5-2.7-1-4.1-1.5c-3.8-1.3-7.7-2.6-11.8-3.7
	c-0.4-0.5-15.1-18.2-36.2-29.6c0,0,23.7-2,40.4,15.4l0,0C259.7,60,263.8,66.3,266.7,74.5z"/>
<path fill="#FFFFFF" stroke="#000000" stroke-miterlimit="10" d="M250.8,69.3c4.1,1.1,8.1,2.4,11.8,3.7c-17,3-31.4,2.5-42.7,0.7
	c-18.6-3-28.9-9.5-28.9-9.5c6.6-0.7,13.1-0.9,19.3-0.8c11.7,0.2,22.6,1.7,32.5,3.9C245.6,67.9,248.2,68.5,250.8,69.3z"/>
<path fill="#FFFFFF" stroke="#000000" stroke-miterlimit="10" d="M233.4,134.1c6.5,1.9,10.4,12.2,9.9,24.5l0,0
	c-4.8-22-28.3-13.9-28.3-13.9l-0.3-0.2C220.4,136.1,227.3,132.3,233.4,134.1z"/>
<path fill="#FFFFFF" stroke="#000000" stroke-miterlimit="10" d="M243.2,158.6L243.2,158.6c-0.3,7.6-2.4,16-6.8,23.6
	c-26.8,7.2-31.2-8-31.9-12.4c2.4-10.6,6-19.2,10.2-25.3l0.3,0.2C214.9,144.7,238.4,136.7,243.2,158.6z M226.4,165.8
	c2.6-2.4,2.3-9.6,2.3-9.6c-0.1-2.6-1.1-4.6-2.9-5.5c-3.6-1.9-9.3,1.9-12.6,8.3c-3.3,6.5-3.1,13.2,0.5,15.1
	C217.4,176,223,172.3,226.4,165.8z"/>
<path fill="#FFFFFF" stroke="#000000" stroke-miterlimit="10" d="M228.7,156.3c0,0,0.2,7.2-2.3,9.6c-3.3,6.5-9,10.2-12.6,8.3
	c-3.6-1.9-3.9-8.6-0.5-15.1c3.3-6.5,9-10.2,12.6-8.3C227.6,151.6,228.6,153.7,228.7,156.3z"/>
<path fill="#FFFFFF" stroke="#000000" stroke-miterlimit="10" d="M219.9,73.7l-0.1,0.8c-57.9,8.4-71.5,52.3-71.5,52.3
	s-40.2-45.2,6.8-113c0,0,50.2,28.3,55.2,49.5c-6.2-0.1-12.6,0.1-19.3,0.8C191.1,64.2,201.4,70.7,219.9,73.7z"/>
<path fill="#FFFFFF" stroke="#000000" stroke-miterlimit="10" d="M181,274.8c-3,3-6,4.2-8.9,4.2c-11.2,0-21.3-17.8-23.3-21.5
	c1-1.1,1.9-2.7,2.3-4.8c1.2,0.5,2.9,0.7,5.2,0.4c0,0,14.1-9.6,25.4-4.9c12.2,0.5,7.6,13.4,4.9,18.6
	C184.8,270.3,182.9,272.9,181,274.8z"/>
<path fill="#FFFFFF" stroke="#000000" stroke-miterlimit="10" d="M151.1,252.8c-2.4-1-2.8-3.1-2.6-4.5c0.3-2.3,0-7.8-2.2-10.5
	c-2.8-3.4-2.8-6.6-2.8-6.6c4.7-5.4,9-9,12.7-11.3c16.7-10.1,24.2,6.4,26.3,12.6c0.5,1.3,0.7,2.2,0.7,2.2c2.2,12.4-1.5,13.6-1.5,13.6
	c-11.3-4.7-25.4,4.9-25.4,4.9C154,253.5,152.3,253.2,151.1,252.8z"/>
<path fill="#FFFFFF" stroke="#000000" stroke-miterlimit="10" d="M181,274.8c-0.3,4.6-2,18.8-11.6,29.2c-1.7,1.8-3.6,3.5-5.8,5.1
	l0,0c-1.3,0.9-2.6,1.7-4,2.4c0,0-14.2,13.3-32-0.5c0,0-11.3-10.3-15.8-18.3c-1.8-3.101,1.3-20.6,7.8-23.1
	c12.8-4.5,14.4-11.3,14.6-12.9c1.4,1.2,3,2.4,4.7,3.7l0,0c0.1,0.4,3.1,9-9.3,14.1c0,0-0.7,2.3-0.3,5.3c0.6,4.3,3.7,10.101,14.9,12.7
	c0,0,13.3,2.6,27.7-12.8V279C175,279.1,178.1,277.8,181,274.8z"/>
<path fill="#FFFFFF" stroke="#000000" stroke-miterlimit="10" d="M164.2,118.5c6.5,2,10.4,12.4,9.5,25.9
	c-11.2-25-24.7-15.2-29.7-10.4c1.6-2.7,3.1-5,4.6-7C153.9,119.9,158.7,116.9,164.2,118.5z"/>
<path fill="#FFFFFF" stroke="#000000" stroke-miterlimit="10" d="M172.1,279v0.7c-14.4,15.399-27.7,12.8-27.7,12.8
	c-11.2-2.5-14.3-8.3-14.9-12.7c-0.5-3,0.3-5.3,0.3-5.3c12.4-5.1,9.5-13.7,9.3-14.1c0.3,0,6.3,1,9.8-2.8
	C150.8,261.2,160.9,279,172.1,279z"/>
<path fill="#FFFFFF" stroke="#000000" stroke-miterlimit="10" d="M173.7,144.4c-0.4,6.3-1.8,13.3-4.5,20.5c-3.4,2.4-7,5.1-11.3,5.1
	c-10.8,0-16.6-8.7-21.8-20.8c2.9-5.9,5.5-10.9,8-15.2C149,129.2,162.5,119.4,173.7,144.4z M159.9,139.9c0-2.6-0.9-4.6-2.6-5.5
	c-3.3-1.7-8.3,1.7-11.3,7.5c-3,5.8-2.8,11.9,0.5,13.6s8.3-1.7,11.3-7.5C159.1,145.7,159.9,139.9,159.9,139.9z"/>
<path fill="#FFFFFF" stroke="#000000" stroke-miterlimit="10" d="M157.3,134.4c1.7,0.9,2.6,2.9,2.6,5.5c0,0-0.7,5.8-2.1,8.1
	c-3,5.8-8.1,9.2-11.3,7.5c-3.3-1.7-3.5-7.8-0.5-13.6C148.9,136.1,154,132.7,157.3,134.4z"/>
<path fill="#FFFFFF" stroke="#000000" stroke-miterlimit="10" d="M111.4,181.4c43.6-11.2,44.9,31.6,44.8,38.5
	c-3.8,2.3-8,5.9-12.7,11.3c0,0-36.9,2.2-9.2,25.5c-0.2,1.6-1.9,8.4-14.6,12.9c-3.7-3.3-9.9-8.9-16.6-15.5l0,0
	C90.9,241.2,97.1,185,111.4,181.4z"/>
<path fill="#FFFFFF" stroke="#000000" stroke-miterlimit="10" d="M148.8,257.6c-3.5,3.8-9.5,2.9-9.8,2.8l0,0
	c-1.8-1.3-3.3-2.5-4.7-3.7c-27.7-23.3,9.2-25.5,9.2-25.5s0,3.2,2.8,6.6c2.2,2.7,2.5,8.2,2.2,10.5c-0.2,1.4,0.2,3.5,2.6,4.5
	C150.7,254.9,149.9,256.4,148.8,257.6z"/>
<g>
	<path d="M141.2,138.1c-2.7,0.9-5.6,1.3-8.4,0.9c-2.9-0.4-5.6-1.6-7.8-3.6c-2.2-1.9-3.8-4.4-4.8-7.1c-1-2.7-1.6-5.5-1.7-8.4h0.1
		c0.7,2.8,1.4,5.5,2.5,8s2.4,5,4.4,6.9c2,1.9,4.6,3.2,7.3,3.7C135.5,138.9,138.4,138.8,141.2,138.1L141.2,138.1z"/>
</g>
<g>
	<path d="M141.9,136.1c-3.6,0.3-7.2-1.1-9.8-3.7c-1.3-1.2-2.4-2.7-3.2-4.4c-0.7-1.7-1.2-3.4-1.4-5.2h0.1c0.7,1.6,1.3,3.3,2.2,4.8
		c0.8,1.5,1.7,3,2.9,4.3c1.2,1.3,2.6,2.3,4.2,3C138.4,135.6,140.2,136.1,141.9,136.1L141.9,136.1z"/>
</g>
<g>
	<path d="M147.4,131.2c-2.5,0.3-5.2-0.5-7.3-2c-1.1-0.8-2.1-1.6-2.8-2.7c-0.7-1.1-1.3-2.3-1.5-3.5h0.1c0.8,1,1.5,2,2.3,3
		c0.8,0.9,1.5,1.9,2.5,2.7c0.9,0.8,2,1.4,3.2,1.9C144.9,130.9,146.2,131.2,147.4,131.2L147.4,131.2z"/>
</g>
<g>
	<path d="M243,158.6c1.4,2.8,3.4,5.3,5.8,7.3c2.3,2,5.1,3.5,8.2,4.2c3,0.7,6.1,0.4,9.1-0.3c3-0.6,5.9-1.9,8.7-3.2l0.1,0.1
		c-2.6,1.8-5.5,3.2-8.5,4.1c-3.1,0.8-6.4,0.9-9.5,0.1c-3.1-0.8-6-2.4-8.3-4.6C246.1,164.1,244.2,161.5,243,158.6L243,158.6z"/>
</g>
<g>
	<path d="M242.2,155c1.5,1,3.1,1.9,4.7,2.6c1.6,0.8,3.3,1.4,5,1.8c1.7,0.4,3.5,0.4,5.2,0.1c1.7-0.3,3.3-1,4.7-2.2l0.1,0.1
		c-1,1.5-2.7,2.7-4.6,3.1c-1.9,0.4-3.8,0.1-5.6-0.3c-1.8-0.5-3.5-1.2-5.1-2.1C245.1,157.2,243.5,156.2,242.2,155L242.2,155z"/>
</g>
<g>
	<path d="M238.5,149.1c1.4,0.5,2.8,0.9,4.3,1.2c1.4,0.3,2.9,0.5,4.3,0.5c1.4-0.1,2.8-0.4,3.9-1.1c0.6-0.4,1-0.8,1.4-1.4
		c0.4-0.6,0.7-1.3,0.9-2h0.1c0.1,1.5-0.5,3.2-1.9,4.2c-1.3,1-3,1.2-4.5,1.1C244.1,151.5,241.2,150.5,238.5,149.1L238.5,149.1z"/>
</g>
<g>
	<path d="M156.2,128.1c-1.1-0.1-2.2-0.3-3.2-0.9c-0.5-0.3-1-0.8-1.1-1.5c-0.1-0.7,0.2-1.3,0.7-1.7h0.1c0,0.6,0,1.1,0.2,1.4
		c0.1,0.3,0.3,0.7,0.6,1.1C154.2,127.2,155.2,127.7,156.2,128.1L156.2,128.1z"/>
</g>
<g>
	<path d="M163.6,129.7c-1.1-0.6-2.2-1.2-3.2-2.1c-0.5-0.4-1-0.9-1.2-1.6c-0.1-0.3-0.2-0.7-0.1-1.1s0.4-0.7,0.7-0.8l0.1,0.1
		c-0.2,0.7,0,1.1,0.2,1.5c0.3,0.4,0.5,1,0.9,1.4C161.8,127.9,162.7,128.8,163.6,129.7L163.6,129.7z"/>
</g>
<g>
	<path d="M232.5,144.9c1.1,0,2.3-0.1,3.4-0.3c1.1-0.2,2.2-0.4,3.3-0.8c1-0.4,2-0.9,2.8-1.5c0.8-0.6,1.5-1.4,2.1-2.5h0.1
		c0,1.2-0.6,2.4-1.5,3.2c-0.9,0.8-2.1,1.2-3.2,1.5C237.1,145.2,234.7,145.2,232.5,144.9L232.5,144.9z"/>
</g>
<g>
	<path d="M224.8,143.2c0.7-0.2,1.4-0.5,2-0.9c0.7-0.3,1.3-0.7,1.8-1.2c0.6-0.5,1-1,1.4-1.5s0.8-1.1,1.1-1.8h0.1
		c0.2,0.8,0.1,1.7-0.4,2.4c-0.4,0.7-1.1,1.2-1.8,1.6C227.7,142.6,226.3,143.1,224.8,143.2L224.8,143.2z"/>
</g>
<g>
	<path d="M140.1,243.6c-1.7-4.3-3.8-8.5-6.1-12.5s-4.9-7.9-7.8-11.6c-5.7-7.3-12.6-13.8-20.6-18.4s-17.1-7.3-26.4-7.6
		c-9.3-0.5-18.5,1.3-27.4,4.2v-0.1c8.7-3.4,18-5.4,27.4-5.1c4.7,0.2,9.4,0.9,13.9,2.3c4.5,1.4,8.8,3.3,12.8,5.7
		c8.1,4.8,14.9,11.4,20.6,18.8c2.8,3.7,5.4,7.6,7.7,11.7C136.5,235,138.5,239.2,140.1,243.6L140.1,243.6z"/>
</g>
<g>
	<path d="M136.2,246.6c-5.5-4-11.2-7.6-17.1-11s-11.9-6.5-18.2-9.1c-6.2-2.6-12.7-4.7-19.4-5.6c-3.3-0.5-6.7-0.6-10-0.1
		s-6.6,1.6-9.3,3.6l-0.1-0.1c1.3-1.1,2.8-2,4.3-2.7c1.6-0.7,3.2-1.2,4.9-1.5c3.4-0.6,6.9-0.6,10.3-0.2c6.8,0.9,13.3,3.2,19.6,5.9
		c6.3,2.7,12.3,5.9,18.1,9.4C125.1,238.7,130.8,242.4,136.2,246.6L136.2,246.6z"/>
</g>
<g>
	<path d="M141.1,255.2c-5.8-1.9-11.6-3.6-17.5-5.2s-11.8-3-17.7-4.1c-6-1.1-12-1.9-18-2.2c-3-0.1-6-0.1-9,0.4
		c-1.5,0.3-2.9,0.7-4.3,1.3c-1.3,0.6-2.6,1.5-3.5,2.8l-0.1-0.1c0.8-1.3,2-2.4,3.3-3.1c1.4-0.7,2.8-1.2,4.3-1.6
		c3-0.7,6.1-0.8,9.2-0.8c6.1,0.1,12.2,1.2,18.1,2.4c6,1.2,11.9,2.7,17.7,4.4C129.6,251.3,135.4,253.1,141.1,255.2L141.1,255.2z"/>
</g>
<g>
	<path d="M176.4,249.6c6-2.8,12.3-4.9,18.8-6.4s13.1-2.4,19.7-2.6c6.6-0.2,13.3,0.4,19.8,2.1c6.4,1.7,12.6,4.3,18.1,8l-0.1,0.1
		c-5.8-3.2-11.9-5.6-18.3-7.1s-13-2.3-19.5-2.2c-6.6,0.1-13.2,0.9-19.6,2.3C188.8,245.1,182.5,247,176.4,249.6L176.4,249.6z"/>
</g>
<g>
	<path d="M180,258.5c7.5-0.9,15-1.2,22.5-1.1s15,0.6,22.5,1.9c7.4,1.3,14.8,3.1,21.6,6.6c3.4,1.7,6.6,3.8,9.4,6.4
		c1.4,1.3,2.7,2.7,3.8,4.2c1.1,1.5,2.1,3.1,3,4.8h-0.1c-3.8-6.5-9.8-11.3-16.5-14.5c-6.7-3.3-13.9-5.3-21.3-6.7
		c-7.4-1.3-14.8-2-22.3-2.2C195,257.7,187.5,257.9,180,258.5L180,258.5z"/>
</g>
<g>
	<path d="M169.3,263.3c6.3,0.8,12.6,1.8,18.9,3c6.2,1.2,12.5,2.7,18.6,4.5c6.1,1.8,12.2,4,17.8,7.1c2.8,1.6,5.5,3.4,7.7,5.8
		c1.1,1.2,2.1,2.5,2.9,3.899c0.7,1.4,1.2,3,1.3,4.601h-0.1c-0.2-1.601-0.8-3.101-1.6-4.4c-0.8-1.3-1.8-2.5-3-3.6
		c-2.3-2.2-4.9-3.9-7.7-5.4c-5.6-3-11.5-5.3-17.5-7.2c-6.1-1.9-12.2-3.5-18.4-4.8C181.8,265.4,175.6,264.3,169.3,263.3L169.3,263.3z
		"/>
</g>
<g>
	<path d="M183.8,121c-0.3-2.9-0.6-5.6-1.4-8.2c-0.7-2.6-1.9-4.9-3.7-6.5c-1.8-1.6-4.2-2.6-6.8-2.9c-2.6-0.4-5.4-0.3-8.3-0.2
		c2.6-1.3,5.4-2.1,8.4-2.2c1.5,0,3.1,0.2,4.5,0.7c1.5,0.5,2.9,1.3,4.1,2.4c2.4,2.2,3.6,5.3,4,8.2C185,115.3,184.7,118.3,183.8,121z"
		/>
</g>
<g>
	<path d="M214.6,121c1.6-2.4,3.6-4.6,5.8-6.6c2.2-2,4.6-3.7,7.2-5.2c2.6-1.4,5.5-2.5,8.5-3s6.2-0.3,9.2,0.6c3,0.9,5.7,2.5,8,4.4
		c2.3,2,4.3,4.2,6,6.6c3.4,4.9,5.8,10.2,7.5,15.8c-2.8-5.1-5.7-10-9.3-14.4c-1.8-2.1-3.7-4.2-5.9-5.8c-2.2-1.7-4.5-3-7.1-3.8
		c-5.1-1.7-10.7-0.7-15.8,1.6C223.5,113.7,218.8,117.1,214.6,121z"/>
</g>
<path fill="none" stroke="#000000" stroke-width="0.25" stroke-miterlimit="10" d="M353.1,70.3c0,0,14.601-29.2,4.801,59"/>
<path fill="none" stroke="#000000" stroke-width="0.25" stroke-miterlimit="10" d="M349.1,108.9c0,0,8.101,25.2-16.399,42.3"/>
<g>
	<path d="M349.8,215c-3.6-1.1-7.2-2.4-10.8-3.7c-3.6-1.3-7.1-2.7-10.5-4.3c-3.5-1.6-6.9-3.3-10-5.4c-1.6-1-3.1-2.2-4.5-3.5
		c-1.3-1.3-2.6-2.9-2.7-4.9c0.2,1.9,1.5,3.5,2.8,4.8c1.4,1.3,2.9,2.4,4.5,3.4c3.2,2,6.601,3.6,10.101,5.1s7,2.8,10.6,4.1
		c3.601,1.2,7.2,2.4,10.8,3.4L349.8,215z"/>
</g>
<g>
	<path d="M333.7,234.6c-2.8-0.8-5.4-1.9-7.9-3.1c-2.5-1.3-5-2.7-7.3-4.4c-4.6-3.3-8.6-7.5-11.1-12.6c2.699,5,6.8,9,11.399,12.2
		c2.3,1.6,4.8,2.9,7.3,4.1c2.5,1.1,5.2,2.1,7.9,2.8L333.7,234.6z"/>
</g>
<g>
	<path d="M358.1,260.9c-4.399,1.3-8.899,2.3-13.399,3c-4.5,0.7-9.101,1-13.7,0.9c-4.6-0.2-9.2-0.9-13.4-2.7
		c-4.199-1.7-8-4.8-10.199-8.8c2.3,4,6.1,6.9,10.3,8.5c4.2,1.7,8.8,2.3,13.3,2.4c4.5,0.1,9.1-0.4,13.5-1.1c4.5-0.8,8.9-1.8,13.2-3.2
		L358.1,260.9z"/>
</g>
<g>
	<path d="M153,253.3c-0.1-1.9,0.1-3.7,0.4-5.5c0.3-1.8,0.8-3.6,1.6-5.3s1.8-3.2,3.2-4.5c1.3-1.3,3-2.2,4.7-2.7
		c-1.7,0.6-3.3,1.6-4.5,2.9c-1.3,1.3-2.2,2.8-2.9,4.5c-0.7,1.7-1.1,3.4-1.3,5.2c-0.2,1.8-0.3,3.6-0.1,5.3L153,253.3z"/>
</g>
<g>
	<path d="M166.5,541.3c-1.6-2.6-2.7-5.3-3.5-8.2c-0.8-2.899-1.1-5.899-0.7-8.8c0.4-2.899,1.5-5.8,3.3-8.2c1.7-2.399,4-4.3,6.5-5.899
		c-2.4,1.6-4.7,3.6-6.3,6c-1.7,2.399-2.7,5.2-3,8.1c-0.3,2.9,0.1,5.8,0.9,8.601c0.8,2.8,2,5.399,3.6,7.8L166.5,541.3z"/>
</g>
<g>
	<path d="M183.5,542.5c-1.6-2.3-2.9-4.8-3.8-7.4c-0.9-2.6-1.3-5.5-0.9-8.199c0.4-2.801,1.9-5.301,3.9-7.2c2-1.9,4.5-3.2,7-4.2
		c-2.5,1.1-4.9,2.4-6.9,4.4c-1.9,1.899-3.3,4.399-3.6,7.1c-0.4,2.7,0.2,5.4,1.1,7.9c0.9,2.5,2.3,4.899,3.9,7L183.5,542.5z"/>
</g>
<g>
	<path d="M295.9,543.7c-1.9-2.5-3.6-5.101-5-7.8c-1.4-2.7-2.6-5.601-3.2-8.7c-0.6-3-0.4-6.4,1.2-9c1.6-2.7,4.5-4.3,7.3-5.3
		c-2.9,1-5.6,2.8-7.1,5.399c-1.5,2.7-1.6,5.9-0.9,8.8c0.6,3,1.9,5.801,3.4,8.4c1.5,2.7,3.2,5.2,5.1,7.5L295.9,543.7z"/>
</g>
<g>
	<path d="M315.8,544.5c-2.1-2.1-3.899-4.4-5.5-6.9c-1.5-2.5-2.8-5.199-3.2-8.199c-0.5-2.9,0.101-6,1.801-8.5
		c1.699-2.4,4.1-4.2,6.699-5.5c-2.5,1.399-4.899,3.199-6.5,5.6c-1.6,2.4-2.1,5.4-1.5,8.2c0.5,2.8,1.801,5.5,3.4,7.899
		c1.6,2.4,3.5,4.601,5.5,6.601L315.8,544.5z"/>
</g>
<g>
	<path d="M491.1,533.6c-2-2.399-3.699-4.899-5.199-7.6s-2.801-5.5-3.5-8.5c-0.801-3-1-6.2-0.2-9.2c0.7-3,2.5-5.7,4.8-7.7
		c-2.3,2-4,4.7-4.6,7.7c-0.7,3-0.301,6.101,0.5,9c0.8,2.9,2.1,5.7,3.699,8.3c1.601,2.601,3.301,5.101,5.301,7.301L491.1,533.6z"/>
</g>
<g>
	<path d="M512.3,532.5c-1.899-2.2-3.5-4.6-5-7.1s-2.8-5.101-3.6-7.9s-1.2-5.8-0.101-8.6c0.5-1.4,1.4-2.601,2.5-3.5
		c1.101-0.9,2.4-1.601,3.801-2.101c-1.301,0.601-2.601,1.3-3.7,2.2c-1.101,0.9-1.9,2.1-2.4,3.5c-1,2.7-0.5,5.7,0.4,8.4
		c0.899,2.699,2.3,5.199,3.8,7.699c1.5,2.4,3.3,4.7,5.1,6.801L512.3,532.5z"/>
</g>
<g>
	<path d="M417.6,503.6c-1.199-3.199-1.8-6.5-1.6-9.8s1.4-6.7,3.5-9.2c2.2-2.6,5.1-4.3,8.1-5.5c3.101-1.199,6.301-1.8,9.601-2.199
		c-3.2,0.5-6.5,1.199-9.5,2.5c-3,1.199-5.8,3.1-7.9,5.6c-2,2.5-3.1,5.7-3.2,8.9c-0.1,3.199,0.601,6.5,1.801,9.399L417.6,503.6z"/>
</g>
<g>
	<path d="M399.8,492.1c0.4-2,1.2-3.899,2.3-5.5c1.101-1.699,2.4-3.199,3.9-4.5c3-2.6,6.6-4.3,10.4-5.3c-3.7,1.2-7.2,3-10.101,5.601
		c-1.399,1.3-2.6,2.8-3.6,4.5c-0.9,1.6-1.7,3.5-1.9,5.3L399.8,492.1z"/>
</g>
<g>
	<path d="M426.9,423.7c4.1-6.7,8.1-13.4,12.399-19.9c4.9-6.1,8.3-13.3,9.601-20.899c1.3-7.7,0.5-15.7-2.301-22.9
		c-2.8-7.3-7.3-13.8-12.5-19.6C439.4,346.1,444,352.6,446.9,359.9c2.899,7.3,3.899,15.3,2.6,23.1c-1.2,7.8-4.6,15.2-9.5,21.3
		c-4.3,6.5-8.2,13.3-12.2,20L426.9,423.7z"/>
</g>
<g>
	<path d="M507.4,416.4c-3.4-10.2-5.801-20.7-7.601-31.301c-1.7-10.6-2.6-21.399-2-32.199c0.3-5.4,1-10.7,2.2-16
		c1.2-5.2,3-10.4,5.6-15.101c2.5-4.7,5.801-9.1,9.801-12.7c4-3.6,8.699-6.399,13.6-8.399c-5,2-9.6,4.899-13.6,8.5
		c-4,3.6-7.2,8-9.7,12.7c-2.5,4.699-4.2,9.8-5.4,15.1c-1.2,5.2-1.8,10.6-2.1,15.9c-0.5,10.699,0.5,21.399,2.2,32
		c1.8,10.6,4.399,21,7.8,31.1L507.4,416.4z"/>
</g>
<g>
	<path d="M345.3,448c1.2-5.4,2.3-10.8,3-16.2c0.3-2.7,0.5-5.5,0.5-8.2c-0.1-1.399-0.2-2.699-0.5-4c-0.3-1.3-1-2.5-2.1-3H346.1
		l-0.1-0.1c-3.4-4.3-6.4-8.9-9.2-13.6c-2.8-4.7-5.399-9.601-7.6-14.601c-4.5-10-7.8-20.6-8.8-31.5c-0.5-5.5-0.4-11,0.6-16.399
		c0.9-5.4,2.6-10.7,5.1-15.5c2.5-4.9,5.7-9.4,9.5-13.301c3.801-4,8-7.5,12.601-10.5c-9,6.101-17,14.101-21.9,23.9
		c-2.5,4.9-4.1,10.1-5,15.5c-0.899,5.4-1,10.9-0.399,16.3c1.1,10.9,4.399,21.4,9,31.3c2.3,5,4.8,9.801,7.699,14.4
		c2.801,4.7,5.9,9.2,9.2,13.5l-0.2-0.1c0.7,0.3,1.301,0.899,1.7,1.5c0.4,0.6,0.7,1.3,0.9,2c0.399,1.399,0.5,2.8,0.6,4.199
		c0.101,2.801-0.1,5.601-0.399,8.301c-0.601,5.5-1.7,10.899-2.9,16.3L345.3,448z"/>
</g>
<g>
	<path d="M191.1,133.8c-1.6,7.3-3.5,14.6-5.7,21.7c-2.1,7.2-4.5,14.3-7.1,21.3c-2.6,7-5.5,14-8.9,20.7s-7.2,13.2-11.7,19.2l-0.1-0.1
		c4-6.3,7.6-12.9,10.9-19.6c3.2-6.7,6.3-13.6,9-20.5c2.7-7,5.2-14,7.4-21.2C187.2,148.3,189.3,141.1,191.1,133.8L191.1,133.8z"/>
</g>
<g>
	<path d="M199.6,136.4c-1.9,7.4-3.7,14.8-5.3,22.3c-1.7,7.4-3.2,14.9-4.6,22.4c-1.4,7.5-2.6,15-3.6,22.6c-1.1,7.5-1.9,15.1-2.2,22.7
		h-0.1c-0.3-7.6,0.4-15.3,1.3-22.9s2.3-15.1,3.8-22.6C191.9,165.9,195.5,151.1,199.6,136.4L199.6,136.4z"/>
</g>
</svg>
