<?xml version="1.0" encoding="utf-8"?>
<!-- Generator: Adobe Illustrator 15.0.0, SVG Export Plug-In . SVG Version: 6.00 Build 0)  -->
<!DOCTYPE svg PUBLIC "-//W3C//DTD SVG 1.1//EN" "http://www.w3.org/Graphics/SVG/1.1/DTD/svg11.dtd">
<svg version="1.1" id="Layer_1" xmlns="http://www.w3.org/2000/svg" xmlns:xlink="http://www.w3.org/1999/xlink" x="0px" y="0px"
	 width="822px" height="567px" viewBox="0 0 822 567" enable-background="new 0 0 822 567" xml:space="preserve">
<path fill="#FFFFFF" stroke="#000000" stroke-miterlimit="10" d="M495.4,11c19.3-3.7,61.1,31.9,44.3,34.9
	c-21,3.8-33.7,14.4-33.7,14.4S488.3,12.4,495.4,11z"/>
<path fill="#FFFFFF" stroke="#000000" stroke-miterlimit="10" d="M669.8,24.3C680.5,28,665,94,665,94s-8.3-19-21-26
	C628.3,59.3,669.8,24.3,669.8,24.3z"/>
<path fill="#FFFFFF" stroke="#000000" stroke-miterlimit="10" d="M620.1,104c0,0,4.601,6.3,0,15.7
	C620.1,119.7,612.9,111.9,620.1,104z"/>
<path fill="#FFFFFF" stroke="#000000" stroke-miterlimit="10" d="M620.1,119.7c4.601-9.3,0-15.7,0-15.7
	C612.9,111.9,620.1,119.7,620.1,119.7z M619.8,101.6c4,0,7.2,4.6,7.2,10.2c0,5.3-2.8,9.6-6.4,10.1c-0.199,0-0.5,0.1-0.699,0.1
	c-4,0-7.2-4.6-7.2-10.2c0-5.3,2.8-9.6,6.399-10.1C619.3,101.6,619.6,101.6,619.8,101.6z"/>
<path fill="#FFFFFF" stroke="#000000" stroke-miterlimit="10" d="M619,101.1c13.2-1.5,25,8.9,25,8.9c-9,8-16.8,11.5-23.3,12.5
	l-0.101-0.7c3.601-0.5,6.4-4.9,6.4-10.1c0-5.6-3.2-10.2-7.2-10.2c-0.3,0-0.5,0-0.7,0.1L619,101.1z"/>
<path fill="#FFFFFF" stroke="#000000" stroke-miterlimit="10" d="M619.8,121.9c0.3,0,0.5,0,0.7-0.1l0.1,0.7
	c-13.8,2.2-21.699-6.5-21.699-6.5c6.1-10.2,13.3-14.1,20-14.9l0.1,0.6c-3.6,0.5-6.4,4.9-6.4,10.1
	C612.7,117.4,615.9,121.9,619.8,121.9z"/>
<path fill="#FFFFFF" stroke="#000000" stroke-miterlimit="10" d="M522,110c0,0,12.2-10.8,25.7-8.8v0.2c-0.2,0-0.5,0-0.7,0
	c-4,0-7.2,4.8-7.2,10.6c0,5.5,2.9,10.1,6.5,10.6v0.2C539.5,121.8,531.4,118.4,522,110z"/>
<path fill="#FFFFFF" stroke="#000000" stroke-miterlimit="10" d="M546.9,119.7c0,0,7.199-7.7,0-15.7
	C546.9,104,542.3,110.3,546.9,119.7z M546.9,101.3c0.3,0,0.5,0,0.699,0c3.601,0.6,6.5,5.1,6.5,10.6c0,5.9-3.199,10.6-7.199,10.6
	c-0.2,0-0.5,0-0.7,0c-3.601-0.5-6.5-5-6.5-10.6C539.7,106.1,542.9,101.3,546.9,101.3z"/>
<path fill="#FFFFFF" stroke="#000000" stroke-miterlimit="10" d="M546.9,104c7.199,7.9,0,15.7,0,15.7
	C542.3,110.3,546.9,104,546.9,104z"/>
<path fill="#FFFFFF" stroke="#000000" stroke-miterlimit="10" d="M546.9,122.5c4,0,7.199-4.8,7.199-10.6c0-5.5-2.8-10-6.5-10.6v-0.2
	c6.601,1,13.4,5,19.301,14.8c0,0-7.5,8.4-20.801,6.7v-0.2C546.4,122.5,546.7,122.5,546.9,122.5z"/>
<path fill="#FFFFFF" stroke="#000000" stroke-miterlimit="10" d="M607,145.7c-11.7-0.7-20,15.7-20,15.7c-5.7-13-22.3-15.7-22.3-15.7
	C587,124.7,607,145.7,607,145.7z"/>
<path fill="#FFFFFF" stroke="#000000" stroke-miterlimit="10" d="M539.7,45.9c16.8-3-25-38.6-44.3-34.9
	C488.3,12.4,506,60.3,506,60.3S518.7,49.7,539.7,45.9z M495.4,4c0,0,31.6,6.8,56.899,39.7c0,0,39.7-9.7,79.101,16.9
	c0,0,34.1-50,48.6-43.3c0,0,2.1,56.8-8.8,83.7c0,0,36.2,57.2-29,104.3c0,0,29,33.9,14.5,79.2c0,0-15.2,38.2,7.2,45.3
	C684.8,336.5,739.8,340.3,758,339.9c33.6-0.7,77.9,61.699-57.9,53.8l-76-10.101c0,0,7.2,53.801-54.3,50.5c0,0-76,0-94.1-16.8
	l-124.3,1.3c0,0,9.3,37.2-43.4,18.601L172.2,415.6c2.9,11.301,28.4,75.9,220.3,42.101c0,0,112.1-10.101,126.6,77.399
	c0,0,0,53.801-79.6,0c0,0-46.1-10.5-217.1,0c-64.8,4-202.6-23.6-159.2-205.199c0,0,21.7-211.9,354.6-154.7c0,0,64,14.1,56.5-38.6
	c-2.2-15.1,14-69,28.5-72.3C503,64,477.3,0.6,495.4,4z M665,94c0,0,15.5-66,4.8-69.7c0,0-41.5,35-25.8,43.7C656.7,75,665,94,665,94z
	 M644,110c0,0-11.8-10.5-25-8.9c-6.8,0.8-13.9,4.7-20,14.9c0,0,7.8,8.8,21.7,6.5C627.2,121.5,635,118,644,110z M587,161.3
	c0,0,8.3-16.3,20-15.7c0,0-20-21-42.3,0C564.7,145.7,581.3,148.3,587,161.3z M546.2,122.7c13.3,1.7,20.8-6.7,20.8-6.7
	c-5.9-9.8-12.8-13.9-19.3-14.8c-13.5-2-25.7,8.8-25.7,8.8C531.4,118.4,539.5,121.8,546.2,122.7z"/>
<g>
	<path d="M552.3,181.5c3.8,0.7,7.601,1,11.4,0.6c3.8-0.2,7.5-1,10.899-2.7c3.4-1.7,6.2-4.3,8.101-7.5c2-3.2,3.1-6.9,3.8-10.6l1,0.1
		c0,3.7,0.8,7.5,2.4,10.9c1.6,3.4,4.1,6.3,7.399,8.1c3.3,1.8,7.101,2.5,10.8,2.4c3.801,0.2,7.601-0.4,11.301-1.1
		c-3.7,1.1-7.5,1.9-11.301,2.1c-3.899,0-7.899-0.7-11.3-2.6c-3.5-1.9-6.2-5-7.899-8.5c-1.601-3.6-2.4-7.4-2.4-11.4l1,0.1
		c-0.7,3.8-1.9,7.6-3.9,11c-2,3.3-5,6.1-8.5,7.9c-3.5,1.8-7.399,2.6-11.3,2.8C559.9,183.1,556,182.6,552.3,181.5z"/>
</g>
<g>
	<path d="M351.2,418.7c-1.4-1.4-2.9-2.601-4.601-3.7c-1.699-1-3.5-1.9-5.399-2.4c-1.9-0.5-3.9-0.6-5.9-0.1
		c-1.899,0.4-3.7,1.4-5.3,2.7c1.5-1.3,3.3-2.4,5.2-3c2-0.5,4.1-0.5,6.1-0.101c2,0.4,3.9,1.2,5.7,2.2s3.4,2.2,4.9,3.601L351.2,418.7z
		"/>
</g>
<g>
	<path d="M624.7,383.6c-0.9,3.301-2.101,6.5-3.4,9.7s-2.8,6.2-4.6,9.2c-1.8,2.9-3.8,5.7-6.3,8.1c-2.5,2.301-5.5,4.2-8.9,4.801
		c3.4-0.601,6.3-2.601,8.7-4.9c2.399-2.4,4.399-5.2,6.1-8.1c1.7-2.9,3.101-6,4.3-9.2c1.2-3.2,2.301-6.4,3.101-9.7L624.7,383.6z"/>
</g>
<g>
	<path d="M277.6,383.1c5.6-5.699,10.5-12.1,14.8-18.899c4.3-6.8,7.9-14,10.5-21.601c2.6-7.6,4.2-15.5,4.3-23.6
		c0.2-8-1.101-16.1-3.8-23.6c-1.3-3.801-3-7.4-4.9-11c-1.9-3.601-4-7-6.3-10.2c-4.7-6.5-10.4-12.3-17.1-16.8
		c-6.6-4.5-14.4-7.5-22.4-8.2c-8-0.7-16.1,0.8-23.6,3.8c7.4-3,15.6-4.6,23.6-3.9c8.1,0.6,15.8,3.6,22.5,8.1
		c6.7,4.5,12.5,10.3,17.3,16.8c2.4,3.2,4.5,6.7,6.4,10.2c2,3.5,3.7,7.2,5,11c2.7,7.6,4.1,15.7,4,23.8
		c-0.101,8.1-1.601,16.1-4.2,23.8c-2.6,7.7-6.2,15-10.4,21.8c-4.3,6.801-9.2,13.301-14.9,19.101L277.6,383.1z"/>
</g>
<g>
	<path d="M599.3,370.1c1.101,1.101,2,2.4,2.3,4c0.4,1.5,0.101,3.2-0.6,4.5c-0.7,1.4-1.8,2.5-2.9,3.4c-1.1,1-2.399,1.8-3.699,2.5
		c-2.601,1.4-5.301,2.5-8.101,3.4c-2.8,0.899-5.6,1.699-8.399,2.399c2.8-0.8,5.6-1.6,8.399-2.6c2.7-1,5.4-2.2,7.9-3.601
		c1.2-0.699,2.399-1.5,3.5-2.5c1.1-0.899,2-2,2.6-3.3c0.601-1.3,0.8-2.7,0.4-4c-0.4-1.3-1.2-2.5-2.2-3.399L599.3,370.1z"/>
</g>
<g>
	<path d="M617.4,377c-0.601,2.2-1.4,4.2-2.4,6.2s-2.1,3.899-3.3,5.7c-1.3,1.8-2.8,3.5-4.5,4.899c-1.7,1.4-3.601,2.5-5.7,3.2
		c2.1-0.8,3.9-2,5.6-3.4c1.601-1.5,3-3.1,4.2-5c1.2-1.8,2.2-3.699,3.101-5.699c0.899-2,1.6-4.101,2.1-6.101L617.4,377z"/>
</g>
<g>
	<path d="M785.9,380.3c0.6-3.2,0.6-6.7-0.7-9.7c-0.601-1.5-1.601-2.899-2.9-3.899s-2.899-1.7-4.5-2c-3.3-0.7-6.7-0.5-10,0.1
		c-3.3,0.601-6.6,1.601-9.8,2.7c3.2-1.2,6.4-2.2,9.7-2.9c3.3-0.699,6.8-1,10.2-0.399c1.699,0.3,3.3,1,4.8,2c1.399,1,2.5,2.5,3.2,4.1
		c0.699,1.601,1.1,3.3,1.199,5.101c0.101,1.699,0,3.5-0.3,5.199L785.9,380.3z"/>
</g>
<g>
	<path d="M790.1,359.1c-1.8-1.699-4-3.1-6.199-4.3c-2.2-1.2-4.7-2-7.2-2.5s-5.101-0.5-7.601,0s-4.899,1.4-7.199,2.7
		c2.199-1.4,4.6-2.4,7.1-2.9c2.5-0.6,5.2-0.6,7.7-0.199c2.6,0.399,5.1,1.199,7.399,2.3c2.301,1.1,4.5,2.5,6.601,4.2L790.1,359.1z"/>
</g>
<g>
	<path d="M349.3,434.7c-1.399-2.601-3.2-5-5.2-7.2s-4.399-4.1-7.1-5.3c-2.7-1.3-5.7-1.8-8.7-1.4c-3,0.4-5.8,1.601-8.3,3.2
		c2.5-1.7,5.3-3,8.3-3.5s6.101,0,8.9,1.2s5.3,3.1,7.399,5.2c2.101,2.199,4,4.6,5.5,7.3L349.3,434.7z"/>
</g>
<g>
	<path d="M351,418.4c-0.1-4.2-1.4-8.4-3.8-11.9c-2.4-3.5-5.9-6.1-9.8-7.7c-3.9-1.6-8.2-2.3-12.5-2.399
		c-4.301-0.101-8.601,0.3-12.801,1H312l-0.1-0.101c-6.8-3.5-13.9-6.399-21-9.1c-7.2-2.7-14.4-5.101-21.8-7.2
		c-14.7-4.2-29.8-7.2-45-8.7c15.3,1.4,30.4,4.3,45.1,8.4c7.4,2.1,14.7,4.399,21.9,7.1c7.2,2.7,14.3,5.601,21.2,9h-0.2
		c4.301-0.7,8.601-1.2,13-1.1c4.301,0.1,8.7,0.7,12.801,2.399c4.1,1.601,7.8,4.301,10.3,8c2.5,3.601,3.899,8,4.1,12.4L351,418.4z"/>
</g>
<g>
	<path d="M623.8,383.8c-3.8-4.399-8.8-7.8-14.2-10c-5.399-2.2-11.399-2.899-17.199-2.1c-5.801,0.8-11.4,3-16.5,5.899
		c-2.5,1.5-5,3.101-7.301,4.9c-0.6,0.5-1.1,0.9-1.8,1.4s-1.5,0.6-2.3,0.6c-1.5,0-3-0.5-4.4-0.9c-2.8-0.899-5.6-2.1-8.3-3.199
		l-8.2-3.4c-5.5-2.2-11-4.4-16.5-6.5c-11.1-4.2-22.199-8.1-33.5-11.7c11.301,3.601,22.5,7.4,33.601,11.5
		c5.5,2.101,11.1,4.2,16.6,6.4l8.2,3.3c2.7,1.1,5.5,2.2,8.3,3.1c1.4,0.4,2.8,0.801,4.3,0.9c0.7,0,1.4-0.1,2-0.5
		c0.5-0.4,1.101-0.9,1.7-1.4c2.3-1.8,4.8-3.5,7.3-5c5.101-3,10.7-5.3,16.7-6.1c5.9-0.8,12.101-0.1,17.601,2.1
		c2.8,1.101,5.399,2.5,7.899,4.2s4.7,3.601,6.7,5.9L623.8,383.8z"/>
</g>
<g>
	<path d="M606.7,155.6c3.5-2.1,7.1-3.7,10.899-5.2c3.7-1.5,7.5-2.8,11.4-3.8c7.7-2.1,15.7-3.5,23.7-4c16-1.1,32.2,1.2,47.3,6.3
		c-15.2-4.9-31.3-7-47.3-5.8c-8,0.6-15.8,2-23.5,4.2c-3.8,1.1-7.601,2.4-11.3,3.9c-3.7,1.5-7.301,3.2-10.7,5.3L606.7,155.6z"/>
</g>
<g>
	<path d="M601.3,165.5c7.3-2.2,14.7-4.2,22.2-5.9c7.5-1.7,15-3.1,22.5-4.2c7.6-1,15.2-1.7,22.9-1.5c3.8,0.1,7.6,0.4,11.399,1.1
		c3.7,0.7,7.5,1.8,10.8,3.8c-3.3-1.9-7-3-10.8-3.7c-3.8-0.7-7.6-0.9-11.399-1c-7.601-0.1-15.2,0.7-22.801,1.8
		c-7.5,1.1-15,2.6-22.399,4.4c-7.4,1.8-14.8,3.8-22,6.1L601.3,165.5z"/>
</g>
<g>
	<path d="M612.5,171.9c4.5-1.9,9.1-3.4,13.7-4.7c4.7-1.2,9.399-2.2,14.2-2.7c4.8-0.5,9.699-0.7,14.5-0.2c4.8,0.4,9.6,1.5,14.1,3.2
		c-4.5-1.7-9.3-2.6-14.1-3c-4.801-0.4-9.601-0.1-14.4,0.5s-9.5,1.6-14.1,3c-4.601,1.3-9.2,2.9-13.5,4.9L612.5,171.9z"/>
</g>
<g>
	<path d="M571.7,159.2c-6.5-4.5-13.3-8.6-20.2-12.4c-6.9-3.8-14.1-7.2-21.4-10.2c-7.3-3-14.8-5.5-22.6-7.2
		c-7.7-1.6-15.7-2.5-23.6-1.5c7.899-1.1,15.899-0.4,23.6,1.2c7.8,1.6,15.3,4,22.7,6.9c7.399,2.9,14.5,6.3,21.5,10
		s13.8,7.8,20.399,12.2L571.7,159.2z"/>
</g>
<g>
	<path d="M571.8,169c-5.899-3-11.8-5.8-17.899-8.4c-6-2.6-12.2-5.1-18.4-7.3c-6.2-2.2-12.6-4.1-19-5.3c-3.2-0.6-6.5-1.1-9.8-1.1
		s-6.7,0.3-9.601,1.8c3-1.5,6.4-1.9,9.601-1.9c3.3,0,6.6,0.4,9.899,1c6.5,1.2,12.9,3,19.101,5.1c6.3,2.1,12.399,4.5,18.5,7
		c6.1,2.6,12.1,5.3,18.1,8.2L571.8,169z"/>
</g>
<g>
	<path d="M558.8,172.8c-4.2-1.9-8.5-3.5-12.899-5c-4.4-1.4-8.9-2.7-13.4-3.6c-4.5-0.9-9.1-1.5-13.8-1.5c-4.601,0-9.3,0.5-13.601,2.2
		c4.301-1.8,9-2.4,13.601-2.5c4.7-0.1,9.3,0.5,13.899,1.3c4.601,0.8,9.101,2,13.5,3.4c4.4,1.4,8.801,2.9,13.101,4.8L558.8,172.8z"/>
</g>
</svg>
