<?xml version="1.0" encoding="utf-8"?>
<!-- Generator: Adobe Illustrator 15.0.0, SVG Export Plug-In . SVG Version: 6.00 Build 0)  -->
<!DOCTYPE svg PUBLIC "-//W3C//DTD SVG 1.1//EN" "http://www.w3.org/Graphics/SVG/1.1/DTD/svg11.dtd">
<svg version="1.1" id="Layer_1" xmlns="http://www.w3.org/2000/svg" xmlns:xlink="http://www.w3.org/1999/xlink" x="0px" y="0px"
	 width="822px" height="567px" viewBox="0 0 822 567" enable-background="new 0 0 822 567" xml:space="preserve">
<path fill="#FFFFFF" stroke="#000000" stroke-miterlimit="10" d="M108,313.8l-0.7,0.5c0,0-14-16.3,5-29.7c0,0,12.5,15,6.3,20
	C112.4,308.8,108,313.8,108,313.8z"/>
<path fill="#FFFFFF" stroke="#000000" stroke-miterlimit="10" d="M142.6,300.8c6.6,4.2,1.1,22-19.6,28c0,0-12.2,0-15-15
	c0,0,4.4-5,10.6-9.3C125.5,299.7,134.7,295.8,142.6,300.8z"/>
<path fill="#FFFFFF" stroke="#000000" stroke-miterlimit="10" d="M124.5,258.3c7.1,4.2,8.5,19.2,8.5,19.2
	C122.9,267,124.5,258.3,124.5,258.3z"/>
<path fill="#FFFFFF" stroke="#000000" stroke-miterlimit="10" d="M123,255.3c0,0,2.9,0.9,6.8,3.2c6.4,4,8.3,16.4,5,21.5
	C134.7,280,116.8,275,123,255.3z M133.1,277.5c0,0-1.5-15-8.5-19.2C124.5,258.3,122.9,267,133.1,277.5z"/>
<path fill="#FFFFFF" stroke="#000000" stroke-miterlimit="10" d="M146.5,255.3c0.8,5-1.7,21.3-11.8,24.7c3.2-5,1.4-17.5-5-21.5
	c-3.8-2.3-6.8-3.2-6.8-3.2s11.2-4.6,20.6,2C144.6,258,146.3,254.1,146.5,255.3z"/>
<path fill="#FFFFFF" stroke="#000000" stroke-miterlimit="10" d="M96.2,175c2,0.5,57.5,15.5,45.4,37.4c-8.6,4-14.1,9.9-14.1,9.9
	S97.8,188.5,96.2,175z"/>
<path fill="#FFFFFF" stroke="#000000" stroke-miterlimit="10" d="M177.3,193.7c4.5,11.2-1.7,14.3-1.7,14.3
	c-8.2,3.3-14.2,1.4-14.2,1.4c-7.5-1.2-14.3,0.5-19.8,3.1c12.1-21.9-43.4-36.9-45.4-37.4c-0.2-1.8,0.1-3.2,1-4.1
	c5.5-5.9,37,0.4,50.5,8.8c1.9,1.2,4.4,1.6,7.1,2l0,0C162,182.5,171.2,182.7,177.3,193.7z"/>
<path fill="#FFFFFF" stroke="#000000" stroke-miterlimit="10" d="M216.2,191.8c-19.4-5.4-38.9,1.9-38.9,1.9
	c-6.1-11-15.3-11.1-22.6-12l0,0c-0.3-0.8-18.5-45.4,10.2-26.1c0,0,9.5,10.4,17.4,11.7C182.4,167.2,211.8,179.6,216.2,191.8z"/>
<path fill="#FFFFFF" stroke="#000000" stroke-miterlimit="10" d="M706.3,68.5l10.8-4.9c0,0-21.899,27.2-18.8,32.6l6.8-6.9
	c0,0,5.601-2.3-8.399,34.3l9-10.2c0,0,1.399,18.2-6.3,43.2l6.699-4.9c0,0,4.5,17.3-1.699,27.4l5.3-1.3c0,0,0.399,6.1-2.5,18.5
	c-0.8,3.2-4.5,9.5-7.3,12.8c-1.7,2,6.5-4.5,5.6-2.5c-3,6.4-2.8,18.5-17.2,24.5l9.4,0.7c0,0-16.3,16.5-28.9,19.4l8.3,0.9
	c0,0-25.1,20.8-42.899,20.9l13,1.6c0,0-18.9,15.6-37.5,13.5H609.6C603.7,272.3,593.2,264.7,587,258.3c-3-3.1-6-5.9-9-8.5
	c0,0,24-9.9,48.7-27.4c0,0,28.399-18.2,20.6-67.6c-5.2-33,0.3-78.8,16.2-112.8c5.6-11.9,26.8-48.3,53-27
	C716.3,15,738.1,36.6,706.3,68.5z"/>
<path fill="#FFFFFF" stroke="#000000" stroke-miterlimit="10" d="M681.4,495.3c8.6,19.4-3.9,24.7-3.9,24.7c-5.7,9.8-5.7,9.8-5.7,9.8
	c-12.899,14.9-31.8,5.4-31.8,5.4c-11.2,9.5-21.3,0-21.3,0c-17.9-12.9,10.1-35.3,10.1-35.3c12.3-30.301-10.1-39.801-10.1-39.801
	C566.6,467.9,543.3,416.2,543.3,416.2c7.3-11,13.7-23.4,13.7-23.4l-0.6,11.2c6.199-6.7,11-21.3,11-21.3l0.8,11.5
	c9.5-7.8,11.8-30.5,11.8-30.5l1.1,16.3c3.9-10.1,12.301-22.4,12.301-22.4l-2.7,16.801c13.3-12.5,18.899-32.2,20.8-40.7
	c-3.4,40.2,12.7,61.399,12.7,61.399H618c6.2,3.9,15.7,13.5,15.7,13.5l-13.2-5c3.4,2.2,16,12.7,16,12.7l-10.1-0.399
	c0.6,3.399,20.8,8.399,20.8,8.399C671.9,427.1,673,449,673,449C669.1,455.5,679.2,490.3,681.4,495.3z"/>
<path fill="#FFFFFF" stroke="#000000" stroke-miterlimit="10" d="M256.8,495.3c4.6,6.601,4.1,31.4,4.1,31.4s-11.2-15.7-7.9-6.2
	c0.4,1.2,0.7,2.4,0.8,3.6c0.8,8.5,5.2,6.7,2.9,11.5c-5.5,11.601-14.9,10-25,7.101c-16.4-4.8-39.3,0.8-39.3,0.8
	c-20.2,3.4-16.3-7.8-16.3-7.8c-16.8-6.2-5.2-20.3,0-21.9c29-8.8,32.3-16,38.3-24.1c13.2-17.7,8.2-56.101,8.2-56.101l-1.5,2.7
	c-3.9-3.399,1.5-20,1.5-20l-2.7,2.8c0,0,0,0-1.5-3.899c-1.5-3.9,4.2-15.7,4.2-15.7l-4.5,4.5c-3.4-5,4.5-17.9,4.5-17.9l10-10.699
	c-1.6,5.6,6.9,30.3,6.9,30.3l4.5-13.501C241.8,410.7,254.7,423,254.7,423l3.9-10.101C260.3,430.3,275.4,437,275.4,437l-1.7-6.7
	c1.1,4.3,8.1,8.8,13.1,11.5C282,439.4,276,455,276,455c-1.1,3.4,0,17.9,0,17.9c-3.8-4.4-6.7-4.101-6.7-4.101
	c3.9,1.601,3.9,16.4,3.9,16.4c-1.1-3.4-7.3-5.601-7.3-5.601c2.8,3.4,3.9,14.601,3.9,14.601s-9.5-8.8-8.4-6.2
	c1.5,3.7,3.9,20.2,3.9,20.2C263.1,503.4,258.3,497.2,256.8,495.3z"/>
<path fill="#FFFFFF" stroke="#000000" stroke-miterlimit="10" d="M134.7,280c10.1-3.4,12.6-19.7,11.8-24.7c-0.2-1.2-1.9,2.7-2.9,2
	c-9.4-6.6-20.6-2-20.6-2C116.8,275,134.7,280,134.7,280z M236.1,210.7c0.4,0.3,14,10.5,14.6,14.3h-5.1c0,0,19.1,6.8,25.6,7.3
	c7.6,0.6,27.2,6.7,29.5,8.4h-5.6c0,0,7.9,6.2,30.3,0c15.399-4.3,44.5,1.2,69.1,13.5c0,0,26.3-5,53.6-14.1
	c33.301-11,83.4-29.7,129.7,9.6c3,2.6,6,5.4,9,8.5c6.2,6.4,16.7,14,22.601,29.8c2.899,7.6,4.699,17.2,4.399,29.5
	c-1.1,5.6-1.8,11-2.3,16c-1.9,8.5-7.6,28.2-20.8,40.7l2.7-16.8c0,0-8.4,12.3-12.301,22.399l-1.1-16.3c0,0-2.2,22.7-11.8,30.5
	l-0.8-11.5c0,0-4.9,14.6-11,21.3l0.6-11.2c0,0-6.5,12.4-13.7,23.4c-5,7.6-10.399,14.6-14.3,16.4c0,0-4.5,7.3,7.8,16.3l8.4,9.5h-5
	c0,0,15.7,15.7,16.8,22.399c0,0,0,17.9-30.3,29.2C512.6,530,514.2,524.2,505.9,543.4c-4.101,9.5-18,16.199-40.4,7.899
	c0,0-34.2,17.9-40.9,1.4c0,0-11.6,0.7-13.5-10.9c0,0-15.1-20.8,15.7-24.7c0,0,20.2-3.399,29.7-1.699c0,0,32-12.9,30.8-22.4
	c0,0-6.7-36.5-21.899-37.6c0,0-17.9-10.601-23-25.2c0,0-18.5,6.7-24.7-1.101l6.2,7.801c0,0-16.3-4.5-20.7-9.5l5.6,7.8
	c0,0-17.899-1.101-27.5-12.9c0,0-4.5,26.9-12.3,29.7c0,0-8.7,9.5-4.5,21.5c0,0,36-18.3,42.7-1.8c0,0,11.6-0.7,13.5,10.899
	c0,0,15.1,20.801-15.7,24.7c0,0-8.5,3.8-18,2.2c0,0-19.1-6.4-28.6-3.6c0,0-19-0.2-23.5-1.7c-8.3-2.7-19.601-7.7-18-29.7
	c0.6-7.8,8.399-28,1.1-31.4l-5.6-1.699l1.1,7.3l-5.6-5.601L307.3,448.2c0,0-15.1-6.7-17.9-11.2l2.2,7.3c0,0-2.1-0.899-4.9-2.5
	c-4.9-2.7-12-7.2-13.1-11.5l1.7,6.7c0,0-15.1-6.7-16.8-24.1l-3.9,10.1c0,0-12.9-12.3-10.7-30.801l-4.5,13.501c0,0-8.4-24.7-6.9-30.3
	l-10,10.699c0,0,0-15.3,3.4-22.5l-6.7,4.601c0,0,3.4-17.9-5-25.8c0,0-22.4-21.301-51.6-7.301l-3.5,1.101c0,0-29.6,7.3-36.3-7.3
	c20.8-6,26.3-23.801,19.6-28c-7.9-5-17.1-1.101-24,3.699c6.2-5-6.3-20-6.3-20s8.8-11.899-0.2-29.7c-6.5-13,14.5-23.7,15.5-32.5
	c0,0,5.4-6,14.1-9.9c5.5-2.5,12.3-4.2,19.8-3.1c0,0,6,1.9,14.2-1.4c0,0,6.2-3.1,1.7-14.3c0,0,19.5-7.3,38.9-1.9
	c6.8,1.9,13.5,5.3,19.4,11.1l-9.6-3.1c0,0,20.2,12.6,20.2,15.4L236.1,210.7z"/>
<g>
	<path d="M122.6,314.1c3.7-4.3,7.8-8.1,12.3-11.5c4.5-3.399,9.2-6.399,14.3-8.8c5.1-2.399,10.5-4.1,16-5
		c5.5-0.899,11.2-0.8,16.7,0.101c-5.5-0.9-11.2-0.801-16.7,0.1s-10.8,2.7-15.8,5.2c-5,2.399-9.7,5.5-14.1,8.899
		c-4.3,3.5-8.4,7.301-12,11.601L122.6,314.1z"/>
</g>
<g>
	<path d="M130.5,313.2c3.9-2.3,8-4.4,12.2-6.2c4.2-1.8,8.5-3.4,12.9-4.6c4.4-1.2,8.9-2,13.5-1.9c4.5,0.1,9.2,1.2,12.8,4
		c-3.6-2.8-8.3-3.8-12.8-3.8s-9,0.899-13.4,2.2c-4.3,1.3-8.6,2.899-12.7,4.8c-4.1,1.899-8.1,4-12,6.399L130.5,313.2z"/>
</g>
<g>
	<path d="M126.4,319.2c4-1.101,8.1-2.101,12.2-2.9s8.2-1.399,12.4-1.899c4.1-0.4,8.3-0.601,12.5-0.4c4.1,0.2,8.4,0.9,12.2,2.6
		c-3.8-1.699-8-2.199-12.2-2.399c-4.2-0.101-8.3,0.1-12.4,0.6s-8.2,1.2-12.3,2.101c-4.1,0.899-8.1,1.899-12.1,3.1L126.4,319.2z"/>
</g>
<g>
	<path d="M123,255.8c-1.4-0.1-2.7-0.4-3.8-1.1c-1.2-0.6-2.2-1.7-2.6-2.9c-0.5-1.2-0.5-2.6-0.3-3.9c0.2-1.3,0.6-2.5,1-3.7
		c-0.4,1.2-0.7,2.4-0.8,3.7c-0.1,1.2,0,2.5,0.5,3.6s1.4,2,2.5,2.5s2.3,0.8,3.5,0.8V255.8z"/>
</g>
<g>
	<path d="M124.1,255.4c-0.9-0.4-1.7-0.8-2.5-1.4c-0.8-0.5-1.5-1.2-2-1.9c-0.6-0.7-1-1.6-1.2-2.5c-0.2-0.9-0.1-1.9,0.2-2.7
		c-0.2,0.9-0.2,1.8,0.1,2.7c0.2,0.9,0.7,1.6,1.3,2.3c0.6,0.6,1.3,1.2,2.1,1.6c0.8,0.4,1.6,0.8,2.4,1.1L124.1,255.4z"/>
</g>
<g>
	<path d="M124.8,255.1c-0.7-0.5-1.2-1.1-1.7-1.7s-1-1.2-1.3-1.9c-0.8-1.4-1.1-3-0.8-4.5c-0.2,1.5,0.3,3,1.2,4.2
		c0.4,0.6,0.9,1.2,1.5,1.7c0.5,0.5,1.1,1,1.7,1.3L124.8,255.1z"/>
</g>
<g>
	<path d="M126.3,254.7c-0.5-0.4-0.9-0.9-1.3-1.4s-0.7-1.1-1-1.6c-0.2-0.6-0.4-1.2-0.3-1.9c0-0.6,0.3-1.2,0.6-1.8
		c-0.2,0.6-0.4,1.2-0.3,1.8c0,0.6,0.2,1.1,0.5,1.7c0.3,0.5,0.7,1,1.1,1.4s0.9,0.8,1.3,1.1L126.3,254.7z"/>
</g>
<g>
	<path d="M128.5,254.4c-0.7-0.6-1.3-1.2-1.8-2c-0.2-0.4-0.4-0.8-0.5-1.3c-0.1-0.5,0.1-0.9,0.3-1.3c-0.2,0.4-0.2,0.8-0.1,1.2
		s0.3,0.7,0.6,1c0.5,0.6,1.2,1.1,1.9,1.5L128.5,254.4z"/>
</g>
<g>
	<path d="M442.3,430.9c-1.399-7.801-2-15.601-1.8-23.5c0.2-7.9,1.2-15.7,3.5-23.301c2.3-7.5,6-14.699,11.4-20.399
		c5.399-5.8,12.399-9.8,20-12c-7.5,2.3-14.5,6.399-19.801,12.1c-5.3,5.7-8.899,12.9-11.1,20.4s-3.1,15.3-3.2,23.1
		c-0.1,7.8,0.601,15.7,2.101,23.3L442.3,430.9z"/>
</g>
<g>
	<path d="M380.6,424.4c1.9-5.5,3-11.4,3.4-17.2c0.4-5.9,0-11.8-1.5-17.5s-4.2-11.101-8-15.5c-3.8-4.5-8.7-8-14-10.601
		c5.3,2.5,10.3,6,14.2,10.4c3.899,4.4,6.7,9.9,8.3,15.6c1.6,5.7,2.1,11.7,1.8,17.7c-0.3,5.9-1.399,11.8-3.2,17.5L380.6,424.4z"/>
</g>
<g>
	<path d="M175.5,513.6c2.5-0.5,5-0.8,7.6-0.8c2.5,0,5.1,0.101,7.5,0.9c-2.4-0.7-5-0.601-7.5-0.4s-5,0.7-7.4,1.3L175.5,513.6z"/>
</g>
<g>
	<path d="M175.7,535.8c-0.1-2.1,0.3-4.2,1.2-6.1c0.9-1.9,2.5-3.4,4.3-4.3c1.8-0.9,3.9-1.4,5.9-1.5c2-0.101,4,0,6,0.3
		c-2-0.2-4-0.2-6,0s-4,0.7-5.7,1.7c-1.7,1-3.1,2.399-3.9,4.199c-0.8,1.801-1.1,3.801-0.9,5.601L175.7,535.8z"/>
</g>
<g>
	<path d="M407.8,471.7c0.3,1.899,0.3,3.7,0,5.6c-0.3,1.8-1,3.7-2.399,5c-1.4,1.4-3.301,2-5.101,2.101c-1.8,0.1-3.7-0.2-5.399-0.601
		c1.8,0.4,3.6,0.601,5.399,0.4s3.601-0.9,4.8-2.2c1.2-1.3,1.801-3,2-4.8c0.2-1.8,0.101-3.601-0.3-5.3L407.8,471.7z"/>
</g>
<g>
	<path d="M422.3,484.5c-0.5,2.3-1.399,4.4-2.6,6.3c-1.2,1.9-2.8,3.601-4.601,5c-3.6,2.8-8,4.2-12.5,4.7c4.4-0.7,8.7-2.3,12.101-5.1
		c1.7-1.4,3.1-3.101,4.3-5c1.1-1.9,1.9-4,2.3-6.101L422.3,484.5z"/>
</g>
<g>
	<path d="M410.7,542c-0.5-2.6-0.601-5.3-0.101-7.9c0.5-2.6,1.601-5.199,3.601-7c2-1.8,4.6-2.8,7.1-3.1c2.601-0.3,5.2-0.2,7.8,0.2
		c-2.6-0.3-5.199-0.4-7.699,0.1c-2.5,0.4-5,1.4-6.801,3.2c-1.8,1.8-2.8,4.2-3.199,6.7c-0.4,2.5-0.2,5.1,0.3,7.6L410.7,542z"/>
</g>
<g>
	<path d="M424.2,553c-0.9-2.3-1.601-4.7-1.9-7.2s-0.3-5,0.601-7.399c0.5-1.2,1.199-2.2,2.1-3.101c0.9-0.8,2.1-1.399,3.2-1.8
		c2.399-0.8,4.899-0.8,7.3-0.6c-2.4-0.101-4.9,0-7.2,0.8c-1.1,0.399-2.2,1-3.1,1.899c-0.9,0.801-1.5,1.9-1.9,3
		c-0.8,2.301-0.7,4.7-0.399,7.101c0.399,2.399,1.1,4.7,2.1,6.899L424.2,553z"/>
</g>
<g>
	<path d="M365.1,473.7c-0.3,1.8-1,3.3-1.899,4.8c-1,1.4-2.2,2.6-3.7,3.5s-3.1,1.4-4.7,1.7c-1.7,0.3-3.3,0.3-5,0.1
		c3.3,0.101,6.7-0.399,9.5-2.2c1.4-0.899,2.5-2.1,3.3-3.5c0.801-1.399,1.4-3,1.601-4.5L365.1,473.7z"/>
</g>
<g>
	<path d="M639.6,535.5c-2.199-1.8-4.1-3.8-5.699-6.1c-1.5-2.301-2.801-4.9-2.801-7.801c0-1.399,0.301-2.8,1-4.1
		c0.601-1.3,1.5-2.3,2.5-3.3c2-1.9,4.5-3.2,7-4.3c-2.5,1.199-4.899,2.6-6.8,4.5c-1,1-1.8,2-2.3,3.3c-0.6,1.2-0.8,2.6-0.8,3.899
		c0.1,2.7,1.3,5.2,2.899,7.4c1.601,2.2,3.5,4.1,5.601,5.7L639.6,535.5z"/>
</g>
<g>
	<path d="M677.5,520.5c-2.3-0.4-4.5-1.2-6.4-2.6c-1.899-1.301-3.399-3.2-4.3-5.301c-0.8-2.1-1-4.5-0.8-6.699
		c0.2-2.301,0.8-4.5,1.5-6.601c-0.6,2.2-1.1,4.4-1.2,6.601c-0.1,2.199,0.2,4.5,1.101,6.5c0.899,2,2.399,3.699,4.199,4.899
		c1.801,1.2,4,1.9,6.101,2.2L677.5,520.5z"/>
</g>
<g>
	<path d="M615.6,533.1c-0.899-2.3-1.3-4.699-1.3-7.199c0-2.4,0.5-4.9,1.601-7.101c1-2.2,2.6-4.1,4.5-5.6
		c1.899-1.5,4-2.7,6.199-3.601c-2.199,1-4.199,2.2-6,3.801c-1.8,1.6-3.199,3.5-4.199,5.6c-0.9,2.2-1.301,4.5-1.301,6.8
		c0.101,2.3,0.601,4.7,1.4,6.8L615.6,533.1z"/>
</g>
</svg>
