<?xml version="1.0" encoding="utf-8"?>
<!-- Generator: Adobe Illustrator 15.0.0, SVG Export Plug-In . SVG Version: 6.00 Build 0)  -->
<!DOCTYPE svg PUBLIC "-//W3C//DTD SVG 1.1//EN" "http://www.w3.org/Graphics/SVG/1.1/DTD/svg11.dtd">
<svg version="1.1" id="layer_x5F_www.ABC-color.com"
	 xmlns="http://www.w3.org/2000/svg" xmlns:xlink="http://www.w3.org/1999/xlink" x="0px" y="0px" width="822px" height="567px"
	 viewBox="0 0 822 567" enable-background="new 0 0 822 567" xml:space="preserve">
<path fill="#FFFFFF" stroke="#000000" stroke-miterlimit="10" d="M303.7,479.7c1.4-2.3,6.2-8.9,14.3-8.2c-1.8,3.1-0.5,9.6,0.3,12.4
	C314.8,481.8,308.8,478.6,303.7,479.7z"/>
<path fill="#FFFFFF" stroke="#000000" stroke-miterlimit="10" d="M318,471.5c0.6-1,1.5-1.6,3-1.6c0,0,43.8,5.3,45.6,4.1
	c0,0-8.899,16.6-45.6,11.8c0,0-1-0.8-2.7-1.898C317.5,481.1,316.2,474.5,318,471.5z"/>
<path fill="#FFFFFF" stroke="#000000" stroke-miterlimit="10" d="M366.6,474c8.9-7.7,39.801-67.3,39.801-67.3
	c0.8,0.2,1.5,0.3,2.3,0.398c12.2,1.2,16,4.2,19.1,6.302l-0.1,0.198c-29.601,39.7-28.4,58-28.4,58c29,9.5,20.7,16,20.7,16
	c-3.6-1.8-9.5,4.7-9.5,4.7c0.6-2.398-16.6-7.1-16.6-7.1c-8.301-3-16.601,16.6-16.601,16.6c-7.7,6.5-14.2,2.4-14.2,2.4
	c5.301-13.602-7.1-8.3-7.1-8.3c-51.5,2.898-53.3-1.2-53.3-1.2c4.1-3.602-1.2-14.2-1.2-14.2c0.7-0.4,1.5-0.7,2.2-0.8
	c5.1-1.102,11.2,2.1,14.6,4.2c1.7,1.1,2.7,1.898,2.7,1.898C357.7,490.6,366.6,474,366.6,474z"/>
<path fill="#FFFFFF" stroke="#000000" stroke-miterlimit="10" d="M410.4,492.4c0,0,5.899-6.5,9.5-4.7c0,0,9.5,7.1,5.3,13
	C425.2,500.6,412.8,492.9,410.4,492.4z"/>
<path fill="#FFFFFF" stroke="#000000" stroke-miterlimit="10" d="M461.9,516.6c0,0,11.8,5.302,13,16.602c0,0-14.802-5.3-16.602-1.8
	C458.3,531.4,456.5,516,461.9,516.6z"/>
<path fill="#FFFFFF" stroke="#000000" stroke-miterlimit="10" d="M396.8,533.8l1.2-0.3c-1.8,2.6-4.1,7.2-0.9,11.1l-17.5,3.4
	C379.6,537.9,396.8,533.8,396.8,533.8z"/>
<path fill="#FFFFFF" stroke="#000000" stroke-miterlimit="10" d="M397.1,544.6c-3.199-3.898-1-8.5,0.9-11.1c0.9-1.3,1.7-2.1,1.7-2.1
	c-11.8,4.698-48.5-2.4-48.5-2.4c4.7-2.4,0-13.6,0-13.6c5.1,2.198,12.2,3.3,19.899,3.8c4.101,0.2,8.301,0.3,12.5,0.2
	C400.8,519.1,417,516.6,417,516.6c3.2-0.8,6-3.198,8.5-6.398c1.5-2,2.9-4.4,4.2-7c6.6-13.5,9.3-32.2,9.3-32.2
	c2.4-19.8,10.7-35.7,13.7-40.8c9,7.1,17.398,6.3,24.2,2.898c-12.4,8.9-27.2,79.302-27.2,79.302c6.5,3.6,12.398,4.1,12.398,4.1
	c-5.3-0.6-3.6,14.8-3.6,14.8c-7.1-2.398-10.1-1.2-10.1-1.2c0,4.102-11.802,4.102-11.802,4.102C433,533,399.9,546.6,399.9,546.6
	C398.6,546.1,397.8,545.4,397.1,544.6z"/>
<path fill="#FFFFFF" stroke="#000000" stroke-miterlimit="10" d="M384.7,507.8c2.3,3.7-0.2,9.602-1.2,11.7c-4.2,0.1-8.4,0-12.5-0.2
	C372.8,515.5,377.2,508.2,384.7,507.8z"/>
<path fill="#FFFFFF" stroke="#000000" stroke-miterlimit="10" d="M383.7,506.6c0,0,33.2,7.102,41.5,3.602l0.2,0.1
	c-2.4,3.2-5.2,5.5-8.5,6.4c0,0-16.2,2.5-33.4,2.8c1-2.1,3.5-8,1.2-11.7C384.5,507.3,384.1,506.9,383.7,506.6z"/>
<path fill="#FFFFFF" stroke="#000000" stroke-miterlimit="10" d="M355.9,495.9c0,0,12.399-5.302,7.1,8.3
	c-2.4-0.602-10.1,1.2-10.1,1.2C352.4,500.6,355.9,495.9,355.9,495.9z"/>
<path fill="#FFFFFF" stroke="#000000" stroke-miterlimit="10" d="M351.2,515.4c0,0,4.7,11.198,0,13.6
	c-2.4-3.6-13.601-0.6-13.601-0.6C337.6,519,351.2,515.4,351.2,515.4z"/>
<path fill="#FFFFFF" stroke="#000000" stroke-miterlimit="10" d="M301.4,480.5c0,0,5.3,10.7,1.2,14.2h-18.4
	C284.3,494.7,297.3,479.9,301.4,480.5z"/>
<path fill="#FFFFFF" stroke="#000000" stroke-miterlimit="10" d="M439.6,414.7c-7,1.6-9.1,0.5-11.898-1.4c-3-2.1-6.9-5.1-19.101-6.3
	c-0.8-0.1-1.5-0.2-2.3-0.4c-23.5-5.6-45.7-60-45.7-60c11.801,4.102,37.9,14.801,37.9,14.801C401.5,358.5,430.4,401,439.6,414.7z"/>
<path fill="#FFFFFF" stroke="#000000" stroke-miterlimit="10" d="M169.4,178c-1.3-1.5-2.6-3.2-4.1-5.3c0,0-14.2-23.1-7.1-34.3
	c0,0-2.9-24.3-13-24.3v-0.8c7-0.4,28.1-1.3,35,3.1c17.8,16.6,13.6,34.9,13.6,34.9c0.2,0.8,0.5,1.5,0.7,2.3l-0.1,0.1
	c0,0-6.5,9.5-6.5,21.3C187.8,175,183.3,193.9,169.4,178z"/>
<path fill="#FFFFFF" stroke="#000000" stroke-miterlimit="10" d="M142.8,113.4c-2.8,13.6-17.4,16.8-23.5,17.5
	c5.1-6.4,14.5-16.7,21.8-17.5C142.1,113.5,142.8,113.4,142.8,113.4z"/>
<path fill="#FFFFFF" stroke="#000000" stroke-miterlimit="10" d="M132.1,96.3c-7.3,15.5,4.5,17.1,9,17.2
	c-7.3,0.8-16.7,11.1-21.8,17.5c-2.3,2.9-3.8,5-3.8,5c-2.2-8.3,4.5-21.4,10.1-30.2C129.1,100.2,132.1,96.3,132.1,96.3z"/>
<path fill="#FFFFFF" stroke="#000000" stroke-miterlimit="10" d="M145.1,114.1c10.1,0,13,24.3,13,24.3c-7.1,11.3,7.1,34.3,7.1,34.3
	c1.4,2.1,2.8,3.9,4.1,5.3c-17.6,31.3-14.5-19.4-18.3-24.8c-9.5-13.6-8.3-39.7-8.3-39.7s0.9-0.1,2.3-0.2L145.1,114.1z"/>
<path fill="#FFFFFF" stroke="#000000" stroke-miterlimit="10" d="M196.1,91.5c3.6,13-16,24.9-16,24.9c-6.9-4.4-27.9-3.6-35-3.1
	c-1.5,0.1-2.3,0.2-2.3,0.2c-0.5-0.1-1.1-0.1-1.7,0c-4.5-0.1-16.3-1.7-9-17.2l1.2-4.7c36.1-40.3,47.4-14.2,47.4-14.2
	c2.4,1.1,5.2,1.4,7.5,1.5C186.4,81.1,174.6,97,196.1,91.5z M154.6,95.1c22.5-1.2,15.4-14.2,15.4-14.2
	C149.9,76.1,154.6,95.1,154.6,95.1z"/>
<path id="ABC-color.com" fill="#FFFFFF" stroke="#000000" stroke-miterlimit="10" d="M170,80.9c0,0,7.1,13-15.4,14.2
	C154.6,95.1,149.9,76.1,170,80.9z M161.1,93.3c2.6,0,4.7-2,4.7-4.4c0-2.5-2.1-4.4-4.7-4.4s-4.7,2-4.7,4.4S158.5,93.3,161.1,93.3z"/>
<path fill="#FFFFFF" stroke="#000000" stroke-miterlimit="10" d="M165.9,88.9c0,2.5-2.1,4.4-4.7,4.4c-2.6,0-4.7-2-4.7-4.4
	c0-2.5,2.1-4.4,4.7-4.4C163.7,84.4,165.9,86.4,165.9,88.9z"/>
<path fill="#FFFFFF" stroke="#000000" stroke-miterlimit="10" d="M193.1,78.5c21.3,9.5,3,13,3,13c-21.4,5.5-9.7-10.4-7.9-12.8
	C191,78.9,193.1,78.5,193.1,78.5z"/>
<path fill="#FFFFFF" stroke="#000000" stroke-miterlimit="10" d="M193.1,14.6c0,0,6.3,24.8,0.2,34.5c-62.8-4.6-60,42.4-60,42.4
	l-1.2,4.7c0,0-3,3.9-6.5,9.5c0,0-32.6-3.6-19-17.8c0,0-8.9-15.4-1.8-41.4c0,0,8.9,5.3,10.1,10.7c0,0,4.7-36.7,10.1-31.4
	c0,0,8.7,4.6,10,7.3c0,0.7,0.1,1,0.1,1c0.1-0.3,0.1-0.6-0.1-1c-0.1-1.8-0.2-6,0.7-12c0,0,1.8-14.2,6.5-9.5c0,0,8.9,8.9,8.3,16.6
	c0,0,10.7-11.8,11.8-24.9c0,0,7.1,2.4,7.7,20.1C170,23.5,190.1,6.9,193.1,14.6z"/>
<path fill="#FFFFFF" stroke="#000000" stroke-miterlimit="10" d="M193.4,49.1c8.7,0.6,18.6,2.3,29.9,5.1c0,0,24.9,11.2,30.2,16.6
	c0,0,53.9,36.1,69.9,39.1c0,0,34.3,10.7,50.899,4.7c0,0,77.602-23.1,132.602-5.9c0,0,54.5,5.3,71.6-3c0,0,100-48.5,139.7-19.5
	c0,0,39.7,1.2,37.898,20.7c0,0,11.802,8.3,1.802,24.9c0,0,7.1,5.9-3,14.8c0,0,13,13-36.102,14.2c0,0,19.5,31.4-20.7,29.6
	c0,0,5.302,36.1-19.5,27.8c0,0-10.698,39.7-28.398,14.8c0,0-1.2,17.8-19.5,8.3c0,0-21.3,0.6-20.7,43.8c0,0-1.8,41.4-41.5,59.801
	c0,0-75.8,60.399-75.8,73.399c0,0-6.3,10-16,14.8l0,0c-6.7,3.302-15.2,4.102-24.2-2.898c-3.3-2.602-6.7-6.3-10.2-11.3
	c0,0-1-1.602-2.8-4.2c-9.2-13.7-38-56.2-41-53.2c0,0-26.1-10.7-37.9-14.8c0,0-22.5-4.2-45.6-30.2c0,0-33.7-38.5-53.9-75.2
	c0,0-45.7-23.7-66.7-87.7c-0.2-0.8-0.5-1.5-0.7-2.3c0,0,4.2-18.4-13.6-34.9c0,0,19.5-11.8,16-24.9c0,0,18.3-3.6-3-13
	c0,0-2.1,0.4-5,0.3c-2.3-0.1-5.1-0.4-7.5-1.5c0,0-11.2-26.1-47.4,14.2C133.3,91.5,130.6,44.5,193.4,49.1z"/>
<g>
	<path d="M719,86.7c-6.2,0.3-12.4,0.7-18.6,1.2c-6.2,0.5-12.4,1.1-18.5,1.9c-6.2,0.8-12.302,1.7-18.4,3c-3,0.6-6,1.4-9,2.3
		c-2.9,0.9-5.9,2-8.5,3.6l0,0l0,0c-8.4,3.5-16.9,6.7-25.6,9.6c-8.602,2.9-17.302,5.7-26.102,7.9c-4.398,1.1-8.898,2.1-13.3,2.9
		c-2.2,0.4-4.5,0.7-6.8,1c-1.101,0.1-2.3,0.2-3.4,0.3c-0.6,0-1.1,0.1-1.7,0.1H567.4l-27.302-0.6l27.302,0.5h1.698
		c0.602,0,1.102-0.1,1.7-0.1c1.102-0.1,2.3-0.2,3.4-0.3c2.3-0.3,4.5-0.6,6.7-1c4.5-0.8,8.898-1.8,13.3-2.9c8.8-2.3,17.5-5,26.1-8
		c8.602-3,17.102-6.2,25.5-9.8l0,0c2.7-1.7,5.7-2.7,8.602-3.7c3-0.9,6-1.7,9.1-2.3c6.1-1.3,12.2-2.3,18.4-3.1
		c6.198-0.8,12.398-1.5,18.5-2c6.198-0.5,12.398-1,18.6-1.3V86.7z"/>
</g>
<g>
	<path d="M757.5,107.5c-14.8,0.5-29.6,1.3-44.3,2.4c-14.8,1.1-29.5,2.4-44.102,4.5c-7.3,1.1-14.6,2.3-21.8,4
		c-7.2,1.8-14.2,4.1-21.398,5.9c-7.2,1.8-14.4,3.3-21.7,4.7s-14.5,2.7-21.8,4c7.3-1.3,14.6-2.7,21.8-4.1c7.3-1.5,14.5-3,21.7-4.8
		c7.198-1.8,14.198-4.2,21.398-6c7.2-1.8,14.5-3.1,21.8-4.2c14.7-2.2,29.4-3.6,44.2-4.8c14.8-1.2,29.5-2,44.3-2.6L757.5,107.5z"/>
</g>
<g>
	<path d="M757.4,132.5c-6.802-1-13.602-1.6-20.5-2c-6.9-0.4-13.7-0.6-20.602-0.4c-6.898,0.2-13.7,0.6-20.5,1.6s-13.5,2.5-20,4.9
		c-0.8,0.3-1.6,0.6-2.398,1l-2.302,1.1c-1.6,0.7-3.1,1.4-4.698,2.1c-3.2,1.3-6.4,2.6-9.602,3.7c-6.5,2.3-13.1,4.3-19.8,5.9
		s-13.5,2.7-20.4,3.3c-6.898,0.6-13.8,0.5-20.6-0.4c6.8,0.9,13.7,0.9,20.6,0.3c6.9-0.6,13.602-1.8,20.302-3.4
		c6.698-1.6,13.3-3.6,19.698-6c3.2-1.2,6.4-2.4,9.602-3.8c1.6-0.7,3.2-1.4,4.7-2.1l2.3-1.1c0.8-0.3,1.6-0.7,2.398-1
		c6.5-2.5,13.2-4,20-5c6.802-1,13.7-1.5,20.602-1.7c6.898-0.2,13.8-0.1,20.7,0.3c6.898,0.4,13.698,1,20.6,1.9L757.4,132.5z"/>
</g>
<g>
	<path d="M719.8,161.5c-2.7-1.1-5.7-1.8-8.6-2.3c-3-0.5-5.9-0.9-8.9-1c-6-0.4-12-0.2-18,0.4c-12,1.2-23.8,3.8-35.398,7.4
		c11.5-3.7,23.3-6.5,35.3-7.9c6-0.7,12.1-0.9,18.1-0.6c3,0.1,6,0.4,9,0.9s6,1.1,8.9,2.3L719.8,161.5z"/>
</g>
<g>
	<path d="M698.5,191.6c-1.4-4.3-4.3-8.2-7.9-10.9c-3.698-2.8-8.1-4.4-12.698-5c-4.602-0.6-9.302-0.3-13.802,0.5
		c-4.6,0.8-9.1,2.1-13.398,3.7c4.3-1.7,8.8-3,13.398-3.9c4.602-0.9,9.302-1.3,13.9-0.7c4.6,0.5,9.3,2.1,13.1,4.9
		c3.802,2.8,6.802,6.7,8.4,11.2L698.5,191.6z"/>
</g>
<g>
	<path d="M678.5,218.9c0.4-5.3-0.9-11-4-15.4c-1.5-2.2-3.5-4.1-5.8-5.7c-2.3-1.5-4.8-2.7-7.4-3.5c-5.2-1.6-10.8-2-16.3-1.9
		c-5.5,0.2-11,0.9-16.4,1.9c5.4-1.1,10.9-1.9,16.4-2.2c5.5-0.2,11.1,0.1,16.5,1.7c2.7,0.8,5.2,1.9,7.6,3.4
		c2.302,1.5,4.4,3.5,6.102,5.8c1.6,2.3,2.8,4.9,3.5,7.6c0.7,2.7,1,5.5,0.8,8.4L678.5,218.9z"/>
</g>
<g>
	<path d="M649.5,232.5c0-2.1-0.8-4.4-1.8-6.3c-1-2-2.4-3.8-4-5.4c-3.2-3.2-7.102-5.7-11.2-7.7s-8.5-3.4-12.9-4.5
		c-4.398-1.1-9-1.9-13.5-2.5c4.602,0.5,9.102,1.2,13.602,2.3s8.898,2.4,13.1,4.3c4.2,1.9,8.2,4.3,11.5,7.6
		c1.601,1.6,3.101,3.5,4.2,5.5c1.1,2.1,1.9,4.3,2,6.8L649.5,232.5z"/>
</g>
<g id="www.ABC-color.com">
	<path d="M628.6,240.8c1-2.1,1.5-4.6,1.4-6.9c-0.1-2.4-0.8-4.8-2-6.8c-2.4-4.2-6.5-7.2-10.8-9.4c-4.4-2.2-9.102-3.7-13.8-4.9
		c-4.802-1.2-9.602-2-14.5-2.6h-0.2L588.6,210c-1.198-2.2-2.898-4.3-4.8-6.1c-1.898-1.8-4.1-3.3-6.398-4.4c-4.7-2.3-10-3.1-15.2-2.8
		H562.1l-0.1-0.1c-9.4-8.7-19.4-16.8-29.7-24.5c-10.398-7.6-21.2-14.6-32.5-20.7s-23.2-11.3-35.6-14.5c-6.2-1.6-12.602-2.6-19-2.9
		c-6.4-0.2-12.9,0.4-19.102,2.1c6.2-1.7,12.7-2.4,19.102-2.2c6.398,0.2,12.8,1.3,19,2.8c12.5,3.2,24.398,8.3,35.7,14.3
		c11.3,6.1,22.198,13.1,32.6,20.6c10.4,7.6,20.4,15.6,29.9,24.4l-0.2-0.1c5.3-0.3,10.7,0.4,15.5,2.8c2.399,1.2,4.6,2.7,6.6,4.5
		c2,1.8,3.7,3.9,5,6.3l-0.3-0.2c4.9,0.6,9.8,1.4,14.6,2.6c4.802,1.2,9.602,2.7,14,4.9c2.2,1.1,4.4,2.4,6.302,4
		c1.898,1.6,3.698,3.5,4.898,5.7c1.3,2.2,2,4.7,2.102,7.3c0.1,2.6-0.4,5.1-1.5,7.4L628.6,240.8z"/>
</g>
<g>
	<path d="M610.8,238.8c-14.8,9.7-31,17.1-47.8,22.9c-16.7,5.8-34.2,9.7-51.8,11.3c-17.7,1.5-35.602,0.7-52.9-2.9
		c-8.7-1.8-17.2-4.3-25.5-7.4c-8.3-3.1-16.3-6.9-24.1-11.2c7.8,4.2,15.898,7.8,24.2,10.7c8.3,3,16.8,5.4,25.5,7.1
		c17.3,3.4,35.1,4.2,52.698,2.6c17.602-1.5,34.9-5.4,51.7-11c8.4-2.8,16.602-6.1,24.602-9.7C595.5,247.6,603.4,243.6,610.8,238.8z"
		/>
</g>
<g>
	<path d="M589.2,210c-2.3,2.3-4.9,4.2-7.5,6.1c-2.602,1.8-5.4,3.5-8.2,5.1c-5.6,3.1-11.5,5.8-17.5,8.1c-12,4.6-24.5,7.7-37.2,9.8
		s-25.5,3.1-38.3,3.5c-12.8,0.3-25.6-0.2-38.4-1.2c12.802,0.9,25.602,1.3,38.4,0.9c12.8-0.4,25.6-1.5,38.2-3.7
		c12.6-2.2,25.1-5.4,37-10c6-2.3,11.8-5,17.3-8.1c2.8-1.6,5.5-3.3,8.1-5.1c2.602-1.8,5.102-3.8,7.4-6L589.2,210z"/>
</g>
<g>
	<path d="M562.5,196.6c-2.6,3.1-5.7,5.5-9.1,7.6c-3.4,2.1-7,3.7-10.7,4.9c-7.5,2.5-15.4,3.5-23.3,3.4c-7.9-0.1-15.7-1.1-23.302-2.8
		c-7.698-1.7-15.198-4-22.5-6.8c7.4,2.7,14.9,4.9,22.602,6.5s15.5,2.6,23.3,2.5c7.8,0,15.6-1.1,23-3.6c3.7-1.3,7.2-2.9,10.5-5
		c3.3-2.1,6.4-4.5,8.8-7.5L562.5,196.6z"/>
</g>
<g>
	<path d="M619.3,248.9c-4.5,3.7-9.1,7.2-13.898,10.5c-4.7,3.3-9.602,6.5-14.602,9.5s-10.1,5.7-15.5,8c-5.3,2.3-10.898,4.2-16.7,4.9
		l0.2-0.1c-5.6,3.899-11.6,7.3-17.7,10.3c-6.1,3.1-12.398,5.7-18.898,7.9c-6.5,2.199-13.102,3.898-19.9,4.8
		c-6.8,0.899-13.7,1-20.398,0h0.1c-3.1,1.5-6.2,2.7-9.5,3.7c-3.2,1-6.5,1.898-9.8,2.6c-6.602,1.4-13.4,2.2-20.102,2.4
		c-13.5,0.5-27.1-1.301-40.1-5c-13-3.602-25.5-9.102-37.3-15.801c-11.7-6.699-22.7-14.701-33-23.399c10.3,8.7,21.3,16.6,33.1,23.3
		c11.7,6.7,24.2,12.1,37.3,15.7c13,3.6,26.601,5.399,40.101,4.899c6.7-0.199,13.5-1.101,20.1-2.5c3.3-0.699,6.602-1.601,9.8-2.601
		c3.2-1,6.4-2.2,9.4-3.7h0.1h0.102c6.7,1,13.6,0.801,20.3-0.1s13.3-2.602,19.8-4.801c6.4-2.199,12.7-4.899,18.8-8
		c6.102-3.101,12-6.5,17.5-10.299l0.102-0.1h0.1c5.7-0.7,11.2-2.6,16.5-4.9c5.3-2.3,10.4-5,15.4-8s9.8-6.2,14.5-9.5
		c4.7-3.4,9.3-6.8,13.8-10.5L619.3,248.9z"/>
</g>
<g>
	<path d="M164.6,122c1.3,1.7,2.2,3.6,3.2,5.5c0.9,1.9,1.7,3.9,2.4,5.9c1.4,4,2.4,8.2,3.1,12.4c0.6,4.2,1,8.5,0.9,12.8
		c0,2.1-0.2,4.3-0.4,6.4c-0.3,2.1-0.5,4.2-0.9,6.3h-0.1c1-8.4,0.9-16.9-0.5-25.3c-0.6-4.2-1.6-8.3-2.9-12.3
		C168.2,129.7,166.6,125.7,164.6,122L164.6,122z"/>
</g>
<g>
	<path d="M119.4,117.2c0.1-1.1,0.6-2.1,1-3c0.5-0.9,1.1-1.8,1.9-2.5c-0.1,1.1-0.6,2.1-1,3C120.8,115.6,120.2,116.5,119.4,117.2z"/>
</g>
<g>
	<path d="M150.5,101.1c1.7-0.1,3.4-0.3,5-0.7c1.7-0.3,3.3-0.7,4.9-1.2c3.2-1.1,6.2-2.5,8.9-4.5c2.7-1.9,5-4.4,6.9-7.1
		c1-1.4,1.8-2.8,2.5-4.3c0.8-1.5,1.4-3.1,2-4.7h0.1c-0.9,3.3-2.2,6.5-4,9.4c-1.8,2.9-4.2,5.5-7,7.5c-2.8,2-5.9,3.5-9.2,4.4
		C157.3,100.9,153.9,101.4,150.5,101.1L150.5,101.1z"/>
</g>
<g>
	<path d="M399.6,361.8c-1.1-1.6-1.899-3.3-2.6-5c-0.6-1.8-1.1-3.6-1.4-5.399c-0.5-3.699-0.3-7.5,0.601-11
		c-0.8,3.601-0.8,7.399-0.2,11c0.3,1.801,0.9,3.601,1.6,5.199c0.7,1.7,1.601,3.301,2.601,4.7L399.6,361.8z"/>
</g>
<g>
	<path d="M755.5,146.5c-6.7,0.1-13.5,0.3-20.2,0.8c-3.398,0.3-6.7,0.6-10,1.1s-6.7,1.1-9.8,2.2c3.2-1.2,6.5-1.9,9.8-2.5
		s6.7-1,10-1.3c6.7-0.7,13.5-1.1,20.2-1.3V146.5z"/>
</g>
<g>
	<path d="M361.3,494.2c0,0,0-0.102-0.1-0.102c-0.101,0,0,0,0.1,0c0.2,0,0.4-0.1,0.601-0.3c0.399-0.2,0.8-0.6,1.199-0.898
		c0.801-0.7,1.5-1.4,2.301-2.102c1.5-1.5,2.8-3,4.199-4.6c2.7-3.102,5.4-6.4,7.9-9.602c-2.5,3.4-4.9,6.7-7.6,10
		c-1.301,1.602-2.601,3.2-4,4.802c-0.7,0.8-1.4,1.5-2.2,2.198c-0.4,0.4-0.8,0.7-1.3,1c-0.2,0.2-0.5,0.302-0.801,0.4
		c-0.199,0-0.399,0.1-0.699,0c-0.301-0.1-0.5-0.5-0.5-0.8h0.899V494.2z"/>
</g>
<g>
	<path d="M399.3,531.1c2.4-1.198,4.8-2.198,7.3-3.198c2.5-0.9,5-1.7,7.5-2.4c2.602-0.6,5.2-1.1,7.802-1.3
		c2.6-0.2,5.3-0.102,7.898,0.398c-2.6-0.5-5.2-0.5-7.8-0.198c-2.6,0.3-5.2,0.898-7.7,1.6s-5,1.6-7.399,2.6
		c-2.4,1-4.801,2.102-7.101,3.302L399.3,531.1z"/>
</g>
</svg>
