<?xml version="1.0" encoding="utf-8"?>
<!-- Generator: Adobe Illustrator 15.0.0, SVG Export Plug-In . SVG Version: 6.00 Build 0)  -->
<!DOCTYPE svg PUBLIC "-//W3C//DTD SVG 1.1//EN" "http://www.w3.org/Graphics/SVG/1.1/DTD/svg11.dtd">
<svg version="1.1" id="layer_x5F_www.ABC-color.com"
	 xmlns="http://www.w3.org/2000/svg" xmlns:xlink="http://www.w3.org/1999/xlink" x="0px" y="0px" width="822px" height="567px"
	 viewBox="0 0 822 567" enable-background="new 0 0 822 567" xml:space="preserve">
<path id="www.ABC-color.com" fill="#FFFFFF" stroke="#000000" stroke-miterlimit="10" d="M308,71c-2.4,0.4-4.8,1.2-7,2.3
	c-13.7,7.2-17.4,26.8-8.5,43.9c9,17.1,27.3,25.1,41,17.9c9.8-5.2,14.5-16.8,13-29.3c-0.6-4.8-2.1-9.8-4.6-14.6
	c-5.101-9.6-13.101-16.4-21.7-19.1c-2.8-0.9-5.601-1.4-8.4-1.4C310.5,70.7,309.3,70.8,308,71z M420.1,162.1
	c-21,78.4-129.7,63-129.7,63c-7.6,0.4-14.6-0.6-21.1-2.6c-41-13-59.3-68.5-59.3-68.5C196,50.2,259.8,30.3,268.1,28.2
	c0,1.9,0.6,4.1,1.9,6.8c0,0,13-6,17-5c0,0,75-2,91,23c0,0,0.9-6.7,0-13.8l2-0.3c44,14,44.6,51.8,44.6,51.8l-0.3,1
	c-6.1-1.8-10.398-3.1-10.398-3.1C393.5,83.2,376.3,124,376.3,124c-10.7,47.3,22.601,41.9,22.601,41.9c7.1-1,14.6-5.1,21.8-10.6
	l0.8,1C421,158.3,420.6,160.2,420.1,162.1z"/>
<path fill="#FFFFFF" stroke="#000000" stroke-miterlimit="10" d="M270,35c-1.3-2.7-1.8-4.9-1.9-6.8C267.8,18.3,282,19,282,19
	c13-23,29-3,29-3c24-14,25,5,25,5c22-17,29,2,29,2c9,0,12.1,8.4,13,16.3c0.9,7.1,0,13.8,0,13.8c-16-25-91-23-91-23
	C283,29,270,35,270,35z"/>
<path fill="#FFFFFF" stroke="#000000" stroke-miterlimit="10" d="M464.4,103.7c0,0-20.602,33.7-43.7,51.6
	c-7.2,5.6-14.601,9.6-21.8,10.6c0,0-33.301,5.4-22.601-41.9c0,0,17.2-40.8,37.602-35.4c0,0,4.3,1.3,10.398,3.1
	C438.2,96,461.4,103,464.4,103.7z"/>
<path fill="#FFFFFF" stroke="#000000" stroke-miterlimit="10" d="M269.3,222.5c6.5,2,13.5,3,21.1,2.6c0,0,108.6,15.4,129.7-63
	c19.5-16,124.802,0.7,124.802,0.7c78.6,13.5,109-11.4,109-11.4c20.398-16.1,7.5-31.1,7.5-31.1c21.1,4.2,11.1,34.5,10.8,35.4
	c5.398-11.8,15-23.6,15-23.6c7.398,4.3-5.102,28.4-5.4,29c9.7-11.8,21.5-11.8,21.5-11.8c6.4,13.8-17.6,30.7-18.3,31.1
	c36.5-18.2,34.4,10.8,34.4,10.8c-9.7-12.9-29.302,4.8-29.302,4.8C662.3,343,566,344.1,566,344.1c-21.4,80.102-83.7,87.602-99.9,88.2
	c-2.5,0.102-3.898,0-3.898,0c-6.3,0-11-1.898-14.602-4.7c-11.3-8.898-11.5-27.198-11.5-27.198c-36.5,25.8-51.199-7.802-51.199-7.802
	C367.2,403.9,354.5,408.2,345.3,408.2c-7.6,0-12.8-2.9-16.2-7.2c-9.399-11.6-6.5-33.1-6.5-33.1C232.4,326,268.9,224,268.9,224
	L269.3,222.5z"/>
<path fill="#FFFFFF" stroke="#000000" stroke-miterlimit="10" d="M466.1,432.3l-20.8,46.3l9.2,71.302c-4.6,2.3-6.9-1.2-6.9-1.2
	L437.3,490.1L407.4,540.7c-8.101,2.3-6.9-6.9-6.9-6.9l25.3-47.1L359.1,497c-6.899-1.1-1.1-6.9-1.1-6.9l65.5-13.8
	c13.5-1.8,21.3-34.5,24.1-48.7c3.602,2.9,8.4,4.7,14.602,4.7C462.2,432.4,463.6,432.4,466.1,432.3z"/>
<path fill="#FFFFFF" stroke="#000000" stroke-miterlimit="10" d="M346.5,105.8c1.5,12.5-3.2,24.1-13,29.3c-13.6,7.2-32-0.8-41-17.9
	c-9-17-5.2-36.7,8.5-43.9c2.2-1.2,4.6-1.9,7-2.3c-1.2,4.4-14.1,54.3,38.3,34.8H346.5z"/>
<path fill="#FFFFFF" stroke="#000000" stroke-miterlimit="10" d="M346.5,105.8h-0.3C293.9,125.4,306.8,75.5,308,71
	c1.3-0.2,2.6-0.3,3.9-0.3c2.8,0,5.6,0.5,8.399,1.4c-0.899,3.6-4.5,21.5,21.7,19.1C344.5,96,346,101,346.5,105.8z"/>
<path fill="#FFFFFF" stroke="#000000" stroke-miterlimit="10" d="M329.1,401c3.5,4.3,8.601,7.2,16.2,7.2v1.6L320,459.5h4.6l9.2,71.1
	c-4.6,2.302-6.899-1.3-6.899-1.3l-10.4-58.6l-29.9,50.6c-8,2.3-6.9-6.898-6.9-6.898L305,467.3l-66.7,10.4c-6.9-1.2-1.2-6.9-1.2-6.9
	l65.5-13.8c17.2-2.3,25.3-55.2,25.3-55.2L329.1,401z"/>
<path fill="#FFFFFF" stroke="#000000" stroke-miterlimit="10" d="M320.3,72.1c8.5,2.7,16.601,9.5,21.7,19.1
	C315.8,93.6,319.3,75.7,320.3,72.1z"/>
<g>
	<path d="M277.1,78.7c0.6-2.4,1.4-4.6,2.5-6.8c1-2.2,2.3-4.3,3.7-6.3c2.9-3.9,6.7-7.3,11.2-9.5c2.2-1.1,4.6-2,7.1-2.5
		c2.4-0.6,5-0.8,7.5-0.6s4.9,0.6,7.301,1.2c2.399,0.7,4.6,1.5,6.8,2.7l-0.101,0.3c-4.8-0.7-9.5-1.3-14.1-1.2
		c-4.6,0.1-9.2,0.5-13.4,2.3c-4.2,1.8-8,4.7-11,8.3c-3.1,3.6-5.5,7.7-7.1,12.2L277.1,78.7z"/>
</g>
<g>
	<path d="M387,320c7.9,3.5,15.9,6.7,24,9.8c8.1,3.101,16.2,6,24.5,8.601c8.2,2.601,16.5,5,25,6.899c4.2,0.9,8.4,1.7,12.7,2.3
		c4.3,0.602,8.6,0.9,12.8,0.801l0,0l0,0c3.5,0.101,7.2-0.199,10.7-0.699c3.6-0.5,7.1-1.2,10.6-2c7-1.7,13.9-4,20.5-6.801
		c13.3-5.699,25.7-13.301,37-22.301s21.602-19.3,30.8-30.398c9.2-11.1,17.5-23,24.9-35.5l0.1-0.1l0.102-0.1
		c4.3-4,8.398-8.2,11.898-12.9c1.7-2.3,3.4-4.8,4.2-7.4c0.2-0.7,0.3-1.3,0.3-1.9c0-0.6-0.198-1.3-0.398-2c-0.4-1.3-1-2.5-2.102-3.2
		c-1-0.7-2.398-0.9-3.698-0.8c-1.4,0.1-2.7,0.5-4,1c-2.7,1.1-5.2,2.6-7.602,4.2c-4.8,3.3-9.3,7.2-13.6,11.2l-1.101-1.2
		c2.301-2.1,4.5-4.3,6.5-6.6c2.101-2.3,4-4.7,5.601-7.3c0.8-1.3,1.5-2.6,2.1-4c0.602-1.4,1-2.8,1-4.3c0-1.4-0.398-2.8-1.398-3.8
		c-0.802-1-2.2-1.1-3.602-0.8c-1.398,0.4-2.8,1.1-4.1,1.9c-1.3,0.8-2.601,1.7-3.8,2.6c-2.4,1.9-4.801,4-7.102,6.1l-6.8,6.4
		c-1.2,1.1-2.3,2.1-3.7,3c-0.199,0.1-0.398,0.2-0.6,0.3c-0.1,0-0.3,0.1-0.4,0.1c-0.199,0-0.398,0-0.699-0.2
		c-0.301-0.2-0.301-0.5-0.399-0.6c0-0.2,0-0.3,0-0.4c0-0.3,0.1-0.4,0.1-0.7c0.2-0.8,0.5-1.6,0.8-2.3c1.302-2.9,3.2-5.5,4.9-8.1
		c1.8-2.6,3.6-5.1,5.2-7.8c0.8-1.3,1.5-2.7,2.1-4.1c0.5-1.4,1-2.9,0.7-4.2c-0.3-1.3-1.5-2.2-2.9-2.6c-1.3-0.3-2.8,0.2-4.198,0.8
		c-2.802,1.3-5.2,3.2-7.602,5.2c-2.398,2-4.6,4.2-6.898,6.3c-2.2,2.2-4.4,4.4-6.602,6.6c-1.1,1.1-2.2,2.2-3.398,3.3
		c-0.602,0.5-1.2,1.1-1.802,1.6c-0.3,0.3-0.6,0.5-0.898,0.7c-0.2,0.1-0.3,0.2-0.5,0.4l-0.3,0.2c0,0-0.102,0.1-0.302,0.1
		c0.102,0.1-0.6,0-0.6-0.4c0-0.2,0-0.3,0.1-0.3c0.102-0.3,0.302-0.4,0.4-0.6l0.4-0.5l0.699-0.9l1.5-1.8c1-1.2,1.899-2.4,2.899-3.7
		c1.8-2.5,3.601-5.1,4.9-7.9c0.7-1.4,1.2-2.8,1.398-4.3c0.2-1.5,0-3.1-0.898-4.2c-0.9-1.1-2.5-1.7-4-1.7c-1.5-0.1-3,0.2-4.5,0.6
		c-3,0.9-5.8,2.3-8.4,3.9c-2.6,1.6-5.2,3.5-7.5,5.5c-4.7,4.1-8.8,8.8-12.2,14.1c-4.1,4.8-10,7.9-16.199,9s-12.601,0.3-18.601-1.5
		c-6-1.8-11.7-4.6-17-7.8c-5.3-3.3-10.399-7-15.2-11l0.102-0.1c4.8,4,9.8,7.7,15.199,11c5.301,3.2,11,6,17,7.8s12.301,2.5,18.5,1.4
		c6.101-1.1,12-4.1,16-8.9c3.301-5.3,7.5-10.1,12.199-14.2c2.4-2.1,4.9-3.9,7.5-5.6c2.7-1.6,5.5-3.1,8.5-3.9
		c1.5-0.4,3.102-0.7,4.602-0.6c1.6,0.1,3.199,0.6,4.199,1.8c1.101,1.2,1.301,2.9,1,4.5c-0.199,1.6-0.801,3-1.399,4.5
		c-2.7,5.7-6.9,10.5-10.601,15.4l0,0c0,0-0.101,0,0,0c0,0,0.101,0,0.101-0.1c0.1-0.1,0.2-0.1,0.2-0.2l0.5-0.3
		c0.3-0.2,0.6-0.5,0.898-0.7c0.602-0.5,1.2-1,1.7-1.6c1.101-1.1,2.2-2.2,3.3-3.3c2.2-2.2,4.4-4.5,6.602-6.7s4.5-4.4,6.898-6.4
		c2.4-2,4.9-4,7.7-5.3c1.4-0.6,3-1.1,4.601-0.8c0.801,0.2,1.5,0.5,2.101,1c0.6,0.5,1.1,1.2,1.2,2c0.3,1.6-0.102,3.2-0.7,4.6
		c-0.601,1.5-1.3,2.8-2.101,4.2c-1.601,2.7-3.399,5.2-5.199,7.8c-1.7,2.6-3.602,5.2-4.801,8c-0.301,0.7-0.601,1.4-0.699,2.2
		c-0.102,0.4-0.2,0.8,0,1c0.3,0.1,0.699-0.1,1-0.3c1.3-0.8,2.398-1.9,3.6-3l6.8-6.4c2.3-2.1,4.602-4.2,7.102-6.1
		c1.198-1,2.5-1.9,3.8-2.7c1.3-0.8,2.7-1.6,4.3-2c0.8-0.2,1.6-0.3,2.4-0.2c0.8,0.1,1.5,0.5,2.1,1.1c1.1,1.2,1.6,2.8,1.6,4.3
		c0,1.6-0.398,3.1-1,4.6c-0.6,1.5-1.3,2.8-2.198,4.2c-1.7,2.7-3.602,5.1-5.7,7.5c-2.102,2.3-4.3,4.6-6.602,6.7l-0.1-0.1
		c4.3-4,8.8-7.9,13.6-11.3c2.4-1.7,5-3.2,7.7-4.3c1.4-0.5,2.8-1,4.3-1.1c1.5-0.1,3.102,0.1,4.302,0.9c1.3,0.8,2,2.2,2.5,3.7
		c0.198,0.7,0.3,1.4,0.398,2.2c0,0.8-0.1,1.5-0.3,2.2c-0.9,2.9-2.6,5.4-4.3,7.7c-3.602,4.7-7.7,9-12,13l0,0
		c-7.5,12.4-15.8,24.4-25.102,35.5c-9.3,11.101-19.6,21.5-31,30.5c-11.398,9-23.898,16.699-37.198,22.301
		c-6.7,2.8-13.602,5.1-20.602,6.8c-3.5,0.8-7.1,1.5-10.7,2c-3.6,0.5-7.198,0.8-10.898,0.7l0,0c-4.3,0.1-8.7-0.2-12.9-0.801
		c-4.3-0.601-8.5-1.399-12.8-2.399c-8.399-1.899-16.7-4.399-25-7c-8.2-2.7-16.399-5.7-24.399-8.8C402.9,326.9,394.9,323.6,387,320
		L387,320z"/>
</g>
<g>
	<path d="M464.4,103.7c-2.102,2.6-4.302,5.1-6.5,7.6c-2.4,2.4-4.802,4.7-7.2,6.9c-4.9,4.5-10,8.8-15.3,12.8
		c-5.4,4-11,7.6-17.102,10.4c-3,1.4-6.2,2.6-9.5,3.3c-3.3,0.6-6.8,0.7-10-0.1c3.3,0.4,6.601,0,9.8-0.9c3.2-0.7,6.301-1.9,9.301-3.2
		c6-2.8,11.6-6.4,16.898-10.3c5.3-3.9,10.4-8.2,15.3-12.7c2.4-2.2,4.8-4.5,7.2-6.9C459.6,108.4,462,106,464.4,103.7z"/>
</g>
<g>
	<path d="M393,136.6c1.4,0.7,2.7,1.7,3.7,3c1.1,1.2,2,2.6,2.399,4.3c0.2,0.8,0.301,1.7,0.101,2.6s-0.5,1.7-1.101,2.4
		c-0.5,0.7-1.199,1.3-1.8,1.7c-0.7,0.4-1.399,0.8-2.2,1v-0.1c1.301-0.8,2.601-1.7,3.4-3s1-2.9,0.6-4.4c-0.399-1.5-1.1-2.9-2-4.1
		C395.2,138.8,394.2,137.7,393,136.6L393,136.6z"/>
</g>
<g>
	<path d="M417.2,118.8c0.5-0.4,1-0.6,1.398-0.8c0.5-0.1,1-0.2,1.4-0.2c0.5,0,1,0.1,1.4,0.2c0.5,0.2,1,0.4,1.398,0.8
		c-0.5,0.4-1,0.6-1.398,0.8c-0.5,0.1-1,0.2-1.4,0.2c-0.5,0-1-0.1-1.4-0.2C418.1,119.4,417.6,119.2,417.2,118.8z"/>
</g>
<g>
	<path d="M427.5,102.1c0.6-0.3,1.3-0.4,1.9-0.5c0.6,0,1.198,0,1.8,0.1c0.6,0.1,1.1,0.3,1.7,0.5c0.5,0.3,1.1,0.6,1.6,1.1
		c-0.6,0.3-1.3,0.4-1.9,0.5c-0.6,0-1.198,0-1.8-0.1c-0.6-0.1-1.1-0.3-1.7-0.5C428.5,102.9,428,102.6,427.5,102.1z"/>
</g>
</svg>
