<?xml version="1.0" encoding="utf-8"?>
<!-- Generator: Adobe Illustrator 15.0.0, SVG Export Plug-In . SVG Version: 6.00 Build 0)  -->
<!DOCTYPE svg PUBLIC "-//W3C//DTD SVG 1.1//EN" "http://www.w3.org/Graphics/SVG/1.1/DTD/svg11.dtd">
<svg version="1.1" id="layer_x5F_www.ABC-color.com"
	 xmlns="http://www.w3.org/2000/svg" xmlns:xlink="http://www.w3.org/1999/xlink" x="0px" y="0px" width="822px" height="567px"
	 viewBox="0 0 822 567" enable-background="new 0 0 822 567" xml:space="preserve">
<path fill="#FFFFFF" stroke="#000000" stroke-miterlimit="10" d="M649.6,479.8c22.9-3.8,42.7-22.898,42.7-22.898
	c7.602-13.7,0-45.7,0-45.7L692,407c5-0.4,12.5-1.7,17.1-5c-3.1,17.5,2.302,54.9,2.302,54.9c3.8,11.398,19.8,23.6,19.8,23.6
	s7.6-0.8,0.8,3c-6.9,3.8-24.4-13-24.4-13c-3.5,9-18.898,23.7-21.699,26.3c5.699-5.898,5.699-24.8,5.699-24.8
	C674.8,480.5,649.6,479.8,649.6,479.8z"/>
<path fill="#FFFFFF" stroke="#000000" stroke-miterlimit="10" d="M663.3,339.5c0,0,83.102,16,51.102-107.5
	c0,0-57.9-13.7-66.302-29.7C648.1,202.3,538.3,296.8,663.3,339.5z M486.5,249.5c-8.4-45.7,3-109,3-109c19.8,22.1,45,29.7,45,29.7
	c35.8,15.3,76.3-46.5,76.3-46.5c6.4-22.9,4.602-40.5-1.3-54L611,73c38.9,70.1,103.4,83.5,103.4,83.5c65.6,13,91.5,121.2,91.5,121.2
	c9.1,76.2-90,114.3-90,114.3c-2.9,4.2-3.602,7.6-6.9,9.9c-4.6,3.3-12.1,4.5-17.1,5C669.1,408.8,645,386.7,645,386.7
	c-3.8,2.3-41.2-0.8-41.2-0.8c-3.6,1.699-5.7,5.3-8.898,6.5c-2.102,0.8-4.2,1.398-6.102,1.8c-14,3.3-24.398-0.5-30.8-5.101
	C544,379,544.3,356.9,544.3,356.9C493.3,334.2,486.5,249.5,486.5,249.5z"/>
<path fill="#FFFFFF" stroke="#000000" stroke-miterlimit="10" d="M551.3,453.1C537,461.4,513.2,477.7,512.4,478.3
	c3.1-10.7,25.1-27.398,25.1-27.398c-17.5,2.898-32.9-0.4-34.2-0.7c22.101,3,42.601-16.8,42.601-16.8
	c9.101-8.4,10.699-42.7,10.699-42.7l1.5-1.301c6.4,4.601,16.801,8.301,30.801,5.101c-27.5,17.9-26.199,49.6-26.199,49.6
	c12.199,13.7,5.3,35.9,5.3,35.9C558.9,465.3,551.3,453.1,551.3,453.1z"/>
<path fill="#FFFFFF" stroke="#000000" stroke-miterlimit="10" d="M714.4,232c32,123.5-51.102,107.5-51.102,107.5
	c-125-42.7-15.3-137.2-15.3-137.2C656.5,218.3,714.4,232,714.4,232z"/>
<path fill="#FFFFFF" stroke="#000000" stroke-miterlimit="10" d="M609.5,69.7c5.8,13.5,7.7,31.1,1.3,54c0,0-40.398,61.8-76.3,46.5
	c0,0-25.1-7.6-45-29.7c0,0-18.3-31.9-19.1-36.6l0,0c0,0-17.5-79.3,86.898-75.5C557.4,28.4,595.3,36.9,609.5,69.7z M529.5,102.4
	c0-7.6-6.6-13.7-14.9-13.7c-8.198,0-14.898,6.2-14.898,13.7c0,7.6,6.6,13.7,14.898,13.7C522.9,116.1,529.5,110,529.5,102.4z"/>
<path id="www.ABC-color.com" fill="#FFFFFF" stroke="#000000" stroke-miterlimit="10" d="M514.7,88.7c8.2,0,14.898,6.2,14.898,13.7
	c0,7.6-6.6,13.7-14.898,13.7c-8.2,0-14.9-6.1-14.9-13.7S506.5,88.7,514.7,88.7z M518,103.5c0-4.4-2.7-8-6-8s-6,3.6-6,8s2.7,8,6,8
	S518,107.9,518,103.5z"/>
<path fill="#FFFFFF" stroke="#000000" stroke-miterlimit="10" d="M512,95.5c3.3,0,6,3.6,6,8s-2.7,8-6,8s-6-3.6-6-8
	S508.7,95.5,512,95.5z"/>
<path fill="#FFFFFF" stroke="#000000" stroke-miterlimit="10" d="M470.5,103.9c0.8,4.6,19.1,36.6,19.1,36.6
	c-16,6.9-37.398-0.8-37.398-0.8C455.2,131.4,470.5,103.9,470.5,103.9z"/>
<path fill="#FFFFFF" stroke="#000000" stroke-miterlimit="10" d="M261.2,388.6c-2,6-14.6,11.302-23.2,14.2c-4.6,1.602-8,2.5-8,2.5
	c-40.4,6.8-127.3-67.899-127.3-67.899C15.8,302.3,29.5,241.3,29.5,241.3c-8.4-12.3-3.1-63.8-1.3-79.1c12.2,26.9,38.9,45.6,69.9,45.6
	c42.5,0,77-35.1,77-78.5c0-5-0.5-9.8-1.3-14.5c55.7-13.5,166.7,48.1,166.7,48.1c86.1,44.2,19.1,133.4,19.1,133.4
	c12.2,35.101-53.399,92.2-53.399,92.2c-2.1,2.2-4.1,4-6.1,5.6c-6.5,5.102-12.4,7-17.4,7c-5.5,0-10-2.1-13.5-4.6
	C264.1,393,261.2,388.6,261.2,388.6z M185.8,316.2c0,0,93,69.399,124.3-89.2c0,0-86.899-27.5-106-48
	C204.1,178.9,111,241.5,185.8,316.2z"/>
<path fill="#FFFFFF" stroke="#000000" stroke-miterlimit="10" d="M224,473.5c-0.8,0.2-38.4,11.5-42.8,11.9
	c-28.9,2.698,19-15.5,28.8-19.2c0.6-0.102,1.2-0.3,1.6-0.602h0.1c13.4-3.198,24.9-9.3,34.5-16.5c25.2-19.1,37.2-46,37.2-46l-0.6-2
	c5.1,0,11-1.8,17.4-6.999c0.3,15.899-12.6,42.999-29.1,63.699c-1.8,2.2,4.8,13.102,2.4,12.3c-9.2-3.1-16-2.3-16-2.3
	c-4.4,1.102-4.9,0.102-7.9,7.102c-1,2.398-16.2,34.3-18.8,34.8c-3.3,0.7,7.5-32.9,4.3-32.8c-3.6,0.1-23.3,24.698-26.4,24.398
	C202,500.8,223.4,474.2,224,473.5z"/>
<path fill="#FFFFFF" stroke="#000000" stroke-miterlimit="10" d="M310,227c-31.3,158.6-124.3,89.2-124.3,89.2
	C111,241.5,204,179,204,179C223.1,199.5,310,227,310,227z"/>
<path fill="#FFFFFF" stroke="#000000" stroke-miterlimit="10" d="M269.2,396.5l-0.3,0.4c0,0-23.6,44.198-22.9,51.898l0.2,0.2
	c-9.6,7.3-21,13.4-34.5,16.5h-0.1c-0.2,0.1-0.8,0.3-1.6,0.6c-10.1,2.4-45.8-5.3-53.9-7.1c11.5,1.3,63.2-10.3,63.2-10.3
	c16.8-4.602,19.1-45,19.1-45l-0.4-1c8.6-3,21.2-8.301,23.2-14.2C261.2,388.6,264.1,393,269.2,396.5z"/>
<path fill="#FFFFFF" stroke="#000000" stroke-miterlimit="10" d="M173.8,114.9c0.9,4.7,1.3,9.6,1.3,14.5c0,43.4-34.5,78.5-77,78.5
	c-31,0-57.7-18.7-69.9-45.6c-4.6-10-7.1-21.2-7.1-32.9c0-43.4,34.5-78.5,77-78.5C135.8,50.9,167.1,78.4,173.8,114.9z M145.4,116.8
	c0-7.4-4.4-13.4-9.9-13.4s-9.9,6-9.9,13.4c0,7.4,4.4,13.3,9.9,13.3C140.9,130.1,145.4,124.2,145.4,116.8z M121,141.6
	c0,0-15.2-19.1-23.6-28.2c0,0-9.2,24.4-14.5,31.3c0,0,19.6,25.9,23.4,33.5C106.3,178.2,115.6,149.2,121,141.6z M76,124.8
	c0-7.2-4.8-13-10.7-13c-5.9,0-10.7,5.8-10.7,13c0,7.1,4.8,12.9,10.7,12.9C71.2,137.8,76,132,76,124.8z"/>
<path fill="#FFFFFF" stroke="#000000" stroke-miterlimit="10" d="M135.5,103.5c5.5,0,9.9,6,9.9,13.4s-4.4,13.3-9.9,13.3
	s-9.9-6-9.9-13.3C125.5,109.4,130,103.5,135.5,103.5z M141,119c0-3.9-2.5-7-5.5-7s-5.5,3.1-5.5,7s2.5,7,5.5,7S141,122.9,141,119z"/>
<path fill="#FFFFFF" stroke="#000000" stroke-miterlimit="10" d="M135.5,112c3,0,5.5,3.1,5.5,7s-2.5,7-5.5,7s-5.5-3.1-5.5-7
	S132.5,112,135.5,112z"/>
<path fill="#FFFFFF" stroke="#000000" stroke-miterlimit="10" d="M97.3,113.4c8.4,9.2,23.6,28.2,23.6,28.2
	c-5.3,7.6-14.7,36.6-14.7,36.6c-3.8-7.6-23.4-33.5-23.4-33.5C88.2,137.8,97.3,113.4,97.3,113.4z"/>
<path fill="#FFFFFF" stroke="#000000" stroke-miterlimit="10" d="M65.3,111.8c5.9,0,10.7,5.8,10.7,13c0,7.1-4.8,12.9-10.7,12.9
	c-5.9,0-10.7-5.8-10.7-12.9C54.6,117.6,59.4,111.8,65.3,111.8z M71,125.5c0-3.6-2.2-6.5-5-6.5s-5,2.9-5,6.5s2.2,6.5,5,6.5
	S71,129.1,71,125.5z"/>
<ellipse fill="#FFFFFF" stroke="#000000" stroke-miterlimit="10" cx="66" cy="125.5" rx="5" ry="6.5"/>
</svg>
