<?xml version="1.0" encoding="utf-8"?>
<!-- Generator: Adobe Illustrator 15.0.0, SVG Export Plug-In . SVG Version: 6.00 Build 0)  -->
<!DOCTYPE svg PUBLIC "-//W3C//DTD SVG 1.1//EN" "http://www.w3.org/Graphics/SVG/1.1/DTD/svg11.dtd">
<svg version="1.1" id="layer_x5F_www.ABC-color.com"
	 xmlns="http://www.w3.org/2000/svg" xmlns:xlink="http://www.w3.org/1999/xlink" x="0px" y="0px" width="822px" height="567px"
	 viewBox="0 0 822 567" enable-background="new 0 0 822 567" xml:space="preserve">
<path fill="#FFFFFF" stroke="#000000" stroke-miterlimit="10" d="M742.6,175L742.6,175L742.6,175z M755,187c0.7-0.5,26-21.5,26,0
	c0,0,8,34-12.3,57.1C767.3,227.3,738,227,738,227c0-2-0.4-3.8-1.2-5.4C731.7,210.3,711,208,711,208c-1-18-29-15-29-15
	c-1.5-5.9-14.2-5.8-20.9-5.4c3.302-2.9,5-5.8,12.9-8.6c0-0.2,0.1-7,9-7c0,0,25.7-39.1,36-36c5.8,1.8,0.2,21.6-1.4,26.9
	c1.7-5.2,8.5-24.6,14.4-22.9c6.2,1.8-0.1,25.3-0.3,25.9c0.3-0.5,11.3-19,16.3-16.3c5.4,3-4.4,23.2-5.4,25.2
	c1.102-2.2,13.802-26.2,20.302-22.9C770.9,156.1,755.4,186.2,755,187z"/>
<path fill="#FFFFFF" stroke="#000000" stroke-miterlimit="10" d="M660,266L660,266L660,266z M709,312c0.6-0.8,17.9-21.9,22-18
	c4.9,4.6-5.9,26.3-5.9,26.3s-9.8,27.101-29.8,49L695,369c-5,0-6-11-6-11c-19,5-23-26-23-26c-28,7-30-18-30-18c-14,0-3-26-3-26
	c-11.3-1.9-8.4-20.7-8-22.8c16.1-16.4,35.1-29.9,53-28.3c7.5,0.7-16.6,27.6-17.9,29.1c1.4-1.1,25.5-21,30.602-14.5
	c3.7,4.7-10.8,20.7-11.602,21.6c1-0.8,23-18.1,28-12.5c4.9,5.4-11.6,32.9-12,33.5c0.602-0.6,23.4-23.6,28.302-17.2
	C727.5,282.2,709.5,311.2,709,312z"/>
<path fill="#FFFFFF" stroke="#000000" stroke-miterlimit="10" d="M695,369l0.3,0.3c-16.7,18.2-40.5,32.8-71.7,25.4
	c0,0-50.8-23.601-38.1-78c0,0,16.9-28.5,39.5-51.5c-0.3,2.1-3.3,20.899,8,22.8c0,0-11,26,3,26c0,0,2,25,30,18c0,0,4,31,23,26
	C689,358,690,369,695,369z"/>
<path id="www.ABC-color.com" fill="#FFFFFF" stroke="#000000" stroke-miterlimit="10" d="M625,265.2c-22.6,23-39.5,51.5-39.5,51.5
	c-12.7,54.399,38.1,78,38.1,78c31.302,7.398,55-7.2,71.7-25.4c20.102-21.899,29.8-49,29.8-49S735.9,298.6,731,294
	c-4.1-3.9-21.4,17.2-22,18c0.5-0.8,18.5-29.8,14.3-35.2C718.4,270.4,695.6,293.4,695,294c0.4-0.7,16.9-28.1,12-33.5
	c-5-5.6-26.9,11.7-28,12.5c0.8-0.9,15.3-16.9,11.6-21.6c-5.1-6.4-29.198,13.4-30.6,14.5c1.3-1.5,25.4-28.4,17.9-29.1
	C660.1,235.3,641.1,248.8,625,265.2z M768.7,244.1c0,0,43.5,112.4-52.602,170.5c0,0-3.6,30.802-30.8,43.5
	c0,0-6.898,4.302-17.6,9.302c-20.601,9.698-55.101,22.398-81.4,13.398c-4.6-1.6-9-3.8-13-6.898c-5-3.9-9.5-9.102-13.1-15.802
	c7.3-137.8-78-126.898-78-126.898S533,232,651,193c5.3-1.8,8-3.6,10.1-5.4c6.7-0.4,19.5-0.5,20.9,5.4c0,0,28-3,29,15
	c0,0,20.7,2.3,25.8,13.6c0.7,1.6,1.2,3.4,1.2,5.4C738,227,767.3,227.3,768.7,244.1z"/>
<path fill="#FFFFFF" stroke="#000000" stroke-miterlimit="10" d="M707,503.5l-16,2.5c10.9,14.5,1,44,1,44c-9-14-11-33-11-33
	c-16.3,29-21.2,39-21.2,39c-12.7,0,11.2-41,11.2-41c-18.1,14.5-34.7,12-34.7,12c-9.1-7.3,36.7-25,36.7-25c10.9-12.7-4-34-4-34
	l-1.4-0.6c10.7-5,17.602-9.302,17.602-9.302l5.398,34.5C701.5,490.8,707,503.5,707,503.5z"/>
<path fill="#FFFFFF" stroke="#000000" stroke-miterlimit="10" d="M566,515c-34.4,39.9-33.1,30.1-33.1,30.1
	C529.3,537.9,550.4,515.6,551,514.9l-28,10c7.3-23.602,31.7-23.4,31.7-23.4c14.5,0,18.1-27.2,18.1-27.2l0.4-0.5
	c4,3.102,8.398,5.3,13,6.9L586,483c-7,20-15,61-15,61C558.5,542.2,565.7,515.9,566,515z"/>
<polygon fill="#FFFFFF" stroke="#000000" stroke-miterlimit="10" points="477,491 465.9,523.1 467,502 466.2,501.8 469,491.8 "/>
<polygon fill="#FFFFFF" stroke="#000000" stroke-miterlimit="10" points="469,491.8 466.2,501.8 458.4,529.2 442,481 469.3,491.1 
	"/>
<path fill="#FFFFFF" stroke="#000000" stroke-miterlimit="10" d="M498.4,463.6c-10,0-18.102-8.1-18.102-18.1s8.102-18.1,18.102-18.1
	s18.1,8.1,18.1,18.1C516.6,455.4,508.5,463.6,498.4,463.6z M496,461c5,0,9.1-4.5,9.1-10s-4.1-10-9.1-10s-9.1,4.5-9.1,10
	S491,461,496,461z"/>
<path fill="#FFFFFF" stroke="#000000" stroke-miterlimit="10" d="M496,441c5,0,9.1,4.5,9.1,10s-4.1,10-9.1,10s-9.1-4.5-9.1-10
	S491,441,496,441z"/>
<path fill="#FFFFFF" stroke="#000000" stroke-miterlimit="10" d="M482.1,331.2c0,0,85.2-10.9,78,126.898c0,0-33.1,37.9-83.1,32.9
	l-8,0.8l0.2-0.7L442,481c0,0-32.4-12-36-79.1C406,401.9,409.6,349.3,482.1,331.2z M516.6,445.4c0-10-8.1-18.102-18.1-18.102
	s-18.1,8.102-18.1,18.102s8.1,18.1,18.1,18.1C508.5,463.6,516.6,455.4,516.6,445.4z"/>
<path fill="#FFFFFF" stroke="#000000" stroke-miterlimit="10" d="M350.1,366.4C337.4,408.099,322.9,409.9,322.9,409.9
	C324,391,341,367,341,367c-39.9,27.2-36.3,6.6-36.3,6.6c14.5,0,38.1-25.398,38.1-25.398c19.101-10.301,20.3-36,20.101-45.4
	c7.399,3.602,14.399,5.4,20.899,5.9c-15.399,9.8-19.3,37.699-19.3,37.699c0,7.301,18.1,10.899,18.1,10.899
	c-9.1,5.4-21.699,8.7-21.699,8.7c0,23.6-8,39-8,39C344.1,405,349.9,367.7,350.1,366.4z"/>
<path id="ABC-color.com" fill="#FFFFFF" stroke="#000000" stroke-miterlimit="10" d="M286.6,342.8C273.9,350,245,360,245,360
	c-10.9,0,32-24,32-24c-12.7,1.8-28.5-5.9-28.5-5.9l47.1-9.1l1.6-29.5c6.7,2.9,12.899,4.7,18.399,5.7v0.2l-5.399,29
	c9.1,3.6,12.7,16.3,12.7,16.3l-12.7-3.601c-9.1,10.899-38.1,34.399-38.1,34.399C266.7,368.2,286.1,343.5,286.6,342.8z"/>
<path fill="#FFFFFF" stroke="#000000" stroke-miterlimit="10" d="M419,173l-45.4,1.1L409,190l-46-4l35,23l-46-5l29,22
	c-43.5,20-118-33.7-118-33.7c-32.6-23.6-18.1-63.5-18.1-63.5c23.6-52.6,94.3-21.8,94.3-21.8c39.899,10.9,70.7,38.1,70.7,38.1
	l-29,5.4L419,173z"/>
<path fill="#FFFFFF" stroke="#000000" stroke-miterlimit="10" d="M156,88.9c0,0-9.1,0.6-20.1,1.7C134.9,76,129,78,129,78
	c-6-2-12,15-12,15v0.1c-2.2,0.4-4.4,0.8-6.3,1.2C110.7,94.3,132.5,34.5,156,88.9z"/>
<path fill="#FFFFFF" stroke="#000000" stroke-miterlimit="10" d="M129,78c0,0,5.9-2,7,12.6c-6.2,0.7-13,1.5-19,2.5V93
	C117,93,123,76,129,78z"/>
<path fill="#FFFFFF" stroke="#000000" stroke-miterlimit="10" d="M136,90.6c10.9-1.1,20.1-1.7,20.1-1.7
	c-23.6-54.4-45.3,5.4-45.3,5.4c1.9-0.4,4.1-0.8,6.3-1.2C123,92.1,129.8,91.3,136,90.6z M383.8,308.7c-6.5-0.5-13.5-2.3-20.899-5.9
	c-4.7-2.3-9.601-5.2-14.7-9c0,0-11.601,7.3-32.601,3.4c-5.5-1-11.6-2.8-18.399-5.7c-8.1-3.5-17.2-8.6-27-15.9
	c0,0-77.7-5.7-101.3-112.7c0,0-63,14-85.5-46.9c0,0-10.9-18.1-10.9-38.1c0,0,7.2-52.6,58-67.1c0,0,54.4-23.6,116.1,52.6
	c0,0,74.4-50.8,239.4,9.1c0,0,29-16.3,30.8-30.8c0,0,25.4,61.7-20,88.9c0,0,20,72.5-38.1,99.7C458.9,230.3,435.2,312.5,383.8,308.7z
	 M373.6,174.1L419,173l-38.1-22.5l29-5.4c0,0-30.801-27.2-70.7-38.1c0,0-70.7-30.8-94.3,21.8c0,0-14.5,39.9,18.1,63.5
	c0,0,74.5,53.7,118,33.7l-29-22l46,5l-35-23l46,4L373.6,174.1z"/>
<path fill="#FFFFFF" stroke="#000000" stroke-miterlimit="10" d="M83.5,116.1l-52.6-7.3L72.6,78C72.6,98,83.5,116.1,83.5,116.1z"/>
</svg>
