<?xml version="1.0" encoding="utf-8"?>
<!-- Generator: Adobe Illustrator 15.0.0, SVG Export Plug-In . SVG Version: 6.00 Build 0)  -->
<!DOCTYPE svg PUBLIC "-//W3C//DTD SVG 1.1//EN" "http://www.w3.org/Graphics/SVG/1.1/DTD/svg11.dtd">
<svg version="1.1" id="layer_x5F_www.ABC-color.com"
	 xmlns="http://www.w3.org/2000/svg" xmlns:xlink="http://www.w3.org/1999/xlink" x="0px" y="0px" width="822px" height="567px"
	 viewBox="0 0 822 567" enable-background="new 0 0 822 567" xml:space="preserve">
<path fill="#FFFFFF" stroke="#000000" stroke-miterlimit="10" d="M187.8,122.3c16.8,17.6,69.5,45,69.5,45
	c-58.8,114.5-129.8,58-129.8,58C82.5,159.7,187.8,122.3,187.8,122.3z"/>
<path fill="#FFFFFF" stroke="#000000" stroke-miterlimit="10" d="M363,92c3.3,0,6,2.7,6,6s-2.7,6-6,6s-6-2.7-6-6S359.7,92,363,92z"
	/>
<path fill="#FFFFFF" stroke="#000000" stroke-miterlimit="10" d="M369,98c0-3.3-2.7-6-6-6s-6,2.7-6,6s2.7,6,6,6S369,101.3,369,98z
	 M371.7,95.2c0,7.8-6.2,14.1-13.7,14.1c-7.6,0-13.7-6.3-13.7-14.1c0-7.8,6.101-14.1,13.7-14.1S371.7,87.4,371.7,95.2z"/>
<path fill="#FFFFFF" stroke="#000000" stroke-miterlimit="10" d="M100.8,300.9c3.1,0.3,6.1,0.5,9.1,0.699l-3,36
	c0,0,3,6.899,12.2,10.699c15.5,6.5,17.6,24.4,17.6,24.4c-7.6,0.8-27.5-18.301-27.5-18.301c0,8.399-0.4,32.399-0.4,32.399L98.5,354.4
	L87.8,353.6l8.4-8.398L100.8,300.9z"/>
<path fill="#FFFFFF" stroke="#000000" stroke-miterlimit="10" d="M400.8,101c8.4,19.8,16,31.3,16,31.3l-32.1-0.8
	c-3.601,0.3-5.9,0.1-7.4-0.3c-6.1-1.7,2.8-8.1,2.8-8.1C393.9,104,400.8,101,400.8,101z"/>
<path fill="#FFFFFF" stroke="#000000" stroke-miterlimit="10" d="M127.5,225.4c0,0,71,56.5,129.8-58c0,0-52.7-27.5-69.5-45
	C187.8,122.3,82.5,159.7,127.5,225.4z M344.3,95.2c0,7.8,6.101,14.1,13.7,14.1s13.7-6.3,13.7-14.1c0-7.8-6.2-14.1-13.7-14.1
	C350.4,81.1,344.3,87.4,344.3,95.2z M329,18.5c95.4,7.6,71.8,82.5,71.8,82.5s-6.899,3-20.6,22.1c0,0-8.9,6.4-2.8,8.1l-0.301,1
	c0,0-18.3,9.2-30.5,36.6c0,0,16.9,89-126.7,122.9c0,0-2.4,0.8-6.9,2c-3.3,0.8-7.6,1.8-13,2.899c-18.5,3.5-49.3,7.399-90,4.899
	c-3-0.2-6-0.399-9.1-0.7C-8.4,230.7,48.1,117.7,48.1,117.7c33.6-91.6,171.7-48.9,171.7-48.9C280.9,11.6,329,18.5,329,18.5z"/>
<path fill="#FFFFFF" stroke="#000000" stroke-miterlimit="10" d="M254.2,359.7c-3.1,0.8-27.5-3.8-27.5-3.8
	c6,3.8,11.3,18.6,11.5,19.1c-13.7-5.3-25.9-21.4-25.9-21.4c-13,9.2-16.8,2.301-16.8,2.301c-3.8-2.301,9.9-10.699,9.9-10.699
	c5.4-8.4-5.3-48.102-5.3-48.102L200,296.7c5.4-1.101,9.7-2.101,13-2.9l0.1,0.3l3.8,35.9c0.8,11.5,7.6,15.3,7.6,15.3
	C235.1,352.8,254.2,359.7,254.2,359.7z"/>
<path fill="#FFFFFF" stroke="#000000" stroke-miterlimit="10" d="M586.5,517.6c17.5,2.302,47.5,5.7,76.9,6.602
	c-38.9,5.5-80.102,28.7-80.102,28.7l5.3-14.5c-7.6,6.1-45,16.8-45,16.8c-5.3,0,29.5-21.5,30.5-22.102
	c-8.8,3.7-39.698-1.898-41.8-2.3c9.4,1.4,54.102-12.2,54.102-12.2L586.5,517.6z"/>
<path fill="#FFFFFF" stroke="#000000" stroke-miterlimit="10" d="M680.3,360.5c43.2,0,75.9,20.8,75.9,58.8c0,37.9-35,68.7-78.2,68.7
	s-78.2-30.8-78.2-68.7C599.8,381.3,637.1,360.5,680.3,360.5z"/>
<path fill="#FFFFFF" stroke="#000000" stroke-miterlimit="10" d="M475.8,327.4c5.602,0,10.102,7.6,10.102,17.1
	s-4.5,17.1-10.102,17.1c-5.6,0-10.1-7.6-10.1-17.1C465.8,335,470.3,327.4,475.8,327.4z M479,348.5c0-4.7-1.6-8.5-3.5-8.5
	s-3.5,3.8-3.5,8.5s1.6,8.5,3.5,8.5S479,353.2,479,348.5z"/>
<path fill="#FFFFFF" stroke="#000000" stroke-miterlimit="10" d="M475.5,340c1.9,0,3.5,3.8,3.5,8.5s-1.6,8.5-3.5,8.5
	s-3.5-3.8-3.5-8.5S473.6,340,475.5,340z"/>
<path id="www.ABC-color.com" fill="#FFFFFF" stroke="#000000" stroke-miterlimit="10" d="M524.5,340c1.9,0,3.5,3.1,3.5,7
	s-1.6,7-3.5,7s-3.5-3.1-3.5-7S522.6,340,524.5,340z"/>
<path fill="#FFFFFF" stroke="#000000" stroke-miterlimit="10" d="M525.5,358.5c-5.6,0-10.1-7.6-10.1-17.1
	c0-9.4,4.5-17.102,10.1-17.102s10.1,7.7,10.1,17.102C535.6,350.8,531.1,358.5,525.5,358.5z M528,347c0-3.9-1.6-7-3.5-7
	s-3.5,3.1-3.5,7s1.6,7,3.5,7S528,350.9,528,347z"/>
<path fill="#FFFFFF" stroke="#000000" stroke-miterlimit="10" d="M522.8,385c-3.7,5.7-9.398,11.5-14.2,15.9
	c-11.8,10.8-22.3,16.1-22.3,16.1c-1.7-3.5-0.5-14.3,0.3-22.3c1.802-8.8,3.5-12.8,3.5-12.8c0.802-8.4,6.802-26.602,6.802-26.602
	C496.3,378,522.8,385,522.8,385z"/>
<path fill="#FFFFFF" stroke="#000000" stroke-miterlimit="10" d="M599.8,419.2c0,37.898,35,68.7,78.2,68.7s78.2-30.802,78.2-68.7
	c0-37.9-32.7-58.8-75.9-58.8C637.1,360.5,599.8,381.3,599.8,419.2z M486.5,394.8c-0.8,8-2,18.8-0.3,22.3c0,0,10.5-5.3,22.3-16.1l0,0
	c180.1-34.4,99.2-135.1,99.2-135.1l3.1-0.8C781,246.8,802.4,364.3,802.4,364.3C849.7,524.6,704.7,523,704.7,523
	c-12.602,1.3-26.9,1.5-41.3,1.1l0,0c-29.5-0.8-59.4-4.198-76.9-6.6c-9.5-1.3-15.4-2.2-15.4-2.2C470.4,500.1,479.5,391,479.5,391
	l0.6-0.7c6.4,5,3.2,2.2,3.2,2.2L486.5,394.8z"/>
<path fill="#FFFFFF" stroke="#000000" stroke-miterlimit="10" d="M525.5,358.5c5.6,0,10.1-7.6,10.1-17.1
	c0-9.4-4.5-17.102-10.1-17.102s-10.1,7.7-10.1,17.102C515.5,350.8,520,358.5,525.5,358.5z M607.8,265.8c0,0,80.9,100.8-99.2,135.102
	l0,0c4.802-4.5,10.602-10.2,14.2-15.9c0,0-26.398-7-25.898-29.601c0,0-6,18.199-6.802,26.601c0,0-1.8,4-3.5,12.8l-3.3-2.3
	c0,0,3.2,2.8-3.2-2.2C460.7,375.1,424.5,337.4,450.2,282.4C450.2,282.4,503,165.9,607.8,265.8z M475.8,361.6
	c5.602,0,10.102-7.6,10.102-17.1c0-9.4-4.5-17.1-10.102-17.1c-5.6,0-10.1,7.6-10.1,17.1C465.8,353.9,470.3,361.6,475.8,361.6z"/>
</svg>
