<?xml version="1.0" encoding="utf-8"?>
<!-- Generator: Adobe Illustrator 15.0.0, SVG Export Plug-In . SVG Version: 6.00 Build 0)  -->
<!DOCTYPE svg PUBLIC "-//W3C//DTD SVG 1.1//EN" "http://www.w3.org/Graphics/SVG/1.1/DTD/svg11.dtd">
<svg version="1.1" id="layer_x5F_www.ABC-color.com"
	 xmlns="http://www.w3.org/2000/svg" xmlns:xlink="http://www.w3.org/1999/xlink" x="0px" y="0px" width="822px" height="567px"
	 viewBox="0 0 822 567" enable-background="new 0 0 822 567" xml:space="preserve">
<path fill="none" stroke="#000000" d="M366.3,35.7c7.7,7.6,21.3,21.8,22.8,30.2"/>
<path fill="none" stroke="#000000" d="M332.3,45.8c0,0,16.101,6.2,15.4,11.7"/>
<line fill="none" stroke="#000000" x1="312.6" y1="64.5" x2="328.1" y2="69.3"/>
<path fill="none" stroke="#000000" d="M330.9,482.9c0,0,12.6-1.7,24.6,2.398"/>
<path fill="none" stroke="#000000" d="M403.9,530.5c0,0-0.7-12.8,29.5-10"/>
<path fill="none" stroke="#000000" d="M385.6,518.8c0,0,12.601-6.6,26-5.2"/>
<path fill="none" stroke="#000000" d="M326,497.4c0,0,3.5-6.602,25.3-3.802"/>
<path fill="#FFFFFF" stroke="#000000" stroke-miterlimit="10" d="M325.3,469.8c9.3,5.602-2.2,8.7-3.399,9c-1-0.5-1.4-0.6-0.101,0
	l-14,0.7L325.3,469.8z"/>
<path fill="#FFFFFF" stroke="#000000" stroke-miterlimit="10" d="M313.9,486.8c2.5,1.5-1.2,7.8-1.2,7.8l-10.5,3.5
	C302.1,498.1,306.5,491.4,313.9,486.8z"/>
<path fill="#FFFFFF" stroke="#000000" stroke-miterlimit="10" d="M326,497.4c5.6-0.4-1.4,9-1.4,9l-5.6,8.3
	C318.9,514.7,317.5,498.1,326,497.4z"/>
<path fill="#FFFFFF" stroke="#000000" stroke-miterlimit="10" d="M373,518.8c0,0,8.4-13.8,11.2-10.398c0,0,2.1,3.8-1.4,5.5
	L373,518.8z"/>
<path fill="#FFFFFF" stroke="#000000" stroke-miterlimit="10" d="M382.8,522.6c7,2.802,0.7,7.9,0.7,7.9l-11.2,7.6L380,525.7l2.6-3.3
	L382.8,522.6z"/>
<path fill="#FFFFFF" stroke="#000000" stroke-miterlimit="10" d="M402.5,534.3c9.8-4.8,7,5.9,7,5.9s-9.8,6.6-11.6,11.398
	c0.699-3.6,2.5-12.398,4.199-17.398L402.5,534.3z"/>
<path fill="#FFFFFF" stroke="#000000" stroke-miterlimit="10" d="M523.9,507.1l9.8,4.102c0,0-11.2,0.7-13.3,0.7
	C515.5,507.4,523.9,507.1,523.9,507.1z"/>
<path fill="#FFFFFF" stroke="#000000" stroke-miterlimit="10" d="M454.4,487.7c0,0,9.1,4.8,7,4.8c-1.7,0-10.7-2.6-12.802,0.7
	l-0.6-0.4c0,0-7-6.898,4.2-7.3C454.4,487.7,454.4,487.7,454.4,487.7z"/>
<path fill="#FFFFFF" stroke="#000000" stroke-miterlimit="10" d="M403.9,530.6c-0.601,0.2-14.801,6.102-20.301,0
	c0,0,6.301-5.198-0.699-7.898l-0.2-0.102l3-3.698l-2.8-4.802c3.5-1.698,1.399-5.5,1.399-5.5s8.4-12.398,59.7-3.5
	c0,0,28.1-3.5,28.8-16.6l2-22.7c6,2.4,11.4,2.9,16.2,2.102c-0.1,1.3-2,18.6,0.7,18.6c2.8,0,7,3.4,7,3.4s-11.9,3.5-13.3,10.398
	c0,0-5,9.2,15.5,4.102c2.8-0.7,21.1-2.102,23.198,2.8c0,0-8.398,0.3-3.5,4.8c0,0,16.9,9.7-36.5,6.2c0,0-38.6,0-62.5,22.8
	c0,0-8.398,2.8-11.898-0.7c0,0,2.8-10.7-7-5.898l-0.4-0.102C402.7,532.4,403.3,531,403.9,530.6z"/>
<path fill="#FFFFFF" stroke="#000000" stroke-miterlimit="10" d="M330.8,482.9c-0.5-0.2-6.6-3.102-9-4.2c1.2-0.3,12.8-3.4,3.4-9
	c0,0,8.399-1.4,21.8,3.5c0,0,35.1,11,45.6,5.5c0,0,10.801-2,15.2-21.7c4.2,3.3,8.3,5.2,12.3,6l-0.1,0.5c0,0-4.9,11,0.7,11
	c0,0-9.102,6.2-4.9,8.3c0,0,12.602,5.5,29.5,0c0,0,4.9,0.7,7,2.8c-11.2,0.302-4.2,7.302-4.2,7.302l0.602,0.398
	c-0.602,0.9-0.602,2.2,0.1,4.102c0,0-6.3,7.6-28.1-5.5c0,0-49.101,0.698-51.2,5.5c0,0-29.5,15.198-37.9,10.3c0,0-4.899,0-7-1.4
	c0,0,7-9.3,1.4-9l-13.3-2.8c0,0,3.7-6.3,1.2-7.8C318.5,483.9,324.3,481.8,330.8,482.9z"/>
<path fill="#FFFFFF" stroke="#000000" stroke-miterlimit="10" d="M439,435.3c4.5,5.5,8.8,10.3,12.9,14.3l-0.2,0.2
	c0,0-14.102,16.8-31.5,13.3c-4-0.8-8.102-2.6-12.3-6c-7-5.6-14.2-15.398-20.801-31.5l0.301-1.1c16,5.6,27.1,8.7,27.1,8.7
	c8.3,1.398,16.6,1.898,24.6,1.8L439,435.3z"/>
<path fill="#FFFFFF" stroke="#000000" stroke-miterlimit="10" d="M490.9,467.8c-4.802,0.8-10.2,0.3-16.2-2.1
	c-6.8-2.7-14.4-7.9-22.9-16.2c-4.1-4-8.398-8.7-12.898-14.3v-0.3C485.9,434.1,523.8,410.3,523.8,410.3c1.8-0.7,3.7-1.6,5.602-2.7
	C529,410.3,519.4,462.9,490.9,467.8z"/>
<path fill="#FFFFFF" stroke="#000000" stroke-miterlimit="10" d="M565.9,303.8c8.5-2.899,137.698-46.7,150.1-28.2
	c-100.7,19.7-85.7,24.2-135.3,46l-0.4,0.5c-5.7-4.5-10.3-8.5-10.3-8.5C564.7,312.6,564.3,308.5,565.9,303.8z"/>
<path fill="#FFFFFF" stroke="#000000" stroke-miterlimit="10" d="M676.2,240.9c84.5-9.2-46.9,15.4-105.3,53.5l0,0
	c2.8-4.301,5.6-7.602,5.6-7.602S627.3,246.2,676.2,240.9z"/>
<path fill="#FFFFFF" stroke="#000000" stroke-miterlimit="10" d="M584.3,262c0,0,95.7-87,149.102-63.6c0,0-78.7,9.3-149.7,76
	c1.6-4.8,1.398-8.9,0-12.2L584.3,262z"/>
<path fill="#FFFFFF" stroke="#000000" stroke-miterlimit="10" d="M560.4,246.8c0,0,42.898-117.8,132.3-106.4
	c0,0-80,51.6-119.102,111.9c-4.3-2.3-9.198-3.8-13.3-4.7L560.4,246.8z"/>
<path fill="#FFFFFF" stroke="#000000" stroke-miterlimit="10" d="M647.5,266.8c1.5-0.4,102.6-25.3,116.5,30.9c0,0-25.3-5-56.2-7.8
	c0,0-30.898,1.398-42.8,10.398c0,0-51.9,28.7-66.7,33.5c-4.1-1.1-11.7-6.6-18-11.6l0.4-0.5c49.6-21.801,34.7-26.301,135.3-46
	c-12.3-18.5-141.6,25.3-150.1,28.199c1.1-3.101,3-6.5,5-9.5l0,0C629.3,256.3,760.6,231.7,676.2,240.9c-48.9,5.3-99.7,45.9-99.7,45.9
	c3.6-4.7,5.8-8.8,7-12.4c71.1-66.7,149.7-76,149.7-76C680,175,584.3,262,584.3,262l-0.7,0.2c-1.8-4.4-5.698-7.6-10.1-10
	c39.1-60.3,119.1-111.9,119.1-111.9C603.3,129,560.4,246.8,560.4,246.8l-0.2,0.8c-5.102-1.1-9-1.5-9-1.5S578.7,33,791.3,143
	c0,0-129.8,26.4-182.5,81c1.602-1.1,146.8-103.8,199.2-12.3c0,0-80.7-13.3-171.1,31c0,0,143.8-53,150.398,21.7
	C787.3,264.3,691.7,238.1,647.5,266.8z"/>
<path fill="#FFFFFF" stroke="#000000" stroke-miterlimit="10" d="M526,291.3c0,4.8-54,6.601-69.5,11.4c0,0-24.7,0-25.5,3.2
	l0.3-1.801c2-7.5-0.1-11.601,4.9-17.301C436.2,286.8,526,286.5,526,291.3z"/>
<path fill="#FFFFFF" stroke="#000000" stroke-miterlimit="10" d="M454.4,313.7c0,0,67.398,0.3,66.698,5.899
	c-0.698,5.5-95.5-1-95.5,2.399c0.4-5.399-0.698-0.8,0.7-6.2l2.8-4.1C428.7,313.4,451.7,312.3,454.4,313.7z"/>
<path fill="#FFFFFF" stroke="#000000" stroke-miterlimit="10" d="M459.3,334.5c2.8,0,61.8,5.9,60.4,11.4
	c-1.4,5.5-61.5,1.1-63.9,0.398c-13.3-4.1-38.6-10.398-38.6-10.398c-0.602-6.102,6.3-2.102,7-11C424.2,328.2,456.5,334.5,459.3,334.5
	z"/>
<path fill="#FFFFFF" stroke="#000000" stroke-miterlimit="10" d="M404.6,340c0,0,125.601,32.8,111.601,32.1
	c0,0-66-2.398-96.2-16.199c0,0-14.8-7.899-15.4-13.801V340z"/>
<path fill="#FFFFFF" stroke="#000000" stroke-miterlimit="10" d="M476.8,308c-3.3,0.2-6.3,0.5-9.1,0.9
	C467.8,308.9,471.2,308.6,476.8,308z M478.3,352.6c33,4.102,82.5,19.9,74.4,23.602c-11.9,5.5-19.9,17-116.5-6.5
	c-27.2-1-45.2-10.9-57.101-23.301l0.2-0.199c0,0,19-2.102,14.7-11.7c0,0,23.2-4.101,14.7-15.899c0,0,18.3-6.899,11.2-21.399
	c0,0,18.3-13.101,4.898-32.5l0.5-1c13.102,6,22.7,12.7,22.7,12.7c64.6,2.8,97.1-2.6,106.7,19c1.899,4.3-55.2,10.398-77.9,12.6
	c30.801-1.699,82.801,5.301,82.801,5.301c2.801,11.799-37.699,15.699-65.899,17c-8.4-0.301-17.2-0.201-26.101,0.6
	c0,0,11.399,0,26.101-0.6C562.5,332.9,607.4,367.2,478.3,352.6z M521.1,319.6c0.7-5.5-66.698-5.898-66.698-5.898
	c-2.7-1.5-25.7-0.4-25.302-2.102l-2.8,4.102c-1.398,5.398-0.3,0.8-0.7,6.199C425.6,318.6,520.4,325.1,521.1,319.6z M519.7,345.8
	c1.398-5.5-57.602-11.399-60.4-11.399s-35.1-6.199-35.1-9.699c-0.7,8.898-7.602,4.898-7,11c0,0,25.3,6.199,38.6,10.398
	C458.2,346.9,518.3,351.4,519.7,345.8z M516.2,372.1C530.2,372.8,404.6,340,404.6,340v2.1C405.2,348,420,355.9,420,355.9
	C450.2,369.7,516.2,372.1,516.2,372.1z M456.5,302.7c15.4-4.8,69.5-6.601,69.5-11.4c0-4.799-89.8-4.5-89.8-4.5
	c-5,5.601-2.9,9.7-4.9,17.3L431,305.9C431.8,302.7,456.5,302.7,456.5,302.7z"/>
<path fill="#FFFFFF" stroke="#000000" stroke-miterlimit="10" d="M368.1,329.3c22.2,4.8,14.301-13.6,14.101-14.1
	c14.7,9,16.1-14.5,16.1-14.5c20.4,4.8,8.4-21.4,8.4-21.4c13.2-7.4,4.3-18.4,0.6-22.2c6.3,1.7,12.5,4.1,18.102,6.7l-0.5,1
	c13.3,19.3-4.9,32.5-4.9,32.5c7,14.5-11.2,21.4-11.2,21.4c8.4,11.7-14.7,15.899-14.7,15.899c4.2,9.699-14.699,11.699-14.699,11.699
	l-0.2,0.2c-5-5.2-8.9-10.899-12-16.601L368.1,329.3z"/>
<path fill="#FFFFFF" stroke="#000000" stroke-miterlimit="10" d="M382.1,315.1c0.2,0.5,8.101,18.9-14.1,14.102l-1,0.5
	c-5.7-10.602-8.5-21-9.8-28.2c19.2,11.8,18.5-9.899,21.3-8.601c22.9,11.301,7.7-18.601,7.7-18.601c12.3-12.1-0.7-17.9-4.101-19.1
	c7.801-1.6,16.601-0.6,25.101,1.7c3.7,3.8,12.6,14.8-0.601,22.2c0,0,11.9,26.2-8.399,21.4C398.3,300.6,396.9,324.1,382.1,315.1z"/>
<path fill="#FFFFFF" stroke="#000000" stroke-miterlimit="10" d="M386.3,274.4c0,0,15.2,29.9-7.7,18.6c-2.8-1.4-2.1,20.4-21.3,8.6
	c-1-5.699-1.2-9.3-1.2-9.3c2.5-24.1,13-34.3,26-37C385.6,256.5,398.6,262.3,386.3,274.4z"/>
<path fill="#FFFFFF" stroke="#000000" stroke-miterlimit="10" d="M382.2,255.3c-13.101,2.7-23.5,12.9-26,37c0,0,0.1,3.601,1.2,9.3
	c1.3,7.2,4.1,17.602,9.8,28.2c3.1,5.7,7,11.3,12,16.601c11.899,12.399,29.8,22.301,57.1,23.301c96.7,23.5,104.602,12.1,116.5,6.5
	c8.102-3.801-41.3-19.5-74.398-23.602C607.5,367.2,562.6,333,493.9,330.4c28.198-1.301,68.6-5.2,65.898-17c0,0-52-7-82.8-5.301
	c22.7-2.199,79.8-8.301,77.9-12.601c-9.602-21.6-42.102-16.2-106.7-19c0,0-9.601-6.7-22.7-12.7c-5.6-2.6-11.7-5-18.1-6.7
	C398.8,254.7,390,253.7,382.2,255.3z M267.1,341.6c-0.3-1.199-0.7-2.699-1.1-4.6c-0.7-3-1.5-6.8-2.4-11.1
	c-0.3-1.5-0.6-3.102-0.9-4.801c-0.4-2.301-0.9-4.699-1.3-7.101c-0.6-3.601-1.2-7.399-1.7-11.2l0.3-1.199l3.5-12
	c2.1,9,9.8,56.301,14.7,56.301c4.9,0,8.4-47.301,9.8-38.301s20.4,50.101,25.3,45.899c4.9-4.101-4.2-69.399-2.8-69.399
	c12,0,15.4,54.899,20.4,40.399c4.899-14.5,1.399-63.2,2.1-57.7s19.7,34.9,15.4,25.2c-4.2-9.7,11.899-57.7,11.899-57.7h0.2
	c0.5,3,1.3,5,2.6,4.9c13.301-1.7,12.9-29.3,16.2-29.4c5.2-0.2,23.2,25.5,28.8,23.9c4.4-1.2-3.699-29.4,0.7-31.8
	c0,0,44.9,51.1,142.5,44.2c0,0,3.8,0.3,9,1.5c4.102,0.9,9,2.4,13.3,4.7c4.4,2.4,8.302,5.6,10.102,10c1.398,3.3,1.6,7.4,0,12.2
	c-1.2,3.7-3.5,7.8-7,12.399c0,0-2.8,3.301-5.602,7.601c-1.898,2.899-3.898,6.3-5,9.5c-1.6,4.7-1.198,8.8,4.102,9.8
	c0,0,4.6,4,10.3,8.5c6.3,5,14,10.5,18,11.602c0,0-36.9,56.6-68.8,74c-1.9,1-3.8,1.898-5.602,2.698c0,0-38,23.7-84.898,24.602
	c-8,0.2-16.2-0.4-24.602-1.8c0,0-11-3.102-27.1-8.7c-39.4-13.8-109.2-43.101-119.6-80.4C267.7,344.1,267.5,343.2,267.1,341.6z"/>
<path fill="#FFFFFF" stroke="#000000" stroke-miterlimit="10" d="M269.4,236.2c-0.7,1.6-1.3,3.2-1.9,4.7c-6,0.5-159,12.6-7.5,22.8
	c-0.6,1.6-1,3.4-1.3,5.4c-14.6,5.7-76.6-2.3-76.6-2.3c-7.3,0.3-14-1-20.1-3.4c-25.4-9.6-39.5-36.3-39.5-36.3
	c33,18.6,77.2,11.4,77.2,11.4C236.7,233.8,262.6,235.6,269.4,236.2z"/>
<path fill="#FFFFFF" stroke="#000000" stroke-miterlimit="10" d="M258.5,292c0.1,1.7,0.3,3.5,0.5,5.3c-10.2,1.5-74.1-2.8-74.1-2.8
	h-0.1c-0.3,0-1.2-0.2-2.5-0.3c0,0,0,0-0.1,0c-17-3.7-67.5-35.9-67.5-35.9c14,2.8,47,5.9,47,5.9l0.2-0.6c6.1,2.3,12.8,3.6,20.1,3.4
	c0,0,62,8.1,76.6,2.3c-0.4,2.7-0.7,5.8-0.7,9.1h-0.1C257.9,278.2,99.3,283.7,258.5,292z"/>
<path fill="#FFFFFF" stroke="#000000" stroke-miterlimit="10" d="M262.7,321.1l-1.3,0.301c-28.3,3.199-51.7,0-70.1-5.601
	c-33.1-9.899-50-27.2-50-27.2c3,0.602,31.8,4.301,40.8,5.5c0,0,0,0,0.1,0c1,0.2,1.8,0.301,2.5,0.301h0.1c0,0,63.9,4.301,74.1,2.801
	c0.2,1.398,0.3,2.898,0.5,4.3c-12,0.7-127.4,7.3,1.2,12.5l0.7-0.101C261.8,316.4,262.2,318.8,262.7,321.1z"/>
<path fill="#FFFFFF" stroke="#000000" stroke-miterlimit="10" d="M266,337c0.4,1.9,0.8,3.4,1.1,4.6
	C225.3,357.9,191.2,316.2,191.2,316.2l0.1-0.4c18.4,5.5,41.8,8.8,70.1,5.601l1.3-0.301c0.3,1.7,0.6,3.301,0.9,4.801
	C256.7,326.4,192.8,331.8,266,337z"/>
<path fill="#FFFFFF" stroke="#000000" stroke-miterlimit="10" d="M263.6,325.9c0.9,4.3,1.7,8.1,2.4,11.1
	C192.8,331.8,256.7,326.4,263.6,325.9z"/>
<path fill="#FFFFFF" stroke="#000000" stroke-miterlimit="10" d="M259.7,302.7c0.5,3.8,1.1,7.6,1.7,11.2l-0.7,0.1
	c-128.6-5.2-13.2-11.9-1.2-12.5C259.6,302,259.6,302.3,259.7,302.7z"/>
<path fill="#FFFFFF" stroke="#000000" stroke-miterlimit="10" d="M257.9,278.2L257.9,278.2c0,4.3,0.2,9,0.6,13.8
	C99.3,283.7,257.9,278.2,257.9,278.2z"/>
<path fill="#FFFFFF" stroke="#000000" stroke-miterlimit="10" d="M266.2,244.5c-3.2,9-4.8,16-4.8,16c-0.5,0.9-1,2-1.4,3.1
	c-151.4-10.2,1.5-22.3,7.5-22.8C267,242.1,266.6,243.4,266.2,244.5z"/>
<path fill="#FFFFFF" stroke="#000000" stroke-miterlimit="10" d="M258.5,292c-0.4-4.8-0.6-9.5-0.5-13.8c0-3.3,0.3-6.3,0.7-9.1
	c0.3-2,0.8-3.8,1.3-5.4c0.4-1.2,0.9-2.2,1.4-3.1c0,0,1.6-7,4.8-16c2.8,0.7,3.4-0.6,3.6-1.2c-3.3,21.6,9.9,10,9.9,10
	c0,9,4.2,19.3,4.2,19.3c5.6,4.8,11.2-18.6,11.2-18.6c0,4.1,5.6,10.4,5.6,10.4c3.5,4.1,11.899-26.2,11.899-26.2s5.601,13.8,7.7,6.2
	c1.8-6.6,9.3-20.6,11.2-24c-0.2,7-0.5,14.5,2.1,16.1c0,0,15.801-30.4,23.101-28.7c2.8,0.6,2.2,17.9,3.7,26.6h-0.2
	c0,0-16.101,48-11.9,57.7S333.5,272.5,332.9,267c-0.7-5.5,2.8,43.2-2.101,57.7c-4.899,14.5-8.3-40.4-20.399-40.4
	c-1.4,0,7.699,65.3,2.8,69.4c-4.9,4.1-23.9-36.9-25.3-45.9s-4.9,38.3-9.8,38.3s-12.6-47.3-14.7-56.3l-3.5,12c-0.1,0-0.3,0-0.5,0
	c-0.2-1.399-0.4-2.899-0.5-4.3C258.8,295.5,258.6,293.7,258.5,292z"/>
<path fill="#FFFFFF" stroke="#000000" stroke-miterlimit="10" d="M288.2,209.4c1.1-0.8,2.2-1.4,3.4-2c0,0,0.7,26.2,9.8,22.1
	c0,0,17-22,28.1-22.1c2.5,0,2.3,6.2,2.1,12.9c-1.899,3.5-9.399,17.4-11.199,24c-2.101,7.6-7.7-6.2-7.7-6.2s-8.4,30.4-11.9,26.2
	c0,0-5.6-6.2-5.6-10.4c0,0-5.6,23.5-11.2,18.6c0,0-4.2-10.4-4.2-19.3c0,0-13.2,11.6-9.9-10c0-0.2,0-0.4,0-0.4c0,0.1,0,0.2,0,0.4
	c-0.2,0.6-0.8,1.9-3.6,1.2c0.4-1.2,0.9-2.4,1.3-3.6c0.6-1.5,1.2-3.1,1.9-4.7C273.8,225.9,280.1,215,288.2,209.4z"/>
<path fill="#FFFFFF" stroke="#000000" stroke-miterlimit="10" d="M305.6,152.2c0,0,6-0.8,11.9-4.3l0.8,0.2c0,0,25.3,49.7-16.1,58.7
	c0,0-5,0.9-10.4-0.1c-6.9-1.3-14.4-5.7-12.8-19.3c0,0,34.4-27.6,23.2-35.9v-0.1C303.4,151.8,304.6,152.1,305.6,152.2z"/>
<path fill="#FFFFFF" stroke="#000000" stroke-miterlimit="10" d="M302.1,151.5c11.2,8.3-23.2,35.9-23.2,35.9
	c-1.6,13.6,5.9,18,12.8,19.3l-0.1,0.8c-1.1,0.6-2.3,1.2-3.4,2c-40.7-8.4-23.3-31.6-23.3-31.6c38.6-21.4,24.6-31.8,24.6-31.8l0.4-0.7
	C294.3,148,298.7,150.3,302.1,151.5L302.1,151.5z"/>
<path fill="#FFFFFF" stroke="#000000" stroke-miterlimit="10" d="M314.4,126.6c0,0-7.2,6.2-9.8,6.9c0,0-18.9,3.5-33.2-0.7l0,0
	l-0.6-0.7l7.6-6.5c9.7,3.2,18,5.3,20.3,3.8C298.8,129.4,309.2,129.4,314.4,126.6z"/>
<path fill="#FFFFFF" stroke="#000000" stroke-miterlimit="10" d="M295.8,109.7c-1.9,0-3.5-0.5-3.5-1c0-0.6,1.6-1,3.5-1
	c1.9,0,3.5,0.5,3.5,1S297.7,109.7,295.8,109.7z"/>
<path fill="#FFFFFF" stroke="#000000" stroke-miterlimit="10" d="M278.5,125.6c-17.2-5.7-38.9-15.2-38.9-15.2
	c1.2-4.4,53.5-7.3,63.9-7.9c1.1-0.1,1.8-0.1,1.8-0.1c3.3,6.2,21.5,17.9,21.5,17.9c4.7,15.2-2.2,23.2-9.3,27.5
	c-5.8,3.5-11.9,4.3-11.9,4.3c-1-0.1-2.2-0.4-3.5-0.8c-3.5-1.2-7.9-3.5-12.2-6.1c-9.1-5.4-18-12-18.5-12.4
	c14.3,4.1,33.2,0.7,33.2,0.7c2.6-0.7,9.8-6.9,9.8-6.9c-5.2,2.8-15.601,2.8-15.601,2.8C296.4,130.9,288.1,128.8,278.5,125.6z
	 M299.3,108.7c0-0.6-1.6-1-3.5-1c-1.9,0-3.5,0.5-3.5,1c0,0.6,1.6,1,3.5,1C297.7,109.7,299.3,109.2,299.3,108.7z"/>
<path id="ABC-color.com" fill="#FFFFFF" stroke="#000000" stroke-miterlimit="10" d="M365.2,34.5c-0.2-8,1.1-41.4,37.3-7.4
	c0,0,23.9,29.7,9.1,69c0,0-44.199-49.7-99.699-10.4c0,0-17.5-6.2-7.7-17.3l8.399-4.1c0,0-31.6-3.1-26.7-13.5c0,0,16.5-14.5,46.3-5.2
	C330.6,45,299.7,32.5,314,21.1c0,0,28.1-7.3,47,9.3C361,30.6,362.7,32.1,365.2,34.5z"/>
<path fill="#FFFFFF" stroke="#000000" stroke-miterlimit="10" d="M351.2,85.9c15.899,0,24.3,15.4,24.6,15.9
	C357.6,90.1,348.4,91.4,348.4,91.4C344.2,89.3,351.2,85.9,351.2,85.9z"/>
<path fill="#FFFFFF" stroke="#000000" stroke-miterlimit="10" d="M349.5,103.1c9.9,0,17.9,7.4,17.9,16.6c0,9.2-8,16.6-17.9,16.6
	s-17.9-7.4-17.9-16.6C331.6,110.5,339.6,103.1,349.5,103.1z M352.6,119c0-6.1-3.5-11-7.699-11c-4.301,0-7.7,4.9-7.7,11
	s3.5,11,7.7,11C349.2,130.1,352.6,125.1,352.6,119z"/>
<path fill="#FFFFFF" stroke="#000000" stroke-miterlimit="10" d="M342.5,113.1c1.4,0,2.5,2.5,2.5,5.5c0,3.1-1.1,5.5-2.5,5.5
	s-2.5-2.5-2.5-5.5S341.1,113.1,342.5,113.1z"/>
<path fill="#FFFFFF" stroke="#000000" stroke-miterlimit="10" d="M337.2,119c0-6.1,3.5-11,7.7-11c4.3,0,7.699,4.9,7.699,11
	s-3.5,11-7.699,11C340.6,130.1,337.2,125.1,337.2,119z M342.5,113.1c-1.4,0-2.5,2.5-2.5,5.5c0,3.1,1.1,5.5,2.5,5.5s2.5-2.5,2.5-5.5
	C344.9,115.6,343.8,113.1,342.5,113.1z"/>
<path id="www.ABC-color.com" fill="#FFFFFF" stroke="#000000" stroke-miterlimit="10" d="M375.8,101.8c-0.3-0.5-8.7-15.9-24.6-15.9
	c0,0-7,3.5-2.8,5.5C348.4,91.4,357.5,90,375.8,101.8z M305.3,102.5c0,0-0.6,0-1.8,0.1v-0.1c-2.1-2.8,8.4-16.6,8.4-16.6
	C367.4,46.5,411.6,96.3,411.6,96.3s35.102,31.8-2.8,105.6c-4.399,2.3,3.7,30.5-0.7,31.8c-5.6,1.6-23.6-24.1-28.8-23.9
	c-3.2,0.2-2.8,27.7-16.2,29.4c-1.3,0.2-2.1-1.8-2.6-4.9c-1.5-8.7-0.9-26-3.7-26.6c-7.3-1.7-23.1,28.7-23.1,28.7
	c-2.601-1.6-2.3-9.1-2.101-16.1c0.2-6.7,0.4-12.9-2.1-12.9c-11,0.1-28.1,22.1-28.1,22.1c-9.1,4.1-9.8-22.1-9.8-22.1l0.1-0.8
	c5.4,1,10.4,0.1,10.4,0.1c41.4-9,16.1-58.7,16.1-58.7l-0.8-0.2c7.1-4.2,14-12.3,9.3-27.5C326.8,120.4,308.5,108.7,305.3,102.5z
	 M367.4,119.7c0-9.1-8-16.6-17.9-16.6s-17.9,7.4-17.9,16.6c0,9.2,8,16.6,17.9,16.6S367.4,128.9,367.4,119.7z"/>
<path fill="none" stroke="#000000" d="M366.3,35.7c7.7,7.6,21.3,21.8,22.8,30.2"/>
<path fill="none" stroke="#000000" d="M332.3,45.8c0,0,16.101,6.2,15.4,11.7"/>
<line fill="none" stroke="#000000" x1="312.6" y1="64.5" x2="328.1" y2="69.3"/>
<path fill="none" stroke="#000000" d="M330.9,482.9c0,0,12.6-1.7,24.6,2.398"/>
<path fill="none" stroke="#000000" d="M403.9,530.5c0,0-0.7-12.8,29.5-10"/>
<path fill="none" stroke="#000000" d="M385.6,518.8c0,0,12.601-6.6,26-5.2"/>
<path fill="none" stroke="#000000" d="M326,497.4c0,0,3.5-6.602,25.3-3.802"/>
</svg>
