<?xml version="1.0" encoding="utf-8"?>
<!-- Generator: Adobe Illustrator 15.0.0, SVG Export Plug-In . SVG Version: 6.00 Build 0)  -->
<!DOCTYPE svg PUBLIC "-//W3C//DTD SVG 1.1//EN" "http://www.w3.org/Graphics/SVG/1.1/DTD/svg11.dtd">
<svg version="1.1" id="layer_x5F_www.ABC-color.com"
	 xmlns="http://www.w3.org/2000/svg" xmlns:xlink="http://www.w3.org/1999/xlink" x="0px" y="0px" width="822px" height="567px"
	 viewBox="0 0 822 567" enable-background="new 0 0 822 567" xml:space="preserve">
<path fill="#FFFFFF" stroke="#000000" stroke-miterlimit="10" d="M632.1,462.6c5.7,4.5,10.802,4.102,15.302,1
	C644.9,481,649.8,515.2,649.8,515.2c28.3,64,0,39.8,0,39.8c-12.6-27.3-28.3-11.5-28.3-11.5c-23.1,24.1-41.9,4.2-41.9,4.2
	c13.602,4.2,37.7-23.102,37.7-23.102C637.2,511,632,462.7,632,462.7L632.1,462.6z"/>
<path fill="#FFFFFF" stroke="#000000" stroke-miterlimit="10" d="M635.1,207c0,0,59.802,105.9,24.102,137.3
	c0,0-59.8,60.8-93.3-101.7C565.9,242.7,624.6,240.6,635.1,207z"/>
<path fill="#FFFFFF" stroke="#000000" stroke-miterlimit="10" d="M625.1,82.3c6.7,0,12.102-5.4,12.102-12
	c0-6.7-5.4-12.1-12.102-12.1c-6.6,0-12,5.4-12,12.1C613,76.9,618.5,82.3,625.1,82.3z M565.9,242.7c33.5,162.5,93.3,101.7,93.3,101.7
	c35.6-31.5-24.102-137.3-24.102-137.3C624.6,240.6,565.9,242.7,565.9,242.7z M726.3,277.3c0,0,83.9,122.7-32.5,143.602l-26.2,1.1
	c0,0-7.1,32.6-20.198,41.7c-4.4,3.1-9.5,3.5-15.302-1c-6.3-4.9-13.398-15.8-21.1-35.4c0,0-23.1-2.1-41.9-54.5
	c0,0-135.198-79.699-28.3-208.6c0,0,35.602-57.7,30.4-105.9c2.1-4.2,36.7-14.7,36.7-14.7s92.3-4.2,48.198,100.6
	C656,144.1,640.3,178.7,726.3,277.3z"/>
<ellipse transform="matrix(-0.6344 0.773 -0.773 -0.6344 1073.9919 -369.9515)" fill="#FFFFFF" stroke="#000000" stroke-miterlimit="10" cx="624.479" cy="68.993" rx="7" ry="5.5"/>
<path id="layer_x5F_www.ABC-color.com_1_" fill="#FFFFFF" stroke="#000000" stroke-miterlimit="10" d="M625.1,82.3
	c-6.6,0-12-5.4-12-12c0-6.7,5.4-12.1,12-12.1c6.7,0,12.102,5.4,12.102,12.1C637.2,76.9,631.8,82.3,625.1,82.3z M628.8,72.5
	c2.5-3,2.5-7,0.2-8.9c-2.4-1.9-6.2-1.1-8.7,1.9s-2.5,7-0.2,8.9C622.4,76.3,626.3,75.5,628.8,72.5z"/>
<path fill="#FFFFFF" stroke="#000000" stroke-miterlimit="10" d="M565.9,14.1c0,0,30.398,30.4,41.898,29.4c0,0-34.6,10.5-36.7,14.7
	L573.2,54L565.9,14.1z"/>
<path fill="#FFFFFF" stroke="#000000" stroke-miterlimit="10" d="M121.3,334.2c14.4,2.7,52.6-1.101,74.1-106.5l2.1-2.7
	c2.4,2.4,5,4.6,7.8,6.5l1.2-0.1l2.8,31.5l19.5-22.9l1.8,1.5c22.2,3.3,45.3-6.2,61.7-24.5l0.5,0.5c-12,105.7,39.9,116,39.9,116
	c14.2-0.6,25.8-2.2,35.2-4.7v0.101c-20.4,68.601-74.2,75.101-74.2,75.101c-9.3,17.6-16.5,23.6-22.1,23.6c-1.3,0-2.5-0.3-3.6-0.898
	c-9-4.602-12.4-25.5-12.4-25.5c-26,28.8-49.2-4.602-49.2-4.602c-12.3,18.9-21.6,27.302-28.6,29.4c-2.1,0.6-4,0.7-5.7,0.4
	c-13.4-2.9-14.9-33.501-14.9-33.501C124.7,366,121,337.3,121,337.3L121.3,334.2z"/>
<path fill="#FFFFFF" stroke="#000000" stroke-miterlimit="10" d="M315.9,172c0,0,152.899,129.6,51.899,156.7
	c-9.399,2.5-21.1,4.2-35.2,4.7c0,0-51.899-10.2-39.899-116l-0.5-0.5c6.6-7.4,12.2-16.2,16.2-26.2c2.5-6.3,4.199-12.7,5.199-19.1
	L315.9,172z"/>
<path fill="#FFFFFF" stroke="#000000" stroke-miterlimit="10" d="M278.8,463.3c0,0,19.8,3.7,27.3,18.5
	c-0.7-0.3-25.1-10.1-27.8-7.398c-2.8,2.8-15.8,19.5-16.7,26c0,0-1.8-4.7,4.6-25.102c0,0-18.5,7.4-21.3,11.102
	c0,0-4.6-7.4,18.6-21.302l3.7-37.1l0.9-1.4c1.1,0.602,2.3,0.9,3.6,0.9l3.9,0.5L278.8,463.3z"/>
<path fill="#FFFFFF" stroke="#000000" stroke-miterlimit="10" d="M259.5,204c3,0,5.5,3.1,5.5,7s-2.5,7-5.5,7s-5.5-3.1-5.5-7
	S256.5,204,259.5,204z"/>
<path fill="#FFFFFF" stroke="#000000" stroke-miterlimit="10" d="M259.3,198c5.6,0,10.2,5.8,10.2,13s-4.6,13-10.2,13
	c-5.6,0-10.2-5.8-10.2-13S253.7,198,259.3,198z M265,211c0-3.9-2.5-7-5.5-7s-5.5,3.1-5.5,7s2.5,7,5.5,7S265,214.9,265,211z"/>
<path fill="#FFFFFF" stroke="#000000" stroke-miterlimit="10" d="M230.6,237.9l-1.8,2.1l-19.5,22.9l-2.8-31.5v-0.1
	C227.8,208.2,230.6,237.9,230.6,237.9z"/>
<path fill="#FFFFFF" stroke="#000000" stroke-miterlimit="10" d="M204.5,198c3,0,5.5,3.1,5.5,7s-2.5,7-5.5,7s-5.5-3.1-5.5-7
	S201.5,198,204.5,198z"/>
<path fill="#FFFFFF" stroke="#000000" stroke-miterlimit="10" d="M259.3,224c5.6,0,10.2-5.8,10.2-13s-4.6-13-10.2-13
	c-5.6,0-10.2,5.8-10.2,13C249.1,218.1,253.7,224,259.3,224z M203.7,215.6c5.1,0,9.3-5.4,9.3-12.1s-4.2-12.1-9.3-12.1
	c-5.1,0-9.3,5.4-9.3,12.1S198.6,215.6,203.7,215.6z M205.3,231.5c-2.8-2-5.4-4.1-7.8-6.5c-14.3-14.1-21.7-35.2-20.1-57.5
	c0.6-8.7,2.6-17.6,6-26.3c15.8-39.8,56.6-60.9,91.1-47.2c29,11.5,44.4,44,39.2,77.7c-1,6.4-2.7,12.8-5.2,19.1
	c-4,10-9.5,18.9-16.2,26.2c-16.4,18.3-39.5,27.8-61.7,24.5l-1.8-1.5l1.8-2.1c0,0-2.8-29.7-24.1-6.5v0.1H205.3z"/>
<path fill="#FFFFFF" stroke="#000000" stroke-miterlimit="10" d="M210,205c0-3.9-2.5-7-5.5-7s-5.5,3.1-5.5,7s2.5,7,5.5,7
	S210,208.9,210,205z M203.7,215.6c-5.1,0-9.3-5.4-9.3-12.1s4.2-12.1,9.3-12.1c5.1,0,9.3,5.4,9.3,12.1S208.8,215.6,203.7,215.6z"/>
<path fill="#FFFFFF" stroke="#000000" stroke-miterlimit="10" d="M172.2,426.3c1.7,0.3,3.6,0.3,5.7-0.398l3.5,1.198l3.7,37.102
	c23.2,13.898,18.6,21.3,18.6,21.3c-2.8-3.7-21.4-11.1-21.4-11.1c6.5,20.398,4.6,25,4.6,25c-0.9-6.5-13.9-23.2-16.7-26
	c-2.8-2.7-27.2,7.1-27.8,7.398c7.4-14.8,30.6-17.6,30.6-17.6l-1.9-34.3L172.2,426.3z"/>
<path fill="#FFFFFF" stroke="#000000" stroke-miterlimit="10" d="M195.4,227.7c-21.5,105.399-59.7,109.2-74.1,106.5
	c-3.6-0.7-5.7-1.8-5.7-1.8C27.5,232.2,175,167.3,175,167.3l2.4,0.1c-1.5,22.3,5.9,43.4,20.1,57.5L195.4,227.7z"/>
</svg>
