<?xml version="1.0" encoding="utf-8"?>
<!-- Generator: Adobe Illustrator 15.0.0, SVG Export Plug-In . SVG Version: 6.00 Build 0)  -->
<!DOCTYPE svg PUBLIC "-//W3C//DTD SVG 1.1//EN" "http://www.w3.org/Graphics/SVG/1.1/DTD/svg11.dtd">
<svg version="1.1" id="layer_x5F_www.ABC-color.com"
	 xmlns="http://www.w3.org/2000/svg" xmlns:xlink="http://www.w3.org/1999/xlink" x="0px" y="0px" width="822px" height="567px"
	 viewBox="0 0 822 567" enable-background="new 0 0 822 567" xml:space="preserve">
<path fill="#FFFFFF" stroke="#000000" d="M363.3,94.7c-14-38,8.7-66.7,8.7-66.7c24.9-14.5,33.2,2.8,35,7.5c2.6-2.6,4.4-4.2,4.4-4.2
	c18-16,32.699,2.7,32.699,2.7c3.2,5.7-4.5,11.4-5.3,12c24-15.3,35.9,0,35.9,0c4.7,10-17.3,18-17.3,18l8,4
	c9.3,10.7-7.302,16.7-7.302,16.7C405.3,46.7,363.3,94.7,363.3,94.7z"/>
<path fill="#FFFFFF" stroke="#000000" d="M420.7,84.7c0,0,18,3,12,9.7c0,0-18-5.7-35.3,5.7C397.6,99.5,405.6,84.7,420.7,84.7z"/>
<ellipse fill="#FFFFFF" stroke="#000000" cx="479" cy="109.7" rx="5.7" ry="1.7"/>
<path fill="#FFFFFF" stroke="#000000" d="M497,129.3l-0.6,0.7l0,0c-13.602,4-31.5,0.7-31.5,0.7c-2.5-0.7-9.302-6.7-9.302-6.7
	c5,2.7,14.9,2.7,14.9,2.7c2.4,1.5,10.3-0.6,19.1-3.8L497,129.3z"/>
<path fill="#FFFFFF" stroke="#000000" d="M489.6,122.9c-8.8,3.2-16.698,5.3-19.1,3.8c0,0-9.9,0-14.9-2.7c0,0,6.802,6,9.302,6.7
	c0,0,17.898,3.3,31.5-0.7c-0.4,0.3-9,6.8-17.602,12c-4.2,2.5-8.3,4.8-11.6,5.9c-1.2,0.4-2.3,0.7-3.3,0.8c0,0-6.102-0.9-11.802-4.5
	c-6.6-4.2-12.6-11.9-8.3-26.2c0,0,17.3-11.3,20.4-17.3c0,0,0.6,0.1,1.7,0.1c9.198,0.8,52.898,5,54,9.2
	C520,110,503.6,117.8,489.6,122.9z M484.7,109.7c0-0.9-2.5-1.7-5.7-1.7s-5.7,0.8-5.7,1.7c0,0.9,2.5,1.7,5.7,1.7
	S484.7,110.6,484.7,109.7z"/>
<path fill="#FFFFFF" stroke="#000000" d="M502.7,173.3c0,0,16.5,22.5-22.2,30.6c-1-0.7-2.1-1.4-3.2-1.9l-0.1-0.7
	c6.5-1.2,13.6-5.5,12.1-18.6c0,0-32.7-26.7-22-34.7v-0.1c3.3-1.1,7.4-3.4,11.602-5.9l0.398,0.7C478.7,143.2,467,153.2,502.7,173.3z"
	/>
<path fill="#FFFFFF" stroke="#000000" d="M467.3,148c-10.7,8,22,34.7,22,34.7c1.5,13.1-5.6,17.4-12.1,18.6c-5.102,1-9.9,0.1-9.9,0.1
	c-39.3-8.7-15.3-56.7-15.3-56.7l0.2-0.5c5.7,3.6,11.8,4.5,11.8,4.5c0.9-0.1,2-0.4,3.3-0.8V148z"/>
<path fill="#FFFFFF" stroke="#000000" d="M430.3,121.7c1.9,0,3.5-2,3.7-4.5c-0.2,5.6-3.4,10.1-7.3,10.1c-4,0-7.3-4.8-7.3-10.7
	s3.3-10.7,7.3-10.7c3.898,0,7.1,4.5,7.3,10.2c-0.2-2.5-1.8-4.5-3.7-4.5c-2,0-3.7,2.2-3.7,5C426.7,119.4,428.3,121.7,430.3,121.7z"/>
<path fill="#FFFFFF" stroke="#000000" d="M422.3,101.3c9.4,0,17,7.2,17,16c0,8.8-7.6,16-17,16c-9.398,0-17-7.2-17-16
	C405.3,108.5,412.9,101.3,422.3,101.3z M434,116.7c0-0.2,0-0.3,0-0.5c-0.2-5.7-3.4-10.2-7.3-10.2c-4,0-7.3,4.8-7.3,10.7
	c0,5.9,3.3,10.7,7.3,10.7c3.898,0,7.1-4.5,7.3-10.1C434,117,434,116.8,434,116.7z"/>
<path fill="#FFFFFF" stroke="#000000" d="M458,84.7c0,0,10,13.3,8,16v0.1c-1.1-0.1-1.7-0.1-1.7-0.1c-3.1,6-20.398,17.3-20.398,17.3
	c-4.302,14.3,1.8,22,8.3,26.2l-0.2,0.5c0,0-24,48,15.3,56.7c0,0,4.8,0.9,9.9-0.1l0.1,0.7c0,0-0.7,25.3-9.3,21.3
	c0,0-16.2-21.2-26.7-21.3c-4.8,0,0.8,24.9-4,28c0,0-15-29.4-21.898-27.8c-2.7,0.6-2.102,17.3-3.602,25.7c-0.5,2.8-1.3,4.6-2.399,4.7
	c-2.801,0.2-12.301-28.3-15.4-28.4c-4.9-0.2-22,24.6-27.3,23.1c-4.101-1.2,3.5-28.4-0.7-30.7c-36-71.3-2.7-102-2.7-102
	S405.3,46.7,458,84.7z M397.3,100c17.3-11.3,35.3-5.7,35.3-5.7c6-6.7-12-9.7-12-9.7C405.6,84.7,397.6,99.5,397.3,100z M439.3,117.3
	c0-8.8-7.6-16-17-16c-9.398,0-17,7.2-17,16c0,8.8,7.602,16,17,16C431.7,133.3,439.3,126.2,439.3,117.3z"/>
<path fill="#FFFFFF" stroke="#000000" d="M509,279.5c-0.2,2.7-0.4,5.6-0.7,8.4c-0.2,2-0.5,4.1-0.7,6.1l-3.6-12.7
	c-2,8.7-10.7,45.3-15.3,45.3c-4.7,0-6.7-36.699-8-28c-1.3,8.7-18,38-22.7,34s2.7-56.7,1.3-56.7c-11.398,0-15.3,48.7-20,34.7
	s-0.7-56.7-1.3-51.3c-0.7,5.3-18.7,22.7-14.7,13.3c4-9.3-11.3-44.7-11.3-44.7h-0.2c1.602-8.4,0.9-25.1,3.602-25.7
	c7-1.6,21.898,27.8,21.898,27.8c4.8-3.1-0.8-28,4-28c10.5,0.1,26.7,21.3,26.7,21.3c8.7,4,9.3-21.3,9.3-21.3
	c1.102,0.5,2.2,1.2,3.2,1.9c7.7,5.4,13.7,16,17.9,25.9c1.5,3.6,2.8,7.2,3.898,10.3c2.5,7.6,3.8,13.2,3.8,13.2
	c1.2,2.1,2.102,4.9,2.602,8.3c0.398,2.7,0.7,5.8,0.7,9.1C509.3,273.5,509.2,276.4,509,279.5z"/>
<path fill="#FFFFFF" stroke="#000000" d="M578.7,286c0,0,18,1.3,21.3,0.7c0,0-7.5,13.7-32.2,21.5c-14.3,4.5-34.2,7.1-61.8,3.899
	l-1.2-0.199c0.4-2.102,0.8-4.301,1.2-6.5c5-0.602,39.6-4.9,42.1-8.602c2.7-4-40-1.3-40-1.3l-0.398-1.3c0.3-2,0.5-4.102,0.7-6.102
	l1,0.102C514.7,290,578.7,286,578.7,286z"/>
<path fill="#FFFFFF" stroke="#000000" d="M600.7,256.7c0,0,4,4,17.3,1.3c0,0-26.7,28-39.3,28c0,0-64,4-69.3,2l-1-0.1
	c0.3-2.801,0.5-5.7,0.698-8.4c30.4,4.9,64.302-6.2,63.602-8.8c-0.602-2.5-56.9-0.3-63.4,0c0-3.3-0.3-6.3-0.7-9.1
	c13.802,5.5,72.802-2.3,72.802-2.3c7,0.3,13.398-1.1,19.1-3.3L600.7,256.7z"/>
<path fill="#FFFFFF" stroke="#000000" d="M636,220.7c0,0-12.1,25.9-35.6,35.3c-5.7,2.3-12.102,3.6-19.102,3.3
	c0,0-58.898,7.8-72.8,2.3c-0.5-3.3-1.3-6.1-2.6-8.3c4-1.3,70-6,68-10s-71.3-3.3-71.3-3.3l-0.398,0.1c-1.102-3.2-2.4-6.7-3.9-10.3
	c6.5-0.6,31-2.4,66.3,2.2C564.7,232,604.7,238.7,636,220.7z"/>
<path fill="#FFFFFF" stroke="#000000" d="M574,243.3c2,4-64,8.7-68,10c0,0-1.2-5.6-3.8-13.2l0.398-0.1
	C502.7,240,572,239.3,574,243.3z"/>
<path fill="#FFFFFF" stroke="#000000" d="M572.7,270.7c0.7,2.6-33.2,13.7-63.602,8.8c0.2-3.1,0.302-6,0.2-8.9
	C515.8,270.4,572,268.1,572.7,270.7z"/>
<path fill="#FFFFFF" stroke="#000000" d="M508,295.3c0,0,42.7-2.7,40,1.3c-2.5,3.7-37,8-42.1,8.602c0.6-3.602,1.198-7.4,1.698-11.2
	L508,295.3z"/>
<path fill="#FFFFFF" stroke="#000000" d="M504,319.3c0,0,18,0,16,2.7c-1.8,2.4-15.2,3.7-18.1,4c0.398-2,0.898-4.3,1.398-6.8
	L504,319.3z"/>
<path fill="#FFFFFF" stroke="#000000" d="M567.8,308.1l0.2,0.5c0,0-41.4,32.2-67.4,22.9c0.302-1.4,0.802-3.3,1.302-5.6
	c2.898-0.301,16.3-1.602,18.1-4c2-2.7-16-2.7-16-2.7l-0.7-0.101c0.5-2.301,1-4.801,1.4-7.399l1.2,0.2
	C533.6,315.2,553.6,312.6,567.8,308.1z"/>
<path fill="#FFFFFF" stroke="#000000" d="M467.3,482.7l-10-3.3l-12.7,2.698c8,0.7,6.7,16.7,6.7,16.7l-5.3-8c-2,1.3-6.7,1.3-6.7,1.3
	c-8,4.7-36-10-36-10c-2-4.698-48.7-5.3-48.7-5.3C334,489.3,328,482,328,482c3.3-8.7-10-4.7-12-4.7s6.7-4.7,6.7-4.7s0,0,2-2
	s6.7-2.698,6.7-2.698c16,5.3,28,0,28,0c4-2-4.7-8-4.7-8c5.3,0,0.7-10.7,0.7-10.7l-0.101-0.5c3.8-0.8,7.7-2.5,11.7-5.8
	c4.2,19,14.4,21,14.4,21c10,5.3,43.3-5.302,43.3-5.302c12.7-4.698,20.7-3.3,20.7-3.3l16.698,9.3l-13.3-0.698c4-2-8.7,4-8.7,4
	C455.8,465.4,467,482.2,467.3,482.7z"/>
<path fill="#FFFFFF" stroke="#000000" d="M370.7,514c2,1.6,4.8,15.6,5.7,20.3c-1.801-4.6-11.101-11-11.101-11
	C362,526.7,354,524,354,524c-22.7-22-59.3-22-59.3-22c-50.7,3.3-34.7-6-34.7-6c-2,0-12.7-0.7-12.7-0.7l9.3-4c2-4.7,19.3-3.3,22-2.7
	c19.5,4.9,14.7-4,14.7-4c-1.3-6.698-12.7-10-12.7-10s4-3.3,6.7-3.3c2.6,0,0.8-16.6,0.7-17.898c4.6,0.8,9.7,0.3,15.4-2l1.9,21.898
	c0.7,12.7,27.3,16,27.3,16c48.7-8.7,56.7,3.3,56.7,3.3c2.7-3.3,10.7,10,10.7,10l-9.3-4.698L388,502.6l5.3,6.7l7.3,12L390,514
	C384.8,519.9,371.3,514.2,370.7,514z"/>
<path fill="#FFFFFF" stroke="#000000" d="M288,453.4c-27.4-4.802-36.5-56.802-36.7-58.102c1.7,1,3.5,1.9,5.3,2.7
	c0,0,36.1,22.9,80.7,23.7v0.3c-4.3,5.4-8.3,9.9-12.2,13.8c-8,8-15.3,13-21.7,15.602C297.7,453.7,292.6,454.2,288,453.4z"/>
<path fill="#FFFFFF" stroke="#000000" d="M366.9,443c-4,3.2-7.9,5-11.7,5.8c-16.5,3.4-29.9-12.8-29.9-12.8l-0.2-0.2
	c3.9-3.898,7.9-8.398,12.2-13.8v-0.3c7.601,0.1,15.4-0.4,23.3-1.7c0,0,10-2.8,24.7-8l0.7,2C380,428.7,373.4,437.8,366.9,443z"/>
<path fill="#FFFFFF" stroke="#000000" d="M416,284c0,0-0.1,3.5-1.1,9c-18.2,11.4-17.602-9.6-20.2-8.3c-21.8,10.899-7.3-18-7.3-18
	c-11.7-11.7,0.699-17.2,3.899-18.4C403.7,250.9,413.6,260.7,416,284z"/>
<path fill="#FFFFFF" stroke="#000000" d="M394.7,284.7c2.6-1.3,2,19.7,20.2,8.3c-1.302,7.1-4,17.5-9.602,27.9
	c-20.399,4-13.899-14.801-13.899-14.801c-14,8.699-15.301-14-15.301-14c-19.3,4.699-8-20.701-8-20.701c-12.6-7.1-4.1-17.8-0.6-21.4
	c8.1-2.3,16.4-3.3,23.9-1.7c-3.301,1.2-15.601,6.7-3.9,18.4C387.3,266.7,372.9,295.5,394.7,284.7z"/>
<path fill="#FFFFFF" stroke="#000000" d="M391.3,306c0,0-6.5,18.9,13.9,14.8c-2.9,5.2-6.5,10.5-11,15.3L394,336c0,0-18-2-14-11.3
	c0,0-22-4-14-15.3c0,0-17.3-6.7-10.7-20.7c0,0-17.3-12.7-4.7-31.3l-0.399-0.9c5.3-2.5,11.2-4.8,17.2-6.5c-3.5,3.6-12,14.3,0.6,21.4
	c0,0-11.3,25.3,8,20.7C376,292,377.3,314.7,391.3,306z"/>
<path id="ABC-color.com" fill="#FFFFFF" stroke="#000000" d="M351.3,315.3c0,3.3-30.7,9.3-33.3,9.3s-38,2.7-36.7,8
	c1.3,5.301,37.7,4,40,3.301c12.7-4,36.7-10,36.7-10C358.6,320.1,352,324,351.3,315.3z M350,312.6c-0.4-5.1,0.7-0.8-0.7-5.898l-2.7-4
	c0.4,1.699-21.399,0.6-24,2c0,0-33.3,0-32.7,5.3C290.7,315.3,349.1,309.4,350,312.6z M287.7,343.2c7.8-0.601,13.6-1.2,13.6-1.2
	C296.6,341.8,292.1,342.3,287.7,343.2z M309.9,321.3c-3.7-0.399-7.101-0.6-10.4-0.7c-13.5-1.1-34.9-3.6-33.5-8.699
	c0,0,15.6-14.399,40-12.5c2.5,0.301,4,0.5,4,0.5c-1.4-0.199-2.7-0.399-4-0.5c-11-1.301-41-5.199-42.6-9.5c0,0,4-18.699,65.3-21.299
	c0,0,9.2-6.5,21.6-12.3l0.4,0.9c-12.7,18.7,4.7,31.3,4.7,31.3c-6.7,14,10.699,20.7,10.699,20.7c-8,11.3,14,15.3,14,15.3
	c-4,9.3,14,11.3,14,11.3l0.2,0.2c-11.3,12-28.3,21.601-54.2,22.5c0,0-76.8,14.7-92,14.7c-7.5,0,12.3-24.301,39.7-30.102
	c-15.8,1.301-39.5,2.801-37.7,0.102c0,0,11.3-23.2,49.5-22.7C305,321.1,309.1,321.3,309.9,321.3z M370,332v-2c0,0-107.3,28.7-94,28
	c0,0,50.7,0.7,79.3-12.7C355.3,345.3,369.4,337.7,370,332z M344.9,297.1l-0.2-1.8c-1.9-7.3,0.1-11.2-4.7-16.7c0,0-48,1.3-48,6
	c0,4.7,14,4.7,28.7,9.301C320.7,294,344.1,294,344.9,297.1z"/>
<path fill="#FFFFFF" stroke="#000000" d="M276,358c-13.3,0.7,94-28,94-28v2c-0.6,5.7-14.7,13.3-14.7,13.3
	C326.7,358.7,276,358,276,358z"/>
<path fill="#FFFFFF" stroke="#000000" d="M351.3,315.3c0.601,8.601,7.3,4.8,6.7,10.7c0,0-24,6-36.7,10c-2.3,0.7-38.7,2-40-3.3
	c-1.3-5.3,34-8,36.7-8S351.3,318.7,351.3,315.3z"/>
<path fill="#FFFFFF" stroke="#000000" d="M344.7,295.3l0.2,1.8c-0.801-3.1-24.2-3.1-24.2-3.1c-14.7-4.7-28.7-4.7-28.7-9.3
	c0-4.7,48-6,48-6C344.8,284.1,342.8,288.1,344.7,295.3z"/>
<path fill="#FFFFFF" stroke="#000000" d="M349.3,306.7c1.4,5.1,0.3,0.8,0.7,5.899c-0.9-3.199-59.3,2.699-60-2.601s32.7-5.3,32.7-5.3
	c2.6-1.4,24.399-0.301,24-2L349.3,306.7z"/>
<path fill="#FFFFFF" stroke="#000000" d="M414.9,293c1-5.5,1.1-9,1.1-9c-2.4-23.3-12.3-33.1-24.7-35.8
	c-7.399-1.6-15.8-0.6-23.899,1.7c-6,1.6-11.9,4-17.2,6.5c-12.4,5.8-21.601,12.3-21.601,12.3c-61.3,2.7-65.3,21.3-65.3,21.3
	c1.6,4.3,31.6,8.3,42.6,9.5c-24.4-1.9-40,12.5-40,12.5c-1.4,5,20,7.6,33.5,8.7c-38.2-0.5-49.5,22.7-49.5,22.7
	c-1.8,2.699,21.9,1.199,37.7-0.102c-27.4,5.801-47.2,30.102-39.7,30.102c15.2,0,92-14.7,92-14.7c25.899-0.9,42.899-10.5,54.199-22.5
	c4.601-4.9,8.2-10.101,11-15.3C410.9,310.4,413.6,300,414.9,293z M247.2,259.5c4.2-2.3,9-3.8,13-4.7c4.8-1.1,8.5-1.4,8.5-1.4
	c92.7,6.7,97.3-56.7,97.3-56.7c4.2,2.2-3.5,29.5,0.7,30.7c5.3,1.5,22.399-23.3,27.3-23.1c3,0.1,12.6,28.6,15.4,28.4
	c1.199-0.1,1.899-1.9,2.399-4.7h0.2c0,0,15.3,35.3,11.3,44.7c-4,9.3,14-8,14.7-13.3c0.7-5.3-3.3,37.3,1.3,51.3
	c4.7,14,8.602-34.7,20-34.7c1.3,0-6,52.7-1.3,56.7s21.3-25.3,22.7-34c1.3-8.7,3.3,28,8,28S502,290,504,281.4l3.6,12.7
	c-0.5,3.801-1.1,7.602-1.698,11.2c-0.4,2.2-0.802,4.4-1.2,6.5c-0.5,2.601-1,5.101-1.4,7.4c-0.5,2.5-1,4.8-1.398,6.8
	c-0.5,2.3-1,4.2-1.302,5.6c-0.398,1.602-0.6,2.5-0.6,2.5c-10,36.301-77.3,64.802-114.6,78c-14.7,5.2-24.7,8-24.7,8
	c-7.9,1.302-15.8,1.802-23.3,1.7c-44.601-0.8-80.7-23.7-80.7-23.7c-1.9-0.8-3.7-1.698-5.3-2.699C225.2,379.8,224,338,224,338
	c3.6-1,11.3-4.7,18.1-8.3c7-3.601,13.2-7,13.2-7c5.8-1.2,4.5-7.101,1.2-13.3c-1.8-3.301-4.1-6.7-6.2-9.602c-3-4.1-5.6-7.1-5.6-7.1
	l0,0c-3.4-4.5-5.5-8.5-6.7-12c-1.5-4.7-1.3-8.6,0-11.8C239.6,264.8,243.1,261.7,247.2,259.5z"/>
<path fill="#FFFFFF" stroke="#000000" d="M256.5,309.4c3.3,6.3,4.6,12.1-1.2,13.3c0,0-6.1,3.399-13.2,7
	c-40.5-9.8-92.1-46.4-92.1-46.4c-2-9.3,104.7,26,104.7,26L256.5,309.4z"/>
<path fill="#FFFFFF" stroke="#000000" d="M250.3,299.8L250,300c-20.7-2.7-78.7-34-85.3-48c-6.6-13.9,78.8,39.9,80,40.7l0,0
	C244.7,292.7,247.3,295.7,250.3,299.8z"/>
<path fill="#FFFFFF" stroke="#000000" d="M260,254l0.2,0.7c-4,0.9-8.8,2.4-13,4.7c-12.8-9.6-49.9-72.8-49.9-72.8
	C205.3,174.7,260,254,260,254z"/>
<path fill="#FFFFFF" stroke="#000000" d="M237.3,268.7l0.6,0.2c-1.3,3.2-1.5,7.1,0,11.8c-44-20-63.3-60.7-63.3-60.7
	C180.7,209.3,237.3,268.7,237.3,268.7z"/>
<path id="www.ABC-color.com" fill="#FFFFFF" stroke="#000000" d="M214,232c-50-52.7-52.6-80-52.6-80c79.3,8,107.3,101.3,107.3,101.3
	s-3.7,0.3-8.5,1.4L260,254c0,0-54.7-79.3-62.7-67.3c0,0,37,63.2,49.9,72.8c-4,2.3-7.5,5.3-9.2,9.4l-0.6-0.2c0,0-56.7-59.3-62.7-48.7
	c0,0,19.3,40.7,63.3,60.7c1.1,3.5,3.3,7.5,6.7,12c-1.2-0.7-86.6-54.6-80-40.7c6.7,14,64.7,45.3,85.3,48l0.3-0.2
	c2.1,2.9,4.5,6.3,6.2,9.601h-1.9c0,0-106.7-35.299-104.7-26c0,0,51.7,36.6,92.1,46.4c-6.9,3.5-14.5,7.301-18.1,8.301
	c-14-4.699-52-28-52-28c-6.7-2.699-13.3-7.301-13.3-7.301c-15.3-5.3-31.3-30-31.3-30c4.7-10,50,0.7,50,0.7c-34-16-54-52-54-52
	c-6.1-14,52,21.3,62.4,27.7c-32.9-21-47.1-60.4-47.1-60.4C151.8,172.9,212.3,230.4,214,232z"/>
<path fill="#FFFFFF" stroke="#000000" d="M434,116.2c0,0.2,0,0.3,0,0.5c0,0.2,0,0.3,0,0.5c-0.2,2.5-1.8,4.5-3.7,4.5
	c-2,0-3.7-2.2-3.7-5c0-2.8,1.602-5,3.7-5C432.2,111.7,433.8,113.6,434,116.2z"/>
<g>
	<path d="M319.3,498c4.8,1.1,9.5,2.4,14.101,3.9c2.3,0.698,4.6,1.5,6.899,2.398c1.101,0.5,2.3,0.9,3.4,1.5
		c0.6,0.3,1.1,0.602,1.6,0.9c0.3,0.2,0.5,0.3,0.7,0.7c0,0.1,0.1,0.3,0,0.398c-0.1,0.2-0.2,0.2-0.3,0.3
		c-0.2,0.102-0.4,0.102-0.5,0.102v-0.5c2.3,0.3,4.7,0.6,7,1.1c2.3,0.4,4.6,0.9,6.899,1.5c2.301,0.602,4.5,1.3,6.7,2.2
		s4.3,2,6.101,3.5c-1.9-1.4-4-2.4-6.2-3.2s-4.4-1.5-6.7-2.1c-4.5-1.102-9.2-1.9-13.8-2.5v-0.5c0.1,0,0.3,0,0.399-0.102
		c0.101-0.1,0,0,0,0c-0.1-0.199-0.3-0.398-0.6-0.5c-0.5-0.3-1-0.6-1.6-0.898c-1.101-0.5-2.2-1-3.301-1.5c-2.3-0.9-4.6-1.7-6.899-2.5
		C328.7,500.7,324,499.3,319.3,498z"/>
</g>
<g>
	<path d="M347.3,498c3.4,0.1,6.8,0.3,10.2,0.5s6.8,0.5,10.2,0.8c3.399,0.3,6.8,0.7,10.2,1.2c1.699,0.2,3.399,0.5,5.1,0.8
		c1.7,0.4,3.4,0.7,4.9,1.4c-1.601-0.7-3.301-0.9-5-1.2c-1.7-0.3-3.4-0.5-5.101-0.7c-3.399-0.398-6.8-0.7-10.2-1
		c-3.399-0.3-6.8-0.6-10.199-0.898L347.3,498z"/>
</g>
<g>
	<path d="M408,471.3c2.2,0.4,4.4,0.8,6.5,1.2c2.2,0.5,4.3,0.9,6.5,1.5c2.1,0.5,4.3,1.1,6.4,1.7c1.1,0.3,2.1,0.7,3.1,1.1
		c0.5,0.2,1,0.4,1.5,0.7s1,0.5,1.4,1l-0.2-0.1c2,0,4.1,0.3,6.1,0.698c1,0.2,2,0.5,2.9,0.9c0.898,0.4,1.8,1,2.3,1.9
		c-0.6-0.9-1.5-1.4-2.4-1.802c-0.898-0.398-1.898-0.6-2.898-0.8c-2-0.398-4-0.5-6-0.5H433.1l-0.1-0.1c-0.3-0.4-0.8-0.602-1.3-0.9
		c-0.5-0.2-1-0.398-1.5-0.6c-1-0.4-2.102-0.7-3.102-1c-2.1-0.602-4.198-1.2-6.398-1.8l-6.4-1.602L408,471.3z"/>
</g>
<g>
	<path d="M424.7,468.7c2.5-0.3,5.1-0.5,7.7-0.602c1.3,0,2.6-0.1,3.8-0.1c1.3,0,2.6,0,3.8,0.1c-1.3,0.102-2.6,0.2-3.8,0.302
		l-3.8,0.198C429.8,468.6,427.2,468.7,424.7,468.7z"/>
</g>
<g>
	<path d="M428,336c-1.1,3.4-2.3,6.7-3.5,10.1c-1.2,3.301-2.4,6.7-3.6,10l-0.4-0.3c2.5-1.8,4.9-3.5,7.4-5.3s4.898-3.5,7.398-5.2
		c-2.398,1.8-4.8,3.7-7.2,5.5c-2.398,1.8-4.898,3.601-7.3,5.4l-0.6,0.5l0.3-0.8c1.2-3.301,2.5-6.7,3.7-10
		C425.4,342.6,426.7,339.3,428,336z"/>
</g>
<g>
	<path d="M454,348.7c-0.2,1.899-0.5,3.8-0.8,5.7c-0.3,1.898-0.602,3.8-0.9,5.699l-0.398-0.301c0.898-0.6,1.898-1.1,2.8-1.699
		l2.8-1.601c1.9-1.101,3.8-2.101,5.8-3.2c-1.8,1.2-3.7,2.4-5.6,3.5l-2.8,1.7c-0.9,0.601-1.9,1.101-2.802,1.7l-0.5,0.3l0.102-0.5
		c0.398-1.899,0.7-3.8,1.1-5.7C453.2,352.4,453.6,350.5,454,348.7z"/>
</g>
<g>
	<path d="M477.3,343.3c0,1.601-0.1,3.101-0.2,4.7c-0.1,1.6-0.198,3.1-0.3,4.7l-0.398-0.2c1.8-1.3,3.6-2.4,5.3-3.6
		c1.8-1.2,3.6-2.4,5.5-3.5c-1.7,1.3-3.5,2.6-5.2,3.8c-1.8,1.2-3.5,2.5-5.3,3.7l-0.4,0.3v-0.5c0.102-1.601,0.2-3.101,0.4-4.7
		C477,346.4,477.1,344.9,477.3,343.3z"/>
</g>
<g>
	<path d="M442,328.7c-0.4,1.899-0.7,3.8-1.2,5.7c-0.398,1.898-0.898,3.8-1.3,5.699l-0.4-0.301c1.802-1.199,3.602-2.398,5.4-3.6
		s3.6-2.4,5.4-3.5c-1.7,1.3-3.5,2.6-5.2,3.8c-1.8,1.2-3.5,2.5-5.3,3.7l-0.5,0.398l0.198-0.6c0.5-1.9,0.9-3.8,1.4-5.7
		C441,332.4,441.5,330.5,442,328.7z"/>
</g>
<g>
	<path d="M437.3,363.3c-0.5,2.5-1.2,4.9-1.8,7.4c-0.6,2.399-1.3,4.899-2,7.3l-0.3-0.3c2.898-1.3,5.8-2.601,8.8-3.8
		c-2.8,1.5-5.7,2.898-8.6,4.199l-0.4,0.199l0.1-0.5c0.602-2.5,1.302-4.898,2-7.3C435.8,368.2,436.5,365.7,437.3,363.3z"/>
</g>
<g>
	<path d="M406,362.7c-0.4,2.3-0.7,4.7-1.1,7c-0.4,2.3-0.9,4.7-1.301,7l-0.3-0.3l7.3-2c2.5-0.602,4.9-1.2,7.4-1.801
		c-2.4,0.801-4.8,1.5-7.3,2.199l-7.3,2L403,377l0.1-0.4c0.5-2.3,0.9-4.699,1.4-7C405,367.3,405.5,365,406,362.7z"/>
</g>
<g>
	<path d="M380.7,361.3c-0.601,2.5-1.2,4.9-1.8,7.4c-0.7,2.399-1.301,4.899-2,7.3l-0.4-0.3c3.1-2,6.3-3.9,9.5-5.8
		c-3,2.1-6.1,4.199-9.2,6.199l-0.5,0.301l0.2-0.602c0.6-2.5,1.4-4.898,2-7.3C379.2,366.2,379.9,363.8,380.7,361.3z"/>
</g>
<g>
	<path d="M400,340.7c-0.5,2.8-1,5.6-1.5,8.399l-1.6,8.301l-0.4-0.301c2.2-1.199,4.4-2.399,6.7-3.601c2.2-1.2,4.5-2.399,6.8-3.5
		c-2.2,1.3-4.4,2.601-6.6,3.8c-2.2,1.301-4.4,2.5-6.601,3.7l-0.5,0.3l0.101-0.5l1.699-8.3C398.7,346.2,399.3,343.4,400,340.7z"/>
</g>
<g>
	<path d="M420,308.7c0.2,2.7,0.4,5.3,0.5,8s0.3,5.3,0.4,8l-0.4-0.2c3.3-2.4,6.7-4.8,10.1-7.1c-3.198,2.6-6.5,5.1-9.898,7.5l-0.4,0.3
		v-0.4c-0.1-2.7-0.2-5.3-0.3-8C420.1,314,420,311.3,420,308.7z"/>
</g>
<g>
	<path d="M407.3,384.7c-1.399,2.5-2.899,5-4.5,7.5l-0.3-0.3c2.1-0.7,4.2-1.301,6.3-2c2.101-0.602,4.3-1.2,6.4-1.801
		c-2.102,0.801-4.2,1.5-6.3,2.199c-2.101,0.7-4.2,1.4-6.301,2l-0.6,0.2l0.3-0.5C404,389.4,405.7,387,407.3,384.7z"/>
</g>
<g>
	<path d="M384.7,388.7c-0.4,1.3-0.8,2.5-1.2,3.7c-0.4,1.199-0.9,2.5-1.3,3.698l-0.3-0.3c1.6-0.199,3.1-0.398,4.699-0.6
		c1.601-0.201,3.101-0.4,4.7-0.5c-1.5,0.3-3.1,0.6-4.6,0.898c-1.601,0.2-3.101,0.5-4.7,0.7l-0.4,0.102l0.101-0.4
		c0.5-1.2,0.899-2.399,1.399-3.601C383.6,391.1,384.1,389.9,384.7,388.7z"/>
</g>
<g>
	<path d="M356,368.7c-2.4,2.5-4.8,5-7.2,7.5l-7.3,7.399l-0.2-0.399l9.7-0.9c3.2-0.3,6.5-0.6,9.7-0.8c-3.2,0.4-6.4,0.8-9.601,1.2
		l-9.699,1.1l-0.7,0.101l0.5-0.5l7.399-7.301C351,373.4,353.5,371,356,368.7z"/>
</g>
<g>
	<path d="M364,390.7c-1.2,3.399-2.5,6.7-3.8,10.1l-0.3-0.3c2.199-0.9,4.5-1.8,6.699-2.6c2.2-0.802,4.5-1.7,6.7-2.5
		c-2.2,1-4.399,1.898-6.6,2.898c-2.2,0.9-4.4,1.8-6.7,2.7l-0.5,0.2l0.2-0.5C361.1,397.3,362.5,393.9,364,390.7z"/>
</g>
<g>
	<path d="M370.7,380c-0.2,1.1-0.5,2.3-0.8,3.4c-0.301,1.1-0.601,2.199-0.9,3.3l-0.3-0.3c2.2-0.2,4.5-0.4,6.7-0.4
		c-2.2,0.4-4.4,0.7-6.601,0.9H368.4l0.1-0.4c0.3-1.1,0.7-2.2,1.1-3.3C369.9,382.2,370.2,381.1,370.7,380z"/>
</g>
<g>
	<path d="M371.3,405.3c-1.2,2.3-2.5,4.602-3.8,6.8l-0.3-0.398c1.7-0.5,3.3-0.9,5-1.3c1.7-0.4,3.399-0.802,5.1-1.102
		c-1.6,0.602-3.3,1-4.899,1.5c-1.7,0.5-3.301,0.9-5,1.4l-0.601,0.1l0.3-0.5C368.5,409.7,369.9,407.5,371.3,405.3z"/>
</g>
<g>
	<path d="M324,369.3c-1.6,2.8-3.4,5.5-5.1,8.101l-0.2-0.399c2.1-0.3,4.2-0.399,6.3-0.601c2.1-0.199,4.2-0.399,6.4-0.5
		c-2.101,0.301-4.2,0.601-6.301,0.899c-2.1,0.2-4.199,0.5-6.3,0.7h-0.5l0.3-0.4C320.3,374.5,322.1,371.9,324,369.3z"/>
</g>
<g>
	<path d="M330,388.7c-1.7,0.899-3.5,1.7-5.3,2.5s-3.5,1.6-5.3,2.399l-0.101-0.5c2.101,0.301,4.2,0.699,6.3,1
		c2.101,0.399,4.2,0.801,6.301,1.199c-2.101-0.199-4.2-0.5-6.4-0.8c-2.1-0.3-4.2-0.601-6.3-1l-0.8-0.101l0.8-0.301
		c1.8-0.8,3.6-1.5,5.399-2.3C326.4,390.1,328.2,389.4,330,388.7z"/>
</g>
<g>
	<path d="M346,398c-3.2,2.1-6.6,4.2-9.9,6.2l-0.1-0.4c2.6,0.2,5.1,0.5,7.7,0.7c2.6,0.3,5.1,0.5,7.6,0.9
		c-2.6-0.102-5.1-0.302-7.7-0.5c-2.6-0.2-5.1-0.4-7.699-0.602l-0.7-0.1l0.6-0.4C339.2,401.8,342.6,399.9,346,398z"/>
</g>
<g>
	<path d="M297.3,374c-3.1,1-6.2,2-9.3,2.9v-0.4c2.3,0.6,4.7,1.3,7,2s4.6,1.4,6.9,2.2c-2.4-0.601-4.7-1.2-7.1-1.8
		c-2.3-0.7-4.7-1.301-7-2l-0.8-0.2l0.8-0.2C291.1,375.6,294.2,374.7,297.3,374z"/>
</g>
<g>
	<path d="M303.3,390c-2.9,0.5-5.8,1-8.6,1.5c-2.9,0.5-5.8,0.9-8.7,1.4v-0.5c3.3,0.8,6.7,1.6,10,2.398s6.6,1.7,10,2.5
		c-3.4-0.7-6.7-1.398-10-2.1c-3.3-0.801-6.7-1.5-10-2.301v-0.5c2.9-0.399,5.8-0.899,8.7-1.301C297.5,390.7,300.4,390.4,303.3,390z"
		/>
</g>
<g>
	<path d="M318.7,406.7c-1.7,0.5-3.3,1-5,1.5s-3.3,1-5,1.398V409.2c3.399,0.5,6.899,1.1,10.3,1.7c1.7,0.3,3.4,0.6,5.2,0.898
		c1.7,0.3,3.399,0.7,5.1,1c-1.7-0.2-3.5-0.398-5.2-0.7c-1.699-0.3-3.5-0.5-5.199-0.8c-3.4-0.5-6.9-1.1-10.301-1.7V409.2
		c1.7-0.4,3.301-0.8,5-1.3C315.3,407.4,317,407.1,318.7,406.7z"/>
</g>
<g>
	<path d="M264.7,383.3c-1.8,0.601-3.5,1.2-5.3,1.8c-1.8,0.602-3.5,1.2-5.3,1.7V386.4c2.3,1,4.7,2,7,3c2.3,1,4.6,2.1,6.9,3.199
		c-2.4-0.899-4.7-1.801-7.1-2.801c-2.3-1-4.7-1.898-7-3l-0.6-0.3l0.6-0.2c1.8-0.5,3.6-1.1,5.4-1.6
		C261.1,384.3,262.9,383.8,264.7,383.3z"/>
</g>
<g>
	<path d="M270,266c-1.4,0.7-2.8,1.5-4.3,2.2c-1.4,0.7-2.9,1.4-4.3,2.1v-0.4c1.8,0.8,3.5,1.6,5.3,2.4c1.8,0.8,3.5,1.6,5.3,2.5
		c-1.8-0.7-3.6-1.4-5.4-2.1c-1.8-0.8-3.6-1.5-5.3-2.3l-0.5-0.2l0.5-0.2c1.5-0.6,2.9-1.3,4.4-1.9C267.1,267.2,268.5,266.6,270,266z"
		/>
</g>
<g>
	<path d="M253.3,280c-0.9,0.5-1.7,1-2.6,1.5c-0.9,0.5-1.7,1-2.6,1.4v-0.4c2,0.6,4,1.3,6,2s4,1.4,5.9,2.2c-2-0.5-4.1-1.101-6.1-1.8
		c-2-0.602-4-1.3-6-2l-0.5-0.2l0.5-0.2c0.9-0.4,1.8-0.8,2.7-1.3C251.5,280.8,252.4,280.4,253.3,280z"/>
</g>
<g>
	<path d="M324,257.3c-1.5,1-3,1.9-4.6,2.8c-1.5,0.9-3.101,1.8-4.601,2.7l-0.1-0.5c1.899,0.3,3.8,0.7,5.7,1
		c1.899,0.4,3.8,0.8,5.6,1.2c-1.9-0.2-3.8-0.5-5.7-0.8c-1.899-0.3-3.8-0.6-5.7-1l-0.699-0.1l0.6-0.3c1.6-0.9,3.1-1.8,4.7-2.6
		C320.8,259,322.4,258.1,324,257.3z"/>
</g>
<g>
	<path d="M292.7,258.7c-1.8,1.9-3.7,3.7-5.5,5.5c-1.9,1.8-3.7,3.6-5.6,5.4l-0.2-0.4c2.1-0.4,4.2-0.9,6.3-1.3
		c2.1-0.4,4.2-0.8,6.4-1.2c-2.1,0.5-4.2,1-6.3,1.5c-2.1,0.5-4.2,0.9-6.3,1.4l-0.8,0.2l0.6-0.6c1.9-1.8,3.8-3.5,5.7-5.3
		C288.8,262.1,290.7,260.4,292.7,258.7z"/>
</g>
<g>
	<path d="M352.7,241.3c-2,1.3-3.9,2.6-5.9,3.8c-2,1.3-4,2.5-6,3.7l-0.1-0.4c3.2-0.4,6.399-0.7,9.7-1c3.199-0.3,6.5-0.6,9.699-0.8
		c-3.199,0.4-6.399,0.8-9.6,1.2c-3.2,0.3-6.4,0.7-9.7,1l-0.1-0.4c2-1.2,4-2.4,6-3.6C348.6,243.7,350.6,242.5,352.7,241.3z"/>
</g>
<g>
	<path d="M379.3,228.7c-1.6,1.6-3.2,3.2-4.899,4.8c-1.601,1.6-3.301,3.1-5,4.7l-0.2-0.4c2.7-0.1,5.3-0.2,8-0.3s5.3-0.1,8-0.1
		c-2.7,0.2-5.3,0.4-8,0.5s-5.3,0.3-8,0.4h-0.7l0.5-0.4c1.7-1.5,3.3-3.1,5-4.6C375.9,231.7,377.6,230.2,379.3,228.7z"/>
</g>
<g>
	<path d="M400.7,235.3c1.399,2.2,2.8,4.4,4.2,6.6c1.399,2.2,2.699,4.4,4,6.7l-0.4,0.1c0.7-2.9,1.4-5.8,2.2-8.6
		c-0.5,2.9-1.101,5.8-1.8,8.7l-0.101,0.5l-0.3-0.5c-1.4-2.2-2.7-4.4-4-6.7C403.2,239.9,401.9,237.6,400.7,235.3z"/>
</g>
<g>
	<path d="M422,286.7c0.6,2.1,1.1,4.2,1.5,6.3l0.7,3.2c0.2,1.1,0.398,2.1,0.7,3.2h-0.4c1.1-2.4,2.3-4.9,3.5-7.2c-1,2.5-2,5-3.1,7.399
		L424.6,300.2l-0.1-0.7c-0.2-1.1-0.5-2.1-0.7-3.2l-0.6-3.2C422.7,290.9,422.3,288.8,422,286.7z"/>
</g>
<g>
	<path d="M476.7,328c0.3,1.2,0.6,2.4,0.898,3.6c0.302,1.2,0.5,2.4,0.7,3.7l-0.398-0.2c1.8-1.1,3.6-2.199,5.5-3.1
		c-1.7,1.3-3.4,2.4-5.2,3.5l-0.3,0.2l-0.102-0.4c-0.2-1.2-0.398-2.399-0.6-3.7C477,330.5,476.8,329.2,476.7,328z"/>
</g>
<g>
	<path d="M386,221.3c1,1.7,2,3.5,2.9,5.2l-0.4-0.1c2.2-2,4.5-4,6.8-5.8c-2.1,2.2-4.3,4.2-6.5,6.2l-0.2,0.2l-0.1-0.3
		C387.6,225,386.8,223.2,386,221.3z"/>
</g>
<g>
	<path d="M242.7,351.3c-1.7,1.8-3.4,3.7-5.2,5.5s-3.5,3.601-5.3,5.4l-0.2-0.4c2.4,0.101,4.9,0.2,7.3,0.4c2.4,0.1,4.9,0.3,7.3,0.5
		c-2.4,0-4.9-0.101-7.3-0.101c-2.4-0.101-4.9-0.199-7.3-0.301h-0.6l0.4-0.398c1.8-1.801,3.6-3.5,5.4-5.301
		C239,354.8,240.8,353,242.7,351.3z"/>
</g>
<g>
	<path d="M242.7,336c-1.7,1.3-3.5,2.6-5.2,3.8l-2.6,1.9c-0.9,0.6-1.8,1.2-2.7,1.8v-0.4c1.7,0.9,3.3,1.801,5,2.7
		c1.6,0.9,3.3,1.9,4.9,2.8c-1.7-0.8-3.4-1.6-5.1-2.5c-1.7-0.8-3.4-1.699-5-2.6l-0.4-0.2l0.3-0.2c0.9-0.6,1.8-1.199,2.7-1.8l2.7-1.8
		C239,338.3,240.8,337.1,242.7,336z"/>
</g>
<g>
	<path d="M266,416.7c0.7,1.398,1.3,2.8,1.9,4.3c0.6,1.4,1.2,2.9,1.7,4.3l-0.4-0.1c1.6-1.8,3.2-3.5,4.8-5.2c-1.4,1.9-2.9,3.7-4.5,5.5
		l-0.3,0.3l-0.1-0.398c-0.6-1.4-1.1-2.9-1.6-4.302C267,419.6,266.4,418.2,266,416.7z"/>
</g>
<g>
	<path d="M292.7,425.3c1.1,2.2,2,4.4,2.9,6.602l-0.4-0.102c1-0.8,2-1.5,3-2.3s2.1-1.5,3.1-2.2c-0.9,0.9-1.9,1.7-2.9,2.5
		s-2,1.602-3,2.4l-0.3,0.2L295,432.1C294.2,429.9,293.4,427.6,292.7,425.3z"/>
</g>
<g>
	<path d="M313.3,430c-0.2,1.5-0.5,2.9-0.8,4.4c-0.3,1.398-0.6,2.898-1,4.3l-0.4-0.3c0.9-0.5,1.801-1.102,2.7-1.602
		c0.9-0.5,1.8-1,2.8-1.5c-0.8,0.602-1.699,1.2-2.6,1.8c-0.9,0.602-1.7,1.2-2.6,1.7l-0.5,0.3l0.1-0.6c0.3-1.5,0.7-2.9,1-4.3
		C312.5,432.9,312.9,431.4,313.3,430z"/>
</g>
<g>
	<path d="M284,438c0.4,1.4,0.8,2.9,1.2,4.3c0.4,1.4,0.7,2.9,1,4.3l-0.4-0.1c1-0.9,2-1.8,3-2.6c1-0.9,2.1-1.7,3.1-2.5
		c-0.9,1-1.9,1.898-2.9,2.8c-1,0.898-2,1.8-3,2.7l-0.3,0.3l-0.1-0.4c-0.3-1.398-0.6-2.898-1-4.3C284.5,440.9,284.2,439.5,284,438z"
		/>
</g>
<g>
	<path d="M344.7,430c-0.3,1.6-0.7,3.2-1.101,4.7l-0.3-0.3l3-1c1-0.4,2-0.7,3-1c2-0.7,4-1.2,6.101-1.802c-2,0.802-3.9,1.5-5.9,2.2
		c-1,0.3-2,0.7-3,1l-3,1L343,435l0.1-0.4C343.6,433.1,344.1,431.5,344.7,430z"/>
</g>
<g>
	<path d="M364,427.3c-0.3,1.5-0.5,2.9-0.8,4.4s-0.601,2.898-0.9,4.3l-0.399-0.2c1.6-1.3,3.3-2.398,5-3.6
		c1.699-1.2,3.399-2.4,5.1-3.5c-1.6,1.3-3.2,2.6-4.9,3.8c-1.699,1.2-3.3,2.5-5,3.7l-0.5,0.398l0.101-0.6c0.3-1.4,0.7-2.9,1.1-4.3
		C363.2,430.2,363.6,428.8,364,427.3z"/>
</g>
<g>
	<path d="M406.7,36.1c-4.4,4.3-8.7,8.8-12.601,13.5c-2,2.4-3.899,4.8-5.6,7.4s-3.3,5.3-3.9,8.3c0.601-3,2.2-5.8,3.801-8.4
		c1.699-2.6,3.5-5.1,5.5-7.5c3.899-4.8,8.1-9.3,12.5-13.7c0.1-0.1,0.3-0.1,0.399,0C406.9,35.8,406.8,36,406.7,36.1L406.7,36.1z"/>
</g>
<g>
	<path d="M438.8,46.2c-3,1.2-5.898,2.5-8.7,4.2c-1.398,0.8-2.698,1.7-3.898,2.8c-0.602,0.5-1.102,1.1-1.602,1.8
		c-0.398,0.7-0.698,1.5-0.6,2.3c-0.1-0.8,0.2-1.6,0.6-2.3c0.4-0.7,1-1.3,1.5-1.9c1.2-1.1,2.5-2.1,3.9-2.9c2.7-1.7,5.6-3.2,8.6-4.4
		c0.102-0.1,0.302,0,0.302,0.1C439,46,438.9,46.2,438.8,46.2L438.8,46.2L438.8,46.2z"/>
</g>
<g>
	<path d="M457.4,64.2l-14.7,4.4l14.6-4.9c0.102,0,0.3,0,0.3,0.2C457.6,64.1,457.5,64.2,457.4,64.2L457.4,64.2z"/>
</g>
</svg>
