<?xml version="1.0" encoding="utf-8"?>
<!-- Generator: Adobe Illustrator 15.0.0, SVG Export Plug-In . SVG Version: 6.00 Build 0)  -->
<!DOCTYPE svg PUBLIC "-//W3C//DTD SVG 1.1//EN" "http://www.w3.org/Graphics/SVG/1.1/DTD/svg11.dtd">
<svg version="1.1" id="layer_x5F_www.ABC-color.com"
	 xmlns="http://www.w3.org/2000/svg" xmlns:xlink="http://www.w3.org/1999/xlink" x="0px" y="0px" width="822px" height="567px"
	 viewBox="0 0 822 567" enable-background="new 0 0 822 567" xml:space="preserve">
<path fill="#FFFFFF" stroke="#000000" stroke-miterlimit="10" d="M541.8,91.1c-2.1-4.8,6.102-8.9,6.102-8.9l0.198,0.1
	C546.6,85.6,543.7,89.1,541.8,91.1L541.8,91.1z"/>
<polygon fill="#FFFFFF" stroke="#000000" stroke-miterlimit="10" points="550.3,107.6 536.9,103.8 544.8,102.2 "/>
<path fill="#FFFFFF" stroke="#000000" stroke-miterlimit="10" d="M544.3,79.1c-2.5-0.2-5.2-0.3-6.6-0.1c1.898-0.5,7.8-2.2,13.3-5.9
	c1.2-0.8,2.3-1.7,3.4-2.7c2.3-2.1,4.398-4.7,5.6-7.8c0,0,1.8,2.7-0.1,4.9c-0.302,0.4-0.7,0.7-1.2,0.9c-3.5,1.9,3.398-0.7,4.3-5
	c0,0,1.8,4.8-1.8,6.5c0,0,5.398-1.2,5.8-3.2c0,0,1.7,6.2-18.2,12.8C549,79.6,546.8,79.3,544.3,79.1z"/>
<path fill="#FFFFFF" stroke="#000000" stroke-miterlimit="10" d="M537.7,79c1.398-0.2,4.2-0.1,6.6,0.1c-0.5,0.4-9.7,7.9-6.8,12.7
	l-0.1,0.4c-3.302-0.9-5.802-1.5-5.802-1.5c-2.198-6.1,5.5-11.5,5.5-11.5s0,0,0.102,0C537.3,79.1,537.5,79.1,537.7,79L537.7,79z"/>
<path fill="#FFFFFF" stroke="#000000" stroke-miterlimit="10" d="M537.1,79.2c0,0,9.102-8.2,13.9-6c-5.5,3.7-11.4,5.4-13.3,5.9l0,0
	c-0.2,0-0.4,0.1-0.5,0.1C537.1,79.2,537.1,79.2,537.1,79.2z"/>
<path fill="#FFFFFF" stroke="#000000" stroke-miterlimit="10" d="M547.9,82.3c0,0-8.2,4.1-6.102,8.9l0.102,0.1
	c-1,1.1-1.7,1.8-1.7,1.8c-1-0.3-1.9-0.6-2.8-0.8l0.1-0.4c-2.8-4.8,6.3-12.3,6.8-12.7c2.5,0.2,4.602,0.4,4.602,0.4
	c-0.102,0.9-0.4,1.8-0.9,2.8L547.9,82.3z"/>
<path fill="#FFFFFF" stroke="#000000" stroke-miterlimit="10" d="M551.3,65.1c4.5,3.6,0.5,2.5-0.3,2.5s1.1-2.7-15.4,3.4
	C535.6,71.1,546.8,61.5,551.3,65.1z"/>
<path fill="#FFFFFF" stroke="#000000" stroke-miterlimit="10" d="M512.9,84.5c0,0-7.602-0.8-10.7-0.6c0.1-0.1,0.1-0.1,0.1-0.1l0,0
	c0.2,0,0.4-0.1,0.7-0.2c0.1,0,0.1,0,0.1,0c2.102-0.6,5.602-1.8,9.2-3.8l0,0c4.602-2.6,9.4-6.5,11.7-12.1c0,0,1.8,2.7-0.1,4.9
	c-0.301,0.4-0.7,0.7-1.2,0.9c-3.5,1.9,3.399-0.7,4.3-5c0,0,1.8,4.8-1.8,6.5c0,0,5.399-1.2,5.8-3.2c0,0,1.7,6.2-18,12.7H512.9z"/>
<path fill="#FFFFFF" stroke="#000000" stroke-miterlimit="10" d="M491.6,75.9c10.4-11.2,19.5-11.5,19.5-11.5
	c5.7,1.1,2.602,4.1,2.602,4.1C505.1,65.6,491.6,75.9,491.6,75.9z"/>
<path fill="#FFFFFF" stroke="#000000" stroke-miterlimit="10" d="M486,89.5c0.4-1,8.7-21.3,26.2-9.9v0.1l0,0
	c-3.602,2-7.102,3.2-9.2,3.8c0,0,0,0-0.1,0C501.6,83.8,487.7,86.6,486,89.5z"/>
<path fill="#FFFFFF" stroke="#000000" stroke-miterlimit="10" d="M509.1,89c1.4,0.6,1,3.6-0.8,6.7c-1.8,3.1-4.398,5.1-5.8,4.5
	c-1.4-0.6-1-3.6,0.8-6.7S507.7,88.4,509.1,89z"/>
<path fill="#FFFFFF" stroke="#000000" stroke-miterlimit="10" d="M508.3,95.6c1.8-3.1,2.102-6.1,0.8-6.7c-1.398-0.6-4,1.4-5.8,4.6
	c-1.8,3.1-2.1,6.1-0.8,6.7C503.8,100.8,506.5,98.7,508.3,95.6z M502.1,83.9c3.2-0.2,10.7,0.6,10.7,0.6c0.102,0,0.102,0,0.2-0.1
	c-0.7,13.4-6.9,19.1-12.4,21.6C484.8,104.4,500.5,85.8,502.1,83.9z"/>
<path fill="#FFFFFF" stroke="#000000" stroke-miterlimit="10" d="M541.5,41.5c1.1-3,2.4-8.2-4.8-4.8l-9.8,5.3c0,0,0.5-6.3-4.5-2.4
	c-5,4-8.9,6.2-8.9,6.2s-5.3,2.1-12.7,6.4c-15.398,9-40.2,27.7-46.898,57.4C449.6,96.6,424.3,5.9,540.8,9.3
	c5.4,0.2,10.602,1.6,14.102,3.5c-7-0.6-13.802,0.6-16.2,6.6c-2-1.3-4.7-1.6-7.3-0.8c-1.5,0.5-2.802,1.4-3.7,2.5
	C517.6,8.7,492.2,29,492.2,29s33.7,17.5,37,0.7l0.1-0.2c2,1.3,4.7,1.7,7.3,0.8c1.102-0.4,2.102-0.9,2.802-1.6
	c5.1,8.6,16.198,3.2,24.398-2.7c0.5,0.5,9.602,10.8-2.1,30.1c-1.3,2.1-6.7,6.7-7.102,5.8l0,0c-0.6-8.1-4.5-9.1-4.5-9.1v-0.1
	c7.302-1.6,5.9-6,5.9-6c-1.9-4,4.7-8.1,4.7-8.1s3.5-7.7-9.3-2C546.1,39,543.1,40.5,541.5,41.5z"/>
<path fill="#FFFFFF" stroke="#000000" stroke-miterlimit="10" d="M541.5,41.5c-3.6,2.2-0.8,1.8-0.8,1.8S541.1,42.6,541.5,41.5
	c1.6-1,4.6-2.5,9.8-4.8c12.9-5.7,9.3,2,9.3,2s-6.6,4.1-4.698,8.1c0,0,1.398,4.4-5.9,6c-1.5,0.3-3.4,0.5-5.7,0.5
	c-13.6,0.1-22.8-6-43.6-0.9v-0.1C508.1,48,513.4,45.9,513.4,45.9s3.899-2.3,8.899-6.2c5-4,4.5,2.4,4.5,2.4l9.8-5.3
	C543.9,33.3,542.6,38.5,541.5,41.5z"/>
<path fill="#FFFFFF" stroke="#000000" stroke-miterlimit="10" d="M540.7,43.3c0,0-2.8,0.3,0.8-1.8C541.1,42.6,540.7,43.3,540.7,43.3
	z"/>
<path fill="#FFFFFF" stroke="#000000" stroke-miterlimit="10" d="M554.9,12.9c9.3,0.8,18.898,4.9,18.898,4.9s-4.3,4.3-9.898,8.3
	c-8.2,5.9-19.302,11.4-24.4,2.7c2-1.7,2.7-4.3,1.7-6.6c-0.5-1.1-1.4-2-2.4-2.7C541.1,13.4,547.9,12.2,554.9,12.9z"/>
<path fill="#FFFFFF" stroke="#000000" stroke-miterlimit="10" d="M237.4,329L237.4,329c-7-0.9-11.6-3.4-12-8.6c0,0,3.5-1.102,9.8-3
	c-3.5-0.602-19.3-4.102,11-19.602c2.2-1.1,4.4-2.199,6.6-3.1c0.5-2,3.1-7.602,16.2-14l0,0c4.3-9.9,19.1-20,36.9-29
	c5.6-2.8,11.4-5.6,17.3-8.1c1.2-0.5,2.5-1.1,3.7-1.6v0.1c0,0-14,24,10,11c0,0-12,28.5,9.5,16.5c0,0-13.5,27.5,8,13
	c-0.2,0.7-6.7,24.799,11,12c0,0-3,19,6,10.5c0,0-2,14.5,12.5,7l0.199,0.301c-1.199,0.699-2.399,1.398-3.699,2.1
	c-6.2,3.5-12.9,7-20.301,10.7C343.7,333.4,324.4,342,301.7,351.1l0,0c-1.5,0.301-55.4,12.601-80.3,9.899
	c-4.9-0.5-8.6-1.601-10.7-3.399c0,0-0.7-1.801,6.6-4.899c2.7-1.101,6.4-2.5,11.5-4l0.1-0.3C200,341.9,229.3,331.6,237.4,329z"/>
<path fill="#FFFFFF" stroke="#000000" stroke-miterlimit="10" d="M515.3,208.9v0.3c0,0,8.9,26.6-19.398,60.7
	c-3.302,4-7.2,8.2-11.7,12.4c-5.5,5.2-11.9,10.5-19.3,15.8c0,0-66.301,67.102-104.602,27.102c7.3-3.7,14.101-7.2,20.3-10.7l0.7,1.2
	c0,0,10.9,7.8,29.101-0.602c80.8-37.1,83-102.8,83-102.8l-1.5-0.1c0.6,0,1.3-0.6,2.398-2.1c7.2-10.3,14.602-16.7,17-21.7
	C513.1,184.3,510,206.9,515.3,208.9z"/>
<path fill="#FFFFFF" stroke="#000000" stroke-miterlimit="10" d="M501.6,84c-0.198,0-0.398,0.1-0.5,0.1
	C501.2,84.1,501.4,84,501.6,84z M502.3,83.8L502.3,83.8c-0.2,0.1-0.398,0.1-0.6,0.2c0.1,0,0.3,0,0.5,0
	c-1.602,1.8-17.4,20.5-1.4,22.1c-4.5,2-8.5,1.8-8.5,1.8c-10.2-2.5-7.7-14.1-6.398-18.4l0.3,0.1l0,0c1.7-2.9,15.6-5.7,16.898-6
	C502.7,83.7,502.5,83.7,502.3,83.8z"/>
<path fill="#FFFFFF" stroke="#000000" stroke-miterlimit="10" d="M551,67.6c0.8,0,4.8,1.1,0.3-2.5S535.6,71,535.6,71
	C552.1,64.9,550.3,67.6,551,67.6z M500.7,106c5.5-2.5,11.7-8.2,12.398-21.6c19.7-6.5,18-12.7,18-12.7c-0.398,2-5.8,3.2-5.8,3.2
	c3.602-1.7,1.8-6.5,1.8-6.5c-0.898,4.3-7.8,6.9-4.3,5c0.5-0.3,0.8-0.6,1.2-0.9c1.9-2.2,0.1-4.9,0.1-4.9
	c-2.3,5.6-7.1,9.5-11.698,12.1v-0.1c-17.5-11.4-25.802,8.9-26.2,9.9l0,0l-0.3-0.1c-1.302,4.2-3.802,15.9,6.398,18.4
	C492.2,107.9,496.2,108.1,500.7,106z M506.7,124c-1.7,1.4-38.2,31.7-53-13.8c0-0.2,0.1-0.4,0.1-0.5l0,0
	c6.7-29.7,31.5-48.4,46.9-57.4v0.1c20.7-5.1,29.898,1,43.6,0.9c2.3,0,4.2-0.2,5.7-0.5v0.1c0,0,3.9,1,4.5,9.1
	c0.2,2.2,0.1,4.9-0.4,8.3l0.2,0.2c-1.1,1-2.3,1.9-3.398,2.7c-4.802-2.2-13.9,6-13.9,6s-7.8,5.4-5.5,11.5
	c-14.7,5.6-17.7,15.5-17.7,15.5S507.3,115.8,506.7,124z M513.7,68.5c0,0,3.1-3-2.602-4.1c0,0-9.1,0.3-19.5,11.5
	C491.6,75.9,505.1,65.6,513.7,68.5z"/>
<path fill="#FFFFFF" stroke="#000000" stroke-miterlimit="10" d="M190.1,353.2c-16.4-2.4-9.9-19.9-9.9-19.9
	c-14.9-7.899-2.1-26.2-2.1-26.2c-22.7-1.8-4.3-21.898-4.3-21.898c-17-2.4-2.1-21.9-2.1-21.9c-16.3-2.4-4.3-21.9-4.3-21.9
	c-4.7-4-5.9-8.1-5.6-11.5c0.3-4.9,3.5-8.5,3.5-8.5s9.9,4.2,21.1,6.4l0,0c-1.3,2-6.7,11.5,4.1,19.5c0,0-10.3,20.2,6.2,21.6
	c0,0-13.1,20.4,4.1,21.701c0,0-16.6,21.199,6.2,21.601c0,0-11.1,19,4.4,26c0,0-6.6,10.8,6.2,14.5l0,0c-7.4,3.2-6.6,4.899-6.6,4.899
	c2.1,1.801,5.8,2.899,10.7,3.399l-0.1,0.601c-9.2,6.699,18.6,13.199,18.6,13.199c-7.1,10.9,17,14,17,14
	c-4.3,12.8,19.1,15.2,19.1,15.2c-2.1,12.8,15.6,15.8,15.6,15.8l11.4,13.4c0,0,11.2,16.898,23.5,8.2c0,0,21.5,12.1,25.8-1.602
	c0,0,21.2,14.5,25.601,0.2c0,0,21.6,17.6,25.8-1.6c0,0,20,12.6,30.5,0.6c0,0,20.5,7.5,24.3-7.5l-0.1,1.1c0,0,12.6,7.302,23.2-3
	c0,0,23.398,9.102,25.198-5c0,0,23.602,11.602,25.4-3.198c0,0,24.5,14.6,25.2-5c0,0,22,9.8,30.3-3.4c0,0,11.9-0.5,13-15.8
	l-0.4-1.301c5.4-1.699,8.9-2.899,8.9-2.899c1.4,27.4-14.4,33.101-14.4,33.101c-8.3,13.199-30.3,3.399-30.3,3.399
	c-0.7,19.5-25.2,5-25.2,5c-1.8,14.7-25.398,3.2-25.398,3.2c-1.8,14.1-25.2,5-25.2,5c-10.602,10.3-23.2,3-23.2,3l0.101-1.102
	c-3.801,15-24.301,7.5-24.301,7.5c-10.6,12-30.6-0.6-30.6-0.6c-2.2,10.1-9.3,10-15.5,7.6c-5.5-2.1-10.3-6.1-10.3-6.1
	c-1.4,4.5-4.5,6.1-8,6.3c-7.7,0.3-17.601-6.5-17.601-6.5c-3,9.5-14.3,6.602-20.899,3.9c-2.9-1.2-4.9-2.3-4.9-2.3
	c-4.2,3-8.2,3.898-11.8,3.898c-6.9-0.1-11.7-4-11.7-4c-9.5,0.5-16.9-8.1-21.3-15c-2.8-4.398-4.3-8.1-4.3-8.1
	c-17.4,2-21.1-19-21.1-19c-18.8,11-19.6-14.5-19.6-14.5c-14.9,7.398-17.9-15.7-17.9-15.7c-5.7,2.8-9.9,1.101-13-2
	c-4.7-4.7-6.6-12.601-6.6-12.601C191.8,366.1,190.2,354.8,190.1,353.2z"/>
<path fill="#FFFFFF" stroke="#000000" stroke-miterlimit="10" d="M607,387.5c1.6,3.4,2.5,5.4,2.5,5.4s-3.5,1.199-8.9,2.898
	c-15.8,5-47.6,14.5-55.198,12.102c0,0-35.802-8.802-50.4,0c0,0-37,12-59.9,5c0,0-10.6-36.5,49.602-130.2c0,0,2.1,1,5.6,2.5
	c-1.3,2.399-39,73.2-41.1,123.398c0,0,36.398-2,51.1-10.3c0,0,24.4-7.6,48.2,1.2c0,0,14.1,0.2,17.7-1.2
	C569.8,397.1,603.1,388.5,607,387.5z"/>
<path fill="#FFFFFF" stroke="#000000" stroke-miterlimit="10" d="M301.9,351L301.9,351c22.7-9.1,42-17.7,58.4-25.9
	C398.6,365.1,464.9,298,464.9,298c7.398-5.3,13.8-10.6,19.3-15.8l0.5,0.6C424.5,376.5,435.1,413,435.1,413c22.9,6.9,59.9-5,59.9-5
	c14.7-8.8,50.4,0,50.4,0c7.5,2.4,39.398-7.1,55.198-12.1l0.4,1.3c-1,15.3-13,15.8-13,15.8c-8.3,13.2-30.3,3.4-30.3,3.4
	c-0.7,19.5-25.2,5-25.2,5c-1.8,14.698-25.399,3.198-25.399,3.198c-1.801,14.102-25.199,5-25.199,5c-10.602,10.302-23.2,3-23.2,3
	l0.1-1.1c-3.8,15-24.3,7.5-24.3,7.5c-10.6,12-30.5-0.6-30.5-0.6c-4.3,19.198-25.8,1.6-25.8,1.6c-4.4,14.3-25.601-0.2-25.601-0.2
	c-4.399,13.7-25.8,1.602-25.8,1.602c-12.399,8.8-23.5-8.2-23.5-8.2l-11.4-13.4c0,0-17.7-3-15.6-15.8c0,0-23.4-2.4-19.1-15.2
	c0,0-24.1-3-17-14c0,0-27.8-6.5-18.6-13.2l0.1-0.6C246.5,363.6,300.4,351.3,301.9,351z M527,417c0-2.8-2.2-5-5-5s-5,2.2-5,5
	s2.2,5,5,5S527,419.8,527,417z M500,424c0-2.8-2.2-5-5-5s-5,2.2-5,5s2.2,5,5,5S500,426.8,500,424z M456,429c0-2.8-2.2-5-5-5
	s-5,2.2-5,5s2.2,5,5,5S456,431.8,456,429z M434,356.5c0-4.7-3.8-8.5-8.5-8.5s-8.5,3.8-8.5,8.5s3.8,8.5,8.5,8.5S434,361.2,434,356.5z
	 M431,424.5c0-3-2.5-5.5-5.5-5.5s-5.5,2.5-5.5,5.5s2.5,5.5,5.5,5.5S431,427.5,431,424.5z M412,387c0-2.8-2.2-5-5-5s-5,2.2-5,5
	s2.2,5,5,5S412,389.8,412,387z M396,363c0-3.3-2.7-6-6-6s-6,2.7-6,6s2.7,6,6,6S396,366.3,396,363z M392,418.5c0-4.1-3.4-7.5-7.5-7.5
	s-7.5,3.4-7.5,7.5s3.4,7.5,7.5,7.5S392,422.6,392,418.5z M388,394.5c0-3-2.5-5.5-5.5-5.5s-5.5,2.5-5.5,5.5s2.5,5.5,5.5,5.5
	S388,397.5,388,394.5z M366,428.5c0-3-2.5-5.5-5.5-5.5s-5.5,2.5-5.5,5.5s2.5,5.5,5.5,5.5S366,431.5,366,428.5z M365,378
	c0-3.3-2.7-6-6-6s-6,2.7-6,6s2.7,6,6,6S365,381.3,365,378z M356,352.5c0-3-2.5-5.5-5.5-5.5s-5.5,2.5-5.5,5.5s2.5,5.5,5.5,5.5
	S356,355.5,356,352.5z M354,398.5c0-3.6-2.9-6.5-6.5-6.5s-6.5,2.9-6.5,6.5s2.9,6.5,6.5,6.5S354,402.1,354,398.5z M335,425.5
	c0-3.6-2.9-6.5-6.5-6.5s-6.5,2.9-6.5,6.5s2.9,6.5,6.5,6.5S335,429.1,335,425.5z M332,362c0-3.9-3.1-7-7-7s-7,3.1-7,7s3.1,7,7,7
	S332,365.9,332,362z M323,389c0-3.3-2.7-6-6-6s-6,2.7-6,6s2.7,6,6,6S323,392.3,323,389z M309,407c0-3.3-2.7-6-6-6s-6,2.7-6,6
	s2.7,6,6,6S309,410.3,309,407z M289,373c0-2.8-2.2-5-5-5s-5,2.2-5,5s2.2,5,5,5S289,375.8,289,373z"/>
<path fill="#FFFFFF" stroke="#000000" stroke-miterlimit="10" d="M607,387.5c-3.9,1-37.3,9.5-40.8,10.9
	c-3.7,1.398-17.7,1.198-17.7,1.198c-23.8-8.8-48.2-1.198-48.2-1.198c-14.7,8.3-51.1,10.3-51.1,10.3
	c2.1-50.2,39.8-121.101,41.1-123.4c12,5,40.5,15.101,57.5,6.601C558.6,286.6,596.8,365.9,607,387.5z"/>
<path fill="#FFFFFF" stroke="#000000" stroke-miterlimit="10" d="M406.8,151.3c2.101-13.6,46.9-41.1,46.9-41.1
	c14.7,45.5,51.3,15.2,53,13.8c-0.4,5.5,1.898,10.5,10.7,11.5c10,1.2,12.1-0.6,14.1-2.8l0.4,0.1c1.3,0.9,31.6,46.2,27.3,59.9
	c-1.7,5.5-6.602,4.4-11.8,1.4c-7.602-4.5-15.9-13.3-16-11.7c-0.302,2.7,1.3,11.6-10.9,24c-2.3,2.3-4,2.9-5.2,2.5
	c-5.3-2-2.2-24.6-4.1-20.5c-2.4,5-9.802,11.4-17,21.7c-1,1.5-1.802,2.1-2.4,2.1c-3.5,0,0-22.7-3.2-20.3
	c-3.699,2.7-6.1,19.6-21.3,24.6s6.7-31.9-2.7-22.8c-9.3,9.1-8.8,14.4-25.5,22.6c-2.699,1.3-4.3,1.6-5.3,1
	c-2.399-1.3,0.3-7.8,3.3-13.7c-1.3-12-23.1,5.7-25.8,6.3c-17.399,4.2,6.5-11.1,8.8-21.6c2.301-10.5-6.5-3.1-6.5-3.1
	c-32.899,23.5-6.3-7.3-6.3-7.3c-31,7.6,9.102-19.1,9.102-19.1l-4.102-1C407.9,156.6,406.4,154.3,406.8,151.3z"/>
<path fill="#FFFFFF" stroke="#000000" stroke-miterlimit="10" d="M544.8,102.2l-7.8,1.6l-23.1,2.4c0,0,3.1-9.9,17.698-15.5
	c0,0,2.5,0.6,5.802,1.5c0.898,0.2,1.8,0.5,2.8,0.8c6.6,1.9,14.6,4.8,13.8,7.3L544.8,102.2z M533.1,99.6c1-0.3,1.5-1.3,1.102-2.3
	c-0.4-1-1.5-1.6-2.5-1.4c-1,0.3-1.5,1.3-1.102,2.3C531,99.3,532.1,99.9,533.1,99.6z"/>
<path fill="#FFFFFF" stroke="#000000" stroke-miterlimit="10" d="M547.4,194.1c6,5.9,19.898,26.8,4.1,85.3
	c-21.3,9.1-55.4-9.4-55.4-9.4l-0.198-0.2c28.198-34,19.398-60.7,19.398-60.7v-0.3c1.2,0.4,2.9-0.2,5.2-2.5
	c12.2-12.3,10.6-21.2,10.9-24C531.5,180.8,539.8,189.6,547.4,194.1z"/>
<path fill="#FFFFFF" stroke="#000000" stroke-miterlimit="10" d="M536.9,103.8l13.3,3.7c0,0-8.602,2.2-17.602,2.8
	c-7.5,0.5-15.198-0.2-18.8-4.1L536.9,103.8z"/>
<path fill="#FFFFFF" stroke="#000000" stroke-miterlimit="10" d="M490.4,285.3c-3.5-1.5-5.602-2.5-5.602-2.5l-0.5-0.6
	c4.5-4.2,8.3-8.3,11.7-12.4l0.2,0.2c0,0,34.1,18.5,55.398,9.4c-1.1,4-2.3,8.2-3.698,12.5C530.9,300.4,502.4,290.3,490.4,285.3z"/>
<path fill="#FFFFFF" stroke="#000000" stroke-miterlimit="10" d="M527.8,21.2c0.9-1.1,2.102-2,3.7-2.5c2.6-0.8,5.3-0.5,7.3,0.8
	c1.102,0.7,1.9,1.6,2.4,2.7c1,2.3,0.3,4.9-1.7,6.6c-0.8,0.7-1.7,1.2-2.8,1.6c-2.602,0.8-5.3,0.5-7.3-0.8c-1-0.7-1.802-1.6-2.302-2.7
	C526.1,24.9,526.5,22.8,527.8,21.2z"/>
<path fill="#FFFFFF" stroke="#000000" stroke-miterlimit="10" d="M506.7,124c0.6-8.2,7.2-17.8,7.2-17.8c3.6,3.9,11.398,4.5,18.8,4.1
	v0.7c1.5,1,9.398,13.7,1.3,19.4c-1.1,0.8-1.8,1.6-2.5,2.4c-2.1,2.2-4.1,4-14.1,2.8C508.6,134.5,506.3,129.6,506.7,124z"/>
<path fill="#FFFFFF" stroke="#000000" stroke-miterlimit="10" d="M534.2,97.3c0.398,1-0.102,2.1-1.102,2.3c-1,0.3-2.1-0.4-2.5-1.4
	c-0.398-1,0.102-2.1,1.102-2.3C532.7,95.6,533.8,96.3,534.2,97.3z"/>
<path fill="#FFFFFF" stroke="#000000" stroke-miterlimit="10" d="M529.3,29.5l-0.1,0.2c-3.3,16.8-37-0.7-37-0.7
	s25.398-20.3,35.6-7.8c-1.3,1.6-1.7,3.8-0.8,5.7C527.4,28,528.3,28.9,529.3,29.5z"/>
<circle fill="#FFFFFF" stroke="#000000" stroke-miterlimit="10" cx="522" cy="417" r="5"/>
<circle fill="#FFFFFF" stroke="#000000" stroke-miterlimit="10" cx="495" cy="424" r="5"/>
<path fill="#FFFFFF" stroke="#000000" stroke-miterlimit="10" d="M491.8,212.1l1.5,0.1c0,0-2.1,65.7-83,102.8
	c-18.2,8.3-29.1,0.6-29.1,0.6l-0.7-1.199c1.2-0.699,2.5-1.399,3.7-2.101c98.6-56.7,53.898-89.5,48.5-92.9c0.2,0.1,0.5,0.3,0.8,0.4
	c-0.6-0.4-1.3-0.8-2-1.1l2.3-1.5c0.9,0.5,2.602,0.3,5.3-1c16.801-8.2,16.2-13.5,25.5-22.6c9.301-9.1-12.5,27.8,2.7,22.8
	s17.5-21.9,21.3-24.6C491.8,189.4,488.3,212.1,491.8,212.1z M480,238v-16h-11v10.7v0.3h-9v11h-8v15h13v-12h9v-9H480z"/>
<polygon fill="#FFFFFF" stroke="#000000" stroke-miterlimit="10" points="480,222 480,238 474,238 474,233 469,233 469,232.7 
	469,222 "/>
<polygon fill="#FFFFFF" stroke="#000000" stroke-miterlimit="10" points="465,247 460,247 460,244 460,233 469,233 474,233 474,238 
	474,247 "/>
<path fill="#FFFFFF" stroke="#000000" stroke-miterlimit="10" d="M466.3,499.4V511c0,0-2.1-1.8-2.8-8.5c0,6.4-17-9.1-43.3-2.4
	c23.398,4.9,39,12.802,39,12.802c3.5,3-7.8,11.6-7.8,11.6l-0.7-7.9c-0.7,10.399-36.2-12.2-36.2-12.2c6.5,9.3,16.8,20.5,15.6,28.6
	c-4.198,28.7-7.1,6.1-7.1,6.1l-3.5-6.698c-7-3-13.1-20.7-16.2-27.102c3.2,1,4.9,1.3,4.9-0.898c0.7,6.698,2.8,8.5,2.8,8.5V501.3
	c0,0-1-7-14.1-9.3L377.3,459.6v-0.3c3.5-0.1,6.601-1.8,8-6.3c0,0,4.8,3.9,10.3,6.1l-0.199,0.5l16.299,33.2
	C465.6,478.7,466.3,499.4,466.3,499.4z"/>
<polygon fill="#FFFFFF" stroke="#000000" stroke-miterlimit="10" points="465,247 465,259 452,259 452,244 460,244 460,247 "/>
<circle fill="#FFFFFF" stroke="#000000" stroke-miterlimit="10" cx="451" cy="429" r="5"/>
<path fill="#FFFFFF" stroke="#000000" stroke-miterlimit="10" d="M433.8,217.2l-2.3,1.5c-12-5.3-45.2,1.8-45.2,1.8
	s-29.7,8.8-59.3,21.4c-1.2,0.5-2.5,1.1-3.7,1.6c-15.7-9.6-10.1-43.5-10.1-43.5l-0.101-0.3c32.9-10.8,67.801-24.8,93.801-48.4
	c-0.5,2.9,1.1,5.2,5.5,6.4l4.1,1c0,0-40.1,26.7-9.1,19.1c0,0-26.601,30.7,6.3,7.3c0,0,8.8-7.3,6.5,3.1c-2.4,10.5-26.2,25.8-8.8,21.6
	c2.8-0.7,24.5-18.3,25.8-6.3C434.1,209.4,431.4,215.9,433.8,217.2z"/>
<path fill="#FFFFFF" stroke="#000000" stroke-miterlimit="10" d="M432.5,219.3c-0.1,0-0.2-0.1-0.2-0.1S432.4,219.2,432.5,219.3z
	 M432.7,219.4c-0.102,0-0.102-0.1-0.2-0.1C432.5,219.3,432.6,219.4,432.7,219.4z M354.5,282.5c-21.5,14.5-8-13-8-13
	C325,281.5,337,253,337,253c-24,13-10-11-10-11v-0.1c29.6-12.6,59.3-21.4,59.3-21.4s33.2-7,45.2-1.8c0.8,0.3,1.4,0.7,2,1.1
	c-0.3-0.2-0.6-0.3-0.8-0.4c5.398,3.4,50.1,36.2-48.5,92.9L384,312c-14.5,7.5-12.5-7-12.5-7c-9,8.5-6-10.5-6-10.5
	C347.8,307.3,354.3,283.2,354.5,282.5z"/>
<path fill="#FFFFFF" stroke="#000000" stroke-miterlimit="10" d="M425.5,348c4.7,0,8.5,3.8,8.5,8.5s-3.8,8.5-8.5,8.5
	s-8.5-3.8-8.5-8.5S420.8,348,425.5,348z"/>
<circle fill="#FFFFFF" stroke="#000000" stroke-miterlimit="10" cx="425.5" cy="424.5" r="5.5"/>
<path fill="#FFFFFF" stroke="#000000" stroke-miterlimit="10" d="M396.9,491.9c13,2.3,14.1,9.3,14.1,9.3v11.6c0,0-2.1-1.8-2.8-8.5
	c0,2.102-1.7,1.9-4.9,0.9c-6.399-2-18.8-7.2-36.3-2.7c23.4,4.9,36.9,12.2,36.9,12.2c3.5,3-7.801,11.6-7.801,11.6l-0.699-7.898
	c-0.601,8.5-24.101-1.5-32.5-5.302c-1-1-2-1.5-2.9-1.398c0,0,1.1,0.5,2.9,1.398c5.399,5,12,21.802,12,21.802
	c-14.9,34.698-7.101,6.1-7.101,6.1l-3.5-6.7C350,528,345,507.9,345,507.9c-20.6,6.698-29.8,2.398-29.8,2.398L308.1,516.4l5-9.4
	c-1.1-4.6,26.601-7.3,26.601-7.3L322.1,458.2c3.5,0,7.601-0.9,11.801-3.9c0,0,2,1.102,4.899,2.3l-0.1,0.2l15.6,39.602
	C375.3,490.8,388.6,490.4,396.9,491.9z"/>
<circle fill="#FFFFFF" stroke="#000000" stroke-miterlimit="10" cx="407" cy="387" r="5"/>
<path fill="#FFFFFF" stroke="#000000" stroke-miterlimit="10" d="M390,357c3.3,0,6,2.7,6,6s-2.7,6-6,6s-6-2.7-6-6S386.7,357,390,357
	z"/>
<circle fill="#FFFFFF" stroke="#000000" stroke-miterlimit="10" cx="384.5" cy="418.5" r="7.5"/>
<circle fill="#FFFFFF" stroke="#000000" stroke-miterlimit="10" cx="382.5" cy="394.5" r="5.5"/>
<circle fill="#FFFFFF" stroke="#000000" stroke-miterlimit="10" cx="360.5" cy="428.5" r="5.5"/>
<path fill="#FFFFFF" stroke="#000000" stroke-miterlimit="10" d="M359,372c3.3,0,6,2.7,6,6s-2.7,6-6,6s-6-2.7-6-6S355.7,372,359,372
	z"/>
<circle fill="#FFFFFF" stroke="#000000" stroke-miterlimit="10" cx="350.5" cy="352.5" r="5.5"/>
<circle fill="#FFFFFF" stroke="#000000" stroke-miterlimit="10" cx="347.5" cy="398.5" r="6.5"/>
<circle fill="#FFFFFF" stroke="#000000" stroke-miterlimit="10" cx="328.5" cy="425.5" r="6.5"/>
<path fill="#FFFFFF" stroke="#000000" stroke-miterlimit="10" d="M325,355c3.9,0,7,3.1,7,7s-3.1,7-7,7s-7-3.1-7-7S321.1,355,325,355
	z"/>
<path fill="#FFFFFF" stroke="#000000" stroke-miterlimit="10" d="M317,383c3.3,0,6,2.7,6,6s-2.7,6-6,6s-6-2.7-6-6S313.7,383,317,383
	z"/>
<path fill="#FFFFFF" stroke="#000000" stroke-miterlimit="10" d="M296.2,209.4c0.3-2.8,0.6-4.4,0.6-4.4c5.3-1.7,10.7-3.4,16.2-5.2
	l0.1,0.3c0,0-5.6,33.9,10.101,43.5c-5.9,2.6-11.8,5.3-17.3,8.1C293.8,243,295.1,219.3,296.2,209.4z"/>
<path fill="#FFFFFF" stroke="#000000" stroke-miterlimit="10" d="M303,401c3.3,0,6,2.7,6,6s-2.7,6-6,6s-6-2.7-6-6S299.7,401,303,401
	z"/>
<path fill="#FFFFFF" stroke="#000000" stroke-miterlimit="10" d="M296.2,209.4c-1.1,9.9-2.4,33.7,9.7,42.3
	c-17.7,9-32.6,19.1-36.9,29l0,0c-13,6.3-15.6,11.899-16.2,14c-2.2,1-4.5,2-6.6,3.1c-30.4,15.5-14.5,19-11,19.601
	c-6.3,1.899-9.8,3-9.8,3c0.4,5.199,5,7.801,12,8.601v0.101c-8.2,2.601-37.4,12.899-8.3,19.199l-0.1,0.301c-5.2,1.5-8.9,2.801-11.5,4
	l0,0c-12.8-3.699-6.2-14.5-6.2-14.5c-15.5-6.899-4.4-26-4.4-26c-22.8-0.301-6.2-21.601-6.2-21.601c-17.2-1.3-4.1-21.7-4.1-21.7
	c-16.5-1.4-6.2-21.6-6.2-21.6c-10.8-8-5.5-17.5-4.1-19.5c5.7,1.1,11.7,1.7,16.9,0.9C226.1,225.3,258.6,221,296.2,209.4z M263,243.5
	c0-3.6-2.9-6.5-6.5-6.5s-6.5,2.9-6.5,6.5s2.9,6.5,6.5,6.5S263,247.1,263,243.5z M242,264c0-3.3-2.7-6-6-6s-6,2.7-6,6s2.7,6,6,6
	S242,267.3,242,264z M227,290.5c0-3-2.5-5.5-5.5-5.5s-5.5,2.5-5.5,5.5s2.5,5.5,5.5,5.5S227,293.5,227,290.5z M223,242
	c0-3.3-2.7-6-6-6s-6,2.7-6,6s2.7,6,6,6S223,245.3,223,242z"/>
<circle fill="#FFFFFF" stroke="#000000" stroke-miterlimit="10" cx="284" cy="373" r="5"/>
<circle fill="#FFFFFF" stroke="#000000" stroke-miterlimit="10" cx="256.5" cy="243.5" r="6.5"/>
<path id="www.ABC-color.com" fill="#FFFFFF" stroke="#000000" stroke-miterlimit="10" d="M236,258c3.3,0,6,2.7,6,6s-2.7,6-6,6
	s-6-2.7-6-6S232.7,258,236,258z"/>
<circle fill="#FFFFFF" stroke="#000000" stroke-miterlimit="10" cx="221.5" cy="290.5" r="5.5"/>
<path fill="#FFFFFF" stroke="#000000" stroke-miterlimit="10" d="M217,236c3.3,0,6,2.7,6,6s-2.7,6-6,6s-6-2.7-6-6S213.7,236,217,236
	z"/>
<path fill="#FFFFFF" stroke="#000000" stroke-miterlimit="10" d="M103.2,226.8c-0.7-1.4-35.7-76.7,14.9-20c0,0,18.4,28,43.3,23.1
	h0.4c-0.2,3.4,1,7.5,5.6,11.5c0,0-12.1,19.5,4.3,21.9c0,0-14.9,19.5,2.1,21.9c0,0-18.4,20.1,4.3,21.899c0,0-12.8,18.301,2.1,26.199
	c0,0-6.5,17.5,9.9,19.9c0.1,1.6,1.7,12.898,16.6,14.1c0,0,1.9,7.9,6.6,12.602l-2,1.1C199,371,194,366.7,194,366.7
	c-33.3-8.5-78-63.3-78-63.3S96.1,283.3,112.5,280.3c0,0-51.1-57.2-4.3-22.5C108.2,257.8,54.3,176.3,103.2,226.8z"/>
<g>
	<path d="M521,294.4c0.5,2.699,0.7,5.398,0.9,8.1c0.198,2.7,0.198,5.5,0.1,8.2c-0.2,2.7-0.5,5.399-1.2,8.1
		c-0.7,2.601-1.8,5.2-3.7,7.2c1.802-2,2.9-4.6,3.5-7.2c0.602-2.6,0.9-5.3,1-8c0.102-2.7-0.1-5.399-0.3-8.1c-0.3-2.7-0.6-5.4-1.1-8
		L521,294.4z"/>
</g>
<g>
	<path d="M519,294.3c0.5,1.4,0.5,2.8,0.3,4.101c-0.2,1.399-0.7,2.601-1.398,3.801c-1.302,2.3-3.302,4.199-5.4,5.8c2-1.7,3.8-3.7,5-6
		c0.6-1.2,0.9-2.399,1.1-3.7c0.102-1.199,0-2.6-0.5-3.6L519,294.3z"/>
</g>
<g>
	<path d="M523.5,294.5c0.1,2.4,0.4,4.9,0.8,7.3c0.2,1.2,0.5,2.4,0.9,3.5c0.2,0.601,0.5,1.101,0.8,1.601s0.8,1,1.4,1.101
		c-0.602-0.101-1.102-0.5-1.5-1c-0.4-0.5-0.7-1-0.9-1.601c-0.5-1.101-0.9-2.301-1.2-3.5c-0.6-2.399-1-4.801-1.398-7.301L523.5,294.5
		z"/>
</g>
<g>
	<path d="M542.3,293.6c1.5,1.4,2.8,2.801,4.102,4.301c1.198,1.5,2.398,3.199,3.3,4.899c0.898,1.7,1.7,3.601,1.898,5.601
		c0.2,2-0.3,4-1.6,5.601c1.2-1.601,1.6-3.601,1.3-5.5s-1.1-3.7-2-5.399c-1-1.699-2.2-3.199-3.5-4.699c-1.3-1.4-2.7-2.801-4.1-4.102
		L542.3,293.6z"/>
</g>
<g>
	<path d="M499.6,397.7c0.9-1.2,1.5-2.8,1.802-4.4c0.3-1.6,0.5-3.3,0.5-4.899c0-3.301-0.602-6.601-1.4-9.899c1,3.2,1.7,6.5,1.9,9.899
		c0.1,1.699,0,3.399-0.302,5.101c-0.3,1.7-0.698,3.3-1.8,4.9L499.6,397.7z"/>
</g>
<g>
	<path d="M549,399.9c0.7-3.2,1.3-6.5,1.9-9.801c0.5-3.301,1-6.601,1.3-9.899c0.3-3.3,0.5-6.601,0.398-9.9
		c-0.1-3.3-0.398-6.7-1.5-9.8c1.102,3.1,1.5,6.5,1.7,9.8s0.102,6.7-0.1,10s-0.601,6.601-1,9.9c-0.4,3.299-1,6.6-1.601,9.898
		L549,399.9z"/>
</g>
<g>
	<path d="M268.4,279.5c3.4-0.8,6.8-1.8,10.1-2.8c3.4-1,6.7-2.1,10-3.4c3.3-1.2,6.5-2.6,9.6-4.2c1.5-0.8,3.1-1.7,4.5-2.7
		s2.8-2.1,3.9-3.5c-1.1,1.4-2.4,2.5-3.8,3.6c-1.4,1-2.9,2-4.5,2.8c-3.1,1.7-6.3,3.1-9.6,4.5c-3.3,1.3-6.6,2.5-9.9,3.6
		c-3.3,1.1-6.7,2.1-10.1,3L268.4,279.5z"/>
</g>
<g>
	<path d="M253.5,293.5c6.5-0.4,12.9-1.1,19.3-2c3.2-0.5,6.4-1,9.6-1.8c3.1-0.8,6.3-1.601,9.1-3.2c-2.8,1.7-6,2.6-9.1,3.5
		c-3.1,0.8-6.3,1.5-9.5,2c-6.4,1.1-12.9,1.9-19.3,2.5L253.5,293.5z"/>
</g>
<g>
	<path d="M235,316.5c6.4-0.5,12.7-1.3,19.1-2.3c6.3-1,12.6-2.3,18.8-4c6.2-1.7,12.3-3.8,18-6.7c2.8-1.5,5.6-3.2,8-5.3
		c2.4-2.101,4.5-4.601,5.7-7.601c-1.1,3-3.2,5.601-5.6,7.699c-2.4,2.102-5.1,3.9-8,5.4c-5.7,3-11.8,5.199-18,7
		c-6.2,1.8-12.5,3.199-18.8,4.3c-6.3,1.101-12.7,2-19.1,2.601L235,316.5z"/>
</g>
<g>
	<path d="M237.5,328c9.6-0.4,19.2-1,28.8-2.1c4.8-0.5,9.5-1.2,14.3-2.102c2.4-0.5,4.7-1,7-1.699c1.1-0.399,2.3-0.699,3.4-1.199
		s2.2-1,3.1-1.801c-0.9,0.801-2,1.399-3.1,1.899s-2.2,0.899-3.4,1.3c-2.3,0.7-4.6,1.301-7,1.801c-4.7,1-9.5,1.801-14.3,2.399
		c-9.6,1.2-19.2,2.101-28.8,2.601V328L237.5,328z"/>
</g>
<g>
	<path d="M229.9,348c8.3-0.9,16.5-2,24.8-3.3c8.2-1.3,16.4-2.8,24.6-4.601c8.1-1.801,16.2-3.801,24.1-6.601
		c3.9-1.399,7.8-3,11.4-5.101c1.8-1,3.5-2.199,5-3.699c1.5-1.4,2.8-3.2,3.2-5.301c-0.4,2.101-1.7,3.899-3.1,5.301
		c-1.5,1.5-3.2,2.699-5,3.699c-3.601,2.101-7.5,3.801-11.4,5.199c-7.8,2.9-15.9,5-24.1,6.9c-8.1,1.9-16.3,3.4-24.6,4.8
		c-8.2,1.399-16.5,2.601-24.8,3.5L229.9,348z"/>
</g>
<g>
	<path d="M103.9,226.6c2.3,2.3,4.8,4.6,7.4,6.7c2.6,2.1,5.2,4.1,8.1,5.8c2.8,1.7,5.8,3.3,9,4c1.6,0.4,3.3,0.5,4.9,0.2
		c1.6-0.3,3.2-1.1,4.3-2.4c-1.1,1.3-2.6,2.2-4.3,2.5c-1.6,0.4-3.4,0.2-5-0.1c-3.3-0.7-6.3-2.2-9.2-3.8c-2.9-1.7-5.6-3.6-8.3-5.7
		c-2.6-2.1-5.2-4.2-7.6-6.5L103.9,226.6z"/>
</g>
<g>
	<path d="M107.8,256.1c2.8,2.1,5.7,4,8.7,5.8c3,1.8,6.1,3.4,9.4,4.7c3.2,1.3,6.6,2.3,10.1,2.6c3.4,0.3,7.1-0.2,10-2.2
		c-2.9,2.1-6.6,2.7-10.1,2.4c-3.5-0.2-7-1.2-10.3-2.4c-3.3-1.2-6.5-2.8-9.6-4.5s-6.1-3.6-8.9-5.7L107.8,256.1z"/>
</g>
<g>
	<path d="M112.4,280.2c6.4,6.7,12.9,13.2,19.8,19.399c3.4,3.101,6.9,6.101,10.6,8.899c1.8,1.399,3.7,2.7,5.7,3.899
		c1,0.601,2,1.101,3.1,1.5s2.2,0.801,3.4,0.699c-1.2,0.102-2.3-0.199-3.4-0.6s-2.1-0.9-3.1-1.5c-2-1.1-3.9-2.4-5.8-3.8
		c-3.8-2.7-7.3-5.7-10.8-8.7c-7-6.1-13.7-12.5-20.2-19.1L112.4,280.2z"/>
</g>
<g>
	<path d="M413.9,158.5c2-0.6,4-1.4,5.898-2.4c1.9-1,3.8-2.1,5.5-3.3c3.5-2.5,6.602-5.6,8.7-9.3c-2,3.8-5,7.1-8.4,9.7
		c-1.698,1.3-3.5,2.5-5.398,3.6c-1.9,1-3.9,2-6,2.7L413.9,158.5z"/>
</g>
<g>
	<path d="M405.8,178.6c2-1.1,4-2.3,5.9-3.6c1.898-1.3,3.8-2.7,5.5-4.2c3.6-2.9,6.898-6.2,9.8-9.8c-2.8,3.7-6,7.1-9.5,10.2
		c-1.7,1.5-3.6,3-5.4,4.4c-1.898,1.4-3.8,2.7-5.8,3.9L405.8,178.6z"/>
</g>
</svg>
