<?xml version="1.0" encoding="utf-8"?>
<!-- Generator: Adobe Illustrator 15.0.0, SVG Export Plug-In . SVG Version: 6.00 Build 0)  -->
<!DOCTYPE svg PUBLIC "-//W3C//DTD SVG 1.1//EN" "http://www.w3.org/Graphics/SVG/1.1/DTD/svg11.dtd">
<svg version="1.1" id="layer_x5F_www.ABC-color.com"
	 xmlns="http://www.w3.org/2000/svg" xmlns:xlink="http://www.w3.org/1999/xlink" x="0px" y="0px" width="822px" height="567px"
	 viewBox="0 0 822 567" enable-background="new 0 0 822 567" xml:space="preserve">
<path id="ABC-color.com" fill="#FFFFFF" stroke="#000000" stroke-miterlimit="10" d="M435.5,449.4C453,450.1,464,437.7,468.4,431.6
	h1.3c6.8,7.4-0.9,14-0.9,14L433,498.4c7.5,1.8,12.5,9.898,15.4,16.8c2.398,5.6,3.398,10.398,3.398,10.398
	c-20.5-9.1-7.7-16.5-38.398-2.5c-17.4,8-64.801,15-79.4,18.2c-5.3,1.2-9.4,5.8-9.4,5.8c-5.1-14,41.801-27.3,41.801-27.3l-51.2,0.8
	l-8.5,4.102c-1.7-15.7,64-19.8,64-19.8c-16.7-1.7-33.101-6.302-40.101-5.802c-23,1.7-7.699-2.5-7.699-2.5
	c4.3-3.3,87.899-2.5,87.899-2.5l24.7-44.6V449.4L435.5,449.4z"/>
<path fill="#FFFFFF" stroke="#000000" stroke-miterlimit="10" d="M466.2,526.6c0,0-11.9-12.398-17.102-11.6l-0.8,0.3
	c-2.898-6.898-7.898-15-15.398-16.8l35.8-52.8c0,0,7.7-6.602,0.898-14h-1.3c1.4-2,2.102-3.3,2.102-3.3c8.198,0,14.5-1.102,19.5-3
	l0.198,0.5l-37.5,73.5C452.5,499.4,471.3,517.5,466.2,526.6z"/>
<path fill="#FFFFFF" stroke="#000000" stroke-miterlimit="10" d="M506.3,401.1c0,0,2.7,17.2-16.398,24.302
	c-4.9,1.898-11.302,3-19.5,3c0,0,2.6-15.7-9.4-26.4c0,0,28,5.8,49.1-3.1l0.2,0.5C509.1,399.9,507.7,400.5,506.3,401.1z"/>
<path id="www.ABC-color.com" fill="#FFFFFF" stroke="#000000" stroke-miterlimit="10" d="M425.1,323c0.9,0.2,5.4,1.5,12,3
	C433.4,324.8,429.4,323.7,425.1,323z M478.9,259c58.6,11,64.898,30,64.898,30c-4.898,13.1-79-7.2-87.898-9.7
	C538.5,305.1,518,314,518,314c-9,5.8-77.3-15.6-81.3-16.9C511.9,324,502.6,335,502.6,335c-4.6,5.2-44.6-3.8-65.198-8.9
	C457.8,332.9,469.6,345,469.6,345c-39,10.7-71,2.2-95.898-12.9l3.1-1.199c24.7,5.801,33.3-14.899,33.3-14.899
	c21.301-3.3,13.7-28.101,13.7-28.101c16.2-1.699,18.8-20.601,18.8-20.601c12.802-8.3,6.802-19,6.802-19
	c14.5-10.7,3.398-23.1,3.398-23.1l0.4-2.1c119.6,23.1,102.1,38,102.1,38C562.1,269.7,483.5,259.6,478.9,259z"/>
<path fill="#FFFFFF" stroke="#000000" stroke-miterlimit="10" d="M453,223.1l-0.4,2.1c0,0,11.102,12.4-3.398,23.1c0,0,6,10.7-6.8,19
	c0,0-2.602,19-18.802,20.601c0,0,7.7,24.801-13.699,28.101c0,0-8.5,20.601-33.301,14.899l-3.1,1.199c-44-26.699-66.3-74-66.3-74.1
	c-7.2-52.9,47.5-51,47.5-51C395,212.7,427.2,218.1,453,223.1z"/>
<path fill="#FFFFFF" stroke="#000000" stroke-miterlimit="10" d="M192.2,159.2l-6.8,18.1l-52,11.5c1.5-0.7,25.9-12.4,36.6-14.8
	C180.8,171.6,191.6,159.9,192.2,159.2z"/>
<path fill="#FFFFFF" stroke="#000000" stroke-miterlimit="10" d="M192.3,159.1L192.3,159.1c-0.7,0.8-11.4,12.5-22.2,14.9
	c-10.8,2.4-35.1,14.1-36.6,14.8h-0.1L153,169l-0.1-0.4L192.3,159.1z"/>
<path fill="#FFFFFF" stroke="#000000" stroke-miterlimit="10" d="M151.6,150.3c-3,2.1-6.4,2.7-7.5,1.2s0.4-4.4,3.5-6.6
	c3-2.1,6.4-2.7,7.5-1.2C156.2,145.1,154.6,148.1,151.6,150.3z"/>
<path fill="#FFFFFF" stroke="#000000" stroke-miterlimit="10" d="M155.1,143.7c-1.1-1.5-4.5-0.9-7.5,1.2c-3,2.2-4.6,5.1-3.5,6.6
	s4.5,0.9,7.5-1.2C154.6,148.1,156.2,145.1,155.1,143.7z M167.5,117.8c-1.7,7.4,24.7,41.3,24.7,41.3l-39.4,9.5l-39.2,9.5
	c0,0,49.8-60.8,53.6-60.8C167.4,117.7,167.5,117.8,167.5,117.8z"/>
<path fill="#FFFFFF" stroke="#000000" stroke-miterlimit="10" d="M225.5,25.4c0,0,0.9-19.8,8.5,5C221.2,50.8,189.5,55,189.5,55
	s-14.3-26.4,6.2-13.1c0,0-6.8-17.3,6-6.6c0,0-6-21.5,10.2-6.6C211.9,28.7,208.5,9.7,225.5,25.4z"/>
<path fill="#FFFFFF" stroke="#000000" stroke-miterlimit="10" d="M227.7,133.5c2.6,0,4.7-2.6,4.7-5.8c0-3.2-2.1-5.8-4.7-5.8
	c-2.6,0-4.7,2.6-4.7,5.8C223,131,225.1,133.5,227.7,133.5z M239.2,126.1c0,8.9-5,16.1-11.1,16.1S217,135,217,126.1s5-16.1,11.1-16.1
	S239.2,117.2,239.2,126.1z"/>
<path fill="#FFFFFF" stroke="#000000" stroke-miterlimit="10" d="M227.7,122c2.6,0,4.7,2.6,4.7,5.8c0,3.2-2.1,5.8-4.7,5.8
	c-2.6,0-4.7-2.6-4.7-5.8C223,124.6,225.1,122,227.7,122z"/>
<path fill="#FFFFFF" stroke="#000000" stroke-miterlimit="10" d="M248.6,117.8c0,14.1-8,25.6-17.9,25.6c-9.9,0-17.9-11.5-17.9-25.6
	c0-14.1,8-25.6,17.9-25.6C240.6,92.2,248.6,103.7,248.6,117.8z M228.1,142.2c6.1,0,11.1-7.2,11.1-16.1s-5-16.1-11.1-16.1
	s-11.1,7.2-11.1,16.1S222,142.2,228.1,142.2z"/>
<path fill="#FFFFFF" stroke="#000000" stroke-miterlimit="10" d="M551.6,317.7c2.5,2.2,5.602,3.8,9,5C556,320,552.2,318,551.6,317.7
	z M568.1,291.3c3.4,0.4,30.102,3.9,38.9,13.2c0,0-17,6.6-44.2-3.3c2.5,1.1,43,19.1,31.4,23.1c0,0-19.3,3.2-33.602-1.6
	c9.2,5.399,21.802,13.8,19,18.1c0,0-23.898,6.601-41-4.1c0,0,30.2,36.3-28.3,62.6l-0.2-0.5c-21.1,9-49.1,3.102-49.1,3.102
	c11.9,10.698,9.4,26.398,9.4,26.398s-0.7,1.3-2.102,3.3C464,437.7,453,450.1,435.4,449.4c-12.2-0.5-27.602-7.302-46.102-26.9
	c0,0-104.4-17.9-138.2-118.1c-6.6-19.602-12.6-47.4,2.6-73.5c18.8-32.2-3.4-4.1-3.4-4.1s-64,0-64.9-49.5l6.8-18.1l0,0
	c0,0-26.5-33.9-24.7-41.3c0.1-0.4,0-0.6-0.2-0.6c-1.4-4.5-9.7-36.1,22.2-62.3c0,0,31.7-4.2,44.6-24.7c2.9-4.6,10.1-4.3,16.2-5.8
	c0,0,98.101-30.6,134.8,85.9c3,9.5,6,42.1-18.8,60.3c0,0,74.2-4.1,124.602,23.9c0,0,15.398,11.6,41,17.3c0,0,130.198,21.4,160.3,2.6
	c-2.5,1.7-43.8,28.9-81.8,32.1l46.898-1.7c0,0-11.1,13.2-65.7,15.7l48.602,4.1c0,0-11.102,11.6-61.4,9.9c0,0,51.2,4.1,47.8,6.6
	C626.6,281.4,611.4,296.1,568.1,291.3z M478.9,259c4.6,0.6,83.198,10.7,76.198,2c0,0,17.5-14.9-102.1-38c-25.8-5-58-10.3-98.2-16
	c0,0-54.7-2-47.5,51c0,0,22.3,47.4,66.3,74.1c24.9,15.102,56.9,23.602,95.9,12.9c0,0-11.8-12.1-32.2-18.9
	c20.602,5.102,60.7,14,65.2,8.9c0,0,9.3-11-65.9-37.9C440.7,298.4,508.9,319.8,517.9,314c0,0,20.5-8.9-62.102-34.7
	c8.9,2.5,83.102,22.9,87.9,9.7C543.8,289,537.5,270,478.9,259z M230.7,143.4c9.9,0,17.9-11.5,17.9-25.6c0-14.1-8-25.6-17.9-25.6
	c-9.9,0-17.9,11.5-17.9,25.6C212.7,132,220.8,143.4,230.7,143.4z"/>
</svg>
