<?xml version="1.0" encoding="utf-8"?>
<!-- Generator: Adobe Illustrator 15.0.0, SVG Export Plug-In . SVG Version: 6.00 Build 0)  -->
<!DOCTYPE svg PUBLIC "-//W3C//DTD SVG 1.1//EN" "http://www.w3.org/Graphics/SVG/1.1/DTD/svg11.dtd">
<svg version="1.1" id="Layer_1" xmlns="http://www.w3.org/2000/svg" xmlns:xlink="http://www.w3.org/1999/xlink" x="0px" y="0px"
	 width="822px" height="567px" viewBox="0 0 822 567" enable-background="new 0 0 822 567" xml:space="preserve">
<g id="COLORING">
	<path fill="#FFFFFF" stroke="#000000" stroke-miterlimit="10" d="M721.7,278c6.6-7.4,10.3-15.8,10.3-24.6
		c0-29.9-42.3-54.1-94.4-54.1c-3.199,0-6.3,0.1-9.399,0.3c-15.3-18.1-47.601-30.6-85-30.6c-10.601,0-20.8,1-30.3,2.9
		c0.1-1,0.1-1.9,0.1-2.9c0-29.9-42.3-54.1-94.4-54.1c-52.1,0-94.399,24.2-94.399,54.1c0,1.6,0.1,3.1,0.399,4.6
		c-11.699-3-24.6-4.6-38.1-4.6c-52.1,0-94.4,24.2-94.4,54.1c0,0.1,0,0.2,0,0.3c-3.1-0.2-6.3-0.3-9.5-0.3
		c-52.1,0-94.4,24.2-94.4,54.1c0,0.5,0,0.9,0.1,1.3C50.3,284,22,305.6,22,331.4c0,29.899,38,54.1,85,54.1h598.6
		c52.101,0,94.4-24.2,94.4-54.1C800,304.6,766.2,282.4,721.7,278z"/>
</g>
</svg>
