<?xml version="1.0" encoding="utf-8"?>
<!-- Generator: Adobe Illustrator 15.0.0, SVG Export Plug-In . SVG Version: 6.00 Build 0)  -->
<!DOCTYPE svg PUBLIC "-//W3C//DTD SVG 1.1//EN" "http://www.w3.org/Graphics/SVG/1.1/DTD/svg11.dtd">
<svg version="1.1" id="Layer_1" xmlns="http://www.w3.org/2000/svg" xmlns:xlink="http://www.w3.org/1999/xlink" x="0px" y="0px"
	 width="822px" height="567px" viewBox="0 0 822 567" enable-background="new 0 0 822 567" xml:space="preserve">
<title>Cloud coloring</title>
<desc>Vector coloring cloud. Author Lobaz Roman. Site www.abc-color.com</desc>
<path fill="#FFFFFF" stroke="#000000" d="M650.2,222.3c-6.601,3.8-16.3,15.4-16.4,16.3c0-0.9,6.9-11.3,15.3-16.3
	c-14.199-34.9-59.8-82.8-137.5-56c-4.8,5.8-16.399,12.2-19.699,12.9c3.1-0.8,13.399-7,18.1-12.4c-12.5-108.8-191.4-117.2-214.6-3
	c1.2,3.4,4.8,13.7,14.7,20.4c-9.1-5-13.899-14.9-15.7-19c-61.6-13.4-115.1,20.5-130.7,53.4c5.2,3.7,19.3,16.2,23.1,27.3
	c-6.2-12.1-21.3-25.8-24.8-27.6h-0.1c-0.1,0-0.2-0.1-0.2-0.1l0,0C27.7,151.1-60,383.4,118,387.7c13.2-1.601,28.5-11.8,29.9-13.9
	c-1.3,2.101-15.7,12.7-28.6,14.5c16.6,32.2,88.2,93,169.1,34.5c6-5.7,7.3-16.6,6.6-19.6c0.8,3,0.9,13.2-5.2,19.5
	C362.9,527.4,462.6,459,482.4,433.1c-7-8.5-5.5-18.699-4.7-20.3c-0.8,1.601-1.3,12.3,5.6,20.2c85,45.6,158.8-13.8,169.2-53.8
	c-2.2-1.7-5.1-4.3-6.7-8.101c1.8,2.7,4.8,5.801,7.601,7.9C834.4,417.9,818,174.4,650.2,222.3z"/>
</svg>
