<?xml version="1.0" encoding="utf-8"?>
<!-- Generator: Adobe Illustrator 15.0.0, SVG Export Plug-In . SVG Version: 6.00 Build 0)  -->
<!DOCTYPE svg PUBLIC "-//W3C//DTD SVG 1.1//EN" "http://www.w3.org/Graphics/SVG/1.1/DTD/svg11.dtd">
<svg version="1.1" id="Layer_1" xmlns="http://www.w3.org/2000/svg" xmlns:xlink="http://www.w3.org/1999/xlink" x="0px" y="0px"
	 width="822px" height="567px" viewBox="0 0 822 567" enable-background="new 0 0 822 567" xml:space="preserve">
<title>Coloring cloud</title>
<desc>Vector coloring cloud</desc>
<path fill="#FFFFFF" stroke="#000000" d="M677.7,348.6c0-37.3-18.4-70.6-46.8-91.3C611.1,153.3,519.8,75,410,75
	c-63.9,0-121.5,26.5-162.4,69.3c-38.7-5.4-82.4,18.5-107.1,61.7c-31,54-21.1,117.4,21.6,142.6l0,0
	c-7.2,10.801-11.3,23.4-11.3,37.301c0,37.399,30.1,67.5,67.5,67.5c8.1,0,16.2-1.301,23.4-4.101C283.1,495.8,342.9,525,410,525
	c61.2,0,116.6-24.3,157.1-63.9C628.7,460.2,677.7,410.3,677.7,348.6z"/>
</svg>
