<?xml version="1.0" encoding="utf-8"?>
<!-- Generator: Adobe Illustrator 15.0.0, SVG Export Plug-In . SVG Version: 6.00 Build 0)  -->
<!DOCTYPE svg PUBLIC "-//W3C//DTD SVG 1.1//EN" "http://www.w3.org/Graphics/SVG/1.1/DTD/svg11.dtd">
<svg version="1.1" id="Layer_1" xmlns="http://www.w3.org/2000/svg" xmlns:xlink="http://www.w3.org/1999/xlink" x="0px" y="0px"
	 width="822px" height="567px" viewBox="0 0 822 567" enable-background="new 0 0 822 567" xml:space="preserve">
<path fill="#FFFFFF" stroke="#000000" stroke-miterlimit="10" d="M779.9,403.9C777.8,363.4,744.3,331.1,703.3,331.1h-14.2
	c4.801-8,7.601-17.1,7.601-26.6c0-33.9-34.3-61.4-76.7-61.4c-11.6,0-22.5,2.1-32.4,5.7C578.7,169.5,480.1,107.1,359.7,107.1
	c-126.2,0-228.6,68.7-228.6,153.4c0,7.2,0.8,14.4,2.2,21.3c-23.6,9-40.5,27.5-43.2,49.2h-0.4C47.3,331,13,365.3,13,407.7
	c0,42.399,34.3,76.7,76.7,76.7h613.6c41,0,74.5-32.2,76.601-72.801c0.1-1.3,0.1-2.6,0.1-3.899C780,406.5,780,405.2,779.9,403.9z"/>
</svg>
