<?xml version="1.0" encoding="utf-8"?>
<!-- Generator: Adobe Illustrator 15.0.0, SVG Export Plug-In . SVG Version: 6.00 Build 0)  -->
<!DOCTYPE svg PUBLIC "-//W3C//DTD SVG 1.1//EN" "http://www.w3.org/Graphics/SVG/1.1/DTD/svg11.dtd">
<svg version="1.1" id="Layer_1" xmlns="http://www.w3.org/2000/svg" xmlns:xlink="http://www.w3.org/1999/xlink" x="0px" y="0px"
	 width="822px" height="567px" viewBox="0 0 822 567" enable-background="new 0 0 822 567" xml:space="preserve">
<title>Eddy coloring</title>
<desc>Vector coloring eddy. Author Lobaz Roman. Site www.abc-color.com</desc>
<g>
	<path stroke="#000000" stroke-linejoin="round" d="M556.1,156.7c10.7,3.4,20.602,2,22.2-3.1c1.602-5.1-5.7-12-16.398-15.4
		c-10.7-3.4-20.602-2-22.302,3.1C538.1,146.4,545.4,153.3,556.1,156.7z"/>
	<path stroke="#000000" stroke-linejoin="round" d="M733.883,308.45c-0.1,0-23.1-0.4-21.399-0.601
		c2.101-0.301,21.301,0.717,21.601,0.316c6.8-10.2-17.9-22.316-37.101-27.017c-12.199-3-30.699-2.9-29.699-3
		c2.3,0,17.1,0.2,29.5,2.6c2.398,0.5,11.782-31.243-64.4-40.6c-24.966-3.066-31.784,10.093-31.216,8.85
		c1.417-3.1,8.167-10.343,27.584-9.5c7.775,0.338-23.558-21.563-62.668-20.95c-28.666,0.45-29.972,15.279-30.2,15
		c-0.18-0.219,0.222-14.212,30.2-15.9c8.584-0.483-18.75-42.85-94.313-29.042c-15.988,2.922-7.848,21.138-7.021,23.809
		c0.668,2.159-10.437-20.956,6.917-24.021c2.201-0.389-0.241-7.023-2.567-6.864c-15.266,1.042-19.702,11.584-20.017,14.519
		c-0.216,2.023-0.083-12.425,20.017-14.75c0.198-0.023,16.621-5.681,13.173-7.633c-11.333-6.414-22.438,0.232-23.288,0.283
		c-0.274,0.017,12.204-6.763,23.198-0.5c4.445,2.532,57.252-11.36,51-35.7c-3.3-11.4-24.398-15.4-47.1-8.8
		c-10.4,3-29.321,11.361-26.499,13.508C474.1,153.5,447.37,162.573,447.6,162.313c0.275-0.313,26.589-9.094,11.685-19.862
		c-2.298-1.66-13.602-2.4-21.3-2.4c-10.5,0-21.2,1.4-30.9,5.5c-6.3,2.7-21.3,7.8-16.9,14c1.764,2.484,18.748,3.442,27.687,3.609
		c-8.364-0.063-24.103-0.571-27.886-3.41c-5.101-3.8-67.2,16.5-48.9,39.6c14.3,17.9,41.396,6.428,45.1,5.1
		c2.594-0.929-30.026,14.8-45.199-5c-5-6.1-97.4-3.1-84.4,38.4c0.453,1.359,17.082,5.182,36.717-1.032
		c-8.141,2.589-23.045,5.942-36.917,1.632c-29.7-9.2-120.883,16.85-68.683,53.25c1,0.7,32.175,3.081,51.083-9.15
		c0.5-0.3-15.6,12.4-51.2,9.4c-49.9-4-92.7,14.5-80.2,28.5c1.4,1.5,18,3.5,48.2-4c1.9-0.5-31.7,8.899-48.4,4.399
		c-1.9-0.5-72.5,1.301-72.5,14.899c0,12.601,94.967,27.071,131.067,3.771c0.4-0.199-2.521-8.146-8.667-12.371
		c-0.1-0.101,6.3,4,8.8,12.101c0.6,2,41.3-2.101,43-4c0,0,3.1-3.2-0.1-8.399c-0.2-0.399,3.3,3.801,0.4,8.601
		c-12.1,19.8,494,15,493,5.2c0-0.301,1-6.801-6.198-11.5c-0.102-0.102,6.698,3.398,6.5,11.398c-0.102,2.5,88.3,3.2,88.3-15.5
		C790.783,316.75,773.683,311.05,733.883,308.45z M422.683,163.15C423.333,163.136,423.265,163.142,422.683,163.15L422.683,163.15z
		 M299.442,234.566c-0.33,0.142-2.592,1.122-6.129,2.247C295.329,236.175,297.377,235.43,299.442,234.566z M498.281,264.219
		c-48.448-70.211-111.406-10.594-111.406-10.594c-68.6-6.4-94.275,52.875-94.275,52.875s25.55-59.503,94.15-53.103
		c0,0,63.25-59.647,111.57,10.603c0,0,93.58-29,115.38,48C591.501,235.252,498.281,264.219,498.281,264.219z"/>
</g>
</svg>
