<?xml version="1.0" encoding="utf-8"?>
<!-- Generator: Adobe Illustrator 15.0.0, SVG Export Plug-In . SVG Version: 6.00 Build 0)  -->
<!DOCTYPE svg PUBLIC "-//W3C//DTD SVG 1.1//EN" "http://www.w3.org/Graphics/SVG/1.1/DTD/svg11.dtd">
<svg version="1.1" id="Layer_1" xmlns="http://www.w3.org/2000/svg" xmlns:xlink="http://www.w3.org/1999/xlink" x="0px" y="0px"
	 width="822px" height="567px" viewBox="0 0 822 567" enable-background="new 0 0 822 567" xml:space="preserve">
<path fill="#FFFFFF" stroke="#000000" stroke-miterlimit="10" d="M741.3,413.3c-5.899,0-11.6,0.5-17,1.4
	c10.9-9.7,17.8-22.3,18.601-36.5c1.899-33-30-61.8-71.301-64.2c-13.199-0.8-25.8,1.3-36.8,5.4c-6.3-23.801-30.2-42.5-60.399-46.7
	c2.5-5.9,3.8-12.3,3.8-18.9c0-33.1-33.5-59.9-74.9-59.9c-0.5,0-1,0-1.5,0c-29.3-21.1-68.6-34-111.899-34
	c-32.9,0-63.601,7.5-89.3,20.4c-5.5-8.9-16.1-14.9-28.3-14.9c-17.8,0-32.2,12.7-32.2,28.5c0,9.3,5.1,17.6,13,22.8
	c-17.2,20-27.2,44-27.2,69.899c0,2.301,0.1,4.5,0.2,6.7c-0.1,0-0.2,0-0.2,0c-19.2,0-36.7,5.8-50,15.3
	C165,302.4,152.4,298.9,139,298.9c-41.4,0-74.9,33.5-74.9,74.899c0,7.7,1.2,15.101,3.3,22.101c-27.2,7-46.8,26.699-46.8,50
	c0,29.1,30.6,52.699,68.3,52.699h546.7c21,0,39.9-7.3,52.4-18.899c12,10.5,31.4,17.399,53.4,17.399c36.399,0,65.899-18.8,65.899-42
	C807.3,431.9,777.8,413.3,741.3,413.3z"/>
</svg>
