<?xml version="1.0" encoding="utf-8"?>
<!-- Generator: Adobe Illustrator 15.0.0, SVG Export Plug-In . SVG Version: 6.00 Build 0)  -->
<!DOCTYPE svg PUBLIC "-//W3C//DTD SVG 1.1//EN" "http://www.w3.org/Graphics/SVG/1.1/DTD/svg11.dtd">
<svg version="1.1" id="Layer_1" xmlns="http://www.w3.org/2000/svg" xmlns:xlink="http://www.w3.org/1999/xlink" x="0px" y="0px"
	 width="822px" height="567px" viewBox="0 0 822 567" enable-background="new 0 0 822 567" xml:space="preserve">
<polyline fill="#FFFFFF" points="0,0 822,0 822,567 "/>
<path fill="#FFFFFF" stroke="#000000" stroke-miterlimit="10" d="M784.6,246.3c6.7,1.9,29.7-4.8,29.7-4.8
	c-21.3,36.2-64.2,34.2-82.399,23c-11-6.8-31.601-16.3-31.601-16.3c-1.3,0-3.1,0-4.899,0c-3.301,0-6.601,0-6.601,0
	c0.3-24.6,32.601-36.4,32.601-36.4c16.3,5.7,47.899,29.6,47.899,29.6C775,248.2,784.6,246.3,784.6,246.3z"/>
<path fill="#FFFFFF" stroke="#000000" stroke-miterlimit="10" d="M721.3,211.8c0,0-29.7-5.8-48.8,7.7c0,0-13.4-35.4,16.3-62.3
	c0,0-0.2,23,6.601,31.1C695.4,188.3,718.5,199.3,721.3,211.8z"/>
<path fill="#FFFFFF" stroke="#000000" stroke-miterlimit="10" d="M672.5,219.4c19.2-13.4,48.8-7.7,48.8-7.7s-32.3,11.8-32.6,36.4
	c0,0,3.3,0,6.6,0c-86.3,51.7-157.7,67.2-213.5,77.6c-159.5,29.6-257.7-19.2-257.7-19.2c-15.3-7.7-20.5,0-20.5,0
	c-3.7-5.7-10.4-12.8-22.6-18.2c0,0-26.7-10.7-44.1-9.6c-14.4-9.6-25.6-17.7-29.7-26.8c-6.4-14.1,0-49.4,0-49.4
	c-4.8-24.6-13.8-33.8-23.6-36.7l33.2,2c56.7-10.8,99.5-10.8,99.5-10.8c26.2-3.3,61.7,3.8,95.601,13.9
	c55.3,16.4,106.5,40.7,106.5,40.7c50.8,41.2,116.899,44.1,116.899,44.1C616.9,269.2,672.5,219.4,672.5,219.4z"/>
<path fill="#FFFFFF" stroke="#000000" stroke-miterlimit="10" d="M695.4,248.2c1.8,0,3.5,0,4.899,0
	C651.4,309.5,562.4,337.3,562.4,337.3c-129.301,45-354,0-354,0l-0.4-21.1c0,0-0.7-4.101-4.2-9.601c0,0,5.2-7.699,20.5,0
	c0,0,98.2,48.801,257.7,19.2C537.7,315.4,609.1,299.9,695.4,248.2z"/>
<path fill="#FFFFFF" stroke="#000000" stroke-miterlimit="10" d="M435.9,143.8c0,0-1.9-0.7-20.101,10.7c0,0-32.6,18.1,2.9,57.3
	c0,0-51.2-24.3-106.5-40.7c0,0,55.1-27.3,63.1-27.3C375.3,143.8,417.7,130.4,435.9,143.8z"/>
<path fill="#FFFFFF" stroke="#000000" stroke-miterlimit="10" d="M208.9,361.2c2.9,32.6,33.5,68,33.5,68
	c-28.9-5.8-66.4-71.4-88-114.101C143.8,294.2,137,278.8,137,278.8c17.4-1.1,44.1,9.601,44.1,9.601c12.2,5.399,18.9,12.5,22.6,18.199
	c3.5,5.5,4.2,9.601,4.2,9.601l0.4,21.1L208.9,361.2z"/>
<path fill="#FFFFFF" stroke="#000000" stroke-miterlimit="10" d="M83.8,165.9c9.8,2.9,18.8,12.1,23.6,36.7c0,0-6.4,35.3,0,49.4
	c4.1,9.1,15.3,17.2,29.7,26.8c0,0,6.8,15.4,17.4,36.3c-36.4-12.5-120-62.1-120-62.1c-12.4,0-26.8-12.7-26.8-12.7s-0.4-1.7,0-3.8
	c0.5-2.2-3-28.1,6.7-46.8c0,0,7.9-17.5,41.2-22C63.4,166.6,74,163,83.8,165.9z M81.9,219.3c4.4-1.1,7.5-3.6,7-5.7s-4.5-2.8-8.8-1.8
	c-4.4,1.1-7.5,3.6-7,5.7S77.6,220.4,81.9,219.3z"/>
<path fill="#FFFFFF" stroke="#000000" stroke-miterlimit="10" d="M88.9,213.6c0.5,2.1-2.6,4.6-7,5.7c-4.4,1.1-8.3,0.3-8.8-1.7
	s2.6-4.6,7-5.7S88.4,211.6,88.9,213.6z"/>
<g>
	<path fill="#201600" d="M61.4,224.2c-2.6,0.1-5.1,0.2-7.7,0.3l0.2-0.1c-3.2,2.6-6.7,4.7-10.4,6.6c-3.7,1.8-7.5,3.4-11.4,4.5
		c-3.9,1.2-8,2.1-12,2.6c-4.1,0.5-8.2,0.7-12.3,0.5c4.1-0.2,8.1-0.6,12.2-1.2c4-0.7,8-1.6,11.9-2.8c3.9-1.2,7.7-2.6,11.3-4.4
		c3.6-1.8,7.2-3.7,10.5-6.1l0.1-0.1h0.1C56.3,224,58.8,224.1,61.4,224.2z"/>
</g>
<g>
	<path fill="#999999" d="M7.7,236.5c3.9-0.3,7.9-0.9,11.8-1.6c3.9-0.7,7.8-1.6,11.7-2.6c7.7-2,15.3-4.7,22.5-8.1
		c-7.2,3.6-14.7,6.4-22.4,8.6c-3.8,1.1-7.7,2.1-11.7,2.8c-3.9,0.8-7.9,1.4-11.9,1.8V236.5z"/>
</g>
<g>
	<path fill="#999999" d="M7.8,239.8c4.1,0.6,8.4,0.6,12.5,0.2c4.2-0.4,8.3-1.1,12.3-2.4c4-1.2,7.9-3,11.4-5.2c3.6-2.2,6.8-5,9.6-8.2
		c-2.7,3.2-5.9,6-9.5,8.4c-3.5,2.3-7.4,4.2-11.4,5.5c-4,1.3-8.2,2.2-12.4,2.6c-4.2,0.4-8.5,0.5-12.7,0L7.8,239.8z"/>
</g>
<path fill="none" stroke="#E6E6E6" stroke-width="2" stroke-miterlimit="10" d="M125,196c0,0,4.9-6,29.5,0"/>
<path fill="none" stroke="#E6E6E6" stroke-width="2" stroke-miterlimit="10" d="M130,215.6c0,0,36-17.6,43-12.6"/>
<path fill="none" stroke="#E6E6E6" stroke-width="2" stroke-miterlimit="10" d="M139.7,241.7C164,236,176,228.4,185,224.2"/>
<path fill="none" stroke="#E6E6E6" stroke-width="2" stroke-miterlimit="10" d="M185,188.3c25,4.7,36,0.9,48,13.8"/>
<path fill="none" stroke="#E6E6E6" stroke-width="2" stroke-miterlimit="10" d="M139.7,230.6c0,0,11.3-18.4,33.3-15"/>
<path fill="none" stroke="#E6E6E6" stroke-width="2" stroke-miterlimit="10" d="M173,182c0,0,16-15.4,39-7.2"/>
<path fill="none" stroke="#E6E6E6" stroke-width="2" stroke-miterlimit="10" d="M173,258.1c0,0,66-35.8,93-10"/>
<path fill="none" stroke="#E6E6E6" stroke-width="2" stroke-miterlimit="10" d="M177,208.9c0,0,21-0.6,20-6.7"/>
<path fill="none" stroke="#E6E6E6" stroke-width="2" stroke-miterlimit="10" d="M162.3,193.3c6.7-1.3,22.7,8.8,22.7,8.8"/>
<path fill="none" stroke="#E6E6E6" stroke-width="2" stroke-miterlimit="10" d="M146,265c0,0,9-12.7,23-16.8"/>
<path fill="none" stroke="#E6E6E6" stroke-width="2" stroke-miterlimit="10" d="M117,230.6c0,0,5.6,28.1,22.7,26"/>
<path fill="none" stroke="#E6E6E6" stroke-width="2" stroke-miterlimit="10" d="M117,202.1c-2-7.1,4-28.7,19-24.9"/>
<path fill="none" stroke="#E6E6E6" stroke-width="2" stroke-miterlimit="10" d="M116.6,215.2c0,0,10.5,25.7,19.4,25.5"/>
<path fill="none" stroke="#E6E6E6" stroke-width="2" stroke-miterlimit="10" d="M192.5,230.6c0,0,22.5-25.4,35.5-15"/>
<path fill="none" stroke="#E6E6E6" stroke-width="2" stroke-miterlimit="10" d="M233,182c1,2,28,4.4,33-4.8"/>
<path fill="none" stroke="#E6E6E6" stroke-width="2" stroke-miterlimit="10" d="M219.5,180.5c0,0,23.1-18.5,30-8.1"/>
<path fill="none" stroke="#E6E6E6" stroke-width="2" stroke-miterlimit="10" d="M157.5,183.8c0,0,5.8-21.3,15.5-14.6"/>
<path fill="none" stroke="#E6E6E6" stroke-width="2" stroke-miterlimit="10" d="M177,240.3c0,0,21,0,32-9.6"/>
<path fill="none" stroke="#E6E6E6" stroke-width="2" stroke-miterlimit="10" d="M165.3,265c4.8-1,22.8,21.4,46.8,12.7"/>
<path fill="none" stroke="#E6E6E6" stroke-width="2" stroke-miterlimit="10" d="M203.7,265c2.3-2,37.3-14,45.8,0"/>
<path fill="none" stroke="#E6E6E6" stroke-width="2" stroke-miterlimit="10" d="M256,227.9c0,0-18-11.2-21.5,0"/>
<path fill="none" stroke="#E6E6E6" stroke-width="2" stroke-miterlimit="10" d="M242.4,208.9c0,0,20.6-1.5,23.6-11.2"/>
<path fill="none" stroke="#E6E6E6" stroke-width="2" stroke-miterlimit="10" d="M234.5,194.7c0,0,17.9,3.6,19.7,7.4"/>
<path fill="none" stroke="#E6E6E6" stroke-width="2" stroke-miterlimit="10" d="M208.4,203.3c0,0-2.3,12.1-11.3,11.9"/>
<path fill="none" stroke="#E6E6E6" stroke-width="2" stroke-miterlimit="10" d="M219.5,233c0,0,7-12.4,13.5-11.1"/>
<path fill="none" stroke="#E6E6E6" stroke-width="2" stroke-miterlimit="10" d="M256,215.6c0,0,28,2.9,35-12.3"/>
<path fill="none" stroke="#E6E6E6" stroke-width="2" stroke-miterlimit="10" d="M273.5,197.7c0,0,23.5-23.1,32.5-9.4"/>
<path fill="none" stroke="#E6E6E6" stroke-width="2" stroke-miterlimit="10" d="M273.5,184c0,0,5.8,1.6,9.5-9.1"/>
<path fill="none" stroke="#E6E6E6" stroke-width="2" stroke-miterlimit="10" d="M256,172.4c0,0,10.2-7.3,17.5,0"/>
<path fill="none" stroke="#E6E6E6" stroke-width="2" stroke-miterlimit="10" d="M208.4,182c0,0,20.6-3.7,14.6-24.8"/>
<path fill="none" stroke="#E6E6E6" stroke-width="2" stroke-miterlimit="10" d="M203.7,291.7c0,0,30.1-9.7,38.7-3.7"/>
<line fill="none" stroke="#E6E6E6" stroke-width="2" stroke-miterlimit="10" x1="233" y1="272.3" x2="216.2" y2="265"/>
<path fill="none" stroke="#E6E6E6" stroke-width="2" stroke-miterlimit="10" d="M192.5,268.7c0,0-6.1-7.5,11.2-12.1"/>
<path fill="none" stroke="#E6E6E6" stroke-width="2" stroke-miterlimit="10" d="M157.5,272.3c0,0-8.6,6.5-21.5-9.7"/>
<path fill="none" stroke="#E6E6E6" stroke-width="2" stroke-miterlimit="10" d="M146.8,248.5c0,0,14.3-11.1,22.3-9.7"/>
<path fill="none" stroke="#E6E6E6" stroke-width="2" stroke-miterlimit="10" d="M234.5,302.7c0,0,24.5,2.7,31.5-11"/>
<path fill="none" stroke="#E6E6E6" stroke-width="2" stroke-miterlimit="10" d="M244.4,297c0,0,19.1-0.5,20.4-24.7"/>
<path fill="none" stroke="#E6E6E6" stroke-width="2" stroke-miterlimit="10" d="M242.4,283.5c0,0,44.2-23.2,0-35"/>
<path fill="none" stroke="#E6E6E6" stroke-width="2" stroke-miterlimit="10" d="M219.5,277.7c0,0,25.9,15.3,24.9-11.7"/>
<path fill="none" stroke="#E6E6E6" stroke-width="2" stroke-miterlimit="10" d="M264.8,235.4c0,0,23.2,15.5,1.3,26.2"/>
<path fill="none" stroke="#E6E6E6" stroke-width="2" stroke-miterlimit="10" d="M270.1,277.7c0,0,13.8,12.399-4.1,25.3"/>
<path fill="none" stroke="#E6E6E6" stroke-width="2" stroke-miterlimit="10" d="M264.8,222.9c0,0,27.3,3.3,34.3-15.7"/>
<path fill="none" stroke="#E6E6E6" stroke-width="2" stroke-miterlimit="10" d="M273.5,230.6c0,0,58.5-18.5,25.5-35.9"/>
<path fill="none" stroke="#E6E6E6" stroke-width="2" stroke-miterlimit="10" d="M291.3,174.9c0,0,38.5,6.1,20.9,22.8"/>
<path fill="none" stroke="#E6E6E6" stroke-width="2" stroke-miterlimit="10" d="M278.3,241.7c0,0,16.8-3.9,25.8-13.8"/>
<path fill="none" stroke="#E6E6E6" stroke-width="2" stroke-miterlimit="10" d="M316.8,205.5c0,0,16.4,33.6-7.7,38.1"/>
<path fill="none" stroke="#E6E6E6" stroke-width="2" stroke-miterlimit="10" d="M312.2,221.9c0,0-5,24.3-20.9,26.7
	c0,0-15.8,14.1-1.5,23.8"/>
<path fill="none" stroke="#E6E6E6" stroke-width="2" stroke-miterlimit="10" d="M298,256.6c0,0,54.8-17.8,24.2-54.5"/>
<path fill="none" stroke="#E6E6E6" stroke-width="2" stroke-miterlimit="10" d="M278.3,277.7c0,0,30.7,0.7,19.7-11.7"/>
<path fill="none" stroke="#E6E6E6" stroke-width="2" stroke-miterlimit="10" d="M256,310c0,0,32.9,1.1,33.3-18.3"/>
<path fill="none" stroke="#E6E6E6" stroke-width="2" stroke-miterlimit="10" d="M298,283.5c0,0,32.3-14.6,17.7-18.5"/>
<path fill="none" stroke="#E6E6E6" stroke-width="2" stroke-miterlimit="10" d="M327,194.7c0,0,26,9.8,16,29.6"/>
<path fill="none" stroke="#E6E6E6" stroke-width="2" stroke-miterlimit="10" d="M322.2,183.8c0,0,28.8,4.1,33.8,21.6"/>
<path fill="none" stroke="#E6E6E6" stroke-width="2" stroke-miterlimit="10" d="M356,219.4c0,0,38.1-3.9,18-16.2"/>
<path fill="none" stroke="#E6E6E6" stroke-width="2" stroke-miterlimit="10" d="M336.1,229.3c0,0,63.801-10.3,49.9-23.9"/>
<path fill="none" stroke="#E6E6E6" stroke-width="2" stroke-miterlimit="10" d="M336.1,238.8c0,0,70.9-15.3,59.9-31.6"/>
<path fill="none" stroke="#E6E6E6" stroke-width="2" stroke-miterlimit="10" d="M331.5,247.1c0,0,73.5-12.2,73.5-34"/>
<path fill="none" stroke="#E6E6E6" stroke-width="2" stroke-miterlimit="10" d="M362.1,211.3c0,0,8.301-14.7,0-20.5"/>
<path fill="none" stroke="#E6E6E6" stroke-width="2" stroke-miterlimit="10" d="M281.9,315.1c0,0,24.4-2.8,22.2-18.1"/>
<path fill="none" stroke="#E6E6E6" stroke-width="2" stroke-miterlimit="10" d="M312.2,283.5c0,0,23.2-13.9,10-26.9"/>
<path fill="none" stroke="#E6E6E6" stroke-width="2" stroke-miterlimit="10" d="M327,256.6c0,0,19.9,23.1-12.2,35.1"/>
<path fill="none" stroke="#E6E6E6" stroke-width="2" stroke-miterlimit="10" d="M339.1,256.6c0,0,12.301,27.6-26.899,49.5"/>
<path fill="none" stroke="#E6E6E6" stroke-width="2" stroke-miterlimit="10" d="M345.3,256.7c0,0,67.7-16,70.7-34.8"/>
<path fill="none" stroke="#E6E6E6" stroke-width="2" stroke-miterlimit="10" d="M416,238.8c0,0,21,13.9,5,42.5"/>
<path fill="none" stroke="#E6E6E6" stroke-width="2" stroke-miterlimit="10" d="M405,247.1c0,0,17,18.3,0,37.6"/>
<path fill="none" stroke="#E6E6E6" stroke-width="2" stroke-miterlimit="10" d="M388,248.5c0,0,20,12.1,0,32.8"/>
<path fill="none" stroke="#E6E6E6" stroke-width="2" stroke-miterlimit="10" d="M380.6,268.7c0,0-15.899,43.5,16.2,37.399"/>
<path fill="none" stroke="#E6E6E6" stroke-width="2" stroke-miterlimit="10" d="M368.3,271.7c0,0-9.5,36.6,11.601,43.5"/>
<path fill="none" stroke="#E6E6E6" stroke-width="2" stroke-miterlimit="10" d="M356,286c0,0-2.4-29.4,30.8-27.7"/>
<path fill="none" stroke="#E6E6E6" stroke-width="2" stroke-miterlimit="10" d="M130,184c0,0,17.8,5.1,24.4-14.4"/>
<path fill="none" stroke="#E6E6E6" stroke-width="2" stroke-miterlimit="10" d="M111,186.3c0,0,0.9-8.3-6-13.9"/>
<path fill="none" stroke="#E6E6E6" stroke-width="2" stroke-miterlimit="10" d="M350,262.6c0,0-4.1,47.1,12.1,30.8"/>
<path fill="none" stroke="#E6E6E6" stroke-width="2" stroke-miterlimit="10" d="M345.3,290.3c0,0-28.3,34.101-47.3,24.8"/>
<path fill="none" stroke="#E6E6E6" stroke-width="2" stroke-miterlimit="10" d="M336.1,306.1c0,0,24-9.1,25.9,3.9"/>
<path fill="none" stroke="#E6E6E6" stroke-width="2" stroke-miterlimit="10" d="M345.3,310c0,0-4.3,11-18.3,13"/>
<path fill="none" stroke="#E6E6E6" stroke-width="2" stroke-miterlimit="10" d="M349.5,310c0,0,0.2,1.1,6.3,13"/>
<path fill="none" stroke="#E6E6E6" stroke-width="2" stroke-miterlimit="10" d="M365.8,316.8c0,0,7.601,12.2,31.4,6.2"/>
<path fill="none" stroke="#E6E6E6" stroke-width="2" stroke-miterlimit="10" d="M392.4,291.7c0,0,11.699,7.6,20.1-1.4"/>
<path fill="none" stroke="#E6E6E6" stroke-width="2" stroke-miterlimit="10" d="M402.5,303c0,0,6.3,14.5-5.6,13.7"/>
<path fill="none" stroke="#E6E6E6" stroke-width="2" stroke-miterlimit="10" d="M400.5,329c0,0,28.4-18.2,15.5-26.3"/>
<path fill="none" stroke="#E6E6E6" stroke-width="2" stroke-miterlimit="10" d="M427,233c0,0,22,10.7,13,25.3"/>
<path fill="none" stroke="#E6E6E6" stroke-width="2" stroke-miterlimit="10" d="M435.9,277.7c0,0,37.1-19.5,23.1-30.6"/>
<path fill="none" stroke="#E6E6E6" stroke-width="2" stroke-miterlimit="10" d="M434.6,291.7c0,0,45.101-20.3,41.4-35.1"/>
<path fill="none" stroke="#E6E6E6" stroke-width="2" stroke-miterlimit="10" d="M427,303c0,0,11,13.4,0,17.7"/>
<path fill="none" stroke="#E6E6E6" stroke-width="2" stroke-miterlimit="10" d="M442.2,297.3c0,0,24,17.101,7.399,23.4"/>
<path fill="none" stroke="#E6E6E6" stroke-width="2" stroke-miterlimit="10" d="M455.4,293.4c0,0,14.6,7.399,46.6,0"/>
<path fill="none" stroke="#E6E6E6" stroke-width="2" stroke-miterlimit="10" d="M468,287.7c0,0,38,3,48-6.3"/>
<path fill="none" stroke="#E6E6E6" stroke-width="2" stroke-miterlimit="10" d="M476.2,277.7c2.8-1.7,25.3,7.899,35.8-7.7"/>
<path fill="none" stroke="#E6E6E6" stroke-width="2" stroke-miterlimit="10" d="M478.7,266c0,0,10.7,4.1,23.3-4.3"/>
<path fill="none" stroke="#E6E6E6" stroke-width="2" stroke-miterlimit="10" d="M468,258.1c0,0,0.7-14.8,22.3-1.4"/>
<path fill="none" stroke="#E6E6E6" stroke-width="2" stroke-miterlimit="10" d="M449.6,256.6c0,0,8-18.7-0.8-21.2"/>
<path fill="none" stroke="#E6E6E6" stroke-width="2" stroke-miterlimit="10" d="M462.2,306.1c0,0,65.8,1.7,70.8-17.199"/>
<line fill="none" stroke="#E6E6E6" stroke-width="2" stroke-miterlimit="10" x1="479" y1="316" x2="512" y2="316"/>
<path fill="none" stroke="#E6E6E6" stroke-width="2" stroke-miterlimit="10" d="M462.2,323c2.8,0,9.8-11.1,9.8-11.1"/>
<path fill="none" stroke="#E6E6E6" stroke-width="2" stroke-miterlimit="10" d="M520,306.1c0,0,32-2.3,42-12.699"/>
<path fill="none" stroke="#E6E6E6" stroke-width="2" stroke-miterlimit="10" d="M533,268.1c0,0-4,16.2,18,19.5"/>
<path fill="none" stroke="#E6E6E6" stroke-width="2" stroke-miterlimit="10" d="M520,265c0,0-4.7,18.9,7,18.5"/>
<path fill="none" stroke="#E6E6E6" stroke-width="2" stroke-miterlimit="10" d="M541.9,264.3c0,0,48.5,11,61.1-1.7"/>
<path fill="none" stroke="#E6E6E6" stroke-width="2" stroke-miterlimit="10" d="M551,274.6c0,0,38,3.5,36,11.5"/>
<path fill="none" stroke="#E6E6E6" stroke-width="2" stroke-miterlimit="10" d="M562,284.7c0,0,20.3,2.3,10.4,12.3"/>
<path fill="none" stroke="#E6E6E6" stroke-width="2" stroke-miterlimit="10" d="M598,274.6c0,0,22.4-9,23-17.9"/>
<path fill="none" stroke="#E6E6E6" stroke-width="2" stroke-miterlimit="10" d="M633,256.6c0,0,39.5-10.1,39.5-23.6"/>
<path fill="none" stroke="#E6E6E6" stroke-width="2" stroke-miterlimit="10" d="M609.5,283.5c0,0,13.7-19.8,27.5-15.4"/>
<path fill="none" stroke="#E6E6E6" stroke-width="2" stroke-miterlimit="10" d="M633,251.1c0,0-23.7,8.9,9,8.9c0,0,18,2.2,5,8.1"/>
<path fill="none" stroke="#E6E6E6" stroke-width="2" stroke-miterlimit="10" d="M587.1,274.6c0,0,14.601,10.2,0,16.3"/>
<path fill="none" stroke="#E6E6E6" stroke-width="2" stroke-miterlimit="10" d="M661,261.7c0,0,18.4-7.9,27.8-39.9"/>
<path fill="none" stroke="#E6E6E6" stroke-width="2" stroke-miterlimit="10" d="M651.7,240.3c0,0,19.5-16,28.3-17.2"/>
<path fill="none" stroke="#E6E6E6" stroke-width="2" stroke-miterlimit="10" d="M695.4,217.4c0,0,2.899-6.5,10.6-4.3"/>
</svg>
