<?xml version="1.0" encoding="utf-8"?>
<!-- Generator: Adobe Illustrator 15.0.0, SVG Export Plug-In . SVG Version: 6.00 Build 0)  -->
<!DOCTYPE svg PUBLIC "-//W3C//DTD SVG 1.1//EN" "http://www.w3.org/Graphics/SVG/1.1/DTD/svg11.dtd">
<svg version="1.1" id="Layer_1" xmlns="http://www.w3.org/2000/svg" xmlns:xlink="http://www.w3.org/1999/xlink" x="0px" y="0px"
	 width="822px" height="567px" viewBox="0 0 822 567" enable-background="new 0 0 822 567" xml:space="preserve">
<rect display="none" fill="#FFFFFF" width="822" height="567"/>
<path fill="#FFFFFF" stroke="#000000" stroke-width="0.5" stroke-miterlimit="10" d="M812.4,461C732,472.4,699,404.2,699,404.2
	c-4.6-2-9.9-19.2-9.9-19.2c0-0.2,0-0.3,0-0.5c2.101-3.8,43,0.5,43,0.5c2-0.1,3.4-0.5,4.301-0.9l0,0
	C748.9,384,766.6,424.2,766.6,424.2C781.7,453.5,812.4,461,812.4,461z"/>
<path fill="#FFFFFF" stroke="#000000" stroke-width="0.5" stroke-miterlimit="10" d="M776.7,347.3c0,0-24.7,1-39.9,31.8
	c-18.8-9.399-25-17.699-34.1-27.8C702.7,351.2,721.1,332.9,776.7,347.3z"/>
<path fill="#FFFFFF" stroke="#000000" stroke-width="0.5" stroke-miterlimit="10" d="M736.8,379c0,0,3.4,3.4-0.3,5.1l0,0
	c-0.9,0.4-2.3,0.801-4.3,0.9c0,0-40.9-4.3-43-0.5c1.399-13.7-18.8-27.2-33.101-18c-0.8,0.5-0.899,1.6-1.5,2.3
	c-8,9.9-31.6,7.601-31.6,7.601c-41,4-96.7-15.2-96.7-15.2c-30.5-12.601-2.6-14.601-2.6-14.601l55.6-5.6
	c29.101,3.7,9.3-20.3,9.3-20.3c-2.699-5.3-48.3-17.2-48.3-17.2c-53-15.2-86.1,25.2-86.1,25.2C403.1,402.6,299,378.1,297.8,377.8
	c-1.8-2.899-4.1-5.7-7.1-8.1c0,0-73.5-50.3-94.7-41c0,0-4.6,0.3-9.9,9.6c-2.9-5.8-2.9-5.8-6.7-9.6c-10.9-10.9-32-6.3-39.7,0
	c-25.8,21.2-38.2,23.8-51,19.2c-13-4.7-26.5-5.301-26.5-5.301s-45,5.301-47,3.301c0,0-12.6-4.601,0-15.9c0,0,19.9-25.2,23.8-29.8
	c0,0,11.9-25.2,61.6-30.5c0,0,52.3-15.2,76.8-27.8c0,0,41.8-22.1,109.9-28.3c1.1-0.1,2.3-0.2,3.5-0.3c30.601-2.5,66.3-1.8,105.7,5.5
	c16.8,3.1,34.2,7.4,52.2,13.1c-1.9-0.4-36.101-6.9-56.601,51c0,0-6.6,22.1-34.399,24.3c0,0-6.601,1.5,0,7.5
	c0,0,45.7,25.8,68.899-6.601c0,0,19.5-62.8,85.9-50.6l0,0c8.2,4,16.4,8.3,24.7,12.9c0,0,130.3,50.7,145.6,62.2
	c9.3,7,15.2,13,20.2,18.5C711.8,361.3,718,369.6,736.8,379z M159.5,300.2c-7.3,1.2-13.2,0-13.2,0c-32.4-12.7-53,10.7-53,10.7
	c-9.3,4.6,0,4.6,0,4.6C139,326.8,159.5,300.2,159.5,300.2z M104.6,332.6C88,320,83,337.1,83,337.1
	C97.2,348.3,104.6,332.6,104.6,332.6z"/>
<path fill="#FFFFFF" stroke="#000000" stroke-width="0.5" stroke-miterlimit="10" d="M699.1,404.2c0,0-27.8,0.7-37.699-2.7
	c0,0-80.101-21.2-88.101-17.2c0,0-71.5-16.5-144.3,9.3c0,0-37,11.301-126.3,10.601c0.6-7.3,0.2-17.7-5-26.4
	c1.2,0.3,105.3,24.8,156.399-49.1c0,0,33.101-40.4,86.101-25.2c0,0,45.7,11.9,48.3,17.2c0,0,19.9,24-9.3,20.3l-55.601,5.6
	c0,0-27.8,2,2.601,14.601c0,0,55.6,19.2,96.7,15.2c0,0,23.6,2.3,31.6-7.601c0.6-0.7,0.7-1.8,1.5-2.3c14.4-9.1,34.6,4.3,33.1,18
	c-0.1,0.2-0.1,0.3,0,0.5C689.1,385,694.4,402.2,699.1,404.2z"/>
<path fill="#FFFFFF" stroke="#000000" stroke-width="0.5" stroke-miterlimit="10" d="M512.2,257.6c-66.4-12.2-85.9,50.6-85.9,50.6
	c-23.2,32.399-68.899,6.6-68.899,6.6c-6.601-6,0-7.5,0-7.5C385.2,305.1,391.8,283,391.8,283c20.601-57.9,54.8-51.4,56.601-51h0.1
	C469.1,238.6,490.3,247,512.2,257.6z"/>
<path fill="#FFFFFF" stroke="#000000" stroke-width="0.5" stroke-miterlimit="10" d="M385.2,46.7c0,0-40.7,128,11.1,172.2
	c-39.399-7.3-75.1-8-105.7-5.5l-0.1-1.3c0,0,38.4-41.6,62.2-115.8C352.8,96.4,364.1,53.3,385.2,46.7z"/>
<path fill="#FFFFFF" stroke="#000000" stroke-width="0.5" stroke-miterlimit="10" d="M297.6,377.8c5.2,8.7,5.6,19.101,5,26.4
	c-0.4,5.5-1.5,9.2-1.5,9.2c-8.6,43-40.4,28.5-40.4,28.5c-19.8-12.7-35.3-29.301-46.6-44.7c-17.1-23.101-24.9-43.4-24.9-43.4
	s-1.1-11.3-3.3-15.6c5.3-9.3,9.9-9.601,9.9-9.601c21.2-9.3,94.7,41,94.7,41C293.6,372.2,295.9,374.9,297.6,377.8z"/>
<path fill="#FFFFFF" stroke="#000000" stroke-width="0.5" stroke-miterlimit="10" d="M214.2,397.3l-0.4,0.3
	C82,398.3,25.1,377.1,25.1,377.1c-18.5-6-9.9-11.899-9.9-11.899l47-22.5c0,0,13.5,0.6,26.5,5.3c12.8,4.6,25.2,2,51-19.2
	c7.7-6.3,28.8-10.899,39.7,0c3.7,3.7,3.7,3.7,6.7,9.601c2.1,4.3,3.3,15.6,3.3,15.6S197.1,374.2,214.2,397.3z"/>
<path fill="#FFFFFF" stroke="#000000" stroke-width="0.5" stroke-miterlimit="10" d="M146.2,300.2c0,0,6,1.2,13.2,0
	c0,0-20.5,26.6-66.2,15.3c0,0-9.3,0,0-4.6C93.3,310.9,113.8,287.5,146.2,300.2z"/>
<path fill="#FFFFFF" stroke="#000000" stroke-width="0.5" stroke-miterlimit="10" d="M93.2,330.1c2.2,0,4,1.9,4,4.301
	c0,2.399-1.8,4.3-4,4.3c-2.2,0-4.1-1.9-4.1-4.3C89.1,332,91,330.1,93.2,330.1z"/>
<path fill="#FFFFFF" stroke="#000000" stroke-width="0.5" stroke-miterlimit="10" d="M83,337.1c0,0,5-17.1,21.6-4.5
	C104.6,332.6,97.2,348.3,83,337.1z M97.3,334.4c0-2.4-1.8-4.301-4-4.301c-2.2,0-4.1,1.9-4.1,4.301c0,2.399,1.8,4.3,4.1,4.3
	C95.6,338.7,97.3,336.7,97.3,334.4z"/>
</svg>
