<?xml version="1.0" encoding="utf-8"?>
<!-- Generator: Adobe Illustrator 15.0.0, SVG Export Plug-In . SVG Version: 6.00 Build 0)  -->
<!DOCTYPE svg PUBLIC "-//W3C//DTD SVG 1.1//EN" "http://www.w3.org/Graphics/SVG/1.1/DTD/svg11.dtd">
<svg version="1.1" id="Layer_1" xmlns="http://www.w3.org/2000/svg" xmlns:xlink="http://www.w3.org/1999/xlink" x="0px" y="0px"
	 width="822px" height="567px" viewBox="0 0 822 567" enable-background="new 0 0 822 567" xml:space="preserve">
<rect display="none" fill="#FFFFFF" width="822" height="567"/>
<path fill="#FFFFFF" stroke="#000000" stroke-miterlimit="10" d="M726,227.1l-14.1,16.4c-21-16.4-44.5-17.9-41.801-17.9
	c0,0,31.5-54.5,50.601-61.7C720.3,164.9,700.9,212.1,726,227.1z"/>
<path fill="#FFFFFF" stroke="#000000" stroke-miterlimit="10" d="M686.3,270.4c-0.2-0.1-0.5-0.3-0.7-0.4
	c-14.699-9.5-15.5-12.6-15.5-12.6c37.9-1.3,41.801-13.7,41.801-13.7l31.5,9.7c0,0,15.199,38.4,65.3,42
	C808.7,295.3,772.9,326.3,686.3,270.4z"/>
<path fill="#FFFFFF" stroke="#000000" stroke-miterlimit="10" d="M396.6,143.3c0,0-53.699,53.7,17.9,77.6c-63.3,1.6-113,12-113,12
	c-13.6,1.9-13.6-2.4-13.6-2.4S339.3,151.6,396.6,143.3z"/>
<path fill="#FFFFFF" stroke="#000000" stroke-miterlimit="10" d="M408.7,328.4C435.3,321.6,495.1,310.3,519.6,305.7
	c0,0-172,91.899-235.3,90.8C284.3,396.5,360.3,340.8,408.7,328.4z"/>
<path fill="#FFFFFF" stroke="#000000" stroke-miterlimit="10" d="M345.3,452.6c0,0-62.9,26-117.4-48l0,0c-0.2-0.5-4.4-15.1,56.5-8.1
	C284.3,396.5,292.7,437,345.3,452.6z"/>
<path fill="#FFFFFF" stroke="#000000" stroke-miterlimit="10" d="M227.7,404.5L227.7,404.5c-4.2,0.8-115.8,20.8-149.7,20
	c0,0-19,2.9-32.6-3.8l0,0C45.3,420.6,171,390.1,227.7,404.5z"/>
<path fill="#FFFFFF" stroke="#000000" stroke-miterlimit="10" d="M93.1,371.8c1.7-1.2,2.1-3.6,0.9-5.3c-1.2-1.8-3.6-2.3-5.3-1.1
	c-1.7,1.199-2.1,3.6-0.9,5.3C89,372.4,91.4,372.9,93.1,371.8z M100.9,362.1c1.5,2.601-1.2,6.9-6.1,9.7c-4.9,2.8-10,3-11.5,0.4
	c-1.5-2.601,1.2-6.9,6.1-9.7S99.4,359.5,100.9,362.1z"/>
<path fill="#FFFFFF" stroke="#000000" stroke-miterlimit="10" d="M94.1,366.4c1.2,1.8,0.8,4.199-0.9,5.3c-1.7,1.2-4.1,0.7-5.3-1.101
	c-1.2-1.8-0.8-4.199,0.9-5.3C90.5,364.2,92.9,364.6,94.1,366.4z"/>
<path fill="#FFFFFF" stroke="#000000" stroke-miterlimit="10" d="M711.9,243.6c0,0-3.9,12.4-41.801,13.7c0,0,0.801,3.1,15.5,12.6
	c0,0-11.3,10.4-49.6,17.4c0,0-78.2,14.8-116.4,18.4c-24.5,4.6-84.3,15.8-110.899,22.7c-48.4,12.399-124.4,68.1-124.4,68.1
	c-60.9-7-56.7,7.5-56.5,8.1c-1.2-1.6-0.8-0.899-0.2,0c-56.6-14.5-182.3,16-182.3,16l0,0c-5.1-2.5-9.5-6.399-11.8-12.3
	c0,0-16.7,7.2-16.7-11.3c0,0-8.4-25.7,27.5-46c0,0,93.1-72.9,243.6-120.6c0,0,0,4.3,13.6,2.4c0,0,49.8-10.4,113-12
	c0,0,204.2-7.2,255.6,4.8C667.3,225.7,690.9,227.1,711.9,243.6z M94.8,371.8c4.9-2.8,7.6-7.2,6.1-9.7c-1.5-2.6-6.6-2.399-11.5,0.4
	s-7.6,7.2-6.1,9.7C84.8,374.8,89.9,374.7,94.8,371.8z"/>
<g>
	<path fill="#201600" d="M32.9,407.6c3.3-2.5,6.6-4.699,10-6.899c3.4-2.101,6.9-4.2,10.5-6c7.2-3.7,14.7-6.9,22.5-8.7
		c-7.8,2.2-15.1,5.6-22,9.6c-3.5,2-6.9,4.101-10.2,6.4c-3.3,2.3-6.5,4.6-9.6,7.2L32.9,407.6z"/>
</g>
</svg>
