<?xml version="1.0" encoding="utf-8"?>
<!-- Generator: Adobe Illustrator 15.0.0, SVG Export Plug-In . SVG Version: 6.00 Build 0)  -->
<!DOCTYPE svg PUBLIC "-//W3C//DTD SVG 1.1//EN" "http://www.w3.org/Graphics/SVG/1.1/DTD/svg11.dtd">
<svg version="1.1" id="Layer_1" xmlns="http://www.w3.org/2000/svg" xmlns:xlink="http://www.w3.org/1999/xlink" x="0px" y="0px"
	 width="822px" height="567px" viewBox="0 0 822 567" enable-background="new 0 0 822 567" xml:space="preserve">
<polyline fill="#FFFFFF" points="0,0 822,0 822,567 "/>
<path fill="none" stroke="#000000" d="M22.8,539.9"/>
<path fill="none" stroke="#000000" d="M19.6,540"/>
<path fill="none" stroke="#000000" d="M16.4,539.9"/>
<path fill="none" stroke="#000000" d="M30.5,539.9"/>
<path fill="none" stroke="#000000" d="M27.3,539.9"/>
<path fill="none" stroke="#000000" d="M24.2,540"/>
<path fill="none" stroke="#000000" d="M37.9,539.9"/>
<path fill="none" stroke="#000000" d="M34.9,539.9"/>
<path fill="none" stroke="#000000" d="M31.8,539.9"/>
<path fill="none" stroke="#000000" d="M51.4,536.6"/>
<path fill="none" stroke="#000000" d="M77.4,536.5"/>
<path fill="none" stroke="#000000" d="M68,540.1"/>
<path fill="none" stroke="#000000" d="M72.7,540.5"/>
<path fill="none" stroke="#000000" d="M58.9,539.9"/>
<path fill="none" stroke="#000000" stroke-width="1.0581" d="M45.1,540.5"/>
<path fill="none" stroke="#000000" d="M82.9,540.5"/>
<path fill="none" stroke="#000000" d="M86.7,539.9"/>
<path fill="none" stroke="#000000" d="M107.9,540.3"/>
<path fill="none" stroke="#000000" d="M97.9,540.2"/>
<path fill="none" stroke="#000000" d="M103.8,540.2"/>
<path fill="#FFFFFF" stroke="#000000" stroke-miterlimit="10" d="M419.5,12c0,0,63.8,54.7,51.7,85.4c-5.7,14.5-14.8,22.6-65.2,16.7
	c37.6-56.9,10.3-73.9,12.8-98.6C419,14.1,419.2,13,419.5,12z"/>
<path fill="#FFFFFF" stroke="#000000" stroke-miterlimit="10" d="M716.4,216.1c3.3,0,5.899-2.3,5.899-5c0-2.8-2.7-5-5.899-5
	c-3.301,0-6,2.3-6,5C710.5,213.8,713.1,216.1,716.4,216.1z M701.8,206c20.5-6.4,23.9,2.5,24.601,7.5c0.699,5,0.699,5,0.699,5
	c-3.399,1.3-11.399-0.2-17.3-4.8C704.8,209.8,701.8,206,701.8,206z"/>
<path fill="#FFFFFF" stroke="#000000" stroke-miterlimit="10" d="M716.4,206c3.3,0,5.899,2.3,5.899,5c0,2.8-2.7,5-5.899,5
	c-3.301,0-6-2.3-6-5C710.5,208.2,713.1,206,716.4,206z"/>
<path fill="#FFFFFF" stroke="#000000" stroke-miterlimit="10" d="M797.3,248.3c5.8,2.8,18.101,20.6,0,19.6
	c0.101-3.9-4.2-8.9-19-14.5c0,0-17.899-8.5-54.3-19.1c0,0,6.5-9.6,36.7-1.1l-0.3,1.1C760.4,234.2,793.5,246.5,797.3,248.3z"/>
<path fill="#FFFFFF" stroke="#000000" stroke-miterlimit="10" d="M524.1,288.7c26.4,3.399,54.9,5.399,72.7,1.8
	c-18.5,5.8-35.8,26.7-35.8,26.7c-35.8,42-124.7,40.3-124.7,40.3c-14.7-3.4-6.399-9.3-6.399-9.3c23.8-4.2,47.3-23.101,58.699-35.3
	C507.7,292.4,523.3,288.9,524.1,288.7z"/>
<path fill="#FFFFFF" stroke="#000000" stroke-miterlimit="10" d="M307,444.1c18.3,14.301,6.2,20,1.8,18.5
	c-17-5.899-44.5-2.199-57.9-0.6c-76.9,9.3-97.1-34.7-97.1-34.7S143,423,148,382c0,0,7.7-5.5,8.3-17.9c1.5,4.2,4.9,5.2,4.9,5.2
	C249.3,383.6,307,444.1,307,444.1z"/>
<path fill="#FFFFFF" stroke="#000000" stroke-miterlimit="10" d="M148,382c-5,41,5.9,45.3,5.9,45.3c-0.9,25.2-28.2,44.7-44,49.601
	c-27.2,8.5-75.2,53.8-75.2,53.8c-21.1,16.8-19.3,4.2-19.3,4.2S52,461,68.1,444.3c42.2-43.8,54.3-56.899,61-75
	C129.3,369.8,136.3,384,148,382z"/>
<path fill="#FFFFFF" stroke="#000000" stroke-miterlimit="10" d="M524.1,288.7c-34.1-4.4-64.899-11.1-64.899-11.1
	c-253-55.5-280.5,35.3-296.1,61.4c-7.9,13.2-8.3,20.8-6.7,25.1c-0.7,12.4-8.3,17.9-8.3,17.9c-11.8,2-18.7-12.2-19-12.7
	c3.4-9.3,5.4-19.899,9.2-36.6c7.3-31.8,24.2-156.4,400.7-137.4c0,0-16.6,13.2-79.5,18.3c-17,1.4-71.2,13.9-53.8,26.8
	c0,0,59-3,73.6,2.9c0,0,67.9,11.8,111.9-27.7c0,0,125.6,46.1,132.7,18.7c36.399,10.6,54.3,19.1,54.3,19.1
	c14.8,5.6,19.1,10.6,19,14.5c-0.101,5.6-8.9,9-8.9,9c-11.899,5.9-51.399-0.8-51.399-0.8c-53.2,24.4-135.7,13.5-135.7,13.5
	c-1.5,0.301-3,0.601-4.5,1.101C579,294.1,550.6,292.1,524.1,288.7z"/>
<path fill="#FFFFFF" stroke="#000000" stroke-miterlimit="10" d="M129.1,369.3c-6.6,18.101-18.8,31.2-61,75
	C52,461,15.5,534.9,15.5,534.9c-13.8-53.801,90.8-158,90.8-158C111.7,156.6,406,114.1,406,114.1c50.3,5.9,59.4-2.2,65.2-16.7
	C483.3,66.7,419.5,12,419.5,12c6.5-19,49.1,24.4,58,37c36.2,51.6,63.3,63,63.3,63C781.9,158.3,763.6,234,763.6,234
	c-1-0.3-2-0.6-2.899-0.9c-30.3-8.5-36.7,1.1-36.7,1.1c-7.1,27.4-132.7-18.7-132.7-18.7C547.3,255,479.4,243.2,479.4,243.2
	c-14.7-5.9-73.601-2.9-73.601-2.9c-17.399-12.9,36.8-25.4,53.8-26.8c62.9-5,79.5-18.3,79.5-18.3
	c-376.5-19-393.4,105.6-400.7,137.399C134.5,349.4,132.5,360,129.1,369.3z M727,218.5c0,0,0,0-0.7-5s-4-13.9-24.6-7.5
	c0,0,3,3.8,7.899,7.7C715.7,218.4,723.6,219.9,727,218.5z"/>
</svg>
