<?xml version="1.0" encoding="utf-8"?>
<!-- Generator: Adobe Illustrator 15.0.0, SVG Export Plug-In . SVG Version: 6.00 Build 0)  -->
<!DOCTYPE svg PUBLIC "-//W3C//DTD SVG 1.1//EN" "http://www.w3.org/Graphics/SVG/1.1/DTD/svg11.dtd">
<svg version="1.1" id="Layer_1" xmlns="http://www.w3.org/2000/svg" xmlns:xlink="http://www.w3.org/1999/xlink" x="0px" y="0px"
	 width="822px" height="567px" viewBox="0 0 822 567" enable-background="new 0 0 822 567" xml:space="preserve">
<polyline fill="#FFFFFF" points="0,0 822,0 822,567 "/>
<path fill="#FFFFFF" stroke="#000000" stroke-miterlimit="10" d="M809.6,391.7c6.301,4.6,1.9,9.7,1.9,9.7
	c-30.3,8.199-65-66.2-65-66.2s-6.6-9.101-5.3-12.2c1.8-4.3,11.3-3.8,17.8,0c5.6,3.3,19.4,4.6,25,6.1l0,0c8,2.2,12.5,36.2,12.5,36.2
	C794.7,377.5,809.6,391.7,809.6,391.7z"/>
<path fill="#FFFFFF" stroke="#000000" stroke-miterlimit="10" d="M788,308.7c2.5,4.5,2.9,18.3-3.9,20.399l0,0
	C783.7,328.5,769.7,310.8,749.9,290.9C750.3,290,766,257.7,778.8,265.3c0,0,4.8-0.9,0,16.4C778.8,281.7,778.9,292.5,788,308.7z"/>
<path fill="#FFFFFF" stroke="#000000" stroke-miterlimit="10" d="M749.9,290.8c19.8,20,33.699,37.7,34.199,38.2
	c-5.6-1.5-19.399-2.9-25-6.1c-6.6-3.801-16-4.301-17.8,0c-1.3,3.1,5.3,12.199,5.3,12.199c-13.3,0-37.5,3.4-68.6-12.199
	c-18.1-9.101-88.5-18.7-125.6-23.301l0.1-0.699c25.8-43.8-58.1-76.601-82.3-95.601c-21.2-16.5-142.7-49-142.7-49L307,146
	c31.2-1.5,53.7-1.9,53.7-1.9c11.5,0,18.6-1.6,24-4.6c26.3-14.6,36.899-25.3,51-26.5c65.5-5.6,52.399,11.2,52.399,11.2
	c-36.1,24.4-3.699,38.4,5.801,40.5c45.3,10,142.5,54.4,189.1,74.9C706,249.8,730.7,271.4,749.9,290.8z"/>
<path fill="#FFFFFF" stroke="#000000" stroke-miterlimit="10" d="M470.2,203.4c24.3,19,108.1,51.8,82.3,95.6l-0.1,0.7
	C538.5,298,529.3,297,529.3,297c-3.3-1.4-195.6,5-224.5,6l0,0c-0.1,0-0.1,0-0.2,0c-8.4,0-34.4-14.1-34.4-14.1
	c-44.8-13.8-49.8-38.8-66.4-62.601c-3.8-5.5-62.1-49.9-62.1-49.9c-2.9-4.1-17.3-7.2-17.3-7.2l0,0c13.8-4.2,23.1-6.1,23.1-6.1
	c38.9-9.7,110.1-14.6,159.5-16.9l20.5,8.3C327.5,154.4,449,186.9,470.2,203.4z"/>
<path fill="#FFFFFF" stroke="#000000" stroke-miterlimit="10" d="M304.6,303c-2.2,0.1-3.4,0.1-3.4,0.1
	c-17.9,0.601-37.5,0-57.5-1.199c-6.4-5.2-45.3-18.7-45.3-18.7c-32.6-17.6-30-3.3-29.8-2.7c-12.4-15.7-39-7.6-39-7.6
	c-28.9,7-53.9,0-53.9,0c-11.6-9.3-36.1-7.5-36.1-7.5c-11.6,0-6.4,7.1-6,7.5c-6.6-1.9-10.3-3.4-10.3-3.4c-16.6-9.9,0-14.5,0-14.5
	h43.3c8.7-0.8,10-0.6,16.9-5c0.9-0.6-6.7-0.8-7.7-0.6c-7.8,1.5-38.1,3.3-52.2,0.3c-6.4-1.4-4.8-10.4-3.7-12.2
	c23.3-38.4,74.5-59.1,104.4-68.3l0,0c0,0,14.4,3.1,17.3,7.2c0,0,58.2,44.4,62.1,49.9c16.6,23.8,21.6,48.8,66.4,62.601
	C270.2,288.8,296.2,303,304.6,303z M124.4,234.6c0-3.5-3.4-6.4-7.7-6.4c-4.3,0-7.7,2.9-7.7,6.4s3.5,6.4,7.7,6.4
	C121,241,124.4,238.1,124.4,234.6z"/>
<path fill="#FFFFFF" stroke="#000000" stroke-miterlimit="10" d="M283.2,349.4c8.7,5.6,2.4,9.699,2.4,9.699
	c-69.8,0.4-100.4-46-109.5-63.6c-2.1-4.1-3.1-6.7-3.1-6.7c-1.1-3.3-2.6-6-4.3-8.3l0,0c-0.1-0.6-2.8-14.9,29.8,2.7
	c0,0,38.9,13.399,45.3,18.7C244.5,305.5,251.5,332.8,283.2,349.4z"/>
<path fill="#FFFFFF" stroke="#000000" stroke-miterlimit="10" d="M173,288.8c0,0,1,2.5,3.1,6.7c-59.2-7.2-108-16.9-108-16.9
	c-14.5-0.8-26.5-3.5-34.4-5.7c-0.3-0.4-5.6-7.5,6-7.5c0,0,24.5-1.8,36.1,7.5c0,0,25,7,53.9,0c0,0,26.5-8.1,39,7.6l0,0
	C170.5,282.8,171.9,285.5,173,288.8z"/>
<path fill="#FFFFFF" stroke="#000000" stroke-miterlimit="10" d="M116.7,228.2c4.2,0,7.7,2.9,7.7,6.4s-3.4,6.4-7.7,6.4
	c-4.3,0-7.7-2.8-7.7-6.4C109,231.1,112.5,228.2,116.7,228.2z M120.4,234.6c0-1.9-1.6-3.4-3.6-3.4s-3.6,1.5-3.6,3.4s1.6,3.4,3.6,3.4
	C118.7,238,120.4,236.5,120.4,234.6z"/>
<path fill="#FFFFFF" stroke="#000000" stroke-miterlimit="10" d="M116.7,231.2c2,0,3.6,1.5,3.6,3.4s-1.6,3.4-3.6,3.4
	s-3.6-1.5-3.6-3.4S114.7,231.2,116.7,231.2z"/>
</svg>
