<?xml version="1.0" encoding="utf-8"?>
<!-- Generator: Adobe Illustrator 15.0.0, SVG Export Plug-In . SVG Version: 6.00 Build 0)  -->
<!DOCTYPE svg PUBLIC "-//W3C//DTD SVG 1.1//EN" "http://www.w3.org/Graphics/SVG/1.1/DTD/svg11.dtd">
<svg version="1.1" id="Layer_1" xmlns="http://www.w3.org/2000/svg" xmlns:xlink="http://www.w3.org/1999/xlink" x="0px" y="0px"
	 width="822px" height="567px" viewBox="0 0 822 567" enable-background="new 0 0 822 567" xml:space="preserve">
<polyline fill="#FFFFFF" points="0,0 822,0 822,567 "/>
<path fill="#FFFFFF" stroke="#000000" stroke-miterlimit="10" d="M749.3,196.7c27.9-4.8,61.9,1.9,59,2.5c-5.6,1.1-34.2,8.6-34.2,8.6
	c-4.3-2.5-34.8-7.4-41.6-8.4C745.8,198.3,749.3,196.7,749.3,196.7z"/>
<path fill="#FFFFFF" stroke="#000000" stroke-miterlimit="10" d="M806.7,240.3c-24.7,0.8-88.101-21.7-88.101-21.7l-10.8-1.1
	l-34.7-3.5l56.301-14.3l0,0c1-0.1,2-0.1,2.899-0.2l41.8,8.4C781.9,220.2,806.7,240.3,806.7,240.3z"/>
<path fill="#FFFFFF" stroke="#000000" stroke-miterlimit="10" d="M774.2,207.8l-41.8-8.4c0.1,0,0.1,0,0.199,0
	C739.3,200.5,769.9,205.3,774.2,207.8z"/>
<path fill="#FFFFFF" stroke="#000000" stroke-miterlimit="10" d="M732.5,199.4c-0.1,0-0.1,0-0.2,0l-1-0.2
	C731.5,199.2,731.9,199.3,732.5,199.4z"/>
<path fill="#FFFFFF" stroke="#000000" stroke-miterlimit="10" d="M470,132c2,29,26.8,28.9,43,36.5c-26.9-6.3-82.8-14.6-82.8-14.6
	C447.2,138.4,470,132,470,132z"/>
<path fill="#FFFFFF" stroke="#000000" stroke-miterlimit="10" d="M707.8,217.5l10.8,1.1c-75.6,43.2-254.5,60.1-254.5,60.1
	c-20.8,4.6-41.6,4.6-41.6,4.6s54-38.6,134.2-31.2C556.7,252.2,665.3,249.6,707.8,217.5z"/>
<path fill="#FFFFFF" stroke="#000000" stroke-miterlimit="10" d="M729.4,199.6L673.1,214l34.7,3.5c-42.5,32-151.1,34.6-151.1,34.6
	c-80.2-7.3-134.2,31.2-134.2,31.2C397,291.4,309,297.3,259,300c-37.8-30.3-92.6-68.4-92.6-68.4c-47-19.3-34.3,42.9-34.3,42.9
	c-10.8-3.4-21.2-3.2-21.2-3.2c17-26.6-1.5-91.3-1.5-91.3c97.9-34.7,320.8-26.2,320.8-26.2s55.899,8.4,82.8,14.6
	C524.4,173.7,682.7,202.9,729.4,199.6z"/>
<path fill="#FFFFFF" stroke="#000000" stroke-miterlimit="10" d="M289.1,340.1c-33.1,4.2-58.4-14-59-14.5
	c-2.5-7.1-4.6-15-6.4-23.699c0,0,7.8-0.301,20.2-1l0.1,1C245.1,319.2,289.1,340.1,289.1,340.1z"/>
<path fill="#FFFFFF" stroke="#000000" stroke-miterlimit="10" d="M230.1,325.6c13.5,39.2,35.1,54.2,35.1,54.2c-2.1,0-4.1,0-6.2-0.1
	l0,0c-2.8-1-5.6-2-8.3-3.101l0,0C187.5,334.7,183.4,277.2,183.4,277.2c21.6,0.8,37.8,9.3,37.8,9.3c0.7,5.4,1.5,10.5,2.5,15.4
	C225.4,310.6,227.6,318.5,230.1,325.6z"/>
<path fill="#FFFFFF" stroke="#000000" stroke-miterlimit="10" d="M250.8,376.6c2.7,1.101,5.4,2.101,8.3,3.101
	c-75.3-3.5-111.8-97.1-111.8-97.1c4.6-5.8,9.3-8.9,13.8-10.3c0,0-0.3,11,6.5,27.8C167.5,300.1,181.9,349,250.8,376.6z"/>
<path fill="#FFFFFF" stroke="#000000" stroke-miterlimit="10" d="M250.8,376.6L250.8,376.6c-68.8-27.5-83.3-76.5-83.3-76.5
	c-6.9-16.7-6.5-27.8-6.5-27.8c12.2-3.8,22.5,4.9,22.5,4.9S187.5,334.7,250.8,376.6z"/>
<path fill="#FFFFFF" stroke="#000000" stroke-miterlimit="10" d="M259,300.1c-5.5,0.301-10.6,0.601-15.1,0.801
	c-12.5,0.6-20.2,1-20.2,1c-1-4.9-1.8-10-2.5-15.4c0,0-16.2-8.5-37.8-9.3c0,0-10.3-8.6-22.5-4.9c-4.5,1.4-9.2,4.5-13.8,10.3
	c-4.3-3.8-9.7-6.3-15.1-8c0,0-12.7-62.2,34.3-42.9C166.5,231.7,221.3,269.8,259,300.1z"/>
<path fill="#FFFFFF" stroke="#000000" stroke-miterlimit="10" d="M80.5,228c0,0-3.1,3.6-10.4,0C70.1,228,75.1,221.6,80.5,228z"/>
<path fill="#FFFFFF" stroke="#000000" stroke-miterlimit="10" d="M60,232.5c-21.2,6.2-34.1,4.1-40.3,2C31.1,235.8,60,232.5,60,232.5
	z"/>
<path fill="#FFFFFF" stroke="#000000" stroke-miterlimit="10" d="M109.4,180.1c0,0,18.5,64.7,1.5,91.3
	c-79.4,0.3-93.6-32.8-95.4-38.2c0.5,0.6,2.1,1,4.2,1.3c6.2,2.1,19.1,4.2,40.3-2c0,0-29,3.3-40.3,2c-3-1-4.4-2-4.4-2
	C23.8,171.6,109.4,180.1,109.4,180.1z M70.1,228c7.3,3.6,10.4,0,10.4,0C75.1,221.6,70.1,228,70.1,228z"/>
</svg>
