<?xml version="1.0" encoding="utf-8"?>
<!-- Generator: Adobe Illustrator 15.0.0, SVG Export Plug-In . SVG Version: 6.00 Build 0)  -->
<!DOCTYPE svg PUBLIC "-//W3C//DTD SVG 1.1//EN" "http://www.w3.org/Graphics/SVG/1.1/DTD/svg11.dtd">
<svg version="1.1" id="Layer_1" xmlns="http://www.w3.org/2000/svg" xmlns:xlink="http://www.w3.org/1999/xlink" x="0px" y="0px"
	 width="822px" height="567px" viewBox="0 0 822 567" enable-background="new 0 0 822 567" xml:space="preserve">
<polyline fill="#FFFFFF" points="0,0 822,0 822,567 "/>
<path fill="#FFFFFF" stroke="#000000" stroke-miterlimit="10" d="M810.9,320.2c0,0-1.9,4.899-12.301,13.7
	c0,0,3.801,20.699-2.699,31.399c0,0-2.301,5.7-7.301,5.7c-8.699-13-17.6-25.4-26.699-37.2l0,0C762.1,333.9,785.7,311.4,810.9,320.2z
	"/>
<path fill="#FFFFFF" stroke="#000000" stroke-miterlimit="10" d="M791.8,443c9.601,7.3,16.101,23.7,16.101,23.7
	C743.6,457.9,742.1,373.1,742.1,373.1C736,346.9,752.8,354.9,752.8,354.9c21.4,14.1,30.2,17.8,33.8,18.199c5.4,1.7,4.5,9,4.5,9
	C782.6,423.9,791.8,443,791.8,443z"/>
<path fill="#FFFFFF" stroke="#000000" stroke-miterlimit="10" d="M490.4,82c9.1,1.1,2.899,3.3-20.4,30.5c0,0-14.4,15.3,8.1,32.9
	c-30.199-7.8-60.3-12.8-89.6-15.6l0,0c0,0,49.4-37.9,65.8-43.3C458.3,85.1,467.5,79.2,490.4,82z"/>
<path fill="#FFFFFF" stroke="#000000" stroke-miterlimit="10" d="M256.4,303.7c3.3,10.8,54.8,86.6,48.3,85
	C259.9,377.6,204.4,299.1,204.4,299.1c-11.5-33.7,9.6-37.5,9.6-37.5C248.4,263.2,256.4,303.7,256.4,303.7z"/>
<path fill="#FFFFFF" stroke="#000000" stroke-miterlimit="10" d="M134.1,210c0.5,1.6-1.8,3.8-5.1,4.8s-6.4,0.6-6.9-1.1
	c-0.5-1.6,1.8-3.8,5.1-4.8C130.5,207.9,133.6,208.4,134.1,210z"/>
<path fill="#FFFFFF" stroke="#000000" stroke-miterlimit="10" d="M786.5,373.2c-3.6-0.4-12.4-4.101-33.8-18.2c0,0-16.8-8-10.7,18.2
	c0,0-27.5,5.5-111.7-43.5c0,0-79.3-64.3-374-26.101c0,0-8-40.5-42.4-42c0,0-21.1,3.8-9.6,37.5c0,0-28.9-1.8-82.2-27.6
	c0,0-84.2-9.2-89.5-17.6c0,0-12.7-6,0.8-11.5c0,0,70.4-16.1,75-22.2c0,0-56.6,19.1-68.9,16.8c0,0-26,6.1-31.4-16.8
	c0,0-8.4-25.3,36.7-42.1c0,0,158.8-66.6,343.601-48.6c29.399,2.9,59.5,7.9,89.6,15.6c99.7,25.6,200.7,81.2,284,188.7
	c9.1,11.8,18,24.101,26.7,37.2C788.7,371.1,789.8,373.5,786.5,373.2z M128.9,214.8c3.3-1,5.6-3.2,5.1-4.8s-3.6-2.1-6.9-1.1
	c-3.3,1-5.6,3.2-5.1,4.8C122.5,215.4,125.6,215.9,128.9,214.8z"/>
</svg>
