<?xml version="1.0" encoding="utf-8"?>
<!-- Generator: Adobe Illustrator 15.0.0, SVG Export Plug-In . SVG Version: 6.00 Build 0)  -->
<!DOCTYPE svg PUBLIC "-//W3C//DTD SVG 1.1//EN" "http://www.w3.org/Graphics/SVG/1.1/DTD/svg11.dtd">
<svg version="1.1" id="Layer_1" xmlns="http://www.w3.org/2000/svg" xmlns:xlink="http://www.w3.org/1999/xlink" x="0px" y="0px"
	 width="822px" height="567px" viewBox="0 0 822 567" enable-background="new 0 0 822 567" xml:space="preserve">
<polyline fill="#FFFFFF" points="0,0 822,0 822,567 "/>
<path fill="#FFFFFF" stroke="#000000" stroke-miterlimit="10" d="M813.8,314.8c0,0-46.399,9.5-103.5-58.3l-9.5-13.1l45.8,2.6l0,0
	l13.7,8.1C760.2,254.2,790,311.3,813.8,314.8z"/>
<path fill="#FFFFFF" stroke="#000000" stroke-miterlimit="10" d="M722.2,232.8c0,0,38-22.6,85.6-20.2c0,0-39.3,23.8-47.6,41.6
	l-13.7-8.1l0,0l-12.5-7.4c-4.1-1.8-8.1-3.5-12.2-5.2L722.2,232.8z"/>
<path fill="#FFFFFF" stroke="#000000" stroke-miterlimit="10" d="M441.5,160.1c80.3,5.2,168.8,26.1,280.3,73.4
	c4,1.7,8.101,3.5,12.2,5.2l12.5,7.4l-45.8-2.6l9.5,13.1c0,0-148.7-7.7-239.101,27.4C419.9,303.9,315,322.2,247.4,313.5
	c-10-1.3-19.2-3.2-27.3-5.7c-10.2-3.2-28.5,7.101-28.5,7.101S77.5,328,20.4,307.7c0,0-61.3-77.2,72.6-103.5
	c94.3-18.5,173.1-37.5,254.6-43.5C378.2,158.4,409.2,158,441.5,160.1z M85.1,273.1c4.8-1,8.3-4.1,7.7-7c-0.6-2.9-5-4.5-9.8-3.5
	s-8.3,4.1-7.7,7C75.9,272.5,80.3,274.1,85.1,273.1z"/>
<path fill="#FFFFFF" stroke="#000000" stroke-miterlimit="10" d="M347.6,160.7c1.801-2.8,37.101-56.3,95.101-54
	c0,0-33.7,31.4-1.101,53.4C409.2,158,378.2,158.4,347.6,160.7z"/>
<path fill="#FFFFFF" stroke="#000000" stroke-miterlimit="10" d="M291.6,363.6c0,0-33.3,24.9-99.9-48.8c0,0,18.3-10.399,28.5-7.1
	c8.1,2.6,17.3,4.399,27.3,5.7v0.3C247.5,313.8,238.1,335.1,291.6,363.6z"/>
<path fill="#FFFFFF" stroke="#000000" stroke-miterlimit="10" d="M92.8,266.1c0.6,2.9-2.9,6-7.7,7c-4.8,1-9.2-0.6-9.8-3.5
	c-0.6-2.9,2.9-6,7.7-7C87.9,261.7,92.2,263.2,92.8,266.1z"/>
<g>
	<path fill="#201600" d="M23.3,306c6.5-2.5,12.8-5.3,18.9-8.7c3-1.7,6-3.5,8.8-5.6c1.4-1,2.8-2.101,4-3.3c1.3-1.2,2.5-2.4,3.5-3.801
		c-1,1.4-2.2,2.7-3.4,3.9c-1.3,1.2-2.6,2.3-4,3.4c-2.8,2.1-5.7,4-8.7,5.8c-6,3.5-12.3,6.5-18.7,9.2L23.3,306z"/>
</g>
</svg>
