<?xml version="1.0" encoding="utf-8"?>
<!-- Generator: Adobe Illustrator 15.0.0, SVG Export Plug-In . SVG Version: 6.00 Build 0)  -->
<!DOCTYPE svg PUBLIC "-//W3C//DTD SVG 1.1//EN" "http://www.w3.org/Graphics/SVG/1.1/DTD/svg11.dtd">
<svg version="1.1" id="layer_x5F_www.ABC-color.com"
	 xmlns="http://www.w3.org/2000/svg" xmlns:xlink="http://www.w3.org/1999/xlink" x="0px" y="0px" width="822px" height="567px"
	 viewBox="0 0 822 567" enable-background="new 0 0 822 567" xml:space="preserve">
<polyline fill="#FFFFFF" points="822,0 822,567 0,567 "/>
<polygon fill="#FFFFFF" stroke="#000000" stroke-miterlimit="10" points="434.5,550.5 384.5,550.5 384.5,50 409.5,40 434.5,50 "/>
<polygon fill="#FFFFFF" stroke="#000000" stroke-miterlimit="10" points="384.5,550.5 334.5,550.5 334.5,50 359.5,40 384.5,50 "/>
<polygon fill="#FFFFFF" stroke="#000000" stroke-miterlimit="10" points="334.5,550.5 284.5,550.5 284.5,50 309.5,40 334.5,50 "/>
<polygon id="www.ABC-color.com" fill="#FFFFFF" stroke="#000000" stroke-miterlimit="10" points="284.5,550.5 234.5,550.5 234.5,50 
	259.5,40 284.5,50 "/>
<polygon fill="#FFFFFF" stroke="#000000" stroke-miterlimit="10" points="234.5,550.5 184.5,550.5 184.5,50 209.5,40 234.5,50 "/>
<polygon fill="#FFFFFF" stroke="#000000" stroke-miterlimit="10" points="184.5,550.5 134.5,550.5 134.5,50 159.5,40 184.5,50 "/>
<polygon fill="#FFFFFF" stroke="#000000" stroke-miterlimit="10" points="134.5,550.5 84.5,550.5 84.5,50 109.5,40 134.5,50 "/>
<polygon fill="#FFFFFF" stroke="#000000" stroke-miterlimit="10" points="84.5,550.5 34.5,550.5 34.5,50 59.5,40 84.5,50 "/>
<polygon fill="#FFFFFF" stroke="#000000" stroke-miterlimit="10" points="484.5,550.5 434.5,550.5 434.5,50 459.5,40 484.5,50 "/>
<polygon fill="#FFFFFF" stroke="#000000" stroke-miterlimit="10" points="534.5,550.5 484.5,550.5 484.5,50 509.5,40 534.5,50 "/>
<polygon fill="#FFFFFF" stroke="#000000" stroke-miterlimit="10" points="584.5,550.5 534.5,550.5 534.5,50 559.5,40 584.5,50 "/>
<polygon fill="#FFFFFF" stroke="#000000" stroke-miterlimit="10" points="634.5,550.5 584.5,550.5 584.5,50 609.5,40 634.5,50 "/>
<polygon fill="#FFFFFF" stroke="#000000" stroke-miterlimit="10" points="684.5,550.5 634.5,550.5 634.5,50 659.5,40 684.5,50 "/>
<polygon fill="#FFFFFF" stroke="#000000" stroke-miterlimit="10" points="734.5,550.5 684.5,550.5 684.5,50 709.5,40 734.5,50 "/>
<polygon fill="#FFFFFF" stroke="#000000" stroke-miterlimit="10" points="784.5,550.5 734.5,550.5 734.5,50 759.5,40 784.5,50 "/>
</svg>
