<?xml version="1.0" encoding="utf-8"?>
<!-- Generator: Adobe Illustrator 15.0.0, SVG Export Plug-In . SVG Version: 6.00 Build 0)  -->
<!DOCTYPE svg PUBLIC "-//W3C//DTD SVG 1.1//EN" "http://www.w3.org/Graphics/SVG/1.1/DTD/svg11.dtd">
<svg version="1.1" id="Layer_1" xmlns="http://www.w3.org/2000/svg" xmlns:xlink="http://www.w3.org/1999/xlink" x="0px" y="0px"
	 width="822px" height="567px" viewBox="0 0 822 567" enable-background="new 0 0 822 567" xml:space="preserve">
<polyline fill="#FFFFFF" points="0,0 822,0 822,567 "/>
<rect x="354.5" y="165.5" fill="none" stroke="#000000" stroke-miterlimit="10" width="22" height="225"/>
<rect x="286.5" y="165.5" fill="none" stroke="#000000" stroke-miterlimit="10" width="23" height="225"/>
<rect x="219.5" y="165.5" fill="none" stroke="#000000" stroke-miterlimit="10" width="22" height="225"/>
<rect x="151.5" y="165.5" fill="none" stroke="#000000" stroke-miterlimit="10" width="23" height="225"/>
<rect x="489.5" y="165.5" fill="none" stroke="#000000" stroke-miterlimit="10" width="22" height="225"/>
<rect x="624.5" y="165.5" fill="none" stroke="#000000" stroke-miterlimit="10" width="22" height="225"/>
<rect x="556.5" y="165.5" fill="none" stroke="#000000" stroke-miterlimit="10" width="23" height="225"/>
<rect x="421.5" y="165.5" fill="none" stroke="#000000" stroke-miterlimit="10" width="23" height="225"/>
<rect x="354.5" y="390.5" fill="#FFFFFF" stroke="#000000" stroke-miterlimit="10" width="22" height="30"/>
<rect x="691.5" y="390.5" fill="#FFFFFF" stroke="#000000" stroke-miterlimit="10" width="33" height="30"/>
<rect x="74.5" y="390.5" fill="#FFFFFF" stroke="#000000" stroke-miterlimit="10" width="32" height="30"/>
<rect x="151.5" y="390.5" fill="#FFFFFF" stroke="#000000" stroke-miterlimit="10" width="23" height="30"/>
<rect x="286.5" y="390.5" fill="#FFFFFF" stroke="#000000" stroke-miterlimit="10" width="23" height="30"/>
<rect x="219.5" y="390.5" fill="#FFFFFF" stroke="#000000" stroke-miterlimit="10" width="22" height="30"/>
<rect x="556.5" y="390.5" fill="#FFFFFF" stroke="#000000" stroke-miterlimit="10" width="23" height="30"/>
<rect x="489.5" y="390.5" fill="#FFFFFF" stroke="#000000" stroke-miterlimit="10" width="22" height="30"/>
<rect x="624.5" y="390.5" fill="#FFFFFF" stroke="#000000" stroke-miterlimit="10" width="22" height="30"/>
<rect x="421.5" y="390.5" fill="#FFFFFF" stroke="#000000" stroke-miterlimit="10" width="23" height="30"/>
<rect x="286.5" y="135.5" fill="#FFFFFF" stroke="#000000" stroke-miterlimit="10" width="23" height="30"/>
<rect x="489.5" y="135.5" fill="#FFFFFF" stroke="#000000" stroke-miterlimit="10" width="22" height="30"/>
<rect x="624.5" y="135.5" fill="#FFFFFF" stroke="#000000" stroke-miterlimit="10" width="22" height="30"/>
<rect x="556.5" y="135.5" fill="#FFFFFF" stroke="#000000" stroke-miterlimit="10" width="23" height="30"/>
<rect x="691.5" y="135.5" fill="#FFFFFF" stroke="#000000" stroke-miterlimit="10" width="33" height="30"/>
<rect x="151.5" y="135.5" fill="#FFFFFF" stroke="#000000" stroke-miterlimit="10" width="23" height="30"/>
<rect x="74.5" y="135.5" fill="#FFFFFF" stroke="#000000" stroke-miterlimit="10" width="32" height="30"/>
<rect x="421.5" y="135.5" fill="#FFFFFF" stroke="#000000" stroke-miterlimit="10" width="23" height="30"/>
<rect x="219.5" y="135.5" fill="#FFFFFF" stroke="#000000" stroke-miterlimit="10" width="22" height="30"/>
<rect x="354.5" y="135.5" fill="#FFFFFF" stroke="#000000" stroke-miterlimit="10" width="22" height="30"/>
<path fill="#FFFFFF" stroke="#000000" stroke-miterlimit="10" d="M151.5,165v-30V56.3c0-12.4-10.1-22.5-22.5-22.5
	s-22.5,10.1-22.5,22.5V135v30v225v30v86.5h45V420v-30V165z"/>
<path fill="#FFFFFF" stroke="#000000" stroke-miterlimit="10" d="M219.5,165v-30V56.3c0-12.4-10.1-22.5-22.5-22.5
	s-22.5,10.1-22.5,22.5V135v30v225v30v86.5h45V420v-30V165z"/>
<path fill="#FFFFFF" stroke="#000000" stroke-miterlimit="10" d="M286.5,165v-30V56.3c0-12.4-10.1-22.5-22.5-22.5
	s-22.5,10.1-22.5,22.5V135v30v225v30v86.5h45V420v-30V165z"/>
<path fill="#FFFFFF" stroke="#000000" stroke-miterlimit="10" d="M354.5,165v-30V56.3c0-12.4-10.1-22.5-22.5-22.5
	s-22.5,10.1-22.5,22.5V135v30v225v30v86.5h45V420v-30V165z"/>
<path fill="#FFFFFF" stroke="#000000" stroke-miterlimit="10" d="M421.5,165v-30V56.3c0-12.4-10.1-22.5-22.5-22.5
	s-22.5,10.1-22.5,22.5V135v30v225v30v86.5h45V420v-30V165z"/>
<path fill="#FFFFFF" stroke="#000000" stroke-miterlimit="10" d="M489.5,165v-30V56.3c0-12.4-10.1-22.5-22.5-22.5
	s-22.5,10.1-22.5,22.5V135v30v225v30v86.5h45V420v-30V165z"/>
<path fill="#FFFFFF" stroke="#000000" stroke-miterlimit="10" d="M556.5,165v-30V56.3c0-12.4-10.1-22.5-22.5-22.5
	s-22.5,10.1-22.5,22.5V135v30v225v30v86.5h45V420v-30V165z"/>
<path fill="#FFFFFF" stroke="#000000" stroke-miterlimit="10" d="M624.5,165v-30V56.3c0-12.4-10.1-22.5-22.5-22.5
	s-22.5,10.1-22.5,22.5V135v30v225v30v86.5h45V420v-30V165z"/>
<path fill="#FFFFFF" stroke="#000000" stroke-miterlimit="10" d="M691.5,135V56.3c0-12.4-10.1-22.5-22.5-22.5s-22.5,10.1-22.5,22.5
	V135v30v225v30v86.5h45V420v-30V165V135z"/>
</svg>
