<?xml version="1.0" encoding="utf-8"?>
<!-- Generator: Adobe Illustrator 15.0.0, SVG Export Plug-In . SVG Version: 6.00 Build 0)  -->
<!DOCTYPE svg PUBLIC "-//W3C//DTD SVG 1.1//EN" "http://www.w3.org/Graphics/SVG/1.1/DTD/svg11.dtd">
<svg version="1.1" id="Layer_1" xmlns="http://www.w3.org/2000/svg" xmlns:xlink="http://www.w3.org/1999/xlink" x="0px" y="0px"
	 width="822px" height="567px" viewBox="0 0 822 567" enable-background="new 0 0 822 567" xml:space="preserve">
<polyline fill="#FFFFFF" points="0,0 822,0 822,567 "/>
<path fill="none" stroke="#000000" d="M51.4,536.6"/>
<path fill="none" stroke="#000000" d="M77.4,536.5"/>
<path fill="#FFFFFF" stroke="#000000" stroke-miterlimit="10" d="M130.5,41.8c0-13.5-11-24.5-24.5-24.5s-24.5,11-24.5,24.5v85.9h49
	V41.8z"/>
<rect x="81.5" y="438.7" fill="#FFFFFF" stroke="#000000" stroke-miterlimit="10" width="49" height="94"/>
<rect x="81.5" y="160.7" fill="#FFFFFF" stroke="#000000" stroke-miterlimit="10" width="49" height="245"/>
<rect x="155.5" y="438.7" fill="#FFFFFF" stroke="#000000" stroke-miterlimit="10" width="49" height="94"/>
<rect x="155.5" y="160.7" fill="#FFFFFF" stroke="#000000" stroke-miterlimit="10" width="49" height="245"/>
<path fill="#FFFFFF" stroke="#000000" stroke-miterlimit="10" d="M204.5,41.8c0-13.5-11-24.5-24.5-24.5s-24.5,11-24.5,24.5v85.9h49
	V41.8z"/>
<path fill="#FFFFFF" stroke="#000000" stroke-miterlimit="10" d="M277.5,41.8c0-13.5-11-24.5-24.5-24.5s-24.5,11-24.5,24.5v85.9h49
	V41.8z"/>
<rect x="228.5" y="160.7" fill="#FFFFFF" stroke="#000000" stroke-miterlimit="10" width="49" height="245"/>
<rect x="228.5" y="438.7" fill="#FFFFFF" stroke="#000000" stroke-miterlimit="10" width="49" height="94"/>
<path fill="#FFFFFF" stroke="#000000" stroke-miterlimit="10" d="M351.5,41.8c0-13.5-11-24.5-24.5-24.5s-24.5,11-24.5,24.5v85.9h49
	V41.8z"/>
<rect x="302.5" y="160.7" fill="#FFFFFF" stroke="#000000" stroke-miterlimit="10" width="49" height="245"/>
<rect x="302.5" y="438.7" fill="#FFFFFF" stroke="#000000" stroke-miterlimit="10" width="49" height="94"/>
<rect x="375.5" y="160.7" fill="#FFFFFF" stroke="#000000" stroke-miterlimit="10" width="49" height="245"/>
<path fill="#FFFFFF" stroke="#000000" stroke-miterlimit="10" d="M424.5,41.8c0-13.5-11-24.5-24.5-24.5s-24.5,11-24.5,24.5v85.9h49
	V41.8z"/>
<rect x="375.5" y="438.7" fill="#FFFFFF" stroke="#000000" stroke-miterlimit="10" width="49" height="94"/>
<rect x="449.5" y="160.7" fill="#FFFFFF" stroke="#000000" stroke-miterlimit="10" width="49" height="245"/>
<rect x="449.5" y="438.7" fill="#FFFFFF" stroke="#000000" stroke-miterlimit="10" width="49" height="94"/>
<path fill="#FFFFFF" stroke="#000000" stroke-miterlimit="10" d="M498.5,41.8c0-13.5-11-24.5-24.5-24.5s-24.5,11-24.5,24.5v85.9h49
	V41.8z"/>
<path fill="#FFFFFF" stroke="#000000" stroke-miterlimit="10" d="M572.5,41.8c0-13.5-11-24.5-24.5-24.5c-13.6,0-24.5,11-24.5,24.5
	v85.9h49V41.8z"/>
<rect x="523.5" y="438.7" fill="#FFFFFF" stroke="#000000" stroke-miterlimit="10" width="49" height="94"/>
<rect x="523.5" y="160.7" fill="#FFFFFF" stroke="#000000" stroke-miterlimit="10" width="49" height="245"/>
<path fill="#FFFFFF" stroke="#000000" stroke-miterlimit="10" d="M645.5,41.8c0-13.5-11-24.5-24.5-24.5c-13.6,0-24.5,11-24.5,24.5
	v85.9h49V41.8z"/>
<rect x="596.5" y="438.7" fill="#FFFFFF" stroke="#000000" stroke-miterlimit="10" width="49" height="94"/>
<rect x="596.5" y="160.7" fill="#FFFFFF" stroke="#000000" stroke-miterlimit="10" width="49" height="245"/>
<path fill="#FFFFFF" stroke="#000000" stroke-miterlimit="10" d="M719.5,41.8c0-13.5-11-24.5-24.5-24.5s-24.5,11-24.5,24.5v85.9h49
	V41.8z"/>
<rect x="670.5" y="438.7" fill="#FFFFFF" stroke="#000000" stroke-miterlimit="10" width="49" height="94"/>
<rect x="670.5" y="160.7" fill="#FFFFFF" stroke="#000000" stroke-miterlimit="10" width="49" height="245"/>
<polygon fill="#FFFFFF" stroke="#000000" stroke-miterlimit="10" points="668.9,405.7 615.3,405.7 588.5,405.7 535,405.7 
	508.2,405.7 454.6,405.7 427.8,405.7 374.3,405.7 347.5,405.7 293.9,405.7 267.1,405.7 213.6,405.7 186.8,405.7 133.2,405.7 
	106.4,405.7 52.9,405.7 25,405.7 25,438.7 52.9,438.7 106.4,438.7 133.2,438.7 186.8,438.7 213.6,438.7 267.1,438.7 293.9,438.7 
	347.5,438.7 374.3,438.7 427.8,438.7 454.6,438.7 508.2,438.7 535,438.7 588.5,438.7 615.3,438.7 668.9,438.7 695.7,438.7 
	749.2,438.7 775,438.7 775,405.7 749.2,405.7 695.7,405.7 "/>
<polygon fill="#FFFFFF" stroke="#000000" stroke-miterlimit="10" points="133.2,160.7 186.8,160.7 213.6,160.7 267.1,160.7 
	293.9,160.7 347.5,160.7 374.3,160.7 427.8,160.7 454.6,160.7 508.2,160.7 535,160.7 588.5,160.7 615.3,160.7 668.9,160.7 
	695.7,160.7 749.2,160.7 775,160.7 775,127.7 749.2,127.7 695.7,127.7 668.9,127.7 615.3,127.7 588.5,127.7 535,127.7 508.2,127.7 
	454.6,127.7 427.8,127.7 374.3,127.7 347.5,127.7 293.9,127.7 267.1,127.7 213.6,127.7 186.8,127.7 133.2,127.7 106.4,127.7 
	52.9,127.7 25,127.7 25,160.7 52.9,160.7 106.4,160.7 "/>
</svg>
