<?xml version="1.0" encoding="utf-8"?>
<!-- Generator: Adobe Illustrator 15.0.0, SVG Export Plug-In . SVG Version: 6.00 Build 0)  -->
<!DOCTYPE svg PUBLIC "-//W3C//DTD SVG 1.1//EN" "http://www.w3.org/Graphics/SVG/1.1/DTD/svg11.dtd">
<svg version="1.1" id="Layer_1" xmlns="http://www.w3.org/2000/svg" xmlns:xlink="http://www.w3.org/1999/xlink" x="0px" y="0px"
	 width="822px" height="567px" viewBox="0 0 822 567" enable-background="new 0 0 822 567" xml:space="preserve">
<title>Coloring ten sectors of the circle</title>
<desc>Vector coloring ten sectors of the circle</desc>
<g>
	<path fill="#FFFFFF" stroke="#000000" d="M173.2,206.8L292,245.5c-4,12.2-6,25.1-6,38.5c0,13.5,2.1,26.5,6,38.6l-118.9,38.5l0,0
		C165.3,336.9,161,311,161,284S165.3,231.2,173.2,206.8L173.2,206.8z"/>
	<path fill="#FFFFFF" stroke="#000000" d="M337.5,385.1l-73.4,101L264,486.2c-42.2-30.7-74.4-74.4-90.8-125.101l0,0L292,322.6
		C300.3,348,316.4,369.8,337.5,385.1z"/>
	<path fill="#FFFFFF" stroke="#000000" d="M411,409v125c-55,0-105.8-17.7-147.1-47.7l0.1-0.1l73.4-101
		C358.1,400.2,383.5,409,411,409z"/>
	<path fill="#FFFFFF" stroke="#000000" d="M411,534V409c27.5,0,52.9-8.8,73.5-23.9l73.5,101l0.1,0.101C516.8,516.3,466,534,411,534z
		"/>
	<path fill="#FFFFFF" stroke="#000000" d="M648.8,361.1L648.8,361.1C632.4,411.9,600.2,455.5,558,486.2l-0.1-0.101l-73.5-101
		c21.1-15.3,37.199-37.1,45.399-62.5L648.8,361.1z"/>
	<path fill="#FFFFFF" stroke="#000000" d="M648.9,206.8C656.8,231.2,661,257,661,284s-4.2,52.9-12.1,77.1l0,0L530,322.6
		c4-12.199,6-25.1,6-38.6s-2.1-26.5-6-38.6L648.9,206.8L648.9,206.8z"/>
	<path fill="#FFFFFF" stroke="#000000" d="M648.9,206.8L648.9,206.8L530,245.4c-8.2-25.4-24.4-47.2-45.4-62.5l73.5-101l0.101-0.1
		C600.2,112.4,632.5,156.1,648.9,206.8z"/>
	<path fill="#FFFFFF" stroke="#000000" d="M558.1,81.7l-0.1,0.1l-73.5,101c-20.6-15-46-23.9-73.5-23.9V34
		C466,34,516.8,51.7,558.1,81.7z"/>
	<path fill="#FFFFFF" stroke="#000000" d="M411,34v125c-27.5,0-52.9,8.9-73.5,23.9L264,81.8l-0.1-0.1C305.2,51.7,356,34,411,34z"/>
	<path fill="#FFFFFF" stroke="#000000" d="M264,81.8l73.4,101C316.3,198.1,300.2,220,292,245.4l-118.9-38.6l0,0
		c16.4-50.7,48.6-94.4,90.8-125.1L264,81.8z"/>
</g>
</svg>
