<?xml version="1.0" encoding="utf-8"?>
<!-- Generator: Adobe Illustrator 15.0.0, SVG Export Plug-In . SVG Version: 6.00 Build 0)  -->
<!DOCTYPE svg PUBLIC "-//W3C//DTD SVG 1.1//EN" "http://www.w3.org/Graphics/SVG/1.1/DTD/svg11.dtd">
<svg version="1.1" id="Layer_1" xmlns="http://www.w3.org/2000/svg" xmlns:xlink="http://www.w3.org/1999/xlink" x="0px" y="0px"
	 width="600px" height="600px" viewBox="0 0 600 600" enable-background="new 0 0 600 600" xml:space="preserve">
<title>Coloring faceted star</title>
<desc>Vector coloring Faceted star</desc>
<polygon fill="#FFFFFF" stroke="#000000" points="600,225 425,375 300,300 "/>
<polygon fill="#FFFFFF" stroke="#000000" points="600,225 300,300 380,220 "/>
<polygon fill="#FFFFFF" stroke="#000000" points="425,375 485,600 300,300 "/>
<polygon fill="#FFFFFF" stroke="#000000" points="300,300 485,600 300,470 "/>
<polygon fill="#FFFFFF" stroke="#000000" points="300,0 380,220 300,300 "/>
<polygon fill="#FFFFFF" stroke="#000000" points="300,300 300,470 115,600 "/>
<polygon fill="#FFFFFF" stroke="#000000" points="300,0 300,300 220,220 "/>
<polygon fill="#FFFFFF" stroke="#000000" points="300,300 115,600 175,375 "/>
<polygon fill="#FFFFFF" stroke="#000000" points="300,300 175,375 0,225 "/>
<polygon fill="#FFFFFF" stroke="#000000" points="300,300 0,225 220,220 "/>
</svg>
