<?xml version="1.0" encoding="utf-8"?>
<!-- Generator: Adobe Illustrator 15.0.0, SVG Export Plug-In . SVG Version: 6.00 Build 0)  -->
<!DOCTYPE svg PUBLIC "-//W3C//DTD SVG 1.1//EN" "http://www.w3.org/Graphics/SVG/1.1/DTD/svg11.dtd">
<svg version="1.1" id="layer_x5F_www.ABC-color.com"
	 xmlns="http://www.w3.org/2000/svg" xmlns:xlink="http://www.w3.org/1999/xlink" x="0px" y="0px" width="822px" height="567px"
	 viewBox="0 0 822 567" enable-background="new 0 0 822 567" xml:space="preserve">
<path fill="#FFFFFF" stroke="#000000" d="M765.6,50.4c-6.1,17.1-15.5,41.8-21.1,68.1c-5,23.6-5.6,45-14.3,65.2
	c-7.9,18.4-22.5,35.8-53.3,53.1c-3.4-17.3-10.102-35.9-26.802-44.4c-27.198-9.3-57.198-4.6-85.6-6.3c4-11.9,8.5-24,13.9-34.9
	c5.1-10.2,11.1-19.3,18.5-26.2c14.5-13.5,34.3-20.3,53.898-27.5c27.102-10,59.3-16.8,84.8-27.3C742.7,67.3,755.6,59.4,765.6,50.4z"
	/>
<path fill="#FFFFFF" stroke="#000000" d="M699.7,262c2.7,2.4,5.3,4.9,7.898,7.2c6.102,5.3,12.9,10.2,15.7,14.6
	c18.4,28.8-20.7,54-42.5,66.101C664.9,356.3,655.4,366.5,641.9,373.2c-37,18.2-123.602,7.1-184.802,10.6
	c-5.6-5-15.5-5.6-17.698-13.6c9.5-10.8,24-17.8,38.898-16.7c28.4,2.1,58.2,3.1,86.4-0.5c0.2,0.2,0.398,0.3,0.7,0.5
	c39.6,4,123.698-9.1,132.5-59c2.1-11.6,0.1-26.9-18.102-40.4c0-0.6,0-1.3,0-2C685.7,250.2,692.7,255.8,699.7,262z"/>
<path fill="#FFFFFF" stroke="#000000" d="M703.8,373.2c11,17.5,15.102,37.6,12.102,58.3c-3,3.4-6.302,6.3-9.802,8.9l0,0
	c-23.5,17-55.898,15.3-83.898,16.698c-11.7-0.8-24.602-2.6-35.8,0.5c-8.802,0.4-18.7,3.2-26.4,7.602c-3.3-0.2-7,0.8-9.2,3.3
	c-7.2,1-14.2,3.1-21,5.3c-6-0.398-12.398,0.8-18.398,0.5c-0.5-0.8-0.9-1.6-1.302-2C572.8,457.4,635.9,422.8,671.5,368.1
	C682.1,367.5,695.1,363.3,703.8,373.2z"/>
<path fill="#FFFFFF" stroke="#000000" d="M679.8,254c18.2,13.6,20.102,28.8,18.102,40.4c-8.9,50-92.9,63-132.5,59
	c-0.2-0.2-0.4-0.301-0.7-0.5c8.1-3.9,17.8-5.801,25.2-11.301c18-18,48.5-18,68.198-28C682.2,301.3,680,280.2,679.8,254z"/>
<path fill="#FFFFFF" stroke="#000000" d="M682.9,480.5c9,5.5,17,12.3,23.198,21.2c-14.398-2.4-28.898-5.8-43.5-9.602
	c-25.398-6.6-50.898-14.1-76.3-18.5c-7.8-5.1-18.3-3.898-26.398-8.6c7.8-4.4,17.6-7.2,26.398-7.6c11.3-3.102,24.2-1.302,35.8-0.5
	C642.1,463.5,664.6,469.2,682.9,480.5z"/>
<path fill="#FFFFFF" stroke="#000000" d="M679.8,254c0.2,26.2,2.4,47.3-21.8,59.7c-19.7,10.1-50.2,10.1-68.2,28
	c-7.398,5.5-17.1,7.3-25.2,11.3c-28.198,3.6-58,2.6-86.398,0.5c-13.7-32.3-49.602-44.3-75.5-64.1c-6.3-15.601,5.398-30.2,18.6-37.5
	c6.102,8.3,15.602,13.3,24.2,18.5c-0.8,2.6,1.9,4.3,2.9,6.4c8,16.601,18.198,30.3,33.8,40c19.398,12,74.3,9.4,91.1-0.8
	c27.7,2.2,56.9,3.5,70-21c14.4-26.9-10.3-53.4-26.6-79c-0.5-0.2-1.7-0.3-2.5-0.5c-5.4-14.1-23.3-13.6-35.602-11.9
	c-10.8-13.5-29.698-6.6-42.398,0c-0.4-0.6-0.7-1.3-1-1.9c-19-6.4-34.5-21.1-55.602-17.2c-4.398,0.8-8.6,2.2-13.1,3
	c-34,6.5-75.6-0.3-104.5,7.8c-0.3-0.1-0.7-0.2-1-0.4c2.4-14.4,16.4-22.4,27-29.8c20.9-10.1,44.5-11.6,67.4-13.1
	c0.198,0.1,0.398,0.2,0.698,0.3c21.102,1.2,35.9-2.8,54.302,5.6c20,9.1,32,29,54.1,28.1c28.4,1.7,58.4-3,85.6,6.3
	c16.602,8.5,23.302,27.2,26.802,44.4c0.398,4.9-0.102,10.9,2.8,15.1C679.8,252.6,679.8,253.3,679.8,254z"/>
<path fill="#FFFFFF" stroke="#000000" d="M680.8,349.9c-1.5,6.5-7.3,11.5-9.3,18C635.9,422.6,572.7,457.2,510.1,472.1
	c-5.8-0.198-11.3-1.6-16.698-3.5C488.6,463.2,482.4,458.2,479.8,450.9c-4.898-21.5-1.5-51.5-21.898-64.9c-0.2-0.5-0.5-1.5-0.802-2.3
	c61.2-3.4,147.802,7.7,184.802-10.601C655.4,366.5,664.8,356.3,680.8,349.9z"/>
<path fill="#FFFFFF" stroke="#000000" d="M616.8,215.8c16.4,25.7,41.102,52.1,26.602,79c-13.2,24.5-42.4,23.2-70,21
	c-11.602-5.5-28.302-6.3-36.102-17.2c21.9-3.899,56.9-6,66.8-23c8.102-14,2.302-34.5-11.898-49.9c-4.602-7.1-9.4-14.7-13.5-22.2
	c12.3-1.7,30.2-2.3,35.6,11.9C615.1,215.5,616.3,215.6,616.8,215.8z"/>
<path fill="#FFFFFF" stroke="#000000" d="M592.2,225.7c14.2,15.4,20,36,11.898,49.9c-9.8,17-44.8,19.2-66.8,23
	c-21.2,1.2-41-6.699-57.8-18.399c-13.2-16.1-36.2-35.8-30.9-55.6c5.302-19.7,50.2-19.2,60-5.5c-5.1,7-15.6,9.2-18,17.7
	C522.6,227.2,560,207.3,592.2,225.7z M545.8,278.6c11.602-3.7,27.3-14.8,23.8-27c-7.3-25.8-61.8-7.8-67.198,14
	C513.9,272,530.2,283.6,545.8,278.6z"/>
<path fill="#FFFFFF" stroke="#000000" d="M586.3,473.6c10,10.7,14,26.4,12.102,40.7c-18.7-10.1-38.9-20.7-59.102-27.898
	c-2.898-4.4-6.5-8.5-9.6-12.9c6.8-2.2,13.8-4.3,21-5.3c2.2-2.5,5.898-3.5,9.2-3.3C568,469.7,578.5,468.5,586.3,473.6z"/>
<path fill="#FFFFFF" stroke="#000000" d="M578.8,203.5c4,7.5,8.9,15.1,13.5,22.2c-32.3-18.4-69.7,1.5-101.7,11.1
	c2.4-8.5,13-10.7,18-17.7c6-0.5,11.802-4.3,15.102-9.1c4.6-1.2,8.3-4.6,12.6-6.6C549.1,196.9,567.9,190,578.8,203.5z"/>
<path fill="#FFFFFF" stroke="#000000" d="M569.7,251.5c3.5,12.3-12.3,23.3-23.8,27c-15.602,5-31.9-6.6-43.302-13
	C507.9,243.7,562.3,225.7,569.7,251.5z"/>
<path fill="#FFFFFF" stroke="#000000" d="M537.3,298.6c7.8,10.9,24.5,11.7,36.102,17.2c-16.802,10.3-71.7,12.8-91.102,0.8
	c-15.7-9.699-25.898-23.398-33.8-40c-1-2.1-3.7-3.8-2.9-6.4c11.102,3.1,22.102,9.1,33.9,9.9C496.4,292,516.2,299.9,537.3,298.6z"/>
<path fill="#FFFFFF" stroke="#000000" d="M539.4,486.5c5.698,17.8,4.6,39.5-4.7,55.3c-16.602-11.7-36-24.5-45-43.5
	c6.2-5.6,13.8-10.8,19.3-17.3c-0.3-2.7,2.4-4.2,2.4-6.9c6,0.302,12.398-0.898,18.398-0.5C532.9,478,536.5,482.1,539.4,486.5z"/>
<path fill="#FFFFFF" stroke="#000000" d="M535.3,201.6c0.3,0.6,0.602,1.3,1,1.9c-4.3,1.9-8,5.3-12.6,6.6
	c-25.2-33.2-66.5-4.6-93.3,10.8c-26.602-14.5-83.7,16.9-62.302,48.8c-22.3-5.2-55.898-19.2-52.5-47.5c2.9-9.4,14.102-11.8,20.5-17.9
	c6.302-3.7,13.7-4,20-7.3c1.802-0.1,4.302,0.1,5-2c0.302,0.1,0.7,0.2,1,0.4c28.802-8.1,70.5-1.3,104.5-7.8
	c4.602-0.9,8.7-2.2,13.102-3C500.8,180.5,516.3,195.2,535.3,201.6z"/>
<path fill="#FFFFFF" stroke="#000000" d="M523.7,210c-3.3,4.8-9.2,8.6-15.102,9.1c-9.8-13.7-54.698-14.2-60,5.5
	c-5.3,19.8,17.802,39.5,30.9,55.6c-11.8-0.8-22.8-6.8-33.9-9.9C436.9,265.1,427.4,260,421.4,251.8c-7-11.2-1.602-24.6,9.1-31
	C457.2,205.4,498.5,176.8,523.7,210z"/>
<path fill="#FFFFFF" stroke="#000000" d="M510.1,472.1c0.4,0.5,0.802,1.2,1.302,2c0,2.7-2.802,4.2-2.4,6.9
	c-5.5,6.6-13,11.8-19.3,17.3c-43.3,23.602-91.9,38.9-139.9,47.7c31.9-15.2,52.602-47.1,63.5-79.9c17.2,5.4,35.5,1,52.9,0.302
	c9.3-2.302,18.6,1.198,27.3,2C498.8,470.6,504.3,471.9,510.1,472.1z"/>
<path fill="#FFFFFF" stroke="#000000" d="M479.8,450.9c2.602,7.3,8.8,12.198,13.602,17.698c-8.7-0.8-18-4.3-27.302-2
	c-17.3,0.7-35.698,5-52.898-0.3c-42.4-11.3-83.7-32.2-108.102-70c-5.398-9-10.199-18.6-15.1-27.898c-0.8-8.2-4.6-17.301-1-25.301
	c0.7-0.301,2.6-0.199,3.7-0.5c18.398,24.5,46.8,45.699,72.7,53.699c17.1,5.301,34,9.2,53,20.2C438.2,427.9,459.1,445.4,479.8,450.9z
	"/>
<path fill="#FFFFFF" stroke="#000000" d="M478.3,353.4C463.4,352.3,449,359.3,439.4,370.1c-25.2-20.8-54.7-36.199-85.302-48
	c12.4-36.699-60-62.5-38.398-100c-3.4,28.3,30.2,42.3,52.5,47.5c11.7,5.9,22.8,14.3,34.6,19.7C428.7,309.1,464.6,321.2,478.3,353.4z
	"/>
<path fill="#FFFFFF" stroke="#000000" d="M457.8,386c20.5,13.3,17.102,43.3,21.9,64.9c-20.7-5.5-41.602-23-61.102-34.4
	c-19-11.1-35.898-15-53-20.2c-25.898-7.899-54.3-29.2-72.699-53.7c-0.5-3.3-2-6.398-3.5-9.3c-0.6-10.3-11.5-19.2-10.1-30.3
	c22.7,8.6,47.4,11.8,70.7,17.2c1.4,1.1,2.7,1.399,4,2c30.6,11.8,60.1,27.2,85.3,48c2.102,8,12.102,8.6,17.7,13.6
	C457.4,384.6,457.7,385.5,457.8,386z"/>
<path fill="#FFFFFF" stroke="#000000" d="M447.9,129.7c2.898,7.4,5.3,14.9,7.698,22.2C432.7,153.4,409.1,155,388.2,165
	c-10.602,7.4-24.602,15.4-27,29.8c-0.7,2.1-3.3,1.9-5,2c-6.4-6.8-16.4-5.3-24.602-6.7c0-0.1-0.1-0.3-0.1-0.4
	c-20.7-10.9-33.5-23.7-41.2-39.8c-3.9-8.2-6.5-17.2-8.2-27.2c-5.7-33.8-11.8-72.3-25.5-101c-1.8-1-1.9-4.1-1.2-5.9
	c42.9,34,108,36.5,153.3,63.3C429.3,91.5,440.2,110.1,447.9,129.7z"/>
<path fill="#FFFFFF" stroke="#000000" d="M430.5,220.8c-10.7,6.4-16.1,19.8-9.1,31c-13.2,7.4-24.9,21.9-18.602,37.5
	c-11.8-5.4-22.8-13.8-34.6-19.7C346.8,237.7,403.9,206.3,430.5,220.8z"/>
<path fill="#FFFFFF" stroke="#000000" d="M315.7,222.1c-21.601,37.4,50.8,63.3,38.398,100c-1.398-0.6-2.698-0.898-4-2
	c-21.1-26.5-80.7-20.8-90.3-71.2c-6-31.5,33.3-30.8,58-39.4c6.102-2.1,11-4.7,17.3-5.9c0.5,0.2,0.802,0.4,1.102,0.6
	C329.8,210.3,318.6,212.7,315.7,222.1z"/>
<path fill="#FFFFFF" stroke="#000000" d="M356.1,196.9c-6.3,3.3-13.698,3.6-20,7.3c-0.3-0.2-0.6-0.4-1.1-0.6
	c-6.4,1.2-11.2,3.8-17.3,5.9c-24.7,8.7-64,8-58,39.4c9.6,50.4,69.2,44.7,90.3,71.2c-23.3-5.3-48-8.5-70.7-17.199
	c-6-3.5-14.5-6.601-21.2-10.5c-18.1-10.699-27.1-26.199-26.5-41.199c0.5-13.4,8.5-26.5,24.4-35.5c21.1-12,50.8-20.2,75.5-25.5
	C339.6,191.6,349.7,190.1,356.1,196.9z"/>
<path fill="#FFFFFF" stroke="#000000" d="M290.2,368.3c4.899,9.3,9.6,18.9,15.1,27.9c-28.1,45.6-84.7,55.2-139.2,52.8
	c-15-0.7-29.8-2.2-43.9-4.2c-21.7-3.1-46.2-8.5-64.5-14.2C78.8,392.5,114,342.3,156,313.4c6-4.102,12.1-7.801,18.4-11
	c35.5-18,84.4-16.102,113.5,30.1c0.5,0.3,1,0.5,1.6,0.8c1.5,3,3,6.101,3.5,9.3c-1.2,0.301-3.1,0.2-3.7,0.5
	C285.6,351,289.4,360.1,290.2,368.3z"/>
<path fill="none" stroke="#000000" stroke-width="0.25" stroke-linecap="round" stroke-linejoin="round" d="M388.1,165.1
	c-2.1-7.1-2.698-15.1-7.8-20.7"/>
<path fill="none" stroke="#000000" stroke-width="0.25" stroke-linecap="round" stroke-linejoin="round" d="M380.3,144.4
	c-5.1-2.7-9.1-8.7-15.7-7.6"/>
<path fill="none" stroke="#000000" stroke-width="0.25" stroke-linecap="round" stroke-linejoin="round" d="M381.3,140.3
	c-5.3-3.2-4.8-11.3-9.6-15.3"/>
<path fill="none" stroke="#000000" stroke-width="0.25" stroke-linecap="round" stroke-linejoin="round" d="M371.7,125
	c-6.5-1.1-9.8-8.9-16.7-9.9"/>
<path fill="none" stroke="#000000" stroke-width="0.25" stroke-linecap="round" stroke-linejoin="round" d="M371.7,125
	c0.2-4.1-3.8-6.8-4-10.8"/>
<path fill="none" stroke="#000000" stroke-width="0.25" stroke-linecap="round" stroke-linejoin="round" d="M367.7,114.2
	c-4.2-2.8-5.2-8.9-9.602-11.3"/>
<path fill="none" stroke="#000000" stroke-width="0.25" stroke-linecap="round" stroke-linejoin="round" d="M358.1,103
	c-3.898,1.3-7.1-2.8-11.1-2.5"/>
<path fill="none" stroke="#000000" stroke-width="0.25" stroke-linecap="round" stroke-linejoin="round" d="M358.1,103
	c-1.3-4.7-6.1-6.9-8.1-11.1"/>
<path fill="none" stroke="#000000" stroke-width="0.25" stroke-linecap="round" stroke-linejoin="round" d="M350,91.8
	c-3.2-1.9-5.6-4.6-9.1-6.1"/>
<path fill="none" stroke="#000000" stroke-width="0.25" stroke-linecap="round" stroke-linejoin="round" d="M340.9,85.8
	c-3.102,0.9-6.102-1-9.102-1.5"/>
<path fill="none" stroke="#000000" stroke-width="0.25" stroke-linecap="round" stroke-linejoin="round" d="M340.9,85.8
	c-5.2-6.1-13.802-9-21.2-12.1"/>
<path fill="none" stroke="#000000" stroke-width="0.25" stroke-linecap="round" stroke-linejoin="round" d="M350,91.8
	c1.3-3.4,0-6.9-1-10.1"/>
<path fill="none" stroke="#000000" stroke-width="0.25" stroke-linecap="round" stroke-linejoin="round" d="M368.2,113.8
	c0.898-6.9-5.7-13-5-19.9"/>
<path fill="none" stroke="#000000" stroke-width="0.25" stroke-linecap="round" stroke-linejoin="round" d="M381.3,140.3
	c1.102-6.2,2.5-12.9,1-19.2"/>
<path fill="none" stroke="#000000" stroke-width="0.25" stroke-linecap="round" stroke-linejoin="round" d="M650.2,192.3
	c0.2-4.2,0.6-8.4,0.8-12.6"/>
<path fill="none" stroke="#000000" stroke-width="0.25" stroke-linecap="round" stroke-linejoin="round" d="M651,179.7
	c-1.8-3.1-1.4-7.1-3.5-10.1"/>
<path fill="none" stroke="#000000" stroke-width="0.25" stroke-linecap="round" stroke-linejoin="round" d="M651,179.7
	c2.1-0.8,1.4-3.9,3.5-4.8"/>
<path fill="none" stroke="#000000" stroke-width="0.25" stroke-linecap="round" stroke-linejoin="round" d="M655.3,168.9
	c-1.5-4-1.898-8.3-3.3-12.4"/>
<path fill="none" stroke="#000000" stroke-width="0.25" stroke-linecap="round" stroke-linejoin="round" d="M655.3,168.9
	c1-0.3,1.9-1.3,2.8-2.3"/>
<path fill="none" stroke="#000000" stroke-width="0.25" stroke-linecap="round" stroke-linejoin="round" d="M661.1,159.5
	c-0.898-5.3-0.6-10.9,0-16.2"/>
<path id="www.ABC-color.com" fill="none" stroke="#000000" stroke-width="0.25" stroke-linecap="round" stroke-linejoin="round" d="
	M661.1,159.5c2.602-0.8,3-4.5,6.102-5.1"/>
<path fill="none" stroke="#000000" stroke-width="0.25" stroke-linecap="round" stroke-linejoin="round" d="M672.2,147.4
	c-1.4-3,0.898-6,0.5-9.1"/>
<path fill="none" stroke="#000000" stroke-width="0.25" stroke-linecap="round" stroke-linejoin="round" d="M672.2,147.4
	c8-6,15.5-12.8,24.2-17.7"/>
<path fill="none" stroke="#000000" stroke-width="0.25" stroke-linecap="round" stroke-linejoin="round" d="M667.1,154.5
	c5,1.5,10.102-0.3,15.2-0.5"/>
<path fill="none" stroke="#000000" stroke-width="0.25" stroke-linecap="round" stroke-linejoin="round" d="M658,166.6
	c3.1,1.5,5.9-1.3,9.1-0.5"/>
<path fill="none" stroke="#000000" stroke-width="0.25" stroke-linecap="round" stroke-linejoin="round" d="M654.5,174.9
	c3.9,1,7.6-1.4,11.6-0.8"/>
<path fill="none" stroke="#000000" stroke-width="0.25" stroke-linecap="round" stroke-linejoin="round" d="M490.6,236.8
	c0.302,10.3,1.2,23.3,12,28.8"/>
<path fill="none" stroke="#000000" stroke-width="0.25" stroke-linecap="round" stroke-linejoin="round" d="M290.2,368.3
	c-10.3-0.2-19.6-4.5-29-8.2"/>
<path fill="none" stroke="#000000" stroke-width="0.25" stroke-linecap="round" stroke-linejoin="round" d="M258.1,360.5
	c-5.9,2.3-13,3.9-15.7,10.6"/>
<path fill="none" stroke="#000000" stroke-width="0.25" stroke-linecap="round" stroke-linejoin="round" d="M258.1,360.5
	c-11.4-6.2-25.4-3-37.9-5.5"/>
<path fill="none" stroke="#000000" stroke-width="0.25" stroke-linecap="round" stroke-linejoin="round" d="M220.2,355
	c-6.1,3.2-14,0.3-19.7,4.5"/>
<path fill="none" stroke="#000000" stroke-width="0.25" stroke-linecap="round" stroke-linejoin="round" d="M200.5,359.5
	c-4.2,5.9-7.4,12.8-7.6,20.2"/>
<path fill="none" stroke="#000000" stroke-width="0.25" stroke-linecap="round" stroke-linejoin="round" d="M200.5,359.5
	c-8.2-1-14.5,6.7-22.2,8.1"/>
<path fill="none" stroke="#000000" stroke-width="0.25" stroke-linecap="round" stroke-linejoin="round" d="M178.3,367.6
	c-5.5,6.5-13.9,10.5-19.7,17.2"/>
<path fill="none" stroke="#000000" stroke-width="0.25" stroke-linecap="round" stroke-linejoin="round" d="M158.6,384.7
	c-0.5,4.399-3.1,8.5-3,13.1"/>
<path fill="none" stroke="#000000" stroke-width="0.25" stroke-linecap="round" stroke-linejoin="round" d="M151,388.8
	c-7.8,14.5-24.3,13.3-37.9,16.7"/>
<path fill="none" stroke="#000000" stroke-width="0.25" stroke-linecap="round" stroke-linejoin="round" d="M151,388.8
	c-5.9-1.1-12.2-0.5-18.2,0"/>
<path fill="none" stroke="#000000" stroke-width="0.25" stroke-linecap="round" stroke-linejoin="round" d="M178.3,367.6
	c-3.9-1-8.1-0.3-12.1-0.5"/>
<path fill="none" stroke="#000000" stroke-width="0.25" stroke-linecap="round" stroke-linejoin="round" d="M220.2,355
	c-2.7-2.6-6.9-4.3-8.1-8.1"/>
<path fill="none" stroke="#000000" stroke-width="0.25" stroke-linecap="round" stroke-linejoin="round" d="M261.1,360.2
	c-2.3-4.4-4.7-8.8-5.6-13.8"/>
<path fill="none" stroke="#000000" stroke-width="0.25" stroke-linecap="round" stroke-linejoin="round" d="M586.3,457.5
	c15.9,7.4,33.7,11,49.5,18.2"/>
<path fill="none" stroke="#000000" stroke-width="0.25" stroke-linecap="round" stroke-linejoin="round" d="M550.7,468.3
	c8.8,2.9,19.8,6.2,23,16.4"/>
<path fill="none" stroke="#000000" stroke-width="0.25" stroke-linecap="round" stroke-linejoin="round" d="M466.1,466.6
	c-1.5,5.602-7.3,9.2-8.1,15.2"/>
<path fill="none" stroke="#000000" stroke-width="0.25" stroke-linecap="round" stroke-linejoin="round" d="M458.1,481.7
	c0.7,3.898-1.1,8-0.5,12.1"/>
<path fill="none" stroke="#000000" stroke-width="0.25" stroke-linecap="round" stroke-linejoin="round" d="M458.1,481.7
	C447,494.1,433.3,505.8,417.2,511.5"/>
<path fill="none" stroke="#000000" stroke-width="0.25" stroke-linecap="round" stroke-linejoin="round" d="M508.9,481
	c2.3,8.5,9.198,15.7,9.3,24.9"/>
<path fill="none" stroke="#000000" stroke-width="0.25" stroke-linecap="round" stroke-linejoin="round" d="M380.3,144.4
	c0.4-1.3,0.5-2.7,1-4"/>
<path fill="none" stroke="#000000" stroke-width="0.25" stroke-linecap="round" stroke-linejoin="round" d="M667.1,154.5
	c1.302-2.5,3-5,5-7.1"/>
<path fill="none" stroke="#000000" stroke-width="0.25" stroke-linecap="round" stroke-linejoin="round" d="M158.6,384.7
	c-3.3-0.101-4.8,3-7.6,4"/>
<path fill="none" stroke="#000000" stroke-width="0.25" stroke-linecap="round" stroke-linejoin="round" d="M654.5,174.9
	c-0.2-2.1,0.3-4.1,0.8-6.1"/>
<path fill="none" stroke="#000000" stroke-width="0.25" stroke-linecap="round" stroke-linejoin="round" d="M658,166.6
	c0.3-2.7,2.7-4.3,3-7.1"/>
</svg>
