<?xml version="1.0" encoding="utf-8"?>
<!-- Generator: Adobe Illustrator 15.0.0, SVG Export Plug-In . SVG Version: 6.00 Build 0)  -->
<!DOCTYPE svg PUBLIC "-//W3C//DTD SVG 1.1//EN" "http://www.w3.org/Graphics/SVG/1.1/DTD/svg11.dtd">
<svg version="1.1" id="layer_x5F_www.ABC-color.com"
	 xmlns="http://www.w3.org/2000/svg" xmlns:xlink="http://www.w3.org/1999/xlink" x="0px" y="0px" width="822px" height="567px"
	 viewBox="0 0 822 567" enable-background="new 0 0 822 567" xml:space="preserve">
<path fill="#FFFFFF" stroke="#000000" stroke-width="2" d="M650.6,41.9c-4.698,1.2-1.398,14-13.1,17.3v0.1c-2.5-0.6-4.9-1-7.1-1.4
	l0.1-0.3C630.4,57.6,631.4,46.7,650.6,41.9z"/>
<path fill="#FFFFFF" stroke="#000000" stroke-width="2" d="M637.5,59.4c11.1,2.5,24.7,6.8,32.6,14l0.102,0.2
	c-0.9,0.8-1.7,1.7-2.3,2.8C649.8,62.8,638,66.5,638,66.5c5.5,3.3,4.3,13.9,3.9,16.4c-2.102,0.2-4,0.9-5.602,2l-0.1-0.2
	c6.898-13.8-9.5-22.8-9.5-22.8c-11.5-1.3-20.8-2.2-31.3-2.5c-0.602-2.1-1.302-4-2-5.9c6.698,0.5,14.398,1.6,25.8,2.9
	c0,0,4.6,0.4,11.3,1.6C632.6,58.3,635,58.8,637.5,59.4z"/>
<path fill="#FFFFFF" stroke="#000000" stroke-width="2" d="M667.9,76.4c0.6-1.1,1.398-2.1,2.3-2.8c1.5-1.3,3.5-2.1,5.5-2.1
	c5.2,0,9.398,4.9,9.398,11s-4.198,11-9.398,11s-9.4-4.9-9.4-11C666.3,80.2,666.9,78.1,667.9,76.4z"/>
<path fill="#FFFFFF" stroke="#000000" stroke-width="2" d="M641.9,82.9c0.5-0.1,1-0.1,1.5-0.1c7.1,0,12.898,5.6,12.898,12.6
	S650.5,108,643.4,108c-7.102,0-12.9-5.6-12.9-12.6c0-4.4,2.3-8.3,5.8-10.5C637.9,83.8,639.8,83.1,641.9,82.9z"/>
<path fill="#FFFFFF" stroke="#000000" stroke-width="2" d="M486.5,197.2l0.4-0.3c12.6,12.3-0.4,13.8-0.4,13.8
	c2.7,26.7-18.7,13.3-18.7,13.3c-4.7,20.7-18.5,6.6-18.5,6.6c-4.1,0.8-5.898,4.9-8.6,6.1c0,0,2.3-7.7,4.1-9.4c3.602-3.5,3.9-3,6.4-16
	c0,0,23.3,23.3,15.3-8.7C466.5,202.8,494.7,214.2,486.5,197.2z"/>
<path fill="#FFFFFF" stroke="#000000" stroke-width="2" d="M434.9,165.8c-2.102,1.2-3.802,2.9-5.102,5l-0.2-0.1
	c-13.5-24.8-12.898-33.8-14.1-41.5l0,0c1.9-2.3,3.8-4.5,5.9-6.7l0,0C422.9,133.8,420.2,135.9,434.9,165.8z"/>
<path fill="#FFFFFF" stroke="#000000" stroke-width="2" d="M524.6,154.6l14.2,19.7c-10.2-1.3-22.2-14.8-22.2-14.8
	c2,5.5-5.1,19.8-5.1,19.8c-6-2.5-9.9-19.1-9.9-19.1c-6.398,12.8-21.1,13-21.1,13c6-6.9,8.2-15.8,8.2-15.8c-2.5-4.8-4-10.7-4-17.1
	c0-14.4,7.6-26.3,17.6-28.8c1.2-0.3,2.5-0.5,3.8-0.5c11.802,0,21.4,13.1,21.4,29.3C527.3,145.5,526.3,150.4,524.6,154.6z"/>
<path fill="#FFFFFF" stroke="#000000" stroke-width="2" d="M627.3,119.9h-8.8c0,0,0.6,8.8-3.2,10.7s-12-5.7-12-5.7
	c-1.898,6.3-8.2,5-8.2,5l0.102-7.1c-5-3.2-8.3-8.8-8.3-15.2c0-6.6,3.5-12.3,8.698-15.4c1.9-1.1,4-1.9,6.302-2.3
	c0.898-0.1,1.698-0.2,2.6-0.2c9.7,0,17.6,8,17.6,17.9c0,2.3-0.398,4.6-1.198,6.6L627.3,119.9z"/>
<path fill="#FFFFFF" stroke="#000000" stroke-width="2" d="M544.3,86c0,0-13-20.6-31.3-16.9l0,0c4.1-1.1,8.4-2.2,12.8-3.1
	c5.2,0.7,13.3,6,23.3,17.9c-1.698,0.5-3.3,1.3-4.8,2.3V86z"/>
<path fill="#FFFFFF" stroke="#000000" stroke-width="2" d="M541,127.4L541,127.4c-5.2-4.4-5.6-11.2-6.8-20.3
	c-1.2-8.9,3.398-16.7,10.1-20.9c1.5-0.9,3.102-1.7,4.8-2.3c2-0.7,4.102-1,6.2-1c11.602,0,21.102,10.8,21.102,24.2
	c0,3.1-0.5,6-1.4,8.7c0,0,19,9.9,15.2,11.2c-5.4,1.8-17-3.1-17.602-1.3c-0.6,1.9-1.3,14.5-4.398,15.1
	c-3.102,0.6-12.602-12-12.602-12c-1.3,10.1-17.6,14.5-17.6,14.5L541,127.4z"/>
<path fill="#FFFFFF" stroke="#000000" stroke-width="2" d="M519.4,59.2c-6.4,1.5-12.5,3.2-18.4,5.2C501.2,63.6,505,46.9,519.4,59.2z
	"/>
<path fill="#FFFFFF" stroke="#000000" stroke-width="2" d="M585.7,52.7c-11.7-24.4-25.9-1.3-27.602,0.5
	C567.5,52.5,576.4,52.2,585.7,52.7z M551.5,50.3c1.1-1.7,2.3-3.4,3.4-4.9c0.5-0.7,1.1-1.4,1.6-2.1C570,26.5,583.3,26,593.4,53.4
	c0.698,1.8,1.3,3.8,2,5.9c2.5,8.1,4.8,18.2,6.698,30.5v0.1c-2.3,0.4-4.398,1.1-6.3,2.3l-0.1-0.1c-2-14-4.3-24.3-6.9-31.9
	C565.6,59.8,544.6,62,525.9,66c-4.4,0.9-8.7,2-12.802,3.1c-7.1,1.9-13.8,4.1-20.198,6.5c-1.2-2.5-2.302-4.8-3.5-6.9
	c3.398-1.4,6.8-2.6,10.3-3.8c0.5-0.2,0.898-0.3,1.398-0.5l0,0l0,0c5.9-2,12-3.7,18.4-5.2c9.3-2.2,19.2-4,29.9-5.4
	C550,52.7,550.8,51.5,551.5,50.3z"/>
<path fill="#FFFFFF" stroke="#000000" stroke-width="2" d="M551.5,50.3c-0.7,1.1-1.5,2.3-2.2,3.5c0,0-21.5-25.9-9.398-44
	C548-2.4,549.9,27.5,551.5,50.3z"/>
<path fill="#FFFFFF" stroke="#000000" stroke-width="2" d="M499.6,64.8c0,0-19.5-13.5-18.898-34.2c0,0,20.2,16.9,20.3,33.8
	C500.5,64.6,500.1,64.7,499.6,64.8L499.6,64.8z"/>
<path fill="#FFFFFF" stroke="#000000" stroke-width="2" d="M433.1,39.5c0,0,14.302,31.6,12.302,47c-1.102,3.6-1.7,6.3-2,7.3
	C441.2,90.1,422.5,58.3,433.1,39.5z"/>
<path fill="#FFFFFF" stroke="#000000" stroke-width="2" d="M412.1,121.2c-0.198,0.2-0.3,0.4-0.5,0.6c-2.5-2.8-23.398-27.2-21.5-58.5
	c0,0,14.7,6.8,20.302,28.9C412.5,99.8,413.3,109.4,412.1,121.2z"/>
<path fill="#FFFFFF" stroke="#000000" stroke-width="2" d="M483.5,71.3c-11.1-17-24.8-24.3-33.6,18.4
	C460,82.9,471.1,76.7,483.5,71.3z M411.6,121.7c0.2-0.2,0.302-0.4,0.5-0.6c1.2-11.8,0.302-21.4-1.698-29L411,92
	c11-0.4,9.7,20,9.7,20l0.3,0.3c6.8-6.3,14.3-12.4,22.7-18.1c0,0-0.102-0.1-0.2-0.4c0.2-0.9,0.9-3.6,2-7.3
	c5.4-18.1,21.1-59.4,43.9-17.8c1.1,2.1,2.3,4.4,3.5,6.9c4.198,8.9,8.5,20.5,13.1,35.5c-1.3,0-2.6,0.2-3.8,0.5l-0.102-0.4
	c0,0-6.198-18.5-14.698-33.6c-28.301,11.5-49.601,27.2-65.9,44.9c-2,2.2-4,4.5-5.9,6.7c-5.1,6.1-9.698,12.5-13.8,18.9l-0.3,0.2
	c-2.2-2.9-4.9-4.2-8.2-3.1L393,145c4.9-7.7,10-13.5,16.6-21C410.3,123.2,411,122.4,411.6,121.7z"/>
<path fill="#FFFFFF" stroke="#000000" stroke-width="2" d="M405.1,184.9c-0.398,0-0.8,0-1.198,0v-0.5c0,0-0.5-23-6.5-29.4
	c-3.9-4.2-10.302-1.2-20.5,20.6l-0.102,0.1c-0.3-0.4-0.8-0.9-1.2-1.8c0-0.7-0.198-2.3-0.5-4.7c0.2-0.7,0.4-1.4,0.802-2.2
	c6.698-13.4,12.1-19.8,16.5-21.7c0.198-0.1,0.5-0.2,0.698-0.3c3.302-1.1,6,0.3,8.2,3.1c7.7,9.9,9.602,37.1,9.602,37.1v0.1
	C409.1,185.1,407.2,184.9,405.1,184.9z"/>
<path fill="#FFFFFF" stroke="#000000" stroke-width="2" d="M377.1,176.2c-1.3-0.7-2.6-1.5-3.8-2.3c-36.8-24.1-23.5-71.2-23.5-71.2
	c18.3,27,23.7,55.4,25.2,66.7c-0.4,1.9,0,3.5,0.5,4.7c0.4,0.8,0.8,1.4,1.2,1.8C377,176.1,377.1,176.2,377.1,176.2z"/>
<path fill="#FFFFFF" stroke="#000000" stroke-width="2" d="M373.1,174.2l0.2-0.3c1.2,0.8,2.5,1.6,3.8,2.3c0,0-0.198-0.1-0.398-0.4
	l0.1-0.1c10.2-21.8,16.602-24.9,20.5-20.6l-0.3,0.3c-28.4,47.6-30.8,95.4-30.8,95.4L366.1,251c-4.3-3.2-8.3-6.2-12-9l0.102-0.1
	C354.2,241.8,358.1,202.2,373.1,174.2z"/>
<path fill="#FFFFFF" stroke="#000000" stroke-width="2" d="M486.5,197.2c8.2,17-20,5.6-20,5.6c8,32-15.3,8.7-15.3,8.7
	c-2.5,13-2.8,12.5-6.4,16c-1.8,1.7-4.1,9.4-4.1,9.4c0.6-9.8,0.5-20.8,0.5-20.8c-2.9-3-5.602-6.5-7.9-10.6
	c-7.3-12.8-8.3-26.6-3.398-34.6c1.3-2.1,3-3.8,5.1-5c10.1-5.7,25.8,2.7,34.9,18.9c1.698,2.9,3,5.9,4,8.8L486.5,197.2z"/>
<path fill="#FFFFFF" stroke="#000000" stroke-width="2" d="M641.1,269.6c0,0-34.6,11.3-49.1,100c0,0-12,94.302-107.5,144
	c0,0-37.7,17.602-83.7,42.802h-5c15.4-82.4,20.8-140.7,21.102-182.001c3.8-7.899,39-75.801,126.698-93
	C543.6,281.5,638,269.6,641.1,269.6z"/>
<path id="www.ABC-color.com" fill="#FFFFFF" stroke="#000000" stroke-width="2" d="M220,522.7c1.8,1,3.6,2.1,5.4,3
	C160,499.4,79.5,504.8,79.5,504.8c1.3-13.8,24.5-32.1,24.5-32.1c16-14,41.9-6.7,50.5-3.602c1.9,0.7,2.9,1.102,2.9,1.102
	C178.3,494.5,200.8,511.6,220,522.7z"/>
<path fill="#FFFFFF" stroke="#000000" stroke-width="2" d="M225.4,525.7c-1.8-1-3.6-2-5.4-3c-19.1-11-41.7-28.102-62.5-52.5
	c0,0-1.1-0.5-2.9-1.102l2.9-0.198c0,0,69.8-55.302,123.9-28.9l0.2-0.2c30.2,34.9,72.1,49.8,72.1,49.8
	c18.8,2.302,28.2,26.602,32.8,45.302c2.9,11.898,3.7,21.5,3.7,21.5h-4.4c0,0-20.8-24-72.3-13.9C313.5,542.6,275.3,552.3,225.4,525.7
	z"/>
<path fill="#FFFFFF" stroke="#000000" stroke-width="2" d="M417,374.5c-0.3,41.2-5.7,99.6-21.1,182h-5.7c0,0-0.9-9.6-3.7-21.5
	c-4.5-18.6-13.9-43-32.8-45.3c0,0-41.9-14.9-72.1-49.8c-14.9-17.302-27-39.5-29.7-67.102c0,0-0.6-115.7,54.1-171.7
	c-0.1,0.3-0.2,4.3,48.3,40.9c3.7,2.8,7.7,5.8,12,9c6.102,4.5,12.9,9.5,20.3,14.9l10.102,11.3C396.5,277.1,417.6,289.4,417,374.5z"/>
<path fill="#FFFFFF" stroke="#000000" stroke-width="2" d="M384.9,230.2c-2.302-4.6-3.7-10-3.7-15.7c0-13.6,7.398-25,17.5-28.5
	c1.7-0.6,3.398-0.9,5.2-1c0.398,0,0.8,0,1.198,0c2.102,0,4,0.2,5.7,0.6c9.5,2.2,14.8,10.4,17.3,23.9c1.102,6,5.102,11.8,5,13
	l6.2,14.9l0,0l3.8,9.1c-2.5,6.5-20-4-20-4c3.302,5.5-6,22-6,22c-7,0-15-16-15-16c-4.8,12.8-19,11-19,11
	C385.9,257.5,384.9,230.2,384.9,230.2L384.9,230.2z"/>
<path fill="none" stroke="#000000" stroke-linecap="round" stroke-linejoin="round" d="M593.1,294.6c0,0-133.3,109.4-172.3,210.7"/>
<path fill="none" stroke="#000000" stroke-linecap="round" stroke-linejoin="round" d="M306.2,234.5c0,0,24.5,64.2,45.898,122
	c0,0,40.2,100.6,41.5,179.3"/>
<path fill="none" stroke="#000000" stroke-linecap="round" stroke-linejoin="round" d="M193.8,482.5c0,0,59.8-23.3,152.2,36.5"/>
<line fill="none" stroke="#000000" stroke-linecap="round" stroke-linejoin="round" x1="402.1" y1="247.5" x2="403.1" y2="228.5"/>
<line fill="none" stroke="#000000" stroke-linecap="round" stroke-linejoin="round" x1="424.1" y1="242.1" x2="416.1" y2="227.1"/>
</svg>
