<?xml version="1.0" encoding="utf-8"?>
<!-- Generator: Adobe Illustrator 15.0.0, SVG Export Plug-In . SVG Version: 6.00 Build 0)  -->
<!DOCTYPE svg PUBLIC "-//W3C//DTD SVG 1.1//EN" "http://www.w3.org/Graphics/SVG/1.1/DTD/svg11.dtd">
<svg version="1.1" id="layer_x5F_www.ABC-color.com"
	 xmlns="http://www.w3.org/2000/svg" xmlns:xlink="http://www.w3.org/1999/xlink" x="0px" y="0px" width="822px" height="567px"
	 viewBox="0 0 822 567" enable-background="new 0 0 822 567" xml:space="preserve">
<g id="XMLID_2_">
	<g>
		<path fill="#FFFFFF" d="M443.6,194.8c1.7-8.6,3-17.8,3.803-27.2c9.3-7.1,19.5-14,30.5-20.3c65.197-37.6,132.5-43.1,150.3-12.1
			c2.3,4.1,3.7,8.5,4.2,13.4c3.1,31.8-33.303,78.1-89.9,110.8c-11.3,6.5-22.6,12-33.7,16.6c-6.5,2.7-12.897,5-19.2,7
			c0.103-2.1,0.2-4.2,0.2-6.3c0-34.6-18.5-65-46.3-81.6L443.6,194.8z"/>
		<path fill="#FFFFFF" d="M508.8,275.9c12.8,5,26,11.4,39.103,19C613.1,332.5,652.3,386.7,635.5,415.8c-0.8,1.5-1.8,2.8-2.9,4.102
			C612,444.2,548.9,436.2,487,400.4c-9.2-5.301-17.8-10.9-25.9-16.801c-9.397-6.802-18.1-14-25.697-21.199
			C465.8,348,487.3,318,489.6,282.8C495.9,280.8,502.3,278.5,508.8,275.9z"/>
		<path fill="#FFFFFF" d="M346.1,358.1c14.2,8.5,30.9,13.4,48.602,13.4c14.5,0,28.3-3.3,40.6-9.1C443,369.6,451.6,376.8,461,383.6
			c1.8,12.603,2.7,26,2.7,39.9c0,75-27.9,135.9-62.3,136.3c-0.103,0-0.2,0-0.4,0c-34.6,0-62.7-61-62.7-136.3
			c0-9.1,0.4-17.9,1.2-26.5C340.9,383.1,343.1,370.1,346.1,358.1z"/>
		<path fill="#FFFFFF" d="M443.5,194.9c27.7,16.6,46.3,46.9,46.3,81.6c0,2.1-0.1,4.3-0.2,6.3C487.3,318,465.8,348,435.4,362.4
			c-12.303,5.8-26.103,9.1-40.603,9.1c-17.8,0-34.398-4.9-48.6-13.4c-26.9-16-45.2-45-46.3-78.3c0-1.1-0.101-2.2-0.101-3.3
			c0-33.3,17.102-62.5,43-79.5c14.9-9.8,32.8-15.5,52-15.5C412.6,181.5,429.3,186.4,443.5,194.9z"/>
		<path fill="#FFFFFF" d="M299.8,279.8c1.101,33.3,19.4,62.3,46.3,78.3c-3,12-5.198,25-6.5,38.802c-9.3,7.101-19.5,14-30.398,20.301
			c-61.5,35.5-125,42.1-147.1,16.5c-1.3-1.5-2.5-3.2-3.5-4.9c-18-31.199,20.2-87,85.4-124.698c7.3-4.199,14.7-8,22-11.399
			C277.5,287.4,288.8,283.1,299.8,279.8L299.8,279.8z"/>
		<path fill="#FFFFFF" d="M342.7,197c-25.9,17-43,46.2-43,79.5c0,1.1,0,2.2,0.1,3.3h-0.1c-11,3.3-22.3,7.601-33.8,13
			c-10.6-4.399-21.3-9.7-32-15.9c-65.2-37.6-103.7-92.9-86-123.5c2.1-3.6,4.8-6.7,8.2-9.3c25.2-19.5,84.3-11.2,141.8,22
			c10.399,6,20.1,12.4,29,19.2c0.8,1.3,6.898,5.9,15.6,11.5L342.7,197z"/>
		<path fill="#FFFFFF" d="M443.6,194.8l-0.1,0.1c-14.3-8.5-30.9-13.4-48.8-13.4c-19.2,0-37.102,5.7-52,15.5l-0.2-0.2
			c-8.7-5.6-14.8-10.2-15.6-11.5c0,0-3.302-28.3-3.302-43.6c0-75.3,27.9-136.3,62.4-136.3c1.1,0,2.3,0.1,3.4,0.2
			c32.898,3.8,59,63.3,59,136.1c0,8.8-0.4,17.5-1.103,25.8C446.6,177,445.3,186.1,443.6,194.8z"/>
	</g>
	<g>
		<path fill="none" stroke="#000000" d="M508.8,275.9c12.8,5,26,11.4,39.103,19C613.1,332.5,652.3,386.7,635.5,415.8
			c-0.8,1.5-1.8,2.8-2.9,4.102C612,444.2,548.9,436.2,487,400.4c-9.2-5.301-17.8-10.9-25.9-16.801"/>
		<path fill="none" stroke="#000000" d="M447.4,167.6c9.3-7.1,19.5-14,30.5-20.3c65.197-37.6,132.5-43.1,150.3-12.1
			c2.3,4.1,3.7,8.5,4.2,13.4c3.1,31.8-33.303,78.1-89.9,110.8c-11.3,6.5-22.6,12-33.7,16.6c-6.5,2.7-12.897,5-19.2,7"/>
		<path fill="none" stroke="#000000" d="M443.5,194.9c27.7,16.6,46.3,46.9,46.3,81.6c0,2.1-0.1,4.3-0.2,6.3
			C487.3,318,465.8,348,435.4,362.4"/>
		<path fill="none" stroke="#000000" d="M346.1,358.1c14.2,8.5,30.9,13.4,48.602,13.4c14.5,0,28.3-3.3,40.6-9.1
			C443,369.6,451.6,376.8,461,383.6c1.8,12.603,2.7,26,2.7,39.9c0,75-27.9,135.9-62.3,136.3c-0.103,0-0.2,0-0.4,0
			c-34.6,0-62.7-61-62.7-136.3c0-9.1,0.4-17.9,1.2-26.5"/>
		<path fill="none" stroke="#000000" d="M327,185.3c0,0-3.3-28.3-3.3-43.6C323.7,66.4,351.6,5.4,386.1,5.4
			c1.102,0,2.302,0.1,3.4,0.2c32.9,3.8,59,63.3,59,136.1c0,8.8-0.4,17.5-1.1,25.8c-0.803,9.5-2.103,18.6-3.803,27.2l-0.1,0.1
			c-14.3-8.5-30.9-13.4-48.8-13.4c-19.2,0-37.102,5.7-52,15.5"/>
		<path fill="none" stroke="#000000" d="M266,292.8c-10.6-4.399-21.3-9.7-32-15.9c-65.2-37.6-103.7-92.9-86-123.5
			c2.1-3.6,4.8-6.7,8.2-9.3c25.2-19.5,84.3-11.2,141.8,22c10.4,6,20.1,12.4,29,19.2c0.8,1.3,6.9,5.9,15.6,11.5l0.2,0.2
			c-25.898,17-43,46.2-43,79.5c0,1.1,0,2.2,0.101,3.3"/>
		<path fill="none" stroke="#000000" d="M266,292.8c11.5-5.399,22.8-9.7,33.8-13h0.101c1.1,33.3,19.399,62.3,46.3,78.3
			c-3,12-5.2,25-6.5,38.802c-9.3,7.101-19.5,14-30.4,20.301c-61.5,35.5-125,42.1-147.1,16.5c-1.3-1.5-2.5-3.2-3.5-4.9
			c-18-31.199,20.2-87,85.4-124.698C251.4,300,258.7,296.2,266,292.8z"/>
	</g>
</g>
<line fill="none" stroke="#000002" stroke-width="0.5" stroke-linecap="round" stroke-linejoin="round" x1="398.6" y1="427.5" x2="396.6" y2="510.6"/>
<line id="www.ABC-color.com" fill="none" stroke="#000002" stroke-width="0.5" stroke-linecap="round" stroke-linejoin="round" x1="390.5" y1="70.9" x2="389.4" y2="152.4"/>
<line fill="none" stroke="#000002" stroke-width="0.5" stroke-linecap="round" stroke-linejoin="round" x1="517.8" y1="347.5" x2="596.3" y2="394.4"/>
<line fill="none" stroke="#000002" stroke-width="0.5" stroke-linecap="round" stroke-linejoin="round" x1="505" y1="208.9" x2="581" y2="165.2"/>
<line fill="none" stroke="#000002" stroke-width="0.5" stroke-linecap="round" stroke-linejoin="round" x1="198.8" y1="398.3" x2="276.9" y2="356.7"/>
<line fill="none" stroke="#000002" stroke-width="0.5" stroke-linecap="round" stroke-linejoin="round" x1="198.8" y1="187" x2="276.9" y2="232.4"/>
</svg>
