<?xml version="1.0" encoding="utf-8"?>
<!-- Generator: Adobe Illustrator 15.0.0, SVG Export Plug-In . SVG Version: 6.00 Build 0)  -->
<!DOCTYPE svg PUBLIC "-//W3C//DTD SVG 1.1//EN" "http://www.w3.org/Graphics/SVG/1.1/DTD/svg11.dtd">
<svg version="1.1" id="layer_x5F_www.ABC-color.com"
	 xmlns="http://www.w3.org/2000/svg" xmlns:xlink="http://www.w3.org/1999/xlink" x="0px" y="0px" width="822px" height="567px"
	 viewBox="0 0 822 567" enable-background="new 0 0 822 567" xml:space="preserve">
<g id="XMLID_1_">
	<g>
		<path fill="#DAECF8" d="M466.6,178.9l0.302,0.6c-0.802,0.5-1.7,1-2.602,1.4c-1.3,0.6-2.5,1.2-3.8,1.9l-0.2-0.3
			c1.8-0.6-4-16.8-4-16.8s7.3,10.8,9.7,13C466.4,178.8,466.5,178.9,466.6,178.9z"/>
	</g>
	<g>
		<path fill="none" stroke="#000000" d="M466.4,41.8c25.198,14.1,42.1,39.7,42.1,69c0,27.8-15.1,52.2-38.2,66.7
			c-1.1,0.7-2.2,1.4-3.398,2c-0.802,0.5-1.7,1-2.602,1.4c-1.3,0.6-2.5,1.2-3.8,1.9c-9.7,4.8-19.5,9.6-30.3,8c-1.9-0.4-3.7-1-5.5-1.7
			c-0.5-0.2-1-0.4-1.5-0.6c-8-3.3-15.4-7.9-24.5-7.7c-1.9,0-3.9,0.2-5.9,0.4c-2,0.3-4.1,0.7-6.1,1.2c-0.602,0.1-1.2,0.2-1.8,0.2
			c-2.602,0.2-5.302-0.5-8.102-1.8c-1.7-0.7-3.3-1.6-4.8-2.7c-4.2-2.9-7.8-6.7-11.4-10.5c-1.6-1.7-3.3-3.4-4.898-5
			c-1.602-1.8-3.102-3.6-4.5-5.4c-10-13.1-15.8-29.1-15.8-46.4c0-4.6,0.398-9.2,1.198-13.6c3.602-19.6,14.802-36.8,30.7-48.8
			c4.4-3.4,9.2-6.3,14.3-8.8c0.102-0.1,0.2-0.1,0.4-0.2c4.2-2,8.6-3.8,13.2-5.1c8.398-2.5,17.398-3.9,26.7-3.9
			C438.2,30.3,453.4,34.5,466.4,41.8z"/>
		<path fill="none" stroke="#000000" d="M386.8,182.4c0,0,16-8.4,13.9-14.3c-0.9-2.5-1.3-6.9-0.8-11.2c0.3-3,1.1-5.9,2.3-8
			c1.1-1.8,2.5-3,4.398-3.2c0.302,0,0.5,0,0.802,0c1.398,0.1,2.698,0.1,3.898,0.1c2.2,0,4.102,0,5.9-0.1
			c2.8-0.1,5.398-0.1,8.398,0.4c0.801,0.1,1.4,0.3,2,0.6c3,1.5,3.102,4.9,2.9,6.8c-0.101,0.5-0.2,0.8-0.2,1.1
			c-0.399,1.3,2.5,8.4-5.5,13.9s-6.7,9.7-6.7,9.7l5.5,10.1"/>
		<path fill="none" stroke="#000000" d="M385.1,183.2c0,0-12.198,9.7-7.6,22.7c4.6,13.1,3,1.7,3,1.7s0.8-18.9,12.2-20.6
			c6.1-0.9,8.5,0,5.1,1.3c0,0-8,13-6.7,19.4c1.302,6.3,3.4,2.5,3.4,2.5l10.9-18.5l1.698,1.7c0,0-1.8,16-1.698,18.1
			c0.3,4.1,1,5.7,1.8,6c1.3,0.6,2.898-2.7,2.898-2.7s0-18.1,2.102-18.5c2.1-0.4,4.2-3,4.2-3s7.5,25.5,9.6,25.5s1.8-24.7,0.1-26
			c-1.698-1.3-1.3-3.4-1.3-3.4"/>
		<path fill="none" stroke="#000000" d="M420.9,96L420.9,96c0.198,0.6,8.6,24.3,5.5,24c-3.2-0.3-7.602-23.6-7.602-23.6
			s-1.2,44.4-1.6,49.3c0,0.2,0,0.3,0,0.4"/>
		<path fill="none" stroke="#000000" d="M423.4,92.3c0.398,0.7,15.5,26,11.398,22.3c-3.398-3.1-13.6-18.1-13.898-18.5"/>
		<path fill="none" stroke="#000000" d="M413.3,92.2L413.3,92.2c-0.6,0.3-20.7,8.4-22.7,8c-2.1-0.4,13.5-7.6,13.5-7.6l8.4-4.2
			c0,0-21.4-2.7-24-5.5c-6.3-6.7,15.5,1,26.1,1.5c-0.6-2.3-5-4.9-12.6-20c-2.6-5.2,10.5,6.7,15.6,17.3c4.602,9.7,7.2-20.1,11.802-21
			c2.1-0.4-0.4,12.2-2.5,16.8c-1.302,2.8-5.9,7.2-3.802,6.7c1.7-0.3,5.9-2.1,9.302-4.2c14.6-9.1,11.398-4.8,11.398-4.6
			c-0.8,3.1-17.2,11.2-19.8,13.1c0,0,17.7,2.5,27.4,9.3c7,4.9-27-5.3-27.802-5.5l0,0"/>
		<path fill="none" stroke="#000000" d="M411.2,146.6l0.1-0.7l4.602-50.2c0,0-13.5,17.7-15.602,17.7c-2.1,0,12.602-20.4,13-21"/>
		<path fill="none" stroke="#000000" d="M372.6,108.6L372.6,108.6c0.802,0.8,32.802,34.6,33.9,36.3"/>
		<path fill="none" stroke="#000000" d="M373.8,106.8c0.7,0.3,23.3,11.1,20.8,13.1c-2.398,2-21.5-10.9-22-11.3"/>
		<path fill="none" stroke="#000000" d="M402.6,149.4l-0.398-0.5l-8.602-10.3L369.9,110.2c0,0,3,22,1.5,23.5s-5.7-24.1-5.7-24.1
			s-8.602,20.5-10.4,21.7c-1.8,1.2,4.2-14.9,4.2-14.9l3-8.9c0,0-17,13.2-20.8,13.1c-9.2-0.3,11.7-10.2,19.5-17.4
			c-2.102-1.2-7,0.1-23.102-5.2c-0.698-0.2-1-0.5-1-0.7c0-1.3,14.7-1.5,24.302,1.9c10.1,3.5-9.2-19.3-6.5-23.2
			c1.198-1.8,8.3,8.9,10.1,13.7c1.1,2.9,0.9,9.2,2.1,7.5c1-1.5,2.7-5.7,3.602-9.5c3.898-16.8,4.7-11.5,4.8-11.3
			c1.6,2.8-4.3,20.1-4.8,23.2c0,0,12.3-7.9,25.3-10c8.5-1.4-22.9,13-22.9,13s29.5,7.4,23.802,7.7c-4.5,0.2-22.2-3.1-22.9-3.3l0,0"/>
		<path fill="none" stroke="#000000" d="M467.5,119.7L467.5,119.7c-0.8,0.8-34.5,32.8-36.3,33.9"/>
		<path fill="none" stroke="#000000" d="M468.7,109.6L468.7,109.6c-0.4-0.5-13.2-17.1-13.102-20.8c0-1.4,0.302-2.1,0.802-2.3
			c2.5-0.9,10.5,15.1,16.6,21.8c1.2-2.1-0.1-7,5.2-23.1c1.8-5.5,2.7,12.2-1.2,23.2c-3.5,10.1,19.3-9.2,23.2-6.6
			c1.8,1.2-8.9,8.3-13.7,10.1c-2.9,1.1-9.2,0.9-7.5,2.1c1.5,1,5.7,2.7,9.5,3.6c16.8,3.9,11.5,4.7,11.3,4.8
			c-2.8,1.7-20.1-4.3-23.2-4.8c0,0,10.7,14.3,12.802,25.9C490.9,152,473.6,120,473.6,120s-7.398,29.5-7.8,23.8
			c-0.2-4.6,3.3-22.9,3.3-22.9s-8.198,17.3-11.8,20.5c-0.6,0.5-1,0.7-1.3,0.3c-2-2.4,10.9-21.5,11.3-22"/>
		<path fill="none" stroke="#000000" d="M428.9,146.6L466,117c0,0-22,3-23.5,1.5s24.1-5.7,24.1-5.7s-20.5-8.6-21.698-10.4
			c-1.2-1.8,14.898,4.2,14.898,4.2l8.9,3"/>
		<path fill="none" stroke="#000000" d="M455.1,65.3L455.1,65.3c-0.398,0.2-14.5,5.9-15.898,5.6c-1.5-0.3,9.398-5.3,9.398-5.3
			l5.9-2.9c0,0-15-1.9-16.8-3.8c-4.4-4.7,10.8,0.7,18.3,1c-0.4-1.6,0.3-1.3-5-12c-1.8-3.6,3.5,2.6,7.1,10
			c3.302,6.8,3.5-13.2,6.802-13.9c0.1,0,0.198,0,0.3,0.1c1.1,0.8,0.8,7.8-0.602,10.9c-0.898,1.9-4.1,5-2.698,4.7
			c1.198-0.2,4.1-1.5,6.5-2.9c10.3-6.4,8-3.4,8-3.2c-0.5,2.2-12.102,7.8-13.802,9.1c0,0,12.4,1.8,19.102,6.5
			c5,3.5-19.5-3.8-19.5-3.8s10.898,18.3,8,15.6c-2.4-2.2-9.7-13-9.7-13s6,17,3.8,16.8c-2.2-0.2-5.3-16.5-5.3-16.5
			s-0.3,13.3-0.6,14.7l-2.4,1.2l0.9-16.5c0,0-9.4,12.4-10.9,12.4C444.5,80,454.7,65.7,455.1,65.3"/>
		<path fill="none" stroke="#000000" d="M386.1,57.6L386.1,57.6c-0.398,0.2-14.5,5.9-15.898,5.6c-1.5-0.3,9.398-5.3,9.398-5.3
			l5.9-2.9c0,0-15-1.9-16.8-3.8c-0.8-0.9-1-1.4-0.602-1.7C369.7,48.4,380.9,52,386.9,52.2c-0.4-1.6,0.3-1.3-5-11.9
			c-0.102-0.3-0.2-0.5-0.302-0.6c-0.198-0.5,0-0.5,0.4-0.2c1.2,1.1,4.5,5.7,7,10.8c3.2,6.8,3.5-13.2,6.8-13.9
			c1.5-0.3,1.2,7.7-0.3,10.9c-0.9,1.9-4.1,5-2.6,4.7c1.198-0.2,4.1-1.5,6.5-3c10.3-6.4,8-3.4,8-3.2c-0.5,2.2-12.102,7.8-13.802,9.1
			c0,0,12.4,1.8,19.102,6.5c5,3.5-19.5-3.8-19.5-3.8s10.898,18.3,8,15.6c-2.4-2.2-9.7-13-9.7-13s6.1,17,3.8,16.8
			c-2.2-0.2-5.3-16.5-5.3-16.5s-0.3,13.3-0.6,14.7l-2.4,1.2l0.9-16.5c0,0-9.4,12.4-10.9,12.4S385.8,58,386.1,57.6"/>
		<path fill="none" stroke="#000000" d="M451.2,163L451.2,163c-0.4,0.2-14.5,5.9-15.9,5.6c-1.5-0.3,9.4-5.3,9.4-5.3l5.898-3
			c0,0-15-1.9-16.8-3.8c-1-1.1-1-1.6-0.2-1.8c2.5-0.6,12.802,2.6,18.5,2.9c-0.398-1.6,0.302-1.3-5-12c-1.8-3.6,3.5,2.7,7.102,10
			c3.1,6.4,3.5-11.1,6.3-13.6c0.2-0.1,0.3-0.2,0.5-0.3c1.5-0.3,1.2,7.7-0.3,10.9c-0.9,1.9-4.102,5-2.7,4.7c1.2-0.2,4.1-1.5,6.5-2.9
			c10.3-6.4,8-3.4,8-3.2c-0.5,2.2-12.1,7.8-13.9,9.1c0,0,12.4,1.8,19.2,6.5c5,3.4-19.5-3.8-19.5-3.8s9.5,15.9,8.4,15.9
			c-0.102,0-0.2-0.1-0.4-0.3c-2.398-2.2-9.7-13-9.7-13s5.7,16.2,4,16.8c0,0-0.1,0-0.198,0c-2.2-0.2-5.302-16.5-5.302-16.5
			s-0.3,13.3-0.6,14.7l-2.3,1.2l0.898-16.5c0,0-9.398,12.4-10.898,12.4C440.6,177.7,450.8,163.4,451.2,163"/>
		<path fill="none" stroke="#000000" d="M370.9,152.1L370.9,152.1c-0.4,0.2-14.5,5.9-15.9,5.6c-1.5-0.3,9.4-5.3,9.4-5.3l5.898-3
			c0,0-15-1.9-16.8-3.8c-4.4-4.7,10.8,0.7,18.3,1.1c-0.398-1.6,0.3-1.3-5-12c-1.8-3.6,3.5,2.6,7.102,10c3.198,6.8,3.5-13.2,6.8-13.9
			c1.5-0.3,1.2,7.7-0.3,10.9c-0.9,1.9-4.102,5-2.602,4.7c1.2-0.2,4.102-1.5,6.5-2.9c6.102-3.8,7.8-4.3,8.102-4
			c0.198,0.2-0.102,0.7-0.2,0.8c-0.602,2.2-12.102,7.8-13.9,9.1c0,0,12.4,1.8,19.2,6.5c0.5,0.3,0.7,0.5,0.7,0.7
			c0,1.5-20.102-4.5-20.102-4.5s10.9,18.3,8,15.6c-2.398-2.2-9.698-13-9.698-13s6,17,3.8,16.8s-5.3-16.5-5.3-16.5
			s-0.302,13.3-0.602,14.7l-2.398,1.2l0.898-16.5c0,0-9.398,12.4-10.898,12.4c0,0-0.102,0-0.102-0.1
			C361,166,370.6,152.6,370.9,152.1"/>
		<path fill="none" stroke="#000000" d="M394.4,210.1c-5.102,20.6-14.5,249.1-39,283.7"/>
		<path fill="none" stroke="#000000" d="M407,217.7c0,0-20.5,208.7-23.3,220.8c-4.102,17.6-12.3,52.9-13.8,59.7
			c-0.2,0.7-0.302,1.1-0.302,1.1"/>
		<path fill="none" stroke="#000000" d="M274.8,245.8c0,2.7-0.4,2.2-0.3,0.1c0.4-6,5.3-24.9,36.8-24.4"/>
		<path fill="none" stroke="#000000" d="M301.8,232.4c1,0.9,23.8,20.2,22.4,16.6l-12.8-27.5c4.898-9.5,12.8,0.6,16-36.8
			c3.398-40-34.5-72.6-77.102-72.6c-42.6,0-77.1,32.5-77.1,72.6c0,40.1,34.5,72.6,77.1,72.6c3.7,0,20.1-10.5,24.3-11.4
			c0.1,0,0.2-0.1,0.3-0.1"/>
		<path fill="none" stroke="#000000" d="M274.8,245.8c1.5-3.7,5.8,26.9,12.2,26.2c3-0.3-3.8-21.1,1.9-25c2.9-1.9,17.9,12.3,19.2,9
			c1.2-3.3-6.199-23.1-6.398-23.7"/>
		<path fill="none" stroke="#000000" d="M205.7,186.3C205.6,186.3,205.6,186.3,205.7,186.3"/>
		<path fill="none" stroke="#000000" d="M205.7,186.3c0.2,0.5,3.3,9.5,2.1,9.4c-1.2-0.1-3-9.3-3-9.3s-0.2,7.4-0.3,8.3l-1.3,0.7
			l0.5-9.3c0,0-5.3,6.9-6.1,6.9c-0.8,0,5.1-8.3,5.1-8.3s-8.1,3.3-8.9,3.1c-0.8-0.2,5.3-3,5.3-3l3.3-1.6c0,0-8.4-1.1-9.4-2.1
			c-2.5-2.6,6.1,0.4,10.2,0.6c-0.2-0.9,0.2-0.8-2.8-6.7c-1-2,2,1.5,4,5.6c1.8,3.8,2-7.4,3.8-7.8c0.8-0.2,0.7,4.3-0.2,6.1
			c-0.5,1.1-2.3,2.8-1.5,2.6c0.7-0.1,2.3-0.8,3.6-1.6c5.7-3.6,4.5-1.9,4.5-1.8c-0.3,1.2-6.8,4.4-7.8,5.1c0,0,6.9,1,10.7,3.6
			c2.8,1.9-10.9-2.1-10.9-2.1s6.1,10.2,4.5,8.8C209.8,192.3,205.9,186.6,205.7,186.3z"/>
		<path fill="none" stroke="#000000" d="M229.5,145.8L229.5,145.8"/>
		<path fill="none" stroke="#000000" d="M229.5,145.8c0.2,0.5,3.3,9.5,2.1,9.4c-1.2-0.1-3-9.2-3-9.2s-0.2,7.4-0.3,8.3L227,155
			l0.5-9.3c0,0-5.3,6.9-6.1,6.9c-0.8,0,5.1-8.3,5.1-8.3s-8.1,3.3-8.9,3.1c-0.8-0.2,5.3-3,5.3-3l3.3-1.7c0,0-8.4-1.1-9.4-2.1
			c-2.5-2.6,6.1,0.4,10.2,0.6c-0.2-0.9,0.2-0.8-2.8-6.7c-1-2,2,1.5,4,5.6c1.8,3.8,2-7.4,3.8-7.8c0.8-0.2,0.7,4.3-0.2,6.1
			c-0.5,1.1-2.3,2.8-1.5,2.6c0.7-0.1,2.3-0.8,3.6-1.6c5.7-3.6,4.5-1.9,4.5-1.8c-0.3,1.2-6.8,4.4-7.8,5.1c0,0,6.9,1,10.7,3.6
			c2.8,1.9-10.9-2.2-10.9-2.2s6.1,10.2,4.5,8.8C233.6,151.9,229.8,146.1,229.5,145.8z"/>
		<path fill="none" stroke="#000000" d="M251.6,186.5L251.6,186.5"/>
		<path fill="none" stroke="#000000" d="M251.6,186.5c0.2,0.5,3.3,9.5,2.1,9.4c-1.2-0.1-3-9.2-3-9.2s-0.2,7.4-0.3,8.3l-1.3,0.7
			l0.5-9.2c0,0-5.3,6.9-6.1,6.9s5.1-8.3,5.1-8.3s-8.1,3.3-8.9,3.1c-0.8-0.2,5.3-3,5.3-3l3.3-1.7c0,0-8.4-1.1-9.4-2.1
			c-2.5-2.6,6.1,0.4,10.2,0.6c-0.2-0.9,0.2-0.8-2.8-6.7c-1-2,2,1.5,4,5.6c1.8,3.8,2-7.4,3.8-7.8c0.8-0.2,0.7,4.3-0.2,6.1
			c-0.5,1.1-2.3,2.8-1.5,2.6c0.7-0.1,2.3-0.8,3.6-1.6c5.7-3.6,4.5-1.9,4.5-1.8c-0.3,1.2-6.8,4.4-7.8,5.1c0,0,6.9,1,10.7,3.6
			c2.8,1.9-10.9-2.1-10.9-2.1s6.1,10.2,4.5,8.8C255.7,192.6,251.8,186.9,251.6,186.5z"/>
		<path fill="none" stroke="#000000" d="M544.2,224.4L544.2,224.4l3.6,4l3.602,4l4.6,6.7c0,0-5.9,29.5-17.7,28.2
			c0,0,10.102-17.3,8.4-20.2c-1.7-3-13.102,11.8-13.102,11.8s-2.5-4.6,4.602-19.8c7.2-15.2-3-5.1-3-5.1s-8,20.6-9.3,22.3
			c-0.7,0.9,0.5-5.3,2-12.2c1.3-5.8,2.698-12.1,3.5-14.8c1.198-4.3-7.302,1.5-13.602,4.8c-2.2,1.2-4.1,2-5.3,1.9h-0.1"/>
		<path fill="none" stroke="#000000" d="M544.4,224.6c0,0-0.2-0.1-0.2-0.2"/>
		<path fill="none" stroke="#000000" d="M511.3,237.5c0,0,0.5-0.5,1.4-1.3c4.398-4.2,18-17.3,13.398-17.3c0,0-9.3-12.2-25.698,0.4
			c-6.4,4.9,8.3-28.4,27.398-10.5c1.3,1.2,2.4,2.3,3.5,3.3c10.8,10.1,13,12.2,13.2,12.5l0,0"/>
		<path fill="none" stroke="#000000" d="M559.8,216.9L559.8,216.9c-2.2,2.4-4.7,5.4-6.8,8.4c-3,4.4-4.5,3.4-4.9,2.8
			c-0.1-0.1-0.198-0.3-0.198-0.3"/>
		<path fill="none" stroke="#000000" d="M531.1,212.6c0,0,0-0.2,0.102-0.5c1.1-3.4,8.2-23.4,27.1-17.7h0.102"/>
		<path fill="none" stroke="#000000" d="M518.9,234.5L518.9,234.5C516.6,238.2,370.8,475.1,371.5,498.6"/>
		<path fill="none" stroke="#000000" d="M527.3,244.2C382.6,496.8,384.9,478.4,379.3,508.4c0,0.198-0.1,0.3-0.1,0.5"/>
		<path fill="none" stroke="#000000" d="M292.7,185.4L292.7,185.4L292.7,185.4"/>
		<path fill="none" stroke="#000000" d="M292.7,185.4c0.1,0.4,2.7,7.6,1.7,7.5s-2.4-7.4-2.4-7.4s-0.1,5.9-0.3,6.6l-1,0.5l0.4-7.4
			c0,0-4.2,5.5-4.9,5.5c-0.7,0,4.1-6.6,4.1-6.6s-6.5,2.6-7.1,2.5c-0.7-0.1,4.2-2.4,4.2-2.4l2.6-1.3c0,0-6.7-0.9-7.5-1.7
			c-2-2.1,4.9,0.3,8.2,0.5c-0.2-0.7,0.1-0.6-2.2-5.4c-0.8-1.6,1.6,1.2,3.2,4.5c1.5,3,1.6-5.9,3-6.2c0.7-0.1,0.5,3.4-0.1,4.9
			c-0.4,0.9-1.9,2.2-1.2,2.1c0.5-0.1,1.9-0.7,2.9-1.3c4.601-2.9,3.601-1.5,3.601-1.4c-0.301,1-5.4,3.5-6.2,4.1c0,0,5.6,0.8,8.6,2.9
			c2.2,1.5-8.7-1.7-8.7-1.7s4.9,8.2,3.6,7C296,190.3,293,185.8,292.7,185.4z"/>
		<path fill="none" stroke="#000000" d="M224.3,224.7L224.3,224.7L224.3,224.7"/>
		<path fill="none" stroke="#000000" d="M224.3,224.7c0.1,0.4,2.7,7.6,1.7,7.5c-1-0.1-2.4-7.4-2.4-7.4s-0.1,5.9-0.3,6.6l-1.1,0.5
			l0.4-7.4c0,0-4.2,5.5-4.9,5.5c-0.7,0,4.1-6.6,4.1-6.6s-6.5,2.6-7.1,2.5c-0.6-0.1,4.2-2.4,4.2-2.4l2.6-1.3c0,0-6.7-0.8-7.5-1.7
			c-2-2.1,4.9,0.3,8.2,0.5c-0.2-0.7,0.1-0.6-2.2-5.3c-0.8-1.6,1.6,1.2,3.2,4.5c1.5,3,1.6-5.9,3-6.2c0.7-0.1,0.5,3.4-0.1,4.9
			c-0.4,0.9-1.9,2.2-1.2,2.1c0.5-0.1,1.9-0.7,2.9-1.3c4.6-2.9,3.6-1.5,3.6-1.5c-0.2,1-5.4,3.5-6.2,4.1c0,0,5.5,0.8,8.6,2.9
			c2.2,1.5-8.7-1.7-8.7-1.7s4.9,8.2,3.6,7C227.6,229.6,224.5,225.1,224.3,224.7z"/>
		<path fill="none" stroke="#000000" d="M597.5,158L597.5,158l-8.9-3c0,0-16.1-6-14.898-4.2c1.2,1.8,21.7,10.4,21.7,10.4
			s-25.602,4.2-24.102,5.6c1.5,1.5,23.5-1.5,23.5-1.5l-36.5,29l-0.7,0.5c0,0-6.3,7,2.302,7.1c0.1,0,0.398-0.1,0.8-0.4"/>
		<path fill="none" stroke="#000000" d="M596.3,168.1L596.3,168.1L596.3,168.1c-0.5,0.7-13.3,19.6-11.3,22
			c2,2.5,13.1-20.9,13.1-20.9s-3.5,18.3-3.3,22.9c0.3,5.7,7.7-23.8,7.7-23.8s17.3,32,15.8,23.5c-2.1-11.6-12.8-25.9-12.8-25.9
			c3.1,0.5,20.5,6.4,23.2,4.8c0.1-0.1,5.5-0.9-11.3-4.8c-3.9-0.9-8.102-2.6-9.5-3.6c-1.802-1.2,4.6-1,7.398-2.1
			c4.8-1.8,15.5-8.9,13.7-10.1c-3.9-2.6-26.8,16.7-23.2,6.5c3.9-11,3-28.7,1.2-23.2c-5.4,16.1-4,21-5.2,23.1
			c-7.2-7.8-17.1-28.7-17.398-19.5c-0.102,3.7,12.698,20.3,13.1,20.8"/>
		<path fill="none" stroke="#000000" d="M560.7,201.6c0.6-0.4,1.5-1.1,2.6-2.1c9-7.7,32.102-30.7,32.9-31.5"/>
		<path fill="none" stroke="#000000" d="M594.2,228.7L594.2,228.7c-0.9,0.3-14.2,4.9-17.2,6.9c-3.8,2.5,19.6-4.2,19.6-4.2
			s-15.3,24.8-10,20.3c7.2-6.1,12.802-19.2,12.802-19.2c0.898,2.4,3.698,16.7,6,18c0.1,0.1,2.8,3.5-1.2-9.7c-0.9-3-1.4-6.6-1.3-8
			c0.1-1.7,2.5,2.8,4.398,4.3c3.102,2.6,12.4,7.2,12.5,5.4c0.2-3.8-22.3-11.9-13.8-13.5c9.2-1.7,21.1-9.4,16.6-8.5
			c-13.3,2.7-16.198,5.6-18.1,5.6c2.5-8.1,13.1-23.3,6.5-19.9c-2.7,1.4-9.2,17.4-9.2,17.4l-1.5-7.4c0,0-2.3-13.5-3.1-12
			s1.5,19.2,1.5,19.2S585.6,207.3,585.1,209c-0.398,1.6,10.4,15.7,10.4,15.7l-0.4-0.1l-31-12.2l-3.898-1.5"/>
		<path fill="none" stroke="#000000" d="M560.2,210.9c0,0-7.2-1.9-4,4.4c0.1,0.3,1.5,0.8,3.5,1.6c9.5,3.3,34.5,10,34.5,10
			s-18.9-1.4-19.8,1c-0.9,2.3,18.6,0.8,19.6,0.8"/>
		<path fill="none" stroke="#000000" d="M564,199.6c0,0,4.9,8.2,0.2,12.9c0,0.1-0.102,0.1-0.2,0.2"/>
		<path fill="none" stroke="#000000" d="M301.7,232.4L301.7,232.4C301.7,232.4,301.8,232.4,301.7,232.4
			c2.2,2.3,85.3,88.7,53.7,261.4"/>
		<path fill="none" stroke="#000000" d="M316.4,507c0,0,18.398,1,22.3-7.8c0.398-1,0.7-2.102,0.7-3.4c0,0,0.398-0.1,1.1-0.3
			c2.4-0.5,8.2-1.5,14.8-1.1c4.8,0.3,10,1.3,14.5,3.8c0.5,0.3,1,0.5,1.4,0.898c3.3,2.102,6.1,5.102,8,9.4l0,0c0.5,1,0.8,2,1.2,3.1"
			/>
		<path fill="none" stroke="#000000" d="M288.9,247.1c0,0,80.6,73.1,51.2,244.5c-0.198,1-0.3,2-0.5,3c-0.1,0.4-0.1,0.802-0.198,1.2"
			/>
		<path fill="none" stroke="#000000" d="M210.6,380c-2.6-0.7-5.1-0.8-6.8,0.9c-4.5,4.5,5.1,15.398,8.3,17.3
			c10.9,7,36.5,3.2,43.5,15.398c-5.8,1.302-11.5-0.6-16.6,0.602c-6.4,1.898-14.1,9-6.4,15.398c0.7,0.7,1.8,1.2,3.1,1.602
			c5.5,1.5,15.3,0,20,1c7,1.3,14.1,5.8,20.5,9.6c-4.5,0.602-17.9-1.898-17.9,4.5c0.6,7,23,7.7,28.2,9.602
			c7,2.6,17.9,6.398,25,10.198c6.3,4.2,22.9,23,28.3,28.5c0.4,0.4,0.7,0.7,0.9,0.9c0.6,0.6,0.898,0.8,0.8,0.5"/>
		<path fill="none" stroke="#000000" d="M210.6,380c3,1.5,6,2.9,8.6,4.1C217.4,383,213.9,380.9,210.6,380z"/>
		<path fill="none" stroke="#000000" d="M144.5,311.5c-2.2,1.3,0.3,4.8,3,6.7c7.7,5.1,21.1,3.2,29.4,6.399
			c-7.7,1.301-28.8,1.301-17.9,12.801c6.4,7,31.4,9,40.3,11.5c-8.3,3.8-23-4.5-17.3,8.3c5,10,17.5,17.3,28.5,22.8"/>
		<path fill="none" stroke="#000000" d="M144.5,311.5c1.7-0.2,3.4-0.4,4.9-0.4C146.9,310.8,145.3,311,144.5,311.5z"/>
		<path fill="none" stroke="#000000" d="M126.6,301.3c-3.4,1.4-4.9,6.101-5.4,9.8c6.3,3.7,15.5,1.301,23.2,0.4"/>
		<path fill="none" stroke="#000000" d="M126.7,301.3c0.8-0.1,1.5-0.3,2.3-0.399C128.1,300.9,127.3,301,126.7,301.3z"/>
		<path fill="none" stroke="#000000" d="M126.7,301.3L126.7,301.3"/>
		<path fill="none" stroke="#000000" d="M341.3,494c-0.5-0.7-0.8-1.6-1.2-2.4C333.3,475,340.7,436.2,314.6,430
			c-0.6,5.1-5.3,16.8-10.398,11c-0.601-1.3,0-9-0.601-10.9c-1.3-9.6-5.1-17.898-12.2-24.3c-1.9,3.8-1.9,9-4.5,12.2
			c-4.5-16,5.1-37.8-11.5-49.9c-3.2,3.801-6.4,8.301-7.7,13.4c-7-7-5.8-20.5-9-29.4c-1.9-3.199-5.8-18.6-8.3-19.199
			c-5.1-1.899-6.4,5.101-5.8,9c-3.2-15.399-7.7-26.199-19.2-37.101c-1.9,5.101-1.9,11.5-2.6,16.601c-9.6-0.601-5.8-14.699-7-21.101
			c-1.3-12.2-10.9-18.6-22.4-19.2c-0.6,1.9-1.9,5.1-1.9,7c-7-7.7-11.5-19.2-22.4-21.8c-0.6,3.2-1.9,4.5-1.9,7
			c-7.7-3.2-14.7-7-23.7-6.4c-6.4,0.6-17.9,5.8-5.8,8.3c-12.2,1.9-26.9-1.3-32,12.2c-6,13.8,9.3,15.8,20.8,13.898"/>
		<path fill="none" stroke="#000000" d="M160.6,447.3c-1.3,1.602-1.5,3.7,0.2,6.3c4.4,6.802,14.9,4.102,21.5,3.4
			c10.4-1.1,20.8,0.7,31.1-0.6c-5.1,2.6-13.4-0.602-14.1,3.8c-0.6,4.5,7,7.7,12.8,8.3c13.4,1.3,25.6-5.8,39.1-3.1
			c1.6,0.5,2.9,1.3,3.9,2.198c1,0.9,1.6,2.102,1.8,3.5c-1.9,0.302-4,0.302-6.1,0.5c-2.2,0.102-5.4,0.7-5.4,2
			c0,3.2,4.5,4.5,7.4,5.302c1.7,0.6,3.4,0.898,5.3,1.198c4.6,0.602,9.7,0.4,14.6,0.302c1.6,0,3.2,0,4.8,0c2.5,0.3,5.7,0.3,8.3,1.5
			c-1.3,1.3-5.1,2.6-3.2,3.8c1.8,1.398,3.6,2.5,5.5,3.398c1.9,0.8,3.8,1.5,5.8,1.9c3,1.2,6.1,1.5,9.1,1.5
			c7.9,0,15.6-2.602,22.2-0.102c1.6,0.602,3.2,1.5,4.8,2.9"/>
		<path fill="none" stroke="#000000" d="M160.6,447.3c3.4-1.398,6.6-3,9.6-4.2C166.9,443.3,162.5,444.7,160.6,447.3z"/>
		<path fill="none" stroke="#000000" d="M179.8,421c2.6,0-9.4-22.2-11.2-23.9c-1.3-1.3-2.7-2.5-4.2-3.5c-3.1-2-6.6-3.3-10.6-3.699
			c-1.3,0-1.9,1.301-2.6,1.899c-1.8,3.5,0.4,7.2,2.9,9.7c-11.8,12-30.5-16-42.6-1.3c-9.3,11.2-13.9,26.3-22.3,38.398
			c-1.3,1.802-2.4,3.7-3.4,5.802c4,0.198,8.2,0.1,12.3-0.302c2.1-0.198,4.1-0.5,6.1-0.898c8.5-1.5,16.2-4.7,23.8-8.5
			c6.6-2.8,14.5-2.2,21.4-2.3c-4.4,0.898-8.3,3.5-10.5,7.398c-1.9,3.2-0.6,7,2.6,9c6.1,2.9,12.7,1.102,18.8-1.398"/>
		<path fill="none" stroke="#000000" d="M223.8,441.6c-3.8-3-7.8-5.898-11-9.898c-1.4-1.4-2.8-2.7-4.1-4.2c-2.7-2.8-5.2-5.9-7.6-9.2
			c-1.5-1.5-3.1-3-5-4.3c-3.2-2.6-8.3-4.5-12.2-1.3c-3.2,2.398,0.3,8.398-4.1,8.1l0,0"/>
		<path fill="none" stroke="#000000" d="M223.8,441.6c0.4,0.9,1.2,1.7,2.4,2C225.4,442.9,224.6,442.3,223.8,441.6z"/>
		<path fill="none" stroke="#000000" d="M338.7,499.1c-5.9-0.198-10-2.8-13.5-6.5c-6.7-7.1-10.9-17.898-20-22.1
			c-1.601-1-3.2-1.8-4.9-2.4c-1.7-0.6-3.5-1.1-5.5-1.398c-1.3,0-1.9,4.5,1.3,6.398c-4.5,1.302-9-1.3-11.7-4.8
			c-0.9-1.2-1.8-2.5-2.6-3.7c-1.8-2.5-3.6-4.898-6.2-6.198c-10.9-5.802-16.6,4.5-4.5,4.5c-4,1.3-7,0.8-9.3-0.7
			c-1.2-0.8-2.2-1.8-3.2-2.9c-5-6.5-10.4-18-17.8-23c-1.5-1-3-1.8-4.7-2.1c-0.1,0-0.3,0-0.4,0c-4.7,0-10.2,0.1-12,4.5
			c-0.3,1-0.3,2.1,0.1,3.1"/>
		<path fill="none" stroke="#000000" d="M379.2,508.9c0-0.2,0.1-0.302,0.1-0.5c0-0.102,0.102-0.302,0.102-0.4
			c8.6-41.1,44.198-65.8,81.698-81.7c0,1.3,1.302,3.8,1.302,6.4c17.898-6.4,36.5-46.101,57.6-41c3.2,1.3,2.6,5.8,7,7.7
			c6.4,3.198,12.2,0,16.6-5.102c10.9-11.5,17.302-33.898,22.4-48c3.2-8.3,5.1-14.699,16-16c9.6-0.6,5.8,0.602,9,7
			c3.2,7.7-2.6,10.2,10.2,9c5.8-0.6,10.2-3.199,13.398-7.699c3.2-5.801,3.802-13.399,7.7-19.801c6.4-9.6,9.602-21.8,23-22.398
			c6.4,0,6.4-0.602,9.602,4.5c1.898,3.8-0.602,9,1.898,12.8c16-2.601,14.7-14.101,26.9-20.5c7-3.2,58.2-32,51.2-5.101
			C733,295.8,718.3,300.9,711.2,305.4c-9,5.1-20.5,10.898-25,21.1c4.5,1.3,13.398-1.3,17.898,1.3c9.602,5.101,7.7,14.7,0.602,19.8
			c-14.102,10.2-52.5-5.8-58.9,11.5c10.9,7,36.5,0,34.602,19.2C678.5,398.1,656.1,396.9,642,399.4c-12.2,1.898-71,5.8-73,17.3
			c9.6,4.5,27.5,1.3,22.4,17.898c-3.2,10.2-16.602,8.302-26.2,9c-21.102,1.302-60.8-2.6-77.4,11.5c16.602,9.602,5.8,19.2-9,23
			c-13.398,3.2-28.2-1.3-41.6,1.302c-3.5,0.898-7,1.8-10.5,2.8c-6.8,1.898-13.7,3.8-20.9,5.5c-10.2,1.898-19.7,7.6-21.1,18.398
			c0,0.102,0,0.102,0,0.2"/>
		<path fill="none" stroke="#000000" d="M380.4,508.2c1.5-0.7,3-1.4,4.5-2.102c0.198-0.1,0.3-0.198,0.5-0.3
			c1.698-0.8,3.398-1.6,5-2.3c11.698-6.5,23.8-16,36.8-19.9c6.398-1.898,12.898-2.398,19.7-0.6c2.3,0.6,4.6,1.5,7,2.7
			c3.8,5.8,5.8,16.7,13.398,9.7c9.2-8.4,18.9-14.802,29.4-19.102c2.1-0.898,4.2-1.6,6.398-2.3c1.7-0.8,3.4-1.4,5.302-2.1
			c13.999-5.302,24.898-19.4,40.198-18.802c1.9,0,4.5,2.602,3.2,5.802c-4.5,11.5-17.3,16-21.8,26.898c15.4-3.8,25.6-16.6,39-22.398
			c8.3-3.2,17.3-5.802,24.3-11.4c1.8-1.1,3.602-2.2,5.5-3.1c1.9-0.9,3.9-1.7,6-2.2c3.8-1.3,3.2,3.8,3.2,7c-1,12.3-11.2,18.7-17,28.3
			c1.9-0.6,4.5-0.6,5.8-1.9c9-10.198,22.4-13.398,35.5-15.1c1.8,0,3.5,0.1,5.2,0.4c8.5,1.3,16.2,6.3,21.7,16.8
			c1.1,1.898,1.7,4,1.5,5.898c-0.2,1.9-1.102,3.602-3,4.802c-2.602,1.898-5.8,3.198-9,2.6c-9.602-0.8-18.7,0.4-27.5,3.4
			c-1.8,0.6-3.5,1.3-5.2,2c-12.8,9.898-28.8,4.8-43.5,7.3c3.2,1.898,7.7,0,8.3,7c-0.3,2.3-1.1,4.898-2.5,6.898
			c-1.3,2.2-4.5,3.4-6.5,2.802c-16-3.2-30.7-13.4-45.398-1.302c2.6-1.3,6.398-1.3,5.8,2.602c-1.3,5.8-3.2,12.8-9.602,14.7
			c-2.5,0.398-4.8,0.198-7-0.302c-10.698-2.5-17-13.398-28.198-15c5.1,23.7-12.2,20.5-25,6.4c-4.302-4.8-6.802-9.2-11.302-12.8
			c-1.5-1.2-3.198-2.3-5.3-3.2c-1.8-1-3.7-1.9-5.6-2.7c-13.9-5.8-29.102-6.2-44.2-5.1c-2.1,0-4.2,0-6.2,0
			C387.6,508.2,382.4,508.2,380.4,508.2"/>
		<path fill="none" stroke="#000000" d="M303,493.5h-0.1c-10.3,0-33.2,2.6-33.8,16c-1.3,26.2,57.6-4.5,53.8,20.5
			c12.8,3.2,23-1.3,35.198-2.6c18.602-1.302,34.602,4.5,51.802,7c11.5,1.3,39-3.802,30.1-19.802"/>
		<path fill="none" stroke="#000000" stroke-linecap="round" stroke-linejoin="round" d="M268.2,143L268.2,143"/>
		<path fill="none" stroke="#000000" stroke-linecap="round" stroke-linejoin="round" d="M268.2,143c0.2,0.5,3.3,9.5,2.1,9.4
			c-1.2-0.1-3-9.2-3-9.2s-0.2,7.4-0.3,8.3l-1.3,0.7l0.5-9.2c0,0-5.3,6.9-6.1,6.9c-0.8,0,5.1-8.3,5.1-8.3s-8.1,3.3-8.9,3.1
			c-0.8-0.2,5.3-3,5.3-3l3.3-1.6c0,0-8.4-1.1-9.4-2.1c-2.5-2.6,6.1,0.4,10.2,0.6c-0.2-0.9,0.2-0.8-2.8-6.7c-1-2,2,1.5,4,5.6
			c1.8,3.8,2-7.4,3.8-7.8c0.8-0.2,0.7,4.3-0.2,6.1c-0.5,1.1-2.3,2.8-1.5,2.6c0.7-0.1,2.3-0.8,3.6-1.6c5.7-3.6,4.5-1.9,4.5-1.8
			c-0.3,1.2-6.8,4.4-7.8,5.1c0,0,6.9,1,10.7,3.6c2.8,1.9-10.9-2.1-10.9-2.1s6.1,10.2,4.5,8.8C272.3,149.1,268.4,143.3,268.2,143z"/>
	</g>
</g>
<path fill="none" stroke="#1F1E21" stroke-width="0.5" stroke-linecap="round" stroke-linejoin="round" d="M255,396.2
	c13.4,9,14.1,12.8,20.5,25"/>
<path fill="none" stroke="#1F1E21" stroke-width="0.5" stroke-linecap="round" stroke-linejoin="round" d="M237.7,381.5
	c3.8,7,10.2,10.2,17.3,14.7"/>
<path fill="none" stroke="#1F1E21" stroke-width="0.5" stroke-linecap="round" stroke-linejoin="round" d="M233.9,370
	c1.9,3.2,1.9,8.3,3.8,11.5"/>
<path fill="none" stroke="#1F1E21" stroke-width="0.5" stroke-linecap="round" stroke-linejoin="round" d="M196.1,325.2
	c17.3,6.399,30.7,28.2,37.8,44.8"/>
<path fill="none" stroke="#1F1E21" stroke-width="0.5" stroke-linecap="round" stroke-linejoin="round" d="M226.8,451.9
	c5.8,1.3,15.4,0.6,20.5,3.8"/>
<path fill="none" stroke="#1F1E21" stroke-width="0.5" stroke-linecap="round" stroke-linejoin="round" d="M142.4,421.8
	c13.4,0,25,0.602,37.1,6.4"/>
<path id="www.ABC-color.com" fill="none" stroke="#1F1E21" stroke-width="0.5" stroke-linecap="round" stroke-linejoin="round" d="
	M655.6,332.9C663.9,327.8,667.8,320.1,675.4,315.6"/>
<path fill="none" stroke="#1F1E21" stroke-width="0.5" stroke-linecap="round" stroke-linejoin="round" d="M628.1,354
	c7-12.8,15.4-14.1,27.5-21.1"/>
<path fill="none" stroke="#1F1E21" stroke-width="0.5" stroke-linecap="round" stroke-linejoin="round" d="M614.7,377
	c5.8-6.4,9-15.4,13.398-23"/>
<path fill="none" stroke="#1F1E21" stroke-width="0.5" stroke-linecap="round" stroke-linejoin="round" d="M562.2,387.3
	c16-10.2,37.1,5.8,52.5-10.2"/>
<path fill="none" stroke="#1F1E21" stroke-width="0.5" stroke-linecap="round" stroke-linejoin="round" d="M464.4,455.3
	c17.398-6.3,30.1-30.3,79.898-45c6.4-6.398,10.2-18.6,17.9-23"/>
<path fill="none" stroke="#1F1E21" stroke-width="0.5" stroke-linecap="round" stroke-linejoin="round" d="M417.6,472.4
	C423.8,456.1,451.4,460,464.4,455.3"/>
<path fill="none" stroke="#1F1E21" stroke-width="0.5" stroke-linecap="round" stroke-linejoin="round" d="M589.1,492.2
	c8.802,1.398,37.102-14.7,42.9-9"/>
<path fill="none" stroke="#1F1E21" stroke-width="0.5" stroke-linecap="round" stroke-linejoin="round" d="M566.7,492.2
	c9.6-1.3,10.2-1.9,22.398,0"/>
<path fill="none" stroke="#1F1E21" stroke-width="0.5" stroke-linecap="round" stroke-linejoin="round" d="M542.4,496.1
	c8.3,1.302,15.398-1.898,24.3-3.8"/>
<path fill="none" stroke="#1F1E21" stroke-width="0.5" stroke-linecap="round" stroke-linejoin="round" d="M525.7,495.4
	c6.398-1.9,11.5-0.602,16.6,0.6"/>
<path fill="none" stroke="#1F1E21" stroke-width="0.5" stroke-linecap="round" stroke-linejoin="round" d="M498.8,507
	c9.602-3.2,17.3-9.6,26.9-11.5"/>
<path fill="none" stroke="#1F1E21" stroke-width="0.5" stroke-linecap="round" stroke-linejoin="round" d="M415.6,499.9
	c18.602,1.898,64.602,12.8,83.2,7"/>
<path fill="none" stroke="#1F1E21" stroke-width="0.5" stroke-linecap="round" stroke-linejoin="round" d="M247.3,455.8
	c5.1,3.2,3.8,7.7,10.9,9.602c3.8,1.898,7.7,0,11.5,1.898"/>
<path fill="none" stroke="#1F1E21" stroke-width="0.5" stroke-linecap="round" stroke-linejoin="round" d="M179.5,428.2
	c10.2,5.1,18.3,8.7,27.2,14.5l4.6,2.6c3.2,2.602,11.6,5.3,15.5,6.602"/>
</svg>
