<?xml version="1.0" encoding="utf-8"?>
<!-- Generator: Adobe Illustrator 15.0.0, SVG Export Plug-In . SVG Version: 6.00 Build 0)  -->
<!DOCTYPE svg PUBLIC "-//W3C//DTD SVG 1.1//EN" "http://www.w3.org/Graphics/SVG/1.1/DTD/svg11.dtd">
<svg version="1.1" id="layer_x5F_www.ABC-color.com"
	 xmlns="http://www.w3.org/2000/svg" xmlns:xlink="http://www.w3.org/1999/xlink" x="0px" y="0px" width="822px" height="567px"
	 viewBox="0 0 822 567" enable-background="new 0 0 822 567" xml:space="preserve">
<path fill="#FFFFFF" stroke="#000000" stroke-width="2" d="M429.9,243.3c1.198-0.4,2.398-0.9,3.6-1.3
	c30.8-11.6,79.1-33.3,121.7-42.8c43.3-8.7,98-33.3,108,0c7.8,26.2-33.5,33.4-84.5,38.4c-21.4,0.8-46.602,3.1-75.8,7.4
	c-24,3.2-46,12-63.302,13.1c-2.198,0.1-4.3,0.1-6.3,0c-0.5-6.3-1.5-8.5-4.2-14.5c0.4,0.7,0.2,0.4,0,0
	C429.3,243.5,429.6,243.4,429.9,243.3z"/>
<path fill="#FFFFFF" stroke="#000000" stroke-width="2" d="M578.6,237.6c74.602-2.7,103.102,13.6,94.4,34.8
	c-11,26.7-54.3,10.9-114.4,15c-44.6-0.7-91.6-0.4-120.3-5.9c-1.398-0.3-2.8-0.5-4.1-0.9c1.398-7.3,0.6-14.8-1-22.5
	c2,0.1,4.1,0.1,6.3,0c17.5-1,40.3-9.8,63.3-13.1C527.4,241.8,554.1,240,578.6,237.6z"/>
<path fill="#FFFFFF" stroke="#000000" stroke-width="2" d="M558.6,287.3c63.9-0.1,118.102,8.601,107.2,29.2
	c-16.1,30.7-24.398,23.5-104.5,8c-2-0.6-4.1-1.1-6.1-1.7c-6.8-2.6-14.9-4.6-23.602-6.399c-21.8-5.801-46.1-7.199-66.698-9.601
	c-15.7-2.2-28.9-4.8-36.2-8.6c1.898-5.601,4.398-12,5.5-17.7c1.3,0.3,2.7,0.6,4.1,0.9C467,287,513.7,287.4,558.6,287.3z"/>
<path fill="#FFFFFF" stroke="#000000" stroke-width="2" d="M561.3,324.6c54,15,95.602,29.301,87.102,44.602
	c-13.102,23.6-55.5,14.699-108.7-8c-34.102-18.4-89.4-34-114.9-54.301c-0.398-0.301-0.8-0.601-1.2-1c1.102-2.899,4-4.699,5-7.699
	c8.802,4.699,21.602,6.898,36.2,8.6c20.7,2.9,45.602,5.4,66.7,9.602c0.1,0,0.1,0,0.2,0.1c8,2.1,15.8,4.2,23.398,6.301
	c0.9,0.299,1.7,0.699,2.602,1C559,324.1,560.2,324.4,561.3,324.6z"/>
<path fill="#FFFFFF" stroke="#000000" stroke-width="2" d="M539.8,361.2c42.7,22,96,34.7,86,60.7c-13.898,36.1-64.6-3.2-108-31.301
	c-7.1-5.101-15-11-23.3-17.101c-0.4-0.3-0.8-0.601-1.2-0.899C467.3,352.7,437.9,329,415.7,317.2c-0.102,0-0.102-0.101-0.2-0.101
	c-0.6-0.301-1.2-0.199-1.7,0c1.3-1.101,2.5-2.301,3.5-3.601c2.2-2.899,4.9-4,6.3-7.5c0.4,0.3,0.802,0.601,1.2,1
	C450.3,327.2,500.6,341,539.8,361.2z"/>
<path fill="#FFFFFF" stroke="#000000" stroke-width="2" d="M517.8,390.6c38.2,27.302,76.4,68.9,62.7,80.7
	c-19,16.2-59.5,0.602-92.5-43.3c-3.3-5.3-6.7-10.5-10.2-15.4c-19.898-28.3-42.2-50.1-57.5-70.3c-0.7-0.899-1.3-1.8-1.898-2.6
	c-0.302-0.4-0.602-0.9-0.9-1.3c-0.3-0.4-0.6-0.9-0.9-1.301c-2.1-3-4-6-5.698-9l0,0c-0.5-0.801-0.9-1.601-1.302-2.399
	c-0.698-1.3-1.3-2.5-1.898-3.8c0,0,0.1,0,0.1,0.1c1.9,0.9,3.2-1.8,4.7-3.5l0,0c0.3-0.3,0.7-0.5,1-0.8c0.8-0.4,1.5-0.7,2.2-0.4
	c0.1,0,0.1,0.101,0.2,0.101c16,8.601,48.5,33.699,77.6,55.399c0.4,0.3,0.8,0.601,1.2,0.9C502.8,379.8,510.6,385.6,517.8,390.6z"/>
<path id="www.ABC-color.com" fill="#FFFFFF" stroke="#000000" stroke-width="2" d="M488,428c23.1,37.1,39.9,80.2,21.8,91.3
	c-24.6,15.102-45-24.5-62.8-75.398c-3.6-11.5-7.6-23.602-11.8-35.9c-10.4-30.5-30.7-56.7-40.102-79.101
	c3.802-1.5,5-1.699,8.602-4.199c0.7-0.5,3.2-2.301,3.898-2.801c0.602,1.301,1.2,2.5,1.9,3.801c0.4,0.8,0.9,1.6,1.3,2.398l0,0
	c1.7,3,3.602,6,5.7,9c0.3,0.4,0.6,0.9,0.9,1.301c0.3,0.399,0.6,0.899,0.898,1.301c0.602,0.898,1.3,1.8,1.9,2.6
	c15.898,21.2,39.6,45,60.1,75C482.9,421,485.4,424.6,488,428z"/>
<path fill="#FFFFFF" stroke="#000000" stroke-width="2" d="M395,328.8c9.4,23.101,29.5,49.5,40.1,79.102
	C438.9,420.1,442.9,432.3,446.9,443.8c15.398,49.2,23.198,88.4,4.8,95.4c-24.4,9.3-20.4-26.3-37.8-79.2
	c-0.102-0.9-0.2-1.9-0.302-2.8c-2.5-28.5-10.5-58.101-18-84.4c0-0.1-0.1-0.2-0.1-0.3c-4.2-15.2-8.3-29.1-11.1-40.5
	C388.6,331.5,391.1,330.3,395,328.8z"/>
<path fill="#FFFFFF" stroke="#000000" stroke-width="2" d="M414,460c4.6,48.6,13.9,78.7-13.6,87.2c-7.5,2.3-20.4-21.4-25.102-39.9
	c0.2-0.7,0.3-1.398,0.5-2.1c10.102-47-6.8-118-0.5-164.5c0.3-2.601,0.8-5,1.3-7.4c2.802,0,5.2-0.899,8-1.3
	c2.9,11.9,6.9,25.7,11.102,40.5c0,0.1,0.1,0.2,0.1,0.3c7.5,26.9,15.5,57.9,18,86.4C413.9,459.5,414,459.8,414,460z"/>
<path fill="#FFFFFF" stroke="#000000" stroke-width="2" d="M357.9,331.4c6.1,1.898,12.3,1.8,18.698,1.898
	c-0.5,2.4-0.898,4.9-1.3,7.4c-6.398,46.6,10,118.898-0.2,165.898c0.102,0.302,0.102,0.5,0.2,0.802
	c-6.7,27.698-26.398,51.1-32.7,45.698C325.8,538.6,333.7,513.9,331.9,464.9C346.6,419.3,346.1,364.1,357.9,331.4z"/>
<path fill="#FFFFFF" stroke="#000000" stroke-width="2" d="M357.9,331.4C346.1,364.1,346.6,419.3,331.9,464.8
	c-14.7,45.5-22.102,82.4-38.102,78.4c-17.9-4.5-8.5-26.7-1.6-69.102c28.3-44,35.5-110.8,55-146.1
	C348.9,328.7,356.2,330.9,357.9,331.4z"/>
<path fill="#FFFFFF" stroke="#000000" stroke-width="2" d="M335.6,322.2c5.102,3.6,5.602,3.5,11.602,5.899
	c-19.5,35.399-26.8,102.199-55,146.101c-21,32.6-40.5,72.898-49.8,55.7c-5.5-10.102-6.1-23.2,4.1-48.602
	C282,441.4,309.3,361,335.6,322.2z"/>
<path fill="#FFFFFF" stroke="#000000" stroke-width="2" d="M324.3,312.2c0.602,0.7,1.3,1.399,1.9,2.1c2.8,2.8,6,5.5,9.398,7.9
	c-26.3,38.8-53.6,119.2-89,159.1c-16.3,18.3-35.8,37.5-41.4,26.602c-5.3-10.102,3.4-19.302,13.6-44.602
	C269.6,418.2,298.5,347,324.3,312.2z"/>
<path fill="#FFFFFF" stroke="#000000" stroke-width="2" d="M318.1,304.9c1.602,2.6,4.302,5,6.2,7.199
	C298.5,346.9,269.5,418.099,218.7,463.2c-19.3,17.1-37.6,33.3-48.3,14.6c-11.7-20.6,4.1-13.398,31.5-58.2
	C249.5,384.5,287.5,329.5,318.1,304.9z"/>
<path fill="#FFFFFF" stroke="#000000" stroke-width="2" d="M318.1,304.9c-30.6,24.5-68.6,79.6-116.2,114.8
	c-33.8,25-67.5,32.898-79.5,11.5c-17.1-30.4,21.3-40,76.4-75.4c39.6-24.1,81-53.7,107.7-67.6c1.3-0.7,2.6-1.3,3.8-1.9
	C312.1,292.9,314.8,299.4,318.1,304.9z"/>
<path fill="#FFFFFF" stroke="#000000" stroke-width="2" d="M310.4,286.3c-1.2,0.601-2.5,1.3-3.802,1.9
	c-26.3,13.6-63.6,40.3-107.7,67.6c-44.1,26.9-78.6,29-94.4,10c-18.8-22.5,9.2-44.399,61.3-57.6c11.2-1.601,22.9-4,34.9-7
	c42.2-10.601,80.9-21,106.3-23.2c0.5,0,1.1-0.1,1.6-0.1C308.8,280.8,309.7,283.6,310.4,286.3z"/>
<path fill="#FFFFFF" stroke="#000000" stroke-width="2" d="M159.7,262.8c53.1,6.4,114.4-3,149.398,0.8
	c-0.198,4.8-1.398,9.6-0.698,14.4c-0.5,0-1,0.1-1.602,0.1c-25.3,2.1-63.3,11.4-106.3,23.2c-12.5,1.9-24.2,4.3-34.9,7
	c-48.2,7.101-86.4,1.5-87.9-18.399C75.8,264.1,105.5,274.6,159.7,262.8z"/>
<path fill="#FFFFFF" stroke="#000000" stroke-width="2" d="M193.1,220.4c44.9,17.4,95.3,23.3,118,32.5c-0.698,3.6-1.8,7-2,10.7
	c-35-3.8-96.3,5.7-149.398-0.8c-44-5.3-85.8-14.1-84-33C78.6,198.5,127.8,206.6,193.1,220.4z"/>
<path fill="#FFFFFF" stroke="#000000" stroke-width="2" d="M188.7,174.8c40.1,28.1,99.1,47.9,126.898,66
	c-1.698,3.8-3.698,7.7-4.5,12c-22.8-9.2-73.1-15.1-118-32.5c-47.6-18.3-112.1-41-96.7-58.4C111.9,144.3,139.6,161,188.7,174.8z"/>
<path fill="#FFFFFF" stroke="#000000" stroke-width="2" d="M315.7,240.9c-27.8-18.1-86.8-37.9-126.9-66
	c-32.4-22.7-65.8-54.6-49.8-62.6c17.6-8.8,38.9,2.3,73.1,29.2c35.2,33.1,89.7,64.2,113.7,86.1C321,231.7,318.3,234.9,315.7,240.9z"
	/>
<path fill="#FFFFFF" stroke="#000000" stroke-width="2" d="M325.7,227.5c-24-22-78.5-53-113.7-86.1c-27.4-25.8-56.8-58.6-43-64.9
	c24.6-11.2,54.4,5.8,90.9,50.9c2.4,3.1,4.7,6.1,7.1,9c11.4,16.1,25.9,31.6,39.2,45.6c15.7,17.6,27.3,29.9,30.7,34.7
	c0.1,0.1,0.198,0.3,0.3,0.4c-4.2,3-4.9,4.2-7.9,6.6C328.3,224.4,326.5,226.8,325.7,227.5z"/>
<path fill="#FFFFFF" stroke="#000000" stroke-width="2" d="M382.4,207.8l11.5,3.2c7.398,2.1,3.898,0.7,10.198,4.8
	c6,3.9,10.802,8.2,16.302,13.5c0.698,0.9,1.5,1.9,2.198,2.8c1.5,2.1,5.2,9.1,6.5,11.5c2.7,6,3.602,8.1,4.2,14.5
	c1.602,7.7,2.4,15.2,1,22.5c-1.1,5.7-3.7,12.1-5.5,17.7c-1,3-3.898,4.8-5,7.7c-1.398,3.5-4,4.6-6.3,7.5c-1,1.3-2.2,2.5-3.5,3.6
	c-0.4,0.2-0.8,0.5-1.2,0.9l0,0c-0.398,0.3-0.898,0.7-1.3,1.1c-1.2,0.9-2.5,1.801-3.8,2.7l0,0l0,0c-0.7,0.5-3.2,2.3-3.9,2.8
	c-3.5,2.5-4.8,2.7-8.6,4.2c-3.9,1.5-6.5,2.601-10.5,3.2c-2.8,0.4-5.2,1.3-8,1.3c-6.4-0.1-12.602,0.101-18.7-1.899
	c-1.7-0.5-9-2.699-10.7-3.399c-6-2.399-6.5-2.2-11.6-5.899c-3.4-2.399-6.5-5.101-9.4-7.899c-0.7-0.7-1.3-1.399-1.898-2.101
	c-2-2.301-4.602-4.601-6.2-7.199c-3.3-5.5-6-12-7.7-18.602c-0.7-2.8-1.6-5.5-2-8.3c-0.7-4.8,0.5-9.6,0.7-14.4
	c0.2-3.7,1.3-7.1,2-10.7c0.898-4.3,2.898-8.2,4.5-12c2.6-6,5.398-9.2,10-13.4c0.898-0.8,2.6-3.2,3.5-3.8c3-2.3,3.7-3.6,7.898-6.6
	c2.102-2.4,5-1.9,7.5-3.8c2.9-2.2,5.302-1.6,9-3.4c1-0.5,2.602-1.5,3.7-1.5c2-0.1,8.3-1.3,10.2-1.2
	C372.9,207.2,377.2,206.6,382.4,207.8z"/>
<path fill="#FFFFFF" stroke="#000000" stroke-width="2" d="M428.8,243.2c0,0,0,0.2,0.2,0.5c-1.3-2.4-5-9.3-6.5-11.5
	c28.2-19.4,87.1-49.4,129.9-76.9c33.398-21.5,68.8-43,80.698-20.7c13.4,25.1-18,39.1-78,64.7c-44.8,9-91.1,31.2-121.698,42.8
	c-1.2,0.4-2.4,0.9-3.602,1.3c-0.5-0.2-1-0.3-0.898,0C428.9,243.3,428.9,243.2,428.8,243.2z"/>
<path fill="#FFFFFF" stroke="#000000" stroke-width="2" d="M588.5,84.6c15.4,16.4,11,39.3-36,70.7c-42.8,27.6-101.7,57.5-129.9,76.9
	c-0.698-1-1.398-1.9-2.198-2.8c8.898-8.5,18.198-17.4,27.5-26.6c37.3-36,75.398-73.8,91.898-102.9C555,88.9,575.9,71.2,588.5,84.6z"
	/>
<path fill="#FFFFFF" stroke="#000000" stroke-width="2" d="M549.1,53.9c2.9,5.7-1.1,29.5-8.698,43.3
	C525.2,125,486,165.6,447.8,202.7c-9.3,9-18.6,17.9-27.5,26.6c-5.5-5.4-10.3-9.6-16.3-13.5c0.6-0.8,1.2-1.6,1.8-2.4
	c0.8-1.1,1.602-2.3,2.4-3.4c19.5-28,46.5-75.2,73.3-106.8l0,0c1.4-1.6,2.8-3.1,4.2-4.6c0.1-0.2,0.2-0.4,0.3-0.6
	c1.5-1.6,2.9-3.2,4.4-4.7C510.8,72,540.9,38,549.1,53.9z"/>
<path fill="#FFFFFF" stroke="#000000" stroke-width="2" d="M502.7,29.2c6.398,12.2-7,48.1-16.602,68.7c-1.5,1.7-3,3.4-4.5,5.2l0,0
	c-27.898,31-53.198,77.7-73.3,106.8c-0.8,1.2-1.6,2.3-2.398,3.4c-0.602,0.8-1.2,1.6-1.802,2.4c-6.3-4.2-2.898-2.7-10.198-4.8
	c17.698-30.3,30.398-93.8,57.3-131.1C471,52.4,493.6,12,502.7,29.2z"/>
<path fill="#FFFFFF" stroke="#000000" stroke-width="2" d="M446.9,14.5c12,10.8,10.5,28,4.198,65.4
	C424.2,117.1,411.6,180.7,393.8,211l-11.5-3.2c10.9-29.9,8.9-88,23.4-128.8h0.2C418.7,43.1,436.7,5.2,446.9,14.5z"/>
<path fill="#FFFFFF" stroke="#000000" stroke-width="2" d="M390.1,9.2C411.7,14.6,408.4,21.9,405.7,79
	c-14.4,40.7-12.5,98.9-23.4,128.8c-5.2-1.1-9.398-0.5-14.8-0.6c6-36.1-6.6-112,2.3-156.6C374.8,25.6,381.6,7,390.1,9.2z"/>
<path fill="#FFFFFF" stroke="#000000" stroke-width="2" d="M357.3,208.4c-2.398-31.2-23.398-91.9-24.5-135.3
	C331.9,39.6,337.5,3.2,351.9,9.9c10.1,4.7,13.199,14,17.899,40.7c-8.898,44.6,3.7,120.5-2.3,156.6
	C365.6,207.1,359.3,208.2,357.3,208.4z"/>
<path fill="#FFFFFF" stroke="#000000" stroke-width="2" d="M332.8,73.1c1.102,43.4,22.2,104.1,24.5,135.3c-1.1,0.1-2.7,1.1-3.7,1.5
	c-3.8,1.8-6.1,1.2-9,3.4c-0.198-0.8-0.3-1.5-0.5-2.3c-5.699-24.6-21.899-67-38.2-100c-26.1-53.1-26.8-95.7-16.1-97.7
	C308.7,9.7,323.8,35.2,332.8,73.1z"/>
<path fill="#FFFFFF" stroke="#000000" stroke-width="2" d="M226.7,35.9c26.3-7.4,51.1,24,79.3,75c15.4,35.1,32.4,75.6,38.2,100
	c0.2,0.8,0.398,1.6,0.5,2.3c-2.5,1.9-5.4,1.4-7.5,3.8c-0.102-0.1-0.2-0.2-0.3-0.4c-6.602-9.5-18.102-21.4-30.7-34.7
	c-11.4-12.7-24.9-28.2-39.2-45.6c-2.4-3.1-4.8-6.1-7.1-9C232,90.9,206.2,41.7,226.7,35.9z"/>
</svg>
