<?xml version="1.0" encoding="utf-8"?>
<!-- Generator: Adobe Illustrator 15.0.0, SVG Export Plug-In . SVG Version: 6.00 Build 0)  -->
<!DOCTYPE svg PUBLIC "-//W3C//DTD SVG 1.1//EN" "http://www.w3.org/Graphics/SVG/1.1/DTD/svg11.dtd">
<svg version="1.1" id="layer_x5F_www.ABC-color.com"
	 xmlns="http://www.w3.org/2000/svg" xmlns:xlink="http://www.w3.org/1999/xlink" x="0px" y="0px" width="822px" height="567px"
	 viewBox="0 0 822 567" enable-background="new 0 0 822 567" xml:space="preserve">
<path fill="#FFFFFF" stroke="#000000" d="M256.8,204.7c2.1,0.7,3.3,3,2.6,5.2c-0.7,2.2-2.9,3.4-5,2.8c-2.1-0.7-3.2-3-2.6-5.2
	C252.4,205.3,254.7,204.1,256.8,204.7z"/>
<path fill="#FFFFFF" stroke="#000000" d="M412.5,531.8c-15,10.102-23.6-1.8-23.6-1.8C398.5,518.5,412.5,531.8,412.5,531.8z"/>
<path fill="#FFFFFF" stroke="#000000" d="M570,414.2c0,0-13.9,38.2-30.9,55.8c0,0-33.898,17.6-53.898-12.1l-5.4-6.102
	C479.7,451.8,441.5,398.5,570,414.2z"/>
<path fill="#FFFFFF" stroke="#000000" d="M533.2,287.3c-2.102-0.7-3.3-3-2.602-5.2c0.7-2.2,2.9-3.5,5-2.8
	c2.102,0.7,3.302,3,2.602,5.2C537.6,286.7,535.3,288,533.2,287.3z"/>
<path fill="#FFFFFF" stroke="#000000" d="M507.6,493.6C525.7,523.2,529.4,524,529.9,523.9c-1.9,0.898-37.7,17.1-67.2,0
	c-30.3-17.602-21.8-23.602-12.102-40c-0.6-2.4,9.7-9.102,9.7-9.102S487.6,460.9,507.6,493.6z"/>
<path fill="#FFFFFF" stroke="#000000" d="M532.9,289.3h-0.2c-0.8,0.5-1.7,0.9-2.602,1.3c-4.1,1.4-8.1,0.5-8.898-2s1.8-5.7,5.898-7
	c0.4-0.1,0.7-0.2,1.102-0.3l0,0c-0.5-0.6-1-1.2-1.4-1.9c-2.2-3.7-2.2-7.8,0-9.2c2.2-1.4,5.9,0.6,8.102,4.3
	c0.5,0.8,0.898,1.7,1.198,2.6l0,0c0.7-0.4,1.4-0.8,2.302-1c4.1-1.4,8.1-0.5,8.898,2s-1.8,5.7-5.898,7c-0.2,0-0.302,0.102-0.4,0.102
	v0.1c0.5,0.7,0.9,1.5,1.3,2.301c1.7,4,1.102,8.101-1.3,9.101s-5.7-1.4-7.4-5.4C533.3,290.6,533.1,290,532.9,289.3z M530.7,282.1
	c-0.7,2.2,0.5,4.5,2.6,5.2c2.102,0.7,4.4-0.6,5-2.8c0.7-2.2-0.5-4.5-2.6-5.2C533.6,278.7,531.3,279.9,530.7,282.1z"/>
<path fill="#FFFFFF" stroke="#000000" d="M507.8,323c2.102,0.7,3.3,3,2.602,5.2c-0.7,2.2-2.9,3.5-5,2.8c-2.102-0.7-3.2-3-2.602-5.2
	C503.5,323.6,505.7,322.3,507.8,323z"/>
<path fill="#FFFFFF" stroke="#000000" d="M504.5,301.2c-2.1-0.7-3.3-3-2.6-5.2c0.698-2.2,2.898-3.5,5-2.8c2.1,0.7,3.3,3,2.6,5.2
	C508.9,300.6,506.7,301.9,504.5,301.2z"/>
<path fill="#FFFFFF" stroke="#000000" d="M502.8,325.8c-0.7,2.2,0.5,4.5,2.602,5.2c2.1,0.7,4.398-0.6,5-2.8
	c0.698-2.2-0.5-4.5-2.602-5.2C505.7,322.3,503.5,323.6,502.8,325.8z M502.3,334.2c-4.1,1.399-8,0.5-8.898-2
	c-0.802-2.5,1.8-5.7,5.898-7c0.4-0.101,0.7-0.2,1.102-0.3l0,0c-0.5-0.602-1-1.2-1.4-1.9c-2.2-3.7-2.2-7.8,0-9.2
	c2.2-1.399,5.9,0.5,8.1,4.3c0.5,0.9,0.9,1.7,1.2,2.602l0,0c0.7-0.4,1.4-0.7,2.3-1c4.102-1.4,8-0.5,8.9,2c0.8,2.5-1.8,5.6-5.9,7
	c-0.198,0.1-0.3,0.1-0.398,0.1v0.102c0.5,0.699,0.898,1.5,1.3,2.3c1.7,4,1.1,8.101-1.3,9.101c-2.4,1-5.7-1.4-7.4-5.4
	c-0.3-0.699-0.5-1.301-0.7-2H504.9C504.1,333.5,503.2,333.9,502.3,334.2z"/>
<path fill="#FFFFFF" stroke="#000000" d="M502,296c-0.7,2.2,0.5,4.5,2.6,5.2c2.102,0.7,4.4-0.601,5-2.8c0.7-2.2-0.5-4.5-2.6-5.2
	C504.9,292.6,502.7,293.8,502,296z M501.5,304.5c-4.1,1.4-8.1,0.5-8.9-2c-0.8-2.5,1.802-5.6,5.9-7c0.3-0.1,0.7-0.2,1.1-0.3l0,0
	c-0.5-0.601-1-1.2-1.398-1.9c-2.2-3.7-2.2-7.8,0-9.2c2.2-1.398,5.898,0.5,8.1,4.301c0.5,0.801,0.9,1.699,1.2,2.601l0,0
	c0.7-0.399,1.4-0.8,2.3-1c4.102-1.399,8-0.5,8.9,2c0.8,2.5-1.8,5.601-5.9,7c-0.2,0-0.3,0.101-0.398,0.101v0.101
	c0.5,0.7,0.898,1.5,1.3,2.3c1.7,4,1.1,8.1-1.3,9.1c-2.4,1-5.7-1.398-7.4-5.398c-0.3-0.7-0.5-1.301-0.7-2h-0.2
	C503.3,303.8,502.5,304.2,501.5,304.5z"/>
<path fill="#FFFFFF" stroke="#000000" d="M482.6,282.4c2.102,0.7,3.302,3,2.602,5.2c-0.7,2.2-2.9,3.5-5,2.801
	c-2.102-0.699-3.3-3-2.602-5.199C478.3,282.9,480.5,281.7,482.6,282.4z"/>
<path fill="#FFFFFF" stroke="#000000" d="M477.6,285.1c-0.698,2.2,0.5,4.5,2.602,5.2c2.1,0.7,4.398-0.6,5-2.8
	c0.7-2.2-0.5-4.5-2.602-5.2C480.5,281.7,478.3,282.9,477.6,285.1z M477.1,293.6c-4.1,1.4-8.1,0.5-8.898-2s1.8-5.699,5.8-7
	c0.4-0.1,0.7-0.199,1.1-0.3l0,0c-0.5-0.6-1-1.2-1.398-1.9c-2.2-3.7-2.2-7.8,0-9.2c2.2-1.4,5.898,0.5,8.1,4.3
	c0.5,0.8,0.9,1.7,1.2,2.6l0,0c0.7-0.4,1.4-0.7,2.3-1c4.102-1.4,8.102-0.5,8.9,2s-1.8,5.6-5.9,7c-0.1,0-0.3,0.102-0.398,0.2v0.101
	c0.5,0.699,0.898,1.5,1.3,2.301c1.7,4,1.1,8.1-1.3,9.1c-2.4,1-5.7-1.398-7.4-5.398c-0.3-0.7-0.5-1.301-0.6-2h-0.2
	C478.9,292.9,478,293.3,477.1,293.6z"/>
<path fill="#FFFFFF" stroke="#000000" d="M473.8,341.3c-2.1-0.7-3.3-3-2.6-5.2c0.7-2.199,2.898-3.398,5-2.8c2.1,0.7,3.3,3,2.6,5.2
	C478.2,340.7,475.9,341.9,473.8,341.3z"/>
<path fill="#FFFFFF" stroke="#000000" d="M471.3,336.1c-0.7,2.2,0.5,4.5,2.602,5.2c2.1,0.7,4.398-0.6,5-2.8
	c0.698-2.2-0.5-4.5-2.602-5.2C474.2,332.6,472,333.9,471.3,336.1z M470.8,344.5c-4.1,1.4-8,0.5-8.898-2c-0.802-2.5,1.8-5.6,5.898-7
	c0.3-0.1,0.7-0.2,1.102-0.3l0,0c-0.5-0.601-1-1.2-1.4-1.9c-2.2-3.7-2.2-7.8,0-9.2c2.2-1.398,5.8,0.5,8.1,4.301
	c0.5,0.899,0.9,1.699,1.2,2.601l0,0c0.7-0.399,1.4-0.8,2.3-1c4.102-1.399,8-0.5,8.9,2c0.8,2.5-1.8,5.601-5.8,7
	c-0.2,0-0.3,0.101-0.4,0.101v0.101c0.5,0.7,0.9,1.5,1.3,2.3c1.7,4,1.102,8.1-1.3,9.1c-2.398,1-5.7-1.398-7.398-5.398
	c-0.302-0.7-0.5-1.301-0.7-2h-0.2C472.6,343.8,471.7,344.2,470.8,344.5z"/>
<path fill="#FFFFFF" stroke="#000000" d="M464.3,370.5c-2.1-0.7-3.2-3-2.6-5.2c0.7-2.2,2.898-3.5,5-2.8c2.1,0.7,3.3,3,2.6,5.2
	S466.3,371.2,464.3,370.5z"/>
<path fill="#FFFFFF" stroke="#000000" d="M459.7,218.8c-2.102-0.7-3.3-3-2.602-5.2c0.7-2.2,2.9-3.5,5-2.8c2.102,0.7,3.2,3,2.602,5.2
	C464.1,218.2,461.8,219.5,459.7,218.8z"/>
<path fill="#FFFFFF" stroke="#000000" d="M461.7,365.3c-0.7,2.2,0.5,4.5,2.6,5.2c2.102,0.7,4.4-0.6,5-2.8c0.7-2.2-0.5-4.5-2.6-5.2
	C464.6,361.9,462.4,363.1,461.7,365.3z M461.2,373.8c-4.102,1.4-8,0.5-8.9-2c-0.898-2.5,1.8-5.7,5.9-7c0.398-0.1,0.7-0.2,1.1-0.3
	l0,0c-0.5-0.6-1-1.2-1.398-1.9c-2.2-3.699-2.2-7.8,0.1-9.199c2.2-1.399,5.9,0.5,8.1,4.301c0.5,0.8,0.9,1.699,1.2,2.6l0,0
	c0.7-0.398,1.4-0.699,2.3-1c4.102-1.398,8-0.5,8.9,2c0.8,2.5-1.8,5.7-5.9,7c-0.1,0.102-0.3,0.102-0.398,0.102v0.1
	c0.5,0.7,0.898,1.5,1.3,2.3c1.7,4,1.1,8.101-1.3,9.101c-2.4,1-5.7-1.399-7.4-5.399c-0.3-0.7-0.5-1.3-0.7-2H463.9
	C463,373,462.2,373.4,461.2,373.8z"/>
<path fill="#FFFFFF" stroke="#000000" d="M457.1,213.6c-0.698,2.2,0.5,4.5,2.602,5.2c2.1,0.7,4.398-0.6,5-2.8
	c0.7-2.2-0.5-4.5-2.602-5.2C460.1,210.2,457.8,211.4,457.1,213.6z M456.6,222.1c-4.1,1.4-8,0.5-8.898-2c-0.8-2.5,1.8-5.7,5.8-7
	c0.4-0.1,0.7-0.2,1.1-0.3l0,0c-0.5-0.6-1-1.2-1.398-1.9c-2.2-3.7-2.2-7.8,0-9.2c2.2-1.4,5.8,0.6,8.1,4.3c0.5,0.9,0.9,1.7,1.2,2.6
	l0,0c0.7-0.4,1.4-0.7,2.3-1c4.102-1.4,8-0.5,8.9,2c0.8,2.5-1.8,5.6-5.9,7c-0.2,0-0.3,0.1-0.398,0.1v0.1c0.5,0.7,0.898,1.5,1.3,2.3
	c1.7,4,1.1,8.1-1.3,9.1c-2.4,1-5.7-1.4-7.4-5.4c-0.3-0.7-0.5-1.3-0.7-2h-0.199C458.5,221.3,457.6,221.8,456.6,222.1z"/>
<path fill="#FFFFFF" stroke="#000000" d="M452.6,310.4c-2.1-0.7-3.3-3-2.6-5.2s2.9-3.5,5-2.8c2.1,0.699,3.3,3,2.6,5.199
	C457,309.8,454.7,311,452.6,310.4z"/>
<path fill="#FFFFFF" stroke="#000000" d="M446.6,249.4c0.7-2.2,2.9-3.4,5-2.8c2.102,0.7,3.302,3,2.602,5.2c-0.7,2.2-2.9,3.5-5,2.8
	C447,253.9,445.9,251.6,446.6,249.4z"/>
<path fill="#FFFFFF" stroke="#000000" d="M450,305.2c-0.7,2.2,0.5,4.5,2.6,5.2c2.102,0.699,4.302-0.602,5-2.801
	c0.7-2.199-0.5-4.5-2.6-5.199C453,301.7,450.7,303,450,305.2z M449.5,313.6c-4.1,1.4-8,0.5-8.9-2c-0.8-2.5,1.802-5.699,5.9-7
	c0.4-0.1,0.7-0.199,1.1-0.3l0,0c-0.5-0.6-1-1.2-1.398-1.899c-2.2-3.699-2.2-7.801,0-9.199c2.2-1.4,5.8,0.6,8.1,4.3
	c0.5,0.8,0.9,1.7,1.2,2.601h0.1c0.7-0.399,1.4-0.801,2.302-1c4.1-1.399,8-0.5,8.898,2c0.9,2.5-1.8,5.699-5.8,7
	c-0.1,0-0.3,0.101-0.4,0.101v0.101c0.5,0.699,0.9,1.5,1.302,2.299c1.698,4,1.1,8.102-1.302,9.102c-2.398,1-5.698-1.4-7.398-5.4
	c-0.3-0.699-0.5-1.3-0.7-2h-0.2C451.4,312.9,450.5,313.3,449.5,313.6z"/>
<path fill="#FFFFFF" stroke="#000000" d="M446.6,249.4c-0.698,2.2,0.5,4.5,2.602,5.2c2.1,0.7,4.3-0.6,5-2.8
	c0.7-2.2-0.5-4.5-2.602-5.2C449.5,245.9,447.3,247.2,446.6,249.4z M446.1,257.9c-4.1,1.4-8,0.5-8.898-2c-0.8-2.5,1.8-5.6,5.8-7
	c0.4-0.1,0.7-0.2,1.1-0.3l0,0c-0.5-0.6-1-1.2-1.398-1.9c-2.2-3.7-2.2-7.8,0-9.2s5.8,0.5,8.1,4.3c0.5,0.9,0.9,1.7,1.2,2.6h0.1
	c0.7-0.4,1.4-0.8,2.302-1c4.1-1.4,8-0.5,8.898,2c0.9,2.5-1.8,5.6-5.898,7c-0.102,0-0.302,0.1-0.4,0.1v0.1c0.5,0.7,0.9,1.5,1.3,2.3
	c1.7,4,1.102,8.1-1.3,9.1s-5.7-1.4-7.399-5.4c-0.301-0.7-0.5-1.3-0.601-2h-0.2C447.9,257.1,447,257.5,446.1,257.9z"/>
<path fill="#FFFFFF" stroke="#000000" d="M436.1,331.8c0.7-2.2,2.9-3.5,5-2.8c2.102,0.7,3.302,3,2.602,5.2s-2.9,3.5-5,2.8
	C436.6,336.4,435.4,334,436.1,331.8z"/>
<path fill="#FFFFFF" stroke="#000000" d="M416.1,403.9c0,0,69.102,19.398,21.802,57c0,0-2.2,1.398-2.802,2.5l-0.3-0.102l-5.5,1.8
	C425.8,457.2,383.4,459.7,416.1,403.9z"/>
<path fill="#FFFFFF" stroke="#000000" d="M436.1,331.8c-0.698,2.2,0.5,4.5,2.602,5.2c2.1,0.7,4.398-0.6,5-2.8
	c0.7-2.2-0.5-4.5-2.602-5.2C439,328.4,436.8,329.6,436.1,331.8z M435.6,340.3c-4.1,1.4-8.1,0.5-8.898-2s1.8-5.7,5.898-7
	c0.302-0.1,0.7-0.2,1.102-0.3l0,0c-0.5-0.6-1-1.2-1.4-1.9c-2.2-3.699-2.2-7.8,0-9.199s5.9,0.601,8.102,4.301
	c0.5,0.8,0.898,1.699,1.198,2.6h0.102c0.7-0.398,1.398-0.699,2.3-1c4.1-1.398,8-0.5,8.9,2c0.8,2.5-1.802,5.7-5.9,7
	c-0.1,0-0.3,0.102-0.4,0.102v0.1c0.5,0.7,0.9,1.5,1.302,2.3c1.698,4,1.1,8.101-1.302,9.101c-2.398,1-5.698-1.399-7.398-5.399
	c-0.3-0.7-0.5-1.3-0.7-2h-0.2C437.5,339.5,436.6,340,435.6,340.3z"/>
<path fill="#FFFFFF" stroke="#000000" d="M428.8,214.9c0.7-2.2,2.9-3.5,5-2.8c2.102,0.7,3.3,3,2.602,5.2c-0.7,2.2-2.9,3.5-5,2.8
	C429.3,219.4,428.2,217.1,428.8,214.9z"/>
<path fill="#FFFFFF" stroke="#000000" d="M423.4,359.7c0.698-2.2,2.898-3.5,5-2.8c2.1,0.699,3.3,3,2.6,5.199s-2.9,3.5-5,2.801
	C423.8,364.2,422.7,361.9,423.4,359.7z"/>
<path fill="#FFFFFF" stroke="#000000" d="M428.8,214.9c-0.7,2.2,0.5,4.5,2.602,5.2c2.1,0.7,4.398-0.6,5-2.8
	c0.698-2.2-0.5-4.5-2.602-5.2C431.8,211.4,429.5,212.7,428.8,214.9z M428.3,223.3c-4.1,1.4-8,0.5-8.898-2c-0.802-2.5,1.8-5.7,5.8-7
	c0.398-0.1,0.7-0.2,1.1-0.3l0,0c-0.5-0.6-1-1.2-1.398-1.9c-2.2-3.7-2.2-7.8,0.1-9.2c2.2-1.4,5.8,0.6,8.1,4.3
	c0.5,0.9,0.9,1.7,1.2,2.6h0.102c0.698-0.4,1.398-0.7,2.3-1c4.1-1.4,8-0.5,8.898,2c0.802,2.5-1.8,5.6-5.898,7
	c-0.102,0-0.3,0.1-0.4,0.1v0.1c0.5,0.7,0.9,1.5,1.301,2.3c1.699,4,1.101,8.1-1.301,9.1c-2.398,1-5.699-1.4-7.398-5.4
	c-0.301-0.7-0.5-1.3-0.602-2h-0.199C430.2,222.6,429.3,223,428.3,223.3z"/>
<path fill="#FFFFFF" stroke="#000000" d="M419.1,244c0.7-2.2,2.9-3.5,5-2.8c2.102,0.7,3.302,3,2.602,5.2c-0.7,2.2-2.9,3.5-5,2.8
	C419.6,248.5,418.5,246.2,419.1,244z"/>
<path fill="#FFFFFF" stroke="#000000" d="M418.5,176.7c0.7-2.2,2.9-3.5,5-2.8c2.1,0.7,3.2,3,2.6,5.2c-0.698,2.2-2.898,3.5-5,2.8
	C419,181.2,417.8,178.9,418.5,176.7z"/>
<path fill="#FFFFFF" stroke="#000000" d="M428.4,356.9c-2.102-0.7-4.302,0.6-5,2.8c-0.7,2.2,0.5,4.5,2.6,5.2
	c2.1,0.699,4.4-0.602,5-2.801C431.7,359.9,430.5,357.6,428.4,356.9z M422.9,368.2c-4.102,1.399-8,0.5-8.9-2c-0.8-2.5,1.8-5.7,5.9-7
	c0.398-0.101,0.698-0.2,1.1-0.3l0,0c-0.5-0.5-1-1.2-1.4-1.9c-2.198-3.7-2.198-7.8,0-9.2c2.2-1.399,5.802,0.5,8.102,4.3
	c0.5,0.801,0.898,1.7,1.2,2.602l0,0c0.698-0.4,1.398-0.7,2.3-1c4.1-1.4,8-0.5,8.898,2c0.802,2.5-1.8,5.699-5.898,7
	c-0.2,0-0.3,0.1-0.4,0.1v0.102c0.5,0.699,0.9,1.5,1.3,2.3c1.7,4,1.102,8.101-1.3,9.101c-2.398,1-5.7-1.4-7.398-5.4
	c-0.302-0.699-0.5-1.301-0.7-2h-0.2C424.7,367.4,423.8,367.9,422.9,368.2z"/>
<path fill="#FFFFFF" stroke="#000000" d="M417.3,150c0.7-2.2,2.9-3.5,5-2.8c2.102,0.7,3.3,3,2.602,5.2c-0.7,2.2-2.9,3.5-5,2.8
	C417.8,154.5,416.6,152.2,417.3,150z"/>
<path fill="#FFFFFF" stroke="#000000" d="M419.1,244c-0.698,2.2,0.5,4.5,2.602,5.2c2.1,0.7,4.3-0.6,5-2.8c0.7-2.2-0.5-4.5-2.602-5.2
	C422.1,240.5,419.8,241.8,419.1,244z M418.6,252.4c-4.1,1.4-8,0.5-8.898-2c-0.8-2.5,1.8-5.7,5.898-7c0.302-0.1,0.7-0.2,1.102-0.3
	l0,0c-0.5-0.6-1-1.2-1.4-1.9c-2.2-3.7-2.2-7.8,0-9.2s5.9,0.5,8.102,4.3c0.5,0.9,0.898,1.7,1.198,2.6h0.102c0.7-0.4,1.398-0.7,2.3-1
	c4.1-1.4,8-0.5,8.9,2c0.8,2.5-1.802,5.6-5.802,7c-0.198,0-0.3,0.1-0.398,0.1v0.1c0.5,0.7,0.898,1.5,1.3,2.3c1.7,4,1.1,8.1-1.3,9.1
	c-2.4,1-5.7-1.4-7.4-5.4c-0.3-0.7-0.5-1.3-0.7-2H421.4C420.5,251.7,419.6,252.1,418.6,252.4z"/>
<path fill="#FFFFFF" stroke="#000000" d="M418.5,176.7c-0.7,2.2,0.5,4.5,2.6,5.2c2.102,0.7,4.4-0.6,5-2.8c0.7-2.2-0.5-4.5-2.6-5.2
	C421.5,173.2,419.2,174.5,418.5,176.7z M418,185.2c-4.1,1.4-8,0.5-8.9-2c-0.8-2.5,1.802-5.7,5.802-7c0.398-0.1,0.698-0.2,1.1-0.3
	l0,0c-0.5-0.6-1-1.2-1.4-1.9c-2.198-3.7-2.198-7.8,0.102-9.2c2.2-1.4,5.8,0.5,8.1,4.3c0.5,0.9,0.9,1.7,1.2,2.6l0,0
	c0.7-0.4,1.4-0.7,2.3-1c4.102-1.4,8.102-0.5,8.9,2s-1.8,5.7-5.9,7c-0.1,0.1-0.3,0.1-0.398,0.1v0.1c0.5,0.7,0.898,1.5,1.3,2.3
	c1.7,4,1.1,8.1-1.3,9.1c-2.4,1-5.7-1.4-7.4-5.4c-0.3-0.7-0.5-1.3-0.6-2h-0.2C419.9,184.4,419,184.8,418,185.2z"/>
<path fill="#FFFFFF" stroke="#000000" d="M417.3,150c-0.7,2.2,0.5,4.5,2.602,5.2c2.1,0.7,4.398-0.6,5-2.8
	c0.698-2.2-0.5-4.5-2.602-5.2C420.3,146.6,418,147.8,417.3,150z M416.8,158.5c-4.1,1.4-8.1,0.5-8.898-2c-0.802-2.5,1.8-5.7,5.898-7
	c0.3-0.1,0.7-0.2,1.102-0.3l0,0c-0.5-0.6-1-1.2-1.4-1.9c-2.2-3.7-2.2-7.8,0-9.2s5.9,0.6,8.1,4.3c0.5,0.9,0.9,1.7,1.2,2.6l0,0
	c0.7-0.4,1.4-0.7,2.3-1c4.102-1.4,8.102-0.5,8.9,2s-1.8,5.6-5.9,7c-0.1,0-0.3,0.1-0.398,0.1v0.1c0.5,0.7,0.898,1.5,1.3,2.3
	c1.7,4,1.1,8.1-1.3,9.1c-2.4,1-5.7-1.4-7.4-5.4c-0.3-0.7-0.5-1.3-0.6-2h-0.2C418.7,157.7,417.8,158.2,416.8,158.5z"/>
<path fill="#FFFFFF" stroke="#000000" d="M410,307c0.7-2.2,2.9-3.5,5-2.8s3.3,3,2.6,5.2c-0.698,2.199-2.898,3.5-5,2.8
	C410.5,311.5,409.4,309.2,410,307z"/>
<path fill="#FFFFFF" stroke="#000000" d="M410,307c-0.7,2.2,0.5,4.5,2.6,5.2c2.102,0.7,4.302-0.601,5-2.8c0.7-2.2-0.5-4.5-2.6-5.2
	C413,303.5,410.7,304.8,410,307z M409.5,315.5c-4.1,1.4-8,0.5-8.9-2c-0.8-2.5,1.802-5.7,5.9-7c0.4-0.1,0.7-0.2,1.1-0.3l0,0
	c-0.5-0.601-1-1.2-1.398-1.9c-2.2-3.7-2.2-7.8,0-9.2c2.2-1.398,5.8,0.5,8.1,4.301c0.5,0.899,0.9,1.699,1.2,2.601h0.1
	c0.7-0.399,1.4-0.8,2.302-1c4.1-1.399,8-0.5,8.898,2c0.9,2.5-1.8,5.601-5.8,7c-0.1,0-0.3,0.101-0.4,0.101v0.101
	c0.5,0.7,0.9,1.5,1.302,2.3c1.698,4,1.1,8.1-1.302,9.1c-2.398,1-5.698-1.398-7.398-5.398c-0.3-0.7-0.5-1.301-0.7-2h-0.2
	C411.4,314.7,410.5,315.1,409.5,315.5z"/>
<path fill="#FFFFFF" stroke="#000000" d="M402.8,338.5c0.7-2.2,2.9-3.5,5-2.8c2.102,0.7,3.3,3,2.602,5.2c-0.7,2.199-2.9,3.5-5,2.8
	C403.2,343,402.1,340.7,402.8,338.5z"/>
<path fill="#FFFFFF" stroke="#000000" d="M402.8,338.5c-0.7,2.2,0.5,4.5,2.602,5.2c2.1,0.7,4.398-0.601,5-2.8
	c0.698-2.2-0.5-4.5-2.602-5.2C405.7,335,403.5,336.3,402.8,338.5z M402.3,347c-4.1,1.4-8,0.5-8.898-2c-0.802-2.5,1.8-5.7,5.898-7
	c0.4-0.1,0.7-0.2,1.102-0.3l0,0c-0.5-0.601-1-1.2-1.4-1.9c-2.2-3.7-2.2-7.8,0-9.2c2.2-1.398,5.9,0.5,8.1,4.301
	c0.5,0.801,0.9,1.699,1.2,2.601l0,0c0.7-0.399,1.4-0.8,2.3-1c4.102-1.399,8-0.5,8.9,2c0.8,2.5-1.8,5.7-5.9,7
	c-0.198,0-0.3,0.101-0.398,0.101v0.101c0.5,0.7,0.898,1.5,1.3,2.3c1.7,4,1.1,8.1-1.3,9.1c-2.4,1-5.7-1.398-7.4-5.398
	c-0.3-0.7-0.5-1.301-0.7-2H404.9C404.1,346.2,403.2,346.6,402.3,347z"/>
<path fill="#FFFFFF" stroke="#000000" d="M527.1,281.6c-4.1,1.4-6.698,4.5-5.898,7s4.8,3.4,8.898,2c1-0.3,1.802-0.8,2.602-1.3h0.2
	c0.1,0.7,0.398,1.3,0.6,2c1.7,4,5,6.4,7.4,5.4c2.398-1,3-5.101,1.3-9.101c-0.3-0.801-0.8-1.601-1.3-2.301v-0.1
	c0.1-0.102,0.3-0.102,0.398-0.102c4.102-1.398,6.7-4.5,5.9-7s-4.8-3.4-8.9-2c-0.8,0.3-1.6,0.6-2.3,1l0,0c-0.3-0.9-0.7-1.7-1.2-2.6
	c-2.2-3.7-5.8-5.6-8.1-4.3c-2.2,1.4-2.3,5.5,0,9.2c0.398,0.7,0.898,1.3,1.398,1.9l0,0C527.8,281.3,527.5,281.4,527.1,281.6z
	 M493.4,332.2c0.8,2.5,4.8,3.399,8.898,2c1-0.3,1.9-0.8,2.602-1.3h0.198c0.2,0.6,0.4,1.3,0.7,2c1.7,4,5,6.398,7.4,5.398
	c2.398-1,3-5.1,1.3-9.1c-0.3-0.801-0.8-1.602-1.3-2.301V328.8c0.1,0,0.3-0.1,0.398-0.1c4.102-1.4,6.7-4.5,5.9-7s-4.8-3.4-8.9-2
	c-0.8,0.3-1.6,0.6-2.3,1l0,0c-0.3-0.8-0.7-1.7-1.2-2.601c-2.198-3.699-5.8-5.601-8.1-4.301c-2.2,1.4-2.3,5.5,0,9.2
	c0.4,0.7,0.9,1.3,1.4,1.899l0,0c-0.4,0.101-0.7,0.199-1.102,0.301C495.2,326.6,492.5,329.7,493.4,332.2z M498.1,293.2
	c0.4,0.7,0.9,1.3,1.4,1.899l0,0c-0.3,0.101-0.7,0.199-1.1,0.301c-4.102,1.398-6.7,4.5-5.9,7s4.8,3.398,8.9,2
	c1-0.301,1.8-0.801,2.6-1.301h0.2c0.2,0.601,0.398,1.301,0.7,2c1.698,4,5,6.399,7.398,5.399c2.4-1,3-5.101,1.3-9.101
	c-0.398-0.899-0.8-1.601-1.3-2.301V299c0.102,0,0.3-0.1,0.4-0.1c4.1-1.4,6.7-4.5,5.898-7c-0.8-2.5-4.8-3.4-8.898-2
	c-0.8,0.3-1.602,0.6-2.3,1l0,0c-0.302-0.9-0.7-1.7-1.2-2.602c-2.2-3.699-5.8-5.6-8.102-4.3C495.9,285.4,495.9,289.5,498.1,293.2z
	 M474,284.6c-4.1,1.4-6.7,4.5-5.8,7c0.8,2.5,4.8,3.4,8.898,2c1-0.3,1.802-0.8,2.602-1.3h0.2c0.198,0.7,0.398,1.3,0.6,2
	c1.7,4,5,6.4,7.4,5.4c2.398-1,3-5.101,1.3-9.101c-0.3-0.801-0.8-1.601-1.3-2.301v-0.1c0.1,0,0.3-0.102,0.398-0.2
	c4.102-1.399,6.7-4.5,5.9-7s-4.8-3.4-8.9-2c-0.8,0.3-1.6,0.6-2.3,1l0,0c-0.3-0.8-0.7-1.7-1.2-2.6c-2.2-3.7-5.8-5.6-8.1-4.3
	c-2.2,1.4-2.3,5.5,0,9.2c0.398,0.7,0.898,1.3,1.398,1.9l0,0C474.8,284.3,474.4,284.4,474,284.6z M467.7,335.5
	c-4.102,1.4-6.7,4.5-5.9,7s4.8,3.4,8.9,2c1-0.3,1.898-0.8,2.6-1.3h0.2c0.2,0.6,0.4,1.3,0.7,2c1.7,4,5,6.399,7.398,5.399
	c2.4-1,3-5.101,1.302-9.101c-0.4-0.8-0.802-1.601-1.302-2.3v-0.1c0.102,0,0.302-0.1,0.4-0.1c4.1-1.4,6.7-4.5,5.8-7
	c-0.8-2.5-4.8-3.4-8.898-2c-0.802,0.3-1.602,0.6-2.302,1l0,0c-0.3-0.9-0.698-1.7-1.198-2.6c-2.2-3.7-5.802-5.602-8.102-4.301
	c-2.2,1.399-2.3,5.5,0,9.199c0.4,0.7,0.9,1.301,1.4,1.9l0,0C468.4,335.3,468.1,335.4,467.7,335.5z M458.2,364.7
	c-4.102,1.399-6.7,4.5-5.9,7s4.8,3.399,8.9,2c1-0.3,1.898-0.8,2.6-1.3h0.2c0.2,0.699,0.4,1.3,0.7,2c1.7,4,5,6.398,7.398,5.398
	c2.4-1,3-5.1,1.302-9.1c-0.302-0.801-0.802-1.602-1.302-2.301V368.3c0.2-0.1,0.302-0.1,0.4-0.1c4.1-1.4,6.7-4.5,5.9-7
	c-0.802-2.5-4.802-3.4-8.9-2c-0.8,0.3-1.6,0.6-2.3,1l0,0c-0.3-0.9-0.7-1.7-1.2-2.601c-2.2-3.699-5.8-5.601-8.1-4.301
	c-2.302,1.4-2.302,5.5-0.102,9.2c0.4,0.7,0.9,1.3,1.4,1.899l0,0C458.9,364.5,458.5,364.6,458.2,364.7z M446.5,304.6
	c-4.1,1.4-6.7,4.5-5.9,7c0.802,2.5,4.802,3.4,8.9,2c1-0.3,1.9-0.8,2.6-1.3h0.2c0.2,0.601,0.4,1.3,0.7,2c1.7,4,5,6.4,7.4,5.4
	c2.398-1,3-5.101,1.3-9.101c-0.4-0.899-0.8-1.601-1.3-2.301v-0.1c0.1,0,0.3-0.102,0.398-0.102c4.102-1.398,6.7-4.5,5.8-7
	c-0.898-2.5-4.8-3.398-8.898-2c-0.8,0.301-1.602,0.602-2.3,1H455.3c-0.3-0.898-0.7-1.699-1.2-2.6c-2.198-3.7-5.8-5.6-8.1-4.3
	c-2.2,1.399-2.3,5.5,0,9.2c0.4,0.699,0.9,1.3,1.4,1.898l0,0C447.2,304.4,446.9,304.5,446.5,304.6z M432.6,331.3
	c-4.1,1.4-6.698,4.5-5.898,7s4.8,3.4,8.898,2c1-0.3,1.802-0.8,2.602-1.3h0.2c0.198,0.7,0.398,1.3,0.698,2c1.7,4,5,6.4,7.4,5.4
	s3-5.102,1.3-9.102c-0.398-0.898-0.8-1.6-1.3-2.3v-0.101c0.1,0,0.3-0.101,0.4-0.101c4.1-1.399,6.698-4.5,5.898-7s-4.8-3.399-8.898-2
	c-0.802,0.3-1.602,0.601-2.302,1h-0.1c-0.3-0.899-0.7-1.7-1.2-2.601c-2.2-3.699-5.8-5.6-8.1-4.299c-2.2,1.398-2.3,5.5,0,9.199
	c0.398,0.699,0.898,1.301,1.398,1.899l0,0C433.3,331,432.9,331.1,432.6,331.3z M419.8,359.1c-4.1,1.4-6.7,4.5-5.898,7
	c0.8,2.5,4.8,3.4,8.898,2c1-0.3,1.9-0.8,2.602-1.3h0.198c0.2,0.7,0.4,1.3,0.7,2c1.7,4,5,6.4,7.4,5.4c2.398-1,3-5.101,1.3-9.101
	c-0.4-0.899-0.8-1.601-1.3-2.301v-0.1c0.2,0,0.3-0.102,0.398-0.102c4.102-1.398,6.7-4.5,5.9-7s-4.8-3.398-8.9-2
	c-0.8,0.301-1.6,0.602-2.3,1l0,0c-0.3-0.898-0.7-1.699-1.2-2.6c-2.198-3.7-5.8-5.6-8.1-4.3c-2.2,1.399-2.3,5.5,0,9.2
	c0.4,0.699,0.9,1.3,1.4,1.898l0,0C420.6,358.9,420.2,359,419.8,359.1z M409.4,289.4c0,0,21.198,9.699,23-8.5
	c0,0,26,12.7,26.698-14.5c0,0,10.5,0.4,12.2-5.7c7.9-4.3,13.9,4.4,13.9,4.4c8.5-10.9,19.398,1.8,19.398,1.8
	c6.7-14.5,20.602,0,20.602,0c9.1-12.1,21.2-2.4,21.2-2.4c4.898-12.7,19.398-2.4,19.398-2.4c6.102,1.8-4.8,17-4.8,17
	c4.2,7.3-8.5,14.5-8.5,14.5c3.6,7.9-12.7,12.102-12.7,12.102c10.9,7.898-1.2,17.6-1.2,17.6c6.7,7.301-8.5,19.4-8.5,19.4
	c4.2,12.699-16.398,12.699-16.398,12.699c3,10.301-12.102,13.301-12.102,13.301c3.602,6.699-6.1,12.699-6.1,12.699
	c1.8,13.301-16.4,14.5-16.4,14.5c-4.198,9.101-17,1.199-17,1.199c-4.898,11.5-22.398,2.4-22.398,2.4
	c-10.3,9.1-17.602-12.1-17.602-12.1c-9.698,6.1-13.898-10.9-13.898-10.9c-7.3,0-7.9-9.1-7.9-9.1c-4.898-0.602-4.898-11.5-4.898-11.5
	c-14.5,0-11.5-13.301-11.5-13.301c-1.102-0.699-2.102-1.399-2.802-2c-7.198-6.5,2.2-12.5,2.2-12.5c-6.7-7.301,4.9-14.5,4.9-14.5
	c-1.2-7.601,8.5-16.399,9.1-17l-0.1-0.5C400.7,295.1,404.8,293.1,409.4,289.4z M406.5,306.4c-4.1,1.398-6.7,4.5-5.9,7
	c0.802,2.5,4.802,3.398,8.9,2c1-0.301,1.9-0.801,2.6-1.301h0.2c0.2,0.601,0.4,1.301,0.7,2c1.7,4,5,6.399,7.4,5.399
	c2.398-1,3-5.101,1.3-9.101c-0.4-0.801-0.8-1.601-1.3-2.301V310c0.1,0,0.3-0.1,0.398-0.1c4.102-1.4,6.7-4.5,5.8-7
	c-0.898-2.5-4.8-3.4-8.898-2c-0.8,0.3-1.602,0.6-2.3,1H415.3c-0.3-0.801-0.7-1.7-1.2-2.602c-2.198-3.699-5.8-5.6-8.1-4.3
	s-2.3,5.5,0,9.2c0.4,0.699,0.9,1.3,1.4,1.898l0,0C407.2,306.2,406.9,306.3,406.5,306.4z M399.2,337.9c-4.102,1.398-6.7,4.5-5.9,7
	s4.8,3.398,8.9,2c1-0.301,1.898-0.801,2.6-1.301h0.2c0.2,0.699,0.4,1.301,0.7,2c1.7,4,5,6.399,7.398,5.399
	c2.4-1,3-5.101,1.302-9.101C414.1,343,413.6,342.3,413.1,341.6v-0.1c0.102,0,0.302-0.1,0.4-0.1c4.1-1.4,6.7-4.5,5.9-7
	c-0.802-2.5-4.802-3.4-8.9-2c-0.8,0.3-1.6,0.6-2.3,1l0,0c-0.3-0.9-0.7-1.7-1.2-2.602c-2.2-3.699-5.8-5.6-8.1-4.3
	c-2.2,1.399-2.302,5.5,0,9.2c0.398,0.699,0.898,1.3,1.398,1.898l0,0C400,337.7,399.6,337.8,399.2,337.9z"/>
<path fill="#FFFFFF" stroke="#000000" d="M391.9,134.9c0.698-2.2,2.898-3.5,5-2.8c2.1,0.7,3.3,3,2.6,5.2c-0.7,2.2-2.9,3.5-5,2.8
	C392.3,139.4,391.2,137.1,391.9,134.9z"/>
<path fill="#FFFFFF" stroke="#000000" d="M391.9,225.2c0.698-2.2,2.898-3.4,5-2.8c2.1,0.7,3.3,3,2.6,5.2c-0.7,2.2-2.9,3.5-5,2.8
	C392.3,229.7,391.2,227.4,391.9,225.2z"/>
<path fill="#FFFFFF" stroke="#000000" d="M391.3,268.4c-2.1-0.7-3.3-3-2.6-5.2c0.7-2.2,2.898-3.5,5-2.8c2.1,0.7,3.3,3,2.6,5.2
	C395.6,267.8,393.4,269,391.3,268.4z"/>
<path fill="#FFFFFF" stroke="#000000" d="M388,100.9c0.7-2.2,2.9-3.5,5-2.8c2.1,0.7,3.2,3,2.6,5.2c-0.698,2.2-2.898,3.5-5,2.8
	C388.5,105.4,387.4,103.1,388,100.9z"/>
<path fill="#FFFFFF" stroke="#000000" d="M391.9,134.9c-0.7,2.2,0.5,4.5,2.6,5.2c2.1,0.7,4.4-0.6,5-2.8c0.7-2.2-0.5-4.5-2.6-5.2
	C394.8,131.4,392.5,132.7,391.9,134.9z M391.4,143.3c-4.102,1.4-8,0.5-8.9-2c-0.8-2.5,1.8-5.7,5.9-7c0.398-0.1,0.698-0.2,1.1-0.3
	l0,0c-0.5-0.6-1-1.2-1.4-1.9c-2.198-3.7-2.198-7.8,0-9.2c2.302-1.4,5.9,0.6,8.102,4.3c0.5,0.9,0.898,1.7,1.2,2.6l0,0
	c0.698-0.4,1.398-0.7,2.3-1c4.1-1.4,8-0.5,8.898,2c0.9,2.5-1.8,5.6-5.898,7c-0.102,0-0.3,0.1-0.4,0.1v0.1c0.5,0.7,0.9,1.5,1.3,2.3
	c1.7,4,1.102,8.1-1.3,9.1c-2.398,1-5.7-1.4-7.398-5.4c-0.302-0.7-0.5-1.3-0.602-2h-0.2C393.2,142.6,392.3,143,391.4,143.3z"/>
<path fill="#FFFFFF" stroke="#000000" d="M391.9,225.2c-0.7,2.2,0.5,4.5,2.6,5.2c2.1,0.7,4.4-0.6,5-2.8c0.7-2.2-0.5-4.5-2.6-5.2
	C394.8,221.7,392.5,223,391.9,225.2z M391.4,233.6c-4.102,1.4-8,0.5-8.9-2s1.8-5.6,5.9-7c0.398-0.1,0.698-0.2,1.1-0.3l0,0
	c-0.5-0.6-1-1.2-1.4-1.9c-2.198-3.7-2.198-7.8,0-9.2c2.302-1.4,5.9,0.5,8.102,4.3c0.5,0.8,0.898,1.7,1.2,2.6l0,0
	c0.698-0.4,1.398-0.8,2.3-1c4.1-1.4,8-0.5,8.898,2c0.9,2.5-1.8,5.6-5.898,7c-0.102,0-0.3,0.1-0.4,0.1v0.1c0.5,0.7,0.9,1.5,1.3,2.3
	c1.7,4,1.102,8.1-1.3,9.1c-2.398,1-5.7-1.4-7.398-5.4c-0.302-0.7-0.5-1.3-0.602-2h-0.2C393.2,232.9,392.3,233.3,391.4,233.6z"/>
<path fill="#FFFFFF" stroke="#000000" d="M388.7,263.2c-0.7,2.2,0.5,4.5,2.6,5.2c2.102,0.7,4.4-0.6,5-2.8c0.7-2.2-0.5-4.5-2.6-5.2
	C391.6,259.7,389.4,261,388.7,263.2z M388.2,271.6c-4.102,1.4-8,0.5-8.9-2c-0.8-2.5,1.8-5.6,5.9-7c0.3-0.1,0.7-0.2,1.1-0.3l0,0
	c-0.5-0.6-1-1.2-1.398-1.9c-2.2-3.7-2.2-7.8,0.1-9.2c2.2-1.4,5.8,0.6,8.1,4.3c0.5,0.9,0.9,1.7,1.2,2.6h0.102
	c0.699-0.4,1.398-0.8,2.3-1c4.1-1.4,8-0.5,8.898,2c0.9,2.5-1.8,5.6-5.8,7c-0.1,0.1-0.3,0.1-0.398,0.1v0.1c0.5,0.7,0.898,1.5,1.3,2.3
	c1.7,4,1.1,8.1-1.3,9.1c-2.4,1-5.7-1.4-7.4-5.4c-0.3-0.7-0.5-1.3-0.7-2h-0.2C390.1,270.9,389.2,271.3,388.2,271.6z"/>
<path fill="#FFFFFF" stroke="#000000" d="M388,100.9c-0.7,2.2,0.5,4.5,2.6,5.2c2.102,0.7,4.4-0.6,5-2.8c0.7-2.2-0.5-4.5-2.6-5.2
	C391,97.4,388.7,98.7,388,100.9z M387.5,109.4c-4.1,1.4-8,0.5-8.9-2c-0.8-2.5,1.802-5.6,5.802-7c0.398-0.1,0.698-0.2,1.1-0.3l0,0
	c-0.5-0.6-1-1.2-1.4-1.9c-2.198-3.7-2.198-7.8,0.102-9.2c2.2-1.4,5.8,0.6,8.1,4.3c0.5,0.9,0.9,1.7,1.2,2.6l0,0
	c0.7-0.4,1.4-0.8,2.3-1c4.102-1.4,8.102-0.5,8.9,2s-1.8,5.6-5.9,7c-0.1,0.1-0.3,0.1-0.398,0.1v0.1c0.5,0.7,0.898,1.5,1.3,2.3
	c1.7,4,1.1,8.1-1.3,9.1c-2.4,1-5.7-1.4-7.4-5.4c-0.3-0.7-0.5-1.3-0.6-2h-0.2C389.4,108.6,388.5,109,387.5,109.4z"/>
<path fill="#FFFFFF" stroke="#000000" d="M386.1,197.9c-0.698,2.2-2.898,3.5-5,2.8c-2.1-0.7-3.3-3-2.6-5.2s2.9-3.5,5-2.8
	C385.7,193.3,386.8,195.7,386.1,197.9z"/>
<path fill="#FFFFFF" stroke="#000000" d="M313.1,448.1l-8.5-4.198l14.5-20.602c0,0-40,1.8-52.1,11.5l-1.2-9.1l44.9-7.9l-19.4-4.898
	c0,0,2.8-1.802,4.6-5.802l0.9,0.4c75.8,20,85.4,49.7,85.4,49.7c3.398-18-46.3-85.3-53.602-95.2c4.302-0.8,8.9-3.3,8.2-10.9
	c0,0,2.3,1.2,4.8,1.102v0.199c0,0,28.5,53.899,29.7,48.501c1.2-5.4,2.4-65.4-4.5-70.7c0.3-0.7,0.4-1.602,0.3-2.602
	c0,0,9.7-7.3,5.5-11.5c0,0,15.2-13.898,0-17.6l-0.1-0.1c2.8-1,5.6-2.7,8.5-5.301c0,0,5.7,6.101,16.2,3.101l0.1,0.5
	c-0.6,0.5-10.2,9.3-9.1,17c0,0-11.5,7.3-4.9,14.5c0,0-9.398,6-2.2,12.5l-0.198,0.2c0,0-4.9,44.8,0,51.5
	C385.8,399.1,400.3,367.6,400.3,367.6s0.602,9.102,7.9,9.102c0,0-19.4,17.6-21.2,37c-1.8,19.398,17,80,17,80s29.1-20.602,25.5-28.5
	l5.5-1.8l0.3,0.1c-0.5,1.1,0.3,2,5.2,1.7c10.3-0.602,39.4-13.3,39.4-13.3l5.398,6.1l-40.6,13.3l15.8,3.602c0,0-10.3,6.7-9.7,9.1
	c0,0-7.3-23.6-39.398,14.602l1.198,33.3c0,0-13.898-13.3-23.6-1.8c0,0-18.8-100.602-62.4-104.9C326.4,425.1,309.4,443.3,313.1,448.1
	z"/>
<path fill="#FFFFFF" stroke="#000000" d="M378.5,195.5c-0.7,2.2,0.5,4.5,2.6,5.2c2.102,0.7,4.4-0.6,5-2.8c0.7-2.2-0.5-4.5-2.6-5.2
	C381.5,192,379.2,193.3,378.5,195.5z M378,203.9c-4.1,1.4-8,0.5-8.9-2c-0.8-2.5,1.802-5.7,5.9-7c0.4-0.1,0.7-0.2,1.1-0.3l0,0
	c-0.5-0.6-1-1.2-1.398-1.9c-2.2-3.7-2.2-7.8,0-9.2s5.898,0.5,8.1,4.3c0.5,0.9,0.9,1.7,1.2,2.6l0,0c0.7-0.4,1.4-0.8,2.3-1
	c4.102-1.4,8-0.5,8.9,2c0.8,2.5-1.8,5.7-5.9,7c-0.1,0.1-0.3,0.1-0.398,0.1v0.1c0.5,0.7,0.898,1.5,1.3,2.3c1.7,4,1.1,8.1-1.3,9.1
	c-2.4,1-5.7-1.4-7.4-5.4c-0.3-0.7-0.5-1.3-0.7-2h-0.2C379.9,203.2,379,203.6,378,203.9z"/>
<path fill="#FFFFFF" stroke="#000000" d="M371.1,162.1c0.7-2.2,2.9-3.5,5-2.8c2.102,0.7,3.2,3,2.602,5.2c-0.7,2.2-2.9,3.5-5,2.8
	C371.5,166.6,370.4,164.3,371.1,162.1z"/>
<path fill="#FFFFFF" stroke="#000000" d="M371.1,162.1c-0.698,2.2,0.5,4.5,2.602,5.2c2.1,0.7,4.398-0.6,5-2.8
	c0.7-2.2-0.5-4.5-2.602-5.2C374,158.6,371.8,159.9,371.1,162.1z M370.6,170.6c-4.1,1.4-8,0.5-8.898-2c-0.8-2.5,1.8-5.6,5.898-7
	c0.4-0.1,0.7-0.2,1.102-0.3l0,0c-0.5-0.6-0.9-1.2-1.4-1.9c-2.2-3.7-2.2-7.8,0-9.2c2.2-1.4,5.9,0.6,8.102,4.3
	c0.5,0.9,0.898,1.7,1.198,2.6h0.102c0.7-0.4,1.398-0.8,2.3-1c4.1-1.4,8-0.5,8.9,2c0.8,2.5-1.802,5.6-5.9,7c-0.1,0-0.3,0.1-0.4,0.1
	v0.1c0.5,0.7,0.9,1.5,1.302,2.3c1.698,4,1.1,8.1-1.302,9.1c-2.398,1-5.698-1.4-7.398-5.4c-0.3-0.7-0.5-1.3-0.602-2H373.4
	C372.4,169.8,371.5,170.2,370.6,170.6z"/>
<path fill="#FFFFFF" stroke="#000000" d="M365.2,58.8c-2.102-0.7-3.3-3-2.602-5.2c0.7-2.2,2.9-3.5,5-2.8
	c2.102,0.7,3.302,3,2.602,5.2S367.3,59.5,365.2,58.8z"/>
<path fill="#FFFFFF" stroke="#000000" d="M362.9,284.3c-2.102-0.7-3.302-3-2.602-5.2c0.7-2.2,2.9-3.5,5-2.8
	c2.102,0.7,3.3,3,2.602,5.2C367.3,283.7,365,285,362.9,284.3z"/>
<path fill="#FFFFFF" stroke="#000000" d="M361.7,234.6c-2.102-0.7-3.3-3-2.602-5.2c0.7-2.2,2.9-3.5,5-2.8
	c2.102,0.7,3.302,3,2.602,5.2C366.1,234,363.8,235.3,361.7,234.6z"/>
<path fill="#FFFFFF" stroke="#000000" d="M360.3,83.1c-2.1-0.7-3.3-3-2.6-5.2c0.7-2.2,2.898-3.4,5-2.8c2.1,0.7,3.3,3,2.6,5.2
	C364.7,82.5,362.4,83.7,360.3,83.1z"/>
<path fill="#FFFFFF" stroke="#000000" d="M362.6,53.6c-0.698,2.2,0.5,4.5,2.602,5.2c2.1,0.7,4.3-0.6,5-2.8s-0.5-4.5-2.602-5.2
	C365.5,50.2,363.3,51.4,362.6,53.6z M362.1,62.1c-4.1,1.4-8,0.5-8.898-2c-0.8-2.5,1.8-5.7,5.898-7c0.4-0.1,0.7-0.2,1.102-0.3l0,0
	c-0.5-0.6-1-1.2-1.4-1.9c-2.2-3.7-2.2-7.8,0-9.2c2.2-1.4,5.9,0.6,8.102,4.3c0.5,0.9,0.898,1.7,1.198,2.6h0.102
	c0.7-0.4,1.398-0.7,2.3-1c4.1-1.4,8-0.5,8.9,2c0.898,2.5-1.802,5.6-5.9,7c-0.1,0-0.3,0.1-0.4,0.1v0.1c0.5,0.7,0.9,1.5,1.302,2.3
	c1.698,4,1.1,8.1-1.302,9.1c-2.398,1-5.698-1.4-7.398-5.4c-0.3-0.7-0.5-1.3-0.7-2h-0.2C363.9,61.3,363,61.8,362.1,62.1z"/>
<path fill="#FFFFFF" stroke="#000000" d="M360.4,279.1c-0.7,2.2,0.5,4.5,2.6,5.2c2.1,0.7,4.4-0.6,5-2.8c0.7-2.2-0.5-4.5-2.6-5.2
	C363.3,275.6,361,276.9,360.4,279.1z M359.9,287.6c-4.102,1.4-8.102,0.5-8.9-2c-0.8-2.5,1.8-5.6,5.9-7c0.398-0.1,0.698-0.2,1.1-0.3
	l0,0c-0.5-0.6-1-1.2-1.4-1.9c-2.198-3.7-2.198-7.8,0-9.2c2.2-1.4,5.9,0.5,8.102,4.3c0.5,0.9,0.898,1.7,1.2,2.6l0,0
	c0.698-0.4,1.398-0.8,2.3-1c4.1-1.4,8.1-0.5,8.898,2c0.802,2.5-1.8,5.6-5.898,7c-0.102,0-0.3,0.1-0.4,0.1v0.1
	c0.5,0.7,0.9,1.5,1.3,2.3c1.7,4,1.102,8.102-1.3,9.102c-2.398,1-5.7-1.4-7.398-5.4c-0.302-0.699-0.5-1.3-0.602-2h-0.2
	C361.7,286.8,360.8,287.2,359.9,287.6z"/>
<path fill="#FFFFFF" stroke="#000000" d="M359.1,229.4c-0.698,2.2,0.5,4.5,2.602,5.2c2.1,0.7,4.398-0.6,5-2.8
	c0.7-2.2-0.5-4.5-2.602-5.2C362.1,226,359.8,227.2,359.1,229.4z M358.6,237.9c-4.1,1.4-8.1,0.5-8.898-2s1.8-5.6,5.898-7
	c0.4-0.1,0.7-0.2,1.102-0.3l0,0c-0.5-0.6-1-1.2-1.4-1.9c-2.2-3.7-2.2-7.8,0-9.2s5.9,0.6,8.102,4.3c0.5,0.9,0.898,1.7,1.198,2.6
	h0.102c0.7-0.4,1.398-0.8,2.3-1c4.1-1.4,8.1-0.5,8.9,2c0.8,2.5-1.802,5.6-5.802,7c-0.198,0.1-0.3,0.1-0.398,0.1v0.1
	c0.5,0.7,0.898,1.5,1.3,2.3c1.7,4,1.1,8.1-1.3,9.1c-2.4,1-5.7-1.4-7.4-5.4c-0.3-0.7-0.5-1.3-0.7-2H361.4
	C360.5,237.1,359.6,237.6,358.6,237.9z"/>
<path fill="#FFFFFF" stroke="#000000" d="M351.9,105.2c0.698-2.2,2.898-3.4,5-2.8c2.1,0.7,3.3,3,2.6,5.2c-0.7,2.2-2.9,3.5-5,2.8
	C352.3,109.7,351.2,107.4,351.9,105.2z"/>
<path fill="#FFFFFF" stroke="#000000" d="M357.7,77.9c-0.7,2.2,0.5,4.5,2.6,5.2c2.102,0.7,4.4-0.6,5-2.8c0.7-2.2-0.5-4.5-2.6-5.2
	C360.7,74.4,358.4,75.7,357.7,77.9z M357.2,86.3c-4.102,1.4-8.102,0.5-8.9-2s1.8-5.6,5.9-7c0.398-0.1,0.7-0.2,1.1-0.3l0,0
	c-0.5-0.6-1-1.2-1.398-1.9c-2.2-3.7-2.2-7.8,0-9.2c2.198-1.4,5.898,0.5,8.1,4.3c0.5,0.9,0.9,1.7,1.2,2.6h0.1c0.7-0.4,1.4-0.8,2.3-1
	c4.102-1.4,8-0.5,8.9,2c0.8,2.5-1.8,5.6-5.9,7c-0.1,0-0.3,0.1-0.398,0.1V81c0.5,0.7,0.898,1.5,1.3,2.3c1.7,4,1.1,8.1-1.3,9.1
	c-2.4,1-5.7-1.4-7.4-5.4c-0.3-0.7-0.5-1.3-0.7-2H359.9C359.1,85.6,358.2,86,357.2,86.3z"/>
<path fill="#FFFFFF" stroke="#000000" d="M351.8,143.1c-2.1-0.7-3.2-3-2.6-5.2c0.7-2.2,2.898-3.4,5-2.8c2.1,0.7,3.3,3,2.6,5.2
	C356.2,142.5,353.9,143.7,351.8,143.1z"/>
<path fill="#FFFFFF" stroke="#000000" d="M351.9,105.2c-0.7,2.2,0.5,4.5,2.6,5.2c2.1,0.7,4.4-0.6,5-2.8c0.7-2.2-0.5-4.5-2.6-5.2
	C354.8,101.7,352.5,103,351.9,105.2z M351.4,113.6c-4.102,1.4-8,0.5-8.9-2s1.8-5.6,5.9-7c0.398-0.1,0.698-0.2,1.1-0.3l0,0
	c-0.5-0.6-1-1.2-1.4-1.9c-2.198-3.7-2.198-7.8,0-9.2c2.2-1.4,5.9,0.5,8.102,4.3c0.5,0.8,0.898,1.7,1.2,2.6h0.1
	c0.7-0.4,1.4-0.8,2.3-1c4.102-1.4,8-0.5,8.9,2c0.8,2.5-1.8,5.6-5.9,7c-0.1,0-0.3,0.1-0.398,0.1v0.1c0.5,0.7,0.898,1.5,1.3,2.3
	c1.7,4,1.1,8.1-1.3,9.1c-2.4,1-5.7-1.4-7.4-5.4c-0.3-0.7-0.5-1.3-0.6-2h-0.2C353.2,112.9,352.3,113.3,351.4,113.6z"/>
<path fill="#FFFFFF" stroke="#000000" d="M349.3,137.9c-0.7,2.2,0.5,4.5,2.602,5.2c2.1,0.7,4.398-0.6,5-2.8
	c0.698-2.2-0.5-4.5-2.602-5.2C352.2,134.4,349.9,135.7,349.3,137.9z M348.8,146.3c-4.1,1.4-8,0.5-8.898-2
	c-0.802-2.5,1.8-5.6,5.898-7c0.4-0.1,0.7-0.2,1.102-0.3l0,0c-0.5-0.6-1-1.2-1.4-1.9c-2.2-3.7-2.2-7.8,0.1-9.2
	c2.2-1.4,5.9,0.5,8.102,4.3c0.5,0.9,0.898,1.7,1.2,2.6h0.1c0.7-0.4,1.4-0.8,2.3-1c4.102-1.4,8-0.5,8.9,2c0.8,2.5-1.8,5.6-5.9,7
	c-0.1,0-0.3,0.1-0.398,0.1v0.1c0.5,0.7,0.898,1.5,1.3,2.3c1.7,4,1.1,8.1-1.3,9.1c-2.4,1-5.7-1.4-7.4-5.4c-0.3-0.7-0.5-1.3-0.6-2
	h-0.2C350.6,145.6,349.7,146,348.8,146.3z"/>
<path fill="#FFFFFF" stroke="#000000" d="M340.4,188.2c0.698-2.2,2.898-3.5,5-2.8c2.1,0.7,3.3,3,2.6,5.2c-0.7,2.2-2.9,3.5-5,2.8
	C340.8,192.7,339.7,190.4,340.4,188.2z"/>
<path fill="#FFFFFF" stroke="#000000" d="M339.9,23.4c-2.102-0.7-3.2-3-2.602-5.2c0.7-2.2,2.9-3.5,5-2.8c2.102,0.7,3.3,3,2.602,5.2
	C344.2,22.9,342,24.1,339.9,23.4z"/>
<path fill="#FFFFFF" stroke="#000000" d="M334.7,48.2c0.7-2.2,2.898-3.5,5-2.8c2.1,0.7,3.3,3,2.6,5.2c-0.7,2.2-2.898,3.5-5,2.8
	C335.2,52.7,334,50.4,334.7,48.2z"/>
<path fill="#FFFFFF" stroke="#000000" d="M340.4,188.2c-0.7,2.2,0.5,4.5,2.6,5.2c2.1,0.7,4.4-0.6,5-2.8c0.7-2.2-0.5-4.5-2.6-5.2
	C343.3,184.7,341,186,340.4,188.2z M339.9,196.7c-4.102,1.4-8.102,0.5-8.9-2s1.8-5.7,5.9-7c0.398-0.1,0.698-0.2,1.1-0.3l0,0
	c-0.5-0.6-1-1.2-1.4-1.9c-2.198-3.7-2.198-7.8,0-9.2c2.2-1.4,5.9,0.5,8.102,4.3c0.5,0.9,0.898,1.7,1.2,2.6l0,0
	c0.698-0.4,1.398-0.8,2.3-1c4.1-1.4,8.1-0.5,8.898,2c0.802,2.5-1.8,5.7-5.898,7c-0.102,0.1-0.3,0.1-0.4,0.1v0.1
	c0.5,0.7,0.9,1.5,1.3,2.3c1.7,4,1.102,8.1-1.3,9.1c-2.398,1-5.7-1.4-7.398-5.4c-0.302-0.7-0.5-1.3-0.602-2h-0.2
	C341.7,195.9,340.8,196.3,339.9,196.7z"/>
<path fill="#FFFFFF" stroke="#000000" d="M333.1,315.5c0.7-2.2,2.9-3.5,5-2.8c2.102,0.7,3.302,3,2.602,5.2
	c-0.7,2.199-2.9,3.398-5,2.8C333.5,320,332.4,317.7,333.1,315.5z"/>
<path fill="#FFFFFF" stroke="#000000" d="M339.2,260.2c-0.7,2.2-2.9,3.5-5,2.8c-2.102-0.7-3.2-3-2.602-5.2c0.7-2.2,2.9-3.4,5-2.8
	C338.8,255.6,339.9,258,339.2,260.2z"/>
<path fill="#FFFFFF" stroke="#000000" d="M337.3,18.3c-0.7,2.2,0.5,4.5,2.602,5.2c2.1,0.7,4.398-0.6,5-2.8
	c0.698-2.2-0.5-4.5-2.602-5.2C340.2,14.8,338,16,337.3,18.3z M336.8,26.7c-4.1,1.4-8,0.5-8.898-2c-0.802-2.5,1.8-5.6,5.8-7
	c0.398-0.1,0.7-0.2,1.1-0.3l0,0c-0.5-0.6-1-1.2-1.398-1.9c-2.2-3.7-2.2-7.8,0.1-9.2c2.3-1.4,5.9,0.5,8.1,4.3
	c0.5,0.9,0.9,1.7,1.2,2.6l0,0c0.7-0.4,1.4-0.8,2.3-1c4.102-1.4,8.102-0.5,8.9,2s-1.8,5.6-5.9,7c-0.1,0-0.3,0.1-0.398,0.1v0.1
	c0.5,0.7,0.898,1.5,1.3,2.3c1.7,4,1.101,8.1-1.3,9.1s-5.7-1.4-7.4-5.4c-0.3-0.7-0.5-1.3-0.6-2h-0.2C338.6,26,337.8,26.4,336.8,26.7z
	"/>
<path fill="#FFFFFF" stroke="#000000" d="M334.7,48.2c-0.7,2.2,0.5,4.5,2.6,5.2c2.102,0.7,4.4-0.6,5-2.8c0.7-2.2-0.5-4.5-2.6-5.2
	C337.6,44.7,335.4,46,334.7,48.2z M334.2,56.6c-4.102,1.4-8,0.5-8.9-2c-0.8-2.5,1.8-5.6,5.9-7c0.3-0.1,0.7-0.2,1.1-0.3l0,0
	c-0.5-0.6-1-1.2-1.398-1.9c-2.2-3.7-2.2-7.8,0.1-9.2c2.2-1.4,5.8,0.6,8.1,4.3c0.5,0.9,0.9,1.7,1.2,2.6h0.102
	c0.699-0.4,1.398-0.8,2.3-1c4.1-1.4,8-0.5,8.898,2c0.9,2.5-1.8,5.6-5.898,7c-0.102,0.1-0.3,0.1-0.4,0.1v0.1c0.5,0.7,0.9,1.5,1.3,2.3
	c1.7,4,1.102,8.1-1.3,9.1c-2.398,1-5.7-1.4-7.398-5.4c-0.301-0.7-0.5-1.3-0.7-2H337C336.1,55.9,335.2,56.3,334.2,56.6z"/>
<path fill="#FFFFFF" stroke="#000000" d="M333.1,315.5c-0.698,2.2,0.5,4.5,2.602,5.2c2.1,0.7,4.398-0.601,5-2.8
	c0.7-2.2-0.5-4.5-2.602-5.2C336,312,333.8,313.3,333.1,315.5z M332.6,323.9c-4.1,1.398-8.1,0.5-8.898-2s1.8-5.7,5.898-7
	c0.4-0.102,0.7-0.2,1.102-0.301l0,0c-0.5-0.601-1-1.199-1.4-1.899c-2.2-3.7-2.2-7.8,0-9.2s5.9,0.5,8.102,4.3
	c0.5,0.8,0.898,1.7,1.198,2.601h0.102c0.7-0.399,1.398-0.801,2.3-1c4.1-1.399,8-0.5,8.9,2c0.8,2.5-1.802,5.699-5.9,7
	c-0.1,0-0.3,0.101-0.4,0.101v0.101c0.5,0.699,0.9,1.5,1.302,2.301c1.698,4,1.1,8.1-1.302,9.1c-2.398,1-5.698-1.4-7.398-5.4
	c-0.3-0.699-0.5-1.299-0.7-2h-0.2C334.4,323.2,333.5,323.6,332.6,323.9z"/>
<path fill="#FFFFFF" stroke="#000000" d="M331.6,257.8c-0.698,2.2,0.5,4.5,2.602,5.2c2.1,0.7,4.398-0.6,5-2.8
	c0.7-2.2-0.5-4.5-2.602-5.2C334.6,254.3,332.3,255.6,331.6,257.8z M331.1,266.2c-4.1,1.4-8.1,0.5-8.898-2s1.8-5.6,5.8-7
	c0.4-0.1,0.7-0.2,1.1-0.3l0,0c-0.5-0.6-1-1.2-1.398-1.9c-2.2-3.7-2.2-7.8,0-9.2c2.2-1.4,5.898,0.5,8.1,4.3c0.5,0.9,0.9,1.7,1.2,2.6
	l0,0c0.7-0.4,1.4-0.8,2.3-1c4.102-1.4,8.102-0.5,8.9,2s-1.8,5.6-5.9,7c-0.1,0.1-0.3,0.1-0.398,0.1v0.1c0.5,0.7,0.898,1.5,1.3,2.3
	c1.7,4,1.1,8.1-1.3,9.1c-2.4,1-5.7-1.4-7.4-5.4c-0.3-0.7-0.5-1.3-0.6-2h-0.2C333,265.5,332.1,265.9,331.1,266.2z"/>
<path fill="#FFFFFF" stroke="#000000" d="M325,78.1c0.7-2.2,2.9-3.4,5-2.8c2.1,0.7,3.3,3,2.6,5.2c-0.698,2.2-2.898,3.5-5,2.8
	C325.5,82.6,324.4,80.3,325,78.1z"/>
<path fill="#FFFFFF" stroke="#000000" d="M325,78.1c-0.7,2.2,0.5,4.5,2.6,5.2c2.102,0.7,4.4-0.6,5-2.8c0.7-2.2-0.5-4.5-2.6-5.2
	C328,74.7,325.7,75.9,325,78.1z M324.5,86.6c-4.1,1.4-8,0.5-8.9-2c-0.8-2.5,1.802-5.6,5.9-7c0.4-0.1,0.7-0.2,1.1-0.3l0,0
	c-0.5-0.6-1-1.2-1.398-1.9c-2.2-3.7-2.2-7.8,0.1-9.2c2.2-1.4,5.8,0.5,8.102,4.3c0.5,0.9,0.898,1.7,1.198,2.6l0,0
	c0.7-0.4,1.4-0.8,2.302-1c4.1-1.4,8-0.5,8.898,2c0.8,2.5-1.8,5.6-5.898,7c-0.102,0-0.302,0.1-0.4,0.1v0.1c0.5,0.7,0.9,1.5,1.3,2.3
	c1.7,4,1.102,8.1-1.3,9.1s-5.7-1.4-7.4-5.4c-0.3-0.7-0.5-1.3-0.698-2h-0.2C326.4,85.8,325.5,86.2,324.5,86.6z"/>
<path fill="#FFFFFF" stroke="#000000" d="M316.1,227.3c-2.1-0.7-3.3-3-2.6-5.2c0.7-2.2,2.9-3.5,5-2.8c2.1,0.7,3.3,3,2.6,5.2
	C320.4,226.7,318.2,228,316.1,227.3z"/>
<path fill="#FFFFFF" stroke="#000000" d="M315.6,109.1c-2.1-0.7-3.3-3-2.6-5.2c0.7-2.2,2.9-3.5,5-2.8c2.1,0.7,3.3,3,2.6,5.2
	C320,108.6,317.8,109.8,315.6,109.1z"/>
<path fill="#FFFFFF" stroke="#000000" d="M315.5,147.3c-2.1-0.7-3.3-3-2.6-5.2c0.698-2.2,2.898-3.5,5-2.8c2.1,0.7,3.3,3,2.6,5.2
	S317.6,148,315.5,147.3z"/>
<path fill="#FFFFFF" stroke="#000000" d="M313.1,448.1c0,0,82.4,37-33.3,64.302c0,0-15.1-63.602-1.8-63c0,0,8.5-6.7,26.7-5.5
	L313.1,448.1z"/>
<path fill="#FFFFFF" stroke="#000000" d="M313.5,222.1c-0.7,2.2,0.5,4.5,2.6,5.2c2.102,0.7,4.4-0.6,5-2.8c0.7-2.2-0.5-4.5-2.6-5.2
	C316.4,218.7,314.2,219.9,313.5,222.1z M313,230.6c-4.1,1.4-8.1,0.5-8.9-2c-0.8-2.5,1.801-5.6,5.9-7c0.4-0.1,0.7-0.2,1.1-0.3l0,0
	c-0.5-0.6-1-1.2-1.398-1.9c-2.2-3.7-2.2-7.8,0-9.2c2.2-1.4,5.898,0.5,8.1,4.3c0.5,0.9,0.9,1.7,1.2,2.6h0.1c0.7-0.4,1.4-0.7,2.302-1
	c4.1-1.4,8-0.5,8.898,2c0.8,2.5-1.8,5.7-5.898,7c-0.102,0-0.302,0.1-0.4,0.1v0.1c0.5,0.7,0.9,1.5,1.3,2.3c1.7,4,1.102,8.1-1.3,9.1
	s-5.7-1.4-7.4-5.4c-0.3-0.7-0.5-1.3-0.698-2h-0.2C314.8,229.8,314,230.3,313,230.6z"/>
<path fill="#FFFFFF" stroke="#000000" d="M313.1,104c-0.698,2.2,0.5,4.5,2.602,5.2c2.1,0.7,4.398-0.6,5-2.8
	c0.7-2.2-0.5-4.5-2.602-5.2C316,100.5,313.8,101.8,313.1,104z M312.6,112.4c-4.1,1.4-8.1,0.5-8.898-2c-0.799-2.5,1.8-5.7,5.898-7
	c0.4-0.1,0.7-0.2,1.102-0.3l0,0c-0.5-0.6-1-1.2-1.4-1.9c-2.2-3.7-2.2-7.8,0-9.2s5.9,0.5,8.102,4.3c0.5,0.9,0.898,1.7,1.198,2.6
	h0.102c0.7-0.4,1.398-0.7,2.3-1c4.1-1.4,8-0.5,8.9,2c0.8,2.5-1.802,5.6-5.9,7c-0.1,0-0.3,0.1-0.4,0.1v0.1c0.5,0.7,0.9,1.5,1.302,2.3
	c1.698,4,1.1,8.1-1.302,9.1c-2.398,1-5.698-1.4-7.398-5.4c-0.3-0.7-0.5-1.3-0.7-2h-0.2C314.4,111.7,313.5,112.1,312.6,112.4z"/>
<path fill="#FFFFFF" stroke="#000000" d="M312.9,142.1c-0.7,2.2,0.5,4.5,2.6,5.2c2.1,0.7,4.4-0.6,5-2.8c0.7-2.2-0.5-4.5-2.6-5.2
	C315.8,138.6,313.6,139.9,312.9,142.1z M311.9,152.1c-4.102,1.4-8,0.5-8.9-2s1.8-5.7,5.9-7c0.398-0.1,0.698-0.2,1.1-0.3l0,0
	c-0.5-0.6-1-1.2-1.4-1.9c-2.198-3.7-2.198-7.8,0.102-9.2c2.3-1.4,5.898,0.6,8.1,4.3c0.5,0.9,0.9,1.7,1.2,2.6h0.1
	c0.7-0.4,1.4-0.8,2.302-1c4.1-1.4,8-0.5,8.898,2c0.8,2.5-1.8,5.6-5.898,7c-0.102,0.1-0.302,0.1-0.4,0.1v0.1c0.5,0.7,0.9,1.5,1.3,2.3
	c1.7,4,1.102,8.1-1.3,9.1s-5.7-1.4-7.4-5.4c-0.3-0.7-0.5-1.3-0.6-2h-0.2C313.8,151.4,312.9,151.8,311.9,152.1z"/>
<path fill="#FFFFFF" stroke="#000000" d="M307.8,181.9c-2.1-0.7-3.3-3-2.6-5.2c0.7-2.2,2.898-3.5,5-2.8c2.1,0.7,3.3,3,2.6,5.2
	C312.1,181.3,309.9,182.5,307.8,181.9z"/>
<path fill="#FFFFFF" stroke="#000000" d="M304.6,304c0.7-2.2,2.9-3.5,5-2.8c2.102,0.7,3.302,3,2.602,5.2c-0.7,2.199-2.9,3.5-5,2.8
	C305.1,308.5,303.9,306.2,304.6,304z"/>
<path fill="#FFFFFF" stroke="#000000" d="M305.2,176.7c-0.7,2.2,0.5,4.5,2.6,5.2c2.102,0.7,4.4-0.6,5-2.8c0.7-2.2-0.5-4.5-2.6-5.2
	C308.1,173.2,305.9,174.5,305.2,176.7z M304.7,185.2c-4.101,1.4-8.1,0.5-8.9-2c-0.8-2.5,1.8-5.7,5.9-7c0.399-0.1,0.7-0.2,1.1-0.3
	l0,0c-0.5-0.6-1-1.2-1.399-1.9c-2.2-3.7-2.2-7.8,0-9.2c2.199-1.4,5.899,0.5,8.1,4.3c0.5,0.9,0.9,1.7,1.2,2.6l0,0
	c0.7-0.4,1.398-0.7,2.3-1c4.1-1.4,8.1-0.5,8.9,2c0.8,2.5-1.802,5.7-5.802,7c-0.198,0.1-0.3,0.1-0.398,0.1v0.1
	c0.5,0.7,0.898,1.5,1.3,2.3c1.7,4,1.1,8.1-1.3,9.1c-2.4,1-5.7-1.4-7.4-5.4c-0.3-0.7-0.5-1.3-0.7-2h-0.1
	C306.5,184.4,305.7,184.8,304.7,185.2z"/>
<path fill="#FFFFFF" stroke="#000000" d="M304.6,304c-0.699,2.2,0.5,4.5,2.601,5.2c2.1,0.7,4.398-0.601,5-2.8
	c0.7-2.2-0.5-4.5-2.602-5.2C307.5,300.5,305.3,301.8,304.6,304z M304.1,312.4c-4.1,1.398-8,0.5-8.899-2c-0.8-2.5,1.8-5.7,5.899-7
	c0.4-0.102,0.7-0.2,1.101-0.301l0,0c-0.5-0.601-1-1.199-1.4-1.899c-2.2-3.7-2.2-7.8,0-9.2c2.2-1.4,5.9,0.5,8.102,4.3
	c0.5,0.8,0.898,1.7,1.198,2.601h0.102c0.7-0.399,1.398-0.699,2.3-1c4.1-1.399,8-0.5,8.9,2c0.8,2.5-1.802,5.699-5.9,7
	c-0.1,0-0.3,0.101-0.4,0.101v0.101c0.5,0.699,0.9,1.5,1.302,2.301c1.698,4,1.1,8.1-1.302,9.1c-2.398,1-5.698-1.4-7.398-5.4
	c-0.3-0.699-0.5-1.299-0.602-2H306.9C305.9,311.7,305.1,312.1,304.1,312.4z"/>
<path fill="#FFFFFF" stroke="#000000" d="M453.6,213c-4.1,1.4-6.698,4.5-5.8,7c0.8,2.5,4.8,3.4,8.9,2c1-0.3,1.898-0.8,2.6-1.3h0.2
	c0.2,0.7,0.4,1.3,0.7,2c1.7,4,5,6.4,7.398,5.4c2.4-1,3-5.1,1.302-9.1c-0.4-0.9-0.802-1.6-1.302-2.3v-0.1c0.2,0,0.302-0.1,0.4-0.1
	c4.1-1.4,6.7-4.5,5.9-7c-0.802-2.5-4.802-3.4-8.9-2c-0.8,0.3-1.6,0.6-2.3,1l0,0c-0.3-0.9-0.7-1.7-1.2-2.6c-2.2-3.7-5.8-5.6-8.1-4.3
	c-2.2,1.4-2.302,5.5,0,9.2c0.398,0.7,0.898,1.3,1.398,1.9l0,0C454.3,212.8,454,212.9,453.6,213z M443,248.8c-4.1,1.4-6.7,4.5-5.8,7
	c0.8,2.5,4.8,3.4,8.898,2c1-0.3,1.802-0.8,2.602-1.3h0.2c0.1,0.6,0.398,1.3,0.6,2c1.7,4,5,6.4,7.4,5.4c2.398-1,3-5.1,1.3-9.1
	c-0.4-0.8-0.8-1.6-1.3-2.3v-0.1c0.1-0.1,0.3-0.1,0.398-0.1c4.102-1.4,6.7-4.5,5.9-7s-4.8-3.4-8.9-2c-0.8,0.3-1.6,0.6-2.3,1h-0.1
	c-0.302-0.8-0.602-1.7-1.2-2.6c-2.2-3.7-5.8-5.6-8.102-4.3c-2.3,1.4-2.3,5.5,0,9.2c0.4,0.7,0.9,1.3,1.4,1.9l0,0
	C443.8,248.6,443.4,248.7,443,248.8z M425.3,214.3c-4.1,1.4-6.7,4.5-5.8,7c0.8,2.5,4.8,3.4,8.9,2c1-0.3,1.898-0.8,2.6-1.3h0.2
	c0.1,0.7,0.398,1.3,0.6,2c1.7,4,5,6.4,7.4,5.4c2.398-1,3-5.1,1.3-9.1c-0.4-0.9-0.8-1.6-1.3-2.3v-0.1c0.2,0,0.3-0.1,0.398-0.1
	c4.102-1.4,6.7-4.5,5.9-7s-4.8-3.4-8.9-2c-0.8,0.3-1.6,0.6-2.3,1h-0.1c-0.3-0.9-0.7-1.7-1.2-2.6c-2.2-3.7-5.8-5.6-8.1-4.3
	c-2.302,1.4-2.302,5.5-0.102,9.2c0.4,0.7,0.9,1.3,1.4,1.9l0,0C426,214.1,425.7,214.2,425.3,214.3z M415,176.1
	c-4.1,1.4-6.7,4.5-5.8,7c0.8,2.5,4.8,3.4,8.898,2c1-0.3,1.802-0.8,2.602-1.3h0.2c0.1,0.7,0.398,1.3,0.6,2c1.7,4,5,6.4,7.4,5.4
	c2.398-1,3-5.1,1.3-9.1c-0.4-0.9-0.8-1.6-1.3-2.3v-0.1c0.1,0,0.3-0.1,0.398-0.1c4.102-1.4,6.7-4.5,5.9-7s-4.8-3.4-8.9-2
	c-0.8,0.3-1.6,0.6-2.3,1l0,0c-0.3-0.9-0.7-1.7-1.2-2.6c-2.2-3.7-5.8-5.6-8.1-4.3c-2.2,1.4-2.3,5.5-0.102,9.2
	c0.4,0.7,0.9,1.3,1.4,1.9l0,0C415.7,175.9,415.4,176,415,176.1z M415.6,243.4c-4.1,1.4-6.698,4.5-5.898,7s4.8,3.4,8.898,2
	c1-0.3,1.9-0.8,2.602-1.3h0.2c0.198,0.6,0.398,1.3,0.698,2c1.7,4,5,6.4,7.4,5.4s3-5.1,1.3-9.1c-0.398-0.9-0.8-1.6-1.3-2.3V247
	c0.1-0.1,0.3-0.1,0.4-0.1c4.1-1.4,6.698-4.5,5.8-7c-0.8-2.5-4.8-3.4-8.9-2c-0.8,0.3-1.6,0.6-2.3,1h-0.1c-0.302-0.9-0.7-1.7-1.2-2.6
	c-2.2-3.7-5.8-5.6-8.102-4.3c-2.198,1.4-2.3,5.5,0,9.2c0.4,0.7,0.9,1.3,1.4,1.9l0,0C416.3,243.1,416,243.3,415.6,243.4z
	 M413.8,149.4c-4.1,1.4-6.7,4.5-5.898,7c0.8,2.5,4.8,3.4,8.898,2c1-0.3,1.8-0.8,2.602-1.3h0.198c0.102,0.6,0.4,1.3,0.602,2
	c1.7,4,5,6.4,7.398,5.4c2.4-1,3-5.1,1.302-9.1c-0.4-0.9-0.802-1.6-1.302-2.3V153c0.102,0,0.302-0.1,0.4-0.1c4.1-1.4,6.7-4.5,5.9-7
	c-0.802-2.5-4.802-3.4-8.9-2c-0.8,0.3-1.6,0.6-2.3,1l0,0c-0.3-0.9-0.7-1.7-1.2-2.6c-2.2-3.7-5.8-5.6-8.1-4.3
	c-2.2,1.4-2.302,5.5,0,9.2c0.398,0.7,0.898,1.3,1.398,1.9l0,0C414.5,149.2,414.1,149.3,413.8,149.4z M388.3,134.3
	c-4.1,1.4-6.7,4.5-5.898,7c0.8,2.5,4.8,3.4,8.898,2c1-0.3,1.9-0.8,2.602-1.3h0.198c0.102,0.7,0.4,1.3,0.602,2c1.7,4,5,6.4,7.398,5.4
	c2.4-1,3-5.1,1.302-9.1c-0.4-0.9-0.802-1.6-1.302-2.3v-0.1c0.102,0,0.302-0.1,0.4-0.1c4.1-1.4,6.7-4.5,5.9-7
	c-0.802-2.5-4.802-3.4-8.9-2c-0.8,0.3-1.6,0.6-2.3,1l0,0c-0.3-0.9-0.7-1.7-1.2-2.6c-2.2-3.7-5.8-5.6-8.1-4.3
	c-2.2,1.4-2.302,5.5,0,9.2c0.398,0.7,0.898,1.3,1.398,1.9l0,0C389,134.1,388.7,134.2,388.3,134.3z M388.3,224.6
	c-4.1,1.4-6.7,4.5-5.898,7c0.8,2.5,4.8,3.4,8.898,2c1-0.3,1.9-0.8,2.602-1.3h0.198c0.102,0.6,0.4,1.3,0.602,2c1.7,4,5,6.4,7.398,5.4
	c2.4-1,3-5.1,1.302-9.1c-0.4-0.9-0.802-1.6-1.302-2.3v-0.1c0.102-0.1,0.302-0.1,0.4-0.1c4.1-1.4,6.7-4.5,5.9-7
	c-0.802-2.5-4.802-3.4-8.9-2c-0.8,0.3-1.6,0.6-2.3,1l0,0c-0.3-0.9-0.7-1.7-1.2-2.6c-2.2-3.7-5.8-5.6-8.1-4.3
	c-2.2,1.4-2.302,5.5,0,9.2c0.398,0.7,0.898,1.3,1.398,1.9l0,0C389,224.4,388.7,224.5,388.3,224.6z M385.2,262.6
	c-4.102,1.4-6.7,4.5-5.9,7s4.8,3.4,8.9,2c1-0.3,1.898-0.8,2.6-1.3h0.2c0.1,0.7,0.4,1.3,0.7,2c1.7,4,5,6.4,7.398,5.4
	c2.4-1,3-5.1,1.302-9.1c-0.4-0.9-0.802-1.6-1.302-2.3v-0.1c0.102,0,0.302-0.1,0.4-0.1c4.1-1.4,6.7-4.5,5.8-7
	c-0.898-2.5-4.8-3.4-8.898-2c-0.802,0.3-1.602,0.6-2.302,1H394c-0.3-0.9-0.7-1.7-1.2-2.6c-2.2-3.7-5.8-5.6-8.1-4.3
	c-2.2,1.4-2.3,5.5-0.102,9.2c0.4,0.7,0.9,1.3,1.4,1.9l0,0C385.9,262.4,385.5,262.5,385.2,262.6z M384.5,100.3
	c-4.1,1.4-6.7,4.5-5.8,7c0.8,2.5,4.8,3.4,8.898,2c1-0.3,1.9-0.8,2.602-1.3h0.2c0.1,0.7,0.398,1.3,0.6,2c1.7,4,5,6.4,7.4,5.4
	c2.398-1,3-5.1,1.3-9.1c-0.4-0.9-0.8-1.6-1.3-2.3v-0.1c0.198,0,0.3-0.1,0.398-0.1c4.102-1.4,6.7-4.5,5.9-7s-4.8-3.4-8.9-2
	c-0.8,0.3-1.6,0.6-2.3,1l0,0c-0.3-0.9-0.7-1.7-1.2-2.6c-2.2-3.7-5.8-5.6-8.1-4.3c-2.2,1.4-2.3,5.5-0.102,9.2
	c0.4,0.7,0.9,1.3,1.4,1.9l0,0C385.2,100.1,384.9,100.2,384.5,100.3z M375,194.9c-4.1,1.4-6.7,4.5-5.9,7c0.802,2.5,4.802,3.4,8.9,2
	c1-0.3,1.9-0.8,2.6-1.3h0.2c0.2,0.7,0.4,1.3,0.7,2c1.7,4,5,6.4,7.4,5.4c2.398-1,3-5.1,1.3-9.1c-0.4-0.9-0.8-1.6-1.3-2.3v-0.1
	c0.1,0,0.3-0.1,0.398-0.1c4.102-1.4,6.7-4.5,5.9-7s-4.8-3.4-8.9-2c-0.8,0.3-1.6,0.6-2.3,1l0,0c-0.3-0.9-0.7-1.7-1.2-2.6
	c-2.2-3.7-5.8-5.6-8.1-4.3c-2.2,1.4-2.3,5.5,0,9.2c0.398,0.7,0.898,1.3,1.398,1.9l0,0C375.7,194.7,375.4,194.8,375,194.9z
	 M367.5,161.5c-4.1,1.4-6.7,4.5-5.9,7c0.802,2.5,4.802,3.4,8.9,2c1-0.3,1.9-0.8,2.6-1.3h0.2c0.102,0.7,0.4,1.3,0.602,2
	c1.698,4,5,6.4,7.398,5.4c2.4-1,3-5.1,1.3-9.1c-0.398-0.9-0.8-1.6-1.3-2.3v-0.1c0.102,0,0.3-0.1,0.4-0.1c4.1-1.4,6.7-4.5,5.898-7
	c-0.8-2.5-4.8-3.4-8.898-2c-0.8,0.3-1.602,0.6-2.3,1H376.3c-0.3-0.9-0.7-1.7-1.2-2.6c-2.198-3.7-5.8-5.6-8.1-4.3
	c-2.2,1.4-2.3,5.5,0,9.2c0.4,0.7,0.9,1.3,1.4,1.9l0,0C368.3,161.3,367.9,161.4,367.5,161.5z M359.1,53c-4.1,1.4-6.698,4.5-5.898,7
	s4.8,3.4,8.898,2c1-0.3,1.9-0.8,2.602-1.3h0.2c0.1,0.7,0.398,1.3,0.698,2c1.7,4,5,6.4,7.4,5.4s3-5.1,1.3-9.1
	c-0.398-0.9-0.8-1.6-1.3-2.3v-0.1c0.1,0,0.3-0.1,0.4-0.1c4.1-1.4,6.698-4.5,5.898-7s-4.8-3.4-8.898-2c-0.802,0.3-1.602,0.6-2.302,1
	H368c-0.3-0.9-0.7-1.7-1.2-2.6c-2.2-3.7-5.8-5.6-8.1-4.3c-2.2,1.4-2.3,5.5,0,9.2c0.398,0.7,0.898,1.3,1.398,1.9l0,0
	C359.8,52.8,359.4,52.9,359.1,53z M356.8,278.5c-4.1,1.4-6.7,4.5-5.898,7c0.8,2.5,4.8,3.4,8.898,2c1-0.3,1.9-0.8,2.602-1.3h0.198
	c0.102,0.7,0.4,1.3,0.602,2c1.7,4,5,6.399,7.398,5.399c2.4-1,3-5.101,1.302-9.101c-0.4-0.8-0.802-1.6-1.302-2.3v-0.1
	c0.102,0,0.302-0.1,0.4-0.1c4.1-1.4,6.7-4.5,5.9-7c-0.802-2.5-4.802-3.4-8.9-2c-0.8,0.3-1.6,0.6-2.3,1l0,0c-0.3-0.8-0.7-1.7-1.2-2.6
	c-2.2-3.7-5.8-5.6-8.1-4.3c-2.2,1.4-2.302,5.5,0,9.2c0.398,0.7,0.898,1.3,1.398,1.9l0,0C357.5,278.3,357.2,278.4,356.8,278.5z
	 M355.6,228.8c-4.1,1.4-6.698,4.5-5.898,7s4.8,3.4,8.898,2c1-0.3,1.9-0.8,2.602-1.3h0.2c0.1,0.7,0.398,1.3,0.698,2
	c1.7,4,5,6.4,7.4,5.4s3-5.1,1.3-9.1c-0.398-0.9-0.8-1.6-1.3-2.3v-0.1c0.1,0,0.3-0.1,0.4-0.1c4.1-1.4,6.698-4.5,5.8-7
	c-0.8-2.5-4.8-3.4-8.9-2c-0.8,0.3-1.6,0.6-2.3,1h-0.1c-0.302-0.9-0.7-1.7-1.2-2.6c-2.2-3.7-5.8-5.6-8.102-4.3
	c-2.198,1.4-2.3,5.5,0,9.2c0.4,0.7,0.9,1.3,1.4,1.9l0,0C356.3,228.6,356,228.7,355.6,228.8z M354.2,77.3c-4.102,1.4-6.7,4.5-5.9,7
	s4.8,3.4,8.9,2c1-0.3,1.8-0.8,2.6-1.3h0.2c0.1,0.6,0.4,1.3,0.7,2c1.7,4,5,6.4,7.398,5.4c2.4-1,3-5.1,1.302-9.1
	c-0.4-0.8-0.802-1.6-1.302-2.3v-0.1c0.102,0,0.302-0.1,0.4-0.1c4.1-1.4,6.7-4.5,5.9-7c-0.802-2.5-4.802-3.4-8.9-2
	c-0.8,0.3-1.6,0.6-2.3,1h-0.1c-0.3-0.9-0.698-1.7-1.198-2.6c-2.2-3.7-5.802-5.6-8.102-4.3c-2.2,1.4-2.3,5.5,0,9.2
	c0.4,0.7,0.9,1.3,1.4,1.9l0,0C354.9,77,354.6,77.2,354.2,77.3z M348.3,104.6c-4.1,1.4-6.7,4.5-5.898,7c0.8,2.5,4.8,3.4,8.898,2
	c1-0.3,1.9-0.8,2.602-1.3h0.198c0.102,0.6,0.4,1.3,0.602,2c1.7,4,5,6.4,7.398,5.4c2.4-1,3-5.1,1.302-9.1
	c-0.4-0.9-0.802-1.6-1.302-2.3v-0.1c0.102-0.1,0.302-0.1,0.4-0.1c4.1-1.4,6.7-4.5,5.9-7c-0.802-2.5-4.802-3.4-8.9-2
	c-0.8,0.3-1.6,0.6-2.3,1H357.1c-0.3-0.9-0.698-1.7-1.198-2.6c-2.2-3.7-5.802-5.6-8.102-4.3c-2.3,1.4-2.3,5.5,0,9.2
	c0.4,0.7,0.9,1.3,1.4,1.9l0,0C349,104.4,348.7,104.5,348.3,104.6z M345.7,137.3c-4.102,1.4-6.7,4.5-5.9,7s4.8,3.4,8.9,2
	c1-0.3,1.898-0.8,2.6-1.3h0.2c0.1,0.6,0.4,1.3,0.6,2c1.7,4,5,6.4,7.4,5.4s3-5.1,1.3-9.1c-0.398-0.8-0.8-1.6-1.3-2.3v-0.1
	c0.2-0.1,0.3-0.1,0.4-0.1c4.1-1.4,6.698-4.5,5.898-7s-4.8-3.4-8.898-2c-0.802,0.3-1.602,0.6-2.302,1h-0.1c-0.3-0.9-0.7-1.7-1.2-2.6
	c-2.2-3.7-5.8-5.6-8.1-4.3c-2.2,1.4-2.3,5.5-0.102,9.2c0.4,0.7,0.9,1.3,1.4,1.9l0,0C346.4,137.1,346.1,137.2,345.7,137.3z
	 M336.8,187.6c-4.1,1.4-6.7,4.5-5.898,7c0.8,2.5,4.8,3.4,8.898,2c1-0.3,1.9-0.8,2.602-1.3h0.198c0.102,0.6,0.4,1.3,0.602,2
	c1.7,4,5,6.4,7.398,5.4c2.4-1,3-5.1,1.302-9.1c-0.4-0.9-0.802-1.6-1.302-2.3v-0.1c0.102,0,0.302-0.1,0.4-0.1c4.1-1.4,6.7-4.5,5.9-7
	c-0.802-2.5-4.802-3.4-8.9-2c-0.8,0.3-1.6,0.6-2.3,1l0,0c-0.3-0.9-0.7-1.7-1.2-2.6c-2.2-3.7-5.8-5.6-8.1-4.3
	c-2.2,1.4-2.302,5.5,0,9.2c0.398,0.7,0.898,1.3,1.398,1.9l0,0C337.5,187.4,337.2,187.5,336.8,187.6z M333.8,17.7
	c-4.1,1.4-6.7,4.5-5.8,7c0.8,2.5,4.8,3.4,8.9,2c1-0.3,1.898-0.8,2.6-1.3h0.2c0.1,0.7,0.398,1.3,0.6,2c1.7,4,5,6.4,7.4,5.4
	c2.398-1,3-5.1,1.3-9.1c-0.4-0.9-0.8-1.6-1.3-2.3v-0.1c0.1,0,0.3-0.1,0.398-0.1c4.102-1.4,6.7-4.5,5.9-7s-4.8-3.4-8.9-2
	c-0.8,0.3-1.6,0.6-2.3,1l0,0c-0.3-0.9-0.7-1.7-1.2-2.6c-2.198-3.7-5.8-5.6-8.1-4.3c-2.2,1.4-2.3,5.5-0.1,9.2
	c0.398,0.7,0.898,1.3,1.398,1.9l0,0C334.5,17.4,334.1,17.5,333.8,17.7z M331.2,47.6c-4.102,1.4-6.7,4.5-5.9,7s4.8,3.4,8.9,2
	c1-0.3,1.898-0.8,2.6-1.3h0.2c0.1,0.7,0.4,1.3,0.7,2c1.7,4,5,6.4,7.398,5.4c2.4-1,3-5.1,1.302-9.1c-0.4-0.9-0.802-1.6-1.302-2.3
	v-0.1c0.102,0,0.302-0.1,0.4-0.1c4.1-1.4,6.7-4.5,5.9-7c-0.802-2.5-4.802-3.4-8.9-2c-0.8,0.3-1.6,0.6-2.3,1h-0.1
	c-0.3-0.9-0.698-1.7-1.198-2.6c-2.2-3.7-5.802-5.6-8.102-4.3c-2.2,1.4-2.3,5.5-0.1,9.2c0.398,0.7,0.898,1.3,1.398,1.9l0,0
	C331.9,47.4,331.5,47.5,331.2,47.6z M328.1,257.2c-4.1,1.4-6.698,4.5-5.8,7c0.8,2.5,4.8,3.4,8.9,2c1-0.3,1.898-0.8,2.6-1.3h0.2
	c0.1,0.6,0.4,1.3,0.6,2c1.7,4,5,6.4,7.4,5.4s3-5.1,1.3-9.1c-0.398-0.9-0.8-1.6-1.3-2.3v-0.1c0.1,0,0.3-0.1,0.4-0.1
	c4.1-1.4,6.698-4.5,5.898-7s-4.8-3.4-8.898-2c-0.802,0.3-1.602,0.6-2.302,1l0,0c-0.3-0.9-0.698-1.7-1.198-2.6
	c-2.2-3.7-5.802-5.6-8.102-4.3c-2.2,1.4-2.3,5.5,0,9.2c0.4,0.7,0.9,1.3,1.4,1.9l0,0C328.8,257,328.5,257.1,328.1,257.2z M321.5,77.5
	c-4.1,1.4-6.7,4.5-5.9,7c0.802,2.5,4.802,3.4,8.9,2c1-0.3,1.9-0.8,2.6-1.3h0.2c0.2,0.6,0.4,1.3,0.7,2c1.7,4,5,6.4,7.4,5.4
	c2.398-1,3-5.1,1.3-9.1c-0.4-0.8-0.8-1.6-1.3-2.3v-0.1c0.1-0.1,0.3-0.1,0.398-0.1c4.102-1.4,6.7-4.5,5.9-7s-4.8-3.4-8.9-2
	c-0.8,0.3-1.6,0.6-2.3,1l0,0c-0.3-0.9-0.7-1.7-1.2-2.6c-2.2-3.7-5.8-5.6-8.1-4.3c-2.3,1.4-2.3,5.5-0.102,9.2
	c0.4,0.7,0.9,1.3,1.4,1.9l0,0C322.2,77.3,321.9,77.4,321.5,77.5z M309.5,103.4c-4.1,1.4-6.7,4.5-5.9,7c0.801,2.5,4.801,3.4,8.9,2
	c1-0.3,1.9-0.8,2.6-1.3h0.2c0.102,0.6,0.4,1.3,0.7,2c1.7,4,5,6.4,7.4,5.4c2.398-1,3-5.1,1.3-9.1c-0.4-0.9-0.8-1.6-1.3-2.3V107
	c0.1,0,0.3-0.1,0.398-0.1c4.102-1.4,6.7-4.5,5.9-7s-4.8-3.4-8.9-2c-0.8,0.3-1.6,0.6-2.3,1h-0.1c-0.302-0.9-0.7-1.7-1.2-2.6
	c-2.2-3.7-5.8-5.6-8.102-4.3c-2.198,1.4-2.3,5.5,0,9.2c0.4,0.7,0.9,1.3,1.4,1.9l0,0C310.3,103.1,309.9,103.3,309.5,103.4z
	 M310,221.5c-4.1,1.4-6.7,4.5-5.9,7c0.801,2.5,4.801,3.4,8.9,2c1-0.3,1.8-0.8,2.6-1.3h0.2c0.2,0.6,0.4,1.3,0.7,2
	c1.7,4,5,6.4,7.4,5.4c2.398-1,3-5.1,1.3-9.1c-0.4-0.8-0.8-1.6-1.3-2.3v-0.1c0.1,0,0.3-0.1,0.398-0.1c4.102-1.4,6.7-4.5,5.9-7
	s-4.8-3.4-8.9-2c-0.8,0.3-1.6,0.6-2.3,1h-0.1c-0.302-0.9-0.7-1.7-1.2-2.6c-2.2-3.7-5.8-5.6-8.102-4.3c-2.198,1.4-2.3,5.5,0,9.2
	c0.4,0.7,0.9,1.3,1.4,1.9l0,0C310.7,221.3,310.3,221.4,310,221.5z M308.9,143.1c-4.102,1.4-6.7,4.5-5.9,7s4.8,3.4,8.9,2
	c1-0.3,1.898-0.8,2.6-1.3h0.2c0.1,0.6,0.398,1.3,0.6,2c1.7,4,5,6.4,7.4,5.4c2.398-1,3-5.1,1.3-9.1c-0.3-0.9-0.8-1.6-1.3-2.3v-0.1
	c0.2,0,0.3-0.1,0.398-0.1c4.102-1.4,6.7-4.5,5.9-7s-4.8-3.4-8.9-2c-0.8,0.3-1.6,0.6-2.3,1h-0.1c-0.3-0.9-0.7-1.7-1.2-2.6
	c-2.2-3.7-5.8-5.6-8.1-4.3c-2.2,1.4-2.302,5.5-0.102,9.2c0.4,0.7,0.9,1.3,1.4,1.9l0,0C309.6,142.8,309.3,143,308.9,143.1z
	 M306.2,271.2c-15.5-0.2-10.7-27.9-10.7-27.9c-8.5,0-7.9-20.6-7.9-20.6c-4.6-6.2-3.6-10.8-1.2-13.9c3.1-3.8,8.4-5.5,8.4-5.5
	c-7.3-9.1-3.6-25.5-3.6-25.5c-10.9-15.1-2.4-22.4-2.4-22.4c-6.7-14.6,9.101-24.9,9.101-24.9c-7.9-17.6,5.399-27.3,5.399-27.3
	c-3.6-14.6,7.3-26.7,7.3-26.7c-6.699-15.2,3-24.9,3-24.9c-7.3-23,6.7-29.1,6.7-29.1c-6.1-13.9,10.9-15.8,10.9-15.8
	c15.1-15.1,18.2,1.2,18.2,1.2c12.1-4.9,17,10.9,17,10.9c19.398-2.4,9.1,17.6,9.1,17.6c15.2-1.8,10.3,17.6,10.3,17.6
	c19.4,6.7,10.9,17,10.9,17c22.398,5.5,15.1,23.6,15.1,23.6c25.5,1.2,17.602,25.5,17.602,25.5c19.398,0,10.3,23.6,10.3,23.6
	c15.1-0.6,15.8,23.6,15.8,23.6c14.9,6.6,5.8,21.9,5.5,22.4c12.7-7.3,13.9,10.3,13.9,10.3c16.398,5.5,3.6,17.6,3.6,17.6
	c9.1,5.5-6.7,14.5-6.7,14.5c12.7,13.3-1.8,21.2-1.8,21.2c1.5,3,1.8,5.3,1.3,7.1c-1.7,6-12.2,5.7-12.2,5.7
	c-0.6,27.3-26.698,14.5-26.698,14.5c-1.802,18.2-23,8.5-23,8.5c-4.602,3.7-8.7,5.801-12.302,6.801
	c-10.5,3-16.198-3.101-16.198-3.101c-2.9,2.601-5.802,4.3-8.5,5.3C358.6,303.2,347.6,291,347.6,291c-21.198,8.5-32.1-17-32.1-17
	c-3.9-0.9-6.9-2.6-9.2-4.8L306.2,271.2z M301.7,176.1c-4.1,1.4-6.7,4.5-5.9,7c0.8,2.5,4.8,3.4,8.9,2c1-0.3,1.8-0.8,2.6-1.3h0.102
	c0.1,0.7,0.398,1.3,0.698,2c1.7,4,5,6.4,7.4,5.4s3-5.1,1.3-9.1c-0.398-0.9-0.8-1.6-1.3-2.3v-0.1c0.1,0,0.3-0.1,0.4-0.1
	c4.1-1.4,6.698-4.5,5.8-7c-0.8-2.5-4.8-3.4-8.9-2c-0.8,0.3-1.6,0.6-2.3,1l0,0c-0.3-0.9-0.7-1.7-1.2-2.6c-2.2-3.7-5.8-5.6-8.1-4.3
	c-2.2,1.4-2.3,5.5,0,9.2c0.399,0.7,0.899,1.3,1.399,1.9l0,0C302.4,175.9,302,176,301.7,176.1z"/>
<path fill="#FFFFFF" stroke="#000000" d="M290,379.1c8.7,14,8.1,22.9,5.8,28.102c-1.8,4.1-4.6,5.8-4.6,5.8s-20.3,11.3-27.2,8.8
	c-0.8-0.8-1.8-1.8-3.3-2.8c-0.6-0.4-1.3-0.9-2-1.4c-3.5-2.198-8.5-4.898-16-8.1c-5.3-3-9-5-9-5s-20.5-34.7-15.8-35.8
	C264.6,357.8,287,374.2,290,379.1z"/>
<path fill="#FFFFFF" stroke="#000000" d="M297,337.3c-0.7,2.2-2.9,3.5-5,2.8c-2.1-0.699-3.3-3-2.6-5.199
	c0.7-2.199,2.9-3.399,5-2.801C296.6,332.7,297.7,335.1,297,337.3z"/>
<path fill="#FFFFFF" stroke="#000000" d="M289.5,334.9c-0.7,2.199,0.5,4.5,2.6,5.199s4.4-0.601,5-2.801c0.7-2.199-0.5-4.5-2.6-5.199
	S290.1,332.7,289.5,334.9z M288.9,343.3c-4.1,1.4-8,0.5-8.9-2c-0.8-2.5,1.8-5.7,5.9-7c0.4-0.1,0.7-0.2,1.1-0.3l0,0
	c-0.5-0.6-1-1.2-1.4-1.9c-2.2-3.699-2.2-7.8,0.1-9.199c2.2-1.399,5.9,0.5,8.1,4.301c0.5,0.898,0.9,1.699,1.2,2.6h0.1
	c0.7-0.398,1.4-0.699,2.3-1c4.1-1.398,8-0.5,8.9,2c0.8,2.5-1.8,5.602-5.899,7c-0.101,0-0.301,0.102-0.4,0.102v0.1
	c0.5,0.7,0.9,1.5,1.3,2.3c1.7,4,1.101,8.101-1.3,9.101c-2.4,1-5.7-1.399-7.4-5.399c-0.3-0.7-0.5-1.3-0.6-2h-0.2
	C290.8,342.6,289.9,343,288.9,343.3z"/>
<path fill="#FFFFFF" stroke="#000000" d="M278.5,284c0.7-2.2,2.9-3.5,5-2.8c2.1,0.7,3.2,3,2.6,5.2c-0.7,2.199-2.9,3.5-5,2.8
	S277.9,286.2,278.5,284z"/>
<path fill="#FFFFFF" stroke="#000000" d="M281.1,289.1c2.1,0.7,4.4-0.6,5-2.8c0.7-2.2-0.5-4.5-2.6-5.2c-2.1-0.7-4.4,0.6-5,2.8
	C277.9,286.2,279,288.5,281.1,289.1z M278,292.4c-4.1,1.398-8,0.5-8.9-2c-0.8-2.5,1.8-5.7,5.9-7c0.4-0.1,0.7-0.2,1.1-0.3l0,0
	c-0.5-0.6-1-1.2-1.4-1.9c-2.2-3.7-2.2-7.8,0-9.2c2.2-1.4,5.9,0.5,8.1,4.3c0.5,0.8,0.9,1.7,1.2,2.6l0,0c0.7-0.4,1.4-0.7,2.3-1
	c4.1-1.4,8-0.5,8.9,2c0.8,2.5-1.8,5.7-5.9,7c-0.1,0-0.3,0.1-0.4,0.1v0.1c0.5,0.7,0.9,1.5,1.3,2.301c1.7,4,1.1,8.101-1.3,9.101
	s-5.7-1.399-7.4-5.399c-0.3-0.699-0.5-1.301-0.7-2h-0.2C279.9,291.7,279,292.1,278,292.4z"/>
<path fill="#FFFFFF" stroke="#000000" d="M265.8,425.7l1.2,9.1c0,0-1.8,27.3-29.1,26.102c-27.3-1.2-69.1-31.5-69.1-31.5
	s37.6-34.501,69.1-21.802c1.7,0.7,3.3,1.302,4.8,2c5.9,3.302,13.7,7.802,20.7,12c0.2,0.102,0.4,0.2,0.7,0.302
	C266.6,424.5,265.8,425.7,265.8,425.7z"/>
<path fill="#FFFFFF" stroke="#000000" d="M261.7,321.9c-2.1-0.7-3.3-3-2.6-5.2c0.7-2.2,2.9-3.5,5-2.8c2.1,0.699,3.3,3,2.6,5.199
	C266.1,321.3,263.8,322.5,261.7,321.9z"/>
<path fill="#FFFFFF" stroke="#000000" d="M259.1,316.7c-0.7,2.2,0.5,4.5,2.6,5.2c2.1,0.699,4.4-0.602,5-2.801
	c0.7-2.199-0.5-4.5-2.6-5.199C262.1,313.2,259.8,314.5,259.1,316.7z M258.6,325.2c-4.1,1.399-8.1,0.5-8.9-2c-0.8-2.5,1.8-5.7,5.9-7
	c0.4-0.101,0.7-0.2,1.1-0.3l0,0c-0.5-0.602-1-1.2-1.4-1.9c-2.2-3.7-2.2-7.8,0-9.2c2.2-1.399,5.9,0.5,8.1,4.3
	c0.5,0.801,0.9,1.7,1.2,2.602h0.1c0.7-0.4,1.4-0.7,2.3-1c4.1-1.4,8.1-0.5,8.9,2c0.8,2.5-1.8,5.699-5.8,7c-0.2,0-0.3,0.1-0.4,0.1
	v0.102c0.5,0.699,0.9,1.5,1.3,2.3c1.7,4,1.1,8.101-1.3,9.101c-2.4,1-5.7-1.4-7.4-5.4c-0.3-0.699-0.5-1.301-0.7-2h-0.2
	C260.5,324.4,259.6,324.8,258.6,325.2z"/>
<path fill="#FFFFFF" stroke="#000000" d="M253.2,244.9c-2.1-0.7-3.2-3-2.6-5.2c0.7-2.2,2.9-3.5,5-2.8c2.1,0.7,3.3,3,2.6,5.2
	C257.6,244.3,255.3,245.6,253.2,244.9z"/>
<path fill="#FFFFFF" stroke="#000000" d="M256.8,204.7c-2.1-0.7-4.4,0.6-5,2.8c-0.7,2.2,0.5,4.5,2.6,5.2c2.1,0.7,4.4-0.6,5-2.8
	C260,207.7,258.9,205.4,256.8,204.7z M251.2,216c-4.1,1.4-8.1,0.5-8.9-2c-0.8-2.5,1.8-5.6,5.9-7c0.4-0.1,0.7-0.2,1.1-0.3l0,0
	c-0.5-0.6-1-1.2-1.4-1.9c-2.2-3.7-2.2-7.8,0-9.2c2.2-1.4,5.9,0.6,8.1,4.3c0.5,0.9,0.9,1.7,1.2,2.6l0,0c0.7-0.4,1.4-0.8,2.3-1
	c4.1-1.4,8-0.5,8.9,2c0.8,2.5-1.8,5.6-5.9,7c-0.1,0-0.3,0.1-0.4,0.1v0.1c0.5,0.7,0.9,1.5,1.3,2.3c1.7,4,1.1,8.1-1.3,9.1
	s-5.7-1.4-7.4-5.4c-0.3-0.7-0.5-1.3-0.7-2h-0.2C253.1,215.2,252.2,215.7,251.2,216z"/>
<path fill="#FFFFFF" stroke="#000000" d="M250.7,239.7c-0.7,2.2,0.5,4.5,2.6,5.2c2.1,0.7,4.4-0.6,5-2.8c0.7-2.2-0.5-4.5-2.6-5.2
	C253.6,236.3,251.3,237.5,250.7,239.7z M250.1,248.2c-4.1,1.4-8,0.5-8.9-2c-0.8-2.5,1.8-5.6,5.9-7c0.4-0.1,0.7-0.2,1.1-0.3l0,0
	c-0.5-0.5-1-1.2-1.4-1.9c-2.2-3.7-2.2-7.8,0.1-9.2c2.2-1.4,5.9,0.5,8.1,4.3c0.5,0.8,0.9,1.7,1.2,2.6h0.1c0.7-0.4,1.4-0.7,2.3-1
	c4.1-1.4,8-0.5,8.9,2c0.8,2.5-1.8,5.7-5.9,7c-0.1,0-0.3,0.1-0.4,0.1v0.1c0.5,0.7,0.9,1.5,1.3,2.3c1.7,4,1.1,8.1-1.3,9.1
	c-2.4,1-5.7-1.4-7.4-5.4c-0.3-0.7-0.5-1.3-0.6-2H253C252,247.4,251.1,247.9,250.1,248.2z"/>
<path fill="#FFFFFF" stroke="#000000" d="M226.4,269.4c0.7-2.2,2.9-3.5,5-2.8c2.1,0.7,3.2,3,2.6,5.2c-0.7,2.2-2.9,3.5-5,2.8
	C226.9,273.9,225.7,271.6,226.4,269.4z"/>
<path fill="#FFFFFF" stroke="#000000" d="M225.3,309.1c-2.1-0.699-3.2-3-2.6-5.199c0.7-2.199,2.9-3.5,5-2.801c2.1,0.7,3.3,3,2.6,5.2
	C229.7,308.6,227.4,309.8,225.3,309.1z"/>
<path fill="#FFFFFF" stroke="#000000" d="M226.4,269.4c-0.7,2.2,0.5,4.5,2.6,5.2c2.1,0.7,4.4-0.6,5-2.8c0.7-2.2-0.5-4.5-2.6-5.2
	C229.4,266,227.1,267.2,226.4,269.4z M225.9,277.9c-4.1,1.4-8.1,0.5-8.9-2s1.8-5.6,5.9-7c0.4-0.1,0.7-0.2,1.1-0.3l0,0
	c-0.5-0.6-1-1.2-1.4-1.9c-2.2-3.7-2.2-7.8,0-9.2c2.2-1.4,5.9,0.6,8.1,4.3c0.5,0.9,0.9,1.7,1.2,2.6l0,0c0.7-0.4,1.4-0.8,2.3-1
	c4.1-1.4,8.1-0.5,8.9,2c0.8,2.5-1.8,5.6-5.9,7c-0.2,0.1-0.3,0.1-0.4,0.1v0.1c0.5,0.7,0.9,1.5,1.3,2.3c1.7,4,1.1,8.1-1.3,9.1
	c-2.4,1-5.7-1.4-7.4-5.4c-0.3-0.7-0.5-1.3-0.6-2h-0.2C227.8,277.1,226.9,277.6,225.9,277.9z"/>
<path fill="#FFFFFF" stroke="#000000" d="M217.7,196.6c0.7-2.2,2.9-3.4,5-2.8c2.1,0.7,3.3,3,2.6,5.2c-0.7,2.2-2.9,3.5-5,2.8
	C218.2,201.2,217.1,198.9,217.7,196.6z"/>
<path fill="#FFFFFF" stroke="#000000" d="M222.8,304c-0.7,2.2,0.5,4.5,2.6,5.2s4.4-0.601,5-2.8c0.7-2.2-0.5-4.5-2.6-5.2
	C225.7,300.5,223.5,301.8,222.8,304z M222.3,312.4c-4.1,1.398-8,0.5-8.9-2c-0.8-2.5,1.8-5.7,5.9-7c0.4-0.102,0.7-0.2,1.1-0.301l0,0
	c-0.5-0.601-1-1.199-1.4-1.899c-2.2-3.7-2.2-7.8,0.1-9.2c2.3-1.4,5.9,0.5,8.1,4.3c0.5,0.8,0.9,1.7,1.2,2.601l0,0
	c0.7-0.399,1.4-0.699,2.3-1c4.1-1.399,8.1-0.5,8.9,2c0.8,2.5-1.8,5.699-5.9,7c-0.1,0-0.3,0.101-0.4,0.101v0.101
	c0.5,0.699,0.9,1.5,1.3,2.301c1.7,4,1.1,8.1-1.3,9.1c-2.4,1-5.7-1.4-7.4-5.4c-0.3-0.699-0.5-1.299-0.6-2h-0.2
	C224.1,311.7,223.2,312.1,222.3,312.4z"/>
<path fill="#FFFFFF" stroke="#000000" d="M217.7,196.6c-0.7,2.2,0.5,4.5,2.6,5.2c2.1,0.7,4.4-0.6,5-2.8c0.7-2.2-0.5-4.5-2.6-5.2
	C220.7,193.2,218.4,194.4,217.7,196.6z M217.2,205.1c-4.1,1.4-8.1,0.5-8.9-2c-0.8-2.5,1.8-5.7,5.9-7c0.4-0.1,0.7-0.2,1.1-0.3l0,0
	c-0.5-0.6-1-1.2-1.4-1.9c-2.2-3.7-2.2-7.8,0-9.2c2.2-1.4,5.9,0.5,8.1,4.3c0.5,0.9,0.9,1.7,1.2,2.6h0.1c0.7-0.4,1.4-0.7,2.3-1
	c4.1-1.4,8-0.5,8.9,2c0.8,2.5-1.8,5.6-5.9,7c-0.1,0-0.3,0.1-0.4,0.1v0.1c0.5,0.7,0.9,1.5,1.3,2.3c1.7,4,1.1,8.1-1.3,9.1
	c-2.4,1-5.7-1.4-7.4-5.4c-0.3-0.7-0.5-1.3-0.7-2h-0.2C219.1,204.4,218.2,204.8,217.2,205.1z"/>
<path fill="#FFFFFF" stroke="#000000" d="M214.4,233c-0.7,2.2-2.9,3.5-5,2.8c-2.1-0.7-3.3-3-2.6-5.2c0.7-2.2,2.9-3.4,5-2.8
	C214,228.5,215.1,230.8,214.4,233z"/>
<path fill="#FFFFFF" stroke="#000000" d="M209.4,235.8c2.1,0.7,4.4-0.6,5-2.8c0.7-2.2-0.5-4.5-2.6-5.2c-2.1-0.7-4.4,0.6-5,2.8
	C206.1,232.8,207.3,235.1,209.4,235.8z M206.3,239.1c-4.1,1.4-8.1,0.5-8.9-2c-0.8-2.5,1.8-5.7,5.9-7c0.4-0.1,0.7-0.2,1.1-0.3l0,0
	c-0.5-0.6-1-1.2-1.4-1.9c-2.2-3.7-2.2-7.8,0-9.2c2.2-1.4,5.9,0.5,8.1,4.3c0.5,0.9,0.9,1.7,1.2,2.6l0,0c0.7-0.4,1.4-0.7,2.3-1
	c4.1-1.4,8.1-0.5,8.9,2s-1.8,5.6-5.9,7c-0.1,0-0.3,0.1-0.4,0.1v0.1c0.5,0.7,0.9,1.5,1.3,2.3c1.7,4,1.1,8.1-1.3,9.1
	c-2.4,1-5.7-1.4-7.4-5.4c-0.3-0.7-0.5-1.3-0.7-2H209C208.2,238.3,207.3,238.7,206.3,239.1z"/>
<path fill="#FFFFFF" stroke="#000000" d="M194.5,256.3c2.1,0.7,3.2,3,2.6,5.2c-0.7,2.2-2.9,3.5-5,2.8c-2.1-0.7-3.3-3-2.6-5.2
	C190.1,256.9,192.4,255.7,194.5,256.3z"/>
<path fill="#FFFFFF" stroke="#000000" d="M191,180.9c2.1,0.7,3.3,3,2.6,5.2c-0.7,2.2-2.9,3.5-5,2.8c-2.1-0.7-3.2-3-2.6-5.2
	C186.6,181.5,188.9,180.2,191,180.9z"/>
<path fill="#FFFFFF" stroke="#000000" d="M189.5,259.1c-0.7,2.2,0.5,4.5,2.6,5.2c2.1,0.7,4.4-0.6,5-2.8c0.7-2.2-0.5-4.5-2.6-5.2
	C192.4,255.7,190.1,256.9,189.5,259.1z M188.9,267.6c-4.1,1.4-8,0.5-8.9-2c-0.8-2.5,1.8-5.6,5.9-7c0.4-0.1,0.7-0.2,1.1-0.3l0,0
	c-0.5-0.6-1-1.2-1.4-1.9c-2.2-3.7-2.2-7.8,0.1-9.2c2.2-1.4,5.9,0.5,8.1,4.3c0.5,0.9,0.9,1.7,1.2,2.6h0.1c0.7-0.4,1.4-0.8,2.3-1
	c4.1-1.4,8-0.5,8.9,2c0.8,2.5-1.8,5.6-5.9,7c-0.1,0-0.3,0.1-0.4,0.1v0.1c0.5,0.7,0.9,1.5,1.3,2.3c1.7,4,1.1,8.1-1.3,9.1
	s-5.7-1.4-7.4-5.4c-0.3-0.7-0.5-1.3-0.6-2h-0.2C190.8,266.8,189.9,267.2,188.9,267.6z"/>
<path fill="#FFFFFF" stroke="#000000" d="M186,183.7c-0.7,2.2,0.5,4.5,2.6,5.2c2.1,0.7,4.4-0.6,5-2.8c0.7-2.2-0.5-4.5-2.6-5.2
	C188.9,180.2,186.6,181.5,186,183.7z M185.4,192.2c-4.1,1.4-8,0.5-8.9-2c-0.8-2.5,1.8-5.7,5.9-7c0.4-0.1,0.7-0.2,1.1-0.3l0,0
	c-0.5-0.6-1-1.2-1.4-1.9c-2.2-3.7-2.2-7.8,0.1-9.2c2.3-1.4,5.9,0.5,8.1,4.3c0.5,0.8,0.9,1.7,1.2,2.6h0.1c0.7-0.4,1.4-0.7,2.3-1
	c4.1-1.4,8-0.5,8.9,2c0.8,2.5-1.8,5.7-5.9,7c-0.1,0-0.3,0.1-0.4,0.1v0.1c0.5,0.7,0.9,1.5,1.3,2.3c1.7,4,1.1,8.1-1.3,9.1
	s-5.7-1.4-7.4-5.4c-0.3-0.7-0.5-1.3-0.6-2h-0.2C187.3,191.4,186.4,191.8,185.4,192.2z"/>
<path fill="#FFFFFF" stroke="#000000" d="M175.1,207.8c2.1,0.7,3.3,3,2.6,5.2c-0.7,2.2-2.9,3.5-5,2.8c-2.1-0.7-3.3-3-2.6-5.2
	C170.7,208.4,173,207.2,175.1,207.8z"/>
<path fill="#FFFFFF" stroke="#000000" d="M170,210.6c-0.7,2.2,0.5,4.5,2.6,5.2c2.1,0.7,4.4-0.6,5-2.8c0.7-2.2-0.5-4.5-2.6-5.2
	C173,207.2,170.7,208.4,170,210.6z M169.5,219.1c-4.1,1.4-8,0.5-8.9-2c-0.8-2.5,1.8-5.6,5.9-7c0.4-0.1,0.7-0.2,1.1-0.3l0,0
	c-0.5-0.6-1-1.2-1.4-1.9c-2.2-3.7-2.2-7.8,0-9.2c2.2-1.4,5.9,0.5,8.1,4.3c0.5,0.9,0.9,1.7,1.2,2.6h0.1c0.7-0.4,1.4-0.8,2.3-1
	c4.1-1.4,8-0.5,8.9,2c0.9,2.5-1.8,5.7-5.9,7c-0.1,0-0.3,0.1-0.4,0.1v0.1c0.5,0.7,0.9,1.5,1.3,2.3c1.7,4,1.1,8.1-1.3,9.1
	s-5.7-1.4-7.4-5.4c-0.3-0.7-0.5-1.3-0.7-2h-0.2C171.4,218.3,170.5,218.8,169.5,219.1z"/>
<path fill="#FFFFFF" stroke="#000000" d="M152.3,181.5c0.7-2.2,2.9-3.5,5-2.8c2.1,0.7,3.3,3,2.6,5.2c-0.7,2.2-2.9,3.5-5,2.8
	C152.8,186,151.6,183.7,152.3,181.5z"/>
<path fill="#FFFFFF" stroke="#000000" d="M154.9,186.7c2.1,0.7,4.4-0.6,5-2.8c0.7-2.2-0.5-4.5-2.6-5.2c-2.1-0.7-4.4,0.6-5,2.8
	C151.6,183.7,152.8,186,154.9,186.7z M151.8,190c-4.1,1.4-8,0.5-8.9-2c-0.8-2.5,1.8-5.7,5.9-7c0.4-0.1,0.7-0.2,1.1-0.3l0,0
	c-0.5-0.6-1-1.2-1.4-1.9c-2.2-3.7-2.2-7.8,0-9.2s5.9,0.6,8.1,4.3c0.5,0.9,0.9,1.7,1.2,2.6l0,0c0.7-0.4,1.4-0.7,2.3-1
	c4.1-1.4,8-0.5,8.9,2c0.8,2.5-1.8,5.6-5.9,7c-0.1,0.1-0.3,0.1-0.4,0.1v0.1c0.5,0.7,0.9,1.5,1.3,2.3c1.7,4,1.1,8.1-1.3,9.1
	c-2.4,1-5.7-1.4-7.4-5.4c-0.3-0.7-0.5-1.3-0.7-2h-0.2C153.6,189.2,152.8,189.6,151.8,190z"/>
<path fill="#FFFFFF" stroke="#000000" d="M329.5,314.9c-4.1,1.398-6.7,4.5-5.9,7c0.802,2.5,4.802,3.398,8.9,2
	c1-0.301,1.9-0.801,2.6-1.301h0.2c0.102,0.699,0.4,1.301,0.7,2c1.7,4,5,6.399,7.4,5.399c2.398-1,3-5.101,1.3-9.101
	c-0.4-0.899-0.8-1.601-1.3-2.301v-0.1c0.1,0,0.3-0.1,0.398-0.1c4.102-1.4,6.7-4.5,5.9-7s-4.8-3.4-8.9-2c-0.8,0.299-1.6,0.6-2.3,1
	h-0.1c-0.302-0.9-0.7-1.701-1.2-2.602c-2.2-3.699-5.8-5.6-8.102-4.3c-2.198,1.399-2.3,5.5,0,9.2c0.4,0.699,0.9,1.3,1.4,1.898l0,0
	C330.3,314.7,329.9,314.8,329.5,314.9z M295.5,243.3c0,0-4.8,27.6,10.7,27.9l0.1-1.7c2.4,2.2,5.4,3.9,9.2,4.8c0,0,10.9,25.5,32.1,17
	c0,0,11,12.2,24.802,7.101l0.1,0.101c15.2,3.601,0,17.601,0,17.601c4.3,4.301-5.5,11.5-5.5,11.5c0.1,1.101,0,1.899-0.3,2.601
	c-1.7,4.8-10,1.601-10,1.601c6.1,9.699-9.102,13.299-9.102,13.299c-0.6,5.602-3.398,7-6.1,7.102c-2.5,0.1-4.8-1.102-4.8-1.102
	c0.7,7.602-3.9,10.201-8.2,10.9c-3.6,0.6-7,0-7,0c-3,9.1-12.7,4.8-12.7,4.8c-10.3,3.601-15.1-6.7-15.1-6.7s8.5-6.1-2.4,1.2
	c-10.9,7.3-20.6-1.2-20.6-1.2s0.4-9.898-4.9-8.5c-15.8,4.2-21.2-9.1-21.2-9.1c-12.7,5.5-17-4.8-17-4.8
	c-18.8,1.2-21.8-15.2-21.8-15.2c-13.3,0-7.3-25.5-7.3-25.5c-20.6-9.7-13.3-25.5-13.3-25.5c-19.4-5.5-8.5-18.8-8.5-18.8
	c-16.4,0.6-12.1-15.8-12.1-15.8c-12.1,0.6-9.7-21.8-9.7-21.8c-17,0.6-14.5-23-14.5-23c-21.2-23,1.8-23,1.8-23
	c1.8-23.6,29.7-0.6,29.7-0.6c16.4-13.3,30.3,4.9,30.3,4.9c13.3-12.7,32.7,8.5,32.7,8.5c14.5-10.9,30.9,9.7,30.9,9.7
	c13.3-9.1,20.6,17,20.6,17l0.1,0.1c-2.5,3.1-3.5,7.6,1.2,13.9C287.6,222.7,287,243.3,295.5,243.3z M301.1,303.4
	c-4.1,1.398-6.7,4.5-5.899,7c0.8,2.5,4.8,3.398,8.899,2c1-0.301,1.9-0.801,2.601-1.301h0.2c0.1,0.601,0.398,1.301,0.6,2
	c1.7,4,5,6.399,7.4,5.399c2.398-1,3-5.101,1.3-9.101c-0.4-0.899-0.8-1.601-1.3-2.301V307c0.1,0,0.3-0.1,0.398-0.1
	c4.102-1.4,6.7-4.5,5.9-7s-4.8-3.4-8.9-2c-0.8,0.3-1.6,0.6-2.3,1h-0.1c-0.302-0.801-0.7-1.7-1.2-2.602c-2.2-3.699-5.8-5.6-8.101-4.3
	c-2.199,1.399-2.3,5.5,0,9.2c0.4,0.699,0.9,1.3,1.4,1.898l0,0C301.8,303.1,301.4,303.3,301.1,303.4z M285.9,334.3
	c-4.1,1.4-6.7,4.5-5.9,7s4.8,3.4,8.9,2c1-0.3,1.9-0.8,2.6-1.3h0.2c0.1,0.6,0.4,1.3,0.6,2c1.7,4,5,6.4,7.4,5.4
	c2.399-1,3-5.102,1.3-9.102c-0.4-0.8-0.8-1.6-1.3-2.3v-0.101c0.2,0,0.3-0.101,0.399-0.101c4.101-1.399,6.7-4.5,5.9-7
	s-4.8-3.399-8.9-2c-0.8,0.3-1.6,0.601-2.3,1h-0.1c-0.3-0.8-0.7-1.7-1.2-2.601c-2.2-3.699-5.8-5.6-8.1-4.299
	c-2.2,1.398-2.3,5.5-0.1,9.199c0.4,0.699,0.9,1.301,1.4,1.899l0,0C286.6,334.1,286.3,334.2,285.9,334.3z M274.7,281.1
	c0.4,0.7,0.9,1.3,1.4,1.9l0,0c-0.4,0.1-0.7,0.2-1.1,0.3c-4.1,1.4-6.7,4.5-5.9,7c0.8,2.5,4.8,3.4,8.9,2c1-0.3,1.9-0.8,2.6-1.3h0.2
	c0.2,0.6,0.4,1.3,0.7,2c1.7,4,5,6.4,7.4,5.4s3-5.102,1.3-9.102c-0.4-0.898-0.8-1.6-1.3-2.3v-0.101c0.1,0,0.3-0.101,0.4-0.101
	c4.1-1.399,6.7-4.5,5.9-7c-0.8-2.5-4.8-3.4-8.9-2c-0.8,0.3-1.6,0.6-2.3,1l0,0c-0.3-0.8-0.7-1.7-1.2-2.6c-2.2-3.7-5.8-5.6-8.1-4.3
	C272.5,273.3,272.5,277.4,274.7,281.1z M255.6,316.1c-4.1,1.4-6.7,4.5-5.9,7c0.8,2.5,4.8,3.4,8.9,2c1-0.3,1.9-0.8,2.6-1.3h0.2
	c0.1,0.7,0.4,1.3,0.7,2c1.7,4,5,6.4,7.4,5.4s3-5.101,1.3-9.101c-0.4-0.899-0.8-1.601-1.3-2.301v-0.1c0.1,0,0.3-0.102,0.4-0.102
	c4.1-1.398,6.7-4.5,5.8-7c-0.8-2.5-4.8-3.398-8.9-2c-0.8,0.301-1.6,0.602-2.3,1h-0.1c-0.3-0.8-0.7-1.699-1.2-2.6
	c-2.2-3.7-5.8-5.6-8.1-4.3c-2.2,1.399-2.3,5.5,0,9.2c0.4,0.699,0.9,1.3,1.4,1.898l0,0C256.3,315.9,256,316,255.6,316.1z
	 M248.2,206.9c-4.1,1.4-6.7,4.5-5.9,7c0.8,2.5,4.8,3.4,8.9,2c1-0.3,1.8-0.8,2.6-1.3h0.2c0.2,0.7,0.4,1.3,0.7,2c1.7,4,5,6.4,7.4,5.4
	s3-5.1,1.3-9.1c-0.4-0.9-0.8-1.6-1.3-2.3v-0.1c0.1,0,0.3-0.1,0.4-0.1c4.1-1.4,6.7-4.5,5.9-7c-0.8-2.5-4.8-3.4-8.9-2
	c-0.8,0.3-1.6,0.6-2.3,1l0,0c-0.3-0.9-0.7-1.7-1.2-2.6c-2.2-3.7-5.8-5.6-8.1-4.3c-2.2,1.4-2.3,5.5,0,9.2c0.4,0.7,0.9,1.3,1.4,1.9
	l0,0C248.9,206.7,248.6,206.8,248.2,206.9z M247.1,239.1c-4.1,1.4-6.7,4.5-5.9,7c0.8,2.5,4.8,3.4,8.9,2c1-0.3,1.9-0.8,2.6-1.3h0.2
	c0.2,0.6,0.4,1.3,0.6,2c1.7,4,5,6.4,7.4,5.4s3-5.1,1.3-9.1c-0.3-0.9-0.8-1.6-1.3-2.3v-0.1c0.1,0,0.3-0.1,0.4-0.1
	c4.1-1.4,6.7-4.5,5.9-7c-0.8-2.5-4.8-3.4-8.9-2c-0.8,0.3-1.6,0.6-2.3,1h-0.1c-0.3-0.8-0.7-1.7-1.2-2.6c-2.2-3.7-5.8-5.6-8.1-4.3
	c-2.2,1.4-2.3,5.5-0.1,9.2c0.4,0.7,0.9,1.3,1.4,1.9l0,0C247.8,238.9,247.5,239,247.1,239.1z M222.9,268.8c-4.1,1.4-6.7,4.5-5.9,7
	s4.8,3.4,8.9,2c1-0.3,1.8-0.8,2.6-1.3h0.2c0.1,0.7,0.4,1.3,0.6,2c1.7,4,5,6.4,7.4,5.4c2.4-1,3-5.1,1.3-9.1c-0.4-0.8-0.8-1.6-1.3-2.3
	v-0.1c0.1,0,0.3-0.1,0.4-0.1c4.1-1.4,6.7-4.5,5.9-7s-4.8-3.4-8.9-2c-0.8,0.3-1.6,0.6-2.3,1l0,0c-0.3-0.9-0.7-1.7-1.2-2.6
	c-2.2-3.7-5.8-5.6-8.1-4.3c-2.2,1.4-2.3,5.5,0,9.2c0.4,0.7,0.9,1.3,1.4,1.9l0,0C223.6,268.6,223.2,268.7,222.9,268.8z M219.2,303.4
	c-4.1,1.398-6.7,4.5-5.9,7c0.8,2.5,4.8,3.398,8.9,2c1-0.301,1.9-0.801,2.6-1.301h0.2c0.1,0.601,0.4,1.301,0.6,2
	c1.7,4,5,6.399,7.4,5.399s3-5.101,1.3-9.101c-0.4-0.899-0.8-1.601-1.3-2.301V307c0.1,0,0.3-0.1,0.4-0.1c4.1-1.4,6.7-4.5,5.9-7
	c-0.8-2.5-4.8-3.4-8.9-2c-0.8,0.3-1.6,0.6-2.3,1l0,0c-0.3-0.801-0.7-1.7-1.2-2.602c-2.2-3.699-5.8-5.6-8.1-4.3
	c-2.2,1.399-2.3,5.5-0.1,9.2c0.4,0.699,0.9,1.3,1.4,1.898l0,0C220,303.1,219.6,303.3,219.2,303.4z M214.2,196.1
	c-4.1,1.4-6.7,4.5-5.9,7c0.8,2.5,4.8,3.4,8.9,2c1-0.3,1.8-0.8,2.6-1.3h0.2c0.1,0.6,0.4,1.3,0.7,2c1.7,4,5,6.4,7.4,5.4s3-5.1,1.3-9.1
	c-0.4-0.8-0.8-1.6-1.3-2.3v-0.1c0.1,0,0.3-0.1,0.4-0.1c4.1-1.4,6.7-4.5,5.9-7c-0.8-2.5-4.8-3.4-8.9-2c-0.8,0.3-1.6,0.6-2.3,1h-0.1
	c-0.3-0.9-0.7-1.7-1.2-2.6c-2.2-3.7-5.8-5.6-8.1-4.3c-2.2,1.4-2.3,5.5,0,9.2c0.4,0.7,0.9,1.3,1.4,1.9l0,0
	C214.9,195.8,214.6,195.9,214.2,196.1z M203.3,230c-4.1,1.4-6.7,4.5-5.9,7c0.8,2.5,4.8,3.4,8.9,2c1-0.3,1.9-0.8,2.6-1.3h0.1
	c0.1,0.6,0.4,1.3,0.7,2c1.7,4,5,6.4,7.4,5.4s3-5.1,1.3-9.1c-0.4-0.8-0.8-1.6-1.3-2.3v-0.1c0.1-0.1,0.3-0.1,0.4-0.1
	c4.1-1.4,6.7-4.5,5.9-7c-0.8-2.5-4.8-3.4-8.9-2c-0.8,0.3-1.6,0.6-2.3,1l0,0c-0.3-0.9-0.7-1.7-1.2-2.6c-2.2-3.7-5.8-5.6-8.1-4.3
	c-2.2,1.4-2.3,5.5,0,9.2c0.4,0.7,0.9,1.3,1.4,1.9l0,0C204,229.8,203.6,229.9,203.3,230z M185.9,258.5c-4.1,1.4-6.7,4.5-5.9,7
	s4.8,3.4,8.9,2c1-0.3,1.9-0.8,2.6-1.3h0.2c0.1,0.6,0.4,1.3,0.6,2c1.7,4,5,6.4,7.4,5.4c2.4-1,3-5.1,1.3-9.1c-0.4-0.8-0.8-1.6-1.3-2.3
	v-0.1c0.2-0.1,0.3-0.1,0.4-0.1c4.1-1.4,6.7-4.5,5.9-7s-4.8-3.4-8.9-2c-0.8,0.3-1.6,0.6-2.3,1h-0.1c-0.3-0.9-0.7-1.7-1.2-2.6
	c-2.2-3.7-5.8-5.6-8.1-4.3c-2.2,1.4-2.3,5.5-0.1,9.2c0.4,0.7,0.9,1.3,1.4,1.9l0,0C186.6,258.3,186.3,258.4,185.9,258.5z
	 M182.4,183.1c-4.1,1.4-6.7,4.5-5.9,7s4.8,3.4,8.9,2c1-0.3,1.9-0.8,2.6-1.3h0.2c0.1,0.6,0.4,1.3,0.6,2c1.7,4,5,6.4,7.4,5.4
	c2.4-1,3-5.1,1.3-9.1c-0.3-0.9-0.8-1.6-1.3-2.3v-0.1c0.2,0,0.3-0.1,0.4-0.1c4.1-1.4,6.7-4.5,5.9-7s-4.8-3.4-8.9-2
	c-0.8,0.3-1.6,0.6-2.3,1h-0.1c-0.3-0.8-0.7-1.7-1.2-2.6c-2.2-3.7-5.8-5.6-8.1-4.3c-2.2,1.4-2.3,5.5-0.1,9.2c0.4,0.7,0.9,1.3,1.4,1.9
	l0,0C183.1,182.9,182.8,183,182.4,183.1z M166.5,210c-4.1,1.4-6.7,4.5-5.9,7c0.8,2.5,4.8,3.4,8.9,2c1-0.3,1.9-0.8,2.6-1.3h0.2
	c0.1,0.7,0.4,1.3,0.7,2c1.7,4,5,6.4,7.4,5.4s3-5.1,1.3-9.1c-0.4-0.9-0.8-1.6-1.3-2.3v-0.1c0.1,0,0.3-0.1,0.4-0.1
	c4.1-1.4,6.7-4.5,5.9-7c-0.8-2.5-4.8-3.4-8.9-2c-0.8,0.3-1.6,0.6-2.3,1h-0.1c-0.3-0.9-0.7-1.7-1.2-2.6c-2.2-3.7-5.8-5.6-8.1-4.3
	c-2.2,1.4-2.3,5.5,0,9.2c0.4,0.7,0.9,1.3,1.4,1.9l0,0C167.2,209.8,166.9,209.9,166.5,210z M148.8,180.9c-4.1,1.4-6.7,4.5-5.9,7
	c0.8,2.5,4.8,3.4,8.9,2c1-0.3,1.9-0.8,2.6-1.3h0.2c0.2,0.7,0.4,1.3,0.7,2c1.7,4,5,6.4,7.4,5.4c2.4-1,3-5.1,1.3-9.1
	c-0.4-0.9-0.8-1.6-1.3-2.3v-0.1c0.1,0,0.3-0.1,0.4-0.1c4.1-1.4,6.7-4.5,5.9-7s-4.8-3.4-8.9-2c-0.8,0.3-1.6,0.6-2.3,1l0,0
	c-0.3-0.9-0.7-1.7-1.2-2.6c-2.2-3.7-5.8-5.6-8.1-4.3c-2.2,1.4-2.3,5.5,0,9.2c0.4,0.7,0.9,1.3,1.4,1.9l0,0
	C149.5,180.7,149.1,180.8,148.8,180.9z"/>
<path fill="none" stroke="#000000" stroke-width="0.5" stroke-linecap="round" stroke-linejoin="round" d="M200.9,429.4
	c0,0,41.8,10.898,66.1-1.2"/>
<path fill="none" stroke="#000000" stroke-width="0.5" stroke-linecap="round" stroke-linejoin="round" d="M240.9,384.5
	c0,0,36.4,8.5,53.9,24.2"/>
<path fill="none" stroke="#000000" stroke-width="0.5" stroke-linecap="round" stroke-linejoin="round" d="M306.4,448.8
	c0,0-13.9,21.2-4.801,38.2"/>
<path id="www.ABC-color.com" fill="none" stroke="#000000" stroke-width="0.5" stroke-linecap="round" stroke-linejoin="round" d="
	M431.2,456c0,0,0.6-24.2-9.7-30.9"/>
<path fill="none" stroke="#000000" stroke-width="0.5" stroke-linecap="round" stroke-linejoin="round" d="M497.9,451.2
	c0,0,17.6-21.8,40.6-20.602"/>
<path fill="none" stroke="#000000" stroke-width="0.5" stroke-linecap="round" stroke-linejoin="round" d="M464,493
	c2.4,0,20.6,17.6,39.4,23"/>
</svg>
