<?xml version="1.0" encoding="utf-8"?>
<!-- Generator: Adobe Illustrator 15.0.0, SVG Export Plug-In . SVG Version: 6.00 Build 0)  -->
<!DOCTYPE svg PUBLIC "-//W3C//DTD SVG 1.1//EN" "http://www.w3.org/Graphics/SVG/1.1/DTD/svg11.dtd">
<svg version="1.1" id="layer_x5F_www.ABC-color.com"
	 xmlns="http://www.w3.org/2000/svg" xmlns:xlink="http://www.w3.org/1999/xlink" x="0px" y="0px" width="822px" height="567px"
	 viewBox="0 0 822 567" enable-background="new 0 0 822 567" xml:space="preserve">
<path fill="#FFFFFF" stroke="#000000" stroke-width="2" d="M448.6,237.7c4.602,8,8,17.6,11,26c-0.198,9,0.602,18.4-1,27
	c-1.8,8.5-6.6,16.2-9.5,24.5c-7.698,7.7-15.5,17.2-25,23c-9.698,4.5-19.5,9.399-30.5,10.5c-7.898,1.8-16.698,0.7-25,1
	c-9.5-1.9-19.398-5.4-29-9c-5.698-4.3-12.698-9.2-19-14c-5.3-7.5-11.6-14.5-15-23c-4-9.9-6.199-20.7-5.5-31.5
	c0.801-11.5,4.2-22.1,10-32c5.2-8.6,13.2-15.8,20.5-22.5c9.4-5.3,19.4-10.5,30-13c12.5-2.8,26.2-2,38.5-0.5
	c10.9,3.7,22.102,8.3,32,15C437.5,224.6,443.4,231.5,448.6,237.7z"/>
<path fill="#FFFFFF" stroke="#000000" stroke-width="2" d="M296.1,175.2c10.4,14.7,21.2,30,34.5,42.5c-7.3,6.7-15.3,13.9-20.5,22.5
	c-31.3-5.8-55.8-28-80-48c-19.1-20.5-66.4-61.9-70.3-94.7c-0.6-5-0.9-10.6,4-14.5c5.6-3.8,18,0.2,24,2.5
	C228.3,101.4,269.5,144.4,296.1,175.2z"/>
<path fill="#FFFFFF" stroke="#000000" stroke-width="2" d="M230.1,192.2c24.2,20,48.7,42.1,80,48c-5.8,9.9-9.199,20.5-10,32
	c-29.6-17.2-64.5-17.9-96.5-23.5c-0.1-0.2-0.2-0.5-0.3-0.7c-15-5.5-33.9-13.2-52.4-23.6c-18.2-10.2-43.7-25.6-47.1-40.9
	c-0.6-2.8-0.6-6.4,1.1-9.5c8.5-10,35.7-6.3,51.9-3.5C183,175,209.9,186.1,230.1,192.2z"/>
<path fill="#FFFFFF" stroke="#000000" stroke-width="2" d="M305.6,303.7c-24.1-1.2-45.899,5.7-68.5,10.5c-0.2-0.101-0.4-0.2-0.7-0.3
	c-39.8,5.6-90.2,2.898-130-7c-39.8-9.9-49.8-32.2-6.6-46c9.2-3,19.3-5.1,31-7c24-3.9,48.1-3.3,72.8-5.2c32,5.6,66.9,6.3,96.5,23.5
	C299.4,283,301.6,293.8,305.6,303.7z"/>
<path fill="#FFFFFF" stroke="#000000" stroke-width="2" d="M305.6,303.7c3.4,8.5,9.7,15.5,15,23c-28.398,7-50.3,29.6-72.5,48.5
	c-0.4,0-1-0.601-1.5-0.4c-21.5,7.8-48,20.8-75.8,27.102c-16.8,3.8-44.7,10.3-54.9-3.5c-0.7-17.9,15.8-28.7,28.5-37.9
	c27.2-20,56.3-33.8,92-45c0.3-0.399,0.5-0.8,0.8-1.3C259.7,309.4,281.5,302.5,305.6,303.7z"/>
<path fill="#FFFFFF" stroke="#000000" stroke-width="2" d="M320.6,326.7c6.302,4.8,13.302,9.7,19,14c-8.6,29.399-31,51.8-48.5,76.5
	c-24,28.5-61.8,65.7-92.8,73.2c-18.8,4.5-23.1-8.2-19.5-20.5c9.2-31.602,42.8-67.7,69.3-94.7C270.3,356.3,292.2,333.7,320.6,326.7z"
	/>
<path fill="#FFFFFF" stroke="#000000" stroke-width="2" d="M368.6,349.7c-10.398,24.6-13.398,51.5-15.5,78.5
	c-0.398,0.3-0.698,0.6-1.198,0.8C339.8,464.8,311.6,538.2,279.8,547.9c-21.2,6.5-15-40.602-12-56c5-25.4,14.7-48,23.6-74
	c-0.1-0.2-0.2-0.4-0.4-0.602c17.5-24.699,39.9-47.1,48.5-76.5C349.1,344.3,359.1,347.8,368.6,349.7z"/>
<path fill="#FFFFFF" stroke="#000000" stroke-width="2" d="M413,424.7c0.1,40.7,3.1,84.6-11.7,118.8c-18.2,42-36.6-4.2-42-30.6
	c-6-29.302-7.3-58.302-6.3-84.7c2.1-27,5.1-53.9,15.5-78.5c8.3-0.3,17.1,0.8,25-1c12.8,21.899,14.9,47.398,19.5,72
	C413,422,413,423.4,413,424.7z"/>
<path fill="#FFFFFF" stroke="#000000" stroke-width="2" d="M506.4,509.9c0.898,9.698,1.398,37.5-14,33
	c-29.5-8.7-53.802-61.102-65.602-88.4c-4.1-9.4-8.2-19.9-11.2-29.8h-2.5c0-1.3,0-2.7,0-4c-4.6-24.602-6.698-50.101-19.5-72
	c11-1.101,20.802-6,30.5-10.5c24.102,16.1,33.5,44.1,49,67c-0.1,0.2-0.198,0.398-0.398,0.6C484.5,436.5,502.8,471.3,506.4,509.9z"/>
<path fill="#FFFFFF" stroke="#000000" stroke-width="2" d="M521.1,367.2c0.4,0.3,0.4,0.899,0.7,1.3c26.5,28.9,62.4,59.4,70,92
	c3.9,16.9-4.6,21.7-18,19c-33.8-6.8-71-46.4-100.7-74.3c-15.5-22.9-24.8-50.9-49-67c9.5-5.8,17.302-15.3,25-23
	C466.5,340.7,496.3,351.9,521.1,367.2z"/>
<path fill="#FFFFFF" stroke="#000000" stroke-width="2" d="M546.1,310.2c0.302,0.399,0.602,0.8,0.802,1.2
	C575,322,641.4,348.3,651.8,378.5c6,17.6-25.898,16.6-40,15c-32.3-3.6-60.7-16-90-26.7c-0.2,0.101-0.398,0.2-0.7,0.4
	c-24.8-15.3-54.5-26.5-72-52c2.9-8.3,7.7-16,9.5-24.5C485.6,304.2,516.4,306.1,546.1,310.2z"/>
<path fill="#FFFFFF" stroke="#000000" stroke-width="2" d="M674.3,257.9c15.2,3.3,38.7,7,41,25.6c-14.2,15.5-36.398,18.4-55.6,21.4
	c-36.3,5.8-76.3,7-113,5c-0.2,0.1-0.4,0.199-0.7,0.3c-29.7-4.2-60.5-6-87.5-19.5c1.6-8.6,0.8-18,1-27c22.9-11.1,48.6-10.2,73.5-13.5
	c38.9-0.5,89.9-1.7,131.3,5.7C667.3,256.5,671,257.2,674.3,257.9z"/>
<path fill="#FFFFFF" stroke="#000000" stroke-width="2" d="M516.7,192.6c30.898-12.1,55.5-25,89-30.6c13-2.2,51.2-6.7,45,13
	c-8.8,27.8-64.602,55.4-92.4,66.6c-8.3,3.3-16.6,4.6-25.3,8.7c-24.9,3.3-50.5,2.4-73.5,13.5c-3-8.4-6.4-18-11-26
	c26.9-5.4,46.5-28.8,67.5-45.5C516.3,192.3,516.5,192.5,516.7,192.6z"/>
<path fill="#FFFFFF" stroke="#000000" stroke-width="2" d="M585.3,75c3.5,2.7,4,6.5,3.5,12.9c-3,35.8-49.8,78.6-72.7,104.3
	c-21,16.7-40.6,40.1-67.5,45.5c-5.198-6.2-11.1-13.1-17.5-18.5c5.302-23.8,22-43.4,36-63c0.2-0.1,0.4-0.2,0.602-0.4
	c24.8-27.5,59.7-64.8,94.1-78.9C568,74.4,576.8,71.9,585.3,75z"/>
<path fill="#FFFFFF" stroke="#000000" stroke-width="2" d="M479.8,18c24.3-7.4,17.5,35.4,14,54c-4.3,22.9-10.8,41.8-19,62
	c-2.8,7-7.2,15.5-7.7,22.3c-14,19.6-30.698,39.2-36,63c-9.8-6.7-21.1-11.3-32-15c-2.1-18.5,3.602-36.1,6-54
	c0.5-0.2,0.802-0.5,1.2-0.8c8.9-34.4,26.2-77,49-108C458.7,36.9,471.1,20.6,479.8,18z"/>
<path fill="#FFFFFF" stroke="#000000" stroke-width="2" d="M401.4,55.9c5.6,31.4,4.3,63.8,3.698,94.3c-2.398,17.9-8.1,35.5-6,54
	c-12.3-1.5-26-2.3-38.5,0.5c-8.1-20.3-11-41.8-14.5-63.5c0.102-0.2,0.2-0.4,0.302-0.6c-2.4-33.9-1.602-67.1,5-100
	C354.3,26.2,361.1-0.4,375.3,1.1C391,2.8,398.8,41.6,401.4,55.9z"/>
<path fill="#FFFFFF" stroke="#000000" stroke-width="2" d="M346.1,141.2c3.5,21.7,6.4,43.2,14.5,63.5c-10.6,2.5-20.6,7.7-30,13
	c-13.3-12.5-24.1-27.8-34.5-42.5c0.1-0.2,0.2-0.4,0.4-0.6c-14.1-28.9-31.1-64.7-38.6-99c-3.6-16.4-6.9-35.6,2-51.5
	c21.1-6.8,42,27.6,51.5,43c14.3,23.1,23.5,46.3,33,71c0.1,0.9,0.198,1.8,0.5,2.5C345.3,140.6,345.7,140.9,346.1,141.2z"/>
<g>
	<g>
		<path d="M372.1,239.7C372.4,239.8,371.7,239.6,372.1,239.7c-0.3-0.1-0.3-0.1-0.198,0c-0.2-0.2-0.2-0.2-0.102-0.1
			c-0.1-0.1-0.2-0.2-0.2-0.3c0,0.2,0,0.1,0,0c0,0.8,0.7,1.5,1.5,1.5c0.802,0,1.5-0.7,1.5-1.5c-0.1-1.4-1.1-2.5-2.5-2.5
			c-0.8,0-1.5,0.7-1.5,1.5C370.6,239.1,371.3,239.7,372.1,239.7L372.1,239.7z"/>
	</g>
</g>
<g>
	<g>
		<path d="M378.1,259.7c1.9,0,1.9-3,0-3C376.2,256.7,376.2,259.7,378.1,259.7L378.1,259.7z"/>
	</g>
</g>
<g>
	<g>
		<path d="M395.1,262.7c1.9,0,1.9-3,0-3C393.2,259.7,393.2,262.7,395.1,262.7L395.1,262.7z"/>
	</g>
</g>
<g>
	<g>
		<path d="M402.1,252.7c1.9,0,1.9-3,0-3C400.2,249.7,400.2,252.7,402.1,252.7L402.1,252.7z"/>
	</g>
</g>
<g>
	<g>
		<path d="M402.1,241.7c1.9,0,1.9-3,0-3C400.2,238.7,400.2,241.7,402.1,241.7L402.1,241.7z"/>
	</g>
</g>
<g>
	<g>
		<path d="M417.1,247.7c1.9,0,1.9-3,0-3C415.2,244.7,415.2,247.7,417.1,247.7L417.1,247.7z"/>
	</g>
</g>
<g>
	<g>
		<path d="M424.1,279.7c1.9,0,1.9-3,0-3C422.2,276.7,422.2,279.7,424.1,279.7L424.1,279.7z"/>
	</g>
</g>
<g>
	<g>
		<path d="M396.1,300.7c1.9,0,1.9-3,0-3C394.2,297.7,394.2,300.7,396.1,300.7L396.1,300.7z"/>
	</g>
</g>
<g>
	<g>
		<path d="M369.1,296.7c1.9,0,1.9-3,0-3C367.2,293.7,367.2,296.7,369.1,296.7L369.1,296.7z"/>
	</g>
</g>
<g>
	<g>
		<path d="M353.1,280.7c1.9,0,1.9-3,0-3C351.2,277.7,351.2,280.7,353.1,280.7L353.1,280.7z"/>
	</g>
</g>
<g>
	<g>
		<path d="M349.1,249.7c1.9,0,1.9-3,0-3C347.2,246.7,347.2,249.7,349.1,249.7L349.1,249.7z"/>
	</g>
</g>
<g>
	<g>
		<path d="M346.1,231.7c1.9,0,1.9-3,0-3C344.2,228.7,344.2,231.7,346.1,231.7L346.1,231.7z"/>
	</g>
</g>
<g>
	<g>
		<path d="M358.1,220.7c1.9,0,1.9-3,0-3C356.2,217.7,356.2,220.7,358.1,220.7L358.1,220.7z"/>
	</g>
</g>
<g>
	<g>
		<path d="M386.1,230.7c1.9,0,1.9-3,0-3C384.2,227.7,384.2,230.7,386.1,230.7L386.1,230.7z"/>
	</g>
</g>
<g>
	<g>
		<path d="M383.1,219.7c1.9,0,1.9-3,0-3C381.2,216.7,381.2,219.7,383.1,219.7L383.1,219.7z"/>
	</g>
</g>
<g>
	<g>
		<path d="M404.1,224.7c1.9,0,1.9-3,0-3C402.2,221.7,402.2,224.7,404.1,224.7L404.1,224.7z"/>
	</g>
</g>
<g>
	<g>
		<path d="M424.1,234.7c1.9,0,1.9-3,0-3C422.2,231.7,422.2,234.7,424.1,234.7L424.1,234.7z"/>
	</g>
</g>
<g>
	<g>
		<path d="M414.1,235.7c1.9,0,1.9-3,0-3C412.2,232.7,412.2,235.7,414.1,235.7L414.1,235.7z"/>
	</g>
</g>
<g>
	<g>
		<path d="M387.1,244.7c1.9,0,1.9-3,0-3C385.2,241.7,385.2,244.7,387.1,244.7L387.1,244.7z"/>
	</g>
</g>
<g>
	<g>
		<path d="M366.1,249.7c1.9,0,1.9-3,0-3C364.2,246.7,364.2,249.7,366.1,249.7L366.1,249.7z"/>
	</g>
</g>
<g>
	<g>
		<path d="M344.1,263.7c1.9,0,1.9-3,0-3C342.2,260.7,342.2,263.7,344.1,263.7L344.1,263.7z"/>
	</g>
</g>
<g>
	<g>
		<path d="M355.1,266.7c1.9,0,1.9-3,0-3C353.2,263.7,353.2,266.7,355.1,266.7L355.1,266.7z"/>
	</g>
</g>
<g>
	<g>
		<path d="M356.1,235.7c1.9,0,1.9-3,0-3C354.2,232.7,354.2,235.7,356.1,235.7L356.1,235.7z"/>
	</g>
</g>
<g>
	<g>
		<path d="M333.1,247.7c1.9,0,1.9-3,0-3C331.2,244.7,331.2,247.7,333.1,247.7L333.1,247.7z"/>
	</g>
</g>
<g>
	<g>
		<path d="M327.1,243.7c1.9,0,1.9-3,0-3C325.2,240.7,325.2,243.7,327.1,243.7L327.1,243.7z"/>
	</g>
</g>
<g>
	<g>
		<path d="M315.1,254.7c1.9,0,1.9-3,0-3C313.2,251.7,313.2,254.7,315.1,254.7L315.1,254.7z"/>
	</g>
</g>
<g>
	<g>
		<path d="M313.1,271.7c1.9,0,1.9-3,0-3C311.2,268.7,311.2,271.7,313.1,271.7L313.1,271.7z"/>
	</g>
</g>
<g>
	<g>
		<path d="M328.1,282.7c1.9,0,1.9-3,0-3C326.2,279.7,326.2,282.7,328.1,282.7L328.1,282.7z"/>
	</g>
</g>
<g>
	<g>
		<path d="M337.1,300.7c1.9,0,1.9-3,0-3C335.2,297.7,335.2,300.7,337.1,300.7L337.1,300.7z"/>
	</g>
</g>
<g>
	<g>
		<path d="M337.1,315.7c1.9,0,1.9-3,0-3C335.2,312.7,335.2,315.7,337.1,315.7L337.1,315.7z"/>
	</g>
</g>
<g>
	<g>
		<path d="M345.1,321.7c1.9,0,1.9-3,0-3C343.2,318.7,343.2,321.7,345.1,321.7L345.1,321.7z"/>
	</g>
</g>
<g>
	<g>
		<path d="M353.1,327.7c1.9,0,1.9-3,0-3C351.2,324.7,351.2,327.7,353.1,327.7L353.1,327.7z"/>
	</g>
</g>
<g>
	<g>
		<path d="M370.1,331.7c0.302,0,0.7,0,1,0c1.9,0,1.9-3,0-3c-0.3,0-0.698,0-1,0C368.2,328.7,368.2,331.7,370.1,331.7L370.1,331.7z"/>
	</g>
</g>
<g>
	<g>
		<path d="M394.1,335.7c1.9,0,1.9-3,0-3C392.2,332.7,392.2,335.7,394.1,335.7L394.1,335.7z"/>
	</g>
</g>
<g>
	<g>
		<path d="M407.1,334.7c1.9,0,1.9-3,0-3C405.2,331.7,405.2,334.7,407.1,334.7L407.1,334.7z"/>
	</g>
</g>
<g>
	<g>
		<path d="M418.1,326.7c1.9,0,1.9-3,0-3C416.2,323.7,416.2,326.7,418.1,326.7L418.1,326.7z"/>
	</g>
</g>
<g>
	<g>
		<path d="M430.1,316.7c1.9,0,1.9-3,0-3C428.2,313.7,428.2,316.7,430.1,316.7L430.1,316.7z"/>
	</g>
</g>
<g>
	<g>
		<path d="M434.1,302.7c1.9,0,1.9-3,0-3C432.2,299.7,432.2,302.7,434.1,302.7L434.1,302.7z"/>
	</g>
</g>
<g>
	<g>
		<path d="M446.1,293.7c1.9,0,1.9-3,0-3C444.2,290.7,444.2,293.7,446.1,293.7L446.1,293.7z"/>
	</g>
</g>
<g>
	<g>
		<path d="M449.1,270.7c1.9,0,1.9-3,0-3C447.2,267.7,447.2,270.7,449.1,270.7L449.1,270.7z"/>
	</g>
</g>
<g>
	<g>
		<path d="M436.1,266.7c1.9,0,1.9-3,0-3C434.2,263.7,434.2,266.7,436.1,266.7L436.1,266.7z"/>
	</g>
</g>
<g>
	<g>
		<path d="M410.1,271.7c1.9,0,1.9-3,0-3C408.2,268.7,408.2,271.7,410.1,271.7L410.1,271.7z"/>
	</g>
</g>
<g>
	<g>
		<path d="M409.1,289.7c1.9,0,1.9-3,0-3C407.2,286.7,407.2,289.7,409.1,289.7L409.1,289.7z"/>
	</g>
</g>
<g>
	<g>
		<path d="M418.1,295.7c1.9,0,1.9-3,0-3C416.2,292.7,416.2,295.7,418.1,295.7L418.1,295.7z"/>
	</g>
</g>
<g>
	<g>
		<path d="M433.1,283.7c1.9,0,1.9-3,0-3C431.2,280.7,431.2,283.7,433.1,283.7L433.1,283.7z"/>
	</g>
</g>
<g>
	<g>
		<path d="M426.1,254.7c1.9,0,1.9-3,0-3C424.2,251.7,424.2,254.7,426.1,254.7L426.1,254.7z"/>
	</g>
</g>
<g>
	<g>
		<path d="M420.1,257.7c1.9,0,1.9-3,0-3C418.2,254.7,418.2,257.7,420.1,257.7L420.1,257.7z"/>
	</g>
</g>
<g>
	<g>
		<path d="M436.1,241.7c1.9,0,1.9-3,0-3C434.2,238.7,434.2,241.7,436.1,241.7L436.1,241.7z"/>
	</g>
</g>
<g>
	<g>
		<path d="M369.1,275.7c1.9,0,1.9-3,0-3C367.2,272.7,367.2,275.7,369.1,275.7L369.1,275.7z"/>
	</g>
</g>
<g>
	<g>
		<path d="M365.1,264.7c1.9,0,1.9-3,0-3C363.2,261.7,363.2,264.7,365.1,264.7L365.1,264.7z"/>
	</g>
</g>
<g>
	<g>
		<path d="M385.1,268.7c1.9,0,1.9-3,0-3C383.2,265.7,383.2,268.7,385.1,268.7L385.1,268.7z"/>
	</g>
</g>
<g>
	<g>
		<path d="M383.1,278.7c1.9,0,1.9-3,0-3C381.2,275.7,381.2,278.7,383.1,278.7L383.1,278.7z"/>
	</g>
</g>
<g>
	<g>
		<path d="M399.1,273.7c1.9,0,1.9-3,0-3C397.2,270.7,397.2,273.7,399.1,273.7L399.1,273.7z"/>
	</g>
</g>
<g>
	<g>
		<path d="M394.1,283.7c1.9,0,1.9-3,0-3C392.2,280.7,392.2,283.7,394.1,283.7L394.1,283.7z"/>
	</g>
</g>
<g>
	<g>
		<path d="M382.1,293.7c1.9,0,1.9-3,0-3C380.2,290.7,380.2,293.7,382.1,293.7L382.1,293.7z"/>
	</g>
</g>
<g>
	<g>
		<path d="M370.1,285.7c1.9,0,1.9-3,0-3C368.2,282.7,368.2,285.7,370.1,285.7L370.1,285.7z"/>
	</g>
</g>
<g>
	<g>
		<path d="M358.1,295.7c1.9,0,1.9-3,0-3C356.2,292.7,356.2,295.7,358.1,295.7L358.1,295.7z"/>
	</g>
</g>
<g>
	<g>
		<path d="M350.1,304.7c1.9,0,1.9-3,0-3C348.2,301.7,348.2,304.7,350.1,304.7L350.1,304.7z"/>
	</g>
</g>
<g>
	<g>
		<path d="M335.1,285.7c1.9,0,1.9-3,0-3C333.2,282.7,333.2,285.7,335.1,285.7L335.1,285.7z"/>
	</g>
</g>
<g>
	<g>
		<path d="M328.1,263.7c1.9,0,1.9-3,0-3C326.2,260.7,326.2,263.7,328.1,263.7L328.1,263.7z"/>
	</g>
</g>
<g>
	<g>
		<path d="M321.1,287.7c1.9,0,1.9-3,0-3C319.2,284.7,319.2,287.7,321.1,287.7L321.1,287.7z"/>
	</g>
</g>
<g>
	<g>
		<path d="M310.1,284.7c1.9,0,1.9-3,0-3C308.2,281.7,308.2,284.7,310.1,284.7L310.1,284.7z"/>
	</g>
</g>
<g>
	<g>
		<path d="M312.1,293.7c1.9,0,1.9-3,0-3C310.2,290.7,310.2,293.7,312.1,293.7L312.1,293.7z"/>
	</g>
</g>
<g>
	<g>
		<path d="M317.1,309.7c1.9,0,1.9-3,0-3C315.2,306.7,315.2,309.7,317.1,309.7L317.1,309.7z"/>
	</g>
</g>
<g>
	<g>
		<path d="M323.1,297.7c1.9,0,1.9-3,0-3C321.2,294.7,321.2,297.7,323.1,297.7L323.1,297.7z"/>
	</g>
</g>
<g>
	<g>
		<path d="M328.1,316.7c1.9,0,1.9-3,0-3C326.2,313.7,326.2,316.7,328.1,316.7L328.1,316.7z"/>
	</g>
</g>
<g>
	<g>
		<path d="M349.1,336.7c1.9,0,1.9-3,0-3C347.2,333.7,347.2,336.7,349.1,336.7L349.1,336.7z"/>
	</g>
</g>
<g>
	<g>
		<path d="M335.1,327.7c1.9,0,1.9-3,0-3C333.2,324.7,333.2,327.7,335.1,327.7L335.1,327.7z"/>
	</g>
</g>
<g>
	<g>
		<path d="M379.1,339.7c1.9,0,1.9-3,0-3C377.2,336.7,377.2,339.7,379.1,339.7L379.1,339.7z"/>
	</g>
</g>
<g>
	<g>
		<path d="M363.1,336.7c1.9,0,1.9-3,0-3C361.2,333.7,361.2,336.7,363.1,336.7L363.1,336.7z"/>
	</g>
</g>
<g>
	<g>
		<path d="M371.1,319.7c1.9,0,1.9-3,0-3C369.2,316.7,369.2,319.7,371.1,319.7L371.1,319.7z"/>
	</g>
</g>
<g>
	<g>
		<path d="M385.1,325.7c1.9,0,1.9-3,0-3C383.2,322.7,383.2,325.7,385.1,325.7L385.1,325.7z"/>
	</g>
</g>
<g>
	<g>
		<path d="M393.1,313.7c1.9,0,1.9-3,0-3C391.2,310.7,391.2,313.7,393.1,313.7L393.1,313.7z"/>
	</g>
</g>
<g>
	<g>
		<path d="M404.1,317.7c1.9,0,1.9-3,0-3C402.2,314.7,402.2,317.7,404.1,317.7L404.1,317.7z"/>
	</g>
</g>
<g>
	<g>
		<path d="M410.1,305.7c1.9,0,1.9-3,0-3C408.2,302.7,408.2,305.7,410.1,305.7L410.1,305.7z"/>
	</g>
</g>
<g id="www.ABC-color.com">
	<g>
		<path d="M374.1,308.7c1.9,0,1.9-3,0-3C372.2,305.7,372.2,308.7,374.1,308.7L374.1,308.7z"/>
	</g>
</g>
<g>
	<g>
		<path d="M360.1,309.7c1.9,0,1.9-3,0-3C358.2,306.7,358.2,309.7,360.1,309.7L360.1,309.7z"/>
	</g>
</g>
<g>
	<g>
		<path d="M423.1,266.7c1.9,0,1.9-3,0-3C421.2,263.7,421.2,266.7,423.1,266.7L423.1,266.7z"/>
	</g>
</g>
<g>
	<g>
		<path d="M393.1,211.7c1.9,0,1.9-3,0-3C391.2,208.7,391.2,211.7,393.1,211.7L393.1,211.7z"/>
	</g>
</g>
<g>
	<g>
		<path d="M366.1,211.7c1.9,0,1.9-3,0-3C364.2,208.7,364.2,211.7,366.1,211.7L366.1,211.7z"/>
	</g>
</g>
<g>
	<g>
		<path d="M370.1,224.7c1.9,0,1.9-3,0-3C368.2,221.7,368.2,224.7,370.1,224.7L370.1,224.7z"/>
	</g>
</g>
<g>
	<g>
		<path d="M341.1,224.7c1.9,0,1.9-3,0-3C339.2,221.7,339.2,224.7,341.1,224.7L341.1,224.7z"/>
	</g>
</g>
<g>
	<g>
		<path d="M330.1,233.7c1.9,0,1.9-3,0-3C328.2,230.7,328.2,233.7,330.1,233.7L330.1,233.7z"/>
	</g>
</g>
<g>
	<g>
		<path d="M342.1,277.7c1.9,0,1.9-3,0-3C340.2,274.7,340.2,277.7,342.1,277.7L342.1,277.7z"/>
	</g>
</g>
<g>
	<g>
		<path d="M344.1,287.7c1.9,0,1.9-3,0-3C342.2,284.7,342.2,287.7,344.1,287.7L344.1,287.7z"/>
	</g>
</g>
<g>
	<g>
		<path d="M441.1,251.7c1.9,0,1.9-3,0-3C439.2,248.7,439.2,251.7,441.1,251.7L441.1,251.7z"/>
	</g>
</g>
<g>
	<g>
		<path d="M418.1,218.7c1.9,0,1.9-3,0-3C416.2,215.7,416.2,218.7,418.1,218.7L418.1,218.7z"/>
	</g>
</g>
<g>
	<g>
		<path d="M411.1,216.7c1.9,0,1.9-3,0-3C409.2,213.7,409.2,216.7,411.1,216.7L411.1,216.7z"/>
	</g>
</g>
<g>
	<g>
		<path d="M441.1,306.7c1.9,0,1.9-3,0-3C439.2,303.7,439.2,306.7,441.1,306.7L441.1,306.7z"/>
	</g>
</g>
<g>
	<g>
		<path d="M424.1,307.7c1.9,0,1.9-3,0-3C422.2,304.7,422.2,307.7,424.1,307.7L424.1,307.7z"/>
	</g>
</g>
<g>
	<g>
		<path d="M412.1,315.7c1.9,0,1.9-3,0-3C410.2,312.7,410.2,315.7,412.1,315.7L412.1,315.7z"/>
	</g>
</g>
<g>
	<g>
		<path d="M440.1,275.7c1.9,0,1.9-3,0-3C438.2,272.7,438.2,275.7,440.1,275.7L440.1,275.7z"/>
	</g>
</g>
<g>
	<g>
		<path d="M449.1,284.7c1.9,0,1.9-3,0-3C447.2,281.7,447.2,284.7,449.1,284.7L449.1,284.7z"/>
	</g>
</g>
<g>
	<g>
		<path d="M445.1,262.7c1.9,0,1.9-3,0-3C443.2,259.7,443.2,262.7,445.1,262.7L445.1,262.7z"/>
	</g>
</g>
<g>
	<g>
		<path d="M427.1,243.7c1.9,0,1.9-3,0-3C425.2,240.7,425.2,243.7,427.1,243.7L427.1,243.7z"/>
	</g>
</g>
<g>
	<g>
		<path d="M383.1,311.7c1.9,0,1.9-3,0-3C381.2,308.7,381.2,311.7,383.1,311.7L383.1,311.7z"/>
	</g>
</g>
<g>
	<g>
		<path d="M322.1,270.7c1.9,0,1.9-3,0-3C320.2,267.7,320.2,270.7,322.1,270.7L322.1,270.7z"/>
	</g>
</g>
<g>
	<g>
		<path d="M418.1,225.7c1.9,0,1.9-3,0-3C416.2,222.7,416.2,225.7,418.1,225.7L418.1,225.7z"/>
	</g>
</g>
<g>
	<g>
		<path d="M429.1,227.7c1.9,0,1.9-3,0-3C427.2,224.7,427.2,227.7,429.1,227.7L429.1,227.7z"/>
	</g>
</g>
<g>
	<g>
		<path d="M337.1,240.7c1.9,0,1.9-3,0-3C335.2,237.7,335.2,240.7,337.1,240.7L337.1,240.7z"/>
	</g>
</g>
</svg>
