<?xml version="1.0" encoding="utf-8"?>
<!-- Generator: Adobe Illustrator 15.0.0, SVG Export Plug-In . SVG Version: 6.00 Build 0)  -->
<!DOCTYPE svg PUBLIC "-//W3C//DTD SVG 1.1//EN" "http://www.w3.org/Graphics/SVG/1.1/DTD/svg11.dtd">
<svg version="1.1" id="layer_x5F_www.ABC-color.com"
	 xmlns="http://www.w3.org/2000/svg" xmlns:xlink="http://www.w3.org/1999/xlink" x="0px" y="0px" width="822px" height="567px"
	 viewBox="0 0 822 567" enable-background="new 0 0 822 567" xml:space="preserve">
<path fill="#FFFFFF" stroke="#000000" d="M377.4,207.8c6.398,2.8,13,5.3,20,6c2.398,4.7,7.898,8,13,9c1.898,4.9,5.1,9.1,7.8,13.5
	c2.398,3.8,4.398,7.8,5.2,12.5c2.5,7.1-1.302,14.5,0,22c-3.4,4.3-6,9.6-7,15c-4.7,2.9-10.2,6.4-12,12c-3.4,0-7.7,1.7-9,5
	c-3.2-0.2-6.802,0.601-9,3c-4.4,0-9.5,0.101-12.7,3.3c-4.2-1.3-12.9-2.398-17.3-2.3c-5.102-3.399-11.2-4.8-17-6
	c-1.802-4.5-6.5-6.899-11-8c-0.802-5-4.7-9.4-9-12c0.5-5.4-3.2-9.9-4-15c-1.302-6,0.698-12.5,0-19c2.898-5,5.698-10.4,7-16
	c5.5-4.8,10.3-10.3,16-15c6.198-1.5,12.6-3.5,18-7C363.5,208.9,370.5,208.9,377.4,207.8z"/>
<path fill="#FFFFFF" stroke="#000000" d="M322.4,230.8c-1.302,5.6-4.102,11-7,16c-51.5-20.9-104.4-39.4-152-69
	c-5.6-14-10.1-20.3-9.8-31c0.9-30,33.6-25.2,61.8-14C246.1,170.3,281.5,205,322.4,230.8z"/>
<path id="www.ABC-color.com" fill="#FFFFFF" stroke="#000000" d="M315.4,246.8c0.698,6.4-1.302,12.9,0,19
	c-50.5-2.7-100.102-13.2-149.5-20.5c-14.3-6.1-35.6-16.7-39.3-29.5c-4.9-17.3,10.5-32.6,36.8-38C211,207.4,264,225.9,315.4,246.8z"
	/>
<path fill="#FFFFFF" stroke="#000000" d="M315.4,265.8c0.8,5.1,4.5,9.6,4,15c-49.8,19.5-101.7,33.7-154.5,39.5
	c-1.1-2.3-6.2-1.2-9.5-1.5c-27.3-2.5-42.7-12.6-40-32c2.9-20.8,25-29.6,50.5-41.5C215.3,252.6,265,263.1,315.4,265.8z"/>
<path fill="#FFFFFF" stroke="#000000" d="M319.4,280.8c4.3,2.6,8.198,7,9,12c-45.102,26.2-87.4,57.5-128,90c-10.2,0.4-20.5,5-31,6
	c-30.3,3-45.3-18-34.7-41c5.6-12,17.8-20.7,30.2-27.5C217.8,314.4,269.7,300.3,319.4,280.8z"/>
<path fill="#FFFFFF" stroke="#000000" d="M328.4,292.8c4.5,1.101,9.198,3.5,11,8c-25.602,43.5-57.102,83.5-83,127
	c-0.6,0.2-1.5-0.1-2,0.2c-24.9,14.2-57,46.2-77.8,23.5c-17.5-19.1,8.1-50,23.8-68.7C241,350.3,283.3,318.9,328.4,292.8z"/>
<path fill="#FFFFFF" stroke="#000000" d="M339.4,300.8c5.8,1.2,11.898,2.601,17,6c-21.4,50.9-39,103.7-47,158
	c-12.9,13.9-17.602,34.8-36,39c-4.3,1-11.8,0.4-15-0.2c-39.8-7.8-12-54.898-2-75.8C282.3,384.3,313.8,344.3,339.4,300.8z"/>
<path fill="#FFFFFF" stroke="#000000" d="M356.4,306.8c4.398-0.1,13.1,1,17.3,2.3c-4.9,40.5-9.9,81.102-14.3,121.7
	c-3.302,35.7-9,91.4-32,94.7c-30.5-2.8-14.5-41.2-18-60.7C317.4,410.5,335,357.7,356.4,306.8z"/>
<path fill="#FFFFFF" stroke="#000000" d="M386.4,305.8c7,36.3,15.198,72.3,20,109c0,0.3-0.7,0.7-0.7,1
	c0.898,28.602,8.7,92.9-3.602,115.4c-3.698,6.7-14.8,7.2-22.698,2.7c-14-8-12.802-17.802-16-38c-3.302-21.302-2.7-44.7-3.302-64.802
	c-0.198-0.1-0.5-0.198-0.698-0.3c4.398-40.6,9.398-81.199,14.3-121.699C376.9,305.8,382.1,305.8,386.4,305.8z"/>
<path fill="#FFFFFF" stroke="#000000" d="M386.4,305.8c2.3-2.399,5.8-3.2,9-3c17.698,50.8,53.6,92.7,80,139c-0.5,18,5.698,31.5,7,47
	c1.6,18.2-4.5,40.2-22,35.8c-30.802-7.8-43-80-53-109.5c-0.302-0.1-0.7-0.198-1-0.3C401.6,378.1,393.4,342,386.4,305.8z"/>
<path fill="#FFFFFF" stroke="#000000" d="M395.4,302.8c1.3-3.3,5.6-5,9-5c36.6,36.101,78.698,65.601,118,98
	c8.198,27.5,39,56.9,39,81c0,8.8-5.4,20.4-13,21c-25,2.102-54.302-39.7-73-56C449,395.5,413.1,353.6,395.4,302.8z"/>
<path fill="#FFFFFF" stroke="#000000" d="M612.4,387.8c2.1,12.8-3.802,30.4-19,34c-19.802,4.7-48.802-16.7-71-26
	c-39.302-32.399-81.4-61.899-118-98c1.8-5.6,7.3-9.1,12-12c44.1,22,93.6,33,140,49C578.8,352.6,608.4,363.6,612.4,387.8z"/>
<path fill="#FFFFFF" stroke="#000000" d="M643.5,305.8c15.5,19.5-11.7,29.8-35.3,32c-21.4,2-37.2-4.5-51.7-3.1
	c-46.4-16-95.9-27-140-49c1-5.4,3.6-10.7,7-15c53.5,9.3,110.2,8,165,5C604.2,280.2,633.6,293.4,643.5,305.8z"/>
<path fill="#FFFFFF" stroke="#000000" d="M656.1,239.8c10,24.7-51.898,28.8-67.698,36c-54.802,3-111.4,4.3-165-5
	c-1.302-7.5,2.5-14.8,0-22c40-6.7,80-12.8,120-19c23-1,42.1-2.2,65-3C620.1,226.4,651.2,227.6,656.1,239.8z"/>
<path fill="#FFFFFF" stroke="#000000" d="M616.4,161.8c8.698,1.2,23.698,6.4,22,19c-2.602,19.8-30.4,28.1-52,34.8
	c-16.802,5.2-28.602,9.6-43,14.2c-40,6.2-80,12.3-120,19c-0.802-4.8-2.802-8.7-5.2-12.5C449.5,220,489.6,200,521.4,184.8
	c0.6-0.2,1.198-0.4,1.8-0.6c2.3-0.3,5.8-0.6,5.6-2C557.9,171.7,589.7,158.1,616.4,161.8z"/>
<path fill="#FFFFFF" stroke="#000000" d="M538.4,90.8c20.5-8,63.398,2,57.198,29c-5.8,25.4-38.398,49.1-66.8,62
	c0,0.1,0.102,0.2,0.102,0.3c-1.9,0.7-3.802,1.4-5.602,2c-1.1,0.2-1.898,0.3-1.8,0.6c-31.8,15.2-71.9,35.2-103.2,51.5
	c-2.7-4.4-5.898-8.5-7.8-13.5C455.9,182.3,502.9,140.6,538.4,90.8z"/>
<path fill="#FFFFFF" stroke="#000000" d="M516.4,47.8c24.6,0.7,31,23.6,22,43c-35.5,49.8-82.5,91.5-128,132c-5.102-1-10.5-4.3-13-9
	c32.5-41.1,53.8-90.9,67-141C477.7,63.2,497.7,47.3,516.4,47.8z"/>
<path fill="#FFFFFF" stroke="#000000" d="M444.4,18.8c26.3,1.8,20.3,36,20,54c-13.2,50-34.5,99.8-67,141c-7-0.7-13.602-3.2-20-6
	c14-49,25.698-99.6,23-151C414.2,39.5,426.6,17.6,444.4,18.8z"/>
<path fill="#FFFFFF" stroke="#000000" d="M400.4,56.8c2.698,51.4-9,101.9-23,151c-6.9,1.1-13.9,1.1-21,1
	c-16-49.7-28.302-100.3-28-153c5.1-26.7,22.3-40.6,41-38C389,20.6,396.4,38.5,400.4,56.8z"/>
<path fill="#FFFFFF" stroke="#000000" d="M328.4,55.8c-0.302,52.6,12,103.3,28,153c-5.4,3.5-11.802,5.5-18,7
	c-35.5-39.9-60.102-89.6-73-141C260.7,30.8,303.7,19.2,328.4,55.8z"/>
<path fill="#FFFFFF" stroke="#000000" d="M338.4,215.8c-5.7,4.8-10.5,10.2-16,15c-40.9-25.8-76.4-60.5-107-98
	c-7.6-19.7-18.8-40.5-2.8-58c11.8-13,36-15.1,51-0.2c0.6,0.1,1.2,0.2,1.8,0.2C278.3,126.2,302.9,175.9,338.4,215.8z"/>
</svg>
