<?xml version="1.0" encoding="utf-8"?>
<!-- Generator: Adobe Illustrator 15.0.0, SVG Export Plug-In . SVG Version: 6.00 Build 0)  -->
<!DOCTYPE svg PUBLIC "-//W3C//DTD SVG 1.1//EN" "http://www.w3.org/Graphics/SVG/1.1/DTD/svg11.dtd">
<svg version="1.1" id="Layer_1" xmlns="http://www.w3.org/2000/svg" xmlns:xlink="http://www.w3.org/1999/xlink" x="0px" y="0px"
	 width="822px" height="567px" viewBox="0 0 822 567" enable-background="new 0 0 822 567" xml:space="preserve">
<title>Aster coloring</title>
<desc>Vector coloring image aster. Author Lobaz Roman. Site www.abc-color.com</desc>
<g>
	<path fill="#FFFFFF" stroke="#000000" stroke-width="0.5" d="M637.5,263.2c0,0.2-0.1,0.6-0.4,0.5c1.2,1.1,2.5,1.8,4.101,2.1
		l0.1-0.1c3.8-2.6,65-45.6,74.101-95.3c-0.101-0.4-2.2-6.5-4.601-9.5c-1.2,6.6-11.8,22.7-24.6,40.2
		C666.2,228.2,640.9,259,637.5,263.2z"/>
	<path fill="#FFFFFF" stroke="#000000" stroke-width="0.5" d="M637.1,263.6c0.301,0.1,0.4-0.3,0.4-0.5c0,0,0,0,0-0.1l0,0
		c0,0-0.1-1.1-0.1-3.2c0-7.1,1-25.4,9.3-45.7c8.5-20.8,24.7-43.7,55.399-59.1c0,0-10.899-3.9-18.699-1.5
		c-52.2,15.8-56.4,60.6-53.801,87.3c0.7,6.4,1.7,11.1,2.7,14.5C633.5,258.9,635.1,261.8,637.1,263.6z"/>
	<path fill="#FFFFFF" stroke="#000000" stroke-width="0.5" d="M641.3,265.6c-0.1,0-0.1,0.1-0.1,0.1c0.2,0,0.5,0.1,0.7,0.1
		c2.3,0.7,5,1.2,8.1,1.3c6.4,0.1,15.5-1.5,25.4-8.8c49.3-36.3,40-88.1,40-88.1s0,0,0,0.1C706.3,220,645.1,263,641.3,265.6z"/>
	<path fill="#FFFFFF" stroke="#000000" stroke-width="0.5" d="M646.8,214.2c-8.3,20.3-9.3,38.5-9.3,45.7c0,2.1,0.1,3.2,0.1,3.2l0,0
		C637.7,263,665,230,686.3,201c12.8-17.5,23.5-33.6,24.601-40.2c-2.2-2.7-8.601-5.7-8.601-5.7C671.5,170.5,655.3,193.4,646.8,214.2z
		"/>
	<path fill="#FFFFFF" stroke="#000000" stroke-width="0.5" d="M458.1,481.7c-2.699-0.7,2.601-4-10.699-12.7
		c-13.301-8.6-18.101-25.7-19.4-33s-8.6,6.4-8.6,6.4l-0.601,0.5c16.101,19.399,29.7,39.3,33.7,57c1.5,6.199,1.4,9.899,1.2,11.399
		c0,0.101,0,0.101,0,0.2c2.1-9.7,4.1-19.3,5.6-29c0-0.2,0.101-0.3,0.101-0.5L458.1,481.7z"/>
	<path fill="#FFFFFF" stroke="#000000" stroke-width="0.5" d="M453.7,511.9c0-0.101,0-0.101,0-0.2c0-0.101,0-0.101,0-0.2
		c0,0,0,0.1,0,0.2C453.7,511.8,453.7,511.9,453.7,511.9z"/>
	<path fill="#FFFFFF" stroke="#000000" stroke-width="0.5" d="M528.1,420.4c-1.399-8.601-12,11.1-15.8,15
		c-0.1,0.3-0.2,0.399-0.2,0.399c-5.1,4.7-11.699,7.3-12,7.4c0.301-0.2,7.2-4.8,2.7-10.7c-0.6-0.7-1.3-1-2.2-1
		c-6.3,0.6-18.699,18.3-18.699,18.3c-2.101,20-5.2,40.101-9.5,59.7c20.3-22.8,39.899-50.3,57.5-77.9
		C529.6,429.8,529.1,426.4,528.1,420.4z"/>
	<path fill="#FFFFFF" stroke="#000000" stroke-width="0.5" d="M388.5,439.8c-0.1-0.1-0.1-0.1-0.2-0.2c-1-1.199-2.1-2.5-3.1-3.699
		c0,0-43.7-25-39.7-12.301c6.4,11,10.8,13.9,10.6,13.9c-8.3-0.1-29.1-23.2-33.699-16c-3.801,5.9,3,9.3,3.199,12
		c0.4,4.3-40.8-12.9-39-3.6c2,10.6,15.1,12.899,13.8,14.6c-5.7,7.3-39-5.6-36.3,2.4c2.7,8,15.9,6.699,16,8.699
		c0.1,4.301-33.5,8.7-28.7,16c5.3,8,14.9,2.9,14,6.7c-1.7,7.2-33.3,0.7-28,10c17.9,8.5-31.8,12-17.9,23.601
		c2.2,1.899-25.6,1.5-24.6,9.1c0.6,4.3,4.7,6.7,6.8,6.6c2.9-0.1-18.5,4.7-16.8,9.301c2.7,7.3,38.7-0.4,42-2.7
		c3.3-2.3,1.2,10.1,10,8.399c11.3-2.199,13.3-15.3,26-17.5c6,2-12.6,20.101,0.1,15.5c4.2-1.5,20.6-18.399,26.6-20.399
		s2.9,16.3,14-6.7c3.9-8,16.7-22,14-3.3c-2.8,19.3,11.301,5.399,19.301-11.3c8-16.7,10.5,11.3,15.3,12c7,1,14-24,17.3-15.301
		c3.6,19.9,25.3-24,20-4c-10.2,17.9,12,7.4,16.7,2.7s25.3,12.7,25.3,12.7c-5.6-12.7-12.3-24.6-19.6-35.9
		c-7.101-11-14.9-21.3-22.9-30.8C388.8,440.1,388.6,439.9,388.5,439.8z"/>
	<path fill="#FFFFFF" stroke="#000000" stroke-width="0.5" d="M502.8,432.5c4.5,5.9-2.399,10.5-2.7,10.7c0.301-0.101,6.9-2.7,12-7.4
		c0,0,0.101-0.1,0.2-0.399c1.2-2.5,7.101-15.801,3.8-18.801c-1.699-1.6-11.3,1.801-7.399-1.5c6.7-5.6,5.399-15.8,5.399-20.5
		c0-4.5-9.699,3.2-10,2.7c-3.1-4.3,3.4-22,4-26.1c0.7-4-12,4-12,4s0.601-20-2.699-30.7c-2.301-7.3-6.101-5.3-8.301-3.3
		c1.2,34.1,0.7,71.3-3.199,108.399c1.199-1.6,12.699-17.8,18.699-18.1C501.5,431.5,502.2,431.8,502.8,432.5z"/>
	<path fill="#FFFFFF" stroke="#000000" stroke-width="0.5" d="M481.9,529.6L481.9,529.6l0.1,0.101c2,2,18.6,5.5,20.7,0.7
		c0.899-2-8.7-10.7-2-8.7s27,9,28.7,2c0.6-2.601-10-5.3-4-10c6-4.601,24.699,10,29.8,12.2C586,539.3,558,511,562,509
		s54.7,1.3,63.9,0c9.3-1.3-10.7-7.3-14-10c-14.301-11.5,64.699-4.7,68.699-10.7s-16-13.3-11.3-14c4.601-0.7,41.7-7,41-18.3
		c-0.7-11.4-47.7-11.8-50.399-13.1c-2.601-1.301,12-1.301,8.699-13.301c-3.399-12-70.199,17-80.699,16c-5.5-0.5,8.699-8,10.699-19.3
		c1.9-10.899-43.399,8.9-46.899,10.4c0,0.1-0.101,0.1-0.101,0.2C529.5,474.4,504.8,510.1,481.9,529.6z"/>
	<path fill="#FFFFFF" stroke="#000000" stroke-width="0.5" d="M407,270.1c0,0.8-0.7,1.5-2,2.1l0,0l0,0l0,0c2.2,1.3,6.9,4.9,3.8,10.1
		c0,0,0,0,0,0.1l0,0c3.101,0.5,5.101,1.2,5.601,2.1c0.3,0.4,0.3,0.7,0.1,1.2c-0.8,1.399-2.3,2.5-4.6,3.2
		c8.3,3,10.1,5.399,9.199,7.199c-1.199,2.9-9,4.301-9,4.301v0.1l0,0l0,0c2.601,0.6,4.2,1.3,4.7,1.8c0.4,0.3,0.4,0.601-0.1,0.9
		c-3.101,1.8-7.4,2.3-13.2,2.2v0.3l9.3,23.3c0,0-6.7-4.7-10,0.6c-3.3,5.301,11.601,26.101,12,26.7c-0.399-0.3-7.5-5.8-12,2
		c-4.6,7.9,28.2,33.2,29.3,34c-0.6-0.3-9.399-4.399-11.3,3.3c-2,8,29.3,22.7,29.3,22.7s-8-2-8,4.7c0,6.6,23.601,27.5,23.601,27.5
		c0.5-4.7,1-9.5,1.399-14.2c3.7-44.2,2.601-86.7-0.399-123.3c0-0.5-0.101-0.9-0.101-1.4c0,0-9-33.3-13.699-29.299
		c-4.601,3.9-2.801,12.2-2.7,12.7c-0.4-0.8-14.7-28.6-16-23.3c-1.4,5.3-0.7,13.3-0.7,13.3s-15.4-18.6-16.7-15.3
		c-1.3,3.2,1.101,8.8,1.3,9.3c-0.5-0.8-8.3-13-9.5-10.4C406.9,269.2,407,269.6,407,270.1z"/>
	<path fill="#FFFFFF" stroke="#000000" stroke-width="0.5" d="M686.7,282.5c-4.601-2.6,11.7-0.2,12.7-3.3c1.699-4.9-16-13.3-16-13.3
		s12.699-2,13.3-4.7c1.5-6.5-19.3-3.4-21.3-2.7c-9.7,7-18.4,8.9-25.4,8.6c-3.1-0.1-5.8-0.6-8.1-1.3c-0.2,0-0.5-0.1-0.7-0.1
		c-1.5-0.3-2.9-1-4.101-2.1c-2-1.8-3.6-4.8-4.699-8.3c-1.4-4.2-2.2-9.2-2.7-14.3c0,0-21.601-25.2-24.9-19.9
		c-3.3,5.3-0.6,11.3,0.7,13.3c1.4,2-33.3-14-33.3-2c0,0,24.399,15.1,33.6,17.1c-29.1-4.8-39,4.1-36.3,9.5c1.4,2.9,20,8,40.5,2.3
		c-3.8,1.4-23.9,24.601-15.2,26.3c5.2,1,17.5-8,22.5-12c0.7-0.7-13.899,12.3-12.7,19.1c0-0.101,0-0.101,0-0.101s2,1.7,4.9,1.7
		c2.1,0,5.8-2.899,9.2-6.1l0,0c4.1-3.9,7.899-8.5,8.399-9.3c-0.1,0.2-0.3,0.6-0.5,1c0.2-0.3,0.4-0.6,0.5-0.9c-1.3,2.6-7,13-7,18.4
		c0,1,0.2,1.699,0.7,2.3c0,0,0,0,0,0.1l0,0c3.3,4,4.7,1.3,8-2.7s11.3-18.7,11.3-18.7s-2.699,34,2,34c4.7,0,12-26.7,12.7-28.7
		c0.601-2,5.3,20.7,9.3,24.7s5.4-20.7,6-24.7c0.601-4,18,30.6,23.301,29.3c5.399-1.3-3.5-18.1-4-18.6c0.8,0.6,22,16,22,12.699
		C711.4,305.8,691.4,285.2,686.7,282.5z"/>
	<path fill="#FFFFFF" stroke="#000000" stroke-width="0.5" d="M500.1,147.9c7.2,8.9,15.7,19.5,19.301,27.1l0.1-0.1
		c0,0,40,23.5,42,42.7c0.2,2,2.7,10.7,6.7,4.7s-6-20-6-20s5.7,0.9,9.3-1.3c9.6-5.7-23.6-29.1-23.6-29.1
		C536.6,174.8,523.5,160.3,500.1,147.9z"/>
	<path fill="#FFFFFF" stroke="#000000" stroke-width="0.5" d="M469.6,143.7c1.2,3.3,2.4,6.7,3.5,10.1c5.2,15.6,9.5,31.7,8.301,38.7
		h0.1c0,0,9.4,24.6,14.7,23.3c5.3-1.4,4.6-5.4,5.3-10.7c0.6-5.3,18,52,22,42s-3.4-32-8.7-42c0,0,0.101-6.9,9.3-2
		c4.7,2.5,5.2-9.8-7.399-17.6l0,0C496.2,187.6,488,166.7,469.6,143.7z"/>
	<path fill="#FFFFFF" stroke="#000000" stroke-width="0.5" d="M394.1,191.9c-2.399,1.7-4.6,2.3-6.3,1.3c-0.2-0.1-0.399-0.3-0.6-0.4
		c-1.101,7.2-4,35.8,16.3,54.3c4.7,4.3,0-17.4,1.3-20.7c0,0,8.8,9.6,11.3,7.3c5.301-4.8-12.699-24.7-10-26.7c2.7-2,6,11.7,9.4,10.8
		c7.8-2.3,0-17.2-0.7-31.3c-0.8-5.3,0.5-12.6-0.1-22.9c-1.3,2.3-2.601,4.7-4,7C405.3,179.9,399.2,188.4,394.1,191.9z"/>
	<path fill="#FFFFFF" stroke="#000000" stroke-width="0.5" d="M620.1,299.5c-0.1-4.8,4.5-13.9,6.4-17.5c0.2-0.4,0.4-0.7,0.5-1
		c-0.5,0.8-4.3,5.3-8.4,9.3l0,0c-3.399,3.3-7,6.101-9.199,6.101c-2.9,0-4.9-1.7-4.9-1.7s0,0,0,0.1c-1.2,2.601-32.4,70.5-74.7,136.8
		l0,0c-17.6,27.601-37.2,55.101-57.5,77.9l0,0c-2.399,10.9-5.1,21.5-8.3,32c5.7-2.6,11.7-6.7,17.8-11.9l0,0
		c22.9-19.5,47.601-55.199,69.8-92.699c0-0.101,0.101-0.101,0.101-0.2c37.7-63.8,68-132.601,69-134.8V301.8
		C620.3,301.3,620.1,300.5,620.1,299.5z"/>
	<path fill="#FFFFFF" stroke="#000000" stroke-width="0.5" d="M485.1,341.2L485.1,341.2c-2.699-76.7-14.199-137.9-16.6-149.6l0,0
		c-5.9-5.7-7.3-16.5-14.8-30.3c0-0.1,0-0.1,0-0.2l0,0c-0.101,1.3-0.2,2.6-0.3,4c-0.9,13.2-2,28.9-8.4,28.9l1.1,1
		c0,0,12.601,48,18.4,116.6c0,0.5,0.1,0.9,0.1,1.4c3,36.7,4.2,79.2,0.4,123.3c-0.4,4.7-0.8,9.4-1.3,14.2
		c-1.101,10.4-2.5,20.9-4.2,31.4c0,0.199-0.1,0.3-0.1,0.5c-1.601,9.699-3.5,19.3-5.601,29l0,0c0,0,0,0,0,0.1s0,0.1,0,0.2
		c0,0.1,0,0.1,0,0.2c-1.8,7.899-3.7,15.8-5.899,23.699c-0.601,2.101-1.101,4-1.601,5.7h-0.1v0.101h18c3.2-10.5,5.899-21.2,8.3-32
		c4.3-19.601,7.4-39.601,9.5-59.7l0,0C485.8,412.5,486.3,375.3,485.1,341.2z"/>
	<path fill="#FFFFFF" stroke="#000000" stroke-width="0.5" d="M447.8,535.6c2.5-9.399,5.5-21.899,6-23.899c0-0.101,0-0.2,0-0.2
		c0-0.1,0-0.1,0-0.1l0,0c0-0.101,0-0.101,0-0.2c0.101-3.7-0.3-7.5-1.2-11.4c-4.1-17.7-17.6-37.6-33.699-57c0,0,0,0,0-0.1
		c-37.5-45-92.7-86.5-92.7-86.5l-1.7-0.101c-0.3,0.101-0.5,0.101-0.8,0.2c-0.4,0.101-0.8,0.2-1.2,0.3c-0.1,0-0.2,0-0.2,0
		c-1.2,0.2-2.2,0.2-3.1,0.2c-8.601,0.101-7.601-6.8-22.6-16.5c4.2,8,6.3,15.9,0.3,18.9c5.1,3.2,49.1,30.899,88.6,76.7
		c1,1.199,2,2.399,3,3.6c0.1,0.1,0.1,0.1,0.2,0.2c0.1,0.2,0.3,0.3,0.399,0.5c8,9.5,15.7,19.899,22.9,30.8
		c7.3,11.3,14.1,23.3,19.7,36c4.8,10.9,8.899,22.3,12,34.2h2.6h0.101C446.7,539.6,447.2,537.7,447.8,535.6z"/>
	<path fill="#FFFFFF" stroke="#000000" stroke-width="0.5" d="M273.8,314.7c-4.8,0.8-9.9,1.399-15.3,1.7
		c2.6,5.6,5.2,11.8,5.3,17.899c8.2,9.7,9.5,17.2,12.8,21.7l-0.1,0.1c2.4,3.2,5.9,4.801,13.8,4.601c2.7-0.101,4.8-0.5,6.3-1.3
		c6.1-3,4-10.9-0.3-18.7c-0.1-0.3-0.3-0.5-0.5-0.8C288.1,332.7,282.7,328.3,273.8,314.7z"/>
	<path fill="#FFFFFF" stroke="#000000" stroke-width="0.5" d="M336.7,337.2L336.7,337.2c-9-8.601-29.4-18.7-45.2-27.3
		c-2.3,0.899-4.7,1.699-7.3,2.399c13.3,8.2,29.6,18.101,37.6,29c10.5,4.9,15.2,9.101,21.4,9C349.8,350.3,342.4,342.7,336.7,337.2z"
		/>
	<path fill="#FFFFFF" stroke="#000000" stroke-width="0.5" d="M343.5,326.9c19.1,5.899,25.6,10.5,34.7,9
		c7.3-1.301-12-10.801-31.601-18.9c-12.899-5.3-29.1-9.6-42.7-13.7c-1.6,1.2-3.3,2.3-5.2,3.4C313.6,312.6,332,319.1,343,326.5
		C343.1,326.6,343.3,326.8,343.5,326.9z"/>
	<path fill="#FFFFFF" stroke="#000000" stroke-width="0.5" d="M399.4,315.3c7.3-2.3-21.7-8.8-41.7-13.6H357.6
		c-4-1-8.399-1.8-12.8-2.601c-10.8-1.8-22.399-3.1-32.8-4.5c-0.3,0-0.6-0.1-0.8-0.1c-0.5,1.3-1.2,2.5-2.101,3.7
		c21.2,5.2,48.101,10.2,65,16C384.4,315.2,396,316.4,399.4,315.3z"/>
	<path fill="#FFFFFF" stroke="#000000" stroke-width="0.5" d="M375.1,291.1c-10.699-0.199-23-0.5-36-0.5c26.9,2.9,58.9,6.9,71,9.9
		l0,0v-0.1V300.3c0,0,7.7-1.399,9-4.2c0.9-1.8-0.899-4.199-9.199-7.199H409.8C403.2,291.2,390.8,291.4,375.1,291.1z"/>
	<path fill="#FFFFFF" stroke="#000000" stroke-width="0.5" d="M339.1,290.6c13,0,25.301,0.4,36,0.5
		c15.7,0.2,28.101,0.101,34.7-2.199c2.3-0.801,3.9-1.9,4.601-3.301c0.199-0.399,0.199-0.699,0-1.1c-0.5-0.9-2.5-1.6-5.601-2.1v0.1
		c-10.7-1.9-33.899-1.9-52.7-1.9c0.2,0,0.4-0.1,0.5-0.1c-0.199,0-0.399,0-0.6,0l0,0c-0.1,0-0.1,0-0.2,0
		c-15.6,0.1-31.7,2.1-45.399,3.5c1,1.8,1.5,3.7,1.6,5.6c8.5,0,17.9,0.101,27,1H339.1z"/>
	<path fill="#FFFFFF" stroke="#000000" stroke-width="0.5" d="M356.1,280.6c18.801,0,42,0,52.7,1.9v-0.1l0,0c0,0,0,0,0-0.1
		c3-5.3-1.7-8.8-3.8-10.1l0,0l0,0c-6.3,3.1-27.1,4.2-48.4,8.3C356.5,280.5,356.3,280.6,356.1,280.6z"/>
	<path fill="#FFFFFF" stroke="#000000" stroke-width="0.5" d="M402,266.9c0.4-0.2,0.8-0.4,1.1-0.7c6.7-4.5-7.899-7.8-7.899-7.8
		c-0.101,5.6-17.5,6.6-40.4,12.8C373.5,268.5,393.2,265.8,402,266.9z"/>
	<path fill="#FFFFFF" stroke="#000000" stroke-width="0.5" d="M354.9,260.3c-4.2,0.8-8.4,1.6-12.4,2.4h-0.1
		c-15,3.1-28.2,8.6-40.101,12.7c2.8,1.9,5,3.9,6.7,6.1c9.2-3.4,26.9-7,36.2-8.7c0.7-0.2,1.399-0.3,2.1-0.4
		c0.3-0.1,0.601-0.1,0.9-0.2c0.899-0.2,1.899-0.4,2.8-0.5c1-0.2,2-0.4,3-0.5c23.4-6.4,41.1-7.2,41.2-13c0-1.5-2.7-2.1-7.2-2.1
		c-0.6,0-1.2,0-1.8,0C378.4,256.5,366.7,258.2,354.9,260.3z"/>
	<path fill="#FFFFFF" stroke="#000000" stroke-width="0.5" d="M382.8,246.1c0.3,5.2-19.8,8.5-40.2,16.7c4-0.8,8.2-1.7,12.4-2.4
		c11.7-2.2,23.5-3.8,31.2-4.1c0.6,0,1.2,0,1.8,0l0,0l0.9-1.2c4-7.3-6.801-10.6-6.801-10.6C382.5,245,382.7,245.5,382.8,246.1z"/>
	<path fill="#FFFFFF" stroke="#000000" stroke-width="0.5" d="M318.3,260c0.2-0.1,0.3-0.1,0.5-0.2
		c14.2-10.1,31.601-17.7,35.101-23.7c1.199-2.2,0.6-4.2-2.301-6c-2.8-1.6-7.199-1-12.399,0.8c-9.8,3.5-22.5,11.4-32.601,17.7
		c-9.8,6.1-15.8,13.4-21.5,19.3c4,1.2,7.6,2.5,10.9,4.1C302.1,268.2,308.9,263.6,318.3,260z"/>
	<path fill="#FFFFFF" stroke="#000000" stroke-width="0.5" d="M273.1,256.5c-0.2,0.3-0.4,0.5-0.6,0.8c-0.9,1.4-1.6,2.8-2.3,4.2
		c-0.5,1.1-0.8,2.1-1.1,3.1c5.7,0.7,11,1.8,15.8,3.3c5.7-5.8,11.7-13.2,21.5-19.3c7.8-9.9,18.899-16.6,20.399-21.5c0,0,0,0,0-0.1
		c0.5-1.9-0.399-3.5-3.399-4.9c-5.101-2.5-11.9-0.2-19.601,5.2c-1.1,0.7-2.1,1.5-3.2,2.4C291.2,237.4,276,253.4,273.1,256.5z"/>
	<path fill="#FFFFFF" stroke="#000000" stroke-width="0.5" d="M251.6,240.2c0,0.1-0.1,0.2-0.1,0.3
		C251.5,240.4,251.6,240.3,251.6,240.2L251.6,240.2z"/>
	<path fill="#FFFFFF" stroke="#000000" stroke-width="0.5" d="M270.1,261.5c0.6-1.4,1.3-2.8,2.3-4.2c0.7-1.2,1.5-2.4,2.4-3.6
		c4.4-6.8,13.4-20.3,14.4-26.1c0-0.4,0-0.7,0-1.1c-0.1-1.4-0.4-2.7-1-4.1c-1.3-2.9-6.5-5.6-13.1-5.7c-7.7-0.1-12,3.6-14.5,6.8v0.1
		c-5,6.3-8.5,12.9-9.7,19.8c-0.3,1.2-0.4,2.4-0.4,3.5c0-0.5,0-1.1,0-1.6c-0.1,0.5-0.1,1-0.1,1.5v0.1c0.2,5,2.3,10.1,4.1,14.7
		c0.1,0.3,0.2,0.6,0.4,0.8v0.1v0.1c0.1,0.2,0.1,0.4,0.2,0.6c0,0,12.4,0.7,14,1.3l0,0C269.4,263.6,269.8,262.5,270.1,261.5z"/>
	<path fill="#FFFFFF" stroke="#000000" stroke-width="0.5" d="M254.9,262.6v-0.1c-0.1-0.3-0.2-0.6-0.4-0.8
		c-2.1-4.9-4.2-9.7-4.1-14.7v-0.1c0,0,0,0,0-0.1c-0.1-2.2,0.2-4.5,1.1-6.7c-4.8-6.6-6.7-11.9-8.9-15.7c-2.5-4.4-5.4-6.7-13.7-6.6
		c-13.7,0.2-7.4,11.2-3.8,20.8c3.2,8.5,12,17.4,18.4,24.8c3.8-0.2,7.7-0.3,11.6-0.1c-0.1-0.2-0.1-0.4-0.2-0.6V262.6L254.9,262.6z"/>
	<path fill="#FFFFFF" stroke="#000000" stroke-width="0.5" d="M224.4,266.1h-0.1c0,0,0,0-0.1,0c0.1,0,0.1,0.1,0.2,0.1
		c4.4-0.8,8.8-1.5,13.2-2.3c0.6-0.1,1.3-0.1,1.9-0.2c-12.4-11.6-29.2-23.1-40.2-29.8c-5.3-3.1-12.3-7.1-15.8-7.1
		c-9.6,0.1,1.7,11.1,8,17.8c0.1,0,0.1,0.1,0.2,0.1C198.3,251.8,212.7,259.5,224.4,266.1z"/>
	<path fill="#FFFFFF" stroke="#000000" stroke-width="0.5" d="M169.5,259.4c0.1,0,0.1,0,0.2,0c10.6,4.7,25.8,8.7,38.9,12.3
		c1.4-0.6,2.9-1.3,4.4-1.8c1.4-0.7,2.8-1.2,3.2-1.2c-13.5-5.1-29.9-10.7-38.4-17.2l-0.1-0.1h-0.1c0,0,0,0-0.1-0.1
		c-17.2-5.3-23.2-9.1-31-7.6c-2.1,0.4-2.2,1.4-0.9,2.7c1.5,1.6,4.8,3.6,9,5.8C158.8,254.5,164.1,257,169.5,259.4z"/>
	<path fill="#FFFFFF" stroke="#000000" stroke-width="0.5" d="M208.6,271.7c-13-3.7-28.2-7.7-38.9-12.3c-0.1,0-0.1,0-0.2,0
		s-0.1,0-0.2,0c0.1,0.1,0.2,0.1,0.3,0.2c-18-2.9-27.2-5.3-34.9-4.6v-0.1c-1.1,0.1-2.2,0.2-3.3,0.5c-4.2,1,4.9,5.1,16.3,8.9
		c13.4,4.4,35.1,8.2,53.4,11.7C203.3,274.4,205.8,273,208.6,271.7z"/>
	<path fill="#FFFFFF" stroke="#000000" stroke-width="0.5" d="M164.5,284.7c8.9,0.7,18.8,0.899,28.2,1.2c0.7-1.9,1.8-3.601,3.2-5.4
		c-15.2-1.5-32.1-3.3-44.8-5.8c-23,0.1-33.9-1.8-39.3,2.1c-1.1,0.7,0.7,1.6,4.4,2.4c2.2,0.5,5.1,1,8.5,1.5
		c9.9,1.4,24,2.7,37.9,3.899C163.4,284.6,163.9,284.7,164.5,284.7z"/>
	<path fill="#FFFFFF" stroke="#000000" stroke-width="0.5" d="M192.7,285.9c-9.4-0.2-19.3-0.5-28.3-1.2c-1.5,0.1-3,0.3-4.5,0.399
		c-22.2,1.9-39.9,2.4-46.8,5.801V290.8c-1.7,0.8-2.7,1.8-3.1,3c-0.5,1.8,2.8,2.8,8.4,3.3c11.7,1.101,33.3-0.1,50.4-1.3
		c4.8-0.3,9.7-0.8,14.5-1.399c0.1,0,0.1,0,0.2,0c3.2-0.4,6-0.9,8.9-1.301c-0.3-1-0.4-2.1-0.4-3.1C192,288.6,192.2,287.3,192.7,285.9
		z"/>
	<path fill="#FFFFFF" stroke="#000000" stroke-width="0.5" d="M191.6,301.4c1.6-0.4,3.3-0.801,4.9-1.2c-2-2.101-3.4-4.4-4-6.8
		c-3,0.399-6,0.8-9,1.1c-0.1,0-0.1,0-0.2,0c-3.7,0.5-8.2,0.9-14.5,1.4c-18.1,4.1-34.4,6.199-43.5,9.199c-1,0.301-2,0.7-2.8,1
		c-3,1.301-4.7,2.801-4.6,4.7c0.2,3.7,22.6,0.8,41.3-2.3c0.1-0.1,0.3-0.1,0.4-0.2C170.8,306.4,181.6,303.9,191.6,301.4z"/>
	<path fill="#FFFFFF" stroke="#000000" stroke-width="0.5" d="M214.8,310.8c-3.9-1.399-7.4-2.899-10.4-4.6
		c-10.4,3.899-21.7,8.1-33.1,11c-17.4,9.2-31.7,13.399-26.2,18.7c1.6,1.5,5.1,1.6,9.7,0.6c10.4-2.2,26.7-9.6,40.1-15.4l0,0l0.1-0.1
		C202.4,317.7,208.9,314.2,214.8,310.8z"/>
	<path fill="#FFFFFF" stroke="#000000" stroke-width="0.5" d="M214.8,310.8c-5.9,3.4-12.4,6.9-19.8,10.101l-0.1,0.1
		c-3.9,4.1-8.6,7.7-12.8,10.8c-5.2,3.9-9.7,7.101-11.7,9.7c-0.8,1-1.1,2-0.9,2.8c0.3,1.3,1.9,2.3,5.1,3c2.8,0.8,6,0.5,9.5-0.5
		c7.7-2.2,16.6-8,24.9-14.2c7.6-5.8,13.5-12.399,18.7-18.399C223.2,313.3,218.8,312.2,214.8,310.8z"/>
	<path fill="#FFFFFF" stroke="#000000" stroke-width="0.5" d="M236.9,328c2.6-4,4.3-8,5.6-11.8c-5.1-0.4-10.1-1-14.7-1.9
		c-5.3,6.2-11.2,12.8-18.9,18.5l0,0l0,0c-4.1,9.3-12.2,15.8-11.8,19.601c0.2,1.5,1.8,2.6,5.6,3.3c3.5,0.6,6.8-0.101,10.1-1.7
		C221.7,349.6,229.9,338.5,236.9,328L236.9,328L236.9,328z"/>
	<path fill="#FFFFFF" stroke="#000000" stroke-width="0.5" d="M263.8,334.2c-0.1-6.101-2.7-12.3-5.3-17.9
		c-2.1,0.101-4.3,0.2-6.5,0.2c-3.2,0-6.4-0.1-9.5-0.3c-1.3,3.8-2.9,7.8-5.6,11.8l0,0l0,0c0,0.1,0,0.2-0.1,0.2
		c0.1-0.101,0.1-0.2,0.2-0.2c-3.3,13.1-7.9,25-3.2,29.8v0.101c1.8,1.8,5,2.6,10,2c4.4-0.4,8.2-2.2,11.2-4.7
		C260.8,350.3,263.9,342.4,263.8,334.2z"/>
	<path fill="#FFFFFF" stroke="#000000" stroke-width="0.5" d="M318.8,259.8c14.601-5.5,33.4-12.3,46.8-15.4c0.101,0,0.101,0,0.2,0
		c1.101-1.5,9.601-14.2-11.899-8.3C350.4,242.1,333,249.8,318.8,259.8z"/>
	<path fill="#FFFFFF" stroke="#000000" stroke-width="0.5" d="M306.4,248.6c10.199-6.3,22.8-14.2,32.6-17.7c0,0,1.6-9.8-12.2-3.9
		c0,0,0,0,0,0.1C325.3,232,314.2,238.7,306.4,248.6z"/>
	<path fill="#FFFFFF" stroke="#000000" stroke-width="0.5" d="M272.6,257.1c0,0,0.2-0.2,0.5-0.6c2.9-3.2,18.1-19.2,27.5-26.9
		c1.2-1,2.3-1.9,3.3-2.6c0,0,0.8-16.5-14.6-0.7c0,0.3,0,0.7-0.1,1.2c-1,5.8-10,19.4-14.4,26.1C273.8,255.3,273,256.4,272.6,257.1z"
		/>
	<path fill="#FFFFFF" stroke="#000000" stroke-width="0.5" d="M250.9,243.4c1.2-6.9,4.7-13.5,9.7-19.8v-0.1
		c-7.6-17.4-17.8,0.8-17.7,0.9l-0.2,0.1c2.2,3.8,4.1,9.1,8.9,15.7l0,0c0,0.1-0.1,0.2-0.1,0.2c-0.6,1.6-0.9,3.2-1,4.9
		c0,0.5,0,1,0,1.6C250.5,245.8,250.6,244.6,250.9,243.4z"/>
	<path fill="#FFFFFF" stroke="#000000" stroke-width="0.5" d="M201.7,222c-9.3,1.3-4.8,7.3-2.5,11.8c10.7,6.3,27.9,18.1,40.4,29.9
		c1.3-0.1,2.6-0.2,3.9-0.3c-6.4-7.4-15.2-16.3-18.4-24.8C214.4,226.5,213.3,220.4,201.7,222z"/>
	<path fill="#FFFFFF" stroke="#000000" stroke-width="0.5" d="M177.6,251.4c8.5,6.5,24.9,12.1,38.4,17.2c2.6-1,5.3-1.8,8.2-2.5
		c0,0,0,0,0.1,0h0.1c-11.7-6.6-26.1-14.3-32.7-21.4c-0.1,0-0.1-0.1-0.2-0.1c-12-6.3-18.2-11.6-25.9-11.5
		c-10.5,0.1,2.3,10.9,11.8,18.2c0,0,0,0,0.1,0.1H177.6z"/>
	<path fill="#FFFFFF" stroke="#000000" stroke-width="0.5" d="M169.7,259.5c-0.1-0.1-0.2-0.1-0.3-0.2c-5.3-2.4-10.6-4.9-14.9-7.2
		c-4.2-2.2-7.4-4.3-9-5.8c0,0,0,0-0.1-0.1c0,0-16.7-3.3-10.7,8l0.1,0.5v0.1C142.5,254.2,151.7,256.6,169.7,259.5z"/>
	<path fill="#FFFFFF" stroke="#000000" stroke-width="0.5" d="M201.1,276c-18.2-3.5-40-7.3-53.2-11.7c-14.1-0.7-19.7-2.2-24.1-0.5
		c-6.4,2.4,10.6,7.5,27.5,10.9c12.7,2.6,29.5,4.3,44.7,5.8C197.3,278.9,199.1,277.4,201.1,276z"/>
	<path fill="#FFFFFF" stroke="#000000" stroke-width="0.5" d="M159.9,285.1c1.5-0.1,3-0.3,4.5-0.399c-0.5,0-1.1-0.101-1.6-0.101
		c-13.9-1.2-28-2.5-37.9-3.899c-3.5-0.5-6.4-1-8.6-1.5c-2.9,0.9-14.6,5.2-3.4,11.1l0.3,0.5v0.101C120,287.5,137.7,287.1,159.9,285.1
		z"/>
	<path fill="#FFFFFF" stroke="#000000" stroke-width="0.5" d="M118.4,297.2c-2.7,1.2-16.3,7.8,3.7,7.8l0.4,1.1
		c0.8-0.399,1.8-0.699,2.8-1c9-2.899,25.4-5,43.5-9.199C151.7,297.1,130.1,298.3,118.4,297.2z"/>
	<path fill="#FFFFFF" stroke="#000000" stroke-width="0.5" d="M196.5,300.1c-1.6,0.4-3.3,0.801-4.9,1.2c-10,2.5-20.9,5.101-32,6.9
		c-0.1,0.1-0.3,0.1-0.4,0.2c-17.4,6.5-30.4,7.899-29.8,12.6c0.6,4.4,23.7,0.5,41.9-4.1c11.4-2.9,22.7-7,33-10.9
		C201.2,304.3,198.5,302.3,196.5,300.1z"/>
	<path fill="#FFFFFF" stroke="#000000" stroke-width="0.5" d="M182.1,331.8c4.2-3.2,8.8-6.8,12.8-10.8
		c-13.4,5.8-29.7,13.2-40.2,15.5c-0.2,0.8-1.8,10.9,14.8,8c-0.2-0.9,0.1-1.9,1-2.9C172.4,338.9,177,335.7,182.1,331.8z"/>
	<path fill="#FFFFFF" stroke="#000000" stroke-width="0.5" d="M209,332.8c-8.3,6.2-17.2,12-24.9,14.2c0,0,3.9,8.5,13.1,5.4l0,0
		C196.8,348.6,204.9,342.1,209,332.8L209,332.8z"/>
	<path fill="#FFFFFF" stroke="#000000" stroke-width="0.5" d="M237,328c-0.1,0.1-0.1,0.2-0.2,0.2c-7,10.5-15.1,21.399-23.8,25.8
		c1,2.5,8.8,19.8,20.5,4.3l0.3-0.399V357.8C229.1,353,233.7,341.1,237,328z"/>
	<path fill="#FFFFFF" stroke="#000000" stroke-width="0.5" d="M263.8,334.2c0.1,8.2-3,16.1-8.8,21l0.4,0.5c0,0,13.4,15.399,20.7,0.7
		l0.4-0.4l0.1-0.1C273.3,351.4,272,343.9,263.8,334.2z"/>
	<path fill="#FFFFFF" stroke="#000000" stroke-width="0.5" d="M322.1,356.7c0.101,0,0.2,0,0.2,0c0.4-0.101,0.9-0.2,1.2-0.3
		c0.3-0.101,0.5-0.101,0.8-0.2l0,0c8.4-2.4,1.5-9.2-2.6-14.8c-8.101-10.801-24.3-20.801-37.6-29c-3.3,0.899-6.8,1.699-10.4,2.3
		c8.9,13.6,14.3,18,22.1,25.1c0.2,0.2,0.4,0.4,0.7,0.601c14.9,9.8,14,16.6,22.5,16.5C319.9,356.9,320.9,356.9,322.1,356.7z"/>
	<path fill="#FFFFFF" stroke="#000000" stroke-width="0.5" d="M336.7,337.2c10.5,5,17.399,8.8,23.6,8.7c10.3-0.2-5.1-10.9-16.8-19
		c-0.2-0.101-0.4-0.301-0.6-0.4c-11-7.5-29.4-13.9-44.3-19.8c-2.2,1.2-4.5,2.3-7.1,3.3C307.3,318.5,327.7,328.6,336.7,337.2
		L336.7,337.2z"/>
	<path fill="#FFFFFF" stroke="#000000" stroke-width="0.5" d="M393,324c4.1-0.8-6.1-5.4-19-9.8c-16.8-5.7-43.7-10.8-65-16
		c-1.3,1.8-3,3.399-5.1,5c13.6,4.1,29.8,8.399,42.6,13.7C371.5,321.7,382.1,326.1,393,324z"/>
	<path fill="#FFFFFF" stroke="#000000" stroke-width="0.5" d="M344.8,299.1c4.5,0.801,8.8,1.601,12.8,2.601h0.101
		c19.2,1.2,33.6,3.399,43.7,3.6c5.8,0.2,10.199-0.399,13.199-2.2c0.4-0.199,0.5-0.5,0.2-0.8c-0.5-0.5-2.1-1.1-4.7-1.8H410
		c-12-3-44.1-7-71-9.9c-9.1-0.899-18.5-1-27-1c0,0.101,0,0.301,0,0.4c0,1.5-0.3,3-0.9,4.5c0.301,0,0.601,0.1,0.801,0.1
		C322.4,295.9,334,297.3,344.8,299.1z"/>
	<path fill="#FFFFFF" stroke="#000000" stroke-width="0.5" d="M310.4,283.9c13.6-1.4,29.8-3.4,45.399-3.4c0.101,0,0.101,0,0.2,0l0,0
		c21.6-4.2,42.6-5.2,49-8.4c1.2-0.6,1.9-1.2,2-2c0.1-0.5-0.1-0.9-0.4-1.5l0,0c-0.5-0.8-1.699-1.3-3.6-1.6c-0.3,0-0.6-0.1-0.9-0.1
		c-8.8-1.1-28.5,1.6-47.199,4.3c-0.301,0-0.5,0.1-0.801,0.1c-1,0.2-2,0.3-3,0.5c-0.199,0.1-2.5,0.5-5.899,1.1
		c-9.2,1.8-26.9,5.3-36.2,8.7C309.5,282.4,310,283.2,310.4,283.9z"/>
	<path fill="#FFFFFF" stroke="#000000" stroke-width="0.5" d="M318.8,259.8c-0.2,0.1-0.3,0.1-0.5,0.2c-9.399,3.6-16.2,8.2-22.3,12
		c2.3,1.1,4.4,2.3,6.3,3.6c11.9-4.2,25.2-9.6,40.101-12.7h0.1c20.5-8.2,40.5-11.5,40.2-16.7c0-0.5-0.3-1.1-0.8-1.7
		c-1.9-2.3-8-1.8-16.2,0c-0.101,0-0.101,0-0.2,0C352.3,247.5,333.4,254.3,318.8,259.8z"/>
	<path fill="#FFFFFF" stroke="#000000" stroke-width="0.5" d="M375.8,160c9.9-9.6,18.7-21.6,27-32c-2.899-1-5.7-2.2-8.3-3.5
		c-11.8,12.5-26,27.7-46.2,38.5c-6,9-13,14.3-9.899,17.9c3.3,3.9,16.5-4.8,26.1-11.4c0-0.1,0.1-0.1,0.1-0.2
		C368.5,166.7,372.2,163.5,375.8,160z"/>
	<path fill="#FFFFFF" stroke="#000000" stroke-width="0.5" d="M413.5,131c-2.9,6.1-5.8,12.6-9.4,19c-0.1,0.1-0.1,0.2-0.199,0.4
		c-0.2,0.4-0.4,0.7-0.601,1.1c-0.3,0.5-0.6,1-0.899,1.5c0,0.1-0.101,0.1-0.101,0.2c-2,3.2-4.2,6.4-6.7,9.3c-0.3,0.4-0.699,0.8-1,1.1
		c-0.3,0.4-0.6,0.7-1,1.1c-0.699,0.7-1.399,1.4-2.1,2.1c-3.9,14.7-11,21.4-4.2,25.9c0.2,0.1,0.4,0.3,0.601,0.4
		c1.699,1,3.899,0.5,6.3-1.2c5.1-3.5,11.2-12,16.6-21.3c1.4-2.3,2.7-4.7,4-7.1c5.2-9.9,7.101-21.1,9.4-30.9
		C420.4,132.3,416.9,131.7,413.5,131z"/>
	<path fill="#FFFFFF" stroke="#000000" stroke-width="0.5" d="M453.4,165.1c0.1-1.4,0.199-2.7,0.3-4c0-0.6,0.1-1.3,0.1-2
		c0.101-9-3.2-18.6-5.6-27.3c-3.3,0.5-6.601,0.9-10.101,1c-1,15,0.2,32.6-4.3,45.2l0,0c2.7,6.6,5.601,14.2,9.601,15.6
		c0.6,0.2,1.1,0.3,1.6,0.3C451.4,194,452.5,178.2,453.4,165.1z"/>
	<path fill="#FFFFFF" stroke="#000000" stroke-width="0.5" d="M469.6,143.7L469.6,143.7c18.4,23,26.601,43.9,47.101,41.8l0,0
		c5.2-0.6,5.3-4.7,2.6-10.4c-3.6-7.7-12-18.3-19.3-27.2c-7.1-8.8-18.5-16.8-27.8-23.8c-3.601,1.9-7.601,3.5-11.8,4.8
		C464,133.5,467.7,138.4,469.6,143.7z"/>
	<path fill="#FFFFFF" stroke="#000000" stroke-width="0.5" d="M476.9,121.5c3.899,1.7,8,3.4,12.199,5.2
		c8.101,3.4,16.601,6.9,24,10.9c0.5,0.2,0.9,0.5,1.4,0.7c1.7,1.1,3.4,2.1,5.1,3.1c0.2,0.1,0.4,0.3,0.601,0.4
		c25,10,35.2,19.8,48,16.5c10.7-2.8-13.3-17.8-35.2-28.7c-13.7-6.8-31.6-11.5-46.3-16C484,116.4,480.6,119.1,476.9,121.5z"/>
	<path fill="#FFFFFF" stroke="#000000" stroke-width="0.5" d="M494.9,98.5c-0.7,3.1-1.9,6.1-3.601,8.9c11.2,1.4,24.2,2.8,36.4,6.2
		c39.899,3.6,72.8,13.3,82.399,2.2c6.301-7.3-33.199-12.2-62-15.8c-0.199,0-0.399,0-0.6,0C529.5,97.8,510.5,98.5,494.9,98.5z"/>
	<path fill="#FFFFFF" stroke="#000000" stroke-width="0.5" d="M501.4,86.1L501.4,86.1c3.5-0.5,7.1-0.9,10.6-1.1c0.1,0,0.1,0,0.1,0
		c0.9-0.1,1.801-0.2,2.7-0.2c0,0,0,0,0.101,0c8.899-0.7,17.899-1.1,27-1.7c1.8-0.4,3.5-0.7,5.3-0.7c17-1.4,34.6-1.8,49.8-8.2
		c5.9-2.5,9.4-7.2,6.5-11.1c-3.5-4.7-14.1-5.1-22.3-4.7c-16.4,0.7-32.8,2.5-48.601,5.7c-2.8,0.5-5.6,1.1-8.3,1.8
		c-11.8,3.2-22.7,7.8-32.6,11.7c-0.101,0-0.101,0.1-0.2,0.1c-0.2,0.1-0.4,0.2-0.6,0.2c1.8,2.9,3.199,6,3.899,9.1
		C497,86.7,499.2,86.4,501.4,86.1z"/>
	<path fill="#FFFFFF" stroke="#000000" stroke-width="0.5" d="M530.7,46c0.2-0.1,0.399-0.1,0.6-0.2c21.601-13.2,34.3-17.3,25.3-23.2
		C549.2,17.8,538,24,529.1,28c-8.8,9.8-26.399,26.5-46.399,40.7c0.8,0.7,1.6,1.4,2.399,2.1C498.4,62.8,513.7,52.7,530.7,46z"/>
	<path fill="#FFFFFF" stroke="#000000" stroke-width="0.5" d="M460.2,57c3.399,1.1,6.7,2.3,9.7,3.8c9.1-10.6,19-23.1,31.399-30.9
		c8.4-10.9,17.4-17.6,13.4-22.2c-5.3-6.1-23.4,7.9-35,17.7l-0.101,0.1C469.6,33.9,464.9,46.3,460.2,57z"/>
	<path fill="#FFFFFF" stroke="#000000" stroke-width="0.5" d="M436.2,53.1c4.6,0.1,9,0.6,13.2,1.4c1.8-9.6,3.5-20.4,8.5-29
		c-2.5-14.1-0.801-21.1-9.101-25c-4.1-1.9-9,5.9-11.899,14.8c0,0,0,0,0,0.1l0,0C433.5,25.5,435.4,40.4,436.2,53.1z"/>
	<path fill="#FFFFFF" stroke="#000000" stroke-width="0.5" d="M415.2,23.3C404.2,9.7,403.1,2.2,391.9,1.1
		c-7.801-0.7-0.7,18.2,7.5,35.7c2.899,6.1,7.399,12.6,11.699,18.7c4.101-1,8.301-1.7,12.7-2.1C419.9,43.5,415.6,32.4,415.2,23.3z"/>
	<path fill="#FFFFFF" stroke="#000000" stroke-width="0.5" d="M385.6,66.9c-1-0.4-2-0.8-3-1.2c-13-5.5-27.199-11.6-38.199-17.9
		c-0.2-0.1-0.5-0.3-0.7-0.4c-22.601-6.4-32-13.3-42.2-10.2c-9.4,2.9,10.2,14.3,29.2,22.4c13.8,5.9,31.3,10.8,46.7,15.1
		C379.7,71.9,382.4,69.3,385.6,66.9z M371.8,72.9c0.101,0,0.101-0.1,0.2-0.2C372,72.8,371.9,72.9,371.8,72.9z"/>
	<path fill="#FFFFFF" stroke="#000000" stroke-width="0.5" d="M333.3,76c-19.8-4.7-44.5-10.1-54-15.1c-0.6-0.3-1.2-0.7-1.7-1
		c-2.7,1.3-13.7,7.2-1.8,13.6C288,72.8,308.9,76.1,333.3,76z"/>
	<path fill="#FFFFFF" stroke="#000000" stroke-width="0.5" d="M370.5,93c0-0.5,0-1,0.1-1.5C352.8,92,332.4,92.7,313.7,91.3
		c-0.2,0-0.3,0-0.5,0c-31.5,4.2-54.6,0.5-53.4,9.6c1.2,8.8,41.1,6.8,77.9,4.1c12.2-1,23.7-2.7,33.899-4.4
		C370.9,98.1,370.5,95.6,370.5,93z"/>
	<path fill="#FFFFFF" stroke="#000000" stroke-width="0.5" d="M302.6,140.9c3.8-1.7,8.3-3.5,13.2-5.7c6.3-2.8,13.3-6.2,20.5-10.6
		c-19.3,5.1-39.5,7.8-53.1,6.8c-0.9,1.8-5.7,12.3,7.7,15.6l0.1-0.1C293.5,145,297.5,143.1,302.6,140.9z"/>
	<path fill="#FFFFFF" stroke="#000000" stroke-width="0.5" d="M376.3,109.8c-2.1-2.9-3.7-6-4.7-9.2c-10.3,1.7-21.699,3.5-33.899,4.4
		c-42.7,7.9-81,12.9-67.7,22.6c2.8,2,7.4,3.2,13.3,3.7c13.6,1.1,33.8-1.7,53.101-6.7c0.1-0.1,0.199-0.1,0.3-0.2
		C351.4,120.5,364.7,114.9,376.3,109.8z"/>
	<path fill="#FFFFFF" stroke="#000000" stroke-width="0.5" d="M370.6,91.5c0.2-3,0.801-5.9,2-8.6C360.4,81.1,346.4,79,333.4,76
		c-24.4,0.1-45.3-3.2-57.5-2.5c-6.7,0.4-10.7,1.9-11.3,6c-1.1,6.7,23.1,9.9,48.7,11.8c0.2,0,0.3,0,0.5,0
		C332.4,92.7,352.8,92,370.6,91.5z"/>
	<path fill="#FFFFFF" stroke="#000000" stroke-width="0.5" d="M333.3,75.9c13.101,3.1,27,5.2,39.3,6.9c1.2-2.8,2.801-5.5,4.9-8.1
		c-15.5-4.4-33-9.2-46.7-15.1c-28.8-4.9-45-10.9-54.1-4.6c-2.2,1.6-1.6,3.2,1,4.9c0.5,0.3,1.1,0.7,1.7,1
		C288.8,65.9,313.5,71.3,333.3,75.9z"/>
	<path fill="#FFFFFF" stroke="#000000" stroke-width="0.5" d="M382.6,65.7c1,0.4,2,0.8,3,1.2c3.301-2.4,7-4.6,11.101-6.5
		c-0.7-0.4-1.4-0.9-2.101-1.3c-2.6-1.7-5.1-3.4-7.6-5.1l0,0l0,0c-2.9-2-6.3-4.4-10.4-8l0,0l0,0c-27.3-12.7-42.1-25.7-57.399-21.4
		c-8,2.2,8.7,13.7,24.5,22.8c0.2,0.1,0.5,0.3,0.7,0.4C355.4,54.1,369.6,60.2,382.6,65.7z"/>
	<path fill="#FFFFFF" stroke="#000000" stroke-width="0.5" d="M376.6,46c3.2,2.7,6.7,5.4,10.4,8l0,0l0,0c2.7,1.8,5.2,3.3,7.7,5
		c0.7,0.5,1.399,0.9,2.1,1.4c4.4-2,9.2-3.6,14.3-4.9c-4.3-6.1-8.8-12.6-11.699-18.7C379,20.9,368.4,7.4,353,10
		C340,12.3,360.6,32,376.6,46L376.6,46L376.6,46z"/>
	<path fill="#FFFFFF" stroke="#000000" stroke-width="0.5" d="M433,53c1.1,0,2.1,0,3.2,0.1c-0.8-12.7-2.7-27.6,0.7-37.8l0,0
		c-5.2-8.8-4.601-12.9-10.5-14.6c-8.4-2.4-11.7,10.6-11.2,22.6c0.399,9,4.7,20.2,8.6,30.1C426.8,53.2,429.9,53,433,53z"/>
	<path fill="#FFFFFF" stroke="#000000" stroke-width="0.5" d="M460.2,57c4.7-10.7,9.399-23.1,19.399-31.6l0.101-0.1
		c3.6-13.4,9.3-19.1,2.3-23c-6-3.3-16.5,10.2-24,23.1h-0.1c-5,8.6-6.7,19.4-8.5,29C453.2,55.1,456.8,55.9,460.2,57z"/>
	<path fill="#FFFFFF" stroke="#000000" stroke-width="0.5" d="M529.1,28c4.4-5,10-11.5,8.301-13.5c-4.801-5.7-24.101,7.7-36,15.4
		C489,37.8,479.1,50.2,470.1,60.8c4.7,2.2,9,4.9,12.5,7.9C502.3,54.6,519.5,38.3,529.1,28z"/>
	<path fill="#FFFFFF" stroke="#000000" stroke-width="0.5" d="M485,70.9c2.3,2.2,4.2,4.5,5.8,7c0.2-0.1,0.4-0.1,0.601-0.2
		c0.1-0.1,0.1-0.1,0.199-0.1c10.5-4.4,20.9-8.7,32.601-11.7c5.1-1.4,10.399-2.5,15.8-3.3c26.6-14.4,46.7-17.3,38.8-26.3
		c-6.8-7.9-28,1.9-47.5,9.6c-0.2,0.1-0.399,0.1-0.6,0.2C513.7,52.7,498.4,62.8,485,70.9z"/>
	<path fill="#FFFFFF" stroke="#000000" stroke-width="0.5" d="M512.1,85L512.1,85c-3.6,0.3-7.1,0.7-10.6,1.1h-0.1
		c-2.2,0.4-4.4,0.7-6.601,1.1c0.4,1.9,0.7,3.9,0.7,5.8s-0.2,3.7-0.6,5.5c15.6,0,34.6-0.7,52.6,1.5c0.2,0,0.4,0,0.6,0
		c35-1.4,60.101,4.1,66.5-5.4c6.5-9.8-42.399-11-99.699-9.8c0,0,0,0-0.101,0C513.9,84.8,513,84.9,512.1,85z"/>
	<path fill="#FFFFFF" stroke="#000000" stroke-width="0.5" d="M533.1,129.5c31.101,8.1,48.4,19.5,59.801,12.8
		c10.8-6.4-34.101-19.8-65.2-28.6c-12.2-3.5-25.2-4.8-36.4-6.2c-1.3,2.1-2.8,4.1-4.6,6C501.4,118,519.4,122.7,533.1,129.5z"/>
	<path fill="#FFFFFF" stroke="#000000" stroke-width="0.5" d="M514.5,138.2c-0.5-0.2-0.9-0.5-1.4-0.7c-7.5-4-15.899-7.5-24-10.9
		c-4.199-1.7-8.399-3.4-12.3-5.1c-1.399,0.9-2.899,1.8-4.5,2.6c9.3,7,20.601,15,27.8,23.8c23.5,12.3,36.5,26.8,47.801,24
		c0.899-0.2,1.8-0.5,2.699-1c8-4.2-11.6-17.2-30.399-29.2c-0.2-0.1-0.4-0.3-0.601-0.4C517.9,140.3,516.2,139.3,514.5,138.2z"/>
	<path fill="#FFFFFF" stroke="#000000" stroke-width="0.5" d="M469.6,143.7c-1.899-5.3-5.6-10.2-9.199-14.8
		c-3.9,1.2-8,2.2-12.301,2.9c2.4,8.7,5.7,18.3,5.601,27.3c0,0.7,0,1.3-0.101,2c0,0.1,0,0.1,0,0.2c7.5,13.8,8.9,24.6,14.801,30.3l0,0
		c2.199,2.2,5.1,3.6,9.3,4.2c2,0.2,3.1-1,3.5-3.4c1.3-6.9-3-23-8.2-38.6C472,150.4,470.8,147,469.6,143.7L469.6,143.7z"/>
	<path fill="#FFFFFF" stroke="#000000" stroke-width="0.5" d="M438.1,132.9C436.4,133,434.7,133,433,133c-3,0-6-0.1-8.9-0.4
		c-2.199,9.9-4.199,21.1-9.399,30.9c0.7,10.3-0.7,17.6,0.1,22.9c0.5,3.7,2.101,6.5,6.2,8.6c3.7,2,9.2-6.7,12.8-16.9l0,0
		C438.3,165.5,437.1,147.9,438.1,132.9z"/>
	<path fill="#FFFFFF" stroke="#000000" stroke-width="0.5" d="M394.5,163.6c0.3-0.4,0.7-0.7,1-1.1c2.5-2.9,4.7-6.1,6.7-9.3
		c0-0.1,0.1-0.1,0.1-0.2c0.3-0.5,0.601-1,0.9-1.5c0.2-0.4,0.399-0.7,0.6-1.1c0.101-0.1,0.101-0.2,0.2-0.4c3.6-6.3,6.5-12.9,9.4-19
		c-3.7-0.8-7.301-1.8-10.7-3c-8.3,10.4-17.101,22.4-27,32c-3.601,3.5-7.3,6.6-11.2,9.3c0,0.1-0.1,0.1-0.1,0.2
		c-5.9,9-11.101,15.2-7.9,18.8c5.4,6.2,22.5-9.8,34.8-21.5c0.7-0.7,1.4-1.4,2.101-2.1C393.9,164.3,394.2,163.9,394.5,163.6z"/>
	<path fill="#FFFFFF" stroke="#000000" stroke-width="0.5" d="M338.4,147.3c-16,16-33.5,18.5-23.9,24.6c9.5,6,22.5-2.9,33.8-9
		c20.101-10.8,34.3-26,46.101-38.5c-3.2-1.6-6.2-3.4-8.801-5.4C371.9,128.2,356.4,139.2,338.4,147.3z"/>
	<path fill="#FFFFFF" stroke="#000000" stroke-width="0.5" d="M376.3,109.8c-11.6,5.1-24.899,10.7-39.6,14.6
		c-0.101,0.1-0.2,0.1-0.3,0.2l0,0c-7.301,4.3-14.2,7.7-20.5,10.6c-4.9,2.2-9.4,4.1-13.2,5.7c-5.1,2.2-9.1,4.1-11.5,6l-0.1,0.1
		c-3,2.5-3.5,5.1-0.3,8.4c7,7.6,28,0.8,47.8-8.2c17.801-8.1,33.4-19.1,47-28.2C381.8,116.2,378.7,113.1,376.3,109.8z"/>
	<ellipse fill="#FFFFFF" stroke="#000000" stroke-width="0.5" cx="433" cy="93" rx="62.5" ry="40"/>
	<ellipse fill="#FFFFFF" stroke="#000000" stroke-width="0.5" cx="252" cy="290" rx="60" ry="26.5"/>
</g>
<g>
	<path fill="none" stroke="#FFFF00" stroke-width="0.25" d="M392.1,465c0,0-64.699-19.3-122.7,41.3"/>
	<path fill="none" stroke="#FFFF00" stroke-width="0.25" d="M629.5,459.7c0,0-80,12.7-94.7,22.7"/>
	<path fill="none" stroke="#FFFF00" stroke-width="0.25" d="M430.1,321.7c0,0,27.301,56.7,26.7,62.7"/>
</g>
</svg>
