<?xml version="1.0" encoding="utf-8"?>
<!-- Generator: Adobe Illustrator 15.0.0, SVG Export Plug-In . SVG Version: 6.00 Build 0)  -->
<!DOCTYPE svg PUBLIC "-//W3C//DTD SVG 1.1//EN" "http://www.w3.org/Graphics/SVG/1.1/DTD/svg11.dtd">
<svg version="1.1" id="layer_x5F_www.ABC-color.com"
	 xmlns="http://www.w3.org/2000/svg" xmlns:xlink="http://www.w3.org/1999/xlink" x="0px" y="0px" width="822px" height="567px"
	 viewBox="0 0 822 567" enable-background="new 0 0 822 567" xml:space="preserve">
<path fill="none" stroke="#000000" d="M256.9,230.7c3.8,73.399,21.4,147.2,35.5,219.398c-0.7,5.9,0.5,13-1,18
	c-0.8,2.7-4.3,5.4-5.2,8.9c-5.3,20.5,0.2,66,1.3,78.3H282c-1.1-9.398-12.6-80.3-13-88.1c2.7-4.8,7.7-9.4,11.2-15.7
	c6.2-11-0.1-27.1-2.8-39.2c-5.5-25.199-13.1-57.5-18.4-85.6c-4.3-22.9-5.5-47.1-9-67.6c-2.2-12.8-3.3-25.4-4.8-34.5
	c0.7-3.3,0.4-7.2,3.5-9.3C253.6,219.3,252.7,226.4,256.9,230.7z"/>
<path fill="none" stroke="#000000" d="M226.1,407.6c9.3,1,10.1,14.5,18.1,17.7c18.4,32.602,24.3,94.3,30.9,129.102v0.898h-4.4V555
	C216,377,124.8,375.7,82,294h-2.2c1.5-2,10.8-1.4,10.8-1.4c13,6.5,23.6,23.201,34.6,33.5c0.9,0.801-2.9-5.1,7.2-12
	c6-4.1,0.9,26.9,5.4,29.4c4.8,2.6,2.4-11.8,7.1-10.2c2.9,1,7.3,14.3,11.4,17.8c0.6,0.5,0.1-14.6,4.8,0.801
	c1.5,4.899,8.3,6.801,9.4,7.199c0.9,0.301,0.4-10,3.7-0.398c2.1,6.3,7.7,17.898,17.2,18.1c2.6-1.1,0.5-4.3,2.8-5
	c16.8-5.1,13.8,46.9,30.1,42.9C226.3,413,224.3,409.7,226.1,407.6z"/>
<path fill="none" stroke="#000000" d="M282,555.4h5.5c0,0.5,0.1,1,0.1,1.5c-7.8,0-22-2.102-23.8-1.102c0-0.1-0.1-0.2-0.1-0.3h7h4.4
	h6.9V555.4z"/>
<path fill="none" stroke="#000000" d="M408.3,245.6c4.5-1,12-3.2,18.3-1.1C331.7,297.4,307.2,412.2,296.1,500.1
	c-5.8,51.5,4.9,51.802-4.3,55.302h-4.3c-1.1-12.302-6.5-57.802-1.3-78.302c0.9-3.5,4.4-6.198,5.2-8.898c1.5-5,0.3-12.102,1-18
	c13-24.102-4.1-55.4,1.9-82.301c1.3-5.899,2.2-9.399,5.4-13.199c1.8-2.102,11.4-4.7,12.5-10c1.1-5.5-8.3-18.301-0.6-22.7
	c4-2.3,14.1,4.8,15.1-4.601c0.898-7.801,3.898-32,10.3-35c4-1.9,8.5,3.701,10.3-1.4c2.7-7.4-1.1-12.3,5-16.6
	c4.8-3.4,6.3,0.7,14.5-0.9C376.6,261.5,393.9,248.9,408.3,245.6z"/>
<path fill="none" stroke="#000000" d="M270.7,555.1v0.302h-7c-5.4-14.2-15.2-53.5-26.8-66.5c-9.3-10.5-20.5-15.2-33.8-24.9
	c1.9-2.8,6.6-1.7,8.6-4.6c1.5-16.7-37.1-9.302-41.4-20.7c-0.7-2,7.2-10.3,0.9-12.3c-6.1-1.9-40.7-1.7-35.9-13.2
	c2.5-6,13.4,0.6,15.3-6.5c4-15.602-37.9-9.4-41.8-18.301c-0.3-0.699,7.6-11.801,6.9-12.5c-6.3-7.199-28.3,2.801-28.7-9.5
	c-0.1-3.5,11.9-11.101,12.9-16.899c3.1-17-13.9-28.899-19.4-42.601c-1.9-4.601-3.7-8.199-0.6-12.899h2.2
	C124.8,375.9,216,377.1,270.7,555.1z"/>
<path fill="none" stroke="#000000" d="M134.5,241.1c23,12,47.9,58.2,66,80.2c3.8,4.601,11.2,15.4,15.9,23.5
	c12.5,21.4,28.7,45,34,66.102c4.4,17.398,13,34,16.9,51.398c0.5,2-0.1,3.3,1.6,5c0.4,7.7,12,78.7,13,88.102H275v-0.9
	c-6.6-34.9-12.5-96.6-30.9-129.1C224,356.6,171.8,301.7,131.5,244C132.5,243,133.6,242.2,134.5,241.1z"/>
<path fill="none" stroke="#000000" d="M426.6,244.5c0.5,0.1,0.9,0.3,1.4,0.5c-14.5,17.8-43.9,31.1-26,54c6.9,8.9-7.4,9.9-5.9,13.9
	c1.4,3.699,3.7,7.1,2.602,10.898c-3.3,11.4-30,9.801-23.7,22c2.9,5.602,19.8-9.398,17.1-0.199c-1,3.399-22.5,15.5-22.8,15.5
	c-0.398,0.801,32.8,7.301-6.8,15.199c-3.8,0.801,16.3,12.7,13.6,19.7c-3.1,8-25.3,4-24.6,15.9c0,0.5,2.1,3.6,1.9,4.198
	c-1.9,4.7-10.4,5.2-12.5,9.602c-1.302,2.8,1,9,0.5,12.398c-1.302,8.2-8.602,16-15.801,22.302c-12.8,11.2-19.8,18.501-25.9,35.2
	c-0.3,0.7-0.9,3.302-3.7,4.5C307.3,412.2,331.7,297.3,426.6,244.5z"/>
<path fill="none" stroke="#000000" d="M134.5,241.1c-0.9,1-2,1.9-3,2.8c-9.8-3.8-21.5-6.9-28.2-15.6c2-2.1,5-1.3,7.4-2.3
	c0.2-0.5,0.1-1,0.2-1.3c-10.5-12.8,8.7-3.1,13.8-9.1C127.6,224.2,130.8,232.9,134.5,241.1z"/>
<path fill="none" stroke="#000000" d="M124.7,215.8c-5.1,6-24.3-3.7-13.8,9.1c0,0.4,0,0.8-0.2,1.3c-2.4,0.9-5.4,0.2-7.4,2.3
	C97,226.8,87.1,220,78,217.4c-40.8-11.8-52.8-38.5-57.5-71.7c0-2,0-4,0-6c0.2-2.2,1.5-3.8,3.6-4.6c0.4-6.5,7.7-11.3,13.8-10.2
	C84.4,122.1,122.3,171.9,124.7,215.8z"/>
<path fill="none" stroke="#000000" d="M292.5,58.6c5.8,0.7,11.1,1.7,15.9,2.9c4.9,1.2,9.1,2.7,12.6,4.3c4.8,2.3,8.1,4.9,9.5,7.7
	c0.5,1,0.8,2,0.8,3.1c0,1.6-0.6,3.2-1.8,4.6c-1.9,2.4-5.3,4.7-9.8,6.6c-4.7,2-10.5,3.8-17.3,5.1c-6.1,1.2-13,2-20.3,2.5
	c-3.5,0.2-7,0.3-10.7,0.3c-3.9,0-7.7-0.1-11.3-0.3c-6.7-0.4-13.1-1.2-18.8-2.3c-6.5-1.2-12.3-2.8-17-4.7c-4.7-1.9-8.3-4.1-10.4-6.5
	c-1.5-1.7-2.3-3.4-2.3-5.3c0-3.7,3.3-7.2,9-10.1c3.5-1.8,7.8-3.4,12.9-4.7c5.4-1.4,11.7-2.6,18.5-3.3c5.5-0.6,11.4-1,17.6-1
	c0.6,0,1.3,0,1.9,0C278.8,57.4,285.9,57.8,292.5,58.6z"/>
<path fill="none" stroke="#000000" d="M225.7,18c7.9,8.6,16.8,26.4,26.2,40.2v0.1c-6.8,0.8-13,1.9-18.5,3.3
	c-22-31.7-47.8-25.9-71-34.4C180.6,15.9,204.5,14.4,225.7,18z"/>
<path fill="none" stroke="#000000" d="M257.3,10.2c2,12,11.5,32.1,12.2,47.2c-6.1,0.1-12,0.4-17.6,1v-0.1
	c-9.4-13.8-18.3-31.6-26.2-40.2C231.1,12.2,239,5.2,257.3,10.2z"/>
<path fill="none" stroke="#000000" d="M304.5,18.2c-4.5,8.3-15.2,21-12,40.4c-6.6-0.8-13.7-1.2-21.1-1.2c-0.6,0-1.3,0-1.9,0
	c-0.7-15.1-10.2-35.1-12.2-47.2C272.9,11.1,293,5.1,304.5,18.2z"/>
<path fill="none" stroke="#000000" d="M304.5,18.2c11,1.2,25.5-0.4,33.1,8.3c-13.199,5.3-24.8,19.4-28.8,33l-0.5,2
	c-4.8-1.2-10.1-2.2-15.9-2.9C289.3,39.2,300,26.4,304.5,18.2z"/>
<path fill="none" stroke="#000000" d="M337.6,26.5c19.802,2.6,56.5,3.2,58.2,29c-21.2-10.7-47.3-9.1-74.899,10.3
	c-3.5-1.6-7.7-3.1-12.601-4.3l0.5-2C312.8,45.9,324.4,31.8,337.6,26.5z"/>
<path fill="none" stroke="#000000" d="M395.8,55.5c20.9,21.9,46.8,45.2,47.102,77.9C431.1,126.5,404.6,102,387.1,91.7
	C377.4,86,372.6,79,362.3,77.5c-6.8-1-23.5-3.4-31.8-4.1l0,0c-1.4-2.8-4.7-5.4-9.5-7.7C348.5,46.4,374.5,44.8,395.8,55.5z"/>
<path fill="none" stroke="#000000" d="M442.9,133.4c5.3,9.2,15,16.9,15.398,28.4c-0.898,12.6-22.2,22.8-34.898,18.1
	C400.8,146.3,358.6,108.3,329.6,81.2l0,0c1.2-1.5,1.802-3,1.802-4.6c0-1-0.302-2.1-0.802-3.1l0,0c8.302,0.7,25,3.1,31.802,4.1
	c10.398,1.5,15.1,8.6,24.8,14.2C404.5,102,431.1,126.5,442.9,133.4z"/>
<path fill="none" stroke="#000000" d="M384.8,201c-12-39.3-40.398-81.3-65.1-113l-0.101-0.1c4.5-2,7.9-4.2,9.801-6.6l0,0
	c29.1,27.1,71.198,65.1,93.8,98.7c-0.2,13.1,4.2,28.8-8.2,35.1c-9.5,4.8-22.3-1.9-29.9-14.5C385.1,200.6,385,200.8,384.8,201z"/>
<path fill="none" stroke="#000000" d="M319.7,87.9c24.7,31.8,53.1,73.7,65.1,113c-0.8,1-2.898,2.6-3.1,3.2
	c-3,21-29.4,37.5-41.4,12.5c-9.1-41-18.1-86.3-39-123.2l1.1-0.6c6.7-1.3,12.6-3,17.3-5.1V87.9z"/>
<path fill="none" stroke="#000000" d="M301.2,93.5c20.899,36.9,29.898,82.2,39,123.2c-0.102,0.4-1.5,0.6-1.602,1.3
	c-8.398,36.1-38.8,14.7-47.3-13.1c-9.3-38.5-6-78.4-9.3-109.5v-0.1c7.3-0.4,14.2-1.3,20.3-2.5L301.2,93.5z"/>
<path fill="none" stroke="#000000" d="M291.4,204.9c-4.1,13.6-17.8,46.2-34.4,25.8c-4.2-4.4-3.4-11.4-8.1-15.3
	c-2-32.7,3-108.7,11.2-120v-0.1c3.7,0.2,7.4,0.3,11.3,0.3c3.6,0,7.2-0.1,10.7-0.3v0.1C285.4,126.5,282,166.4,291.4,204.9z"/>
<path fill="none" stroke="#000000" d="M260,95.4c-8.2,11.3-13.1,87.4-11.2,120c-3.1,2.2-2.8,6-3.5,9.3c-22.5,8.4-35.2-4.3-40.1-12.4
	c5.6-28,0-60.1,35.9-119.2v-0.2C247,94.1,253.3,94.9,260,95.4L260,95.4z"/>
<path fill="none" stroke="#000000" d="M241.2,93v0.2c-35.8,59.1-30.2,91.2-35.9,119.2c-25.8-2.2-32.9-17.4-35.9-26
	c-0.5-1.5-0.9-2.8-1.3-3.8c10.7-63.3,52.3-84.2,56-94.1l0.1-0.2C228.9,90.2,234.7,91.8,241.2,93z"/>
<path fill="none" stroke="#000000" d="M134.2,158.1c0.8-2.6,2.1-5.1,4-7.4l75.7-68.8c2.1,2.4,5.7,4.6,10.4,6.5l-0.1,0.2
	c-3.7,10-45.3,30.8-56,94.1c0.4,1,0.8,2.3,1.3,3.8l-0.6,0.2C151.3,200.4,128.7,176.8,134.2,158.1z"/>
<path fill="none" stroke="#000000" d="M211.5,76.5c0,1.8,0.8,3.6,2.3,5.3l-75.7,68.8c-1.9,2.3-3.2,4.8-4,7.4
	c-15.5-2.9-23.6-25.4-22.8-31.9c0.9-8.1-1-5.7,5.9-12.2C128.4,99.6,191.6,83.1,211.5,76.5z"/>
<path fill="none" stroke="#000000" d="M220.5,66.4c-5.7,2.9-9,6.4-9,10.1c-20,6.6-83.1,23-94.2,37.5c-10.2,3.5-24.7,7.9-27-2.3
	c-2.2-9.7,5.9-28.5,15.9-39.6c3.4-3.7,7.1-6.3,11-8.2c4.3-2.1,8.6-3.4,12.8-4.5C160.4,52.1,190.7,63.2,220.5,66.4z"/>
<path fill="none" stroke="#000000" d="M162.4,27.3c23.2,8.5,49,2.7,71,34.4c-5.1,1.3-9.4,2.9-12.9,4.7c-29.8-3.2-60.1-14.4-90.4-7
	c-4.1,1.1-8.5,2.4-12.8,4.5l0,0C128.4,44.5,145.1,27.1,162.4,27.3z"/>
<path fill="none" stroke="#000000" d="M77.9,191.4c0,0-16.7-28.6-57.4-51.8"/>
<path fill="none" stroke="#000000" d="M62.9,154.4c0,0-35.2-24-38.8-19.4"/>
<path fill="none" stroke="#000000" d="M313.9,405.4c0,0,13-11,16-11"/>
<path fill="none" stroke="#000000" d="M326.9,366.4c0,0,14-9,15-6"/>
<path fill="none" stroke="#000000" d="M347.9,324.4c0,0,10-9,13-8"/>
<path fill="none" stroke="#000000" d="M336.9,315.4c0,0,7,16,3,20"/>
<path fill="none" stroke="#000000" d="M311.9,373.4c0,0,7,11,6,16"/>
<path fill="none" stroke="#000000" d="M196.9,412.4c0,0-2-7,1-18"/>
<path fill="none" stroke="#000000" d="M212.9,434.4c0,0-22-5-23,0"/>
<path fill="none" stroke="#000000" d="M191.9,409.4c0,0-22,4-22,1"/>
<path fill="none" stroke="#000000" d="M233.9,465.4c0,0,0-24,0-28"/>
<line fill="none" stroke="#000000" x1="169.9" y1="386.4" x2="169.9" y2="375.4"/>
<path fill="none" stroke="#000000" d="M157.9,377.4c0,0-21-6-22,0"/>
<line fill="none" stroke="#000000" x1="133.9" y1="356.4" x2="119.9" y2="356.4"/>
<ellipse id="www.ABC-color.com" stroke="#000000" cx="241.4" cy="66.4" rx="2.5" ry="1"/>
<ellipse stroke="#000000" cx="287.4" cy="63.4" rx="3.5" ry="1"/>
<ellipse stroke="#000000" cx="305.9" cy="71.4" rx="2" ry="1"/>
<ellipse stroke="#000000" cx="283.9" cy="84.4" rx="3" ry="1"/>
<ellipse stroke="#000000" cx="265.4" cy="80.9" rx="3.5" ry="1.5"/>
<ellipse stroke="#000000" cx="274.9" cy="68.4" rx="3" ry="1"/>
<ellipse stroke="#000000" cx="251.4" cy="67.9" rx="3.5" ry="1.5"/>
<ellipse stroke="#000000" cx="225.4" cy="75.4" rx="3.5" ry="1"/>
<ellipse stroke="#000000" cx="313.4" cy="77.4" rx="3.5" ry="1"/>
<ellipse stroke="#000000" cx="242.9" cy="79.9" rx="4" ry="0.5"/>
<ellipse stroke="#000000" cx="301.9" cy="84.4" rx="3" ry="1"/>
<ellipse stroke="#000000" cx="288.4" cy="74.4" rx="3.5" ry="1"/>
<ellipse stroke="#000000" cx="254.4" cy="86.9" rx="2.5" ry="1.5"/>
</svg>
