<?xml version="1.0" encoding="utf-8"?>
<!-- Generator: Adobe Illustrator 15.0.0, SVG Export Plug-In . SVG Version: 6.00 Build 0)  -->
<!DOCTYPE svg PUBLIC "-//W3C//DTD SVG 1.1//EN" "http://www.w3.org/Graphics/SVG/1.1/DTD/svg11.dtd">
<svg version="1.1" id="layer_x5F_www.ABC-color.com"
	 xmlns="http://www.w3.org/2000/svg" xmlns:xlink="http://www.w3.org/1999/xlink" x="0px" y="0px" width="822px" height="567px"
	 viewBox="0 0 822 567" enable-background="new 0 0 822 567" xml:space="preserve">
<path fill="#FFFFFF" stroke="#000000" d="M368.9,159.8c-6.802,0.2-13.7,0.3-20.5,0.5c-6.802-28.7-14.802-61.6-15.5-88.1
	C332,38.7,337.6,2.3,351.9,9c10.1,4.7,9,16.3,17.898,40.7C363.9,79.5,367.6,123.3,368.9,159.8z"/>
<path fill="#FFFFFF" stroke="#000000" d="M390.1,8.3C404.4,19.1,401.4,38.8,405.7,78.1c-8.9,25.1-11.602,56.9-14.9,84.6
	c-5.2-1.4-10.5-2.5-16-3.1c-2,0.1-4,0.1-6,0.1c-1.3-36.5-4.898-80.3,1-110.1C374.8,24.8,383.1,3,390.1,8.3z"/>
<path fill="#FFFFFF" stroke="#000000" d="M446.9,13.7c11.898,10.8,2.3,26.9-4,64.1c-0.102,0.1-0.2,0.2-0.2,0.3
	c-17.7,24.5-25.602,60.8-33.9,91.4c-0.398-1.6-17.898-6.7-17.898-6.7c3.3-27.7,6-59.5,14.898-84.6h0.2
	C418.7,42.2,436.7,4.4,446.9,13.7z"/>
<path fill="#FFFFFF" stroke="#000000" d="M442.9,77.8c19.8-27.5,50.8-66.6,59.8-49.4c6.7,12.8-8.602,31.7-22.9,62.1
	c-21.6,22.5-39,58.8-54.8,88.9c-0.1-0.1-0.1-0.1-0.2-0.2c-5.2-3.7-10.5-6.9-16.1-9.6C417.1,139,425,102.7,442.6,78.2
	C442.7,78,442.8,77.9,442.9,77.8z"/>
<path fill="#FFFFFF" stroke="#000000" d="M541.3,47.7c2.9,5.7-6.6,23.8-14.2,37.7c-16.5,29.1-46.5,75.5-80.5,115
	c-0.698-1-1.5-1.9-2.3-2.9c-6.5-6.1-12.898-12.2-19.3-18.2c15.8-30.1,33.1-66.3,54.8-88.9C500.2,69.2,533.1,31.8,541.3,47.7z"/>
<path fill="#FFFFFF" stroke="#000000" d="M612.1,108.4c13.4,25.1-20.898,33.4-66.198,73.6c-9.102,2.1-18,5.3-26.7,9.1
	c-20.102,8.4-38,20.6-56,33c-0.102,0-0.102,0.1-0.2,0.1c-0.7,0.5-1.4,0.9-2.2,1.4c-2.6-6.7-5.898-13.1-9.8-19.1
	c23-22.6,49.6-51.6,79.2-70.7C563.6,114.3,600.2,86.1,612.1,108.4z"/>
<path fill="#FFFFFF" stroke="#000000" d="M574,70.4c15.4,16.4-6.7,28-43.9,65.4c-29.6,19.1-56.3,48.2-79.198,70.7
	c-1.302-2-2.7-4-4.2-6c34.7-39.9,65.3-87.4,80.398-115.2C542.4,74.3,561.5,57,574,70.4z"/>
<path fill="#FFFFFF" stroke="#000000" d="M463,224.2c0.1,0,0.1-0.1,0.2-0.1c17-11,35.8-23.8,56-33c4.5-1.9,9.2-3.6,14-5.1
	c27-9,55-14,83-16c14-1,32,0,38,13c5,11-1,24-11,31c-26,18-56,19-85,23c-3,0-6,1-9,2c-17.3,1.9-34.2,3-51.102,5.4
	c-6,0.5-11.898,1.6-17.6,3c-0.1,0-0.1,0-0.2,0c-4.398,1-8.7,2.2-12.898,3.4c1.1-3.7-6.5-25.3-6.5-25.3
	C461.5,225.1,462.2,224.7,463,224.2z"/>
<path fill="#FFFFFF" stroke="#000000" d="M502.8,244.1c97.9-3.4,181.4,0.1,170.2,27.4c-11,26.7-54.3,10.9-114.4,15
	c-31.6-6.4-65-4.3-92-4.3c0.4-2.1,0.7-4.3,0.9-6.4c0.9-8.3,0.8-16.7-0.2-24.9c4.2-1.2,8.5-2.4,12.9-3.4c0.1,0,0.1,0,0.2,0
	c5.898-1.2,11.698-2.2,17.6-3C499.6,244.3,501.2,244.2,502.8,244.1z"/>
<path fill="#FFFFFF" stroke="#000000" d="M466.6,282.2c27,0,60.4-2.2,92,4.3c49.2,10,117.602,23.7,106.802,44.4
	C649,362,592.9,334.8,524.8,324.8c-22-10.2-45.7-13.899-65.7-18C462.5,298.9,465.1,290.7,466.6,282.2z"/>
<path fill="#FFFFFF" stroke="#000000" d="M459,306.7c20,4.1,43.8,7.899,65.7,18c53.1,24.7,129.7,62,111.2,79.898
	C616.5,423.4,587,391.6,533.8,368.9c-24.7-20.2-57.5-33.4-83.3-46.9C453.8,317.2,456.7,312,459,306.7z"/>
<path fill="#FFFFFF" stroke="#000000" d="M533.9,368.9c37.398,30.5,78.3,72.398,60,80.1c-22,9.2-39.602-18.8-83-46.9
	c-2.102-2.199-4.302-4.3-6.5-6.398c-0.802-0.7-1.5-1.4-2.302-2.102c-20.898-18.898-47.8-35.3-69.3-51c6.8-6.1,12.8-13,17.8-20.6
	C476.4,335.5,509.2,348.8,533.9,368.9z"/>
<path fill="#FFFFFF" stroke="#000000" d="M510.9,402.1c32.398,34,66.698,70.9,52.898,82.7C543.4,502.2,520.9,457.9,477.6,420.5
	C464.2,393.6,442.2,369.4,425.7,348.3c1.3-1,2.6-2,3.898-3c0.9-0.8,1.9-1.6,2.802-2.399c21.1,15.5,48.198,31.301,69.6,50.699
	c0.8,0.7,1.5,1.4,2.3,2.102C506.6,397.8,508.8,399.9,510.9,402.1z"/>
<path fill="#FFFFFF" stroke="#000000" d="M425.7,348.3c16.6,21.101,38.5,45.3,51.898,72.2c21.602,43.3,49.4,101.4,28.5,104.9
	c-35,5.8-49.1-52.602-80.5-116.7c-3.898-17.7-12.3-34-19.3-48.9C413.2,356.7,419.6,352.9,425.7,348.3z"/>
<path fill="#FFFFFF" stroke="#000000" d="M425.7,408.6c14.5,65.5,29.1,148.802,14,145.4c-25.602-5.8-23.5-43.1-41.102-96.5
	c1.4-29.8-6.398-62.9-11-91.4c6.5-1.6,12.802-3.699,18.802-6.398C413.4,374.6,421.7,390.9,425.7,408.6z"/>
<path fill="#FFFFFF" stroke="#000000" d="M387.6,366.1c4.602,28.5,12.4,61.602,11,91.4c-1.898,40.9-2.898,99.4-17.6,91
	c-6.9-3.9-11.8-25-16.4-43.7c8.302-38.3,5.2-92.898,7.802-136.899c2.398-0.101,4.8-0.101,7.198-0.199
	C382.3,367.3,385,366.8,387.6,366.1z"/>
<path fill="#FFFFFF" stroke="#000000" d="M349.4,368.1c0.698,0.102,1.3,0.2,2,0.301c7-0.199,14-0.301,21-0.5
	c-2.602,44.001,0.398,98.601-7.802,136.899c-6.198,28.5-15.5,52.9-21.898,47.3c-16.8-14.5-8.9-39.198-10.7-88.198
	C341.8,433.1,344.8,397.9,349.4,368.1z"/>
<path fill="#FFFFFF" stroke="#000000" d="M332.6,364.5c5.4,1.7,11,2.9,16.802,3.6c-4.602,29.7-7.5,65-17.5,95.802
	c-14.7,45.5-35.2,93-45.9,82.898c-13.3-12.8-0.7-31.1,6.1-73.5C312.3,442.1,321.8,399.3,332.6,364.5z"/>
<path id="www.ABC-color.com" fill="#FFFFFF" stroke="#000000" d="M315.3,357.5c5.5,2.8,11.3,5.2,17.2,7
	c-10.8,34.8-20.3,77.6-40.4,108.8c-21,32.602-50.1,77.3-59.4,60.2c-5.5-10.1,3.5-27.7,13.7-53.1C273,450.7,295,398.3,315.3,357.5z"
	/>
<path fill="#FFFFFF" stroke="#000000" d="M301.4,349c4.5,3.2,9.1,6.1,13.899,8.5c-20.4,40.8-42.3,93.1-68.8,122.9
	c-16.3,18.3-39.1,43-44.7,32.1c-5.3-10.1,6.7-24.8,16.9-50.1c36.4-32.2,61.5-77.7,82.3-113.801C301.1,348.7,301.3,348.9,301.4,349z"
	/>
<path fill="#FFFFFF" stroke="#000000" d="M301,348.6C280.2,384.7,255,430.2,218.7,462.4c-19.3,17.1-41.5,42-57.6,25.198
	c-16.4-17.1,13.4-24,40.8-68.8c32.5-24,60.5-57.3,84.7-83.8C291.4,339.6,296.2,344.1,301,348.6z"/>
<path fill="#FFFFFF" stroke="#000000" d="M269.8,312.1c3.3,6.5,7.4,12.7,12.1,18.5c1.6,1.5,3.2,3,4.8,4.5
	C262.5,361.6,234.5,394.9,202,418.9c-33.8,25-69.5,44.198-81.5,22.8c-17.1-30.4,27-36.5,78.5-86.7
	C225.3,343.5,249.2,326.8,269.8,312.1z"/>
<path fill="#FFFFFF" stroke="#000000" d="M269.8,312.1c-20.6,14.7-44.4,31.4-70.9,42.9c-47.4,20.6-98,27.6-113.8,8.7
	c-22.7-27.101,42.7-41.2,115.5-63.2c21.8-2.6,42.2-7.9,60.3-12.8C262.8,296.1,265.8,304.4,269.8,312.1z"/>
<path fill="#FFFFFF" stroke="#000000" d="M258.1,262.6c-0.1,8.4,0.8,16.9,2.7,25.1c-18.1,4.899-38.5,10.1-60.3,12.8
	c-62.7,7.5-130.9,13.1-132.9-11.4c-2-25.8,37.8-15.2,92-27C192.1,265.9,227.5,263.9,258.1,262.6z"/>
<path fill="#FFFFFF" stroke="#000000" d="M261.1,239c-1.1,4.4-1.9,8.8-2.4,13.3c-0.4,3.4-0.6,6.9-0.6,10.3
	c-30.6,1.3-66,3.3-98.4-0.6c-44-5.3-85.8-14.1-84-33c2.9-31.4,52.9-9.2,117.4-9.4C215.8,228.3,239.9,234.2,261.1,239z"/>
<path fill="#FFFFFF" stroke="#000000" d="M188.7,174c23.8,16.7,54.2,30.4,80.8,42.6c-3.6,7.1-6.4,14.7-8.4,22.4
	c-21.2-4.8-45.3-10.7-68.1-19.5c-47.5-18.4-112-41-96.6-58.5C111.9,143.4,139.6,160.1,188.7,174z"/>
<path fill="#FFFFFF" stroke="#000000" d="M258.8,211c0.2,0,0.3-0.2,0.3-0.5C259,210.7,258.9,210.9,258.8,211z M269.5,216.6
	c-26.6-12.2-57-25.9-80.8-42.6c-32.4-22.7-65.8-54.6-49.8-62.6c17.6-8.8,33.7,10.8,73.1,29.2c1,0.9,1.9,1.8,2.9,2.7
	c0.2,0.2,0.4,0.4,0.7,0.6c0.6,0.6,1.2,1.1,1.8,1.7c18.9,17,40.2,32,59.6,45.4c2.3,1.6,4.5,3.1,6.6,4.6
	C278.1,201.9,273.3,209,269.5,216.6z"/>
<path fill="#FFFFFF" stroke="#000000" d="M297.7,172.2c1.8,1.9,3.6,3.8,5.399,5.7c-2.199,1.5-4.3,3.1-6.399,4.8
	c-4.6,3.8-8.9,8-12.8,12.5c-2.2-1.5-4.4-3-6.6-4.6c-20.1-14-41.9-29.3-59.8-45.2c-0.6-0.6-1.2-1.1-1.8-1.7c-0.2-0.2-0.4-0.4-0.7-0.6
	c-1-0.9-1.9-1.8-2.9-2.7c-27.4-25.8-56.8-58.6-43-64.9c26.1-11.9,51.3,24.3,98,59.9c6.5,9.3,11.9,15.8,16.7,21
	c0,0.1,0.1,0.1,0.1,0.2C288.3,162.1,293,167.2,297.7,172.2z"/>
<path fill="#FFFFFF" stroke="#000000" d="M305.9,110.1c5.199,18.1,13.399,37.5,21.1,55.3c-8.4,3.1-16.4,7.2-23.9,12.4
	c-1.699-1.9-3.5-3.9-5.199-5.9c-4.5-5.2-9-9.5-14.101-15.1c-0.1,0-0.1-0.1-0.1-0.2c-5.9-6.8-11.6-13.9-16.7-21
	c-27.4-39-62.5-94.3-40.3-100.5C253,27.7,271,65.4,305.9,110.1z"/>
<path fill="#FFFFFF" stroke="#000000" d="M332.8,72.2c0.7,26.5,8.8,59.4,15.5,88.1c-0.5,0-1.1,0-1.7,0c-6.8,1.1-13.398,2.8-19.6,5.1
	c-7.7-17.9-15.9-37.2-21.1-55.3c-13.9-48.9-26-101.8-12.7-99.8C312.2,13.2,314,34.3,332.8,72.2z"/>
<path fill="#FFFFFF" stroke="#000000" d="M297.9,171.9c1.8,2,3.5,4,5.199,5.9c7.5-5.2,15.5-9.4,23.9-12.4c6.3-2.3,12.8-4,19.6-5.1
	c0.602,0,1.102,0,1.7,0c6.8-0.2,13.7-0.3,20.5-0.5c2,0,4-0.1,6-0.1c5.5,0.6,10.8,1.7,16,3.1c0,0,17.5,5.1,17.9,6.7
	c5.6,2.7,11,5.9,16.1,9.6c0.102,0.1,0.102,0.1,0.2,0.2c6.5,6.1,12.9,12.2,19.3,18.2c0.8,0.9,1.5,1.9,2.3,2.9
	c0,0.1,0.102,0.1,0.102,0.1c1.5,1.9,2.898,3.9,4.2,6c3.898,6,7.198,12.4,9.8,19.1c0,0,7.6,21.5,6.5,25.3c1.1,8.2,1.2,16.6,0.2,24.9
	c-0.2,2.2-0.602,4.3-0.9,6.4c-1.5,8.5-4,16.7-7.5,24.5c-2.4,5.3-5.2,10.5-8.4,15.3c-5,7.6-11,14.5-17.8,20.6
	c21.5,15.7,48.4,32.102,69.3,51C480.7,374.2,453.6,358.5,432.5,342.9c-0.9,0.8-1.9,1.6-2.8,2.398c-1.3,1-2.602,2-3.9,3
	c-6.1,4.5-12.6,8.4-19.398,11.4c-6,2.699-12.302,4.8-18.802,6.398c-2.698,0.602-5.3,1.2-8.1,1.602c-2.4,0-4.8,0.1-7.2,0.199
	c-7,0.199-14,0.301-21,0.5c-0.7-0.101-1.3-0.199-2-0.301c-5.8-0.8-11.398-2-16.8-3.6c-6-1.8-11.7-4.1-17.2-7
	c-4.8-2.5-9.399-5.3-13.899-8.5c-0.101-0.1-0.301-0.3-0.4-0.4c-4.8-4.5-9.6-9-14.4-13.6c-1.6-1.5-3.2-3-4.8-4.5
	c-4.7-5.7-8.7-11.9-12.1-18.5c-4-7.7-7-16-8.9-24.4c-1.9-8.2-2.8-16.6-2.7-25.1c0-3.4,0.3-6.9,0.6-10.3c0.5-4.5,1.3-8.9,2.4-13.3
	c1.9-7.8,4.7-15.3,8.4-22.4c3.9-7.6,8.6-14.7,14.1-21.1c0.1-0.1,0.1-0.1,0.2-0.2c3.9-4.5,8.2-8.7,12.8-12.5c2.1-1.7,4.3-3.3,6.4-4.8
	c-1.8-1.9-3.6-3.8-5.4-5.7c-4.6-5-9.3-10.1-13.9-15.4C288.9,162.5,293.4,166.8,297.9,171.9z"/>
</svg>
