<?xml version="1.0" encoding="utf-8"?>
<!-- Generator: Adobe Illustrator 15.0.0, SVG Export Plug-In . SVG Version: 6.00 Build 0)  -->
<!DOCTYPE svg PUBLIC "-//W3C//DTD SVG 1.1//EN" "http://www.w3.org/Graphics/SVG/1.1/DTD/svg11.dtd">
<svg version="1.1" id="layer_x5F_www.ABC-color.com"
	 xmlns="http://www.w3.org/2000/svg" xmlns:xlink="http://www.w3.org/1999/xlink" x="0px" y="0px" width="822px" height="567px"
	 viewBox="0 0 822 567" enable-background="new 0 0 822 567" xml:space="preserve">
<path fill="none" stroke="#000000" stroke-width="0.25" d="M788.9,416.9l-28.5-42.5l18,6.5l-26.5-20l-12.5-14l19-7l-24.5,1.5l-16-13
	l20-13.5l-26.5,9l-23-9l21.5-19.5l-33.5,15.5l-30-5l33.5-25.5l-51,23.5l-38.9-1.5c16.2-7.4,50.6-24.602,73.1-46.3l0.302,0.3
	c0,0,120.5,53,137.5,173c0,0-127-40-166-53l-0.7,0.5c-4.602-6.301-9.7-12.602-15.3-18.5c0,0-9-5-13-10c0,0,0-7-13-11l-32.5-20.7
	c2-0.8,4.198-1.7,6.3-2.7l0.2,0.4h57.5l18,50.5l-10-46.5l22,1.5l18,50l-8.5-45.5l20.5,5.5l21,50.5l-10-47l21,10.5l15,52l-4-47
	l17,19.5l7,36.5l1-34l11,17l8.5,25l-1-16L788.9,416.9z"/>
<path fill="none" stroke="#000000" stroke-width="0.25" d="M760.4,374.4l28.5,42.5l-18-20l1,16l-8.5-25l-11-17l-1,34l-7-36.5
	l-17-19.5l4,47l-15-52l-21-10.5l10,47l-21-50.5l-20.5-5.5l8.5,45.5l-18-50l-22-1.5l10,46.5l-18-50.5h-57.5l-0.2-0.4
	c4.5-2.1,9.3-4.6,14.2-7.6c0,0,3.5-1.4,9.1-4l38.9,1.5l51-23.5l-33.5,25.5l30,5l33.5-15.5l-21.5,19.5l23,9l26.5-9l-20,13.5l16,13
	l24.5-1.5l-19,7l12.5,14l26.5,20L760.4,374.4z"/>
<path fill="none" stroke="#000000" stroke-width="0.25" d="M590,302.4c-5.6,2.6-9.1,4-9.1,4c-4.9,3-9.602,5.5-14.2,7.6
	c-2.102,1-4.2,1.9-6.3,2.7l-0.5-0.3c77-50,128-135,128-135c-41-29-211-28-211-28c11.898-3.6,21-4,21-4
	c35.1-13.6,80.8-10.5,113.898-5.3c25.3,4,43.102,9.3,43.102,9.3c4,5,42,13,42,13c23,1,9,14,9,14c-9,4-26,54-26,54
	c-3.802,7.6-9.7,14.9-16.802,21.7C640.6,277.8,606.2,295,590,302.4z"/>
<path fill="none" stroke="#000000" stroke-width="0.25" d="M690.9,45.9l-36.5,11.5l-17,4.5l18,11.5l-28-9l-22,4.5l36.5,21.5l-44-17
	l-24,11.5l50,18.5l-55.5-12l-12.5,9l49,15.5l-61-12l-13,7l42.5,15l-52-7.5l-12,7l29,8l-36-0.5l-25.5,20.5c-2.5,0.8-5.2,1.7-7.9,2.8
	c1.4-4.9,2.3-9.5,2.7-13.9l21.7-44.9l-8,36l23.5-19l13.5-45.5l-6.5,42.5l22-14.5l10-44.5l-1,39.5l19.5-13l8.5-33.5l1,29.5l21-11.5
	l11-21l-1.5,16.5l19-2l11-16.5l-1,13.5l16-3L690.9,45.9z"/>
<path fill="none" stroke="#000000" stroke-width="0.25" d="M654.4,57.4l36.5-11.5l-39.5,5l-16,3l1-13.5l-11,16.5l-19,2l1.5-16.5
	l-11,21l-21,11.5l-1-29.5l-8.5,33.5l-19.5,13l1-39.5l-10,44.5l-22,14.5l6.5-42.5l-13.5,45.5l-23.5,19l8-36l-21.7,44.9
	c1.898-18.1-3.102-32.5-6.9-45.6l1.102-0.3c0,0,23-89,238-58c0,0-56,105-92,105l-0.102,0.7c-33-5.2-78.8-8.3-113.898,5.3
	c0,0-9.102,0.4-21,4l25.5-20.5l36,0.5l-29-8l12-7l52,7.5l-42.5-15l13-7l61,12l-49-15.5l12.5-9l55.5,12l-50-18.5l24-11.5l44,17
	l-36.5-21.5l22-4.5l28,9l-18-11.5L654.4,57.4z"/>
<path fill="none" stroke="#000000" stroke-width="0.25" d="M469,156.2c2.7-1.1,5.4-2,7.9-2.8c0,0,170-1,211,28c0,0-51,85-128,135
	l0.5,0.3c-4.2,1.7-8.2,3-12.102,4c-32.898,8.7-53.898-4.3-58.5-7.601c1.3-2,2.602-5.101,3-9.699c0,0-3-13,5-18c0,0,12-14,5-16
	c0,0,3-12-6-15c10-2,173-64,173-64c-35,3-180,44-180,44l-0.3,0.1c-1.6-6.7-4.7-16.1-8.8-12.1c0,0,6-21-12-14c0,0-19-1-19-8
	c0,0-11-10-16-6c0,0-1.102-2.6-2.7-4.5c0.5-1,0.7-1.5,0.7-1.5c4.7-9.2,11.2-16.3,18.3-21.6C456.3,162.1,462.8,158.7,469,156.2z"/>
<path fill="none" stroke="#000000" stroke-width="0.25" d="M618.6,443.2c-23.6-0.102-51-5.5-75.1-11.7c-12.1-3.1-23.4-6.5-32.8-9.5
	l0.2-0.6c33,6,119-10,119-10C632.8,385.6,555.1,325.8,548.4,320.7c3.898-1,7.898-2.3,12.1-4l32.5,20.7c13,4,13,11,13,11
	c4,5,13,10,13,10c5.5,5.898,10.7,12.199,15.3,18.5c19.602,26.6,30.7,53.5,30.7,53.5C654.9,439.9,638.1,443.3,618.6,443.2z"/>
<path fill="none" stroke="#000000" stroke-width="0.25" d="M644.4,525.4l-10-12.5l8.5-1l-11.5-5l-14.5-17l13-4.5l-17.5-5.5l-16-16
	l15.5-1.5l-25-7.5l-43.5-23l0.1-0.4c24,6.2,51.5,11.6,75.1,11.7c2.802,4.1,34.5,51.398,39.302,99.2c0,0-135-16-195-71L462.3,471.1
	c8-15.3,14.8-29.8,15.602-35.698c0,0,1.698-4,3.198-9.9l13.802,6.4l15,50l-4.5-49l14,5l14,51l-4-51l16.5,9l13,51l-1.5-47l22,11
	l10,51.5l0.5-43.5l17,16l6.5,35.5l1-26.5l14,15v16l4-10L644.4,525.4z"/>
<path fill="none" stroke="#000000" stroke-width="0.25" d="M634.4,512.9l10,12.5l-12-9.5l-4,10v-16l-14-15l-1,26.5l-6.5-35.5l-17-16
	l-0.5,43.5l-10-51.5l-22-11l1.5,47l-13-51l-16.5-9l4,51l-14-51l-14-5l4.5,49l-15-50l-13.802-6.4c1-3.7,1.9-8.2,2.4-12.9
	c2.5,0.9,12.7,4.7,27.2,9.302c9.398,3,20.7,6.3,32.8,9.5l-0.1,0.398l43.5,23l25,7.5l-15.5,1.5l16,16l17.5,5.5l-13,4.5l14.5,17
	l11.5,5L634.4,512.9z"/>
<path fill="none" stroke="#000000" stroke-width="0.25" d="M548.4,320.7c6.698,5.1,84.398,64.8,81.5,90.7c0,0-86,16-119,10l-0.2,0.6
	c-14.5-4.6-24.7-8.4-27.2-9.3c1-9.602,0-20.2-6.6-27.2c0,0-19.9-24.9-23-23c0.398-0.3,7-5.2,7-10c0,0,11-7,14-9c27,31,130,52,130,52
	c0-15.3-117.5-66.4-127.302-70.7c2.602-4.6,6.102-9.399,9.302-8.3c0,0,1.5-0.9,3-3.3C494.5,316.4,515.4,329.4,548.4,320.7z"/>
<path fill="none" stroke="#000000" stroke-width="0.25" d="M669.9,190.4c0,0-163,62-173,64c0,0,2-16-6-14c0,0-0.4-2.6-1.302-5.9
	l0.302-0.1C489.9,234.4,634.9,193.4,669.9,190.4z"/>
<path fill="none" stroke="#000000" stroke-width="0.25" d="M604.9,395.4c0,0-103-21-130-52c0,0-5-7-1-11c0,0,1.5-3.801,3.698-7.7
	C487.5,328.9,604.9,380.1,604.9,395.4z"/>
<path fill="none" stroke="#000000" stroke-width="0.25" d="M502.9,269.4c7,2-5,16-5,16c-8,5-5,18-5,18c-0.5,4.6-1.802,7.699-3,9.699
	c-0.602-0.5-1-0.699-1-0.699c-9,3-39-3-39-3l-0.4-0.602c2.6-1.699,4.3-4.3,3.4-8.398c-1.5-6.5-18.102-4.602-27.2-3.102l-14.8-8.898
	l4-10c2-1,16.5-12.5,16.5-12.5c3.1,0.1,5.5-1.5,5.5-1.5c6-7,26-8,26-8c6-4-9-8-9-8c-14-2-21.802,5.4-25.4,10.5l-0.6-0.5
	c-2-1-20-2-29,0c-1.9,0.4-3.2,0-4-1l0,0c6.398-6.4,31.698-58.1,36.3-67.5c1.6,2,2.7,4.5,2.7,4.5c5-4,16,6,16,6c0,7,19,8,19,8
	c18-7,12,14,12,14c4-4,7.1,5.4,8.8,12.1c0.8,3.3,1.3,5.9,1.3,5.9c8-2,6,14,6,14C505.9,257.4,502.9,269.4,502.9,269.4z"/>
<path fill="none" stroke="#000000" stroke-width="0.25" d="M477.6,324.7c-2.198,3.899-3.698,7.7-3.698,7.7c-4,4,1,11,1,11
	c-3,2-14,9-14,9c0,4.8-6.602,9.699-7,10l0,0c0,0-59-53-58-58c0.898,2.699,20.1,2.199,24.198,2c5.802,1.8,16.602,5,19.802,5
	c2.198,0,6.5-0.602,9.6-2.602l0.4,0.602c0,0,30,6,39,3c0,0,0.3,0.3,1,0.699c-1.5,2.399-3,3.301-3,3.301
	C483.7,315.3,480.1,320.1,477.6,324.7z"/>
<path fill="none" stroke="#000000" stroke-width="0.25" d="M476.9,385.4c6.6,7.1,7.6,17.6,6.6,27.198
	c-0.4-0.198-0.6-0.198-0.6-0.198s-72,102-78,102c0,0-16,22-21,23l-7,5c0,0-76-64-79-102c0,0-27-65-30-68l-0.7-0.102
	c0.1-0.898,0.3-1.8,0.4-2.699c1-5.801,3-10.399,5.4-14.101c7.4-11.399,18.9-14.101,18.9-14.101s5,8,10,8c0,0,9,6,8,12
	c0,0,6,13,11,10c0,0,8,12,15,8c0,0,19-2,18,4c-13,98.001,22,151.001,22,151.001s-17.4-113.4,4.3-147.7c1-0.2,1.898-0.602,2.7-1.301
	c0,0,16-7,18-4c0,0,6,7,12,1c0,0,17-1,15-7c0,0,6-14,12-10c0,0,13,2,14-3l0,0C457,360.5,476.9,385.4,476.9,385.4z"/>
<path fill="none" stroke="#000000" stroke-width="0.25" d="M286.5,461.5c-10.9-24.8-15.8-48.4-17.9-63.7
	c-0.3-1.899-0.5-3.8-0.7-5.399c-0.9-7.5-1-12-1-12c-0.1-2.899,0-5.601,0.3-8.101l0.7,0.101c3,3,30,68.001,30,68.001
	c3,38,79,102,79,102l7-5c5-1,21-23,21-23c6,0,78-102,78-102s0.198,0.1,0.6,0.198c-0.5,4.7-1.4,9.102-2.4,12.9
	c-1.6,5.9-3.198,9.9-3.198,9.9C477.1,441.3,470.3,455.7,462.3,471.1C450,494.7,434.9,520.4,434.9,520.4c-5,11-45,29-45,29
	c-9,6-16,11-16,11l-17-17C321.1,522.4,299.5,491.1,286.5,461.5z"/>
<path fill="none" stroke="#000000" stroke-width="0.25" d="M471.7,142.3c-0.5,4.4-1.3,9-2.7,13.9c-6.2,2.5-12.7,5.9-18.8,10.6
	l-0.3-0.4c3-2-4-68-4-68c1-15-21-62-21-62l-10,12c-17,8-50,80-50,80c-4,9-18,16-18,16l-0.4,0.5c-2.3-1.9-4.9-3.4-7.6-4.5
	c0,0-3.2-1.7-8.9-4.6c1.1-1.3,10.5-12.1,20.9-24.4c0,0,5-11,12-26c0,0,20-39,36-48c0,0,17-30,26-32c0,0,32.1,37.2,35.698,61
	c0.302,2.1,0.4,4.1,0.302,6c-0.7,7.9,1.3,15.8,3.898,24.3C468.6,109.8,473.6,124.2,471.7,142.3z"/>
<path fill="none" stroke="#000000" stroke-width="0.25" d="M453.9,248.4c0,0,15,4,9,8c0,0-20,1-26,8c0,0-2.4,1.6-5.5,1.5
	c-1.802-0.1-3.7-0.7-5.5-2.5c0,0,0.8-2,2.6-4.5C432.1,253.8,439.9,246.4,453.9,248.4z"/>
<path fill="none" stroke="#000000" stroke-width="0.25" d="M425.7,297.3c9.1-1.5,25.7-3.399,27.2,3.101
	c0.898,4.101-0.802,6.699-3.4,8.399c-3.1,2-7.4,2.601-9.6,2.601c-3.2,0-14-3.199-19.802-5c-1.5-0.5-2.6-0.801-3.198-1c-3-1,3-7,3-7
	S422.3,297.9,425.7,297.3z"/>
<path fill="none" stroke="#000000" stroke-width="0.25" d="M449.9,166.4l0.3,0.4c-7.102,5.4-13.5,12.4-18.3,21.6
	c0,0-0.302,0.5-0.7,1.5c-1.9-2.3-4.602-3.8-7.3,0.5c0,0-3.2-2.4-7.102-4.4l0.102-0.1c8-17,1-114.5,1-114.5c-14,12-30,107-30,107
	s-11-2-11,4c0,0-5.802,9.7-10.802,1.4c-3.6-16.2-9.698-30.9-19.6-38.9l0.4-0.5c0,0,14-7,18-16c0,0,33-72,50-80l10-12
	c0,0,22,47,21,62C445.9,98.4,452.9,164.4,449.9,166.4z"/>
<path fill="none" stroke="#000000" stroke-width="0.25" d="M380.2,386.7c-4.602,0.8-11.3-3.3-11.3-3.3c-9,5-15,0-15,0c1-6-18-4-18-4
	c-7,4-15-8-15-8c-5,3-11-10-11-10c1-6-8-12-8-12c-5,0-10-8-10-8s35-25,51-42c6.3-6.7,14,4,14,4c14,8,12.8,20.1,12.8,20.1
	s-6.4,12-4.3,24.4c0,0,6.5,9,12.5-2.5l-0.7-18.801c1.7-20.199,18.7-22.199,18.7-22.199c-1,5,58,58,58,58c-1,5-14,3-14,3
	c-6-4-12,10-12,10c2,6-15,7-15,7c-6,6-12-1-12-1c-2-3-18,4-18,4C382.2,386.1,381.3,386.5,380.2,386.7z"/>
<path fill="none" stroke="#000000" stroke-width="0.25" d="M370.9,257.1l4,1.3c0,0,4-7,11-17c0,0,5,5,9,2c-0.102,0.4-3,10.6,0,14
	c0.8,1,2.1,1.4,4,1c9-2,27-1,29,0l0.6,0.5c-1.8,2.5-2.6,4.5-2.6,4.5c1.8,1.8,3.8,2.4,5.5,2.5c0,0-14.5,11.5-16.5,12.5l-4,10
	l14.8,8.898c-3.5,0.602-5.8,1.102-5.8,1.102s-6,6-3,7c0.6,0.199,1.698,0.6,3.198,1c-4.198,0.1-23.3,0.6-24.198-2
	c0,0-17,2-18.7,22.199l-7.5-3c0,0,1.2-12.101-12.8-20.101c0,0-7.7-10.7-14-4l-6-14l14-3c0,0-0.602-17.3,5.198-23.6
	c3.802,4.6,8.802,0.6,8.802,0.6l1-4L370.9,257.1z M408.9,283.4c4.5-7.5-8-8.5-8-8.5c2.5-16.5-4.5-12.5-4.5-12.5
	c-1.802,1.8-5.102,3.5-5.2,5c-5.602,0-19.3,5-19.3,5c-15,6-15.302,13.4-12,19c9.8,16.5,39.5-7,39.5-7l0.6-0.5
	C403.9,288.4,408.9,283.4,408.9,283.4z"/>
<path fill="none" stroke="#000000" stroke-width="0.25" d="M423.9,190.4c2.698-4.3,5.398-2.8,7.3-0.5
	c-4.602,9.4-29.9,61.2-36.3,67.5l0,0c-3-3.4-0.102-13.6,0-14l0,0c4-3,6-12,6-12c6-8-3-19-3-19c-19,7-12,29-12,29c-7,10-11,17-11,17
	l-4-1.3c0.198-3.9,2.3-41.5-4.802-73.3c5,8.4,10.802-1.4,10.802-1.4c0-6,11-4,11-4c-4,8,17,8,17,8c1.698-4.4,7.198-2.8,11.898-0.4
	C420.7,188,423.9,190.4,423.9,190.4z"/>
<path fill="none" stroke="#000000" stroke-width="0.25" d="M417.9,71.4c0,0,7,97.5-1,114.5L416.8,186c-4.7-2.4-10.3-4-11.898,0.4
	c0,0-21,0-17-8C387.9,178.4,403.9,83.4,417.9,71.4z"/>
<path fill="none" stroke="#000000" stroke-width="0.25" d="M400.9,274.9c0,0,12.5,1,8,8.5c0,0-5,5-8.9,0.5c-0.7-0.8-1.4-2-2.1-3.5
	c0,0-11,11-15,2c0,0,0-8,13-8c0,0-4.9-2.7-4.7-7c0.1-1.5,3.3-3.2,5.2-5C396.4,262.4,403.4,258.4,400.9,274.9z"/>
<path fill="none" stroke="#000000" stroke-width="0.25" d="M397.9,212.4c0,0,9,11,3,19c0,0-2,9-6,12l0,0c-4,3-9-2-9-2
	S378.9,219.4,397.9,212.4z"/>
<path fill="none" stroke="#000000" stroke-width="0.25" d="M400,283.9l-0.6,0.5c0,0-29.7,23.5-39.5,7c-3.302-5.602-3-13,12-19
	c0,0,13.698-4.9,19.3-5c-0.3,4.2,4.7,7,4.7,7c-13,0-13,8-13,8c4,9,15-2,15-2C398.5,281.9,399.2,283.1,400,283.9z"/>
<path fill="none" stroke="#000000" stroke-width="0.25" d="M368.9,383.4c0,0,6.698,4,11.3,3.3c-21.7,34.3-4.3,147.7-4.3,147.7
	s-35-53-22-151C353.9,383.4,359.9,388.4,368.9,383.4z"/>
<path fill="none" stroke="#000000" stroke-width="0.25" d="M377.2,326.5l0.7,18.8c-6,11.5-12.5,2.5-12.5,2.5
	c-2.102-12.3,4.3-24.399,4.3-24.399L377.2,326.5z"/>
<path fill="none" stroke="#000000" stroke-width="0.25" d="M366.1,183.7c7.102,31.8,5,69.4,4.802,73.3l-5-1.7c-3-17-24-22-24-22
	c-11.5,12,9.698,20,14.198,25.4c-5.8,6.4-5.198,23.6-5.198,23.6l-14,3c0,0-8.7-0.3-16.2,0.9l0,0c-22.6,0.7-41.2-1.3-56.1-4.3
	c-0.2-0.2-0.4-0.4-0.6-0.7c-4-4,3-8,3-8c3-6,0-10,0-10c3-3-4-12-4-12c-4-7,3-14,3-14c-1-4,11-9,11-9c5-4,4-15,4-15c-1-6,15-9,15-9
	c-0.8-1.9,0.4-3.6,2.1-4.8c2.7-2,6.9-3.2,6.9-3.2s9-6,12-4s10-7,10-7s6-3,10,2s9,0,9-3s9,0,12,3s8-4,8-4
	C366,183.5,366.1,183.6,366.1,183.7z"/>
<path fill="none" stroke="#000000" stroke-width="0.25" d="M204.7,250.4c-7.3-15.1-67.2-139.9-57.8-153c0,0,53-9.5,183,38.5
	c0,0,0,0,0.1-0.1c5.7,2.9,8.9,4.6,8.9,4.6c2.8,1.1,5.3,2.6,7.6,4.5c9.9,8,15.9,22.7,19.6,38.9c-0.1-0.1-0.1-0.2-0.198-0.4
	c0,0-5,7-8,4s-12-6-12-3s-5,8-9,3s-10-2-10-2s-7,9-10,7c-3-2-12,4-12,4s-4.1,1.1-6.9,3.2l-0.1-0.2c0,0-135-99-140-98
	c0,0,58,92,123,112c0,0,1,11-4,15c0,0-12,5-11,9c0,0-7,7-3,14c0,0,7,9,4,12c0,0,3,4,0,10c0,0-7,4-3,8c0.2,0.2,0.4,0.4,0.6,0.7
	c-17.2-3.5-29.5-8.5-37.3-12.4c-7-3.5-10.4-6.3-10.4-6.3c-3.7-2.2-8-6.8-12.6-13C204.4,250.4,204.6,250.4,204.7,250.4z"/>
<path fill="none" stroke="#000000" stroke-width="0.25" d="M365.9,255.4l-1,4c0,0-5,4-8.802-0.6c-4.5-5.4-25.698-13.4-14.198-25.4
	C341.9,233.4,362.9,238.4,365.9,255.4z"/>
<path fill="none" stroke="#000000" stroke-width="0.25" d="M336.9,285.4l6,14l-22,2c-10,1-11-7-11-7c-1.9-4.7,4-7,10.8-8.102l0,0
	C325.9,286.2,331.3,285.9,336.9,285.4z"/>
<path fill="none" stroke="#000000" stroke-width="0.25" d="M320.9,301.4l22-2c-16,17-51,42-51,42c2-8-10-9-10-9c-11,3-9-11-9-11
	c1.6-1.102,2.1-2.5,1.9-4c-0.5-5.301-8.9-12-8.9-12c-2.7-3.2-2.2-7-1.2-9.801c0.9-2.399,2.2-4.199,2.2-4.199
	c2.8-3.801,1.2-5.801-2.4-9.3c14.9,3,33.5,5,56.1,4.3c-6.8,1.1-12.6,3.3-10.8,8.1C309.9,294.4,310.9,302.4,320.9,301.4z"/>
<path fill="none" stroke="#000000" stroke-width="0.25" d="M330,135.8c-0.1,0.1-0.1,0.1-0.1,0.1c-130-48-183-38.5-183-38.5
	c-9.4,13.1,50.5,137.9,57.8,153c-0.1,0-0.3,0-0.4,0c-11.9-16-26.2-42.9-38.9-69.2c-18.4-38.1-33.5-74.8-33.5-74.8
	c-1-9.8-8.7-36-9-37c0.1,0.1,0.4,0.7,2,4c2,4,23,5,23,5C199.3,71.6,299.7,120.3,330,135.8z"/>
<path fill="none" stroke="#000000" stroke-width="0.25" d="M297.9,199.4l0.1,0.2c-1.7,1.3-2.9,2.9-2.1,4.8c0,0-16,3-15,9
	c-65-20-123-112-123-112C162.9,100.4,297.9,199.4,297.9,199.4z"/>
<path fill="none" stroke="#000000" stroke-width="0.25" d="M281.9,332.4c0,0,12,1,10,9c0,0-11.5,2.699-18.9,14.1l-0.1-0.1
	c-1.5,0.199-4.4,0.199-8,0.199V355.4c0,0-121-36-130-55c0,0,53-29,92-30l0.4-0.8c7.8,3.9,20,8.9,37.3,12.4c3.6,3.6,5.2,5.6,2.4,9.3
	c0,0-1.3,1.7-2.2,4.2l-0.8-0.2c0,0-60-9-81,3c0,0,63,20,91,19h0.9c0.1,1.5-0.4,2.9-1.9,4C272.9,321.4,270.9,335.4,281.9,332.4z"/>
<path fill="none" stroke="#000000" stroke-width="0.25" d="M268.6,397.8c2.2,15.3,7,38.9,17.9,63.7
	c-66.9,16.2-148.6,90.9-148.6,90.9C110.5,503.3,165.2,421.1,171.3,412.2c29.2-11.7,58.7-19.8,84.8-20.2l-14.3,7.9l-54,21.5l45.5-11
	l-37,30.5l-42.5,17.5l34-6l-21.5,31l-18.5,17.5l16-9l-21,38.5l23.5-35l7,15l-2.5-22l20-30v29l7.5-37.5l23.5-19l-7.5,43l16-51
	l22.5-19.5l-7.5,46.5l13-45.5l9.5-6.5L268.6,397.8z"/>
<path fill="none" stroke="#000000" stroke-width="0.25" d="M274.8,317.3h-0.9c-28,1-91-19-91-19c21-12,81-3,81-3l0.8,0.2
	c-1,2.8-1.5,6.6,1.2,9.8C265.9,305.4,274.4,312,274.8,317.3z"/>
<path fill="none" stroke="#000000" stroke-width="0.25" d="M272.9,355.4l0.1,0.1c-2.4,3.7-4.4,8.4-5.4,14.1l-1.2-0.199l-7,17l2-23
	h-12.5l-18,24l6.5-26l-12-0.5l-19,28l10-31l-20.5,0.5l-15.5,39.5l7-38.5l-18.5,5.5l-21,48.001l9-45.501l-16,6.5l-21.5,50.001
	l10.5-48.001l-24,16l-13.5,46.001l4-41.001l-18,18.501l-4,33l-2.5-28l-15.5,14l-0.5,22.5l-6.5-19l-8.5,14.5l-2,16.5l-3.5-10.5
	l-17,26.5l11-28.5l-12.5-3l15-4.5l12-15.5l-19,1l26-6.5l15.5-16l-24.5-8l26.5,4.5l19-18.501l-25-13.5l31,10l32-17l-29-12.5l38,8
	l22.5-6l-24-15.5l31,13l34.8-5.801c5.1,1.7,9.2,2.801,11.2,2.801c0,0,37.2,2.101,55,2.199C268.6,355.6,271.4,355.6,272.9,355.4z"/>
<path fill="none" stroke="#000000" stroke-width="0.25" d="M268.6,397.8l-0.7,0.101l-9.5,6.501l-13,45.5l7.5-46.5l-22.5,19.5l-16,51
	l7.5-43l-23.5,19l-7.5,37.5v-29l-20,30l2.5,22l-7-15l-23.5,35l21-38.5l-16,9l18.5-17.5l21.5-31l-34,6l42.5-17.5l37-30.5l-45.5,11
	l54-21.501l14.3-7.899c4-0.101,7.9,0,11.7,0.399C268.1,394,268.3,395.8,268.6,397.8z"/>
<path fill="none" stroke="#000000" stroke-width="0.25" d="M256.2,392c-26.1,0.4-55.6,8.5-84.8,20.2C91.5,444,13.9,502.4,13.9,502.4
	c-30-126,128-174,128-174l0.2-0.4c3.1,1.5,6.1,2.7,8.8,3.4c0,0,30.1,13.3,47.8,19.199l-34.8,5.801l-31-13l24,15.5l-22.5,6l-38-8
	l29,12.5l-32,17l-31-10l25,13.5l-19,18.5l-26.5-4.5l24.5,8l-15.5,16l-26,6.5l19-1l-12,15.5l-15,4.5l12.5,3l-11,28.5l17-26.5
	l3.5,10.5l2-16.5l8.5-14.5l6.5,19l0.5-22.5l15.5-14l2.5,28l4-33l18-18.5l-4,41l13.5-46l24-16l-10.5,48l21.5-50l16-6.5l-9,45.5l21-48
	l18.5-5.5l-7,38.5l15.5-39.5l20.5-0.5l-10,31l19-28l12,0.5l-6.5,26l18-24h12.5l-2,23l7-17l1.2,0.199c-0.2,0.899-0.3,1.801-0.4,2.699
	c-0.3,2.5-0.4,5.2-0.3,8.102c0,0,0.1,4.5,1,12C264.1,392.1,260.2,392,256.2,392z"/>
<path fill="none" stroke="#000000" stroke-width="0.25" d="M198.8,350.6C181.1,344.7,151,331.4,151,331.4
	c-2.7-0.7-5.7-1.801-8.8-3.4c-19.6-9.5-44.2-32.6-44.2-32.6c3.7-6.7,15.5-12.7,24.2-16.3c5.6-2.3,9.8-3.7,9.8-3.7
	c26.3-2.3,37.3-6.8,41.2-8.9c1.3-0.7,1.8-1.1,1.8-1.1c5.1-6.2,10.9-9.9,16.1-12c5.8-2.4,10.8-2.9,13.3-3c4.6,6.2,8.9,10.8,12.6,13
	c0,0,3.4,2.7,10.4,6.3l-0.4,0.8c-39,1-92,30-92,30c9,19,130,55,130,55v0.2c-17.8-0.101-55-2.2-55-2.2
	C207.9,353.4,203.8,352.3,198.8,350.6z"/>
<path fill="none" stroke="#000000" stroke-width="0.25" d="M204.3,250.4c-2.5,0.1-7.5,0.6-13.3,3l-0.1-0.5l-13.5-14l5.5-13l-7,6.5
	l-16-12.5v-26.5l-7.5,20l-12.5-14l-6-33.5l-4.5,25.5l-18.5-14.5l-14.5-39l5,33.5l-25.5-22l-13.5-22.5l6.5,19l-39.5-19.5l29.5,21.5
	l-19.5,6h30l18.5,15.5l-40.5,2.5l48.5,6.5l23.5,14l-55,4.5l65.5,5.5l11.5,11l-64,9h70l12,10l-62,11.5l71.5-1l9,10.5l-57.5,9.5
	l52.5,3l0.2,0.6c-3.9,2.1-15,6.6-41.2,8.9c0,0-4.3,1.4-9.8,3.7l-0.2-0.7c-87-56-109-164-109-164c95-2,152,67,152,67l0.5-0.2
	C178.1,207.5,192.3,234.4,204.3,250.4z"/>
<path fill="none" stroke="#000000" stroke-width="0.25" d="M190.9,252.9l0.1,0.5c-5.2,2.1-11,5.8-16.1,12c0,0-0.5,0.4-1.8,1.1
	l-0.2-0.6l-52.5-3l57.5-9.5l-9-10.5l-71.5,1l62-11.5l-12-10h-70l64-9l-11.5-11l-65.5-5.5l55-4.5l-23.5-14l-48.5-6.5l40.5-2.5
	l-18.5-15.5h-30l19.5-6l-29.5-21.5l39.5,19.5l-6.5-19l13.5,22.5l25.5,22l-5-33.5l14.5,39l18.5,14.5l4.5-25.5l6,33.5l12.5,14l7.5-20
	v26.5l16,12.5l7-6.5l-5.5,13L190.9,252.9z"/>
<path fill="none" stroke="#000000" d="M336.9,284.7c0,0-99.8,11.2-133.4-34.9c0,0-21,3.1-29,15.4c0,0-22.2,11.1-42.6,9.9
	c0,0-32.7,13.6-34,19.1c0,0,21,32.8,109.3,58.8c0,0,62.3,3.7,65.7,2c0,0,8-9.3,18.7-14.3c0,0,49.3-36,50.7-41.3"/>
<path id="www.ABC-color.com" fill="none" stroke="#000000" d="M272.9,355.1c0,0-16.7,20.7,7,88c0,0,17.3,52.7,44,74.7
	c0,0,26.3,23.7,33,26c0,0,14.698,13.7,17,16.3c0,0,12.698-10,15.698-11s37.7-18,43.302-25.698c0,0,41.3-71.302,45-88.302
	c0,0,6.3-10,5.3-39.3c0,0-6.7-17-36.7-40.3c0,0-45.7-40-50.3-50.7"/>
<path fill="none" stroke="#000000" d="M483.2,411.7c0,0,57,21,67.7,21.3c0,0,55.698,12.3,75.3,10.3c0,0,34.3-3,38.3-13.7
	c0,0-31-61.3-44.3-69.699l-15-12c0,0,2.7-5-11.7-10.301L559.8,315.9c0,0-37.3,18.699-70.7-3c0,0-37.3-0.7-40-4.301"/>
<path fill="none" stroke="#000000" d="M559.9,316.1c0,0,88.698-37.7,113.3-70.7l7-11.7c0,0,18.3-50,24.3-53c0,0,6-4.7,5.3-8
	c0,0,1-5.7-9.7-6.3c0,0-42.698-8-45.698-13c0,0-50.7-14-85-14.3c0,0-41,1.3-56.7,5.3l-15.7,5l-20.7,3.7c0,0-34.7,10.3-45.3,36.3
	c0,0-34.3,69.7-37,68"/>
<path fill="none" stroke="#000000" d="M468.9,155.1c0,0,10-17.3-5-59c0,0-4.302-21.7-2.7-27.3c0,0-4.3-27.3-36.7-64
	c0,0-21.3,20.3-25.3,32.3c0,0-17.7,6-47.7,73.7l-21.3,25c0,0,17,8.7,16,9.7c0,0,12.3,7,20,38c0,0,8.7,58,4.7,73.7"/>
<path fill="none" stroke="#000000" d="M330.2,135.7c0,0-108.3-54.3-157.7-57c0,0-24.7-1.3-28.7-0.7c0,0-19-0.3-21.7-8.3
	c0,0,10.3,31,9.3,36.7l34,75c0,0,34.2,67.2,37.9,68.4"/>
</svg>
