<?xml version="1.0" encoding="utf-8"?>
<!-- Generator: Adobe Illustrator 15.0.0, SVG Export Plug-In . SVG Version: 6.00 Build 0)  -->
<!DOCTYPE svg PUBLIC "-//W3C//DTD SVG 1.1//EN" "http://www.w3.org/Graphics/SVG/1.1/DTD/svg11.dtd">
<svg version="1.1" id="layer_x5F_www.ABC-color.com"
	 xmlns="http://www.w3.org/2000/svg" xmlns:xlink="http://www.w3.org/1999/xlink" x="0px" y="0px" width="822px" height="567px"
	 viewBox="0 0 822 567" enable-background="new 0 0 822 567" xml:space="preserve">
<g id="image_1_" display="none">
	<text transform="matrix(1 0 0 1 0.1235 536.6885)" display="inline" font-family="'ArialMT'" font-size="12">w</text>
	<text transform="matrix(1 0 0 1 9.0991 536.6885)" display="inline" font-family="'ArialMT'" font-size="12">w</text>
	<text transform="matrix(1 0 0 1 18.0752 536.6885)" display="inline" font-family="'ArialMT'" font-size="12">w</text>
	<text transform="matrix(1 0 0 1 26.9072 536.6885)" display="inline" font-family="'ArialMT'" font-size="12"> </text>
	<text transform="matrix(1 0 0 1 29.4512 536.6885)" display="inline" font-family="'ArialMT'" font-size="12">.</text>
	<text transform="matrix(1 0 0 1 31.9351 536.6885)" display="inline" font-family="'ArialMT'" font-size="12"> </text>
	<text transform="matrix(1 0 0 1 34.4785 536.6885)" display="inline" font-family="'ArialMT'" font-size="12">A</text>
	<text transform="matrix(1 0 0 1 41.8228 536.6885)" display="inline" font-family="'ArialMT'" font-size="12">B</text>
	<text transform="matrix(1 0 0 1 48.3267 536.6885)" display="inline" font-family="'ArialMT'" font-size="12">C</text>
	<text transform="matrix(1 0 0 1 55.2866 536.6885)" display="inline" font-family="'ArialMT'" font-size="12"> </text>
	<text transform="matrix(1 0 0 1 57.8306 536.6885)" display="inline" font-family="'ArialMT'" font-size="12">-</text>
	<text transform="matrix(1 0 0 1 61.5142 536.6885)" display="inline" font-family="'ArialMT'" font-size="12"> </text>
	<text transform="matrix(1 0 0 1 64.0581 536.6885)" display="inline" font-family="'ArialMT'" font-size="12">c</text>
	<text transform="matrix(1 0 0 1 69.3623 536.6885)" display="inline" font-family="'ArialMT'" font-size="12">o</text>
	<text transform="matrix(1 0 0 1 75.9502 536.6885)" display="inline" font-family="'ArialMT'" font-size="12">l</text>
	<text transform="matrix(1 0 0 1 78.7817 536.6885)" display="inline" font-family="'ArialMT'" font-size="12">o</text>
	<text transform="matrix(1 0 0 1 85.3701 536.6885)" display="inline" font-family="'ArialMT'" font-size="12">r</text>
	<text transform="matrix(1 0 0 1 89.2939 536.6885)" display="inline" font-family="'ArialMT'" font-size="12"> </text>
	<text transform="matrix(1 0 0 1 91.8379 536.6885)" display="inline" font-family="'ArialMT'" font-size="12">.</text>
	<text transform="matrix(1 0 0 1 94.3218 536.6885)" display="inline" font-family="'ArialMT'" font-size="12"> </text>
	<text transform="matrix(1 0 0 1 96.8657 536.6885)" display="inline" font-family="'ArialMT'" font-size="12">c</text>
	<text transform="matrix(1 0 0 1 102.1694 536.6885)" display="inline" font-family="'ArialMT'" font-size="12">o</text>
	<text transform="matrix(1 0 0 1 108.7573 536.6885)" display="inline" font-family="'ArialMT'" font-size="12">m</text>
</g>
<path id="www.ABC-color.com" fill="#FFFFFF" stroke="#000000" d="M589,135.8c0,0,105.8,46.9,33.3,121.7L448,286.8h-2.4
	c-4.8-15.1-16.3-27.3-31-33.3l69.7-166C484.3,87.6,584.4,13.4,589,135.8z"/>
<path fill="#FFFFFF" stroke="#000000" d="M622.4,257.4c0,0,81.5,61.1-13.602,104.1c0,0,21.4,104.9-58.6,67c-2.3-1.1-4.602-2.3-7-3.6
	l-103.5-93.7l0,0c5.398-8.2,8.5-18,8.5-28.5c0-5.5-0.9-10.8-2.4-15.8h2.4L622.4,257.4z"/>
<path fill="#FFFFFF" stroke="#000000" d="M550.2,428.5l-0.3,1c0,0,27.198,86-54.302,70.2c0,0-45.3,92.8-97.398,11.3l-4.5-155.1
	c19.3,0,36.2-9.801,45.898-24.7l0,0l103.5,93.7C545.6,426.3,547.9,427.4,550.2,428.5z"/>
<path fill="#FFFFFF" stroke="#000000" d="M414.1,33.3c0,0,97.4-38.5,70.2,54.3l-69.7,166c-6.398-2.6-13.5-4.1-20.898-4.1
	c-5.602,0-10.9,0.8-16,2.3c-1-4.4-21-91.5-50.8-170.2c0.8,1.7,0.3,0.4,0-0.4C326.2,74.6,317.9-21.4,414.1,33.3z"/>
<path fill="#FFFFFF" stroke="#000000" d="M414.6,253.5c14.802,6,26.2,18.2,31,33.3c1.602,5,2.4,10.3,2.4,15.8
	c0,10.5-3.1,20.301-8.5,28.5c-9.6,14.9-26.6,24.7-45.9,24.7c-18.898,0-35.5-9.5-45.3-23.8c-5.7-8.4-9.1-18.5-9.1-29.4
	c0-7.699,1.6-14.898,4.6-21.5c6.3-14,18.602-24.8,33.7-29.4c5.1-1.5,10.4-2.3,16-2.3C401.1,249.5,408.1,250.9,414.6,253.5z"/>
<path fill="#FFFFFF" stroke="#000000" d="M393.7,355.9l4.5,155.1c-25.8,58-86.102,40.8-97.4-18.1c0,0-97.4,34-56.6-65.7L348.3,332.1
	l0,0C358.2,346.4,374.8,355.9,393.7,355.9z"/>
<path fill="#FFFFFF" stroke="#000000" d="M326.9,81.6c29.8,78.7,49.8,165.9,50.8,170.2c-15.102,4.6-27.4,15.4-33.7,29.4
	c-9.6-3.9-145.3-59.4-156.3-66.8c-30.7-20.5-47.5-99.6,43-113.2C230.7,101.2,274.8-24.8,326.9,81.6z"/>
<path fill="#FFFFFF" stroke="#000000" d="M348.4,332.1L348.4,332.1L244.2,427.2c0,0-108.7,67.898-58.9-92.8c0,0-104.1-79.3,2.3-120
	c11.1,7.4,146.7,62.9,156.3,66.8c-3,6.6-4.602,13.8-4.602,21.5C339.4,313.6,342.7,323.7,348.4,332.1z"/>
</svg>
