<?xml version="1.0" encoding="utf-8"?>
<!-- Generator: Adobe Illustrator 15.0.0, SVG Export Plug-In . SVG Version: 6.00 Build 0)  -->
<!DOCTYPE svg PUBLIC "-//W3C//DTD SVG 1.1//EN" "http://www.w3.org/Graphics/SVG/1.1/DTD/svg11.dtd">
<svg version="1.1" id="layer_x5F_www.ABC-color.com"
	 xmlns="http://www.w3.org/2000/svg" xmlns:xlink="http://www.w3.org/1999/xlink" x="0px" y="0px" width="822px" height="567px"
	 viewBox="0 0 822 567" enable-background="new 0 0 822 567" xml:space="preserve">
<path id="www.ABC-color.com" fill="#FFFFFF" stroke="#000000" d="M679.5,356.7l51.6-61.601C730.3,296.9,681,414.7,630.5,434.7
	C601,446.4,575.2,446,575.2,446s-76.102,21.4-80.5,26.4c-5.3,6.1-23,14.398-35.8,29.3c11-17.602,31.6-51.4,51.698-90.3l0,0
	C521.7,411.2,641.1,407.6,679.5,356.7z"/>
<path fill="#FFFFFF" stroke="#000000" d="M670,259.2c5,9.4,35.8,14.1,31.5,23.9c-4.7,10.5-36.5,0.6-36.5,0.6s3.1,41.6-6.9,37.1
	c-17-7.6-28.898-28.3-28.898-28.3s-28.4,18.6-34,10.1c-5.2-8,21.398-17.6,25.2-32.1c3.8-14.5-34-47.2-34-47.2
	c-28.4-39.6-11.102-56.9-5.4-61.2l0,0c12.6,1,27.4-11.8,27.4-11.8c-6.802,24.2,5.3,19.6,7.6,27.7c1,3.7,5.7-26.4,5.7-26.4
	s17,14.5,20.8,12.6c3.7-1.9-8.5-23.9-8.8-24.5c0.3,0.1,7.8,3.8,14.3-0.3l0.2,0.3l11.3,2.5c13.8,10.7,14.5,4.4,10.7,57.9
	C668.2,226.6,665,249.8,670,259.2z"/>
<path fill="#FFFFFF" stroke="#000000" d="M633.6,139.7c0.302,0.6,12.5,22.7,8.802,24.5c-3.802,1.9-20.802-12.6-20.802-12.6
	S617,181.7,615.9,178c-2.302-8.1-14.4-3.4-7.602-27.7c0,0-14.8,12.8-27.398,11.8l0,0c-4.602-0.4-9-2.6-12.2-8
	c0,0,24.5-5.7,23.898-11.9c-0.6-6.3-1.898-21.4-6.3-28.3c-1.398-2.1-1.1-18.4,5.8-25.4c3.102-3.1,7.5-4.4,13.7-1.6
	c9.9,1.1,18.602,24.4,30.2,35.2c3.1,2.9,24.3-3.9,25.7-7.2c-0.5,2.1-3.3,13.8-11.3,22.3c-0.9,0.9-1.802,1.7-2.7,2.2
	C641.3,143.5,633.9,139.9,633.6,139.7z"/>
<path fill="#FFFFFF" stroke="#000000" d="M322.7,40.5c0-0.6,94.898-128.7,144.1,76.5C473.4,98.6,510.1,6,570.7,22
	c21.398,5.7,32.7,34,35.2,64.8c-6.2-2.7-10.602-1.5-13.7,1.6L592.1,88c-1.898-58.5-30.8-54.7-30.8-54.7
	C462.5,37.2,470,266.7,470,266.7s52.8-51.6,40.9-34c-8.802,13-44,61-44,61C450.2,336.3,446.4,401.1,445.6,436.2
	c-0.3,15.1-0.1,24.8-0.1,24.8l5,52.8c0,0.102-0.1,0.2-0.1,0.3c-1.302-3-8.5-20.398-13.602-33.5C434.6,475.3,426,468,426,468
	c-1.7-1.2-2.8-4.2-3.4-8.4C417.9,427.5,440.8,320.7,441.1,312c0.5-14.5-7.6-13.2-27.1-79.9l39.6,36.5
	C463.2-89.2,338.1,46.8,330.8,49.2c-0.7-0.7-1.398-1.4-2.2-2c-3.8-2.9-5.898-5.1-7-6.5L322.7,40.5z"/>
<path fill="#FFFFFF" stroke="#000000" d="M510.5,411.4c-20.1,38.898-40.7,72.8-51.7,90.3c-3.1,3.6-6,7.6-8.3,12.1l-5-52.8
	c0,0-0.2-9.6,0.1-24.8C455.2,424.4,556.4,296.3,547.4,171.7c-9.4-130.8,18,63.8,17,85.5C562.3,300.7,536.8,360.4,510.5,411.4
	L510.5,411.4z"/>
<path fill="#FFFFFF" stroke="#000000" d="M436.7,480.6c5.2,13.102,12.398,30.5,13.6,33.5c-2.7,5.302-4.7,11.2-5.5,17.9h-25.2
	c-12.5-37.8-22.698-68.7-31.3-94.8c-17.2-52.5-28.2-85.8-39.8-116.3c-18.9-49.7-10.1-47.102,14.5-108.8
	c29.3-73.7,16.5-107.7,16.4-108.2c0.5,0.4,20,15.5,15.1,44c-5,28.9-7.5,53.4-7.5,53.4s-9.4,31.5-14.5,59.8
	c-1.9,10.8,10.7,59.8,15.1,75.5C391.9,352,418.4,454.5,422.6,459.7c0.602,4.2,1.7,7.1,3.4,8.398C426,468,434.6,475.3,436.7,480.6z"
	/>
<path fill="#FFFFFF" stroke="#000000" d="M419.7,532h-11.3c0,0-22.2-48.3-30.2-54.5c-14.5-11.3-1.9-22-88.7-36.5
	c0,0-82.4-5-113.8-69.8c-32.4-66.8-40.9-65.4,0-34c0,0,36.5,34.6,122,57.899c3.3,0.899,90.6,42.101,90.6,42.101l0.2-0.102
	C397,463.3,407.2,494.2,419.7,532z"/>
<path fill="#FFFFFF" stroke="#000000" d="M336.9,108c7.8,10.1,12.898,34.8,8.6,51.2c-4.4,17.1-24.5,37.7-24.5,37.7
	s-27.7,18.9-35.9,40.9c-8.2,22,17,43.4,17,43.4c-16.8,23.899-59.8-25.2-61-26.4c-6.3,18.2-63.5,42.8-63.5,42.8
	c-15.1-25.8,2.5-78.6,2.5-78.6c-47.8,3.8-77.2-43.6-57.9-36.5c12,4.4,40.9-13.2,40.9-13.2l16.3-44c0,0,0-5.7,15.1-42.8
	c0.1-0.3,0.1-0.6,0.1-0.9c5.8-35.4,60.9-23,60.9-23l1.3,0.1c-0.9,15.7,12.6,25.7,12.6,25.7c-13.8,12-25.8,17.6-25.8,17.6
	s32.7-6.3,31.4-3.8s-14.5,29.6-3.1,28.3c8.5-0.9,25.8-21.4,25.8-21.4l6.3,27.7c0,0,8.8-32.1,10.1-28.3
	C316.3,111.3,327.3,110.3,336.9,108z"/>
<path fill="#FFFFFF" stroke="#000000" d="M336.9,108c-9.5,2.3-20.5,3.3-22.802-3.5c-1.3-3.8-10.1,28.3-10.1,28.3l-6.3-27.7
	c0,0-17.3,20.4-25.8,21.4c-11.3,1.3,1.9-25.8,3.1-28.3c1.3-2.5-31.4,3.8-31.4,3.8s11.9-5.7,25.8-17.6c0,0-13.5-10-12.6-25.7
	c0.2-3.2,1-6.5,2.5-10.1c0,0,13.2,25.8,19.5,20.1c1.4-1.3,23.9-43.4,41.5-30.2c0,0,0,0.7,1.2,2.3c1.1,1.4,3.1,3.5,7,6.5
	c0.8,0.6,1.6,1.3,2.2,2c5.8,6,5.3,13.4,4.7,15.6c-0.602,2.5,0.6,5.7-16.302,23.3C313.9,93.6,329.2,99.5,339.2,98.9
	s12.6,4.4,12.6,4.4S344.8,106.1,336.9,108z"/>
</svg>
