<?xml version="1.0" encoding="utf-8"?>
<!-- Generator: Adobe Illustrator 15.0.0, SVG Export Plug-In . SVG Version: 6.00 Build 0)  -->
<!DOCTYPE svg PUBLIC "-//W3C//DTD SVG 1.1//EN" "http://www.w3.org/Graphics/SVG/1.1/DTD/svg11.dtd">
<svg version="1.1" id="layer_x5F_www.ABC-color.com"
	 xmlns="http://www.w3.org/2000/svg" xmlns:xlink="http://www.w3.org/1999/xlink" x="0px" y="0px" width="411.5px" height="375px"
	 viewBox="0 0 411.5 375" enable-background="new 0 0 411.5 375" xml:space="preserve">
<path fill="#FFFFFF" stroke="#000000" d="M351.4,309c27.898-27.5,31.3-17.6,5.8,10.4c0,0-18.7,22.1-63.7,17.898
	c-44.9-4.199-32.9-0.8-35.4-0.8c-2.4,0-29,7.2-35.4,33.101c0.7-6.899-0.9-16.399-1.2-17.699c2.7,0.398-6.5-6.4,1.3-17.801
	c4.6-6.801,15.2-15.101,37.8-24.601c6.5-2.7,42.1-4.601,50.8-7.5c5.6-1.899,10-7.5,15.8-8.3c1.8-0.301-1.3,2.699-7.9,10.398
	c-0.8,0.9-13.899,8-28.7,8.7c-32.5,1.7-63.8,17.8-61.2,28.7c0,0,17.5-12.9,26.6-15.4c9.4-2.6,38.5,1.301,43.7,1.7
	C306.1,328.1,325.9,334.2,351.4,309z"/>
<path fill="#FFFFFF" stroke="#000000" d="M293.8,221.8l-0.399-0.3l0,0l48.899-1.6l5-0.4l-4.2-5c0,0,11.4,0.8,10.602,2.9
	c-0.801,2.1,0.199,4.199,0.199,4.199s2.101,2.5,1.199,4.601c-0.8,2-4.6,0.2-5,0c0.301,0.2,3.7,2.6,2.9,5.399
	c-0.8,2.899-4.6,2.101-4.6,2.101c0.1,0.3,4,3.7,2.5,3.7c-2.7,0-6.301-2-6.801-2.301c0-1.301-1.899-3.101-1.899-3.101l3.3-2.899
	L293.8,221.8L293.8,221.8z"/>
<path fill="#FFFFFF" stroke="#000000" d="M349.4,204.1L349.4,204.1L349.4,204.1z M349.4,204.1c0.5-0.1,5.398-1.5,5,1.301
	c-0.4,2.899-11.7,3.899-11.7,3.899l-0.101-0.1c0.801-0.8,2.801-3,3.899-3.4c1.2-0.399-5.8-0.399-5.8-0.399l2.898-3.699L293.4,221.6
	l42.699-26.898l4.2-4.2h-10l0,0c0.4-0.2,16.601-8.3,14.601-4.1c-2.101,4.201,0,5.4,0,5.4s5-0.398,4.601,1.7s-3.7,4.601-3.7,4.601
	s5.4,0.399,6.7,2.5C353.4,202.4,349.8,203.9,349.4,204.1z"/>
<path fill="#FFFFFF" stroke="#000000" d="M347.7,214.1l-4.601,0.4l4.199,5l-5,0.4l-48.9,1.6l50.201-19.9l-2.899,3.7c0,0,7,0,5.8,0.4
	c-1.1,0.399-3.1,2.6-3.9,3.399c-0.199,0.199-0.3,0.301-0.3,0.301L347.7,214.1z"/>
<path fill="#FFFFFF" stroke="#000000" d="M337.7,240.8c0.3,0.2,11.2,6.7,9.1,7.5c-2.1,0.8-4.2,0.8-2.899,4.2
	c1.301,3.3,4.199,5.8,1.699,7.1c-2.5,1.2-5.398,0-5.8,1.7c-0.399,1.7,3.3,4.2,0.8,5.4S335.2,265,335.2,265l0.8-5.8l5-1.3L293.8,222
	l-0.1-0.1l0,0l46.8,27.3L337.7,240.8z"/>
<path fill="#FFFFFF" stroke="#000000" d="M344.2,235.1c0,0.7-0.601,1.301-2.3,1.5c-5,0.4,1.199,5,1.199,5l-5.399-0.8l0,0l2.899,8.3
	l-46.801-27.3l51.801,7.3l-3.301,2.9C342.3,232,344.2,233.8,344.2,235.1z"/>
<polygon fill="#FFFFFF" stroke="#000000" points="341,257.8 336,259.1 335.2,264.9 330.2,260.7 330.2,268.2 326,262.4 326,270.7 
	321,265.3 318.6,272.8 293.8,221.9 "/>
<path fill="#FFFFFF" stroke="#000000" d="M340.2,190.4L336,194.6l-42.7,26.9l2.5-3.8l0.101-0.3L323.1,175v10.4c0,0,3-4.5,4.2-3.7
	c1,0.6-1.1,4.4-1.2,4.6l0,0l7.9,0.4l-3.7,3.7l0,0H340.2L340.2,190.4z"/>
<path fill="#FFFFFF" stroke="#000000" d="M332.3,177.1c0.8,3.3-6,8.9-6.2,9.1c0.101-0.2,2.2-4,1.2-4.6c-1.2-0.7-4.2,3.7-4.2,3.7V175
	L295.9,217.4l21.399-44.5l-6.7,2.9c0,0,0.4-3.3-0.399-3.7c0,0,3.3-8.1,5.8-8.7c2.1-0.5,5.8,3.3,4.6,7.1
	c-1.199,3.7,3.7-5.4,5.801-2.9c2.1,2.5,4.199,2.9,0.8,5C324,174.6,331.5,173.8,332.3,177.1z"/>
<path fill="#FFFFFF" stroke="#000000" d="M326,270.7c0,0,2.9,8.7,0,7.1c-2.9-1.7-5-4.6-5-2.1s2.1,7.1-0.4,7.5
	c-2.5,0.399-5.399-7.5-5.8-5.8c-0.399,1.699,2.9,8.3,0,7.5c-2.899-0.801-5.399-4.602-5.399-4.602c9.899-4.1-15.7-58.1-16.101-58.8
	l0.2,0.2h0.1l0.2,0.1l24.7,50.9l2.5-7.5L326,270.7z"/>
<path fill="#FFFFFF" stroke="#000000" d="M317.3,172.9L295.9,217.4l-2.601,4.1l-2.7-54l4.2,6.7c0,0,3-6.6,5-6.2
	c2.101,0.4,2.5,8.3,2.5,8.3s5.9-5.2,7.9-4.2c0.8,0.4,0.399,3.7,0.399,3.7L317.3,172.9z"/>
<path fill="#FFFFFF" stroke="#000000" d="M312.7,63.5l-9.2,6.2l7.5,7.9l-8.7,4.6l6.2,9.2l-9.1,4.4v0.1l-25-12.9l-3.3-6.2l0.1-0.1
	l4.1,1.5l-5.8-6.2l12.5-2.1l-10.4-5l23.3-3.8l0,0C309.8,62.7,312.7,63.5,312.7,63.5z"/>
<polygon fill="#FFFFFF" stroke="#000000" points="310.2,58.5 294.8,61 271.5,64.7 282.8,58.1 268.2,60.6 281.9,47.3 268.6,54.4 
	271.6,48 293.5,34 304.8,34.8 299.4,43.5 307.3,45.6 301.1,51.4 "/>
<path fill="#FFFFFF" stroke="#000000" d="M293.3,221.5c0.3,0.7,26,54.6,16.101,58.8l-5-6.2L302.3,282.4l-4.2-5.399L293.9,282.4
	L292.6,276.6l-4.199,6.2l4.6-45.6c0-0.101,0-0.101,0-0.101c0-2.899,0-15.399,0-15.399L293.3,221.5L293.3,221.5L293.3,221.5z"/>
<polygon fill="#FFFFFF" stroke="#000000" points="283.6,112.6 252,77.2 250.7,71.4 264.4,87.2 269.8,89.7 269.4,81.8 274.4,83 
	299.4,95.9 306.9,99.7 291.1,98 298.2,109.3 286.1,105.1 291.9,117.2 "/>
<path fill="#FFFFFF" stroke="#000000" d="M300.2,161.3c0.399,6.2-0.4,6.7-0.4,6.7c-2-0.4-5,6.2-5,6.2l-4.2-6.7l2.7,54l-8.5-54.8
	l-4.399,5c0.1-2.2,0.5-14.8,2.699-12.9c2.5,2.1,3.7,4.2,3.7,4.2s3.3-7.1,4.601-4.6c1.199,2.5,1.3,5.3,2.1,4.6
	C294.5,162,299.8,155,300.2,161.3z"/>
<polygon fill="#FFFFFF" stroke="#000000" points="274.2,10.3 274.4,9.8 274.8,19 286.1,16.1 281.5,26 291.5,22.7 289,30.6 
	299.4,30.2 293.5,34 271.6,48 272.8,45.6 264,49.8 267.8,36 251.1,56.8 248.6,58.9 "/>
<path fill="#FFFFFF" stroke="#000000" d="M280.4,171.7l4.399-5l8.5,54.8c0-1.7-34.3-39-34.3-39l7.5,1.7l-1.7-5l6.7,0.4
	c0,0-1.8-7.1,0-7.9c1.2-0.5,3.7,3.7,3.7,3.7l2.1-7.1l1.7,5L280.4,171.7z"/>
<path fill="#FFFFFF" stroke="#000000" d="M256.5,178.7c-0.1-0.3-1.7-6-0.4-6.2c2.7-0.5,8.7,6.7,8.7,6.7l1.7,5l-7.5-1.7
	c0,0,34.3,37.3,34.3,39l0,0l-7.2-6.9l-32.5-27.5l-1.2,7.5c0,0-5.2-3.5-6.7-2.5c0,0-3.5-3.6-2.5-7.1c0.5-1.6,1.7,0.4,4.2-0.4
	c2.5-0.8,1.1-5.2,2.9-6.2C253.1,176.7,256.3,178.6,256.5,178.7z"/>
<path fill="#FFFFFF" stroke="#000000" d="M286.1,214.5l7.2,6.9l-0.1,0.1l-20-2.5c0,0-10.4-4.2-35.8-17.1l7.9-1.7
	c0,0-1.3-7.2,0.4-8.3c1.5-1,6.7,2.5,6.7,2.5l1.2-7.5L286.1,214.5z"/>
<path fill="#FFFFFF" stroke="#000000" d="M265.3,235.4c0-0.2-0.1-0.301-0.1-0.5c-0.4-4.2,7.899-15.801,7.899-15.801l20,2.5
	c0,0,0,12.5,0,15.399v0.101c-0.399,2.899-13.8,6.5-18.3,6.5C270.5,243.7,266.1,239.4,265.3,235.4z"/>
<polygon fill="#FFFFFF" stroke="#000000" points="283.6,112.6 282.3,124.2 273.2,116.7 273.6,129.6 265.3,119.7 266.1,132.6 
	256.7,122.3 252.4,93.4 257.8,101.4 257,93.4 264.4,97.2 252,77.2 "/>
<polygon fill="#FFFFFF" stroke="#000000" points="268.6,54.4 281.9,47.3 268.2,60.6 282.8,58.1 271.5,64.7 281.9,69.7 269.4,71.8 
	275.3,78 271.2,76.6 254.4,70.6 254.4,70.3 257.4,69.3 249.5,64.7 "/>
<polygon fill="#FFFFFF" stroke="#000000" points="271.1,76.7 274.4,83 269.4,81.8 269.8,89.7 264.4,87.2 250.7,71.4 254.4,70.3 
	254.4,70.6 271.2,76.6 "/>
<polygon fill="#FFFFFF" stroke="#000000" points="274.2,10.3 248.6,58.9 248.2,59.2 256.1,23.1 248.2,34.4 245.3,22.7 241.1,34.8 
	236.6,24.4 234.9,9.9 241.1,1.6 245.3,7.7 250.7,1.6 256.1,10.6 265.7,4 266.1,12.7 "/>
<polygon fill="#FFFFFF" stroke="#000000" points="271.6,48 268.6,54.4 249.5,64.7 251.1,56.8 267.8,36 264,49.8 272.8,45.6 "/>
<path fill="#FFFFFF" stroke="#000000" d="M214,264.3c-0.2,11.9,0.3,21.8,2.6,22.601c1.8,0.601,3.6-1.801,6.3-6.199
	c6.1-9.9,16.8-29.5,42.5-45.301c0.7,4,5.1,8.199,9.5,8.199c0,0-39.101,16.602-48.7,43.7c-2.1,0.4-2.5,5-2.9,6.7
	c-4.5,35.2-0.3,30.6-0.4,39.9l0.1,0.1c-7.8,11.4,1.4,18.2-1.3,17.8c-0.1-0.2-0.1-0.2,0,0l0,0c0.3,1.3,1.9,10.9,1.2,17.7
	c-0.3,1.1-0.5,2.3-0.7,3.4H213c0.1-1.801,0.3-3.5,0.4-5.301c0.4-6,0.6-12,0.7-17.801c0.1-5.398,0.1-10.699-0.1-15.898
	c-0.1-3.602-0.3-7.2-0.5-10.7c-6.4-108.2-60.2-174.9-60.2-174.9l-0.1-0.2c3-2.2,5-3.9,6.4-5.2c10.9,0.3,44.5,95,44.5,88.6
	c0-7.5,1-45.8-2.1-53.3l0,0c-0.7-11,1.1-12.1,1.8-12.1l0,0c0.1,0.1,0.2,0.1,0.3,0.1c2.1-0.4,3.3-41.6,3.3-41.6
	c1.2,0,8.8-7.6,9.5-8.3l-5.3,11.2l4.9-2.3l0.1,0.2c0,0-8.7,71.6,0,94.9C216.6,220.4,214.3,245,214,264.3z"/>
<path fill="#FFFFFF" stroke="#000000" d="M252,77.2l12.5,20l-7.5-3.7l0.8,7.9l-5.4-7.9l-2.5,10.8c0,0-3.3-10-3.3-11.2
	c0-1.3-1.8,9-1.8,9l-0.8-7.5l-1.6-14.9l4.6-3.3L252,77.2z"/>
<path fill="#FFFFFF" stroke="#000000" d="M256.7,122.3l1.9,12.7l-6.2-6.7l-5.8,8.7l-6.2-10.4l-0.1-0.1l0.6-1.2l-0.4-25.3l2.5,4.5
	l1.1-10.1h0.1l0.8,7.5c0,0,1.8-10.3,1.8-9c0,1.2,3.3,11.2,3.3,11.2l2.5-10.8L256.7,122.3z"/>
<path fill="#FFFFFF" stroke="#000000" d="M248.2,59.2l0.4-0.3l2.5-2.1l-1.7,7.9l7.9,4.6l-3,0.9l-3.7,1.1l1.3,5.8l-5-0.8l-4.6,3.3
	l-3.3-4.2l-2.6-0.2l0.1-0.2c0,0,0,0.1-0.1,0.2l-1.9-0.2l1.3-5l-5-5l4.2-0.8l0.8-5.4l5.4,3.7l1.7-8.7l3.3,7.1L248.2,59.2z M247.8,71
	l1.3-1.7l-4.6-0.4l1.7-5.4l-1.7,1.7l-0.8-2.1l-2.5,2.1l-0.4,3.3l-5.4,0.4l2.9,1.7v3.3l3.3-3.3l3.3,3.7l3.7-0.4L247.8,71z"/>
<path fill="#FFFFFF" stroke="#000000" d="M256.1,23.1l-7.9,36.1l-2.1,1.8l-3.3-7.1l-1.7,8.7l-5.4-3.7c0-2.9-10-30.4-10-30.4l10,10.4
	l0.8-14.6l4.6,10.4l4.2-12.1l2.9,11.7L256.1,23.1z"/>
<path fill="#FFFFFF" stroke="#000000" d="M226.1,287.4c0,0,42-10.4,50.4-10.801c0,0-29.1,20-53.3,17.5
	C223.6,292.3,224.1,287.8,226.1,287.4z"/>
<polygon fill="#FFFFFF" stroke="#000000" points="249,69.3 247.8,71 248.6,73.9 244.9,74.3 241.5,70.6 238.2,73.9 238.2,70.6 
	235.3,68.9 240.7,68.5 241.1,65.2 243.6,63.1 244.5,65.2 246.1,63.5 244.5,68.9 "/>
<polygon fill="#FFFFFF" stroke="#000000" points="240.3,100.2 240.3,100.1 240.2,96.4 234.9,105.9 232.8,96.8 227.8,103.4 
	236.2,76.2 236.1,76.1 236.5,75.3 239,75.6 242.4,79.7 244,94.6 243.9,94.6 242.8,104.7 "/>
<polygon id="www.ABC-color.com" fill="#FFFFFF" stroke="#000000" points="216.9,116.4 236.1,76.1 236.2,76.2 227.8,103.4 
	232.8,96.8 234.9,105.9 240.2,96.4 240.3,100.1 240.3,100.2 240.7,125.5 240.2,126.7 236.1,135.1 232.4,124.7 226.6,133.8 
	226.6,123.8 220.3,130.5 220.3,123.4 216.5,125.2 211.6,127.6 "/>
<path fill="#FFFFFF" stroke="#000000" d="M234.9,9.9l1.7,14.5L235.8,39l-10-10.4c0,0,10,27.5,10,30.4l-23.7-39l4.5-11l5.8,5.4
	l1.3-8.7l5.4,5.4l3.7-9.4L234.9,9.9z"/>
<path fill="#FFFFFF" stroke="#000000" d="M236.5,75.3l-0.4,0.8l-19.2,40.2c-0.7,0.7-8.3,8.3-9.5,8.3c-1.2,0,2.1-12.1,2.1-12.1
	l-10,7.1L202,108l-8.7,4.2c0,0,1.1-6.9,1.5-8.5c0.1-0.1,0.1-0.2,0.1-0.2c0-0.2,0-0.1-0.1,0.2c-1,0.8-7.8-0.2-7.8-0.2l9.7-8.6
	l20.7-18.4l-4.2,8.7l7.5-3.8c0,0-0.8,12.1,0.4,12.1C222.3,93.4,235,77.2,236.5,75.3L236.5,75.3z"/>
<path fill="#FFFFFF" stroke="#000000" d="M222.3,63.3l8.5,1.8l5,5l-1.3,5l1.9,0.2c-1.5,1.9-14.1,18.1-15.3,18.1
	c-1.3,0-0.4-12.1-0.4-12.1l-7.5,3.8l4.2-8.7l-7.5-1.3l6.2-7.1l-4.6-7.1L222.3,63.3z"/>
<polygon fill="#FFFFFF" stroke="#000000" points="212.1,19.9 235.7,58.9 217,37.3 221.2,49.3 212.1,48.1 199,38.5 187.4,30.2 
	200.3,29.8 195.3,20.6 204.9,25.2 205.3,14.8 212,19.8 "/>
<polygon fill="#FFFFFF" stroke="#000000" points="217,37.3 235.7,58.9 234.9,64.3 230.7,65.2 222.3,63.3 207.4,55.6 218.2,54.3 
	212.1,48.1 221.2,49.3 "/>
<path fill="#FFFFFF" stroke="#000000" d="M221.6,239.5c-2.5-4.6,12.9,5,1.2,41.2h0.1c-2.7,4.399-4.5,6.8-6.3,6.2
	c-2.2-0.801-2.8-10.7-2.6-22.602C215.6,261.2,223.8,243.7,221.6,239.5z"/>
<path fill="#FFFFFF" stroke="#000000" d="M200.6,63.5l-21.1-6.2l7.1-3.7l-5.8-7.9l10.8,0.8L184.5,36c0,0,12.1,2.8,14.5,2.5l13.2,9.6
	l6.1,6.2l-10.8,1.3l14.9,7.7L211.6,61l4.6,7.1L200.6,63.5z"/>
<polygon fill="#FFFFFF" stroke="#000000" points="217.4,76.4 196.7,94.8 196.6,94.7 187.4,98.4 191.3,90.3 "/>
<polygon fill="#FFFFFF" stroke="#000000" points="217.4,76.4 191.3,90.3 183.3,96.4 186.6,85.1 177,80.1 184.1,72.2 177.4,63.1 
	200.6,63.5 216.2,68.1 209.9,75.1 "/>
<path fill="#FFFFFF" stroke="#000000" d="M213.5,323.3c0.2,3.5,0.4,7.101,0.5,10.7c-3.1-2.3-42.2-31.8-48.2-36.2
	c-5.9-4.3-21.2-29.1-22.9-32C141.2,262.9,120,210.9,122.5,208c2.5-3,10.8,14,11.2,15.3c0.4,1.3,35,64.9,35.8,64.9
	s19.6,19.6,17.9,14.6c-1.7-5-17.1-72.399-27.1-69.899c0,0,9.6-8.101,24.1,27.899c13.3,32.9,10,48.3,10,48.3S210.8,325.3,213.5,323.3
	z"/>
<path fill="#FFFFFF" stroke="#000000" d="M214.1,349.9c-0.1,5.8-0.3,11.8-0.7,17.8l0,0c0,0-18.8-41.2-36.3-33.3
	c-17.5,7.898-45-25-45-25l-6.2-10.801c0,0,18.7,12.9,31.6,18.301c0,0,11.7,7.101,22.5,7.5C190.7,324.8,204.1,332.7,214.1,349.9z"/>
<path fill="#FFFFFF" stroke="#000000" d="M202,178.3L202,178.3c-0.4-0.8-0.8-1.3-1.3-1.3c-4.6,0.4-36.6-104-36.6-104
	s27.9,46.6,31.2,67.8c0.6,4,6.2,24,8.5,25.3C203.1,166.2,201.3,167.3,202,178.3z"/>
<path fill="#FFFFFF" stroke="#000000" d="M134.6,114.7c0.1,0,0.3,0,0.4-0.1c5-0.8,18.8,4.1,23.7,14.6c3.8,7.9,3.3,9.7,3.3,9.7
	s0.8,0.9-2.5,4.1c-1.3,1.3-3.4,3-6.4,5.2c-1.3,0.9-2.8,2-4.5,3.1c-7.5,5-26.2-16.6-26.2-16.6l-2.5-5c0,0,0.4-7.1,0.4-9.2
	c0-1,1.2-2,2.4-2.9l0.2,0.2l-0.1-0.3c1.2-0.9,2.5-1.8,3-2.9c0.5-1.2,1.9-0.7,3.9-0.3C131.1,114.7,132.7,115,134.6,114.7z"/>
<path fill="#FFFFFF" stroke="#000000" d="M150.4,86.7l3.3-4.4v7.9l5-1.7l-4.2,5.8l5,2.9l-3.3,4.6l4.6,2.9l-26.2,10.1
	c-1.9,0.2-3.5,0-4.8-0.3v-0.1L150.4,86.7z"/>
<path fill="#FFFFFF" stroke="#000000" d="M145.1,84.4l-15.3,29.9v0.1c-2.1-0.5-3.4-1-3.9,0.3l3.3-47.8l0.4-6.3l4.2,7.9l7.1-5.8
	l-2.5,7.9l8.3-1.7l-2.5,6.7l6.7,0.8l-4.2,5L145.1,84.4z"/>
<polygon fill="#FFFFFF" stroke="#000000" points="150.4,86.7 129.8,114.3 145.1,84.4 146.6,86.8 "/>
<polygon fill="#FFFFFF" stroke="#000000" points="129.2,66.8 125.8,114.7 125.4,112.6 121.6,66.8 125.4,71.8 "/>
<path fill="#FFFFFF" stroke="#000000" d="M121.6,66.8l3.8,45.8l0.4,2.1c-0.4,1-1.7,2-3,2.9L100,67.9l-4.1-9l8.3,4.6l3.3-7.5l5,7.1
	l6.2-5.4l2.5,4.6L121.6,66.8z"/>
<path fill="#FFFFFF" stroke="#000000" d="M122.9,117.5C122.9,117.5,122.8,117.6,122.9,117.5l-28-36.3l-1.6-9.4l5.8,1.7l0.4-5.4
	l0.4-0.2L122.9,117.5z"/>
<path fill="#FFFFFF" stroke="#000000" d="M94.9,81.2l27.9,36.3c-1.3,0.9-2.4,1.9-2.4,2.9l-37.6-21l-14.4-8l6.7-1.7L72.6,83l6.7-0.8
	l0.4-6.7L83,76l2.5-7.1L94.9,81.2z"/>
<path fill="#FFFFFF" stroke="#000000" d="M120.4,120.5l-43.8-3.7l0,0l-5.2-7.4c0,0,8.6-0.5,8.1-2.2c-0.4-1.7-5-7.9-5-7.9l8.2,0.2
	L120.4,120.5z"/>
<path fill="#FFFFFF" stroke="#000000" d="M78,143.9l-13.3,4.5l3.7-9.1l-7.1-2.1l7.9-4.2l-7.9-5.8l6.2-3.3l-5.8-8.3l14.9,1.3
	l43.8,3.7c0,2.1-0.4,9.2-0.4,9.2L78,143.9z"/>
<polygon fill="#FFFFFF" stroke="#000000" points="84.9,155.2 120,129.6 106.3,167.9 101.7,174.6 99.2,168.8 93.8,172.1 94.6,165.9 
	86.3,167.9 88.8,157.9 78.4,160 "/>
<polygon fill="#FFFFFF" stroke="#000000" points="120,129.6 84.9,155.2 84.2,149.6 78,149.6 78,143.9 "/>
</svg>
