<?xml version="1.0" encoding="utf-8"?>
<!-- Generator: Adobe Illustrator 15.0.0, SVG Export Plug-In . SVG Version: 6.00 Build 0)  -->
<!DOCTYPE svg PUBLIC "-//W3C//DTD SVG 1.1//EN" "http://www.w3.org/Graphics/SVG/1.1/DTD/svg11.dtd">
<svg version="1.1" id="Layer_x5F_www.ABC-color.com"
	 xmlns="http://www.w3.org/2000/svg" xmlns:xlink="http://www.w3.org/1999/xlink" x="0px" y="0px" width="822px" height="567px"
	 viewBox="0 0 822 567" enable-background="new 0 0 822 567" xml:space="preserve">
<path fill="#FFFFFF" stroke="#000000" stroke-width="0.25" d="M279.4,113.8c10,7.9,19.4,18.3,27.5,32c-7.9,1.8-15.9,7.5-21,21.5
	c0,0-10.6,3.7-20.9,9.7v-0.1c-20-33.6-51.5-39.5-80.1-35.9l-0.1-0.9c0,0-12.8-31.7-2.3-40c8.3-6.6,37.4-12.9,67.9-2.3
	C260.2,101.2,270,106.4,279.4,113.8z"/>
<path fill="#FFFFFF" stroke="#000000" stroke-width="0.25" d="M265,177L265,177c-16.5,9.5-32.4,24.7-3.8,39.2
	c-7.8-3.2-21.9-7.3-29.6,1c0,0-48.1-13.2-90.5,5.3l-0.1-2.3c0,0-25.7-36.2-21.9-55.8c0,0,30.7-18.8,65.8-23.3
	C213.5,137.4,245,143.4,265,177z"/>
<path fill="#FFFFFF" stroke="#000000" stroke-width="0.25" d="M238.4,279.8c0,0-5.2,7.2-7.9,16l-0.4-0.1
	c-37,20.2-67.4,22.6-90.4,18.1c-34.7-6.6-53-28.7-53-28.7c11.2-34.2,32-52.899,54.4-62.7c42.4-18.5,90.5-5.3,90.5-5.3
	c-3.4,3.6-5.5,9.5-5.3,18.9C226.3,236,203.3,271.2,238.4,279.8z"/>
<path fill="#FFFFFF" stroke="#000000" stroke-width="0.25" d="M201.2,401.8C145,431.9,113.1,413.4,113.1,413.4
	c-1.5-71.7,26.4-98.9,26.4-98.9l0.1-0.7c23.1,4.4,53.4,2,90.4-18.1l0.4,0.1c-4.5,14-2.9,32,35.1,31.601c2.8,0,7.8,5.301,14,10.899
	C249.9,370,223.7,389.7,201.2,401.8z"/>
<path fill="#FFFFFF" stroke="#000000" stroke-width="0.25" d="M359.1,374.2c-21.398,39.2-44.7,64.8-66.3,81.5
	c-43.2,33.3-79.4,31-79.4,31c-25.4-47.3-13.9-80.7-12.3-84.9c22.4-12,48.7-31.8,78.4-63.5c5,4.5,10.8,9.2,17,11.5l-0.1,0.2
	c0,0-19.6,40-1.5,67.2c12.4,18.6,45.8-14.2,63.8-43.2L359.1,374.2z"/>
<path fill="#FFFFFF" stroke="#000000" stroke-width="0.25" d="M370.5,341.7c1.5,5.8-2.5,16.6-9.4,28.5c-0.698,1.2-1.5,2.5-2.3,3.8
	c-18,29-51.4,61.9-63.8,43.2c-18.1-27.2,1.5-67.2,1.5-67.2l0.1-0.2c9.3,3.5,19.4,1.8,28.6-14.1c22.3,24.399,36.398,17.3,44.5,5.5
	L370.5,341.7z"/>
<path fill="#FFFFFF" stroke="#000000" stroke-width="0.25" d="M408.3,324.1c0.602,0,11.9,23.5,30.7,45.7l-0.6,0.5
	c0,0-36.2,64.2-53.602,64.2c-17.398,0-23.398-64.2-23.398-64.2l-0.302-0.2c6.9-11.898,10.9-22.699,9.4-28.5l-0.7-0.5
	c7-10.1,9.8-23.6,9.8-23.6c12.2,4.9,21.5,6.5,28.7,6L408.3,324.1L408.3,324.1z"/>
<path fill="#FFFFFF" stroke="#000000" stroke-width="0.25" d="M361.4,370.4c0,0,6,64.198,23.398,64.198
	c17.4,0,53.602-64.198,53.602-64.198l0.6-0.5c2.8,3.398,5.8,6.699,9,9.898c-4.7,22.602-10.2,42.2-16.3,59
	C400.6,525.7,356.9,541,356.9,541c-45.3-3-63.4-84.5-63.4-84.5l-0.6-0.8c21.6-16.7,44.9-42.2,66.3-81.5l-0.4-0.2
	c0.8-1.3,1.5-2.5,2.3-3.8L361.4,370.4z"/>
<path fill="#FFFFFF" stroke="#000000" stroke-width="0.25" d="M503.2,322c0-0.2,7.3,8.7,18.898,16.7l0,0
	c5,14.7,11.302,27.5,18.602,38.7l-0.3,0.199c21.1,145.699-3.2,145.301-3.2,145.301c-46.8,9.8-104.3-83.602-104.3-83.602l-1.2-0.398
	c6-16.9,11.6-36.4,16.3-59c11.3,11.398,24.6,21.398,39.5,26.1c36.5,11.5,25.4-46.3,15.4-83.8L503.2,322z"/>
<path fill="#FFFFFF" stroke="#000000" stroke-width="0.25" d="M577.3,301.7L577.3,301.7c3.8,3.1,7.7,6,11.7,8.6
	c25.2,20,81.7,73.5,75.8,145.3c0,0-79.3-8.898-124.1-78.3c-7.3-11.3-13.602-24.1-18.602-38.7c12.302,8.5,29.5,15.9,48.302,10.602
	c0,0,15-32.102-1.5-55.1C571.6,296.8,574.4,299.3,577.3,301.7z"/>
<path fill="#FFFFFF" stroke="#000000" stroke-width="0.25" d="M522.2,338.7c-11.7-8-18.9-17-18.9-16.7l-0.398,0.1
	c-3.602-13.6-7.102-24.5-8.2-28.5c3.3-0.199,6.5-2.3,8.398-6.8h0.4l0.1,1.7c10.102,12.2,18.802-1.7,18.802-1.7
	c15.8,2.4,10.5-10.5,10.5-10.5v-0.1c4.698,1.7,7.6,1.5,9.3,0.3c13.1,4.1,21.6,10.5,26.8,17.8c16.5,23,1.5,55.101,1.5,55.101
	C551.7,354.6,534.5,347.1,522.2,338.7L522.2,338.7z"/>
<path fill="#FFFFFF" stroke="#000000" stroke-width="0.25" d="M448,379.8c-3.2-3.2-6.2-6.5-9-9.899
	c-18.8-22.199-30.1-45.699-30.7-45.699l-0.1-0.602C439,321.3,430.1,279.2,430.1,279.2c4.602-2.1,8.102-4.5,10.802-7.1l1.3,0.3
	c0,0,2.3,27.2,24.898,31.7c0,0,19.2-10,17.5-18.199c1.2,5.1,5.602,8.1,10,7.8c1.102,4.1,4.602,15,8.2,28.5
	C512.9,359.7,524,417.5,487.4,406C472.6,401.2,459.3,391.2,448,379.8z"/>
<path fill="#FFFFFF" stroke="#000000" stroke-width="0.25" d="M430.1,279.1c0,0,8.9,42.1-21.898,44.4c-7.2,0.5-16.602-1.1-28.7-6
	c0,0-2.7,13.5-9.8,23.6c-8.2,11.801-22.2,18.9-44.5-5.5l4.5-76.2l-0.3-0.9c2.8-1,5.698-2.3,8.6-3.8c6.5-3.6,11.9-8,15.7-12.8
	l0.2,0.2L430.1,279.1z"/>
<path fill="#FFFFFF" stroke="#000000" stroke-width="0.25" d="M304.3,229.9c3.7-4.1,8.5-7.9,14.2-11c5.9-3.2,11.9-5.2,17.4-6
	c9.1-1.4,17,0.3,21.198,5.1c0.602,0.7,1.102,1.4,1.602,2.2c3.3,6.1,1.1,14.2-5,21.7c-3.8,4.7-9.2,9.2-15.7,12.8
	c-2.8,1.5-5.7,2.8-8.6,3.8c-14,4.9-27.2,3.1-31.7-5.1C294.1,246.9,297,237.9,304.3,229.9z"/>
<path fill="#FFFFFF" stroke="#000000" stroke-width="0.25" d="M279.6,338.3c-6.3-5.6-11.3-10.899-14-10.899
	c-38,0.5-39.6-17.601-35.1-31.601c2.8-8.8,7.9-16,7.9-16l59.3-26.4c4.5,8.2,17.7,10,31.7,5.1l0.3,0.9l-4.5,76.2
	c-9.2,15.9-19.3,17.7-28.6,14.102C290.4,347.4,284.6,342.7,279.6,338.3z"/>
<path fill="#FFFFFF" stroke="#000000" stroke-width="0.25" d="M297.7,253.4l-59.3,26.4c-35-8.6-12.1-43.8-12.1-43.8
	c-0.2-9.4,1.9-15.3,5.3-18.9c7.7-8.2,21.8-4.2,29.6-1c1.7,0.9,3.5,1.7,5.5,2.5l0,0c9,3.8,21.2,7.6,37.5,11.1
	C297,237.9,294.1,246.9,297.7,253.4z"/>
<path fill="#FFFFFF" stroke="#000000" stroke-width="0.25" d="M316.8,145.4c8.9,1.1,16,5.4,16,5.4c3.3,2.4,5.2,6.9,6.2,12.3
	c3.6,18.6-3.2,48.8-3.2,48.8l0.102,1c-5.602,0.8-11.602,2.8-17.4,6c-5.7,3.1-10.5,6.9-14.2,11c-16.3-3.6-28.6-7.3-37.5-11.1l0,0
	c-0.3-0.1-2.4-1.3-5.5-2.5c-28.6-14.6-12.7-29.7,3.8-39.2c10.3-5.9,20.9-9.7,20.9-9.7c5.1-14,13.1-19.8,21-21.5
	C310.3,145,313.7,145,316.8,145.4z"/>
<path fill="#FFFFFF" stroke="#000000" stroke-width="0.25" d="M413.6,167.2c1,3,1.102,6.8-0.1,11.5l-55.1,39.2H357.1
	c-4.198-4.8-12.1-6.5-21.198-5.1l-0.102-1c0,0,6.8-30.2,3.2-48.8c0.8-2.3,4.3-11.4,11.4-16.8c7.6-5.8,19.198-7.4,36,8.3
	C386.3,154.5,409,153.5,413.6,167.2z"/>
<path fill="#FFFFFF" stroke="#000000" stroke-width="0.25" d="M444.1,205.1c-0.3,6.2-2.898,13.9-8.8,23.4c0,0,23.602,25.9,5.5,43.5
	c-2.6,2.6-6.2,4.9-10.8,7.1l-76.2-37l-0.2-0.2c6.102-7.5,8.302-15.7,5-21.7c-0.398-0.8-1-1.6-1.6-2.2h1.3l55.102-39.2
	C413.5,178.7,445.3,181.1,444.1,205.1z"/>
<path fill="#FFFFFF" stroke="#000000" stroke-width="0.25" d="M484.6,285.7c1.7,8.2-17.5,18.2-17.5,18.2
	c-22.6-4.5-24.898-31.7-24.898-31.7l-1.3-0.3c18.1-17.6-5.5-43.5-5.5-43.5c5.898-9.5,8.5-17.2,8.8-23.4c2,2.9,10,13.3,19.2,11.4
	l7.698,10.5c-17.5,2-14.3,13.9-8.3,17c-20.6,6.1-0.398,18-0.398,18c-9.5,23.8,10.8,14.2,11.398,13.9
	C465.8,290.8,484.6,285.7,484.6,285.7z"/>
<path fill="#FFFFFF" stroke="#000000" stroke-width="0.25" d="M551.6,242.9c0.2,2-1,4.5-4.8,7.5l-33.7,4.4h-0.5
	c-1-2.4-3.5-4.4-6.6-5.2l0.1-0.3l14-24.5c0,0,21-6.8,19.7,10.5C539.8,235.4,551,237.4,551.6,242.9z"/>
<path fill="#FFFFFF" stroke="#000000" stroke-width="0.25" d="M542.1,276.4c-1.8,1.2-4.6,1.4-9.3-0.3
	c-0.398-0.1-0.898-0.3-1.398-0.5L507.9,264c3.1-1.4,5.1-3.9,5.1-6.9c0-0.8-0.2-1.6-0.5-2.4h0.5l33.7-4.4c0,0,15.8,9.2-2.602,15.6
	C544.1,266,546.1,273.7,542.1,276.4z"/>
<path fill="#FFFFFF" stroke="#000000" stroke-width="0.25" d="M532.8,276.1v0.1c0,0,5.3,12.899-10.5,10.5c0,0-8.8,13.899-18.8,1.7
	l-0.1-1.7l-0.802-21.6c2,0,3.802-0.4,5.4-1.1l23.5,11.5C531.9,275.7,532.4,275.9,532.8,276.1z"/>
<path fill="#FFFFFF" stroke="#000000" stroke-width="0.25" d="M494.6,293.6c-4.398,0.301-8.8-2.8-10-7.8c0,0-18.8,5.101-11-9.9l0,0
	l20.2-14.3c1.9,2.1,5.102,3.6,8.8,3.6l0.802,21.6H503C501.1,291.3,497.8,293.4,494.6,293.6z"/>
<path fill="#FFFFFF" stroke="#000000" stroke-width="0.25" d="M498.1,249.9c1.302-0.5,2.802-0.7,4.4-0.7c1.2,0,2.4,0.2,3.4,0.4
	c3.1,0.8,5.6,2.8,6.6,5.2c0.3,0.8,0.5,1.6,0.5,2.4c0,2.9-2,5.5-5.1,6.9c-1.602,0.7-3.4,1.1-5.4,1.1c-3.7,0-6.9-1.4-8.8-3.6
	c-1.102-1.3-1.8-2.8-1.8-4.4c0-1.1,0.3-2.2,0.898-3.2C493.9,252.2,495.8,250.7,498.1,249.9z"/>
<path fill="#FFFFFF" stroke="#000000" stroke-width="0.25" d="M493.8,261.6l-20.2,14.3l0,0c-0.6,0.3-20.898,9.8-11.398-13.9
	c0,0-20.102-11.9,0.398-18c2.2,1.2,29.802,9.9,29.802,9.9l0.398,0.2c-0.5,1-0.898,2-0.898,3.2C492,258.8,492.7,260.3,493.8,261.6z"
	/>
<path fill="#FFFFFF" stroke="#000000" stroke-width="0.25" d="M489.6,224c5.602,11.5,8.2,24.6,8.5,26c-2.3,0.8-4.198,2.3-5.3,4.1
	l-0.398-0.2c0,0-27.602-8.7-29.802-9.9c-5.898-3.1-9.198-15,8.302-17C471,226.9,479.6,208,489.6,224z"/>
<path fill="#FFFFFF" stroke="#000000" stroke-width="0.25" d="M489.7,224.1c0,0,0-0.1-0.102-0.1l0,0c-0.1-1-1.698-15.4,16.9-7.2
	c0,0,5.3-1.6,9.4-1.1c3.698,0.5,6.6,2.7,4.1,9.2l-14,24.5l-0.1,0.3c-1.102-0.3-2.2-0.4-3.4-0.4c-1.6,0-3.1,0.3-4.4,0.7
	c-0.3-1.4-2.898-14.5-8.5-26C489.7,224,489.7,224,489.7,224.1z"/>
<path fill="#FFFFFF" stroke="#000000" stroke-width="0.25" d="M507.1,201.3l8.9,14v0.3c-4.2-0.5-9.4,1.1-9.4,1.1
	c-18.6-8.2-17,6.1-16.898,7.2l0,0c0,0,0,0,0,0.1l0,0c-10.102-16-18.602,2.9-18.602,2.9l-7.698-10.5c0,0,9.8-12.8,2.3-24.9
	c6.398,1.2,14.3-1.6,14.3-1.6C483,206.5,497.9,213.4,507.1,201.3z"/>
<path fill="#FFFFFF" stroke="#000000" stroke-width="0.25" d="M546.8,250.4c3.8-3,5-5.5,4.8-7.5h0.802c4.8,2.8,11.5,0.1,18.1-4.2
	c28,11.7,51.5,6.4,68-1.8c2.8,1,96.4,35.8,85.2,107.1c0,0-79.3,3-134.7-33.6c-6.6-5.301-11.1-8.2-11.6-8.602l0,0
	c-2.9-2.4-5.7-4.9-8.302-7.6c-5.3-7.301-13.698-13.7-26.8-17.8c4-2.7,2-10.4,2-10.4C562.5,259.6,546.8,250.4,546.8,250.4z"/>
<path fill="#FFFFFF" stroke="#000000" stroke-width="0.25" d="M570.4,238.6c-6.602,4.4-13.302,7-18.102,4.2h-0.8
	c-0.6-5.5-11.8-7.5-11.8-7.5C541,218,520,224.8,520,224.8c2.5-6.6-0.4-8.8-4.1-9.2v-0.3l-8.9-14c1.8-2.3,3.3-5.3,4.5-9.1h0.7
	l0.1,3.8c17.3,27.2,32.4-3.8,32.4-3.8c4,0.8,7.2,0.8,9.7,0.3l0.1,0.4c0,0,42.3,15.1,37,26.4C591.6,219.4,581.3,231.4,570.4,238.6z"
	/>
<path fill="#FFFFFF" stroke="#000000" stroke-width="0.25" d="M638.4,236.8c-16.602,8.2-40.102,13.5-68,1.8
	c10.8-7.2,21.198-19.2,21.198-19.2c5.302-11.3-37-26.4-37-26.4l-0.1-0.4c4.5-0.8,7-3.3,8.4-6.4c24.398,9.1,46.198,4.6,63.5-4
	l0.198,0.4c0,0,38.2,11.9,38.2,34.6C664.8,217.2,655.2,228.5,638.4,236.8z"/>
<path fill="#FFFFFF" stroke="#000000" stroke-width="0.25" d="M667.8,147.7c0,0-15.8,21.7-41.398,34.5
	c-17.302,8.6-39.102,13.2-63.5,4c3.198-7.1,0-17.4,0-17.4l0.1-0.3c26.6,12.6,19.5-22.3,19.5-22.3c12.4-5.6,15.8-12.1,15.3-18
	C602.8,126.6,630.9,119,667.8,147.7z"/>
<path fill="#FFFFFF" stroke="#000000" stroke-width="0.25" d="M503.3,110.5c2.3-1.1,4.9-1.6,7.602-1.6c2,0,4,0.3,5.8,0.9
	c5.5,1.8,9.7,6.1,11.5,11.5c0.5,1.7,0.8,3.4,0.8,5.3c0,6.5-3.5,12.1-8.8,15.2c-2.7,1.6-5.9,2.5-9.3,2.5
	c-6.302,0-11.802-3.2-15.102-7.9c-1.898-2.8-3-6.2-3-9.8c0-2.6,0.602-5,1.602-7.2C496.1,115.5,499.3,112.3,503.3,110.5z"/>
<path fill="#FFFFFF" stroke="#000000" stroke-width="0.25" d="M488.7,53.2c0-0.1-0.102-0.3-0.2-0.4l0,0c-0.2-2.4-2.9-34.1,29.1-16
	c0,0,32.5-12.8,23.4,18.1l-24.2,54.3l-0.2,0.6c-1.8-0.6-3.8-0.9-5.8-0.9c-2.7,0-5.3,0.6-7.6,1.6c-0.5-3-5-32.1-14.7-57.6
	C488.7,53.1,488.7,53.1,488.7,53.2z"/>
<path fill="#FFFFFF" stroke="#000000" stroke-width="0.25" d="M575,78.3c0,0,36.2,8.3,12.1,33.2l-58.1,9.8h-0.8
	c-1.7-5.4-6-9.7-11.5-11.5l0.2-0.6L541,54.9C541,54.9,577.3,39.8,575,78.3z"/>
<path fill="#FFFFFF" stroke="#000000" stroke-width="0.25" d="M597.9,128.2c0.5,5.9-3,12.4-15.302,18c0,0,7.102,34.9-19.5,22.3
	c-0.8-0.4-1.6-0.8-2.398-1.2l-40.5-25.5c5.3-3.1,8.8-8.8,8.8-15.2c0-1.8-0.3-3.6-0.8-5.3h0.8l58.1-9.8
	C587.1,111.5,597.2,119.1,597.9,128.2z"/>
<path fill="#FFFFFF" stroke="#000000" stroke-width="0.25" d="M562.9,186.2c-1.4,3-3.9,5.5-8.4,6.4c-2.6,0.5-5.8,0.4-9.7-0.3
	c0,0-15.1,30.9-32.398,3.8l-0.102-3.8l-1.398-47.9c3.398,0,6.6-0.9,9.3-2.5l40.5,25.5c0.8,0.5,1.6,0.9,2.398,1.2l-0.1,0.3
	C562.9,168.9,566.2,179.1,562.9,186.2z"/>
<path fill="#FFFFFF" stroke="#000000" stroke-width="0.25" d="M495.7,136.4c3.3,4.8,8.8,7.9,15.1,7.9l1.4,47.9h-0.7
	c-1.2,3.8-2.8,6.8-4.5,9.1c-9.2,12-24,5.1-27.2-11.3c0,0-7.898,2.8-14.3,1.6c-6.5-1.3-11.4-6.7-4.5-23.4L495.7,136.4z"/>
<path fill="#FFFFFF" stroke="#000000" stroke-width="0.25" d="M442.2,97.2c3.8,2.5,51.3,21.9,51.3,21.9l0.8,0.4
	c-1,2.2-1.6,4.6-1.6,7.2c0,3.6,1.1,7,3,9.8L461,168.1c0,0-25.5,15.9-23.9-10.6c0.302-5.1,1.602-11.8,4.302-20.4
	c0,0-25.2-19.1-10.802-33.2C433.2,101.5,436.9,99.2,442.2,97.2z"/>
<path fill="#FFFFFF" stroke="#000000" stroke-width="0.25" d="M488.6,52.9c9.602,25.5,14.2,54.6,14.7,57.6c-4,1.8-7.2,5-9,8.9
	l-0.8-0.4c0,0-47.5-19.3-51.3-21.9c-10.2-6.8-18.9-34,11.3-38.5C453.5,58.7,471.2,17.4,488.6,52.9z"/>
<path fill="#FFFFFF" stroke="#000000" stroke-width="0.25" d="M437.1,157.6c-1.6,26.5,23.9,10.6,23.9,10.6
	c-6.9,16.8-2,22.2,4.5,23.4c7.5,12.1-2.3,24.9-2.3,24.9c-9.102,2-17.2-8.5-19.2-11.4c1.2-24-30.7-26.4-30.7-26.4
	c1.2-4.7,1.102-8.5,0.102-11.5c3.1-6,1.198-14.9-1.602-22.5l0.2-0.1c4.9,13,24.7,13,24.7,13H437.1z"/>
<path fill="#FFFFFF" stroke="#000000" stroke-width="0.25" d="M412.2,144.6l-0.2,0.1c-3.2-8.6-7.6-15.8-7.6-15.8l-0.102-0.1
	c3-3,0.8-8.7,0.8-8.7l0.102-0.1c13.898,5.5,10.2-9.7,10.2-9.7c5.198-1.9,7.3-4.2,7.898-6.3h7.4c-14.4,14.1,10.8,33.2,10.8,33.2
	c-2.7,8.6-4,15.3-4.3,20.4h-0.3C436.9,157.5,417.1,157.5,412.2,144.6z"/>
<path fill="#FFFFFF" stroke="#000000" stroke-width="0.25" d="M378.8,131.9c9,11.8,16.9-1.6,16.9-1.6c4.6,0.8,7.2-0.1,8.6-1.5
	l0.102,0.1c0,0,4.398,7.1,7.6,15.8c2.8,7.6,4.6,16.5,1.6,22.5c-4.6-13.6-27.3-12.6-27.3-12.6c-16.8-15.7-28.398-14.1-36-8.3l-1-0.8
	c-2.3,0-11.3-7.6-9.8-12.1c1.3-3.9,9.9-4.5,12.3-4.5c3.102,2.4,10.102,0.4,10.102,0.4c2,8.5,12.6,11.2,16.5,1h0.3L378.8,131.9z"/>
<path fill="#FFFFFF" stroke="#000000" stroke-width="0.25" d="M338.8,117.5c0,0-3.2-2.1-8-5.7c-9.2-6.9-24-19.1-32.7-31.7
	c-4.9-7-7.8-14.2-6.8-20.7c0,0,15.5,0.3,29.3,4.9c7.5,2.5,14.5,6.2,18.2,11.8l0.9,0.9c-3.5,4.2-1,10,2.6,12
	c-18.5,5.9-0.398,17.4-0.398,17.4c-1.9,5.2-2.5,8.8-2.2,11.1H338.8z"/>
<path fill="#FFFFFF" stroke="#000000" stroke-width="0.25" d="M297.6,80.4l0.4-0.3c8.7,12.6,23.6,24.8,32.7,31.7
	c-24.1-10.3-29.7-3.3-29.7-3.3s-19.6-15.9-22.6-9.8c-2.5,4.9-0.8,11.9,1.1,15.1c-9.4-7.4-19.3-12.6-29-15.9
	c-0.7-1.3-11-19.8-4.5-27.8C252.4,62.1,293,74,297.6,80.4z"/>
<path fill="#FFFFFF" stroke="#000000" stroke-width="0.25" d="M316.8,145.4c-3.1-0.4-6.5-0.3-9.8,0.4c-8.1-13.7-17.5-24.2-27.5-32
	c-1.9-3.2-3.5-10.2-1.1-15.1c3-6,22.6,9.8,22.6,9.8C293.8,123.7,315.1,143.9,316.8,145.4z"/>
<path fill="#FFFFFF" stroke="#000000" stroke-width="0.25" d="M352.1,119.8c-2.5,5.1-2,7.8-0.3,9.1c-2.3,0.1-11,0.6-12.3,4.5
	c-1.5,4.5,7.5,12.1,9.8,12.1l1,0.8c-7,5.4-10.6,14.5-11.398,16.8c-1-5.5-3-9.9-6.2-12.3c0,0-7-4.3-16-5.4
	c-1.6-1.5-23-21.6-15.8-36.9c0,0,5.6-7,29.7,3.3c4.802,3.6,8,5.7,8,5.7l0.9-0.1C340.7,125.5,351.7,120,352.1,119.8z"/>
<path fill="#FFFFFF" stroke="#000000" stroke-width="0.25" d="M351.8,128.9c-1.7-1.3-2.2-4,0.3-9.1l0,0l18-13.8
	c1.7,2.1,4.602,3.5,7.9,3.5l0.7,20.8h-0.3c-3.9,10.2-14.602,7.5-16.5-1C361.9,129.3,354.9,131.3,351.8,128.9z"/>
<path fill="#FFFFFF" stroke="#000000" stroke-width="0.25" d="M405.2,119.9L405.1,120c0,0,2.102,5.7-0.8,8.7
	c-1.398,1.4-4,2.3-8.6,1.5c0,0-7.9,13.5-16.9,1.6l-0.1-1.6l-0.7-20.8c1.8,0,3.4-0.4,4.8-1.1l21.101,11.1
	C404.4,119.6,404.8,119.8,405.2,119.9z"/>
<path fill="#FFFFFF" stroke="#000000" stroke-width="0.25" d="M423.2,104c-0.5,2.1-2.7,4.3-7.9,6.3c0,0,3.7,15.2-10.2,9.7
	c-0.398-0.1-0.8-0.3-1.198-0.5L382.8,108.4c2.8-1.4,4.602-3.8,4.602-6.6c0-0.8-0.102-1.6-0.4-2.3h0.4l30.3-4.3
	C417.7,95.1,424.4,99.3,423.2,104z"/>
<path fill="#FFFFFF" stroke="#000000" stroke-width="0.25" d="M374.1,94.7c1.2-0.5,2.5-0.7,3.9-0.7c1.1,0,2.1,0.1,3.1,0.4
	c2.802,0.8,5,2.7,5.9,5c0.3,0.7,0.4,1.5,0.4,2.3c0,2.8-1.802,5.3-4.602,6.6c-1.398,0.7-3.1,1.1-4.8,1.1c-3.3,0-6.2-1.4-7.9-3.5
	c-1-1.2-1.6-2.7-1.6-4.3c0-1.1,0.3-2.1,0.8-3.1C370.3,96.9,372,95.5,374.1,94.7z"/>
<path fill="#FFFFFF" stroke="#000000" stroke-width="0.25" d="M370.1,106L352,119.8l0,0c-0.4,0.2-11.4,5.8-12.4-2.3
	c-0.3-2.4,0.2-5.9,2.2-11.1c0,0-18.1-11.5,0.4-17.4c2,1.1,26.7,9.5,26.7,9.5l0.398,0.2c-0.5,0.9-0.8,2-0.8,3.1
	C368.6,103.3,369.2,104.7,370.1,106z"/>
<path fill="#FFFFFF" stroke="#000000" stroke-width="0.25" d="M366.4,69.7c5,11.1,7.398,23.7,7.6,25c-2.1,0.8-3.8,2.2-4.7,3.9
	l-0.398-0.2c0,0-24.7-8.4-26.7-9.5c-3.602-2-6.102-7.8-2.602-12c1.7-2.1,4.9-3.8,10.102-4.4C349.7,72.5,357.4,54.2,366.4,69.7
	L366.4,69.7z"/>
<path fill="#FFFFFF" stroke="#000000" stroke-width="0.25" d="M366.5,69.8c0,0,0-0.1-0.1-0.2c-0.102-0.7-0.7-6.7,3.398-8.7
	c2.2-1.1,5.9-1,11.8,1.8c0,0,16.9-5.6,12.2,7.9l-12.6,23.6l-0.102,0.3c-1-0.3-2-0.4-3.1-0.4c-1.4,0-2.8,0.3-3.9,0.7
	C373.8,93.4,371.5,80.8,366.5,69.8C366.5,69.7,366.5,69.8,366.5,69.8z"/>
<path fill="#FFFFFF" stroke="#000000" stroke-width="0.25" d="M409.8,72.8c1.2,1.7,1.9,4.3,1.7,7.9c0,0,18.9,3.6,6.3,14.4l-30.3,4.3
	h-0.4c-0.898-2.3-3.1-4.2-5.898-5l0.1-0.3l12.6-23.6C393.7,70.5,405.3,66.5,409.8,72.8z"/>
<path fill="#FFFFFF" stroke="#000000" stroke-width="0.25" d="M439.9,28.5c6.8,11.3,13.6,19.6,13.6,30.2
	c-30.2,4.5-21.6,31.7-11.3,38.5c-5.3,2-9,4.3-11.5,6.8h-7.4c1.2-4.6-5.5-8.8-5.5-8.8c12.602-10.8-6.3-14.4-6.3-14.4
	c0.3-3.6-0.4-6.2-1.7-7.9c1.8-8,1.5-15.1,0.102-21.3C415.1,47.9,433.5,17.9,439.9,28.5z"/>
<path fill="#FFFFFF" stroke="#000000" stroke-width="0.25" d="M409.8,51.5c1.5,6.1,1.7,13.2-0.1,21.3c-4.5-6.3-16-2.3-16-2.3
	c4.7-13.4-12.2-7.9-12.2-7.9c-5.9-2.8-9.5-2.9-11.8-1.8l-0.8-1.5c-0.7-4.6-2.102-8.5-4.102-11.7c2.7-5,15.7-28.6,24.5-25.3
	C389.3,22.5,405.3,32.4,409.8,51.5z"/>
<path fill="#FFFFFF" stroke="#000000" stroke-width="0.25" d="M369.8,60.9c-4,2-3.5,8-3.398,8.7l0,0c0,0,0,0,0,0.1
	c-9-15.4-16.7,2.8-16.7,2.8c-5.2,0.6-8.3,2.3-10.102,4.4L338.7,76c-3.7-5.6-10.7-9.3-18.2-11.8l0.1-0.3c0,0-14.3-24.9-6-30.2
	c0,0,37.1-7.3,50.3,13.9c2,3.2,3.398,7.1,4.1,11.7L369.8,60.9z"/>
<path fill="none" stroke="#000000" stroke-width="0.25" d="M128.2,276.8c11.3-9.1,41.5-31.7,73.2-19.6"/>
<path fill="none" stroke="#000000" stroke-width="0.25" d="M153.9,179.4c0,0,54.3-18.1,75.5,5.3"/>
<path fill="none" stroke="#000000" stroke-width="0.25" d="M203.7,111.5c0,0,67.9,19.6,68.7,36.2"/>
<path fill="none" stroke="#000000" stroke-width="0.25" d="M652.7,147.7c0,0-55.8,7.5-58.102,12.8"/>
<path id="www.ABC-color.com" fill="none" stroke="#000000" stroke-width="0.25" d="M599.1,276c0,0,75.5,5.3,101.9,46.8"/>
<path fill="none" stroke="#000000" stroke-width="0.25" d="M605.2,211.9c0,0,25.7-5.3,39.2,0"/>
<path fill="none" stroke="#000000" stroke-width="0.25" d="M582.5,363.6c0,0,38.5,30.2,55.1,58.9"/>
<path fill="none" stroke="#000000" stroke-width="0.25" d="M529,303.2c0,0,18.1,15.1,27.9,30.2"/>
<path fill="none" stroke="#000000" stroke-width="0.25" d="M458,319.8c0,0,13.6,43,36.2,64.9"/>
<path fill="none" stroke="#000000" stroke-width="0.25" d="M393.9,347.7c0,0-9.802,47.5-8.302,49.8"/>
<path fill="none" stroke="#000000" stroke-width="0.25" d="M325.2,361.3c0,0-15.8,28.7-15.1,37.7"/>
<path fill="none" stroke="#000000" stroke-width="0.25" d="M362.2,417.2c0,0-14.3,74.7-14.3,102.6"/>
<path fill="none" stroke="#000000" stroke-width="0.25" d="M270.8,374.9c0,0-44.5,68.698-38.5,83"/>
<path fill="none" stroke="#000000" stroke-width="0.25" d="M223.3,324.3c0,0-70.2,46.8-80.8,70.9"/>
<path fill="none" stroke="#000000" stroke-width="0.25" d="M483.7,421.7c0,0,46,59.8,46,84.6"/>
</svg>
