<?xml version="1.0" encoding="utf-8"?>
<!-- Generator: Adobe Illustrator 15.0.0, SVG Export Plug-In . SVG Version: 6.00 Build 0)  -->
<!DOCTYPE svg PUBLIC "-//W3C//DTD SVG 1.1//EN" "http://www.w3.org/Graphics/SVG/1.1/DTD/svg11.dtd">
<svg version="1.1" id="layer_x5F_www.ABC-color.com"
	 xmlns="http://www.w3.org/2000/svg" xmlns:xlink="http://www.w3.org/1999/xlink" x="0px" y="0px" width="822px" height="567px"
	 viewBox="0 0 822 567" enable-background="new 0 0 822 567" xml:space="preserve">
<path id="www.ABC-color.com" fill="#FFFFFF" stroke="#000000" stroke-width="2" d="M636.3,228.5c0,0,42.9,75.6-29.6,108.8l-146.5-73
	l-1.102-1c12.7-14.7,16.302-30.9,10.302-44.9l88.8-77l0.2,0.2C567.3,133.8,706.1,116.5,636.3,228.5z"/>
<path fill="#FFFFFF" stroke="#000000" stroke-width="2" d="M606.8,337.3c0,0,11.9,96.2-84.3,82.4c0,0-39,109.398-126.4,34
	l-1.198-0.5c0.398-0.7,0.8-1.4,1.198-2.102L411.8,293.2l-0.2-0.601c7.102-2,14-4.8,20.302-8.199c11.5-6.3,20.6-13.5,27.198-21.101
	l1.102,1L606.8,337.3z"/>
<path fill="#FFFFFF" stroke="#000000" stroke-width="2" d="M519.1,78.8c0,0,52.2,5.3,41.802,60.4l-2.602,2.3l-88.8,77
	c-6.4-15.1-32.1-23.9-58.7-19.9l-0.1-0.8c0,0,17.8-62.3,12.898-100.7l0.5-0.1C424,96.9,449.7,13.9,519.1,78.8z"/>
<path fill="#FFFFFF" stroke="#000000" stroke-width="2" d="M423.5,97c4.8,38.4-12.9,100.7-12.9,100.7l0.102,0.8
	c-9.3,1.4-18.602,4.3-27.3,9c-12,6.6-21.5,14-28.4,22c-32.6-7.1-57.1-14.6-75.1-22.3l0,0c-0.5-0.3-7.9-4.6-18.2-9
	c-78-46.1,56.7-93.7,56.7-93.7C362.8,19.1,412,71.3,412,71.3C418.6,76.1,422,85.5,423.5,97z"/>
<path fill="#FFFFFF" stroke="#000000" stroke-width="2" d="M469.4,218.4c6,14.1,2.398,30.3-10.302,44.9
	c-6.6,7.6-15.698,14.8-27.198,21.101c-6.302,3.399-13.2,6.199-20.302,8.199c-30.8,8.801-65.1,4.101-69.698-16.1
	c-3.802-16.4,0.5-32.6,13-47c7-8,16.398-15.4,28.398-22c8.7-4.7,18-7.6,27.3-9C437.3,194.6,463,203.4,469.4,218.4z"/>
<path fill="#FFFFFF" stroke="#000000" stroke-width="2" d="M411.8,293.3l-15.7,157.9c-0.398,0.7-0.8,1.398-1.198,2.1
	C349.3,531.2,294.1,424.4,277.6,424.6c-123.8,1.5-54.3-95.1-54.3-95.1L341.9,276.7c4.698,20.2,39,24.899,69.698,16.1L411.8,293.3z"
	/>
<path fill="#FFFFFF" stroke="#000000" stroke-width="2" d="M354.9,229.5c-12.5,14.4-16.802,30.7-13,47L223.3,329.3
	c-70.1-17.1-24.1-87.5-24.1-87.5c-15-68.6,34.4-55.8,62.6-43.7c5.1,3,11.1,6,18.2,9l0,0C297.8,214.8,322.3,222.4,354.9,229.5z"/>
</svg>
