<?xml version="1.0" encoding="utf-8"?>
<!-- Generator: Adobe Illustrator 15.0.0, SVG Export Plug-In . SVG Version: 6.00 Build 0)  -->
<!DOCTYPE svg PUBLIC "-//W3C//DTD SVG 1.1//EN" "http://www.w3.org/Graphics/SVG/1.1/DTD/svg11.dtd">
<svg version="1.1" id="layer_x5F_www.ABC-color.com"
	 xmlns="http://www.w3.org/2000/svg" xmlns:xlink="http://www.w3.org/1999/xlink" x="0px" y="0px" width="822px" height="567px"
	 viewBox="0 0 822 567" enable-background="new 0 0 822 567" xml:space="preserve">
<path fill="#FFFFFF" stroke="#000000" d="M676.8,257.1C779.9,246.4,828.7,269.2,798.4,279.4c-5.802,6.8-56.602,45.2-194,144.7
	L530.3,478.8l-100.6,81.5L416,561v-0.2l-24.7-0.8l0.102-1.9c5.5-6.198,11.198-13.1,17.1-20.5c46.8-59.3,103.4-153.1,154.3-210.3
	C603.5,281.7,676.8,257.1,676.8,257.1z"/>
<path id="www.ABC-color.com" fill="#FFFFFF" stroke="#000000" d="M372.2,532l19.3,26.1l-0.1,1.9l-26.302-0.9
	c-83.2-71.5-188.7-110.6-209.3-116.3c-86.2-23.898-139.2-24-139.2-24s10.7-61,197.1-47.899C316,378.1,372.2,532,372.2,532z"/>
<path fill="#FFFFFF" stroke="#000000" d="M327.9,112.8c9.8-0.9,15.198,1.9,15.698,7.7c0.7,7.3-18.8,21.7-38.5,31.1
	c-4.5,2.1-9,4-13.3,5.5c-8.1,2.8-14.9,4.4-20.2,4.8c-9.6,0.8-14.3-2.3-13.2-8.3c1.2-6.5,14.9-18.8,31.3-28c5.7-3.2,11.7-5.9,17.6-8
	C315.6,114.9,322.4,113.3,327.9,112.8z"/>
<path fill="#FFFFFF" stroke="#000000" d="M372.2,532c-2.2-250-18.9-241.1-42.8-302.4c-0.102-14.3-1.302-45.6,2.1-50.3l0.4-0.4
	l9.5,9.6c47.898,85,65.5,306.5,67.198,349.1C402.7,545,397,551.9,391.5,558.1L372.2,532z"/>
<path fill="#FFFFFF" stroke="#000000" d="M343.6,120.5c-0.6-5.9-5.898-8.6-15.698-7.7C345.8,98.3,353.5,84.6,362.8,75.6
	c10-9.6,16.102-17.6,19.3-24.3l0.302,0.1c4.898-4.9,25.5-24.2,56.6-36.8c19.6-7.9,41.5-5.7,46.8,16.6c2.4,10.1,0,0,2.102,32.7
	c1.1,16.7-14.4,30.3-41.302,37.3c-6.898,1.8-14.6,3.2-23,4.1L343.6,120.5z"/>
<path fill="#FFFFFF" stroke="#000000" d="M305.1,151.6c19.7-9.4,39.2-23.9,38.5-31.1l80-15.2c8.302-0.9,16-2.3,23-4.1l0.102,0.3
	c0,0,8-1.6,17.7-0.5c30.1,3.4,25.898,82.8-17.102,98c-13.898,4.9-18.8,7.6-40.7,10.9C372,215,355.2,199,341.5,188.6L332,179
	l-26.7-27.1L305.1,151.6z"/>
<path fill="#FFFFFF" stroke="#000000" d="M305.1,151.6l0.1,0.2l26.7,27.1l-0.4,0.4c-3.4,4.7-2.2,36-2.1,50.3c0,2.9,0,5.2-0.102,6.3
	c-2.1,23.9,1.602,20.8-17.1,43.5c-21.7,26.4-63.7,24.9-77.1,19.6c-27.9-10.9-36-7.2-34.3-41.4c0.9-16.6-3.1-19.2-3.1-19.2l74-75.9
	v-0.6c5.3-0.4,12-2,20.2-4.8C296.1,155.7,300.6,153.8,305.1,151.6z"/>
<path fill="#FFFFFF" stroke="#000000" d="M289.8,125.7l-0.1-0.2c0,0-21-10-24.8-22.2c-1.1-3.7-0.7-7.6,2.4-11.5
	c0,0,41.8-66.8,77.602-73.9c0,0,53.3,0.4,37.1,33.4c-3.3,6.7-9.4,14.7-19.3,24.3c-9.3,8.9-17,22.7-34.9,37.2
	c-5.5,0.5-12.3,2.1-20.5,5C301.5,119.8,295.5,122.5,289.8,125.7z"/>
<path fill="#FFFFFF" stroke="#000000" d="M289.7,125.5l0.1,0.2c-16.4,9.1-30.1,21.4-31.3,28l-75.4,23.2c-1.8,0.1-3.4,0.1-4.8,0
	c-31.4-2-1.4-53.1-1.4-53.1c17.8-25,87.7-20.4,87.7-20.4l0.3-0.1C268.7,115.5,289.7,125.5,289.7,125.5z"/>
<path fill="#FFFFFF" stroke="#000000" d="M258.5,153.7c-1.1,6,3.5,9,13.2,8.3v0.6l-74,75.9c-18.3,11.5-8.1,4.1-20.5,10.5
	c-32.1,16.7-34.3,19.6-55.7,0c-11-10-3.6-18.4,10.7-37c20-26,41.5-34.6,45.9-34.6v-0.5c1.5,0.1,3.1,0.1,4.8,0L258.5,153.7z"/>
<path fill="none" stroke="#000000" d="M365.8,146.7c8.602,0,32.102,11.4,40.7,11.4"/>
<path fill="none" stroke="#000000" d="M395.8,85.7c5.102-12.4,26.9-21.8,39.102-27.2"/>
<path fill="none" stroke="#000000" d="M316.5,90.1c-0.1-9.9,2.2-18.4,2.1-28.3"/>
<path fill="none" stroke="#000000" d="M230.8,138c-6.4,0-12.9,0-19.3,0"/>
<path fill="none" stroke="#000000" d="M198.7,196.8c-7.2,9.7-20.5,10.6-31.7,19.6"/>
<path fill="none" stroke="#000000" d="M275.8,198.9c-9.1,9.6-4.1,27.9-7,40.3"/>
</svg>
