<?xml version="1.0" encoding="utf-8"?>
<!-- Generator: Adobe Illustrator 15.0.0, SVG Export Plug-In . SVG Version: 6.00 Build 0)  -->
<!DOCTYPE svg PUBLIC "-//W3C//DTD SVG 1.1//EN" "http://www.w3.org/Graphics/SVG/1.1/DTD/svg11.dtd">
<svg version="1.1" id="layer_x5F_www.ABC-color.com"
	 xmlns="http://www.w3.org/2000/svg" xmlns:xlink="http://www.w3.org/1999/xlink" x="0px" y="0px" width="822px" height="567px"
	 viewBox="0 0 822 567" enable-background="new 0 0 822 567" xml:space="preserve">
<path fill="#FFFFFF" stroke="#000000" d="M332.4,66.4c0.5,0.2,1.1,0.4,1.6,0.6c0,0-138.7,13-49,102.5c0,0-49.7,11.5-55-37.2
	c0,0-6.7-48.7,18.7-60C248.7,72.3,268.8,43,332.4,66.4z"/>
<path fill="#FFFFFF" stroke="#000000" d="M457.3,83.7C457.3,83.7,424-31,334,67c-0.6-0.2-1.1-0.4-1.6-0.6l0.1-0.4
	c0,0-14.1-38.1,22.2-50.3c0,0,20.6-12.4,42.3-9.2c0,0,49-10.8,63.7,43.8c0,0,6.1,10.8-1.8,31.6C457.9,83,457.3,83.7,457.3,83.7z"/>
<path fill="#FFFFFF" stroke="#000000" d="M370.6,116.1c3,0.3,5.7,2.4,5.7,2.4c5.8,1.8,3.9-4.8,3.9-4.8c-8.2-7.5-2.5-9.4-2.5-9.4
	c6.898-5,7.5,8.2,7.5,8.2c0,1.9,6.898,0.6,6.898,0.6l-0.3-0.8c-0.8-17,10-13,10-13c5.3,5.8-3.3,14-3.3,14c-1,1.3,2,2.8,2,2.8
	c9.3-4,15.5,0.5,15.5,0.5c1.8,1,0.3,5.8,0.3,5.8c-1,5.5-14,1-14,1c-3.3,1.5-0.3,5.3-0.3,5.3c4.1,2.2,5.5,4.4,5.7,6.3
	c0.3,3.4-3.2,5.9-3.2,5.9c-9.5,2.3-8.5-9.3-8.5-9.3c-2.8-5.3-7.8,1.3-7.8,1.3c-2.8,11.8-12,8-12,8c-3.5-6.8,2.5-10.3,2.5-10.3
	c1.8-3.8-2.3-4-2.3-4c-2.5,1.6-4.5,2-6.2,1.6c-4.3-0.9-6.3-6.3-6.3-6.3C365.4,116.9,368.1,115.9,370.6,116.1z"/>
<path fill="#FFFFFF" stroke="#000000" d="M406.5,168.8c0,0,9.2-5.9,9.1-16.7h0.9c1,0.3,1.7,0.7,2.3,1.1c2.7,2.4-0.5,6.6-0.5,6.6
	c6.3,4.3,1,9.8,1,9.8c-0.5,1.3-1.6,1.9-2.8,2c-1.6,0.2-3.3-0.2-3.5-0.3c6.2,6.7,1.7,11,1.7,11c-4.5,3-9.3-3-9.3-3
	c1.3,7.5-4.5,9.8-4.5,9.8c-3.5,2.8-9-6.5-9-6.5c-1.802,7-8.802,7-8.802,7c-4.5,0-4.8-6.8-4.8-6.8c-1.5,4.3-7.5,4-7.5,4
	c-2.3-0.3-3-8.5-3-8.5c-3.8,4-9.5,4.3-9.5,4.3c-3.8-0.8-0.8-10.8-0.8-10.8c-3.8,3-9.8,1-9.8,1c-3.4,0,1.7-7.9,2-8.2
	c-2,1-5.5-1.3-5.5-1.3c-1.2-2.8-1.3-4.6-0.7-5.9c1.1-2.6,4.5-2.6,4.5-2.6s-6-4-3.3-6.3s8.5-3.3,8.5-1.3c0,0,2.8-7,5.8-4.8h0.1
	c-3.5,8-3.698,18,9.2,26.7C368.5,169.3,388,180.3,406.5,168.8z"/>
<path fill="#FFFFFF" stroke="#000000" d="M408.3,134.8c5.4,6.7,7.3,12.5,7.3,17.3c0.2,10.9-9.1,16.7-9.1,16.7
	c-18.5,11.5-38,0.5-38,0.5c-12.9-8.7-12.7-18.8-9.2-26.7c3.7-8.3,10.9-14.3,10.9-14.3v-0.2c1.7,0.4,3.8,0,6.2-1.6c0,0,4,0.3,2.3,4
	c0,0-6,3.5-2.5,10.3c0,0,9.3,3.8,12-8c0,0,5-6.5,7.8-1.3c0,0-1,11.5,8.5,9.3c0,0,3.5-2.5,3.2-5.9L408.3,134.8z"/>
<path fill="#FFFFFF" stroke="#000000" d="M492.7,195c18.1,13.4,34.7,36,16,69.3c0,0-8,14-22,24c0,0-40,18.7-70,7.3
	c0,0-25-5.1-32.3-33.7c0.198-1.1,0.3-1.6,0.3-1.6S496,327.7,492.7,195z"/>
<path fill="#FFFFFF" stroke="#000000" d="M382.7,239c-0.602,9,0.1,16.6,1.7,23c-3.2,19.1-32.2,201.3,10,304h-16.9
	c-7.5-26.1-12.8-51.4-16.4-75.3c-19.398-126.3,7-217,7-217l-0.398-0.4c3.398-3.8,6.2-8.3,8.398-13
	C379.2,253.7,381.3,246.3,382.7,239L382.7,239z"/>
<path fill="#FFFFFF" stroke="#000000" d="M376,260.3L376,260.3c-2.2,4.7-5,9.1-8.4,13c-7.698,8.7-18.698,14.5-34.3,15
	c0,0-23,3.3-44.6-4.2c-13.4-4.6-26.2-13.398-32.8-29.7c-3.6-9.1-5.3-20.5-4-34.8c0,0,8.7-33.1,31.9-47.9
	C275.3,189.3,225.1,302.8,376,260.3z"/>
<path fill="#FFFFFF" stroke="#000000" d="M343.8,157.4c-0.5,1.3-0.5,3.1,0.7,5.9c0,0,3.5,2.2,5.5,1.3c-0.3,0.4-5.4,8.2-2,8.2
	c0,0,6,2,9.8-1c0,0-3,10,0.8,10.8c0,0,5.802-0.3,9.5-4.3c0,0,0.802,8.3,3,8.5c0,0,6,0.3,7.5-4c0,0,0.302,6.8,4.802,6.8
	c0,0,3.898,24.8-0.602,49.5c-1.398,7.3-3.398,14.7-6.6,21.3l0,0c-150.9,42.5-100.7-71-92.1-88.6c4.6-3,9.8-5.2,15.6-6.3
	c0,0,43-12.8,43.8-8.5L343.8,157.4z"/>
<path fill="#FFFFFF" stroke="#000000" d="M175.8,418.7c0.9,0.3,1.5,0.398,1.5,0.3C177.5,418.8,176.8,418.8,175.8,418.7z
	 M212.8,424.2l0.2-0.3c11.7,10,33.6,15.1,33.6,15.1s-16,0.7-16,8.7s38.7,16.7,38.7,16.7c-22-1.302-16.7,26.698-16.7,26.698
	c10.5,22.9,37.1,10.4,38,10C270,521,304,524.3,304,524.3c23.4-5,45.7,25.8,55.5,41.7H314c-8,0-16-5.7-16-5.7c-6,1.3-25.3-8-25.3-8
	c-4-4.7,2-6,2-6c-16-1.3-10.7-8-10.7-8c3.3-0.7,6.7-10,6.7-10c-9.3-3.3-22.7,4-36.7-0.7c-14-4.698,5.3-12.698,5.3-12.698
	c-28.7-2.7-23.3-5.302-23.3-5.302s7.3-4.698,6.7-10.698c-0.7-6-14.7,3.3-14.7,3.3c-31.3-0.7-22-6.7-22-6.7s7.3,0,7.3-11.3
	s-26,0.7-26,0.7c-18,10-20-4.7-20-4.7s12.7,0,2.7-6.7s-15.3,9.3-29.3,11.3s-9.3-6.7-9.3-6.7c-10,2.7-16-6.699-16-6.699s16.7-8,6-8
	c-10.7,0-20.7-0.699-20.7-0.699c-12.2-10.301,30-23,30.8-23.301c0,0,0,0-0.1,0c-2.7,0.699-6.7,0-8-10.699
	c-1.3-10.7,43.3-5.301,40-6.7c-3.3-1.301-4-8,1.3-10.7c4-2,19.8,3.399,27.9,6c0.9,0.7,2.2,0.899,3.2,1c-0.8-0.2-1.9-0.601-3.2-1
	c-1.5-1.101-1.9-3.5,2.1-8.7C181.9,399.6,205.1,417.7,212.8,424.2z"/>
<path fill="#FFFFFF" stroke="#000000" d="M184,247c-0.5-0.6-17.3-20.1-17.3-27.3c0-7.3,32.7,0.7,32.7,6.7c0,0,0-13.3,11.3-10.7
	c11.3,2.7,15.3,16.7,16.7,22.7c0,0-1.3-10,7.3-10.7c8.7-0.7,12.7,11.3,12.7,22l7.3,5.3l1.3-0.6c6.5,16.2,19.4,25,32.8,29.7l-0.1,0.2
	c0,0-9.3,9.3-2.7,26.7c0,0,2.7-13.3,12.7-4.7c10,8.7-13.3,24-8,42.7c0,0,15.3-14.7,15.3-7.3c0,7.3-20,44.7-9.3,50.7
	c0,0,17.3-28.7,20-13.301c2.7,15.301-11.3,32.7-7.3,36.7c4,4,11.3-12,15.3-6c0,0,5.3,13.299-4,30.699c-4.8,8.9,8.7,19.3,8.7,19.3
	s3.3-19.3,7.3-17.3c3.5,1.7,20,38.7,24.3,48.4c3.7,23.898,9,49.199,16.4,75.3h-17.9c-9.8-15.8-32.1-46.7-55.5-41.7
	c0,0-34-3.3-13.4-23.3c-0.9,0.398-27.5,12.899-38-10c0,0-5.3-28,16.7-26.7c0,0-38.7-8.7-38.7-16.7s16-8.7,16-8.7S224.7,434,213,424
	c-3.9-3.3-6.6-7.2-7-11.6c-2-21.301,11.3-18,13.3-16.7s6.7-4.7,6.7-4.7s-8.7-5.3-21.3-23.3c0,0-4-14.7,10.7-9.3c0,0,7.3,0,6-4
	c-1.3-4-30-18.7-25.3-31.301c0,0,7.3-12.699,17.3-4c0,0,11.3-7.801,2.7-14.699c-3.3-2.7-30.7-14-20-26c0,0-1.3-2.7,4.7-6.7
	c0,0-22-4.7-26.7-17.3C174,254.3,178.7,244.3,184,247z"/>
<path fill="#FFFFFF" stroke="#000000" d="M787.3,282.3c2,5.3-22.7,20-22.7,22s6.7-0.7,15.302,4c8.698,4.7-7.302,19.3-18,24.7
	c0,0,21.3,2.7,14,16c-7.302,13.3-48,42-48,42s18,0,16,7.3c-1.9,6.9-52.7,49.7-62.102,54.3c-1.8,0.2-2.5,0.4-1.2,0.4
	c0.302,0,0.7-0.1,1.2-0.4c4.602-0.398,16.5-0.198,17.5,7.102c1.3,10-74,36.7-74,36.7s19.3,3.3,13.3,12.698c-6,9.4-65.3,18-65.3,18
	s23.3,7.302,16,10.7c-7.3,3.3-172,28.3-172,28.3h-10.1c1-4.6,2.8-11.8,5.398-21.198l0.7,0.198c0,0,26.7-57.3,58-67.3
	c0,0,4,12,5.3,24.7c0,0,14.7-45.3,34.7-49.3c0,0-1.3,6-2.7,16.7c0,0-2,9.3,6,6c8-3.302,14-44.7,30.7-56
	c16.7-11.302,7.3,16.698,7.3,22c0,0,7.302,7.3,13.302-7.302c2.398-5.8,3.3-35.3,13.3-45.999c0,0,8,9.999,8.7,23.301
	c0.698,13.3,5.3-10,8.698-12.7c3.302-2.7,3.302-31.3,11.302-50s16,15.3,18,16s14.698-0.7,15.3-11.3c0.7-10.7,8-47.301,17.3-56.7
	c9.3-9.3,10.7,5.3,12,8.7c1.3,3.3,12.7,16.699,14,11.3c1.3-5.3,27.6-58.3,42.7-64c14-5.3,9.3,16.7,9.3,16.7s34-59.3,43.3-54
	c9.3,5.3-8,60-10,64C770,279.7,785.3,277,787.3,282.3z"/>
<path fill="#FFFFFF" stroke="#000000" d="M716,163c0,0,44-16,14,24.7c0,0-4-9.3-11.3-2.7c-7.3,6.7-6.4,8.6-11.3,12
	c-3.802,2.6-15.302-4-13.302,12.7c0,0-10,16.7-19.3,14l-27.3,6c4.7-9.3,16.7-13.3,16.7-13.3c17.3,0,20-11.3,20-11.3
	c-2.7-8.7,10.7-15.3,10.7-15.3c7.3-0.7,16-8.7,16-8.7C720,173.7,716,163,716,163z"/>
<path fill="#FFFFFF" stroke="#000000" d="M647.3,229.7l27.3-6c9.302,2.7,19.302-14,19.302-14c-2-16.7,9.5-10.1,13.3-12.7
	c5-3.4,4-5.3,11.3-12s11.3,2.7,11.3,2.7C684,314.3,604.7,267,604.7,267C479.6,348.7,429.1,486.8,412.7,544.8
	c-2.602,9.3-4.4,16.602-5.4,21.2H395.9c4.898-23.6,49.3-220,200.198-307.7c0,0,2-107.3,120-95.3c0,0,4,10.7-5.3,18c0,0-8.7,8-16,8.7
	c0,0-13.3,6.7-10.7,15.3c0,0-2.698,11.3-20,11.3C664,216.3,652,220.3,647.3,229.7z"/>
<path fill="#FFFFFF" stroke="#000000" d="M413,171.3c0.2,0,1.9,0.5,3.5,0.3v0.2c6.8,5.5,41.8,6.5,41.8,6.5c2,0.6,4,1.2,6,1.7l0,0
	c3.602,1.3,16.3,6.1,28.4,15c3.3,132.6-108,65.3-108,65.3s-0.102,0.6-0.3,1.6c-1.602-6.4-2.4-14-1.7-23l0,0
	c4.5-24.7,0.6-49.5,0.6-49.5s7,0,8.8-7c0,0,5.5,9.3,9,6.5c0,0,5.802-2.3,4.5-9.8c0,0,4.802,6,9.302,3
	C414.8,182.3,419.3,178,413,171.3z"/>
<path fill="#FFFFFF" stroke="#000000" d="M555.3,121.7c0.102,0.3-1.1,22.3,0,8c0,1.7-0.5,55.9-58,55.4v-0.8c0,0,86.5-82.5-35-105.9
	C479.4,61.3,535.9,14.6,555.3,121.7z"/>
<path fill="#FFFFFF" stroke="#000000" d="M464.3,180c-2-0.5-4-1.1-6-1.7c0,0-35-1-41.8-6.5v-0.2c1.2-0.2,2.3-0.7,2.8-2
	c0,0,5.3-5.5-1-9.8c0,0,3.2-4.2,0.5-6.6c22.5-24.5,33.9-58.1,33.9-58.1c2.7-4.7,4.7-9.1,6.2-13.1c0.8-0.9,2-2.1,3.398-3.5
	c121.602,23.4,35,105.9,35,105.9v0.8C487.9,185,477,183.5,464.3,180L464.3,180z"/>
<path fill="#FFFFFF" stroke="#000000" d="M457.3,83.7c0,0,0.5-0.6,1.602-1.8c-1.5,4-3.5,8.4-6.2,13.1c0,0-11.4,33.6-33.9,58.1
	c-0.5-0.4-1.2-0.9-2.3-1.1h-0.9c-0.1-4.8-2-10.6-7.3-17.3l-0.5,0.1c-0.2-1.9-1.6-4.1-5.7-6.3c0,0-3-3.8,0.302-5.3c0,0,13,4.5,14-1
	c0,0,1.5-4.8-0.302-5.8c0,0-6.3-4.5-15.5-0.5c0,0-3-1.5-2-2.8c0,0,8.5-8.3,3.302-14c0,0-10.802-4-10,13l0.3,0.8c0,0-6.9,1.3-6.9-0.6
	c0,0-0.6-13.2-7.5-8.2c0,0-5.7,1.9,2.5,9.4c0,0,1.9,6.5-3.898,4.8c0,0-2.7-2.1-5.7-2.4C368.8,99.2,336.5,68,336.5,68
	c-0.9-0.3-1.7-0.7-2.5-1C424-31,457.3,83.7,457.3,83.7z"/>
<path fill="#FFFFFF" stroke="#000000" d="M299.5,165.5c-5.8,1.1-11,3.3-15.6,6.3c0.7-1.5,1.1-2.3,1.1-2.3C195.3,80,334,67,334,67
	c0.8,0.3,1.7,0.6,2.5,1c0,0,32.3,31.2,34.1,48.1c-2.5-0.3-5.198,0.8-6.6,5.6c0,0,1.9,5.4,6.3,6.3v0.2c0,0-7.3,6-10.898,14.3H359.3
	c-3-2.3-5.8,4.8-5.8,4.8c0-2-5.8-1-8.5,1.3c-2.7,2.3,3.3,6.3,3.3,6.3s-3.398,0-4.5,2.6l-0.5-0.4
	C342.5,152.8,299.5,165.5,299.5,165.5z"/>
<path fill="none" stroke="#000000" stroke-width="0.25" d="M372.3,150.3c-2.3,5.9-6.398,7.4-3.8,19"/>
<path fill="none" stroke="#000000" stroke-width="0.25" d="M384,151.3c0.3,3.8,6.4,8.6,1.3,22.8"/>
<path fill="none" stroke="#000000" stroke-width="0.25" d="M396.5,150.3c5.5,5.9,5,13.3,4,22.5"/>
<path fill="none" stroke="#000000" stroke-width="0.25" d="M663.3,173.7c0,2.4,0,4.9,0,7.3"/>
<path fill="none" stroke="#000000" stroke-width="0.25" d="M374,319.7c1.9,0.5,6.6,0.1,7.7-1.3"/>
<path fill="none" stroke="#000000" stroke-width="0.25" d="M359.3,317.7c-1.8-1.5-1.3-2.9-3-4.7"/>
<path fill="none" stroke="#000000" stroke-width="0.25" d="M378,303c1.8-1.1,7.1-2.4,9-3.3"/>
<path fill="none" stroke="#000000" stroke-width="0.25" d="M363.3,299.7c-0.898-1.101,1-2.2-0.3-3.3"/>
<path fill="none" stroke="#000000" stroke-width="0.25" d="M374,331.7c1.1-0.5,5.2-0.9,6.3-1.3"/>
<path fill="none" stroke="#000000" stroke-width="0.25" d="M368.3,343c1.4-1-0.398-2.4,0.3-4"/>
<path fill="none" stroke="#000000" stroke-width="0.25" d="M370.7,352.3c2.2-1.2,7.7-3.1,10.3-4"/>
<path fill="none" stroke="#000000" stroke-width="0.25" d="M373,367.7c1.4,0-0.6-0.4,0.3-1.3"/>
<path fill="none" stroke="#000000" stroke-width="0.25" d="M370,386.3c2.2-1.3,7.8-2.5,10.3-3.3"/>
<path fill="none" stroke="#000000" stroke-width="0.25" d="M371,407c1.4-1.3,0.1-3.2,1-4.7"/>
<path fill="none" stroke="#000000" stroke-width="0.25" d="M371.7,437c2.1-1.3,1.1-3,3-4.7"/>
<path fill="none" stroke="#000000" stroke-width="0.25" d="M365.7,427c0.898-1.9-1-5.1,1-6.7"/>
<path fill="none" stroke="#000000" stroke-width="0.25" d="M372.3,459.7c2.102-3-1.6-6.9,1-10"/>
<path fill="none" stroke="#000000" stroke-width="0.25" d="M375,481.7c1.9-1.5,0.3-3.102,1.7-5.3"/>
<path fill="none" stroke="#000000" stroke-width="0.25" d="M377.7,504.3c2.1-2.2,1.7-4.2,4.3-6"/>
<path fill="none" stroke="#000000" stroke-width="0.25" d="M381.7,521.7c0.7-2.4-2.8-6.8-0.3-8"/>
<path fill="none" stroke="#000000" stroke-width="0.25" d="M385.7,543.7c1.1-2.102-1.3-4.4-1-6.7"/>
<path fill="none" stroke="#000000" stroke-width="0.25" d="M357,329.7c0.8,1.399-0.4,3.399,1,4.7"/>
<path fill="none" stroke="#000000" stroke-width="0.25" d="M359.7,366.3c-1.8-2.3-7.4-4-9-6"/>
<path fill="none" stroke="#000000" stroke-width="0.25" d="M359,383.7c-1.4-2-6.2-3.601-7-5.3"/>
<path fill="none" stroke="#000000" stroke-width="0.25" d="M359,398.3c-1.7,0-6-0.7-7-2"/>
<path fill="none" stroke="#000000" stroke-width="0.25" d="M356.7,418.3c-3.102-0.1-2.9-2.398-5.7-3.3"/>
<path fill="none" stroke="#000000" stroke-width="0.25" d="M358,443.7c-1.9-2.3-1-4.602-3.7-6"/>
<path fill="none" stroke="#000000" stroke-width="0.25" d="M359.3,463.7c-2.398-0.102-1.5-1.3-2.3-3.3"/>
<path fill="none" stroke="#000000" stroke-width="0.25" d="M362,486.3c-2.9-1.3-3-2.898-5.7-4.7"/>
<path fill="none" stroke="#000000" stroke-width="0.25" d="M366.7,503.7c-3-0.2-2.102-1.7-5-2.7"/>
<path fill="none" stroke="#000000" stroke-width="0.25" d="M367.3,518.3c-1.5-1.5-0.8-2.5-3-2.7"/>
<path fill="none" stroke="#000000" stroke-width="0.25" d="M373.3,539.7c-2-0.5-2.6-2-4.3-3.3"/>
<path fill="none" stroke="#000000" stroke-width="0.25" d="M377.3,556.3c-1.898-1.8-2.1-2.398-5-2"/>
<path fill="none" stroke="#000000" stroke-width="0.25" d="M377.7,531.7c0.2-2.5-4.102-4.8-5.7-6"/>
<path fill="none" stroke="#000000" stroke-width="0.25" d="M366,484.3c0-1.8,3-3.6,3-5.3"/>
<path fill="none" stroke="#000000" stroke-width="0.25" d="M362.7,455c0-0.9,3-1.8,3-2.7"/>
<path fill="none" stroke="#000000" stroke-width="0.25" d="M378.7,284.3c1.1-2.2,5.898-3.4,8.3-3.3"/>
<path fill="none" stroke="#000000" stroke-width="0.25" d="M578.7,263c0,3.8,3,7.6,3,11.3"/>
<path fill="none" stroke="#000000" stroke-width="0.25" d="M566,273.7c0,2.4,3,4.9,3,7.3"/>
<path fill="none" stroke="#000000" stroke-width="0.25" d="M546.7,291c0,2.2,3,4.4,3,6.7"/>
<path fill="none" stroke="#000000" stroke-width="0.25" d="M532,302.3c0,2.4,3,4.9,3,7.3"/>
<path fill="none" stroke="#000000" stroke-width="0.25" d="M520.7,314.3c0,2.7,3,5.3,3,8"/>
<path fill="none" stroke="#000000" stroke-width="0.25" d="M507.3,331c0,1.3,3,2.7,3,4"/>
<path fill="none" stroke="#000000" stroke-width="0.25" d="M496.7,340.3c0,3.5,2.898,6.8,3.7,10"/>
<path fill="none" stroke="#000000" stroke-width="0.25" d="M487.3,353c0,2.4,3,4.9,3,7.3"/>
<path fill="none" stroke="#000000" stroke-width="0.25" d="M476.7,367c0,2.9,3.3,6.5,2.3,8.7"/>
<path fill="none" stroke="#000000" stroke-width="0.25" d="M466.7,383.7c-0.102,3.2,3.898,6.6,5,9.3"/>
<path fill="none" stroke="#000000" stroke-width="0.25" d="M457.3,397c1.3,2.3,5,4.8,5.7,7.3"/>
<path fill="none" stroke="#000000" stroke-width="0.25" d="M451.7,413c0.7,1.8-1.3,3.8-0.3,5.3"/>
<path fill="none" stroke="#000000" stroke-width="0.25" d="M444.3,425c1.9,2.2,1.102,5,1.7,8"/>
<path fill="none" stroke="#000000" stroke-width="0.25" d="M436.3,441c0.7,3.3-2.2,6.6-2.3,10"/>
<path fill="none" stroke="#000000" stroke-width="0.25" d="M426.7,469.7c-0.8-3,0.6-6.2-1-8.7"/>
<path fill="none" stroke="#000000" stroke-width="0.25" d="M422,485c-1.4-2.7-0.7-4.7-2.3-7.3"/>
<path fill="none" stroke="#000000" stroke-width="0.25" d="M416.7,497c-1-2.3-0.102-4.2-1.7-6"/>
<path fill="none" stroke="#000000" stroke-width="0.25" d="M412,510.3c-1.7-2.1-0.3-4.398-2.3-6"/>
<path fill="none" stroke="#000000" stroke-width="0.25" d="M408,523c-0.8-2.7-0.2-5.1-1.7-7.3"/>
<path fill="none" stroke="#000000" stroke-width="0.25" d="M426.3,536.3c-3.2,2.2-10.5,1.3-14.3,1.3"/>
<path fill="none" stroke="#000000" stroke-width="0.25" d="M418.3,527.7c2.2,0,1.4,0,3.7,0"/>
<path fill="none" stroke="#000000" stroke-width="0.25" d="M420,512.3c2.8,0,8.5,0.3,11-0.7"/>
<path fill="none" stroke="#000000" stroke-width="0.25" d="M434.7,479c2.1-1.6,8-2.2,9.7-4"/>
<path fill="none" stroke="#000000" stroke-width="0.25" d="M444.7,455c2.7-1,8.7-0.7,11.7-0.7"/>
<path fill="none" stroke="#000000" stroke-width="0.25" d="M456.7,429.7c3,0,8.898,0.398,11.7-0.7"/>
<path fill="none" stroke="#000000" stroke-width="0.25" d="M466,412.3c2.7,0,8.3,0,11,0"/>
<path fill="none" stroke="#000000" stroke-width="0.25" d="M480.3,395c1.8,0,0.602,0,2.3,0"/>
<path fill="none" stroke="#000000" stroke-width="0.25" d="M492.3,375.7c2.5-0.2,2,0,4.3,0.7"/>
<path fill="none" stroke="#000000" stroke-width="0.25" d="M503.3,357.7c2.4,0,7.9,0,10.3,0"/>
<path fill="none" stroke="#000000" stroke-width="0.25" d="M517.3,341.7c1.8,0,6.602,0,8.3,0"/>
<path fill="none" stroke="#000000" stroke-width="0.25" d="M533.3,323c2.2,0,7.4,0,9.7,0"/>
<path fill="none" stroke="#000000" stroke-width="0.25" d="M548.7,309c2,0,7,0,9,0"/>
<path fill="none" stroke="#000000" stroke-width="0.25" d="M561.3,297c2.7,0.3,8.3,0.9,11,1.3"/>
<path fill="none" stroke="#000000" stroke-width="0.25" d="M578,284.3c1.6-0.2,6.2,0,7.7,0.7"/>
<path fill="none" stroke="#000000" stroke-width="0.25" d="M590.7,274.3c2,0,7,0,9,0"/>
<path fill="none" stroke="#000000" stroke-width="0.25" d="M571,287c1.5-1-0.8-2.7-1-4.7"/>
<path fill="none" stroke="#000000" stroke-width="0.25" d="M552.7,299c1-1.2,4.7-2.9,5-4.7"/>
<path fill="none" stroke="#000000" stroke-width="0.25" d="M535.7,317.7c1-0.9-0.9-2.3-0.3-3.3"/>
<path fill="none" stroke="#000000" stroke-width="0.25" d="M514,337.7c0.6-1.4,4.2-2.7,5-4"/>
<path fill="none" stroke="#000000" stroke-width="0.25" d="M505,353c1.5-1-1.2-2.7-1.7-4.7"/>
<path fill="none" stroke="#000000" stroke-width="0.25" d="M486.3,374.3c0-1.6-3-3.1-3-4.7"/>
<path fill="none" stroke="#000000" stroke-width="0.25" d="M483,387.7c2,0,1,0,3,0"/>
<path fill="none" stroke="#000000" stroke-width="0.25" d="M455.3,423c1.8-0.7,6.602-2.3,7.7-4"/>
<path fill="none" stroke="#000000" stroke-width="0.25" d="M449.3,444.3c3,0.3,9.3,0.7,11-2"/>
<path fill="none" stroke="#000000" stroke-width="0.25" d="M433.9,469.6c0.8-4.5,1.698-4.6,2.1-8.6"/>
<path fill="none" stroke="#000000" stroke-width="0.25" d="M426.7,495.7c2.8-1.2,10.1-3,12.3-4.7"/>
<path fill="none" stroke="#000000" stroke-width="0.25" d="M399,539c2,3,0.7,6.5,3,9.3"/>
<path fill="none" stroke="#000000" stroke-width="0.25" d="M642.7,170.3c1.1,2.6,2.7,7.2,2.7,10.7"/>
<path fill="none" stroke="#000000" stroke-width="0.25" d="M666,163.7c0.3,1.8,1,3.7,2,5.3"/>
<path fill="none" stroke="#000000" stroke-width="0.25" d="M678.7,162.3c0,1.6,0,3.1,0,4.7"/>
<path fill="none" stroke="#000000" stroke-width="0.25" d="M694.7,161c0,1.1,0,2.2,0,3.3"/>
<path fill="none" stroke="#000000" stroke-width="0.25" d="M629.3,181c0,2,0,4,0,6"/>
<path fill="none" stroke="#000000" stroke-width="0.25" d="M619.3,191.7c0.602,2,4.102,4,4.3,6"/>
<path fill="none" stroke="#000000" stroke-width="0.25" d="M614.3,201.7c0,2.4-3,4.9-3,7.3"/>
<path fill="none" stroke="#000000" stroke-width="0.25" d="M606.3,218.3c1.602,0.7,0,2.6,0.3,4.7"/>
<path fill="none" stroke="#000000" stroke-width="0.25" d="M599,231.7c2.3,0.8,0.5,3.2,1,6"/>
<path fill="none" stroke="#000000" stroke-width="0.25" d="M597,246.3c1.3,1.8,0.6,4.1,2.3,5.3"/>
<path fill="none" stroke="#000000" stroke-width="0.25" d="M615.3,269c0.602,2.5,4.602,4.9,5.7,7.3"/>
<path fill="none" stroke="#000000" stroke-width="0.25" d="M626.7,271.7c0.398,2.2,1.7,4,3.3,4.7"/>
<path fill="none" stroke="#000000" stroke-width="0.25" d="M654,276.3c-2.4-1.5-4.6-3.5-7.3-4"/>
<path fill="none" stroke="#000000" stroke-width="0.25" d="M659.3,269c2.8,0.6,5.2,1.7,8,2"/>
<path fill="none" stroke="#000000" stroke-width="0.25" d="M678.7,259c2.2,0.5,4.398,0.8,6.7,0.7"/>
<path fill="none" stroke="#000000" stroke-width="0.25" d="M691.3,246.3c2.2,0,4.4,0,6.7,0"/>
<path fill="none" stroke="#000000" stroke-width="0.25" d="M700.7,233.7c1.8,0,3.6,0,5.3,0"/>
<path fill="none" stroke="#000000" stroke-width="0.25" d="M708,223c3.4,0,9.5,0,11.3,0"/>
<path fill="none" stroke="#000000" stroke-width="0.25" d="M714,213c2.5,0.2,4.9,0,6.7-1.3"/>
<path fill="none" stroke="#000000" stroke-width="0.25" d="M720.7,200.3c1.7,0,9.398,0,7.3,0"/>
<path fill="none" stroke="#000000" stroke-width="0.25" d="M640,252.3c0.6-1.8,1.3-5.2,2.7-7.3"/>
<path fill="none" stroke="#000000" stroke-width="0.25" d="M660,246.3c2.3-0.3,4.7-1.1,6.7-2"/>
<path fill="none" stroke="#000000" stroke-width="0.25" d="M654,241c2.9-1.7,6.7-4.1,8.7-6.7"/>
<path fill="none" stroke="#000000" stroke-width="0.25" d="M680,235c1.6,0,3.1,0,4.7,0"/>
<path fill="none" stroke="#000000" stroke-width="0.25" d="M690,223.7c1.3-1.1,2.3-2.8,2.7-4.7"/>
<path fill="none" stroke="#000000" stroke-width="0.25" d="M662,255.7c2,0,4,0,6,0"/>
<path fill="none" stroke="#000000" stroke-width="0.25" d="M634.7,262.3c1.898-0.1,3.6,0.1,5.3,0.7"/>
<path fill="none" stroke="#000000" stroke-width="0.25" d="M624,253.7c-0.4-2.9,0.3-6,1.3-8.7"/>
<path fill="none" stroke="#000000" stroke-width="0.25" d="M631.3,220.3c0-2.9,0-5.8,0-8.7"/>
<path fill="none" stroke="#000000" stroke-width="0.25" d="M647.3,207.7c2.7,0,5.3,0,8,0"/>
<path fill="none" stroke="#000000" stroke-width="0.25" d="M647.3,199c2.4-0.1,4-1.6,4-4"/>
<path fill="none" stroke="#000000" stroke-width="0.25" d="M660.7,197c1.8,0,3.6,0,5.3,0"/>
<path fill="none" stroke="#000000" stroke-width="0.25" d="M671.3,185c0.8-0.9,1-2.5,0.7-4"/>
<path fill="none" stroke="#000000" stroke-width="0.25" d="M682,184.3c2.7,0,5.3,0,8,0"/>
<path id="www.ABC-color.com" fill="none" stroke="#000000" stroke-width="0.25" d="M696.7,175.7c1.2-0.8,2.5-2.1,3.3-3.3"/>
<path fill="none" stroke="#000000" stroke-width="0.25" d="M422.7,560.3c9.3-2.1,180-38.6,319.3-262"/>
<line fill="none" stroke="#000000" stroke-width="0.25" x1="656.3" y1="382.3" x2="653.7" y2="415"/>
<line fill="none" stroke="#000000" stroke-width="0.25" x1="649.7" y1="455" x2="607.7" y2="459"/>
<line fill="none" stroke="#000000" stroke-width="0.25" x1="561.7" y1="463" x2="538.3" y2="509"/>
<line fill="none" stroke="#000000" stroke-width="0.25" x1="539" y1="531" x2="495.7" y2="534.3"/>
<line fill="none" stroke="#000000" stroke-width="0.25" x1="740.3" y1="342.3" x2="699.7" y2="363"/>
<path fill="none" stroke="#000000" stroke-width="0.25" d="M247.3,339.7c0.1-1,14.7-84-43.3-95.3"/>
<path fill="none" stroke="#000000" stroke-width="0.25" d="M285.3,437c6.2,7.6-45.5-66.3-38-97.3"/>
<path fill="none" stroke="#000000" stroke-width="0.25" d="M366.7,566.5c-3.3-6.7-45.4-108.1-81.3-129.5"/>
<path fill="none" stroke="#000000" stroke-width="0.25" d="M252,485c3,2.2-69-56.2-119.3-34"/>
<line fill="none" stroke="#000000" stroke-width="0.25" x1="619.3" y1="227" x2="618.5" y2="235"/>
</svg>
