<?xml version="1.0" encoding="utf-8"?>
<!-- Generator: Adobe Illustrator 15.0.0, SVG Export Plug-In . SVG Version: 6.00 Build 0)  -->
<!DOCTYPE svg PUBLIC "-//W3C//DTD SVG 1.1//EN" "http://www.w3.org/Graphics/SVG/1.1/DTD/svg11.dtd">
<svg version="1.1" id="layer_x5F_www.ABC-color.com"
	 xmlns="http://www.w3.org/2000/svg" xmlns:xlink="http://www.w3.org/1999/xlink" x="0px" y="0px" width="822px" height="567px"
	 viewBox="0 0 822 567" enable-background="new 0 0 822 567" xml:space="preserve">
<polyline fill="#FFFFFF" points="0,0 822,0 822,567 "/>
<path fill="#FFFFFF" stroke="#000000" d="M738,419.5c0.7,38-30.3,69.5-65,73c-36.9,3.7-71.7-27.5-74-63c-2.6-40,24.5-73.1,70-61
	c3.8,3.9,12.5,4.4,15-1C718.8,355.5,737.4,390.7,738,419.5z"/>
<path fill="#FFFFFF" stroke="#000000" d="M463,119.5c114.3,25,221,126,221,248c-2.5,5.4-11.2,4.9-15,1c11-120.3-103-208.8-208-240
	C461.9,125.5,463.4,122.7,463,119.5z"/>
<path fill="#FFFFFF" stroke="#000000" d="M577.9,94.5c0.1,4-2,10.9-6.9,15.7c-40.8-2.5-82-3.4-122.9-5.2
	c-14.698-0.7-29.398-1.4-44-2.5c-6.398,0.6-12.398-1.9-18.5,0.5c-32.8-3.9-66.6-5.6-100-5c-17.4-5.5-38.4-1-55.5-6.5
	c5.4-10.9,5.1-24,0-35c45.6,2.4,110.6,10.8,157,14c9.102,0.6,20.4,2.7,26.7,0.7c20-6.3,11.4-33.8,34.3-34.4
	c11.4,9.8,1.102,25.6-4.8,35.7c0.3,1.3,1.602,2,2.8,2.8c33.7,7.5,79.602,2.4,115.2,4.4C572.8,80.4,577.7,84.1,577.9,94.5z"/>
<path fill="#FFFFFF" stroke="#000000" d="M463,119.5c0.4,3.2-1.1,6-2,9c-21,4-42.5-1.1-61-12c-0.1-5,5.5-8.5,4-14
	c14.6,1,29.3,1.8,44,2.5C453.8,107.8,458.5,115,463,119.5z"/>
<path fill="#FFFFFF" stroke="#000000" d="M420,449.5c4.8,37.8-20.1,72.8-59,77.2c-35.2,4-70.5-20.7-75.2-58.2
	c-2.8-22.5,3.6-55,38.2-56c2.1,4.4,2.2,9.2,2,14c3.8,0,7.8-0.8,11-3c-2.7-5.5-4.1-11.8-4-18C377.2,376.1,415.4,412.9,420,449.5z"/>
<path fill="#FFFFFF" stroke="#000000" d="M408.7,158.2c-5,1.7-8.9-3.1-13.5-3.9c-0.4-0.3-0.7-0.6-1.2-0.8c-0.9,0.2-1.9,0.3-2.6,1
	c0.8,10.3,7.1,20.1,6.3,30.7c-3.7,0.4-6.9-2.6-10-4.4c-1.2-0.4-3.102-0.3-4.4,0c-0.898,10.4,2,20.8,0.4,31.4c-4.7,0.1-5.4-6.9-9-9.3
	c-6.102,7.6,0,20.9-4,30.3c-6.3,0.4-6.4-10.5-12.4-10.4c-4.398,13-3.1,27.6-8.5,40.4c-4.3,0.2-3.898-6.5-6-9.3
	c-4.8,0-4.898,7-8.7,8.6c-0.3,0-0.698,0-1,0c5.602-45.9,28.5-87.9,51-128c4.802-3.1,6.4-9.4,11-13C402,133,404.6,146,408.7,158.2z"
	/>
<path fill="#FFFFFF" stroke="#000000" d="M404,102.5c1.5,5.5-4.1,9-4,14c-2.4,0.4-2.4,3.6-4,5c-4.6,3.6-6.2,9.9-11,13
	c-8.6,3.9-15.4,12.2-25,15c-4.7,0.6-11.1,2.2-13-4c4.3-19.9,23.5-31.1,38.5-42.5C391.6,100.6,397.6,103.1,404,102.5z"/>
<path fill="#FFFFFF" stroke="#000000" d="M360,149.5c9.6-2.8,16.4-11.1,25-15c-22.5,40.1-45.4,82.1-51,128c-11.1,45.9-11,96.6-1,143
	c-0.1,6.2,1.3,12.5,4,18c-3.2,2.2-7.2,3-11,3c0.2-4.8,0.1-9.6-2-14c-8.5-43.8-8-89.6-3-134C328.1,234.2,343.5,191.3,360,149.5z"/>
<path fill="#FFFFFF" stroke="#000000" d="M385.5,103c-15,11.4-34.2,22.6-38.5,42.5c1.9,6.1,8.3,4.6,13,4
	c-16.5,41.8-31.9,84.7-39,129c-7.7,2.3-11.7,10.9-18.9,14.4c-3-1.7,0.7-5.5-0.399-8c-9.2,4-12.8,18.199-22.4,20.6
	c-0.9-3.1,0.2-6.5-0.6-9.7c-10.2,1.2-13.4,15.8-23.4,17.4c-1.1-2.601,0.8-6.101-1.3-8.3c-10.2,3.898-15.9,18.3-26.7,20.6
	c-0.9-4.1,0.3-8.5-0.6-12.7c-10.2,2.101-13,17.3-23.4,19.4c-0.9-2.601,0.2-5.7-0.6-8.4c-9.6,3.2-15.1,15.2-24.6,19.4
	c-2.7-2.3,0.4-6.8-2.4-9.3c-6.7,0.3-7.7,13.898-14.4,11.6c-1.1-3,0.9-7-1.3-9.6c-6.4,0.898-7.8,12.1-14.8,11.3
	c-0.8-1.2-1.4-3.101-1.5-4.4c-6.5,0-7.6,11.101-14.6,10.4c-1.4-1.2-1.1-3.101-2.1-4.4c-0.9-0.2-1.9-0.3-2.7,0
	c-2.6,4.101-5.1,12-11,11.4c-1.3-1.9-1.6-4.3-2.5-6.4c-6.1,0.101-7.5,9.4-13.4,10.4c-0.8-2,0.1-4.3-0.6-6.4
	c-8.2,0.3-14.4,8.4-22.4,9.4c-0.6-9,9.3-15.601,9.4-24.4c-2.7-1.7-5.9,2.3-8.2-0.3c4.4-8.5,14.3-13.6,19.2-21.7
	c-4-0.5-8.3,1.8-12.4,1.4c1.4-8,13.4-9.5,15.4-17.5c-0.4-0.3-0.7-0.601-1.1-0.9c-1-0.3-2.3,0-3.7,0.5c-0.6-0.399-1.2-0.7-1.7-1.1
	c0.4-6.7,11.5-6.5,12.4-13.4c-1.7-0.5-4.6-0.7-4.4-3.3c2.6-4.2,10-2.8,11.4-7.9c-2-2.3-7.6-0.3-8.4-4c3.8-4,10.7-3.6,14.1-8.1
	c-1-3.7-6.6-3.2-7.4-7c0.2-1,0.3-1.9,1-2.8c5.1-2.8,11.9-3.1,15.4-8.1c-1.9-2.9-6.4-2.1-9-4.4c3.1-7.7,14.9-6.2,19-13.6
	c-1.9-3-8.2-0.9-9.1-5c0.6-0.8,1.5-1.4,2-1.8c6.7-3.4,16.5-4.1,20.4-11.2c-2.4-3-8-3.6-8.4-8c4.3-4.6,13-2.7,16.4-7.8
	c-2.3-1.6-5.3-2.3-7.4-4.2c-0.1-0.6-0.3-1.3,0-1.9c6.8-5.1,18.3-3.4,23.4-10.8c-4.6-1.6-10.7-1.5-14.1-5.3c5.3-6.3,17.1-6.4,21.1-14
	c-1.2-1.6-3.1-2.5-4.4-3.3c-0.2-0.7-0.3-1.6,0-2.4c7.3-2.5,16.8-0.3,23.1-4.3c-1.3-3.4-7.2-2.1-8.1-5.8c10.1-7,23.8-3.4,34.3-9.5
	c-2.2-4.4-11.3-2.3-13.3-7.4c13-5.4,28.1-2.9,41.1-7.3c-2.5-5.6-11.4-2.9-14.1-7.8c12-4.9,26.5-1,38.1-6.2c-0.9-2.5-4.5-1.4-6.1-3
	c-0.1-0.6-0.3-1.2,0-1.8c4.7-2.5,10.8-1,15.2-3.8C318.9,97.4,352.7,99.1,385.5,103z"/>
<path fill="#FFFFFF" stroke="#000000" d="M230,56.5c5.1,10.9,5.4,24.1,0,35c-16.7,0.1-16.8-29.5-4-35.9
	C227.4,56.1,228.7,56.4,230,56.5z"/>
<path fill="none" stroke="#000000" stroke-width="0.5" stroke-linecap="round" stroke-linejoin="round" d="M197,234.5c5,0,21,1,26,1
	"/>
<path fill="none" stroke="#000000" stroke-width="0.5" stroke-linecap="round" stroke-linejoin="round" d="M180,259.5c3,0,19,1,22,1
	"/>
<path fill="none" stroke="#000000" stroke-width="0.5" stroke-linecap="round" stroke-linejoin="round" d="M310.5,156
	c9,10.8,17.8,23.8,16.5,38.5"/>
<path fill="none" stroke="#000000" stroke-width="0.5" stroke-linecap="round" stroke-linejoin="round" d="M281,189.5
	c12.1,10.7,11.5,28.7,8,43"/>
<path fill="none" stroke="#000000" stroke-width="0.5" stroke-linecap="round" stroke-linejoin="round" d="M253.5,218
	c9.1,11.4,8.8,26.5,8.5,40.5"/>
<path fill="none" stroke="#000000" stroke-width="0.5" stroke-linecap="round" stroke-linejoin="round" d="M215,210.5
	c12.9-1.1,28.9-3.8,38.5,7.5"/>
<path fill="none" stroke="#000000" stroke-width="0.5" stroke-linecap="round" stroke-linejoin="round" d="M253.5,218
	c9.1-9.3,19-18.1,26.5-28.5"/>
<path fill="none" stroke="#000000" stroke-width="0.5" stroke-linecap="round" stroke-linejoin="round" d="M280,189.5
	c-12.9-10.6-30-12-46-12"/>
<path fill="none" stroke="#000000" stroke-width="0.5" stroke-linecap="round" stroke-linejoin="round" d="M281,189.5
	c10.6-10.6,19.4-22.5,29.5-33.5"/>
<path fill="none" stroke="#000000" stroke-width="0.5" stroke-linecap="round" stroke-linejoin="round" d="M310.5,156
	c-13.2-10.2-30.4-5.6-45.5-4.5"/>
<path fill="none" stroke="#000000" stroke-width="0.5" stroke-linecap="round" stroke-linejoin="round" d="M310.5,156
	c5.8-6.8,12.8-13.5,17.5-20.5"/>
<path fill="none" stroke="#000000" stroke-width="0.5" stroke-linecap="round" stroke-linejoin="round" d="M328,135.5
	c-11.9-10.7-28.6-14.5-44-11"/>
<path fill="none" stroke="#000000" stroke-width="0.5" stroke-linecap="round" stroke-linejoin="round" d="M328,135.5
	c9-5.8,15.4-20.6,23-28"/>
<path fill="none" stroke="#000000" stroke-width="0.5" stroke-linecap="round" stroke-linejoin="round" d="M342,159.5
	c-1.7-7.1-9.4-18.4-14-24"/>
<path fill="none" stroke="#000000" stroke-width="0.5" stroke-linecap="round" stroke-linejoin="round" d="M232,239.5
	c9.2,11.3,3.5,26.5,1,39"/>
<path fill="none" stroke="#000000" stroke-width="0.5" stroke-linecap="round" stroke-linejoin="round" d="M205,263.5
	c6.1,9.2,1.8,20.8-2,30"/>
<path id="www.ABC-color.com" fill="none" stroke="#000000" stroke-width="0.5" stroke-linecap="round" stroke-linejoin="round" d="
	M180,283.5c0.5,7.7-1.5,15.3-5,22"/>
<path fill="none" stroke="#000000" stroke-width="0.5" stroke-linecap="round" stroke-linejoin="round" d="M132,311.5
	c16.4-6.9,33.4-15.4,46-28"/>
<path fill="none" stroke="#000000" stroke-width="0.5" stroke-linecap="round" stroke-linejoin="round" d="M178,283.5
	c-7.8-5-17.6-2.9-26-1"/>
<path fill="none" stroke="#000000" stroke-width="0.5" stroke-linecap="round" stroke-linejoin="round" d="M180,283.5
	c7.7-6.6,17.2-11.7,23-20"/>
<path fill="none" stroke="#000000" stroke-width="0.5" stroke-linecap="round" stroke-linejoin="round" d="M205,263.5
	c8.2-8.5,16.8-16.6,26-24"/>
<path fill="none" stroke="#000000" stroke-width="0.5" stroke-linecap="round" stroke-linejoin="round" d="M231,239.5
	c-3.3-2.1-7.2-3.3-11-4"/>
<path fill="none" stroke="#000000" stroke-width="0.5" stroke-linecap="round" stroke-linejoin="round" d="M232,239.5
	c4.3-6.4,10.8-11.3,16-17"/>
</svg>
