<?xml version="1.0" encoding="utf-8"?>
<!-- Generator: Adobe Illustrator 15.0.0, SVG Export Plug-In . SVG Version: 6.00 Build 0)  -->
<!DOCTYPE svg PUBLIC "-//W3C//DTD SVG 1.1//EN" "http://www.w3.org/Graphics/SVG/1.1/DTD/svg11.dtd">
<svg version="1.1" id="layer_x5F_www.ABC-color.com"
	 xmlns="http://www.w3.org/2000/svg" xmlns:xlink="http://www.w3.org/1999/xlink" x="0px" y="0px" width="822px" height="567px"
	 viewBox="0 0 822 567" enable-background="new 0 0 822 567" xml:space="preserve">
<polyline fill="#FFFFFF" points="0,0 822,0 822,567 "/>
<path id="www.ABC-color.com" fill="#FFFFFF" stroke="#000000" stroke-miterlimit="10" d="M404,543.7v0.398
	c-39.1,5-133.7-16.6-181.2-54.1C171,449,144.9,353.3,143,280.1c-2.7-103,68.8-186.7,146-235c47.1-29.5,157-38,206,18
	c-4.3,0.8,11.7-1.5,15.4-1.9c35.1-4.8,67.5,8.2,87.398,25.9c70,62.2,89.602,202.7,57.2,288C618.2,472.1,509.9,537.9,404,543.7z"/>
<path fill="none" stroke="#000000" stroke-width="0.5" stroke-linecap="round" stroke-linejoin="round" d="M499.3,62.3
	C333,107.1,334,208.1,335,238.1"/>
</svg>
