<?xml version="1.0" encoding="utf-8"?>
<!-- Generator: Adobe Illustrator 15.0.0, SVG Export Plug-In . SVG Version: 6.00 Build 0)  -->
<!DOCTYPE svg PUBLIC "-//W3C//DTD SVG 1.1//EN" "http://www.w3.org/Graphics/SVG/1.1/DTD/svg11.dtd">
<svg version="1.1" id="layer_x5F_www.ABC-color.com"
	 xmlns="http://www.w3.org/2000/svg" xmlns:xlink="http://www.w3.org/1999/xlink" x="0px" y="0px" width="822px" height="567px"
	 viewBox="0 0 822 567" enable-background="new 0 0 822 567" xml:space="preserve">
<rect display="none" fill="#FFFFFF" width="822" height="567"/>
<path fill="#FFFFFF" stroke="#000000" d="M584.8,255.3c2.9,21.9,2.7,42.2,0,64c-11.3,91-75.5,169.9-167,177
	c-21.898,1.7-42.8,1.4-65-1c-100-11-166.6-87.1-174-176c-7.8-93.7,48.6-210,169-221c20.8-1.9,42.8-1,66,2c-0.1,7.9-2.1,17.7-8,23
	c-4.898-5.2-9.1-12.9-17-13.8c-6.2,2.1-6.3,9.4-9.6,14c-8-0.6-15.9-2.1-24-0.9c3.2,6.1,12.7,8.3,15,15.7
	c-5.4,8.4-12.8,16.8-15.102,26.7c7.802,0.4,13.2-9.5,21.4-8.4c0.9,11.3-4.2,23.2-0.7,34.3c7.602-1.3,7.8-13,15.8-14.3
	c8.802,9.5,9.102,25.7,20.9,32.4c1.5-9.6-2.4-22.6,5.1-29.5c14.5,4.8,24.302,18.5,38.9,23.5c-1.601-12.5-16.5-20.4-17.4-33.6
	c6.5-3.2,15.602,1.1,22.302-2.4c-2.802-6-12.5-7.3-15.302-13.6c5.802-6.2,17.2-10.1,17.4-19.8c-7.7,0.4-15.9,1.5-23.7,2.4
	c-4-3.7-3.1-10.4-7-14.4c-3.2-1.5-5.898,1.7-9,1.7c-0.2-6.8,5.8-12.1,5-19C518.6,108.8,574.4,176.6,584.8,255.3z"/>
<path id="www.ABC-color.com" fill="#FFFFFF" stroke="#000000" d="M463.5,133.6c-0.2,9.6-11.6,13.6-17.4,19.8
	c2.802,6.3,12.5,7.6,15.302,13.6c-6.7,3.5-15.802-0.8-22.302,2.4c0.9,13.2,15.802,21.1,17.4,33.6c-14.5-5-24.4-18.6-38.9-23.5
	c-7.5,6.9-3.6,19.9-5.1,29.5c-11.8-6.7-12.1-22.9-20.9-32.4c-8,1.2-8.198,13-15.8,14.3c-3.5-11.1,1.602-23,0.7-34.3
	c-8.2-1.1-13.6,8.8-21.4,8.4c2.302-9.9,9.7-18.3,15.102-26.7c-2.3-7.4-11.8-9.6-15-15.7c8.1-1.1,16,0.4,24,0.9
	c3.3-4.6,3.398-11.9,9.6-14c7.9,0.8,12.102,8.5,17,13.8c0.7,10.2-10.3,14.3-17.7,18.3c-2.398,11.5,13.102,19.9,22.5,16.4
	c3.4-11.4,3.302-24.9,12.9-33.7c0.1-0.3,0.2-0.7,0.3-1c3.102,0,5.8-3.2,9-1.7c3.9,4,3,10.7,7,14.4
	C447.5,135,455.8,133.9,463.5,133.6z"/>
<path fill="#FFFFFF" stroke="#000000" d="M428.8,104.3c0.8,6.8-5.2,12.2-5,19c-0.1,0.3-0.2,0.7-0.3,1c-9.6,8.8-9.5,22.3-12.9,33.7
	c-9.398,3.5-24.898-4.9-22.5-16.4c7.4-4,18.4-8.1,17.7-18.3c5.9-5.3,7.9-15,8-23c-0.3-5.9-3.7-11.1-4-17c5.102,1.1,10.9,1.8,16,0
	C429.7,89.5,428.6,97.2,428.8,104.3z"/>
<path fill="#FFFFFF" stroke="#000000" d="M409.8,83.3c-12.6-17.4,25-18.8,16,0C420.7,85.1,414.9,84.4,409.8,83.3z"/>
<path fill="none" stroke="#000000" stroke-width="0.25" stroke-linecap="round" d="M302.8,190.3c5.5-4.9,11.5-9.5,18-13"/>
<path fill="none" stroke="#000000" stroke-width="0.25" stroke-linecap="round" d="M474.8,245.3c-3.2-2.7-4.8-6.6-7-10"/>
<path fill="none" stroke="#000000" stroke-width="0.25" stroke-linecap="round" d="M302.8,190.3c5.5-4.9,11.5-9.5,18-13"/>
<path fill="none" stroke="#000000" stroke-width="0.25" stroke-linecap="round" d="M474.8,245.3c-3.2-2.7-4.8-6.6-7-10"/>
</svg>
