<?xml version="1.0" encoding="utf-8"?>
<!-- Generator: Adobe Illustrator 15.0.0, SVG Export Plug-In . SVG Version: 6.00 Build 0)  -->
<!DOCTYPE svg PUBLIC "-//W3C//DTD SVG 1.1//EN" "http://www.w3.org/Graphics/SVG/1.1/DTD/svg11.dtd">
<svg version="1.1" id="layer_x5F_www.ABC-color.com"
	 xmlns="http://www.w3.org/2000/svg" xmlns:xlink="http://www.w3.org/1999/xlink" x="0px" y="0px" width="822px" height="567px"
	 viewBox="0 0 822 567" enable-background="new 0 0 822 567" xml:space="preserve">
<polyline fill="#FFFFFF" points="0,0 822,0 822,567 "/>
<path fill="#FFFFFF" stroke="#000000" d="M412.6,17.9C426.3,21.8,430,34,438,43c14.1,15.9,33.6,23.2,50.1,34.8
	c-15.3,13.9-36.698,27.5-37.198,50.4c-72.7-40.9-160.5-38.7-240-24C257.6,44.1,338.5,18,412.6,17.9z"/>
<path fill="#FFFFFF" stroke="#000000" d="M698.1,166.6c-19.898-7.4-41.898-3.1-62.398-7.2c2.7-13.7-24.4-41.2-48-52.7
	C574,100,567.1,94,554.2,91.3c-19.2-4-45.5-6.1-66-13.4C471.7,66.3,452.2,59,438,43c-8.1-9.1-11.7-21.3-25.5-25.2
	c0.6-2.4-0.7-4.7-0.8-6.8C524,6.6,646.3,63.2,698.1,166.6z"/>
<path fill="#FFFFFF" stroke="#000000" d="M635.7,159.4c-14.602-0.7-34.102,8.7-48,15.9c-27.8,14.3-33.3,41.2-52.8,68.9
	c-0.4,0.1-0.802,0.2-1.2,0.4c-3.4-51.5-41.2-90.3-82.8-116.4c0.5-22.8,22-36.5,37.198-50.4c20.5,7.4,46.802,9.4,66,13.4
	c13,2.7,19.802,8.7,33.602,15.4C611.3,118.3,638.4,145.7,635.7,159.4z"/>
<path fill="#FFFFFF" stroke="#000000" d="M698.1,166.6c0.102,0.3,0.2,0.6,0.4,0.8c6.1,0.2,11.1,4.5,16.2,7.6
	c15.3,40.4,14.2,88.1,8.398,127.2c-7.198,48.5-29,88.6-56.5,129.5c-10.3,8.6-21.198,16.6-30.8,26.1c-0.398,0.102-0.8,0.2-1.2,0.4
	c-25.1,20.3-32.1,37.7-60,45.6c-7.198,2-21.198,6.3-24.6,6.602c-10.9,4.1-24,4.6-34,11.198c-22.6-1.398-45.5,7.5-68.6,7.4
	c-24.5-8.4-51.7-1.6-76.4-8.8c-0.1-0.3-0.2-0.5-0.4-0.8c0.102-0.301,0.2-0.5,0.4-0.801c20.4-16.399,45.8-23.399,68.9-33
	C488.8,444.4,524.8,354,531.5,284.301c1.2-12.601,3.1-26,2.4-39.601c0.398-0.1,0.8-0.2,1.198-0.4c19.5-27.8,25-54.6,52.802-68.9
	c13.898-7.2,33.398-16.6,48-15.9C656.3,163.5,678.2,159.2,698.1,166.6z"/>
<path fill="#FFFFFF" stroke="#000000" d="M232.6,451c-3.3,7.4-11.2,9.5-18,12.3c-2.5,5-7.2,6.3-10.8,9
	c-11,8.2-15.9,18.602-26.4,27.602c-15.7-1.2-28.6-28.4-44.4-34.9c-16.8-19.4-7-15-20.8-40.4c0.1-10.1,4.3-16.8,9.9-19.698l0.8,0.1
	c2.5-3.5,11.8-13.9,17-15c12.8-11.3,8-15,29-20.6c9.5,10.699,12,28.198,25.2,36c0.4,0,0.8,0,1.2,0C203.7,423.1,224,433.6,232.6,451z
	"/>
<path fill="#FFFFFF" stroke="#000000" d="M533.8,244.6c0.7,13.5-1.2,27-2.398,39.6c-6.602,69.7-42.7,160.1-91.602,201.3
	c-23,9.6-48.398,16.6-68.898,33c-0.102,0.3-0.2,0.6-0.4,0.8c-2.7-0.3-4.7,1.9-7.2,2.4c-12.6-0.8-22.6,1.5-33.6-1.4
	c-17.2-4.6-25.8-22-43.2-26.398c-19.1-12.802-38.1-26-54-42.9c-8.6-17.4-28.9-27.9-37.2-45.6c-0.4,0-0.8,0-1.2,0
	c-13.2-7.802-15.7-25.302-25.2-36.001c0-0.399,0-0.801,0-1.199c-41.6-76.5-65.7-196.6,19.2-254c9.4,1.5,15-7.4,22.8-9.9
	c79.4-14.7,167.3-16.9,240,24C492.6,154.3,530.3,193.1,533.8,244.6z"/>
<path fill="none" stroke="#000000" stroke-width="0.5" stroke-linecap="round" stroke-linejoin="round" d="M122.2,404.9
	c9.4-4.9,22.9,0.5,28.8,17.3"/>
<path fill="none" stroke="#000000" stroke-width="0.5" stroke-linecap="round" stroke-linejoin="round" d="M195.4,405.4
	c6.6-1.602,24.2-5,31.2-4.802"/>
<path fill="none" stroke="#000000" stroke-width="0.5" stroke-linecap="round" stroke-linejoin="round" d="M550,510.4
	c-10-6.102-16.6-15.7-22.2-25.802"/>
<path fill="none" stroke="#000000" stroke-width="0.5" stroke-linecap="round" stroke-linejoin="round" d="M634.5,458.2
	c-3.3-16.8-7.1-33.9-6-51.602"/>
<path fill="none" stroke="#000000" stroke-width="0.5" stroke-linecap="round" stroke-linejoin="round" d="M628.5,406.6
	c-12.2-11.1-21.3-26.199-37.2-32.398"/>
<path fill="none" stroke="#000000" stroke-width="0.5" stroke-linecap="round" stroke-linejoin="round" d="M629.4,406.2
	c3.3-9.102-0.302-19.5,2.8-28.4"/>
<path fill="none" stroke="#000000" stroke-width="0.5" stroke-linecap="round" stroke-linejoin="round" d="M632.1,377.8
	c-1.5-13.899-2.6-28-3.6-42"/>
<path fill="none" stroke="#000000" stroke-width="0.5" stroke-linecap="round" stroke-linejoin="round" d="M628.5,335.8
	c-6-17.6-11.6-36.2-22.8-51.6"/>
<path fill="none" stroke="#000000" stroke-width="0.5" stroke-linecap="round" stroke-linejoin="round" d="M629.7,335.5
	c9.8-18.5,8.1-40.2,8.398-60.8"/>
<path fill="none" stroke="#000000" stroke-width="0.5" stroke-linecap="round" stroke-linejoin="round" d="M632.1,377.8
	c21.2-14.899,52.802-30.7,50.4-61.2"/>
<path fill="none" stroke="#000000" stroke-width="0.5" stroke-linecap="round" stroke-linejoin="round" d="M226.6,400.6
	C226.3,371.4,232.6,299,190,256"/>
<path fill="none" stroke="#000000" stroke-width="0.5" stroke-linecap="round" stroke-linejoin="round" d="M226.6,400.6
	c24.1-0.6,48.8-10,69.6-20.398"/>
<path id="www.ABC-color.com" fill="none" stroke="#000000" stroke-width="0.5" stroke-linecap="round" stroke-linejoin="round" d="
	M296.2,380.2c-3.1-27.9,1.2-78.4-29.2-124.2"/>
<path fill="none" stroke="#000000" stroke-width="0.5" stroke-linecap="round" stroke-linejoin="round" d="M335.4,359.5
	c14.5-17,32.1-32,43-51.8"/>
<path fill="none" stroke="#000000" stroke-width="0.5" stroke-linecap="round" stroke-linejoin="round" d="M297.4,380.2
	c14.3-4.2,23.6-17.3,38-20.7"/>
<path fill="none" stroke="#000000" stroke-width="0.5" stroke-linecap="round" stroke-linejoin="round" d="M378.4,307.6
	c9-19.1,16.8-39.2,16.198-60.6"/>
<path fill="none" stroke="#000000" stroke-width="0.5" stroke-linecap="round" stroke-linejoin="round" d="M339.4,354.9
	c-1.102-25.9-0.7-67-16.802-88.7"/>
<path fill="none" stroke="#000000" stroke-width="0.5" stroke-linecap="round" stroke-linejoin="round" d="M372.8,316.6
	c21.8-9,47.602-5.5,60.102-2.398"/>
<path fill="none" stroke="#000000" stroke-width="0.5" stroke-linecap="round" stroke-linejoin="round" d="M339.4,354.9
	c19.398,2.5,47.3,12.1,57.6,31.3"/>
<path fill="none" stroke="#000000" stroke-width="0.5" stroke-linecap="round" stroke-linejoin="round" d="M296.2,380.2
	c22,4.1,60.7,33.3,76.6,52.2"/>
<path fill="none" stroke="#000000" stroke-width="0.5" stroke-linecap="round" stroke-linejoin="round" d="M247,398.2
	c19.6,7.1,72.3,40.7,75.5,63.6"/>
<path fill="none" stroke="#000000" stroke-width="0.5" stroke-linecap="round" stroke-linejoin="round" d="M179.8,443.8
	c-2.3-4.3-3.5-9.6-7.2-13.2"/>
<path fill="none" stroke="#000000" stroke-width="0.5" stroke-linecap="round" stroke-linejoin="round" d="M207,460.2
	c-4.3,0.6-8.1-3.9-8-8"/>
<path fill="none" stroke="#000000" stroke-width="0.5" stroke-linecap="round" stroke-linejoin="round" d="M203.8,448.6
	c0.9,3.9,4.9,7.4,3.2,11.602"/>
<path fill="none" stroke="#000000" stroke-width="0.5" stroke-linecap="round" stroke-linejoin="round" d="M182.2,479.8
	c-1.2-6.1-3.4-11.898-4.8-18"/>
</svg>
