<?xml version="1.0" encoding="utf-8"?>
<!-- Generator: Adobe Illustrator 15.0.0, SVG Export Plug-In . SVG Version: 6.00 Build 0)  -->
<!DOCTYPE svg PUBLIC "-//W3C//DTD SVG 1.1//EN" "http://www.w3.org/Graphics/SVG/1.1/DTD/svg11.dtd">
<svg version="1.1" id="layer_x5F_www.ABC-color.com"
	 xmlns="http://www.w3.org/2000/svg" xmlns:xlink="http://www.w3.org/1999/xlink" x="0px" y="0px" width="822px" height="567px"
	 viewBox="0 0 822 567" enable-background="new 0 0 822 567" xml:space="preserve">
<polyline fill="#FFFFFF" points="0,0 822,0 822,567 "/>
<path fill="#FFFFFF" stroke="#000000" d="M709.1,177.8c3.2,1.3,6.302,3,9.602,3.8l-0.2,0.6c0.5,4.1,1.8,5.4,2.5,9.8
	c4.2,26.9,22.8,20.8,43.9,24.1c18.898,2.9,36.398,10.8,30.6,38c-10,13.7-30.4,23.9-44.7,11.3c0.2-1.4,1-2.5,1.7-3.7
	c0.6-0.3,1.2-0.6,1.8-0.7c11.9,1.9,26.9,4.6,34.5-7.7c-0.398-5.2,0.8-10.1-1.3-14.5c-12-24.9-63.5,12.1-76.2-59.1
	C711.7,179.5,708.9,178.1,709.1,177.8z"/>
<path id="www.ABC-color.com" fill="#FFFFFF" stroke="#000000" d="M764.7,154.9c-8.4-20.7-46.8-3.5-46.8,18.1
	C733.1,186.9,773.7,177,764.7,154.9z M710.2,166.9l0.1-0.1c-1.398-34.2,73.602-35.1,66.5-1.7c-4.6,21.5-34.5,25.3-56.3,16.9
	c-0.6-0.1-1.2-0.2-1.8-0.4c-3.3-0.8-6.4-2.5-9.602-3.8c-9-6.8-18.3-15.7-18.898-27.6c1.8-10.6,12.1-17.1,21.6-20.1
	c0,0.2,0.102,0.4,0.102,0.5C700.2,139.3,696.8,158.8,710.2,166.9z"/>
<path fill="#FFFFFF" stroke="#000000" d="M728.9,121.5c-0.602,9.5-11.302,5.2-17.102,8.6c-9.398,3-19.8,9.5-21.6,20.1
	c-2.602,1.8-3,5.4-3.8,8.3c-0.302,0-0.7,0-1,0c-1.102-1.2-2.602-2.3-3.302-2.7c0-0.7-0.3-1.7-1.198-2.8c0.198-1.2-1.2-3.1-2.2-4.2
	c-0.2-2.6,2.1-4.8,0.7-7.3C686.1,118.8,718.7,107.8,728.9,121.5z"/>
<path fill="#FFFFFF" stroke="#000000" d="M674.2,141c1.898,0,3.5-0.1,5.3,0.5c1.4,2.5-0.9,4.7-0.7,7.3c1,1.1,2.4,3,2.2,4.2
	c0.8,1.1,1.2,2.1,1.2,2.8c0.7,0.3,2.2,1.4,3.3,2.7c0.3,0,0.7,0,1,0c2.2,13.5,2.1,40.3-5.2,48.7c0.102,8.5-1.6,10.6-11.1,21.5
	c-6.3,7.3-4.5,13.8-14,23.3c-0.7,4.9-3.602,7.7-7.9,10c-0.6,2.9-0.1,6.5-2.2,8.8c-1.198,0.3-3,0.2-4.398,0.3
	c-16.3,11.5-31.602,24.4-47.602,36.1c-7.698,15.3-16.3,29.8-29.898,40.6c-17.102,6.101-28.102,23.9-44,33
	c-5,0.101-10,3.101-12.4,7.4c-11.398,6.3-23,12.1-33.6,19.6c-8.3,0.102-16.5,4.5-22,10c-15.5-0.3-26.102,14.9-40.5,14.2
	c-2.102,1.8-4.2,3.5-7.102,3.5c-8.698-4.8-14.198,5.1-21.3,8.3c-10.8,1.8-22.6-0.1-32,7c-7.1,0-14.5-0.2-20,5
	c-19.2,3.602-37.6,8.8-56.6,13.2c-15.9-5.1-31.4,7.3-47.9,2c-10.6,11.4-22.6-11.4-31.4,2.7c-17-0.8-39.9-6.8-42.1-27.2
	c3.9-11.8-7.5-29.9,12.1-32.8c13.1-14,26.9-29,38.8-43.601c0.9-0.101,2.3-0.101,3.4-0.101c5.4-3.899,9.1-9.8,12.9-15.2
	c29.1-16.1,52.1-39.699,82.2-52.8c1.1,0.7,2.5,0.899,3.898,0.899c13.602-13.301,32.4-19.399,49-27.399c8.302,0.7,15.7-6.8,22.2-11.5
	c34.2-11.5,72.4-25.7,93.5-57.1c1-0.9,2.4-0.8,3.602-1.3c1.5-6.6,9.398-7.8,15.198-8.9c4.302-7.5,13-11.8,21.2-14.1
	c6.2-6,13.602-9.7,23.2-9.8c3-2,2.4-5.4,5.6-7.7c8.102,1.8,12.802-3.4,17.4-8.2c18.3,3.5,32.8-15.7,51.3-15.3
	c5.2-1.6,9.8-3.2,14.7-6.8c2,0.4,2.2,2.6,3.6,3.7c0.4,0.1,0.9,0.2,1.4,0.3c2.6-0.5,2.4-4.2,5-4.6c7,3.4,15.9-2.6,23.1,2.6
	c5.102-2.9,12.602-1.3,17.2,1.9C673.8,139.6,674,140.3,674.2,141z"/>
<g id="XMLID_2_">
	<g>
		<path fill="none" stroke="#000000" stroke-width="0.25" stroke-linecap="round" d="M686.4,158.5c-0.302,0-0.7,0-1,0"/>
		<path fill="none" stroke="#000000" stroke-width="0.25" stroke-linecap="round" d="M685.4,158.5c-8.802,19.2-2.802,45.3-20.5,61.5
			"/>
		<path fill="none" stroke="#000000" stroke-width="0.25" stroke-linecap="round" d="M682.1,155.8c-7,6-5.398,17.5-11.1,24.8
			c-7.2-2.8-7.2,10.2-11.7,13.7c-14-0.2-14.7,19.9-24.1,27.9c-3.602,3.1-11.3,6.1-15.8,11.2"/>
		<path fill="none" stroke="#000000" stroke-width="0.25" stroke-linecap="round" d="M680.9,153c-3.2,0.3-5.5,2.4-8.2,3.8
			c-3,9.4-16.2,3.1-18.5,13.4c-9.4,4.8-15.8,11.6-24.2,17.8"/>
		<path fill="none" stroke="#000000" stroke-width="0.25" stroke-linecap="round" d="M678.8,148.8c-15.8-4.2-28.6,7.4-43.1,8.9
			c-2.4,2.8-1.8,8.7-6.102,9.2c-1.8-1.5-4.198-0.6-6.1-1.9c-2.9,4.4-8.5,6.1-10.6,10.9c-9.2-5.3-21.102-3.9-21.5,9.5"/>
		<path fill="none" stroke="#000000" stroke-width="0.25" stroke-linecap="round" d="M674.2,141c-0.2,0.6-0.5,1.5-1,2.2
			c-3.7,1.9-8.5,1.4-12.4,1.9c-13.898-6.5-31.5,2.5-44.3,9.3"/>
		<path fill="none" stroke="#000000" stroke-width="0.25" stroke-linecap="round" d="M530.9,224c1.6-2,1.6-6,4.6-6.4
			c9.7,1.5,13-15.4,24.2-12.6c2.1-5.6,11.3-5.8,11.2-13.4c0.698-1.2,2.8-0.5,2.5,0.9"/>
		<path fill="none" stroke="#000000" stroke-width="0.25" stroke-linecap="round" d="M588.4,263.5c-0.102,0.3-0.102,0.6-0.2,0.8
			c-5.3,11.1-17,12.8-25.8,19.5c-4.802-1.2-6.4,4.2-8.802,6.8c-5.8,6.2-11.3,12.7-19.198,16.801"/>
		<path fill="none" stroke="#000000" stroke-width="0.25" stroke-linecap="round" d="M458.4,280.5c5-2.9,5.198-9.8,9.5-13.5"/>
		<path fill="none" stroke="#000000" stroke-width="0.25" stroke-linecap="round" d="M403,302.5c4.5-9.2,12.1-0.2,20-5.5"/>
		<path fill="none" stroke="#000000" stroke-width="0.25" stroke-linecap="round" d="M352,328c5.4-4.6,11.1-6.5,17-11"/>
		<path fill="none" stroke="#000000" stroke-width="0.25" stroke-linecap="round" d="M442.4,366.5c0.198-0.2,0.3-0.3,0.5-0.5
			c7.698-1.6,13.6-8,21.6-10.4c7.3-2.199,19.2,2.2,18.3-10.1c0.602-0.9,1.2-1.9,1.8-2.7c6.7-0.8,11.5-4.1,15.302-9.8"/>
		<path fill="none" stroke="#000000" stroke-width="0.25" stroke-linecap="round" d="M307,350c6.4-9.5,19.1-0.5,24.5-11.5"/>
		<path fill="none" stroke="#000000" stroke-width="0.25" stroke-linecap="round" d="M253.5,378.5c7.9-2.7,15-7.2,21.5-12.5"/>
		<path fill="none" stroke="#000000" stroke-width="0.25" stroke-linecap="round" d="M338.5,408.5c9.2-0.7,12.6-14.6,22.5-9.8
			c3.9-0.9,7.2-2.9,11-3.7"/>
		<path fill="none" stroke="#000000" stroke-width="0.25" stroke-linecap="round" d="M204.5,409.5c4.8-6.5,13.6-6.8,18-14"/>
		<path fill="none" stroke="#000000" stroke-width="0.25" stroke-linecap="round" d="M249.5,438.4c0.2,0.198,0.3,0.3,0.5,0.5
			c0.9,0.5,2.3,0.5,3.3,0.3c7.5-8.7,19.2-8.102,29.1-12.8"/>
		<path fill="none" stroke="#000000" stroke-width="0.25" stroke-linecap="round" d="M168.5,448.9c12.4,4.6,24-2.4,36-2.5"/>
		<path fill="none" stroke="#000000" stroke-width="0.25" stroke-linecap="round" d="M168.5,448.9c1.5,5.1,2.7,12.1,8.5,14"/>
		<path fill="none" stroke="#000000" stroke-width="0.25" stroke-linecap="round" d="M160.5,448.9c2.7,0,5.3,0,8,0"/>
		<path fill="none" stroke="#000000" stroke-width="0.25" stroke-linecap="round" d="M168.5,448.9c-1.4-3.102-1.7-6.2-1-9.5"/>
		<path fill="none" stroke="#000000" stroke-width="0.25" stroke-linecap="round" d="M167.5,439.4c-0.2-0.4-0.5-0.9-0.7-1.302"/>
		<path fill="none" stroke="#000000" stroke-width="0.25" stroke-linecap="round" d="M166.8,438.1c-1.8-1.198-3.1-3.8-4.3-5.698"/>
		<path fill="none" stroke="#000000" stroke-width="0.25" stroke-linecap="round" d="M166.8,438.1c1.5-5.398,1.1-11.5,3.7-16.698"/>
		<path fill="none" stroke="#000000" stroke-width="0.25" stroke-linecap="round" d="M167.5,439.4c4-3.9,7.4-9.102,12.5-12.5"/>
	</g>
</g>
</svg>
