<?xml version="1.0" encoding="utf-8"?>
<!-- Generator: Adobe Illustrator 15.0.0, SVG Export Plug-In . SVG Version: 6.00 Build 0)  -->
<!DOCTYPE svg PUBLIC "-//W3C//DTD SVG 1.1//EN" "http://www.w3.org/Graphics/SVG/1.1/DTD/svg11.dtd">
<svg version="1.1" id="layer_x5F_www.ABC-color.com"
	 xmlns="http://www.w3.org/2000/svg" xmlns:xlink="http://www.w3.org/1999/xlink" x="0px" y="0px" width="822px" height="567px"
	 viewBox="0 0 822 567" enable-background="new 0 0 822 567" xml:space="preserve">
<rect display="none" fill="#FFFFFF" width="822" height="567"/>
<path fill="#FFFFFF" stroke="#000000" d="M597.8,64.9c-3-1.8-9.898-4.2-8-10l-0.5-0.6c1.8-1.3,3.602-2.5,5.5-3.7
	c17.3-2.5,20,14.7,9.9,15.7C602.8,66.4,600.5,66,597.8,64.9z"/>
<path fill="#FFFFFF" stroke="#000000" d="M589.8,54.9c-1.898,5.8,5,8.2,8,10c2.7,1.1,5,1.5,6.9,1.3l0.1,0.7
	c-16.3,9.5-28.898,22.3-29.6,42.5c-3.4-0.2-7.8-0.4-10-3c0.6-3.4-3.102-5.5-2-9c1.8-18.4,12.1-32.9,26.1-43.1L589.8,54.9z"/>
<path id="www.ABC-color.com" fill="#FFFFFF" stroke="#000000" d="M565.2,106.4c2.2,2.6,6.6,2.8,10,3c0.1,0.2,0.2,0.5,0.3,0.7
	c61.3,11.6,89.7,79.2,82.7,137.3c-16.602,136.5-173.5,287.3-309,276c-24.2-2-59.4-16.5-86.2-46c-6.8,2.698-19.8-7.4-28.8-14.2
	c-22.1-16.602-46-40.4-57.7-63.8c-12-24-15.1-51.2-13.3-77c9.6-135,165.3-286.8,298-279c43.2,2.5,73.398,18.5,102,54
	C562.1,100.9,565.8,102.9,565.2,106.4z"/>
<path fill="none" stroke="#000000" stroke-width="0.5" stroke-linecap="round" stroke-linejoin="round" d="M565.2,106.4
	c-31.8-2.8-64.102-0.5-94,10"/>
<path fill="none" stroke="#000000" stroke-width="0.5" stroke-linecap="round" stroke-linejoin="round" d="M243.2,420.3
	c1.8,20.102,9.8,39.3,19.8,57"/>
<path fill="none" stroke="#000000" stroke-width="0.5" stroke-linecap="round" stroke-linejoin="round" d="M251.2,343.3
	c7.2-26.7,19.8-52.2,34-76"/>
</svg>
