<?xml version="1.0" encoding="utf-8"?>
<!-- Generator: Adobe Illustrator 15.0.0, SVG Export Plug-In . SVG Version: 6.00 Build 0)  -->
<!DOCTYPE svg PUBLIC "-//W3C//DTD SVG 1.1//EN" "http://www.w3.org/Graphics/SVG/1.1/DTD/svg11.dtd">
<svg version="1.1" id="layer_x5F_www.ABC-color.com"
	 xmlns="http://www.w3.org/2000/svg" xmlns:xlink="http://www.w3.org/1999/xlink" x="0px" y="0px" width="822px" height="567px"
	 viewBox="0 0 822 567" enable-background="new 0 0 822 567" xml:space="preserve">
<polyline fill="#FFFFFF" points="0,0 822,0 822,567 "/>
<path fill="#FFFFFF" stroke="#000000" d="M536.4,252C677.2,261.3,754.6,413.8,745.1,541.7c-119.5-1.2-258.8-3.4-340.6-105.7
	C462.7,386.8,509.3,322.8,536.4,252z"/>
<path fill="#FFFFFF" stroke="#000000" d="M461.4,92c50.6,12.3,82,43.4,86,87c2.198,23.8-4.102,48.9-11,73
	c-27.102,70.8-73.7,134.8-132,184c-60.102,41.6-98.7,57.3-155,62c-5.8,0.5-12.5,2.2-19,2c-14.7-0.5-29.1-6.3-46.2-6.8
	c-20.6-0.602-40.3,12.398-61.8,4.6c-6.7-7.7-6.8-17.8-9-27.8c-11.3-52.4-27.8-100-20-155c4-28.4,14.3-58.5,27.9-89
	c37.8-84.6,142.6-181.3,210-200.8c43.7-12.6,97.3,16,129.8,65C461.3,90.8,461.4,91.4,461.4,92z"/>
<path fill="none" stroke="#000000" stroke-width="0.5" stroke-linecap="round" stroke-linejoin="round" d="M477.9,357.8
	c9.5-5,28.5,5.2,28.5,5.2"/>
<path fill="none" stroke="#000000" stroke-width="0.5" stroke-linecap="round" stroke-linejoin="round" d="M461.4,92
	c-27.9-0.2-61.7,7.3-75,35"/>
<path fill="none" stroke="#000000" stroke-width="0.5" stroke-linecap="round" stroke-linejoin="round" d="M506.4,363
	c-7.2,23,21.898,84.5,15.898,105.5"/>
<path fill="none" stroke="#000000" stroke-width="0.5" stroke-linecap="round" stroke-linejoin="round" d="M506.4,363
	c13.5-21.4,63.1-29,66.6-64.5"/>
<path fill="none" stroke="#000000" stroke-width="0.5" stroke-linecap="round" stroke-linejoin="round" d="M560.4,379
	c0.1,17,14.698,53.6,14.698,70.5"/>
<path id="www.ABC-color.com" fill="none" stroke="#000000" stroke-width="0.5" stroke-linecap="round" stroke-linejoin="round" d="
	M506.4,363c15.6,8,37.898,12.7,54,16"/>
<path fill="none" stroke="#000000" stroke-width="0.5" stroke-linecap="round" stroke-linejoin="round" d="M560.4,379
	c14.698-17.2,53.1-16,59.1-40.5"/>
<path fill="none" stroke="#000000" stroke-width="0.5" stroke-linecap="round" stroke-linejoin="round" d="M611.4,394
	c0.1,16.3,20.1,41.6,10.6,53.5"/>
<path fill="none" stroke="#000000" stroke-width="0.5" stroke-linecap="round" stroke-linejoin="round" d="M560.4,379
	c14.398,3.6,36.3,12.9,51,15"/>
<path fill="none" stroke="#000000" stroke-width="0.5" stroke-linecap="round" stroke-linejoin="round" d="M611.4,394
	c14.698-9.5,44.198,1,49-16"/>
<path fill="none" stroke="#000000" stroke-width="0.5" stroke-linecap="round" stroke-linejoin="round" d="M611.4,394
	c15.3,4.5,33.6,17.6,47,26"/>
<path fill="none" stroke="#000000" stroke-width="0.5" stroke-linecap="round" stroke-linejoin="round" d="M658.4,420
	c7.398-5.7,25.1,6,31.6-2.5"/>
<path fill="none" stroke="#000000" stroke-width="0.5" stroke-linecap="round" stroke-linejoin="round" d="M658.4,420
	c1.6,9.6-8.4,14.5,2,37.5"/>
<path fill="none" stroke="#000000" stroke-width="0.5" stroke-linecap="round" stroke-linejoin="round" d="M696,484.5
	c-5.8-15.2-24.5-55-37.6-64.5"/>
</svg>
