<?xml version="1.0" encoding="utf-8"?>
<!-- Generator: Adobe Illustrator 15.0.0, SVG Export Plug-In . SVG Version: 6.00 Build 0)  -->
<!DOCTYPE svg PUBLIC "-//W3C//DTD SVG 1.1//EN" "http://www.w3.org/Graphics/SVG/1.1/DTD/svg11.dtd">
<svg version="1.1" id="layer_x5F_www.ABC-color.com"
	 xmlns="http://www.w3.org/2000/svg" xmlns:xlink="http://www.w3.org/1999/xlink" x="0px" y="0px" width="822px" height="567px"
	 viewBox="0 0 822 567" enable-background="new 0 0 822 567" xml:space="preserve">
<polyline fill="#FFFFFF" points="0,0 822,0 822,567 "/>
<path fill="#FFFFFF" stroke="#000000" d="M412.7,286.2c-2.8-0.101-5.9,0.5-8.2,1.8c-2.5,0.5-4.1-2.2-5.5-3.8c-0.1-0.3-0.2-0.7-0.3-1
	c-1.602-0.5-3.4-1.4-4-3c-1.2-1.6-1.3-3.1-2-4c27.3-26,38.5-64.1,47.7-99c-5.302-8-14.9-7.7-21.4-13c-2.3-9.7,8.7-18.3,17.7-14.2
	c3.6-0.9,7.7-2.1,9.7-5.8c-0.9-7.2-10.102-11.2-9.4-18.7c6.7-3.9,13.4,5,20.4,3.4c7-11.6,4.198-28.4,15.3-37.4
	c6.7-1.9,14.3-1.6,21-0.7c9.1-11.4,18.5-36.4,35-18.7c27.8-6.7,44.5-39.8,74-40.6c16.2,25.2,40.3-5,60-8.3
	c19.2,3.3,16.3,29.4,32,36.8c11.1-1.3,17.898-6.3,28-4.8c13.398,2,21.8,14.8,35,18.2c4.5,5.7,3.7,15.5,12,18
	c2.6,3.6,2.898,8.4,3,12.8c16.7,13.4,7.898,37.7-4.602,50.7c19.2,13.8,10.2,42.7-8.8,51.3c6.4,7.1,19.4,12.9,16.102,24.7
	c-9.602,1.7-17.7,15.8-27.802,8.6c-7.198,1.7-14.5-4.7-21.6-4c5.8,11.4,16.8,25.1,9.5,38.4c-11.7,6.8-20-10.9-29.5-10.6
	c4.2,7.7,14.1,17.2,7.5,26.601c-10.4,3.301-14.9-9.799-22.5-13.299c0.2,10.1-2.3,19.7-4.6,29.299
	c-17.7,1.101-17.4-22.799-28.9-31.399c-3.9,7.6-2.8,19.899-10,27.399c-8.1-12.399-20-27.601-36.5-28.399
	c-0.3,11.8,13.6,20,10.4,32.399c-14.8-5.301-23.2-29.5-40.4-27.601c4.5,7.9-2.4,15.601-5.5,22.601c-8-2.801-3.8-15-7-21.399
	c-5.3,4.5-9.2,11.399-13,17.399c-14.2-6.199,0-33.199-18.8-36.601C504.7,294.7,455,288.4,412.7,286.2z M453.2,262.7
	c24.898-1.2,47.6-16.7,69.3-28.5c0.9-2.2,2.2-4.6,2-7c-1.5-4.3-6.4-4.5-9.5-7c-1.5-2.8,2.6-6,0.7-8.4
	C500,234.3,473.5,245.1,453.2,262.7z M414.7,266.2c28.7-17,38.8-53,57.6-78.7c-8.398-0.7-17.3-1.8-23.3-7.9
	C437.1,208.2,428,238,414.7,266.2z M425.7,279.2c20.398,3.3,48.3-3.9,75-8c15.8-2.4,33.1-11.4,22.7-26.7
	c-26.602,11-52.7,28.3-82.7,26.7C435.3,272.2,428.3,273.8,425.7,279.2z M440.7,256.2c27.8-12.5,59.7-28.3,72.7-57
	c-6.5-1.7-13.802-1.5-20.7-2.3c-1.8-1.9-0.102-5.7-3.102-6.9c-1.3-0.6-2.6-0.9-3.898-1.6C465.2,206.3,455.9,234,440.7,256.2z"/>
<path fill="#FFFFFF" stroke="#000000" d="M331,401.5c-11.8,7.6-25.8,12.8-39,18c-0.7,0.5-1.3,0.7-2,0.9
	C228.8,445.1,155.6,470.3,91,497.3c-17,7.102-34.4,15.602-51,20c-4.7,1.3-9.7,2.102-14.7-0.898c29.6-36.7,82-74.5,131.7-120.9
	c64.2-59.899,140.4-153.7,203-144c16.3,2.5,28.5,14.9,36,27c0.7,0.9,0.8,2.4,2,4c0.6,1.601,2.4,2.5,4,3c0.1,0.3,0.2,0.7,0.3,1
	c1.4,1.601,3,4.3,5.5,3.8C443.2,342.6,370.5,383.7,331,401.5z M75.8,491.5l-0.1-0.2C75.7,491.4,75.7,491.4,75.8,491.5z"/>
<path fill="none" stroke="#000000" stroke-width="0.5" stroke-linecap="round" stroke-linejoin="round" d="M495.5,159.2l-0.3,0.1
	C495.3,159.3,495.4,159.3,495.5,159.2z"/>
<path fill="none" stroke="#000000" stroke-width="0.5" stroke-linecap="round" stroke-linejoin="round" d="M495.2,159.4l-0.2,0.1
	C495,159.4,495.1,159.4,495.2,159.4z"/>
<path fill="none" stroke="#000000" stroke-width="0.5" stroke-linecap="round" stroke-linejoin="round" d="M676,77.9
	c2.3,0,4.7,0,7,0"/>
<path fill="none" stroke="#000000" stroke-width="0.5" stroke-linecap="round" stroke-linejoin="round" d="M707,117.9c5,0,10,0,15,0
	"/>
<path fill="none" stroke="#000000" stroke-width="0.5" stroke-linecap="round" stroke-linejoin="round" d="M649,119.9c5,0,10,0,15,0
	"/>
<path fill="none" stroke="#000000" stroke-width="0.5" stroke-linecap="round" stroke-linejoin="round" d="M734,126.9c4,0,8,0,12,0"
	/>
<path fill="none" stroke="#000000" stroke-width="0.5" stroke-linecap="round" stroke-linejoin="round" d="M739,131.9
	c2.7,0,5.3,0,8,0"/>
<path fill="none" stroke="#000000" stroke-width="0.5" stroke-linecap="round" stroke-linejoin="round" d="M684,134.9c2,0,4,0,6,0"
	/>
<path fill="none" stroke="#000000" stroke-width="0.5" stroke-linecap="round" stroke-linejoin="round" d="M514,183.9
	c0.7,0,1.3,0,2,0"/>
<path fill="none" stroke="#000000" stroke-width="0.5" stroke-linecap="round" stroke-linejoin="round" d="M745,228.8
	c0.7,0,1.3,0,2,0"/>
<path fill="none" stroke="#000000" stroke-width="0.5" stroke-linecap="round" stroke-linejoin="round" d="M638,58.9
	c1.7-3.4,4.1-6.6,6-10"/>
<path fill="none" stroke="#000000" stroke-width="0.5" stroke-linecap="round" stroke-linejoin="round" d="M641,65.9
	c2.5-2.1,3-5.6,5-8"/>
<path fill="none" stroke="#000000" stroke-width="0.5" stroke-linecap="round" stroke-linejoin="round" d="M595,67.9
	c4.6-1.4,8.9-4.7,11-9"/>
<path fill="none" stroke="#000000" stroke-width="0.5" stroke-linecap="round" stroke-linejoin="round" d="M600,101.9
	c5.9-3.6,11.4-7.8,16-13"/>
<path fill="none" stroke="#000000" stroke-width="0.5" stroke-linecap="round" stroke-linejoin="round" d="M554,105.9
	c7.5-4.6,14.5-10.5,22-15"/>
<path fill="none" stroke="#000000" stroke-width="0.5" stroke-linecap="round" stroke-linejoin="round" d="M736,93.9
	c0.7-0.7,1.3-1.3,2-2"/>
<path fill="none" stroke="#000000" stroke-width="0.5" stroke-linecap="round" stroke-linejoin="round" d="M491,103.9
	c9.1-2.1,17.8-6.4,26-11"/>
<path fill="none" stroke="#000000" stroke-width="0.5" stroke-linecap="round" stroke-linejoin="round" d="M608,101.9
	c3.9-0.9,6.5-4.5,10-6"/>
<path fill="none" stroke="#000000" stroke-width="0.5" stroke-linecap="round" stroke-linejoin="round" d="M638,103.9
	c9.2-4.5,19-7.4,29-9"/>
<path fill="none" stroke="#000000" stroke-width="0.5" stroke-linecap="round" stroke-linejoin="round" d="M653,104.9
	c8.6-2.8,17.7-4.8,26-9"/>
<path fill="none" stroke="#000000" stroke-width="0.5" stroke-linecap="round" stroke-linejoin="round" d="M504,104.9
	c6.3-1.1,12.5-3.6,18-7"/>
<path fill="none" stroke="#000000" stroke-width="0.5" stroke-linecap="round" stroke-linejoin="round" d="M562,104.9
	c5-2.3,10.2-4.5,15-7"/>
<path fill="none" stroke="#000000" stroke-width="0.5" stroke-linecap="round" stroke-linejoin="round" d="M638,108.9
	c2.3-0.7,4.4-2.5,7-2"/>
<path fill="none" stroke="#000000" stroke-width="0.5" stroke-linecap="round" stroke-linejoin="round" d="M700,110.9
	c7.7,0.4,15.6-0.9,23,1"/>
<path fill="none" stroke="#000000" stroke-width="0.5" stroke-linecap="round" stroke-linejoin="round" d="M665,114.9
	c1.3,0.6,2.7,0.9,4,1"/>
<path fill="none" stroke="#000000" stroke-width="0.5" stroke-linecap="round" stroke-linejoin="round" d="M490,119.9
	c11-2.5,22.9-0.3,34,0"/>
<path fill="none" stroke="#000000" stroke-width="0.5" stroke-linecap="round" stroke-linejoin="round" d="M600,129.9
	c0.6-2.5,2.4-4.5,3-7"/>
<path fill="none" stroke="#000000" stroke-width="0.5" stroke-linecap="round" stroke-linejoin="round" d="M493,125.9
	c8.6,0.3,16.4,0.9,25,0"/>
<path fill="none" stroke="#000000" stroke-width="0.5" stroke-linecap="round" stroke-linejoin="round" d="M532,143.9
	c0.6-4.2,4.9-7.5,5-12"/>
<path fill="none" stroke="#000000" stroke-width="0.5" stroke-linecap="round" stroke-linejoin="round" d="M551,154.9
	c5.1-8.2,12.1-15.2,19-22"/>
<path fill="none" stroke="#000000" stroke-width="0.5" stroke-linecap="round" stroke-linejoin="round" d="M525,143.9
	c1.5-3.6,3.5-7,6-10"/>
<path fill="none" stroke="#000000" stroke-width="0.5" stroke-linecap="round" stroke-linejoin="round" d="M547,145.9
	c1.8-4.7,5.7-8.3,9-12"/>
<path fill="none" stroke="#000000" stroke-width="0.5" stroke-linecap="round" stroke-linejoin="round" d="M615,140.9
	c-4.6,5.1-10.8,8.5-17,11"/>
<path fill="none" stroke="#000000" stroke-width="0.5" stroke-linecap="round" stroke-linejoin="round" d="M644,138.9
	c0.7,0.7,1.3,1.3,2,2"/>
<path fill="none" stroke="#000000" stroke-width="0.5" stroke-linecap="round" stroke-linejoin="round" d="M718,142.9
	c10.3,4,19.5,10.2,28,17"/>
<path fill="none" stroke="#000000" stroke-width="0.5" stroke-linecap="round" stroke-linejoin="round" d="M644,145.9
	c-2.4-0.6-4.5-1.9-7-2"/>
<path fill="none" stroke="#000000" stroke-width="0.5" stroke-linecap="round" stroke-linejoin="round" d="M464,157.9
	c-0.5-3.8,0.7-7.3,1-11"/>
<path fill="none" stroke="#000000" stroke-width="0.5" stroke-linecap="round" stroke-linejoin="round" d="M605,153.9
	c4.2-0.5,7.8-3.4,11-6"/>
<path fill="none" stroke="#000000" stroke-width="0.5" stroke-linecap="round" stroke-linejoin="round" d="M472,158.9
	c0-3.1-0.4-6.2,1-9"/>
<path fill="none" stroke="#000000" stroke-width="0.5" stroke-linecap="round" stroke-linejoin="round" d="M716,150.9
	c5,5.4,12.3,7.6,19,10"/>
<path fill="none" stroke="#000000" stroke-width="0.5" stroke-linecap="round" stroke-linejoin="round" d="M506,170.9
	c4.9-3.1,10.6-4.1,16-6"/>
<path fill="none" stroke="#000000" stroke-width="0.5" stroke-linecap="round" stroke-linejoin="round" d="M558,170.9
	c1.3-0.4,2.7-1,4-2"/>
<path fill="none" stroke="#000000" stroke-width="0.5" stroke-linecap="round" stroke-linejoin="round" d="M649,169.9
	c9.1,2.8,18.3,6.5,28,7"/>
<path fill="none" stroke="#000000" stroke-width="0.5" stroke-linecap="round" stroke-linejoin="round" d="M512,173.9
	c1.7,0.2,3.3-0.6,5-1"/>
<path fill="none" stroke="#000000" stroke-width="0.5" stroke-linecap="round" stroke-linejoin="round" d="M559,176.9
	c1.3-0.9,2.7-1.6,4-2"/>
<path fill="none" stroke="#000000" stroke-width="0.5" stroke-linecap="round" stroke-linejoin="round" d="M737,174.9
	c0.8,0.6,1.8,1.6,3,2"/>
<path fill="none" stroke="#000000" stroke-width="0.5" stroke-linecap="round" stroke-linejoin="round" d="M652,175.9
	c5.7,2.2,11.4,4.8,17,7"/>
<path fill="none" stroke="#000000" stroke-width="0.5" stroke-linecap="round" stroke-linejoin="round" d="M727,185.9
	c3.9,1.9,7.3,4.7,11,7"/>
<path fill="none" stroke="#000000" stroke-width="0.5" stroke-linecap="round" stroke-linejoin="round" d="M720,187.9
	c6.7,1.8,12.7,6.6,17,12"/>
<path fill="none" stroke="#000000" stroke-width="0.5" stroke-linecap="round" stroke-linejoin="round" d="M608,195.9
	c0.7-0.3,1.2-1.2,2-2"/>
<path fill="none" stroke="#000000" stroke-width="0.5" stroke-linecap="round" stroke-linejoin="round" d="M608,201.8
	c3.6-2,6.3-5,9-8"/>
<path fill="none" stroke="#000000" stroke-width="0.5" stroke-linecap="round" stroke-linejoin="round" d="M558,195.9
	c7.3,1.3,13.9,5.3,21,7"/>
<path fill="none" stroke="#000000" stroke-width="0.5" stroke-linecap="round" stroke-linejoin="round" d="M687,197.9
	c2.4,2.7,5.8,4.1,8,7"/>
<path fill="none" stroke="#000000" stroke-width="0.5" stroke-linecap="round" stroke-linejoin="round" d="M555,200.8
	c8,2.5,16.1,5.3,24,8"/>
<path fill="none" stroke="#000000" stroke-width="0.5" stroke-linecap="round" stroke-linejoin="round" d="M681,200.8
	c11.5,3.7,21.8,11.7,28,22"/>
<path fill="none" stroke="#000000" stroke-width="0.5" stroke-linecap="round" stroke-linejoin="round" d="M701,207.8
	c4.3,3.7,9.1,6.8,13,11"/>
<path fill="none" stroke="#000000" stroke-width="0.5" stroke-linecap="round" stroke-linejoin="round" d="M571,215.8
	c9.9,2,19.6,5.3,29,9"/>
<path fill="none" stroke="#000000" stroke-width="0.5" stroke-linecap="round" stroke-linejoin="round" d="M566,220.8
	c11,1.9,21.2,7.3,32,10"/>
<path fill="none" stroke="#000000" stroke-width="0.5" stroke-linecap="round" stroke-linejoin="round" d="M676,225.8
	c6.5,2.2,11.3,7.2,16,12"/>
<path fill="none" stroke="#000000" stroke-width="0.5" stroke-linecap="round" stroke-linejoin="round" d="M674,228.8
	c7.3,2.4,12.5,8.4,16,15"/>
<path fill="none" stroke="#000000" stroke-width="0.5" stroke-linecap="round" stroke-linejoin="round" d="M628,230.8
	c10.3,6.5,20.6,13.4,30,21"/>
<path fill="none" stroke="#000000" stroke-width="0.5" stroke-linecap="round" stroke-linejoin="round" d="M638,232.8
	c6.8,3.6,12.8,9,20,12"/>
<path fill="none" stroke="#000000" stroke-width="0.5" stroke-linecap="round" stroke-linejoin="round" d="M550,243.8
	c2.6,0.9,3.3,4.1,5,6"/>
<path fill="none" stroke="#000000" stroke-width="0.5" stroke-linecap="round" stroke-linejoin="round" d="M544,249.8
	c3,1,5.6,2.9,8,5"/>
<path fill="none" stroke="#000000" stroke-width="0.5" stroke-linecap="round" stroke-linejoin="round" d="M589,249.8
	c2.8,2,6.2,2.9,9,5"/>
<path fill="none" stroke="#000000" stroke-width="0.5" stroke-linecap="round" stroke-linejoin="round" d="M578,250.8
	c6,2.1,10.8,6.5,16,10"/>
<path fill="none" stroke="#000000" stroke-width="0.5" stroke-linecap="round" stroke-linejoin="round" d="M622,261.8
	c-1-3-2.9-5.6-5-8"/>
<path fill="none" stroke="#000000" stroke-width="0.5" stroke-linecap="round" stroke-linejoin="round" d="M681,267.8
	c-1-2.9-2.5-5.9-3-9"/>
<path fill="none" stroke="#000000" stroke-width="0.5" stroke-linecap="round" stroke-linejoin="round" d="M70.2,491.3l0.1,0.2
	C70.2,491.4,70.2,491.4,70.2,491.3z"/>
<path fill="none" stroke="#000000" stroke-width="0.5" stroke-linecap="round" stroke-linejoin="round" d="M286.5,419.5
	c0.4-2.5-1.5-4.5-1-7"/>
<path fill="none" stroke="#000000" stroke-width="0.5" stroke-linecap="round" stroke-linejoin="round" d="M325.5,401.5
	c-1.1-5.7-1.2-12.3-5-17"/>
<path fill="none" stroke="#000000" stroke-width="0.5" stroke-linecap="round" stroke-linejoin="round" d="M341.5,272.5
	c2.8,1.2,4.1,4.3,5,7"/>
<path fill="none" stroke="#000000" stroke-width="0.5" stroke-linecap="round" stroke-linejoin="round" d="M302.5,307.5
	c1.6,2,3.5,3,4.7,2.7c-0.3-1-0.602-2.4-0.7-3.7"/>
<path fill="none" stroke="#000000" stroke-width="0.5" stroke-linecap="round" stroke-linejoin="round" d="M300.5,310.5
	c2.6,0.8,4,3.4,6,5"/>
<path fill="none" stroke="#000000" stroke-width="0.5" stroke-linecap="round" stroke-linejoin="round" d="M238.5,325.5
	c1.3,0.4,2.7,1.8,4,3"/>
<path fill="none" stroke="#000000" stroke-width="0.5" stroke-linecap="round" stroke-linejoin="round" d="M356.5,327.5
	c2.8,3,4.4,7,5,11"/>
<path fill="none" stroke="#000000" stroke-width="0.5" stroke-linecap="round" stroke-linejoin="round" d="M396.5,327.5
	c-0.1,0.3-0.3,0.7-0.4,1c0.802,0.9,2.102,1.6,3.4,2"/>
<path fill="none" stroke="#000000" stroke-width="0.5" stroke-linecap="round" stroke-linejoin="round" d="M234.5,334.5
	c-0.1,0.2-0.2,0.5-0.3,0.7c-1.2-0.2-1.5-1.5-1.7-2.7"/>
<path fill="none" stroke="#000000" stroke-width="0.5" stroke-linecap="round" stroke-linejoin="round" d="M256.5,361.5
	c0.1,0.2,0.2,0.5,0.3,0.7c1.2,0.399,2.2,0.1,2.7-0.7"/>
<path fill="none" stroke="#000000" stroke-width="0.5" stroke-linecap="round" stroke-linejoin="round" d="M250.5,362.5
	c3.7,1.4,5.8,5.4,7,9"/>
<path fill="none" stroke="#000000" stroke-width="0.5" stroke-linecap="round" stroke-linejoin="round" d="M168.5,415.5
	c-0.4-2.8-1.3-5.7-3-8"/>
<path fill="none" stroke="#000000" stroke-width="0.5" stroke-linecap="round" stroke-linejoin="round" d="M217.5,427.5
	c2.1,0.9,3.6,2.8,4,5"/>
<path fill="none" stroke="#000000" stroke-width="0.5" stroke-linecap="round" stroke-linejoin="round" d="M114.5,459.5
	c-0.7-1-0.8-2-1-3"/>
<path fill="none" stroke="#000000" stroke-width="0.5" stroke-linecap="round" stroke-linejoin="round" d="M75.3,483.3
	c0,0,4,2.7,2.7,4.7"/>
<path fill="none" stroke="#000000" stroke-width="0.5" stroke-linecap="round" stroke-linejoin="round" d="M156,452.7
	c0,0,4,4.7,2,6.7"/>
<path fill="none" stroke="#000000" stroke-width="0.5" stroke-linecap="round" stroke-linejoin="round" d="M334,349.3
	c0,0,6.7,1.3,4,6.7"/>
<path id="www.ABC-color.com" fill="none" stroke="#000000" stroke-width="0.5" stroke-linecap="round" stroke-linejoin="round" d="
	M200,387.3c0,0,2.7,1.3,2.7,4.7"/>
<path fill="none" stroke="#000000" stroke-width="0.5" stroke-linecap="round" stroke-linejoin="round" d="M284,337.3
	c0,0,6.7,3.3,5.3,7.3"/>
<path fill="none" stroke="#000000" stroke-width="0.5" stroke-linecap="round" stroke-linejoin="round" d="M286.7,376
	c0,0,7.3,8.7,6,10.7"/>
<path fill="none" stroke="#000000" stroke-width="0.5" stroke-linecap="round" stroke-linejoin="round" d="M320.7,288
	c0,0,10,5.3,7.3,10"/>
<path fill="none" stroke="#000000" stroke-width="0.5" stroke-linecap="round" stroke-linejoin="round" d="M328,318c0,0,6,3.3,6,7.3
	"/>
<path fill="none" stroke="#000000" stroke-width="0.5" stroke-linecap="round" stroke-linejoin="round" d="M364.7,362
	c0,0,5.3,6.7,4,9.3"/>
<path fill="none" stroke="#000000" stroke-width="0.5" stroke-linecap="round" stroke-linejoin="round" d="M235.3,396.7c0,0,6,2,6,6
	"/>
<line fill="none" stroke="#000000" stroke-width="0.5" stroke-linecap="round" stroke-linejoin="round" x1="639.3" y1="213.3" x2="656" y2="217.3"/>
<path fill="none" stroke="#000000" stroke-width="0.5" stroke-linecap="round" stroke-linejoin="round" d="M640.7,206.7
	c0,0,14.7,2,14.7,4"/>
<path fill="none" stroke="#000000" stroke-width="0.5" stroke-linecap="round" stroke-linejoin="round" d="M550.7,78
	c0,0,10.7-6,10.7-8.7"/>
<path fill="none" stroke="#000000" stroke-width="0.5" stroke-linecap="round" stroke-linejoin="round" d="M704,90.7
	c0,0,15.3-8.7,19.3-6"/>
</svg>
