<?xml version="1.0" encoding="utf-8"?>
<!-- Generator: Adobe Illustrator 15.0.0, SVG Export Plug-In . SVG Version: 6.00 Build 0)  -->
<!DOCTYPE svg PUBLIC "-//W3C//DTD SVG 1.1//EN" "http://www.w3.org/Graphics/SVG/1.1/DTD/svg11.dtd">
<svg version="1.1" id="layer_x5F_www.ABC-color.com"
	 xmlns="http://www.w3.org/2000/svg" xmlns:xlink="http://www.w3.org/1999/xlink" x="0px" y="0px" width="822px" height="567px"
	 viewBox="0 0 822 567" enable-background="new 0 0 822 567" xml:space="preserve">
<polyline fill="#FFFFFF" points="0,0 822,0 822,567 "/>
<path fill="none" stroke="#000000" d="M22.8,539.9"/>
<path fill="none" stroke="#000000" d="M16.4,539.9"/>
<path fill="none" stroke="#000000" d="M30.5,539.9"/>
<path fill="none" stroke="#000000" d="M27.3,539.9"/>
<path fill="none" stroke="#000000" d="M37.9,539.9"/>
<path fill="none" stroke="#000000" d="M34.9,539.9"/>
<path fill="none" stroke="#000000" d="M31.8,539.9"/>
<path fill="none" stroke="#000000" d="M51.4,536.6"/>
<path fill="none" stroke="#000000" d="M77.4,536.5"/>
<path fill="none" stroke="#000000" d="M86.7,539.9"/>
<path fill="#FFFFFF" stroke="#000000" stroke-miterlimit="10" d="M96.4,453.2c1.301,0.5,5.2,2.3,5.301,4.398
	c-21,13.5-39.101,25.9-52,35.9C50.5,492.7,70.4,475.6,96.4,453.2L96.4,453.2z"/>
<path fill="#FFFFFF" stroke="#000000" stroke-miterlimit="10" d="M111.5,440.1c5.7-4.898,11.6-10,17.5-15.1
	c0.8,0.2,11.1,2.9,12.8,7.4c-14.1,8.6-27.6,17.1-40.1,25.1c-0.101-2-4-3.9-5.301-4.4C101.2,449,106.3,444.6,111.5,440.1z"/>
<path fill="#FFFFFF" stroke="#000000" stroke-miterlimit="10" d="M160.4,413.2c0.5,2,0.801,4.398,0.601,7.6
	c-6.5,3.9-12.9,7.8-19.2,11.7c-1.7-4.5-12-7.2-12.8-7.4c7.7-6.6,15.6-13.3,23.2-19.898l0.8,0.898C153,406,158.5,406,160.4,413.2z"/>
<path fill="#FFFFFF" stroke="#000000" stroke-miterlimit="10" d="M180,399.1l10.9,3.9c-10,5.9-20,11.8-29.899,17.8
	c0.2-3.2-0.101-5.6-0.601-7.6l0.6-0.2C161,413,177.9,409.1,180,399.1z"/>
<path fill="#FFFFFF" stroke="#000000" stroke-miterlimit="10" d="M176,387c3.8,4.8,4.7,8.8,4,12.1c-2.101,10-19,13.9-19,13.9
	l-0.601,0.2C158.5,406,153,406,153,406l-0.8-0.9c7.3-6.3,14.5-12.398,21.3-18.3L176,387z"/>
<path fill="#FFFFFF" stroke="#000000" stroke-miterlimit="10" d="M209,392l0.1,0.2c-6,3.5-12.1,7.1-18.3,10.7l-10.9-3.9
	c0.7-3.3-0.199-7.3-4-12.1l-2.5-0.102c5.5-4.699,10.801-9.199,15.7-13.398l2.8,0.5c0,0,9.5,2.5,14.301,8.5
	C208.4,385,209.6,388.2,209,392z"/>
<path fill="#FFFFFF" stroke="#000000" stroke-miterlimit="10" d="M217,352c0,0,7.6,9.7,0.2,20.7c-2.2,3.2-5.601,6.5-10.801,9.8
	c-4.899-6-14.3-8.5-14.3-8.5l-2.8-0.5c10.9-9.3,20.1-17,26.2-22.1L217,352z"/>
<path fill="#FFFFFF" stroke="#000000" stroke-miterlimit="10" d="M240,373l0.6,1c-10.1,5.8-20.7,12-31.399,18.2L209,392
	c0.6-3.8-0.601-7-2.7-9.5c5.2-3.3,8.7-6.6,10.8-9.8l0.8,0.3c5-2.8,9-3.8,12.101-4C237.1,368.7,240,373,240,373z"/>
<path fill="#FFFFFF" stroke="#000000" stroke-miterlimit="10" d="M240,373c0,0-2.9-4.3-9.9-4l-0.1-2c0,0,1.7-11.8,5.899-11.4
	c2.801,2.5,7.5,4.4,15.101,4.4l0.6,0.1c-0.399,1.801-0.3,3.801,0.4,5.9l0.6,1.1c-3.899,2.301-8,4.602-12.1,6.9L240,373z"/>
<path fill="#FFFFFF" stroke="#000000" stroke-miterlimit="10" d="M235.9,355.6C231.7,355.2,230,367,230,367l0.1,2
	c-3.1,0.1-7.2,1.2-12.1,4l-0.8-0.3C224.7,361.6,217,352,217,352l-1.601-0.6c4.601-3.801,7.5-6.102,8.101-6.5
	c1.8-1,3.8-2.102,5.899-3.301L232,343C232,343,230.2,350.5,235.9,355.6z"/>
<path fill="#FFFFFF" stroke="#000000" stroke-miterlimit="10" d="M235.9,355.6c-5.6-5-3.9-12.6-3.9-12.6l-2.601-1.4
	c5.301-3,11.4-6.5,18.101-10.398l0.399,0.8c0,0,6.601,14.3,15.101,14.8v1.2c0,0-9.8,4.601-11.4,12.101L251,360
	C243.3,360,238.7,358.1,235.9,355.6z"/>
<path fill="#FFFFFF" stroke="#000000" stroke-miterlimit="10" d="M271,343l1.399-0.2c0.7,4.4,2.5,8.8,3.5,11
	c-7.399,4.2-15.199,8.601-23.3,13.3L252,366c-0.8-2.1-0.8-4.1-0.4-5.9c1.6-7.5,11.4-12.1,11.4-12.1l0.1-1.2
	C265.6,347,268.3,346,271,343z"/>
<path fill="#FFFFFF" stroke="#000000" stroke-miterlimit="10" d="M279.5,329.1c2.8,2.102,7.8,2.4,16.5-2.1h0.5
	c-0.4,6.1,4.5,9.7,7,11.2c-8.101,4.5-17.4,9.8-27.601,15.6c-1-2.2-2.8-6.6-3.5-11c-0.899-5.7,0-11.399,6.601-12.8L279.5,329.1z"/>
<path fill="#FFFFFF" stroke="#000000" stroke-miterlimit="10" d="M415.5,300.4c12.6-0.9,22.899-0.2,31,1.3c5.5,1,10,2.3,13.699,3.6
	C470,308.9,474,313.1,474,313.1c0.3,2,0.699,3.801,1.199,5.602L474,319c0,0,5.3,23.5-23.301,40.7l-16.899-5.9
	c-47.899-5-112.7,76.3-112.7,76.3c-115.5,100.102-208.5,106-208.5,106c-68.6,12.9-63-42.6-63-42.6l0,0c12.9-10,31-22.4,52-35.9
	c12.5-8.1,26.101-16.5,40.101-25.1c6.3-3.9,12.699-7.8,19.199-11.7c9.9-6,19.9-11.898,29.9-17.8c6.1-3.6,12.2-7.2,18.3-10.7
	c10.7-6.3,21.3-12.399,31.4-18.2c4.1-2.3,8.1-4.699,12.1-6.898c8.101-4.7,16-9.102,23.3-13.301c10.2-5.801,19.5-11,27.601-15.601
	c11.1-6.2,19.899-11.1,25.6-14.3c4.5-2.5,7-3.9,7-3.9c5.9-2.3,11.5-4.3,16.9-6.1c10.199-3.4,19.5-6.1,28.199-8.1
	C394.199,302.8,405.6,301.1,415.5,300.4z"/>
<path id="ABC-color.com" fill="#FFFFFF" stroke="#000000" stroke-miterlimit="10" d="M511.9,257.7c-10.5,3.8-14.801,9-16,13.9
	c-2.801,1.1-5.2,2.2-7.101,3.5c-1.5,0-4.101-0.4-6.101-2.2c-2.399-2.2-3.899-6.5-1.7-14.9v-0.5c3.2-0.3,7.4-2.4,13-7.4
	c6.801,6.7,18.101,2.9,18.101,2.9l1-0.3c-0.6,1.7-0.699,3.4-0.6,4.9L511.9,257.7z"/>
<path fill="#FFFFFF" stroke="#000000" stroke-miterlimit="10" d="M279,330c-6.601,1.4-7.5,7.2-6.601,12.8L271,343
	c-2.7,3-5.4,4-7.9,3.8C254.6,346.3,248,332,248,332l-0.4-0.8c8.4-4.9,17.8-10.3,27.5-15.9l1,1.7c0,0-1.2,8.5,3.5,12.1L279,330z"/>
<path fill="#FFFFFF" stroke="#000000" stroke-miterlimit="10" d="M483,232.1c1.699,0.6,3.6,0.9,5.899,0.7L489,234
	c-0.101,8.2,2,13.1,4.899,16.1c-5.601,5-9.801,7.1-13,7.4c-7.601,0.7-9.601-8.5-10.101-12.3C475,244.8,479.199,241.3,483,232.1z"/>
<path fill="#FFFFFF" stroke="#000000" stroke-miterlimit="10" d="M301.9,316.2c-3.7,4.3-5.199,7.899-5.399,10.899H296
	c-8.7,4.5-13.601,4.199-16.5,2.101c-4.7-3.5-3.5-12.101-3.5-12.101l-1-1.699c5.1-3,10.399-6,15.6-9l0.4,0.699
	C291,307,295.6,312.8,301.9,316.2z"/>
<path fill="#FFFFFF" stroke="#000000" stroke-miterlimit="10" d="M318.3,315.6c2.7,3.602,8,6.801,10.8,8.4
	c-5.601,3.1-14.399,8-25.601,14.3c-2.5-1.5-7.399-5.1-6.999-11.2c0.2-3,1.699-6.6,5.399-10.898
	C306.8,318.7,312.699,319.8,318.3,315.6z"/>
<path fill="#FFFFFF" stroke="#000000" stroke-miterlimit="10" d="M301.9,316.2c-6.3-3.3-10.9-9.2-10.9-9.2l-0.4-0.7
	c7.3-4.3,14.7-8.5,21.9-12.7l2.5,1.4c0,0,4.399,5.9,11,7.8v0.2c-10.801,3.6-10.9,8.4-7.7,12.6
	C312.699,319.8,306.8,318.7,301.9,316.2z"/>
<path fill="#FFFFFF" stroke="#000000" stroke-miterlimit="10" d="M318.3,315.6c-3.2-4.199-3-9,7.7-12.6v-0.2c4,1.101,8.8,0.9,14-2.8
	l2.1-0.2C342.4,305.4,349,311.1,353,314c-5.4,1.8-11.101,3.8-16.9,6.1c0,0-2.5,1.4-7,3.9C326.199,322.4,321,319.2,318.3,315.6z"/>
<path fill="#FFFFFF" stroke="#000000" stroke-miterlimit="10" d="M340,300c-5.2,3.7-10,4-14,2.8c-6.7-1.899-11-7.8-11-7.8l-2.5-1.4
	c8.699-5,17.1-9.898,24.899-14.3l1.601,0.8c0,0,6.899,5.6,15.1,8.8L354,289c-9.2,3-12.101,6.9-11.9,10.8L340,300z"/>
<path fill="#FFFFFF" stroke="#000000" stroke-miterlimit="10" d="M380,278.6l-1,1.4c-4.2,2.8-5.9,6-6.101,9.1L372,289
	c-5.101,3.4-11.9,2.3-17.9-0.2C345.9,285.5,339,280,339,280l-1.601-0.8c11.899-6.8,22.3-12.6,29.5-16.5L367,263
	C367,263,371.3,273.6,380,278.6z"/>
<path fill="#FFFFFF" stroke="#000000" stroke-miterlimit="10" d="M354.1,288.8c6.101,2.4,12.801,3.601,17.9,0.2l0.899,0.1
	C372.199,297.2,381,305,381,305l0.199,0.9c-8.699,2-18,4.699-28.199,8.1c-4-2.9-10.601-8.5-10.9-14.2
	C341.9,295.9,344.8,291.9,354,289L354.1,288.8z"/>
<path fill="#FFFFFF" stroke="#000000" stroke-miterlimit="10" d="M415,289h0.399c-2,3.8-2.5,7.8,0.101,11.4
	c-9.9,0.699-21.301,2.3-34.301,5.398L381,305c0,0-8.9-7.8-8.101-15.9c0.3-3.1,2-6.3,6.101-9.1l1-1.4c5.1,3,11.8,3.9,20-0.6l0,0
	C401.5,283.7,405.6,288.6,415,289z"/>
<path fill="#FFFFFF" stroke="#000000" stroke-miterlimit="10" d="M401.6,259.1L401,260c0,0-3.101,9.8-1,18l0,0
	c-8.2,4.5-14.9,3.5-20,0.6c-8.601-5-13-15.6-13-15.6l-0.101-0.3c5.699-3.1,9.5-4.9,10.5-5.1c0,0,5.3-1.5,14.899-6.1l0.7,1.4
	C396.1,255.5,399,257.5,401.6,259.1z"/>
<path fill="#FFFFFF" stroke="#000000" stroke-miterlimit="10" d="M429.3,248.3C421,250.4,415,241,415,241l-2.9-0.4
	c4.301-2.7,9-5.7,14-9.2l0.301,0.4c0,0,7.5,4.9,14.601,5.3v0.8c-1.5,2.3-2.9,4.2-4.301,5.7C434.1,246.3,431.6,247.8,429.3,248.3z"/>
<path fill="#FFFFFF" stroke="#000000" stroke-miterlimit="10" d="M446.9,300l-0.301,1.8c-8.199-1.5-18.399-2.2-31-1.3
	c-2.699-3.6-2.1-7.6-0.1-11.4c4.1-7.8,14.5-14.7,16.3-15.898c2.8,2.3,5.7,4.3,8.5,5.4C427,294.4,445.1,299.5,446.9,300z"/>
<path fill="#FFFFFF" stroke="#000000" stroke-miterlimit="10" d="M446.9,300c-1.7-0.5-19.899-5.6-6.7-21.4
	c3.899,1.6,13.899-7.6,17.7-11.1c0,0.2,0.101,0.3,0.101,0.5l0,0c-12.301,14.8-1,22.2,3.399,24.3c-1.5,2.7-1.301,6.5,1.601,11.9
	l-2.801,1.1c-3.699-1.399-8.3-2.7-13.699-3.6L446.9,300z"/>
<path fill="#FFFFFF" stroke="#000000" stroke-miterlimit="10" d="M482.699,272.9c2,1.8,4.601,2.2,6.101,2.2
	c-5.399,3.5-7.5,7.5-8,11.3c-3.601-0.2-15.899-0.4-19.399,6c-4.4-2.101-15.801-9.5-3.4-24.3l0,0c0.399,1.6,1,3.2,1.899,4.6
	C463.1,278,469.6,281.3,482.699,272.9z"/>
<path fill="#FFFFFF" stroke="#000000" stroke-miterlimit="10" d="M461.4,292.3c3.399-6.399,15.8-6.2,19.399-6
	c-0.899,7.4,4.601,14,4.601,14c1.601,14.7-11.301,12.9-11.301,12.9s-4-4.2-13.8-7.8l2.8-1.102C460.1,298.8,460,295,461.4,292.3z"/>
<path fill="#FFFFFF" stroke="#000000" stroke-miterlimit="10" d="M491.5,298.7c-1.7,1-3.7,1.6-6.101,1.6c0,0-5.5-6.5-4.601-14
	c0.5-3.8,2.601-7.8,8-11.3c1.899-1.3,4.3-2.4,7.101-3.5c-2,7.8,3.601,14.9,3.601,14.9S497.8,295,491.5,298.7z"/>
<path fill="#FFFFFF" stroke="#000000" stroke-miterlimit="10" d="M495.9,271.6c1.199-4.9,5.5-10.1,16-13.9l0.5-0.1
	c0.399,4.5,3,8,3,8s0,18.8-16,20.8C499.5,286.4,493.9,279.3,495.9,271.6z"/>
<path fill="#FFFFFF" stroke="#000000" stroke-miterlimit="10" d="M534.4,252.7l0.199,1c-7.199,6.2-14.899,11.9-19.199,11.9
	c0,0-2.601-3.5-3-8c-0.101-1.6,0-3.2,0.601-4.9c0.8-2.3,2.399-4.6,5.399-6.7c2.101-1.5,4.899-2.9,8.5-4.1l1-0.1
	C528.3,247.7,534.4,252.7,534.4,252.7z"/>
<path fill="#FFFFFF" stroke="#000000" stroke-miterlimit="10" d="M539.699,229c1.399,2.9,4.7,6,11.5,8.8c0,0-7.899,8.3-16.5,15.8
	l-0.199-1c0,0-6.101-5-6.5-11c-0.301-3.9,2-8.3,10.3-11.8L539.699,229z"/>
<path fill="#FFFFFF" stroke="#000000" stroke-miterlimit="10" d="M526.9,241.8c-3.601,1.2-6.399,2.6-8.5,4.1l-0.399-1
	c-3-2.7-4.2-5.5-4.301-8c-0.3-6,5.399-11.1,8-13.1c2.301,0.1,4.399-1.2,5.801-5.1l1.3,0.5c-0.5,1.3-1.8,6.4,10.101,6.7
	c0,1,0.3,2,0.699,3l-1.5,0.9c-8.199,3.6-10.5,7.9-10.3,11.8L526.9,241.8z"/>
<path fill="#FFFFFF" stroke="#000000" stroke-miterlimit="10" d="M470.8,245.2c0.5,3.7,2.5,13,10.101,12.3v0.5
	c-2.2,8.4-0.7,12.7,1.699,14.9c-13.1,8.4-19.5,5.2-22.699-0.3c-0.801-1.5-1.399-3.1-1.899-4.6c2.1-2.5,1.699-2.1-0.101-0.5
	c-1.2-4.4-1-8.5-1-8.5c4-0.5,7.699-4.2,10.101-13.9l0.1-0.2C468.3,245.2,469.6,245.3,470.8,245.2z"/>
<path fill="#FFFFFF" stroke="#000000" stroke-miterlimit="10" d="M437,244c0,0,10.699,16,19.899,14.9c0,0-0.101,4.1,1,8.5
	c-3.801,3.5-13.801,12.7-17.7,11.1c-2.8-1.1-5.7-3.1-8.5-5.4c-4.8-4-9.101-8.9-11.3-11.4c5.5-2.9,7.899-9.4,8.899-13.4
	c2.3-0.6,4.7-2,7.3-4.6L437,244z"/>
<path fill="#FFFFFF" stroke="#000000" stroke-miterlimit="10" d="M470.8,245.2c-1.3,0.1-2.5,0-3.8-0.5c-6.5-2.1-12.2-10.3-14.7-14.4
	c0.601-1.5,1-3.3,1.3-5.4v-0.1c3.601,0.6,8.2-0.8,13.101-7.8l0.399-0.6c2,1.6,4.301,2.6,6.801,2.1c0.3,2.4,2,10.8,8.899,13.4
	C479.199,241.3,475,244.8,470.8,245.2z"/>
<path fill="#FFFFFF" stroke="#000000" stroke-miterlimit="10" d="M420.5,261.8c2.1,2.6,6.5,7.4,11.3,11.4
	c-1.899,1.2-12.2,8.1-16.3,15.899h-0.4c-9.399-0.399-13.5-5.301-15-11c-2.199-8.2,1-18,1-18l0.601-0.9
	C410.199,264.1,416.199,264,420.5,261.8z"/>
<path fill="#FFFFFF" stroke="#000000" stroke-miterlimit="10" d="M532.8,372c0.399-5.1-2.399-10.7-10.8-17c0,0-37.5-0.2-46.7-36.3
	c-0.5-1.8-0.8-3.601-1.2-5.601c0,0,12.899,1.801,11.301-12.899c2.399,0,4.399-0.601,6.1-1.601c20.301,1.199,35.601-6.301,44.2-12
	l2.2,0.301c0,0,39.6-12.8,42,106c0,0-20-30.801-39.101-25.5c-2.7,0.699-5.3,2.199-7.899,4.5L532.8,372z"/>
<path fill="#FFFFFF" stroke="#000000" stroke-miterlimit="10" d="M420.5,261.8c-4.2,2.3-10.301,2.3-18.9-2.7
	c-2.6-1.5-5.5-3.5-8.6-6.1l-0.7-1.4c5.3-2.6,12-6.1,19.8-10.9l2.899,0.4c0,0,6,9.4,14.301,7.3C428.3,252.3,425.9,258.9,420.5,261.8z
	"/>
<path fill="#FFFFFF" stroke="#000000" stroke-miterlimit="10" d="M653,140l-3,11c-6.2,29.8-23,19-35,21.5c0,0-30.301,7.5-43.2,33.5
	c-0.2-8.6-11.3-5.7-11.3-5.7c-2-9.4-5.7-11.6-9.4-10.8c-0.199-15.6-14.3-16.9-15-16.9c3.5-5.8-2.899-15.9-2.899-15.9L533.1,156
	c15.801-3.2,36.4-8.7,48.7-17.1c4.8-3.3,8.601-6.9,10.8-10.9c0,0,0-30.4,7.5-41.7h0.101c0.5-2.3,18.7-77.2,73.3-74.3
	c0,0,35.801-14.8,52.601,14c1.399,2.4,5,8,12,19c21.301,33.5,33.2-13.2,41.399,29.1c0.2,1.2,0.4,2.5,0.601,3.9c7,49,32-8,25,83
	c0,0-6-34-16-38c0,0,10,36,7,71c0,0-10-52-25-52c0,0,15,29-10,69c0.399-1.2,20.7-64-6-61c0,0,7,47-28,82c0,0,20-56,14-65
	c0,0-15,51-44,76c0,0,41-77,21-89C718,154,702.9,97.1,653,140z"/>
<path fill="#FFFFFF" stroke="#000000" stroke-miterlimit="10" d="M611.3,247.8c0,0,21.8,25.8,2,55.5c0,0-9.7-40.2-17.101-47.5
	l-6.5-18.9C589.699,236.9,595.3,243.8,611.3,247.8z"/>
<path fill="#FFFFFF" stroke="#000000" stroke-miterlimit="10" d="M589.699,236.9l6.5,18.9c-1-1-1.899-1.4-2.8-1
	c0,0-34.801,7.9-49.801,25.8c0,0-2.8,2.8-7.899,6.2c-8.601,5.7-23.899,13.2-44.199,12c6.199-3.7,8-12.2,8-12.2c16-2,16-20.8,16-20.8
	c4.3,0,12-5.7,19.199-11.9c8.7-7.5,16.5-15.8,16.5-15.8c0.899-2.5,2-4.9,3.2-7.2l0.699,0.3C555,231,582.199,226,589.699,236.9z"/>
<path fill="#FFFFFF" stroke="#000000" stroke-miterlimit="10" d="M580,393c1,48.5-61.801,75.5-63,76c41.699-26.5,24-101,24-101
	l-0.101-0.5C560,362.2,580,393,580,393z"/>
<path fill="#FFFFFF" stroke="#000000" stroke-miterlimit="10" d="M571.8,205.9c0,0.1-0.101,0.1-0.101,0.1
	c-4.199,8.6-8,10.9-11.3,14.7l-1.601,0.2c-7.5,1-8.5-5.9-8.5-5.9H549c5-3,11.5-14.8,11.5-14.8S571.6,197.3,571.8,205.9z"/>
<path fill="#FFFFFF" stroke="#000000" stroke-miterlimit="10" d="M480.4,139.5c16.101-8.9,27.699-15.6,27.699-15.6
	c49.801-42.6,48.7-70.3,48.7-70.3c0.899-23.8,12.2-24.8,12.2-24.8l-3.801,10.9c7.5,22.8,0,45.6,0,45.6
	c-9.601,32.9-36.399,59.3-54.5,74.1c-10.3,8.4-17.8,13.1-17.8,13.1c-1.899,2-3.7,3.9-5.601,5.9c-4.8,4.9-9.399,9.6-14,14l0,0
	c-5.5,5.2-10.8,10.1-15.899,14.5c-4.601,4-9.101,7.7-13.399,11.2c-6.4,5.1-12.4,9.6-18,13.5c-5,3.5-9.7,6.5-14,9.2
	c-7.801,4.8-14.5,8.3-19.801,10.9c-9.5,4.6-14.899,6.1-14.899,6.1c-1.101,0.2-4.8,2-10.5,5.1c-7.2,3.9-17.5,9.7-29.5,16.5
	c-7.8,4.4-16.2,9.3-24.899,14.3c-7.2,4.2-14.5,8.399-21.899,12.7c-5.2,3-10.5,6.1-15.601,9c-9.699,5.6-19,11-27.5,15.898
	c-6.699,3.9-12.899,7.4-18.1,10.4c-2.1,1.199-4.1,2.3-5.9,3.3c-0.6,0.399-3.5,2.7-8.1,6.5c-6.1,5.101-15.3,12.8-26.2,22.101
	c-4.899,4.199-10.2,8.699-15.7,13.399c-6.8,5.8-14,12-21.3,18.3c-7.6,6.602-15.5,13.3-23.2,19.9c-5.899,5.1-11.8,10.2-17.5,15.1
	c-5.199,4.5-10.3,8.9-15.1,13.102l0,0c-26,22.398-45.8,39.5-46.7,40.3l0,0C20.5,505.4,15.8,438,15.8,438
	c4.7-58.5,127.7-129.8,127.7-129.8c56.399-27.7,61.1-80.3,61.1-80.3c8.4-48.5,60.101-99.1,60.101-99.1
	c26.8-22.4,48.3-28.5,48.999-28.7c-58.2,43.6-72.5,157.5-72.5,157.5c17.9-19.6,79.2-46.6,116.3-61.8c17.3-7.1,29.3-11.6,29.3-11.6
	C399.9,183,448.8,157,480.4,139.5z"/>
<path fill="#FFFFFF" stroke="#000000" stroke-miterlimit="10" d="M539,226c-0.301-6.1,6.5-10.9,6.5-10.9c1,0.8,2.199,0.7,3.5-0.1
	l1.3,0.1c0,0,0.899,6.9,8.5,5.9l1.601-0.2c-0.9,1.1-1.9,2.2-2.7,3.7c-1.2,2-2.3,4.1-3.399,6.2c-1.2,2.3-2.2,4.8-3.2,7.2
	c-6.699-2.8-10.101-5.9-11.5-8.8C539.199,228,539,227,539,226z"/>
<path fill="#FFFFFF" stroke="#000000" stroke-miterlimit="10" d="M551.199,189.4c3.7-0.8,7.399,1.4,9.399,10.8
	c0,0-6.5,11.8-11.5,14.8c-1.3,0.8-2.5,0.9-3.5,0.1c-2.699-2.3-5.1-6.2-5.899-10c-0.601-2.9-0.399-5.7,1.2-7.8
	C540.8,197.2,546,190.5,551.199,189.4z"/>
<path fill="#FFFFFF" stroke="#000000" stroke-miterlimit="10" d="M533.4,189.9c-9-11-1-14.5-1-14.5c1.8-0.7,3-1.7,3.8-3
	c0.801,0.1,14.801,1.4,15,16.9c-5.199,1.1-10.399,7.8-10.399,7.8C537.6,194.5,535.199,192.1,533.4,189.9z"/>
<path fill="#FFFFFF" stroke="#000000" stroke-miterlimit="10" d="M528.8,219.3l-1.3-0.5c0.8-2.3,1.3-5.5,1.5-9.8v-0.3
	c2.6,0.2,6-0.6,10.1-3.5l0.5-0.1c0.801,3.9,3.2,7.8,5.9,10c0,0-6.801,4.9-6.5,10.9C527,225.7,528.3,220.7,528.8,219.3z"/>
<path fill="#FFFFFF" stroke="#000000" stroke-miterlimit="10" d="M519,196c0.899-5.8,10.5-6.2,14.399-6.1
	c1.8,2.1,4.199,4.6,7.399,7.3c-1.601,2.1-1.8,4.9-1.2,7.8l-0.5,0.1c-4.1,2.9-7.5,3.8-10.1,3.5c-5.601-0.5-8-5.7-8-5.7
	C519.199,200.1,518.699,197.8,519,196z"/>
<path fill="#FFFFFF" stroke="#000000" stroke-miterlimit="10" d="M536.199,172.5c-0.8,1.2-2,2.3-3.8,3c0,0-8.301,2.5-14.7,0.5
	c-5-1.6-8.8-5.9-6.8-16.3c0,0,9.601-1.1,22.199-3.7l0.101,0.7C533.3,156.6,539.699,166.7,536.199,172.5z"/>
<path fill="#FFFFFF" stroke="#000000" stroke-miterlimit="10" d="M533.4,189.9c-3.899-0.1-13.5,0.3-14.399,6.1
	c-10-1-10.801-5.5-10.801-5.5c7-2.7,9.301-14.1,9.301-14.1l0.199-0.5c6.399,2,14.7-0.5,14.7-0.5S524.4,178.9,533.4,189.9z"/>
<path fill="#FFFFFF" stroke="#000000" stroke-miterlimit="10" d="M522,355c8.3,6.3,11.1,11.9,10.8,17
	c-0.7,10.1-13.899,18.3-20.101,26.4c-18.8,23.8-37.399,97.1-37.399,97.1c-44.2,59.4-171,50.5-171,50.5S419.8,510.6,419,431
	c-0.2-20.5,3-17,31.699-71.3C479.3,342.5,474,319,474,319l1.3-0.3C484.5,354.8,522,355,522,355z"/>
<path fill="#FFFFFF" stroke="#000000" stroke-miterlimit="10" d="M521.699,223.9c-5-0.2-10.699-6.9-10.699-6.9c-7-16,10-14,10-14
	s2.399,5.3,8,5.7v0.3c-0.2,4.3-0.7,7.5-1.5,9.8C526.199,222.7,524,224,521.699,223.9z"/>
<path fill="#FFFFFF" stroke="#000000" stroke-miterlimit="10" d="M498.699,216.9c-4.3-1.1-8.3-3.8-9.3-9.8
	c18.8,0,14.101-15.9,14.101-15.9l0.1-0.3c1.801,0.3,3.301,0.1,4.7-0.4c0,0,0.8,4.5,10.8,5.5c-0.3,1.8,0.301,4.1,2,7c0,0-17-2-10,14
	C511,217,504.5,218.4,498.699,216.9z"/>
<path fill="#FFFFFF" stroke="#000000" stroke-miterlimit="10" d="M493.9,250.1c-3-2.9-5-7.9-4.899-16.1l-0.101-1.2
	c2.8-0.2,6-1.2,9.899-3.1c1.7,3.6,5.5,6.6,13.3,7.4h1.7c0.101,2.6,1.3,5.3,4.3,8l0.4,1c-3,2.1-4.601,4.4-5.4,6.7l-1,0.3
	C512,253,500.699,256.8,493.9,250.1z"/>
<path fill="#FFFFFF" stroke="#000000" stroke-miterlimit="10" d="M517.699,175.9l-0.199,0.5c0,0-2.4,11.4-9.301,14.1
	c-1.399,0.6-3,0.8-4.699,0.4c-4.2-0.7-9.4-4.2-16-12.6l-0.101-0.1c1.8-1.9,3.699-3.9,5.601-5.9c0,0,7.5-4.7,17.8-13.1l0.2,0.2
	C508.9,170,512.699,174.3,517.699,175.9z"/>
<path fill="#FFFFFF" stroke="#000000" stroke-miterlimit="10" d="M498.699,229.6c-2.3-4.8-0.8-10.5-0.101-12.7
	c5.9,1.5,12.301,0.1,12.301,0.1s5.699,6.8,10.699,6.9c-2.6,2-8.3,7.1-8,13.1h-1.699C504.3,236.3,500.5,233.2,498.699,229.6z"/>
<path fill="#FFFFFF" stroke="#000000" stroke-miterlimit="10" d="M503.5,191l-0.101,0.3c0,0,4.699,15.9-14.101,15.9
	c0,0-1.101-0.8-2.8-2.1c-4.601-3.5-13.2-10.5-13.2-12.7l0,0c4.601-4.4,9.2-9,14-14l0.101,0.1C494.1,186.8,499.3,190.3,503.5,191z"/>
<path fill="#FFFFFF" stroke="#000000" stroke-miterlimit="10" d="M483,232.1c-6.9-2.6-8.5-11-8.9-13.4c3.5-0.6,7.5-4,11.5-12.5
	l1-1.1c1.7,1.3,2.801,2.1,2.801,2.1c1,6,5,8.7,9.3,9.8c-0.7,2.2-2.2,7.9,0.101,12.7c-3.899,2-7.101,2.9-9.899,3.1
	C486.6,233,484.6,232.7,483,232.1z"/>
<path fill="#FFFFFF" stroke="#000000" stroke-miterlimit="10" d="M474.1,218.6c-2.5,0.4-4.899-0.6-6.8-2.1c-4.3-3.4-7-9.4-7-9.4
	l-2.7-0.3c5.101-4.4,10.4-9.3,15.9-14.5c0,2.2,8.6,9.2,13.199,12.7l-1,1.1C481.5,214.7,477.6,218,474.1,218.6z"/>
<path fill="#FFFFFF" stroke="#000000" stroke-miterlimit="10" d="M452,36c0,0,36,39,34,67c0,0,3.899,25.2-5.601,36.5
	c-31.601,17.5-80.601,43.6-93.601,44.9c0,0-12,4.5-29.3,11.6l-0.4-1C360.3,193,471.699,125.7,452,36z"/>
<path fill="#FFFFFF" stroke="#000000" stroke-miterlimit="10" d="M467.199,216.5l-0.399,0.6c-5,7-9.5,8.4-13.101,7.8
	c-4.601-0.8-7.5-4.8-7.5-4.8l-2-2.1c4.301-3.4,8.801-7.1,13.399-11.2l2.7,0.3C460.199,207.1,463,213.1,467.199,216.5z"/>
<path fill="#FFFFFF" stroke="#000000" stroke-miterlimit="10" d="M467.1,244.8L467,245c-2.4,9.7-6.101,13.4-10.101,13.9
	C447.699,260,437,244,437,244l-0.301-0.3c1.399-1.5,2.899-3.3,4.301-5.7v-0.8c4.6,0.3,9-1.2,11.3-6.9
	C454.9,234.5,460.6,242.7,467.1,244.8z"/>
<path fill="#FFFFFF" stroke="#000000" stroke-miterlimit="10" d="M452.4,230.4c-2.301,5.7-6.7,7.2-11.301,6.9
	c-7.199-0.5-14.6-5.3-14.6-5.3l-0.301-0.4c5.601-3.9,11.7-8.4,18-13.5l2,2.1c0,0,3,4.1,7.5,4.8v0.1
	C453.4,227.1,453,228.9,452.4,230.4z"/>
<g>
	<path d="M240.5,256.2c-1.8,5.3-3.9,10.6-6.2,15.7c-2.3,5.1-4.8,10.2-7.5,15.1c-2.8,4.9-5.8,9.7-9.3,14.1
		c-3.5,4.4-7.5,8.5-12.5,11.4l0.1-0.1c-7.4,8.6-14.9,17-22.4,25.399c-7.601,8.4-15.2,16.7-23,25c-7.8,8.2-15.7,16.3-23.8,24.2
		c-4.1,3.9-8.199,7.7-12.6,11.4c-2.2,1.8-4.4,3.6-6.7,5.198c-1.2,0.802-2.3,1.602-3.6,2.302c-1.2,0.698-2.5,1.3-4,1.6h0.1
		c-4.7,3.7-9.3,7.6-13.8,11.5s-9,8-13.3,12.2s-8.5,8.5-12.4,13c-3.899,4.6-7.7,9.3-10.3,14.7c2.6-5.4,6.4-10.2,10.3-14.802
		C73.5,439.5,77.7,435.2,82,431s8.7-8.3,13.2-12.2c4.5-4,9.1-7.8,13.8-11.6l0,0l0,0c1.399-0.3,2.6-0.9,3.899-1.602
		c1.2-0.698,2.4-1.5,3.601-2.3c2.3-1.6,4.5-3.398,6.7-5.2c4.3-3.6,8.399-7.499,12.5-11.398c8.1-7.8,16-16,23.699-24.2
		c7.7-8.2,15.301-16.6,22.9-25c7.5-8.4,15-16.9,22.3-25.5l0,0h0.101c4.8-2.8,8.699-6.9,12.199-11.3c3.5-4.4,6.5-9.101,9.2-14
		c2.7-4.9,5.2-9.9,7.4-15.1c2.2-5.1,4.3-10.4,6.1-15.7L240.5,256.2z"/>
</g>
<g>
	<path d="M46,492.5c-1.601-3.3-2.601-6.8-3.4-10.3c-0.799-3.5-1.2-7.2-1.2-10.8c0-3.602,0.5-7.302,1.601-10.802
		c0.5-1.698,1.2-3.398,2-5.1c0.8-1.6,1.8-3.2,2.899-4.6c-1.9,3.101-3.3,6.4-4.2,9.9c-0.9,3.5-1.301,7-1.301,10.602
		c0,3.6,0.301,7.1,0.9,10.698c0.3,1.802,0.7,3.5,1.1,5.302C44.9,489.1,45.5,490.8,46,492.5z"/>
</g>
<g>
	<path d="M26.3,474.7c-0.4-0.602-0.4-1.4-0.3-2.102c0.1-0.698,0.2-1.398,0.5-2.1c0.5-1.3,1.2-2.6,2-3.7c1.6-2.3,3.6-4.3,5.7-6.2
		c4.199-3.8,8.8-7.1,13.5-10.1l0,0c3.8-3.3,7.399-6.9,10.8-10.5c3.5-3.6,6.8-7.4,9.8-11.5c3-4,5.9-8.2,8-12.7
		c2.2-4.5,3.8-9.398,3.5-14.5c0.3,2.5,0,5.102-0.5,7.602c-0.6,2.5-1.4,4.898-2.5,7.198c-2.1,4.602-4.8,8.9-7.9,13
		c-3,4.102-6.3,7.9-9.8,11.602s-7.1,7.2-11,10.5l0,0l0,0c-2.399,1.5-4.7,3.1-7,4.7c-2.3,1.6-4.5,3.3-6.6,5.1
		c-2.101,1.8-4.101,3.8-5.8,6c-0.801,1.1-1.601,2.3-2.101,3.6c-0.3,0.602-0.5,1.302-0.6,2C26,473.3,26,474,26.3,474.7z"/>
</g>
<g>
	<path d="M203.8,298.3c3.7-5.8,7-11.7,10.1-17.8c3.101-6.1,5.9-12.3,8.4-18.7c5-12.7,9.2-25.8,12.4-39c1.6-6.6,3.1-13.3,4.199-20
		c0.301-1.7,0.601-3.4,0.801-5.1c0.1-0.8,0.199-1.7,0.3-2.5c0.1-0.9,0.2-1.7,0.3-2.6c0.5-3.4,1.2-6.8,2.1-10.1
		c1.7-6.6,4.101-13.1,7.4-19.2c3.3-6,7.7-11.5,13.2-15.6c-5.4,4.2-9.601,9.8-12.8,15.8c-3.2,6-5.5,12.5-7.101,19.1
		c-0.8,3.3-1.5,6.7-1.899,10c-0.101,0.8-0.2,1.7-0.301,2.5c-0.1,0.9-0.199,1.7-0.3,2.6c-0.2,1.7-0.5,3.4-0.8,5.1
		c-1.1,6.8-2.5,13.5-4.1,20.1c-3.301,13.3-7.4,26.4-12.601,39.1c-2.6,6.3-5.5,12.6-8.7,18.6C211.2,286.7,207.7,292.6,203.8,298.3z"
		/>
</g>
<g>
	<path d="M196.3,287.4c-3.2,7.199-7,14.199-11.1,21c-4.101,6.8-8.5,13.398-13.4,19.6c-4.9,6.201-10.3,12.1-16.4,17.2
		c-3.1,2.5-6.399,4.8-9.899,6.7c-3.5,1.8-7.3,3.3-11.2,3.898c3.9-0.8,7.6-2.3,11-4.3c3.4-1.899,6.6-4.3,9.6-6.8
		c6-5.102,11.301-11,16.101-17.2c4.899-6.2,9.3-12.7,13.5-19.399c2.1-3.301,4.1-6.699,6.1-10.199S194.5,290.9,196.3,287.4z"/>
</g>
<g>
	<path d="M222.6,236.9c-0.2,3.3-0.899,6.5-1.8,9.7c-0.9,3.2-2.1,6.3-3.9,9.1c1-3.1,2-6.2,2.9-9.4C220.8,243.2,221.6,240,222.6,236.9
		z"/>
</g>
<g>
	<path d="M109.9,367.7c-4.399,1.7-8.6,3.7-12.8,5.8c-4.2,2.1-8.3,4.4-12.3,6.8c-8,4.9-15.6,10.3-22.6,16.5S48.9,409.9,43.6,417.6
		c-5.2,7.7-9.3,16.302-11.8,25.302c1-4.602,2.5-9,4.4-13.302c1.9-4.3,4.2-8.399,6.7-12.399c5.2-7.9,11.5-14.9,18.5-21.2
		c7.101-6.2,14.801-11.7,22.9-16.4C92.6,374.9,101.1,370.8,109.9,367.7z"/>
</g>
<g>
	<path d="M325,398.4c-16,17.198-33.3,33.1-51.5,48c-18.2,14.898-37.3,28.698-57.4,40.8c-20.2,12-41.5,22.3-63.899,29.3
		c-11.2,3.5-22.7,6.2-34.4,7.6c-11.7,1.4-23.5,1.602-35.1,0.2c11.699,1.2,23.5,0.9,35.1-0.7c11.6-1.5,23.1-4.198,34.2-7.698
		c22.3-7.102,43.5-17.5,63.6-29.5c20.2-12,39.3-25.7,57.5-40.4c9.101-7.4,18-15,26.6-23C308.4,415,316.9,406.9,325,398.4z"/>
</g>
<g>
	<path d="M216,450.9c-7.2,5.198-15,9.698-22.9,13.698c-7.899,4-16.1,7.5-24.5,10.602c-8.399,3-17,5.398-25.7,7.2
		c-4.399,0.898-8.8,1.6-13.199,2.198c-4.4,0.5-8.9,0.9-13.301,1c4.4-0.398,8.801-0.8,13.2-1.5c4.4-0.6,8.8-1.5,13.101-2.398
		c8.699-1.9,17.199-4.4,25.5-7.4c8.399-2.898,16.5-6.398,24.5-10.3c4-1.9,7.899-4,11.8-6.2C208.5,455.6,212.3,453.3,216,450.9z"/>
</g>
<g>
	<path d="M340,344.9c4.6-4.301,9.5-8.2,14.5-11.801c5.1-3.699,10.399-7,16-9.899c5.6-2.9,11.399-5.2,17.5-6.8
		c6.1-1.602,12.5-2.4,18.699-1.4h-0.101c4.601-1,9.301-1,13.9-1.1c4.6-0.102,9.3,0,13.899,0.398c4.601,0.5,9.199,1.2,13.699,2.7
		c2.2,0.7,4.4,1.601,6.4,2.7s3.898,2.5,5.5,4.3c-3.301-3.3-7.602-5.2-12-6.5c-4.4-1.3-9-2-13.602-2.399
		c-4.6-0.399-9.199-0.5-13.8-0.399c-4.6,0.1-9.2,0.399-13.8,0.899h-0.101h-0.101c-6.1-0.801-12.399-0.101-18.399,1.5
		s-11.8,3.899-17.399,6.699c-5.601,2.801-10.899,6.102-16,9.602C349.6,336.9,344.699,340.7,340,344.9z"/>
</g>
<g>
	<path d="M489,364c-6.101,5.1-11.5,10.9-16.4,17.2c-4.8,6.2-9,13-12,20.3c-1.5,3.6-2.699,7.4-3.399,11.3
		c-0.399,1.9-0.699,3.9-0.899,5.8c-0.101,1-0.101,1.9-0.2,2.9c0,1-0.1,2-0.199,3c-0.7,7.9-2,15.8-4,23.5
		c-4,15.4-10.601,30.2-20.301,42.9c-4.8,6.3-10.399,12.1-16.6,17c-6.2,4.898-13.101,9.1-20.301,12.3
		C409,513.4,421.6,503.1,431,490.4c9.5-12.7,16-27.4,19.899-42.7c2-7.602,3.399-15.4,4.101-23.3c0.1-1,0.199-2,0.199-3
		s0.101-2,0.2-3c0.199-2,0.5-4,0.899-5.9c0.8-3.9,2-7.7,3.601-11.4c3.101-7.3,7.399-14.1,12.3-20.3C477.199,374.7,482.8,369,489,364
		z"/>
</g>
<g>
	<path d="M498.699,393.4c-1.199,1.8-2.5,3.5-3.8,5.198l-4,5.102c-1.301,1.7-2.601,3.398-3.7,5.2c-1.101,1.8-2,3.698-2.699,5.698
		c-1.5,4-2,8.302-2.301,12.5C482,429.2,482,431.4,481.9,433.5c-0.101,2.1-0.101,4.3-0.101,6.4c-0.399-4.302-0.5-8.602-0.399-12.9
		c0.199-4.3,0.699-8.7,2.101-12.8c1.5-4.102,4-7.8,6.8-11.102C493.1,399.9,496,396.7,498.699,393.4z"/>
</g>
<g>
	<path d="M485.6,149.7c-8.899,6.2-18,12.2-27.199,18.1c-9.2,5.9-18.5,11.5-27.899,17c-9.4,5.4-19,10.7-28.801,15.5
		c-4.899,2.4-9.899,4.6-14.899,6.6c-2.5,1-5.101,1.9-7.7,2.7c-2.6,0.8-5.3,1.4-8,1.6c2.7-0.3,5.301-1,7.9-1.8
		c2.6-0.8,5.1-1.8,7.6-2.9c5-2.1,9.9-4.4,14.801-6.9c9.699-4.9,19.199-10.2,28.601-15.7c9.399-5.4,18.699-11.1,28-16.8
		c4.6-2.9,9.199-5.7,13.8-8.6C476.4,155.6,481,152.6,485.6,149.7z"/>
</g>
<g>
	<path d="M445.199,198.2c-11.5,7.4-23.199,14.6-35.101,21.4c-11.899,6.8-23.899,13.5-36.1,19.7c-12.2,6.2-24.601,12.2-37.2,17.5
		c-12.7,5.3-25.601,10-39,13.1l0,0l0,0c-3.2,0.3-6.5,0.9-9.7,1.7c-3.2,0.8-6.399,1.7-9.5,2.8c-6.2,2.2-12.1,5.2-17.6,8.8
		c-5.5,3.7-10.5,8.1-14.7,13.1c-4.3,5-7.8,10.7-10.5,16.7c2.6-6.1,6-11.8,10.3-16.9c4.2-5.1,9.2-9.6,14.7-13.398
		c5.5-3.8,11.5-6.8,17.7-9.1c6.2-2.3,12.7-4,19.399-4.6h-0.1c13.3-3.1,26.2-7.9,38.8-13.2c12.601-5.3,25-11.2,37.2-17.4
		c12.2-6.2,24.3-12.7,36.2-19.5C421.699,212.4,433.6,205.5,445.199,198.2z"/>
</g>
<g>
	<path d="M378.5,226c-6.801,3.9-13.801,7.4-20.9,10.6c-7.1,3.2-14.399,6.1-21.8,8.8c-7.399,2.6-14.899,4.9-22.5,6.9
		c-3.8,1-7.601,1.8-11.5,2.6c-3.8,0.7-7.7,1.4-11.6,1.9c3.899-0.7,7.699-1.4,11.499-2.3c3.801-0.9,7.601-1.8,11.399-2.8
		c7.5-2.1,15-4.4,22.301-7.1c7.399-2.6,14.601-5.5,21.8-8.6c3.601-1.5,7.2-3.1,10.7-4.8C371.5,229.5,375,227.8,378.5,226z"/>
</g>
<g>
	<path d="M551.3,98.2c-2,4.1-4.3,8-6.8,11.8s-5.301,7.4-8.301,10.9c-3,3.4-6.199,6.7-9.601,9.8c-1.699,1.5-3.5,3-5.3,4.3
		s-3.7,2.6-5.7,3.8c1.801-1.4,3.601-2.7,5.4-4.2c1.8-1.4,3.5-2.9,5.1-4.5c3.301-3.1,6.4-6.4,9.4-9.8c3-3.4,5.699-7,8.399-10.7
		c1.3-1.8,2.601-3.7,3.899-5.6C549,102.1,550.199,100.1,551.3,98.2z"/>
</g>
<g>
	<path d="M540.1,159.6l12.2-3.2c4.101-1.1,8.101-2.2,12.101-3.4s8-2.5,12-3.9c2-0.7,3.899-1.5,5.8-2.5c0.899-0.5,1.8-1,2.7-1.6
		c0.8-0.6,1.699-1.3,2.199-2.2c-0.399,1-1.199,1.7-2,2.4c-0.8,0.7-1.699,1.3-2.6,1.8c-1.801,1.1-3.801,1.9-5.7,2.8
		c-3.899,1.6-7.899,2.9-12,4.2c-4.101,1.2-8.101,2.3-12.2,3.2C548.3,158.1,544.199,158.9,540.1,159.6z"/>
</g>
<g>
	<path d="M545.699,167.5c2.101-0.5,4.2-0.9,6.301-1.4c2.1-0.5,4.199-0.9,6.3-1.4c4.2-1,8.3-2,12.399-3.3
		c4.101-1.2,8.2-2.5,12.101-4.2c2-0.8,3.899-1.8,5.7-2.9c1.699-1.2,3.5-2.6,4.199-4.6c-0.199,1.1-0.8,2-1.5,2.8
		c-0.699,0.8-1.5,1.5-2.399,2.2c-1.8,1.3-3.7,2.3-5.601,3.2c-3.899,1.8-8,3.2-12.101,4.4c-4.1,1.2-8.3,2.2-12.5,3
		C554.199,166.3,550,167,545.699,167.5z"/>
</g>
<g>
	<path d="M553.699,179.4c1.801-1.3,3.601-2.4,5.399-3.6c1.801-1.2,3.7-2.2,5.601-3.3c1.899-1.1,3.801-2.1,5.7-3.1l2.899-1.5
		c1-0.5,1.899-1,2.899-1.4c-0.899,0.6-1.8,1.2-2.699,1.8l-2.7,1.7c-1.8,1.2-3.7,2.2-5.601,3.3c-1.899,1.1-3.8,2.1-5.699,3.1
		C557.6,177.5,555.699,178.5,553.699,179.4z"/>
</g>
<g>
	<path d="M572,194.3c2.199-3.2,4.6-6.2,7.199-9.2c2.5-2.9,5.301-5.7,8.101-8.4c2.899-2.6,5.899-5.1,9.3-7c1.7-1,3.5-1.9,5.301-2.5
		c1.899-0.6,3.8-1,5.8-0.7c-1.899,0-3.8,0.5-5.601,1.2c-1.8,0.7-3.5,1.6-5.1,2.7c-3.2,2.1-6.2,4.5-9,7.1c-2.9,2.6-5.601,5.3-8.2,8.1
		c-1.3,1.4-2.601,2.8-3.899,4.3C574.5,191.3,573.3,192.8,572,194.3z"/>
</g>
<g>
	<path d="M566.4,186.3c2.199-2.8,4.601-5.4,7-8c2.399-2.6,5-5,7.601-7.4c2.699-2.3,5.399-4.6,8.399-6.5c1.5-1,3-1.8,4.699-2.6
		c1.601-0.7,3.301-1.3,5.101-1.4c-1.699,0.3-3.399,1-4.899,1.8c-1.5,0.8-3,1.8-4.399,2.8c-2.801,2-5.601,4.3-8.2,6.6
		c-2.7,2.3-5.2,4.7-7.8,7.2c-1.301,1.2-2.5,2.4-3.801,3.7L566.4,186.3z"/>
</g>
<g>
	<path d="M599.199,130.9c0.301-3.1,0.7-6.3,1.2-9.4s1.199-6.2,1.899-9.3c0.8-3.1,1.7-6.1,3.101-9c0.699-1.4,1.5-2.9,2.5-4.1
		c0.5-0.6,1.101-1.2,1.899-1.6c0.7-0.5,1.601-0.7,2.5-0.7l-0.399,0.2c3-4.1,6.3-8,9.8-11.7c3.5-3.7,7.2-7.2,11.301-10.4
		c4-3.2,8.3-6,13-8c4.699-2.1,9.8-3.3,14.899-2.8c-5.101-0.3-10.101,1.1-14.7,3.3c-4.601,2.1-8.8,5-12.699,8.2
		c-3.9,3.2-7.601,6.7-11.101,10.4c-3.399,3.7-6.801,7.5-9.801,11.6l-0.1,0.2h-0.2c-1.399,0-2.7,0.9-3.7,2.1
		c-1,1.1-1.8,2.5-2.399,3.9c-1.399,2.8-2.399,5.8-3.199,8.8c-0.9,3-1.5,6.1-2.2,9.2C600.199,124.6,599.699,127.7,599.199,130.9z"/>
</g>
<g>
	<path d="M600,147c1.8-5.1,3.8-10.2,5.899-15.2c2.199-5,4.399-10,6.899-14.8s5.2-9.6,8.399-14.1c1.601-2.2,3.301-4.4,5.301-6.3
		c1-0.9,2.1-1.8,3.3-2.5c1.2-0.7,2.601-1.2,4.101-1.2l-0.399,0.2c1.5-2.2,3.399-4,5.5-5.5c2.1-1.5,4.399-2.6,6.899-3.4
		C650.8,82.6,656,82.4,661,83.1c-5-0.4-10.2,0-14.9,1.7c-2.399,0.8-4.6,2-6.6,3.5s-3.9,3.4-5.2,5.4l-0.101,0.4H634
		c-1.301,0-2.5,0.3-3.601,1c-1.101,0.7-2.2,1.4-3.101,2.4c-1.899,1.9-3.601,3.9-5.2,6.1c-3.199,4.4-5.899,9.1-8.399,13.9
		s-4.899,9.7-7.199,14.7C604.199,137,602,141.9,600,147z"/>
</g>
<g>
	<path d="M670,99c-3.5,0.5-7,1.4-10.4,2.4c-3.399,1-6.699,2.3-10,3.7c-6.5,2.9-12.6,6.6-18,11.1c-5.5,4.5-10.3,9.8-14.199,15.6
		c-4,5.9-7.101,12.3-9.4,19.1c1-3.4,2.2-6.8,3.601-10.1c1.5-3.3,3.2-6.4,5.101-9.4c3.899-6,8.7-11.4,14.3-16
		c5.601-4.5,11.801-8.3,18.4-11C656,101.7,662.9,99.7,670,99z"/>
</g>
<g>
	<path d="M672,115c-2.601,0-5.2,0.2-7.801,0.5s-5.101,0.7-7.601,1.3c-2.5,0.6-5,1.4-7.199,2.5c-2.301,1.2-4.301,2.7-5.5,4.9v0.1
		l-0.101,0.1c-2.8,2.1-5.399,4.5-7.899,7s-4.801,5.2-7,7.9c-2.2,2.7-4.301,5.6-6.301,8.6c-2,2.9-3.8,6-5.5,9.1
		c1.5-3.2,3.2-6.4,5-9.4c1.9-3,3.9-6,6.101-8.8c2.2-2.8,4.5-5.5,7-8.1c2.5-2.6,5.101-5,8-7.2l-0.101,0.2c1.4-2.4,3.601-4.1,6-5.2
		c2.4-1.2,4.9-1.9,7.5-2.5c2.601-0.5,5.2-0.8,7.801-1C666.8,114.9,669.4,114.8,672,115z"/>
</g>
<g>
	<path d="M603.9,253.7c1.5,1.8,2.699,3.8,3.8,5.8s2.101,4.2,2.899,6.3c0.801,2.2,1.5,4.4,1.9,6.7c0.199,1.1,0.399,2.3,0.5,3.4
		c0.1,1.2,0.199,2.3,0.1,3.5c-0.199-1.1-0.399-2.3-0.6-3.4s-0.5-2.2-0.801-3.3c-0.601-2.2-1.3-4.4-2.101-6.5
		c-0.8-2.1-1.699-4.2-2.699-6.3c-0.5-1-1-2.1-1.5-3.1C605,255.7,604.5,254.7,603.9,253.7z"/>
</g>
<g>
	<path d="M518.5,283.4c4.699-3.8,9.6-7.4,14.6-11c5-3.5,10-6.9,15.101-10.2c5.2-3.2,10.399-6.4,15.899-9.1c2.7-1.3,5.5-2.6,8.4-3.6
		c1.399-0.5,2.899-0.9,4.399-1.2c1.5-0.2,3.101-0.4,4.5,0.3c-0.7-0.3-1.5-0.4-2.2-0.4c-0.8,0-1.5,0.1-2.199,0.3
		c-1.5,0.3-2.9,0.8-4.301,1.4c-2.8,1.1-5.5,2.4-8.199,3.8c-5.4,2.8-10.601,6-15.7,9.2c-5.2,3.2-10.2,6.6-15.2,10
		c-2.5,1.7-5,3.4-7.5,5.1L518.5,283.4z"/>
</g>
<g>
	<path d="M689,39c1.6,1.6,3.5,2.9,5.3,4.4c1.8,1.4,3.7,2.8,5.5,4.1c3.7,2.7,7.399,5.4,11.101,8.1l22.399,16h-0.5
		c3.399-1.4,6.899-2.5,10.601-3.2c3.6-0.7,7.3-1,11-0.5c1.8,0.3,3.699,0.7,5.399,1.5c1.7,0.8,3.3,1.9,4.5,3.3
		c2.5,2.8,3.7,6.6,4.101,10.2l-0.101-0.2c1.8,1.7,3.399,3.6,4.8,5.6c1.5,2,2.801,4.1,3.801,6.3c1.1,2.2,1.899,4.6,2.3,7
		c0.399,2.4,0.399,4.9-0.2,7.3c0.5-2.4,0.4-4.9,0-7.3c-0.5-2.4-1.399-4.7-2.5-6.9c-1.1-2.2-2.399-4.2-3.899-6.2
		c-1.5-1.9-3.101-3.8-4.8-5.4L767.7,83v-0.1c-0.5-3.6-1.601-7.1-4-9.7c-2.399-2.7-5.8-4.1-9.399-4.5c-3.5-0.5-7.2-0.1-10.7,0.6
		c-3.5,0.7-7,1.7-10.399,3.1l-0.3,0.1l-0.2-0.2c-7.399-5.4-14.899-10.7-22.2-16.2c-3.699-2.8-7.3-5.5-11-8.3
		c-1.8-1.4-3.6-2.8-5.399-4.3C692.4,42.1,690.6,40.7,689,39z"/>
</g>
<g>
	<path d="M685,63c2.899,3.8,6,7.5,9.199,11c3.2,3.5,6.601,7,10.101,10.2c3.5,3.2,7.3,6.2,11.399,8.6c2,1.2,4.2,2.2,6.399,3
		c2.2,0.7,4.601,1.1,6.9,0.9l-0.301,0.1c2.2-2.2,4.601-4.1,7.2-5.8c2.601-1.7,5.3-3.2,8.199-4.2c2.9-1,6.2-1.5,9.301-0.6
		c3.101,0.8,5.601,3.1,7.3,5.7c1.7,2.6,2.801,5.5,3.601,8.5l2.2,8.9c0.399,1.5,0.699,3,1,4.5l0.199,1.1l0.101,0.6v0.3
		c0,0.1,0,0.1,0,0.2c0,0,0,0.1,0,0.2c0,0-0.101,0.1-0.101,0.2c-0.101,0.1-0.399,0.1-0.399,0.1c-0.2-0.1-0.101-0.1-0.2-0.1
		c-0.199-0.3-0.199-0.4-0.3-0.6l-0.2-0.5l-0.399-1.1c-0.899-2.9-1.8-5.8-2.601-8.8l0.601,0.1c-1.5,2-2.8,4.1-4.101,6.3
		c-1.199,2.2-2.399,4.4-3.3,6.7c-0.899,2.3-1.601,4.7-1.7,7.2c0,1.2,0.101,2.5,0.601,3.7c0.399,1.2,1.2,2.2,2.2,3
		c-1-0.8-1.801-1.8-2.301-2.9c-0.5-1.2-0.699-2.4-0.699-3.7c0-2.5,0.699-5,1.5-7.4c0.899-2.4,1.899-4.6,3.199-6.8
		c1.2-2.2,2.601-4.3,4-6.4l0.4-0.5l0.199,0.6c0.899,2.9,1.801,5.8,2.801,8.7l0.399,1.1l0.199,0.5c0.101,0.2,0.2,0.4,0.2,0.4
		s0,0-0.101-0.1c0,0-0.3-0.1-0.399,0.1c-0.101,0-0.101,0.2-0.101,0.2c0,0.1,0,0.1,0,0.1v-0.1v-0.3l-0.101-0.5l-0.199-1.1l-1.101-4.4
		l-2.3-8.8c-0.801-2.9-1.9-5.7-3.5-8.2c-1.601-2.5-4-4.5-6.801-5.3c-2.8-0.8-5.899-0.4-8.699,0.6c-2.801,1-5.5,2.4-8,4.1
		c-2.5,1.7-4.9,3.6-7.101,5.7l-0.101,0.1h-0.1c-2.5,0.3-4.9-0.2-7.2-0.9c-2.3-0.8-4.5-1.8-6.601-3.1
		c-4.101-2.5-7.899-5.6-11.399-8.8c-3.5-3.3-6.8-6.7-9.9-10.4C690.8,70.6,687.8,66.9,685,63z"/>
</g>
<g>
	<path d="M697,103c1.6,2.3,3.3,4.6,5,6.8c1.699,2.2,3.5,4.4,5.399,6.5c1.899,2.1,3.8,4.1,5.899,5.9c2.101,1.8,4.399,3.5,6.899,4.5
		c0.601,0.3,1.301,0.5,1.899,0.6c0.301,0.1,0.7,0.1,1,0.2c0.4,0,0.7,0.1,1,0.1c1.4,0,2.7-0.1,4-0.5c2.601-0.7,5-2.2,7.101-4
		c2.101-1.8,4-3.9,5.899-5.9c1.9-2.1,3.7-4.2,5.801-6.1c-3.801,4.1-7,8.9-11.2,12.7c-2.101,1.9-4.601,3.5-7.399,4.3
		c-1.399,0.4-2.899,0.6-4.3,0.6c-0.4,0-0.7,0-1.101-0.1c-0.399,0-0.7-0.1-1.101-0.2c-0.7-0.1-1.399-0.4-2.101-0.6
		c-2.699-1.1-5-2.9-7.101-4.8c-2.1-1.9-4.1-3.9-5.899-6.1C703.1,112.5,699.9,107.8,697,103z"/>
</g>
<g>
	<path d="M723,128c1,0.5,1.699,1.5,2.199,2.4c0.601,1,1,2,1.301,3.1c0.6,2.1,0.8,4.4,0.8,6.6c0,2.2-0.3,4.4-0.7,6.6
		c-0.199,1.1-0.399,2.1-0.699,3.2C725.6,151,725.3,152,725,153l0.5-3.2c0.2-1.1,0.301-2.2,0.4-3.2c0.199-2.2,0.399-4.3,0.399-6.5
		c0-2.1-0.101-4.3-0.5-6.4c-0.2-1-0.5-2.1-1-3C724.4,129.7,723.8,128.7,723,128z"/>
</g>
<g id="www.ABC-color.com">
	<path d="M610.1,83c3.9-4.3,8.101-8.4,12.4-12.3c4.3-3.9,8.8-7.7,13.5-11c4.699-3.4,9.699-6.5,15.199-8.5c2.7-1,5.601-1.7,8.5-1.6
		c2.899,0,5.801,1.1,8,3c-2.199-1.9-5.101-2.9-8-2.9s-5.8,0.7-8.5,1.7c-5.399,2.1-10.3,5.2-15,8.6c-4.699,3.4-9.101,7.2-13.3,11.2
		c-4.2,4-8.301,8.1-12.2,12.4L610.1,83z"/>
</g>
<g>
	<path d="M599.699,85.9c0.601-0.8,1.301-1.6,2.101-2.3c0.8-0.7,1.8-1.2,2.8-1.5c1-0.3,2.101-0.3,3.101,0c1,0.2,1.899,0.7,2.8,1.2
		c-0.899-0.5-1.899-0.8-2.899-1c-1-0.2-2-0.1-2.899,0.3c-0.899,0.3-1.7,0.9-2.399,1.6c-0.7,0.7-1.301,1.5-1.801,2.3L599.699,85.9z"
		/>
</g>
<g>
	<path d="M610,83.1c2.8-7.3,6.6-14.1,10.899-20.6c4.299-6.5,9.3-12.5,15.101-17.7c5.699-5.2,12.3-9.6,19.5-12.6
		c7.199-3,14.899-4.5,22.699-4.4c-7.699,0-15.5,1.6-22.601,4.6c-7.1,3-13.6,7.5-19.199,12.7c-5.7,5.3-10.601,11.3-14.801,17.8
		c-4.199,6.5-7.8,13.4-10.5,20.5L610,83.1z"/>
</g>
<g>
	<path d="M417.699,171.6c7.601-5.7,14.601-12.2,21.101-19.2s12.3-14.5,17.2-22.7c4.899-8.2,8.699-17,10.8-26.3
		C468.9,94.1,469,84.3,466.9,75c2.199,9.3,2.101,19.1,0.101,28.4c-2,9.4-5.801,18.3-10.601,26.5c-4.801,8.3-10.7,15.9-17.101,23
		c-6.5,7.1-13.399,13.6-21.101,19.5L417.699,171.6z"/>
</g>
<g>
	<path d="M496.9,322.5c6.699-1.9,13.5-3.2,20.399-3.8c6.899-0.601,13.8-0.601,20.7,0.6c6.8,1.2,13.5,3.7,18.8,8.2
		c2.601,2.2,4.899,4.9,6.601,7.9c1.7,3,2.899,6.3,3.699,9.6c-0.8-3.3-2.1-6.6-3.8-9.5c-1.7-3-4-5.6-6.601-7.8
		c-5.3-4.4-12-6.8-18.699-7.9c-6.801-1.1-13.7-1-20.5-0.3c-6.801,0.7-13.601,2.1-20.101,4L496.9,322.5z"/>
</g>
<g>
	<path d="M560.5,390.9c0.3,3.6,0.3,7.198,0,10.898c-0.301,3.602-0.801,7.2-1.601,10.7c-1.601,7-4.5,13.8-8.899,19.5
		c4.3-5.8,7-12.6,8.399-19.6c0.699-3.5,1.199-7.102,1.3-10.602c0.2-3.6,0.101-7.2-0.3-10.7L560.5,390.9z"/>
</g>
<g>
	<path d="M739.5,166.9c0.5-1.7,0.899-3.4,1.3-5.1c0.3-1.7,0.601-3.5,0.7-5.3s0.1-3.6-0.101-5.3c-0.2-1.8-0.601-3.5-1.399-5.1
		c0.8,1.6,1.3,3.3,1.6,5.1c0.301,1.8,0.4,3.6,0.4,5.4c0,1.8-0.2,3.6-0.5,5.4c-0.301,1.8-0.601,3.5-1.101,5.3L739.5,166.9z"/>
</g>
<g>
	<path d="M755.699,150.4c-1.601-1.3-2.8-2.8-3.8-4.5c-1-1.7-1.7-3.5-2.101-5.4c-0.899-3.8-0.601-7.7,0.2-11.5
		c-0.7,3.8-0.7,7.7,0.3,11.4c0.5,1.8,1.2,3.6,2.3,5.2c1,1.6,2.301,3,3.7,4.1L755.699,150.4z"/>
</g>
<g>
	<path d="M770.6,142.3c-0.8-1.3-1.5-2.7-2.199-4.1c-0.7-1.4-1.2-2.8-1.801-4.2c-1-2.9-1.699-5.9-1.699-9c0.1,3,1,6,2.1,8.8
		c1.2,2.8,2.601,5.5,4.301,7.9L770.6,142.3z"/>
</g>
<g>
	<path d="M790.1,123.5c-1.3,0.1-2.5-0.2-3.699-0.7c-1.2-0.5-2.101-1.5-2.601-2.7c-0.5-1.2-0.601-2.4-0.5-3.6s0.399-2.4,0.7-3.5
		c-0.301,1.2-0.5,2.3-0.5,3.5s0.199,2.4,0.699,3.4s1.399,1.8,2.399,2.2s2.2,0.5,3.301,0.4L790.1,123.5z"/>
</g>
</svg>
