<?xml version="1.0" encoding="utf-8"?>
<!-- Generator: Adobe Illustrator 15.0.0, SVG Export Plug-In . SVG Version: 6.00 Build 0)  -->
<!DOCTYPE svg PUBLIC "-//W3C//DTD SVG 1.1//EN" "http://www.w3.org/Graphics/SVG/1.1/DTD/svg11.dtd">
<svg version="1.1" id="layer_x5F_www.ABC-color.com"
	 xmlns="http://www.w3.org/2000/svg" xmlns:xlink="http://www.w3.org/1999/xlink" x="0px" y="0px" width="822px" height="567px"
	 viewBox="0 0 822 567" enable-background="new 0 0 822 567" xml:space="preserve">
<polyline fill="#FFFFFF" points="0,567 0,0 822,0 "/>
<path fill="#FFFFFF" stroke="#000000" d="M191.5,298.7c40.7-40.2,98.4-5.2,143.5,9.2c6.9,6.398,7.7,3.6,9.1,3.6
	c3.5,3.1,9,5.2,13.7,6c2.2,2.4,5.7,3.7,8.7,4.8c2.4,1.601,5.2,3.4,8.1,3.601c2.802,3.5,8,5.601,12,7.199c1.5,3.102,5.2,5.4,8.4,6
	c1.3,3,5.3,3.2,8.1,4.2c4.102,2.9,9.7,3.601,14.7,4.2c24.602,9.1,55.5,8.5,62.602,41.9c9.898,46.8-19,99.898-70.602,110.3
	c-42,8.5-114.9-9.602-142.2,13.2c-27.3,22.8-53.8,38.699-77.4,43.199c-20.8,4-37,1.601-48.6-4.601c-32.7-17.399-30.4-64.6-73.3-58.8
	c11.7-10.2,33.5-4.101,46.8,4.6c20,13.102,34.4,53.7,58.8,39.801c9.6-5.5,15.8-20,22.1-30.699c3.9-6.602,7.4-11.301,9.6-19.801
	c6.9-27.301-15.8-67.3-25.1-100.101C174,363.3,166.7,323.1,191.5,298.7z"/>
<path fill="#FFFFFF" stroke="#000000" d="M409.4,157.9c-3.802,17.1-5.102,35-4.5,52.8c-32.302,12-30.9,75.2-38.4,111.6
	c-3-1.1-6.5-2.399-8.7-4.8c-0.398-34.1,5.7-68.1,5.4-101.7C373.5,193.6,388.5,171,409.4,157.9z"/>
<path fill="#FFFFFF" stroke="#000000" d="M504.3,243.3c-49.6,7.9-104.898,40.6-109.3,95.8c-3.2-0.6-6.9-2.898-8.4-6
	c8.2-21.1,14.802-43.3,25.5-63.2c20.7-13.6,34.4-41.1,35.4-65.8c23.8-32.8,62.7-49.6,96.6-69.6C527.3,168.9,517,207.3,504.3,243.3z"
	/>
<path fill="#FFFFFF" stroke="#000000" d="M760.1,15.9c-6,41.8-4,78.5-32.8,108.2c-20.8,21.5-52.6,34.5-71.8,58.4
	c-16,20-32.5,45.8-48.5,55.8c-31.3,19.8-65,30.1-98.3,41.9c-17.2,6.1-37.9,9.6-53.7,20c-14.1,9.3-36.2,23-37,46.3
	c-0.1,0.3-0.1,0.5-0.2,0.8c-5-0.6-10.6-1.3-14.7-4.2c2.5-20.1,20.5-31,33.9-40.5c14.2-10.1,29.4-17.699,42.8-24.8
	c14.8-7.8,22.4-17.1,24.4-34.7c12.7-36,23-74.4,39.8-108.8c31.2-54.8,97.3-66.1,143-102.4c0.4-0.1,0.8-0.2,1.3-0.3
	C702.3,9.2,745.1,5.8,760.1,15.9z M612.3,117.8c-0.3,0.1-0.5,0.2-0.8,0.2C611.8,118,612.1,117.9,612.3,117.8z M609.7,113.7
	c0.3-0.1,0.5-0.2,0.8-0.2C610.2,113.5,609.9,113.6,609.7,113.7z"/>
<path fill="#FFFFFF" stroke="#000000" d="M687.1,32.1c-45.6,36.3-111.698,47.6-143,102.4c-33.898,20-72.8,36.8-96.6,69.6
	c-15.6,18.8-27.1,42.6-35.4,65.8c-10.698,19.8-17.3,42-25.5,63.2c-4-1.6-9.198-3.699-12-7.199
	c19.7-34.699,36.4-74.399,30.302-115.199c-0.602-17.8,0.698-35.7,4.5-52.8C419.5,111.7,443.3,69.7,473.6,34.3
	C540.4,6.8,618.3,17.4,687.1,32.1z M559.7,56.7c0.3-0.1,0.5-0.2,0.8-0.2C560.2,56.5,559.9,56.6,559.7,56.7z"/>
<path fill="#FFFFFF" stroke="#000000" d="M473.6,34.3c-30.3,35.4-54.1,77.4-64.198,123.6c-20.9,13-35.9,35.7-46.2,57.9
	C342.6,242.4,345.1,279.1,344.1,311.5c-1.398,0-2.198,2.8-9.1-3.6c0.1-0.2,0.1-0.4,0.2-0.602c-0.2-0.8-0.602-2.1-1-3
	c-5.5-32.5,7.1-75.9-1.2-115.2c-4.8-22.8-14.5-41.7-18-69.6c-2.6-20.3-6.2-59.4,2.2-75C334.6,12,404,6.3,443.2,15
	c10.3,2.3,22.6,5.7,29.898,17.7C473.3,33.3,473.4,33.8,473.6,34.3z"/>
<path fill="none" stroke="#000000" stroke-width="0.5" stroke-linecap="round" stroke-linejoin="round" d="M455.9,148.9
	c-9.802,19.3-20.802,38.4-28.802,58.8"/>
<path fill="none" stroke="#000000" stroke-width="0.5" stroke-linecap="round" stroke-linejoin="round" d="M523.1,158.5
	c-26.6,13.3-31.3,48.3-51,69"/>
<path fill="none" stroke="#000000" stroke-width="0.5" stroke-linecap="round" stroke-linejoin="round" d="M376.7,219.7
	c-11.8,23.8-8.5,51.2-12.602,76.8"/>
<path fill="none" stroke="#000000" stroke-width="0.5" stroke-linecap="round" stroke-linejoin="round" d="M338.9,301.3
	c-0.7-25.6,3.1-50.6,6.6-75.6"/>
<path fill="none" stroke="#000000" stroke-width="0.5" stroke-linecap="round" stroke-linejoin="round" d="M384.5,320.5
	c12.4-27.7,24.2-55.6,32.4-84.6"/>
<path fill="none" stroke="#000000" stroke-width="0.5" stroke-linecap="round" stroke-linejoin="round" d="M407.9,291.7
	c10.898-18.7,29.5-31.3,43.198-48"/>
<path fill="none" stroke="#000000" stroke-width="0.5" stroke-linecap="round" stroke-linejoin="round" d="M353.9,171.7
	c-3.2,9.7-1.5,19.9-3,30"/>
<path fill="none" stroke="#000000" stroke-width="0.5" stroke-linecap="round" stroke-linejoin="round" d="M535.1,214.3
	c-10.3,13.4-13.5,31.1-21,46.2"/>
<path fill="none" stroke="#000000" stroke-width="0.5" stroke-linecap="round" stroke-linejoin="round" d="M487.7,281.5
	c-18.3,6.5-36.4,14.8-51,27"/>
<path fill="none" stroke="#000000" stroke-width="0.5" stroke-linecap="round" stroke-linejoin="round" d="M429.5,313.3
	c-6,7.4-14.2,13.2-19.2,21.601"/>
<path fill="none" stroke="#000000" stroke-width="0.5" stroke-linecap="round" stroke-linejoin="round" d="M517.7,82.7
	c2.898-8.9,6-17.8,6-27.4"/>
<path fill="none" stroke="#000000" stroke-width="0.5" stroke-linecap="round" stroke-linejoin="round" d="M517.7,82.7
	c-8.9,7.7-17.7,15.7-27,23"/>
<path fill="none" stroke="#000000" stroke-width="0.5" stroke-linecap="round" stroke-linejoin="round" d="M490.7,105.7
	c-1.102-8.3,2.398-16.6,1.8-25.2"/>
<path fill="none" stroke="#000000" stroke-width="0.5" stroke-linecap="round" stroke-linejoin="round" d="M490.7,105.7
	c-1.602,2.4-3.7,4.5-4.8,7.2"/>
<path fill="none" stroke="#000000" stroke-width="0.5" stroke-linecap="round" stroke-linejoin="round" d="M485.9,112.9
	c-8.9,8.5-25.102,24.8-30,36"/>
<path fill="none" stroke="#000000" stroke-width="0.5" stroke-linecap="round" stroke-linejoin="round" d="M455.9,148.9
	c-0.602-10.2,2.6-20.7,1.8-31.2"/>
<path fill="none" stroke="#000000" stroke-width="0.5" stroke-linecap="round" stroke-linejoin="round" d="M460,141.7
	c13.6-7.2,15.9-2.2,22.3-3.6"/>
<path fill="none" stroke="#000000" stroke-width="0.5" stroke-linecap="round" stroke-linejoin="round" d="M485.9,112.9
	c9.398,1.4,19.5-0.2,28.198,4.2"/>
<path fill="none" stroke="#000000" stroke-width="0.5" stroke-linecap="round" stroke-linejoin="round" d="M521.9,81.7
	c9.5,0.9,22-5,29.398,4.2"/>
<path fill="none" stroke="#000000" stroke-width="0.5" stroke-linecap="round" stroke-linejoin="round" d="M586.1,65.5
	c-10.5-3.1-21.6-2.4-32.398-3.9"/>
<path fill="none" stroke="#000000" stroke-width="0.5" stroke-linecap="round" stroke-linejoin="round" d="M553.7,61.6
	c-0.3-2.8,1.898-4.9,2.398-7.5"/>
<path fill="none" stroke="#000000" stroke-width="0.5" stroke-linecap="round" stroke-linejoin="round" d="M553.7,61.6
	c-10.2,6.9-23.5,10.7-31.8,20.1"/>
<path fill="none" stroke="#000000" stroke-width="0.5" stroke-linecap="round" stroke-linejoin="round" d="M521.9,81.7
	c-1.302,0.7-3,1-4.2,1"/>
<path fill="none" stroke="#000000" stroke-width="0.5" stroke-linecap="round" stroke-linejoin="round" d="M631.1,141.7
	c-0.3-5.9-15.898-6.3-20.398-6"/>
<path fill="none" stroke="#000000" stroke-width="0.5" stroke-linecap="round" stroke-linejoin="round" d="M374.6,66.4
	c-2.1,10-7.698,19.8-7.5,29.7"/>
<path fill="none" stroke="#000000" stroke-width="0.5" stroke-linecap="round" stroke-linejoin="round" d="M367.1,96.1
	c-0.8,0.7-1.398,1.1-2.1,1.5"/>
<path fill="none" stroke="#000000" stroke-width="0.5" stroke-linecap="round" stroke-linejoin="round" d="M365,97.6
	c-3.9-6.5-6.8-14.6-15.3-16.5"/>
<path fill="none" stroke="#000000" stroke-width="0.5" stroke-linecap="round" stroke-linejoin="round" d="M365,97.6
	c-2.7,9-2.6,19.1-6.6,27.6"/>
<path fill="none" stroke="#000000" stroke-width="0.5" stroke-linecap="round" stroke-linejoin="round" d="M358.4,125.2
	c-4.802-5.5-9.9-11.7-17.7-12.9"/>
<path fill="none" stroke="#000000" stroke-width="0.5" stroke-linecap="round" stroke-linejoin="round" d="M358.4,125.2
	c0.8,4.4-2.302,9.9,0.898,13.5"/>
<path fill="none" stroke="#000000" stroke-width="0.5" stroke-linecap="round" stroke-linejoin="round" d="M359.3,138.7
	c-1.398,7.2-2.898,13.6-6,20.4"/>
<path fill="none" stroke="#000000" stroke-width="0.5" stroke-linecap="round" stroke-linejoin="round" d="M353.3,159.1
	c-4.1-5.4-5.7-14.8-13.8-16.2"/>
<path fill="none" stroke="#000000" stroke-width="0.5" stroke-linecap="round" stroke-linejoin="round" d="M353.3,159.1
	c1.2,4-1.2,8.5,0.602,12.6"/>
<path fill="none" stroke="#000000" stroke-width="0.5" stroke-linecap="round" stroke-linejoin="round" d="M353.9,171.7
	c4.898-3.9,9.698-8.6,16.198-10.2"/>
<path fill="none" stroke="#000000" stroke-width="0.5" stroke-linecap="round" stroke-linejoin="round" d="M359.3,138.7
	c0.5-0.3,1-0.6,1.5-0.9c0.2-1,10.7-10.9,11.102-11.7"/>
<path fill="none" stroke="#000000" stroke-width="0.5" stroke-linecap="round" stroke-linejoin="round" d="M367.1,96.1
	c7-5.6,15.102-9.9,24-11.4"/>
<path fill="none" stroke="#000000" stroke-width="0.5" stroke-linecap="round" stroke-linejoin="round" d="M382.7,55.9
	c6.2-1,11.6-5.1,18-6"/>
<path fill="none" stroke="#000000" stroke-width="0.5" stroke-linecap="round" stroke-linejoin="round" d="M407.9,35.5
	c-11.2,1.1-22,9.6-25.2,20.4"/>
<path fill="none" stroke="#000000" stroke-width="0.5" stroke-linecap="round" stroke-linejoin="round" d="M382.7,55.9
	c-3.102,3.2-4.7,7.7-8.102,10.5"/>
<path fill="none" stroke="#000000" stroke-width="0.5" stroke-linecap="round" stroke-linejoin="round" d="M374.6,66.4
	c-3.3-6.1-2.6-13.7-2.698-20.7"/>
<path fill="none" stroke="#000000" stroke-width="0.5" stroke-linecap="round" stroke-linejoin="round" d="M634.7,40.9
	c-9,1.5-19,0.9-27.602,4.8"/>
<path fill="none" stroke="#000000" stroke-width="0.5" stroke-linecap="round" stroke-linejoin="round" d="M607.1,45.7
	c-2.8,1-15.898,4-18.8,2.8"/>
<path fill="none" stroke="#000000" stroke-width="0.5" stroke-linecap="round" stroke-linejoin="round" d="M588.3,48.5
	c0-0.7,1.9-2.7,3.8-4.6"/>
<path fill="none" stroke="#000000" stroke-width="0.5" stroke-linecap="round" stroke-linejoin="round" d="M588.3,48.5
	c-6.6,2.6-28.1,10.2-34.6,13.1"/>
<path fill="none" stroke="#000000" stroke-width="0.5" stroke-linecap="round" stroke-linejoin="round" d="M713.9,52.9
	c-7.2,9-16.602,16.7-25.802,22.2"/>
<path fill="none" stroke="#000000" stroke-width="0.5" stroke-linecap="round" stroke-linejoin="round" d="M688.1,75.1
	c1-4.7,4.602-8.7,3.602-13.8"/>
<path fill="none" stroke="#000000" stroke-width="0.5" stroke-linecap="round" stroke-linejoin="round" d="M688.1,75.1
	c-1.5,3.4-5.898,3.9-7.398,7"/>
<path fill="none" stroke="#000000" stroke-width="0.5" stroke-linecap="round" stroke-linejoin="round" d="M680.7,82.1
	c-4.7,0.8-7.8,5.8-12.7,6.2"/>
<path fill="none" stroke="#000000" stroke-width="0.5" stroke-linecap="round" stroke-linejoin="round" d="M668,88.3
	c1.5-5.4,5.1-12.2,0.3-17.4"/>
<path fill="none" stroke="#000000" stroke-width="0.5" stroke-linecap="round" stroke-linejoin="round" d="M668,88.3
	c-2.8,3.2-14.8,9.7-18.3,12"/>
<path fill="none" stroke="#000000" stroke-width="0.5" stroke-linecap="round" stroke-linejoin="round" d="M680.7,82.1
	c6.5,1.5,13.3,2.4,20,3.2"/>
<path fill="none" stroke="#000000" stroke-width="0.5" stroke-linecap="round" stroke-linejoin="round" d="M631.1,113.7
	c1.2-6.2,3-18.3-3-23"/>
<path fill="none" stroke="#000000" stroke-width="0.5" stroke-linecap="round" stroke-linejoin="round" d="M618.3,119.3
	c-8.898,4.5-18.3,10.4-24.398,18.8"/>
<path fill="none" stroke="#000000" stroke-width="0.5" stroke-linecap="round" stroke-linejoin="round" d="M593.9,138.1
	c-4.102,2.1-6.5,6.5-10.802,8.4"/>
<path fill="none" stroke="#000000" stroke-width="0.5" stroke-linecap="round" stroke-linejoin="round" d="M583.1,146.5
	c-2.6,5.5-9.898,8.3-10.198,14.7"/>
<path fill="none" stroke="#000000" stroke-width="0.5" stroke-linecap="round" stroke-linejoin="round" d="M572.9,161.2
	c-6.302,5.1-11.7,12.1-15,19.5"/>
<path fill="none" stroke="#000000" stroke-width="0.5" stroke-linecap="round" stroke-linejoin="round" d="M557.9,180.7
	c-8.9,10.1-17.602,21.7-22.802,33.6"/>
<path fill="none" stroke="#000000" stroke-width="0.5" stroke-linecap="round" stroke-linejoin="round" d="M535.1,214.3
	c8.2-3,21.102-15.2,28.2-3.6"/>
<path fill="none" stroke="#000000" stroke-width="0.5" stroke-linecap="round" stroke-linejoin="round" d="M593.9,138.1
	c5.698,1.4,11.1-2.3,16.8-2.4"/>
<path fill="none" stroke="#000000" stroke-width="0.5" stroke-linecap="round" stroke-linejoin="round" d="M618.3,119.3
	c11.8-0.4,31.3-6.6,39.2,6.8"/>
<path fill="none" stroke="#000000" stroke-width="0.5" stroke-linecap="round" stroke-linejoin="round" d="M649.7,100.3
	c10.1-0.5,19.898-3.1,30.2-1.4c1.398,1.7,2.5,3.8,4,4.4"/>
<path fill="none" stroke="#000000" stroke-width="0.5" stroke-linecap="round" stroke-linejoin="round" d="M649.7,100.3
	c1.3-6.7,11.2-16.3,1.8-21.6"/>
<path fill="none" stroke="#000000" stroke-width="0.5" stroke-linecap="round" stroke-linejoin="round" d="M649.7,100.3
	c-6.4,2.4-21.2,18.1-31.4,19"/>
<path fill="none" stroke="#000000" stroke-width="0.5" stroke-linecap="round" stroke-linejoin="round" d="M393.5,118.3
	c-7.6,1-15.2,3.4-21.6,7.8"/>
<path fill="none" stroke="#000000" stroke-width="0.5" stroke-linecap="round" stroke-linejoin="round" d="M611.5,123
	c0,0-1.8-9.3-0.8-22.2"/>
<path fill="none" stroke="#000000" stroke-width="0.5" stroke-linecap="round" stroke-linejoin="round" d="M593.9,115
	c0,0-5.602,20.6,0,23.1"/>
<path fill="none" stroke="#000000" stroke-width="0.5" stroke-linecap="round" stroke-linejoin="round" d="M572.9,130.9
	c0,0-7.5,20.1,0,30.3c0.1,0.2,0.398,0.1,0.6,0.2c11.8-7.6,26.3-6.5,38.4-0.5"/>
<path fill="none" stroke="#000000" stroke-width="0.5" stroke-linecap="round" stroke-linejoin="round" d="M554.9,161.2
	c0,0-6.602,20.2,3,19.5c9-0.7,17.1-6.5,26.398-4.2"/>
<path fill="none" stroke="#000000" stroke-width="0.5" stroke-linecap="round" stroke-linejoin="round" d="M212,507c0,0-2,4.5-6.5,8
	"/>
<path fill="none" stroke="#000000" stroke-width="0.5" stroke-linecap="round" stroke-linejoin="round" d="M217.5,528.5
	c0,0-3.5,6-8.8,7"/>
<path fill="none" stroke="#000000" stroke-width="0.5" stroke-linecap="round" stroke-linejoin="round" d="M192,535.5
	c0,0-4.5,7.6-9.5,7.1"/>
<path fill="none" stroke="#000000" stroke-width="0.5" stroke-linecap="round" stroke-linejoin="round" d="M187.3,549.5
	c0,0-6.3,4.5-12.8,0"/>
<path fill="none" stroke="#000000" stroke-width="0.5" stroke-linecap="round" stroke-linejoin="round" d="M146,542.6
	c5,5.4,10,8.9,14,6.9"/>
<path fill="none" stroke="#000000" stroke-width="0.5" stroke-linecap="round" stroke-linejoin="round" d="M131,528.5
	c0,0,5.4,11.2,10.5,7"/>
<path fill="none" stroke="#000000" stroke-width="0.5" stroke-linecap="round" stroke-linejoin="round" d="M110,503.5c0,0,7,1,9,7.5
	"/>
<path fill="none" stroke="#000000" stroke-width="0.5" stroke-linecap="round" stroke-linejoin="round" d="M119,518.5c0,0,3,11,6,10
	"/>
<path fill="none" stroke="#000000" stroke-width="0.5" stroke-linecap="round" stroke-linejoin="round" d="M125,515c0,0,6,3.6,6,8.5
	"/>
<path fill="none" stroke="#000000" stroke-width="0.5" stroke-linecap="round" stroke-linejoin="round" d="M92.5,492
	c0,0,10.3-0.7,9.5,5.5"/>
<path fill="none" stroke="#000000" stroke-width="0.5" stroke-linecap="round" stroke-linejoin="round" d="M166,542.6
	c0,0,8,4,10.5,0"/>
<path id="www.ABC-color.com" fill="none" stroke="#000000" stroke-width="0.5" stroke-linecap="round" stroke-linejoin="round" d="
	M240,515c0,0-1,6.6-6.5,8.5"/>
<path fill="none" stroke="#000000" stroke-width="0.5" stroke-linecap="round" stroke-linejoin="round" d="M205.5,530.5
	c0,0-5,8.1-8.5,8.5"/>
<path fill="none" stroke="#000000" stroke-width="0.5" stroke-linecap="round" stroke-linejoin="round" d="M213.1,542.6
	c0,0-8.6,7.9-11.9,6.9"/>
<path fill="none" stroke="#000000" stroke-width="0.5" stroke-linecap="round" stroke-linejoin="round" d="M197,523.5c0,0-1,6.5-5,7
	"/>
<path fill="none" stroke="#000000" stroke-width="0.5" stroke-linecap="round" stroke-linejoin="round" d="M215,519.3
	c0,0-2.5,9.9-6.3,9.3"/>
<path fill="none" stroke="#000000" stroke-width="0.5" stroke-linecap="round" stroke-linejoin="round" d="M197,542.6
	c0,0-2.5,8.4-5,6.9"/>
<path fill="none" stroke="#000000" stroke-width="0.5" stroke-linecap="round" stroke-linejoin="round" d="M163.5,551.5
	c0,0,4.5,6,7.8,2"/>
</svg>
