<?xml version="1.0" encoding="utf-8"?>
<!-- Generator: Adobe Illustrator 15.0.0, SVG Export Plug-In . SVG Version: 6.00 Build 0)  -->
<!DOCTYPE svg PUBLIC "-//W3C//DTD SVG 1.1//EN" "http://www.w3.org/Graphics/SVG/1.1/DTD/svg11.dtd">
<svg version="1.1" id="layer_x5F_www.ABC-color.com"
	 xmlns="http://www.w3.org/2000/svg" xmlns:xlink="http://www.w3.org/1999/xlink" x="0px" y="0px" width="822px" height="567px"
	 viewBox="0 0 822 567" enable-background="new 0 0 822 567" xml:space="preserve">
<polyline fill="#FFFFFF" points="0,0 822,0 822,567 "/>
<path fill="#FFFFFF" stroke="#000000" stroke-width="0.5" d="M632.2,249.1c5.6,5.4,0.1,21.4-11.2,19.5l-2.3-0.8
	C618.7,259.1,624.2,241.3,632.2,249.1z"/>
<path fill="#FFFFFF" stroke="#000000" stroke-width="0.5" d="M557.4,139c1,5.8-2.102,14.6-8.2,15.7c-9,1.7-6.8-9.5-3-13.6
	c0,0,1.5-2,1.6-2.9C551,136.6,554.4,137.4,557.4,139z"/>
<path fill="#FFFFFF" stroke="#000000" stroke-width="0.5" d="M444.2,212.1c3.1,4.1-3.3,25.9-8.102,20.1
	c-3.898-4.7-1.698-16.5,4.4-19.5h0.8C442.2,212.3,443.2,210.8,444.2,212.1z"/>
<path fill="#FFFFFF" stroke="#000000" stroke-width="0.5" d="M347.1,314.7c7.602,0.6,8.2,10.7,5,16.5c-0.898,1.6-9.698-2.9-13.3-4.5
	C336.6,320.5,339.8,314.1,347.1,314.7z"/>
<path fill="#FFFFFF" stroke="#000000" stroke-width="0.5" d="M199.4,292.3c5.6,5.5,3,22-3.5,21.3c-5.2-0.5-5.1-7.898-2.1-16.3
	c0.1-0.2-0.4-0.7-0.4-0.7C194.8,294.9,197,293.3,199.4,292.3z"/>
<path fill="#FFFFFF" stroke="#000000" stroke-width="0.5" d="M237.4,176.7c4.6,5.7,0.4,19.2-10.3,16.4c-0.4-4.8,0.3-9.1,5.2-12.7
	C233.5,179.4,235.3,174,237.4,176.7z"/>
<path id="www.ABC-color.com" fill="#FFFFFF" stroke="#000000" stroke-width="0.5" d="M776,207.9c2.4,11.6,0.4,25.5,0.4,37.3
	c0,36.3-17.102,67.899-38,97c-11.602,16.1-27.5,25-43.5,36c-12.5,8.6-24.7,17.7-37.802,25.398c-9.698,5.802-19.3,10.2-30,13.7
	c-9.8,3.2-19.698,2.3-30.198,2.3c-43.602,0-89.7,4.4-132-5.8c-21.2-5.1-42.602-16.8-64.4-16.898c-13.1,0-22,2.3-34.1,5.8
	c-11.802,3.398-19.5,5.5-32.102,5.5c-20,0-42.9,2.8-62.6-0.7c-28.8-5-57.2-14.9-85-23.7c-15.7-4.899-27.6-9.2-41.8-17.899
	c-13.4-8.199-27.3-13.899-40.2-23.199C93.6,334.6,84.7,321.6,78.1,309.6c-7.2-13-14.2-24.898-14.1-40.3c0-10.6,0-21.2,0-31.8
	c0-27.5,5.3-60.4,29.4-76.9c16.1-11,32.4-24.1,52-27.8c11.5-2.1,23.8-0.9,35.5-0.9c11.2,0,24.9,3.8,35.5,0.8
	c18.6-5.3,38.7-6.1,57.4-11.3c13.1-3.7,26.4-3.3,39.3-7.6c20.4-6.9,41.4-13.3,62-20.3c21.5-7.3,38.9-7.5,61.5-7.5
	c59.5,0,120.5-3.9,179.802-0.1c31,2,59.198,14.2,86.698,27.3c24.2,11.4,37.802,29.5,52.2,51.3C763.7,177.2,772.8,192.8,776,207.9z
	 M621,268.6c11.3,1.9,16.8-14.1,11.2-19.5c-8-7.8-13.4,9.9-13.5,18.8L621,268.6z M549.3,154.7c6.102-1.1,9.102-9.9,8.2-15.7
	c-3-1.6-6.4-2.3-9.5-0.8c-0.2,0.9-1.6,2.9-1.6,2.9C542.4,145.1,540.2,156.4,549.3,154.7z M436.2,232.3c4.7,5.7,11.2-16,8.1-20.1
	c-1-1.3-2.1,0.2-2.898,0.6H440.6C434.4,215.8,432.3,227.6,436.2,232.3z M352.1,331.1c3.2-5.8,2.602-15.898-5-16.5
	c-7.398-0.5-10.6,5.801-8.3,12C342.4,328.3,351.3,332.7,352.1,331.1z M227.1,193c10.7,2.9,14.9-10.7,10.3-16.4
	c-2.1-2.6-3.9,2.7-5.2,3.7C227.4,183.9,226.7,188.2,227.1,193z M196,313.7c6.5,0.7,9.1-15.8,3.5-21.3c-2.4,0.898-4.6,2.5-6,4.398
	c0,0,0.5,0.5,0.4,0.7C190.9,305.8,190.8,313.2,196,313.7z"/>
<path fill="none" stroke="#1F1E21" stroke-width="0.5" stroke-linecap="round" stroke-linejoin="round" d="M214.2,203
	c0-20.9,9.8-37.7,21.9-37.7"/>
<path fill="none" stroke="#1F1E21" stroke-width="0.5" stroke-linecap="round" stroke-linejoin="round" d="M323.6,309.4
	C323.6,330.3,335.4,347.1,350,347.1"/>
<path fill="none" stroke="#1F1E21" stroke-width="0.5" stroke-linecap="round" stroke-linejoin="round" d="M532.7,166
	c0-22.9,8.1-41.5,18.1-41.5"/>
<path fill="none" stroke="#1F1E21" stroke-width="0.5" stroke-linecap="round" stroke-linejoin="round" d="M605.1,282.2
	c0-24.6,10.5-44.5,23.4-44.5"/>
<path fill="none" stroke="#1F1E21" stroke-width="0.5" stroke-linecap="round" stroke-linejoin="round" d="M178.7,318.4
	c0-20.9,7.8-37.7,17.4-37.7"/>
<path fill="none" stroke="#1F1E21" stroke-width="0.5" stroke-linecap="round" stroke-linejoin="round" d="M426.2,241.5
	c0-23.8,7.8-43,17.398-43"/>
</svg>
