<?xml version="1.0" encoding="utf-8"?>
<!-- Generator: Adobe Illustrator 15.0.0, SVG Export Plug-In . SVG Version: 6.00 Build 0)  -->
<!DOCTYPE svg PUBLIC "-//W3C//DTD SVG 1.1//EN" "http://www.w3.org/Graphics/SVG/1.1/DTD/svg11.dtd">
<svg version="1.1" id="layer_x5F_www.ABC-color.com"
	 xmlns="http://www.w3.org/2000/svg" xmlns:xlink="http://www.w3.org/1999/xlink" x="0px" y="0px" width="822px" height="567px"
	 viewBox="0 0 822 567" enable-background="new 0 0 822 567" xml:space="preserve">
<polyline fill="#FFFFFF" points="0,0 822,0 822,567 "/>
<path fill="#FFFFFF" stroke="#000000" stroke-width="0.5" d="M447.3,42.6c2.602,0,4.7,2,4.7,4.4s-2,4.3-4.5,4.4c-0.1,0-0.1,0-0.2,0
	c-2.6,0-4.7-2-4.7-4.4c0-1.5,0-2.5,0.302-3.1l0,0C443.4,42.9,444.5,42.6,447.3,42.6z"/>
<path fill="#FFFFFF" stroke="#000000" stroke-width="0.5" d="M447.3,51.5c0.102,0,0.102,0,0.2,0v0.2c-5.9,5.1-10.7,11.7-14,19.5
	c-3.2,7.5-5.1,16-5.1,25l0.1,0.5c-2.4,0.3-4.8,0.3-7,0.2v-0.8c-0.1,0-0.5-11.9,3.2-24.9C427.6,61.1,433,50.4,442.8,44
	c-0.3,0.7-0.3,1.7-0.3,3.1C442.6,49.5,444.7,51.5,447.3,51.5z"/>
<path fill="#FFFFFF" stroke="#000000" stroke-width="0.5" d="M417.5,380.8c12.5,48.102,5.1,91.7-16.7,97.3
	c-21.8,5.7-49.5-28.698-62.1-76.8c-12.602-48.1-5.102-91.7,16.7-97.399C377.1,298.3,405,332.7,417.5,380.8z"/>
<path id="www.ABC-color.com" fill="#FFFFFF" stroke="#000000" stroke-width="0.5" d="M428.5,96.6l-0.1-0.5c0-9,1.8-17.5,5.1-25
	c50,3.8,84.1,67.6,89.9,143.8c0.6,8.2,14.5,18.2,14.5,18.2c43.5,30,58.5,75.6,58.5,137.1c0,94.1-78.4,171.3-152.802,169.8
	c-91.198-1.9-150.3-75.7-150.3-169.8c0-47.101,1.3-81.101,28.9-113.2c0,0,10.1-17,11.3-43.4c3.7-76.8,40.7-139.5,91.3-142.6
	c-3.7,13-3.398,24.9-3.2,24.9v0.8C423.7,96.9,426.1,96.9,428.5,96.6z M400.8,478.2c21.7-5.7,29.2-49.3,16.7-97.3
	C405,332.8,377.1,298.4,355.4,304.1c-21.7,5.7-29.2,49.301-16.7,97.4C351.3,449.4,379.1,483.8,400.8,478.2z"/>
<path fill="none" stroke="#000000" d="M429.5,96.5c8-1,15.4-4.1,16.5-9.2"/>
<path fill="none" stroke="#000000" d="M408.9,90.5c0,3.6,4.8,5.7,11,6.3"/>
</svg>
