<?xml version="1.0" encoding="utf-8"?>
<!-- Generator: Adobe Illustrator 15.0.0, SVG Export Plug-In . SVG Version: 6.00 Build 0)  -->
<!DOCTYPE svg PUBLIC "-//W3C//DTD SVG 1.1//EN" "http://www.w3.org/Graphics/SVG/1.1/DTD/svg11.dtd">
<svg version="1.1" id="layer_x5F_www.ABC-color.com"
	 xmlns="http://www.w3.org/2000/svg" xmlns:xlink="http://www.w3.org/1999/xlink" x="0px" y="0px" width="822px" height="567px"
	 viewBox="0 0 822 567" enable-background="new 0 0 822 567" xml:space="preserve">
<rect display="none" fill="#FFFFFF" width="822" height="567"/>
<path fill="#FFFFFF" stroke="#000000" stroke-miterlimit="10" d="M690.7,362.9c1.6,2.398,3,5,4.3,7.699
	c0.2,0.399,0.4,0.801,0.6,1.301c3.5,6.199,1.9,8,4.4,13.3c0.1,0.5,0.2,0.899,0.3,1.399c1.7,8.199,2.102,16.899,1.2,25.801
	c0,0.5-5.1,13-4.4,17.3c9,53.7-37.3,54.7-37.898,54.2l0.6,0.698c-4.7,3.5-9.5,6.602-14.5,9.2c-0.3,0.102-0.5,0.3-0.8,0.4
	c-4.9-1.102-6.7,4.5-13,5.398c-0.5,0.2-1,0.302-1.6,0.5c-5.7,1.7-11.5,2.802-17.302,3.2c-0.5,0-1,0.102-1.6,0.102
	c-3.7-0.5-6.4-0.5-10.9-0.302c-0.5,0-1-0.1-1.5-0.1c-5.698-0.7-11.198-2.2-16.5-4.4v0.102c-6.5,2.8-13.198,5.398-20.198,7.7
	c-0.5,0.198-0.9,0.3-1.4,0.5c-4.7,1.1-8.7,1.1-12.7,3.8c-0.5,0.1-1,0.3-1.398,0.398c-10.302,2.7-20.9,4.9-31.802,6.5
	c-0.5,0.102-1,0.102-1.5,0.2c-5.698-1.2-9.8,1.2-15,1.8c-0.5,0-1,0.102-1.5,0.102c-11.398,1-23,1.5-34.8,1.3c-0.5,0-1,0-1.5,0
	c-6.2-0.8-8-2-12.398-0.4c-0.5,0-1,0-1.602-0.1c-8.898-0.5-17.8-1.3-26.8-2.5c-0.5-0.1-1.1-0.1-1.6-0.3
	c-3.302-3.602-8.7-1.2-12.802-1.8c-0.5-0.102-1.1-0.2-1.6-0.302c-3.7-0.6-7.5-1.3-11.2-2.1c-0.5-0.1-1-0.2-1.6-0.3
	c-4.8-2.4-7.4-5.3-11.5-4.3c-0.4,0.1-0.8,0.3-1.3,0.398c-3.7-1.5-9.102-0.3-13.5-2.398c-0.4-0.102-0.9-0.2-1.302-0.4
	c-1.3-0.4-2.698-0.7-4-1.1c-0.5-0.102-1-0.302-1.398-0.4c-3.602-3.4-9-2.1-13.102-4c-0.398-0.2-0.8-0.4-1.198-0.6
	c-3.602-1.7-7.2-3.7-11-3.602c-0.5-0.2-1-0.3-1.5-0.5c-1.802-0.7-3.602-1.3-5.4-2c-0.4-0.2-0.9-0.3-1.4-0.5
	c-2.3-4.398-7.698-3.2-13.5-5.398c-0.398-0.2-0.898-0.4-1.3-0.602c-2.7-1.1-5.399-2.3-8-3.5c-0.5-0.2-1-0.5-1.399-0.7
	c-7.101-5.6-6.3-4.1-13.2-6.1c-0.5-0.2-1-0.5-1.5-0.7c-0.4-0.2-0.8-0.398-1.2-0.6c-5.2-2.8-6.5-7.7-13.1-6.8
	c-0.4-0.2-0.8-0.4-1.2-0.602c-1.2-0.7-2.4-1.3-3.6-2c-0.4-0.3-0.9-0.5-1.3-0.8c-2.2-4.9-3.4-3.3-11.4-6.7c-0.3-0.2-0.6-0.3-0.8-0.5
	c-8.2-5-16.1-10.1-23.7-15.398c-0.4-0.302-0.8-0.602-1.3-0.9c-2.6-3.5-8-4.8-11.2-8.2c-0.4-0.3-0.8-0.6-1.2-0.898
	c-1.2-0.9-2.4-1.9-3.6-2.802c-0.4-0.3-0.8-0.6-1.2-0.898c-2.8-4.3-5.5-8-10.5-8.602c-0.4-0.3-0.8-0.6-1.2-1
	c-1.9-1.6-3.8-3.198-5.6-4.898c-0.4-0.3-0.8-0.7-1.2-1c-0.5-6.102-7.3-6.102-10.1-9.4c-0.4-0.3-0.7-0.7-1.1-1
	c-0.4-0.398-0.7-0.7-1.1-1.1c-0.2-0.2-0.4-0.4-0.6-0.602c-3.7-5.1-6.4-9.999-11.7-11.898c-0.2-0.2-0.4-0.4-0.6-0.601
	c-2.7-2.899-5.3-5.801-7.9-8.699c-0.2-0.2-0.4-0.5-0.6-0.7c-1.8-5.3-5.8-6.5-8.6-10.2c-0.2-0.2-0.4-0.5-0.6-0.7
	c-1.7-2.1-3.3-4.2-4.9-6.3c-0.2-0.2-0.4-0.5-0.5-0.7c-2-4.6-2-8.3-7.7-10.6c-0.2-0.2-0.3-0.5-0.5-0.7c-2.2-3.1-4.3-6.3-6.3-9.5
	c-0.1-0.3-0.3-0.5-0.4-0.8c0.8-5.3-3.3-7.7-6.7-11c-0.2-0.3-0.3-0.5-0.4-0.7c-2.7-4.7-5.2-9.5-7.6-14.2c-0.1-0.3-0.3-0.5-0.4-0.8
	c-1.6-4.4-1.6-8-5.6-12.1c-0.1-0.301-0.2-0.5-0.3-0.801c-1.3-3.101-2.6-6.101-3.8-9.199c-0.4-1-0.8-2-1.2-3.102
	c-2.9-2.6-0.2-6.3-3.2-9.3c-0.3-0.9-0.7-1.9-1-3c-1-3.1-1.8-6.2-2.6-9.3c-0.1-0.5-0.3-1-0.4-1.6c-0.2-0.8-0.4-1.7-0.7-2.5
	c-0.1-0.4-0.2-0.9-0.4-1.3c0-3.9-1.4-7.6-2.2-10.9c0-0.3-0.1-0.6-0.1-0.9c-0.2-1.1-0.4-2.3-0.6-3.4c-0.1-0.4-0.1-0.9-0.2-1.3
	c1.8-4.7-0.9-8.4-1.6-12.8c0-0.4-0.1-0.8-0.1-1.3c-0.1-0.9-0.1-1.7-0.2-2.5c0-0.5-0.1-1-0.1-1.5c2.4-3.8,1-8.8-0.4-12.1
	c0-0.5,0-1,0-1.5c0.1-6.1,0.4-12.2,1.1-18.2c0.1-0.5,0.1-1,0.2-1.5c1.2-3,1.4-6.7,1.7-9.8c0-0.4,0.1-0.8,0.1-1.1
	c2.4-3.9,2.4-7.6,2.6-11.9c0.1-0.4,0.2-0.8,0.3-1.2c0.3-1.1,0.7-2.3,1-3.5c0.1-0.4,0.3-0.9,0.4-1.4c3.4-2,3.4-5.7,3.8-10.9
	c0.1-0.5,0.3-0.9,0.5-1.3c1.3-3.1,2.6-6.3,4.1-9.3c0.2-0.4,0.4-0.9,0.6-1.3c3.8-2.5,5.1-7.4,7-12.9c0.3-0.4,0.5-0.9,0.8-1.3
	c1.3-2.1,2.6-4.2,4-6.3c0.3-0.4,0.6-0.8,0.8-1.2c0.3-0.4,0.5-0.8,0.8-1.2c3.7-1.8,6.4-5.5,7-9.1c0.3-0.4,0.6-0.8,0.9-1.2
	c1.5-1.8,3.1-3.6,4.6-5.4c0.3-0.4,0.6-0.7,1-1.1c3.8-2.3,6.5-6,9-9.2c0.4-0.3,0.7-0.7,1-1c0.7-0.6,1.4-1.3,2.1-1.9
	c0.4-0.3,0.7-0.6,1.1-0.9c4-1.6,8.1-4,9.9-8.1c0.4-0.3,0.8-0.6,1.1-0.9c2.6-2,5.3-3.9,8-5.8c0.4-0.3,0.8-0.5,1.2-0.8
	c2.6-1.9,6.6-3.1,9.6-6.1c0.4-0.3,0.8-0.5,1.2-0.7c2.9-1.7,5.8-3.3,8.7-4.8c0.4-0.2,0.8-0.4,1.3-0.7c3.3-1.9,8.7-1.9,11.7-5.6
	c0.4-0.2,0.9-0.4,1.3-0.6c2.2-1,4.4-1.9,6.6-2.8c0.5-0.2,0.9-0.4,1.4-0.5c3.8-2.2,9.2-1,12.3-4.5c0.5-0.1,0.9-0.3,1.4-0.5
	c2.8-0.9,5.6-1.8,8.4-2.6c0.5-0.1,0.9-0.3,1.4-0.4c5.8-0.4,9.9-1.7,14.4-3.6c0.5-0.1,1-0.2,1.5-0.3c6.7-1.5,13.6-2.7,20.6-3.8
	c0.5-0.1,1-0.1,1.5-0.2c4.2,0.1,8.3,0.1,12.1-1.5c0.5,0,1-0.1,1.5-0.1c16.6-1.6,33.7-2,51.1-1.1c0.5,0,1.102,0,1.602,0.1
	c5.1,1.5,9.2,2.8,14.398,1.1c0.5,0,1.102,0.1,1.602,0.1c7.7,0.8,15.398,1.8,23.1,3c0.5,0.1,1,0.2,1.5,0.3c3.5,3.1,7.5,3.1,12.4,2.2
	c0.5,0.1,1,0.2,1.6,0.3c4.602,0.9,9.2,1.9,13.8,3c0.5,0.1,1,0.3,1.5,0.4c2.4,3.4,7.802,2.2,12.302,3.2c0.5,0.1,1,0.3,1.5,0.4
	c4,1.1,8,2.3,12,3.5c0.5,0.2,1,0.3,1.5,0.5c3.198,4.5,10,3.2,13.5,4.5c0.5,0.2,1,0.4,1.5,0.5c2.898,1,5.8,2.1,8.698,3.2
	c0.5,0.2,1,0.4,1.4,0.6c3.6,3.1,6.3,5.5,11.5,4.6c0.5,0.2,1,0.4,1.4,0.6c2,0.9,4.1,1.7,6.198,2.6c0.4,0.2,0.802,0.4,1.2,0.6
	c2.102,3.3,6.102,3.3,10.7,4.8c0.4,0.2,0.7,0.4,1,0.7c3,2.2,5.8,5.2,11.1,5.3c0.302,0.1,0.602,0.3,0.9,0.4c4.7,2.4,9.3,4.9,14,7.5
	c0.4,0.2,0.8,0.4,1.2,0.6c2.3,3.6,7.7,4.8,12.1,7.1c0.4,0.2,0.8,0.5,1.2,0.7c0.8,0.5,1.6,1,2.4,1.5c0.398,0.3,0.898,0.5,1.3,0.8
	c2.8,3.4,5.5,5.8,11.398,7.4c0.4,0.3,0.802,0.6,1.302,0.8c0.8,0.6,1.698,1.1,2.5,1.7c0.398,0.3,0.8,0.6,1.198,0.9
	c3.5,4.8,5.5,5.5,10.9,7.7c0.4,0.3,0.8,0.6,1.2,0.9c1.2,0.9,2.398,1.8,3.5,2.6c0.2,0.2,0.5,0.4,0.7,0.6c2.398,4.2,6.5,5.7,10.5,8.3
	c0.198,0.2,0.5,0.4,0.698,0.6c1.9,5.2,6,6.4,10.302,8.8c0.3,0.3,0.698,0.6,1,0.9c1,0.9,2,1.8,3,2.7c0.198,0.2,0.398,0.4,0.698,0.6
	c0.9,2.3,2.302,3.7,4,5c0.302,0.3,0.7,0.5,1,0.8c0.302,0.2,0.7,0.5,1,0.8c3.7,0.5,3.7,6.6,7.802,7.1c0.398,0.3,0.8,0.5,1.1,0.8
	c0.3,0.3,0.6,0.6,0.9,0.9c3.1,3.2,6.1,6.4,9.1,9.6c0.2,0.2,0.4,0.4,0.6,0.7c0.302,3.8,2.9,6.1,6.102,8.2c0.398,0.3,0.8,0.5,1.2,0.8
	c2.398,3.1,5.1,8.1,8.8,10.1c0.3,0.4,0.6,0.7,0.898,1.1c2.5,3.3,5,6.6,7.4,9.9c0.2,0.2,0.3,0.5,0.5,0.7c1,6,2.4,8.5,8,11.8
	c0.2,0.2,0.3,0.5,0.5,0.7c2.3,3.6,4.5,7.1,6.6,10.7c0.102,0.2,0.302,0.5,0.4,0.7c-1,5.5,3.1,7.9,6,10.8c0.1,0.2,0.3,0.5,0.4,0.7
	c3.698,7,7,14.1,9.898,21.1c0.102,0.2,0.2,0.5,0.3,0.7c-2.698,5.3,1.302,6.5,4.5,11.7c0.102,0.3,0.2,0.5,0.302,0.7
	c1.6,4.4,3,8.9,4.3,13.3c0.1,0.3,0.1,0.5,0.2,0.8c0.1,4.5,0.1,10.701,3.5,14.1c0.1,0.5,0.198,1,0.3,1.5c1.2,5.7,2.1,11.399,2.8,17
	c0,0.3,0,0.5,0,0.8c-2.4,4.4-1.1,8.102,1.2,13.102c0,0.5,0,1,0.1,1.5c0.4,10.699,0,21.3-1.5,31.699L690.7,362.9z"/>
<g id="XMLID_2_">
	<g>
		<path fill="none" stroke="#000000" stroke-width="0.25" d="M214.6,423.3c0,3.9,3.8,7,8.5,7"/>
		<path fill="none" stroke="#000000" stroke-width="0.25" d="M241.5,436.8c0,3.602,2.8,6.602,6.3,6.602"/>
		<path fill="none" stroke="#000000" stroke-width="0.25" d="M284.5,455.7c0,1.8,4,3.3,9,3.3"/>
		<path fill="none" stroke="#000000" stroke-width="0.25" d="M342.8,480.3c0,2.3,5.602,4.102,12.602,4.102"/>
		<path fill="none" stroke="#000000" stroke-width="0.25" d="M410.5,493.9c0,0,6.2,0,13.9,0"/>
		<path fill="none" stroke="#000000" stroke-width="0.25" d="M185.5,362.6c0,4.801,4.2,8.602,9.4,8.602"/>
		<path fill="none" stroke="#000000" stroke-width="0.25" d="M227.1,394.6c0,4.302,3.4,7.802,7.6,7.802"/>
		<path fill="none" stroke="#000000" stroke-width="0.25" d="M427.5,474.2c0,2,6.2,3.7,13.9,3.7"/>
		<path fill="none" stroke="#000000" stroke-width="0.25" d="M281.8,427c0,4.5,4.8,8.2,10.8,8.2"/>
		<path fill="none" stroke="#000000" stroke-width="0.25" d="M612.7,484.8c0,3.2,3.8,5.8,8.5,5.8"/>
		<path fill="none" stroke="#000000" stroke-width="0.25" d="M660.7,352.8c0-1.399-4.4-2.5-9.9-2.5"/>
		<path fill="none" stroke="#000000" stroke-width="0.25" d="M688.9,382.7c0-5.7-3.2-10.3-7.2-10.3"/>
		<path fill="none" stroke="#000000" stroke-width="0.25" d="M671,395.8c0-4.3-3.2-7.8-7.2-7.8"/>
		<path fill="none" stroke="#000000" stroke-width="0.25" d="M641.9,366.7c0-1.601-5-2.9-11.2-2.9"/>
		<path fill="none" stroke="#000000" stroke-width="0.25" d="M587.2,476.2c0,3.2,4.398,5.7,9.898,5.7"/>
		<path fill="none" stroke="#000000" stroke-width="0.25" d="M633.3,210.9c0-7.5-7.6-13.5-17-13.5"/>
		<path fill="none" stroke="#000000" stroke-width="0.25" d="M599.3,172.7c0-6.1-5-11.1-11.2-11.1"/>
		<path fill="none" stroke="#000000" stroke-width="0.25" d="M665.6,305.6c0-8.199-3-14.8-6.698-14.8"/>
		<path fill="none" stroke="#000000" stroke-width="0.25" d="M544.1,140.7c0-3.2-4.398-5.7-9.898-5.7"/>
		<path fill="none" stroke="#000000" stroke-width="0.25" d="M571,183c0-4.1-6.6-7.4-14.8-7.4"/>
		<path fill="none" stroke="#000000" stroke-width="0.25" d="M349.1,453.3c0,2.7,4.4,4.9,9.9,4.9"/>
		<path fill="none" stroke="#000000" stroke-width="0.25" d="M266.1,390.1c0,6.802,3.2,12.302,7.2,12.302"/>
		<path fill="none" stroke="#000000" stroke-width="0.25" d="M396.6,452.8c0,3.602,6.802,6.602,15.2,6.602"/>
		<path fill="none" stroke="#000000" stroke-width="0.25" d="M486.7,468.4c0,2.5,7,4.5,15.7,4.5"/>
		<path fill="none" stroke="#000000" stroke-width="0.25" d="M145.5,344.2c0,6.1,4,11.1,9,11.1"/>
		<path fill="none" stroke="#000000" stroke-width="0.25" d="M181,388.5c0,2.3,3.6,4.1,8.1,4.1"/>
		<path fill="none" stroke="#000000" stroke-width="0.25" d="M481.8,509c0,2.3,6.4,4.1,14.4,4.1"/>
		<path fill="none" stroke="#000000" stroke-width="0.25" d="M545.5,494.3c0,7.3-5.2,13.102-11.7,13.102"/>
		<path fill="none" stroke="#000000" stroke-width="0.25" d="M520.4,488.5c0,1.8-7.2,3.3-16.102,3.3"/>
		<path fill="none" stroke="#000000" stroke-width="0.25" d="M378.7,491.8c0,3.602,6.8,6.602,15.2,6.602"/>
		<path fill="none" stroke="#000000" stroke-width="0.25" d="M104.3,246.5c0,7.3,1.6,13.1,3.6,13.1"/>
		<path fill="none" stroke="#000000" stroke-width="0.25" d="M137.5,301.5c0,4.5,3.2,8.2,7.2,8.2"/>
		<path fill="none" stroke="#000000" stroke-width="0.25" d="M165.3,328.6c0,3.602,2,6.602,4.5,6.602"/>
		<path fill="none" stroke="#000000" stroke-width="0.25" d="M126.7,315.4c0,2.699,1.6,4.898,3.6,4.898"/>
		<path fill="none" stroke="#000000" stroke-width="0.25" d="M100.7,187.5c0,6.8,0,12.3,0,12.3"/>
		<path fill="none" stroke="#000000" stroke-width="0.25" d="M645.9,314.6c0-8.6-6-15.6-13.5-15.6"/>
		<path fill="none" stroke="#000000" stroke-width="0.25" d="M316.8,459c0,3.6,6.4,6.6,14.4,6.6"/>
		<path fill="none" stroke="#000000" stroke-width="0.25" d="M313.2,413.9c0,5,6,9,13.5,9"/>
		<path fill="none" stroke="#000000" stroke-width="0.25" d="M458.5,453.3c0,1.4,7.2,2.5,16.1,2.5"/>
		<path fill="none" stroke="#000000" stroke-width="0.25" d="M614.5,465.6c0,5,3.2,9,7.2,9"/>
		<path fill="none" stroke="#000000" stroke-width="0.25" d="M655.8,369.6c0,1.4,4.4,2.5,9.9,2.5"/>
		<path fill="none" stroke="#000000" stroke-width="0.25" d="M684.5,424.5c0-6.3-2-11.5-4.5-11.5"/>
		<path fill="none" stroke="#000000" stroke-width="0.25" d="M437.9,504.1c0,2.7,8,4.9,17.898,4.9"/>
		<path fill="none" stroke="#000000" stroke-width="0.25" d="M661.1,252.3c0-5.9-3.6-10.7-8.1-10.7"/>
		<path fill="none" stroke="#000000" stroke-width="0.25" d="M635.1,240.8c0-5-4.398-9-9.898-9"/>
		<path fill="none" stroke="#000000" stroke-width="0.25" d="M652.2,281c0-4.5-2.8-8.2-6.3-8.2"/>
		<path fill="none" stroke="#000000" stroke-width="0.25" d="M677.3,334.3c0-5.399-2-9.8-4.5-9.8"/>
		<path fill="none" stroke="#000000" stroke-width="0.25" d="M602.9,209.6c0-5-6-9-13.5-9"/>
		<path fill="none" stroke="#000000" stroke-width="0.25" d="M524.8,103c0-4.1-4.8-7.4-10.8-7.4"/>
		<path fill="none" stroke="#000000" stroke-width="0.25" d="M476.4,489.3c0,2.7-7.2,4.9-16.102,4.9"/>
	</g>
</g>
<path id="www.ABC-color.com" fill="none" stroke="#1F1E21" stroke-linecap="round" stroke-linejoin="round" d="M692.9,366.7
	c-0.302-0.4-6.602-9.601-6.9-10c-4.8-2.8-5.1-4.101-10.6-9.8"/>
<path fill="none" stroke="#1F1E21" stroke-linecap="round" stroke-linejoin="round" d="M564.3,475c-2.7,4.7-2.7,14,9.5,19.3
	c0.4,0.3,7.8,4,8.2,4.3"/>
</svg>
