<?xml version="1.0" encoding="utf-8"?>
<!-- Generator: Adobe Illustrator 15.0.0, SVG Export Plug-In . SVG Version: 6.00 Build 0)  -->
<!DOCTYPE svg PUBLIC "-//W3C//DTD SVG 1.1//EN" "http://www.w3.org/Graphics/SVG/1.1/DTD/svg11.dtd">
<svg version="1.1" id="layer_x5F_www.ABC-color.com"
	 xmlns="http://www.w3.org/2000/svg" xmlns:xlink="http://www.w3.org/1999/xlink" x="0px" y="0px" width="822px" height="567px"
	 viewBox="0 0 822 567" enable-background="new 0 0 822 567" xml:space="preserve">
<rect display="none" fill="#FFFFFF" width="822" height="567"/>
<path fill="#FFFFFF" stroke="#000000" stroke-miterlimit="10" d="M761.8,117.2c-0.2,0.1-0.5,0.2-0.7,0.3c-5.6-0.1-9.698,4.9-15,6
	c-10.898-4-28.1,5.5-32.1-3.5C731,106,749,106,761.8,117.2z"/>
<path fill="#FFFFFF" stroke="#000000" stroke-miterlimit="10" d="M746.1,123.5c5.302-1.1,9.4-6.1,15-6c-14,34-25.1,69.5-30,105
	c-3.3-2.8-1-9.4-5-12c0-1,0-2,0-3C730.6,178.9,739.7,151.5,746.1,123.5z"/>
<path id="www.ABC-color.com" fill="#FFFFFF" stroke="#000000" stroke-miterlimit="10" d="M714,120c4,9,21.2-0.5,32.1,3.5
	c-6.398,28-15.5,55.4-20,84c-21.3-5-43.3-5.5-65-8C681.5,186.4,717,142,714,120z"/>
<path fill="#FFFFFF" stroke="#000000" stroke-miterlimit="10" d="M731.1,222.5c-0.3,17.8-3.5,35.6-10.198,52
	c-30.102,72.7-99.4,138.6-182.7,163c-136.8,40-294.1-3.1-430.9-59.3c-18.1-7.4-30-16-34-24.8c123.9,25.1,259,50.8,384.9,34
	C568.9,372.6,671.6,330.6,724.1,212.4c0.302-0.7,1.4-1.2,2.102-2C730.1,213.1,727.8,219.6,731.1,222.5z"/>
<path fill="#FFFFFF" stroke="#000000" stroke-miterlimit="10" d="M726.1,207.5c0,1,0,2,0,3c-0.698,0.8-1.8,1.3-2.1,2
	c-52.5,118.1-155.2,160.2-265.9,175C332.2,404.3,197,378.6,73.2,353.5c-0.1-0.3-0.2-0.7-0.3-1c-22.9-29.8,38.7-32.1,60.3-34
	c57.2-4.9,104.8-5.3,156-3c50.8,2.3,103.7,3.5,158,0c1.6-0.1,3.2-0.2,4.7-0.3c1.198-0.101,2.3-0.2,3.5-0.3c0.5,0,1-0.102,1.5-0.102
	c85-6.199,177.6-23,199.6-112.3c1.3-1.6,3.1-2.5,4.7-3C682.8,202,704.9,202.5,726.1,207.5z"/>
</svg>
