<?xml version="1.0" encoding="utf-8"?>
<!-- Generator: Adobe Illustrator 15.0.0, SVG Export Plug-In . SVG Version: 6.00 Build 0)  -->
<!DOCTYPE svg PUBLIC "-//W3C//DTD SVG 1.1//EN" "http://www.w3.org/Graphics/SVG/1.1/DTD/svg11.dtd">
<svg version="1.1" id="layer_x5F_www.ABC-color.com"
	 xmlns="http://www.w3.org/2000/svg" xmlns:xlink="http://www.w3.org/1999/xlink" x="0px" y="0px" width="822px" height="567px"
	 viewBox="0 0 822 567" enable-background="new 0 0 822 567" xml:space="preserve">
<rect display="none" fill="#FFFFFF" width="822" height="567"/>
<path fill="#FFFFFF" stroke="#000000" d="M425.6,79.8C494.6,5.3,628.4-18.9,703.4,60C637.7,137,503.8,170.1,429.9,87.1
	c-18.4-2.5-33.9,8.8-51.5,11.5c-1.302-1.4-2-2-2.802-3.3c0.2-0.1,0.302-0.2,0.5-0.3C393.5,92.7,408.8,83.8,425.6,79.8z"/>
<path fill="#FFFFFF" stroke="#000000" d="M494.9,172.5C588.3,224.4,637.4,343.7,577.5,446c-27.6,47.3-79.8,81.8-110.6,91.5
	c-18.4,5.8-38.4,1.8-63,0.5c-1.7-0.6-3.4-0.5-4.5-0.3c-0.7-0.2-1.4-0.2-2-0.3c-2-0.7-4.5-0.9-6.5-0.5c-0.7,0-1.302,0-2,0
	c-1.7-0.5-3.302-0.602-5,0c-1.9-0.7-4.302,0-6,1c-0.302,0-0.7,0-1,0c-1.602-0.5-3.4-0.602-4.5-0.302c-3.102,0.2-11.802,2.2-16.5,3.7
	c-30.4,9.7-57.7-4.7-85-20.898c-68.8-40.802-112.3-121.9-97.6-205c3.3-18.7,9.9-39.602,20-58.5c17.2-32,47.7-64.5,80.5-82.5
	c20.3-11.1,36.9-14.2,60.5-10.2c7.7,1.3,17.8,3.3,25,1.1c5.102,0.3,10.9,0.4,16-1.3c19.4-3.5,51.5-11.1,79-6.9
	C469.1,159.7,479.8,164.1,494.9,172.5z"/>
<path fill="#FFFFFF" stroke="#000000" d="M378.4,98.6c1,3.3-0.102,5.4-2.102,6.7c-3,2-8.1,2.4-11.398,2.8c-4-1.5-9.9-3-9-8.5
	c4.1-6.5,13.1-5.3,19.8-4.3C376.5,96.5,377.1,97.2,378.4,98.6z"/>
<path fill="#FFFFFF" stroke="#000000" d="M376.3,105.3l0.2,0.3c-1.1,0.9-9.1,5.9-13.2,10.6c-9.7,17.7,4.7,19,8.102,34
	c1.198,4.8,2.698,9.5,4,14.2c-5.102,1.6-10.9,1.5-16,1.3c-3.7-21.7-31.102-50-3.5-66c-0.9,5.5,5,7,9,8.5
	C368.3,107.7,373.3,107.3,376.3,105.3z"/>
<path fill="none" stroke="#000000" stroke-width="0.5" stroke-linecap="round" stroke-linejoin="round" d="M403.9,538.1
	c0,1.302,0,2.7,0,4"/>
<path fill="none" stroke="#000000" stroke-width="0.5" stroke-linecap="round" stroke-linejoin="round" d="M399.4,537.8
	c-0.102,1.602,0.1,3.4,1,4.8"/>
<path fill="none" stroke="#000000" stroke-width="0.5" stroke-linecap="round" stroke-linejoin="round" d="M397.4,537.6
	c-0.4,0.7-0.4,1.602-0.5,2.5"/>
<path fill="none" stroke="#000000" stroke-width="0.5" stroke-linecap="round" stroke-linejoin="round" d="M390.9,537.1
	c0.6,1.302,0.898,2.4,1.5,3.5"/>
<path fill="none" stroke="#000000" stroke-width="0.5" stroke-linecap="round" stroke-linejoin="round" d="M377.9,538.1
	c1.198,1.2,1.8,1.802,3.5,3.5"/>
<path fill="none" stroke="#000000" stroke-width="0.5" stroke-linecap="round" stroke-linejoin="round" d="M376.9,538.1
	c-0.302,1.602-1.102,2.9-1.5,4"/>
<path fill="none" stroke="#000000" stroke-width="0.5" stroke-linecap="round" stroke-linejoin="round" d="M372.4,537.8
	c0.198,1.5-0.2,2.5-1,3.8"/>
<path fill="none" stroke="#000000" stroke-width="0.5" stroke-linecap="round" stroke-linejoin="round" d="M429.9,87.1
	c17-0.6,34.3,1.5,51.5,0.3"/>
<path fill="none" stroke="#000000" stroke-width="0.5" stroke-linecap="round" stroke-linejoin="round" d="M481.4,87.3
	c-1.5-17.9,9.898-34.1,24.5-43.3"/>
<path fill="none" stroke="#000000" stroke-width="0.5" stroke-linecap="round" stroke-linejoin="round" d="M482.4,87.8
	c13-0.3,26.1-0.2,39-1.5"/>
<path fill="none" stroke="#000000" stroke-width="0.5" stroke-linecap="round" stroke-linejoin="round" d="M521.4,86.3
	c5.698-18,13.398-37.7,30.5-47.3"/>
<path id="www.ABC-color.com" fill="none" stroke="#000000" stroke-width="0.5" stroke-linecap="round" stroke-linejoin="round" d="
	M521.4,86.3c1.198,0.3,3,0.2,3.8,0.4"/>
<path fill="none" stroke="#000000" stroke-width="0.5" stroke-linecap="round" stroke-linejoin="round" d="M525.3,86.8
	c12.5-2.5,26-1.7,38.2-5.4"/>
<path fill="none" stroke="#000000" stroke-width="0.5" stroke-linecap="round" stroke-linejoin="round" d="M563.4,81.3
	c7-15.9,16.6-32.5,31.5-42.3"/>
<path fill="none" stroke="#000000" stroke-width="0.5" stroke-linecap="round" stroke-linejoin="round" d="M563.4,81.3
	c0.898,0.4,1.698,0.6,2.5,0.8"/>
<path fill="none" stroke="#000000" stroke-width="0.5" stroke-linecap="round" stroke-linejoin="round" d="M565.9,82.1
	c19.3-2.1,44.1-11.6,63-19.4c6.3-2.6,11.198-4.6,17-2.1"/>
<path fill="none" stroke="#000000" stroke-width="0.5" stroke-linecap="round" stroke-linejoin="round" d="M565.9,82.1
	c10.698,8.5,25.1,13,37,20.5"/>
<path fill="none" stroke="#000000" stroke-width="0.5" stroke-linecap="round" stroke-linejoin="round" d="M525.3,86.8
	c9.102,13.3,23,25.5,39.7,26.8"/>
<path fill="none" stroke="#000000" stroke-width="0.5" stroke-linecap="round" stroke-linejoin="round" d="M482.4,87.8
	c1.6,11.4,10.398,23.4,22.5,24.8"/>
<path fill="none" stroke="#000000" stroke-width="0.5" stroke-linecap="round" stroke-linejoin="round" d="M389,540.8
	c0.3-1.8-1.4-1.898-0.1-3.7"/>
<path fill="none" stroke="#000000" stroke-width="0.5" stroke-linecap="round" stroke-linejoin="round" d="M383.9,537.1
	c0.1,2.2,0.1,2.102,0.698,4.102"/>
</svg>
