<?xml version="1.0" encoding="utf-8"?>
<!-- Generator: Adobe Illustrator 15.0.0, SVG Export Plug-In . SVG Version: 6.00 Build 0)  -->
<!DOCTYPE svg PUBLIC "-//W3C//DTD SVG 1.1//EN" "http://www.w3.org/Graphics/SVG/1.1/DTD/svg11.dtd">
<svg version="1.1" id="layer_x5F_www.ABC-color.com"
	 xmlns="http://www.w3.org/2000/svg" xmlns:xlink="http://www.w3.org/1999/xlink" x="0px" y="0px" width="822px" height="567px"
	 viewBox="0 0 822 567" enable-background="new 0 0 822 567" xml:space="preserve">
<polyline fill="#FFFFFF" points="0,0 822,0 822,567 "/>
<path fill="#FFFFFF" stroke="#000000" stroke-width="0.5" d="M266.7,57.3c-9.4,0-16.7,0-16.7,0c0-5.2,12.1-9.4,27.6-9.9V48
	c0,0.2,111.2,5.6,143.9,147l0,0c5.6,24.1,8.9,52.2,8.9,84.9C426.6,257.8,419.3,236,408.8,216.7C417.3,171.5,356.9,62.6,266.7,57.3z"
	/>
<path fill="#FFFFFF" stroke="#000000" stroke-width="0.5" d="M407.3,317.3c0,0-0.2,0.101-0.5,0.3c-0.1-85.2-36.1-161-98.898-161
	c-9.602,0-17.3,1.5-17.3,3.3c0-5.4,8.5-9.2,22.5-9.3c42.302,0.2,75.102,28.1,95.7,65.9c10.5,19.3,17.8,41.1,21.602,63.2
	c1.898,11.3,2.898,22.5,3,33.6c-3,2.8-4.7,7.2-4.7,11.9c0-10.3-1.3-21-3.2-21h-0.2c-0.2,4.3-3.1,8.1-7.5,10.5
	C414.8,316.4,411.2,317.3,407.3,317.3z"/>
<path fill="#FFFFFF" stroke="#000000" stroke-width="0.5" d="M574,56.7v0.7c-116.8,0-99.8,150-99.8,160.9l0,0
	c-6.4,12.1-11.4,25.2-14.7,38.9c0-40.2-0.3-89.6,11.4-130.3c12.5-43.5,38.898-76.8,94.3-77.6v0.6c18.8,0,34,4.2,34,9.3
	C599.3,57.9,588.2,56.8,574,56.7z"/>
<path fill="#FFFFFF" stroke="#000000" stroke-width="0.5" d="M440.3,136.3c10.602-121.8,68-111.4,61.2-106.7l0.4,0.3
	c-8.102-1.7-17.7,8.9-21.7,14.7c-5.602,8-9.4,17.4-12.4,26.8l0.2,0.1c18.1-24,27.9-22.7,50-22.7c-1.5,6-15,6.9-20.1,10.3
	c-7,4.6-12.4,11.3-16.5,18.5C473.1,92.3,470.3,110.1,470.3,126.9l0.602,0.2c-11.802,40.6-11.4,90.1-11.4,130.3
	c-3.2,13.1-4.9,26.8-4.9,40.8h-0.5c-0.1-3.7-0.1-7.8-0.1-12c-6.2,0-11.2,10.8-11.9,24.7H442c-3.6-0.301-6.5,0.8-8.7,2.8
	c0-11-1-22.3-3-33.6c0-32.7-3.3-60.7-8.898-84.9l0.398-0.1c0-93.2,6.5-176.9,12.8-176.9c1.7,0,4.9,47.7,5.5,118.3h0.2V136.3z"/>
<path fill="#FFFFFF" stroke="#000000" stroke-width="0.5" d="M594.7,140c15.1,0,27.3,2.4,27.3,5.3c-9.2,0-16.7,1.5-16.7,3.3
	c-77,0-137.3,64.9-137.3,150c-5,0-9.1,4.5-9.3,10.2c0,0.2,0,0.3,0,0.5c0-6.3-1.8-11.3-4-11.3c0-14,1.7-27.7,4.898-40.8
	c3.302-13.7,8.302-26.8,14.7-38.9C498.5,172.1,543.1,140,594.7,140z"/>
<path fill="#FFFFFF" stroke="#000000" stroke-width="0.5" d="M458.7,308.9c0.2-5.7,4.3-10.2,9.3-10.2c0.7,0,1.9,5.8,2,11.8
	c152.1,116.6,41.8,170-10.7,187.2C503.9,481.6,593.5,430.9,458.7,308.9L458.7,308.9z"/>
<path fill="#FFFFFF" stroke="#000000" stroke-width="0.5" d="M458.7,308.9c134.7,122,45.2,172.698,0.6,188.8
	c-8,2.6-14.7,4.398-18.898,5.398c18-7.3,137.8-60.898,15.198-186.198c-0.698,0-1.3-7.801-1.5-19h0.5c2.2,0,4,5.1,4,11.3
	C458.7,309.2,458.7,309,458.7,308.9L458.7,308.9z"/>
<path fill="#FFFFFF" stroke="#000000" stroke-width="0.5" d="M455.7,317c122.6,125.2,2.8,178.9-15.2,186.2c-1,0.2-1.8,0.398-2.5,0.6
	c7.4-5.2,54.2-37.7,17.4-156.1c-0.5-1.7-1-3.101-1.4-4.4l0.1,0.3l-3.698,10.2l0.3-18.3c-1.4-3-2.102-4.2-4.8-10.1
	c-2.9-0.801-5.602-1.7-3.9-11.2c0-1.101,0-2.2,0.1-3.3c0.7-13.9,5.802-24.7,11.9-24.7c0,4.3,0,8.3,0.1,12
	C454.4,309.2,455,317,455.7,317z"/>
<path fill="#FFFFFF" stroke="#000000" stroke-width="0.5" d="M455.3,347.7C492.1,466.1,445.3,498.6,437.9,503.8
	c-0.5,0.102-0.9,0.2-1.2,0.3c-0.2-0.3-0.4-0.698-0.7-1.198c-7.2-12.7-50.1-95.4,9.8-177.602c2.7,5.9,3.4,7.101,4.8,10.101
	l-0.3,18.301l3.7-10.2l-0.1-0.3C454.3,344.5,454.8,346,455.3,347.7z"/>
<path fill="#FFFFFF" stroke="#000000" stroke-width="0.5" d="M434.9,504.2L434.9,504.2c0.398,0.1,0.8,0.2,1.198,0.3
	c0.102-0.1-0.5,0.4,0,0c0.7-0.2,2.5-0.9,2.2-0.8c0.5-0.102,4.602-0.9,12.102-3.2c3,0.1,8,4.7,8,7.6c-5.2,0-9.302,0.9-9.302,2
	c1.5,0,2.7,3,2.7,6.7c-7,0-12.7-3-12.7-6.7c-4,0-7.3,4.5-7.3,10c-1.5,0-2.7-4.198-2.7-9.3c-4.3,3.102-12.198,4-12.198,7.7
	c0,0-0.302-4,2.198-8.3l-0.8-1.9c-4.2,0-7.6,0.5-10,1c-2.398,0.5-3.7,1-3.7,1c4.2-9.898,5.802-6.8,10.802-10.3l0.1-0.5
	C421.6,501,428.1,502.6,434.9,504.2z"/>
<path fill="#FFFFFF" stroke="#000000" stroke-width="0.5" d="M435.9,504.2c-6.9-1.602-13.302-3.2-19.5-4.9
	c-194.2-54-19.7-174.8-9.5-181.7c0.3-0.199,0.5-0.3,0.5-0.3c3.898,0,7.5-0.899,10.5-2.5l0,0c-36.5,35.8-149.5,125.8,18.398,189.3
	C436.1,504.2,436,504.2,435.9,504.2L435.9,504.2z"/>
<path fill="#FFFFFF" stroke="#000000" stroke-width="0.5" d="M436.1,502.8c0.302,0.5,0.5,0.9,0.7,1.2c-0.2,0-0.398,0.1-0.6,0.1
	c-167.9-63.5-54.9-153.5-18.4-189.3l0,0c4.4-2.3,7.4-6.1,7.5-10.5h0.2c1.8,0,3.2,10.601,3.2,21c-89.602,84.7-55.4,127.8,7.1,177.9
	L436.1,502.8z"/>
<path id="www.ABC-color.com" fill="#FFFFFF" stroke="#000000" stroke-width="0.5" d="M442.1,310.7c-0.1,1.1-0.1,2.2-0.1,3.3
	c-1.8,9.5,1,10.4,3.9,11.2c-59.9,82.2-17,164.898-9.802,177.6l0.7,1.2c-62.5-50.1-97.8-94-8.1-178.7c0-4.7,1.6-9.2,4.7-11.899
	C435.5,311.4,438.4,310.3,442.1,310.7L442.1,310.7z"/>
<path fill="none" stroke="#1F1E21" stroke-width="0.5" stroke-linecap="round" stroke-linejoin="round" d="M401.3,456
	c-2.8-9.1-10.3-55.3,2.7-80"/>
<path fill="none" stroke="#1F1E21" stroke-width="0.5" stroke-linecap="round" stroke-linejoin="round" d="M471.5,469
	c19.6-30,32.5-54.6,2-107.8"/>
<path fill="none" stroke="#1F1E21" stroke-width="0.5" stroke-linecap="round" stroke-linejoin="round" d="M440,473.3
	c0-54.398,6.5-104-2.7-104"/>
<path fill="none" stroke="#1F1E21" stroke-width="0.5" stroke-linecap="round" stroke-linejoin="round" d="M438.7,216
	c0-27.1,1.898-56.1,1.7-79.7"/>
<path fill="none" stroke="#1F1E21" stroke-width="0.5" stroke-linecap="round" stroke-linejoin="round" d="M450.7,204
	c0-66.2,13.1-117.6,17.3-132.4"/>
</svg>
