<?xml version="1.0" encoding="utf-8"?>
<!-- Generator: Adobe Illustrator 15.0.0, SVG Export Plug-In . SVG Version: 6.00 Build 0)  -->
<!DOCTYPE svg PUBLIC "-//W3C//DTD SVG 1.1//EN" "http://www.w3.org/Graphics/SVG/1.1/DTD/svg11.dtd">
<svg version="1.1" id="layer_x5F_www.ABC-color.com"
	 xmlns="http://www.w3.org/2000/svg" xmlns:xlink="http://www.w3.org/1999/xlink" x="0px" y="0px" width="822px" height="567px"
	 viewBox="0 0 822 567" enable-background="new 0 0 822 567" xml:space="preserve">
<polyline fill="#FFFFFF" points="0,567 0,0 822,0 822,567 "/>
<path fill="#FFFFFF" stroke="#000000" stroke-width="0.5" d="M412.9,56.8c-0.302-2.8,0.6-4.7,6.5-6.3c0.898,0,1.8,0,2.6,0
	c7.8,5.8,5,12.1,2.3,15c-0.3,0.4-0.7,0.7-1,0.9c-4.2-0.4-7.898-2.3-9.8-6.2C413.2,59,413,57.8,412.9,56.8z"/>
<path fill="#FFFFFF" stroke="#000000" stroke-width="0.5" d="M420,130.5c-3.8-1.2-7.8-3.7-11.7-2.6c-2.2-2.2-5.1-3.5-8.2-3.5
	c-2-3-5.6-5-8.698-6.9c-0.9-1.6-1.5-3.7-3-4.8c-0.302-1.1-0.2-3.5-0.5-5c0.398-1.2,0.398-2.7,1-4.5c0.898-0.9,1.698-1.7,2.6-2.6
	c1.6-0.7,3.1-1,5.2-2.6c3.3-1.5,7.1,0.2,10.398-1.3c4.5-11,3.7-27.3,5.9-39.9c0.1,1,0.4,2.2,0.6,3.5c1.802,3.9,5.5,5.8,9.802,6.2
	c0.3-0.3,0.6-0.6,1-0.9l0.1,0.1c-3.7,9.2-6,21.7-6.5,31.7h0.3c0,0.4,0,0.9,0,1.3c1.5,1.1,3.8,1.1,5.9,2c2.7,2.3,5.8,4,9.1,5.2
	c1,2.7,3.2,5,5.8,6.2c0,1.9,0,3.8,0.302,4.9c-0.302,3.9-3.4,6.4-4.9,9.8c-2.7,1.6-5.5,3.1-8.5,3.9C423,130.6,421.5,129.9,420,130.5z
	"/>
<path fill="#FFFFFF" stroke="#000000" stroke-width="0.5" d="M391.4,100.6C361.2,70.1,311,65,263,103l-0.2-0.2
	c4.1-3.9,8.4-7.7,12.9-11.3c15.2-15.2,36.3-25.4,57.2-31.2c25.398,1.6,49.5,17,63.698,37.7C394.5,99.6,393,99.9,391.4,100.6z"/>
<path fill="#FFFFFF" stroke="#000000" stroke-width="0.5" d="M407,96.7c-3.3,1.5-7.1-0.2-10.4,1.3C382.4,77.3,358.3,61.9,332.9,60.3
	c17-7.3,37.6-12.3,55.8-10.7l0,0C399.5,62.9,401.9,81.1,407,96.7z"/>
<path fill="#FFFFFF" stroke="#000000" stroke-width="0.5" d="M407,96.7c-5.1-15.6-7.5-33.8-18.3-47l0,0c0.3,0,0.6,0,1,0.1
	c14.898-0.5,27.898-0.4,32.3,0.8c-0.8,0-1.7,0-2.6,0c-5.802,1.6-6.802,3.5-6.5,6.3C410.7,69.4,411.5,85.7,407,96.7z"/>
<path fill="#FFFFFF" stroke="#000000" stroke-width="0.5" d="M484.3,55.8c-28.8-2.2-57.8,13.7-66.3,42.9c0-0.4,0-0.9,0-1.3h-0.3
	c0.6-10,2.898-22.5,6.5-31.7l-0.102-0.1c2.802-2.9,5.5-9.3-2.3-15C442.2,48,465.3,48.6,484.3,55.8z"/>
<path fill="#FFFFFF" stroke="#000000" stroke-width="0.5" d="M418,98.6c8.5-29.2,37.5-45.1,66.3-42.9
	c130.9,21.5,187.9,178,154.7,293.8c-5.9,25.6-16,51.4-32.5,71.9L606,421c40-89,36.7-239-18.6-296.5C546.7,82,478,64,423.9,100.6
	C421.8,99.8,419.5,99.8,418,98.6z"/>
<path fill="#FFFFFF" stroke="#000000" stroke-width="0.5" d="M587.4,124.5C642.7,182,646,332,606,421l0.5,0.4
	c-2.3,2.8-4.6,5.5-7.1,8.1c-13.5,18.9-32.7,36-54,45.5C585.5,445,718,77,433,105.8c-3.3-1.2-6.4-2.9-9.1-5.2
	C478,64,546.7,82,587.4,124.5z"/>
<path fill="#FFFFFF" stroke="#000000" stroke-width="0.5" d="M433,105.8C718,77,585.5,445,545.5,475c-7.7,6.3-17.3,11.1-27.1,14.3
	c8.198-22.5,42.1-81.8,50.6-142.3c15.5-110.5,3.4-242.3-130.2-235C436.2,110.8,434,108.5,433,105.8z"/>
<path id="www.ABC-color.com" fill="#FFFFFF" stroke="#000000" stroke-width="0.5" d="M438.8,112c133.5-7.2,145.7,124.5,130.2,235
	c-8.5,60.5-42.5,119.8-50.6,142.3c-2.2,0.7-4.5,1.4-6.7,1.9c-4.7,2.398-9.602,4.3-14.7,6c9.6-13.2,84.8-156.3,24-319.9
	c-11.5-30.8-43.7-51.4-81.7-60.5C438.9,115.8,438.9,113.9,438.8,112z"/>
<path fill="#FFFFFF" stroke="#000000" stroke-width="0.5" d="M439.2,116.9c37.898,9.1,70.2,29.7,81.7,60.5
	C581.8,341,506.6,484.1,496.9,497.3c-8.2,2.602-16.802,4.3-24.9,5.102c17.1-42.5,37.8-96.602,44.7-154.001
	c7.898-65.399-1.8-117.699-31-169.699c-12-21.4-27.2-41.3-51.5-52C435.8,123.3,438.9,120.7,439.2,116.9z"/>
<path fill="#FFFFFF" stroke="#000000" stroke-width="0.5" d="M434.3,126.6c24.3,10.8,39.5,30.7,51.5,52
	c29.2,51.9,38.9,104.3,31,169.7c-6.898,57.4-27.6,111.5-44.7,154c-4.5,2.3-10,2.7-15,2.9c-4.6,0.6-9.3,1.3-13.898,1.8l-0.102-1
	c29-82,43.802-191.6,28.5-282.5c-3.198-19.1-7.398-34.9-15.698-50.1c-8-14.5-20.102-26.8-30-43C428.8,129.7,431.6,128.2,434.3,126.6
	z"/>
<path fill="#FFFFFF" stroke="#000000" stroke-width="0.5" d="M420,130.5c1.5-0.6,3,0.1,5.8,0c9.9,16.2,22,28.4,30,43
	c8.3,15.1,12.4,30.9,15.7,50.1C486.8,314.4,472,424,443,506l0.1,1c-8.1,1-16.3,1.5-24.398,0.5C455,417,440.5,271,428.6,170.2
	C426.9,156,425.5,142.3,420,130.5z"/>
<path fill="#FFFFFF" stroke="#000000" stroke-width="0.5" d="M408.3,127.9c3.9-1.1,7.9,1.4,11.7,2.6c5.5,11.8,6.9,25.5,8.6,39.7
	C440.5,271,455,417,418.7,507.5c-1.602,0.2-3.3,0.4-4.9,0.5C381,360.7,381,294.8,386.7,188.4C387.8,167.3,393,143.5,408.3,127.9z"/>
<path fill="#FFFFFF" stroke="#000000" stroke-width="0.5" d="M400.1,124.4c3.102,0,6,1.3,8.2,3.5c-15.3,15.6-20.5,39.4-21.6,60.5
	C381,294.8,381,360.7,413.8,508c-5.398,0.5-11,0.5-16.3-0.4C355.9,386.3,295,223.1,400.1,124.4z"/>
<path fill="#FFFFFF" stroke="#000000" stroke-width="0.5" d="M400.1,124.4c-105,98.7-44.198,261.8-2.6,383.1
	c-1.1-0.2-2.1-0.4-3.2-0.7c-4.8,0-9.7-0.1-14.5-0.6l0.102-1.2c-23.2-48.4-59.9-114.2-69-174c-8.301-54.4-19.7-102,5.5-147.1
	c14.698-26.3,39.1-52.8,74.898-66.4C394.5,119.4,398,121.5,400.1,124.4z"/>
<path fill="#FFFFFF" stroke="#000000" stroke-width="0.5" d="M388.4,112.7c1.6,1.1,2.198,3.1,3,4.8
	c-35.802,13.5-60.2,40.1-74.9,66.4C291.3,229,302.7,276.6,311,331c9.1,59.8,45.8,125.6,69,174l-0.1,1.2
	c-4.102-0.4-8.102-1.2-11.9-2.602c-4.2,0.7-9.2-0.5-13-2.6c-1.7-0.2-3.5-0.5-5.2-0.8l0.2-1.2c-44-68-118.1-220.2-68-312
	C305.7,143.6,339,122.3,388.4,112.7z"/>
<path fill="#FFFFFF" stroke="#000000" stroke-width="0.5" d="M387.8,107.8c0.3,1.5,0.3,3.9,0.5,5C339,122.3,305.7,143.6,282,187
	c-50.1,91.8,24,244,68,312l-0.2,1.2c-10.7-1.8-21.8-5.102-31.3-10.3l0.5-0.9c-40.5-56.4-74.4-105-82.8-165.4
	C221.6,218.9,261.8,107.3,387.8,107.8z"/>
<path fill="#FFFFFF" stroke="#000000" stroke-width="0.5" d="M236.2,323.6c8.4,60.4,42.3,109,82.8,165.4l-0.5,0.9
	c-0.7-0.4-1.5-0.802-2.2-1.302c-5.398,0.5-9.1-3.898-13.3-6.5c-2.6-1.1-12.7-6.398-25-15.198c-1.6-1.2-3.3-2.302-5-3.602
	c-22-22.7-106.5-138.898-31.9-297.7c29.7-63.3,108.5-95.8,147.7-62.5c-0.5,1.8-0.6,3.4-1,4.5C261.8,107.3,221.6,218.9,236.2,323.6z"
	/>
<path fill="#FFFFFF" stroke="#000000" stroke-width="0.5" d="M263,103c48-38,98.2-32.9,128.4-2.4c-0.9,0.9-1.7,1.7-2.602,2.6
	c-39.1-33.4-117.9-0.8-147.7,62.5c-74.6,158.8,9.9,275,31.9,297.7c-14.7-11-31.2-26.302-41.5-44.302
	C169.4,326.4,180.6,181,262.8,102.8L263,103z"/>
<path fill="none" stroke="#000000" stroke-width="0.5" stroke-linecap="round" stroke-linejoin="round" d="M407.7,96.3
	c-1,4.3-3.7,6.4-5,8.7"/>
<path fill="none" stroke="#000000" stroke-width="0.5" stroke-linecap="round" stroke-linejoin="round" d="M418,98.6
	c-2.4,4.6,1.5,10.2,3.9,14.3"/>
</svg>
