<?xml version="1.0" encoding="utf-8"?>
<!-- Generator: Adobe Illustrator 15.0.0, SVG Export Plug-In . SVG Version: 6.00 Build 0)  -->
<!DOCTYPE svg PUBLIC "-//W3C//DTD SVG 1.1//EN" "http://www.w3.org/Graphics/SVG/1.1/DTD/svg11.dtd">
<svg version="1.1" id="layer_x5F_www.ABC-color.com"
	 xmlns="http://www.w3.org/2000/svg" xmlns:xlink="http://www.w3.org/1999/xlink" x="0px" y="0px" width="822px" height="567px"
	 viewBox="0 0 822 567" enable-background="new 0 0 822 567" xml:space="preserve">
<polyline fill="#FFFFFF" points="0,0 822,0 822,567 "/>
<path id="www.ABC-color.com" fill="#FFFFFF" stroke="#000000" d="M404.7,87.7c-3.7-0.7-7.602-1-11.5-1c-6.3,0-12.602,0.9-18.602,2.7
	v-0.1c0-4.3,8-9.4,16.4-9.4c8.3,0,15.1,3.5,15.1,7.7l-0.1,0.6C405.5,87.9,405.1,87.8,404.7,87.7z"/>
<path fill="#FFFFFF" stroke="#000000" d="M469.7,77.9l0.1,0.3c-1.3,0.4-2.5,1-3.8,1.5c-3.8,1.1-7.5,0.1-11.3,2.5
	c-3.8-3.3-7.602,0.1-11.4,3.3c-3.8,1.2-7.6,2.4-11.398,3.7c-3.802,1.3-7.602,2.5-11.4,3.7l-0.3,0.4c-1.5-1.1-3-2.3-4.5-2.6
	c-3.102-1.8-6.4-1.9-9.7-2.6l0.101-0.6c0-4.3-6.801-7.7-15.101-7.7s-16.399,5.2-16.399,9.4v0.1c-0.899,0.3-1.801,0.5-2.699,0.8
	c-3.4,1.1-9.4,5.9-12.602,5.8C347.5,92.6,336,87.5,325,82c-2.3-1.3-4.7-2.4-7-3.2l0.1-0.3c2.602-6.2,5.302-4.9,8.102-6
	c2.8-3.8,5.6-1.1,8.6-5.3c2.9-0.3,6-6.1,9-4.6c3.102-2.6,6.2,0.6,9.4-3.8c3.2,1.5,6.5-2.2,9.8-3c7.5-2,15.2-3.3,23.2-3.8
	c2.7-0.2,5.3-0.3,8-0.3c4.1-2.5,8.1,0.6,12,0.6c4,1.6,7.898,3.1,11.7,1.7c3.8-1.9,7.6,0.9,11.3,2.8c3.7,1.6,7.3,6,10.898,3.8
	c3.5,1.4,7,3.1,10.4,4.8C457.3,69,463.7,73.2,469.7,77.9z"/>
<path fill="#FFFFFF" stroke="#000000" d="M646.7,307.8c0,4.3,0,3.8-0.102,5.7c-0.1,1.9-0.1,3.8-0.198,5.7
	c-0.2,2.399-0.5,7.5-0.802,11.2c-0.398-3.4-0.8,9.3-1.3,11.1c-0.5,0.3-1.1,8.5-1.8,10.9c-0.7,1-1.5,6.8-2.3,10.699
	c-0.9-2.5-1.8,7.101-2.8,10.601s-2.102,7-3.302,10.399c-1.198,2.5-2.398,4-3.698,10.199c-1.302,2-2.7,7.7-4.2,10
	c-1.5,3.7-3,8.7-4.602,9.8c-1.6,1.5-3.3,8.7-5,9.5c-1.698,2.802-3.5,7.4-5.398,9.302c-1,1.698-2.102,2.898-3.102,4.398
	c-1.1,1.5-2.1,3.102-3.198,5.5c-2.2,6.602-4.5,5.8-6.802,9.5c-2.398,2.4-4.8,6.5-7.3,9.2c-2.5,5.4-5.1,7.7-7.7,8.9
	c-2.6,4.8-5.398,4-8.1,8.5c-1.4,1.398-2.8,2.8-4.2,4.1c-1.398,1.3-2.898,2.7-4.3,4c-2.9,4.7-5.9,7.6-8.9,7.8c-3-1.5-6.1,7.3-9.3,7.4
	c-3.2-0.102-6.398,6.8-9.7,7c-3.3,5.8-6.6,5.2-10,6.5c-1.698,1-3.398,2.6-5.1,3.898c-1.7,1.302-3.5,2.302-5.2,2.2
	c-3.5,2.4-7,4.602-10.6,5.602c-3.602,0.6-7.2-0.102-10.9,5.198c-3.7,0.102-7.398,3.9-11.2,4.7c-3.8-1-7.6,1.8-11.5,4.2
	c-1.898,0.7-3.898,1.3-5.8,1.9c-2,0.6-3.898,1.199-5.898,1.8c-4-1.7-8-1.8-12,3.2c-4-0.2-8.102,0.6-12.2,2.6
	c-4.102,2.1-8.2-0.8-12.4,2c-2.1,1.7-4.2,0.6-6.3,0.8c-2.1,1.3-4.2,0.5-6.3,0.7c-4.2,1.1-8.5-2.2-12.8,0.9
	c-4.301,0.6-8.602-1.4-12.9,0.3c-2.7,1.7-5.5,0.2-8.2-0.101c-2.699,2.899-5.398,2.801-8.1-0.399c-2.7,0.8-5.4-0.9-8.101-0.601
	c-2.699-0.199-5.301-0.5-8-0.801c-3.5-0.398-7.101-0.898-10.5-1.5c-3.5,1.602-7-4.6-10.399-1.898c-3.4-1.801-6.9-1.2-10.3-2.301
	c-3.4-1.899-6.801-2.899-10.102-2.601c-3.3-0.1-6.6-2.7-9.899-3c-3.3,0.7-6.5-3.3-9.8-3.399c-1.8-0.699-3.6-1.399-5.4-2.101
	c-1.8-0.701-3.6-1.399-5.3-2.2c-3.5-1.3-7-0.898-10.5-4.699c-3.4,1.601-6.9-4.101-10.2-5.101c-3.4,0.8-6.7-2.7-10-5.5
	c-3.3-2.5-6.5-3.2-9.7-5.899c-1.6-2.301-3.2-0.801-4.7-3.101c-1.6-1-3.1-2.1-4.6-3.2c-3.1-6-6.1-3.2-9.1-6.7c-3-0.8-5.9-2.698-8.7-7
	c-2.9,1.602-5.7-5.698-8.4-7.398c-2.7-4.102-5.4-6-8.1-7.7c-2.6-3.3-5.2-5.3-7.7-8.1c-2.6-2.9-5.2-5.9-7.7-8.9
	c-2.5-5.3-4.9-3.8-7.3-9.2c-2.4-4.7-4.6-4-6.8-9.5c-2.2-7.7-4.3-8.1-6.4-9.8c-2-3.3-4-6.7-5.9-10.2c-3.8-6.898-7.2-13.898-10.3-21.1
	c-1.5-3.602-3-7.3-4.4-11.001c-1.4-5.399-2.6-8.799-3.8-11.199c-1.2-6.9-2.3-8-3.3-11.4c-1-0.1-1.9-12.199-2.7-11.6
	c-0.8-5.301-1.5-6.2-2.1-11.801c-0.6-4-1.1-8-1.6-12c-0.8-8.1-1.3-16.299-1.3-24.5c0-3.5,0.1-6.899,0.2-10.299
	c0.2,0.299,0.4-7.701,0.7-10.301c0.3-4.201,0.7-8.601,1.1-10.101c0.4-2.3,1-9.4,1.5-10c0.6,0.2,1.2-7.7,1.9-9.9
	c0.7-3,1.5-6.5,2.3-9.7c0.8-3.2,1.8-6.4,2.7-9.6c1.1-3.7,2.4-7.4,3.7-11c1.3-3,2.7-3.2,4.2-10.8c1.5-5.1,3-5.3,4.7-10.5
	c1.6-5.4,3.4-4.4,5.2-10.3c1.8-1.1,3.7-5.8,5.6-10c2-4.5,4-6.5,6.1-9.7c4.2-6.4,8.7-12.5,13.5-18.5c2.4-3,4.9-6.6,7.4-8.8
	c2.5-0.8,5.1-8.2,7.8-8.4c2.7-2.4,5.4-5.4,8.2-8.1c2.8-4.8,5.6-6.3,8.6-7.7c2.9-2.5,5.9-5,8.9-7.4c5.2-4.1,10.6-8.1,16.2-11.8
	C260,91.9,284.3,73.1,309.8,77c2.801,0.4,5.602,1.1,8.4,2.1c2.3,0.8,4.7,1.9,7,3.2c11,5.5,22.5,10.6,34.3,13.9
	c3.2,0.1,9.2-4.6,12.601-5.8c0.899-0.3,1.801-0.6,2.699-0.8c6-1.7,12.2-2.7,18.602-2.7c4,0,7.8,0.3,11.5,1
	c0.398,0.1,0.8,0.2,1.199,0.3c3.301,0.8,6.5,0.8,9.699,2.6c1.5,0.3,3.102,1.5,4.5,2.6l0.301-0.4c3.801-1.2,7.601-2.5,11.399-3.7
	c3.8-1.3,7.601-2.5,11.4-3.7c3.8-3.2,7.6-6.6,11.398-3.3c3.801-2.4,7.602-1.4,11.301-2.5c1.301-0.6,2.5-1.1,3.801-1.5
	c2.5-0.8,5-1.1,7.398,0.2c3.7-1.3,7.4-0.8,11,0.2c3.602,0.3,7.3,1,10.8,2c2.4,0.7,4.802,1.6,7.102,2.6s4.7,0,7,3.7
	c2.3-1.2,4.6,1.6,6.898,5c1.802-0.6,3.602,3.2,5.4,3.8c1.8,3,3.6,1.5,5.4,4c1.8,3.6,3.5-0.8,5.3,4.2c10.5,8.5,20.5,17.7,30.8,25.4
	c5,4.5,9.7,9.2,14.3,14.1c14.8,15.9,27.5,33.6,37.7,52.8c1.7,3.2,3.3,6.4,4.9,9.7c1.6,2.1,3,13.4,4.398,9.9c1.4,2.4,2.7,3.8,4,10.1
	c1.301-1.8,2.4,5.8,3.5,10.4c1.102,2.3,2.102,7.8,3.102,10.5c0.5,1,1,6.4,1.5,5.9c0.5,2,0.898,3.9,1.3,5.9c0.8,4,1.6,6.9,2.2,12
	c0.6,6.9,1.199,8.5,1.6,12.2c0.4,1.9,0.8,6.1,1,12.4C646.6,296.8,646.7,298.5,646.7,307.8z"/>
<g id="XMLID_2_">
	<g>
		<path fill="none" stroke="#000000" stroke-width="0.5" d="M420.1,93.3c1.9,1.4,3.7,2.8,5.5,2c3.2-1.1,6.302,3.3,9.2,6.1
			c2.9,3.2,5.7,6.8,8.3,7.4c2.602,0.9,5,5.5,7.302,8.4c2.198,2.9,4.3,6,6.1,9.2"/>
		<path fill="none" stroke="#000000" stroke-width="0.5" d="M330.3,121.7c1.9-4.1,4.102-5.1,6.4-8.1c2.3-0.7,4.8-5.2,7.5-7.4
			c2.7-2.6,5.5-6,8.5-6.5c3,0,6.1-1.9,9.3-5.4"/>
		<path fill="none" stroke="#000000" stroke-width="0.5" d="M225.9,484.8c0-1.7-1.1-3.1-2.5-3.1"/>
		<path fill="none" stroke="#000000" stroke-width="0.5" d="M638.5,277.9c0-2.4,0-4.4,0-4.4"/>
		<path fill="none" stroke="#000000" stroke-width="0.5" d="M629.1,252.7c0-4.5-1.398-8.2-3.1-8.2"/>
		<path fill="none" stroke="#000000" stroke-width="0.5" d="M618.4,227.6c0-1.4-0.802-2.5-1.9-2.5"/>
		<path fill="none" stroke="#000000" stroke-width="0.5" d="M617.7,201.8c0-2.8-2.3-5-5-5"/>
		<path fill="none" stroke="#000000" stroke-width="0.5" d="M593.8,177.2c0-1.4-1.398-2.5-3.1-2.5"/>
		<path fill="none" stroke="#000000" stroke-width="0.5" d="M393.8,95.5c0-2.1-2.8-3.8-6.3-3.8"/>
		<path fill="none" stroke="#000000" stroke-width="0.5" d="M378.1,97.4c0-2.4-1.698-4.4-3.8-4.4"/>
		<path fill="none" stroke="#000000" stroke-width="0.5" d="M426.5,104.9c0-1.7-1.4-3.1-3.1-3.1"/>
		<path fill="none" stroke="#000000" stroke-width="0.5" d="M437.2,113.1c0-1-1.102-1.9-2.5-1.9"/>
		<path fill="none" stroke="#000000" stroke-width="0.5" d="M445.4,123.8c0-2.1-1.4-3.8-3.2-3.8"/>
		<path fill="none" stroke="#000000" stroke-width="0.5" d="M341,121.9c0-1.4,0.3-2.5,0.6-2.5"/>
		<path fill="none" stroke="#000000" stroke-width="0.5" d="M351.1,109.3c0-1.4,2-2.5,4.4-2.5"/>
		<path fill="none" stroke="#000000" stroke-width="0.5" d="M365.5,101.8c0-0.3,0.3-0.6,0.6-0.6"/>
		<path fill="none" stroke="#000000" stroke-width="0.5" d="M342.9,74.7c0-0.7,0.6-1.3,1.3-1.3"/>
		<path fill="none" stroke="#000000" stroke-width="0.5" d="M363.6,66.5c0-2.1,3.102-3.8,6.9-3.8"/>
		<path fill="none" stroke="#000000" stroke-width="0.5" d="M389.4,60.9c0,0,1.1,0,2.5,0"/>
		<path fill="none" stroke="#000000" stroke-width="0.5" d="M414,62.8c0,0,0.8,0,1.9,0"/>
		<path fill="none" stroke="#000000" stroke-width="0.5" d="M436,69.1c0,1.4,1.1,2.5,2.5,2.5"/>
		<path fill="none" stroke="#000000" stroke-width="0.5" d="M331.6,93.6c0-1.7-0.898-3.1-1.898-3.1"/>
		<path fill="none" stroke="#000000" stroke-width="0.5" d="M319,82.3c0-1.4-2.5-2.5-5.7-2.5"/>
		<path fill="none" stroke="#000000" stroke-width="0.5" d="M307,81.6c0-0.7-1.4-1.3-3.1-1.3"/>
		<path fill="none" stroke="#000000" stroke-width="0.5" d="M295.7,84.8c0,0.4-2.8,0.6-6.3,0.6"/>
		<path fill="none" stroke="#000000" stroke-width="0.5" d="M280,90.5c0,1-1.1,1.9-2.5,1.9"/>
		<path fill="none" stroke="#000000" stroke-width="0.5" d="M263.6,99.9c0,1.7-1.4,3.1-3.1,3.1"/>
		<path fill="none" stroke="#000000" stroke-width="0.5" d="M248.6,111.2c0,2.4-2.5,4.4-5.7,4.4"/>
		<path fill="none" stroke="#000000" stroke-width="0.5" d="M225.9,128.2c0-1.7,0.6-3.1,1.3-3.1"/>
		<path fill="none" stroke="#000000" stroke-width="0.5" d="M214,143.9c0-3.1,0.6-5.7,1.3-5.7"/>
		<path fill="none" stroke="#000000" stroke-width="0.5" d="M198.9,162.8c0-2.8,0.9-5,1.9-5"/>
		<path fill="none" stroke="#000000" stroke-width="0.5" d="M180.6,176c0-3.5,1.7-6.3,3.8-6.3"/>
		<path fill="none" stroke="#000000" stroke-width="0.5" d="M200.8,194.9c0-4.2,0.3-7.5,0.6-7.5"/>
		<path fill="none" stroke="#000000" stroke-width="0.5" d="M219,172.2c0-2.4,0.3-4.4,0.6-4.4"/>
		<path fill="none" stroke="#000000" stroke-width="0.5" d="M228.4,156.5c0-1.4,1.1-2.5,2.5-2.5"/>
		<path fill="none" stroke="#000000" stroke-width="0.5" d="M241.6,145.8c0-1.4,1.4-2.5,3.1-2.5"/>
		<path fill="none" stroke="#000000" stroke-width="0.5" d="M259.3,132.6c0-3.1,1.4-5.7,3.1-5.7"/>
		<path fill="none" stroke="#000000" stroke-width="0.5" d="M190.1,254.6c0-3.8,0.6-6.9,1.3-6.9"/>
		<path fill="none" stroke="#000000" stroke-width="0.5" d="M181.3,230.7c0-2.8,1.1-5,2.5-5"/>
		<path fill="none" stroke="#000000" stroke-width="0.5" d="M167.4,221.3c0-4.9,2-8.8,4.4-8.8"/>
		<path fill="none" stroke="#000000" stroke-width="0.5" d="M165.5,194.9c0-1,0.8-1.9,1.9-1.9"/>
		<path fill="none" stroke="#000000" stroke-width="0.5" d="M147.9,248.3c0-6.3,1.4-11.3,3.1-11.3"/>
		<path fill="none" stroke="#000000" stroke-width="0.5" d="M156.1,251.5c0-4.9,1.1-8.8,2.5-8.8"/>
		<path fill="none" stroke="#000000" stroke-width="0.5" d="M162.4,303c0-5.9,0-10.7,0-10.7"/>
		<path fill="none" stroke="#000000" stroke-width="0.5" d="M147.3,299.9c0-5.602,1.1-10.102,2.5-10.102"/>
		<path fill="none" stroke="#000000" stroke-width="0.5" d="M139.1,277.2c0-3.1,0.6-5.7,1.3-5.7"/>
		<path fill="none" stroke="#000000" stroke-width="0.5" d="M192.6,326.3c0-4.2,0-7.5,0-7.5"/>
		<path fill="none" stroke="#000000" stroke-width="0.5" d="M175.6,384.8c0-5.6-1.4-10.1-3.1-10.1"/>
		<path fill="none" stroke="#000000" stroke-width="0.5" d="M158,377.3c0-5.2-2-9.399-4.4-9.399"/>
		<path fill="none" stroke="#000000" stroke-width="0.5" d="M146.7,338.9c0,3.1-0.6,5.699-1.3,5.699"/>
		<path fill="none" stroke="#000000" stroke-width="0.5" d="M139.8,321.9c0,3.8-0.8,6.898-1.9,6.898"/>
		<path fill="none" stroke="#000000" stroke-width="0.5" d="M182.5,352.7c0,4.5,0.6,8.2,1.3,8.2"/>
		<path fill="none" stroke="#000000" stroke-width="0.5" d="M183.8,423.8c0-3.8-2.3-6.898-5-6.898"/>
		<path fill="none" stroke="#000000" stroke-width="0.5" d="M168.7,411.8c0-5.6-1.4-10.1-3.1-10.1"/>
		<path fill="none" stroke="#000000" stroke-width="0.5" d="M181.9,402.4c0,3.1,0.6,5.698,1.3,5.698"/>
		<path fill="none" stroke="#000000" stroke-width="0.5" d="M201.4,442.7c0,3.8,1.1,6.898,2.5,6.898"/>
		<path fill="none" stroke="#000000" stroke-width="0.5" d="M186.3,445.2c0,4.2,1.7,7.5,3.8,7.5"/>
		<path fill="none" stroke="#000000" stroke-width="0.5" d="M246,499.9c0,1.698,2,3.1,4.4,3.1"/>
		<path fill="none" stroke="#000000" stroke-width="0.5" d="M268.7,515.6c0,3.102,2.5,5.7,5.7,5.7"/>
		<path fill="none" stroke="#000000" stroke-width="0.5" d="M179.4,281.6c0,3.5,0.3,6.3,0.6,6.3"/>
		<path fill="none" stroke="#000000" stroke-width="0.5" d="M169.3,331.3c0,2.101,0.9,3.8,1.9,3.8"/>
		<path fill="none" stroke="#000000" stroke-width="0.5" d="M207,223.8c0,1.7-0.8,3.1-1.9,3.1"/>
		<path fill="none" stroke="#000000" stroke-width="0.5" d="M357.4,543.3c0-1.7-4.802-3.1-10.7-3.1"/>
		<path fill="none" stroke="#000000" stroke-width="0.5" d="M381.3,547.7c0,0-4.2,0-9.398,0"/>
		<path fill="none" stroke="#000000" stroke-width="0.5" d="M411.5,544.5c0,1.7-3.7,3.1-8.2,3.1"/>
		<path fill="none" stroke="#000000" stroke-width="0.5" d="M438.5,535.1c0,1-3.9,1.9-8.8,1.9"/>
		<path fill="none" stroke="#000000" stroke-width="0.5" d="M470.6,523.2c0,1.398-3.1,2.5-6.898,2.5"/>
		<path fill="none" stroke="#000000" stroke-width="0.5" d="M495.7,491.7c0,3.8-2.5,6.898-5.7,6.898"/>
		<path fill="none" stroke="#000000" stroke-width="0.5" d="M523.4,466.5c0,5.2-2.802,9.4-6.302,9.4"/>
		<path fill="none" stroke="#000000" stroke-width="0.5" d="M546.7,458.4c0,4.198-2.3,7.5-5,7.5"/>
		<path fill="none" stroke="#000000" stroke-width="0.5" d="M531,482.9c0,4.198-2.8,7.5-6.3,7.5"/>
		<path fill="none" stroke="#000000" stroke-width="0.5" d="M508.3,513.1c0,2.102-5.898,3.802-13.2,3.802"/>
		<path fill="none" stroke="#000000" stroke-width="0.5" d="M580.6,425c0,7-1.1,12.6-2.5,12.6"/>
		<path fill="none" stroke="#000000" stroke-width="0.5" d="M568.1,467.8c0,3.5-4.198,6.3-9.398,6.3"/>
		<path fill="none" stroke="#000000" stroke-width="0.5" d="M601.4,400.5c0,5.2-2,9.4-4.4,9.4"/>
		<path fill="none" stroke="#000000" stroke-width="0.5" d="M614,386c0,3.8-1.7,6.9-3.8,6.9"/>
		<path fill="none" stroke="#000000" stroke-width="0.5" d="M622.8,344.5c0,6.3-1.398,11.3-3.1,11.3"/>
		<path fill="none" stroke="#000000" stroke-width="0.5" d="M622.8,308.7c0,5.899-2,10.7-4.398,10.7"/>
		<path fill="none" stroke="#000000" stroke-width="0.5" d="M628.4,303c0,3.8-0.602,6.9-1.302,6.9"/>
		<path fill="none" stroke="#000000" stroke-width="0.5" d="M611.5,208.1c0,1.4-0.3,2.5-0.6,2.5"/>
		<path fill="none" stroke="#000000" stroke-width="0.5" d="M614,258.4c0,4.9,0,8.8,0,8.8"/>
		<path fill="none" stroke="#000000" stroke-width="0.5" d="M622.1,286c0,2.4-0.8,4.4-1.898,4.4"/>
		<path fill="none" stroke="#000000" stroke-width="0.5" d="M609.6,371.6c0,2.102-0.898,3.801-1.898,3.801"/>
		<path fill="none" stroke="#000000" stroke-width="0.5" d="M559.9,439.5c0,0-1.4,0-3.102,0"/>
		<path fill="none" stroke="#000000" stroke-width="0.5" d="M600.8,425c0,3.8-1.7,6.9-3.8,6.9"/>
		<path fill="none" stroke="#000000" stroke-width="0.5" d="M581.9,455.9c0,1-1.102,1.898-2.5,1.898"/>
		<path fill="none" stroke="#000000" stroke-width="0.5" d="M310.8,537c0,0-2.5,0-5.7,0"/>
		<path fill="none" stroke="#000000" stroke-width="0.5" d="M203.9,469.1c0,4.9,2.5,8.802,5.7,8.802"/>
		<path fill="none" stroke="#000000" stroke-width="0.5" d="M325.3,535.1c0,2.102,2.5,3.802,5.7,3.802"/>
		<path fill="none" stroke="#000000" stroke-width="0.5" d="M284.4,523.2c0,2.8,3.1,5,6.9,5"/>
		<path fill="none" stroke="#000000" stroke-width="0.5" d="M599.5,192.3c0-5.2-2.5-9.4-5.7-9.4"/>
		<path fill="none" stroke="#000000" stroke-width="0.5" d="M568.1,152.7c0-1.7-2-3.2-4.398-3.2"/>
		<path fill="none" stroke="#000000" stroke-width="0.5" d="M533.5,113.7c0-2.4-2.8-4.4-6.3-4.4"/>
		<path fill="none" stroke="#000000" stroke-width="0.5" d="M507,93c0-1.7-3.1-3.2-6.9-3.2"/>
		<path fill="none" stroke="#000000" stroke-width="0.5" d="M481.3,88.6c0-0.7-1.7-1.3-3.8-1.3"/>
		<path fill="none" stroke="#000000" stroke-width="0.5" d="M459.3,93c0,0.3-2.5,0.6-5.7,0.6"/>
		<path fill="none" stroke="#000000" stroke-width="0.5" d="M514,108.7c0-2.8-3.4-5-7.5-5"/>
		<path fill="none" stroke="#000000" stroke-width="0.5" d="M546.7,132c0-3.8-3.4-6.9-7.5-6.9"/>
		<path fill="none" stroke="#000000" stroke-width="0.5" d="M580,169.1c0-4.5-4.2-8.2-9.4-8.2"/>
		<path fill="none" stroke="#000000" stroke-width="0.5" d="M558,138.3c0-3.1-3.9-5.7-8.8-5.7"/>
		<path fill="none" stroke="#000000" stroke-width="0.5" d="M610.8,238.3c0-3.8-1.398-6.9-3.1-6.9"/>
		<path fill="none" stroke="#000000" stroke-width="0.5" d="M628.4,335.1c0-4.199,0.6-7.6,1.3-7.6"/>
		<path fill="none" stroke="#000000" stroke-width="0.5" d="M604.5,357.8c0-4.2,0.3-7.5,0.6-7.5"/>
		<path fill="none" stroke="#000000" stroke-width="0.5" d="M590.7,398.6c0,3.102-1.4,5.7-3.2,5.7"/>
		<path fill="none" stroke="#000000" stroke-width="0.5" d="M461.8,513.7c0,4.898-3.898,8.8-8.8,8.8"/>
		<path fill="none" stroke="#000000" stroke-width="0.5" d="M427.8,530.7c0,1.7-4.2,3.1-9.398,3.1"/>
		<path fill="none" stroke="#000000" stroke-width="0.5" d="M393.2,540.8c0,0.3-2.8,0.602-6.3,0.602"/>
		<path fill="none" stroke="#000000" stroke-width="0.5" d="M237.9,486c0,2.1,0.8,3.8,1.9,3.8"/>
		<path fill="none" stroke="#000000" stroke-width="0.5" d="M260.5,506.8c0,0.7,2,1.3,4.4,1.3"/>
		<path fill="none" stroke="#000000" stroke-width="0.5" d="M313.3,525.7c0,0-3.398,0-7.5,0"/>
		<path fill="none" stroke="#000000" stroke-width="0.5" d="M548.6,484.8c0,5.602-3.698,10.102-8.198,10.102"/>
		<path fill="none" stroke="#000000" stroke-width="0.5" d="M510.8,495.5c0,3.8-3.7,6.9-8.2,6.9"/>
		<path fill="none" stroke="#000000" stroke-width="0.5" d="M381.3,108.7c0,0,3.102,0,6.9,0"/>
		<path fill="none" stroke="#000000" stroke-width="0.5" d="M415.2,106.8c0-1.7-3.102-3.1-6.9-3.1"/>
		<path fill="none" stroke="#000000" stroke-width="0.5" d="M410.2,98c0-0.4-2.3-0.6-5-0.6"/>
		<path fill="none" stroke="#000000" stroke-width="0.5" d="M480.6,113.1c0-1.4-2.5-2.5-5.698-2.5"/>
		<path fill="none" stroke="#000000" stroke-width="0.5" d="M565.5,203.7c0-1-1.7-1.9-3.8-1.9"/>
		<path fill="none" stroke="#000000" stroke-width="0.5" d="M586.3,358.4c0,4.898-1.1,8.8-2.5,8.8"/>
		<path fill="none" stroke="#000000" stroke-width="0.5" d="M588.2,210.6c0-2.8-1.4-5-3.102-5"/>
		<path fill="none" stroke="#000000" stroke-width="0.5" d="M599.5,300.5c0-4.5-1.4-8.2-3.1-8.2"/>
		<path fill="none" stroke="#000000" stroke-width="0.5" d="M589.4,240.1c0-0.7-1.7-1.3-3.802-1.3"/>
		<path fill="none" stroke="#000000" stroke-width="0.5" d="M594.5,318.1c0,5.9-0.6,10.7-1.3,10.7"/>
		<path fill="none" stroke="#000000" stroke-width="0.5" d="M566.2,406.2c0,3.8-2,6.898-4.4,6.898"/>
		<path fill="none" stroke="#000000" stroke-width="0.5" d="M552.3,180.4c0-3.8-0.3-6.9-0.6-6.9"/>
		<path fill="none" stroke="#000000" stroke-width="0.5" d="M541,157.1c0-1.7-1.4-3.1-3.1-3.1"/>
	</g>
</g>
</svg>
