<?xml version="1.0" encoding="utf-8"?>
<!-- Generator: Adobe Illustrator 15.0.0, SVG Export Plug-In . SVG Version: 6.00 Build 0)  -->
<!DOCTYPE svg PUBLIC "-//W3C//DTD SVG 1.1//EN" "http://www.w3.org/Graphics/SVG/1.1/DTD/svg11.dtd">
<svg version="1.1" id="layer_x5F_www.ABC-color.com"
	 xmlns="http://www.w3.org/2000/svg" xmlns:xlink="http://www.w3.org/1999/xlink" x="0px" y="0px" width="822px" height="567px"
	 viewBox="0 0 822 567" enable-background="new 0 0 822 567" xml:space="preserve">
<polyline fill="#FFFFFF" points="0,0 822,0 822,567 "/>
<path id="www.ABC-color.com" fill="#FFFFFF" stroke="#000000" stroke-width="0.5" d="M715.9,177.9c39.8,146.9-40.4,201.5-190.5,250
	C444.3,454.1,364.7,457.8,303.9,440.1c-19.8-14.8-56.9-42-54.3-54.6c0-0.1,0-0.1,0-0.2c2.6-10.5,20.5-18.6,27.4-21.399
	c-9.4-0.601-14.9-4.301-21.6-13.101c-12.7-16.7,1.1-30,12.1-42.7c-24.1,18.4-35.3,20.4-48.5,7.301c-1.2-1.199-2.3-2.399-3.5-3.801
	c-2.8-3.3-4.7-6.898-5.9-10.8c-0.2-0.8-0.4-1.6-0.6-2.399c-0.2-3.301-2.2-7.301-0.8-10.301c0-0.5,0.1-0.898,0.1-1.398
	c3.3-43.4,65.3-109.5,69.3-114.3l0,0c37.9-31.1,86.2-57.8,140.5-75.4C568.3,48.4,676.9,33.9,715.9,177.9z"/>
<path fill="#FFFFFF" stroke="#000000" stroke-width="0.5" d="M303.9,440.1c-20.8-6-39.4-14.6-55.101-25.6c-0.5-0.4-1.1-0.8-1.6-1.2
	c-8.5-4.398-12.5-9.398-15.4-17c-0.3-0.3-0.6-0.6-0.9-0.899l0.6-0.601c-0.6-6.2-0.1-15.2,0.1-15.8c0.8-2.9,6.5-8.2,7.5-8.2l0.4-0.3
	c4.2,4.3,8.5,10.1,9.7,14.8l0.5,0.101C247.1,398.1,284.1,425.3,303.9,440.1z"/>
<path fill="#FFFFFF" stroke="#000000" stroke-width="0.5" d="M276.7,173.2c0.3-0.3,0.7-0.6,1-0.9c-3.9,4.8-66,70.9-69.3,114.3
	c0,0.5-0.1,0.9-0.1,1.4c-1.4,3,0.6,7,0.8,10.3c0.2,0.8,0.4,1.601,0.6,2.4c1.2,4,3.1,7.6,5.9,10.8c1.2,1.4,2.4,2.7,3.5,3.8l-0.2,0.2
	c0,4.5,0,8.3-0.5,12h-0.1c-11.4,0-23.4-23.6-23.5-24.3l-0.2,0.1c-1.7-6.8-0.6-12.3,2.2-19.1c0.2-0.6,0.4-1.2,0.5-1.8
	C208,245,236.3,206.7,276.7,173.2L276.7,173.2z"/>
<path fill="#FFFFFF" stroke="#000000" stroke-width="0.5" d="M255.6,350.8c6.6,8.8,12.1,12.5,21.6,13.101
	c-6.9,2.801-24.8,10.899-27.4,21.399c0,0.101,0,0.2,0,0.2l-0.5-0.1c-1.2-4.7-5.5-10.5-9.7-14.801c-1.5-1.5-3-2.899-4.3-3.899
	c-7.6-6-19.6-4.3-28.3-0.101c-0.8,0.399-1.6,0.801-2.4,1.301c-9.5,5.699-18.5,11.8-30.2,11.8c-3.2,0-6.3-0.101-9.4-0.3
	c-2.1-0.2-4.2-0.4-6.3-0.801c-6-1.101-11.7-3.199-17.2-7c-7-5-16.9-11.399-20.6-19.5c-3.6-7.801-9.2-22.399-3.2-31.301
	c5.6-8.398,22.3-9.5,30.9-6c5.2,2.102,6.7,3.301,10,7.7c3.6,4.8,5.4,6.899,6.3,13.2c1.3,9.699,0,20.398,0,30.199v0.399
	c9.4,0.601,19.1-1.1,27.1-4.6c3.7-1.601,6.9-4.2,9.9-7.101c4.3-4.301,7.8-9.399,11-13.801c3.4-4.6,4.9-8.8,5.6-13.3
	c0.5-3.601,0.5-7.5,0.5-12l0.2-0.2c13.2,13.102,24.4,11.102,48.5-7.3C256.6,320.8,242.9,334.1,255.6,350.8z M157.4,364
	c0-12.2,3.1-20.8-3.8-32.7c-11.3-10.7-20.6-9-25.3,0.3c-4.1,8.2,3.4,19.801,9.6,24.9c5.4,4.5,12.1,7.3,19.3,8.8L157.4,364z"/>
<path fill="#FFFFFF" stroke="#000000" stroke-width="0.5" d="M239.5,370.6l-0.4,0.301c-1,0-6.8,5.301-7.5,8.199
	c-0.2,0.602-0.7,9.602-0.1,15.801l-0.6,0.601c-0.2-0.2-0.4-0.399-0.7-0.601c-1.1-0.899-2.4-1.801-3.8-2.5
	c-0.5-0.301-1.1-0.699-1.6-1c-2.8-1.801-5.5-3.601-7-6.899c-0.4-0.5-0.8-1.101-1.2-1.601c-3.6-5.101-6.8-10.5-9.6-16.199
	c8.7-4.301,20.7-5.9,28.3,0.1C236.5,367.8,238,369.1,239.5,370.6z"/>
<path fill="#FFFFFF" stroke="#000000" stroke-width="0.5" d="M218.4,327.6L218.4,327.6c-0.6,4.5-2.1,8.602-5.5,13.301
	c-3.2,4.301-6.8,9.5-11,13.801l-0.5-0.9c-0.4-1.1-0.7-2.3-1.1-3.3c-3.5-8.2-5.7-16.601-6.7-25.3c-0.1-0.602-0.1-1.2-0.2-1.9
	c-1-4.898,1.7-10,2.2-15.1c0.1-0.602,0.1-1.301,0-1.9c-0.4-1-0.6-2-0.9-3l0.2-0.1C195,304,206.9,327.6,218.4,327.6z"/>
<path fill="#FFFFFF" stroke="#000000" stroke-width="0.5" d="M165,379.4l-0.1,1c0,9.6-1.3,15.1-8.8,24.5c-8,10,3-19.5,2.5-25.801
	l0.1-0.5C160.8,379,162.9,379.3,165,379.4z"/>
<path fill="none" stroke="#1F1E21" stroke-width="0.5" stroke-linecap="round" stroke-linejoin="round" d="M267.7,308.1
	c11-8.699,28.3-23.398,45.7-38.398"/>
<path fill="none" stroke="#1F1E21" stroke-width="0.5" stroke-linecap="round" stroke-linejoin="round" d="M277.1,363.9
	c15.1,0.1,42.9-5.801,94.1-11.2"/>
</svg>
