<?xml version="1.0" encoding="utf-8"?>
<!-- Generator: Adobe Illustrator 15.0.0, SVG Export Plug-In . SVG Version: 6.00 Build 0)  -->
<!DOCTYPE svg PUBLIC "-//W3C//DTD SVG 1.1//EN" "http://www.w3.org/Graphics/SVG/1.1/DTD/svg11.dtd">
<svg version="1.1" id="layer_x5F_www.ABC-color.com"
	 xmlns="http://www.w3.org/2000/svg" xmlns:xlink="http://www.w3.org/1999/xlink" x="0px" y="0px" width="822px" height="567px"
	 viewBox="0 0 822 567" enable-background="new 0 0 822 567" xml:space="preserve">
<path fill="#FFFFFF" stroke="#000000" d="M651.9,96c0.398,5.5,0,11.5-1.9,17.5c0,0,5.5,19.4-18.2,21.5c-13.3-6.2-29.5-6.9-32.7-7
	l-0.6-1c11.4-6.4,23.3-20.3,23-51l0,0c-8.5,7.5-15-3.5-15-3.5c-7.4,5.3-14.4-4.2-16.7-7.7c0-0.1-0.1-0.1-0.1-0.2
	c-0.602,0.5-1.3,1.2-2.102,1.9c-9,8-18.5-3.5-18.5-3.5c-7.898,3.5-13.5,2.4-17.3-0.2c-6-4.1-7.8-11.8-7.8-11.8s7.5-21,24-12.5
	c0,0,17.5-7.5,19.5,1c0,0,24-5,29,11c0,0,18.5-9,24,14.5C640.5,65,650.6,78.5,651.9,96z"/>
<path fill="#FFFFFF" stroke="#000000" d="M580.2,307.6c16.398-20,20.3-51.1,20.3-51.1l-0.1-0.9c4.8-0.7,7.6-1.1,7.6-1.1
	c38-25.5,42-94,42-94c0-13-8.3-20.9-18.2-25.5c23.7-2.1,18.2-21.5,18.2-21.5c1.9-6,2.4-12,1.9-17.5c4.898-0.1,48.5-0.3,54.6,11.5
	C731.2,156,617,306,617,306S598.8,306.5,580.2,307.6z"/>
<path fill="#FFFFFF" stroke="#000000" d="M611,327l14.7,40.6l6.7,18.5l14.1,38.9c33.5-7,59-52,59-52c5,0.7,17.5,10,17.5,10
	c-47,84.5-131.5,85.5-131.5,85.5l-1.5,0.4c-1.3-5.602-3-12.2-5-19.4c20.8-0.3,39.5-18.5,39.5-18.5l-10.3-32.2l-6.102-19.1L592,329.3
	c7-0.8,13.6-1.8,18.7-3.1L611,327z"/>
<path fill="#FFFFFF" stroke="#000000" d="M638.5,356.5c5,0.7,11,14,11,14c-3,0-2.1,4.3-16,15.2l-1.1,0.399l-6.7-18.5l0.3-0.101
	C634,360.5,637.3,357.6,638.5,356.5z"/>
<path fill="#FFFFFF" stroke="#000000" d="M621.5,76c0.3,30.8-11.6,44.6-23,51c-9.5,5.4-18.7,5.5-20,6c-15.2,5-29.5-6-29.5-6
	c-25.6-20.6-12.7-45-3.5-57.1c2.9-3.8,5.4-6.4,6.2-7.1c3.8,2.7,9.398,3.8,17.3,0.2c0,0,9.5,11.5,18.5,3.5c0.9-0.8,1.6-1.4,2.1-1.9
	c0,0.1,0.102,0.1,0.102,0.2c2.3,3.6,9.3,13.1,16.7,7.7C606.5,72.5,613,83.5,621.5,76L621.5,76z"/>
<path fill="#FFFFFF" stroke="#000000" d="M580.2,307.6c18.5-1.1,36.8-1.6,36.8-1.6s12,6.5,3,16c-1.6,1.7-4.9,3-9.2,4.2
	c-5.1,1.3-11.7,2.3-18.7,3.1c-8.8,0.9-18.1,1.5-26.1,1.8c-9.5,0.4-17,0.4-18.7,0.4c-2.3-6.8-4.398-12.9-6.1-17.9l0.3-0.1
	C541.8,310.7,561.1,308.8,580.2,307.6z"/>
<path fill="#FFFFFF" stroke="#000000" d="M614.3,398.8l10.3,32.2c0,0-18.698,18.2-39.5,18.5c-2.5-9.1-5.5-19.2-8.8-29.7
	C596.4,411.5,606.1,406.6,614.3,398.8z"/>
<path fill="#FFFFFF" stroke="#000000" d="M592.1,329.3l16.102,50.4c-4.8,2.5-15.8,7.8-20.7,8.8L566,331.1
	C574,330.8,583.3,330.2,592.1,329.3z"/>
<path fill="#FFFFFF" stroke="#000000" d="M614.3,398.8c-8.1,7.8-17.898,12.7-38,21c-9.3-30.2-20.6-64-28.8-88.3
	c1.7,0,9.1,0,18.7-0.4l21.5,57.4c4.898-1,15.898-6.3,20.7-8.8L614.3,398.8z"/>
<path fill="#FFFFFF" stroke="#000000" d="M545.5,69.9c-9.2,12-22.1,36.5,3.5,57.1c0,0-19-4.8-42.2,10.9l-0.3-1.9
	c0,0,4.7-54.9,16.5-66.5C526.9,65.7,540.6,67.6,545.5,69.9z"/>
<path fill="#FFFFFF" stroke="#000000" d="M580.2,307.6c-19.102,1.2-38.5,3.102-38.7,5.9l-0.3,0.1c-3.3-9.398-5.3-15.1-5.3-15.1
	c21-8.5,16-31.8,14.8-36.6c1.6-0.2,3.2-0.4,4.8-0.5c17.9-2,35.2-4.4,44.8-5.8l0.102,0.9C600.5,256.5,596.6,287.6,580.2,307.6z"/>
<path fill="#FFFFFF" stroke="#000000" d="M506.8,137.9C530,122.2,549,127,549,127s14.3,11,29.5,6c1.4-0.5,10.5-0.6,20-6l0.6,1
	c3.2,0.1,19.4,0.7,32.7,7c9.9,4.7,18.2,12.5,18.2,25.5c0,0-4,68.5-42,94c0,0-2.8,0.4-7.6,1.1c-9.602,1.4-26.9,3.7-44.802,5.8
	c-1.6,0.2-3.198,0.4-4.8,0.5c-6.2,0.7-12.3,1.3-18.1,1.8l-0.102-1.2c-1-0.4-1.8-1.2-2.6-2.2c-4.6-6.6-3.4-23.8-3.4-23.8
	s-0.1-0.1-0.3-0.3l0.102-1.1c7.5,0.4,16,0.6,24.3,0.4v-1c2.1-12.4-72.5-21.9-93.9-24.4C472.1,170.1,490.5,149,506.8,137.9z"/>
<path fill="#FFFFFF" stroke="#000000" d="M494.5,241.9c4-1.5,12.5-4.5,15-3.5l7.3,0.7l0.2-1.6c-4.2-0.3-6.5-5-6.5-5s-3.5-0.5-3-5
	c0.5-4.1,16.1,7,18.7,8.8c0.2,0.2,0.3,0.3,0.3,0.3s-1.1,17.3,3.4,23.8h-0.4c0,0-36.5,8.5-36,3c0,0,1.1-1.1,3.4-2.3
	c0,0-8.9-2.8-2.4-7.3c0,0-7.5-2-2-5.5c1.4-0.9,2.9-1.7,4.6-2.4C497.1,245.9,490.5,243.4,494.5,241.9z"/>
<path fill="#FFFFFF" stroke="#000000" d="M374.6,240.1c6-1.7,48.802-13.1,39.5,1.5c-1.5,2.4-2.3,4.8-2.6,6.9
	c-1.7,11.7,11.4,18.4,0,12.6c-13.4-6.9,19.9,27.6-0.4,24.5c-20.3-3.1,10.802,34.5-9.898,23.2c-20.8-11.3-5.602,17.601-16.9,3.8
	c-7.398-9-13.1-27-16.1-38.3c-1.102-4.1-1.9-7.3-2.2-9C369.6,258,374,247.1,374.6,240.1z"/>
<path fill="#FFFFFF" stroke="#000000" d="M298.5,466.6c4.2,1.9,13.3,4.102,17-8.6c0,0,15.5,0.5,15.5-14.5c0,0,9.5,1.5,9.5-14.5
	l-8-10l-0.7-0.4c0.2-0.398,0.4-0.8,0.602-1.1l-8.802-18.2h0.102c6.7-33.8,1-48.7-7-55c-9.5-19.5,50.8-69.8,50.8-69.8l0.7-0.2
	c3,11.3,8.7,29.2,16.1,38.3c11.2,13.801-3.898-15.1,16.9-3.8s-10.4-26.4,9.898-23.2c20.302,3.102-13-31.398,0.4-24.5
	c11.3,5.8-1.7-0.9,0-12.6l0,0c12,4,39.5-39,39.5-39s2.1,0.2,5.6,0.6c21.4,2.5,96,11.9,93.9,24.4v1c-8.3,0.2-16.8,0-24.3-0.4
	l-0.102,1.1c-2.5-1.8-18.198-12.9-18.698-8.8c-0.5,4.5,3,5,3,5s2.3,4.7,6.5,5l-0.2,1.6l-7.3-0.7c-2.5-1-11,2-15,3.5s2.6,4.1,2.6,4.1
	c-1.6,0.7-3.2,1.6-4.6,2.4c-5.5,3.5,2,5.5,2,5.5c-6.5,4.5,2.398,7.3,2.398,7.3c-2.3,1.2-3.398,2.3-3.398,2.3c-0.5,5.5,36-3,36-3
	h0.398c0.7,1,1.602,1.8,2.602,2.2l0.1,1.2c5.8-0.5,12-1.1,18.1-1.8c1.302,4.8,6.302,28.1-14.8,36.6c0,0,2,5.7,5.3,15.102
	c1.7,5,3.802,11.1,6.102,17.898C555.5,355.9,566.8,389.7,576,419.9c3.2,10.5,6.2,20.6,8.8,29.698c2,7.2,3.7,13.7,5,19.4
	c2.4,10.4,3.5,17.7,2.5,20.1c0,0-292.5,31.802-290.5,14.7h-1.4c0.199-10.898-2.101-36.7-2.101-36.7L298.5,466.6z"/>
<path fill="#FFFFFF" stroke="#000000" d="M364,269.2c-4.8,8.8-7.4-5.7-7.4-5.7s-1-2.5-2.198-2.5l0.6-0.1l8.1-22.5
	c0,0,7.4-9.4,10.802-3.8c0.8,1.2,0.898,3.1,0.698,5.5c-0.698,7-5.1,17.8-8.6,25.2C365.3,266.8,364.6,268.1,364,269.2z"/>
<path fill="#FFFFFF" stroke="#000000" d="M352.3,264.8c-2.898,12.6-9.1-6.3-9.1-6.3L343,257l2-26.7c8.6-16,16.5,3.8,17.9,7.5
	c0.1,0.4,0.198,0.6,0.198,0.6L355,261l-0.6,0.1C353.7,261.1,353,262,352.3,264.8z"/>
<path fill="#FFFFFF" stroke="#000000" d="M278.1,521.5c19.5,6,38.5-1.5,38.5-1.5c1.602,4,5.602,7.7,10.4,11l0,0
	c11.3,7.8,27.3,13.9,30.1,19.5c4,8-28,2.5-30.5,2c-4.5-0.9-14.5-16.6-31-16.5c-3.4,0,2.4,18-0.5,18c-8.2,0.1-9.5,0-9.5,0
	c-0.5-17.5-8.5-16.5-8.5-16.5L278.1,521.5z"/>
<path fill="#FFFFFF" stroke="#000000" d="M328.1,222.1c9.102-20.7,16.9,8.2,16.9,8.2l-2,26.7l0.2,1.6c-5.4,8.4-11.102-3.1-12.3-5.8
	c0.3-6.2-0.2-12.6-1.5-19c-0.802-4-1.7-7.8-2.5-11.5L328.1,222.1z"/>
<path fill="#FFFFFF" stroke="#000000" d="M330.9,252.8c1.198,2.6,6.898,14.2,12.3,5.8c0,0,6.2,18.9,9.1,6.3
	c0.602-2.8,1.4-3.7,2.102-3.7c1.198,0,2.198,2.5,2.198,2.5s2.602,14.5,7.4,5.7c0.6-1.1,1.3-2.4,2-3.9c0.4,1.6,1.1,4.9,2.2,9
	l-0.7,0.2c0,0-60.2,50.2-50.8,69.8c-8.9-7.1-20.6-3.4-20.6-3.4l-0.5,0.2l-8.6-17.8l-0.3-0.6c23.2-12.7,42.1-38.2,44.1-67.9
	C330.9,254.1,330.9,253.5,330.9,252.8z"/>
<path fill="#FFFFFF" stroke="#000000" d="M323.7,399.3l-28-58.2l0.5-0.199c0,0,11.7-3.699,20.6,3.399c8,6.3,13.8,21.2,7,55H323.7
	L323.7,399.3z"/>
<path fill="#FFFFFF" stroke="#000000" d="M302,503.7c-2,17.1,290.5-14.7,290.5-14.7s27.5,2,17,17C599,520.9,329.1,530.9,327,531l0,0
	c-4.8-3.3-8.7-7-10.4-11c0,0-16.6-5-16.1-14.5c0-0.5,0-1.2,0.1-1.8H302z"/>
<path fill="#FFFFFF" stroke="#000000" d="M274,467.8c0,0,17.8,10.3,22.3-2.3c0,0,0.9,0.6,2.3,1.2v0.398c0,0,2.2,25.7,2.101,36.7
	c0,0.7,0,1.3-0.101,1.8c-0.6,9.4,16,14.4,16,14.4s-19,7.5-38.5,1.5c0,0,4.4-28-6.1-49.5l-1.6-0.3C271.8,470.8,273,469.6,274,467.8z"
	/>
<path fill="#FFFFFF" stroke="#000000" d="M255.5,166.2c0,0,46-49.3,71.4,56.1c0.898,3.6,1.698,7.4,2.5,11.5c1.3,6.5,1.8,12.8,1.5,19
	c0,0.7-0.102,1.3-0.102,2c-21-11.9-42.8-38.7-56.9-59.8c-1.4-2.1-2.7-4.1-3.9-6C261.1,175,262.2,179.5,255.5,166.2z"/>
<path fill="#FFFFFF" stroke="#000000" d="M278.4,254.5c2,0,3.7-2.1,3.7-4.7c0-2.6-1.6-4.7-3.7-4.7c-2,0-3.7,2.1-3.7,4.7
	C274.7,252.4,276.4,254.5,278.4,254.5z M278.6,264.8c-5.5,0-10-8.3-10-18.5c0-10.2,4.5-18.5,10-18.5s9.9,8.3,9.9,18.5
	C288.5,256.5,284.1,264.8,278.6,264.8z"/>
<path fill="#FFFFFF" stroke="#000000" d="M278.4,254.5c-2,0-3.7-2.1-3.7-4.7c0-2.6,1.6-4.7,3.7-4.7c2,0,3.7,2.1,3.7,4.7
	C282.1,252.4,280.4,254.5,278.4,254.5z"/>
<path fill="#FFFFFF" stroke="#000000" d="M278.6,264.8c5.5,0,9.9-8.3,9.9-18.5c0-10.2-4.5-18.5-9.9-18.5c-5.5,0-10,8.3-10,18.5
	C268.6,256.5,273.1,264.8,278.6,264.8z M241.6,265.2c5.5,0,9.9-8.3,9.9-18.5c0-10.2-4.4-18.5-9.9-18.5s-9.9,8.3-9.9,18.5
	C231.7,256.9,236.1,265.2,241.6,265.2z M179.8,257.3c13.5,4.3,92.9-61.6,92.9-61.6l1.2-0.8c14.1,21.1,35.9,47.9,56.9,59.8
	c-2,29.7-20.898,55.2-44.1,67.899c-9.9,5.399-20.7,8.5-31.2,8.5c-7.1,0-14.4-1.399-21.4-4C207,317.1,182.8,289.7,179.8,257.3z"/>
<path fill="#FFFFFF" stroke="#000000" d="M183.1,227.3c28.2-109.5,72.4-61.1,72.4-61.1c6.8,13.3,5.7,8.8,14.5,22.8
	c1.2,1.9,2.5,3.9,3.9,6l-1.2,0.8c0,0-79.4,65.8-92.9,61.6c-0.7-7.6-0.2-15.6,1.7-23.6C182,231.5,182.6,229.4,183.1,227.3z"/>
<path fill="#FFFFFF" stroke="#000000" d="M204.1,460.3c-12,4.7-20-6.1-20-6.1c-15.6,0.898-14.2-9.9-14.2-9.9l7.8-8.2
	c7.7,5.302,106.6,71.4,154.1-17.398l0.7,0.398l8,10c0,16-9.5,14.5-9.5,14.5c0,15-15.5,14.5-15.5,14.5c-3.7,12.7-12.7,10.5-17,8.602
	c-1.4-0.602-2.3-1.2-2.3-1.2c-4.5,12.7-22.3,2.3-22.3,2.3c-1,1.8-2.3,3.102-3.6,3.9c-7.4,4.7-18.2-3-18.2-3
	c-3.2,3.898-7.4,4.8-11.3,4.398c-6.5-0.698-12.3-4.8-12.3-4.8c-4.4,2.102-8.2,2.4-11.5,1.7C208.8,468.3,204.1,460.3,204.1,460.3z"/>
<path fill="#FFFFFF" stroke="#000000" d="M205,522c0,0,19,7.5,38.5,1.5l1,16c0,0-8-1-8.5,16.5c0,0-1.3,0.1-9.5,0
	c-2.9,0,2.9-18-0.5-18c-16.5-0.1-26.5,15.6-31,16.5c-2.5,0.5-34.5,6-30.5-2S199.5,535.5,205,522z"/>
<path fill="#FFFFFF" stroke="#000000" d="M241.4,254.8c2,0,3.7-2.1,3.7-4.7s-1.6-4.7-3.7-4.7c-2,0-3.7,2.1-3.7,4.7
	S239.4,254.8,241.4,254.8z M241.6,265.2c-5.5,0-9.9-8.3-9.9-18.5c0-10.2,4.5-18.5,9.9-18.5c5.5,0,9.9,8.3,9.9,18.5
	C251.6,256.9,247.1,265.2,241.6,265.2z"/>
<path fill="#FFFFFF" stroke="#000000" d="M241.4,254.8c-2,0-3.7-2.1-3.7-4.7s1.6-4.7,3.7-4.7c2,0,3.7,2.1,3.7,4.7
	S243.4,254.8,241.4,254.8z"/>
<path fill="#FFFFFF" stroke="#000000" d="M177.2,435.7c7.6-10,15.8-23.7,23.5-38c11.9-22.3,22.7-46,28.5-59.3
	c2.9-6.7,4.6-10.801,4.6-10.801l0.2-0.601c7,2.601,14.3,4,21.4,4c10.5,0,21.3-3.101,31.2-8.5l0.3,0.601l8.6,17.801l28,58.198
	l8.8,18.2c-0.2,0.4-0.398,0.8-0.6,1.102C284.1,507.3,185.3,441.2,177.6,435.8C177.4,435.8,177.2,435.7,177.2,435.7z"/>
<path fill="#FFFFFF" stroke="#000000" d="M229.2,338.4c-5.8,13.3-16.6,37-28.5,59.3l-0.6-0.3C187.4,345.3,223.5,339.1,229.2,338.4z"
	/>
<path fill="#FFFFFF" stroke="#000000" d="M217.1,470c3.3,0.7,7.1,0.4,11.5-1.7c0,0,5.8,4.2,12.3,4.8c-0.5,7.302-2.9,49,2.6,50.4
	c-19.5,6-38.5-1.5-38.5-1.5c20.5-16,12-51.5,12-51.5L217.1,470z"/>
<path fill="#FFFFFF" stroke="#000000" d="M181.5,233.7c-1.9,8-2.4,15.9-1.7,23.6l0,0c0,0-6.5,15.7-12.5,6.3l0.7-2.1l-2.5-26.2
	c0,0,7.8-28.9,16.9-8.2l0.7,0.2C182.6,229.4,182,231.5,181.5,233.7z"/>
<path fill="#FFFFFF" stroke="#000000" d="M155.5,266l-8.1-22.5c0,0,0.1-0.2,0.2-0.6c1.4-3.8,9.3-23.5,17.9-7.5l2.5,26.2l-0.7,2.1
	c0,0-6.2,18.9-9.1,6.3c-0.8-3.4-1.8-4-2.6-3.6L155.5,266z"/>
<path fill="#FFFFFF" stroke="#000000" d="M136.6,239.7c3.5-5.6,10.8,3.8,10.8,3.8l8.1,22.5l0.1,0.3c-1,0.5-1.8,2.3-1.8,2.3
	s-2.6,14.5-7.4,5.7c-0.6-1.1-1.3-2.4-2-3.9c-3.6-7.4-8-18.2-8.6-25.2C135.6,242.8,135.8,240.9,136.6,239.7z"/>
<path fill="#FFFFFF" stroke="#000000" d="M99.4,290.6c-20.3,3.102,13-31.398-0.4-24.5s7.3-3.8-2.6-19.5c-9.3-14.6,33.5-3.1,39.5-1.5
	c0.7,7,5.1,17.8,8.6,25.2c-1.4,6.1-8.3,34.9-18.3,47.2c-11.2,13.8,3.9-15.1-16.9-3.8C88.6,325.2,119.7,287.5,99.4,290.6z"/>
<path fill="#FFFFFF" stroke="#000000" d="M99,266.1c13.4-6.9-19.9,27.6,0.4,24.5c20.3-3.1-10.8,34.602,9.9,23.301
	c20.8-11.301,5.6,17.601,16.9,3.801c10-12.301,17-41.1,18.3-47.2c0.7,1.4,1.4,2.8,2,3.9c4.8,8.8,7.4-5.7,7.4-5.7s0.8-1.9,1.8-2.3
	c0.8-0.4,1.8,0.2,2.6,3.6c2.9,12.6,9.1-6.3,9.1-6.3c6,9.4,12.5-6.3,12.5-6.3l0,0c3,32.4,27.2,59.8,54.2,69.8l-0.2,0.6
	c0,0-1.7,4.102-4.6,10.801c-5.7,0.601-41.9,6.801-29.1,58.999l0.6,0.302c-7.7,14.3-15.8,28-23.5,38c0,0,0.2,0.1,0.5,0.3l-7.8,8.2
	c0,0-1.3,10.8,14.2,9.898c0,0,8,10.8,20,6.102c0,0,4.6,8,13,9.698l-0.1,0.5c0,0,8.5,35.5-12,51.5c-5.5,13.5-36.5,22.5-40.5,30.5
	s28,2.5,30.5,2c4.5-0.898,14.5-16.6,31-16.5c3.4,0-2.4,18,0.5,18c8.2,0.102,9.5,0,9.5,0c0.5-17.5,8.5-16.5,8.5-16.5l-1-16
	c-5.5-1.398-3-43.1-2.6-50.398c3.9,0.398,8.1-0.5,11.3-4.4c0,0,10.8,7.7,18.2,3l1.6,0.3c10.5,21.5,6.1,49.5,6.1,49.5l-1,16
	c0,0,8-1,8.5,16.5c0,0,1.3,0.102,9.5,0c2.899,0-2.9-18,0.5-18c16.5-0.1,26.5,15.602,31,16.5c2.5,0.5,34.5,6,30.5-2
	c-2.8-5.6-18.9-11.698-30.102-19.5c2.102-0.1,272-10.1,282.5-25c10.5-15-17-17-17-17c1-2.398-0.1-9.698-2.5-20.1l1.5-0.4
	c0,0,84.5-1,131.5-85.5c0,0-12.5-9.3-17.5-10c0,0-25.5,45-59,52L632.5,386.2l1.1-0.4c13.802-10.899,13-15.2,16-15.2
	c0,0-6-13.3-11-14c-1.198,1.102-4.5,4-12.5,11l-0.3,0.102L611,327l-0.2-0.8c4.3-1.101,7.602-2.5,9.2-4.2c9-9.5-3-16-3-16
	s114.2-150,89.5-198.5c-6-11.8-49.7-11.6-54.6-11.5c-1.4-17.5-11.4-31-11.4-31c-5.5-23.5-24-14.5-24-14.5c-5-16-29-11-29-11
	c-2-8.5-19.5-1-19.5-1C551.5,30,544,51,544,51s1.8,7.7,7.7,11.8c-0.8,0.8-3.3,3.4-6.2,7.1c-4.9-2.3-18.6-4.2-22.5-0.4
	c-11.8,11.6-16.5,66.5-16.5,66.5l0.3,1.9c-16.3,11-34.7,32.2-50.1,72.2c-3.602-0.4-5.602-0.6-5.602-0.6s-27.5,43-39.5,39l0,0
	c0.302-2.1,1.102-4.5,2.602-6.9c9.3-14.6-33.5-3.1-39.5-1.5c0.2-2.3,0.1-4.2-0.7-5.5c-3.5-5.7-10.8,3.8-10.8,3.8s-0.102-0.2-0.2-0.6
	c-1.4-3.8-9.3-23.5-17.9-7.5c0,0-7.8-28.9-16.898-8.2l-1.2,0.2c-25.3-105.4-71.4-56.1-71.4-56.1s-44.1-48.4-72.4,61.1l-0.7-0.2
	c-9.1-20.7-16.9,8.2-16.9,8.2c-8.6-16-16.5,3.8-17.9,7.5c-0.1,0.4-0.2,0.6-0.2,0.6s-7.4-9.4-10.8-3.8c-0.8,1.2-0.9,3.1-0.7,5.5
	c-6-1.7-48.8-13.1-39.5,1.5C106.3,262.3,85.5,273,99,266.1z M0.5,0.5h822v567H0.5"/>
<path fill="none" stroke="#000000" d="M21.9,548.4"/>
<path fill="none" stroke="#000000" d="M18.2,548.4"/>
<path fill="none" stroke="#000000" d="M29.3,548.3"/>
<path fill="none" stroke="#000000" d="M26,548.3"/>
<path fill="none" stroke="#000000" d="M37,548.1"/>
<path fill="none" stroke="#000000" d="M33.6,548.1"/>
<path fill="none" stroke="#000000" d="M51.9,548.7"/>
<path fill="none" stroke="#000000" d="M68.5,548.6"/>
<path fill="none" stroke="#000000" d="M73.7,548.7"/>
<path fill="none" stroke="#000000" d="M73,548.8"/>
<path fill="none" stroke="#000000" d="M59.4,548.401"/>
<path fill="none" stroke="#000000" d="M53.4,548.299"/>
<path fill="none" stroke="#000000" stroke-width="1.0581" d="M49.9,548.199"/>
<path fill="none" stroke="#000000" d="M41.4,548.4L41.4,548.4"/>
<path fill="none" stroke="#000000" d="M83.4,549"/>
<path fill="none" stroke="#000000" d="M82.7,549"/>
<path fill="none" stroke="#000000" d="M87.2,549.2"/>
<path fill="none" stroke="#000000" d="M108.4,549.3"/>
<path fill="none" stroke="#000000" d="M112.1,549.3"/>
<path fill="none" stroke="#000000" d="M115.5,549.3"/>
<path fill="none" stroke="#000000" d="M98.4,548.7"/>
<path fill="none" stroke="#000000" d="M104.3,548.701"/>
<path fill="none" stroke="#000000" d="M103.4,548.6"/>
<path fill="none" stroke="#000000" d="M92.9,549.1L92.9,549.1"/>
<path fill="none" stroke="#000000" d="M47.6,548.299"/>
<path fill="none" stroke="#000000" d="M219.1,278c0,0,0.9,11.3-5.6,11.3"/>
<path fill="none" stroke="#000000" d="M299.6,271.1c0,0,2.2,13.8,9.5,11.3"/>
<path fill="none" stroke="#000000" d="M219.1,283.7c0,0,43.2,72.3,82.6-5.7"/>
<path fill="none" stroke="#000000" d="M255,281.2c0,0,6.9-20.1,12.5-0.6"/>
<path id="www.ABC-color.com" fill="none" stroke="#000000" d="M593,215.5c0,0,5-66.5,33-73.5"/>
<path fill="none" stroke="#000000" d="M592,222c1-3,1-6.5,1-6.5"/>
<path fill="none" stroke="#000000" d="M554.5,235.4c18-0.9,34.5-4.3,37.5-13.4"/>
<path fill="none" stroke="#000000" d="M552.5,82c0,0,7,8.5,16,1.5"/>
<path fill="none" stroke="#000000" d="M586,87.5c0,0,6,11,18,6"/>
<path fill="none" stroke="#000000" d="M556.5,112c0,0,11,9.5,24,6"/>
<path fill="none" stroke="#000000" d="M567.5,101.5c0,0,8-5.5,9,2.5"/>
<line fill="none" stroke="#000000" x1="554.5" y1="84" x2="550.5" y2="87"/>
<line fill="none" stroke="#000000" x1="557" y1="85" x2="555" y2="89"/>
<line fill="none" stroke="#000000" x1="561.5" y1="86" x2="560" y2="90"/>
<line fill="none" stroke="#000000" x1="592" y1="94" x2="591" y2="97.5"/>
<line fill="none" stroke="#000000" x1="596.5" y1="94.5" x2="595" y2="99"/>
<line fill="none" stroke="#000000" x1="600.5" y1="94.5" x2="601" y2="98"/>
<path fill="none" stroke="#000000" d="M540.5,130c0,0,24,38.5,69,1.5"/>
<path fill="none" stroke="#000000" d="M502.5,175.5c0,0-32,19-30.5,36"/>
<path fill="none" stroke="#000000" d="M529.5,149.5c0,0-36.5,4-27,26"/>
<path fill="none" stroke="#000000" d="M536,298.5c0,0-42.5,6-42.5-3"/>
<path fill="none" stroke="#000000" d="M673.5,153c0,0,1,49-73.5,152"/>
<path fill="none" stroke="#000000" d="M679,114.5c0,0-10,16-5.5,38.5"/>
<path fill="none" stroke="#000000" d="M690.5,128.5c0,0,3.5-25.5-11.5-14"/>
<path fill="none" stroke="#000000" d="M499,260.2c3.2-1.2,7.8-2.3,14-1.8"/>
<path fill="none" stroke="#000000" d="M497,252.5c5.8-2.4,11.8-0.1,14-0.1"/>
<path fill="none" stroke="#000000" d="M498.4,245.3c4.6-1.8,9.5-2.4,12.6,0"/>
<line fill="none" stroke="#000000" x1="516.8" y1="239" x2="520" y2="239.3"/>
</svg>
