<?xml version="1.0" encoding="utf-8"?>
<!-- Generator: Adobe Illustrator 15.0.0, SVG Export Plug-In . SVG Version: 6.00 Build 0)  -->
<!DOCTYPE svg PUBLIC "-//W3C//DTD SVG 1.1//EN" "http://www.w3.org/Graphics/SVG/1.1/DTD/svg11.dtd">
<svg version="1.1" id="layer_x5F_www.ABC-color.com"
	 xmlns="http://www.w3.org/2000/svg" xmlns:xlink="http://www.w3.org/1999/xlink" x="0px" y="0px" width="567px" height="822px"
	 viewBox="0 0 567 822" enable-background="new 0 0 567 822" xml:space="preserve">
<polyline fill="#FFFFFF" points="0,0 567,0 567,822 "/>
<path fill="#FFFFFF" stroke="#000000" d="M100.8,480.7V480.6c-1,0.4-2,0.302-3.5-0.1c-2-1.2-0.4-2.2-0.8-4.1c-4.3,1.6-3-2.802-3-4.4
	c-6.3,3.3,1.4-8.5,1.3-8.8c11.7-17.602,16.7-14.9,23.7-35.2c5.2-15.2,1.5-39.5,4.5-62c3.6-26.9,16-53.9,19-77
	c2-15.6,3.1-30.2,6.8-45c7.1-28.6,15.2-44.1,45.2-53.8c8-2.6,15.8-3.9,24.7-8.4c0.3-0.4,0.7-0.7,1.1-1c1.6-2.7,1.4-6,3-8.8
	c0.1-0.3,0.1-0.7,0.2-1c0.9-5.6,0.7-11.4,2-17c9.3,8.1,22.6,10.4,33,3c-0.5,4.9,2,9.3,3,14c0.9,9.1,11.7,12.8,19,15
	c22.1,6.5,34.4,10,41.8,24c6.4,12.2,10.602,33.4,16.2,49c2.5,6.8,7.5,16,11.8,26c3.8,8.8,6.4,17.9,11.4,24c7,8.5,18.3,15.3,26.8,24
	c9.7,10,18.7,20.8,29,31c9.4,9.3,17.8,13.7,30,19.8c12.2,6,26.4,10.4,31.5,25c0.9,1,0.4,1.8,1.2,2.4c0.398,1.3-0.7,2.3-1.7,2.8
	c0.6,1.7,2.4,3.3,4,5c2,2.3-1.3,3-2,3l-0.5,0.3c0.7,0.8,0.7,1.7,0.1,2.5c-0.6,2.7-2.8,2.2-4.5,1.2c-3.698,8.5-17.3-12.3-28-13.2
	c-0.3,0.2-2.698-1-3-0.8c0.2,0.7,0.5,1.3,1,2c2.7,3.9,9.5,11.3,5.7,13.7c-8.2-0.9-22.398-21-26.7-35.5
	c-26.8-20.1-53.898-25.8-74.8-47.2c-23.5-24-33.3-73.4-49.2-97c-14.699-16.8-41.5-13.8-58.8-2.3c-14.3-17.9-44.4-9.6-54.2,8.3
	c-1.1,4.6-2,9.1-3.2,13c-5.8,18.7-17.8,36.8-20.8,54c-1.8,10.5,1.4,24.6-1.2,34c-4.7,32-16.9,62.1-26.9,87.3
	c10.4,21.7,4.8,14.602,0.4,34.8c-3.4,1.9-3.1-0.5-4.5-1c-2.6-3.898-0.2-9.8-1.4-14.1c-8.9,3.3-17.2,22-28.9,19
	C100.5,480.9,100.6,480.8,100.8,480.7z"/>
<path fill="#FFFFFF" stroke="#000000" d="M334.5,744.4c12.8,11.8,7.2,32.5,5.3,47.5c-2.7,3.1-7,4-10.8,5.3c-0.3,0.2-0.7,0.5-1,0.7
	c-2.3,0-4.7,0-7,0c-12.8-9.7-19.2-27.4-20-43c6.7,4.6,10.9,15,20,15.8C330.3,765.4,331.2,753.5,334.5,744.4z"/>
<path fill="#FFFFFF" stroke="#000000" d="M334.5,744.4c-3.3,9.1-4.1,21-13.5,26.3c-9.1-0.8-13.3-11.2-20-15.8
	c-2.3-22.9,0.5-47.102-2-66c-5.1-39.102-26.7-79.7-18-118c-1-29.5-13.8-59.302-20-91c-1.6-8.4-1.2-16-2-24c-0.8-8.2-3.3-16.2-4-24
	c-0.8-9.102,3.5-22-2-28c10.4-24.101,33.8-40,59-44c0.2,0.1,0.5,0.2,0.7,0.3c12.7,32.5,13.3,61.898,11.3,95.7
	c-1.5,25.3-12.5,49.698-11,74c1.3,20.898,8.6,41.898,10,63c2,30.198,1.4,60.198-2,91C325.4,704,325.1,725.4,334.5,744.4z"/>
<path fill="#FFFFFF" stroke="#000000" d="M277.6,108.4L277.6,108.4c-0.1,0-0.1-0.1-0.2-0.2c-0.7-2.4-2.1-4.6-3.4-6.2
	c-2.8-11.4-9.6-21.6-15-32c0.3-10.9-1.9-24.9,8-32c21.9-8.2,42.3,27.7,45,50c4.2,33.9-14.3,63.1-32,74.5c-0.3,0,1.3-1.5,1-1.5
	c5.9-10.8,4.8-24.2,1.5-35.5C282,123.3,278.7,112.7,277.6,108.4z"/>
<path fill="#FFFFFF" stroke="#000000" d="M300,248c4.9,17.4-11.8,27.3-12,44c-0.1,8.8,1.3,20,5.3,29c2.4,5.3,6.8,8.9,9.5,14
	c3.2,6,6.9,16.8,9.2,25c-25.2,4-48.6,19.9-59,44c-1.6,0-3.4-0.9-4.5-0.5c-7.8-24.2-35.5-41.7-59.5-45.5c6.7-13.6,14.2-27,17-42
	c-4-20.9-7.2-42.8-18-61.7c-0.3-0.1-0.7-0.2-1-0.3c9.8-17.9,39.9-26.2,54.2-8.3C258.5,234.2,285.3,231.1,300,248z"/>
<path fill="#FFFFFF" stroke="#000000" d="M282.5,125.5c3.3,11.3,4.4,24.7-1.5,35.5c-4.8,5.7-13,8.2-20,10c-1-4.7-3.5-9.1-3-14
	C270.3,150.6,279.3,139.2,282.5,125.5z"/>
<path id="ABC-color.com" fill="#FFFFFF" stroke="#000000" d="M277.6,108.4c1.1,4.3,4.5,14.9,4.9,17.1c-3.1,13.7-12.2,25.1-24.5,31.5
	c-10.4,7.4-23.7,5.1-33-3c-10.6-4.1-15.9-15.5-19.5-25.5c0.3-4.2,2.2-8.1,4.5-11.5c0.5-1.6,1.4-2.9,2.4-4.1l0.4,0.3
	c10.5,17.8,22.2,7.1,24.5,5c-0.1-0.2-0.1-0.4-0.2-0.6l0.5-0.1c-0.8-13-13.6-13.1-19.5-11.5c10.4-13.8,26.7-27.5,41-36
	c5.4,10.4,12.2,20.6,15,32c1.3,1.6,2.8,3.8,3.4,6.2h-0.2c-13.6-7.9-26.3,5-26.3,9.8l0.6,0.3c-0.1,0.2-0.2,0.4-0.3,0.7
	c3.1,7,21.2,7,26.2-5.8C278,111.7,277.9,110.1,277.6,108.4L277.6,108.4z M255.3,142.5c-1.9-1.8-4.5-2.8-7.3-3.3
	c-1.4-0.2-2.2,1.5-3.8,1.6c-1.4,0-3.6-1.8-5-1.5c-2.9,0.4-5.6,1.2-8,2.1c-0.1,0.2-0.2,0.5-0.3,0.7l0.5,0.3
	C236.8,153.3,248.6,153.7,255.3,142.5z"/>
<path fill="#FFFFFF" stroke="#000000" d="M277.5,108.5c0.4,1.6,0.5,3.2,0,4.7c-7.9-4.6-21.1-3.6-25.9,5.2L251,118
	c0-4.8,12.6-17.7,26.3-9.8h0.2C277.5,108.3,277.5,108.4,277.5,108.5z"/>
<path fill="#FFFFFF" stroke="#000000" d="M264.3,112.9c2.5,0,4.6,2,4.6,4.4c0,2.4-2.1,4.4-4.6,4.4s-4.6-2-4.6-4.4
	C259.7,114.9,261.7,112.9,264.3,112.9z M264.3,119c1.1,0,2-0.8,2-1.8s-0.9-1.8-2-1.8c-1.1,0-2,0.8-2,1.8S263.1,119,264.3,119z"/>
<path fill="#FFFFFF" stroke="#000000" d="M251.6,118.3c4.8-8.8,18-9.8,25.9-5.2c-5,12.8-23.1,12.9-26.2,5.8
	C251.4,118.8,251.5,118.5,251.6,118.3z M268.9,117.3c0-2.4-2.1-4.4-4.6-4.4s-4.6,2-4.6,4.4c0,2.4,2.1,4.4,4.6,4.4
	S268.9,119.7,268.9,117.3z"/>
<path fill="#FFFFFF" stroke="#000000" d="M266.3,117.3c0,1-0.9,1.8-2,1.8c-1.1,0-2-0.8-2-1.8s0.9-1.8,2-1.8
	C265.4,115.5,266.3,116.3,266.3,117.3z"/>
<path fill="#FFFFFF" stroke="#000000" d="M218,106c-0.9,1.2-1.7,2.3-2.5,3.5c-1,1.2-2.1,2.3-3.1,3.4c-1,1.2-1.9,2.5-2.4,4.1
	c-2.3,3.4-4.2,7.3-4.5,11.5c-6,11.6-1.3,25.8,4.5,36.5c-61.6-30.5-41.4-136.8,28-140c3.3,0,6.7,0,10,0c7.5,1.3,18.2,3.5,19,13
	c-9.9,7.1-7.8,21.1-8,32C244.7,78.5,228.4,92.1,218,106z"/>
<path fill="#FFFFFF" stroke="#000000" d="M250,143c0,0.3,0,0.7,0,1c-2.7,5.3-12.1,5-12.2-1.7C244,145,245.6,143,250,143z"/>
<path fill="#FFFFFF" stroke="#000000" d="M248,139.2c2.8,0.5,5.4,1.5,7.3,3.3c-6.8,11.3-18.6,10.8-23.8-0.2L231,142
	c0.1-0.2,0.2-0.5,0.3-0.7c2.4-0.9,5.1-1.7,8-2.1c1.4-0.2,3.6,1.6,5,1.5C245.8,140.7,246.6,139,248,139.2z M250,144c0-0.3,0-0.7,0-1
	c-4.3,0-6,2-12.2-0.7C237.8,149,247.3,149.3,250,144z"/>
<path fill="#FFFFFF" stroke="#000000" d="M248.5,403.5c-0.1,0.2-0.2,0.4-0.4,0.6c-1.6,25.4-4,49.601-9.1,75.801
	c-3.2,16.1-8.2,32.6-12,49c-3.6,15.3-12,26.698-14.8,41c-2.6,13-2.4,27.5-6.2,42c-4.8,18.5-19.7,33.8-26.8,53
	c-3.4,9.3-6.8,17.6-9.9,26c-6.3,16.698-2.1,36.698-3.3,54c-7.4,5.1-11.3,15.698-21,17.8c-9.5-5-10.1-17.102-14-25.8
	c8.7-20.302,19-41.5,20-61c1.1-21,4.4-41.302,6-60c1.6-19.2,8.5-30.7,19.7-54c3.8-7.9,7.1-17.802,8.3-27
	c7.5-59.602-17.4-122.4,3.3-176.7c0.2-0.1,0.5-0.2,0.7-0.3C212.9,361.8,240.7,379.3,248.5,403.5z"/>
<path fill="#FFFFFF" stroke="#000000" d="M237.5,117.5l-0.5,0.1c-3-7.3-14.3-8.6-21.5-8.1c0.8-1.2,1.6-2.3,2.5-3.5
	C223.9,104.4,236.8,104.5,237.5,117.5z"/>
<path fill="#FFFFFF" stroke="#000000" d="M237,117.6c0.1,0.2,0.2,0.4,0.2,0.6c-2.3,2.1-14,12.8-24.5-5l-0.4-0.3
	c1-1.2,2.1-2.3,3.1-3.4C222.7,109,234,110.3,237,117.6z M228.4,116.5c0-2.4-2.1-4.4-4.6-4.4s-4.6,2-4.6,4.4s2.1,4.4,4.6,4.4
	S228.4,118.9,228.4,116.5z"/>
<path fill="#FFFFFF" stroke="#000000" d="M223.8,112.1c2.5,0,4.6,2,4.6,4.4s-2.1,4.4-4.6,4.4s-4.6-2-4.6-4.4
	S221.2,112.1,223.8,112.1z M223.8,118.3c1.1,0,2-0.8,2-1.8s-0.9-1.8-2-1.8c-1.1,0-2,0.8-2,1.8S222.6,118.3,223.8,118.3z"/>
<path fill="#FFFFFF" stroke="#000000" d="M225.8,116.5c0,1-0.9,1.8-2,1.8c-1.1,0-2-0.8-2-1.8s0.9-1.8,2-1.8
	C224.9,114.7,225.8,115.5,225.8,116.5z"/>
<path fill="#FFFFFF" stroke="#000000" d="M225,154c-1.3,5.6-1.1,11.4-2,17c-4.5-1.6-9.4-3-13-6c-5.8-10.7-10.5-24.9-4.5-36.5
	C209.1,138.5,214.4,149.8,225,154z"/>
<path fill="#FFFFFF" stroke="#000000" d="M166,744.9c0.4,23-8.8,60.1-31,49.698c-19.7-9.198-14.6-44.6-4-57.698
	c3.9,8.698,4.5,20.8,14,25.8C154.7,760.6,158.5,750,166,744.9z"/>
<path fill="none" stroke="#000000" stroke-width="2" d="M239,107.3c-6.8-11.5-17.5-6.3-17.5-6.3"/>
<path fill="none" stroke="#000000" stroke-linecap="round" d="M92.8,472.2c2,1.8,9.3-6.8,12.5-13.8"/>
<path fill="none" stroke="#000000" stroke-linecap="round" d="M96.6,476.4c4.1-4,9.6-8.302,12.4-13.2"/>
<path fill="none" stroke="#000000" stroke-linecap="round" d="M102.1,479.7c4.5-4.3,7.9-6.9,10.9-12.3"/>
<path fill="none" stroke="#000000" stroke-linecap="round" d="M475,426c-2.9-5.1-8.2-8.8-13-12"/>
<path fill="none" stroke="#000000" stroke-linecap="round" d="M480,422c-7-4-10.8-8.6-16-13"/>
<path fill="none" stroke="#000000" stroke-linecap="round" d="M478,414c-4.3-1.1-6.3-7.2-9.5-10"/>
<path fill="none" stroke="#000000" stroke-width="2" stroke-linecap="round" d="M274,102c-6-3-15.2-0.2-20,4.3"/>
<path fill="none" stroke="#000000" stroke-width="0.5" stroke-linecap="round" d="M248,132c-2.2-2.7-4.5-4.5-8,0"/>
</svg>
