<?xml version="1.0" encoding="utf-8"?>
<!-- Generator: Adobe Illustrator 15.0.0, SVG Export Plug-In . SVG Version: 6.00 Build 0)  -->
<!DOCTYPE svg PUBLIC "-//W3C//DTD SVG 1.1//EN" "http://www.w3.org/Graphics/SVG/1.1/DTD/svg11.dtd">
<svg version="1.1" id="Layer_1" xmlns="http://www.w3.org/2000/svg" xmlns:xlink="http://www.w3.org/1999/xlink" x="0px" y="0px"
	 width="567px" height="822px" viewBox="0 0 567 822" enable-background="new 0 0 567 822" xml:space="preserve">
<path fill="#FFFFFF" stroke="#000000" stroke-miterlimit="10" d="M358.6,693.6c10.4,13.601,1.4,23.2,1.4,23.2
	c-10.3,6.8-31.5,0-31.5,0c-1.2-1.399-2.1-2.7-2.8-4.1l0,0c-4-8,0-16,1.899-19.101C332.7,698.7,342.2,703,358.6,693.6z"/>
<path fill="#FFFFFF" stroke="#000000" stroke-miterlimit="10" d="M367.2,739.8c-1.4,17,6.5,22.101,0,25.2
	c-11.5,5.7-24.7,3-40.101-29.5c-1.3-12.3-1.399-22.4-1.399-22.8c0.7,1.399,1.6,2.8,2.8,4.1c0,0,21.3,6.8,31.5,0
	C360.7,723.4,364,732.4,367.2,739.8z"/>
<path fill="#FFFFFF" stroke="#000000" stroke-miterlimit="10" d="M373.7,753.4c15.1,17.8,17.3,38.899-0.8,41.899
	c-13.301,2.2-18.601,1.5-24-4.399c-4-4.4-12.601-15.5-16.801-29.101c-2.6-8.3-4.1-17.8-5-26.3c15.5,32.5,28.7,35.2,40.101,29.5
	c6.5-3.2-1.4-8.2,0-25.2C370.6,747.4,373.7,753.4,373.7,753.4z"/>
<path fill="#FFFFFF" stroke="#000000" stroke-miterlimit="10" d="M241.7,748.6c-1.9,15.7-12.4,39.601-12.4,39.601
	c-6.4,12.8-7.5,19-13.3,22c-5.9,3.1-19.7,0.6-26.8-0.7c-15.9-3-12.2-23.4-12.2-23.4l20.3-41.199c-0.6,1.6-15,39.3-1.3,38.199
	c0,0,16.8,3.601,22.1,2C226.4,782.3,237.5,761.4,241.7,748.6z"/>
<path fill="#FFFFFF" stroke="#000000" stroke-miterlimit="10" d="M242,744c0,1.4-0.1,2.9-0.3,4.5c-4.2,12.8-15.3,33.7-23.7,36.4
	c-5.3,1.6-22.1-2-22.1-2c-13.7,1.1,0.7-36.601,1.3-38.2V744.6l4.5-9.199c0.7,1.399,1.8,2.699,3.4,4C205.2,739.5,214.2,754.2,242,744
	z"/>
<path fill="#FFFFFF" stroke="#000000" stroke-miterlimit="10" d="M240.5,717.9c9.3,15.899,1.6,26.1,1.6,26.1
	c-27.8,10.2-36.8-4.5-36.8-4.5c-1.6-1.3-2.7-2.6-3.4-4c-4.2-8.6,7.1-18.7,7.1-18.7S236.4,737.8,240.5,717.9z"/>
<path fill="#FFFFFF" stroke="#000000" stroke-miterlimit="10" d="M282.4,528.8c1,17.3-21.6,66.601-21.6,66.601
	c7.5,27.199,4.8,54.5,0.9,68.8c-7.6,27.899-20,48-21.2,53.7C236.4,737.8,209,716.8,209,716.8c-1.2-48.8,3.2-111.7,3.2-111.7
	c3.5-9,3.2-79.5,3.2-80.5c21.3,3.4,43.8,5,67,3.801V528.8z"/>
<path fill="#FFFFFF" stroke="#000000" stroke-miterlimit="10" d="M327.6,693.6c-3.5-3.5-4.8-7.399-4.8-7.399
	c-18.5-27.2-22.8-97-22.8-97c-11.5-21.5-17.6-60.4-17.6-60.4V528.4c21.1-1.2,42.6-4.801,64.1-11.7c0,28.1,0,55,0,55
	c20.8,43.1,12.2,122,12.2,122C342.2,703,332.7,698.7,327.6,693.6z"/>
<path fill="#FFFFFF" stroke="#000000" stroke-miterlimit="10" d="M215.4,524.6c-82.1-13.1-144.7-52.8-144.7-52.8
	C60.3,468.4,54.9,436.4,54.8,435.9c5.4,3.199,11,5.899,15.9,6.8c0,0,19.2,13.2,51.1,26.8c24.7,10.5,56.9,21.3,93.6,26.4
	c29,4,60.7,4.5,93.8-1.601c29-5.3,58.899-15.5,88.8-32.7l0,0c19.9-11.399,39.8-25.899,59.4-44.1c7.8-7.3,15.6-15.1,23.3-23.6l0,0
	c0.6-0.6,1-1.1,1.1-1.2l0,0l-3.1,23.1C439,471,392.9,501.7,346.3,516.7c-21.399,6.899-43,10.5-64.1,11.7
	C259.3,529.7,236.7,528,215.4,524.6z"/>
<path fill="#FFFFFF" stroke="#000000" stroke-miterlimit="10" d="M74.2,427.5c1.2,1.3,3.5,2.4,0.9,5c0,0-5,1.7-8.4,0.6
	c-4.7-4.3-10.4-10.6-11.8-17.3c0.4,0.2,7.3,4,10.5,10.2C65.4,425.9,73,426.2,74.2,427.5z"/>
<path fill="#FFFFFF" stroke="#000000" stroke-miterlimit="10" d="M474.2,392.5c2.5,4,5.1,2.7,6.5,1.5c-7.7,8.5-15.5,16.3-23.3,23.6
	l0,0c-6.5-17.5-135.7-77-135.7-77c2.399-1.8,4.6-3.8,6.8-5.9c0,0,97,16.1,125.4,28c0,4.2,0.899,7.5,0.899,7.5
	c-3.2,1.4-2.1,10.1-2.1,10.1c10.1,1.6,10.5-7.8,10.5-7.8c0-6.2,7.3-9.4,7.3-9.4c-1.2,3.7,7,5.1,7,5.1c-2,3.4,1.5,9.4,1.5,9.4
	c-1.7,2-1.5,8.2-1.5,8.2C474.5,387.4,474.2,392.5,474.2,392.5z"/>
<path fill="#FFFFFF" stroke="#000000" stroke-miterlimit="10" d="M457.4,417.5L457.4,417.5c-19.601,18.2-39.5,32.7-59.4,44.1
	c0.8-19.699-89.2-111.399-90.6-112.8c5.1-2.1,9.899-4.9,14.399-8.3C321.8,340.6,451,400,457.4,417.5z"/>
<path fill="#FFFFFF" stroke="#000000" stroke-miterlimit="10" d="M307.4,348.8c1.399,1.4,91.5,93.101,90.6,112.8l0,0
	c-29.9,17.2-59.9,27.4-88.8,32.7C300,490.4,285.4,370.7,283.6,355C291.7,354,299.8,352.1,307.4,348.8z"/>
<path fill="#FFFFFF" stroke="#000000" stroke-miterlimit="10" d="M212.2,347.1c0,0,3.3,1.2,9,2.6c0,0-118.5,54.4-146.9,77.8
	c-1.2-1.3-8.8-1.6-8.8-1.6c-3.2-6.2-10.1-9.9-10.5-10.2c-0.1-0.3-0.1-0.601-0.2-0.9c-0.1-0.8,1.3-2.6,1.3-3.399
	c0,0,3.7,0.3,9.4,5.199c5.6,5,10.3-0.399,9.3-2.3c0,0,0.9-0.7-3.3-5.1c-1.4-1.5-3.5-3.7-5.8-6.1C119.4,356,212.2,347.1,212.2,347.1z
	"/>
<path fill="#FFFFFF" stroke="#000000" stroke-miterlimit="10" d="M238,353.4c-0.9,0.7-116.9,93.4-116.2,116.1l0,0
	c-31.8-13.6-51.1-26.8-51.1-26.8s4.9,0.5,2.9-4.2c0,0-3.2-2.1-7-5.5c3.4,1.1,8.4-0.6,8.4-0.6c2.6-2.5,0.3-3.7-0.9-5
	C102.5,404,221,349.6,221,349.6C225.5,350.9,231.3,352.2,238,353.4z"/>
<path fill="#FFFFFF" stroke="#000000" stroke-miterlimit="10" d="M259.3,355.8v0.2c0,0-31.4,118.5-43.9,139.9
	c-36.7-5.101-68.9-15.801-93.6-26.4l0,0c-0.7-22.7,115.3-115.4,116.2-116.1C244.4,354.5,251.6,355.4,259.3,355.8z"/>
<path fill="#FFFFFF" stroke="#000000" stroke-miterlimit="10" d="M283.5,355.1c1.9,15.6,16.4,135.4,25.6,139.3
	c-33,6-64.8,5.6-93.8,1.6c12.5-21.3,43.9-139.9,43.9-139.9v-0.2C267.1,356.2,275.3,356.1,283.5,355.1z"/>
<path fill="#FFFFFF" stroke="#000000" stroke-miterlimit="10" d="M283.5,355.1c-8.2,1.1-16.4,1.2-24.3,0.8
	c-7.6-0.4-14.9-1.3-21.3-2.4c-6.7-1.2-12.5-2.5-16.8-3.7c-5.6-1.5-9-2.6-9-2.6c-1.9-1.1-4.7-5.9-7.8-12.5
	c0,0,74.2,18.7,125.101-15.3l-0.9,15.3c-2.1,2.2-4.4,4.2-6.8,5.9c-4.5,3.4-9.3,6.1-14.4,8.3C299.8,352.1,291.7,354,283.5,355.1z"/>
<path fill="#FFFFFF" stroke="#000000" stroke-miterlimit="10" d="M332.2,275.7l-2.7,43.6c-50.9,34-125.1,15.3-125.1,15.3
	c-8.7-18.4-19.6-50.3-19.6-50.3c22.8-39.7-15.2-70.3-15.2-70.3s9.8-12.5,24.9-17.4c8-2.6,18.8-9.4,27.2-15.1c0,0-3.1,14.6,13.2,15.5
	c0,0,12.2,19.1,27.3,10c0,0,23.2,11.2,29-10c0,0,13.399-0.9,10.5-12.7c4,1.9,8.8,3.8,14.2,5.2c16.899,4.2,27.899,13.6,27.899,13.6
	c-1.899,43.9-10,49.9-10,49.9l-0.5,8.5l-0.5,8.3L332.2,275.7z"/>
<path fill="#FFFFFF" stroke="#000000" stroke-miterlimit="10" d="M356.9,200.9c1,1.7-0.101,4.1-2.4,5.4c-2.3,1.3-5,1.1-6-0.6
	c-1-1.7,0.1-4.1,2.4-5.4C353.2,198.9,355.9,199.2,356.9,200.9z"/>
<path fill="#FFFFFF" stroke="#000000" stroke-miterlimit="10" d="M352.5,211.7c2.5,0,4.5,1.6,4.5,3.7c0,2-2,3.7-4.5,3.7
	s-4.5-1.6-4.5-3.7C347.9,213.4,350,211.7,352.5,211.7z"/>
<path fill="#FFFFFF" stroke="#000000" stroke-miterlimit="10" d="M349,228c2.5,0,4.4,2.2,4.4,5c0,2.7-2,5-4.4,5
	c-2.5,0-4.4-2.2-4.4-5S346.6,228,349,228z"/>
<path fill="#FFFFFF" stroke="#000000" stroke-miterlimit="10" d="M342.6,246.9c2.101,0,3.9,2,3.9,4.5s-1.7,4.5-3.9,4.5
	c-2.1,0-3.899-2-3.899-4.5S340.4,246.9,342.6,246.9z"/>
<path fill="#FFFFFF" stroke="#000000" stroke-miterlimit="10" d="M337.6,265.7c0,2.3-2.899,4-5.1,4l0.5-8.3h0.5
	C335.8,261.5,337.6,263.4,337.6,265.7z"/>
<path fill="#FFFFFF" stroke="#000000" stroke-miterlimit="10" d="M346.5,251.3c0-2.5-1.7-4.5-3.9-4.5c-2.1,0-3.899,2-3.899,4.5
	s1.7,4.5,3.899,4.5C344.7,255.8,346.5,253.8,346.5,251.3z M354.5,206.3c2.3-1.3,3.4-3.8,2.4-5.4c-1-1.7-3.7-1.9-6-0.6
	c-2.301,1.3-3.4,3.8-2.4,5.4C349.5,207.3,352.2,207.6,354.5,206.3z M352.5,219.1c2.5,0,4.5-1.6,4.5-3.7s-2-3.7-4.5-3.7
	s-4.5,1.6-4.5,3.7C347.9,217.5,350,219.1,352.5,219.1z M360.6,198.5c0,0-1.199,7.9-4.1,9.1c0,0,8.3,5.5,1.5,11.6
	c-1.3,1.2-3.3,2.4-6,3.7c0,0,13.7,15.9-5.4,21.5c0,0,9.301,10.8-7,15.9c0,0,1.2,7.4-2.1,12c-1.2,1.6-2.9,2.9-5.5,3.3l0.4-6
	c2.3,0,5.1-1.6,5.1-4s-1.8-4.3-4.1-4.3h-0.5l0.5-8.5c0,0,8.1-6,10-49.9C343.6,203.1,354.2,193.4,360.6,198.5z M353.4,232.9
	c0-2.7-2-5-4.4-5c-2.5,0-4.4,2.2-4.4,5c0,2.7,2,5,4.4,5C351.5,237.9,353.4,235.7,353.4,232.9z"/>
<path fill="#FFFFFF" stroke="#000000" stroke-miterlimit="10" d="M464.1,344.6c-1.199,0.5-2.3,1.1-3.199,1.7
	c-2.5,1.3-5.801,2.8-6.601,2.5c0,0-54.2-9.9-69.899-26.1c0,0-20.4-9.5-46.7-50.4c3.3-4.6,2.1-12,2.1-12c16.2-5.1,7-15.9,7-15.9
	c19.101-5.7,5.4-21.5,5.4-21.5c2.7-1.2,4.7-2.5,6-3.7l0,0c0,0,34.399,50.1,40.2,62.1c0,0,58.6,26.1,66.1,42.5c0,0,30.7,13,24.3,40.8
	c0,0,0.3,12.8-0.899,14.5c0,0-2,10.4-5.9,13.5l0,0c-0.4,0.4-0.8,0.8-1.1,1.2l0,0c-1.5,1.3-4,2.5-6.5-1.5c0,0,0.3-5.1,3.199-6.8
	c0,0-0.3-6.2,1.5-8.2c0,0-3.5-5.9-1.5-9.4c0,0-8.1-1.4-7-5.1c0,0-7.3,3.1-7.3,9.4c0,0-0.399,9.5-10.5,7.8c0,0-1.1-8.7,2.101-10.1
	c0,0-0.9-3.2-0.9-7.5c0-5.3,1.2-12.2,7-16.3C462.5,345.4,463.9,344.7,464.1,344.6z"/>
<path fill="#FFFFFF" stroke="#000000" stroke-miterlimit="10" d="M161.2,224.1c0,0-6.8,13.9,8.4,11.1c0,0-9.9,15.5,8.6,16.6
	c0,0-8.1,12.9,3.1,16.3c0,0-12.8,6-4.3,15.5c-5,9.1-46.8,43.9-46.8,43.9C117.1,352.4,75.8,379,75.8,379
	c-3.5,5.1-19.4,14.5-19.4,14.5s4.7,5.1,9.2,9.8c2.2,2.4,4.4,4.601,5.8,6.101c4.2,4.399,3.3,5.1,3.3,5.1c1,1.8-3.6,7.2-9.3,2.3
	c-5.7-5-9.4-5.2-9.4-5.2c0,0.9-1.4,2.601-1.3,3.4c0,0.3,0.1,0.6,0.2,0.9c1.4,6.699,7.1,13,11.8,17.3c3.8,3.399,7,5.5,7,5.5
	c2,4.7-2.9,4.2-2.9,4.2c-4.9-0.9-10.5-3.601-15.9-6.801l0,0c-10.4-6.1-19.6-14-19.6-14c-11.2-18.5-5.4-29.1-5.4-29.1
	c1.5-7.1,11.2-16.6,11.2-16.6c17-47.3,65.3-79,65.3-79C121,277.9,161.2,224.1,161.2,224.1z"/>
<path fill="#FFFFFF" stroke="#000000" stroke-miterlimit="10" d="M181,271.6c2.2,0,4,1.8,4,4c0,2.2-1.8,4-4,4s-4-1.8-4-4
	C177,273.4,178.8,271.6,181,271.6z"/>
<path fill="#FFFFFF" stroke="#000000" stroke-miterlimit="10" d="M182.3,254.4c2.2,0,4,2,4,4.5s-1.8,4.5-4,4.5c-2.2,0-4-2-4-4.5
	S180.1,254.4,182.3,254.4z"/>
<path fill="#FFFFFF" stroke="#000000" stroke-miterlimit="10" d="M175.7,238.1c2.3,0,4.1,2,4.1,4.4s-1.8,4.4-4.1,4.4
	c-2.3,0-4.1-2-4.1-4.4S173.5,238.1,175.7,238.1z"/>
<path fill="#FFFFFF" stroke="#000000" stroke-miterlimit="10" d="M171.3,226.6c0.8,2.1-0.4,4.5-2.6,5.2c-2.2,0.7-4.5-0.4-5.3-2.6
	c-0.8-2.1,0.4-4.5,2.6-5.2S170.6,224.5,171.3,226.6z"/>
<path fill="#FFFFFF" stroke="#000000" stroke-miterlimit="10" d="M158.9,215.4c2.4,0,4.4,1.2,4.4,2.7s-1.9,2.7-4.4,2.7
	c-2.4,0-4.4-1.2-4.4-2.7S156.4,215.4,158.9,215.4z"/>
<path fill="#FFFFFF" stroke="#000000" stroke-miterlimit="10" d="M181,271.6c-2.2,0-4,1.8-4,4c0,2.2,1.8,4,4,4s4-1.8,4-4
	C185,273.4,183.2,271.6,181,271.6z M163.2,218.1c0-1.5-1.9-2.7-4.4-2.7c-2.4,0-4.4,1.2-4.4,2.7s2,2.7,4.4,2.7
	C161.3,220.8,163.2,219.6,163.2,218.1z M155.4,224.1c-16.9-12.5,14.2-10,14.2-10s38,30.6,15.2,70.3l-7.7-0.8
	c-8.5-9.5,4.3-15.5,4.3-15.5c-11.2-3.4-3.1-16.3-3.1-16.3c-18.6-1.1-8.6-16.6-8.6-16.6c-15.2,2.7-8.4-11.1-8.4-11.1
	S156.8,225.1,155.4,224.1z M178.3,258.9c0,2.5,1.8,4.5,4,4.5c2.2,0,4-2,4-4.5s-1.8-4.5-4-4.5C180.1,254.4,178.3,256.4,178.3,258.9z
	 M179.9,242.5c0-2.4-1.8-4.4-4.1-4.4c-2.3,0-4.1,2-4.1,4.4s1.9,4.4,4.1,4.4C178,246.9,179.9,244.9,179.9,242.5z M168.8,231.9
	c2.2-0.7,3.3-3.1,2.6-5.2c-0.8-2.1-3.1-3.3-5.3-2.6c-2.2,0.7-3.3,3.1-2.6,5.2C164.2,231.4,166.6,232.6,168.8,231.9z"/>
<path fill="#FFFFFF" stroke="#000000" stroke-miterlimit="10" d="M231.3,181.5c2.6,0,4.6,2.2,4.6,4.8c0,2.7-2.1,4.8-4.6,4.8
	c-2.6,0-4.6-2.2-4.6-4.8C226.7,183.7,228.8,181.5,231.3,181.5z"/>
<path fill="#FFFFFF" stroke="#000000" stroke-miterlimit="10" d="M249.9,192.5c3,0,5.5,2.5,5.5,5.6s-2.5,5.6-5.5,5.6
	s-5.5-2.5-5.5-5.6S246.8,192.5,249.9,192.5z"/>
<path fill="#FFFFFF" stroke="#000000" stroke-miterlimit="10" d="M293.8,182.7c2.8,0,5.101,2.2,5.101,4.9c0,2.7-2.301,4.9-5.101,4.9
	s-5.1-2.2-5.1-4.9C288.7,184.9,291,182.7,293.8,182.7z"/>
<path fill="#FFFFFF" stroke="#000000" stroke-miterlimit="10" d="M278,195.3c3,0,5.5,2.5,5.5,5.6s-2.5,5.6-5.5,5.6s-5.5-2.5-5.5-5.6
	C272.5,197.9,274.9,195.3,278,195.3z"/>
<path fill="#FFFFFF" stroke="#000000" stroke-miterlimit="10" d="M298.9,187.6c0-2.7-2.301-4.9-5.101-4.9s-5.1,2.2-5.1,4.9
	c0,2.7,2.3,4.9,5.1,4.9S298.9,190.3,298.9,187.6z M288.1,175.9c0,0,4.9,4.4,13.301,8.5c3,11.8-10.4,12.6-10.4,12.6
	c-5.8,21.2-29,10-29,10c-15.1,9.1-27.3-10-27.3-10c-16.2-0.9-13.2-15.5-13.2-15.5c7.5-5.2,13.2-9.6,13.2-9.6
	S263.8,215.5,288.1,175.9z M283.5,201c0-3.1-2.5-5.6-5.5-5.6s-5.5,2.5-5.5,5.6s2.5,5.6,5.5,5.6S283.5,204.1,283.5,201z M255.4,198.1
	c0-3.1-2.5-5.6-5.5-5.6s-5.5,2.5-5.5,5.6s2.5,5.6,5.5,5.6S255.4,201.2,255.4,198.1z M236,186.3c0-2.7-2.1-4.8-4.6-4.8
	c-2.6,0-4.6,2.2-4.6,4.8c0,2.7,2.1,4.8,4.6,4.8C233.9,191.2,236,189,236,186.3z"/>
<path fill="#FFFFFF" stroke="#000000" stroke-miterlimit="10" d="M290.1,131.4c0.4,0.4,4,2.5,4,2.5s-3.8,3.7-5.899,4.4
	c-3.4,1.2-7,1.4-9.9-0.2c-2.8-1.5-7.9-3.3-6-4.3l3.8-2.8c0,0,2.9-2.6,5.7-0.1c0,0,1.3,2.1,3.601,0.1
	C287.5,129.3,289.7,131.1,290.1,131.4z"/>
<path fill="#FFFFFF" stroke="#000000" stroke-miterlimit="10" d="M301.5,87.5c10.1,7.7,4.1,5,4.1,5s-2.1,1.6-7.199,1.7
	c1.8-0.8,3.1-2.5,3.1-4.6c0-1-0.3-2-0.9-2.8C300.9,87.1,301.2,87.3,301.5,87.5z"/>
<path fill="#FFFFFF" stroke="#000000" stroke-miterlimit="10" d="M296.2,87.4c1.1,0,2,1,2,2.2c0,1.2-0.9,2.2-2,2.2
	c-1.101,0-2-1-2-2.2C294.2,88.4,295.1,87.4,296.2,87.4z"/>
<path fill="#FFFFFF" stroke="#000000" stroke-miterlimit="10" d="M296.2,91.8c1.1,0,2-1,2-2.2c0-1.2-0.9-2.2-2-2.2
	c-1.101,0-2,1-2,2.2C294.2,90.8,295.1,91.8,296.2,91.8z M298.3,94.2c-1.3,0-2.8,0-4.6-0.2l0,0c-1.601-0.9-2.7-2.5-2.7-4.4
	c0-2,1.2-3.7,3-4.5c1.9-0.3,4.1,0.1,6.7,1.8c0.5,0.8,0.899,1.7,0.899,2.8C301.5,91.7,300.2,93.5,298.3,94.2z"/>
<path fill="#FFFFFF" stroke="#000000" stroke-miterlimit="10" d="M285.8,92.5c0,0,2.8-6.5,8.2-7.4c-1.8,0.8-3,2.5-3,4.5
	c0,1.9,1.1,3.6,2.7,4.4C291.5,93.8,288.9,93.3,285.8,92.5z"/>
<path fill="#FFFFFF" stroke="#000000" stroke-miterlimit="10" d="M246.1,92.5c0,2.6,2.1,4.8,4.8,5c-3.9,0.1-7.6-0.5-9.7-2.8
	c0,0,2.6-4.3,7-6.3C246.9,89.4,246.1,90.9,246.1,92.5z"/>
<path fill="#FFFFFF" stroke="#000000" stroke-miterlimit="10" d="M256.6,92.5c0-2.6-2-4.8-4.7-5c3.8-0.3,8.4,1.3,13.7,7.3
	c0,0-6.6,2.2-13.1,2.7C254.8,97,256.6,94.9,256.6,92.5z"/>
<path fill="#FFFFFF" stroke="#000000" stroke-miterlimit="10" d="M249.3,92.7c0,1.2,0.9,2.2,2,2.2c1.1,0,2-1,2-2.2
	c0-1.2-0.9-2.2-2-2.2C250.2,90.6,249.3,91.5,249.3,92.7z M256.6,92.5c0,2.4-1.8,4.5-4.2,4.9l0,0c-0.5,0-1,0.1-1.5,0.1
	c-2.7-0.2-4.8-2.4-4.8-5c0-1.6,0.8-3.1,2.1-4l0,0c1.1-0.5,2.4-0.9,3.7-1l0,0C254.5,87.8,256.6,89.9,256.6,92.5z"/>
<path fill="#FFFFFF" stroke="#000000" stroke-miterlimit="10" d="M251.3,90.6c1.1,0,2,1,2,2.2c0,1.2-0.9,2.2-2,2.2c-1.1,0-2-1-2-2.2
	C249.3,91.5,250.2,90.6,251.3,90.6z"/>
<path fill="#FFFFFF" stroke="#000000" stroke-miterlimit="10" d="M305.5,92.5c0,0,6.1,2.6-4.1-5c-0.301-0.2-0.601-0.4-0.801-0.6
	c-2.5-1.7-4.8-2.1-6.699-1.8c-5.301,0.9-8.2,7.4-8.2,7.4c3,0.8,5.7,1.3,7.899,1.5l0,0c1.801,0.2,3.301,0.2,4.601,0.2
	C303.5,94.1,305.5,92.5,305.5,92.5z M245.8,52.8c0.5-0.2,15.1-6.4,19.7-18.7c0,0,3,14.4-2.2,15.9c-1.2,0-1.9,0-1.9,0
	c0.7,0.2,1.4,0.1,1.9,0c5-0.2,18.7-2.1,24.8-15.9c0,0-4.1,15.3-7.5,17c0,0,5.8,1.1,15.1-11.3c0,0,11.399,18.6,14.5,18.1
	c0,0,3.5,5.1,0,18.7s0,15.9,0,15.9c16.2,27.8-8.7,47.1-8.7,47.1c-4.6,4-11,12.3-11,12.3c-1.1,2.8-5.2,5.3-5.2,5.3v8.5l2.9,10.2
	c-24.4,39.7-53.3-4-53.3-4l0.6-34.6c0,0-26.6,2-4.1-26.6c-0.6,0.2-22.5,7.1-13.9-51.6c0,0,17.8,2.3,32.7-21.5
	C250.1,37.5,248.1,51.1,245.8,52.8z M251.9,87.5c-1.3,0.1-2.6,0.5-3.7,1l0,0c-4.4,2-7,6.3-7,6.3c2.1,2.2,5.8,2.9,9.7,2.8
	c0.1,0,0.3,0,0.4,0c0.4,0,0.7,0,1-0.1l0,0c6.6-0.5,13.1-2.7,13.1-2.7C260.3,88.8,255.7,87.2,251.9,87.5L251.9,87.5z M294.1,133.9
	c0,0-3.6-2.2-4-2.5c-0.399-0.3-2.6-2.1-4.6-0.3c-2.4,2-3.6-0.1-3.6-0.1c-2.8-2.5-5.7,0.1-5.7,0.1l-3.8,2.8c-1.9,1.1,3.2,2.8,6,4.3
	c2.9,1.6,6.5,1.3,9.9,0.2C290.2,137.6,294.1,133.9,294.1,133.9z"/>
<path fill="#FFFFFF" stroke="#000000" stroke-miterlimit="10" d="M325.8,103c-2.3,31.2,23.2,20.1,23.2,20.1s-11.4,43.1-63.8,42.5
	v-8.5c0,0,4.1-2.5,5.2-5.3c0,0,6.399-8.3,11-12.3c0,0,24.899-19.3,8.699-47.1c0,0-3.5-2.3,0-15.9s0-18.7,0-18.7
	c-3.1,0.5-14.5-18.1-14.5-18.1C286.3,52.2,280.5,51,280.5,51c3.5-1.7,7.5-17,7.5-17c-6,13.8-19.6,15.7-24.6,16
	c5.2-1.5,2.2-15.9,2.2-15.9c-4.6,12.3-19.3,18.5-19.7,18.7c2.3-1.7,4.3-15.3,4.3-15.3c-15,23.8-32.8,21.5-32.8,21.5
	c-8.6,58.8,13.3,51.8,13.9,51.6c-22.5,28.7,4.1,26.6,4.1,26.6l-0.6,34.6c0,0-50.1,5.1-46.4-17c0,0-23.8-3.4-18-17
	c0,0,11.6,4.5,13.3-11.9c0,0-17.6-50,5.2-78.8c6.2-7.8,17.1-28.9,67.6-36.9c52.2-8.2,64.6,51,64.6,51S328.1,71.8,325.8,103z"/>
<g>
	<path d="M218.1,603.2c0.1,0.899,0.4,1.8,0.7,2.5c0.4,0.7,0.8,1.3,1.4,1.899c0.6,0.601,1.2,1,1.9,1.5c0.7,0.5,1.5,0.9,2.3,1.5v0.101
		c-1.8-0.5-3.5-1.2-4.9-2.4c-0.7-0.6-1.2-1.399-1.5-2.3C217.8,605,217.7,604,218.1,603.2L218.1,603.2z"/>
</g>
<g>
	<path d="M245,611.3c1-1,2-2,3-3l3.1-2.8c1-0.9,2-1.9,3-2.8c0.5-0.5,0.9-1,1.3-1.5s0.8-1.101,1.1-1.8h0.1
		c-0.2,1.399-1.1,2.6-1.9,3.8c-0.9,1.1-1.9,2.1-2.9,3.1C249.7,608.2,247.4,609.9,245,611.3L245,611.3z"/>
</g>
<g>
	<path d="M305,595.5c0.8,1.4,1.8,2.6,2.8,3.8c1.101,1.101,2.2,2.2,3.4,3.101c1.2,0.899,2.5,1.699,3.899,2.5
		c0.7,0.399,1.4,0.699,2.101,1c0.7,0.399,1.5,0.699,2.2,1v0.1c-3.101-0.7-6.2-1.9-8.801-3.8c-1.3-1-2.5-2.101-3.399-3.4
		C306.2,598.4,305.4,597,305,595.5L305,595.5z"/>
</g>
<g>
	<path d="M343.8,601.1c0.5-1.5,0.8-3,1.101-4.5c0.3-1.5,0.6-3,0.899-4.5s0.5-3,0.7-4.5c0.1-0.8,0.2-1.5,0.3-2.3
		c0.101-0.8,0.2-1.5,0.3-2.3h0.101c0.2,3.1,0.1,6.3-0.4,9.3c-0.3,1.5-0.6,3.101-1.1,4.5C345.2,598.4,344.6,599.8,343.8,601.1
		L343.8,601.1z"/>
</g>
<g>
	<path d="M274.8,118.6c0.4-1.1,1.1-1.9,1.9-2.7c0.4-0.4,0.8-0.7,1.3-1c0.5-0.3,1-0.6,1.7-0.5c-0.5,0.3-0.8,0.7-1.2,1.1
		s-0.7,0.8-1.1,1.1C276.6,117.3,275.8,118,274.8,118.6z"/>
</g>
<g>
	<path d="M287,114.3c0.9,0.5,1.5,1.1,2.1,1.8c0.601,0.7,1.101,1.5,1.4,2.4c-0.9-0.5-1.5-1.1-2.1-1.8
		C287.8,116.1,287.2,115.3,287,114.3z"/>
</g>
<g>
	<path d="M286.3,92.4c0.2,3.1,0.5,6.2,0.9,9.2c0.2,1.5,0.399,3.1,0.6,4.6s0.5,3.1,0.9,4.5c-0.5-1.5-0.9-3-1.2-4.5s-0.6-3-0.8-4.6
		c-0.5-3.1-1-6.1-1.4-9.2H286.3z"/>
</g>
<g>
	<path d="M234,80c1.6-0.9,3.2-1.6,4.8-2.3c1.7-0.7,3.4-1.2,5.1-1.7c1.7-0.5,3.5-1.1,5.4-1c0.9,0,1.9,0.2,2.8,0.4
		c0.9,0.2,1.8,0.6,2.6,1.2v0.3c-1.8,0.5-3.5,0.8-5.1,1.1s-3.4,0.2-5.1,0.4c-1.7,0.2-3.4,0.5-5.1,0.8c-1.7,0.3-3.4,0.7-5.1,1.1
		L234,80z"/>
</g>
<g>
	<path d="M310.4,78.4c-1.4-0.7-2.9-1.3-4.4-1.8s-3-0.8-4.5-1c-1.5-0.2-3,0.1-4.4,0c-1.399-0.1-2.899-0.1-4.6-0.2l-0.1-0.3
		c1.1-1.4,2.8-2.2,4.5-2.5c1.8-0.4,3.5,0.2,5.1,0.7s3.2,1.2,4.6,2c1.4,0.9,2.7,1.8,3.9,2.9L310.4,78.4z"/>
</g>
<g>
	<path d="M286,157.3c-1.2,0.5-2.4,0.7-3.6,0.8c-1.2,0.1-2.4,0.2-3.6,0.2c-2.4,0-4.7-0.4-7.1-0.9l0,0l0,0c-3.6-1.1-7.2-2.2-10.8-3.2
		s-7.2-1.9-11-2.5c3.7,0.5,7.4,1.3,11,2.2s7.3,1.9,10.9,2.9l0,0c2.3,0.4,4.6,0.7,6.9,0.7c1.2,0,2.3-0.1,3.4-0.3
		c1.1-0.2,2.3-0.4,3.3-0.9L286,157.3z"/>
</g>
<g>
	<path d="M246.5,90c-0.8,0.3-1.5,0.5-2.3,0.6c-0.8,0.1-1.6,0.1-2.3,0.1c-1.5-0.1-3-0.5-4.4-1.1c1.4,0.5,2.9,0.7,4.4,0.6
		c0.7,0,1.5-0.1,2.2-0.3c0.7-0.2,1.4-0.4,2-0.8L246.5,90z"/>
</g>
<g>
	<path d="M248,89.1c-0.6,0.4-1.2,0.5-1.9,0.6c-0.6,0.1-1.3,0-1.9-0.2c-1.2-0.4-2.2-1.2-3-2.1c0.9,0.8,2,1.4,3.1,1.6
		c0.6,0.1,1.1,0.1,1.7-0.1c0.5-0.1,1.1-0.4,1.4-0.7L248,89.1z"/>
</g>
<g>
	<path d="M248.8,89c-0.6,0.2-1.1,0.2-1.7,0.1c-0.5-0.1-1.1-0.3-1.5-0.6c-0.9-0.6-1.5-1.5-1.9-2.4c0.5,0.8,1.2,1.6,2.1,1.9
		c0.4,0.2,0.9,0.3,1.3,0.3s0.9-0.1,1.2-0.3L248.8,89z"/>
</g>
<g>
	<path d="M301.8,87.2c0.3,0.3,0.7,0.6,1.101,0.7c0.399,0.2,0.899,0.3,1.399,0.3c1,0,2-0.2,3-0.6c-0.899,0.6-1.899,1-2.899,1.1
		c-0.5,0.1-1.101,0-1.7-0.1c-0.601-0.1-1.101-0.3-1.601-0.7L301.8,87.2z"/>
</g>
<g>
	<path d="M300.1,85.6c0.301,0.1,0.7,0.2,1,0.3c0.4,0,0.7,0,1.101,0c0.8-0.1,1.5-0.4,2.2-0.8c-0.601,0.5-1.301,1-2.101,1.3
		c-0.399,0.1-0.8,0.2-1.2,0.3c-0.399,0-0.899,0-1.399-0.1L300.1,85.6z"/>
</g>
<g>
	<path d="M304.1,88.9c0.4,0.2,1,0.4,1.5,0.5s1.101,0.1,1.7-0.1c-0.5,0.3-1.1,0.5-1.7,0.6c-0.6,0.1-1.199,0-1.8-0.1L304.1,88.9z"/>
</g>
<g>
	<polygon points="244.3,96.5 243.8,98.9 243.3,96.5 	"/>
</g>
<g>
	<polygon points="246.6,97.2 246.1,99.3 245.6,97.2 	"/>
</g>
<g>
	<polygon points="249.8,97.7 249.3,100 248.8,97.7 	"/>
</g>
<g>
	<polygon points="255.4,97.2 254.9,100 254.4,97.2 	"/>
</g>
<g>
	<polygon points="258.5,97.2 258,99.3 257.5,97.2 	"/>
</g>
<g>
	<polygon points="261.9,95.9 261.4,98.6 260.9,95.9 	"/>
</g>
<g>
	<polygon points="252.7,97.5 252.2,101 251.7,97.5 	"/>
</g>
<g>
	<polygon points="287.8,92.9 287.3,94.9 286.8,92.9 	"/>
</g>
<g>
	<polygon points="290.1,93.4 289.6,94.9 289.1,93.4 	"/>
</g>
<g>
	<polygon points="292,94.1 291.5,95.4 291,94.1 	"/>
</g>
<g>
	<polygon points="294.3,94.1 293.8,95.9 293.3,94.1 	"/>
</g>
<g>
	<polygon points="295.8,94.3 295.3,95.9 294.8,94.3 	"/>
</g>
<g>
	<polygon points="298.1,94.3 297.6,96.5 297.1,94.3 	"/>
</g>
<g>
	<polygon points="300.2,94.1 299.9,95.4 299.2,94.2 	"/>
</g>
<g>
	<polygon points="302.7,93.9 302.2,95.4 301.7,93.9 	"/>
</g>
<g>
	<polygon points="304.9,93.4 304.4,94.7 303.9,93.4 	"/>
</g>
<g>
	<path d="M250,88.3c-0.4,0-0.8-0.1-1.2-0.2c-0.4-0.1-0.8-0.3-1.2-0.5c-0.4-0.2-0.7-0.5-1-0.8c-0.3-0.3-0.4-0.7-0.4-1.1
		c0.1,0.4,0.3,0.7,0.6,1c0.3,0.2,0.6,0.4,1,0.5c0.7,0.2,1.5,0.2,2.2,0.2V88.3z"/>
</g>
<g>
	<path d="M251.2,87.9c-0.7-0.3-1.3-0.6-1.8-1.1c-0.3-0.2-0.5-0.5-0.6-0.8c-0.2-0.3-0.2-0.7-0.2-1c0.1,0.7,0.5,1.1,1.1,1.4
		c0.5,0.3,1.2,0.5,1.7,0.6L251.2,87.9z"/>
</g>
<g>
	<path d="M253.9,88.3c-0.6-0.3-1.2-0.6-1.7-1c-0.3-0.2-0.5-0.4-0.7-0.7c-0.2-0.3-0.3-0.6-0.2-0.9c0,0.3,0.1,0.6,0.4,0.8
		c0.2,0.2,0.5,0.3,0.8,0.4c0.5,0.2,1.1,0.4,1.7,0.5L253.9,88.3z"/>
</g>
<g>
	<path d="M298.4,85.2c0.699,0,1.399,0,2.1-0.2c0.3-0.1,0.7-0.2,1-0.3c0.3-0.1,0.6-0.4,0.7-0.7c0,0.4-0.3,0.7-0.601,0.9
		c-0.3,0.2-0.6,0.4-1,0.6c-0.699,0.3-1.399,0.5-2.1,0.7L298.4,85.2z"/>
</g>
<g>
	<path d="M296.4,84.4c0.1,0.1,0.399,0.1,0.6,0.1s0.5-0.1,0.7-0.2c0.5-0.2,0.899-0.5,1.2-0.9c-0.2,0.5-0.5,1-1,1.4
		c-0.2,0.2-0.5,0.4-0.801,0.5c-0.3,0.1-0.6,0.2-1,0.2L296.4,84.4z"/>
</g>
<g>
	<path d="M279.8,134.6c0.7,0.1,1.3,0.1,1.9,0.2c0.6,0,1.1,0.1,1.7,0c0.6,0,1.1,0,1.7-0.1c0.601-0.1,1.2-0.1,1.9-0.1v0.1
		c-1.1,0.6-2.4,1.1-3.7,1.1S280.7,135.4,279.8,134.6L279.8,134.6z"/>
</g>
<g>
	<path d="M106.8,297.3c-0.3,2.2-0.6,4.4-0.7,6.6c-0.1,1.1-0.1,2.2-0.1,3.3c0,1.1,0.1,2.2,0.3,3.3c-0.4-1.1-0.5-2.2-0.6-3.3
		c-0.1-1.1-0.1-2.2-0.1-3.3c0-2.2,0.1-4.4,0.2-6.7L106.8,297.3z"/>
</g>
<g>
	<path d="M130.5,327.9c-0.8,0.4-1.6,0.6-2.5,0.8c-0.9,0.2-1.7,0.3-2.6,0.3c-1.7,0-3.5-0.5-4.8-1.6c1.4,0.9,3.2,1.2,4.8,1.1
		c0.8-0.1,1.6-0.3,2.4-0.5c0.8-0.3,1.5-0.6,2.2-1L130.5,327.9z"/>
</g>
<g>
	<path d="M55.3,414.3c-0.3,0.5-0.7,0.9-1.1,1.3c-0.4,0.4-0.9,0.7-1.4,1c-1,0.5-2.1,0.801-3.1,0.9c1-0.2,2-0.7,2.9-1.3
		c0.4-0.3,0.8-0.7,1.1-1.101c0.3-0.399,0.6-0.8,0.8-1.199L55.3,414.3z"/>
</g>
<g>
	<polygon points="55.9,393.7 54.8,390.3 56.8,393.2 	"/>
</g>
<g>
	<polygon points="398.5,281.3 398,287.6 397.5,281.3 	"/>
</g>
<g>
	<polygon points="384.5,322.3 391.7,313.7 385.3,322.9 	"/>
</g>
<g>
	<path d="M65.6,450.9c0.6,1,1.3,2,2,2.899c0.7,0.9,1.5,1.601,2.3,2.101c0.9,0.5,1.9,0.699,2.9,0.699c1.1,0,2.2-0.3,3.4-0.5v0.101
		c-1,0.6-2.2,1.1-3.4,1.2c-1.2,0.199-2.4,0-3.5-0.601c-1.1-0.6-1.9-1.5-2.5-2.5C66.2,453.2,65.8,452,65.6,450.9L65.6,450.9z"/>
</g>
<g>
	<path d="M81.2,457.2c0.4,1.1,0.9,2.2,1.4,3.1c0.6,0.9,1.2,1.7,2,2.2c0.8,0.5,1.8,0.7,2.9,0.8c1.1,0.101,2.2,0,3.5-0.1v0.1
		c-1.1,0.4-2.3,0.7-3.5,0.8c-1.2,0.101-2.4-0.1-3.5-0.8c-1-0.6-1.8-1.6-2.2-2.7C81.4,459.6,81.2,458.4,81.2,457.2L81.2,457.2z"/>
</g>
<g>
	<path d="M94.5,464.1c0.6,1.301,1.2,2.4,1.9,3.5c0.7,1.101,1.5,2,2.4,2.7c0.9,0.7,2,1.101,3.3,1.2c0.6,0.1,1.3,0,1.9,0
		c0.7,0,1.3-0.2,2-0.3v0.1c-1.2,0.601-2.6,1-3.9,1c-1.4,0.101-2.8-0.3-3.9-1.2c-1.1-0.8-1.9-2-2.5-3.199
		C95.1,466.8,94.7,465.5,94.5,464.1L94.5,464.1z"/>
</g>
<g>
	<path d="M111.9,472.3c0.8,1.2,1.7,2.2,2.6,3.2c0.9,0.9,2,1.7,3.1,2.3c1.1,0.601,2.4,0.9,3.7,1c0.7,0.101,1.3,0.101,2,0
		c0.7,0,1.4-0.1,2.1-0.1v0.1c-1.3,0.5-2.7,0.8-4.1,0.8c-1.4,0-2.8-0.3-4.1-0.899c-1.3-0.601-2.4-1.601-3.3-2.7
		S112.3,473.6,111.9,472.3L111.9,472.3z"/>
</g>
<g>
	<path d="M130.3,482.6c1,1.101,2,2.2,3,3.101c1,0.899,2.1,1.8,3.3,2.399c1.2,0.601,2.4,0.9,3.7,0.801c0.7,0,1.3-0.2,2-0.4
		c0.7-0.2,1.3-0.5,2-0.8l0.1,0.1c-1.1,0.9-2.5,1.7-3.9,1.9c-1.5,0.3-3,0-4.3-0.7c-1.3-0.7-2.5-1.7-3.4-2.8
		C131.7,485.2,130.9,483.9,130.3,482.6L130.3,482.6z"/>
</g>
<g>
	<path d="M155.4,489.7c0.6,1.2,1.2,2.3,1.9,3.3c0.7,1,1.6,1.8,2.6,2.2c1,0.399,2.1,0.5,3.3,0.3c0.6-0.1,1.2-0.2,1.8-0.4
		c0.6-0.1,1.2-0.399,1.9-0.6l0.1,0.1c-1.1,0.7-2.3,1.301-3.6,1.7c-1.3,0.4-2.7,0.4-3.9-0.1s-2.2-1.601-2.9-2.7
		C156,492.3,155.6,491,155.4,489.7L155.4,489.7z"/>
</g>
<g>
	<path d="M176.7,496.4c0.8,1.1,1.7,2.199,2.6,3.1c1,0.9,2,1.6,3.1,2s2.4,0.6,3.6,0.5c0.6,0,1.3-0.1,2-0.3c0.7-0.101,1.3-0.3,2-0.4
		v0.101c-1.2,0.6-2.5,1.1-3.9,1.399c-1.4,0.2-2.8,0.101-4.1-0.3c-1.3-0.5-2.4-1.4-3.4-2.4C177.8,499,177.1,497.8,176.7,496.4
		L176.7,496.4z"/>
</g>
<g>
	<path d="M200.9,502.8c1.4,0.7,2.8,1.4,4.2,2c1.4,0.601,2.8,1.2,4.2,1.601c1.4,0.399,2.8,0.699,4.3,0.699c0.7,0,1.4-0.1,2.1-0.3
		c0.7-0.2,1.4-0.5,2.1-0.899l0.1,0.1c-1.2,1.1-2.7,1.7-4.2,1.9c-1.6,0.199-3.2,0-4.7-0.5s-2.9-1.101-4.3-1.9
		C203.4,504.7,202.1,503.8,200.9,502.8L200.9,502.8z"/>
</g>
<g>
	<path d="M233.7,507.8c1.1,1.2,2.5,2,3.8,2.601c1.4,0.5,2.9,0.6,4.4,0.5c1.5-0.101,3-0.601,4.4-1.101c0.7-0.3,1.5-0.6,2.2-0.899
		c0.8-0.301,1.5-0.7,2.2-1l0.1,0.1c-1.3,1-2.7,1.8-4.2,2.5s-3,1.2-4.7,1.4c-1.6,0.199-3.3,0-4.8-0.7
		C235.7,510.3,234.4,509.2,233.7,507.8L233.7,507.8z"/>
</g>
<g>
	<path d="M263.8,507.8c1.6,1.101,3.3,2.101,5.1,2.8c1.8,0.7,3.6,1.2,5.4,1.301c1.8,0.1,3.6-0.301,5.4-1c0.9-0.4,1.7-0.801,2.5-1.4
		c0.8-0.5,1.6-1.1,2.399-1.7l0.101,0.101c-1.3,1.5-2.9,2.8-4.6,3.699c-1.8,0.9-3.8,1.4-5.7,1.301c-2-0.101-3.9-0.7-5.7-1.601
		C266.8,510.4,265.1,509.2,263.8,507.8L263.8,507.8z"/>
</g>
<g>
	<path d="M295.3,505.2c1.101,0.399,2.101,0.899,3.2,1.2c1,0.399,2.1,0.699,3.2,1c2.1,0.5,4.3,0.899,6.399,0.8
		c2.101,0,4.2-0.5,6.2-1.4c1-0.5,1.9-1.1,2.7-1.7c0.9-0.699,1.7-1.5,2.5-2.3l0.1,0.101c-1.3,1.899-2.899,3.5-4.899,4.6
		s-4.2,1.7-6.5,1.8c-2.3,0-4.5-0.399-6.7-1.1C299.2,507.5,297.1,506.5,295.3,505.2L295.3,505.2z"/>
</g>
<g>
	<path d="M329.5,499.6c1.8,0.301,3.6,0.4,5.4,0.301c1.8-0.101,3.5-0.301,5.1-0.801s3.2-1.3,4.6-2.3c0.7-0.5,1.4-1.1,2-1.7
		c0.7-0.6,1.301-1.3,1.9-2l0.1,0.101c-0.899,1.6-2.1,3-3.5,4.2c-1.399,1.199-3,2.1-4.8,2.699c-1.8,0.601-3.6,0.801-5.399,0.7
		C333,500.6,331.2,500.3,329.5,499.6L329.5,499.6z"/>
</g>
<g>
	<path d="M357.7,493c1.8,0.3,3.6,0.3,5.2,0c1.699-0.3,3.199-1,4.5-2c1.3-1,2.399-2.3,3.399-3.7c0.5-0.7,0.9-1.5,1.3-2.3
		c0.4-0.8,0.801-1.6,1.2-2.4h0.101c-0.5,1.7-1.101,3.5-1.9,5.101c-0.9,1.6-2,3.1-3.4,4.2c-1.5,1.1-3.199,1.8-5,2
		C361.2,494,359.4,493.8,357.7,493L357.7,493z"/>
</g>
<g>
	<path d="M381.5,479.4c1.4,0.1,2.8,0.1,4.2-0.101c1.3-0.2,2.6-0.5,3.7-1.2c1.1-0.6,2.1-1.5,3-2.5c0.5-0.5,0.899-1.1,1.199-1.6
		c0.4-0.6,0.801-1.2,1.2-1.8h0.101c-0.4,1.399-1,2.7-1.9,3.899c-0.8,1.2-1.9,2.2-3.2,2.9s-2.7,1-4.1,1.1
		C384.2,480.1,382.8,479.9,381.5,479.4L381.5,479.4z"/>
</g>
<g>
	<path d="M403.5,468.2c1.4-0.601,2.8-1.2,4-1.9c1.3-0.7,2.5-1.5,3.6-2.399c1.101-0.9,2.101-1.9,3.101-3c0.5-0.5,0.899-1.101,1.3-1.7
		c0.5-0.601,0.8-1.2,1.3-1.9h0.101c-1,2.9-2.801,5.5-5.101,7.4c-1.2,0.899-2.5,1.7-3.899,2.3C406.5,467.6,405,468,403.5,468.2
		L403.5,468.2z"/>
</g>
<g>
	<path d="M425.5,454c1.3-0.5,2.4-1.2,3.5-1.9c1.1-0.699,2-1.5,2.8-2.399c0.8-0.9,1.4-2,1.9-3.101c0.2-0.6,0.399-1.199,0.6-1.8
		c0.2-0.6,0.3-1.3,0.4-2h0.1c0.101,1.3,0,2.7-0.399,4c-0.4,1.3-1,2.5-1.9,3.601c-0.9,1-2,1.899-3.2,2.5
		C428.2,453.5,426.9,453.9,425.5,454L425.5,454z"/>
</g>
<g>
	<path d="M441.8,438.3c1.3,0.101,2.601,0.101,3.8-0.1c1.2-0.2,2.2-0.7,2.9-1.5c0.8-0.8,1.2-1.9,1.6-3.101
		c0.2-0.6,0.301-1.199,0.5-1.899c0.2-0.601,0.301-1.3,0.4-2h0.1c0.101,1.3,0,2.6-0.199,4c-0.2,1.3-0.7,2.6-1.601,3.6
		c-0.899,1-2.3,1.5-3.6,1.601C444.3,439.1,443,438.9,441.8,438.3L441.8,438.3z"/>
</g>
<g>
	<path d="M457.4,424.5c0.899-0.7,1.699-1.3,2.5-2c0.8-0.6,1.6-1.3,2.3-1.9c0.7-0.699,1.399-1.399,1.899-2.199
		c0.601-0.801,1-1.7,1.301-2.7h0.1c0,1.1-0.2,2.1-0.7,3.1s-1.2,1.8-2,2.5C461.3,422.8,459.4,423.8,457.4,424.5L457.4,424.5z"/>
</g>
<g>
	<path d="M470.2,411.7c1.399-0.7,2.6-1.3,3.399-2.101c0.4-0.399,0.7-0.899,1-1.5c0.301-0.6,0.5-1.3,0.801-2h0.1
		c0.1,1.5-0.1,3.101-1.2,4.2C473.2,411.4,471.6,411.8,470.2,411.7L470.2,411.7z"/>
</g>
<g>
	<path d="M70.9,464.1c0.9,0.601,1.8,1.2,2.6,1.801c0.8,0.6,1.6,1.199,2.5,1.699c0.8,0.5,1.6,1,2.5,1.101c0.8,0.2,1.7,0,2.7-0.601
		l0.1,0.101c-0.6,0.899-1.7,1.399-2.8,1.399c-1.1-0.1-2.1-0.5-3-1.1C73.7,467.4,72.2,465.8,70.9,464.1L70.9,464.1z"/>
</g>
<g>
	<path d="M86.1,472.3c0.6,0.7,1.2,1.4,1.8,2c0.6,0.601,1.2,1.101,1.8,1.4c0.6,0.3,1.3,0.5,2.1,0.5c0.8,0,1.7-0.2,2.6-0.3l0.1,0.1
		c-0.8,0.5-1.6,0.8-2.5,1s-1.9,0.1-2.7-0.3c-0.8-0.4-1.5-1.101-2-1.8C86.7,474,86.3,473.2,86.1,472.3L86.1,472.3z"/>
</g>
<g>
	<path d="M102.7,480c0.8,0.6,1.5,1.1,2.2,1.6c0.7,0.5,1.4,0.9,2.1,1.2s1.5,0.4,2.2,0.4c0.8,0,1.6-0.3,2.6-0.601l0.1,0.101
		c-0.7,0.6-1.5,1.1-2.5,1.3c-0.9,0.2-1.9,0.1-2.8-0.2s-1.6-0.899-2.3-1.5C103.7,481.6,103.1,480.8,102.7,480L102.7,480z"/>
</g>
<g>
	<path d="M118.7,488.2c1,0.8,1.9,1.5,2.7,2.3c0.9,0.7,1.8,1.4,2.7,2s1.9,1,2.9,1.2s2.1,0,3.2-0.601l0.1,0.101
		c-0.9,0.8-2.1,1.3-3.3,1.3s-2.4-0.5-3.4-1.1c-1-0.601-1.9-1.4-2.7-2.301C120,490.1,119.3,489.2,118.7,488.2L118.7,488.2z"/>
</g>
<g>
	<path d="M138.9,496.4c1.3,0.899,2.6,1.699,3.8,2.5c1.3,0.699,2.6,1.3,4,1.8c1.4,0.399,2.8,0.6,4.2,0.7c0.7,0,1.5-0.101,2.2-0.2
		c0.7-0.101,1.5-0.3,2.2-0.5v0.1c-1.4,0.7-2.8,1.2-4.4,1.4c-1.5,0.2-3.1,0-4.6-0.5s-2.9-1.2-4.1-2.101
		C141,498.6,139.8,497.6,138.9,496.4L138.9,496.4z"/>
</g>
<g>
	<path d="M167,505.3c0.9,0.5,1.7,1.101,2.5,1.601s1.6,1,2.4,1.5c0.8,0.399,1.6,0.8,2.4,0.899c0.8,0.2,1.7,0.101,2.7-0.2l0.1,0.101
		c-0.8,0.6-1.8,0.899-2.8,0.899s-2-0.399-2.8-0.8C169.7,508.2,168.2,506.8,167,505.3L167,505.3z"/>
</g>
<g>
	<path d="M190.1,509.8c1.6,1.5,3.2,2.5,5,2.7c0.9,0.1,1.8,0.1,2.8-0.1c1-0.2,1.9-0.4,3-0.7l0.1,0.1c-0.9,0.601-1.8,1.101-2.8,1.4
		s-2.1,0.5-3.1,0.3C192.8,513.2,191,511.6,190.1,509.8L190.1,509.8z"/>
</g>
<g>
	<path d="M217.9,516.6l4,1.2c1.3,0.4,2.6,0.7,3.9,1c1.3,0.3,2.6,0.4,3.9,0.5c0.7,0,1.3,0,2-0.1c0.7,0,1.3-0.2,2-0.3v0.1
		c-1.2,0.7-2.6,1-4,1.1c-1.4,0.101-2.8,0-4.1-0.3C222.8,519.1,220.3,518.1,217.9,516.6L217.9,516.6z"/>
</g>
<g>
	<path d="M250.8,520c1.4,0.8,2.9,1.4,4.3,1.9c1.5,0.399,2.9,0.699,4.4,0.699s3-0.3,4.4-0.699c0.7-0.2,1.5-0.5,2.2-0.801
		c0.7-0.3,1.4-0.699,2.2-1l0.1,0.101c-1.3,1-2.6,1.899-4.1,2.5c-1.5,0.6-3.1,1-4.7,1s-3.2-0.3-4.7-0.9
		C253.3,522,251.9,521.1,250.8,520L250.8,520z"/>
</g>
<g>
	<path d="M287.6,518.3c1.5,0.601,3,1.101,4.5,1.4s3,0.5,4.5,0.3c1.5-0.1,2.9-0.5,4.301-1.1c0.699-0.301,1.399-0.601,2-1.101
		c0.699-0.399,1.3-0.8,2-1.3l0.1,0.1c-1.1,1.2-2.4,2.2-3.8,3c-1.4,0.801-3,1.2-4.601,1.4c-1.6,0.1-3.199-0.1-4.8-0.6
		C290.3,520,288.8,519.3,287.6,518.3L287.6,518.3z"/>
</g>
<g>
	<path d="M321.8,513.4c1.601,0.199,3.101,0.399,4.601,0.5c1.5,0.1,3,0.1,4.399-0.101c1.4-0.2,2.7-0.7,3.9-1.399
		c0.6-0.4,1.1-0.9,1.6-1.4s0.9-1.2,1.4-1.8h0.1c-0.5,1.5-1.399,2.8-2.6,3.8s-2.7,1.6-4.3,1.8c-1.5,0.2-3.101,0.2-4.601-0.1
		C324.7,514.5,323.2,514.1,321.8,513.4L321.8,513.4z"/>
</g>
<g>
	<path d="M348.5,505.9c1.5,0.1,2.9,0.1,4.3,0c1.4-0.101,2.8-0.301,4.101-0.601c1.3-0.3,2.5-0.899,3.699-1.7
		c0.601-0.399,1.101-0.8,1.601-1.3s1-1.1,1.5-1.6h0.1c-0.6,1.3-1.5,2.6-2.6,3.5c-1.101,1-2.5,1.7-3.9,2.1
		c-1.399,0.4-2.899,0.5-4.399,0.5C351.3,506.6,349.9,506.4,348.5,505.9L348.5,505.9z"/>
</g>
<g>
	<path d="M376.8,493c1.601,0,3.101-0.1,4.601-0.3s3-0.4,4.3-0.8c1.399-0.4,2.6-1.101,3.6-2c0.5-0.5,0.9-1.101,1.3-1.7
		c0.4-0.601,0.601-1.3,0.9-2.101h0.1c-0.199,1.5-0.699,3.101-1.699,4.301c-1,1.199-2.4,2-3.9,2.5s-3.1,0.6-4.6,0.6
		C379.9,493.6,378.3,493.4,376.8,493L376.8,493z"/>
</g>
<g>
	<path d="M401.2,480c1.1-0.2,2-0.5,2.899-1c0.801-0.5,1.601-1.1,2.301-1.8c0.699-0.7,1.3-1.5,1.899-2.3
		c0.601-0.801,1.2-1.7,1.8-2.601h0.101c-0.7,2-1.601,4.101-3.101,5.601C405.6,479.5,403.4,480.4,401.2,480L401.2,480z"/>
</g>
<g>
	<path d="M422,466.8c0.8-0.7,1.6-1.5,2.3-2.2c0.7-0.8,1.4-1.5,2-2.3c0.7-0.8,1.3-1.6,1.9-2.399c0.6-0.801,1.2-1.7,1.899-2.601h0.101
		c-0.7,2-1.8,3.9-3.101,5.601c-0.699,0.8-1.5,1.6-2.3,2.3S423.1,466.5,422,466.8L422,466.8z"/>
</g>
<g>
	<path d="M438.9,450.8c0.699-0.7,1.3-1.3,2-2c0.6-0.7,1.199-1.3,1.8-2l1.8-2.1c0.6-0.7,1.2-1.4,2-2h0.1
		c-0.899,1.7-1.899,3.3-3.1,4.7c-0.6,0.699-1.3,1.399-2,2C440.6,450,439.8,450.6,438.9,450.8L438.9,450.8z"/>
</g>
<g>
	<path d="M454.8,434.4c0.9,0,1.7,0,2.5-0.101c0.8-0.1,1.4-0.3,1.9-0.6s0.899-0.8,1.3-1.5c0.3-0.7,0.6-1.5,1-2.3h0.1
		c0,0.8-0.1,1.699-0.3,2.5c-0.2,0.8-0.7,1.6-1.399,2.1c-0.7,0.5-1.601,0.6-2.5,0.6C456.4,435,455.6,434.8,454.8,434.4L454.8,434.4z"
		/>
</g>
<g>
	<path d="M465.5,422.5c1.4-1.1,2.8-2,4-3.1c0.6-0.5,1.2-1,1.7-1.601c0.5-0.6,1-1.3,1.5-2h0.1c-0.1,0.9-0.5,1.7-0.899,2.4
		c-0.5,0.8-1.101,1.399-1.7,2C468.8,421.3,467.2,422.1,465.5,422.5L465.5,422.5z"/>
</g>
</svg>
