<?xml version="1.0" encoding="utf-8"?>
<!-- Generator: Adobe Illustrator 15.0.0, SVG Export Plug-In . SVG Version: 6.00 Build 0)  -->
<!DOCTYPE svg PUBLIC "-//W3C//DTD SVG 1.1//EN" "http://www.w3.org/Graphics/SVG/1.1/DTD/svg11.dtd">
<svg version="1.1" id="Layer_1" xmlns="http://www.w3.org/2000/svg" xmlns:xlink="http://www.w3.org/1999/xlink" x="0px" y="0px"
	 width="567px" height="822px" viewBox="0 0 567 822" enable-background="new 0 0 567 822" xml:space="preserve">
<title>Coloring hello girl</title>
<desc>Vector coloring hello girl</desc>
<g>
	<g>
		<path fill="#FFFFFF" stroke="#000000" d="M311.8,368.7c-6.1,0.5-12.5,0.5-18.3-0.1c-1.9-0.2-3.8-0.4-5.5-0.7
			c-6-0.9-11.1-2.3-14.2-3.9c-1.7-0.9-1.9-9.3-1.9-9.3s35.9,9.9,66.4-0.5c-3,3.3-6.5,7.1-10.1,11.2l-0.2-0.2
			C323.3,367.1,317.7,368.2,311.8,368.7z"/>
		<path fill="#FFFFFF" stroke="#000000" d="M259.7,292.1c-1.4-11.8-2.2-20.4-2.2-20.4v-0.1c13.2,0.6,26.9,4.3,35.3,14.9
			c0,0-0.8,47.6-15,52.3c-8.4,2.8-10.6,2.1-10.6,2.1C264.1,327.4,261.4,307.2,259.7,292.1z"/>
		<path fill="#FFFFFF" stroke="#000000" d="M348.7,339.6l0.3,3.2c0,0-4.3,4.6-10.6,11.5l0,0c-30.5,10.4-66.4,0.5-66.4,0.5
			c-1.6-2.1-3.3-7.1-4.8-13.9c0,0,2.2,0.6,10.6-2.1c14.2-4.7,15-52.3,15-52.3c0.8,1,1.601,2.1,2.3,3.2c0,0,2.4-2.7,7.101-6
			c0,0.9-1.5,53.4,23.899,56.7C345.1,342.9,348.3,340.8,348.7,339.6z"/>
		<path fill="#FFFFFF" stroke="#000000" d="M348.6,338.8l0.101,0.8c-0.4,1.2-3.601,3.3-22.7,0.8c-25.4-3.3-24-55.8-23.9-56.7l0,0
			c7.7-5.6,21.5-13,40.5-13.6v0.1L348.6,338.8z"/>
		<path fill="#FFFFFF" stroke="#000000" d="M233.8,273.1c-8.5,1.4-14.3,3.1-14.3,3.1c-2-6.3-1.2-13.4,0.3-19.5
			c9.4,0.3,61.3,3.2,74.9,22.6c0,0,56.3-37.4,94.8-16.1l1.9,20.1c-7-3.8-13.7-6.7-20-8.7c-10.601-3.5-20.301-4.6-28.9-4.4
			c-19,0.5-32.8,8-40.5,13.6l0,0c-4.7,3.4-7.1,6-7.1,6c-0.7-1.1-1.4-2.2-2.301-3.2c-8.399-10.6-22-14.3-35.3-14.9
			C248.9,271.2,240.5,272,233.8,273.1z"/>
		<path fill="#FFFFFF" stroke="#000000" d="M387.4,239.8c-3.601,6.2-9.4,4.5-9.4,4.5c-2.6-0.5-5.1-0.8-7.6-1v-0.5
			c0.6-3.8,0.399-7-0.5-9.6C385.9,231.5,387.4,239.8,387.4,239.8z"/>
		<path fill="#FFFFFF" stroke="#000000" d="M250.3,237.8c-2.3,4.4-3.4,8.2-3.5,8.6c-11.2-2.2-21.9-3.6-21.9-3.6
			S227.4,233.7,250.3,237.8z"/>
		<path fill="#FFFFFF" stroke="#000000" d="M246.8,246.4c3.7,0.7,7.4,1.5,10.9,2.4c14.4,3.6,30.6,10.1,36.3,21
			c0,0,30.9-28.9,72.9-26.8c1.199,0.1,2.3,0.1,3.5,0.3c2.5,0.2,5,0.6,7.6,1c0,0,5.8,1.7,9.4-4.5l2.199,23.4
			c-38.6-21.3-94.8,16.1-94.8,16.1c-13.6-19.4-65.5-22.2-74.9-22.6c1.9-7.9,5.1-13.9,5.1-13.9S235.6,244.2,246.8,246.4z"/>
		<path fill="#FFFFFF" stroke="#000000" d="M309.4,244.3c0.199,0.7,0.3,1.4,0.3,2.1c0,4.1-3.4,7.5-7.5,7.5c-4.101,0-7.5-3.4-7.5-7.5
			c0-2.2,0.899-4.1,2.399-5.5c1.301-1.3,3.101-2,5.101-2C305.7,238.9,308.5,241.2,309.4,244.3z"/>
		<path fill="#FFFFFF" stroke="#000000" d="M338.7,219c1.899,0.9,4.5,1.5,7.8,1.6c-7.8,12.9-36.7,23.7-36.7,23.7l-0.3,0.1
			c-0.9-3.1-3.8-5.4-7.2-5.4c-2,0-3.8,0.8-5.1,2c-8-12-14.5-16.6-14.8-16.9c2.9,0.1,5.9-0.5,8.4-2.5C299.8,240,338.7,219,338.7,219z
			"/>
		<path fill="#FFFFFF" stroke="#000000" d="M252.5,234.2c-38.2-43.4-22.7-80.2-22.7-80.2c-10.4-4.9-14.6-13.5-14.6-25.2
			c0-4.6,1.4-8.9,3.8-12.5c0,0,0,0-0.1,0c-14.3-8.3-17.6-29.5-7.2-47.5c8.3-14.4,22.9-22.3,35.8-20.5c13.6-14.3,32.9-23.1,54.1-23.1
			c36.5,0,67,26.2,73.601,60.8c9.399,6.8,21.3,15.7,21.3,28.2c0,15.9-2.2,19-11.9,30.4C370,161.7,451.2,230.1,427.4,270
			c-48,80.5-21,83.2-6.801,74.2c10.101-6.4-7.699,21.4-43.699,30.3c-6.7-4.5-10.7-6.3-10.7-6.3c3.2-3.5,5.1-6.3,5.1-7.8
			c0.4-9,3-61.5,0-85.5l0.101-0.3c6.3,2,13,4.9,20,8.7l-1.9-20.1l-2.2-23.4c0,0-1.5-8.2-17.5-6.6c-2.899-9.2-13-12.2-23.5-12.6
			c-3.3-0.1-5.8-0.7-7.8-1.6c-5.9-2.7-6.1-8.4-6.2-12c-0.1-5.5,0-22,0-22c11-9.8,21.2-20.2,21.2-20.2l6-10.1c0,0-20.5-3.4-21-45
			c0,0-10.6-9.8-12.5-25.9c-1.8-15.7-27.6-8.6-40.9,6.8c-15,17.3-35.5-12.3-35.5-12.3s-23-8.5-10,67.5c0,0-10.5,35.6,24,55.5
			c0,0,14.1,13.5,19.6,14c3,0.2,7.6-1.5,12.8-4.4c-1,5.6-3,8.9-5.4,10.9c-2.5,2.1-5.5,2.6-8.399,2.5l0,0c-3.2-0.1-6.3-0.8-8.5-1.1
			C263.4,222,256.7,228,252.5,234.2z"/>
		<path fill="#FFFFFF" stroke="#000000" d="M252.5,234.2c4.2-6.2,11-12.2,21.3-11.1c2.2,0.2,5.3,1,8.5,1.1l0,0
			c0.3,0.2,6.9,4.8,14.8,16.9c-1.5,1.4-2.399,3.3-2.399,5.5c0,4.1,3.399,7.5,7.5,7.5c4.1,0,7.5-3.4,7.5-7.5c0-0.7-0.101-1.4-0.3-2.1
			l0.3-0.1c0,0,28.899-10.8,36.7-23.7c10.5,0.4,20.6,3.4,23.5,12.6c0.8,2.7,1.1,5.8,0.5,9.6v0.5c-1.2-0.1-2.4-0.2-3.5-0.3
			c-42-2.1-72.9,26.8-72.9,26.8c-5.7-10.9-21.9-17.4-36.3-21c-3.4-0.8-7.2-1.6-10.9-2.4c0.1-0.4,1.2-4.2,3.5-8.6
			C250.9,236.6,251.6,235.4,252.5,234.2z"/>
		<path fill="#FFFFFF" stroke="#000000" d="M332.5,206.9c0.1,3.7,0.3,9.3,6.2,12c0,0-38.8,21-48,2.6c2.399-2,4.399-5.3,5.399-10.9
			c4.5-2.5,9.301-5.8,14.101-9.6c5.399-2,14.1-8.9,22.3-16.2C332.5,184.9,332.4,201.4,332.5,206.9z"/>
		<path fill="#FFFFFF" stroke="#000000" d="M510.5,767.9c-0.1,4.399-0.3,8.899-0.5,13.5c-0.2,4.8,1,24.5-16.4,26.3
			c-150.8,15.7-369.1,6.1-369.1,6.1c-15.9-1.5-19-19-19-19c-0.9-9.1-1.7-18.1-2.3-26.8c0,0,42.8,31.5,102.6,0c0,0,70.2,30,116.7,0
			c0,0,56.9,27,109.4,0C431.8,767.9,473.6,790.5,510.5,767.9z"/>
		<path fill="#FFFFFF" stroke="#000000" d="M511,741.1c0,4.801-0.1,9.7-0.2,14.601c-0.5,0.1-1,0.2-1.6,0.2c-4.101,0-7.5-3.4-7.5-7.5
			c0-4.2,3.399-7.5,7.5-7.5C509.8,740.9,510.4,741,511,741.1z"/>
		<path fill="#FFFFFF" stroke="#000000" d="M428.9,740.9c4.1,0,7.5,3.3,7.5,7.5c0,4.1-3.4,7.5-7.5,7.5c-4.101,0-7.5-3.4-7.5-7.5
			C421.4,744.3,424.8,740.9,428.9,740.9z"/>
		<path fill="#FFFFFF" stroke="#000000" d="M322,740.9c4.1,0,7.5,3.3,7.5,7.5c0,4.1-3.4,7.5-7.5,7.5s-7.5-3.4-7.5-7.5
			C314.5,744.3,317.9,740.9,322,740.9z"/>
		<path fill="#FFFFFF" stroke="#000000" d="M205.7,740.9c4.1,0,7.5,3.3,7.5,7.5c0,4.1-3.4,7.5-7.5,7.5c-4.1,0-7.5-3.4-7.5-7.5
			C198.2,744.3,201.5,740.9,205.7,740.9z"/>
		<path fill="#FFFFFF" stroke="#000000" d="M103.1,740.9c4.1,0,7.5,3.3,7.5,7.5c0,4.1-3.4,7.5-7.5,7.5c-0.3,0-0.5,0-0.8,0
			c-0.3-5-0.5-9.9-0.7-14.801C102.1,741,102.6,740.9,103.1,740.9z"/>
		<path fill="#FFFFFF" stroke="#000000" d="M510.3,701c0.5,12.9,0.8,26.3,0.7,40.2c-0.6-0.101-1.2-0.2-1.8-0.2
			c-4.101,0-7.5,3.3-7.5,7.5c0,4.1,3.399,7.5,7.5,7.5c0.5,0,1.1-0.1,1.6-0.2c-0.1,4-0.2,8.101-0.3,12.2c-36.9,22.5-78.7,0-78.7,0
			c-52.5,27-109.399,0-109.399,0c-46.5,30-116.7,0-116.7,0c-59.8,31.5-102.6,0-102.6,0c-0.3-4.1-0.5-8.1-0.8-12.1c0.3,0,0.5,0,0.8,0
			c4.1,0,7.5-3.4,7.5-7.5c0-4.2-3.4-7.5-7.5-7.5c-0.5,0-1,0-1.5,0.199c-0.6-14.6-0.8-28.6-0.6-42.199c0,0,44.9,42,104.6,0
			c0,0,63.3,42,117,0c0,0,44.101,42,109.101,0C431.8,698.9,468.9,724.7,510.3,701z M436.4,748.4c0-4.2-3.4-7.5-7.5-7.5
			c-4.101,0-7.5,3.3-7.5,7.5c0,4.1,3.399,7.5,7.5,7.5C433,755.9,436.4,752.5,436.4,748.4z M329.5,748.4c0-4.2-3.4-7.5-7.5-7.5
			s-7.5,3.3-7.5,7.5c0,4.1,3.4,7.5,7.5,7.5C326.2,755.9,329.5,752.5,329.5,748.4z M213.2,748.4c0-4.2-3.4-7.5-7.5-7.5
			c-4.1,0-7.5,3.3-7.5,7.5c0,4.1,3.4,7.5,7.5,7.5C209.8,755.9,213.2,752.5,213.2,748.4z"/>
		<path fill="#FFFFFF" stroke="#000000" d="M509.2,681.2c0.399,6.5,0.8,13,1,19.7c-41.4,23.699-78.5-2.101-78.5-2.101
			c-65,42-109.101,0-109.101,0c-53.7,42-117,0-117,0c-59.8,42-104.6,0-104.6,0c0.1-5.1,0.2-10.1,0.4-15l1.7,0.101
			c115.2-54,190.4-315.3,190.4-315.3c5.8,0.5,12.2,0.6,18.3,0.1c0.101,0.7,0.5,5.9,1.5,13.8c-11.5,13.4-22,26.7-25.1,33.4
			c-7.5,16.5-13.3,61.6-4.8,62.1c4,0.2,4.3-2.6,4.3-2.6s5.3,4.3,6.7-2c0,0,5.1,4.699,6.6-1.801c0,0,2.9,1.601,4,0.7
			c7.2-5.8-0.7-39.5,4.1-54.399c1.301-4,4-7.801,7.7-11.5C329.1,487,367.1,673.5,457.6,684C457.4,683.9,504.5,683.9,509.2,681.2
			L509.2,681.2z"/>
		<path fill="#FFFFFF" stroke="#000000" d="M348.6,338.8l-6.1-68.6v-0.1c8.6-0.2,18.3,1,28.9,4.4l-0.101,0.3c3,24,0.4,76.5,0,85.5
			c0,1.5-2,4.4-5.1,7.8c-7.2,7.9-19.3,15.5-30.601,23.2c-7.1,4.9-13.899,9.8-19,14.9c-3.699,3.7-6.399,7.5-7.699,11.5
			c-4.7,14.899,3.1,48.7-4.101,54.399c-1.1,0.9-4-0.699-4-0.699c-1.5,6.399-6.6,1.8-6.6,1.8c-1.3,6.3-6.7,2-6.7,2
			s-0.2,2.899-4.3,2.6c-8.5-0.5-2.7-45.6,4.8-62.1c3-6.7,13.6-19.9,25.1-33.4c5-5.8,10.101-11.6,14.9-17c3.7-4.1,7.1-7.9,10.1-11.2
			l0,0c6.301-6.9,10.601-11.5,10.601-11.5l-0.3-3.2C348.8,339.2,348.6,338.8,348.6,338.8z"/>
		<path fill="#FFFFFF" stroke="#000000" d="M90,315.4c1.5-0.4,5.4,0.8,9.6,0.1c2.7-0.4,4.8,0.5,7,0c5.7-1.1,14.6-2.4,19.9,3.8
			c3.2,3.7,24.5-2.5,30-4.5c30.2-11.3,57.4-5.5,57.4-5.5c6.2-4,14.2-22,19.8-36.3c6.7-1.1,15.1-1.9,23.7-1.5v0.1
			c0,0,0.8,8.7,2.2,20.4c-6.2,8.8-17.4,25.1-26,37.2c-7.4,10.4-96.9,4.4-96.9,4.4c-2.9,0.4-9.9,4.8-12.9,5.5
			c-11,2.6-18.2,2.4-24.4,2.2c-24.3-0.7-24.6-2.4-23.5-5.8c0,0,0.5-0.9,2.3-1.1l0,0c-4.1-0.5-7.3-2-5.1-5.5c0,0-2.8-1.4-1.7-4.2
			c0.6-1.3,2.1-1.5,3.8-1.5v-0.3c0,0,1.5-5.2,8.3-2.3c0,0,4.7-1,7-0.1c0,0,2.6-0.3,2.8-0.2c-0.7-0.2-1.3-0.6-1.6-0.9
			c-1.4-2.1-0.2-3-0.1-3.8C91.8,315.2,89.6,315.5,90,315.4z"/>
		<path fill="#FFFFFF" stroke="#000000" d="M377,374.5c18.6,12.5,58.1,45.3,89.3,115.5c-9.1,5.5-44.899,0-44.899,0
			C359.6,478,335.6,391.4,335.6,391.4c11.301-7.8,23.5-15.3,30.601-23.2C366.2,368.2,370.3,370,377,374.5z"/>
		<path fill="#FFFFFF" stroke="#000000" d="M273.8,364.1c3,1.6,8.1,3,14.2,3.9c-0.5,1-68.8,133.7-147.5,132.5
			C191.5,388.8,273.8,364.1,273.8,364.1z"/>
		<path fill="#FFFFFF" stroke="#000000" d="M509.2,681.2L509.2,681.2c-4.7,2.7-51.8,2.7-51.8,2.7C367,673.3,328.9,486.9,316.6,406.3
			c5-5.1,11.801-10.1,19-14.9c0,0,24,86.5,85.801,98.6c0,0,35.8,5.5,44.899,0C486.9,536,503.9,598.2,509.2,681.2z"/>
		<path fill="#FFFFFF" stroke="#000000" d="M328,365.3l0.2,0.2c-4.8,5.3-9.9,11.2-14.9,17c-1-7.8-1.399-13.1-1.5-13.8
			C317.7,368.2,323.3,367.1,328,365.3z"/>
		<path fill="#FFFFFF" stroke="#000000" d="M288,368c1.8,0.3,3.6,0.5,5.5,0.7c0,0-75.3,261.3-190.4,315.3l-1.7-0.1
			c2.8-78.2,18.4-137.9,39.1-183.301C219.2,501.7,287.5,369,288,368z"/>
	</g>
	<g id="anim-top-viko">
		<path fill="#FFFFFF" d="M294.5,134.6c-4.5-3.6-4.9-40.1,13.3-40.1c19.2,0,15,36.7,13.7,38.8C321,134,300.5,127,294.5,134.6z"/>
		<path fill="#FFFFFF" d="M244,133.3c-1.3-2.1-5.4-38.8,13.7-38.8c18.2,0,17.8,36.5,13.3,40.1C265,127,244.5,134,244,133.3z"/>
	</g>
	<g id="eyes">
		<ellipse fill="#FFFFFF" stroke="#000000" stroke-width="0.25" cx="258" cy="138.7" rx="11.3" ry="15"/>
		<ellipse fill="#FFFFFF" stroke="#000000" stroke-width="0.25" cx="307.3" cy="139" rx="11.3" ry="15"/>
		<circle fill="#FFFFFF" stroke="#000000" stroke-width="0.25" cx="256.8" cy="143.5" r="6.8"/>
		<circle fill="#FFFFFF" stroke="#000000" stroke-width="0.25" cx="305.1" cy="143.5" r="6.8"/>
		<circle fill="#FFFFFF" stroke="#000000" stroke-width="0.25" cx="257.1" cy="143.5" r="3.8"/>
		<circle fill="#FFFFFF" stroke="#000000" stroke-width="0.25" cx="304.8" cy="143.5" r="3.8"/>
		<circle fill="#FFFFFF" stroke="#000000" stroke-width="0.25" cx="255.4" cy="142" r="1.1"/>
		<circle fill="#FFFFFF" stroke="#000000" stroke-width="0.25" cx="303.2" cy="142" r="1.1"/>
	</g>
	<path id="lizo" fill="#FFFFFF" stroke="#000000" d="M359.6,154.6l-6,10.1c0,0-10.1,10.4-21.199,20.2
		c-8.2,7.3-16.9,14.2-22.301,16.2c-4.699,3.7-9.6,7.1-14.1,9.6c-5.2,2.9-9.8,4.6-12.8,4.4c-5.6-0.5-19.6-14-19.6-14
		c-34.5-19.9-24-55.5-24-55.5c-12.9-76,10-67.5,10-67.5s20.5,29.6,35.5,12.3c13.4-15.3,39.2-22.4,40.9-6.8
		c1.8,16.1,12.5,25.9,12.5,25.9C339.1,151.2,359.6,154.6,359.6,154.6z M318.6,139c0-8.3-5.1-15-11.3-15s-11.3,6.7-11.3,15
		s5.1,15,11.3,15S318.6,147.3,318.6,139z M269.3,138.7c0-8.3-5.1-15-11.3-15s-11.3,6.7-11.3,15c0,8.3,5.1,15,11.3,15
		S269.3,147,269.3,138.7z"/>
	<g id="mouth">
		<path fill="#FFFFFF" stroke="#000000" stroke-width="0.25" d="M302.2,188c-31.2,26-30,3.6-30,3.6l0,0
			C281.2,194.9,299.2,188.9,302.2,188z"/>
		<path fill="#FFFFFF" stroke="#000000" stroke-width="0.25" d="M302.1,188c-2.8,1.1-20.7,6.8-29.899,3.6c-1.2-0.4-2.3-0.8-3.1-1.9
			c-2.3-2.9-0.4-11,7.2-5.1c1.5,1.2,2.7,0.6,3.4,0c1.8-1.5,4.8-5.4,9.8-0.5C294,188.7,299.4,188.3,302.1,188L302.1,188z"/>
	</g>
	<g id="niz-via">
		<path d="M313.7,151.3c-1.8,1.7-4,2.7-6.5,2.5c-3.2,0-6.2-1.8-8.3-4.8c0,0,7.399,4.2,16.3-0.2c0,0,5.1-1.7,7.2,3
			c0.199,0.5-2.4-2.3-3.9-2.3c-0.5,0.1,1.1,1.4,1.3,3.1c0,0.3-2.2-2.7-2.8-2.5c-0.5,0.1,0.5,2.8,0.1,2.8
			c-0.399,0.1-1.199-1.4-1.399-2.5c0,0-0.9,3-1.3,3C314.1,153.4,314.6,150.5,313.7,151.3"/>
		<path d="M251.6,151c-0.9-0.8-0.5,2.2-0.8,2.2c-0.4,0-1.3-3-1.3-3c-0.2,1.1-1,2.6-1.4,2.5c-0.4,0,0.7-2.6,0.2-2.8
			c-0.6-0.1-2.8,2.9-2.8,2.5c0.2-1.8,1.7-3.1,1.3-3.2c-1.5-0.1-4.1,2.8-3.9,2.3c2.1-4.7,7.2-3,7.2-3c8.8,4.4,16.3,0.2,16.3,0.2
			c-2,3-5,4.8-8.3,4.8C255.6,153.7,253.4,152.8,251.6,151"/>
	</g>
	<g id="top-via">
		<path d="M268.2,132.9c0,0-3.9-3.4-20.5,0c0,0-12.2,2.9-17.9-8.3c-0.4-0.8,5.7,9.3,17.9,7.4c0,0-8.9-0.1-11.2-7.1
			c-0.2-0.6,5.4,7.6,14.9,5.9c0,0-5.3,0-7.5-4.2c-0.4-0.9,4.1,4.8,11.1,2.9C255.6,129.1,262.8,126.9,268.2,132.9z"/>
		<path d="M310.3,129.6c7,1.9,11.5-3.8,11.101-2.9c-2.2,4.2-7.5,4.2-7.5,4.2c9.5,1.8,15.1-6.5,14.899-5.9c-2.3,7-11.2,7.1-11.2,7.1
			c12.2,1.9,18.4-8.2,17.9-7.4c-5.7,11.2-17.9,8.3-17.9,8.3c-16.6-3.4-20.5,0-20.5,0C302.5,127.1,309.7,129.4,310.3,129.6z"/>
	</g>
	<g id="line">
		<path fill="none" stroke="#000000" stroke-width="0.5" d="M280.1,127c0,0-2.7,21.5-10.4,30.5c-6.1,7.1,1.6,14.5,10.4,11"/>
		<path fill="none" stroke="#000000" stroke-width="0.5" d="M93,320.7c1.2,0.3,2.5,0.4,3.6,0.3c1.4-0.1,3.2,0.7,6.3,0.3
			c1.2-0.2,1.7,0.2,3,1.4c3.3,3.1,4.6,6.4,13.6,5.1"/>
		<path fill="none" stroke="#000000" stroke-width="0.5" d="M72.4,328.8c0.8-0.4,3-0.8,7,1.6c0,0,4.2-1.2,6.4-0.4c2.8,1,5.4-1.5,9,0
			"/>
		<path fill="none" stroke="#000000" stroke-width="0.5" d="M74.7,323.4c1.6,0,3.4,0.5,5.3,1.7c0,0,4.2-1.2,6.4-0.4
			c2.8,1,4.8-0.1,8.4,1.4"/>
		<path fill="none" stroke="#000000" stroke-width="0.5" d="M77.6,334.6c1.3,0,3.1,0.3,5.6,1.4c0,0,4.2-1.2,6.4-0.4
			c2.8,1,5.4-1.5,9,0"/>
		<path fill="none" stroke="#000000" stroke-width="0.5" d="M285.9,457.4c0,0-1,12.699,1.8,17.899"/>
		<path fill="none" stroke="#000000" stroke-width="0.5" d="M292.2,457.4c0,0,0.2,10.699,2.2,15.8"/>
		<path fill="none" stroke="#000000" stroke-width="0.5" d="M298.4,457.4c0,0-0.2,6.199,2.5,14.1"/>
	</g>
</g>
</svg>
