<?xml version="1.0" encoding="utf-8"?>
<!-- Generator: Adobe Illustrator 15.0.0, SVG Export Plug-In . SVG Version: 6.00 Build 0)  -->
<!DOCTYPE svg PUBLIC "-//W3C//DTD SVG 1.1//EN" "http://www.w3.org/Graphics/SVG/1.1/DTD/svg11.dtd">
<svg version="1.1" id="Layer_1" xmlns="http://www.w3.org/2000/svg" xmlns:xlink="http://www.w3.org/1999/xlink" x="0px" y="0px"
	 width="550px" height="400px" viewBox="0 0 550 400" enable-background="new 0 0 550 400" xml:space="preserve">
<title>girl lying coloring</title>
<desc>Vector coloring girl lying. Author Lobaz Roman. Site www.abc-color.com</desc>
<g>
	<path fill="#FFFFFF" stroke="#000000" d="M64.7,214.7c-1.1,0.5-2,1.2-3,2c-5,3.7-12.3,10.5-28.8,4.1c-0.9-0.3-2-1.8-1.9-3.3l0,0
		c0.2-1.4,1.7-2.7,6.2-2.6C46.4,214.9,50.4,218.3,64.7,214.7z"/>
	<path fill="#FFFFFF" stroke="#000000" d="M164.2,84.3c1.7-0.2,3.7,1.3,5,6.8c2.5,11.1-0.5,17,8,33.3c-1-1.2-2-2.1-3.2-3.1
		c-6-5-16.3-12-13.2-33.9C161,86.4,162.5,84.5,164.2,84.3z"/>
	<path fill="#FFFFFF" stroke="#000000" d="M70,213.1c12.1-1.3,8.4,12,8.4,12s-8.4,5.5-15.4,6.7c-8.8,1.5-13.9,1.5-17.8,0.7
		c-3.4-0.7-6-1.9-9.5-3.3c-4.7-1.8-7.1-5.601-4.6-11.7c-0.2,1.4,1,2.9,1.9,3.3c16.5,6.4,23.8-0.3,28.8-4.1c1-0.7,1.9-1.4,3-2l0,0
		C66.2,213.9,67.9,213.3,70,213.1z"/>
	<path fill="#FFFFFF" stroke="#000000" d="M177.2,124.4c1.4,1.6,2.6,3.5,3.5,6.1c5,14.3-12.2,13.6-12.2,13.6s-9.1-8.6-12.5-16.9
		c-4.3-10.3-5.8-16.5-6-21.5c-0.2-4.4,0.6-7.9,1.3-12.5c0.9-6.2,4.8-10.2,12.9-8.9c-1.8,0.2-3.3,2.1-3.4,3.3
		c-3.1,21.8,7.2,28.9,13.2,33.9C175.1,122.3,176.2,123.2,177.2,124.4z"/>
	<path fill="#FFFFFF" stroke="#000000" d="M45.2,232.5c3.9,0.7,9,0.7,17.8-0.7c7-1.2,15.4-6.7,15.4-6.7s12.6,0.4,27.5,2.301
		c31.5,4,38.1,4.399,49.8,8.1c7,2.2,16.3,2.9,20.8,9.8c8.2,12.4-8.7,15.9-8.7,15.9c-22.8,4.5-50.6-4.601-62.2-12.2
		c-5.6-3.6-24.2-12-38.8-12.3C52.2,236.2,45.2,232.5,45.2,232.5L45.2,232.5z"/>
	<path fill="#FFFFFF" stroke="#000000" d="M173.5,178.2c4.1,39.399,5.6,47.7,4.3,63c-0.7,9.1,1.2,20.6-6,28.1
		c-12.9,13.5-21.8-6.1-21.8-6.1c-11.9-26.5-8.7-62.9-2.8-79.2c2.9-7.8,7.7-32.9,4-50.8c-3.7-17.9-1.2-27.5-1.2-27.5l0,0
		c0.2,5,1.6,11.2,6,21.5c3.4,8.2,12.5,16.9,12.5,16.9S171.6,159.5,173.5,178.2z"/>
	<path fill="#FFFFFF" stroke="#000000" d="M446.7,208c6-13.9,13.5-4.3,13.5-4.3C455.7,213.9,446.7,208,446.7,208z"/>
	<path fill="#FFFFFF" stroke="#000000" d="M473,200.4c5.9-12,11.6-4.1,11.6-4.1C480.3,205.2,473,200.4,473,200.4z"/>
	<path fill="#FFFFFF" stroke="#000000" d="M468.6,262.3c1.101,3.101,3.301,9.8,5.5,18.3c-2.6,1.101-16.699,6.7-25.399,3.101
		c0-5.601,0.2-11.8,0.399-16.8C462.4,269.8,468.6,262.3,468.6,262.3z"/>
	<path fill="#FFFFFF" stroke="#000000" d="M503.8,255.8c0,0-6.7,13.9-19.2,15.601c-1-4.4-2.1-8.9-3.1-13.7l0.2-0.101
		c10.1-0.1,13.7-12.399,13.7-12.399l0,0C497.6,248.1,500.5,251.7,503.8,255.8z"/>
	<path fill="#FFFFFF" stroke="#000000" d="M477.5,294.5l-0.4,0.1c0,0-13.1,6.801-28.3,2.4c0-5,0-8.3,0-8.3c-0.1-1.601-0.1-3.3-0.1-5
		c8.8,3.7,22.899-2,25.399-3.101C475.3,284.9,476.4,289.6,477.5,294.5z"/>
	<path fill="#FFFFFF" stroke="#000000" d="M503.8,255.8c2,2.601,4.101,5.4,6.3,8.3c0,0-2.399,18.801-22.8,17.7
		c-0.6-2.2-1.2-4.6-1.8-7l0,0c-0.3-1.1-0.5-2.2-0.8-3.399C497.1,269.8,503.8,255.8,503.8,255.8z"/>
	<path fill="#FFFFFF" stroke="#000000" d="M477.5,294.5c0.8,3.7,1.5,7.5,2.1,11.4c0,0-17.5,7.8-30.699,2.899
		c-0.101-4.399-0.101-8.399-0.2-11.8c15.2,4.4,28.3-2.4,28.3-2.4L477.5,294.5z"/>
	<path fill="#FFFFFF" stroke="#000000" d="M516.3,272.8c0,0.5,0.3,22.3-25.399,21.8c-1.2-3.899-2.4-8.199-3.7-12.6
		c20.399,1.1,22.8-17.7,22.8-17.7C512.2,266.9,514.3,269.8,516.3,272.8L516.3,272.8z"/>
	<path fill="#FFFFFF" stroke="#000000" d="M330.6,251.7c4.601,1.2,17.2,12.2,35.801,3.7c39-17.9,58.1-13.7,58.1-13.7
		c1.1,2.399,2.6,4.8,4.6,6.899c8,8.2,20.601,9,20.601,9s-0.3,3.9-0.5,9.301c-0.3,5-0.5,11.199-0.4,16.8c0,1.8,0.101,3.5,0.101,5
		c0,0-0.101,3.3,0,8.3c0,3.3,0.1,7.4,0.199,11.8c13.2,4.8,30.7-2.899,30.7-2.899c0.7,4.799,1.4,9.699,1.8,14.6
		c1.301,17.5-0.8,34.1-10.899,42.4c0,0-7.5,12.199-20.7,0c-7.7-7.101-24.1-32.4-36.4-52.301c0,0-13.899,27.2-102.6,0
		c0,0-9.7-36.1,18.6-58.699C329.5,251.5,330,251.5,330.6,251.7z"/>
	<path fill="#FFFFFF" stroke="#000000" d="M474.1,280.6c-2.3-8.5-4.5-15.199-5.5-18.3c-0.399-1.2-0.699-1.899-0.699-1.899
		s-0.301-0.7-0.7-1.9c10.7,3.9,18,16,18.2,16.4l0,0c0.6,2.399,1.199,4.8,1.8,7c1.2,4.5,2.399,8.699,3.7,12.6
		c9.199,29.1,18.8,42.3,26.6,44.1c2.9,0.601,5.3,0.9,7.5,0.801l0,0c-0.7,0.1-22.6,2.6-43.7-19c-0.3-4.801-1-9.801-1.8-14.601
		c-0.6-3.899-1.4-7.7-2.1-11.399C476.4,289.6,475.3,284.9,474.1,280.6z"/>
	<path fill="#FFFFFF" stroke="#000000" d="M535.4,306.4c3.699,13.3,5.3,32.199-10.4,33c-2.2,0.1-4.6-0.101-7.5-0.801
		c-7.8-1.8-17.3-15-26.6-44.1c25.8,0.5,25.399-21.4,25.399-21.8C525,284.9,533.1,297.8,535.4,306.4z"/>
	<path fill="#FFFFFF" stroke="#000000" d="M421.5,226.8c-1.2,0-2-0.3-2-0.3c-31.7-9.1-16.1-32.1-16.1-32.1
		c2.699-43.9,32.8-41.5,32.8-41.5c10.2-18.8,28.8-9.1,28.8-9.1c40-1.1,27.7,48.9,24.4,50.5c-0.301,0.1-0.601,0.1-0.9,0
		c-2.7-1.5-4.5-16-4.5-16c-4.3,2.7-5.9,0-5.9,0c-10.699,17.7-37.6,6.5-37.6,6.5c4.3,31.7-7.5,29-7.5,29c-0.8,5-2.4,8.2-4.3,10.101
		C426.3,226.4,423.4,226.9,421.5,226.8z"/>
	<path fill="#FFFFFF" stroke="#000000" d="M481.9,223.2c-0.301,3.7-3.101,9-6.801,10.2c-5.3,1.699-12.899-4.601-12.3-4.5
		c2.601,0.5,5.3,0.699,7-0.301c0.5-0.3,1-0.699,1.4-1.1c0.5-0.4,1.7-0.3,2.2-0.7c0.6-0.3,1.199-1.1,2.8-1
		C480.8,226.2,482.1,221.4,481.9,223.2z"/>
	<path fill="#FFFFFF" stroke="#000000" d="M490.8,201.7c1.2,5.1,1.9,12.3,0.2,19.8c-3.2,14.1-9.1,16.5-9.1,16.5
		s-1.301,2.1-3.601,4.1c-1.5,1.4-3.5,2.7-5.8,3.5c-4,1.301-9.1,0.7-15-5l0,0c-0.7-0.699-1.3-1.199-1.8-1.5c0,0-9.8-4.6-17.3-13.899
		c-3.101-3.7-8.2-3.2-3.9,3.3c2.9,4.4-5.7-4.6-5.7-4.6c1.8-2,3.4-5.101,4.3-10.101c0,0,11.801,2.7,7.5-29c0,0,26.9,11.3,37.601-6.5
		c0,0,1.6,2.7,5.899,0c0,0,1.801,14.6,4.5,16l0,0C488.5,194.3,489.8,197.2,490.8,201.7z M481.9,223.2c0.199-1.8-1.101,3-5.601,2.7
		c-1.7-0.101-2.2,0.699-2.8,1c-0.6,0.3-1.8,0.3-2.2,0.699c-0.399,0.301-0.899,0.7-1.399,1.101c-1.7,1-4.4,0.8-7,0.3
		c-0.5-0.1,7,6.2,12.3,4.5C478.8,232.2,481.5,226.8,481.9,223.2z M484.6,196.3c0,0-5.699-7.9-11.6,4.1
		C473,200.4,480.3,205.2,484.6,196.3z M460.2,203.7c0,0-7.5-9.7-13.5,4.3C446.7,208,455.7,213.9,460.2,203.7z"/>
	<path fill="#FFFFFF" stroke="#000000" d="M490.8,201.7c0.3,0.3,9.2,9.399,8.3,15.5c-0.899,6.3-5,19.2-8.3,22.6c0,0,1.8,2,4.601,5.5
		l0,0c0,0-3.5,12.3-13.7,12.4l-0.2,0.1c-0.5-2.1-0.9-4.3-1.4-6.5c0,0-4.899-2.7-1.8-9l0,0c2.3-2,3.601-4.1,3.601-4.1
		s5.899-2.3,9.1-16.5C492.7,214.1,491.9,206.9,490.8,201.7z"/>
	<path fill="#FFFFFF" stroke="#000000" d="M472.6,245.6c0,0-3,5.801-5.399,12.9c-1.7-4.1-6-13.9-9.5-17.9
		C463.5,246.3,468.6,246.9,472.6,245.6z"/>
	<path fill="#FFFFFF" stroke="#000000" d="M457.7,240.6L457.7,240.6c3.6,3.9,7.8,13.7,9.5,17.9c0.5,1.2,0.7,1.9,0.7,1.9
		s0.3,0.699,0.699,1.899c0,0-6.199,7.5-19.5,4.601c0.301-5.4,0.5-9.301,0.5-9.301s-12.5-0.699-20.6-9c-2-2-3.5-4.5-4.6-6.899
		c-3.2-7.101-2.9-14.601-2.9-14.8c1.8,0.1,4.7-0.4,7.2-3.101c0,0,8.6,9,5.7,4.601c-4.301-6.5,0.899-7.101,3.899-3.301
		c7.601,9.4,17.3,13.9,17.3,13.9C456.4,239.3,457,239.9,457.7,240.6z"/>
	<path fill="#FFFFFF" stroke="#000000" d="M192.1,216.4c-1.8,3.6-9,19.3-9,33.3c0,15.8-12.9,26.5-14.5,27.7
		c-6.5,4.6-19.3,7.6-17.2,26.3c1.9,16.3,7.6,28.8,7.6,28.8l0,0c-7.8,1.2-10.2,0-14.3-26.6c-2.7-17.301,7-32,13.4-33
		c6.5-1.101,11.3-4.801,15-31.5c3.7-26.7,5.2-29.801,12.4-27.5C187.8,214.4,189.9,215.3,192.1,216.4z"/>
	<path fill="#FFFFFF" stroke="#000000" d="M330.6,251.7c-0.6-0.101-1.1-0.101-1.399,0.1C300.9,274.4,310.6,310.5,310.6,310.5
		C233.4,299,209.7,324.1,186,330.5c-13.1,3.5-21.2,1.1-27.1,1.9l0,0c0,0-5.7-12.5-7.6-28.801c-2.2-18.699,10.7-21.699,17.2-26.3
		c1.6-1.2,14.5-11.8,14.5-27.7c0-13.899,7.3-29.6,9-33.3c15.5,7.8,30,22.9,69.1,15.5C312.1,222.3,330.4,251.3,330.6,251.7z"/>
</g>
<g>
	<path fill="none" stroke="#000000" stroke-width="3" stroke-linecap="round" d="M481.9,188.2c0,0-5.4-4.4-10.7,5.2"/>
	<path fill="none" stroke="#000000" stroke-width="3" stroke-linecap="round" d="M457.9,195.9c0,0-7.4-5.6-13.101,5.2"/>
	<path fill="none" stroke="#000000" stroke-linecap="round" d="M467.2,197c0,0,0.399,11.6,9.1,13.9c3.9,1.1,0.5,9-4.6,6.3"/>
	<path fill="none" stroke="#000000" stroke-linecap="round" d="M484,178.2c0,0,5.2-3.9,3.2-8.4"/>
	<path fill="none" stroke="#000000" stroke-linecap="round" d="M478.1,178.2c0,0,10.801-17.2-10.899-13.8"/>
	<path fill="none" stroke="#000000" stroke-linecap="round" d="M440.6,184.7c0,0-5.399-1.2-9.699-6.5"/>
	<path fill="none" stroke="#000000" stroke-linecap="round" d="M464.7,143.7c0,0-6.3,3.5-6.8,9.5"/>
	<path fill="none" stroke="#000000" stroke-linecap="round" d="M436.2,153c0,0,13.399,0,13.399,14.3"/>
	<path fill="none" stroke="#000000" stroke-linecap="round" d="M403.5,194.4c0,0,11.3,1.4,15.4-10.3"/>
	<path fill="none" stroke="#000000" stroke-linecap="round" d="M433,213.7c0,0-5.9-4.2-2.2-20.3"/>
	<path fill="none" stroke="#000000" stroke-linecap="round" d="M473,172.9c0,0-15,16.5-31.1,1.2"/>
	<path fill="none" stroke="#000000" stroke-linecap="round" d="M421.1,200.4c0,0-6.3,5.9-5.899,12.2"/>
	<path fill="none" stroke="#000000" stroke-linecap="round" d="M415.2,197c0,0-11.4,6.1-6.601,18.6"/>
	<path fill="none" stroke="#000000" stroke-linecap="round" d="M425.7,213.7c0,0-0.2,7.899-5.601,8"/>
	<path fill="none" stroke="#000000" stroke-linecap="round" d="M448.8,288.7c0,0-0.7,44.399,3.9,52.3"/>
	<path fill="none" stroke="#000000" stroke-linecap="round" d="M434.6,229.4c0,0,5.801,6.899,10.301,8.3"/>
	<path fill="none" stroke="#000000" stroke-linecap="round" d="M426,225.8c0,0,6.8,10.9,11.2,12.7"/>
	<path fill="none" stroke="#000000" stroke-linecap="round" d="M422.2,226.8c0,0,4.899,12.2,9.2,13.5"/>
	<path fill="none" stroke="#000000" stroke-linecap="round" d="M449.7,257.5c0,0,2.3-1.7,3.1-5"/>
	<path fill="none" stroke="#000000" stroke-width="0.5" stroke-linecap="round" d="M471.2,230.4c0,0,4.3,0.6,5.899-2.2"/>
	<path fill="none" stroke="#000000" stroke-linecap="round" d="M413.2,310.5c-8.601-13.9-15.601-25.8-15.601-25.8"/>
	<path fill="none" stroke="#000000" stroke-linecap="round" d="M448.8,288.7c0,0-23.3-50.101-45.1-35.601"/>
	<path fill="none" stroke="#000000" stroke-linecap="round" d="M447.6,206.1c0,0-1.3,1.2-4.1-1.1"/>
	<path fill="none" stroke="#000000" stroke-linecap="round" d="M448.9,203.9c-0.101,0.1-2.101,1.5-3.4-0.4"/>
	<path fill="none" stroke="#000000" stroke-linecap="round" d="M450,202.5c0,0-1.8,1.4-2.4,0"/>
	<path fill="none" stroke="#000000" stroke-linecap="round" d="M482.3,194.4c0,0,2.601,0.7,3.601-1"/>
	<path fill="none" stroke="#000000" stroke-linecap="round" d="M480.6,193.8c0,0,2,0.1,2.7-1.1"/>
	<path fill="none" stroke="#000000" stroke-linecap="round" d="M478.5,194.1c0,0,2.1-0.3,2-1.4"/>
	<path fill="none" stroke="#000000" stroke-linecap="round" d="M415.1,178.2c6.101-18.1,21.101-10.9,21.101-10.9"/>
</g>
<path stroke="#0000FF" d="M477,197.8c0,0.9,0.6,1.6,1.4,1.6c0.8,0,1.399-0.7,1.399-1.6c0-0.9-0.6-1.6-1.399-1.6
	C477.6,196.1,477,196.9,477,197.8z"/>
<ellipse stroke="#0000FF" cx="453.5" cy="205" rx="1.6" ry="2"/>
</svg>
