<?xml version="1.0" encoding="utf-8"?>
<!-- Generator: Adobe Illustrator 15.0.0, SVG Export Plug-In . SVG Version: 6.00 Build 0)  -->
<!DOCTYPE svg PUBLIC "-//W3C//DTD SVG 1.1//EN" "http://www.w3.org/Graphics/SVG/1.1/DTD/svg11.dtd">
<svg version="1.1" id="layer_x5F_www.ABC-color.com"
	 xmlns="http://www.w3.org/2000/svg" xmlns:xlink="http://www.w3.org/1999/xlink" x="0px" y="0px" width="567px" height="822px"
	 viewBox="0 0 567 822" enable-background="new 0 0 567 822" xml:space="preserve">
<rect display="none" fill="#FFFFFF" width="567" height="822"/>
<path fill="#FFFFFF" stroke="#000000" stroke-width="2" d="M225,348.5c-5.4,0.6-9.8-1.1-15,0.5c-37.6-5.1-33.8-55.6-29.5-83.5
	c8.9,35.5,48.6,49,81.5,42.5c-0.4,7.7,1.4,15.8-2,23c-2.2,0.9-4.5,1.2-6.5,2.5c-4.6-2.4-8.6-8.1-14.4-6.2c-4.2,3.4-1,8.7-0.1,12.7
	c-7-2.5-9.9-4.6-12.5-4c-0.5,1-4.2,2.6-4,4C221.5,342.5,224.3,346.2,225,348.5z"/>
<path fill="#FFFFFF" stroke="#000000" stroke-width="2" d="M268.6,265.3C267,292,224,300,209.5,263
	C228.5,276,246.5,284.5,268.6,265.3z"/>
<path fill="#FFFFFF" stroke="#000000" stroke-width="2" d="M190.5,187.3c32.9-10.1,39.9,45.8,3.4,35.6l0.1-0.4c31-1-2-44.5-9-13
	C181.7,202.3,183.1,191.4,190.5,187.3z"/>
<path fill="#FFFFFF" stroke="#000000" stroke-width="2" d="M185,209.5c7-31.5,40,12,9,13l-0.1,0.4c-0.4-0.1-0.8-0.2-1.2-0.4l0.2-0.5
	c12-8.3-3.5-21.4-6.3-8l-0.3,0.1C185,211.3,185,209.5,185,209.5z"/>
<path fill="#FFFFFF" stroke="#000000" stroke-width="2" d="M192.8,222l-0.2,0.5c-0.1,0-0.1,0-0.2-0.1c-3.4-3.2-5.2-6.1-6.2-8.4
	l0.3-0.1C189.3,200.6,204.8,213.7,192.8,222z"/>
<path fill="#FFFFFF" stroke="#000000" stroke-width="2" d="M265.3,216l-0.2,0.5c-0.1,0-0.1,0-0.2-0.1c-3.4-3.2-5.2-6.1-6.2-8.4
	l0.3-0.1C261.8,194.6,277.3,207.7,265.3,216z"/>
<path fill="#FFFFFF" stroke="#000000" stroke-width="2" d="M257.5,203.5c7-31.5,40,12,9,13l-0.1,0.4c-0.4-0.1-0.8-0.2-1.2-0.4
	l0.2-0.5c12-8.3-3.5-21.4-6.3-8l-0.3,0.1C257.5,205.3,257.5,203.5,257.5,203.5z"/>
<path fill="#FFFFFF" stroke="#000000" stroke-width="2" d="M263,181.3c32.9-10.1,39.9,45.8,3.4,35.6l0.1-0.4c31-1-2-44.5-9-13
	C254.2,196.3,255.6,185.4,263,181.3z"/>
<path fill="#FFFFFF" stroke="#000000" stroke-width="2" d="M167,176c14.1,0.2,8.8-23.5,20-29.7c15.8-8.7,22.7,17.2,40.2,11.9
	c17.1-5.2,33.7-8.8,49.8-8.2c24.9,1,44.9,14.2,67,32c6.7,6.1,9.1,17,10,26c5.6-2.3,10.6-7,17-7c21.8-3,20.5,26.1,14.5,39.5
	c-4.1,7.8-13.5,9.3-21.5,8.5c-3.9,0.2-7.9-0.3-11.8,0.3c-8.602,18-25.3,29.8-41.2,40.7c-15.3,8.5-31.5,16.6-49,18
	c-32.9,6.5-72.6-7-81.5-42.5c-0.1-1,0-2.7-0.5-3.5c-2.1-12.5,0-26.7-5.3-41c-4.4-13.3-8.4-27.5-7.7-42C167,178,167,177,167,176z
	 M266.4,216.9c36.5,10.2,29.5-45.8-3.4-35.6c-7.4,4.1-8.8,15-5.5,22.2c0,0,0,1.9,1.3,4.6c1,2.3,2.9,5.2,6.2,8.4c0.1,0,0.1,0,0.2,0.1
	C265.6,216.7,266,216.8,266.4,216.9z M209.5,263c14.5,37,57.5,29,59.1,2.3C246.5,284.5,228.5,276,209.5,263z M193.9,222.9
	c36.5,10.2,29.5-45.8-3.4-35.6c-7.4,4.1-8.8,15-5.5,22.2c0,0,0,1.9,1.3,4.6c1,2.3,2.9,5.2,6.2,8.4c0.1,0,0.1,0,0.2,0.1
	C193.1,222.7,193.5,222.8,193.9,222.9z"/>
<path fill="#FFFFFF" stroke="#000000" stroke-width="2" d="M234.5,87.5C258.2,87,281,93.2,303,101c19.2,10,38.5,22.7,51,41
	c10.6,17.6,22.2,37.6,17,59c-6.4,0-11.4,4.7-17,7c-0.9-9-3.3-19.9-10-26c0.2-0.3,0.5-0.7,0.7-1c-20.3-51.7-58.3-83.1-109.7-79
	c-17.4,1.4-36.7,7.7-54,16C193,100,214.5,91.2,234.5,87.5z"/>
<path fill="#FFFFFF" stroke="#000000" stroke-width="2" d="M344,182c-22.1-17.8-42-31-67-32c-16.1-0.6-32.7,3-49.8,8.2
	c-17.5,5.3-24.4-20.6-40.2-11.9c-11.2,6.2-5.9,29.9-20,29.7c-1-17.6,3.7-34.3,8-51c2.3-1.8,3.2-5.6,6-7c17.3-8.3,36.6-14.6,54-16
	c51.4-4.1,89.4,27.3,109.7,79C344.4,181.3,344.2,181.6,344,182z"/>
<path fill="#FFFFFF" stroke="#000000" stroke-width="2" d="M167,176c0,1,0,2,0,3c-5.1-1.4-9.9-3.4-15-5c-0.1-0.3-0.2-0.7-0.3-1
	c-25.1-12.6-30.4-48.9-26.7-73c5.5-35.8,30.7-60.6,60-67.8c15.4-3.8,35.3,6,40.8,23.8c2.5,8,4.2,22.3,8.7,31.5
	C214.5,91.2,193,100,181,118c-2.8,1.4-3.7,5.2-6,7C170.7,141.7,166,158.4,167,176z"/>
<path fill="#FFFFFF" stroke="#000000" stroke-width="2" d="M174.7,221c5.3,14.3,3.2,28.5,5.3,41c-30.3,7.8-71.6-7-77-41
	c0-4.3,0-8.7,0-13c0.1-26,25.5-39.9,49-34c5.1,1.6,9.9,3.6,15,5C166.2,193.5,170.2,207.7,174.7,221z"/>
<path fill="#FFFFFF" stroke="#000000" stroke-width="2" d="M293,10c41.5,4.3,76.3,44,74,86c-0.1,15-4.6,29.4-11,43c-0.8,1-1.4,2-2,3
	c-12.5-18.3-31.8-31-51-41c-22-7.8-44.8-14-68.5-13.5C232.4,54.7,246.9,12.4,285,10C287.6,10,290.3,10,293,10z"/>
<path fill="#FFFFFF" stroke="#000000" stroke-width="2" d="M371,201c5.2-21.4-6.4-41.4-17-59c0.6-1,1.2-2,2-3
	c13.4-3.3,26.9-6.5,41-6c33.9-1.3,67.3,24,69,59c0,4,0,8,0,12c-0.7,32.3-34.7,64.2-67,49c-5.5-3-10.1-7.8-13.5-12.5
	C391.4,227,392.8,197.9,371,201z"/>
<path fill="#FFFFFF" stroke="#000000" stroke-width="2" d="M371,301c-4.6-16.9-8.4-34-7-52c8,0.8,17.4-0.7,21.5-8.5
	c3.4,4.7,8,9.5,13.5,12.5c-1.5,5.4,1.9,11,2,17C401.2,283.1,387.2,303.8,371,301z"/>
<path fill="#FFFFFF" stroke="#000000" stroke-width="2" d="M311,329c0-13,0-26,0-39c16-10.9,32.6-22.7,41.2-40.7
	c3.898-0.6,7.898-0.1,11.8-0.3c-1.4,18,2.4,35.1,7,52c4.3,19.8-13.2,33.8-30.6,33.2c-5-0.1-9.9-1.5-14.4-4.2
	C321.1,329,316.1,328.7,311,329z"/>
<path fill="#FFFFFF" stroke="#000000" stroke-width="2" d="M260,331c14.5,22.5,33.4,1,51-2c5.1-0.2,10.1,0,15,1
	c-10.3,18.9-33,28.2-54,26c-6.6-6.8-11-16.1-18.5-22.5C255.5,332.2,257.8,331.8,260,331z"/>
<path fill="#FFFFFF" stroke="#000000" stroke-width="2" d="M262,308c17.5-1.4,33.7-9.5,49-18c0,13,0,26,0,39c-17.6,3-36.5,24.5-51,2
	C263.3,323.8,261.5,315.7,262,308z"/>
<path fill="#FFFFFF" stroke="#000000" stroke-width="2" d="M292,787v12.5v0.6c-5.4-0.198-10.4-2.1-14.5-7.698
	c0.4-0.9,0.6-2.102,0.7-3.302c0.4-0.3,0.7-0.6,1.1-0.898c4.1-0.3,8.3-1.102,12.601-1.9L292,787z"/>
<path fill="#FFFFFF" stroke="#000000" stroke-width="2" d="M357.5,765.4c-0.5,0.898-0.7,2-1.5,3.3c-2.8,1.1-5.9,2.398-8.9,1.898
	c-1.698-1.8-3.198-4-4.8-6c-0.2-0.698-0.3-1.6,0-2.5c3.8-2.3,8-3.8,11.7-6.198C355.9,758.8,356.6,762.1,357.5,765.4z"/>
<path fill="#FFFFFF" stroke="#000000" stroke-width="2" d="M357.5,765.4c10.5,17.5,35,13.8,48.4,25.5c-0.4,1.6-2.2,3.398-3.9,4.698
	c-17.4,2.802-35.8,4.2-51-0.898c-8.1-2.7-15.4-9.602-22.5-10.8c-1.5-0.302-3-0.302-4.5,0.1c-4.5-1.4-9.3-1-14-1
	c2.2-8.5-0.4-17.1-1.5-25.5c0.2-0.2,0.3-0.3,0.5-0.5c13.4,0.1,27.8,0.2,40-3c1.8,0,4.7-0.6,5,2c-3.7,2.4-7.9,3.9-11.7,6.2
	c-0.3,0.898-0.2,1.8,0,2.5c1.602,2,3,4.2,4.8,6c3,0.5,6.102-0.8,8.9-1.9C356.8,767.5,356.9,766.3,357.5,765.4z"/>
<path fill="#FFFFFF" stroke="#000000" stroke-width="2" d="M328.4,783.8l-1.4,8.7l-3.3,0.4c0.7-2.9,0.1-6,0.3-9
	C325.5,783.6,326.9,783.6,328.4,783.8z"/>
<path fill="#FFFFFF" stroke="#000000" stroke-width="2" d="M310,796.4c0-1.9,2-10.5,0-13.5c4.7,0,9.5-0.4,14,1c-0.2,3,0.4,6.1-0.3,9
	C319.4,793.4,314.8,794.9,310,796.4z"/>
<path fill="#FFFFFF" stroke="#000000" stroke-width="2" d="M310,796.4c-6,1.898-12.3,3.898-18,3.698v-0.6V787l-0.1-0.7
	c4.898-0.898,9.898-1.7,14.6-1.8c1.8-1.2,2.2,0,3.5-1.6C312,786,310,794.6,310,796.4z"/>
<path fill="#FFFFFF" stroke="#000000" stroke-width="2" d="M260,760.9c8-0.7,13.5,8.8,11.7,16c-5.8,6.5-17.5,2.5-18.7-6
	C254.1,767.2,258.4,764.8,260,760.9z"/>
<path fill="#FFFFFF" stroke="#000000" stroke-width="2" d="M262,755.9c15.1,0.698,32.5,10.3,46.5,1.5c1.1,8.398,3.7,17,1.5,25.5
	c-1.3,1.6-1.7,0.398-3.5,1.6c-4.8,0.1-9.7,1-14.6,1.8c-4.301,0.8-8.5,1.5-12.602,1.9c-0.3,0.3-0.7,0.6-1.1,0.898
	c-0.1,1.2-0.3,2.4-0.7,3.302c-10.3,16.5-29.6,17.198-46.5,19.5c-6.3,0-12.7,0-19,0c-7.6-3.602-20.9-4.802-20.7-15.802
	c22.5-0.898,44.9-9.5,61.7-25.198c1.2,8.5,12.9,12.5,18.7,6c1.9-7.2-3.7-16.7-11.7-16C260.4,759.2,261.5,757.6,262,755.9z"/>
<path fill="#FFFFFF" stroke="#000000" stroke-width="2" d="M361,544.9c-8.2,12.898-4.7,30.398-6,45c-1.5,16.5-9.1,30.698-11.8,46
	c-2,11-0.7,22.5-1.2,34c-0.4,10-1.9,19.6-1,30c1.7,18.698,10.3,36,8,54c-12.3,3.198-26.6,3.1-40,3c-7.5-61.5-8.4-124.4-15-186
	c17.8,0.898,32.6-13.602,35.3-31C338.2,528.5,351.6,540.3,361,544.9z"/>
<path fill="#FFFFFF" stroke="#000000" stroke-width="2" d="M294,570.9c6.6,61.6,7.5,124.398,15,186c-0.2,0.198-0.3,0.3-0.5,0.5
	c-14,8.8-31.4-0.802-46.5-1.5c0.2-16.802-1.9-32.302-3-47c-1.3-17.2-6.8-33.2-8-49c-2.4-32-20.2-64.4-28-95
	c11.5-5.302,14.7-22.302,26.7-24.7C265.8,549.6,269.5,578.3,294,570.9z"/>
<path fill="#FFFFFF" stroke="#000000" stroke-width="2" d="M220,459.7c0.7-0.3,1.3-0.602,2-0.8c0,5.198,3,9.898,6.5,13.5
	c10.3,5.5,22.3,2.898,33.5,3.5c18.7,0,37.3,0,56,0c15.3,1.898,28.3-8,43-9c9.8,6.898,23.7,1.398,35,5.898c8.4,3.4,20,10.5,29,20.102
	c8.5,9.1,18.5,21.1,20.7,27c5.1,13.698-1.102,30.5-16.7,38.698c-9.6,5-24.4,5.102-35,3.302c-11.9-2-21.1-10.7-33-17
	c-9.4-4.602-22.8-16.5-31.7-5c-2.7,17.398-17.5,31.898-35.3,31c-24.5,7.398-28.2-21.302-44.3-30.7c-12,2.398-15.2,19.398-26.7,24.7
	c-24.4,8.8-61.4,4.1-67-24c-1-5,0.7-10.4-1.2-17c-8.6-13.9-29.4-8.7-39.5-21c-1.9-27.802,24.7-39.9,47.7-43
	C182.2,457.4,204.1,462.1,220,459.7z"/>
<path fill="#FFFFFF" stroke="#000000" stroke-width="2" d="M223,457.9c6.5,2.198,13.6,4.1,21,5c21.6,2.698,61.8,3.198,84,1
	c8.8-0.9,18.5-4.2,24.2-6.802c1.7,0.102,2.6-0.8,3.3-1.698c0.1,0,0.3,0.1,0.4,0.1c0.398,0.4,1.1,1.3,1.198,0.6
	c3.7,2.102,4.602,6.602,4,10.802c-14.698,1-27.698,10.898-43,9c-18.698,0-37.3,0-56,0c-11.2-0.602-23.2,2-33.5-3.5
	c-3.5-3.602-6.5-8.302-6.5-13.5C222.3,458.6,222.6,458.3,223,457.9z"/>
<path fill="#FFFFFF" stroke="#000000" stroke-width="2" d="M261,405c3.7,3.2,7.9,5.3,11.5,8.5c-0.4,0.6-0.7,1.3-1.1,1.8
	c14,32.9,52.4,39.4,84.1,40.2c-0.7,1-1.6,1.8-3.3,1.7c-5.7,2.6-15.4,5.898-24.2,6.8c-22.2,2.2-62.4,1.7-84-1c-7.4-0.9-14.5-2.8-21-5
	c-0.2-6.4,1.7-12.5,1-19c0.1-0.2,0.2-0.5,0.3-0.7C240.6,432.4,252.1,419.3,261,405z"/>
<path fill="#FFFFFF" stroke="#000000" stroke-width="2" d="M326,330c4.5,2.7,9.4,4.1,14.4,4.2c20,10.4,64.698,57,70.8,80.8
	c6.5,25.2-27,41-54.2,40.5c0,0.3,0,0.5,0,0.6c-0.4-0.198-0.8-0.398-1.2-0.6c-0.2-0.2-0.3-0.3-0.398-0.1
	C323.7,454.6,285.3,448.1,271.3,415.2c0.4-0.5,0.7-1.3,1.1-1.8c9.7-4.2,16.3-11.801,20.5-21.5c-7.2-11.7-17.102-22.5-21-36
	C293,358.1,315.7,348.9,326,330z"/>
<path fill="#FFFFFF" stroke="#000000" stroke-width="2" d="M272,356c4,13.5,13.8,24.3,21,36c-4.2,9.7-10.8,17.3-20.5,21.5
	c-3.6-3.2-7.8-5.3-11.5-8.5c-9.7-10.7-18.6-22.2-32.5-25.5c-3.7-3.8-8.6-7.1-12-11.5c-4.5-10,1.5-7.2,2-8.5c0,0,0.4,0.1,1.1,0.3
	c-6.7-12.2,3.8-9.4,5.4-11.3c-0.7-2.3-3.5-6-2.5-8.5c-0.2-1.4,3.5-3,4-4c2.6-0.6,5.5,1.5,12.5,4c-0.9-4-4.1-9.3,0.1-12.7
	c5.9-1.9,9.9,3.8,14.4,6.2C260.9,339.9,265.3,349.1,272,356z"/>
<path fill="#FFFFFF" stroke="#000000" stroke-width="2" d="M224.3,438.3c-0.1,0.2-0.2,0.5-0.3,0.7c-1,0-2,0-3,0
	c3.8-11.8,3.6-27-5-37c1.1-6.4,5.8-19,12.5-22.5c13.8,3.3,22.8,14.7,32.5,25.5C252.1,419.3,240.6,432.4,224.3,438.3z"/>
<path fill="#FFFFFF" stroke="#000000" stroke-width="2" d="M210,349c5.2-1.5,9.6,0.2,15-0.5c-1.6,1.9-12.1-0.9-5.4,11.3
	c-0.7-0.2-1.1-0.3-1.1-0.3c-0.5,1.3-6.5-1.5-2,8.5c3.4,4.4,8.3,7.7,12,11.5c-6.7,3.4-11.4,16.1-12.5,22.5c8.6,10,8.8,25.2,5,37
	c-21,11-77.5,19.5-84-6C129.1,402,180.5,364.5,210,349z"/>
<path fill="none" stroke="#000000" stroke-width="2" d="M195.5,374.5L195.5,374.5C193.3,377.5,189.1,373.3,195.5,374.5"/>
<path fill="none" stroke="#000000" stroke-width="2" stroke-linecap="round" d="M178,385c2.3,0,4.7,0,7,0"/>
<path fill="none" stroke="#000000" stroke-width="2" stroke-linecap="round" d="M293,392c11.6,17.5,33.2,30.8,54,22"/>
<path fill="none" stroke="#000000" stroke-width="2" stroke-linecap="round" d="M347,413.9c-1-3.602-2.8-6.9-3.5-10.5"/>
<path fill="none" stroke="#000000" stroke-width="2" stroke-linecap="round" d="M343.5,403.5c-2.5-3.7-3.6-8.4-5.5-12.5"/>
<path fill="none" stroke="#000000" stroke-width="2" stroke-linecap="round" d="M338,391c-5.1-10.4-8.7-21.6-10-33"/>
<path fill="none" stroke="#000000" stroke-width="2" stroke-linecap="round" d="M338,391c5.5-2.3,10.8-5.6,17-5"/>
<path fill="none" stroke="#000000" stroke-width="2" stroke-linecap="round" d="M343.5,403.5c3.4-3.9,8.4-6.3,13.5-6.5"/>
<path fill="none" stroke="#000000" stroke-width="2" stroke-linecap="round" d="M347,413.9c4.6-3.301,11.5-5.7,18-5"/>
<path fill="none" stroke="#000000" stroke-width="2" stroke-linecap="round" d="M175,125c-6.6-9.9-11.7-21.2-13-33"/>
<path fill="none" stroke="#000000" stroke-width="2" stroke-linecap="round" d="M303,101c1.1-7.2,4-14.4,9-20"/>
<path fill="none" stroke="#000000" stroke-width="2" stroke-linecap="round" d="M173.3,221c-12.9,0.1-27.9-8.2-34.3-20.1"/>
<path fill="none" stroke="#000000" stroke-width="2" stroke-linecap="round" d="M216,402c-3.4-1.7-7.3-0.8-11-1"/>
<path fill="none" stroke="#000000" stroke-width="2" stroke-linecap="round" d="M205,401c-13.7,1.2-28.9-2.5-41.7,2.1"/>
<path fill="none" stroke="#000000" stroke-width="2" stroke-linecap="round" d="M205,401c-0.3-6.5-6.2-11.9-12-14"/>
<path fill="none" stroke="#000000" stroke-width="2" stroke-linecap="round" d="M221.3,360.3c3.1,1,7.7,2.7,8.7,4.7
	c5,4.5,14.6,10.6,17,10.5"/>
<path fill="none" stroke="#000000" stroke-width="2" stroke-linecap="round" d="M318,475.9c10.8,12.1,8.1,28.398,10,43"/>
<path fill="none" stroke="#000000" stroke-width="2" stroke-linecap="round" d="M262,475.9c-8.1,15.5-10.8,32.6-10,50"/>
<path fill="none" stroke="#000000" stroke-width="2" stroke-linecap="round" d="M228.5,472.4c-24.1,3.6-48.4,15.898-65.5,33.5"/>
<path fill="none" stroke="#000000" stroke-width="2" stroke-linecap="round" d="M239,340c9.3,5.4,15.9,12.3,21.5,21.5"/>
<path fill="none" stroke="#000000" stroke-width="2" stroke-linecap="round" d="M226.5,349.3c6.3,3.1,12.6,5.7,18.5,9.7"/>
<path id="www.ABC-color.com" fill="none" stroke="#000000" stroke-width="2" stroke-linecap="round" d="M245,359c3.2,3.8,5,6,9,9"/>
<path fill="none" stroke="#000000" stroke-width="2" stroke-linecap="round" d="M297,94c0.1-13.5-3.9-28.3,2-41"/>
<path fill="none" stroke="#000000" stroke-width="2" stroke-linecap="round" d="M166,143c-13.6-5-17.8-20.3-20-33"/>
<path fill="none" stroke="#000000" stroke-width="2" stroke-linecap="round" d="M247,180c10.1-7.8,24.7-10.8,36-4"/>
<path fill="none" stroke="#000000" stroke-width="2" stroke-linecap="round" d="M188,177c8.6,0.1,18.1-1.3,25,5"/>
<path fill="none" stroke="#000000" stroke-width="2" stroke-linecap="round" d="M387,178c8,0.4,17.8,2.4,22,10"/>
<path fill="none" stroke="#000000" stroke-width="2" stroke-linecap="round" d="M222.3,249.9c5.1-18.1,11.8-39.3,0.7-56.9"/>
<path fill="none" stroke="#000000" stroke-width="2" stroke-linecap="round" d="M244,253c-7.2-0.6-15.7,1.9-21.7-3.1"/>
<path fill="none" stroke="#000000" stroke-width="2" stroke-linecap="round" d="M368,222c0.1,3.1,3,6-2,9"/>
<path fill="none" stroke="#000000" stroke-width="2" stroke-linecap="round" d="M358,227c3.5-1.1,5.8-5.2,10-5"/>
<path fill="none" stroke="#000000" stroke-width="2" stroke-linecap="round" d="M368,222c0.9-1.7,3.3-2.4,5-3"/>
<path fill="none" stroke="#000000" stroke-width="2" stroke-linecap="round" d="M200,377c5.6,1.9,10.2,6.4,12,12"/>
<path fill="none" stroke="#000000" stroke-width="2" stroke-linecap="round" d="M261,660.9c7.7,3.6,17,4.1,25,1"/>
<path fill="none" stroke="#000000" stroke-width="2" stroke-linecap="round" d="M310,659.9c7.1,4.198,16.7,8,24,2"/>
</svg>
