<?xml version="1.0" encoding="utf-8"?>
<!-- Generator: Adobe Illustrator 15.0.0, SVG Export Plug-In . SVG Version: 6.00 Build 0)  -->
<!DOCTYPE svg PUBLIC "-//W3C//DTD SVG 1.1//EN" "http://www.w3.org/Graphics/SVG/1.1/DTD/svg11.dtd">
<svg version="1.1" id="Layer_1" xmlns="http://www.w3.org/2000/svg" xmlns:xlink="http://www.w3.org/1999/xlink" x="0px" y="0px"
	 width="567px" height="822px" viewBox="0 0 567 822" enable-background="new 0 0 567 822" xml:space="preserve">
<path fill="#FFFFFF" d="M0,0h567v822"/>
<path fill="#FFFFFF" stroke="#000000" stroke-width="0.5" stroke-miterlimit="10" d="M303,150.2c-4.9-2.7-9-2.8-9.3-2.8
	c0.5-1.9,0-4.3-1.5-6.5C292.2,141,300.2,142.1,303,150.2z"/>
<path fill="#FFFFFF" stroke="#000000" stroke-width="0.5" stroke-miterlimit="10" d="M298.9,183L298.9,183c-1.801,0-4.2-0.5-7-1.7
	c0,0,2.6-3.1,6-3.8C297.5,178.2,296.1,181.4,298.9,183z"/>
<path fill="#FFFFFF" stroke="#000000" stroke-width="0.5" stroke-miterlimit="10" d="M298.9,183c-2.801-1.6-1.4-4.8-1-5.5
	c1.3-0.3,2.699-0.2,4.1,0.5c0,0,0.8,2.8,0.2,4C301.8,182.7,300.7,183.1,298.9,183L298.9,183z"/>
<path fill="#FFFFFF" stroke="#000000" stroke-width="0.5" stroke-miterlimit="10" d="M318.8,176.1L318.8,176.1c0,0-4.6,2.4-0.1,5.8
	c-7.3-0.3-6.3-3.4-6.3-3.4S315.5,176.2,318.8,176.1z"/>
<path fill="#FFFFFF" stroke="#000000" stroke-width="0.5" stroke-miterlimit="10" d="M318.8,176.1L318.8,176.1
	c0.3-0.1,0.601,0,0.9,0c2.399,3,0.3,5.8,0.3,5.8c-0.5,0-0.9,0-1.4,0C314.2,178.5,318.8,176.1,318.8,176.1z"/>
<path fill="#FFFFFF" stroke="#000000" stroke-width="0.5" stroke-miterlimit="10" d="M319.7,203.4c-1.2,0.9-3.4,1.3-7.4,0.2
	c-2.6-0.7-4.8-2.4-4.8-2.4s1.9-0.2,3.6-1.5c2.801-2.2,4.101-0.5,4.801-0.4c0.399,0,1.6-1,2.399-1c1,0,1.7,0.1,2.101,0.4
	c0.6,0.4,0.6,1,0.5,1.8C321,201,321,202.4,319.7,203.4z"/>
<path fill="#FFFFFF" stroke="#000000" stroke-width="0.5" stroke-miterlimit="10" d="M303,150.2c3.1,1.7,6.4,4.4,9.3,8.7
	c-2.899-2.6-5.8-3-11.7-2.6c0,0-12.8-3.2-22.2,11.6c0.6-15.2,6.4-18.1,9.3-18.2c1.6,0.7,3.3,0.7,4.5-0.2c0.7-0.5,1.2-1.2,1.399-2.1
	C294,147.4,298.1,147.5,303,150.2z"/>
<path fill="#FFFFFF" stroke="#000000" stroke-width="0.5" stroke-miterlimit="10" d="M293.7,147.4c-0.2,0.9-0.7,1.6-1.4,2.1
	c-1.2,0.9-2.899,0.9-4.5,0.2c-1.3-0.6-2.6-1.6-3.6-3c-1.3-1.8-1.9-3.9-1.7-5.7c0.1-1.2,0.7-2.3,1.6-2.9c0.801-0.5,1.7-0.8,2.601-0.7
	c1.899,0.1,4,1.4,5.5,3.5C293.7,143.1,294.2,145.6,293.7,147.4z"/>
<path fill="#FFFFFF" stroke="#000000" stroke-width="0.5" stroke-miterlimit="10" d="M287.8,131.9c2.601,5.1,1.101,5.3-1,5.3l0,0
	c-1.399,0-3.4-1.6-3.7-1.9c-4-3.2-5.2-2.6-10.7-2.2c-10.4,0.8-14-6.8-14-6.8c0.9-0.3,8.3,1.8,9,1.8c4.6,0.3,8.5-0.5,12.3-0.5
	C284,127.7,286.7,129.8,287.8,131.9z"/>
<path fill="#FFFFFF" stroke="#000000" stroke-width="0.5" stroke-miterlimit="10" d="M287.8,149.7c-2.899,0.1-8.7,3-9.3,18.2
	c-0.1,2-0.1,4.1,0,6.6c0,0,0,20.4,1.4,25.9c0,0,1.9,12.6-2.7,13.6c-2.1,0.4-7.6,2.7-9.7,2.7c0,0-20.8,9-15.7-40.9
	c0,0,0.3-31.1,30.8-34.7c-0.2,1.7,0.4,3.8,1.7,5.7C285.2,148.1,286.5,149.2,287.8,149.7z"/>
<path fill="#FFFFFF" stroke="#000000" stroke-width="0.5" stroke-miterlimit="10" d="M256,45.3c-4-9.5-6.3-10.1-5.3-14
	c0.9-3.3,6.6,7.4,6.9,7.9l0,0c0.2,0.5,0.3,0.9,0.4,1.4c2.3,7.7-0.5,16.9-0.5,16.9l-0.1,0.1c-1.8-3.5-4.9-1.9-4.9-1.9
	c-0.1-0.2-0.1-0.4-0.2-0.6l2.3-0.2l-0.9-4.6c-4-10.7-4.5-12.1-3-11.5C252.2,39.5,255.8,45,256,45.3z"/>
<path fill="#FFFFFF" stroke="#000000" stroke-width="0.5" stroke-miterlimit="10" d="M257.4,57.7l0.1-0.1c0,0,2.8-9.2,0.5-16.9
	c-0.1-0.5-0.3-0.9-0.4-1.4l0,0c-2.2-6.4-6.2-12.1-5.8-12.9c0.6-1.4,15.1-3.9,16.5,56.4c0.3,13.8-3.3,24.9-11.4,43
	c-3.4,7.7-7.7,16.6-12.8,27.6c0,0-8.9,52.5,0,70.2c0,0,10.4,19.8,14.8,22.5h1.5c15.4,20.9,11.5,31,11.5,31
	c-10.2,8.9-25.6,39.9-25.6,39.9c-6.6-22.5-20.4-54.9-20.4-54.9c-21.5-42.6-3.1-119.6-3.1-119.6c20.8-41.9,34.4-55.3,34.4-55.3
	c2.1-4.8-2.4-15.7-2.4-15.7c-6-9.9-10-17.9-10-17.9c-4.7-12.6,2.3-6.1,2.3-6.1s3.9,4.7,5,7.7c0.1,0.2,0.1,0.4,0.2,0.6
	C252.4,55.8,255.5,54.1,257.4,57.7z"/>
<path fill="#FFFFFF" stroke="#000000" stroke-width="0.5" stroke-miterlimit="10" d="M278.5,174.5c-0.1-2.4-0.1-4.6,0-6.6
	c9.3-14.7,22.2-11.6,22.2-11.6c6-0.4,8.8,0,11.7,2.6c5.3,4.7,7.399,12.1,7.399,12.1c1.7,2.4,0,5.1,0,5.1c-0.3,0-0.6-0.1-0.899,0
	c-3.301,0.1-6.5,2.4-6.5,2.4s-0.9,3,6.3,3.4c0.399,0,0.899,0,1.399,0c3.7,4.3,1.9,9.2,0.5,16.6H320.4c-0.4-0.3-1.101-0.5-2.101-0.4
	c-0.8,0-2,1.1-2.399,1c-0.7,0-2-1.8-4.801,0.4c-1.699,1.3-3.6,1.5-3.6,1.5s2.1,1.7,4.8,2.4c4,1.1,6.2,0.7,7.4-0.2
	c-2.601,4.1-1.4,2.5-1.5,5.4c-0.4,9.7-9.7,6.3-9.7,6.3c-4.8,3.7-3.9,19.8-3.9,19.8c-0.1,11.6,13.801,12.6,13.801,12.6
	c0.6,0.3,1.199,0.6,1.8,0.9c13.3,7.5,25.8,32.5,25.8,32.5c-3.9-1.1-10.5,7.5-14.8,14l0,0c-5.8-11.2-13.3-13.3-13.3-13.3
	c-5.601,3.5-9.4,14.9-9.4,14.9l0,0c-11.6-20.9-31-22-31-22c-1.4-14.7-14.2-31.1-14.2-31.1c2.8-3.3,5.8-10.6,4.2-26.5
	c2,0,7.6-2.3,9.7-2.7c4.7-1,2.7-13.6,2.7-13.6C278.5,194.9,278.5,174.5,278.5,174.5z M297.8,177.5c-3.399,0.7-6,3.8-6,3.8
	c2.9,1.2,5.3,1.7,7,1.8c1.8,0.1,2.9-0.4,3.3-1.1c0.5-1.2-0.199-4-0.199-4C300.5,177.3,299.1,177.2,297.8,177.5z"/>
<path fill="#FFFFFF" stroke="#000000" stroke-width="0.5" stroke-miterlimit="10" d="M325.8,248.3c0,0,18.3,18.9,23.5,31.8
	c0,0,6.2,6.3,6.8,16.3l-2,0.1c0,0-7.199,0.6-14.3,13.1c3.101-14.4,6.101-22.1,6.101-22.1c-5.9-1.5-14.301,6.8-14.801,7.3
	c4.301-6.5,10.9-15,14.801-14c0,0-12.5-25-25.801-32.5H325.8z"/>
<path fill="#FFFFFF" stroke="#000000" stroke-width="0.5" stroke-miterlimit="10" d="M354.2,296.5c0,0-14.4,35.2-11.8,60.7l0,0
	c-3,1.8-6,3.7-9,5.8c0.899-22.4,3.8-40.5,6.5-53.3C347,297.1,354.2,296.5,354.2,296.5z"/>
<path fill="#FFFFFF" stroke="#000000" stroke-width="0.5" stroke-miterlimit="10" d="M356.1,296.4c0.2,2.5,0,5.2-0.8,8.1
	c-0.6,2.3-1.2,4.5-1.8,6.7l0,0c-1.3,4.6-2.7,9.1-4.2,14.7c0,0-3.8,19.3-2.8,28.9c-1.4,0.8-2.8,1.6-4.2,2.5l0,0
	c-2.5-25.5,11.8-60.7,11.8-60.7L356.1,296.4z"/>
<path fill="#FFFFFF" stroke="#000000" stroke-width="0.5" stroke-miterlimit="10" d="M331.2,294.8c0.5-0.5,8.899-8.7,14.8-7.3
	c0,0-3,7.8-6.1,22.1c-2.801,12.8-5.7,30.9-6.5,53.3c-5.601,3.7-11.101,7.8-16.2,12c6.1-15.6,1.3-57.9,1.3-57.9s5.8-11.9,8.6-15.4
	C327,301.5,328.7,298.5,331.2,294.8L331.2,294.8z"/>
<path fill="#FFFFFF" stroke="#000000" stroke-width="0.5" stroke-miterlimit="10" d="M331.2,294.8c-2.5,3.7-4.2,6.8-4.2,6.8
	c-2.8,3.5-8.6,15.4-8.6,15.4c-0.301-1-5.801-11.3-5.801-11.3c-1.199-3.5-2.6-6.6-4.1-9.4l0,0c0,0,3.8-11.4,9.4-14.9
	C317.9,281.5,325.4,283.6,331.2,294.8z"/>
<path fill="#FFFFFF" stroke="#000000" stroke-width="0.5" stroke-miterlimit="10" d="M318.3,316.9c0,0,4.9,42.3-1.3,57.9
	c-1.6,1.4-3.2,2.8-4.8,4.1c-4.2,1-8.4,1.4-12.7,1.4c3-22.4-2.7-46.8-9.1-65.4c-6.2-18-13-30.5-13-30.5c16.4-2.9,30.1,11,30.8,11.8
	c1.5,2.8,2.899,5.9,4.1,9.4C312.5,305.7,318,315.9,318.3,316.9z"/>
<path fill="#FFFFFF" stroke="#000000" stroke-width="0.5" stroke-miterlimit="10" d="M290.6,315c6.4,18.6,12.101,43,9.101,65.4
	c-5-0.1-9.9-0.8-14.601-1.9c-0.1-0.8-6.899-50.4-23.1-77C262,301.5,283.2,305.5,290.6,315z"/>
<path fill="#FFFFFF" stroke="#000000" stroke-width="0.5" stroke-miterlimit="10" d="M277.4,274.3c0,0,19.4,1.1,31,22
	c-0.801-0.8-14.4-14.8-30.8-11.8c0,0,6.8,12.5,13,30.5c-7.399-9.5-28.6-13.5-28.6-13.5c16.1,26.5,23,76.1,23.1,77
	c-15.8-3.7-28.3-11.6-28.8-11.9c2.8-15.6-6.8-36.3-6.8-36.3c-0.5-3.6-1.6-8.2-3.1-13.3c0,0,15.4-31,25.6-39.9c0,0,3.9-10.1-11.5-31
	H259c0,0,2.1-0.3,4.2-2.8C263.2,243.3,276.1,259.7,277.4,274.3z"/>
<path fill="#FFFFFF" stroke="#000000" stroke-width="0.5" stroke-miterlimit="10" d="M285.1,378.4c4.7,1.1,9.601,1.9,14.601,1.9
	c4.2,0.1,8.5-0.3,12.7-1.4c-3.9,3.5-7.301,7.1-10.101,10.7c-6.399,0.5-12.7,0.3-18.7-0.3c-3.3-0.3-6.4-0.8-9.4-1.3
	c-3.8-0.6-7.3-1.4-10.5-2.1c-2.7-0.7-5.2-1.4-7.3-2c-6.2-1.8-9.9-3.4-9.9-3.4c5.9-3,8.8-8.2,9.9-14.2
	C256.8,366.8,269.3,374.7,285.1,378.4z"/>
<path fill="#FFFFFF" stroke="#000000" stroke-width="0.5" stroke-miterlimit="10" d="M246.4,380.7c0,0,3.7,1.5,9.9,3.4
	c-14.9-3.6-38.8,9.4-38.8,9.4c-0.2,0.1-0.3,0.2-0.5,0.3c0,0-0.1,0-0.1,0.1c-0.1,0-0.2,0.1-0.2,0.1c-0.1,0.1-0.2,0.1-0.4,0.2
	c0,0-0.1,0-0.1,0.1c-26.6,15.101-61.3,6.9-62.1,6.7C202.2,385.4,246.4,380.7,246.4,380.7z"/>
<path fill="#FFFFFF" stroke="#000000" stroke-width="0.5" stroke-miterlimit="10" d="M263.6,386.1c-13.4-0.3-31.9,15.6-31.9,15.6
	l0,0c-27.6,20-62.7,31.7-62.7,31.7c-1.1-10.101,39.2-34.4,47.1-39.101c0,0,0.1,0,0.1-0.1c0.1-0.1,0.3-0.2,0.4-0.2s0.2-0.1,0.2-0.1
	c0.1,0,0.1-0.1,0.1-0.1c0.2-0.1,0.3-0.2,0.5-0.3c0,0,23.9-13,38.8-9.4C258.5,384.7,260.9,385.4,263.6,386.1z"/>
<path fill="#FFFFFF" stroke="#000000" stroke-width="0.5" stroke-miterlimit="10" d="M274.1,388.4c-11.7-1.8-23.2,20.6-23.2,20.6
	c-18.3,29.6-43.4,44-43.4,44c-6.2-16.2,23.4-50.3,24.2-51.3l0,0c0,0,18.5-16,31.9-15.6c3.2,0.8,6.7,1.5,10.5,2.1V388.4z"/>
<path fill="#FFFFFF" stroke="#000000" stroke-width="0.5" stroke-miterlimit="10" d="M274.1,388.4v-0.2c3,0.5,6.2,0.9,9.4,1.3v0.5
	c1.5,4-3.5,24-3.5,24c-4,28.2-29.1,52-29.1,52c-10.9-13.6,0-57,0-57S262.4,386.5,274.1,388.4z"/>
<path fill="#FFFFFF" stroke="#000000" stroke-width="0.5" stroke-miterlimit="10" d="M302.3,389.7c2.8-3.6,6.2-7.2,10.101-10.7
	c1.5-1.4,3.1-2.8,4.8-4.1c5.1-4.2,10.6-8.2,16.2-12c3-2,6.1-3.9,9-5.8c1.399-0.9,2.8-1.7,4.199-2.5c0,0,6.4-5.3,10.601-8.9
	c0,0,2.5-17.2-3.601-34.6l0,0c0.601-2.2,1.2-4.4,1.801-6.7c0.699-2.9,0.899-5.6,0.8-8.1c-0.601-10-6.8-16.3-6.8-16.3
	c-5.2-12.9-23.5-31.8-23.5-31.8s24-4.5,33.5,9.8c0,0,12.5,15.3,17,43.4c0,0,13.1,40.6,2.199,56.3c0,0-7.8,9.8-36.3,28.9
	c-0.8,0.6-1.7,1.1-2.6,1.7c-1.8,1.2-3.8,2.5-5.8,3.8c-4,2.6-8.4,5.3-13.101,8.2c0-0.1-0.1,0-0.1,0.101c-3.2,1.899-6.5,4-10.101,6
	c0,0-6,11.899-3.699,32.699c0.399,3.601,2.1,8,0.8,12.601c-0.2,0.6-0.601,1-1.101,1.1c-1.1,0.4,0.801,4.3,0.801,6.2
	c0,0.3-0.801,1.5-1.7,1.4c-0.4,0,0.5,1.399-0.4,2c-2.399,1.6-2.5-0.801-3.1-0.601c-3.2,1-6-5.1-7.9-9.1
	c-4.8-10.101-8.399-20.9,1.601-51.8C297.1,397.4,299.3,393.5,302.3,389.7z"/>
<path fill="#FFFFFF" stroke="#000000" stroke-width="0.5" stroke-miterlimit="10" d="M342.2,386.8c40.2,10.2,75.3,30.601,94.1,43
	c-0.8,0-48.1,2.8-69.8-24.3c0.4,0.5,0.9,1.1,1.3,1.7c-1-1-15.899-15.8-28.3-18.7C340.5,387.9,341.3,387.3,342.2,386.8z"/>
<path fill="#FFFFFF" stroke="#000000" stroke-width="0.5" stroke-miterlimit="10" d="M367.9,407.2c11.6,14.2,29.699,31.3,27.6,52.8
	c0,0-32-24.4-43-49l0,0c0,0-3.3-7.5-18.7-18.8c2-1.3,3.9-2.6,5.8-3.8C352,391.4,366.8,406.2,367.9,407.2L367.9,407.2z"/>
<path fill="#FFFFFF" stroke="#000000" stroke-width="0.5" stroke-miterlimit="10" d="M323.4,415c0,0-14.301,67.8-20.7,62.5
	C289.7,466.7,280,414,280,414s5-20,3.5-24v-0.5c6,0.6,12.3,0.8,18.7,0.3c-3,3.8-5.2,7.7-6.4,11.4c-10,30.899-6.5,41.6-1.6,51.8
	c1.899,3.9,4.7,10.1,7.899,9.1c0.7-0.199,0.7,2.101,3.101,0.601c0.899-0.601,0-2,0.399-2c0.9,0.1,1.7-1.2,1.7-1.4
	c0-1.899-1.8-5.8-0.8-6.2c0.5-0.1,1-0.5,1.1-1.1c1.301-4.5-0.399-8.9-0.8-12.6c-2.3-20.801,3.7-32.7,3.7-32.7
	c3.5-2.101,6.9-4.101,10.1-6c0,0,0.101,0,0.101-0.101C321.3,401.3,323.4,415,323.4,415z"/>
<path fill="#FFFFFF" stroke="#000000" stroke-width="0.5" stroke-miterlimit="10" d="M352.5,411c0.3,1.1,11.2,49,2.9,62.3
	c-0.7,1-27.9-28.5-32-58.3c0,0-2.101-13.8-2.7-14.6c4.7-2.9,9.1-5.601,13.1-8.2C349.2,403.5,352.5,411,352.5,411L352.5,411z"/>
<path fill="#FFFFFF" stroke="#000000" stroke-width="0.5" stroke-miterlimit="10" d="M368.1,440.9c0,0.1,0.101,0.199,0.101,0.399
	c1.899,6.5,15.8,56.2,2.3,72.101c-1,1.199-38.9-33.101-44.7-67.601c0,0-9.2,73.4-18.3,67.2c-18.2-12.5-27.3-72.4-27.3-72.4
	c-5.6,32.7-40,66.4-40,66.4c-15.1-15.8-4.5-71.5-4.5-71.5C225.3,471.8,191,493,191,493c-8.8-19,15.5-69.8,15.5-69.8
	C172.3,453.3,135,470,135,470c-1.8-13,40-58.5,40-58.5C137.6,430.3,94.7,427,94,427c18.7-10.9,39.7-19.4,60-26l0,0
	c0.8,0.2,35.6,8.4,62.1-6.7c-8,4.7-48.3,29-47.1,39.101c0,0,35.1-11.801,62.7-31.7c-0.8,1-30.4,35.1-24.2,51.3c0,0,25-14.4,43.4-44
	c0,0-10.9,43.4,0,57c0,0,25.1-23.8,29.1-52c0,0,9.7,52.7,22.7,63.5c6.5,5.4,20.7-62.5,20.7-62.5c4.1,29.8,31.3,59.3,32,58.3
	c8.3-13.399-2.7-61.2-2.9-62.3c11,24.6,43,49,43,49c2.1-21.5-16-38.6-27.6-52.8c0,0,0,0-0.101-0.101c-0.5-0.6-0.899-1.1-1.3-1.699
	c21.6,27.1,69,24.3,69.8,24.3c9.3,6.2,14.7,10.3,14.7,10.3c9.7,8.5,17.8,16.4,23.9,22.9c0,0-50.101-2.801-80.601-34.5
	c16.101,16.899,35.3,43.5,32.3,69.5c0,0-49.5-28-58.3-56.7C368.2,441.2,368.1,441,368.1,440.9z"/>
<path fill="#FFFFFF" stroke="#000000" stroke-width="0.5" stroke-miterlimit="10" d="M310.5,722.9c2,6.699-0.4,17.8-0.1,25
	c1.199,27-7.101,54.699-7.101,54.699c-5.1,5.101-17.7,2.4-17.7,2.4c-9.899-10.9-0.3-83.2-0.3-83.2s-0.399,14,2.3,47
	c0,0,5.5,7.8,11.601,1c0,0,3.6-23.899,2.3-44.5c0,0,1.4-2-3.2-12.7C309.2,716,308.3,715.7,310.5,722.9z"/>
<path fill="#FFFFFF" stroke="#000000" stroke-width="0.5" stroke-miterlimit="10" d="M271.5,776.5c0.1,1.1,0.1,1.7,0.1,1.7l0,0
	c0.3,7.7-5.2,25.6-5.2,25.6c-13,2.101-13.9-4.6-15.7-8.2c-6.5-13.5-1-45.699-1-45.699c-14.5-3.9-14.5-19.7-14.5-19.801
	c-0.3-14,15.5-14.699,15.5-14.699C265,715.7,270.6,766.5,271.5,776.5z"/>
<path fill="#FFFFFF" stroke="#000000" stroke-width="0.5" stroke-miterlimit="10" d="M278.2,708.1c-0.1,1-3,63.601-6.4,69.9
	c0-0.6-0.1-1.2-0.2-1.6c-1-9.9-6.5-60.7-20.7-61c0,0,8.2-4.801,8.5-12.601c0.7-14.5-4.9-39-2.3-60.8
	C261.7,659.3,270,688.9,278.2,708.1z"/>
<path fill="#FFFFFF" stroke="#000000" stroke-width="0.5" stroke-miterlimit="10" d="M325.9,527.8v0.8c0,0-10.2,33.801-32,84.601
	c0,0,0.8,33.5-1,38.2c-1.301-15.4-3-30.2-5.101-38.801c0,0,6.5-74.899,1.9-86.899c1.3,0.1,2.6,0.2,3.899,0.3
	C293.5,525.9,306.4,527.3,325.9,527.8z"/>
<path fill="#FFFFFF" stroke="#000000" stroke-width="0.5" stroke-miterlimit="10" d="M257.1,642c-2.2-8.5-3.6-14.1-3.6-14.1
	C246,607.4,243.4,520,243.4,520c14.1,2.2,29.4,4.1,46.2,5.6c4.601,12-1.899,86.9-1.899,86.9c2.1,8.6,3.8,23.4,5.1,38.8l0,0
	c2.3,27.3,3.4,56.601,3.4,56.601c0.899,1.8,1.6,3.399,2.2,4.8c4.6,10.7,3.199,12.7,3.199,12.7c1.301,20.6-2.3,44.5-2.3,44.5
	c-6.1,6.8-11.6-1-11.6-1c-2.7-33.101-2.3-47-2.3-47c-2.3-3.301-4.7-8.101-7.101-13.801C270,688.9,261.7,659.3,257.1,642z"/>
<path fill="#FFFFFF" stroke="#000000" stroke-width="0.5" stroke-miterlimit="10" d="M289.5,525.6c-16.7-1.5-32.1-3.3-46.2-5.6
	C91.9,496,86.5,431.5,86.5,431.5c2.4-1.5,4.9-3.1,7.4-4.5l0,0c0.8,0.1,43.6,3.4,81-15.5c0,0-41.8,45.5-40,58.5
	c0,0,37.3-16.8,71.5-46.8c0,0-24.3,50.8-15.5,69.8c0,0,34.3-21.3,44.8-57.5c0,0-10.6,55.8,4.5,71.5c0,0,34.3-33.8,40-66.4
	c0,0,9.1,60,27.3,72.4c9.1,6.2,18.3-67.2,18.3-67.2c5.7,34.5,43.7,68.8,44.7,67.601c13.5-15.9-0.4-65.601-2.3-72.101
	C377,470,426.5,498,426.5,498c3-26-16.2-52.6-32.3-69.5c30.5,31.8,80.6,34.5,80.6,34.5c9.7,10.2,14.9,16.8,14.9,16.8
	c-27,45-115.5,49.2-163.9,47.9c-19.399-0.5-32.399-1.9-32.399-1.9C292.1,525.8,290.8,525.7,289.5,525.6z"/>
<g>
	<path d="M288.2,174.9c0.899-1.1,1.8-2.2,2.899-3.1c1.101-0.9,2.301-1.7,3.7-2.2c1.4-0.5,3-0.5,4.3,0.3c1.301,0.8,2.2,2,2.801,3.3
		l0,0c-0.801-1.1-1.801-2.2-3-2.9c-1.2-0.6-2.601-0.7-4-0.3c-1.301,0.4-2.601,1.2-3.7,2C290.1,172.8,289.1,173.8,288.2,174.9
		L288.2,174.9z"/>
</g>
<path fill="none" stroke="#000000" stroke-width="0.25" stroke-miterlimit="10" d="M309,178.1c0,0-1.1,6.1,7.8,12.3
	c1.101,0.8-0.399,4.8-4.1,3.2"/>
<g>
	<polygon points="306.3,453.1 302.7,438.6 306.5,453 	"/>
</g>
<g>
	<polygon points="305.4,461.8 299.9,440.6 305.6,461.8 	"/>
</g>
<g>
	<polygon points="301.9,462.1 295.6,443.3 302.1,462 	"/>
</g>
<g>
	<path d="M319.7,171c0,0.1,0.1,0.1,0.1,0.1C319.8,171.2,319.8,171.1,319.7,171c0-0.1,0-0.2-0.101-0.3c-0.1-0.2-0.199-0.4-0.3-0.6
		c-0.3-0.4-0.6-0.8-0.899-1.1c-0.7-0.6-1.601-1-2.5-0.9c-0.9,0.1-1.7,0.6-2.5,1.1c-0.801,0.5-1.5,1.2-2.2,1.8l0,0
		c0.5-0.8,1.2-1.5,2-2.1s1.7-1,2.8-1.1c1-0.1,2,0.4,2.7,1.1c0.3,0.4,0.6,0.8,0.899,1.2c0.101,0.2,0.2,0.4,0.301,0.7
		c0,0.1,0.1,0.2,0.1,0.4v0.1c0,0,0,0,0,0.1c-0.1,0-0.1,0-0.1,0C319.7,171.2,319.7,171.1,319.7,171L319.7,171z"/>
</g>
<g>
	<path d="M293.4,179.9c-1-0.1-2.101-0.3-3.101-0.6c-0.5-0.2-1-0.4-1.399-0.7c-0.4-0.3-0.801-0.8-0.7-1.3c0,0.5,0.399,1,0.8,1.3
		c0.4,0.3,0.9,0.5,1.4,0.6c1,0.3,2,0.4,3,0.4V179.9z"/>
</g>
<g>
	<path d="M291.9,181.4c-1.2-0.1-2.301-0.4-3.301-1s-1.8-1.5-2.199-2.6c0.5,1.1,1.3,2,2.3,2.5c1,0.6,2.2,0.8,3.3,0.9L291.9,181.4z"/>
</g>
<g>
	<path d="M294.7,178.9c-0.9,0.1-1.8,0.1-2.7-0.2c-0.4-0.1-0.9-0.3-1.2-0.6c-0.399-0.3-0.7-0.6-0.899-1c0.199,0.4,0.5,0.7,0.899,1
		c0.4,0.2,0.8,0.4,1.2,0.5c0.9,0.2,1.8,0.2,2.6,0.1L294.7,178.9z"/>
</g>
<g>
	<path d="M296.3,177.9c-0.8,0.2-1.6,0.3-2.399,0.2c-0.4,0-0.801-0.1-1.2-0.2c-0.4-0.1-0.7-0.4-0.9-0.8c0.2,0.4,0.5,0.6,0.9,0.7
		c0.399,0.1,0.8,0.2,1.2,0.2c0.8,0,1.6-0.1,2.3-0.3L296.3,177.9z"/>
</g>
<g>
	<path d="M319.7,176c0.5-0.3,1.1-0.6,1.5-1.1c0.399-0.4,0.8-1,0.7-1.6c0.1,0.6-0.2,1.3-0.601,1.7c-0.399,0.5-0.899,0.9-1.5,1.2
		L319.7,176z"/>
</g>
<g>
	<path d="M319.7,176c0.8,0.1,1.7,0.1,2.399-0.3c0.4-0.2,0.7-0.5,0.801-0.9c0.199-0.4,0.199-0.8,0.1-1.2c0.1,0.4,0.1,0.8,0,1.2
		c-0.1,0.4-0.4,0.7-0.8,1c-0.8,0.4-1.601,0.5-2.5,0.4V176z"/>
</g>
<g>
	<path d="M311.8,201c0.7,0.1,1.5,0.2,2.2,0.3c0.7,0.1,1.5,0.1,2.2,0.1s1.5-0.1,2.2-0.2c0.699-0.1,1.5-0.3,2.199-0.6l0,0
		c-1.3,0.7-2.899,1-4.399,1S313.2,201.4,311.8,201L311.8,201z"/>
</g>
<path stroke="#000000" stroke-width="0.25" stroke-miterlimit="10" d="M301.2,180c0,0.7-0.5,1.2-1.2,1.2s-1.2-0.6-1.2-1.2
	c0-0.7,0.601-1.2,1.2-1.2C300.7,178.8,301.2,179.4,301.2,180z"/>
<path stroke="#000000" stroke-width="0.25" stroke-miterlimit="10" d="M320.2,178.8c0,0.6-0.5,1.2-1.2,1.2c-0.6,0-1.2-0.5-1.2-1.2
	c0-0.6,0.5-1.2,1.2-1.2S320.2,178.1,320.2,178.8z"/>
<g>
	<path d="M308.4,215.1c-3.801-0.8-7.5-2-11-3.5c-1.801-0.8-3.5-1.6-5.101-2.7c-1.6-1.1-3.1-2.3-4.2-4c1.101,1.6,2.601,2.9,4.2,3.9
		c1.601,1,3.3,1.9,5.101,2.6c3.5,1.5,7.199,2.6,11,3.4V215.1z"/>
</g>
<g>
	<path d="M238,267.5c-0.6-2.9-1.1-5.8-1.4-8.7c-0.1-1.5-0.3-2.9-0.3-4.4s0-3,0.5-4.4c0.1-0.4,0.3-0.7,0.6-1c0.1-0.1,0.3-0.3,0.5-0.3
		c0.2-0.1,0.4-0.1,0.6-0.1c0.8-0.1,1.5,0.2,2.2,0.4c1.4,0.6,2.6,1.5,3.7,2.4s2.2,2,3.2,3.1c0.5,0.6,0.9,1.1,1.4,1.7
		c0.4,0.6,0.8,1.2,1,2l0,0c-0.2-0.7-0.6-1.3-1-1.9c-0.4-0.6-0.9-1.2-1.4-1.7c-1-1.1-2-2.1-3.2-3c-1.1-0.9-2.3-1.8-3.7-2.3
		c-0.7-0.3-1.4-0.5-2.1-0.4c-0.4,0-0.7,0.2-1,0.4c-0.3,0.3-0.4,0.6-0.5,0.9c-0.5,1.4-0.5,2.9-0.5,4.3c0,1.5,0.1,2.9,0.2,4.4
		C237.1,261.7,237.5,264.6,238,267.5L238,267.5z"/>
</g>
<g>
	<path d="M280,251.5c2-0.3,3.9-0.5,5.9-0.6c1-0.1,2-0.1,3-0.1c0.5,0,1,0,1.5,0.1s1,0.1,1.5,0.4l0,0c0.699,0.4,1.5,0.7,2.199,0.9
		c0.801,0.2,1.5,0.5,2.301,0.6c0.8,0.1,1.6,0.1,2.3-0.2c0.7-0.3,1.2-0.9,1.399-1.7v-0.1h0.101c1.399-0.5,2.899-0.7,4.3-0.7
		c1.5,0,2.9,0.3,4.3,0.8l0,0c-1.399-0.5-2.8-0.7-4.3-0.7s-2.9,0.2-4.3,0.7l0,0c-0.2,0.8-0.8,1.5-1.5,1.8c-0.7,0.3-1.601,0.4-2.4,0.3
		c-1.6-0.2-3.2-0.8-4.6-1.5l0,0l0,0c-0.9-0.5-1.9-0.5-2.9-0.5s-2,0-3,0C284,251.1,282,251.3,280,251.5L280,251.5z"/>
</g>
<g>
	<path d="M286.9,136.8c0.1-0.9-0.101-1.8-0.5-2.6c-0.4-0.8-1.101-1.5-1.801-2c-1.5-1.1-3.399-1.6-5.2-1.9c-3.7-0.5-7.5-0.3-11.1,0.1
		c3.7-0.5,7.5-0.8,11.2-0.3c1.8,0.3,3.7,0.8,5.3,1.8c1.601,1,2.7,2.9,2.4,4.9H286.9z"/>
</g>
<line fill="none" stroke="#000000" stroke-miterlimit="10" x1="296.2" y1="707.5" x2="285.3" y2="721.5"/>
<line fill="none" stroke="#000000" stroke-miterlimit="10" x1="259.1" y1="704.9" x2="277.6" y2="719"/>
<line fill="none" stroke="#000000" stroke-miterlimit="10" x1="273.9" y1="697.4" x2="294.3" y2="672.5"/>
<line fill="none" stroke="#000000" stroke-miterlimit="10" x1="295.4" y1="691.5" x2="268.3" y2="680.9"/>
<polyline fill="none" stroke="#000000" stroke-miterlimit="10" points="259.1,692.2 270.9,688.9 257.7,677.9 "/>
</svg>
