<?xml version="1.0" encoding="utf-8"?>
<!-- Generator: Adobe Illustrator 15.0.0, SVG Export Plug-In . SVG Version: 6.00 Build 0)  -->
<!DOCTYPE svg PUBLIC "-//W3C//DTD SVG 1.1//EN" "http://www.w3.org/Graphics/SVG/1.1/DTD/svg11.dtd">
<svg version="1.1" id="layer_x5F_www.ABC-color.com"
	 xmlns="http://www.w3.org/2000/svg" xmlns:xlink="http://www.w3.org/1999/xlink" x="0px" y="0px" width="567px" height="822px"
	 viewBox="0 0 567 822" enable-background="new 0 0 567 822" xml:space="preserve">
<polyline fill="#FFFFFF" stroke="#FFFFFF" points="0.5,822.5 0.5,0.5 567.5,0.5 "/>
<path fill="#FFFFFF" stroke="#000000" d="M374.5,790.9c5.2-0.602,12.1,4.5,9,10c-16.2-0.2-32.6,0.398-48.7-0.302
	C344.8,790.9,360.7,791,374.5,790.9z"/>
<path fill="#FFFFFF" stroke="#000000" d="M368.5,779.9c-13.7-1.302-26.7,4.198-37.7,11.698c-0.1-6.898-0.8-13.8-1.1-20.5
	c9.5-6.6,22.7-7.8,33.8-4.198C362.8,772,367.4,775.5,368.5,779.9z"/>
<path fill="#FFFFFF" stroke="#000000" d="M316.5,746.9c1.7,5.198,6.8,9.6,9.3,14.698c0.8,0.2,1.8,0.2,2.602,0.102
	c9.198-5.9,20.5-7.9,31.198-4.8c3.2,2.3,4.7,5.898,4,10c-11.1-3.602-24.198-2.4-33.8,4.198c0.2,6.7,0.9,13.602,1.102,20.5
	c11-7.6,24-13,37.698-11.698c3.9,2.1,6.802,6.398,6,11c-13.8,0.1-29.6,0-39.698,9.698c16.1,0.7,32.5,0.102,48.698,0.302
	c1.602,0.398,3.102,1.398,3.7,2.3c0,0.7,0.102,1.5-0.7,2.398C365.2,805.7,342.9,807,321.9,804.9c-0.5-3.602-0.802-7.602,0.698-11
	c0.302-15.802-2.1-31.4-6.698-46C316,747.6,316.2,747.2,316.5,746.9z"/>
<path fill="#FFFFFF" stroke="#000000" d="M159.5,799.9c-14.6,1.5-29.9-0.9-45,0c0.9-2.2,0.2-5.602,2-7
	C133.7,786.5,157,793.8,159.5,799.9z"/>
<path fill="#FFFFFF" stroke="#000000" d="M172.2,772c-1.4,5.6-3.9,11.7-6.2,17.1c-11.4-8.398-25.7-10.198-39.5-10.1
	c1.8-3.6,6.5-6.4,6-11C145.4,761.7,160.6,763.6,172.2,772z"/>
<path fill="#FFFFFF" stroke="#000000" d="M116.5,792.9c-0.7-6.4,5.8-10.802,10-14c13.8,0,28.1,1.8,39.5,10.1
	c2.3-5.3,4.8-11.4,6.2-17.1c-11.6-8.4-26.8-10.302-39.7-4.102c0.8-5.1,4.4-9.398,8-13c12.8-2.398,28-0.3,37.7,8.7
	c2.9-6.3,7.4-12.2,11.3-17.7c1.3,0,2.7-0.1,4,0.3c-2.3,19.602-16.9,38.9-14.3,60.4c-22.1,0-45.1,1.2-66.7,0c-1.6-1.4-1-3.9,0.3-5.4
	c0.9-0.198,1.4-0.698,1.8-1.3c15.1-0.898,30.4,1.5,45,0C157,793.8,133.7,786.5,116.5,792.9z"/>
<path fill="#FFFFFF" stroke="#000000" d="M403.5,375c11.3,18,11,36.5,10,56c-1.2,23.8-4.1,48.6-9.2,71c-6.3,27.3-20.6,52.1-23.8,74
	c-1.2,8.1,0.6,16,1,24c2.1,47.9-19.5,98.4-28,143c-0.2,5,3.7,8.8,5.7,13c0.1,0.3,0.2,0.7,0.3,1c-10.7-3-22-1.1-31.2,4.8
	c-0.8,0.102-1.7,0.102-2.6-0.1c-2.5-5.102-7.602-9.5-9.3-14.7c2.398-3.7,6.6-12,8-20c4.5-25.7-3.602-59.9-1-85
	c2.1-19.8,12.198-33.2,13-49c0.8-15.4,0-30.6,1-46c1.6-26.6-5.602-53.2-8-79c-1.4-15.1,1-33.5,0-46c14.5-17.8,28.698-36.8,46-52
	c1-0.4,2-0.8,3-1c-0.4,2.3,1.8,4.2,4,4c0.6,1.1,1.198,1.9,2.1,2.7c2.4,0.7,4.7,0.1,6.9-0.7c0.8,0.9,1.398,1.9,2,2.7
	C397.3,379.4,400,375.1,403.5,375z"/>
<path fill="#FFFFFF" stroke="#000000" d="M252.3,391.8c-0.1-7.1,0.8-13.9,1.2-20.8c26.6,9.9,56.5,23.6,69,51
	c2.5,45.7-36.6,89.9-57.2,137c-5.4,12.2-12.1,24.9-18.5,36c2.1,10.1-3,21.9-7.5,32c-14.2,32.4-43.6,69.8-51.8,92
	c-3.3,8.9,1.6,19.8,2,27c-3.9,5.5-8.4,11.4-11.3,17.7c-9.7-9-24.9-11.102-37.7-8.7c0.1-0.3,0.2-0.7,0.3-1c13.1-8.7,14-22.4,16.5-34
	c10.2-47.3,23.5-98.1,49.9-140c0.6-3.6,0.1-7.3,0.3-11c4.1-13.8,8.1-26.9,10-41C223.6,481.2,236.7,436.1,252.3,391.8z"/>
<path fill="#FFFFFF" stroke="#000000" d="M375.5,370c-17.3,15.2-31.5,34.2-46,52c-2.3,0-4.7,0-7,0c-12.5-27.4-42.4-41.1-69-51
	c0.9-19.2,10.6-36.8,18.8-54c-0.1-18.1-6.5-35.4-10.1-53c-2.5-2.5-4.5-5.3-6.7-8c-11.4-20,0.7-39.2,24-38c11.6,0.6,21.2,6.9,31,10
	c22.3-9.5,51.2-16.9,72,0c0.2,11.1-0.9,24.1-10.7,31c-1.8,18.1-2.3,36.7-2,55c9.8,7.9,19.102,18.4,21.7,31
	C380,345.6,373.3,367.8,375.5,370z"/>
<path fill="#FFFFFF" stroke="#000000" d="M170.2,446.1H170c-0.9,3.602-2.6,2.602-3.6,1.602l-0.7,0.7c-0.1,0.6-0.3,1.3-0.5,2
	c-3.9,1.6-2.1-12.602-2.7-18.602c-0.7,0.2-1.3,0.3-2,0.8c-1.5,3.802-3.6,6-5.1,4.102c3.4-12.2,10.2-18.4,19.1-24.2
	c5.3-3.4,20.7-9.6,24-17.7c4.3-10.4,1.4-29,2-43c0.4-8.7,0.3-18.6,1-27c3-37.8,23-73.5,27-104c0.9-6.8,1.4-12.6,2-19
	c1.9-21,11.4-34.9,33-38c11.5-1.6,29.2,6.5,29.8-13.8c-0.399-0.6-0.8-1.2-0.8-2.2c0-0.3,0-0.7,0-1c16.2,5.7,33.6-2.2,45.5-13.5
	c0.5,7.2,1.3,14.4,2.7,21.5c14.8,18.5,37.5,0.7,53.8,13.3c5.9,4.6,26.6,43.7,40.3,64.7c3.7,5.6,8.3,10.3,11.5,15c20,29,9,57.7,7,85
	c-3.8,9.1-7.5,18.5-12.8,26.8c-12,5.5-26.1,5.7-36.7,14.5c-0.1,0.2-0.2,0.5-0.3,0.7c-3.5,0.2-6.2,4.5-10,2.7c-0.6-0.8-1.2-1.8-2-2.7
	c-2.2,0.8-4.6,1.4-6.9,0.7c-0.8-0.8-1.5-1.6-2.1-2.7c-2.2,0.2-4.4-1.7-4-4c-1,0.2-2,0.6-3,1c-2.1-2.1,4.5-24.4,16-25
	c10.7-0.7,20.8-3.8,31.7-3.3c0.6-21.8-2.3-44.1,1-65.7c-13.4-18.5-24.3-39.7-41.4-54.7c-0.7,2.1-0.1,4.5-0.3,6.7
	c-20.8-17-49.7-9.5-72,0c-9.7-3.1-19.3-9.4-31-10c-23.3-1.3-35.4,18-24,38c-2.7,12.5-11.4,29.3-13.8,45c-0.8,5.1,0.3,11.4-0.2,17
	c-2.5,27.1-17.7,54.9-20.8,77.2c-2,14.6,1.7,29.3-1.5,43.5c-0.8,0.2-1.3,0.7-1.9,1.1c-1.2,0.2-2.5,0.2-3.5-0.1
	c-5.2-3.9-5.5-10.6-6.6-16.4c-12.9,4.102-29,9.102-33.9,23.7c-0.9,0.7-1.8,0.7-2.6,0.8C170.4,447.3,170.3,446.7,170.2,446.1z"/>
<path fill="#FFFFFF" stroke="#000000" d="M296.7,117.2c-1,0-2,0-3,0c0-1.7,0.8-2.6,2-3C295.6,115.5,296.1,116.4,296.7,117.2z"/>
<path fill="#FFFFFF" stroke="#000000" d="M302.7,114.2c1.2,0.4,2,1.3,2,3c-1,0-2,0-3,0C302.2,116.4,302.7,115.5,302.7,114.2z"/>
<path fill="#FFFFFF" stroke="#000000" d="M293.5,130c4,0.3,8.4-0.6,12.2,0.5C302.9,132.7,295.5,133.2,293.5,130z"/>
<path fill="#FFFFFF" stroke="#000000" stroke-width="0.25" d="M287.5,128c7.3-3.7,17.7-2.3,25.6,0.3c-2.8,6.6-9.3,10.8-16.6,10.6
	C290.4,138.3,290.3,131.6,287.5,128z M305.6,130.5c-3.8-1.2-8.199-0.2-12.199-0.5C295.5,133.2,302.9,132.7,305.6,130.5z"/>
<path fill="#FFFFFF" stroke="#000000" d="M322,91.8c1.1,0,2,0.8,2,1.7s-0.9,1.7-2,1.7s-2-0.8-2-1.7S320.9,91.8,322,91.8z"/>
<path fill="#FFFFFF" stroke="#000000" d="M322,88.8c2.8,0,5.2,2.2,5.2,5c0,2.3-1.602,4.2-3.8,4.8c-0.602,0.1-1.2,0.1-1.802,0.2
	c-2.698-0.2-4.698-2.4-4.698-5C316.8,91.1,319.2,88.8,322,88.8z M322,91.8c-1.1,0-2,0.8-2,1.7s0.9,1.7,2,1.7s2-0.8,2-1.7
	S323.1,91.8,322,91.8z"/>
<path fill="#FFFFFF" stroke="#000000" d="M310,96.2c14.7-20.7,24.3-3,24.3-3c-3.6,3.5-7.398,5-10.898,5.5c2.198-0.6,3.8-2.5,3.8-4.8
	c0-2.8-2.3-5-5.2-5s-5.2,2.2-5.2,5c0,2.6,2.102,4.8,4.7,5C315.1,99.1,310,96.2,310,96.2z"/>
<path fill="#FFFFFF" stroke="#000000" d="M277.7,91.8c1.1,0,2,0.8,2,1.7s-0.9,1.7-2,1.7c-1.1,0-2-0.8-2-1.7S276.6,91.8,277.7,91.8z"
	/>
<path fill="#FFFFFF" stroke="#000000" d="M277.7,88.8c2.9,0,5.2,2.2,5.2,5c0,2.6-2.1,4.8-4.7,5c-0.6,0-1.2-0.1-1.8-0.2
	c-2.2-0.6-3.8-2.5-3.8-4.8C272.5,91.1,274.8,88.8,277.7,88.8z M277.7,91.8c-1.1,0-2,0.8-2,1.7s0.9,1.7,2,1.7c1.1,0,2-0.8,2-1.7
	S278.8,91.8,277.7,91.8z"/>
<path fill="#FFFFFF" stroke="#000000" d="M265.3,93.2c0,0,9.7-17.7,24.3,3c0,0-5.1,2.9-11.6,2.6c2.7-0.2,4.7-2.4,4.7-5
	c0-2.8-2.3-5-5.2-5s-5.2,2.2-5.2,5c0,2.3,1.6,4.2,3.8,4.8C272.7,98.2,268.9,96.6,265.3,93.2z"/>
<path fill="#FFFFFF" stroke="#000000" d="M357.8,95.3c3.602-0.5,6.102,4.5,5.7,7.7c-9.5,9.4-18.5,18.7-25.5,30.5
	c-11.9,11.3-29.3,19.2-45.5,13.5c-10.4-5.9-17.9-16-25-25c-15.8-28-0.9-66,30-76c17.7,17.7,52.3,32.8,50,62
	C352.5,106.4,353.3,98.7,357.8,95.3z M334.3,93.2c0,0-9.7-17.7-24.3,3c0,0,5.1,2.9,11.6,2.6c0.102,0,0.302,0,0.4,0
	c0.5,0,1-0.1,1.4-0.2C326.9,98.2,330.8,96.6,334.3,93.2z M304.7,117.2c0-1.7-0.8-2.6-2-3c0,1.4-0.5,2.2-1,3
	C302.7,117.2,303.7,117.2,304.7,117.2z M313,128.3c-7.9-2.6-18.3-4-25.6-0.3c2.8,3.6,3,10.3,9,10.9
	C303.8,139.1,310.2,134.9,313,128.3z M293.7,117.2c1,0,2,0,3,0c-0.5-0.8-1-1.6-1-3C294.4,114.6,293.6,115.5,293.7,117.2z
	 M289.7,96.2c-14.7-20.7-24.3-3-24.3-3c3.6,3.5,7.4,5,10.9,5.5c0.5,0.1,0.9,0.2,1.4,0.2c0.1,0,0.3,0,0.4,0
	C284.6,99.1,289.7,96.2,289.7,96.2z"/>
<path fill="#FFFFFF" stroke="#000000" d="M331.5,18.2c37.8,6.6,63.6,61,32,84.8c0.4-3.2-2.1-8.2-5.7-7.7
	c-4.5,3.3-5.3,11.1-10.3,12.7c2.3-29.2-32.3-44.3-50-62c-30.9,9.9-45.7,48-30,76c-5.9-5.1-10.7-10.5-13.7-16
	c-8.3-14.9-11.3-41.5-6.1-53C261.9,21.9,305.8,13.8,331.5,18.2z"/>
<path fill="none" stroke="#000000" stroke-linecap="round" d="M381.1,368.4c5.802-3.9,7-13.5,14-16"/>
<path fill="none" stroke="#000000" stroke-linecap="round" d="M385.1,372.4c6.4-3.6,9.102-12.2,16-15"/>
<path fill="none" stroke="#000000" stroke-linecap="round" d="M394.1,374.4c6-2.2,7.9-9.3,14-11"/>
<path fill="none" stroke="#000000" stroke-linecap="round" d="M165.2,431.3c1.9-3.2,4.5-6.2,7-9"/>
<path fill="none" stroke="#000000" stroke-linecap="round" d="M168.4,447.9c1.1-8.9-1-19.302,8.8-24.5"/>
<path fill="none" stroke="#000000" stroke-linecap="round" d="M172.9,445.5c-0.8-7,2-17.3,9.3-20.2"/>
<path fill="none" stroke="#000000" stroke-width="0.25" stroke-linecap="round" d="M361.8,99.7c-0.5,0-2.6,1.2-3.1,1.5"/>
<path fill="none" stroke="#000000" stroke-width="0.25" stroke-linecap="round" d="M354.7,108.9c3.3-1.6,8.398-5.3,7.1-9.2"/>
<path fill="none" stroke="#000000" stroke-width="2" stroke-linecap="round" d="M316.8,83.1c5.9-3.3,16.9-6,21.3,0.3"/>
<path fill="none" stroke="#000000" stroke-width="2" stroke-linecap="round" d="M287.6,83.9c-5-3.7-11.898-1.8-17.5-1"/>
<path fill="none" stroke="#000000" d="M350.1,107.4c-0.3,1-0.8,1.8-1,3"/>
<path fill="none" stroke="#000000" d="M300.1,45.4c4.301-4.1,11.302-5.2,14-11"/>
</svg>
