<?xml version="1.0" encoding="utf-8"?>
<!-- Generator: Adobe Illustrator 15.0.0, SVG Export Plug-In . SVG Version: 6.00 Build 0)  -->
<!DOCTYPE svg PUBLIC "-//W3C//DTD SVG 1.1//EN" "http://www.w3.org/Graphics/SVG/1.1/DTD/svg11.dtd">
<svg version="1.1" id="Layer_1" xmlns="http://www.w3.org/2000/svg" xmlns:xlink="http://www.w3.org/1999/xlink" x="0px" y="0px"
	 width="600px" height="800px" viewBox="0 0 600 800" enable-background="new 0 0 600 800" xml:space="preserve">
<title>Coloring</title>
<desc>Vector coloring Image</desc>
<path fill="#FFFFFF" stroke="#000000" d="M235.71,137.48c1.43,2.02,3.99,0.99,4.19,0.91c-0.17,0.2-2.97,3.45-7.05,3.45
	s-6.87-6.63-7.04-7.04c0.13,0.14,1.28,1.46,2.98,1.18c1.81-0.3,3.01,0.6,3.01,1.5S234.21,135.38,235.71,137.48z"/>
<path fill="#FFFFFF" stroke="#000000" d="M254.92,114.66c2.58,7.01,27.92,5.41,27.92,5.41l0.02,0.01L279,135.43l-0.06,0.25
	c-8.17,8.63-25.57,13.09-32.93,14.65H246c-2.11,0.45-3.39,0.66-3.39,0.66c-11.71,6.01-18.02-4.8-18.02-4.8
	c-15.4-10.84-21.03-47.43-21.55-51.06c0-0.01,0-0.02,0-0.03l0.23-0.01c7.21,13.81,21.62,14.42,21.62,14.42
	c-1.27-8.53-3.36-13.58-5.77-16.37c-0.37-1.84-1.52-3.36-2.96-4.58l0.02-0.02c0,0,7.81-0.15,11.71,11.56c0,0,0.11-9.13-1.52-12.31
	c1.31,1.45,3.51,4.31,4.23,7.81c0,0,1.49-10.36-0.76-11.86c-2.25-1.51,4.51,1.65,5.11,9.75c0,0,1.49-8.12,0.48-9.271
	c0.95,0.99,7.69,8.86,2.69,19.3c0.41-0.69,8.15-13.92,5.23-19.18c0,0,6.31,1.64,5.86,8.7c0,0,2.55-5.7,2.1-7.8
	c-0.03-0.13-0.04-0.2-0.04-0.22c0.18,0.44,2.75,12-3.08,19.25c0.64-0.61,10.82-10.49,12.13-15.58c1.35-5.25-1.95,13.36-6.3,16.51
	c0,0,6.34-1.2,7.89,1.44C257.52,109.32,254.92,114.66,254.92,114.66z M239.9,138.39c-0.2,0.08-2.76,1.11-4.19-0.91
	c-1.5-2.1-3.91,0.9-3.91,0s-1.2-1.8-3.01-1.5c-1.7,0.28-2.85-1.04-2.98-1.18c0.17,0.41,2.96,7.04,7.04,7.04
	S239.73,138.59,239.9,138.39z"/>
<path fill="#FFFFFF" stroke="#000000" d="M502,490.83c-10.02-2.15-26.5,2.17-26.5,2.17l-0.18-0.47c1.13-0.432,2-1.03,2.55-1.78
	c4.95-6.76,3.148-12.62,17.56-2.71c1.92,1.32,4.17,2.18,6.59,2.68L502,490.83z"/>
<path fill="#FFFFFF" stroke="#000000" d="M265.73,163.41c0,0,20.11-3.6,30.32-30.93c10.21-27.32-6.9,30.03-11.41,32.43
	c-0.96,0.51-1.61,2.13-1.98,4.41c-1.92,2.39-9.29,11.96-12.78,22.14c-1.87,1.72-8.58,8.39-12.6,18.31
	c1.28-17.07-6.87-32.5-6.87-32.5h-0.28c1.23-1.03,1.18-1.8,1.18-1.8c3.63-10.4,3.83-22.1-5.3-25.14
	c7.36-1.56,24.76-6.02,32.93-14.65l0.06-0.25C279.05,138.07,278.98,159.75,265.73,163.41z"/>
<path fill="#FFFFFF" stroke="#000000" d="M284.93,365.95c21.23,0.92,33.49,22.1,33.49,22.1c1.812,17.57,29.62,48.65,28.83,51.8
	c-2.25,9.012,0,21.17,3.15,25.67c2.54,3.632,1.38,12.842,0.818,16.29c-16.58-1.188-30.54-2.318-30.54-2.318
	s18.011,77.91,11.71,173.398c0,0-4.06,12.61,4.5,22.972c8.562,10.358,9.46,17.56,4.051,36.93c-3.521,12.64-6.181,24.58-6.25,34.92
	c-0.051,5.521,0.631,10.59,2.311,15.08c0.45,1.18,2,12.21-1.8,14.75c-2.7,1.8-4.271-6.271-4.16-5.3c1.01,9.13-0.5,10.72-2.71,8.79
	c-1.8-1.58-2.55-12.021-2.25-5.78c0.34,6.9-2.13,9.7-4.28,7.35c-1.05-1.148-1.229-3.31-1.1-5.3c1.83-7.33,0.279-4.03,0,0
	c-0.102,0.392-0.2,0.8-0.32,1.25c-1.06,4.05-4.55,6.87-6.57,3.602c-0.43-0.69,1.222-5.682,2.32-8.82
	c-5.53,13.56-14.319,10.47-13.47,7.47c8.108-28.68-2.4-62.3-1.801-80.17c0.49-14.54-0.85-37.95-2.959-47.43
	c-0.35-1.57-0.71-2.76-1.1-3.46c-2.7-4.96-22.99-80.04-22.52-97.29C275,526,252.67,440.3,251.31,435.35
	c-0.73-2.67-6.02-16.43-5.63-31.18c0.34-12.63,4.87-25.99,20.05-33.68C272.75,366.93,279.17,365.69,284.93,365.95z"/>
<path fill="#FFFFFF" stroke="#000000" d="M428.77,479.04c3.182,2.77,7.2,5.229,11.57,7.31c-12.89-4.608-35.438-1.908-35.438-1.908
	C410.76,483.09,414.81,466.87,428.77,479.04z"/>
<path fill="#FFFFFF" stroke="#000000" d="M234.25,355.69c0.83,6.68,0.17,20.7-0.08,25.2c-6.91,6.48-14.11,13.51-21.06,20.76
	l-0.23-0.23c-1.71-4.689-4.3-12.66-4.58-20.36c-0.81-21.9,2.44-51.41-0.22-62.52c-3.61-15.01-1.21-57.05-1.21-57.05
	c3.01,4.81,15.62,9.01,21.02,6.61c1.89-0.84,4.26-2.45,6.63-4.17c0.11,8.21,0.41,41.76-1.22,55.81
	C232.19,329.28,232.85,344.52,234.25,355.69z"/>
<path fill="#FFFFFF" stroke="#000000" d="M351.19,781.59c-2.052,3.19-6.012-5.45-5.342-9.84c0.58,1.68,0.052-0.29,0.052-0.29
	c-0.021,0.09-0.04,0.19-0.052,0.29c-0.39-1.14-1.3-3.99-3.25-10.32c0,0-3.21-11.68-7.908-13.72c0.068-10.34,2.729-22.28,6.25-34.92
	c5.408-19.37,4.51-26.57-4.052-36.93c-8.56-10.36-4.5-22.972-4.5-22.972s11.71,27.472,18.91,31.98c7.21,4.5,17.12,23.42,11.71,36.93
	c-5.398,13.51,8.41,40.84,13.82,47.142c0,0,9.64,15.318,4.09,17.38c-3.4,1.26-6.188,0.22-10.49-7.16c0,0-0.43,3.979-1.22,6.26
	c-0.59,1.67-3.57,1.91-5.05-7.229c0,0.26-0.03,9.35-4.07,6.438c-0.38-0.27-1.62-7.33-1.93-5.66c-0.16,0.801-0.16,5.41-2.352,5.32
	c-2.6-0.11-3.479-3.479-4.698-8.49C351.4,777.16,351.98,780.36,351.19,781.59z"/>
<path fill="#FFFFFF" stroke="#000000" d="M296.8,649.74c0.39,0.7,0.75,1.89,1.1,3.46l-0.65,0.14
	c-8.1-6.76-58.55-114.398-65.75-124.76c-3.62-5.2-17.27-32.771-24.88-51.51c-1.66-4.07-3.03-7.73-3.95-10.65
	c-2.63-8.34-4-15.58-4.37-21.85c-2.47-42.04,39.86-40.92,47.38-40.4c-0.39,14.75,4.9,28.51,5.63,31.18
	C252.67,440.3,275,526,274.28,552.45C273.81,569.7,294.1,644.78,296.8,649.74z"/>
<path id="ruk_1_" fill="#FFFFFF" stroke="#000000" d="M253.71,374.4c0.92,0.92-0.25-3.38-1.66-9.69c2.85-2.49,5.52-4.8,7.96-6.87
	c0.01,2-0.29,3.82-1,5.35c0.24-0.46,1.36-2.81,2.34-6.51h0.01c2.24-1.9,4.24-3.58,5.97-5.02c0.64-0.53,1.24-1.03,1.8-1.49
	c-4.83,14.09,6.85,14.48,15.84,14.85l-0.04,0.93c-5.76-0.26-12.18,0.98-19.2,4.54c-15.18,7.69-19.71,21.05-20.05,33.68
	c-7.52-0.52-49.85-1.64-47.38,40.4c-0.38,0.778-1.43,2.79-3.29,8.568c-3.98,12.37-10.38,12.021-17.69,17.762
	c0,0-1.78,2.5-4.25,5.568c-2.34,2.91-5.29,6.32-7.91,8.62c-5.4,4.73-5.4-0.68-5.4-0.68l-0.76-0.27c-3.62,4.012-6.95,6.99-8.25,5.87
	c-3.15-2.7,18.01-26.77,15.76-24.52c-2.25,2.26-23.47,31.25-24.76,21.858c-0.08-0.56,0.19-1.42,0.73-2.488
	c-0.97-0.271-1.87-0.842-2.41-1.771c-1.01-1.729-0.7-4.71,3.03-9.29c1.77-2.17,12.43-21.33,17.56-24.8c1.58-1.07,3.08-2.1,4.51-3.09
	c7.48-5.17,13.05-9.312,17.4-12.8c9.35-7.5,13.06-12.062,17.85-17.58c4.04-4.66,8.32-9.32,12.69-13.88
	c6.95-7.25,14.15-14.28,21.06-20.76c5.06-4.74,9.97-9.19,14.51-13.22C251.09,371.3,253.07,373.76,253.71,374.4z"/>
<path id="ru_1_" fill="#FFFFFF" stroke="#000000" d="M339,289.19c0,0-0.47,0.91-1.34,2.53c-5.771,10.75-29.13,52.93-50.24,71.95
	c-3.54-1.85-12.21-5.08-10.43-7.14c1.41-1.65,3.92-9.92,4.21-22.19c20.159-35.78,19.55-50.17,19.06-53.28
	c1.932-0.01,4.08-0.34,6.45-1.1c12.61-4.06,12.61-1.8,28.83,6.75c1.33,0.7,2.58,1.28,3.75,1.73L339,289.19z"/>
<path id="wssss_1_" fill="#FFFFFF" stroke="#000000" d="M258.7,325.45c5.76,12.88,4.45,24.38,2.65,31.23
	c-0.98,3.7-2.1,6.05-2.34,6.51c0.71-1.53,1.01-3.35,1-5.35c-0.05-8.61-5.78-20.5-8.75-26.09c0.83-1.36,1.93-2.42,3.35-3.08
	C255.91,328.06,257.29,326.96,258.7,325.45z"/>
<path id="wsss_1_" fill="#FFFFFF" stroke="#000000" d="M242.04,319.61c-2.76-9.05-8.87-34.36,2.83-51.07
	c0.83,4.67,2.39,9.5,4.97,14.36c-0.47,2.77-1.97,13.51,0.13,26.15c-1.95,3.62-4.28,6.92-7.07,9.66
	C242.6,319.01,242.31,319.31,242.04,319.61z"/>
<path id="wss_1_" fill="#FFFFFF" stroke="#000000" d="M270.41,221.24c5.45,2.55,16.85-2.11,17.24-2.88c0.11-0.23,1.3-1.07,3.06-2.29
	c-0.25,2.89-1.79,16.19-9.3,27.42c-1.47,2.2-3.16,4.32-5.13,6.26c-4.2,4.16-9.6,7.52-16.56,9.17c0,0-5.17-4.26,0.43-12.6
	c0.87-1.3,2.01-2.71,3.47-4.21C273.05,232.42,271.07,223.39,270.41,221.24z"/>
<path id="ws_1_" fill="#FFFFFF" stroke="#000000" d="M282.66,169.32c-1.37,8.26,0.76,25.16,4.19,29.58
	c-9.09,4.18-17.22,9.85-17.22,9.85c-2.53-5.08-1.82-11.29,0.25-17.29C273.37,181.28,280.74,171.71,282.66,169.32z"/>
<path id="wzzz_1_" fill="#FFFFFF" stroke="#000000" d="M286.45,365.08c-0.48-0.02-0.98-0.04-1.48-0.06
	c-8.99-0.37-20.67-0.76-15.84-14.85c0.19-0.56,0.4-1.14,0.65-1.75c5.55-13.69-0.14-30.71-2.35-36.36c2.63-5.2,5.1-11.18,7.17-17.38
	c5.4,15.11,6.86,28.92,6.6,39.66c-0.29,12.27-2.8,20.54-4.21,22.19c-1.78,2.06,6.89,5.29,10.43,7.14
	C289.27,364.64,289.71,365.24,286.45,365.08z"/>
<path id="wzz_1_" fill="#FFFFFF" stroke="#000000" d="M254.23,226.71c0.24,6.05,1.95,12.65,5.92,19.61
	c-5.6,8.34-0.43,12.6-0.43,12.6s0.6,16.62-3.57,33.42c-2.57-3.13-4.65-6.29-6.31-9.44c-2.58-4.86-4.14-9.69-4.97-14.36
	c-0.67-3.7-0.86-7.3-0.73-10.74c0.2-5.22,1.16-10.07,2.42-14.31C249.21,234.52,253.21,228.23,254.23,226.71z"/>
<path id="wz_1_" fill="#FFFFFF" stroke="#000000" d="M306.57,195.24c0.77,0.31,1.34,0.68,1.75,1.11
	c4.29,4.54-10.87,15.02-17.61,19.72c-1.76,1.22-2.95,2.06-3.06,2.29c-0.39,0.77-11.79,5.43-17.24,2.88
	c-2.99-1.38-4.18-4.94-0.78-12.49c0,0,8.13-5.67,17.22-9.85C293.97,195.62,301.689,193.26,306.57,195.24z"/>
<path id="yy_1_" fill="#FFFFFF" stroke="#000000" d="M296.95,259.69c-1.19,7.21,8.409,9.61,21.02,6.61
	c12.61-3.01,17.42-1.8,23.42,5.4c6.012,7.21,8.67,1.7,9.28-0.7c0.6-2.4,15.64,1.6,15.5-9.06c6.3,9.91,9.9,20.27-10.36,22.97
	c0,0-3.42,8.73-16.52,3.53c-1.17-0.45-2.42-1.03-3.75-1.73c-16.22-8.55-16.22-10.81-28.83-6.75c-2.37,0.76-4.521,1.09-6.45,1.1
	c-8.28,0.02-12.29-6.01-11.56-9.66c0.89-4.43-3.91-9.16-9.22-15.04c-0.66-2.68-1.7-4.93-3.2-6.61c1.97-1.94,3.66-4.06,5.13-6.26
	C284.57,245.28,298.01,253.32,296.95,259.69z"/>
<path id="y_1_" fill="#FFFFFF" stroke="#000000" d="M216.49,247.68c0,0,7.2,6.61,12.61,3c5.4-3.6,17.41-7.2,17.41-7.2l0.05,0.01
	c-1.26,4.24-2.22,9.09-2.42,14.31c-1.54,0.03-5.57,3.22-9.62,6.13c-2.37,1.72-4.74,3.33-6.63,4.17c-5.4,2.4-18.01-1.8-21.02-6.61
	c-2.51-4.01-5.86-1.73-10.05-1.93c-0.82-0.04-1.68-0.18-2.56-0.47c-5.4-1.8-8.4-9.01-4.8-13.21c3.6-4.21,8.4-15.61,8.4-15.61
	c2.41,5.4,3,11.4,10.81,10.2C216.49,239.27,216.49,247.68,216.49,247.68z"/>
<path id="plllllll_1_" fill="#FFFFFF" stroke="#000000" d="M160.66,449c-5.13,3.47-15.79,22.63-17.56,24.8
	c-3.73,4.58-4.04,7.562-3.03,9.29c-13.82,6-60.13,1.2-55.93,0c4.21-1.188,10.23,0.84,15.61-6.6c4.51-6.24,8.42-1.21,26.43-9.01
	c17.46-7.57,37.73-20.762,38.98-21.58l0.01,0.01C163.74,446.9,162.24,447.93,160.66,449z"/>
<path id="pllllll_1_" fill="#FFFFFF" stroke="#000000" d="M195.01,453.14c1.86-5.778,2.91-7.79,3.29-8.568
	c0.37,6.27,1.74,13.51,4.37,21.85c0.92,2.92,2.29,6.58,3.95,10.65c-4.18-1.53-20.57-6.812-33.55-0.602
	c2.47-3.068,4.25-5.568,4.25-5.568C184.63,465.16,191.03,465.51,195.01,453.14z"/>
<path id="plllll_1_" fill="#FFFFFF" stroke="#000000" d="M286.45,365.08c3.26,0.16,2.82-0.44,0.97-1.41
	c21.11-19.02,44.47-61.2,50.24-71.95l0.08,0.04c-1.01,1.88-17.62,34.18,23.47,65.22c0,0,35.58,18.91,39.19,43.69
	c3.6,24.771,8.1,33.78,26.568,40.98c18.472,7.21,22.07,19.818,24.32,25.22c2.25,5.41,18.02,5.86,27.93,5.86
	c2.32,0,4.71-0.422,7.13-0.922c7.9-1.658,16.04-4.21,22.592,4.07c8.56,10.812,10.81,9.46,22.068,7.66
	c9.761-1.561-13.29,10.4-28.989,7.18c-2.421-0.5-4.671-1.358-6.591-2.68c-14.409-9.91-12.608-4.05-17.56,2.71
	c-0.55,0.75-1.42,1.35-2.55,1.78c-6.66,2.6-22.302-0.16-34.98-6.182c-4.37-2.08-8.39-4.54-11.569-7.31
	c-13.961-12.17-18.011,4.05-23.869,5.399c-3.392,0.779-30.98-0.989-53.682-2.631c0.562-3.448,1.722-12.658-0.818-16.29
	c-3.15-4.5-5.4-16.658-3.15-25.67c0.79-3.148-27.02-34.229-28.83-51.8c0,0-12.26-21.18-33.49-22.1l0.04-0.93
	C285.47,365.04,285.97,365.06,286.45,365.08z"/>
<path id="pllll_1_" fill="#FFFFFF" stroke="#000000" d="M267.43,312.06c2.21,5.65,7.9,22.67,2.35,36.36
	c-0.25,0.61-0.46,1.19-0.65,1.75c-0.56,0.46-1.16,0.96-1.8,1.49c-1.09-3.44-4.39-15.52-3.43-33.25
	C265.1,316.48,266.28,314.35,267.43,312.06z"/>
<path id="plll_1_" fill="#FFFFFF" stroke="#000000" d="M300.26,281.06c0.49,3.11,1.102,17.5-19.06,53.28
	c0.26-10.74-1.2-24.55-6.6-39.66c4.64-13.87,7.23-28.8,4.88-38.32c5.31,5.88,10.11,10.61,9.22,15.04
	C287.97,275.05,291.98,281.08,300.26,281.06z"/>
<path id="pll_1_" fill="#FFFFFF" stroke="#000000" d="M350.67,271c-0.61,2.4-3.27,7.91-9.28,0.7c-6-7.2-10.81-8.41-23.42-5.4
	c-12.608,3-22.21,0.6-21.02-6.61c1.06-6.37-12.38-14.41-15.54-16.2c7.51-11.23,9.05-24.53,9.3-27.42
	c6.74-4.7,21.9-15.18,17.61-19.72l0.188-0.17c0,0,8.892-7.17,15.771-20.66c6.68-0.86,61.89-5.95,43.688,65.7
	c-1.278,5.04-8.108,10.81-1.8,20.72C366.31,272.6,351.27,268.6,350.67,271z"/>
<path id="pl_1_" fill="#FFFFFF" stroke="#000000" d="M254.23,226.71c-1.02,1.52-5.02,7.81-7.67,16.78l-0.05-0.01
	c0,0-12.01,3.6-17.41,7.2c-5.41,3.61-12.61-3-12.61-3s0-8.41-7.82-7.21c-7.81,1.2-8.4-4.8-10.81-10.2
	c-2.4-5.41,3.61-10.22,3.61-10.22s4.21-2.39,6.61-18.01s13.59-18.71,13.59-18.71l6-1c14.93-0.94,20.43-3.36,22.46-5.06h0.28
	c0,0,8.15,15.43,6.87,32.5C255.3,214.69,253.97,220.4,254.23,226.71z"/>
<path id="wqq_1_" fill="#FFFFFF" stroke="#000000" d="M270.41,221.24c0.66,2.15,2.64,11.18-6.79,20.87c-1.46,1.5-2.6,2.91-3.47,4.21
	c-3.97-6.96-5.68-13.56-5.92-19.61c-0.26-6.31,1.07-12.02,3.05-16.94c4.02-9.92,10.73-16.59,12.6-18.31
	c-2.07,6-2.78,12.21-0.25,17.29C266.23,216.3,267.42,219.86,270.41,221.24z"/>
<path id="wq_1_" fill="#FFFFFF" stroke="#000000" d="M252.05,364.71c1.41,6.31,2.58,10.61,1.66,9.69c-0.64-0.64-2.62-3.1-5.03-6.73
	c-7.53-11.38-19.22-34.21-6.64-48.06c0.27-0.3,0.56-0.6,0.86-0.9c2.79-2.74,5.12-6.04,7.07-9.66c2.77-5.14,4.76-10.94,6.18-16.71
	c4.17-16.8,3.57-33.42,3.57-33.42c6.96-1.65,12.36-5.01,16.56-9.17c1.5,1.68,2.54,3.93,3.2,6.61c2.35,9.52-0.24,24.45-4.88,38.32
	c-2.07,6.2-4.54,12.18-7.17,17.38c-1.15,2.29-2.33,4.42-3.53,6.35c-1.73,2.83-3.49,5.23-5.2,7.04c-1.41,1.51-2.79,2.61-4.09,3.22
	c-1.42,0.66-2.52,1.72-3.35,3.08C246.84,338.92,249.76,354.47,252.05,364.71z"/>
<path id="wwwwww_1_" fill="#FFFFFF" stroke="#000000" d="M244.14,257.8c-0.13,3.44,0.06,7.04,0.73,10.74
	c-11.7,16.71-5.59,42.02-2.83,51.07c-12.58,13.85-0.89,36.68,6.64,48.06c-4.54,4.03-9.45,8.48-14.51,13.22
	c0.25-4.5,0.91-18.52,0.08-25.2c-1.4-11.17-2.06-26.41-0.95-35.95c1.63-14.05,1.33-47.6,1.22-55.81
	C238.57,261.02,242.6,257.83,244.14,257.8z"/>
<path id="wwwww_1_" fill="#FFFFFF" stroke="#000000" d="M196.82,259.56c4.19,0.2,7.54-2.08,10.05,1.93c0,0-2.4,42.04,1.21,57.05
	c2.66,11.11-0.59,40.62,0.22,62.52c0.28,7.7,2.87,15.67,4.58,20.36l0.23,0.23c-4.37,4.56-8.65,9.22-12.69,13.88
	c-4.79,5.52-8.5,10.08-17.85,17.58c5.48-16.771,9.23-45.141,0.73-68.03c-5.85-15.76,0.77-32.4,3.61-40.53
	c13.51-38.74,9.91-64.86,9.91-64.86V259.56z"/>
<path id="wwww_1_" fill="#FFFFFF" stroke="#000000" d="M252.05,364.71c-2.29-10.24-5.21-25.79-0.79-32.96
	c2.97,5.59,8.7,17.48,8.75,26.09C257.57,359.91,254.9,362.22,252.05,364.71z"/>
<path id="www_1_" fill="#FFFFFF" stroke="#000000" d="M256.15,292.34c-1.42,5.77-3.41,11.57-6.18,16.71
	c-2.1-12.64-0.6-23.38-0.13-26.15C251.5,286.05,253.58,289.21,256.15,292.34z"/>
<path id="ww_1_" fill="#FFFFFF" stroke="#000000" d="M263.9,318.41c-0.96,17.73,2.34,29.81,3.43,33.25
	c-1.73,1.44-3.73,3.12-5.97,5.02h-0.01c1.8-6.85,3.11-18.35-2.65-31.23C260.41,323.64,262.17,321.24,263.9,318.41z"/>
<path id="w_1_" fill="#FFFFFF" stroke="#000000" d="M308.32,196.35c-0.41-0.43-0.98-0.8-1.75-1.11c-4.881-1.98-12.6,0.38-19.72,3.66
	c-3.43-4.42-5.56-21.32-4.19-29.58c0.37-2.28,1.02-3.9,1.98-4.41c4.51-2.4,21.62-59.75,11.41-32.43
	c-10.21,27.33-30.32,30.93-30.32,30.93c13.25-3.66,13.32-25.34,13.27-27.98l3.86-15.35l-0.02-0.01c-0.41-0.78-0.82-1.52-1.23-2.22
	c4.78,0.46,14.54-5.42,11.74-4.39c-2.86,1.05-14.11-2.85-14.11-2.85c1.16,0,4.44-3.52,4.64-3.74c-2.86,1.34-7.65-0.16-7.65-0.16
	c2.55-0.9,3.16-5.86,3.16-5.86c-0.23,0.47-9.2,3.59-11.51,4.34c-0.03,0.01-0.06,0.02-0.08,0.02c-2.2-0.24-4.18,0.4-5.89,1.43
	c-1.55-2.64-7.89-1.44-7.89-1.44c4.35-3.15,7.65-21.76,6.3-16.51c-1.31,5.09-11.49,14.97-12.13,15.58
	c5.83-7.25,3.09-19.16,3.12-19.03c0.45,2.1-2.1,7.8-2.1,7.8c0.45-7.06-5.86-8.7-5.86-8.7c2.92,5.26-4.82,18.49-5.23,19.18
	c5-10.44-1.74-18.31-2.69-19.3c1.01,1.15-0.48,9.271-0.48,9.271c-0.6-8.1-7.36-11.26-5.11-9.75c2.25,1.5,0.76,11.86,0.76,11.86
	c-0.72-3.5-2.92-6.36-4.23-7.81c-0.29-0.56-0.55-0.61,0,0c1.63,3.18,1.52,12.31,1.52,12.31c-3.9-11.71-11.71-11.56-11.71-11.56
	l-0.02,0.02c-3.67-3.12-9.29-4.37-9.29-4.37c1.96,1.35,1.66,4.5,1.66,4.5c-1.53-2.16-6.68-3.45-8.25-3.8
	c2.78,0.82,3.59,5.15,3.59,5.15c-1.33-1.71-7.83-2.82-10.22-3.18c4.01,1.03,9.32,8.28,9.32,8.28l0.07-0.01
	c0.52,3.63,6.15,40.22,21.55,51.06c0,0,6.31,10.81,18.02,4.8c0,0,1.28-0.21,3.39-0.66h0.01c9.13,3.04,8.93,14.74,5.3,25.14
	c0,0,0.05,0.771-1.18,1.8c-2.03,1.7-7.53,4.12-22.46,5.06l-6,1c0,0-11.19,3.09-13.59,18.71s-6.61,18.01-6.61,18.01
	s-6.01,4.81-3.61,10.22c0,0-4.8,11.4-8.4,15.61c-11.41-20.12-14.71-63.66-8.41-78.07c6-13.71,11.99-42.9,12.57-45.72
	c-3.43-8.16-27.17-68.78,15.66-82.8c26.95-8.82,50.44-25.82,96.68,6.61c34.3,24.06,44.75,101.14,53.75,111.05
	c9.01,9.9,19.66,44.76,69.96,106.75c22.13,27.28,55.86,83.67-10.2,140.12c0,0-10.818,15.608,8.4,30.028
	c19.22,14.41,17.6,16.632,27.63,30.021c5.39,7.188,22.55,7.99,30.85,7.938c-2.42,0.5-4.81,0.922-7.13,0.922
	c-9.91,0-25.68-0.45-27.93-5.86c-2.25-5.4-5.85-18.01-24.32-25.22c-18.47-7.2-22.97-16.21-26.568-40.98
	c-3.61-24.78-39.19-43.69-39.19-43.69c-41.09-31.04-24.479-63.34-23.47-65.22l-0.08-0.04c0.87-1.62,1.34-2.53,1.34-2.53l0.29-0.75
	c13.1,5.2,16.52-3.53,16.52-3.53c20.262-2.7,16.66-13.06,10.36-22.97c-6.31-9.91,0.521-15.68,1.8-20.72
	c18.2-71.65-37.01-66.56-43.688-65.7c-6.88,13.49-15.771,20.66-15.771,20.66L308.32,196.35z"/>
<path id="drowz_1_" fill="#FFFFFF" stroke="#000000" d="M216.16,88.56c1.44,1.22,2.59,2.74,2.96,4.58
	c-6.72-7.83-15.85,1.95-15.85,1.95l-0.23,0.01c0,0.01,0,0.02,0,0.03l-0.07,0.01c0,0-5.31-7.25-9.32-8.28
	c2.39,0.36,8.89,1.47,10.22,3.18c0,0-0.81-4.33-3.59-5.15c1.57,0.35,6.72,1.64,8.25,3.8c0,0,0.3-3.15-1.66-4.5
	C206.87,84.19,212.49,85.44,216.16,88.56z"/>
<path id="brow_1_" fill="#FFFFFF" stroke="#000000" d="M276.23,106.71c0,0,4.79,1.5,7.65,0.16c-0.2,0.22-3.48,3.74-4.64,3.74
	c0,0,11.25,3.9,14.11,2.85c2.8-1.03-6.96,4.85-11.74,4.39c-2.87-4.98-5.6-8.21-8.14-10.16c-2.01-1.53-3.89-2.28-5.64-2.48
	c0.02,0,0.03-0.01,0.05-0.02c2.31-0.75,11.28-3.87,11.51-4.34C279.39,100.85,278.78,105.81,276.23,106.71z"/>
<path id="oko4z_1_" fill="#FFFFFF" stroke="#000000" d="M214.8,96.68c-0.13,0.54-0.46,0.92-0.73,0.85
	c-0.27-0.061-0.38-0.55-0.24-1.09c0.13-0.53,0.45-0.91,0.72-0.85C214.82,95.66,214.93,96.15,214.8,96.68z"/>
<path id="oko4_1_" fill="#FFFFFF" stroke="#000000" d="M267.55,109.59c0.27,0.07,0.38,0.56,0.25,1.09
	c-0.13,0.54-0.46,0.92-0.73,0.85c-0.27-0.06-0.38-0.55-0.24-1.09C266.96,109.91,267.28,109.53,267.55,109.59z"/>
<path id="oko3z_1_" fill="#FFFFFF" stroke="#000000" d="M266.15,110.79c0.45-1.74,1.93-2.87,3.33-2.51c1.39,0.36,2.15,2.06,1.7,3.81
	c-0.45,1.74-1.93,2.87-3.33,2.51C266.46,114.24,265.7,112.54,266.15,110.79z M267.07,111.53c0.27,0.07,0.6-0.311,0.73-0.85
	c0.13-0.53,0.02-1.02-0.25-1.09c-0.27-0.06-0.59,0.32-0.72,0.85C266.69,110.98,266.8,111.47,267.07,111.53z"/>
<path id="oko3_1_" fill="#FFFFFF" stroke="#000000" d="M214.55,95.59c-0.27-0.06-0.59,0.32-0.72,0.85
	c-0.14,0.54-0.03,1.03,0.24,1.09c0.27,0.07,0.6-0.31,0.73-0.85C214.93,96.15,214.82,95.66,214.55,95.59z M216.1,94.75
	c1.27,0.33,1.96,1.87,1.55,3.46c-0.41,1.59-1.76,2.61-3.03,2.29c-1.27-0.33-1.96-1.88-1.55-3.47
	C213.48,95.45,214.83,94.42,216.1,94.75z"/>
<path id="oko2z_1_" fill="#FFFFFF" stroke="#000000" d="M271.18,112.09c0.45-1.75-0.31-3.45-1.7-3.81c-1.4-0.36-2.88,0.77-3.33,2.51
	c-0.45,1.75,0.31,3.45,1.7,3.81C269.25,114.96,270.73,113.83,271.18,112.09z M273.47,107.69c0.61,1.38,0.68,3.31,0.23,5.04
	c-0.89,3.49-3.87,5.74-6.66,5.03c-2.78-0.72-4.31-4.13-3.41-7.62c0.55-2.15,2.57-4.12,4.2-4.93
	C269.58,105.41,271.46,106.16,273.47,107.69z"/>
<path id="oko2_1_" fill="#FFFFFF" stroke="#000000" d="M217.65,98.21c0.41-1.59-0.28-3.13-1.55-3.46s-2.62,0.7-3.03,2.28
	c-0.41,1.59,0.28,3.14,1.55,3.47C215.89,100.82,217.24,99.8,217.65,98.21z M216.84,91.88c2.52,0.65,3.92,3.75,3.1,6.92
	s-3.52,5.22-6.06,4.57c-2.52-0.65-3.92-3.75-3.1-6.92C211.59,93.27,214.3,91.23,216.84,91.88z"/>
<path id="oko1z_1_" fill="#FFFFFF" stroke="#000000" d="M281.61,117.85c0.41,0.7,0.82,1.44,1.23,2.22c0,0-25.34,1.6-27.92-5.41
	c0,0,2.6-5.34,6.99-8.02c1.71-1.03,3.69-1.67,5.89-1.43c0.01,0,0.02,0,0.03,0c-1.63,0.81-3.65,2.78-4.2,4.93
	c-0.9,3.49,0.63,6.9,3.41,7.62c2.79,0.71,5.77-1.54,6.66-5.03c0.45-1.73,0.38-3.66-0.23-5.04
	C276.01,109.64,278.74,112.87,281.61,117.85z"/>
<path id="oko1_1_" fill="#FFFFFF" stroke="#000000" d="M216.84,91.88c-2.54-0.65-5.25,1.39-6.06,4.57c-0.82,3.17,0.58,6.27,3.1,6.92
	c2.54,0.65,5.24-1.4,6.06-4.57S219.36,92.53,216.84,91.88z M219.12,93.14c2.41,2.79,4.5,7.84,5.77,16.37c0,0-14.41-0.61-21.62-14.42
	C203.27,95.09,212.4,85.31,219.12,93.14z"/>
<path fill="none" stroke="#000000" d="M311.372,421.488c0,0,2.098,32.422,5.7,41.731c3.604,9.313,3.604,16.266,3.604,16.266"/>
<path fill="none" stroke="#000000" d="M233.749,110.158c0,0-0.155,11.411-3.153,13.512c-2.998,2.101-2.104,8.11,1.802,7.809"/>
<path fill="none" stroke="#000000" d="M324.636,174.818c6.62-13.316,11.179-32.58,3.696-57.003"/>
<path fill="none" stroke="#000000" d="M318.424,388.054c0,0,28.86,2.855,43.576-7.054"/>
<path fill="none" stroke="#000000" d="M415.5,264c0,0,38.043,29.02,11.47,91.625"/>
<path fill="none" stroke="#000000" d="M389.137,259.69c0,0,27.924,72.064-14.413,94.133"/>
<path fill="none" stroke="#000000" d="M193.609,122.016c0,0,16.057,32.317-1.609,64.651"/>
<path fill="none" stroke="#000000" d="M347,439c0,0,14-14,18-28"/>
<path fill="none" stroke="#000000" d="M350.834,466.667c0,0,9.166-3.667,24.166-25.667"/>
<line fill="none" stroke="#000000" x1="142.167" y1="484.833" x2="157.833" y2="464.333"/>
<line fill="none" stroke="#000000" x1="159.438" y1="484.313" x2="169.5" y2="470"/>
<line fill="none" stroke="#000000" x1="306.188" y1="374.125" x2="340" y2="382"/>
</svg>
