<?xml version="1.0" encoding="utf-8"?>
<!-- Generator: Adobe Illustrator 15.0.0, SVG Export Plug-In . SVG Version: 6.00 Build 0)  -->
<!DOCTYPE svg PUBLIC "-//W3C//DTD SVG 1.1//EN" "http://www.w3.org/Graphics/SVG/1.1/DTD/svg11.dtd">
<svg version="1.1" id="layer_x5F_www.ABC-color.com"
	 xmlns="http://www.w3.org/2000/svg" xmlns:xlink="http://www.w3.org/1999/xlink" x="0px" y="0px" width="567px" height="822px"
	 viewBox="0 0 567 822" enable-background="new 0 0 567 822" xml:space="preserve">
<rect y="1" display="none" fill="#FFFFFF" width="567" height="822"/>
<path fill="#FFFFFF" stroke="#000000" d="M312.3,109.9c1.102,0,2,0.7,2,1.7c0,0.9-0.898,1.7-2,1.7c-1.1,0-2-0.7-2-1.7
	S311.2,109.9,312.3,109.9z"/>
<path fill="#FFFFFF" stroke="#000000" d="M267.9,109.9c1.1,0,2,0.7,2,1.7c0,0.9-0.9,1.7-2,1.7s-2-0.7-2-1.7S266.8,109.9,267.9,109.9
	z"/>
<path fill="#FFFFFF" stroke="#000000" d="M276.6,777.7c6.3,20.1,39.5,18.5,42-2.8c4-5.7,3.302-14.302,3.5-21.7
	c2.4-4.4,2.802-11.2,2.802-16.8c1.198-1,3.1-1.7,4.898-0.7c-3.6,16.2-1,50.898-20.6,59.2c-8.9,3.8-31,5.198-34.7-16.5
	C275.3,778.3,276,778,276.6,777.7z"/>
<path fill="#FFFFFF" stroke="#000000" d="M289.2,766.5c-2.7-13,18.3-12.5,14,0C298.8,767.7,293.5,767.6,289.2,766.5z"/>
<path fill="#FFFFFF" stroke="#000000" d="M313.7,756c6.6,0.5,5.2,7.8,3.8,12.2c-0.7,0.3-1.4,0.5-2.4,0.398
	c-4.3,0.4-8.198-0.1-11.898-2.1c4.3-12.5-16.7-13-14,0c-2.801,1.5-6.1,0.4-9.1,0.7c-0.6-1.2-1.5-2.2-2.5-3.101
	c-0.3-3.399-0.8-7.199,0.1-10.5c0.5-0.5,0.9-1,1.3-1.5c2.7-0.899,5.5-0.199,7,2.199c0.8,0.2,1.5,0,2.101-0.199
	c2.699-3.199,0.801-8.101,4.899-10.399c1.7-0.3,3.5-0.3,4.899,0.1c3.399,1.102,2.101,5.5,4.801,6.5c1.8-2.5,5.6-5.3,9.2-3.7
	c0.5,0.5,1,0.9,1.5,1.302c0.198,1.198,0.898,2,1.5,2.8C314.9,752.5,313.7,753.8,313.7,756z"/>
<path fill="#FFFFFF" stroke="#000000" d="M280.1,767.2c-0.7,3.7-6.1,6.3-3.5,10.5c-0.6,0.3-1.3,0.6-2.1,0.7
	c-0.3-0.102-0.7-0.302-1-0.4c-0.3-9.9-2.1-21.2,3.1-29.7c12.4-15,37.1-12.5,45.5,4.9c-0.198,7.398,0.5,16-3.5,21.7
	c-2.198-1.102-3.3-3.9-3.5-6.302c1,0.102,1.7-0.198,2.4-0.398c1.4-4.4,2.8-11.7-3.8-12.2c0-2.3,1.2-3.5,1.1-5.3
	c-0.6-0.8-1.3-1.602-1.5-2.8c-0.5-0.4-1-0.802-1.5-1.302c-3.7-1.6-7.399,1.102-9.2,3.7c-2.6-1-1.398-5.3-4.8-6.5
	c-1.3-0.398-3.2-0.398-4.899-0.1c-4.199,2.3-2.199,7.2-4.899,10.399c-0.601,0.199-1.3,0.399-2.101,0.199
	c-1.5-2.398-4.299-3.1-7-2.199c-0.4,0.5-0.8,1-1.3,1.5c-0.9,3.301-0.4,7-0.1,10.5C278.5,765,279.5,766,280.1,767.2z"/>
<path fill="#FFFFFF" stroke="#000000" d="M289.2,766.5c4.399,1.1,9.7,1.2,14,0c3.7,2,7.6,2.5,11.898,2.1
	c0.2,2.4,1.302,5.2,3.5,6.302c-2.5,21.3-35.7,22.898-42,2.8c-2.6-4.2,2.8-6.8,3.5-10.5C283.1,766.9,286.4,768,289.2,766.5z"/>
<path fill="#FFFFFF" stroke="#000000" d="M186.8,701.9c14.1,7.898,29.9,10.8,45,17c-1.9,7.198-7.1,13.8-14,16.8
	c1.6-20.102-20.9-27.2-36.6-29.602C182,703.8,184.2,701.8,186.8,701.9z"/>
<path fill="#FFFFFF" stroke="#000000" d="M231.8,718.9c2.1,0.5,4.6,0.398,6.3,2.1c-11.5,28.4-74,60.5-75.6,11.2
	c5.2,11.3,19.5,25,35,18.898c8.4-2.1,15.1-8.698,20.3-15.398C224.7,732.7,229.9,726.1,231.8,718.9z"/>
<path fill="#FFFFFF" stroke="#000000" d="M195.4,725.9c1.6,2.5,1.7,5.698,2.8,8.398c2.2,5.602-0.4,11.3-0.7,16.8
	c-15.5,6-29.8-7.6-35-18.898c0.3-4.5,3.1-8.8,6.3-11.9c3.3,1.9,6.6-0.7,9.8-1.398c2.3,1.3,5.2,0.5,7.7,0.698
	c0.1,0.302,0.3,0.7,0.4,1C190.4,721,193.3,722.9,195.4,725.9z"/>
<path fill="#FFFFFF" stroke="#000000" d="M198.6,719.9c0.3,1.3,0.2,2.5-0.1,3.5c-0.6,0.8-1.4,1.398-2.3,1.898
	c-0.3,0.2-0.5,0.4-0.8,0.602c-2.1-3-5-4.9-8.7-5.302c-0.1-0.3-0.3-0.6-0.4-1c0-0.5,0-0.898,0-1.398c0.4-1,1.1-1.7,1.7-2.5
	C191.8,716.2,196.3,716.3,198.6,719.9z"/>
<path fill="#FFFFFF" stroke="#000000" d="M206.9,723.4c-6.5-0.4-0.7,5.1-2.8,8.398c-1.1,0.3-1.9,0.9-2.6,1.5
	c-1.2,0.2-2.3,0.602-3.2,1c-1.1-2.7-1.2-5.898-2.8-8.398c0.3-0.2,0.5-0.4,0.8-0.602c0.9-0.5,1.7-1.2,2.3-1.898
	c0.3-1,0.4-2.2,0.1-3.5c-2.3-3.602-6.8-3.7-10.6-4.2c-0.6,0.8-1.3,1.5-1.7,2.5c0,0.5,0,0.898,0,1.398c-2.5-0.3-5.4,0.602-7.7-0.698
	c0.3-2.7,2.5-4.2,3.8-6.4C190.2,710.2,206.2,714,206.9,723.4z"/>
<path fill="#FFFFFF" stroke="#000000" d="M181.2,706.1c15.8,2.5,38.2,9.5,36.6,29.602c-5.2,6.7-11.9,13.3-20.3,15.398
	c0.3-5.5,2.9-11.198,0.7-16.8c1-0.398,2-0.8,3.2-1c0.8-0.6,1.5-1.3,2.6-1.5c2.1-3.3-3.7-8.8,2.8-8.398c-0.7-9.4-16.6-13.2-24.5-10.9
	c-1.3,2.2-3.5,3.7-3.8,6.4c-3.2,0.698-6.5,3.3-9.8,1.398C172.7,715.6,175.7,709,181.2,706.1z"/>
<path fill="#FFFFFF" stroke="#000000" d="M324.9,736.4c0,5.6-0.4,12.398-2.802,16.8c-8.398-17.4-33.1-19.9-45.5-4.9
	c-1.7-6.398,4.3-12,4.4-18.398C296.2,730.8,309.6,741.4,324.9,736.4z"/>
<path fill="#FFFFFF" stroke="#000000" d="M390,602.7c17.3,29.5-39.1,57.898-49,21.7C361.4,643.4,387.5,628.8,390,602.7z"/>
<path fill="#FFFFFF" stroke="#000000" d="M389.3,596.4c17.9,1.698,32.7-9.802,44.8-21c-0.5,21.698-27,26.3-44.1,25.898
	C389.4,600.1,389.4,598.2,389.3,596.4z"/>
<path fill="#FFFFFF" stroke="#000000" d="M351.5,404.6c17.1,2.9,34.9-2.1,51.7,1.5c8.3,7.7,6.5,19.9,7.8,30c-3,3-2.7,8-5.8,11
	c0.2,0.4,0.398,0.7,0.6,1.102c6.5,26.898,13.5,54.6,6.102,82.3c15,9.7,26,26.4,22.198,45c-12.1,11.3-26.898,22.7-44.8,21
	c0.102,1.8,0.102,3.7,0.7,4.9c0,0.5,0,0.898,0,1.398c-2.5,26.102-28.6,40.7-49,21.7c-4.8-4.9-3.5-12.9-8.8-17.2
	C321.9,554.8,302.5,502.6,308,447.4c1.9-16.7-1.5-34.2,3.5-50.4C323.5,404,338,405.6,351.5,404.6z"/>
<path fill="#FFFFFF" stroke="#000000" d="M260.5,609c-3.2,37-5.9,79-22.4,112c-1.7-1.7-4.2-1.6-6.3-2.1c-15.2-6.302-30.9-9.2-45-17
	c1.1-6.9,6.5-13.5,9.1-21.7c10.1-31.3-5.2-65.602-3.1-94.4c2.6-35.398-7.2-87.398-12.3-115.2c-0.2-0.3-0.3-0.6-0.5-0.898
	c1.4-4.8,0.8-10.3-0.2-15.2c1.9-9.2,0.6-19.1,0.2-28.2c0.5-1.3,0.7-3,1.4-4.2c7.7,2.802,14.9,8.9,23.8,8.4c1.3,3.9-0.2,8.8,3.8,11.6
	c31.7,9.602,66.4,1.5,99.1,5.2c-5.5,55.2,13.802,107.4,24.2,159.9c-0.2,0.2-0.3,0.5-0.5,0.7c-2.2,27.8,14.2,50.3,17.5,73.1
	c2.3,16,5.102,40.8-9.6,48.9c-4.602,2.5-8.3-0.7-9.8,5.8c-1.802-1-3.7-0.3-4.9,0.7c-15.3,5-28.6-5.602-43.9-6.5
	C283.2,687.9,271.9,648.3,260.5,609z"/>
<path fill="#FFFFFF" stroke="#000000" d="M159.7,425.6c6.6,1.2,13.5,0.602,20.3,0.7c0.4,9.2,1.6,19.102-0.2,28.2
	c1,4.9,1.6,10.3,0.2,15.2C167.5,458.9,157.8,443.3,159.7,425.6z"/>
<path fill="#FFFFFF" stroke="#000000" d="M205.2,430.5c-8.9,0.5-16.1-5.5-23.8-8.4c-0.7,1.2-0.9,2.9-1.4,4.2
	c-6.8-0.1-13.7,0.5-20.3-0.7c-15.9-33.6-4-144.6,9.6-180.8c5.4-14.4,5.6-33.6,29.1-48.3c8.8,2.3,18.2,3.5,27.1,0.9
	c5.5,7.9,16.7,10.7,23.3,17.3c-22.9,4.6-34.1,18-39.9,37.5c-12.8,43.4,3.7,131.9-3.2,177.398C205.5,429.9,205.4,430.2,205.2,430.5z"
	/>
<path fill="#FFFFFF" stroke="#000000" d="M322.1,312.2c-19.199,0.1-24.1,23.1-22.398,38.5c-0.801-0.2-1.5-0.6-2.4-1.1
	C285.5,332.1,299.2,288.7,322.1,312.2z"/>
<path fill="#FFFFFF" stroke="#000000" d="M299.7,350.7c0.399,0.6,0.7,1.4,0.399,2.7c-0.899,0.6-2.601,0.9-4.301,0.5
	c-14.9-17-12.5-60.4,16.3-61.1c8,4.1,13.2,12.5,16.2,20.7c-1.7,2.2-4.3-0.9-6.2-1.3c-22.898-23.6-36.6,19.8-24.8,37.4
	C298.2,350.2,298.9,350.5,299.7,350.7z"/>
<path fill="#FFFFFF" stroke="#000000" d="M380,396.7c4.2,1.399,10.4,2.3,13.5-1.9c6.7-2.1,10-9.3,10.7-15.9c0.2-0.1,0.3-0.2,0.5-0.2
	c12.898-3.3,26.5-9.6,39.898-5.7c23.2,26.2-6.898,56.5-33.6,63.1c-1.4-10,0.4-22.198-7.8-30c-16.8-3.6-34.602,1.301-51.7-1.5
	C358.2,396.2,370.1,396,380,396.7z"/>
<path fill="#FFFFFF" stroke="#000000" d="M393.5,394.8c-7.2-5.8,2.6-20.2,10.7-15.9C403.5,385.5,400.2,392.7,393.5,394.8z"/>
<path fill="#FFFFFF" stroke="#000000" d="M404.7,378.7c-0.2,0.1-0.3,0.2-0.5,0.2c-8.102-4.3-17.9,10.1-10.7,15.9
	c-3.1,4.101-9.3,3.3-13.5,1.9c-5.5-15.3,5.4-31.1,21-33.6C403.5,367.9,404.2,373.4,404.7,378.7z"/>
<path fill="#FFFFFF" stroke="#000000" d="M373.9,359.2c2.6,0,4.698,2.1,4.698,4.7s-2.1,4.7-4.698,4.7c-2.602,0-4.7-2.1-4.7-4.7
	S371.3,359.2,373.9,359.2z"/>
<path fill="#FFFFFF" stroke="#000000" d="M373.9,368.6c2.6,0,4.698-2.1,4.698-4.7s-2.1-4.7-4.698-4.7c-2.602,0-4.7,2.1-4.7,4.7
	S371.3,368.6,373.9,368.6z M370.4,372.8c-32-10.5,15.6-38.5,10.5-8.8C380.7,369.4,376,374.5,370.4,372.8z"/>
<path fill="#FFFFFF" stroke="#000000" d="M378.6,263.7c25.7,26.5,8.9,68,22.4,99.4c-15.6,2.5-26.5,18.4-21,33.6
	c-9.8-0.7-21.8-0.5-28.5,7.899c-13.5,1-28-0.6-39.9-7.699c-62.7-35.7-35.1-164.4,43.302-151.5c2.3-4.3-2.4-9.3,0.398-13.6
	C376.7,229.2,365.1,259.4,378.6,263.7z M299.7,350.7c-1.7-15.4,3.2-38.4,22.398-38.5c1.9,0.4,4.5,3.5,6.2,1.3
	c-3-8.2-8.1-16.6-16.2-20.7c-28.8,0.7-31.2,44.1-16.3,61.1c1.7,0.4,3.4,0.2,4.301-0.5C300.4,352.1,300.1,351.3,299.7,350.7z
	 M380.9,364c5.1-29.7-42.5-1.8-10.5,8.8C376,374.5,380.7,369.4,380.9,364z"/>
<path fill="#FFFFFF" stroke="#000000" d="M378.6,263.7c-13.5-4.3-1.8-34.4-23.198-32c-0.7-1.9,0.898-3.6,1.3-5.4
	C381.7,215.1,385.7,247.1,378.6,263.7z"/>
<path fill="#FFFFFF" stroke="#000000" d="M356.6,226.4c-0.398,1.8-2,3.5-1.3,5.4c-2.8,4.4,1.9,9.4-0.398,13.6
	c-78.4-12.8-106,115.9-43.302,151.5c-5,16.199-1.6,33.699-3.5,50.399c-32.7-3.7-67.398,4.4-99.1-5.2c-4-2.8-2.5-7.698-3.8-11.6
	c0.2-0.3,0.3-0.6,0.5-0.9c6.9-45.5-9.6-134,3.2-177.398c5.8-19.5,17-32.9,39.9-37.5c18.9,5.3,41.9-0.4,50.4-19.6
	c6,2.2,12.2,4.4,18.2,6.7C332,207.4,346,214.2,356.6,226.4z"/>
<path fill="#FFFFFF" stroke="#000000" d="M326.5,132.9c0,0,4.4,65.2-9.1,68.9c-6-2.3-12.2-4.5-18.2-6.7c-0.8-2.2-1.3-5.8-1.5-8.2
	c0.399-2.3-0.9-5.6,0-7.7C315.7,169.2,322.5,152.2,326.5,132.9z"/>
<path fill="#FFFFFF" stroke="#000000" d="M295.5,147.4c1.1-1,4.5,4.7,10.4,2.6c-1.7,4.2-4.4,5.7-7,7.9
	c-3.102,2.6-7.801,3.9-12.2-0.6c-2.101-2.2-6.5-3.1-7.6-7.1c7.2,2.4,7.9-3.3,10.6-2.7c1.3,0.3,0.5,1.1,2.8,0.1
	C293.6,147,293.9,148.8,295.5,147.4z"/>
<path id="www.ABC-color.com" fill="#FFFFFF" stroke="#000000" d="M312.3,106.9c-2.898,0-5.2,2.2-5.2,5c0,2.6,2.102,4.8,4.802,5
	c-6.501,0.3-11.602-2.6-11.602-2.6c14.7-20.7,24.3-3,24.3-3c-3.6,3.5-7.398,5-11,5.5c2.2-0.6,3.802-2.5,3.802-4.8
	C317.4,109.1,315.1,106.9,312.3,106.9z"/>
<path fill="#FFFFFF" stroke="#000000" d="M312.3,109.9c-1.1,0-2,0.7-2,1.7c0,0.9,0.9,1.7,2,1.7c1.102,0,2-0.7,2-1.7
	S313.4,109.9,312.3,109.9z M312.3,106.9c2.8,0,5.2,2.2,5.2,5c0,2.3-1.6,4.3-3.8,4.8c-0.602,0.1-1.2,0.1-1.8,0.2
	c-2.7-0.2-4.802-2.4-4.802-5C307.1,109.1,309.4,106.9,312.3,106.9z"/>
<path fill="#FFFFFF" stroke="#000000" d="M255.6,111.2c0,0,9.7-17.7,24.3,3c0,0-5.1,2.9-11.6,2.6c2.7-0.2,4.8-2.4,4.8-5
	c0-2.8-2.3-5-5.2-5s-5.2,2.2-5.2,5c0,2.3,1.6,4.3,3.8,4.8C263,116.2,259.2,114.7,255.6,111.2z"/>
<path fill="#FFFFFF" stroke="#000000" d="M267.9,106.9c2.9,0,5.2,2.2,5.2,5c0,2.6-2.1,4.8-4.8,5c-0.6,0-1.2-0.1-1.8-0.2
	c-2.2-0.6-3.8-2.5-3.8-4.8C262.8,109.1,265.1,106.9,267.9,106.9z M267.9,109.9c-1.1,0-2,0.7-2,1.7c0,0.9,0.9,1.7,2,1.7s2-0.7,2-1.7
	S269,109.9,267.9,109.9z"/>
<path fill="#FFFFFF" stroke="#000000" d="M297.7,186.9c0.2,2.4,0.7,6,1.5,8.2c-8.5,19.3-31.5,24.9-50.4,19.6
	c-6.6-6.5-17.9-9.4-23.3-17.3c58.5,26.6,39.3-48.2,23.3-71.9c-13-24.1,9.1-36.6,10.6-60.5c12.5,3,17.7,3,21.6,15.5
	c6.1,4.4,8.1,11.1,9.2,11.2c3-5,1.2-21.8,4.2-26.7c0.699,0,1.199,0.1,1.8,0.3c5.899,8.9,13.2,17.3,18.3,26.4
	c4.3,3.6,10.7,10.3,16.8,11.1v0.1c-1.5,10.2-2.7,20.4-4.7,30c-3.898,19.3-10.8,36.2-28.699,46.3
	C296.9,181.3,298.1,184.6,297.7,186.9z M324.6,111.2c0,0-9.698-17.7-24.3,3c0,0,5.101,2.9,11.602,2.6c0.1,0,0.3,0,0.398,0
	c0.5,0,0.9-0.1,1.3-0.2C317.2,116.2,321,114.7,324.6,111.2z M305.9,150c-5.801,2.1-9.2-3.5-10.4-2.6c-1.6,1.4-1.9-0.4-3,0.2
	c-2.3,1-1.4,0.2-2.8-0.1c-2.7-0.6-3.5,5.1-10.6,2.7c1.1,4,5.5,4.9,7.6,7.1c4.399,4.6,9.1,3.3,12.2,0.6
	C301.5,155.6,304.2,154.1,305.9,150z M279.9,114.2c-14.7-20.7-24.3-3-24.3-3c3.6,3.5,7.4,5,11,5.5c0.4,0.1,0.9,0.2,1.3,0.2
	c0.1,0,0.3,0,0.4,0C274.8,117.1,279.9,114.2,279.9,114.2z"/>
<path fill="#FFFFFF" stroke="#000000" d="M267.5,28.8c37.8-1.1,75.8,26,67.5,73.6c-1.2,0.4-2.5,0.6-3.8,0.4
	c-6.102-0.8-12.5-7.5-16.8-11.1C309.3,82.6,302,74.2,296.1,65.3c-0.5-0.1-1-0.3-1.8-0.3c-2.899,4.9-1.1,21.7-4.2,26.7
	c-1.1-0.1-3.1-6.8-9.2-11.2C277.2,68,272,68,259.5,65c-1.5,23.9-23.6,36.4-10.6,60.5c15.9,23.8,35.2,98.5-23.3,71.9
	c-8.9,2.6-18.3,1.4-27.1-0.9c-1.8-3.1-0.9-10.5,3.3-12.3c10.5-7.3,20.6-14.1,16.2-23.9c-8.6-19.2-12.7-103.8,24.3-124.7
	C250.9,30.6,254,29.2,267.5,28.8z"/>
<path fill="#FFFFFF" stroke="#000000" d="M201.7,184.2c-4.2,1.8-5,9.2-3.3,12.3c-23.5,14.8-23.7,33.9-29.1,48.3
	c-13.6,36.2-25.4,147.2-9.6,180.8c-1.9,17.7,7.8,33.302,20.3,44.102c0.2,0.3,0.3,0.6,0.5,0.898c5.1,27.802,14.8,79.802,12.3,115.2
	c-2.1,28.8,13.3,63.102,3.1,94.4c-2.6,8.1-8,14.7-9.1,21.7c-2.6-0.102-4.7,1.898-5.6,4.198c-5.4,2.9-8.5,9.5-12.4,14.2
	c-3.2,3.102-6,7.4-6.3,11.9c1.6,49.3,64.1,17.2,75.6-11.2c16.5-33,19.2-75,22.4-112c11.4,39.3,22.7,78.9,20.5,120.9
	c-0.2,6.398-6.1,12.1-4.4,18.398c-5.2,8.5-3.4,19.801-3.1,29.7c0.3,0.101,0.7,0.3,1,0.4c3.7,21.699,25.8,20.3,34.7,16.5
	c19.6-8.301,17-43,20.6-59.2c1.602-6.5,5.3-3.2,9.8-5.8c14.7-8.102,11.9-32.9,9.602-48.9c-3.3-22.8-19.7-45.3-17.5-73.1
	c0.1-0.2,0.3-0.5,0.5-0.7c5.2,4.2,4,12.2,8.8,17.2c9.9,36.199,66.3,7.8,49-21.7c0-0.5,0-0.9,0-1.4c17,0.4,43.6-4.199,44.1-25.898
	c3.9-18.602-7.198-35.301-22.198-45c7.398-27.602,0.398-55.301-6.102-82.301c-0.2-0.399-0.398-0.699-0.6-1.101c3.2-3,2.8-8,5.8-11
	c26.7-6.5,56.9-36.9,33.6-63.1c-13.5-4-27.1,2.4-39.898,5.7c-0.5-5.3-1.2-10.9-3.7-15.6c-13.5-31.4,3.3-72.9-22.4-99.4
	C385.7,247,381.7,215,356.7,226.3c-10.7-12.1-24.602-18.9-39.2-24.6c13.4-3.7,9.1-68.9,9.1-68.9c2-9.6,3.2-19.8,4.7-30v-0.1
	c1.3,0.2,2.602,0,3.8-0.4c8.302-47.6-29.8-74.8-67.5-73.6c-13.4,0.4-16.5,1.8-25.3,6.8c-37,20.9-32.9,105.5-24.3,124.7
	C222.3,170,212.2,176.9,201.7,184.2z M0.5,822.5V0.5h567v822"/>
<path fill="none" stroke="#000000" stroke-width="3" stroke-linecap="round" d="M255.6,94.5c7.5-4.8,18.4-1.7,25.9,6.6"/>
<path fill="none" stroke="#000000" stroke-linecap="round" d="M389.3,596.4c-12.2-25.602-1.1-55.9-7.7-83"/>
<path fill="none" stroke="#000000" stroke-linecap="round" d="M381.6,513.5c-2.698-5.1-8.698-7.7-11.898-12.3"/>
<path fill="none" stroke="#000000" stroke-linecap="round" d="M381.6,513.5c3.602-2.5,4.102-8.4,6.302-12.3"/>
<path fill="none" stroke="#000000" stroke-linecap="round" d="M179.8,454.6c-8.6-3.198-10.9-12.698-13.1-20.5"/>
<path fill="none" stroke="#000000" stroke-linecap="round" d="M297.7,179.2c-14.4,0-13.7,1.8-24-7.9"/>
<path fill="none" stroke="#000000" stroke-linecap="round" d="M192.3,357.5c10.6-25,2.1-54.9,6.6-81.6"/>
<path fill="none" stroke="#000000" stroke-linecap="round" d="M180.9,421.2c-4.5-22.8,7.5-42.5,11.4-63.8"/>
<path fill="none" stroke="#000000" stroke-linecap="round" d="M256.1,561.6c-4-14.1-15.3-24-13.8-42.198"/>
<path fill="none" stroke="#000000" stroke-linecap="round" d="M260.5,609c-4.8-16.4,0-32.1-4.4-47.4"/>
<path fill="none" stroke="#000000" stroke-width="3" stroke-linecap="round" d="M297.7,100.7c0,0,8-6.8,22.1-3.4"/>
<path fill="none" stroke="#000000" stroke-linecap="round" d="M286.4,135c0,0,6.199-9.4,12.398,0"/>
<path fill="none" stroke="#000000" stroke-linecap="round" d="M253.7,101.6c0,0,6,4.1,4,6.9"/>
<path fill="none" stroke="#000000" stroke-linecap="round" d="M258.1,99.5c0,0,3.9,5.4,2.5,6.4"/>
<path fill="none" stroke="#000000" stroke-linecap="round" d="M263.8,99.5c0,0,2.5,3.9,0.5,4.7"/>
<path fill="none" stroke="#000000" stroke-linecap="round" d="M268.8,99.5c0,0,0.6,4.5-0.2,4.7"/>
<path fill="none" stroke="#000000" stroke-linecap="round" d="M273.6,102.9c0,0,0.4,4.6-0.6,3.9"/>
<path fill="none" stroke="#000000" stroke-linecap="round" d="M277.6,106.9c0,0,0.8,3-0.2,4"/>
<path fill="none" stroke="#000000" stroke-linecap="round" d="M324.3,103.2c0,0-3.7,2.5-1.6,5.3"/>
<path fill="none" stroke="#000000" stroke-linecap="round" d="M319.9,101.2c0,0-2,2.7-1.4,4.1"/>
<path fill="none" stroke="#000000" stroke-linecap="round" d="M315.2,99.5c0,0-2.7,4-0.7,4.7"/>
<path fill="none" stroke="#000000" stroke-linecap="round" d="M309.7,100.7c0,0-1.102,4.6-0.3,4.8"/>
<path fill="none" stroke="#000000" stroke-linecap="round" d="M305.2,103.5c0,0-1.2,5.7-0.3,5"/>
<path fill="none" stroke="#000000" stroke-linecap="round" d="M300.3,108.5c0,0-0.399,3.3,0.601,4.3"/>
<path fill="none" stroke="#000000" stroke-linecap="round" d="M258,113.2c0,0-0.7,2.5-3.1,2.2"/>
<path fill="none" stroke="#000000" stroke-linecap="round" d="M261,115.1c0,0,0.9,1.5-1.9,2.9"/>
<path fill="none" stroke="#000000" stroke-linecap="round" d="M265.2,116.5c0,0,0,2.1-1.8,3"/>
<path fill="none" stroke="#000000" stroke-linecap="round" d="M269.9,117.3c0,0,0.4,2.2-1,3"/>
<path fill="none" stroke="#000000" stroke-linecap="round" d="M277.4,115.4c0,0,0.3,3.9-1,4.1"/>
<line fill="none" stroke="#000000" stroke-linecap="round" x1="302.8" y1="115.4" x2="304.5" y2="119"/>
<line fill="none" stroke="#000000" stroke-linecap="round" x1="306.1" y1="116.5" x2="308.2" y2="119.5"/>
<path fill="none" stroke="#000000" stroke-linecap="round" d="M314.5,116.9c0,0,1.3,1.7,3,2.2"/>
<path fill="none" stroke="#000000" stroke-linecap="round" d="M318.4,115.4c0,0,1.198,1.9,3,2.2"/>
<path fill="none" stroke="#000000" stroke-linecap="round" d="M322.2,113.2c0,0,1.3,1.7,2.1,2.1"/>
<line fill="none" stroke="#000000" stroke-linecap="round" x1="310.3" y1="117.2" x2="313.1" y2="120.3"/>
<path fill="none" stroke="#000000" stroke-linecap="round" d="M290.2,172.5c0,0,2.8,3.6,5.8,0.2"/>
<path fill="none" stroke="#000000" stroke-linecap="round" d="M287.1,153c0,0,6,5.6,11.2,0.2"/>
<path fill="none" stroke="#000000" stroke-linecap="round" d="M274.5,116.5c0,0-0.1,3.7-1.4,4"/>
<path fill="none" stroke="#000000" stroke-linecap="round" stroke-linejoin="round" d="M404.6,447.2
	C376.4,473.6,308.1,480.2,320.7,418.6"/>
</svg>
