<?xml version="1.0" encoding="utf-8"?>
<!-- Generator: Adobe Illustrator 15.0.0, SVG Export Plug-In . SVG Version: 6.00 Build 0)  -->
<!DOCTYPE svg PUBLIC "-//W3C//DTD SVG 1.1//EN" "http://www.w3.org/Graphics/SVG/1.1/DTD/svg11.dtd">
<svg version="1.1" id="layer_x5F_www.ABC-color.com"
	 xmlns="http://www.w3.org/2000/svg" xmlns:xlink="http://www.w3.org/1999/xlink" x="0px" y="0px" width="822px" height="567px"
	 viewBox="0 0 822 567" enable-background="new 0 0 822 567" xml:space="preserve">
<polyline fill="#FFFFFF" points="0,0 822,0 822,567 "/>
<path fill="#FFFFFF" stroke="#000000" d="M560.3,320.4c4.602-0.4,7.102,0.8,7.3,3.5c0.302,3.398-8.8,10-18,14.3
	c-2.1,1-4.198,1.899-6.198,2.5c-3.802,1.3-7,2-9.4,2.2c-4.5,0.3-6.7-1-6.2-3.801c0.602-3,7-8.601,14.602-12.801
	c2.698-1.5,5.5-2.699,8.198-3.699C554.6,321.4,557.8,320.7,560.3,320.4z"/>
<path fill="#FFFFFF" stroke="#000000" d="M632.1,313.7c13.7,3.5,10.102,16.5,5.9,37.3c-1,5-14-9.5-27.9-4.8
	c-15.398,5.3-33.398,10.1-43.5,9l-4.398-4.4L549.7,338.4V338.3c9.2-4.3,18.3-10.899,18-14.3l36.898-14.3
	C604.5,309.7,619.7,310.5,632.1,313.7z"/>
<path fill="#FFFFFF" stroke="#000000" d="M655,279c0,0-19.2,0.3-27.7,9.3c-6.7,7-14.898,15-22.7,21.4L567.7,324
	c-0.3-2.7-2.7-4-7.3-3.5c8.398-6.7,11.898-13,16.3-17.1c5.5-5.2,8.5-9.4,9.8-12.801l1,0.101c2.3-2.2,10.3-9.5,24.8-15.3
	C621.3,271.7,644.7,276.7,655,279z"/>
<path fill="#FFFFFF" stroke="#000000" d="M568.3,276.9c0,0,23,0.2,18.102,13.7c-1.2,3.4-4.2,7.602-9.802,12.801
	c-4.3,4.101-7.898,10.399-16.3,17.101c-2.5,0.2-5.7,1-9.6,2.3c-2.8,0.9-5.602,2.2-8.2,3.7l-0.1-0.101c0,0-9.802-4.601-11.602-10.199
	c-0.5-1.7-0.3-3.5,1.102-5.301C532,310.8,551.5,280.1,568.3,276.9z"/>
<path fill="#FFFFFF" stroke="#000000" d="M542.5,326.3l0.1,0.101c-7.698,4.199-14.1,9.801-14.6,12.801L492.8,349.9
	c-0.7,0-1.3,0.101-1.898,0C475.5,349.6,487.3,329,487.3,329c8.3-11.5,43.5-12.9,43.5-12.9h0.2C532.7,321.7,542.5,326.3,542.5,326.3z
	"/>
<path fill="#FFFFFF" stroke="#000000" d="M490.8,350.4v-0.5c0.602,0,1.2,0,1.9,0l35.2-10.7c-0.5,2.8,1.698,4.1,6.198,3.8v0.3
	l-34.5,34.9c-8.5,5.3-15.6,9.3-21.3,12.2c-15,7.698-16.2,21.6-16.2,21.6c-5.398-4.3-6.6-25.6,0.102-34.2
	C472.6,364.4,490.2,350.4,490.8,350.4z"/>
<path fill="#FFFFFF" stroke="#000000" d="M562.2,350.8L562,351c-1.9,2.6-2,10.6-4,13c-7.8,9.5-15,20.8-23.8,31.2
	C524.1,407.3,532,422,532,422c-17.1,12.6-34.6-14.3-33.8-30c0.398-7.6,1.3-13.8,1.3-13.8l34.5-34.9V343c2.5-0.2,5.6-0.9,9.4-2.2
	c2-0.7,4.1-1.5,6.198-2.5v0.101L562.2,350.8z"/>
<path fill="#FFFFFF" stroke="#000000" d="M594,512.2l-4,8.8l-9-8c11-63-23-149-23-149c2-2.4,2.1-10.4,4-13l0.2-0.2l4.398,4.4
	C588.8,393.8,593.1,491.2,594,512.2z"/>
<path fill="#FFFFFF" stroke="#000000" d="M594,512.2l5-11.2l1-9c18-51,26.4-144.9,123-90c92.6,52.6,58.8,36.9,58.6,37
	c0,0-40.8-4.6-84.698-22c-40.9-16.3-95,97.9-100,109.7l-18.9,1.1C539.2,495,483,463,473.4,460.4C434.3,449.8,416.1,460.4,415.1,461
	c20.602-14.4,47.602-25.7,80.4-7.9c40.1,21.7,81.5,56.4,85.3,59.7l0.2,0.102l0.1,0.1l9,8L594,512.2z"/>
<path fill="#FFFFFF" stroke="#000000" d="M296.8,485.7l1.3,20.2c0,0-10.2-1.302-10.899,20.8c0,0-1.7,0.1-12.1,0
	c-3.7,0,3.6-22.7-0.6-22.7c-21.1-0.2-33.8,19.7-39.6,20.8c-3.2,0.602-44,7.602-38.9-2.5c5.1-10.1,44.7-21.398,51.7-38.5
	C247.6,483.8,271.9,493.2,296.8,485.7z"/>
<path fill="#FFFFFF" stroke="#000000" d="M441.9,519.7c5.1,10.1-35.7,3.1-38.9,2.5c-5.8-1.102-18.5-21-39.6-20.8
	c-4.302,0,3.1,22.698-0.602,22.698c-10.398,0.102-12.1,0-12.1,0c-0.602-22.1-10.9-20.8-10.9-20.8l1.3-20.2
	c24.9,7.602,49.2-1.898,49.2-1.898C397.2,498.3,436.8,509.6,441.9,519.7z"/>
<path fill="#FFFFFF" stroke="#000000" d="M369.5,463c-0.6,12,20.6,18.3,20.6,18.3s-24.3,9.5-49.198,1.9c0,0,4.898-37.3-7.9-64.3
	c1-0.9,1.9-2.102,2.7-3.5c0,0,22.7,13,28.398-3c0,0,1.102,0.698,2.9,1.5l-0.1,0.5C367,414.4,370.2,451,369.5,463z"/>
<path fill="#FFFFFF" stroke="#000000" d="M293.5,422.1c-0.6,9.2-3.7,61.9,3.3,63.602c-24.9,7.6-49.1-1.9-49.1-1.9
	c26.2-20.2,15.3-65,15.3-65l0.1-0.7c4.2,0.802,9.1,0.5,14.7-2.198C277.8,416,285.3,421.3,293.5,422.1z"/>
<path fill="#FFFFFF" stroke="#000000" d="M293.5,422.1c-8.3-0.8-15.7-6.1-15.7-6.1c-5.6,2.7-10.5,3-14.7,2.2
	c-10.7-2.2-16.5-12.2-16.5-12.2c-15.3,5.9-25.6-7.7-25.6-7.7c-19.9,1.2-18.2-12.399-18.2-12.399l9.4-10.801c0,0,135.2,95.9,198.2-23
	l10.3,14.5C420.7,386.7,408.6,384.9,408.6,384.9c0,18.898-19.8,18.3-19.8,18.3c-4.7,16-16.2,13.2-21.6,10.898
	c-1.8-0.8-2.9-1.5-2.9-1.5c-5.7,16-28.398,3-28.398,3c-0.802,1.4-1.7,2.5-2.7,3.5c-9.3,8.9-25.2-2.3-25.2-2.3
	C303.8,421.5,298.5,422.6,293.5,422.1z"/>
<path fill="#FFFFFF" stroke="#000000" d="M393,316.6l-33.8-69.2h0.1c64.8,18.3,35.2,69.8,34.7,68.8L393,316.6z"/>
<path fill="#FFFFFF" stroke="#000000" d="M278.5,252.3c-7.5,16.8-21.2,46.7-36.4,74.8l-0.7-0.398
	C225.1,260.9,271.3,253.1,278.5,252.3z"/>
<path fill="#FFFFFF" stroke="#000000" d="M278.5,252.3c3.7-8.4,5.9-13.6,5.9-13.6l0.3-0.7c9,3.3,18.3,5.1,27.3,5.1
	c13.5,0,27.2-3.9,39.9-10.7l0.398,0.8l6.9,14.2l33.8,69.2l17.3,35.4c-62.898,118.9-198.2,23-198.2,23c9.8-12.6,20.2-29.9,30-48
	C257.4,299,271.1,269.1,278.5,252.3z"/>
<path fill="#FFFFFF" stroke="#000000" d="M464.2,128.3c-0.9,8.9-6.5,22.5-11.102,31.8c-0.898,1.8-1.8,3.5-2.5,4.9
	c-6.1,11.1-9.398-7.1-9.398-7.1s-1.3-3.1-2.8-3.1l0.698-0.2l10.4-28.4c0,0,9.4-11.9,13.8-4.8C464.3,123,464.5,125.4,464.2,128.3z"/>
<path fill="#FFFFFF" stroke="#000000" d="M426.3,115.9l-2.2,35.7c-6.898,10.6-14.198-4-15.698-7.3c0.398-7.8-0.302-15.9-1.9-24
	c-1.2-5.9-2.5-11.5-3.8-16.8l0.7-0.2C414.9,77.2,426.3,115.9,426.3,115.9z"/>
<path fill="#FFFFFF" stroke="#000000" d="M449.2,125.2c0.2,0.6,0.3,1,0.3,1l-10.4,28.4l-0.698,0.2c-0.9,0-1.9,1.1-2.7,4.7
	c-3.7,15.9-11.602-7.9-11.602-7.9l2.2-35.7C437.2,96,447.2,120,449.2,125.2z"/>
<path fill="#FFFFFF" stroke="#000000" d="M514.6,130.2c-12.698,19.8,13.802,33.3-3.3,24.6c-17.1-8.7,25.4,34.9-0.5,30.9
	c-26-4,13.8,43.6-12.7,29.3s-7.198,22.2-21.5,4.8c-12.8-15.6-21.6-51.9-23.398-59.6c4.6-9.3,10.2-22.9,11.1-31.8
	C471.9,126.2,526.5,111.8,514.6,130.2z"/>
<path fill="#FFFFFF" stroke="#000000" d="M306,127c0.7,2.9,1.1,6.1,1.1,9.5c0,12.9-5.699,23.4-12.7,23.4c-7,0-12.7-10.5-12.7-23.4
	c0-3.2,0.3-6.3,1-9.1c1.9-8.4,6.4-14.3,11.7-14.3C299.6,113.1,304,118.8,306,127z M298.8,140.9c0-3.3-2.1-5.9-4.7-5.9
	s-4.7,2.7-4.7,5.9c0,3.3,2.1,5.9,4.7,5.9S298.8,144.1,298.8,140.9z"/>
<ellipse fill="#FFFFFF" stroke="#000000" cx="294.1" cy="140.9" rx="4.7" ry="5.9"/>
<path fill="#FFFFFF" stroke="#000000" d="M353.2,126.6c0.7,2.9,1.1,6.1,1.1,9.5c0,12.9-5.7,23.4-12.7,23.4S328.9,149,328.9,136.1
	c0-3.2,0.398-6.3,1-9.1c1.898-8.4,6.398-14.3,11.698-14.3C346.8,112.7,351.2,118.4,353.2,126.6z M346,140.5c0-3.3-2.1-6-4.7-6
	c-2.6,0-4.7,2.7-4.7,6s2.102,5.9,4.7,5.9C343.9,146.4,346,143.8,346,140.5z"/>
<path fill="#FFFFFF" stroke="#000000" d="M341.3,134.5c2.602,0,4.7,2.7,4.7,6s-2.1,5.9-4.7,5.9c-2.6,0-4.7-2.7-4.7-5.9
	C336.6,137.2,338.7,134.5,341.3,134.5z"/>
<path fill="#FFFFFF" stroke="#000000" d="M335.6,71.4c18,26.6,45.9,60.4,72.602,75.4c-2.602,37.4-26.7,69.6-56.3,85.6
	c-12.7,6.8-26.4,10.7-39.9,10.7c-9.1,0-18.3-1.8-27.3-5.1c-34.5-12.6-65.4-47.2-69.2-88c17.3,5.4,118.6-77.6,118.6-77.6L335.6,71.4z
	 M354.3,136.1c0-3.4-0.398-6.6-1.1-9.5c-2-8.2-6.4-13.9-11.602-13.9c-5.3,0-9.8,5.9-11.698,14.3c-0.602,2.8-1,5.9-1,9.1
	c0,12.9,5.698,23.4,12.698,23.4S354.3,149,354.3,136.1z M307.1,136.5c0-3.4-0.398-6.6-1.1-9.5c-2-8.2-6.4-13.9-11.6-13.9
	c-5.3,0-9.8,5.9-11.7,14.3c-0.7,2.8-1,5.9-1,9.1c0,12.9,5.7,23.4,12.7,23.4S307.1,149.4,307.1,136.5z"/>
<path fill="#FFFFFF" stroke="#000000" d="M408.4,144.3c0,0.8-0.102,1.7-0.102,2.5c-26.8-15.1-54.6-48.8-72.6-75.4
	c-1.8-2.6-3.4-5.1-5-7.6c-11.3-17.6-9.9-11.9-18.5-28.7c0,0,58.1-61.5,90.6,68.4c1.3,5.3,2.602,10.9,3.8,16.8
	C408.1,128.4,408.7,136.5,408.4,144.3z"/>
<path fill="#FFFFFF" stroke="#000000" d="M335.6,71.4l-1.5,1c0,0-101.398,83-118.6,77.6c-0.9-9.6-0.3-19.6,2.2-29.7
	c0.7-2.8,1.3-5.4,2-8.1l0,0c36-138.1,92.398-77.1,92.398-77.1c8.602,16.8,7.2,11.1,18.5,28.7C332.2,66.2,333.8,68.8,335.6,71.4z"/>
<path fill="#FFFFFF" stroke="#000000" d="M218.8,111.9l0.9,0.3c-0.7,2.6-1.4,5.3-2,8.1c-2.4,10.1-3.1,20.1-2.2,29.7l0,0
	c0,0-8.3,19.8-16,7.9l-2.2-35.7C197.2,122.2,207.2,85.8,218.8,111.9z"/>
<path fill="#FFFFFF" stroke="#000000" d="M187.9,165.8c-1-4.3-2.2-5-3.3-4.5l-0.2-0.3L174,132.6c0,0,0.1-0.4,0.4-1.2
	c2.2-5.6,12-28.7,22.8-9.1l2.2,35.7C199.5,157.9,191.5,181.7,187.9,165.8z"/>
<path fill="#FFFFFF" stroke="#000000" d="M170.4,166.5c-4.6-9.3-10.2-23-11.1-31.8c-0.3-2.9-0.1-5.3,0.9-6.9
	c4.4-7.1,13.8,4.8,13.8,4.8l10.4,28.4l0.2,0.3c-1.3,0.6-2.3,3-2.3,3s-3.3,18.2-9.4,7.1C172.2,170,171.3,168.3,170.4,166.5z"/>
<path fill="#FFFFFF" stroke="#000000" d="M170.4,166.5c-1.8,7.7-10.6,44-23.4,59.6c-14.3,17.4,5-19-21.5-4.8
	C99,235.5,138.7,188,112.8,192c-25.9,4,16.6-39.6-0.5-30.9c-17.1,8.7,9.4-4.8-3.3-24.6c-11.8-18.4,42.7-4,50.4-1.8
	C160.2,143.5,165.8,157.2,170.4,166.5z"/>
<path fill="none" stroke="#000000" d="M265.7,176.1c0,0,1.1,14.3-7.2,14.3"/>
<path fill="none" stroke="#000000" d="M368.4,167.4c0,0,2.8,17.4,12.1,14.3"/>
<path id="www.ABC-color.com" fill="none" stroke="#000000" d="M265.7,183.3c0,0,55.2,91.1,105.398-7.1"/>
<path fill="none" stroke="#000000" d="M311.5,180.1c0,0,8.8-25.4,16-0.8"/>
<path fill="none" stroke="#000000" d="M583,330c4,0,8,0,12,0"/>
<path fill="none" stroke="#000000" d="M594,300c2.4-5.7,9.3-7.5,15-10"/>
<path fill="none" stroke="#000000" d="M555,310c0-4.6,1-8.4,1-13"/>
<path fill="none" stroke="#000000" d="M515,332c-3,0-6,0-9,0"/>
<path fill="none" stroke="#000000" d="M500,359c-3.4,4.4-8.7,6.3-12,11"/>
<path fill="none" stroke="#000000" d="M535,366c-4.2,4.4-8.7,9.3-10,15"/>
</svg>
