<?xml version="1.0" encoding="utf-8"?>
<!-- Generator: Adobe Illustrator 15.0.0, SVG Export Plug-In . SVG Version: 6.00 Build 0)  -->
<!DOCTYPE svg PUBLIC "-//W3C//DTD SVG 1.1//EN" "http://www.w3.org/Graphics/SVG/1.1/DTD/svg11.dtd">
<svg version="1.1" id="Layer_1" xmlns="http://www.w3.org/2000/svg" xmlns:xlink="http://www.w3.org/1999/xlink" x="0px" y="0px"
	 width="567px" height="822px" viewBox="0 0 567 822" enable-background="new 0 0 567 822" xml:space="preserve">
<title>Sign girl</title>
<desc>Vector colorimg sign girl</desc>
<g>
	<path fill="#FFFFFF" stroke="#000000" d="M350.8,114.1c0,45.2-36.6,81.9-81.9,81.9c-45.2,0-81.9-36.7-81.9-81.9
		c0-45.2,36.7-81.9,81.9-81.9S350.8,68.9,350.8,114.1z"/>
	<path fill="#FFFFFF" stroke="#000000" d="M372.5,72c0-15.1-12.3-25.9-27.3-27.3c-7-0.7-12.2,5.6-11.2,2.9
		c6.2-16.6,27.2-28.1,47.8-28.1c30.2,0,54.601,24.4,54.601,54.6l1.5,86.3c0,15.1,12.199,27.3,27.3,27.3c5.1,0,9.899-1.4,14-3.8
		c0,0-16,42.7-53.601,39.4c-30.1-2.6-54.6-24.4-54.6-54.6L372.5,72z"/>
	<path fill="#FFFFFF" stroke="#000000" d="M193.1,145.3c4.4,4.1,41-99.2,104.4-65.1c17.6,9.5,19.6,59.9,43.7,73
		c15.7,8.6,53.5-82.8,0.5-99.2c-40.101-12.4-15-34.6-72.9-34.7C213.9,19.2,138.9,94.4,193.1,145.3z"/>
	<path fill="#FFFFFF" stroke="#000000" d="M257,206.5c12.9-6,26.7-4.3,34.1,0c8.7,5,26.5,3.1,29.4,11.1
		c2.2,6.2-18.2,88.6,30.3,196.5c26.5,59,117.2,153.301,117.2,226c0,22.301-27.1,29.2-74.8,11.4c-21.8-8.1-56.101,21.4-95.2,1.7
		c-37.9-19.101-43.8,17.8-116.4-1c-37.7-9.7-93.4,23.899-93.2-7.5c0.3-62.4,30.8-116.7,93.6-213c53.4-81.9,40.1-193.1,44.2-213.4
		C227.9,209.5,251.1,209.2,257,206.5z"/>
	<path fill="#FFFFFF" stroke="#000000" d="M182.3,415.3c-9.3,15.8-26.7-6.5-34.7-64.6C125.1,186.8,207.1,200,213,223.5
		C216.5,237.2,228.1,337.3,182.3,415.3z"/>
	<path fill="#FFFFFF" stroke="#000000" d="M254.1,771.5c0,11.3-9.2,20.5-20.5,20.5h-11c-11.3,0-20.5-9.2-20.5-20.5V671
		c0-11.3,52.1-11.3,52.1,0v100.5H254.1z"/>
	<path fill="#FFFFFF" stroke="#000000" d="M356.7,771.5c0,11.3-9.2,20.5-20.5,20.5h-11c-11.3,0-20.5-9.2-20.5-20.5V671
		c0-11.3,52.1-11.3,52.1,0v100.5H356.7z"/>
	<path fill="#FFFFFF" stroke="#000000" d="M242.9,120.7c0,3.1-3.8,5.7-8.6,5.7c-4.7,0-8.5-2.6-8.5-5.7c0-3.1,3.8-5.7,8.5-5.7
		C239,115,242.9,117.5,242.9,120.7z"/>
	<path fill="#FFFFFF" stroke="#000000" d="M314.1,120.7c0,3.1-3.8,5.7-8.6,5.7c-4.7,0-8.6-2.6-8.6-5.7c0-3.1,3.8-5.7,8.6-5.7
		S314.1,117.5,314.1,120.7z"/>
	<path fill="#FFFFFF" stroke="#000000" d="M291.3,163.4c0,3.5-13.5,14.3-21.4,14.3s-21.4-10.7-21.4-14.3c0-3.5,13.5,7.1,21.4,7.1
		C277.8,170.6,291.3,159.9,291.3,163.4z"/>
	<path fill="#FFFFFF" stroke="#000000" d="M360.6,415.3c9.301,15.8,26.7-6.5,34.7-64.6c22.5-163.8-59.5-150.6-65.399-127.1
		C326.4,237.2,314.8,337.3,360.6,415.3z"/>
</g>
</svg>
