<?xml version="1.0" encoding="utf-8"?>
<!-- Generator: Adobe Illustrator 15.0.0, SVG Export Plug-In . SVG Version: 6.00 Build 0)  -->
<!DOCTYPE svg PUBLIC "-//W3C//DTD SVG 1.1//EN" "http://www.w3.org/Graphics/SVG/1.1/DTD/svg11.dtd">
<svg version="1.1" id="layer_x5F_www.ABC-color.com"
	 xmlns="http://www.w3.org/2000/svg" xmlns:xlink="http://www.w3.org/1999/xlink" x="0px" y="0px" width="822px" height="567px"
	 viewBox="0 0 822 567" enable-background="new 0 0 822 567" xml:space="preserve">
<path id="www.ABC-color.com" fill="#FFFFFF" stroke="#000000" d="M549.9,39c16.8,50.9,31.898,102.9,28,163c-4,61.6-24.7,94.9-65,127
	c-55.5,44.3-127.302,61.8-208,81c-22.3,5.3-57.7,10.6-72,24c-20.5,19.3-14.1,67.8-5,91c-7,3.8-21.2,2.5-25-3
	c-1.2-17.4,2.2-32.1,6-47c3.5-14.1,12.1-28.7,13-42c0.9-13.2-3.9-23.7-4-35c-0.6-101.7,72.1-151.9,148-177
	c41.398-13.7,84.5-21.5,118-44c30.398-20.3,60.8-55.8,65-104c0.898-10.5-0.7-23.2,0-35C549.8,37.8,549.9,38.4,549.9,39z"/>
<path fill="none" stroke="#000000" stroke-width="0.5" stroke-linecap="round" stroke-linejoin="round" d="M439,284
	c59.1-30.7,110.2-45.7,113.8-132"/>
<path fill="none" stroke="#000000" stroke-width="0.5" stroke-linecap="round" stroke-linejoin="round" d="M237,411
	c22-48,61-78.9,105-94"/>
<path fill="none" stroke="#000000" stroke-width="0.5" stroke-linecap="round" stroke-linejoin="round" d="M342,317
	c33.2-11.4,67.2-17.6,97-33"/>
</svg>
