<?xml version="1.0" encoding="utf-8"?>
<!-- Generator: Adobe Illustrator 15.0.0, SVG Export Plug-In . SVG Version: 6.00 Build 0)  -->
<!DOCTYPE svg PUBLIC "-//W3C//DTD SVG 1.1//EN" "http://www.w3.org/Graphics/SVG/1.1/DTD/svg11.dtd">
<svg version="1.1" id="Layer_1" xmlns="http://www.w3.org/2000/svg" xmlns:xlink="http://www.w3.org/1999/xlink" x="0px" y="0px"
	 width="822px" height="567px" viewBox="0 0 822 567" enable-background="new 0 0 822 567" xml:space="preserve">
<path fill="#FFFFFF" stroke="#000000" stroke-width="0.5" d="M545.7,320.6c38.1-0.399,63.6,15.4,108.1,13
	c-30.399,15.5-49.1,61.2-83.1,71c-54,15.5-94.4-24-149-17.199c18,10.3,50.7,7.399,67,20.199c11.1,8.7,19.7,25.5,30,36
	c0.3,0.301,19.5,28.4,17.1,30.101c-26.6-5.4-70.899-8-82-28c-3.7-6.601-12.899-37.4-17-43c-6.899-9.3-7.2-6.9-19.7-10.9
	c13.2,41.3-14,92.101-37.399,120.8c-11.101,13.7-26.9,28.801-36,7c22.2-23.8,66.899-52.5,72-94c1.7-14.1-1.4-25-7-34
	c-28.601,3.601-17.4,35.9-32,52c-5.601,6.2-19,10-24,9.9c-12.3-0.1-24.7,1.1-41,8c-7.1,3-16.1,11.8-19,14
	c3.2-27.2,18.399-49.9,41-58c8.3-3,17.399-2.8,26-6c14.3-5.3,31.2-14.7,42-25.2c-15.7,0.7-41.2,0.9-53,7.2
	c-7.101,3.8-12.601,14.5-19,19c-19.5,13.7-46.2,4-74,6c-27.4,2-54.6,1.8-76,13c34.2-22.2,45-80,109-76c22.2,1.4,36.399,12,55,18
	c16.399,5.2,32.399,6.3,56,6c-15.3-16-38-26-64-27c-111-4.2-101.2-97.7-164-123c39.5,10.7,64.2-2.6,103-3c34.3-0.3,59,8.4,76,26
	c21.5,22.3,16.6,69.1,27,97c4.5,12.2,13.399,16.8,28.399,22.8c-2-38.899-11.5-64.8-25.399-92.8c-16.5-33.4-42-57.5-38.601-107.5
	c2.101-31.4,13.4-63.7,20.7-95.7c6.8-30,19.2-52.8,26.8-58.8C406.9,57.8,451,120.6,458.4,162.3c6.8,38.2-7.4,77.1-17.601,107.2
	c-10.3,30.3-27.8,62-26.1,103c10.8-6.3,13.6-20.8,17-33c11-39.6,11.399-86.7,36.399-113.2c32.101-34.1,101.7-33.4,133.7-67.8
	c-31.1,46-30.6,104.8-65.7,145.4c-15,17.399-52.3,21.3-76,30c-20.399,7.5-29.8,25-39.699,44.699c12.1,3,22.399,1.601,30.3-3.1
	C481.3,357.2,499,321.1,545.7,320.6z"/>
<g id="XMLID_2_">
	<g>
		<polyline fill="none" stroke="#000000" stroke-width="0.25" points="389.2,70.1 397.6,169.3 399.8,194.7 401.7,217.2 405.3,260.3 
			410.8,324.4 		"/>
		<line fill="none" stroke="#000000" stroke-width="0.25" x1="388.2" y1="57.4" x2="389.2" y2="70.1"/>
		<polyline fill="none" stroke="#000000" stroke-width="0.25" points="368.7,163 399.8,194.7 399.9,194.8 		"/>
		<polyline fill="none" stroke="#000000" stroke-width="0.25" points="370.9,141.3 397.6,169.3 397.7,169.4 		"/>
		<line fill="none" stroke="#000000" stroke-width="0.25" x1="370.4" y1="119.3" x2="395" y2="144.7"/>
		<line fill="none" stroke="#000000" stroke-width="0.25" x1="375.1" y1="100.9" x2="393.2" y2="119.9"/>
		<line fill="none" stroke="#000000" stroke-width="0.25" x1="377.3" y1="79.2" x2="391.1" y2="94.5"/>
		<polyline fill="none" stroke="#000000" stroke-width="0.25" points="382.6,62.5 389.2,70.1 389.2,70.1 		"/>
		<polyline fill="none" stroke="#000000" stroke-width="0.25" points="369.9,184.5 401.7,217.2 402.3,217.9 		"/>
		<line fill="none" stroke="#000000" stroke-width="0.25" x1="371.6" y1="209" x2="403.5" y2="240.3"/>
		<polyline fill="none" stroke="#000000" stroke-width="0.25" points="374.6,231.7 405.3,260.3 405.5,260.4 		"/>
		<line fill="none" stroke="#000000" stroke-width="0.25" x1="383.2" y1="261.9" x2="407" y2="281.8"/>
		<line fill="none" stroke="#000000" stroke-width="0.25" x1="395.5" y1="293.2" x2="409" y2="304.9"/>
		<line fill="none" stroke="#000000" stroke-width="0.25" x1="424.4" y1="157.4" x2="399.9" y2="194.8"/>
		<line fill="none" stroke="#000000" stroke-width="0.25" x1="419.6" y1="135.8" x2="397.7" y2="169.4"/>
		<line fill="none" stroke="#000000" stroke-width="0.25" x1="413" y1="113.9" x2="395.8" y2="144.6"/>
		<line fill="none" stroke="#000000" stroke-width="0.25" x1="405.9" y1="96.5" x2="393.5" y2="119.9"/>
		<line fill="none" stroke="#000000" stroke-width="0.25" x1="399.5" y1="80.4" x2="391.6" y2="94.5"/>
		<line fill="none" stroke="#000000" stroke-width="0.25" x1="393.2" y1="61.6" x2="389.2" y2="70.1"/>
		<line fill="none" stroke="#000000" stroke-width="0.25" x1="430.5" y1="181.5" x2="402.3" y2="217.9"/>
		<line fill="none" stroke="#000000" stroke-width="0.25" x1="431.9" y1="205.2" x2="404" y2="240.3"/>
		<line fill="none" stroke="#000000" stroke-width="0.25" x1="431.5" y1="229.1" x2="405.5" y2="260.4"/>
		<line fill="none" stroke="#000000" stroke-width="0.25" x1="428.8" y1="255.8" x2="407.5" y2="281.8"/>
		<line fill="none" stroke="#000000" stroke-width="0.25" x1="422" y1="289.2" x2="409.5" y2="304.8"/>
		<path fill="none" stroke="#000000" stroke-width="0.25" d="M217.3,241.6c2.3,2.2,4.7,4.1,7.2,5.8c4.6,3,9.5,5.3,14.7,7
			c0.7,0.2,1.3,0.4,2,0.6c2,0.6,4.1,1.1,6.2,1.6c3.3,0.2,6.6,0.5,9.8,1c5.4,0.7,8.3,1.4,9.6,1.7c3.5,0.7,7,1.6,10.4,2.6
			c4.1,1.4,8.2,3,12.1,4.9c6.3,3,12.4,6.7,18,10.8c9.3,6.7,17.7,14.6,25,23.2c0.3,0.4,0.601,0.8,1,1.101
			c1.8,2.1,3.5,4.199,5.101,6.399c1.3,1.2,2.5,2.5,3.699,4c3.2,3.8,6.101,8.2,9,12.8c2.5,4,5.101,8.101,7.801,11.9
			c4.5,6.3,9.6,11.9,16.199,15.3"/>
		<path fill="none" stroke="#000000" stroke-width="0.25" d="M269.4,304.1c23.3-3.5,44.9-11,53.9-12.3"/>
		<path fill="none" stroke="#000000" stroke-width="0.25" d="M258.1,292.8c17-5.3,32.3-7,49.3-14.7"/>
		<path fill="none" stroke="#000000" stroke-width="0.25" d="M246,282.5c2.5-0.9,5-1.9,7.5-2.9s4.9-2.1,7.4-3.1
			c2.6-1.1,5.2-2.1,7.8-3.1c7.7-2.1,14.2-4.8,20.6-6.8c0.4-0.1,0.8-0.3,1.2-0.4c0.2-0.1,0.5-0.1,0.7-0.2"/>
		<path fill="none" stroke="#000000" stroke-width="0.25" d="M240.4,271.1c2.5-0.8,7.8-3.4,10.1-4.2c2.3-0.9,4.7-1.9,7.1-2.8
			c2.4-1,6.9-4,9.2-4.9"/>
		<path fill="none" stroke="#000000" stroke-width="0.25" d="M223,260.4c7.1-0.3,13.1-2.3,18.6-3.9"/>
		<line fill="none" stroke="#000000" stroke-width="0.25" x1="216.5" y1="248.5" x2="224.4" y2="247.4"/>
		<path fill="none" stroke="#000000" stroke-width="0.25" d="M281.8,315.1c14.8-6.699,36.3-5,51.5-12.899"/>
		<path fill="none" stroke="#000000" stroke-width="0.25" d="M296.9,327.9c7.1-2.4,14.4-5.101,21.8-7.4c2.5-0.8,5-1.5,7.5-2.3
			c4.899-1.101,9.899-3.101,15.3-3.3"/>
		<path fill="none" stroke="#000000" stroke-width="0.25" d="M310.5,337.7c1.9-0.9,3.9-1.8,5.9-2.601c2-0.8,4-1.5,6.1-2.199
			c8.6-1.801,18.9-6.4,28.3-6.801"/>
		<path fill="none" stroke="#000000" stroke-width="0.25" d="M331,346.2c8-3.101,19.5-6.5,27.9-9.4c0.1,0,0.1,0,0.199-0.1"/>
		<path fill="none" stroke="#000000" stroke-width="0.25" d="M353.8,351.8c4.3-3.7,10.3-2.7,15.3-3.2"/>
		<path fill="none" stroke="#000000" stroke-width="0.25" d="M312.1,249.1c3.301,6.3,12,20.9,12.301,42.7"/>
		<path fill="none" stroke="#000000" stroke-width="0.25" d="M292.1,242.1c6.3,9.6,12.5,23.8,15.2,35.3c0.101,0.2,0.101,0.5,0.2,0.7
			"/>
		<path fill="none" stroke="#000000" stroke-width="0.25" d="M271.9,245.7c1.8,1.6,3.6,3.2,5.4,4.7c4.6,4.4,8.9,10.6,13.2,15.9
			c0.2,0.3,0.4,0.5,0.7,0.8"/>
		<path fill="none" stroke="#000000" stroke-width="0.25" d="M254.5,241.5c1.1,2.9,2.3,9.4,4.3,12c3.1,4,5.1,1.9,8,5.7"/>
		<path fill="none" stroke="#000000" stroke-width="0.25" d="M237.8,244.3c-0.6,4.3,1,7.2,3.4,10.6c0.3,0.4,0.5,0.7,0.8,1.1"/>
		<polyline fill="none" stroke="#000000" stroke-width="0.25" points="222.6,240.1 224.4,247.4 224.4,247.4 		"/>
		<path fill="none" stroke="#000000" stroke-width="0.25" d="M329.8,260.1c5.4,11.2,4.4,29.5,3.5,41.7c0,0.101,0,0.3,0,0.5"/>
		<path fill="none" stroke="#000000" stroke-width="0.25" d="M342.4,271.8c4.1,10.4,0.899,26.601,0.899,24.4c0-3-0.3,6-0.6,9.1
			c-0.2,2.3-0.5,4.601-0.7,6.9c-0.1,0.8-0.2,1.5-0.2,2.3"/>
		<path fill="none" stroke="#000000" stroke-width="0.25" d="M351.9,290c0.1,2.5,0.1,5,0.1,7.5c1.1,9.1,1.4,18.1-0.9,27.3
			c-0.1,0.4-0.199,0.8-0.3,1.2"/>
		<path fill="none" stroke="#000000" stroke-width="0.25" d="M361.2,308.1c1,11.2-2.2,18.601-2.4,27.7"/>
		<path fill="none" stroke="#000000" stroke-width="0.25" d="M369.7,333c-1.601,5.1-0.601,10.1-0.3,15.4"/>
		<polyline fill="none" stroke="#000000" stroke-width="0.25" points="567,199.5 560.6,206.2 548,219.2 534.3,233.4 522.4,245.8 
			508,260.7 482.6,287.1 472.2,297.8 450.1,320.7 440.8,330.4 		"/>
		<line fill="none" stroke="#000000" stroke-width="0.25" x1="492.2" y1="233.6" x2="495.1" y2="273.1"/>
		<polyline fill="none" stroke="#000000" stroke-width="0.25" points="507,227.5 508,260.7 508,260.7 		"/>
		<polyline fill="none" stroke="#000000" stroke-width="0.25" points="518.9,214.6 522.4,245.8 522.4,246.1 		"/>
		<line fill="none" stroke="#000000" stroke-width="0.25" x1="532.9" y1="209.8" x2="534.1" y2="233.4"/>
		<line fill="none" stroke="#000000" stroke-width="0.25" x1="547.1" y1="201.4" x2="547.1" y2="218.8"/>
		<line fill="none" stroke="#000000" stroke-width="0.25" x1="560.3" y1="197.7" x2="560.2" y2="206.2"/>
		<polyline fill="none" stroke="#000000" stroke-width="0.25" points="480.4,236.8 482.6,287.1 482.6,287.5 		"/>
		<line fill="none" stroke="#000000" stroke-width="0.25" x1="467.8" y1="254.1" x2="471.8" y2="297.8"/>
		<line fill="none" stroke="#000000" stroke-width="0.25" x1="456.4" y1="280.8" x2="461.4" y2="308.4"/>
		<line fill="none" stroke="#000000" stroke-width="0.25" x1="447.8" y1="302.4" x2="449.1" y2="320.8"/>
		<line fill="none" stroke="#000000" stroke-width="0.25" x1="530.1" y1="274.4" x2="495.4" y2="274.1"/>
		<line fill="none" stroke="#000000" stroke-width="0.25" x1="534.4" y1="259.4" x2="508" y2="260.7"/>
		<line fill="none" stroke="#000000" stroke-width="0.25" x1="545.4" y1="244.8" x2="522.4" y2="246.1"/>
		<polyline fill="none" stroke="#000000" stroke-width="0.25" points="555.6,230.9 534.3,233.4 534.1,233.4 		"/>
		<polyline fill="none" stroke="#000000" stroke-width="0.25" points="560.9,218.7 548,219.2 547.4,219.2 		"/>
		<polyline fill="none" stroke="#000000" stroke-width="0.25" points="567.8,205.3 560.6,206.2 560.2,206.2 		"/>
		<line fill="none" stroke="#000000" stroke-width="0.25" x1="518.4" y1="287.1" x2="483.6" y2="286.8"/>
		<polyline fill="none" stroke="#000000" stroke-width="0.25" points="509.1,301.1 472.2,297.8 471.8,297.8 		"/>
		<line fill="none" stroke="#000000" stroke-width="0.25" x1="484.8" y1="310.4" x2="462.4" y2="308.4"/>
		<polyline fill="none" stroke="#000000" stroke-width="0.25" points="468.8,320.1 450.1,320.7 449.1,320.8 		"/>
		<path fill="none" stroke="#000000" stroke-width="0.25" d="M303.9,457.7c1.3-1.2,2.6-1.9,4-2.7c0.699-0.5,1.399-0.9,2.199-1.5
			c4.9-3.4,8-7.3,13-10.3c0.301-0.2,0.7-0.4,1-0.601c2.801-1.699,5.4-3.1,7.9-4.3c3-1.5,5.9-2.7,8.6-3.7
			c5.801-2.1,11-3.5,15.801-5.1c2.5-0.8,4.899-1.7,7.3-2.9c5-2.399,9.7-5.8,14.6-11.6c1.9-2.2,3.8-4.7,5.7-7.7
			c1.1-1.7,2.2-3.399,3.3-5.399"/>
		<path fill="none" stroke="#000000" stroke-width="0.25" d="M343.4,447.1c3.199-4.399,1.5-9.899,4.3-14.3"/>
		<path fill="none" stroke="#000000" stroke-width="0.25" d="M334,447.7c1.1-4.5,4-9.4,6.6-13.101c0-0.1,0.101-0.1,0.101-0.199"/>
		<path fill="none" stroke="#000000" stroke-width="0.25" d="M326.7,451.5c1.3-5.2,3.2-9.1,5.3-13.3c0.1-0.2,0.2-0.4,0.3-0.601"/>
		<path fill="none" stroke="#000000" stroke-width="0.25" d="M320.1,453.6c1-4.399,3-7.399,4-11.1l0,0"/>
		<line fill="none" stroke="#000000" stroke-width="0.25" x1="312.6" y1="457.7" x2="316.1" y2="448.8"/>
		<line fill="none" stroke="#000000" stroke-width="0.25" x1="306.4" y1="459" x2="308.2" y2="455"/>
		<path fill="none" stroke="#000000" stroke-width="0.25" d="M351.4,446.4c3.3-5.101,3.199-12.101,5.3-16.7"/>
		<path fill="none" stroke="#000000" stroke-width="0.25" d="M358.9,443.8c1.199-5.6,3-11.5,4.699-17.2c0-0.199,0.101-0.3,0.101-0.5
			"/>
		<path fill="none" stroke="#000000" stroke-width="0.25" d="M367,440.5c1.1-6.4,3.1-12.4,5.1-18.5"/>
		<path fill="none" stroke="#000000" stroke-width="0.25" d="M375.5,429.6c0.6-5.5,3.6-9.5,2.9-14.399"/>
		<line fill="none" stroke="#000000" stroke-width="0.25" x1="383.1" y1="418.4" x2="384.6" y2="407.2"/>
		<path fill="none" stroke="#000000" stroke-width="0.25" d="M333.3,424.3c5.8,2.8,8.601,5.9,14.4,7.5"/>
		<path fill="none" stroke="#000000" stroke-width="0.25" d="M326.3,428.8c4.8,0.3,8.8,6.3,14.4,5.5"/>
		<path fill="none" stroke="#000000" stroke-width="0.25" d="M319.7,435.4C324.1,437.1,328.1,437.1,332.1,437.3"/>
		<line fill="none" stroke="#000000" stroke-width="0.25" x1="314.9" y1="442.2" x2="324.1" y2="442.3"/>
		<line fill="none" stroke="#000000" stroke-width="0.25" x1="310.4" y1="448.6" x2="316" y2="448.6"/>
		<polyline fill="none" stroke="#000000" stroke-width="0.25" points="304.8,455 307.9,455 308.2,455 		"/>
		<path fill="none" stroke="#000000" stroke-width="0.25" d="M341.5,420.5c4.4,3.5,9.8,4.7,14.8,8.9c0.101,0.1,0.3,0.199,0.4,0.3"/>
		<path fill="none" stroke="#000000" stroke-width="0.25" d="M350.2,418.9c4.899,3.199,8.899,4.3,13.5,7.3"/>
		<path fill="none" stroke="#000000" stroke-width="0.25" d="M358.9,416.9c4.199,2.199,6.899,3.699,11.899,4.5"/>
		<path fill="none" stroke="#000000" stroke-width="0.25" d="M368.1,413.8c2.9,2.5,6.9,0.101,10.2,1.2h0.101"/>
		<polyline fill="none" stroke="#000000" stroke-width="0.25" points="377.1,408.1 384,407.3 384.6,407.2 		"/>
		<path fill="none" stroke="#000000" stroke-width="0.25" d="M547.1,369.1c-6.1,1.101-12.3,1.601-18.6,1.4c-1.7,0-3.5-0.1-5.2-0.3
			c-3.3,0.2-6.5,0.3-9.8,0.5c-0.7,0-1.4,0.1-2.1,0.1c-4.7,0.2-9.5,0.5-14.2,0.8c-4.2,0.301-8.5,0.7-12.8,1.301
			c-0.301,0-0.5,0.1-0.801,0.1c-3.8,1.3-9.6,3-11.699,3.8c-2.101,0.7-13,4.101-13,4.101"/>
		<path fill="none" stroke="#000000" stroke-width="0.25" d="M622.8,340.8c-3.2,2.8-9.1,3.9-15.2,4.9c-4.199,0.6-8.5,1.2-12,2.2
			c-2.199,0.6-4.1,1.3-5.5,2.3c-2.6,1.899-5.199,3.6-7.899,5.2c-3.5,2.199-7.101,4.1-10.7,5.8c-3.2,1.5-6.5,2.899-9.8,4
			c-4.8,1.7-9.7,3-14.601,3.899"/>
		<path fill="none" stroke="#000000" stroke-width="0.25" d="M552.8,338.4c-1.7,11.699,1.5,19.8-5.6,30.6"/>
		<path fill="none" stroke="#000000" stroke-width="0.25" d="M564.4,340.4c-3.301,8.699-1.301,15-2.801,24.699"/>
		<path fill="none" stroke="#000000" stroke-width="0.25" d="M577.7,340c-7.601,4.1-2.601,14.7-6.2,21.2l0,0"/>
		<path fill="none" stroke="#000000" stroke-width="0.25" d="M590.9,341.2c-3.801,3.899-6.101,8.8-8.9,14"/>
		<path fill="none" stroke="#000000" stroke-width="0.25" d="M603.7,339.1c-3.4,1.9-5.4,5.601-8.101,8.7
			c-0.199,0.2-0.3,0.3-0.399,0.5"/>
		<line fill="none" stroke="#000000" stroke-width="0.25" x1="611.5" y1="337.8" x2="607" y2="345.4"/>
		<path fill="none" stroke="#000000" stroke-width="0.25" d="M541.2,336.2c-1.9,11-10.2,22.5-12.7,34.3c-0.1,0.3-0.1,0.5-0.2,0.8"/>
		<path fill="none" stroke="#000000" stroke-width="0.25" d="M528.1,340.1c1.101-4.5-2.699,1.601-7.899,9.9
			c-4,6.3-4.4,13.6-9.2,20.4"/>
		<path fill="none" stroke="#000000" stroke-width="0.25" d="M510.4,343.5c-5.301,7.6-9.101,19.5-13.2,28.1v0.101"/>
		<path fill="none" stroke="#000000" stroke-width="0.25" d="M490.6,352.5c-2.5,6.6-4.5,12.6-6.399,20"/>
		<line fill="none" stroke="#000000" stroke-width="0.25" x1="475.6" y1="365.6" x2="472" y2="376.8"/>
		<path fill="none" stroke="#000000" stroke-width="0.25" d="M568.2,387.5c-7.8-2-13.8-14.3-21-18.4l0,0"/>
		<path fill="none" stroke="#000000" stroke-width="0.25" d="M579.4,382.2c1.1,0.1-8.601-11.5-17.601-17c0,0-0.1,0-0.1-0.101"/>
		<path fill="none" stroke="#000000" stroke-width="0.25" d="M597.1,373c-6-0.2-20.199-9-25.699-11.8"/>
		<path fill="none" stroke="#000000" stroke-width="0.25" d="M603.1,363.1c-4.899-1.8-16-6.1-20.8-7.8c-0.1,0-0.1,0-0.2-0.1"/>
		<line fill="none" stroke="#000000" stroke-width="0.25" x1="612.9" y1="354.6" x2="595.2" y2="348.5"/>
		<polyline fill="none" stroke="#000000" stroke-width="0.25" points="620.2,350.6 607.6,345.6 607,345.4 		"/>
		<path fill="none" stroke="#000000" stroke-width="0.25" d="M554.3,393.8c-10.2-6.7-17.2-15.7-25.899-22.5"/>
		<path fill="none" stroke="#000000" stroke-width="0.25" d="M539.8,394.9c-6.7-6.801-12.7-12.801-20.3-18.4c-1.7-1.4-3.3-2.8-5-4.3
			c-1.5-1.3-1.9-0.5-3.1-1.4c-0.101-0.1-0.301-0.2-0.5-0.399"/>
		<path fill="none" stroke="#000000" stroke-width="0.25" d="M522.8,394.1c-8.8-7.3-15.5-16.1-25.7-22.399"/>
		<path fill="none" stroke="#000000" stroke-width="0.25" d="M503.1,390.1c-6.6-4.3-11.899-12.899-18.6-17.199l-0.1-0.101"/>
		<line fill="none" stroke="#000000" stroke-width="0.25" x1="483.2" y1="384.2" x2="472" y2="376.8"/>
		<path fill="none" stroke="#000000" stroke-width="0.25" d="M205.4,414.4c0,0,3.9-2.801,11.6-6.101h0.1c3.6-1.6,8.1-3.2,13.4-4.8
			c4-1.2,8.5-2.3,13.5-3.2c3-0.5,6.1-1,9.5-1.399c2.2-0.301,4.4-1,6.6-1.5c3.7-0.4,7.6-1,11.6-1.601c4.7-0.8,9.6-1.7,14.7-2.7
			c4.2-0.8,8.4-1.699,12.7-2.6c4-0.8,8.1-1.6,12.2-2.4c3.7-0.699,7.4-1.399,11.101-2c3.899-0.6,7.699-1.199,11.5-1.699
			c6.3-0.801,12.3-1.301,18.1-1.301c3.7,0,7.2,0.101,10.5,0.5"/>
		<path fill="none" stroke="#000000" stroke-width="0.25" d="M274.2,412.6c1.3-2.3,3.1-5.5,4.8-8.5c2-3.899,4.9-6.899,7.3-11.1
			c0-0.1,0.1-0.1,0.1-0.2"/>
		<path fill="none" stroke="#000000" stroke-width="0.25" d="M261,413c0,0,1.8-2.1,4.9-7.5c2.4-4.1,4.8-8,5.8-9.7
			c0.3-0.5,0.5-0.8,0.5-0.8"/>
		<line fill="none" stroke="#000000" stroke-width="0.25" x1="250.5" y1="412.5" x2="258.7" y2="398.2"/>
		<line fill="none" stroke="#000000" stroke-width="0.25" x1="236.7" y1="415.6" x2="245.1" y2="401.1"/>
		<line fill="none" stroke="#000000" stroke-width="0.25" x1="224.3" y1="415.3" x2="231.2" y2="404.2"/>
		<polyline fill="none" stroke="#000000" stroke-width="0.25" points="213.8,413.4 217,408.3 217.1,408.2 217.2,408.1 		"/>
		<path fill="none" stroke="#000000" stroke-width="0.25" d="M283.9,414.4c0,0,0.9-1.601,2.3-4c3.9-6.2,7.9-13.2,13.2-19.7"/>
		<path fill="none" stroke="#000000" stroke-width="0.25" d="M297.3,411.6c5.8-7.5,7.8-16.5,14.5-23"/>
		<path fill="none" stroke="#000000" stroke-width="0.25" d="M309.6,408.2c4.4-7.9,9.301-14.8,12.7-22.2
			c0.101-0.1,0.101-0.3,0.2-0.5"/>
		<path fill="none" stroke="#000000" stroke-width="0.25" d="M325.5,400.1c3.4-4.8,4.5-10.6,8.3-15.899c0.101-0.2,0.3-0.4,0.5-0.7"
			/>
		<polyline fill="none" stroke="#000000" stroke-width="0.25" points="341.8,391 351.9,382.9 352.1,382.8 		"/>
		<path fill="none" stroke="#000000" stroke-width="0.25" d="M262.3,375.9c7.8,5.199,15.8,11.199,24.1,16.899"/>
		<path fill="none" stroke="#000000" stroke-width="0.25" d="M250.8,380.6c0,0,1.3,0.9,3.3,2.2s4.7,3.101,7.3,4.9
			c3.6,2.399,6.6,4.399,10.7,7.2"/>
		<line fill="none" stroke="#000000" stroke-width="0.25" x1="239.4" y1="386.8" x2="258.6" y2="397.6"/>
		<polyline fill="none" stroke="#000000" stroke-width="0.25" points="230.6,393.1 244.1,400.3 245.1,400.9 		"/>
		<polyline fill="none" stroke="#000000" stroke-width="0.25" points="222.4,398.8 230.5,403.5 231.1,403.8 		"/>
		<polyline fill="none" stroke="#000000" stroke-width="0.25" points="213,406 217.1,408.2 217.1,408.3 217.4,408.4 		"/>
		<path fill="none" stroke="#000000" stroke-width="0.25" d="M275.6,371.5c7.4,7.5,16.3,12.5,23.5,18.9c0.1,0.1,0.2,0.199,0.3,0.199
			"/>
		<path fill="none" stroke="#000000" stroke-width="0.25" d="M289.3,371c7.7,6,14.5,11.9,22,17c0.2,0.1,0.3,0.2,0.5,0.3"/>
		<path fill="none" stroke="#000000" stroke-width="0.25" d="M302.9,370.8c6.2,4.3,12.2,10.3,19.7,14.7"/>
		<path fill="none" stroke="#000000" stroke-width="0.25" d="M317.9,370.4C323.1,374.1,328.1,379.1,334.3,383.3"/>
		<path fill="none" stroke="#000000" stroke-width="0.25" d="M335.7,376.4c2,3.8,13.2,3,16.399,6.399"/>
		<path fill="none" stroke="#000000" stroke-width="0.25" d="M445.7,401.6c-0.2-0.199-0.3-0.3-0.3-0.3"/>
		<path fill="none" stroke="#000000" stroke-width="0.25" d="M520.1,463c-4-3.3-8.199-6.3-12.6-9.1c-6-3.9-12.1-7.7-18-12
			c-2.6-1.9-5.2-3.9-7.6-6.101c-1.101-1-2.2-2-3.301-3.1c-1.199-1.101-2.3-2.2-3.5-3.3c-0.5-0.5-1-0.9-1.5-1.4
			c-1.6-1.5-3.1-2.9-4.6-4.3c-4.1-3.9-8-7.5-11.4-10.8c-6.3-5.9-10.8-10.2-11.899-11.2"/>
		<line fill="none" stroke="#000000" stroke-width="0.25" x1="497.8" y1="432.2" x2="475.1" y2="429.3"/>
		<line fill="none" stroke="#000000" stroke-width="0.25" x1="501.1" y1="437.5" x2="481.9" y2="435.7"/>
		<polyline fill="none" stroke="#000000" stroke-width="0.25" points="507,443.4 489.5,441.9 488.6,441.8 		"/>
		<line fill="none" stroke="#000000" stroke-width="0.25" x1="516.9" y1="450" x2="501.1" y2="448.7"/>
		<polyline fill="none" stroke="#000000" stroke-width="0.25" points="519.6,453.8 507.5,453.8 507.2,453.8 		"/>
		<polyline fill="none" stroke="#000000" stroke-width="0.25" points="493.2,426.3 469,423.6 468.8,423.6 		"/>
		<line fill="none" stroke="#000000" stroke-width="0.25" x1="489.9" y1="419.7" x2="463" y2="417.8"/>
		<line fill="none" stroke="#000000" stroke-width="0.25" x1="481.4" y1="413.1" x2="457.6" y2="412.8"/>
		<line fill="none" stroke="#000000" stroke-width="0.25" x1="470.8" y1="407.9" x2="453.3" y2="407.3"/>
		<line fill="none" stroke="#000000" stroke-width="0.25" x1="452.2" y1="401.5" x2="445.8" y2="401.5"/>
		<polyline fill="none" stroke="#000000" stroke-width="0.25" points="477.4,452.6 475.1,429.3 475.1,429.3 		"/>
		<path fill="none" stroke="#000000" stroke-width="0.25" d="M487.3,457.9c-2.6-6.301-3.2-15.7-5.399-22.101c0,0,0,0,0-0.1"/>
		<path fill="none" stroke="#000000" stroke-width="0.25" d="M496.5,461.2c-1.8-3.8-5.4-15.101-7.4-19.3"/>
		<line fill="none" stroke="#000000" stroke-width="0.25" x1="503.1" y1="461.8" x2="497.7" y2="447.8"/>
		<line fill="none" stroke="#000000" stroke-width="0.25" x1="510.3" y1="463.8" x2="507.1" y2="454"/>
		<line fill="none" stroke="#000000" stroke-width="0.25" x1="470.8" y1="451.3" x2="468.8" y2="423.6"/>
		<line fill="none" stroke="#000000" stroke-width="0.25" x1="464.9" y1="442.7" x2="463" y2="418.9"/>
		<polyline fill="none" stroke="#000000" stroke-width="0.25" points="457,434.8 457.6,412.9 457.6,412.8 		"/>
		<line fill="none" stroke="#000000" stroke-width="0.25" x1="452.4" y1="425.6" x2="451.9" y2="407.4"/>
		<polyline fill="none" stroke="#000000" stroke-width="0.25" points="446.3,408.8 445.7,401.6 445.7,401.6 		"/>
	</g>
</g>
</svg>
