<?xml version="1.0" encoding="utf-8"?>
<!-- Generator: Adobe Illustrator 15.0.0, SVG Export Plug-In . SVG Version: 6.00 Build 0)  -->
<!DOCTYPE svg PUBLIC "-//W3C//DTD SVG 1.1//EN" "http://www.w3.org/Graphics/SVG/1.1/DTD/svg11.dtd">
<svg version="1.1" id="layer_x5F_www.ABC-color.com"
	 xmlns="http://www.w3.org/2000/svg" xmlns:xlink="http://www.w3.org/1999/xlink" x="0px" y="0px" width="822px" height="567px"
	 viewBox="0 0 822 567" enable-background="new 0 0 822 567" xml:space="preserve">
<path id="www.ABC-color.com" fill="#FFFFFF" stroke="#1F1E21" stroke-width="0.5" d="M542.1,193.4c-0.899,1-16.3,17-53.399,17.2
	l31.101-21.8c0,0,7-4.1,26.2-12.2c10.3-4.4-22.5,7-23.301,7.3c0.7-0.8,24.2-26.5,37.301-61.3c-0.7,1.3-20.301,39.6-40.7,60.6
	c0,0,0.2-14.6,5.3-22.6c-0.199,0.1-3.5,2.7-8,24.6c0,0-40.8,28.8-49.3,33.3c0,0,10.399-29.2,21.5-40.9c0,0-6.7,1.7-27.5,44.9
	c0,0-21.5,22.3-29.3,24c0,0,0-29.3,16.6-45.3c0,0-13.5,0.6-21.899,46.9c0,0-27.5,26.3-34.601,29.7c0.4-0.8,14.9-34.2,5.801-48.4
	c0,0-4.399,55.6-29.2,67c0,0,2.7-25.3-12.101-42.102c0.301,0.8,13.899,34.801,4.2,48.301c-12.8,17.801-9,12.301-17,23
	c0,0-2.399-33.699-17.2-47.399C327,279,344.5,314.9,332.5,336.4c-5.399,9.699-50.899,68.5-54.899,75l-0.399-0.2
	c1.3-2.102,2-3.2,2-3.2c7.6-84.4-16-141.7,139.199-214.3c155.199-72.6,175.5-178,175.5-178c8.399,141.7-59.9,225.2-111.301,288.5
	C431,367.7,363.5,382,321.3,400.6c-10,4.4-19,11.602-27,20.802C298,414.6,329.4,357.6,345.9,343.4c6.699-5.801,40.8-12.5,66.8-16.5
	c5.801-0.899-43.3,2-58,4c-4.8,0.601,6.2-21.5,19.2-27.5c0,0,24.699,10.699,72.5-5.899c0,0-44,10.8-67.101,0.601
	c0,0,23.5-17.301,31.3-24.701c0,0,35.101,10.4,77.5-16.5c0,0-56.199,21.2-73.199,12.1l37.8-28.6c0,0,39.899,6.6,72.5-18.5
	c-1,0.5-34.601,16.9-68,15.5c0,0,19.5-20.5,25.899-22.2C489.6,213.4,528.3,214.4,542.1,193.4z"/>
<path fill="#FFFFFF" stroke="#1F1E21" stroke-width="0.5" d="M560,122.7c-13.1,34.8-36.6,60.5-37.301,61.3
	c0.899-0.3,33.601-11.7,23.301-7.3c-19.2,8.1-26.2,12.2-26.2,12.2l-31.101,21.8c37.101-0.2,52.5-16.2,53.399-17.2
	c-13.8,20.9-52.5,20-58.8,21.7c-6.399,1.7-25.899,22.2-25.899,22.2c33.399,1.4,67-15,68-15.5c-32.601,25-72.5,18.5-72.5,18.5
	L415,268.9c17,9.1,73.199-12.1,73.199-12.1c-42.5,26.9-77.5,16.5-77.5,16.5c-7.8,7.4-31.3,24.7-31.3,24.7
	c23.101,10.2,67.101-0.6,67.101-0.6C398.699,313.9,374,303.3,374,303.3c-13,6-24,28.2-19.2,27.5c14.7-2,63.8-4.899,58-4
	c-26,4-60.101,10.7-66.8,16.5c-16.601,14.2-48,71.3-51.601,78c-25.5,29.2-40.699,77.602-48.1,114.2c-1.6,7.7-4.5,17.5-9.5,17.3
	c-17.2-0.6-6.6-31.7-6.6-31.7C241.8,471.9,269.5,424,277.1,411.3l0.4,0.2c4-6.5,49.499-65.3,54.899-75c12-21.5-5.5-57.4-5.9-58.2
	c14.9,13.7,17.2,47.4,17.2,47.4c8-10.7,4.2-5.2,17-23c9.7-13.5-3.899-47.5-4.2-48.3c14.7,16.8,12.101,42.1,12.101,42.1
	c24.801-11.4,29.2-67,29.2-67c9.101,14.1-5.5,47.6-5.8,48.4c7.1-3.4,34.6-29.7,34.6-29.7c8.5-46.3,21.9-46.9,21.9-46.9
	c-16.5,16-16.5,45.4-16.5,45.4c7.8-1.7,29.3-24,29.3-24c20.8-43.2,27.5-44.9,27.5-44.9c-11.101,11.7-21.5,40.9-21.5,40.9
	c8.5-4.6,49.3-33.3,49.3-33.3c4.5-22,7.801-24.5,8-24.6c-5.1,8-5.3,22.6-5.3,22.6C539.699,162.4,559.3,124,560,122.7z"/>
</svg>
