<?xml version="1.0" encoding="utf-8"?>
<!-- Generator: Adobe Illustrator 15.0.0, SVG Export Plug-In . SVG Version: 6.00 Build 0)  -->
<!DOCTYPE svg PUBLIC "-//W3C//DTD SVG 1.1//EN" "http://www.w3.org/Graphics/SVG/1.1/DTD/svg11.dtd">
<svg version="1.1" id="Layer_1" xmlns="http://www.w3.org/2000/svg" xmlns:xlink="http://www.w3.org/1999/xlink" x="0px" y="0px"
	 width="822px" height="567px" viewBox="0 0 822 567" enable-background="new 0 0 822 567" xml:space="preserve">
<path fill="#FFFFFF" stroke="#000000" stroke-miterlimit="10" d="M659.5,191.9c0,0,203.3-30.8,107.8,118.6
	c0,0-100.1,171-335.8,195.6c0,0-343.5,46.2-397.5-83.199c0,0-58.5-180.2,232.6-318.9c0,0,155.6-77,295.8-67.8
	c0,0,200.3,0,69.3,115.5c0,0-30.8,38.5-164.8,107.8C469.1,258.7,609,198,659.5,191.9z"/>
<g>
	<path d="M467.1,260.1c-15.8,7.8-31.899,15-48,22.1c-16.1,7.1-32.3,14.1-48.5,20.899c-32.5,13.7-65.1,26.9-97.8,39.9
		c-65.5,26-131.4,50.9-197.5,75.2c66-24.5,131.9-49.601,197.3-75.7c32.7-13.1,65.3-26.4,97.7-40.2c16.2-6.899,32.4-13.899,48.5-21
		c16.101-7.2,32.101-14.4,47.9-22.2L467.1,260.1z"/>
</g>
<g>
	<path d="M102.7,366.5c-1.1-0.2-2.1-0.3-3.2-0.5l-1.6-0.3h-0.2h-0.1c0.1,0-0.2-0.101-0.2-0.2s0.1-0.2,0.2-0.2s0.1,0,0.1,0h0.1
		l0.4,0.101l0.8,0.1l6.3,1.2c4.2,0.8,8.4,1.8,12.6,2.7c4.2,1,8.3,2,12.5,3.199c2.1,0.601,4.1,1.2,6.2,1.9c1,0.4,2,0.7,3,1.2
		c0.5,0.2,1,0.399,1.4,0.7c0.2,0.199,0.5,0.3,0.6,0.6c0.1,0.1,0,0.3-0.1,0.4c-0.1,0.1-0.2,0.1-0.4,0.199c0.2-0.1,0.6-0.299,0.4-0.5
		c-0.1-0.199-0.4-0.299-0.6-0.5c-0.5-0.199-1-0.399-1.5-0.6c-1-0.4-2-0.7-3.1-0.9c-2.1-0.6-4.1-1.1-6.2-1.6c-4.2-1-8.3-2-12.5-2.9
		l-12.5-2.899l-6.3-1.5L98,366l-0.4-0.1l0,0c0,0-0.1,0,0,0s0.2-0.101,0.2-0.2c0-0.2-0.2-0.2-0.1-0.2h0.1H98l1.6,0.4L102.7,366.5z"/>
</g>
<g>
	<path d="M115.3,312.1c8.1,3,16.1,6.101,24.2,9.301l24.1,9.5l24,9.699l12,4.9l11.9,5l-12.1-4.6l-12.1-4.7l-24.1-9.5l-24-9.7
		C131.2,318.8,123.3,315.5,115.3,312.1z"/>
</g>
<g>
	<path d="M141.8,267.3c9.3,4.8,18.5,9.7,27.7,14.7l27.6,14.9l27.5,15.1l13.7,7.6l13.7,7.7l-13.9-7.3l-13.8-7.4L196.7,297.7
		l-27.5-15.1C160.1,277.6,150.9,272.5,141.8,267.3z"/>
</g>
<g>
	<path d="M190.4,225.3c8.9,6.1,17.8,12.2,26.7,18.4l26.5,18.6l26.4,18.8l13.1,9.5l13.1,9.5l-13.4-9.1l-13.3-9.2L243,263l-26.4-18.8
		C207.8,238,199.1,231.7,190.4,225.3z"/>
</g>
<g>
	<path d="M241,182.7c8.1,7.9,16,15.8,24,23.8l23.8,24l23.7,24.2l11.8,12.1L336,279l-12-11.9l-12-11.9l-23.8-24L264.5,207
		C256.6,199,248.8,190.9,241,182.7z"/>
</g>
<g>
	<path d="M302.1,139.3c6.5,9.9,12.9,19.9,19.3,29.9l19.1,30l18.9,30.1l9.399,15.1l9.3,15.2l-9.699-14.9l-9.601-15l-19.1-30
		l-18.9-30.1C314.5,159.6,308.2,149.5,302.1,139.3z"/>
</g>
<g>
	<path d="M368.4,104.5c3.699,11.5,7.399,23.1,11,34.7l10.8,34.8l10.5,34.8l5.2,17.4l5.1,17.5l-5.6-17.3L400,209l-10.8-34.8
		l-10.5-34.8C375.2,127.8,371.8,116.1,368.4,104.5z"/>
</g>
<g>
	<path d="M431.5,91.8c0.5,3,0.7,6.1,1,9.1l0.7,9.2l1.2,18.4c0.699,12.2,1.3,24.5,2,36.7c0.6,12.2,1.1,24.5,1.6,36.7l0.7,18.4
		l0.6,18.4l-1.1-18.4l-1-18.4l-1.8-36.7l-1.7-36.7l-0.9-18.4l-0.5-9.2l-0.3-4.6C431.8,94.8,431.7,93.3,431.5,91.8z"/>
</g>
<g>
	<path d="M488.5,82.5c-1.3,11.5-2.8,23.1-4.2,34.6l-4.5,34.5l-4.7,34.5l-2.399,17.2l-2.5,17.2l2.1-17.3l2.2-17.3l4.5-34.5l4.7-34.5
		C485.1,105.5,486.7,94,488.5,82.5z"/>
</g>
<g>
	<path d="M552,82.5c-4.5,11-9.1,22-13.7,33L524.4,148.4l-14.2,32.8l-7.2,16.4l-7.3,16.3l6.8-16.5l6.9-16.5l14-32.9l14.199-32.8
		C542.4,104.3,547.1,93.4,552,82.5z"/>
</g>
<g>
	<polygon points="611.7,96 599.6,110.9 587.4,125.7 562.9,155.3 538.2,184.7 525.8,199.4 513.3,214 525.4,199.1 537.6,184.3 
		562.1,154.7 586.8,125.3 599.2,110.6 	"/>
</g>
<g>
	<path d="M139.2,444.6c1.4-3.6,2.9-7.1,4.4-10.6s3.1-7,4.6-10.4c1.6-3.5,3.2-6.899,4.8-10.399l2.5-5.101
		c0.9-1.699,1.7-3.399,2.6-5.1c-0.7,1.8-1.4,3.5-2.1,5.3l-2.2,5.3c-1.5,3.5-3.1,7-4.6,10.4c-1.6,3.4-3.2,6.9-4.8,10.3
		C142.6,437.8,140.9,441.2,139.2,444.6z"/>
</g>
<g>
	<path d="M172.7,469.2c1.6-6.4,3.3-12.7,5-19.101c1.7-6.3,3.5-12.699,5.3-19l5.5-18.899l2.8-9.4c1-3.1,1.9-6.3,2.9-9.399
		c-0.8,3.199-1.6,6.399-2.5,9.6l-2.6,9.5l-5.3,19c-1.8,6.3-3.6,12.6-5.5,18.9C176.5,456.6,174.7,462.9,172.7,469.2z"/>
</g>
<g>
	<path d="M211.5,477.3c1.8-7.899,3.6-15.8,5.5-23.7l5.8-23.6l6-23.6l3.1-11.801l3.2-11.699l-2.7,11.899l-2.8,11.8l-5.8,23.601
		l-6,23.6C215.7,461.6,213.7,469.5,211.5,477.3z"/>
</g>
<g>
	<path d="M257.4,477.3c0.8-9,1.6-18,2.5-26.899l2.8-26.9l3-26.9l1.6-13.399l1.7-13.4l-1.2,13.5l-1.3,13.5l-2.8,26.9l-3,26.899
		C259.6,459.4,258.6,468.3,257.4,477.3z"/>
</g>
<g>
	<path d="M296.1,486.2c1.2-11.3,2.5-22.601,3.8-33.9L304,418.4l4.3-33.9l2.2-16.9l2.4-16.899l-1.9,17l-2,17l-4.1,33.899l-4.3,33.9
		C299.2,463.6,297.7,474.9,296.1,486.2z"/>
</g>
<g>
	<path d="M342.1,486.2c0.9-12,1.801-24,2.801-36.101l3.1-36l3.3-36l1.8-18l1.9-18l-1.4,18l-1.5,18l-3.1,36l-3.3,36
		C344.6,462.2,343.4,474.2,342.1,486.2z"/>
</g>
<g>
	<polygon points="381.9,486.2 380.7,466.8 379.6,447.5 377.5,408.8 375.6,370.1 374.7,350.7 374,331.3 375.2,350.7 376.4,370 
		378.5,408.7 380.3,447.4 381.2,466.8 	"/>
</g>
<g>
	<polygon points="423,477.3 420.5,457.3 418.1,437.3 413.5,397.4 409.1,357.3 407,337.3 405,317.3 407.5,337.3 409.9,357.3 
		414.5,397.2 418.9,437.2 421,457.3 	"/>
</g>
<g>
	<polygon points="460,469.2 456.7,448.5 453.4,427.7 447.2,386.2 441.1,344.6 438.2,323.8 435.3,303 438.6,323.7 441.9,344.5 
		448.1,386 454.2,427.6 457.2,448.4 	"/>
</g>
<g>
	<polygon points="497.7,461.5 493.6,440.6 489.6,419.7 481.8,377.9 474.2,336 470.5,315.1 466.9,294.1 471,315 475,335.9 
		482.8,377.7 490.4,419.6 494.1,440.5 	"/>
</g>
<g>
	<polygon points="539.3,444.6 531.4,425.2 523.5,405.8 508,367 492.7,328 485.1,308.5 477.7,289 485.6,308.4 493.4,327.7 
		508.9,366.6 524.2,405.5 531.8,425 	"/>
</g>
<g>
	<polygon points="585.5,413.7 574.1,397.6 562.8,381.4 540.2,348.9 517.9,316.3 506.8,299.9 495.8,283.5 507.2,299.6 518.5,315.8 
		541,348.3 563.4,381 574.5,397.3 	"/>
</g>
<g>
	<polygon points="619.4,382.9 605.4,370.1 591.4,357.2 563.6,331.3 535.9,305.3 522.2,292.2 508.5,279 522.5,291.8 536.5,304.7 
		564.3,330.6 591.9,356.7 605.7,369.8 	"/>
</g>
<g>
	<polygon points="662.5,339.5 644.2,331.6 626,323.7 589.6,307.6 553.2,291.4 535.1,283.2 517,274.9 535.3,282.7 553.5,290.7 
		590,306.7 626.3,323 644.4,331.2 	"/>
</g>
<g>
	<polygon points="696.4,295.1 675.6,292 654.8,288.7 613.1,282 571.5,275 550.8,271.5 530,267.8 550.8,271 571.7,274.3 613.3,281 
		654.9,287.9 675.7,291.5 	"/>
</g>
<g>
	<polygon points="704.1,230.6 682.9,233.9 661.6,237.1 619.1,243.3 576.6,249.3 555.3,252.2 534,255 555.2,251.7 576.5,248.5 
		619,242.3 661.5,236.3 682.8,233.4 	"/>
</g>
</svg>
