<?xml version="1.0" encoding="utf-8"?>
<!-- Generator: Adobe Illustrator 15.0.0, SVG Export Plug-In . SVG Version: 6.00 Build 0)  -->
<!DOCTYPE svg PUBLIC "-//W3C//DTD SVG 1.1//EN" "http://www.w3.org/Graphics/SVG/1.1/DTD/svg11.dtd">
<svg version="1.1" id="Layer_1" xmlns="http://www.w3.org/2000/svg" xmlns:xlink="http://www.w3.org/1999/xlink" x="0px" y="0px"
	 width="822px" height="567px" viewBox="0 0 822 567" enable-background="new 0 0 822 567" xml:space="preserve">
<path fill="#FFFFFF" stroke="#000000" stroke-miterlimit="10" d="M665.7,129.5c5-2.9,8.3-4.9,8.8-5.5
	C674.5,124,671.2,126.1,665.7,129.5z M392.5,516c-0.3,0.3-0.6,0.8-0.8,1.3c-1.8,2.7-6,8.7-8.7,8.7c0,0-5.5-33.5-11-37
	c0,0-14.6,20.7-14,14.5c1.2-13.1,12.4-41-16-54c-6.5-2.9-11.2,24-21.5,18.5c-10.9-5.9-1.7-45.2-7-49c-2.5-1.8-8,7-10,7.5
	s-2.5-16,1.9-29.9c0.7-2.1,1.5-4.199,2.6-6.1c8.3-14.6,9.9-42,10.5-51.8c4.7-2.9,17.3-10.3,34-20.2c0.3-0.1,19.5,5.4,29,14.5
	c0.7,0.6-12.2,26.7-12.5,27.5c7.5-12,13.7-26.6,14.5-25.5c11.8,17,14.6,54,15,54c0.7-0.4-1.9-41.3-14.5-57.5
	c-8-10.3-26.3-16-25.9-16.3c17.4-10.3,38.5-22.8,59.9-35.7c1.9-1.2,35.1,15.2,37,14c1.5-0.9-34.3-16.7-32.8-17.6
	c31.7-19.1,65.5-39.4,93.8-56.4c0.8-0.5,18.3,4.5,19,4c0.5-0.3-15.8-5.9-15.3-6.2c23.7-14.2,46.5-27.1,56.8-33.3
	c0.5-0.3,10.5,2.1,11.5,1.5c2-1.2-10.5-3-10.5-3c1.5,0,16.3-8.7,33.8-19.3c0.7-0.4,13,1.7,13.7,1.3c0.8-0.5-10.2-3.5-9.5-3.9
	c18.3-11.1,38.6-23.8,50-31c-20.4,11.9-69.9,38.6-88.4,48.5c-0.5,0.3-1,0.5-1.399,0.8c-0.601,0.4,5.3-10.7,4.8-10.4
	c-2.5,1.4-7.5,12-7.5,12c-2.2,1.3-28.3,16.7-55.5,32.8c-0.4,0.3-1.3,1.3-1.3,0.8c4.3-43.6-1.7,1-2.601,1.5
	C472.4,240,423.8,268.1,424,265.5c1-11.5-8.5-43.8-8.5-42c-0.5,16.5,15.2,40.4-1,50c-22.1,13.2-43.6,26.2-60.9,36.7
	c-0.699,0.5-2.5-10.601-1.899-21.2c1.3-24-12.7-49.5-20.7-50c-0.4,0,17,10.5,17.5,43c0,1-30.6-7-30.5-6c0.1,0.7,10.5,3,10.5,3
	c1.5-0.2,20.4,5.5,20.5,7c0.9,12.2-0.5,26.2-1,26.5c-18.5,11.3-31.5,20.5-31.5,20.5s-128-21-94.5-64c2.2-2.9,13.1,5.1,13.5-5.5
	c0.6-16.7-72.2-31.8-38-55c2.2-1.5,6,1.5,10.5-2c0,0-21.7-26.6-23-35c-2.3-14.4,22-23,58-4c0,0-6.6-18.5-0.5-19
	c11.9-1,35,16.5,44.5,17c0,0-2.5-10,0-11.5c8.6-4.9,33-0.5,37.5,12.5c0,0,13.5,36.5,30.5,28c0,0,4.5-11.5-15.5-58
	c-2.1-4.9,1.2-20.2,5.5-20.5c3.1-0.2,7.5,4,12-2.5c0,0,19.7-65.5,39-54c2,1.2,2,15.5,9.5-0.5c0,0,35.5-46,52-49c0,0-2,33,6.5,34
	c0,0,10,2,10-3.5c0,0,11,11,1,44c0,0,8.5-0.5,15-4.5c0,0,5.5,28.5-12,60c0,0-12,37.5,21.5,16c0,0,38-67.5,59.5-53.5c0,0-1,9.5,4,10
	c0,0,60.5-22.5,78-11c0,0,2,5-5,10.5c0,0,40-9.5,62.5-1c0,0-24,35-40.5,49.5c0,0,0,5.5,9,2.5c0,0,7.5,6.5-25.5,28.5c0,0,0,6,8,6
	c0,0,16-1.5-37,30.5c0,0-5.5,10,7,10.5c0,0,3.5,12-71,10.5c0,0-20,5.5-1.5,22c0,0,32.5,7.5,34,12.5c0,0,9,8,7.5,13
	c0,0-11.5-0.5-5.5,5c0,0,33,28.5,24,40c0,0-1,4.5-9,1.5c0,0,20,30.5,29,34c0,0,3,8.5-21,6.5c0,0-31.5,2.5-40.5-1c0,0-2,7.5,3.5,15.5
	c0,0-31,9-59.5-5.5c0.1,0.2,1.3,2-3,11c0,0-13-0.5-30.5-32c0,0-18-28.5-28.5-15.5c0,0-6,15.5,16.5,54.5c0,0,2.8,12.6,2.5,13
	c-6,8-14,3-19-2.5c0.3,1,16.8,52.6-1.5,65.5c-3.2,2.2-14-14-15.5-1.5c0,0,1.5,25.5-9,26c0,0-12,37-27,37.5c0,0-6.1-23.7-2.8-31.2
	C392.1,516.6,392.4,516.2,392.5,516z"/>
<path fill="#FFFFFF" stroke="#000000" stroke-miterlimit="10" d="M318.5,338.7c-1.1,0.7-1.8,1.1-2,1.3c0,0-125.5,74-129,174.5l0,0
	c-0.4-2.3-1.8-5.1-4-7.5c-4.1-4.5-9.3-6.4-11.8-4.2c0,0,24.8-108.8,144.8-169.8c0,0,13-9.2,31.5-20.5c0.5-0.3,1.9-14.3,1-26.5
	c-0.1-1.5-19-7.2-20.5-7c0,0-10.4-2.3-10.5-3c-0.1-1,30.5,7,30.5,6c-0.5-32.5-17.9-43-17.5-43c8,0.5,22,26,20.7,50
	c-0.601,10.6,1.2,21.7,1.899,21.2c17.2-10.5,38.801-23.601,60.9-36.7c16.2-9.6,0.5-33.5,1-50c0-1.8,9.5,30.5,8.5,42
	c-0.2,2.6,48.4-25.5,89.6-49.9c0.9-0.5,6.9-45.1,2.601-1.5c-0.101,0.5,0.899-0.5,1.3-0.8c27.2-16.1,53.3-31.5,55.5-32.8
	c0,0,5-10.6,7.5-12c0.5-0.3-5.4,10.8-4.8,10.4c0.5-0.2,0.899-0.5,1.399-0.8c18.5-10,67.9-36.7,88.4-48.5c-11.4,7.1-31.7,19.8-50,31
	c-0.8,0.5,10.2,3.5,9.5,3.9s-13-1.7-13.7-1.3c-17.5,10.7-32.3,19.3-33.8,19.3c0,0,12.5,1.8,10.5,3c-1,0.6-11-1.8-11.5-1.5
	c-10.3,6.2-33.2,19.1-56.8,33.3c-0.5,0.3,15.8,5.9,15.3,6.2c-0.8,0.5-18.2-4.5-19-4c-28.3,16.9-62.1,37.3-93.8,56.4
	c-1.5,0.9,34.3,16.7,32.8,17.6c-1.9,1.2-35.1-15.2-37-14c-21.4,12.9-42.5,25.4-59.9,35.7c-0.399,0.3,17.9,6,25.9,16.3
	c12.6,16.2,15.2,57.1,14.5,57.5c-0.4,0-3.3-37-15-54c-0.8-1.2-7,13.5-14.5,25.5c0.3-0.8,13.2-26.9,12.5-27.5
	c-9.5-9.1-28.7-14.6-29-14.5C335.7,328.4,323.2,335.8,318.5,338.7z"/>
<path fill="#FFFFFF" stroke="#000000" stroke-miterlimit="10" d="M187.5,514.5c0.4,2,0,3.7-1.1,4.7c-2.5,2.2-7.8,0.3-11.8-4.2
	s-5.3-10-2.9-12.2c2.5-2.2,7.8-0.3,11.8,4.2C185.7,509.5,187,512.2,187.5,514.5z"/>
<g>
	<path d="M330.5,239.2c-0.1-0.2-0.3-0.6-0.5-0.9c-0.2-0.3-0.5-0.6-0.7-0.9c-0.5-0.6-1.1-1.1-1.7-1.7c-1.199-1.1-2.399-2.1-3.699-3
		c-2.5-1.9-5.2-3.7-7.9-5.4c-5.4-3.4-10.9-6.6-16.6-9.6c-11.3-6.1-22.8-11.6-34.4-17c-23.2-10.7-46.8-20.6-70.6-30.2
		c23.8,9.4,47.5,19.1,70.8,29.7c11.6,5.3,23.2,10.8,34.5,16.8c5.7,3,11.2,6.1,16.7,9.5c2.699,1.7,5.399,3.5,8,5.4
		c1.3,1,2.5,2,3.8,3.1c0.6,0.5,1.2,1.1,1.7,1.7c0.3,0.3,0.5,0.6,0.8,1c0.3,0.4,0.5,0.6,0.7,1.2L330.5,239.2z"/>
</g>
<g>
	<path d="M416.5,226.6c-2.4-8-3.4-16.2-3.8-24.5c-0.4-8.3-0.101-16.5,0.5-24.8c1.2-16.5,3.8-32.8,7-49
		c3.2-16.2,7.1-32.2,11.399-48.1c4.301-15.9,9-31.7,14.301-47.3c-5.2,15.6-9.801,31.5-14.101,47.4c-4.2,15.9-8,32-11.2,48.2
		c-3.1,16.2-5.6,32.5-6.8,48.9c-0.6,8.2-0.8,16.4-0.399,24.7c0.399,8.2,1.5,16.4,3.8,24.2L416.5,226.6z"/>
</g>
<g>
	<path d="M399,388.8c0.6,1.4,0.8,2.601,1.2,4c0.3,1.3,0.5,2.7,0.8,4c0.4,2.7,0.8,5.4,1.1,8c0.601,5.4,1,10.8,1.301,16.101
		c0.6,10.8,0.8,21.6,0.8,32.399c0,21.601-0.601,43.101-1.5,64.7c0.8-21.6,1.3-43.1,1-64.7c-0.101-10.8-0.4-21.6-1.101-32.3
		c-0.3-5.4-0.8-10.7-1.399-16.1c-0.3-2.7-0.7-5.301-1.101-8c-0.199-1.301-0.5-2.601-0.8-3.9s-0.6-2.6-1.1-3.8L399,388.8z"/>
</g>
<g>
	<path d="M455,293c3.4,0.4,6.6,1.2,9.8,2.1c3.2,0.9,6.3,2,9.4,3.2c6.2,2.4,12.2,5.4,17.899,8.8c11.5,6.7,22,15,31.5,24.2l0,0l0,0
		c2.601,3.101,5.5,5.9,8.601,8.5c3.1,2.601,6.3,5.101,9.7,7.4c6.699,4.6,13.8,8.5,21.199,11.8c14.801,6.6,30.7,10.8,46.801,13
		c-16.101-2.1-32-6.1-46.9-12.7c-7.4-3.3-14.6-7.2-21.4-11.7c-3.399-2.3-6.6-4.699-9.699-7.399c-3.101-2.601-6.101-5.4-8.7-8.601
		l0,0c-9.601-9.1-20.101-17.3-31.5-23.899c-5.7-3.3-11.7-6.2-17.8-8.601c-3.101-1.199-6.2-2.3-9.4-3.199c-3.2-0.9-6.4-1.7-9.6-2
		L455,293z"/>
</g>
<g>
	<path d="M535.3,223.1c0,0,0.3,0.1,0.4,0.2l0.5,0.2l1,0.3l2.1,0.6c1.4,0.4,2.8,0.7,4.2,1.1c2.8,0.7,5.7,1.3,8.5,2
		c5.7,1.3,11.4,2.5,17.1,3.7c11.4,2.4,22.9,4.7,34.301,7c-11.5-2.1-23-4.3-34.4-6.5c-5.7-1.1-11.5-2.3-17.2-3.5
		c-2.899-0.6-5.7-1.2-8.6-1.9c-1.4-0.3-2.8-0.7-4.3-1l-2.101-0.6l-1.1-0.3l-0.5-0.2c-0.2-0.1-0.3-0.1-0.601-0.2L535.3,223.1z"/>
</g>
<g>
	<path d="M588.1,185c4.601,0.9,9.101,2.5,13.2,4.8c4.101,2.2,7.8,5.1,11.7,7.7c1.9,1.3,3.9,2.4,6.1,3.3c2.101,0.9,4.4,1.5,6.7,1.9
		c4.601,0.7,9.3,0.2,13.8-0.6c-4.5,1-9.199,1.5-13.899,0.9c-2.3-0.3-4.601-0.9-6.8-1.8c-2.2-0.9-4.2-2-6.2-3.2
		c-3.9-2.5-7.7-5.3-11.8-7.4c-4.101-2.2-8.5-3.7-13-4.5L588.1,185z"/>
</g>
<g>
	<path d="M625.2,164c2.399,0.8,5,1.5,7.5,2s5.1,1,7.7,1.3c5.199,0.6,10.399,0.7,15.6,0.2c-5.2,0.7-10.5,0.8-15.7,0.3
		c-2.6-0.2-5.2-0.6-7.8-1c-2.6-0.5-5.1-1-7.7-1.8L625.2,164z"/>
</g>
<g>
	<path d="M580,168.3c2.8-6.2,6.1-12.2,9.6-18c3.601-5.8,7.4-11.4,11.601-16.7c8.399-10.6,18.2-20.3,29.7-27.6
		c-11.4,7.4-21.101,17.2-29.301,27.9c-4.1,5.4-7.899,11-11.399,16.8c-3.5,5.8-6.7,11.8-9.3,18L580,168.3z"/>
</g>
<g>
	<path d="M517.5,194.4c1.1-7.7,2.6-15.3,4.3-22.8s3.7-15,6-22.4c2.4-7.4,5.101-14.6,8.7-21.5c1.8-3.4,3.8-6.7,6.3-9.8
		c2.4-3,5.3-5.7,8.8-7.5c-3.5,1.8-6.3,4.5-8.699,7.6c-2.4,3-4.4,6.4-6.101,9.8c-3.5,6.9-6.2,14.2-8.5,21.5
		c-2.3,7.4-4.1,14.9-5.8,22.4c-1.6,7.5-3,15.2-4,22.8L517.5,194.4z"/>
</g>
<g>
	<path d="M415.1,159.2c-3.699-6.6-7-13.4-10.1-20.3s-5.9-13.9-8.3-21.1c-2.4-7.1-4.5-14.4-6-21.8c-1.4-7.4-2.3-15-1.7-22.5
		c-0.5,7.5,0.4,15.1,2,22.5c1.5,7.4,3.7,14.6,6.2,21.7c2.5,7.1,5.399,14.1,8.5,20.9c3.2,6.8,6.5,13.6,10.2,20.1L415.1,159.2z"/>
</g>
<g>
	<path d="M415.2,215.4c-6.9-6.5-13.601-13.2-20.101-20.1c-6.5-6.9-12.8-13.9-18.899-21.2c-6-7.3-11.8-14.8-16.9-22.9
		c-2.5-4-4.899-8.1-6.8-12.5c-1.9-4.3-3.5-8.9-3.6-13.7c0.1,4.8,1.8,9.3,3.699,13.6c2,4.3,4.301,8.4,6.9,12.4c5.1,8,11,15.4,17,22.7
		c6.1,7.2,12.5,14.2,19,21c6.6,6.8,13.3,13.5,20.2,19.9L415.2,215.4z"/>
</g>
<g>
	<path d="M412.2,180.1c6.399-6.1,12.7-12.4,18.899-18.7c6.2-6.4,12.2-12.9,18.101-19.5c5.899-6.7,11.6-13.5,16.8-20.6
		c2.6-3.6,5.1-7.2,7.4-11.1c1.1-1.9,2.199-3.9,3.1-5.9s1.7-4.1,2.1-6.3c-0.399,2.2-1.1,4.3-2,6.3c-0.899,2-1.899,4-3,5.9
		c-2.199,3.9-4.699,7.5-7.3,11.2c-5.2,7.2-10.899,14.1-16.7,20.8c-5.8,6.7-11.8,13.3-18,19.7c-6.1,6.4-12.399,12.8-18.699,19
		L412.2,180.1z"/>
</g>
<g>
	<path d="M499.7,312.6c5.6-3.3,11.399-6.3,17.3-9.1s11.9-5.3,18.1-7.4c6.2-2.1,12.5-3.8,19-4.8c3.2-0.399,6.5-0.7,9.801-0.5
		c3.3,0.101,6.5,0.601,9.6,1.7c-3.1-1.1-6.3-1.5-9.6-1.6c-3.301-0.101-6.5,0.199-9.7,0.699c-6.4,1-12.7,2.801-18.8,5
		c-6.101,2.2-12.101,4.801-18,7.601C511.6,307,505.8,310.1,500.3,313.5L499.7,312.6z"/>
</g>
<g>
	<path d="M533.8,340.5c5.2-1.6,10.4-3,15.7-4.2s10.6-2.3,16-3c5.4-0.8,10.8-1.3,16.2-1.2c2.7,0,5.399,0.2,8.1,0.601
		c2.7,0.399,5.3,1.1,7.7,2.399c-2.4-1.199-5.1-1.8-7.8-2.199c-2.7-0.4-5.4-0.5-8.101-0.5c-5.399,0-10.8,0.6-16.1,1.5
		c-5.3,0.899-10.6,2-15.9,3.3C544.4,338.5,539.2,340,534,341.6L533.8,340.5z"/>
</g>
<g>
	<path d="M517,324.4c1.8,6.1,3.9,12.199,6.2,18.199s4.899,11.9,7.7,17.601c2.899,5.7,6,11.3,9.699,16.6c3.7,5.2,8,10.2,13.301,13.7
		c-5.4-3.5-9.801-8.4-13.5-13.6c-3.801-5.2-7-10.801-10-16.5c-2.9-5.7-5.601-11.601-8-17.601c-2.4-6-4.601-12-6.5-18.2L517,324.4z"
		/>
</g>
<g>
	<path d="M398.9,389.3c-4.7,6.601-9,13.7-12.801,20.9c-3.899,7.2-7.3,14.7-10.199,22.3c-2.9,7.7-5.2,15.5-6.801,23.6
		c-1.5,8-2.199,16.301-1.6,24.5c-0.7-8.199-0.1-16.399,1.3-24.5c1.4-8.1,3.7-16,6.5-23.699c2.8-7.7,6.2-15.2,10-22.5
		c3.8-7.301,8-14.4,12.7-21.101L398.9,389.3z"/>
</g>
<g>
	<path d="M402.4,416.1c4.1,4.301,8.1,8.801,11.899,13.301s7.601,9.199,11.101,14c3.5,4.8,6.899,9.8,9.8,15c1.5,2.6,2.8,5.3,3.899,8
		c1.101,2.8,2,5.6,2.4,8.6c-0.4-2.9-1.4-5.8-2.6-8.5c-1.2-2.7-2.5-5.4-4-7.9c-3-5.1-6.4-10-9.9-14.8c-3.6-4.7-7.4-9.3-11.3-13.8
		c-3.9-4.5-7.9-8.9-12.101-13.1L402.4,416.1z"/>
</g>
<g>
	<path d="M398.5,388.5c5.3,0.6,10.5,1.5,15.6,2.6c5.2,1.101,10.301,2.5,15.2,4.301c5,1.8,9.8,4,14.2,6.899
		c4.4,2.9,8.4,6.7,10.4,11.601c-2.101-4.9-6.2-8.601-10.5-11.4c-4.4-2.9-9.301-5-14.2-6.7c-5-1.7-10.101-3-15.2-4.1
		c-5.1-1-10.4-1.9-15.6-2.3L398.5,388.5z"/>
</g>
<g>
	<path d="M275.5,204.6c-0.7-3.8-1.7-7.5-2.8-11.2c-1.2-3.7-2.5-7.3-4.1-10.8s-3.5-6.9-5.7-10.1c-2.2-3.2-4.8-6.1-7.8-8.5
		c3.1,2.4,5.7,5.2,8,8.4c2.3,3.1,4.3,6.5,6,10c1.7,3.5,3.2,7.1,4.4,10.8c1.2,3.7,2.3,7.4,3.1,11.3L275.5,204.6z"/>
</g>
<g>
	<path d="M328.5,236.5c-0.4-6.5-1.2-13.1-2.4-19.6c-1.1-6.5-2.6-12.9-4.5-19.2c-1.899-6.3-4.3-12.5-7.5-18.2
		c-3.199-5.7-7.199-11.1-12.6-15c5.4,3.8,9.5,9.2,12.8,14.9c3.3,5.7,5.8,11.9,7.8,18.2c2,6.3,3.601,12.7,4.801,19.2
		c1.199,6.5,2.1,13,2.6,19.7H328.5z"/>
</g>
<g>
	<path d="M345.3,263.5c-8.899-4.3-17.899-8.3-27.1-12.2c-9.101-3.9-18.3-7.5-27.6-10.9c-9.3-3.4-18.7-6.6-28.2-9.3
		c-9.5-2.7-19.1-5.1-28.9-6.5c9.8,1.4,19.5,3.6,29,6.3c9.5,2.7,19,5.7,28.3,9.1c9.3,3.3,18.601,6.9,27.7,10.7
		c9.2,3.8,18.2,7.7,27.2,12L345.3,263.5z"/>
</g>
<g>
	<path d="M277.5,275.1c-0.4,1.1-1,2-1.7,2.9c-0.7,0.9-1.5,1.6-2.4,2.2c-1.8,1.3-3.8,2.2-5.8,2.7c2-0.7,3.9-1.7,5.5-3.1
		c0.8-0.7,1.5-1.5,2.1-2.3c0.6-0.8,1.1-1.8,1.4-2.7L277.5,275.1z"/>
</g>
<g>
	<path d="M302.1,288.2c2-3,4.5-5.8,7.4-7.9c1.5-1.1,3.1-2,4.8-2.6c1.7-0.7,3.5-1.1,5.3-1.2c-1.8,0.1-3.5,0.7-5.199,1.4
		c-1.601,0.7-3.2,1.7-4.5,2.8c-2.801,2.2-5.101,5-6.9,8.1L302.1,288.2z"/>
</g>
<g>
	<path d="M368.5,360.3c0.6,2.3,0.5,4.601,0.3,6.9s-0.7,4.5-1.2,6.7c-1.199,4.399-3,8.6-5.1,12.6c1.9-4.1,3.6-8.3,4.6-12.7
		c0.5-2.2,0.9-4.399,1-6.6c0.101-2.2,0-4.5-0.5-6.5L368.5,360.3z"/>
</g>
<g>
	<path d="M369.1,361.5c-2.199,0.3-4.5,0.9-6.6,1.6c-2.2,0.801-4.2,1.801-6.2,3c-1.899,1.2-3.7,2.7-5.2,4.5
		c-1.5,1.7-2.699,3.801-3.5,5.9c0.801-2.2,1.9-4.2,3.4-6.1c1.5-1.801,3.2-3.4,5.1-4.7c1.9-1.3,4-2.4,6.2-3.3
		c2.2-0.9,4.4-1.5,6.8-1.9V361.5z"/>
</g>
<g>
	<path d="M395.1,194.2c-1.6-3.5-3-7.1-4.399-10.7c-1.3-3.6-2.5-7.3-3.5-10.9c-2-7.4-3.5-15-3.7-22.6c0.3,7.7,2,15.2,4.1,22.5
		c1.101,3.7,2.4,7.3,3.7,10.8c1.4,3.6,2.9,7.1,4.601,10.5L395.1,194.2z"/>
</g>
<g>
	<path d="M415,223c0-1.4,0.4-2.6,0.8-3.8c0.4-1.2,0.9-2.4,1.5-3.5c1.2-2.2,2.601-4.3,4.2-6.2c3.2-3.8,7-7.1,11-10.1
		c-3.9,3.1-7.5,6.5-10.6,10.4c-1.5,1.9-2.9,4-4,6.2c-0.5,1.1-1,2.2-1.4,3.4c-0.3,1.1-0.6,2.4-0.6,3.5L415,223z"/>
</g>
<path fill="none" stroke="#000000" stroke-miterlimit="10" d="M319.5,276.5c0,0-54.5-6.5-78.5,7.5"/>
<g>
	<path d="M369.4,361.3c-4.4,6.4-8.7,12.9-12.9,19.4c-4.2,6.6-8.3,13.2-12.2,19.899c-3.899,6.7-7.7,13.5-11.1,20.5
		c-1.7,3.5-3.3,7-4.7,10.7c-1.4,3.601-2.7,7.3-3.4,11.2c0.7-3.8,1.9-7.6,3.301-11.2c1.399-3.6,3-7.2,4.6-10.7
		c3.3-7,7-13.899,10.9-20.699c3.899-6.801,7.899-13.5,12-20.101c4.1-6.6,8.399-13.2,12.699-19.6L369.4,361.3z"/>
</g>
</svg>
