<?xml version="1.0" encoding="utf-8"?>
<!-- Generator: Adobe Illustrator 15.0.0, SVG Export Plug-In . SVG Version: 6.00 Build 0)  -->
<!DOCTYPE svg PUBLIC "-//W3C//DTD SVG 1.1//EN" "http://www.w3.org/Graphics/SVG/1.1/DTD/svg11.dtd">
<svg version="1.1" id="layer_x5F_www.ABC-color.com"
	 xmlns="http://www.w3.org/2000/svg" xmlns:xlink="http://www.w3.org/1999/xlink" x="0px" y="0px" width="822px" height="567px"
	 viewBox="0 0 822 567" enable-background="new 0 0 822 567" xml:space="preserve">
<g id="XMLID_1_">
	<g>
		<path fill="#FFFFFF" d="M413.1,75.5c4.2,4.7-2.8,8.6-0.699,13c24.199,0.6,47.5-14.3,71.101-21.9c1.8,0.3,2.8,3.8,2.3,5.8
			c-1.2,3.6-2.8,5.4-3.601,8.2c24.7,1.8,55.5-8.3,80.601-13.7c2.399,1.9-6.5,8.1-4.899,10.3c17.1-2.5,42.399-16.7,59.399-14.6
			c0.601,4-1.101,8.9-3.601,11.7c1,4.9,6.301,1.7,10,2.7c13.7-3.7,28.301-3.1,40.2-7.9c4.699,2,0,8.2,2.199,12.2
			c32.2,1.7,64-6,96.2-9.3c2.601,3.2-9.7,7.5-8.101,10.7c-11.699,7.8-18.8,7.7-26.899,18.7c1.601,3.2,6.101,5.4,5.101,8.6
			c-15,12.7-30.2,21.5-41.899,34.3c-0.101,3.9,8.5,5.1,7.5,9.4c-10.9,10.7-29.801,17.1-39.2,30c1,4.2,9.3,1.5,10.8,5.2
			c-6,15.4-20.6,28.7-34,40.4c1.2,3.1,10.2-1,9.9,3.4c-3,5.8-10.301,14.7-14.9,18.7c-6,13.7-21.699,21.3-30.3,32.1
			c1.7,4.3,6.899,0.1,8.7,4.6c-6.101,16.9-26.7,26.5-41.4,33.801c-7.899,3.899,11-0.699,2.601,7.5c-21.7,11.5-43.7,19.101-66.7,26.5
			c0.9,3.101,9.9,1.101,9.801,5.801c-23,11.6-52.7,24.3-76.399,32.398c1.399,3.602,15.3,0.301,14,7.102
			c-20.5,8.8-46.301,14.2-67.801,18.1c-3.101-1.2-7-1.8-8.601-0.1c-0.899,2.8,7.301,7.3,6.601,10.398
			c-6,3.802-16.101-3.1-21.699-0.5c-11.4,0.302-20.601-1.398-30.2-2.398c-11.7,0.398-22.3-6.602-34-4.5
			c0.801,3.6,16.101,16.1,7.5,13c-9.199-3.3-8.6,4.3-34.699-5.4c-19.601-7.3-39.301-6.3-59-13.6c-6.301,0.7-8.9-4.2-13.601-2.7
			c-14.5-3.4-30-10.3-41.7-17.3c-9-7-16.899-15.2-25.3-20c-4.3,4.199-4.8,7.199-5.7,17.8c-0.399,4.4-0.3,36.3-0.3,36.3
			c2.5,3.102,6.601,39.5,6.601,39.5l-38.101-24c-11.1-11.7,13-96.3,13-96.3c1.101,1,30.3-77.5,37.5-109c1.9-15.9,9.3-27.7,17.5-40.1
			c2.8-2.9,5.8-5.2,7.7-3.8c4.2,4,0.5,7.9,2.3,11.4c18.3-10.1,28-28.6,47.3-38.8c1.301-4.1,9.4-15.4,13-15.4
			c0.801,1.1,4.101,10.6,4.801,12.1c10-1.2,15.1-12.4,23-15.5c9.899-8.2,15.1-23.3,27.399-23.6c2.4,2.6,0.101,5.2,1.5,7.9
			c4.7,1,8.4-5.4,12.9-8c12.899-5.5,25-14.9,35.601-21.9c5.899-4.8,14.5-15.8,18.8-10.8c3.3,3.8,0.5,13.6,2.5,13.6
			C377.1,101.8,393.5,81.5,413.1,75.5z M268.5,408.8c14.1-3.398,26.6,3.2,39.699,6.5c11.399,1.5,26.301,5.102,35.899-0.5
			c-2.1-2-4-4.398-4.399-7.8c0,0,1-0.7,2.2-1.9c22.601,0.602,48.399,9.302,70.399-2.898c0-4.2-4.5-6.4-3.8-11.2
			c15.8-7.399,36.5-7.399,54.1-14.399c9.301-2.301,18.7-6.699,26-12.101c-2.8-3.8-9-4.5-8.199-11.601c18-10,45.5-5.399,59.399-22.5
			c-2.101-1.301-5.101-2.899-5.7-6.899c14.2-11.3,36.5-12.399,49.301-27c0,0-0.7-0.8-1.801-1.399c-2.8-1.301-4.3-6.699-2.5-10.301
			c16.101-10.6,34.4-22.5,43-39c-4.1-1.2-8.399-0.5-11.699-3.8c5-17.9,30.5-24.1,36.8-40.4c-3.101-2-7.5-1.6-9-5.3
			c7.2-14.1,23.301-29,39.301-38.1c3.3-2.4-7.301-3.8-6.2-7.4c1.5-2.7-0.5-4.5,2.899-5.8c9.899-11.4,25.101-20.2,30.801-33.1
			c-2.301-3.3,25-20.6,23.699-24c-3.8-1.3-50.399,7.9-54.3,8c-10.801-5.6-14.899-0.9-25.301-8c-7.6-2.6-25.199,5.5-33.399,5.5
			c-7.899-2.5-16,1-25.601,0c-3.1,1.2,3-8.3,1-11.7C579.3,81.5,549.8,95,535,95.6c-2.7,0.7,1.399-4.8-1.101-7
			C513.8,91,488,98,466.4,100c-4.601,0,6.699-11.3,3.699-15.4c-19.8,2.2-48.199,22.5-71.699,23c-5.899,1.7,2.399-9.8-1.801-13.8
			c-10.8,6.8-35.5,21.5-48.6,28.2c-3.101,0.5-2.4-13-4.4-14l-9.3,8c-7.399,2.9-13.601,7.4-19.8,13c-13.601,12.2-24.7,21.6-42,39.5
			c-2.601,2.6,5.1-20.8,3.7-23.5c-18.9,13.5-42,38.7-54,59.8c-1.801,1.4-8.4,6.9-7.301,2.2c1.4-6.4,10-23.9,8.2-29.9
			c-16.8,12.3-43.6,32.3-55.399,50c-8.2,12.3-6.801-6.1-10.601-7.4c-8.899,14.8-10.7,28.3-14.8,45.1c-0.1,1.6-11.3,16.8-10.5,29.601
			c-6.7,16.101-8.6,19.801-14.8,36.399c-1.601,4.4-1.9,9.2-6.2,21L104,373l-0.5-0.2c-9.7,26.9-11.4,53.9-9.3,68.5
			c1.1,2,20.8,14.102,27.199,16.8C117,442.2,115.2,377.7,123.2,364.7c13.9,13.6,44.9,31.3,98.8,44.5c16.7,2.2,32.8,6.398,47.8,7.1
			C269.2,413.8,265.6,411.4,268.5,408.8z"/>
		<path fill="#FFFFFF" d="M423.3,118.8c2.2-2.6,10.101-7.5,12.601-8.3c-20.301,5.5-44.4,23.5-61.4,34.4
			c-16.801,15.5-29,32.7-44.801,49.3c-11,6.2-18.5,16.2-29.1,20c-27.8,18.5-59.8,32.2-87,52.3c3.3-7.4,8.5-15,11.8-22.4
			c8.2-13.1,8.9-11.8,17.5-24.2c0.7-5.6,25.801-32.8,24.7-37.3c-8.8,4.2-37.2,47.9-43.8,55.2c-9.1,16.7-15.9,27.4-19.7,31
			c-9.899,19.8-32.5,32.5-46.3,49.601c-0.6,0.199-0.6-9.899-0.6-9.899c2.1-20.3,5.399-33.4,16.3-49.8c2.5-4.5,3-8.7,5.5-11.7
			c-45.9,56-10.9,61.399-37.3,83.8C125.7,344.4,116.4,354.9,103.4,374.6l0.5-1.699l6.9-21.199c4.2-11.801,4.6-16.602,6.2-21
			c6.2-16.7,8.1-20.301,14.8-36.4c-0.8-12.8,10.4-28.1,10.5-29.6c4.1-16.8,5.9-30.2,14.8-45.1c3.8,1.3,2.5,19.8,10.601,7.4
			c11.8-17.7,38.6-37.7,55.399-50c1.7,6-6.8,23.5-8.2,29.9c-1,4.7,5.601-0.8,7.301-2.2c12-21,35.1-46.2,54-59.8
			c1.399,2.6-6.301,26.1-3.7,23.5c17.3-17.9,28.399-27.3,42-39.5c6.199-5.5,12.399-10,19.8-13l9.3-8c2,1,1.399,14.5,4.399,14
			c13.101-6.6,37.9-21.4,48.601-28.2c4.2,4-4.101,15.4,1.801,13.8c23.5-0.5,51.8-20.8,71.699-23c3,4.1-8.3,15.5-3.699,15.4
			c21.6-1.9,47.3-9,67.399-11.3c2.5,2.2-1.601,7.7,1.101,7c14.899-0.6,44.399-14.1,56.199-14.2c2,3.4-4.1,12.9-1,11.7
			c9.601,1.1,17.801-2.5,25.601,0c8.2-0.1,25.7-8.2,33.399-5.5c10.4,7.1,14.5,2.4,25.301,8c3.899-0.1,50.5-9.4,54.3-8
			c1.3,3.4-25.899,20.7-23.7,24c-5.699,12.9-20.899,21.8-30.8,33.1c-3.399,1.4-1.399,3.1-2.899,5.8c-1.2,3.6,9.5,5,6.199,7.4
			c-16.1,9.2-32.1,24-39.3,38.1c1.5,3.7,5.899,3.3,9,5.3c-6.3,16.3-31.8,22.5-36.8,40.4c3.3,3.3,7.6,2.6,11.699,3.8
			c-8.6,16.5-26.899,28.4-43,39c-1.8,3.601-0.399,9,2.5,10.3c1.2,0.5,1.801,1.4,1.801,1.4c-12.9,14.699-35.101,15.699-49.301,27
			c0.601,4,3.5,5.6,5.7,6.898c-13.899,17.2-41.3,12.5-59.399,22.5c-0.801,7.102,5.399,7.7,8.199,11.602
			c-7.399,5.398-16.8,9.898-26,12.1c-17.6,7-38.199,7.102-54.1,14.4c-0.7,4.898,3.8,7,3.8,11.2
			c-22.101,12.3-47.899,3.5-70.399,2.898c-1.2,1.2-2.2,1.9-2.2,1.9c0.399,3.398,2.3,5.8,4.399,7.8c-9.601,5.6-24.5,2-35.899,0.5
			c-13.1-3.3-25.6-9.9-39.699-6.5c-2.9,2.6,0.7,5,1.399,7.6c-15.1-0.698-31.199-4.898-47.8-7.1c-53.9-13.2-85-30.9-98.8-44.5
			c9.899-22.2,35.1-35.9,50.6-53.7c26.5-10.2,50,2.899,72.601,14.101C277,342.1,304.199,365.2,350.499,376.3
			c-6.699-1.6-19.8-8.2-24.399-11.399C285.7,346,253.4,317.5,211.5,305.6c-7.9,0-14-4.699-22.7-3.3c-0.8-0.399-1.5-0.5-1.5-0.5
			c22.6-19.9,40.6-49.3,72.3-49.6c12.9,0.2,28.9,6.8,40.7,9.2c15.399,5.6,113,50.7,124.101,54.4c11.699,3.9,39.699,9.7,47.101,5.4
			c-5.7-5.2-13.601-2-20.4-6c-29.5-7.3-55.699-15.3-85.399-29.601c-19.399-9.201-43-22.101-64.6-28.701
			c-4.7-2.7-10.5-3.3-14.899-5.4c-8.5-1.6-15.301-3.8-23.2-4.5c11.399-10.2,16.899-9.5,28.7-19.5c6-4.9,23.3-9.4,28.898-14.1
			c16.9-10.4,33.601-13.4,46.801-13.4c13.399,0,23.101,3.1,25.5,4.6C408.9,206,522.4,235.5,532,237c36.3,5.6,36.899-3.1,47-0.2
			c-11-3.4-26.9-1.8-37.301-4.4c-24.601-1.5-32.101-5.5-55.399-10.4c-21.7-3.4-39.899-10.3-59.8-15c-18-7.3-35.5-10.9-54.101-13.1
			c46.399-18.1,101-20.9,150.5-36.9c20.699-6.7,11.601-3,63.899-20.3c12.601-5,58.7-18.1,67.899-19.1
			C601,117.6,582.5,134,529.4,147.4c-22,5.9-51,12-72.2,16.5c8.1-10.3,35.3-24.6,46.3-30.9c21.6-12.3,29.399-19.9,50.699-26.6
			c1-0.8,9.2-3.1,9.2-3.1c-1.101-2.7-19.7,2.5-22.801,3.7c-30,11.6-43.699,26-70.3,39.4c-20.101,16.4-46.2,25.8-70.899,30
			c-22.801,6.2-46.2,15.2-68.601,24.1c18.899-20.2,35.899-41.1,57.899-60.1C401.3,134.3,410,124.1,423.3,118.8z"/>
		<path fill="#FFFFFF" d="M471.6,321.4c-7.399,4.398-35.399-1.5-47.1-5.4c-11.101-3.7-108.801-48.8-124.101-54.4
			c-11.8-2.4-27.8-9-40.699-9.2C228,252.7,210,282,187.4,302c0,0,0.7,0.1,1.5,0.5c8.7-1.4,14.801,3.3,22.7,3.3
			c41.9,11.9,74.2,40.4,114.6,59.3c4.5,3.102,17.601,9.801,24.399,11.4c-46.3-11.1-73.5-34.2-104-51.4
			C224.1,313.9,200.5,300.8,174,311c-15.601,17.8-40.7,31.5-50.601,53.7c-8,13-6.199,77.5-1.8,93.398
			c-6.399-2.8-26.1-14.8-27.2-16.8C92.2,426.7,94,399.6,103.7,372.8l0.5,0.2l-0.5,1.7c13-19.8,22.199-30.3,38.3-43.8
			c26.4-22.301-8.6-27.801,37.3-83.8c-2.5,3.1-3,7.2-5.5,11.7c-10.9,16.4-14.2,29.601-16.3,49.8c0,0,0.1,10.102,0.6,9.9
			c13.9-17.2,36.5-29.8,46.3-49.6c3.801-3.6,10.601-14.3,19.7-31c6.601-7.2,35-51,43.8-55.2c1.101,4.5-24,31.7-24.699,37.3
			c-8.601,12.3-9.301,11.1-17.5,24.2c-3.301,7.4-8.5,15-11.801,22.4c27.2-20,59.2-33.8,87-52.3c10.6-3.8,18.1-13.9,29.1-20
			c15.801-16.5,28-33.7,44.801-49.3c16.899-10.9,41.101-28.9,61.399-34.4c-2.5,0.9-10.5,5.7-12.601,8.3
			c-13.3,5.3-22.101,15.5-34.699,21.9c-22,19-39,39.9-57.9,60.1c22.4-8.9,45.8-17.9,68.6-24.1c24.601-4.1,50.801-13.5,70.899-30
			c26.5-13.4,40.2-27.8,70.301-39.4c3.101-1.2,21.8-6.4,22.8-3.7c0,0-8.199,2.3-9.199,3.1c-21.301,6.7-29.101,14.2-50.7,26.6
			c-11,6.3-38.2,20.6-46.3,30.9c21.199-4.5,50.3-10.6,72.199-16.5C582.7,134.4,601.2,118,654.9,118c-9.2,1-55.301,14.1-67.9,19.1
			c-52.3,17.2-43.199,13.6-63.899,20.3c-49.5,16-104.199,18.8-150.5,36.9c18.601,2.1,36.101,5.8,54.101,13.1
			c20,4.8,38.101,11.6,59.8,15c23.301,4.9,30.801,8.9,55.4,10.4c10.399,2.6,26.3,1,37.3,4.4c-10.101-2.9-10.7,5.8-47,0.2
			c-9.601-1.5-123.101-31-139.101-32.4c-2.399-1.5-12.101-4.6-25.5-4.6c-13.199,0-29.899,3-46.8,13.4c-5.7,4.7-23,9.2-28.9,14.1
			c-11.8,10-17.3,9.3-28.7,19.5c7.9,0.8,14.7,3,23.2,4.5c4.4,2.1,10.2,2.7,14.9,5.4C323,263.8,346.5,276.7,365.901,286
			c29.699,14.3,55.8,22.3,85.399,29.6C458,319.3,465.9,316.2,471.6,321.4z"/>
	</g>
	<g>
		<path fill="none" stroke="#1F1D21" d="M123.2,364.8c9.899-22.2,35.1-35.899,50.6-53.7c26.5-10.199,50,2.9,72.6,14.102
			c30.5,17.199,57.7,40.3,104,51.398c-6.7-1.6-19.801-8.199-24.399-11.398c-40.4-18.9-72.7-47.4-114.601-59.301
			c-7.899,0-14-4.699-22.699-3.301c-0.801-0.398-1.5-0.5-1.5-0.5c22.6-19.898,40.6-49.3,72.3-49.6c12.899,0.2,28.899,6.8,40.699,9.2
			c15.399,5.6,113,50.7,124.101,54.399c11.7,3.899,39.7,9.699,47.101,5.399c-5.7-5.2-13.601-2-20.399-6
			c-29.5-7.3-55.7-15.3-85.4-29.601c-19.399-9.199-43-22.101-64.6-28.699c-4.7-2.7-10.5-3.3-14.9-5.4c-8.5-1.6-15.3-3.8-23.2-4.5
			c11.4-10.2,16.9-9.5,28.7-19.5c6-4.9,23.3-9.4,28.9-14.1c16.899-10.4,33.6-13.4,46.8-13.4c13.399,0,23.101,3.1,25.5,4.6
			c16,1.4,129.5,30.9,139.101,32.4c36.3,5.6,36.899-3.1,47-0.2c-11-3.4-26.899-1.8-37.301-4.4c-24.6-1.5-32.1-5.5-55.399-10.4
			c-21.699-3.4-39.899-10.3-59.8-15c-18-7.3-35.5-10.9-54.101-13.1c46.399-18.1,101-20.9,150.5-36.9c20.7-6.7,11.601-3,63.899-20.3
			c12.601-5,58.7-18.1,67.9-19.1c-53.7,0-72.2,16.4-125.301,29.8c-22,5.9-51,12-72.199,16.5c8.1-10.3,35.3-24.6,46.3-30.9
			c21.601-12.3,29.399-19.9,50.7-26.6c1-0.8,9.199-3.1,9.199-3.1c-1.101-2.7-19.699,2.5-22.8,3.7c-30,11.6-43.7,26-70.301,39.4
			c-20.101,16.4-46.199,25.8-70.899,30c-22.8,6.2-46.199,15.2-68.601,24.1c18.899-20.2,35.899-41.1,57.899-60.1
			c12.601-6.4,21.301-16.6,34.7-21.9c2.2-2.6,10.101-7.5,12.601-8.3C415.6,116,391.5,134,374.5,144.9
			c-16.801,15.5-29,32.7-44.801,49.3c-11,6.2-18.5,16.2-29.1,20c-27.8,18.5-59.8,32.2-87,52.3c3.301-7.4,8.5-15,11.801-22.4
			c8.199-13.1,8.899-11.8,17.5-24.2c0.699-5.6,25.8-32.8,24.699-37.3c-8.8,4.2-37.199,47.9-43.8,55.2c-9.1,16.7-15.899,27.4-19.7,31
			c-9.899,19.8-32.5,32.5-46.3,49.601c-0.6,0.199-0.6-9.899-0.6-9.899c2.1-20.3,5.399-33.4,16.3-49.8c2.5-4.5,3-8.7,5.5-11.7
			c-45.9,56-10.9,61.399-37.3,83.8C125.7,344.4,116.4,354.9,103.4,374.6l0.5-1.699"/>
		<path fill="none" stroke="#1F1D21" d="M123.2,364.8c13.9,13.601,44.9,31.3,98.8,44.5c16.7,2.2,32.8,6.4,47.8,7.102
			c-0.7-2.602-4.3-5-1.4-7.602c14.1-3.399,26.6,3.2,39.7,6.5c11.4,1.5,26.301,5.102,35.9-0.5c-2.101-2-4-4.398-4.4-7.8
			c0,0,1-0.7,2.2-1.9c22.601,0.602,48.399,9.302,70.399-2.898c0-4.2-4.5-6.4-3.8-11.2c15.8-7.399,36.5-7.399,54.101-14.399
			c9.3-2.301,18.699-6.699,26-12.101c-2.801-3.8-9-4.5-8.2-11.601c18-10,45.5-5.399,59.399-22.5
			c-2.101-1.301-5.101-2.899-5.699-6.899c14.199-11.3,36.5-12.399,49.3-27c0,0-0.7-0.8-1.8-1.399
			c-2.801-1.301-4.301-6.699-2.5-10.301c16.1-10.6,34.399-22.5,43-39c-4.101-1.2-8.4-0.5-11.7-3.8c5-17.9,30.5-24.1,36.8-40.4
			c-3.1-2-7.5-1.6-9-5.3c7.2-14.1,23.301-29,39.301-38.1c3.3-2.4-7.301-3.8-6.2-7.4c1.5-2.7-0.5-4.5,2.899-5.8
			c9.9-11.4,25.101-20.2,30.801-33.1c-2.301-3.3,25-20.6,23.699-24c-3.8-1.3-50.399,7.9-54.3,8c-10.8-5.6-14.899-0.9-25.3-8
			c-7.601-2.6-25.2,5.5-33.4,5.5c-7.899-2.5-16,1-25.6,0c-3.101,1.2,3-8.3,1-11.7c-11.7-0.2-41.2,13.3-56,13.9
			c-2.7,0.7,1.399-4.8-1.101-7C513.8,91,488,98,466.4,100c-4.601,0,6.699-11.3,3.699-15.4c-19.8,2.2-48.199,22.5-71.699,23
			c-5.899,1.7,2.399-9.8-1.801-13.8c-10.8,6.8-35.5,21.5-48.6,28.2c-3.101,0.5-2.4-13-4.4-14l-9.3,8c-7.399,2.9-13.601,7.4-19.8,13
			c-13.601,12.2-24.7,21.6-42,39.5c-2.601,2.6,5.1-20.8,3.7-23.5c-18.9,13.5-42,38.7-54,59.8c-1.801,1.4-8.4,6.9-7.301,2.2
			c1.4-6.4,10-23.9,8.2-29.9c-16.8,12.3-43.6,32.3-55.399,50c-8.2,12.3-6.801-6.1-10.601-7.4c-8.899,14.8-10.7,28.3-14.8,45.1
			c-0.1,1.6-11.3,16.8-10.5,29.601c-6.7,16.101-8.6,19.801-14.8,36.399c-1.601,4.4-1.9,9.2-6.2,21L104,373l-0.5-0.2
			c-9.7,26.9-11.4,53.9-9.3,68.5c1.1,2,20.8,14.102,27.199,16.8C117.1,442.2,115.2,377.7,123.2,364.8z"/>
		<path fill="none" stroke="#1F1D21" d="M762.199,71.9c2.601,3.2-9.699,7.5-8.101,10.7c-11.699,7.8-18.8,7.7-26.899,18.7
			c1.601,3.2,6.101,5.4,5.101,8.6c-15,12.7-30.2,21.5-41.899,34.3c-0.101,3.9,8.5,5.1,7.5,9.4c-10.9,10.7-29.801,17.1-39.2,30
			c1,4.2,9.3,1.5,10.8,5.2c-6,15.4-20.6,28.7-34,40.4c1.2,3.1,10.2-1,9.9,3.4c-3,5.8-10.301,14.7-14.9,18.7
			c-6,13.7-21.699,21.3-30.3,32.1c1.7,4.3,6.899,0.1,8.7,4.6c-6.101,16.9-26.7,26.5-41.4,33.8c-7.899,3.9,11-0.7,2.601,7.5
			c-21.699,11.5-43.699,19.101-66.699,26.5c0.899,3.101,9.899,1.101,9.8,5.8c-23,11.602-52.7,24.301-76.399,32.4
			c1.399,3.6,15.3,0.3,14,7.1c-20.5,8.802-46.301,14.2-67.801,18.102c-3.1-1.2-7-1.8-8.6-0.102c-0.9,2.802,7.3,7.302,6.6,10.4
			c-6,3.8-16.1-3.1-21.699-0.5c-11.399,0.3-20.601-1.4-30.2-2.4c-11.699,0.4-22.3-6.6-34-4.5c0.8,3.602,16.1,16.102,7.5,13
			c-9.2-3.3-8.6,4.302-34.7-5.398c-19.6-7.3-39.3-6.3-59-13.602c-6.3,0.7-8.899-4.198-13.6-2.698c-14.5-3.4-30-10.302-41.7-17.302
			c-9-7-16.9-15.199-25.3-20c-4.3,4.2-4.8,7.2-5.7,17.801c-0.4,4.399-0.3,36.301-0.3,36.301c2.5,3.1,6.6,39.5,6.6,39.5l-38.1-24
			c-11.101-11.7,13-96.301,13-96.301c1.1,1,30.3-77.5,37.5-109c1.899-15.9,9.3-27.7,17.5-40.1c2.8-2.9,5.8-5.2,7.7-3.8
			c4.199,4,0.5,7.9,2.3,11.4c18.3-10.1,28-28.6,47.3-38.8c1.3-4.1,9.4-15.4,13-15.4c0.8,1.1,4.1,10.6,4.8,12.1
			c10-1.2,15.101-12.4,23-15.5c9.9-8.2,15.101-23.3,27.4-23.6c2.399,2.6,0.1,5.2,1.5,7.9c4.7,1,8.399-5.4,12.899-8
			c12.9-5.5,25-14.9,35.601-21.9c5.899-4.8,14.5-15.8,18.8-10.8c3.301,3.8,0.5,13.6,2.5,13.6c21.101-5.6,37.5-25.8,57.101-31.8
			c4.2,4.7-2.8,8.6-0.7,13c24.2,0.6,47.5-14.3,71.101-21.9c1.801,0.3,2.801,3.8,2.301,5.8c-1.2,3.6-2.801,5.4-3.602,8.2
			c24.7,1.8,55.5-8.3,80.602-13.7c2.398,1.9-6.5,8.1-4.9,10.3c17.101-2.5,42.4-16.7,59.4-14.6c0.6,4-1.102,8.9-3.602,11.7
			c1,4.9,6.301,1.7,10,2.7c13.7-3.7,28.301-3.1,40.2-7.9c4.7,2,0,8.2,2.2,12.2C698.199,82.9,730,75.2,762.199,71.9z"/>
	</g>
</g>
</svg>
