<?xml version="1.0" encoding="utf-8"?>
<!-- Generator: Adobe Illustrator 15.0.0, SVG Export Plug-In . SVG Version: 6.00 Build 0)  -->
<!DOCTYPE svg PUBLIC "-//W3C//DTD SVG 1.1//EN" "http://www.w3.org/Graphics/SVG/1.1/DTD/svg11.dtd">
<svg version="1.1" id="www.ABC-color.com" xmlns="http://www.w3.org/2000/svg" xmlns:xlink="http://www.w3.org/1999/xlink" x="0px"
	 y="0px" width="822px" height="567px" viewBox="0 0 822 567" enable-background="new 0 0 822 567" xml:space="preserve">
<path fill="#FFFFFF" stroke="#000000" stroke-miterlimit="10" d="M784,498.5c0,7-12,0-12,0c-17.5-42-56-44.6-56-44.6l-0.101-0.4
	c9.899-2.7,13.5-16.9,13.5-16.9c13.899,1.9,18.8-4.698,20.3-11.398l0.601,0.1C748.9,450.6,784,479.5,784,498.5z"/>
<path fill="#FFFFFF" stroke="#000000" stroke-miterlimit="10" d="M729.3,436.6c0,0-3.601,14.2-13.5,16.9c-2.8,0.7-6,0.6-9.8-1
	c0,0-407-234.2-668.601-409.8C485.199,176.9,729.3,436.6,729.3,436.6z"/>
<path fill="#FFFFFF" stroke="#000000" stroke-miterlimit="10" d="M749.699,413.5c0,0,1.301,5.9-0.101,11.8
	c-1.5,6.7-6.399,13.3-20.3,11.4c0,0-244.2-259.8-691.8-393.9C37.5,42.7,406.699,15.9,749.699,413.5z"/>
</svg>
