<?xml version="1.0" encoding="utf-8"?>
<!-- Generator: Adobe Illustrator 15.0.0, SVG Export Plug-In . SVG Version: 6.00 Build 0)  -->
<!DOCTYPE svg PUBLIC "-//W3C//DTD SVG 1.1//EN" "http://www.w3.org/Graphics/SVG/1.1/DTD/svg11.dtd">
<svg version="1.1" id="layer_x5F_www.ABC-color.com"
	 xmlns="http://www.w3.org/2000/svg" xmlns:xlink="http://www.w3.org/1999/xlink" x="0px" y="0px" width="822px" height="567px"
	 viewBox="0 0 822 567" enable-background="new 0 0 822 567" xml:space="preserve">
<path fill="#FFFFFF" stroke="#1F1E21" stroke-width="0.5" d="M763.3,25.1l3.5,9.1c0,0-154.1,77.9-201.5,94.6c0,0,0,0-0.1,0
	c-0.7,0.1-7.102,1.7-9.602,2.3c-1.398,0.3-34.698,19.5-37,20.9l0,0c0.302-0.2,1-0.7,1.9-1.3c0.1-0.1,0.3-0.2,0.4-0.3
	c1.398-0.9,3.198-2,5.398-3.4h0.102c1.198-0.7,19.198-10.8,28.3-17.8c0.2-0.1,0.3-0.2,0.5-0.3c0,0,0.3-0.3,0.8-0.7
	c3.4-2.8,6.2-5.5,6.2-5.6C628.2,83.7,698.2,47.4,763.3,25.1z"/>
<path fill="#FFFFFF" stroke="#1F1E21" stroke-width="0.5" d="M565.3,128.8c5.4,12.2-2.3,24.9-2.3,24.9c4.1,30.4-23.6,23-23.6,23
	c-0.302,13.2-4.102,26.8-23.7-0.4c0,0,11,127.8-28.8,38.2c0,0-7.602-6-9.302,49.3c0,0,19.5,260.7-58.5,79.5c0,0-15.3-10.1-16.1,8
	c-0.8,18.101,9.3,292.9-76.3,48.3c0,0-20.3-15.1-26.3,27.2c0,0-35.601,161-70.3,67.4c0,0-55.1,59.398-65.2-7
	c0,0-61,14.1-88.1-18.102l-2.6-7.1c-10.4-43.8,29.7-100.2,29.7-100.2c-43.8-43,26.7-71.1,26.7-71.1c-51.8-81.7,83.9-40,83.9-40
	c34,14.5,32.8-14,32.8-14c-137.9-208.1,59-63.4,72.7-55.5c13.7,8,13.8-12.8,13.8-12.8c-95.1-169.2,86.9-21.8,86.9-21.8
	c41.5,25.3,40.8,14.4,40.8,14.4c-46.4-85,42.2-11.2,42.2-11.2c-10.2-33.1,1.1-31,10.8-25.1c5.6,3.5,10.7,8.2,10.7,8.2
	c2.6-38.6,22-20,22-20c8.1,2.4,12.1,5,15,9.5c-0.2,0.1-4.4,3.9-6.2,5.6c-0.2,0.2-0.5,0.4-0.7,0.5s-0.398,0.3-0.6,0.4
	c-3.4,2.1-18.7,11.7-28.3,17.8h-0.1c-1.2,0.7-3.5,2.2-5.398,3.4c-0.102,0.1-0.302,0.2-0.4,0.3c-0.9,0.6-1.6,1-1.9,1.2v0.1
	c-0.1,0.1-0.1,0.1-0.198,0.1l0,0h0.1c3.1-0.9,33.5-19.4,37.7-20.9C556.6,131.1,564.4,129.1,565.3,128.8
	C565.2,128.9,565.3,128.8,565.3,128.8z"/>
<path fill="#796A28" stroke="#1F1E21" stroke-width="0.5" d="M565.2,128.9c-0.8,0.2-8.602,2.2-8.9,2.3c-4.3,1.5-34.6,20-37.7,20.9
	l0,0c2.302-1.3,35.602-20.5,37-20.9C558.1,130.6,564.5,129,565.2,128.9z"/>
<path fill="#796A28" stroke="#1F1E21" stroke-width="0.5" d="M562.1,122.7c0,0.1-2.8,2.8-6.198,5.6
	C557.7,126.6,561.9,122.8,562.1,122.7z"/>
<path fill="#796A28" stroke="#1F1E21" stroke-width="0.5" d="M554.6,129.2c-9.1,7-27,17.1-28.3,17.8
	C536,141,551.2,131.3,554.6,129.2z"/>
<path fill="#796A28" stroke="#1F1E21" stroke-width="0.5" d="M518.6,151.9c0.302-0.2,1-0.6,1.9-1.2c-0.9,0.6-1.6,1.1-1.9,1.3V151.9z
	"/>
<path fill="#375B2D" stroke="#1F1E21" stroke-width="0.5" d="M518.6,152L518.6,152c0,0.1-0.1,0.1-0.1,0.1S518.5,152.1,518.6,152z"/>
<path fill="none" stroke="#000000" stroke-width="0.25" d="M552.6,130.3c-6.8,0.9-15.698,3.6-20.898-6.3"/>
<path fill="none" stroke="#000000" stroke-width="0.25" d="M551.2,162.9c0.8-4-1.7-27.2,3.398-34.2"/>
<path fill="none" stroke="#000000" stroke-width="0.25" d="M509.4,135.2c0,0,10.5,15,19.8,9"/>
<path fill="none" stroke="#000000" stroke-width="0.25" d="M531.3,177.6c0,0-7.1-23,1.4-35.1"/>
<path fill="none" stroke="#000000" stroke-width="0.25" d="M501.8,215.1c0,0-6.898-44.4,0.7-55.4"/>
<path fill="none" stroke="#000000" stroke-width="0.25" d="M459.3,134.4c0,0,29.2,34.9,37.7,30.9"/>
<path fill="none" stroke="#000000" stroke-width="0.25" d="M338.5,119.7c0,0,54.6,82.1,84.8,91.9"/>
<path fill="none" stroke="#000000" stroke-width="0.25" d="M381,140.1c0,0,2.4,26.2-1,32.2s-27.1,0.4-27.1,0.4"/>
<path fill="none" stroke="#000000" stroke-width="0.25" d="M398.2,161.3c0,0,17.8,45.7-26.8,40.8"/>
<path fill="none" stroke="#000000" stroke-width="0.25" d="M423.3,211.6c0,0,40.102,73.6,33.3,150.2"/>
<path fill="none" stroke="#000000" stroke-width="0.25" d="M447.5,330.8c0,0,1.7-36.2,20.3-13.1"/>
<path fill="none" stroke="#000000" stroke-width="0.25" d="M416,278.7c0,0,3.4-74.2,50.1-30.2"/>
<path fill="none" stroke="#000000" stroke-width="0.25" d="M435.2,304.7c0,0,4.1-53,27.5-19.601"/>
<path fill="none" stroke="#000000" stroke-width="0.25" d="M265.7,179.2c0,0,28.8,27.7-9.6,22"/>
<path fill="none" stroke="#000000" stroke-width="0.25" d="M296.6,194.7c0,0,34.3,33.4-14.4,30.2"/>
<path fill="none" stroke="#000000" stroke-width="0.25" d="M335.7,208.5c0,0,18.7,36.4-22,46.5"/>
<path fill="none" stroke="#000000" stroke-width="0.25" d="M376.2,455.6c0,0,18.2-168.6-20.8-200.7
	c-24.5-20.2-130.2-95.2-130.2-95.2"/>
<path fill="none" stroke="#000000" stroke-width="0.25" d="M367.1,424.4c9.9-21.9,12.4-45.4,25.4-13.102"/>
<path fill="none" stroke="#000000" stroke-width="0.25" d="M363.9,365.5c0,0,12.698-45.3,30.5-16.1"/>
<path fill="none" stroke="#000000" stroke-width="0.25" d="M349,314.8c0,0,13.5-63.9,48.5-7.6"/>
<path fill="none" stroke="#000000" stroke-width="0.25" d="M174.5,279.5c0,0,130.4,15.5,87.2,165.5"/>
<path fill="none" stroke="#000000" stroke-width="0.25" d="M119.6,335.7c0,0,116-13.9,83,152.398"/>
<path fill="none" stroke="#000000" stroke-width="0.25" d="M186.8,297.4c0,0,34.3,2.398,8.2-26.102"/>
<path fill="none" stroke="#000000" stroke-width="0.25" d="M228.7,287.6c0,0,36.4,35.9-8.9,29.301"/>
<path id="www.ABC-color.com" fill="none" stroke="#000000" stroke-width="0.25" d="M250.6,374.9c0,0,6.9-62,26.8-13"/>
<path fill="none" stroke="#000000" stroke-width="0.25" d="M256.8,430.3c0,0,14.4-30.2,15.8,4.102"/>
<path fill="none" stroke="#000000" stroke-width="0.25" d="M259.6,403.4c0,0,10.3-44.801,22,1.6"/>
<path fill="none" stroke="#000000" stroke-width="0.25" d="M140.1,323.5c0,0,39.1,26.1-13.7,26.1"/>
<path fill="none" stroke="#000000" stroke-width="0.25" d="M176.5,336.5c0,0,26.8,31.8-12.4,25.3"/>
<path fill="none" stroke="#000000" stroke-width="0.25" d="M188.2,409.1c0,0,12.4-45.699,24.7-10.6"/>
<path fill="none" stroke="#000000" stroke-width="0.25" d="M191.6,436.8c0,0,17.2-35.1,26.8,0"/>
<path fill="none" stroke="#000000" stroke-width="0.25" d="M197.1,468.6c0,0,11.7-24.5,15.1,0.802"/>
<path fill="none" stroke="#000000" stroke-width="0.25" d="M104.5,444.1c0,0,306.8-235.6,457.8-319.6"/>
<path fill="none" stroke="#000000" stroke-width="0.25" d="M127.1,406.6c0,0,36.4-13,22.6,22.802"/>
<path fill="none" stroke="#000000" stroke-width="0.25" d="M112,427c0,0,27.5-11.4,11,12.2"/>
<path fill="none" stroke="#000000" stroke-width="0.25" d="M143.6,381.4c0,0,48.7-13,32.3,44.8"/>
<path fill="none" stroke="#000000" stroke-width="0.25" d="M353.6,125.4c0,0,19.2,39.1-12.398,18.8"/>
</svg>
