<?xml version="1.0" encoding="utf-8"?>
<!-- Generator: Adobe Illustrator 15.0.0, SVG Export Plug-In . SVG Version: 6.00 Build 0)  -->
<!DOCTYPE svg PUBLIC "-//W3C//DTD SVG 1.1//EN" "http://www.w3.org/Graphics/SVG/1.1/DTD/svg11.dtd">
<svg version="1.1" id="www.ABC-color.com" xmlns="http://www.w3.org/2000/svg" xmlns:xlink="http://www.w3.org/1999/xlink" x="0px"
	 y="0px" width="822px" height="567px" viewBox="0 0 822 567" enable-background="new 0 0 822 567" xml:space="preserve">
<path fill="#FFFFFF" stroke="#000000" stroke-miterlimit="10" d="M478.6,505.7l-0.8,9.2c0,16.8-21.5,30.398-48.101,30.398
	c-26.5,0-48.101-13.6-48.101-30.398c0,0-1.699-6.4-3.899-13.7C379,505,385.6,522.1,398.5,512.5c0,0,10.899,18.8,18.6,1
	c0,0,2.4,19,17.601,5c0,0,13.899,11,18.2-3.4C452.8,515.2,462.8,526.7,478.6,505.7z"/>
<path fill="#FFFFFF" stroke="#000000" stroke-miterlimit="10" d="M479.199,482.3l1.601,0.102l-2.101,23.3
	c-15.8,21-25.8,9.5-25.8,9.5S434,497,435.199,482.3c0,0,1.899,1.2,4.5,2.4c3.601,1.6,8.601,3.1,11.601,0.8c0,0,13.2,4.8,14.8,0
	C471.4,482.6,478.3,482.4,479.199,482.3C479.1,482.3,479.1,482.3,479.199,482.3L479.199,482.3z"/>
<path fill="#FFFFFF" stroke="#000000" stroke-miterlimit="10" d="M401.8,484.5c1.5,0,3.2-0.6,5-2.2c0,0,0.601,0.7,1.601,1.7
	c0.899,0.9,2.199,2.1,3.601,3.2c2.1,1.6,4.5,3.1,6.699,3.398c6.7,3.4-1.699,22.9-1.699,22.9c-7.7,17.7-18.601-1-18.601-1
	c-12.899,9.6-19.5-7.5-20.801-11.3c-0.199-0.5-0.199-0.7-0.199-0.7c-1.801-5.7-3.899-11.9-5.899-15.8c2.6,0.2,7.3,0.5,10.3-0.2
	c0,0,9.7,2,12.7-4.4C394.6,480.2,397.6,484.5,401.8,484.5z"/>
<path fill="#FFFFFF" stroke="#000000" stroke-miterlimit="10" d="M452.8,515.2c-4.2,14.398-18.2,3.398-18.2,3.398
	c-15.199,13.9-17.601-5-17.601-5s8.4-19.5,1.7-22.898c1.8,0.3,3.399-0.3,4.5-2c0,0,5.8,1.5,11.101-5.3c0.3-0.302,0.5-0.7,0.7-1
	C433.9,497,452.8,515.2,452.8,515.2z"/>
<path fill="#FFFFFF" stroke="#000000" stroke-miterlimit="10" d="M407,405.4c0,0,13.3,69.898,5.1,81.8
	c-1.399-1.102-2.699-2.3-3.6-3.2c3.3-5.9-14.7-75.2-14.7-75.2s0,0,0-0.1V408.6c-2-9-68.601-308.398-63.601-330
	C330.1,78.6,394.1,314.1,407,405.4L407,405.4z"/>
<path fill="#FFFFFF" stroke="#000000" stroke-miterlimit="10" d="M393.699,408.8c0,0,18.101,69.3,14.7,75.2
	c-1-1-1.601-1.7-1.601-1.7c-0.5-2.1-1.3-4.5-2.5-7c2.3-11.1-22.3-53.8-22.3-53.8l0,0l0,0c-2.2-5-95-219.4-100.7-282.8
	c0,0,97.899,208.1,112.399,270L393.699,408.8L393.699,408.8z"/>
<path fill="#FFFFFF" stroke="#000000" stroke-miterlimit="10" d="M382,421.5c0,0,24.6,42.7,22.3,53.8
	c-7.399-15.8-26.601-36.898-26.601-36.898c0-0.102-0.101-0.102-0.101-0.2l0,0c-1.601-2.602-3.399-5.3-5.3-8c0,0,0,0,0-0.102l0,0
	c-26.601-40.199-141-214.3-138.8-236.7C233.4,193.5,295.9,255.1,382,421.5C381.9,421.4,381.9,421.4,382,421.5
	C381.9,421.4,381.9,421.5,382,421.5z"/>
<path fill="#FFFFFF" stroke="#000000" stroke-miterlimit="10" d="M404.3,475.3c1.2,2.5,2.101,4.9,2.5,7c-1.8,1.5-3.5,2.102-5,2.2
	c5.5-12.5-30.3-34.8-30.3-34.8l0,0c-2.801-2.4-182.6-159.101-181.7-175.9c0,0,134.399,88.8,182.399,156.4l0,0c0,0,0,0,0,0.1
	c3,4.5,4.801,7.3,5.301,8l0,0c0,0,0.1,0.102,0.1,0.2C377.699,438.4,396.9,459.5,404.3,475.3z"/>
<path fill="#FFFFFF" stroke="#000000" stroke-miterlimit="10" d="M371.5,449.7c0,0,35.899,22.3,30.3,34.8c-4.3,0.1-7.3-4.3-7.3-4.3
	c-11.4-8-26-15.9-26-15.9S180,374,163.1,347.5C163.1,347.5,293.6,389.2,371.5,449.7C371.5,449.6,371.5,449.6,371.5,449.7z"/>
<path fill="#FFFFFF" stroke="#000000" stroke-miterlimit="10" d="M394.6,480.2c-3,6.3-12.699,4.398-12.699,4.398
	c-3,0.602-7.7,0.4-10.301,0.2c0-0.1,0-0.1-0.1-0.2c0,0-177.101-27.698-221-53.8c0,0,83.3-8.1,218,33.5
	C368.5,464.3,383.1,472.2,394.6,480.2z"/>
<path fill="#FFFFFF" stroke="#000000" stroke-miterlimit="10" d="M480.699,482.3v0.102l-1.601-0.102l0,0c0,0,0,0-0.1,0
	c-0.9,0-7.801,0.3-13.101,3.2c-1.7,4.8-14.801,0-14.801,0c-0.399-12,21.101-19.2,21.101-19.2l0,0c1.399-0.2,3.301-0.7,5.5-1.398
	C509.6,456.8,668.9,417.4,698.5,431C698.6,430.9,495.1,484.8,480.699,482.3z"/>
<path fill="#FFFFFF" stroke="#000000" stroke-miterlimit="10" d="M484.199,447.3c5.2-3.1,176-106.1,205.101-99.8
	c0,0-170.601,103.6-211.5,117.3c-3.3,0.8-5.3,1.4-5.5,1.4l0,0c0,0-21.5,7.2-21.101,19.2c-3,2.3-8,0.898-11.601-0.802l2.7-0.698
	c-0.2-2.7,0.601-6.802,2.101-11.802c2.699-4.5,8-8.698,13.899-12.398C470.1,452.3,484.199,447.3,484.199,447.3
	C484.1,447.4,484.1,447.3,484.199,447.3C484.1,447.3,484.199,447.3,484.199,447.3z"/>
<path fill="#FFFFFF" stroke="#000000" stroke-miterlimit="10" d="M480.8,421.4c2.399-2.2,159.7-146.4,176.101-143.3
	c0,0-155.2,158.1-172.601,169.1h-0.101l0,0c0,0-14.101,5.1-25.899,12.398C455,449.7,480.699,421.5,480.8,421.4
	C480.699,421.5,480.8,421.5,480.8,421.4z"/>
<path fill="#FFFFFF" stroke="#000000" stroke-miterlimit="10" d="M473.699,405.1c26.5-43.199,132-213.7,146-212.898
	c0,0-100.8,187-138.899,229.3l0,0c0,0-25.8,28.2-22.5,38.3c-5.899,3.7-11.2,7.9-13.899,12.4c6.101-21.2,23.3-57.2,23.3-57.2l0,0
	C469.3,412.9,471.4,409.5,473.699,405.1z"/>
<path fill="#FFFFFF" stroke="#000000" stroke-miterlimit="10" d="M575.699,128.4c0,0-73.3,221.7-102,276.7
	c-3.699,6.102-5.899,9.602-6,9.9l0,0c0,0-17.3,36-23.3,57.2c-1.399,5-2.2,9.1-2.101,11.8l-2.7,0.7c-2.6-1.2-4.5-2.4-4.5-2.4
	l1.2-14.7c8.7-24.698,17.399-65.3,17.399-65.3l0,0c0,0,0,0,0-0.1c0.899-2.3,1.899-4.9,2.899-7.8l0,0
	C473.3,349.4,556.199,128.4,575.699,128.4z"/>
<path fill="#FFFFFF" stroke="#000000" stroke-miterlimit="10" d="M525.5,71.4c0,0-43,248-68.9,322.9l0,0
	c-1.699,4.5-2.699,7.2-2.899,7.8c0,0,0,0,0,0.102l0,0c0,0-8.699,40.6-17.399,65.3l6-76.5c1.601-5.7,3.2-13,4.7-21.601V369.3
	C462.6,297.8,512.4,74.3,525.5,71.4z"/>
<path fill="#FFFFFF" stroke="#000000" stroke-miterlimit="10" d="M433.4,482.3c-0.801-7.2-3.7-102.2-3.7-102.2
	c0.7-3.5,1.101-10.6,1.3-20.6c5-75.5,23-333,39.2-338.7c0,0-6.8,253.1-23.2,348.601v0.101c-3,13.601-4.699,21.601-4.699,21.601
	l-6,76.499l-1.2,14.7c-0.199,0.3-0.5,0.7-0.699,1L433.4,482.3z"/>
<path fill="#FFFFFF" stroke="#000000" stroke-miterlimit="10" d="M433.4,482.3l1,1c-5.301,6.9-11.101,5.3-11.101,5.3
	c1.3-6.8-4.5-99.199-4.5-99.199c0.899-11,0.601-27.699-0.601-47.899C417.3,253.6,416.3,74.6,423.3,66.4c0,0,9.3,220.4,7.7,293.1
	c-0.9,13-1.301,20.6-1.301,20.6S432.6,475.1,433.4,482.3z"/>
<path fill="#FFFFFF" stroke="#000000" stroke-miterlimit="10" d="M418.8,389.4c0,0,5.8,92.5,4.5,99.198c-1.2,1.802-2.8,2.302-4.5,2
	c-2.2-0.3-4.601-1.8-6.7-3.398c8.2-11.9-5.101-81.8-5.101-81.8V405.3C406.3,398.7,366.6,30.4,381.6,22.8
	c0,0,30.399,210.5,36.601,318.601C418.5,370.3,418.8,389.4,418.8,389.4z"/>
<line fill="none" stroke="#000000" stroke-width="0.25" stroke-miterlimit="10" x1="373.5" y1="475.3" x2="154.9" y2="430.9"/>
<line fill="none" stroke="#000000" stroke-width="0.25" stroke-miterlimit="10" x1="422.4" y1="415" x2="420.699" y2="87"/>
<line fill="none" stroke="#000000" stroke-width="0.25" stroke-miterlimit="10" x1="379.9" y1="449.7" x2="196.4" y2="278.2"/>
<line fill="none" stroke="#000000" stroke-width="0.25" stroke-miterlimit="10" x1="161.4" y1="347.5" x2="369.8" y2="456.9"/>
<line fill="none" stroke="#000000" stroke-width="0.25" stroke-miterlimit="10" x1="397.9" y1="438.4" x2="284.5" y2="145.6"/>
<line fill="none" stroke="#000000" stroke-width="0.25" stroke-miterlimit="10" x1="236.6" y1="196.8" x2="389" y2="447.4"/>
<line fill="none" stroke="#000000" stroke-width="0.25" stroke-miterlimit="10" x1="417.1" y1="421.5" x2="379.9" y2="30.7"/>
<line fill="none" stroke="#000000" stroke-width="0.25" stroke-miterlimit="10" x1="332" y1="99" x2="405.3" y2="430.9"/>
<line fill="none" stroke="#000000" stroke-width="0.25" stroke-miterlimit="10" x1="469.3" y1="475.8" x2="691" y2="430.9"/>
<line fill="none" stroke="#000000" stroke-width="0.25" stroke-miterlimit="10" x1="466" y1="449.7" x2="655.1" y2="278.2"/>
<line fill="none" stroke="#000000" stroke-width="0.25" stroke-miterlimit="10" x1="684.5" y1="347.5" x2="476.1" y2="456.9"/>
<line fill="none" stroke="#000000" stroke-width="0.25" stroke-miterlimit="10" x1="447.9" y1="438.4" x2="566.4" y2="145.6"/>
<line fill="none" stroke="#000000" stroke-width="0.25" stroke-miterlimit="10" x1="614.199" y1="196.8" x2="456.9" y2="447.4"/>
<line fill="none" stroke="#000000" stroke-width="0.25" stroke-miterlimit="10" x1="428.8" y1="421.5" x2="466" y2="30.7"/>
<line fill="none" stroke="#000000" stroke-width="0.25" stroke-miterlimit="10" x1="517.5" y1="87" x2="440.6" y2="430.9"/>
</svg>
