<?xml version="1.0" encoding="utf-8"?>
<!-- Generator: Adobe Illustrator 15.0.0, SVG Export Plug-In . SVG Version: 6.00 Build 0)  -->
<!DOCTYPE svg PUBLIC "-//W3C//DTD SVG 1.1//EN" "http://www.w3.org/Graphics/SVG/1.1/DTD/svg11.dtd">
<svg version="1.1" id="layer_x5F_www.ABC-color.com"
	 xmlns="http://www.w3.org/2000/svg" xmlns:xlink="http://www.w3.org/1999/xlink" x="0px" y="0px" width="567px" height="822px"
	 viewBox="0 0 567 822" enable-background="new 0 0 567 822" xml:space="preserve">
<path fill="#FFFFFF" stroke="#000000" stroke-miterlimit="10" d="M306,426.1c0.6-1.398,15.6-24.5,21.6-19.6c0,0-5.199,14.9-6.6,19.6
	c0,0,17.899-22.3,23-14.6c2.3,3.5-6.301,7.5-8.801,14.6c0.399-0.698,35.101-20.3,34.101-11.898c-0.399,3.1-4.8,11.1-5.399,16.2
	c-0.7,5.3,22.101-21.7,23.601-12.802c0.6,3.9-10.301,17.9-7.101,13.802c0,0,26.699-20.102,25.601-7.802c0,0-13.7,8.302-10.2,10.2
	c5.601,3,28.8-7.7,32.601-6.898c6,1.1-8.7,10.5-2.5,14.5c3.601,2.398,15.199-15.5,18.601-7.602c0,0-1.7,5.602-4.801,10
	c-3.199,4.4,10.601-8.898,13.5-5.2c0,0,4.899,2.4-1.101,12.4s13-8.9,16-4.4c3.101,4.5,0.801,6.802-2.899,10.7
	c-3.699,3.8,18.301-5.898,20.101,0.8c1.899,6.7-1.899,2.9-6.101,6.5c-4.3,3.602,16.5,0.102,17.399,4.602
	c0.9,4.5-0.899,1.6-4.899,5.3s16.801-2.3,14.399,3.6c-2.399,6-3.899,1-3.699,5.802c0.101,4,10.899,4.198,12.8,8.398
	c2,4.2-1.399,1.8-4.699,3.8c-3.301,2.102,17.1,9.602,14.6,26.302c0,0-23.5-30.5-28.3-22.9c0,0,1,17.1-9.399-12.7
	c0,0-14.3,10.9-17.7-9.398c0,0-6.2,17.698-12-4.4c0,0-12.899,17.2-21.601-6.2c0,0-1,23.9-11.5-9.5c0,0,0.2,34.301-12.8,1
	c0,0-3.601,25.801-12.7-2.8c0,0-6.199,27.7-26.3-6.6c0,0-2.2,34.1-15.601,0.198c0,0-0.2,26.102-15.601-2.5
	c0,0-0.101,29.5-14.399-0.8c0,0-4.7,49.8-26.6,2.4c0,0,3.898,44.7-10.399,2.3c0,0-6,48.5-15-3.2c-0.801-4.3,0.5-7.1,0.5-7.1
	s11.5-36.9,19.198-36c0,0,1.201,10.398-0.799,25.1c0,0,12.8-29.899,19.5-24.2C313.6,405,309.699,416.2,306,426.1z"/>
<path fill="#FFFFFF" stroke="#000000" stroke-miterlimit="10" d="M506.6,410.6c-3.1,2.301,15.7,8.601,13,25.601
	c0,0-21.199-29.4-25.8-21.5c0,0,0.5,17.3-8.399-12.3c0,0-3.801,17.3-6.301-4.4c0,0-16.1,13.9-21-8.1c0,0-1.8,18.6-8.399-1.3
	c0,0-4,19.3-11.5-3.9c0,0-1.399,24.2-10.5-9c0,0-0.601,34.6-12,1.6c0,0-12.399,22.9-23.899-3.5c0,0-6.7,24-12.2-4
	c0,0-2.8,34.5-14.5,1c0,0-0.699,26.4-14.399-1.7c0,0-10.601,44.2-22.899,5.7c0,0,4.3,45.3-15.399-2c0,0,2.601,44.9-9.7,2.9
	c0,0-7.499,42.8-14.8-9c4.9-29.1,29.399-35,33.3-34.8c0,0,0.301,8.2-3.3,18.4c0.3-0.7,25.3-27.5,29.899-20
	c2.101,3.4-0.2,11.1-2.7,18.5c0,0,15.9-27,17.101-15.8c0.5,4.4-4.699,17.8-5.101,18.3c-2.5,3.2,21.2-24.8,20.101-16.3
	c-0.399,3.1-4.699,11.4-5.399,16.6c-0.699,5.4,35.899-22.8,34.5-10.4c0,0-8.101,10.4-5,12.2c5.101,2.8,13.601-14,18.801-12.3
	c5.6,1.8-3.9,5.9-3.301,13c0.5,5.9,11.5-9.9,15.101-9.3c5.601,0.8-8.3,11.1-2.7,14.8c3.301,2.2,22.801-7.8,25.5-4.2
	c0,0,4.5,2.2-1.3,12.6s12.3-9.6,15-5.2c2.8,4.4,0.601,6.9-2.899,10.9s17.199-6.9,18.699-0.2c1.601,6.7-1.8,3-5.899,6.8
	c-4,3.8,15.399-0.7,16.101,3.8c0.8,4.5-0.899,1.7-4.601,5.6c-3.8,3.9,15.7-3.2,13.301,2.9c-2.4,6.1-3.601,1.2-3.601,6.1
	c0,4,10,3.6,11.8,7.8C512.8,410.7,509.699,408.4,506.6,410.6z"/>
<path fill="#FFFFFF" stroke="#000000" stroke-miterlimit="10" d="M329.5,276.4c0.699-2.3,6.699-22.6,11.3-19.3
	c0,0,7.3-5.3,11.601,0.6c1.899,2.6,0.601,9.2-0.801,15.5c0,0,11-23.6,12.801-14.4c0.699,3.6-2.601,15.1-2.801,15.6
	c-0.1,0.1-0.1,0.2-0.1,0.2c0.6-0.7,25.399-23.2,27-16c0.699,3.2-4.5,17.5-2.4,13.8c0,0,15.101-20.7,14.9-10.3c0,0-5.9,9.3-3.2,10.4
	c4.399,1.9,21.3-9.8,24.3-9.6c4.601,0.2-6,9.8-1.101,12.4c2.9,1.5,10.601-14.7,13.7-8.5c0,0-0.899,4.9-3.101,8.9
	c-2.199,4.1,7.5-8.7,9.899-5.9c0,0,3.801,1.4-0.1,10.5c-4,9.1,9.3-8.9,11.899-5.5c2.601,3.4,1,5.6-1.601,9.2s13.5-7.1,15.3-1.7
	c1.801,5.4-1.3,2.6-4.3,6.1s12.5-1.8,13.5,1.9c0.899,3.7,9.199,1.1,7.699,6.4c-1.5,5.3-2.899,1.3-2.5,5.3
	c0.301,3.3,8.5,2.2,10.2,5.5s-1,1.6-3.399,3.8c-2.399,2.1,14.199,15.1,13.199,29.3c0,0-20.199-31.8-23.398-24.9
	c0,0,1.699,14.2-7.801-9.5c0,0-1.8,14.6-5.5-3.1c0,0-4.699,13.9-8.399-2.7c0,0-9.399,13.2-16.3-2.7c0,0-1.801,16.2-9.7-2.3
	c0,0-7.2,22-18.899-4.3c0,0-1.301,21.9-9.801-0.9c0,0-13.699,20.3-20.3-2.4c0,0,0.2,28.7-11.8,2c0,0,1.3,21.8-11.9-0.3
	c0,0-7.699,32.3-20.6,1.6c0.3,1.2,8.899,41.5-10.4,4.5c0,0,5.4,36.9-7.699,3.2c0,0-1.899,37.6-11.601-4.5c-0.8-3.5-0.3-8.1-0.3-8.1
	s17.6-36.3,23-32.3C330,253.8,331.6,267.7,329.5,276.4z"/>
<path fill="#FFFFFF" stroke="#000000" stroke-miterlimit="10" d="M498.6,233.8c2,2.7-0.8,1.4-2.8,3.3s8.101,13.1,8.7,24.9
	c0,0-15.601-26.7-18-20.8c0,0-8.601,4.7-14-9.9c0,0-10.2,11.2-17.5-3.4c0,0-6.801,13.6-16.2-1.5c0,0-4.5,18.6-18.5-2.7
	c0,0-5.899,16.9-19,0.1c0,0-6.7,22.4-21.101,0.7c0,0-7.3,20.7-21.8,1.7c0,0,4.101,35.5-18.601,5.1c0,0-4.399,37.3-18.101,2.7
	c-1.101-2.9-0.699-5-0.699-5s7-27,12.6-27.5c0,0-1.8,7-1.1,17.5c0,0,11.699-23,16.8-20.3c0,0,2.2,11.3,1.899,14.7
	c0,0,18.101-21.9,20.8-14.4c1.101,3-0.8,12.7-1.1,13.1c-1.4,2.4,16.5-18.7,18.8-12.8c1,2.6,2.8,13.2,4.399,10
	c0,0,19.5-11.3,23.8-10.8c4.601,0.6-2.1,4.5-0.5,9.2c1.301,4,19-10.3,22.601-5.2c0,0-0.399,4.1-2,7.6s17.801-4.5,20.601-1.8
	c2.8,2.7,1.5,4.6-0.5,7.8c-2,3.2,22.7,1.1,24,4.1s-0.399,1.2-2.7,4.3C477.1,227.5,496.6,231.1,498.6,233.8z"/>
<path id="ABC-color.com" fill="#FFFFFF" stroke="#000000" stroke-miterlimit="10" d="M299.1,498.4c1.101-2.102,11.2-20.7,16.101-16
	c0,0-1.199,13.898-2.699,17.8c0.3-0.5,29.1-18.8,29.8-9.102c0.3,3.9-5.3,14.4-5.7,14.802c-2.5,2.3,28-16,26.601-8.9
	c-0.5,2.6-11.601,7.3-12.5,11.5c-0.899,4.5,30.2-16.1,30.899-8.4c0.301,3.4-10.3,18.5-7.199,15.4c0,0,18.3-10.3,23.199-8
	c5.399,2.4-4,4.4-3.699,10.5c0.3,5.1,11.5-6.5,14.899-5.5c5.399,1.6-8.5,8.1-3.2,12.2c3.101,2.398,14.601-11.602,17.2-4.5
	c0,0-1.801,4.6-5,8.1c-3.101,3.4,10.101-6.5,12.5-3c0,0,10.399,4.3,12.899,8.5s0.3,5.9-3.3,8.8c-3.5,2.9,16.8-3.1,18,2.9
	c1.3,6-1.801,2.3-5.9,4.9c-4,2.6,14.801,1.898,15.301,5.898s10.5,3.8,8,8.7c-2.5,4.8-3.5,0.4-3.7,4.6c-0.101,3.4,9.5,4.802,11,8.602
	s-1.399,1.398-4.5,2.8c-3.101,1.4,11.2,13.8,7.899,27.8c0,0-15.6-32.398-20.399-26.398c0,0-0.199,14.8-7.601-11.9
	c0,0-13.5,7.8-15.3-10c0,0-6.7,14.5-10.5-5.1c0,0-12.7,13.3-19-7.7c0,0-2.399,20.398-9.7-9.4c0,0-16.399,21.101-22.8-4.399
	c0,0-11.7,22.301-21.7-2.101c0,0-5.5,22.5-15.399-8c0,0-1.8,22.4-13.8-3.8c0,0-1.899,25.2-12.899-2.2c0,0-1,32.5-11.3-2.399
	c0,0-12.101,40.199-22.201,2.301c0,0-8.399,40.898-13.3-4.4c-0.399-3.8,0.9-6.1,0.9-6.1s4.5-28.301,19.399-32.301
	c0,0,7.199-4.601,12.699,0.801C303.199,475.8,302.9,490.3,299.1,498.4z"/>
<path fill="#FFFFFF" stroke="#000000" stroke-miterlimit="10" d="M478.5,180.1c1.5,2.2-0.601,1.2-2.2,2.8
	c-1.601,1.6,14.899,13.6,15.2,23.6c0,0-20.601-25.1-22.5-20c0,0-6.801,4.1-10.9-8.2c0,0-8.199,9.5-13.6-2.6c0,0-5.5,11.5-12.7-1.1
	c0,0-3.8,15.8-14.399-2.1c0,0-4.899,14.3-14.899,0.3c0,0-5.601,19-16.5,0.9c0,0-6,17.6-17.101,1.7c0,0,2.8,29.9-14.601,4.5
	c0,0-3.899,31.6-14.2,2.5c-0.899-2.4-0.5-4.2-0.5-4.2s2-25.2,6.399-25.6c0,0,2.301,8.3,2.7,17c0,0,9.5-19.6,13.399-17.4
	c0,0,1.601,9.5,1.301,12.4c0,0,14.399-18.7,16.399-12.4c0.8,2.5-0.801,10.7-1,11c-1.101,2.1,17.3-17.3,19-12.4
	c0.8,2.2-2.101,12.5-0.801,9.8c0,0,15.4-9.8,18.7-9.4c3.601,0.5-1.7,3.8-0.5,7.8c1,3.3,15-8.9,17.7-4.7c0,0-0.301,3.5-1.7,6.4
	c-1.3,3,14-4,16.2-1.7c2.199,2.3,1.101,3.9-0.5,6.6c-1.601,2.7,17.8,0.7,18.699,3.2c0.9,2.5-0.3,1-2.199,3.7
	C461.699,175.1,476.9,177.9,478.5,180.1z"/>
<path fill="#FFFFFF" stroke="#000000" stroke-miterlimit="10" d="M467.3,133.2c-1.399,1.6,11.3,13,11.2,22.9
	c0,0-15.4-24.1-17.101-19c0,0-5.601,4.3-8.301-7.7c0,0-6.899,9.8-10.8-2.1c0,0-4.8,11.7-10-0.6c0,0-3.601,15.8-11.399-1.5
	c0,0-4.399,14.4-11.899,0.9c0,0-5.2,19.1-13.2,1.5c0,0-5.399,17.7-13.601,2.4c0,0,1,29.5-11.8,5.1c0,0-4.301,31.5-11.399,3.1
	c-0.601-2.4-0.2-4.2-0.2-4.2s2.601-25.1,6.101-25.6c0,0,1.5,8.1,1.5,16.8c0,0,8.3-19.8,11.3-17.8c0,0,0.899,9.3,0.5,12.3
	c0,0,12.2-19.1,13.601-13c0.5,2.4-1.101,10.6-1.2,11c-1,2.1,14.4-17.9,15.601-13c0.5,2.1-2.199,12.5-1,9.7
	c0,0,12.601-10.3,15.301-10c2.899,0.3-1.5,3.8-0.7,7.7c0.601,3.3,12.3-9.4,14.3-5.4c0,0-0.399,3.5-1.601,6.4
	c-1.199,3,11.301-4.5,12.9-2.4c1.699,2.2,0.8,3.8-0.7,6.5c-1.399,2.7,14.101,0,14.8,2.4c0.7,2.5-0.3,1-1.899,3.7
	c-1.601,2.7,10.5,4.8,11.601,7C470.4,132.5,468.699,131.5,467.3,133.2z"/>
<path fill="#FFFFFF" stroke="#000000" stroke-miterlimit="10" d="M305.3,576.5c1.601,3.5,2,29.5-12.1,0c0,0-11.4,31.9-22.301-4.6
	c-0.899-3.102,0-4.802,0-4.802S275,544,285,545.9c0,0,2.3,7,1.398,16.698c0,0,10-21.1,16.201-16.1c0,0-3.301,9.7-6,15.9
	c0.399-0.801,11.6-14.2,17.1-9.9c0,0-3,9.3-4,12.3c0,0,14.399-14.3,19.301-8.3c2.199,2.7-0.801,7-2.5,11.5c0,0,15.5-8.5,22-2.9
	c1.5,1.302-0.7,6-0.9,9.4c-0.3,3.5,15.601-13,17.4-6.8c0.8,2.7-5.4,12.3-2.9,10.1c0,0,24.7-10.398,24.4-2.3c0,0-8.9,7.4-5.7,9.2
	c5.101,2.899,14.2-5,17.601-3.9c5.399,1.7-3.801,5.602,1.8,9.3c3.3,2.2,10.3-9.6,13.8-3.698c0,0-1.5,6-4,8.5s13.6-3.801,16.3-0.9
	c0,0,4.399,2.4-0.2,8.3c-4.699,5.9,8.899-1.6,13.899,0.102c7,2.5,4.5,9.198,1,11c0,0,39.5,46.5-10.5,7.698c0,0-15.5,12.5-20.5-9.198
	c0,0-6,10.8-15-6.5c0,0-2.6,18.698-16-6c0,0-1.8,16.3-11.5-4.5c0,0-17.699,14.1-25.1-5.9c0,3.5,1.8,14.7-13.301-7.1
	C329.1,581.9,319.9,604.8,305.3,576.5z"/>
<path fill="#FFFFFF" stroke="#000000" stroke-miterlimit="10" d="M443.4,85.1c-1,1.6,6.899,3,7.601,4.3c0.8,1.3-0.301,0.7-1.2,1.7
	s7.5,8,7.5,14c0,0-10.3-14.8-11.399-11.7c0,0-3.601,2.6-5.5-4.8c0,0-4.399,5.9-7-1.4c0,0-3,7.1-6.601-0.4c0,0-2.2,9.6-7.5-1
	c0,0-2.8,8.8-7.7,0.4c0,0-3.199,11.6-8.601,0.8c0,0-3.399,10.7-8.899,1.3c0,0,0.899,18-7.699,3c0,0-2.5,19.1-7.4,1.8
	c-0.399-1.5-0.199-2.5-0.199-2.5s1.5-15.3,3.8-15.6c0,0,1.101,4.9,1.101,10.3c0,0,5.3-12,7.2-10.7c0,0,0.699,5.7,0.5,7.5
	c0,0,7.8-11.6,8.8-7.8c0.399,1.5-0.601,6.5-0.7,6.7c-0.6,1.3,9.301-10.8,10.101-7.8c0.399,1.3-1.3,7.6-0.601,5.9c0,0,8.2-6.2,9.9-6
	c1.899,0.2-1,2.3-0.4,4.7c0.5,2,7.9-5.6,9.301-3.1c0,0-0.2,2.1-1,3.9c-0.7,1.8,7.3-2.7,8.399-1.3c1.101,1.3,0.5,2.3-0.399,4
	c-0.899,1.6,9.199,0.1,9.699,1.6C445.1,84.4,444.4,83.5,443.4,85.1z"/>
<path fill="#FFFFFF" stroke="#000000" stroke-miterlimit="10" d="M429.3,58.7c-0.7,1.1,4.3,2,4.7,2.9c0.5,0.9,3.8,6.7,3.699,11
	c0,0-6.199-10.2-7-8.1c0,0-0.399,5.3-3.399-3.3c0,0-6.399,4.2-8.5-1c0,0,0,7.7-9.5-0.2c0,0-2.101,9.5-11,1.7c0,0-6.8,15.7-9.601,3.6
	c-0.199-1-0.101-1.8-0.101-1.8s6.601-12.3,7.801-11.4c0,0,0.3,4,0.199,5.2c0,0,11-8.6,11.5-6.5c0.2,0.9-0.899,5.3-0.5,4.1
	c0,0,11.101-5.1,11.9-3.4c0,0-0.2,1.5-0.7,2.8c-0.5,1.3,10.8,1.7,11.101,2.7C430.4,58.1,430,57.5,429.3,58.7z"/>
<path id="www.ABC-color.com" fill="#FFFFFF" stroke="#000000" stroke-miterlimit="10" d="M416.1,24.9c2.5-0.2,2.2,6.8-1.1,6.6
	c-3.301-0.1-8,3.4-12.301,1.4c-4.3-2,5.801-6.9,5.801-6.9S413.199,25.1,416.1,24.9z"/>
<path fill="#FFFFFF" stroke="#000000" stroke-miterlimit="10" d="M413.9,18c0,0,4.601-0.5-5.5,6.3c-7.899,5.3-6.801-2.3-6.801-2.3
	S405.5,14.4,413.9,18z"/>
<path fill="#FFFFFF" stroke="#000000" stroke-miterlimit="10" d="M405.6,38.5c0,0,8-5.7,8.4-4.3c0.199,0.6-0.601,3.6-0.301,2.8
	c0,0,8.101-3.3,8.7-2.1c0,0-0.101,1-0.5,1.9c-0.301,0.9,8,1.3,8.199,2c0.2,0.7-0.1,0.3-0.6,1.1c-0.5,0.8,3.199,1.4,3.5,2.1
	c0.3,0.6,2.899,4.6,2.899,7.5c0,0-4.7-7-5.2-5.6c0,0-0.199,3.6-2.5-2.3c0,0-4.699,2.8-6.3-0.8c0,0.2-0.101,5.1-7-0.2
	c0,0-1.399,6.5-8.101,1.1c0,0-4.8,10.6-7,2.3c-0.2-0.7-0.101-1.2-0.101-1.2s4.7-8.3,5.7-7.7C405.4,34.9,405.699,37.6,405.6,38.5z"/>
<path fill="#FFFFFF" stroke="#000000" stroke-miterlimit="10" d="M401.1,29.5C386,53.3,180,389.7,304.9,777.9
	c2.3,7.3,13.899,20.3,16.5,27.6l-19.301-5.7C302,799.8,151.5,411.5,401.1,29.5z"/>
<path fill="#FFFFFF" stroke="#000000" stroke-miterlimit="10" d="M392.699,25.1c-0.101-2.5,9-9.2,5,1.9
	c-2.399,6.6-3.199,7.1-3.199,7.1s-4.5-1.7-5.7-5.9C386.699,21.2,392.8,29.2,392.699,25.1z"/>
<path fill="#FFFFFF" stroke="#000000" stroke-miterlimit="10" d="M377.5,55.8c0,0,0,0.8-0.4,1.7c-5,11.4-8.699-5.3-8.699-5.3
	c-10.2,6-10.5-3.7-10.5-3.7c-10.801,6-9.399-1.6-9.399-1.6c-3,4.7-8.601-0.5-8.601-0.5C335.3,54.3,336,49,336,49
	c-0.301-2.3-8.301,6.6-8.301,6.6c0.7-4.2,5.101-9.3,5.7-10.1c0.601-0.8,5.601-0.8,5.199-2c-0.399-1.3-0.899-0.7-0.5-1.7
	c0.5-1,11.601,0.7,11.4-0.6c-0.2-1.4-0.2-2.8-0.2-2.8c1.101-1.5,11,5.5,11,5.5c0.3,1.3,0-3.3,0.3-4.2
	c0.801-1.9,10.101,8.5,10.101,8.5c0.101-1.3,1.101-5.1,1.101-5.1C373.199,42.5,377.5,55.8,377.5,55.8z"/>
<path fill="#FFFFFF" stroke="#000000" stroke-miterlimit="10" d="M362,31.4c-3.4,5.3-2.9,1.8-2.9,1.8c-0.199-1.5-6.1,4.5-6.1,4.5
	c0.5-2.8,3.699-6.3,4.199-6.9c0.5-0.5,4.2-0.5,3.801-1.4c-0.301-0.9-0.7-0.5-0.301-1.2c0.301-0.7,8.601,0.5,8.399-0.4
	c-0.199-0.9-0.1-1.9-0.1-1.9c0.8-1.1,8.199,3.7,8.199,3.7c0.2,0.9,0-2.2,0.2-2.8c0.601-1.3,7.5,5.8,7.5,5.8
	c0.101-0.9,0.8-3.5,0.8-3.5c1-0.4,4.101,8.6,4.101,8.6s0,0.5-0.3,1.2c-3.7,7.7-6.5-3.6-6.5-3.6c-7.601,4.1-7.801-2.5-7.801-2.5
	c-8,4.1-7-1.1-7-1.1C366.1,35,362,31.4,362,31.4z"/>
<path fill="#FFFFFF" stroke="#000000" stroke-miterlimit="10" d="M359.1,64.6c2.4,0.8,1.4,16.2,1.4,16.2s0.1,1.1-0.601,2.5
	c-8.101,16.1-7.601-3.3-7.601-3.3c-11.7,13-7.601-4.6-7.601-4.6c-7.399,8.1-9.2-3.2-9.2-3.2c-7.5,9.5-9-2.6-9-2.6
	c-6.699,7.2-8.199-2.1-8.199-2.1c-7.399,9.4-8.101-0.6-8.101-0.6c-5.001,6.6-7.001-1-7.001-1c-4,6.6-7.698-0.2-7.698-0.2
	c-3.2,6.8-6.601,3.5-6.601,3.5c-0.601-3.3-14,9.1-14,9.1c1-6,11.101-11.1,10.299-12.3c-0.799-1.2-2-0.8-1-2
	c1-1.1,9.602-0.8,8.802-2.6c-0.802-1.8-1.601-1.1-0.899-2.5c0.799-1.4,11.199,2.3,10.6,0.5c-0.7-1.8-1.1-2.9,0.3-4s9.2,5.1,8.7,3.1
	c-0.5-1.9-0.399-4.1-0.399-4.1c1.8-2.2,8.5,7,9.3,5.1c1-2.3-1.601-4.9,0.399-4.8c1.899,0.2,9.5,8,9.5,8c0.5,1.8-0.199-4.8,0.399-6
	c1.4-2.8,9.801,11.3,9.4,9.9c-0.101-0.2-0.301-5.4,0.399-6.8c1.601-3.5,8,9.6,8,9.6c0.101-1.8,1.8-7.3,1.8-7.3
	c2.301-0.8,5.899,12.2,5.899,12.2C357.1,69.3,359.1,64.6,359.1,64.6z"/>
<path fill="#FFFFFF" stroke="#000000" stroke-miterlimit="10" d="M339.8,114.2c0,0,0.3,1.8-0.5,4.1c-9.101,27.8-11.2-3.9-11.2-3.9
	c-14.5,23.5-11.399-5.9-11.399-5.9c-9.3,14.7-13.5-3.3-13.5-3.3c-9.199,16.9-12.999-2.4-12.999-2.4c-8.4,13-11.801-1.7-11.801-1.7
	c-9,16.7-11.5,0.7-11.5,0.7c-6.1,11.8-10.1-0.2-10.1-0.2c-4.7,11.5-10.9,3.3-10.9,3.3c-3.6,11.8-8.9,7.1-8.9,7.1
	c-1.4-5.2-10.8,8.2-10.8,8.2c0.6-9.9,6.399-10.7,5.199-12.4c-1.199-1.7-3-0.9-1.699-3c1.3-2.1,13.399-3.3,12.1-6.1
	c-1.4-2.8-2.4-1.4-1.6-3.9c0.899-2.4,16.199-0.6,14.899-3.4c-1.2-2.8-2-4.5-0.2-6.6c1.801-2,13.7,6.4,12.7,3.3
	c-0.899-3.1-1.1-6.5-1.1-6.5c2.3-3.9,13,9.6,13.899,6.4c1.101-3.9-3-7.7-0.1-7.8c2.6-0.1,14.5,11.1,14.5,11.1c1,2.8-1-7.6-0.3-9.8
	c1.5-4.8,15.5,16.3,14.6,14.1c-0.1-0.4-1.199-8.6-0.399-11.1C310.5,78.4,321.3,98.4,321.3,98.4c-0.101-2.9,1.399-12.2,1.399-12.2
	c3.2-1.8,10,18.5,10,18.5c0.601-8.7,2.7-16.6,2.7-16.6C339,89,339.8,114.2,339.8,114.2z"/>
<path fill="#FFFFFF" stroke="#000000" stroke-miterlimit="10" d="M323.4,153.8c0,0,0.3,1.8-0.5,4.2
	c-9.899,29.1-12.801-2.2-12.801-2.2c-16.1,25.6-13-4.3-13-4.3c-10.3,16.1-15.3-1.3-15.3-1.3c-10.2,18.3-14.8-0.5-14.8-0.5
	c-9.3,14.2-13.4,0-13.4,0c-9.899,18-13,2.4-13,2.4c-6.7,12.7-11.399,1.3-11.399,1.3c-5.2,12.2-12.301,2.9-12.301,2.9
	c-3.9,12.3-9.9,8.4-9.9,8.4c-1.601-5-16.7,10.2-16.7,10.2c0.5-10,11.7-12.1,10.2-13.6c-1.4-1.5-3.4-0.5-2-2.7
	c1.399-2.2,15.2-5.3,13.6-7.9c-1.6-2.6-2.8-1.1-1.899-3.6c0.899-2.5,18.399-0.9,16.899-3.5c-1.399-2.6-2.3-4.2-0.3-6.5
	c2-2.3,15.6,4.3,14.5,1.4c-1.1-2.9-1.4-6.4-1.4-6.4c2.601-4.2,14.9,7.7,15.9,4.3c1.1-4-3.6-7.2-0.3-7.8c3-0.5,16.7,9,16.7,9
	c1.199,2.7-1.2-7.5-0.5-9.7c1.6-5,17.8,14,16.8,12c-0.2-0.3-1.5-8.5-0.7-11c2-6.3,14.5,12.1,14.5,12.1
	c-0.2-2.9,1.399-12.4,1.399-12.4c3.601-2.3,11.7,17,11.7,17c0.5-8.8,2.8-17,2.8-17C322.1,128.8,323.4,153.8,323.4,153.8z"/>
<path fill="#FFFFFF" stroke="#000000" stroke-miterlimit="10" d="M306.8,197.9c0,0,0.8,2,0.2,5.1c-7.602,36.5-18.3,0.5-18.3,0.5
	c-17.101,33.8-19.2-1.8-19.2-1.8c-11,21.3-21.7,2.1-21.7,2.1c-10.3,23.8-20.9,2.9-20.9,2.9c-10,18.9-18.699,3.2-18.699,3.2
	c-10.101,23.5-17.7,5.9-17.7,5.9c-6.7,16.5-15.7,4.3-15.7,4.3c-4.6,15.6-16.6,6.3-16.6,6.3c-2.801,15.3-12.101,12.2-12.101,12.2
	c-3.3-5.4-20.3,14.9-20.3,14.9c-1.5-11.8,12.8-15.9,10.5-17.3c-2.3-1.5-4.8,0.2-3.3-2.7c1.5-3,20.1-9.8,17.3-12.5
	c-2.8-2.6-4.2-0.6-3.4-3.8c0.801-3.2,25.5-5.5,22.9-8.2c-2.6-2.7-4.2-4.4-1.9-7.6c2.301-3.2,22.801,1.3,20.601-1.8s-3.3-7.1-3.3-7.1
	c2.699-5.6,22.5,5.4,23.1,1.3c0.7-5-6.6-7.6-2.1-9c4.1-1.3,25.3,6.5,25.3,6.5c2.2,2.9-3.3-8.5-2.8-11.2c1.199-6.2,28,12.1,26.1,10
	c-0.3-0.4-3.9-9.6-3.3-12.7c1.399-7.9,23,10.6,23,10.6c-0.9-3.4-0.7-14.8-0.7-14.8c4.5-3.5,20,17.1,20,17.1
	c-1.1-10.4,4.899-15.9,4.899-15.9C304.199,173.6,306.8,197.9,306.8,197.9z"/>
<path fill="#FFFFFF" stroke="#000000" stroke-miterlimit="10" d="M284.7,269.1c0,0,0.698,2.5-0.101,6
	c-9.899,42.1-10.899,1.1-10.899,1.1c-13,33.8-17.301-6.1-17-7.4c-12.601,30.8-30.801-0.9-30.801-0.9c-11.8,26.8-11.1-1.8-11.1-1.8
	c-6.5,22.7-9.7,2.5-9.7,2.5c-11.1,20.9-25.5,5.2-25.5,5.2c-9.7,26.7-20.5,3-20.5,3c-6.8,15.9-15.5,2.9-15.5,2.9
	c-3.8,16.5-13.3,6-13.3,6c-9.3,23.7-7.5,9.6-7.5,9.6c-3-6.9-17.8,9.5-17.8,9.5c-0.7-14.1,10.399-11.7,8.2-13.7
	c-2.2-2.1-4.801-0.4-3.101-3.7c1.7-3.3,9.4-2.3,9.7-5.6c0.4-4-1,0-2.3-5.3c-1.3-5.2,23-5,20.1-8.5c-2.899-3.5-5.7-0.6-4-6
	c1.7-5.4,16.8,5,14.5,1.4c-2.399-3.6-3.899-5.7-1.399-9.2c2.5-3.4,14.8,14.3,11.199,5.3c-3.6-9,0-10.4,0-10.4
	c2.301-2.7,16.601,6.8,19.301,5.2c4.699-2.7-5.2-12.1-0.9-12.4c2.8-0.2,10,13.5,10.9,8.7c1.1-5.8-6-9.9-1.5-10.9
	c4.199-1,14.199,9.7,14.199,9.7c2,3.7,0.7-6.8,1.5-10c1.601-7.2,21,16.7,20.801,12.2c-0.101-4.3-2.801-11.4-2.801-14
	C219.3,231,243,251.1,243,251.1c-1.3-6.2-2.4-12.7-0.601-15.4c4-5.7,20.9,16.6,21.4,18.4c-1.9-8.7-0.2-22.6-0.2-22.6
	c5.2-4.1,10,2.2,10,2.2C279.4,233.9,284.7,269.1,284.7,269.1z"/>
<path fill="#FFFFFF" stroke="#000000" stroke-miterlimit="10" d="M224.9,317c-1.399-4.1,3.2-16.1,3.2-16.1
	c4.5-4,18.4,17.5,18.9,19.1c-2.601-12.3,0-20.2,0-20.2c6.2-0.6,15.7,29.8,15.7,29.8s1.199,2.4,0.899,6c-3.8,43.1-12,2.4-12,2.4
	c-8.6,34.9-20.2-5.4-20.2-5.4c-8.8,32.2-21.899,1.1-21.899,1.1c-10.601,23.6-12.5,1.8-12.5,1.8c-8.5,28.1-23.101,3.1-23.101,3.1
	c-8.8,22.2-10.5,1.4-10.5,1.4c-5.5,23.7-10.199,2.1-10.199,2.1c-8.301,27.6-19.2,6.7-19.2,6.7c-5.4,19.4-17.101,4.8-17.101,4.8
	C113.6,372,101,364,101,364c-1.101,18.1-7.5,0.7-7.5,0.7c-6.3,24.7-6.7,10.4-6.7,10.4c-4.5-6.5-22.2,20.5-22.2,20.5
	c-3.2-14,13.601-21.8,10.8-23.5c-2.8-1.7-5.399,0.2-4.1-3.3c1.299-3.5,10-3.4,9.9-6.8c-0.2-4-1.101,0.1-3.4-4.9
	c-2.4-5,14.9,0.4,11.5-2.8c-3.5-3.2-4.8-0.8-4.3-4.5c0.399-3.8,17.6-0.5,13.899-3.6c-3.699-3.1-6.5,0.1-5.399-5.5
	c1-5.6,19.6,3,16.3-0.3c-3.3-3.3-5.3-5.3-3.1-9c2.199-3.7,25.899,1.9,23-1.8c-2.9-3.8-4.601-8.5-4.601-8.5
	c2.3-6.5,12.9,8.6,15.7,6.7c4.8-3.2-7.9-11.4-3.1-12.2c3.1-0.5,13.5,12.2,13.6,7.4c0.2-5.9-0.9-11.3,3.9-12.9
	c4.5-1.5,21.899,10.3,21.899,10.3c2.9,3.4-4.899-10.1-4.6-13.4c0.6-7.3,18.899,17.3,18,12.8c-0.9-4.2-5-11-5.5-13.6
	c-1.4-7,20.7,15.6,18.3,13c-0.4-0.4-5.6-11.4-5.4-15.1c0.5-9.2,15.301,12.1,15.7,12.7c-2.5-6-4.899-12.4-3.3-15.2
	C213.6,295.3,224.3,315.8,224.9,317z"/>
<path fill="#FFFFFF" stroke="#000000" stroke-miterlimit="10" d="M222.7,458.7c-3.801-8.102-0.601-22.5-0.601-22.5
	c5.5-5.5,10.9,22.3,11.4,23.898c-2.7-12.3,1.7-22.8,1.7-22.8c6.899-1.6,15.399,30.3,15.399,30.3s1.3,2.302,0.9,6.102
	c-4.9,45.3-13.3,4.398-13.3,4.398c-10.101,37.9-9.4-0.898-9.4-0.898c-17,43.6-12.8-1.5-12.8-1.5c-10.2,34.8-11.3,2.398-11.3,2.398
	c-11,27.5-12.9,2.2-12.9,2.2c-12,26.2-13.8,3.8-13.8,3.8c-9.9,30.5-14,1.5-14,1.5c-4.101,24.802-11.5,5.4-11.5,5.4
	c-10,24.4-11.601,3.1-11.601,3.1C134.5,519.6,129.7,497.9,129.7,497.9c-9.601,30-21.301,10-21.301,10
	c-6.3,21-10.899,5.198-10.899,5.198c-5.601,18.102-8,2.5-8,2.5C73.6,548,69.7,526,69.7,526c-1.601,18.9-5.9,4.8-5.9,4.8
	c-7.4,26.7-7.6,11.9-7.6,11.9c-4.801-6-26.9,22.5-26.9,22.5c-3.3-14,17.4-22.5,14.4-23.9c-3.101-1.398-6,1.102-4.5-2.8
	c1.5-3.8,11.1-5.1,11-8.6c-0.101-4.2-1.2,0.3-3.7-4.602c-2.5-4.8,16.5-1.898,12.7-4.7c-3.801-2.8-5.2,0-4.7-4s19.399-3.3,15.3-5.898
	c-4-2.602-7.2,1.1-5.9-4.9c1.301-6,21.5,0,18-2.898c-3.5-2.9-5.699-4.602-3.3-8.802c2.5-4.198,20.601,9.9,14.601,2
	c-6-7.898-1.801-10.5-1.801-10.5c2.4-3.5,15.601,6.4,12.5,3c-3.1-3.398-5-8.1-5-8.1c2.601-7.2,14.101,6.9,17.2,4.5
	c5.3-4.1-5.1-11.6,0.2-13.2c3.4-1,16.3,7.5,21.1,4.3c3-2-6.8-8.5-6.8-8.5c-1.8-10.398,25.601,3.9,25.601,3.9
	c3.1,3.1-5.2-9.7-4.9-13.1c0.8-7.7,20.5,14.898,19.6,10.398c-0.899-4.3-2.199-13-0.5-15.1c5.9-7.2,26,8.3,26,8.3
	c-2.6-5.9-5.199-12.1-3.3-15.3c4-7,15.8,13.2,16.101,13.7c-1.5-3.9-2.7-17.802-2.7-17.802C211.5,438,221.6,456.7,222.7,458.7z"/>
<path fill="#FFFFFF" stroke="#000000" stroke-miterlimit="10" d="M176.5,393c-1.5-2.3-3-10.4-3.2-14.5c-0.7-11.1,23.2,16.4,23.7,17
	c-3.7-6.8-0.4-17.3,1-21c3.1-8,23.7,13.6,24.5,15c-7.4-12.2-7.4-22.9-7.4-22.9c4.9-6.2,18,0.6,18,0.6c18.3,10.1,17.5,31.3,17.5,31.3
	s2.7,2.7,1.8,7c-7.899,41.8-20.5,21.7-21.5,6c-21.6,36.4-15.5-4.3-15.5-4.3c-5.5,40-24.699,4.898-24.699,4.898
	c-8.7,30-13.9,4.2-13.9,4.2c-5.8,35-14.5,1.5-14.5,1.5c-0.6,28.5-11.3,6-11.3,6c-6.9,28-23,7.602-23,7.602
	c-5.601,34.398-12.101,0.5-12.101,0.5c-3.199,34.3-8.8,10.698-8.8,10.698c-3.5,24.102-10.7,5.802-10.7,5.802
	c-3.1,20.8-18.3,8.398-18.3,8.398c0.8,20.5-9.1,5.9-9.1,5.9c1.2,21.8-11.7,19-11.7,19c-6-7-22.5,29-22.5,29
	c-5.5-16.2,12.6-29.102,9.2-30.8c-3.5-1.7-6.101,1.1-5.101-3.302c1-4.398,10.9-5.698,10.301-9.698c-0.801-4.802-1.2,0.3-4.601-5.4
	c-3.399-5.6,17-2,12.601-5.2c-4.4-3.2-5.5-0.1-5.5-4.7c0-4.6,19.899-3.398,15.199-6.5C62.2,442,59.5,446.2,60,439.4
	c0.399-6.9,22.6,0.398,18.5-3c-4.101-3.4-6.7-5.4-4.8-10.2c2-4.8,23.199,11.8,15.699,2.5S86,416.5,86,416.5
	c2-3.9,22.899,2.5,25.8-0.2c4.9-4.7-10.6-12.3-5.2-14.1c3.4-1.101,17,12.5,16.5,6.6c-0.6-7.1-10.8-9.5-5.5-12.2
	c4.9-2.5,16,12.5,20.601,8.9c2.8-2.2-0.2-9.8-0.2-9.8c-3.5-12,23.399,9.6,21.8,4.399c-1.6-4.899-10.8-13.899-0.9-16.8
	C165.5,381.1,173.5,390.1,176.5,393z"/>
<path fill="#FFFFFF" stroke="#000000" stroke-miterlimit="10" d="M225.4,531.7c-2.5-7.9-0.699-22.602-0.699-22.602
	C230.9,502.9,235.6,532.2,235.6,532.2c-0.8-12.3,1.4-25,1.4-25c6.8-2.2,14,31,14,31s0.899,2.2,0,6c-11,46.2-13.3,5.6-13.3,5.6
	c-15,39.2-8.9-0.1-8.9-0.1c-22,44.8-12.3,0.898-12-0.4c-14.7,36-11.1,3.3-11.1,3.3C191.3,581.3,193,556,193,556
	c-15.2,27.5-27.4,7.8-27.4,7.8c-7.399,25.4-11.8,6.4-11.8,6.4c-13,25.5-22.8,9-22.8,9c-13.4,31.1-13.3,10.6-13.3,10.6
	c-9,21.8-10.9,7-10.9,7c-6.4,20.102-12.5,6.8-12.5,6.8C83,621.2,82,607.4,82,607.4c-3.8-5.7-19.9,11.198-22.7,10.1
	c-2.8-1.2,4.4-8.5,6.3-12.5c2-4,11.8-8.9,9.3-12.1c-4.5-5.9-5.6-1.802-4.5-5.9c1.101-4.1,26.801-2.4,23.801-5s-7.801-3.9-4.801-8.3
	c3-4.5,21.9,6.8,19.5-1.7c-5.1-17.7,7.601-2.1,10.801-4.8c5.6-4.602-6.7-10-1.301-12c3.4-1.3,12.5,9.398,13.5,4.3
	c1.101-6.2-7.5-7.4-2.1-10.3c5-2.7,11.6,9.6,16.7,5.898c3.1-2.3-3.7-9.198-3.7-9.198c-0.3-10.302,17.3,4.3,17.3,4.3
	c2.5,2.898-3.6-9.4-2.8-12.8c1.8-7.802,24.8,11.398,22.7,9.3c-0.4-0.3-3.8-10.8-3-14.7c2.1-9.9,22.899,5.4,22.899,5.4
	c-1.699-5.7-3.3-11.802-1-15.2c4.9-7.602,13.4,12.5,13.4,12.5c-0.9-3.8-0.1-17.8-0.1-17.8C217.6,511.5,224.8,530.1,225.4,531.7z"/>
<g>
	<path d="M292.4,296.6c5.8-3.3,11.899-5.9,18.199-8.1c6.2-2.2,12.601-4,19.101-5.5c12.899-2.9,26.2-4.4,39.399-4.6
		c26.5-0.4,52.9,4.3,78,12.7c-12.6-4.1-25.399-7.3-38.5-9.4c-13-2.1-26.3-3.1-39.5-2.8c-13.199,0.3-26.399,1.9-39.199,4.9
		c-6.399,1.5-12.801,3.4-19,5.6c-6.2,2.3-12.301,4.9-17.899,8.2L292.4,296.6z"/>
</g>
<g>
	<path d="M277.8,367.6c8.8-2.1,17.7-3.7,26.601-5c8.899-1.3,17.899-2.3,26.899-2.9c18-1.3,36.101-1.3,54,0.4
		c17.899,1.7,35.8,5.1,52.899,10.8c17.101,5.7,33.399,13.8,47.899,24.6c-14.5-10.7-30.899-18.7-48-24.4
		c-17.101-5.6-34.899-9-52.8-10.6c-17.899-1.6-36-1.5-53.899-0.2c-9,0.7-17.899,1.7-26.8,3c-8.899,1.4-17.801,3-26.5,5.1
		L277.8,367.6z"/>
</g>
<g>
	<path d="M268.1,442.9c8.9-2.4,17.9-3.802,27-5c9.101-1.102,18.2-1.7,27.4-2c18.3-0.4,36.6,0.8,54.699,3.6
		c18.101,2.8,35.899,7.2,53.2,13.2c17.3,5.898,34.101,13.398,50.101,22.2c-16.101-8.7-32.9-16.102-50.2-21.9
		c-17.3-5.9-35.101-10.2-53.2-12.9c-18.1-2.698-36.399-3.898-54.6-3.398c-9.101,0.3-18.2,0.898-27.3,2.1
		c-9,1.2-18.101,2.7-26.9,5.102L268.1,442.9z"/>
</g>
<g>
	<path d="M264.9,506.7c8-0.3,16,0,23.9,0.5c8,0.5,15.899,1.3,23.8,2.3c15.801,2.1,31.5,5.2,46.899,9.4
		c30.801,8.3,60.5,20.698,87.5,37.698c-27.1-16.8-56.8-29.1-87.6-37.198c-15.4-4.102-31-7.102-46.801-9.102
		c-7.899-1-15.8-1.8-23.8-2.2c-7.9-0.398-15.9-0.698-23.8-0.398L264.9,506.7z"/>
</g>
<g>
	<path d="M266.2,567.5c14.899,1.5,29.698,3.6,44.499,6.1s29.399,5.4,44,9c14.5,3.602,28.899,7.7,42.899,13.102
		c7,2.7,13.801,5.7,20.4,9.2s12.899,7.6,18.5,12.6c-5.601-5-12-9-18.601-12.5s-13.5-6.5-20.5-9.1C383.4,590.6,369,586.5,354.5,583
		s-29.2-6.3-44-8.7c-14.8-2.399-29.601-4.399-44.5-5.8L266.2,567.5z"/>
</g>
<g>
	<path d="M311,230.7c11.399-3.5,23-6.3,34.699-8.8c11.7-2.5,23.399-4.5,35.301-5.8c11.8-1.4,23.8-2.2,35.699-2
		c11.899,0.2,23.899,1.4,35.399,4.4c-11.6-2.9-23.5-4-35.399-4.1s-23.8,0.8-35.601,2.2c-11.8,1.5-23.5,3.6-35.199,6.1
		c-11.601,2.5-23.2,5.5-34.5,9L311,230.7z"/>
</g>
<g>
	<path d="M327.5,177.8c9.5-1.6,19.1-3.2,28.699-4.6c9.601-1.4,19.101-2.7,28.7-3.9c9.601-1.1,19.199-2.2,28.899-2.7
		c4.8-0.3,9.7-0.5,14.5-0.4c2.399,0.1,4.8,0.2,7.2,0.5c1.199,0.2,2.399,0.4,3.5,0.8c0.6,0.2,1.1,0.4,1.699,0.7
		c0.5,0.3,1,0.7,1.301,1.2c-0.301-0.5-0.801-0.9-1.301-1.2c-0.5-0.3-1.101-0.5-1.699-0.7c-1.2-0.4-2.301-0.6-3.5-0.7
		c-2.4-0.3-4.801-0.4-7.2-0.5c-4.8-0.1-9.7,0.2-14.5,0.5c-9.601,0.7-19.3,1.8-28.8,3c-9.601,1.2-19.101,2.6-28.7,4.1
		c-9.5,1.5-19.101,3.1-28.601,4.8L327.5,177.8z"/>
</g>
<g>
	<path d="M347.199,134c8.2-2.4,16.399-4.5,24.7-6.4c8.3-1.9,16.601-3.6,25-4.9c8.399-1.3,16.8-2.4,25.3-2.7
		c4.2-0.1,8.5-0.1,12.7,0.4c4.199,0.5,8.5,1.4,12.199,3.5c-3.699-2.1-8-2.9-12.199-3.4c-4.2-0.4-8.5-0.5-12.7-0.3
		c-8.5,0.4-16.899,1.5-25.199,2.9c-8.4,1.4-16.601,3.2-24.9,5.2c-8.199,2-16.399,4.2-24.5,6.6L347.199,134z"/>
</g>
<g>
	<path d="M365.6,93.9c9.301-3.1,18.7-6,28.2-8.5c4.8-1.2,9.5-2.3,14.399-3.1c2.399-0.4,4.899-0.7,7.301-0.8c1.199,0,2.5,0,3.699,0.2
		c1.2,0.2,2.5,0.5,3.2,1.6c-0.801-1-2.101-1.3-3.2-1.5c-1.199-0.2-2.399-0.2-3.699-0.1c-2.4,0.1-4.9,0.5-7.301,0.9
		c-4.8,0.9-9.601,2-14.3,3.3c-9.399,2.6-18.801,5.6-28,8.9L365.6,93.9z"/>
</g>
<g>
	<path d="M406.1,59c-4.399,0.9-8.899,1.9-13.3,2.9c-2.2,0.5-4.399,1.1-6.601,1.7c-1.101,0.3-2.199,0.7-3.199,1
		c-0.5,0.2-1.101,0.4-1.601,0.6c-0.5,0.2-1.101,0.5-1.399,0.9c0.3-0.5,0.899-0.7,1.399-1c0.5-0.3,1-0.5,1.601-0.7
		c1.1-0.4,2.1-0.8,3.199-1.2c2.2-0.7,4.301-1.4,6.5-2c4.399-1.2,8.801-2.4,13.2-3.4L406.1,59z"/>
</g>
<g>
	<path d="M263.2,402.2c-9.2-1.2-18.601-1.601-27.9-1.8c-9.3-0.101-18.7,0.199-28,0.8c-18.6,1.399-37.2,4.399-55.2,9.3
		s-35.6,11.9-51.8,21.1C84,440.9,69.1,452.5,56.5,466.3C69.1,452.4,84,440.7,100.2,431.4C116.4,422,134,415,152,410
		c18.1-5,36.6-8.1,55.3-9.6c9.3-0.7,18.7-1.101,28.1-1c9.4,0.1,18.7,0.5,28.101,1.6L263.2,402.2z"/>
</g>
<g>
	<path d="M381.199,60.9c-1.8-2.1-4-3.9-6.101-5.7c-2.199-1.7-4.5-3.3-6.899-4.7c-4.8-2.8-10.101-5-15.601-6.2
		c5.5,1.1,10.9,3.1,15.9,5.8c2.5,1.3,4.899,2.9,7.199,4.6c2.301,1.7,4.399,3.5,6.399,5.6L381.199,60.9z"/>
</g>
<g>
	<path d="M366.699,86.2c-4.699-3.7-9.699-7-14.899-10s-10.601-5.7-16.2-7.9c-5.6-2.2-11.399-4-17.3-5.1c-5.899-1.1-12-1.5-18-0.8
		c6-0.7,12.101-0.4,18,0.6c6,1,11.8,2.7,17.399,4.8c5.601,2.2,11.101,4.8,16.399,7.7c5.301,3,10.4,6.2,15.2,9.9L366.699,86.2z"/>
</g>
<g>
	<path d="M348.8,120.5c-6.3-4-13-7.6-19.8-10.8c-6.801-3.2-13.801-6-20.9-8.3c-7.199-2.3-14.5-4.1-21.898-5.1
		c-7.4-1-15-1.3-22.5-0.3c7.5-1,15.1-0.9,22.5,0.1c7.5,0.9,14.8,2.7,21.999,4.9c7.2,2.2,14.2,5,21.101,8.1
		c6.899,3.1,13.601,6.6,20,10.6L348.8,120.5z"/>
</g>
<g>
	<path d="M330.8,158.8c-3.601-2.5-7.7-4.4-11.899-6.1c-4.101-1.7-8.399-3-12.7-4.1c-8.699-2.2-17.601-3.5-26.499-3.9
		c-17.9-0.9-35.9,1.3-53.301,5.4c17.4-4.3,35.4-6.7,53.4-5.9c9,0.4,17.9,1.5,26.7,3.7c4.399,1.1,8.699,2.4,12.899,4.1
		c4.199,1.7,8.3,3.5,12.101,6.1L330.8,158.8z"/>
</g>
<g>
	<path d="M313.5,201.6c-6.101-1.4-12.301-2.3-18.5-3c-6.2-0.7-12.5-1.2-18.7-1.5c-12.5-0.5-25.1-0.1-37.5,1.2
		c-24.9,2.6-49.5,9.1-72.1,20.1c22.5-11.2,47.1-17.8,72-20.6c12.5-1.4,25.1-1.9,37.6-1.4c6.3,0.2,12.5,0.7,18.8,1.3
		c6.2,0.7,12.5,1.6,18.601,2.9L313.5,201.6z"/>
</g>
<g>
	<path d="M289.5,272.8c-2.602-1.7-5.601-3-8.5-4.2c-2.9-1.2-5.9-2.3-9-3.2c-6.101-1.9-12.3-3.2-18.601-4.2
		c-12.6-1.9-25.5-2.3-38.199-1.5c-12.801,0.8-25.4,2.7-37.9,5.4c-12.5,2.7-24.8,6.2-36.9,10.3c12.101-4.2,24.4-7.8,36.9-10.6
		c12.5-2.8,25.2-4.8,38-5.6c12.8-0.9,25.7-0.6,38.4,1.2c6.3,0.9,12.6,2.2,18.8,4.1c3.1,0.9,6.1,2,9.1,3.2c3,1.2,5.9,2.6,8.7,4.3
		L289.5,272.8z"/>
</g>
<g>
	<path d="M275.4,333.4c-14.199-2.6-28.699-4.2-43.199-5.1c-14.5-1-29-1.2-43.5-0.5c-14.5,0.7-28.9,2.4-43.101,5.6
		c-14.1,3.2-28,7.9-40.7,15c12.601-7.2,26.5-12,40.601-15.3c14.2-3.3,28.6-5,43.1-5.8c14.5-0.8,29-0.6,43.5,0.2
		c14.5,0.9,29,2.4,43.3,4.9L275.4,333.4L275.4,333.4z"/>
</g>
<g>
	<path d="M258.1,470.1c-7.899-1.3-15.899-1.898-23.899-2c-8-0.198-16,0.102-24,0.802c-16,1.3-31.9,4.198-47.301,8.398
		c-15.5,4.3-30.6,9.9-45,16.9c-14.5,7-28.3,15.2-41.399,24.5c13-9.4,26.899-17.7,41.3-24.8c14.4-7,29.5-12.802,45-17.2
		c15.5-4.4,31.4-7.3,47.4-8.7c8-0.7,16.1-1,24.1-0.9c8.1,0.102,16.1,0.602,24.1,1.9L258.1,470.1z"/>
</g>
<g>
	<path d="M257.3,538.8c-7.4-0.2-14.9,0.5-22.3,1.3c-7.4,0.9-14.8,2.102-22.101,3.7c-14.6,3-29,7.2-43.1,12.2
		c-28.2,10-55.1,23.3-80.5,39c25.3-15.8,52.2-29.3,80.3-39.5c14.101-5.1,28.4-9.3,43.101-12.4c7.3-1.6,14.699-2.898,22.1-3.8
		c7.4-0.898,14.9-1.6,22.4-1.5L257.3,538.8z"/>
</g>
</svg>
