<?xml version="1.0" encoding="utf-8"?>
<!-- Generator: Adobe Illustrator 15.0.0, SVG Export Plug-In . SVG Version: 6.00 Build 0)  -->
<!DOCTYPE svg PUBLIC "-//W3C//DTD SVG 1.1//EN" "http://www.w3.org/Graphics/SVG/1.1/DTD/svg11.dtd">
<svg version="1.1" id="layer_x5F_www.ABC-color.com"
	 xmlns="http://www.w3.org/2000/svg" xmlns:xlink="http://www.w3.org/1999/xlink" x="0px" y="0px" width="822px" height="567px"
	 viewBox="0 0 822 567" enable-background="new 0 0 822 567" xml:space="preserve">
<path fill="#FFFFFF" stroke="#000000" stroke-width="0.5" d="M332.5,230.2c0,5.1-1.7,14.9,1.5,18.9c3.7,4.7,12.8,2.7,18.3,2.8
	c7.5,0.1,36.3,5.1,40.102-2l0.398-0.8c0.9,0.4,1.9,0.8,2.8,1.1l2.802,0.1c1.698,0,3.398-0.3,5.198-0.8l0.302,1.2
	c-1,0.8-1.602,1.5-0.9,3.6c13.6,0.2,27.5,0.8,41.4,0.8c7.6,0,30.6,2.9,35.5-3.3l0.1-0.1c0.8,0.8,1.7,1.4,2.6,1.7l2.802,0.2
	c2.398,0.1,4.8-0.4,7.5-1.2l0.198,0.7c10.102,2.5,23.4,0.7,34.102,0.7c11.398,0,22.8,0.6,34.398,0.6c-0.6-2.4,0-3.7,1.302-4.3
	c1.3-0.6,3.3-0.6,5.3-0.3l0.7,0.1c-0.102,0.6-0.102,1.2,0,1.9l0,0c0,1,0.198,1.9,0.5,2.8c10.6,0.5,20.6,2.1,31.3,2.5
	c18.1,0.6,36.3-1,54.3,0c12.5,0.7,23.8-0.6,36.2-0.7c12-0.2,28.6-2.9,40.3-5.9c6.1-1.6,23.7-21.7,21.5-11.9
	c-1.5,6.5-1.3,21.8-5.7,24.4c-4.898,2.9-13.398,4.4-19.1,4.6c-14.5,0.6-17.3,0.5-24.4,1.8c-14.3,2.7-29.2,2.1-44,2.1
	c-28.3,0-56.7,0-85,0c0,6.1,0.4,8.8,2.102,10.5v0.1c-1.802-0.3-5.802-0.1-7.9,0.5c0-0.3,0-0.5-0.1-0.8c-0.4-3.4-2.5-9.4-2.5-12.1
	c-15.7-0.4-31.302-2.4-46.9-4.2c-7.3-0.8-31.8-6.3-36,1.6v0.4l-1.5,0.1c-1.2,0.4-2.3,1.3-3.3,2.4l-0.602-0.4
	c-0.8-8-21.6-4.6-27.898-4.6c-10.602,0-21.3,0-31.9,0c-5.2,0-12.3-1.1-17.1,0.8c-0.102,1.5-0.5,3.6-0.102,5.1v0.1
	c-1.1-0.2-2.3-0.4-3.398-0.4l-2.8,0.1c-1,0.3-1.9,0.7-2.9,1.1l-0.2-0.4c-0.2-2.3-0.398-4.2-0.8-6.5c-9.3-4.3-28.7,1.2-38.8-1.4
	c-22.602-5.8-17.2,14.5-17,28.9c-1.5-0.801-3-1.301-4.5-1.7l-2.7-0.5c-0.9,0.1-1.8,0.2-2.6,0.399v-0.101
	c3.398-4.399,1.5-17.6,1.198-23.6c-9.898-4-28.398-2.4-39.399-1.4c-5,0.5-12.3,0.8-16.6,3.1c-5.9,3.1-5.6,7.7-9,12l-2.4,0.5
	l-2.5-1.2c-0.3-0.1-0.7-0.1-1-0.2c0-8,0.8-12-7.9-12.9c-5.9-0.7-14-1.3-19.7-0.7l-1.3-0.3c0.1-0.5,0.2-1,0.3-1.5l0.3-2.8
	c-0.1-0.6-0.2-1.3-0.4-1.9l0.5-0.1c7.1,0,19.2,2.4,25.7,0c6-2.2,7.3-11.9,3.9-17.1l-0.3-1.5c0.3,0,0.5-0.1,0.8-0.1l2.5-1.2l1.6,0.9
	c0.9,2.5,0.2,7.2,1.3,9.2c2.8,4.8,13.1,3.3,17.6,3.4c9.5,0.2,18.9,0.5,28.4,0.5c6.5,0,11.4,1.1,15.3-4.5
	c3.602-5.1,2.5-11.6,2.5-17.9l0.2-1c0.7,0.1,1.3,0.2,2,0.2l2.7-0.5c0.3-0.1,0.6-0.2,1-0.3L332.5,230.2z"/>
<path fill="#FFFFFF" stroke="#000000" stroke-width="0.5" d="M255.5,280c0.4,0,0.7,0.1,1,0.2l2.5,1.2c4.4,2.4,8,7,12.1,12
	c2.5,3-2.1,3.699-2.1,3.699s5.7,8,6.5,12.699c0.4,1.9-3.8-1.699-3.5,0.9c0.3,2.3,4.1,13.1,4.3,15.898c0.2,2.4-3.3-3.1-3.3-0.3
	c0,2.601,3.5,13.2,3.4,16.101c-0.1,2.601-3.9-2.5-4.1,0.301c-0.2,1.898,2.4,10,2.1,12c-0.3,1.8-3.3-2.4-3.7-0.5
	c-0.4,2,1.8,11.5,1.4,13.5c-0.4,1.898-3.4-3.7-3.9-1.7c-0.6,2.2,1.2,12,0.5,14.3c-1,3.2-3.8-4.199-4.9-1.199
	c-0.9,2.601-0.6,11.601-1.7,14.301c-0.8,1.8-2.9-1.9-3.8,0c-1,2.1-2.2,13.898-3.3,16.1c-1.4,2.6-2.7-4.4-4.3-1.7
	c-1.6,2.7-1.2,10.5-3,13.2c-0.5,0.8-4-4.3-4.6-3.5c-1.4,1.9-1.6,11.6-3,13.5c-1.2,1.6-2.7-3.7-4-2.2c-1.2,1.5-5,11.3-6.3,12.8
	c-2.1,2.4-2.5-4.1-4-1c-4,8.302-2.9,8.2-5.9,13.7c-1.3,2.4-4-3.8-6.1-1.8c-2.3,2.1-5.7,11.3-8.2,13.4c-1.8,1.5-2.6-4-4.5-2.5
	c-1.6,1.3-4.4,5.6-6.1,6.898c-2.5,1.9-4,1-6.6,2.7l-0.1-0.3c-0.9-2.9-2.6-3.2-3.3-6.3c-0.5-2.102,0.1-7.2-0.3-9.2
	c-0.5-2.3-4.7,1.3-5.1-1c-0.6-3.3,2.7-12.4,2.3-15.602c-0.4-2.8-6.4,0.2-5.8-2.5c1.2-6.198,1.9-5.398,4.2-14.3
	c0.8-3.2-3.7,1.5-3.7-1.7c0-1.898,3.4-11.898,3.4-13.8c0-2-4.5,1.102-4.4-0.898c0.1-2.4,6.1-10,6.3-12.302
	c0.1-1-5.9,0.801-5.8-0.199c0.3-3.199,5.6-9,6.1-12.101c0.5-3-5,1.5-4.4-1.399c0.5-2.399,7.1-12.199,7.7-14.5c0.5-2-3.5-0.5-3-2.399
	c0.8-2.8,6.9-9.5,7.8-12.101c1.1-3-5.8,0.899-4.5-2.199c0.9-2.2,8.5-8.602,9.5-10.7c0.9-1.8-5,0.5-4.1-1.2c1-1.8,8.7-7.8,9.7-9.5
	c1-1.699-4.1-0.398-3.1-2c1.1-1.699,8.2-6.3,9.3-7.898c1.6-2.301-4.5-0.801-3-2.9c1.8-2.3,11.2-8.2,12.9-10.2
	c1.8-2.1-4.4-0.1-2.7-1.8c2-2.1,11.8-7.9,13.5-9.5c1.9-1.7-3.6-1.6-2.1-2.9c3.7-3.1,13.2-5.6,13.2-5.6s-3.1-3.5,0.7-4.3
	C245.5,280.5,250.9,279.3,255.5,280z"/>
<path fill="#FFFFFF" stroke="#000000" stroke-width="0.5" d="M335.1,292.6c3.302,1.7,6.7,4.2,10.302,6.801
	c3.198,2.301-1.102,4.199-1.102,4.199s7.5,6.301,9.602,10.7c0.8,1.7-4.102-0.7-3.102,1.7c0.9,2.2,7.3,11.6,8.2,14.3
	c0.8,2.3-3.9-2.2-3.2,0.5c0.7,2.5,6.8,11.8,7.4,14.601c0.5,2.5-4.4-1.399-3.9,1.399c0.3,1.9,4.8,9,5.102,11
	c0.198,1.8-3.802-1.5-3.7,0.4c0.1,1.2,1.898,5.1,3.3,8.3c0.8,1.9,1.5,3.6,1.5,4.4c0.1,2-4.3-2.7-4.3-0.7c0,2.3,4.2,11.3,4.1,13.7
	c-0.1,3.3-4.7-3.102-5,0.1c-0.3,2.8,2.4,11.4,2,14.2c-0.3,2-3.3-1.102-3.7,0.898c-0.398,2.302,1.4,14,0.9,16.4
	c-0.7,2.9-3.8-3.5-4.6-0.6c-0.9,3,1.5,10.5,0.398,13.5c-0.3,0.898-5-3.2-5.3-2.2c-0.8,2.2,1.4,11.6,0.5,13.8
	c-0.8,1.8-3.6-2.9-4.4-1.1c-0.8,1.698-1.898,12.198-2.8,14c-1.398,2.898-3.5-3.302-4.1,0c-1.7,9-0.7,8.6-2.2,14.8
	c-0.7,2.7-4.8-2.602-6.3-0.2c-1.7,2.7-2.602,12.399-4.5,15.1c-1.3,1.9-3.602-3.198-5-1.3c-1.2,1.7-2.9,6.602-4.102,8.2
	c-1.898,2.5-3.6,2-5.6,4.3l-0.2-0.2c-1.6-2.6-3.398-2.398-4.8-5.198c-1-1.9-1.7-7-2.6-8.802c-1.101-2.1-4.2,2.5-5.101,0.4
	c-1.4-3-0.6-12.7-1.8-15.601c-1.1-2.601-6.1,1.801-6.3-0.899c-0.4-6.3,0.5-5.7,0.4-14.9c0-3.3-3.2,2.4-4-0.698
	c-0.5-1.9,0.2-12.4-0.3-14.302c-0.5-2-4.1,2.2-4.5,0.302c-0.5-2.4,3.4-11.2,3-13.5c-0.2-1-5.5,2.198-5.6,1.3
	c-0.5-3.2,3.1-10.2,2.8-13.2c-0.3-3-4.5,2.699-4.6-0.2c-0.1-2.5,3.8-13.601,3.8-16c0-2-3.5,0.399-3.5-1.601
	c0.1-2.899,4.2-10.899,4.5-13.699c0.3-3.2-5.4,2.3-4.9-0.9c0.3-2.4,6-10.5,6.5-12.8c0.4-2-4.7,1.8-4.3-0.101
	c0.5-2,6.4-9.699,6.9-11.699c0.5-1.9-4.1,0.699-3.5-1.1c0.6-1.9,6.3-8.201,6.9-10c0.9-2.602-4.6,0.398-3.6-2
	c1.1-2.701,8.7-10.802,9.9-13.102c1.2-2.5-4.3,1.102-3.1-1.102c1.4-2.5,9.4-10.6,10.6-12.6c1.4-2.199-3.899-0.699-2.8-2.199
	c2.8-3.899,11.3-8.801,11.3-8.801s-3.898-2.6-0.398-4.3c4.898-2.3,9.3-4.5,13.398-5.399c0.9-0.201,1.801-0.301,2.602-0.399l2.7,0.5
	C332.2,291.3,333.7,291.9,335.1,292.6z"/>
<path fill="#FFFFFF" stroke="#000000" stroke-width="0.5" d="M368.4,311.6c0.8-2.699,6.698-12.5,7.5-14.699
	c0.8-2.399-4,0.199-3.2-1.5c1.898-4.5,9-11.101,9-11.101s-4.4-1.7-1.3-4.1c4.1-3.2,7.698-6.3,11.5-8.1
	c0.898-0.5,1.898-0.8,2.898-1.1l2.8-0.1c1.102,0,2.2,0.1,3.4,0.4c4,0.8,8.3,2.7,13,4.6c3.6,1.5-0.2,4.3-0.2,4.3s8.7,4.399,11.8,8.2
	c1.2,1.5-4.1,0.3-2.698,2.398c1.398,1.9,9.8,9.602,11.3,12.102c1.3,2.1-4.3-1.2-3,1.199c1.3,2.301,9.3,10,10.5,12.601
	c1.1,2.3-4.602-0.4-3.5,2.2c0.7,1.8,6.7,7.699,7.398,9.6c0.602,1.7-4.1-0.6-3.5,1.3c0.602,1.9,7,9.3,7.5,11.3
	c0.5,1.9-4.8-1.699-4.3,0.301c0.4,1.699,3.9,6.5,5.9,9.801c0.699,1.1,1.1,2,1.199,2.6c0.601,3.301-5.301-2-4.899,1.2
	c0.399,2.8,4.899,10.5,5.2,13.399c0.2,2-3.5-0.301-3.4,1.699c0.102,2.4,4.602,13.301,4.602,15.801c0,2.899-4.5-2.601-4.602,0.5
	c-0.2,3.101,3.8,9.899,3.5,13.101c-0.1,1-5.6-2-5.7-1c-0.3,2.3,4,11,3.602,13.4c-0.3,1.898-4.102-2-4.5,0
	c-0.4,1.898,0.898,12.3,0.5,14.3c-0.7,3.1-4.102-2.4-4,0.898c0.398,9.2,1.3,8.5,1.2,14.9c-0.102,2.8-5.302-1.5-6.2,1.2
	c-1.102,3,0.2,12.6-1,15.7c-0.9,2.1-4.2-2.302-5.102-0.102c-0.8,1.9-1.3,7-2.198,9c-1.302,2.8-3,2.8-4.5,5.4L424.6,473
	c-2.198-2.2-3.8-1.6-5.898-4c-1.4-1.6-3.3-6.4-4.602-8c-1.5-1.8-3.5,3.3-4.898,1.5c-2-2.6-3.4-12.2-5.3-14.8
	c-1.7-2.3-5.5,3.2-6.302,0.5c-1.898-6.102-0.8-5.7-3-14.602c-0.8-3.198-2.6,3-4.1,0.2c-0.9-1.7-2.6-12.1-3.5-13.8
	c-0.9-1.8-3.5,3.1-4.3,1.3c-1-2.2,0.7-11.7-0.2-13.898c-0.4-0.9-4.8,3.398-5.2,2.5c-1.2-3,0.8-10.602-0.3-13.5
	c-1-2.9-3.8,3.6-4.6,0.8c-0.7-2.4,0.6-14.101,0.1-16.4c-0.5-2-3.4,1.2-3.7-0.7c-0.6-2.8,1.7-11.6,1.3-14.3
	c-0.398-2.899-4.1,2.5-4.898,0.8c-0.102-0.1-0.102-0.3-0.102-0.6c-0.198-2.4,3.5-11.6,3.4-13.9c-0.1-2-4.2,2.801-4.2,0.9
	c0-2.1,4.102-10.9,4.102-12.9c0.1-1.898-3.802,1.602-3.7-0.3c0.1-2,4.3-9.399,4.5-11.3c0.3-2.8-4.4,1.4-4-1.2
	c0.5-2.899,6.1-12.399,6.6-15C372.3,309.3,367.8,314,368.4,311.6z"/>
<path fill="#FFFFFF" stroke="#000000" stroke-width="0.5" d="M542.5,380.1c0.1,2.801-4.3-2.3-4.4,0.602c0,2.898,3.9,9.199,3.7,12.3
	c-0.1,0.899-5.398-1.7-5.398-0.7c-0.2,2.2,4.198,10.3,3.898,12.602c-0.2,1.898-4-1.802-4.3,0.1c-0.3,1.8,1.2,11.7,0.9,13.5
	c-0.602,3-4-2.2-3.802,1c0.602,8.7,1.5,8.1,1.602,14.1c0,2.602-5-1.198-5.9,1.4c-0.898,2.9,0.602,12-0.5,14.9
	c-0.8,2.1-4.1-2-4.898,0.1c-0.7,1.8-1,6.7-1.802,8.6c-1.198,2.802-2.8,2.802-4.1,5.302l-0.3-0.2c-2.102-2-3.7-1.4-5.7-3.602
	c-1.3-1.5-3.3-6-4.6-7.5c-1.5-1.698-3.2,3.302-4.602,1.602c-2-2.4-3.6-11.5-5.5-13.9c-1.6-2.2-5.1,3.2-6,0.7
	c-2-5.7-0.898-5.399-3.3-13.8c-0.9-3-2.3,3-3.9,0.3c-0.898-1.6-2.898-11.399-3.698-13c-0.9-1.7-3.2,3-4.102,1.4
	c-1-2.102,0.3-11.102-0.6-13.2c-0.4-0.9-4.5,3.398-4.9,2.5c-1.2-2.8,0.4-10.102-0.7-12.801c-1-2.699-3.5,3.601-4.3,0.899
	c-0.7-2.2,0.102-13.399-0.5-15.6c-0.5-1.9-3.1,1.3-3.6-0.601c-0.602-2.699,1.2-11,0.8-13.601c-0.5-3-6.6,3.2-7.1-0.101
	c-0.302-2.399,5.3-10.699,5.1-12.899c-0.2-1.899-5.9,1.601-6.3,0V350.4c-0.1-2.101,5.9-9.4,5.9-11.301c0-1.8-5.898,0-5.898-1.898
	c0.1-2,6.1-7.301,6.3-9.102c0.2-2.6-6.5-0.8-6.2-3.3c0.4-2.899,7.7-9.6,8.2-12.1c0.5-2.601-5.9-1-5.3-3.4
	c0.7-2.8,8.2-8.899,8.898-11.1c0.7-2.3-3.8,0.399-3.1-1.4c1.6-4.3,8.2-10.8,8.2-10.8s-4.2-1.4-1.4-3.9c3.5-3,6.102-8.8,9.102-12.1
	c1-1.1,2.1-2,3.3-2.4l1.5-0.1l1.3-0.1c5-0.1,10.4,2.1,16.5,4.4c3.7,1.4,0,9.1,0,9.1s8.4,3.9,11.4,7.4c1.198,1.4-3.9,0.4-2.4,2.3
	c1.3,1.801,9.6,8.801,11.1,11.102c1.302,1.898-4.1-1-2.8,1.3c1.3,2.2,9.102,9.2,10.4,11.601c1.1,2.199-4.3-0.199-3.3,2.199
	c0.698,1.7,6.6,7.102,7.398,8.9c0.7,1.6-3.898-0.4-3.3,1.3c0.6,1.8,6.9,8.601,7.5,10.5c0.5,1.8-4.6-1.399-4.1,0.399
	c0.6,2.101,6.6,9.301,7.1,11.601c0.7,3.101-5.1-1.7-4.6,1.3c0.398,2.602,5,9.801,5.3,12.602c0.2,1.898-3.3-0.2-3.102,1.8
	C537.8,367.5,542.4,377.7,542.5,380.1z"/>
<path fill="#FFFFFF" stroke="#000000" stroke-width="0.5" d="M568.7,282.7c2.1-0.6,6.1-0.7,7.898-0.5v-0.1c1.5,1.5,4.102,2.3,8.5,4
	l1-0.1c0.7,2.2-1.198,6-1.198,6s6.8,3.1,9.1,5.9c1,1.1-3.1,0.3-2,1.898c1.1,1.4,7.7,7.102,8.8,8.9c1,1.5-3.3-0.801-2.3,1
	c1,1.699,7.3,7.398,8.3,9.3c0.9,1.8-3.5-0.2-2.6,1.8c0.6,1.301,5.3,5.7,5.898,7.102c0.5,1.3-3.1-0.301-2.6,1
	c0.5,1.398,5.5,6.898,6,8.398c0.4,1.4-3.7-1.1-3.3,0.301c0.398,1.699,5.3,7.5,5.7,9.301c0.6,2.5-4.102-1.4-3.7,1
	c0.398,2.1,4,7.898,4.3,10.1c0.2,1.5-2.6-0.1-2.5,1.4c0.1,1.799,3.8,10,3.9,11.898c0.1,2.2-3.5-1.8-3.5,0.5
	c0,2.301,3.1,7.398,3,9.801c0,0.801-4.302-1.301-4.302-0.601c-0.198,1.8,3.302,8.198,3.102,10.101c-0.2,1.5-3.2-1.4-3.4,0.1
	c-0.2,1.4,1,9.301,0.7,10.801c-0.5,2.4-3.2-1.7-3,0.8c0.5,7,1.2,6.5,1.3,11.3c0,2.101-4-1-4.7,1.101
	c-0.698,2.301,0.5,9.601-0.398,12.001c-0.602,1.699-3.3-1.602-3.9,0.1c-0.6,1.5-0.8,5.4-1.398,6.9c-0.9,2.199-2.2,2.199-3.302,4.199
	l-0.198-0.101c-1.7-1.6-3-1.1-4.602-2.899c-1.1-1.199-2.6-4.801-3.7-6c-1.199-1.4-2.6,2.6-3.699,1.3c-1.602-1.9-2.9-9.2-4.4-11.102
	c-1.3-1.698-4.1,2.5-4.8,0.601c-1.602-4.5-0.8-4.299-2.602-11c-0.698-2.399-1.898,2.399-3.1,0.301c-0.8-1.301-2.3-9.1-3-10.4
	c-0.7-1.3-2.6,2.4-3.3,1.101c-0.8-1.699,0.3-8.899-0.5-10.5c-0.3-0.699-3.602,2.7-3.9,2c-1-2.199,0.3-8.101-0.5-10.3
	c-0.8-2.2-2.8,2.899-3.5,0.699c-0.6-1.8,0.102-10.699-0.398-12.5c-0.4-1.5-2.5,1-2.802-0.5c-0.5-2.1,1-8.8,0.602-10.899
	c-0.4-2.399-5.3,2.601-5.7-0.101c-0.2-1.899,4.2-8.5,4.1-10.3c-0.1-1.5-5,1.5-5.1-0.101c-0.1-1.699,4.7-7.6,4.7-9.1s-4.8,0-4.7-1.5
	c0-1.601,4.9-5.801,5-7.301c0.2-2.101-5.2-0.601-4.9-2.699c0.302-2.301,6.2-7.699,6.5-9.699c0.4-2.102-4.698-0.801-4.198-2.701
	c0.5-2.199,6.6-7.1,7.1-8.799c0.6-1.9-3,0.299-2.5-1.102c1.3-3.398,6.6-8.699,6.6-8.699s-3.398-1.101-1.1-3.101
	c3.5-2.899,5.7-9.2,9-11.2C568.7,282.1,568.7,282.4,568.7,282.7z"/>
<path fill="#FFFFFF" stroke="#000000" stroke-width="0.5" d="M550,200.6c-0.1-1.5-3-7.2-3.1-8.7c0-1.4,2.8,1.4,2.8-0.1
	s-2.8-8.4-2.8-9.9c0.1-1.5,3,2.3,3.198,0.8c0.2-1.8-2.398-8.9-2.198-10.6c0.3-2.5,3.398,2.7,3.8,0.3c0.398-2.1-1.102-8.8-0.602-10.9
	c0.4-1.5,2.4,1,2.9-0.4c0.5-1.7-0.2-10.7,0.4-12.5c0.698-2.1,2.6,2.9,3.398,0.7c0.8-2.2-0.398-8,0.602-10.3c0.3-0.7,3.6,2.7,3.898,2
	c0.8-1.6-0.3-8.9,0.5-10.5c0.7-1.3,2.5,2.5,3.3,1.1c0.7-1.3,2.302-9.1,3-10.4c1.2-2.1,2.4,2.7,3.102,0.3c1.898-6.7,1.1-6.5,2.7-11
	c0.698-2,3.5,2.3,4.8,0.6c1.5-1.9,2.8-9.2,4.398-11.1c1.102-1.4,2.5,2.6,3.7,1.3c1-1.2,2.602-4.8,3.7-6c1.6-1.8,2.9-1.3,4.6-2.8
	l0.2,0.2c1.102,2.1,2.4,2.1,3.3,4.3c0.602,1.5,0.802,5.4,1.4,6.9c0.6,1.7,3.3-1.6,3.9,0.1c0.898,2.4-0.4,9.6,0.3,11.9
	c0.7,2.1,4.7-1,4.7,1.1c-0.102,4.8-0.801,4.3-1.301,11.3c-0.199,2.5,2.601-1.6,3,0.8c0.301,1.5-1,9.4-0.801,10.8
	c0.2,1.5,3.301-1.4,3.4,0.1c0.2,1.8-3.3,8.3-3.101,10.1c0.101,0.8,4.301-1.3,4.301-0.6c0.199,2.5-3,7.5-3,9.8c0,2.3,3.6-1.7,3.5,0.5
	c-0.102,1.9-3.801,10.1-3.9,11.9c-0.1,1.5,2.7-0.1,2.5,1.4c-0.3,2.2-3.899,8-4.3,10c-0.4,2.4,5.899-0.6,5.3,2
	c-0.399,1.9-6.899,6.6-7.399,8.3c-0.399,1.5,5.199,0.3,4.699,1.8c-0.5,1.6-7,5.5-7.5,6.9s4.5,1.6,3.9,3
	c-0.601,1.5-6.601,3.8-7.2,5.1c-0.899,1.9,4.7,2.4,3.7,4.2c-1.101,2.1-8.4,5.1-9.5,6.9c-1.101,1.8,4.1,2.4,3.1,4
	c-1.3,1.9-8.6,4.5-9.699,5.9c-1.199,1.5,2.899,0.8,2,1.9c-2.399,2.8-9.199,5.9-9.199,5.9s2.8,2.2,0,3.3
	c-4.602,1.7-9.301,7.6-13.301,7.5l-0.399-0.1c-0.101,0.2-0.101,0.4-0.2,0.6l-0.7-0.1c-1.898-0.3-3.898-0.4-5.3,0.3v-0.3
	c-4.8-0.4-5.9-5.3-6.5-8.9l-0.3,0.1c-2.4-2,2.5-6.9,2.5-6.9s-5.3-5.2-6.601-8.7c-0.5-1.4,3.101,0.8,2.5-1.1
	c-0.5-1.7-4.801-9.3-5.301-11.4c-0.398-1.8,2.9,1.9,2.5-0.2c-0.398-2-4.3-9.4-4.6-11.6C546.7,199.5,550.2,202.8,550,200.6z"/>
<path fill="#FFFFFF" stroke="#000000" stroke-width="0.5" d="M522.1,219.6c-1.5,2.3-9.698,9.3-11.1,11.1c-1.5,1.9,3.6,1,2.5,2.3
	c-3,3.5-11.5,11.9-11.5,11.9s3.7,2.9,0,4.3c-3.2,1.2-6.2,2.4-9.1,3.2c-2.602,0.8-5.102,1.2-7.5,1.2l-2.802-0.2
	c-0.898-0.3-1.8-0.9-2.6-1.7c-3.3-3.1-5.9-9.3-9.7-12.5c-2.8-2.4,1.4-3.8,1.4-3.8s-8.7-2.6-10.4-7.2c-0.7-1.8,4,1,3.3-1.4
	c-0.698-2.3-6.3-12.2-7-14.9c-0.6-2.4,3.802,2.5,3.2-0.3c-0.5-2.6-5.8-12.3-6.1-15.2c-0.3-2.6,4.2,1.8,4-1
	c-0.2-1.9-4-9.4-4.102-11.4c-0.1-1.9,3.7,1.8,3.7-0.1c0-2-3.8-11-3.7-13.1c0-0.1,0-0.1,0-0.2c0.4-1.3,4,3.2,4.2,1.2
	c0.2-2.3-3.2-11.6-2.898-14c0.398-3.3,4.5,3.5,5,0.4c0.5-2.7-1.5-11.5-0.802-14.4c0.5-1.9,3.2,1.4,3.802-0.6
	c0.6-2.3-0.302-14.1,0.5-16.4c0.898-2.8,5.3,5.1,6.3,2.3c1-2.7-0.602-10,0.7-12.8c0.398-0.9,4.5,3.4,4.898,2.5
	c0.9-2-0.398-11.1,0.602-13.1c0.8-1.7,3.1,3,4.1,1.3c0.9-1.6,2.8-11.4,3.7-13c1.5-2.6,3,3.4,3.898,0.3c2.4-8.4,1.302-8.1,3.302-13.8
	c0.898-2.5,4.3,2.9,6,0.7c1.8-2.4,3.3-16,5.398-18.5c1.5-1.8,3.3,3.5,4.9,1.7c1.398-1.6,3.398-6.3,4.8-7.9c2.1-2.3,3.8-1.7,6-3.8
	l0.3-0.2c1.4,2.7,3.102,2.7,4.3,5.6C524.4,60,523.7,69.7,524.4,71.5c0.8,2.1,4.1-2,4.898,0.1c1.102,2.9-0.5,12.1,0.5,14.9
	c0.8,2.6,5.9-1.3,5.9,1.4c-0.102,6-0.9,5.4-1.602,14.1c-0.198,3.2,3.2-2,3.802,1c0.3,1.8-1.2,11.7-0.9,13.5c0.3,1.9,6-3.9,6.3-1.9
	c0.3,2.4-6,12.4-5.8,14.6c0.1,0.9,7.4-3.1,7.5-2.1c0.2,3.2-5.8,10.8-5.8,13.7c0.1,2.9,6.5-3,6.398-0.1
	c-0.1,2.4-6.698,13.3-6.898,15.5c-0.2,1.9,5.398-0.1,5.1,1.9c-0.3,2.9-6.8,9.8-7.3,12.4c-0.5,3,7.3-1.1,6.5,2.2
	c-0.5,2.3-8.5,8.6-9.1,10.7c-0.5,1.9,4.6-1.3,4.1,0.4c-0.6,1.9-6.9,8.7-7.5,10.5c-0.6,1.7,3.9-0.3,3.3,1.3
	c-0.7,1.8-6.6,7.2-7.398,8.9c-1.102,2.4,4.398,0,3.3,2.2c-1.3,2.5-9.102,9.5-10.4,11.6C517.9,220.6,523.3,217.7,522.1,219.6z"/>
<path fill="#FFFFFF" stroke="#000000" stroke-width="0.5" d="M434.9,218.5c-1.5,2.4-9.9,10.1-11.302,12.1c-1.5,2.1,3.9,0.9,2.7,2.4
	c-3,3.8-11.8,8.2-11.8,8.2s3.8,2.8,0.1,4.3c-4,1.6-7.6,3.3-11.1,4.2c-1.8,0.5-3.5,0.8-5.2,0.8l-2.8-0.1c-0.9-0.3-1.9-0.6-2.8-1.1
	c-3.8-1.8-7.5-4.9-11.5-8.2c-3.102-2.4,1.3-4.1,1.3-4.1s-7.2-6.6-9-11.1c-0.7-1.8,4,0.9,3.2-1.5c-0.8-2.2-6.7-12-7.5-14.7
	c-0.7-2.4,3.8,2.4,3.2-0.4c-0.602-2.6-6.2-12.1-6.602-15c-0.398-2.6,4.3,1.6,4-1.1c-0.2-1.9-4.398-9.3-4.5-11.3
	c-0.1-1.9,3.8,1.7,3.7-0.3s-4.1-10.9-4.1-12.9s4.1,2.9,4.198,0.9c0.102-2.3-3.6-11.5-3.398-13.9c0-0.3,0.1-0.5,0.1-0.6
	c0.8-1.7,4.5,3.7,4.9,0.8c0.398-2.8-1.8-11.5-1.3-14.3c0.398-1.9,3.3,1.3,3.698-0.7c0.5-2.3-0.698-14.1-0.1-16.4
	c0.8-2.8,3.6,3.7,4.6,0.8c1-2.9-1-10.5,0.2-13.5c0.4-0.9,4.8,3.4,5.2,2.5c0.9-2.2-0.899-11.7,0.2-13.9c0.8-1.8,3.399,3.1,4.399,1.3
	c0.899-1.7,2.5-12.1,3.5-13.8c1.5-2.8,3.301,3.5,4.101,0.2c2.2-8.9,1.1-8.6,3-14.6c0.8-2.6,4.7,2.8,6.3,0.5
	c1.8-2.6,3.3-12.2,5.3-14.8c1.4-1.8,3.4,3.4,4.9,1.5c1.3-1.6,3.2-6.4,4.6-8c2.102-2.4,3.7-1.9,5.9-4l0.3-0.2
	c1.5,2.6,3.2,2.6,4.5,5.4c0.9,1.9,1.4,7.1,2.2,9c0.898,2.2,4.3-2.2,5.2-0.1c1.199,3.1-0.102,12.7,1,15.7c1,2.7,6.199-1.5,6.199,1.2
	c0.101,6.3-0.801,5.7-1.199,14.9c-0.102,3.3,3.3-2.2,4,0.9c0.398,1.9-0.801,12.4-0.5,14.2c0.398,2,4.199-2,4.5,0
	c0.398,2.4-3.9,11-3.602,13.4c0.102,1,5.602-1.9,5.7-1c0.3,3.2-3.6,10-3.5,13.1c0.2,3.1,4.601-2.5,4.601,0.5
	c0,2.4-4.5,13.4-4.601,15.8c-0.1,2,3.5-0.2,3.4,1.7c-0.2,2.9-4.801,10.7-5.2,13.4c-0.4,3.2,5.5-2.1,4.898,1.2
	c-0.1,0.6-0.6,1.5-1.198,2.6c-1.9,3.3-5.5,8.1-5.9,9.8c-0.5,2,4.8-1.6,4.3,0.3c-0.6,2-6.898,9.4-7.5,11.3
	c-0.6,1.8,4.102-0.5,3.5,1.3c-0.7,1.9-6.7,7.8-7.398,9.6c-1.102,2.6,4.6-0.2,3.5,2.2c-1.2,2.6-9.302,10.3-10.5,12.6
	C430.6,219.7,436.2,216.4,434.9,218.5z"/>
<path fill="#FFFFFF" stroke="#000000" stroke-width="0.5" d="M359.9,190.9c-0.9,2.7-7.302,12.1-8.2,14.3c-1,2.4,4,0,3.1,1.7
	c-2.1,4.4-9.6,10.6-9.6,10.6s4.3,1.9,1.1,4.2c-4.898,3.5-9.3,6.9-13.8,8.3c-0.3,0.1-0.6,0.2-1,0.3l-2.7,0.5c-0.6,0-1.3-0.1-2-0.2
	c-4.398-0.8-9-3.1-14.1-5.5c-3.602-1.7,0.398-4.3,0.398-4.3s-8.5-4.8-11.3-8.8c-1.1-1.6,4.101-0.1,2.8-2.2
	c-1.3-2-9.3-10.1-10.6-12.6c-1.2-2.1,4.3,1.4,3.1-1.1c-1.1-2.4-8.8-10.4-9.9-13.1c-1-2.4,4.5,0.6,3.6-2c-0.6-1.8-6.4-8-6.9-10
	c-0.5-1.8,4,0.8,3.5-1.1s-6.5-9.6-6.9-11.7c-0.4-1.9,4.7,1.9,4.3-0.1c-0.4-2.3-6.1-10.4-6.4-12.8c-0.5-3.3,5.2,2.2,4.9-0.9
	c-0.2-2.8-4.4-10.8-4.5-13.6c-0.1-2,3.5,0.5,3.5-1.6c0-2.4-3.9-13.5-3.8-16c0.1-2.9,4.3,2.8,4.6-0.2c0.3-3.1-3.3-10-2.8-13.2
	c0.1-1,5.5,2.2,5.6,1.3c0.4-2.3-3.5-11.1-3-13.5c0.4-1.9,4,2.2,4.5,0.3s-0.3-12.4,0.3-14.3c0.9-3.1,4,2.6,4-0.7
	c0.1-9.2-0.9-8.6-0.4-14.9c0.2-2.7,5.2,1.7,6.3-0.9c1.2-2.9,0.4-12.6,1.8-15.6c1-2.1,4.1,2.5,5.1,0.4c0.9-1.8,1.7-7,2.6-8.8
	c1.5-2.8,3.2-2.7,4.802-5.2l0.198-0.2c2,2.2,3.7,1.8,5.602,4.3c1.3,1.7,2.898,6.6,4.1,8.2c1.4,1.9,3.7-3.2,5-1.3
	c1.9,2.7,2.8,12.4,4.5,15.1c1.5,2.4,5.7-2.9,6.3-0.2c1.602,6.1,0.5,5.7,2.2,14.8c0.602,3.3,2.7-2.9,4.102,0c0.8,1.8,2,12.2,2.8,14
	c0.8,1.9,3.7-2.9,4.398-1.1c0.9,2.3-1.3,11.6-0.5,13.9c0.302,0.9,5-3.2,5.302-2.2c1.1,3-1.302,10.5-0.4,13.5c0.8,3,3.9-3.4,4.6-0.6
	c0.602,2.4-1.3,14.1-0.898,16.4c0.398,2,3.398-1,3.7,0.9c0.398,2.9-2.302,11.5-2,14.2c0.3,3.2,4.898-3.3,5,0
	c0.1,2.4-4.102,11.4-4.102,13.7c0,2,4.3-2.6,4.3-0.7c0,0.8-0.698,2.5-1.5,4.4c-1.398,3.2-3.198,7.1-3.3,8.3
	c-0.2,1.9,3.9-1.4,3.7,0.4c-0.2,2-4.8,9.2-5.1,11.1c-0.4,2.8,4.5-1.2,3.898,1.4c-0.6,2.8-6.7,12.1-7.398,14.7
	C355.9,193,360.6,188.6,359.9,190.9z"/>
<path fill="#FFFFFF" stroke="#000000" stroke-width="0.5" d="M277.3,194.5c-0.2,2.8-4,13.6-4.3,15.9c-0.3,2.5,3.8-1,3.5,0.9
	c-0.9,4.8-6.6,12.7-6.6,12.7s4.7,0.7,2.2,3.7c-4.2,5-7.7,9.7-12.1,12l-2.5,1.2c-0.3,0.1-0.5,0.1-0.8,0.1c-4.7,0.7-10.2-0.5-16.2-1.6
	c-3.9-0.7-0.7-4.3-0.7-4.3s-9.5-2.5-13.2-5.6c-1.5-1.2,4-1.1,2.1-2.9c-1.7-1.6-11.5-7.4-13.5-9.5c-1.7-1.8,4.5,0.3,2.7-1.8
	c-1.7-2-11.1-7.8-12.9-10.2c-1.6-2.1,4.5-0.6,3-2.9c-1.1-1.6-8.2-6.2-9.3-7.9c-1-1.6,4.1-0.3,3.2-2c-1-1.7-8.7-7.7-9.7-9.5
	c-0.9-1.7,5,0.6,4.1-1.2c-1-2.1-8.6-8.5-9.5-10.7c-1.3-3.1,5.6,0.8,4.5-2.2c-0.9-2.6-7-9.3-7.8-12.1c-0.6-1.9,3.5-0.4,3-2.4
	c-0.6-2.3-7.2-12.1-7.7-14.5c-0.6-2.9,4.9,1.6,4.4-1.4c-0.5-3.1-5.8-8.9-6.1-12.1c-0.1-1,5.8,0.8,5.8-0.2c-0.2-2.4-6.2-9.9-6.3-12.3
	c-0.1-2,4.5,1.1,4.4-0.9c0-1.9-3.4-11.9-3.4-13.8c0-3.2,4.5,1.5,3.7-1.7c-2.3-8.9-3-8.1-4.2-14.3c-0.5-2.7,5.5,0.3,5.8-2.5
	c0.4-3.1-2.8-12.3-2.3-15.6c0.4-2.3,4.6,1.4,5.1-1c0.4-2-0.2-7.2,0.3-9.2c0.7-3.1,2.4-3.4,3.3-6.3l0.1-0.3c2.6,1.7,4.1,0.8,6.6,2.7
	c1.7,1.3,4.5,5.6,6.1,6.9c1.9,1.5,2.8-4,4.5-2.5c2.5,2.1,5.9,11.3,8.2,13.4c2.1,1.9,4.7-4.2,6.1-1.8c3.1,5.5,2,5.4,5.9,13.7
	c1.4,3,1.9-3.5,4-1.1c1.3,1.5,5.1,11.3,6.3,12.8c1.3,1.6,2.8-3.7,4-2.1c1.5,1.9,1.7,11.6,3,13.5c0.6,0.8,4-4.3,4.6-3.5
	c1.8,2.7,1.5,10.5,3,13.2c1.6,2.6,2.9-4.3,4.3-1.7c1.1,2.2,2.3,13.9,3.3,16.1c0.9,1.8,3-1.9,3.8-0.1c1.1,2.7,0.8,11.7,1.7,14.3
	c1.1,3,3.9-4.4,4.9-1.2c0.7,2.3-1.1,12.1-0.5,14.3c0.5,2,3.5-3.6,3.9-1.7c0.4,2-1.7,11.5-1.4,13.5c0.3,1.9,3.4-2.3,3.7-0.5
	c0.3,2-2.3,10.1-2.1,12c0.3,2.8,4-2.3,4.1,0.3c0.1,2.9-3.4,13.4-3.4,16.1C274,197.6,277.5,192.1,277.3,194.5z"/>
<path fill="#FFFFFF" stroke="#000000" stroke-width="0.5" d="M205.7,289.8c-1.7,1,0.3-4.1-2-3c-2.1,1.101-10.9,8.3-13.5,9.5
	c-2.2,1,1.8-4.1-0.8-3.2c-2.5,0.9-11.2,7.801-13.9,8.7c-2.5,0.8,1-4.5-1.7-3.8c-1.9,0.5-8.6,5.6-10.5,6c-1.8,0.4,1.1-3.9-0.8-3.6
	c-2,0.3-10.2,5.6-12.2,5.898c-1.9,0.301,2.3-4.5,0.3-4.3c-2.3,0.2-10.9,5.2-13.3,5.3c-3.3,0.2,2.7-5-0.5-5c-2.8,0-11.1,3.4-14,3.301
	c-2-0.101,0.8-3.399-1.3-3.601c-2.4-0.2-13.8,2.7-16.3,2.3c-2.9-0.398,3.2-4.1,0.2-4.6c-3-0.602-10.3,2.398-13.4,1.6
	c-1-0.199,2.7-5.199,1.8-5.5c-2.3-0.6-11.4,2.5-13.8,1.801c-1.9-0.601,2.6-3.801,0.7-4.5c-1.8-0.601-12.4-0.801-14.2-1.5
	c-3-1.101,3-3.699-0.4-4.101C57,286.6,57.5,287.6,51.2,286.6c-2.7-0.399,2.2-5-0.4-6.301c-2.8-1.5-12.5-1.5-15.4-3.2
	c-2-1.2,2.8-3.9,0.8-5.1c-1.8-1.1-6.8-2.3-8.6-3.4c-2.6-1.7-2.4-3.4-4.7-5.3l0.2-0.3c2.4-1.9,2.1-3.6,4.8-5.3
	c1.8-1.1,6.8-2.3,8.6-3.4c2-1.3-2.8-3.9-0.8-5.1c2.9-1.6,12.6-1.7,15.4-3.2c2.5-1.3-2.4-5.9,0.4-6.3c6.3-1,5.8,0,14.9-0.9
	c3.3-0.3-2.6-3,0.4-4.1c1.8-0.7,12.4-0.9,14.2-1.5c1.9-0.6-2.6-3.9-0.7-4.5c2.3-0.7,11.5,2.4,13.8,1.8c1-0.3-2.7-5.3-1.8-5.5
	c3.1-0.8,10.4,2.2,13.4,1.6s-3.1-4.2-0.2-4.6c2.4-0.3,13.9,2.6,16.3,2.4c2-0.2-0.7-3.5,1.3-3.6c2.9-0.2,11.2,3.3,14,3.3
	c3.2,0-2.8-5.1,0.5-5c2.4,0.1,11,5.1,13.3,5.3c2,0.2-2.2-4.5-0.3-4.3c2,0.3,10.3,5.5,12.2,5.9c1.9,0.3-1.1-4,0.8-3.6
	c2,0.4,8.7,5.6,10.5,6c2.7,0.7-0.8-4.5,1.7-3.8c2.8,0.9,11.5,7.7,13.9,8.7c2.6,1-1.4-4.1,0.8-3.2c2.6,1.1,11.4,8.4,13.5,9.5
	c2.3,1.2,0.3-4,2-3c4.2,2.5,9.8,10.5,9.8,10.5s2.3-4.1,4.3-0.8c2.9,4.9,5.6,9.3,6.8,13.6c0.2,0.6,0.3,1.3,0.4,1.9l-0.3,2.8
	c-0.1,0.5-0.2,1-0.3,1.5c-1.1,4.5-3.9,9-6.9,14c-2,3.4-4.3-0.8-4.3-0.8S209.9,287.4,205.7,289.8z"/>
<line fill="none" stroke="#000000" stroke-width="0.25" x1="34" y1="262.9" x2="219.7" y2="262.7"/>
<line fill="none" stroke="#000000" stroke-width="0.25" x1="111.1" y1="291.3" x2="136.7" y2="262.9"/>
<line fill="none" stroke="#000000" stroke-width="0.25" x1="95.1" y1="287.3" x2="117.7" y2="262.9"/>
<line fill="none" stroke="#000000" stroke-width="0.25" x1="78.8" y1="285.9" x2="99.2" y2="263.5"/>
<line fill="none" stroke="#000000" stroke-width="0.25" x1="65.5" y1="279.6" x2="80.7" y2="263.3"/>
<line fill="none" stroke="#000000" stroke-width="0.25" x1="49.5" y1="275.6" x2="61.7" y2="263.2"/>
<line fill="none" stroke="#000000" stroke-width="0.25" x1="37.5" y1="268.9" x2="43.5" y2="262.9"/>
<line fill="none" stroke="#000000" stroke-width="0.25" x1="127.1" y1="291.9" x2="154" y2="262.4"/>
<line fill="none" stroke="#000000" stroke-width="0.25" x1="145.5" y1="292.3" x2="170.7" y2="263.2"/>
<line fill="none" stroke="#000000" stroke-width="0.25" x1="162.5" y1="291.3" x2="185.7" y2="262.9"/>
<line fill="none" stroke="#000000" stroke-width="0.25" x1="185.5" y1="285.3" x2="201.7" y2="263.2"/>
<line fill="none" stroke="#000000" stroke-width="0.25" x1="209.5" y1="275.6" x2="219" y2="263.2"/>
<line fill="none" stroke="#000000" stroke-width="0.25" x1="110.5" y1="235.3" x2="136.7" y2="262.9"/>
<line fill="none" stroke="#000000" stroke-width="0.25" x1="94.1" y1="238.3" x2="117.7" y2="262.9"/>
<line fill="none" stroke="#000000" stroke-width="0.25" x1="77.5" y1="242.9" x2="99.2" y2="262.7"/>
<line fill="none" stroke="#000000" stroke-width="0.25" x1="64.1" y1="248.6" x2="80.7" y2="262.9"/>
<line fill="none" stroke="#000000" stroke-width="0.25" x1="51.8" y1="253.6" x2="61.7" y2="262.7"/>
<line fill="none" stroke="#000000" stroke-width="0.25" x1="37.5" y1="258.3" x2="43.5" y2="262.9"/>
<line fill="none" stroke="#000000" stroke-width="0.25" x1="128.8" y1="231.3" x2="154" y2="262.4"/>
<line fill="none" stroke="#000000" stroke-width="0.25" x1="146.5" y1="231.9" x2="170.7" y2="262.7"/>
<line fill="none" stroke="#000000" stroke-width="0.25" x1="164.1" y1="234.3" x2="185.7" y2="262.9"/>
<line fill="none" stroke="#000000" stroke-width="0.25" x1="183.8" y1="239.3" x2="201.7" y2="262.7"/>
<line fill="none" stroke="#000000" stroke-width="0.25" x1="208.1" y1="248.9" x2="219" y2="262.7"/>
<line fill="none" stroke="#000000" stroke-width="0.25" x1="191.9" y1="462.2" x2="254.9" y2="287.4"/>
<line fill="none" stroke="#000000" stroke-width="0.25" x1="244.8" y1="399.3" x2="226.9" y2="365.6"/>
<line fill="none" stroke="#000000" stroke-width="0.25" x1="235.6" y1="412.9" x2="220.4" y2="383.4"/>
<line fill="none" stroke="#000000" stroke-width="0.25" x1="228.8" y1="427.9" x2="214.6" y2="401"/>
<line fill="none" stroke="#000000" stroke-width="0.25" x1="218.3" y1="438.2" x2="208.1" y2="418.3"/>
<line fill="none" stroke="#000000" stroke-width="0.25" x1="209.1" y1="451.9" x2="201.6" y2="436.2"/>
<line fill="none" stroke="#000000" stroke-width="0.25" x1="198.7" y1="460.9" x2="195.1" y2="453.2"/>
<line fill="none" stroke="#000000" stroke-width="0.25" x1="250.9" y1="384.4" x2="232.3" y2="349.2"/>
<line fill="none" stroke="#000000" stroke-width="0.25" x1="257.4" y1="367.3" x2="238.7" y2="333.7"/>
<line fill="none" stroke="#000000" stroke-width="0.25" x1="262.3" y1="351" x2="243.5" y2="319.5"/>
<line fill="none" stroke="#000000" stroke-width="0.25" x1="264.4" y1="327.3" x2="249.2" y2="304.5"/>
<line fill="none" stroke="#000000" stroke-width="0.25" x1="263.5" y1="301.5" x2="255.1" y2="288.3"/>
<line fill="none" stroke="#000000" stroke-width="0.25" x1="191.9" y1="380.8" x2="226.9" y2="365.6"/>
<line fill="none" stroke="#000000" stroke-width="0.25" x1="189.2" y1="397.2" x2="220.4" y2="383.4"/>
<line fill="none" stroke="#000000" stroke-width="0.25" x1="187.9" y1="414.5" x2="213.9" y2="400.7"/>
<line fill="none" stroke="#000000" stroke-width="0.25" x1="188.7" y1="428.9" x2="207.8" y2="418.2"/>
<line fill="none" stroke="#000000" stroke-width="0.25" x1="189.2" y1="442.2" x2="201.1" y2="436"/>
<line fill="none" stroke="#000000" stroke-width="0.25" x1="188.7" y1="457.3" x2="195.1" y2="453.2"/>
<line fill="none" stroke="#000000" stroke-width="0.25" x1="194.4" y1="362.2" x2="232.3" y2="349.2"/>
<line fill="none" stroke="#000000" stroke-width="0.25" x1="201" y1="345.8" x2="238.2" y2="333.5"/>
<line fill="none" stroke="#000000" stroke-width="0.25" x1="209.2" y1="330" x2="243.5" y2="319.5"/>
<line fill="none" stroke="#000000" stroke-width="0.25" x1="220.6" y1="313.2" x2="248.7" y2="304.4"/>
<line fill="none" stroke="#000000" stroke-width="0.25" x1="238" y1="293.6" x2="254.6" y2="288.1"/>
<line fill="none" stroke="#000000" stroke-width="0.25" x1="311.9" y1="483" x2="328.1" y2="297.9"/>
<line fill="none" stroke="#000000" stroke-width="0.25" x1="347" y1="408.6" x2="321" y2="380.6"/>
<line fill="none" stroke="#000000" stroke-width="0.25" x1="341.6" y1="424.2" x2="319.3" y2="399.5"/>
<line fill="none" stroke="#000000" stroke-width="0.25" x1="338.8" y1="440.3" x2="318.3" y2="418"/>
<line fill="none" stroke="#000000" stroke-width="0.25" x1="331.3" y1="453.1" x2="316.4" y2="436.4"/>
<line fill="none" stroke="#000000" stroke-width="0.25" x1="325.9" y1="468.6" x2="314.6" y2="455.3"/>
<line fill="none" stroke="#000000" stroke-width="0.25" x1="318.2" y1="480" x2="312.7" y2="473.5"/>
<line fill="none" stroke="#000000" stroke-width="0.25" x1="349.1" y1="392.7" x2="322.1" y2="363.4"/>
<line fill="none" stroke="#000000" stroke-width="0.25" x1="351" y1="374.5" x2="324.3" y2="346.8"/>
<line fill="none" stroke="#000000" stroke-width="0.25" x1="351.5" y1="357.5" x2="325.4" y2="331.8"/>
<line fill="none" stroke="#000000" stroke-width="0.25" x1="347.6" y1="334" x2="327" y2="315.9"/>
<line fill="none" stroke="#000000" stroke-width="0.25" x1="340.1" y1="309.3" x2="328.6" y2="298.7"/>
<line fill="none" stroke="#000000" stroke-width="0.25" x1="291.1" y1="404.3" x2="321" y2="380.6"/>
<line fill="none" stroke="#000000" stroke-width="0.25" x1="292.7" y1="420.8" x2="319.3" y2="399.5"/>
<line fill="none" stroke="#000000" stroke-width="0.25" x1="295.8" y1="437.9" x2="317.4" y2="417.9"/>
<line fill="none" stroke="#000000" stroke-width="0.25" x1="300.3" y1="451.6" x2="316" y2="436.4"/>
<line fill="none" stroke="#000000" stroke-width="0.25" x1="304.2" y1="464.4" x2="314.1" y2="455.3"/>
<line fill="none" stroke="#000000" stroke-width="0.25" x1="307.6" y1="479.1" x2="312.7" y2="473.5"/>
<line fill="none" stroke="#000000" stroke-width="0.25" x1="288.8" y1="385.7" x2="322.1" y2="363.4"/>
<line fill="none" stroke="#000000" stroke-width="0.25" x1="291" y1="368.1" x2="323.8" y2="346.7"/>
<line fill="none" stroke="#000000" stroke-width="0.25" x1="294.9" y1="350.8" x2="325.4" y2="331.8"/>
<line fill="none" stroke="#000000" stroke-width="0.25" x1="301.6" y1="331.6" x2="326.5" y2="315.8"/>
<line fill="none" stroke="#000000" stroke-width="0.25" x1="313.4" y1="308.2" x2="328.1" y2="298.7"/>
<line fill="none" stroke="#000000" stroke-width="0.25" x1="422.7" y1="462.1" x2="396.7" y2="278.1"/>
<line fill="none" stroke="#000000" stroke-width="0.25" x1="440" y1="381.7" x2="408.4" y2="360.3"/>
<line fill="none" stroke="#000000" stroke-width="0.25" x1="438.3" y1="398.1" x2="411.1" y2="379.1"/>
<line fill="none" stroke="#000000" stroke-width="0.25" x1="439.2" y1="414.5" x2="414.2" y2="397.4"/>
<line fill="none" stroke="#000000" stroke-width="0.25" x1="434.8" y1="428.5" x2="416.5" y2="415.7"/>
<line fill="none" stroke="#000000" stroke-width="0.25" x1="433.1" y1="444.9" x2="419.1" y2="434.5"/>
<line fill="none" stroke="#000000" stroke-width="0.25" x1="428.1" y1="457.8" x2="421.4" y2="452.6"/>
<line fill="none" stroke="#000000" stroke-width="0.25" x1="438.5" y1="365.8" x2="405.5" y2="343.3"/>
<line fill="none" stroke="#000000" stroke-width="0.25" x1="436.3" y1="347.6" x2="404" y2="326.6"/>
<line fill="none" stroke="#000000" stroke-width="0.25" x1="432.9" y1="330.9" x2="401.6" y2="311.8"/>
<line fill="none" stroke="#000000" stroke-width="0.25" x1="423.8" y1="308.9" x2="399.7" y2="295.9"/>
<line fill="none" stroke="#000000" stroke-width="0.25" x1="410.9" y1="286.5" x2="397.3" y2="278.8"/>
<line fill="none" stroke="#000000" stroke-width="0.25" x1="384.7" y1="390.1" x2="408.4" y2="360.3"/>
<line fill="none" stroke="#000000" stroke-width="0.25" x1="389.9" y1="405.9" x2="411.1" y2="379.1"/>
<line fill="none" stroke="#000000" stroke-width="0.25" x1="396.8" y1="421.8" x2="413.4" y2="397.5"/>
<line fill="none" stroke="#000000" stroke-width="0.25" x1="404.3" y1="434.2" x2="416.2" y2="415.8"/>
<line fill="none" stroke="#000000" stroke-width="0.25" x1="411" y1="445.7" x2="418.6" y2="434.6"/>
<line fill="none" stroke="#000000" stroke-width="0.25" x1="417.6" y1="459.2" x2="421.4" y2="452.6"/>
<line fill="none" stroke="#000000" stroke-width="0.25" x1="378.2" y1="372.5" x2="405.5" y2="343.3"/>
<line fill="none" stroke="#000000" stroke-width="0.25" x1="376.4" y1="354.9" x2="403.5" y2="326.7"/>
<line fill="none" stroke="#000000" stroke-width="0.25" x1="376.2" y1="337.1" x2="401.6" y2="311.8"/>
<line fill="none" stroke="#000000" stroke-width="0.25" x1="378.5" y1="317" x2="399.2" y2="296"/>
<line fill="none" stroke="#000000" stroke-width="0.25" x1="384.7" y1="291.5" x2="396.8" y2="278.9"/>
<line fill="none" stroke="#000000" stroke-width="0.25" x1="515.4" y1="453.5" x2="484" y2="274.9"/>
<line fill="none" stroke="#000000" stroke-width="0.25" x1="529.3" y1="376.7" x2="498.6" y2="357.4"/>
<line fill="none" stroke="#000000" stroke-width="0.25" x1="528.2" y1="392.3" x2="501.7" y2="375.1"/>
<line fill="none" stroke="#000000" stroke-width="0.25" x1="529.6" y1="407.8" x2="505.3" y2="392.4"/>
<line fill="none" stroke="#000000" stroke-width="0.25" x1="525.8" y1="421.3" x2="508.1" y2="409.7"/>
<line fill="none" stroke="#000000" stroke-width="0.25" x1="524.7" y1="436.9" x2="511.1" y2="427.5"/>
<line fill="none" stroke="#000000" stroke-width="0.25" x1="520.4" y1="449.3" x2="513.8" y2="444.6"/>
<line fill="none" stroke="#000000" stroke-width="0.25" x1="527.3" y1="361.6" x2="495.3" y2="341.3"/>
<line fill="none" stroke="#000000" stroke-width="0.25" x1="524.6" y1="344.4" x2="493.3" y2="325.5"/>
<line fill="none" stroke="#000000" stroke-width="0.25" x1="520.9" y1="328.6" x2="490.6" y2="311.5"/>
<line fill="none" stroke="#000000" stroke-width="0.25" x1="511.5" y1="308.1" x2="488.2" y2="296.5"/>
<line fill="none" stroke="#000000" stroke-width="0.25" x1="498.6" y1="287.2" x2="485.4" y2="280.3"/>
<line fill="none" stroke="#000000" stroke-width="0.25" x1="477" y1="386.4" x2="498.6" y2="357.4"/>
<line fill="none" stroke="#000000" stroke-width="0.25" x1="482.5" y1="401.2" x2="501.7" y2="375.1"/>
<line fill="none" stroke="#000000" stroke-width="0.25" x1="489.6" y1="416.1" x2="504.5" y2="392.5"/>
<line fill="none" stroke="#000000" stroke-width="0.25" x1="497" y1="427.6" x2="507.7" y2="409.8"/>
<line fill="none" stroke="#000000" stroke-width="0.25" x1="503.7" y1="438.4" x2="510.6" y2="427.6"/>
<line fill="none" stroke="#000000" stroke-width="0.25" x1="510.4" y1="451" x2="513.8" y2="444.6"/>
<line fill="none" stroke="#000000" stroke-width="0.25" x1="470.3" y1="369.9" x2="495.3" y2="341.3"/>
<line fill="none" stroke="#000000" stroke-width="0.25" x1="468" y1="353.3" x2="492.8" y2="325.6"/>
<line fill="none" stroke="#000000" stroke-width="0.25" x1="467.3" y1="336.4" x2="490.6" y2="311.5"/>
<line fill="none" stroke="#000000" stroke-width="0.25" x1="468.8" y1="317.2" x2="487.8" y2="296.6"/>
<line fill="none" stroke="#000000" stroke-width="0.25" x1="473.8" y1="292.8" x2="484.9" y2="280.4"/>
<line fill="none" stroke="#000000" stroke-width="0.25" x1="192.7" y1="59" x2="255.7" y2="233.7"/>
<line fill="none" stroke="#000000" stroke-width="0.25" x1="245.6" y1="121.9" x2="227.7" y2="155.6"/>
<line fill="none" stroke="#000000" stroke-width="0.25" x1="236.4" y1="108.2" x2="221.2" y2="137.7"/>
<line fill="none" stroke="#000000" stroke-width="0.25" x1="229.6" y1="93.3" x2="215.4" y2="120.2"/>
<line fill="none" stroke="#000000" stroke-width="0.25" x1="219.1" y1="82.9" x2="208.9" y2="102.8"/>
<line fill="none" stroke="#000000" stroke-width="0.25" x1="209.9" y1="69.3" x2="202.4" y2="85"/>
<line fill="none" stroke="#000000" stroke-width="0.25" x1="199.5" y1="60.2" x2="195.9" y2="67.9"/>
<line fill="none" stroke="#000000" stroke-width="0.25" x1="251.7" y1="136.7" x2="233.1" y2="172"/>
<line fill="none" stroke="#000000" stroke-width="0.25" x1="258.2" y1="153.9" x2="239.5" y2="187.5"/>
<line fill="none" stroke="#000000" stroke-width="0.25" x1="263.1" y1="170.2" x2="244.3" y2="201.7"/>
<line fill="none" stroke="#000000" stroke-width="0.25" x1="265.3" y1="193.8" x2="250" y2="216.6"/>
<line fill="none" stroke="#000000" stroke-width="0.25" x1="264.3" y1="219.7" x2="255.9" y2="232.9"/>
<line fill="none" stroke="#000000" stroke-width="0.25" x1="192.7" y1="140.3" x2="227.7" y2="155.6"/>
<line fill="none" stroke="#000000" stroke-width="0.25" x1="190" y1="124" x2="221.2" y2="137.7"/>
<line fill="none" stroke="#000000" stroke-width="0.25" x1="214.7" y1="120.4" x2="188.7" y2="106.7"/>
<line fill="none" stroke="#000000" stroke-width="0.25" x1="189.5" y1="92.2" x2="208.6" y2="103"/>
<line fill="none" stroke="#000000" stroke-width="0.25" x1="190" y1="78.9" x2="201.9" y2="85.2"/>
<line fill="none" stroke="#000000" stroke-width="0.25" x1="189.5" y1="63.9" x2="195.9" y2="67.9"/>
<line fill="none" stroke="#000000" stroke-width="0.25" x1="195.2" y1="158.9" x2="233.1" y2="172"/>
<line fill="none" stroke="#000000" stroke-width="0.25" x1="201.8" y1="175.3" x2="239" y2="187.7"/>
<line fill="none" stroke="#000000" stroke-width="0.25" x1="210" y1="191.1" x2="244.3" y2="201.7"/>
<line fill="none" stroke="#000000" stroke-width="0.25" x1="221.4" y1="207.9" x2="249.6" y2="216.8"/>
<line fill="none" stroke="#000000" stroke-width="0.25" x1="238.8" y1="227.5" x2="255.4" y2="233"/>
<line fill="none" stroke="#000000" stroke-width="0.25" x1="312.7" y1="38.2" x2="328.9" y2="223.3"/>
<line fill="none" stroke="#000000" stroke-width="0.25" x1="347.8" y1="112.6" x2="321.8" y2="140.6"/>
<line fill="none" stroke="#000000" stroke-width="0.25" x1="342.4" y1="97" x2="320.1" y2="121.6"/>
<line fill="none" stroke="#000000" stroke-width="0.25" x1="339.6" y1="80.8" x2="319.1" y2="103.2"/>
<line fill="none" stroke="#000000" stroke-width="0.25" x1="332.1" y1="68.1" x2="317.2" y2="84.8"/>
<line fill="none" stroke="#000000" stroke-width="0.25" x1="326.7" y1="52.5" x2="315.4" y2="65.8"/>
<line fill="none" stroke="#000000" stroke-width="0.25" x1="319" y1="41.2" x2="313.5" y2="47.7"/>
<line fill="none" stroke="#000000" stroke-width="0.25" x1="349.9" y1="128.4" x2="322.9" y2="157.8"/>
<line fill="none" stroke="#000000" stroke-width="0.25" x1="351.8" y1="146.7" x2="325.1" y2="174.4"/>
<line fill="none" stroke="#000000" stroke-width="0.25" x1="352.3" y1="163.7" x2="326.2" y2="189.4"/>
<line fill="none" stroke="#000000" stroke-width="0.25" x1="348.4" y1="187.1" x2="327.8" y2="205.3"/>
<line fill="none" stroke="#000000" stroke-width="0.25" x1="340.9" y1="211.9" x2="329.4" y2="222.5"/>
<line fill="none" stroke="#000000" stroke-width="0.25" x1="291.9" y1="116.9" x2="321.8" y2="140.6"/>
<line fill="none" stroke="#000000" stroke-width="0.25" x1="293.5" y1="100.3" x2="320.1" y2="121.6"/>
<line fill="none" stroke="#000000" stroke-width="0.25" x1="318.2" y1="103.2" x2="296.6" y2="83.3"/>
<line fill="none" stroke="#000000" stroke-width="0.25" x1="301.1" y1="69.5" x2="316.9" y2="84.8"/>
<line fill="none" stroke="#000000" stroke-width="0.25" x1="305" y1="56.8" x2="314.9" y2="65.9"/>
<line fill="none" stroke="#000000" stroke-width="0.25" x1="308.4" y1="42.1" x2="313.5" y2="47.7"/>
<line fill="none" stroke="#000000" stroke-width="0.25" x1="289.6" y1="135.5" x2="322.9" y2="157.8"/>
<line fill="none" stroke="#000000" stroke-width="0.25" x1="291.8" y1="153" x2="324.6" y2="174.5"/>
<line fill="none" stroke="#000000" stroke-width="0.25" x1="295.7" y1="170.4" x2="326.2" y2="189.4"/>
<line fill="none" stroke="#000000" stroke-width="0.25" x1="302.4" y1="189.6" x2="327.3" y2="205.3"/>
<line fill="none" stroke="#000000" stroke-width="0.25" x1="314.2" y1="212.9" x2="328.9" y2="222.5"/>
<line fill="none" stroke="#000000" stroke-width="0.25" x1="423.5" y1="59.1" x2="397.5" y2="243"/>
<line fill="none" stroke="#000000" stroke-width="0.25" x1="440.9" y1="139.5" x2="409.2" y2="160.9"/>
<line fill="none" stroke="#000000" stroke-width="0.25" x1="439.1" y1="123.1" x2="411.9" y2="142.1"/>
<line fill="none" stroke="#000000" stroke-width="0.25" x1="440.1" y1="106.7" x2="415" y2="123.8"/>
<line fill="none" stroke="#000000" stroke-width="0.25" x1="435.6" y1="92.6" x2="417.3" y2="105.5"/>
<line fill="none" stroke="#000000" stroke-width="0.25" x1="433.9" y1="76.2" x2="419.9" y2="86.6"/>
<line fill="none" stroke="#000000" stroke-width="0.25" x1="429" y1="63.4" x2="422.2" y2="68.5"/>
<line fill="none" stroke="#000000" stroke-width="0.25" x1="439.3" y1="155.4" x2="406.4" y2="177.9"/>
<line fill="none" stroke="#000000" stroke-width="0.25" x1="437.1" y1="173.6" x2="404.8" y2="194.6"/>
<line fill="none" stroke="#000000" stroke-width="0.25" x1="433.7" y1="190.3" x2="402.4" y2="209.4"/>
<line fill="none" stroke="#000000" stroke-width="0.25" x1="424.6" y1="212.3" x2="400.5" y2="225.3"/>
<line fill="none" stroke="#000000" stroke-width="0.25" x1="411.7" y1="234.7" x2="398.1" y2="242.4"/>
<line fill="none" stroke="#000000" stroke-width="0.25" x1="385.5" y1="131" x2="409.2" y2="160.9"/>
<line fill="none" stroke="#000000" stroke-width="0.25" x1="390.7" y1="115.3" x2="411.9" y2="142.1"/>
<line fill="none" stroke="#000000" stroke-width="0.25" x1="414.2" y1="123.7" x2="397.7" y2="99.4"/>
<line fill="none" stroke="#000000" stroke-width="0.25" x1="405.1" y1="87" x2="417" y2="105.4"/>
<line fill="none" stroke="#000000" stroke-width="0.25" x1="411.8" y1="75.5" x2="419.4" y2="86.6"/>
<line fill="none" stroke="#000000" stroke-width="0.25" x1="418.4" y1="61.9" x2="422.2" y2="68.5"/>
<line fill="none" stroke="#000000" stroke-width="0.25" x1="379" y1="148.6" x2="406.4" y2="177.9"/>
<line fill="none" stroke="#000000" stroke-width="0.25" x1="377.2" y1="166.2" x2="404.3" y2="194.5"/>
<line fill="none" stroke="#000000" stroke-width="0.25" x1="377" y1="184" x2="402.4" y2="209.4"/>
<line fill="none" stroke="#000000" stroke-width="0.25" x1="379.3" y1="204.2" x2="400" y2="225.2"/>
<line fill="none" stroke="#000000" stroke-width="0.25" x1="385.5" y1="229.7" x2="397.6" y2="242.3"/>
<line fill="none" stroke="#000000" stroke-width="0.25" x1="516.3" y1="67.9" x2="485.7" y2="241.7"/>
<line fill="none" stroke="#000000" stroke-width="0.25" x1="530.2" y1="144.8" x2="499.5" y2="164.1"/>
<line fill="none" stroke="#000000" stroke-width="0.25" x1="529.1" y1="129.2" x2="502.6" y2="146.3"/>
<line fill="none" stroke="#000000" stroke-width="0.25" x1="530.5" y1="113.7" x2="506.2" y2="129.1"/>
<line fill="none" stroke="#000000" stroke-width="0.25" x1="526.8" y1="100.1" x2="509" y2="111.8"/>
<line fill="none" stroke="#000000" stroke-width="0.25" x1="525.6" y1="84.5" x2="512" y2="94"/>
<line fill="none" stroke="#000000" stroke-width="0.25" x1="521.3" y1="72.2" x2="514.7" y2="76.8"/>
<line fill="none" stroke="#000000" stroke-width="0.25" x1="528.2" y1="159.9" x2="496.2" y2="180.2"/>
<line fill="none" stroke="#000000" stroke-width="0.25" x1="525.5" y1="177.1" x2="494.2" y2="196"/>
<line fill="none" stroke="#000000" stroke-width="0.25" x1="521.8" y1="192.8" x2="491.5" y2="210"/>
<line fill="none" stroke="#000000" stroke-width="0.25" x1="512.5" y1="213.4" x2="489.1" y2="225"/>
<line fill="none" stroke="#000000" stroke-width="0.25" x1="499.5" y1="234.3" x2="485.4" y2="245.7"/>
<line fill="none" stroke="#000000" stroke-width="0.25" x1="477.9" y1="135" x2="499.5" y2="164.1"/>
<line fill="none" stroke="#000000" stroke-width="0.25" x1="483.4" y1="120.2" x2="502.6" y2="146.3"/>
<line fill="none" stroke="#000000" stroke-width="0.25" x1="505.4" y1="129" x2="490.5" y2="105.4"/>
<line fill="none" stroke="#000000" stroke-width="0.25" x1="498" y1="93.8" x2="508.7" y2="111.7"/>
<line fill="none" stroke="#000000" stroke-width="0.25" x1="504.7" y1="83.1" x2="511.5" y2="93.9"/>
<line fill="none" stroke="#000000" stroke-width="0.25" x1="511.7" y1="66" x2="514.7" y2="76.8"/>
<line fill="none" stroke="#000000" stroke-width="0.25" x1="471.2" y1="151.5" x2="496.2" y2="180.2"/>
<line fill="none" stroke="#000000" stroke-width="0.25" x1="467.1" y1="168.9" x2="493.7" y2="195.9"/>
<line fill="none" stroke="#000000" stroke-width="0.25" x1="466.3" y1="186.7" x2="491.5" y2="210"/>
<line fill="none" stroke="#000000" stroke-width="0.25" x1="469.7" y1="204.3" x2="488.7" y2="224.9"/>
<line fill="none" stroke="#000000" stroke-width="0.25" x1="474.8" y1="228.7" x2="484.9" y2="245.6"/>
<line fill="none" stroke="#000000" stroke-width="0.25" x1="596.4" y1="430.1" x2="571.3" y2="287.2"/>
<line fill="none" stroke="#000000" stroke-width="0.25" x1="607.5" y1="368.6" x2="583" y2="353.2"/>
<line fill="none" stroke="#000000" stroke-width="0.25" x1="606.6" y1="381.1" x2="585.5" y2="367.4"/>
<line fill="none" stroke="#000000" stroke-width="0.25" x1="607.8" y1="393.5" x2="588.3" y2="381.2"/>
<line fill="none" stroke="#000000" stroke-width="0.25" x1="604.8" y1="404.3" x2="590.6" y2="395"/>
<line fill="none" stroke="#000000" stroke-width="0.25" x1="603.9" y1="416.8" x2="593" y2="409.3"/>
<line fill="none" stroke="#000000" stroke-width="0.25" x1="600.4" y1="426.7" x2="595.2" y2="423"/>
<line fill="none" stroke="#000000" stroke-width="0.25" x1="606" y1="356.6" x2="580.4" y2="340.3"/>
<line fill="none" stroke="#000000" stroke-width="0.25" x1="603.8" y1="342.8" x2="578.7" y2="327.7"/>
<line fill="none" stroke="#000000" stroke-width="0.25" x1="600.8" y1="330.2" x2="576.6" y2="316.5"/>
<line fill="none" stroke="#000000" stroke-width="0.25" x1="593.3" y1="313.7" x2="574.7" y2="304.5"/>
<line fill="none" stroke="#000000" stroke-width="0.25" x1="583" y1="297" x2="572.4" y2="291.6"/>
<line fill="none" stroke="#000000" stroke-width="0.25" x1="565.7" y1="376.4" x2="583" y2="353.2"/>
<line fill="none" stroke="#000000" stroke-width="0.25" x1="570.1" y1="388.3" x2="585.5" y2="367.4"/>
<line fill="none" stroke="#000000" stroke-width="0.25" x1="575.8" y1="400.1" x2="587.7" y2="381.3"/>
<line fill="none" stroke="#000000" stroke-width="0.25" x1="581.7" y1="409.4" x2="590.3" y2="395.1"/>
<line fill="none" stroke="#000000" stroke-width="0.25" x1="587.1" y1="418" x2="592.6" y2="409.3"/>
<line fill="none" stroke="#000000" stroke-width="0.25" x1="592.5" y1="428.1" x2="595.2" y2="423"/>
<line fill="none" stroke="#000000" stroke-width="0.25" x1="560.3" y1="363.2" x2="580.4" y2="340.3"/>
<line fill="none" stroke="#000000" stroke-width="0.25" x1="558.5" y1="349.9" x2="578.4" y2="327.7"/>
<line fill="none" stroke="#000000" stroke-width="0.25" x1="557.9" y1="336.4" x2="576.6" y2="316.5"/>
<line fill="none" stroke="#000000" stroke-width="0.25" x1="559.1" y1="321" x2="574.3" y2="304.5"/>
<line fill="none" stroke="#000000" stroke-width="0.25" x1="563.2" y1="301.5" x2="572.1" y2="291.6"/>
<line fill="none" stroke="#000000" stroke-width="0.25" x1="594.9" y1="100.7" x2="569.7" y2="243.6"/>
<line fill="none" stroke="#000000" stroke-width="0.25" x1="563.4" y1="154.7" x2="581.2" y2="177.6"/>
<line fill="none" stroke="#000000" stroke-width="0.25" x1="568.6" y1="143.2" x2="583.8" y2="163.4"/>
<line fill="none" stroke="#000000" stroke-width="0.25" x1="571.8" y1="131.2" x2="585.8" y2="149.5"/>
<line fill="none" stroke="#000000" stroke-width="0.25" x1="578.3" y1="122.1" x2="588.5" y2="135.7"/>
<line fill="none" stroke="#000000" stroke-width="0.25" x1="583.4" y1="110.6" x2="591" y2="121.5"/>
<line fill="none" stroke="#000000" stroke-width="0.25" x1="590" y1="102.5" x2="593.7" y2="107.8"/>
<line fill="none" stroke="#000000" stroke-width="0.25" x1="560.8" y1="166.6" x2="579.3" y2="190.6"/>
<line fill="none" stroke="#000000" stroke-width="0.25" x1="558.1" y1="180.2" x2="576.5" y2="203"/>
<line fill="none" stroke="#000000" stroke-width="0.25" x1="556.6" y1="193.1" x2="574.7" y2="214.3"/>
<line fill="none" stroke="#000000" stroke-width="0.25" x1="558" y1="211.1" x2="572.4" y2="226.2"/>
<line id="www.ABC-color.com" fill="none" stroke="#000000" stroke-width="0.25" x1="562.1" y1="230.4" x2="570.1" y2="239.1"/>
<line fill="none" stroke="#000000" stroke-width="0.25" x1="605.4" y1="161.7" x2="581.2" y2="177.6"/>
<line fill="none" stroke="#000000" stroke-width="0.25" x1="605.4" y1="149" x2="583.8" y2="163.4"/>
<line fill="none" stroke="#000000" stroke-width="0.25" x1="604.1" y1="135.9" x2="586.4" y2="149.6"/>
<line fill="none" stroke="#000000" stroke-width="0.25" x1="601.6" y1="125.2" x2="588.7" y2="135.7"/>
<line fill="none" stroke="#000000" stroke-width="0.25" x1="599.5" y1="115.3" x2="591.4" y2="121.5"/>
<line fill="none" stroke="#000000" stroke-width="0.25" x1="598" y1="104" x2="593.7" y2="107.8"/>
<line fill="none" stroke="#000000" stroke-width="0.25" x1="606" y1="175.9" x2="579.3" y2="190.6"/>
<line fill="none" stroke="#000000" stroke-width="0.25" x1="603.1" y1="189" x2="576.9" y2="203.1"/>
<line fill="none" stroke="#000000" stroke-width="0.25" x1="599" y1="201.9" x2="574.7" y2="214.3"/>
<line fill="none" stroke="#000000" stroke-width="0.25" x1="592.7" y1="216" x2="572.8" y2="226.3"/>
<line fill="none" stroke="#000000" stroke-width="0.25" x1="582.2" y1="232.9" x2="570.5" y2="239.2"/>
</svg>
