<?xml version="1.0" encoding="utf-8"?>
<!-- Generator: Adobe Illustrator 15.0.0, SVG Export Plug-In . SVG Version: 6.00 Build 0)  -->
<!DOCTYPE svg PUBLIC "-//W3C//DTD SVG 1.1//EN" "http://www.w3.org/Graphics/SVG/1.1/DTD/svg11.dtd">
<svg version="1.1" id="layer_x5F_www.ABC-color.com"
	 xmlns="http://www.w3.org/2000/svg" xmlns:xlink="http://www.w3.org/1999/xlink" x="0px" y="0px" width="822px" height="567px"
	 viewBox="0 0 822 567" enable-background="new 0 0 822 567" xml:space="preserve">
<path fill="#FFFFFF" stroke="#000000" d="M491.9,180.9C503,185.3,514.8,194.6,511,213c-10,8.8-17.2,16.2-22.1,22.6
	C482.1,228,475,220.4,474.6,221.2c3-6.8,12.302-27.4,16.602-37.1C491.5,183,491.7,182,491.9,180.9z"/>
<path fill="#FFFFFF" stroke="#000000" d="M497,272c-7.9,5.7-13.8,10.5-18.1,14.8c-8-6-26.102-18.6-25.302-20.2
	c4.5-9.4,9.4-19.7,14.9-31.4c3.7-7.8,9.2-4,18.2,3.5C465.1,269,497,272,497,272z"/>
<path fill="#FFFFFF" stroke="#000000" d="M477,177.2c0,0,1.2,0.2,3.1,0.6c-4.698,13.3-9.5,26-14.398,38.1
	c-1.102,2.7-24.3,3.1-21.7,4.1c16,6,16.7,9.4,16,11c-3.8,9-12.7,26.7-16.5,35.1c-0.9,2-11.6,3.6-17.8,2.3
	c-2.3-0.5-5.2-0.1-5.602-0.2l-2.898-0.3c4.2-35.2,17.8-67.6,38.7-96c1.5,0.2,4.198,0.4,5.8,0.6L477,177.2z"/>
<path fill="#FFFFFF" stroke="#000000" d="M420.2,268.2c1.7,0.4,21.2,4.6,20.2,6.9c-1.302,2.6-6.302,11.5-11.2,20.3
	c-4.4-2.9-9.2-6.7-13.2-11.4c0.2-5.4,0.6-10.8,1.3-16.1L420.2,268.2z"/>
<path fill="#FFFFFF" stroke="#000000" d="M414.9,321.4c1.198-2.4,5.198-9.801,10-18.4c2.898,3.2,5.198,6.2,5.198,8
	c-6.198,4.2-10.898,8.2-14.8,12.3C415.1,322.6,415,322,414.9,321.4z"/>
<path fill="#FFFFFF" stroke="#000000" d="M448,277.9c0.7-1.5,14.1,6,29.1,10.6c-4.1,4.2-6.5,7.8-7.898,11.1
	c-9.102-1.5-18.5,0.7-25.3,3.4c0,0-2.602-0.9-6.4-2.8C441.4,292.3,445.2,283.5,448,277.9z"/>
<path fill="#FFFFFF" stroke="#000000" d="M412,291c0,0,7.5,6.2,12.8,12c-4.8,8.5-8.8,16-10,18.4c-0.3-1.301-0.6-2.4-0.898-3.4
	c-0.7-2.1-1.302-4.2-2-6.1V291H412z"/>
<path fill="#FFFFFF" stroke="#000000" d="M427.1,175.6c3-2.1,5.9-3.1,11.9-4c-21.7,32.5-34,69.3-34,108.4l-2.1,12.1
	c-23.9-39.3-56.302-7.898-63.5,0c-2.102,0-4.2,0.102-6.4,0.2c-4.6,0.3-13,2.3-20.4,4.4c6-4.9,16.7-11,31-16.7c0,0-1.8-0.9-5.3-3.9
	c5.3-5.1,11.3-16.1,17.5-36.7c0,0,28.3,43.5,61.102-50.3c0,0,6.6,6.4,9.8-13.5H427.1z"/>
<path fill="#FFFFFF" stroke="#000000" d="M312.7,296.7c7.398-2.101,15.8-4,20.398-4.4c2.102-0.1,4.302-0.2,6.4-0.2
	c0.1,0,0.1,0,0.2,0c3.2,0,6.3,0.2,9.398,0.301c15.302,1,26.302,13.399,29.9,32.5c3.9,20.801,5.3,34.5-6.1,45
	c-6.2,5.801-15.9,10.601-30.302,15c-14.698,4.5-33.5,8-50.2,6.101c-16.9-2-31.7-9.5-38.2-27c-9.3-25.101,18-53,48-64
	C304.6,299,308.5,297.8,312.7,296.7z"/>
<path id="ABC-color.com" fill="#FFFFFF" stroke="#000000" d="M349,292.4c-3.1-0.2-6.2-0.301-9.4-0.301c-0.1,0-0.1,0-0.198,0
	c7.3-7.899,39.6-39.301,63.5,0c3.198,5.301,6.3,11.801,9.1,19.801c0.7,1.898,1.3,4,2,6.1c0.3,1,0.6,2.1,0.9,3.4
	c0.1,0.6,0.3,1.199,0.398,1.898c1.9,10.602,1.8,28.301-10.3,38.602c-2.1,1.699-4.5,3.3-7.3,4.5c-2.4,1.1-5,1.898-7.9,2.5
	c-4.8,1-10.398,1.398-17,1c11.3-10.5,10-24.2,6.102-45C375.2,305.8,364.3,293.4,349,292.4z"/>
<path fill="#FFFFFF" stroke="#000000" d="M386.2,387.3c-0.5,1,17.8,15.7,17.1,16.602c-0.7,0.898-19.7-11.501-20.2-10.501
	c-5.3,10.501-11.398,22.101-18.3,35.199c-0.7,1.302,5.5,21.7,4.8,23.102c-1,2-9-15.102-10.1-13C330,509,329,508,350.1,440.1
	c0.602-1.8-13.8,1.302-12.6-0.3c1.7-2.398,16.5-7.2,19.1-10.398c4.4-5.5,10.5-13.302,18.2-30.102c1-2.3-32.2,1.5-31.1-1.1
	c0.7-1.7,38.6-12.3,39.398-14.101c1.5-3.699,3.9-9,6.802-15.101c2.898-0.601,5.6-1.5,7.898-2.5C393.7,373.4,389.3,381.3,386.2,387.3
	z"/>
<path fill="#FFFFFF" stroke="#000000" d="M431.3,385.3c0.602,2.3,1.3,4.7,2.102,7.101c2.3,6.801,10.898,21.699,15.398,28.101
	c6.5,9.2,14.8,17.6,24,23.9c-7.5,33.1-22.6,72.698-47.7,33.198c0,0-54.8,71.802-53.1,12.7c0,0-91.3,82.3-63.7-28.7
	c-11.6-0.6-50-6.698-1.5-60c0,0-8.1-3-14.5-10.699c16.8,2,35.5-1.5,50.2-6.101c14.5-4.5,24.2-9.3,30.3-15c6.602,0.4,12.2,0,17-1
	c-2.898,6-5.3,11.4-6.8,15.101c-0.8,1.899-38.6,12.399-39.4,14.101c-1.1,2.6,32.2-1.2,31.102,1.1
	c-7.602,16.8-13.801,24.6-18.201,30.1c-2.6,3.2-17.4,8-19.1,10.398C336.3,441.2,350.6,438.1,350,439.9c-21,68.1-20,69.1,9.6-1.2
	c1.102-2,9.102,15,10.102,13c0.7-1.4-5.5-21.7-4.8-23.102C371.8,415.4,377.8,403.9,383.2,393.4c0.5-1,19.5,11.398,20.2,10.5
	C404.1,403,385.8,388.3,386.3,387.3c3-6,7.5-14,11.4-20.899c2.8-1.301,5.2-2.801,7.3-4.5c6.1,12.801,20.7,20.5,26.1,23.301
	l0.2-0.102C431.2,385.2,431.3,385.3,431.3,385.3z"/>
<path fill="#FFFFFF" stroke="#000000" d="M430.1,311c2.102-1.5,4.4-3,6.9-4.5c1.7-1.1,4.1-2.3,7-3.5c6.8-2.7,16.1-4.9,25.3-3.4
	C481.6,301.7,493.4,310.5,498,334c-13-8-26.1-4.2-45,4.9c-17.5,8.398-26.8,22.1-23.8,37.199c0.6,3,1.3,6,2,9.101l-0.2,0.1
	c-5.3-2.8-20-10.5-26.1-23.3c12.198-10.3,12.198-28,10.3-38.6C419.2,319.1,423.9,315.2,430.1,311z"/>
<path fill="#FFFFFF" stroke="#000000" d="M498,334c0.1,0.1,0.2,0.1,0.3,0.2c7.102,4.5,14.3,12.6,22.3,25.5
	C536.9,385.8,553.5,429,522.9,450.6c-3.4,2.4-7.2,4-11.102,4.802c-12.3,2.6-26.398-2.2-39.1-11c-9.102-6.302-17.5-14.7-24-23.9
	c-4.4-6.3-13-21.3-15.4-28.101c-0.8-2.399-1.5-4.699-2.1-7.101c0-0.1,0-0.1-0.102-0.2c-0.8-3.1-1.398-6.1-2-9.1
	c-3-15.1,6.302-28.8,23.802-37.2C471.9,329.8,485,326,498,334z"/>
<path fill="#FFFFFF" stroke="#000000" d="M511,213c3.6-3.2,7.6-6.5,12-10c0,0-21.4-17.3,23-33c4.9,13.1,9.2,25.8,13.1,38
	c0.802,2.4-48.8,64.6-48.1,67c0.5,1.5,51.3-56.7,51.8-55.2c2.5,8.3,7.2,27.4,9.3,35.2c0.5,1.9-51.698,56.7-47,54
	c7-4,49.302-48.7,50-46c1.4,5.8,6.802,41.5,8,47c0.4,1.7-36.3,36.3-36,38c0.5,2.3,36.602-30.3,37-28c3.102,15.7,5,28.4,6.2,38.8
	c0.2,1.8-28.398,25.601-28.2,27.2c0.2,2.5,27.802-14.2,28-12c1.102,16.3-0.698,24.9-2,31c-0.8,3.6-11.6,13.4-12,16
	c-0.3,1.8,11.5-6.6,11.302-5c-11.5,83.5,7.698-5,7.698-5c0-2,15,8,15,6c0-1.3-15-14.7-15-16c0-13.1-0.1-24.6-0.3-35
	c0-1,29.3,8,29.3,7S594.7,361,594.7,360c-0.4-17.2-1.102-31.3-2.602-44.9c-0.3-3,36.302,2.9,36-0.1c-0.5-3.7-34.398-4.3-35-8
	c-1.698-10.6-7.398-33.6-10.198-46.2C582.6,259.2,601.1,257,617.1,251c1.9-0.7-36.198,1-36.698-1.1c-2.102-9-4.5-18.9-7.302-29.9
	c-2.698-10.8-3-3,35-7c1.7-0.2-38.198-4.5-38.6-6.1c-2.8-10.6-5.9-22.1-9.4-34.9c-0.5-1.5-1-2.9-1.5-4.4c0,0,53.5-15.6,50.5,35.4
	c0,0,30.7,7.4,46,17c11.7,7.4,14.4,16.2-13,24c0,0,94,69,24,62c0,0,69,79,4,67c0,0,47,121-16,85c0,0-15,89-41,36
	c0,0-42.398,115.4-69.698,4.3c-10,4.602-44,16.3-31.5-43c3.898-0.8,7.698-2.398,11.1-4.8c30.5-21.5,13.9-64.7-2.3-90.9
	c-8-12.898-15.102-21-22.3-25.5c-0.102-0.1-0.2-0.1-0.302-0.199c-4.6-23.5-16.5-32.301-28.698-34.399
	c1.398-3.3,3.8-6.899,7.898-11.101c0.5-0.601,1.102-1.101,1.7-1.699c4.3-4.2,10.2-9,18.1-14.8c0,0-31.898-3-10.3-33.4
	c0.7-1,1.4-2,2.3-3.1C493.9,229.2,501,221.8,511,213z"/>
<path fill="#FFFFFF" stroke="#000000" d="M628,315c0.4,3-36.3-2.9-36,0.1c1.4,13.602,2.2,27.7,2.6,44.9c0,1,29.4,12,29.4,13
	s-29.3-8-29.3-7c0.2,10.4,0.3,21.9,0.3,35c0,1.3,15,14.7,15,16c0,2-15-8-15-6c0,0-19.3,88.5-7.7,5c0.2-1.6-11.5,6.7-11.3,5
	c0.4-2.6,11.2-12.4,12-16c1.3-6.1,3.1-14.7,2-31c-0.2-2.2-27.8,14.5-28,12c-0.2-1.7,28.4-25.4,28.2-27.2
	C589,348.4,587.1,335.7,584,320c-0.4-2.3-36.5,30.3-37,28c-0.3-1.7,36.4-36.3,36-38c-1.2-5.5-6.6-41.2-8-47c-0.7-2.7-43,42-50,46
	c-4.7,2.7,47.5-52.1,47-54c-2.1-7.9-6.8-26.9-9.3-35.2c-0.5-1.5-51.3,56.8-51.8,55.2c-0.7-2.4,48.898-64.6,48.1-67
	c-3.9-12.2-8.2-24.9-13.1-38c0,0-20.302-56.4-17.302-64.4c4.302-2.7,9-5.3,14-7.9c1.102,9.4,4.4,36.6,15.7,69.9
	c0.5,1.5,1,2.9,1.5,4.4c3.5,12.8,6.602,24.3,9.4,34.9c0.398,1.7,40.3,5.9,38.6,6.1c-38,4-37.7-3.8-35,7c2.8,11,5.2,20.9,7.3,29.9
	c0.5,2.1,38.602,0.3,36.7,1.1c-16,6-34.6,8.3-34.2,9.8c2.802,12.6,8.602,35.601,10.2,46.2C593.6,310.8,627.5,311.3,628,315z"/>
<path fill="#FFFFFF" stroke="#000000" d="M477.1,288.5c-15-4.7-28.398-12.1-29.1-10.6c-2.8,5.7-6.6,14.4-10.5,22.3
	c-2.4-1.2-5.4-2.8-8.4-4.8c5-8.801,10-17.602,11.2-20.3c1-2.2-18.5-6.5-20.2-6.9c0.4,0.1,3.302-0.3,5.602,0.2
	c6.1,1.2,16.898-0.3,17.8-2.3c3.8-8.3,12.7-26,16.5-35.1c0.7-1.6,0-5-16-11c-2.6-1,20.6-1.5,21.7-4.1
	c4.898-12.1,9.7-24.8,14.398-38.1c0.5-1.4,1-2.7,1.4-4.1c0,0,8.7-25.8,16.9-45.4c4.5-10.6,8.8-19.5,11.6-21.3c0,0,2.8-3.6,18.7-1.4
	c-3.7,4.1-27.5,31.8-36.8,75.3c-0.2,1-0.4,2.1-0.7,3.1c-4.3,9.8-13.602,30.4-16.602,37.1c0.302-0.8,7.5,6.8,14.302,14.4
	c-0.802,1-1.602,2.1-2.302,3.1c-9-7.5-14.5-11.3-18.198-3.5c-5.5,11.6-10.302,22-14.9,31.4c-0.8,1.6,17.3,14.2,25.3,20.2
	C478.3,287.3,477.7,287.9,477.1,288.5z"/>
<path fill="#FFFFFF" stroke="#000000" d="M542.8,97.7c-5.1,2.6-9.8,5.2-14,7.9c0.3-0.3,0.4-0.4,0.5-0.5c-0.1,0-0.2,0.2-0.5,0.5
	c-16-2.2-18.7,1.4-18.7,1.4c-2.8,1.9-7.1,10.7-11.6,21.3l-0.6-0.2c-16,13.1-30.102,27.8-41.9,43.8c-20.9,28.4-34.4,60.8-38.7,96
	c-0.7,5.3-1.1,10.7-1.3,16.1c4,4.7,8.7,8.5,13.2,11.4c3.1,2,6,3.6,8.398,4.8c3.802,1.899,6.4,2.8,6.4,2.8c-2.9,1.1-5.3,2.4-7,3.5
	c-2.5,1.6-4.8,3.1-6.9,4.5c0-1.8-2.3-4.8-5.198-8c-5.302-5.8-12.802-12-12.802-12v20.9c-2.8-8-5.898-14.602-9.1-19.801l2-12.101
	c0-39,12.3-75.9,34-108.4l0,0c10.1-15.1,22.2-29.2,36-42.2c4.5-4.2,9.1-8.2,13.9-12.1C545.7,70.9,626.4,42,716,42c0,0,10-3,15-11
	c0,0-2,16-18,26C656.7,57,586.2,75.6,542.8,97.7z"/>
<path fill="#FFFFFF" stroke="#000000" d="M489,117.3c-4.8,3.9-9.5,8-13.9,12.1C455.2,143.1,434,150.7,428.4,152.5
	c-0.802,0.3-1.302,0.4-1.4,0.5l0,0c-15.9,7-27.9,9-27.9,9c-12.3,1.9-26.1,9-37.3,11.2c-2.2,0.5-41.5,68.7-43.7,69.1
	c-1.398,0.3,34.2-67.2,32.802-66.9c-16.802,3.7-17.802,4.5-32,8.1c-1.7,0.4-34.102,67.5-33,62.4c1.5-7.5,28-62,25.5-61.3
	C306.1,186,274.8,197.5,269.8,199c-1.5,0.4-21,45.9-22.5,46.3c-2.1,0.7,15.9-43.3,13.8-42.7c-14,4.5-25.1,8.6-34.2,12.2
	c-1.6,0.6-14.1,34.6-15.5,35.2c-2.1,0.9,4.6-29.1,2.8-28.2c-14,6.4-20.7,11.7-25.5,15.5c-2.8,2.2-8.2,15.5-10.3,16.9
	c-1.4,1,2.5-12.3,1.2-11.4c-67.1,46.7,2.2-8.5,2.2-8.5c1.7-0.9-10.6-8.7-9-9.6c1.1-0.6,16.3,5.7,17.4,5.1
	c11-5.8,20.7-10.9,29.5-15.4c0.9-0.4-14.4-20.4-13.5-20.8c0.9-0.4,17.8,18.6,18.6,18.2c14.5-7.4,26.6-13,38.4-17.9
	c2.6-1.1-12-28.4-9.3-29.4c3.2-1.3,12.6,26.2,15.9,25c9.3-3.4,30.2-8.9,41.5-12.2c1.4-0.4-1.6-16.6-0.7-32.3
	c0.102-1.9,8.602,30,10.5,29.5c8.102-2.3,17-4.7,27-7.4c9.802-2.6,3.302,1.1-3.3-31.7c-0.3-1.4,13.7,29.2,15.2,28.8
	c9.6-2.4,20.1-5,31.8-7.9c11-3.3,23.3-7.7,35.5-12.5C452.4,134,477.3,122.6,489,117.3z"/>
<path fill="#FFFFFF" stroke="#000000" d="M426.9,153L426.9,153h1.6c-0.2,9.9-0.8,17.1-1.7,22.5c-3.2,19.9-9.8,13.5-9.8,13.5
	c-32.8,93.9-61.1,50.3-61.1,50.3c-6.302,20.6-12.302,31.5-17.5,36.7c-12.9,12.5-21.802-9.1-21.802-9.1
	c-38.2,70.9-45.8,16.6-45.8,16.6C219,357.8,205.4,303,205.4,303c-53.9,45.9-52.9,10.2-51.6-0.6c-99.1,26.5-14.6-58.9-14.6-58.9
	C87.8,246,158.6,194,158.6,194c-46.7-35.4,67.2-51,67.2-51c-27.1-47.7,57.3-26.6,57.3-26.6c-24.2-54,58.4-8.1,58.4-8.1
	c-1.4-59.4,43.1,8.7,43.1,8.7c42-25.2,42.602,26.8,42.602,26.8c-12.2,4.8-24.5,9.3-35.5,12.5c-11.602,2.9-22.2,5.5-31.8,7.9
	c-1.5,0.4-15.5-30.2-15.2-28.8c6.6,32.8,13.1,29.1,3.3,31.7c-10,2.7-18.9,5.1-27,7.4c-1.9,0.5-10.4-31.4-10.5-29.5
	c-0.9,15.7,2.1,31.9,0.7,32.3c-11.3,3.3-32.1,8.9-41.5,12.2c-3.3,1.2-12.6-26.3-15.9-25c-2.6,1,12,28.3,9.3,29.4
	c-11.8,4.9-23.8,10.6-38.4,17.9c-0.8,0.4-17.8-18.6-18.6-18.2c-0.8,0.4,14.4,20.4,13.5,20.8c-8.8,4.5-18.4,9.5-29.5,15.4
	c-1.1,0.6-16.2-5.7-17.4-5.1c-1.6,0.9,10.7,8.7,9,9.6c0,0-69.3,55.2-2.2,8.5c1.3-0.9-2.6,12.4-1.2,11.4c2.1-1.4,7.5-14.7,10.3-16.9
	c4.8-3.8,11.5-9.1,25.5-15.5c1.9-0.8-4.9,29.1-2.8,28.2c1.4-0.6,13.9-34.5,15.5-35.2c9-3.7,20.2-7.7,34.2-12.2
	c2-0.6-15.9,43.3-13.8,42.7c1.5-0.5,21-45.9,22.5-46.3c5-1.5,36.3-13,41.6-14.4c2.4-0.7-24,53.8-25.5,61.3c-1,5,31.299-62,33-62.4
	c14.2-3.6,15.2-4.5,32-8.1c1.4-0.3-34.2,67.2-32.8,66.9c2.2-0.5,41.4-68.7,43.7-69.1c11.3-2.3,25-9.4,37.3-11.2
	C399,162,411,160,426.9,153z"/>
</svg>
