<?xml version="1.0" encoding="utf-8"?>
<!-- Generator: Adobe Illustrator 15.0.0, SVG Export Plug-In . SVG Version: 6.00 Build 0)  -->
<!DOCTYPE svg PUBLIC "-//W3C//DTD SVG 1.1//EN" "http://www.w3.org/Graphics/SVG/1.1/DTD/svg11.dtd">
<svg version="1.1" id="www.ABC-color.com" xmlns="http://www.w3.org/2000/svg" xmlns:xlink="http://www.w3.org/1999/xlink" x="0px"
	 y="0px" width="567px" height="822px" viewBox="0 0 567 822" enable-background="new 0 0 567 822" xml:space="preserve">
<rect display="none" fill="#FFFFFF" width="567" height="822"/>
<path fill="#FFFFFF" stroke="#000000" stroke-width="2" stroke-miterlimit="10" d="M287.2,13.5c0.698,1.5-1.9,4.3-5.9,6.2
	c-2,1-4,1.6-5.5,1.7c-1.8-0.7-3-0.9-3-0.9c-0.7-1.5,1.9-4.3,5.9-6.2C282.6,12.4,286.5,12,287.2,13.5z"/>
<path fill="#FFFFFF" stroke="#000000" stroke-miterlimit="10" d="M152.1,538.3c-1.6,3.9-9.8,6.7-9.8,6.7c-2-0.3-2.5-6.8-2.5-6.8
	C122,553.8,123,550,123,550c-3-7.3-19,15.5-19,15.5c-3.5,4-3.8,0-3.8,0c3.5-9.3,6.3-35.8,6.3-35.8c-3.8,1.898-5.3,0-5.3,0
	c-1.5-8.602,6.3-23.4,6.3-23.4c0.3-2.5-13-1.8-13-1.8c-1.8-5.3,8-27,8-27c-3.8,1-15.8-2.3-15.8-2.3c-2.301-6,1.3-12,1.3-12
	s14.3-7.3,0.8-3.5s-10.6,9-14.8,8.3c-2.5-0.5,0.8-7,0.5-10S64,463.5,64,463.5c-2.3-2,7.3-15.3,7.3-15.3c-3.3-13.5,6.5-19.8,6.5-19.8
	c-0.8-6.302,2-12.5,2-12.5c7.3-5,12-7,12-7c14.5-7.301-1.5-9-1.5-9c0.3-3.301-3.5-4.5-3.5-4.5c-1.3-4.5-3.3-9.3-3.3-9.3
	c3-12-4-8.3-5-10.3s3.8-7,3.8-7l-11.6-2c-8.7-6,19.3-15,17-20c-2.301-5,7.3-10.3,7.3-10.3c-41.7-2.3,14-8.3,5.7-18.7
	c-8.301-10.3,27-2.3,16.3-9.7c-10.7-7.3,18-3.3,14.2-7.7c-3.801-4.3,11.5-9.7,9.8-10c-1.7-0.3-16-6.3-6.7-5.3c9.3,1,37-11.7,41-13.8
	c4-2.1,33.3-5.6,55-23.6c21.7-18,37-18.3,37-18.3c4.8-0.3,15.7-11.2,16.6-12.1c-0.3,1.8-0.399,2.8-0.399,2.8l8.8,309.3
	c0,0,3.301-286,0.7-306.7c-0.2-1.8-0.3-3.9-0.2-6.4l0,0c0,6.7,7.2,11.9,7.2,11.9c5.5,2.8,48,22.8,48,22.8
	c18.5,2.8,31.5,14.8,31.5,14.8c12,9.4,51.699,27.5,51.699,27.5c19.6,1.8,23.8,5.5,23.8,5.5c-10,6-10,6-10,6
	c17.3,4.3,20.8,1.8,19.5,6.8c-0.9,3.6-1.5,3.3-1.5,3.3c19.8,9.3,26,26.5,26,26.5c-9.301-1.8-12,0.3-12,0.3c8.5,5,5.8,8.8,5.8,8.8
	c27.5,15.5,20.8,20.3,20.8,20.3c-10.8-1-17,7.8-17,7.8c-1.5,6.5,5,6.5,5,6.5c4-0.8,12.301,4,12.301,4c4.3,6,6,6.8,6,6.8
	c-8,2.8-6,9.5-6,9.5c30.3,27.5,18,30,18,30c-3.5-2-9.301,1.3-9.301,1.3c6.301,3.5,6,13.8,6,13.8c-3.3-0.8-3,2-3,2c5,8.3-3,19-3,19
	c-5-12-22.5-8-22.5-8c7.301,6.5,0,16.8,0,16.8c-7-1.3-17.3-1.5-17.3-1.5c6.3,12,3.5,25.3,3.5,25.3c0.8-2.8-11.8-1.7-11.8-1.7
	c7.3,8.302,6,18.4,6,18.4l-6-0.8c1.8,11.3,0,30,0,29.3s-5-7.3-5-7.3c-5.801-11.5-22.801-7.8-22.801-7.8
	c1.399,1.8-0.399,13.5-0.399,13.5c2,7.5-3.5,2.8-3.5,2.8c-9.5-3.3-10.5-1.5-10.5-1.5c2.5,2.3,1,12,1,12c3.3,8.5,0,11.3,0,11.3
	c-0.5-2-8.8-1.8-8.8-1.8l3,4.8c2.3,2-0.5,13-0.5,13c-0.301,5.5,2.8,12,2.8,12c2.3,3.5-1.3,5-1.3,5c-3.5-4.8-15.5-18.2-19-13.5
	c-3.301,4.4,0,8.3,0,8.3C398,601,385,593,385,593c1.8,6,0,15.8,0,15.8c-1.801,0.9-8.4-4.5-9.9-5.7c-0.1-0.1-0.199-0.198-0.3-0.198
	c0,0,0.101,0.1,0.3,0.198c3.7,3.7-1.8,21-1.8,21c-2-2.3-7.8-2.3-7.8-2.3c4,4.3,1.8,19.8,1.8,19.8c3.3,3,2,13.5,2,13.5
	c-2.5,0.802-9.3-8-9.3-8c-2.801-1.8-12.5-6.6-13.5-3.3c-1.2,4,0,13.8,0,13.8c-3.5,2-10.801-0.8-10.801-0.8c1.301,5.3-1.8,9-1.8,9
	c-3.899,3.5-0.7,16.5-0.7,16.5c2.301,3.3-2,4.5-2,4.5c-5-8.3-13-6.3-13-6.3c-2.5,2-3.5,14-3.5,14c-1.5-1.3-5.199-1.3-5.199-1.3
	c2.3,4.3-1.601,19.5-1.601,19.5c2.5,10.5,1.3,11.3,1.3,11.3c-1.3-3.5-8.5-3.8-8.5-3.8c1,5.8-1.801,12.8-1.801,12.8l-3,1.3
	c-4,2.5,0.602,17.3,0,22c-0.198,1.8-5.5-3-5.5-3c-3.5,11.3-1.799,31.3-1.799,31.3c-8.5-7.8-12.101-35.6-12.101-35.6
	c-6,1.8-8.101-3.4-8.101-3.4c4.301-7.5,4.301-13,4.301-13c1.199-8,0-13.8,0-13.8c-2.2,2-8.601,2.8-8.601,2.8c-4-2.5,4-11,4-11
	c-3-1-0.5-10-0.5-10c2.5-6.8-3.3-5.8-3.3-5.8c-4.5-1.3-0.8-15.3-0.8-15.3c-4.8-2.3-13.8,9-15.5,8.3s0.3-16.5,0.3-16.5
	c-4.3-3.5-3.8-15.3-3.8-15.3c-0.3,2-7.3,1.5-7.3,1.5c-2.9-3.6-1.4-12.4-1.301-13c-1,4.2-6.699,3.5-6.699,3.5c-1.301-3.5-7.5,4-7.5,4
	c-2,6.3-3.5,5.5-3.5,5.5c-1.5-2.8-0.301-24-0.301-24c1-3.5-5-1.8-5-1.8c-3.5-0.3-1.3-18.5-1.3-18.5c-0.3-4-6.5,1.3-6.5,1.3
	c-3.3-0.5-4.5-12.3-4.5-12.3c-9.5,10.8-12.5,8.5-12.5,8.5c-0.8-3.5-3.8-6.5-3.8-6.5c-1,5-10.5,8-10.5,8c-3.8-0.3-8.3,5-8.3,5
	c-5,6.3-6,3-6,3c13.3-21.3,9.8-23.8,9.8-23.8c-1.3-4.802-1-16.5-1-16.5c-5,3.3-8,0-8,0c2.5-3,1.5-29.302,1.5-29.302
	c-0.8,1.5-8.5,3.302-8.5,3.302C149.5,548.5,151.4,540.5,152.1,538.3z M152.2,537.9c0,0.1-0.101,0.198-0.101,0.398
	C152.1,538.2,152.2,538,152.2,537.9z"/>
<path fill="#FFFFFF" stroke="#000000" stroke-width="2" stroke-miterlimit="10" d="M283.9,217.6c2.1-13.5,11.3-71.5,12.1-74.6
	c4.5-19.6,6.3-24.8,6.699-69.7C303,35,283.4,24.2,275.8,21.4c1.5-0.1,3.5-0.7,5.5-1.7c4-1.9,6.601-4.7,5.9-6.2
	c28.899,23.8,27.999,61.2,23.2,104.9c-0.899,7.9-16.899,71.7-17.601,98.3c-0.1,2.5,0,4.6,0.2,6.4c2.7,20.7-0.7,306.7-0.7,306.7
	l-8.8-309.3C283.5,220.3,283.7,219.3,283.9,217.6z"/>
<g>
	<path d="M294.3,233.4c16.7,19.9,34.2,39.2,52.3,57.9c18,18.7,36.7,36.9,56.101,54.2c19.5,17.3,38.7,34.9,57.101,53.3
		C469,408,478,417.4,486.4,427.4c4.199,5,8.3,10.1,12,15.398c1.8,2.7,3.601,5.4,5.199,8.3c1.601,2.802,3,5.802,3.9,8.9
		c-1-3.1-2.4-6.1-4-8.9c-1.601-2.8-3.4-5.6-5.2-8.198c-3.7-5.302-7.8-10.4-12.101-15.302c-8.5-9.898-17.5-19.199-26.8-28.398
		c-18.5-18.3-37.801-35.7-57.399-52.9c-19.601-17.2-38.301-35.3-56.5-53.9c-18.2-18.7-35.801-37.8-52.7-57.7L294.3,233.4z"/>
</g>
<g>
	<path d="M294.8,290.4c15.101,19,30,38.1,44.7,57.3c14.699,19.2,29.3,38.6,43.5,58.2c14.3,19.6,28.3,39.399,41.6,59.6
		c6.601,10.1,13.101,20.4,19.2,30.9c3,5.3,5.899,10.6,8.5,16.1c1.3,2.7,2.5,5.5,3.5,8.4c1,2.898,1.899,5.8,2.101,8.8
		c-0.2-3-1.101-6-2.101-8.8c-1-2.802-2.3-5.602-3.601-8.302c-2.601-5.5-5.5-10.8-8.601-16c-6.1-10.5-12.6-20.698-19.399-30.698
		c-13.5-20.102-27.601-39.802-42-59.301C367.8,387.1,353.099,367.9,338.3,348.7c-14.899-19.1-29.899-38.1-45.1-57L294.8,290.4z"/>
</g>
<g>
	<path d="M294.4,385.5c20.199,32.9,40.199,66,60,99.2c9.8,16.6,19.601,33.3,29.199,50.1c4.801,8.4,9.5,16.8,14.101,25.3
		c2.301,4.302,4.5,8.5,6.7,12.9c1.101,2.2,2.101,4.3,3.101,6.5s2,4.4,2.6,6.8c-0.6-2.3-1.6-4.5-2.6-6.7
		c-1-2.198-2.101-4.398-3.2-6.5c-2.2-4.3-4.5-8.6-6.8-12.8c-4.601-8.5-9.4-16.8-14.301-25.2c-9.699-16.698-19.601-33.3-29.601-49.8
		c-20-33-40.3-65.898-60.8-98.6L294.4,385.5z"/>
</g>
<g>
	<path d="M292.7,502c0.399,0,0.6,0.1,0.899,0.2c0.199,0.1,0.5,0.2,0.699,0.3c0.4,0.2,0.801,0.4,1.1,0.7c0.701,0.5,1.4,1,2,1.6
		c1.201,1.102,2.4,2.3,3.4,3.602c2.1,2.5,4,5.1,5.899,7.8c3.601,5.3,6.899,10.898,10,16.5c6.2,11.3,11.801,22.8,17.2,34.5
		c10.699,23.398,20.399,47.2,29.601,71.1c-9.601-23.8-19.601-47.5-30.5-70.7c-5.5-11.6-11.301-23.1-17.601-34.198
		c-3.2-5.602-6.5-11-10.2-16.302c-1.8-2.6-3.8-5.198-5.8-7.5c-1-1.198-2.101-2.3-3.301-3.3c-0.6-0.5-1.199-1-1.8-1.398
		c-0.3-0.2-0.6-0.4-0.899-0.5c-0.199-0.102-0.301-0.102-0.399-0.2c-0.101,0-0.3-0.102-0.3-0.102L292.7,502L292.7,502z"/>
</g>
<g>
	<path d="M293.2,526c0,4.5-0.2,8.9-0.302,13.4l-0.5,13.398l-1.1,26.7l-2.5,53.4L283.4,739.6l4.4-106.8l2-53.398l0.9-26.7l0.399-13.3
		c0.101-4.4,0.199-8.9,0.199-13.302L293.2,526z"/>
</g>
<g>
	<path d="M292.2,498.1c-7.302,10.5-14.2,21.4-20.801,32.5C264.8,541.7,258.6,552.9,252.7,564.4c-5.801,11.5-11.2,23.198-16,35.1
		c-4.801,12-9,24.2-12.101,36.7c2.9-12.602,7-24.8,11.601-36.9c4.6-12,9.899-23.8,15.6-35.398c5.7-11.602,11.8-23,18.3-34.102
		c6.5-11.2,13.2-22.2,20.5-32.898L292.2,498.1z"/>
</g>
<g>
	<path d="M284.7,234.7c-34.4,32.1-68.7,64.5-102.601,97.2c-17,16.3-33.8,32.8-50.5,49.4c-8.3,8.3-16.6,16.7-24.7,25.2
		c-4.1,4.3-8.1,8.6-12,12.9c-2,2.198-3.899,4.398-5.8,6.698c-1.899,2.302-3.7,4.5-5.399,7c1.6-2.5,3.5-4.8,5.3-7
		c1.899-2.3,3.8-4.5,5.8-6.698c3.9-4.4,7.9-8.7,11.9-13c8.1-8.601,16.3-17,24.6-25.4c16.5-16.8,33.3-33.3,50.1-49.8
		c33.7-32.9,67.7-65.5,101.9-97.9L284.7,234.7z"/>
</g>
<g>
	<path d="M286,281.1c-15.8,21.6-31.2,43.5-46.601,65.4c-15.3,22-30.399,44.1-45.3,66.3c-14.899,22.3-29.5,44.7-43.8,67.3
		c-14.3,22.7-28.2,45.5-41.4,68.802C122,525.5,135.7,502.6,149.9,479.8c14.101-22.7,28.601-45.3,43.4-67.6
		c14.7-22.4,29.7-44.6,44.9-66.6c15.199-22.1,30.5-44,46.198-65.8L286,281.1z"/>
</g>
<g>
	<path d="M288.6,378.5c-10.5,17.4-20.7,34.9-30.7,52.6c-10,17.7-19.8,35.4-29.3,53.4c-9.5,17.9-18.8,36-27.5,54.4
		c-4.3,9.198-8.6,18.398-12.5,27.8c-4,9.3-7.7,18.8-11,28.398c3.2-9.6,6.9-19.1,10.7-28.5c3.9-9.398,8-18.698,12.3-27.898
		c8.601-18.4,17.7-36.602,27-54.602c9.4-18,19-35.898,28.9-53.6c9.899-17.8,19.899-35.4,30.3-52.9L288.6,378.5z"/>
</g>
<g>
	<path d="M241,275.1c-4-0.8-8.101-1.2-12.2-1.4c-4.1-0.2-8.2-0.2-12.3,0c-8.2,0.4-16.4,1.6-24.4,3.8c7.9-2.4,16.101-3.8,24.4-4.3
		c4.1-0.3,8.3-0.4,12.399-0.2c4.101,0.2,8.301,0.5,12.4,1.2L241,275.1z"/>
</g>
<g>
	<path d="M215.6,299.3c-5-0.7-10.2-0.7-15.3-0.4c-5.1,0.3-10.2,1-15.2,2c-10.1,2-19.8,5.3-29.1,9.6c9.2-4.5,19-8,29-10.1
		c5-1.1,10.1-1.9,15.3-2.2c5.1-0.4,10.3-0.5,15.5,0.2L215.6,299.3z"/>
</g>
<g>
	<path d="M172.5,341c-6.5,0.3-13,0.8-19.4,1.4c-6.5,0.6-12.899,1.4-19.3,2.5c-6.4,1-12.8,2.3-19.1,4.1c-3.101,0.9-6.2,1.9-9.2,3.2
		c-3,1.3-5.9,2.7-8.4,4.8c2.5-2.1,5.4-3.6,8.4-4.9c3-1.3,6.1-2.3,9.2-3.3c6.3-1.8,12.6-3.2,19.1-4.3c6.4-1.1,12.9-2,19.4-2.7
		c6.5-0.7,13-1.3,19.5-1.7L172.5,341z"/>
</g>
<g>
	<path d="M254.8,261.6c1.9,2.9,3.6,5.9,5.1,9c0.7,1.6,1.4,3.2,1.9,4.8c0.2,0.8,0.4,1.7,0.5,2.5c0.1,0.9,0,1.7-0.3,2.5
		c0.3-0.8,0.3-1.7,0.2-2.5c-0.101-0.8-0.4-1.7-0.601-2.5c-0.6-1.6-1.3-3.2-2.1-4.7c-1.601-3-3.5-5.9-5.4-8.6L254.8,261.6z"/>
</g>
<g>
	<path d="M238.5,277.3c0.7,2,1.3,4.1,1.8,6.2s0.9,4.2,1.2,6.3c0.3,2.1,0.5,4.2,0.399,6.4c0,2.1-0.199,4.3-0.8,6.3
		c0.5-2.1,0.601-4.2,0.5-6.3c-0.1-2.1-0.3-4.2-0.7-6.3c-0.399-2.1-0.899-4.1-1.399-6.2c-0.601-2-1.2-4.1-2-6L238.5,277.3z"/>
</g>
<g>
	<path d="M221.3,293.7c1.3,4,2.5,8,3.3,12c0.4,2,0.7,4.1,0.9,6.2c0.1,1,0.1,2.1,0,3.1c-0.101,1-0.3,2.1-0.8,3c0.5-0.9,0.6-2,0.699-3
		c0.101-1,0-2.1-0.1-3.1c-0.2-2.1-0.6-4.1-1.1-6.1c-1-4-2.301-8-3.801-11.8L221.3,293.7z"/>
</g>
<g>
	<path d="M197.6,317.8c0.7,2.1,1.3,4.2,1.9,6.3c0.5,2.1,0.899,4.3,1.2,6.5c0.3,2.2,0.399,4.4,0.3,6.6c-0.101,2.2-0.5,4.4-1.4,6.4
		c0.8-2,1.101-4.2,1.2-6.4c0-2.2-0.2-4.3-0.5-6.5c-0.4-2.1-0.8-4.3-1.4-6.3c-0.6-2.1-1.3-4.2-2.1-6.1L197.6,317.8z"/>
</g>
<g>
	<path d="M169.8,343.1c1.8,1.6,2.8,3.8,3.5,6c0.7,2.2,1,4.5,1.1,6.8c0.2,4.6-0.5,9.2-1.899,13.5c1.2-4.4,1.8-9,1.399-13.5
		c-0.199-2.3-0.6-4.5-1.3-6.6c-0.7-2.1-1.8-4.1-3.5-5.5L169.8,343.1z"/>
</g>
<g>
	<path d="M148.5,364.4c1.5,4.2,2.8,8.5,3.8,12.9c0.5,2.2,1,4.4,1.2,6.6c0.1,1.1,0.2,2.2,0.2,3.4c0,1.1-0.2,2.3-0.7,3.2
		c0.5-1,0.6-2.1,0.6-3.3c0-1.1-0.1-2.2-0.3-3.3c-0.3-2.2-0.9-4.4-1.5-6.5c-1.2-4.3-2.7-8.5-4.3-12.7L148.5,364.4z"/>
</g>
<g>
	<path d="M356.6,302c5.9,0.4,11.7,1,17.601,1.8c5.801,0.8,11.7,1.7,17.399,3c5.801,1.2,11.5,2.7,17,4.7c2.801,1,5.5,2.1,8.101,3.5
		s5.101,2.9,7.301,4.9c-2.2-2-4.7-3.5-7.4-4.8c-2.6-1.3-5.399-2.4-8.1-3.4c-5.601-1.9-11.301-3.3-17-4.4
		c-5.801-1.1-11.601-2-17.4-2.7c-5.8-0.7-11.699-1.2-17.5-1.5L356.6,302L356.6,302z"/>
</g>
<g>
	<path d="M410.199,352.4c4.7-1,9.399-1.7,14.101-2.2s9.5-0.9,14.3-1c4.801-0.1,9.601,0.2,14.301,1c2.3,0.4,4.699,1,6.899,1.8
		s4.399,2,6.2,3.5c-1.801-1.5-4-2.6-6.2-3.4c-2.2-0.8-4.601-1.3-6.899-1.7c-4.7-0.7-9.5-0.9-14.2-0.7c-4.7,0.1-9.5,0.6-14.2,1.2
		c-4.699,0.6-9.399,1.4-14,2.4L410.199,352.4z"/>
</g>
<g>
	<path d="M358.9,304.4c-0.399,4.6-1,9.2-1.899,13.8c-0.4,2.3-1,4.5-1.7,6.7c-0.399,1.1-0.8,2.2-1.3,3.2s-1.2,2-2.2,2.6
		c1-0.6,1.601-1.6,2.101-2.7c0.5-1,0.899-2.1,1.199-3.2c0.601-2.2,1.101-4.5,1.4-6.8c0.699-4.6,1.1-9.2,1.399-13.8L358.9,304.4z"/>
</g>
<g>
	<path d="M374.6,320c-0.699,2.7-1.199,5.4-1.6,8.2c-0.4,2.8-0.601,5.6-0.7,8.4c0,2.8,0.101,5.6,0.7,8.4c0.5,2.7,1.399,5.4,3,7.8
		c-1.601-2.3-2.601-5-3.2-7.8c-0.601-2.8-0.899-5.6-0.899-8.4c0-2.8,0.101-5.6,0.399-8.5c0.3-2.8,0.8-5.6,1.399-8.4L374.6,320z"/>
</g>
<g>
	<path d="M177.7,437.5c-5.601,1.2-11.301,2.5-16.9,3.9c-5.6,1.398-11.2,2.8-16.7,4.5c-5.5,1.6-11,3.398-16.399,5.398
		c-2.7,1-5.4,2.2-7.9,3.5c-1.3,0.7-2.5,1.4-3.7,2.2c-1.2,0.8-2.3,1.8-3.1,3c0.7-1.3,1.899-2.2,3-3.1
		c1.2-0.802,2.399-1.602,3.7-2.302c2.5-1.398,5.199-2.5,7.899-3.6c5.4-2.2,10.9-4,16.4-5.7s11.1-3.2,16.7-4.7
		c5.6-1.5,11.199-2.8,16.899-4.1L177.7,437.5z"/>
</g>
<g>
	<path d="M237.4,348.5c3,6.7,5.7,13.6,8.101,20.5c1.2,3.5,2.2,7,3.1,10.6s1.601,7.2,1.9,10.8c-0.4-3.7-1.2-7.2-2.101-10.8
		c-1-3.5-2.1-7-3.3-10.5c-2.5-6.9-5.3-13.7-8.5-20.3L237.4,348.5z"/>
</g>
<g>
	<path d="M244.7,366.8c3.3,0.6,6.399,1.5,9.5,2.7c1.5,0.6,3,1.3,4.399,2.2c1.4,0.9,2.7,1.9,3.601,3.3c-1-1.3-2.301-2.3-3.801-3.1
		c-1.399-0.8-2.899-1.4-4.5-1.9c-3.1-1-6.3-1.7-9.5-2.2L244.7,366.8z"/>
</g>
<g>
	<path d="M219.3,374.6c1.6,1.8,3,3.6,4.3,5.6c1.3,2,2.4,4,3.3,6.2c1.9,4.3,3,8.9,3.101,13.6c-0.2-4.6-1.5-9.2-3.5-13.3
		c-1-2.1-2.2-4.1-3.5-6c-1.3-1.9-2.8-3.7-4.3-5.3L219.3,374.6z"/>
</g>
<g>
	<path d="M211,387.3c1.5,3.1,2.7,6.3,3.8,9.5c1.1,3.2,2,6.5,2.7,9.9c1.399,6.7,2.1,13.5,1.5,20.3c0.399-6.8-0.4-13.6-2-20.2
		c-0.8-3.3-1.8-6.5-2.9-9.7c-1.2-3.2-2.399-6.3-4-9.3L211,387.3z"/>
</g>
<g>
	<path d="M195.3,411c-0.2,3.7,0,7.4,0.5,11.1c0.5,3.7,1.3,7.4,2.5,10.9c1.2,3.5,2.7,7,4.8,10.1c2,3.102,4.601,6,7.5,8.302
		c-3-2.302-5.6-5.102-7.7-8.2c-2.1-3.102-3.8-6.5-5-10.102c-1.3-3.6-2.199-7.198-2.699-11c-0.601-3.698-0.9-7.5-0.801-11.3
		L195.3,411z"/>
</g>
<g>
	<path d="M180.6,432.8c2.4,3.5,4.5,7.2,6.3,11c1.801,3.8,3.301,7.8,4.301,11.9c1,4.1,1.6,8.3,1.399,12.6c-0.2,4.2-1.2,8.4-3.2,12.2
		c1.9-3.8,2.801-8,2.9-12.2c0.099-4.2-0.6-8.398-1.7-12.398s-2.7-8-4.5-11.7c-1.899-3.8-4-7.4-6.399-10.8L180.6,432.8z"/>
</g>
<g>
	<path d="M159.9,465c1.9,3.7,3.101,7.6,4,11.6c0.801,4,1.301,8.102,1.4,12.2c0.2,8.2-1,16.3-3.2,24.102c2-7.9,3.101-16,2.7-24.102
		c-0.2-4-0.7-8.1-1.6-12c-0.9-3.898-2.2-7.8-4.101-11.3L159.9,465z"/>
</g>
<g>
	<path d="M207,526.5c-2.601,0-5.3,0.2-7.8,0.6c-2.601,0.4-5.2,1.102-7.601,2c-2.399,1-4.8,2.302-6.8,4c-2,1.7-3.6,3.9-4.5,6.4
		c0.9-2.5,2.4-4.8,4.4-6.6c2-1.802,4.3-3.2,6.8-4.302c2.5-1.1,5.1-1.8,7.7-2.3c2.6-0.5,5.3-0.8,8-0.898L207,526.5z"/>
</g>
<g>
	<path d="M221.1,498.7c-2,1.2-4.1,2.2-6.3,3.1c-2.1,0.9-4.4,1.7-6.6,2.3c-2.301,0.602-4.601,1-6.9,0.9c-2.3,0-4.7-0.6-6.6-1.9
		c1.899,1.302,4.3,1.7,6.6,1.7c2.3,0,4.6-0.5,6.8-1.1c2.2-0.602,4.4-1.5,6.4-2.5c2.1-1,4.1-2,6.1-3.2L221.1,498.7z"/>
</g>
<g>
	<path d="M242.2,458.7c2,6.7,4.399,13.3,7,19.8c2.6,6.5,5.6,12.9,9.1,19c-3.7-6-6.8-12.3-9.6-18.8c-2.801-6.5-5.301-13-7.5-19.7
		L242.2,458.7z"/>
</g>
<g>
	<path d="M225.1,489c1.9,4.9,4.101,9.7,6.5,14.4c1.3,2.3,2.601,4.6,4.101,6.698c0.8,1.102,1.6,2.102,2.6,3c1,0.9,2,1.7,3.4,2
		c-1.301-0.198-2.5-1-3.5-1.898c-1-0.9-1.9-1.9-2.7-2.9c-1.601-2.1-3.101-4.3-4.4-6.6c-2.6-4.602-4.899-9.4-7-14.3L225.1,489z"/>
</g>
<g>
	<path d="M290.3,598.3c-5,6.5-9.7,13.2-14,20.102c-2.2,3.5-4.2,7-6,10.698c-1.8,3.7-3.5,7.4-4.2,11.5c0.601-4.1,2.2-7.898,4-11.6
		c1.8-3.701,3.8-7.3,5.8-10.8c2.101-3.5,4.3-7,6.601-10.4c2.3-3.398,4.601-6.8,7.101-10.1L290.3,598.3z"/>
</g>
<g>
	<path d="M238.1,595.5c-2.3-0.6-4.7-1-7.1-1c-1.2,0-2.4,0.2-3.5,0.7c-0.5,0.3-1,0.6-1.4,1.1c-0.399,0.5-0.6,1.102-0.6,1.7
		c0-0.6,0.2-1.2,0.5-1.8c0.3-0.5,0.8-0.9,1.399-1.3c1.101-0.602,2.4-0.802,3.601-1c1.2-0.102,2.5-0.102,3.7,0
		c1.199,0.1,2.5,0.3,3.699,0.5L238.1,595.5z"/>
</g>
<g>
	<path d="M250.3,568.2c1.6,0.8,3,1.8,4.4,2.8c1.399,1,2.8,2.1,4,3.3c1.199,1.2,2.399,2.602,3.199,4.102c0.801,1.6,1,3.398,0.4,5.1
		c0.6-1.6,0.2-3.5-0.6-4.9c-0.801-1.5-2-2.8-3.301-3.898c-1.3-1.102-2.699-2.102-4.1-3.102c-1.4-0.898-2.9-1.8-4.5-2.5L250.3,568.2z
		"/>
</g>
<g>
	<path d="M335.4,570.7c-0.7,2-1.399,4-2.301,6c-0.8,1.898-1.8,3.898-2.899,5.7c-1.101,1.8-2.3,3.6-3.8,5.1s-3.301,2.8-5.5,3
		c2.101-0.3,3.899-1.7,5.3-3.2c1.399-1.6,2.5-3.3,3.5-5.2c1-1.8,1.899-3.8,2.601-5.698c0.8-2,1.399-3.9,2-6L335.4,570.7z"/>
</g>
<g>
	<path d="M338.6,577.8c2.4,1.3,4.801,2.4,7.301,3.4s5.101,1.898,7.699,2.6c2.6,0.701,5.301,1.2,8,1.3c2.7,0.102,5.5-0.3,7.9-1.6
		c-2.301,1.4-5.101,1.9-7.9,1.9c-2.699,0-5.5-0.4-8.1-1c-2.7-0.602-5.301-1.4-7.801-2.4c-2.601-1-5.101-2-7.5-3.2L338.6,577.8z"/>
</g>
<g>
	<path d="M366.3,504.9c-0.601,3.398-1.399,6.8-2.3,10.1c-1,3.3-2.101,6.6-3.5,9.7c-1.4,3.1-3.101,6.2-5.2,8.898
		c-2.101,2.7-4.899,5-8.2,6c3.301-1.1,6-3.398,8-6.1c2.101-2.7,3.7-5.8,5-8.9c1.301-3.1,2.399-6.398,3.2-9.698
		c0.899-3.302,1.601-6.7,2.101-10H366.3L366.3,504.9z"/>
</g>
<g>
	<path d="M382.6,532.9c-0.699,2.3-1.6,4.5-2.5,6.698c-0.899,2.2-1.899,4.4-2.899,6.5c-2.101,4.2-4.601,8.4-7.699,11.9
		c3-3.7,5.3-7.9,7.199-12.2c2-4.3,3.601-8.7,4.899-13.2L382.6,532.9z"/>
</g>
<g>
	<path d="M326.5,442.6c-0.301,1.4-0.801,2.7-1.301,4.102c-0.5,1.3-1,2.6-1.699,3.898c-0.601,1.302-1.4,2.5-2.301,3.602
		c-0.899,1.1-2,2.1-3.3,2.6c1.3-0.6,2.3-1.6,3.101-2.7c0.8-1.1,1.5-2.398,2-3.698c1.1-2.602,1.899-5.302,2.399-8L326.5,442.6z"/>
</g>
<g>
	<path d="M347.5,473.3c-0.101,3-0.4,5.9-0.801,8.8c-0.399,2.9-1,5.802-1.899,8.7c-0.8,2.8-1.899,5.602-3.5,8.102
		c-1.5,2.5-3.7,4.8-6.5,5.8c2.8-1.102,4.8-3.4,6.2-6c1.5-2.5,2.399-5.3,3.199-8.2c0.7-2.8,1.2-5.7,1.601-8.6
		c0.3-2.9,0.5-5.802,0.601-8.7L347.5,473.3z"/>
</g>
<g>
	<path d="M402.5,433.4c-2,3.3-3.601,6.898-5,10.6c-1.4,3.7-2.601,7.4-3.7,11.2c-2.101,7.6-3.7,15.3-4.8,23.1
		c0.899-7.8,2.3-15.6,4.3-23.2c1-3.8,2.101-7.6,3.5-11.3s2.899-7.398,4.899-10.8L402.5,433.4z"/>
</g>
<g>
	<path d="M383.9,407.2c0,4-0.399,7.898-1.101,11.8c-0.601,3.9-1.5,7.8-2.601,11.5c-2.3,7.5-5.7,14.8-10.8,20.9
		c4.899-6.2,8.199-13.5,10.3-21c1.101-3.802,1.8-7.602,2.399-11.5c0.5-3.9,0.801-7.801,0.801-11.7H383.9L383.9,407.2z"/>
</g>
<g>
	<path d="M366.3,383.4c0.2,3.1,0.101,6.2-0.3,9.2c-0.4,3.1-1.101,6.1-2.2,8.9c-1.101,2.9-2.601,5.6-4.7,7.9
		c-2,2.3-4.601,4.1-7.399,5.3c2.8-1.2,5.3-3.102,7.2-5.4c2-2.3,3.399-5,4.399-7.899c1-2.9,1.601-5.8,1.899-8.9c0.3-3,0.3-6.1,0-9
		L366.3,383.4z"/>
</g>
<g>
	<path d="M348.6,360.1c0.101,2.8-0.399,5.5-1.199,8.1c-0.801,2.6-2,5.1-3.5,7.3c-3,4.5-7.301,8-12,10.5
		c4.699-2.6,8.8-6.2,11.601-10.8c1.399-2.3,2.5-4.7,3.199-7.3c0.7-2.5,1.101-5.2,0.899-7.8H348.6L348.6,360.1z"/>
</g>
<g>
	<path d="M328.1,333.6c-0.3,3.2-0.6,6.3-1.1,9.5c-0.5,3.1-1.101,6.3-1.801,9.3c-0.8,3.1-1.601,6.1-3,9c-0.699,1.4-1.5,2.8-2.5,4
		c-1,1.2-2.601,2.1-4.199,1.9c1.6,0.1,3.1-0.8,4.1-2c1-1.2,1.801-2.6,2.4-4c1.3-2.9,2.1-6,2.699-9c0.7-3.1,1.101-6.2,1.5-9.3
		s0.7-6.3,0.899-9.4H328.1z"/>
</g>
<g>
	<path d="M405,436.6c4.6,0.7,9.1,1.602,13.6,2.7c4.5,1.102,8.9,2.4,13.301,3.9c4.3,1.5,8.601,3.3,12.699,5.5
		c4,2.2,7.9,4.8,11.101,8.2c-3.199-3.302-7.101-5.802-11.199-7.9c-4.101-2.1-8.4-3.8-12.7-5.3c-4.399-1.4-8.8-2.602-13.3-3.602
		s-9-1.8-13.5-2.398L405,436.6L405,436.6z"/>
</g>
<g>
	<path d="M438.1,486.1c-0.1,2.2-0.399,4.302-0.699,6.4c-0.399,2.1-0.801,4.2-1.5,6.2c-1.2,4.1-3,8-5.7,11.3
		c2.601-3.4,4.2-7.4,5.2-11.4c0.5-2,0.899-4.1,1.199-6.198c0.301-2.102,0.5-4.2,0.5-6.302H438.1z"/>
</g>
<g>
	<path d="M402.8,346.4c-1.2,0.9-2.3,2.2-3.3,3.5c-0.9,1.3-1.7,2.8-2.4,4.3c-1.3,3-2,6.3-2.3,9.6c-0.601,6.6,0.399,13.3,2.2,19.7
		c-1.9-6.4-3.101-13-2.601-19.7c0.199-3.3,0.899-6.7,2.101-9.8c0.6-1.6,1.399-3.1,2.3-4.5c1-1.4,2-2.7,3.399-3.9L402.8,346.4z"/>
</g>
<g>
	<path d="M438.199,378.3c-1.399,2.4-2.699,4.9-3.8,7.5c-1.101,2.6-2,5.2-2.801,7.9c-1.5,5.399-2.199,11.1-1.5,16.7
		c-0.899-5.601-0.3-11.301,1-16.8c0.7-2.7,1.5-5.4,2.601-8.1c1-2.6,2.2-5.2,3.601-7.7L438.199,378.3z"/>
</g>
<g>
	<path d="M446.3,385.5c3.399-0.1,6.8-0.1,10.101,0c3.399,0.1,6.699,0.3,10.101,0.6c3.399,0.3,6.699,0.8,10,1.5
		c1.6,0.4,3.3,0.9,4.8,1.5c1.5,0.7,3.101,1.5,4.2,2.8c-1.101-1.3-2.7-2.1-4.2-2.7c-1.601-0.6-3.2-1-4.8-1.4
		c-3.301-0.7-6.601-1-10-1.3c-6.7-0.5-13.5-0.5-20.2-0.1L446.3,385.5L446.3,385.5z"/>
</g>
<g>
	<path d="M465.9,405.8c-0.399,0.101-1,0.3-1.399,0.601c-0.5,0.3-0.9,0.699-1.2,1.1c-0.8,0.8-1.399,1.8-1.899,2.9
		c-1,2.1-1.7,4.399-2.2,6.699c-1,4.602-1.3,9.4-1.399,14.102c-0.101-4.7,0-9.5,0.899-14.2c0.399-2.4,1-4.7,2-6.9
		c0.5-1.1,1.101-2.199,1.899-3.1c0.399-0.5,0.801-0.9,1.399-1.3c0.5-0.4,1.101-0.7,1.801-0.8L465.9,405.8z"/>
</g>
<g>
	<path d="M289.3,618.9c2.101,2.198,4.2,4.5,6.101,6.898c1.899,2.4,3.8,4.8,5.5,7.3c1.699,2.5,3.3,5.2,4.5,8
		c0.601,1.4,1.101,2.9,1.399,4.4s0.399,3,0.2,4.6c0.5-3.1-0.601-6.1-1.801-8.8c-1.301-2.8-2.899-5.3-4.699-7.8
		c-1.801-2.5-3.7-4.8-5.7-7.1c-2-2.302-4.1-4.5-6.2-6.602L289.3,618.9z"/>
</g>
<g>
	<path d="M266,533.2c-2.4,0-4.9,0.398-7.3,1c-2.4,0.6-4.7,1.398-7,2.398c-4.5,2-8.601,5-11.9,8.7c3.2-3.8,7.2-7,11.7-9.2
		c2.2-1.1,4.6-2,7-2.698c2.399-0.7,4.899-1.102,7.399-1.302L266,533.2z"/>
</g>
<g>
	<path d="M265.5,451.6c-0.9-4-1.8-8-2.8-11.898c-0.5-2-1.101-3.9-1.7-5.9c-0.3-1-0.7-1.898-1.101-2.898
		c-0.199-0.5-0.399-0.9-0.699-1.302c-0.101-0.198-0.301-0.398-0.5-0.5c-0.2-0.1-0.5,0.102-0.601,0.302
		c0.101-0.2,0.4-0.5,0.601-0.302c0.199,0.102,0.399,0.302,0.6,0.5c0.3,0.4,0.6,0.9,0.8,1.302c0.5,0.898,0.8,1.898,1.2,2.8
		c0.7,1.898,1.4,3.898,2,5.8c1.2,3.9,2.3,7.9,3.3,11.8L265.5,451.6z"/>
</g>
<g>
	<path d="M244.5,336.7c-1.9-0.6-4-0.9-6.101-1.1c-2.1-0.2-4.1-0.1-6.199,0.1c-4.101,0.5-8.101,2.1-11.4,4.8
		c3.1-2.8,7.1-4.6,11.3-5.2c2.101-0.3,4.2-0.5,6.3-0.4c2.101,0.1,4.2,0.4,6.301,0.9L244.5,336.7z"/>
</g>
<g>
	<path d="M200.7,399.6c-3-0.899-6.2-1.399-9.301-1.5c-3.199-0.199-6.399,0-9.5,0.601c-3.1,0.6-6.199,1.6-9,3.1
		c-2.899,1.4-5.5,3.3-7.8,5.5c2.3-2.3,4.8-4.2,7.7-5.8c2.8-1.5,5.9-2.6,9-3.3c3.2-0.7,6.4-1,9.6-0.9c3.2,0.101,6.4,0.5,9.601,1.3
		L200.7,399.6z"/>
</g>
<g>
	<path d="M338.9,283.9c-0.2,3.8-0.601,7.5-1,11.3c-0.301,1.9-0.5,3.7-0.899,5.6c-0.2,0.9-0.4,1.8-0.7,2.7s-0.601,1.8-1.3,2.5
		c0.6-0.7,0.899-1.6,1.199-2.5c0.301-0.9,0.399-1.8,0.601-2.7c0.3-1.8,0.5-3.7,0.7-5.6c0.3-3.7,0.5-7.5,0.5-11.2L338.9,283.9z"/>
</g>
<g>
	<path d="M316,258.9c0.8,1.8,1.399,3.6,1.899,5.5s0.899,3.7,1.101,5.7c0.199,1.9,0.199,3.9-0.301,5.7c-0.5,1.9-1.5,3.6-3.101,4.7
		c1.5-1.2,2.5-2.9,2.9-4.8c0.399-1.9,0.3-3.8,0.1-5.6c-0.3-1.9-0.699-3.7-1.3-5.5c-0.601-1.8-1.3-3.6-2.101-5.3L316,258.9z"/>
</g>
<g>
	<path d="M328.3,272.7c5.2-0.7,10.399-1.2,15.601-1.2c2.601,0,5.199,0.1,7.8,0.5c1.3,0.2,2.601,0.5,3.8,1c1.2,0.5,2.4,1.2,2.9,2.5
		c-0.5-1.2-1.801-1.9-3-2.3c-1.2-0.4-2.5-0.7-3.801-0.8c-2.601-0.3-5.199-0.3-7.8-0.2c-5.2,0.2-10.3,0.8-15.399,1.7L328.3,272.7z"/>
</g>
<g>
	<path d="M145.8,445.3c-1.1,4.9-2.5,9.8-4.1,14.602c-0.801,2.398-1.7,4.8-2.801,7.1c-0.5,1.1-1.1,2.3-1.8,3.4
		c-0.7,1.1-1.399,2.1-2.399,2.898c1-0.8,1.699-1.898,2.3-3c0.6-1.1,1.2-2.2,1.7-3.398c1-2.302,1.8-4.7,2.5-7.102
		c1.399-4.8,2.6-9.8,3.6-14.7L145.8,445.3z"/>
</g>
<g>
	<path d="M293.2,557.7c3.198,3.898,6.1,7.898,8.8,12.1c1.3,2.102,2.6,4.3,3.6,6.5c0.5,1.102,1,2.3,1.301,3.5
		c0.3,1.2,0.5,2.5,0.101,3.7c0.3-1.2,0.1-2.5-0.2-3.7c-0.399-1.2-0.9-2.3-1.4-3.398c-1.1-2.2-2.398-4.302-3.799-6.4
		c-2.801-4.1-5.899-8-9.201-11.7L293.2,557.7z"/>
</g>
<g>
	<path d="M358.9,492.7c4.3,0.6,8.601,1.3,12.8,2.3c2.101,0.5,4.2,1.1,6.3,1.8c1,0.4,2,0.8,3,1.3c0.9,0.5,1.9,1.102,2.4,2.102
		c-0.601-0.9-1.601-1.5-2.5-2c-1-0.5-2-0.9-3-1.2c-2.101-0.7-4.2-1.2-6.301-1.6c-4.199-0.802-8.5-1.4-12.8-1.802L358.9,492.7z"/>
</g>
<g>
	<path d="M263.7,310.9c1.5,2,2.8,4,4,6.2c1.199,2.1,2.399,4.3,3.3,6.6c0.899,2.3,1.7,4.6,2.1,7c0.4,2.4,0.4,5-0.5,7.2
		c0.8-2.3,0.7-4.8,0.2-7.2c-0.5-2.4-1.3-4.7-2.3-6.9c-1-2.2-2.2-4.3-3.5-6.4c-1.3-2-2.7-4.1-4.2-5.9L263.7,310.9z"/>
</g>
</svg>
