<?xml version="1.0" encoding="utf-8"?>
<!-- Generator: Adobe Illustrator 15.0.0, SVG Export Plug-In . SVG Version: 6.00 Build 0)  -->
<!DOCTYPE svg PUBLIC "-//W3C//DTD SVG 1.1//EN" "http://www.w3.org/Graphics/SVG/1.1/DTD/svg11.dtd">
<svg version="1.1" id="www.ABC-color.com" xmlns="http://www.w3.org/2000/svg" xmlns:xlink="http://www.w3.org/1999/xlink" x="0px"
	 y="0px" width="567px" height="822px" viewBox="0 0 567 822" enable-background="new 0 0 567 822" xml:space="preserve">
<rect display="none" fill="#FFFFFF" width="567" height="822"/>
<path fill="#FFFFFF" stroke="#000000" stroke-miterlimit="10" d="M536.1,458.4c6.101-1.802,10.5-2.302,10.5-2.302
	c-7.399,71-22.1,103.102-22.1,103.102c-4.5-5.602-8.4-10.9-11.801-15.9C473.699,484.2,515.3,464.3,536.1,458.4z"/>
<path id="ABC-color.com" fill="#FFFFFF" stroke="#000000" stroke-miterlimit="10" d="M496.699,89.9
	c19.101,45.4,36.801,325.2,39.5,368.5C515.3,464.4,473.8,484.3,512.8,543.3l-0.2,0.102c0,0-45.101,27.1-85.601,55.5
	c-40.5,28.398-79.199,100.398-112.3,161c0,0-11.899,22-8.2-12c3.7-34.102,65.301-128.102,87.4-143.2
	c22.1-15.102,74-47.4,90.199-65.3c16.2-17.9-60.3,18.698-89.3,31.198s-59.2,40.602-82,55.802c-13.301,8.898-70,82.3-73.7,63.398
	c-3.7-18.898,55.299-77.6,73.7-87.1c18.399-9.5,69-46.5,92.101-56.8c20.5-9.2,40.5-18.102,40.5-18.102s-88.801,18.9-116.9,24.7
	C296.3,559.1,202.3,617.8,202.3,617.8s-46,28.5-68.101,56.8c-25.8,33-12-2.8-2.8-18C140.6,641.4,209,594.2,230.8,579.9
	c40.399-26.5,84-40.602,94.899-43.5c11-2.9,70.101-21.7,100.2-27.302c12-0.8,17.699-1.198,14.899-1.5c-3-0.3-8.2,0.302-14.899,1.5
	c-57.801,3.7-261.5,15.5-350.7,63.302c-106.5,57-22.1-7.602-3.699-13.302C89.9,553.4,214.4,494.8,432.499,494.8
	c157.5,0-157.3-19.5-197.1-13.6c-72.7,10.7-21.1-12.102,6.601-14c27.6-1.9,216.999,14.398,194.3,1.1
	c-22.301-13-327.8-58.7-359.101-51.1c-31.3,7.6-11-24.6,38.7-17c49.7,7.6,334.3,58.7,327.8,55.8
	c-23.101-10.1-292.8-195.9-318.6-195.9c-25.8,0,2.8-22.7,27.5-7c14.9,9.4,309.5,200.6,318.8,203.4
	c9.199,2.8-261.601-264.1-278.101-320.3c-17.5-59.6,16.6,0,16.6,0s252.5,298.6,273.5,314.1c23.3,17.3-218.2-286.7-236.701-305.6
	c-18.399-18.9,16.601-13.2,24.9,1.9c3.1,5.6,233,308.5,225.399,293.3C485.9,417.8,330.6,151.2,283.6,110.1
	c-38.1-33.3,7.5-5.1,17.5,2.4c17.5,13.3,195.2,293,211.801,313.2C527.8,444.4,381,112.6,366.1,88.3c-19.3-31.6,8.9-15.4,21.801,1.6
	c12.899,17,129.899,305.2,138.699,343C535.4,470.799,487.7,97.4,487.7,97.4S475.9,40.7,496.699,89.9z"/>
</svg>
