<?xml version="1.0" encoding="utf-8"?>
<!-- Generator: Adobe Illustrator 15.0.0, SVG Export Plug-In . SVG Version: 6.00 Build 0)  -->
<!DOCTYPE svg PUBLIC "-//W3C//DTD SVG 1.1//EN" "http://www.w3.org/Graphics/SVG/1.1/DTD/svg11.dtd">
<svg version="1.1" id="layer_x5F_www.ABC-color.com"
	 xmlns="http://www.w3.org/2000/svg" xmlns:xlink="http://www.w3.org/1999/xlink" x="0px" y="0px" width="822px" height="567px"
	 viewBox="0 0 822 567" enable-background="new 0 0 822 567" xml:space="preserve">
<path id="www.ABC-color.com" fill="#FFFFFF" stroke="#000000" d="M193.4,478.8C121.4,514.6,70.2,528.9,70.2,528.9L71,518
	c41.8-16.2,80.7-34,116.6-52.8c232.1-120.8,343.8-279,345.8-281.9C434.9,336.9,293.9,428.8,193.4,478.8z"/>
<path fill="#FFFFFF" stroke="#000000" d="M533.5,183.4c-2,2.8-113.801,161.1-345.8,281.9L187,464c-36.601-62.4,30.5-93.6,30.5-93.6
	C184.8,239.8,308.699,223.8,308.699,223.8c17.601-169.1,129.5-104.3,129.5-104.3C471.8-3.9,544.3,60.3,544.3,60.3
	C708.699-49.9,636,147.5,636,147.5c55.6,81.6-28.101,123.4-28.101,123.4C622.9,376,519.6,391,519.6,391
	C479.9,528.2,397.4,475.2,397.4,475.2c-37.801,103.1-111,31.3-111,31.3c-61,64.7-91.699-24-92.899-27.7
	C293.9,428.8,434.9,336.9,533.5,183.4z"/>
</svg>
