<?xml version="1.0" encoding="utf-8"?>
<!-- Generator: Adobe Illustrator 15.0.0, SVG Export Plug-In . SVG Version: 6.00 Build 0)  -->
<!DOCTYPE svg PUBLIC "-//W3C//DTD SVG 1.1//EN" "http://www.w3.org/Graphics/SVG/1.1/DTD/svg11.dtd">
<svg version="1.1" id="www.ABC-color.com" xmlns="http://www.w3.org/2000/svg" xmlns:xlink="http://www.w3.org/1999/xlink" x="0px"
	 y="0px" width="822px" height="567px" viewBox="0 0 822 567" enable-background="new 0 0 822 567" xml:space="preserve">
<rect display="none" fill="#FFFFFF" width="822" height="567"/>
<path fill="#FFFFFF" stroke="#000000" stroke-miterlimit="10" d="M410.199,124.3v-0.2c33.101-6,55.899-15.3,54.801-23.1h0.3l0.7,4
	c1.199,8.7-29.5,20.3-68.601,25.9s-71.899,3.1-73.101-5.6l-0.399-2.4c4.699,7.4,35.399,9.3,71.8,4.2
	C395.5,127.1,401.8,128.8,410.199,124.3z"/>
<path fill="#FFFFFF" stroke="#000000" stroke-miterlimit="10" d="M323.699,122.9l0.399,2.4c1.301,8.7,34,11.2,73.101,5.6
	s69.899-17.2,68.601-25.9l-0.7-4l-2.5-15l-1.399-8.3c43.5-0.7,73.7,5.4,75.399,17.2c0.801,5.9-5.5,14.9-17.199,24.6
	C507,130,488,141.4,465,150.8c-19,7.7-40.801,14.1-64.301,17.5c-24,3.4-46.899,3.3-67.199,1l0,0c-45.9-5.2-78.4-21.7-80.2-33.8
	c-0.6-3.9,2.4-8,8.2-12.1c11.1-8.1,32.5-16.5,58.399-24l1,6L323.699,122.9z"/>
<path fill="#FFFFFF" stroke="#000000" stroke-miterlimit="10" d="M410.199,124.1v0.2c-8.399,4.4-14.699,2.8-14.699,2.8L394,116
	l-0.7-4.9v-0.3c6.3-5.9,15.2-1.2,15.2-1.2L410.199,124.1z"/>
<path fill="#FFFFFF" stroke="#000000" stroke-miterlimit="10" d="M695.5,353.7c-28.7,6-25.4-16.5-25.4-16.5
	c10.601,1.5,25.4-20.2,25.4-20.2c-19.301-5.3-11.301-54-11.301-54s2,48.7,31.301,50c0,0-18.7,30.9-28.7,30.9c0,0,14.7,1.3,32.7-6.7
	c0,0-22,35.1-35.301,35.1c0,0,24.601,8,38.601-2c-0.7,0.9-22.7,29.9-39.5,32.102c-1.601,0.1-2.5,0.1-2.5,0.1c0.8,0,1.601,0,2.5-0.1
	c6.3-0.302,22.8-1.5,30.899-4.102c0,0-2.699,22.7-64.699,28c0,0-2-0.3-6.601,1.4c5.699-2.4,44.601-14.8,44.601-14.8
	c-15.301,1.1-30-10.4-30-10.4c8.699,0.9,38-18.3,38-18.3c-32,2.7-35-12.8-35-12.8C666.1,374.6,694.699,354.3,695.5,353.7z"/>
<path fill="#FFFFFF" stroke="#000000" stroke-miterlimit="10" d="M124.7,412c0,0,38.899,12.4,44.6,14.8
	c-4.6-1.7-6.6-1.398-6.6-1.398c-62-5.302-64.7-28-64.7-28c8,2.698,24.6,3.8,30.899,4.1c0.801,0.1,1.7,0.2,2.5,0.1
	c0,0-0.899,0-2.5-0.1c-16.8-2.2-38.8-31.2-39.5-32.101c14,10,38.601,2,38.601,2c-13.3,0-35.3-35.101-35.3-35.101
	c18,8,32.699,6.7,32.699,6.7c-10,0-28.699-30.9-28.699-30.9c29.3-1.3,31.3-50,31.3-50s8,48.7-11.3,54c0,0,14.899,21.7,25.399,20.2
	c0,0,3.2,22.5-25.399,16.5c0.8,0.601,29.399,20.9,35,17.8c0,0-3,15.5-35,12.801c0,0,29.3,19.199,38,18.301
	C154.7,401.6,140,413.1,124.7,412z"/>
<path fill="#FFFFFF" stroke="#000000" stroke-miterlimit="10" d="M537.5,402.7c0,0,51.899-5.8,36,81.7c0,0-9.301,30-75.301,22
	c0,0-62.199,50.698-87.8-7.7v-0.2c13.3-1.3,24.699-10.2,29.601-15.2c18-21.3,3.3-31-4-29.6c1.3-14,11.5-40.7,11.5-40.7l0,0
	c0-0.3,0.6-6.5,47.3-3.3C494.8,409.7,512.9,414.2,537.5,402.7z"/>
<path fill="#FFFFFF" stroke="#000000" stroke-miterlimit="10" d="M436,453.7c7.3-1.4,22,8.3,4,29.6c-4.9,5-16.301,13.9-29.601,15.2
	c-10,1-21.101-2.5-31.301-15.2c0,0-16.899-29.6,2.301-28.5C396.1,455.7,397.3,461.1,436,453.7z"/>
<path fill="#FFFFFF" stroke="#000000" stroke-miterlimit="10" d="M379,483.3c10.199,12.7,21.3,16.102,31.3,15.2v0.2
	c-43.3,60-96.399,6.7-96.399,6.7c-66,8-75.3-22-75.3-22c-15.899-87.5,36-81.7,36-81.7c24.6,11.5,42.6,7,42.6,7
	c46.7-3.2,47.3,3,47.3,3.3l0,0c0,0,15.301,28.8,16.601,42.8C362.1,453.7,379,483.3,379,483.3z"/>
<path fill="#FFFFFF" stroke="#000000" stroke-miterlimit="10" d="M213.3,332c-11,8.4-28.3,5.5-29.3,5.3l0,0c0,0,32.6-2,51.7-38
	c0,0,34.3-76.7,74.3-71.3c0,0,35.3-5.8,51.699,65c3.801,16.3,6.5,36.6,7.7,61.9c0,0,5.3,39.699-4.7,57c6-38-27.3-124.7-27.3-124.7
	c-39.3-61.3-70-18.7-70-18.7C255.2,301,213.3,332,213.3,332z"/>
<path fill="#FFFFFF" stroke="#000000" stroke-miterlimit="10" d="M322.1,393c3.301,0.2,6.5,0.6,9.5,0.9
	C343.3,395.3,352,397.3,352,397.3c-1.301-40.7-19.4-84-19.4-84c-28.7-64-61.898-32.7-61.898-32.7c-26,40-62,58-62,58
	c16,10,40.699,30,40.699,30c9.6,10.9,18.3,17.2,25.4,20.801c11.5,5.8,18.6,4.6,18.6,4.6C302.4,392.3,312.699,392.3,322.1,393z
	 M337.3,287.3c0,0,33.3,86.7,27.3,124.7c0-0.3-0.601-6.5-47.3-3.3c0,0-18.101,4.5-42.6-7c-9.5-4.4-19.9-11.3-30.7-21.7
	c0,0-24-34.6-60-42.7c1,0.2,18.3,3.101,29.3-5.3c0,0,41.9-31,54-63.3C267.3,268.7,298,226,337.3,287.3z"/>
<path fill="#FFFFFF" stroke="#000000" stroke-miterlimit="10" d="M301.3,316c0,0,37.601,2.7,30.3,77.9c-3-0.4-6.199-0.7-9.5-0.9
	c7.601-56.8-12.101-56.8-12.101-56.8C279.3,339.1,293.3,394,293.3,394s-7.2,1.3-18.601-4.6C274.7,389.4,262.7,324.7,301.3,316z"/>
<path fill="#FFFFFF" stroke="#000000" stroke-miterlimit="10" d="M310,336.2c0,0,19.8,0,12.1,56.8c-9.399-0.7-19.7-0.7-28.8,1
	C293.3,394,279.3,339.1,310,336.2z M318,370.5c0-8.6-3.4-15.5-7.601-15.5c-4.201,0-7.601,6.9-7.601,15.5s3.399,15.5,7.601,15.5
	C314.6,386,318,379,318,370.5z"/>
<path fill="#FFFFFF" stroke="#000000" stroke-miterlimit="10" d="M310.4,355c4.199,0,7.601,6.9,7.601,15.5S314.6,386,310.4,386
	c-4.2,0-7.601-7-7.601-15.5C302.8,361.9,306.199,355,310.4,355z"/>
<path fill="#FFFFFF" stroke="#000000" stroke-miterlimit="10" d="M332.6,313.3c0,0,18.101,43.3,19.4,84c0,0-8.601-2-20.4-3.399
	c7.301-75.199-30.3-77.899-30.3-77.899c-38.7,8.7-26.6,73.399-26.6,73.399c-7-3.601-15.7-9.899-25.4-20.801c0,0-24.7-20-40.7-30
	c0,0,36-18,62-58C270.7,280.7,303.9,249.3,332.6,313.3z"/>
<path fill="#FFFFFF" stroke="#000000" stroke-miterlimit="10" d="M501.8,356c4.2,0,7.601,6.9,7.601,15.5S506,387,501.8,387
	s-7.601-7-7.601-15.5C494.199,362.9,497.6,356,501.8,356z"/>
<path fill="#FFFFFF" stroke="#000000" stroke-miterlimit="10" d="M502.199,337.2c30.7,2.899,16.7,57.8,16.7,57.8
	c-9.101-1.7-19.399-1.7-28.801-1C482.4,337.2,502.199,337.2,502.199,337.2z M509.4,371.5c0-8.6-3.399-15.5-7.601-15.5
	s-7.601,6.9-7.601,15.5s3.399,15.5,7.601,15.5S509.4,380,509.4,371.5z"/>
<path fill="#FFFFFF" stroke="#000000" stroke-miterlimit="10" d="M510.8,317c38.7,8.7,26.601,73.4,26.601,73.4
	c-11.5,5.8-18.601,4.6-18.601,4.6s14-54.9-16.7-57.8c0,0-19.8,0-12.101,56.8c-3.3,0.2-6.5,0.6-9.5,0.9
	C473.199,319.7,510.8,317,510.8,317z"/>
<path fill="#FFFFFF" stroke="#000000" stroke-miterlimit="10" d="M541.5,281.7c26,40,62,58,62,58c-16,10-40.7,30-40.7,30
	c-9.601,10.899-18.3,17.2-25.399,20.8c0,0,12-64.8-26.601-73.4c0,0-37.601,2.7-30.301,77.9c-11.699,1.4-20.399,3.4-20.399,3.4
	c1.301-40.7,19.399-84,19.399-84C508.3,250.3,541.5,281.7,541.5,281.7z"/>
<path fill="#FFFFFF" stroke="#000000" stroke-miterlimit="10" d="M490,394c9.399-0.7,19.699-0.7,28.8,1c0,0,7.2,1.3,18.601-4.6
	c7-3.602,15.699-9.9,25.399-20.801c0,0,24.7-20,40.7-30c0,0-36-18-62-58c0,0-33.301-31.3-61.9,32.7c0,0-18.1,43.301-19.399,84
	c0,0,8.601-2,20.399-3.398C483.5,394.6,486.699,394.3,490,394z M598.8,333c11,8.4,28.3,5.5,29.3,5.3c-36,8-60,42.7-60,42.7
	c-10.8,10.4-21.199,17.2-30.699,21.7c-24.601,11.5-42.601,7-42.601,7c-46.7-3.2-47.301,3-47.301,3.3
	c-6-38,27.301-124.7,27.301-124.7c39.3-61.3,70-18.7,70-18.7C557,302,598.8,333,598.8,333z"/>
<path fill="#FFFFFF" stroke="#000000" stroke-miterlimit="10" d="M628.199,338.3L628.199,338.3c-1,0.2-18.3,3.101-29.3-5.3
	c0,0-41.801-31-54-63.3c0,0-30.7-42.7-70,18.7c0,0-33.301,86.699-27.301,124.698c-10-17.3-4.699-56.999-4.699-56.999
	c1-22.199,3.199-40.601,6.3-55.699c15.7-77.3,53-71.2,53-71.2c40-5.3,74.301,71.3,74.301,71.3
	C595.5,336.3,628.199,338.3,628.199,338.3z"/>
<path fill="#FFFFFF" stroke="#000000" stroke-miterlimit="10" d="M448.8,300.2l0.399,0.1c-3.101,15.101-5.3,33.5-6.3,55.7
	c0,0-5.301,39.7,4.699,57l0,0c0,0-10.199,26.7-11.5,40.7c-38.699,7.398-39.899,2-54.699,1.1c-1.301-14-16.601-42.8-16.601-42.8l0,0
	c10-17.3,4.7-57,4.7-57c-1.101-25.4-3.9-45.7-7.7-61.9l0.399-0.1c0,0,10.601,19.7,11.899,31.7c0,0,2.7-2.399,3.301-15.899
	c0,0,8,7.199,8,15.899c0,0,6-10.7,8-22.7c0,0,14.8,22.3,8.8,43.4c0,0,0,0,0,0.1c0,0,0,0,0-0.1c0.5-1.2,8.3-20.5,11.8-36
	c0,0,0.7,4,4.7,12.699c0,0,11-17.601,11-27c0.7,6.199,2.7,24.601,5,29C434.699,324,440.9,307.6,448.8,300.2z"/>
<path fill="#FFFFFF" stroke="#000000" stroke-miterlimit="10" d="M451.9,20c1.199,8.7-29.5,20.3-68.601,25.9S311.4,49,310.199,40.3
	c-1.2-8.7,29.5-20.3,68.601-25.9S450.699,11.3,451.9,20z"/>
<path fill="#FFFFFF" stroke="#000000" stroke-miterlimit="10" d="M393.4,110.8v0.3l0,0c-38.7,5.4-71,2.9-72.2-5.8l-0.3,0.1l-1-6
	l-9.7-59c1.301,8.7,34,11.2,73.101,5.6s69.899-17.2,68.601-25.9l9.5,57.7l1.399,8.3c1.101,7.8-21,17.5-54.2,23.6
	C408.6,109.6,399.699,104.9,393.4,110.8z"/>
<path fill="#FFFFFF" stroke="#000000" stroke-miterlimit="10" d="M462.8,86l2.5,15H465c1.1,7.8-21.601,17.1-54.801,23.1l-1.601-14.5
	C441.8,103.6,463.9,93.8,462.8,86z"/>
<path fill="#FFFFFF" stroke="#000000" stroke-miterlimit="10" d="M394,116l1.5,11.1c-36.4,5.1-67.101,3.2-71.801-4.2l-2.899-17.5
	l0.3-0.1c1.2,8.6,33.5,11.2,72.2,5.8l0,0L394,116z"/>
<path fill="#FFFFFF" stroke="#000000" stroke-miterlimit="10" d="M465,150.8L465,150.8c-27.801,20.1-31.301,47.3-31.301,47.3
	C421.1,183.7,411,183.7,411,183.7c1.8,16.8-17.601,69.4-17.601,69.4c-6.5-62-21.2-70.4-21.2-70.4
	c-3.899-2.9-20.101,16.4-20.101,16.4c-2-23.5-18.101-29.7-18.601-29.9c20.301,2.3,43.2,2.4,67.2-1
	C424.1,164.9,445.9,158.5,465,150.8z"/>
<path fill="#FFFFFF" stroke="#000000" stroke-miterlimit="10" d="M711.8,31c0,0,21.8,39.4,5.8,102.7c0,0-7,100.7-51.8,99
	c0,0-0.8-1.5-2.601-3.9c-2.399-8.9-18.3-28.4-18.3-28.4l10.699-8.7c-20.5,2.2-27.3-9.3-27.3-9.3c-1.3-7.3,30.101-8,30.101-8
	c-4-8-30.101-4.7-30.101-4.7c1.3-12.7,34-12.4,34-12.4c-14.399-10.4-28.399-5.3-29.3-4.9c15.3-7.3,37.199-20.5,37.199-20.5
	L647,131.6c69.199-45.4,65-97.3,65-97.3l-0.7-0.2C711.6,33,711.699,32,711.8,31z"/>
<path fill="#FFFFFF" stroke="#000000" stroke-miterlimit="10" d="M712,34.3c0,0,4.3,51.9-65.101,97.2l23.199,0.3
	c0,0-21.8,13.1-37.199,20.5c0.899-0.3,14.899-5.5,29.3,4.9c0,0-32.699-0.2-34,12.4c0,0,26.101-3.3,30.101,4.7
	c0,0-31.399,0.7-30.101,8c0,0,6.801,11.6,27.301,9.3l-10.7,8.7c0,0,15.899,19.5,18.3,28.4c-6.6-9.2-26.1-32.3-62.399-41.8l-0.7-21.4
	c0,0-5.8-18.6,0.9-28.6c2.5-3.7-0.4,13.3,8,16l4.699-32c0,0,2,11,7.301,10c0,0,5.399-31.6,7.3-25.3c3.3,10.7,3.3,11.3,8,9.3
	c0,0,10.7-2.7,45.3-37.3c0,0,25.9-28.1,29.801-43.5L712,34.3z"/>
<path id="ABC-color.com" fill="#FFFFFF" stroke="#000000" stroke-miterlimit="10" d="M429.5,293c0,0.2,0.1,0.9,0.199,2
	c0,9.5-11,27-11,27c-4-8.7-4.699-12.7-4.699-12.7c-3.601,15.5-11.301,34.8-11.801,36c6-21.1-8.8-43.399-8.8-43.399
	c-2,12-8,22.699-8,22.699c0-8.699-8-15.898-8-15.898c-0.7,13.5-3.301,15.898-3.301,15.898c-1.3-12-11.899-31.699-11.899-31.699
	L361.8,293c-16.399-70.8-51.7-65-51.7-65c-40-5.3-74.3,71.3-74.3,71.3c-19,36-51.7,38-51.7,38l0,0c36,8,60,42.7,60,42.7
	c10.8,10.4,21.2,17.2,30.7,21.7c0,0-51.9-5.8-36,81.7c-38.4-40.602-59.4-52.802-69.1-56.5c-0.101,0-0.2-0.102-0.301-0.102
	C163.7,424.4,124.8,412,124.8,412c15.3,1.1,30-10.4,30-10.4c-8.7,0.9-38-18.3-38-18.3c32,2.7,35-12.8,35-12.8
	c-5.6,3.1-34.1-17.2-35-17.8c28.6,6,25.4-16.5,25.4-16.5c-10.601,1.5-25.4-20.2-25.4-20.2c19.3-5.3,11.3-54,11.3-54
	C34.7,110.7,102,19.3,102,19.3c2.7,15.3,30.7,32,30.7,32C144,61.3,189.3,66,189.3,66c36,2,49.3,20,49.3,20s18.5,20.7,22.8,37.3
	c-5.8,4.2-8.699,8.3-8.199,12.1c1.699,12.1,34.3,28.5,80.199,33.8l0,0c0.5,0.2,16.601,6.4,18.601,29.9c0,0,16.3-19.3,20.1-16.4
	c0,0,14.7,8.4,21.2,70.4c0,0,19.5-52.6,17.601-69.4c0,0,10.101,0,22.699,14.4c0,0,3.4-27.2,31.301-47.3l0,0
	c23.101-9.4,42-20.8,54.699-31.3c28.601,2.6,33.101,10.7,33.801,13.3c0,0.3,0.101,0.5,0.101,0.8c0-0.1,0-0.4-0.101-0.8
	C550.9,114.8,573.5,87,573.5,87s13.3-18,49.3-20c0,0,45.3-4.7,56.7-14.7c0,0,28-16.7,30.699-32c0,0,67.301,91.3-26,242.7
	c0,0-8,48.7,11.301,54c0,0-14.801,21.7-25.4,20.2c0,0-3.199,22.5,25.4,16.5c-0.801,0.6-29.4,20.899-35,17.8c0,0,3,15.5,35,12.8
	c0,0-29.301,19.2-38,18.3c0,0,14.699,11.5,30,10.4c0,0-38.9,12.4-44.601,14.8c-0.101,0-0.2,0.102-0.301,0.102
	c-9.699,3.698-30.8,15.898-69.199,56.5c15.899-87.5-36-81.7-36-81.7c9.5-4.4,19.899-11.301,30.699-21.7c0,0,24-34.601,60-42.7l0,0
	c0,0-32.6-2-51.699-38c0,0-34.301-76.7-74.301-71.3c0,0-37.3-6.1-53,71.2l-0.399-0.102c-7.899,7.5-14.101,23.801-14.101,23.801
	c-2.199-4.399-4.3-22.801-5-29C429.699,294.3,429.699,293.6,429.5,293z M717.5,133.7c16-63.3-5.801-102.7-5.801-102.7
	c0,1-0.199,2-0.5,3.2c-3.899,15.4-29.8,43.5-29.8,43.5c-34.7,34.7-45.301,37.3-45.301,37.3c-4.699,2-4.699,1.3-8-9.3
	c-1.899-6.2-7.3,25.3-7.3,25.3c-5.3,1-7.3-10-7.3-10l-4.7,32c-8.399-2.7-5.5-19.7-8-16c-6.7,10-0.899,28.6-0.899,28.6l0.699,21.4
	c36.4,9.5,55.9,32.5,62.4,41.8c1.699,2.4,2.6,3.9,2.6,3.9C710.5,234.3,717.5,133.7,717.5,133.7z M212.2,164.6c0,0,5.8-18.6-0.9-28.6
	c-2.5-3.7,0.4,13.3-8,16l-4.7-32c0,0-2,11-7.3,10c0,0-5.4-31.6-7.3-25.3c-3.3,10.7-3.3,11.3-8,9.3c0,0-10.7-2.7-45.3-37.3
	c0,0-25.9-28.1-29.801-43.5c-0.3-1.1-0.5-2.2-0.5-3.2c0,0-21.8,39.4-5.8,102.7c0,0,7,100.7,51.8,99c0,0,0.801-1.5,2.601-3.9
	c6.6-9.2,26.1-32.3,62.399-41.8L212.2,164.6z"/>
<path fill="#FFFFFF" stroke="#000000" stroke-miterlimit="10" d="M179.3,151.3c-15.3-7.3-37.2-20.5-37.2-20.5l23.2-0.3
	C96,85.2,100.2,33.3,100.2,33.3l0.699-0.2c3.9,15.4,29.801,43.5,29.801,43.5C165.3,111.3,176,114,176,114c4.7,2,4.7,1.3,8-9.3
	c1.899-6.2,7.3,25.3,7.3,25.3c5.3,1,7.3-10,7.3-10l4.7,32c8.4-2.7,5.5-19.7,8-16c6.7,10,0.9,28.6,0.9,28.6l-0.7,21.4
	c-36.4,9.5-55.9,32.5-62.4,41.8c2.4-8.9,18.3-28.4,18.3-28.4l-10.699-8.7c20.5,2.2,27.3-9.3,27.3-9.3c1.3-7.3-30-8-30-8
	c3.899-8,30-4.7,30-4.7c-1.3-12.7-34-12.4-34-12.4C164.4,145.9,178.4,151,179.3,151.3z"/>
<path fill="#FFFFFF" stroke="#000000" stroke-miterlimit="10" d="M100.2,33.3c0,0-4.2,51.9,65.1,97.2l-23.2,0.3
	c0,0,21.9,13.1,37.2,20.5c-0.9-0.3-14.9-5.5-29.3,4.9c0,0,32.7-0.2,34,12.4c0,0-26.101-3.3-30,4.7c0,0,31.399,0.7,30,8
	c0,0-6.8,11.6-27.3,9.3l10.699,8.7c0,0-15.899,19.5-18.3,28.4c-1.7,2.4-2.6,3.9-2.6,3.9c-44.8,1.7-51.8-99-51.8-99
	C78.7,69.3,100.4,30,100.4,30c0,1,0.2,2,0.5,3.2L100.2,33.3z"/>
<path fill="none" stroke="#000000" stroke-miterlimit="10" d="M314,505.3c0,0-9.801-3.8-18.8-22"/>
<g>
	<path d="M287,485c2.399,0,4.5-0.4,6.3-1.4c0.9-0.5,1.7-1.198,2.5-1.898c0.7-0.8,1.4-1.7,2.2-2.7h0.1c-0.4,1.1-0.899,2.2-1.6,3.1
		c-0.7,0.9-1.601,1.802-2.601,2.302c-1,0.6-2.199,0.898-3.399,1C289.3,485.5,288.1,485.4,287,485L287,485z"/>
</g>
<g>
	<path d="M272.9,279.1c-2.899-1-5.699-2.5-8.3-4.2c-2.6-1.7-5.1-3.5-7.5-5.5c-4.7-4.1-8.899-8.8-12.399-13.9
		c-1.801-2.6-3.5-5.2-5-7.9c-1.5-2.7-2.801-5.6-3.801-8.6s-1.8-6-2.399-9c-0.601-3.1-1-6.2-1-9.3l0.399-0.1
		c1.2,2.9,2.2,5.8,3.301,8.6c1.1,2.8,2.199,5.6,3.399,8.4c1.2,2.8,2.4,5.5,3.601,8.2c1.199,2.7,2.6,5.4,4.1,8
		c3.1,5.1,6.8,9.9,11.1,14.2c4.301,4.3,9.101,8.1,14.5,10.8L272.9,279.1L272.9,279.1z"/>
</g>
<g>
	<path d="M268.7,283.7c-3.601-1.1-7.101-2.6-10.5-4.3c-3.4-1.6-6.801-3.4-10-5.4c-6.5-4-12.601-8.6-18.101-13.9
		c-2.8-2.6-5.399-5.4-7.899-8.4c-2.5-2.9-4.7-6.1-6.5-9.5c-1.801-3.4-3.4-6.9-4.7-10.5c-1.2-3.6-2.101-7.4-2.601-11.1l0.4-0.1
		c1.5,3.5,3.1,6.9,4.8,10.2c1.7,3.3,3.5,6.5,5.5,9.6c2,3.1,4,6.1,6.2,9.1c2.1,3,4.5,5.8,7,8.5c5.1,5.4,10.8,10.2,16.9,14.4
		c6.1,4.3,12.6,8,19.5,10.9L268.7,283.7L268.7,283.7z"/>
</g>
<g>
	<path d="M265,289c-4.5-1.2-8.8-2.8-13.101-4.5c-4.3-1.7-8.5-3.6-12.6-5.7c-8.2-4.2-16.2-9-23.6-14.7c-3.7-2.8-7.301-5.8-10.7-9
		c-3.4-3.2-6.5-6.7-9.3-10.5c-5.5-7.6-9.801-16.1-11.9-25.2l0.4-0.1c2.1,4.1,4.3,8.1,6.8,11.9c2.5,3.8,5.1,7.5,7.899,11
		c2.801,3.5,5.801,6.9,8.9,10.2c3.1,3.3,6.4,6.4,9.9,9.3c7,5.8,14.6,10.9,22.5,15.4c7.899,4.5,16.3,8.4,24.899,11.5L265,289z"/>
</g>
<g>
	<path d="M323.699,230.7c0-9.6-1-19.1-2.8-28.5c-1.801-9.4-4.5-18.5-8.399-27.1c-2-4.3-4.2-8.4-6.9-12.3c-2.6-3.9-5.5-7.6-8.6-11
		c-3.101-3.5-6.601-6.6-10.3-9.4c-3.801-2.8-7.801-5.3-12.101-7.5l0.101-0.4c9.4,2.3,18.2,7.5,25.2,14.5c3.5,3.5,6.5,7.4,9,11.7
		c2.5,4.2,4.601,8.6,6.5,13.2c3.601,9,6,18.5,7.399,28.1c0.7,4.8,1.101,9.6,1.399,14.4c0.2,4.8,0.301,9.6-0.101,14.4L323.699,230.7z
		"/>
</g>
<g>
	<path d="M317.8,228.7c-0.5-7.5-1.601-14.9-3.2-22.1c-1.601-7.3-3.8-14.4-6.699-21.1c-1.5-3.4-3.2-6.6-5.101-9.7
		c-1.9-3.1-4-6.1-6.2-8.9c-2.2-2.9-4.7-5.5-7.4-7.9c-2.699-2.4-5.699-4.6-8.899-6.6l0.2-0.4c7.399,1.9,14.1,6.6,19.199,12.3
		c2.601,2.9,4.8,6.1,6.601,9.5c1.8,3.4,3.3,6.9,4.7,10.5c2.699,7.1,4.5,14.5,5.699,22c0.601,3.7,1,7.5,1.301,11.2
		c0.3,3.8,0.399,7.5,0.3,11.3L317.8,228.7z"/>
</g>
<g>
	<path d="M309.8,228c-0.8-5.7-2.101-11.2-3.7-16.7c-1.601-5.5-3.601-10.8-6-15.9c-1.2-2.5-2.6-5-4.1-7.3c-1.5-2.4-3-4.7-4.601-6.9
		c-1.6-2.3-3.3-4.5-5.1-6.6c-1.8-2.1-3.8-4.1-5.9-6.2l0.2-0.3c2.7,1.1,5.3,2.6,7.601,4.5c2.3,1.8,4.399,3.9,6.399,6.2
		c1.9,2.3,3.5,4.8,4.899,7.4c1.301,2.6,2.601,5.3,3.601,8c2.2,5.4,3.8,11,5.1,16.7c1.101,5.7,2,11.4,2.2,17.2L309.8,228z"/>
</g>
<g>
	<path d="M362.1,469.2c-1.699-3.102-4.1-5.7-6.5-8.2c-2.5-2.5-5.1-4.8-7.899-6.9c-5.5-4.3-11.5-8-17.699-11.398
		c-12.4-6.7-25.5-11.9-38.8-16.102c-13.4-4.398-27-7.698-40.801-10.6c-6.899-1.5-13.8-2.8-20.699-3.9c-6.9-1.198-13.9-2.3-20.9-3.3
		v-0.1c14,1.7,27.9,3.8,41.8,6.6c13.8,2.8,27.5,6.102,40.9,10.5c13.399,4.3,26.6,9.602,38.899,16.4
		c6.199,3.398,12.101,7.2,17.601,11.6c2.8,2.2,5.399,4.602,7.8,7.102C358.199,463.3,360.5,466.1,362.1,469.2L362.1,469.2z"/>
</g>
<g>
	<path d="M359.3,484.4c-4.3-5.5-9.3-10.5-14.5-15.102c-5.2-4.6-10.8-8.898-16.601-12.8c-11.601-7.8-24.1-14.2-37.199-19.1
		c-13-5-26.7-8.302-40.5-10.302c-6.9-1-13.9-1.698-20.9-2.1s-14-0.5-21-0.3V424.6c14-0.698,28.101-0.198,42,1.7
		c13.9,1.9,27.601,5.3,40.7,10.2c13.099,4.9,25.7,11.4,37.2,19.4c5.8,4,11.3,8.3,16.5,13.1C350.3,473.6,355.199,478.7,359.3,484.4
		L359.3,484.4z"/>
</g>
<g>
	<path d="M340.6,483.4c-1.399-2.602-3.1-5-4.899-7.2c-1.8-2.3-3.899-4.4-6-6.4c-4.199-4.1-8.8-7.7-13.699-10.8
		c-9.801-6.3-20.601-11-31.9-14.2c-11.2-3.398-22.8-5.3-34.399-6.398c-5.801-0.602-11.7-0.9-17.5-1c-5.9-0.2-11.7-0.102-17.601,0.1
		v-0.1c11.7-0.7,23.5-0.7,35.2,0.3c11.7,1,23.4,2.898,34.7,6.2c11.3,3.3,22.199,8,32,14.5c4.899,3.198,9.5,6.898,13.699,11.1
		c2.101,2.1,4,4.3,5.801,6.6C337.699,478.2,339.4,480.7,340.6,483.4L340.6,483.4z"/>
</g>
<path fill="none" stroke="#000000" stroke-miterlimit="10" d="M496,507.3c0,0,9.8-3.8,18.8-22"/>
<g>
	<path d="M523,487c-1,0.7-2.301,1-3.5,1c-1.301,0-2.601-0.3-3.7-0.9c-1.101-0.6-2.101-1.6-2.7-2.698c-0.6-1.102-1-2.302-1.1-3.5h0.1
		c0.801,2.198,2.2,4.198,4.2,5.3C518.3,487.4,520.8,487.6,523,487L523,487z"/>
</g>
<g>
	<path d="M539.199,279.7c5.5-2.7,10.301-6.5,14.5-10.8c4.301-4.2,8-9.1,11.101-14.2c1.5-2.6,2.899-5.2,4.101-8
		c1.199-2.7,2.399-5.5,3.6-8.2c1.2-2.8,2.301-5.6,3.4-8.4c1.1-2.8,2.199-5.7,3.3-8.6l0.399,0.1c0,3.1-0.399,6.2-1,9.3
		c-0.6,3.1-1.399,6.1-2.399,9c-1,3-2.3,5.8-3.8,8.6c-1.5,2.7-3.2,5.4-5,7.9c-3.601,5.1-7.7,9.8-12.4,13.9
		c-2.399,2-4.899,3.9-7.5,5.5c-2.6,1.6-5.399,3.1-8.3,4.2L539.199,279.7L539.199,279.7z"/>
</g>
<g>
	<path d="M543.3,284.3c6.899-2.9,13.399-6.7,19.5-10.9c6.101-4.2,11.8-9.1,16.899-14.4c2.5-2.7,4.899-5.5,7-8.5c2.2-3,4.2-6,6.2-9.1
		s3.8-6.3,5.5-9.6c1.699-3.3,3.199-6.7,4.8-10.2l0.399,0.1c-0.399,3.8-1.3,7.5-2.6,11.1c-1.2,3.6-2.801,7.1-4.7,10.5
		c-1.899,3.4-4.101,6.6-6.5,9.5c-2.5,2.9-5.101,5.7-7.899,8.4c-5.5,5.3-11.601,9.9-18.101,13.9c-3.2,2-6.601,3.8-10,5.4
		s-6.899,3.1-10.5,4.3L543.3,284.3L543.3,284.3z"/>
</g>
<g>
	<path d="M547.1,289.6c8.601-3.1,17-7,24.9-11.5c8-4.5,15.6-9.6,22.5-15.4c3.5-2.9,6.8-6,9.899-9.3c3.101-3.3,6.101-6.7,8.899-10.2
		c2.899-3.5,5.5-7.2,7.899-11c2.399-3.8,4.7-7.8,6.801-11.9l0.399,0.1c-2.101,9.1-6.399,17.6-11.899,25.2
		c-2.801,3.8-5.9,7.3-9.301,10.5c-3.399,3.2-7,6.2-10.699,9c-7.4,5.6-15.301,10.5-23.601,14.7c-4.101,2.1-8.399,4-12.601,5.7
		c-4.3,1.7-8.601,3.3-13.101,4.5L547.1,289.6z"/>
</g>
<g>
	<path d="M488.1,231.7c-0.3-4.8-0.3-9.6-0.1-14.4c0.199-4.8,0.699-9.6,1.399-14.4c1.399-9.5,3.699-19,7.399-28.1
		c1.8-4.5,3.899-8.9,6.5-13.2c2.5-4.2,5.5-8.2,9-11.7c7-7,15.8-12.2,25.2-14.5l0.1,0.4c-4.3,2.2-8.3,4.7-12.1,7.5
		c-3.801,2.8-7.2,6-10.301,9.4c-3.101,3.4-6,7.1-8.601,11c-2.6,3.9-4.899,8-6.899,12.3c-3.899,8.6-6.601,17.8-8.399,27.1
		c-1.8,9.3-2.8,18.9-2.8,28.5L488.1,231.7z"/>
</g>
<g>
	<path d="M494,229.7c-0.101-3.8,0-7.5,0.3-11.3c0.3-3.8,0.7-7.5,1.3-11.2c1.2-7.4,3-14.8,5.7-22c1.3-3.6,2.899-7.1,4.7-10.5
		c1.8-3.4,4-6.6,6.6-9.5c5.101-5.8,11.801-10.4,19.2-12.3l0.2,0.4c-3.2,2-6.2,4.2-8.9,6.6c-2.699,2.4-5.199,5.1-7.399,7.9
		c-2.2,2.8-4.3,5.8-6.2,8.9c-1.899,3.1-3.6,6.4-5.1,9.7c-3,6.8-5.101,13.9-6.7,21.1c-1.601,7.3-2.7,14.7-3.2,22.1L494,229.7z"/>
</g>
<g>
	<path d="M502,229c0.199-5.8,1.1-11.5,2.199-17.2c1.2-5.7,2.899-11.2,5.101-16.7c1.101-2.7,2.3-5.4,3.601-8
		c1.399-2.6,3-5.1,4.899-7.4c1.899-2.3,4-4.4,6.399-6.2c2.301-1.8,4.899-3.4,7.601-4.5l0.2,0.3c-2.101,2-4.101,4.1-5.9,6.2
		c-1.799,2.1-3.5,4.3-5.1,6.6c-1.601,2.3-3.101,4.6-4.601,6.9s-2.899,4.8-4.101,7.3c-2.5,5.1-4.5,10.4-6,15.9
		c-1.601,5.4-2.899,11-3.7,16.7L502,229z"/>
</g>
<g>
	<path d="M456.4,473.4c1.101-3.302,3-6.2,5.101-9c2.1-2.802,4.399-5.4,6.8-7.802c5-4.8,10.601-9,16.399-12.8s12-6.898,18.3-9.8
		c6.301-2.9,12.801-5.4,19.301-7.7c13.101-4.398,26.5-7.898,40.101-10.6c6.8-1.3,13.6-2.5,20.399-3.5s13.7-1.8,20.601-2.5v0.1
		c-13.7,1.7-27.4,3.8-40.9,6.602c-13.5,2.8-26.899,6.3-39.899,10.8s-25.8,10-37.5,17.3c-5.899,3.6-11.399,7.7-16.5,12.5
		c-2.5,2.4-4.899,4.9-7,7.6C459.699,467.3,457.699,470.2,456.4,473.4L456.4,473.4z"/>
</g>
<g>
	<path d="M458.1,484.3c7.5-11.398,17.601-20.898,28.601-29c11.1-8.1,23.3-14.399,36.1-19.3c12.8-4.7,26.2-7.9,39.8-9.6
		c6.801-0.802,13.601-1.302,20.4-1.4c6.8-0.1,13.6,0.1,20.399,0.6v0.102c-13.601-0.7-27.2-0.3-40.7,1.5s-26.8,5-39.5,9.7
		c-12.699,4.698-24.899,11.1-36,18.898c-5.5,3.9-10.8,8.3-15.699,13C466.6,473.7,462,478.7,458.1,484.3L458.1,484.3z"/>
</g>
<g>
	<path d="M471.5,484.3c1.199-2.7,2.899-5.1,4.6-7.5c1.801-2.398,3.7-4.6,5.7-6.8c4.101-4.2,8.7-8,13.601-11.3
		c9.8-6.602,20.8-11.4,32.101-14.7c11.399-3.3,23.1-5.2,34.8-6c5.899-0.4,11.8-0.6,17.7-0.5c5.899,0.1,11.8,0.4,17.6,0.9v0.1
		c-11.699-0.7-23.5-0.7-35.199,0.3c-11.7,1-23.301,2.9-34.601,6.2s-22.2,8-32,14.4c-4.899,3.198-9.5,6.898-13.7,11
		c-2.101,2.1-4,4.3-5.8,6.6S472.9,481.7,471.5,484.3L471.5,484.3z"/>
</g>
<g>
	<path d="M389.199,487.3c1.2-0.398,2.399-0.6,3.601-0.5c1.2,0.102,2.5,0.4,3.7,1c1.1,0.602,2.199,1.602,2.8,2.8
		c0.601,1.2,0.8,2.5,0.5,3.7h-0.101c-0.101-1.2-0.399-2.3-1-3.3s-1.5-1.8-2.601-2.3C394,487.6,391.6,487.4,389.199,487.3
		L389.199,487.3z"/>
</g>
<g>
	<path d="M426.699,487.4c-1.199,0.3-2.3,0.6-3.399,0.898c-1.101,0.3-2.101,0.7-3.101,1.2c-0.899,0.5-1.8,1.1-2.5,1.9
		c-0.699,0.8-1.199,1.8-1.601,2.898H416c0-1.2,0.3-2.398,1-3.398c0.699-1,1.6-1.802,2.699-2.302c1.101-0.5,2.2-0.898,3.399-1.1
		C424.4,487.4,425.6,487.3,426.699,487.4L426.699,487.4z"/>
</g>
<ellipse fill="none" stroke="#000000" stroke-miterlimit="10" cx="361.9" cy="487.4" rx="0" ry="0.2"/>
</svg>
