<?xml version="1.0" encoding="utf-8"?>
<!-- Generator: Adobe Illustrator 15.0.0, SVG Export Plug-In . SVG Version: 6.00 Build 0)  -->
<!DOCTYPE svg PUBLIC "-//W3C//DTD SVG 1.1//EN" "http://www.w3.org/Graphics/SVG/1.1/DTD/svg11.dtd">
<svg version="1.1" id="Layer_1" xmlns="http://www.w3.org/2000/svg" xmlns:xlink="http://www.w3.org/1999/xlink" x="0px" y="0px"
	 width="822px" height="567px" viewBox="0 0 822 567" enable-background="new 0 0 822 567" xml:space="preserve">
<path fill="#FFFFFF" stroke="#000000" stroke-width="2" stroke-miterlimit="10" d="M319.3,489.9v1.199
	c-5.5,5.9-10.899,10.301-16,13.601c-19.2,12.5-34.1,9.6-34.1,9.6c-20.2-4.6-25.8-15.1-27-22.899c-0.8-5.5,0.5-9.7,0.5-9.7
	c23-9.5,16.9-25.601,16.9-25.601s11.2,1.9,17.7-5.1C280.7,457.6,298.9,489.9,319.3,489.9z"/>
<path fill="#FFFFFF" stroke="#000000" stroke-width="2" stroke-miterlimit="10" d="M661.3,78.6c0,0,18,27.7,17.7,79
	c-0.4,87.5-29.4,115.7-52.7,144.5c-19.6-15.699-34.8-31-41.5-38.2c0.4,0.2,0.601,0.2,0.601,0.2C585.3,136.9,661.3,78.6,661.3,78.6z"
	/>
<path fill="#FFFFFF" stroke="#000000" stroke-width="2" stroke-miterlimit="10" d="M661.3,78.6c0,0-76,58.3-76,185.6
	c0,0-0.2-0.1-0.6-0.2l0,0c-5.8-2.7-53.4-27.7-20.5-103.5C564.3,160.4,603.5,90.4,661.3,78.6z"/>
<path fill="#FFFFFF" stroke="#000000" stroke-width="2" stroke-miterlimit="10" d="M505.3,63.4c0,0,31-10.9,35,80.4
	c-3.6-2.2-7.6-4.5-12-6.9l0,0c-2.2-8.9-5.6-17.2-9.899-25C518.2,111,513.9,76.1,505.3,63.4z"/>
<path fill="#FFFFFF" stroke="#000000" stroke-width="2" stroke-miterlimit="10" d="M518.4,112c4.3,7.7,7.8,16.1,9.899,25
	c-10.5-5.7-23.1-11.8-37.6-17.4c-5.3-14.9-12.8-26.4-21.2-35.1l0,0c-0.6-0.9-10.3-14.8-26-40.4C444.4,44.4,494.5,69,518.4,112z"/>
<path fill="#FFFFFF" stroke="#000000" stroke-width="2" stroke-miterlimit="10" d="M483.3,116.8c-30.8,5.5-56.8,4.5-77.3,1.2
	c-33.6-5.4-52.3-17.2-52.3-17.2c12-1.2,23.7-1.7,34.899-1.5c21.101,0.4,40.9,3.1,58.9,7.1c4.9,1.1,9.7,2.3,14.3,3.6
	C469.3,112.1,476.5,114.4,483.3,116.8z"/>
<path fill="#FFFFFF" stroke="#000000" stroke-width="2" stroke-miterlimit="10" d="M469.5,84.4c8.4,8.7,15.9,20.2,21.2,35.1
	c-2.4-0.9-4.9-1.8-7.4-2.7c-6.8-2.4-13.899-4.7-21.399-6.8c-0.601-0.8-27.2-32.8-65.601-53.6C396.3,56.4,439.1,52.8,469.5,84.4
	L469.5,84.4z"/>
<path fill="#FFFFFF" stroke="#000000" stroke-width="2" stroke-miterlimit="10" d="M270.2,373.2c13.4-10.9,73.5-54.4,97,23.8
	c0,0,5.6-2,14.8-4.6c4.9-1.4,10.9-2.9,17.6-4.4c47-10.3,128.7-16.5,128.7,64.9c0,41-33.399,59.5-53.899,76.3
	c-23.9,19.6-51.5,27.1-159.801,6c17.301-18.9,20.4-44.5,20.9-52.9c3.4-3.399,6.8-8.2,10.1-14.399c4.9-9.5,13.301-32.801-8.8-33.7
	c0,0,6.7-2.101,2.7-24.601c0,0-12.3-66.3-71.9-6.3c0,0-66.8,4-16.6,46.2c-0.4,2.8-3.4,15.2-26.5,23.3c-6.7-6.1-18-16.2-30-28.1l0,0
	c-22.1-23.101-12.2-80.9,0.6-104.2C216.3,301.6,262.3,362.3,270.2,373.2z"/>
<path fill="#FFFFFF" stroke="#000000" stroke-width="2" stroke-miterlimit="10" d="M448.1,271.8c-8.8-39.7-51.199-25.1-51.199-25.1
	c11.199-14.6,23.399-22.2,33.5-19.1C442.1,231,448.3,248.3,448.1,271.8z"/>
<path fill="#FFFFFF" stroke="#000000" stroke-width="2" stroke-miterlimit="10" d="M421.8,267.6c0,0,0.4,13-4.2,17.3
	c0.4-0.7-16-5.4-15.699-6.101C402.6,277.4,421.4,269,421.8,267.6z"/>
<path fill="#FFFFFF" stroke="#000000" stroke-width="2" stroke-miterlimit="10" d="M377.2,282.3c3.5,24.5,21.899,43.101,44,43.101
	c6.8,0,13.1-1.7,18.899-4.9c-9.1,29.9-26.1,56.3-40.5,67.4c-6.699,1.5-12.6,3-17.6,4.399c-16.7-8.7-23.6-50-10.7-93.1
	C373,293.4,375,287.7,377.2,282.3z"/>
<path fill="#FFFFFF" stroke="#000000" stroke-width="2" stroke-miterlimit="10" d="M396.8,246.6c0,0,42.5-14.6,51.2,25.1
	c-0.1,14.3-2.7,30.899-7.8,48.1c-0.101,0.2-0.101,0.4-0.2,0.601c-5.7,3.1-12.1,4.899-18.9,4.899c-22.1,0-40.399-18.6-44-43.1
	C382.8,268.2,389.6,256,396.8,246.6z M394.8,300c6.601,3.4,16.8-3.4,22.8-15.1c4.601-4.3,4.2-17.3,4.2-17.3c-0.3-4.7-2-8.4-5.2-10
	c-6.6-3.4-16.8,3.4-22.8,15.1S388.2,296.6,394.8,300z"/>
<path fill="#FFFFFF" stroke="#000000" stroke-width="2" stroke-miterlimit="10" d="M417.6,284.9c-6,11.699-16.3,18.5-22.8,15.1
	c-6.6-3.4-7-15.6-0.899-27.3c6-11.7,16.3-18.5,22.8-15.1c3.2,1.6,4.899,5.3,5.2,10c-0.4,1.4-19.301,9.8-19.9,11.2
	C401.6,279.5,418,284.2,417.6,284.9z"/>
<path fill="#FFFFFF" stroke="#000000" stroke-width="2" stroke-miterlimit="10" d="M288.7,9.7c0,0,90.899,51.3,100,89.7
	c-11.3-0.2-22.9,0.2-34.9,1.5c0,0,18.601,11.8,52.3,17.2l-0.3,1.5c-103.9,15.1-128.9,93.3-129.4,94.8l0,0
	C276.4,214.4,203.6,132.4,288.7,9.7z"/>
<path fill="#FFFFFF" stroke="#000000" stroke-width="2" stroke-miterlimit="10" d="M195,340.4c-12.8,23.3-22.7,81.1-0.6,104.199
	c-25.3-25.1-54.2-58.199-53.5-78.899c0,0,19.6-3.601,31.8,6.5c0,0-35.4-47.4-31.9-56.9l39,17c0,0-22.2-29.8-17.5-42.899
	c0,0,66.9,6.8,91.4-35.2c0.2,0.4,0.4,0.9,0.5,1.3c-1,2.9-2,6-3,9.1c-12.3,41.2-8.3,78.8,9,84c16.8,5,39.9-22.3,52.5-61.6
	c0.399-1.2,0.8-2.4,1.1-3.6c4.2-14,6.5-27.6,7-39.6c1-23.4-4.6-41-16-44.4c-8.6-2.6-18.9,3.4-28.6,15.1
	c0.5-1.5,25.5-79.7,129.399-94.8l0.301-1.5c20.5,3.3,46.5,4.3,77.3-1.2c2.5,0.9,5,1.8,7.399,2.7c14.5,5.6,27.101,11.7,37.601,17.4
	l0,0c4.399,2.4,8.399,4.7,12,6.9l0,0c15.5,9.4,24,16.6,24,16.6c-33,75.8,14.7,100.8,20.5,103.5l0,0c6.7,7.1,21.899,22.4,41.5,38.2
	c30.3,24.4,71.1,49.7,106.3,46.9c0,0-12.8,28.8-91.1,24.1c0,0,46.699,17,74.8,11.4c0,0-63.101,36.1-104,24c0,0,39.7,29.7,77.1,20.5
	c0,0-108.7,100.8-214.899,100.2C494.9,512.5,528.3,494,528.3,453.1c0-81.399-81.7-75.199-128.7-64.899
	c14.4-11.101,31.4-37.5,40.5-67.4c0.101-0.2,0.101-0.399,0.2-0.6c5.2-17.2,7.7-33.8,7.8-48.1c0.301-23.5-5.899-40.7-17.8-44.3
	c-10.1-3-22.3,4.6-33.5,19.1c-7.2,9.3-14,21.6-19.7,35.7c-2.199,5.4-4.1,11.1-5.899,17c-12.9,43.101-6,84.4,10.7,93.101
	c-9.101,2.6-14.801,4.6-14.801,4.6c-23.5-78.2-83.6-34.7-97-23.8C262.3,362.3,216.3,301.6,195,340.4z"/>
<path fill="#FFFFFF" stroke="#000000" stroke-width="2" stroke-miterlimit="10" d="M267.5,403.2c59.6-59.9,71.9,6.3,71.9,6.3
	c4,22.5-2.7,24.6-2.7,24.6c-20.5-8.399-46,8.9-46,8.9c-4.2,0.5-7.2,0.2-9.4-0.7c-4.4-1.8-5.1-5.6-4.7-8.2c0.6-4.199,0.1-14.1-4-19
	C267.5,409,267.5,403.2,267.5,403.2z M312.8,406.1c2.5-5,1.9-10.3-1.3-11.899c-3.2-1.601-7.8,1.1-10.3,6.1s-1.9,10.3,1.3,11.9
	C305.7,413.8,310.3,411,312.8,406.1z"/>
<path fill="#FFFFFF" stroke="#000000" stroke-width="2" stroke-miterlimit="10" d="M290.7,443c0,0,25.5-17.3,46-8.9
	c22.1,0.9,13.8,24.301,8.8,33.7c-3.3,6.3-6.7,11-10.1,14.4c-5.4,5.399-10.9,7.6-16.2,7.6c-20.4,0-38.6-32.3-42.1-38.899
	c1.9-2,3.4-4.9,4.1-8.7C283.5,443.2,286.5,443.5,290.7,443z"/>
<path fill="#FFFFFF" stroke="#000000" stroke-width="2" stroke-miterlimit="10" d="M311.5,394.2c3.2,1.6,3.8,6.899,1.3,11.899
	s-7,7.7-10.3,6.101c-3.2-1.601-3.8-6.9-1.3-11.9C303.7,395.4,308.3,392.6,311.5,394.2z"/>
<path fill="#FFFFFF" stroke="#000000" stroke-width="2" stroke-miterlimit="10" d="M321,243.5c-24.6-51.7-54.8-13.9-55.9-12.5
	c3.5-6.4,7.3-12,11.2-16.7l0,0c9.7-11.7,20-17.7,28.6-15.1C316.4,202.5,322,220.1,321,243.5z"/>
<path fill="#FFFFFF" stroke="#000000" stroke-width="2" stroke-miterlimit="10" d="M295.7,239l1.5,0.1c-0.1,0.6-1.4,9.5-3.8,13.5
	c0-0.7-14.4-4.9-14.1-5.5C279.7,246.1,291.4,241.3,295.7,239z"/>
<path fill="#FFFFFF" stroke="#000000" stroke-width="2" stroke-miterlimit="10" d="M293.5,292.5c7,0,13.6-2,19.3-5.7
	C300.2,326.1,277,353.4,260.3,348.4c-17.3-5.2-21.4-42.801-9-84c0.9-3.1,1.9-6.1,3-9.1C263.7,277,274.1,292.5,293.5,292.5z"/>
<path fill="#FFFFFF" stroke="#000000" stroke-width="2" stroke-miterlimit="10" d="M272.8,266.2c5.9,3,15.1-3,20.5-13.6l0,0
	c2.4-4,3.7-12.9,3.8-13.5l-1.5-0.1c0.9-0.5,1.4-0.9,1.5-1.1c-0.1-4.7-1.6-8.4-4.7-9.9c-5.9-3-15.1,3-20.5,13.6
	C266.5,252.1,266.9,263.2,272.8,266.2z M265.1,231c1.1-1.5,31.3-39.2,55.9,12.5c-0.5,12-2.8,25.6-7,39.6c-0.4,1.2-0.7,2.4-1.1,3.6
	c-5.7,3.6-12.3,5.7-19.3,5.7c-19.5,0-29.9-15.5-39.3-37.101C257.4,246.5,261.1,238.3,265.1,231C265.1,231.1,265.1,231,265.1,231z"/>
<path fill="#FFFFFF" stroke="#000000" stroke-width="2" stroke-miterlimit="10" d="M293.3,252.6c-5.4,10.6-14.6,16.6-20.5,13.6
	c-5.9-3-6.3-14.1-0.9-24.6s14.6-16.6,20.5-13.6c3,1.6,4.6,5.3,4.7,9.9c-0.1,0.2-0.6,0.6-1.5,1.1c-4.2,2.3-16,7.1-16.4,8.1
	C279,247.7,293.4,251.9,293.3,252.6C293.4,252.6,293.3,252.6,293.3,252.6z"/>
<path fill="#FFFFFF" stroke="#000000" stroke-width="2" stroke-miterlimit="10" d="M267.5,403.2c0,0,0,5.8,5.1,12
	c4,4.8,4.6,14.8,4,19c-0.4,2.6,0.4,6.399,4.7,8.2c-0.7,3.8-2.2,6.699-4.1,8.699c-6.5,7-17.7,5.101-17.7,5.101
	c-3.2-2.3-6-4.601-8.6-6.7C200.8,407.2,267.5,403.2,267.5,403.2z"/>
<path fill="#FFFFFF" stroke="#000000" stroke-width="2" stroke-miterlimit="10" d="M335.5,482.3c-0.5,8.4-3.6,34-20.9,52.9
	c-4.8,5.2-10.6,9.899-17.8,13.6c0,0-26.9,15.2-59.1-9.8c0,0-11.4-8-15.5-18c-5.6-13.4-9.6-43.7,2.2-48.3
	c23.1-8.101,26.1-20.5,26.5-23.3c2.6,2.1,5.4,4.399,8.6,6.699c0,0,6.2,16.101-16.9,25.601c0,0-1.3,4.2-0.5,9.7
	c1.2,7.8,6.8,18.399,27,22.899c0,0,15,2.9,34.1-9.6c5.1-3.3,10.5-7.7,16-13.601V489.9C324.6,489.9,330.1,487.7,335.5,482.3z"/>
<g>
	<path d="M263.3,234.7c-2.4,1-5,1.6-7.5,1.9c-2.6,0.3-5.2,0.4-7.9,0.1c-2.6-0.3-5.3-1-7.7-2c-2.5-1.1-4.8-2.5-6.9-4.3
		c-2.1-1.8-3.9-3.8-5.5-6c-1.6-2.2-2.8-4.6-3.7-7.2c-0.9-2.5-1.5-5.1-1.9-7.7c-0.4-2.6-0.5-5.2-0.3-7.9l0.4-0.1
		c0.9,2.4,1.8,4.9,2.6,7.2c0.9,2.4,1.8,4.7,2.8,6.9c1,2.2,2.1,4.4,3.3,6.5s2.6,4.1,4.3,5.8c3.4,3.4,7.9,5.8,12.8,6.7
		c4.9,1,10.1,0.8,15-0.5L263.3,234.7z"/>
</g>
<g>
	<path d="M264.7,231.2c-1.6,0.3-3.3,0.2-4.9,0c-1.6-0.2-3.3-0.5-4.8-1c-1.6-0.5-3.1-1.2-4.6-2.1c-1.4-0.9-2.8-1.9-4.1-3
		c-1.3-1.1-2.5-2.4-3.5-3.7c-1.1-1.3-1.9-2.8-2.6-4.4c-0.6-1.6-1.1-3.2-1.4-4.8c-0.3-1.6-0.4-3.3-0.2-5l0.4-0.1
		c0.9,1.4,1.7,2.8,2.5,4.2l2.3,4l2.3,3.9c0.7,1.3,1.6,2.6,2.6,3.7c2,2.2,4.4,4.1,7.1,5.5c2.7,1.4,5.8,2.3,8.9,2.5V231.2z"/>
</g>
<g>
	<path d="M274.7,222.3c-2.3,0.5-4.7,0.3-7.1-0.1c-2.4-0.5-4.6-1.5-6.7-2.9c-1-0.7-2-1.4-3-2.2c-0.9-0.8-1.8-1.8-2.4-2.8
		c-0.6-1.1-1.1-2.2-1.5-3.4c-0.4-1.2-0.6-2.4-0.5-3.7l0.4-0.2c1,0.8,1.8,1.6,2.6,2.4c0.8,0.8,1.5,1.6,2.3,2.4c0.7,0.8,1.4,1.6,2,2.4
		c0.6,0.8,1.3,1.7,2.1,2.4c0.8,0.7,1.6,1.4,2.5,2s1.8,1.1,2.8,1.6c2,0.9,4.2,1.5,6.4,1.6L274.7,222.3z"/>
</g>
<g>
	<path d="M447.7,271.8c2.8,4.9,6.399,9.3,10.8,12.8c4.3,3.5,9.3,6.101,14.6,7.101c2.7,0.5,5.4,0.7,8,0.399
		c2.7-0.199,5.301-0.6,8-1.1c2.7-0.5,5.301-1.3,8-2.1c2.7-0.801,5.301-1.801,8-2.7l0.2,0.3c-2.2,1.9-4.6,3.6-7.1,5
		c-2.601,1.4-5.3,2.5-8.101,3.4c-2.899,0.799-5.899,1.299-8.899,1.199s-6-0.5-8.9-1.3c-5.8-1.6-11-4.7-15.2-8.7
		c-2.1-2-4-4.3-5.6-6.6c-1.6-2.4-3.1-4.9-4.2-7.5L447.7,271.8z"/>
</g>
<g>
	<path d="M446.3,265.2c2.8,1.7,5.7,3.2,8.7,4.4c1.5,0.6,3,1.2,4.5,1.6c1.5,0.5,3,0.9,4.6,1.2c1.5,0.3,3.101,0.4,4.601,0.3
		c1.5,0,3-0.1,4.399-0.3c1.4-0.2,2.9-0.5,4.301-0.9c1.399-0.5,2.8-1.2,4.399-2l0.3,0.3c-1.399,3.2-4.6,5.6-8.199,6.6
		c-1.801,0.5-3.601,0.5-5.4,0.3c-1.8-0.2-3.5-0.7-5.1-1.2c-3.301-1-6.4-2.4-9.2-4.1c-2.9-1.7-5.601-3.6-8-5.8L446.3,265.2z"/>
</g>
<g>
	<path d="M439.7,254.6c2.6,0.8,5.2,1.4,7.8,1.8c1.3,0.2,2.6,0.4,3.9,0.4c1.3,0.1,2.6,0.1,3.8,0c1.2-0.1,2.5-0.4,3.5-0.8
		c1.1-0.4,2.1-0.8,3-1.3c0.899-0.5,1.7-1.2,2.5-2c0.8-0.9,1.5-2,2.3-3.2l0.4,0.1c0.399,1.4,0.3,3-0.2,4.5s-1.4,2.9-2.7,4
		s-2.8,1.7-4.4,1.9c-1.5,0.2-3,0.2-4.5,0.1c-2.899-0.2-5.6-0.8-8.199-1.7c-2.601-0.9-5.101-2-7.5-3.4L439.7,254.6z"/>
</g>
<g>
	<path d="M290.5,216.7c-1,0.1-2.1,0.1-3.1-0.1c-1-0.2-2.1-0.5-3.2-1.1c-0.5-0.3-1.1-0.6-1.6-1.1s-0.9-1.3-0.9-2
		c0-0.8,0.2-1.5,0.6-2.1c0.4-0.6,0.9-1,1.7-1.2l0.4,0.2c0.3,0.7,0.5,1.2,0.7,1.5c0.2,0.4,0.4,0.6,0.6,0.8c0.2,0.2,0.2,0.3,0.2,0.6
		c0,0.3,0.1,0.6,0.4,0.9c0.5,0.6,1.1,1.2,1.9,1.7c0.7,0.6,1.6,1,2.4,1.5L290.5,216.7z"/>
</g>
<g>
	<path d="M303.9,219.5c-1.1-0.4-2.2-0.8-3.3-1.4c-1.1-0.5-2.1-1.2-3-1.9c-0.5-0.4-1-0.8-1.5-1.2c-0.5-0.5-0.9-1.1-1.1-1.8
		c-0.2-0.7-0.3-1.7,0.1-2.5c0.3-0.9,1.1-1.5,1.9-1.5l0.3,0.3c0.1,0.8,0.3,1.2,0.6,1.5c0.3,0.3,0.5,0.5,0.8,0.7
		c0.2,0.3,0.5,0.6,0.6,1.1c0.2,0.4,0.4,0.9,0.7,1.4c0.6,0.9,1.3,1.7,2,2.6c0.7,0.9,1.5,1.7,2.2,2.6L303.9,219.5z"/>
</g>
<g>
	<path d="M428.7,246.8c2.1-0.2,4.1-0.4,6.1-0.9c1-0.2,2-0.4,2.9-0.7c1-0.3,1.899-0.6,2.8-1c0.9-0.4,1.7-0.9,2.5-1.4s1.5-1,2.2-1.4
		c1.5-0.9,2.8-1.9,4.3-3.6l0.4,0.1c0.6,2.3-0.5,4.9-2.2,6.6c-0.9,0.9-1.9,1.5-3,1.9c-1.101,0.4-2.2,0.6-3.3,0.9
		c-2.2,0.5-4.301,0.7-6.4,0.6s-4.2-0.2-6.3-0.7V246.8z"/>
</g>
<g>
	<path d="M414.7,243.8c1.2-0.6,2.399-1.3,3.5-2c1.1-0.7,2.1-1.5,3-2.4c0.399-0.4,0.8-0.9,1.1-1.4s0.601-0.9,1-1.3
		c0.8-0.7,1.601-1.5,2.8-2.7h0.4c1,1.5,0.9,3.4,0.2,4.9c-0.4,0.8-0.9,1.4-1.601,1.9c-0.699,0.5-1.399,0.8-2,1.2
		c-1.3,0.7-2.699,1.3-4.1,1.6c-1.4,0.3-2.8,0.6-4.2,0.6L414.7,243.8z"/>
</g>
<g>
	<path d="M261.3,425.8c-2.7-2.899-5.7-5.399-8.8-7.899s-6.3-4.801-9.6-6.9c-6.6-4.3-13.5-8.1-20.7-11.3
		c-14.3-6.5-29.7-10.7-45.2-12.5c-15.6-1.9-31.4-1.3-46.9,0.7c-7.8,1-15.5,2.399-23.2,4.1c-3.8,0.9-7.7,1.8-11.5,2.9
		c-3.8,1-7.6,2.1-11.4,3.3l-0.1-0.3c3.6-1.601,7.4-2.9,11.1-4.301c3.7-1.3,7.5-2.5,11.4-3.6c7.6-2.2,15.4-3.9,23.3-5.1
		c15.8-2.4,31.9-2.301,47.6-0.101c15.8,2.2,31.2,6.7,45.6,13.5c7.2,3.4,14.1,7.4,20.6,11.9c3.3,2.3,6.4,4.7,9.4,7.2
		c3,2.6,6,5.199,8.6,8.199L261.3,425.8z"/>
</g>
<g>
	<path d="M254.3,431.2c-11.8-2.601-23.7-4.5-35.7-6s-24-2.5-36-2.601c-6-0.1-12,0.101-18,0.5c-6,0.4-11.9,1.101-17.8,2
		c-11.7,1.9-23.5,5.101-33.5,11.801l-0.2-0.2c4.5-4.101,9.9-7.101,15.6-9.4c5.7-2.3,11.6-3.899,17.6-5.1c12-2.3,24.3-2.3,36.4-1.9
		c12.1,0.5,24.2,1.8,36.1,3.601c11.9,1.899,23.8,4.199,35.5,7.199V431.2z"/>
</g>
<g>
	<path d="M263.2,446.9c-10.9-0.9-21.8-1.301-32.7-1.5c-10.9-0.301-21.8-0.2-32.6,0.3c-5.4,0.3-10.8,0.7-16.2,1.3
		c-5.4,0.6-10.7,1.3-16.1,2.2c-5.3,0.899-10.6,2.1-15.6,3.8c-2.5,0.9-5,2-7.3,3.3c-2.3,1.3-4.4,3-6,5.2l-0.3-0.2
		c1.3-2.5,3.3-4.5,5.5-6.2c2.2-1.699,4.7-3,7.3-4.1c5.1-2.3,10.5-3.7,15.9-4.8c10.8-2.2,21.8-2.7,32.8-2.9
		c10.9-0.2,21.9,0,32.8,0.601c10.9,0.6,21.8,1.5,32.6,2.699L263.2,446.9z"/>
</g>
<g>
	<path d="M327.1,436.6c5.4-2.6,11-4.8,16.7-6.8s11.4-3.7,17.3-5.1c11.7-2.8,23.7-4.5,35.7-4.9c12-0.3,24.3,0.5,36,3.601
		c11.7,3.1,22.9,8.1,32.8,15.1l-0.199,0.3c-5.301-2.8-10.801-5.2-16.301-7.3c-5.6-2.1-11.199-3.8-17-5.1
		c-11.5-2.601-23.3-4.2-35.199-4.2c-11.9,0-23.801,1.399-35.4,3.899c-5.8,1.2-11.6,2.7-17.3,4.5c-5.7,1.801-11.4,3.801-16.8,6.2
		L327.1,436.6z"/>
</g>
<g>
	<path d="M333.6,452.7c13.5-1.7,27.101-2.3,40.7-2.3c13.601,0.1,27.2,1,40.7,3.199c13.4,2.2,27,5.5,39.3,11.801
		c6.101,3.199,11.9,7,17,11.8c2.5,2.399,4.8,4.899,6.9,7.7c2,2.8,3.8,5.699,5.2,8.8l-0.301,0.1c-1.8-2.899-3.8-5.6-6-8.1
		c-2.199-2.5-4.6-4.9-7.199-7c-5.2-4.2-10.9-7.8-16.9-10.7c-12.1-5.8-25.1-9.6-38.3-12.2c-13.3-2.5-26.8-3.7-40.4-4.1
		c-13.5-0.4-27.1-0.101-40.7,1.1V452.7z"/>
</g>
<g>
	<path d="M314.2,461.3c11.5,1.3,22.899,3.101,34.2,5.2c11.3,2.2,22.6,4.8,33.699,8.1c11.101,3.301,22.2,7,32.4,12.801
		c5,2.899,9.9,6.3,14,10.699c2,2.2,3.8,4.601,5.1,7.2c1.301,2.7,2.101,5.601,2.2,8.5h-0.3c-0.5-2.8-1.5-5.5-3.1-7.899
		c-1.5-2.4-3.4-4.5-5.4-6.4c-4.2-3.8-9-6.9-14-9.5c-2.5-1.3-5.1-2.6-7.6-3.8c-2.601-1.2-5.2-2.4-7.801-3.4
		c-5.3-2.2-10.699-4.2-16.1-5.899c-10.9-3.5-22.1-6.4-33.3-8.9s-22.601-4.7-34-6.4V461.3z"/>
</g>
<g>
	<path d="M340.4,203.7c-1-5.2-2-10.1-3.5-14.6s-3.601-8.4-6.601-11.1c-2.899-2.7-6.899-4.4-11.5-5.2c-4.6-0.9-9.6-1-14.9-1.4
		c4.5-2.9,9.7-4.6,15.3-4.9c2.8-0.1,5.7,0.2,8.6,1.1c1.4,0.4,2.8,1.1,4.2,1.8c1.3,0.8,2.6,1.7,3.7,2.7c1.1,1.1,2.1,2.2,3,3.5
		c0.8,1.3,1.6,2.6,2.2,3.9c1.199,2.7,1.8,5.5,2.1,8.3c0.3,2.8,0.1,5.5-0.3,8.2C342.4,198.6,341.7,201.2,340.4,203.7z"/>
</g>
<g>
	<path d="M396.3,203.7c1.4-2.3,2.9-4.4,4.601-6.5c1.699-2.1,3.5-4,5.399-5.9c3.9-3.7,8.2-7.1,13-9.8s10.101-4.8,15.7-5.7
		c2.8-0.5,5.7-0.6,8.6-0.4c2.9,0.2,5.801,0.7,8.601,1.6s5.399,2,7.899,3.4s4.801,3.1,6.9,4.9c4.3,3.6,7.9,7.9,10.9,12.4
		c6,9,10.1,19,12.699,29.2c-5.6-8.9-11.1-17.7-17.699-25.4c-6.5-7.6-14.2-14.1-23.101-16.8c-4.399-1.4-9.1-1.8-13.8-1.3
		s-9.4,1.9-14,3.8c-4.6,1.9-9,4.4-13.3,7.2C404.5,197.2,400.3,200.3,396.3,203.7z"/>
</g>
<path fill="none" stroke="#000000" stroke-width="0.25" stroke-miterlimit="10" d="M647.1,112c0,0,26.4-52.8,8.7,106.9"/>
<path fill="none" stroke="#000000" stroke-width="0.25" stroke-miterlimit="10" d="M639.8,181.7c0,0,14.8,45.5-29.7,76.7"/>
<g>
	<path d="M641.1,374.1c-6.6-2-13.1-4.3-19.5-6.699c-6.399-2.4-12.8-5-19.1-7.9s-12.4-6-18.2-9.7c-2.899-1.899-5.7-4-8.1-6.399
		c-1.2-1.2-2.3-2.5-3.2-4s-1.6-3.101-1.6-4.801c0.1,1.7,0.8,3.301,1.8,4.801c0.899,1.399,2.1,2.699,3.3,3.899
		c2.5,2.4,5.3,4.3,8.2,6.101c5.8,3.6,12,6.5,18.3,9.3c6.3,2.7,12.7,5.1,19.2,7.399c6.5,2.2,13,4.301,19.6,6.2L641.1,374.1z"/>
</g>
<g>
	<path d="M611.9,409.5c-5-1.5-9.7-3.4-14.4-5.7c-4.6-2.3-9-4.899-13.2-7.899s-8-6.4-11.5-10.2c-3.399-3.8-6.399-8-8.7-12.601
		c2.4,4.5,5.5,8.601,9,12.2c3.5,3.7,7.5,6.9,11.7,9.7s8.7,5.3,13.3,7.4c4.601,2.1,9.4,3.899,14.2,5.1L611.9,409.5z"/>
</g>
<g>
	<path d="M656.1,457.1c-8,2.4-16.1,4.101-24.3,5.4c-8.2,1.2-16.5,1.8-24.8,1.5s-16.6-1.6-24.3-4.8c-3.8-1.601-7.4-3.7-10.601-6.4
		c-3.199-2.7-5.8-5.899-7.899-9.5c2.1,3.5,4.8,6.7,8,9.3c3.2,2.601,6.8,4.601,10.6,6.101c7.7,3,15.9,4.1,24.101,4.3
		c8.199,0.2,16.399-0.6,24.5-2c8.1-1.4,16.1-3.3,23.899-5.8L656.1,457.1z"/>
</g>
</svg>
