<?xml version="1.0" encoding="utf-8"?>
<!-- Generator: Adobe Illustrator 15.0.0, SVG Export Plug-In . SVG Version: 6.00 Build 0)  -->
<!DOCTYPE svg PUBLIC "-//W3C//DTD SVG 1.1//EN" "http://www.w3.org/Graphics/SVG/1.1/DTD/svg11.dtd">
<svg version="1.1" id="layer_x5F_www.ABC-color.com"
	 xmlns="http://www.w3.org/2000/svg" xmlns:xlink="http://www.w3.org/1999/xlink" x="0px" y="0px" width="567px" height="822px"
	 viewBox="0 0 567 822" enable-background="new 0 0 567 822" xml:space="preserve">
<path fill="#FFFFFF" stroke="#000000" d="M260.4,316c0,0,10.301-26.4,52.7-10.1C313.1,305.9,289.1,338.6,260.4,316z M282.2,304
	c-3.5,0-6.301,3.7-6.301,8.2s2.801,8.2,6.301,8.2s6.3-3.7,6.3-8.2S285.7,304,282.2,304z"/>
<path fill="#FFFFFF" stroke="#000000" d="M282.2,304c3.5,0,6.3,3.7,6.3,8.2s-2.8,8.2-6.3,8.2s-6.301-3.7-6.301-8.2
	S278.7,304,282.2,304z"/>
<path fill="#FFFFFF" stroke="#000000" d="M195.6,313.5c3.5,0,6.3,3.7,6.3,8.2s-2.8,8.2-6.3,8.2s-6.3-3.7-6.3-8.2
	C189.3,317.1,192.1,313.5,195.6,313.5z"/>
<path fill="#FFFFFF" stroke="#000000" d="M175.6,324.8c0,0,18.3-32.7,43.601-7.5C219.1,317.2,208.8,348.7,175.6,324.8z M201.9,321.6
	c0-4.5-2.8-8.2-6.3-8.2s-6.3,3.7-6.3,8.2s2.8,8.2,6.3,8.2S201.9,326.1,201.9,321.6z"/>
<path fill="#FFFFFF" stroke="#000000" d="M279.8,409.4c-9.2,31-27.4,24.699-27.4,24.699c-14.899,7.5-29.8-18.8-29.8-18.8l0.2-0.3
	C232.2,420.7,254.5,430,279.8,409.4z"/>
<path fill="#FFFFFF" stroke="#000000" d="M279.8,409.4c-25.3,20.6-47.5,11.399-57,5.5c-3.1-1.9-4.8-3.4-4.8-3.4
	c3.399,1.3,18.3-7.5,18.3-7.5c5.7,7.5,21.8-3.8,21.8-3.8c1.101,10.1,26.4,5,26.4,5C282.9,406.7,281.3,408.1,279.8,409.4z"/>
<path fill="#FFFFFF" stroke="#000000" d="M196,461.2c-7.101-36-11.7-62.7-13.101-71c-17.1-34.9-16.5-70.5-16.5-70.5
	c-16.1-39-8-71.6-8-71.6c32.101,13.8,40.101-11.3,40.101-11.3c-21.9,5.8-33.3-16.3-33.3-16.3c-3.4-13.8,41.3-6.3,41.3-6.3
	c6.899,8.8,29.8,8.8,29.8,8.8c-5.7-18.8,22.9-22.6,22.9-22.6c9.199,10.1-8,32.7-8,32.7c5.699,7.5,31-25.1,31-25.1v11.3
	c4.6,3.8,14.899-10.1,14.899-10.1c-8,51.5,19.499,69.1,19.499,69.1c25.2,18.8,31,46.5,31,46.5c-20.6,35.2-31,7.5-31,7.5
	c3.4,50.3,59.601,12.6,59.601,12.6c0.7,33,1,64.8,1.2,95.1c1,183.1-5.801,310.8-5.801,310.8s-11.5,54-34.399,59.102
	c-13.3,2.898-32.1-21.4-32.1-21.4C260.9,763.3,217.4,570,196,461.2z M313.1,305.9C270.7,289.6,260.4,316,260.4,316
	C289.1,338.6,313.1,305.9,313.1,305.9z M279.8,409.4c1.6-1.301,3.1-2.601,4.7-4.2c0,0-25.2,5-26.4-5c0,0-16,11.3-21.8,3.8
	c0,0-14.9,8.8-18.3,7.5c0,0,1.7,1.5,4.8,3.4l-0.2,0.3c0,0,14.9,26.398,29.8,18.8C252.4,434.1,270.6,440.3,279.8,409.4z M219.1,317.2
	c-25.2-25.1-43.6,7.5-43.6,7.5C208.8,348.7,219.1,317.2,219.1,317.2z"/>
<path fill="#FFFFFF" stroke="#000000" d="M397.4,430.4c-0.899-2.2-1.5-3.5-1.7-3.802C396.199,428,396.8,429.2,397.4,430.4z
	 M397.4,430.4c4.199,9.8,14.8,36.3,14.8,52.698c0,1.802-0.101,3.5-0.399,5c0,0-8,30.2,11.5,35.2c0,0-29.8,5-37.7-55.898l-6.899-27.5
	h-1.3c-0.2-30.301-0.5-62.102-1.2-95.102c0,0-56.2,37.7-59.601-12.6c0,0,10.301,27.6,31-7.5c0,0-5.699-27.7-31-46.5
	c0,0-27.499-17.6-19.499-69.1c0,0-10.301,13.8-14.899,10.1v-11.3c0,0-25.2,32.7-31,25.1c0,0,17.199-22.6,8-32.7
	c0,0-28.7,3.8-22.9,22.6c0,0-22.9,0-29.8-8.8c0,0-44.7-7.5-41.3,6.3c0,0,11.3,22.2,33.3,16.3c0,0-8,25.1-40.101,11.3
	c0,0-8,32.7,8,71.6c0,0-0.6,35.6,16.5,70.5c1.4,8.2,6,35,13.101,71c-3.9-1.198-14.7-3-14.7,15.602c0,0-3.4,59.1-9.2,59.1
	c-2.899,0-10.899-13.398-18-28.3c-7.2-15-13.5-31.4-13-37c1.2-11.3-13.7,21.4-21.8,8.8c0,0-21.8,8.8-16.1-11.3
	c0,0,44.699-42.7,33.199-69.1c0,0-12.6-90.5-21.8-100.5c0,0-12.6,26.4-17.2,1.3c0,0-20.6-77.9,25.2-101.8c0,0,10.3-46.5,29.8-46.5
	c0,0,37.801-46.5,76.801-17.6c0,0-91.7,56.5,63.1,28.9c0,0-14.9,21.4,16,23.9c0,0-5.7,38.9,17.2,44c0,0-16-42.7,13.8-51.5
	c0,0,27.5,36.4,18.3,45.2c0,0,7,33.1,17.2,33.9c0,0,13.8-56.5,2.3-71.6c0,0,47,32.7,48.2,104.3c0,0,13.8,90.5-3.399,108.1
	c0,0,2.3,25.1-8,12.6c0,0-13.801,12.602,3.399,27.7C417.5,439.1,404.699,444.5,397.4,430.4z"/>
<path fill="#FFFFFF" stroke="#000000" d="M495.5,366.6c-2.301-3-3.301-4.1-2.301-2.9C493.9,364.7,494.699,365.7,495.5,366.6z
	 M511.5,420.4c0.1,0.3,0.199,0.698,0.399,1c2.3,6.5,13,40.5-0.399,64.3c0,0-19.5,1.3-25.2-35.2c0,0-25.2-55.3-31,13.8
	c0,0,9.2,30.2,14.899,13.8c0,0,6.899,36.4-22.899,7.5c0,0-20.601,18.802-25.2-13.8l-9.199,11.3h-0.7
	c0-16.398-10.601-42.898-14.8-52.698c7.399,14.1,20.1,8.698,20.1,8.698c-17.2-15.1-3.4-27.699-3.4-27.699
	c10.301,12.6,8-12.601,8-12.601c17.2-17.6,3.399-108.1,3.399-108.1c-1.1-71.6-48.199-104.3-48.199-104.3
	c11.5,15.1-2.301,71.6-2.301,71.6c-10.199-0.8-17.199-33.9-17.199-33.9c9.199-8.8-18.301-45.2-18.301-45.2
	c-29.8,8.8-13.8,51.5-13.8,51.5c-22.899-5-17.2-44-17.2-44c-30.899-2.5-15.999-23.9-15.999-23.9
	c-154.8,27.7-63.101-28.9-63.101-28.9c-39-28.9-76.8,17.6-76.8,17.6c-19.5,0-29.8,46.5-29.8,46.5c-45.8,24-25.2,101.9-25.2,101.9
	c4.601,25.1,17.2-1.3,17.2-1.3c9.2,10.1,21.8,100.5,21.8,100.5c11.5,26.4-33.2,69.102-33.2,69.102C97.7,488,119.5,479.2,119.5,479.2
	c8,12.6,22.899-20.102,21.8-8.8c-0.6,5.698,5.8,22.1,13,37l-0.2,0.1c0,0,9,44.5-3.6,29.5c0,0-11.5-22.6-11.5,3.8
	c0,0-11.5,49-24.101-3.8c0,0,2.301,40.2-22.899,31.4c0,0-14.5-15.302-9.9-21.602c0,0,10.8,14.7,18.7,6.9c0,0,9.5-21.7,4.9-38
	c0,0-30.9-31.4-32.101-11.3c0,0,6.9,32.699-16.1-8.801c-22.9-41.5,3.399-44,22.899-61.601c0,0,24.101-26.4,17.2-65.3
	c0,0-12.6,41.5-57.3,33.899c0,0-14.6-1.5-6.6-12.8c0,0-32.4-14.8-19.801-33.7c0,0,14.9-8.8,10.301,2.5c0,0-8,41.5,36.699-18.8
	c0,0,14.9-17.6-14.899-41.5c0,0-47-80.4,9.2-119.4c0,0,14.899-95.5,87.1-71.6c0,0-11.5-89.2,48.1-81.7c0,0,42.4-26.4,56.2,3.8
	c0,0,79.1-56.5,94,28.9c0,0,83.7-7.5,84.801,54c0,0,69.899,31.4,49.3,104.3c0,0-2.3,42.7,44.7,31.4c0,0,14.899-10.1,9.199-17.6
	c-5.699-7.5,1.101-5,1.101-5s21.8,25.1-5.7,37.7c0,0-19.5,12.6-26.399,8.8c0.399,0.7,15.2,27.5,39,13.8c0,0,25.2,10.1,12.601,21.4
	c0,0-19.5,15.1-33.2,5c0,0,18.301,72.9,41.301,46.5c0,0,8,20.1-5.7,22.6c0,0-36.899,6.9-56.101-14.7
	c8.9,11.6,36.601,49.6,36.601,63.7c0,0-16.101,1.2-20.199-9C511.699,420.9,511.6,420.6,511.5,420.4z"/>
<g>
	<path d="M173.6,294.9l-1,1.1c-0.2,0.2-0.3,0.4-0.399,0.6l0,0c0,0,0-0.1,0-0.2c-0.101-0.1-0.2-0.1-0.2-0.1s0,0,0.1,0l0.3-0.2
		c0.9-0.5,1.801-1,2.7-1.5c1.8-1,3.7-1.9,5.601-2.6c3.8-1.5,7.899-2.5,12.1-2.9c4.1-0.4,8.5-0.4,12.5,0.9c4,1.2,7.8,3.2,10.9,6
		l-0.2,0.3c-3.9-1.3-7.601-2.6-11.5-3.4c-3.8-0.7-7.7-1.5-11.601-1.4c-3.899,0.1-7.899,0.8-11.699,1.9c-1.9,0.6-3.801,1.3-5.7,2
		c-0.9,0.4-1.8,0.8-2.8,1.2c-0.101,0.1-0.2,0.1-0.4,0.1c-0.1,0-0.1,0.1-0.3,0.1c0,0-0.2,0-0.3-0.1c-0.101-0.2,0-0.3,0-0.3
		c0-0.1,0.1-0.1,0.1-0.2c0.2-0.2,0.4-0.4,0.6-0.6l1.101-1L173.6,294.9z"/>
</g>
<g>
	<path d="M219.5,318.4c0-0.1-0.101-0.1-0.2-0.2c-0.1-0.1-0.1-0.2-0.2-0.3c0-0.1-0.1-0.2,0-0.4c0-0.2,0.2-0.4,0.4-0.5
		c0.3-0.1,0.399,0,0.5,0c0.399,0.1,0.7,0.3,1,0.4c0.6,0.3,1.1,0.7,1.7,1.1c1.1,0.8,2,1.7,2.899,2.6c1.8,1.9,3.3,4,4.601,6.3
		c2.5,4.6,3.899,9.7,4.3,14.8c0.399,5.2-0.2,10.4-1.4,15.4c-1.2,5-3,9.9-5.1,14.5l-0.101-0.2c2.2,1,4.5,1.8,6.801,2.4
		c2.3,0.5,4.8,0.8,7.199,0.6c2.4-0.2,4.801-0.8,6.9-1.9c2.099-1.1,4-2.8,5.4-4.7c-1.4,2-3.2,3.7-5.4,4.8c-2.1,1.2-4.5,1.8-6.9,2
		c-2.399,0.2-4.899-0.1-7.199-0.6c-2.4-0.5-4.7-1.3-6.9-2.3l-0.1-0.1l0.1-0.1c2.1-4.7,3.8-9.5,5-14.5c1.1-5,1.6-10.1,1.2-15.2
		s-1.9-10.1-4.4-14.5c-1.3-2.2-2.8-4.3-4.5-6.1c-0.899-0.9-1.8-1.7-2.8-2.5c-0.5-0.4-1-0.7-1.6-1c-0.301-0.1-0.601-0.3-0.801-0.3
		c0,0-0.1,0,0,0c0.101,0,0.2-0.2,0.2-0.3c0-0.1,0-0.1,0-0.1s0,0,0.101,0.1c0,0,0.1,0.1,0.1,0.2L219.5,318.4z"/>
</g>
<g>
	<path d="M251.9,451.2c1.2-0.8,2.601-1.4,4-1.7c0.7-0.1,1.5-0.2,2.2,0c0.7,0.2,1.4,0.6,1.7,1.3c-0.4-0.6-1.1-1-1.8-1.1
		c-0.7-0.102-1.4-0.102-2.101,0.1c-0.699,0.102-1.399,0.4-2.1,0.602C253.2,450.6,252.5,450.9,251.9,451.2z"/>
</g>
<g>
	<path d="M328.199,508.4c2.7-0.302,5.301-0.5,8-0.802c2.7-0.198,5.399-0.398,8-0.5c-2.699,0.302-5.3,0.5-8,0.7
		C333.6,508,330.9,508.3,328.199,508.4z"/>
</g>
<g>
	<path d="M339.699,546.1c1.399-0.5,2.801-0.898,4.2-1.198c1.399-0.302,2.899-0.5,4.3-0.7c2.899-0.3,5.801-0.602,8.7-0.602
		c-2.899,0.2-5.801,0.4-8.7,0.802c-1.399,0.198-2.899,0.398-4.3,0.698C342.5,545.4,341.1,545.7,339.699,546.1z"/>
</g>
<g>
	<path d="M339.699,636.6c3-0.898,6.101-1.8,9.101-2.6c3.101-0.8,6.101-1.7,9.2-2.4c-3,0.9-6.101,1.802-9.101,2.602
		C345.8,635,342.8,635.8,339.699,636.6z"/>
</g>
<g>
	<path d="M336.3,729.6c2.399-0.898,4.899-1.8,7.399-2.6s5-1.7,7.5-2.4c-2.399,0.9-4.899,1.802-7.399,2.602S338.8,728.8,336.3,729.6z
		"/>
</g>
<g>
	<path d="M304.199,615.2c3-0.7,6.101-1.3,9.101-2c3.101-0.602,6.101-1.2,9.2-1.8c-3,0.698-6.101,1.3-9.101,2
		C310.3,614,307.199,614.7,304.199,615.2z"/>
</g>
<g>
	<path d="M314.5,758.5c2.699-0.7,5.3-1.3,8-2c2.699-0.6,5.399-1.2,8.1-1.8c-2.699,0.7-5.3,1.3-8,2
		C319.8,757.3,317.199,757.9,314.5,758.5z"/>
</g>
<g>
	<path d="M339.699,673c2.101-0.9,4.2-1.8,6.301-2.6c2.1-0.802,4.199-1.7,6.399-2.4c-2.101,0.9-4.2,1.8-6.301,2.6
		C343.9,671.4,341.8,672.3,339.699,673z"/>
</g>
<g>
	<path d="M347.699,580c2.301-0.3,4.601-0.5,6.899-0.8c2.301-0.2,4.601-0.4,6.9-0.5c-2.301,0.3-4.601,0.5-6.9,0.8
		C352.3,579.7,350,579.9,347.699,580z"/>
</g>
<g>
	<path d="M303,566.2c2-0.3,4.1-0.602,6.1-0.8c2-0.2,4.101-0.5,6.2-0.602c-2,0.3-4.101,0.602-6.101,0.8
		C307.1,565.8,305.1,566.1,303,566.2z"/>
</g>
<g>
	<path d="M269.8,689.3c2.3-0.7,4.6-1.398,6.8-2c2.3-0.6,4.601-1.2,6.9-1.8c-2.3,0.7-4.601,1.4-6.8,2
		C274.4,688.2,272.1,688.8,269.8,689.3z"/>
</g>
<g>
	<path d="M289.3,729.6c2.5-0.898,4.9-1.8,7.4-2.6c2.499-0.8,4.999-1.7,7.499-2.4c-2.5,0.9-4.899,1.802-7.399,2.602
		C294.2,728,291.8,728.8,289.3,729.6z"/>
</g>
<g>
	<path d="M306.4,664.2c2.101-0.5,4.199-0.9,6.3-1.4c2.101-0.398,4.2-0.8,6.3-1.1c-2.1,0.5-4.199,0.898-6.3,1.398
		C310.699,663.5,308.6,663.9,306.4,664.2z"/>
</g>
<g>
	<path d="M254.9,626.5c2.5-0.5,5-0.9,7.4-1.4c2.5-0.398,5-0.8,7.5-1.1c-2.5,0.5-5,0.9-7.4,1.4C259.8,625.8,257.4,626.2,254.9,626.5z
		"/>
</g>
<g id="ABC-color.com">
	<path d="M245.6,496.5c2.601-0.5,5.2-0.9,7.7-1.4c2.6-0.398,5.2-0.8,7.8-1.1c-2.6,0.5-5.2,0.9-7.7,1.4
		C250.8,495.7,248.3,496.1,245.6,496.5z"/>
</g>
<g>
	<path d="M363.8,480.8c1.899-0.1,3.8-0.1,5.7-0.1c1.899,0,3.8,0,5.699,0.1c-1.899,0.102-3.8,0.102-5.699,0.102
		C367.6,480.9,365.699,480.9,363.8,480.8z"/>
</g>
<g>
	<path d="M243.5,596.8c-2.3,0.4-4.601,0.8-6.9,1.102c-2.3,0.3-4.6,0.698-6.899,0.898c2.3-0.398,4.6-0.8,6.899-1.1
		C238.899,597.4,241.2,597.1,243.5,596.8z"/>
</g>
<g>
	<path d="M214.2,460c-1.9,0.7-3.801,1.4-5.7,2c-1.9,0.6-3.8,1.2-5.8,1.8c1.899-0.7,3.8-1.398,5.699-2
		C210.3,461.2,212.2,460.5,214.2,460z"/>
</g>
<g>
	<path d="M360.3,425.5c1.7-0.1,3.399-0.1,5.2-0.1c1.699,0,3.399,0,5.199,0.1c-1.699,0.1-3.399,0.1-5.199,0.1
		C363.8,425.6,362.1,425.6,360.3,425.5z"/>
</g>
<g>
	<path d="M325.9,478.2c1.3-0.5,2.601-0.9,4-1.4c1.3-0.398,2.699-0.8,4-1.1c-1.301,0.5-2.601,0.898-4,1.398
		C328.6,477.5,327.3,477.9,325.9,478.2z"/>
</g>
<g>
	<path d="M359.199,522.2c1.7-0.7,3.399-1.4,5.101-2c1.7-0.602,3.399-1.2,5.2-1.8c-1.7,0.698-3.4,1.398-5.101,2
		C362.699,521.1,360.9,521.7,359.199,522.2z"/>
</g>
<g>
	<path d="M223.9,536c1.601-0.4,3.2-0.7,4.801-1.1c1.6-0.302,3.3-0.602,4.899-0.802c-1.6,0.4-3.2,0.7-4.8,1.102
		C227.2,535.5,225.5,535.8,223.9,536z"/>
</g>
<g>
	<path d="M340.8,773.5c2.5-0.9,4.899-1.8,7.399-2.6c2.5-0.802,5-1.7,7.5-2.4c-2.5,0.9-4.899,1.8-7.399,2.6
		C345.8,771.9,343.4,772.8,340.8,773.5z"/>
</g>
<g>
	<path d="M267.5,570c1.3-0.3,2.7-0.5,4-0.8c1.3-0.2,2.7-0.4,4-0.5c-1.3,0.3-2.7,0.5-4,0.8C270.2,569.7,268.8,569.9,267.5,570z"/>
</g>
<g>
	<path d="M277.5,529.4c4.2-0.7,8.5-1.2,12.8-1.9c4.3-0.5,8.5-1.1,12.8-1.6c-4.199,0.698-8.5,1.198-12.8,1.898
		C286,528.4,281.7,529,277.5,529.4z"/>
</g>
<g>
	<path d="M298.199,444.2c3.199-0.9,6.5-1.8,9.7-2.602c3.3-0.8,6.5-1.698,9.8-2.398c-3.199,0.898-6.5,1.8-9.699,2.6
		C304.8,442.6,301.5,443.4,298.199,444.2z"/>
</g>
<g>
	<path d="M304,380.1c3.399-0.5,6.899-0.9,10.3-1.4c3.399-0.4,6.899-0.8,10.3-1.1c-3.399,0.5-6.899,0.9-10.3,1.4
		C310.9,379.3,307.4,379.8,304,380.1z"/>
</g>
<g>
	<path d="M192.8,395.1c3.6-0.9,7.2-1.8,10.9-2.6c3.6-0.8,7.3-1.7,10.899-2.4c-3.6,0.9-7.2,1.8-10.899,2.6
		C200,393.5,196.4,394.4,192.8,395.1z"/>
</g>
<g>
	<path d="M330.3,400.2c4.2-0.5,8.399-0.9,12.601-1.4c4.199-0.399,8.399-0.8,12.601-1.1c-4.2,0.5-8.4,0.899-12.601,1.399
		C338.8,399.4,334.6,399.9,330.3,400.2z"/>
</g>
<g>
	<path d="M228.3,259.4c3.4-0.5,6.9-0.9,10.3-1.4c3.4-0.4,6.9-0.8,10.3-1.1c-3.399,0.5-6.899,0.9-10.3,1.4
		C235.2,258.7,231.8,259.1,228.3,259.4z"/>
</g>
<g>
	<path d="M213.4,273.3c2.301-0.5,4.601-0.9,6.9-1.4c2.3-0.4,4.6-0.8,6.9-1.1c-2.301,0.5-4.601,0.9-6.9,1.4
		C218,272.5,215.7,272.9,213.4,273.3z"/>
</g>
<g>
	<path d="M128.3,129.8c-2.3-1.9-5.2-3.1-8.1-3.2c-3-0.2-5.9,0.7-8.4,2.3s-4.6,3.7-6.5,6c-1.8,2.3-3.4,4.9-4.8,7.5
		c-2.8,5.2-5,10.8-6.8,16.4c-1.9,5.6-3.4,11.4-4.7,17.1l0,0l0,0c-3.101,3.7-5.7,7.9-8,12.2c-2.3,4.3-4.2,8.7-5.9,13.3
		c-3.3,9.1-5.2,18.8-5.8,28.4c-0.6,9.7,0,19.4,1.7,29c1.7,9.6,4.5,18.9,8.1,27.9l0,0l0,0c2.4,8.2,4.2,16.5,5.601,24.9
		C86.1,320,87,328.5,87,337c0,4.3-0.3,8.5-1,12.7c-0.7,4.2-1.9,8.3-3.8,12.1c-1.9,3.8-4.801,7.1-8.5,9.3c-3.7,2.1-8,3-12.301,3
		c4.2,0,8.601-0.8,12.301-3c3.699-2.1,6.6-5.5,8.5-9.3c2-3.8,3.1-7.9,3.8-12.1c0.7-4.2,1-8.5,1-12.7c0-8.5-0.9-17-2.3-25.4
		c-1.4-8.4-3.301-16.7-5.7-24.9l0,0c-3.601-9-6.5-18.4-8.2-27.9c-1.8-9.6-2.4-19.4-1.7-29.1c0.7-9.7,2.601-19.3,5.9-28.5
		c1.6-4.6,3.6-9,5.899-13.3c2.301-4.3,4.9-8.4,8-12.2l0,0c1.4-5.8,2.9-11.5,4.801-17.1c1.899-5.6,4-11.2,6.8-16.4
		c1.399-2.6,3-5.1,4.8-7.5c1.8-2.3,4-4.5,6.5-6c2.5-1.6,5.5-2.5,8.4-2.3C123.1,126.7,126,127.9,128.3,129.8z"/>
</g>
<g>
	<path d="M115.5,428.2c-2.601,0.8-5.101,1.8-7.5,3c-2.4,1.2-4.8,2.5-7,4c-4.5,3-8.601,6.6-11.9,10.898
		c-3.3,4.2-5.8,9.102-7.3,14.302c-1.5,5.198-2,10.6-1.8,16c-0.3-5.4,0.1-10.802,1.6-16c1.5-5.2,4-10.102,7.3-14.4
		c3.301-4.3,7.4-7.9,12-10.9C105.4,432,110.3,429.7,115.5,428.2z"/>
</g>
<g>
	<path d="M122.4,498.8c3.301,4.5,6.4,9.2,9.5,13.9c1.5,2.398,3,4.7,4.4,7.1c1.4,2.4,2.9,4.8,3.8,7.5c-0.5-1.3-1.2-2.5-1.899-3.8
		c-0.7-1.2-1.4-2.4-2.101-3.6c-1.5-2.4-3-4.7-4.5-7.102C128.6,508.1,125.5,503.5,122.4,498.8z"/>
</g>
<g>
	<path d="M156.9,397.7c-0.699,6.1-1.6,12.1-2.5,18.2c-1,6-2,12.1-3.3,18.1c-1.3,6-2.7,11.9-4.399,17.8c-0.9,2.9-1.9,5.8-3,8.7
		c-1.2,2.8-2.5,5.6-4.5,8c1.899-2.4,3.199-5.2,4.399-8c1.101-2.8,2.101-5.7,3-8.7c1.7-5.898,3.101-11.8,4.3-17.8
		c1.301-6,2.4-12,3.4-18C155.2,409.9,156.1,403.8,156.9,397.7z"/>
</g>
<g>
	<path d="M114.4,298.6c-0.699-7.6-0.899-15.3-0.699-23c0.199-7.7,0.8-15.3,2.199-22.9c1.4-7.5,3.4-15.1,7.301-21.7
		c1.899-3.3,4.399-6.4,7.399-8.7c3.101-2.3,6.8-3.8,10.601-4.2c-3.801,0.4-7.5,1.9-10.5,4.2c-3.101,2.3-5.5,5.4-7.4,8.7
		c-3.8,6.7-5.8,14.2-7.2,21.7c-1.3,7.6-1.899,15.2-2.1,22.9c-0.2,7.7,0.1,15.3,0.7,23H114.4z"/>
</g>
<g>
	<path d="M229.2,133.9c7.1-0.2,14.1-1.2,21-2.6c6.899-1.4,13.699-3.5,20.199-6.3S283,118.5,288.1,113.6c5.101-4.9,9.101-11,11-17.8
		c-1.899,6.8-5.801,13-11,17.9c-5.101,4.9-11.301,8.6-17.701,11.5c-6.5,2.9-13.3,4.9-20.199,6.4c-6.9,1.4-14,2.4-21.101,2.7
		L229.2,133.9z"/>
</g>
<g>
	<path d="M292.2,162.9c5.5-0.8,10.999-2.1,16.398-3.7c5.4-1.6,10.601-3.6,15.7-6c5-2.5,9.8-5.4,14-9.2c4.2-3.7,7.601-8.3,9.601-13.6
		c-1.899,5.3-5.399,9.9-9.5,13.7c-4.2,3.8-9,6.8-14,9.3s-10.301,4.5-15.7,6.1s-10.899,2.9-16.399,3.7L292.2,162.9z"/>
</g>
<g>
	<path d="M339.4,178.7c2.899-3.9,6.199-7.6,9.601-11.1c3.5-3.5,7.199-6.7,11.199-9.5c4-2.7,8.5-5,13.399-5.9
		c2.4-0.4,4.9-0.4,7.301,0.1c2.399,0.5,4.699,1.6,6.601,3c-2-1.4-4.301-2.5-6.7-3s-4.899-0.5-7.3-0.1
		c-4.801,0.9-9.301,3.2-13.301,5.9c-4,2.8-7.699,6-11.101,9.5c-3.4,3.5-6.6,7.2-9.5,11.1H339.4z"/>
</g>
<g>
	<path d="M377.4,187c-0.801-1.9-1.301-4-1.301-6c0-1,0.101-2.1,0.5-3.1c0.4-1,1-1.9,1.801-2.5c1.699-1.2,3.899-1.4,6-1.3
		s4.101,0.5,6.101,1.1c4,1.1,7.8,2.6,11.5,4.3c3.699,1.7,7.399,3.6,11,5.5c-3.601-1.9-7.301-3.8-11-5.5
		c-3.801-1.7-7.601-3.2-11.5-4.3c-2-0.5-4-0.9-6.101-1c-2-0.1-4.2,0.1-5.801,1.3c-0.8,0.6-1.399,1.5-1.8,2.4c-0.3,1-0.5,2-0.399,3
		c0.101,2,0.601,4.1,1.3,5.9L377.4,187z"/>
</g>
<g>
	<path d="M341.3,57.8c-3.8,5.1-7.3,10.4-10.2,16.1c-1.399,2.8-2.699,5.7-3.699,8.8c-1,3-1.7,6.1-1.7,9.3c0,3.1,0.899,6.4,3,8.8
		c2.101,2.4,5.2,3.7,8.3,4.4c3.101,0.7,6.301,0.9,9.5,0.9c3.2-0.1,6.301-0.3,9.5-0.8c-3.1,0.4-6.3,0.7-9.5,0.8
		c-3.199,0.1-6.399-0.1-9.5-0.8c-3.1-0.7-6.199-2-8.3-4.4c-2.2-2.4-3.101-5.7-3.101-8.8c0-3.2,0.7-6.3,1.7-9.4
		c1-3,2.3-5.9,3.699-8.8c2.9-5.7,6.301-11.1,10.101-16.1H341.3z"/>
</g>
<g>
	<path d="M423,114.1c-3.9,2.7-7.7,5.7-11.101,8.9c-1.7,1.6-3.301,3.4-4.801,5.3c-1.399,1.9-2.699,3.9-3.399,6.2
		c-0.3,1.1-0.5,2.3-0.399,3.5s0.5,2.3,1.2,3.2c1.399,1.9,3.5,3.2,5.6,4.1c2.2,0.9,4.5,1.6,6.801,2.1c2.3,0.5,4.699,0.9,7,1.1
		c-4.7-0.5-9.5-1.2-13.899-3c-2.2-0.9-4.301-2.2-5.7-4.2c-0.7-1-1.2-2.1-1.3-3.3c-0.101-1.2,0-2.4,0.399-3.6
		c0.699-2.3,2-4.3,3.5-6.2c1.5-1.9,3.101-3.6,4.8-5.2C415.199,119.6,419,116.7,423,114.1z"/>
</g>
<g>
	<path d="M498.9,272.1c-6.2,0.6-12.5,0-18.399-1.7c-6-1.7-11.601-4.6-16.2-8.8c-4.601-4.2-8-9.6-10.2-15.4
		c-2.199-5.8-3.3-12-3.601-18.2l0,0c-0.899-6.3-2.1-12.6-3.399-18.8c-1.3-6.2-2.699-12.4-4.399-18.6c-1.7-6.1-3.7-12.2-6.3-18
		c-1.301-2.9-2.801-5.7-4.7-8.3c-1-1.3-2-2.5-3.3-3.4c-1.301-0.9-2.801-1.6-4.399-1.6c1.6,0,3.1,0.7,4.399,1.6
		c1.299,0.9,2.399,2.1,3.3,3.4c1.899,2.5,3.399,5.4,4.7,8.3c2.601,5.8,4.601,11.9,6.3,18c1.7,6.1,3.2,12.3,4.5,18.6
		c1.3,6.2,2.5,12.5,3.399,18.8l0,0l0,0c0.399,6.2,1.399,12.3,3.601,18.2c2.101,5.8,5.5,11.2,10.101,15.4
		c4.5,4.2,10.2,7.2,16.101,8.9C486.4,272,492.699,272.7,498.9,272.1z"/>
</g>
<g>
	<path d="M516.6,313.3c-4.3-1.4-8.399-3.1-12.601-4.9c-4.1-1.8-8.199-3.8-12.1-6c-3.9-2.3-7.7-4.8-11-7.8
		c-1.601-1.5-3.2-3.2-4.301-5.2c-1.101-1.9-1.8-4.2-1.5-6.5c-0.3,2.3,0.5,4.5,1.601,6.4c1.101,1.9,2.7,3.6,4.3,5.1
		c3.301,3,7.101,5.5,11,7.7c3.9,2.3,7.9,4.3,12,6.1C508.199,310.1,512.4,311.8,516.6,313.3z"/>
</g>
<g>
	<path d="M493,363.4c-6.4-7.2-12.5-14.8-18.301-22.5c-5.8-7.7-11.399-15.7-16.5-23.9s-9.8-16.7-13.699-25.6
		c-1.9-4.5-3.601-9-4.801-13.7c-1.199-4.7-2-9.5-1.899-14.4c-0.101,4.8,0.7,9.7,2,14.3c1.2,4.7,2.899,9.2,4.8,13.7
		c3.801,8.9,8.601,17.4,13.7,25.6c5.101,8.2,10.7,16.2,16.5,23.9C480.6,348.5,486.6,356.1,493,363.4z"/>
</g>
<g>
	<path d="M513.699,421.3c-7.3-3.7-14.101-8.2-20.601-13c-6.5-4.899-12.6-10.3-18.199-16.3c-5.5-6-10.5-12.5-14.5-19.6
		s-7.101-14.8-8.7-22.7c1.8,8,4.8,15.6,8.899,22.7c4,7.1,9,13.6,14.601,19.5c5.5,6,11.601,11.4,18.101,16.3c3.2,2.5,6.601,4.8,10,7
		C506.6,417.3,510,419.4,513.699,421.3z"/>
</g>
<g>
	<path d="M467.3,428.2c-3.601-1.2-6.899-3.4-9.7-6c-2.8-2.602-5.101-5.7-6.899-9.102c-1.8-3.398-3-7.1-3.8-10.8
		c-0.801-3.7-1.2-7.6-1.301-11.4c0.2,3.8,0.601,7.6,1.5,11.3c0.801,3.7,2.101,7.3,3.9,10.7c1.699,3.398,4,6.5,6.8,9.1
		c1.399,1.3,2.899,2.5,4.5,3.5C463.8,426.6,465.5,427.6,467.3,428.2z"/>
</g>
<g>
	<path d="M420,472.3c1.699-3.5,3.199-7.2,4.6-10.8c1.4-3.7,2.601-7.4,3.7-11.2c2.2-7.5,3.7-15.3,4.5-23.1
		c-0.5,7.898-2.101,15.6-4.2,23.2c-1.1,3.8-2.399,7.5-3.8,11.198C423.4,465.2,421.9,468.9,420,472.3z"/>
</g>
<g>
	<path d="M448.6,485.1c-1-3.8-1.8-7.6-2.5-11.398c-0.699-3.799-1.3-7.7-1.8-11.5c-0.399-3.9-0.8-7.7-0.8-11.602
		c0-3.898,0.199-7.8,1.199-11.6c-0.5,1.9-0.699,3.8-0.899,5.8c-0.101,1.9-0.2,3.9-0.101,5.8c0.101,3.9,0.399,7.802,0.899,11.602
		c0.5,3.898,1,7.7,1.7,11.5S447.699,481.3,448.6,485.1z"/>
</g>
<g>
	<path d="M246.6,29.1c-3.399,4.3-6.7,8.7-9.8,13.1c-3.1,4.5-6.1,9-8.9,13.8c-2.699,4.7-5.3,9.6-6.899,14.8c-0.4,1.3-0.7,2.7-0.8,4
		c-0.101,1.4,0,2.8,0.5,4c0.5,1.3,1.699,2.2,2.899,2.7c1.3,0.5,2.7,0.6,4,0.5c-1.399,0-2.8,0-4-0.5c-1.3-0.4-2.399-1.4-3-2.7
		c-0.6-1.3-0.6-2.7-0.5-4c0.101-1.4,0.4-2.7,0.8-4c1.5-5.3,4.101-10.1,6.801-14.9c2.699-4.7,5.699-9.3,8.8-13.8
		c3.1-4.5,6.399-8.9,9.8-13.2L246.6,29.1z"/>
</g>
<g>
	<path d="M191.5,25.8c-3,5.5-5.9,11-8.7,16.6c-2.8,5.6-5.4,11.3-7.7,17.1c-1.2,2.9-2.3,5.8-3.2,8.8c-1,3-1.8,6-2.199,9.1
		c-0.2,1.5-0.301,3.1-0.101,4.7c0.101,0.8,0.3,1.5,0.601,2.2c0.3,0.7,0.899,1.3,1.6,1.7c1.4,0.8,3.1,0.6,4.6,0.3
		c1.5-0.4,3-1,4.4-1.6c-1.4,0.7-2.9,1.3-4.4,1.7s-3.199,0.5-4.6-0.2c-0.7-0.4-1.2-1-1.6-1.7c-0.301-0.7-0.5-1.5-0.601-2.3
		c-0.2-1.6-0.1-3.1,0.101-4.7c0.399-3.1,1.3-6.1,2.199-9.1c1-3,2-5.9,3.2-8.8c2.3-5.8,4.9-11.5,7.7-17.1
		C185.6,36.9,188.4,31.3,191.5,25.8L191.5,25.8z"/>
</g>
<g>
	<path d="M121.9,197.9c6.301-2.7,12.601-5.1,19.101-7.2c3.2-1,6.5-1.9,9.899-2.6c1.7-0.3,3.4-0.6,5.101-0.6c0.899,0,1.7,0,2.5,0.2
		c0.8,0.2,1.7,0.5,2.2,1.1c-0.601-0.6-1.4-0.9-2.2-1.1c-0.8-0.2-1.7-0.2-2.5-0.2c-1.7,0-3.4,0.3-5.101,0.6
		c-3.3,0.7-6.6,1.6-9.899,2.6c-6.5,2.1-12.8,4.6-19.101,7.3V197.9z"/>
</g>
<g>
	<path d="M153.1,151.8c-0.1,2,0.2,4.1,0.8,6c0.601,1.9,1.7,3.7,3.2,5.1s3.5,2.1,5.5,2.4c2,0.3,4.101,0.2,6.101-0.2
		c-2,0.4-4.101,0.5-6.101,0.2c-2-0.3-4-1.1-5.6-2.4c-1.601-1.3-2.601-3.2-3.3-5.1c-0.601-1.9-0.9-4-0.9-6.1L153.1,151.8z"/>
</g>
<g>
	<path d="M259,200.1c1.5-0.4,2.899-0.7,4.2-1.5c1.3-0.7,2.199-2,2.699-3.4c0.601-1.4,1.101-2.8,1.5-4.3l1.5-4.3l-1.399,4.3
		c-0.5,1.4-0.9,2.9-1.5,4.3c-0.601,1.4-1.4,2.8-2.8,3.5c-1.301,0.8-2.801,1.1-4.301,1.5L259,200.1z"/>
</g>
<g>
	<path d="M281.9,207.3c1-1.8,1.9-3.7,2.5-5.7c0.699-2,1.199-4,1.5-6c-0.301,2.1-0.699,4.1-1.399,6.1c-0.601,2-1.4,3.9-2.4,5.8
		L281.9,207.3z"/>
</g>
<g id="www.ABC-color.com">
	<path d="M347.5,324.4c3.5-1,7-2.4,10.199-4.1c3.2-1.7,6.301-3.7,9-6.3c2.601-2.5,4.801-5.6,6-9.1c1.2-3.5,1.2-7.3,0.5-10.9
		c0.801,3.6,0.801,7.4-0.399,10.9c-1.101,3.5-3.3,6.6-6,9.2s-5.7,4.6-9,6.4c-3.3,1.7-6.7,3.1-10.2,4.1L347.5,324.4z"/>
</g>
<g>
	<path d="M331.3,236.8c0.101,2.1,0.3,4.1,0.601,6.1c0.3,2,0.699,4,1.199,6c1,4,2.4,7.9,4.2,11.5c1.8,3.7,4.101,7.1,6.899,10.1
		c2.801,3,6.101,5.5,9.7,7.4c-3.7-1.8-7-4.3-9.801-7.3c-2.8-3-5.199-6.4-7-10.1c-1.8-3.7-3.199-7.6-4.199-11.6
		C332,245,331.4,240.9,331.3,236.8z"/>
</g>
<g>
	<path d="M375.699,343.8c1.7-0.9,3.301-1.9,4.899-3.1c1.601-1.1,3-2.4,4.4-3.7c2.8-2.6,5.199-5.6,7.199-8.9
		c2-3.2,3.601-6.7,4.801-10.4c0.6-1.8,1.1-3.7,1.5-5.6c0.399-1.9,0.699-3.8,0.899-5.7c-0.101,3.9-0.601,7.7-1.7,11.5
		c-1,3.8-2.601,7.4-4.7,10.7c-2.1,3.3-4.6,6.3-7.5,8.9C382.6,340.1,379.3,342.3,375.699,343.8z"/>
</g>
<g>
	<path d="M306.699,277.2c-4.6-0.8-9.199-1-13.801-0.7c-4.6,0.3-9.1,1.1-13.299,2.7c-4.3,1.6-8,4.1-11.5,6.8
		c-1.8,1.4-3.399,2.9-5,4.5c-1.6,1.6-3,3.4-4.5,5.3l-0.3-0.1c1.5-4.5,4.2-8.6,7.8-11.9c1.8-1.6,3.8-3,6-4.1c2.2-1.1,4.4-2,6.7-2.6
		c4.6-1.4,9.4-2,14.1-1.9c4.701,0.1,9.4,0.6,13.9,1.9L306.699,277.2z"/>
</g>
<circle cx="195.4" cy="322.1" r="2.9"/>
<circle cx="282.4" cy="312.1" r="2.9"/>
</svg>
