<?xml version="1.0" encoding="utf-8"?>
<!-- Generator: Adobe Illustrator 15.0.0, SVG Export Plug-In . SVG Version: 6.00 Build 0)  -->
<!DOCTYPE svg PUBLIC "-//W3C//DTD SVG 1.1//EN" "http://www.w3.org/Graphics/SVG/1.1/DTD/svg11.dtd">
<svg version="1.1" id="layer_x5F_www.ABC-color.com"
	 xmlns="http://www.w3.org/2000/svg" xmlns:xlink="http://www.w3.org/1999/xlink" x="0px" y="0px" width="822px" height="567px"
	 viewBox="0 0 822 567" enable-background="new 0 0 822 567" xml:space="preserve">
<path fill="#FFFFFF" stroke="#000000" stroke-width="2" d="M131.9,336.4c-3.399-7.9-9.6-24.102-6.699-31.5L139,320
	c0,0-5.9-26.2,0.1-33.2l4,7c0,0,7.9-24.8-0.1-30.8c0,0-42-54,25-234c0,0,4-24,38-10c0,0,97,59,108,75c0,0,16-27,36-19
	c0,0,19-26,40-10c0,0,34-23,45,3c0,0,38-21,50,5c0,0,30-13,39,11c0,0,25-18,39,5c0,0,28-5,37,24c0,0,132-73,144-51
	c0,0,30,125-38,246c0,0,15-4,9,0h8l-9,8l11,1c0,0-5,20-11,22l9,3c0,0-3,15-11,18l7,8c0,0-11,16-21,18l12,3c0,0-19,17-24,18l11,4
	c0,0-11,10-19,12l5,8c0,0-9,11-19,13l6,7c0,0-22,5-32,5l6,12c0,0-66,35-78,33c0,0-91,22-122,12l23-20c33,10,53-39,53-39
	c71-25,64-111,64-111c-1-43-49-16-49-16c-54-44-83-13-83-13c-51-48-87-7-87-7c-40.801-29.4-81.5-10.3-82.2-9
	c-21.9-2.9-39.8,10-39.8,10c-21,26,12,52,12,52s-25,37,40,72c0,0-4,37,34,43c0,0-2,12,10,22c0,0-81,1-156-42l13-5c0,0-34-15-40-27
	l13,1c0,0-27-18-28-26l15,5c0,0-29-31-29-37l12,7c0,0-12-25-11-34s1-9,1-9L131.9,336.4z M133.9,340.9l-1.8-3.9
	C133.1,339,133.7,340.5,133.9,340.9z M280.7,148.4c16.5-5.5,29.3-6.4,29.3-6.4C304,61,183,22,183,22c-84,158-16,257-16,257
	c0.899-9.5,9.6-21.1,18.899-30.9C197,236.3,209,227,209,227C217.6,178.3,254,157.3,280.7,148.4z M674,288.9
	c11.699,8.5,28,7.1,28,7.1c46-172,33-215,33-215c-25-25-163,84-163,84c13.3,3.2,23.199,8.5,30.699,14.5C623.4,196.3,625,219,625,219
	c14-3,43,64,43,64C669.8,285.4,671.8,287.3,674,288.9z"/>
<path fill="#FFFFFF" stroke="#000000" d="M735,81c0,0,13,43-33,215c0,0-16.301,1.4-28-7.1c34-95,13-149.9,13-149.9
	c-16-6.6-77.2,35.6-84.301,40.5c-7.5-6.1-17.399-11.3-30.699-14.5C572,165,710,56,735,81z"/>
<path fill="#FFFFFF" stroke="#000000" d="M687,139c0,0,21,55-13,149.9c-2.2-1.602-4.301-3.602-6-5.9c0,0-29-67-43-64
	c0,0-1.601-22.7-22.301-39.5C609.8,174.6,671,132.4,687,139z"/>
<path id="www.ABC-color.com" fill="#FFFFFF" stroke="#000000" stroke-width="0.5" d="M407.4,500.5c-8.101-3-13.4-7.5-13.4-7.5
	c-5.301,3.4-10.301,5-15,5.2v0.8C379,499,389.699,515.6,407.4,500.5z M584,343c0,0,7,86-64,111c0,0-20,49-53,39l-23,20
	c0,0-49,44-105-16c-12-10-10-22-10-22c-38-6-34-43-34-43c-65-35-40-72-40-72s-33-26-12-52c0,0,17.899-12.9,39.8-10
	c0,0.1,0,0.1,0.2,0c-0.101,0-0.2,0-0.2,0c0.8-1.2,41.5-20.3,82.2,9c0,0,36-41,87,7c0,0,29-31,83,13C535,327,583,300,584,343z
	 M538.1,370L538.1,370c-0.6-1.1-21-38.3-49.899-33.3c0,0-34.5,6.8-24.7,55.5C526.3,428.3,538.1,370,538.1,370z M393,474
	c0,0,28,9,33-20c-25-34-56-7-56-7S369,469,393,474z M349,382c13-48-21-57-21-57c-29-7-52,30-52,30S284,414,349,382z"/>
<path fill="#FFFFFF" stroke="#000000" stroke-width="2" d="M538.1,370L538.1,370c0,0-11.8,58.4-74.601,22.2
	C463.5,392.2,469,292.3,538.1,370z M514.8,374c0.8-12.4-6.601-23-16.5-23.6c-9.899-0.602-18.601,8.898-19.399,21.3
	c-0.801,12.399,6.601,23,16.5,23.6C505.3,395.9,514,386.4,514.8,374z"/>
<path fill="#FFFFFF" stroke="#000000" stroke-width="2" d="M498.3,350.3c9.899,0.601,17.3,11.2,16.5,23.601
	C514,386.3,505.3,395.8,495.4,395.201C485.5,394.6,478.1,384,478.9,371.6C479.699,359.2,488.4,349.7,498.3,350.3z"/>
<path fill="#FFFFFF" stroke="#000000" stroke-width="2" d="M488.199,336.7c29-5,49.301,32.2,49.899,33.3
	c-69.1-77.6-74.6,22.2-74.6,22.2C453.699,343.4,488.199,336.7,488.199,336.7z"/>
<path fill="#FFFFFF" stroke="#000000" stroke-width="2" d="M426,454c-5,29-33,20-33,20c-24-5-23-27-23-27S401,420,426,454z"/>
<path fill="#FFFFFF" stroke="#000000" stroke-width="2" d="M394,493c0,0,5.199,4.5,13.399,7.5C389.8,515.5,379,499,379,499v-0.8
	C383.699,498,388.699,496.4,394,493z"/>
<path fill="#FFFFFF" stroke="#000000" stroke-width="2" d="M328,325c0,0,34,9,21,57c0,0,1-100-73-27C276,355,299,318,328,325z"/>
<path fill="#FFFFFF" stroke="#000000" stroke-width="2" d="M276,355c74-73,73,27,73,27C284,414,276,355,276,355z M335,360.5
	c0-12.4-8.101-22.5-18-22.5c-9.9,0-18,10.1-18,22.5s8.1,22.5,18,22.5S335,372.9,335,360.5z"/>
<path fill="#FFFFFF" stroke="#000000" stroke-width="2" d="M317,338c9.899,0,18,10.1,18,22.5s-8.1,22.5-18,22.5s-18-10.1-18-22.5
	S307.1,338,317,338z"/>
<path id="ABC-color.com" fill="#FFFFFF" stroke="#000000" d="M310,142c0,0-12.8,0.9-29.3,6.4C256.5,103.9,193,93,193,93
	c-21,34-9,154-9,154l1.899,1.1c-9.3,9.8-18,21.4-18.899,30.9c0,0-68-99,16-257C183,22,304,61,310,142z"/>
<path fill="#FFFFFF" stroke="#000000" d="M280.7,148.4c-26.601,8.9-63,29.9-71.7,78.6c0,0-12,9.3-23.101,21.1L184,247
	c0,0-12-120,9-154C193,93,256.5,103.9,280.7,148.4z"/>
<g>
	<path d="M599.699,113.3c-3.5,2.9-6.899,6-10.3,9.1c-3.301,3.2-6.5,6.4-9.601,9.8c-3.101,3.4-6,7-8.601,10.7
		c-2.601,3.8-4.899,7.8-6.199,12.2c1.199-4.5,3.399-8.6,5.8-12.5c2.5-3.9,5.3-7.6,8.3-11.1s6.101-6.9,9.301-10.2
		c3.199-3.3,6.5-6.5,10-9.6L599.699,113.3z"/>
</g>
<g>
	<path d="M313.699,94.2c1.5-0.1,2.7,0.2,4,0.6c1.2,0.4,2.399,1.1,3.399,1.9c2,1.6,3.5,3.7,4.7,5.9c2.3,4.4,3.2,9.3,3.7,14.1
		c-0.9-4.8-2.2-9.5-4.601-13.6c-1.2-2-2.801-3.9-4.7-5.2c-0.899-0.6-2-1.1-3.101-1.4c-1-0.3-2.3-0.4-3.199-0.3L313.699,94.2z"/>
</g>
<g>
	<path d="M321.1,292.3c0.4-3.2,0.4-6.5,0.2-9.7c-0.2-3.3-0.601-6.5-1.3-9.7c-1.4-6.4-3.7-12.6-7.101-18.3
		c-3.399-5.6-7.8-10.7-12.8-14.9c-5.1-4.2-10.8-7.6-16.899-10.3c6.1,2.5,12,5.7,17.199,9.9c5.2,4.1,9.8,9.1,13.4,14.8
		c3.601,5.7,6.2,11.9,7.7,18.4c0.8,3.3,1.3,6.6,1.6,9.9c0.301,3.4,0.4,6.7,0,10.1L321.1,292.3z"/>
</g>
<g>
	<path d="M327.1,292.2c1.4-6.4,1.9-13.1,1.801-19.7c-0.101-6.6-1-13.3-2.801-19.7c-1.8-6.4-4.5-12.6-8.199-18.1
		c-3.7-5.5-8.399-10.4-13.8-14.3c5.5,3.8,10.4,8.6,14.3,14c3.899,5.5,6.8,11.6,8.8,18.1c2,6.4,3,13.2,3.3,19.9
		c0.301,6.7-0.1,13.5-1.399,20.2L327.1,292.2z"/>
</g>
<g>
	<path d="M334.1,292c2.2-6.1,3.601-12.5,4.5-19c0.801-6.5,1-13,0.301-19.6c-0.7-6.5-2.301-12.9-4.899-18.9
		c-2.601-6-6.4-11.5-11-16.2c4.699,4.6,8.6,10,11.399,16c2.799,6,4.601,12.4,5.5,19c0.899,6.6,0.8,13.2,0.101,19.8
		c-0.7,6.6-2,13.1-4.101,19.5L334.1,292z"/>
</g>
<g>
	<path d="M479.1,305.5c-0.6-5.9-0.699-11.8-0.399-17.7c0.301-5.9,1-11.8,2.301-17.5c1.3-5.8,3.1-11.4,5.699-16.7
		c2.601-5.3,6-10.2,10.301-14.2c-4.2,4.1-7.5,9.1-9.9,14.4c-2.399,5.3-4.1,11-5.199,16.7c-1.101,5.7-1.601,11.6-1.801,17.4
		c-0.1,5.8,0.101,11.699,0.9,17.398L479.1,305.5z"/>
</g>
<g>
	<path d="M485.1,303.3c0.5-6.2,1.5-12.2,2.7-18.3c1.2-6,2.8-12,4.899-17.8c2.101-5.8,4.601-11.5,8-16.6s7.801-9.7,13.399-12.3
		c-5.5,2.7-9.8,7.4-13,12.6c-3.3,5.2-5.6,10.8-7.5,16.6c-1.899,5.8-3.3,11.8-4.3,17.8s-1.8,12.101-2.2,18.101L485.1,303.3z"/>
</g>
<g>
	<path d="M491.1,303.2c1.301-5,2.9-9.9,4.7-14.8c1.8-4.9,3.8-9.602,6-14.3c2.3-4.6,4.8-9.2,7.8-13.4c3-4.2,6.4-8.2,10.5-11.3
		c-4,3.3-7.199,7.3-10.101,11.6c-2.8,4.3-5.199,8.9-7.3,13.5c-2.101,4.7-3.899,9.5-5.5,14.3c-1.601,4.9-3,9.8-4.2,14.8L491.1,303.2z
		"/>
</g>
<line fill="none" stroke="#000000" stroke-width="2" x1="394" y1="494.4" x2="397" y2="475.4"/>
<g>
	<path d="M379.6,499.6c-4.199-0.8-8.3-2-12.3-3.5s-7.8-3.3-11.399-5.5c-3.601-2.198-7-4.898-9.7-8.1c-2.8-3.2-4.8-7-5.8-11.1
		c1.199,4,3.399,7.698,6.199,10.8c2.801,3.1,6.2,5.5,9.9,7.6c3.6,2,7.5,3.7,11.399,5s8,2.3,12.101,3L379.6,499.6z"/>
</g>
<g>
	<path d="M407.8,501c4,1.6,8.2,2.5,12.5,2.8c4.3,0.2,8.601-0.3,12.7-1.7c4.1-1.3,8-3.398,11.5-5.898s6.699-5.602,9.6-8.8
		c-2.8,3.398-5.8,6.5-9.3,9.198c-3.5,2.7-7.3,5-11.5,6.5s-8.601,2.302-13.101,2.2c-4.5-0.1-8.899-0.898-13.101-2.398L407.8,501z"/>
</g>
<path fill="none" stroke="#000000" d="M426,454.4c2-10,16.5-44.802,37.5-61.801"/>
<path fill="none" stroke="#000000" d="M349,382.4c0,0,25,47,21,65"/>
<g>
	<path d="M409,466.4c0.1-1.302,0.3-2.602,0.699-3.9c0.399-1.3,1-2.5,1.899-3.6c0.9-1.102,2-2,3.4-2.2c1.399-0.3,2.8,0,3.899,0.7
		c-1.301-0.302-2.601-0.302-3.7,0.1c-1.101,0.4-2.101,1.2-2.899,2.1c-0.8,0.9-1.399,2.102-1.899,3.2
		C410,463.9,409.5,465.1,409,466.4z"/>
</g>
<g>
	<path d="M378,454.4c1,0.1,2,0.5,3,1c0.899,0.5,1.8,1.198,2.399,2c0.699,0.8,1.199,1.8,1.5,2.8c0.3,1,0.3,2.1,0.101,3.1
		c-0.2-1-0.5-2-0.9-2.898c-0.399-0.9-0.899-1.7-1.5-2.5C381.5,456.6,379.8,455.4,378,454.4z"/>
</g>
</svg>
