<?xml version="1.0" encoding="utf-8"?>
<!-- Generator: Adobe Illustrator 15.0.0, SVG Export Plug-In . SVG Version: 6.00 Build 0)  -->
<!DOCTYPE svg PUBLIC "-//W3C//DTD SVG 1.1//EN" "http://www.w3.org/Graphics/SVG/1.1/DTD/svg11.dtd">
<svg version="1.1" id="Layer_1" xmlns="http://www.w3.org/2000/svg" xmlns:xlink="http://www.w3.org/1999/xlink" x="0px" y="0px"
	 width="567px" height="822px" viewBox="0 0 567 822" enable-background="new 0 0 567 822" xml:space="preserve">
<path fill="#FFFFFF" stroke="#000000" stroke-miterlimit="10" d="M380.2,178.5c17,14.9,15.5,44.9-3.3,67
	c-18.801,22.1-47.801,27.9-64.801,13s-15.5-44.9,3.301-67C334.1,169.4,363.2,163.5,380.2,178.5z M361.5,231.9
	c9.4-11,10.1-26,1.6-33.5s-23-4.5-32.399,6.5c-9.4,11-10.101,26-1.601,33.5S352.1,243,361.5,231.9z"/>
<path fill="#FFFFFF" stroke="#000000" stroke-miterlimit="10" d="M363.1,198.5c8.5,7.4,7.801,22.4-1.6,33.5
	c-9.4,11-23.9,14-32.4,6.5S321.3,216,330.7,205C340.1,193.9,354.6,191,363.1,198.5z"/>
<path fill="#FFFFFF" stroke="#000000" stroke-miterlimit="10" d="M443.9,371.5c-2.601,10.2-5,16.4-5,16.4
	C284.8,348.8,307.6,276.4,307.6,276.4c-48.5,21.1-114.3,10.7-137.5,6c-5.4-1.1-8.5-1.9-8.5-1.9c25.5-151.2,133.7-106.5,135-106
	C246.7,102.1,302,11.4,302,11.4c105.6,62.3,82.7,149.2,82.7,149.2c127-94.1,169.899,28,169.899,28C517.2,235.9,426,240.2,426,240.2
	C460.7,282.9,451.2,342.8,443.9,371.5z M376.9,245.4c18.8-22.1,20.3-52.1,3.3-67s-46-9.1-64.8,13c-18.801,22.1-20.301,52.1-3.301,67
	C329.1,273.4,358.1,267.5,376.9,245.4z"/>
<path fill="#FFFFFF" stroke="#000000" stroke-miterlimit="10" d="M232.5,465c0.6,3.2,1,6.4,1,9.8c-2.2,6.2,0.7,19.2-1.4,23.2
	c-7.1,13-15.8,5.8-17.1,7.3c-5.2-3.1-22.8-6.2-25.7-5.8c-21.4,15.9-22.8-2.9-32.8-7.2c0,0-35.7,13-32.8-14.5
	c1.2-2.2,6-19.399,7.1-21.7c8.1-16.199,24.8-29,49.3-29.199c2.1-0.301,4.2-0.4,6.4-0.4C209.1,426.3,228.1,442.9,232.5,465z"/>
<path fill="#FFFFFF" stroke="#000000" stroke-miterlimit="10" d="M144.5,333.3c6.4,4.7,3.8,19.3-5.8,32.5
	c-9.6,13.2-22.5,20.1-28.8,15.3c-6.3-4.7-3.7-19.3,5.8-32.5c2.3-3.2,4.8-6,7.4-8.4c0.2-0.2,0.5-0.4,0.7-0.6c2.1-1.8,4.4-3.5,6.7-4.9
	C136,331.5,141.1,330.8,144.5,333.3z"/>
<path fill="#FFFFFF" stroke="#000000" stroke-miterlimit="10" d="M144.5,333.3c-3.3-2.5-8.5-1.8-14,1.4c12.1-7.4,25.8-8.5,36.2-1.5
	c15.7,10.6,17.5,36,4,56.6c-13.5,20.601-37.3,28.7-53,18.101c-15.7-10.601-17.5-36-4-56.601c2.8-4.2,6-8,9.5-11.1
	c-2.6,2.4-5.1,5.2-7.4,8.4c-9.6,13.2-12.2,27.8-5.8,32.5c6.4,4.7,19.3-2.1,28.8-15.3C148.2,352.5,150.8,338,144.5,333.3z"/>
<path fill="#FFFFFF" stroke="#000000" stroke-miterlimit="10" d="M282.1,364.6c6.4,4.7,3.8,19.3-5.8,32.5
	c-9.6,13.2-22.5,20.101-28.8,15.4c-4.1-3-4.5-10.2-1.6-18.4c0.3-0.9,0.7-1.9,1.1-2.8c0-0.1,0.1-0.2,0.1-0.3
	c1.5-3.6,3.6-7.3,6.3-10.9C262.9,366.7,275.8,359.8,282.1,364.6z"/>
<path fill="#FFFFFF" stroke="#000000" stroke-miterlimit="10" d="M252,381.7c13.5-20.6,37.3-28.8,53-18.1c15.7,10.6,17.5,36,4,56.6
	c-13.5,20.6-37.3,28.7-53,18.1c-12.7-8.6-16.3-26.8-10.1-44.3c-2.8,8.2-2.5,15.4,1.6,18.4c6.4,4.699,19.3-2.101,28.8-15.4
	c9.601-13.2,12.2-27.8,5.8-32.5c-6.3-4.7-19.2,2.1-28.8,15.3c-2.6,3.6-4.7,7.4-6.3,10.9C248.4,387.7,250,384.6,252,381.7z"/>
<path fill="#FFFFFF" stroke="#000000" stroke-miterlimit="10" d="M329,684.5c2.5,0,4.5,2.9,4.5,6.5s-2,6.5-4.5,6.5s-4.5-2.9-4.5-6.5
	S326.5,684.5,329,684.5z"/>
<path fill="#FFFFFF" stroke="#000000" stroke-miterlimit="10" d="M155.6,715.2c1.2,0,2.1,1.3,2.1,2.899c0,1.601-1,2.9-2.1,2.9
	c-1.2,0-2.1-1.3-2.1-2.9C153.5,716.5,154.5,715.2,155.6,715.2z"/>
<path fill="#FFFFFF" stroke="#000000" stroke-miterlimit="10" d="M224.8,548.6c-27.1,50.7-69.9,68.101-69.9,68.101
	c-8.6,2.899-17.1,1.5-17.1,1.5c-35.7-2.9-42.3-94.7-42.3-94.7c30,40.5,50,47,50,47C176.9,579.2,224.8,548.6,224.8,548.6z"/>
<path fill="#FFFFFF" stroke="#000000" stroke-miterlimit="10" d="M30.9,513.8c-17.2-18.3-7.2-69.5-7.2-69.5
	c43.6-120.4,138-158.8,146.4-162c23.2,4.7,89,15.1,137.5-6c0,0-22.8,72.4,131.301,111.5c0,0,2.399-6.2,5-16.4
	c5.5,18.7,38.6,143.3-19.301,256.8c0,0-99.899,181-209.7,163.7C214.9,792,8,783.3,30.9,513.8L30.9,513.8z M333.5,691
	c0-3.6-2-6.5-4.5-6.5s-4.5,2.9-4.5,6.5s2,6.5,4.5,6.5S333.5,694.6,333.5,691z M309,420.2c13.5-20.601,11.7-46-4-56.6
	s-39.5-2.5-53,18.1c-2,3-3.6,6.1-4.9,9.2c0,0.1-0.1,0.2-0.1,0.3c-0.4,0.9-0.8,1.9-1.1,2.8c-6.2,17.5-2.6,35.7,10.1,44.3
	C271.7,448.9,295.5,440.8,309,420.2z M233.4,474.8c0-3.3-0.3-6.6-1-9.8c-4.4-22.1-23.4-38.7-46.1-38.7c-2.2,0-4.3,0.2-6.4,0.4
	c-24.5,0.2-41.2,13-49.3,29.2c-1.2,2.3-5.9,19.5-7.1,21.699c-2.8,27.5,32.8,14.5,32.8,14.5c10,4.301,11.4,23.2,32.8,7.2
	c2.9-0.399,20.4,2.7,25.7,5.8c1.3-1.399,10,5.801,17.1-7.3C234.1,494,231.2,481,233.4,474.8z M155,616.7c0,0,42.8-17.4,69.9-68.101
	c0,0-47.9,30.601-79.3,21.9c0,0-20-6.5-50-47c0,0,6.7,91.8,42.3,94.7C137.8,618.2,146.4,619.6,155,616.7z M170.6,389.8
	c13.5-20.6,11.8-46-4-56.6c-10.3-7-24.1-5.9-36.2,1.5c-2.2,1.3-4.5,2.9-6.7,4.9c-0.2,0.2-0.5,0.4-0.7,0.6c-3.5,3.1-6.7,6.8-9.5,11.1
	c-13.5,20.6-11.8,46,4,56.601C133.3,418.5,157.1,410.4,170.6,389.8z M157.8,718.1c0-1.6-1-2.899-2.1-2.899c-1.2,0-2.1,1.3-2.1,2.899
	c0,1.601,1,2.9,2.1,2.9C156.8,721,157.8,719.7,157.8,718.1z"/>
<g>
	<path d="M31.6,513.2c1.6,1.8,3.7,3.1,6,3.8c2.3,0.7,4.8,0.7,7.3,0.4c4.9-0.601,9.7-2.5,14.3-4.601c4.6-2.2,9-4.8,13.3-7.5
		c4.3-2.8,8.5-5.7,12.6-8.7c-4,3.2-8.1,6.2-12.3,9.101c-4.2,2.899-8.5,5.6-13.1,8c-4.6,2.3-9.4,4.399-14.6,5.2
		c-2.6,0.399-5.3,0.399-7.9-0.2c-2.6-0.601-5.1-2.101-7-4L31.6,513.2z"/>
</g>
<g>
	<path d="M117.9,574.7c1.2,2.5,2.6,5,4.2,7.2c1.6,2.3,3.3,4.399,5.2,6.399c3.9,3.9,8.7,6.8,14,7.7c5.3,1,10.8-0.1,15.9-2.2
		c5.1-2.1,9.8-5,14.4-8.3c-4.1,3.8-8.6,7.3-13.8,9.7c-2.6,1.2-5.3,2.1-8.2,2.7c-2.8,0.5-5.8,0.6-8.7,0.1s-5.6-1.6-8.1-3.1
		s-4.7-3.4-6.6-5.5C122.3,585.1,119.5,580,117.9,574.7z"/>
</g>
<g>
	<path d="M414.6,497.9c-2.1-3.101-4.3-5.9-6.699-8.801c-2.4-2.8-4.9-5.5-7.5-8.1c-5.2-5.2-10.9-9.9-17-13.9
		c-6.101-4-12.7-7.3-19.7-9.5c-7-2.199-14.3-3.199-21.5-2.8c-7.3,0.4-14.4,2.101-21.101,4.9c-6.699,2.7-13.1,6.5-18.899,10.8
		c-5.9,4.3-11.3,9.2-16.4,14.5c-1.3,1.3-2.5,2.6-3.8,4c-1.2,1.3-2.4,2.7-3.4,4.2c-2.1,2.899-3.7,6.2-5.1,9.5
		c-2.8,6.7-4.6,13.8-5.6,21s-1.2,14.6-0.7,21.8c1.1,14.5,5.2,28.9,12.7,41.4c3.8,6.199,8.4,11.899,13.8,16.8
		c5.399,4.899,11.6,9,18.2,12.1c6.6,3.2,13.6,5.5,20.8,7s14.5,2.3,21.899,2.5c-14.699,0-29.6-2.399-43.1-8.6
		c-6.7-3.101-13-7.101-18.6-12c-5.601-4.9-10.4-10.7-14.3-17c-7.9-12.601-12.1-27.3-13.2-42.101C264.8,538.2,265,530.7,266,523.4
		c1-7.4,2.7-14.601,5.6-21.5c1.5-3.4,3.2-6.801,5.4-9.9c1.1-1.5,2.3-3,3.6-4.4c1.2-1.399,2.5-2.699,3.8-4
		C289.6,478.3,295.1,473.4,301.1,469s12.4-8.2,19.4-10.9c6.9-2.8,14.3-4.5,21.7-4.8c7.399-0.3,14.899,0.8,22,3.101
		c7.1,2.3,13.7,5.699,19.8,9.899s11.7,9,16.8,14.4C405.9,486,410.6,491.8,414.6,497.9z"/>
</g>
<g>
	<path d="M163.5,707.9c-2.5-0.101-4.9-0.2-7.3-0.101c-2.4,0.2-4.8,0.5-6.8,1.5c-2.1,0.9-3.7,2.5-4.6,4.601c-0.9,2.1-1.1,4.6-1.2,7.1
		c-0.8-2.4-1.1-5-0.3-7.6c0.4-1.301,1.1-2.5,2-3.5c0.9-1,2.1-1.801,3.3-2.301c2.5-1.1,5.1-1.3,7.6-1.199
		C158.7,706.5,161.2,707,163.5,707.9z"/>
</g>
<g>
	<path d="M334.7,676.1c-2.7-0.5-5.5-0.5-8,0.101c-2.5,0.6-4.7,2-6.4,3.899c-1.7,1.9-2.8,4.4-3.6,6.9s-1.4,5.2-2,7.9
		c-0.3-2.801-0.101-5.601,0.5-8.301c0.6-2.8,1.7-5.5,3.6-7.8c1-1.1,2.101-2.1,3.4-2.8s2.7-1.2,4.2-1.4
		C329.3,674.2,332.2,674.8,334.7,676.1z"/>
</g>
<g>
	<path d="M302,215.2c-3.8,0.6-7.5,0.6-11.1,0c-3.7-0.6-7.2-1.8-10.4-3.7c-3.2-1.8-6-4.3-8.3-7.1c-2.3-2.8-4.1-6-5.5-9.4
		c1.5,3.3,3.5,6.4,5.9,9.1c2.4,2.7,5.2,4.9,8.4,6.6c3.2,1.6,6.6,2.6,10.1,3.1c3.5,0.4,7.101,0.3,10.5-0.4L302,215.2z"/>
</g>
<g>
	<path d="M302.5,220.7c-7,4.3-14.2,8.2-21.6,11.8s-14.9,6.9-22.6,9.7c-7.7,2.8-15.6,5.1-23.7,6.5c-4,0.7-8.1,1.1-12.2,1.1
		s-8.2-0.4-12.2-1.5c4,1,8.1,1.3,12.2,1.2s8.2-0.6,12.2-1.3c8-1.5,15.8-4,23.5-6.9c7.6-2.9,15-6.4,22.3-10.1
		c7.2-3.8,14.4-7.8,21.2-12.2L302.5,220.7z"/>
</g>
<g>
	<path d="M300.4,234c-2.7,1.2-5.301,2.5-7.9,3.9s-5.2,2.8-7.7,4.4c-2.5,1.5-4.9,3.2-7.2,5c-1.1,0.9-2.2,1.9-3.2,3
		c-1,1.1-1.9,2.3-2.4,3.7c0.4-1.4,1.3-2.7,2.2-3.8c0.9-1.1,2-2.2,3.1-3.2c2.2-2,4.6-3.8,7-5.5c2.4-1.7,4.9-3.3,7.5-4.8
		c2.5-1.5,5.101-3,7.8-4.4L300.4,234z"/>
</g>
<g>
	<path d="M335,177.5c-3.5-5.1-6.9-10.3-10.1-15.6c-1.601-2.7-3.101-5.3-4.601-8.1c-0.7-1.4-1.399-2.8-2-4.2
		c-0.6-1.4-1.2-2.9-1.2-4.5c0.101,1.6,0.801,3,1.4,4.4c0.7,1.4,1.4,2.7,2.2,4.1c1.6,2.7,3.2,5.3,5,7.8c3.5,5.1,7.1,10.1,10.8,15
		L335,177.5z"/>
</g>
<g>
	<path d="M354.6,169.7c1.601-6.4,3.301-12.7,5.2-19c0.9-3.2,1.9-6.3,3-9.4c1.101-3.1,2.2-6.2,3.601-9.2c-1.301,3-2.2,6.2-3.101,9.3
		c-0.899,3.2-1.7,6.3-2.5,9.5c-1.5,6.4-2.899,12.8-4.2,19.2L354.6,169.7z"/>
</g>
<g>
	<path d="M346.5,172.7c-1.7-9.3-3.6-18.7-5.6-27.9c-2-9.3-4.2-18.5-6.601-27.7c-2.399-9.2-5-18.3-8.1-27.3
		c-1.601-4.5-3.3-8.9-5.2-13.2c-1-2.2-2.1-4.3-3.3-6.3s-2.601-4-4.3-5.7c1.699,1.6,3.1,3.6,4.399,5.6s2.4,4.1,3.4,6.3
		c2.1,4.3,3.8,8.7,5.5,13.2c3.3,8.9,6,18.1,8.6,27.2c2.601,9.2,4.9,18.4,7.101,27.7c2.199,9.3,4.199,18.6,6.1,27.9L346.5,172.7z"/>
</g>
<g>
	<path d="M389.1,195.7c3.4-1.8,6.601-4.5,9.301-7.3c2.8-2.9,5.199-6.1,7.199-9.6c4-7,6.2-15,6.801-23.1
		c-0.2,8.1-2.101,16.3-5.9,23.6c-1.9,3.6-4.2,7.1-7,10.2s-5.8,5.8-9.5,8.1L389.1,195.7z"/>
</g>
<g>
	<path d="M392.4,209.5c4.899,1.1,9.6,2.2,14.399,3.5s9.5,2.7,14.2,4.2c4.7,1.6,9.4,3.2,13.9,5.3c2.199,1,4.5,2.2,6.5,3.5
		c1,0.7,2,1.4,2.899,2.3c0.9,0.8,1.7,1.8,2.2,3c-0.5-1.1-1.4-2.1-2.3-2.9c-0.9-0.8-1.9-1.5-3-2.2c-2.101-1.3-4.3-2.3-6.601-3.3
		c-4.5-1.9-9.199-3.4-14-4.8c-4.699-1.4-9.5-2.6-14.3-3.7s-9.6-2.1-14.5-3L392.4,209.5z"/>
</g>
<g>
	<path d="M391.9,203.7c8.3-5.7,16.8-10.9,25.699-15.7c8.801-4.7,17.9-9,27.301-12.5c9.399-3.5,19.1-6.2,29.1-7
		c5-0.4,10.1-0.2,15,0.8c4.9,1.1,9.6,3.1,13.5,6.2c-4-3-8.7-5-13.6-5.9c-4.9-1-9.9-1-14.9-0.6c-9.9,0.9-19.6,3.8-28.8,7.4
		c-9.3,3.6-18.2,8.1-26.9,12.9c-8.7,4.9-17.1,10.2-25.2,16L391.9,203.7z"/>
</g>
<g>
	<path d="M372.4,248.5c3.3-0.1,6.5,0.2,9.699,0.8c3.2,0.6,6.301,1.6,9.2,3.2c2.9,1.6,5.4,3.8,7,6.7c1.601,2.8,2.2,6.1,2.101,9.3
		c-0.101-3.2-0.9-6.4-2.601-9c-1.7-2.7-4.2-4.7-7-6c-2.8-1.4-5.899-2.2-9-2.6c-3.1-0.4-6.3-0.6-9.399-0.3V248.5z"/>
</g>
<g>
	<path d="M355,262.3c-0.8,2.8-1.5,5.8-2,8.7s-0.8,5.9-0.9,8.9c0,3,0.2,6,1.101,8.8c0.5,1.4,1.2,2.7,2.1,3.9c1,1.1,2.3,2,3.7,2.5
		c-1.5-0.4-2.8-1.2-3.9-2.3c-1.1-1.1-1.8-2.5-2.399-3.9c-1.101-2.9-1.5-5.9-1.601-9c-0.1-3,0.101-6.1,0.4-9.1c0.4-3,0.9-6,1.5-9
		L355,262.3z"/>
</g>
<g>
	<path d="M364.3,256.9c5.4,6.6,10.601,13.3,15.601,20.2S389.8,291,394.3,298.2c4.5,7.2,8.8,14.6,12.5,22.2c1.8,3.8,3.5,7.8,4.9,11.8
		c1.399,4,2.5,8.2,2.8,12.4c-0.5-4.2-1.6-8.3-3.1-12.3c-1.4-4-3.2-7.9-5.101-11.6c-3.8-7.6-8.2-14.8-12.899-21.9
		c-4.7-7.1-9.601-14-14.801-20.7c-5.1-6.7-10.399-13.4-16-19.8L364.3,256.9z"/>
</g>
</svg>
