<?xml version="1.0" encoding="utf-8"?>
<!-- Generator: Adobe Illustrator 15.0.0, SVG Export Plug-In . SVG Version: 6.00 Build 0)  -->
<!DOCTYPE svg PUBLIC "-//W3C//DTD SVG 1.1//EN" "http://www.w3.org/Graphics/SVG/1.1/DTD/svg11.dtd">
<svg version="1.1" id="layer_x5F_www.ABC-color.com"
	 xmlns="http://www.w3.org/2000/svg" xmlns:xlink="http://www.w3.org/1999/xlink" x="0px" y="0px" width="567px" height="822px"
	 viewBox="0 0 567 822" enable-background="new 0 0 567 822" xml:space="preserve">
<path id="www.ABC-color.com" fill="#FFFFFF" stroke="#000000" d="M317.5,42.4c-11.5,6.3,2,13.9,2.1,21.7
	c3.4,10.9,3.101,24.7-8.8,32.8c-0.3,3.6-4.5,6.1-7.5,8.5c0.2,0.3,0.5,0.6,0.8,1c2.4,0.3,4.9,1.1,5.801,1.6
	c0.899-0.4,2.399-0.7,4.399-0.6c1.3-0.9,4.8-0.7,6.8-0.4c3.399-1.3,4.399-4.9,8.7-5C353.1,82.1,342.3,44.1,317.5,42.4z"/>
<path fill="#FFFFFF" stroke="#000000" d="M172.2,64.1c-17.8-16.5-40.8-28.7-70.6-6.9C92.1,75,94.7,100.8,121,107
	c1.6-1,2.399-2.5,3.3-3.9c0-0.8-0.1-1.6-0.4-2.1c-11.3-10.4-26-23.2-16.3-37.8c6.8-2.7,12-6.8,19-7.4c40.1-3.2,32.7,68.4,131.1,38.2
	c0.199-0.3,4,1.5,4.199,1.2c-4-2.4-8.399-4.3-12-7l-0.699,0.5c-5.5,1.9-8.101,1.4-14.101,3.4C198.5,104.1,192.2,82.6,172.2,64.1z"/>
<path fill="#FFFFFF" stroke="#000000" d="M261.4,83.7c-28.8-6.3-47-51.3-12.6-55.9C281,23.5,288.4,70.8,261.4,83.7z M274.9,87.6
	l0.1-0.2c43.699-19-11.5-91.9-47.9-65.1c-23.399,17.3-5.7,48.3,21.2,64.4c0.6,0.5,1.1,1,1.8,1.5c3.5,2.7,7.9,4.6,12,7
	c15.2,4.6,33.4,8.3,48.7,1.8c11.899-8.1,12.2-21.9,8.8-32.8c-0.3,0.1-0.5,0.1-0.8,0.2C316.8,80.7,295,95.6,274.9,87.6z"/>
<path fill="#FFFFFF" stroke="#000000" d="M303.199,105.4c-18.499,5.9-51.899,22-56.899,34.1c-10.7,4.9-12,7.9-18.4,23.5
	c-4.3,10.5-13.899,12.6-18.5,27.4c-5.6,3.5-6.899,8.1-6.5,13.5c-3.199,2.3-8.1,4-9.399,7.4c0.5,1.3,2,3,3,4.4
	c-2.2,22.5-6.7,45.1-9.3,67.5c-13.4,16.5-25,33.5-28.2,53c5.2,20.1-8.7,41.4-8.101,62.1c3.7,4.9,3.601,11.5,0,16.4
	c0.7,14.7,2.301,29.398,0.7,44.1c6.2,8.102,6.7,18.602,4.2,27.2c12.1,14.8,1,34,12.7,47.6c-0.7,3.102-1.2,6.102,0.899,8.9
	C181.8,548,173.7,559.2,175,568c5.899,11.5,17.1,21.7,15.3,35c5.3,6.8,11.1,13.9,8.8,22.2c9.9,20.7,17.3,41.5,26.101,62.398
	C243.6,699.9,239.7,722.2,258.7,735c-6.2,17.1,31.3,15,20.3,31.9c13.8,15.899,38.4,34.399,65.6,24.399
	c11.801-10.898,43-10.6,31.9-31.199c7.699-21,16-43.199,25.199-63.399c-0.601-1-1.601-2.3-2.399-3.3c0.8-7.602,5.5-14.602,9.2-21.5
	c-1.801-37.7,10.399-73.9,4.1-110.7c-1.6-0.601-3-1.9-4.1-3.2c6.5-21-0.101-42.8-2.7-63.6c-7.2-7.602-3.3-19.2-2.3-28.302
	c-11.301-39.8-22.4-85.2,0.899-124.2c0.3-1.5-0.801-2.8-1.101-4.2c7.101-5.4,2.601-13.7-0.3-20c6.1-8.6,5-19.6,1.699-28.8
	c2.801-9.6,1.801-18.9-5.3-28.2c0.3-4.1,5-5.5,5.399-10c-8.399-6.7-5.399-14.3-2.899-21.7c-18.2-15.6-5.101-41-19.5-58.6
	c-2-5.9-3.399-11.4-2.601-18.2c-2-1.7-5-0.6-7.3-1.2c-0.5-0.3-1-0.8-1.4-1.2c-1.3-2.8,3.5-4.8,2-7.6c-9.5-4.7-8.8-16.9-20.6-20.7
	c-0.2-6.6-7.9-13-15.4-15.5c-1.1,0.3-2.1,0.5-3.1,0.7c-1.4-1.9-2.601-3.5-4.601-4.8c-4.2,0.1-5.301,3.7-8.7,5
	c-2.101-0.3-5.5-0.5-6.8,0.4c-2-0.2-3.5,0.1-4.399,0.6c-0.9-0.5-3.5-1.3-5.801-1.6C303.699,106.1,303.5,105.8,303.199,105.4z"/>
<path fill="#FFFFFF" stroke="#000000" d="M345.5,489.5c0,0-4,49-49,58c-43.8,8.8-69-51-69-51S289.5,561.5,345.5,489.5z"/>
<path fill="#FFFFFF" stroke="#000000" d="M285.5,384.5c35,31,37,57.6,21,67c-9.102,5.3-11-7-33,1
	C236.1,466.1,285.5,384.5,285.5,384.5z"/>
<path fill="#FFFFFF" stroke="#000000" d="M255.5,379.4c-4,2.6-8.4,4.1-13,4.1c-4.8,0-9.4-1.6-13.5-4.4
	C231.5,372.2,243.4,343.1,255.5,379.4z"/>
<path fill="#FFFFFF" stroke="#000000" d="M267.5,362.5l1.5,0.3c-3.3,7.3-8,13.1-13.5,16.7c-12.101-36.4-24.101-7.3-26.5-0.3
	c-5-3.5-9.4-8.8-12.601-15.4l1.101-0.2C244.5,301.5,267.5,362.5,267.5,362.5z"/>
<path fill="#FFFFFF" stroke="#000000" d="M273.6,325.3c0.601,3.6,0.9,7.3,0.9,11.2c0,9.7-2,18.8-5.5,26.3l-1.5-0.3c0,0-23-61-50,1
	l-1.101,0.2c-3.699-7.7-5.899-17.1-5.899-27.2c0-5.8,0.7-11.4,2-16.5c6.899-3.1,47.2-20.1,60,5.5L273.6,325.3z"/>
<path fill="#FFFFFF" stroke="#000000" d="M374.5,339.5c0,10.7-2.801,20.6-7.5,28.4l-1.5-1.4c-28-66-53-1-53-1l-1.5,0.6
	c-4.101-7.5-6.5-16.7-6.5-26.6c0-3.6,0.3-7.1,0.898-10.5C312.5,325.3,358.8,302.6,374.5,339.5z"/>
<path fill="#FFFFFF" stroke="#000000" d="M365.5,366.5l1.5,1.4c-3,5-6.801,9.2-11.101,12.2l-0.399-0.6c-21-39-30,1-30,1l-1.2,0.5
	c-5.399-3.4-10-8.5-13.399-14.8l1.5-0.6C312.5,365.5,337.5,300.5,365.5,366.5z"/>
<path fill="#FFFFFF" stroke="#000000" d="M339.5,293.5c19.3,0,35,20.6,35,46c-15.7-36.9-62-14.2-69.102-10.5
	C309,308.7,322.9,293.5,339.5,293.5z"/>
<path fill="#FFFFFF" stroke="#000000" d="M355.5,379.5l0.399,0.6c-4.899,3.4-10.5,5.4-16.399,5.4c-5.4,0-10.601-1.6-15.2-4.5
	l1.2-0.5C325.5,380.5,334.5,340.5,355.5,379.5z"/>
<path fill="#FFFFFF" stroke="#000000" d="M273.6,325.3l-1.1,0.2c-12.8-25.5-53-8.6-60-5.5c4.5-17.8,16.3-30.5,30-30.5
	C257.5,289.5,270.2,304.8,273.6,325.3z"/>
<g>
	<path d="M311.199,108.2c-4.601,5-7.899,11.4-9.399,18c-0.8,3.3-1.101,6.8-0.899,10.2c0.101,3.4,0.8,6.8,1.8,10.1
		c0.801,3.4,1.5,6.8,1.7,10.2c0.199,3.5,0,6.9-0.7,10.3c-0.601,3.4-1.601,6.7-2.601,10l-3,9.9c-2,6.6-3.699,13.3-5.199,20
		c-1.601,6.7-3.399,13.4-5.5,20c-2,6.6-4.399,13.1-6.101,19.8c-0.8,3.3-1.4,6.8-1.2,10.2c0.2,3.5,1.2,6.8,2.9,9.9
		c-1.601-3-2.7-6.4-2.9-9.9c-0.2-3.5,0.3-6.9,1.101-10.3c1.6-6.7,4-13.2,6-19.8c2-6.6,3.898-13.3,5.398-20
		c1.5-6.7,3.2-13.4,5.2-20.1l3-9.9c1-3.3,1.899-6.6,2.601-10c0.601-3.4,0.899-6.8,0.601-10.3c-0.2-3.4-0.899-6.8-1.7-10.2
		c-0.9-3.3-1.699-6.7-1.8-10.2c-0.2-3.5,0.101-7,0.899-10.3c0.8-3.4,2-6.7,3.601-9.7c1.6-3.1,3.5-6,5.899-8.6L311.199,108.2z"/>
</g>
<g>
	<path d="M320.699,107.4c-0.399-0.2-1-0.2-1.3,0.1c-0.399,0.4-0.601,1-0.7,1.7c-0.3,1.3-0.3,2.7-0.199,4.1c0.1,2.8,0.5,5.5,1,8.3
		c1,5.5,2.399,10.9,3.899,16.3l-0.101-0.1c1.399,1.8,2.399,3.8,3.3,5.8c0.899,2,1.7,4.1,2.399,6.2c1.301,4.2,2.2,8.6,2.801,12.9
		c1,8.8,0.699,17.7-0.601,26.4l0,0l0,0c-2.399,9.2-4.8,18.5-7,27.8c-1.101,4.7-2.2,9.3-3.2,14c-0.5,2.3-1,4.7-1.399,7
		c-0.2,1.2-0.399,2.4-0.5,3.5c-0.101,1.2-0.3,2.4-0.2,3.6c-0.1-1.2,0-2.4,0.101-3.6c0.101-1.2,0.301-2.4,0.5-3.5
		c0.399-2.4,0.801-4.7,1.301-7c1-4.7,2-9.4,3.101-14c2.1-9.3,4.399-18.6,6.8-27.9l0,0c1.2-8.7,1.5-17.5,0.399-26.2
		c-0.601-4.3-1.5-8.6-2.8-12.8c-0.7-2.1-1.5-4.1-2.399-6.1c-0.9-2-2-3.9-3.301-5.6l-0.101-0.1v-0.1c-1.5-5.4-2.899-10.8-4-16.4
		c-0.5-2.8-1-5.6-1.101-8.4c-0.1-1.4-0.1-2.9,0.2-4.3c0.2-0.7,0.399-1.5,1-2.1c0.3-0.3,0.8-0.6,1.2-0.6c0.5,0,0.899,0.1,1.3,0.3
		L320.699,107.4z"/>
</g>
<g>
	<path d="M336.4,106.2c-2.2,4.1-3.601,8.7-3.801,13.3c-0.3,4.6,0.801,9.4,3.4,13.3c1.3,2,2.899,3.7,4.6,5.2
		c1.801,1.6,3.601,3.1,5.301,4.8c3.399,3.2,6.8,6.8,8.8,11.2s2.601,9.2,3,13.9c0.2,2.4,0.3,4.7,0.399,7.1
		c0.101,2.4,0.101,4.7-0.101,7.1c-0.399,4.7-1.5,9.4-3.5,13.7c-2,4.3-4.8,8.3-8.6,11.2c3.699-2.9,6.5-7,8.399-11.2
		c1.899-4.3,3-9,3.3-13.7c0.2-2.4,0.101-4.7,0-7.1s-0.3-4.7-0.5-7.1c-0.399-4.7-1.101-9.4-3.101-13.7c-2-4.3-5.3-7.7-8.8-10.9
		c-1.7-1.6-3.5-3.2-5.3-4.7c-1.801-1.5-3.5-3.3-4.801-5.3c-2.699-4-3.899-9-3.601-13.7c0.301-4.8,1.601-9.5,3.899-13.8L336.4,106.2z
		"/>
</g>
<g>
	<path d="M306.3,107.4c-4.3,3.4-8.399,7-12.3,10.8c-3.9,3.8-7.7,7.8-11.2,12c-3.5,4.2-6.7,8.7-9.3,13.4c-2.601,4.8-4.7,9.9-5.2,15.3
		v-0.1c1.2,4.2,1.3,8.5,1,12.8c-0.3,4.3-1.2,8.5-2.5,12.6c-2.6,8.2-6.7,15.8-11.7,22.8l0,0l0,0c-3.6,2-6.899,4.7-9.7,7.7
		c-2.8,3.1-5.1,6.7-6.5,10.6c-1.5,3.9-2.199,8.1-2,12.3c0.101,4.2,0.9,8.3,2.2,12.3c-1.3-4-2.2-8.1-2.3-12.3
		c-0.1-4.2,0.5-8.4,2-12.3c1.5-3.9,3.7-7.5,6.5-10.7c2.8-3.1,6.1-5.8,9.8-7.9H255c4.899-7,9-14.6,11.5-22.7
		c1.2-4.1,2.1-8.3,2.399-12.5c0.101-2.1,0.2-4.2,0-6.4c-0.199-2.1-0.5-4.2-1.1-6.2v-0.1v-0.1c0.5-5.6,2.6-10.8,5.2-15.6
		c2.6-4.8,5.899-9.3,9.3-13.6c3.5-4.3,7.2-8.3,11.2-12.1c3.899-3.8,8-7.5,12.3-11L306.3,107.4z"/>
</g>
<g>
	<path d="M310,772c3.8,0,7.6,0.2,11.399,0.4c3.8,0.3,7.601,0.698,11.3,1.1c3.8,0.5,7.5,1.1,11.2,1.8c1.899,0.4,3.699,0.8,5.601,1.2
		c1.8,0.5,3.699,0.9,5.5,1.5c-1.9-0.3-3.7-0.7-5.601-1c-1.899-0.3-3.7-0.6-5.601-0.9c-3.7-0.6-7.5-1.1-11.2-1.6
		c-3.699-0.5-7.5-0.9-11.3-1.3l-5.601-0.602L310,772z"/>
</g>
<g>
	<path d="M330,773.6c2.899-3,5.6-6.198,8.199-9.5c2.601-3.3,5-6.698,7.301-10.198c4.6-7,8.699-14.4,12.3-22
		c7.2-15.2,12.3-31.4,15.2-47.9c-2.801,16.6-7.7,32.8-14.801,48.1c-3.5,7.7-7.601,15.102-12.101,22.2c-2.3,3.5-4.699,7-7.199,10.4
		c-2.601,3.398-5.2,6.6-8.2,9.7L330,773.6z"/>
</g>
<g>
	<path d="M328.6,773.7c2.4-4,4.4-8.3,6-12.7c1.601-4.4,2.801-9,3.4-13.7s0.6-9.398-0.2-14.1c-0.8-4.602-2.5-9.102-5-13.2l0,0l0,0
		c-3.2-7.2-5.7-14.7-7.7-22.3c-1.899-7.602-3.3-15.4-3.8-23.3c-0.5-7.802-0.2-15.802,1.3-23.5c1.5-7.7,4.2-15.2,8.2-22
		c-4,6.8-6.7,14.3-8.2,22c-1.5,7.698-1.8,15.6-1.3,23.5c0.5,7.8,1.899,15.6,3.8,23.198c2,7.602,4.5,15.102,7.7,22.2l0,0
		c2.601,4,4.3,8.5,5.2,13.2c0.899,4.7,0.899,9.5,0.399,14.2c-0.601,4.7-1.7,9.399-3.301,13.899c-1.6,4.5-3.5,8.899-6,13L328.6,773.7
		z"/>
</g>
<g>
	<path d="M327.9,773.7c0.3-0.4-0.2,0.6-0.899,0l0,0V773.6v-0.1l-0.101-0.2L326.8,773l-0.2-0.7l-0.399-1.398l-0.899-2.7
		c-0.601-1.8-1.3-3.602-2-5.4c-1.399-3.6-2.899-7.1-4.5-10.6c-3.2-7-6.899-13.8-11.2-20.2c-4.3-6.4-9.101-12.4-14.7-17.8
		C287.3,708.9,281,704.3,274,701c7,3.2,13.398,7.7,19.1,13s10.601,11.3,15,17.7c4.399,6.398,8.2,13.2,11.5,20.1
		c1.7,3.5,3.2,7,4.601,10.602c0.7,1.8,1.399,3.6,2,5.398l0.899,2.7l0.5,1.4l0.2,0.698l0.101,0.302l0.1,0.199v0.102l0,0l0,0
		c-1-0.602-1.2,0.3-0.9,0L327.9,773.7z"/>
</g>
<g>
	<path d="M218,400c1.899,2.3,3.5,4.7,5,7.3c1.399,2.601,2.6,5.3,3.5,8.102c1.8,5.6,2.399,11.698,2,17.6
		c-0.4,5.9-1.7,11.7-3.601,17.3c-0.899,2.8-1.899,5.602-3,8.3c-0.5,1.4-1,2.7-1.5,4.102c-0.199,0.7-0.399,1.398-0.6,2.1
		c-0.1,0.7-0.2,1.5,0.1,2.102c-0.399-0.602-0.3-1.4-0.3-2.2c0.101-0.7,0.3-1.5,0.4-2.2c0.399-1.4,0.8-2.8,1.3-4.2
		c0.9-2.8,1.9-5.6,2.7-8.398c1.7-5.602,3-11.302,3.3-17.2c0.4-5.8-0.1-11.7-1.7-17.3C224.1,410,221.4,404.8,218,400z"/>
</g>
<g>
	<path d="M353,407c-0.801,2.4-1.301,4.9-1.601,7.4c-0.301,2.5-0.5,5-0.5,7.5c-0.101,5,0.3,10.1,1.101,15
		c0.699,5,1.899,9.898,3.199,14.698c0.7,2.4,1.399,4.802,2.2,7.2c0.8,2.4,1.699,4.8,2.5,7.102c-1.101-2.302-2.101-4.602-3-7
		c-0.899-2.4-1.7-4.802-2.5-7.2c-1.5-4.8-2.7-9.8-3.5-14.8c-0.7-5-1.101-10.102-0.899-15.2C350.4,416.8,351.1,411.7,353,407z"/>
</g>
<g>
	<path d="M231,487c0.399,1,0.399,2.1,0.2,3.2c-0.2,1.1-0.601,2.1-1,3c-1,1.898-2.5,3.5-4.101,4.898c-1.6,1.4-3.399,2.5-5.3,3.5
		c-0.9,0.5-1.9,0.9-2.9,1.302c-1,0.398-2,0.8-3,1.1c0.9-0.5,1.801-1,2.7-1.5c0.9-0.5,1.8-1,2.7-1.6c1.8-1.102,3.5-2.2,5-3.602
		c1.6-1.3,3-2.8,4-4.5c0.5-0.898,1-1.8,1.2-2.8C231,489.1,231.2,488,231,487z"/>
</g>
<g>
	<path d="M342,482c0.5,1.6,1.1,3.2,1.699,4.7c0.601,1.5,1.301,3.1,2.101,4.5c1.601,2.898,3.5,5.6,6.2,7.7
		c-1.5-0.7-2.9-1.802-4.101-3.102c-1.201-1.3-2.2-2.7-3-4.2C343.3,488.7,342.3,485.4,342,482z"/>
</g>
<g>
	<path d="M264,529c2.3,1.5,4.7,2.7,7.1,3.7c2.5,1,5,1.8,7.601,2.398c5.199,1.102,10.6,1.4,15.8,0.4c5.199-0.9,10.3-2.9,14.8-5.6
		c2.3-1.4,4.5-2.9,6.601-4.602c2.101-1.699,4.101-3.5,6-5.398c-3.5,4.1-7.601,7.699-12.2,10.6s-9.7,5-15.1,5.9
		c-5.399,0.898-10.899,0.699-16.201-0.7C273.3,534.5,268.3,532.3,264,529z"/>
</g>
<g>
	<path d="M278,476c0.899,2,1.5,4.1,2,6.2c0.5,2.1,0.8,4.3,0.899,6.5c0.101,2.2,0,4.398-0.6,6.6c-0.3,1.102-0.7,2.102-1.2,3.102
		c-0.6,1-1.2,1.898-2.1,2.6c1.399-1.7,2.1-3.7,2.5-5.8c0.399-2.102,0.399-4.2,0.3-6.4c-0.101-2.1-0.3-4.3-0.7-6.398
		c-0.2-1.102-0.3-2.102-0.6-3.2C278.5,478.1,278.2,477.1,278,476z"/>
</g>
<g>
	<path d="M297,474c-0.4,1.8-0.7,3.6-0.9,5.4c-0.199,1.8-0.3,3.6-0.3,5.398c0.101,3.602,0.9,7.2,3.2,10.102
		c-1.4-1.2-2.5-2.802-3.2-4.602s-1-3.7-1-5.5c0-1.898,0.101-3.8,0.5-5.6C295.7,477.5,296.2,475.7,297,474z"/>
</g>
<g>
	<path d="M289,411c0.7,3.5,0.8,7,0.6,10.6c-0.199,3.5-0.699,7-1.6,10.4c0.1-3.5,0.398-7,0.6-10.5c0.102-1.7,0.2-3.5,0.301-5.2
		C288.9,414.5,289,412.8,289,411z"/>
</g>
<g>
	<path d="M385,539c-1.4,1.8-2.601,3.6-3.801,5.5c-1.199,1.9-2.3,3.8-3.399,5.8c-2.101,3.9-4.101,7.9-5.899,11.9
		c-1.899,4-3.601,8.2-5.2,12.3c-0.8,2.1-1.601,4.1-2.399,6.2c-0.8,2.1-1.5,4.2-2.3,6.3c0.6-2.2,1.199-4.3,1.899-6.4
		c0.699-2.1,1.399-4.198,2.101-6.398c1.5-4.2,3.199-8.3,5-12.4c1.899-4.1,3.899-8.1,6.199-11.899C379.5,546,381.9,542.3,385,539z"/>
</g>
<g>
	<path d="M189,291c-0.5,1.4-0.8,2.9-1.101,4.4l-1,4.5c-0.6,3-1.3,5.9-2,8.9c-0.699,3-1.399,5.9-2.199,8.9l-1.2,4.4l-0.7,2.2
		c-0.1,0.4-0.2,0.7-0.4,1.1c-0.1,0.2-0.1,0.4-0.199,0.5c0,0.1-0.101,0.2-0.101,0.3l-0.1,0.1v-0.1v0.1c0,0,0.1,0,0.1-0.1
		c0-0.1,0.101-0.2,0.101-0.3c0.1-0.2,0.1-0.4,0.199-0.5l0.301-1.1l0.5-2.2l0.899-4.5c0.601-3,1.3-5.9,1.9-8.9
		c0.7-3,1.399-5.9,2.2-8.9C187,296.8,187.7,293.8,189,291z"/>
</g>
<g>
	<path d="M170,375c1,1.8,1.8,3.7,2.2,5.8c0.399,2,0.5,4.1,0.3,6.2s-0.601,4.1-0.9,6.1c-0.299,2-0.399,4,0.4,5.9
		c-1.101-1.8-1.3-4-1.2-6c0.1-2.1,0.5-4.1,0.6-6.1c0.2-2,0.2-4-0.1-6C171.2,378.9,170.7,376.9,170,375z"/>
</g>
<g>
	<path d="M172,469c0.6,1.7,1.1,3.4,1.7,5l1.6,5.1c1,3.4,2,6.802,2.7,10.302s1.3,7,1.3,10.6c0,1.8-0.1,3.6-0.6,5.4
		c-0.5,1.698-1.301,3.5-2.801,4.5c1.301-1.302,2-2.9,2.301-4.602c0.3-1.7,0.399-3.5,0.3-5.2c-0.2-3.5-0.8-7-1.5-10.5
		s-1.601-6.898-2.5-10.3C173.7,475.9,172.8,472.5,172,469z"/>
</g>
<g>
	<path d="M192,562c0.6,4.1,1.1,8.1,1.8,12.1c0.3,2,0.7,4,1.3,5.9c0.3,1,0.601,1.9,1,2.8c0.4,0.9,1,1.8,2,2.2
		c-0.5-0.1-1-0.3-1.399-0.7c-0.4-0.398-0.7-0.8-1-1.2c-0.601-0.898-1-1.898-1.301-2.8c-0.699-2-1.1-4-1.5-6
		C192.1,570.2,191.8,566.1,192,562z"/>
</g>
<path fill="none" stroke="#000000" d="M216,616c0,12,7,22,4,30"/>
<path fill="none" stroke="#000000" d="M242,677c3,4,16,19,20,19"/>
<g>
	<path d="M180,423c-0.5,1.5-0.8,3.1-1.101,4.7c-0.3,1.6-0.399,3.2-0.5,4.7C178.2,435.6,178.5,438.8,179,442
		c-1.2-3-1.7-6.3-1.601-9.6c0.101-1.602,0.301-3.302,0.7-4.9C178.6,425.9,179.1,424.4,180,423z"/>
</g>
<g>
	<path d="M162,434c0.7,2.2,1.1,4.4,1.399,6.7c0.301,2.3,0.4,4.5,0.4,6.8s-0.2,4.6-0.5,6.8c-0.3,2.3-0.7,4.5-1.3,6.7
		c0.1-1.1,0.2-2.3,0.3-3.4c0.1-1.1,0.2-2.3,0.3-3.398c0.101-2.3,0.2-4.5,0.3-6.7c0-2.2,0-4.5-0.199-6.7
		c-0.101-1.1-0.101-2.2-0.301-3.398C162.3,436.2,162.2,435.1,162,434z"/>
</g>
<g>
	<path d="M386,615c1.199,1.8,1.899,3.9,2.399,6s0.699,4.3,0.699,6.4c0,2.198-0.199,4.3-0.5,6.398
		c-0.199,1.102-0.399,2.102-0.6,3.102c-0.301,1-0.5,2.1-0.9,3.1c0.101-1.1,0.301-2.1,0.4-3.2c0.1-1,0.3-2.1,0.399-3.2
		c0.199-2.1,0.3-4.198,0.3-6.3c0-2.1-0.2-4.2-0.399-6.3c-0.101-1-0.3-2.1-0.601-3.1C386.699,617,386.4,616,386,615z"/>
</g>
<path fill="none" stroke="#000000" d="M356,643c0,9-17,16-14,28"/>
<path fill="none" stroke="#000000" d="M287,608c0,0,13,23,10,36"/>
<g>
	<path d="M177,336c-0.9,3.5-2,7-3,10.4c-0.5,1.7-0.9,3.5-1.3,5.2c-0.4,1.8-0.7,3.5-0.7,5.3c-0.5-1.8-0.3-3.7-0.101-5.5
		c0.2-1.8,0.7-3.6,1.101-5.4C174,342.7,175.3,339.2,177,336z"/>
</g>
<g>
	<path d="M395,515c0.6,4,0.6,8.2,0.199,12.2c-0.199,2-0.5,4.1-1,6.1S393,537.2,392,539c0.6-1.9,1.1-3.9,1.399-5.9
		c0.299-2,0.601-4,0.8-6c0.2-2,0.3-4,0.5-6C394.8,519.1,394.9,517,395,515z"/>
</g>
<g>
	<path d="M390,581c1.8,2.6,3,5.6,3.8,8.7c0.3,1.6,0.5,3.2,0.5,4.8c-0.101,1.6-0.399,3.2-1.2,4.6c0.399-1.5,0.5-3.1,0.399-4.6
		c-0.1-1.5-0.3-3-0.699-4.5c-0.301-1.5-0.801-3-1.2-4.5C391.1,583.9,390.6,582.5,390,581z"/>
</g>
<g>
	<path d="M392,244c-0.801,1.8-1.5,3.6-2.2,5.4c-0.7,1.8-1.3,3.6-1.8,5.4c-0.5,1.8-1,3.7-1.2,5.6s-0.3,3.8,0.2,5.7
		c-0.9-1.8-1.101-3.8-1-5.7c0.1-2,0.5-3.9,1-5.8C388.199,250.8,389.8,247.2,392,244z"/>
</g>
<g>
	<path d="M384,286c2.399,1.7,4.399,4,5.899,6.5c0.699,1.3,1.399,2.7,1.699,4.1c0.4,1.4,0.5,2.9,0.301,4.4c-0.399-2.9-1.5-5.5-3-8
		c-0.7-1.2-1.5-2.4-2.399-3.6C385.8,288.3,384.9,287.1,384,286z"/>
</g>
<path fill="none" stroke="#000000" d="M247,586c0,0-6-20-13-27"/>
<path fill="none" stroke="#000000" d="M261,83c0,0,12,6,15,5"/>
<g>
	<path d="M338.5,786.5c-1.301-0.6-2.4-1.4-3.4-2.4c-1-0.898-2-2-2.8-3.1c-0.8-1.2-1.5-2.4-2-3.8c-0.2-0.7-0.399-1.4-0.5-2.102
		c0-0.698,0-1.398,0.101-2.1h0.1c0,1.4,0.399,2.7,0.899,3.9c0.5,1.199,1.3,2.398,2.101,3.5C334.6,782.7,336.5,784.7,338.5,786.5
		L338.5,786.5z"/>
</g>
<g>
	<path d="M319,785.5c0.899-1,1.8-1.9,2.6-2.8c0.9-0.9,1.7-1.8,2.5-2.8c0.801-0.9,1.5-1.9,2.101-2.9c0.301-0.5,0.601-1.1,0.801-1.6
		c0.3-0.602,0.399-1.2,0.5-1.802h0.1c0.101,1.302-0.199,2.602-0.699,3.802c-0.5,1.198-1.2,2.3-2,3.3
		C323.199,782.5,321.199,784.2,319,785.5L319,785.5z"/>
</g>
</svg>
