<?xml version="1.0" encoding="utf-8"?>
<!-- Generator: Adobe Illustrator 15.0.0, SVG Export Plug-In . SVG Version: 6.00 Build 0)  -->
<!DOCTYPE svg PUBLIC "-//W3C//DTD SVG 1.1//EN" "http://www.w3.org/Graphics/SVG/1.1/DTD/svg11.dtd">
<svg version="1.1" id="layer_x5F_www.ABC-color.com"
	 xmlns="http://www.w3.org/2000/svg" xmlns:xlink="http://www.w3.org/1999/xlink" x="0px" y="0px" width="567px" height="822px"
	 viewBox="0 0 567 822" enable-background="new 0 0 567 822" xml:space="preserve">
<path fill="#FFFFFF" stroke="#000000" stroke-miterlimit="10" d="M385.199,526.4C415.6,517.1,440,523.2,440,523.2
	c11.899,4.3,2.6,7,2.6,7c-11,3.898-20.699,6.3-29.1,7.7c-25.601,4.3-39-0.802-41.601-2l0,0c-0.301-0.102-0.5-0.2-0.5-0.2
	c-28.301-16.2,18-38.3,18-38.3s11.5-5.102,10.3,5.398C399.699,502.8,373.199,515,385.199,526.4z M405.3,533.7
	c33.899-2.102,16.601-7.602,16.601-7.602C399,524.6,395,530.4,394.6,531.3l-0.5-0.1l0.4,0.2c0,0,0,0,0.1-0.102L405.3,533.7z"/>
<path fill="#FFFFFF" stroke="#000000" stroke-miterlimit="10" d="M428.4,379.6c0,12.5,6.101,22.7,13.699,22.7
	c7.6,0,13.7-10.2,13.7-22.7c0-3.1-0.399-6-1-8.7c-2-8.2-7-14-12.7-14c-6.199,0-11.5,6.8-13.199,16.2
	C428.6,375.2,428.4,377.4,428.4,379.6z M411.5,308.7c37.1,0,68.699,22.9,81.199,55.2H493c-0.5,37.3-6.5,65.9-6.5,65.9
	c-1.4,3.602-2.301,7.7-2.7,12c-15.601,23-42.101,38.102-72.2,38.102c-40.699,0-73.5-23.4-82.8-60.7l0,0c5.7-23.5,7.8-46,7.399-67.2
	C350.9,326.1,379.1,308.7,411.5,308.7z M386.5,420.7c0,0-0.301,13.398,14.699,3.5c8.7-5.7,11.399-27.7,6.7-39.7
	c-4.301-11.1-6.7-16.3-6.7-16.3S408,396.6,386.5,420.7z M371.5,405.9c7.6,0,13.699-10.2,13.699-22.7c0-4.2-0.699-8-1.899-11.4
	c-2.399-6.8-6.8-11.3-11.899-11.3c-4.899,0-9.101,4.2-11.601,10.5c-1.399,3.5-2.2,7.7-2.2,12.2C357.8,395.7,363.9,405.9,371.5,405.9
	z"/>
<path fill="#FFFFFF" stroke="#000000" stroke-miterlimit="10" d="M441.1,394.9c3.101,0,5.7-3.3,5.7-7.4s-2.5-7.4-5.7-7.4
	c-3.199,0-5.699,3.3-5.699,7.4C435.4,391.5,437.9,394.9,441.1,394.9z M429.4,373.2c0,0,19.399,8.5,24.8-2.1l0.601-0.1
	c0.7,2.7,1,5.6,1,8.7c0,12.5-6.101,22.7-13.7,22.7c-7.601,0-13.699-10.2-13.699-22.7c0-2.3,0.199-4.4,0.6-6.5H429.4z"/>
<path fill="#FFFFFF" stroke="#000000" stroke-miterlimit="10" d="M428.9,373.1c1.699-9.4,6.899-16.2,13.199-16.2
	c5.7,0,10.601,5.8,12.7,14l-0.601,0.1c-5.399,10.6-24.8,2.1-24.8,2.1H428.9z"/>
<path fill="#FFFFFF" stroke="#000000" stroke-miterlimit="10" d="M435.4,387.4c0-4.1,2.5-7.4,5.699-7.4c3.101,0,5.7,3.3,5.7,7.4
	s-2.5,7.4-5.7,7.4C437.9,394.9,435.4,391.5,435.4,387.4z"/>
<path fill="#FFFFFF" stroke="#000000" stroke-miterlimit="10" d="M446.8,590.6c0,0-20.7-22-44.8,7.802c0,0,4-19.2,17.399-24.102
	C432.699,569.3,440.1,570.7,446.8,590.6z"/>
<path fill="#FFFFFF" stroke="#000000" stroke-miterlimit="10" d="M367.8,206c0,5.8,1.601,11.1,4.101,15c2.8,4.3,6.8,7,11.199,7
	c8.5,0,15.301-9.8,15.301-22s-6.899-22-15.301-22c-0.6,0-1.199,0-1.899,0.2l1.899-18.5l-8.6,13l-8.4-11.8l2.4,17.4l-17.101-5.2
	l19.101,14.5C368.8,197.1,367.8,201.4,367.8,206z M358.199,141.8c1.5,0,3,0.1,4.5,0.2l0.301-0.6c24.399,14.3,45.699,31.5,63.5,50.2
	l-0.5,0.5c3.8,10.2,6.5,22.9,6.5,34.7c0,46.9-33.301,85-74.301,85c-9.699,0-18.899-2.1-27.399-6c-8.899-43.3-27.3-78.8-43.7-103.6
	C297.3,169.2,325.8,141.8,358.199,141.8z M354.8,226.8c0,0-19.3,28.1-4.5,34.2s21.601-3.7,21.601-3.7S355.9,241.4,354.8,226.8z
	 M314,227.6c1.5,3.4,3.699,6.2,6.3,8c2,1.4,4.3,2.2,6.601,2.2c8.5,0,15.3-9.9,15.3-22c0-11.5-6.101-20.9-13.899-21.9l-0.7-18.1
	l-7,9.4l-9.101-7.3l1.301,14.9l-15.4-2.8l18.2,10.9c-2.101,3.2-3.5,7.3-3.899,11.8c-0.101,1-0.2,2.1-0.2,3.2
	C311.6,220.1,312.5,224.2,314,227.6z"/>
<path fill="#FFFFFF" stroke="#000000" stroke-miterlimit="10" d="M425.3,615.4c1.899,0,3.399-1.602,3.399-3.602
	c0-1.898-1.5-3.5-3.399-3.5c-1.8,0-3.3,1.602-3.3,3.5C422,613.8,423.5,615.4,425.3,615.4z M425.3,602.6c5.601,0,10,4.802,10,10.602
	c0,3-1.2,5.7-3,7.6c-4.101-1.3-9.2-2-14.5-0.5c-1.601-1.899-2.601-4.399-2.601-7.1C415.3,607.4,419.8,602.6,425.3,602.6z"/>
<path fill="#FFFFFF" stroke="#000000" stroke-miterlimit="10" d="M425.3,608.3c1.899,0,3.399,1.602,3.399,3.5
	c0,2-1.5,3.602-3.399,3.602c-1.8,0-3.3-1.602-3.3-3.602C422,609.9,423.5,608.3,425.3,608.3z"/>
<path fill="#FFFFFF" stroke="#000000" stroke-miterlimit="10" d="M417.9,620.3c-3.301,0.9-6.7,2.7-9.899,5.7c0,0,3.3-32.6,18.1-31.2
	c0,0,18.101,3.5,15.4,30.5c0,0-3.7-2.7-9.101-4.398c1.899-1.9,3-4.602,3-7.602c0-5.898-4.5-10.6-10-10.6s-10,4.8-10,10.6
	C415.3,616,416.3,618.5,417.9,620.3z"/>
<path fill="#FFFFFF" stroke="#000000" stroke-miterlimit="10" d="M421.9,526c0,0,17.3,5.6-16.601,7.6l-10.8-2.5
	C395,530.3,399,524.5,421.9,526z"/>
<path fill="#FFFFFF" stroke="#000000" stroke-miterlimit="10" d="M408,384.6c4.699,12,2,34-6.7,39.7c-15,9.8-14.7-3.5-14.7-3.5
	c21.399-24.1,14.7-52.5,14.7-52.5S403.6,373.4,408,384.6z"/>
<path fill="#FFFFFF" stroke="#000000" stroke-miterlimit="10" d="M324.9,630c14.8-7.5,19.5,9.5,19.5,9.5s-23.101-17.8-19.5,8.6
	c1.399,10.5,14.101,22.602,36.899,18.4c0,0,5.2-4.7,12.5-6.1l0,0c2.101-0.4,4.5-0.602,6.899-0.302c0,0,4.5,4,10.101,0
	c1.8-0.198,3.601-0.198,5.2,0c8.199,1,14.199,6.4,14.199,6.4c22.801,4.3,35.5-7.9,36.899-18.4c3.601-26.398-19.5-8.6-19.5-8.6
	s4.7-16.9,19.5-9.5c0,0,16.2,13.4-5.5,36.4c0,0-15.199,11.898-37.199,9.6c-4.899-0.5-10.301-1.8-15.801-4c-1.5-1.9-5.8,0-5.8,0
	c-4.399,1.8-8.601,2.9-12.601,3.6c-23.601,3.9-40.3-9.198-40.3-9.198C308.699,643.4,324.9,630,324.9,630z"/>
<path fill="#FFFFFF" stroke="#000000" stroke-miterlimit="10" d="M371.9,535.9c2.601,1.1,16,6.3,41.601,2
	c9.8,0,26.899,2.5,28.1,5.198c1.2,2.802,0.5,3.802-4.5,6.5c-4.899,2.802-7.699,1.4-7.699,1.4c12.101-8.2-21.899-6.7-21.899-6.7
	C382,543.2,373.9,537.8,371.9,535.9z"/>
<path fill="#FFFFFF" stroke="#000000" stroke-miterlimit="10" d="M383.1,184c8.5,0,15.301,9.9,15.301,22c0,12.2-6.899,22-15.301,22
	c5.7-29.3-12.5-34.2-12.5-34.2l-0.199-0.1c2.399-5.1,6.3-8.7,10.8-9.5C381.9,184,382.5,184,383.1,184z"/>
<path fill="#FFFFFF" stroke="#000000" stroke-miterlimit="10" d="M394.1,531.1l0.5,0.102c0,0.1-0.1,0.1-0.1,0.1L394.1,531.1z"/>
<path fill="#FFFFFF" stroke="#000000" stroke-miterlimit="10" d="M404.9,676c-21.101,18.6-34.101,0-34.101,0l-0.101-0.4
	c4-0.698,8.2-1.8,12.601-3.6c0,0,4.3-1.9,5.8,0C394.699,674.3,400,675.5,404.9,676z"/>
<path fill="#FFFFFF" stroke="#000000" stroke-miterlimit="10" d="M381.199,660.1c-2.399-0.3-4.8-0.198-6.899,0.302l0,0
	c-0.601-2.9-0.899-6.102-0.899-9.5c0-13.5,5.399-24.5,12-24.5s12,11,12,24.5c0,3.3-0.301,6.398-0.899,9.3c-1.7-0.2-3.4-0.2-5.2,0
	C385.699,664,381.199,660.1,381.199,660.1z"/>
<path fill="#FFFFFF" stroke="#000000" stroke-miterlimit="10" d="M365.5,390.3c0,4.1,2.5,7.5,5.699,7.5c3.101,0,5.7-3.3,5.7-7.5
	c0-4.1-2.5-7.4-5.7-7.4C368,382.8,365.5,386.1,365.5,390.3z M371.5,405.9c-7.601,0-13.7-10.2-13.7-22.7c0-4.5,0.8-8.7,2.2-12.2
	c3.1,2.1,14.699,8.8,23.3,0.8h0.101c1.199,3.4,1.899,7.2,1.899,11.4C385.199,395.7,379.1,405.9,371.5,405.9z"/>
<path fill="#FFFFFF" stroke="#000000" stroke-miterlimit="10" d="M371.199,397.7c-3.101,0-5.699-3.3-5.699-7.5
	c0-4.1,2.5-7.4,5.699-7.4c3.101,0,5.7,3.3,5.7,7.4C376.8,394.4,374.3,397.7,371.199,397.7z"/>
<path fill="#FFFFFF" stroke="#000000" stroke-miterlimit="10" d="M359.9,371c2.399-6.3,6.699-10.5,11.601-10.5
	c5.1,0,9.5,4.5,11.899,11.3H383.3C374.6,379.7,363,373,359.9,371z"/>
<path fill="#FFFFFF" stroke="#000000" stroke-miterlimit="10" d="M370.4,193.6L351.3,179.1l17.101,5.2l-2.4-17.4l8.399,11.8
	l8.601-13l-1.9,18.5C376.8,184.9,372.9,188.5,370.4,193.6z"/>
<path fill="#FFFFFF" stroke="#000000" stroke-miterlimit="10" d="M370.6,193.7c0,0,18.2,4.9,12.5,34.2c-4.399,0-8.399-2.7-11.199-7
	c6-16-4.101-15-4.101-15c0-4.6,1-8.8,2.7-12.4L370.6,193.7z"/>
<path fill="#FFFFFF" stroke="#000000" stroke-miterlimit="10" d="M371.9,221c-2.5-3.9-4.101-9.2-4.101-15
	C367.8,206,377.9,205,371.9,221z"/>
<path fill="#FFFFFF" stroke="#000000" stroke-miterlimit="10" d="M371.8,257.3c0,0-6.8,9.8-21.601,3.7c-14.8-6.1,4.5-34.2,4.5-34.2
	C355.9,241.4,371.8,257.3,371.8,257.3z"/>
<path fill="#FFFFFF" stroke="#000000" stroke-miterlimit="10" d="M340.4,607.6c0,2,1.5,3.602,3.3,3.602c1.899,0,3.3-1.602,3.3-3.602
	s-1.5-3.5-3.3-3.5C341.9,604,340.4,605.6,340.4,607.6z M336.699,616.6c-1.899-1.898-3-4.6-3-7.6c0-5.9,4.5-10.6,10-10.6
	s10,4.8,10,10.6c0,2.7-1,5.2-2.601,7.1C345.9,614.6,340.8,615.3,336.699,616.6z"/>
<path fill="#FFFFFF" stroke="#000000" stroke-miterlimit="10" d="M343.699,611.2c-1.8,0-3.3-1.602-3.3-3.602s1.5-3.5,3.3-3.5
	c1.899,0,3.301,1.602,3.301,3.5C347,609.5,345.6,611.2,343.699,611.2z"/>
<path fill="#FFFFFF" stroke="#000000" stroke-miterlimit="10" d="M401.9,598.4c24.101-29.802,44.8-7.802,44.8-7.802
	c-6.7-19.898-14-21.3-27.399-16.3C406,579.2,401.9,598.4,401.9,598.4z M408,626c3.3-3,6.6-4.8,9.899-5.7
	c5.3-1.5,10.399-0.8,14.5,0.5c5.399,1.7,9.101,4.4,9.101,4.4c2.699-26.9-15.4-30.5-15.4-30.5C411.3,593.4,408,626,408,626z
	 M395.6,482.9c54.801,0,99.301,55,99.301,122.898c0,67.9-44.5,122.9-99.301,122.9c-54.899,0-99.3-55-99.3-122.9
	C296.3,537.9,340.8,482.9,395.6,482.9z M371.9,535.9c2,1.8,10.101,7.3,35.699,8.398c0,0,34-1.5,21.9,6.7c0,0,2.8,1.4,7.699-1.4
	c4.899-2.8,5.7-3.8,4.5-6.5c-1.199-2.698-18.3-5.198-28.101-5.198c8.4-1.4,18.101-3.802,29.101-7.7c0,0,9.301-2.8-2.601-7
	c0,0-24.399-6.102-54.8,3.2C373.4,515,399.9,502.8,399.9,502.8c1.199-10.5-10.301-5.398-10.301-5.398s-46.3,22.198-18,38.3
	C371.4,535.7,371.6,535.8,371.9,535.9L371.9,535.9z M322.3,586.3c0,0,20.7-22,44.8,7.8c0,0-4-19.1-17.399-24.1
	C336.4,565,329,566.5,322.3,586.3z M327.699,621.1c0,0,3.601-2.698,9-4.398c4.101-1.3,9.2-2,14.5-0.5c3.301,0.898,6.7,2.7,9.899,5.7
	c0,0-3.399-32.602-18.1-31.2C343,590.6,325,594.1,327.699,621.1z M330.4,666.4c0,0,16.699,13,40.3,9.198l0.101,0.4
	c0,0,13,18.6,34.101,0c22,2.3,37.199-9.6,37.199-9.6c21.801-23.102,5.5-36.4,5.5-36.4c-14.8-7.5-19.5,9.5-19.5,9.5
	s23.101-17.8,19.5,8.6c-1.399,10.5-14.1,22.602-36.899,18.4c0,0-6-5.4-14.199-6.4c0.6-2.898,0.899-6,0.899-9.3
	c0-13.5-5.399-24.5-12-24.5c-6.7,0-12,11-12,24.5c0,3.4,0.3,6.602,0.899,9.5l0,0l0,0c-7.3,1.5-12.5,6.102-12.5,6.102
	c-22.8,4.3-35.5-7.9-36.899-18.4c-3.601-26.4,19.5-8.6,19.5-8.6s-4.7-16.9-19.5-9.5C324.9,630,308.699,643.4,330.4,666.4z"/>
<path fill="#FFFFFF" stroke="#000000" stroke-miterlimit="10" d="M330.8,305.8c8.5,3.9,17.7,6,27.399,6
	c41.101,0,74.301-38,74.301-85c0-11.8-2.7-24.5-6.5-34.7l0.5-0.5c22.1,23.1,38.899,48.5,49.6,73.1c13.801,31.5,17.2,68.3,16.7,99.2
	h-0.3c-12.4-32.3-44.101-55.2-81.2-55.2c-32.399,0-60.601,17.4-75.5,43.3C335.6,335.8,333.699,320.3,330.8,305.8z"/>
<path fill="#FFFFFF" stroke="#000000" stroke-miterlimit="10" d="M327.5,423.6c0.399-1.5,0.8-3,1.1-4.5l0,0
	c9.4,37.302,42.101,60.7,82.801,60.7c30.101,0,56.601-15.1,72.199-38.1c-3.199,33.898,20.9,85.8,20.9,85.8
	c18.199,28.1,15.899,83.1,15.899,83.1C438.699,861.2,307,692.5,307,692.5C265.1,624.1,327.5,423.6,327.5,423.6z M296.3,605.8
	c0,67.9,44.5,122.9,99.3,122.9c54.801,0,99.301-55,99.301-122.9c0-67.898-44.5-122.898-99.301-122.898
	C340.8,482.901,296.3,537.9,296.3,605.8z"/>
<path fill="#FFFFFF" stroke="#000000" stroke-miterlimit="10" d="M327.699,175.8l0.7,18.1c-0.5-0.1-0.899-0.1-1.399-0.1
	c-4.5,0-8.5,2.7-11.2,7.1L297.6,190l15.4,2.8l-1.301-14.9l9.101,7.3L327.699,175.8z"/>
<path fill="#FFFFFF" stroke="#000000" stroke-miterlimit="10" d="M336.699,616.6c-5.399,1.7-9,4.4-9,4.4
	c-2.699-26.9,15.399-30.5,15.399-30.5c14.7-1.4,18.101,31.2,18.101,31.2c-3.3-3-6.601-4.8-9.899-5.7c1.601-1.9,2.601-4.4,2.601-7.1
	c0-5.9-4.5-10.602-10-10.602s-10,4.8-10,10.602C333.699,612,334.8,614.7,336.699,616.6z"/>
<path fill="#FFFFFF" stroke="#000000" stroke-miterlimit="10" d="M315.699,200.8c2.801-4.3,6.801-7.1,11.2-7.1
	c0.5,0,0.899,0,1.399,0.1c7.8,1,13.899,10.4,13.899,21.9c0,12.1-6.899,22-15.3,22c-2.399,0-4.601-0.8-6.601-2.2l2.7-0.3
	c13.6-24.5-6.801-34.2-6.801-34.2L315.699,200.8z"/>
<path fill="#FFFFFF" stroke="#000000" stroke-miterlimit="10" d="M322.3,586.3C329,566.5,336.4,565,349.699,570
	c13.399,5,17.399,24.1,17.399,24.1C343,564.3,322.3,586.3,322.3,586.3z"/>
<path fill="#FFFFFF" stroke="#000000" stroke-miterlimit="10" d="M316.199,201.1c0,0,20.399,9.8,6.801,34.2l-2.7,0.3
	c-2.601-1.8-4.7-4.5-6.3-8l0.199-0.1c8.7-8.5-2-14.9-2-14.9h-0.5c0.5-4.5,1.899-8.6,3.899-11.8L316.199,201.1z"/>
<path fill="#FFFFFF" stroke="#000000" stroke-miterlimit="10" d="M311.8,212.6h0.5c0,0,10.7,6.4,2,14.9l-0.2,0.1
	c-1.5-3.4-2.399-7.5-2.399-11.9C311.6,214.7,311.699,213.6,311.8,212.6z"/>
<path fill="#FFFFFF" stroke="#000000" stroke-miterlimit="10" d="M287,202.1c-15.5-23.4-29.2-37.4-31.3-39.5
	c2.899-7.2,5.199-18.4-0.801-30c0,0,35.201,35.5,49.9,22c0,0,4.5-6.1-11.3-40.3c0.3,0.5,2.7,4,12.3,1.5
	c20.601,6.6,39.7,15.3,57.2,25.5l-0.301,0.6c-1.5-0.1-3-0.2-4.5-0.2C325.8,141.8,297.3,169.2,287,202.1z"/>
<path fill="#FFFFFF" stroke="#000000" stroke-miterlimit="10" d="M183.4,200.1c1.9,8.3,3.7,13.2,3.7,13.2
	c80.3,39.4,69.3,65.9,69.3,65.9c-5-33-69.3-52.1-69.3-52.1c25.101,65.9,3,143.6,3,143.6c13.101-69.1-14-138.3-14-138.3
	c-19.1-5.3-56.2,59.6-56.2,59.6c15.101-51,53.2-77.6,53.2-77.6c-0.5-1.5-1.3-8.5-2.2-17.2c-1-9.5-2-21-2.8-29.6
	c-2.6-26.1,0-46.8,0-46.8c22.101-50,43.2-52.1,43.2-52.1l0.7-0.6c2.1,2.1,3.3,3.4,3.3,3.4s-0.3,2-0.8,5.4
	C170.4,116.5,177.4,174.4,183.4,200.1z"/>
<path fill="#FFFFFF" stroke="#000000" stroke-miterlimit="10" d="M215.1,71.5c4.5-17.1,26.1-13.5,26.1-13.5l36.3,14.7
	c61.3,24.4,52.199,31.8,52.199,31.8c-10.899,6.7-18.5,10-23.899,11.3c-9.7,2.5-12-1-12.3-1.5c15.8,34.2,11.3,40.3,11.3,40.3
	c-14.8,13.4-49.9-22-49.9-22c6.101,11.6,3.7,22.8,0.801,30c-2,4.9-4.2,7.9-4.2,7.9c-8.9,0.2-15.8-2.4-21.2-6.9
	c-22.4-18.7-18-69.8-15.9-86.7C214.8,73.5,215.1,71.5,215.1,71.5z"/>
<path fill="#FFFFFF" stroke="#000000" stroke-miterlimit="10" d="M230.3,163.6c5.4,4.5,12.3,7.1,21.2,6.9c0,0,2.3-3,4.2-7.9
	c2.199,2.1,15.899,16.1,31.3,39.5c16.4,24.9,34.9,60.3,43.699,103.6c3,14.6,4.899,30,5.2,46.2c0.5,21.1-1.7,43.6-7.399,67.2
	c-0.4,1.5-0.7,3-1.101,4.5c0,0-62.399,200.5-20.399,269c0,0,131.699,168.7,213.399-81.898c0,0,2.3-55-15.899-83.102
	c0,0-24.101-51.8-20.9-85.8c0.4-4.398,1.301-8.398,2.7-12c0,0,6-28.6,6.5-65.9c0.399-30.9-3-67.7-16.7-99.2
	c-10.8-24.6-27.5-50-49.6-73.1c-17.801-18.7-39.101-36-63.5-50.2c-17.5-10.3-36.601-19-57.2-25.5c5.399-1.4,13.101-4.6,23.899-11.3
	C477.199,174.3,521.5,286.8,521.5,286.8c38.6,75.8,35.199,278.8,35.199,278.8c3.399,159-138.5,212.7-138.5,212.7
	C274.1,841.9,233.2,753.8,233.2,753.8c99.898,33,60.1-34.2,60.1-34.2C240,621.8,301.199,446.9,301.199,446.9
	c15.801-70.5,6.7-130.602-9.6-177c-9.201-26.3-20.701-48.1-31.301-65c-16.4-26.2-30.6-40.4-30.6-40.4L230.3,163.6z"/>
<path fill="#FFFFFF" stroke="#000000" stroke-miterlimit="10" d="M103.9,26.2C181.1-10.4,241.3,58,241.3,58s-21.6-3.7-26.1,13.5
	c0,0-1.101-1.3-3.301-3.4c-9.5-9.2-38.899-33-79.6-21c19.3,44-17,77-17,77c-22.7,15.9-28.4,2.4-28.4,2.4c-9-16.1-13-30-13.899-41.9
	c-2.7-36.4,24-54.3,29.8-57.7C103.5,26.4,103.9,26.2,103.9,26.2z M114.1,98.4c17.8-31.6-2.1-38.2-5.3-39c0,0,0,0,0.1,0l0.601-0.6
	l-1.101,0.5c0,0,0.101,0,0.4,0.1L93.7,73.9C83.5,121.6,114.1,98.4,114.1,98.4z"/>
<path id="www.ABC-color.com" fill="#FFFFFF" stroke="#000000" stroke-miterlimit="10" d="M173.1,214.4c0,0-38.1,26.6-53.2,77.6
	c0,0,37.101-64.9,56.2-59.6c0,0,27.101,69.1,14,138.3c0,0,22.101-77.6-3-143.6c0,0,64.2,19.1,69.3,52.1c0,0,11-26.6-69.3-65.9
	c0,0-1.8-5-3.7-13.2l2.7-0.6c48.2-18.1,74.3,5.3,74.3,5.3l0.101-0.1c10.6,16.9,22.1,38.8,31.3,65c11,44.3,6.399,85.7,3.7,85
	c-20.2-5.3-72.4-60.8-73.3-61.7C265.4,393,202.6,456.3,195.1,448.3c-56-59.4-45.899-122.5-42.6-135.7c0.2-0.5,0.399-1,0.5-1.5
	c0.5-1.8,0.1-1.1-0.5,1.5c-11.101,29.7-95.9,37.8-95.9,37.8c1-48.9,5-54.2,5-54.2C79.7,166.4,169,197.3,169,197.3l1.8-0.2
	C171.8,205.9,172.5,212.9,173.1,214.4z"/>
<path fill="#FFFFFF" stroke="#000000" stroke-miterlimit="10" d="M51.7,75.1c17.8-35.4,42.9-45.8,51.1-48.3
	C97,30.3,70.3,48.2,73,84.6c-5.101,13.6-23.8,37-34.9,38.2c-11.3,1.2-14.8,0-22.7-7.3c-7.899-7.3-1.1-11-1.1-11
	C39.3,122.8,51.7,75.1,51.7,75.1z"/>
<g>
	<path id="ABC-color.com" d="M345,277.3c1.699,2.1,3.399,4.1,5.3,5.9c1.899,1.8,3.899,3.5,6,4.8c4.3,2.7,9.2,4,13.8,2.7
		c2.301-0.6,4.5-1.8,6.601-3.2s3.899-3.2,5.8-5c1.801-1.9,3.5-3.9,5.101-6c1.7-2,3.2-4.3,4.801-6.4l0.199,0.1
		c-2.5,4.7-5.399,9.3-8.899,13.3c-1.8,2-3.7,3.9-5.8,5.5c-2.101,1.6-4.5,2.9-7.2,3.6c-2.601,0.7-5.399,0.8-8,0.1
		c-2.601-0.6-5.101-1.9-7.3-3.4c-2.2-1.6-4.101-3.4-5.899-5.4c-1.801-2-3.4-4.2-4.7-6.5L345,277.3z"/>
</g>
<g>
	<path d="M390.9,266.1c0.399,1.2,0.8,2.1,1.3,2.4c0.3,0.2,0.5,0.2,0.7,0.3c0.3,0.1,0.601,0.2,1,0.2c0.8,0.1,1.8,0.2,2.8,0.3
		c1,0.1,2.101,0.2,3.399,0.6l0.101,0.2c-1,0.3-2.101,0.6-3.2,0.7c-1.1,0.2-2.199,0.2-3.3,0.1c-1.101-0.2-2.3-0.7-2.8-1.7
		c-0.601-1-0.5-2.2-0.101-3.3L390.9,266.1z"/>
</g>
<g>
	<path d="M343.3,270c1.399,0.6,2.5,1.6,3.2,3c0.399,0.7,0.6,1.6,0.6,2.5c0,1-0.5,2-1.199,2.8c-1.399,1.4-3.101,1.7-4.5,1.8
		c-1.399,0-2.801-0.3-4.101-1v-0.2c1.3,0,2.601-0.1,3.8-0.4c1.2-0.3,2.5-0.7,3.301-1.6c0.899-0.9,1-2.3,0.6-3.4
		c-0.399-1.2-1-2.3-1.8-3.3L343.3,270z"/>
</g>
<g>
	<path d="M361.699,346.6c1.899-2,4.301-3.4,7-4.2c1.301-0.5,2.7-0.7,4.101-0.9c1.399-0.1,2.8-0.1,4.2,0c1.399,0.2,2.8,0.5,4.1,1
		c1.301,0.5,2.601,1.1,3.801,1.9c2.3,1.5,4.3,3.5,5.699,5.8l-0.1,0.1c-1.9-1.8-4-3.4-6.301-4.5c-2.3-1.2-4.8-2-7.399-2.3
		c-2.601-0.3-5.2-0.2-7.7,0.4s-5,1.5-7.199,2.9L361.699,346.6z"/>
</g>
<g>
	<path d="M422.6,356.5c1.4-2.8,3.5-5.3,5.9-7.4c1.199-1.1,2.5-2,3.899-2.9c1.399-0.8,2.899-1.5,4.5-2s3.3-0.7,5-0.7
		c1.699,0.1,3.399,0.4,5,1c3.199,1.3,5.699,3.6,7.199,6.3l-0.1,0.1c-2.101-2.2-4.7-4.1-7.601-5c-2.899-0.9-6.101-0.8-9,0.1
		s-5.601,2.4-8.101,4.2C426.9,352,424.6,354.2,422.6,356.5L422.6,356.5z"/>
</g>
<g>
	<path d="M426.8,438.2c-2.7,4.8-6.2,9.2-10.7,12.6c-2.199,1.7-4.8,3.102-7.5,4.2c-2.699,1-5.601,1.5-8.5,1.6
		c-2.899,0-5.8-0.398-8.601-1.3c-2.699-0.898-5.3-2.1-7.699-3.6c-4.801-3-8.899-6.9-12-11.4l0.199-0.1
		c3.601,4.1,7.9,7.5,12.601,10.2c4.7,2.6,10.101,4.3,15.5,4.198c5.399,0,10.7-2,15.2-5.1s8.2-7.1,11.5-11.4V438.2z"/>
</g>
<g>
	<path d="M373.3,436c0.601,0.8,0.7,1.7,0.7,2.5s-0.301,1.6-0.801,2.3s-1.101,1.3-2,1.602c-0.8,0.3-1.8,0.398-2.699,0l-0.101-0.2
		c1.3-0.5,2.3-1.4,3-2.602c0.399-0.6,0.699-1.198,1-1.8c0.199-0.6,0.5-1.3,0.601-1.898L373.3,436z"/>
</g>
<g>
	<path d="M424.1,435.2c0.9,0.2,1.5,0.5,2.101,0.8s1,0.7,1.301,1.1c0.399,0.4,0.6,0.802,0.899,1.302c0.299,0.5,0.399,1,1,1.698v0.2
		c-0.7,0-1.301-0.2-1.801-0.6c-0.5-0.4-1-0.8-1.5-1.3c-0.8-1-1.6-2-2.1-3.2H424.1z"/>
</g>
<g>
	<path d="M354.8,695.7c3.101,2.2,6.399,4.2,9.8,5.7c1.7,0.698,3.5,1.398,5.301,1.698c1.8,0.302,3.6,0.302,5.199-0.198l0.601-0.2
		l0.399,0.5c1.5,1.8,3.5,3.3,5.601,4.398c2.101,1.102,4.399,1.7,6.7,1.7c2.3,0,4.601-0.7,6.699-1.8c2.1-1.1,4-2.7,5.801-4.4
		l0.399-0.3l0.5,0.102c1.399,0.398,3,0.6,4.601,0.6s3.199-0.2,4.699-0.6c1.5-0.4,3-1.102,4.4-1.9c1.3-0.9,2.6-2,3.699-3.2
		c-0.899,1.4-2,2.602-3.3,3.602c-1.301,1-2.801,1.898-4.399,2.5c-1.601,0.6-3.301,0.898-5,1c-1.7,0.1-3.4,0-5.101-0.5l0.8-0.2
		c-1.8,1.898-3.8,3.6-6,4.898c-2.3,1.302-4.899,2.102-7.601,2.2c-2.699,0.102-5.399-0.7-7.699-2c-2.301-1.3-4.301-3-6-5.1l1,0.3
		c-2,0.6-4.2,0.5-6.101,0c-1.899-0.5-3.7-1.2-5.5-2.1c-1.7-0.9-3.3-1.9-4.899-3.102C357.6,698.2,356.1,697,354.8,695.7z"/>
</g>
</svg>
