<?xml version="1.0" encoding="utf-8"?>
<!-- Generator: Adobe Illustrator 15.0.0, SVG Export Plug-In . SVG Version: 6.00 Build 0)  -->
<!DOCTYPE svg PUBLIC "-//W3C//DTD SVG 1.1//EN" "http://www.w3.org/Graphics/SVG/1.1/DTD/svg11.dtd">
<svg version="1.1" id="layer_x5F_www.ABC-color.com"
	 xmlns="http://www.w3.org/2000/svg" xmlns:xlink="http://www.w3.org/1999/xlink" x="0px" y="0px" width="567px" height="822px"
	 viewBox="0 0 567 822" enable-background="new 0 0 567 822" xml:space="preserve">
<path fill="#FFFFFF" stroke="#000000" d="M461.3,155.3c7.7,2,108.5,28.1,57.399,47.4c0,0-60.3,15-1.199,32.5
	c0,0,53.1,1.3,28.899,23.8c0,0-12.101,3.8-22.899,26.3c0,0-12.101,17.4,35,20c0,0-31.101,10-42.4-4.6c0,0-13.101-27.9,19.5-47.9
	c13.4-8.2-56.699-11.3-55.5-23.8c0,0-16.899-23.8,16.899-30c33.801-6.3,8.4-17.5,8.4-17.5l-56.7-18.8l-0.3-0.3
	c2.8-3.4,6.8-6.3,12.399-8.3L461.3,155.3z"/>
<path fill="#FFFFFF" stroke="#000000" d="M512.699,440.2c0,0,84.101,114-24.101,80c-14.699-4.602-27.899-12.8-39.6-23.102
	c38.699-119.8-44-75.198-51.5-70.898c-16.7-33.3-24.7-62.2-24.7-62.2s26.5-93.8,70-6.3C442.8,357.6,582.699,290.1,512.699,440.2z"/>
<path id="ABC-color.com" fill="#FFFFFF" stroke="#000000" d="M449,497c11.8,10.3,24.899,18.5,39.6,23.1c0,0,36.2,170-43.399,235
	c0,0-115.8,92.5-231.6-20c19.3-30-29-80-29-80c29-5,26.5-77.5,26.5-77.5c-14.5-20-60.3-12.5-60.3-12.5c0-15-50.6-62.5-62.7-62.5
	c0,0-73.3-328.5,96.9-405.6c-10.3,8-38.7,35.2-33.4,87.2c0,0-69.2,66.7-8,131.7c0,0,19.3,71.7-8,91.7c0,0-19.3,75,37,83.301
	c0,0-32.2-46.7-22.5-61.7c0,0,33.8-61.7,14.5-115c0,0-46.6-46.7-3.2-116.7l12.9-31.7c0,0,8,55,37,80c0,0-28.9,70-6.4,88.3
	c0,0,28.9,8.3,46.601,18.3c0,0-14.5,108.3,16.1,110c0,0-17.7-65-8-76.7c0,0,28.9-59.6-39.8-69.6c0,0-22.9-12.1,14.1-83.8l-4.8-41.7
	c0,0,53.101,36.7,74,126.7c0,0-24.101,71.7,16.1,83.3c0,0-14.5-50-1.601-55c0,0,7.4-20.6,9.4-38.4c16,30.7,32.5,54.3,46.1,56.4
	c0,0,8,28.9,24.7,62.2C409.8,450.7,426.9,477.6,449,497z M403.5,601.2h-0.6c0,0-5.899,61.5-68.5,43.2l0,0l0,0
	c1.899,0.898,62.8,30,67.5,30C406.199,674.3,403.9,612.6,403.5,601.2z M459.699,673.3c0-7.3-2.399-13.1-5.399-13.1
	s-5.399,5.898-5.399,13.1s2.399,13.102,5.399,13.102C457.199,686.4,459.699,680.5,459.699,673.3z M420.3,506.8
	c0-9.5-3-18.3-8-25.398C410.9,478.8,409,476.6,406.9,475.1c-7.101-6.698-16.5-10.8-26.801-10.8c-22.199,0-40.199,19-40.199,42.5
	s18,42.5,40.199,42.5C402.3,549.3,420.3,530.3,420.3,506.8z M368,755.8c0-7.3-2.7-13.1-6-13.1c-3.301,0-6,5.898-6,13.1
	s2.699,13.102,6,13.102C365.3,768.9,368,763,368,755.8z M358.4,410.8c0-7.899-2.399-14.399-5.399-14.399s-5.4,6.5-5.4,14.399
	c0,7.9,2.4,14.4,5.4,14.4C355.9,425.2,358.4,418.7,358.4,410.8z M305.3,455.8c0-9.3-3.2-16.898-7.2-16.898s-7.199,7.6-7.199,16.898
	s3.3,16.9,7.199,16.9C302.1,472.7,305.3,465.1,305.3,455.8z M309.3,556.8c0-25.3-15.5-45.8-34.6-45.8
	c-19.101,0-34.601,20.5-34.601,45.8s15.5,45.8,34.601,45.8C293.8,602.7,309.3,582.1,309.3,556.8z M260.7,283.3
	c0-8.6-1.301-15.6-3-15.6c-1.7,0-3,7-3,15.6c0,8.6,1.399,15.6,3,15.6C259.3,298.9,260.7,291.9,260.7,283.3z M204,368.9
	c0-8.3-2.7-15-6-15s-6,6.7-6,15c0,8.3,2.7,15,6,15S204,377.2,204,368.9z M202.8,437c0-9.3-2.7-16.9-6-16.9c-3.3,0-6,7.602-6,16.9
	s2.7,16.9,6,16.9C200.1,453.9,202.8,446.3,202.8,437z M185.9,532c0-10-3-18.1-6.6-18.1c-3.7,0-6.6,8.1-6.6,18.1s3,18.1,6.6,18.1
	C182.9,550.2,185.9,542,185.9,532z M172.6,248.3c0-6.6-3-11.9-6.6-11.9c-3.7,0-6.601,5.3-6.601,11.9c0,6.6,3,11.9,6.601,11.9
	C169.7,260.1,172.6,254.8,172.6,248.3z M124.4,172.6c0-6.9-1.399-12.5-3-12.5c-1.6,0-3,5.6-3,12.5s1.301,12.5,3,12.5
	C123.1,185.1,124.4,179.6,124.4,172.6z M105.1,429.5c0-7.9-1.6-14.4-3.6-14.4s-3.601,6.4-3.601,14.4c0,7.9,1.601,14.4,3.601,14.4
	S105.1,437.5,105.1,429.5z M99.1,333.3c0-6.6-1.6-11.9-3.6-11.9s-3.601,5.3-3.601,11.9c0,6.6,1.601,11.9,3.601,11.9
	S99.1,339.8,99.1,333.3z"/>
<path fill="#FFFFFF" stroke="#000000" d="M452.4,136.4c-1,0-64.801-0.2-79.2-43.4c0.899-0.8,1.601-1.5,2-1.8
	c0,0.1,0.101,0.2,0.101,0.2c-2.399,3.8,59.101,13.8,59.101,13.8c155.601,11.3,31.399,47.5,31.399,47.5c-1.7,0.4-3.3,0.9-4.8,1.4
	c-5.601,2.1-9.601,5-12.4,8.3c-12.199,14.6-2.1,37.8-2.1,37.8c53.1,155-54.301,27.5-54.301,27.5
	c-22.899-21.3-32.601,18.8-32.601,18.8c-77.2,111.3-10.899-145-10.899-145c3.601,1.3,7.2,1,10.601,0c0.7-0.2,1.399-0.5,2.101-0.7
	l0.3,0.7c0,0,6.2,83.2-11.199,99.5c3.5-3.1,21.8-20.3,28.399-39.5l49.5,63.8l-27.7-75C400.6,150.1,428.3,143.9,452.4,136.4z"/>
<path fill="#FFFFFF" stroke="#000000" d="M454.3,660.2c3,0,5.399,5.898,5.399,13.1S457.3,686.4,454.3,686.4s-5.399-5.9-5.399-13.102
	S451.3,660.2,454.3,660.2z"/>
<path fill="#FFFFFF" stroke="#000000" d="M397.5,426.1c7.5-4.3,90.199-48.898,51.5,70.9C426.9,477.6,409.8,450.7,397.5,426.1z"/>
<path fill="#FFFFFF" stroke="#000000" d="M400.6,150.1l27.7,75l-49.5-63.8c-6.5,19.2-24.899,36.4-28.399,39.5
	c17.399-16.3,11.199-99.5,11.199-99.5l-0.3-0.7c5.101-2,9.3-5.5,11.8-7.7c14.4,43.3,78.2,43.4,79.2,43.4
	C428.3,143.9,400.6,150.1,400.6,150.1z"/>
<path fill="#FFFFFF" stroke="#000000" d="M412.3,481.4c5,7.1,8,15.898,8,25.398c0,23.5-18,42.5-40.2,42.5
	c-22.199,0-40.199-19-40.199-42.5s18-42.5,40.199-42.5c10.301,0,19.7,4.102,26.801,10.8c-2.2-1.6-4.801-2.5-7.5-2.5
	c-8.9,0-16.101,9.7-16.101,21.7s7.199,21.7,16.101,21.7c8.9,0,16.1-9.7,16.1-21.7C415.5,489.5,414.3,485,412.3,481.4z"/>
<path fill="#FFFFFF" stroke="#000000" d="M412.3,481.4c2,3.6,3.2,8.1,3.2,12.898c0,12-7.2,21.7-16.101,21.7
	c-8.899,0-16.101-9.7-16.101-21.7s7.2-21.7,16.101-21.7c2.699,0,5.3,0.9,7.5,2.5C408.9,477,410.699,479.1,412.3,481.4z"/>
<path fill="#FFFFFF" stroke="#000000" d="M403.5,601.2c0.5,11.5,2.699,73.2-1.7,73.2c-4.7,0-65.601-29.102-67.5-30
	c62.7,18.3,68.5-43.2,68.5-43.2H403.5z"/>
<path fill="#FFFFFF" stroke="#000000" d="M187.4,95.4l-0.199-0.3c2.1-2.3,70.199-77.5,86.8-79.9c0,0,68.6-16.2,101.199,76
	c-0.399,0.3-1,1-2,1.8c-2.5,2.2-6.699,5.7-11.8,7.7c-0.7,0.3-1.399,0.5-2.101,0.7c-3.399,1-7,1.2-10.601,0c0,0-15.699-105-96.499-45
	c0,0-27.9,33.6-43.2,36.7c-6-1.7-9.9-1.6-9.9-1.6c-4.899,1.7-9.5,3.5-14,5.6C186,96.4,186.8,95.8,187.4,95.4z"/>
<path fill="#FFFFFF" stroke="#000000" d="M362,742.7c3.3,0,6,5.898,6,13.1s-2.7,13.102-6,13.102c-3.301,0-6-5.9-6-13.102
	S358.699,742.7,362,742.7z"/>
<path fill="#FFFFFF" stroke="#000000" d="M352.9,396.4c3,0,5.399,6.5,5.399,14.399c0,7.9-2.399,14.4-5.399,14.4
	s-5.399-6.4-5.399-14.4C347.5,402.9,349.9,396.4,352.9,396.4z"/>
<path fill="#FFFFFF" stroke="#000000" d="M209.1,93.1c13.7,3.8,38.5,17,55.2,62.1c0,0,30.2,90.5,62.5,152.4
	c-2,17.8-9.399,38.4-9.399,38.4c-12.9,5,1.6,55,1.6,55c-40.2-11.7-16.102-83.3-16.102-83.3c-20.898-90-74-126.7-74-126.7l4.801,41.7
	c-37,71.7-14.101,83.8-14.101,83.8c68.7,10,39.8,69.6,39.8,69.6c-9.699,11.7,8,76.7,8,76.7c-30.5-1.7-16.1-110-16.1-110
	c-17.7-10-46.6-18.3-46.6-18.3c-22.5-18.3,6.399-88.3,6.399-88.3c-28.899-25-37-80-37-80L161.2,197.9
	c-43.4,70,3.199,116.7,3.199,116.7c19.301,53.3-14.5,115-14.5,115c-9.6,15,22.5,61.7,22.5,61.7c-56.3-8.3-37-83.3-37-83.3
	c27.301-20,8-91.7,8-91.7c-61.1-65,8-131.7,8-131.7c-5.3-52.1,23.101-79.2,33.4-87.2l0,0c4.5-2,9.2-3.9,14-5.6
	C199.2,91.5,203,91.4,209.1,93.1z"/>
<path fill="#FFFFFF" stroke="#000000" d="M298.1,438.9c4,0,7.2,7.6,7.2,16.898s-3.2,16.9-7.2,16.9s-7.199-7.602-7.199-16.9
	C290.8,446.5,294.1,438.9,298.1,438.9z"/>
<path fill="#FFFFFF" stroke="#000000" d="M290,522.7c8.898,0,16.1,11.6,16.1,25.8c0,14.3-7.199,25.8-16.1,25.8
	c-8.9,0-16.101-11.6-16.101-25.8C273.9,534.2,281.1,522.7,290,522.7z"/>
<path fill="#FFFFFF" stroke="#000000" d="M274.8,511c19.101,0,34.601,20.5,34.601,45.8s-15.5,45.8-34.601,45.8
	c-19.1,0-34.6-20.5-34.6-45.8S255.6,511,274.8,511z M306.1,548.5c0-14.3-7.199-25.8-16.1-25.8c-8.9,0-16.101,11.6-16.101,25.8
	c0,14.3,7.2,25.8,16.101,25.8C298.9,574.3,306.1,562.8,306.1,548.5z"/>
<path fill="#FFFFFF" stroke="#000000" d="M257.7,267.6c1.699,0,3,7,3,15.6c0,8.6-1.301,15.6-3,15.6c-1.7,0-3-7-3-15.6
	C254.6,274.6,256,267.6,257.7,267.6z"/>
<path id="www.ABC-color.com" fill="#FFFFFF" stroke="#000000" d="M184.7,655.2c0,0,48.199,50,29,80c0,0-45.801,7.5-67.5-12.5
	c0,0-38.601,60-77.2,40c0,0-7.2-40-2.4-60c0,0-74.8-35-53.1-77.5c0,0,0-10,55.5-30c0,0,7.2-92.5,19.3-92.5
	c12.1,0,62.7,47.5,62.7,62.5c0,0,45.8-7.5,60.3,12.5C211.2,577.7,213.6,650.2,184.7,655.2z M148.5,647.7c0-17.5-13.3-31.7-29.8-31.7
	c-16.4,0-29.7,14.2-29.7,31.7s13.3,31.7,29.7,31.7C135.2,679.3,148.5,665.1,148.5,647.7z"/>
<path fill="#FFFFFF" stroke="#000000" d="M198,353.9c3.3,0,6,6.7,6,15c0,8.3-2.7,15-6,15s-6-6.7-6-15
	C191.9,360.6,194.6,353.9,198,353.9z"/>
<path fill="#FFFFFF" stroke="#000000" d="M196.8,420.2c3.3,0,6,7.6,6,16.898c0,9.302-2.7,16.9-6,16.9c-3.3,0-6-7.6-6-16.9
	C190.7,427.7,193.4,420.2,196.8,420.2z"/>
<path fill="#FFFFFF" stroke="#000000" d="M179.3,513.9c3.7,0,6.6,8.1,6.6,18.1s-3,18.1-6.6,18.1c-3.7,0-6.6-8.1-6.6-18.1
	C172.6,522,175.6,513.9,179.3,513.9z"/>
<path fill="#FFFFFF" stroke="#000000" d="M166,236.4c3.7,0,6.6,5.3,6.6,11.9c0,6.6-3,11.9-6.6,11.9c-3.7,0-6.601-5.3-6.601-11.9
	C159.4,241.7,162.3,236.4,166,236.4z"/>
<path fill="#FFFFFF" stroke="#000000" d="M118.8,616c16.4,0,29.8,14.2,29.8,31.7s-13.3,31.7-29.8,31.7c-16.4,0-29.7-14.2-29.7-31.7
	C89,630.2,102.3,616,118.8,616z"/>
<path fill="#FFFFFF" stroke="#000000" d="M121.4,160.1c1.7,0,3,5.6,3,12.5s-1.399,12.5-3,12.5c-1.6,0-3-5.6-3-12.5
	C118.4,165.8,119.7,160.1,121.4,160.1z"/>
<path fill="#FFFFFF" stroke="#000000" d="M101.5,415.2c2,0,3.6,6.398,3.6,14.398c0,7.9-1.6,14.4-3.6,14.4s-3.601-6.4-3.601-14.4
	S99.5,415.2,101.5,415.2z"/>
<path fill="#FFFFFF" stroke="#000000" d="M95.4,321.4c2,0,3.601,5.3,3.601,11.9c0,6.6-1.601,11.9-3.601,11.9s-3.6-5.3-3.6-11.9
	C91.8,326.7,93.4,321.4,95.4,321.4z"/>
<g>
	<path d="M259.5,660.1c2.5-0.5,5-0.8,7.5-1c2.5-0.198,5-0.3,7.5-0.3c5,0,10.1,0.4,15.1,1.3c5,0.802,10,2.302,14.7,4.5
		c4.7,2.2,9.101,5.2,12.601,9.102c3.5,3.898,6.101,8.7,7.5,13.8s1.699,10.3,1.3,15.4C325.3,708,324.3,713,322.9,717.8
		c-1.5,4.8-3.2,9.5-5.399,14.102l-0.2-0.102c3.5-9.3,6.3-19,6.8-29c0.2-5-0.199-10-1.6-14.8s-3.801-9.3-7.101-12.9
		c-3.301-3.698-7.5-6.6-11.899-8.8c-4.5-2.2-9.3-3.7-14.2-4.7s-9.9-1.6-14.8-1.8c-5-0.2-10-0.1-15,0.5L259.5,660.1L259.5,660.1z"/>
</g>
<g>
	<path d="M434.9,553.5c0.399,4.4,1,8.8,2,13.1c0.899,4.302,2.101,8.602,3.5,12.7c2.899,8.3,6.699,16.2,11.699,23.3
		c4.9,7.2,11,13.5,17.801,19c3.399,2.7,7.101,5.2,10.899,7.4c3.8,2.3,7.8,4.2,11.8,6.1l-0.101,0.2c-8.399-3-16.399-7.1-23.5-12.398
		c-7.199-5.302-13.5-11.802-18.6-19.102c-5.101-7.3-8.9-15.5-11.601-24c-1.301-4.3-2.399-8.6-3.101-13c-0.7-4.398-1.2-8.8-1.2-13.3
		H434.9z"/>
</g>
<g>
	<path d="M396.4,595.8c1.399,0.9,2.699,1.602,3.899,2.3c0.601,0.302,1.2,0.7,1.899,1c0.601,0.302,1.2,0.602,1.899,0.802
		c0.601,0.3,1.301,0.5,1.899,0.698c0.601,0.2,1.301,0.4,2,0.602c1.4,0.398,2.801,0.7,4.4,1.2v0.198c-3,0.5-6.2,0.302-9.101-0.898
		c-1.399-0.602-2.801-1.4-4-2.4c-1.2-1-2.2-2.1-3.101-3.5L396.4,595.8L396.4,595.8z"/>
</g>
<g>
	<path d="M332.6,634.5c1.101,1.5,1.801,3.1,2.301,4.8c0.3,0.9,0.399,1.7,0.5,2.602c0.101,0.898,0.101,1.8,0.101,2.698
		c-0.101,0.9-0.2,1.802-0.4,2.7c-0.199,0.9-0.5,1.8-1,2.7c-0.899,1.7-2.399,3.2-4.3,3.6l-0.101-0.198c1.399-0.9,2.399-2.4,2.899-4
		c0.601-1.602,0.801-3.302,0.801-4.9c0.101-1.7,0-3.4-0.2-5c-0.2-1.7-0.5-3.3-0.899-5L332.6,634.5L332.6,634.5z"/>
</g>
<ellipse stroke="#000000" cx="293" cy="549.5" rx="3.7" ry="6.5"/>
<ellipse stroke="#000000" cx="401" cy="493.5" rx="3.699" ry="6.5"/>
</svg>
