<?xml version="1.0" encoding="utf-8"?>
<!-- Generator: Adobe Illustrator 15.0.0, SVG Export Plug-In . SVG Version: 6.00 Build 0)  -->
<!DOCTYPE svg PUBLIC "-//W3C//DTD SVG 1.1//EN" "http://www.w3.org/Graphics/SVG/1.1/DTD/svg11.dtd">
<svg version="1.1" id="Layer_1" xmlns="http://www.w3.org/2000/svg" xmlns:xlink="http://www.w3.org/1999/xlink" x="0px" y="0px"
	 width="822px" height="600px" viewBox="0 0 822 600" enable-background="new 0 0 822 600" xml:space="preserve">
<title>Coloring mask dame</title>
<desc>Vector coloring Image mask dame</desc>
<path id="lizo" fill="#FFFFFF" stroke="#000000" d="M605.7,405.8c29.5-34.5,72.3-57.7,72.3-105.9c0-37.7-18.6-71.4-47.3-92.3
	C610.7,103,518.4,23.5,407.5,23.5c-64.5,0-122.7,26.8-164.1,70c-39.1-5.5-83.2,18.6-108.6,62.3c-31.4,54.5-21.4,118.6,21.8,143.6
	l0,0c-7.3,10.9-11.4,24.1-11.4,37.7c0,35.5,30.5,52.7,61.8,67.7C376.1,485.4,561.1,457.6,605.7,405.8z"/>
<g id="oko">
	<ellipse fill="#FFFFFF" stroke="#000000" cx="304" cy="341" rx="34.1" ry="45.5"/>
	<ellipse fill="#FFFFFF" stroke="#000000" cx="447.2" cy="341" rx="34.1" ry="45.5"/>
</g>
<g id="ralugka">
	<circle fill="#FFFFFF" stroke="#000000" stroke-width="0.25" cx="298.1" cy="354.6" r="20.5"/>
	<circle fill="#FFFFFF" stroke="#000000" stroke-width="0.25" cx="440.4" cy="354.6" r="20.5"/>
</g>
<g id="zrashok">
	<circle cx="299" cy="354.6" r="9.1"/>
	<circle cx="439.4" cy="354.6" r="9.1"/>
</g>
<g id="blisk">
	<circle fill="#FFFFFF" cx="293.5" cy="350" r="3.4"/>
	<circle fill="#FFFFFF" cx="434.7" cy="350" r="3.4"/>
</g>
<path id="lizo_1_" fill="#FFFFFF" stroke="#000000" d="M603.5,407.5L585.4,438c0,0-93.4,96.1-131.801,110.5
	c-30.899,24.3-64.5,43.6-81.399,42.3c-16.8-1.399-59.5-42.3-59.5-42.3C208.1,488,240,380.3,240,380.3
	c-39.1-230.5,30.5-204.6,30.5-204.6s62.3,89.6,107.7,37.3c40.5-46.4,118.6-68,124.1-20.5c5.5,48.9,37.7,78.6,37.7,78.6
	C541.3,397.1,603.5,407.5,603.5,407.5z M481.3,341c0-25-15.2-45.5-34.1-45.5c-18.9,0-34.101,20.5-34.101,45.5s15.2,45.5,34.101,45.5
	C466,386.4,481.3,366,481.3,341z M338.1,341c0-25-15.199-45.5-34.1-45.5c-18.9,0-34.1,20.5-34.1,45.5s15.2,45.5,34.1,45.5
	C322.8,386.4,338.1,366,338.1,341z"/>
<g id="vika">
	<path fill="#FFFFFF" d="M272.6,323.2c5-16.4,17.3-27.7,31.4-27.7c14.1,0,26.4,11.4,31.4,27.7h-0.5
		C334.9,323.2,310.8,313.2,272.6,323.2z"/>
	<path fill="#FFFFFF" d="M478.5,323.2c-5-16.4-17.3-27.7-31.4-27.7c-14.1,0-26.399,11.4-31.399,27.7h0.5
		C416.3,323.2,440.4,313.2,478.5,323.2z"/>
</g>
<g id="niz-via">
	<path d="M466.7,378.7c2.7-2.3,1.399,6.6,2.3,6.6c1.1,0,3.9-9.1,3.9-9.1c0.699,3.2,3,7.7,4.3,7.5c1.1,0-2-8-0.5-8.4
		c1.8-0.5,8.399,8.601,8.399,7.7c-0.5-5.5-5.199-9.3-3.899-9.5c4.5-0.2,12.5,8.4,11.8,6.8c-6.4-14.3-21.8-9.1-21.8-9.1
		c-26.8,13.399-49.3,0.7-49.3,0.7c6.1,9.1,15.199,14.5,25,14.5C454.7,386.9,461.3,383.9,466.7,378.7"/>
	<path d="M284.4,378.7c-2.7-2.3-1.4,6.6-2.3,6.6c-1.1,0-3.9-9.1-3.9-9.1c-0.7,3.2-3,7.7-4.3,7.5c-1.1,0,2-8,0.5-8.4
		c-1.8-0.5-8.4,8.601-8.4,7.7c0.5-5.5,5.2-9.3,3.9-9.5c-4.5-0.2-12.5,8.4-11.8,6.8c6.4-14.3,21.8-9.1,21.8-9.1
		c26.8,13.399,49.3,0.7,49.3,0.7c-6.101,9.1-15.2,14.5-25,14.5C296.5,386.9,289.9,383.9,284.4,378.7"/>
</g>
<g id="top-via">
	<path d="M415.4,324.1c0,0,11.8-10.199,62.3,0c0,0,37,8.601,54.3-25.2c1.4-2.5-17.3,28.2-54.3,22.3c0,0,26.8-0.5,33.899-21.6
		c0.7-1.8-16.399,23.2-45.199,17.7c0,0,16.1,0,22.699-12.7c1.4-2.699-12.3,14.5-33.6,8.9C453.5,312.8,431.7,306,415.4,324.1z"/>
	<path d="M335.8,324.1c0,0-11.8-10.199-62.3,0c0,0-37,8.601-54.3-25.2c-1.4-2.5,17.3,28.2,54.3,22.3c0,0-26.8-0.5-33.9-21.6
		c-0.7-1.8,16.4,23.2,45.2,17.7c0,0-16.1,0-22.7-12.7c-1.4-2.699,12.3,14.5,33.6,8.9C297.6,312.8,319.4,306,335.8,324.1z"/>
</g>
<g id="brow">
	<path d="M302.6,268.9c14.1,0,49.1,4.8,43,11.8c-3.899,4.3-29.8-2-43-2c-13.2,0-29.8,8.4-40.2,14.1
		C271.7,280.5,288.5,268.9,302.6,268.9z"/>
	<path d="M448.5,268.9c-14.1,0-49.1,4.8-43,11.8c3.9,4.3,29.8-2,43-2s29.8,8.4,40.2,14.1C479.4,280.5,462.6,268.9,448.5,268.9z"/>
</g>
<path id="nis" fill="none" stroke="#000000" stroke-width="0.5" d="M384.4,313.9c0,0-8.2,65-31.4,92.3c-18.6,21.8,5,44.1,31.4,33.6"
	/>
<path id="rot" fill="#FFFFFF" stroke="#000000" d="M389.5,503.4c-10.3-4.2-19.8-2.801-23.5,2.899c-3.5-6-13.2-7.7-23.7-3.5
	c-12.2,4.9-26.5-5.2-26.5-5.2s26.2,41.7,49.9,41.801C389.4,539.5,416,498,416,498S401.7,508.4,389.5,503.4z"/>
<ellipse id="kulzhik" fill="#FFFFFF" stroke="#000000" cx="598.9" cy="421" rx="21" ry="21.5"/>
</svg>
