<?xml version="1.0" encoding="utf-8"?>
<!-- Generator: Adobe Illustrator 15.0.0, SVG Export Plug-In . SVG Version: 6.00 Build 0)  -->
<!DOCTYPE svg PUBLIC "-//W3C//DTD SVG 1.1//EN" "http://www.w3.org/Graphics/SVG/1.1/DTD/svg11.dtd">
<svg version="1.1" id="layer_x5F_www.ABC-color.com"
	 xmlns="http://www.w3.org/2000/svg" xmlns:xlink="http://www.w3.org/1999/xlink" x="0px" y="0px" width="567px" height="822px"
	 viewBox="0 0 567 822" enable-background="new 0 0 567 822" xml:space="preserve">
<path fill="#FFFFFF" stroke="#000000" d="M247.1,441c-9.6-0.2-19.3,1.9-25.1,3.4c-3.4,0.898-5.5,1.6-5.5,1.6l-0.9-0.4
	c6-11.8,15.601-19.398,26.4-19.398c11.8,0,22.1,9,27.899,22.6C264.4,443.1,255.8,441.2,247.1,441z"/>
<path fill="#FFFFFF" stroke="#000000" d="M88,450.4c12.2,0,22.8,9.698,28.5,24.1c-3.7-2.6-12-7.8-23.101-10.1
	c-7.6-1.602-16.5-2-26,0.8c-0.899-0.2-1.8-0.3-2.8-0.4C70.6,455.9,78.9,450.4,88,450.4z"/>
<path fill="#FFFFFF" stroke="#000000" d="M18.7,689.6c-1.801,6.302-0.301,14.2,7,24.302C38.1,730.9,67.8,735,93.2,694.8
	c6.3,6.3,0.399,38.3,0.399,38.3S65.7,773.3,29.4,752.5c0,0-27.8-12.6-11-63L18.7,689.6z"/>
<path fill="#FFFFFF" stroke="#000000" d="M92.4,694.1c0.301,0.2,0.601,0.4,0.9,0.7C67.9,735.1,38.2,730.9,25.8,713.9
	c-7.4-10.102-8.9-18-7-24.302c5.1-17.8,36.7-21.898,36.7-21.898c0.399-0.4,0.8-0.8,1.3-1c1.7-0.9,3.8-0.8,6.2,0.1l0,0
	C74.6,671.2,92.4,694.1,92.4,694.1z"/>
<path fill="#FFFFFF" stroke="#000000" d="M346.5,410.5c-70.601-40.3-130.3,0.1-139.7,7C245.7,332.3,344.5,408.9,346.5,410.5z"/>
<path fill="#FFFFFF" stroke="#000000" d="M135.2,441.3h-0.9c-3.4-3.2-58.4-53.2-107.8-1.8l-1.4-0.6
	C52.2,374.8,101.4,400.3,101.4,400.3C118.7,408.2,129.1,423.5,135.2,441.3z"/>
<path id="ABC-color.com" fill="#FFFFFF" stroke="#000000" d="M116.5,474.5c-5.7-14.4-16.3-24.1-28.5-24.1
	c-9.2,0-17.5,5.5-23.4,14.398c-0.399,0.5-0.7,1.102-1,1.602c-5.3,8.5-8.399,19.898-8.399,32.3c0,6.5,0.899,12.6,2.399,18.2
	c0.101,0.398,0.2,0.8,0.4,1.198c5.1,17,16.7,28.802,30.1,28.802c18.2,0,32.9-21.602,32.9-48.2C120.9,489.9,119.3,481.6,116.5,474.5z
	 M134.3,441.3h0.9c14.8,43,4.3,100.2,4.3,100.2c-7.3,52-76.4,124.7-76.4,124.7l-0.2,0.5c-2.399-0.9-4.5-1-6.199-0.102l-0.5-1.1
	c-11.5-11.1,9.3-78,9.3-78C6.5,566.5,19.4,454.1,19.4,454.1c-0.1-0.6-0.1-1.3-0.1-1.898l1-0.102c1.5-4.8,3.1-9.198,4.9-13.198
	l1.399,0.6C75.9,388.2,130.9,438.1,134.3,441.3z"/>
<path fill="#FFFFFF" stroke="#000000" d="M116.5,474.5c2.8,7.1,4.399,15.3,4.399,24.1c0,26.602-14.699,48.2-32.899,48.2
	c-13.4,0-25-11.8-30.1-28.8h0.2c4.601,8.5,9.5,10.6,17.601,10.6c14,0,25.3-16.398,25.3-36.5c0-10.1-3-19.698-7.7-26.898l0.2-0.9
	C104.5,466.8,112.9,472,116.5,474.5z"/>
<path fill="#FFFFFF" stroke="#000000" d="M58.1,518.1h-0.2c-0.1-0.398-0.199-0.8-0.399-1.198c2,0.8,4.2,1.3,6.399,1.3
	c11.4,0,20.601-12,20.601-26.7c0-13.2-7.4-24.2-17.101-26.3c9.601-2.7,18.4-2.4,26-0.8l-0.2,0.898
	c4.699,7.102,7.699,16.8,7.699,26.9c0,20.2-11.3,36.5-25.3,36.5C67.6,528.7,62.7,526.6,58.1,518.1z"/>
<path fill="#FFFFFF" stroke="#000000" d="M67.4,465.2c9.7,2.1,17.101,13.1,17.101,26.3c0,14.8-9.2,26.7-20.601,26.7
	c-2.199,0-4.399-0.5-6.399-1.3c-1.601-5.602-2.4-11.802-2.4-18.2c0-12.4,3.2-23.7,8.4-32.3C64.9,465.9,66.1,465.5,67.4,465.2z"/>
<path fill="#FFFFFF" stroke="#000000" d="M222,444.5c11.399,0,16.5,8,16.5,22.8s-9.2,26.7-20.6,26.7c-2.199,0-4.399-0.5-6.399-1.3
	c-1.601-5.602-2.4-11.8-2.4-18.2c0-10.8,2.4-20.8,6.5-28.9l0.9,0.4C216.5,446,218.6,445.3,222,444.5L222,444.5z"/>
<path fill="#FFFFFF" stroke="#000000" d="M212,494h-0.1c-0.1-0.4-0.3-0.9-0.399-1.3c2,0.898,4.2,1.3,6.399,1.3
	c11.4,0,20.601-12,20.601-26.7c0-14.8-5.101-22.8-16.5-22.8v-0.1c5.8-1.5,15.5-3.5,25.1-3.4c4.8,7.1,7.8,16.8,7.8,26.9
	c0,20.198-11.3,36.5-25.3,36.5C221.6,504.5,216.6,502.5,212,494z"/>
<path fill="#FFFFFF" stroke="#000000" d="M269.9,448.9c3.2,7.398,5,16.198,5,25.6c0,26.6-14.699,48.2-32.899,48.2
	c-13.4,0-25-11.8-30.101-28.7h0.1c4.6,8.5,9.6,10.5,17.6,10.5c14,0,25.3-16.3,25.3-36.5c0-10.2-3-19.8-7.8-26.9
	C255.8,441.2,264.4,443.1,269.9,448.9z"/>
<path fill="#FFFFFF" stroke="#000000" d="M271.5,649.5c4,6,1.6,69.9-23,89c-18,14-33.3-31.1-24-37
	C249.5,685.5,271.5,649.5,271.5,649.5z"/>
<path fill="#FFFFFF" stroke="#000000" d="M432.199,434.3c29.801,8.102,41.2,61.8,25.399,119.9
	c-15.899,58.1-52.899,98.6-82.699,90.398c-29.801-8.1-41.2-61.8-25.399-119.898C365.3,466.7,402.3,426.2,432.199,434.3z"/>
<path fill="#FFFFFF" stroke="#000000" d="M333.199,78.6c0,0,82.301,71.7,75.2,187.8c0,0-48.2-45.6-109.3-18.3
	C299.1,248.1,317.9,85.1,333.199,78.6z"/>
<path fill="#FFFFFF" stroke="#000000" d="M189.3,725.5c-28.7,15.1-61.3,21.2-95.6,7.6c0,0,5.899-32.1-0.4-38.3
	c-0.3-0.3-0.5-0.5-0.9-0.7c0,0-17.8-22.898-29.5-27.398l0,0l0.2-0.5c0,0,69.101-72.7,76.4-124.7c0,0,10.5-57.2-4.3-100.2
	c-6.101-17.8-16.5-33.1-33.801-41c0,0-49.1-25.5-76.3,38.602c-1.7,4-3.3,8.398-4.899,13.198l-1,0.102c-2.5-40.3,34.1-108,60-150.3
	C93.1,279.2,104,263.7,104,263.7l1,0.2c-4.9,21.4-5.101,48.3,1.3,81.9l5.9-46.9c0,0,7,54.8,41.1,50.9c0,0-38.8-40.4-15.3-79.5
	c0,0,12.899,76.9,75.2,65.2c0,0-76.4-40.4-43.5-76.9c0,0,1.199,57.4,75.199,49.5c0,0-47-20.9-44.699-46.9c0,0,45.8,48.2,104.6,36.5
	c0,0-64.6-19.5-57.6-32.6c0,0,59.898,32.6,101.1,9.1c-1.3,0.4-69.5,18.5-88.1-90c0,0,34.1-28.7,65.8-144.7
	c0,0,123.399,56.1,158.699,203.4c0,0,28.2,62.6,49.399,88.7c0,0,50.5,163-29.399,267.299c0,0-51.699,88.699-157.5,100.399
	c0,0-47.199,85.5-108.8,78.3c-12.3-1.5-38-13-42-29C194.2,739.1,187.6,735.2,189.3,725.5z M346.5,410.5c-2-1.6-100.8-78.2-139.7,7
	C216.2,410.5,275.9,370.2,346.5,410.5z M211.5,492.7c0.1,0.398,0.3,0.898,0.399,1.3C217,510.9,228.6,522.7,242,522.7
	c18.2,0,32.899-21.602,32.899-48.2c0-9.4-1.8-18.2-5-25.6C264.1,435.3,253.8,426.3,242,426.3c-10.8,0-20.4,7.602-26.4,19.4
	c-4.1,8-6.5,18-6.5,28.898C209.1,480.9,209.9,487.1,211.5,492.7z M457.5,554.2c15.8-58.102,4.5-111.8-25.4-119.9
	c-29.8-8.1-66.899,32.4-82.699,90.4c-15.801,58.1-4.5,111.8,25.399,119.898C404.699,652.8,441.699,612.3,457.5,554.2z M408.5,266.4
	c7-116-75.2-187.8-75.2-187.8c-15.3,6.5-34.101,169.5-34.101,169.5C360.3,220.7,408.5,266.4,408.5,266.4z M248.5,738.5
	c24.6-19.1,27-83,23-89c0,0-22,36-47,52C215.2,707.4,230.5,752.5,248.5,738.5z"/>
<path fill="#FFFFFF" stroke="#000000" d="M231,180.3v1.5c-40.3-0.5-109.4,9.6-125.9,82.2l-1-0.2c0,0-10.8,15.4-24.8,38.2
	c-5.1-14.4-36-77.3-7-166c8.4-25.6,1.2-50.9,1.2-50.9c15.6,6.2,50.8,14,50.8,14C150.3,107,231,180.3,231,180.3z"/>
<path id="www.ABC-color.com" fill="#FFFFFF" stroke="#000000" d="M230.9,181.8c17.4,0.2,29.4,2.4,29.4,2.4
	c18.6,108.4,86.8,90.3,88.101,90C307.3,297.6,247.3,265.1,247.3,265.1c-7,13,57.601,32.6,57.601,32.6
	C246.1,309.4,200.3,261.2,200.3,261.2c-2.4,26.1,44.7,46.9,44.7,46.9c-74,7.8-75.2-49.5-75.2-49.5c-32.9,36.5,43.5,76.9,43.5,76.9
	c-62.3,11.7-75.2-65.2-75.2-65.2c-23.5,39.1,15.3,79.5,15.3,79.5c-34.1,3.9-41.1-50.9-41.1-50.9l-5.9,46.9
	c-6.399-33.6-6.199-60.5-1.3-81.9C121.5,191.4,190.7,181.3,230.9,181.8z"/>
<g>
	<path d="M327.8,39.8c7.5,7.1,14.601,14.6,21.601,22.3c6.899,7.7,13.601,15.6,20,23.7c12.8,16.2,24.601,33.3,34.8,51.2
		c10.3,17.9,19,36.7,25.3,56.4c6.2,19.7,9.9,40.3,9.301,60.9c0.399-20.7-3.399-41.2-9.801-60.8c-6.399-19.6-15.3-38.3-25.699-56.1
		c-10.399-17.8-22.301-34.7-35.2-50.7C361.701,78.7,355,70.8,348,63.2c-6.899-7.6-14.1-15-21.6-22L327.8,39.8z"/>
</g>
<g>
	<path d="M297,593.3c-1,2.9-0.9,5.9-0.5,8.7c0.398,2.9,1.3,5.7,2.398,8.4c0.5,1.398,1.201,2.698,1.801,4
		c0.601,1.3,1.4,2.6,2.101,3.898c1.5,2.602,3.101,5.102,4.7,7.602c-2.301-2-4.301-4.302-6-6.802c-1.801-2.398-3.301-5.198-4.5-8
		c-1.102-2.8-2-5.898-2.102-9c-0.1-1.5,0-3.1,0.302-4.6C295.6,596,296.1,594.5,297,593.3z"/>
</g>
<g>
	<path d="M298.4,612c-3.101,5.8-6.601,11.5-10.101,17.1c-3.6,5.602-7.3,11-11.2,16.4c-7.8,10.7-16.2,21-25,30.8
		c-9,9.7-18.5,19-28.8,27.4c-5.2,4.2-10.5,8.1-16,11.8c-5.5,3.6-11.2,7-17.1,10c5.699-3.3,11.3-6.9,16.6-10.8
		c5.4-3.8,10.6-7.9,15.6-12.2c10-8.5,19.5-17.8,28.301-27.5c9-9.7,17.3-19.9,25.3-30.4c4-5.198,7.899-10.6,11.601-16
		C291.3,623.1,295,617.6,298.4,612z"/>
</g>
<g>
	<path d="M230.2,443.7c-2.301-1.4-4.4-3.102-6.301-5c-1.899-1.9-3.5-4.102-4.5-6.7c-1-2.5-1.1-5.4-0.199-7.9
		c0.899-2.5,2.5-4.698,4.3-6.5c-1.7,1.9-3.2,4.2-3.9,6.7c-0.7,2.5-0.399,5.102,0.601,7.4s2.699,4.3,4.6,6c1.901,1.7,4,3.2,6.2,4.3
		L230.2,443.7z"/>
</g>
<g>
	<path d="M258.1,442.9c-2.399-1.7-4.5-3.5-6.5-5.602c-2-2.1-3.8-4.398-4.899-7.1c-0.601-1.3-0.9-2.8-0.9-4.3s0.4-2.9,1.2-4.2
		c1.5-2.5,4-4.102,6.5-5.3c-2.4,1.398-4.8,3.1-6,5.6c-0.601,1.2-0.9,2.6-0.9,3.9c0.101,1.3,0.5,2.6,1.101,3.898
		c1.199,2.4,3,4.5,5,6.4c2,1.898,4.199,3.6,6.5,5L258.1,442.9z"/>
</g>
<g>
	<path d="M242.5,443.5c-1.8-1.6-3.4-3.4-4.9-5.3c-1.399-1.9-2.7-4-3.5-6.2c-0.899-2.2-1.3-4.6-1.1-7s1.1-4.6,2.5-6.5
		c-1.2,2-2,4.2-2,6.5c-0.101,2.3,0.5,4.5,1.5,6.6c1,2.102,2.3,3.9,3.8,5.7c1.5,1.7,3.2,3.3,4.9,4.7L242.5,443.5z"/>
</g>
<g>
	<path d="M79.1,464.1c-0.8-0.1-1.3-0.3-1.8-0.5c-0.5-0.198-1-0.5-1.5-0.8c-1-0.6-1.8-1.3-2.6-2.1c-1.601-1.5-2.801-3.3-3.9-5.102
		c-2.2-3.6-3.8-7.6-5.1-11.6c1.6,3.9,3.5,7.6,5.899,11c1.2,1.7,2.601,3.2,4.101,4.5c0.8,0.6,1.6,1.2,2.5,1.7
		c0.399,0.2,0.899,0.398,1.3,0.6C78.4,461.9,78.9,462,79.2,462L79.1,464.1z"/>
</g>
<g>
	<path d="M92.8,466.2c-2.3-1.5-4.4-3.102-6.4-5c-2-1.8-3.8-3.8-5.3-6s-2.8-4.602-3.5-7.2c-0.7-2.599-0.899-5.3-0.5-7.9
		c-0.3,2.602,0.101,5.302,1,7.7c0.9,2.5,2.2,4.7,3.8,6.7c1.601,2,3.5,3.9,5.5,5.5s4.2,3.1,6.4,4.4L92.8,466.2z"/>
</g>
<g>
	<path d="M105.4,468.8c-1.6-1.8-2.899-3.6-4.1-5.5c-1.2-1.898-2.2-3.898-3.1-6c-1.7-4.2-2.601-8.7-2.101-13.2
		c-0.2,4.5,1.101,8.802,3,12.802c1,2,2.101,3.8,3.4,5.6s2.7,3.5,4.2,4.9L105.4,468.8z"/>
</g>
<path fill="none" stroke="#000000" stroke-linecap="round" stroke-linejoin="round" d="M191.5,565.5c0,0,4-126,15-149"/>
<path fill="none" stroke="#000000" stroke-linecap="round" stroke-linejoin="round" d="M93.5,695.5c0,0,78-67,98-130"/>
</svg>
