<?xml version="1.0" encoding="utf-8"?>
<!-- Generator: Adobe Illustrator 15.0.0, SVG Export Plug-In . SVG Version: 6.00 Build 0)  -->
<!DOCTYPE svg PUBLIC "-//W3C//DTD SVG 1.1//EN" "http://www.w3.org/Graphics/SVG/1.1/DTD/svg11.dtd">
<svg version="1.1" id="layer_x5F_www.ABC-color.com"
	 xmlns="http://www.w3.org/2000/svg" xmlns:xlink="http://www.w3.org/1999/xlink" x="0px" y="0px" width="822px" height="567px"
	 viewBox="0 0 822 567" enable-background="new 0 0 822 567" xml:space="preserve">
<path fill="#FFFFFF" stroke="#000000" stroke-miterlimit="10" d="M541.9,218.3c25.5,12.2,32.3,48,15.199,80.101
	C540,330.4,505.4,346.501,479.9,334.3c-25.5-12.2-32.301-48-15.2-80.1C481.8,222.2,516.4,206.1,541.9,218.3z M523.1,288.6
	c8.601-16,5.2-33.898-7.6-40c-12.801-6.1-30.101,1.9-38.601,18c-8.601,16-5.2,34,7.601,40C497.3,312.7,514.6,304.7,523.1,288.6z"/>
<path fill="#FFFFFF" stroke="#000000" stroke-miterlimit="10" d="M515.5,248.6c12.699,6.1,16.199,24,7.6,40
	c-8.6,16-25.899,24.102-38.601,18c-12.699-6.1-16.199-24-7.6-40C485.5,250.5,502.8,242.5,515.5,248.6z"/>
<path fill="#FFFFFF" stroke="#000000" stroke-miterlimit="10" d="M311.699,238.7c12.7,6.1,16.2,24,7.601,40
	c-8.601,16-25.9,24.1-38.6,18c-12.7-6.101-16.2-24-7.601-40C281.7,240.6,299,232.6,311.699,238.7z"/>
<path fill="#FFFFFF" stroke="#000000" stroke-miterlimit="10" d="M337.8,214c25.5,12.2,32.3,48,15.2,80.1
	c-17.101,32-51.7,48.102-77.2,35.9s-32.3-48.1-15.2-80.1S312.3,201.8,337.8,214z M319.3,278.8c8.601-16,5.2-34-7.601-40
	c-12.8-6.1-30.1,1.9-38.6,18c-8.6,16-5.2,34,7.601,40C293.4,302.8,310.699,294.8,319.3,278.8z"/>
<path fill="#FFFFFF" stroke="#000000" stroke-miterlimit="10" d="M411.3,450.3l-55.7,59.2L314,449.2
	C318.699,455.7,352.8,498.1,411.3,450.3z"/>
<path fill="#FFFFFF" stroke="#000000" stroke-miterlimit="10" d="M595.9,388.3c-0.801,1.3-59.899,98.2-156.301,59.2
	c0,0-44.899-27.3-46.699-61.7l17.699-18.7C410.5,367.1,461.199,494.2,595.9,388.3z"/>
<path fill="#FFFFFF" stroke="#000000" stroke-miterlimit="10" d="M353.6,363.2L357,389c-122.4,106-166-36.7-166.6-38.7
	C251.9,453.3,353.6,363.2,353.6,363.2z"/>
<path id="www.ABC-color.com" fill="#FFFFFF" stroke="#000000" stroke-miterlimit="10" d="M190.4,350.3c0.6,2,44.2,144.7,166.6,38.7
	l-3.4-25.8C353.6,363.2,251.9,453.3,190.4,350.3z M313.6,448.7l-0.1-0.2C313.5,448.5,313.6,448.6,313.6,448.7z M314,449.2l41.5,60.2
	l55.699-59.2C352.8,498.1,318.699,455.7,314,449.2z M595.9,388.3C461.3,494.2,410.5,367.1,410.5,367.1l-17.7,18.7
	c1.899,34.4,46.7,61.7,46.7,61.7C536,486.5,595.1,389.6,595.9,388.3z M702,15c16.8,24.2,16.8,41.3-130,56c0,0-137.5,25.2-51,93.8
	c0,0,123.399,58.3,148.199,157.5c0,0,70.399,147.8-125.199,202.7c0,0-96,17-103,3c0,0-75,64-162-14c0,0-164.5,12-157-168
	c0,0-3.9-160.8,222-195c0,0,87-34,129.5-68.4c0,0,82.5-44.6,199.5-48.6c0,0,41-14-125-18C548,16,694.8,4.7,702,15z M557.1,298.4
	c17.2-32,10.4-67.9-15.199-80.102c-25.5-12.2-60.101,3.9-77.2,35.9c-17.101,32-10.3,67.898,15.2,80.1
	C505.4,346.6,540,330.5,557.1,298.4z M353,294.1c17.1-32,10.3-67.898-15.2-80.1s-60.1,3.9-77.2,35.9s-10.3,67.9,15.2,80.1
	C301.199,342.2,335.8,326.1,353,294.1z"/>
<path fill="none" stroke="#000000" d="M354.8,355.1c0,0-7.8,94.302,61.601,4.602"/>
</svg>
