<?xml version="1.0" encoding="utf-8"?>
<!-- Generator: Adobe Illustrator 15.0.0, SVG Export Plug-In . SVG Version: 6.00 Build 0)  -->
<!DOCTYPE svg PUBLIC "-//W3C//DTD SVG 1.1//EN" "http://www.w3.org/Graphics/SVG/1.1/DTD/svg11.dtd">
<svg version="1.1" id="layer_x5F_www.ABC-color.com"
	 xmlns="http://www.w3.org/2000/svg" xmlns:xlink="http://www.w3.org/1999/xlink" x="0px" y="0px" width="822px" height="567px"
	 viewBox="0 0 822 567" enable-background="new 0 0 822 567" xml:space="preserve">
<path fill="#FFFFFF" stroke="#262424" stroke-miterlimit="10" d="M525.3,132.9l-0.3,0.6c-25.301,10.9-79.301,16.9-99.101,51.4
	c-4.5,1.2-7,1.9-7,1.9c-6.2-29,87.899-56.5,97-59.1C518.699,129.4,521.9,131.3,525.3,132.9z"/>
<path fill="#FFFFFF" stroke="#262424" stroke-miterlimit="10" d="M515.8,127.7c-5.399-3.3-9.3-6.2-9.3-6.2c-0.301,0-0.7-0.1-1-0.1
	c8.1-2.2,43-1.4,43-1.4c9.5,7.5,45,16,54,14c0.699-0.2-1.7,0.2-3-0.1c-8.801-2.2-39-18.4-39-18.4l30-6c10.8,5.4,59.5,13.7,61,14
	c-19.5-8.5-48.5-13-50-16.5s56.5-7,56.5-7c5.899,9.8,46.199,19.2,47.5,19.5c-8.2-3.2-34.801-19.1-39.7-22c7.7,2.7,55.7-12,55.7-12
	c4,8.5,25,19.5,25,19.5c-12-12-17-21-17-21c0.5-3,57-8.5,57-8.5c-4-6-59,3-59,3c4.399-3.9,11.3-25.3,11.5-26
	c-0.5,0.6-10.2,12.8-19,23.5c-9.301,11.4-55.5,15-55.5,15C666,90,687,59,687,59c-13,1-31,34-31,34c-5,5.5-60.5,7-60.5,7
	c6.5-6.5,24-32.5,24-32.5c-5,3.5-29.5,28-34,31s-28,12-28,12c7-8,4-33,4-33c-4.5,9-7,35-13,35c-5.5,0-40.9-0.8-46.7-1
	C504.699,109,503,99,503,99c-5.301-9.7,0.399-9.6,0.399-9.6c0.199-5.9,3-10.3,7.199-13.5c11.4-8.9,32.601-8.9,32.601-8.9
	c16,5.8,37.2-12.8,37.2-12.8c2.101-5,5.601-7.9,9.8-9.5c15.801-6,41.5,7.6,41.5,7.6c15.399,14.8,64.101-7.1,64.101-7.1
	c14.101-12.2,42.3-11.5,61.5-4.5c9.601,9,21.2,8.3,21.2,8.3c13.5-9.6,39.699,16.7,39.699,16.7c3.801,3.2-12.8,21.2-12.8,21.2
	c0,15.4-20.5,19.9-20.5,19.9c4.5,18-29.5,19.2-29.5,19.2c-17.301-9.6-28.899,10.9-28.899,10.9c-4.101,2.2-8.801,3.1-13.2,3.3
	c-9.899,0.4-18.8-2.6-18.8-2.6c-13.5-1.3-37.2,8.3-37.2,8.3c-1.601,3.8-6.399,6.1-11.399,7.5c-4.801,1.3-9.801,1.9-12.301,2
	c-1.199,0.1-1.899,0.1-1.899,0.1c-18.601-8.3-30.8-1.3-30.8-1.3c-22.5,8.5-35.301-6.1-36.5-7.6l-0.101-0.1
	c-8.3-7.1-22.399-9-22.399-9c-4.601,0.5-10.7-1.7-16.601-4.5C521.9,131.3,518.699,129.4,515.8,127.7z"/>
<path fill="#FFFFFF" stroke="#262424" stroke-miterlimit="10" d="M665.8,97.5c4.899,2.9,31.5,18.8,39.7,22
	c-1.301-0.3-41.601-9.7-47.5-19.5c0,0-58,3.5-56.5,7s30.5,8,50,16.5c-1.5-0.3-50.101-8.6-61-14l-30,6c0,0,30.3,16.2,39,18.4
	c1.3,0.3,3.699,0,3,0.1c-9,2-44.5-6.5-54-14c0,0-34.9-0.8-43,1.4c-92.5-11.8-97,61.6-97,61.6l-0.101,0.5
	c-4.5-1.1-8.899-1.9-13.301-2.3c1.7-5.1,29.5-85.9,104.4-69.3c1,0.2,1.699,0,2.3-0.5c5.8,0.1,41.2,1,46.7,1c6,0,8.5-26,13-35
	c0,0,3,25-4,33c0,0,23.5-9,28-12s29-27.5,34-31c0,0-17.5,26-24,32.5c0,0,55.5-1.5,60.5-7c0,0,18-33,31-34c0,0-21,31-22.5,32
	c0,0,46.199-3.6,55.5-15c8.8-10.7,18.5-22.9,19-23.5c-0.2,0.7-7.101,22-11.5,26c0,0,55-9,59-3c0,0-56.5,5.5-57,8.5c0,0,5,9,17,21
	c0,0-21-11-25-19.5C721.5,85.5,673.5,100.1,665.8,97.5z M665,97c0.199,0.2,0.399,0.3,0.8,0.5C665.4,97.2,665.1,97.1,665,97z"/>
<path fill="#FFFFFF" stroke="#262424" stroke-miterlimit="10" d="M716,245.5c-0.5-1-17.5-35-15-33s16-3.5,16-3.5s-26-3-25-5
	s-19.5-18.5-19.5-18.5c18,2.9,25.1-7.4,25.5-8c-0.5,0.5-11.5,11.5-34-2c-6.7-4-15.7-17.5-17.601-20.5l-0.5-1.8
	c5-1.4,9.8-3.7,11.399-7.5c0,0,23.7-9.6,37.2-8.3c0,0,8.899,3.1,18.8,2.6l0.101,1.3c0,0,37.601,31.1,25.601,45.1s11,32,1,40
	s3,34-13,38s-31,0-38-8s-27-5-33-15c-1.5-2.5-2.5-3.8-3.2-4.2l0.2-0.8c0,0-3-35-37-53l-0.301,0.3c-9.899-7.7-23.3-12.3-38.5-14.7
	l0.301-1.8c0.399,0-0.601-2.5-13.101-20.8c1.199,1.5,13.899,16.1,36.5,7.6c0,0,12.199-7.1,30.8,1.3c0,0,0.7,0,1.899-0.1v0.2
	c0,0,19.7,10.6,24.801,24.2c2.699,7.2,0.8,25.7,0.199,33.3c-1,12,8-27,8-27s23,19.5,23,24.5s3,11.5-3.5,24
	c-3.399,6.5,2,4.5,8.5-20.5L716,245.5z"/>
<path fill="#FFFFFF" stroke="#262424" stroke-miterlimit="10" d="M646.4,155c1.899,2.9,11,16.4,17.601,20.5c22.5,13.5,33.5,2.6,34,2
	c-0.4,0.6-7.5,10.9-25.5,8c0,0,20.5,16.5,19.5,18.5s25,5,25,5s-13.5,5.5-16,3.5s14.5,32,15,33L694.5,214c-6.5,25-11.9,27-8.5,20.5
	c6.5-12.5,3.5-19,3.5-24s-23-24.5-23-24.5s-9,39-8,27c0.6-7.5,2.5-26.1-0.2-33.3c-5.2-13.6-24.8-24.2-24.8-24.2v-0.2
	c2.6-0.2,7.6-0.7,12.3-2L646.4,155z"/>
<path id="ABC-color.com" fill="#FFFFFF" stroke="#262424" stroke-miterlimit="10" d="M514,305.8c13.699-5.8,31.6-9.8,50.399-3.8
	c8.101,2.6,16.399,7,24.601,14c-8-82-46-94-46-94c-47-11-54,99-54,99S498.9,312.3,514,305.8z M339.9,304.8
	c8.3,2.601,16.8,7.101,25.101,14.2c-8-82-46-94-46-94c-47-11-54,99-54,99s6.2-5.5,16.3-11C295.4,305.4,317,297.7,339.9,304.8z
	 M395.1,181.3c4.301,0.4,8.801,1.2,13.301,2.3c3.5,0.9,7,1.9,10.5,3.3c0,0,2.5-0.7,7-1.9c23.1-6.2,98.1-24.3,151.399-15.7
	c15.2,2.4,28.601,7,38.5,14.7c5,3.8,9,8.4,12.101,13.9C736,394,629.5,486.2,489,524c-2.9,0.8,43.5,9.3,74,10
	c26.899,0.6,37.1-6.9,39-6c19.899,9.6-46,26.3-70,24c-64-6-128.601-20-131-20c-260-4-238.5-232.1-243-258c-0.101-0.9-0.3-1.9-0.3-3
	c-0.7-25.8,31.1-112.1,115.6-105c20,1.7,43,8.6,69.2,22.8c0,0,1.399-0.6,4-1.5c1.8-0.7,4.199-1.4,7.1-2.2
	c1.601-0.5,3.4-0.9,5.301-1.3c2.3-0.5,4.8-1,7.5-1.4c3.101-0.5,6.5-0.9,10-1.2c3.601-0.3,7.5-0.4,11.399-0.2
	C390.3,180.9,392.699,181,395.1,181.3z M606,217.5c0,0-13.5,0.5-21-8.5c0,0-42-44.5-102.5,10c0,0-9.4,16.6-3.5,14.5
	c11.5-4,49.5-25,49.5-25s30-10.5,54.5,10C583,218.5,594,229,606,217.5z M516,364c5.699-6,24.6-6.7,2-11c-26-5-50,16-50,16
	s-16.801-13.7-27.601-19.3l0.101-0.2c-5-49-30.5-41.5-30.5-41.5c-22-2-24,40-24,40l0.1,1c-9.1,1.3-21.6,5.8-30.1,20c0,0-44-21-64-3
	c0,0,54,29,66,18c0,0,6.399-0.6,14.899-4.2L373,380c0,0,26,54,41,48s34-44,35-47l0.3-0.4c5.601,3.801,11.399,6.2,15.8,4.4
	C465,385,497,384,516,364z M373,238.5c5.899,2.1-3.5-14.5-3.5-14.5C309,169.5,267,214,267,214c-7.5,9-21,8.5-21,8.5
	c12,11.5,23,1,23,1c24.5-20.5,54.5-10,54.5-10S361.5,234.5,373,238.5z"/>
<path fill="#FFFFFF" stroke="#262424" stroke-miterlimit="10" d="M585,209c7.5,9,21,8.5,21,8.5c-12,11.5-23,1-23,1
	c-24.5-20.5-54.5-10-54.5-10s-38,21-49.5,25c-5.9,2.1,3.5-14.5,3.5-14.5C543,164.5,585,209,585,209z"/>
<path fill="#FFFFFF" stroke="#262424" stroke-miterlimit="10" d="M536.5,53.5L508,40l44.5-8.5c-6.7-0.5-43.9,5-47.301,5.5
	c5-1,27.301-18,27.301-18c-8-1-36,16.5-36,16.5l-38,8c3.5-3,8.8-17.5,9-18l-18,19c0,0-28.5,15.5-30,14S414,43,414,43
	c-5,5,0.5,18.5-1,20s-32.5,16.5-32.5,16.5C359,68,354.5,56,354.5,56c-5,4,16.5,28,11.5,27s-21,17-21,17l0,0
	c-17.5,0.8-26-19.3-30-24.8c-0.7-1-0.9-2.3-0.801-3.7c0.399-4.4,3.801-9.7,3.801-9.7c13.8-5.9,17.1-17.6,30-22.2
	c10.899-3.9,23.899,9.3,34.1,6.2c8.5-2.6,23.9-19.1,31.9-21.2c7.199-1.9,10.199,8.3,17,6.8c8.699-2,27.5-13.8,35.5-15.3
	c7.8-1.4,12.399,5,19.5,4c10.8-1.5,14.1-7.3,23-8c11.899-0.9,12.199-8,20.5-8C546.6,4,548,9,548,9c5.3,4,28.6,2.6,29,11.5
	c0.199,4.4,18.3,1.6,22,3c10.1,3.9,5.699,7.8-8.801,20.7v0.4c-4.199,1.6-7.699,4.6-9.8,9.5c0,0-21.2,18.6-37.2,12.8
	c0,0-21.101,0-32.601,8.9l-0.5-0.6c-2.5,1-5.1,2.2-7.899,3.5c-10.199,5-18,10.8-29.699,12.2c-12.9,1.6-22.4,15.4-33.7,16.4
	c-10.899,1.1-22.601-1-29.8-0.1c-8.101,1-13.301,3.7-19.601,2.8c-5.801-0.8-15.601-1.2-20-3c-7.601-3-11.601-3-13.801-2.2
	c7.5-12,19-14,19-14c6.5,3.5,49,4,49,4c-0.5-3.5-38-8-38-8l30-14c7,8.5,41,7.5,41,7.5c-2.5-2.5-31.5-14-31.5-14L450,54
	c2.5,2,41.3,15.1,42.5,15.5C477,62,463,51,463,51l31.5-8.5C498.9,47.4,535.3,53.3,536.5,53.5z"/>
<path fill="#FFFFFF" stroke="#262424" stroke-miterlimit="10" d="M589,316c-8.2-7-16.5-11.5-24.601-14l0.601-2
	c-3-16-13-39.5-13-39.5L530.5,277l17.5-23c-3-10-15-9-15-9c-15.5-1-18.801,56.8-19,60.8c-15.101,6.5-25,15.2-25,15.2s7-110,54-99
	C543,222,581,234,589,316z"/>
<path fill="#FFFFFF" stroke="#262424" stroke-miterlimit="10" d="M565,300l-0.601,2c-18.801-6-36.7-2-50.399,3.8
	c0.199-4,3.5-61.8,19-60.8c0,0,12-1,15,9l-17.5,23l21.5-16.5C552,260.5,562,284,565,300z"/>
<path fill="#FFFFFF" stroke="#262424" stroke-miterlimit="10" d="M505.199,37c3.301-0.5,40.601-5.9,47.301-5.5L508,40l28.5,13.5
	c-1.101-0.2-37.5-6.1-42-11L463,51c0,0,14,11,29.5,18.5c-1.2-0.4-40-13.5-42.5-15.5l-25,12.5c0,0,29,11.5,31.5,14c0,0-34,1-41-7.5
	l-30,14c0,0,37.5,4.5,38,8c0,0-42.5-0.5-49-4c0,0-11.5,2-19,14c-2.301,0.8-2.5,2.5-2.5,2.5c-4,16,35,73,35,73v0.3
	c-4-0.1-7.801,0-11.4,0.2l-0.1-1c-43.101-78.6-32.2-80-31.5-80l0,0c0,0,16-18,21-17s-16.5-23-11.5-27c0,0,4.5,12,26,23.5
	c0,0,31-15,32.5-16.5s-4-15,1-20c0,0,4,14,5.5,15.5s30-14,30-14l18-19c-0.2,0.5-5.5,15-9,18l38-8c0,0,28-17.5,36-16.5
	C532.5,19,510.3,35.9,505.199,37z"/>
<path fill="#FFFFFF" stroke="#262424" stroke-miterlimit="10" d="M518,353c22.6,4.3,3.699,5-2,11c-19,20-51,21-51,21
	c-4.301,1.8-10.101-0.6-15.801-4.4c-3.899-2.6-7.699-5.898-10.899-9C433.4,366.9,430,362.9,430,362.9c-12,15-35,1-35,1
	c-3,3.399-6.2,6.199-9.4,8.5c-4.399,3.199-8.8,5.601-12.699,7.301c-8.5,3.6-14.899,4.199-14.899,4.199c-12,11-66-18-66-18
	c20-18,64,3,64,3c8.5-14.199,21-18.699,30.1-20c6.9-0.899,11.9,0,11.9,0c14,11,34-1,34-1c1.1-1.399,4.3-0.399,8.399,1.699
	C451.199,355.3,468,369,468,369S492,348,518,353z"/>
<path fill="#FFFFFF" stroke="#262424" stroke-miterlimit="10" d="M431.8,384.2c2.101-3.4,4.101-7.4,6.2-12.2l0.3-0.3
	c3.2,3,7,6.3,10.899,9L449,381c-1,3-20,41-35,47s-41-48-41-48l-0.101-0.2c3.899-1.7,8.3-4,12.699-7.3l0.4,0.5c0,0,2.199,5.4,6,11.3
	C400,396.8,415.199,411.9,431.8,384.2z"/>
<path fill="#FFFFFF" stroke="#262424" stroke-miterlimit="10" d="M440.5,349.5l-0.101,0.2c-4.101-2.101-7.301-3.101-8.399-1.7
	c0,0-20,12-34,1c0,0-5-0.9-11.9,0l-0.1-1c0,0,2-42,24-40C410,308,435.5,300.5,440.5,349.5z"/>
<path fill="#FFFFFF" stroke="#262424" stroke-miterlimit="10" d="M438.3,371.7L438,372c-2.101,4.8-4.101,8.8-6.2,12.2
	c-0.899-1.2-4.899-5.101-18.3-1.2c-6.5-5.5-21,1-21,1l-0.5,0.3c-3.801-5.899-6-11.3-6-11.3l-0.4-0.5c3.2-2.3,6.4-5.2,9.4-8.5
	c0,0,23,14,35-1C430,363,433.4,367,438.3,371.7z"/>
<path id="www.ABC-color.com" fill="#FFFFFF" stroke="#262424" stroke-miterlimit="10" d="M413.5,383c13.399-3.9,17.5,0.1,18.3,1.2
	c-16.601,27.7-31.8,12.6-39.8,0.1l0.5-0.3C392.5,384,407,377.5,413.5,383z"/>
<path fill="#FFFFFF" stroke="#262424" stroke-miterlimit="10" d="M369.5,224c0,0,9.399,16.6,3.5,14.5c-11.5-4-49.5-25-49.5-25
	s-30-10.5-54.5,10c0,0-11,10.5-23-1c0,0,13.5,0.5,21-8.5C267,214,309,169.5,369.5,224z"/>
<path fill="#FFFFFF" stroke="#262424" stroke-miterlimit="10" d="M366.5,182v0.2c-2.7,0.4-5.2,0.9-7.5,1.4v-0.1c0,0-16.5-57-71-86.4
	c-6.9,0.6-31.5-5.1-31.5-5.1c-22,25.5-44.5,28-44.5,28c10.5-6,37.5-30.5,37.5-30.5l-38.5-7c-20.6,16.5-37.6,20.9-45.2,22.1
	c15.2-3.2,36.7-23.1,36.7-23.1c-19-8.5-46-10-46-10c-35.7,32.3-43.7,24.8-44,24.5c9.5,5.5,34-25,34-25L113,64
	c0.399,3.5-11.3,11.2-16.5,14.5c4.8-4.3,13.5-16,13.5-16C85.4,65,44.2,49,43,48.5c1.399,0.4,49.7,12.4,67,7c5.7-1.8-10-21.5-10-21.5
	s13.5,5,14.5,22.5l36,7.5c0,0-6.5-27.5-17.5-33c0,0,16,3,24.5,31.5l50,8.5c0,0-17-31-27.5-31.5c0,0,13.5-5,38,34l31.5,9
	c0,0-5-21-18.5-25c1.1,0.2,18.8,3.2,30.5,24.5c0,0,22.3,4.5,30.399,8C291.9,90,349.5,116,366.5,182z"/>
<path fill="#FFFFFF" stroke="#262424" stroke-miterlimit="10" d="M353.699,185c-2.899,0.8-5.3,1.6-7.101,2.2l-0.1-0.7
	c0,0-23.101-30.9-67.5-35.8c-10.601-1.2-22.5-0.8-35.5,1.8l-6.5,13l-8.5,3l5.899-13.1L186,176.9l-13.6,37.2l5.801-33.7l-18.601,10
	l-15.1,39.8l4.6-29.7l-43.8,39.3l40.1-44.9l-31.6-3.4L154,186l26.399-13.5L121.7,157.9l67.899,10.7l39.2-17.6c0,0-44.5-5.1-51.5-6.9
	c-7.1-1.8,58.7,6.5,68.7,0c0,0,14.899-1.5,34,0.5C305.6,147.4,338.699,156.7,353.699,185z"/>
<path fill="#FFFFFF" stroke="#262424" stroke-miterlimit="10" d="M365,319c-8.4-7.1-16.801-11.6-25.101-14.2
	c-1.5-13-14.399-39.3-14.399-39.3l-19.5,14l15-22.5l-5-10c-24-16-35,65-35,65l0.3,1c-10.1,5.5-16.3,11-16.3,11s7-110,54-99
	C319,225,357,237,365,319z"/>
<path fill="#FFFFFF" stroke="#262424" stroke-miterlimit="10" d="M325.5,265.5c0,0,12.899,26.3,14.399,39.3
	c-22.899-7.1-44.5,0.601-58.5,8.2l-0.3-1c0,0,11-81,35-65l5,10l-15,22.5L325.5,265.5z"/>
<path fill="#FFFFFF" stroke="#262424" stroke-miterlimit="10" d="M165.7,104.6c-2.7,0.4-4.2,0.4-4.2,0.4
	C162.8,105,164.2,104.9,165.7,104.6z M165.8,104.6c7.6-1.2,24.7-5.6,45.2-22.1l38.5,7c0,0-27,24.5-37.5,30.5c0,0,22.5-2.5,44.5-28
	c0,0,24.6,5.6,31.5,5.1c0,0,6.7,17-4,29.4c-1.3,1.4-3.601,2.7-6.3,3.9c-3.9,1.7-8.601,3.2-11.801,4.6c-5.8,2.6-13.3-0.6-22.399-0.5
	c-8.2,0.1-18.4,5.5-30.5,6c-12.5,0.5-26-6-40.5-6c-13.2,0-27.3,6.6-40.5,5.5c-5.8-0.5-11-2.1-15.9-4.2c-8.5-3.5-16.2-8.2-24.6-10.8
	c-10.3-3.2-20.4-2.6-28-8c-7-5-12.3-13.2-16-20.5c0,0-8.7-3.9-15.5-15.2c-3.601-6-5.601-17-9-23.8C16,43.7,8.9,34.1,11,27
	c0,0,11,2.9,28.5-0.5C48,24.9,56,16.5,69,15.6c9.7-0.7,25.7,2.7,38,2.9c8.1,0.1,11.7-3.3,20.899-2.6c9.4,0.7,19.5,5.3,30.101,6.6
	c8.2,1,16.7-1.4,25.7,0.1c10,1.7,25.3,10,36.3,12.4c13.1,2.8,21.899-0.3,36.399,3.6C273.5,43.2,280,40.8,299,47
	c0,0,13.899,13.3,14.199,20c0.101,1.4,0.101,2.9-0.101,4.3c-0.8,8.2-5.5,16.8-21.3,18.7c-8.1-3.5-30.4-8-30.4-8
	C249.8,60.7,232,57.7,230.9,57.5c13.5,4,18.5,25,18.5,25l-31.5-9c-24.5-39-38-34-38-34C190.5,40,207.5,71,207.5,71l-50-8.5
	C149,34,133,31,133,31c11,5.5,17.5,33,17.5,33l-36-7.5C113.5,39,100,34,100,34s15.7,19.7,10,21.5c-17.3,5.4-65.601-6.6-67-7
	c1.2,0.5,42.3,16.5,67,14c0,0-8.7,11.7-13.5,16C95,79.4,94,80,94,80c0.5,0,1.399-0.6,2.5-1.5c5.2-3.3,16.899-11,16.5-14.5l33.5,7
	c0,0-24.5,30.5-34,25c0.3,0.3,8.3,7.8,44-24.5c0,0,27,1.5,46,10C202.5,81.5,181,101.4,165.8,104.6z"/>
<path fill="#FFFFFF" stroke="#262424" stroke-miterlimit="10" d="M279,130.5c6,6.5,1,14,1,14l0,0c-19.101-2.1-34-0.5-34-0.5
	c-10,6.5-75.7-1.8-68.7,0s51.5,6.9,51.5,6.9l-39.2,17.6l-67.9-10.7l58.699,14.6L154,186l-40.2,5.5l31.6,3.4l-40.1,44.9l43.8-39.3
	l-4.6,29.7l15.1-39.8l18.601-10l-5.801,33.7l13.6-37.2l48.5-21.5l-5.9,13.1l8.5-3l6.5-13c13-2.6,24.9-2.9,35.5-1.8v0.3
	c5.5,3-5.5,13-5.5,13l-0.2,2c-84.5-7.1-116.3,79.2-115.6,105h-0.7c-6.3-7.1-15.8,2.5-26.899,7.6c-11.101,5.1-30.5-13.2-46.5-15.6
	s-12.9-35.3-21.4-42.6c-8.5-7.3,25.8-32.4,22.4-48.3c-3.2-14.7,24.3-34.4,31.5-36.3c4.899,2,10.1,3.7,15.899,4.2
	c13.3,1.2,27.4-5.5,40.5-5.5c14.5,0,28.101,6.5,40.5,6c12-0.5,22.3-5.9,30.5-6c9.101-0.1,16.7,3.1,22.4,0.5
	c3.1-1.4,7.8-2.9,11.8-4.6L279,130.5z"/>
<g>
	<path fill="#262424" d="M344,465c6.199,4.3,12.899,7.8,19.8,10.8c6.899,3,14,5.4,21.3,7.2c14.601,3.6,29.801,4.8,44.7,3.3
		c15-1.398,29.601-5.3,43.399-11.3c6.899-3,13.601-6.5,20-10.3c6.5-3.8,12.7-8.102,18.7-12.602l0,0l0,0
		c-11.899,9.2-24.801,17.2-38.601,23.2s-28.5,10.102-43.5,11.5c-15,1.4-30.2,0.2-44.8-3.5c-7.301-1.8-14.5-4.3-21.301-7.3
		C356.8,472.9,350.1,469.4,344,465L344,465L344,465z"/>
</g>
</svg>
