<?xml version="1.0" encoding="utf-8"?>
<!-- Generator: Adobe Illustrator 15.0.0, SVG Export Plug-In . SVG Version: 6.00 Build 0)  -->
<!DOCTYPE svg PUBLIC "-//W3C//DTD SVG 1.1//EN" "http://www.w3.org/Graphics/SVG/1.1/DTD/svg11.dtd">
<svg version="1.1" id="Layer_1" xmlns="http://www.w3.org/2000/svg" xmlns:xlink="http://www.w3.org/1999/xlink" x="0px" y="0px"
	 width="567px" height="822px" viewBox="0 0 567 822" enable-background="new 0 0 567 822" xml:space="preserve">
<title>Rabbit masks</title>
<desc>Vector coloring rabbit masks</desc>
<path fill="#FFFFFF" stroke="#000000" d="M223.83,576c2.03,0,3.67,2.54,3.67,5.67s-1.64,5.66-3.67,5.66c-2.02,0-3.66-2.53-3.66-5.66
	S221.81,576,223.83,576z"/>
<path fill="#FFFFFF" stroke="#000000" d="M329.83,594c2.03,0,3.67,2.54,3.67,5.67s-1.64,5.66-3.67,5.66
	c-2.021,0-3.66-2.53-3.66-5.66S327.81,594,329.83,594z"/>
<path fill="#FFFFFF" stroke="#000000" d="M200.83,564c2.03,0,3.67,2.54,3.67,5.67s-1.64,5.66-3.67,5.66c-2.02,0-3.66-2.53-3.66-5.66
	S198.81,564,200.83,564z"/>
<path fill="#FFFFFF" stroke="#000000" d="M204.83,594c2.03,0,3.67,2.54,3.67,5.67s-1.64,5.66-3.67,5.66c-2.02,0-3.66-2.53-3.66-5.66
	S202.81,594,204.83,594z"/>
<path fill="#FFFFFF" stroke="#000000" d="M340.83,571c2.03,0,3.67,2.54,3.67,5.67s-1.64,5.66-3.67,5.66
	c-2.021,0-3.66-2.53-3.66-5.66S338.81,571,340.83,571z"/>
<path fill="#FFFFFF" stroke="#000000" d="M327.07,684.12c7.688-13.01,13.688-28.91,17.398-46.67c-29.59-0.82-52.97-3.76-62.55-24.45
	c-0.15-0.31-0.29-0.63-0.43-0.95c0,0-0.17,0.142-0.5,0.42c-4.12,3.34-33.03,25.96-62.82,25.96c-3.99,0-7.89-0.188-11.69-0.568
	c3.23,15.29,8.17,29.21,14.41,41.068c13.42,25.472,32.88,41.49,54.54,41.49C295.58,720.42,313.83,706.56,327.07,684.12z
	 M326.49,554.09c1.51-0.979,3.028-1.938,4.55-2.88c14.75-6.31,31.09-10.21,47.79-10.21c60.06,0,80.84,24.97,81.688,57.95
	c0.7,27.58-13.898,55.6-64,91.398c-59.56,35.882-114.878,72.71-114.878,72.71l-0.06,0.092c-6.22-4.131-58.37-38.631-114.25-72.302
	c-50.11-35.81-64.7-63.818-64-91.398c0.84-32.98,21.62-57.95,81.68-57.95c18.75,0,37.05,4.91,53.13,12.62
	c0.52,0.33,1.04,0.66,1.56,1c0.6,0.39,1.2,0.78,1.79,1.17c14.81,9.71,28.4,20.38,40.55,31.65c0,0,0.19-0.16,0.55-0.45
	c4-3.3,29.08-23.83,43.74-33.3C326.38,554.16,326.44,554.12,326.49,554.09z M359.5,590.67c0-3.13-1.64-5.67-3.67-5.67
	c-2.021,0-3.66,2.54-3.66,5.67s1.64,5.66,3.66,5.66C357.86,596.33,359.5,593.8,359.5,590.67z M344.5,576.67
	c0-3.13-1.64-5.67-3.67-5.67c-2.021,0-3.66,2.54-3.66,5.67s1.64,5.66,3.66,5.66C342.86,582.33,344.5,579.8,344.5,576.67z
	 M333.5,599.67c0-3.13-1.64-5.67-3.67-5.67c-2.021,0-3.66,2.54-3.66,5.67s1.64,5.66,3.66,5.66
	C331.86,605.33,333.5,602.8,333.5,599.67z M227.5,581.67c0-3.13-1.64-5.67-3.67-5.67c-2.02,0-3.66,2.54-3.66,5.67
	s1.64,5.66,3.66,5.66C225.86,587.33,227.5,584.8,227.5,581.67z M208.5,599.67c0-3.13-1.64-5.67-3.67-5.67
	c-2.02,0-3.66,2.54-3.66,5.67s1.64,5.66,3.66,5.66C206.86,605.33,208.5,602.8,208.5,599.67z M204.5,569.67
	c0-3.13-1.64-5.67-3.67-5.67c-2.02,0-3.66,2.54-3.66,5.67s1.64,5.66,3.66,5.66C202.86,575.33,204.5,572.8,204.5,569.67z"/>
<path fill="#FFFFFF" stroke="#000000" d="M355.83,585c2.03,0,3.67,2.54,3.67,5.67s-1.64,5.66-3.67,5.66
	c-2.021,0-3.66-2.53-3.66-5.66S353.81,585,355.83,585z"/>
<path fill="#FFFFFF" stroke="#000000" d="M283.78,532.41c0.24,2.33-4.73,4.858-11.08,5.648c-6.36,0.79-11.7-0.448-11.93-2.778
	s4.73-4.86,11.09-5.65C278.21,528.84,283.55,530.09,283.78,532.41z"/>
<path fill="#FFFFFF" stroke="#000000" d="M318.81,533.87c5.16,4.49,8.2,10.02,8.2,15.99c0,1.12-0.108,2.22-0.318,3.3
	c-0.052,0.31-0.12,0.62-0.2,0.93c-0.05,0.03-0.11,0.07-0.16,0.102c-14.66,9.47-39.74,30-43.74,33.3c-0.36,0.29-0.55,0.45-0.55,0.45
	c-12.15-11.271-25.74-21.94-40.55-31.65c-0.09-0.21-0.17-0.42-0.23-0.63c-0.64-1.87-0.98-3.812-0.98-5.8
	c0-8.12,5.62-15.41,14.55-20.41c7.65-4.3,17.74-6.91,28.81-6.91C298.109,522.54,310.93,527.01,318.81,533.87z M272.7,538.06
	c6.35-0.79,11.319-3.318,11.08-5.648c-0.23-2.32-5.57-3.57-11.92-2.78c-6.36,0.79-11.32,3.32-11.09,5.65S266.34,538.85,272.7,538.06
	z"/>
<path fill="#FFFFFF" stroke="#000000" d="M275.01,688.85c0.86-0.119,4.02-46.39,5.98-76.38c0.33-0.278,0.5-0.42,0.5-0.42
	c0.14,0.32,0.28,0.642,0.43,0.95c-0.21,13.53-1.08,75.46,0.04,75.62c18.021,2.52,34.82-1.3,45.11-4.5
	c-13.24,22.438-31.49,36.3-51.64,36.3c-21.66,0-41.12-16.02-54.54-41.49C224.07,681.94,239.18,693.87,275.01,688.85z"/>
<path fill="#FFFFFF" stroke="#000000" d="M344.47,637.45c-3.71,17.76-9.71,33.66-17.398,46.67c-10.29,3.2-27.091,7.02-45.11,4.5
	c-1.12-0.16-0.25-62.09-0.04-75.62C291.5,633.69,314.88,636.63,344.47,637.45z"/>
<path fill="#FFFFFF" stroke="#000000" d="M280.99,612.47c-1.96,29.99-5.12,76.261-5.98,76.38c-35.83,5.021-50.94-6.908-54.12-9.92
	c-6.24-11.858-11.18-25.778-14.41-41.068c3.8,0.38,7.7,0.568,11.69,0.568C247.96,638.43,276.87,615.81,280.99,612.47z"/>
<path fill="#FFFFFF" stroke="#000000" d="M450.5,512.73c31.16,0.43,55.77,11.688,67.3,34.028
	c24.852,48.15-20.59,129.57-101.49,181.83c-44.43,28.71-86.96,43.36-125.188,43.3c-6.79-0.01-27.15-1.1-27.15-1.1
	c-34.14-1.89-74.77-15.75-114.26-41.26C68.81,677.26,23.37,595.85,48.22,547.69c12.77-24.75,41.61-35.9,77.6-33.802
	c18.23,1.062,38.29,5.512,59.03,13.32c4.3,1.62,8.63,3.38,12.98,5.29c9.1,3.99,18.29,8.61,27.46,13.85
	c4.29,2.45,8.58,5.04,12.85,7.771c-16.08-7.71-34.38-12.62-53.13-12.62c-60.06,0-80.84,24.97-81.68,57.95
	c-0.7,27.58,13.89,55.59,64,91.398c55.88,33.67,108.03,68.17,114.25,72.302l0.06-0.092c0,0,55.32-36.828,114.878-72.71
	c50.102-35.8,64.7-63.818,64-91.398C459.67,565.97,438.89,541,378.83,541c-16.7,0-33.04,3.9-47.79,10.21
	c2.22-1.38,4.44-2.72,6.66-4.02c13.38-7.87,26.818-14.392,40-19.57c4.39-1.73,8.75-3.3,13.068-4.73
	C412.03,515.87,432.37,512.46,450.5,512.73z"/>
<path fill="#FFFFFF" stroke="#000000" d="M258.74,449.66c-0.26-1.73-9.98-64.74-47.36-47.311c-37.89,17.669-8.21,8.48-8.21,8.48
	S246.1,396.71,258.74,449.66z M230.33,348.63l0.03-0.5c-12.11-36.1-30.02-76.96-46.19-106.2c-33.92-61.39-78.06-101.17-98.58-88.85
	c-20.52,12.31-9.66,72.05,24.27,133.44c18.15,32.84,48.03,74.61,75.04,104.47C184.9,390.99,190.42,346.62,230.33,348.63z
	 M314.01,455.32c12.65-52.96,55.57-38.83,55.57-38.83s29.68,9.18-8.21-8.48C324,390.58,314.27,453.59,314.01,455.32z M392.97,376.85
	c23.54-29.82,48.262-68.32,63.71-98.25c31.392-60.84,40.352-120.82,20.012-133.96c-20.342-13.14-62.28,25.53-93.66,86.38
	c-15.222,29.47-31.682,72.26-42.312,110.03C340.72,341.05,378.89,338.12,392.97,376.85z M412.86,376.92
	C435.26,408.41,450.02,453,450.5,512.73c-18.13-0.271-38.47,3.14-59.73,10.158c0.512-4.608,0.762-9.37,0.762-14.25
	c0-39.42-16.82-71.38-37.57-71.38c-20.76,0-37.58,31.96-37.58,71.38c0,8.88,0.86,17.392,2.43,25.23
	c-7.88-6.86-20.699-11.33-35.168-11.33c-11.07,0-21.16,2.609-28.81,6.91c1.82-8.37,2.82-17.551,2.82-27.17
	c0-39.42-16.83-71.381-37.58-71.381s-37.58,31.961-37.58,71.381c0,8.77,0.83,17.17,2.36,24.93c-20.74-7.811-40.8-12.26-59.03-13.32
	c5.67-52.488,18.84-92.08,36.6-121.51c-40.21-62.75-79.17-129.94-99.04-168.44C17.11,134.26,1.96,47.1,29.55,29.28
	c27.59-17.83,87.47,40.43,133.74,130.12c18.56,35.98,46.62,101.68,71.79,168.61c20.54-8.52,42.01-11.95,62.67-11.95
	c11.8,0,23.79,1.52,35.6,4.67c24.53-64.72,51.41-127.43,69.392-162.27C449.01,68.77,508.89,10.52,536.48,28.34
	c27.578,17.82,12.438,104.98-33.842,194.67C484.31,258.54,449.69,318.54,412.86,376.92z"/>
<path id="hh" fill="#FFFFFF" stroke="#000000" d="M230.36,348.13l-0.03,0.5c-39.91-2.01-45.43,42.36-45.43,42.36
	c-27.01-29.86-56.89-71.63-75.04-104.47c-33.93-61.39-44.79-121.13-24.27-133.44c20.52-12.32,64.66,27.46,98.58,88.85
	C200.34,271.17,218.25,312.03,230.36,348.13z"/>
<path id="h" fill="#FFFFFF" stroke="#000000" d="M476.69,144.64c20.34,13.14,11.38,73.12-20.012,133.96
	c-15.448,29.93-40.17,68.43-63.71,98.25c-14.08-38.73-52.25-35.8-52.25-35.8c10.63-37.77,27.09-80.56,42.312-110.03
	C414.41,170.17,456.35,131.5,476.69,144.64z"/>
<path id="gg" fill="#FFFFFF" stroke="#000000" d="M211.38,402.35c37.38-17.43,47.1,45.58,47.36,47.311
	c-12.64-52.95-55.57-38.83-55.57-38.83S173.49,420.02,211.38,402.35z"/>
<path id="g" fill="#FFFFFF" stroke="#000000" d="M361.37,408.01c37.89,17.66,8.21,8.48,8.21,8.48s-42.92-14.13-55.57,38.83
	C314.27,453.59,324,390.58,361.37,408.01z"/>
<path id="ff" fill="#FFFFFF" stroke="#000000" d="M391.53,508.64c0,4.88-0.25,9.642-0.762,14.25c-4.318,1.432-8.68,3-13.068,4.73
	c0.79-3.53,1.2-7.3,1.2-11.21c0-20.68-11.73-37.45-26.21-37.45c-14.472,0-26.21,16.771-26.21,37.45c0,12.67,4.408,23.87,11.14,30.64
	l0.08,0.142c-2.22,1.3-4.44,2.64-6.66,4.02c-1.47,0.62-2.92,1.271-4.35,1.95c0.21-1.08,0.318-2.18,0.318-3.3
	c0-5.972-3.04-11.5-8.2-15.99c-1.568-7.84-2.43-16.352-2.43-25.23c0-39.42,16.82-71.38,37.58-71.38
	C374.71,437.26,391.53,469.22,391.53,508.64z"/>
<path id="f" fill="#FFFFFF" stroke="#000000" d="M257.65,502.28c0,9.62-1,18.8-2.82,27.17c-8.93,5-14.55,12.29-14.55,20.41
	c0,1.988,0.34,3.93,0.98,5.8c-1.03-0.521-2.07-1.04-3.12-1.54c-4.27-2.73-8.56-5.32-12.85-7.771c11.34-4.13,19.73-18.81,19.73-36.3
	c0-20.68-11.74-37.45-26.21-37.45c-14.48,0-26.21,16.771-26.21,37.45c0,8.42,1.94,16.2,5.23,22.45c-4.35-1.91-8.68-3.67-12.98-5.29
	c-1.53-7.76-2.36-16.16-2.36-24.93c0-39.42,16.83-71.38,37.58-71.38S257.65,462.86,257.65,502.28z"/>
<path id="dd" fill="#FFFFFF" stroke="#000000" d="M378.9,516.41c0,3.91-0.41,7.68-1.2,11.21c-13.182,5.18-26.62,11.7-40,19.57
	l-0.08-0.142c-6.73-6.77-11.14-17.97-11.14-30.64c0-20.681,11.738-37.45,26.21-37.45C367.17,478.96,378.9,495.73,378.9,516.41z
	 M365.96,512.88c0-10.148-5.94-18.38-13.27-18.38c-1.04,0-2.052,0.17-3.021,0.49c-0.93-1.59-2.34-2.61-3.92-2.61
	c-2.79,0-5.06,3.17-5.06,7.07c0,1.35,0.278,2.62,0.75,3.7c-1.271,2.818-2.012,6.148-2.012,9.729c0,10.15,5.94,18.37,13.262,18.37
	C360.02,531.25,365.96,523.03,365.96,512.88z"/>
<path id="d" fill="#FFFFFF" stroke="#000000" d="M245.02,510.05c0,17.49-8.39,32.17-19.73,36.3c-9.17-5.238-18.36-9.858-27.46-13.85
	c-3.29-6.25-5.23-14.03-5.23-22.45c0-20.68,11.73-37.45,26.21-37.45C233.28,472.6,245.02,489.37,245.02,510.05z M230.81,508.64
	c0-10.148-5.94-18.38-13.27-18.38c-1.08,0-2.14,0.182-3.15,0.53c-0.92-1.4-2.28-2.29-3.79-2.29c-2.79,0-5.06,3-5.06,6.71
	c0,1.32,0.29,2.55,0.79,3.59c0,0,0.01,0.01,0,0.01c-1.3,2.842-2.05,6.21-2.05,9.83c0,10.15,5.94,18.37,13.26,18.37
	C224.87,527.01,230.81,518.79,230.81,508.64z"/>
<path id="ss" fill="#FFFFFF" stroke="#000000" d="M349.67,494.99c0.71,1.22,1.13,2.77,1.13,4.46c0,3.898-2.26,7.068-5.05,7.068
	c-1.82,0-3.42-1.35-4.31-3.368c-0.472-1.08-0.75-2.352-0.75-3.7c0-3.9,2.27-7.07,5.06-7.07
	C347.33,492.38,348.74,493.4,349.67,494.99z"/>
<path id="s" fill="#FFFFFF" stroke="#000000" d="M214.39,490.79c0.37,0.56,0.67,1.2,0.89,1.89c0.24,0.78,0.37,1.642,0.37,2.53
	c0,3.71-2.26,6.72-5.05,6.72c-1.26,0-2.4-0.608-3.29-1.608c-0.38-0.44-0.71-0.95-0.98-1.512c0.01,0,0-0.01,0-0.01
	c-0.5-1.04-0.79-2.27-0.79-3.59c0-3.71,2.27-6.71,5.06-6.71C212.11,488.5,213.47,489.39,214.39,490.79z"/>
<path id="aa" fill="#FFFFFF" stroke="#000000" d="M352.69,494.5c7.328,0,13.27,8.23,13.27,18.38c0,10.15-5.94,18.37-13.27,18.37
	c-7.32,0-13.262-8.22-13.262-18.37c0-3.58,0.74-6.91,2.012-9.729c0.89,2.02,2.488,3.368,4.31,3.368c2.79,0,5.05-3.17,5.05-7.068
	c0-1.69-0.42-3.24-1.13-4.46C350.64,494.67,351.65,494.5,352.69,494.5z"/>
<path id="a" fill="#FFFFFF" stroke="#000000" d="M207.31,500.32c0.89,1,2.03,1.608,3.29,1.608c2.79,0,5.05-3.01,5.05-6.72
	c0-0.89-0.13-1.75-0.37-2.53c-0.22-0.688-0.52-1.33-0.89-1.89c1.01-0.35,2.07-0.53,3.15-0.53c7.33,0,13.27,8.23,13.27,18.38
	c0,10.15-5.94,18.37-13.27,18.37c-7.32,0-13.26-8.22-13.26-18.37c0-3.619,0.75-6.988,2.05-9.83
	C206.6,499.37,206.93,499.88,207.31,500.32z"/>
<path fill="none" stroke="#000000" d="M413.77,605.752c-4.418,17.927-32.245,31.744-65.914,31.744c-1.131,0-2.254-0.018-3.369-0.048
	"/>
<path fill="none" stroke="#000000" d="M434.087,601.392c-1.966,6.4-11.578,8.505-21.477,4.7
	c-9.899-3.804-16.328-12.074-14.362-18.474"/>
<path fill="none" stroke="#000000" d="M152.193,606.416c3.697,15.883,25.748,28.591,54.023,31.427"/>
<path fill="none" stroke="#000000" d="M130.928,600.099c1.566,6.541,11.027,9.377,21.136,6.35
	c10.107-3.034,17.031-10.785,15.466-17.325"/>
<line fill="none" stroke="#000000" x1="396.904" y1="510.76" x2="409.533" y2="503.69"/>
<line fill="none" stroke="#000000" x1="163.229" y1="507.226" x2="176.492" y2="513.586"/>
<path fill="none" stroke="#000000" d="M271.856,500.158c0,0,15.156-12.015,25.262,0.707"/>
<path fill="none" stroke="#000000" d="M252.278,727.014c0,0,24.63,18.375,46.103-0.707"/>
<path fill="none" stroke="#000000" d="M458.164,155.87c0,0,26.523-2.12,11.999,62.897"/>
<path fill="none" stroke="#000000" d="M93.126,170.005c0,0,17.684-12.722,44.841,34.629"/>
</svg>
