<?xml version="1.0" encoding="utf-8"?>
<!-- Generator: Adobe Illustrator 15.0.0, SVG Export Plug-In . SVG Version: 6.00 Build 0)  -->
<!DOCTYPE svg PUBLIC "-//W3C//DTD SVG 1.1//EN" "http://www.w3.org/Graphics/SVG/1.1/DTD/svg11.dtd">
<svg version="1.1" id="layer_x5F_www.ABC-color.com"
	 xmlns="http://www.w3.org/2000/svg" xmlns:xlink="http://www.w3.org/1999/xlink" x="0px" y="0px" width="822px" height="567px"
	 viewBox="0 0 822 567" enable-background="new 0 0 822 567" xml:space="preserve">
<path fill="#FFFFFF" stroke="#000000" d="M638.199,322.6c3,3.7,6,7.7,8.899,12c9.9,14.2,26.4,43.5,40.5,55.4
	c0,0-50.399,6.4-67.399,9.4c-4.3,0.8-8.5,1.398-12.5,1.898c-7.3-26.199-17.899-45.1-29.899-58.199
	C597.699,339.9,618.9,331.9,638.199,322.6z"/>
<path fill="#FFFFFF" stroke="#000000" d="M635.8,241.1c38.2,18.3,69.5,41.8,69.5,41.8s-30,22-67.101,39.8
	C621.8,302,605.1,289,589.3,281.6C605.9,271.3,621.8,256.4,635.8,241.1z"/>
<path fill="#FFFFFF" stroke="#000000" d="M624.5,87.2c-8.4,16.3-12.2,49.5-15.801,66.3c-0.899,4.1-1.8,8-2.8,11.7
	c-21-1.3-43.301-0.7-62.601,3.7c5.2-16.2,7.2-36.8,3.899-62.2c3.801-1,7.801-2,11.899-2.9C575.8,100.3,624.5,87.2,624.5,87.2z"/>
<path fill="#FFFFFF" stroke="#000000" d="M605.9,165.2c41.399,2.5,78.1,11.9,78.1,11.9s-20,33-48.2,64
	c-18.399-8.8-38.5-16.4-57.3-19.6C589.5,208.5,599.199,190.1,605.9,165.2z"/>
<path fill="#FFFFFF" stroke="#000000" d="M578.4,221.5c18.899,3.2,38.899,10.8,57.3,19.6c-13.9,15.3-29.9,30.2-46.4,40.4
	c-5-2.4-10-4.1-14.8-5.4c-35.101-9.1-81.2-4.7-112,0.2c30.1-7.1,73.699-20.3,102.199-41.9C569.5,231,574,226.6,578.4,221.5z"/>
<path fill="#FFFFFF" stroke="#000000" d="M542.9,396.5c16.601,5.8,38.101,8.2,64.8,4.9c1.2,4.1,2.2,8.398,3.2,12.898
	c3.699,16.9,7.8,50.3,16.3,66.7c0,0-49-13.4-65.899-17.1c-5-1.102-9.8-2.302-14.3-3.602C550.5,434,548.4,412.9,542.9,396.5z"/>
<path fill="#FFFFFF" stroke="#000000" d="M443.5,304.8c17.899,24.9,50,64.7,84,84.601c4.6,2.699,9.699,5,15.3,7.001
	c5.5,16.5,7.601,37.6,4.101,63.898c-24.9-7.1-43.2-17.3-56-28.8c0.399-6.4,0.199-12.3-0.5-17.9C485,375,460,330.6,443.5,304.8z"/>
<path id="ABC-color.com" fill="#FFFFFF" stroke="#000000" d="M470.6,491.6c13.101-22.698,19.2-42.898,20.4-60.1
	c12.8,11.5,31.1,21.6,56,28.8c-0.5,3.7-1.101,7.5-1.801,11.5c-3.101,16.9-12.3,49-10.8,67.3c0,0-40-30.698-54.101-40.398
	C476.9,496.3,473.699,494,470.6,491.6z"/>
<path fill="#FFFFFF" stroke="#000000" d="M547.199,106.7c-25.399,6.8-44,16.9-57.101,28.3c-1.3-17.1-7.399-37.1-20.3-59.6
	c3.399-2.6,6.899-5.2,10.601-7.8C494.5,57.9,534.5,27.2,534.5,27.2c-1.5,18.3,7.699,50.4,10.8,67.3
	C546,98.7,546.699,102.8,547.199,106.7z"/>
<path id="www.ABC-color.com" fill="#FFFFFF" stroke="#000000" d="M469.8,75.4c12.899,22.5,19,42.5,20.3,59.6
	c-4.8,4.1-8.8,8.5-12.101,12.9c-23.1,30.7-36.899,78.4-43.8,108.2c5-30.1,10.399-79.5,0.899-116.1c-1.399-5.5-3.601-11.3-6.5-17.1
	C436.199,107.5,449.3,91.3,469.8,75.4z"/>
<path fill="#FFFFFF" stroke="#000000" d="M386.9,490.4c20.5-15.9,33.699-32.102,41.3-47.4c7.601,15.7,21.101,32.3,42.3,48.6
	c-2,3.4-4.1,6.9-6.399,10.4c-9.3,14.4-30.101,40.6-35.699,58c0,0-25.2-43.6-34.5-58C391.5,498.1,389.1,494.2,386.9,490.4z"/>
<path fill="#FFFFFF" stroke="#000000" d="M431.8,283.5c11.101,1.5,49.101,6.5,63.399,9.1c41.899,7.7,71.899,2,91.7-9.6
	c0.8-0.5,1.6-1,2.399-1.5c15.7,7.4,32.399,20.4,48.899,41.1c-19.3,9.2-40.5,17.301-60.399,20.5l0,0c-3.7-4.1-7.601-7.6-11.5-10.6
	C523.6,300.3,447.5,286.2,431.8,283.5z"/>
<path fill="#FFFFFF" stroke="#000000" d="M431.9,298.8c5.899,27.601,20.8,85.101,47.601,120.4c3.199,4.2,7,8.398,11.5,12.3
	c-1.2,17.2-7.301,37.3-20.4,60.1c-21.199-16.3-34.699-32.898-42.3-48.6c2.8-5.7,4.899-11.3,6.3-16.6c11.301-43.5,2-103.5-3.1-129.9
	h0.1C431.6,297.2,431.8,298,431.9,298.8z"/>
<path fill="#FFFFFF" stroke="#000000" d="M429.199,283c2.2-0.3,15.301-2.4,33.301-6.6c30.899-4.9,77-9.4,112-0.2
	c4.8,1.3,9.699,3,14.8,5.4c-0.8,0.5-1.601,1-2.399,1.5c-19.801,11.7-49.801,17.4-91.7,9.6c-14.3-2.601-52.3-7.7-63.399-9.1
	c-0.101,0-0.2,0-0.399,0c-1.301-0.2-2.101-0.4-2.4-0.4C429.1,283,429.1,283,429.199,283z"/>
<path fill="#FFFFFF" stroke="#000000" d="M462.5,276.4c-18,4.2-31.2,6.3-33.301,6.6c17.399-5.8,43.101-26.6,57.399-35.8
	c35.801-23.2,65.601-29.4,88.4-26.2c1.199,0.2,2.3,0.3,3.5,0.5c-4.4,5.1-9,9.5-13.7,13C536.199,256,492.6,269.3,462.5,276.4z"/>
<path fill="#FFFFFF" stroke="#000000" d="M428.6,122.8c-7.8-15.4-21.1-31.6-41.8-47.5c2-3.4,4.101-6.9,6.399-10.4
	c9.301-14.4,30.101-40.6,35.7-58c0,0,25.199,43.6,34.5,58c2.3,3.5,4.5,7.1,6.399,10.5C449.3,91.3,436.199,107.5,428.6,122.8z"/>
<path fill="#FFFFFF" stroke="#000000" d="M468.3,227.8c-9.601,14-25.3,42.9-39.2,55c4.101-5.7,52.601-73.2,60.5-129.4
	c0.801-5.7,1-11.8,0.5-18.4c13-11.4,31.601-21.4,57.101-28.3c3.3,25.5,1.3,46-3.899,62.2c-1.101,0.3-2.301,0.5-3.399,0.8
	C517.6,175.5,492.5,192.7,468.3,227.8z"/>
<path fill="#FFFFFF" stroke="#000000" d="M429.1,282.7c13.9-12.1,29.601-41,39.2-55c24.2-35.1,49.3-52.3,71.601-58
	c1.101-0.3,2.199-0.6,3.399-0.8c-2.101,6.4-4.7,12.1-7.601,17.2C506.8,235.2,434.8,279.4,429.1,282.7
	C429.1,282.8,429.1,282.8,429.1,282.7L429.1,282.7z"/>
<path fill="#FFFFFF" stroke="#000000" d="M429.1,282.7L429.1,282.7L429.1,282.7z"/>
<path fill="#FFFFFF" stroke="#000000" d="M428.9,282.9c0.199-1.4,1.899-11.8,5.3-26.8l0,0c6.8-29.8,20.601-77.5,43.8-108.2
	c3.301-4.4,7.4-8.8,12.101-12.9c0.5,6.5,0.301,12.7-0.5,18.4c-7.899,56.2-56.3,123.7-60.5,129.4l0,0l0,0l0,0l0,0l0,0
	C429,282.8,429,282.9,428.9,282.9L428.9,282.9z"/>
<path fill="#FFFFFF" stroke="#000000" d="M443.5,304.8c-7.9-12.399-13.801-20.399-14.601-21.6C433.5,286,506.5,330.6,535.5,380.1
	c2.899,4.801,5.3,10.301,7.399,16.302c-5.7-2.001-10.801-4.4-15.301-7.001C493.6,369.5,461.5,329.7,443.5,304.8z"/>
<path fill="#FFFFFF" stroke="#000000" d="M428.9,283c0-0.1,0.101-0.1,0.199-0.2l0,0l0,0c5.7-3.4,77.801-47.6,106.601-96.6
	c3-5.1,5.601-10.8,7.601-17.2c19.3-4.5,41.601-5,62.601-3.7c-6.7,24.9-16.4,43.3-27.5,56.3c-1.101-0.2-2.301-0.4-3.5-0.5
	c-22.801-3.2-52.601,3-88.4,26.2c-14.3,9.3-40,30-57.399,35.8C429,283,428.9,283,428.9,283z"/>
<path fill="#FFFFFF" stroke="#000000" d="M431.4,296.5c-1.5-7.4-2.399-12.2-2.601-13.2l0,0c0.8,1.101,6.8,9.2,14.601,21.601
	C460,330.6,485,375,490.4,413.7c0.8,5.5,1,11.5,0.5,17.898c-4.5-4-8.301-8.1-11.5-12.3C452.7,383.999,437.8,326.4,431.8,298.9
	C431.8,298,431.6,297.2,431.4,296.5z"/>
<path fill="#FFFFFF" stroke="#000000" d="M428.9,283.2c2,1.2,43.699,25.1,57.699,34.2c35.801,23.199,65.7,29.398,88.5,26.199
	c0.9-0.101,1.801-0.301,2.801-0.399l0,0c12,13.1,22.6,32,29.899,58.2c-26.7,3.3-48.2,0.898-64.8-4.9c-2-6.1-4.5-11.5-7.4-16.3
	C506.5,330.7,433.5,286.1,428.9,283.2C428.9,283.3,428.9,283.3,428.9,283.2L428.9,283.2z"/>
<path fill="#FFFFFF" stroke="#000000" d="M428.9,283.1c0.399,0,1.199,0.2,2.5,0.3c0.101,0,0.199,0,0.399,0
	c15.7,2.6,91.8,16.7,134.5,49c3.899,3,7.8,6.5,11.5,10.6c-0.899,0.2-1.8,0.3-2.8,0.4c-22.801,3.199-52.7-3-88.5-26.2
	C472.6,308.3,430.9,284.3,428.9,283.1C428.9,283.2,428.9,283.1,428.9,283.1L428.9,283.1z"/>
<path fill="#FFFFFF" stroke="#000000" d="M428.8,283c-0.3-1.6-2.2-14-6.2-31.4l0,0c-4.8-30.4-9.399-76.8-0.199-112.2
	c1.399-5.4,3.399-10.9,6.3-16.5c3,5.9,5.101,11.6,6.5,17.1c9.5,36.6,4.101,86-0.899,116.1l0,0C430.8,271.1,429.1,281.5,428.8,283
	C428.8,282.9,428.8,282.9,428.8,283z"/>
<path fill="#FFFFFF" stroke="#000000" d="M428.199,443c-2.699-5.5-4.699-10.8-6-16c-9.699-37.4-4-87.1,1.101-117.2
	c2.601-15,5-25.2,5.3-26.5c0.101,0,0.101-0.1,0.101-0.1l0,0l0.101,0.1c0.2,1,1,5.8,2.601,13.2h-0.101
	c5.101,26.3,14.399,86.3,3.101,129.9C433.1,431.7,431.1,437.3,428.199,443z"/>
<path fill="#FFFFFF" stroke="#000000" d="M410,286.4c10.6-2.102,17.6-3.102,18.5-3.2c0,0-6.2,3.6-15.801,10
	c-24.5,14.6-72.601,40.6-114.3,46.399c-5,0.699-10.399,0.899-16,0.699c3.301-3.5,6.7-6.5,10.2-9.199
	C326.4,305.5,381.4,292,410,286.4z"/>
<path fill="#FFFFFF" stroke="#000000" d="M366.9,130.6c4.899,4.2,9.101,8.7,12.5,13.2c22.3,29.6,36,76.6,43.199,107.7l0,0
	c4,17.4,6,29.8,6.2,31.4h-0.101l0,0c-1-1.4-9.5-12.8-19.899-29.6c-16.2-26.1-37-65.3-41.899-100.1
	C366,146.3,365.9,138.8,366.9,130.6z"/>
<path fill="#FFFFFF" stroke="#000000" d="M428.5,283.3c-0.601,1-3.301,4.9-7.7,10.9c0,0.1-0.101,0.1-0.101,0.2
	c-15.601,21.5-52.3,68.1-90.899,90.699c-4.399,2.601-9.2,4.801-14.601,6.801c1.7-4.5,3.7-8.602,5.899-12.4
	c21.5-36.6,67.301-70.2,91.601-86.3C421.5,287.9,427.3,284.1,428.5,283.3z"/>
<path fill="#FFFFFF" stroke="#000000" d="M428.6,283.3c-0.3,1.3-2.699,11.4-5.3,26.5l0,0C416.4,339.4,402.6,387,379.4,417.7
	c-3.399,4.5-7.399,8.8-12.2,13c-0.399-6.102-0.101-11.8,0.601-17.102c6.101-43.698,37.601-95.999,53-119.198
	c0,0,0.101-0.102,0.101-0.2C425.199,288.2,427.9,284.3,428.6,283.3C428.5,283.3,428.5,283.3,428.6,283.3
	C428.5,283.3,428.6,283.3,428.6,283.3L428.6,283.3z"/>
<path fill="#FFFFFF" stroke="#000000" d="M428.199,443c-7.601,15.3-20.8,31.5-41.3,47.4c-12.801-22.602-18.7-42.602-19.7-59.7
	c4.801-4.2,8.801-8.5,12.2-13c23.199-30.7,37.101-78.4,43.899-107.9l0,0c-5.101,30.101-10.8,79.9-1.101,117.2
	C423.6,432.2,425.5,437.5,428.199,443z"/>
<path fill="#FFFFFF" stroke="#000000" d="M283,271.8c34.8-9,81.1-2.9,112,3.3l0,0c18.8,5.1,32.3,7.8,33.6,8.1l0,0l0,0l0,0h-0.1
	c-0.9,0.1-7.9,1.1-18.5,3.2l0,0c-29.101,4.5-86.2,10.898-127.3,0.199c-6-1.601-12.2-4-18.601-7.301
	C270.6,275.8,276.9,273.4,283,271.8z"/>
<path fill="#FFFFFF" stroke="#000000" d="M298.6,217c28.5,4,60.1,19.8,85.1,34.9l0,0c25.3,15.4,43.7,30.1,45.1,31.2l0,0l0,0
	c-1.399-0.3-14.899-2.9-33.601-8.1c-30.101-8.3-73.899-23-102.399-44.6c-5-3.7-9.8-8.3-14.4-13.9C285.5,215.9,292.3,216.1,298.6,217
	z"/>
<path fill="#FFFFFF" stroke="#000000" d="M386.8,75.3c20.7,15.9,34,32.1,41.8,47.5c-2.8,5.6-4.899,11.2-6.3,16.5
	c-9.2,35.4-4.601,81.8,0.2,112.2c-7.101-31.1-20.9-78.1-43.2-107.7c-3.399-4.5-7.601-9-12.5-13.2C368.8,114.5,374.9,96,386.8,75.3z"
	/>
<path fill="#FFFFFF" stroke="#000000" d="M311,102.9c24.8,6.8,43.1,16.6,55.899,27.7c-1,8.2-0.899,15.7,0.101,22.6
	c4.899,34.8,25.699,74,41.899,100.1h-0.101c-18.7-25.9-48.3-62-79-80.1c-4.899-2.9-10.399-5.4-16.601-7.5
	C308.4,149.3,307.1,128.5,311,102.9z"/>
<path fill="#FFFFFF" stroke="#000000" d="M367.8,413.6c-0.7,5.302-1,11-0.601,17.102c-13.101,11.5-31.899,21.5-57.5,28.3
	c-3.7-28.1-0.899-50.3,5.601-67.101c5.399-1.899,10.2-4.199,14.601-6.801C368.501,362.4,405.1,315.8,420.8,294.4
	C405.4,317.5,373.9,369.8,367.8,413.6z"/>
<path fill="#FFFFFF" stroke="#000000" d="M386.9,490.4c-3.301,2.6-6.801,5.1-10.5,7.6c-14.101,9.7-54.101,40.4-54.101,40.4
	c1.5-18.302-7.601-50.4-10.8-67.302c-0.801-4.198-1.4-8.3-1.9-12.198c25.601-6.802,44.4-16.9,57.5-28.302
	C368.3,447.8,374.1,467.8,386.9,490.4z"/>
<path fill="#FFFFFF" stroke="#000000" d="M366.9,130.6C354,119.5,335.8,109.7,311,102.9c0.399-2.5,0.8-5.1,1.3-7.8
	c3.101-16.9,12.3-49,10.8-67.3c0,0,40,30.7,54.101,40.4c3.399,2.3,6.601,4.7,9.7,7.1C374.9,96,368.8,114.5,366.9,130.6z"/>
<path fill="#FFFFFF" stroke="#000000" d="M313.1,165.9c2.2,7.9,5.2,14.9,8.801,20.9c14.399,24.5,39.5,47.6,61.8,65.1
	c-24.899-15.1-56.5-30.9-85.1-34.9c-6.3-0.9-13-1.1-20.3-0.4c-10.7-12.9-20.1-30.8-26.6-55C276.8,158.5,297.1,160.6,313.1,165.9z"/>
<path fill="#FFFFFF" stroke="#000000" d="M313.1,165.9c6.2,2,11.7,4.6,16.601,7.5c30.801,18.1,60.399,54.2,79,80.1h0.101
	c10.399,16.8,18.899,28.3,19.899,29.6l0,0c0,0,0,0,0,0.1l0,0c-1.399-1.1-19.8-15.8-45.101-31.2l0,0
	c-22.3-17.5-47.399-40.6-61.8-65.1C318.3,180.8,315.3,173.8,313.1,165.9z"/>
<path fill="#FFFFFF" stroke="#000000" d="M315.3,391.9c-6.5,16.898-9.3,39-5.601,67.1c-3.601,1-7.399,1.9-11.399,2.7
	c-16.8,3.6-65.4,16.6-65.4,16.6c8.4-16.3,12.2-49.5,15.801-66.3c1.1-5.3,2.399-10.4,3.8-15.1C278.4,400,299.1,397.6,315.3,391.9z"/>
<path fill="#FFFFFF" stroke="#000000" d="M313.1,165.9c-16-5.3-36.398-7.4-61.5-4.3c-1.1-3.9-2-7.9-2.899-12.1
	c-3.601-16.8-7.4-50-15.801-66.3c0,0,48.7,13,65.4,16.6c4.399,0.9,8.601,1.9,12.601,3.1C307.1,128.5,308.4,149.3,313.1,165.9z"/>
<path fill="#FFFFFF" stroke="#000000" d="M282.4,340.2c5.7,0.3,11,0,16-0.7c41.7-5.8,89.8-31.8,114.3-46.4
	c-24.199,16.102-70,49.7-91.601,86.301c-2.199,3.801-4.199,7.899-5.899,12.399c-16.1,5.8-36.899,8.102-62.8,5
	C259.8,371.2,270.5,352.8,282.4,340.2z"/>
<path fill="#FFFFFF" stroke="#000000" d="M264.1,279.3c6.4,3.4,12.601,5.7,18.601,7.3C323.8,297.3,380.9,290.9,410,286.4l0,0
	C381.4,292,326.4,305.6,292.6,331.1c-3.5,2.602-6.899,5.7-10.2,9.2c-17.899-0.899-39.1-7.1-63.1-21.2
	C234.3,299.7,249.6,287,264.1,279.3z"/>
<path fill="#FFFFFF" stroke="#000000" d="M278.2,216.6c4.6,5.5,9.399,10.1,14.399,13.9c28.6,21.6,72.3,36.3,102.4,44.6l0,0
	c-30.9-6.2-77.2-12.3-112-3.3c-6.101,1.6-12.5,4-18.9,7.5c-14.899-7.8-30.6-21-46-41.1C240.8,224.8,260.9,218.3,278.2,216.6z"/>
<path fill="#FFFFFF" stroke="#000000" d="M251.6,161.6c6.5,24.2,15.9,42.1,26.601,55c-17.301,1.6-37.4,8.2-60.101,21.6
	c-2.399-3-4.7-6.3-7-9.6c-9.7-14.1-26-43.3-40-55.2c0,0,50-6.6,66.8-9.7C242.7,162.8,247.2,162.1,251.6,161.6z"/>
<path fill="#FFFFFF" stroke="#000000" d="M219.3,319c24.1,14.1,45.2,20.3,63.1,21.2c-12,12.6-22.6,31-30,56.7
	c-4.6-0.602-9.3-1.301-14.3-2.2c-16.899-3.101-49-12.3-67.3-10.8c0,0,30.7-40,40.4-54.102C214,326,216.6,322.4,219.3,319z"/>
<path fill="#FFFFFF" stroke="#000000" d="M218.1,238.2c15.4,20.1,31.101,33.2,46,41.1c-14.6,7.7-29.8,20.5-44.8,39.7
	c-3-1.8-6.1-3.6-9.2-5.7c-14.399-9.3-40.6-30.1-58-35.7c0,0,43.601-25.2,58-34.5C212.8,241.4,215.5,239.8,218.1,238.2z"/>
</svg>
