<?xml version="1.0" encoding="utf-8"?>
<!-- Generator: Adobe Illustrator 15.0.0, SVG Export Plug-In . SVG Version: 6.00 Build 0)  -->
<!DOCTYPE svg PUBLIC "-//W3C//DTD SVG 1.1//EN" "http://www.w3.org/Graphics/SVG/1.1/DTD/svg11.dtd">
<svg version="1.1" id="www.ABC-color.com" xmlns="http://www.w3.org/2000/svg" xmlns:xlink="http://www.w3.org/1999/xlink" x="0px"
	 y="0px" width="822px" height="567px" viewBox="0 0 822 567" enable-background="new 0 0 822 567" xml:space="preserve">
<path fill="#FFFFFF" stroke="#000000" stroke-width="0.25" stroke-miterlimit="10" d="M194.8,164.4c0,25,6.7,48.5,18.4,68.8
	c-20.9,12.1-38.301,29.5-50.4,50.4c-11.7-20.2-18.4-43.7-18.4-68.8C156.5,193.9,173.9,176.5,194.8,164.4z"/>
<path fill="#FFFFFF" stroke="#000000" stroke-width="0.25" stroke-miterlimit="10" d="M144.4,214.8c0,25,6.7,48.5,18.4,68.8
	c-11.7,20.2-18.4,43.7-18.4,68.8C132.7,332,126,308.5,126,283.5S132.7,235,144.4,214.8z"/>
<path fill="#FFFFFF" stroke="#000000" stroke-width="0.25" stroke-miterlimit="10" d="M213.1,333.8c-11.7,20.2-18.4,43.7-18.4,68.8
	c-20.9-12.1-38.301-29.5-50.4-50.3c0-25,6.7-48.5,18.4-68.8C174.9,304.4,192.3,321.8,213.1,333.8z"/>
<path fill="#FFFFFF" stroke="#000000" stroke-width="0.25" stroke-miterlimit="10" d="M194.8,402.6c0,25,6.7,48.5,18.4,68.7
	c-41.101-23.8-68.7-68.2-68.7-119.1C156.5,373.1,173.9,390.5,194.8,402.6L194.8,402.6z"/>
<path fill="#FFFFFF" stroke="#000000" stroke-width="0.25" stroke-miterlimit="10" d="M332.3,540.1L332.3,540.1
	c-50.9,0-95.4-27.698-119.1-68.8c20.2,11.7,43.7,18.4,68.8,18.4C294,510.6,311.4,528,332.3,540.1z"/>
<path fill="#FFFFFF" stroke="#000000" stroke-width="0.25" stroke-miterlimit="10" d="M469.699,540.1
	C449.5,551.8,426,558.5,401,558.5s-48.5-6.7-68.7-18.4c25,0,48.5-6.698,68.7-18.398C421.199,533.4,444.699,540.1,469.699,540.1z"/>
<path fill="#FFFFFF" stroke="#000000" stroke-width="0.25" stroke-miterlimit="10" d="M350.6,471.3c12.101,20.9,29.5,38.3,50.4,50.4
	c-20.2,11.7-43.7,18.398-68.7,18.398C311.4,528,294,510.6,281.9,489.7C306.9,489.8,330.4,483,350.6,471.3z"/>
<path fill="#FFFFFF" stroke="#000000" stroke-width="0.25" stroke-miterlimit="10" d="M451.3,471.3
	c-12.101,20.9-29.5,38.3-50.3,50.4c-20.9-12.102-38.301-29.5-50.4-50.4c20.9-12.1,38.301-29.5,50.4-50.3
	C413.1,441.9,430.5,459.3,451.3,471.3z"/>
<path fill="#FFFFFF" stroke="#000000" stroke-width="0.25" stroke-miterlimit="10" d="M263.5,421c0,25,6.7,48.5,18.399,68.8
	c-25,0-48.5-6.7-68.8-18.398c-11.7-20.2-18.399-43.7-18.399-68.7l0,0C215,414.3,238.5,421,263.5,421z"/>
<path fill="#FFFFFF" stroke="#000000" stroke-width="0.25" stroke-miterlimit="10" d="M332.3,402.6c0,25,6.7,48.5,18.399,68.7
	c-20.2,11.7-43.7,18.4-68.8,18.4c-11.7-20.2-18.399-43.7-18.399-68.8C288.5,421,312,414.3,332.3,402.6L332.3,402.6z"/>
<path fill="#FFFFFF" stroke="#000000" stroke-width="0.25" stroke-miterlimit="10" d="M607.3,402.6c20.899-12.1,38.3-29.5,50.3-50.3
	c0,50.9-27.6,95.3-68.699,119.102C600.6,451.1,607.3,427.7,607.3,402.6L607.3,402.6z"/>
<path fill="#FFFFFF" stroke="#000000" stroke-width="0.25" stroke-miterlimit="10" d="M607.3,402.6c0,25-6.7,48.5-18.399,68.7
	c-20.2,11.7-43.7,18.4-68.801,18.4c11.7-20.2,18.4-43.7,18.4-68.8C563.5,421,587,414.3,607.3,402.6L607.3,402.6z"/>
<path fill="#FFFFFF" stroke="#000000" stroke-width="0.25" stroke-miterlimit="10" d="M520.1,489.8
	c-12.1,20.9-29.5,38.3-50.399,50.4c-25,0-48.5-6.7-68.699-18.4c20.899-12.1,38.3-29.5,50.3-50.398
	C471.6,483,495.1,489.8,520.1,489.8z"/>
<path fill="#FFFFFF" stroke="#000000" stroke-width="0.25" stroke-miterlimit="10" d="M588.9,471.3
	c-23.801,41.102-68.2,68.8-119.101,68.8l0,0c20.899-12.1,38.3-29.5,50.399-50.398C545.199,489.8,568.6,483,588.9,471.3z"/>
<path fill="#FFFFFF" stroke="#000000" stroke-width="0.25" stroke-miterlimit="10" d="M401.199,283.8c12.101,20.7,29.399,38,50.2,50
	c11.699,20.2,18.399,43.7,18.399,68.8c-20.899-12.1-38.3-29.5-50.3-50.3C419.4,327.3,412.8,304,401.199,283.8z"/>
<path fill="#FFFFFF" stroke="#000000" stroke-width="0.25" stroke-miterlimit="10" d="M350.699,333.8
	c12.101-20.899,29.5-38.3,50.301-50.3c-0.101,0.1-0.101,0.2-0.2,0.3C388.8,304.5,371.4,321.8,350.699,333.8z"/>
<path fill="#FFFFFF" stroke="#000000" stroke-width="0.25" stroke-miterlimit="10" d="M401.199,283.8
	c11.601,20.101,18.2,43.5,18.2,68.4C407.699,332,401,308.6,401,283.6v-0.1l0,0C401.1,283.6,401.1,283.7,401.199,283.8z"/>
<path fill="#FFFFFF" stroke="#000000" stroke-width="0.25" stroke-miterlimit="10" d="M401,283.6c0,25-6.7,48.4-18.4,68.6
	c0-24.9,6.601-48.3,18.2-68.4c0.101-0.1,0.101-0.2,0.2-0.3l0,0C401,283.6,401,283.6,401,283.6z"/>
<path fill="#FFFFFF" stroke="#000000" stroke-width="0.25" stroke-miterlimit="10" d="M332.3,265.1c25,0,48.5,6.7,68.7,18.4
	C376,283.5,352.5,276.8,332.3,265.1z"/>
<path fill="#FFFFFF" stroke="#000000" stroke-width="0.25" stroke-miterlimit="10" d="M400.8,283.2c0.101,0.1,0.101,0.2,0.2,0.3
	c-20.9-12.1-38.301-29.5-50.301-50.3C371.4,245.2,388.8,262.5,400.8,283.2z"/>
<path fill="#FFFFFF" stroke="#000000" stroke-width="0.25" stroke-miterlimit="10" d="M401,283.5c-20.2,11.7-43.7,18.4-68.7,18.4
	C352.5,290.2,376,283.5,401,283.5z"/>
<path fill="#FFFFFF" stroke="#000000" stroke-width="0.25" stroke-miterlimit="10" d="M401,283.5L401,283.5
	c-20.9,12.1-38.301,29.5-50.301,50.3C330.5,345.5,307,352.2,281.9,352.2c12.101-20.9,29.5-38.3,50.4-50.4
	C357.3,301.9,380.8,295.2,401,283.5L401,283.5z"/>
<path fill="#FFFFFF" stroke="#000000" stroke-width="0.25" stroke-miterlimit="10" d="M538.5,146c0,25-6.7,48.5-18.4,68.8
	c-25,0-48.5,6.7-68.8,18.4c11.7-20.2,18.399-43.7,18.399-68.8C490,152.7,513.5,146,538.5,146z"/>
<path fill="#FFFFFF" stroke="#000000" stroke-width="0.25" stroke-miterlimit="10" d="M588.8,233.1
	c20.899,12.1,38.3,29.5,50.399,50.4c-12.101,20.9-29.5,38.3-50.399,50.3c-12.101-20.899-29.5-38.3-50.399-50.3
	C559.4,271.4,576.8,254,588.8,233.1z"/>
<path fill="#FFFFFF" stroke="#000000" stroke-width="0.25" stroke-miterlimit="10" d="M639.199,283.5
	c11.7,20.2,18.399,43.7,18.399,68.8c-12.1,20.9-29.5,38.3-50.3,50.3c0-25-6.7-48.5-18.399-68.8
	C609.699,321.8,627.1,304.4,639.199,283.5z"/>
<path fill="#FFFFFF" stroke="#000000" stroke-width="0.25" stroke-miterlimit="10" d="M657.6,214.8c11.7,20.2,18.4,43.7,18.4,68.8
	s-6.7,48.5-18.4,68.8c0-25-6.699-48.5-18.399-68.8C650.9,263.3,657.6,239.8,657.6,214.8z"/>
<path fill="#FFFFFF" stroke="#000000" stroke-width="0.25" stroke-miterlimit="10" d="M657.6,214.8c0,25-6.699,48.5-18.399,68.8
	c-12.101-20.9-29.5-38.3-50.399-50.4C600.5,213,607.2,189.5,607.2,164.4C628.1,176.5,645.5,193.9,657.6,214.8z"/>
<path fill="#FFFFFF" stroke="#000000" stroke-width="0.25" stroke-miterlimit="10" d="M657.6,214.8c-12.1-20.9-29.5-38.3-50.3-50.4
	c0-25-6.7-48.5-18.399-68.8C630,119.4,657.6,163.9,657.6,214.8z"/>
<path fill="#FFFFFF" stroke="#000000" stroke-width="0.25" stroke-miterlimit="10" d="M538.5,146c25,0,48.5,6.7,68.8,18.4
	c0,25-6.7,48.5-18.399,68.8c-20.2-11.7-43.7-18.4-68.801-18.4C531.8,194.5,538.5,171,538.5,146z"/>
<path fill="#FFFFFF" stroke="#000000" stroke-width="0.25" stroke-miterlimit="10" d="M588.8,95.6
	c11.7,20.2,18.399,43.7,18.399,68.8C587,152.7,563.5,146,538.5,146c0-25-6.7-48.5-18.4-68.8C545.199,77.3,568.6,84,588.8,95.6z"/>
<path fill="#FFFFFF" stroke="#000000" stroke-width="0.25" stroke-miterlimit="10" d="M538.5,146c-25,0-48.5,6.7-68.801,18.4
	c0-25-6.699-48.5-18.399-68.8c20.2-11.7,43.7-18.4,68.8-18.4C531.8,97.5,538.5,121,538.5,146z"/>
<path fill="#FFFFFF" stroke="#000000" stroke-width="0.25" stroke-miterlimit="10" d="M451.3,95.6
	c11.7,20.2,18.399,43.7,18.399,68.8c-20.899,12.1-38.3,29.5-50.3,50.4c0-25-6.7-48.5-18.399-68.8
	C413.1,125.1,430.5,107.7,451.3,95.6z"/>
<path fill="#FFFFFF" stroke="#000000" stroke-width="0.25" stroke-miterlimit="10" d="M401,45.3c-20.9,12.1-38.301,29.5-50.4,50.4
	C330.4,84,306.9,77.3,281.8,77.3C294,56.4,311.4,39,332.3,26.9C357.3,26.9,380.8,33.6,401,45.3z"/>
<path fill="#FFFFFF" stroke="#000000" stroke-width="0.25" stroke-miterlimit="10" d="M350.6,95.6
	C338.9,115.8,332.2,139.3,332.2,164.4C312,152.7,288.5,146,263.5,146c0-25,6.7-48.5,18.399-68.8C306.9,77.3,330.4,84,350.6,95.6z"/>
<path fill="#FFFFFF" stroke="#000000" stroke-width="0.25" stroke-miterlimit="10" d="M281.9,77.3c-11.7,20.2-18.4,43.7-18.4,68.8
	c-25,0-48.5,6.7-68.8,18.4c0-25,6.699-48.5,18.399-68.8C233.4,84,256.9,77.3,281.9,77.3z"/>
<path fill="#FFFFFF" stroke="#000000" stroke-width="0.25" stroke-miterlimit="10" d="M332.3,164.4c0,25,6.7,48.5,18.399,68.8
	c-20.2-11.7-43.7-18.4-68.8-18.4c-11.7-20.2-18.399-43.7-18.399-68.8C288.5,146,312,152.7,332.3,164.4z"/>
<path fill="#FFFFFF" stroke="#000000" stroke-width="0.25" stroke-miterlimit="10" d="M263.5,146c0,25,6.7,48.5,18.399,68.8
	c-25,0-48.5,6.7-68.8,18.4C201.4,213,194.7,189.5,194.7,164.4C215,152.7,238.5,146,263.5,146z"/>
<path fill="#FFFFFF" stroke="#000000" stroke-width="0.25" stroke-miterlimit="10" d="M332.3,265.1L332.3,265.1
	c-25.101,0-48.5,6.7-68.8,18.4c-20.9-12.1-38.3-29.5-50.4-50.4c20.2-11.7,43.7-18.4,68.8-18.4C294,235.6,311.4,253,332.3,265.1z"/>
<path fill="#FFFFFF" stroke="#000000" stroke-width="0.25" stroke-miterlimit="10" d="M332.3,265.1c20.2,11.7,43.7,18.4,68.7,18.4
	c-25,0-48.5,6.7-68.7,18.4l0,0c-25,0-48.5-6.7-68.7-18.4C283.7,271.8,307.199,265.1,332.3,265.1L332.3,265.1z"/>
<path fill="#FFFFFF" stroke="#000000" stroke-width="0.25" stroke-miterlimit="10" d="M332.3,301.9L332.3,301.9
	C311.4,314,294,331.4,281.9,352.3c-25,0-48.5-6.7-68.8-18.399c12.101-20.899,29.5-38.301,50.4-50.299
	C283.7,295.2,307.199,301.9,332.3,301.9z"/>
<path fill="#FFFFFF" stroke="#000000" stroke-width="0.25" stroke-miterlimit="10" d="M382.6,352.3c0,25,6.7,48.5,18.4,68.8
	C388.9,442,371.5,459.4,350.6,471.4C338.9,451.2,332.2,427.7,332.2,402.7l0,0C353.1,390.5,370.5,373.1,382.6,352.3z"/>
<path fill="#FFFFFF" stroke="#000000" stroke-width="0.25" stroke-miterlimit="10" d="M401,283.6c0,25,6.699,48.4,18.399,68.6
	c0,25-6.7,48.5-18.399,68.8c-11.7-20.2-18.4-43.7-18.4-68.8C394.3,332.1,401,308.6,401,283.6z"/>
<path fill="#FFFFFF" stroke="#000000" stroke-width="0.25" stroke-miterlimit="10" d="M469.8,402.6L469.8,402.6
	c0,25.102-6.7,48.5-18.399,68.802C430.5,459.3,413.1,441.9,401.1,421.1c11.7-20.198,18.4-43.699,18.4-68.8
	C431.5,373.1,448.9,390.5,469.8,402.6z"/>
<path fill="#FFFFFF" stroke="#000000" stroke-width="0.25" stroke-miterlimit="10" d="M469.8,402.6c20.2,11.7,43.7,18.4,68.8,18.4
	c0,25-6.699,48.5-18.399,68.8c-25,0-48.5-6.7-68.8-18.398C463.1,451.1,469.8,427.7,469.8,402.6L469.8,402.6z"/>
<path fill="#FFFFFF" stroke="#000000" stroke-width="0.25" stroke-miterlimit="10" d="M538.5,421c-25,0-48.5-6.7-68.801-18.4
	c0-25-6.699-48.5-18.399-68.8c20.2,11.7,43.7,18.4,68.8,18.4C531.8,372.5,538.5,396,538.5,421z"/>
<path fill="#FFFFFF" stroke="#000000" stroke-width="0.25" stroke-miterlimit="10" d="M588.8,333.8
	c11.7,20.2,18.399,43.7,18.399,68.8C587,414.3,563.5,421,538.5,421c0-25-6.7-48.5-18.4-68.8C545.199,352.3,568.6,345.5,588.8,333.8z
	"/>
<path fill="#FFFFFF" stroke="#000000" stroke-width="0.25" stroke-miterlimit="10" d="M520.1,352.3
	C508,331.4,490.6,314,469.699,301.9l0,0c25,0,48.5-6.7,68.7-18.4c20.899,12.1,38.3,29.5,50.399,50.3
	C568.6,345.5,545.199,352.3,520.1,352.3z"/>
<path fill="#FFFFFF" stroke="#000000" stroke-width="0.25" stroke-miterlimit="10" d="M419.4,214.8C407.699,235,401,258.5,401,283.5
	c0-25-6.7-48.5-18.4-68.7c0-25,6.7-48.5,18.4-68.8C412.699,166.2,419.4,189.7,419.4,214.8z"/>
<path fill="#FFFFFF" stroke="#000000" stroke-width="0.25" stroke-miterlimit="10" d="M419.4,214.8c0,24.9-6.601,48.3-18.2,68.4
	c-0.101,0.1-0.101,0.2-0.2,0.3l0,0C401,258.5,407.699,235,419.4,214.8z"/>
<path fill="#FFFFFF" stroke="#000000" stroke-width="0.25" stroke-miterlimit="10" d="M401.199,283.2
	c11.601-20.1,18.2-43.5,18.2-68.4c12.101-20.9,29.5-38.3,50.3-50.4c0,25-6.699,48.5-18.399,68.8
	C430.6,245.2,413.3,262.5,401.199,283.2z"/>
<path fill="#FFFFFF" stroke="#000000" stroke-width="0.25" stroke-miterlimit="10" d="M451.3,233.1
	c-12.101,20.9-29.5,38.3-50.3,50.3c0.1-0.1,0.1-0.2,0.199-0.3C413.3,262.5,430.6,245.2,451.3,233.1z"/>
<path fill="#FFFFFF" stroke="#000000" stroke-width="0.25" stroke-miterlimit="10" d="M469.8,265.1
	C469.699,265.1,469.699,265.1,469.8,265.1c20.899-12.1,38.3-29.5,50.3-50.4c25.101,0,48.5,6.7,68.801,18.4
	c-12.101,20.9-29.5,38.3-50.4,50.4C518.3,271.8,494.8,265.1,469.8,265.1z"/>
<path fill="#FFFFFF" stroke="#000000" stroke-width="0.25" stroke-miterlimit="10" d="M520.1,214.8
	c-12.1,20.9-29.5,38.3-50.399,50.4c-25,0-48.5,6.7-68.699,18.4l0,0l0,0c20.899-12.1,38.3-29.5,50.3-50.3
	C471.6,221.5,495.1,214.8,520.1,214.8z"/>
<path fill="#FFFFFF" stroke="#000000" stroke-width="0.25" stroke-miterlimit="10" d="M350.6,233.1
	c12.101,20.9,29.5,38.3,50.301,50.3l0,0l0,0c-20.2-11.7-43.7-18.4-68.7-18.4c-20.899-12.1-38.3-29.5-50.399-50.4
	C306.9,214.8,330.4,221.5,350.6,233.1z"/>
<path fill="#FFFFFF" stroke="#000000" stroke-width="0.25" stroke-miterlimit="10" d="M213.1,233.1c12.101,20.9,29.5,38.3,50.4,50.4
	c-20.9,12.1-38.3,29.5-50.4,50.3c-20.899-12.1-38.3-29.5-50.399-50.3C174.9,262.6,192.3,245.2,213.1,233.1z"/>
<path fill="#FFFFFF" stroke="#000000" stroke-width="0.25" stroke-miterlimit="10" d="M281.9,352.3c-11.7,20.2-18.4,43.7-18.4,68.8
	c-25,0-48.5-6.698-68.8-18.398c0-25,6.699-48.5,18.399-68.801C233.4,345.5,256.9,352.3,281.9,352.3z"/>
<path fill="#FFFFFF" stroke="#000000" stroke-width="0.25" stroke-miterlimit="10" d="M400.8,283.8
	c-11.601,20.101-18.2,43.5-18.2,68.4c-12.101,20.899-29.5,38.3-50.399,50.3c0-25,6.7-48.5,18.399-68.8
	C371.4,321.8,388.8,304.5,400.8,283.8z"/>
<path fill="#FFFFFF" stroke="#000000" stroke-width="0.25" stroke-miterlimit="10" d="M350.699,333.8
	C339,354,332.3,377.5,332.3,402.6C312,414.3,288.5,421,263.5,421c0-25,6.7-48.5,18.399-68.8C306.9,352.3,330.4,345.5,350.699,333.8z
	"/>
<path fill="#FFFFFF" stroke="#000000" stroke-width="0.25" stroke-miterlimit="10" d="M401,283.5
	c20.199,11.7,43.699,18.4,68.699,18.4C490.6,314,508,331.4,520.1,352.3c-25,0-48.5-6.7-68.8-18.399C439.3,313,421.9,295.6,401,283.5
	L401,283.5L401,283.5z"/>
<path fill="#FFFFFF" stroke="#000000" stroke-width="0.25" stroke-miterlimit="10" d="M401,283.5c20.899,12.1,38.3,29.5,50.3,50.3
	c-20.8-12-38.101-29.3-50.2-50C401.1,283.7,401.1,283.6,401,283.5z"/>
<path fill="#FFFFFF" stroke="#000000" stroke-width="0.25" stroke-miterlimit="10" d="M469.699,265.1
	C449.5,276.8,426,283.5,401,283.5C421.199,271.8,444.699,265.1,469.699,265.1z"/>
<path fill="#FFFFFF" stroke="#000000" stroke-width="0.25" stroke-miterlimit="10" d="M401,283.5c25,0,48.5,6.7,68.699,18.4
	C444.699,301.9,421.199,295.2,401,283.5z"/>
<path fill="#FFFFFF" stroke="#000000" stroke-width="0.25" stroke-miterlimit="10" d="M469.8,265.1c25,0,48.5,6.7,68.7,18.4
	c-20.2,11.7-43.7,18.4-68.7,18.4l0,0c-20.2-11.7-43.7-18.4-68.7-18.4C426,283.5,449.5,276.8,469.8,265.1
	C469.699,265.1,469.699,265.1,469.8,265.1z"/>
<path fill="#FFFFFF" stroke="#000000" stroke-width="0.25" stroke-miterlimit="10" d="M382.6,214.8c11.7,20.2,18.4,43.7,18.4,68.7
	l0,0c-0.101-0.1-0.101-0.2-0.2-0.3C389.199,263,382.6,239.7,382.6,214.8z"/>
<path fill="#FFFFFF" stroke="#000000" stroke-width="0.25" stroke-miterlimit="10" d="M382.6,214.8c0,24.9,6.601,48.3,18.2,68.4
	c-12.101-20.7-29.399-38-50.2-50C338.9,213,332.2,189.5,332.2,164.4C353.1,176.5,370.5,193.9,382.6,214.8z"/>
<path fill="#FFFFFF" stroke="#000000" stroke-width="0.25" stroke-miterlimit="10" d="M401,146c-11.7,20.2-18.4,43.7-18.4,68.8
	c-12.1-20.9-29.5-38.3-50.399-50.4c0-25,6.7-48.5,18.399-68.8C371.5,107.7,388.9,125.1,401,146z"/>
<path fill="#FFFFFF" stroke="#000000" stroke-width="0.25" stroke-miterlimit="10" d="M401,45.3c20.899,12.1,38.3,29.5,50.3,50.4
	C430.4,107.8,413,125.2,401,146.1c-12.101-20.9-29.5-38.3-50.4-50.4C362.699,74.8,380.1,57.4,401,45.3z"/>
<path fill="#FFFFFF" stroke="#000000" stroke-width="0.25" stroke-miterlimit="10" d="M469.8,26.9C490.6,39,508,56.4,520.1,77.3
	c-25,0-48.5,6.7-68.8,18.4c-12.101-20.9-29.5-38.3-50.3-50.4C421.199,33.6,444.699,26.9,469.8,26.9z"/>
<path fill="#FFFFFF" stroke="#000000" stroke-width="0.25" stroke-miterlimit="10" d="M469.8,26.9c50.899,0,95.3,27.6,119.101,68.8
	C568.7,84,545.2,77.3,520.1,77.3C508,56.4,490.6,39,469.8,26.9z"/>
<path fill="#FFFFFF" stroke="#000000" stroke-width="0.25" stroke-miterlimit="10" d="M401,8.5c25,0,48.5,6.7,68.8,18.4
	c-25,0-48.5,6.7-68.8,18.4c-20.2-11.7-43.7-18.4-68.801-18.4C352.5,15.2,376,8.5,401,8.5z"/>
<path fill="#FFFFFF" stroke="#000000" stroke-width="0.25" stroke-miterlimit="10" d="M332.3,26.9C311.4,39,294,56.4,281.9,77.3
	c-25,0-48.5,6.7-68.8,18.4C236.9,54.5,281.4,26.9,332.3,26.9z"/>
<path fill="#FFFFFF" stroke="#000000" stroke-width="0.25" stroke-miterlimit="10" d="M213.1,95.6
	c-11.7,20.2-18.399,43.7-18.399,68.8c-20.9,12.1-38.301,29.5-50.4,50.4C144.4,163.9,172,119.4,213.1,95.6z"/>
</svg>
