<?xml version="1.0" encoding="utf-8"?>
<!-- Generator: Adobe Illustrator 15.0.0, SVG Export Plug-In . SVG Version: 6.00 Build 0)  -->
<!DOCTYPE svg PUBLIC "-//W3C//DTD SVG 1.1//EN" "http://www.w3.org/Graphics/SVG/1.1/DTD/svg11.dtd">
<svg version="1.1" id="www.ABC-color.com" xmlns="http://www.w3.org/2000/svg" xmlns:xlink="http://www.w3.org/1999/xlink" x="0px"
	 y="0px" width="822px" height="567px" viewBox="0 0 822 567" enable-background="new 0 0 822 567" xml:space="preserve">
<path fill="#FFFFFF" stroke="#000000" stroke-miterlimit="10" d="M415.5,281.5c-24.601,0-47.7-6.6-67.601-18.1
	C372.5,263.4,395.6,270,415.5,281.5z"/>
<path fill="#FFFFFF" stroke="#000000" stroke-miterlimit="10" d="M347.9,299.6c19.899-11.5,43-18.1,67.601-18.1
	C395.6,293,372.5,299.6,347.9,299.6z"/>
<path fill="#FFFFFF" stroke="#000000" stroke-miterlimit="10" d="M366,331c11.899-20.5,29-37.6,49.5-49.5
	c-0.101,0.1-0.101,0.2-0.2,0.4C403.4,302.2,386.4,319.2,366,331z"/>
<path fill="#FFFFFF" stroke="#000000" stroke-miterlimit="10" d="M415.3,281.9c0.101-0.1,0.101-0.2,0.2-0.4l0,0c0,0.1,0,0.1,0,0.1
	c0,24.6-6.601,47.6-18.101,67.5C397.4,324.6,403.9,301.7,415.3,281.9z"/>
<path fill="#FFFFFF" stroke="#000000" stroke-miterlimit="10" d="M415.5,281.5c0.1,0.1,0.199,0.3,0.199,0.4
	c11.399,19.8,17.899,42.8,17.899,67.2c-11.5-19.898-18.1-42.898-18.1-67.5C415.5,281.6,415.5,281.6,415.5,281.5z"/>
<path fill="#FFFFFF" stroke="#000000" stroke-miterlimit="10" d="M415.5,281.5c20.5,11.9,37.6,29,49.5,49.5
	c-20.4-11.8-37.4-28.8-49.301-49.1C415.699,281.8,415.6,281.6,415.5,281.5z"/>
<path fill="#FFFFFF" stroke="#000000" stroke-miterlimit="10" d="M483.1,299.6c-24.6,0-47.699-6.6-67.6-18.1
	C440.1,281.5,463.199,288.1,483.1,299.6z"/>
<path fill="#FFFFFF" stroke="#000000" stroke-miterlimit="10" d="M483.1,263.4c-19.899,11.5-43,18.1-67.6,18.1
	C435.4,270,458.5,263.4,483.1,263.4z"/>
<path fill="#FFFFFF" stroke="#000000" stroke-miterlimit="10" d="M465,232c-11.9,20.5-29,37.6-49.5,49.5
	c0.1-0.1,0.199-0.3,0.199-0.4C427.6,260.8,444.6,243.8,465,232z"/>
<path fill="#FFFFFF" stroke="#000000" stroke-miterlimit="10" d="M433.6,213.9c0,24.5-6.5,47.4-17.899,67.2
	c-0.101,0.1-0.101,0.3-0.199,0.4C415.5,256.9,422.1,233.8,433.6,213.9z"/>
<path fill="#FFFFFF" stroke="#000000" stroke-miterlimit="10" d="M397.4,213.9c11.5,19.9,18.101,43,18.101,67.6l0,0
	c-0.101-0.1-0.101-0.2-0.2-0.4C403.9,261.3,397.4,238.4,397.4,213.9z"/>
<path fill="#FFFFFF" stroke="#000000" stroke-miterlimit="10" d="M415.3,281.1c0.101,0.1,0.101,0.2,0.2,0.4
	c-20.5-11.9-37.6-29-49.5-49.5C386.4,243.8,403.4,260.8,415.3,281.1z"/>
<path fill="#FFFFFF" stroke="#000000" stroke-miterlimit="10" d="M347.9,263.4c19.899,11.5,43,18.1,67.601,18.1
	c-24.601,0-47.7,6.6-67.601,18.1l0,0c-24.601,0-47.7-6.6-67.601-18.1C300.199,270,323.3,263.4,347.9,263.4L347.9,263.4z"/>
<path fill="#FFFFFF" stroke="#000000" stroke-miterlimit="10" d="M415.5,281.5L415.5,281.5c-20.5,11.9-37.6,29-49.5,49.5
	c-19.9,11.5-43,18.1-67.601,18.1c11.9-20.5,29-37.699,49.5-49.5C372.5,299.6,395.6,293,415.5,281.5L415.5,281.5z"/>
<path fill="#FFFFFF" stroke="#000000" stroke-miterlimit="10" d="M415.3,281.9C403.9,301.7,397.4,324.7,397.4,349.2l0,0
	c-11.899,20.5-29,37.7-49.5,49.5l0,0c0-24.601,6.601-47.8,18.101-67.601C386.4,319.2,403.4,302.2,415.3,281.9z"/>
<path fill="#FFFFFF" stroke="#000000" stroke-miterlimit="10" d="M415.5,281.6c0,24.6,6.6,47.6,18.1,67.5l0,0
	c0,24.602-6.6,47.7-18.1,67.602C404,396.8,397.4,373.7,397.4,349.1l0,0C408.9,329.3,415.5,306.2,415.5,281.6z"/>
<path fill="#FFFFFF" stroke="#000000" stroke-miterlimit="10" d="M465,331c11.5,19.9,18.1,43,18.1,67.6
	c-20.5-11.898-37.6-29-49.5-49.5l0,0c0-24.5-6.5-47.398-17.899-67.2C427.6,302.3,444.6,319.2,465,331z"/>
<path fill="#FFFFFF" stroke="#000000" stroke-miterlimit="10" d="M415.5,281.5c19.899,11.5,43,18.1,67.6,18.1l0,0
	c20.5,11.9,37.7,29,49.5,49.5c-24.6,0-47.699-6.6-67.6-18.1C453.199,310.5,436,293.4,415.5,281.5L415.5,281.5L415.5,281.5z"/>
<path fill="#FFFFFF" stroke="#000000" stroke-miterlimit="10" d="M550.699,281.5c-19.899,11.5-43,18.1-67.601,18.1l0,0
	c-19.899-11.5-43-18.1-67.6-18.1c24.6,0,47.699-6.6,67.6-18.1l0,0C507.8,263.4,530.8,270,550.699,281.5z"/>
<path fill="#FFFFFF" stroke="#000000" stroke-miterlimit="10" d="M532.699,213.9c-11.899,20.5-29,37.6-49.5,49.5l0,0
	c-24.601,0-47.699,6.6-67.601,18.1l0,0l0,0c20.5-11.9,37.601-29,49.5-49.5C484.9,220.5,508,213.9,532.699,213.9z"/>
<path fill="#FFFFFF" stroke="#000000" stroke-miterlimit="10" d="M483.1,164.4c0,24.6-6.6,47.8-18.1,67.6
	c-20.4,11.8-37.4,28.8-49.301,49.1c11.399-19.8,17.899-42.8,17.899-67.2l0,0C445.5,193.3,462.6,176.2,483.1,164.4z"/>
<path fill="#FFFFFF" stroke="#000000" stroke-miterlimit="10" d="M433.6,213.9c-11.5,19.9-18.1,43-18.1,67.6
	c0-24.6-6.601-47.7-18.101-67.6l0,0c0-24.6,6.601-47.7,18.101-67.6C427,166.1,433.6,189.2,433.6,213.9L433.6,213.9z"/>
<path fill="#FFFFFF" stroke="#000000" stroke-miterlimit="10" d="M397.4,213.9c0,24.5,6.5,47.5,17.899,67.3
	C403.4,260.8,386.4,243.8,366,232.1c-11.5-19.9-18.101-43-18.101-67.6l0,0C368.4,176.2,385.5,193.3,397.4,213.9L397.4,213.9z"/>
<path fill="#FFFFFF" stroke="#000000" stroke-miterlimit="10" d="M366,232c11.899,20.5,29,37.6,49.5,49.5l0,0l0,0
	c-19.9-11.5-43-18.1-67.601-18.1c-20.5-11.9-37.7-29-49.5-49.5C323,213.9,346.1,220.5,366,232z"/>
<path fill="#FFFFFF" stroke="#000000" stroke-miterlimit="10" d="M347.9,263.4L347.9,263.4c-24.601,0-47.7,6.6-67.601,18.1l0,0
	c0-24.6,6.6-47.7,18.1-67.6l0,0C310.199,234.4,327.4,251.5,347.9,263.4z"/>
<path fill="#FFFFFF" stroke="#000000" stroke-miterlimit="10" d="M347.9,299.6L347.9,299.6c-20.5,11.9-37.601,29-49.5,49.5l0,0
	c-11.5-19.898-18.1-43-18.1-67.6l0,0C300.199,293,323.3,299.6,347.9,299.6z"/>
<path fill="#FFFFFF" stroke="#000000" stroke-miterlimit="10" d="M366,331c-11.5,19.9-18.101,43-18.101,67.6
	c-20.5-11.898-37.601-29-49.5-49.5l0,0C323,349.1,346.1,342.5,366,331z"/>
<path fill="#FFFFFF" stroke="#000000" stroke-miterlimit="10" d="M415.5,416.7C415.5,416.8,415.5,416.8,415.5,416.7
	c-24.601,0-47.7-6.602-67.601-18.102c20.5-11.898,37.601-28.999,49.5-49.499C397.4,373.8,404,396.8,415.5,416.7z"/>
<path fill="#FFFFFF" stroke="#000000" stroke-miterlimit="10" d="M483.1,398.7c-19.899,11.5-43,18.1-67.6,18.1l0,0
	c11.5-19.898,18.1-43,18.1-67.6C445.5,369.7,462.6,386.8,483.1,398.7L483.1,398.7z"/>
<path fill="#FFFFFF" stroke="#000000" stroke-miterlimit="10" d="M532.699,349.1L532.699,349.1c-11.899,20.5-29,37.7-49.5,49.5l0,0
	c0-24.6-6.601-47.8-18.101-67.6C484.9,342.5,508,349.1,532.699,349.1z"/>
<path fill="#FFFFFF" stroke="#000000" stroke-miterlimit="10" d="M550.8,281.5c0,24.6-6.601,47.7-18.101,67.6l0,0
	c-11.899-20.5-29-37.699-49.5-49.5C507.8,299.6,530.8,293,550.8,281.5L550.8,281.5z"/>
<path fill="#FFFFFF" stroke="#000000" stroke-miterlimit="10" d="M550.8,281.5L550.8,281.5c-19.899-11.5-43-18.1-67.601-18.1
	c20.5-11.9,37.7-29,49.5-49.5l0,0C544.199,233.8,550.8,256.9,550.8,281.5z"/>
<path fill="#FFFFFF" stroke="#000000" stroke-miterlimit="10" d="M483.1,164.4c20.5,11.9,37.7,29,49.5,49.5
	c-24.6,0-47.699,6.6-67.6,18.1C476.5,212.1,483.1,189,483.1,164.4C483.1,164.4,483.1,164.3,483.1,164.4z"/>
<path fill="#FFFFFF" stroke="#000000" stroke-miterlimit="10" d="M483.1,164.3L483.1,164.3c-20.5,11.9-37.6,29-49.5,49.5
	c0-24.6-6.6-47.7-18.1-67.6l0,0C440.199,146.3,463.199,152.8,483.1,164.3z"/>
<path fill="#FFFFFF" stroke="#000000" stroke-miterlimit="10" d="M415.5,146.3L415.5,146.3c-11.5,19.9-18.101,43-18.101,67.6
	c-11.899-20.5-29-37.6-49.5-49.5C367.8,152.8,390.9,146.3,415.5,146.3z"/>
<path fill="#FFFFFF" stroke="#000000" stroke-miterlimit="10" d="M347.9,164.4c0,24.6,6.601,47.8,18.101,67.6
	c-19.9-11.5-43-18.1-67.601-18.1C310.199,193.3,327.4,176.2,347.9,164.4z"/>
<path fill="#FFFFFF" stroke="#000000" stroke-miterlimit="10" d="M550.8,146.3c0,24.6-6.601,47.7-18.101,67.6
	c-11.899-20.5-29-37.6-49.5-49.5C503,152.8,526.1,146.3,550.8,146.3z"/>
<path fill="#FFFFFF" stroke="#000000" stroke-miterlimit="10" d="M465,96.7c11.5,19.9,18.1,43,18.1,67.6
	c-19.899-11.5-43-18.1-67.6-18.1C427.4,125.7,444.5,108.6,465,96.7z"/>
<path fill="#FFFFFF" stroke="#000000" stroke-miterlimit="10" d="M550.8,146.3c-24.601,0-47.7,6.6-67.601,18.1l0,0l0,0
	c0-24.6-6.601-47.7-18.101-67.6c19.9-11.5,43-18.1,67.601-18.1C544.199,98.5,550.8,121.6,550.8,146.3z"/>
<path fill="#FFFFFF" stroke="#000000" stroke-miterlimit="10" d="M483.1,29.1c50.101,0,93.801,27.2,117.2,67.6
	c-19.899-11.5-43-18.1-67.601-18.1C520.8,58.1,503.699,41,483.1,29.1z"/>
<path fill="#FFFFFF" stroke="#000000" stroke-miterlimit="10" d="M600.3,96.7c11.5,19.9,18.101,43,18.101,67.6
	c-19.9-11.5-43-18.1-67.601-18.1c0-24.6-6.601-47.7-18.101-67.6C557.3,78.6,580.4,85.2,600.3,96.7z"/>
<path fill="#FFFFFF" stroke="#000000" stroke-miterlimit="10" d="M667.9,213.9c-11.899-20.5-29-37.6-49.5-49.5
	c0-24.6-6.601-47.7-18.101-67.6C640.699,120.1,667.9,163.8,667.9,213.9z"/>
<path fill="#FFFFFF" stroke="#000000" stroke-miterlimit="10" d="M667.9,213.9L667.9,213.9c0,24.6-6.601,47.7-18.101,67.6
	c-11.899-20.5-29-37.6-49.5-49.5c11.5-19.9,18.101-43,18.101-67.6C638.9,176.2,656,193.3,667.9,213.9z"/>
<path fill="#FFFFFF" stroke="#000000" stroke-miterlimit="10" d="M550.8,146.3c24.601,0,47.7,6.6,67.601,18.1
	c0,24.6-6.601,47.7-18.101,67.6c-19.899-11.5-43-18.1-67.601-18.1l0,0C544.199,194,550.8,170.9,550.8,146.3z"/>
<path fill="#FFFFFF" stroke="#000000" stroke-miterlimit="10" d="M600.3,232c-11.899,20.5-29,37.6-49.5,49.5
	c0-24.6-6.601-47.7-18.101-67.6C557.3,213.9,580.4,220.5,600.3,232z"/>
<path fill="#FFFFFF" stroke="#000000" stroke-miterlimit="10" d="M550.8,281.5c20.5,11.9,37.7,29,49.5,49.5
	c-19.899,11.5-43,18.1-67.601,18.1C544.199,329.2,550.8,306.1,550.8,281.5z"/>
<path fill="#FFFFFF" stroke="#000000" stroke-miterlimit="10" d="M600.3,232c20.5,11.9,37.7,29,49.5,49.5
	c-11.899,20.5-29,37.7-49.5,49.5c-11.899-20.5-29-37.7-49.5-49.5l0,0l0,0C571.3,269.6,588.4,252.5,600.3,232z"/>
<path fill="#FFFFFF" stroke="#000000" stroke-miterlimit="10" d="M667.9,213.9c11.5,19.9,18.101,43,18.101,67.6
	c0,24.6-6.601,47.7-18.101,67.6c0-24.6-6.601-47.699-18.101-67.6C661.3,261.6,667.9,238.5,667.9,213.9z"/>
<path fill="#FFFFFF" stroke="#000000" stroke-miterlimit="10" d="M667.9,349.1L667.9,349.1c-11.899,20.5-29,37.7-49.5,49.5
	c0-24.6-6.601-47.699-18.101-67.6c20.5-11.9,37.7-29,49.5-49.5C661.3,301.4,667.9,324.5,667.9,349.1z"/>
<path fill="#FFFFFF" stroke="#000000" stroke-miterlimit="10" d="M618.4,398.7c20.5-11.9,37.699-29,49.5-49.5
	c0,50.1-27.2,93.8-67.601,117.2C611.8,446.4,618.4,423.3,618.4,398.7z"/>
<path fill="#FFFFFF" stroke="#000000" stroke-miterlimit="10" d="M600.3,331c11.5,19.9,18.101,43,18.101,67.6
	c-19.9,11.5-43,18.102-67.601,18.102c0-24.602-6.601-47.7-18.101-67.602l0,0l0,0C557.3,349.1,580.4,342.5,600.3,331z"/>
<path fill="#FFFFFF" stroke="#000000" stroke-miterlimit="10" d="M550.8,416.8c-24.601,0-47.7-6.6-67.601-18.1
	c20.5-11.9,37.601-29,49.5-49.5C544.199,369,550.8,392.1,550.8,416.8z"/>
<path fill="#FFFFFF" stroke="#000000" stroke-miterlimit="10" d="M483.1,398.7c0,24.6-6.6,47.7-18.1,67.6
	c-20.5-11.898-37.601-29-49.5-49.5C440.199,416.8,463.199,410.2,483.1,398.7z"/>
<path fill="#FFFFFF" stroke="#000000" stroke-miterlimit="10" d="M618.4,398.7c0,24.6-6.601,47.7-18.101,67.6
	c-19.899,11.5-43,18.102-67.601,18.102c11.5-19.9,18.101-43,18.101-67.602C575.4,416.8,598.5,410.2,618.4,398.7z"/>
<path fill="#FFFFFF" stroke="#000000" stroke-miterlimit="10" d="M483.1,398.7c19.9,11.5,43,18.1,67.601,18.1
	c0,24.602-6.601,47.7-18.101,67.602c-24.6,0-47.699-6.602-67.6-18.102C476.5,446.4,483.1,423.3,483.1,398.7L483.1,398.7L483.1,398.7
	z"/>
<path fill="#FFFFFF" stroke="#000000" stroke-miterlimit="10" d="M600.3,466.3c-23.399,40.4-67.101,67.602-117.2,67.602
	c20.5-11.9,37.7-29,49.5-49.5C557.3,484.4,580.4,477.8,600.3,466.3z"/>
<path fill="#FFFFFF" stroke="#000000" stroke-miterlimit="10" d="M483.1,533.9c-19.899,11.5-43,18.1-67.6,18.1
	c-24.601,0-47.7-6.6-67.601-18.1c24.601,0,47.699-6.602,67.601-18.102C435.4,527.3,458.5,533.9,483.1,533.9z"/>
<path fill="#FFFFFF" stroke="#000000" stroke-miterlimit="10" d="M532.699,484.4c-11.899,20.5-29,37.698-49.5,49.5l0,0
	c-24.601,0-47.699-6.602-67.601-18.102c20.5-11.898,37.7-29,49.5-49.5C484.9,477.8,508,484.4,532.699,484.4z"/>
<path fill="#FFFFFF" stroke="#000000" stroke-miterlimit="10" d="M415.5,416.8c-11.9,20.5-29,37.7-49.5,49.5
	c-11.5-19.898-18.101-43-18.101-67.6l0,0l0,0C367.8,410.2,390.9,416.8,415.5,416.8z"/>
<path fill="#FFFFFF" stroke="#000000" stroke-miterlimit="10" d="M465,466.3c-11.9,20.5-29,37.602-49.5,49.5
	c-20.5-11.898-37.7-29-49.5-49.5c20.5-11.898,37.6-29,49.5-49.5l0,0C427.4,437.3,444.5,454.4,465,466.3z"/>
<path fill="#FFFFFF" stroke="#000000" stroke-miterlimit="10" d="M366,466.3c11.899,20.5,29,37.7,49.5,49.5
	c-19.9,11.5-43,18.102-67.601,18.102c-20.5-11.9-37.7-29-49.5-49.5C323,484.4,346.1,477.8,366,466.3z"/>
<path fill="#FFFFFF" stroke="#000000" stroke-miterlimit="10" d="M347.9,533.9L347.9,533.9c-50.101,0-93.8-27.2-117.199-67.602
	c19.899,11.5,43,18.102,67.6,18.102l0,0C310.199,504.9,327.4,522,347.9,533.9z"/>
<path fill="#FFFFFF" stroke="#000000" stroke-miterlimit="10" d="M347.9,398.7L347.9,398.7c-19.899,11.5-43,18.1-67.601,18.1
	c0-24.6,6.6-47.7,18.1-67.6C310.199,369.7,327.4,386.8,347.9,398.7z"/>
<path fill="#FFFFFF" stroke="#000000" stroke-miterlimit="10" d="M347.9,398.7c0,24.6,6.601,47.7,18.101,67.6
	C346.1,477.8,323,484.4,298.4,484.4c-11.5-19.9-18.1-43-18.1-67.602C304.9,416.8,328,410.2,347.9,398.7z"/>
<path fill="#FFFFFF" stroke="#000000" stroke-miterlimit="10" d="M298.4,484.4L298.4,484.4c-24.6,0-47.699-6.602-67.6-18.102
	c-11.5-19.898-18.1-43-18.1-67.6l0,0c19.899,11.5,43,18.1,67.6,18.1C280.3,441.4,286.9,464.5,298.4,484.4z"/>
<path fill="#FFFFFF" stroke="#000000" stroke-miterlimit="10" d="M212.6,398.7c0,24.6,6.601,47.7,18.101,67.6
	C190.3,442.9,163.1,399.2,163.1,349.1C175,369.7,192.1,386.8,212.6,398.7L212.6,398.7z"/>
<path fill="#FFFFFF" stroke="#000000" stroke-miterlimit="10" d="M298.4,349.1L298.4,349.1c-11.5,19.9-18.1,43-18.1,67.602
	c-24.6,0-47.7-6.602-67.6-18.102c0-24.6,6.6-47.699,18.1-67.6C250.6,342.5,273.7,349.1,298.4,349.1L298.4,349.1z"/>
<path fill="#FFFFFF" stroke="#000000" stroke-miterlimit="10" d="M280.3,281.5c0,24.6,6.6,47.7,18.1,67.6
	c-24.6,0-47.699-6.6-67.6-18.1C242.6,310.5,259.7,293.4,280.3,281.5z"/>
<path fill="#FFFFFF" stroke="#000000" stroke-miterlimit="10" d="M230.7,331c-11.5,19.9-18.101,43-18.101,67.6
	c-20.5-11.898-37.6-29-49.5-49.5l0,0c0-24.6,6.601-47.699,18.101-67.6C193.1,302,210.2,319.2,230.7,331z"/>
<path fill="#FFFFFF" stroke="#000000" stroke-miterlimit="10" d="M298.4,213.9c-11.5,19.9-18.1,43-18.1,67.6
	c-20.5-11.9-37.6-29-49.5-49.5C250.6,220.5,273.7,213.9,298.4,213.9z"/>
<path fill="#FFFFFF" stroke="#000000" stroke-miterlimit="10" d="M230.7,232c11.899,20.5,29,37.6,49.5,49.5
	c-20.5,11.9-37.601,29-49.5,49.5c-20.5-11.9-37.7-29-49.5-49.5C193.1,261,210.2,243.9,230.7,232z"/>
<path fill="#FFFFFF" stroke="#000000" stroke-miterlimit="10" d="M163.1,213.9c0,24.6,6.601,47.7,18.101,67.6
	c-11.5,19.9-18.101,43-18.101,67.6c-11.5-19.898-18.1-43-18.1-67.6C145,256.9,151.6,233.8,163.1,213.9z"/>
<path fill="#FFFFFF" stroke="#000000" stroke-miterlimit="10" d="M212.6,164.4c0,24.6,6.601,47.7,18.101,67.6
	c-20.5,11.9-37.7,29-49.5,49.5c-11.5-19.9-18.101-43-18.101-67.6l0,0C175,193.3,192.1,176.2,212.6,164.4z"/>
<path fill="#FFFFFF" stroke="#000000" stroke-miterlimit="10" d="M298.4,213.9L298.4,213.9c-24.6,0-47.699,6.6-67.6,18.1
	c-11.5-19.9-18.1-43-18.1-67.6c19.899-11.5,43-18.1,67.6-18.1C280.3,170.9,286.9,194,298.4,213.9z"/>
<path fill="#FFFFFF" stroke="#000000" stroke-miterlimit="10" d="M347.9,164.3L347.9,164.3c-20.5,11.9-37.601,29-49.5,49.5
	c-11.5-19.9-18.1-43-18.1-67.6C304.9,146.3,328,152.8,347.9,164.3z"/>
<path fill="#FFFFFF" stroke="#000000" stroke-miterlimit="10" d="M366,96.7c20.5,11.9,37.6,29,49.5,49.5
	c-24.601,0-47.7,6.6-67.601,18.1l0,0l0,0C347.9,139.7,354.5,116.6,366,96.7z"/>
<path fill="#FFFFFF" stroke="#000000" stroke-miterlimit="10" d="M366,96.7c-11.5,19.9-18.101,43-18.101,67.6
	c-19.899-11.5-43-18.1-67.601-18.1c0-24.6,6.6-47.7,18.1-67.6C323,78.6,346.1,85.2,366,96.7z"/>
<path fill="#FFFFFF" stroke="#000000" stroke-miterlimit="10" d="M415.5,47.2c20.5,11.9,37.699,29,49.5,49.5
	c-20.5,11.9-37.601,29-49.5,49.5l0,0c-11.9-20.5-29-37.6-49.5-49.5C377.9,76.2,395,59.1,415.5,47.2z"/>
<path fill="#FFFFFF" stroke="#000000" stroke-miterlimit="10" d="M483.1,29.1c20.5,11.9,37.7,29,49.5,49.5
	c-24.6,0-47.699,6.6-67.6,18.1c-11.9-20.5-29-37.7-49.5-49.5C435.4,35.7,458.5,29.1,483.1,29.1L483.1,29.1z"/>
<path fill="#FFFFFF" stroke="#000000" stroke-miterlimit="10" d="M415.5,11c24.6,0,47.699,6.6,67.6,18.1
	c-24.6,0-47.699,6.6-67.6,18.1c-19.9-11.5-43-18.1-67.601-18.1C367.8,17.6,390.9,11,415.5,11z"/>
<path fill="#FFFFFF" stroke="#000000" stroke-miterlimit="10" d="M415.5,47.2c-20.5,11.9-37.7,29-49.5,49.5
	c-19.9-11.5-43-18.1-67.601-18.1c11.9-20.5,29-37.7,49.5-49.5C372.5,29.1,395.6,35.7,415.5,47.2z"/>
<path fill="#FFFFFF" stroke="#000000" stroke-miterlimit="10" d="M347.9,29.1L347.9,29.1c-20.5,11.9-37.601,29-49.5,49.5l0,0
	c-24.6,0-47.699,6.6-67.6,18.1C254.1,56.3,297.8,29.1,347.9,29.1z"/>
<path fill="#FFFFFF" stroke="#000000" stroke-miterlimit="10" d="M298.4,78.6L298.4,78.6c-11.5,19.9-18.1,43-18.1,67.6
	c-24.6,0-47.7,6.6-67.6,18.1l0,0c0-24.6,6.6-47.7,18.1-67.6C250.6,85.2,273.7,78.6,298.4,78.6z"/>
<path fill="#FFFFFF" stroke="#000000" stroke-miterlimit="10" d="M230.7,96.7c-11.5,19.9-18.101,43-18.101,67.6l0,0
	c-20.5,11.9-37.6,29-49.5,49.5C163.1,163.8,190.3,120.1,230.7,96.7z"/>
</svg>
