<?xml version="1.0" encoding="utf-8"?>
<!-- Generator: Adobe Illustrator 15.0.0, SVG Export Plug-In . SVG Version: 6.00 Build 0)  -->
<!DOCTYPE svg PUBLIC "-//W3C//DTD SVG 1.1//EN" "http://www.w3.org/Graphics/SVG/1.1/DTD/svg11.dtd">
<svg version="1.1" id="Layer_1" xmlns="http://www.w3.org/2000/svg" xmlns:xlink="http://www.w3.org/1999/xlink" x="0px" y="0px"
	 width="822px" height="567px" viewBox="0 0 822 567" enable-background="new 0 0 822 567" xml:space="preserve">
<path fill="#FFFFFF" stroke="#000000" stroke-miterlimit="10" d="M365.7,49.4c1.3,3.4,2,7.1,2,11c0,17.5-14.2,31.6-31.601,31.6
	C325.2,92,315.7,86.5,310,78.2l-0.6-1.1c-0.301-0.6-0.601-1.1-0.9-1.6l-0.8-1.4c-0.101-0.1-0.101-0.2-0.101-0.3
	C325.4,63.2,345,55,365.7,49.4z"/>
<path fill="#FFFFFF" stroke="#000000" stroke-miterlimit="10" d="M365.7,49.4L365.7,49.4C345,55,325.4,63.2,307.3,73.7
	c-1.9-4.1-2.9-8.6-2.9-13.3c0-17.5,14.2-31.6,31.6-31.6C349.6,28.7,361.2,37.3,365.7,49.4z"/>
<path fill="#FFFFFF" stroke="#000000" stroke-miterlimit="10" d="M430.1,40.8v2.3h-0.3c0,17.5-14.2,31.6-31.6,31.6
	c-15.5,0-28.4-11.1-31.101-25.8c20-5.3,41-8.1,62.601-8.2C429.8,40.8,429.9,40.8,430.1,40.8z"/>
<path fill="#FFFFFF" stroke="#000000" stroke-miterlimit="10" d="M398.1,11.5c16.7,0,30.301,12.9,31.5,29.3
	C408,40.8,387,43.7,367,49l0,0c-0.4-1.9-0.5-3.8-0.5-5.8C366.5,25.7,380.7,11.5,398.1,11.5z"/>
<path fill="#FFFFFF" stroke="#000000" stroke-miterlimit="10" d="M493.6,42.1c0,2.4-0.3,4.6-0.699,6.8c-19.9-5.3-40.9-8.1-62.5-8.1
	C431.1,24,445,10.5,462,10.5C479.5,10.5,493.6,24.6,493.6,42.1z"/>
<path fill="#FFFFFF" stroke="#000000" stroke-miterlimit="10" d="M492.9,48.9C489.8,63.1,477.1,73.7,462,73.7
	c-17.5,0-31.6-14.2-31.6-31.6c0-0.4,0-0.9,0-1.3C452,40.9,472.9,43.7,492.9,48.9z"/>
<path fill="#FFFFFF" stroke="#000000" stroke-miterlimit="10" d="M552.2,73.3c-5.3,10.1-15.9,17.1-28.101,17.1
	c-17.5,0-31.6-14.2-31.6-31.6c0-3.3,0.5-6.5,1.5-9.5C514.6,54.8,534.2,62.9,552.2,73.3z"/>
<path fill="#FFFFFF" stroke="#000000" stroke-miterlimit="10" d="M555.8,58.8c0,5.2-1.3,10.2-3.5,14.5
	c-18.1-10.4-37.6-18.6-58.2-24.1c4.101-12.8,16-22.1,30.2-22.1C541.6,27.2,555.8,41.3,555.8,58.8z"/>
<path fill="#FFFFFF" stroke="#000000" stroke-miterlimit="10" d="M611,92c0,7.8-2.8,15-7.5,20.5c-14.9-14.9-31.7-27.8-50.1-38.5
	c5.699-8.2,15.199-13.6,26-13.6C596.8,60.3,611,74.5,611,92z"/>
<path fill="#FFFFFF" stroke="#000000" stroke-miterlimit="10" d="M603.4,112.5c-5.801,6.8-14.4,11.1-24.101,11.1
	c-17.5,0-31.6-14.2-31.6-31.6c0-6.7,2.1-12.9,5.6-18C571.7,84.6,588.5,97.6,603.4,112.5z"/>
<path fill="#FFFFFF" stroke="#000000" stroke-miterlimit="10" d="M642.4,163c-5.101,3.5-11.2,5.5-17.801,5.5
	c-17.5,0-31.6-14.2-31.6-31.6c0-9.5,4.2-18.1,10.9-23.9C618.8,127.9,631.8,144.7,642.4,163z"/>
<path fill="#FFFFFF" stroke="#000000" stroke-miterlimit="10" d="M624.6,105.2c17.5,0,31.601,14.2,31.601,31.6
	c0,10.9-5.5,20.4-13.8,26.1c-10.7-18.3-23.601-35.1-38.5-50C609.5,108.2,616.7,105.2,624.6,105.2z"/>
<path fill="#FFFFFF" stroke="#000000" stroke-miterlimit="10" d="M656.3,160.7c17.5,0,31.601,14.2,31.601,31.6
	c0,13.6-8.7,25.3-20.801,29.7c-5.6-20.7-13.8-40.2-24.3-58.3C646.9,161.7,651.4,160.7,656.3,160.7z"/>
<path fill="#FFFFFF" stroke="#000000" stroke-miterlimit="10" d="M667.1,222c-3.399,1.2-7,1.9-10.899,1.9
	c-17.5,0-31.601-14.2-31.601-31.6c0-11.3,6-21.3,14.9-26.8l1.9-1.1c0.5-0.2,0.899-0.5,1.399-0.7C653.3,181.8,661.5,201.4,667.1,222z
	"/>
<path fill="#FFFFFF" stroke="#000000" stroke-miterlimit="10" d="M675.6,285.9c-1.1,0.1-2.199,0.199-3.399,0.199
	c-17.5,0-31.601-14.2-31.601-31.6c0-15.8,11.601-28.9,26.801-31.3C672.7,243.2,675.6,264.2,675.6,285.9z"/>
<path fill="#FFFFFF" stroke="#000000" stroke-miterlimit="10" d="M672.3,222.8c17.5,0,31.601,14.2,31.601,31.6
	c0,16.3-12.4,29.8-28.2,31.4c0-21.7-2.9-42.7-8.2-62.7C669,223,670.6,222.8,672.3,222.8z"/>
<path fill="#FFFFFF" stroke="#000000" stroke-miterlimit="10" d="M675.6,286.5C692,287.7,704.9,301.4,704.9,318
	c0,17.5-14.2,31.6-31.601,31.6c-2,0-3.899-0.199-5.7-0.5C672.8,329.1,675.6,308.1,675.6,286.5z"/>
<path fill="#FFFFFF" stroke="#000000" stroke-miterlimit="10" d="M673.3,286.4c0.8,0,1.601,0,2.3,0.1c0,21.6-2.8,42.6-8.1,62.6
	c-14.7-2.699-25.9-15.6-25.9-31.1C641.7,300.5,655.8,286.4,673.3,286.4z"/>
<path fill="#FFFFFF" stroke="#000000" stroke-miterlimit="10" d="M658.2,349.4c3.1,0,6.1,0.399,8.899,1.3
	c-5.6,20.6-13.699,40-24.1,58.1c-9.8-5.399-16.4-15.8-16.4-27.7C626.6,363.5,640.7,349.4,658.2,349.4z"/>
<path fill="#FFFFFF" stroke="#000000" stroke-miterlimit="10" d="M667.1,350.7c13.101,3.899,22.7,16,22.7,30.3
	c0,17.5-14.2,31.6-31.6,31.6c-5.5,0-10.7-1.399-15.2-3.899C653.4,390.7,661.6,371.2,667.1,350.7z"/>
<path fill="#FFFFFF" stroke="#000000" stroke-miterlimit="10" d="M642.5,409.7c8.6,5.6,14.3,15.399,14.3,26.5
	c0,17.5-14.2,31.6-31.6,31.6c-8.101,0-15.5-3.1-21.101-8.1C618.9,444.8,631.8,428,642.5,409.7z"/>
<path fill="#FFFFFF" stroke="#000000" stroke-miterlimit="10" d="M625.2,404.5c6.399,0,12.3,1.9,17.3,5.2
	c-10.6,18.3-23.6,35.1-38.4,50c-6.5-5.8-10.5-14.2-10.5-23.5C593.5,418.7,607.7,404.5,625.2,404.5z"/>
<path fill="#FFFFFF" stroke="#000000" stroke-miterlimit="10" d="M603.4,460.3c4.899,5.601,7.8,12.9,7.8,20.8
	c0,17.5-14.2,31.601-31.601,31.601c-10.899,0-20.6-5.601-26.3-14C571.7,488.2,588.5,475.2,603.4,460.3z"/>
<path fill="#FFFFFF" stroke="#000000" stroke-miterlimit="10" d="M579.6,449.6c9.5,0,18,4.2,23.801,10.801
	c-14.9,14.899-31.7,27.8-50,38.5c-3.4-5-5.4-11.101-5.4-17.601C548,463.7,562.1,449.6,579.6,449.6z"/>
<path fill="#FFFFFF" stroke="#000000" stroke-miterlimit="10" d="M552.7,499.2c2,4.1,3.1,8.8,3.1,13.6
	c0,17.5-14.2,31.601-31.6,31.601c-13.7,0-25.4-8.801-29.8-21C515,517.9,534.6,509.6,552.7,499.2z"/>
<path fill="#FFFFFF" stroke="#000000" stroke-miterlimit="10" d="M524.2,481.2c12.6,0,23.399,7.3,28.5,18
	c-18.101,10.5-37.7,18.7-58.3,24.3c-1.2-3.3-1.801-6.9-1.801-10.6C492.5,495.4,506.7,481.2,524.2,481.2z"/>
<path fill="#FFFFFF" stroke="#000000" stroke-miterlimit="10" d="M493.1,523.8c0.4,1.9,0.5,3.8,0.5,5.8
	c0,17.5-14.199,31.601-31.6,31.601c-16.7,0-30.3-12.9-31.5-29.3C452.1,531.9,473.1,529.1,493.1,523.8z"/>
<path fill="#FFFFFF" stroke="#000000" stroke-miterlimit="10" d="M462,498c15.5,0,28.3,11.1,31.1,25.8c-20,5.3-41,8.101-62.6,8.2
	c-0.1-0.8-0.1-1.6-0.1-2.3C430.4,512.1,444.5,498,462,498z"/>
<path fill="#FFFFFF" stroke="#000000" stroke-miterlimit="10" d="M429.7,531.9c-1.2,16.399-14.9,29.3-31.5,29.3
	c-17.5,0-31.601-14.2-31.601-31.601c0-2,0.2-3.899,0.5-5.8C387,529.1,408,531.9,429.7,531.9z"/>
<path fill="#FFFFFF" stroke="#000000" stroke-miterlimit="10" d="M398.1,498c17.5,0,31.601,14.2,31.601,31.6
	c0,0.801,0,1.601-0.101,2.301c-21.6,0-42.6-2.9-62.6-8.2C369.8,509.1,382.7,498,398.1,498z"/>
<path fill="#FFFFFF" stroke="#000000" stroke-miterlimit="10" d="M367.8,513.8c0,3.4-0.5,6.7-1.5,9.8
	c-20.6-5.5-40.2-13.699-58.3-24.1c5.2-10.3,15.9-17.3,28.2-17.3C353.7,482.2,367.8,496.3,367.8,513.8z"/>
<path fill="#FFFFFF" stroke="#000000" stroke-miterlimit="10" d="M366.3,523.6c-4.1,12.7-16,21.801-30.1,21.801
	c-17.5,0-31.6-14.2-31.6-31.601c0-5.2,1.2-10,3.4-14.3C326.1,509.9,345.6,518,366.3,523.6z"/>
<path fill="#FFFFFF" stroke="#000000" stroke-miterlimit="10" d="M312.2,481.2c0,6.5-2,12.6-5.4,17.6c-18.3-10.7-35.1-23.6-50-38.5
	c5.8-6.6,14.3-10.8,23.8-10.8C298,449.6,312.2,463.7,312.2,481.2z"/>
<path fill="#FFFFFF" stroke="#000000" stroke-miterlimit="10" d="M306.8,498.8c-5.7,8.4-15.3,14-26.3,14
	c-17.5,0-31.6-14.2-31.6-31.6c0-8,3-15.3,7.8-20.8C271.7,475.2,288.5,488.2,306.8,498.8z"/>
<path fill="#FFFFFF" stroke="#000000" stroke-miterlimit="10" d="M266.7,436.5c0,9.3-4,17.6-10.4,23.4
	c-14.9-14.9-27.8-31.7-38.5-49.9c5-3.2,10.9-5.1,17.2-5.1C252.5,404.9,266.7,419,266.7,436.5z"/>
<path fill="#FFFFFF" stroke="#000000" stroke-miterlimit="10" d="M256.3,459.9c-5.6,5.1-13.1,8.199-21.3,8.199
	c-17.5,0-31.6-14.199-31.6-31.6c0-11.1,5.7-20.9,14.4-26.5C228.5,428.3,241.5,445,256.3,459.9z"/>
<path fill="#FFFFFF" stroke="#000000" stroke-miterlimit="10" d="M203.5,348.7c17.5,0,31.6,14.2,31.6,31.6
	c0,12.601-7.3,23.4-17.9,28.5c-10.4-18.1-18.6-37.7-24.2-58.3C196.2,349.3,199.8,348.7,203.5,348.7z"/>
<path fill="#FFFFFF" stroke="#000000" stroke-miterlimit="10" d="M217.2,408.8c-4.1,2-8.8,3.101-13.7,3.101
	c-17.5,0-31.6-14.2-31.6-31.601c0-13.8,8.8-25.5,21.1-29.8C198.5,371.1,206.7,390.7,217.2,408.8z"/>
<path fill="#FFFFFF" stroke="#000000" stroke-miterlimit="10" d="M187.3,286.7c17.5,0,31.6,14.2,31.6,31.6
	c0,15.601-11.3,28.601-26.2,31.2c-5.3-20-8.1-41-8.2-62.7C185.4,286.7,186.3,286.7,187.3,286.7z"/>
<path fill="#FFFFFF" stroke="#000000" stroke-miterlimit="10" d="M192.7,349.5c-1.8,0.3-3.6,0.5-5.5,0.5
	c-17.5,0-31.6-14.2-31.6-31.6c0-16.5,12.7-30.101,28.9-31.5C184.6,308.5,187.4,329.5,192.7,349.5z"/>
<path fill="#FFFFFF" stroke="#000000" stroke-miterlimit="10" d="M192.7,223.3c14.9,2.6,26.2,15.5,26.2,31.2
	c0,17.5-14.2,31.6-31.6,31.6c-0.9,0-1.8,0-2.7-0.1C184.6,264.3,187.4,243.3,192.7,223.3z"/>
<path fill="#FFFFFF" stroke="#000000" stroke-miterlimit="10" d="M187.3,222.8c1.9,0,3.7,0.2,5.5,0.5c-5.3,20-8.1,41-8.2,62.7
	c-16.2-1.4-28.9-15-28.9-31.5C155.6,237,169.8,222.8,187.3,222.8z"/>
<path fill="#FFFFFF" stroke="#000000" stroke-miterlimit="10" d="M203.6,161.3c4.8,0,9.3,1.1,13.4,3c-10.4,18.1-18.6,37.7-24.1,58.4
	c-12.2-4.4-20.9-16.1-20.9-29.7C172,175.4,186.2,161.3,203.6,161.3z"/>
<path fill="#FFFFFF" stroke="#000000" stroke-miterlimit="10" d="M237.2,106.4c7.2,0,13.8,2.4,19.1,6.4
	c-14.9,14.9-27.9,31.8-38.6,50.1c-7.4-5.8-12.2-14.8-12.2-24.9C205.6,120.6,219.8,106.4,237.2,106.4z"/>
<path fill="#FFFFFF" stroke="#000000" stroke-miterlimit="10" d="M281.3,60.3c10.7,0,20.1,5.3,25.8,13.4
	C288.8,84.4,272,97.3,257,112.2c-4.6-5.5-7.3-12.5-7.3-20.2C249.7,74.5,263.9,60.3,281.3,60.3z"/>
<path fill="#FFFFFF" stroke="#000000" stroke-miterlimit="10" d="M309.6,77.7c2.2,4.3,3.4,9.1,3.4,14.3c0,17.5-14.2,31.6-31.6,31.6
	c-9.1,0-17.3-3.8-23.1-10c-0.4-0.5-0.9-0.9-1.2-1.4c14.9-14.9,31.8-27.8,50.2-38.4c0.101,0.1,0.101,0.1,0.2,0.2
	c0.1,0.2,0.3,0.4,0.4,0.6C308.3,75.7,308.9,76.7,309.6,77.7z"/>
<path fill="#FFFFFF" stroke="#000000" stroke-miterlimit="10" d="M261.7,118c4.5,5.5,7.2,12.5,7.2,20.1c0,17.5-14.2,31.6-31.6,31.6
	c-7.3,0-14.1-2.5-19.5-6.7c10.7-18.3,23.7-35.2,38.6-50.1c0.3,0.2,0.6,0.5,0.9,0.7L261.7,118z"/>
<path fill="#FFFFFF" stroke="#000000" stroke-miterlimit="10" d="M217,164.2c10.8,5,18.3,16,18.3,28.7c0,17.5-14.2,31.6-31.6,31.6
	c-3.8,0-7.4-0.7-10.8-1.9C198.4,202,206.6,182.4,217,164.2z"/>
<path fill="#FFFFFF" stroke="#000000" stroke-miterlimit="10" d="M430.1,286.4H323.4c0-9.5,1.3-18.8,3.6-27.601L430.1,286.4z"/>
<path fill="#FFFFFF" stroke="#000000" stroke-miterlimit="10" d="M430.1,286.4L430.1,286.4L327,314c-2.4-8.8-3.6-18.1-3.6-27.6
	H430.1z"/>
<path fill="#FFFFFF" stroke="#000000" stroke-miterlimit="10" d="M430.1,286.4L337.7,339.7c-4.601-8-8.2-16.601-10.7-25.7
	L430.1,286.4z"/>
<path fill="#FFFFFF" stroke="#000000" stroke-miterlimit="10" d="M430.1,286.4L354.7,361.8c-6.601-6.6-12.3-14-17-22.1L430.1,286.4z
	"/>
<path fill="#FFFFFF" stroke="#000000" stroke-miterlimit="10" d="M430.1,286.4L376.8,378.8c-8.1-4.7-15.5-10.399-22.1-17l0,0
	L430.1,286.4L430.1,286.4L430.1,286.4z"/>
<path fill="#FFFFFF" stroke="#000000" stroke-miterlimit="10" d="M430.1,286.4l-27.6,103.1c-9.1-2.4-17.7-6.1-25.7-10.7L430.1,286.4
	z"/>
<path fill="#FFFFFF" stroke="#000000" stroke-miterlimit="10" d="M430.1,286.4V393.1c-9.5,0-18.8-1.3-27.6-3.6L430.1,286.4z"/>
<path fill="#FFFFFF" stroke="#000000" stroke-miterlimit="10" d="M430.1,286.4L457.7,389.5c-8.8,2.3-18.101,3.6-27.601,3.6V286.4z"
	/>
<path fill="#FFFFFF" stroke="#000000" stroke-miterlimit="10" d="M430.1,286.4L483.4,378.8c-8,4.601-16.601,8.2-25.7,10.7
	L430.1,286.4L430.1,286.4z"/>
<path fill="#FFFFFF" stroke="#000000" stroke-miterlimit="10" d="M430.1,286.4l75.4,75.399c-6.6,6.601-14,12.3-22.1,17L430.1,286.4z
	"/>
<path fill="#FFFFFF" stroke="#000000" stroke-miterlimit="10" d="M430.1,286.4l92.4,53.3c-4.7,8.1-10.4,15.5-17,22.1L430.1,286.4z"
	/>
<path fill="#FFFFFF" stroke="#000000" stroke-miterlimit="10" d="M430.1,286.4l103,27.6c-2.399,9.1-6.1,17.7-10.699,25.7
	L430.1,286.4L430.1,286.4z"/>
<path fill="#FFFFFF" stroke="#000000" stroke-miterlimit="10" d="M430.1,286.4h106.7c0,9.5-1.3,18.8-3.6,27.6L430.1,286.4z"/>
<path fill="#FFFFFF" stroke="#000000" stroke-miterlimit="10" d="M536.8,286.4H430.1L533.2,258.8
	C535.5,267.6,536.8,276.8,536.8,286.4z"/>
<path fill="#FFFFFF" stroke="#000000" stroke-miterlimit="10" d="M533.1,258.8L430,286.4l0,0l92.4-53.3
	C527.1,241,530.7,249.7,533.1,258.8z"/>
<path fill="#FFFFFF" stroke="#000000" stroke-miterlimit="10" d="M522.5,233l-92.4,53.3l0,0l75.4-75.4l0,0
	C512.1,217.5,517.8,224.9,522.5,233z"/>
<path fill="#FFFFFF" stroke="#000000" stroke-miterlimit="10" d="M505.5,211l-75.4,75.4L483.4,194
	C491.5,198.7,498.9,204.4,505.5,211z"/>
<path fill="#FFFFFF" stroke="#000000" stroke-miterlimit="10" d="M483.4,194L430.1,286.4l27.601-103
	C466.8,185.8,475.4,189.4,483.4,194z"/>
<path fill="#FFFFFF" stroke="#000000" stroke-miterlimit="10" d="M457.7,183.3l-27.601,103l0,0V179.7
	C439.6,179.7,448.9,181,457.7,183.3z"/>
<path fill="#FFFFFF" stroke="#000000" stroke-miterlimit="10" d="M430.1,179.7v106.7L402.5,183.3C411.3,181,420.5,179.7,430.1,179.7
	z"/>
<path fill="#FFFFFF" stroke="#000000" stroke-miterlimit="10" d="M402.5,183.3L430.1,286.4L376.7,194
	C384.7,189.4,393.3,185.8,402.5,183.3z"/>
<path fill="#FFFFFF" stroke="#000000" stroke-miterlimit="10" d="M430.1,286.4L430.1,286.4L430.1,286.4L354.6,211
	c6.601-6.6,14-12.3,22.101-17L430.1,286.4z"/>
<path fill="#FFFFFF" stroke="#000000" stroke-miterlimit="10" d="M354.6,211l75.4,75.4L337.7,233C342.4,224.9,348.1,217.5,354.6,211
	z"/>
<path fill="#FFFFFF" stroke="#000000" stroke-miterlimit="10" d="M337.7,233l92.399,53.3L327,258.8C329.4,249.7,333.1,241,337.7,233
	z"/>
<path fill="#FFFFFF" stroke="#000000" stroke-miterlimit="10" d="M273,195.7l64.7,37.3c-4.601,8-8.2,16.6-10.7,25.7l-72.1-19.3
	C259,223.9,265.2,209.3,273,195.7z"/>
<path fill="#FFFFFF" stroke="#000000" stroke-miterlimit="10" d="M254.9,239.4l72.1,19.3c-2.4,8.8-3.6,18.1-3.6,27.6h-74.7
	C248.7,270.1,250.9,254.4,254.9,239.4z"/>
<path fill="#FFFFFF" stroke="#000000" stroke-miterlimit="10" d="M327,314l-72.1,19.3c-4-15-6.1-30.7-6.1-47h74.7
	C323.4,295.9,324.7,305.2,327,314z"/>
<path fill="#FFFFFF" stroke="#000000" stroke-miterlimit="10" d="M337.7,339.7L273,377.1c-7.8-13.6-14-28.199-18.1-43.699L327,314
	C329.4,323.1,333.1,331.8,337.7,339.7z"/>
<path fill="#FFFFFF" stroke="#000000" stroke-miterlimit="10" d="M354.6,361.8L354.6,361.8l-52.8,52.8
	c-11.2-11.199-20.9-23.8-28.8-37.5l64.7-37.3C342.4,347.8,348.1,355.2,354.6,361.8z"/>
<path fill="#FFFFFF" stroke="#000000" stroke-miterlimit="10" d="M376.7,378.8l-37.3,64.7c-13.801-8-26.4-17.7-37.5-28.8l0,0
	l52.8-52.8C361.2,368.4,368.6,374.1,376.7,378.8z"/>
<path fill="#FFFFFF" stroke="#000000" stroke-miterlimit="10" d="M402.5,389.5l-19.3,72.1c-15.5-4.1-30.2-10.3-43.7-18.1l37.3-64.7
	C384.7,383.4,393.3,387,402.5,389.5z"/>
<path fill="#FFFFFF" stroke="#000000" stroke-miterlimit="10" d="M430.1,393.1v74.7c-16.199,0-32-2.1-46.899-6.1l19.3-72.101
	C411.3,391.8,420.5,393.1,430.1,393.1z"/>
<path fill="#FFFFFF" stroke="#000000" stroke-miterlimit="10" d="M457.7,389.5l19.3,72.1c-15,4-30.7,6.101-46.9,6.101V393
	C439.6,393.1,448.9,391.8,457.7,389.5z"/>
<path fill="#FFFFFF" stroke="#000000" stroke-miterlimit="10" d="M483.4,378.8l37.3,64.7c-13.601,7.8-28.2,14-43.7,18.1l-19.3-72.1
	C466.8,387,475.4,383.4,483.4,378.8z"/>
<path fill="#FFFFFF" stroke="#000000" stroke-miterlimit="10" d="M558.3,414.6L558.3,414.6c-11.2,11.2-23.8,20.9-37.5,28.801
	l-37.3-64.7c8.1-4.7,15.5-10.4,22.1-17L558.3,414.6z"/>
<path fill="#FFFFFF" stroke="#000000" stroke-miterlimit="10" d="M522.5,339.7l64.7,37.3c-8,13.8-17.7,26.4-28.8,37.5L505.6,361.7
	C512.1,355.2,517.8,347.8,522.5,339.7z"/>
<path fill="#FFFFFF" stroke="#000000" stroke-miterlimit="10" d="M533.1,314l72.101,19.3c-4.101,15.5-10.3,30.2-18.101,43.7
	L522.4,339.7C527.1,331.8,530.7,323.1,533.1,314z"/>
<path fill="#FFFFFF" stroke="#000000" stroke-miterlimit="10" d="M536.8,286.4h74.7c0,16.199-2.1,32-6.1,47L533.1,314
	C535.5,305.2,536.8,295.9,536.8,286.4z"/>
<path fill="#FFFFFF" stroke="#000000" stroke-miterlimit="10" d="M611.4,286.4h-74.7c0-9.5-1.3-18.8-3.601-27.601l72.101-19.3
	C609.3,254.4,611.4,270.1,611.4,286.4z"/>
<path fill="#FFFFFF" stroke="#000000" stroke-miterlimit="10" d="M605.3,239.4l-72.1,19.3c-2.4-9.1-6.101-17.7-10.7-25.7l64.7-37.3
	C595,209.3,601.1,223.9,605.3,239.4z"/>
<path fill="#FFFFFF" stroke="#000000" stroke-miterlimit="10" d="M587.1,195.7L522.5,233c-4.7-8.1-10.4-15.5-17-22.1l52.8-52.8
	C569.5,169.3,579.2,181.9,587.1,195.7z"/>
<path fill="#FFFFFF" stroke="#000000" stroke-miterlimit="10" d="M558.3,158.1L505.5,211l0,0c-6.6-6.6-14-12.3-22.1-17l37.3-64.7
	C534.5,137.3,547.1,147,558.3,158.1z"/>
<path fill="#FFFFFF" stroke="#000000" stroke-miterlimit="10" d="M520.8,129.3L483.4,194c-8-4.6-16.601-8.2-25.7-10.7l19.3-72.1
	C492.5,115.3,507.2,121.5,520.8,129.3z"/>
<path fill="#FFFFFF" stroke="#000000" stroke-miterlimit="10" d="M477,111.2l-19.3,72.1c-8.8-2.4-18.101-3.6-27.601-3.6V105
	C446.3,105,462.1,107.2,477,111.2z"/>
<path fill="#FFFFFF" stroke="#000000" stroke-miterlimit="10" d="M430.1,105v74.7c-9.5,0-18.8,1.3-27.6,3.6l-19.3-72.1
	C398.1,107.2,413.8,105,430.1,105z"/>
<path fill="#FFFFFF" stroke="#000000" stroke-miterlimit="10" d="M383.1,111.2l19.301,72.1c-9.101,2.4-17.7,6.1-25.7,10.7
	l-37.3-64.7C353,121.5,367.6,115.3,383.1,111.2z"/>
<path fill="#FFFFFF" stroke="#000000" stroke-miterlimit="10" d="M339.4,129.3l37.3,64.7c-8.101,4.7-15.5,10.4-22.101,17l-52.8-52.8
	C313,147,325.6,137.3,339.4,129.3z"/>
<path fill="#FFFFFF" stroke="#000000" stroke-miterlimit="10" d="M301.8,158.1l52.8,52.8c-6.6,6.6-12.3,14-17,22.1L273,195.7
	C281,181.9,290.7,169.3,301.8,158.1z"/>
<path fill="#FFFFFF" stroke="#000000" stroke-miterlimit="10" d="M217.8,163c5.4,4.2,12.1,6.7,19.5,6.7c17.5,0,31.6-14.2,31.6-31.6
	c0-7.6-2.7-14.6-7.2-20.1l40.2,40.2c-11.2,11.2-20.9,23.8-28.8,37.5l-55.6-32.1l0,0C217.5,163.4,217.6,163.2,217.8,163z"/>
<path fill="#FFFFFF" stroke="#000000" stroke-miterlimit="10" d="M217.4,163.6l55.6,32.1c-7.8,13.6-14,28.2-18.1,43.7l-62-16.6h-0.1
	c0-0.1,0-0.1,0-0.2c3.4,1.2,7,1.9,10.8,1.9c17.5,0,31.6-14.2,31.6-31.6c0-12.7-7.5-23.6-18.3-28.7
	C217.1,164,217.3,163.8,217.4,163.6L217.4,163.6z"/>
<path fill="#FFFFFF" stroke="#000000" stroke-miterlimit="10" d="M192.9,222.8l62,16.6c-4,15-6.1,30.7-6.1,46.9h-64.2
	c0-0.1,0-0.3,0-0.399c0.9,0.1,1.8,0.1,2.7,0.1c17.5,0,31.6-14.2,31.6-31.6c0-15.6-11.3-28.6-26.2-31.2
	C192.7,223.1,192.8,223,192.9,222.8L192.9,222.8z"/>
<path fill="#FFFFFF" stroke="#000000" stroke-miterlimit="10" d="M254.9,333.3l-62,16.601h-0.1c0-0.2-0.1-0.301-0.1-0.5
	c14.9-2.601,26.2-15.5,26.2-31.2c0-17.5-14.2-31.601-31.6-31.601c-0.9,0-1.8,0-2.7,0.101c0-0.101,0-0.3,0-0.4h64.2
	C248.7,302.6,250.9,318.4,254.9,333.3z"/>
<path fill="#FFFFFF" stroke="#000000" stroke-miterlimit="10" d="M217.2,408.8c10.6-5.1,17.9-16,17.9-28.5
	c0-17.5-14.2-31.6-31.6-31.6c-3.7,0-7.2,0.6-10.5,1.8c0-0.2-0.1-0.3-0.1-0.5h0.1l62-16.6c4.1,15.5,10.3,30.199,18.1,43.699
	L217.5,409.2l0,0C217.3,409,217.2,408.9,217.2,408.8z"/>
<path fill="#FFFFFF" stroke="#000000" stroke-miterlimit="10" d="M256.3,459.9c6.4-5.801,10.4-14.101,10.4-23.4
	c0-17.5-14.2-31.6-31.6-31.6c-6.4,0-12.3,1.899-17.2,5.1c-0.2-0.3-0.3-0.5-0.5-0.8l0,0L273,377.1c8,13.801,17.7,26.4,28.8,37.5l0,0
	L256.4,460C256.4,460,256.4,459.9,256.3,459.9z"/>
<path fill="#FFFFFF" stroke="#000000" stroke-miterlimit="10" d="M256.4,460l45.4-45.4c11.2,11.2,23.8,20.9,37.5,28.801L307.2,499
	l0,0c-0.2-0.1-0.3-0.2-0.5-0.3c3.399-5,5.399-11.101,5.399-17.601c0-17.5-14.2-31.6-31.6-31.6c-9.5,0-18,4.2-23.8,10.8
	C256.7,460.2,256.6,460.1,256.4,460L256.4,460z"/>
<path fill="#FFFFFF" stroke="#000000" stroke-miterlimit="10" d="M383.1,461.6l-16.6,62v0.101c-0.1,0-0.2,0-0.2-0.101
	c1-3.1,1.5-6.399,1.5-9.8c0-17.5-14.2-31.6-31.6-31.6c-12.3,0-23,7-28.2,17.3c-0.2-0.1-0.5-0.3-0.7-0.4l0,0l32.101-55.6
	C353,451.3,367.6,457.5,383.1,461.6z"/>
<path fill="#FFFFFF" stroke="#000000" stroke-miterlimit="10" d="M429.8,529.6c0-17.5-14.2-31.6-31.6-31.6
	c-15.5,0-28.4,11.1-31.101,25.8c-0.199,0-0.399-0.1-0.6-0.1V523.6l16.6-62c15,4,30.7,6.101,46.9,6.101v64.2c-0.1,0-0.3,0-0.4,0
	C429.7,531.2,429.8,530.4,429.8,529.6z"/>
<path fill="#FFFFFF" stroke="#000000" stroke-miterlimit="10" d="M430.4,529.6c0,0.801,0,1.601,0.1,2.301c-0.1,0-0.3,0-0.4,0v-64.2
	c16.2,0,32-2.101,46.9-6.101l16.6,62v0.101c-0.199,0.1-0.399,0.1-0.6,0.1c-2.7-14.7-15.6-25.8-31.1-25.8
	C444.5,498,430.4,512.1,430.4,529.6z"/>
<path fill="#FFFFFF" stroke="#000000" stroke-miterlimit="10" d="M520.8,443.5l32.101,55.6l0,0c-0.101,0-0.101,0.101-0.2,0.101
	c-5.101-10.601-16-18-28.5-18c-17.5,0-31.601,14.2-31.601,31.6c0,3.7,0.601,7.3,1.801,10.601c-0.2,0.1-0.5,0.1-0.7,0.199v-0.1
	l-16.601-62C492.5,457.5,507.2,451.3,520.8,443.5z"/>
<path fill="#FFFFFF" stroke="#000000" stroke-miterlimit="10" d="M558.3,414.6l45.4,45.4c-0.101,0.1-0.2,0.2-0.3,0.3
	c-5.801-6.6-14.301-10.8-23.801-10.8c-17.5,0-31.6,14.2-31.6,31.6c0,6.5,2,12.601,5.4,17.601c-0.101,0.1-0.301,0.2-0.5,0.3l0,0
	L520.8,443.4C534.5,435.5,547.1,425.8,558.3,414.6z"/>
<path fill="#FFFFFF" stroke="#000000" stroke-miterlimit="10" d="M593.5,436.2c0,9.3,4.1,17.7,10.5,23.5c-0.1,0.1-0.2,0.2-0.3,0.3
	l-45.4-45.4l0,0c11.2-11.199,20.9-23.8,28.8-37.5L642.7,409.2l0,0c-0.101,0.2-0.2,0.399-0.3,0.5c-5-3.3-10.9-5.2-17.301-5.2
	C607.7,404.5,593.5,418.7,593.5,436.2z"/>
<path fill="#FFFFFF" stroke="#000000" stroke-miterlimit="10" d="M642.7,409.2L587.1,377.1c7.9-13.6,14-28.199,18.101-43.699
	l62,16.6h0.1c-0.1,0.2-0.1,0.5-0.2,0.7c-2.8-0.8-5.8-1.3-8.899-1.3c-17.5,0-31.601,14.199-31.601,31.6c0,12,6.601,22.4,16.4,27.7
	C642.9,408.9,642.9,409,642.7,409.2L642.7,409.2z"/>
<path fill="#FFFFFF" stroke="#000000" stroke-miterlimit="10" d="M611.4,286.4H673.3c-17.5,0-31.6,14.199-31.6,31.6
	c0,15.5,11.1,28.4,25.899,31.1c-0.1,0.301-0.1,0.601-0.199,0.9H667.3l-62-16.6C609.3,318.4,611.4,302.6,611.4,286.4z"/>
<path fill="#FFFFFF" stroke="#000000" stroke-miterlimit="10" d="M675.6,286.4h-2.3H611.4c0-16.2-2.101-32-6.101-46.9l62-16.6h0.101
	c0,0.1,0.1,0.3,0.1,0.4c-15.2,2.3-26.8,15.4-26.8,31.3c0,17.5,14.2,31.6,31.6,31.6c1.101,0,2.3-0.101,3.4-0.2
	C675.6,286.1,675.6,286.2,675.6,286.4z"/>
<path fill="#FFFFFF" stroke="#000000" stroke-miterlimit="10" d="M667.3,222.8l-62,16.6c-4.1-15.5-10.3-30.2-18.1-43.7l52.399-30.2
	C630.7,171.1,624.7,181,624.7,192.3c0,17.5,14.2,31.6,31.6,31.6c3.8,0,7.5-0.7,10.9-1.9C667.2,222.3,667.3,222.5,667.3,222.8
	L667.3,222.8z"/>
<path fill="#FFFFFF" stroke="#000000" stroke-miterlimit="10" d="M603.9,113c-6.7,5.8-10.9,14.4-10.9,23.9
	c0,17.5,14.2,31.6,31.6,31.6c6.601,0,12.7-2,17.801-5.5c0.1,0.2,0.3,0.4,0.399,0.7c-0.5,0.2-0.899,0.5-1.399,0.7
	c-0.601,0.3-1.301,0.7-1.9,1.1l-52.4,30.2c-8-13.8-17.699-26.4-28.8-37.5l45.4-45.4l0,0C603.8,112.8,603.9,112.9,603.9,113z"/>
<path fill="#FFFFFF" stroke="#000000" stroke-miterlimit="10" d="M579.3,123.6c9.601,0,18.3-4.3,24.101-11.1
	c0.1,0.1,0.199,0.2,0.3,0.3l-45.4,45.4c-11.2-11.2-23.8-20.9-37.5-28.8L552.9,73.8l0,0c0.199,0.1,0.3,0.2,0.5,0.3
	c-3.5,5.1-5.601,11.3-5.601,18C547.7,109.4,561.9,123.6,579.3,123.6z"/>
<path fill="#FFFFFF" stroke="#000000" stroke-miterlimit="10" d="M524.2,90.4c12.2,0,22.8-6.9,28.1-17.1c0.2,0.1,0.4,0.2,0.601,0.4
	l0,0L520.8,129.3c-13.6-7.8-28.2-14-43.7-18.1l16.601-62v-0.1c0.1,0,0.2,0.1,0.399,0.1c-1,3-1.5,6.2-1.5,9.5
	C492.5,76.3,506.7,90.4,524.2,90.4z"/>
<path fill="#FFFFFF" stroke="#000000" stroke-miterlimit="10" d="M430.4,40.8c0,0.4,0,0.8,0,1.3c0,17.5,14.199,31.6,31.6,31.6
	c15.1,0,27.8-10.6,30.9-24.8c0.199,0.1,0.5,0.1,0.8,0.2v0.1l-16.601,62c-15-4-30.699-6.1-46.899-6.1V43.2v-2.3
	C430.2,40.8,430.3,40.8,430.4,40.8z"/>
<path fill="#FFFFFF" stroke="#000000" stroke-miterlimit="10" d="M383.1,111.2l-16.6-62v-0.1c0.2-0.1,0.4-0.1,0.6-0.1
	c2.7,14.7,15.601,25.8,31.101,25.8c17.5,0,31.6-14.2,31.6-31.6h0.3V105C413.8,105,398.1,107.2,383.1,111.2z"/>
<path fill="#FFFFFF" stroke="#000000" stroke-miterlimit="10" d="M366.5,49.2l16.6,62c-15.5,4.1-30.199,10.3-43.699,18.1l-29.5-51.1
	C315.6,86.5,325.1,92,336,92c17.5,0,31.6-14.2,31.6-31.6c0-3.9-0.699-7.6-2-11l0,0C365.9,49.3,366.2,49.2,366.5,49.2L366.5,49.2z"/>
<path fill="#FFFFFF" stroke="#000000" stroke-miterlimit="10" d="M258.3,113.6c5.8,6.2,14,10,23.1,10c17.5,0,31.6-14.2,31.6-31.6
	c0-5.1-1.2-10-3.4-14.3c0.101,0.2,0.2,0.3,0.301,0.5l29.5,51.1c-13.801,8-26.4,17.7-37.5,28.8L261.7,118c-1.3-1.6-2.8-3.1-4.4-4.4
	l-0.8-0.8c0.2-0.2,0.4-0.4,0.6-0.6C257.4,112.7,257.8,113.1,258.3,113.6z"/>
</svg>
