<?xml version="1.0" encoding="utf-8"?>
<svg version="1.2" baseProfile="tiny"	 xmlns="http://www.w3.org/2000/svg" xmlns:xlink="http://www.w3.org/1999/xlink" x="0px" y="0px" width="822px" height="567px" viewBox="0 0 822 567">
		 <!--abc-color.com-->
			<title>Circle 24</title>
			<desc>Circle divided into 24 parts</desc>
<g>
	<path fill="#FFFFFF" stroke="#000000" d="M454.5,283.7L454.5,283.7L454.5,283.7L262.9,92.1
		C279.6,75.4,298.4,60.9,319,49l0,0L454.5,283.7z"/>
	<path fill="#FFFFFF" stroke="#000000" d="M262.9,92.1l191.6,191.6L219.8,148.3l0,0
		C231.7,127.7,246.2,108.8,262.9,92.1z"/>
	<path fill="#FFFFFF" stroke="#000000" d="M219.8,148.3l234.7,135.5l-261.8-70.1l-0.1,0
		C198.9,190.4,208,168.5,219.8,148.3L219.8,148.3z"/>
	<path fill="#FFFFFF" stroke="#000000" d="M454.5,283.8h-271c0-24.3,3.2-47.8,9.2-70.2l0.1,0L454.5,283.8z"
		/>
	<path fill="#FFFFFF" stroke="#000000" d="M454.5,283.8L454.5,283.8l-261.8,70.1l-0.1,0
		c-6-22.4-9.2-45.9-9.2-70.2H454.5z"/>
	<path fill="#FFFFFF" stroke="#000000" d="M454.5,283.8L219.8,419.3l0,0c-11.7-20.3-20.9-42.2-27.1-65.4
		l0.1,0L454.5,283.8z"/>
	<path fill="#FFFFFF" stroke="#000000" d="M454.5,283.8L262.9,475.4c-16.7-16.7-31.2-35.5-43.1-56.1l0,0
		L454.5,283.8z"/>
	<path fill="#FFFFFF" stroke="#000000" d="M454.5,283.8L319,518.4l0,0c-20.6-11.9-39.4-26.4-56.1-43.1v0
		L454.5,283.8L454.5,283.8L454.5,283.8z"/>
	<path fill="#FFFFFF" stroke="#000000" d="M454.5,283.8l-70.1,261.8l0,0.1c-23.2-6.2-45.1-15.4-65.4-27.1
		l0,0L454.5,283.8z"/>
	<path fill="#FFFFFF" stroke="#000000" d="M454.5,283.8v271c-24.3,0-47.8-3.2-70.2-9.2l0-0.1L454.5,283.8z"
		/>
	<path fill="#FFFFFF" stroke="#000000" d="M524.6,545.5L524.6,545.5c-22.4,6-45.9,9.2-70.1,9.2v-271
		L524.6,545.5z"/>
	<path fill="#FFFFFF" stroke="#000000" d="M590,518.4L590,518.4c-20.2,11.8-42.2,20.9-65.3,27.1l0-0.1
		l-70.1-261.8l0,0L590,518.4z"/>
	<path fill="#FFFFFF" stroke="#000000" d="M454.5,283.8l191.6,191.6c-16.7,16.7-35.5,31.2-56.1,43.1l0,0
		L454.5,283.8z"/>
	<path fill="#FFFFFF" stroke="#000000" d="M689.2,419.3L689.2,419.3c-11.9,20.6-26.4,39.4-43.1,56.1
		L454.5,283.8L689.2,419.3z"/>
	<path fill="#FFFFFF" stroke="#000000" d="M716.3,353.9L716.3,353.9c-6.1,23.2-15.3,45.1-27,65.4l0,0
		L454.5,283.8l0,0L716.3,353.9z"/>
	<path fill="#FFFFFF" stroke="#000000" d="M454.5,283.8h271c0,24.3-3.2,47.8-9.2,70.2l-0.1,0L454.5,283.8z"
		/>
	<path fill="#FFFFFF" stroke="#000000" d="M725.5,283.8h-271l261.8-70.1l0.1,0
		C722.3,236,725.5,259.5,725.5,283.8z"/>
	<path fill="#FFFFFF" stroke="#000000" d="M716.3,213.6L716.3,213.6l-261.8,70.2v0l234.7-135.5l0,0
		C701,168.5,710.1,190.4,716.3,213.6z"/>
	<path fill="#FFFFFF" stroke="#000000" d="M689.2,148.2L689.2,148.2L454.5,283.7l0,0L646.1,92.1h0
		C662.8,108.8,677.3,127.7,689.2,148.2z"/>
	<path fill="#FFFFFF" stroke="#000000" d="M646.1,92.1L454.5,283.7L590,49.1l0,0
		C610.6,60.9,629.4,75.4,646.1,92.1z"/>
	<path fill="#FFFFFF" stroke="#000000" d="M590,49L590,49L454.5,283.7L524.6,22l0-0.1
		C547.8,28.1,569.8,37.3,590,49z"/>
	<path fill="#FFFFFF" stroke="#000000" d="M524.7,21.9L524.7,21.9l-70.1,261.8l0,0v-271
		C478.8,12.8,502.3,15.9,524.7,21.9z"/>
	<path fill="#FFFFFF" stroke="#000000" d="M454.5,12.8v271L384.4,22l0-0.1C406.7,15.9,430.2,12.8,454.5,12.8
		z"/>
	<path fill="#FFFFFF" stroke="#000000" d="M384.4,22l70.1,261.8L319,49.1l0,0
		C339.3,37.3,361.2,28.1,384.4,22L384.4,22z"/>
</g>
</svg>
