<?xml version="1.0" encoding="utf-8"?>
<!-- Generator: Adobe Illustrator 15.0.0, SVG Export Plug-In . SVG Version: 6.00 Build 0)  -->
<!DOCTYPE svg PUBLIC "-//W3C//DTD SVG 1.1//EN" "http://www.w3.org/Graphics/SVG/1.1/DTD/svg11.dtd">
<svg version="1.1" id="Layer_1" xmlns="http://www.w3.org/2000/svg" xmlns:xlink="http://www.w3.org/1999/xlink" x="0px" y="0px"
	 width="822px" height="567px" viewBox="0 0 822 567" enable-background="new 0 0 822 567" xml:space="preserve">
<title>Scar</title>
<desc>Vector coloring scar</desc>
<path fill="#FFFFFF" stroke="#000000" d="M633,408l18.5,41l-88.1,30.5H457.6l-77,44.1l-77.5,27.7l-117.3-39.1
	c0,0,103.1,10.1,125.2-10.2c39-35.9,152-77.9,193-69s42.7-2,69-25S633,408,633,408z"/>
<path fill="#FFFFFF" stroke="#000000" d="M615.3,323.3L633,408c0,0-33.7-23-60,0s-28,33.9-69,25s-154,33.1-193,69
	c-22,20.3-125.2,10.2-125.2,10.2l-76.8-70c0,0,93,22.8,117,7.8s63.6-42,149.3-43c85.7-1,85.7,3,122.7-38S573,329,615.3,323.3z"/>
<path fill="#FFFFFF" stroke="#000000" d="M599,207.1l16.3,116.2C573,329,535,328,498,369s-37,37-122.7,38c-85.7,1-125.3,28-149.3,43
	s-117-7.8-117-7.8l-3-2.7l45.6-78c0,0,57.4,3.6,121.4-40.4c64-44,128-14,159,0s66-21,88-59C542,224.1,581.1,200.2,599,207.1z"/>
<path fill="#FFFFFF" stroke="#000000" d="M554.7,114.3l44.399,92.8c-18-6.9-57,16.9-79,54.9s-57,73-88,59s-95-44-159,0
	c-64,44-121.4,40.4-121.4,40.4l23.8-91.3c0,0,44.7,22.5,66.7,10.2S333,254,344,261s79,16,103-28s31-55,57-72
	S552.3,132.7,554.7,114.3z"/>
<path fill="#FFFFFF" stroke="#000000" d="M513.9,86.9l40.8,27.4C552.3,132.7,530,144,504,161s-33,28-57,72s-92,35-103,28
	s-80,7-102,19.3s-66.7-10.2-66.7-10.2l38-60c0,0,28.7,18.9,52.7,11.9s73,1,97-32s49-64,74-66S498.8,107.8,513.9,86.9z"/>
<path fill="#FFFFFF" stroke="#000000" d="M484.7,46.2l29.2,40.7C498.8,107.8,462,122,437,124s-50,33-74,66s-73,25-97,32
	s-52.7-11.9-52.7-11.9l1.9-3l74.6-94.9c-1.6,2.3-10.9,16.6,13.2,17.8c54.2,2.7,75.8-17,75.8-17S404,80,423,68S484.7,46.2,484.7,46.2
	z"/>
<path fill="#FFFFFF" stroke="#000000" d="M445.3,9.3l39.4,36.9c0,0-42.7,9.8-61.7,21.8s-44.2,45-44.2,45s-21.6,19.7-75.8,17
	c-24.1-1.2-14.8-15.5-13.2-17.8c0.1-0.1,0.1-0.1,0.1-0.2c0.1-0.1,0.1-0.1,0.1-0.1l90.6-64.8L445.3,9.3z"/>
</svg>
