<?xml version="1.0" encoding="utf-8"?>
<!-- Generator: Adobe Illustrator 15.0.0, SVG Export Plug-In . SVG Version: 6.00 Build 0)  -->
<!DOCTYPE svg PUBLIC "-//W3C//DTD SVG 1.1//EN" "http://www.w3.org/Graphics/SVG/1.1/DTD/svg11.dtd">
<svg version="1.1" id="Layer_1" xmlns="http://www.w3.org/2000/svg" xmlns:xlink="http://www.w3.org/1999/xlink" x="0px" y="0px"
	 width="822px" height="567px" viewBox="0 0 822 567" enable-background="new 0 0 822 567" xml:space="preserve">
<g id="FON">
	<polyline fill="#FFFFFF" points="0,567 0,0 822,0 822,567 	"/>
</g>
<g id="COLORING">
	<g id="XMLID_3_">
		<polygon fill="#FFFFFF" stroke="#000000" stroke-miterlimit="10" points="654.8,506.7 555.9,538.5 454.1,538.5 367.9,478 402,462 
			424,438 473.4,430 473.5,430.5 519,455.5 566,455.5 594,484.8 624.6,498 		"/>
		<polygon fill="#FFFFFF" stroke="#000000" stroke-miterlimit="10" points="375,301 354,319.6 326,349.2 321,411 274,457 
			257.7,506.5 175.8,484.8 198.1,442 187,397 216,384 238,349.2 257.7,327 258.9,283.5 287,271 334,284.6 		"/>
		<polygon fill="#FFFFFF" stroke="#000000" stroke-miterlimit="10" points="488,295.4 496,384 487,405 473.5,430 473.4,430 424,438 
			402,462 367.9,478 257.7,506.5 274,457 321,411 326,349.2 354,319.6 375,301 416.1,292 463.4,255.1 463.5,255.3 		"/>
		<path fill="#FFFFFF" stroke="#000000" stroke-miterlimit="10" d="M463.5,255v-29l-0.5-23l59-37l44,48l6,29l-6,30
			c0,0,0.7,1,1.7,2.5L566,277l-13,40l-23,37.5L496,384l-8-88.6L463.5,255.3l-0.1-0.2L463.5,255z"/>
		<path fill="#FFFFFF" stroke="#000000" stroke-miterlimit="10" d="M683,438c3,1-23.4,63.1-23.8,64l0,0l-4.4,4.6l-30.1-8.699
			L594,484.8l-28-29.3h-47l-45.5-25l-0.1-0.5h0.1l13.5-25l9-21l34-29.5l23-37.5l13-40l1.7-1.5c5.2,7.6,20.399,30,21.3,32.5
			c1,3,37,36,37,36l33.2,36l5.8,37C665,417,680,437,683,438z"/>
		<path fill="#FFFFFF" stroke="#000000" stroke-miterlimit="10" d="M705.6,232.6L789,414.3l-74.9,30.3L659.2,502
			c0.399-0.9,26.8-63.1,23.8-64l-1.3-35l-8.3-36l16.5-22l-6.801-44l-9.699-37v-27v-0.1l0.1,0.1l31.8-4.4l0.2-0.1L705.6,232.6z"/>
		<polygon fill="#FFFFFF" stroke="#000000" stroke-miterlimit="10" points="644.9,143 705.5,232.4 705.4,232.6 673.6,237 
			673.5,236.9 645.5,214 645.5,191 625,173 613,136 605.7,89.6 		"/>
		<path fill="#FFFFFF" stroke="#000000" stroke-miterlimit="10" d="M683.2,301l6.8,44l-16.5,22l8.3,36l1.3,35c-3-1-18-21-18-21
			l-5.8-37L626,344c0,0-36-33-37-36c-0.8-2.5-16.1-24.9-21.3-32.5c-1.101-1.6-1.7-2.5-1.7-2.5l6-30l-6-29l22-85l25,7l12,37l20.5,18
			v23l28,22.9v0.1v27L683.2,301z"/>
		<polygon fill="#FFFFFF" stroke="#000000" stroke-miterlimit="10" points="605.7,89.6 613,136 588,129 566,214 522,166 505,136 
			514.8,107 555.7,72.6 560.1,74.7 		"/>
		<polygon fill="#FFFFFF" stroke="#000000" stroke-miterlimit="10" points="505,136 522,166 463,203 411,151.8 432,141 459,136 
			484,125 		"/>
		<polygon fill="#FFFFFF" stroke="#000000" stroke-miterlimit="10" points="469.7,30.7 555.7,72.6 514.8,107 505,136 484,125 
			459,136 432,141 411,151.8 402.5,132 402.5,109 395.8,89.8 396.2,89.6 		"/>
		<polygon fill="#FFFFFF" stroke="#000000" stroke-miterlimit="10" points="402.5,132 411,151.8 354,157 334,109.3 395.8,89.8 
			402.5,109 		"/>
		<polygon fill="#FFFFFF" stroke="#000000" stroke-miterlimit="10" points="334,109.3 354,157 339,166 334,180 316,192.5 294,192.5 
			269,206.5 246.5,206.5 280.3,145.8 		"/>
		<polygon fill="#FFFFFF" stroke="#000000" stroke-miterlimit="10" points="463.5,226 463.5,255 463.4,255.1 416.1,292 375,301 
			334,284.6 287,271 258.9,283.5 223.9,264 198.3,247.9 198.4,247.8 246.4,206.6 246.5,206.5 269,206.5 294,192.5 316,192.5 
			334,180 339,166 354,157 411,151.8 463,203 		"/>
		<polygon fill="#FFFFFF" stroke="#000000" stroke-miterlimit="10" points="258.9,283.5 257.7,327 238,349.2 216,384 187,397 
			169,371 156,349.2 185.7,279.4 198.3,247.9 223.9,264 		"/>
		<polygon fill="#FFFFFF" stroke="#000000" stroke-miterlimit="10" points="187,397 198.1,442 175.8,484.8 119.3,506.5 43.7,506.5 
			95.2,393.8 156,349.2 169,371 		"/>
	</g>
</g>
</svg>
