<?xml version="1.0" encoding="utf-8"?>
<!-- Generator: Adobe Illustrator 15.0.0, SVG Export Plug-In . SVG Version: 6.00 Build 0)  -->
<!DOCTYPE svg PUBLIC "-//W3C//DTD SVG 1.1//EN" "http://www.w3.org/Graphics/SVG/1.1/DTD/svg11.dtd">
<svg version="1.1" id="layer_x5F_www.ABC-color.com"
	 xmlns="http://www.w3.org/2000/svg" xmlns:xlink="http://www.w3.org/1999/xlink" x="0px" y="0px" width="822px" height="567px"
	 viewBox="0 0 822 567" enable-background="new 0 0 822 567" xml:space="preserve">
<polyline fill="#FFFFFF" points="0,0 822,0 822,567 "/>
<path fill="#FFFFFF" stroke="#000000" stroke-miterlimit="10" d="M182,386.7l-35.7,13.7l0,0l0,0c0,0,32.6-67.7,40-76.602l0.3,0.2v8
	l6.2,12l14,12.7L182,386.7z"/>
<path fill="#FFFFFF" stroke="#000000" stroke-miterlimit="10" d="M217.3,338l5.9,6.1l-16.6,12.5l-14-12.699l-6.2-12v-8l-0.3-0.199
	c0.1-0.102,0.1-0.102,0.2-0.2l13.6-8.101l11.9,8.399L217.3,338z"/>
<polygon fill="#FFFFFF" stroke="#000000" stroke-miterlimit="10" points="275.3,372 277.3,403.3 261.9,441.6 199.3,448 146.3,400.5 
	146.3,400.4 182,386.7 206.7,356.7 223.3,344.1 231.3,338 262,317.3 276.7,346.7 "/>
<path fill="#FFFFFF" stroke="#000000" stroke-miterlimit="10" d="M319.3,423.3l13.601,25.5l-71-7.2l15.5-38.198l-2-31.302l1.3-25.3
	L262,317.3L231.3,338l-8.1,6.1l-5.9-6.1l-5.5-14l-11.9-8.4l22.5-48.2l8.2,12.6l12.7,15.3l16.7,11.2l17.3,10.8
	c0,0,14,25.601,15.3,26.8c1.3,1.2,6.7,29.2,7.3,31.2s8,26,8,26L319.3,423.3z"/>
<path fill="#FFFFFF" stroke="#000000" stroke-miterlimit="10" d="M393.5,462v7.7l-60.6-20.9L319.3,423.3l-11.3-22c0,0-7.3-24-8-26
	s-6-30-7.3-31.2c-1.3-1.199-15.3-26.8-15.3-26.8L260,306.5l-16.7-11.2L230.7,280l-8.2-12.6l39.4-40.9l18.8,12.8l22.7,14.7l7.3,36.7
	c0,0,10.7,22.5,13.3,24.899c2.7,2.399,15.3,18.399,20,19.801c4.7,1.3,20,33.3,20,33.3l6.7,26.7c0,0,2,18,7.3,22.698
	c5.3,4.7,11.8,18.7,12.5,20.7S393.5,462,393.5,462z"/>
<path fill="#FFFFFF" stroke="#000000" stroke-miterlimit="10" d="M404.9,408l8.199,8c-4.1,1.3-8.398,35.3-8.398,35.3l-11.2,18.4
	h-0.1V462c0,0-2.4-21.3-3-23.3c-0.601-2-7.101-16-12.5-20.7c-5.4-4.7-7.301-22.7-7.301-22.7l-6.699-26.7c0,0-15.301-32-20-33.3
	c-4.7-1.3-17.301-17.3-20-19.8c-2.7-2.4-13.301-24.9-13.301-24.9l-7.3-36.7l-22.7-14.7l-18.8-12.8l28.1-15.4l10.1,11l18.7,14l4.7,20
	c0,0,5.2,27,9.6,27.5c4.4,0.5,18.7,13.8,22.3,15.2c3.3,1.3,25.2,11.5,27.4,12.6c0,0.101-0.101,0.101-0.101,0.101v5.699v13
	c0,0,3.9,17,4.7,18.5s5.5,16.801,7.5,19.5c2,2.7,0.101,14.7,4,20.7S404.9,408,404.9,408z"/>
<path fill="#FFFFFF" stroke="#000000" stroke-miterlimit="10" d="M437.9,351.7L454,356.6c0,0-16.7,28-16.1,30
	c0.6,2-20.602,28-24.802,29.302l-8.199-8c0,0-2.301-13.302-6.2-19.302c-3.9-6-2-18-4-20.699s-6.7-18-7.5-19.5s-4.7-18.5-4.7-18.5
	v-13v-5.699c0,0,0,0,0.1-0.102c0.101,0.102,0.2,0.102,0.2,0.102l12.601,18.5l23.3,14.3L437.9,351.7z"/>
<path id="www.ABC-color.com" fill="#FFFFFF" stroke="#000000" stroke-miterlimit="10" d="M465.5,365l0.5,0.3c0,0,9.3,28.7,9.3,31.3
	c0,2.7,21,30,21.2,30.7s13.5,25.3,13.5,25.3l4.5,17.802l-67,47.5L393.9,469.8l-0.301-0.1l11.2-18.4c0,0,4.2-34,8.4-35.3
	c4.1-1.3,25.398-27.3,24.8-29.3s16.1-30,16.1-30L465.5,365z"/>
<path fill="#FFFFFF" stroke="#000000" stroke-miterlimit="10" d="M589.9,376h0.1l20,28l14.5,14.3l-65,52.2h-45l-4.5-17.8
	c0,0-13.3-24.7-13.5-25.3c0,0,4.2-39.301,6.2-39.301s11.898-31.301,11.898-31.301L524,338l14,16l26,9.3L589.9,376z"/>
<polygon fill="#FFFFFF" stroke="#000000" stroke-miterlimit="10" points="707.3,392.1 707.3,392.2 666.5,418.2 624.5,418.3 610,404 
	590,376 589.9,376 593.3,356.7 589.9,340 594.7,311.3 632.4,330 656,338 676.4,363.4 683.2,372 "/>
<polygon fill="#FFFFFF" stroke="#000000" stroke-miterlimit="10" points="697.5,349 707.5,392.1 707.3,392.2 707.3,392.1 683.2,372 
	676.4,363.4 663.3,331.3 657.3,317.3 654.5,301.5 "/>
<polygon fill="#FFFFFF" stroke="#000000" stroke-miterlimit="10" points="637,267.4 654.5,301.5 634,306.5 616.3,299 613.4,283.6 
	616.5,262.8 616.5,262.6 "/>
<path fill="#FFFFFF" stroke="#000000" stroke-miterlimit="10" d="M616.3,262.5l0.3,0.1v0.2l-3,20.9l2.9,15.399l17.7,7.5l20.5-5
	l2.8,15.801l6,14l13,32.1L656,338l-23.6-8l-37.7-18.7l-4.8,28.7l3.5,16.7L590,376l-26-12.7l-26-9.3l-14-16c0,0-2.7-14-4-14
	s-14-16.3-14-17.5s-5.3-15.8-5.3-18.5s-4.2-11.3-4.2-11.3V242l13.4-28l27.898-16.7l17.9-15.3l11.3-9.4l0.1-0.2l0.4,0.2l20,40.7
	L616.3,262.5z"/>
<path fill="#FFFFFF" stroke="#000000" stroke-miterlimit="10" d="M567.1,172.4l-0.1,0.2l-11.3,9.4l-17.9,15.3L509.9,214l-17.302-6
	c0,0-14.1-14.7-17.698-16c-3.602-1.3-12.302-16-12.302-16l-8.698-10.7l-33.4-22l-21.6-17.5l-0.2-0.3l14.5,4.4l19.5,2.6l24,0.2
	c2.7,0,16-0.7,18,0c2,0.7,21.8-2.2,21.8-2.2L567.1,172.4z"/>
<path fill="#FFFFFF" stroke="#000000" stroke-miterlimit="10" d="M509.9,214l-13.4,28v34.7c0,0-14.5-9.2-15.2-9.3s-7.3-24.7-10-32.1
	c-2.7-7.3-14.7-42-14.7-42l-2.698-28L462.6,176c0,0,8.7,14.7,12.302,16c3.6,1.3,17.698,16,17.698,16L509.9,214z"/>
<path fill="#FFFFFF" stroke="#000000" stroke-miterlimit="10" d="M524,338l-9.5,18.7c0,0-9.9,31.3-11.9,31.3s-6.198,39.3-6.198,39.3
	c-0.2-0.7-21.2-28-21.2-30.7c0-2.699-9.3-31.3-9.3-31.3l-0.5-0.3v-21c0,0-7.5-15.3-8.802-17.3c-1.3-2-8.8-27.3-9.5-30
	c-0.698-2.7-5.698-33.9-5.698-33.9V230l-9.4-50.7l-33.2-53.5l21.602,17.5l33.398,22l2.7,28c0,0,12,34.7,14.7,42
	c2.7,7.3,9.3,32,10,32.1s15.2,9.3,15.2,9.3s4.198,8.7,4.198,11.3s5.302,17.3,5.302,18.5s12.698,17.5,14,17.5
	C521.2,324,524,338,524,338z"/>
<path fill="#FFFFFF" stroke="#000000" stroke-miterlimit="10" d="M465.5,344v21l-11.5-8.3l-16.1-4.9l-19.302-7.6l-23.3-14.3
	l-12.6-18.5c0,0-0.101,0-0.2-0.102c1.2-1.5,17.3-21.3,17.3-23.199c0-2-4.5-24-7.2-27.301c-2.699-3.3,0-18,0-21.3
	s5.801-28.2,5.801-28.2l12-22.1v-19l-5.801-18.7l-6.199-14.3v-11.5l0,0l0.399,0.3l33.2,53.5l9.4,50.7V263c0,0,5,31.3,5.698,33.9
	c0.7,2.699,8.2,28,9.5,30C458,328.7,465.5,344,465.5,344z"/>
<path fill="#FFFFFF" stroke="#000000" stroke-miterlimit="10" d="M410.5,170v19l-12,22.1c0,0-5.8,24.9-5.8,28.2c0,3.3-2.7,18,0,21.3
	c2.7,3.3,7.2,25.3,7.2,27.3c0,1.898-16.101,21.8-17.301,23.199c-2.199-1-24.1-11.301-27.399-12.601c-3.5-1.3-17.8-14.7-22.3-15.2
	s-9.601-27.5-9.601-27.5l-4.7-20l14.2-15.3c0,0,2.4-21.3,5.101-24.7c2.699-3.4,15.199-21.3,15.199-21.3l0.301-14.7V143l14.5-5
	l14.8-8.2l15.8-4.4V137l6.2,14.3L410.5,170z"/>
<path fill="#FFFFFF" stroke="#000000" stroke-miterlimit="10" d="M353.5,143.2V160l-0.3,14.7c0,0-12.5,18-15.2,21.3
	s-5.1,24.7-5.1,24.7L318.7,236L300,222l-10.1-10.9l37.6-78.1l9.1,7.7l16.5,2.7L353.5,143.2z"/>
<polygon fill="#FFFFFF" stroke="#000000" stroke-miterlimit="10" points="353.5,143.2 353.2,143.3 336.7,140.7 327.6,133 353,121 
	353.1,120.8 353.2,120.9 382.8,129.9 368,138.2 "/>
<path fill="#FFFFFF" stroke="#000000" stroke-miterlimit="10" d="M456.7,132.7l-24-0.2l-19.5-2.6l-14.5-4.4h-0.2l0,0v0.1l-15.8,4.4
	l-29.601-9.1H353l34.1-56l7.5,15.8L411,88l7,13.3l13.3,8l14,16C445.3,125.3,454,132.7,456.7,132.7z"/>
<path fill="#FFFFFF" stroke="#000000" stroke-miterlimit="10" d="M480.5,105.1l16,25.4c0,0-19.8,2.8-21.8,2.2c-2-0.7-15.3,0-18,0
	s-11.3-7.3-11.3-7.3l-14-16l-13.302-8L411,88l-16.3-7.3l-7.5-15.8l26-12l7.398,9.3l6.302,7.4H437l5,9.2l8,11.3l12.7,3.8l0.5,1.5
	L480.5,105.1z"/>
<polygon fill="#FFFFFF" stroke="#000000" stroke-miterlimit="10" points="440.4,26.5 462.7,93.8 450,90 442,78.7 437,69.5 
	426.9,69.5 420.6,62.1 413.2,52.9 413.4,52.8 "/>
</svg>
