<?xml version="1.0" encoding="utf-8"?>
<!-- Generator: Adobe Illustrator 15.0.0, SVG Export Plug-In . SVG Version: 6.00 Build 0)  -->
<!DOCTYPE svg PUBLIC "-//W3C//DTD SVG 1.1//EN" "http://www.w3.org/Graphics/SVG/1.1/DTD/svg11.dtd">
<svg version="1.1" id="Layer_1" xmlns="http://www.w3.org/2000/svg" xmlns:xlink="http://www.w3.org/1999/xlink" x="0px" y="0px"
	 width="822px" height="567px" viewBox="0 0 822 567" enable-background="new 0 0 822 567" xml:space="preserve">
<polyline fill="#FFFFFF" points="0,0 822,0 822,567 "/>
<path fill="#FFFFFF" stroke="#000000" stroke-miterlimit="10" d="M378,260.3l8.3,8.3c0,0-2.899,50.1-2.899,52.8L363.8,317.3
	l-23.899-6.1L312,323.4l27.1-83.601l29.7-58.5l0.101,0.1l5.399,28.8l9,14.8l-5.399,20.2v15.1H378z"/>
<polygon fill="#FFFFFF" stroke="#000000" stroke-miterlimit="10" points="482,21 498.2,57.8 470.6,83.4 462.1,111.4 435,147.8 
	434.3,151.5 426,197.2 413.9,235.6 386.3,268.6 378,260.3 378,245.2 383.5,225 374.4,210.2 369,181.4 368.9,181.3 369.9,179.3 
	391.6,103.1 454.9,41.4 "/>
<polygon fill="#FFFFFF" stroke="#000000" stroke-miterlimit="10" points="543.4,115 543.5,115.2 543,115.3 526.3,140.2 526.3,173.1 
	514.5,197.2 498.2,239.8 482,264.4 461.5,296 454.9,235.6 438.6,183 434.4,151.5 434.3,151.5 435,147.8 462.1,111.4 470.6,83.4 
	498.2,57.8 "/>
<path fill="#FFFFFF" stroke="#000000" stroke-miterlimit="10" d="M608.5,377l4.7,27.8c0,0-28.8-18.5-30-20.6
	c-1.2-2.101-17.5-20.9-17.5-20.9l-42.2-4.8l-28.1,9.7l-0.101,0.2l-1.899-0.9l-32-71.4l20.399-31.6l16.3-24.6l16.301-42.6
	l11.699-24.1v-33l16.7-24.8l0.5-0.1l14.4,90.9L585,286L608.5,377z"/>
<path fill="#FFFFFF" stroke="#000000" stroke-miterlimit="10" d="M613.2,404.8l11.6,68.2l-60.7-73.2L495.4,368.3l0.1-0.2l28.1-9.699
	l42.2,4.8c0,0,16.3,18.899,17.5,20.899C584.4,386.3,613.2,404.8,613.2,404.8z"/>
<path fill="#FFFFFF" stroke="#000000" stroke-miterlimit="10" d="M624.8,473l52.4,77.3L564,550.8c-0.9-3-9.2-30.5-9.8-34.399
	c-0.7-4.101-6-37.801-9.3-43.4c-3.301-5.6,8.699-39.7,9.3-44.5c0.6-4.8,9.8-28.7,9.8-28.7L624.8,473z"/>
<path fill="#FFFFFF" stroke="#000000" stroke-miterlimit="10" d="M495.4,368.3l68.699,31.5c0,0-9.199,23.9-9.8,28.7
	c-0.6,4.8-12.7,38.9-9.3,44.5c3.3,5.6,8.6,39.2,9.3,43.4c0.601,3.899,8.9,31.399,9.8,34.399l-69.399,0.3l10.8-37.399
	c0,0,2.4-33,0-35.7s-28.9-36.4-28.9-36.4l7.801-45.3L495.4,368.3z"/>
<path fill="#FFFFFF" stroke="#000000" stroke-miterlimit="10" d="M495.4,368.3l-11,27.9l-7.801,45.3l-38-31.6L426.5,372.8
	c0,0-29.5-22-31.9-24c-2.399-2.1-11.199-27.5-11.199-27.5c0-2.7,2.899-52.8,2.899-52.8l27.601-33l12.1-38.4l8.4-45.8h0.1l4.2,31.5
	l16.3,52.6l6.7,60.4l32,71.4L495.4,368.3z"/>
<path fill="#FFFFFF" stroke="#000000" stroke-miterlimit="10" d="M350.9,508.8v-37.1L335,447l-6-14.4c0,0,54.5-108.5,54.5-111.199
	c0,0,8.7,25.399,11.2,27.5c2.399,2.1,31.899,24,31.899,24L438.7,410l38,31.6c0,0,26.5,33.601,28.899,36.4c2.4,2.7,0,35.7,0,35.7
	l-11,37.3L425.9,527.1L351.8,509.4c0,0-0.3,0-0.8,0.1L350.9,508.8z"/>
<path fill="#FFFFFF" stroke="#000000" stroke-miterlimit="10" d="M350.9,508.8l0.1,0.7c-8.6,1.4-82.1,13.3-100.4,16l78.3-92.9
	l6,14.4l16,24.7V508.8L350.9,508.8z"/>
<path fill="#FFFFFF" stroke="#000000" stroke-miterlimit="10" d="M363.9,317.3l19.6,4.101C383.5,324.1,329,432.6,329,432.6
	l-78.3,92.9c-1.8,0.3-3,0.4-3.7,0.5c-7.2,0.7-57.8-16.6-57.8-16.6l-25.3-26.5l81.3-75l66.899-84.4l27.9-12.2L363.9,317.3z"/>
</svg>
