<?xml version="1.0" encoding="utf-8"?>
<!-- Generator: Adobe Illustrator 15.0.0, SVG Export Plug-In . SVG Version: 6.00 Build 0)  -->
<!DOCTYPE svg PUBLIC "-//W3C//DTD SVG 1.1//EN" "http://www.w3.org/Graphics/SVG/1.1/DTD/svg11.dtd">
<svg version="1.1" id="Layer_1" xmlns="http://www.w3.org/2000/svg" xmlns:xlink="http://www.w3.org/1999/xlink" x="0px" y="0px"
	 width="822px" height="567px" viewBox="0 0 822 567" enable-background="new 0 0 822 567" xml:space="preserve">
<g id="FON">
	<polyline fill="#FFFFFF" points="0,567 0,0 822,0 822,567 	"/>
</g>
<g id="COLORING">
	<g id="XMLID_1_">
		<polygon fill="#FFFFFF" stroke="#000000" stroke-miterlimit="10" points="663.1,461.3 729.7,538 513,538.6 528.7,534 566,519 
			577.8,497.4 609,481 643,460 		"/>
		<path fill="#FFFFFF" stroke="#000000" stroke-miterlimit="10" d="M643,460l-34,21l-31.2,16.4L566,519l-37.3,15l-15.7,4.6h-15.2
			l23.9-41.3c0,0,17.899-13.399,21.6-14.7c3.7-1.3,16.4-44,16.4-48.699c0-4.7-33-46.4-33-46.4l33.6-8.3c0,0,30,20.7,34,25.3
			c4,4.7,34,29.3,38,32.7C636.3,440.7,643,460,643,460z"/>
		<polygon fill="#FFFFFF" stroke="#000000" stroke-miterlimit="10" points="612.6,276 624.9,313.1 618.3,305.3 603,286.2 587,269.3 
			559.7,250 543.3,242.7 519.7,216 522.3,187.3 543.3,163.3 577.8,194.9 578.2,196.8 		"/>
		<path fill="#FFFFFF" stroke="#000000" stroke-miterlimit="10" d="M642.4,366.2l20.699,95.2L643,460c0,0-6.7-19.3-10.7-22.7
			c-4-3.3-34-28-38-32.7c-4-4.699-34-25.3-34-25.3l-33.6,8.3L525,388l-44-49.3l-25-47.5l-1-1.8c0,0,23.3-50.7,20.7-54.7l44-18.7
			l23.6,26.7l16.4,7.3l27.3,19.3l16,16.8l15.3,19.2l6.5,7.8L642.4,366.2z"/>
		<path fill="#FFFFFF" stroke="#000000" stroke-miterlimit="10" d="M559.7,434c0,4.7-12.7,47.3-16.4,48.7
			c-3.7,1.3-21.6,14.7-21.6,14.7l-9.7-28.7L497.8,457l-22.1-32l-18.7-8l-8-27c2-0.7,8-38,8-38v-32.7l-1-28.2l25,47.5l44,49.301
			l1.7-0.4C526.7,387.6,559.7,429.3,559.7,434z"/>
		<path fill="#FFFFFF" stroke="#000000" stroke-miterlimit="10" d="M512,468.7l9.7,28.7l-23.9,41.3L410.5,515l-94.1-17.5L383,474
			l16-46l24.5-30.7c0,0,23.5-6.7,25.5-7.3l8,27l18.7,8l22.1,32L512,468.7z"/>
		<path fill="#FFFFFF" stroke="#000000" stroke-miterlimit="10" d="M423.5,397.3L399,428l-16,46l-66.6,23.4c0,0-124,15.8-133.2,16.5
			c-9.2,0.699-73.5-16.5-73.5-16.5l-32.1-26.2l3.5-2.5l0,0h39.2l68.7-25.3c0,0,43.7-23,46.7-34.801l64.6-5.8l58-11.3l35.3,8.6
			L423.5,397.3z"/>
		<path fill="#FFFFFF" stroke="#000000" stroke-miterlimit="10" d="M235.7,408.5c0.2-0.9,0.2-1.8-0.1-2.5c-4-10.7,52-53.3,52-53.3
			c12.7-10,64-61.3,64-61.3c6-9.3,38-68.7,38-68.7c-0.699-4.7,32-52,32-52c0.4-0.4,1-1.3,1.801-2.8c0,0,49.5,62.8,52.199,66.8
			c2.7,4-20.699,54.7-20.699,54.7l1,1.8l1,28.2V352c0,0-6,37.3-8,38s-25.5,7.3-25.5,7.3L393.6,399.9l-35.3-8.601l-58,11.3
			L235.7,408.5z"/>
		<path fill="#FFFFFF" stroke="#000000" stroke-miterlimit="10" d="M559.8,106.5l18,88.4l-34.5-31.6l-21,24l-2.7,28.7l-44,18.7
			c-2.699-4-52.199-66.8-52.199-66.8C431.2,152.9,455,86,455,86c10-16.7,47.4-36.2,47.4-36.2L559.8,106.5z"/>
		<path fill="#FFFFFF" stroke="#000000" stroke-miterlimit="10" d="M481.7,13.3l20.7,36.5c0,0-37.4,19.5-47.4,36.2
			c0,0-23.8,66.9-31.5,81.9c-0.8,1.5-1.4,2.5-1.8,2.8c0,0-32.7,47.3-32,52c0,0-32,59.3-38,68.7l0.7-32.101l3.3-15.9l7.3-20.7l5-18
			v-24l-5-12.8l10-18.5V134l-6.1-12V94.7L447.3,33.5L481.7,13.3z"/>
		<polygon fill="#FFFFFF" stroke="#000000" stroke-miterlimit="10" points="373,134 373,149.3 363,167.9 368,180.7 368,204.7 
			363,222.7 355.7,243.3 352.3,259.2 323,259.2 309,267.3 265.9,313.1 300.4,230.2 339.4,170.2 366.9,94.7 366.9,122 		"/>
		<path fill="#FFFFFF" stroke="#000000" stroke-miterlimit="10" d="M235.7,406c0.3,0.8,0.3,1.6,0.1,2.5c-3,11.8-46.7,34.8-46.7,34.8
			l-68.7,25.3H81.2L181,396.7l84.9-83.7l43.1-45.8l14-8.1h29.3l-0.7,32.1c0,0-51.3,51.3-64,61.3C287.7,352.7,231.7,395.3,235.7,406z
			"/>
	</g>
</g>
</svg>
