<?xml version="1.0" encoding="utf-8"?>
<!-- Generator: Adobe Illustrator 15.0.0, SVG Export Plug-In . SVG Version: 6.00 Build 0)  -->
<!DOCTYPE svg PUBLIC "-//W3C//DTD SVG 1.1//EN" "http://www.w3.org/Graphics/SVG/1.1/DTD/svg11.dtd">
<svg version="1.1" id="Layer_1" xmlns="http://www.w3.org/2000/svg" xmlns:xlink="http://www.w3.org/1999/xlink" x="0px" y="0px"
	 width="822px" height="567px" viewBox="0 0 822 567" enable-background="new 0 0 822 567" xml:space="preserve">
<g id="FON">
	<polyline fill="#FFFFFF" points="0,567 0,0 822,0 822,567 	"/>
</g>
<g id="COLORING">
	<path fill="#FFFFFF" stroke="#000000" stroke-miterlimit="10" d="M169.9,461l25.4,6c-93.4,10-127.4-39.9-127.4-39.9l42.9-82.199
		l7.8,11.1v19l11,19c0,0,10.3,21,10.3,24s4.1,21,7.1,24S169.9,461,169.9,461z"/>
	<path fill="#FFFFFF" stroke="#000000" stroke-miterlimit="10" d="M67.9,427.1c0,0,34,49.801,127.4,39.9l4.2,1l19,16.7l18.5,12.2
		l35.8,12l-0.1,1c-35.4-4.301-78.4,1.699-97,6.8C147.7,524.4,62.7,525.3,67.9,427.1z"/>
	<path fill="#FFFFFF" stroke="#000000" stroke-miterlimit="10" d="M410.3,508.9L392.2,519.8L364,530.5h-40.4c-3-1.6-5.6-3.3-7.8-5.2
		c-9.9-8.6-25.6-13.3-43.2-15.399l0.1-1l-35.8-12l-18.5-12.2l-19-16.7l-4.2-1c8.1-0.9,16.7-2.2,25.7-4c0,0,51.6-5.8,95.1,2.1l0,0
		c18.9,3.4,36.2,9.4,47.3,19.5c3.601,3.301,6.5,7.101,8.601,11.301C372,496,386.1,508.8,410.3,508.9z"/>
	<path fill="#FFFFFF" stroke="#000000" stroke-miterlimit="10" d="M574.9,496.8L574.9,496.8L557.6,501l-31,7.9L497,518.3l0,0
		c-5.2,1.3-9.9,3.5-14,7c-24.7,20.601-121.7,25.2-159.4,5.2H364l28.2-10.8l18.1-10.9c12.2,0,27-3.1,43.7-12.899
		c0,0,2.8-1.801,8.1-4.101C477.7,485.2,515.4,475.1,572,495.9C572,496,573,496.3,574.9,496.8z"/>
	<path fill="#FFFFFF" stroke="#000000" stroke-miterlimit="10" d="M497,518.3l29.6-9.399l31-7.9l17.2-4.1l0.101-0.101
		c12.899,3,67.199,11.8,141.6-29.399c0,0-50,51.1-103.4,57.899C568,531,525.3,511.2,497,518.3L497,518.3z"/>
	<path fill="#FFFFFF" stroke="#000000" stroke-miterlimit="10" d="M646.4,374.8l70.1,92.601C642.1,508.6,587.8,499.8,574.9,496.8
		l12.6-14.8v-14l15.7-20l18.7-13l4.899-30l19.3-30.1L646.4,374.8z"/>
	<path fill="#FFFFFF" stroke="#000000" stroke-miterlimit="10" d="M488.8,394l31.3-5l30-20l18-20l23.101-14.2L604,327l23.1-11.9
		l16,55.4l3.301,4.3l-0.2,0.101L626.9,405l-4.9,30l-18.7,13l-15.7,20v14L575,496.8c-1.9-0.399-2.9-0.8-2.9-0.8
		c-56.5-20.8-94.3-10.7-109.899-4.1V491.8L471.6,473l6-22v-28l10.801-29l0.3-0.3L488.8,394z"/>
	<path fill="#FFFFFF" stroke="#000000" stroke-miterlimit="10" d="M591.4,177.9l23.399,94.5l12.3,42.7L604,327l-12.9,7.8L568,349
		l-18,20l-30,20l-31.3,5l-0.2-0.3L516,369l15-19l10-34c0,0,29-38,29-41s-7-20-7-20l12.3-22l15.9-55.1l0.1-0.1L591.4,177.9z"/>
	<path fill="#FFFFFF" stroke="#000000" stroke-miterlimit="10" d="M531.3,143.5l59.9,34.3l-0.101,0.1L575.2,233l-12.3,22
		c0,0,7,17,7,20s-29,41-29,41l-10,34l-15,19l-27.5,24.8l-0.301,0.3l-10.8,29v28l-6,22L461.9,491.9v0.1c-5.4,2.3-8.101,4.1-8.101,4.1
		c-16.8,9.7-31.5,12.9-43.7,12.9l0,0l5.7-24.2l4-11.7l-3-20l0,0l20-36c0,0,15-27,16-32c0.8-3.8,0.4-21.1,0.101-29
		c0-1-0.101-1.8-0.101-2.399c0-1-0.1-1.601-0.1-1.601s25-32,29-34s6.3-31.3,6.3-31.3l3.3-39.8v-31l16-27l12.3-26l11.5-19.5H531.3
		L531.3,143.5z"/>
	<path fill="#FFFFFF" stroke="#000000" stroke-miterlimit="10" d="M453,352c0,0,0,0.6,0.1,1.6l0,0L449,329c0,0,9.9-22,13.3-29.5
		c3.4-7.5-2.5-40.5-3.5-52.6s-8.3-50.9-8.3-50.9l11-50v-30l17.7-24.5l52.1,51.9L519.8,163l-12.3,26l-16,27v30.9l-3.3,39.8
		c0,0-2.3,29.3-6.3,31.3S453,352,453,352z"/>
	<path fill="#FFFFFF" stroke="#000000" stroke-miterlimit="10" d="M479.2,91.5L461.5,116v30l-11,50c0,0,7.3,38.8,8.3,50.9
		s6.8,45.1,3.5,52.6S448.9,329,448.9,329l4.1,24.6l0,0c0,0.7,0,1.5,0.1,2.4c0.2,7.9,0.601,25.2-0.1,29c-1,5-16,32-16,32l-20,36l3-39
		c0,0-1-17-1-20s0-23-2-27s-2-23-6-27s6-32,7-32.7s2.1-7.8,1-23.8c-0.5-7.6,1-28.5,1-28.5s-12-19-15.1-20c-3.101-1-1.2-35-4-39
		c-2.801-4,7.899-36,8.699-40c0.801-4,8.101-32,8.101-32l-7.3-28l-10-16V53V30.8L401.1,30l78.4,61.6l51.7,51.9l-0.101,0.1
		L479.2,91.5z"/>
	<path fill="#FFFFFF" stroke="#000000" stroke-miterlimit="10" d="M420,414l-3,39l0,0l-11-52l-18-37c0,0-10.1-27-11.1-29.2
		s-0.101-35.3-0.101-35.3S360.5,262,363.5,259s-10-30-10-30v-37L340,162l-5.9-56.5l0.4-0.1l66-74.6V53v27l10,16l7.3,28
		c0,0-7.399,28-8.1,32s-11.5,36-8.7,40s1,38,4,39s15.1,20,15.1,20s-1.5,20.9-1,28.5c1.101,16,0,23.2-1,23.8c-1,0.601-11,28.7-7,32.7
		s4,23,6,27s2,24,2,27S420,414,420,414z"/>
	<path fill="#FFFFFF" stroke="#000000" stroke-miterlimit="10" d="M417,453l3,20l-4,11.7l-5.7,24.2l0,0C386.1,508.8,372,496,372,496
		c-2.1-4.3-5-8-8.6-11.3L364,450l-6-39l-7-26l-23-36l-16-26c0,0-11-26-15-30s6-15,4-20s0-37,0-37l-25-42l-23.1-21l-7-42.7l0.2-0.3
		l88-24.5L340,162l13.5,30v37c0,0,13,27,10,30s13.3,40.5,13.3,40.5s-0.899,33.2,0.101,35.3c1,2.2,11.1,29.2,11.1,29.2l18,37L417,453
		L417,453L417,453z"/>
	<path fill="#FFFFFF" stroke="#000000" stroke-miterlimit="10" d="M358,411l6,39l-0.6,34.7C352.4,474.6,335,468.6,316.1,465.2l0,0
		L296,456l-26-16l-20-12.9l-6-8.1c0,0-6.1-22-7.1-25c-0.1-0.4-0.4-1.1-0.8-2l0.5-17v-19c0,0-1.8-17-3.8-21.2S220,326,215,323
		s-0.1-31-0.1-36.3c0-5.4-6.3-34.7-6.3-34.7l-10-20v-26.3l1-1l46.4-74.4l7,42.7l23.1,21l25,42c0,0-2,32,0,37s-8,16-4,20s15,30,15,30
		l16,26l23,36L358,411z"/>
	<path fill="#FFFFFF" stroke="#000000" stroke-miterlimit="10" d="M236.5,356v19l-0.5,17c-2.7-5.8-10.3-20-10.3-20l-16.3-17l-16-15
		v-16l-16.3-14l-6.3-12L158,247.2l0.2-0.4l40.4-41.1V232l10,20c0,0,6.3,29.3,6.3,34.7c0,5.3-4.9,33.3,0.1,36.3s15.8,7.7,17.8,11.8
		C234.7,339,236.5,356,236.5,356z"/>
	<path fill="#FFFFFF" stroke="#000000" stroke-miterlimit="10" d="M236,392c0.4,0.9,0.7,1.5,0.8,2c1,3,7.1,25,7.1,25l6,8.1l20,12.9
		l26,16l20.1,9.1c-43.6-7.899-95.1-2.1-95.1-2.1c-9,1.8-17.6,3.2-25.7,4l-25.4-6c0,0-20.1-16-23.1-19s-7.1-21-7.1-24
		s-10.3-24-10.3-24l-11-19v-19l-7.8-11.1l15.4-29.601l31.8-68.1l12.9,50.8l6.3,12l16.3,14v16l16,15l16.3,17
		C225.8,372,233.4,386.3,236,392z"/>
</g>
</svg>
