<?xml version="1.0" encoding="utf-8"?>
<!-- Generator: Adobe Illustrator 15.0.0, SVG Export Plug-In . SVG Version: 6.00 Build 0)  -->
<!DOCTYPE svg PUBLIC "-//W3C//DTD SVG 1.1//EN" "http://www.w3.org/Graphics/SVG/1.1/DTD/svg11.dtd">
<svg version="1.1" id="layer_x5F_www.ABC-color.com"
	 xmlns="http://www.w3.org/2000/svg" xmlns:xlink="http://www.w3.org/1999/xlink" x="0px" y="0px" width="822px" height="567px"
	 viewBox="0 0 822 567" enable-background="new 0 0 822 567" xml:space="preserve">
<polyline fill="#FFFFFF" points="0,0 822,0 822,567 "/>
<polygon fill="#FFFFFF" stroke="#000000" stroke-miterlimit="10" points="670.5,471.8 670.5,553.1 618.6,563.3 561.5,546.2 
	510.6,505.5 555,505.5 602,487 643,474 "/>
<polygon fill="#FFFFFF" stroke="#000000" stroke-miterlimit="10" points="510.4,505.5 436.6,522.9 357.5,546.2 291.2,515.1 
	223.6,532.2 148.4,505.5 207,495 277,485 305,495.2 429,491 "/>
<polygon fill="#FFFFFF" stroke="#000000" stroke-miterlimit="10" points="429,491 305,495.2 277,485 207,495 148.4,505.5 
	112.7,471.2 163.7,395 179.2,374.4 179.2,374.4 205,403 223,436 291,445 373,467 "/>
<polygon fill="#FFFFFF" stroke="#000000" stroke-miterlimit="10" points="505.4,473 510.5,505.5 510.4,505.5 429,491 373,467 
	291,445 223,436 252,413 288,406 327,387 400,374.4 420,405.2 478,421 486.2,453 "/>
<path id="www.ABC-color.com" fill="#FFFFFF" stroke="#000000" stroke-miterlimit="10" d="M637.1,395l33.4,76.7L643,474l-41,13
	l-47,18.5h-44.4l0,0l0,0l-5.1-32.5l-19.2-20l-8.2-32l-58-15.8l-20-30.8l66,14.6l74,8l24-14c0,0,30,16,34,14S637.1,395,637.1,395z"/>
<path fill="#FFFFFF" stroke="#000000" stroke-miterlimit="10" d="M621,312.8l16,82.2c0,0-35.1,0-39.1,2s-34-14-34-14l-24,14l-30-14
	l-40-22l-31.4-24.5H482l49,8.5l39-8.5L621,312.8z"/>
<polygon fill="#FFFFFF" stroke="#000000" stroke-miterlimit="10" points="438.6,336.5 470,361 510,383 540,397 466,389 400,374.4 
	327,387 288,406 252,413 223,436 205,403 179.2,374.4 179.2,374.4 223.3,316 223.6,316.2 268,337.5 301,337.5 347,333 400.6,345.5 
	400.6,345.5 438,336 "/>
<path fill="#FFFFFF" stroke="#000000" stroke-miterlimit="10" d="M400.6,345.5L347,333l-46,4.5h-33l-44.4-21.3l-0.2-0.2l0.2-0.3
	l59.9-87.2L293,259c0,0,8,20,11,24.5s48,16.5,48,16.5s21,19,24,26C379,332.9,399.9,345.2,400.6,345.5z"/>
<path fill="#FFFFFF" stroke="#000000" stroke-miterlimit="10" d="M619.7,306.1l1.3,6.7l-51,23.7l-39,8.5l-49-8.5h-43.4L438,336
	l-37.4,9.5l0,0C400,345.1,379,332.9,376,326c-3-7-24-26-24-26l34-5.7l25-16.3l34.3-13l15,6.5L498,247l81.2-28.7L619.7,306.1z"/>
<path fill="#FFFFFF" stroke="#000000" stroke-miterlimit="10" d="M561.4,118.7l17.698,99.6L498,247l-31-11l-33.2-6
	c0,0-16.8-30-22.8-33l39-11l28-6l19-31c0,0,28-8.8,31-8.9S561.4,118.7,561.4,118.7z"/>
<path fill="#FFFFFF" stroke="#000000" stroke-miterlimit="10" d="M498,247l-37.8,24.5l-15-6.5L411,278l-25,16.3l-34,5.7
	c0,0-45-12-48-16.5S293,259,293,259l-9.5-30.6l28-88.3L319,156l29,15l34,14c0,0,23,9,29,12s22.8,33,22.8,33l33.2,6L498,247z"/>
<path fill="#FFFFFF" stroke="#000000" stroke-miterlimit="10" d="M411.2,113.6l34.3,26.5V158l32.5,22l-28,6l-39,11c-6-3-29-12-29-12
	l-34-14l-29-15l-7.6-15.9l50.8-55.8l0.1,0.1L373,97.1l18.6,10.2l19.4,6.2L411.2,113.6L411.2,113.6z"/>
<path fill="#FFFFFF" stroke="#000000" stroke-miterlimit="10" d="M505.4,83.8l56,34.9c0,0-30.4,21.3-33.4,21.4s-31,8.9-31,8.9
	l-19,31l-32.5-22v-17.9l-34.3-26.5v-0.1H437l27-6.5l19-16L505.4,83.8z"/>
<polygon fill="#FFFFFF" stroke="#000000" stroke-miterlimit="10" points="459.5,25.3 505.4,83.8 483,91 464,107 437,113.5 
	411.2,113.5 411,113.5 391.6,107.3 373,97.1 362.3,84.4 362.2,84.3 362.3,84.1 435.9,48.9 "/>
</svg>
