<?xml version="1.0" encoding="utf-8"?>
<!-- Generator: Adobe Illustrator 15.0.0, SVG Export Plug-In . SVG Version: 6.00 Build 0)  -->
<!DOCTYPE svg PUBLIC "-//W3C//DTD SVG 1.1//EN" "http://www.w3.org/Graphics/SVG/1.1/DTD/svg11.dtd">
<svg version="1.1" id="Layer_1" xmlns="http://www.w3.org/2000/svg" xmlns:xlink="http://www.w3.org/1999/xlink" x="0px" y="0px"
	 width="822px" height="567px" viewBox="0 0 822 567" enable-background="new 0 0 822 567" xml:space="preserve">
<path fill="#FFFFFF" stroke="#000000" d="M689.5,430.1c0,0,0,0,0.1,0.101l-0.199,0.1l-39.7,19.3c0.1-0.6,3.6-25.1,5.399-27.8
	c1.801-2.7-8.3-12.399-9-14c-0.699-1.6,10.2-17.3,9.101-18.899c-1.101-1.601,9.2-12.4,9.2-12.4l-8.801-22.1V337l-0.1-0.2l95.6-33.5
	L719.4,337.8l-6.7,26.4l10.5,14l-10.5,21.6L689.5,430.1z"/>
<path fill="#FFFFFF" stroke="#000000" d="M689.6,430.2c0.9,1.7,11,22.1,8.601,27.3c-2.5,5.4-0.7,24.3-0.7,24.3l-10.9,31.3
	l-20.3,28.7l-24.8,17.4l-0.3-0.5l-0.9-31.7l4.5-20.5c0,0,4.2-23.2,1.3-25.3c-2.899-2.2,0-16.2,0-16.2l3.7-15.4l0,0L689.6,430.2
	L689.6,430.2z"/>
<path fill="#FFFFFF" stroke="#000000" d="M571.5,484.5L571.5,484.5v-35.1l0.2-9.301L649.6,449.7l0,0L646,465c0,0-2.9,14,0,16.2
	c2.9,2.1-1.3,25.3-1.3,25.3l-4.5,20.5l0.899,31.7l0.301,0.5l-0.5,0.399h-23.2l-32.3-6.199V553.1c0,0-3.301-12.1-5.5-15.3
	c-2.2-3.2,0.699-15.6,0-17.3c-0.7-1.6-4.2-15.1-4.2-15.1L571.5,484.5z"/>
<path fill="#FFFFFF" stroke="#000000" d="M571.5,361v-0.5l0.7-0.1l-8-25.301l88.3,2.7l2.9-1l0.1,0.2v17.5l8.8,22.1
	c0,0-10.2,10.801-9.2,12.4c1.101,1.6-9.8,17.3-9.1,18.9c0.7,1.6,10.8,11.3,9,14c-1.8,2.699-5.3,27.1-5.4,27.8l0,0l0,0L571.7,440.1
	l0.2-9.3l8-31l-8.5-25.3L571.5,361L571.5,361z"/>
<path fill="#FFFFFF" stroke="#000000" d="M546.7,474.7c1.5,4.3-13.2-4.9-13.2-4.9L514.7,457.4L501.6,440.1V430.2l4.801-17.8
	L519.1,394.8c0,0,4,31.3,6,35.4c2,4.2,5.9,9.899,7.301,9.6c1.399-0.2,7.199,12.601,9.399,16.601
	C543.9,460.6,545.2,470.4,546.7,474.7z"/>
<path fill="#FFFFFF" stroke="#000000" d="M437.2,424L437.2,424l9.3-27v-23l0.2-0.9l0.899,0.2L571.4,360.4v0.5V374.3l8.5,25.3l-8,31
	l-0.2,9.301l-0.2,9.3v35v0.1l-123.8,12.9l0,0l7.2-19.4l-7.7-27L437.2,424z M533.4,469.8c0,0,14.699,9.2,13.199,4.9
	s-2.8-14.101-5-18.101c-2.199-4-7.899-16.8-9.399-16.6s-5.3-5.5-7.3-9.6c-2-4.2-6-35.4-6-35.4l-12.7,17.6l-4.8,17.801v9.899
	l13.1,17.3L533.4,469.8z"/>
<path fill="#FFFFFF" stroke="#000000" d="M585.6,553.1v0.301L525.9,542c0,0-0.101,0-0.4,0l0,0l-19.9-6.3l-24.6-5.4l-19.5-5.899
	l-6.5-12.9l-7.3-14l0,0l0,0l123.8-12.9l4.3,21c0,0,3.5,13.5,4.2,15.101c0.7,1.6-2.1,14,0,17.3C582.3,541,585.6,553.1,585.6,553.1z"
	/>
<path fill="#FFFFFF" stroke="#000000" d="M525.5,541.9L525.5,541.9c-5.9-0.101-73-2-79.2-3.601c-6.5-1.6-63.7-25.3-63.7-25.3
	L319.9,498.5c0,0-0.301-5.4-2.5-5.9c-2.2-0.5-2.9-5.399-2.9-5.399l-6.5-12.4l0.7-12.899L447.6,497.5l0,0l7.301,14l6.5,12.9
	l19.5,5.899l24.6,5.4L525.5,541.9z"/>
<path fill="#FFFFFF" stroke="#000000" d="M414.8,426.9c5.4-1.601,19.8-2.7,22.3-2.9l10,26.9l7.7,27l-7.2,19.399L308.7,461.7
	l-0.101-25.9L315.2,409.4l19.5-3.2c0,0,0.6,0.5,1.399,1.3c3.2,2.8,10.601,9.3,12.301,10.6C350.6,419.7,370.1,430.7,372.3,430.4
	c2.2-0.4,18.101,0.199,20.3,0.399c2.2,0.3,18.101-0.8,20.301-3C413.2,427.5,413.9,427.2,414.8,426.9z"/>
<path fill="#FFFFFF" stroke="#000000" d="M391.2,422.7l23.6,4.3c-0.899,0.3-1.6,0.6-1.899,0.8c-2.2,2.2-18.101,3.2-20.301,3
	c-2.199-0.3-18.1-0.8-20.3-0.399C370.1,430.8,350.6,419.8,348.4,418.1c-1.7-1.3-9.101-7.8-12.301-10.6H354.2
	c0,0,10.1,12.7,14.5,11.1C373.1,417,391.2,422.7,391.2,422.7z"/>
<path fill="#FFFFFF" stroke="#000000" d="M308.7,337.8l138.1,35.3l-0.2,0.9v23.1L437.2,424l0,0c-2.601,0.2-16.9,1.3-22.3,2.9
	L391.3,422.6c0,0-18.1-5.699-22.399-4.1c-4.4,1.6-14.5-11.1-14.5-11.1H336.3C335.4,406.6,334.9,406.1,334.9,406.1l-19.5,3.2
	l-6.7-25.3l-7.7-26.4l7.6-19.899l0.2-0.2L308.7,337.8z"/>
<polygon fill="#FFFFFF" stroke="#000000" points="308.5,384.1 315.2,409.5 308.6,435.9 308.7,461.8 267.8,419.8 267.8,419.7 
	263.1,399.8 272.5,377.1 267.7,345.9 259.4,322.7 267.6,295.8 267.7,295.8 308.5,337.6 308.3,337.8 300.7,357.7 "/>
<polygon fill="#FFFFFF" stroke="#000000" points="209.3,274 236.4,297.8 235.7,298.5 239.4,316.3 236.4,336.2 228.9,357.7 
	236.6,374.4 234.5,401.9 236.6,422 209.3,397.9 209.3,397.9 213.1,382 203.5,366.3 201.9,350.2 209.1,337.8 201.9,321.1 
	205.7,310.3 209,274.3 209.1,273.9 "/>
<polygon fill="#FFFFFF" stroke="#000000" points="237,298.4 267.6,295.8 259.4,322.7 267.7,345.9 272.5,377.1 263.1,399.8 
	267.8,419.7 267.8,419.8 267.7,419.8 237,422.4 236.6,422 234.5,401.9 236.6,374.4 228.9,357.7 236.4,336.2 239.4,316.3 
	235.7,298.5 236.4,297.8 "/>
<path fill="#FFFFFF" stroke="#000000" d="M319.8,498.4l-4.6-1.101l-55.6-22.6V474.6l-0.2-10.199V449.3l6.5-18.6l1.8-10.9
	l40.899,41.9L307.9,474.6l6.5,12.4c0,0,0.699,4.9,2.899,5.4C319.5,493,319.8,498.4,319.8,498.4z"/>
<polygon fill="#FFFFFF" stroke="#000000" points="259.7,474.7 259.6,474.8 259.5,474.7 220.4,454.7 218.5,452 218.5,444 
	224.5,430.8 236.6,422.4 236.6,422 237,422.4 267.7,419.8 267.8,419.8 266,430.8 259.5,449.3 259.5,464.5 "/>
<polygon fill="#FFFFFF" stroke="#000000" points="236.6,422 236.6,422.4 224.5,430.8 218.5,444 218.5,452 201.9,427.8 201.5,427.4 
	201.5,418.1 207.5,408.4 209.2,398.1 209.3,397.9 209.3,397.9 "/>
<polygon fill="#FFFFFF" stroke="#000000" points="209.3,397.9 209.2,398.1 207.5,408.4 201.5,418.1 201.5,427.4 162.8,390.1 
	162.8,389.3 163.2,390.1 "/>
<polygon fill="#FFFFFF" stroke="#000000" points="163.2,266.1 209.1,273.9 209,274.3 205.7,310.3 201.9,321.1 209.1,337.8 
	201.9,350.2 203.5,366.3 213.1,382 209.3,397.9 163.2,390.1 162.8,389.3 163.9,349.6 172.6,328.1 162.8,303.3 156.7,283.3 
	162.8,266.1 163.1,265.9 "/>
<polygon fill="#FFFFFF" stroke="#000000" points="149.6,267.3 150.9,240.2 163.1,265.9 162.8,266.1 156.7,283.3 162.8,303.3 
	172.6,328.1 163.9,349.6 162.8,389.3 150.9,364.2 141.5,332.9 141.5,315.7 148.5,292 "/>
<polygon fill="#FFFFFF" stroke="#000000" points="132,125.4 182.7,179.8 150.9,240.2 149.6,267.3 141.1,248 131.5,125.4 "/>
<path fill="#FFFFFF" stroke="#000000" d="M267.6,295.8L237,298.4l-0.7-0.601l-27-23.8h-0.2l-45.9-7.8l-0.1-0.1l-12.2-25.7l31.9-60.4
	L132,125.4l8.7-20l48.5-17.3l8.7-11.9l42-6.7l5.8-13.2l28.2-5.4L552,97.8c0,0,91.2-0.7,95.6,2.1c7.2,4.7,47,38.8,50.7,41
	c3.601,2.2,6.5,66.3,6.5,66.3l18.5,55l27.9,41L655.6,336.7l-2.899,1l-88.3-2.7l8,25.3l-0.7,0.101L447.9,373.3l-0.9-0.2l-138.1-35.3
	l-0.2-0.2l-40.8-41.8H267.6z"/>
<polygon points="182.6,179.4 213.3,169.8 213.5,169.7 213.6,169.8 223.6,183.6 223.5,183.6 239.4,190.6 223.4,183.8 223.4,183.8 
	223.4,183.8 213.2,170.2 213.4,170.2 182.9,180.3 "/>
<polygon points="240,69.7 254.2,82.3 254,82.3 272,82.6 254,83 253.9,83 253.8,82.8 239.3,70.5 "/>
<polygon points="189.7,88 195,106 188.8,88.3 "/>
<polygon points="209.2,273.6 218.3,265.9 218.4,265.8 218.5,265.8 229,266 218.5,266.3 218.7,266.3 209.8,274.4 "/>
<polygon points="267.4,295.3 285.1,287.4 267.8,296.2 "/>
<polygon points="563.9,335.4 546.5,315.2 546.2,314.9 546.6,314.7 555.4,310.8 555.3,311.1 546.6,295.8 546.7,295.9 524.1,287.4 
	546.8,295.6 546.9,295.6 546.9,295.6 555.7,310.9 555.9,311.1 555.6,311.2 546.9,315.3 547,314.8 564.6,334.7 "/>
<polygon points="704.9,208.2 689.4,217.8 689.4,218 689.3,218 679,217.7 689.3,217.4 689.2,217.4 704.4,207.4 "/>
<path d="M150.5,212c-0.6-3.5-1-7-1.5-10.5s-0.8-7-1.2-10.5c-0.3-3.5-0.7-7-1-10.5l-0.4-5.3c-0.1-1.8-0.2-3.5-0.3-5.3
	c0.3,1.7,0.5,3.5,0.8,5.2l0.7,5.2c0.4,3.5,0.8,7,1.2,10.5c0.3,3.5,0.7,7,1,10.5C150.1,205,150.3,208.5,150.5,212z"/>
<path d="M156.5,191c-0.4-3.5-0.5-7-0.5-10.5s0.1-7,0.5-10.5c0.4,3.5,0.5,7,0.5,10.5S156.9,187.5,156.5,191z"/>
<path d="M179.2,307c-0.9-2.2-1.7-4.4-2.4-6.6c-0.8-2.2-1.5-4.5-2.2-6.7c-0.7-2.3-1.3-4.5-1.9-6.8l-0.9-3.4c-0.3-1.1-0.6-2.3-0.8-3.4
	c0.5,1.1,0.8,2.2,1.3,3.3l1.2,3.3c0.8,2.2,1.5,4.5,2.2,6.7c0.7,2.3,1.3,4.5,1.9,6.8C178.1,302.4,178.7,304.7,179.2,307z"/>
<path d="M182.7,330c1.5,3.3,2.6,6.6,3.7,10s2.1,6.8,2.8,10.3c-1.5-3.3-2.6-6.6-3.7-10C184.4,336.9,183.4,333.5,182.7,330z"/>
<path d="M189.2,376.8c-1.7-1.7-3.3-3.399-4.9-5.2c-1.6-1.8-3.1-3.6-4.6-5.399s-3-3.601-4.5-5.5l-2.2-2.8c-0.7-1-1.4-1.9-2.1-2.9
	c0.8,0.8,1.6,1.7,2.5,2.6l2.4,2.601c1.6,1.8,3.1,3.6,4.6,5.399c1.5,1.801,3,3.601,4.5,5.5C186.4,373,187.9,374.8,189.2,376.8z"/>
<path d="M156.5,345l3.4-8.1c0.5-1.4,1.1-2.7,1.6-4.101c0.2-0.7,0.5-1.399,0.7-2c0.2-0.7,0.4-1.399,0.4-2c-0.1-1.3-0.7-2.7-1.2-4.1
	c-0.5-1.4-1-2.7-1.6-4.101l-3.3-8.1c1.4,2.5,2.8,5.2,4,7.8c0.6,1.3,1.2,2.7,1.7,4c0.3,0.7,0.5,1.4,0.7,2.101
	c0.2,0.699,0.4,1.399,0.5,2.199c0,0.9-0.2,1.601-0.4,2.301c-0.2,0.699-0.5,1.399-0.7,2.1c-0.5,1.4-1.1,2.7-1.8,4
	C159.3,339.9,158,342.5,156.5,345z"/>
<path d="M225,376.8c-0.7-1.8-1.3-3.6-2-5.3c-0.7-1.8-1.2-3.6-1.8-5.4c-0.6-1.8-1.2-3.6-1.8-5.399l-1.7-5.4l-0.1-0.2l0.1-0.3
	c0.8-2.6,1.7-5.2,2.6-7.8l2.7-7.7l2.9-7.7c1-2.5,2-5.1,3.1-7.6h0.3L219,355l0,0l6.3,21.8H225z"/>
<path d="M247,381c0.6-1.5,1.3-2.9,1.9-4.4s1.3-2.899,2-4.3c0.7-1.399,1.3-2.899,2.1-4.3l2.2-4.2l-0.1,0.7c-0.8-2.2-1.5-4.4-2.2-6.6
	l-2.1-6.601l-2-6.7c-0.6-2.199-1.2-4.5-1.8-6.8h0.1l8.9,26.4l0,0l0,0L247,381L247,381z"/>
<path d="M277,417.1l3.8-5.699c1.3-1.9,2.6-3.801,3.9-5.7l3.9-5.7c1.3-1.9,2.7-3.7,4-5.6l-0.1,0.899l-6-10.7l-5.8-10.8l-0.1-0.2
	V373.4c0-2.4,0-4.701,0.1-7.101l0.2-7.101c0-2.399,0.1-4.699,0.2-7.1l0.3-7.1h0.1v28.3l0,0l11.8,21.601l0,0l0,0L277,417.1L277,417.1
	z"/>
<polygon points="353.9,407.3 361.5,394.9 354.7,407.7 "/>
<polygon points="375.5,416.8 398,400.9 398,400.9 398.1,400.9 416.5,394.9 398.2,401.3 398.2,401.3 376,417.6 "/>
<polygon points="372.9,430.2 376.6,449.6 376.5,449.5 386,457.9 376.2,449.8 376.2,449.7 376.2,449.7 371.9,430.4 "/>
<polygon points="501.4,440.8 481.2,435.8 481.3,436 467,436 467,436 466.9,435.9 437.5,424.1 467.1,435.3 467,435.2 481.3,435 
	481.3,435 481.4,435.1 501.6,439.8 "/>
<polygon points="532,439 552,439.2 552.1,439.2 552.2,439.3 559.1,447.7 558.9,447.7 571.5,440 559.1,448 559,448 558.9,447.9 
	551.8,439.7 552,439.8 532,440 "/>
<polygon points="518.6,394.6 532,381 519.3,395.3 "/>
<polygon points="546.9,474.2 560,481 546.4,475.1 "/>
<path d="M213.2,418.1c1.5,2.101,2.6,4.4,3.5,6.7c0.4,1.2,0.9,2.4,1.2,3.601l0.5,1.8c0.1,0.6,0.2,1.3,0.3,1.899h-0.1l-2.7-7
	L213.2,418.1L213.2,418.1z"/>
<path d="M236.2,442.2c1.7,2.2,2.9,4.7,4,7.2c0.5,1.3,1,2.5,1.4,3.8l0.6,2c0.1,0.7,0.3,1.3,0.4,2h-0.1l-3.3-7.5L236.2,442.2
	L236.2,442.2z"/>
<path d="M277,455c2,3,3.5,6.2,4.8,9.5c0.7,1.6,1.3,3.3,1.8,5l0.8,2.6c0.2,0.9,0.5,1.7,0.6,2.601h-0.1l-4.1-9.8L277,455L277,455z"/>
<path d="M192.1,406c0.8,1,1.4,2.1,1.9,3.2c0.5,1.1,0.9,2.3,1,3.6c-0.8-1-1.4-2.1-1.9-3.2C192.6,408.5,192.2,407.3,192.1,406z"/>
<path d="M354.3,491l10.5,3.2l10.4,3.399l21.1,5.601h0.101h0.1c3.8,1.899,7.6,4,11.4,6l11.3,6c3.8,2.1,7.5,4.2,11.2,6.3l11.1,6.5v0.1
	l-11.3-6.1c-3.8-2-7.5-4.1-11.3-6L396.1,504.1l0,0l-10.6-2.899c-3.5-1-7.1-1.9-10.6-2.9L354.3,491L354.3,491z"/>
<path d="M490,517l9.4,1.7l9.399,1.899c6.2,1.301,12.5,2.7,18.7,4l9.3,2.2l2.3,0.5l2.301,0.7c1.5,0.4,3.1,0.9,4.6,1.4l9.1,2.8
	l9.101,3v0.1l-18.4-5.1l-4.6-1.3l-2.3-0.601l-2.301-0.5l-9.3-2.1L490,517L490,517z"/>
<path d="M606.5,425l-0.3-6c-0.101-2-0.2-4-0.2-6v-0.3l0.2-0.2c3.6-2.4,7.2-4.9,10.899-7.2L616.7,406l-0.101-11v0.2
	c-1-3.5-1.8-7-2.699-10.5c-0.9-3.5-1.801-7-2.601-10.5V374l0.101-0.2l3-9.399l3.199-9.4h0.101l-5.5,19l0,0l5.8,21h0.2l0,0v11l0,0
	H618l-11.1,7v-0.1L606.5,425L606.5,425z"/>
<path d="M675,424l8.1-11.7l8.2-11.5l0.3,1.101c-4.3-2-8.6-4.101-12.899-6.2l-0.7-0.4l0.4-0.8l5.1-10.5l5.2-10.4l0.1,0.9l-5.1-7.3
	c-1.7-2.4-3.4-4.9-5.101-7.4l-0.199-0.3l0.1-0.3l5.4-12.101l5.5-12h0.1L679.2,359.4V359.3l10.3,14.601l0,0l0,0L679.2,394.8v-0.1
	L692,401h0.1l-0.1,0.1L675,424L675,424z"/>
<path d="M669,464.8c1.2,2.101,2.2,4.2,3.4,6.3l3.199,6.4l0.101,0.2v0.3c-0.4,2.2-0.9,4.4-1.4,6.6L672.9,491.2v0.2L672.8,491.6
	c-1.3,1.801-2.6,3.601-3.899,5.5l-3.9,5.5l0.1-0.1l-3.899,7.4c-0.601,1.199-1.3,2.399-2,3.699c-0.7,1.2-1.4,2.4-2.101,3.601H657
	l7.3-15l0,0l0,0l7.601-11l0,0l3-13.2l0,0L669,464.8L669,464.8z"/>
<path d="M612,528c0.3-1.6,0.6-3.1,1-4.7c0.4-1.5,0.7-3.1,1.1-4.6l1.2-4.601c0.4-1.5,0.8-3.1,1.4-4.6c0.6-1.3,0.6-2.9,0.7-4.4
	c0-1.6,0-3.1-0.101-4.699c-0.2-3.101-0.3-6.301-0.6-9.4l0.1,0.3l-2.7-5.5l-2.6-5.6c-0.9-1.9-1.7-3.7-2.6-5.601
	c-0.801-1.899-1.7-3.699-2.5-5.6h0.1l11,21.9l0,0l0,0c0.3,3.199,0.5,6.3,0.6,9.5c0,1.6,0.101,3.199,0,4.8c0,0.8-0.1,1.6-0.199,2.399
	c-0.101,0.801-0.2,1.601-0.601,2.301c-1.1,3-2,6-2.899,9C613.7,521.9,612.9,525,612,528L612,528z"/>
<path d="M512.5,419c0.2,1.8,0.3,3.5,0.4,5.3c0.1,1.8,0.1,3.5,0.199,5.3c0.101,1.801,0.101,3.5,0.101,5.301l0.1,5.3l-0.3-0.7
	c1.1,0.8,2.2,1.6,3.3,2.4l3.2,2.5l3.2,2.5c1.1,0.8,2.1,1.699,3.2,2.5l0.1,0.1l0,0c1,1.4,2.1,2.8,3.1,4.3s2,2.9,3,4.4L532,458
	l-6.6-8.2l0,0l-13.2-9.7H512l0,0L512.5,419L512.5,419z"/>
<polygon points="719.5,338.2 704.7,345 719.1,337.3 "/>
<polygon points="713,364.5 704.7,374 712.2,363.9 "/>
</svg>
