<?xml version="1.0" encoding="utf-8"?>
<!-- Generator: Adobe Illustrator 15.0.0, SVG Export Plug-In . SVG Version: 6.00 Build 0)  -->
<!DOCTYPE svg PUBLIC "-//W3C//DTD SVG 1.1//EN" "http://www.w3.org/Graphics/SVG/1.1/DTD/svg11.dtd">
<svg version="1.1" id="Layer_1" xmlns="http://www.w3.org/2000/svg" xmlns:xlink="http://www.w3.org/1999/xlink" x="0px" y="0px"
	 width="822px" height="567px" viewBox="0 0 822 567" enable-background="new 0 0 822 567" xml:space="preserve">
<g id="COLORING">
	<path fill="#FFFFFF" stroke="#000000" stroke-miterlimit="10" d="M782.4,392l10.3,63.7L754.6,485.6l-26-36.3l-22-36.7L697.9,374.4
		L684,354l-30-6l-3.3-25.3l10-25.2l15.3-18.8c0,0,16-8,19.3-10.7s15.9-18.5,15.9-18.5l52.2,86.2L782.4,392z"/>
	<path fill="#FFFFFF" stroke="#000000" stroke-miterlimit="10" d="M728.7,449.3l26,36.3L662,505.1L625.3,494l-36-8.3l16.4-18.3
		c0,0,1.6-34,0.3-39.301c-1.3-5.3,2.7-26,3.3-31.899c0.101-1,0.601-2.601,1.4-4.5c3.8-9.2,13.899-26.3,13.899-26.3L654,348l30,6
		l14,20.5l8.7,38.2L728.7,449.3z"/>
	<path fill="#FFFFFF" stroke="#000000" stroke-miterlimit="10" d="M335,374.5l-19.1,27.9c0,0-22.101,8.899-25.101,15.899
		s-33.5,67.4-33.5,67.4l-75.3,19l12.5-35.3l30-28l20.7-10.7l29.3-16l13.3-16.5l20.7-10.8L335,374.5z"/>
	<path fill="#FFFFFF" stroke="#000000" stroke-miterlimit="10" d="M399.6,494.9L257.4,485.6c0,0,30.5-60.399,33.5-67.399
		s25.1-15.9,25.1-15.9l19.1-27.899h17l6,21.6c0,0,19.301,19.2,19,23.9c-0.3,4.699-3,32-3,34.699c0,2.7,4.5,24.7,4.5,24.7
		L399.6,494.9z"/>
	<path fill="#FFFFFF" stroke="#000000" stroke-miterlimit="10" d="M548,476.5l16.7,22.3l-72.3,18.9L399.6,494.9l-21-15.601
		c0,0-4.5-22-4.5-24.7c0-2.699,2.7-30,3-34.699c0.301-4.7-19-23.9-19-23.9l-6-21.6l14-21.5l12.5-11.801l3.5-3.199l20-11l9-20.801
		l16-8.8h17l11.5,27.5v30l27.5,18l10,14l10,25l10,23l18,29L548,476.5z"/>
	<path fill="#FFFFFF" stroke="#000000" stroke-miterlimit="10" d="M662,505.1l-97.4-6.3L548,476.5L531,464l-18-29l-10-23l-10-25
		l-10-14l-27.5-18v-30L444,297.5l7.3-10.8L456,271l4-25.7l21.3-6.7l8,16l-4,16.3c0,0,0.7,19,4,22.3s10,29.8,12,33.5s0,25.1,0,27.1
		s8.2,10.7,11.4,14.7c3.3,4,18.6,23,18.6,23l7.3,22.3l8,18.7l14,16.7L568,468l21.4,17.7l36,8.3L662,505.1z"/>
	<path fill="#FFFFFF" stroke="#000000" stroke-miterlimit="10" d="M610.8,391.7c-0.8,1.899-1.3,3.5-1.399,4.5
		c-0.7,5.899-4.7,26.5-3.301,31.899c1.4,5.4-0.3,39.301-0.3,39.301L589.4,485.7L568,468l-7.3-18.7l-14-16.7l-8-18.699l-7.3-22.301
		c0,0-15.301-19-18.601-23S501.4,355.9,501.4,353.9s2-23.301,0-27.101s-8.7-30.2-12-33.5c-3.301-3.3-4-22.3-4-22.3l4-16.3l-8-16
		c0,0,11.3-20.7,12.699-22.7c1.301-2,7.101-20.7,7.301-21.3l0,0l23.8-7.3l16.2,12c0,0,18,30,18.699,32c0.7,2,2.601,34,4.7,36.7
		c2,2.7,8,34,8,34s2.7,21.801,2.7,24.9s7.3,17.1,10,21.1s10.7,14,12.7,15.301C600,364.7,610.8,391.7,610.8,391.7z"/>
	<path fill="#FFFFFF" stroke="#000000" stroke-miterlimit="10" d="M481,202.5l20.3-7.8c-0.2,0.6-6,19.3-7.3,21.3
		s-12.7,22.7-12.7,22.7l-21.3,6.7l-4,25.7l-4.7,15.7l-7.3,10.8h-17c0,0-25.7-8.8-27.7-8c-2,0.801-19.3-2.199-20.8,0
		c-1.5,2.2-13.9,5.2-16.5,8c-2.6,2.801-23.8,9.2-23.8,9.2l-32.2-3.3l-22,4.7l-37,9.5h-27l-0.1-0.2l28.7-19.8l34-29.5l35.3-8
		c0,0,34-7.3,37.3-9.3s23.2-28.7,23.2-28.7l25.5-15.4l46-4.1H481V202.5z"/>
	<path fill="#FFFFFF" stroke="#000000" stroke-miterlimit="10" d="M570,124.3L570,124.3c-4.9,9.9-22,39.7-22,39.7l-20.7,22.7
		l-2.2,0.7l-23.8,7.3l0,0l-20.3,7.8h-31l-46,4.1l16.7-11.9c0,0,26-18.7,28.7-21.3c2.699-2.7,8-12.5,8-12.5l18.699-10.3H501.4
		l30.699-7.3l18-14.6L570,124.3z"/>
	<path fill="#FFFFFF" stroke="#000000" stroke-miterlimit="10" d="M650.7,322.7L654,348l-29.3,17.3c0,0-10.101,17.101-13.9,26.3
		c0,0-10.8-27-12.8-28.3S588,352,585.3,348s-10-18-10-21.1c0-3.101-2.7-24.9-2.7-24.9s-6-31.3-8-34s-4-34.7-4.699-36.7
		c-0.7-2-18.7-32-18.7-32l-16.2-12l2.2-0.7L548,164c0,0,17.2-29.8,22.1-39.7c0.7-1.5,1.2-2.5,1.301-2.9c0.5-2.6,6.399-17.2,9-23.5
		L581.6,98l7.801,28.7l4,21.3c0,0,1.3,23,0,25.1c-1.301,2.2-0.101,22.9,0.6,28.2c0.7,5.3,8.1,23.3,11.4,28.7
		c3.3,5.3,16.699,27.5,18,30.8c1.3,3.2,8.699,33.2,8.699,33.2l14.7,23.5L650.7,322.7z"/>
	<path fill="#FFFFFF" stroke="#000000" stroke-miterlimit="10" d="M710.2,247.8l1,1.7c0,0-12.5,15.8-15.9,18.5
		c-3.3,2.7-19.3,10.7-19.3,10.7l-15.3,18.8l-10,25.2l-4-5.2L632,294c0,0-7.3-30-8.7-33.2c-1.3-3.2-14.7-25.4-18-30.8
		c-3.3-5.3-10.7-23.3-11.399-28.7c-0.7-5.3-1.9-26-0.601-28.2c1.3-2.2,0-25.1,0-25.1l-4-21.3L581.5,98l-1.2-0.1
		c0.7-1.8,1.2-2.9,1.2-2.9V67.3l-17.2-16.8l-11.6-26.2h0.2L603.8,47.1l35.7,50l33.6,58L710.2,247.8z"/>
	<path fill="#FFFFFF" stroke="#000000" stroke-miterlimit="10" d="M581.5,67.3V95c0,0-0.5,1.1-1.2,2.9c-2.6,6.3-8.5,20.9-9,23.5
		c-0.1,0.4-0.5,1.5-1.3,2.9l0,0l-20,4.4l-18,14.6l-30.7,7.3H476l-18.7,10.3L436,150l-10-10c2-0.7,33.3-20,33.3-20L470,98l11.3-23.3
		L490,52l6.6-14.7L552.7,24.4l11.6,26.2L581.5,67.3z"/>
	<path fill="#FFFFFF" stroke="#000000" stroke-miterlimit="10" d="M496.6,37.3L490,52l-8.7,22.7L470,98l-10.7,22
		c0,0-31.3,19.3-33.3,20l-7.3-16l8.3-15.7l13.7-15.6l9.2-18.1L496.6,37.3z"/>
	<path fill="#FFFFFF" stroke="#000000" stroke-miterlimit="10" d="M449.8,74.6l-9.2,18.1L427,108.3l-8.3,15.7l7.3,16
		c-2,0.7-47.5,8.7-47.5,8.7l-33.9,12.2l-46.5,18.4l-0.1-0.1v0.1l0,0l-40.6-5.2l56.5-40.6L379.6,97L449.8,74.6z"/>
	<path fill="#FFFFFF" stroke="#000000" stroke-miterlimit="10" d="M436,150l21.3,10.8c0,0-5.3,9.8-8,12.5
		c-2.7,2.7-28.7,21.3-28.7,21.3l-16.6,12L378.5,222c0,0-19.9,26.7-23.2,28.7l-12-15.3l-12-8.7l-14-20.4l-14-19l-5.2-8.1l46.5-18.4
		l33.9-12.2c0,0,45.5-8,47.5-8.7L436,150z"/>
	<path fill="#FFFFFF" stroke="#000000" stroke-miterlimit="10" d="M343.3,235.3l12,15.3c-3.3,2-37.3,9.3-37.3,9.3l-35.3,8l4.9-23
		v-20.3L276.8,212l15.9-14l5.3-18.6h0.1l5.2,8.1l14,19l14,20.4L343.3,235.3z"/>
	<polygon fill="#FFFFFF" stroke="#000000" stroke-miterlimit="10" points="298,179.3 298,179.3 292.7,197.9 276.8,212 287.5,224.7 
		287.5,245 282.6,268 248.6,297.5 219.9,317.3 175.3,326.8 201.5,277.7 227.8,226.5 257.4,174.1 	"/>
	<polygon fill="#FFFFFF" stroke="#000000" stroke-miterlimit="10" points="378.5,341.2 366,353 352,374.5 335,374.5 308.7,387.3 
		288,398.2 274.7,414.7 245.3,430.7 224.7,441.3 194.7,469.3 182.1,504.7 97.8,493.8 21.9,480.8 92,398.1 94.4,396.1 94.4,396.1 
		139.4,388.5 164,382.5 215,382.5 254,374.5 305.3,369.3 335,352.7 358,344 	"/>
	<path fill="#FFFFFF" stroke="#000000" stroke-miterlimit="10" d="M427,297.5l-16,8.8l-9,20.8l-20,11l-3.5,3.2L358,344l-23,8.7
		l-29.7,16.7L254,374.6l-39,8h-51l-24.6,6l-45,7.601l0,0l80.8-69.101l0.1-0.1l44.6-9.5l0.1,0.2h27l37-9.5l22-4.7l32.2,3.3
		c0,0,21.1-6.3,23.8-9.2c2.7-2.899,15.1-5.8,16.5-8c1.4-2.199,18.8,0.801,20.8,0C401.3,288.7,427,297.5,427,297.5z"/>
</g>
</svg>
