<?xml version="1.0" encoding="utf-8"?>
<!-- Generator: Adobe Illustrator 15.0.0, SVG Export Plug-In . SVG Version: 6.00 Build 0)  -->
<!DOCTYPE svg PUBLIC "-//W3C//DTD SVG 1.1//EN" "http://www.w3.org/Graphics/SVG/1.1/DTD/svg11.dtd">
<svg version="1.1" id="Layer_1" xmlns="http://www.w3.org/2000/svg" xmlns:xlink="http://www.w3.org/1999/xlink" x="0px" y="0px"
	 width="822px" height="567px" viewBox="0 0 822 567" enable-background="new 0 0 822 567" xml:space="preserve">
<title>Scaur</title>
<desc>Coloring of scaur.</desc>
<path fill="#FFFFFF" stroke="#000000" d="M277.3,252c0,0-4.7,18-6,23c-1.3,5-6,13.7-6,13.7l-6.7,14l-17.3,16l-34.1,26.7l-49.3,30.3
	L190.1,275l51.2-12.3L277.3,252z"/>
<polygon fill="#FFFFFF" stroke="#000000" points="284,380 286.7,414 265.3,434.7 252,452 226.7,477.3 207.2,491.5 108.6,447.7 
	157.9,375.7 207.2,345.3 241.3,318.7 258.7,302.7 269.3,317.3 272.7,348 "/>
<path fill="#FFFFFF" stroke="#000000" d="M277.3,252l7.3,18.7l10,12.8L302,318l2.7,26l-12,28.7l-6,41.3l-2.7-34l-11.3-32l-3.3-30.7
	l-10.7-14.7l6.7-14c0,0,4.7-8.8,6-13.7C272.7,270,277.3,252,277.3,252z"/>
<path fill="#FFFFFF" stroke="#000000" d="M360.7,275l-10,13.7l2.6,8.3l6,5.7l-4,5.899L356,322l-12,16.7l-17.3,18l-15.3,12L294,389.3
	l-7.3,24.7l6-41.3l12-28.7l-2.7-26l-7.3-34.5l-10-12.8l-7.3-18.7l20.7,16c0,0,24.7,6.6,29.3,7C332,275.3,360.7,275,360.7,275z"/>
<path fill="#FFFFFF" stroke="#000000" d="M411,475.3l10.3,16.2l-3.3,19.8l0.7,8.9l-163.2,25.1l-48.3-53.7l19.5-14.199L252,452
	l13.3-17.3l21.3-20.7l7.3-24.7l17.3-20.7l15.3-12l17.3-18l12-16.699l8.7,6.699l4.7,17.301l11.7,14l10.3,33.3c0,0-4,25.3,0,28
	s14.7,29.3,14.7,29.3L411,475.3z"/>
<path fill="#FFFFFF" stroke="#000000" d="M461,376.5l9,34.2l-4.3,22.7l-4.3,18L448.7,472c0,0-9.3,17.3-6.7,21.3s-8.7,15.3-8.7,15.3
	l-10,10.801l-4.6,0.699L418,511.2l3.3-19.8L411,475.3l-5-24.7c0,0-10.7-26.699-14.7-29.3c-4-2.7,0-28,0-28L381.1,360L369.4,346
	l-4.7-17.3L356,322l-0.7-13.5l4-5.9l-6-5.699l-2.6-8.301l10-13.7c0,0,18.8,25.7,20.399,27.7c1.601,2,26.9,26.7,26.9,26.7l29.3,29
	l24,17.7v0.5H461L461,376.5z"/>
<polygon fill="#FFFFFF" stroke="#000000" points="636,390.8 653.5,477.2 535.2,519.5 540.7,475.3 554.7,436 557.3,402.7 572.7,378 
	593.3,363.3 604,346 616.2,314.4 "/>
<path fill="#FFFFFF" stroke="#000000" d="M548.7,394l8.7,8.7l-2.7,33.3l-14,39.3l-5.5,44.2H423.3l10-10.8c0,0,11.3-11.3,8.7-15.3
	s6.7-21.301,6.7-21.301l12.7-20.699l4.3-18l4.3-22.7l-9-34.2h0.3H474l24,5.5l24.7,4l12.5-4.8L548.7,394z"/>
<path fill="#FFFFFF" stroke="#000000" d="M615.2,310.3l1.1,4.101L604,346l-10.7,17.3L572.7,378l-15.3,24.7l-8.7-8.7l-13.5-12.8
	l-12.5,4.8l-24.7-4l-24-5.5h-12.7V376c0,0,0.8-0.6,2.2-1.5c4.9-3.4,16.6-11.6,17.2-13.2c0.7-2,16-35.3,19.3-39.3
	s23.3-37.7,26.7-38.5c3.3-0.8,30.399-42.4,30.399-42.4L615.2,310.3z"/>
<path fill="#FFFFFF" stroke="#000000" d="M535.2,161.5l21.8,79.6c0,0-27,41.6-30.4,42.4L514,275l-12-7l-12.7-12l-8.7-19.3
	l-11.3-20.2c2-0.5,24-15.8,28-19.2c4-3.3,23.3-21.3,24.7-23.3S535.2,161.5,535.2,161.5z"/>
<path fill="#FFFFFF" stroke="#000000" d="M514,275l12.7,8.5c-3.3,0.8-23.3,34.5-26.7,38.5s-18.7,37.3-19.3,39.3
	c-0.5,1.601-12.3,9.8-17.2,13.2l-5.5-27.8l7.4-13.7c0,0-8-30.3-7.301-33.7c0.7-3.3,0-25.3,0-25.3l12-13.3l-5.3-30l4.7-14.2
	l11.3,20.2l8.7,19.3l12.7,12L514,275z"/>
<path fill="#FFFFFF" stroke="#000000" d="M464.7,230.7l5.3,30L458,274c0,0,0.7,22,0,25.3s7.3,33.7,7.3,33.7l-7.399,13.7l5.5,27.8
	c-1.301,0.9-2.2,1.5-2.2,1.5l-24-17.7l-29.3-29c0,0-25.301-24.7-26.9-26.7S360.7,275,360.7,275l8.7-17l17-6c0,0,7.1-12,9.399-14
	s12.3-21.5,12.3-21.5h21c0,0,38.301,0.5,40.301,0L464.7,230.7z"/>
<path fill="#FFFFFF" stroke="#000000" d="M376.7,187.9l31.3,28.6c0,0-10,19.5-12.3,21.5s-9.4,14-9.4,14l-17,6l-8.7,17
	c0,0-28.699,0.4-33.3,0c-4.7-0.4-29.3-7-29.3-7l-20.7-16l10.7-14.6c0,0,10-10.8,12-12.1c2-1.3,20-15.3,20-15.3l20.1-13.3l10.4-13.7
	v-16.3c0.1-0.1,0.2-0.1,0.2-0.1L376.7,187.9z"/>
<path fill="#FFFFFF" stroke="#000000" d="M350.5,166.7V183l-10.4,13.7L320,210c0,0-18,14-20,15.3c-2,1.3-12,12.1-12,12.1L277.3,252
	l-36,10.7L190.1,275l91-93.1l0.1-0.1l0,0c0,0,36.8-3.1,39.5-3.1C323.3,178.6,348,167.9,350.5,166.7z"/>
<path fill="#FFFFFF" stroke="#000000" d="M340.1,112.1l15.9,9.4h41l0,0l-10.7,11.2l-5.3,14l-23.2,6.2l-7.399,13.8v0.1
	c-2.5,1.1-27.2,11.9-29.801,11.9c-2.699,0-39.5,3.1-39.5,3.1l0,0l58.6-69.8h0.1L340.1,112.1z"/>
<path fill="#FFFFFF" stroke="#000000" d="M430.7,152.7v0.2l-4,16.7H418l-7,19.6l3.7,15.6l-6.7,11.8L376.7,188l-26-21.3
	c0,0-0.101,0-0.2,0.1v-0.1l7.4-13.8l23.199-6.2l5.301-14l10.699-11.2l0,0c0,0,9.7,15.8,14,17.8C415.4,141.3,430.7,152.7,430.7,152.7
	z"/>
<path fill="#FFFFFF" stroke="#000000" d="M470,98l65.2,63.5c0,0-11.9,10.5-13.2,12.5s-20.7,20-24.7,23.3c-4,3.3-26,18.7-28,19.2
	s-40.3,0-40.3,0h-21l6.7-11.8l-3.7-15.6l7-19.6h8.7l4-16.7v-0.2c0,0,16.7-4,18-6.7c1.3-2.7,8-26.7,10.7-28.7
	C462,115.3,470,98,470,98z"/>
<path fill="#FFFFFF" stroke="#000000" d="M466.6,94.6L470,98c0,0-8,17.3-10.7,19.3s-9.3,26-10.7,28.7c-1.3,2.7-18,6.7-18,6.7
	s-15.3-11.3-19.699-13.3c-4.4-2-14-17.8-14-17.8l8-10.1l-8.4-8.6L386.1,95v-0.1h0.101l53.3-46L466.6,94.6z"/>
<polygon fill="#FFFFFF" stroke="#000000" points="396.6,102.8 405,111.4 397,121.5 356,121.5 340.1,112.1 340,111.9 386.2,94.7 
	386.2,94.8 "/>
</svg>
