<?xml version="1.0" encoding="utf-8"?>
<!-- Generator: Adobe Illustrator 15.0.0, SVG Export Plug-In . SVG Version: 6.00 Build 0)  -->
<!DOCTYPE svg PUBLIC "-//W3C//DTD SVG 1.1//EN" "http://www.w3.org/Graphics/SVG/1.1/DTD/svg11.dtd">
<svg version="1.1" id="layer_x5F_www.ABC-color.com"
	 xmlns="http://www.w3.org/2000/svg" xmlns:xlink="http://www.w3.org/1999/xlink" x="0px" y="0px" width="822px" height="567px"
	 viewBox="0 0 822 567" enable-background="new 0 0 822 567" xml:space="preserve">
<rect display="none" fill="#FFFFFF" width="822" height="567"/>
<path fill="#FFFFFF" stroke="#000000" d="M293.6,10.3C293.6,10.3,105,3,59,203C43-43,293.6,10.3,293.6,10.3z"/>
<path fill="#FFFFFF" stroke="#000000" d="M124,185C116,18,320,48,320,48S157,65,124,185z"/>
<path fill="#FFFFFF" stroke="#000000" d="M312,93c0,0-89-1-127,83C192,67,312,93,312,93z"/>
<path fill="#FFFFFF" stroke="#000000" d="M288.7,141.7c4.2-2.3,10.2-2.8,14.8-1.3c-3.9,3-46.3,24.6-46.3,24.6l0,0
	c-1.5-2.6-0.1-5.8,3.8-7.9L288.7,141.7z"/>
<path fill="#FFFFFF" stroke="#000000" d="M328.9,154.6c-12.5-0.2-57.5,20-57.5,20l-11.8-7.1c-1.1-0.7-2-1.6-2.5-2.5l0,0
	c0,0,42.4-21.7,46.3-24.6c1,0.3,1.899,0.7,2.699,1.2L328.9,154.6z"/>
<path fill="#FFFFFF" stroke="#000000" d="M688.5,336.8c57.5,30.7,61.5,59,21.1,90.102L624,493.6
	C591.6,519.9,546.7,515.2,515.3,494.2L208.1,299.5c-39.5-25-45.6-46.8,4.5-75.9l66.7-38.7c39.9-23.2,79-24.3,121.3-1.8L688.5,336.8z
	 M699.5,423.8c38.3-29.5,34.1-56.399-21.2-86L401.5,189.5c-28.1-15-54.6-19.3-80.8-13.3c-12.102,2.6-24.1,7.5-36.2,14.4L221.3,227
	c-47.5,27.4-41.4,48.2-3.4,72.3L513.5,487c21,14,48.1,20.6,72.9,15c11.398-2.4,22.3-7.3,32-15.2L699.5,423.8z"/>
<path fill="#FFFFFF" stroke="#000000" d="M139.3,278.2c2,10.6,9.2,20.8,21.8,29.3L482,516.2c46.7,31.2,116.9,32,154.2,1.7
	l107-89.602C755.9,417.9,761.1,404.9,759.7,391.4h0.2c0,0,7.6,39.898-12.4,58.3l-107,89.6c-37.3,30.3-107.5,29.5-154.2-1.7
	L165.4,328.9c-12.6-8.4-19.8-18.7-21.8-29.301l-4.1-19.5L139.3,278.2L139.3,278.2z"/>
<path id="ABC-color.com" fill="#FFFFFF" stroke="#000000" d="M759.7,391.5c1.3,13.5-3.8,26.5-16.5,36.9l-107,89.6
	c-37.3,30.3-107.5,29.5-154.2-1.7L161.1,307.5c-12.6-8.4-19.8-18.7-21.8-29.3c-3.2-17,6.8-34.8,28.9-47.4l103.1-56.2
	c0,0,45-20.2,57.5-20c25.3-2.4,52.2,1.6,72.602,12.4l310.8,167c24.1,12.7,40.2,30.5,45.7,48.4C758.8,385.4,759.4,388.5,759.7,391.5z
	 M709.5,427c40.5-31.2,36.5-59.4-21.1-90.1L400.5,183.2c-42.3-22.5-81.4-21.4-121.3,1.8l-66.7,38.7c-50.1,29.1-44,50.9-4.5,75.899
	L515.2,494.4c31.398,21,76.3,25.698,108.7-0.602L709.5,427z"/>
<path fill="#FFFFFF" stroke="#000000" d="M586.6,442.7c6.602,3.898,7.7,10.3,2.4,14.2L566.5,473.6c-5.4,4-15,3.9-21.6-0.1l-27.4-17
	c-6.4-4-7.2-10.3-1.8-14.1L538.1,426.3c5.2-3.8,14.602-3.7,21,0.102L586.6,442.7z"/>
<path fill="#FFFFFF" stroke="#000000" d="M525,405.8c6.2,3.7,7.1,9.8,1.8,13.5l-22.398,16c-5.302,3.8-14.802,3.8-21-0.1L457.3,419
	c-6-3.8-6.6-9.8-1.3-13.5l22.4-15.5c5.198-3.6,14.398-3.6,20.398,0L525,405.8z"/>
<path id="www.ABC-color.com" fill="#FFFFFF" stroke="#000000" d="M582.8,365.6c6.2,3.602,7.3,9.4,2.3,13L563.5,394
	c-5.1,3.7-14.4,3.6-20.6,0L516.8,378.6c-6.1-3.6-6.8-9.398-1.7-12.898l21.5-14.801c5-3.5,14-3.5,20.102,0L582.8,365.6z"/>
<path fill="#FFFFFF" stroke="#000000" d="M644.3,400.8c6.5,3.7,7.8,9.8,2.8,13.602l-21.5,16c-5.1,3.8-14.6,3.8-21.198-0.102
	L577,414.1c-6.4-3.8-7.3-9.8-2.2-13.5l21.5-15.5c5-3.6,14.2-3.6,20.602,0L644.3,400.8z"/>
<path fill="#FFFFFF" stroke="#000000" d="M699.6,361.6c6.5,3.602,8,9.4,3.2,13L682.1,390c-4.898,3.7-14.3,3.7-20.8,0L633.9,374.6
	c-6.4-3.6-7.5-9.398-2.602-12.898l20.602-14.9c4.8-3.5,13.898-3.5,20.3,0L699.6,361.6z"/>
<path fill="#FFFFFF" stroke="#000000" d="M638,328.1c6.2,3.4,7.4,9,2.6,12.4L620,355.2c-4.9,3.5-14,3.5-20.2,0l-26.2-14.7
	c-6.1-3.4-7-9-2.1-12.4l20.7-14.3c4.8-3.3,13.6-3.3,19.7,0L638,328.1z"/>
<path fill="#FFFFFF" stroke="#000000" d="M575.6,294.1c6,3.2,6.9,8.5,2.102,11.801L557,320c-4.9,3.4-13.8,3.4-19.7,0L512.4,306
	c-5.802-3.3-6.5-8.5-1.602-11.8l20.602-13.7c4.8-3.2,13.398-3.2,19.198-0.1L575.6,294.1z"/>
<path fill="#FFFFFF" stroke="#000000" d="M520.4,330c5.898,3.4,6.698,8.9,1.698,12.4L500.6,357.1c-5.1,3.5-14.1,3.5-20,0
	L455.7,342.4c-5.8-3.4-6.3-9-1.2-12.301l21.4-14.199c5-3.301,13.698-3.301,19.5,0L520.4,330z"/>
<path fill="#FFFFFF" stroke="#000000" d="M462.8,368.5c5.9,3.5,6.5,9.3,1.3,12.9L441.7,396.7c-5.3,3.7-14.5,3.6-20.4-0.102
	L396.5,381.2c-5.8-3.601-6.1-9.3-0.8-12.9l22.3-14.8c5.2-3.5,14.1-3.5,19.9,0L462.8,368.5z"/>
<path fill="#FFFFFF" stroke="#000000" d="M493.9,249.4c9.3,5.1,10.5,13.4,2.5,18.6L372,350.8c-8.9,5.8-23.6,5.8-32.9,0L249,294.5
	c-8.5-5.3-8.2-13.9,0.5-19.1l123.3-75.1c8-4.8,21.3-4.9,29.9-0.2L493.9,249.4z"/>
<path fill="#FFFFFF" stroke="#000000" d="M678.3,337.8c55.3,29.601,59.4,56.601,21.2,86l-80.9,63c-9.698,7.9-20.6,12.8-32,15.2
	c-24.8,5.6-51.898-1-72.898-15L218,299.4c-38-24-44.1-44.9,3.4-72.3l63.2-36.4c12.1-7,24.1-11.8,36.2-14.4
	c26.2-6,52.7-1.8,80.8,13.3L678.3,337.8z M702.7,374.6c4.8-3.6,3.398-9.398-3.2-13L672.1,346.7c-6.398-3.5-15.398-3.5-20.3,0
	L631.2,361.6c-4.9,3.5-3.8,9.301,2.6,12.9l27.4,15.4c6.5,3.699,15.898,3.699,20.8,0L702.7,374.6z M647.2,414.4
	c5-3.802,3.7-9.802-2.8-13.602L617,385.2c-6.4-3.7-15.6-3.7-20.6,0l-21.5,15.5c-5.102,3.7-4.102,9.7,2.198,13.5l27.4,16.2
	c6.5,3.898,16,3.898,21.2,0.1L647.2,414.4z M640.6,340.5c4.802-3.5,3.602-9-2.6-12.4l-26.2-14.3c-6.1-3.3-14.898-3.3-19.7,0
	L571.4,328.1c-4.9,3.4-4,8.9,2.1,12.4l26.2,14.7c6.2,3.5,15.3,3.5,20.2,0L640.6,340.5z M589,456.9c5.2-3.9,4.1-10.302-2.4-14.2
	L559.2,426.3c-6.4-3.8-15.7-3.898-21-0.1l-22.4,16.1c-5.3,3.9-4.6,10.2,1.8,14.102l27.4,17c6.5,4.1,16.2,4.1,21.6,0.1L589,456.9z
	 M585,378.6c5-3.6,4-9.398-2.3-13L556.5,350.7c-6.1-3.5-15.1-3.5-20.1,0l-21.5,14.8c-5.102,3.5-4.4,9.3,1.698,12.9L542.7,393.8
	c6.2,3.7,15.5,3.7,20.6,0L585,378.6z M577.7,305.9c4.8-3.301,3.898-8.602-2.102-11.801L550.7,280.5c-5.8-3.2-14.4-3.1-19.2,0.1
	l-20.6,13.7c-4.9,3.3-4.2,8.5,1.6,11.8l24.9,14c6,3.4,14.8,3.301,19.698,0L577.7,305.9z M526.9,419.4
	c5.198-3.7,4.398-9.802-1.802-13.5L499,390.3c-6.1-3.6-15.2-3.7-20.4,0L456.2,405.8c-5.3,3.7-4.8,9.7,1.3,13.5l26.1,16.2
	c6.302,3.9,15.7,3.9,21,0.1L526.9,419.4z M522.1,342.4c5-3.4,4.2-9-1.698-12.4l-24.9-14.2c-5.8-3.3-14.5-3.3-19.5,0L454.6,330
	c-5.1,3.4-4.6,8.9,1.2,12.3l24.9,14.7c5.898,3.5,14.898,3.5,20,0L522.1,342.4z M496.4,268c8-5.2,6.8-13.6-2.5-18.6l-91.2-49.3
	c-8.602-4.7-22-4.6-29.9,0.2l-123.3,75.1c-8.8,5.3-9,13.8-0.5,19.1l90.1,56.3c9.302,5.8,24,5.8,32.9,0L496.4,268z M464.1,381.5
	c5.2-3.6,4.602-9.4-1.3-12.9L438,353.7c-5.8-3.5-14.7-3.5-19.9,0l-22.3,14.8c-5.3,3.5-5,9.3,0.8,12.9L421.4,396.8
	c5.898,3.7,15.1,3.7,20.398,0.102L464.1,381.5z"/>
</svg>
