<?xml version="1.0" encoding="utf-8"?>
<!-- Generator: Adobe Illustrator 15.0.0, SVG Export Plug-In . SVG Version: 6.00 Build 0)  -->
<!DOCTYPE svg PUBLIC "-//W3C//DTD SVG 1.1//EN" "http://www.w3.org/Graphics/SVG/1.1/DTD/svg11.dtd">
<svg version="1.1" id="Layer_x5F_www.ABC-color.com"
	 xmlns="http://www.w3.org/2000/svg" xmlns:xlink="http://www.w3.org/1999/xlink" x="0px" y="0px" width="567px" height="822px"
	 viewBox="0 0 567 822" enable-background="new 0 0 567 822" xml:space="preserve">
<polyline fill="#FFFFFF" points="0,0 567,0 567,822 "/>
<path fill="#FFFFFF" stroke="#000000" d="M259.9,32.9l-0.1,0.4c-43.3,1.3-109.4,0.3-109.4,0.3c-2.1,0-3.8-1.7-3.8-3.8v-0.3
	c0-2.1,1.7-3.8,3.8-3.8c0,0,63.4-3.2,106.6-4.5c-3.2,1.4-5.3,3.2-5.3,5.5C251.7,29,254.8,31.2,259.9,32.9z"/>
<path fill="#FFFFFF" stroke="#000000" d="M256.9,21c7-3,19.3-4,26.6-4c10.4,0,19.6,1.5,25.4,3.8c4,1.6,6.398,3.6,6.398,5.7
	c0,2.5-3.3,4.8-8.7,6.5c-5.8,1.8-13.999,3-23.2,3c-9.4,0-17.8-1.2-23.6-3.1c-5.1-1.7-8.2-3.9-8.2-6.4
	C251.7,24.2,253.8,22.4,256.9,21z M306.3,25.7c0-2.8-10.1-5-22.5-5c-12.4,0-22.5,2.3-22.5,5c0,2.8,10.1,5,22.5,5
	C296.3,30.8,306.3,28.5,306.3,25.7z"/>
<path fill="#FFFFFF" stroke="#000000" d="M421.5,29.3v0.3c0,2.1-1.7,3.8-3.8,3.8c0,0-68.7,1-110.9-0.3l-0.1-0.2
	c5.398-1.7,8.7-4,8.7-6.5c0-2.1-2.4-4.1-6.4-5.7l0.1-0.3c28.5,0.9,27.102,1.1,108.7,5C419.8,25.5,421.5,27.2,421.5,29.3z"/>
<path fill="#FFFFFF" stroke="#000000" d="M283.8,20.7c12.4,0,22.5,2.3,22.5,5c0,2.8-10.1,5-22.5,5c-12.4,0-22.5-2.3-22.5-5
	C261.3,22.9,271.4,20.7,283.8,20.7z"/>
<path fill="#FFFFFF" stroke="#000000" d="M469.3,710.5c0,0,0.602,15-0.8,16c0,0-2.5-2.5-3.5-4.5s-0.6-7.4,0.8-8.8
	C467.2,711.8,469.3,710.5,469.3,710.5z"/>
<path fill="#FFFFFF" stroke="#000000" d="M467.8,744.3c1,15.5-12.3,21.5-12.3,21.5l-1.8-5.8c6-3.3,8.8-14.5,8.8-14.5L467.8,744.3z"
	/>
<path fill="#FFFFFF" stroke="#000000" d="M101.5,534v56c0,1.4-1.1,2.5-2.5,2.5c-0.7,0-1.3-0.3-1.8-0.7c-0.5-0.398-0.7-1.1-0.7-1.8
	v-56c0-1.4,1.1-2.5,2.5-2.5c0.7,0,1.3,0.3,1.8,0.7C101.2,532.7,101.5,533.3,101.5,534z"/>
<path fill="#FFFFFF" stroke="#000000" d="M105.3,591.3c0,0,0.3,6.5-4,4h-0.1c-0.2-1.398-2.1-2.8-2.1-2.8c1.4,0,2.5-1.1,2.5-2.5v-56
	c0-0.7-0.3-1.3-0.7-1.8c-0.5-0.5-1.1-0.7-1.8-0.7c0,0,1.5-1.8,1.4-4.2c0,0,3.6-0.8,4.6,6.4S105.3,591.3,105.3,591.3z"/>
<path fill="#FFFFFF" stroke="#000000" d="M105.5,701.5v-71c0-1.1-0.5-2.1-1.2-2.8c-0.7-0.7-1.7-1.2-2.8-1.2c-0.8,0-1.5-0.1-2.1-0.1
	c0.1-0.5,0.3-1.4,1.3-2.4c0,0,7.6-1.5,7.8,6.3s-0.5,72.3-0.5,72.3s1,7.802-7.3,6.5l-0.8-3v-0.5c0.4,0,0.8,0,1.2,0c0.1,0,0.1,0,0.2,0
	C103.7,705.5,105.5,703.7,105.5,701.5z"/>
<path fill="#FFFFFF" stroke="#000000" d="M99.4,626.4c0.6,0,1.3,0.1,2.1,0.1c1.1,0,2.1,0.5,2.8,1.2c0.7,0.7,1.2,1.7,1.2,2.8v71
	c0,2.2-1.8,4-4,4c-0.1,0-0.1,0-0.2,0c-0.5,0-0.9,0-1.2,0c-1.2-0.1-1.7-0.5-1.7-2.1L97.7,628C97.7,626.6,98.3,626.4,99.4,626.4z"/>
<path fill="#FFFFFF" stroke="#000000" d="M427.5,787.8c-0.4,6-5.4,10.7-11.5,10.7H161c-6.3,0-11.4-5.1-11.5-11.3c0,0,0-0.102,0-0.2
	c1.1-3.4,3.7-5,5.9-5c0.2,0,0.4,0,0.6,0l265,1.3c6.3,0,6.5,3.7,6.5,3.7C427.5,787.3,427.5,787.5,427.5,787.8z"/>
<circle fill="#FFFFFF" stroke="#000000" cx="252.5" cy="727.5" r="6.5"/>
<circle fill="#FFFFFF" stroke="#000000" cx="285.5" cy="728.5" r="6.5"/>
<circle fill="#FFFFFF" stroke="#000000" cx="317.5" cy="728.5" r="6.5"/>
<circle fill="#FFFFFF" stroke="#000000" cx="349.5" cy="720.5" r="6.5"/>
<circle fill="#FFFFFF" stroke="#000000" cx="344.5" cy="696.5" r="6.5"/>
<circle fill="#FFFFFF" stroke="#000000" cx="313.5" cy="703.5" r="6.5"/>
<circle fill="#FFFFFF" stroke="#000000" cx="283.5" cy="704.5" r="6.5"/>
<circle fill="#FFFFFF" stroke="#000000" cx="258.5" cy="702.5" r="6.5"/>
<circle fill="#FFFFFF" stroke="#000000" cx="230.5" cy="695.5" r="6.5"/>
<circle fill="#FFFFFF" stroke="#000000" cx="220.5" cy="717.5" r="6.5"/>
<path id="www.ABC-color.com" fill="#FFFFFF" stroke="#000000" d="M426.7,343.6L427,664c0,44.2-59.8,91-104,91l-94-2
	c-44.2,0-80-56.8-80-101l-2-311h0.3c0,0,6.4-54.6,73.9-77.9c17,15.5,39.5,24.9,64.3,24.9c25.3,0,48.3-9.9,65.4-26
	C385.3,272.7,420.3,295.5,426.7,343.6z M356,720.5c0-3.6-2.9-6.5-6.5-6.5s-6.5,2.9-6.5,6.5s2.9,6.5,6.5,6.5S356,724.1,356,720.5z
	 M351,696.5c0-3.6-2.9-6.5-6.5-6.5s-6.5,2.9-6.5,6.5s2.9,6.5,6.5,6.5S351,700.1,351,696.5z M324,728.5c0-3.6-2.9-6.5-6.5-6.5
	s-6.5,2.9-6.5,6.5s2.9,6.5,6.5,6.5S324,732.1,324,728.5z M320,703.5c0-3.6-2.9-6.5-6.5-6.5s-6.5,2.9-6.5,6.5s2.9,6.5,6.5,6.5
	S320,707.1,320,703.5z M292,728.5c0-3.6-2.9-6.5-6.5-6.5c-3.6,0-6.5,2.9-6.5,6.5s2.9,6.5,6.5,6.5C289.1,735,292,732.1,292,728.5z
	 M290,704.5c0-3.6-2.9-6.5-6.5-6.5c-3.6,0-6.5,2.9-6.5,6.5s2.9,6.5,6.5,6.5C287.1,711,290,708.1,290,704.5z M265,702.5
	c0-3.6-2.9-6.5-6.5-6.5s-6.5,2.9-6.5,6.5s2.9,6.5,6.5,6.5S265,706.1,265,702.5z M259,727.5c0-3.6-2.9-6.5-6.5-6.5s-6.5,2.9-6.5,6.5
	s2.9,6.5,6.5,6.5S259,731.1,259,727.5z M237,695.5c0-3.6-2.9-6.5-6.5-6.5s-6.5,2.9-6.5,6.5s2.9,6.5,6.5,6.5S237,699.1,237,695.5z
	 M227,717.5c0-3.6-2.9-6.5-6.5-6.5s-6.5,2.9-6.5,6.5s2.9,6.5,6.5,6.5S227,721.1,227,717.5z"/>
<path fill="#FFFFFF" stroke="#000000" d="M426.5,180.5l0.2,163.1c-6.4-48.1-41.4-70.9-75.7-81.6c10.9-10.2,19.3-22.9,24.5-37.3v-0.3
	h27.1c5.5,0,10-4.5,10-10v-46c0-5.5-4.5-10-10-10h-27.8v-0.3C360.9,122.4,326.2,97,285.5,97c-52.7,0-95.5,42.8-95.5,95.5
	c0,28,12,53.1,31.2,70.6c-67.5,23.3-73.9,77.9-73.9,77.9H147l-1-159c21.5-93.5,89.9-89.5,134-92.5h5C329.2,89.5,412,95,426.5,180.5z
	"/>
<path fill="#FFFFFF" stroke="#000000" d="M350.9,262c-17.102,16.1-40.102,26-65.4,26c-24.8,0-47.3-9.4-64.3-24.9
	c15.7-5.4,34.8-9.2,57.8-10.1C279,253,314.6,250.8,350.9,262z"/>
<path id="ABC-color.com" fill="#FFFFFF" stroke="#000000" d="M375.4,224.5v0.3c-5.102,14.3-13.602,27-24.5,37.3
	c-36.4-11.3-71.9-9-71.9-9c-23,0.9-42.1,4.7-57.8,10.1C202,245.6,190,220.5,190,192.5c0-52.7,42.8-95.5,95.5-95.5
	c40.7,0,75.4,25.4,89.2,61.2v0.3h-20.2l-29.2-15.3c0,0-10.898-5.7-17.8-5.7h-48c-16.6,0-30,13.4-30,30v47c0,16.6,13.4,30,30,30h48
	c6.2,0,16.8-5,16.8-5l28.8-14.7l0.102-0.4c0.398,0.1,0.8,0.1,1.3,0.1H375.4z"/>
<path fill="#FFFFFF" stroke="#000000" d="M365.9,203.3c-2.5,0-4.4-1.8-4.4-4.1v-19.6c0-2.3,2-4.1,4.4-4.1H390c2.5,0,4.4,1.8,4.4,4.1
	v19.6c0,2.3-2,4.1-4.4,4.1H365.9z"/>
<path fill="#FFFFFF" stroke="#000000" d="M365.9,175.5c-2.5,0-4.4,1.8-4.4,4.1v19.6c0,2.3,2,4.1,4.4,4.1H390c2.5,0,4.4-1.8,4.4-4.1
	v-19.6c0-2.3-2-4.1-4.4-4.1H365.9z M356.3,179.5l11.7-12h19.6l13.2,11.5l-0.3,21.5L388,212h-19.8L356,199.5L356.3,179.5z"/>
<path fill="#FFFFFF" stroke="#000000" d="M368,167.5l-11.7,12l-0.3,20l12.3,12.5H388l12.5-11.5l0.3-21.5l-13.2-11.5H368z
	 M403.5,169.5v41c0,2.8-2.2,5-5,5h-41c-2.8,0-5-2.2-5-5v-41c0-2.8,2.2-5,5-5h41C401.3,164.5,403.5,166.7,403.5,169.5z"/>
<path fill="#FFFFFF" stroke="#000000" d="M412.5,168.5v46c0,5.5-4.5,10-10,10h-27.1h-20.9c-0.4,0-0.9,0-1.3-0.1
	c-4.9-0.6-8.7-4.8-8.7-9.9v-46c0-5.5,4.5-10,10-10h20.2h27.8C408,158.5,412.5,163,412.5,168.5z M403.5,210.5v-41c0-2.8-2.2-5-5-5
	h-41c-2.8,0-5,2.2-5,5v41c0,2.8,2.2,5,5,5h41C401.3,215.5,403.5,213.3,403.5,210.5z"/>
<path fill="#FFFFFF" stroke="#000000" d="M472.5,70.1v666.8c0,27.1-18.9,49.698-45,50.898c0-0.3,0-0.5,0-0.8c0,0-0.2-3.7-6.5-3.7
	L156,782c-0.2,0-0.4,0-0.6,0c-2.2,0-4.8,1.7-5.9,5c0,0,0,0.1,0,0.2c-27.1-0.2-49-22.4-49-50.3l0.3-27.9c8.3,1.3,7.3-6.5,7.3-6.5
	s0.8-64.5,0.5-72.3c-0.3-7.8-7.8-6.3-7.8-6.3l0.3-28c0.1-0.302,0.1-0.5,0.1-0.7h0.1c4.3,2.5,4-4,4-4s0.8-50.3-0.3-57.5
	s-4.6-6.4-4.6-6.4l-0.1-232l0.1-0.1l0.5,1.4c4.7,8,7.3-8.7,7.3-8.7s0.3-85.7,0-95.3c-0.3-9.7-5.3-10.3-7.3-10.3l-0.5-112.2
	c0-27.9,22.1-50.6,49.3-50.6c0,0,101.4-5,135.2-5c34.6,0,138.198,5,138.198,5C450.4,19.5,472.5,42.1,472.5,70.1z M468.5,726.5
	c1.3-1,0.8-16,0.8-16s-2.2,1.4-3.5,2.8c-1.3,1.4-1.8,6.7-0.8,8.7S468.5,726.5,468.5,726.5z M455.5,765.8c0,0,13.3-6,12.3-21.5
	l-5.3,1.3c0,0-2.8,11.2-8.8,14.5L455.5,765.8z M454.5,722.5v-633c0-27.6-22.4-50-50-50h-232c-27.6,0-50,22.4-50,50v633
	c0,27.6,22.4,50,50,50h232C432.1,772.5,454.5,750.1,454.5,722.5z M421.5,29.7v-0.3c0-2.1-1.7-3.8-3.8-3.8
	c-81.602-3.9-80.2-4.1-108.7-5l-0.1,0.3c-5.801-2.3-15-3.8-25.4-3.8c-7.2,0-19.6,1-26.6,4c-43.2,1.3-106.6,4.5-106.6,4.5
	c-2.1,0-3.8,1.7-3.8,3.8v0.3c0,2.1,1.7,3.8,3.8,3.8c0,0,66.1,1,109.4-0.3l0.1-0.4c5.8,1.9,14.3,3.1,23.6,3.1c9.1,0,17.4-1.1,23.2-3
	l0.102,0.2c42.2,1.3,110.898,0.3,110.898,0.3C419.8,33.5,421.5,31.8,421.5,29.7z"/>
<path fill="#FFFFFF" stroke="#000000" d="M426.7,343.6l-0.2-163.1C412,95,329.2,89.5,285,89.5h-5c-44.1,3-112.5-1-134,92.5l1,159
	l2,311c0,44.2,35.8,101,80,101l94,2c44.2,0,104-46.8,104-91L426.7,343.6z M454.5,89.5v633c0,27.6-22.4,50-50,50h-232
	c-27.6,0-50-22.4-50-50v-633c0-27.6,22.4-50,50-50h232C432.1,39.5,454.5,61.9,454.5,89.5z"/>
<path fill="#FFFFFF" stroke="#000000" d="M325.3,143.2l29.2,15.3c-5.5,0-10,4.5-10,10v46c0,5.1,3.8,9.3,8.7,9.9l-0.102,0.4
	l-28.8,14.7c0,0-10.6,5-16.8,5h-48c-16.6,0-30-13.4-30-30v-47c0-16.6,13.4-30,30-30h48C314.5,137.5,325.3,143.2,325.3,143.2z
	 M326.5,210.5v-38c0-13.3-10.8-24-24-24h-38c-13.3,0-24,10.8-24,24v38c0,13.3,10.8,24,24,24h38C315.8,234.5,326.5,223.8,326.5,210.5
	z"/>
<path fill="#FFFFFF" stroke="#000000" d="M326.5,172.5v38c0,13.3-10.8,24-24,24h-38c-13.3,0-24-10.8-24-24v-38c0-13.3,10.8-24,24-24
	h38C315.8,148.5,326.5,159.3,326.5,172.5z M315,193c0-16-13-29-29-29s-29,13-29,29s13,29,29,29S315,209,315,193z"/>
<path fill="#FFFFFF" stroke="#000000" d="M286,164c16,0,29,13,29,29s-13,29-29,29s-29-13-29-29S270,164,286,164z M309.2,193
	c0-12.8-10.4-23.2-23.2-23.2s-23.2,10.4-23.2,23.2s10.4,23.2,23.2,23.2S309.2,205.8,309.2,193z"/>
<path fill="#FFFFFF" stroke="#000000" d="M286,169.8c12.8,0,23.2,10.4,23.2,23.2s-10.4,23.2-23.2,23.2s-23.2-10.4-23.2-23.2
	S273.2,169.8,286,169.8z"/>
<path fill="#FFFFFF" stroke="#000000" d="M108.3,192.7c0.3,9.7,0,95.3,0,95.3s-2.7,16.7-7.3,8.7l-0.5-1.4l-3.6-9.6
	c0.2,0.3,0.4,0.6,0.6,0.8c0.6,0.6,1.5,1,2.5,1c1.9,0,3.7,0.4,3.7-1.5l-0.3-94.7c0-0.9-0.3-1.1-0.8-1.1c-0.6,0-1.5,0.3-2.5,0.3
	c-0.6,0-1.2,0.1-1.7,0.4c0.1-0.9,0.8-8.6,2.7-8.6S108,183,108.3,192.7z"/>
<path fill="#FFFFFF" stroke="#000000" d="M98.3,190.9c0.5-0.3,1.1-0.4,1.7-0.4c1,0,1.9-0.3,2.5-0.3c0.5,0,0.8,0.2,0.8,1.1l0.3,94.7
	c0,1.9-1.7,1.5-3.7,1.5c-1,0-1.8-0.4-2.5-1c-0.2-0.2-0.4-0.5-0.6-0.8v-0.1c-0.3-0.5-0.4-1-0.4-1.6v-90
	C96.5,192.7,97.2,191.5,98.3,190.9z"/>
<circle fill="none" stroke="#000000" stroke-miterlimit="10" cx="286" cy="193" r="13.9"/>
<circle fill="none" stroke="#000000" stroke-miterlimit="10" cx="286" cy="193" r="9.7"/>
<path fill="none" stroke="#000000" stroke-miterlimit="10" d="M109,286.5l72-2"/>
<line fill="none" stroke="#000000" stroke-miterlimit="10" x1="393" y1="284.5" x2="472.5" y2="282.5"/>
<line fill="none" stroke="#000000" stroke-width="0.5" stroke-linecap="round" stroke-miterlimit="10" stroke-dasharray="5,5" x1="189.3" y1="786" x2="399" y2="786.8"/>
<line fill="none" stroke="#000000" stroke-width="0.5" stroke-linecap="round" stroke-miterlimit="10" stroke-dasharray="5,5" x1="194.5" y1="790.8" x2="389.5" y2="791.8"/>
<line fill="none" stroke="#000000" stroke-width="0.5" stroke-miterlimit="10" stroke-dasharray="5,5" x1="151" y1="27.8" x2="247.8" y2="24.3"/>
<line fill="none" stroke="#000000" stroke-width="0.5" stroke-miterlimit="10" stroke-dasharray="5,5" x1="317.3" y1="24.3" x2="416.5" y2="28"/>
<line fill="none" stroke="#000000" stroke-width="0.5" stroke-miterlimit="10" stroke-dasharray="5,5" x1="321.8" y1="29.3" x2="407.3" y2="30"/>
<line fill="none" stroke="#000000" stroke-miterlimit="10" stroke-dasharray="5,5" x1="156" y1="30.5" x2="243" y2="30.5"/>
<path fill="none" d="M231.7,247.3c-14.3-13.9-23.2-33.3-23.2-54.8c0-42.2,34.2-76.4,76.4-76.4c26.1,0,49.1,13.1,62.898,33"/>
</svg>
