<?xml version="1.0" encoding="utf-8"?>
<!-- Generator: Adobe Illustrator 15.0.0, SVG Export Plug-In . SVG Version: 6.00 Build 0)  -->
<!DOCTYPE svg PUBLIC "-//W3C//DTD SVG 1.1//EN" "http://www.w3.org/Graphics/SVG/1.1/DTD/svg11.dtd">
<svg version="1.1" id="layer_x5F_www.ABC-color.com"
	 xmlns="http://www.w3.org/2000/svg" xmlns:xlink="http://www.w3.org/1999/xlink" x="0px" y="0px" width="822px" height="567px"
	 viewBox="0 0 822 567" enable-background="new 0 0 822 567" xml:space="preserve">
<polyline fill="#FFFFFF" points="0,0 822,0 822,567 "/>
<path fill="#FFFFFF" stroke="#000000" stroke-width="2" d="M491,485v5c0,8.3-6.7,15-15,15H346c-8.3,0-15-6.7-15-15v-5
	c0-8.3,6.7-15,15-15h130C484.3,470,491,476.7,491,485z"/>
<path fill="#FFFFFF" stroke="#000000" stroke-width="2" d="M651,418l3,93l-500,3l-3-89l174-3c0,0,79,79,178-2L651,418z M491,490v-5
	c0-8.3-6.7-15-15-15H346c-8.3,0-15,6.7-15,15v5c0,8.3,6.7,15,15,15h130C484.3,505,491,498.3,491,490z"/>
<path fill="#FFFFFF" stroke="#000000" stroke-width="2" d="M398.6,210.1c9.102,0,16.602,7.4,16.602,16.6c0,9.2-7.4,16.6-16.602,16.6
	c-9.198,0-16.6-7.4-16.6-16.6C382.1,217.5,389.5,210.1,398.6,210.1z"/>
<path fill="#FFFFFF" stroke="#000000" stroke-width="2" d="M438.7,212.1c9.1,0,16.6,7.4,16.6,16.6c0,9.2-7.398,16.6-16.6,16.6
	s-16.602-7.4-16.602-16.6C422.1,219.5,429.5,212.1,438.7,212.1z"/>
<path fill="#FFFFFF" stroke="#000000" stroke-width="2" d="M475.7,237.1c9.1,0,16.6,7.4,16.6,16.6c0,9.2-7.398,16.6-16.6,16.6
	s-16.602-7.4-16.602-16.6C459.1,244.5,466.5,237.1,475.7,237.1z"/>
<path fill="#FFFFFF" stroke="#000000" stroke-width="2" d="M471,350c8-1,35.2,25,35.2,25c19.2,37-12.8,16.4-12.8,16.4
	S463,351,471,350z"/>
<path fill="#FFFFFF" stroke="#000000" stroke-width="2" d="M470,316.5c0,29.5-24.6,53.5-55,53.5s-55-24-55-53.5s24.6-53.5,55-53.5
	S470,287,470,316.5z"/>
<path id="ABC-color.com" fill="#FFFFFF" stroke="#000000" stroke-width="2" d="M524,314c0,22.5-6.5,43.4-17.8,61
	c0,0-27.2-26-35.2-25s22.4,41.4,22.4,41.4C472.8,413.3,443.5,427,411,427c-62.4,0-113-50.6-113-113c0-62.4,50.6-113,113-113
	S524,251.6,524,314z M492.2,253.7c0-9.1-7.4-16.6-16.602-16.6c-9.198,0-16.6,7.4-16.6,16.6c0,9.2,7.4,16.6,16.6,16.6
	C484.8,270.3,492.2,262.8,492.2,253.7z M473.4,389.3c0-9.2-7.4-16.6-16.602-16.6c-9.1,0-16.6,7.399-16.6,16.6
	c0,9.201,7.4,16.601,16.601,16.601S473.4,398.5,473.4,389.3z M415,370c30.4,0,55-24,55-53.5S445.4,263,415,263s-55,24-55,53.5
	S384.6,370,415,370z M455.2,228.7c0-9.1-7.4-16.6-16.602-16.6c-9.198,0-16.6,7.4-16.6,16.6c0,9.2,7.4,16.6,16.6,16.6
	C447.8,245.3,455.2,237.8,455.2,228.7z M429,400.1c0-9.199-7.4-16.6-16.6-16.6c-9.2,0-16.602,7.4-16.602,16.6
	c0,9.2,7.4,16.602,16.602,16.602C421.5,416.7,429,409.3,429,400.1z M415.2,226.7c0-9.1-7.4-16.6-16.602-16.6
	c-9.198,0-16.6,7.4-16.6,16.6c0,9.2,7.4,16.6,16.6,16.6C407.8,243.3,415.2,235.8,415.2,226.7z M387.4,387.5
	c0-9.2-7.4-16.6-16.602-16.6s-16.6,7.398-16.6,16.6c0,9.1,7.398,16.6,16.6,16.6S387.4,396.7,387.4,387.5z M376.3,244.9
	c0-9.2-7.398-16.6-16.6-16.6s-16.602,7.4-16.602,16.6c0,9.1,7.4,16.6,16.602,16.6S376.3,254,376.3,244.9z M352.8,359.7
	c0-9.2-7.398-16.601-16.6-16.601S319.6,350.5,319.6,359.7s7.4,16.6,16.602,16.6S352.8,368.8,352.8,359.7z M350.2,277.6
	c0-9.2-7.4-16.6-16.602-16.6c-9.198,0-16.6,7.4-16.6,16.6c0,9.2,7.4,16.6,16.6,16.6C342.8,294.2,350.2,286.7,350.2,277.6z
	 M340.9,319.7c0-9.101-7.4-16.601-16.602-16.601s-16.6,7.399-16.6,16.601c0,9.2,7.398,16.6,16.6,16.6S340.9,328.9,340.9,319.7z"/>
<path fill="#FFFFFF" stroke="#000000" stroke-width="2" d="M456.8,372.8c9.2,0,16.602,7.4,16.602,16.601
	c0,9.199-7.4,16.601-16.602,16.601c-9.1,0-16.6-7.4-16.6-16.601S447.7,372.8,456.8,372.8z"/>
<path fill="#FFFFFF" stroke="#000000" stroke-width="2" d="M412.4,383.5c9.1,0,16.6,7.4,16.6,16.6c0,9.2-7.4,16.602-16.6,16.602
	c-9.2,0-16.602-7.4-16.602-16.602C395.8,391,403.3,383.5,412.4,383.5z"/>
<path fill="#FFFFFF" stroke="#000000" stroke-width="2" d="M370.9,371c9.1,0,16.6,7.4,16.6,16.6c0,9.102-7.4,16.602-16.6,16.602
	c-9.2,0-16.602-7.4-16.602-16.602C354.3,378.4,361.7,371,370.9,371z"/>
<path fill="#FFFFFF" stroke="#000000" stroke-width="2" d="M336.2,343.1c9.1,0,16.6,7.4,16.6,16.602s-7.398,16.6-16.6,16.6
	S319.6,368.9,319.6,359.7S327,343.1,336.2,343.1z"/>
<path fill="#FFFFFF" stroke="#000000" stroke-width="2" d="M324.4,303.2c9.1,0,16.6,7.399,16.6,16.6c0,9.201-7.4,16.601-16.6,16.601
	c-9.2,0-16.602-7.399-16.602-16.601C307.799,310.6,315.2,303.2,324.4,303.2z"/>
<path fill="#FFFFFF" stroke="#000000" stroke-width="2" d="M333.6,261c9.102,0,16.602,7.4,16.602,16.6c0,9.2-7.4,16.6-16.602,16.6
	c-9.198,0-16.6-7.4-16.6-16.6C317,268.4,324.5,261,333.6,261z"/>
<path fill="#FFFFFF" stroke="#000000" stroke-width="2" d="M359.7,228.3c9.1,0,16.6,7.4,16.6,16.6c0,9.1-7.398,16.6-16.6,16.6
	s-16.602-7.4-16.602-16.6C343.1,235.7,350.5,228.3,359.7,228.3z"/>
<path fill="#FFFFFF" stroke="#000000" stroke-width="2" d="M776,211.5v19c0,8.3-7.3,15.5-17,15.5H597c-9.7,0-18-7.2-18-15.5v-19
	c0-6.8,5.7-12.3,13.1-14c1.602-0.4,3.2-0.5,4.9-0.5h162c2.4,0,4.7,0.4,6.7,1.1C771.9,200.2,776,205.3,776,211.5z"/>
<path id="www.ABC-color.com" fill="#FFFFFF" stroke="#000000" stroke-width="2" d="M278.2,154.1L276,100c0,0,12-23,32-5l12,58
	c0,0,14,32,85,32c0,0,90-3,94-33l15-61c0,0,20-19,26,10l-2.2,51l-0.8,18l27,89l87,159l-148,2c-99,81-178,2-178,2l-174,3l102-176
	l26-76L278.2,154.1z M506.2,375c11.3-17.6,17.8-38.5,17.8-61c0-62.4-50.6-113-113-113s-113,50.6-113,113c0,62.4,50.6,113,113,113
	c32.5,0,61.8-13.7,82.4-35.6C493.4,391.4,525.3,411.9,506.2,375z"/>
<path fill="#FFFFFF" stroke="#000000" stroke-width="2" d="M222,197c6.5,2,11,7.2,11,13.5v19c0,8.3-7.6,15.5-17.5,15.5h-167
	c-10,0-18.5-7.2-18.5-15.5v-19c0-5.4,3.6-9.9,8.8-12.4c2.9-1.4,6.2-2.1,9.7-2.1h167C217.8,196,220,196.3,222,197z"/>
<path fill="#FFFFFF" stroke="#000000" stroke-width="2" d="M768,165v33l-2.3,0.1c-2-0.7-4.3-1.1-6.7-1.1H597c-1.7,0-3.3,0.2-4.9,0.5
	L592,197c-4-30-53-45-53-45h-1.2l2.2-51c-6-29-26-10-26-10l-15,61l-179,1l-12-58c-20-18-32,5-32,5l2.2,54.1
	c-51.2,10-55.8,37.2-56.2,42.8c-2-0.6-4.2-1-6.5-1h-167c-3.5,0-6.9,0.8-9.7,2.1l-0.1-0.1l3-32.8c0-44,17.4-73.9,45.2-92.7
	C114.8,53.8,153.1,46,195.2,46h422.7C701.9,46,768,76.9,768,165z"/>
<text transform="matrix(1 0 0 1 469.5 263)" font-family="'Arial-BoldMT'" font-size="24">1</text>
<text transform="matrix(1 0 0 1 433 236.5)" font-family="'Arial-BoldMT'" font-size="24">2</text>
<text transform="matrix(1 0 0 1 392.5 233.5)" font-family="'Arial-BoldMT'" font-size="24">3</text>
<text transform="matrix(1 0 0 1 351 252)" font-family="'Arial-BoldMT'" font-size="24">4</text>
<text transform="matrix(1 0 0 1 326.5 286)" font-family="'Arial-BoldMT'" font-size="24">5</text>
<text transform="matrix(1 0 0 1 316 328.5)" font-family="'Arial-BoldMT'" font-size="24">6</text>
<text transform="matrix(1 0 0 1 331 368.5)" font-family="'Arial-BoldMT'" font-size="24">7</text>
<text transform="matrix(1 0 0 1 364.5 396.5)" font-family="'Arial-BoldMT'" font-size="24">8</text>
<text transform="matrix(1 0 0 1 407 408)" font-family="'Arial-BoldMT'" font-size="24">9</text>
<text transform="matrix(1 0 0 1 450.5 399)" font-family="'Arial-BoldMT'" font-size="24">0</text>
</svg>
