<?xml version="1.0" encoding="utf-8"?>
<!-- Generator: Adobe Illustrator 15.0.0, SVG Export Plug-In . SVG Version: 6.00 Build 0)  -->
<!DOCTYPE svg PUBLIC "-//W3C//DTD SVG 1.1//EN" "http://www.w3.org/Graphics/SVG/1.1/DTD/svg11.dtd">
<svg version="1.1" id="www.ABC-color.com" xmlns="http://www.w3.org/2000/svg" xmlns:xlink="http://www.w3.org/1999/xlink" x="0px"
	 y="0px" width="567px" height="822px" viewBox="0 0 567 822" enable-background="new 0 0 567 822" xml:space="preserve">
<polyline fill="#FFFFFF" points="0,0 567,0 567,822 "/>
<rect x="364.5" y="518.5" fill="#FFFFFF" stroke="#000000" stroke-miterlimit="10" width="8" height="12"/>
<rect x="333.5" y="489.5" fill="#FFFFFF" stroke="#000000" stroke-miterlimit="10" width="13" height="29"/>
<rect x="295.5" y="508.5" fill="#FFFFFF" stroke="#000000" stroke-miterlimit="10" width="15" height="22"/>
<rect x="310.5" y="466.5" fill="#FFFFFF" stroke="#000000" stroke-miterlimit="10" width="11" height="19"/>
<rect x="333.5" y="411.5" fill="#FFFFFF" stroke="#000000" stroke-miterlimit="10" width="25" height="30"/>
<rect x="276.5" y="441.5" fill="#FFFFFF" stroke="#000000" stroke-miterlimit="10" width="19" height="25"/>
<rect x="238.5" y="448.5" fill="#FFFFFF" stroke="#000000" stroke-miterlimit="10" width="11" height="22"/>
<rect x="261.5" y="494.5" fill="#FFFFFF" stroke="#000000" stroke-miterlimit="10" width="22" height="28"/>
<rect id="layer_x5F_www.ABC-color.com" x="189.5" y="518.5" fill="#FFFFFF" stroke="#000000" stroke-miterlimit="10" width="14" height="23"/>
<rect x="165.5" y="453.5" fill="#FFFFFF" stroke="#000000" stroke-miterlimit="10" width="24" height="25"/>
<rect x="215.5" y="416.5" fill="#FFFFFF" stroke="#000000" stroke-miterlimit="10" width="15" height="16"/>
<rect x="222.5" y="489.5" fill="#FFFFFF" stroke="#000000" stroke-miterlimit="10" width="16" height="29"/>
<rect x="249.5" y="541.5" fill="#FFFFFF" stroke="#000000" stroke-miterlimit="10" width="12" height="15"/>
<rect x="244.5" y="568.5" fill="#FFFFFF" stroke="#000000" stroke-miterlimit="10" width="10" height="15"/>
<rect x="254.5" y="598.5" fill="#FFFFFF" stroke="#000000" stroke-miterlimit="10" width="7" height="10"/>
<rect x="295.5" y="541.5" fill="#FFFFFF" stroke="#000000" stroke-miterlimit="10" width="15" height="27"/>
<rect x="325.5" y="549.5" fill="#FFFFFF" stroke="#000000" stroke-miterlimit="10" width="14" height="14"/>
<rect x="358.5" y="556.5" fill="#FFFFFF" stroke="#000000" stroke-miterlimit="10" width="10" height="20"/>
<rect x="339.5" y="588.5" fill="#FFFFFF" stroke="#000000" stroke-miterlimit="10" width="12" height="20"/>
<rect x="386.5" y="612.5" fill="#FFFFFF" stroke="#000000" stroke-miterlimit="10" width="11" height="20"/>
<rect x="358.5" y="632.5" fill="#FFFFFF" stroke="#000000" stroke-miterlimit="10" width="10" height="24"/>
<rect x="310.5" y="608.5" fill="#FFFFFF" stroke="#000000" stroke-miterlimit="10" width="15" height="24"/>
<rect x="283.5" y="598.5" fill="#FFFFFF" stroke="#000000" stroke-miterlimit="10" width="13" height="27"/>
<rect x="293.5" y="644.5" fill="#FFFFFF" stroke="#000000" stroke-miterlimit="10" width="5" height="12"/>
<rect x="330.5" y="656.5" fill="#FFFFFF" stroke="#000000" stroke-miterlimit="10" width="15" height="25"/>
<rect id="ABC-color.com" x="360.5" y="705.5" fill="#FFFFFF" stroke="#000000" stroke-miterlimit="10" width="17" height="20"/>
<path fill="#FFFFFF" stroke="#000000" stroke-miterlimit="10" d="M443,269.5L440.5,505L437,726.7c-2,17.3-19.9,38.398-72.5,47.7
	c54.699-19.5,59-46.4,59-46.4V305c0.199,0,0.3-0.1,0.5-0.2c9.899-4,12-19.9,12-19.9C439,284,443,269.5,443,269.5z"/>
<path fill="#FFFFFF" stroke="#000000" stroke-miterlimit="10" d="M353,778.6c-0.5,0.102-1.101,0.2-1.7,0.302V778.6
	c4.7-1.398,9.101-2.8,13.2-4.3C417.1,765,435,743.9,437,726.6l3.5-221.698l2.5-235.5l4-3.5l19.199-46.4l0.801-1.9l-14,509.1
	C438,774.4,375.4,775.2,353,778.6z"/>
<path fill="#FFFFFF" stroke="#000000" stroke-miterlimit="10" d="M287.7,202.6c3.6,7.4,11.198,12.5,19.999,12.5
	c12.2,0,22.2-9.9,22.2-22.2h0.699v10h-0.3c-2.5,5.7-7.2,10.3-12.899,12.7c-3,1.3-6.2,1.9-9.601,1.9c-8.699,0-16.3-4.5-20.699-11.3
	l-0.399-0.1C287,205,287.4,203.9,287.7,202.6z"/>
<path fill="#FFFFFF" stroke="#000000" stroke-miterlimit="10" d="M317.199,170.3c5.801,2.4,10.5,7.1,13,12.8h0.301v9.9h-0.7
	c0-12.2-9.899-22.2-22.2-22.2c-8.601,0-16.1,5-19.8,12.2c-0.3-1.2-0.7-2.4-1.1-3.6l0.5-0.2c4.399-6.6,11.899-10.9,20.398-10.9
	C311,168.4,314.3,169,317.199,170.3z"/>
<path fill="#FFFFFF" stroke="#000000" stroke-miterlimit="10" d="M307.6,175.3c-9.8,0-17.699,7.9-17.699,17.7
	s7.899,17.7,17.699,17.7c9.801,0,17.7-7.9,17.7-17.7C325.4,183.2,317.4,175.3,307.6,175.3z M289,192.5c0-3.3-0.4-6.5-1.2-9.5
	c3.7-7.2,11.101-12.2,19.8-12.2c12.2,0,22.2,9.9,22.2,22.2c0,12.2-9.899,22.2-22.2,22.2c-8.8,0-16.398-5.1-20-12.5
	C288.5,199.4,289,196,289,192.5z"/>
<path fill="#FFFFFF" stroke="#000000" stroke-miterlimit="10" d="M307.6,175.3c9.801,0,17.7,7.9,17.7,17.7s-7.899,17.7-17.7,17.7
	c-9.8,0-17.699-7.9-17.699-17.7S297.8,175.3,307.6,175.3z M321.8,193c0-7.8-6.3-14.2-14.2-14.2c-7.8,0-14.199,6.4-14.199,14.2
	s6.3,14.2,14.199,14.2C315.5,207.2,321.8,200.8,321.8,193z"/>
<path fill="#FFFFFF" stroke="#000000" stroke-miterlimit="10" d="M307.6,181.6c-6.3,0-11.3,5.1-11.3,11.4s5.101,11.3,11.3,11.3
	c6.301,0,11.301-5.1,11.301-11.3C319,186.7,313.9,181.6,307.6,181.6z M307.6,178.8c7.801,0,14.2,6.4,14.2,14.2s-6.3,14.2-14.2,14.2
	c-7.8,0-14.199-6.4-14.199-14.2C293.4,185.1,299.8,178.8,307.6,178.8z"/>
<path fill="#FFFFFF" stroke="#000000" stroke-miterlimit="10" d="M307.6,181.6c6.301,0,11.301,5.1,11.301,11.4
	s-5.101,11.3-11.301,11.3c-6.3,0-11.3-5.1-11.3-11.3C296.3,186.7,301.4,181.6,307.6,181.6z M316.699,193c0-5-4.101-9.1-9.101-9.1
	c-4.999,0-9.1,4.1-9.1,9.1s4.101,9.1,9.1,9.1C312.599,202.1,316.699,198,316.699,193z"/>
<path fill="#FFFFFF" stroke="#000000" stroke-miterlimit="10" d="M307.6,183.9c5,0,9.101,4.1,9.101,9.1s-4.101,9.1-9.101,9.1
	s-9.1-4.1-9.1-9.1S302.6,183.9,307.6,183.9z"/>
<circle fill="#FFFFFF" stroke="#000000" stroke-miterlimit="10" cx="249.5" cy="192.5" r="8.9"/>
<path fill="#FFFFFF" stroke="#000000" stroke-miterlimit="10" d="M249.5,174.8c9.8,0,17.7,7.9,17.7,17.7s-7.9,17.7-17.7,17.7
	s-17.7-7.9-17.7-17.7S239.7,174.8,249.5,174.8z M258.4,192.5c0-4.9-4-8.9-8.899-8.9c-4.9,0-8.9,4-8.9,8.9s4,8.9,8.9,8.9
	C254.4,201.4,258.4,197.4,258.4,192.5z"/>
<path fill="#FFFFFF" stroke="#000000" stroke-miterlimit="10" d="M249.5,167.2c14,0,25.3,11.3,25.3,25.3s-11.3,25.3-25.3,25.3
	s-25.3-11.3-25.3-25.3S235.5,167.2,249.5,167.2z M267.2,192.5c0-9.8-7.9-17.7-17.7-17.7s-17.7,7.9-17.7,17.7s7.9,17.7,17.7,17.7
	S267.2,202.3,267.2,192.5z"/>
<path fill="#FFFFFF" stroke="#000000" stroke-miterlimit="10" d="M249.5,160.9c17.5,0,31.6,14.1,31.6,31.6s-14.1,31.6-31.6,31.6
	s-31.6-14.1-31.6-31.6S232,160.9,249.5,160.9z M274.8,192.5c0-14-11.3-25.3-25.3-25.3s-25.3,11.3-25.3,25.3s11.3,25.3,25.3,25.3
	S274.8,206.5,274.8,192.5z"/>
<path fill="#FFFFFF" stroke="#000000" stroke-miterlimit="10" d="M287.8,183c0.8,3,1.2,6.2,1.2,9.5c0,3.5-0.5,6.9-1.3,10.1
	c-0.302,1.2-0.7,2.4-1.101,3.6c-5.601,15.1-20.101,25.8-37.101,25.8c-21.8,0-39.5-17.7-39.5-39.5s17.7-39.5,39.5-39.5
	c17.2,0,31.899,11,37.3,26.4C287.2,180.6,287.5,181.8,287.8,183z M281.1,192.5c0-17.5-14.1-31.6-31.6-31.6s-31.6,14.1-31.6,31.6
	s14.1,31.6,31.6,31.6S281.1,210,281.1,192.5z"/>
<path fill="#FFFFFF" stroke="#000000" stroke-miterlimit="10" d="M317.199,170.3c-3-1.3-6.199-2-9.601-2
	c-8.499,0-15.999,4.3-20.398,10.9l-0.5,0.2c-5.4-15.4-20-26.4-37.301-26.4c-21.8,0-39.5,17.7-39.5,39.5s17.7,39.5,39.5,39.5
	c17,0,31.5-10.7,37.101-25.8l0.398,0.1c4.4,6.8,12,11.3,20.7,11.3c3.4,0,6.7-0.7,9.601-1.9c-9.899,27.4-36.999,47.9-67.699,47.9
	c-39.3,0-71.101-31.8-71.101-71.1s31.801-71.1,71.101-71.1C280.6,121.4,307.6,142.5,317.199,170.3L317.199,170.3z"/>
<path fill="#FFFFFF" stroke="#000000" stroke-miterlimit="10" d="M330.5,203v27.2c0,28.9-22.4,52.3-50.601,52.3h-57.3
	c-28.2,0-51.1-23.4-51.1-52.3v-74.3c0-28.9,22.899-52.3,51.1-52.3h57.3c28.2,0,50.601,23.4,50.601,52.3v27.3h-0.301
	c-2.5-5.8-7.199-10.4-13-12.8l0,0c-9.699-27.8-36.6-48.9-67.699-48.9c-39.3,0-71.101,31.8-71.101,71.1
	c0,39.3,31.801,71.1,71.101,71.1c30.8,0,57.8-20.6,67.699-47.9c5.801-2.4,10.399-7,12.899-12.7h0.4L330.5,203L330.5,203z"/>
<path fill="#FFFFFF" stroke="#000000" stroke-miterlimit="10" d="M433.699,145.8c0.7,0.9,1.7,1.4,2.801,1.4c1.399,0,2.6-0.9,3.3-2.1
	c-0.899,2.1-3.7,9-3.3,15.9v25.8c0,0,1.8,5.7,3.6,11.5c-0.199-0.5-0.5-1-0.8-1.4c-0.7-0.9-1.7-1.4-2.8-1.4
	c-1.601,0-2.9,1.1-3.601,2.7c0.3-1.1-1.301-11.4-1.301-11.4v-32c1-6.5,1.101-10.8,1.101-10.8l0,0
	C433,144.7,433.3,145.3,433.699,145.8z"/>
<path fill="#FFFFFF" stroke="#000000" stroke-miterlimit="10" d="M436.5,121.5c-2.2,0-4,2.2-4,4.9v16c0,0.6,0.1,1.2,0.3,1.7l0,0
	c0,0-0.101,4.3-1.101,10.8v32c0,0,1.601,10.3,1.3,11.4c0,0,0,0,0,0.1c-0.3,0.6-0.399,1.4-0.399,2.1v16c0,1.4,0.5,2.6,1.2,3.5
	s1.7,1.4,2.8,1.4c-6.399,5.4-8.8-1.7-8.8-1.7l0.899-99.8c5.601-3.2,8.601-0.3,9.899,1.7c0.5,0.7,0.7,1.3,0.801,1.4
	C438.6,122,437.6,121.5,436.5,121.5z"/>
<path fill="#FFFFFF" stroke="#000000" stroke-miterlimit="10" d="M440.5,200.4v16c0,2.7-1.801,4.9-4,4.9
	c-1.101,0-2.101-0.5-2.801-1.4c-0.699-0.9-1.199-2.1-1.199-3.5v-16c0-0.8,0.1-1.5,0.399-2.1c0,0,0,0,0-0.1
	c0.699-1.6,2-2.7,3.601-2.7c1.1,0,2.1,0.5,2.8,1.4c0.3,0.4,0.601,0.9,0.8,1.4C440.4,198.9,440.5,199.6,440.5,200.4z"/>
<path fill="#FFFFFF" stroke="#000000" stroke-miterlimit="10" d="M440.5,126.4v16c0,0.8-0.101,1.5-0.4,2.1c0,0,0,0,0,0.1
	c-0.1,0.1-0.1,0.3-0.3,0.6l0,0c-0.7,1.3-1.899,2.1-3.3,2.1c-1.101,0-2.101-0.5-2.801-1.4c-0.399-0.5-0.699-1.1-0.899-1.7
	c-0.2-0.5-0.3-1.1-0.3-1.7v-16c0-2.7,1.8-4.9,4-4.9c1.1,0,2.1,0.5,2.8,1.4l0,0C440.1,123.8,440.5,125.1,440.5,126.4z"/>
<path fill="#FFFFFF" stroke="#000000" stroke-miterlimit="10" d="M450.199,36.8c1.801,4.6,2.899,13.9,2.899,13.9
	c-0.8-1.7-1.8-3-2.8-4c0,0-3.3-14.7-9.101-14.7c0,0-11.199,0-11.601,21.1c0,0-1.8,19.5,0.4,35.2c0.699,4.7,3.699,16.1,12.5,14.5
	c4.199-0.8,9.199-5.3,8.699-14.5l0,0c1-1.2,1.899-2.8,2.7-4.7l0.199,0.1c0,0,1.9,7-0.899,13.6l0,0c-2,4.6-6.199,9-14.8,11l0.3,13.2
	c-1.3-2-4.3-4.9-9.899-1.7l-0.899,99.8c0,0,2.399,7.1,8.8,1.7L436,285c0,0-2.2,15.9-12,19.9c-0.2,0.1-0.301,0.1-0.5,0.2l0,0
	l1.9-251.8C424.6,31.6,439.3,26.4,439.3,26.4C445.3,26.1,450.199,36.8,450.199,36.8z"/>
<path fill="#FFFFFF" stroke="#000000" stroke-miterlimit="10" d="M453.8,158.5c2,0,3.601,6.3,3.601,14.2
	c0,7.8-1.601,14.2-3.601,14.2s-3.601-6.3-3.601-14.2C450.199,164.8,451.8,158.5,453.8,158.5z"/>
<path fill="#FFFFFF" stroke="#000000" stroke-miterlimit="10" d="M462.3,142.8l3.899,76.8L447,266l-0.5-153.5
	c4.1-0.9,6.199-13.2,6.5-15.2l0,0c2.899-6.7,0.899-13.6,0.899-13.6l-0.2-0.1c1.2-2.9,2-6.5,2.399-10.5h0.301
	C456.5,73.2,462.8,135.3,462.3,142.8z M457.3,172.7c0-7.8-1.601-14.2-3.601-14.2s-3.601,6.3-3.601,14.2c0,7.8,1.601,14.2,3.601,14.2
	S457.3,180.5,457.3,172.7z"/>
<path fill="#FFFFFF" stroke="#000000" stroke-miterlimit="10" d="M453,97.3c-0.301,2-2.4,14.2-6.5,15.2L447,266l-4,3.5
	c0,0-4,14.5-7,15.5l0.5-63.8c2.199,0,4-2.2,4-4.9v-16c0-0.8-0.101-1.5-0.4-2.1c-1.8-5.8-3.6-11.5-3.6-11.5V161
	c-0.4-6.9,2.399-13.8,3.3-15.9l0,0c0.101-0.2,0.2-0.4,0.3-0.6v-0.1c0.301-0.6,0.399-1.4,0.399-2.1v-16c0-1.3-0.399-2.6-1.199-3.4
	l0,0c0-0.1-0.301-0.7-0.801-1.4l-0.3-13.2C446.9,106.4,451.1,101.9,453,97.3z"/>
<path fill="#FFFFFF" stroke="#000000" stroke-miterlimit="10" d="M446.1,60c1.5,0,2.601,3.7,2.601,8.3c0,4.6-1.199,8.3-2.601,8.3
	c-1.5,0-2.6-3.7-2.6-8.3C443.5,63.7,444.699,60,446.1,60z"/>
<path fill="#FFFFFF" stroke="#000000" stroke-miterlimit="10" d="M445.1,45.3c0.5-0.2,1-0.3,1.4-0.3c1.3,0,2.6,0.6,3.8,1.7
	c1,1,2,2.3,2.8,4c2.101,4.2,3.399,10.4,3.399,17.3c0,1.8-0.1,3.5-0.3,5.1c-0.399,4-1.2,7.6-2.399,10.5c-0.8,1.9-1.7,3.5-2.7,4.7l0,0
	c-1.399,1.7-3,2.7-4.699,2.7c-5.5,0-10-10.3-10-23C436.5,56.4,440.199,46.9,445.1,45.3z M448.8,68.3c0-4.6-1.2-8.3-2.601-8.3
	c-1.5,0-2.601,3.7-2.601,8.3c0,4.6,1.2,8.3,2.601,8.3C447.6,76.7,448.8,72.9,448.8,68.3z"/>
<path fill="#FFFFFF" stroke="#000000" stroke-miterlimit="10" d="M446.5,91l-4,0.5c-5.5,0-10.1-10.5-10.1-23.2c0-12,3.899-22,9-23.1
	h3.6c-4.801,1.6-8.601,11.2-8.601,22.8C436.5,80.7,441,91,446.5,91z"/>
<path fill="#FFFFFF" stroke="#000000" stroke-miterlimit="10" d="M451.199,88.3c0.5,9.2-4.5,13.7-8.699,14.5
	c-8.801,1.6-11.801-9.8-12.5-14.5c-2.2-15.7-0.4-35.2-0.4-35.2C430,32,441.2,32,441.2,32c5.8,0,9.1,14.7,9.1,14.7
	c-1.2-1.1-2.5-1.7-3.8-1.7c-0.5,0-1,0.1-1.4,0.3h-3.6c-5.101,1.1-9,11.1-9,23.1c0,12.7,4.5,23.2,10.1,23.2l4-0.5
	C448.199,91,449.8,90,451.199,88.3z"/>
<path fill="#FFFFFF" stroke="#000000" stroke-miterlimit="10" d="M425.4,53.2c0,0-1.399,0.2-3.101,0.1c-8-0.3-65.601-0.1-65.601-0.1
	L348,88.3c0,0,0-53.3,14-62.3c0.699-0.5,1.5-0.8,2.3-1l75,1.3C439.3,26.3,424.6,31.6,425.4,53.2z"/>
<path fill="#FFFFFF" stroke="#000000" stroke-miterlimit="10" d="M87.5,309.1c-0.101-0.1-0.2-0.3-0.2-0.4c0-1.3,1.8-221.5,2-248.3
	l0,0l64.2-2.4c0,0,3.8,22,7.8,33l0,0c0.2,1.5,0.4,2.3,0.4,2.3l186.3-5l8.8-35.1c0,0,57.601-0.2,65.601,0.1
	c1.699,0.1,3.101-0.1,3.101-0.1l-2,251.8l0,0c-0.9,0.3-1.801,0.5-2.801,0.6c0,0-60.699,6-61.3,7.7c0,0-32,7-53,24.7
	c0,0-10.699,3.7-39.3,1.7c-28.6-2-64.7-1-64.7-1s-32.5-15.3-34.3-15.4c0.4-0.1,1-0.3,1-0.3s-14.7-6.3-21.3-5l-53.3-5
	C94.3,313,88.6,310.5,87.5,309.1z M330.5,230.2V203v-10v-9.9v-27.3c0-28.9-22.4-52.3-50.601-52.3h-57.3c-28.2,0-51.1,23.4-51.1,52.3
	v74.3c0,28.9,22.899,52.3,51.1,52.3h57.3C308.1,282.5,330.5,259.1,330.5,230.2z"/>
<path fill="#FFFFFF" stroke="#000000" stroke-miterlimit="10" d="M423.5,305v423c0,0-4.301,26.8-59,46.4
	c-4.101,1.5-8.5,2.898-13.2,4.3v0.3c-56.6,8-215.3-8.9-215.3-8.9c-55-15-50-54.5-50-54.5L87.5,314v-4.9c1.1,1.5,6.8,3.9,6.8,3.9
	l53.3,5c6.7-1.3,21.3,5,21.3,5s-0.6,0.2-1,0.3c1.7,0.1,34.301,15.4,34.301,15.4s36-1,64.699,1c28.7,2,39.3-1.7,39.3-1.7
	c21-17.7,53-24.7,53-24.7c0.7-1.7,61.301-7.7,61.301-7.7C421.699,305.6,422.6,305.3,423.5,305L423.5,305z M397.5,632.5v-20h-11v20
	H397.5z M377.5,725.5v-20h-17v20H377.5z M372.5,530.5v-12h-8v12H372.5z M368.5,656.5v-24h-10v24H368.5z M368.5,576.5v-20h-10v20
	H368.5z M358.5,441.5v-30h-25v30H358.5z M351.5,608.5v-20h-12v20H351.5z M346.5,518.5v-29h-13v29H346.5z M345.5,681.5v-25h-15v25
	H345.5z M339.5,563.5v-14h-14v14H339.5z M325.5,632.5v-24h-15v24H325.5z M321.5,485.5v-19h-11v19H321.5z M310.5,568.5v-27h-15v27
	H310.5z M310.5,530.5v-22h-15v22H310.5z M298.5,656.5v-12h-5v12H298.5z M296.5,625.5v-27h-13v27H296.5z M295.5,466.5v-25h-19v25
	H295.5z M283.5,522.5v-28h-22v28H283.5z M261.5,608.5v-10h-7v10H261.5z M261.5,556.5v-15h-12v15H261.5z M254.5,583.5v-15h-10v15
	H254.5z M249.5,470.5v-22h-11v22H249.5z M238.5,518.5v-29h-16v29H238.5z M230.5,432.5v-16h-15v16H230.5z M203.5,541.5v-23h-14v23
	H203.5z M189.5,478.5v-25h-24v25H189.5z"/>
<path fill="#FFFFFF" stroke="#000000" stroke-miterlimit="10" d="M342.699,55.3C349.1,67.5,342,85.1,342,85.1L165.5,91
	c-7.2-22.7,2-29.5,2-29.5h5.5L342.699,55.3z"/>
<path fill="#FFFFFF" stroke="#000000" stroke-miterlimit="10" d="M165.5,91L342,85.1c0,0,7-17.6,0.699-29.8L173,61.5h-5.5
	C167.5,61.5,158.3,68.3,165.5,91z M175.6,31.3c-2.6,1.3-7,4.7-8.8,12.7c-0.1,0.5-1.3,8.1-1.3,9.7c0,2.3,2.7,3.3,2.7,3.3l175.499-4.9
	c0,0,3.7-1.5,4.2-3.7c1.699-7.3,5.8-22.9,10.3-23.4c0.101,0,0.101,0,0.2,0c0,0,3.3-0.1,3.699,1c-14,9-14,62.3-14,62.3l-186.3,5
	c0,0-0.1-0.8-0.4-2.3C160,81,155.5,41.5,172.1,31C172,31,175.2,30.7,175.6,31.3z"/>
<path fill="#FFFFFF" stroke="#000000" stroke-miterlimit="10" d="M175.6,31.3c1.3-0.6,2.2-0.8,2.2-0.8L358.1,25
	c-4.5,0.5-8.6,16.1-10.3,23.4c-0.5,2.2-4.2,3.7-4.2,3.7L168.2,57c0,0-2.7-1-2.7-3.3c0-1.6,1.2-9.1,1.3-9.7
	C168.6,36,172.9,32.6,175.6,31.3z"/>
<path fill="#FFFFFF" stroke="#000000" stroke-miterlimit="10" d="M89.3,57.7c0,0,3-20.7,11.7-20.3l71-6.3
	c-16.5,10.5-12.101,50-10.7,60l0,0c-4-11-7.8-33-7.8-33l-64.2,2.4l0,0C89.3,58.6,89.3,57.7,89.3,57.7z"/>
<line fill="none" stroke="#000000" stroke-width="0.25" stroke-miterlimit="10" x1="161.3" y1="112" x2="162.8" y2="305"/>
<line fill="none" stroke="#000000" stroke-width="0.25" stroke-miterlimit="10" x1="346.5" y1="103.5" x2="348" y2="305"/>
</svg>
