<?xml version="1.0" encoding="utf-8"?>
<!-- Generator: Adobe Illustrator 15.0.0, SVG Export Plug-In . SVG Version: 6.00 Build 0)  -->
<!DOCTYPE svg PUBLIC "-//W3C//DTD SVG 1.1//EN" "http://www.w3.org/Graphics/SVG/1.1/DTD/svg11.dtd">
<svg version="1.1" id="Layer_x5F_www.ABC-color.com"
	 xmlns="http://www.w3.org/2000/svg" xmlns:xlink="http://www.w3.org/1999/xlink" x="0px" y="0px" width="567px" height="822px"
	 viewBox="0 0 567 822" enable-background="new 0 0 567 822" xml:space="preserve">
<path fill="#FFFFFF" d="M0,0h567v822"/>
<path fill="none" stroke="#000000" d="M52.5,791.1"/>
<path fill="none" stroke="#000000" d="M78.5,791"/>
<path fill="#FFFFFF" stroke="#000000" d="M427,688V555.2c0-21.9-15.2-37.2-37.1-37.2H167.2c-21.9,0-42.2,15.3-42.2,37.2V688v47.7
	c0,21.898,16.8,44.7,38.7,44.7c0,0,79.6,3.3,105.4,3.398c94.7,0.5,120.4-2.398,120.4-2.398c29.2-3.7,37.6-23.802,37.6-45.7V688H427z
	 M380.2,40.7h-24.5c-6.602,0-10.7,6.7-10.7,12.8l0.3,23.5c0,6.1,3,9.5,9.602,9.5h29c6.6,0,7.5-2.9,7.5-9.5V52.8
	C391.3,46.2,386.8,40.7,380.2,40.7z M454,69.7V754c0,27.2-19.9,52-47.5,52h-258c-27.6,0-52.5-24.8-52.5-52V69.7
	C96,42.5,120.9,23,148.5,23h258C434.1,23,454,42.5,454,69.7z M416,448.7V110.4c0-6.6-2.9-9.4-9.5-9.4h-255c-6.6,0-14.5,2.9-14.5,9.4
	v338.3c0,6.6,7.9,14.3,14.5,14.3h255C413.1,463,416,455.3,416,448.7z M329,70.5v-8c0-1.4-1.1-2.5-2.5-2.5h-6c-1.4,0-2.5,1.1-2.5,2.5
	v8c0,1.4,1.1,2.5,2.5,2.5h6C327.9,73,329,71.9,329,70.5z M297,66c0-1.7-1.3-3-3-3h-34c-0.8,0-1.6,0.3-2.1,0.9S257,65.2,257,66
	c0,1.7,1.3,3,3,3h34C295.7,69,297,67.7,297,66z"/>
<path fill="#FFFFFF" stroke="#000000" d="M391.3,77c0,6.6-0.898,9.5-7.5,9.5h-29c-6.6,0-9.6-3.4-9.6-9.5L345,53.5
	c0-6.1,4-12.8,10.7-12.8h24.5c6.6,0,11.2,5.5,11.2,12.2V77H391.3z M387,74.7v-20c0-6.6-3.9-9.7-10.5-9.7h-16.7
	c-6.6,0-9.2,6.4-9.2,13v15c0.802,6.8,3,8.7,9.7,8.7l18.7,0.7C385.6,82.3,387,81.3,387,74.7z"/>
<path fill="#FFFFFF" stroke="#000000" d="M387,54.7v20c0,6.6-1.4,7.7-8,7.7l-18.7-0.7c-6.6,0-8.898-1.9-9.7-8.7V58
	c0-6.6,2.5-13,9.2-13h16.7C383.1,45,387,48,387,54.7z M382.5,63.7c0-7.4-6-13.3-13.4-13.3c-7.398,0-13.398,6-13.398,13.3
	c0,7.4,6,13.3,13.398,13.3C376.5,77,382.5,71,382.5,63.7z"/>
<path fill="#FFFFFF" stroke="#000000" d="M396.9,728.5l-0.602-40.1c9.5-0.102,19.7-0.2,30.602-0.4v47.7c0,21.898-8.4,42-37.602,45.7
	c0,0-25.7,2.898-120.4,2.398c-25.7-0.1-105.4-3.398-105.4-3.398c-21.9,0-38.7-22.802-38.7-44.7V688h0.7c12.1,0.2,23.2,0.3,33.3,0.4
	v39.5V750c0,0,2.1,17.1,20.8,18c25.3,1.2,44.4,1.8,59.3,2.1c16.9,0.302,28.3,0.2,36.9,0C292.9,769.7,306.3,769.4,316.9,769.2
	c40.698-0.8,40-0.4,46.8-1.2c0,0,33.398,2.3,33.398-20.7L396.9,728.5z"/>
<path fill="#FFFFFF" stroke="#000000" d="M395.9,652l-0.5-36.8c17.3-4,20.6-20.3,20.6-41.102V572c0-24-6.4-42.5-31.8-42.5
	l-219.9,0.4c-25.3,0-29.4,18.398-29.4,42.398v3.602c0,22.5,2.8,37.898,24,39.698v0.4v36v36.4c-10.1-0.102-21.2-0.301-33.3-0.4H125
	V555.2c0-21.9,20.4-37.2,42.2-37.2h222.7c21.898,0,37.1,15.3,37.1,37.2V688c-10.9,0.1-21.1,0.3-30.6,0.4L395.9,652z"/>
<path fill="#FFFFFF" stroke="#000000" d="M317,616.1l-78-0.1l-75.5-0.1c-1.6,0-3-0.102-4.4-0.2c-21.3-1.8-24-17.2-24-39.7v-3.6
	c0-24,4.1-42.4,29.4-42.4l219.9-0.4c25.3,0,31.8,18.5,31.8,42.5v2.102c0,20.8-3.3,37.1-20.602,41.1c-2.698,0.601-5.698,1-9.1,1
	L317,616.1z M397.9,577l-69.4,0.2l-28.5,0.1h-4.5H295v-2.8h0.8h4.2l27-0.1l70.2-0.302l14.3-0.1c0-22.1-6.3-41-30.9-41L167.2,533.3
	c-24.6,0-28.7,17.8-28.7,40.5l19,0.102L220,574.3l29,0.2h5v2.3h-0.3l-4.8-0.1l-27.5-0.3l-63.3-0.801l-20.3-0.199v1.1
	c0,22.1,3,36.2,27.5,36.2l216.5,0.7c24.602,0,29.8-14.4,29.8-36.4h-1.1H397.9z"/>
<path fill="#FFFFFF" stroke="#000000" d="M416,110.4v338.3c0,6.6-2.9,14.3-9.5,14.3h-255c-6.6,0-14.5-7.7-14.5-14.3V110.4
	c0-6.6,7.9-9.4,14.5-9.4h255C413.1,101,416,103.9,416,110.4z"/>
<path fill="#FFFFFF" stroke="#000000" d="M410.8,577h1.102c0,22-5.302,36.4-29.802,36.4l-216.5-0.7c-24.6,0-27.5-14.102-27.5-36.2
	v-1.1l20.3,0.198v0.5c0,28.602,9.2,31.302,26.2,31.302l126.6-0.4l59.7-0.2c13.6,0.5,26.6,2,27.3-29.898L410.8,577z"/>
<path fill="#FFFFFF" stroke="#000000" d="M411.5,574l-14.3,0.1V574c0-17.2-2.102-33-26.7-33l-186.8,1c-24.6,0-26.2,13.2-26.2,30.3
	v1.602l-19-0.102c0-22.7,4.1-40.5,28.7-40.5L380.6,533C405.2,533,411.5,551.9,411.5,574z"/>
<path fill="#FFFFFF" stroke="#000000" d="M328.5,577.2l69.4-0.2c-0.602,31.9-13.7,30.4-27.302,29.9L310.9,607.1V604.2
	C330.3,604.2,328.3,592.3,328.5,577.2L328.5,577.2z M391,592.6l0.4-10.3c0,0-1.602-1.5-2.602-0.2c0,0-0.7,6.5-0.7,9
	c0,3.4-3.3,4-3.3,4L365,595.7c0,0-2.2,2.3-0.3,4.3h19.6C384.2,600,390.4,599.3,391,592.6z M382,589.8v-0.5c0-0.7-0.6-1.3-1.3-1.3
	h-14.5c-0.7,0-1.3,0.6-1.3,1.3v0.5c0,0.7,0.6,1.3,1.3,1.3h14.5C381.4,591,382,590.4,382,589.8z"/>
<path fill="#FFFFFF" stroke="#000000" d="M164.3,562.8c0.5,0.5,1.6,1.2,2.7-0.3l0.2-6.3c0,0-0.5-3.3,5.7-3.3H190c0,0,1.3-2,0-3h-17
	c0,0-9-1.302-8.5,6.3L164.3,562.8z M220,574v0.3l-62.5-0.398V572.3c0-17.2,1.6-30.3,26.2-30.3l186.8-1c24.6,0,26.7,15.8,26.7,33v0.1
	L327,574.4V573v-0.7c0-16.2,0.7-25.3-19.7-25.3h-59.6C227.3,547,220,557.8,220,574z M391,561.8l-0.3-6.5c0.5-7.5-8.5-6.3-8.5-6.3
	h-17c-1.3,1,0,3,0,3h17.2c6.198,0,5.698,3.3,5.698,3.3l0.2,6.3C389.4,563,390.5,562.3,391,561.8z"/>
<path fill="#FFFFFF" stroke="#000000" d="M396.9,728.5l0.3,18.8c0,23-33.4,20.7-33.4,20.7c-6.8,0.9-6.1,0.5-46.8,1.2V769v-38.5
	C343.4,730.3,370.7,729.7,396.9,728.5z"/>
<path fill="#FFFFFF" stroke="#000000" d="M396.4,688.4l0.6,40.1c-26.2,1.2-53.5,1.8-79.9,2v-41.3C338.1,689,363.4,688.8,396.4,688.4
	z"/>
<path fill="#FFFFFF" stroke="#000000" d="M395.9,652l0.5,36.4c-33,0.398-58.302,0.698-79.4,0.8V652H395.9z"/>
<path fill="#FFFFFF" stroke="#000000" d="M395.4,615.2l0.5,36.8H317v-35.9l69.3,0.102C389.7,616.2,392.7,615.8,395.4,615.2z"/>
<path fill="#FFFFFF" stroke="#000000" d="M391.4,582.3l-0.4,10.3c-0.6,6.7-6.8,7.4-6.8,7.4H364.6c-1.898-2,0.302-4.3,0.302-4.3
	l19.8-0.602c0,0,3.3-0.698,3.3-4c0-2.5,0.7-9,0.7-9C389.7,580.8,391.4,582.3,391.4,582.3z"/>
<path fill="#FFFFFF" stroke="#000000" d="M390.7,555.3l0.3,6.5c-0.5,0.5-1.6,1.2-2.7-0.3l-0.2-6.3c0,0,0.5-3.3-5.698-3.3h-17.2
	c0,0-1.3-2,0-3h17C382.2,549,391.2,547.8,390.7,555.3z"/>
<path fill="#FFFFFF" stroke="#000000" d="M382,589.3v0.5c0,0.7-0.6,1.3-1.3,1.3h-14.5c-0.7,0-1.3-0.6-1.3-1.3v-0.5
	c0-0.7,0.6-1.3,1.3-1.3h14.5C381.4,588,382,588.6,382,589.3z"/>
<path fill="#FFFFFF" stroke="#000000" d="M369.1,50.3c7.4,0,13.4,6,13.4,13.3c0,7.4-6,13.3-13.4,13.3c-7.398,0-13.398-6-13.398-13.3
	C355.7,56.3,361.7,50.3,369.1,50.3z"/>
<path fill="#FFFFFF" stroke="#000000" d="M329,62.5v8c0,1.4-1.1,2.5-2.5,2.5h-6c-1.4,0-2.5-1.1-2.5-2.5v-8c0-1.4,1.1-2.5,2.5-2.5h6
	C327.9,60,329,61.1,329,62.5z"/>
<path fill="#FFFFFF" stroke="#000000" d="M328.5,577.2L328.5,577.2c-0.2,15.1,1.8,26.898-17.5,26.898l-63.5-0.3
	c-19.6,0-25.6-11.6-26-26.898v-0.5l27.5,0.3v8.8c0,8.3,9,14.5,17.3,14.5h14.2h6.8c8.3,0,12.7-6.2,12.7-14.5v-8.2L328.5,577.2z"/>
<path fill="#FFFFFF" stroke="#000000" d="M327,573v1.4l-27,0.1V574v-10.5c0-8.3-5.9-12.7-14.2-12.7l-20.7,0.3
	c-8.3,0-16.2,4-16.2,12.302V574v0.5l-29-0.2V574c0-16.2,7.3-27,27.7-27h59.6c20.398,0,19.7,9.1,19.7,25.3v0.7H327z"/>
<path fill="#FFFFFF" stroke="#000000" d="M317,769v0.2c-10.6,0.2-24,0.5-41.1,0.898c-8.6,0.2-19.9,0.302-36.9,0V770v-39.9
	c23.4,0.4,50.2,0.602,78,0.4V769z"/>
<path fill="#FFFFFF" stroke="#000000" d="M317,689.2v41.3c-27.8,0.2-54.6,0-78-0.4v-40.8C263.9,689.5,286,689.5,317,689.2z"/>
<path fill="#FFFFFF" stroke="#000000" d="M317,652v37.2c-31,0.2-53.1,0.3-78,0.1V652H317z"/>
<polygon fill="#FFFFFF" stroke="#000000" points="317,616.1 317,652 239,652 239,616 239,615.9 "/>
<path fill="#FFFFFF" stroke="#000000" d="M311,604.2v2.898l-126.6,0.4c-17,0-26.2-2.6-26.2-31.3v-0.5l63.3,0.8v0.5
	c0.4,15.3,6.4,26.9,26,26.9L311,604.2z M190.6,601c1.9-2-0.3-4.3-0.3-4.3l-19.8-0.602c0,0-3.3-0.698-3.3-4c0-2.5-0.7-9-0.7-9
	c-1-1.3-2.6,0.2-2.6,0.2l0.4,10.3c0.6,6.7,6.8,7.4,6.8,7.4L190.6,601L190.6,601z"/>
<path id="www.ABC-color.com" fill="#FFFFFF" stroke="#000000" d="M300,577.3v8.2c0,8.3-4.4,14.5-12.7,14.5h-6.8v-3
	c10.5,0,14.5-7.2,14.5-15.5v-4.2h0.5H300z"/>
<path fill="#FFFFFF" stroke="#000000" d="M300,574v0.5h-4.2H295v-5c0-11.3-6.2-14.5-14.5-14.5h-11c-10-1-15.5,6.2-15.5,14.5v5h-5
	V574v-10.5c0-8.3,7.9-12.3,16.2-12.3l20.7-0.3c8.3,0,14.199,4.398,14.199,12.698V574H300z"/>
<path fill="#FFFFFF" stroke="#000000" d="M294,63c1.7,0,3,1.3,3,3s-1.3,3-3,3h-34c-1.7,0-3-1.3-3-3c0-0.8,0.3-1.6,0.9-2.1
	s1.3-0.9,2.1-0.9H294z"/>
<path fill="#FFFFFF" stroke="#000000" d="M254,574.5v-5c0-8.3,5.5-15.5,15.5-14.5h11c8.3,0,14.5,3.3,14.5,14.5v5v2.8v4.2
	c0,8.3-4,15.5-14.5,15.5h-11c-8.3,0-15.5-7.2-15.5-15.5v-4.7V574.5z M290,578.5v-11c0-5.5-2.5-7.5-8.6-7.5h-8.9
	c-8.8-1-12.6,2.4-13.6,7.5v11c2,10.3,3.3,12.5,13.6,12.5h8.9C289.1,591,290,584,290,578.5z"/>
<path fill="#FFFFFF" stroke="#000000" d="M290,567.5v11c0,5.5-0.9,12.5-8.6,12.5h-8.9c-10.3,0-11.6-2.3-13.6-12.5v-11
	c1-5.1,4.8-8.5,13.6-7.5h8.9C287.5,560,290,562,290,567.5z"/>
<path fill="#FFFFFF" stroke="#000000" d="M280.5,597v3h-14.2c-8.3,0-17.3-6.2-17.3-14.5v-8.8l4.8,0.1h0.3v4.7
	c0,8.3,7.2,15.5,15.5,15.5H280.5z"/>
<path fill="#FFFFFF" stroke="#000000" d="M239,770L239,770c-14.9-0.2-34-0.8-59.3-2c-18.7-0.9-20.8-18-20.8-18v-22.1h0.5
	c0,0,32.9,1.398,79.5,2.198V770H239z"/>
<path fill="#FFFFFF" stroke="#000000" d="M239,689.3v40.8c-46.6-0.8-79.5-2.198-79.5-2.198H159v-39.5
	C193,688.8,217.1,689.1,239,689.3z"/>
<path fill="#FFFFFF" stroke="#000000" d="M239,652v37.3c-21.9-0.2-46-0.5-80-0.898V652H239z"/>
<path fill="#FFFFFF" stroke="#000000" d="M239,616v36h-80v-36v-0.4c1.4,0.102,2.9,0.2,4.4,0.2L239,616L239,616z"/>
<path fill="#FFFFFF" stroke="#000000" d="M190.3,596.8c0,0,2.2,2.3,0.3,4.3H171c0,0-6.2-0.8-6.8-7.398l-0.4-10.3
	c0,0,1.6-1.5,2.6-0.2c0,0,0.7,6.5,0.7,9c0,3.398,3.3,4,3.3,4L190.3,596.8z"/>
<path fill="#FFFFFF" stroke="#000000" d="M190,550c1.3,1,0,3,0,3h-17.2c-6.2,0-5.7,3.3-5.7,3.3l-0.2,6.3
	c-1.1,1.5-2.3,0.802-2.7,0.302l0.3-6.5c-0.5-7.5,8.5-6.302,8.5-6.302h17V550L190,550z"/>
<path fill="none" stroke="#000000" stroke-width="0.25" d="M265.3,580.7c0,0,0.7,3,3.3,3.7c2.6,0.698,12.3,0.398,12.3,0.398"/>
<text transform="matrix(1 0 0 1 337.667 634.667)" font-family="'Verdana-Bold'" font-size="12">def</text>
<text transform="matrix(1 0 0 1 275.0005 636.167)" font-family="'Verdana-Bold'" font-size="12">abc</text>
<text transform="matrix(1 0 0 1 335.833 677.667)" font-family="'Verdana-Bold'" font-size="12">mno</text>
<text transform="matrix(1 0 0 1 278.5 677.667)" font-family="'Verdana-Bold'" font-size="12">jkl</text>
<text transform="matrix(1 0 0 1 332.167 714.5)" font-family="'Verdana-Bold'" font-size="12">wxyz</text>
<text transform="matrix(1 0 0 1 276.5005 717.167)" font-family="'Verdana-Bold'" font-size="12">tuv</text>
<text transform="matrix(1 0 0 1 194.333 714.5)" font-family="'Verdana-Bold'" font-size="12">pqrs</text>
<text transform="matrix(1 0 0 1 198.333 677.667)" font-family="'Verdana-Bold'" font-size="12">ghi</text>
<text transform="matrix(1 0 0 1 203 629.5)" font-family="'Verdana-Bold'" font-size="12">@</text>
<path fill="none" stroke="#000000" d="M206.5,639.1c0,1.302-1.1,2.4-2.4,2.4h-0.2c-1.3,0-2.4-1.1-2.4-2.4V636.9
	c0-1.302,1.1-2.4,2.4-2.4h0.2c1.3,0,2.4,1.1,2.4,2.4V639.1z"/>
<path fill="none" stroke="#000000" d="M214.5,639.1c0,1.302-1.1,2.4-2.4,2.4h-0.2c-1.3,0-2.4-1.1-2.4-2.4V636.9
	c0-1.302,1.1-2.4,2.4-2.4h0.2c1.3,0,2.4,1.1,2.4,2.4V639.1z"/>
<line fill="none" stroke="#000000" x1="205" y1="641.5" x2="213" y2="641.5"/>
<polyline fill="none" stroke="#000000" stroke-width="2" points="408.3,652.7 405,649.3 408.7,645.8 "/>
<polyline fill="none" stroke="#000000" stroke-width="2" points="416.9,654.8 413.3,658 409.9,654.5 "/>
<polyline fill="none" stroke="#000000" stroke-width="2" points="418.5,646.2 422,649.7 418.2,653.3 "/>
<polyline fill="none" stroke="#000000" stroke-width="2" points="410.2,644.4 413.7,641 416.9,644.4 "/>
<ellipse fill="none" stroke="#000000" stroke-miterlimit="10" cx="369.1" cy="63.7" rx="10.9" ry="10.8"/>
<ellipse fill="none" stroke="#000000" stroke-miterlimit="10" cx="369.1" cy="63.7" rx="8" ry="8"/>
<ellipse fill="none" stroke="#000000" stroke-miterlimit="10" cx="369.1" cy="63.7" rx="2.7" ry="2.7"/>
<path fill="none" stroke="#000000" stroke-width="2" stroke-miterlimit="10" d="M416,734h-5c-1.1,0-3-1.8-3-2.8v-9
	c0-1,1.9-1.102,3-1.102h5"/>
<polygon fill="none" stroke="#000000" points="143.8,733.5 135.9,726.1 138.2,723.9 140.8,721.5 147.8,728.5 149.3,734.4 "/>
<polyline fill="none" stroke="#000000" points="138.2,723.8 145,730.3 143.8,733.5 "/>
<line fill="none" stroke="#000000" x1="145" y1="730.3" x2="147.8" y2="728.5"/>
<text transform="matrix(1 0 0 1 189.667 765.666)" font-family="'Verdana-Bold'" font-size="24">*</text>
<text transform="matrix(1 0 0 1 210.5 760)" font-family="'Verdana-Bold'" font-size="12">+</text>
<text transform="matrix(1 0 0 1 260.6665 761.333)" font-family="'Verdana-Bold'" font-size="18">0</text>
<polyline fill="none" stroke="#000000" stroke-width="2" points="281,761 281,765 291,765 291,761 "/>
<polygon id="ABC-color.com" fill="none" stroke="#000000" points="343.3,748.8 347.5,753.6 345.2,753.6 345.2,757.5 340.5,757.5 
	340.5,753.5 338,753.5 "/>
<line fill="none" stroke="#000000" x1="356.5" y1="745" x2="356.5" y2="759"/>
<line fill="none" stroke="#000000" x1="361.5" y1="745" x2="361.5" y2="759"/>
<line fill="none" stroke="#000000" x1="353" y1="749.5" x2="365" y2="749.5"/>
<line fill="none" stroke="#000000" x1="353" y1="754.5" x2="365" y2="754.5"/>
<text transform="matrix(1 0 0 1 261.25 718)" font-family="'Verdana'" font-size="18">8</text>
<text transform="matrix(1 0 0 1 181.375 717.167)" font-family="'Verdana'" font-size="18">7</text>
<text transform="matrix(1 0 0 1 181.375 678.25)" font-family="'Verdana'" font-size="18">4</text>
<text transform="matrix(1 0 0 1 182.75 636.167)" font-family="'ArialMT'" font-size="18">1</text>
<text transform="matrix(1 0 0 1 261.375 636.5)" font-family="'ArialMT'" font-size="18">2</text>
<text transform="matrix(1 0 0 1 261.375 679.875)" font-family="'ArialMT'" font-size="18">5</text>
<text transform="matrix(1 0 0 1 370.25 716)" font-family="'ArialMT'" font-size="18">9</text>
<text transform="matrix(1 0 0 1 368.125 678.875)" font-family="'ArialMT'" font-size="18">6</text>
<text transform="matrix(1 0 0 1 366.625 634.667)" font-family="'ArialMT'" font-size="18">3</text>
<path fill="#003366" d="M152.2,650.9c0,0,5,13.398-8.1,10.8c0,0,7-1.2,3.6-9.7L152.2,650.9z"/>
<path fill="#003366" d="M139.9,652.9c2,0,3.6,1.5,3.6,3.5c0,1.898-1.6,3.5-3.6,3.5s-3.6-1.5-3.6-3.5
	C136.3,654.5,137.9,652.9,139.9,652.9z"/>
<path fill="#003366" d="M135,651.5c0,0-5-13.4,8.1-10.8c0,0-7,1.2-3.6,9.7L135,651.5z"/>
<path fill="none" stroke="#003366" stroke-miterlimit="10" d="M149.5,648.5c0,0.6-0.4,1-1,1h-5c-0.6,0-1-0.4-1-1v-4c0-0.6,0.4-1,1-1
	h5c0.6,0,1,0.4,1,1V648.5z"/>
<path fill="#003366" d="M287.9,750.3c0,0-2.102,3.4,1.3,3.2c5.6-0.3,5-6.1,3.6-7.9c1.601,0.7,2.601,2.4,2.4,4.602
	c-0.5,3.5-2.601,5.5-8.9,5.5c-5.3,0-8.5-1.9-8.5-5.8c0-2.302,2-4.302,3.8-4.4c-0.8,0.6-4.9,6.4,2.1,8.2c-0.1-0.2-2.3-2.9,3.1-4
	c0,0,2-2.102-0.899-2.8c0,0,1.899-2.9,3.301-1.2C290.5,747.5,287.9,750.3,287.9,750.3z"/>
</svg>
