<?xml version="1.0" encoding="utf-8"?>
<!-- Generator: Adobe Illustrator 15.0.0, SVG Export Plug-In . SVG Version: 6.00 Build 0)  -->
<!DOCTYPE svg PUBLIC "-//W3C//DTD SVG 1.1//EN" "http://www.w3.org/Graphics/SVG/1.1/DTD/svg11.dtd">
<svg version="1.1" id="layer_x5F_www.ABC-color.com_2_"
	 xmlns="http://www.w3.org/2000/svg" xmlns:xlink="http://www.w3.org/1999/xlink" x="0px" y="0px" width="567px" height="822px"
	 viewBox="0 0 567 822" enable-background="new 0 0 567 822" xml:space="preserve">
<polyline fill="#FFFFFF" points="0,0 567,0 567,822 "/>
<path fill="#FFFFFF" stroke="#000000" stroke-miterlimit="10" d="M407,381.7l-44.7-320c0,0-1.7-12.7-12.7-12.7c0,0-30.3-2.5-40,0
	c-2.899,0.8-4.601,2.5-9.899,7c-10.7,9-31.2,10.7-42.2,10.3c-9.2-0.3-24.601-4-25.9-7.3c0,0-4.3-5.5-11.7-3.7L187.7,59
	c0,0-13.301-0.4-9.301,23.6L225.7,385.5l-14.301,3.9l-1,0.3l-13.8-90.2h2.4L163.5,62.4c0,0-1.8-23.7,26.899-26c0,0,118-13.4,155.3-6
	c0,0,21.301,1.3,28,30c0,0,32.2,227.6,32.7,230c0.101,0.6,3.699,2,4.899,3.3l0,0c0.2,0.2,0.399,0.5,0.399,0.7
	c3.399,18.4,13.5,89.2,13.601,90.2l0,0L407,381.7z M285.7,55c1.698-0.1,2.899-1.6,2.8-3.2c-0.102-1.7-1.602-2.9-3.2-2.8l-39,3
	c-1.6,0.1-2.8,1.4-2.8,3c0,0.1,0,0.2,0,0.2c0.1,1.7,1.6,2.9,3.2,2.8L285.7,55z"/>
<path fill="#FFFFFF" stroke="#000000" stroke-miterlimit="10" d="M225.7,385.5L178.3,82.6c-4-24,9.3-23.6,9.3-23.6l32.3-3.7
	c7.301-1.8,11.7,3.7,11.7,3.7c1.3,3.3,16.7,7.1,25.9,7.3c11,0.3,31.5-1.4,42.199-10.3c5.4-4.5,7-6.3,9.899-7c9.7-2.5,40,0,40,0
	c11,0,12.7,12.7,12.7,12.7l44.7,320C331,379.7,225.7,385.5,225.7,385.5z M383.199,289l-25.5-199L193,100.8l32.6,196.7L383.199,289z"
	/>
<path fill="#FFFFFF" stroke="#000000" stroke-miterlimit="10" d="M444,487.5l-8,271c0,0,3.3,27.5-42,36c0,0-134.8,5.3-152.5-2
	c0,0-25-2.3-30.5-33.8l1.3-234.5l1.5-2.3c1.1,0.3,2.8,1.198,3,3.3l-1.2,235.2c0,0,3.9,24.5,26.4,27l37.6,2.198
	c0,0,22.8,1.9,73.3,1.5l40-2.3c0,0,25.5-6.5,28.5-27.5l3.5-241l3.3-1.3l15.301-31.8h0.5L444,487.5L444,487.5z"/>
<path fill="#FFFFFF" stroke="#000000" stroke-miterlimit="10" d="M437.6,412.7c0,0,5.9,41,5.7,74.8L428,519.3
	c-0.7-50.3,2-88.5,2-88.5l-0.101-1.1H430c0.6,0,1.199,0,1.8-0.3c3.5-1.4,5.2-10.5,5.601-16.7H437.6L437.6,412.7z M437.6,462.9
	c0-4.102-0.899-7.4-2.1-7.4c-1.101,0-2.101,3.3-2.101,7.4c0,4.1,0.899,7.398,2.101,7.398C436.699,470.3,437.6,467,437.6,462.9z"/>
<path fill="#FFFFFF" stroke="#000000" stroke-miterlimit="10" d="M433.4,388.8c0.399,0.9,0.601,1.5,0.601,1.5s3.699,7.2,3.6,19.7
	c0,0.8-0.1,1.7-0.1,2.7c-0.5,6.2-2.2,15.2-5.601,16.7c-0.601,0.3-1.2,0.3-1.801,0.3c-4.5-0.3-9-7.5-9-7.5
	c-4.5-6.3-3.8-22.2-3.8-22.2c1.3-13,5.5-14.1,5.5-14.1c0.899-0.6,1.8-1.1,2.601-1.3l0,0l0,0l0,0C429.9,383,432.3,386.6,433.4,388.8z
	 M435.8,406.2c0-6.2-1.7-11.3-4-12.2l0,0c-0.101-0.5-2.8-10-8.2-4.3c0,0-9.8,17.3,2.7,35c0,0,3.3,3.8,5.5-2.5l1.5-5.102
	C434.8,415,435.8,410.9,435.8,406.2z"/>
<path fill="#FFFFFF" stroke="#000000" stroke-miterlimit="10" d="M435.5,455.5c1.1,0,2.1,3.3,2.1,7.4c0,4.1-0.899,7.398-2.1,7.398
	c-1.101,0-2.101-3.3-2.101-7.398C433.5,458.8,434.4,455.5,435.5,455.5z"/>
<path fill="#FFFFFF" stroke="#000000" stroke-miterlimit="10" d="M431.8,394c2.3,0.9,4,6,4,12.2c0,4.7-1,8.8-2.5,10.898
	c-0.5,0.7-1.101,1.2-1.7,1.4c-0.199,0-0.3,0.1-0.5,0.1c-2.601,0-4.8-5.5-4.8-12.3s2.101-12.3,4.8-12.3
	C431.3,393.8,431.6,393.9,431.8,394L431.8,394z M433.5,407c0-2.2-0.801-4-1.7-4s-1.7,1.8-1.7,4s0.801,4,1.7,4S433.5,409.2,433.5,407
	z"/>
<path fill="#FFFFFF" stroke="#000000" stroke-miterlimit="10" d="M431.8,374.5l1.601,14.3c-1-2.2-3.5-5.8-8.101-4.3
	c-0.101-1-10.2-71.8-13.601-90.2c0-0.2-0.2-0.4-0.399-0.7l0,0c0.101-0.4,3.399-9.5,4.399-15.1l0.3,0.1l5.7,38.5
	c-2.3-0.9-2.8,2.3-2.8,2.3l4.699,35.2c2.801,18.9,2.2,21.5,4.7,21.4c1.7-0.1,3-1.2,3.5-1.6C431.8,374.5,431.8,374.5,431.8,374.5z"/>
<path fill="#FFFFFF" stroke="#000000" stroke-miterlimit="10" d="M431.699,418.6l-0.101-0.198c0.601-0.2,1.2-0.7,1.7-1.4l-1.5,5.1
	c-2.2,6.302-5.5,2.5-5.5,2.5c-12.5-17.699-2.7-35-2.7-35c5.4-5.7,8,3.8,8.2,4.3c-0.2-0.1-0.5-0.1-0.7-0.1l-3.6-1.5
	c0,0-5.801,2-4.7,13.8c0,0,0.7,14,5.2,14.7L431.699,418.6z"/>
<path fill="#FFFFFF" stroke="#000000" stroke-miterlimit="10" d="M430.4,358.8c0.699,0.4,1.199,1.1,1.3,1.9l1.5,10.9
	c0.2,1.2-0.5,2.3-1.7,2.7c-0.1,0.1-0.3,0.1-0.5,0.1c-0.1,0-0.199,0-0.3,0c-0.2,0-0.5,0-0.7-0.1c-0.899-0.3-1.699-1-1.8-2.1
	l-1.5-10.9c-0.2-1.4,0.8-2.6,2.101-2.8c0.101,0,0.2,0,0.3,0C429.699,358.5,430.1,358.7,430.4,358.8z"/>
<path fill="#FFFFFF" stroke="#000000" stroke-miterlimit="10" d="M431.699,403c1,0,1.7,1.8,1.7,4s-0.801,4-1.7,4S430,409.2,430,407
	S430.8,403,431.699,403z"/>
<path fill="#FFFFFF" stroke="#000000" stroke-miterlimit="10" d="M431.6,374.3l0.101,0.3c-0.399,0.4-1.8,1.5-3.5,1.6
	c-2.5,0.1-1.899-2.5-4.699-21.4l-4.7-35.2c0,0,0.601-3.2,2.8-2.3c1.101,0.4,2.7,2.3,3.399,3.1c-0.5-0.5-1.1-0.7-1.8-0.7
	c-0.101,0-0.2,0-0.3,0c-1.399,0.2-2.301,1.5-2.101,2.8l1.5,10.9c0.2,1.3,1.3,2.2,2.5,2.2c0.101,0,0.2,0,0.3,0
	c0.601-0.1,1.2-0.4,1.5-0.8c-0.3,0.4-1.899,3.4-1.101,7.7L426.8,354c0,0,1.199,3,3.699,5c-0.3-0.2-0.8-0.3-1.199-0.3
	c-0.101,0-0.2,0-0.301,0c-1.399,0.2-2.3,1.5-2.1,2.8l1.5,10.9c0.1,1,0.899,1.8,1.8,2.1c0.2,0.1,0.399,0.1,0.7,0.1
	c0.1,0,0.199,0,0.3,0C431.3,374.4,431.4,374.4,431.6,374.3z"/>
<path fill="#FFFFFF" stroke="#000000" stroke-miterlimit="10" d="M431.6,418.4l0.101,0.198L428,420.8c-4.5-0.7-5.2-14.7-5.2-14.7
	c-1.2-11.8,4.7-13.8,4.7-13.8l3.6,1.5c-2.6,0-4.8,5.5-4.8,12.3c0,6.801,2.101,12.301,4.8,12.301
	C431.199,418.5,431.4,418.5,431.6,418.4z"/>
<path id="layer_x5F_www.ABC-color.com_1_" fill="#FFFFFF" stroke="#000000" stroke-miterlimit="10" d="M261,386.1
	c-0.3,0.1-5.9,2.5-6.5,11.6c0,0-2.2,14.3,0,23.3c0,0,4.6,9,10,12.5H377c0,0-6.301-5.7-7.301-14.5l-0.5-23.8
	c0,0,0.301-7.3,4.801-11.7L261,386.1L261,386.1z M429.9,429.6l0.1,1.101l-20,2.5c-0.4,0.1-0.801,0.2-1.2,0.3
	c-26,5-165.6,1.4-178.8,1c-0.7,0-1,0-1,0h-14.3l2.899-2.3l42.3,1.3c0,0-10.3-8.5-9.7-17.2l0.7-20c0,0,2.4-8.5,5.3-10.1l-45,3.2
	l14.301-3.9c0,0,105.3-5.8,181.3-3.8l18.3,2.9l0,0l-48.3-1c0,0-2.301,2-5.2,10c0,0-1.199,17,1.5,28c0,0,3.801,11.7,8,12L429.9,429.6
	z"/>
<path fill="#FFFFFF" stroke="#000000" stroke-miterlimit="10" d="M430,429.6L430,429.6l-48.7,3.9c-4.2-0.3-8-12-8-12
	c-2.7-11-1.5-28-1.5-28c2.899-8,5.2-10,5.2-10l48.3,1c-0.8,0.3-1.601,0.7-2.601,1.3c0,0-4.2,1.1-5.5,14.101c0,0-0.7,15.8,3.8,22.199
	C421,422.2,425.5,429.3,430,429.6z"/>
<path fill="#FFFFFF" stroke="#000000" stroke-miterlimit="10" d="M408.8,479.5v-46c0.399-0.1,0.8-0.2,1.2-0.3l20-2.5
	c0,0-2.7,38.3-2,88.5l-3.301,1.3l-3.5,241c-3,21-28.5,27.5-28.5,27.5l-40,2.3L353,784l-73.5-1v6.8l-37.601-2.2
	c-22.5-2.5-26.399-27-26.399-27l1.2-235.198c-0.2-2.102-1.9-3-3-3.302c-0.5-0.1-0.801-0.198-0.801-0.198l1.7-87.2l0.101-0.102H229
	c0,0,0.3,0,1,0v0.102l-0.4,45.898l-0.5,64.5l-1.399,180c0,0,2,15.802,16.8,17.302c0,0,68.3,10.5,147.8,1.3c0,0,12.5-1.3,16.5-17.3
	V542.8L408.8,479.5L408.8,479.5z M411.3,743.5c0-1.4-1.101-2.5-2.5-2.5s-2.5,1.1-2.5,2.5s1.101,2.5,2.5,2.5S411.3,744.9,411.3,743.5
	z"/>
<path fill="#FFFFFF" stroke="#000000" stroke-miterlimit="10" d="M426.6,334.6c-0.399,0.4-0.899,0.7-1.5,0.8c-0.1,0-0.199,0-0.3,0
	c-1.2,0-2.3-0.9-2.5-2.2l-1.5-10.9c-0.2-1.4,0.8-2.6,2.101-2.8c0.101,0,0.199,0,0.3,0c0.7,0,1.301,0.3,1.801,0.7
	c0.199,0.2,0.3,0.4,0.3,0.4c0.2,0.3,0.399,0.7,0.399,1.1l1.5,10.9C427.3,333.4,427.1,334.1,426.6,334.6z"/>
<path fill="#FFFFFF" stroke="#000000" stroke-miterlimit="10" d="M196.6,299.5h-1.2L159.5,63.6c-2.8-25.5,24.2-32.1,25-32.3l0,0
	C196,30,305.6,18.8,344,21.7c34.899,2.7,39.699,33.1,39.699,33.1s32.5,216.5,32.301,221.3c0,0.7-0.101,1.5-0.301,2.4
	c-1,5.6-4.3,14.7-4.399,15.1c-1.2-1.3-4.8-2.7-4.899-3.3c-0.5-2.4-32.7-230-32.7-230c-6.699-28.7-28-30-28-30
	c-37.3-7.3-155.3,6-155.3,6c-28.699,2.3-26.899,26-26.899,26L199,299.5H196.6z"/>
<circle fill="#FFFFFF" stroke="#000000" stroke-miterlimit="10" cx="408.8" cy="743.5" r="2.5"/>
<path fill="#FFFFFF" stroke="#000000" stroke-miterlimit="10" d="M408.8,433.5v46h-53.101c-3.5-3.1-8.101-5-13.2-5h-43
	c-5.699,0-10.799,2.3-14.399,6.1l-0.1-0.1h-55h-0.4l0.4-45.9v-0.1C243.2,434.9,382.8,438.5,408.8,433.5z"/>
<path fill="#FFFFFF" stroke="#000000" stroke-miterlimit="10" d="M408.8,479.5v63.2l-51.8,2.6c3.399-3.6,5.5-8.398,5.5-13.8v-37
	c0-6-2.601-11.3-6.801-15H408.8z"/>
<path id="layer_x5F_www.ABC-color.com" fill="#FFFFFF" stroke="#000000" stroke-miterlimit="10" d="M408.8,542.7v183.6
	c-4,16-16.5,17.3-16.5,17.3c-79.5,9.302-147.8-1.3-147.8-1.3c-14.8-1.5-16.8-17.3-16.8-17.3l1.399-180h0.9l55,0.3
	c3.601,3.8,8.8,6.2,14.499,6.2h43c5.7,0,10.9-2.4,14.5-6.2L408.8,542.7z M394.5,622.5v-13c0-5.5-4.5-10-10-10h-25
	c-5.5,0-10,4.5-10,10v13c0,5.5,4.5,10,10,10h25C390,632.5,394.5,628,394.5,622.5z M394.5,584.5v-13c0-5.5-4.5-10-10-10h-25
	c-5.5,0-10,4.5-10,10v13c0,5.5,4.5,10,10,10h25C390,594.5,394.5,590,394.5,584.5z M393.5,699.5v-13c0-5.5-4.5-10-10-10h-25
	c-5.5,0-10,4.5-10,10v13c0,5.5,4.5,10,10,10h25C389,709.5,393.5,705,393.5,699.5z M393.5,661.5v-13c0-5.5-4.5-10-10-10h-25
	c-5.5,0-10,4.5-10,10v13c0,5.5,4.5,10,10,10h25C389,671.5,393.5,667,393.5,661.5z M340.5,623.5v-13c0-5.5-4.5-10-10-10h-25
	c-5.5,0-10,4.5-10,10v13c0,5.5,4.5,10,10,10h25C336,633.5,340.5,629,340.5,623.5z M340.5,585.5v-13c0-5.5-4.5-10-10-10h-25
	c-5.5,0-10,4.5-10,10v13c0,5.5,4.5,10,10,10h25C336,595.5,340.5,591,340.5,585.5z M339.5,699.5v-13c0-5.5-4.5-10-10-10h-25
	c-5.5,0-10,4.5-10,10v13c0,5.5,4.5,10,10,10h25C335,709.5,339.5,705,339.5,699.5z M339.5,662.5v-13c0-5.5-4.5-10-10-10h-25
	c-5.5,0-10,4.5-10,10v13c0,5.5,4.5,10,10,10h25C335,672.5,339.5,668,339.5,662.5z M288.5,585.5v-13c0-5.5-4.5-10-10-10h-25
	c-5.5,0-10,4.5-10,10v13c0,5.5,4.5,10,10,10h25C284,595.5,288.5,591,288.5,585.5z M287.5,698.5v-13c0-5.5-4.5-10-10-10h-25
	c-5.5,0-10,4.5-10,10v13c0,5.5,4.5,10,10,10h25C283,708.5,287.5,704,287.5,698.5z M287.5,661.5v-13c0-5.5-4.5-10-10-10h-25
	c-5.5,0-10,4.5-10,10v13c0,5.5,4.5,10,10,10h25C283,671.5,287.5,667,287.5,661.5z M287.5,623.5v-13c0-5.5-4.5-10-10-10h-25
	c-5.5,0-10,4.5-10,10v13c0,5.5,4.5,10,10,10h25C283,633.5,287.5,629,287.5,623.5z"/>
<path fill="#FFFFFF" stroke="#000000" stroke-miterlimit="10" d="M394.5,609.5v13c0,5.5-4.5,10-10,10h-25c-5.5,0-10-4.5-10-10v-13
	c0-5.5,4.5-10,10-10h25C390,599.5,394.5,604,394.5,609.5z"/>
<path fill="#FFFFFF" stroke="#000000" stroke-miterlimit="10" d="M394.5,571.5v13c0,5.5-4.5,10-10,10h-25c-5.5,0-10-4.5-10-10v-13
	c0-5.5,4.5-10,10-10h25C390,561.5,394.5,566,394.5,571.5z"/>
<path fill="#FFFFFF" stroke="#000000" stroke-miterlimit="10" d="M393.5,686.5v13c0,5.5-4.5,10-10,10h-25c-5.5,0-10-4.5-10-10v-13
	c0-5.5,4.5-10,10-10h25C389,676.5,393.5,681,393.5,686.5z"/>
<path fill="#FFFFFF" stroke="#000000" stroke-miterlimit="10" d="M393.5,648.5v13c0,5.5-4.5,10-10,10h-25c-5.5,0-10-4.5-10-10v-13
	c0-5.5,4.5-10,10-10h25C389,638.5,393.5,643,393.5,648.5z"/>
<polygon fill="#FFFFFF" stroke="#000000" stroke-miterlimit="10" points="357.699,90 383.199,289 225.7,297.5 193,100.8 "/>
<path fill="#FFFFFF" stroke="#000000" stroke-miterlimit="10" d="M377,433.5H264.3c-5.3-3.5-10-12.5-10-12.5c-2.2-9,0-23.3,0-23.3
	c0.6-9.1,6.2-11.5,6.5-11.6l0,0l113.101-2.6c-4.5,4.4-4.801,11.7-4.801,11.7l0.5,23.8C370.699,427.8,377,433.5,377,433.5z"/>
<path fill="#FFFFFF" stroke="#000000" stroke-miterlimit="10" d="M355.699,479.5c4.2,3.7,6.801,9,6.801,15v37
	c0,5.3-2.101,10.2-5.5,13.8c-3.601,3.8-8.801,6.2-14.5,6.2h-43c-5.7,0-10.9-2.4-14.5-6.2c-3.4-3.6-5.5-8.398-5.5-13.8v-37
	c0-5.4,2.1-10.3,5.6-13.9c3.602-3.8,8.7-6.1,14.4-6.1h43C347.6,474.5,352.199,476.4,355.699,479.5z M342.5,522.5v-19
	c0-5.5-4.5-10-10-10h-22c-5.5,0-10,4.5-10,10v19c0,5.5,4.5,10,10,10h22C338,532.5,342.5,528,342.5,522.5z"/>
<path fill="#FFFFFF" stroke="#000000" stroke-miterlimit="10" d="M353,784l-0.301,7.3c-50.5,0.4-73.3-1.5-73.3-1.5V783L353,784z"/>
<path fill="#FFFFFF" stroke="#000000" stroke-miterlimit="10" d="M342.5,503.5v19c0,5.5-4.5,10-10,10h-22c-5.5,0-10-4.5-10-10v-19
	c0-5.5,4.5-10,10-10h22C338,493.5,342.5,498,342.5,503.5z"/>
<path fill="#FFFFFF" stroke="#000000" stroke-miterlimit="10" d="M340.5,610.5v13c0,5.5-4.5,10-10,10h-25c-5.5,0-10-4.5-10-10v-13
	c0-5.5,4.5-10,10-10h25C336,600.5,340.5,605,340.5,610.5z"/>
<path fill="#FFFFFF" stroke="#000000" stroke-miterlimit="10" d="M340.5,572.5v13c0,5.5-4.5,10-10,10h-25c-5.5,0-10-4.5-10-10v-13
	c0-5.5,4.5-10,10-10h25C336,562.5,340.5,567,340.5,572.5z"/>
<path fill="#FFFFFF" stroke="#000000" stroke-miterlimit="10" d="M339.5,686.5v13c0,5.5-4.5,10-10,10h-25c-5.5,0-10-4.5-10-10v-13
	c0-5.5,4.5-10,10-10h25C335,676.5,339.5,681,339.5,686.5z"/>
<path fill="#FFFFFF" stroke="#000000" stroke-miterlimit="10" d="M339.5,649.5v13c0,5.5-4.5,10-10,10h-25c-5.5,0-10-4.5-10-10v-13
	c0-5.5,4.5-10,10-10h25C335,639.5,339.5,644,339.5,649.5z"/>
<path fill="#FFFFFF" stroke="#000000" stroke-miterlimit="10" d="M288.5,572.5v13c0,5.5-4.5,10-10,10h-25c-5.5,0-10-4.5-10-10v-13
	c0-5.5,4.5-10,10-10h25C284,562.5,288.5,567,288.5,572.5z"/>
<path fill="#FFFFFF" stroke="#000000" stroke-miterlimit="10" d="M288.4,51.7c0.101,1.6-1.101,3.1-2.801,3.2L246.8,58
	c-1.6,0.1-3.1-1.1-3.2-2.8c0-0.1,0-0.2,0-0.2c0-1.5,1.2-2.9,2.8-3l38.9-3.1C286.8,48.9,288.3,50.1,288.4,51.7z"/>
<path fill="#FFFFFF" stroke="#000000" stroke-miterlimit="10" d="M287.5,685.5v13c0,5.5-4.5,10-10,10h-25c-5.5,0-10-4.5-10-10v-13
	c0-5.5,4.5-10,10-10h25C283,675.5,287.5,680,287.5,685.5z"/>
<path fill="#FFFFFF" stroke="#000000" stroke-miterlimit="10" d="M287.5,648.5v13c0,5.5-4.5,10-10,10h-25c-5.5,0-10-4.5-10-10v-13
	c0-5.5,4.5-10,10-10h25C283,638.5,287.5,643,287.5,648.5z"/>
<path fill="#FFFFFF" stroke="#000000" stroke-miterlimit="10" d="M287.5,610.5v13c0,5.5-4.5,10-10,10h-25c-5.5,0-10-4.5-10-10v-13
	c0-5.5,4.5-10,10-10h25C283,600.5,287.5,605,287.5,610.5z"/>
<path fill="#FFFFFF" stroke="#000000" stroke-miterlimit="10" d="M285,480.5l0.1,0.1c-3.5,3.602-5.6,8.5-5.6,13.9v37
	c0,5.3,2.1,10.2,5.5,13.8l-55-0.3h-0.9l0.5-64.5h0.4H285z"/>
<path fill="#FFFFFF" stroke="#000000" stroke-miterlimit="10" d="M260,433.5l-42.3-1.3c-10-0.8-13.4-14.9-13.4-14.9
	c-2-15.3,5.9-27.5,5.9-27.5l0.199-0.3l1-0.3l45-3.2c-2.899,1.7-5.3,10.1-5.3,10.1l-0.7,20C249.7,425,260,433.5,260,433.5z"/>
<text transform="matrix(0.7571 0 0 1 366.1895 584.1328)" font-family="'Verdana-Bold'" font-size="11.2411">def</text>
<text transform="matrix(0.7571 0 0 1 314.7734 584.1328)" font-family="'Verdana-Bold'" font-size="11.2411">abc</text>
<text transform="matrix(0.7571 0 0 1 366.1895 623.5547)" font-family="'Verdana-Bold'" font-size="11.2411">mno</text>
<text transform="matrix(0.7571 0 0 1 317.2559 623.0078)" font-family="'Verdana-Bold'" font-size="11.2411">jkl</text>
<text transform="matrix(0.7571 0 0 1 366.1895 660.0098)" font-family="'Verdana-Bold'" font-size="11.2411">wxyz</text>
<text transform="matrix(0.7571 0 0 1 315.8379 660.0098)" font-family="'Verdana-Bold'" font-size="11.2411">tuv</text>
<text transform="matrix(0.7571 0 0 1 257.5649 657.5117)" font-family="'Verdana-Bold'" font-size="11.2411">pqrs</text>
<text transform="matrix(0.7571 0 0 1 260.4019 623.0078)" font-family="'Verdana-Bold'" font-size="11.2411">ghi</text>
<path fill="none" stroke="#000000" d="M270.5,583.7c0,1.3-1.101,1.8-2.101,1.8h-0.1c-0.9,0-1.8-0.6-1.8-1.8v-2.5
	c0-1.2,0.899-1.7,1.8-1.7h0.1c0.9,0,2.101,0.4,2.101,1.7V583.7z"/>
<path fill="none" stroke="#000000" d="M279.5,583.7c0,1.3-0.8,1.8-1.8,1.8h-0.1c-0.899,0-2.1-0.6-2.1-1.8v-2.5
	c0-1.2,1.2-1.7,2.1-1.7h0.101c0.899,0,1.8,0.4,1.8,1.7L279.5,583.7L279.5,583.7z"/>
<line fill="none" stroke="#000000" x1="268" y1="585.5" x2="278" y2="585.5"/>
<text transform="matrix(0.7571 0 0 1 254.2559 705.4414)" font-family="'Verdana-Bold'" font-size="22.4823">*</text>
<text transform="matrix(0.7571 0 0 1 269.0308 700.1348)" font-family="'Verdana-Bold'" font-size="11.2411">+</text>
<text transform="matrix(0.7571 0 0 1 304.6084 701.3828)" font-family="'Verdana-Bold'" font-size="16.8617">0</text>
<polyline fill="none" stroke="#000000" points="317.5,699 317.5,700.5 326.5,700.5 326.5,699 "/>
<polygon fill="none" stroke="#000000" points="363.199,689.3 366.199,694 364.5,694.4 364.6,698.5 361.5,698.5 361.5,693.5 
	359.5,693.5 "/>
<line fill="none" stroke="#000000" x1="372.5" y1="687" x2="372.5" y2="699"/>
<line fill="none" stroke="#000000" x1="376.5" y1="687" x2="376.5" y2="699"/>
<line fill="none" stroke="#000000" x1="370" y1="690.5" x2="379" y2="690.5"/>
<line fill="none" stroke="#000000" x1="370" y1="695.5" x2="379" y2="695.5"/>
<text transform="matrix(0.7571 0 0 1 305.0225 660.791)" font-family="'Verdana'" font-size="16.8617">8</text>
<text transform="matrix(0.7571 0 0 1 248.375 660.0098)" font-family="'Verdana'" font-size="16.8617">7</text>
<text transform="matrix(0.7571 0 0 1 248.375 623.5547)" font-family="'Verdana'" font-size="16.8617">4</text>
<text transform="matrix(0.7571 0 0 1 249.3501 584.1328)" font-family="'ArialMT'" font-size="16.8617">1</text>
<text transform="matrix(0.7571 0 0 1 305.1123 584.4434)" font-family="'ArialMT'" font-size="16.8617">2</text>
<text transform="matrix(0.7571 0 0 1 305.1123 625.0762)" font-family="'ArialMT'" font-size="16.8617">5</text>
<text transform="matrix(0.7571 0 0 1 355 660.791)" font-family="'ArialMT'" font-size="16.8617">9</text>
<text transform="matrix(0.7571 0 0 1 355 625.0762)" font-family="'ArialMT'" font-size="16.8617">6</text>
<text transform="matrix(0.7571 0 0 1 357 584.1328)" font-family="'ArialMT'" font-size="16.8617">3</text>
<path d="M323.4,690c0,0-1.5,2.7,1,2.6c4.101-0.198,3.699-4.8,2.601-6.198c1.199,0.6,1.899,1.898,1.699,3.698
	c-0.3,2.802-1.899,4.4-6.601,4.4c-3.899,0-6.3-1.5-6.3-4.6c0-1.802,1.399-3.4,2.8-3.5c-0.6,0.5-3.6,5.1,1.5,6.5
	c-0.1-0.2-1.699-2.302,2.301-3.102c0,0,1.5-1.7-0.601-2.2c0,0,1.399-2.3,2.399-0.898C325.3,687.8,323.4,690,323.4,690z"/>
<rect x="244.5" y="493.5" stroke="#000000" stroke-miterlimit="10" width="21" height="2"/>
<rect x="376.5" y="491.5" stroke="#000000" stroke-miterlimit="10" width="21" height="2"/>
<path fill="#009245" stroke="#006837" stroke-miterlimit="10" d="M243.6,531.8l5.5-0.2c0,0,0.4-3.1,1.9-3.1h9c0,0,1.3,1,1.1,3h4.9
	c0,0-0.3-4-4.4-5H248C248,526.5,244.4,526.5,243.6,531.8z"/>
<path fill="#FF0000" stroke="#C1272D" stroke-miterlimit="10" d="M374.6,528.8l5.5-0.2c0,0,0.4-3.1,1.9-3.1h9c0,0,1.3,1,1.1,3h4.9
	c0,0-0.301-4-4.4-5H379C379,523.5,375.4,523.5,374.6,528.8z"/>
<ellipse fill="none" stroke="#C1272D" stroke-miterlimit="10" cx="385.5" cy="531" rx="4.399" ry="4"/>
<line fill="none" stroke="#C1272D" stroke-miterlimit="10" x1="386.5" y1="529" x2="386.5" y2="533"/>
<line fill="none" stroke="#C1272D" stroke-miterlimit="10" x1="384.5" y1="529" x2="384.5" y2="533"/>
</svg>
