<?xml version="1.0" encoding="utf-8"?>
<!-- Generator: Adobe Illustrator 15.0.0, SVG Export Plug-In . SVG Version: 6.00 Build 0)  -->
<!DOCTYPE svg PUBLIC "-//W3C//DTD SVG 1.1//EN" "http://www.w3.org/Graphics/SVG/1.1/DTD/svg11.dtd">
<svg version="1.1" id="Layer_1" xmlns="http://www.w3.org/2000/svg" xmlns:xlink="http://www.w3.org/1999/xlink" x="0px" y="0px"
	 width="400px" height="550px" viewBox="0 0 400 550" enable-background="new 0 0 400 550" xml:space="preserve">
<title>sign mobile phone coloring</title>
<desc>Vector coloring sign mobile phone. Author Lobaz Roman. Site www.abc-color.com</desc>
<g>
	<path fill="#FFFFFF" stroke="#000000" d="M333.7,474.9c0,22.899-18.7,41.6-41.601,41.6H125.7c-22.9,0-41.6-18.7-41.6-41.6v-416
		c0-22.9,18.7-41.6,41.6-41.6H292.1C315,17.3,333.7,36,333.7,58.9V474.9L333.7,474.9z"/>
	<path fill="#FFFFFF" stroke="#000000" d="M146.5,410.4c0,6.899-2.8,12.5-6.2,12.5h-29.1c-3.4,0-6.2-5.601-6.2-12.5V393.8
		c0-6.899,2.8-12.5,6.2-12.5h29.1c3.4,0,6.2,5.601,6.2,12.5V410.4z"/>
	<path fill="#FFFFFF" stroke="#000000" d="M202.7,410.4c0,6.899-2.8,12.5-6.2,12.5h-29.1c-3.4,0-6.2-5.601-6.2-12.5V393.8
		c0-6.899,2.8-12.5,6.2-12.5h29.1c3.4,0,6.2,5.601,6.2,12.5V410.4z"/>
	<path fill="#FFFFFF" stroke="#000000" d="M258.8,410.4c0,6.899-2.8,12.5-6.2,12.5h-29.1c-3.4,0-6.2-5.601-6.2-12.5V393.8
		c0-6.899,2.8-12.5,6.2-12.5h29.1c3.4,0,6.2,5.601,6.2,12.5V410.4z"/>
	<path fill="#FFFFFF" stroke="#000000" d="M312.9,410.4c0,6.899-2.801,12.5-6.2,12.5H277.6c-3.399,0-6.199-5.601-6.199-12.5V393.8
		c0-6.899,2.8-12.5,6.199-12.5H306.7c3.399,0,6.2,5.601,6.2,12.5V410.4z"/>
	<path fill="#FFFFFF" stroke="#000000" d="M146.5,472.8c0,6.9-2.8,12.5-6.2,12.5h-29.1c-3.4,0-6.2-5.6-6.2-12.5v-16.6
		c0-6.9,2.8-12.5,6.2-12.5h29.1c3.4,0,6.2,5.6,6.2,12.5V472.8z"/>
	<path fill="#FFFFFF" stroke="#000000" d="M202.7,472.8c0,6.9-2.8,12.5-6.2,12.5h-29.1c-3.4,0-6.2-5.6-6.2-12.5v-16.6
		c0-6.9,2.8-12.5,6.2-12.5h29.1c3.4,0,6.2,5.6,6.2,12.5V472.8z"/>
	<path fill="#FFFFFF" stroke="#000000" d="M258.8,472.8c0,6.9-2.8,12.5-6.2,12.5h-29.1c-3.4,0-6.2-5.6-6.2-12.5v-16.6
		c0-6.9,2.8-12.5,6.2-12.5h29.1c3.4,0,6.2,5.6,6.2,12.5V472.8z"/>
	<path fill="#FFFFFF" stroke="#000000" d="M312.9,472.8c0,6.9-2.801,12.5-6.2,12.5H277.6c-3.399,0-6.199-5.6-6.199-12.5v-16.6
		c0-6.9,2.8-12.5,6.199-12.5H306.7c3.399,0,6.2,5.6,6.2,12.5V472.8z"/>
	<path fill="#FFFFFF" stroke="#000000" d="M308.7,320.6c0,17.5-11.2,31.7-25,31.7H134c-13.8,0-25-14.1-25-31.7V67.5
		c0-17.4,11.2-31.7,25-31.7h149.8c13.8,0,25,14.2,25,31.7v253.1H308.7z"/>
</g>
</svg>
