<?xml version="1.0" encoding="utf-8"?>
<!-- Generator: Adobe Illustrator 15.0.0, SVG Export Plug-In . SVG Version: 6.00 Build 0)  -->
<!DOCTYPE svg PUBLIC "-//W3C//DTD SVG 1.1//EN" "http://www.w3.org/Graphics/SVG/1.1/DTD/svg11.dtd">
<svg version="1.1" id="Layer_1" xmlns="http://www.w3.org/2000/svg" xmlns:xlink="http://www.w3.org/1999/xlink" x="0px" y="0px"
	 width="550px" height="400px" viewBox="0 0 550 400" enable-background="new 0 0 550 400" xml:space="preserve">
<title>phone powder case coloring</title>
<desc>Vector coloring phone powder case. Author Lobaz Roman. Site www.abc-color.com</desc>
<g>
	<path fill="#FFFFFF" stroke="#000000" d="M355.7,15.9C395,28.6,414.1,78.7,398.2,127.6c-11.601,35.6-38.3,60.8-67.3,67.1
		c-10.9,2.3-22,2-32.801-1.5c-12.6-4.1-23.1-12-31.1-22.4c-16.9-22.2-22.2-56-11.5-89.3C271.5,32.5,316.3,3.1,355.7,15.9z
		 M389.9,122.3c14.5-44.5-2.9-90-38.7-101.6c-35.8-11.6-76.5,15-90.9,59.6c-14.5,44.5,2.9,90,38.7,101.6S375.5,166.8,389.9,122.3z"
		/>
	<path fill="#FFFFFF" stroke="#000000" d="M351.2,20.8c35.8,11.6,53.1,57.1,38.7,101.6C375.5,166.9,334.8,193.6,299,182
		s-53.1-57.1-38.7-101.6C274.7,35.8,315.4,9.1,351.2,20.8z M380.7,87.2c1.899-4.2,0.899-8.8-2.4-10.3l-78.8-29.6
		c-3.3-1.5-7.5,0.6-9.4,4.8l-28,60.1c-1.9,4.2-0.9,8.8,2.4,10.3l77.8,37.4c3.3,1.5,7.5-0.6,9.4-4.8L380.7,87.2z M360.3,52
		c1.101-2.4,0.8-4.8-0.7-5.4c-1.399-0.6-3.399,0.8-4.399,3.2c-1,2.4-0.8,4.8,0.7,5.4C357.2,55.7,359.2,54.4,360.3,52z M344.5,42.1
		c0.9-2.4,0.7-4.8-0.7-5.3c-1.3-0.5-3.1,1.1-4,3.5c-0.899,2.4-0.7,4.8,0.7,5.3C341.8,46.2,343.6,44.6,344.5,42.1z M324.3,41.3
		c1.101-1.9,1.2-3.9,0.2-4.4s-2.6,0.6-3.6,2.5c-1.101,1.9-1.2,3.9-0.2,4.4C321.6,44.3,323.2,43.2,324.3,41.3z"/>
	<path fill="#FFFFFF" stroke="#000000" d="M378.3,76.9c3.3,1.5,4.4,6.1,2.4,10.3l-29,67.8c-1.9,4.2-6.101,6.3-9.4,4.8l-77.8-37.4
		c-3.3-1.5-4.4-6.1-2.4-10.3l27.9-60c1.9-4.2,6.1-6.3,9.4-4.8L378.3,76.9z"/>
	<path fill="#FFFFFF" stroke="#000000" d="M359.6,46.6c1.4,0.6,1.601,3,0.7,5.4c-1.1,2.4-3,3.8-4.399,3.2c-1.4-0.6-1.601-3-0.7-5.4
		C356.2,47.4,358.2,45.9,359.6,46.6z"/>
	<path fill="#FFFFFF" stroke="#000000" d="M343.9,36.9c1.3,0.5,1.6,2.9,0.699,5.3c-0.899,2.4-2.8,4-4,3.5
		c-1.3-0.5-1.6-2.9-0.699-5.3C340.8,37.9,342.6,36.3,343.9,36.9z"/>
	<path fill="#FFFFFF" stroke="#000000" d="M324.5,36.9c0.9,0.5,0.9,2.5-0.2,4.4c-1.1,1.9-2.7,3-3.6,2.5c-0.9-0.5-0.9-2.5,0.2-4.4
		C321.8,37.5,323.5,36.3,324.5,36.9z"/>
	<path fill="#FFFFFF" stroke="#000000" d="M331,194.7c-10.9,3.3-11.8,9.5-11.8,9.5c-0.5-6.8-8.9-7-11-4.8
		c-4.601-0.7-10.9-3-17.4-5.8c-6.3-2.8-12.899-6.1-18.1-8.9c-6.5-3.4-11.2-6.2-11.5-6.4c0,0,6.9,0.5,6.1-7.5l0,0
		c7.9,10.5,18.5,18.3,31.101,22.4C309,196.7,320.1,197,331,194.7z"/>
	<path fill="#FFFFFF" stroke="#000000" d="M319.1,204.2c2.5,38.2,6.601,105.6-43.1,142.1c-35,25.7-66.4,22-81.8,17.5
		c0-0.2,0.1-0.5,0.1-0.7c28.3,6.2,62.7-5.5,87.601-32.899c32.199-35.2,37.399-83.7,13-111.9c-1.5-1.7-3.101-3.399-4.801-4.899
		C278.7,203,264,197.8,248.3,197.4c-13.8-0.3-28.4,3.2-42.2,10.3l0,0c0,0,25.1-21.8,42.2-31c11-5.9,12.7,1.5,12.7,1.5
		c-11,3.3-17.8,12.1-11,12.3c5.5,0.2,11.7,1.5,17.7,3.4c6.7,2.2,13.2,5.3,18.3,8.8c4.7,3.2,8.2,6.7,9.6,10.2
		c0.301,0.899,1.801,0.899,3.801-0.5c3.5-2.2,6-10.4,8.8-13.2C310.3,197.2,318.7,197.4,319.1,204.2z"/>
	<path fill="#FFFFFF" stroke="#000000" d="M295.1,247.9c5.601,0.699,9.801,4.199,9.301,7.699s-5.301,5.9-10.9,5.2
		c-5.5-0.7-9.8-4.2-9.3-7.7S289.6,247.2,295.1,247.9z"/>
	<path fill="#FFFFFF" stroke="#000000" d="M308.2,199.4c-2.8,2.8-5.3,11-8.8,13.2c-2,1.301-3.4,1.301-3.801,0.5
		C294.2,209.7,290.7,206.2,286,202.9c-0.1-0.301-2.8-10.2,4.7-9.3C297.2,196.4,303.6,198.7,308.2,199.4z"/>
	<path fill="#FFFFFF" stroke="#000000" d="M292.1,266.3c5.5,1,9.5,4.8,8.801,8.3c-0.7,3.5-5.7,5.601-11.2,4.601s-9.5-4.7-8.8-8.3
		C281.6,267.3,286.6,265.3,292.1,266.3z"/>
	<path fill="#FFFFFF" stroke="#000000" d="M295,218.4C319.4,246.6,314.2,295.1,282,330.3c-25,27.3-59.4,39.101-87.6,32.9
		c1.6-8.2,19.2-32.9,33.9-41.4c6.5-3.8,37.8-9.899,41.6-56.3C271.9,240.4,295,218.4,295,218.4L295,218.4z M304.4,255.6
		c0.5-3.6-3.7-7.1-9.301-7.699c-5.6-0.7-10.399,1.6-10.899,5.199c-0.5,3.601,3.7,7.101,9.3,7.7C299.1,261.5,304,259.2,304.4,255.6z
		 M301,274.6c0.7-3.6-3.3-7.3-8.8-8.3S281.6,267.4,281,270.9c-0.7,3.6,3.3,7.3,8.8,8.3S300.3,278.2,301,274.6z M294.4,294.6
		c1.199-3.399-2.2-7.699-7.5-9.5c-5.301-1.8-10.601-0.5-11.7,2.9c-1.2,3.4,2.2,7.7,7.5,9.5S293.3,298,294.4,294.6z M284.9,313.5
		c1.899-3-0.4-7.9-5.2-10.9c-4.8-3-10.2-2.899-12.1,0.2c-1.9,3,0.4,7.9,5.2,10.9C277.6,316.6,283,316.5,284.9,313.5z M272.7,328
		c2.4-2.6,1.1-7.9-3-11.7c-4.2-3.8-9.4-4.8-11.9-2.1c-2.4,2.6-1.1,7.899,3,11.7C264.9,329.7,270.2,330.6,272.7,328z M258,341.4
		c3.2-1.601,3.7-7.101,1.1-12c-2.6-5-7.3-7.7-10.5-6.101c-3.2,1.601-3.7,7.101-1.1,12C250.2,340.3,254.9,343,258,341.4z
		 M241.4,350.6c3.5-0.899,5.2-6,3.8-11.5c-1.4-5.5-5.3-9.1-8.8-8.3c-3.5,0.9-5.2,6-3.8,11.5C234,347.7,237.9,351.4,241.4,350.6z
		 M228,347.3c1-5.5-1-10.6-4.6-11.2c-3.6-0.699-7.3,3.301-8.3,8.801c-1.1,5.5,1,10.6,4.6,11.199C223.2,356.8,226.9,352.8,228,347.3z
		"/>
	<path fill="#FFFFFF" stroke="#000000" d="M295,218.4L295,218.4c0,0-23,22-25.1,47c-4,46.399-35.2,52.5-41.6,56.3
		c-14.7,8.6-32.3,33.3-33.9,41.399c-3.5-0.8-6.9-1.8-10.2-3.199H184c-6.5-2.601-12.5-6.301-17.8-11.2c-6.3-5.7-11-12.601-14.4-20.2
		c25-28.9,24.3-35.9,27.1-50c3.2-16.2,12.5-37,35.7-44.9c17.7-6.1,33.6-36.2,33.6-36.2l0,0c15.7,0.3,30.399,5.5,41.8,16
		C291.9,215,293.5,216.7,295,218.4z M273.5,224.2c0.5-0.8,0.4-1.8-0.3-2.2c-0.7-0.4-1.8-0.1-2.4,0.7c-0.5,0.8-0.4,1.8,0.3,2.2
		C271.9,225.4,272.9,225,273.5,224.2z M266.6,220.5c0.5-0.8,0.4-1.8-0.4-2.2c-0.7-0.399-1.8-0.1-2.4,0.7c-0.5,0.8-0.4,1.8,0.3,2.2
		C265,221.7,266.1,221.3,266.6,220.5z M265.5,228.8c0.5-0.8,0.4-1.8-0.4-2.2c-0.7-0.399-1.8-0.1-2.4,0.7c-0.5,0.8-0.4,1.8,0.3,2.2
		C263.9,229.9,264.9,229.6,265.5,228.8z M259.8,216.9c0.5-0.801,0.4-1.801-0.4-2.2c-0.7-0.4-1.8-0.101-2.4,0.7
		c-0.5,0.8-0.4,1.8,0.4,2.199C258.2,218,259.3,217.7,259.8,216.9z M258.9,225.3c0.5-0.8,0.4-1.8-0.3-2.2c-0.7-0.399-1.8-0.1-2.4,0.7
		c-0.5,0.8-0.4,1.8,0.3,2.2C257.4,226.4,258.4,226.1,258.9,225.3z M251.4,212.4c0.5-0.801,0.4-1.801-0.3-2.2
		c-0.7-0.4-1.8-0.101-2.4,0.7c-0.5,0.8-0.4,1.8,0.3,2.199C249.8,213.5,250.8,213.2,251.4,212.4z M251.1,221.1
		c0.5-0.8,0.4-1.8-0.3-2.199c-0.7-0.4-1.8-0.101-2.4,0.699c-0.5,0.801-0.4,1.801,0.4,2.2C249.5,222.2,250.6,221.9,251.1,221.1z
		 M250.3,295.5c13.3-17.8,12.3-40.9-2.1-51.6c-14.4-10.801-36.8-5.101-50,12.699c-13.3,17.801-12.3,40.9,2.1,51.601
		C214.7,319,237.1,313.2,250.3,295.5z M201.6,333.8c4.1-9.2,0.5-19.8-8-23.6s-18.7,0.7-22.8,10c-4.1,9.2-0.5,19.8,8,23.6
		C187.3,347.5,197.5,343,201.6,333.8z"/>
	<path fill="#FFFFFF" stroke="#000000" d="M286.9,285.1c5.3,1.801,8.6,6.101,7.5,9.5c-1.2,3.4-6.4,4.7-11.7,2.801
		c-5.3-1.801-8.6-6.101-7.5-9.5C276.4,284.6,281.6,283.3,286.9,285.1z"/>
	<path fill="#FFFFFF" stroke="#000000" d="M290.8,193.5c-7.5-0.9-4.8,8.9-4.7,9.3c-5.1-3.5-11.5-6.6-18.3-8.8c0,0-3.1-8.9,4.8-9.4
		C277.9,187.5,284.4,190.8,290.8,193.5z"/>
	<path fill="#FFFFFF" stroke="#000000" d="M279.7,302.5c4.8,3,7.1,7.9,5.2,10.9c-1.9,3-7.301,3.199-12.101,0.199
		s-7.1-7.899-5.2-10.899C269.5,299.6,274.9,299.5,279.7,302.5z"/>
	<path fill="#FFFFFF" stroke="#000000" d="M273.1,222.1c0.7,0.4,0.9,1.4,0.3,2.2c-0.5,0.8-1.6,1.101-2.4,0.7
		c-0.7-0.4-0.9-1.4-0.3-2.2C271.4,221.9,272.3,221.6,273.1,222.1z"/>
	<path fill="#FFFFFF" stroke="#000000" d="M269.6,316.3c4.2,3.8,5.5,9,3,11.7c-2.4,2.6-7.8,1.7-11.9-2.1c-4.2-3.801-5.5-9-3-11.7
		C260.1,311.6,265.5,312.5,269.6,316.3z"/>
	<path fill="#FFFFFF" stroke="#000000" d="M272.5,184.6c-7.9,0.5-4.8,9.4-4.8,9.4c-5.9-2-12.1-3.2-17.7-3.4c-6.8-0.2,0-9,11-12.3
		C261.4,178.4,266.1,181.2,272.5,184.6z"/>
	<path fill="#FFFFFF" stroke="#000000" d="M266.2,218.4c0.7,0.399,0.9,1.399,0.4,2.199c-0.5,0.801-1.6,1.101-2.4,0.7
		c-0.7-0.399-0.9-1.399-0.3-2.2C264.4,218.3,265.5,218,266.2,218.4z"/>
	<path fill="#FFFFFF" stroke="#000000" d="M265.1,226.6c0.7,0.4,0.9,1.4,0.4,2.2s-1.6,1.101-2.4,0.7c-0.7-0.4-0.9-1.4-0.3-2.2
		C263.4,226.6,264.4,226.2,265.1,226.6z"/>
	<path fill="#FFFFFF" stroke="#000000" d="M259.5,214.7c0.7,0.399,0.9,1.399,0.4,2.2c-0.5,0.8-1.6,1.1-2.4,0.699
		c-0.7-0.399-0.9-1.399-0.4-2.199C257.6,214.6,258.7,214.3,259.5,214.7z"/>
	<path fill="#FFFFFF" stroke="#000000" d="M259.2,329.4c2.6,5,2,10.399-1.1,12c-3.2,1.6-7.9-1.101-10.5-6.101s-2-10.399,1.1-12
		C251.9,321.7,256.6,324.4,259.2,329.4z"/>
	<path fill="#FFFFFF" stroke="#000000" d="M258.6,223.1c0.7,0.4,0.9,1.4,0.3,2.2c-0.5,0.8-1.6,1.101-2.4,0.7
		c-0.7-0.4-0.9-1.4-0.3-2.2C256.8,223,257.8,222.7,258.6,223.1z"/>
	<path fill="#FFFFFF" stroke="#000000" d="M251,210.2c0.7,0.399,0.9,1.399,0.3,2.2c-0.5,0.8-1.6,1.1-2.4,0.699
		c-0.7-0.399-0.9-1.399-0.3-2.199C249.2,210.1,250.2,209.8,251,210.2z"/>
	<path fill="#FFFFFF" stroke="#000000" d="M250.8,218.8c0.7,0.4,0.9,1.4,0.3,2.2c-0.5,0.8-1.6,1.1-2.4,0.7c-0.7-0.4-0.9-1.4-0.4-2.2
		C248.9,218.8,250,218.4,250.8,218.8z"/>
	<path fill="#FFFFFF" stroke="#000000" d="M248.3,243.8c14.4,10.8,15.4,33.9,2.1,51.601c-13.3,17.699-35.6,23.5-50.1,12.699
		c-14.4-10.8-15.4-33.899-2.1-51.6C211.4,238.8,233.8,233.1,248.3,243.8z"/>
	<path fill="#FFFFFF" stroke="#000000" d="M248.3,197.4L248.3,197.4c0,0-15.9,30.2-33.6,36.3c-23.2,7.899-32.5,28.7-35.7,44.899
		c-2.8,14.101-2.1,21.101-27.1,50c-12.4-28.399-4.4-67.199,22.6-96.699c9.5-10.4,20.3-18.5,31.6-24.2
		C219.9,200.7,234.5,197.2,248.3,197.4z M215.1,226.9c2.6-1.301,3-5.601,1-9.601s-5.7-6.2-8.3-4.899c-2.6,1.3-3,5.6-1,9.6
		C208.7,226,212.5,228.1,215.1,226.9z M202.5,234.1c2.5-1.5,2.7-5.8,0.4-9.6c-2.2-3.9-6.1-5.9-8.6-4.4s-2.6,5.801-0.4,9.601
		C196.2,233.6,200.1,235.6,202.5,234.1z M191.3,243.1c2.2-1.8,1.8-6.1-1.1-9.6c-2.8-3.5-6.9-4.9-9.2-3.1c-2.2,1.8-1.8,6.1,1.1,9.6
		C185,243.6,189,244.9,191.3,243.1z M182.3,252.8c1.8-2.2,0.4-6.3-3.2-9.1s-7.9-3.2-9.6-0.9c-1.8,2.2-0.4,6.3,3.2,9.101
		C176.2,254.7,180.5,255.1,182.3,252.8z M176.3,263.4c1.3-2.601-0.8-6.301-4.8-8.4s-8.3-1.7-9.6,0.9c-1.3,2.6,0.8,6.3,4.8,8.399
		C170.7,266.3,175,266,176.3,263.4z M171.9,272.6c0.4-2.8-3-5.699-7.4-6.199c-4.5-0.601-8.4,1.3-8.8,4.199c-0.4,2.801,3,5.7,7.4,6.2
		C167.6,277.4,171.5,275.5,171.9,272.6z M162,289.9c4.5-0.5,7.9-3.101,7.6-6c-0.3-2.801-4.2-4.801-8.6-4.4c-4.5,0.5-7.9,3.1-7.6,6
		C153.7,288.4,157.5,290.4,162,289.9z M164.8,303.8c3.9-2.2,5.9-6.1,4.4-8.6s-5.8-2.601-9.6-0.4c-3.9,2.2-5.9,6.101-4.4,8.601
		C156.5,305.9,160.9,306,164.8,303.8z"/>
	<path fill="#FFFFFF" stroke="#000000" d="M245.2,339.1c1.4,5.5-0.3,10.601-3.8,11.5c-3.5,0.9-7.5-2.8-8.8-8.3
		c-1.4-5.5,0.3-10.6,3.8-11.5C239.9,329.9,243.8,333.6,245.2,339.1z"/>
	<path fill="#FFFFFF" stroke="#000000" d="M223.4,336.1c3.6,0.7,5.6,5.7,4.6,11.2c-1.1,5.5-4.8,9.4-8.3,8.8
		c-3.6-0.699-5.6-5.699-4.6-11.199C216.2,339.4,219.9,335.5,223.4,336.1z"/>
	<path fill="#FFFFFF" stroke="#000000" d="M216,217.2c2,4,1.6,8.3-1,9.6s-6.3-0.899-8.3-4.899s-1.6-8.301,1-9.601
		C210.2,211,214,213.2,216,217.2z"/>
	<path fill="#FFFFFF" stroke="#000000" d="M203,224.4c2.2,3.899,2.1,8.199-0.4,9.6s-6.3-0.5-8.6-4.4c-2.2-3.899-2.1-8.199,0.4-9.6
		C196.8,218.6,200.7,220.6,203,224.4z"/>
	<path fill="#FFFFFF" stroke="#000000" d="M193.6,310.2c8.5,3.8,12.1,14.3,8,23.6c-4.1,9.2-14.3,13.7-22.8,10
		c-8.5-3.8-12.1-14.3-8-23.6C174.9,310.9,185.1,306.4,193.6,310.2z M193.9,330.4c2-4.601,0.3-9.9-4-11.801
		c-4.2-1.8-9.4,0.301-11.4,5c-2,4.601-0.3,9.9,4,11.801C186.7,337.2,191.8,335,193.9,330.4z"/>
	<path fill="#FFFFFF" stroke="#000000" d="M189.9,318.6c4.2,1.801,6,7.101,4,11.801c-2,4.6-7.1,6.899-11.4,5
		c-4.2-1.801-6.1-7.101-4-11.801C180.5,319,185.6,316.7,189.9,318.6z"/>
	<path fill="#FFFFFF" stroke="#000000" d="M190.2,233.5c2.8,3.5,3.3,7.8,1.1,9.6c-2.2,1.801-6.3,0.5-9.2-3.1
		c-2.8-3.5-3.3-7.8-1.1-9.6C183.3,228.7,187.5,230,190.2,233.5z"/>
	<path fill="#FFFFFF" stroke="#000000" d="M179.1,243.7c3.6,2.8,4.9,6.899,3.2,9.1c-1.8,2.2-6.1,1.8-9.6-0.899
		c-3.6-2.801-4.9-6.9-3.2-9.101C171.3,240.5,175.6,240.9,179.1,243.7z"/>
	<path fill="#FFFFFF" stroke="#000000" d="M171.5,255.1c4,2,6.1,5.801,4.8,8.4c-1.3,2.6-5.6,3-9.6,0.9c-4-2.101-6.1-5.801-4.8-8.4
		C163.2,253.4,167.5,253,171.5,255.1z"/>
	<path fill="#FFFFFF" stroke="#000000" d="M164.5,266.4c4.5,0.6,7.8,3.399,7.4,6.199c-0.4,2.801-4.3,4.7-8.8,4.2
		c-4.5-0.6-7.8-3.399-7.4-6.2C156.1,267.7,160,265.8,164.5,266.4z"/>
	<path fill="#FFFFFF" stroke="#000000" d="M169.6,284c0.3,2.9-3.1,5.5-7.6,6s-8.3-1.5-8.6-4.4c-0.3-2.899,3.1-5.5,7.6-6
		C165.4,279.1,169.3,281.1,169.6,284z"/>
	<path fill="#FFFFFF" stroke="#000000" d="M169.1,295.1c1.5,2.5-0.5,6.301-4.4,8.601c-3.9,2.3-8.2,2.1-9.6-0.4
		c-1.5-2.5,0.5-6.3,4.4-8.6C163.3,292.5,167.7,292.7,169.1,295.1z"/>
</g>
</svg>
