<?xml version="1.0" encoding="utf-8"?>
<!-- Generator: Adobe Illustrator 15.0.0, SVG Export Plug-In . SVG Version: 6.00 Build 0)  -->
<!DOCTYPE svg PUBLIC "-//W3C//DTD SVG 1.1//EN" "http://www.w3.org/Graphics/SVG/1.1/DTD/svg11.dtd">
<svg version="1.1" id="layer_x5F_www.ABC-color.com"
	 xmlns="http://www.w3.org/2000/svg" xmlns:xlink="http://www.w3.org/1999/xlink" x="0px" y="0px" width="567px" height="822px"
	 viewBox="0 0 567 822" enable-background="new 0 0 567 822" xml:space="preserve">
<path fill="#FFFFFF" stroke="#000000" stroke-width="0.5" d="M428.3,182c-4.898-1.5-8.1-18.4-8.398-16.4l-2.7,0.1
	c0.3,3.3,0.6,10.9-1.4,13.3c0,0-2.2-8-4.398-6.2l-0.9-3.4c0,0-1.1-1.7-2.7-3.7l0,0c-1.2-1.5-2.7-3.2-4.2-4.4c-1.3-1-2.5-1.6-3.5-1.5
	c-1.8,0.3-2.3,0.4-4.398,1.1c-1.4-6-1.102-10.6-0.102-13.8c3.7-0.7,7.4-1.2,9.9-1.1c1.2,0.1,2.2,0.3,2.7,0.7
	c1.6,1.2,16.1,11.2,16.1,11.2c2.7,4.2,2.8,4.4,3.8,11.4c0.2,1.3,0.4,2.8,0.7,4.7C425.3,173.6,428.3,182,428.3,182z"/>
<path fill="#FFFFFF" stroke="#000000" stroke-width="0.5" d="M203.8,342.3c23.9,158.3-84.2,259.7-86.6,262
	c-0.8-3.5-4.7-18.7-11.4-38.3c-2.3-6.8-5-14.2-8.1-21.7C82.4,506,58.3,462.4,26.4,454.5c-0.2,0-0.4-0.1-0.6-0.1
	c21.5-13.2,35.4-49.801,43.3-79.5l-0.2,0.6c6.5-24.4,9.2-44.6,9.2-44.6c2.5-4,4.5-16.5,4.5-16.5l2.5,1.5c0,0,1,4.7,2.3,8.2
	c0.8,2.3,1.8,4,2.7,3.8c1.4-0.4,2-2.1,2.1-4.2c0.2-3.8-1.1-8.8-1.1-8.8s0-0.3,0.1-0.7c3.5-4.1,62.9,43.2,62.9,43.2
	c4.6,2.9,9.6,3.7,14.5,3.4C186.4,359.3,203.8,342.3,203.8,342.3z"/>
<path fill="#FFFFFF" stroke="#000000" stroke-width="0.5" d="M410.3,169.4l0.9,3.4l1.898,6.7c1.102,0.5,1.9,0.3,2.5-0.4
	c2-2.4,1.7-10.1,1.4-13.3l2.7-0.1c0.3-2,3.5,15,8.398,16.4c2.7,0.8,0.302-8.1,0.302-8.1c-0.302-1.8-0.5-3.4-0.7-4.7h0.398
	c0,0,50,130,42,143c0,0-52-66-82-30C396.8,270.3,410.3,169.4,410.3,169.4z"/>
<path fill="#FFFFFF" stroke="#000000" stroke-width="0.5" d="M78.3,330.8c-0.7,1.1-1.2,1.5-1.6,1.3c0.5-2.1,1.8-8.6-1.1-9.9
	c0.3-6.7,1.2-14.4,1.2-14.4c1.6-4,3.6-7.8,5.2-10.6c1.6-2.8,2.9-4.8,3.2-5.3l0,0c2.9,2.3,6,5.7,8.7,10.6c0,0.1-0.1,0.2-0.1,0.3
	c-0.3,1.5-0.8,3.5-1.1,5.3c-0.5,2.5-1,4.9-1.2,6c-0.1,0.2-0.2,0.4-0.1,0.7c0,0,1.2,5,1.1,8.8h-0.3c0,0-1.8-4.3-2.8-3
	c-1,1.2-1.5,1.5-1.7,3.5c-1.3-3.5-2.3-8.2-2.3-8.2l-2.5-1.5C82.8,314.3,80.8,326.8,78.3,330.8z"/>
<path fill="#FFFFFF" stroke="#000000" stroke-width="0.5" d="M220.9,163.9c4.7-1.3,11.3-25.2,11.3-25.2h0.2c0,7.5,2.2,15.9,7.8,24.8
	c0,0,1,0.7,3.3,0.7c0.8,0,4.8-0.8,9.9-2.5l0,0c-1,2.1-4.6,11.2-4.6,28.9c0,0-16-4.7-17.7-2.7H231c-0.7-9-9.5-22.3-10.6-24H220.9z"/>
<path fill="#FFFFFF" stroke="#000000" stroke-width="0.5" d="M198.9,184.6c0.4-0.7,0.6-1.2,0.7-1.3
	C199.5,183.3,199.1,183.8,198.9,184.6z M211.9,104.3c0,0,11-25.7,37.3-25c0,0,38.2,5.8,49.3,23.9c1.3,2.2,2.3,4.6,2.7,7.1
	c0,0,5.7,33.3-14,19.3c0,0,3.7-4,4-5.3c0.3-1.3-0.3-11.3-0.3-11.3l-4,7c0,0-3.3-8-4.3-10.7c-1-2.7-3.3,5-3.3,5l-7-8.7v6.7l-8-13.7
	l-1,5.7l-7-6.7c0,0-23.9,16-23.8,41.2h-0.2c0,0-6.7,23.8-11.3,25.2h-0.4c1.1,1.7,9.9,15,10.6,24c0.4,4.3-1.1,7.7-6.2,8.3
	c-16.3,2-20.7,3-24.3-3.7c-2.2-4-2.1-6.6-1.7-8c-1.4,2.5-4.6,8-9.1,11.6c-0.6,0.5-2.4,0.5-4.8,0.3c0,0,0,0-0.1,0
	c-4.7-1-9.3-1.9-13.5-2.7c-2.9-0.7-4.9-1.3-4.9-1.3S156.9,165.6,211.9,104.3z"/>
<path fill="#FFFFFF" stroke="#000000" stroke-width="0.5" d="M257,152.6c1.9-0.6,3.6-1,3.6-1c-3.7-1-6.7-3.7-6.7-3.7l-2,1
	c0,0,0.7-2.7-2.3-4c-3-1.3-7-4.3-7-4.3s0.3,9,2,11.3c1.7,2.3,6,4,7.7,2.7C253.1,153.9,255.2,153.2,257,152.6z M285.2,130.7
	c-2.6,2.4-3.9,7.5-3.9,7.5c-3.9,12.9-17.9,20.1-27.7,23.5l0,0l0,0c-5.1,1.8-9.1,2.5-9.9,2.5c-2.3,0-3.3-0.7-3.3-0.7
	c-5.6-9-7.8-17.3-7.8-24.8c-0.1-25.2,23.8-41.2,23.8-41.2l7,6.7l1-5.7l8,13.7v-6.7l7,8.7c0,0,2.3-7.7,3.3-5c1,2.7,4.3,10.7,4.3,10.7
	l4-7c0,0,0.7,10,0.3,11.3c-0.399,1.3-4,5.3-4,5.3C286.5,129.7,285.8,130.1,285.2,130.7z M271.6,127.6c-1.4-0.1-4.3,3.3-4.3,3.3
	c1.3,6,8,6.3,8,6.3s4.2,1.4,4-2.7C278.9,127.3,271.6,127.6,271.6,127.6z M261.3,123.9c0-1-0.5-10.2-14-9.7c0,0-4.5,10.5,9.3,11
	C256.6,125.3,261.3,124.9,261.3,123.9z"/>
<path fill="#FFFFFF" stroke="#000000" stroke-width="0.5" d="M253.5,161.7L253.5,161.7L253.5,161.7L253.5,161.7z"/>
<path fill="#FFFFFF" stroke="#000000" stroke-width="0.5" d="M267.6,166.3c-2.7,1.2-12.3-3.6-14.1-4.5l0,0l0,0
	c9.8-3.4,23.8-10.6,27.7-23.5c0,0,1.3-5.2,3.899-7.5c-0.5,3.7-2.899,20.1-7.601,29.3l0.1,0.1c-3.3,2-6.5,4-8.4,5.1
	C268.2,165.8,267.6,166.3,267.6,166.3z"/>
<path fill="#FFFFFF" stroke="#000000" stroke-width="0.5" d="M271.6,127.6c0,0,7.3-0.3,7.7,7c0.2,4-4,2.7-4,2.7s-6.7-0.3-8-6.3
	C267.3,130.9,270.2,127.5,271.6,127.6z M270.9,132.6c0,1.4,1.2,2.5,2.7,2.5s2.7-1.1,2.7-2.5s-1.2-2.5-2.7-2.5
	S270.9,131.2,270.9,132.6z"/>
<path fill="#FFFFFF" stroke="#000000" stroke-width="0.5" d="M76.6,332.1c0.4,0.1,0.9-0.3,1.6-1.3c0,0-2.7,20.2-9.2,44.6l0.2-0.6
	c-8,29.8-21.8,66.3-43.3,79.5c0.2,0,0.4,0.102,0.6,0.102l-0.2,0.898c0,0,13.9,26.102,28.1,54.7l-0.6,0.3L35.9,525
	c-0.1,0.1-0.2,0.1-0.3,0.3c0,0,8.3,47.3,53.7,86.7c0,0,25.7,36.3,34.7,36l0,0c0.3-0.5,11.3-15.3,10.8-21.2l0.2-0.2
	c13.8,16.2,50.1,58.4,57.6,64c0,0,22.2,30.7,74.2,2.2c-3.2,6.602-5.9,11.3-7.5,14c0,0,7.7,12,21.2,4.9c23.1,4.5,57.6,8.6,63.8-5.9
	c0,0,18.4,12.102,20.9-1.8c15.898-1.7,36.398-8.7,43.5-32.1C419.6,686.4,429.6,663.1,431.1,659.3c3-1.2,6-2.398,9.7-4
	c13.4-9.6,16.4-24.1,16.9-28.1l0,0c0.3-0.3,0.5-0.7,0.898-1.101c6.802-1.801,54.102-15.399,59.7-35.801c5,2,32-20,33-25
	c0.8-3.898,2.8-17.699,3.602-23.5c0.3-0.898,0.398-1.699,0.398-2.5c9.5-18-81.898-142.1-92.1-155.8c-27.8-85.2,7.1-71.2,7.1-71.2
	c8-13-42-143-42-143H427.9c-1-7-1.102-7.1-3.802-11.4c0,0-14.5-10.1-16.1-11.2c-0.5-0.4-1.5-0.6-2.7-0.7v-0.2c0.9-1.9-6-5.4-6-5.4
	c-10.8,0.3-18.6,6.9-22.1,10.5c-0.2,0.2-0.3,0.3-0.5,0.5c-1.102,1.2-1.7,2-1.7,2c-28,8.4-52.8,17.1-53.4,17.4l-38.5-3l-0.5-0.2
	c1.6-4.5,6-11.1,6-12.8c0-1-5.601,2.1-11.101,5.3l-0.1-0.1c4.7-9.1,7.1-25.6,7.6-29.3c0.601-0.6,1.3-1,2.101-1.1
	c19.699,14,14-19.3,14-19.3c-0.399-2.5-1.399-4.9-2.699-7.1l0.398-0.2c-1.3-7.3,16-16,16-16c-3.3-4.7-16.699,0.3-16.699,0.3
	c4.301-4.3,1.301-15,1.301-15c-7.5-3.2-18.4,4.9-19,5.3C283,73.9,278,64,278,64c-6.1,0.8-10,5.9-11.6,8.4c1.4-4.3-5.1-11.4-5.1-11.4
	C260,75.7,249,79.3,249,79.3c-26.3-0.7-37.3,25-37.3,25c-55,61.3-45.3,88.3-45.3,88.3s2,0.5,4.9,1.3c-11.7-2.1-20.9-3.3-25.2-2.1
	c8.7-2.5,26.7,25.8,26.7,25.8s-19.2,34.7-26.7,38.7c-35.6,24-34.8,22.3-47,29l-22.5,2c-1,3.5,4.7,9.8,4.7,9.8h0.6
	c-1.6,2.9-3.6,6.6-5.2,10.6c0,0-0.9,7.7-1.2,14.4C75.4,327.2,75.5,331.7,76.6,332.1z M0.3,0.3h567v822"/>
<path fill="#FFFFFF" stroke="#000000" stroke-width="0.5" d="M276.3,132.6c0,1.4-1.2,2.5-2.7,2.5s-2.7-1.1-2.7-2.5s1.2-2.5,2.7-2.5
	S276.3,131.2,276.3,132.6z"/>
<path fill="#FFFFFF" stroke="#000000" stroke-width="0.5" d="M257,152.6c-1.9,0.6-3.9,1.3-4.8,2c-1.7,1.3-6-0.3-7.7-2.7
	c-1.7-2.3-2-11.3-2-11.3s2.3,13,14.3,11.7L257,152.6z"/>
<path fill="#FFFFFF" stroke="#000000" stroke-width="0.5" d="M260.6,151.6c0,0-1.7,0.4-3.6,1l-0.1-0.3c-12,1.3-14.3-11.7-14.3-11.7
	s4,3,7,4.3c3,1.3,2.3,4,2.3,4l2-1C253.9,147.9,256.9,150.6,260.6,151.6z"/>
<path fill="#FFFFFF" stroke="#000000" stroke-width="0.5" d="M250.9,120.6c0,1.5,1.4,2.7,3.2,2.7c1.8,0,3.2-1.2,3.2-2.7
	s-1.4-2.7-3.2-2.7C252.3,117.9,250.9,119.1,250.9,120.6z M256.6,125.3c-13.8-0.5-9.3-11-9.3-11c13.5-0.5,14,8.7,14,9.7
	S256.6,125.3,256.6,125.3z"/>
<path fill="#FFFFFF" stroke="#000000" stroke-width="0.5" d="M254.1,117.9c1.8,0,3.2,1.2,3.2,2.7s-1.4,2.7-3.2,2.7
	c-1.8,0-3.2-1.2-3.2-2.7S252.3,117.9,254.1,117.9z"/>
<path fill="#FFFFFF" stroke="#000000" stroke-width="0.5" d="M292.6,78l-0.5,4.7c0,0-0.3,3.3-4.199,1.5c0,0-3.699-2,0.399-4.5
	L292.6,78z"/>
<path fill="#FFFFFF" stroke="#000000" stroke-width="0.5" d="M275,74.7c0,0,1.7,3.6-2.6,3.6c0,0-4.2-0.3-1.5-4.2l3.2-3.4L275,74.7z"
	/>
<path fill="#FFFFFF" stroke="#000000" stroke-width="0.5" d="M265.9,73.6c0.3-0.4,0.6-0.8,0.7-1.3c1.6-2.5,5.5-7.6,11.6-8.4
	c0,0,5,10,2.4,13.6c0.6-0.4,11.5-8.6,19-5.3c0,0,3,10.7-1.3,15c0,0,13.3-5,16.7-0.3c0,0-17.3,8.7-16,16l-0.4,0.2
	c-11.1-18.1-49.3-23.9-49.3-23.9s11-3.7,12.3-18.3c0,0,6.5,7.1,5.1,11.4C266.2,73,266,73.4,265.9,73.6z M292.2,82.7l0.5-4.7
	l-4.3,1.7c-4.102,2.5-0.4,4.5-0.4,4.5C291.9,86,292.2,82.7,292.2,82.7z M272.4,78.3c4.3,0,2.6-3.6,2.6-3.6l-0.9-4l-3.2,3.4
	C268.2,78,272.4,78.3,272.4,78.3z"/>
<path fill="#FFFFFF" stroke="#000000" stroke-width="0.5" d="M271.8,277.8c0,0,1.8,1.2,4.5,3.2l-0.8,0.7
	c-11.2,0-12.2,33.3-12.2,33.3S252,293.3,216,290.3h-1c1.9-2,3.4-3.9,4.7-5.7h0.7c0,0,33,1,39,18c0,0-0.3-26,11-25.7l0.3-0.3
	C270.9,277,271.3,277.4,271.8,277.8z"/>
<path fill="#FFFFFF" stroke="#000000" stroke-width="0.5" d="M336.8,193.3c0.3-0.1,0.5-0.2,0.602-0.2c-0.2,0.2-0.102,0.3,0.198,0.2
	c0,0,0.102-0.2-0.198-0.2c1.698-2,21.8-15.8,45.198-26.5c6.302,0.4,15.7,2.7,15.7,2.7l4.8-7.5l0.4-0.5c1.5,1.2,2.9,2.9,4.2,4.4
	c-5.2-2.3-20.8,31.6-20.8,31.6c-26.302,68.9-67.4,99.1-83.102,108.5c-1.699-5.7-19.1-18.8-27.4-24.8c-2.7-1.9-4.5-3.2-4.5-3.2
	c-0.4-0.4-0.8-0.7-1.2-1.1c-11.5-11.3,0.7-31.4,0.7-31.4c22.5-37.5,5-47.5,5-47.5L336.8,193.3z"/>
<path fill="#FFFFFF" stroke="#000000" stroke-width="0.5" d="M399.3,140.4c0,0,6.9,3.5,6,5.4v0.2c-2.5-0.1-6.2,0.4-9.898,1.1
	C396.7,142.4,399.3,140.4,399.3,140.4z"/>
<path fill="#FFFFFF" stroke="#000000" stroke-width="0.5" d="M403.4,161.3l-0.4,0.5l-4.8,7.5c-1.3-3-2.2-5.8-2.8-8.3
	c2.198-0.8,2.698-0.8,4.398-1.1C400.9,159.6,402.2,160.3,403.4,161.3z"/>
<path id="www.ABC-color.com" fill="#FFFFFF" stroke="#000000" stroke-width="0.5" d="M415.7,179c-0.602,0.7-1.4,1-2.5,0.4l-1.9-6.7
	C413.5,171,415.7,179,415.7,179z"/>
<path fill="#FFFFFF" stroke="#000000" stroke-width="0.5" d="M428.5,174c0,0,2.4,8.9-0.3,8.1C428.3,182,425.3,173.6,428.5,174z"/>
<path fill="#FFFFFF" stroke="#000000" stroke-width="0.5" d="M321.8,170.8c0.602-0.4,25.4-9,53.4-17.4c5.6,0.8,7.5,13.2,7.5,13.2
	c-23.4,10.7-43.5,24.6-45.2,26.5c-0.1,0-0.3,0.1-0.6,0.2l-60.5,4.5c0,0-6-1-6-2.5l-0.5-0.3c5.8-9.8,12.1-22.7,12.5-25.4
	c0.1-0.6,0.3-1.3,0.5-2l0.5,0.2L321.8,170.8z"/>
<path fill="#FFFFFF" stroke="#000000" stroke-width="0.5" d="M395.5,161c0.6,2.5,1.5,5.3,2.8,8.3c0,0-9.398-2.3-15.7-2.7
	c0,0-1.8-12.5-7.5-13.2c0,0,0.602-0.8,1.7-2c0.2-0.1,0.3-0.3,0.5-0.5c3.5-3.6,11.3-10.2,22.102-10.5c0,0-2.602,2-4,6.8
	C394.4,150.4,394.1,154.9,395.5,161z"/>
<path fill="#FFFFFF" stroke="#000000" stroke-width="0.5" d="M463.2,383.5c0,0.1,0.1,0.2,0.1,0.3c-60.5-51.8-75-101.5-75-101.5
	c30-36,82,30,82,30S435.3,298.3,463.2,383.5z"/>
<path fill="#FFFFFF" stroke="#000000" stroke-width="0.5" d="M554.9,541.8c-0.802,5.7-2.802,19.5-3.602,23.5c-1,5-28,27-33,25
	c0,0-22,4-22-4c0-0.5,0.2-1,0.602-1.5c4.398-6.6,32.898-19.8,48.398-32C550.2,548.9,553.8,545.2,554.9,541.8z"/>
<path fill="#FFFFFF" stroke="#000000" stroke-width="0.5" d="M555.3,539.3c0,0-0.1,1-0.398,2.5c-1.102,3.4-4.7,7.102-9.602,11
	c-15.5,12.2-44.1,25.4-48.398,32l-0.602-0.5l-4.5-31l-0.1-0.3C522.1,544.3,555.3,539.3,555.3,539.3z"/>
<path fill="#FFFFFF" stroke="#000000" stroke-width="0.5" d="M496.3,584.3l0.602,0.5c-0.4,0.602-0.602,1.102-0.602,1.5
	c0,8,22,4,22,4c-5.6,20.4-52.898,33.9-59.7,35.8c4.2-5.398,12.7-17.398,3.7-32.8l0.602-30.2c8.3-3.8,18.398-7.1,28.8-10.1l0.1,0.3
	L496.3,584.3z"/>
<path fill="#FFFFFF" stroke="#000000" stroke-width="0.5" d="M443.3,577.3c0,0-0.8,1-1.1,2.602l-0.4-0.102
	c0,0-92.5-198.5-165.5-239.5c0-0.4-0.1-0.8-0.2-1.1l0,0c0-7.1,2.4-28.4,21.2-29.9c0,0,2.3-1.1,6.4-3.5
	c15.7-9.4,56.898-39.6,83.1-108.5c0,0,15.602-33.9,20.8-31.6l0,0c1.602,2,2.7,3.7,2.7,3.7s-13.6,100.9-22.1,112.9
	c0,0,14.5,49.7,75,101.5c0-0.1-0.102-0.2-0.102-0.3c10.2,13.7,101.5,137.8,92.102,155.8c0,0-33.102,5-63.602,13.7
	c-10.398,3-20.398,6.3-28.8,10.1C453.4,567.3,446.2,572.1,443.3,577.3z"/>
<path fill="#FFFFFF" stroke="#000000" stroke-width="0.5" d="M462.9,563.1l-0.602,30.2c-18.8-4.1-20.8-10.1-20.1-13.398
	c0.3-1.602,1.1-2.602,1.1-2.602C446.2,572.1,453.4,567.3,462.9,563.1z"/>
<path fill="#FFFFFF" stroke="#000000" stroke-width="0.5" d="M441.8,579.8l0.4,0.102c-0.602,3.398,1.3,9.3,20.1,13.398
	c9,15.3,0.5,27.4-3.7,32.8c-0.398,0.102-0.698,0.2-0.8,0.2c0-0.1,0-0.1,0,0c-0.5,3-9,3-11,3s-17.5-47.5-17.5-47.5
	c-2.5-25.5-78-120-78-120c-28.7-32.3-67.3-106.4-74-119.5c-0.7-1.3-1-2-1-2C349.3,381.3,441.8,579.8,441.8,579.8z"/>
<path fill="#FFFFFF" stroke="#000000" stroke-width="0.5" d="M446.8,629.3c2,0,10.5,0,11-3l0,0c0,0.102,0,0.5-0.1,0.9l0,0
	c-0.5,4-3.5,18.398-16.9,28.1c-3.7,1.602-6.7,2.8-9.7,4c-6.198,2.5-12,5.102-22.1,11.5c-0.2,0.102-0.5,0.3-0.7,0.5
	c0,0-56-163.5-75-193c0,0-27.6-55-44.1-96l0,0c-7.3-18.1-12.4-33.4-11.9-40l0,0c6.7,13.1,45.3,87.2,74,119.5c0,0,75.5,94.5,78,120
	C429.3,581.8,444.8,629.3,446.8,629.3z"/>
<path fill="#FFFFFF" stroke="#000000" stroke-width="0.5" d="M409,670.8c10.1-6.398,15.9-9,22.1-11.5
	c-1.5,3.8-11.5,27.102-22.398,12.602C408.8,671.5,408.9,671.1,409,670.8z"/>
<path fill="#FFFFFF" stroke="#000000" stroke-width="0.5" d="M365.1,703.9c-2.5,13.898-20.898,1.8-20.898,1.8
	c0.398-1,0.7-1.602,0.8-2C346.6,704,354.9,705.1,365.1,703.9z"/>
<path fill="#FFFFFF" stroke="#000000" stroke-width="0.5" d="M280.5,711.7c-13.5,7.1-21.2-4.9-21.2-4.9S268.3,709.3,280.5,711.7z"/>
<path fill="#FFFFFF" stroke="#000000" stroke-width="0.5" d="M365.1,703.9C354.9,705,346.6,704,345,703.8c0.2-0.6-0.1-0.3-0.2-0.1
	c8.7-13.3-50-294.601-55.6-321.4c16.5,40.9,44.1,96,44.1,96c19,29.5,75,193,75,193c0.102,0.2,0.3,0.4,0.4,0.602
	C401.6,695.2,381,702.2,365.1,703.9z"/>
<path fill="#FFFFFF" stroke="#000000" stroke-width="0.5" d="M276.8,348.7l-0.6-8.5c0,0,0.4,0.7,1,2l0,0
	c-0.4,6.6,4.6,21.9,11.899,40l0,0C294.7,409,353.4,690.3,344.7,703.6l0,0l0,0l0,0c0,0,0.1,0,0.3,0c-0.1,0.302-0.3,0.9-0.8,2
	c-6.2,14.602-40.7,10.5-63.8,5.9c-12.2-2.4-21.2-4.9-21.2-4.9c1.6-2.698,4.3-7.398,7.5-14l0,0c11.4-23.3,29.399-69.898,29-131
	c0,0-5-120-14-138.5L276.8,348.7z"/>
<path fill="#FFFFFF" stroke="#000000" stroke-width="0.5" d="M135,626.6l-0.2,0.2c0.5,5.9-10.5,20.7-10.8,21.2
	c0.1-0.4,3.3-10.3,0.3-25.7c0,0,0.1-2.8,1.2-3.8l0.1-0.1c0.8-0.602,2-0.4,4,2C129.6,620.3,131.6,622.7,135,626.6z"/>
<path fill="#FFFFFF" stroke="#000000" stroke-width="0.5" d="M276.3,340.3l0.6,8.5l4.9,74.5c9,18.5,14,138.5,14,138.5
	c0.4,61.102-17.6,107.7-29,131l0,0c-52,28.5-74.2-2.2-74.2-2.2c-7.5-5.6-43.8-47.8-57.6-64c-3.4-3.898-5.4-6.3-5.4-6.3
	c-1.9-2.3-3.2-2.5-4-2c0.2-0.1,0.4-0.3,0.6-0.5l0,0c13.8-12.2,116.8-111.6,109-297.5c3.8,1.9,37.6,11.1,40.8,18.9l0,0
	C276,341.5,276.3,342.2,276.3,340.3z"/>
<path fill="#FFFFFF" stroke="#000000" stroke-width="0.5" d="M203.8,342.3L203.8,342.3c0,0-17.4,17.1-35,18.4v-0.4
	c2.7-13,14.2-33.3,21.6-45.5C191.3,318.6,196.8,340.8,203.8,342.3z"/>
<path fill="#FFFFFF" stroke="#000000" stroke-width="0.5" d="M235.3,320.3c-4-2-22.1,23.9-31.5,22c-7-1.4-12.5-23.7-13.4-27.5
	c3.7-6,6.4-10,6.4-10c8.3-5.3,14.1-10.3,18.2-14.5h1c36,3,47.3,24.7,47.3,24.7s1-33.3,12.2-33.3l0.8-0.7
	c8.3,6.1,25.7,19.1,27.4,24.8c-4,2.4-6.4,3.5-6.4,3.5c-18.8,1.5-21.2,22.8-21.2,29.9C272.9,331.3,239.1,322.2,235.3,320.3z"/>
<path fill="#FFFFFF" stroke="#000000" stroke-width="0.5" d="M190.4,314.8c-7.4,12.1-19,32.5-21.6,45.5v0.4
	c-4.9,0.4-9.9-0.5-14.5-3.4c0,0-59.4-47.3-62.9-43.2c0.2-1.1,0.7-3.5,1.2-6h0.1l5,4.2c0,0,2.5-5,7-12.5c0,0,44-16,49-19.5
	c0,0,31.5-32.5,45.1-45.4l0.4,0.4c0,0,25,15.5,25,37c0,0,0.5,3.7-3.2,10.1c-0.4,0.7-0.9,1.4-1.5,2.2c-1.2,1.7-2.7,3.6-4.7,5.7
	c-4.1,4.3-9.9,9.2-18.2,14.5C196.8,304.8,194.1,308.8,190.4,314.8z"/>
<path fill="#FFFFFF" stroke="#000000" stroke-width="0.5" d="M97.8,312.3l-5-4.2h-0.1c0.4-1.8,0.8-3.8,1.1-5.3
	c0.1,0.1,0.3,0.1,0.4,0.2C95.5,305.6,96.8,308.7,97.8,312.3z"/>
<path fill="#FFFFFF" stroke="#000000" stroke-width="0.5" d="M92,323.5h0.3c-0.1,2.1-0.6,3.9-2.1,4.2c-1,0.2-1.9-1.5-2.7-3.8
	c0.3-2,0.8-2.2,1.7-3.5C90.3,319.3,92,323.5,92,323.5z"/>
<path fill="#FFFFFF" stroke="#000000" stroke-width="0.5" d="M75.6,322.2c2.8,1.3,1.6,7.8,1.1,9.9C75.5,331.7,75.4,327.2,75.6,322.2
	z"/>
<path fill="#FFFFFF" stroke="#000000" stroke-width="0.5" d="M92.9,579.9c0,0-20.2,27.3,33.3,37.8l0,0c-1.8,1.5-1.9,1.7-0.7,0.6
	c-1.1,1-1.2,3.8-1.2,3.8c2.9,15.302-0.2,25.2-0.3,25.7l0,0c-9,0.3-34.7-36-34.7-36c-45.3-39.3-53.7-86.7-53.7-86.7l0.3-0.3
	c6.5-4.1,38.4,52.3,38.4,52.3c4.3,7.302,9.3,4.302,9.3,4.302L97.8,544c3,7.6,5.7,14.9,8.1,21.7L92.9,579.9z"/>
<path fill="#FFFFFF" stroke="#000000" stroke-width="0.5" d="M126.3,617.8C72.8,607.3,93,580,93,580c11.8,4.3,16.9,24.3,24.2,24.3
	c0.3,1,0.3,1,0,0c2.4-2.2,110.5-103.6,86.6-262l0,0c9.4,1.9,27.5-24,31.5-22C243,506.1,140,605.6,126.3,617.8z"/>
<path fill="#FFFFFF" stroke="#000000" stroke-width="0.5" d="M126.2,617.8c-0.2,0.2-0.4,0.4-0.6,0.5l-0.1,0.102
	C124.3,619.5,124.4,619.3,126.2,617.8z"/>
<path fill="#FFFFFF" stroke="#000000" stroke-width="0.5" d="M105.8,566c6.7,19.5,10.5,34.8,11.4,38.3l0,0c-7.3,0-12.4-20-24.2-24.3
	L105.8,566z"/>
<path fill="#FFFFFF" stroke="#000000" stroke-width="0.5" d="M97.8,544.2L83.6,581.6c2.1-5.898-13.7-40.3-29.2-71.6
	c-14.1-28.6-28.1-54.7-28.1-54.7l0.2-0.898C58.3,462.3,82.4,506,97.8,544.2z"/>
<path fill="#FFFFFF" stroke="#000000" stroke-width="0.5" d="M53.8,510.3l0.6-0.3c15.5,31.4,31.3,65.7,29.2,71.6c0,0-5,3-9.3-4.3
	c0,0-31.9-56.398-38.4-52.3L53.8,510.3z"/>
<path fill="#FFFFFF" stroke="#000000" stroke-width="0.5" d="M117.2,604.2C117.4,605.2,117.4,605.3,117.2,604.2
	C117.1,604.3,117.1,604.2,117.2,604.2z"/>
<path fill="#FFFFFF" stroke="#000000" stroke-width="0.5" d="M85.2,291.9c-0.3,0.5-1.6,2.4-3.2,5.3h-0.6c0,0-5.7-6.3-4.7-9.8
	C76.8,287.3,80.6,288.1,85.2,291.9C85.1,291.8,85.1,291.8,85.2,291.9C85.1,291.8,85.1,291.8,85.2,291.9
	C84.8,291.9,85,291.9,85.2,291.9z"/>
<path fill="#FFFFFF" stroke="#000000" stroke-width="0.5" d="M99.3,285.3c0,0,10,7,5.5,14.5s-7,12.5-7,12.5c-1-3.6-2.3-6.7-3.6-9.3
	c0.7,0.2,0.1-0.9-0.2-0.4c-2.7-4.9-5.8-8.3-8.7-10.6c0.1,0,0.2-0.1,0.1-0.1c0.1,0,0.2-0.1,0,0h-0.1l0,0c-4.6-3.6-8.4-4.5-8.4-4.5
	L99.3,285.3z"/>
<path fill="#FFFFFF" stroke="#000000" stroke-width="0.5" d="M277.7,160c5.5-3.2,11.1-6.3,11.1-5.3c0,1.7-4.3,8.3-6,12.8
	c-0.3,0.7-0.5,1.4-0.5,2c-0.4,2.7-6.7,15.6-12.5,25.4c-3.5,5.9-6.8,10.7-8.5,11.6c-0.5,0.3-1.2,0.7-2.1,1.3c-1,0.6-2.3,1.5-4,2.4
	l-1.2-2c0,0,16.8-18.6,15.4-43.1C271.2,164,274.4,162,277.7,160z"/>
<path fill="#FFFFFF" stroke="#000000" stroke-width="0.5" d="M206.1,219.4c-9.4,0.1-20.4-0.5-33.2-1.8c0,0-17.9-28.3-26.7-25.8
	c4.3-1.2,13.5-0.1,25.2,2.1c3.9,1,9.5,2.2,13.5,2.7c0,0,0,0,0.1,0c21.9,4.5,48.5,10.5,69,11.7l1.2,2
	C248,214,234.1,219.2,206.1,219.4z"/>
<path fill="#FFFFFF" stroke="#000000" stroke-width="0.5" d="M206.1,219.4c2.2,4.1-1.4,10.4-1.4,10.4c-0.6,0.3-2.8,2.2-5.9,5.1
	c-13.6,12.9-45.1,45.4-45.1,45.4c-5,3.5-49,19.5-49,19.5c4.5-7.5-5.5-14.5-5.5-14.5c12.2-6.7,11.4-5,47-29
	c7.5-4,26.7-38.7,26.7-38.7C185.8,218.9,196.7,219.4,206.1,219.4z"/>
<path fill="#FFFFFF" stroke="#000000" stroke-width="0.5" d="M259.3,302.6c-6-17-39-18-39-18h-0.7c0.6-0.8,1-1.5,1.5-2.2
	c3.8-6.3,3.2-10.1,3.2-10.1c0-21.5-25-37-25-37l-0.4-0.4c3.1-2.9,5.2-4.8,5.9-5.1c0,0,3.6-6.3,1.4-10.4c28-0.1,41.9-5.3,49-9.1
	c1.7-0.9,3-1.7,4-2.4c0.9-0.6,1.6-1,2.1-1.3c1.8-0.9,5-5.7,8.5-11.6l0.5,0.3c0,1.5,6,2.5,6,2.5s17.5,10-5,47.5
	c0,0-12.2,20.1-0.7,31.4l-0.3,0.3C258.9,276.6,259.3,302.6,259.3,302.6z"/>
<path fill="#FFFFFF" stroke="#000000" stroke-width="0.5" d="M189.8,196.3c4.5-3.6,7.8-9.1,9.1-11.6c-0.4,1.4-0.5,4,1.7,8
	c3.7,6.7,8,5.7,24.3,3.7c5.1-0.6,6.6-4,6.2-8.3h0.1c1.7-2,17.7,2.7,17.7,2.7c0-17.7,3.6-26.8,4.6-28.9c1.7,0.9,11.3,5.7,14.1,4.5
	c0,0,0.6-0.4,1.7-1.1c1.5,24.5-15.4,43.1-15.4,43.1c-20.5-1.3-47-7.2-69-11.7C187.3,196.8,189.1,196.8,189.8,196.3z"/>
<path fill="none" stroke="#000000" stroke-width="0.5" stroke-linecap="round" stroke-linejoin="round" d="M250.3,107.9
	c0,0,14-1.2,15,9.3"/>
<path fill="none" stroke="#000000" stroke-width="0.5" stroke-linecap="round" stroke-linejoin="round" d="M278.6,124.3
	c3-0.7,6.7,5.7,6.7,5.7"/>
<path fill="none" stroke="#000000" stroke-width="0.5" stroke-linecap="round" stroke-linejoin="round" d="M268.6,129.3
	c3.2-3.1,6.7-4.3,8.6-4.8"/>
<path fill="none" stroke="#000000" stroke-width="0.5" stroke-linecap="round" stroke-linejoin="round" d="M261.9,143.6
	c1-7,3.7-11.4,6.7-14.3"/>
<path fill="none" stroke="#000000" stroke-width="0.5" stroke-linecap="round" stroke-linejoin="round" d="M256.6,145.3
	c4.3,5,5.3-1.7,5.3-1.7"/>
<path fill="none" stroke="#000000" stroke-width="0.5" stroke-linecap="round" stroke-linejoin="round" d="M220.9,163.9
	c-4.7,1.3-2-22.3-2-22.3"/>
<path fill="none" stroke="#000000" stroke-width="0.5" stroke-linecap="round" stroke-linejoin="round" d="M199.6,183.3
	c0,0,5.2-6.5,5.2-13.5"/>
<line fill="none" stroke="#000000" stroke-width="0.5" stroke-linecap="round" stroke-linejoin="round" x1="211.9" y1="104.3" x2="221.3" y2="96.8"/>
<path fill="none" stroke="#000000" stroke-width="0.5" stroke-linecap="round" stroke-linejoin="round" d="M321.8,170.8
	c0,0-1.5,5.5,0.5,5.5"/>
<line fill="none" stroke="#000000" stroke-width="0.5" stroke-linecap="round" stroke-linejoin="round" x1="419.8" y1="165.6" x2="414.8" y2="163.4"/>
<path fill="none" stroke="#000000" stroke-width="0.5" stroke-linecap="round" stroke-linejoin="round" d="M82.3,317.3
	c0,0,0-7,2.5-9"/>
</svg>
