<?xml version="1.0" encoding="utf-8"?>
<!-- Generator: Adobe Illustrator 15.0.0, SVG Export Plug-In . SVG Version: 6.00 Build 0)  -->
<!DOCTYPE svg PUBLIC "-//W3C//DTD SVG 1.1//EN" "http://www.w3.org/Graphics/SVG/1.1/DTD/svg11.dtd">
<svg version="1.1" id="layer_x5F_www.ABC-color.com"
	 xmlns="http://www.w3.org/2000/svg" xmlns:xlink="http://www.w3.org/1999/xlink" x="0px" y="0px" width="567px" height="822px"
	 viewBox="0 0 567 822" enable-background="new 0 0 567 822" xml:space="preserve">
<path fill="#FFFFFF" stroke="#000000" stroke-width="0.5" d="M399.3,257.5c-1.7,4.3-6.6,6.6-11,4c-2.3-1.3-3.6-3.4-4-5.7
	c-0.5-2.5,0-5.2,1.102-7.8c0.398-0.9,0.8-1.7,1.3-2.5c3.2-1,6,0.3,8.6,2c1.3,0.8,2.2,1.6,2.8,2.4c1.302,1.6,1.5,3.5,1.5,6.5
	C399.5,256.9,399.4,257.2,399.3,257.5z"/>
<path fill="#FFFFFF" stroke="#000000" stroke-width="0.5" d="M250.2,94.1c2-1.9,5-1.6,7.8-1.6v0.2c-1.8,0-3.2,1.2-3.2,2.7
	c0,1.2,0.9,2.2,2.2,2.6C254,97.7,251.3,96.6,250.2,94.1z"/>
<path fill="#FFFFFF" stroke="#000000" stroke-width="0.5" d="M491.3,627.2c-2.7,4.898-6.6,9-11.898,11.6c-11,6-21-2-31.2-6
	c-1.102,1.102-2.2,2.2-3.5,3.102c-11,8.898-27.4,12.5-37.602-0.102c-0.698-0.6-0.8-1.6-2.198-1.6c-1.4,0-2.5,0.2-3.4,0.7
	c-9.1,11.8-29.1,11.8-38.5,0c-0.9-0.4-2.1-0.4-3.2-0.2c-11.5,8.1-27.5,10.1-38.898-0.3c-1-0.302-2.302-0.302-3.302-0.102
	c-11.3,10.4-29.3,10.4-40.2-0.7c-0.9,0.602-2.1,1.4-3.5,2.102c-11.8,6.6-25.8,8.8-36.4-2.102c-0.7-0.5-0.9-1.3-2.1-1.3
	c-13,9.5-33,17.5-44.5,0c-0.5-0.5,0-1.3-1.1-1.398c-15.5,7.8-33.5,11.8-47.3-1.302c-0.7-0.198-0.9-0.398-2.8-0.5
	c-16.4,11.7-36.4,14.7-50.1-2.3c-0.9-1.8-3.5-3.6-5.4-5.2C84,618.4,83.7,614.9,83.5,611.2c2.2,1.7,5.1,6.898,6.8,8.3
	c13.6,17,33.6,14,50.1,2.3c1.9,0.102,2.1,0.3,2.8,0.5c13.8,13.2,31.8,9.2,47.3,1.3c1.1,0,0.6,0.9,1.1,1.4c11.4,17.5,31.4,9.5,44.5,0
	c1.2,0,1.4,0.8,2.1,1.3c10.6,10.9,24.7,8.8,36.4,2.102c1.3-0.7,2.6-1.5,3.5-2.102c11,11.102,29,11.102,40.2,0.7c1-0.2,2.3-0.2,3.3,0
	c11.4,10.4,27.4,8.4,38.9,0.3c1.1-0.2,2.3-0.1,3.2,0.2c9.3,11.8,29.3,11.8,38.5,0c0.8-0.5,2-0.7,3.398-0.7
	c1.302,0,1.5,0.9,2.2,1.602c10.2,12.6,26.602,9,37.602,0.1c1.198-1,2.398-2,3.5-3.1c10.198,4,20.198,12,31.198,6
	c5.4-2.7,9.302-6.802,12-11.802l-0.198-0.1c1.398-2.1,4.398-5.3,6-7.3h0.1c-0.3,3.398-0.7,6.6-1.2,9.6
	C495,623.7,492.9,625.6,491.3,627.2z"/>
<path fill="#FFFFFF" stroke="#000000" stroke-width="0.5" d="M301.1,170.9c0,0,0.2,27.8,6.802,40.3c-0.9,1.3-7.7,10.5-12.302,7.6
	c-1.3-0.9-2.5-2.7-3.3-6.2c-0.1-0.4-0.2-0.9-0.3-1.3c-3.3-16-2-39.5-2-39.5v-0.1C293.4,172,297.1,171.7,301.1,170.9L301.1,170.9z"/>
<path fill="#FFFFFF" stroke="#000000" stroke-width="0.5" d="M401.3,248.6c-1.398,0.4-1.6,0.9-3,1.3l-0.2,0.1
	c-0.6-0.8-1.5-1.6-2.8-2.4c-2.6-1.7-5.398-3-8.6-2c-0.5,0.8-0.9,1.6-1.3,2.5c-4.7-8.4-4-6.5-5.2-9.4c-2.4-6.1-3.3-10.6-3.5-17.1
	c-0.3-6.8-1.102-12.2-4-18.3c-2.2-4.6-2-11.6-8.7-11.7c-1.1-2.5-3.6-1.6-5.2-3.8c1.4-2.5,1.9-5.2,1.9-5.2s1.3,0.4,3.3,0.3v0.1
	c26.4,19.4,16.3,8,39.3,32.7c5.4,5.8,5,21.7,5,24.5c-0.2,0-0.5,0.1-0.7,0.2C404.1,241.5,402.5,245.5,401.3,248.6z"/>
<path fill="#FFFFFF" stroke="#000000" stroke-width="0.5" d="M496.6,621.9c0.5-3,0.9-6.302,1.2-9.602c0.4-3.5,0.602-7.2,0.8-11
	c0.4-7.7,0.602-15.898,0.5-24.3l45.4,32.2l-51.3,36.2l-1.7-0.602c1.2-3.5,2-7.1,2.5-10.898l0,0c0.5-1.9,1-4,1.5-6.102
	C496,625.8,496.3,623.9,496.6,621.9z"/>
<path fill="#FFFFFF" stroke="#000000" stroke-width="0.5" d="M376.3,172.6c0-0.1,0.102-0.1,0.102-0.2l0.198,0.1
	c0,0,19.102,17.1,50.802,20.1c23.698,2.3,14,33.3,14,33.3s-6,21.3-25.7,24c-0.5,0.1-0.7,0.2-0.7,0.4h-0.7l0,0
	c0-1.8-0.5-4.5-1.398-6.6h0.1c0.8-2.8,5.3-2.7,7.7-4.7c5.5-4.6,7.5-14.7,6-22.3c-0.602-3-3.8-6.1-5.3-8.7c-1.7-2.7-4-3.2-6.4-5.3
	c-5.1-4.6-13.1-6.3-19.3-9c-4.4-2-8.2-4.9-12.602-6.9c-3.398-1.5-8.3-7.4-11.698-7.1l-0.102-0.1
	C372.9,177.9,374.6,175.7,376.3,172.6z"/>
<path fill="#FFFFFF" stroke="#000000" stroke-width="0.5" d="M345.9,155.4c15.1,3.3,34.1,9.1,30.398,17c0,0.1,0,0.1-0.1,0.2
	c-1.602,3.1-3.4,5.4-5.102,6.9c-2.698,2.4-5.3,3.2-7.3,3.4c-2,0.2-3.3-0.3-3.3-0.3s-19.6-25.1-32.6-25.1l0,0
	c1.698-1.4,3.5-2.9,5.3-4.5C336.4,153.5,341,154.3,345.9,155.4z"/>
<path fill="#FFFFFF" stroke="#000000" stroke-width="0.5" d="M82.9,601.3c0.2,3.4,0.4,6.8,0.6,9.9c0.3,3.7,0.5,7.2,0.7,10.398
	c0.2,2.802,0.4,5.302,0.6,7.602h-0.1l-3.1-2.102L34,593.8l45.2-32.6l1.5-0.101C81.3,574.9,82.1,588.9,82.9,601.3z"/>
<path fill="#FFFFFF" stroke="#000000" stroke-width="0.5" d="M498.7,601.3c-0.2,3.8-0.5,7.5-0.8,11H497.8c-1.6,2-4.6,5.2-6,7.3
	l0.2,0.102c-2.7,5-6.7,9.1-12,11.8c-11,6-21-2-31.2-6c-1.1,1.1-2.2,2.1-3.5,3.1c-11,8.9-27.398,12.5-37.6-0.1
	c-0.7-0.7-0.8-1.6-2.2-1.6s-2.5,0.198-3.4,0.698c-9.1,11.802-29.1,11.802-38.5,0c-0.898-0.398-2.1-0.398-3.198-0.198
	c-11.5,8.1-27.5,10.1-38.9-0.302c-1-0.3-2.3-0.3-3.3,0c-11.3,10.4-29.301,10.4-40.2-0.698c-0.9,0.6-2.1,1.398-3.5,2.1
	c-11.7,6.6-25.8,8.8-36.4-2.1c-0.7-0.5-0.9-1.302-2.1-1.302c-13,9.5-33,17.5-44.5,0c-0.5-0.5,0-1.3-1.1-1.398
	c-15.5,7.8-33.5,11.8-47.3-1.3c-0.7-0.2-0.9-0.4-2.8-0.5C123.9,633.6,103.9,636.6,90.2,619.6c-1.7-1.398-4.5-6.6-6.8-8.3
	c-0.2-3.2-0.4-6.5-0.6-9.898c0.9,0.898,2.6,2.698,5,4.5c1.6,1.198,2.1,3.698,3.9,4.6c13.6,16.7,33.5,13.6,49.8,2
	c1.9,0.1,2.1,0.3,2.8,0.5c13.8,13.2,31.8,9.2,47.3,1.3c1.1,0,0.6,0.9,1.1,1.4c11.4,17.5,31.4,9.5,44.5,0c1.2,0,1.4,0.8,2.1,1.3
	c10.6,10.9,24.7,8.8,36.4,2.1c1.3-0.699,2.6-1.5,3.5-2.1c11,11.1,29,11.1,40.2,0.7c1-0.2,2.3-0.2,3.3,0
	C334.1,628.1,350.1,626.1,361.6,618c1.102-0.2,2.302-0.1,3.2,0.2c9.3,11.8,29.3,11.8,38.4,0c0.8-0.5,2-0.7,3.398-0.7
	c1.302,0,1.5,0.9,2.2,1.6c10.2,12.602,26.602,9,37.602,0.102c1.198-1,2.398-2,3.5-3.102c10.198,4,20.198,12,31.198,6
	c5.4-2.699,9.302-6.8,12-11.8l-0.198-0.1c0.6-1.102,0.398-2.4,1.1-3.602c0.7-1.398,4-3.398,4.1-5.5L498.7,601.3z"/>
<path id="www.ABC-color.com" fill="#FFFFFF" stroke="#000000" stroke-width="0.5" d="M313.4,106.5L313.4,106.5
	c4-1.3,2.6-8.6,8.6-11.1c2.9-0.4,4.8,3.6,4.5,6.1c-1,8.7-14.8,14.9-20.4,24.4c-0.6,0.6-1.3,1.2-2,1.8c-9.398,8-22.3,13.3-34.398,9
	c-8.3-4.7-14.3-12.8-20-20c-12.6-22.4-0.7-52.8,24-60.8c14.1,14.1,41.898,26.3,40,49.6C313.7,105.9,313.5,106.2,313.4,106.5z
	 M274,113.9c0-1.4,0.5-2.7-0.5-3c0,1.1-2.1,1.6-2.3,3.3C272,114.1,273.2,113.9,274,113.9z M276.6,110.9c0,0.8-0.1,1.9-0.1,2.7
	c1.8,0.2,1.2,0.4,2.4,0.1C278.3,112,278.3,112.1,276.6,110.9z M303.4,92.5c-2-1.9-5-1.6-7.801-1.6c-0.199,0-0.399,0-0.601,0
	c-3.601,0-5.399,1.2-7.8,4c1.898,0.8,4.699,1.5,7.6,1.5c0.301,0.1,0.5,0.1,0.801,0.1c0.399,0,0.699,0,1-0.1
	C299.6,96.1,302.3,95,303.4,92.5z M287.6,120.3c-6.3-2.1-10,3.3-21-1c2.3,2.9,2.9,6.2,7.7,6.7C280.1,126.1,280.9,125.1,287.6,120.3z
	 M266.4,96.5c-2.4-2.8-4.2-4-7.8-4c-0.2,0-0.4,0-0.6,0c-2.8,0-5.8-0.3-7.8,1.6c1.1,2.5,3.8,3.6,6.8,3.9c0.3,0.1,0.7,0.1,1,0.1
	s0.5,0,0.8-0.1C261.6,98,264.5,97.3,266.4,96.5z"/>
<path fill="#FFFFFF" stroke="#000000" stroke-width="0.5" d="M223.8,212.9h-0.3c0-0.9,0-1.8,0.1-2.6c0.4-7.3,2.2-13,4.7-19.4
	c0.6-1.6,1.3-3.8,2.9-4.5c1.2,3,4,5.6,10.8,4c0,0,0.7,20,11.3,12.3c0.8-0.6,1.6-1.3,2.4-2.1c0.2,1.4,3.8,22.9,16.6,9.8
	c0.7-0.7,1.4-1.6,1.9-2.7h0.1c0,0,3.7,19.5,17.7,3.9l0,0c0.1,0.4,0.2,0.9,0.3,1.3c0.8,3.4,2,5.3,3.3,6.2l-0.8,1.7
	c-0.7,3.2-1.399,3.4-3.6,1c1,3.1,0.6,3.6-2.601,2.6c2.399,2.2,2.301,2.9-1,3.6c3.199,0.7,3.399,1.4,1,3.6
	c3.101-1.1,3.601-0.6,2.601,2.6c2.2-2.4,2.899-2.3,3.6,1l0.2,1.8c-0.7,3.2-1.4,3.4-3.6,1c1,3.1,0.5,3.6-2.602,2.6
	c2.4,2.2,2.301,2.9-1,3.6c3.2,0.7,3.4,1.4,1,3.6c3.102-1,3.602-0.5,2.602,2.6c2.199-2.4,2.898-2.3,3.6,1l-0.3,2.5
	c-0.7,3.2-1.4,3.4-3.601,1c1,3.1,0.601,3.6-2.601,2.6c2.399,2.2,2.2,2.9-1,3.6c3.2,0.7,3.399,1.4,1,3.6
	c3.101-1.1,3.601-0.6,2.601,2.6c2.199-2.4,2.899-2.3,3.601,1l0.3,2.5c-0.7,3.2-1.4,3.4-3.6,1c1,3.1,0.5,3.6-2.602,2.6
	c2.4,2.2,2.301,2.9-1,3.6c3.2,0.7,3.4,1.4,1,3.6c3.102-1,3.602-0.6,2.602,2.6c2.199-2.4,2.898-2.3,3.6,1v0.3
	c-15.5,0.5-32.7-1.5-48.1-9.5c0.3-5.8,0.4-9.2-3.3-13.6c-2.5-3-5.8-5.1-7.8-8.5C234.7,243.6,223.5,218.7,223.8,212.9z"/>
<polygon fill="#FFFFFF" stroke="#000000" stroke-width="0.5" points="567.3,795.3 567.3,823.3 533.8,823.3 531.3,821.5 "/>
<polygon fill="#FFFFFF" stroke="#000000" stroke-width="0.5" points="567.3,774.3 567.3,795.3 531.3,821.5 487.3,789.8 538,753.3 
	"/>
<polygon fill="#FFFFFF" stroke="#000000" stroke-width="0.5" points="567.3,732.3 567.3,774.3 538,753.3 "/>
<polygon fill="#FFFFFF" stroke="#000000" stroke-width="0.5" points="567.3,696.2 567.3,732.3 538,753.3 485.6,715.8 539.5,677.1 
	"/>
<polygon fill="#FFFFFF" stroke="#000000" stroke-width="0.5" points="567.3,657.3 567.3,696.2 539.5,677.1 "/>
<polygon fill="#FFFFFF" stroke="#000000" stroke-width="0.5" points="567.3,625.3 567.3,657.3 539.5,677.1 493.3,645.4 544.6,609.2 
	"/>
<polygon fill="#FFFFFF" stroke="#000000" stroke-width="0.5" points="567.3,593.3 567.3,625.3 544.6,609.2 "/>
<path fill="#FFFFFF" stroke="#000000" stroke-width="0.5" d="M567.3,546.3v47l-22.7,16L499.2,577c0-0.1,0-0.3,0-0.4l55.5-39.398
	L567.3,546.3z"/>
<polygon fill="#FFFFFF" stroke="#000000" stroke-width="0.5" points="567.3,528.3 567.3,546.3 554.6,537.2 "/>
<polygon fill="#FFFFFF" stroke="#000000" stroke-width="0.5" points="567.3,465.3 567.3,528.3 554.6,537.2 510.8,505.9 566.5,465.3 
	"/>
<path fill="#FFFFFF" stroke="#000000" stroke-width="0.5" d="M567.2,0.3v464.5l-0.8,0.602L490.6,469.1c0-0.198-0.1-0.5-0.1-0.698
	c-0.7-4.802-1.5-9.5-2.5-14.102c-16.6-79.3-74.7-124.7-116.5-147.8c2.7-0.9,5-2.4,7.7-4.2c5.398-3.6,12.5-2.7,18.3-5.9
	c0.4-0.2,0.7-0.4,1-0.6h1.1c14.102,10.6,41.5,29.5,41.5,29.5c1.9,0.4,3,12.4,3,12.4c0.2,2.4,9,11.1,9,11.1
	c3.102,3.6,3.9,6.3,3.9,6.3s2.3,4.7,2.8,0c0-0.3,0-0.5,0.102-0.7c0.3-4.1-1.602-5.8-1.602-5.8c-3.6-5.4-2.1-9.8-2.1-9.8l23.1,16.3
	c4.7,3.8,4.3-1.3,4.3-1.3l0,0l2,1.7c3.602,2.3,2.602-3.2,2.602-3.2c2.8-0.2,0.398-3.8,0.398-3.8l-2.6-3.2c2.4,0.9,1.9-1.1,1.9-1.1
	c0.198-4.3-11.302-15.4-12.602-17.4c-1.3-2.1-27.6-16.1-29.1-16.1c-0.5,0-9.102-9.7-17.3-18.9c7.8-4.8,14.898-10.7,16.698-15.7
	c0.102-0.3,0.2-0.5,0.302-0.8c0-0.2,0.1-0.4,0.1-0.6c1.5-10.5-31.3-22-31.3-24.3c0-0.2,0.2-0.3,0.7-0.4
	c19.698-2.7,25.698-24,25.698-24s9.7-31.1-14-33.3c-31.698-3-50.8-20.1-50.8-20.1l-0.2-0.1c3.7-7.9-15.3-13.7-30.398-17
	c3-51-8.7-127.8-51.7-130.3c-33.6-2-48.9,11.5-60.3,36.4c-4.2,9.2-3.7,26.2-1.7,48.2c0.6,6.9,1,26.7-0.5,42.5l0.1,0.5
	c-11.7,2.3-23.1,6-23.9,11.6h-0.4c-1.2,1-20.6,17.7-51.3,20.6c-23.7,2.2-14,33.3-14,33.3s6,21.3,25.7,24c0.5,0.1,0.7,0.2,0.7,0.4
	c0.201,2.2-32.299,13.6-31.199,24c0,0.1,0,0.1,0,0.2c0.1,0.5,0.2,1,0.4,1.4c1.7,4.6,7.9,10,15,14.6l0,0l-0.1,0.1
	c-12.7,14.4-36.4,40.9-37.4,40.9c-1.5,0-27,13.7-28.3,15.7c-1.3,2-12.4,12.8-12.2,17c0,0-0.5,2,1.8,1.1l-2.5,3.1
	c0,0-2.4,3.5,0.4,3.6c0,0-0.9,5.3,2.6,3.1l2-1.7l0,0c0,0-0.4,4.9,4.2,1.3l22.4-15.9c0,0,1.5,4.2-2,9.5c0,0-1.8,1.6-1.5,5.6
	c0,0.2,0,0.5,0.1,0.7c0.5,4.5,2.7,0,2.7,0s-0.5-2.9,2.6-6.4c0,0,9.8-8.2,10-10.6c0,0,1.1-11.7,2.9-12c0,0,45-34.3,47.2-35.4
	c0,0,19.2-14.5,18.5-15.8c5.8,3,13,2.1,18.4,5.6c4.2,2.7,7.4,4.7,12.6,4.9c4.4,0.2,9,0.1,13.3-0.1l0.1,0.5
	c-32.2,3.8-103.8,26.1-138,146.6c-0.9,3.102-1.8,6.4-2.6,9.7c-0.5,1.9-1,3.9-1.5,5.8h-38c0-16.3,1-35.398,1-52.899
	c0-21.4,0-42.8,0-64.2c0-16.6-1.5-32.2,0.8-48.5h15.2c1.2,0,2.4-0.5,3.2-1.3c0.8-0.8,1.3-1.9,1.3-3.2c0-2.5-2-4.5-4.5-4.5h-67v-0.5
	h57.3c1.5,0,2.8-0.6,3.7-1.5c0.9-0.9,1.5-2.3,1.5-3.7c0-2.9-2.4-5.3-5.3-5.3H48c1.5,0,2.8-0.6,3.7-1.5c0.9-0.9,1.5-2.3,1.5-3.7
	c0-2.9-2.4-5.3-5.3-5.3h-4.5c1.3,0,2.4-0.5,3.2-1.3c0.8-0.8,1.3-1.9,1.3-3.2c0-2.5-2-4.5-4.5-4.5H27.8v0.3
	c20.3-6.1,34.9-23.8,34.9-44.7c0-26-22.6-47-50.5-47c-4.1,0-8.1,0.5-12,1.3V0.3 M543.6,27.3l9-7l-11.1-2.9l-3.9-10.8l-6.198,9.6
	L520,16.6l7.2,8.9l-3.2,11l10.7-4.2l9.5,6.4L543.6,27.3z M532.6,187.8l15.5-6.6l-14.698-8.3l-1.5-16.8l-12.4,11.4l-16.4-3.8l7,15.3
	l-8.6,14.4l16.7-1.9l11.1,12.7L532.6,187.8z M529.4,398.4l11.398-7l-12.5-4.8l-3.2-13L516.7,384l-13.3-1l7.3,11.2l-5.102,12.399
	l12.9-3.5l10.2,8.7L529.4,398.4z M526.6,293.8l11.7-9.4l-14.6-3.6l-5.3-14.1l-7.9,12.8l-15,0.7l9.7,11.5l-3.9,14.5l13.9-5.7
	l12.6,8.2L526.6,293.8z M472.2,74l12.7-7.5L471.2,61l-3.3-14.4L458.5,58l-14.7-1.3l7.9,12.5l-5.8,13.5l14.3-3.6l11.1,9.7L472.2,74z
	 M413.2,138.9l9.8-6.8l-11.3-3.6l-3.4-11.4l-6.898,9.6l-11.9-0.2l7,9.6l-3.9,11.2l11.302-3.7l9.5,7.2L413.2,138.9z M378,26.3
	l6.6-9.7L373,17.2l-7.2-9.3l-3,11.4l-11.1,3.9l9.898,6.4l0.302,11.7l9.1-7.4l11.3,3.3L378,26.3z M168.9,73.1l9.9-7.8l-12.3-3.1
	l-4.4-11.9L155.5,61l-12.6,0.5l8.1,9.7l-3.4,12.2l11.8-4.7l10.5,7L168.9,73.1z M116.4,250.3l14.1-13.8l-19.5-2.8l-8.8-17.7
	l-8.7,17.7L74,236.6l14.1,13.7l-3.3,19.5l17.4-9.2l17.5,9.1L116.4,250.3z M89.9,162.5l6.8-6.3l-9.2-1.5l-3.9-8.4l-4.3,8.3l-9.2,1.1
	l6.5,6.6l-1.8,9.1l8.3-4.2l8.1,4.5L89.9,162.5z M53.1,24.2l7.7-4.8l-8.5-3.2l-2.2-8.8l-5.6,7.1l-9-0.6l5,7.6l-3.4,8.4l8.7-2.4l7,5.8
	L53.1,24.2z M33.8,104.8l-6-9.6l4.5-10.4l-11,2.7L12.8,80L12,91.3L2.2,97l10.5,4.3l2.4,11.1l7.3-8.7L33.8,104.8z"/>
<path fill="#FFFFFF" stroke="#000000" stroke-width="0.5" d="M566.5,465.3L510.8,505.9L493.7,493.6c-1.602-14.898-3-24.6-3-24.6
	L566.5,465.3z"/>
<path fill="#FFFFFF" stroke="#000000" stroke-width="0.5" d="M554.6,537.2L499.1,576.6c-0.198-20.698-1.698-42.5-3.398-61.1l2-0.2
	l13-9.5L554.6,537.2z"/>
<polygon fill="#FFFFFF" stroke="#000000" stroke-width="0.5" points="552.6,20.3 543.6,27.3 544.3,38.8 534.8,32.3 524.1,36.5 
	527.3,25.5 520.1,16.6 531.5,16.3 537.7,6.6 541.6,17.4 "/>
<polygon fill="#FFFFFF" stroke="#000000" stroke-width="0.5" points="548.1,181.1 532.6,187.8 529.3,204.3 518.2,191.6 501.5,193.5 
	510.1,179.1 503.1,163.8 519.5,167.5 531.9,156.1 533.4,172.9 "/>
<polygon fill="#FFFFFF" stroke="#000000" stroke-width="0.5" points="540.8,391.4 529.4,398.4 528.8,411.8 518.5,403.1 505.6,406.6 
	510.7,394.2 503.4,383 516.8,384 525.2,373.6 528.3,386.6 "/>
<path fill="#FFFFFF" stroke="#000000" stroke-width="0.5" d="M489.7,650.6l-0.5-0.3c0.898-1.8,1.7-3.6,2.398-5.5l1.7,0.602
	l46.3,31.8L485.7,715.9l-45.4-32.5l29-21l-0.1-1.602c2.398-0.1,4.898-0.8,7.398-2.1C481.6,656,486.8,654.9,489.7,650.6z"/>
<polygon fill="#FFFFFF" stroke="#000000" stroke-width="0.5" points="538.3,284.3 526.6,293.8 527.8,308.8 515.2,300.5 501.3,306.2 
	505.2,291.7 495.5,280.2 510.5,279.5 518.4,266.7 523.8,280.8 "/>
<polygon fill="#FFFFFF" stroke="#000000" stroke-width="0.5" points="485.6,715.8 538,753.3 487.3,789.8 435,752.2 "/>
<polygon fill="#FFFFFF" stroke="#000000" stroke-width="0.5" points="531.3,821.5 533.8,823.3 442.3,823.3 442.3,822.3 487.3,789.8 
	"/>
<path fill="#FFFFFF" stroke="#000000" stroke-width="0.5" d="M510.8,505.9l-13,9.5l-2,0.198c-0.7-8-1.5-15.5-2.2-21.898L510.8,505.9
	z"/>
<path fill="#FFFFFF" stroke="#000000" stroke-width="0.5" d="M91.8,610.5c-1.8-1-2.3-3.4-3.9-4.6c-2.4-1.802-4.2-3.602-5-4.5
	C82.1,589,81.3,575,80.8,561.3c-0.1-1.7-0.1-3.3-0.2-5c-1.1-27.398-1.3-52.8,0.7-61c0.1-0.5,0.1-0.898,0.2-1.398l0.8-0.602l-0.6-0.5
	c1.9-11.5,4.1-22.3,6.6-32.5c0.5-2,1-3.898,1.5-5.8c4.8,1.8,10.8,1.6,13.8,5.3c4.7,5.8,12.8,1,16.3,5.2c4.1,4.9,12.6,0,16.1,4
	c4,4.6,11.1-0.7,14.6,2.5c5.4,4.7,12.1-1.9,16,1.3c5.3,4.4,11.1-2.8,15.3-0.3c6,3.7,13.8-6.4,18.4-2.7c6,4.8,11.9-8.3,16.5-5.1
	c5.2,3.6,9.7-8.4,15-7.5c5.8,1,9.3-11.7,15.5-11.3c5,0.3,5.5-14.4,11.8-11.9c6.2,2.5,4.5-10,9-11.7c5.5-2.1,4.8-14.7,8.9-16.1
	c7.5-2.5,4-16.1,8.3-19c3-2,2.5-13.8,6.101-16.7c2.899-2.4,3.699-5.1,3.699-7.4c0.301,1.9,1.2,4.1,3.602,6c3.5,3,3.1,14.7,6.1,16.7
	c4.3,2.9,0.801,16.5,8.3,19c4.102,1.4,3.302,14,8.9,16.102c4.5,1.698,2.8,14.198,9,11.698c6.3-2.5,6.8,12.2,11.8,11.9
	c6.2-0.4,9.7,12.3,15.5,11.3c5.3-0.898,9.8,11,15,7.5c4.602-3.2,10.5,9.9,16.5,5.102c4.602-3.7,12.4,6.398,18.4,2.698
	c4.2-2.5,10,4.7,15.3,0.302c4-3.302,10.7,3.398,16-1.302c3.6-3.198,10.6,2.102,14.7-2.5c3.5-4,13.5,5.2,17.6,0.302
	c3.3-4,13.9,4.6,18.9,0.398c0,0.2,0.1,0.5,0.1,0.7c0,0,1.4,9.7,3,24.6c0.7,6.4,1.5,13.9,2.2,21.9c1.7,18.5,3.2,40.4,3.4,61.1
	l-0.302,0.2l0.302,0.2c0.1,8.4-0.102,16.6-0.5,24.3h-0.4c-0.1,2.102-3.4,4.102-4.1,5.5c-0.7,1.2-0.5,2.5-1.102,3.602l0.2,0.1
	c-2.7,4.9-6.6,9.1-12,11.8c-11,6-21-2-31.2-6c-1.1,1.102-2.2,2.102-3.5,3.102c-11,8.898-27.398,12.5-37.6-0.102
	c-0.7-0.7-0.8-1.6-2.2-1.6s-2.5,0.2-3.4,0.7c-9.1,11.8-29.1,11.8-38.398,0c-0.9-0.4-2.102-0.4-3.2-0.2c-11.5,8.1-27.5,10.1-38.9-0.3
	c-1-0.302-2.3-0.302-3.3,0c-11.3,10.398-29.3,10.398-40.2-0.7c-0.9,0.6-2.1,1.398-3.5,2.1c-11.8,6.602-25.8,8.8-36.4-2.1
	c-0.7-0.5-0.9-1.3-2.1-1.3c-13,9.398-33,17.398-44.5,0c-0.5-0.5,0-1.302-1.1-1.4c-15.5,7.8-33.5,11.8-47.3-1.3
	c-0.7-0.2-0.9-0.4-2.8-0.5C125.3,624.1,105.5,627.1,91.8,610.5z"/>
<path fill="#FFFFFF" stroke="#000000" stroke-width="0.5" d="M489.2,637.1c-2.7,4.7-6.5,8.602-11.7,11.102c-11,6-21-2-31.2-6
	c-1.1,1.1-2.2,2.2-3.5,3.1c-11,8.9-27.398,12.5-37.6-0.1c-0.7-0.602-0.8-1.602-2.2-1.602s-2.5,0.2-3.4,0.7
	c-9.1,11.8-29.1,11.8-38.398,0c-0.9-0.398-2.102-0.398-3.2-0.2c-11.5,8.102-27.5,10.102-38.9-0.3c-1-0.3-2.3-0.3-3.3,0
	c-11.3,10.4-29.3,10.4-40.2-0.7c-0.9,0.602-2.1,1.4-3.5,2.102c-11.8,6.6-25.8,8.8-36.4-2.102c-0.7-0.5-0.9-1.3-2.1-1.3
	c-13,9.4-33,17.4-44.5,0c-0.4-0.5,0-1.3-1.1-1.398c-15.5,7.8-33.5,11.8-47.3-1.302c-0.7-0.198-0.9-0.398-2.8-0.5
	c-16.4,11.7-36.4,14.7-50.1-2.3l-0.3,0.2c-0.6-0.7-1.6-1.3-2.4-1.8c-0.1-1.602-0.3-3.5-0.5-5.5c-0.2-2.3-0.4-4.8-0.6-7.602
	c1.9,1.602,4.5,3.302,5.4,5.2c13.6,17,33.6,14,50.1,2.3c1.9,0.102,2.1,0.302,2.8,0.5c13.8,13.2,31.8,9.2,47.3,1.302
	c1.1,0,0.6,0.898,1.1,1.398c11.4,17.5,31.4,9.5,44.5,0c1.2,0,1.4,0.8,2.1,1.3c10.6,10.9,24.7,8.802,36.4,2.102
	c1.3-0.7,2.6-1.5,3.5-2.102c11,11.102,29,11.102,40.2,0.7c1-0.2,2.3-0.2,3.3,0.102C332.1,644.8,348.1,642.8,359.6,634.7
	c1.102-0.2,2.302-0.102,3.2,0.2c9.3,11.8,29.3,11.8,38.5,0c0.8-0.5,2-0.7,3.4-0.7c1.3,0,1.5,0.898,2.2,1.6
	c10.198,12.602,26.6,9,37.6,0.102c1.2-1,2.4-2,3.5-3.102c10.2,4,20.2,12,31.2,6c5.3-2.7,9.2-6.7,11.898-11.6
	c1.7-1.5,3.802-3.5,5.4-5.3c-0.3,2-0.7,4-1,5.8c-0.5,2.2-1,4.2-1.5,6.1l0,0C492.7,635.2,490.7,636.1,489.2,637.1L489.2,637.1z"/>
<path fill="#FFFFFF" stroke="#000000" stroke-width="0.5" d="M87.6,636.5l0.3-0.2c13.6,17,33.6,14,50.1,2.3
	c1.9,0.102,2.1,0.302,2.8,0.5c13.8,13.2,31.8,9.2,47.3,1.302c1.1,0,0.6,0.898,1.1,1.398c11.4,17.5,31.4,9.5,44.5,0
	c1.2,0,1.4,0.8,2.1,1.3c10.6,10.9,24.6,8.802,36.4,2.102c1.3-0.7,2.6-1.5,3.5-2.102c11,11.102,29,11.102,40.2,0.7
	c1-0.2,2.3-0.2,3.3,0c11.398,10.4,27.398,8.4,38.898,0.3c1.102-0.198,2.302-0.1,3.2,0.2c9.3,11.8,29.3,11.8,38.4,0
	c0.8-0.5,2-0.7,3.398-0.7c1.4,0,1.5,0.9,2.2,1.602c10.2,12.6,26.602,9,37.602,0.1c1.198-1,2.398-2,3.5-3.1
	c10.198,4,20.198,12,31.198,6c5.102-2.602,9-6.5,11.7-11.102h0.102c1.398-1.1,3.5-2,4.8-3.3c-0.5,3.8-1.3,7.4-2.5,10.9
	c-0.7,1.898-1.5,3.8-2.4,5.5l0.5,0.3c-2.898,4.2-8.1,5.3-13.1,7.9c-2.5,1.398-5,2-7.4,2.1c-8.2,0.4-16-5-23.898-8.1
	c-1.102,1.1-2.2,2.1-3.5,3.1c-9.4,7.6-22.802,11.3-32.9,4.3c-1.7-1.2-3.3-2.7-4.8-4.5c-0.7-0.7-0.8-1.6-2.2-1.6s-2.5,0.2-3.4,0.7
	c-4.198,5.5-10.8,8.398-17.5,8.8c-7.8,0.5-15.898-2.5-20.898-8.8c-0.9-0.4-2.102-0.4-3.2-0.2c-11.5,8.1-27.5,10.1-38.899-0.3
	c-1-0.302-2.301-0.302-3.301,0c-2.398,2.198-5.1,4-8,5.3c-10.6,4.7-23.6,2.8-32.2-5.9c-0.9,0.602-2.1,1.4-3.5,2.102
	c-11.8,6.6-25.8,8.8-36.4-2.102c-0.7-0.5-0.9-1.3-2.1-1.3c-4,2.9-8.5,5.6-13.3,7.5c-11,4.4-23.2,4.6-31.1-7.5
	c-0.4-0.5,0-1.3-1.1-1.4c-14.2,7.2-30.6,11.102-43.8,1.602c-1.2-0.8-2.3-1.8-3.5-2.9c-0.7-0.2-0.9-0.399-2.8-0.5
	c-5.7,4.101-11.9,7.101-18,8.601c-11.6,2.801-23.2,0.199-32-10.899c-0.3-0.5-0.4-2-0.8-4.101c-0.2-0.801-0.5-3.5-0.8-7.601
	C86.1,635.2,87,635.8,87.6,636.5z"/>
<path fill="#FFFFFF" stroke="#000000" stroke-width="0.5" d="M488.5,352.3c0,0,0.9,5.4-2.6,3.2l-2-1.7l0,0c0,0,0.398,5.1-4.302,1.3
	l-23.1-16.3c0,0-1.5,4.3,2.1,9.8c0,0,1.802,1.7,1.602,5.8c0,0.2,0,0.5-0.102,0.7c-0.6,4.7-2.8,0-2.8,0s-0.8-2.8-3.898-6.3
	c0,0-8.802-8.7-9-11.1c0,0-1.102-12-3-12.4c0,0-27.4-18.9-41.5-29.5H398.8c2.2-1.5,3.5-3.4,5.5-5.2c2.2-1.9,6.3-2.5,9.102-3.5
	c2.898-1.1,6.1-1.5,9-2.9c2.1,2.4,4.5,5,6.898,7.7c8.2,9.2,16.8,18.9,17.3,18.9c1.5,0,27.802,14.1,29.102,16.1
	c1.3,2.1,12.8,13.1,12.6,17.4c0,0,0.602,2.1-1.898,1.1l2.6,3.2C488.9,348.5,491.3,352.1,488.5,352.3z"/>
<path fill="#FFFFFF" stroke="#000000" stroke-width="0.5" d="M294.9,361.7c0,0.2,0,0.4,0,0.5c0,0.3,0,0.6,0.1,0.9
	c0,2.2-0.8,4.9-3.7,7.4c-3.5,3-3.1,14.7-6.1,16.7c-4.3,2.9-0.8,16.5-8.3,19c-4.1,1.399-3.3,14-8.9,16.1c-4.5,1.7-2.8,14.2-9,11.7
	c-6.3-2.6-6.8,12.2-11.8,11.9c-6.2-0.4-9.7,12.3-15.5,11.3c-5.4-0.9-9.9,11-15,7.5c-4.6-3.102-10.5,9.898-16.5,5.1
	c-4.6-3.7-12.4,6.4-18.4,2.7c-4.2-2.5-10,4.7-15.3,0.3c-4-3.3-10.7,3.4-16-1.3c-3.6-3.2-10.6,2.1-14.6-2.5c-3.5-4-12,0.9-16.1-4
	c-3.5-4.2-11.5,0.6-16.3-5.2c-3-3.7-9-3.5-13.8-5.3c0.8-3.3,1.7-6.5,2.6-9.7l0.6,0.2c197.7,60.6,195.9-128.6,195.7-139.2
	c3.9-0.2,7.801-0.6,11.602-1.1C300,312,297.3,491.6,488.1,454.3c1,4.602,1.802,9.3,2.5,14.102C485.5,472.6,475,464,471.7,468
	c-4.102,4.9-14.102-4.3-17.602-0.3c-4,4.6-11.1-0.7-14.698,2.5c-5.4,4.7-12.102-1.9-16,1.3c-5.302,4.4-11.102-2.8-15.302-0.3
	c-6,3.7-13.8-6.4-18.398-2.7c-6,4.8-11.9-8.3-16.5-5.1c-5.2,3.6-9.7-8.4-15-7.5c-5.8,1-9.3-11.7-15.5-11.302
	c-5,0.302-5.5-14.398-11.8-11.898c-6.2,2.5-4.5-10-9-11.7c-5.5-2.1-4.802-14.7-8.9-16.1c-7.5-2.5-4-16.101-8.3-19
	c-3-2-2.5-13.8-6.101-16.7c-2.301-1.9-3.301-4.1-3.601-6C295,362.6,294.9,362.1,294.9,361.7z"/>
<polygon fill="#FFFFFF" stroke="#000000" stroke-width="0.5" points="435,752.2 487.3,789.8 442.3,822.3 390.2,784.3 "/>
<polygon fill="#FFFFFF" stroke="#000000" stroke-width="0.5" points="485.6,715.8 435,752.2 389.9,719.7 440.2,683.3 "/>
<polygon fill="#FFFFFF" stroke="#000000" stroke-width="0.5" points="484.9,66.5 472.2,74 471.3,88.8 460.2,79 445.9,82.7 
	451.7,69.1 443.8,56.7 458.5,58 467.9,46.7 471.2,61 "/>
<path fill="#FFFFFF" stroke="#000000" stroke-width="0.5" d="M469.2,660.6l0.1,1.602l-29,21l-31.7-22.7l0,0l0.5-0.6
	c10,7,23.4,3.3,32.9-4.302c1.2-1,2.4-2,3.5-3.1C453.2,655.6,461,661,469.2,660.6z"/>
<path fill="#FFFFFF" stroke="#000000" stroke-width="0.5" d="M378.4,257.6c2.1-1.1,4.1-1.8,5.5-1.7l0.3-0.1c0.398,2.3,1.7,4.4,4,5.7
	c4.398,2.5,9.3,0.3,11-4c1.1-0.4,2.898-2.4,3.898-2.6c0.302,0.3,0.9,0.4,2.102,0.6c3.1,0.7,9.1,0.3,9-5.3h0.7
	c0,2.3,32.898,13.8,31.3,24.3c0,0.2-0.102,0.4-0.102,0.6c-4.398,2.8-10.8,3.3-15.8,4.8c-3,0.9-5.3,2.7-8,4c-2.898,1.4-6.1,1.8-9,2.9
	c-2.8,1.1-6.898,1.6-9.1,3.5c-2,1.8-3.3,3.7-5.5,5.2c-0.3,0.2-0.7,0.4-1,0.6c-5.8,3.2-12.9,2.2-18.3,5.9c-2.7,1.8-5,3.3-7.7,4.2
	c-1.5,0.5-3.102,0.8-4.9,0.9c-4.3,0.2-8.898,0.1-13.3-0.1c0.3-1.9,1.7-3.6,2.3-5.6c0,0,0,0,0-0.1c0.602-2.3,0.3-5.1,0.3-7.6
	c0-6.3,1-12.5,4.102-17.9c1.1-1.9,2.2-3.7,3.398-5.4c1.9-2.6,4-5.1,6.602-7.2c0.5-0.4,1.1-0.9,1.8-1.4l0,0c0.3-0.1,0.5-0.3,0.6-0.5
	C374.2,260.1,376.3,258.7,378.4,257.6z"/>
<path fill="#FFFFFF" stroke="#000000" stroke-width="0.5" d="M446.1,275.2c-0.1,0.3-0.1,0.5-0.3,0.8c-1.8,5-9,10.9-16.7,15.7
	c-2.398-2.7-4.8-5.4-6.898-7.7c2.7-1.3,5.1-3.1,8-4C435.3,278.5,441.8,278,446.1,275.2z"/>
<path fill="#FFFFFF" stroke="#000000" stroke-width="0.5" d="M371.5,306.4c41.8,23.1,99.9,68.5,116.5,147.8
	c-190.7,37.3-188-142.3-187.8-149.6c21.398-2.7,40.1-8.4,40.1-8.4s5.9,1.6,15.3,5.4c-0.5,2-1.898,3.6-2.3,5.6
	c4.3,0.2,8.9,0.3,13.3,0.1C368.4,307.2,370,306.9,371.5,306.4z"/>
<polygon fill="#FFFFFF" stroke="#000000" stroke-width="0.5" points="442.3,822.3 442.3,823.3 340.3,823.3 340.3,822.3 338.8,821.2 
	390.2,784.3 "/>
<path fill="#FFFFFF" stroke="#000000" stroke-width="0.5" d="M408.6,660.6L408.6,660.6l31.7,22.7L390,719.7l-43-31l34.4-24.5
	l-0.102-0.8c6.7-0.4,13.3-3.4,17.5-8.802c0.8-0.5,2-0.698,3.4-0.698c1.398,0,1.5,0.898,2.2,1.6c1.5,1.8,3.1,3.3,4.8,4.5L408.6,660.6
	z"/>
<polygon fill="#FFFFFF" stroke="#000000" stroke-width="0.5" points="435,752.2 390.2,784.3 345.6,751.8 389.9,719.7 "/>
<path fill="#FFFFFF" stroke="#000000" stroke-width="0.5" d="M426.6,216.6c1.5,7.7-0.5,17.7-6,22.3c-2.3,1.9-6.8,1.9-7.698,4.7
	H412.8c-1-2.2-2.5-3.9-4.6-3.5c0-2.8,0.398-18.6-5-24.5c-23-24.7-12.9-13.3-39.3-32.7v-0.1c2-0.2,4.6-1,7.3-3.4l0.1,0.1
	c3.5-0.3,8.4,5.5,11.7,7.1c4.3,2,8.1,4.9,12.6,6.9c6.2,2.8,14.2,4.4,19.302,9c2.398,2.2,4.698,2.6,6.398,5.3
	C422.8,210.5,426,213.6,426.6,216.6z"/>
<polygon fill="#FFFFFF" stroke="#000000" stroke-width="0.5" points="422.9,132.1 413.2,138.9 413.3,150.8 403.8,143.6 392.5,147.3 
	396.4,136.1 389.4,126.5 401.3,126.8 408.2,117.1 411.6,128.5 "/>
<path fill="#FFFFFF" stroke="#000000" stroke-width="0.5" d="M408.3,240.1c2.102-0.4,3.602,1.3,4.602,3.5
	c0.898,2.2,1.398,4.8,1.398,6.6l0,0c0.102,5.6-5.898,6-9,5.3c-1.1-0.2-1.7-0.4-2.1-0.6c-0.5-0.4-0.4-1-0.602-2.7
	c-0.198-1.7-1.898-2.4-1.3-3.7c1.2-3.1,2.9-7.1,6.3-8.3C407.8,240.2,408,240.1,408.3,240.1z"/>
<path fill="#FFFFFF" stroke="#000000" stroke-width="0.5" d="M402.6,252.3c0.2,1.6,0.102,2.3,0.602,2.7c-1,0.2-2.8,2.2-3.9,2.6
	c0.102-0.3,0.2-0.6,0.3-0.9c0-3-0.198-4.9-1.5-6.5l0.2-0.1c1.4-0.4,1.602-1,3-1.3C400.7,249.9,402.4,250.5,402.6,252.3z"/>
<polygon fill="#FFFFFF" stroke="#000000" stroke-width="0.5" points="345.6,751.8 390.2,784.3 338.8,821.2 294.7,788.6 "/>
<polygon fill="#FFFFFF" stroke="#000000" stroke-width="0.5" points="389.9,719.7 345.6,751.8 302.5,720.3 346.8,688.7 "/>
<polygon fill="#FFFFFF" stroke="#000000" stroke-width="0.5" points="384.7,16.6 378,26.3 382.3,37.3 371,33.9 361.8,41.3 
	361.5,29.6 351.7,23.2 362.8,19.3 365.8,7.9 373,17.2 "/>
<path fill="#FFFFFF" stroke="#000000" stroke-width="0.5" d="M384.2,255.9l-0.3,0.1c-1.5-0.1-3.5,0.6-5.5,1.7
	c-5.4-0.2-8.302-17.9-8.5-21.7c-0.302-6,1-12.1-1.602-17.4c-1.898-3.8-2.2-8.9-4.1-12.3H364c-0.1-2.1-0.2-4.1-0.2-6
	c0-2.2,0.9-6.6,0-8.7c6.7,0,6.4,7.1,8.7,11.7c2.9,6.1,3.8,11.5,4,18.3c0.3,6.5,1.1,11.1,3.5,17.1c1.2,3,0.5,1,5.2,9.4
	C384.2,250.6,383.8,253.4,384.2,255.9z"/>
<path fill="#FFFFFF" stroke="#000000" stroke-width="0.5" d="M381.2,663.5l0.1,0.8L346.9,688.8L307.3,660.3L306.9,659.4
	c2.898-1.302,5.6-3,8-5.302c1-0.198,2.3-0.198,3.3,0c11.398,10.4,27.398,8.4,38.898,0.302c1.102-0.2,2.302-0.102,3.2,0.198
	C365.3,661,373.4,664,381.2,663.5z"/>
<path fill="#FFFFFF" stroke="#000000" stroke-width="0.5" d="M372.4,261.4c-0.2,0.2-0.4,0.3-0.602,0.5l0,0
	c-2.6,1.1-8.8-2.8-10.8-4.6c-2.5-2.4-2-9-3.1-12.3c0.3-1.8,0.3-3.5,0.3-5.8c0-6.2,2.6-11.9,4.7-17.7c1.5-4.5,1.398-10,1.198-15.3
	h0.2c1.9,3.3,2.2,8.4,4.102,12.3c2.6,5.4,1.3,11.4,1.6,17.4c0.2,3.8,3.1,21.5,8.5,21.7C376.3,258.7,374.2,260.1,372.4,261.4z"/>
<path fill="#FFFFFF" stroke="#000000" stroke-width="0.5" d="M361,257.3c2,1.9,8.2,5.7,10.8,4.6c-0.7,0.5-1.3,1-1.8,1.4
	c-2.6,2.2-4.7,4.6-6.6,7.2c-3.9,0-6.9-0.1-9.4-3.3c-1.6-2.1-2.1-5.2-2.8-7.6c1.8-3.6,3.5-7,5.3-10.5c0.8-1.5,1.2-2.8,1.4-4.1
	C359,248.3,358.5,254.9,361,257.3z"/>
<path fill="#FFFFFF" stroke="#000000" stroke-width="0.5" d="M357.9,245c-0.2,1.3-0.7,2.6-1.4,4.1c-1.8,3.5-3.5,6.9-5.3,10.5
	c-2.602,5-7.4,10.8-9.2,16.4c-2.6,1-22.7,8.2-47.1,9v-0.3c0.699-3.2,1.398-3.4,3.6-1c-1-3.1-0.5-3.6,2.6-2.6
	c-2.398-2.2-2.3-2.9,1-3.6c-3.199-0.7-3.398-1.4-1-3.6c-3.1,1-3.6,0.5-2.6-2.6c-2.2,2.4-2.9,2.3-3.6-1l-0.301-2.5
	c0.699-3.2,1.399-3.4,3.601-1c-1-3.1-0.5-3.6,2.6-2.6c-2.399-2.2-2.2-2.9,1-3.6c-3.2-0.7-3.399-1.4-1-3.6c-3.1,1-3.6,0.6-2.6-2.6
	c-2.2,2.4-2.9,2.3-3.601-1l0.301-2.5c0.699-3.2,1.398-3.4,3.6-1c-1-3.1-0.5-3.6,2.6-2.6c-2.398-2.2-2.3-2.9,1-3.6
	c-3.199-0.7-3.398-1.4-1-3.6c-3.1,1-3.6,0.6-2.6-2.6c-2.2,2.4-2.9,2.2-3.6-1l-0.2-1.8c0.7-3.2,1.399-3.4,3.6-1
	c-1-3.1-0.6-3.6,2.601-2.6c-2.399-2.2-2.301-2.9,1-3.6c-3.199-0.7-3.399-1.4-1-3.6c-3.101,1.1-3.601,0.6-2.601-2.6
	c-2.2,2.4-2.899,2.3-3.6-1l0.8-1.7c4.6,2.9,11.3-6.3,12.3-7.6c0.4,0.9,0.9,1.6,1.4,2.3c7.5,10.3,15-4.9,15.898-6.8
	c5,5.6,12.4-7.5,12.4-7.5l0.2-0.6c7.898,4.4,12.1-5.7,12.5-6.6c4.3,1.4,7-1.3,8.5-4.2c1.6,2.2,4.1,1.3,5.2,3.8c0.898,2,0,6.4,0,8.7
	c0,1.9,0.1,3.9,0.198,6c0.2,5.3,0.4,10.8-1.198,15.3c-2,5.8-4.7,11.5-4.7,17.7C358.3,241.5,358.3,243.2,357.9,245z M351.3,219.8
	c0,0-0.5-1.5-8,6c-3,3,1-9.5-4.5-13.5c0,0-4,6.5-2,14c0,0-8-9.5-10.5-7c0,0,10,13,9.5,21c0,0,2-1,6.5,0
	C342.3,240.3,346.8,227.3,351.3,219.8z"/>
<path fill="#FFFFFF" stroke="#000000" stroke-width="0.5" d="M342,276c1.8-5.6,6.6-11.4,9.2-16.4c0.7,2.5,1.2,5.6,2.8,7.6
	c2.5,3.2,5.5,3.3,9.4,3.3c-1.2,1.7-2.302,3.5-3.4,5.4c-3,5.4-4.1,11.6-4.1,17.9c0,2.5,0.3,5.3-0.302,7.6c0,0,0,0,0,0.1
	c-9.398-3.7-15.3-5.4-15.3-5.4c3.602-4.4,0.2-13.3,1.3-18.7C341.7,277.1,341.8,276.5,342,276z"/>
<path fill="#FFFFFF" stroke="#000000" stroke-width="0.5" d="M350.2,192c-0.7-0.2-1.5-0.6-2.3-1.1c-10-6-19.4-27.3-24.7-30l0,0
	c1.6-1.1,3.1-2.2,4.7-3.5l0,0c13,0,32.6,25.1,32.6,25.1s-0.5,2.7-1.9,5.2C357.2,190.7,354.5,193.4,350.2,192z"/>
<path fill="#FFFFFF" stroke="#000000" stroke-width="0.5" d="M343.3,225.8c7.5-7.5,8-6,8-6c-4.5,7.5-9,20.5-9,20.5
	c-4.5-1-6.5,0-6.5,0c0.5-8-9.5-21-9.5-21c2.5-2.5,10.5,7,10.5,7c-2-7.5,2-14,2-14C344.3,216.3,340.2,228.8,343.3,225.8z"/>
<path fill="#FFFFFF" stroke="#000000" stroke-width="0.5" d="M347.9,190.9c0.8,0.5,1.6,0.9,2.3,1.1c-0.4,1-4.5,11-12.5,6.6
	c-5-2.8-11.5-11.3-19.5-31.4c-0.4-1-0.9-2.2-1-2.6c1.898-1.1,3.898-2.3,5.898-3.7l0,0C328.5,163.6,337.9,184.9,347.9,190.9z"/>
<polygon fill="#FFFFFF" stroke="#000000" stroke-width="0.5" points="346.8,688.7 302.5,720.3 263.3,691.6 307.3,660.3 "/>
<path fill="#FFFFFF" stroke="#000000" stroke-width="0.5" d="M316.9,63.4c-0.2-0.3-0.302-0.7-0.5-1c-0.302-0.7-0.7-1.3-0.802-1.8
	c-0.5-0.8-0.8-1.4,0.5-1.3c-2-1.4-2.3-2-0.3-3.8c-2.6,0.7-3,0.1-3-2.3c-0.6,1.2-1,0.7-1.3-0.3c-0.3-0.1-0.6-0.7-0.9-1.2
	c-0.398-0.6-0.8-1.2-0.5-1.1c-1-1.2-1.398-1.8,0.4-0.7c-2.6-2.1-3-2.7-1.6-6.4c-2.102,2.7-2.5,2.2-3.802-0.4
	c0.5,1.6,0.102,1.2-0.6,0.1c0.1,0.3-0.1,0-0.3-0.2c-0.2-0.3-0.4-0.5-0.601-0.7c-0.601-0.6-1.101-1.1,0.199-0.8
	c-2.3-1.3-2.699-1.7,0.2-2.9c-3.8,0.3-4.3-0.1-5.5-3.5c0.2,2.6-0.3,2.3-1.601,0.6c0.399,1-0.101,0.6-0.601,0.2
	c-0.2-0.1-0.5-0.3-0.7-0.5c-0.199-0.2-0.5-0.3-0.6-0.5c-0.7-0.3-1.301-0.6-0.1-1c-2.301-0.2-2.801-0.4-0.801-2.3
	c-3,1.4-3.601,1.2-4.4-2c-0.199,2.9-0.699,2.7-2.5,1c0.801,1.4,0.301,1.3-0.799,0.8c0,0.3-0.5,0.2-1,0.2
	c-0.602-0.1-1.102-0.1-1.701-0.2c-0.6,0-1.1,0-1.1-0.7c-1.1,0.7-1.7,0.8-1.8-0.9c-0.9,1.7-1.4,1.8-2.7,0.1c0.2,1.9-0.4,2-1.9,1.2
	c0.5,1,0,1.1-0.9,1.2c-0.2,0.3-0.7,0.5-1.2,0.7s-1.1,0.4-1.3-0.1c-0.9,1-1.4,1.2-2-0.3c-0.5,2.1-1,2.3-2.8,1.1
	c0.8,1.9,0.3,2.2-1.5,2.1c0.8,0.7,0.3,1-0.4,1.4c-0.3,0.3-0.8,0.7-1.3,1c-0.5,0.4-1,0.8-1.4,0.8c-0.6,0.8-1.1,1.2-1.7,0
	c-0.3,1.9-0.8,2.4-2.6,1.3c1,1.9,0.5,2.3-1.4,2.5c1.1,0.7,0.7,1.1-0.1,1.6c0,0.3-0.4,0.8-0.8,1.2c-0.5,0.5-0.9,1-1.3,1.1
	c-0.5,0.9-0.9,1.3-1.5,0.3c-0.2,2.1-0.6,2.5-2.6,1.5c1.3,1.9,0.9,2.3-1.2,2.8c1.5,0.4,1.2,0.8,0.1,1.5c0.5,0.1,0.3,0.5,0,0.8
	c-0.2,0.3-0.4,0.6-0.6,0.9c-0.8,1.1-1.2,1.8-1.2,1.8l0.5,0.2C248.9,56.3,285.4,26.9,316.9,63.4z M251.2,149.8
	c-4.9,0.5-12.2,1.5-19.4,2.9l-0.1-0.5c1.5-15.8,1.1-35.6,0.5-42.5c-2-22-2.5-39,1.7-48.2c11.4-24.9,26.7-38.4,60.3-36.4
	c43,2.5,54.7,79.3,51.7,130.3c-5-1.1-9.5-1.9-12.7-2.4c-2.9-0.5-4.602-0.7-4.602-0.7l0,0c-0.5,0-16.698,4.7-24.398-24.5l0,0
	c0.7-0.6,1.399-1.2,2-1.8c5.6-9.5,19.398-15.7,20.398-24.4c0.302-2.6-1.698-6.6-4.5-6.1c-6,2.5-4.6,9.8-8.6,11.1l0,0
	c0.1-0.3,0.3-0.6,0.4-1c1.8-23.3-25.9-35.5-40-49.6c-24.7,8-36.6,38.4-24,60.8c5.7,7.2,11.7,15.3,20,20c0,0.3,0,0.5,0,0.8
	c0,0.8,0.2,1.4,0.2,1.9c-0.2,10.3-11.2,8.1-12.7,9.8C257.3,149.3,254.9,149.4,251.2,149.8L251.2,149.8z"/>
<polygon fill="#FFFFFF" stroke="#000000" stroke-width="0.5" points="302.5,720.3 345.6,751.8 294.7,788.6 251.4,756.6 "/>
<path fill="#FFFFFF" stroke="#000000" stroke-width="0.5" d="M288.6,305.7c-16,1-32-0.4-41.5-7.8c-0.1,0-0.1-0.1-0.2-0.1l0,0
	c0.3-0.5,0.3-1.3,0.4-2.5c0-0.6-1-1.2-1-2c-0.1-0.9,0.8-1,0.7-2c-0.1-1.5-0.8-2.6-0.9-4.3c-0.1-0.7,1.1-1.2,0.9-2.1
	c-0.1-0.7-1.2-0.8-1.4-1.3c-1.2-2.9-2.7-6.6,1.3-8.1c15.4,7.9,32.6,10,48.1,9.5c24.3-0.8,44.5-8,47.1-9c-0.198,0.5-0.3,1-0.398,1.5
	c-1.102,5.4,2.3,14.3-1.3,18.7c0,0-18.7,5.7-40.102,8.4C296.4,305.1,292.5,305.5,288.6,305.7z"/>
<polygon fill="#FFFFFF" stroke="#000000" stroke-width="0.5" points="338.8,821.2 340.3,822.3 340.3,823.3 248.3,823.3 248.3,822.3 
	294.7,788.6 "/>
<path fill="#FFFFFF" stroke="#000000" stroke-width="0.5" d="M325.2,206.8c-0.7-0.8-1.3-1.9-1.9-3.5c-4.7-13-11.8-35.7-11.8-35.7
	l0,0c1.9-0.8,3.8-1.8,5.8-2.9c0.102,0.4,0.602,1.6,1,2.6c8,20.1,14.5,28.6,19.5,31.4l-0.2,0.6C337.6,199.3,330.1,212.3,325.2,206.8z
	"/>
<path fill="#FFFFFF" stroke="#000000" stroke-width="0.5" d="M273.1,167.4c-2.3-1.1-4.4-2.3-6.3-3.6c-2.9-2-5.5-4-7.6-6l0,0
	c-1.4-1.3-2.7-2.5-3.8-3.6c-2.3-2.4-3.8-4.1-4.2-4.3c3.7-0.4,6-0.6,6-0.6c0.3,0.4,34.7,35.1,71.3,3l0,0c0,0,1.8,0.2,4.6,0.7
	c-1.8,1.6-3.5,3.1-5.3,4.5c-1.6,1.3-3.2,2.4-4.7,3.5c-2,1.4-4,2.6-5.898,3.7c-2,1.1-3.9,2.1-5.8,2.9c-3.602,1.6-7.102,2.7-10.4,3.4
	c-3.899,0.8-7.601,1.1-11.101,0.9c-3.399-0.2-6.601-0.8-9.601-1.6C277.7,169.4,275.3,168.4,273.1,167.4z"/>
<path fill="#FFFFFF" stroke="#000000" stroke-width="0.5" d="M304.2,127.8c7.7,29.2,23.8,24.5,24.398,24.5
	c-36.698,32.1-71-2.6-71.3-3c1.5-1.7,12.5,0.5,12.7-9.8c0-0.5-0.2-1.1-0.2-1.9c0-0.3,0-0.5,0-0.8C281.9,141,294.7,135.8,304.2,127.8
	L304.2,127.8z"/>
<path fill="#FFFFFF" stroke="#000000" stroke-width="0.5" d="M307.8,211.3c-6.6-12.6-6.8-40.3-6.8-40.3l0,0
	c3.3-0.7,6.8-1.8,10.4-3.4l0,0c0,0,7.1,22.7,11.8,35.7c0.6,1.6,1.2,2.7,1.898,3.5c-0.898,1.9-8.398,17.1-15.898,6.8
	C308.7,212.9,308.3,212.1,307.8,211.3z"/>
<path fill="#FFFFFF" stroke="#000000" stroke-width="0.5" d="M316.4,62.3c0.198,0.3,0.3,0.7,0.5,1c-31.4-36.5-68-7.1-68-7.1
	l-0.5-0.2c0,0,0.4-0.7,1.2-1.8c0.2-0.3,0.4-0.6,0.6-0.9c0.3-0.4,0.5-0.7,0-0.8c1.1-0.7,1.4-1.1-0.1-1.5c2.1-0.4,2.4-0.8,1.2-2.8
	c2,1,2.4,0.5,2.6-1.5c0.6,1.1,1,0.6,1.5-0.3c0.4-0.1,0.8-0.6,1.3-1.1c0.4-0.4,0.8-0.8,0.8-1.2c0.8-0.5,1.2-0.9,0.1-1.6
	c1.9-0.2,2.4-0.6,1.4-2.5c1.9,1.1,2.3,0.7,2.6-1.3c0.6,1.1,1.1,0.7,1.7,0c0.4,0,0.9-0.4,1.4-0.8s0.9-0.7,1.3-1
	c0.7-0.3,1.2-0.6,0.4-1.4c1.8,0.1,2.3-0.2,1.5-2.1c1.8,1.3,2.3,1,2.8-1.1c0.6,1.5,1.1,1.3,2,0.3c0.2,0.5,0.8,0.3,1.3,0.1
	c0.5-0.2,1-0.4,1.2-0.7c0.9,0,1.4-0.2,0.9-1.2c1.6,0.8,2.1,0.6,1.9-1.2c1.3,1.7,1.8,1.6,2.7-0.1c0.2,1.6,0.7,1.6,1.8,0.9
	c0,0.7,0.6,0.7,1.1,0.7c0.5,0.1,1.1,0.1,1.7,0.2c0.5,0.1,1,0.1,1-0.2c1.101,0.5,1.601,0.6,0.8-0.8c1.801,1.7,2.301,1.8,2.5-1
	c0.801,3.2,1.301,3.4,4.4,2c-2,1.8-1.5,2.1,0.8,2.3c-1.2,0.4-0.601,0.7,0.101,1c0.199,0.1,0.399,0.3,0.601,0.5
	c0.2,0.2,0.5,0.4,0.7,0.5c0.5,0.4,1,0.7,0.6-0.2c1.301,1.7,1.801,2,1.602-0.6c1.1,3.4,1.6,3.8,5.5,3.5c-2.9,1.2-2.5,1.6-0.2,2.9
	c-1.3-0.3-0.8,0.2-0.2,0.8c0.2,0.2,0.4,0.4,0.6,0.7c0.2,0.3,0.5,0.5,0.301,0.2c0.699,1,1.101,1.5,0.601-0.1c1.3,2.6,1.7,3.1,3.8,0.4
	c-1.398,3.7-1,4.3,1.602,6.4c-1.802-1.1-1.4-0.5-0.4,0.7c-0.2-0.1,0.2,0.5,0.5,1.1c0.3,0.5,0.7,1.1,0.9,1.2
	c0.398,1,0.698,1.5,1.3,0.3c0,2.4,0.398,3,3,2.3c-2,1.9-1.7,2.5,0.3,3.8c-1.3-0.1-1,0.5-0.5,1.3C315.7,61,316.1,61.6,316.4,62.3z"/>
<path fill="#FFFFFF" stroke="#000000" stroke-width="0.5" d="M306.8,659.3l0.4,0.9l-44,31.398l-43-31.398l-0.3,0.2l-0.7-0.9
	c4.8-1.9,9.4-4.7,13.3-7.5c1.2,0,1.4,0.8,2.1,1.3c10.6,10.9,24.7,8.8,36.4,2.102c1.3-0.7,2.6-1.5,3.5-2.102
	C283.2,662.1,296.2,664,306.8,659.3z"/>
<polygon fill="#FFFFFF" stroke="#000000" stroke-width="0.5" points="302.5,720.3 251.4,756.6 212.5,727.9 263.3,691.6 "/>
<path fill="#FFFFFF" stroke="#000000" stroke-width="0.5" d="M301.1,240.3c-2.398,2.2-2.3,2.9,1,3.6c-3.199,0.7-3.398,1.4-1,3.6
	c-3.1-1-3.6-0.5-2.6,2.6c-2.2-2.4-2.9-2.3-3.6,1c-0.7-3.2-1.4-3.4-3.602-1c1-3.1,0.602-3.6-2.6-2.6c2.398-2.2,2.3-2.9-1-3.6
	c3.199-0.7,3.398-1.4,1-3.6c3.1,1,3.6,0.6,2.6-2.6c2.2,2.4,2.9,2.2,3.602-1c0.699,3.2,1.398,3.4,3.6,1
	C297.5,240.9,298,241.3,301.1,240.3z"/>
<path fill="#FFFFFF" stroke="#000000" stroke-width="0.5" d="M301.1,274c-2.398,2.2-2.3,2.9,1,3.6c-3.199,0.7-3.398,1.4-1,3.6
	c-3.1-1-3.6-0.6-2.6,2.6c-2.2-2.4-2.9-2.3-3.6,1c-0.7-3.2-1.4-3.4-3.602-1c1-3.1,0.602-3.6-2.6-2.6c2.398-2.2,2.3-2.9-1-3.6
	c3.199-0.7,3.398-1.4,1-3.6c3.1,1,3.6,0.5,2.6-2.6c2.2,2.4,2.9,2.3,3.602-1c0.699,3.2,1.398,3.4,3.6,1
	C297.5,274.5,298,275,301.1,274z"/>
<path fill="#FFFFFF" stroke="#000000" stroke-width="0.5" d="M300.9,224.1c-2.4,2.2-2.301,2.9,1,3.6c-3.2,0.7-3.4,1.4-1,3.6
	c-3.102-1-3.602-0.6-2.602,2.6c-2.199-2.4-2.898-2.3-3.6,1c-0.7-3.2-1.4-3.4-3.602-1c1-3.1,0.602-3.6-2.6-2.6c2.4-2.2,2.3-2.9-1-3.6
	c3.199-0.7,3.4-1.4,1-3.6c3.1,1.1,3.6,0.6,2.6-2.6c2.2,2.4,2.9,2.3,3.602-1c0.699,3.2,1.398,3.4,3.6,1
	C297.3,224.7,297.8,225.2,300.9,224.1z"/>
<path fill="#FFFFFF" stroke="#000000" stroke-width="0.5" d="M300.8,257.1c-2.399,2.2-2.2,2.9,1,3.6c-3.2,0.7-3.399,1.4-1,3.6
	c-3.1-1.1-3.6-0.6-2.6,2.6c-2.2-2.4-2.9-2.3-3.601,1c-0.699-3.2-1.399-3.4-3.601-1c1-3.1,0.601-3.6-2.601-2.6
	c2.399-2.2,2.199-2.9-1-3.6c3.199-0.7,3.399-1.4,1-3.6c3.101,1,3.601,0.6,2.601-2.6c2.2,2.4,2.899,2.3,3.601-1
	c0.699,3.2,1.399,3.4,3.601,1C297.2,257.7,297.7,258.1,300.8,257.1z"/>
<path fill="#FFFFFF" stroke="#000000" stroke-width="0.5" d="M295.6,90.9c2.801,0,5.801-0.3,7.801,1.6
	c-1.101,2.5-3.801,3.6-6.801,3.9c1.301-0.4,2.2-1.4,2.2-2.6c0-1.5-1.399-2.7-3.2-2.7V90.9z"/>
<path fill="#FFFFFF" stroke="#000000" stroke-width="0.5" d="M295.6,91.1c1.801,0,3.2,1.2,3.2,2.7c0,1.2-0.899,2.2-2.2,2.6
	c-0.6,0.1-1.199,0.1-1.898,0.1c-1.4-0.3-2.4-1.4-2.4-2.6C292.4,92.3,293.8,91.1,295.6,91.1z"/>
<path fill="#FFFFFF" stroke="#000000" stroke-width="0.5" d="M295.6,90.9v0.2c-1.8,0-3.199,1.2-3.199,2.7c0,1.3,1,2.3,2.399,2.6
	c-2.899,0-5.7-0.7-7.6-1.5c2.399-2.8,4.2-4,7.8-4C295.2,90.9,295.4,90.9,295.6,90.9z"/>
<polygon fill="#FFFFFF" stroke="#000000" stroke-width="0.5" points="251.4,756.6 294.7,788.6 248.3,822.3 247.8,822.3 204,790.4 
	"/>
<path fill="#FFFFFF" stroke="#000000" stroke-width="0.5" d="M292,211.4L292,211.4c-14,15.7-17.7-3.9-17.7-3.9h-0.1
	c5.9-10.8,6.1-37.3,6.1-37.3v-0.1c3,0.9,6.2,1.5,9.601,1.6v0.1C289.9,171.9,288.7,195.4,292,211.4z"/>
<path fill="#FFFFFF" stroke="#000000" stroke-width="0.5" d="M288.6,305.7c0.301,10.6,2,199.8-195.7,139.2l-0.6-0.2
	c34.3-120.6,105.9-142.8,138-146.6c10.1-1.2,16.3-0.5,16.3-0.5c0.1,0.1,0.2,0.2,0.3,0.2c0.1,0.1,0.1,0.1,0.2,0.1
	C256.6,305.3,272.5,306.7,288.6,305.7z"/>
<path fill="#FFFFFF" stroke="#000000" stroke-width="0.5" d="M266.6,119.3c11,4.3,14.7-1.1,21,1c-6.7,4.8-7.5,5.8-13.3,5.7
	C269.4,125.4,268.8,122.1,266.6,119.3z"/>
<path fill="#FFFFFF" stroke="#000000" stroke-width="0.5" d="M280.3,170.1v0.1c0,0-0.2,26.5-6.1,37.3c-0.6,1.1-1.2,2-1.9,2.7
	c-12.8,13.1-16.4-8.4-16.6-9.8c9.4-9.4,17.1-32.1,17.4-33.1C275.3,168.4,277.7,169.4,280.3,170.1z"/>
<path fill="#FFFFFF" stroke="#000000" stroke-width="0.5" d="M276.6,110.9c1.7,1.2,1.8,1,2.4,2.8c-1.3,0.3-0.6,0.1-2.4-0.1
	C276.5,112.8,276.6,111.7,276.6,110.9z"/>
<path fill="#FFFFFF" stroke="#000000" stroke-width="0.5" d="M273.5,110.9c1,0.4,0.5,1.7,0.5,3c-0.8,0-2,0.2-2.8,0.2
	C271.4,112.5,273.5,112,273.5,110.9z"/>
<path fill="#FFFFFF" stroke="#000000" stroke-width="0.5" d="M255.7,200.5c-0.8,0.8-1.6,1.5-2.4,2.1c-10.7,7.7-11.3-12.3-11.3-12.3
	c13-3.2,23.9-24.4,24.9-26.5c1.9,1.3,4,2.5,6.3,3.6C272.8,168.4,265.1,191.1,255.7,200.5z"/>
<path fill="#FFFFFF" stroke="#000000" stroke-width="0.5" d="M258.6,92.5c3.6,0,5.4,1.2,7.8,4c-1.9,0.8-4.7,1.5-7.6,1.5
	c1.4-0.3,2.4-1.3,2.4-2.6c0-1.5-1.4-2.7-3.2-2.7v-0.2C258.2,92.5,258.4,92.5,258.6,92.5z"/>
<polygon fill="#FFFFFF" stroke="#000000" stroke-width="0.5" points="263.3,691.6 212.5,727.9 170.5,696.9 220,660.5 220.3,660.3 
	"/>
<path fill="#FFFFFF" stroke="#000000" stroke-width="0.5" d="M258,92.7c1.8,0,3.2,1.2,3.2,2.7c0,1.3-1,2.3-2.4,2.6
	c-0.6,0-1.3,0-1.9-0.1c-1.3-0.4-2.2-1.4-2.2-2.6C254.8,93.9,256.2,92.7,258,92.7z"/>
<path fill="#FFFFFF" stroke="#000000" stroke-width="0.5" d="M231.2,186.3c-1.1-2.8-0.7-6-0.6-6.6c10.7-4.8,26.4-16.8,28.6-21.9
	c2.1,2,4.7,4,7.6,6c-1,2.1-11.9,23.3-24.9,26.5C235.2,191.9,232.3,189.3,231.2,186.3z"/>
<path fill="#FFFFFF" stroke="#000000" stroke-width="0.5" d="M230.6,179.7c-0.5,0.2-0.9,0.4-1.3,0.6c-3.1,1.3-5.3,1.3-6.9,0.7l0,0
	c-2.2-0.8-3.3-2.8-3.8-4.4c-0.4-1.2-0.4-2.2-0.4-2.2c0.1-0.1,0.1-0.3,0.2-0.4c0.3-1,36.1-18.5,37.1-19.7l0.1-0.1
	c1.1,1.1,2.3,2.3,3.8,3.6l0,0C256.9,162.9,241.2,174.9,230.6,179.7z"/>
<path fill="#FFFFFF" stroke="#000000" stroke-width="0.5" d="M212.1,171.9c-2.1-2.5-3.8-5.3-3.8-5.3c-0.3-0.8-0.4-1.6-0.3-2.3
	c0.7-5.6,12.2-9.2,23.9-11.6c7.2-1.4,14.5-2.4,19.4-2.9l0,0c0.5,0.2,1.9,1.9,4.2,4.3l-0.1,0.1c-1,1.2-36.8,18.7-37.1,19.7
	c0,0.1-0.1,0.3-0.2,0.4C216.9,176.8,214.3,174.6,212.1,171.9z"/>
<polygon fill="#FFFFFF" stroke="#000000" stroke-width="0.5" points="251.4,756.6 204,790.4 164.8,761.9 212.5,727.9 "/>
<polygon fill="#FFFFFF" stroke="#000000" stroke-width="0.5" points="248.3,822.3 248.3,823.3 159.3,823.3 159.3,822.3 204,790.4 
	247.8,822.3 "/>
<path fill="#FFFFFF" stroke="#000000" stroke-width="0.5" d="M246.2,293.2c0.1,0.8,1,1.4,1,2c0,1.3,0,2-0.4,2.5l0,0
	c-0.1-0.1-0.2-0.2-0.3-0.2c0,0-6.2-0.6-16.3,0.5l-0.1-0.5c-0.3-1.9-1.7-3.5-2.3-5.4c-0.6-2.2-0.3-5-0.3-7.4c0-6.1-1.1-12.1-4.1-17.2
	c-1.5-2.5-3-4.8-4.8-7c6,0.1,13.1,1.6,16.7-3.8c0.4-0.7,0.5-1.9,0.3-3.4c2,3.4,5.3,5.5,7.8,8.5c3.6,4.4,3.6,7.9,3.3,13.6
	c-4,1.4-2.5,5.2-1.3,8.1c0.2,0.5,1.2,0.6,1.4,1.3c0.2,0.9-1,1.4-0.9,2.1c0.1,1.6,0.8,2.7,0.9,4.3C247,292.2,246.2,292.4,246.2,293.2
	z"/>
<path fill="#FFFFFF" stroke="#000000" stroke-width="0.5" d="M235.8,253.4c0.2,1.6,0.1,2.8-0.3,3.4c-3.6,5.3-10.7,3.8-16.7,3.8
	c-1.5-1.9-3.2-3.6-5.2-5.2c-1.1-0.9-3-2.3-5.1-3.6l0.1-0.2c6.5,0,10.7-0.1,12.7-6.7c1.6-5.2,1.5-11.5,2-17
	c0.5-4.9,0.1-10.1,0.2-15.1h0.3C223.5,218.7,234.7,243.6,235.8,253.4z"/>
<path fill="#FFFFFF" stroke="#000000" stroke-width="0.5" d="M230.6,179.7c-0.1,0.6-0.5,3.8,0.6,6.6c-1.6,0.8-2.3,2.9-2.9,4.5
	c-2.5,6.4-4.3,12.2-4.7,19.4c0,0.9-0.1,1.8-0.1,2.6c-0.1,5,0.3,10.1-0.2,15.1c-0.5,5.4-0.5,11.8-2,17c-2,6.6-6.2,6.7-12.7,6.7
	l-0.1,0.2c-3.1-1.9-6.6-3.7-8.8-3.5l-0.4-0.1c0.5-2.5,0-5.2-1.1-7.7c4.7-8.4,4-6.5,5.2-9.4c2.4-6.1,3.3-10.6,3.5-17.1
	c0.3-6.8,1.1-12.2,4-18.3c2.1-4.4,5.1-14,11.4-14.6l0,0c1.6,0.6,3.9,0.5,6.9-0.7C229.7,180.1,230.1,179.9,230.6,179.7z"/>
<path fill="#FFFFFF" stroke="#000000" stroke-width="0.5" d="M160,274.7c-2.2-1.2-4.3-2.5-6.8-3.3c-5.1-1.5-11.6-2-16-4.7
	c-1.1-10.4,31.4-21.8,31.4-24.1h0.7c-0.1,5.6,5.9,6,9,5.3c1.5-0.3,2.1-0.4,2.3-1c1,0.2,2.6,2.8,3.7,3c1.7,4.3,6.6,6.5,11,4
	c2.3-1.4,3.6-3.4,4-5.7l0.4,0.1c2.2-0.2,5.8,1.6,8.8,3.5c2.1,1.3,4,2.7,5.1,3.6c2,1.6,3.7,3.3,5.2,5.2c1.8,2.2,3.3,4.5,4.8,7
	c3,5.2,4.1,11.2,4.1,17.2c0,2.4-0.3,5.1,0.3,7.4c0.5,1.9,1.9,3.5,2.3,5.4c-4.3,0.2-8.9,0.3-13.3,0.1c-5.2-0.2-8.5-2.2-12.6-4.9
	c-5.4-3.5-12.5-2.6-18.4-5.6c-2.9-1.5-4.3-3.7-6.6-5.6c-2.2-1.8-6.3-2.4-9.1-3.4c-2.9-1.1-6.1-1.5-9-2.8
	C160.9,275.1,160.4,274.9,160,274.7z"/>
<path fill="#FFFFFF" stroke="#000000" stroke-width="0.5" d="M219.3,659.6l0.7,0.9l-49.4,36.4l-44.2-32.7l16.9-12l0,0
	c13.2,9.6,29.6,5.6,43.8-1.602c1.1,0,0.6,0.9,1.1,1.4C196.1,664.2,208.3,664,219.3,659.6z"/>
<path fill="#FFFFFF" stroke="#000000" stroke-width="0.5" d="M218.5,176.6c0.5,1.6,1.6,3.6,3.8,4.4c-6.3,0.6-9.2,10.2-11.4,14.6
	c-2.9,6.1-3.8,11.5-4,18.3c-0.3,6.5-1.1,11.1-3.5,17.1c-1.2,3-0.5,1-5.2,9.4c-0.4-0.9-0.8-1.7-1.3-2.5c-3.2-1-6,0.3-8.6,2
	c-1.2,0.8-2.1,1.5-2.7,2.3c-1.2-0.4-2-1-3.3-1.4c-1.2-3.1-2.9-7.1-6.3-8.3c-0.2-0.1-0.5-0.1-0.7-0.2c0-2.8-0.4-18.6,5-24.5
	c23-24.7,11.3-12,37.7-31.3L218.5,176.6z"/>
<path fill="#FFFFFF" stroke="#000000" stroke-width="0.5" d="M218.5,176.6h-0.6c-26.4,19.4-14.7,6.7-37.7,31.3
	c-5.4,5.8-5,21.7-5,24.5c-2.1-0.4-3.6,1.3-4.6,3.6h-0.1c-0.8-2.8-5.3-2.7-7.7-4.7c-5.5-4.6-7.5-14.7-6-22.3c0.6-3,3.8-6.1,5.3-8.7
	c1.7-2.7,4-3.1,6.4-5.3c5.1-4.6,13.1-6.3,19.3-9c4.4-2,8.2-4.9,12.6-6.9c3.3-1.5,8.1-7.2,11.6-7.1c2.2,2.7,4.9,4.9,6,2.4
	C218.1,174.4,218.1,175.3,218.5,176.6z"/>
<polygon fill="#FFFFFF" stroke="#000000" stroke-width="0.5" points="212.5,727.9 164.8,761.9 123.2,731.7 170.5,696.9 "/>
<path fill="#FFFFFF" stroke="#000000" stroke-width="0.5" d="M212.1,171.9c-3.5-0.1-8.3,5.6-11.6,7.1c-4.3,2-8.1,4.9-12.6,6.9
	c-6.2,2.8-14.2,4.4-19.3,9c-2.4,2.2-4.7,2.6-6.4,5.3c-1.6,2.5-4.8,5.7-5.3,8.7c-1.5,7.7,0.5,17.7,6,22.3c2.3,1.9,6.8,1.9,7.7,4.7
	h0.1c-0.9,2.2-1.4,4.8-1.4,6.6l0,0h-0.7c0-0.2-0.2-0.3-0.7-0.4c-19.7-2.7-25.7-24-25.7-24s-9.7-31.1,14-33.3
	c30.7-2.9,50.1-19.6,51.3-20.6h0.4c-0.1,0.7,0,1.5,0.3,2.3C208.3,166.6,210,169.5,212.1,171.9z"/>
<polygon fill="#FFFFFF" stroke="#000000" stroke-width="0.5" points="204,790.4 159.3,822.3 119.8,794 164.8,761.9 "/>
<path fill="#FFFFFF" stroke="#000000" stroke-width="0.5" d="M198.2,240.4c1.1,2.5,1.5,5.3,1.1,7.7c-0.4,2.3-1.7,4.4-4,5.7
	c-4.4,2.5-9.3,0.3-11-4c-0.1-0.3-0.2-0.6-0.3-1c0-3.1,0.2-5,1.6-6.6c0.6-0.8,1.5-1.5,2.7-2.3c2.6-1.7,5.4-3,8.6-2
	C197.4,238.8,197.8,239.6,198.2,240.4z"/>
<path fill="#FFFFFF" stroke="#000000" stroke-width="0.5" d="M78.8,365.9l-2,1.7c-3.5,2.2-2.6-3.1-2.6-3.1c-2.7-0.2-0.4-3.6-0.4-3.6
	l2.5-3.1c-2.4,0.9-1.8-1.1-1.8-1.1c-0.2-4.2,10.9-15,12.2-17c1.3-2,26.8-15.7,28.3-15.7c1.1,0,24.7-26.5,37.4-40.9
	c0,0,0-0.1,0.1-0.1c3.6-4.1,6.3-7.1,7.4-8.3c0.4,0.2,0.8,0.4,1.2,0.6c2.9,1.4,6.1,1.8,9,2.8c2.8,1,6.9,1.6,9.1,3.4
	c2.3,2,3.7,4.1,6.6,5.6c0.7,1.3-18.5,15.8-18.5,15.8c-2.2,1.1-47.2,35.4-47.2,35.4c-1.8,0.4-2.9,12-2.9,12c-0.2,2.4-10,10.6-10,10.6
	c-3.1,3.5-2.6,6.4-2.6,6.4s-2.2,4.5-2.7,0c0-0.3,0-0.5-0.1-0.7c-0.3-4,1.5-5.6,1.5-5.6c3.5-5.3,2-9.5,2-9.5l-22.4,15.9
	C78.5,370.9,78.9,366,78.8,365.9L78.8,365.9z"/>
<path fill="#FFFFFF" stroke="#000000" stroke-width="0.5" d="M185.5,242.3c-1.4,1.7-1.6,3.5-1.6,6.6c0.1,0.3,0.2,0.7,0.3,1
	c-1.1-0.2-2.6-2.8-3.7-3c0.2-0.4,0.2-1.1,0.3-2.4c0.2-1.7,1.9-2.4,1.3-3.7C183.5,241.2,184.4,241.9,185.5,242.3z"/>
<path fill="#FFFFFF" stroke="#000000" stroke-width="0.5" d="M175.3,232.4c0.2,0,0.5,0.1,0.7,0.2c3.5,1.3,5.1,5.2,6.3,8.3
	c0.6,1.3-1.2,2-1.3,3.7c-0.1,1.2-0.1,1.9-0.3,2.4c-0.3,0.5-0.8,0.7-2.3,1c-3.1,0.7-9.1,0.3-9-5.3l0,0c0-1.8,0.5-4.5,1.4-6.6
	C171.6,233.7,173.1,232,175.3,232.4z"/>
<polygon fill="#FFFFFF" stroke="#000000" stroke-width="0.5" points="178.9,65.3 168.9,73.1 169.8,85.8 159.2,78.7 147.5,83.4 
	150.9,71.2 142.9,61.5 155.5,61 162.3,50.3 166.6,62.2 "/>
<polygon fill="#FFFFFF" stroke="#000000" stroke-width="0.5" points="126.3,664.2 170.5,696.9 123.2,731.7 77.7,698.6 "/>
<polygon fill="#FFFFFF" stroke="#000000" stroke-width="0.5" points="164.8,761.9 119.8,794 78.7,764.5 123.2,731.7 "/>
<polygon fill="#FFFFFF" stroke="#000000" stroke-width="0.5" points="159.3,822.3 159.3,823.3 80.3,823.3 80.3,822.3 119.8,794 "/>
<path fill="#FFFFFF" stroke="#000000" stroke-width="0.5" d="M160,274.7c-1.1,1.2-3.8,4.3-7.4,8.3l0,0c-7.1-4.6-13.4-10-15-14.6
	c-0.2-0.5-0.3-1-0.4-1.4c0-0.1,0-0.1,0-0.2c4.4,2.7,10.9,3.2,16,4.7C155.7,272.1,157.8,273.5,160,274.7z"/>
<path fill="#FFFFFF" stroke="#000000" stroke-width="0.5" d="M143.3,652.2L143.3,652.2l-17,12l-8-5.9l0.7-0.898
	c6.2-1.5,12.3-4.5,18-8.602c1.9,0.102,2.1,0.3,2.8,0.5C140.9,650.4,142.1,651.4,143.3,652.2z"/>
<polygon fill="#FFFFFF" stroke="#000000" stroke-width="0.5" points="130.5,236.5 116.4,250.3 119.8,269.8 102.3,260.6 84.8,269.8 
	88.1,250.4 74,236.6 93.5,233.8 102.2,216 111,233.7 "/>
<path fill="#FFFFFF" stroke="#000000" stroke-width="0.5" d="M118.3,658.3l8,5.9l-48.6,34.3l-47.2-34.3L81.7,627l3.1,2.1h0.1
	c0.2,2,0.3,3.9,0.5,5.5c0.4,4.2,0.7,6.9,0.8,7.602c0.5,2.2,0.6,3.6,0.8,4.1c8.9,11.101,20.5,13.7,32,10.9L118.3,658.3z"/>
<polygon fill="#FFFFFF" stroke="#000000" stroke-width="0.5" points="77.7,698.6 123.2,731.7 78.7,764.5 31.9,730.9 "/>
<path fill="#FFFFFF" stroke="#000000" stroke-width="0.5" d="M78.7,764.5l41.1,29.5l-39.6,28.3v1H66.9c-3.3-2.6-19.4-13.7-35-24.3
	L78.7,764.5z"/>
<polygon fill="#FFFFFF" stroke="#000000" stroke-width="0.5" points="96.7,156.2 89.9,162.5 91.3,171.8 83.1,167.3 74.8,171.4 
	76.5,162.3 70,155.6 79.3,154.5 83.5,146.2 87.5,154.7 "/>
<path fill="#FFFFFF" stroke="#000000" stroke-width="0.5" d="M50.3,460.3h38c-2.5,10.2-4.7,21-6.6,32.5l-39.4-32.5H50.3z"/>
<polygon fill="#FFFFFF" stroke="#000000" stroke-width="0.5" points="34.1,593.8 81.7,627.1 30.5,664.3 0.3,642.3 0.3,618.3 "/>
<path fill="#FFFFFF" stroke="#000000" stroke-width="0.5" d="M81.7,492.8c-0.1,0.4-0.1,0.7-0.2,1.102l-41.8,32.6L1.3,498.3h-1v-4
	l42-34L81.7,492.8z"/>
<path fill="#FFFFFF" stroke="#000000" stroke-width="0.5" d="M81.5,493.8c-0.1,0.5-0.1,0.9-0.2,1.4c-2.1,8.2-1.8,33.6-0.7,61h-0.3
	l-40.6-29.8L81.5,493.8z"/>
<path fill="#FFFFFF" stroke="#000000" stroke-width="0.5" d="M80.7,561.2l-1.5,0.1L34,593.9L0.3,570.3v-13l39.4-30.8l40.6,29.8h0.3
	C80.6,557.9,80.6,559.5,80.7,561.2z"/>
<path fill="#FFFFFF" stroke="#000000" stroke-width="0.5" d="M78.7,764.5L32,798.9C15.9,787.8,0.3,777.2,0.3,777.2v-24l31.6-22.3
	L78.7,764.5z"/>
<polygon fill="#FFFFFF" stroke="#000000" stroke-width="0.5" points="77.7,698.6 31.9,730.9 0.3,708.3 0.3,686.3 30.5,664.3 "/>
<path fill="#FFFFFF" stroke="#000000" stroke-width="0.5" d="M67.3,285.8c2.5,0,4.5,2,4.5,4.5c0,1.2-0.5,2.4-1.3,3.2
	s-1.9,1.3-3.2,1.3H52H0.3v-9H67.3z"/>
<path fill="#FFFFFF" stroke="#000000" stroke-width="0.5" d="M66.9,823.3H0.3v-1L32,798.9C47.5,809.6,63.6,820.7,66.9,823.3z"/>
<path fill="#FFFFFF" stroke="#000000" stroke-width="0.5" d="M57.5,274.8c2.9,0,5.3,2.4,5.3,5.3c0,1.5-0.6,2.8-1.5,3.7
	c-0.9,0.9-2.3,1.5-3.7,1.5H0.3v-10.5H48H57.5z"/>
<polygon fill="#FFFFFF" stroke="#000000" stroke-width="0.5" points="60.8,19.4 53.1,24.2 52.8,33.3 45.8,27.4 37.1,29.8 40.5,21.4 
	35.5,13.9 44.5,14.5 50.1,7.4 52.3,16.2 "/>
<path fill="#FFFFFF" stroke="#000000" stroke-width="0.5" d="M62.8,210.3c0,20.9-14.7,38.6-34.9,44.7v0.3H0.3v-90.7
	c3.9-0.9,7.9-1.3,12-1.3C40.1,163.3,62.8,184.3,62.8,210.3z"/>
<path fill="#FFFFFF" stroke="#000000" stroke-width="0.5" d="M48,264.3c2.9,0,5.3,2.4,5.3,5.3c0,1.5-0.6,2.8-1.5,3.7
	c-0.9,0.9-2.3,1.5-3.7,1.5H0.3v-10.5h43.3H48z"/>
<path fill="#FFFFFF" stroke="#000000" stroke-width="0.5" d="M0.3,294.8H52c-2.3,16.3-0.8,31.9-0.8,48.5c0,21.4,0,42.8,0,64.2
	c0,17.5-1,36.6-1,52.9h-8h-42V294.8H0.3z M42.3,449.5V311c0-0.8-0.3-1.5-0.8-2s-1.2-0.8-2-0.8c-1.5,0-2.8,1.2-2.8,2.8v138.5
	c0,0.8,0.3,1.5,0.8,2s1.2,0.8,2,0.8C41,452.3,42.3,451,42.3,449.5z M27.3,447.3v-134c0-1.1-0.5-2.1-1.2-2.8
	c-0.7-0.7-1.7-1.2-2.8-1.2c-2.2,0-4,1.8-4,4v134c0,1.102,0.5,2.102,1.2,2.8c0.7,0.7,1.7,1.2,2.8,1.2
	C25.5,451.3,27.3,449.5,27.3,447.3z M10.3,448.5v-139c0-0.8-0.3-1.5-0.8-2s-1.2-0.8-2-0.8c-1.5,0-2.8,1.2-2.8,2.8v139
	c0,0.8,0.3,1.5,0.8,2s1.2,0.8,2,0.8C9,451.3,10.3,450,10.3,448.5z"/>
<path fill="#FFFFFF" stroke="#000000" stroke-width="0.5" d="M43.5,255.3c2.5,0,4.5,2,4.5,4.5c0,1.2-0.5,2.4-1.3,3.2
	c-0.8,0.8-1.9,1.3-3.2,1.3H0.3v-9h27.6H43.5z"/>
<path fill="#FFFFFF" stroke="#000000" stroke-width="0.5" d="M42.3,311v138.5c0,1.5-1.2,2.8-2.8,2.8c-0.8,0-1.5-0.3-2-0.8
	s-0.8-1.2-0.8-2V311c0-1.5,1.2-2.8,2.8-2.8c0.8,0,1.5,0.3,2,0.8C41.9,309.5,42.3,310.2,42.3,311z"/>
<polygon fill="#FFFFFF" stroke="#000000" stroke-width="0.5" points="42.3,460.3 0.3,494.3 0.3,460.3 "/>
<polygon fill="#FFFFFF" stroke="#000000" stroke-width="0.5" points="39.7,526.5 0.3,557.3 0.3,498.3 1.3,498.3 "/>
<polygon fill="#FFFFFF" stroke="#000000" stroke-width="0.5" points="34.1,593.8 0.3,618.3 0.3,570.3 "/>
<polygon fill="#FFFFFF" stroke="#000000" stroke-width="0.5" points="27.8,95.1 33.8,104.8 22.5,103.6 15.2,112.3 12.7,101.3 
	2.2,97 12,91.3 12.8,80 21.3,87.5 32.3,84.7 "/>
<path fill="#FFFFFF" stroke="#000000" stroke-width="0.5" d="M32,798.9L0.3,822.3v-45C0.3,777.3,15.8,787.8,32,798.9z"/>
<polygon fill="#FFFFFF" stroke="#000000" stroke-width="0.5" points="31.9,730.9 0.3,753.3 0.3,708.3 "/>
<polygon fill="#FFFFFF" stroke="#000000" stroke-width="0.5" points="0.3,642.3 30.5,664.3 0.3,686.3 "/>
<path fill="#FFFFFF" stroke="#000000" stroke-width="0.5" d="M27.3,313.3v134c0,2.2-1.8,4-4,4c-1.1,0-2.1-0.5-2.8-1.2
	c-0.7-0.698-1.2-1.698-1.2-2.8v-134c0-2.2,1.8-4,4-4c1.1,0,2.1,0.5,2.8,1.2C26.8,311.1,27.3,312.1,27.3,313.3z"/>
<path fill="#FFFFFF" stroke="#000000" stroke-width="0.5" d="M10.3,309.5v139c0,1.5-1.2,2.8-2.8,2.8c-0.8,0-1.5-0.3-2-0.8
	s-0.8-1.2-0.8-2v-139c0-1.5,1.2-2.8,2.8-2.8c0.8,0,1.5,0.3,2,0.8C9.9,308,10.3,308.7,10.3,309.5z"/>
<path fill="none" stroke="#1F1E21" stroke-width="0.5" stroke-linecap="round" stroke-linejoin="round" d="M184.6,244.3
	c1.2,0,2.4,0,3.7,0"/>
<path fill="none" stroke="#1F1E21" stroke-width="0.5" stroke-linecap="round" stroke-linejoin="round" d="M184.3,247.3
	c1.1,0.3,1.9,0.5,2.7,1"/>
<path fill="none" stroke="#1F1E21" stroke-width="0.5" stroke-linecap="round" stroke-linejoin="round" d="M177.3,245.3c1,0,2,0,3,0
	"/>
<path fill="none" stroke="#1F1E21" stroke-width="0.5" stroke-linecap="round" stroke-linejoin="round" d="M180.6,243.3
	c-0.7-0.3-1.2-0.9-1.3-1.7"/>
<path fill="none" stroke="#1F1E21" stroke-width="0.5" stroke-linecap="round" stroke-linejoin="round" d="M250.6,285.9
	c0,0,4.3,2.7,6,2"/>
<path fill="none" stroke="#1F1E21" stroke-width="0.5" stroke-linecap="round" stroke-linejoin="round" d="M249.9,293.6
	c0,0,4,2,5.7,1"/>
<path fill="none" stroke="#1F1E21" stroke-width="0.5" stroke-linecap="round" stroke-linejoin="round" d="M324.6,286.3
	c0,0,9-2.7,10.302-2"/>
<path fill="none" stroke="#1F1E21" stroke-width="0.5" stroke-linecap="round" stroke-linejoin="round" d="M326.6,297.3
	c0,0,9-1,9.302-3"/>
<path fill="none" stroke="#1F1E21" stroke-width="0.5" stroke-linecap="round" stroke-linejoin="round" d="M284.3,294.6
	c0,0,8,1.3,9.7-0.3"/>
<path fill="none" stroke="#1F1E21" stroke-width="0.5" stroke-linecap="round" stroke-linejoin="round" d="M398.9,251.9
	c-1.2,0-2.5,0-3.7,0"/>
<path fill="none" stroke="#1F1E21" stroke-width="0.5" stroke-linecap="round" stroke-linejoin="round" d="M399.3,254.9
	c-1.1,0.3-1.898,0.6-2.7,1"/>
<path fill="none" stroke="#1F1E21" stroke-width="0.5" stroke-linecap="round" stroke-linejoin="round" d="M406.3,252.9
	c-1,0-2,0-3,0"/>
<path fill="none" stroke="#1F1E21" stroke-width="0.5" stroke-linecap="round" stroke-linejoin="round" d="M402.9,250.9
	c0.698-0.3,1.198-0.9,1.3-1.7"/>
<path fill="none" stroke="#1F1E21" stroke-width="0.5" stroke-linecap="round" stroke-linejoin="round" d="M137.8,578.7
	c0,0,3.7,7.7,12.7,1.7"/>
<path fill="none" stroke="#1F1E21" stroke-width="0.5" stroke-linecap="round" stroke-linejoin="round" d="M127.1,578.3
	c-1,0.3,4.3,8,10.7,0.3"/>
<path fill="none" stroke="#1F1E21" stroke-width="0.5" stroke-linecap="round" stroke-linejoin="round" d="M137.4,585.3
	c0,0,3.7,7.7,12.7,1.7"/>
<path fill="none" stroke="#1F1E21" stroke-width="0.5" stroke-linecap="round" stroke-linejoin="round" d="M126.8,585
	c-1,0.3,4.3,8,10.7,0.3"/>
<path fill="none" stroke="#1F1E21" stroke-width="0.5" stroke-linecap="round" stroke-linejoin="round" d="M138.8,571.3
	c0,0,3.7,7.7,12.7,1.7"/>
<path fill="none" stroke="#1F1E21" stroke-width="0.5" stroke-linecap="round" stroke-linejoin="round" d="M128.1,571
	c-1,0.3,4.3,8,10.7,0.3"/>
<path fill="none" stroke="#1F1E21" stroke-width="0.5" stroke-linecap="round" stroke-linejoin="round" d="M191.6,580.9
	c0,0,3.7,7.698,12.7,1.698"/>
<path fill="none" stroke="#1F1E21" stroke-width="0.5" stroke-linecap="round" stroke-linejoin="round" d="M181,580.5
	c-1,0.3,4.3,8,10.7,0.3"/>
<path fill="none" stroke="#1F1E21" stroke-width="0.5" stroke-linecap="round" stroke-linejoin="round" d="M191.3,587.5
	c0,0,3.7,7.7,12.7,1.7"/>
<path fill="none" stroke="#1F1E21" stroke-width="0.5" stroke-linecap="round" stroke-linejoin="round" d="M180.6,587.2
	c-1,0.3,4.3,8,10.7,0.3"/>
<path fill="none" stroke="#1F1E21" stroke-width="0.5" stroke-linecap="round" stroke-linejoin="round" d="M192.6,573.5
	c0,0,3.7,7.7,12.7,1.7"/>
<path fill="none" stroke="#1F1E21" stroke-width="0.5" stroke-linecap="round" stroke-linejoin="round" d="M182,573.2
	c-1,0.3,4.3,8,10.7,0.3"/>
<path fill="none" stroke="#1F1E21" stroke-width="0.5" stroke-linecap="round" stroke-linejoin="round" d="M238.3,584.2
	c0,0,3.7,7.7,12.7,1.7"/>
<path fill="none" stroke="#1F1E21" stroke-width="0.5" stroke-linecap="round" stroke-linejoin="round" d="M227.6,583.8
	c-1,0.3,4.3,8,10.7,0.3"/>
<path fill="none" stroke="#1F1E21" stroke-width="0.5" stroke-linecap="round" stroke-linejoin="round" d="M237.9,590.8
	c0,0,3.7,7.7,12.7,1.7"/>
<path fill="none" stroke="#1F1E21" stroke-width="0.5" stroke-linecap="round" stroke-linejoin="round" d="M227.3,590.5
	c-1,0.3,4.3,8,10.7,0.3"/>
<path fill="none" stroke="#1F1E21" stroke-width="0.5" stroke-linecap="round" stroke-linejoin="round" d="M239.3,576.8
	c0,0,3.7,7.7,12.7,1.7"/>
<path fill="none" stroke="#1F1E21" stroke-width="0.5" stroke-linecap="round" stroke-linejoin="round" d="M228.6,576.5
	c-1,0.3,4.3,8,10.7,0.3"/>
<path fill="none" stroke="#1F1E21" stroke-width="0.5" stroke-linecap="round" stroke-linejoin="round" d="M281.6,588.2
	c0,0,3.7,7.7,12.7,1.7"/>
<path fill="none" stroke="#1F1E21" stroke-width="0.5" stroke-linecap="round" stroke-linejoin="round" d="M270.9,587.8
	c-1,0.3,4.3,8,10.7,0.3"/>
<path fill="none" stroke="#1F1E21" stroke-width="0.5" stroke-linecap="round" stroke-linejoin="round" d="M281.3,594.8
	c0,0,3.7,7.7,12.7,1.7"/>
<path fill="none" stroke="#1F1E21" stroke-width="0.5" stroke-linecap="round" stroke-linejoin="round" d="M270.6,594.5
	c-1,0.3,4.3,8,10.7,0.3"/>
<path fill="none" stroke="#1F1E21" stroke-width="0.5" stroke-linecap="round" stroke-linejoin="round" d="M282.6,580.8
	c0,0,3.7,7.7,12.7,1.7"/>
<path fill="none" stroke="#1F1E21" stroke-width="0.5" stroke-linecap="round" stroke-linejoin="round" d="M271.9,580.5
	c-1,0.3,4.3,8,10.7,0.3"/>
<path fill="none" stroke="#1F1E21" stroke-width="0.5" stroke-linecap="round" stroke-linejoin="round" d="M323.6,587.8
	c0,0,3.7,7.7,12.7,1.7"/>
<path fill="none" stroke="#1F1E21" stroke-width="0.5" stroke-linecap="round" stroke-linejoin="round" d="M312.9,587.5
	c-1,0.3,4.3,8,10.698,0.3"/>
<path fill="none" stroke="#1F1E21" stroke-width="0.5" stroke-linecap="round" stroke-linejoin="round" d="M323.3,594.5
	c0,0,3.7,7.7,12.7,1.7"/>
<path fill="none" stroke="#1F1E21" stroke-width="0.5" stroke-linecap="round" stroke-linejoin="round" d="M312.6,594.2
	c-1,0.3,4.302,8,10.7,0.3"/>
<path fill="none" stroke="#1F1E21" stroke-width="0.5" stroke-linecap="round" stroke-linejoin="round" d="M324.6,580.5
	c0,0,3.7,7.7,12.7,1.7"/>
<path fill="none" stroke="#1F1E21" stroke-width="0.5" stroke-linecap="round" stroke-linejoin="round" d="M313.9,580.2
	c-1,0.3,4.3,8,10.698,0.3"/>
<path fill="none" stroke="#1F1E21" stroke-width="0.5" stroke-linecap="round" stroke-linejoin="round" d="M361.9,586.2
	c0,0,3.698,7.7,12.698,1.7"/>
<path fill="none" stroke="#1F1E21" stroke-width="0.5" stroke-linecap="round" stroke-linejoin="round" d="M351.3,585.8
	c-1,0.3,4.3,8,10.7,0.3"/>
<path fill="none" stroke="#1F1E21" stroke-width="0.5" stroke-linecap="round" stroke-linejoin="round" d="M361.6,592.8
	c0,0,3.7,7.7,12.7,1.7"/>
<path fill="none" stroke="#1F1E21" stroke-width="0.5" stroke-linecap="round" stroke-linejoin="round" d="M350.9,592.5
	c-1,0.3,4.3,8,10.698,0.3"/>
<path fill="none" stroke="#1F1E21" stroke-width="0.5" stroke-linecap="round" stroke-linejoin="round" d="M362.9,578.8
	c0,0,3.698,7.7,12.698,1.7"/>
<path fill="none" stroke="#1F1E21" stroke-width="0.5" stroke-linecap="round" stroke-linejoin="round" d="M352.3,578.5
	c-1,0.3,4.3,8,10.7,0.3"/>
<path fill="none" stroke="#1F1E21" stroke-width="0.5" stroke-linecap="round" stroke-linejoin="round" d="M406.6,586.8
	c0,0,3.7,7.7,12.7,1.7"/>
<path fill="none" stroke="#1F1E21" stroke-width="0.5" stroke-linecap="round" stroke-linejoin="round" d="M395.9,586.5
	c-1,0.3,4.3,8,10.698,0.3"/>
<path fill="none" stroke="#1F1E21" stroke-width="0.5" stroke-linecap="round" stroke-linejoin="round" d="M406.3,593.5
	c0,0,3.7,7.7,12.7,1.7"/>
<path fill="none" stroke="#1F1E21" stroke-width="0.5" stroke-linecap="round" stroke-linejoin="round" d="M395.6,593.2
	c-1,0.3,4.302,8,10.7,0.3"/>
<path fill="none" stroke="#1F1E21" stroke-width="0.5" stroke-linecap="round" stroke-linejoin="round" d="M407.6,579.5
	c0,0,3.7,7.7,12.7,1.7"/>
<path fill="none" stroke="#1F1E21" stroke-width="0.5" stroke-linecap="round" stroke-linejoin="round" d="M396.9,579.2
	c-1,0.3,4.3,8,10.698,0.3"/>
<path fill="none" stroke="#1F1E21" stroke-width="0.5" stroke-linecap="round" stroke-linejoin="round" d="M451.9,586.2
	c0,0,3.698,7.7,12.698,1.7"/>
<path fill="none" stroke="#1F1E21" stroke-width="0.5" stroke-linecap="round" stroke-linejoin="round" d="M441.3,585.8
	c-1,0.3,4.3,8,10.7,0.3"/>
<path fill="none" stroke="#1F1E21" stroke-width="0.5" stroke-linecap="round" stroke-linejoin="round" d="M451.6,592.8
	c0,0,3.7,7.7,12.7,1.7"/>
<path fill="none" stroke="#1F1E21" stroke-width="0.5" stroke-linecap="round" stroke-linejoin="round" d="M440.9,592.5
	c-1,0.3,4.3,8,10.698,0.3"/>
<path fill="none" stroke="#1F1E21" stroke-width="0.5" stroke-linecap="round" stroke-linejoin="round" d="M452.9,578.8
	c0,0,3.698,7.7,12.698,1.7"/>
<path fill="none" stroke="#1F1E21" stroke-width="0.5" stroke-linecap="round" stroke-linejoin="round" d="M442.3,578.5
	c-1,0.3,4.3,8,10.7,0.3"/>
<path fill="none" stroke="#1F1E21" stroke-width="0.5" stroke-linecap="round" stroke-linejoin="round" d="M273.8,55.9
	c3.5-3.3,9-4.2,11.2-8.8"/>
<path fill="none" stroke="#1F1E21" stroke-width="0.5" stroke-linecap="round" stroke-linejoin="round" d="M318.6,107.1
	c2.7-1.3,5.5-4.6,4.5-7.8"/>
<path fill="none" stroke="#1F1E21" stroke-linecap="round" stroke-linejoin="round" d="M287.2,94.9c1.399-1.2,4.1-5.9,4.1-7.7"/>
<path fill="none" stroke="#1F1E21" stroke-linecap="round" stroke-linejoin="round" d="M292.4,91.1c1.199-0.8,3.1-3.5,2.898-4.9"/>
<path fill="none" stroke="#1F1E21" stroke-linecap="round" stroke-linejoin="round" d="M296.3,90.8c0.601-1,2.9-2.4,2.7-3.8"/>
<path fill="none" stroke="#1F1E21" stroke-linecap="round" stroke-linejoin="round" d="M298.9,90.9c1.898-1.1,2.199-1.6,3.398-3"/>
<path fill="none" stroke="#1F1E21" stroke-linecap="round" stroke-linejoin="round" d="M266.4,96.5c-1.4-1.2-4.4-5-4.4-6.8"/>
<path fill="none" stroke="#1F1E21" stroke-linecap="round" stroke-linejoin="round" d="M261.2,92.7c-1.2-0.8-2.6-2.8-2.4-4.2"/>
<path fill="none" stroke="#1F1E21" stroke-linecap="round" stroke-linejoin="round" d="M258.2,92.5c-0.6-1-2.4-3-2.2-4.4"/>
<path fill="none" stroke="#1F1E21" stroke-linecap="round" stroke-linejoin="round" d="M255.7,92.4c-2,0-1.3-2.3-2.5-3.6"/>
<path fill="none" stroke="#1F1E21" stroke-width="0.5" stroke-linecap="round" stroke-linejoin="round" d="M489.2,588.2
	c0,0,7.398,5.5,10-4.3"/>
<path fill="none" stroke="#1F1E21" stroke-width="0.5" stroke-linecap="round" stroke-linejoin="round" d="M489.2,594.5
	c0,0,6.6,4.3,10-3.7"/>
<path fill="none" stroke="#1F1E21" stroke-width="0.5" stroke-linecap="round" stroke-linejoin="round" d="M488,579.2
	c0,0,6.4,5.7,11.1-2.102"/>
<path fill="none" stroke="#1F1E21" stroke-width="0.5" stroke-linecap="round" stroke-linejoin="round" d="M81.6,575.2
	c0,0,3.7,7.7,12.7,1.7"/>
<path fill="none" stroke="#1F1E21" stroke-width="0.5" stroke-linecap="round" stroke-linejoin="round" d="M81.3,581.8
	c0,0,3.7,7.7,12.7,1.7"/>
<path fill="none" stroke="#1F1E21" stroke-width="0.5" stroke-linecap="round" stroke-linejoin="round" d="M82.6,567.8
	c0,0,3.7,7.7,12.7,1.7"/>
<path fill="none" stroke="#1F1E21" stroke-width="0.5" stroke-linecap="round" stroke-linejoin="round" d="M76.5,357.8l7.5-8"/>
<path fill="none" stroke="#1F1E21" stroke-width="0.5" stroke-linecap="round" stroke-linejoin="round" d="M74.3,364.5l15-14.4"/>
<line fill="none" stroke="#1F1E21" stroke-width="0.5" stroke-linecap="round" stroke-linejoin="round" x1="78.9" y1="366" x2="91.8" y2="354.8"/>
<path fill="none" stroke="#1F1E21" stroke-width="2" stroke-linecap="round" stroke-linejoin="round" d="M284.3,88.3
	c5.7-6.3,16.4-7,19.9-1.9"/>
<path fill="none" stroke="#1F1E21" stroke-width="2" stroke-linecap="round" stroke-linejoin="round" d="M268.3,88.9
	c-4-6.7-14-3.6-18.5-3"/>
<path fill="none" stroke="#1F1E21" stroke-width="0.5" stroke-linecap="round" stroke-linejoin="round" d="M486.3,345.3l-7.7-8.3"/>
<path fill="none" stroke="#1F1E21" stroke-width="0.5" stroke-linecap="round" stroke-linejoin="round" d="M488.5,352.3l-15.4-14.8"
	/>
<line fill="none" stroke="#1F1E21" stroke-width="0.5" stroke-linecap="round" stroke-linejoin="round" x1="483.8" y1="353.7" x2="470.5" y2="342.3"/>
</svg>
