<?xml version="1.0" encoding="utf-8"?>
<!-- Generator: Adobe Illustrator 15.0.0, SVG Export Plug-In . SVG Version: 6.00 Build 0)  -->
<!DOCTYPE svg PUBLIC "-//W3C//DTD SVG 1.1//EN" "http://www.w3.org/Graphics/SVG/1.1/DTD/svg11.dtd">
<svg version="1.1" id="Layer_1" xmlns="http://www.w3.org/2000/svg" xmlns:xlink="http://www.w3.org/1999/xlink" x="0px" y="0px"
	 width="567px" height="822px" viewBox="0 0 567 822" enable-background="new 0 0 567 822" xml:space="preserve">
<g id="FON">
	<path fill="#FFFFFF" d="M-0.5-0.5h567v822"/>
</g>
<g id="COLORING">
	<path fill="#FFFFFF" stroke="#000000" stroke-miterlimit="10" d="M66.6,298.3c-0.9-0.3-2.1-0.5-3.6-0.7l0,0l0,0
		c0.2,0,0.4,0,0.6,0.1C64.8,297.7,65.8,298,66.6,298.3z"/>
	<path fill="#FFFFFF" stroke="#000000" stroke-miterlimit="10" d="M217.5,96c5.3,10,6.7,21.8,6.7,21.8c0.2,0.2,0.4,0.2,0.6,0.4
		c-0.3,0.2-0.6,0.4-0.9,0.6c-0.6,0.4-1.3,0.9-1.9,1.3s-1.2,0.9-1.8,1.3c-0.9,0.7-1.7,1.3-2.5,2c-0.3,0.2-0.5,0.4-0.8,0.6
		c-0.5,0.4-1,0.8-1.4,1.3c-4.6,4.1-7.3,7.5-7.6,7.9l0,0c-0.6,0.6-1.2,1.2-1.8,1.8c-25.8,25.5-27.1,48.1-21.7,64.6
		c0.2,0.7,0.5,1.4,0.7,2l0,0c0.4,1,0.8,2,1.2,2.9l0,0c0.7,1.6,1.4,3.1,2.2,4.5l0,0c0.3,0.6,0.6,1.1,0.9,1.7l0,0
		c0.6,1.1,1.3,2.1,1.9,3.1l0,0c1,1.5,2,2.9,2.9,4.1l0,0c1,1.3,1.9,2.4,2.8,3.4l0,0c3.3,3.7,5.8,5.8,5.8,5.8c5.5,2.7,9.5,2,12.3,0.2
		c0,0.2-0.1,0.3-0.1,0.5c-0.1,0.4-0.2,0.7-0.2,1.1c-0.1,0.6-0.1,1.1-0.2,1.7c-0.1,1-0.1,2,0,3c0,0.5,0.1,1,0.1,1.5
		c-1,4.9-1.5,9.4-1.6,13.4c0,1,0,2,0,2.9c0.1,6.9,1.4,12.5,3,17.1c7.5,22.3,32.7,23.9,46.9,22.7l-5.3,9.6c-3.1-3.6-6.1-4.8-3.1,6.2
		H246h-2.4c0,0-0.8-1.5-2.4-3.6c-0.1-0.2-0.3-0.4-0.5-0.6c-0.2-0.3-0.5-0.7-0.8-1c-0.2-0.2-0.4-0.5-0.6-0.7
		c-0.1-0.2-0.3-0.4-0.5-0.6c-0.7-0.8-1.4-1.6-2.2-2.3c-0.2-0.2-0.5-0.5-0.7-0.7l0,0c-0.8-0.7-1.6-1.4-2.4-2
		c-0.6-0.4-1.2-0.8-1.8-1.2c-0.6-0.4-1.2-0.7-1.9-1l0,0c-0.3-0.1-0.5-0.3-0.8-0.4c-0.1,0-0.2-0.1-0.3-0.1
		c-5.1-2.1-11.1-1.8-17.4,4.5c-0.8,0.8-1.6,1.7-2.4,2.6c-0.4,0.5-0.8,1-1.2,1.5c-1,1.4-2,2.9-3,4.5c0,0,0,0-0.1,0
		c-0.3,0-2.1-0.2-4.3,1.2c-49.7-65.5-49.6-109.1-38-144.9c11.8-36.4,29.5-56.8,49.5-66.8c2,1.5,4,2,5,1
		C217.2,96.3,217.4,96,217.5,96L217.5,96z"/>
	<path fill="#FFFFFF" stroke="#000000" stroke-miterlimit="10" d="M272.2,223.7c0,0.1,0.1,0.2,0.1,0.3c-0.2-0.1-0.4-0.1-0.7-0.2
		c-2.2-4.5-5.7-8-9.3-7.5c-3.4,0.5-6.1,4.2-7.1,8.9l-0.1,0.1c-0.3,1.3-0.4,2.6-0.4,4c0-1.6,0.1-3.2,0.4-4.7c1-4.9,3.7-8.5,7.2-9
		C266.3,215.1,270.1,218.5,272.2,223.7z"/>
	<path fill="#FFFFFF" stroke="#000000" stroke-miterlimit="10" d="M215.9,239.5c1.4,4.2,4,7.4,6.8,8.6h0.1c2.8-0.9,4.9-3.7,6-7.4
		c-1.1,3.8-3.2,6.6-6,7.5h-0.1C219.8,247,217.3,243.8,215.9,239.5z"/>
	<path fill="#FFFFFF" stroke="#000000" stroke-miterlimit="10" d="M228.3,471.1c-85.7,63.301-61.8,251-61.8,251s-2.3-0.5-6.2-1.699
		C140.2,714.2,77.4,690.6,55.9,630.8c0,0-0.1,0.101-0.2,0.4c-0.1-0.101-0.1-0.3-0.2-0.4c0,0,0.5-1.6,2.1-4.399h0.6
		c-0.1-0.101-0.3-0.2-0.4-0.301c0.3-0.6,0.7-1.3,1.1-2c0.3-0.399,0.5-0.899,0.8-1.3c1.4-2.3,2.9-5.1,4.1-8.2l0,0
		C84.8,582,132.6,508.9,189.9,475.9c0.3,0,0.5,0,0.7,0c12.7-0.9,23.7-2.2,33.4-3.9C225.6,471.6,227,471.4,228.3,471.1z"/>
	<path fill="#FFFFFF" stroke="#000000" stroke-miterlimit="10" d="M273.7,229.3c0.2,1.9,0.2,3.6,0.1,5.3c-0.1-2.4-1.9-4.3-4-4.3
		c-2.2,0-4,2.1-4,4.6s1.8,4.5,4,4.5c1.6,0,3-1.1,3.6-2.7c-1,4.7-3.5,8.1-6.8,8.8c-2.5-1.1-4.5-3.4-5.5-6.3c-0.5-1.3-0.7-2.8-0.7-4.4
		c0-6.2,4.1-11.3,9.3-11.4c1.1,0.5,1.9,0.9,2.3,1.2l0,0c0.1,0,0.1,0.1,0.2,0.1c0.1,0.1,0.2,0.1,0.2,0.1l0,0l0.1-0.3l0,0l0,0
		c-0.1,0-0.2-0.1-0.3-0.1c-0.1-0.2-0.2-0.5-0.3-0.7c0.2,0.1,0.4,0.1,0.7,0.2C273,225.6,273.4,227.4,273.7,229.3z"/>
	<path fill="#FFFFFF" stroke="#000000" stroke-miterlimit="10" d="M318.5,304.6c-4.5-0.9-7.9-2.8-10.5-5.2c-1.2-1.1-2.1-2.3-3-3.5
		c-6.3-9.6-4-23.3-4-23.3c0.6-0.6,1.1-1.3,1.6-2c9.2-11.8,8.7-23.5,8.7-23.5S296.9,235.4,296.9,207.9
		c26.3-4.4,21.199-35.2,21.199-35.2c0-29.3-22.899-42.9-34.1-51.4c2.2-1.3,3.5-2.3,3.5-2.3l0,0c0.2-2.8,0.4-5.4,0.7-8
		c0-0.3,0.1-0.6,0.1-0.9c0.601-5.3,1.5-10.1,2.5-14.5l0,0c30.5,11.2,54.9,30.4,59.2,36.4c35.4,50.5,4.4,120.6,4.4,120.6
		c-8.601,36.1,33.5,17.3,33.5,17.3c4.8,18.2-19,13.6-20.4,13.3c23,7.7,33.5-13.3,33.5-13.3c7.2,31.3-25.6,26.2-26.7,26
		c31.101,14.9,39.9-26,39.9-26c17.7,24.3,21.1,44.1,2.5,55.1c-12.4,7.4-20.7,4.3-24.601,1.8c-0.8-0.8-1.699-1.4-2.5-2l0,0
		c-9-6.4-21.3-6.6-21.3-6.6C345,269.7,320.2,305,320.2,305C319.5,304.8,319,304.7,318.5,304.6z"/>
	<path fill="#FFFFFF" stroke="#000000" stroke-miterlimit="10" d="M289.7,439.2c0.1,0.3,0.3,0.7,0.5,1c0.2,0.5,0.5,1.2,0.8,2l0,0
		C290.5,441.3,290,440.3,289.7,439.2z"/>
	<path fill="#FFFFFF" stroke="#000000" stroke-miterlimit="10" d="M214.8,235.1c-1,4.9-1.5,9.3-1.6,13.3
		C213.3,244.4,213.8,240,214.8,235.1L214.8,235.1z"/>
	<path fill="#FFFFFF" stroke="#000000" stroke-miterlimit="10" d="M440.2,484.6c0,0,0.5-0.199,1.1-0.3
		C440.7,484.4,440.2,484.6,440.2,484.6c-0.3,0.601-0.7,1.4-1.2,2.2l0,0c0.1-0.2,0.2-0.5,0.2-0.8C439.5,485.5,440,485,440.2,484.6z"
		/>
	<path fill="#FFFFFF" stroke="#000000" stroke-miterlimit="10" d="M307.8,428.1c-0.399-0.199-4.6-2.399-9.5-2.8
		c-1-0.1-2.1-0.1-3.1,0c-2.3,0.2-4.601,1-6.5,2.8c-0.4-0.5-5.5-6.6-12.9-6.899c-0.4,0-0.7,0-1.1,0c-2.4,0-5,0.8-7.8,2.5
		c-0.7-1.3-11.7-20-23.5-19.8c-0.5,0-1,0-1.6,0.1v-25.7c0,6.2,20.1,3,20.1,3c6.2,4.4,10.7,4.9,13.6,4.4c2.4-0.4,3.6-1.4,3.6-1.4
		c0.2,0,0.3,0,0.5,0c5.2-0.4,9.4-8.4,9.8-9.1c1.3,4.3,4.1,5.9,6.5,6.5c2.399,0.5,4.5,0,4.5,0c2.399,2.8,4.8,4.3,7,5.1
		c2.699,1,5.1,0.8,7.1,0.2c1-0.3,1.9-0.7,2.6-1.1c1.301-0.7,2.101-1.4,2.301-1.5l0,0c8.6,3.4,14-5.9,14-5.9
		c-0.301,1.5-0.5,3-0.801,4.5c-0.899,4.6-2,9.4-3.399,14.5c-1.3,4.8-2.9,9.8-4.7,15C324.6,412.2,310.8,419.9,307.8,428.1z"/>
	<path fill="#FFFFFF" stroke="#000000" stroke-miterlimit="10" d="M214.9,228.8c0.1-0.4,0.1-0.8,0.2-1.1
		C215,228,215,228.4,214.9,228.8L214.9,228.8z"/>
	<path fill="#FFFFFF" stroke="#000000" stroke-miterlimit="10" d="M227.1,224.8c0,0,0.1,0.1,0.1,0.2c0.1,0.2,0.2,0.6,0.3,0.9
		c-4.5,0-8.4,3.2-9.8,7.7c-0.1,0.2-0.1,0.4-0.2,0.6c0,0.2-0.1,0.4-0.1,0.5c-0.2,1-0.3,1.9-0.3,3c0,4.6,2.3,8.5,5.7,10.5v0.1h-0.1
		c-2.9-1.2-5.4-4.4-6.8-8.6c-0.5-1.4-0.8-2.9-1-4.5l0,0c-0.1-0.5-0.1-1-0.1-1.5c-0.1-1-0.1-2,0-3c0-0.5,0.1-1.1,0.2-1.6V229
		C218,223.4,226.1,224.6,227.1,224.8z"/>
	<path fill="#FFFFFF" stroke="#000000" stroke-miterlimit="10" d="M439,486.9c-0.9,1.6-1.8,3.399-2.8,3.8c-0.3,0.1-0.5,0.2-0.8,0.3
		c0.3-0.1,0.5-0.1,0.8-0.3C437.2,490.2,437,488.5,439,486.9C439,486.8,439,486.8,439,486.9z"/>
	<path fill="#FFFFFF" stroke="#000000" stroke-miterlimit="10" d="M229.3,232.1c0.3,2.7,0.2,5.3-0.3,7.6c0,0.2-0.1,0.3-0.1,0.5
		c0,0.2-0.1,0.4-0.1,0.5c-1.1,3.7-3.2,6.5-6,7.4V248c-3.4-2-5.7-5.9-5.7-10.5c0-1,0.1-2,0.3-3c0-0.2,0.1-0.4,0.1-0.5
		c0.1-0.2,0.1-0.4,0.2-0.6c1.5-4.5,5.3-7.6,9.9-7.6c0,0.1,0,0.1,0.1,0.1l0,0C228.5,228,229,229.8,229.3,232.1z M225.3,241
		c2.2,0,4-2,4-4.5s-1.8-4.5-4-4.5c-2.2,0-4,2-4,4.5C221.3,238.9,223.1,241,225.3,241z"/>
	<path fill="#FFFFFF" stroke="#000000" stroke-miterlimit="10" d="M368.3,464.8c-31.399-0.2-67.7-4.5-77.1-22.2
		c0-0.1-0.101-0.199-0.101-0.3C300.9,460.2,337,464.6,368.3,464.8z"/>
	<path fill="#FFFFFF" stroke="#000000" stroke-miterlimit="10" d="M298.4,425.3c4.8,0.4,9.1,2.601,9.5,2.8l0,0
		C307.8,428.2,303.4,425.8,298.4,425.3z"/>
	<path fill="#FFFFFF" stroke="#000000" stroke-miterlimit="10" d="M64,614.5c10-53.2-37.5-109.8-37.5-109.8h0.7
		c0.5-4.4,28.8-15.9,28.8-15.9c16.7-7.2,45.4-6.6,45.4-6.6c6.6-5.5,45.1-5.5,54.1-5.4c12.7,0.101,24.3-0.3,34.7-0.899
		C132.8,508.8,85,581.8,64,614.5z"/>
	<path fill="#FFFFFF" stroke="#000000" stroke-miterlimit="10" d="M215.2,227.2c4.3-2.9,5.8-8.6,5.8-8.6c0.2,0.1,0.5,0.2,0.7,0.3
		c2.1,1,4,3.1,5.4,5.9c-1-0.2-9.1-1.4-12.2,4c0.1-0.4,0.1-0.7,0.2-1.1C215.1,227.5,215.2,227.4,215.2,227.2L215.2,227.2L215.2,227.2
		z"/>
	<path fill="#FFFFFF" stroke="#000000" stroke-miterlimit="10" d="M259,261.4c-0.3,0.2-5.8,3.7-8.9,1.8c-1.3-0.8-6.4-2.8-7.3,1.8
		c0,0-2-5.5-6.4-1.4c-1.6,1.5-4.2,1.9-8.1,0.7l0,0C229.1,265.6,248.6,296.8,259,261.4L259,261.4z M266.6,245.8c0,0-0.1,0-0.1-0.1
		C266.5,245.7,266.5,245.7,266.6,245.8c3.3-0.8,5.9-4.3,6.8-8.9c0.2-0.6,0.4-1.2,0.4-1.9c0-0.1,0-0.2,0-0.3c0.2-1.7,0.1-3.5-0.1-5.3
		c-0.2-1.9-0.7-3.7-1.3-5.3c-0.1-0.1-0.1-0.2-0.1-0.3c-2.1-5.3-6-8.6-9.9-8c-3.5,0.5-6.2,4.1-7.2,9c-0.3,1.4-0.5,3-0.4,4.7
		c0,1,0.1,2,0.2,3.1c1,8.3,6.1,14.2,11.3,13.5C266.3,245.9,266.4,245.8,266.6,245.8z M296.9,207.9c0,27.5,14.399,39.2,14.399,39.2
		s0.5,11.7-8.7,23.5c-0.5,0.6-1.1,1.3-1.6,2c-3.9,4.4-9.2,8.7-16.5,12.3c-0.7,0.3-1.4,0.6-2,1c-0.7,0.3-1.4,0.6-2.1,0.9
		c-2.2,0.9-4.5,1.8-7,2.5c0,0-4,0.9-9.8,1.4l0,0l0,0c-14.2,1.2-39.7,0-47.3-22.4c-1.6-4.6-2.8-10.1-3-16.9c0-0.9,0-1.9,0-2.9
		c0.1-4,0.6-8.5,1.6-13.3c0,0,0,0,0-0.1l0,0c0.2,1.6,0.6,3.1,1,4.5c1.4,4.3,4,7.4,6.8,8.7h0.1c2.8-0.9,4.9-3.7,6-7.5
		c0-0.2,0.1-0.4,0.1-0.5c0-0.2,0.1-0.3,0.1-0.5c0.5-2.3,0.6-4.9,0.3-7.6c-0.3-2.3-0.9-4.1-1.7-6.1l0,0l-0.1-0.1c0,0,0-0.1-0.1-0.1
		c0,0,0,0,0.1,0h0.1c-0.1-0.3-0.3-0.6-0.4-1c-1.4-2.8-3.3-4.9-5.5-5.9c-0.2-0.1-0.5-0.2-0.7-0.3c16.1,3.3,27.1-5.7,27.1-5.7
		c17.9,6,25.8-4.9,25.8-4.9C294.8,216.1,296.9,207.9,296.9,207.9z"/>
	<path fill="#FFFFFF" stroke="#000000" stroke-miterlimit="10" d="M443.5,488.9c-0.8,0.8-1.8,1.3-2.9,1.3l0,0l-0.1,0.1
		c-0.9-2-1.3-3.2-1.4-3.399c0,0,0,0,0,0.1v-0.1l0,0l0,0c0.101-0.2,0.101-0.4,0.2-0.7c0,0,0,0,0-0.101c0,0.301-0.1,0.5-0.2,0.801l0,0
		c0.4-0.801,0.801-1.601,1.2-2.2c0,0,0.5-0.2,1.101-0.3c0.5-0.101,1-0.101,1.6,0.1c0.1,0,0.1,0.1,0.2,0.1l0,0
		c0.2,0.101,0.399,0.301,0.6,0.4c0.5,0.5,0.8,1.4,0.8,2.8C444.2,488.1,443.9,488.5,443.5,488.9z"/>
	<path fill="#FFFFFF" stroke="#000000" stroke-miterlimit="10" d="M266.2,245.8c-5.2,0.8-10.2-5.3-11.3-13.6
		c-0.1-0.9-0.2-1.9-0.2-2.8c0-1.4,0.2-2.7,0.4-4c0-0.1,0.1-0.1,0.1-0.1c0,0.1-0.1,0.3-0.1,0.5c3.8-5.8,10.6-3.8,14.4-2.1
		c-5.1,0.1-9.3,5.2-9.3,11.4c0,1.5,0.3,3,0.7,4.4c1,2.9,3,5.3,5.4,6.4C266.4,245.7,266.3,245.8,266.2,245.8z"/>
	<path fill="#FFFFFF" stroke="#000000" stroke-miterlimit="10" d="M272.2,225c-0.1-0.1-0.1-0.3-0.2-0.5c0.1,0,0.2,0.1,0.3,0.1
		C272.3,224.7,272.3,225,272.2,225z"/>
	<path fill="#FFFFFF" stroke="#000000" stroke-miterlimit="10" d="M214.8,235c-0.1-0.5-0.1-1-0.1-1.5
		C214.7,234,214.8,234.5,214.8,235L214.8,235L214.8,235z"/>
	<path fill="#FFFFFF" stroke="#000000" stroke-miterlimit="10" d="M291,442.3L291,442.3c-0.1-0.7-0.5-1.399-0.8-2.1
		c-0.4-1.101-0.7-1.601-0.7-1.601s0,0,0,0.101l0,0c-1-3.101-1.3-6.7-0.7-10.601c1.9-1.8,4.2-2.6,6.5-2.899
		c1-0.101,2.101-0.101,3.101,0c5,0.5,9.399,2.899,9.399,2.899l0,0l0,0l0,0l0,0c14.601,14.9,61.601,18,90.4,18.5c0.1,0,0.1,0,0.2,0
		c5.5,0.101,10.399,0.101,14.199,0c1.9,0,3.5-0.1,4.801-0.1c1.1,0,2,0,2.6-0.1c0.9,0,1.3-0.101,1.3-0.101
		c-0.899,4.5-2.2,9.601-4,15.4c0,0.1-0.1,0.3-0.2,0.399c-0.899,0.101-2.5,0.301-4.8,0.5c-0.2,0-0.3,0-0.5,0c-0.1,0-0.3,0-0.5,0
		c-7.3,0.7-19.899,1.601-34.3,1.9c-0.2,0-0.4,0-0.7,0c-0.5,0-0.899,0-1.399,0c-2.2,0-4.5,0-6.801,0C337,464.6,300.9,460.2,291,442.3
		c0,0.101,0.1,0.2,0.1,0.3C291.1,442.6,291,442.5,291,442.3L291,442.3L291,442.3L291,442.3z"/>
	<path fill="#FFFFFF" stroke="#000000" stroke-miterlimit="10" d="M291.2,442.7c9.399,17.7,45.7,22,77.1,22.2c2.3,0,4.601,0,6.8,0
		c0.5,0,0.9,0,1.4,0c0.2,0,0.4,0,0.7,0c14.5-0.2,27.1-1.2,34.3-1.9c0.2,0,0.3,0,0.5,0s0.3,0,0.5,0c2.3-0.2,3.9-0.4,4.8-0.5l0,0
		c-0.2,0.7-0.5,1.4-0.7,2.2c-1,2.899-2.199,8.2-1.699,8.899c0.6-1.3,1.1-2.399,1.6-3.5c1.6,1.5,5,0.5,6.7-3.3
		c0.3-0.7,0.6-1.3,0.8-1.8l0,0l4.7,2.8l6,11c-0.5,2.8-1.3,4.7-1.5,5.2c-0.101,0.1-0.101,0.1-0.101,0.1
		c-1.699,4.101-0.899,6.4,0.801,6.9c0.399,0.1,0.899,0.1,1.5,0c0.3,0,0.5-0.1,0.8-0.3c1-0.4,2-2.2,2.8-3.8
		c0.1,0.399,0.6,1.5,1.4,3.399l0,0l0,0c1,2.2,2.5,5.2,4.6,8.9c0.2,0.3,0.3,0.5,0.5,0.8c9.8,16.4,32.3,44.2,77.6,59.8
		c0,0-12.6,93.601-65.199,102.4C372.6,633.5,302.6,470.5,291.2,442.7z"/>
	<path fill="#FFFFFF" stroke="#000000" stroke-miterlimit="10" d="M215.2,227.2L215.2,227.2c0,0.2-0.1,0.3-0.1,0.5
		C215.1,227.5,215.2,227.4,215.2,227.2z"/>
	<path fill="#FFFFFF" stroke="#000000" stroke-miterlimit="10" d="M146,308c0,0-0.1,0.1-0.5,0.4c-0.3,0.2-0.7,0.5-1.2,0.9
		c-2.2,1.6-6.7,4.6-14.3,8.6c-1.9-4.9-4.3-4.9-4.3-4.9s-26.6,5.8-52.8-5.9c0,0,0,0-0.1-0.1c0.5,0.1,0.9,0.1,0.9,0.1
		s-0.6-2.7-6.2-3.3c-0.5-0.1-1-0.1-1.6-0.1c0.1-0.6,1.7-2.2,6.1-2.1c-1.7-0.5-2.2-0.7-2.6-0.7l0,0c0.2,0,0.3,0,0.3,0s-0.1-0.4-0.6-1
		c-0.3-0.5-1-1-2.3-1.5c-0.1,0-0.2-0.1-0.3-0.1c-0.8-0.3-1.8-0.5-3-0.7c-0.2,0-0.4,0-0.6-0.1c3-2.7,8.8-1.6,16.2,0.2l0.3-0.1
		c-0.8-0.4-1.3-0.7-2-1c-0.4-0.2-0.7-0.4-1-0.5c0.4-1-0.1-2.2-0.1-2.2c-0.3-1.4-3.5-2.3-6.3-2.8v-0.2c0,0,0.3-1.9,3.4-0.9
		c2.8,0.9,16.4,4.4,16.4,4.4c8.1,2.7,15.1,2.9,16.1,1.4c0.7-1.3,4-1.4,4-1.4c-11.5-3.4-15.8-5-18.2-6c3.3,0.4,4.6,0.1,5.7-0.4
		c0.5-0.3,0.7-1.5,0.8-2.3c0-0.4,0-0.6,0-0.6c-0.1-0.5-0.4-1-0.8-1.4c-0.1-0.1-0.1-0.1-0.2-0.2c-1.6-1.5-4.5-2.4-4.5-2.4l0,0
		c0,0,4.3-0.7,8.9,1.2c7.1,2.8,13.8,1.6,13.8,1.6c8.4,1,14.9,3.9,19.7,13.5C140.1,307.6,146,308,146,308L146,308L146,308z"/>
	<path fill="#FFFFFF" stroke="#000000" stroke-miterlimit="10" d="M289.5,438.7L289.5,438.7c0-0.101,0-0.101,0-0.101
		s0.2,0.601,0.7,1.601c-0.2-0.3-0.4-0.7-0.5-1C289.6,439,289.5,438.9,289.5,438.7z"/>
	<path fill="#FFFFFF" stroke="#000000" stroke-miterlimit="10" d="M223.3,109c0.3,3.3,2.2,5.8,4.2,5.5s3.3-3.1,3-6.4
		c-0.3-3.3-2.2-5.8-4.2-5.5C224.3,102.8,223,105.7,223.3,109z M246.3,120.5c0,3.3,1.6,6,3.6,6s3.6-2.7,3.6-6s-1.6-6-3.6-6
		C248,114.5,246.3,117.2,246.3,120.5z M246.5,72c0.7,7.3,4,12.8,7.5,12.4c3.4-0.4,5.6-6.6,4.9-13.8c-0.7-7.2-4-12.8-7.5-12.4
		C248,58.6,245.8,64.8,246.5,72z M258,120.5c0,3.3,1.6,6,3.6,6s3.6-2.7,3.6-6s-1.6-6-3.6-6S258,117.2,258,120.5z M269.2,117.4
		c0.2,3.3,1.9,5.9,3.9,5.8c2-0.1,3.4-2.9,3.3-6.2c-0.2-3.3-1.9-5.9-3.9-5.7C270.5,111.3,269.1,114,269.2,117.4z M283.7,116.3
		c2-0.2,3.399-3,3.1-6.3s-2.1-5.8-4.1-5.6c-2,0.2-3.4,3.1-3.1,6.4C279.9,114,281.7,116.5,283.7,116.3z M288.2,111
		c-0.3,2.6-0.5,5.2-0.7,8c0,0-1.3,1-3.5,2.3c-9.2,5.4-34.8,17.1-59.1-3.2l0,0c-0.2-0.2-0.4-0.1-0.6-0.3c0,0-1.5-11.8-6.7-21.8l0,0
		c0.2-0.5,0.3-1.1,0.3-1.8c0-2-1.1-4.8-3.1-7.4c-2.9-3.7-6.6-5.5-8.2-4c-0.1,0.1-0.2,0.1-0.2,0.2c0,0,0,0,0,0.1
		c-2.7-1.4-5.8-2.2-9.4-2c0,0,13.4-9.8,24.5-4.8c3.7,1.6,7.1,4.9,9.8,10.7c0,0-3.4,4.3-2.6,6.8c1.9,5.8,12.9,14.7,13.7-2.2
		c0.1-1.5-3-4.2-3-4.2s-4.1-12.9,3-29.5c1.2-2.9,2.8-5.8,4.7-8.9c0.6-1,1.4-2,2.1-3.1c0,0,0,0,0.1,0.1c0.8,0.7,5,4.4,9.8,9.7
		c0.1,0,0.3,0,0.5,0l0,0c6.9,7.6,14.1,18.5,11,28c-0.4,1.1-0.9,2.3-1.6,3.3c-10.9,17.2,23,12,15.9,0c-7.101-12-5.2-7,2.199-12.5
		l4.601-3.1L304.1,63c-0.3,0.4-2.5,3.5-5.3,9.4c-0.1-0.1-0.2-0.3-0.399-0.3c-1.301-0.5-3.5,2.1-4.9,5.9c-1.3,3.8-1.4,7.4-0.1,7.9
		l0,0l0,0c-0.9,3-1.801,6.2-2.601,9.8l0,0c-1,4.4-1.899,9.3-2.5,14.5C288.2,110.4,288.2,110.7,288.2,111z M241.2,116.7
		c0.3-3.3-1-6.1-3-6.4c-2-0.2-3.9,2.2-4.2,5.5c-0.3,3.3,1,6.1,3,6.4C239,122.5,240.8,120,241.2,116.7z"/>
	<path fill="#FFFFFF" stroke="#000000" stroke-miterlimit="10" d="M528.2,585.6c6.5,17.7-7.601,23.101-7.601,23.101
		c4.101,19.3-11.6,22-11.6,22c2.9,13.399-11.6,20.399-11.6,20.399C498.8,667.1,483.8,668.2,483.8,668.2c-9.1,7.7-21,5-21,5
		c0.5,12-8.2,16.5-8.2,16.5c0.601,15.399-14.3,14.1-14.3,14.1c2.101,13.2-11.5,18.4-11.5,18.4c-2,14.899-13.899,10.5-13.899,10.5
		C411.6,747,396,747.6,396,747.6c-4.8,17.7-19.2,12.101-19.2,12.101c-9.1,12.1-27.3,7.7-27.3,7.7c-17.7,7.699-27.3-4.4-27.3-4.4
		c-6.8,8.8-19.7,3.8-19.7,3.8c-14.5,14.4-23.8,4.4-23.8,4.4c-13.5,11.899-26.7,1-26.7,1c-17.1,9.7-23.6-2.101-23.6-2.101
		c-21,7.301-25.4-7.1-25.4-7.1c-15.2,2.2-22.7-13.8-22.7-13.8c-18.2,0.1-22.7-19.3-22.7-19.3c-18.2,7.199-22.3-7.7-22.3-7.7
		c-24.3,5-25.7-13.2-25.7-13.2c-21.8,0.2-20.7-14.3-20.7-14.3C64.6,695.8,67.7,677.6,67.7,677.6C50.5,674.9,53.6,657.2,53.6,657.2
		c-5.5-7.5,1.1-23.3,2.3-26c21.7,59.5,84.5,83.1,104.6,89.2c3.9,1.199,6.2,1.699,6.2,1.699c55.6,69.4,153,29.2,153,29.2
		c23.8,9.2,47.6,1.7,68.5-12.2c0.899-0.6,1.7-1.1,2.5-1.699l0,0c0.8-0.601,1.7-1.2,2.5-1.801c0.399-0.3,0.8-0.6,1.3-0.899
		c1.7-1.2,3.3-2.5,4.9-3.8c0.8-0.601,1.6-1.301,2.399-2c1.2-1,2.4-2,3.5-3l0,0C436.5,698.6,458,662.1,458,662.1
		c52.5-8.8,65.2-102.399,65.2-102.399C542.6,567.8,528.2,585.6,528.2,585.6z"/>
	<path fill="#FFFFFF" stroke="#000000" stroke-miterlimit="10" d="M479.2,467.7c3.399,10-2.601,21.6-33.601,32.2
		c-0.1-0.301-0.3-0.5-0.5-0.801c32.7-18.899,12.9-36,12.9-36l-0.3,0.101c-1.5-5.2-3.2-9.5-3.2-9.5c-0.9-3.8-1.9-7.3-3-10.4
		C451.4,443.4,474.4,453.9,479.2,467.7z"/>
	<path fill="#FFFFFF" stroke="#000000" stroke-miterlimit="10" d="M479.2,467.7c-4.8-13.8-27.7-24.3-27.7-24.3
		c-3.2-8.9-6.8-14.7-9.1-17.7l0,0C442.4,425.6,473.6,444,479.2,467.7z"/>
	<path fill="#FFFFFF" stroke="#000000" stroke-miterlimit="10" d="M459.6,477.9c0.9-3.4-0.399-9.5-1.899-14.7l0.3-0.101
		c0,0,19.8,17.2-12.9,36c-2.199-3.699-3.699-6.8-4.6-8.899l0.2-0.101c1.1,0,2.1-0.5,2.899-1.3c0.4-0.3,0.7-0.8,1-1.2
		c1.601-2.3,2.4-5.5,2.4-5.5c0,0.101,0,0.301,0.1,0.4c0.801,7.3,4.101,3.2,5.4-0.6c0.2-0.4,0.3-0.9,0.4-1.301
		c0.8-3.699,1-8.199,1-8.199c0.699,1.5,0.699,3.3,0.8,4.899c0.2,2,0.5,3.5,2.3,3.4C458.4,480.5,459.2,479.5,459.6,477.9z"/>
	<path fill="#FFFFFF" stroke="#000000" stroke-miterlimit="10" d="M457.7,463.3c1.5,5.2,2.8,11.2,1.899,14.7c0,0-1.3-5.3-3-5.2
		c0,0-2-0.399-2,4.5c-0.1-1.6-0.199-3.399-0.8-4.899c0,0-0.2,4.6-1,8.199c-0.1,0.4-0.2,0.9-0.399,1.301
		c-0.101-0.301-0.601-2.7-2.301-2.601c0,0-2.6-1-2.899,3.2H447c0-0.1,0-0.2-0.1-0.4c0,0-0.801,3.2-2.4,5.5c0-1.399-0.3-2.3-0.8-2.8
		c-0.2-0.2-0.4-0.3-0.601-0.399l0,0c-0.1,0-0.199-0.101-0.199-0.101c-0.5-0.2-1.101-0.2-1.601-0.1c-0.6,0.1-1.1,0.3-1.1,0.3
		c-0.3,0.4-0.7,0.9-1,1.4c0.2-1.301-0.3-2.9-0.9-3.601l-0.1-0.1L438.1,482.1c-0.199-0.199-0.399-0.3-0.6-0.3c-0.1,0-0.1-0.1-0.2-0.1
		c-1.399-0.5-2.6,0.399-3.3,1.2c-0.1,0.1-0.1,0.1-0.2,0.199c-0.3,0.301-0.5,0.601-0.6,0.7c0.2-0.5,1-2.399,1.5-5.2
		c0.7-4,0.899-9.899-2.101-15.899c-1.1-2.2-2.6-4.4-4.6-6.601c0,0-1.2,2.4-2.8,6c-0.4,0.801-0.8,1.7-1.2,2.601
		c-0.3,0.6-0.5,1.2-0.8,1.8c-1.601,3.8-5.101,4.8-6.7,3.3c1.8-4.7,1.5-6.8,1.1-7.7c-0.1-0.3-0.199-0.399-0.199-0.399
		c1.8-5.8,3.1-10.9,4-15.4c2.199-10.2,2.399-16.5,2.399-16.899c4.9-1.301,9.8-2.4,12.9-4.2c1.399-0.8,2.5-1.601,3.5-2.4
		c0,0,0.8,0.8,2.1,2.601c2.3,3,5.9,8.8,9.101,17.699c1.1,3.101,2.1,6.5,3,10.4C454.5,453.8,456.2,458.1,457.7,463.3z"/>
	<path fill="#FFFFFF" stroke="#000000" stroke-miterlimit="10" d="M459.6,477.9c-0.399,1.6-1.199,2.6-2.699,2.699
		c-1.9,0.2-2.2-1.399-2.301-3.399c0-5,2-4.5,2-4.5C458.3,472.7,459.6,477.9,459.6,477.9z"/>
	<path fill="#FFFFFF" stroke="#000000" stroke-miterlimit="10" d="M450,479.4c1.7-0.2,2.3,2.199,2.3,2.6c-1.3,3.8-4.6,8-5.399,0.6
		h0.199C447.4,478.3,450,479.4,450,479.4z"/>
	<path fill="#FFFFFF" stroke="#000000" stroke-miterlimit="10" d="M444.5,487.7c0-1.4-0.3-2.3-0.8-2.8
		C444.2,485.4,444.5,486.2,444.5,487.7c-0.3,0.399-0.6,0.8-1,1.2C443.9,488.5,444.2,488.1,444.5,487.7z"/>
	<path fill="#FFFFFF" stroke="#000000" stroke-miterlimit="10" d="M443.1,484.4c0.2,0.1,0.4,0.199,0.601,0.399
		C443.5,484.7,443.3,484.5,443.1,484.4z"/>
	<path fill="#FFFFFF" stroke="#000000" stroke-miterlimit="10" d="M443.1,484.4c-0.1,0-0.199-0.101-0.199-0.101
		C443,484.3,443,484.4,443.1,484.4z"/>
	<path fill="#FFFFFF" stroke="#000000" stroke-miterlimit="10" d="M423.8,404.4c0,0,29.8,7.6,16.5,18.6c-0.899,0.8-2.1,1.6-3.5,2.4
		c-3.1,1.8-8,2.8-12.899,4.199c-4.2,1.101-8.5,2.4-11.801,4.601c-3.5,2.3-21.5-1.7-13.199-10.5c0.1-0.101,0.3-0.3,0.399-0.4
		c2-1.8,5.3-2.899,9.101-4.1c8.1-2.601,18.1-4.8,20.399-9.7h-0.1c0,0,0-0.1,0.1-0.1l-5.5-4.2L423.8,404.4z"/>
	<path fill="#FFFFFF" stroke="#000000" stroke-miterlimit="10" d="M440.6,490.2l-0.199,0.1l0,0L440.6,490.2L440.6,490.2z"/>
	<path fill="#FFFFFF" stroke="#000000" stroke-miterlimit="10" d="M440.5,490.2L440.5,490.2c-0.8-1.8-1.4-3-1.4-3.3c0,0,0,0,0-0.101
		C439.1,487,439.6,488.2,440.5,490.2z"/>
	<path fill="#FFFFFF" stroke="#000000" stroke-miterlimit="10" d="M438.3,482.4c0.7,0.699,1.101,2.3,0.9,3.6c0,0,0,0,0,0.1
		C439.4,484.8,438.9,483.2,438.3,482.4z"/>
	<path fill="#FFFFFF" stroke="#000000" stroke-miterlimit="10" d="M438.3,482.4c0.601,0.699,1.101,2.3,0.9,3.699
		c-0.101,0.2-0.2,0.5-0.2,0.7l0,0c-2,1.7-1.8,3.4-2.8,3.9c-0.3,0.1-0.5,0.2-0.8,0.3c-0.5,0.1-1,0.1-1.5,0
		c-1.7-0.5-2.5-2.7-0.801-6.9c0,0,0,0,0.101-0.1c0.1-0.1,0.3-0.4,0.6-0.7c0.101-0.1,0.101-0.1,0.2-0.2c0.8-0.8,2-1.699,3.3-1.199
		c0.101,0,0.101,0,0.2,0.1c0.2,0.1,0.4,0.2,0.6,0.3l0.101,0.101H438.3z"/>
	<path fill="#FFFFFF" stroke="#000000" stroke-miterlimit="10" d="M439.2,486.1c0,0.2-0.101,0.5-0.2,0.7l0,0
		C439,486.5,439.1,486.3,439.2,486.1z"/>
	<path fill="#FFFFFF" stroke="#000000" stroke-miterlimit="10" d="M438.3,482.4l-0.1-0.101L438.3,482.4z"/>
	<path fill="#FFFFFF" stroke="#000000" stroke-miterlimit="10" d="M437.5,481.9c-0.1,0-0.1-0.101-0.2-0.101
		C437.3,481.8,437.4,481.8,437.5,481.9z"/>
	<path fill="#FFFFFF" stroke="#000000" stroke-miterlimit="10" d="M432.6,462.8c3,6.101,2.9,11.9,2.101,15.9l-6-11l-4.7-2.8l0,0
		c0.4-0.9,0.8-1.801,1.2-2.601h0.1C425.2,462.3,429.7,461.3,432.6,462.8z"/>
	<path fill="#FFFFFF" stroke="#000000" stroke-miterlimit="10" d="M433.9,483c-0.101,0.1-0.101,0.1-0.2,0.2
		C433.8,483.1,433.9,483.1,433.9,483z"/>
	<path fill="#FFFFFF" stroke="#000000" stroke-miterlimit="10" d="M433.2,483.9C433.1,484,433.1,484,433.2,483.9
		c-1.7,4.199-0.9,6.399,0.8,6.899C432.3,490.4,431.4,488.2,433.2,483.9C433.1,484,433.1,484,433.2,483.9z"/>
	<path fill="#FFFFFF" stroke="#000000" stroke-miterlimit="10" d="M432.6,462.8c-2.899-1.5-7.399-0.6-7.399-0.6H425.1
		c1.7-3.601,2.801-6,2.801-6C430,458.4,431.5,460.6,432.6,462.8z"/>
	<path fill="#FFFFFF" stroke="#000000" stroke-miterlimit="10" d="M428.7,409.5L428.7,409.5c-2.2,4.9-12.2,7.1-20.3,9.7
		c-0.2,0-0.5,0-0.7-0.101c0.2-0.1,0.5-0.199,0.7-0.199C416.4,416.3,426.3,414.4,428.7,409.5z"/>
	<path fill="#FFFFFF" stroke="#000000" stroke-miterlimit="10" d="M423.3,405.3l5.4,4.3c-2.4,4.801-12.3,6.801-20.3,9.4
		c-0.2,0.1-0.5,0.1-0.7,0.2c-29.2-2.9-45.4-14.2-45.4-14.2h-0.1c0-0.2,0-0.4,0-0.6c0-0.4,0-0.801,0-1.2
		c0.2-14.9,14.899-23.9,22.2-27.8L423.3,405.3z"/>
	<path fill="#FFFFFF" stroke="#000000" stroke-miterlimit="10" d="M458,662.2c0,0-21.5,36.399-52.7,63.8
		C436.5,698.6,458,662.2,458,662.2c-85.8-28.8-157-192.9-167-219.8c0,0.1,0.1,0.199,0.2,0.3C302.6,470.5,372.6,633.5,458,662.2z"/>
	<path fill="#FFFFFF" stroke="#000000" stroke-miterlimit="10" d="M458,662.2c0,0-21.5,36.399-52.7,63.8l0,0c-1.2,1-2.3,2-3.5,3
		c-0.8,0.7-1.6,1.3-2.399,2c-1.601,1.3-3.301,2.6-4.9,3.8c-0.4,0.3-0.8,0.601-1.3,0.9c-0.8,0.6-1.7,1.2-2.5,1.8l0,0
		c-0.8,0.6-1.7,1.2-2.5,1.7C367.3,753.1,343.6,760.6,319.7,751.4C201.4,531.3,263.5,461.2,264.5,460l0,0c9-4.2,14.8-8.5,18.5-12.2
		c4.8-4.7,6.2-8.2,6.4-9c-0.101,0.4-0.101,1.601,1.5,3.601l0,0C301,469.3,372.3,633.3,458,662.2z"/>
	<path fill="#FFFFFF" stroke="#000000" stroke-miterlimit="10" d="M423.9,429.6c0,0.4-0.301,6.7-2.4,16.9c0,0-0.5,0-1.3,0.1
		c-0.601,0-1.5,0-2.601,0.101c-1.3,0-2.899,0.1-4.8,0.1c-3.8,0-8.7,0-14.2,0c-0.1,0-0.199,0-0.199,0c-28.7-0.5-75.7-3.6-90.4-18.5
		c2.9-8.3,16.8-15.899,16.8-15.899c7.2-4.801,29.7-5,29.7-5c3.8,1.5,8.8,2.5,8.8,2.5c0-0.101-0.1-0.2-0.1-0.301c0.1,0,0.1,0,0.1,0
		c-0.5-1.5-0.8-3-0.899-4.399h0.1c0,0,16.2,11.3,45.4,14.2c-3.5,1.199-6.5,2.5-8.4,4.199c-0.1,0.101-0.3,0.2-0.4,0.4
		c-8.3,8.7,9.7,12.8,13.2,10.5C415.3,432,419.6,430.7,423.9,429.6z"/>
	<path fill="#FFFFFF" stroke="#000000" stroke-miterlimit="10" d="M421.4,446.5c-0.9,4.5-2.2,9.6-4,15.4
		c0,0.1-0.101,0.3-0.101,0.399l0,0c0-0.1,0.101-0.3,0.2-0.399C419.2,456.2,420.5,451,421.4,446.5z"/>
	<path fill="#FFFFFF" stroke="#000000" stroke-miterlimit="10" d="M417.5,446.6c1.1,0,2-0.1,2.6-0.1
		C419.5,446.6,418.6,446.6,417.5,446.6z"/>
	<path fill="#FFFFFF" stroke="#000000" stroke-miterlimit="10" d="M417.6,462.3c0.301,0.8,0.7,3-1.1,7.7c-0.4,1-0.9,2.2-1.6,3.5
		c-0.601-0.7,0.699-6,1.699-8.9c0.301-0.699,0.5-1.399,0.7-2.199c0-0.101,0.101-0.301,0.101-0.4S417.5,462,417.6,462.3z"/>
	<path fill="#FFFFFF" stroke="#000000" stroke-miterlimit="10" d="M412,462.9c0.2,0,0.3,0,0.5,0C412.3,462.9,412.1,462.9,412,462.9z
		"/>
	<path fill="#FFFFFF" stroke="#000000" stroke-miterlimit="10" d="M398.5,446.7c5.5,0.1,10.4,0.1,14.2,0
		C408.9,446.8,404,446.8,398.5,446.7z"/>
	<path fill="#FFFFFF" stroke="#000000" stroke-miterlimit="10" d="M407.6,419.2c0.2,0,0.5,0.1,0.7,0.1c-3.8,1.2-7.1,2.3-9.1,4.101
		C401.1,421.6,404.2,420.3,407.6,419.2z"/>
	<path fill="#FFFFFF" stroke="#000000" stroke-miterlimit="10" d="M405.3,725.9c-1.2,1-2.3,2-3.5,3
		C402.9,727.9,404.1,726.9,405.3,725.9z"/>
	<path fill="#FFFFFF" stroke="#000000" stroke-miterlimit="10" d="M399.3,730.9c-1.6,1.3-3.3,2.6-4.899,3.8
		C396,733.5,397.7,732.2,399.3,730.9z"/>
	<path fill="#FFFFFF" stroke="#000000" stroke-miterlimit="10" d="M392,326.8c8,7.4,11.5,21.1-3.7,46.4c-8.2-4.8-15.2-4.2-20.7-1.5
		c0,0,12.801-35.9-3-44.7c0,0-14.699-6.9,3,44.7c-6.399,3.1-10.899,8.9-13.3,12.6c0,0-5-34.7-9.899-25.9c-3.9,7-4.5,23.1,9.899,25.9
		c-1.3,1.9-1.899,3.3-1.899,3.3c-3,3.9-2.5,16-2.5,16s-11.7,4.7-20.5-6.199l0,0c1.399-5.101,2.5-9.9,3.399-14.5
		c0.3-1.5,0.601-3,0.8-4.5c0.2-1.2,0.4-2.4,0.5-3.6c0.5-3.5,0.801-6.9,1.101-10.1c3-43.1-16.8-59.9-16.8-59.9c0.5,0.1,1,0.2,1.6,0.3
		c0,0,24.9-35.2,48.1,13.2c0,0,12.301,0.3,21.301,6.6l0,0C389.6,324.8,390.4,325.8,392,326.8z"/>
	<path fill="#FFFFFF" stroke="#000000" stroke-miterlimit="10" d="M393.1,735.6c-0.8,0.601-1.699,1.2-2.5,1.801
		C391.5,736.8,392.3,736.3,393.1,735.6z"/>
	<path fill="#FFFFFF" stroke="#000000" stroke-miterlimit="10" d="M392,326.8c-1.6-1-2.4-1.9-2.5-2C390.4,325.3,391.2,326,392,326.8
		z"/>
	<path fill="#FFFFFF" stroke="#000000" stroke-miterlimit="10" d="M390.6,737.4c-0.8,0.6-1.699,1.199-2.5,1.699
		C388.9,738.6,389.8,738,390.6,737.4z"/>
	<path fill="#FFFFFF" stroke="#000000" stroke-miterlimit="10" d="M388.3,373.1c0,0-1.6,0.7-4.1,1.9c-7.4,3.9-22.4,13.6-22.2,28.1
		c0,0.601,0,1.2,0,1.801c0.1,1.899,0.4,2.899,0.9,4.399c-0.7-0.1-5.2-0.899-8.7-2.3c-2.4-1-4.4-2.2-4.4-3.7c0,0-0.5-12.1,2.5-16
		c0,0,0.7-1.3,1.9-3.3c2.399-3.7,6.899-9.5,13.3-12.6C373.2,368.9,380.2,368.3,388.3,373.1z"/>
	<path fill="#FFFFFF" stroke="#000000" stroke-miterlimit="10" d="M377.2,464.8c14.5-0.2,27.1-1.2,34.3-1.899
		C404.2,463.6,391.6,464.6,377.2,464.8z"/>
	<path fill="#FFFFFF" stroke="#000000" stroke-miterlimit="10" d="M375.1,464.8c0.5,0,0.9,0,1.4,0
		C376,464.8,375.6,464.8,375.1,464.8z"/>
	<path fill="#FFFFFF" stroke="#000000" stroke-miterlimit="10" d="M364.7,326.9c15.8,8.8,3,44.7,3,44.7
		C350,319.9,364.7,326.9,364.7,326.9z"/>
	<path fill="#FFFFFF" stroke="#000000" stroke-miterlimit="10" d="M363,409.4c0,0.1,0.1,0.199,0.1,0.3c0,0-5-1-8.8-2.5
		c0,0-22.5,0.2-29.7,5c0,0-13.899,7.6-16.8,15.899l0,0l0,0c2.9-8.3,16.8-15.899,16.8-15.899c1.801-5.2,3.4-10.2,4.7-15
		c1.4-5.1,2.5-9.9,3.4-14.5c-0.9,4.6-2,9.4-3.4,14.5c-1.3,4.8-2.899,9.8-4.7,15c7.2-4.8,29.7-5.101,29.7-5.101
		C357.8,408.5,362.3,409.3,363,409.4z"/>
	<path fill="#FFFFFF" stroke="#000000" stroke-miterlimit="10" d="M363.1,409.4C363.1,409.4,363,409.4,363.1,409.4
		c-0.6-1.601-0.899-2.601-1-4.4l0,0C362.3,406.4,362.6,407.9,363.1,409.4z"/>
	<path fill="#FFFFFF" stroke="#000000" stroke-miterlimit="10" d="M362.1,404.4c0,0.199,0,0.399,0,0.6l0,0c0-0.6-0.1-1.2,0-1.8
		C362.1,403.6,362.1,404,362.1,404.4z"/>
	<path fill="#FFFFFF" stroke="#000000" stroke-miterlimit="10" d="M349.9,403.4c0,1.5,2,2.8,4.399,3.699c0,0-22.5,0.301-29.7,5.101
		c1.801-5.2,3.4-10.2,4.7-15l0,0C338.2,408.1,349.9,403.4,349.9,403.4z"/>
	<path fill="#FFFFFF" stroke="#000000" stroke-miterlimit="10" d="M344.5,358.2c4.9-8.8,9.9,25.9,9.9,25.9
		C340,381.4,340.6,365.3,344.5,358.2z"/>
	<path fill="#FFFFFF" stroke="#000000" stroke-miterlimit="10" d="M318.5,304.6c0,0,19.8,16.9,16.8,59.9c0,0-13,25.1-42.399-2.1
		c13.1-39.6,15-62.8,15-62.8l0.1-0.2C310.5,301.8,313.9,303.7,318.5,304.6z"/>
	<path fill="#FFFFFF" stroke="#000000" stroke-miterlimit="10" d="M335.3,364.5c-0.2,3.2-0.6,6.6-1.1,10.1
		c-0.2,1.2-0.4,2.4-0.601,3.6c0,0-5.399,9.3-14,5.9l0,0l0,0c-0.199,0.1-1,0.8-2.3,1.5c-0.7,0.4-1.6,0.8-2.6,1.1
		c-2,0.6-4.4,0.8-7.101-0.2c-2.199-0.8-4.6-2.3-7-5.1l0,0c0,0-2.1,0.5-4.5,0c-2.5-0.5-5.3-2.1-6.5-6.5l0,0l0,0
		c0,0-4.399,8.6-9.8,9.1c-0.2,0-0.3,0-0.5,0c0,0,0,0-0.1,0c0,0-1.2,1.1-3.5,1.4c-2.8,0.5-7.4,0-13.6-4.4c0,0-20.1,3.2-20.1-3v-6
		v-4.4c0-0.1,0-0.1,0-0.2c0.1-0.3,0.4-0.2,0.6-1.1c0.1-0.3,0.1-0.7,0.2-1.1h0.2c-0.1,0.4-0.2,0.7-0.2,1l0.9-0.4
		c25.9,16,46.3-1,48.899-3.3l0,0c0.101-0.1,0.2-0.2,0.2-0.2l0,0C322.3,389.6,335.3,364.5,335.3,364.5z"/>
	<path fill="#FFFFFF" stroke="#000000" stroke-miterlimit="10" d="M334.2,374.6c-0.2,1.2-0.3,2.4-0.5,3.6c-0.3,1.5-0.5,3-0.8,4.5
		c0.3-1.5,0.6-3,0.8-4.5C333.8,377,334,375.8,334.2,374.6z"/>
	<path fill="#FFFFFF" stroke="#000000" stroke-miterlimit="10" d="M319.6,384.2L319.6,384.2L319.6,384.2L319.6,384.2z"/>
	<path fill="#FFFFFF" stroke="#000000" stroke-miterlimit="10" d="M318.1,172.7c0,0,5,30.8-21.199,35.2c0,0-2,8.2-23,0
		c0,0-7.9,10.9-25.8,4.9c0,0-11,9-27.1,5.7c0,0-1.5,5.7-5.8,8.6c-2.8,1.9-6.8,2.6-12.3-0.2c0,0-2.5-2-5.8-5.7l0,0
		c-0.9-1-1.8-2.2-2.8-3.4l0,0c-1-1.3-2-2.6-2.9-4.1l0,0c-0.7-1-1.3-2-1.9-3.1l0,0c-0.3-0.6-0.6-1.1-0.9-1.7l0,0
		c-0.8-1.4-1.5-2.9-2.2-4.5l0,0c-0.4-1-0.8-1.9-1.2-2.9l0,0c-0.3-0.7-0.5-1.3-0.7-2c-5.4-16.5-4.1-39.1,21.7-64.6
		c0.6-0.6,1.2-1.2,1.8-1.8l0,0c0.3-0.3,3-3.7,7.6-7.9c0.5-0.4,0.9-0.8,1.4-1.3c0.3-0.2,0.5-0.4,0.8-0.6c0.8-0.6,1.6-1.3,2.5-2
		c0.6-0.4,1.2-0.9,1.8-1.3s1.2-0.9,1.9-1.3c0.3-0.2,0.6-0.4,0.9-0.6c0,0,0,0,0.1,0c24.3,20.3,49.9,8.5,59.1,3.1l0,0
		C295.2,129.7,318.1,143.4,318.1,172.7z"/>
	<path fill="#FFFFFF" stroke="#000000" stroke-miterlimit="10" d="M317.3,385.7c-0.7,0.4-1.6,0.8-2.6,1.1
		C315.7,386.5,316.5,386.1,317.3,385.7z"/>
	<path fill="#FFFFFF" stroke="#000000" stroke-miterlimit="10" d="M307.9,428.2c14.699,14.899,61.6,18,90.399,18.5
		C369.5,446.2,322.5,443.1,307.9,428.2L307.9,428.2z"/>
	<path fill="#FFFFFF" stroke="#000000" stroke-miterlimit="10" d="M308,299.4l-0.1,0.2c0,0-1.9,23.1-15,62.8
		c-6.101-33-38.2-55.4-38.2-55.4c-3-11,0-9.8,3.1-6.2c1.7,2,3.5,3.5,4.4,4.9c15.6-1.5,19.1,14.9,19.1,14.9
		c11,4.9,11.5,20.4,11.5,20.4c-0.399-11.6,7.7-25.5,7.7-25.5c-2.3-11.3,4.1-19.2,4.4-19.6C305.8,297.1,306.8,298.3,308,299.4z"/>
	<path fill="#FFFFFF" stroke="#000000" stroke-miterlimit="10" d="M300.6,381.6c2.4,2.8,4.801,4.3,7,5.1
		C305.3,385.9,303,384.3,300.6,381.6L300.6,381.6z"/>
	<path fill="#FFFFFF" stroke="#000000" stroke-miterlimit="10" d="M301,272.6c0,0-2.3,13.7,4,23.3c-0.3,0.4-6.8,8.3-4.4,19.6
		c0,0-8.1,13.9-7.699,25.5c0,0-0.5-15.5-11.5-20.4c0,0-3.5-16.4-19.1-14.9c-0.9-1.4-2.6-2.9-4.4-4.9l5.6-9.6c-0.1,0-0.2,0-0.3,0
		l0.3-0.6l0,0c5.9-0.5,9.8-1.4,9.8-1.4c2.5-0.8,4.9-1.6,7-2.5c0.7-0.3,1.5-0.6,2.1-0.9c0.7-0.3,1.4-0.6,2-1
		C291.8,281.3,297.1,277,301,272.6z"/>
	<path fill="#FFFFFF" stroke="#000000" stroke-miterlimit="10" d="M298.6,72.2c0.9,1.1,0.801,4.2-0.5,7.6c-1.3,3.8-3.5,6.4-4.8,5.9
		l0,0l0,0c-1.3-0.6-1.3-4.1,0.101-7.9c1.399-3.8,3.5-6.5,4.899-5.9C298.4,72,298.5,72.1,298.6,72.2z"/>
	<path fill="#FFFFFF" stroke="#000000" stroke-miterlimit="10" d="M292.9,362.4L292.9,362.4c-0.101,0.1-0.2,0.1-0.301,0.3l0,0
		c-2.6,2.3-23,18.8-48.899,2.8l-0.7-0.1c2-8.8,6.7-30,5.1-47.4c0-0.4-0.1-0.8-0.1-1.1c-0.1-1.2-0.3-2.3-0.5-3.4
		c-0.1-0.4-0.1-0.7-0.2-1.1c-0.2-1.1-0.4-2.2-0.7-3.2c-0.2-0.7-0.4-1.4-0.6-2h8.6C254.7,307,286.8,329.3,292.9,362.4z"/>
	<path fill="#FFFFFF" stroke="#000000" stroke-miterlimit="10" d="M292.6,362.6c0.101-0.1,0.2-0.2,0.2-0.2S292.7,362.5,292.6,362.6z
		"/>
	<path fill="#FFFFFF" stroke="#000000" stroke-miterlimit="10" d="M291.6,71.3l-4.6,3.1c-7.4,5.5-9.3,0.6-2.2,12.5
		c7.101,12-26.8,17.2-15.9,0c0.7-1.1,1.2-2.2,1.6-3.3c3.1-9.5-4.1-20.4-11-28c1.2-0.1,2.4-0.2,3.5-0.2
		C283.1,55.2,291.6,71.3,291.6,71.3z"/>
	<path fill="#FFFFFF" stroke="#000000" stroke-miterlimit="10" d="M291,442.2C291,442.3,291,442.3,291,442.2
		C291,442.3,291,442.3,291,442.2C291,442.3,291,442.2,291,442.2z"/>
	<path fill="#FFFFFF" stroke="#000000" stroke-miterlimit="10" d="M291,442.3L291,442.3c-1.6-1.8-1.6-3.1-1.5-3.5
		c0,0.2,0.1,0.3,0.2,0.4C290,440.3,290.5,441.3,291,442.3z"/>
	<path fill="#FFFFFF" stroke="#000000" stroke-miterlimit="10" d="M290.2,440.2c0.399,0.7,0.8,1.3,0.8,2
		C290.7,441.4,290.4,440.8,290.2,440.2z"/>
	<path fill="#FFFFFF" stroke="#000000" stroke-miterlimit="10" d="M289.5,375c1.2,4.3,4.1,6,6.5,6.5
		C293.6,381,290.8,379.4,289.5,375C289.5,375.1,289.5,375,289.5,375z"/>
	<path fill="#FFFFFF" stroke="#000000" stroke-miterlimit="10" d="M289.5,438.7c0,0.2,0.1,0.3,0.2,0.5
		C289.6,439.1,289.5,438.9,289.5,438.7C289.5,438.8,289.5,438.8,289.5,438.7z"/>
	<path fill="#FFFFFF" stroke="#000000" stroke-miterlimit="10" d="M289.5,375C289.5,375.1,289.5,375.1,289.5,375
		c-0.3,0.7-4.6,8.7-9.8,9.1C285.1,383.6,289.5,375,289.5,375z"/>
	<path fill="#FFFFFF" stroke="#000000" stroke-miterlimit="10" d="M289.5,438.7L289.5,438.7C289.5,438.8,289.5,438.8,289.5,438.7
		C289.5,438.8,289.5,438.8,289.5,438.7c-0.3,0.7-1.6,4.3-6.4,9.1c-3.7,3.7-9.5,8-18.5,12.2l0,0l0,0c-8.7,4.1-20.5,8-36.2,11.1
		c-1.3,0.301-2.7,0.5-4.1,0.801c-9.8,1.699-21.4,3-34,3.899h-0.1c-10.4,0.7-22,1-34.7,0.9c-8.9-0.101-47.4,0-54.1,5.399
		c0,0-13.6-32,28.8-28.699c0,0,103.5,28.1,136.9-29.7c2.8-1.7,5.4-2.4,7.8-2.5c0.4,0,0.7,0,1.1,0c7.6,0.399,12.8,6.899,12.8,6.899
		l0,0l0,0C288.2,432.1,288.5,435.6,289.5,438.7L289.5,438.7z"/>
	<path fill="#FFFFFF" stroke="#000000" stroke-miterlimit="10" d="M289.5,438.7C289.5,438.8,289.5,438.8,289.5,438.7
		c-0.3,0.8-1.7,4.399-6.4,9C287.8,443.1,289.2,439.5,289.5,438.7z"/>
	<path fill="#FFFFFF" stroke="#000000" stroke-miterlimit="10" d="M295.3,425.3c-2.3,0.3-4.6,1.101-6.5,2.9l0,0
		C290.7,426.3,293,425.5,295.3,425.3z"/>
	<path fill="#FFFFFF" stroke="#000000" stroke-miterlimit="10" d="M288.8,428.1C288.7,428.1,288.7,428.1,288.8,428.1
		c0,0-5.3-6.5-12.9-6.899C283.2,421.6,288.3,427.6,288.8,428.1z"/>
	<path fill="#FFFFFF" stroke="#000000" stroke-miterlimit="10" d="M287.5,119L287.5,119c0,0-1.3,1-3.5,2.3l0,0
		C286.2,120,287.5,119,287.5,119z"/>
	<path fill="#FFFFFF" stroke="#000000" stroke-miterlimit="10" d="M286.7,109.9c0.3,3.3-1.101,6.1-3.1,6.3c-2,0.2-3.8-2.3-4.1-5.6
		c-0.3-3.3,1.1-6.1,3.1-6.4C284.6,104.1,286.5,106.6,286.7,109.9z"/>
	<path fill="#FFFFFF" stroke="#000000" stroke-miterlimit="10" d="M264.5,460c-1,1.1-63.2,71.2,55.1,291.3c0,0-97.5,40.2-153-29.2
		c0,0-24-187.699,61.8-251C244.1,468.1,255.8,464.1,264.5,460z"/>
	<path fill="#FFFFFF" stroke="#000000" stroke-miterlimit="10" d="M284,121.3C284,121.3,283.9,121.3,284,121.3
		c-9.2,5.4-34.8,17.1-59.1-3.1c0,0,0,0-0.1,0c0,0,0,0,0.1,0l0,0l0,0C249.2,138.4,274.8,126.7,284,121.3
		C283.9,121.3,284,121.3,284,121.3z"/>
	<path fill="#FFFFFF" stroke="#000000" stroke-miterlimit="10" d="M282.4,285.8c0.7-0.3,1.4-0.6,2-1
		C283.8,285.2,283.1,285.5,282.4,285.8z"/>
	<path fill="#FFFFFF" stroke="#000000" stroke-miterlimit="10" d="M279.2,384.2L279.2,384.2c0.1,0-1.1,1.1-3.5,1.4
		C278,385.2,279.2,384.2,279.2,384.2z"/>
	<path fill="#FFFFFF" stroke="#000000" stroke-miterlimit="10" d="M276.4,116.9c0.2,3.3-1.3,6.1-3.3,6.2s-3.7-2.4-3.9-5.8
		c-0.2-3.3,1.3-6.1,3.3-6.2S276.2,113.6,276.4,116.9z"/>
	<path fill="#FFFFFF" stroke="#000000" stroke-miterlimit="10" d="M273.2,289.3c2.5-0.8,4.9-1.6,7-2.5
		C278.1,287.7,275.8,288.5,273.2,289.3c0,0-4,0.9-9.8,1.4l0,0C269.3,290.2,273.2,289.3,273.2,289.3z"/>
	<path fill="#FFFFFF" stroke="#000000" stroke-miterlimit="10" d="M273.8,234.7c0,0.1,0,0.2,0,0.3c0,0.7-0.1,1.3-0.4,1.9
		C273.6,236.1,273.7,235.4,273.8,234.7z"/>
	<path fill="#FFFFFF" stroke="#000000" stroke-miterlimit="10" d="M273.8,234.7c-0.1,0.8-0.2,1.5-0.4,2.2c-0.6,1.6-2,2.7-3.6,2.7
		c-2.2,0-4-2-4-4.5s1.8-4.6,4-4.6C271.9,230.4,273.6,232.3,273.8,234.7z"/>
	<path fill="#FFFFFF" stroke="#000000" stroke-miterlimit="10" d="M272.4,224.7L272.4,224.7L272.4,224.7z"/>
	<path fill="#FFFFFF" stroke="#000000" stroke-miterlimit="10" d="M272.2,225L272.2,225c0,0-0.1,0-0.2-0.1c0,0-0.1-0.1-0.2-0.1l0,0
		c-0.4-0.3-1.2-0.7-2.2-1.2h0.1c0.8,0,1.5,0.6,2.3,1C272.1,224.7,272.2,224.9,272.2,225z"/>
	<path fill="#FFFFFF" stroke="#000000" stroke-miterlimit="10" d="M271.9,224.8c0.1,0,0.1,0.1,0.2,0.1
		C272,224.9,272,224.8,271.9,224.8z"/>
	<path fill="#FFFFFF" stroke="#000000" stroke-miterlimit="10" d="M271.7,223.8c0.1,0.2,0.2,0.5,0.3,0.7c-0.7-0.4-1.5-1-2.3-1
		C270.4,223.6,271.1,223.7,271.7,223.8z"/>
	<path fill="#FFFFFF" stroke="#000000" stroke-miterlimit="10" d="M271.7,223.8c-0.6-0.2-1.3-0.2-1.9-0.2h-0.1
		c-3.7-1.8-10.6-4-14.4,1.7c1.1-4.7,3.7-8.4,7.1-8.9C266,215.8,269.5,219.4,271.7,223.8z"/>
	<path fill="#FFFFFF" stroke="#000000" stroke-miterlimit="10" d="M271.9,224.8c-0.4-0.3-1.3-0.7-2.3-1.2h0.1
		C270.7,224.1,271.5,224.5,271.9,224.8z"/>
	<path fill="#FFFFFF" stroke="#000000" stroke-miterlimit="10" d="M269.7,223.6h-0.1c-3.8-1.7-10.6-3.6-14.4,2.1
		c0-0.1,0.1-0.3,0.1-0.5C259.1,219.6,266,221.8,269.7,223.6z"/>
	<path fill="#FFFFFF" stroke="#000000" stroke-miterlimit="10" d="M243.7,365.4c25.9,16.1,46.3-0.5,48.899-2.8
		c-2.6,2.3-23,19.4-48.899,3.3l-0.9,0.4c0.1-0.3,0.2-0.7,0.2-1L243.7,365.4z"/>
	<path fill="#FFFFFF" stroke="#000000" stroke-miterlimit="10" d="M274.8,421.2c-2.4,0.1-5,0.8-7.8,2.5c0,0,0,0,0-0.101
		C269.8,422,272.4,421.3,274.8,421.2z"/>
	<path fill="#FFFFFF" stroke="#000000" stroke-miterlimit="10" d="M267,423.7C267,423.7,267.1,423.8,267,423.7
		c-33.3,57.899-136.8,29.8-136.8,29.8c21.7-49,112.1-49.6,112.1-49.6c0.4,0,0.8-0.101,1.3-0.101c11.5,0.3,23.3,19.9,23.3,19.9H267z"
		/>
	<path fill="#FFFFFF" stroke="#000000" stroke-miterlimit="10" d="M267,423.7c0,0-0.1,0-0.1,0.1c0,0-11.8-19.6-23.3-19.899
		C255.3,403.7,266.3,422.4,267,423.7z"/>
	<path fill="#FFFFFF" stroke="#000000" stroke-miterlimit="10" d="M266.6,245.7h-0.1c-2.4-1.1-4.4-3.4-5.4-6.4
		C262,242.3,264,244.6,266.6,245.7z"/>
	<path fill="#FFFFFF" stroke="#000000" stroke-miterlimit="10" d="M266.4,245.7c0,0,0.1,0,0.1,0.1c-0.1,0-0.2,0.1-0.4,0.2
		c-5.2,0.8-10.2-5.2-11.3-13.5c-0.1-1.1-0.2-2.1-0.2-3.1c0,0.9,0.1,1.8,0.2,2.8c1,8.3,6.1,14.4,11.3,13.6
		C266.3,245.8,266.4,245.7,266.4,245.7z"/>
	<path fill="#FFFFFF" stroke="#000000" stroke-miterlimit="10" d="M264.5,460L264.5,460L264.5,460L264.5,460z"/>
	<path fill="#FFFFFF" stroke="#000000" stroke-miterlimit="10" d="M261.6,114.5c2,0,3.6,2.7,3.6,6s-1.6,6-3.6,6s-3.6-2.7-3.6-6
		S259.6,114.5,261.6,114.5z"/>
	<path fill="#FFFFFF" stroke="#000000" stroke-miterlimit="10" d="M263.4,291.2l-5.6,9.6l5.3-9.6
		C263.2,291.2,263.3,291.2,263.4,291.2z"/>
	<path fill="#FFFFFF" stroke="#000000" stroke-miterlimit="10" d="M263.4,290.7l-0.3,0.6c-14.3,1.1-39.4-0.5-46.9-22.7
		c-1.6-4.6-2.9-10.2-3-17.1c0.1,6.8,1.4,12.3,3,16.9C223.8,290.6,249.2,291.9,263.4,290.7z"/>
	<path fill="#FFFFFF" stroke="#000000" stroke-miterlimit="10" d="M262.3,50.6c0.2,1.6-0.3,3.2-0.3,4.8l0,0c0,0-1.4,0-2.6,0.1
		c-4.8-5.3-9.4-9-10.2-9.7c-0.1-0.1-0.1-0.1-0.1-0.1c-0.7,1-1.4,2-2.1,3.1c-2,3-3.5,6-4.7,8.9l0,0h-0.1h-0.1c-0.1,0-0.2,0-0.4,0.1
		c-0.7,0.1-1.8,0.4-3.3,0.9c-0.4-1.5-0.8-3.1-1-4.7c-1.2-10.8,3.3-20.4,10.3-21.3C254.7,31.8,261.1,39.8,262.3,50.6z"/>
	<path fill="#FFFFFF" stroke="#000000" stroke-miterlimit="10" d="M259.4,55.6c-0.2,0-0.3,0-0.5,0c-4.8-5.3-9-9-9.8-9.7
		C250,46.5,254.6,50.3,259.4,55.6z"/>
	<path fill="#FFFFFF" stroke="#000000" stroke-miterlimit="10" d="M259,261.4L259,261.4c-0.4,0.8-10.8,18.8-30.6,2.9l0,0
		c4,1.3,6.6,0.8,8.1-0.7c4.4-4.1,6.4,1.4,6.4,1.4c0.9-4.6,6-2.6,7.3-1.8C253.3,265.1,258.7,261.6,259,261.4z"/>
	<path fill="#FFFFFF" stroke="#000000" stroke-miterlimit="10" d="M258.9,70.6c0.7,7.2-1.5,13.4-4.9,13.8s-6.8-5.1-7.5-12.4
		c-0.7-7.2,1.5-13.4,4.9-13.8C254.8,57.8,258.2,63.4,258.9,70.6z"/>
	<path fill="#FFFFFF" stroke="#000000" stroke-miterlimit="10" d="M249.9,114.5c2,0,3.6,2.7,3.6,6s-1.6,6-3.6,6s-3.6-2.7-3.6-6
		S248,114.5,249.9,114.5z"/>
	<path fill="#FFFFFF" stroke="#000000" stroke-miterlimit="10" d="M242.9,365.3c2-8.8,6.8-30,5.3-47.4c1.6,17.5-3.1,38.7-5.1,47.4
		H242.9z"/>
	<path fill="#FFFFFF" stroke="#000000" stroke-miterlimit="10" d="M248.1,317.9c1.5,17.5-3.3,38.6-5.3,47.4h-0.2
		c-0.2,0.9-0.6,1.6-0.6,2.2c0,0.1,0,0.1,0,0.2v4.4c-2,2.9-1.8,6.9-2.7,10.9h-0.1l-2.6-0.1c0.2-1,0.1-2.2-0.2-3.6
		c-1.9-8.4-7.4-15.4-28.5,0c8.7-15.4,7.8-33.5-3.5-31.3c4.7-3.2,12.8-10.8,14.3-17.5l0,0l0,0c3.2-11.7,1.6-16.7-1.4-17.6
		c-0.1,0-0.2-0.1-0.3-0.1c-1-0.3-2.1-0.1-3.3,0.4c-5.8,2.5-10,10.5-11.8,22.5c-0.6,4.1-0.9,8.6-0.9,13.5c-0.2,0.1-0.5,0.3-0.7,0.4
		l-7.1-5.6l-0.1-0.1c-3.9-7.3-2.2-7.7-4.3-12.8c-4.8-11.7,5.4-19.6,11.6-23.3c2.3-1.3,4-1.7,4.3-1.7h0.1l0,0c1-1.7,2-3.2,3-4.5
		c0.4-0.5,0.8-1,1.2-1.5c0.8-1,1.6-1.9,2.4-2.6c6.3-6.3,12.3-6.6,17.4-4.5c0.1,0,0.2,0.1,0.3,0.1c0.3,0.1,0.5,0.2,0.8,0.4l0,0
		c0.6,0.3,1.3,0.7,1.9,1c0.6,0.4,1.2,0.8,1.8,1.2c0.8,0.6,1.6,1.3,2.4,2l0,0c0.3,0.2,0.5,0.5,0.7,0.7c0.8,0.8,1.5,1.6,2.2,2.3
		c0.2,0.2,0.3,0.4,0.5,0.6c0.2,0.2,0.4,0.5,0.6,0.7c0.3,0.3,0.5,0.7,0.8,1c0.2,0.2,0.3,0.4,0.5,0.6c1.5,2.1,2.4,3.6,2.4,3.6h2.4
		c0.2,0.7,0.4,1.3,0.6,2c0.3,1,0.5,2.1,0.7,3.2c0.1,0.4,0.1,0.7,0.2,1.1c0.2,1.1,0.3,2.2,0.5,3.4
		C248.1,317.1,248.1,317.5,248.1,317.9z M213.8,358.2c0,0,28.5-9.2,21.9-22.8C232.2,328.2,225.1,329.5,213.8,358.2z"/>
	<path fill="#FFFFFF" stroke="#000000" stroke-miterlimit="10" d="M248.1,317.9c0-0.4-0.1-0.8-0.1-1.1
		C248.1,317.1,248.1,317.5,248.1,317.9z"/>
	<path fill="#FFFFFF" stroke="#000000" stroke-miterlimit="10" d="M247.6,313.3c-0.1-0.4-0.1-0.7-0.2-1.1
		C247.5,312.6,247.5,313,247.6,313.3z"/>
	<path fill="#FFFFFF" stroke="#000000" stroke-miterlimit="10" d="M246.1,307c0.2,0.7,0.4,1.3,0.6,2
		C246.5,308.3,246.3,307.7,246.1,307z"/>
	<path fill="#FFFFFF" stroke="#000000" stroke-miterlimit="10" d="M259,261.4c-10.4,35.4-29.9,4.2-30.6,2.9
		C248.2,280.2,258.6,262.2,259,261.4z"/>
	<path fill="#FFFFFF" stroke="#000000" stroke-miterlimit="10" d="M247,48.9c-2,3-3.5,6-4.7,8.9l0,0C243.4,54.9,245,51.9,247,48.9z"
		/>
	<path fill="#FFFFFF" stroke="#000000" stroke-miterlimit="10" d="M242.6,365.3h0.2c-0.1,0.4-0.2,0.7-0.2,1.1
		c-0.2,0.9-0.5,0.8-0.6,1.1C242.1,366.9,242.5,366.2,242.6,365.3z"/>
	<path fill="#FFFFFF" stroke="#000000" stroke-miterlimit="10" d="M239.2,87.3c0,0,3.1,2.8,3,4.2c-0.8,16.9-11.8,8-13.7,2.2
		c-0.8-2.5,2.6-6.8,2.6-6.8c-2.7-5.8-6.1-9.1-9.8-10.7c0.9-10.8,11.3-15.6,17-17.5c1.4-0.5,2.5-0.7,3.2-0.9c0.1,0,0.3,0,0.4-0.1h0.1
		h0.1l0,0l0,0C235.2,74.4,239.2,87.3,239.2,87.3z"/>
	<path fill="#FFFFFF" stroke="#000000" stroke-miterlimit="10" d="M242.1,57.8h0.1C242.1,57.8,242.1,57.8,242.1,57.8z"/>
	<path fill="#FFFFFF" stroke="#000000" stroke-miterlimit="10" d="M241.6,57.9c0.1,0,0.3-0.1,0.4-0.1
		C241.9,57.8,241.8,57.8,241.6,57.9z"/>
	<path fill="#FFFFFF" stroke="#000000" stroke-miterlimit="10" d="M238.2,110.3c2,0.3,3.3,3.1,3,6.4c-0.3,3.3-2.2,5.8-4.2,5.5
		c-2-0.3-3.3-3.1-3-6.4C234.4,112.6,236.2,110.1,238.2,110.3z"/>
	<path fill="#FFFFFF" stroke="#000000" stroke-miterlimit="10" d="M240.8,302.8c0.2,0.2,0.3,0.4,0.5,0.6
		C241.2,303.2,241,303,240.8,302.8z"/>
	<path fill="#FFFFFF" stroke="#000000" stroke-miterlimit="10" d="M239.5,301.1c0.2,0.2,0.4,0.5,0.6,0.7
		C239.9,301.5,239.7,301.3,239.5,301.1z"/>
	<path fill="#FFFFFF" stroke="#000000" stroke-miterlimit="10" d="M236.7,382.8l2.6,0.1c-2.4,11.3-7.3,23.1-49.3,12.6l0,0
		c0.1,0,0.3,0,0.4,0c2.3-0.1,3.9-1.4,3.9-1.4c5.5-3.5,9.9-8.5,13.1-13.8c0.2-0.4,0.4-0.7,0.6-1.1c0,0,1.4,0.7,3.6,1.7
		c4.6,2.1,12.7,5.3,18.4,5.5c0.4,0,0.9,0,1.3,0C234.1,386.3,236.2,385.3,236.7,382.8z"/>
	<path fill="#FFFFFF" stroke="#000000" stroke-miterlimit="10" d="M239,300.5c0.2,0.2,0.3,0.4,0.5,0.6
		C239.3,300.9,239.2,300.7,239,300.5z"/>
	<path fill="#FFFFFF" stroke="#000000" stroke-miterlimit="10" d="M236.5,379.1c0.3,1.5,0.4,2.7,0.2,3.6h-0.1
		c-0.5,2.5-2.5,3.5-5.3,3.6c-0.4,0-0.9,0-1.3,0c-5.8-0.3-13.8-3.5-18.4-5.5c-2.2-1-3.6-1.7-3.6-1.7
		C229.1,363.7,234.6,370.8,236.5,379.1z"/>
	<path fill="#FFFFFF" stroke="#000000" stroke-miterlimit="10" d="M236.6,382.8h0.1c-0.5,2.5-2.6,3.5-5.4,3.6
		C234,386.3,236.1,385.3,236.6,382.8z"/>
	<path fill="#FFFFFF" stroke="#000000" stroke-miterlimit="10" d="M236.1,297.5c0.3,0.2,0.5,0.5,0.7,0.7
		C236.6,297.9,236.4,297.7,236.1,297.5z"/>
	<path fill="#FFFFFF" stroke="#000000" stroke-miterlimit="10" d="M235.7,335.5c6.6,13.6-21.9,22.8-21.9,22.8
		C225.1,329.5,232.2,328.2,235.7,335.5z"/>
	<path fill="#FFFFFF" stroke="#000000" stroke-miterlimit="10" d="M233.7,295.4c0.8,0.6,1.7,1.3,2.4,2
		C235.3,296.8,234.5,296.1,233.7,295.4z"/>
	<path fill="#FFFFFF" stroke="#000000" stroke-miterlimit="10" d="M230.1,293.2c0.6,0.3,1.3,0.6,1.9,1
		C231.3,293.8,230.7,293.5,230.1,293.2z"/>
	<path fill="#FFFFFF" stroke="#000000" stroke-miterlimit="10" d="M230.5,108.1c0.3,3.3-1,6.1-3,6.4s-3.9-2.2-4.2-5.5
		c-0.3-3.3,1-6.1,3-6.4C228.3,102.3,230.1,104.8,230.5,108.1z"/>
	<path fill="#FFFFFF" stroke="#000000" stroke-miterlimit="10" d="M229.2,292.8c0.3,0.1,0.5,0.2,0.8,0.4
		C229.8,293,229.5,292.9,229.2,292.8z"/>
	<path fill="#FFFFFF" stroke="#000000" stroke-miterlimit="10" d="M229.2,236.4c0,2.5-1.8,4.5-4,4.5c-2.2,0-4-2-4-4.5s1.8-4.5,4-4.5
		C227.4,231.9,229.2,233.9,229.2,236.4z"/>
	<path fill="#FFFFFF" stroke="#000000" stroke-miterlimit="10" d="M227.6,225.9L227.6,225.9C227.6,226,227.6,226,227.6,225.9z"/>
	<path fill="#FFFFFF" stroke="#000000" stroke-miterlimit="10" d="M227.6,225.7L227.6,225.7c-0.1,0-0.1,0-0.1,0
		c-0.1-0.3-0.2-0.7-0.3-0.9c0-0.1,0-0.1-0.1-0.2h0.1C227.4,225.1,227.5,225.4,227.6,225.7z"/>
	<path fill="#FFFFFF" stroke="#000000" stroke-miterlimit="10" d="M227.5,225.8c0,0.1,0,0.1,0.1,0.1c-4.5,0-8.4,3.1-9.9,7.6
		C219.1,229,223,225.8,227.5,225.8z"/>
	<path fill="#FFFFFF" stroke="#000000" stroke-miterlimit="10" d="M227.2,224.8C227.2,224.8,227.1,224.8,227.2,224.8
		c-1.5-2.8-3.4-4.9-5.5-5.9C223.9,219.9,225.8,222,227.2,224.8z"/>
	<path fill="#FFFFFF" stroke="#000000" stroke-miterlimit="10" d="M224.9,118.1C224.9,118.1,224.8,118.1,224.9,118.1L224.9,118.1
		C224.8,118.1,224.8,118.1,224.9,118.1L224.9,118.1z"/>
	<path fill="#FFFFFF" stroke="#000000" stroke-miterlimit="10" d="M224.9,118.1C224.8,118.1,224.8,118.1,224.9,118.1
		c-0.2-0.1-0.4-0.2-0.6-0.3C224.5,118,224.7,117.9,224.9,118.1z"/>
	<path fill="#FFFFFF" stroke="#000000" stroke-miterlimit="10" d="M224.8,118.1L224.8,118.1c-0.3,0.2-0.6,0.4-0.9,0.6
		C224.2,118.5,224.5,118.4,224.8,118.1z"/>
	<path fill="#FFFFFF" stroke="#000000" stroke-miterlimit="10" d="M229,292.7c-5.1-2.1-11.1-1.8-17.4,4.5
		C217.8,290.9,223.9,290.6,229,292.7z"/>
	<path fill="#FFFFFF" stroke="#000000" stroke-miterlimit="10" d="M222,120c0.6-0.4,1.2-0.9,1.9-1.3
		C223.3,119.2,222.6,119.6,222,120z"/>
	<path fill="#FFFFFF" stroke="#000000" stroke-miterlimit="10" d="M217.4,312.7c3,1,4.6,5.9,1.4,17.6
		C221.3,318.6,220.1,313.7,217.4,312.7z"/>
	<path fill="#FFFFFF" stroke="#000000" stroke-miterlimit="10" d="M217.4,312.7c2.7,1,3.9,5.9,1.4,17.6l0,0l0,0
		c-1.3,4.8-9.5,14.4-14.3,17.5c0,0-1.2,0-3.4,1.2c0-4.9,0.3-9.5,0.9-13.5c1.8-12,6-20,11.8-22.5c1.2-0.5,2.3-0.7,3.3-0.5
		C217.2,312.6,217.3,312.6,217.4,312.7z"/>
	<path fill="#FFFFFF" stroke="#000000" stroke-miterlimit="10" d="M217.8,123.3c0.8-0.6,1.6-1.3,2.5-2
		C219.4,122,218.5,122.6,217.8,123.3z"/>
	<path fill="#FFFFFF" stroke="#000000" stroke-miterlimit="10" d="M214.6,86.8c2,2.6,3.2,5.4,3.1,7.4c-0.1-2-1.2-4.8-3.1-7.3
		c-2.9-3.7-6.6-5.6-8.2-4.1c-0.1,0.1-0.1,0.1-0.2,0.1c0-0.1,0.1-0.2,0.2-0.2C208,81.3,211.7,83.1,214.6,86.8z"/>
	<path fill="#FFFFFF" stroke="#000000" stroke-miterlimit="10" d="M217.8,94.2c0,0.5-0.1,1-0.3,1.4c-0.1,0.3-0.3,0.5-0.4,0.6
		c-1.1,1-3,0.5-5-0.9c-1.1-0.8-2.2-1.8-3.2-3.1c-2.8-3.5-3.9-7.5-2.6-9.2c0,0,0,0,0-0.1c0.1,0,0.1-0.1,0.2-0.1
		c1.6-1.5,5.3,0.4,8.2,4.1C216.6,89.5,217.7,92.2,217.8,94.2z"/>
	<path fill="#FFFFFF" stroke="#000000" stroke-miterlimit="10" d="M217.1,312.6c-1-0.2-2.1,0-3.3,0.5c-5.7,2.5-10,10.5-11.8,22.5
		c1.8-12,6-20,11.8-22.5C215,312.5,216.1,312.3,217.1,312.6z"/>
	<path fill="#FFFFFF" stroke="#000000" stroke-miterlimit="10" d="M215.6,125.2c0.5-0.4,0.9-0.8,1.4-1.3
		C216.5,124.4,216,124.8,215.6,125.2z"/>
	<path fill="#FFFFFF" stroke="#000000" stroke-miterlimit="10" d="M215.2,227.2L215.2,227.2c-2.8,1.9-6.8,2.6-12.3-0.1
		c0,0-2.5-2-5.8-5.8c3.3,3.7,5.8,5.7,5.8,5.7C208.5,229.7,212.4,229,215.2,227.2z"/>
	<path fill="#FFFFFF" stroke="#000000" stroke-miterlimit="10" d="M214.9,228.8L214.9,228.8c-0.1,0.6-0.2,1.2-0.2,1.7
		C214.8,229.9,214.8,229.4,214.9,228.8L214.9,228.8z"/>
	<path fill="#FFFFFF" stroke="#000000" stroke-miterlimit="10" d="M204.5,347.9c4.7-3.2,12.9-12.7,14.3-17.5
		C217.4,337,209.3,344.7,204.5,347.9z"/>
	<path fill="#FFFFFF" stroke="#000000" stroke-miterlimit="10" d="M224.3,471.9c-9.6,1.699-20.7,3-33.4,3.899c-0.3,0-0.5,0-0.7,0
		c0,0,0,0,0.1,0C202.9,474.9,214.5,473.6,224.3,471.9z"/>
	<path fill="#FFFFFF" stroke="#000000" stroke-miterlimit="10" d="M211.6,380.8c4.6,2,12.6,5.3,18.4,5.5
		C224.2,386.1,216.2,382.9,211.6,380.8z"/>
	<path fill="#FFFFFF" stroke="#000000" stroke-miterlimit="10" d="M204.5,347.9c11.2-2.3,12.1,15.9,3.5,31.3
		c-0.2,0.4-0.4,0.7-0.6,1.1c-3.2,5.3-7.8,10.3-13.3,13.8c0,0-2.1,1.3-4.1,1.4l0,0c-2.5,0-5.7-1.6-8.1-8c0,0,18.5-7.2,18.5-37.9
		c0.3-0.1,0.5-0.3,0.7-0.4C201.2,349.7,202.6,349.2,204.5,347.9z"/>
	<path fill="#FFFFFF" stroke="#000000" stroke-miterlimit="10" d="M209.1,299.9c-0.4,0.5-0.8,1-1.2,1.5
		C208.3,300.8,208.7,300.3,209.1,299.9z"/>
	<path fill="#FFFFFF" stroke="#000000" stroke-miterlimit="10" d="M208,133C208,133,208,133.1,208,133c-0.6,0.6-1.2,1.2-1.8,1.8
		C206.7,134.2,207.3,133.6,208,133L208,133z"/>
	<path fill="#FFFFFF" stroke="#000000" stroke-miterlimit="10" d="M204.9,305.9L204.9,305.9L204.9,305.9L204.9,305.9z"/>
	<path fill="#FFFFFF" stroke="#000000" stroke-miterlimit="10" d="M201.1,349c2.3-1.2,3.4-1.2,3.4-1.2
		C203.5,348.1,202.4,348.5,201.1,349z"/>
	<path fill="#FFFFFF" stroke="#000000" stroke-miterlimit="10" d="M207.4,380.2c-3.2,5.3-7.6,10.3-13.1,13.8c0,0-1.6,1.3-3.9,1.4
		c-0.1,0-0.3,0-0.4,0l0,0c2-0.1,4.1-1.4,4.1-1.4C199.6,390.5,204.2,385.6,207.4,380.2z"/>
	<path fill="#FFFFFF" stroke="#000000" stroke-miterlimit="10" d="M201.1,349c1.2-0.6,2.4-1,3.4-1.2
		C202.6,349.2,201.2,349.7,201.1,349C201.1,349.1,201.1,349.1,201.1,349z"/>
	<path fill="#FFFFFF" stroke="#000000" stroke-miterlimit="10" d="M201.1,349C201.1,349.1,201.1,349.1,201.1,349
		c-0.2,0.2-0.5,0.3-0.7,0.5c0,0,0,0,0-0.1C200.6,349.3,200.9,349.2,201.1,349z"/>
	<path fill="#FFFFFF" stroke="#000000" stroke-miterlimit="10" d="M200.4,349.4C200.4,349.5,200.4,349.5,200.4,349.4l-7.1-5.5
		c0-0.1-0.1-0.1-0.1-0.2l0.1,0.1L200.4,349.4z"/>
	<path fill="#FFFFFF" stroke="#000000" stroke-miterlimit="10" d="M193.3,344l7.1,5.5c0,30.8-18.5,37.9-18.5,37.9
		c-5.8-1.4-10.3-5.2-10.3-5.2c-20.7-15.8-28.3-38-32.5-46.8c-0.6-1.3-0.9-2-0.9-2c-7.9-5.4,2.4-6.9,2.4-6.9
		c13.8-2.2,17.9-10.1,17.9-10.1l34.7,27.3C193.2,343.8,193.3,343.9,193.3,344z"/>
	<path fill="#FFFFFF" stroke="#000000" stroke-miterlimit="10" d="M194.4,217.9c1,1.3,1.9,2.4,2.8,3.4
		C196.3,220.3,195.3,219.1,194.4,217.9z"/>
	<path fill="#FFFFFF" stroke="#000000" stroke-miterlimit="10" d="M191.4,213.7c1,1.5,2,2.9,2.9,4.1
		C193.4,216.6,192.4,215.2,191.4,213.7z"/>
	<path fill="#FFFFFF" stroke="#000000" stroke-miterlimit="10" d="M189.5,210.6c0.6,1.1,1.3,2.1,1.9,3.1
		C190.8,212.7,190.1,211.7,189.5,210.6z"/>
	<path fill="#FFFFFF" stroke="#000000" stroke-miterlimit="10" d="M188.5,208.9c0.3,0.6,0.6,1.1,0.9,1.7
		C189.1,210,188.8,209.5,188.5,208.9z"/>
	<path fill="#FFFFFF" stroke="#000000" stroke-miterlimit="10" d="M186.3,204.4c0.7,1.6,1.4,3.1,2.2,4.5
		C187.8,207.5,187,206,186.3,204.4z"/>
	<path fill="#FFFFFF" stroke="#000000" stroke-miterlimit="10" d="M185.2,201.5c0.4,1,0.8,1.9,1.2,2.9
		C185.9,203.4,185.5,202.5,185.2,201.5z"/>
	<path fill="#FFFFFF" stroke="#000000" stroke-miterlimit="10" d="M184.5,199.4c0.2,0.7,0.5,1.4,0.7,2
		C184.9,200.8,184.7,200.1,184.5,199.4z"/>
	<path fill="#FFFFFF" stroke="#000000" stroke-miterlimit="10" d="M146,308c17.5-8.4,12.5,8.4,12.5,8.4s-4.2,8-17.9,10.1
		c0,0-10.3,1.5-2.4,6.9c0,0,0.3,0.7,0.9,2c-24.4-4.8-18.5-12.9-14-15.1c1.9-0.9,3.5-1.7,5.1-2.5c7.6-3.9,12-6.9,14.1-8.6
		c0.5-0.4,0.9-0.7,1.2-0.9C145.9,308.2,146,308,146,308L146,308z"/>
	<path fill="#FFFFFF" stroke="#000000" stroke-miterlimit="10" d="M146,308L146,308c0,0-0.1,0.2-0.5,0.4
		C145.8,308.2,146,308,146,308L146,308z"/>
	<path fill="#FFFFFF" stroke="#000000" stroke-miterlimit="10" d="M55.9,630.8c21.5,59.8,84.3,83.5,104.4,89.601
		c-20.1-6.101-82.9-29.7-104.6-89.2C55.9,630.9,55.9,630.8,55.9,630.8z"/>
	<path fill="#FFFFFF" stroke="#000000" stroke-miterlimit="10" d="M98.2,285.1c0,0,0,0.3,0,0.6C98.2,285.3,98.2,285.1,98.2,285.1
		c-0.1-0.5-0.4-1-0.8-1.4C97.8,284.1,98.1,284.5,98.2,285.1z"/>
	<path fill="#FFFFFF" stroke="#000000" stroke-miterlimit="10" d="M98.2,285.1c0,0,0,0.3,0,0.6c-0.1,0.8-0.3,2.1-0.8,2.3
		c-1.1,0.5-2.4,0.8-5.7,0.4c-2.3-1-4.8-3.4-3.6-5.6c0.9-1.7,4.4-1.8,4.6-1.8l0,0c0,0,2.9,1,4.5,2.4c0.1,0.1,0.1,0.1,0.2,0.2
		C97.8,284.1,98.1,284.5,98.2,285.1z"/>
	<path fill="#FFFFFF" stroke="#000000" stroke-miterlimit="10" d="M97.4,283.6c-0.1-0.1-0.1-0.1-0.2-0.2
		C97.3,283.5,97.4,283.6,97.4,283.6z"/>
	<path fill="#FFFFFF" stroke="#000000" stroke-miterlimit="10" d="M76.4,293.9c0,0,0.4,1.2,0.1,2.2c-5.1-2.5-10.1-4-10.2-5.5
		c0,0,1.8,0.1,3.8,0.5C72.8,291.6,76.1,292.5,76.4,293.9z"/>
	<path fill="#FFFFFF" stroke="#000000" stroke-miterlimit="10" d="M67.6,303.8c5.6,0.7,6.2,3.3,6.2,3.3s-0.3,0-0.9-0.1
		c-0.3-0.5-1.7-2.6-7-3.2l0,0v-0.1C66.6,303.7,67.1,303.7,67.6,303.8z"/>
	<path fill="#FFFFFF" stroke="#000000" stroke-miterlimit="10" d="M66,303.8c5.3,0.6,6.7,2.7,7,3.2c-2.1-0.3-7.2-1.3-7.8-3.4
		c0.3,0,0.6,0,0.9,0C66,303.7,66,303.7,66,303.8L66,303.8z"/>
	<path fill="#FFFFFF" stroke="#000000" stroke-miterlimit="10" d="M69.8,300.9c0,0-0.1,0-0.3,0c0-0.1,0-0.5-0.3-1
		C69.7,300.5,69.8,300.9,69.8,300.9z"/>
	<path fill="#FFFFFF" stroke="#000000" stroke-miterlimit="10" d="M69.2,299.9c0.3,0.5,0.3,0.9,0.3,1c-1.5-0.2-7.7-1.1-8.4-3.5
		c0.7,0,1.3,0.1,1.9,0.1l0,0l0,0c1.5,0.2,2.7,0.4,3.6,0.7c0.1,0,0.2,0.1,0.3,0.1C68.1,298.8,68.8,299.4,69.2,299.9z"/>
	<path fill="#FFFFFF" stroke="#000000" stroke-miterlimit="10" d="M69.2,299.9c-0.4-0.5-1.1-1-2.3-1.5
		C68.3,298.8,68.9,299.4,69.2,299.9z"/>
	<path fill="#FFFFFF" stroke="#000000" stroke-miterlimit="10" d="M26.5,504.7c0,0,47.5,56.6,37.5,109.8l0,0
		c-1.3,3.1-2.8,5.9-4.1,8.2c-0.3,0.5-0.5,0.899-0.8,1.3c-0.4,0.7-0.8,1.4-1.1,2l0,0c-9.4-7.7-2-20.3-2-20.3
		c-14.6-16.8,0-25.601,0-25.601c-15.1-3.899-10.4-19.8-10.4-19.8C28.4,555.9,38.2,539.9,38.2,539.9C21.8,536.6,24,519.5,24,519.5
		C17.3,505.2,26.5,504.7,26.5,504.7z"/>
	<path fill="#FFFFFF" stroke="#000000" stroke-miterlimit="10" d="M59.9,622.7c-0.3,0.5-0.5,0.899-0.8,1.3
		C59.3,623.6,59.6,623.1,59.9,622.7z"/>
	<path fill="#FFFFFF" stroke="#000000" stroke-miterlimit="10" d="M58.4,626.3h-0.6c0.1-0.1,0.1-0.2,0.2-0.399
		C58.1,626.1,58.2,626.2,58.4,626.3z"/>
	<path fill="#FFFFFF" stroke="#000000" stroke-miterlimit="10" d="M59.1,624c-0.4,0.7-0.8,1.4-1.1,2C58.3,625.4,58.7,624.7,59.1,624
		z"/>
	<path fill="#FFFFFF" stroke="#000000" stroke-miterlimit="10" d="M57.9,626c-0.1,0.1-0.1,0.3-0.2,0.4l0,0
		C57.8,626.2,57.9,626.1,57.9,626L57.9,626z"/>
</g>
<g id="LINE">
	<g>
		<path d="M238.7,234.5c0.5,1.6,0.9,3.2,1.2,4.8c0.1,0.4,0.1,0.8,0.2,1.2c0,0.4,0.1,0.8,0.1,1.3c0,0.4,0,0.8,0,1.3l-0.1,0.6
			l-0.2,0.6l0,0l0,0c-0.3,0.3-0.7,0.7-0.9,1.1c-0.3,0.4-0.6,0.8-0.8,1.2c-0.2,0.4-0.4,0.9-0.5,1.3c-0.1,0.2-0.1,0.5-0.1,0.7
			c0,0.2-0.1,0.5,0,0.7c0,0.2,0,0.5,0.1,0.7c0.1,0.2,0.1,0.5,0.3,0.6l0.4,0.6l0.5,0.5c0.4,0.3,0.8,0.5,1.2,0.8l1.4,0.6l-1.4-0.5
			l-0.6-0.4c-0.2-0.1-0.4-0.2-0.6-0.4l-0.6-0.5c-0.2-0.2-0.3-0.4-0.5-0.6c-0.2-0.2-0.2-0.5-0.3-0.7s-0.1-0.5-0.2-0.7
			c-0.1-0.3,0-0.5,0-0.8s0.1-0.5,0.1-0.8c0.1-0.5,0.3-1,0.5-1.4c0.2-0.5,0.5-0.9,0.8-1.3c0.3-0.4,0.6-0.8,1-1.2l-0.1,0.1l0.1-0.5
			l0.1-0.6c0-0.4,0-0.8,0-1.2s-0.1-0.8-0.1-1.2c-0.1-0.4-0.1-0.8-0.2-1.2c-0.3-1.6-0.8-3.1-1.4-4.7H238.7z"/>
	</g>
	<g>
		<path d="M244.6,252.2c0,0,0-0.1,0.1-0.3c0.1-0.2,0.1-0.4,0.3-0.7c0.1-0.1,0.2-0.3,0.3-0.4c0.1-0.1,0.3-0.3,0.4-0.4
			c0.2-0.1,0.4-0.2,0.6-0.2c0.2,0,0.4,0,0.6,0.1c0.2,0,0.4,0.2,0.5,0.3c0.2,0.1,0.3,0.2,0.4,0.3c0.3,0.2,0.5,0.5,0.6,0.7
			c0.3,0.4,0.5,0.7,0.5,0.7s-0.3-0.2-0.7-0.6c-0.2-0.1-0.4-0.4-0.7-0.5c-0.1-0.1-0.3-0.2-0.4-0.2c-0.2,0-0.3-0.1-0.4-0.1
			c-0.2,0-0.3,0-0.4,0c-0.1,0-0.2,0.1-0.3,0.2s-0.2,0.2-0.2,0.3c-0.1,0.1-0.1,0.2-0.1,0.3c-0.1,0.2-0.1,0.4-0.1,0.5
			c0,0.1,0,0.2,0,0.2L244.6,252.2z"/>
	</g>
	<g>
		<path d="M295.4,207.9c0,0-1-1.9-2.301-4.9c-0.3-0.7-0.699-1.5-1-2.4c-0.3-0.9-0.699-1.8-1-2.7c-0.3-0.9-0.6-1.9-1-2.9
			c-0.3-1-0.6-2.1-0.899-3.1c-0.2-1-0.5-2.1-0.7-3.1s-0.4-2.1-0.5-3.1s-0.3-2-0.3-2.9c0-0.9-0.101-1.8-0.101-2.6
			c0-0.8,0.101-1.5,0.101-2.2s0.1-1.2,0.2-1.7c0.1-0.9,0.199-1.5,0.199-1.5s-0.1,0.5-0.199,1.5c0,0.5-0.101,1-0.101,1.7
			c0,0.6,0,1.4,0,2.2c0,0.8,0.101,1.7,0.2,2.6c0.1,0.9,0.2,1.9,0.4,2.9c0.1,1,0.399,2,0.6,3s0.5,2,0.8,3.1c0.3,1,0.601,2,0.9,3
			s0.7,2,1,2.9c0.3,0.9,0.7,1.8,1.1,2.7c0.3,0.8,0.7,1.6,1,2.4c1.3,2.9,2.4,4.7,2.4,4.7L295.4,207.9z"/>
	</g>
	<g>
		<path d="M272.4,207.8c0,0-0.1-0.2-0.2-0.6c-0.2-0.4-0.4-1-0.6-1.8c-0.3-0.8-0.5-1.7-0.9-2.8c-0.3-1.1-0.7-2.3-1-3.7
			c-0.3-1.4-0.7-2.8-1-4.4c-0.3-1.6-0.6-3.2-0.9-5c-0.3-1.7-0.4-3.5-0.6-5.4c-0.1-1.8-0.3-3.7-0.3-5.6s-0.1-3.7,0.1-5.6
			c0.1-0.9,0.1-1.8,0.2-2.7c0.1-0.9,0.2-1.8,0.3-2.6c0.1-0.9,0.2-1.7,0.4-2.6c0.1-0.8,0.3-1.6,0.5-2.4c0.4-1.6,0.6-3.1,1.1-4.4
			c0.4-1.3,0.8-2.6,1.2-3.6c0.5-1,0.8-2,1.2-2.7c0.6-1.5,1-2.3,1-2.3s-0.4,0.9-1,2.4c-0.3,0.8-0.7,1.7-1.1,2.7
			c-0.3,1.1-0.7,2.3-1.1,3.6c-0.5,1.3-0.7,2.8-1,4.4c-0.1,0.8-0.4,1.6-0.5,2.4c-0.1,0.8-0.2,1.7-0.3,2.5c-0.1,0.9-0.2,1.7-0.3,2.6
			c0,0.9-0.1,1.8-0.1,2.7c-0.1,1.8,0,3.7,0,5.5c0,1.9,0.2,3.7,0.4,5.5c0.2,1.8,0.4,3.6,0.7,5.3c0.3,1.7,0.6,3.4,0.9,4.9
			c0.3,1.6,0.7,3,1,4.4c0.3,1.3,0.7,2.6,1,3.6c0.4,1.1,0.6,2,0.9,2.8c0.3,0.8,0.5,1.4,0.6,1.8c0.2,0.4,0.2,0.6,0.2,0.6L272.4,207.8z
			"/>
	</g>
	<g>
		<path d="M246.6,212.8c0,0-0.6-1.4-1.3-3.8c-0.7-2.4-1.6-6-2.3-10.3c-0.4-2.1-0.6-4.5-0.8-7c-0.2-2.5-0.3-5.1-0.3-7.8
			c0-1.4,0.1-2.7,0.1-4.1c0.1-1.4,0.1-2.8,0.3-4.2c0.1-1.4,0.3-2.8,0.5-4.3c0.2-1.4,0.4-2.9,0.7-4.3c0.5-2.8,1.2-5.7,1.9-8.4
			c0.4-1.4,0.8-2.7,1.2-4.1c0.4-1.3,0.9-2.6,1.3-3.9c0.9-2.5,1.9-5,2.9-7.2c0.5-1.1,1-2.2,1.5-3.3c0.5-1,1-2.1,1.5-3
			c1-1.9,1.9-3.7,2.9-5.2c0.9-1.5,1.7-2.8,2.4-3.9c1.4-2.1,2.2-3.3,2.2-3.3s-0.8,1.2-2.1,3.3c-0.7,1-1.4,2.4-2.3,3.9
			s-1.8,3.3-2.8,5.2c-0.5,1-1,2-1.5,3s-1,2.1-1.5,3.3c-1,2.3-1.9,4.7-2.8,7.3c-0.4,1.3-0.9,2.6-1.3,3.9c-0.4,1.3-0.8,2.7-1.1,4.1
			c-0.7,2.7-1.3,5.6-1.8,8.4c-0.2,1.4-0.5,2.8-0.6,4.3c-0.2,1.4-0.3,2.8-0.4,4.3c-0.1,1.4-0.2,2.8-0.2,4.2s-0.1,2.8,0,4.1
			c0,2.7,0.2,5.3,0.4,7.8c0.2,2.5,0.5,4.8,0.9,6.9c0.7,4.2,1.6,7.7,2.4,10.1c0.7,2.4,1.3,3.7,1.3,3.7L246.6,212.8z"/>
	</g>
	<g>
		<path d="M219.6,218.6c0,0-1.3-2.4-2.8-6.1c-0.8-1.9-1.5-4.1-2.3-6.4c-0.4-1.2-0.7-2.5-1-3.7c-0.3-1.3-0.6-2.6-0.8-3.9
			c-0.2-1.3-0.4-2.6-0.5-3.9c-0.1-1.3-0.3-2.6-0.2-3.8c0-0.6,0-1.2,0-1.8s0.1-1.2,0.1-1.8c0.1-1.1,0.1-2.2,0.3-3.2
			c0.1-1,0.3-1.9,0.4-2.7c0.2-0.8,0.4-1.5,0.5-2c0.3-1.1,0.5-1.8,0.5-1.8s-0.1,0.6-0.4,1.8c-0.1,0.6-0.3,1.3-0.5,2
			c-0.1,0.8-0.2,1.7-0.3,2.7c-0.2,1-0.2,2.1-0.2,3.2c0,0.6-0.1,1.2,0,1.7c0,0.6,0.1,1.2,0.1,1.8c0,1.2,0.2,2.5,0.3,3.8
			c0.1,1.3,0.4,2.6,0.6,3.9c0.2,1.3,0.6,2.6,0.9,3.8c0.4,1.2,0.7,2.5,1.1,3.7c0.8,2.4,1.6,4.5,2.4,6.3c1.6,3.6,2.9,5.9,2.9,5.9
			L219.6,218.6z"/>
	</g>
	<g>
		<path d="M78.5,297.2c0,0,0.7,0.3,1.9,0.8c0.6,0.2,1.2,0.5,1.9,0.8c0.3,0.2,0.7,0.2,1.1,0.4c0.4,0.1,0.8,0.2,1.1,0.4
			c3.1,1,6.1,2,6.1,2s-3.1-0.9-6.2-1.9c-0.4-0.1-0.8-0.2-1.2-0.4c-0.4-0.1-0.8-0.2-1.1-0.4c-0.7-0.3-1.4-0.5-1.9-0.8
			c-1.1-0.4-1.9-0.7-1.9-0.7L78.5,297.2z"/>
	</g>
	<g>
		<path d="M72.7,301.4c0,0,0.8,0.3,2.1,0.6c1.2,0.4,2.9,0.9,4.6,1.3c0.8,0.2,1.7,0.5,2.5,0.7c0.8,0.2,1.5,0.4,2.2,0.5
			c1.3,0.3,2.1,0.5,2.1,0.5s-0.9-0.2-2.1-0.5c-0.6-0.2-1.4-0.3-2.2-0.5c-0.8-0.2-1.6-0.4-2.5-0.6c-1.7-0.4-3.4-0.9-4.7-1.2
			c-1.3-0.4-2.1-0.6-2.1-0.6L72.7,301.4z"/>
	</g>
	<g>
		<path d="M427.8,467.5c0,0-0.1,0.1-0.2,0.2c-0.1,0.1-0.3,0.399-0.5,0.6c-0.199,0.3-0.399,0.7-0.6,1.101
			c-0.3,0.399-0.5,0.899-0.7,1.5c-0.2,0.6-0.5,1.199-0.7,1.8c-0.199,0.7-0.399,1.399-0.6,2.1s-0.3,1.5-0.5,2.3
			c-0.1,0.801-0.3,1.601-0.4,2.4c-0.1,0.8-0.199,1.6-0.199,2.4c-0.101,0.8-0.101,1.6-0.2,2.3c-0.101,0.8-0.101,1.5-0.101,2.2
			c0,0.699,0,1.399,0,2c0,2.399,0,4.1,0,4.1s0-1.6,0-4.1c0-0.601,0-1.301,0-2c0-0.7,0-1.4,0.101-2.2c0.1-0.8,0.1-1.5,0.2-2.3
			c0.1-0.801,0.1-1.601,0.199-2.4c0.101-0.8,0.301-1.6,0.4-2.4c0.1-0.8,0.2-1.6,0.4-2.3c0.199-0.7,0.399-1.5,0.6-2.1
			c0.1-0.7,0.5-1.3,0.7-1.9c0.2-0.6,0.399-1.1,0.7-1.5c0.3-0.399,0.399-0.8,0.6-1.1s0.4-0.5,0.5-0.7c0.1-0.1,0.2-0.2,0.2-0.2
			L427.8,467.5z"/>
	</g>
	<path fill="none" stroke="#000000" stroke-width="0.25" stroke-miterlimit="10" d="M445.9,481.9c0,0,4-12.9-1.301-18.4"/>
	<path fill="none" stroke="#000000" stroke-width="0.25" stroke-miterlimit="10" d="M439.2,484.3c0,0,5.1-9.3,0-21.5"/>
	<path fill="none" stroke="#000000" stroke-width="0.25" stroke-miterlimit="10" d="M452.7,472.1c0,0-0.8-9.8-4.5-13.399"/>
	<g>
		<path d="M420.4,473.6c0,0-0.101,0.601-0.5,1.7c-0.2,0.5-0.5,1.2-0.9,1.9c-0.2,0.399-0.4,0.7-0.7,1.1c-0.3,0.4-0.5,0.8-0.8,1.101
			c-0.3,0.399-0.7,0.699-1,1.1c-0.4,0.4-0.8,0.7-1.3,1.1c-0.4,0.4-0.9,0.7-1.4,1c-0.5,0.301-1,0.7-1.6,0.9
			c-0.601,0.2-1.101,0.5-1.7,0.7s-1.2,0.3-1.8,0.5c-1.2,0.399-2.5,0.5-3.8,0.6l-1,0.101h-1c-0.7,0-1.301,0-1.9,0h-1
			c-0.3,0-0.6-0.101-0.9-0.101c-0.6-0.1-1.199-0.1-1.899-0.2c-0.601-0.1-1.2-0.1-1.8-0.199c-0.601-0.101-1.101-0.2-1.7-0.4
			c-1.101-0.2-2.101-0.5-3.101-0.7s-1.8-0.5-2.6-0.7c-0.8-0.199-1.4-0.399-2-0.6c-1.1-0.3-1.7-0.5-1.7-0.5l0,0
			c0,0,0.601,0.2,1.7,0.5c0.5,0.2,1.2,0.3,2,0.6c0.8,0.2,1.6,0.5,2.6,0.7s2,0.4,3.101,0.601c0.5,0.1,1.1,0.199,1.7,0.3
			c0.6,0.1,1.199,0.1,1.8,0.2c0.6,0.1,1.2,0.1,1.8,0.199c0.3,0,0.6,0.101,0.9,0.101h1c0.6,0,1.3,0,1.899,0h1l1-0.101
			c1.3-0.1,2.601-0.199,3.8-0.6c0.601-0.2,1.301-0.3,1.801-0.5c0.6-0.2,1.199-0.5,1.699-0.7c0.601-0.2,1.101-0.6,1.601-0.8
			c0.5-0.3,1-0.6,1.399-1c0.4-0.4,0.9-0.7,1.301-1c0.399-0.4,0.699-0.8,1-1.1c0.3-0.4,0.6-0.801,0.899-1.101s0.5-0.7,0.7-1.1
			c0.4-0.7,0.7-1.3,0.9-1.8C420.3,474.2,420.4,473.6,420.4,473.6L420.4,473.6z"/>
	</g>
	<g>
		<path d="M269.9,222.2c0,0,0.6,0.1,1.6,0c0.5,0,1-0.1,1.6-0.3c0.3-0.1,0.6-0.2,0.9-0.3s0.6-0.3,0.8-0.5c0.3-0.2,0.5-0.4,0.7-0.6
			s0.4-0.5,0.6-0.7c0.2-0.2,0.3-0.5,0.5-0.8c0.2-0.2,0.2-0.5,0.3-0.7c0.2-0.5,0.3-0.9,0.3-1.1c0.1-0.3,0.1-0.4,0.1-0.4
			s0,0.2-0.1,0.5c0,0.3-0.1,0.7-0.2,1.2c-0.1,0.2-0.1,0.5-0.3,0.8c-0.1,0.3-0.2,0.6-0.4,0.8c-0.2,0.3-0.3,0.6-0.6,0.8
			c-0.2,0.3-0.4,0.5-0.7,0.7c-0.3,0.2-0.5,0.4-0.8,0.6c-0.3,0.2-0.6,0.3-0.9,0.5c-0.6,0.2-1.2,0.4-1.7,0.5c-0.5,0.1-1,0.1-1.3,0.1
			c-0.3,0-0.5,0-0.5,0L269.9,222.2z"/>
	</g>
	<g>
		<path d="M268,220.2c0,0,0.1,0,0.4,0.1c0.2,0.1,0.6,0.1,1,0.2s0.9,0.1,1.4,0.1c0.2,0,0.5,0,0.8-0.1c0.3,0,0.5-0.1,0.8-0.2
			c0.2-0.1,0.5-0.2,0.7-0.4l0.3-0.3l0.2-0.3c0.2-0.2,0.2-0.5,0.3-0.7c0.1-0.2,0.1-0.5,0.1-0.7c0.1-0.4,0-0.8,0-1c0-0.2,0-0.4,0-0.4
			s0,0.1,0.1,0.4c0,0.2,0.2,0.6,0.2,1c0,0.2,0.1,0.5,0,0.7c-0.1,0.2-0.1,0.5-0.2,0.8c-0.1,0.1-0.1,0.3-0.2,0.4l-0.3,0.3
			c-0.2,0.2-0.5,0.4-0.7,0.6c-0.3,0.1-0.6,0.3-0.9,0.3c-0.3,0.1-0.6,0.1-0.9,0.2c-0.6,0.1-1.1,0.1-1.5,0c-0.4,0-0.8-0.1-1.1-0.1
			s-0.4-0.1-0.4-0.1L268,220.2z"/>
	</g>
	<g>
		<path d="M272,224.2c0,0,0.5,0,1.4-0.1c0.8-0.1,1.9-0.3,2.9-0.6c0.5-0.2,1-0.4,1.5-0.6c0.2-0.1,0.4-0.2,0.6-0.4
			c0.1-0.1,0.2-0.1,0.3-0.2c0.1-0.1,0.1-0.2,0.2-0.2c0.1-0.1,0.2-0.3,0.3-0.5c0.1-0.1,0.1-0.3,0.1-0.4c0-0.2,0-0.4,0-0.4
			s0,0.1,0,0.4c0,0.1,0,0.3-0.1,0.4c0,0.2-0.1,0.4-0.2,0.5s-0.1,0.2-0.2,0.3c-0.1,0.1-0.2,0.2-0.2,0.3c-0.2,0.2-0.4,0.3-0.6,0.5
			c-0.4,0.3-0.9,0.6-1.5,0.8c-2.1,0.9-4.4,1.3-4.4,1.3L272,224.2z"/>
	</g>
	<g>
		<path d="M225.8,224.8c0,0,0.6,0.1,1.6,0c0.5,0,1-0.1,1.6-0.3c0.3-0.1,0.6-0.2,0.9-0.3c0.3-0.1,0.6-0.3,0.8-0.5
			c0.3-0.2,0.5-0.4,0.7-0.6c0.2-0.2,0.4-0.5,0.6-0.7c0.2-0.2,0.3-0.5,0.5-0.8c0.2-0.2,0.2-0.5,0.3-0.7c0.2-0.5,0.3-0.9,0.3-1.1
			c0.1-0.3,0.1-0.4,0.1-0.4s0,0.2-0.1,0.5c0,0.3-0.1,0.7-0.2,1.2c-0.1,0.2-0.1,0.5-0.3,0.8c-0.1,0.3-0.2,0.6-0.4,0.8
			c-0.2,0.3-0.3,0.6-0.6,0.8c-0.2,0.3-0.4,0.5-0.7,0.7c-0.3,0.2-0.5,0.4-0.8,0.6c-0.3,0.2-0.6,0.3-0.9,0.5c-0.6,0.2-1.2,0.4-1.7,0.5
			c-0.5,0.1-1,0.1-1.3,0.1c-0.3,0-0.5,0-0.5,0L225.8,224.8z"/>
	</g>
	<g>
		<path d="M223.8,222.9c0,0,0.1,0,0.4,0.1c0.2,0.1,0.6,0.1,1,0.2c0.4,0.1,0.9,0.1,1.4,0.1c0.2,0,0.5,0,0.8-0.1
			c0.3,0,0.5-0.1,0.8-0.2c0.2-0.1,0.5-0.2,0.7-0.4l0.3-0.3l0.2-0.3c0.2-0.2,0.2-0.5,0.3-0.7c0.1-0.2,0.1-0.5,0.1-0.7
			c0.1-0.4,0-0.8,0-1c0-0.2,0-0.4,0-0.4s0,0.1,0.1,0.4c0,0.2,0.2,0.6,0.2,1c0,0.2,0.1,0.5,0,0.7c-0.1,0.2-0.1,0.5-0.2,0.8
			c-0.1,0.1-0.1,0.3-0.2,0.4l-0.3,0.3c-0.2,0.2-0.5,0.4-0.7,0.6c-0.3,0.1-0.6,0.3-0.9,0.3c-0.3,0.1-0.6,0.1-0.9,0.2
			c-0.6,0.1-1.1,0.1-1.5,0c-0.4,0-0.8-0.1-1.1-0.1c-0.3,0-0.4-0.1-0.4-0.1L223.8,222.9z"/>
	</g>
	<g>
		<path d="M227.8,226.8c0,0,0.5,0,1.4-0.1c0.8-0.1,1.9-0.3,2.9-0.6c0.5-0.2,1-0.4,1.5-0.6c0.2-0.1,0.4-0.2,0.6-0.4
			c0.1-0.1,0.2-0.1,0.3-0.2s0.1-0.2,0.2-0.2c0.1-0.1,0.2-0.3,0.3-0.5c0.1-0.1,0.1-0.3,0.1-0.4c0-0.2,0-0.4,0-0.4s0,0.1,0,0.4
			c0,0.1,0,0.3-0.1,0.4c0,0.2-0.1,0.4-0.2,0.5c-0.1,0.1-0.1,0.2-0.2,0.3s-0.2,0.2-0.2,0.3c-0.2,0.2-0.4,0.3-0.6,0.5
			c-0.4,0.3-0.9,0.6-1.5,0.8c-2.1,0.9-4.4,1.3-4.4,1.3L227.8,226.8z"/>
	</g>
	<g>
		<path d="M414.4,270.7c0,0,0.899,3.2,1.699,8c0.4,2.4,0.801,5.3,0.9,8.4c0.1,1.5,0.1,3.1,0.1,4.7c-0.1,1.6-0.1,3.3-0.399,4.9
			c-0.2,1.6-0.5,3.2-1,4.8c-0.5,1.5-1,3.1-1.7,4.4c-0.7,1.4-1.5,2.6-2.4,3.7c-0.5,0.5-1,1-1.399,1.5c-0.5,0.4-1,0.8-1.5,1.2
			c-0.5,0.3-1,0.6-1.5,0.9c-0.5,0.2-1,0.5-1.4,0.7c-0.899,0.4-1.8,0.6-2.399,0.8c-1.4,0.3-2.2,0.4-2.2,0.4s0.8-0.2,2.2-0.5
			c0.699-0.2,1.5-0.5,2.399-0.9c0.4-0.2,0.9-0.4,1.4-0.7s1-0.6,1.5-1s1-0.8,1.5-1.2c0.5-0.5,0.899-1,1.399-1.5
			c0.9-1.1,1.7-2.3,2.301-3.7c0.699-1.4,1.199-2.9,1.6-4.4c0.4-1.6,0.7-3.1,0.8-4.8c0.2-1.6,0.2-3.2,0.3-4.8
			c0-1.6-0.1-3.2-0.199-4.7c-0.2-3-0.601-5.9-1.101-8.3c-0.399-2.4-0.899-4.4-1.3-5.8c-0.4-1.4-0.6-2.1-0.6-2.1H414.4z"/>
	</g>
	<g>
		<path d="M400.9,272.4c0,0,0,0.1,0,0.3c0,0.2-0.101,0.5-0.2,0.9c-0.2,0.8-0.4,1.8-0.9,3.1c-0.2,0.6-0.5,1.3-0.8,2
			c-0.3,0.7-0.7,1.4-1.1,2.1c-0.4,0.7-0.9,1.4-1.4,2.2c-0.6,0.7-1,1.4-1.7,2l-0.8,1c-0.3,0.3-0.7,0.6-1,0.8c-0.3,0.3-0.7,0.6-1,0.8
			c-0.4,0.2-0.7,0.4-1.1,0.7c-0.7,0.5-1.4,0.7-2.101,1c-0.399,0.1-0.7,0.3-1,0.4c-0.3,0.1-0.7,0.2-1,0.3c-0.6,0.2-1.2,0.4-1.7,0.4
			c-0.5,0.1-1,0.1-1.399,0.2c-0.8,0.1-1.2,0.1-1.2,0.1s0.4-0.1,1.2-0.2c0.399-0.1,0.8-0.1,1.399-0.2c0.5-0.1,1.101-0.3,1.7-0.5
			c0.3-0.1,0.601-0.2,1-0.3c0.3-0.1,0.7-0.3,1-0.4c0.7-0.3,1.4-0.6,2.101-1.1c0.3-0.2,0.699-0.4,1-0.7c0.399-0.2,0.6-0.5,1-0.8
			c0.3-0.3,0.699-0.5,1-0.8l0.899-1c0.601-0.6,1.101-1.4,1.601-2c0.399-0.7,0.899-1.4,1.199-2.2c0.4-0.7,0.7-1.4,1-2.1
			c0.301-0.7,0.5-1.4,0.7-2c0.8-2.5,0.9-4.2,0.9-4.2L400.9,272.4z"/>
	</g>
	<g>
		<path d="M387.2,269.8c0,0-0.4,0.9-1.2,2c-0.2,0.3-0.4,0.6-0.7,0.9c-0.2,0.3-0.5,0.6-0.8,0.9c-0.6,0.6-1.3,1.3-2,1.8
			c-0.4,0.3-0.7,0.5-1.1,0.8c-0.4,0.3-0.801,0.4-1.2,0.6c-0.4,0.2-0.8,0.3-1.101,0.5c-0.399,0.1-0.699,0.3-1,0.3
			c-0.3,0.1-0.6,0.2-0.899,0.2s-0.5,0.1-0.7,0.1c-0.4,0.1-0.6,0.1-0.6,0.1s0.199,0,0.6-0.1c0.2,0,0.4-0.1,0.7-0.1
			c0.3-0.1,0.6-0.2,0.899-0.3c0.301-0.1,0.7-0.2,1-0.4c0.301-0.2,0.7-0.3,1.101-0.5c0.399-0.2,0.7-0.4,1.1-0.7
			c0.4-0.2,0.7-0.5,1-0.8c0.7-0.6,1.3-1.2,1.8-1.9c0.2-0.3,0.5-0.6,0.7-1c0.2-0.3,0.4-0.6,0.601-0.9c0.699-1.1,1-1.9,1-1.9
			L387.2,269.8z"/>
	</g>
</g>
</svg>
