<?xml version="1.0" encoding="utf-8"?>
<!-- Generator: Adobe Illustrator 15.0.0, SVG Export Plug-In . SVG Version: 6.00 Build 0)  -->
<!DOCTYPE svg PUBLIC "-//W3C//DTD SVG 1.1//EN" "http://www.w3.org/Graphics/SVG/1.1/DTD/svg11.dtd">
<svg version="1.1" id="Layer_1" xmlns="http://www.w3.org/2000/svg" xmlns:xlink="http://www.w3.org/1999/xlink" x="0px" y="0px"
	 width="438.5px" height="567px" viewBox="0 0 438.5 567" enable-background="new 0 0 438.5 567" xml:space="preserve">
<rect display="none" fill="#FFFFFF" width="822" height="567"/>
<path fill="#FFFFFF" stroke="#000000" d="M342.5,442.9c-0.9,0.3-2.1,0.3-2.8,0.1c-1.5-0.4-3.4-0.5-5-1.7
	c-2.601-1.8-5.601-2.8-6.3-2.3l-18-34c0.899,0.6,1.899,1,2.8,1.5c29.899,29.3,22.5,23.4,30.2,35.2
	C343.7,442.2,343.2,442.6,342.5,442.9z"/>
<path fill="#FFFFFF" stroke="#000000" d="M332,407c2.4,2.2,12.7,24.3,11.3,34.7c-7.7-11.7-0.2-5.8-30.2-35.2
	c0.7,0.3,1.4,0.6,2.2,0.8C319.6,408.7,329.3,408.8,332,407z"/>
<path fill="#FFFFFF" stroke="#000000" d="M342.3,444.6c-0.8,6-4,25.7-14.8,37.2l-2.1-28.5c3.5-1.7,0.1-12.6,3-14.3
	c0.8-0.5,3.699,0.5,6.3,2.3c1.6,1.101,3.5,1.3,5,1.7c0.7,0.2,2,0.2,2.8-0.1C342.5,442.9,342.5,443.6,342.3,444.6z"/>
<path fill="#FFFFFF" stroke="#000000" d="M323.1,398.1l8.9,8.9c-2.7,1.8-12.4,1.7-16.7,0.3c-0.7-0.2-1.399-0.5-2.2-0.8
	c-0.899-0.4-1.899-0.9-2.8-1.5c-1-0.6-1.899-1.2-2.8-1.9c-2.6-1.899-5.1-4.3-7.4-7C285.8,380.2,276,354,276,354
	c-2.7-2-31.3-68.7-31.3-68.7l-7.6-29.1c0-0.3-0.1-0.4-0.1-0.5c1.5,0.9,3,1.8,4.4,2.6c1.1,8.1,17,42.9,17,42.9
	c0.2,1.1,15.8,32.1,17,34c6.3,18.2,22.3,28,22.3,28c5,26.3,16,25.3,16,25.3L323.1,398.1z"/>
<path fill="#FFFFFF" stroke="#000000" d="M310.4,405l18,34c-2.9,1.7,0.5,12.6-3,14.3c-0.601,0.3-3.101-7-3.301-8.7
	c-0.199-1.399-1.8-1.899-2.6-1c-2.4-4.199-11.3-20.399-15.4-37.899c1.5-0.8,2.6-1.601,3.5-2.601C308.5,403.8,309.4,404.5,310.4,405z
	"/>
<path fill="#FFFFFF" stroke="#000000" d="M327.5,481.9l0.9,11.5c-6,16-42.3,16-42.3,16c-36.3,21-76.7,13.699-76.7,13.699
	c-38.2,10-82.6-2.199-83-2.3c7.2-2.2,14.5-5.5,21.7-10.1c0.3,0.1,20.9,9.899,64.3-0.3c0,0,38.3,5,73-12.301c0,0,35.7-1.3,42-16
	C327.4,482,327.4,481.9,327.5,481.9z"/>
<path fill="#FFFFFF" stroke="#000000" d="M268,464.3c0,0-9.6-9.8-6-11c7-2.3,18.3,9.3,20.7,7.7c0,0-1.7-9-0.7-9.7
	c3.1-2.1,19.7,6.7,19.7,4.3c0,0,3.4-2.3,4.7-9l0,0c2.6,0.801,5.3,2.801,6.3,5.301c0.7,1.8,6.6,2,6.399-0.2
	c1.2-3.2,0.301-5.101,0.301-5.101c-0.601-1.5-0.4-2.5,0.1-3c0.8-0.8,2.4-0.399,2.6,1c0.2,1.7,2.801,9,3.301,8.7l2.1,28.5l-0.1,0.101
	c-6.301,14.699-42,16-42,16c-34.7,17.3-73,12.3-73,12.3c-43.4,10.3-64,0.399-64.3,0.3c14.9-9.5,29.3-24.5,42-47.3l0,0
	c0.2,0.1,17.3,5.6,21.2,1.6c0,0,6.7-2.1,8.8-3.7c5.1,3.4,10.6,7,13.9,5.4c0,0,2.7-0.3,4-4l0,0c3.8,2.3,7.5,4.2,8.7,3
	c0,0,8.7-3,9-5.7l0.1-0.2C261.6,462.2,267.2,465.3,268,464.3z"/>
<path fill="#FFFFFF" stroke="#000000" d="M318.6,364.5c0.2,0.5,12.801,29.2,4.5,33.6l-9.5-9.5c0,0-11,1-16-25.3c0,0-16-9.8-22.3-28
	c-1.2-1.899-16.7-32.899-17-34c0,0-15.9-34.8-17-42.9c6.2,3.5,11.9,6,15,5.9c0,0,2.3,7,8,5c0,0,5.3,2.3,5.7,5.3c0.3,3,6,19.3,6,19.3
	s1,8.3,2.3,8.3c0.4,0,0.7-1,0.9-2.3h0.1c0,0,2.3,2.699,3,0.3c0.2-0.8,0.4-1.9,0.6-3.101c-0.1,2.5-0.1,6.4,0.8,6.4
	c1.3,0,1.7,0,2.7-11l0.3-2.7l-6.7-19.3c0,0-8.7-9.7-11-9c0,0-0.7-5.3-6-4.7c0,0-12.9-9.5-24-17.2l0.2-9.1
	c2.6,0.2,27.7,2.8,47.4,21.4c10.3,9.7,19.1,23.7,22.5,44c0.7,6.5,1,13.5,0.601,21.199C309.8,317.5,323.7,343.9,318.6,364.5z"/>
<path fill="#FFFFFF" stroke="#000000" d="M319,451.8c0.3,2.2-5.7,2-6.4,0.2c-1-2.6-3.699-4.5-6.3-5.3c-2.3-0.7-4.5-0.5-5.4,0.8
	c-0.1-0.5-2.3-23.9-1-40c1.5-0.5,2.9-1.1,4.1-1.7c4,17.5,12.9,33.7,15.4,37.9c-0.5,0.5-0.7,1.5-0.101,3
	C319.3,446.7,320.2,448.6,319,451.8z"/>
<path fill="#FFFFFF" stroke="#000000" d="M301,447.5c0.9-1.4,3.2-1.5,5.4-0.8l0,0c-1.3,6.7-4.7,9-4.7,9c-0.1-2.601-0.5-3-1-5
	C300.3,449.3,300.5,448.2,301,447.5z"/>
<path fill="#FFFFFF" stroke="#000000" d="M270.6,411.5c-2.4,0.1-4.8,0.1-7.3,0.2c-4.7,0.1-9.5,0-14-0.101
	c-5.8-0.1-11.1-0.399-15.7-0.6c-6.9-0.4-11.9-0.8-13.5-0.9c1.2-2.899,2.3-5.699,3.4-8.6c7.9,0.6,64.2,4.8,76.5-5.2
	c2.4,2.7,4.9,5,7.4,7c-0.9,1-2.101,1.8-3.5,2.601c-1.2,0.6-2.5,1.199-4.1,1.699c-3.7,1.301-8.3,2.2-13.3,2.801
	C281.7,410.9,276.2,411.3,270.6,411.5z"/>
<path fill="#FFFFFF" stroke="#000000" d="M296.3,160.7L296.3,160.7L296.3,160.7z M290.5,179.9c0,0-7.5,20.1-9.1,20.8
	c-1.7,0.7-19.1,32.2-26.5,28.2c0,0-1.5-0.5-13.6-16.1l-0.2-0.1c1.1-4.5,3-11.3,3.9-13.2c0.8,0.5,1.8,0.8,3.1,0.8l4.3-3.2v0.1
	c3.2,3.3,5.6,8.9,5.8,9.6c0.4-0.4,0.8-0.9,1.3-1.4c24.3-26.8,26.5-32,26.6-32.5l0,0l5.9-4.2c-0.1-0.4,0.1-0.8,0.4-1.3
	c1.3-1.8,4.9-3.7,4.9-3.7s-9,3-8.7,1.7c0.1-0.5,0.9-1.2,1.9-2c0.4-0.3,0.9-0.7,1.5-1c1.6-1,3.3-1.8,4-1.7l-1.3-0.3
	c0,0-4.7-0.7-6-2.2c-0.3-0.3-0.4-0.7-0.3-1.1c0.1-0.2,0.2-0.4,0.3-0.5c0.6-0.6,1.8-0.6,2.9-0.4c1.6,0.3,3.1,0.9,3.1,0.9l-3.2-4.4
	l0.1-0.1c-1-3.1,0.6-2.3,2-1.2c0.4,0.3,0.8,0.7,1.1,1l0,0c0.7,0.8,5.4,5.9,5.7,7.8c0.3,2,3,3.7,2.7,6.7c-0.3,3-4.7,10.3-7.7,10.7
	C293.5,177.5,291.9,179,290.5,179.9z"/>
<path fill="#FFFFFF" stroke="#000000" d="M301.7,455.7c0.1,2.3-16.5-6.4-19.7-4.3c0,0,6.3-20.4,4.6-41c5.1-0.7,9.7-1.601,13.3-2.801
	c-1.3,16.101,0.9,39.5,1,40c-0.5,0.7-0.6,1.801-0.3,3.2C301.2,452.7,301.6,453.1,301.7,455.7z"/>
<path fill="#FFFFFF" stroke="#000000" d="M276,354c0,0,9.8,26.2,24.1,42.2c-12.3,10-68.7,5.8-76.5,5.2
	c10.1-26.801,16-55.301,15.4-84.7c-0.9-48.8-1.7-58.5-2-60.4l7.6,29.101C244.7,285.3,273.3,352,276,354z"/>
<path fill="#FFFFFF" stroke="#000000" d="M294.7,160.3l1.3,0.3c-0.7-0.2-2.4,0.6-4,1.7v-0.1c0,0-47-12.3-51.3-16.6
	c-4.3-4.3,3.3-10.7,3.3-10.7l44.6,23.1C289.9,159.7,294.7,160.3,294.7,160.3z"/>
<path fill="#FFFFFF" stroke="#000000" d="M240.5,180.6c-1-0.6-8.2-5.1-3.2-11.9l51.3-3.3c-0.3,1.3,8.7-1.7,8.7-1.7s-3.6,1.9-4.9,3.7
	l-51.8,13.2C240.6,180.6,240.6,180.6,240.5,180.6z"/>
<path fill="#FFFFFF" stroke="#000000" d="M291.4,152.6l3.2,4.4c0,0-1.5-0.6-3.1-0.9l-31.9-37.4c0.7-7,9-5,9-5l21.3,37L291.4,152.6z"
	/>
<path fill="#FFFFFF" stroke="#000000" d="M289.7,108l4,43.3l0,0l-13.9-40.6c0-0.1,0.1-0.2,0.1-0.3C283.5,102.2,289.7,108,289.7,108z
	"/>
<path fill="#FFFFFF" stroke="#000000" d="M279.7,110.7l13.9,40.6l-0.1,0.1c-1.4-1.1-3.1-1.9-2,1.2l-0.1,0.1l-1.4-1.9l-21.3-37
	c4.3-7.7,11-3.4,11-3.4l0.2,0.1C279.8,110.4,279.7,110.6,279.7,110.7z"/>
<path fill="#FFFFFF" stroke="#000000" d="M240.6,180.6l51.8-13.2c-0.3,0.4-0.5,0.9-0.4,1.3L243,191c0,0-6.8-3.6-2.5-10.4
	C240.6,180.6,240.6,180.6,240.6,180.6z"/>
<path fill="#FFFFFF" stroke="#000000" d="M237.9,147.8c0.7-0.8,1.6-1.5,2.8-2.1c4.3,4.3,51.3,16.6,51.3,16.6v0.1
	c-0.5,0.3-1,0.7-1.5,1l-52.9-4.7c0,0,0-0.1-0.1-0.3C237,157.1,234.8,151.5,237.9,147.8z"/>
<path fill="#FFFFFF" stroke="#000000" d="M244.9,199.5c-3.8-2.3-1.9-8.5-1.9-8.5l49-22.3l-5.9,4.2c0,0,0-0.1,0,0l-32.5,23.3l-1.3,1
	l-4.3,3.2C246.7,200.3,245.7,200,244.9,199.5z"/>
<path fill="#FFFFFF" stroke="#000000" d="M259.7,118.7l31.9,37.4c-1.2-0.2-2.3-0.2-2.9,0.4v-0.1L252,126.7
	C251,118.3,259.7,118.7,259.7,118.7z"/>
<path fill="#FFFFFF" stroke="#000000" d="M237.7,158.7l52.9,4.7c-1,0.8-1.8,1.5-1.9,2l-51.3,3.3c0,0-5.6-6.8,0-10.2l0.2-0.1
	C237.6,158.6,237.7,158.7,237.7,158.7z"/>
<path fill="#FFFFFF" stroke="#000000" d="M288.6,156.4L288.6,156.4c-0.1,0.2-0.2,0.4-0.3,0.6c-0.1,0.4,0,0.8,0.3,1.1L244,135
	c0-9,8-8.3,8-8.3L288.6,156.4z"/>
<path fill="#FFFFFF" stroke="#000000" d="M282.9,297.2c-0.1,1.2-0.3,2.3-0.6,3.1c-0.7,2.3-3-0.3-3-0.3h-0.1
	c-0.2,1.3-0.5,2.3-0.9,2.3c-1.3,0-2.3-8.3-2.3-8.3s-5.7-16.3-6-19.3s-5.7-5.3-5.7-5.3s0.3-9,4.7-7.7c2.3-0.7,11,9,11,9l6.7,19.3
	l-0.3,2.7c-1,11-1.3,11-2.7,11C282.7,303.7,282.8,299.7,282.9,297.2z"/>
<path fill="#FFFFFF" stroke="#000000" d="M286.6,410.3c1.7,20.7-4.6,41-4.6,41c-1,0.7,0.7,9.7,0.7,9.7c-2.3,1.7-13.7-10-20.7-7.7
	c4-6.2,8-37.2,8.6-41.8C276.2,411.3,281.7,410.9,286.6,410.3z"/>
<path fill="#FFFFFF" stroke="#000000" d="M270.6,411.5c-0.6,4.6-4.6,35.6-8.6,41.8c-3.6,1.2,6,11,6,11c-0.8,0.9-6.4-2.1-12.3-4.6
	c-4.1-1.7-8.2-3.101-10.9-2.601c1.9-2.5,18.2-25,18.5-45.399C265.8,411.7,268.2,411.6,270.6,411.5z"/>
<path fill="#FFFFFF" stroke="#000000" d="M269,261.7c-4.3-1.3-4.7,7.7-4.7,7.7c-5.7,2-8-5-8-5s1.7-7.3,6.7-7.3
	C268.3,256.3,269,261.7,269,261.7z"/>
<path fill="#FFFFFF" stroke="#000000" d="M249.3,411.6c4.5,0.101,9.2,0.2,14,0.101C263,432.1,246.7,454.6,244.8,457.1
	c-0.3,0.101-0.6,0.101-0.8,0.2c-2,0.8,2.7,8.3,2.7,8.3c-1.2,1.2-4.8-0.699-8.7-3c-4.7-2.8-9.6-6.3-10.6-5.399
	C228.8,455.7,250,431.3,249.3,411.6L249.3,411.6z"/>
<path fill="#FFFFFF" stroke="#000000" d="M217.7,243.1c-2.9-2.1-4.7-3.4-4.7-3.4c-3.6-2.2-9.7-10.1-14.4-16.9
	c-3.8-5.4-6.7-10.1-6.9-10.4v-0.1c4.5-1.1,16.6-4.4,18-7.9l13.7,25.7c0.7-0.4,7.7,4.2,15.7,9.8c11.1,7.7,24,17.2,24,17.2
	c-5,0-6.7,7.3-6.7,7.3c-3.1,0.1-8.8-2.4-15-5.9c-1.4-0.8-2.9-1.7-4.4-2.6l0,0c-2.2-1.3-4.4-2.7-6.5-4.1c-1.3-0.8-2.5-1.6-3.7-2.4
	C223.2,247,220.1,244.8,217.7,243.1z"/>
<path fill="#FFFFFF" stroke="#000000" d="M244.8,457.1c2.7-0.5,6.8,0.9,10.9,2.601l-0.1,0.2c-0.3,2.699-9,5.699-9,5.699
	s-4.6-7.6-2.7-8.3C244.3,457.2,244.5,457.2,244.8,457.1z"/>
<path fill="#FFFFFF" stroke="#000000" d="M220.1,461.3c-4.6-3-8.8-5.8-10.7-4.3c0.8-0.7,18.4-15.1,24.3-46l0,0
	c4.6,0.3,9.9,0.5,15.7,0.6l0,0c0.6,19.7-20.6,44-21.9,45.601c0,0,0,0-0.1,0.1l0,0c-1.3,2,6.7,9.3,6.7,9.3
	C230.7,468.3,225.2,464.7,220.1,461.3z"/>
<path fill="#FFFFFF" stroke="#000000" d="M243.3,64.5l1.5,18.7c-0.4-0.7-2.8-1.2-6.4-1.4c-1.5-0.1-3.1-0.1-5-0.1
	c-1.5,0-3.1,0-4.8,0.1c-0.5,0-1,0-1.6,0.1l0,0c-0.5,0-1.1,0.1-1.6,0.1c0,0,0,0-0.1,0c-0.5,0-0.9,0.1-1.4,0.1c-0.1,0-0.2,0-0.4,0
	c-0.5,0-1,0.1-1.5,0.1c-0.6,0-1.2,0.1-1.8,0.1c-0.3,0-0.6,0.1-0.8,0.1c-0.3,0-0.5,0.1-0.8,0.1c-0.4,0-0.7,0.1-1.1,0.1
	c-0.1,0-0.3,0-0.4,0c-0.4,0-0.9,0.1-1.3,0.1c-1.1,0.1-2.2,0.3-3.2,0.4c-1.6,0.2-3.2,0.5-4.6,0.7c-4.7,0.9-7.9,1.9-8.3,2.8L198.4,68
	v-0.4l-1.6-19.8c0.6,0,1.1-0.2,1.5-0.5l14.8,19.1h0.3l5.1-20.5c0.1,0,0.1,0,0.2,0c0.5,0.1,1.1,0.1,1.6-0.1l7.9,19.4h0.3l11.7-21.3
	c0.2,0.1,0.4,0.2,0.7,0.3c0.3,0.1,0.6,0.1,0.8,0.1l1.6,19.8V64.5z M240.1,77.8c-0.2-2.9-1.9-20.9-1.9-21.3
	c-2.3,4.1-9.6,18.8-9.6,18.8c-5.5-8.4-4.6-9-8.5-15.6c-1.2,4.7-5,15.3-5,15.3l-13.9-15.8c0.4,5.4,1.3,18.1,1.5,21
	c2.1-2.1,18.4-3,19.7-3.1c5.8-0.5,8.9,0.7,13.2,0.2C237,77.4,239.1,77.4,240.1,77.8z"/>
<path fill="#FFFFFF" stroke="#000000" d="M241.7,44.2c-0.3,0-0.6,0-0.8-0.1c-0.3-0.1-0.5-0.1-0.7-0.3c-1.3-0.8-1.4-2.6-1.2-3.2
	c0.5-1.2,1.9-1.8,3.3-1.5c1.4,0.3,2.2,1.5,2.1,2.7c0,0.1,0,0.3-0.1,0.4C244,43.4,242.9,44.2,241.7,44.2z"/>
<path fill="#FFFFFF" stroke="#000000" d="M244.8,83.2c-1,3.3-2.7,12.2-2.5,12.8c0.7,1.7,1.8,8.6,0.7,11.5s-9.3,17.5-11,17.5
	s-3,2.3-6.3,0.7c-0.6-0.3-1.7-0.7-3.1-1.1c-0.2-0.1-0.4-0.1-0.6-0.2c-5.6-1.6-14.7-3.6-14.7-4.4h-0.2c0-0.3-0.1-0.5-0.1-0.8
	c-6.5-29.3,5.8-36.1,5.8-36.1V83c1-0.1,2.1-0.3,3.2-0.4c0.4,0,0.8-0.1,1.3-0.1c0.1,0,0.3,0,0.4,0c0.4,0,0.7-0.1,1.1-0.1
	c0.3,0,0.5-0.1,0.8-0.1c0.3,0,0.6-0.1,0.8-0.1c0.6-0.1,1.2-0.1,1.8-0.1c0.5,0,1-0.1,1.5-0.1c0.1,0,0.2,0,0.4,0
	c0.5,0,0.9-0.1,1.4-0.1c0,0,0,0,0.1,0c0.5,0,1.1-0.1,1.6-0.1l0,0c0.5,0,1,0,1.6-0.1c1.7-0.1,3.3-0.1,4.8-0.1c1.8,0,3.5,0,5,0.1
	C242,82,244.4,82.5,244.8,83.2z M242.3,98.5c0,0,0.3-6.8-4-6.8c-4.3,0-5,7.3-5,7.3L242.3,98.5z M237.9,112.2c0,0-3,0-4.5-1.5
	c-0.7-0.7-2,2.3-3.7,1c-1.7-1.3-1.8-0.3-1.8-0.3s-2.8,2-5.2,1.6l5.3,5.3l3.3-0.3C231.3,118,235.6,115.1,237.9,112.2z M222.3,99.7
	c0,0,0.4-6.7-2.6-6.7s-7.8,6.7-7.8,6.7H222.3z"/>
<path fill="#FFFFFF" stroke="#000000" d="M234.3,206.2l0.2-0.1l-0.8-25.9l-1-5.5c-0.1-0.5-0.2-1-0.4-1.6
	c-5.2-22.8-7.4-27.4-7.8-27.9c0.9,0,10.7,0.6,13.3,2.5c-3.1,3.8-0.9,9.3-0.3,10.6l-0.2,0.1c-5.7,3.3,0,10.2,0,10.2
	c-5,6.8,2.2,11.3,3.2,11.9c-4.4,6.8,2.5,10.4,2.5,10.4s-1.9,6.2,1.9,8.5c-0.9,1.9-2.7,8.7-3.9,13.2c-0.5,2-0.9,3.6-1,4l-0.8,12v2
	l-0.2,9.1c-7.9-5.5-15-10.2-15.7-9.8l-13.7-25.7c0.3-0.8,0-1.3,0-1.3s0.7-10.7,2-13.3c0,0,0.3-11.7-6-19.3c0,0-14-19-21.3-17
	c2.5-0.8,6.8-3.6,8.4-4.5c-0.1,0.2,0,0.2,0.2,0c0,0,20.8,6.5,26.4,26.8C219.3,175.7,228.2,194,234.3,206.2z"/>
<path fill="#FFFFFF" stroke="#000000" d="M238.3,91.8c4.3,0,4,6.8,4,6.8l-9,0.5C233.3,99,233.9,91.8,238.3,91.8z M240.9,96.3
	c0-1.1-0.9-2-2-2s-2,0.9-2,2c0,1.1,0.9,2,2,2S240.9,97.4,240.9,96.3z"/>
<ellipse fill="#FFFFFF" stroke="#000000" cx="238.9" cy="96.2" rx="2" ry="2"/>
<path fill="#FFFFFF" stroke="#000000" d="M238.2,56.5c0,0.3,1.7,18.4,1.9,21.3c-1-0.3-3.1-0.4-4.5-0.3c-4.2,0.4-7.4-0.7-13.2-0.2
	c-1.3,0.1-17.6,1-19.7,3.1c-0.2-2.9-1.1-15.6-1.5-21c0-0.1,13.9,15.8,13.9,15.8s3.8-10.7,5-15.3c3.9,6.6,3,7.2,8.5,15.6
	C228.6,75.3,235.9,60.6,238.2,56.5z"/>
<path fill="#FFFFFF" stroke="#000000" d="M44.5,442.4c6.5-4,15.5-4,15.5-4c12.7,48,60.3,36.3,60.3,36.3
	c31.7,0.7,62.3-35.7,62.3-35.7c26.7-24.3,40-82.3,40-82.3c12-20.7,7.7-105,7.7-105c2.1,1.4,4.3,2.8,6.5,4.1l0.1,0.5
	c0.3,1.9,1.1,11.6,2,60.4c0.6,29.5-5.3,57.899-15.4,84.7c-1.1,2.899-2.2,5.8-3.4,8.6c-0.3,0.6-0.5,1.2-0.8,1.8
	c-1,2.4-1.9,4.4-2.6,6.101c-1.5,3.3-2.4,5-2.4,5c-5.4,14.199-13.1,25.8-21.4,35l0,0c-21.7,24.1-47.6,32.6-47.6,32.6
	C99.7,509,70.3,493,54,477.2C43,466.6,38,456,38,456C37.2,449.1,40.4,444.9,44.5,442.4z"/>
<path fill="#FFFFFF" stroke="#000000" d="M238,462.7L238,462.7c-1.3,3.7-4,4-4,4s-8-7.3-6.7-9.3l0,0c0,0,0,0,0.1-0.101
	C228.4,456.4,233.3,459.8,238,462.7z"/>
<path fill="#FFFFFF" stroke="#000000" d="M237,256.3l-0.1-0.5l0,0C236.9,255.8,237,255.9,237,256.3z"/>
<path fill="#FFFFFF" stroke="#000000" d="M233.3,110.7c1.5,1.5,4.5,1.5,4.5,1.5c-2.3,2.9-6.5,5.8-6.5,5.8l-3.3,0.3l-5.3-5.3
	c2.3,0.3,5.2-1.6,5.2-1.6s0.2-1,1.8,0.3C231.3,113,232.7,110,233.3,110.7z"/>
<path fill="#FFFFFF" stroke="#000000" d="M233.8,180.2l0.8,25.9l-0.2,0.1c-6.1-12.2-15-30.6-15-30.6s11.6,2.6,12.9-2.4l0.2-0.1
	c0.1,0.5,0.2,1,0.4,1.6L233.8,180.2z"/>
<path fill="#FFFFFF" stroke="#000000" d="M233.7,411L233.7,411c-5.9,30.9-23.5,45.3-24.3,46l0,0c-2,1.7,2,8,2,8
	c-4,4-21-1.6-21.2-1.6c1-1.7,1.9-3.5,2.9-5.301l0,0c8.3-9.199,16-20.8,21.4-35c0,0,0.9-1.699,2.4-5c0.8-1.6,1.6-3.699,2.6-6.1
	c0.3-0.6,0.5-1.2,0.8-1.8C221.7,410.2,226.7,410.6,233.7,411z"/>
<path fill="#FFFFFF" stroke="#000000" d="M232.4,173.2l-0.2,0.1c-1.3,5-12.9,2.4-12.9,2.4c-5.7-20.3-26.4-26.8-26.4-26.8
	c0.6-0.5,0.5-0.4-0.2,0c0.8-1.8,15.1-20.5,14.4-28.8h0.2c0,0.8,9.1,2.8,14.7,4.4v0.1l2.3,20l0.2,0.7l0,0c0,0,0,0,0.1,0
	C225,145.8,227.2,150.4,232.4,173.2z"/>
<path fill="#FFFFFF" stroke="#000000" d="M151,411.6c-0.2-0.5-2.9-10,24.3-35c0,0,8.7-18.699,10.3-28.3c2.4-14,12.3-9.7,11.7-19
	c0,0,1-16.7,3.7-22.7c0,0,7.4-11.699,6.3-28c-0.3-5.5,4-17.3,6.3-21c0,0,3-6,1.3-9v-0.2c2,0.7,5.7,1.5,11.6,0.9v-0.1
	c1.2,0.8,2.4,1.6,3.7,2.4c0,0,4.3,84.3-7.7,105c0,0-13.3,58-40,82.301c0,0-30.7,36.3-62.3,35.699c0,0-47.7,11.7-60.3-36.3
	C58.3,429,78.3,353,78.3,353c17.6-62.9,44.9-93.8,69-108.9c25.6-16,47.5-14.1,50.1-13.8c-0.6,3.2-1.5,6.2-2.4,6.4c0,0,1.4,9,9.4,9.9
	c-3.4,3.2-19.7,18.8-19.4,25.1c0,0-4.7,14.899-12,24.7c-3.9,5.1-2.5,10.8-14.3,21.3c-3.2,2.899-5.3,8.7-6.7,16c0,0-9.7,13-15.3,13
	c0,0-10.4,9.3-13.4,10.3c-0.4,0-0.6,0.1-0.6,0.1c0.1,0.101,0.3,0,0.6-0.1c2.9-0.3,15-1.6,17.1-4.3c0,0-1,10-4.7,13.7
	c0,0,5,1,15-12.301c0,0,9.7-4,10.3-7.3c0.3-1.7,5.8-14.899,7.7-18c4.4-7.3,10-5.3,16.3-29.7c1.8-6.8,11-4,9.3-26.3
	c0,0,3.4-16.9,15.8-25.2c0.2,0.9,0.6,1.8,1.6,1.4c0,1-0.8,5.7-11.3,19.1c-5.9,7.6,3.3,24.3-11.3,36.7c-4.7,4-2.7,22.3-4.3,24.3
	c0,0-12.7,15.4-13,18.301c-1,10.3,4.7,16.699-22.3,34c0,0-13,21-15.3,22.3c0.2-0.101,15.7-6.7,17.3-13
	C151.3,390.7,149.7,408.3,151,411.6z"/>
<path fill="#FFFFFF" stroke="#000000" d="M226.7,249.3L226.7,249.3c-5.9,0.7-9.7-0.1-11.7-0.8c-1.2-0.4-1.7-0.8-1.7-0.8v-4l4.4-0.6
	C220.1,244.8,223.2,247,226.7,249.3z"/>
<path fill="#FFFFFF" stroke="#000000" d="M219.7,93c3,0,2.6,6.7,2.6,6.7H212C212,99.7,216.8,93,219.7,93z M220.7,97.4
	c0-1-0.7-1.9-1.6-1.9s-1.6,0.8-1.6,1.9s0.7,1.9,1.6,1.9S220.7,98.4,220.7,97.4z"/>
<path fill="#FFFFFF" stroke="#000000" d="M222.2,43.6c0,0.1,0,0.3-0.1,0.4c-0.3,0.9-1,1.5-1.8,1.8c-0.5,0.2-1,0.2-1.6,0.1
	c-0.1,0-0.1,0-0.2,0c-1.4-0.4-2.2-1.7-1.9-3c0.1-0.2,0.2-0.4,0.2-0.4c0.5-1.2,1.9-1.8,3.3-1.5C221.5,41.2,222.4,42.4,222.2,43.6z"/>
<ellipse fill="#FFFFFF" stroke="#000000" cx="219.1" cy="97.4" rx="1.6" ry="1.9"/>
<path fill="#FFFFFF" stroke="#000000" d="M210.3,242.7c0,0-9.7-6.8-12.7-13.7c0.5-2.6,0.8-5.2,0.9-6.2c4.7,6.8,10.7,14.7,14.4,16.9
	c0,0,1.8,1.3,4.7,3.4l-4.4,0.6C212.7,241.7,210.3,242.7,210.3,242.7z"/>
<path fill="#FFFFFF" stroke="#000000" d="M220.1,461.3c-2.1,1.601-8.8,3.7-8.8,3.7s-4-6.3-2-8l0,0
	C211.3,455.5,215.5,458.3,220.1,461.3z"/>
<path fill="#FFFFFF" stroke="#000000" d="M215,248.7c1.7,3-1.3,9-1.3,9c-2.3,3.7-6.7,15.5-6.3,21c1,16.3-6.3,28-6.3,28
	c-2.7,6-3.7,22.7-3.7,22.7c0.7,9.3-9.3,5-11.7,19c-1.7,9.699-10.3,28.3-10.3,28.3c-27.3,25-24.5,34.5-24.3,35
	c-1.3-3.4,0.3-21,0.3-21c-1.7,6.3-17.1,12.899-17.3,13c2.3-1.3,15.3-22.3,15.3-22.3c27-17.301,21.3-23.7,22.3-34
	c0.3-3,13-18.301,13-18.301c1.7-2-0.4-20.399,4.3-24.3c14.7-12.3,5.4-29.1,11.3-36.7c10.5-13.4,11.3-18.1,11.3-19.1
	c0.4-0.1,1-0.5,1.7-1.2c0,0,0.5,0.4,1.7,0.8V248.7z"/>
<path fill="#FFFFFF" stroke="#000000" d="M211.7,248.9c-1,0.4-1.4-0.5-1.6-1.4c-0.1-0.7-0.1-1.5-0.1-1.5l0.3-3.3c0,0,2.3-1,3,1v4
	C212.6,248.4,212.1,248.7,211.7,248.9z"/>
<path fill="#FFFFFF" stroke="#000000" d="M212.7,83.1L212.7,83.1c0,0.1-12.2,6.9-5.7,36.2c0.1,0.2,0.1,0.5,0.1,0.8
	c0.7,8.3-13.7,27-14.4,28.8c-1.6,1-5.8,3.7-8.4,4.5c0,0-13.7,1-15.7,11.7c0,0-0.5,2.2-0.7,6h-0.1c-27.5-7,32.1-84.4,32.1-84.4
	c0.5-0.9,3.6-1.9,8.3-2.8C209.6,83.6,211.1,83.3,212.7,83.1z"/>
<path fill="#FFFFFF" stroke="#000000" d="M205.7,170.3c6.3,7.7,6,19.3,6,19.3c-1.3,2.7-2,13.3-2,13.3s0.3,0.5,0,1.3
	c-1.4,3.6-13.5,6.8-18,7.9c-1,0.3-1.7,0.4-1.7,0.4c-13.7,1.7-17-10.7-17-10.7c-5.1-12.6-5.5-24.2-5-31c0.2-3.8,0.7-6,0.7-6
	c2-10.7,15.7-11.7,15.7-11.7C191.7,151.3,205.7,170.3,205.7,170.3z"/>
<path fill="#FFFFFF" stroke="#000000" d="M197.4,230.3c0.1-0.5,0.2-0.9,0.3-1.4c3,6.9,12.7,13.7,12.7,13.7L210,246
	c-2.2,0.6-4,0.8-5.6,0.6c-8-0.9-9.4-9.9-9.4-9.9C195.9,236.5,196.8,233.5,197.4,230.3z"/>
<path fill="#FFFFFF" stroke="#000000" d="M210,246c0,0,0,0.7,0.1,1.5c-12.3,8.3-15.8,25.2-15.8,25.2c1.7,22.3-7.6,19.6-9.3,26.3
	c-6.3,24.3-12,22.4-16.3,29.7c-1.9,3.1-7.3,16.3-7.7,18c-0.7,3.3-10.3,7.3-10.3,7.3c-10,13.3-15,12.3-15,12.3
	c3.7-3.7,4.7-13.7,4.7-13.7c-2.1,2.601-14.2,4-17.1,4.301c3-1,13.4-10.301,13.4-10.301c5.7,0,15.3-13,15.3-13
	c1.3-7.3,3.4-13.1,6.7-16c11.8-10.5,10.5-16.199,14.3-21.3c7.3-9.8,12-24.7,12-24.7c-0.3-6.3,16-21.9,19.4-25.1
	C206,246.8,207.8,246.6,210,246z"/>
<path fill="#FFFFFF" stroke="#000000" d="M198.4,47.3c-0.5,0.3-1,0.4-1.5,0.5c-0.2,0-0.5,0-0.7-0.1c-1.5-0.3-2.4-1.7-2-3.1
	c0-0.1,0.1-0.3,0.1-0.4c0.5-1.2,1.9-1.8,3.3-1.5c0.2,0,2.3,0.5,2.1,3l-0.1-0.2c0,0.1,0,0.2-0.1,0.3C199.4,46.4,198.9,47,198.4,47.3z
	"/>
<path fill="#FFFFFF" stroke="#000000" d="M190.1,463.4c-12.7,22.8-27.2,37.8-42,47.3c-7.2,4.6-14.5,7.8-21.7,10.1
	C77.2,536,30,503.3,30,503.3c0.3-4.3,24-26,24-26l0,0c16.3,15.9,45.7,31.9,91.3,13.3c0,0,25.9-8.5,47.6-32.6
	C192,459.8,191.1,461.6,190.1,463.4L190.1,463.4z"/>
<line fill="none" stroke="#000000" x1="284.5" y1="176.3" x2="290.5" y2="179.9"/>
<line fill="none" stroke="#000000" x1="278.3" y1="183.7" x2="286.7" y2="189.8"/>
<line fill="none" stroke="#000000" x1="268" y1="464.3" x2="272.6" y2="456.1"/>
<line fill="none" stroke="#000000" x1="282.7" y1="461" x2="290" y2="452.5"/>
<path fill="none" stroke="#000000" d="M234.3,89.3c2.7-1.3,6-1.7,6.7-0.7"/>
<path fill="none" stroke="#000000" d="M230,99c0.3-1.3,1.7-8.3,4.3-9.7"/>
<path fill="none" stroke="#000000" d="M231.3,108c0,0,2.3-0.3,2.7-1.7"/>
<path fill="none" stroke="#000000" d="M225.3,91c0,0-10.3-4.7-11-1.7"/>
<path fill="none" stroke="#000000" d="M278.3,302.3c1.3,0,1.3-9,1.3-9"/>
<path fill="none" stroke="#000000" d="M283,295.3c0,0-0.7,8.3,0.7,8.3"/>
<path fill="none" stroke="#000000" d="M309.6,318.8c-0.3,5.5-1,11.3-2,17.4"/>
<path fill="none" stroke="#000000" d="M318.2,366.2c-0.5,1.7-1.101,3.3-1.9,4.8"/>
<line fill="none" stroke="#000000" x1="188" y1="211.3" x2="182.7" y2="205.3"/>
<line fill="none" stroke="#000000" x1="194" y1="210.3" x2="189.7" y2="204"/>
<line fill="none" stroke="#000000" x1="200.3" y1="208.3" x2="196.7" y2="202"/>
<line fill="none" stroke="#000000" x1="205.7" y1="206.7" x2="203.3" y2="200.3"/>
<line fill="none" stroke="#000000" x1="186.7" y1="154.7" x2="189.7" y2="163.3"/>
<line fill="none" stroke="#000000" x1="182.3" y1="154.3" x2="182.7" y2="160.7"/>
<line fill="none" stroke="#000000" x1="177.7" y1="156.3" x2="177.3" y2="163"/>
<path fill="none" stroke="#000000" d="M230,99c0.3-1.3,1.7-8.3,4.3-9.7"/>
<path fill="none" stroke="#000000" d="M234,106.3c0.3-1.3-4.3-6-4-7.3"/>
<path fill="none" stroke="#000000" d="M299.7,167.3c0,0-7.3,3.3-7.7,1.3"/>
</svg>
