<?xml version="1.0" encoding="utf-8"?>
<!-- Generator: Adobe Illustrator 15.0.0, SVG Export Plug-In . SVG Version: 6.00 Build 0)  -->
<!DOCTYPE svg PUBLIC "-//W3C//DTD SVG 1.1//EN" "http://www.w3.org/Graphics/SVG/1.1/DTD/svg11.dtd">
<svg version="1.1" id="layer_x5F_www.ABC-color.com"
	 xmlns="http://www.w3.org/2000/svg" xmlns:xlink="http://www.w3.org/1999/xlink" x="0px" y="0px" width="822px" height="567px"
	 viewBox="0 0 822 567" enable-background="new 0 0 822 567" xml:space="preserve">
<rect display="none" fill="#FFFFFF" width="822" height="567"/>
<path fill="#FFFFFF" stroke="#000000" stroke-width="0.5" d="M499.4,168.9c1.198-0.6,2.1-0.8,2.6-0.4c2.9,2.4-8.7,12.7-9.3,13.2
	c0.3-0.1,5.5-1.7,10.3-2.2c5-0.5,2.5,3,2.5,3l-7.8,3.2c0,0-4.2,3.8-7.7,4.3c0,0-27.9,28.7-48.5,29c-7.9,0.1-25.3-12.6-26.5-18.6
	c3.6-1.5,6.6-3.9,8.9-7l0.1,0.1l15.5,10.5c0,0,29.5-8,39.5-17c0,0,0.3-1.2,5-5.7l7-9.3C495.5,168.4,498.5,168.7,499.4,168.9z"/>
<path fill="#FFFFFF" stroke="#000000" stroke-width="0.5" d="M413,311.6c-9.8-2.6-18.4-5.199-22.8-6.6c-2-0.6-3.102-1-3.102-1
	s-7.198,7.4-17,15c-10.5,8.2-24.1,16.5-35,16c-20.698-1-11.3-21.4-11-22c-32,11-39-3-39-3c-10-14,30-25,30-25c-44,7-36-20-36-20
	c45.9,0.5,68.9-8.3,80.4-17.1l0.2,0.3c0,0,15.3,37.7,42.8-5.3l0.1-0.3c32.4,13,77.4,6.4,77.4,6.4c6,9-13,11-13,11c30-1,27,12,27,12
	c-3,24.7-54.7,9.4-56,9c0.4,0.2,7.2,3.6,14.5,7.5c7.5,4,15.5,8.5,17.5,10.5c4,4-8,18-8,18C455.7,321.6,432,316.7,413,311.6z"/>
<path fill="#FFFFFF" stroke="#000000" stroke-width="0.5" d="M469.5,493c1,5-6,8-6,8c-12.8-1.2-19.8-25-22.1-34.6l0,0
	c0,0,11.6,11.6,9.6-5.4l0,0C459.9,472.2,469.5,493,469.5,493z"/>
<path fill="#FFFFFF" stroke="#000000" stroke-width="0.5" d="M444,424.7c2.5,16.898,4.5,33.3,4.5,33.3c0.8,0.9,1.7,1.9,2.5,3l0,0
	c2,17-9.6,5.4-9.6,5.4l0,0c-0.602-2.4-0.9-3.9-0.9-3.9l-11-36.5c-0.5-0.4-0.9-0.9-1.3-1.3c-13.8-14.602-15.7-45.2-15.7-45.2
	c-9.5-7-22.4-74.5-22.4-74.5c4.4,1.4,13,4,22.802,6.6c9.5,4.102,23.5,76.9,23.5,76.9C438.7,391.7,441.6,408.4,444,424.7z"/>
<path fill="#FFFFFF" stroke="#000000" stroke-width="0.5" d="M401,160.9c1.9-0.6,3.9-0.9,6-0.9c3.5,0,6.9,0.9,9.8,2.4
	c6.7,3.5,11.2,10.5,11.2,18.6c0,4.7-1.5,9-4.1,12.4c-2.302,3.1-5.302,5.5-8.9,7c-2.5,1-5.2,1.6-8,1.6c-5.2,0-10-1.9-13.6-5
	c-4.5-3.9-7.4-9.6-7.4-16C386,171.5,392.3,163.5,401,160.9z"/>
<path fill="#FFFFFF" stroke="#000000" stroke-width="0.5" d="M406,137c20,8,11,25,11,25l-0.2,0.4c-2.898-1.5-6.3-2.4-9.8-2.4
	c-2.1,0-4.1,0.3-6,0.9c-2.4-0.9-15.2-0.6-15.2-0.6L387,146c9.3-13.3-0.7-31-0.7-31c-11.7,7.7-24.3,2-24.3,2s1.9-7.8-1.5,1.5
	c-3.6,10-2,18.5,3.5,27c1.6,2.4,4.1,3.5,6.9,3.8l-2.4,11.2c-2.6,1.1-10.6-0.9-11.5,1.8l-0.1,0.1c-3.602-2.8-8-4.4-12.9-4.4
	c-5.8,0-11,2.4-14.9,6.1c-4.898-1.9-8.1-8.5-7.1-11.8c2.3-8,13-9,14.3-11.3c7.2-12.5,6.7-16,6.7-16c8.5-28,5-15.8,8.3-23
	c0,0,29.8,14.8,46.5-0.5C412.1,117.1,406,137,406,137z"/>
<path fill="#FFFFFF" stroke="#000000" stroke-width="0.5" d="M402.6,242.5l-0.1,0.3c-27.5,43-42.8,5.3-42.8,5.3l-0.2-0.3
	c11-8.4,11.5-16.8,11.5-16.8c7.6,5.9,12-1,12-1C388.4,235.4,395.2,239.5,402.6,242.5z"/>
<path fill="#FFFFFF" stroke="#000000" stroke-width="0.5" d="M363,93.9c0.2-1,1.2-7,4.5-12.2c1.4-2.3,3.3-4.4,5.8-5.9
	c0,0,1.8,1.5,3.5,4.3c1.7,2.7,3.4,6.7,3.102,11.5c0,0.4,0,0.7-0.102,1.1c0,0.1,0,0.1,0,0.1s0,0,0-0.1c0.2-1,1.4-7.3,5.5-12.6
	c1.5-1.9,3.3-3.6,5.7-5l1.3,0.3c11.3,11.8,5.5,26.3,5.5,26.3c-16.8,15.3-46.5,0.5-46.5,0.5s-9.3-13,3.5-24.8c0,0,2.3,1.4,4.5,4.2
	C361.6,84.2,363.7,88.4,363,93.9z"/>
<path fill="#FFFFFF" stroke="#000000" stroke-width="0.5" d="M394.5,470.5c9,4.5,3,12.5,3,12.5L374,505c0,0-13,3-16,0s3-5,3-5
	c8.7-0.6,14.6-10.5,18-18.7C379,481.3,382.7,484,394.5,470.5z"/>
<path fill="#FFFFFF" stroke="#000000" stroke-width="0.5" d="M378.7,426.3C378.1,407.1,378,389,378,389c-6-9.9-8-69-8-70
	c9.8-7.6,17-15,17-15s1.1,0.4,3.1,1l4.9,85c0,0,2.5,23.9,0.2,36.2c-0.102,0.6-0.2,1.1-0.4,1.7c-2.898,11.898-0.3,42.698-0.3,42.698
	C382.7,484,379,481.3,379,481.3c2.5-5.898,3.6-11,3.6-11C380.5,466.8,379.3,446,378.7,426.3z"/>
<path fill="#FFFFFF" stroke="#000000" stroke-width="0.5" d="M393.4,197l-0.2,0.2L383,230c0,0-4.4,6.9-12,1l-8-38
	c0,0-0.4-1.3-0.9-3.3c1.9-3.1,2.9-6.8,2.9-10.7c0-6.7-3.2-12.7-8.1-16.6l0.1-0.1c0.9-2.8,8.9-0.7,11.5-1.8L377,171l8.8-10.8
	c0,0,12.8-0.2,15.2,0.6c-8.7,2.6-15,10.6-15,20.1C386,187.4,388.9,193.1,393.4,197z"/>
<path fill="#FFFFFF" stroke="#000000" stroke-width="0.5" d="M370.9,149.3c-2.802-0.3-5.4-1.4-6.9-3.8c-5.5-8.5-7.1-17-3.5-27
	c3.4-9.3,1.5-1.5,1.5-1.5s12.7,5.7,24.3-2c0,0,10,17.7,0.7,31C387,146,378,150.1,370.9,149.3z M386.8,126.2c0-1.5-1.1-2.7-3.8-2.7
	s-5.7,2.2-6.8,3.3c-1,1,2.898,1.2,5.7,1.2C384.6,128,386.8,127.6,386.8,126.2z M379.1,139.1c0,0-1.5-0.2-5.1,1.2
	c0,0-3.1-1.4-5.5-0.7c0,0,1.5,2.1,5.2,3.4C374.1,143.1,377.3,142.6,379.1,139.1z M366.5,128c2.9,0,5.1,0,5-0.8
	c-0.2-1.2-2.5-2.9-5-3.5c-2.8-0.7-5.2,1-5.2,2.2C361.3,127,363.6,128,366.5,128z"/>
<path fill="#FFFFFF" stroke="#000000" stroke-width="0.5" d="M387,146l-1.3,14.3L377,171l-8.5-10.5l2.4-11.2
	C378,150.1,387,146,387,146z"/>
<path fill="#FFFFFF" stroke="#000000" stroke-width="0.5" d="M383,123.5c2.8,0,3.8,1.2,3.8,2.7s-2.2,1.9-5,1.9s-6.7-0.2-5.7-1.2
	C377.3,125.7,380.2,123.5,383,123.5z"/>
<path fill="#FFFFFF" stroke="#000000" stroke-width="0.5" d="M385,79.8l0.3,0.3c-4.2,5.3-5.398,11.6-5.5,12.6
	c0-0.4,0.102-0.8,0.102-1.1c0.3-4.8-1.4-8.7-3.102-11.5l0,0c0,0,3-4.3,4.5-4.3C381.3,75.8,385,78,385,79.8z"/>
<path fill="#FFFFFF" stroke="#000000" stroke-width="0.5" d="M374,140.3c3.6-1.4,5.1-1.2,5.1-1.2c-1.898,3.5-5,4-5.398,3.9
	c-3.8-1.3-5.2-3.4-5.2-3.4C370.9,138.9,374,140.3,374,140.3z"/>
<path fill="#FFFFFF" stroke="#000000" stroke-width="0.5" d="M371.5,127.2c0.1,0.9-2.1,0.8-5,0.8s-5.2-1-5.2-2.2
	c0-1.2,2.4-2.9,5.2-2.2C369,124.3,371.3,126,371.5,127.2z"/>
<path fill="#FFFFFF" stroke="#000000" stroke-width="0.5" d="M363.3,75.3c0,0,3.8,2.7,4.3,6.4c-3.3,5.2-4.3,11.2-4.5,12.2
	c0.7-5.4-1.5-9.6-3.698-12.4C359.6,80.7,361.9,76.2,363.3,75.3z"/>
<path fill="#FFFFFF" stroke="#000000" stroke-width="0.5" d="M362.1,189.7C358.4,195.9,351.7,200,344,200c-0.8,0-1.7,0-2.5-0.1
	c-4.9-0.6-9.3-2.9-12.6-6.3c-3.7-3.8-5.9-8.9-5.9-14.6c0-5.8,2.4-11,6.1-14.9c3.802-3.8,9.102-6.1,14.9-6.1c4.9,0,9.4,1.7,12.9,4.4
	c4.898,3.8,8.1,9.8,8.1,16.6C365,182.9,363.9,186.6,362.1,189.7z"/>
<path fill="#FFFFFF" stroke="#000000" stroke-width="0.5" d="M242.5,257.5c0-7,23.2-10.8,23.2-10.8c14.7,1.7,62.8-52.7,62.8-52.7
	l0.4-0.4c3.3,3.4,7.698,5.7,12.6,6.3v0.1c0,0-22.2,30.3-35.5,38.5c0,0-35.2,12.9-35.7,16.8c-1,8-20.7,14.4-19.7,13.3
	c1.1-1.1,0.6-1.8,1.3-2.7c0.5-0.7,1.1-2,3.7-3.3c2.7-1.3,2.7-1.3,3.3-1.7c1.1-0.8-1.5-0.2-1.7-0.7c-0.3-1-13.6,6.8-14.3,3.2v-0.1
	c-0.9,0.2-1.4,0.1-1.5-0.4c-0.1-0.8,0.4-1.5,1.3-2.2l-0.1-0.1C240.7,260.3,242.5,257.5,242.5,257.5z"/>
<line fill="none" stroke="#000000" stroke-width="0.25" x1="315" y1="285" x2="354.8" y2="269.3"/>
<line fill="none" stroke="#000000" stroke-width="0.25" x1="324" y1="313" x2="361" y2="280.5"/>
<line fill="none" stroke="#000000" stroke-width="0.25" x1="387" y1="304" x2="384" y2="284.5"/>
<line fill="none" stroke="#000000" stroke-width="0.25" x1="438" y1="281" x2="398.5" y2="270"/>
<line fill="none" stroke="#000000" stroke-width="0.25" x1="467" y1="260" x2="407" y2="257.5"/>
<line fill="none" stroke="#000000" stroke-width="0.25" x1="502" y1="168.5" x2="493" y2="176.3"/>
<path fill="none" stroke="#000000" stroke-width="0.25" d="M365.7,125.9c0-0.3,0.2-0.6,0.5-0.6s0.5,0.3,0.5,0.6"/>
<path fill="none" stroke="#000000" stroke-width="0.25" d="M381.8,125.7c0.3,0,0.602,0.2,0.602,0.5c0,0.3-0.302,0.5-0.602,0.5"/>
<line fill="none" stroke="#000000" stroke-width="0.25" x1="356" y1="97.5" x2="355.3" y2="85.3"/>
<line fill="none" stroke="#000000" stroke-width="0.25" x1="372.3" y1="85.5" x2="372" y2="99"/>
<line fill="none" stroke="#000000" stroke-width="0.25" x1="390.3" y1="84.3" x2="390" y2="96.8"/>
<path id="www.ABC-color.com" fill="none" stroke="#000000" stroke-width="0.25" d="M372.6,135c0,0-1-0.3-1,0.5"/>
<path fill="none" stroke="#000000" stroke-width="0.25" d="M374.4,135c0,0,1.1-0.3,1,0.9"/>
<line fill="none" stroke="#000000" stroke-width="0.25" x1="242.8" y1="257.4" x2="254.7" y2="252.7"/>
<path fill="none" stroke="#000000" stroke-width="0.25" d="M491.9,174.6c2.698-2.4,5.3-4.4,7.198-5.5"/>
<path fill="none" stroke="#000000" stroke-width="0.25" d="M243,260.6c4-3,14.3-5.6,14.3-5.6"/>
<path fill="none" stroke="#000000" stroke-width="0.25" d="M259,257.3c-5.5,0.8-12.3,5-15.6,6"/>
<line fill="none" stroke="#000000" stroke-width="0.25" x1="490.3" y1="183.7" x2="492.7" y2="181.7"/>
<path fill="none" stroke="#000000" stroke-width="0.25" d="M374.9,135.3c-1.302-3.4-2.802-0.3-2.802-0.3"/>
<path fill="none" stroke="#000000" stroke-width="0.25" d="M360.5,121.9c0,0,2,2.2,2.9,2"/>
<path fill="none" stroke="#000000" stroke-width="0.25" d="M362.4,121.9c0,0,0.5,1.2,2.198,1.7"/>
<path fill="none" stroke="#000000" stroke-width="0.25" d="M359.9,123.5c0,0,1,0.8,2.5,0.9"/>
<path fill="none" stroke="#000000" stroke-width="0.25" d="M387.4,122.7c0,0,0,1.4-1.602,1.4"/>
<path fill="none" stroke="#000000" stroke-width="0.25" d="M386.8,121.4c0,0-0.6,1.9-1.8,2.1"/>
<path fill="none" stroke="#000000" stroke-width="0.25" d="M385,121.4c0,0-0.7,2-2,2.1"/>
</svg>
