<?xml version="1.0" encoding="utf-8"?>
<!-- Generator: Adobe Illustrator 15.0.2, SVG Export Plug-In . SVG Version: 6.00 Build 0)  -->
<!DOCTYPE svg PUBLIC "-//W3C//DTD SVG 1.1//EN" "http://www.w3.org/Graphics/SVG/1.1/DTD/svg11.dtd">
<svg version="1.1" id="layer_x5F_www.ABC-color.com"
	 xmlns="http://www.w3.org/2000/svg" xmlns:xlink="http://www.w3.org/1999/xlink" x="0px" y="0px" width="822px" height="567px"
	 viewBox="0 0 822 567" enable-background="new 0 0 822 567" xml:space="preserve">
<polyline fill="none" stroke="#000000" points="16.2,540.4 17.6,548.4 19.4,540.5 21.2,548.4 22.7,540.4 "/>
<polyline fill="none" stroke="#000000" points="24,540.5 25.3,548.3 27.1,540.4 28.6,548.3 30.4,540.4 "/>
<polyline fill="none" stroke="#000000" points="31.7,540.4 32.9,548.1 34.7,540.4 36.3,548.1 37.8,540.4 "/>
<line fill="none" stroke="#000000" x1="51.2" y1="537.1" x2="51.2" y2="548.7"/>
<line fill="none" stroke="#000000" x1="61.9" y1="544.5" x2="63.8" y2="544.5"/>
<polyline fill="none" stroke="#000000" points="77.2,537 77.2,548.8 80,548.8 "/>
<path fill="none" stroke="#000000" d="M69.2,547.3c-0.3,0.8-0.9,1.3-1.4,1.3c-1.1,0-1.9-1.8-1.9-4c0-2.199,0.9-4,1.9-4
	c0.7,0,1.2,0.7,1.6,1.7"/>
<path fill="none" stroke="#000000" d="M72.3,548.8c-0.9,0-1.7-1.899-1.7-3.8c0-2.2,0.9-4,1.9-4s1.9,1.8,1.9,4s-0.6,3.7-1.4,3.7"/>
<path fill="none" stroke="#000000" d="M60.2,547.1c-0.4,0.801-0.9,1.301-1.4,1.301c-1.1,0-1.9-1.801-1.9-4c0-2.2,0.9-4,1.9-4
	c0.7,0,1.2,0.699,1.6,1.699"/>
<path fill="none" stroke="#000000" d="M51.2,542.3c0.3-0.6,1.3-0.6,1.8-0.6c0.7,0,1.7,1,1.7,3.3c0,1.3,0,2.3-0.9,2.9
	c-0.2,0.199-0.8,0.399-1.1,0.399"/>
<path fill="none" stroke="#000000" stroke-width="1.0581" d="M44.9,541c0,0,3.6-3.2,3.3,2.4c0,0-0.1,3.5,0.1,4.399
	c0.1,0.4,0.9,0.4,0.9,0.4"/>
<path fill="none" stroke="#000000" d="M40.8,548.4c0.7,0,0.7-1.101,0-1.101C40.1,547.3,40.1,548.4,40.8,548.4L40.8,548.4z"/>
<path fill="none" stroke="#000000" d="M82,549c-0.8,0-1.2-2.2-1.2-4c0-2.2,0.9-4,1.9-4s1.9,1.8,1.9,4s-0.9,4-1.9,4"/>
<line fill="none" stroke="#000000" x1="86.6" y1="540.4" x2="86.5" y2="549.2"/>
<path fill="none" stroke="#000000" d="M90,541.6c0,0-2.2-2.3-3.4,1.4"/>
<line fill="none" stroke="#000000" x1="107.7" y1="540.8" x2="107.7" y2="549.3"/>
<path fill="none" stroke="#000000" d="M111.4,549.3v-6c0,0-1.5-3.899-3.7,0"/>
<path fill="none" stroke="#000000" d="M114.9,549.3v-6.1c0,0-1-3.601-3.5-0.2"/>
<path fill="none" stroke="#000000" d="M99.1,547.4c-0.3,0.8-0.9,1.3-1.4,1.3c-1.1,0-1.9-1.8-1.9-4s0.9-4,1.9-4
	c0.7,0,1.2,0.7,1.6,1.7"/>
<path fill="none" stroke="#000000" d="M102.7,548.6c-1.1-0.5-2.2-7.699,0.9-7.899c1.1-0.101,1.9,1.8,1.9,4s-0.9,4-1.9,4"/>
<path fill="none" stroke="#000000" d="M92.2,549.1c0.7,0,0.7-1.1,0-1.1C91.5,548,91.5,549.1,92.2,549.1L92.2,549.1z"/>
<path fill="none" stroke="#000000" d="M48.2,544.9c-0.3-0.601-0.6-1.4-1.7-1.4c-0.7,0-1.6,0.1-1.6,2.4c0,1.3,0.5,1.8,0.9,2
	c0.2,0.1,0.8,0.399,1.1,0.399"/>
<path fill="#FFFFFF" stroke="#1F1E21" d="M822.5,416.5v151H421.4c5.899-5.8,22.5-7.5,29.899-9.1c13.7-3,28.101-1.101,41.7-5
	c8.6-2.5,17.6-4,26.2-7c12.3-4.301,24-11.2,35.8-16.5c10.8-4.9,22.1-8.7,32.9-13.5c6-2.7,12-4.7,17.8-7.5c2.1-1,4.5-2.101,6.8-2.301
	c1.9,5,3,8,3,8s-4.3,24.301-15.7,27c0,0-5.3,6.7-9.3,6.301c-4-0.301-10,8-0.3,8.3s20.7,1,20.7,1s25-18.7,33.3-22.3
	c0,0,7.3-9,1-14.301c0,0-8.9-7.199-13.8-21.3c5.399-3.899,11.6-4.1,17.1-7.3c6-3.5,13.9-8.4,19.7-12.1l0,0
	c3.8,12,7.2,20.6,8.7,20.699L679.6,546.9c0,0,19.301,24.3,32.301,0c0,0-11.301-24-13-28.7c-1.7-4.7-1-15.7-6.7-26.7
	c0,0,1-7.4,1.3-19c8,0.1,16.3-8.3,22.3-12.8c8.7-6.5,17.3-12.2,26.5-18.101c11.4-7.3,22.5-11.8,34.9-16.399
	c11.3-4.2,31.8-13.8,43.3-8.7H822.5L822.5,416.5z"/>
<path fill="#FFFFFF" stroke="#1F1E21" d="M822.5,249.2v167.3h-2c-11.5-5.2-32,4.5-43.3,8.7c-12.4,4.6-23.5,9.1-34.9,16.399
	c-9.2,5.9-17.8,11.601-26.5,18.101c-6.1,4.5-14.3,13-22.3,12.8c0.5-18.5-0.8-47.9-10.8-75.1c0,0,0,0,0-0.101c-0.2-0.5-0.4-1-0.5-1.5
	c-0.5-1.399,0-1.3,0-1.3l2-58l0.2-0.3c83.699,55,101.5-52.101,101.5-52.101l-6.9-19.2l0.2-0.1c9.3-4,21-7.3,30-11.9
	C814.3,250.4,816.5,249.2,822.5,249.2z"/>
<path fill="#FFFFFF" stroke="#1F1E21" d="M514.1,284.8c0,0-0.1,0.2-0.199,0.5c-0.7,2-3.801,9.9-6.5,11.9l-2.301-0.3l-65.699-133
	l-26-24l4,38.7l79.3,136.7l0.7,0.2l-0.4,1.8l-3.3,5l-9,2.7l-2.7,13.7l14-1l4.3-7.7l2.4,1.2l2.3,1.1c0,0-4,4,4.3,6.3
	c0,0-4.7,6.7,5,5.301c0,0-1.7,7.3,4.3,4.3c0.5-0.3,1-0.5,1.5-0.8l2.5,3.5L517.9,355.6c0,0-0.301,5.301,3,3.301
	c7.199-4.301,18.699-12,18.699-12l-1-4h-4.3c0,0-3.3,2.699-5.3,0.699c-0.7-0.699-1.1-1.1-1.3-1.3c2-1.6,3.3-2.7,3.3-2.7
	s0.3-5.3-4.3-4.3c0,0-1.3-8-5.3-5.7c0,0,2-6.699-2-5l-0.101-0.1c0.8-0.4,1.7-0.8,3.101-1.5c4.3-2.3,2.699-10.7,2.699-10.7l9.7-2.7
	l3-9.3l-10.3-5.3l4.3-3c0,0-0.2-0.3-0.6-0.9l0.3-0.1c3.8-4.3,5.9-8.1,10.1-11c0.5-0.4,1-0.7,1.5-1c0.101-2,0-4.2,0.101-6.2
	c0.1,0,0.2-0.1,0.399-0.1c3.601-1.5,2.4-4.6,2.601-8.5c0,0,0,0,0.1,0c2.2-0.8,3.2,0.9,3.4-3.7c0.1,0,0.2-0.2,0.399-0.4
	c0.801-1.4,2.2-6,1.2-7.5c0.101,0,0.101,0,0.2-0.1c3.4-1,4.1-2,3.3-6.4c0-0.1,0-0.2,0-0.3c2.2-1.6,3.8-2.6,2.601-5.6l0.3-0.1
	c0,0-0.7-2.1-2.601-4.6c12.101-16.8,22.801-58.8,22.801-58.8c0.399-0.4,0.8-0.9,1.199-1.4l0.301,0.2c0,0,5.3,19.3,7.699,20
	c0,0,0.7,13.3,5.301,17.3c0,0-3.301,11-0.7,14c0,0-9,13-8.7,14.3l-17,85.3c0,0,3.6,2.5,10.1,5.699c0.301,0.2,0.601,0.301,1,0.5
	c-0.8,3.301-3.699,15.7-5.3,30.4c-8.6,3.9-16.899,10.8-24.7,15.5c-9.399,5.8-17.8,8.8-20.5,19.5v0.7
	c-5.699,4.5-14.199,6.6-20.699,10c-7.4,3.8-11.801,9-17.5,14.7C479.3,432.3,464.9,440.8,452.7,444.6
	c-11.5,3.601-26.5,2.101-38.8,2.101c-10.7,0-21.301,0.3-32,0.7c-8.301,0.3-17.301,1.5-26.4,3.6l-0.2-0.9c0-6.199-0.7-7.1-0.7-13.3
	c9.5-0.1,30.9-5.899,28.7-18.7l-0.2-2.699c5.3-1.4,10.2-3.7,12.3-8.7c3.4-8.101-3.5-18.9-5.399-26.7l-0.101-0.3
	c5.601-1.5,10.301-5,11.4-14.3c0.8-6.601,1.9-16.4-3-21.801c-2.4-2.6-5.8-2.8-7.8-5.3c-2.5-3.1-12-20.6-15.9-23.6
	c-9.1-7.2-13.1,5.3-23.3,6l-0.1,0.1c-4.2-5.1-11.4-7-16.5-4.8c-5.2,2.2-10.101,12.8-13.9,16.5c-4.2,4.2-13.6,6.2-16.7,11.8
	c-3.3,5.9,2.2,15.2,5.2,19.7l0.3,0.5c-11.8,7.6,4,36.4,11.8,37.5l1,0.1c1.101,12.201,11.5,27.301,21.7,32.9c0,6.9,0,11.3,0,18.3
	l0.2,0.601c-12.8,3.8-25.2,9.199-35.3,15.399c-12.8,7.9-31.9,18.2-41.7,29.4c-4.1,4.7-3.8,9.2-9.2,13.3c-0.2,0.2-0.4,0.3-0.7,0.5
	l-0.7-1.1L252,316.1h-16.7L236,333.4h-12v-16.7l-12,0.7l-1.3,17.3l-11.3-0.7l-0.7-14.7l-16,1.3l-0.7,14h-10.7L170,319.9l-3.3,0.1
	l-3.3-222.8v-1c3.3-0.1,6-0.2,8-0.3c20.7-1.3,20.7-36.7,20.7-36.7l-0.7-26.7l-17.3-1.3l-0.7,14h-13.3v-12l-20,0.7l-2.7,14.7h-11.3
	l-2-14.7h-18l-0.7,15.3H88.5l0.7-15.3h-18v16l-11.3-1.3l-2-15.3l-14,0.7c-2.7,68,8.7,62,8.7,62s4.3,0.1,11.3,0.1
	c0,0,2.5,211.1,3.3,224.5h-5.9v16h-14l0.7-16H30l0.7,16.7H13.2v-16H0.5V0.5h822v248.7c-6,0-8.2,1.3-13.3,3.9
	c-9,4.6-20.7,7.8-30,11.9l-0.2,0.1l-46.1-127.8c-5.9,5.5-14.5,10.4-24.5,14.7l-0.2-0.4c0,0,2-19,1-19s-8-8.3-9-7.7
	c-16.3-21-38.7-16-38.7-16s0-0.1,0.1-0.1c0,0-0.1,0.1-0.3,0.2c-2.8,1.2-21.8-4.4-21.1-2.1L636.6,96.4c0,0,26.5-14.9,5.801-55.7
	c0,0-12.301-15-42.7-11.2c-18.8,2.3-19.3,8.3-15.101,13l-0.3,0.3c-9.2,7.9,2.3,18.3,2.3,18.3s0,0.5,0.101,1.4c0,0.3,0.1,0.7,0.1,1.1
	c0.7,8.1,3.3,33.3,9.4,35.4l-1.7,11l-24,8.6c-6.5-1.5-14.8,2-23.3,19.6c0,0-9,20-7,23c0,0-8.3,9.7-7,25c0,0,1,0,2.7-0.1v0.4
	c0,0-8.4,38.6-6.101,42c-1.3,0.4-2.5,0.8-3.899,1.4c-3.7-1.7-3.301,5.3-3,6c-5.301,3.6-2.101,6-1.801,6.5c-0.1,0-0.1,0.1-0.199,0.1
	c-2.601,0.4-0.601,7.3-0.301,7.8c-1.5,1.6-1.699,7-1.899,7c-1.2,1.2-2.2,5.4,0.2,5.6c-2.101,0.3-1.2,6.3-1.4,9.3
	c0,0.6-0.1,1-0.2,1.4C515.8,277.3,513.9,280.2,514.1,284.8z M425.2,65.2c0.899-12.2-6.9-16.4-17.5-16.6c-3.3-3.5-8.601-5.5-13.8-6
	c-11.801-1.1-22.4,5.3-33.601,7.5c-11.8,2.3-23.8-0.7-35.7,1.6C312,54,304.8,63.8,295,67c-8.9,2.9-15.9,5.5-16.6,16.7
	c-0.3,5.6,1.9,10.5,5.9,13.2l0.2,1.6c0,4.1-0.7,9.1,2,12.3c4.3,5.2,15.3,6,21.5,6.3c8.3,0.4,19.2-1.7,26.3-7l0.3,0.4
	c21.101,0,38.5,0.2,48-17.5l0.601,0.2c12-0.1,20.7-4.9,31.399-10.3C421.5,79.4,424.6,72.9,425.2,65.2z"/>
<path fill="#FFFFFF" stroke="#1F1E21" d="M666.7,165.7c14.2-3.7,29-8.3,41.7-13.8c10-4.3,18.6-9.2,24.5-14.7l46,127.8l6.899,19.2
	c0,0-17.8,107.1-101.5,52.1c-0.3-0.2-0.6-0.399-1-0.6c-2.3-1.601-4.8-3.3-7.2-5.101L651.2,270.9L612.1,177
	C612.2,176.8,638.1,173.1,666.7,165.7z M779.2,288.5l-51.7-134.3c0,0-58.7,33.3-99.3,33.7l58.7,138.3
	C686.8,326.2,736.5,379.2,779.2,288.5z"/>
<path fill="#FFFFFF" stroke="#1F1E21" d="M727.5,154.2l51.7,134.3c-42.7,90.7-92.3,37.7-92.3,37.7l-58.7-138.3
	C668.8,187.5,727.5,154.2,727.5,154.2z M771.2,279.1l-5-5.9l0.5-8.3l-7.5,3.9l-7.4-3.9l1.4,8.3l-6,5.9l8.3,1.2l3.7,7.5l3.7-7.5
	L771.2,279.1z M736.5,254.2l6.4-5.4l-8.2-1.8l-3.2-7.7l-4.2,7.2l-8.3,0.6l5.6,6.2l-2,8.1l7.7-3.4l7.101,4.4L736.5,254.2z
	 M734.5,289.1l4.8-6.8l-8.3,0.3l-4.9-6.7l-2.3,8l-7.899,2.6l6.899,4.7v8.3l6.601-5.1l7.899,2.5L734.5,289.1z M726.4,201.7
	c1.399-0.6,2.1-2.2,1.5-3.7c-0.601-1.5-2.2-2.2-3.601-1.7c-1.399,0.5-2.1,2.2-1.5,3.7c0,0.1,0.101,0.3,0.2,0.4l-11.5,6.4l-6-10.1
	c1.2-0.7,1.7-2.2,1.1-3.5c-0.6-1.5-2.199-2.2-3.6-1.7c-1.4,0.6-2.1,2.2-1.5,3.7c0.3,0.7,0.8,1.2,1.4,1.5l-6.101,13.5l-13.7-5.7
	c0.2-0.6,0.301-1.4,0-2.1c-0.6-1.5-2.199-2.2-3.6-1.7c-1.4,0.6-2.1,2.2-1.5,3.7c0.5,1.3,1.9,2.1,3.2,1.8l2.5,11.5l-13.3,3.2
	c0-0.2-0.101-0.3-0.101-0.5c-0.6-1.5-2.199-2.2-3.6-1.7c-1.4,0.6-2.1,2.2-1.5,3.7s2.2,2.2,3.6,1.7c0.7-0.3,1.301-0.9,1.5-1.5
	l18.101,11.5c0,0,10.8-13.4,30.8-12.1l5.3-20.3C725,201.9,725.7,202,726.4,201.7z M708.2,263.5l6.1-7.1l-9.399-0.5l-4.9-8l-3.4,8.8
	l-9.199,2.2l7.3,5.9l-0.8,9.4l7.899-5.1l8.7,3.6L708.2,263.5z M698.3,301.7l6.7-3.4l-6.8-3.2L697,287.7l-5.1,5.5l-7.4-1.101
	l3.6,6.601L684.4,306.1l7.399-1.399l5.7,4.6L698.3,301.7z"/>
<polygon fill="#FFFFFF" stroke="#1F1E21" points="766.2,273.2 771.2,279.1 762.9,280.3 759.2,287.8 755.4,280.3 747.1,279.1 
	753.1,273.2 751.7,264.9 759.2,268.8 766.6,264.9 "/>
<polygon fill="#FFFFFF" stroke="#1F1E21" points="742.9,248.8 736.5,254.2 737.3,262.5 730.2,258.1 722.6,261.5 724.6,253.3 
	719,247.1 727.3,246.5 731.5,239.3 734.7,247 "/>
<polygon fill="#FFFFFF" stroke="#1F1E21" points="739.4,282.3 734.5,289.1 737.3,296.9 729.4,294.4 722.9,299.5 722.8,291.2 
	716,286.5 723.8,283.9 726.2,275.9 731.1,282.6 "/>
<path fill="#FFFFFF" stroke="#1F1E21" d="M727.9,198c0.6,1.5-0.101,3.1-1.5,3.7c-0.601,0.3-1.301,0.2-1.9,0l-5.3,20.3
	c-20-1.3-30.8,12.1-30.8,12.1L670.3,222.6c-0.3,0.7-0.8,1.3-1.5,1.5c-1.399,0.6-3-0.2-3.6-1.7c-0.601-1.5,0.1-3.1,1.5-3.7
	c1.399-0.6,3,0.2,3.6,1.7c0.101,0.2,0.101,0.3,0.101,0.5l13.3-3.2l-2.5-11.5c-1.3,0.3-2.7-0.5-3.2-1.8c-0.6-1.5,0.1-3.1,1.5-3.7
	c1.4-0.6,3,0.2,3.6,1.7c0.301,0.7,0.301,1.5,0,2.1l13.7,5.7l6.101-13.5c-0.601-0.3-1.101-0.8-1.4-1.5c-0.6-1.5,0.1-3.1,1.5-3.7
	s3,0.2,3.6,1.7c0.5,1.3,0,2.8-1.1,3.5l6,10.1l11.5-6.4c-0.1-0.1-0.1-0.2-0.2-0.4c-0.6-1.5,0.101-3.1,1.5-3.7
	C725.7,195.7,727.3,196.5,727.9,198z"/>
<polygon fill="#FFFFFF" stroke="#1F1E21" points="714.3,256.4 708.2,263.5 710.6,272.6 701.9,269 694,274.1 694.7,264.7 
	687.4,258.8 696.6,256.6 700,247.8 704.9,255.8 "/>
<path fill="#FFFFFF" stroke="#1F1E21" d="M709.2,132.5c1,0-1,19-1,19l0.2,0.4c-12.7,5.5-27.5,10.1-41.7,13.8
	c-3.5-3.5-6.3-6.8-8.601-10.1c-0.3-0.5-0.699-1-1-1.4l37.801-7.7c7.699-1.3,4.3-21,5.3-21.7C701.2,124.2,708.2,132.5,709.2,132.5z"
	/>
<path fill="#FFFFFF" stroke="#1F1E21" d="M693.5,472.5c-0.3,11.6-1.3,19-1.3,19c5.7,11,5,22,6.7,26.7c1.699,4.7,13,28.7,13,28.7
	c-13,24.3-32.301,0-32.301,0L676.9,500.6c-1.5-0.1-4.9-8.8-8.7-20.699c-7.3-23.101-16.101-58.7-15-69.301c0-0.399,0.1-0.899,0.1-1.3
	c0.101-2.7-0.2-6.1-0.7-9.899c0.601-3,6.9-32.601,12.601-30.101c5.8,2.601,16.899,26.601,17.5,28.2v0.1
	C692.7,424.6,694,454,693.5,472.5z"/>
<polygon fill="#FFFFFF" stroke="#1F1E21" points="704.9,298.3 698.3,301.7 697.3,309.2 691.7,304.6 684.3,306 688,298.6 684.4,292 
	691.8,293.2 697,287.7 698.2,295.1 "/>
<path fill="#FFFFFF" stroke="#1F1E21" d="M700.2,124.8c-1,0.7,2.3,20.3-5.3,21.7l-37.801,7.7c-17.5-26.3,1.801-43.4,4.301-45.2
	c0.1,0,0.199-0.1,0.199-0.1C661.5,108.8,683.8,103.8,700.2,124.8z"/>
<path fill="#FFFFFF" stroke="#1F1E21" d="M684.3,336.2l-0.2,0.3l-2,58c0,0-0.5-0.1,0,1.3c0.2,0.5,0.4,1,0.5,1.5
	c-0.699-1.5-11.699-25.6-17.5-28.2c-5.699-2.5-12,27.101-12.6,30.101c-2.7-19.2-12.1-49.3-13.8-54.601c13.6-0.5,28.7-3.1,44.6-9
	C683.7,335.8,684,336,684.3,336.2z"/>
<path fill="#FFFFFF" stroke="#1F1E21" d="M576.9,332.4c-0.301-0.2-0.7-0.301-1-0.5c-6.5-3.2-10.101-5.7-10.101-5.7l17-85.3
	c0.3,1.3,14.3,14,14.3,19s28,16,38.7,8.7c0,0,12.601,2,15.5,2.3l24.9,59.7c2.5,1.801,4.899,3.5,7.2,5.101
	c-15.9,5.899-31,8.5-44.601,9c-7.7,0.3-15-0.101-21.7-0.9C599.6,341.6,585.7,336.5,576.9,332.4z"/>
<path fill="#FFFFFF" stroke="#1F1E21" d="M652.5,399.3c0.5,3.8,0.8,7.2,0.7,9.9c0,0.5,0,0.899-0.101,1.3c-1.1,10.5,7.7,46.1,15,69.3
	l0,0c-5.8,3.7-13.699,8.601-19.699,12.101C642.8,495.1,636.6,495.3,631.3,499.2c-1.899-5.4-3.2-11.9-3.2-19.3
	c0,0-4.3-58.301-12.699-62.7c0,0-14.7-17.7-14.7-20.3c0-2.5,4.3-48.301,16.2-53.101c6.699,0.8,14,1.2,21.699,0.9
	C640.4,349.9,649.8,380.1,652.5,399.3z"/>
<path fill="#FFFFFF" stroke="#1F1E21" d="M657,154.2c0.3,0.5,0.6,1,1,1.4c2.3,3.2,5.1,6.6,8.6,10.1c-28.6,7.4-54.5,11.2-54.5,11.2
	l39.101,93.9c-2.9-0.3-15.5-2.3-15.5-2.3c-10.7,7.3-38.7-3.7-38.7-8.7s-14-17.7-14.3-19c-0.3-1.3,8.7-14.3,8.7-14.3
	c-2.7-3,0.699-14,0.699-14c-4.699-4-5.3-17.3-5.3-17.3c-2.3-0.7-7.7-20-7.7-20l-0.3-0.2c0.2-0.4,0.4-0.8,0.601-1.1
	c0,0,2.5-10.3,4-21.3c1.3-9.1,1.899-18.6,0.1-23.2c0,0-5.3-9-13.2-10.8l24-8.6l14,9l2,0.3l5.3,0.7l6.7-1c0,0,18.3-9.7,17.7-12
	s18.3,3.4,21.1,2.1C658.8,110.8,639.5,127.9,657,154.2z"/>
<path fill="#FFFFFF" stroke="#1F1E21" d="M612.5,506.5c-7.7-20.5-28.2-74.7-37.3-96.7c-4.8-11.6-5.2-27.5-4-41.899
	c2.399,5,16.899,33.8,29.7,28.899c0,2.7,14.699,20.3,14.699,20.3c8.301,4.301,12.7,62.7,12.7,62.7c0,7.5,1.3,13.9,3.2,19.3
	c4.9,14.2,13.8,21.301,13.8,21.301c6.3,5.3-1,14.3-1,14.3C636,538.4,611,557,611,557s-11-0.7-20.7-1s-3.7-8.7,0.3-8.3
	c4,0.3,9.301-6.3,9.301-6.3c11.3-2.7,15.699-27,15.699-27S614.4,511.5,612.5,506.5z"/>
<path fill="#FFFFFF" stroke="#1F1E21" d="M643.4,61.6c1.5,1.3,3,4.3,1.199,11c-2.399,9.3-8,9.8-10.199,9.7l-0.9-0.1
	c0,0,0.3,0.1,0.9,0.1l2.199,0.3v13.7L625.9,106.8c0,0-7,4.7-3.301,12l-6.699,1l-5.301-0.7c1.301-4.3-4.399-10.3-4.399-10.3l-10-10
	c-6.101-2.1-8.7-27.3-9.4-35.4h0.101c6.3,5.3,13,0,13-0.3c-4.601-4.6-7.9-4.3-13.2-0.7C586.6,61.5,586.6,61,586.6,61l3.801-14
	c3.5,2,7,3,7.699,2c2.301-3.3,27.7-5.8,27.7-5.8s3.101,12.1,1.2,13.7c-1.9,1.7,6.9,15.8,7.3,12.1c0.4-3.7,6.9-8.3,6.9-8.3
	S642.3,60.7,643.4,61.6z M606.5,63.2c6.7,7.7,13.3-0.7,13.3-0.7C609.5,54.5,606.5,63.2,606.5,63.2z M611.5,88.5l-7,1l-6.3-1.6
	C598.2,87.9,603.2,97.1,611.5,88.5z"/>
<path fill="#FFFFFF" stroke="#1F1E21" d="M590.4,47c-2.101-1.2-4.301-2.8-5.801-4.5c-4.199-4.8-3.699-10.7,15.101-13
	c30.399-3.7,42.7,11.2,42.7,11.2c20.8,40.9-5.801,55.7-5.801,55.7V82.6l-2.199-0.3c2.199,0.2,7.8-0.4,10.199-9.7
	c1.801-6.8,0.301-9.7-1.199-11c-1.101-0.9-2.301-1-2.301-1s-6.5,4.6-6.899,8.3c-0.4,3.7-9.2-10.4-7.3-12.1
	c1.899-1.7-1.2-13.7-1.2-13.7s-25.4,2.5-27.7,5.8C597.4,50,593.9,49,590.4,47z"/>
<path fill="#FFFFFF" stroke="#1F1E21" d="M640.2,106.8c0.7,2.3-17.7,12-17.7,12c-3.7-7.3,3.3-12,3.3-12l10.7-10.5L640.2,106.8z"/>
<path fill="#FFFFFF" stroke="#1F1E21" d="M612.3,60.2c1.601,0,2.8,1,2.8,2.3s-1.3,2.3-2.8,2.3c-1.6,0-2.8-1-2.8-2.3
	S610.8,60.2,612.3,60.2z"/>
<path fill="#FFFFFF" stroke="#1F1E21" d="M619.8,62.5c0,0-6.7,8.4-13.3,0.7C606.5,63.2,609.5,54.5,619.8,62.5z M615.2,62.5
	c0-1.3-1.3-2.3-2.8-2.3c-1.601,0-2.801,1-2.801,2.3s1.301,2.3,2.801,2.3S615.2,63.8,615.2,62.5z"/>
<path fill="#FFFFFF" stroke="#1F1E21" d="M604.5,89.5l7-1c-8.3,8.7-13.3-0.5-13.3-0.5L604.5,89.5z"/>
<path fill="#FFFFFF" stroke="#1F1E21" d="M606.2,108.8c0,0,5.6,5.9,4.399,10.3l-2-0.3l-14-9l1.7-11L606.2,108.8z"/>
<path fill="#FFFFFF" stroke="#1F1E21" d="M571.2,367.9c-1.2,14.399-0.8,30.3,4,41.899c9.1,22,29.7,76.3,37.3,96.7
	c-2.4,0.2-4.8,1.3-6.8,2.3c-5.8,2.8-11.8,4.9-17.8,7.5C577.1,521.1,565.8,524.9,555,529.8c-11.8,5.3-23.5,12.2-35.8,16.5
	c-8.5,3-17.601,4.5-26.2,7c-13.5,4-28,2.101-41.7,5c-7.399,1.601-24,3.3-29.899,9.101H0.5v-27.7c17.9-9.5,40.2-22.101,61.3-23.8
	c27.9-2.301,56.5-0.801,84.5-0.801c16.1,0,32.9,0.9,48.3,4.801c12.5,3.1,25.6,1.8,38.5,1.899c9.5,0,17.2-4.3,24.1-9.5
	c0.2-0.2,0.4-0.3,0.7-0.5c5.3-4.1,5.1-8.6,9.2-13.3c9.8-11.2,28.8-21.4,41.7-29.4c10.101-6.199,22.5-11.5,35.3-15.399
	c3.801-1.101,7.601-2.101,11.4-3c9.1-2.101,18.1-3.3,26.4-3.601c10.699-0.3,21.199-0.699,32-0.699c12.3,0,27.3,1.5,38.8-2.101
	c12.2-3.8,26.5-12.3,35.7-21.2c5.8-5.6,10.1-10.8,17.5-14.699c6.5-3.4,15-5.5,20.699-10v-0.7c2.7-10.8,11.101-13.8,20.5-19.5
	c7.801-4.8,16.101-11.601,24.7-15.5C571.5,364.5,571.3,366.2,571.2,367.9z"/>
<path fill="#FFFFFF" stroke="#1F1E21" d="M571.7,362.8c1.6-14.7,4.5-27.1,5.3-30.399c8.8,4.199,22.6,9.3,40.1,11.399
	C605.2,348.6,600.9,394.4,600.9,396.9c-12.801,4.899-27.301-24-29.7-28.9C571.3,366.2,571.5,364.5,571.7,362.8z"/>
<path fill="#FFFFFF" stroke="#1F1E21" d="M592.8,60.5c1.601,0,2.8,1,2.8,2.3c0,1.3-1.3,2.3-2.8,2.3c-1.6,0-2.8-1-2.8-2.3
	C590,61.5,591.3,60.5,592.8,60.5z"/>
<path fill="#FFFFFF" stroke="#1F1E21" d="M586.7,62.4c5.3-3.6,8.5-3.9,13.2,0.7c0,0.4-6.7,5.7-13,0.3H586.8
	C586.7,63.1,586.7,62.7,586.7,62.4z M595.7,62.8c0-1.3-1.3-2.3-2.8-2.3c-1.601,0-2.801,1-2.801,2.3c0,1.3,1.301,2.3,2.801,2.3
	C594.4,65.2,595.7,64.1,595.7,62.8z"/>
<path fill="#FFFFFF" stroke="#1F1E21" d="M590.4,47L586.6,61c0,0-11.5-10.4-2.3-18.3l0.3-0.3C586.1,44.2,588.3,45.8,590.4,47z"/>
<path fill="#FFFFFF" stroke="#1F1E21" d="M570.5,118.5c7.9,1.8,13.2,10.8,13.2,10.8c1.899,4.6,1.2,14.1-0.101,23.2l0,0
	c0-12.7-43.3,8.7-43.3,8.7c-2-3,7-23,7-23C555.7,120.5,564,117,570.5,118.5z"/>
<path fill="#FFFFFF" stroke="#1F1E21" d="M583.5,152.5L583.5,152.5c-1.5,11-4,21.3-4,21.3c-0.2,0.4-0.4,0.8-0.6,1.1
	c-0.301,0.5-0.7,1-1.2,1.4c-7.8,7.9-33.601,9.4-41.9,9.7c-1.7,0.1-2.7,0.1-2.7,0.1c-1.3-15.3,7-25,7-25S583.5,139.8,583.5,152.5z"/>
<path fill="#FFFFFF" stroke="#1F1E21" d="M577.7,176.4c0,0-10.601,42.1-22.8,58.8c-3.5-4.8-11.101-11-25.2-6.8
	c-2.3-3.3,6.1-42,6.1-42V186C544.2,185.8,569.9,184.3,577.7,176.4z"/>
<path fill="#FFFFFF" stroke="#1F1E21" d="M557.2,239.9c1.2,3-0.3,3.9-2.601,5.6c0,0.1,0,0.2,0,0.3H554.4c0,0-7-20-31.7-10
	c-0.3-0.7-0.7-7.7,3-6c1.399-0.6,2.7-1,3.899-1.4c14.101-4.3,21.7,2,25.2,6.8c1.8,2.5,2.601,4.6,2.601,4.6L557.2,239.9z"/>
<path fill="#FFFFFF" stroke="#1F1E21" d="M554.7,245.8c0.8,4.3,0.1,5.4-3.3,6.4c-1.9-4.1-10.5-18.8-30.4-9.8
	c-0.3-0.5-3.4-2.9,1.8-6.5c24.7-10,31.7,10,31.7,10L554.7,245.8z"/>
<path fill="#FFFFFF" stroke="#1F1E21" d="M551.4,252.2c-0.101,0-0.101,0-0.2,0.1c1,1.5-0.4,6.2-1.2,7.5c-1.2-2.7-9.1-18.5-29.5-9.5
	c-0.3-0.5-2.2-7.4,0.3-7.8c0.2,0,0.3,0,0.2-0.1C540.9,233.4,549.5,248.1,551.4,252.2z"/>
<path fill="#FFFFFF" stroke="#1F1E21" d="M550,259.8c-0.1,0.2-0.3,0.4-0.4,0.4c-0.1,4.6-1.1,2.9-3.399,3.7c-2-3.2-10-13.1-27.7-6.6
	c0.2,0,0.4-5.4,1.9-7C540.9,241.3,548.8,257.1,550,259.8z"/>
<path fill="#FFFFFF" stroke="#1F1E21" d="M546.3,263.9C546.3,263.9,546.2,263.9,546.3,263.9c-0.3,3.9,0.9,7-2.7,8.5
	c-1.399-3.6-8.1-18.4-24.8-9.6c-2.3-0.3-1.399-4.4-0.2-5.6C536.3,250.8,544.3,260.6,546.3,263.9z"/>
<path fill="#FFFFFF" stroke="#1F1E21" d="M543.6,272.4c-0.1,0-0.199,0.1-0.399,0.1c-0.101,2.1,0,4.2-0.101,6.2
	c-0.5,0.3-1.1,0.7-1.5,1c-1.399-3.2-8.1-16.2-24.1-7.6h-0.1c0.1-3.1-0.801-9,1.399-9.3C535.5,254,542.2,268.8,543.6,272.4z"/>
<path fill="#FFFFFF" stroke="#1F1E21" d="M538.8,342.8l1,4c0,0-11.5,7.7-18.7,12c-3.3,2-3-3.3-3-3.3l4.7-4.7l-2.5-3.5
	c2.8-1.6,5.5-3.5,7.5-5.1l1.3,1.2c2,2,5.301-0.7,5.301-0.7h4.399V342.8z"/>
<path fill="#FFFFFF" stroke="#1F1E21" d="M509.3,304.5l6.9-0.3l6.3-3.7l1.7-5.7h3.3l10.3,5.3l-3,9.301l-9.7,2.699L523.4,309.4
	l-7.301,3.3c-20-7.7-14.3,11-14.3,11l-1.3,6l-4.3,7.7l-14,1l2.7-13.7l9-2.7l3.3-5l0.399-1.8L499.9,304l9,0.3l0,0L509.3,304.5z"/>
<path fill="#FFFFFF" stroke="#1F1E21" d="M541.6,279.8c-4.199,3-6.199,6.7-10.1,11l-0.3,0.101c-1.8-2.4-7.4-8.4-17.3-5.7
	c0.1-0.3,0.199-0.5,0.199-0.5c-0.199-4.6,1.7-7.5,3.101-11.3c0.1-0.3,0.2-0.8,0.2-1.4h0.1C533.5,263.6,540.2,276.6,541.6,279.8z"/>
<path fill="#FFFFFF" stroke="#1F1E21" d="M505.2,296.8l2.3,0.3c2.6-2,5.7-10,6.5-11.899c9.9-2.7,15.5,3.3,17.3,5.7
	c0.4,0.5,0.601,0.899,0.601,0.899l-4.301,3h-3.3l-1.7,5.7l-6.3,3.7l-6.899,0.3H509L505.2,296.8L505.2,296.8z"/>
<path fill="#FFFFFF" stroke="#1F1E21" d="M520.3,347.4c-0.5,0.3-1,0.5-1.5,0.8c-6,3-4.3-4.3-4.3-4.3c-9.7,1.3-5-5.301-5-5.301
	c-8.3-2.3-4.3-6.3-4.3-6.3l-2.3-1.1l-2.4-1.2l1.3-6c1.8,1.3,3.4,1.6,4.9,1.3h1.8c0.7,1,1.1,8.5,4.7,4.7c3.7-3.9,4.6-4.6,6.3-5.5
	l0.1,0.1c4-1.699,2,5,2,5c4-2.3,5.301,5.7,5.301,5.7c4.699-1,4.3,4.3,4.3,4.3s-1.3,1.2-3.3,2.7c-0.301-0.3,0,0,0,0l0,0
	C525.8,343.8,523.1,345.8,520.3,347.4z"/>
<path fill="#FFFFFF" stroke="#1F1E21" d="M525.2,312.2c0,0,1.7,8.3-2.7,10.7c-1.4,0.8-2.3,1.199-3.1,1.5
	c-1.7,0.899-2.601,1.5-6.301,5.5c-3.6,3.8-4-3.7-4.699-4.7H506.6c6-1.101,9.5-12.3,9.5-12.3l7.301-3.301L525.2,312.2z"/>
<path fill="#FFFFFF" stroke="#1F1E21" d="M516.2,312.8c0,0-3.4,11.2-9.5,12.3c-1.5,0.301-3.101,0-4.9-1.3
	C501.8,323.8,496.2,305.2,516.2,312.8z"/>
<polygon fill="#FFFFFF" stroke="#1F1E21" points="505.2,296.8 508.8,304.5 499.8,304.2 497.5,315.3 496.8,315.2 417.5,178.5 
	413.5,139.8 439.5,163.8 "/>
<path fill="#FFFFFF" stroke="#1F1E21" d="M407.7,48.5c10.6,0.3,18.399,4.5,17.5,16.6C424.6,72.9,421.6,79.3,414.6,82.8
	C403.9,88.2,395.2,93,383.2,93.1l-0.601-0.2c-9.6,17.7-26.899,17.5-48,17.5l-0.3-0.4c-7.1,5.3-18,7.4-26.3,7
	c-6.2-0.3-17.2-1.2-21.5-6.3c-2.6-3.2-1.9-8.2-2-12.3l-0.2-1.6c-4-2.7-6.2-7.6-5.9-13.2C279,72.5,286,69.8,295,67
	c9.8-3.1,17-13,29.6-15.4c12-2.3,24,0.7,35.7-1.6c11.3-2.2,21.8-8.6,33.601-7.5C399.1,43,404.4,45,407.7,48.5z"/>
<path fill="#FFFFFF" stroke="#1F1E21" d="M389.7,379.5l0.1,0.3c1.9,7.8,8.7,18.601,5.4,26.7c-2,4.9-7,7.3-12.3,8.7l0.199,2.7
	C385.4,430.7,363.9,436.5,354.4,436.6c-3.2,1.2-6.9,0.5-10.7-1.6c-10.101-5.6-20.601-20.7-21.7-32.9l-1-0.1
	c-7.7-1.2-23.5-29.9-11.8-37.5l-0.3-0.5c-3-4.5-8.5-13.8-5.2-19.7c3.1-5.6,12.5-7.6,16.7-11.8c3.699-3.7,8.699-14.3,13.899-16.5
	c5.101-2.2,12.3-0.3,16.5,4.8l0.101-0.1c10.199-0.7,14.3-13.2,23.3-6c3.899,3.1,13.5,20.5,15.899,23.6c1.9,2.4,5.4,2.601,7.801,5.3
	c4.899,5.4,3.8,15.2,3,21.801C400,374.5,395.4,378,389.7,379.5z"/>
<path fill="#FFFFFF" stroke="#1F1E21" d="M355.2,449.8l0.2,0.9c-3.801,0.899-7.601,1.899-11.4,3l-0.2-0.601c0-7,0-11.399,0-18.3
	c3.8,2.101,7.5,2.8,10.7,1.601C354.5,442.7,355.2,443.6,355.2,449.8z"/>
<path fill="#FFFFFF" stroke="#1F1E21" d="M67.1,320.5h9.4l-1.3,15.3h12v-15.3h20.7l-0.7,14l11.3,0.7l0.7-15.3h17.3l-0.7,12.699
	l16,0.7v-12.7l14.7-0.5l3.3-0.1l1.3,14.7h10.7l0.7-14l16-1.3l0.7,14.699l11.3,0.701l1.3-17.301l12-0.699V333.5h12l-0.7-17.3h16.7
	l4.7,195.3l0.7,1.101c-6.9,5.199-14.6,9.6-24.1,9.5c-12.9,0-26,1.199-38.5-1.9c-15.4-3.9-32.2-4.8-48.3-4.8c-28,0-56.6-1.5-84.5,0.8
	c-21.1,1.7-43.4,14.3-61.3,23.8V335.5v-14.3h12.7v16h17.3l-0.7-16.7h18l-0.7,16h14v-16H67.1z"/>
<path fill="#FFFFFF" stroke="#1F1E21" d="M191.2,32.5l0.7,26.7c0,0,0,35.3-20.7,36.7c-2,0.1-4.7,0.2-8,0.3
	c-23.6,0.5-76.2,0-99.4-0.2c-7-0.1-11.3-0.1-11.3-0.1s-11.3,6-8.7-62l14-0.7l2,15.3l11.3,1.3v-16h18l-0.7,15.3h16.7l0.7-15.3h18
	l2,14.7h11.3l2.7-14.7l20-0.7v12h13.3l0.7-14L191.2,32.5z"/>
<path fill="#FFFFFF" stroke="#1F1E21" d="M163.2,97.2l3.3,222.8l-14.7,0.5v12.7l-16-0.7l0.7-12.7h-17.3l-0.7,15.3l-11.3-0.699
	l0.7-14H87.2v15.3h-12l1.3-15.3h-9.4C66.3,307.1,63.8,96,63.8,96c23.2,0.3,75.7,0.8,99.3,0.2L163.2,97.2z M145.2,162.2
	c0-1.3-1-2.3-2.3-2.3h-5.6v-0.4c0.8-3.5,1.2-7.4,1.2-11.3c0-19.3-10.3-35-23-35s-23,15.7-23,35c0,3.8,0.4,7.5,1.1,10.9v0.8h-6.1
	c-0.6,0-1.2,0.3-1.6,0.7s-0.7,1-0.7,1.6c0,1.3,1,2.3,2.3,2.3h55.3C144.1,164.5,145.2,163.5,145.2,162.2z"/>
<path fill="#FFFFFF" stroke="#1F1E21" d="M142.8,159.8c1.3,0,2.3,1,2.3,2.3c0,1.3-1,2.3-2.3,2.3H87.5c-1.3,0-2.3-1-2.3-2.3
	c0-0.6,0.3-1.2,0.7-1.6s1-0.7,1.6-0.7h6.1h43.6H142.8z"/>
<path fill="#FFFFFF" stroke="#1F1E21" d="M138.5,148.2c0,4-0.4,7.8-1.2,11.3v0.4H93.6v-0.8c-0.7-3.4-1.1-7.1-1.1-10.9
	c0-19.3,10.3-35,23-35S138.5,128.8,138.5,148.2z"/>
<line fill="none" stroke="#000000" x1="421.8" y1="156.2" x2="494.2" y2="292.5"/>
<path fill="none" stroke="#1F1E21" stroke-width="2" stroke-linecap="round" stroke-linejoin="round" d="M623.3,59
	c0,0-9.8-7-15.8-2.5"/>
<line fill="none" stroke="#1F1E21" stroke-linecap="round" stroke-linejoin="round" x1="601.8" y1="80.8" x2="605.5" y2="80.2"/>
<path fill="none" stroke="#1F1E21" stroke-linecap="round" stroke-linejoin="round" d="M598.8,77.2c-1.1,4.2,3,3.7,3,3.7"/>
<path fill="none" stroke="#1F1E21" stroke-linecap="round" stroke-linejoin="round" d="M602.5,66.8c0,0-1.3,1.7-3.7,10.3"/>
<line fill="none" stroke="#1F1E21" stroke-width="2" stroke-linecap="round" stroke-linejoin="round" x1="595.8" y1="55.5" x2="600.5" y2="59.2"/>
<path fill="none" stroke="#1F1E21" stroke-width="2" stroke-linecap="round" stroke-linejoin="round" d="M587.7,56
	c5.8-2.5,8.1-0.5,8.1-0.5"/>
<line fill="none" stroke="#1F1E21" stroke-linecap="round" stroke-linejoin="round" x1="611.5" y1="87.2" x2="612.9" y2="89.1"/>
<path fill="none" stroke="#1F1E21" stroke-linecap="round" stroke-linejoin="round" d="M636.2,72.7c0,0,5.8-9.6,5.399-0.8"/>
<path fill="none" stroke="#1F1E21" stroke-linecap="round" stroke-linejoin="round" d="M596.2,98.8c5.7,2,13.5,11.8,31.1-15.4"/>
<line fill="none" stroke="#1F1E21" stroke-linecap="round" stroke-linejoin="round" x1="598.1" y1="87.2" x2="596.8" y2="89.2"/>
<line fill="none" stroke="#000000" x1="532.2" y1="305.2" x2="528.5" y2="308.8"/>
<line fill="none" stroke="#000000" x1="523.5" y1="309.5" x2="530.8" y2="304.5"/>
<polyline id="ABC-color.com" fill="none" stroke="#000000" points="488.2,333.2 488.5,331.5 501.8,323.8 "/>
<line fill="none" stroke="#000000" x1="493.2" y1="332.5" x2="488.2" y2="333.2"/>
<path fill="none" stroke="#000000" d="M284.3,96.9c2.4,1.6,5.4,2.5,8.9,2.3"/>
<path fill="none" stroke="#000000" d="M411.2,59.2c0.5-4.1-0.7-7.5-3-10.2"/>
<path fill="none" stroke="#000000" d="M334.6,109.8c1.5-1.2,2.801-2.5,3.9-4"/>
<path fill="none" stroke="#000000" d="M383,92.2c0.8-1.5,1.5-3.2,2.2-5"/>
<path fill="none" stroke="#000000" d="M325.2,390.5c-2.601,3-3.4,7-3,11.5"/>
<path fill="none" stroke="#000000" d="M310,363.9c1.4-0.7,3.1-1.2,5.1-1.4"/>
<path fill="none" stroke="#000000" d="M351.6,321.4c1.801,2.399,2.9,5.5,2.9,9.1"/>
<path fill="none" stroke="#000000" d="M389,379.7c-7.1,1.6-15.6,0.399-20.5,3.5"/>
<path fill="none" stroke="#000000" d="M382.9,415.2c-3.4,0.899-6.9,1.399-9.801,2"/>
</svg>
