<?xml version="1.0" encoding="utf-8"?>
<!-- Generator: Adobe Illustrator 15.0.0, SVG Export Plug-In . SVG Version: 6.00 Build 0)  -->
<!DOCTYPE svg PUBLIC "-//W3C//DTD SVG 1.1//EN" "http://www.w3.org/Graphics/SVG/1.1/DTD/svg11.dtd">
<svg version="1.1" id="layer_x5F_www.ABC-color.com"
	 xmlns="http://www.w3.org/2000/svg" xmlns:xlink="http://www.w3.org/1999/xlink" x="0px" y="0px" width="822px" height="567px"
	 viewBox="0 0 822 567" enable-background="new 0 0 822 567" xml:space="preserve">
<path fill="#FFFFFF" stroke="#000000" stroke-miterlimit="10" d="M505.7,275.5c-1,2.5-4,0.6-5.9,0.6c-0.2-2.1-0.1-4.4,0.3-6.5
	C503.4,269.9,504.4,273.2,505.7,275.5z"/>
<path fill="#FFFFFF" stroke="#000000" stroke-miterlimit="10" d="M483.9,267.4c-1-0.8-1.602-2.8-2-4.3c1.3,0.2,3.3,1.1,4.3,1.6
	C485.7,265.9,484.9,266.6,483.9,267.4z"/>
<path fill="#FFFFFF" stroke="#000000" stroke-miterlimit="10" d="M452.7,494.7c9.7-0.2,22.7,0.5,32.2-0.3V494.3
	c112.398,0.7,225.5,0.2,338,0.3c0.698,3.102,0,6.802,0,9.9c-77.2,0-201.5,0.8-371.5,0.6C451.4,501.7,452.1,498.1,452.7,494.7z"/>
<path fill="#FFFFFF" stroke="#000000" stroke-miterlimit="10" d="M823,262.1c0.6,5.7,0,14.3,0,24.6
	c-107.7-0.101-215.9,0.2-323.6,0.2c-0.602-3.4,0.198-7.3,0.5-10.7c1.898,0,4.898,1.9,5.898-0.6c3.3-3.1,4.102-7.9,4.8-12.2
	c0.2-0.2,0.4-0.3,0.602-0.5C653.8,262.6,758.1,262.2,823,262.1z"/>
<path fill="#FFFFFF" stroke="#000000" stroke-miterlimit="10" d="M823,299.2c0.7,59.1,0.8,118.7,0,177.8c-1.8,0-6.6,0.3-9,0.3h-0.1
	c-3.7-27.5-4.2-57.398,0-84.8c0-2.9,0.3-6-0.2-8.9c-3.8-27.699-6.7-56.3-0.4-83.898C816.2,298.7,820,299.4,823,299.2z"/>
<path fill="#FFFFFF" stroke="#000000" stroke-miterlimit="10" d="M795.3,376.8c6.4,1.3,11.9,5.8,18.3,6.7c0.602,2.9,0.302,6,0.2,8.9
	c-6.8-1.7-12.6-6.801-19.3-8.602C794.7,381.5,794.9,379.1,795.3,376.8z"/>
<path fill="#FFFFFF" stroke="#000000" stroke-miterlimit="10" d="M793.9,299.7c6.3-0.601,13-0.5,19.398,0
	c-6.3,27.6-3.5,56.2,0.4,83.899c-6.4-0.899-12-5.399-18.3-6.699C798.4,351.3,802.7,324.6,793.9,299.7z"/>
<path fill="#FFFFFF" stroke="#000000" stroke-miterlimit="10" d="M814,478c2.7,6.8-0.4,12.1-9.3,11.9c-1.3,0-1.9-0.102-3.2-0.4
	c-4.9-1.1-6.5-2.9-5.3-8.1c0.1-0.5,0.5-2.2,0.7-3.4c0.1-0.5,0.1-0.8,0.198-1.1l0,0c6.802-30.7,2.102-62.5-2.5-93.102
	c6.7,1.9,12.5,6.9,19.302,8.602c-4.2,27.398-3.7,57.3,0,84.8C813.9,477.5,813.9,477.8,814,478z"/>
<path fill="#FFFFFF" stroke="#000000" stroke-miterlimit="10" d="M779.8,478.3c-4.398-26.3-3.6-54.2,0.3-80.5
	c0.302-2.5,0.302-5.2,0-7.7c-3.698-29.8-7.6-60.5-1.1-90.199c4.9-0.601,10.1-0.5,15-0.101c8.7,24.9,4.4,51.601,1.4,77.2
	c-0.4,2.3-0.7,4.7-0.7,7c4.6,30.7,9.3,62.5,2.5,93.1l0,0c0,0.302-0.102,0.602-0.2,1.102h-0.3c-5.5-0.4-11.2-0.2-16.8-0.102
	c0,0.102,0,0.2,0,0.4H779.8V478.3z"/>
<path fill="#FFFFFF" stroke="#000000" stroke-miterlimit="10" d="M761.5,383.1c6.5,1.301,12.1,5.7,18.6,6.9
	c0.302,2.5,0.302,5.2,0,7.7c-6.698-2.101-12.398-6.8-19.1-8.8C760.9,387,761.2,385,761.5,383.1z"/>
<path fill="#FFFFFF" stroke="#000000" stroke-miterlimit="10" d="M780.4,485.3c-1.602,4.602-10.2,4.4-12.7,3.9
	c-4.7-0.9-7.3-2.2-5.8-8.5c0.1-0.5,0.3-1.7,0.3-1.8c0.1-0.4,0.2-0.802,0.3-1.102c7-29.2,2.7-59.7-1.6-88.898
	c6.698,2.1,12.398,6.8,19.1,8.8c-3.8,26.3-4.7,54.2-0.3,80.5h0.1C780,480.8,780.9,484.1,780.4,485.3z"/>
<path fill="#FFFFFF" stroke="#000000" stroke-miterlimit="10" d="M759.9,299.9c6.198-0.602,12.8-0.4,19.1-0.102
	c-6.5,29.7-2.6,60.4,1.1,90.2c-6.398-1.2-12.1-5.601-18.6-6.899C764.7,355.6,768.4,326.8,759.9,299.9z"/>
<path fill="#FFFFFF" stroke="#000000" stroke-miterlimit="10" d="M762.5,477.8c-4.3-0.5-10.3,0.3-15.2,0.2h-0.2c0-0.1,0-0.2,0-0.3
	c-4.3-28.2-4.398-57.2-0.3-85.5c0.3-2.9,0.5-6.2-0.3-9.101c-3.2-27.101-6.5-56.301-0.2-83.199c4.102,0.1,9.9-0.5,13.602,0
	c8.6,26.898,4.8,55.699,1.6,83.199c-0.3,1.899-0.6,3.899-0.5,5.801c4.3,29.198,8.6,59.6,1.6,88.898L762.5,477.8L762.5,477.8z"/>
<path fill="#FFFFFF" stroke="#000000" stroke-miterlimit="10" d="M727.6,383.3c6.7,2.101,12.5,6.601,19.102,8.9
	c-4,28.3-4,57.3,0.3,85.5c0,0.1,0,0.2,0,0.3c0,1.7,0.7,3.9,0.8,5.2c0,3.5-3,5.2-6.1,5.8c-3.4,0.8-12.4,0.5-13.3-4.4
	c-0.2-1.198,1.5-5.1,1.1-6.6C737.3,447,732,414.4,727.6,383.3z"/>
<path fill="#FFFFFF" stroke="#000000" stroke-miterlimit="10" d="M728.3,376.2c6.3,1.7,11.8,5.7,18.102,6.899
	c0.698,2.899,0.6,6.199,0.3,9.101c-6.602-2.3-12.4-6.7-19.102-8.9C727.6,380.9,727.9,378.5,728.3,376.2z"/>
<path fill="#FFFFFF" stroke="#000000" stroke-miterlimit="10" d="M727.2,300.2c5.898-0.8,12.1-0.2,18.1-0.3c0.3,0,0.602,0,0.9,0
	c-6.4,26.898-3,56.1,0.2,83.199C740.1,382,734.5,377.9,728.3,376.2C731.2,351,735.6,324.8,727.2,300.2z"/>
<path fill="#FFFFFF" stroke="#000000" stroke-miterlimit="10" d="M709.2,118.6c4-0.5,8.3,0.5,12.398,0.2
	c2.302,0.5,4.802,0.1,7.2,0.2c3.7,0.2,7.5-0.2,11.102-0.4c-1.302,5.5-7.102,8.9-11.802,11.3c-2.398,0.3-4.8,0.5-7.3,0.2
	C715.7,128.1,710.9,123.7,709.2,118.6z"/>
<path fill="#FFFFFF" stroke="#000000" stroke-miterlimit="10" d="M731.9,70.6c0.398,5.9-7.5,13.6-10.2,5.4c-1.8-2.6,4.2-13.7,6-13.7
	S731.7,68.6,731.9,70.6z"/>
<path fill="#FFFFFF" stroke="#000000" stroke-miterlimit="10" d="M721.8,82.3c0.9-0.8,6.9,0.5,6.8,0.5c0,0,0.102,0.2,0.2,0.5
	c0.8,9.9-0.6,25.2,0,35.6c-2.398-0.1-4.898,0.3-7.2-0.2c0-7.3,0-18.8,0-27.5C721.6,89.3,721.1,82.9,721.8,82.3z"/>
<path fill="#FFFFFF" stroke="#000000" stroke-miterlimit="10" d="M716.1,300.2c3.602-0.3,7.602-0.601,11.2-0.101
	c8.4,24.601,4,50.899,1.102,76c-0.4,2.301-0.802,4.699-0.7,7.101c4.3,31.1,9.7,63.7,1.8,94.7c-4.1-0.4-8.4-0.302-12.5,0
	c-4.7-28-4.4-57-0.5-85.102c0.5-2.898,0.4-6.199-0.1-9.1C712.7,356.2,709.7,327.7,716.1,300.2z"/>
<path fill="#FFFFFF" stroke="#000000" stroke-miterlimit="10" d="M717.7,484.8c-0.602,5.102-9.3,5.7-13.102,4.9
	c-2.398-0.5-5.8-1.8-6.3-4.5c-0.3-1.7,1.7-5.602,1.3-7.8c7.302-30.7,2.2-62.9-2.198-93.602c6.698,2.2,12.6,6.5,19.198,9
	C712.7,420.9,712.4,449.9,717.1,477.9C716.5,480.6,717.9,483,717.7,484.8z"/>
<path fill="#FFFFFF" stroke="#000000" stroke-miterlimit="10" d="M698.1,376.8c6.302,1.7,11.9,5.8,18.302,7
	c0.5,2.9,0.6,6.2,0.1,9.101c-6.6-2.5-12.5-6.801-19.2-9C697.5,381.5,697.7,379.2,698.1,376.8z"/>
<path fill="#FFFFFF" stroke="#000000" stroke-miterlimit="10" d="M716.1,300.2c-6.398,27.399-3.3,56,0.4,83.6
	c-6.4-1.2-12-5.3-18.3-7c2.8-25,6.898-52.3-2-76.7C702.5,299.6,709.7,300,716.1,300.2z"/>
<path fill="#FFFFFF" stroke="#000000" stroke-miterlimit="10" d="M693.1,124.5c-1-3.5,1.2-1.6,4.4-2.5c1.7,0.4,3.7,0.4,5.4,0
	c3.5,0.5,4.898-0.4,3.1,3.4c-0.9,2-3.7,6.1-5,7.2c-1.6,0.5-3.2,0.2-4.6-0.6C695.2,130.1,693.6,126.2,693.1,124.5z"/>
<path fill="#FFFFFF" stroke="#000000" stroke-miterlimit="10" d="M697,89.9c0-0.5,4.9-0.9,5.4-0.4c0.8,0.8,0.3,7.6,0.3,9.8
	c0.2,7.7,0.1,15.6,0.3,22.7c-1.7,0.3-3.7,0.4-5.4,0C697.8,113.5,696.6,98.4,697,89.9z"/>
<path fill="#FFFFFF" stroke="#000000" stroke-miterlimit="10" d="M705.8,79.5c-0.1,4.5-6.2,10.2-8.5,3.7c-1.1-2,2.9-10.9,5.102-10.8
	C704,72.5,705.9,77.7,705.8,79.5z"/>
<path fill="#FFFFFF" stroke="#000000" stroke-miterlimit="10" d="M683.7,300.2c4.2,0.1,8.3-0.3,12.5,0c8.898,24.399,4.7,51.6,2,76.7
	c-0.4,2.3-0.7,4.699-0.8,7.1c4.5,30.7,9.5,62.9,2.198,93.6c-5.3-0.6-10.8-0.198-16.198-0.198c-4.9-28-3.9-57.302-0.602-85.4
	c0.5-2.399,0.7-5.3-0.2-7.7c-3-27.5-6.398-56.5,0-84C682.9,300.2,683.3,300.2,683.7,300.2z"/>
<path fill="#FFFFFF" stroke="#000000" stroke-miterlimit="10" d="M664,382.4c0-1.7,0-3.5,0.8-5c6.2,1.5,11.602,5.5,17.8,6.8
	c1,2.3,0.7,5.2,0.2,7.7c-6.6-1.9-12.2-6.5-18.7-8.602C664.1,383,664,382.7,664,382.4z"/>
<path fill="#FFFFFF" stroke="#000000" stroke-miterlimit="10" d="M663.4,300.6c5.698-0.699,13.3-0.3,19.198-0.398
	c-6.398,27.5-3,56.398,0,84c-6.198-1.301-11.698-5.301-17.8-6.801C666.9,352.1,672.1,325.5,663.4,300.6z"/>
<path fill="#FFFFFF" stroke="#000000" stroke-miterlimit="10" d="M664.5,119.5c3,0.1,6.2,0.5,9.2,0.1c3.7,0.9,7.8-0.1,11.5,0.9
	c-2.8,4.5-7.3,8.2-11.5,11.1c-2.9,0.9-6,1-8.9,0c-4.2-2.9-8.1-7.2-9.8-12.1C658,119,661.3,119.7,664.5,119.5z"/>
<path fill="#FFFFFF" stroke="#000000" stroke-miterlimit="10" d="M662.7,81.4c0.398-0.4,9.3-0.5,9.7,0c0.198,0.2,0.3,3.8,0.3,4.7
	c0.2,8.7,0.8,23.4,1,33.4c-3,0.4-6.2,0-9.2-0.1c-0.4-10-1-19.9-1.5-30C662.8,88,661.9,82.3,662.7,81.4z"/>
<path fill="#FFFFFF" stroke="#000000" stroke-miterlimit="10" d="M675.1,158.1c-1.1,0.2-2.198,0.3-3.3,0.4h-0.3
	c0-0.8,0.2-1.4,0.6-1.8l0.102-0.1c12.2-3.1,19.8-13.8,24.3-24.6c1.4,0.8,3,1.1,4.6,0.6C700.1,143.4,691.7,155.4,675.1,158.1z"/>
<path fill="#FFFFFF" stroke="#000000" stroke-miterlimit="10" d="M681.4,162c-1.302-0.3-8.802-1.4-9.9-2.3c0-0.4-0.1-0.8,0-1.2h0.3
	c1.102-0.1,2.2-0.2,3.3-0.4v0.2c18.302,2.2,41.302-7.2,45.602-28.2c2.398,0.4,4.898,0.1,7.3-0.2c-1,14.8-12.3,27.5-28.4,31.7
	C693.9,163.1,687.6,163.4,681.4,162z"/>
<path fill="#FFFFFF" stroke="#000000" stroke-miterlimit="10" d="M673.8,70.8c-1,5.1-8,10.6-10.398,3c-1.7-2.5,4.1-13.5,6.198-13.5
	C672.2,60.3,674.2,68.3,673.8,70.8z"/>
<path fill="#FFFFFF" stroke="#000000" stroke-miterlimit="10" d="M664.8,131.6c2.9,1,6,0.9,8.9,0c-0.102,8.4-1.5,16.7-1.7,25.1
	c-0.4,0.3-0.6,1-0.6,1.8c0,0.4,0,0.8,0,1.2c0.1,1.8,0.5,3.8-0.302,4.6c-0.698,0.7-4.6,0.7-5.1,0.3c-0.9-0.9-0.1-2.6-0.1-4.2
	c0-0.7-0.102-1.3-0.5-1.8c0.1-0.5,0-1.1-0.2-1.6C666,148.7,664.3,139.9,664.8,131.6z"/>
<path fill="#FFFFFF" stroke="#000000" stroke-miterlimit="10" d="M666.1,477.7c7.102-30.602,2.5-63.8-2-94.4
	c6.5,2.101,12.2,6.8,18.7,8.601C679.4,420,678.4,449.3,683.4,477.3c-0.7,2.4,1,5.4,0.698,7.4c-1,7.2-15.198,5.8-18.198,2.6
	c-2-2.2-0.7-5.898-0.102-9.3c0-0.1,0-0.2,0.102-0.4L666.1,477.7z"/>
<path fill="#FFFFFF" stroke="#000000" stroke-miterlimit="10" d="M648.7,300.8c4.7-0.6,9.898-0.8,14.6-0.2
	c8.8,24.801,3.602,51.4,1.4,76.801c-0.8,1.5-0.7,3.301-0.8,5c0,0.301,0.1,0.601,0.1,0.899c4.5,30.7,9,63.8,2,94.4h-0.2
	c0,0.1,0,0.2-0.1,0.398c-5.4-0.398-10.9-0.3-16.3,0c-4.602-27.698-4.302-56.5-0.302-84.3c0-3,0.4-6.199-0.198-9.102
	C645.3,356.9,642.3,328.3,648.7,300.8z"/>
<path fill="#FFFFFF" stroke="#000000" stroke-miterlimit="10" d="M643.4,129.7c1.6,12.4,12.198,20.8,21.898,27.2
	c0.2,0.5,0.2,1.1,0.2,1.6c-0.9,0.3-1.7,0.5-2.6,0.7c-0.2-0.1-0.4-0.2-0.602-0.2c-16.5-6.1-21-18.9-25-30.1
	C639.2,129.1,641.2,130,643.4,129.7z"/>
<path fill="#FFFFFF" stroke="#000000" stroke-miterlimit="10" d="M650.3,485.2c-0.5,7.5-18.5,7.8-19.398,0.398
	c-0.2-1.8,1.898-5.198,1.398-7.698c7.2-30.602,2.2-62.5-2.3-93.102c6.7,2,12.6,6.801,19.2,8.801c-4,27.801-4.3,56.601,0.3,84.301
	C649.1,480.8,650.4,483.4,650.3,485.2z"/>
<path fill="#FFFFFF" stroke="#000000" stroke-miterlimit="10" d="M630.9,377.6c6.198,1.801,11.8,5.801,18.1,6.9
	c0.6,3,0.3,6.1,0.2,9.1c-6.7-2-12.602-6.699-19.2-8.8C630.2,382.5,630.2,380,630.9,377.6z"/>
<path fill="#FFFFFF" stroke="#000000" stroke-miterlimit="10" d="M630.9,377.6c2.5-25.1,7.898-52.3-1.2-76.8c6.2-0.5,12.8-0.5,19,0
	c-6.4,27.5-3.4,56.101,0.3,83.7C642.7,383.5,637.1,379.4,630.9,377.6z"/>
<path fill="#FFFFFF" stroke="#000000" stroke-miterlimit="10" d="M643.4,129.7c-2.102,0.3-4.102-0.6-6.2-0.8c-3-3.1-11-9.3-2-9.5
	c1.8,0,3.5,0,5.3-0.3c2.6,0.7,9.1,0.2,10,2.8C651.4,124.3,647.3,128.2,643.4,129.7z"/>
<path fill="#FFFFFF" stroke="#000000" stroke-miterlimit="10" d="M639.9,73.5c2,0,4.1,6.1,3.1,9c-1.7,5.3-7.8,6.4-8.3,0.9
	C634.3,81,638,73.5,639.9,73.5z"/>
<path fill="#FFFFFF" stroke="#000000" stroke-miterlimit="10" d="M640.3,104.4c0.102,5.6,0.102,10.7,0.102,14.7
	c-1.802,0.2-3.5,0.2-5.302,0.3c0.7-9.5-1.1-20.9,0.2-29.5c0,0.1,4.3-2,4.7,0C640.9,94,640.2,98.7,640.3,104.4z"/>
<path fill="#FFFFFF" stroke="#000000" stroke-miterlimit="10" d="M629.7,300.8L629.7,300.8c9,24.5,3.7,51.7,1.2,76.8
	c-0.7,2.301-0.7,4.801-0.9,7.301c4.5,30.501,9.5,62.501,2.3,93.101c-6.1-0.4-12.2-0.2-18.3-0.1c-4.5-27.5-4-55.9-0.2-83.501
	c0.3-2.801,0.5-6.101-0.3-8.899c-3.5-27.899-6.8-56.7,0-84.5C618.4,300.4,624.7,300.8,629.7,300.8z"/>
<path fill="#FFFFFF" stroke="#000000" stroke-miterlimit="10" d="M618.8,69.2c0.9,6.4-7.898,14.5-10.5,5.8c-0.2-1.1-0.2-2.3,0-3.4
	c0.3-1.5,4.4-10.1,6.2-10.1C616.2,61.6,618.5,67.3,618.8,69.2z"/>
<path fill="#FFFFFF" stroke="#000000" stroke-miterlimit="10" d="M608.7,81.4c0.6-0.5,5.8,0.2,5.898,0.2
	c0.602,0.6,0.102,5.8,0.102,6.9c-0.2,7.4-0.102,19.3,0,25.9c-1.9,0.3-4,0.5-5.9,0.1c-0.2-6.8,0.102-15.7-0.1-23.5
	C608.6,89.1,607.7,82.3,608.7,81.4z"/>
<path fill="#FFFFFF" stroke="#000000" stroke-miterlimit="10" d="M595.4,378.6c6.198,1.7,11.8,5.7,18.1,6.9c0.7,2.8,0.6,6.1,0.3,8.9
	c-6.7-2.102-12.5-6.5-19.1-8.801C594.7,383.2,594.9,380.9,595.4,378.6z"/>
<path fill="#FFFFFF" stroke="#000000" stroke-miterlimit="10" d="M594,301.1c6.4-0.6,13.1-0.5,19.5-0.1c-6.7,27.7-3.4,56.5,0,84.5
	c-6.3-1.2-11.9-5.2-18.1-6.9C598.2,353,602.8,326.2,594,301.1z"/>
<path fill="#FFFFFF" stroke="#000000" stroke-miterlimit="10" d="M610.3,128.7c2.102,0.1,4.102-0.1,6.102-0.6
	c0.5,21.2,26.3,33.6,45.8,30.8c0.2,0.1,0.398,0.2,0.6,0.2c0.9-0.1,1.8-0.3,2.602-0.7c0.398,0.5,0.5,1.1,0.5,1.8
	c-6.2,1.5-23,3.6-28,2.6C622.6,160,612.4,143.6,610.3,128.7z"/>
<path fill="#FFFFFF" stroke="#000000" stroke-miterlimit="10" d="M598.2,115.5c0.6-1,8.7-0.1,10.6-1c1.9,0.4,4,0.2,5.9-0.1
	c3.6,1,11.7-2.1,10.898,1.5c-1,4.1-4.5,9.1-9.1,12.2c-2,0.5-4,0.7-6.1,0.6c-3.2-1.4-6.102-3.7-8.802-7.2
	C600.5,120.3,597.6,116.5,598.2,115.5z"/>
<path fill="#FFFFFF" stroke="#000000" stroke-miterlimit="10" d="M606.6,489.9c-3.198,0.698-7.5,1.1-11.198-2.9
	c-1.302-1.4,2.1-7,2-9.9c6.3-30.3,1.5-61.398-2.802-91.6c6.602,2.3,12.4,6.7,19.102,8.8c-3.8,27.602-4.3,56,0.2,83.5
	C613.3,483.7,616.5,487.8,606.6,489.9z"/>
<path fill="#FFFFFF" stroke="#000000" stroke-miterlimit="10" d="M594,301.1c8.7,25,4.2,51.801,1.3,77.5
	c-0.398,2.301-0.7,4.602-0.7,7C598.9,415.7,603.7,446.9,597.4,477.2c-4.7-0.4-9.4-0.602-14-0.4C579,449.4,579.3,421,583.3,393.5
	c0.102-2.6,0.4-5.6-0.398-8.1c-3.5-27.7-7-56.301-0.2-84C586.4,300.7,590.4,300.5,594,301.1z"/>
<path fill="#FFFFFF" stroke="#000000" stroke-miterlimit="10" d="M577.5,490.4c-2.5,0.398-4.5,0.3-6.6-0.2
	c-5.802-1.2-6.302-3-4.802-9.8c0.302-1.2,0.302-2.102,0.802-3.602l-0.102-0.2h-0.1c5.8-30,1.6-62.6-2.5-92.3
	c6.5,2.602,12.5,6.7,19.1,9c-4,27.5-4.3,55.9,0.102,83.3C583.9,484.3,586.4,488.9,577.5,490.4z"/>
<path fill="#FFFFFF" stroke="#000000" stroke-miterlimit="10" d="M564.7,378.4c6.2,1.699,11.898,5.898,18.2,6.8
	c0.698,2.5,0.5,5.5,0.398,8.1c-6.6-2.3-12.6-6.399-19.1-9C564.1,382.4,564.3,380.4,564.7,378.4z"/>
<path fill="#FFFFFF" stroke="#000000" stroke-miterlimit="10" d="M582.7,301.3c-6.8,27.7-3.3,56.2,0.2,84
	c-6.302-0.899-12-5.2-18.2-6.8c2.8-25.5,7.6-52.2-1.2-77.1C569.8,300.9,576.5,300.7,582.7,301.3z"/>
<path fill="#FFFFFF" stroke="#000000" stroke-miterlimit="10" d="M563.6,301.3c8.802,24.9,3.9,51.5,1.2,77.101
	c-0.398,1.899-0.7,3.899-0.6,5.899c4.1,29.7,8.3,62.3,2.5,92.3c-4.602-0.698-9.4-0.398-14,0.102c-4.4-27.5-4.102-55.9-0.102-83.5
	c0.102-2.9,0.4-6-0.198-8.9c-3.801-27.4-6.601-55.801,0.199-82.9C556,300.8,560,300.8,563.6,301.3z"/>
<path fill="#FFFFFF" stroke="#000000" stroke-miterlimit="10" d="M533.9,377.4c6.3,1.8,11.898,5.8,18.3,7
	c0.6,2.898,0.398,5.898,0.2,8.898c-6.7-1.8-12.4-6.898-19.2-8.6C533.2,382.3,533.7,379.8,533.9,377.4z"/>
<path fill="#FFFFFF" stroke="#000000" stroke-miterlimit="10" d="M533.9,377.4c3-25.102,7.3-51.301-1.102-75.801
	c6.4-0.399,13.2-0.699,19.602-0.101c-6.802,27.2-4,55.5-0.2,82.899C545.8,383.2,540.2,379.2,533.9,377.4z"/>
<path fill="#FFFFFF" stroke="#000000" stroke-miterlimit="10" d="M533.3,384.7c6.8,1.7,12.5,6.8,19.2,8.6c-4,27.5-4.3,56,0.1,83.5
	c-0.6,3.4,1.302,6.102,1,8.7c-1,6.9-18.398,6.8-19.398,0.2c-0.4-2.8,2.3-6.5,1.6-8.9C542.7,446.5,537.6,414.9,533.3,384.7z"/>
<path fill="#FFFFFF" stroke="#000000" stroke-miterlimit="10" d="M532.8,301.6c8.4,24.5,4.102,50.7,1.102,75.801
	c-0.302,2.399-0.802,4.801-0.602,7.301c4.3,30.2,9.4,61.8,2.4,92.1c-4.602-0.398-9.3-0.2-13.9-0.1c-4.5-27.3-4-55.602-0.2-83.102
	c0.2-3,0.4-6.199-0.3-9.1c-3.5-27.4-6.398-55.7,0.4-82.8C525.3,300.9,529.3,301.2,532.8,301.6z"/>
<path fill="#FFFFFF" stroke="#000000" stroke-miterlimit="10" d="M503.2,377.6c6.2,1.7,11.8,5.801,18.1,6.9c0.7,2.9,0.5,6.1,0.3,9.1
	c-6.698-2.1-12.398-6.8-19.1-8.898C502.4,382.4,502.7,380,503.2,377.6z"/>
<path fill="#FFFFFF" stroke="#000000" stroke-miterlimit="10" d="M502.5,384.8c6.7,2.101,12.4,6.7,19.1,8.9
	c-3.8,27.398-4.3,55.8,0.2,83.1c-0.7,5.9,4.7,11.602-5.2,13.8C511.2,491.8,501.9,491.2,503.9,483.2c0.3-1.102,1-3.102,0.5-3.8
	C512.2,448.3,506.7,415.7,502.5,384.8z"/>
<path fill="#FFFFFF" stroke="#000000" stroke-miterlimit="10" d="M482.1,252.3c-0.3-2.5,0.4-5.3,2-7.3c10.102-3,17.4,7.9,26.2,10
	c2,2,1.7,5,0.8,7.7c-0.198,0.2-0.398,0.3-0.6,0.5C501.9,258.2,492.8,249.8,482.1,252.3z"/>
<path fill="#FFFFFF" stroke="#000000" stroke-miterlimit="10" d="M502.5,301.6L502.5,301.6c-0.2,0-0.3,0-0.5,0c-1.5,0-3.9,0-5-0.199
	c0.3-4.801,1.1-9.899,2.3-14.601c107.7,0.101,215.9-0.2,323.602-0.2c0,4.801,0,8.102,0,12.5c-3,0.2-6.802-0.5-9.7,0.5
	c-6.3-0.5-13-0.5-19.4,0c-4.898-0.398-10.1-0.398-15,0.102c-6.3-0.301-12.8-0.5-19.1,0.1c-3.7-0.6-9.5,0-13.602,0
	c-0.3,0-0.6,0-0.898,0c-6,0.102-12.2-0.5-18.102,0.301c-3.6-0.5-7.5-0.301-11.198,0.101C709.6,299.9,702.3,299.6,696,300.1
	c-4.2-0.3-8.3,0.2-12.5,0c-0.4,0-0.7,0-1.1,0c-5.9,0.102-13.5-0.3-19.2,0.4c-4.8-0.6-9.9-0.4-14.602,0.2c-6.198-0.5-12.8-0.4-19,0
	l0,0c-5,0-11.3-0.5-16.198,0.2c-6.302-0.4-13.102-0.5-19.5,0.1c-3.7-0.6-7.7-0.4-11.302,0.2c-6.198-0.601-12.898-0.4-19.198,0.1
	c-3.602-0.6-7.5-0.5-11.102,0.101c-6.398-0.699-13.2-0.301-19.6,0.101c-3.602-0.399-7.602-0.7-11.102,0.2
	C515.4,300.9,508.9,301.7,502.5,301.6z"/>
<path fill="#FFFFFF" stroke="#000000" stroke-miterlimit="10" d="M502.5,301.6c6.4,0.102,13-0.699,19.3,0.2
	c-6.8,27.101-3.898,55.4-0.398,82.8c-6.302-1.1-11.9-5.199-18.102-6.898c2.8-25.102,7.4-51.4-1.2-75.9v-0.1
	C502.1,301.6,502.3,301.6,502.5,301.6L502.5,301.6z"/>
<path fill="#FFFFFF" stroke="#000000" stroke-miterlimit="10" d="M497,301.4c1.1,0.1,3.4,0.1,5,0.199v0.101
	c8.6,24.5,4,50.8,1.2,75.899c-0.5,2.301-0.8,4.699-0.7,7.101c4.2,30.898,9.6,63.5,1.9,94.398c-4.2-0.3-8.5-0.1-12.7,0.102h-0.2
	c0-0.102,0-0.3-0.1-0.5c-4.102-28.2-4-57.2-0.102-85.4c0.4-2.899,0.3-6.2-0.3-9.1c-3.3-23.8-5.3-48.4,0.5-71.9
	c0.7-1.3,1.1-2.8,1.8-4.1C495.8,306.8,495.2,303.3,497,301.4z"/>
<path fill="#FFFFFF" stroke="#000000" stroke-miterlimit="10" d="M489.1,310.4c-0.698,3.898-3.698,4.5-4.198,1.699
	c-6.5,5.301-3.102-7.699-4.7-9.101c0.3-2.7-0.8-5.601-0.9-8.8c0-0.7,1.5-7.9-0.6-8.102c-1.4-0.199-2.2,3.102-2.4,3.602
	c-0.898,3.3-0.3,7.699-3.8,9.6c-3.6-3.5-1.1-10.398-2.3-15.199c2.2-7.101,8.7-11.601,13.6-16.601c1-0.8,1.8-1.5,2.3-2.7l-0.898-0.6
	c5.1,0.7,10.5,2.6,14.8,5.5c-0.4,2.1-0.5,4.4-0.3,6.5c-0.3,3.5-1.102,7.3-0.5,10.699c-1.2,4.699-2,9.801-2.3,14.601
	c-1.802,1.899-1.2,5.399-3.5,6.899c-0.7,1.399-1.102,2.801-1.802,4.101C489.8,312.9,490,310.7,489.1,310.4z"/>
<path fill="#FFFFFF" stroke="#000000" stroke-miterlimit="10" d="M472.3,384.5c6.7,2.1,12.4,6.9,19.102,8.9
	c-4,28.198-4.102,57.198,0.1,85.398c0,0.2,0.1,0.3,0.1,0.5c1.9,11.3-3.6,11-6.5,11.3c-3.6,0.102-12.1,0.602-10.898-3.1
	c0.7-2.4,1.6-4.9,1.398-7.4c6.5-26,0.7-62.698-3.3-85.698C471.7,391.1,471.2,388.2,472.3,384.5z"/>
<path fill="#FFFFFF" stroke="#000000" stroke-miterlimit="10" d="M474.6,335.1c1.9,0,2.9,0.4,2.7-1.898c-0.7-7.9-3.3-21.5-3.8-29.7
	c2.3-0.2,4.6-0.2,6.8-0.5c1.602,1.399-1.8,14.5,4.7,9.101c0.5,2.801,3.5,2.199,4.2-1.699c0.898,0.3,0.7,2.5,2.5,2
	c-5.9,23.5-3.8,48.1-0.5,71.898c-6.3-1.1-11.9-5.6-18.3-6.898c0.3-14,1.198-28,1.398-42C474.4,335.3,474.5,335.2,474.6,335.1z"/>
<path fill="#FFFFFF" stroke="#000000" stroke-miterlimit="10" d="M481.9,263.1c0.198-3.6-0.7-7.3,0.1-10.8
	c10.8-2.5,19.9,5.9,28.4,11c-0.602,4.3-1.5,9.1-4.802,12.2c-1.3-2.3-2.3-5.6-5.5-5.9c-4.3-2.9-9.698-4.8-14.8-5.5l0.9,0.6
	C485.3,264.2,483.2,263.3,481.9,263.1z"/>
<path fill="#FFFFFF" stroke="#000000" stroke-miterlimit="10" d="M472.9,377.5c6.3,1.3,11.898,5.8,18.3,6.9
	c0.6,2.898,0.6,6.199,0.3,9.1c-6.7-2.1-12.4-6.8-19.1-8.9C472.4,382.2,472.6,379.8,472.9,377.5z"/>
<path fill="#FFFFFF" stroke="#000000" stroke-miterlimit="10" d="M483.9,267.4c-4.9,5-11.4,9.5-13.602,16.6
	c-1.898-6.4-3.2-13.8-3.7-20.6c5.102-0.2,10.2-0.2,15.302-0.3C482.3,264.6,482.9,266.5,483.9,267.4z"/>
<path fill="#FFFFFF" stroke="#000000" stroke-miterlimit="10" d="M480.3,303c-2.3,0.3-4.6,0.3-6.8,0.5c-0.6-1.3-0.2-2.9-0.8-4.3
	c3.6-1.8,2.898-6.3,3.8-9.601c0.1-0.5,0.9-3.801,2.4-3.601c2,0.3,0.5,7.5,0.6,8.101C479.5,297.4,480.5,300.3,480.3,303z"/>
<path fill="#FFFFFF" stroke="#000000" stroke-miterlimit="10" d="M485.6,118.4c-5.5,4.6-15.398,5.6-21.1,0.7
	C471.2,117.4,478.9,116.8,485.6,118.4z"/>
<path fill="#FFFFFF" stroke="#000000" stroke-miterlimit="10" d="M454.6,480.6c7,0,14-0.698,21-0.5c0.2,2.5-0.698,5-1.398,7.4
	c-1.2,3.7,7.3,3.2,10.898,3.1c2.9-0.398,8.4,0,6.5-11.3h0.2c4.2-0.2,8.5-0.398,12.7-0.1c0.5,0.7-0.3,2.7-0.5,3.8
	c-1.9,8.1,7.3,8.7,12.7,7.4c9.898-2.2,4.5-7.9,5.2-13.802c4.6-0.1,9.3-0.3,13.898,0.102c0.7,2.398-2,6.2-1.6,8.898
	c1.1,6.602,18.398,6.7,19.398-0.198c0.4-2.7-1.6-5.4-1-8.7c4.602-0.5,9.4-0.8,14-0.102h0.102l0.1,0.2c-0.5,1.5-0.5,2.5-0.8,3.602
	c-1.5,6.8-1,8.5,4.8,9.8c2.2,0.5,4.102,0.6,6.602,0.2c8.898-1.5,6.398-6.2,5.898-13.7c4.7-0.2,9.4,0.1,14,0.398
	c0.102,2.9-3.3,8.5-2,9.9c3.7,4,8,3.6,11.2,2.9c9.8-2.102,6.7-6.302,7.3-12c6.102-0.102,12.3-0.302,18.3,0.1
	c0.5,2.4-1.698,5.8-1.398,7.7c0.898,7.398,18.898,7,19.398-0.4c0.102-1.8-1.1-4.398-0.698-7.2c5.398-0.3,10.898-0.3,16.3,0
	c-0.602,3.4-1.9,7.102,0.1,9.302c3,3.198,17.2,4.6,18.2-2.602c0.3-2-1.4-5-0.7-7.398c5.4,0,10.9-0.4,16.2,0.198
	c0.4,2.2-1.6,6-1.3,7.802c0.5,2.6,3.898,4,6.3,4.5c3.8,0.8,12.5,0.198,13.1-4.9c0.2-1.8-1.198-4.2-0.698-6.8
	c4.1-0.3,8.398-0.3,12.5,0c0.5,1.5-1.302,5.5-1.102,6.6c0.9,4.9,9.8,5.2,13.3,4.4c3.102-0.7,6.102-2.3,6.102-5.8
	c0-1.302-0.8-3.602-0.8-5.2h0.198c5,0,10.9-0.7,15.2-0.2h0.102c-0.102,0.4-0.2,0.8-0.302,1.1c0,0.2-0.198,1.302-0.3,1.802
	c-1.5,6.3,1,7.6,5.8,8.5c2.5,0.5,11.2,0.698,12.7-3.9c0.4-1.3-0.398-4.5-0.5-7c0-0.1,0-0.3,0-0.4c5.602-0.1,11.2-0.3,16.8,0.102
	h0.302c-0.2,1.2-0.602,2.898-0.7,3.398c-1.2,5.2,0.398,7,5.3,8.102c1.3,0.3,1.9,0.398,3.2,0.398c8.898,0.302,12-5,9.3-11.898
	c0-0.3-0.1-0.5-0.1-0.7h0.1c2.4,0,7.2-0.3,9-0.3c0,8.398,0.5,14,0,17.8c-112.5-0.2-225.6,0.4-338-0.3v0.1
	c-9.6,0.8-22.6,0.102-32.2,0.3C453.2,490.1,453.3,485,454.6,480.6z"/>
<path fill="#FFFFFF" stroke="#000000" stroke-miterlimit="10" d="M465.4,336.7c2.8-0.8,5.898-1,8.898-1.2c-0.2,14-1.2,28-1.398,42
	c-0.302,2.3-0.5,4.7-0.602,7.1c-1.1,3.602-0.5,6.602,0,9.9c4,23,9.8,59.7,3.3,85.7c-7-0.3-14,0.5-21,0.5
	C458.6,432.8,462.1,384.6,465.4,336.7z"/>
<path fill="#FFFFFF" stroke="#000000" stroke-miterlimit="10" d="M427.7,225.5c2.1,2.3,7,0.2,5.898-2.5
	C432.3,219.9,425.2,221.8,427.7,225.5z M427.8,237.4c1.8,1.9,5.9,1.1,5.9-1.5C433.7,232.1,425.3,232.9,427.8,237.4z M428,215.2
	c2.3,2.2,6.4,0.5,5.8-2C433.1,209.8,425.1,211.2,428,215.2z M431,246.5c0-3.6-3.8-3.2-6.5-3.1c-0.7-0.4-1.5-0.1-2.1-0.6
	c0.1-12.5,0.6-24.9,0.698-37.4c24.9,0.4,33.4-30,38.2-50.4c0.9-3.8,1.5-8.3,2.7-11.5c0.7,0.1,1.4-0.2,2.1-0.4c0.7,2,3,3.6,4.9,2
	c1.5,1.5,4.1,1.8,5.6,0c1.102,1,2.9,0.6,3.602-0.7c1.5,1,3.8,1.6,5-0.2c1.6,0.8,4,0.3,4.398-1.7c1.302,0.1,1.5-1.5,2.4-2.1
	c0.2,0,0.5,0.1,0.8,0.1c2.2,5.3,2.7,14.5,3.602,20.7c0.8,5.4,2.198,10.5,3.398,15.6c2.2,9.2,5.9,17.8,8.2,27.1
	c4,16.5,4,33.9,2.4,51.2c-8.802-2.2-16.102-13-26.2-10c0.8-10.3-0.2-21.8-2.4-30.6c0-0.2,0-0.5-0.1-0.8c-2.5-6.9-9.4-16.9-12.9-25.8
	c-1-2.6-1.5-5.4-3.3-8c-1.4,2.5-1.5,6.1-1.9,9c-2.198,16.1-3.198,34.8-1.698,49.2c0.1,1.1,0.5,2,0.1,3.1
	C451.4,242.1,441.3,244.5,431,246.5z"/>
<path fill="#FFFFFF" stroke="#000000" stroke-miterlimit="10" d="M465.4,179.9c1.8,2.5,2.3,5.4,3.3,8
	c3.5,8.9,10.398,18.9,12.898,25.8c0.102,0.2,0.102,0.6,0.102,0.8c2.1,8.9,3.2,20.3,2.398,30.6c-1.6,2-2.3,4.7-2,7.3
	c-0.8,3.5,0.102,7.2-0.1,10.8c-5.1,0-10.2,0-15.3,0.3c-1.9-3.4-1.3-7.9-2.9-11.5c0.3-0.9,0.102-1.8-0.398-2.6
	c-0.102-2.7-0.302-5.7-1.4-8.1c0.4-1.1,0-2-0.1-3.1c-1.5-14.4-0.5-33.1,1.698-49.2C463.8,186.1,464,182.5,465.4,179.9z"/>
<path fill="#FFFFFF" stroke="#000000" stroke-miterlimit="10" d="M466.1,143c-0.698,0.2-1.398,0.5-2.1,0.4c-0.6-1.1-0.2-2.3-0.6-3.4
	c-0.7,0-1.5,0-2.2-0.1c-3.5-5.3-1-12.6-0.3-18.5c8.8,4.3,19.898,5.1,28.698,0.3c3,5.4,6.2,13.1,3.2,18.7c-0.2-0.1-0.5-0.1-0.8-0.1
	c-0.9,0.6-1.1,2.2-2.4,2.1c-0.398,2-2.698,2.5-4.398,1.7c-1.2,1.9-3.5,1.3-5,0.2c-0.7,1.3-2.5,1.6-3.602,0.7c-1.5,1.8-4,1.5-5.6,0
	C469,146.6,466.8,144.9,466.1,143z"/>
<path fill="#FFFFFF" stroke="#000000" stroke-miterlimit="10" d="M489.5,121.7c-8.8,4.8-19.9,4-28.7-0.3c-0.1-0.3-0.1-0.5-0.2-0.8
	c0.802-1.4,2.4-2.3,4-1.6c5.602,4.8,15.602,3.9,21.102-0.7C488.1,117.1,491.4,118.8,489.5,121.7z"/>
<path fill="#FFFFFF" stroke="#000000" stroke-miterlimit="10" d="M463.7,251.9c-10.8,2.6-22.3,3-33.102,4.9
	c1-3.4,0.802-6.9,0.5-10.3c10.302-2,20.302-4.4,30.802-5.3c1.1,2.5,1.3,5.4,1.398,8.1C463.8,250.1,464,251,463.7,251.9z"/>
<path fill="#FFFFFF" stroke="#000000" stroke-miterlimit="10" d="M428.2,172c2,2,5.8,1,5.898-1.3C434.4,166.7,425.6,167.5,428.2,172
	z M428.2,181.8c2.398,2.4,6.898,0.4,5.7-2.3C432.7,176.5,425.8,178.1,428.2,181.8z M428,191.5c2.3,2.1,6.4,0.5,5.8-2
	C433,186.1,425.2,187.2,428,191.5z M425.9,152.5c1.8,2,6.1,1.1,6-1.4C431.8,147.2,423.5,148,425.9,152.5z M426.6,162.8
	c1.7,1.7,5.4,1.1,5.802-1.1C433.3,157.4,423.8,158.1,426.6,162.8z M424.7,144.5c1.8,1.6,6.1,0.8,6-1.7
	C430.5,139,421.4,140.3,424.7,144.5z M422.7,135.1c1.7,1.8,6.5,1,6.1-1.6C428.2,130.6,420.7,131.1,422.7,135.1z M418.8,129.3
	c3.8-0.8,9.3-3.6,14.7-6.2c4.1-1.9,10.7-4.6,12.2-6.5c5,0.9,9.7,3.4,14.8,4.1c0.1,0.3,0.2,0.5,0.2,0.8c-0.7,5.9-3.102,13.2,0.3,18.5
	c-1.1,4.8-2,9.5-3.6,15c-4.302,14.9-14.9,39.5-29.5,43.6c-1.2,0.3-2.5,0.5-3.802,0C424.2,175.4,420.6,152.4,418.8,129.3
	C418.7,129.4,418.7,129.3,418.8,129.3z"/>
<path fill="#FFFFFF" stroke="#000000" stroke-miterlimit="10" d="M452,60c5.8,4.2,2.9,13.1-2.5,16.2c-0.6-1.5-0.6-3.3-1.6-4.6
	c-0.302-2.5-1-4.9-1.9-7.2C447.9,62.9,450,61.4,452,60z"/>
<path fill="#FFFFFF" stroke="#000000" stroke-miterlimit="10" d="M443,79.8c0-1.1,0.8-2.1,1.8-2.1s1.8,0.9,1.8,2.1
	c0,1.2-0.8,2.1-1.8,2.1S443,80.9,443,79.8z"/>
<path fill="#FFFFFF" stroke="#000000" stroke-miterlimit="10" d="M443,79.8c0,1.1,0.8,2.1,1.8,2.1s1.8-0.9,1.8-2.1
	c0-1.2-0.8-2.1-1.8-2.1S443,78.6,443,79.8z M449.5,79.4c-5.5,5.5-8.6,0.7-10.6-0.5c-0.102-0.5,0.1-1,0.3-1.5c2.2-0.3,7.8-4,10,1.6
	h0.398C449.6,79.2,449.6,79.3,449.5,79.4L449.5,79.4z"/>
<path fill="#FFFFFF" stroke="#000000" stroke-miterlimit="10" d="M412.8,524.4c0.3-0.802,0.4-1.802,1.4-2.102
	c8.7,3.8,18.5,5.3,28,4.7c5.5,6.7,19.7,17.6,12.8,27.6c-11.5-4.898-17.8-10.698-22.5-17.1c-4.6-6.4-12.1-10.8-19-11
	C413.1,525.7,413.2,525,412.8,524.4z"/>
<path fill="#FFFFFF" stroke="#000000" stroke-miterlimit="10" d="M408.4,87.1c-3.9-4.5-8.302-6.1-9.5-0.8c-0.9,3.8-0.4,8.5,4,9.7
	c1.6,0.5,4.1,0,5,1.4c0.198,0.4,0.1,2.3,0.1,3.5c-0.1,4.4-0.2,10.3-1,12.5c-1.7-0.6-4.4-3-6.1-4.6c-0.302-0.3-0.602-0.6-0.9-0.8
	c-11.7-10.6-11.8-26.6-8.8-37.1c3.398-12,8.3-17.9,21.398-21.6C419.9,47.2,430,46.6,439.7,48c6.398,0.9,18.5,3.6,12.3,11.8
	c-2,1.4-4.1,2.9-6,4.4c-2.1,0.5-2.7,1.1-4,1.4c-3,0.7-3.6-0.9-7.5-2c-4.8-1.3-9.1-1.9-15.5-2.7c-1.6-0.2-5.8-0.9-6.2-0.7
	c-0.5,0.3-0.6,1.7-0.8,2.6c-0.6,2.6-1.5,6.7-1,8.9c0.5,2.4,1,4,0.5,6.5C410.9,81.4,410.2,84.5,408.4,87.1z"/>
<path fill="#FFFFFF" stroke="#000000" stroke-miterlimit="10" d="M441.2,100.1c-2.602,3.5-9.4,3.6-11.3-0.7
	C433.5,99,437.7,99.1,441.2,100.1z"/>
<path fill="#FFFFFF" stroke="#000000" stroke-miterlimit="10" d="M431.9,151c0.1,2.6-4.302,3.4-6,1.4
	C423.5,148,431.8,147.2,431.9,151z"/>
<path fill="#FFFFFF" stroke="#000000" stroke-miterlimit="10" d="M434.2,170.7c-0.102,2.3-3.9,3.3-5.9,1.3
	C425.6,167.5,434.4,166.7,434.2,170.7z"/>
<path fill="#FFFFFF" stroke="#000000" stroke-miterlimit="10" d="M434,179.5c1.1,2.7-3.3,4.7-5.7,2.3
	C425.8,178.1,432.7,176.5,434,179.5z"/>
<path fill="#FFFFFF" stroke="#000000" stroke-miterlimit="10" d="M433.8,213.2c0.5,2.5-3.5,4.2-5.8,2
	C425.1,211.2,433.1,209.8,433.8,213.2z"/>
<path fill="#FFFFFF" stroke="#000000" stroke-miterlimit="10" d="M433.8,189.5c0.602,2.5-3.5,4.1-5.8,2
	C425.2,187.2,433,186.1,433.8,189.5z"/>
<path fill="#FFFFFF" stroke="#000000" stroke-miterlimit="10" d="M433.7,236c0,2.6-4,3.3-5.9,1.5C425.3,232.9,433.7,232.1,433.7,236
	z"/>
<path fill="#FFFFFF" stroke="#000000" stroke-miterlimit="10" d="M433.6,223c1.102,2.7-3.8,4.8-5.898,2.5
	C425.2,221.8,432.3,219.9,433.6,223z"/>
<path fill="#FFFFFF" stroke="#000000" stroke-miterlimit="10" d="M430.7,142.9c0.1,2.5-4.2,3.3-6,1.7
	C421.4,140.3,430.5,139,430.7,142.9z"/>
<path fill="#FFFFFF" stroke="#000000" stroke-miterlimit="10" d="M432.5,161.7c-0.4,2.2-4.1,2.8-5.8,1.1
	C423.8,158.1,433.3,157.4,432.5,161.7z"/>
<path fill="#FFFFFF" stroke="#000000" stroke-miterlimit="10" d="M413.3,530.7c0.9,2,9,7.2,11.602,6.5c0.898-0.2,1.8-1.602,2.698-1
	c5.802,4.8,16.2,19.2,23.5,22.3c3,1.3,3.5-1.9,3.9-4c6.9-10-7.3-20.9-12.8-27.6c8.898-2.9,6.6-14.602,9.3-21.802
	c170,0.302,294.3-0.5,371.5-0.6c1,20.6-0.1,42.1-0.4,62.9c-64.6-0.102-131.6,0.1-197.5,0.1c-9.898,0-20.398,0-31,0
	c-10.1,0-22.5-0.5-31.898,0.6c-52.3-0.198-104.7,0.302-156.8-0.5c7.3-12,4.698-27.398,3.6-40.8c1-1.1,2.4-1.898,3.7-2.5
	c0.398,0.602,0.398,1.3,0.7,2C413.3,527,412.9,529.8,413.3,530.7z"/>
<path fill="#FFFFFF" stroke="#000000" stroke-miterlimit="10" d="M428.8,133.5c0.5,2.6-4.398,3.4-6.1,1.6
	C420.7,131.1,428.2,130.6,428.8,133.5z"/>
<path fill="#FFFFFF" stroke="#000000" stroke-miterlimit="10" d="M424.9,537.2c-2.5,0.7-10.7-4.5-11.602-6.5
	c-0.398-0.9,0-3.602,0.102-4.3c6.898,0.198,14.398,4.6,19,11c4.698,6.398,11,12.198,22.5,17.1c-0.4,2.1-0.9,5.3-3.9,4
	c-7.3-3.1-17.7-17.5-23.5-22.3C426.7,535.6,425.8,536.9,424.9,537.2z"/>
<path fill="#FFFFFF" stroke="#000000" stroke-miterlimit="10" d="M422.6,76.4c3-0.7,9.802-1.1,7.2,3.7
	c-0.398,0.7-2.398,1.6-3.398,1.7c0.898-0.3,1.5-1.2,1.5-2.3c0-1.3-0.9-2.4-2-2.4c-1.102,0-2,1.1-2,2.4c0,1.2,0.698,2.1,1.6,2.4
	c-2.6-0.1-6.1-1.7-7-2.2C417.6,79.1,421,76.8,422.6,76.4z"/>
<path fill="#FFFFFF" stroke="#000000" stroke-miterlimit="10" d="M421.8,258.8c3-0.1,6.8,0.9,8.7-2c10.8-1.9,22.3-2.3,33.1-4.9
	c1.602,3.6,1,8,2.9,11.5c0.5,6.8,1.8,14.2,3.7,20.6c1.2,4.8-1.3,11.7,2.3,15.2c0.6,1.3,0.2,3,0.8,4.3c0.602,8.2,3.102,21.8,3.8,29.7
	c0.2,2.3-0.8,1.899-2.698,1.899c-0.102,0.101-0.2,0.199-0.2,0.399c-3,0.2-6.102,0.399-8.9,1.2c-9.7-0.102-22.3,3.5-32.2,3.5
	c-2.398,0-2.3-3-2.698-5c-3-15.801-6.302-36.102-9.2-52.9c-0.2-1.1-0.102-2.6-1.2-3.3c0-1.6,1.2-17.6,1.6-20
	C421.8,258.9,421.8,258.8,421.8,258.8z"/>
<path fill="#FFFFFF" stroke="#000000" stroke-miterlimit="10" d="M389.3,527.3c-9.5-63.6-12.8-128.8-7.7-193.2
	C386.7,334.9,392.4,336.4,398.7,337.9c1.7,0.398,6.3,1.8,7,1.398c0.3-0.199,0.7-1.898,0.898-2.898c4-16.602,7.802-34,12-52.301
	c0.5-2,0.602-3.899,1.5-5.101c1.102,0.7,1,2.2,1.2,3.3c2.9,16.801,6.3,37.102,9.2,52.9c0.4,2,0.3,5,2.7,5
	c9.898,0,22.5-3.602,32.2-3.5c-3.4,48-6.802,96.2-10.802,144c-1.398,4.398-1.398,9.5-1.898,14.1c-0.602,3.3-1.3,7-1.3,10.4
	C448.6,512.4,451,524.1,442.1,527c-9.5,0.6-19.3-0.8-28-4.7c-1,0.3-1.1,1.3-1.398,2.101c-1.4,0.601-2.8,1.399-3.7,2.5
	C403,529.6,395,531.8,389.3,527.3z"/>
<polygon fill="#FFFFFF" stroke="#000000" stroke-miterlimit="10" points="425.8,255.8 419.4,256.7 415.5,251.5 417.9,245.5 
	424.3,244.6 428.2,249.8 "/>
<path fill="#FFFFFF" stroke="#000000" stroke-miterlimit="10" d="M433.5,123.1c-5.5,2.5-10.9,5.4-14.7,6.2c0-0.3-0.1-0.7-0.1-1.1
	c1.7-2.8,2.2-5.7,3-8.3c0.6-1.7,1.3-1.2,3.3-1.6c4.6-0.9,13.7-4.8,18.1-8.4c1.9,1.7,1.102,4.7,2.602,6.7
	C444.2,118.6,437.6,121.2,433.5,123.1z"/>
<path fill="#FFFFFF" stroke="#000000" stroke-miterlimit="10" d="M396.4,116.7c3.8,8.2,14.1,11.3,22.3,12.6
	c1.898,23,5.5,46,5.5,69.1c-10.602-1.8-21.102-23.5-26.5-36.5c-3-7.1-5.3-13.7-7.4-19.8c3.2-5.1,0.9-11.8,0-17.3
	c0.102-0.3,0.2-0.5,0.3-0.7C393.3,122.4,394.1,118.8,396.4,116.7z"/>
<path fill="#FFFFFF" stroke="#000000" stroke-miterlimit="10" d="M415.5,251.5l3.9,5.2l6.398-0.9l2.4-6l-4-5.2l-6.4,0.9L415.5,251.5
	z M412,254.8c0.3-1.7,0.3-3.5,0.9-5.2c0-1.6,0.8-3.1,0.898-4.7c0.5-4.8,5.5-1.4,8.602-2.3c0.6,0.5,1.5,0.3,2.1,0.6
	c2.7-0.1,6.5-0.5,6.5,3.1c0.2,3.4,0.4,7-0.5,10.3c-1.9,2.9-5.7,1.9-8.7,2c0,0.1,0,0.1,0,0.2c-1.398-0.3-4.7-0.7-5.3-1
	C414.4,258,412.3,257.2,412,254.8z"/>
<path fill="#FFFFFF" stroke="#000000" stroke-miterlimit="10" d="M378,239.5c12,1.8,24,3.3,35.8,5.5c-0.1,1.6-0.898,3-0.898,4.7
	c-0.602,1.6-0.7,3.4-0.9,5.2c-11.9-0.4-23.9-1.6-35.5-4.3C376.7,246.9,377.4,243.1,378,239.5z"/>
<path fill="#FFFFFF" stroke="#000000" stroke-miterlimit="10" d="M418.6,79.6c0.9,0.5,4.4,2.1,7,2.2c0.102,0,0.302,0,0.4,0
	c0.2,0,0.3,0,0.5-0.1l0,0c0.9-0.1,3-1,3.4-1.7c2.6-4.8-4.2-4.3-7.2-3.7C421,76.8,417.6,79.1,418.6,79.6z M398.9,86.3
	c1.198-5.4,5.6-3.7,9.5,0.8c1.8-2.6,2.5-5.7,3-8.7c0.398-2.5-0.102-4.1-0.5-6.5c-0.5-2.2,0.398-6.3,1-8.9c0.198-0.8,0.3-2.2,0.8-2.6
	c0.398-0.3,4.6,0.5,6.2,0.7c6.398,0.8,10.698,1.4,15.5,2.7c3.898,1,4.398,2.6,7.5,2c1.398-0.3,1.898-0.9,4-1.4
	c1,2.3,1.698,4.7,1.898,7.2c1,1.3,1,3.1,1.602,4.6c0,0.9,0,1.9,0,3H449c-2.2-5.7-7.8-1.9-10-1.6c-0.2,0.5-0.3,1-0.3,1.5
	c2,1.2,5.1,6,10.6,0.5h0.102c0,9.7-1.2,23.1-6.4,30.5c-4.4,3.5-13.6,7.5-18.1,8.4c-2,0.4-2.7-0.1-3.302,1.6
	c-0.898,2.6-1.3,5.6-3,8.3c-2.698-2.9-0.698-6.8-3.1-8.9c-0.2-0.2-1.6-0.2-1.8-0.3c-2.102-0.7-4.8-3.3-6.8-5.6
	c0.698-2.2,0.8-8.1,1-12.5c0-1.2,0.198-3.1-0.102-3.5c-1-1.4-3.5-0.9-5-1.4C398.5,94.8,398.1,90.1,398.9,86.3z M429.9,99.4
	c1.8,4.3,8.698,4.2,11.3,0.7C437.7,99.1,433.5,99,429.9,99.4z"/>
<path fill="#FFFFFF" stroke="#000000" stroke-miterlimit="10" d="M400.9,108.8c1.8,1.6,4.398,4,6.1,4.6c2,2.3,4.7,4.9,6.8,5.6
	c0.2,0.1,1.5,0.1,1.8,0.3c2.4,2.1,0.302,6.1,3.102,8.9c0,0.4,0,0.8,0.1,1.1c0,0,0,0.1-0.1,0.1c-8.102-1.3-18.5-4.4-22.3-12.6
	c1-2.7,2.6-5.5,4.398-7.8L400.9,108.8z"/>
<path fill="#FFFFFF" stroke="#000000" stroke-miterlimit="10" d="M1.299,508.699C127.3,507.9,253.4,507.6,379.4,506.7
	c2.3,6.8,1.6,15.5,7.898,20.3c1.5,13.9,3.8,29.3,13,40.6c-4.6,0.602-11.5,0.4-17.1,0.4c-5.602,0-12.3,0.1-17-0.1
	c-31.602-1.602-64.9,1.5-98.2,0"/>
<path fill="#FFFFFF" stroke="#000000" stroke-miterlimit="10" d="M400.3,567.7c-9.3-11.3-11.5-26.7-13-40.602
	c0.7,0.102,1.3,0.302,2,0.302c5.7,4.398,13.7,2.198,19.8-0.5c1.102,13.398,3.602,28.8-3.6,40.8C403.7,568.2,402,568.1,400.3,567.7z"
	/>
<path fill="#FFFFFF" stroke="#000000" stroke-miterlimit="10" d="M389.3,527.3c-0.7-0.1-1.3-0.2-2-0.3c-6.3-4.8-5.6-13.5-7.898-20.3
	c0.198-3.8-0.4-8-1.4-11.7c0.1-4.4-0.2-9.2-1.3-13.5c-2.5-49.5-4.3-99.6-4.5-149.4c3.2,0.301,6.398,1,9.398,2
	C376.5,398.5,379.7,463.8,389.3,527.3z"/>
<path fill="#FFFFFF" stroke="#000000" stroke-miterlimit="10" d="M386.2,144c0.2-0.7,0.3-1.4,0.7-2c1.1,0.3,2.3,0.4,3.398,0.1
	c2.102,6.2,4.4,12.8,7.4,19.8c5.398,13,15.898,34.8,26.5,36.5c1.3,0.6,2.6,0.4,3.8,0c14.6-4,25.2-28.7,29.5-43.6
	c1.6-5.5,2.5-10.2,3.6-15c0.7,0.1,1.5,0.1,2.2,0.1c0.4,1.1,0.102,2.4,0.602,3.4c-1.2,3.3-1.802,7.8-2.7,11.5
	c-4.8,20.4-13.3,50.9-38.2,50.4c-1-0.1-3.4-0.1-4.4-0.4c-14.698-3.9-25.5-38-29.198-50.1c-0.302-0.9-1.602-4.3-1.9-4.9
	C387.2,148.1,387.1,145.9,386.2,144z"/>
<path fill="#FFFFFF" stroke="#000000" stroke-miterlimit="10" d="M413.8,245c-11.898-2.2-23.898-3.7-35.8-5.5
	c1.2-18,2.4-36.7,0.8-54.7c7.4-8.9,9.4-23.4,8.9-34.7c0.3,0.5,1.6,3.9,1.898,4.9c3.802,12.1,14.602,46.1,29.2,50.1
	c1,0.3,3.4,0.2,4.4,0.4c-0.102,12.5-0.602,24.9-0.7,37.4C419.4,243.6,414.3,240.2,413.8,245z"/>
<path fill="#FFFFFF" stroke="#000000" stroke-miterlimit="10" d="M375.2,187c3.7-13.2,8.7-27.2,6-41.2c0.2-0.9,1.3-1.1,1.6-2
	c1.102,0.3,2.3,0.8,3.4,0.2c0.898,1.8,1,4.1,1.398,6.1c0.5,11.3-1.398,25.8-8.898,34.7C377.4,185.3,376.8,187.1,375.2,187z"/>
<path fill="#FFFFFF" stroke="#000000" stroke-miterlimit="10" d="M357.8,143.7c-1.5,0.8-2.8,0.2-4.2-0.5c-0.1-0.2-0.198-0.4-0.3-0.5
	c-5.8-1.2,0.4-14.9,2.8-17.6c10.7,4.8,23.5,4,34.2-0.2c1,5.5,3.3,12.3,0,17.3c-1.2,0.3-2.3,0.2-3.398-0.1c-0.4,0.6-0.5,1.3-0.7,2
	c-1.102,0.6-2.3,0.1-3.4-0.2c-0.3,0.9-1.398,1.1-1.6,2c-1.3,0.5-2.602,0.3-3.8-0.5c-1.4,1.6-4.2,1.7-5.802,0.2
	c-1.198,0.7-3.1,0.7-3.8-0.7c-1.6,1-4.1,1.6-5.398-0.2C360.8,145.3,358.8,145.2,357.8,143.7z"/>
<path fill="#FFFFFF" stroke="#000000" stroke-miterlimit="10" d="M362.5,262.5c0.3-3.6,0.6-7.3,0.1-10.9
	c0.2-2.6-0.398-5.2-1.698-7.4c0.1-9.5-0.5-21.9,2.1-31.9c2-7.8,7.6-14.7,10.5-22.2c0.4-1,0.6-2,1.7-3c1.6,0.1,2.2-1.8,3.6-2.2
	c1.602,18,0.4,36.7-0.8,54.7c-0.6,3.6-1.3,7.3-1.5,11c-1.6,4.2-1.7,9.5-4.8,13.1c-3-0.5-6.2-0.2-9.2-0.8
	C362.5,262.7,362.5,262.6,362.5,262.5z"/>
<path fill="#FFFFFF" stroke="#000000" stroke-miterlimit="10" d="M93,496.1c19,0.102,38.1,0.2,57.1-0.198c7,0.1,34,0.198,41,0.1
	v-0.1c6.2,0,21.8-0.102,28.4-0.302v0.102c5.5,0.1,22.3,0.1,27.8,0c5.6-0.102,26,0.398,31.6,0v-0.3c6.3,0.1,15.8,0.198,22.1,0.1v-0.1
	c7.8-0.102,25.3,0.1,33.1-0.2c7.102,0.1,21,0,28.102-0.2c5.2,0.3,10.398,0,15.7,0.1c1,3.7,1.5,7.9,1.398,11.7
	c-126,0.9-252,1.2-378,1.9c-0.8-3.7-0.8-8.2,0-12c28.4-0.2,63.3-0.102,91.7-0.7V496.1L93,496.1z"/>
<path fill="#FFFFFF" stroke="#000000" stroke-miterlimit="10" d="M385.6,122.7c-7,4.5-17.698,3.8-24.6-0.7
	C368.9,120.6,377.8,121,385.6,122.7z"/>
<path fill="#FFFFFF" stroke="#000000" stroke-miterlimit="10" d="M368,289.4c3.7,1.398,9.5,8.699,10.1,2.398
	c0.302-3.6-6.898-6.1-8.198-9.8c0.898-6,1.8-12.3,1.898-18.4c3.102-3.6,3.2-8.9,4.8-13.1c11.602,2.7,23.602,3.9,35.5,4.3
	c0.302,2.3,2.4,3.1,4.5,3.1c0.602,0.4,3.9,0.7,5.302,1c-0.4,2.4-1.602,18.4-1.602,20c-1,1.2-1.1,3.1-1.5,5.1
	c-4.2,18.3-8,35.8-12,52.3c-0.2,0.9-0.6,2.7-0.898,2.9c-0.7,0.398-5.302-1-7-1.4c-6.302-1.398-12-3-17.102-3.8
	c-3.1-1-6.2-1.8-9.398-2c-1.102-1.2-4.602-0.899-5.4-1.899c-0.4-0.5-0.1-1.899-0.1-2.699c0.1-3.7,0.6-15-0.102-19.102
	c-0.3-2.1-0.398-4.3-0.398-6.398C366.3,296.8,367.3,292,368,289.4z"/>
<path fill="#FFFFFF" stroke="#000000" stroke-miterlimit="10" d="M348.7,379c6.3,1.5,11.898,5.8,18.3,6.9
	c0.6,2.5,0.3,5.199,0.2,7.699c-6.7-1.601-12.3-6.801-19-8.5C348,383.1,348.5,381,348.7,379z"/>
<path fill="#FFFFFF" stroke="#000000" stroke-miterlimit="10" d="M366.6,308.5c0.7,4.1,0.2,15.4,0.102,19.1c0,0.7-0.3,2.2,0.1,2.7
	c0.8,1,4.3,0.7,5.4,1.9c0.1,49.8,2,99.898,4.5,149.398c-3,0.2-5.9,0.2-8.9,0.302c-5.1-28.9-4.398-59-0.6-88.2
	c0-2.5,0.398-5.2-0.2-7.7c-3.1-25.6-6.4-58.4-1.1-83.9h0.3C366.2,304.1,366.3,306.3,366.6,308.5z"/>
<path fill="#FFFFFF" stroke="#000000" stroke-miterlimit="10" d="M361.2,293.2c0.898-5.3,1.898-9.4,6.7-3.8
	c-0.7,2.6-1.602,7.398-1.7,12.6h-0.3c-1.9,0-3.7-0.1-5.5-0.2C359.8,300.3,360.7,296.5,361.2,293.2z"/>
<path fill="#FFFFFF" stroke="#000000" stroke-miterlimit="10" d="M362.5,262.8c3,0.6,6.1,0.3,9.2,0.8c-0.102,6.1-0.9,12.4-1.9,18.4
	c-4.7-3.8-9.6-8-12.8-13.1h0.1c2.102-0.9,3.602-3.5,5.302-4.8L362.5,262.8z"/>
<path fill="#FFFFFF" stroke="#000000" stroke-miterlimit="10" d="M353.9,265.5c-4.9,1.7-12.102,3.7-12.7,9.8
	c-3.9-1.5-3.602-7.5-5.4-10.9c0.4-0.9,0-2,0.3-3c8.102-5,17.102-8.5,26.602-9.8c0.5,3.5,0.2,7.3-0.102,10.9H362.4
	c-2.802,0.8-5.602,2.1-8.2,3.2C354,265.6,354,265.6,353.9,265.5z"/>
<path fill="#FFFFFF" stroke="#000000" stroke-miterlimit="10" d="M353.6,143.2c1.4,0.7,2.7,1.3,4.2,0.5c1,1.5,3,1.6,4.602,1
	c1.398,1.8,3.8,1.1,5.398,0.2c0.7,1.4,2.602,1.3,3.8,0.7c1.602,1.5,4.4,1.4,5.802-0.2c1.1,0.8,2.5,1,3.8,0.5c2.6,14.1-2.3,28-6,41.2
	c-1.102,1-1.3,2-1.7,3c-2.9,7.5-8.4,14.5-10.5,22.2c-2.6,10.1-2,22.4-2.1,31.9c-9.302-4-17.302,4.8-24.5,9.3
	c-1.4-15.5-0.7-37.9,1.698-50.8c2.602-14.5,10.4-27.9,13-42.3C352.1,155.1,352.5,148.9,353.6,143.2z"/>
<path fill="#FFFFFF" stroke="#000000" stroke-miterlimit="10" d="M361,122.1c6.9,4.4,17.6,5.2,24.6,0.7c1.802-0.6,3.7-0.2,5,1.4
	c-0.1,0.2-0.198,0.4-0.3,0.7c-10.7,4.2-23.5,5-34.2,0.2C354.2,121.5,358.8,121.4,361,122.1z"/>
<path fill="#FFFFFF" stroke="#000000" stroke-miterlimit="10" d="M356.6,268.1c-0.6-0.9-1.698-1.8-2.6-2.4c2.6-1.1,5.4-2.4,8.2-3.2
	h0.2c0,0.1,0,0.2,0,0.3l-0.102,1.1c-1.7,1.3-3.2,3.9-5.3,4.8h-0.1C356.9,268.6,356.8,268.4,356.6,268.1z"/>
<path fill="#FFFFFF" stroke="#000000" stroke-miterlimit="10" d="M336.5,253.6c7.2-4.6,15.2-13.3,24.5-9.3c1.3,2.2,2,4.8,1.7,7.4
	c-9.5,1.3-18.5,4.8-26.602,9.8C335.2,259.1,335.1,255.9,336.5,253.6z"/>
<path fill="#FFFFFF" stroke="#000000" stroke-miterlimit="10" d="M350.5,313.2c-1.9-1.101-3.1-2.8-3.7-4.9
	c-2.3-1.7-1.898-4.899-3.2-7.2c-0.5-4.3-1-8.699-1.698-13.1c-0.102-4.2,0.198-8.7-0.7-12.8c0.6-6.1,7.8-8.1,12.7-9.8
	c0.1,0,0.1,0.1,0.198,0.1c0.802,0.7,2,1.6,2.602,2.4c0.1,0.2,0.3,0.5,0.398,0.7c3.2,5.1,8,9.3,12.802,13.1
	c1.3,3.6,8.6,6.2,8.198,9.8c-0.6,6.4-6.398-0.9-10.1-2.4c-4.9-5.6-5.9-1.5-6.7,3.801c-0.5,3.301-1.398,7.101-0.898,8.601
	c-1.802,2.399,0.198,14.8-4.602,11.2c-1.398,1-3.2,0.6-4.6-0.102C350.9,313,350.7,313.1,350.5,313.2z"/>
<path fill="#FFFFFF" stroke="#000000" stroke-miterlimit="10" d="M351.1,312.9c1.4,0.699,3.2,1,4.602,0.1c4.8,3.6,2.8-8.8,4.6-11.2
	c1.8,0.101,3.7,0.2,5.5,0.2c-5.2,25.5-1.898,58.4,1.102,83.9c-6.4-1.2-12-5.5-18.302-6.9c2.2-21.8,10.5-44.3,1.802-65.8
	C350.7,313.1,350.9,313,351.1,312.9z"/>
<path fill="#FFFFFF" stroke="#000000" stroke-miterlimit="10" d="M337.3,301.5c2-0.6,4.2,0,6.3-0.4c1.302,2.301,1,5.5,3.2,7.2
	c0.602,2.101,1.9,3.8,3.7,4.9c8.7,21.5,0.4,44-1.8,65.8c-0.3,2-0.8,4.1-0.5,6.1c-0.7,2.801,0.8,8.7,1.398,12.4
	c4.2,27.3,6.102,57.8,0.2,84.9c-3.8-0.602-7.8-0.5-11.6-0.5c-5.102-29.102-4.102-59.302-0.4-88.5c0.102-2.602,0.3-5.4-0.5-8
	C333.7,357.7,330.8,329,337.3,301.5z"/>
<path fill="#FFFFFF" stroke="#000000" stroke-miterlimit="10" d="M348.3,385.1c6.7,1.801,12.3,6.9,19,8.5
	c-3.8,29.102-4.5,59.2,0.602,88.2c1.1,5.102,4.398,8.4-6.5,8.8c-5.2-0.398-14.102-3.398-11.5-8.198c5.898-27.102,4-57.602-0.2-84.9
	C349,393.8,347.5,387.9,348.3,385.1z"/>
<path fill="#FFFFFF" stroke="#000000" stroke-miterlimit="10" d="M341.9,288.1C228.4,287.9,114.8,287.5,1.3,287.2
	c-0.7-6.9-0.7-14.4,0-21.4c111.5-0.5,223-0.8,334.5-1.4c1.8,3.4,1.4,9.4,5.4,10.9C342.1,279.4,341.8,283.9,341.9,288.1z"/>
<path fill="#FFFFFF" stroke="#000000" stroke-miterlimit="10" d="M330.3,491.8c-4.8-0.8-11.898-4.7-10-8.7
	c-0.898-0.1-1.8-0.198-2.8-0.198l2.9-0.102c0.398-0.7,0.398-1.2,0.5-1.8c5.8-26.7,3.1-56.5-0.9-83.3c-0.6-4-2-9.2-1.4-12.8
	c6.7,1.699,12.4,6.898,19.102,8.699C334,422.9,333,453,338.1,482.1C338.3,486.1,343.3,492.1,330.3,491.8z"/>
<path fill="#FFFFFF" stroke="#000000" stroke-miterlimit="10" d="M319.2,378.5c6.3,1.5,11.8,5.7,18.1,7c0.8,2.6,0.602,5.3,0.5,8
	c-6.7-1.8-12.3-7-19.1-8.7C318.5,382.7,318.8,380.6,319.2,378.5z"/>
<path fill="#FFFFFF" stroke="#000000" stroke-miterlimit="10" d="M337.3,301.5c-6.6,27.5-3.6,56.2-0.1,83.9
	c-6.3-1.2-11.8-5.5-18.102-7c2.9-25.5,7.9-52.102-0.898-77C324.5,300.8,331.1,301,337.3,301.5z"/>
<path fill="#FFFFFF" stroke="#000000" stroke-miterlimit="10" d="M308,392.8c0.3-2.7,0-5.5-0.6-8.1
	c-3.602-27.601-6.2-56.101,0.398-83.5c3.4-0.3,7.2-0.7,10.4,0.2c8.8,24.898,3.8,51.5,0.898,77c-0.3,2-0.698,4.1-0.5,6.199
	c-0.5,3.699,0.802,8.899,1.4,12.801c4,26.8,6.7,56.6,0.9,83.3c-0.102,0.7-0.102,1.1-0.5,1.8l-2.9,0.1c-3.1-0.1-6.3,0-9.3,0.102
	c0-0.102,0-0.3,0-0.4c-0.9-4.6-1.4-9.6-1.8-14.1c-1.602-16.9-1.801-34.9-0.5-51.8C306.5,408.7,308.1,399.9,308,392.8z"/>
<path fill="#FFFFFF" stroke="#000000" stroke-miterlimit="10" d="M289.6,377.9c6.2,1.5,11.6,5.6,17.8,6.898
	c0.6,2.602,0.898,5.4,0.6,8.102c-6.7-1.9-12.3-7.102-19.1-8.602C289,382.1,289.2,380,289.6,377.9z"/>
<path fill="#FFFFFF" stroke="#000000" stroke-miterlimit="10" d="M289.6,377.9c2.9-25.4,7.5-51.801-1-76.602
	c6.3-0.398,12.9-0.398,19.2,0c-6.6,27.301-3.899,55.9-0.398,83.5C301.2,383.5,295.8,379.4,289.6,377.9z"/>
<path fill="#FFFFFF" stroke="#000000" stroke-miterlimit="10" d="M290.8,398.8c3.9,25.8,6,56,0.6,81.4c-0.3,1.3-0.3,2.3-1.1,3.398
	c-3.4-0.3-6.8-0.698-10.2-0.5c-4.8-29.1-4.3-59.198-0.3-88.398c0.1-2.601,0.3-5.3-0.3-7.8c-3.7-28.301-6.8-57.5-0.3-85.602
	c3-0.6,6.3-0.6,9.3,0c8.5,24.801,3.9,51.2,1,76.602c-0.4,2.1-0.6,4.199-0.6,6.3C288.7,388.6,290.1,393.8,290.8,398.8z"/>
<path fill="#FFFFFF" stroke="#000000" stroke-miterlimit="10" d="M289,384.2c6.8,1.5,12.4,6.7,19.1,8.6
	c0.102,7.102-1.5,15.8-2.1,23.8c-1.3,17-1.1,34.9,0.5,51.802c0.4,4.5,0.9,9.6,1.8,14.1c0,0.1,0,0.2,0,0.4c0.2,1.698,1,5.8,0.102,7.3
	c-1.4,1.3-5.4,0.6-8.2,0.6c-6.3-1-11.5-1-9.8-7.2c0.8-1.198,0.8-2.1,1.1-3.398c5.3-25.4,3.2-55.602-0.6-81.4
	C290.1,393.8,288.7,388.6,289,384.2z"/>
<path fill="#FFFFFF" stroke="#000000" stroke-miterlimit="10" d="M279.9,394.6c-4,29.2-4.4,59.302,0.3,88.4
	c-0.3,3.7,5.6,7.9-6.9,9.6c-10.4-1.5-11.2-5.1-10.7-8.398V484.1V484l0,0c0-0.2,0.1-0.5,0.2-0.8c1.2-6.9,6.2-40.602-1.1-87.2
	c-0.5-3-1.7-8-1-9.9C267.5,387.7,273.1,393,279.9,394.6z"/>
<path fill="#FFFFFF" stroke="#000000" stroke-miterlimit="10" d="M261.3,379.7c6.3,1.7,11.9,5.8,18.3,7.1c0.5,2.5,0.4,5.2,0.3,7.8
	c-6.8-1.6-12.4-6.898-19.1-8.6C260.6,383.9,261,381.8,261.3,379.7z"/>
<path fill="#FFFFFF" stroke="#000000" stroke-miterlimit="10" d="M259.8,301.1c6.4-0.5,13.2-0.5,19.5,0.2
	c-6.5,28.101-3.4,57.3,0.3,85.601c-6.4-1.399-12-5.399-18.3-7.101C264.3,353.7,268.7,326.5,259.8,301.1z"/>
<path fill="#FFFFFF" stroke="#000000" stroke-miterlimit="10" d="M250.5,300.8c3.1,0.101,6.3-0.3,9.4,0.2
	c8.9,25.4,4.5,52.6,1.5,78.7c-0.3,2.1-0.7,4.2-0.6,6.3c-0.7,1.9,0.6,6.9,1,9.9c7.3,46.6,2.3,80.3,1.1,87.198h-0.1
	c-4-0.5-7.8-0.398-11.8-0.3c-4.6-29.2-4.7-59.5-0.6-88.8c0-2.601,0.3-5.5-0.4-8c-3.4-28.101-6.8-57.101-0.2-85.101v-0.199
	C250,300.8,250.2,300.8,250.5,300.8z"/>
<path fill="#FFFFFF" stroke="#000000" stroke-miterlimit="10" d="M250.3,394c-6.8-1.6-12.4-7.2-19.2-8.5c-0.1-2.1,0.2-4.3,0.6-6.4
	c6.3,1.602,11.9,5.9,18.2,7C250.7,388.6,250.3,391.4,250.3,394z"/>
<path fill="#FFFFFF" stroke="#000000" stroke-miterlimit="10" d="M249.7,301c-6.6,27.9-3.2,56.9,0.2,85.1c-6.3-1-11.9-5.3-18.2-7
	c2.9-25.8,7.4-52.8-1.4-78c5.8-0.8,13.3-0.3,19.3-0.199v0.101L249.7,301L249.7,301z"/>
<path fill="#FFFFFF" stroke="#000000" stroke-miterlimit="10" d="M231.2,385.5c6.8,1.4,12.4,6.9,19.2,8.5c-4,29.2-3.9,59.5,0.6,88.8
	c0.6,3.7,1.7,9.8-10.1,9c-7.7-1-8.6-5-7.7-8.7c0.1-0.5,0.3-1,0.4-1.398c0.3-1.102,0.5-2.102,0.7-3.3c4.9-27.102,2-57.5-2.2-84.4
	C231.6,391.3,230.5,387.3,231.2,385.5z"/>
<path fill="#FFFFFF" stroke="#000000" stroke-miterlimit="10" d="M234.2,478.4c-0.2,1.1-0.4,2.198-0.7,3.3h-0.1h-10.8
	c-0.1-0.2-0.1-0.4-0.1-0.602c-4-28.8-3.9-58.3,0.1-86.999c0.2-2.601,0.2-5.301-0.3-7.801c-3.4-28.199-6.9-57.3-0.2-85.398
	c2.7-0.4,5.7-0.602,8.3,0.199c8.8,25.199,4.3,52.199,1.4,78c-0.4,2.101-0.7,4.301-0.6,6.399c-0.6,1.8,0.4,5.8,0.8,8.5
	C236.2,420.8,239.1,451.3,234.2,478.4z"/>
<path fill="#FFFFFF" stroke="#000000" stroke-miterlimit="10" d="M213.2,492.2c-11.3-0.8-8.4-5.602-7.9-9.8
	c0.5-0.5,0.6-1.2,0.8-1.802c3.7-15.6,3.7-37.198,2.1-55.8c-1.1-13-4-28.8-4.7-39.398c6.7,1.6,12.4,6.898,19.1,8.6
	c-4,28.7-4.1,58.2-0.1,87c0,0.2,0.1,0.4,0.1,0.6C223.6,485.5,225.6,492.5,213.2,492.2z"/>
<path fill="#FFFFFF" stroke="#000000" stroke-miterlimit="10" d="M204.2,379.1c6.3,1.801,11.8,5.7,18.1,7.102
	c0.5,2.5,0.5,5.3,0.3,7.8c-6.7-1.7-12.3-7-19.1-8.601C203.4,383.3,203.7,381.1,204.2,379.1z"/>
<path fill="#FFFFFF" stroke="#000000" stroke-miterlimit="10" d="M202.7,300.8c6.4-0.5,13-0.399,19.4,0
	c-6.7,28.101-3.3,57.2,0.2,85.4c-6.3-1.4-11.9-5.4-18.1-7.101C206.9,353.2,211.6,326.1,202.7,300.8z"/>
<path fill="#FFFFFF" stroke="#000000" stroke-miterlimit="10" d="M202.7,300.8c8.9,25.3,4.2,52.3,1.5,78.3c-0.5,2-0.8,4.2-0.6,6.301
	c0.7,10.601,3.6,26.399,4.7,39.399c1.6,18.602,1.6,40.102-2.1,55.8c-0.2,0.7-0.2,1.302-0.8,1.802c-3.5-0.302-7.1-0.2-10.6-0.102
	c-5-29-4.2-59.2-0.5-88.3c0.3-2.2,0.2-4.5-0.1-6.7c-3.6-28.601-7.1-58.2-0.4-86.601C196.7,300.2,199.8,300.3,202.7,300.8z"/>
<path fill="#FFFFFF" stroke="#000000" stroke-miterlimit="10" d="M194.8,482.3c0.1,4.3-2.7,8.4-9,9.4c-10.8-1.4-8.8-4.3-8.8-9.4
	c0.9-1.6,1.1-3.7,1.5-5.7c4.5-27,1.4-58.8-2.9-85.398c-0.3-1.801-1-4.2-0.4-5.9c6.7,1.602,12.4,6.9,19.1,8.602
	C190.5,423.2,189.7,453.3,194.8,482.3z"/>
<path fill="#FFFFFF" stroke="#000000" stroke-miterlimit="10" d="M175.6,380.2c6.4,1.5,12,5.8,18.5,7.1c0.3,2.2,0.4,4.5,0.1,6.7
	c-6.7-1.7-12.3-7-19.1-8.6C175,383.7,175.4,381.9,175.6,380.2z"/>
<path fill="#FFFFFF" stroke="#000000" stroke-miterlimit="10" d="M175.6,380.2c3-26.3,7.8-53.9-1.4-79.601
	c6.4-0.601,13.1-0.301,19.5,0.101c-6.7,28.399-3.2,58,0.4,86.6C187.7,386,182.1,381.7,175.6,380.2z"/>
<path fill="#FFFFFF" stroke="#000000" stroke-miterlimit="10" d="M176.2,118c2.4,0.1,3.5,0.2,5.5,0.1c2.4,0.2,5,0.4,7.4,0.2
	c3.7,0.4,7.4-0.2,11.1-0.5c-1,5.5-7.1,9.1-12,11.5c-2.4,0.2-4.8,0.5-7.2,0.1c-4.5-1.4-9.7-6.8-11.4-10.3
	C168.6,116.8,173.6,117.9,176.2,118z"/>
<path fill="#FFFFFF" stroke="#000000" stroke-miterlimit="10" d="M181.8,82.4c0.1-0.8,6.3-1.1,7.2-0.1c0.6,0.7,0.1,6.7,0.1,8.7
	c0,8.4,0,20.4,0,27.2c-2.5,0.3-5,0.1-7.4-0.2C182.4,108.1,181.1,92,181.8,82.4z"/>
<path fill="#FFFFFF" stroke="#000000" stroke-miterlimit="10" d="M192.1,72.3c-1,4.9-8,10.6-10.2,2.8c-0.1-0.8-0.2-2.1,0-2.9
	c0.3-1.7,4.2-10.5,6.2-10.4C190.3,61.9,192.7,69.1,192.1,72.3z"/>
<path fill="#FFFFFF" stroke="#000000" stroke-miterlimit="10" d="M157.8,121.5c1.8,0.2,3.7,0.2,5.5,0c1.3,0.4,2.9-0.2,4.1,0.4
	c-0.8,3.8-3.4,7.2-6,10.1c-1.6,0.4-3.2,0.2-4.6-0.6C155.2,127.9,149.4,119.7,157.8,121.5z"/>
<path fill="#FFFFFF" stroke="#000000" stroke-miterlimit="10" d="M163.2,481.7c-4.1-29-4.1-58.602,0-87.5
	c0.1-2.7,0.4-5.601-0.4-8.101c-3.5-28.301-6.6-57.5-0.2-85.601c3.8-0.399,7.9-0.5,11.7,0c9.1,25.7,4.3,53.2,1.4,79.601
	c-0.2,1.699-0.6,3.5-0.4,5.199c-0.6,1.801,0.1,4.2,0.4,5.9c4.3,26.6,7.4,58.398,2.9,85.398c-0.3,2-0.6,4.102-1.5,5.7
	c-4.5-0.3-9.1-0.2-13.6,0h-0.1C163.3,482.2,163.2,482,163.2,481.7z"/>
<path fill="#FFFFFF" stroke="#000000" stroke-miterlimit="10" d="M157.7,88.8c0.6-0.5,4.9,0,4.9,0c0.3,0.3,0.3,2.9,0.3,4
	c0.2,7.8,0.2,20.3,0.4,28.7c-1.8,0.2-3.7,0.2-5.5,0c0-7.1-0.2-15-0.3-22.2C157.4,96.9,156.6,89.8,157.7,88.8z"/>
<path fill="#FFFFFF" stroke="#000000" stroke-miterlimit="10" d="M144.1,385.5c-0.1-2.1,0.2-4.2,0.6-6.3c6.3,1.6,11.8,5.8,18.1,7
	c0.8,2.5,0.5,5.399,0.4,8.1C156.5,392.4,150.8,387.2,144.1,385.5z"/>
<path fill="#FFFFFF" stroke="#000000" stroke-miterlimit="10" d="M165.7,81.3c-1.9,4.5-6.9,5.9-8,0.9c-0.9-2.4,3.2-10.6,5.1-10.6
	C165.3,71.8,166.6,79.1,165.7,81.3z"/>
<path fill="#FFFFFF" stroke="#000000" stroke-miterlimit="10" d="M162.6,300.6c-6.4,28.102-3.3,57.301,0.2,85.602
	c-6.3-1.102-11.9-5.301-18.1-7c2.9-26,7.5-53.301-1.6-78.7C149.4,299.8,156.2,300.1,162.6,300.6z"/>
<path fill="#FFFFFF" stroke="#000000" stroke-miterlimit="10" d="M144.1,385.5c6.7,1.7,12.5,6.9,19.2,8.8c-4.1,28.9-4.1,58.5,0,87.5
	c0,0.2,0.1,0.4,0.2,0.602c1.2,4.3,4.4,9.3-11.7,9.8c-6.8-1-6-5.9-5.6-10.4c7.1-26,2.7-63.398-1.8-90.898
	C144.1,389.3,143.5,387.5,144.1,385.5z"/>
<path fill="#FFFFFF" stroke="#000000" stroke-miterlimit="10" d="M140.4,158.6c18.3,3.3,36.3-11.6,40.7-29.2
	c2.4,0.3,4.8,0.1,7.2-0.1c-0.8,14.6-11.7,30.1-27.7,32.9c-5.7,1-13,0.4-19-1c-1.4-0.3-8-1.4-9.1-2.4
	C132.8,158.7,140.1,158.6,140.4,158.6z"/>
<path fill="#FFFFFF" stroke="#000000" stroke-miterlimit="10" d="M115.4,118.9c3-0.7,6.3,0,9.4-0.1c3.1-0.1,6.2,0.5,9.2,0
	c3.8,0.9,7.9,0,11.6,0.9c-2.9,4.5-7.4,8.3-11.7,11.2c-2.9,0.7-5.9,1-8.8-0.1C121,128.1,117.1,123.8,115.4,118.9z"/>
<path fill="#FFFFFF" stroke="#000000" stroke-miterlimit="10" d="M124.8,118.9c0.5-10.4-2.8-26.4-1.9-37.9c0-0.4,9.2-0.8,9.7-0.3
	c1.1,1,0.5,7.5,0.5,9.5c0.3,8.6,0.7,20.8,0.9,28.7C131,119.4,127.9,118.8,124.8,118.9z"/>
<path fill="#FFFFFF" stroke="#000000" stroke-miterlimit="10" d="M140.4,158.6c-0.4,0-7.6,0.1-7.9,0.2h-0.2c0-0.5,0-1,0.1-1.5
	l0.3,0.1c12.2-3.4,19.4-15,24.1-26c1.4,0.8,3,1,4.6,0.6C160.3,143.8,151.8,154.9,140.4,158.6z"/>
<path fill="#FFFFFF" stroke="#000000" stroke-miterlimit="10" d="M122.7,492.3c0,0-8.5,1.9-9.6-3.1c-0.3-1.3,1.3-4.4,0.8-6.2
	c0.9-1.9,1.3-4.7,1.8-7.1c4.1-24.2,1.8-54.802-2-79.102c-0.6-3.898-1.8-8.1-1.4-12.1c6.8,1.5,12.4,6.898,19.2,8.6
	c-3.9,29.2-4.5,59.3,0.4,88.3C131.5,486.5,135.6,491.8,122.7,492.3z"/>
<path fill="#FFFFFF" stroke="#000000" stroke-miterlimit="10" d="M130.8,300.4l1,1c0.2,0,0.3,0,0.2-0.2l-0.6-1
	c3.9,0.1,7.9-0.601,11.6,0.399c9.1,25.399,4.5,52.601,1.6,78.699c-0.4,2.102-0.7,4.2-0.6,6.301c-0.5,2,0,3.801,0.3,5.5
	c4.5,27.399,8.8,64.899,1.8,90.899c-4.7-0.4-9.5-0.2-14.3-0.101c-4.9-29-4.3-59.101-0.4-88.301c0.1-2.6,0.2-5.398-0.3-8
	C127.6,357.4,124.4,328.3,130.8,300.4z"/>
<path fill="#FFFFFF" stroke="#000000" stroke-miterlimit="10" d="M112.3,384.8c0-2.1,0.2-4.3,0.7-6.399
	c6.2,1.899,11.8,5.899,18.1,7.101c0.5,2.601,0.5,5.3,0.3,8C124.7,391.7,119,386.3,112.3,384.8z"/>
<path fill="#FFFFFF" stroke="#000000" stroke-miterlimit="10" d="M130.8,300.4c-6.4,28-3.2,57,0.3,85.1c-6.3-1.2-11.9-5.2-18.1-7.1
	c2.8-25.801,7.4-52.801-1.5-78c6.2-0.602,12.5-0.2,18.7-0.2l-0.6,1L130.8,300.4z"/>
<path fill="#FFFFFF" stroke="#000000" stroke-miterlimit="10" d="M134,70.6c-1.1,4.3-7.3,10.1-10.2,3c-2.1-2.6,4.1-14,6.1-13.9
	C132.4,59.8,134.8,67.5,134,70.6z"/>
<path fill="#FFFFFF" stroke="#000000" stroke-miterlimit="10" d="M125.2,130.9c2.9,1.1,5.9,0.8,8.8,0.1c0.1,8.6-1.8,17.4-1.5,26
	c0,0.1,0,0.2-0.1,0.3c-0.1,0.4-0.1,0.9-0.1,1.5c-0.1,1.9,0.1,4.2-0.8,5c-0.5,0.4-4.2,0.7-4.9,0c-1.1-1-0.2-3-0.2-4.5
	c0-0.6-0.1-1.1-0.6-1.4c0.1-0.5,0.1-1,0-1.4C126.3,148,124.7,139.3,125.2,130.9z"/>
<path fill="#FFFFFF" stroke="#000000" stroke-miterlimit="10" d="M103.9,129c1.2,12.6,12.3,20.8,21.9,27.4c0.1,0.5,0.1,1,0,1.4
	c-0.8,0.4-1.2,0.1-2.1,0.3c-0.7-0.1-1.3-0.3-1.9-0.5c-17.3-4.7-20.4-18.6-24.3-29.5C99.6,128.5,101.6,129.2,103.9,129z"/>
<path fill="#FFFFFF" stroke="#000000" stroke-miterlimit="10" d="M70.7,128c2.1,0.3,4.1-0.1,6.1-0.6c0.5,21,25.6,33,45,30.3
	c0.6,0.2,1.3,0.3,1.9,0.5c0.9-0.1,1.3,0.2,2.1-0.3c0.4,0.4,0.6,0.9,0.6,1.4c-2.8,1.7-12.1,3.2-14.7,3.7c-5,0.9-9.8,0.2-14.6-1
	C82.1,158.4,72.7,142.1,70.7,128z"/>
<path fill="#FFFFFF" stroke="#000000" stroke-miterlimit="10" d="M98.3,300.2c4.3-0.5,8.9-0.601,13.2,0.1c8.9,25.2,4.2,52.2,1.5,78
	c-0.5,2.101-0.7,4.3-0.7,6.4c-0.4,3.899,0.8,8.1,1.4,12.1c3.7,24.3,6,54.9,2,79.102c-0.4,2.398-0.8,5.198-1.8,7.1
	c-4.9-0.4-9.8-0.2-14.7-0.1c-5-29.2-4.3-59.602-0.5-88.9c0.1-2.601,0.4-5.3-0.2-7.8C94.8,357.8,91.7,328.4,98.3,300.2z"/>
<path fill="#FFFFFF" stroke="#000000" stroke-miterlimit="10" d="M103.9,129c-2.2,0.2-4.3-0.4-6.4-0.9c-1.6-2.2-7.4-5.8-6.5-8
	c0.4-1,3.1-0.9,4.4-1.3c1.8-0.2,3.7,0.1,5.4-0.3c2.4,0.5,3.9,0.4,6,0.8C113.9,120.7,109.7,126.7,103.9,129z"/>
<path fill="#FFFFFF" stroke="#000000" stroke-miterlimit="10" d="M103.5,81.1c-0.9,4.5-6.8,8-8.3,2.3c-1.1-2,2.8-10.7,5.1-10.6
	C102.4,72.9,104,79.1,103.5,81.1z"/>
<path fill="#FFFFFF" stroke="#000000" stroke-miterlimit="10" d="M100.6,98.4c0.2,7.5,0.1,13.6,0.3,20c-1.7,0.4-3.6,0.1-5.4,0.3
	c-0.1-5.2,0.1-15.2,0.1-21.7c0-1.7-0.6-6.8,0-7.6c0.4-0.6,4-1.5,4.7-0.8C101,89.3,100.5,96.2,100.6,98.4z"/>
<path fill="#FFFFFF" stroke="#000000" stroke-miterlimit="10" d="M99.2,482.9c1.3,5.1,0.4,8.898-6.2,9.3
	c-11.6,0.8-14.3-3.8-11.8-8.5c-0.5,0-1-0.102-1.5-0.102l1.7-0.1c0.8-1.6,0.7-2.6,1-4.3c5.2-28.5,1.9-60.602-2.6-88.801
	c-0.3-1.699-0.9-3.5-0.2-5c6.7,1.699,12.3,6.801,19,8.601C94.9,423.4,94.2,453.7,99.2,482.9z"/>
<path fill="#FFFFFF" stroke="#000000" stroke-miterlimit="10" d="M80.2,379.3c6.4,1.3,11.9,5.7,18.3,6.9c0.6,2.5,0.3,5.3,0.2,7.8
	c-6.7-1.8-12.3-6.9-19-8.6C79.4,383.4,79.9,381.3,80.2,379.3z"/>
<path fill="#FFFFFF" stroke="#000000" stroke-miterlimit="10" d="M98.3,300.2c-6.6,28.2-3.5,57.5,0.2,86
	c-6.4-1.2-11.9-5.601-18.3-6.9c2.9-26.2,7.5-53.6-1.7-79.1C85,299.7,91.8,299.5,98.3,300.2z"/>
<path fill="#FFFFFF" stroke="#000000" stroke-miterlimit="10" d="M58.6,115.9c-1.1-2.6,8.2-0.9,10.5-1.9c1.9,0.3,3.8,0,5.8-0.1
	c1.9,0.3,10.5-0.7,11-0.1c0.5,0.6-0.4,2.6-0.9,3.8c-1.4,3.3-5.5,8.6-8.3,9.9c-2,0.5-4,0.9-6.1,0.6C65.9,126.4,60.2,119.7,58.6,115.9
	z"/>
<path fill="#FFFFFF" stroke="#000000" stroke-miterlimit="10" d="M67.3,392.7c0-2.601,0.4-5.3-0.3-7.8
	c-3.5-28.102-6.7-57.102-0.4-85c3.8-0.2,8-0.301,11.9,0.199c9.2,25.5,4.6,52.899,1.7,79.101c-0.3,2-0.7,4.1-0.5,6.1
	c-0.7,1.4-0.1,3.3,0.2,5c4.5,28.2,7.8,60.3,2.6,88.8c-0.3,1.602-0.2,2.602-1,4.302l-1.7,0.1c-3.8-0.3-7.8-0.1-11.6,0.1
	C62.7,453.8,63.4,422.7,67.3,392.7z"/>
<path fill="#FFFFFF" stroke="#000000" stroke-miterlimit="10" d="M68.6,71.4c0.2-1.6,4.3-10.4,6.3-10.4c2.3,0,4.4,6.8,4.3,9.1
	c-0.2,5.9-8.5,12.4-10.6,4C68.5,73.3,68.5,72.2,68.6,71.4z"/>
<path fill="#FFFFFF" stroke="#000000" stroke-miterlimit="10" d="M69.1,80.8c0.4-0.4,5.5-0.2,6,0.4c0.2,0.2,0.1,2.1,0.1,3.1
	c-0.2,7.6-0.3,21.3-0.2,29.6c-1.9,0.1-3.8,0.4-5.8,0.1c-0.1-7.4-0.2-18.1-0.2-26.8C68.9,85.8,68.6,81.2,69.1,80.8z"/>
<path fill="#FFFFFF" stroke="#000000" stroke-miterlimit="10" d="M721.7,76c2.7,8.3,10.6,0.5,10.2-5.4c-0.102-2-2.302-8.3-4.2-8.3
	C725.8,62.3,719.8,73.3,721.7,76z M697.4,83.2c2.3,6.5,8.398,0.8,8.5-3.7c0-1.9-1.802-7-3.4-7.1C700.3,72.3,696.2,81.2,697.4,83.2z
	 M663.3,73.8c2.4,7.6,9.5,2.1,10.4-3c0.5-2.5-1.602-10.5-4.3-10.5C667.5,60.4,661.7,71.4,663.3,73.8z M634.7,83.3
	c0.5,5.5,6.6,4.4,8.3-0.9c0.9-2.8-1.2-9-3.1-9C638,73.5,634.3,81,634.7,83.3z M601.5,121.5c2.7,3.5,5.6,5.8,8.8,7.2
	c2.102,14.8,12.3,31.2,27.602,34.2c5,1,21.8-1.1,28-2.6c0,1.6-0.7,3.4,0.1,4.2c0.5,0.5,4.4,0.5,5.1-0.3c0.7-0.8,0.4-2.8,0.302-4.6
	c1.198,1,8.698,2,9.898,2.3c6.2,1.4,12.5,1.1,18.2-0.4c16.2-4.2,27.4-16.9,28.4-31.7c4.8-2.4,10.6-5.8,11.8-11.3
	c-3.7,0.2-7.4,0.6-11.102,0.4c-0.6-10.4,0.802-25.8,0-35.6c0-0.3-0.198-0.5-0.198-0.5c0,0.1-6-1.2-6.802-0.5
	c-0.698,0.6-0.198,7-0.198,8.9c0,8.7,0,20.2,0,27.5c-4.102,0.4-8.4-0.7-12.4-0.2c1.7,5.2,6.5,9.5,11.6,11.5
	c-4.3,21-27.3,30.4-45.6,28.2V158c16.6-2.7,24.9-14.7,26-25.4c1.3-1,4.1-5.1,5-7.2c1.8-3.9,0.4-3-3.1-3.4
	c-0.102-7.1-0.102-15-0.302-22.7c0-2.2,0.5-9-0.3-9.8c-0.5-0.5-5.398-0.1-5.398,0.4c-0.4,8.6,0.8,23.6,0.5,32.1
	c-3.302,0.9-5.4-1-4.4,2.5c0.5,1.7,2.1,5.6,3.4,7.5c-4.602,10.8-12.2,21.5-24.302,24.6l-0.1,0.1c0.2-8.3,1.6-16.7,1.7-25.1
	c4.2-2.9,8.7-6.6,11.5-11.1c-3.7-1-7.8,0-11.5-0.9c-0.2-10-0.7-24.7-1-33.4c0-1,0-4.5-0.3-4.7c-0.5-0.5-9.302-0.4-9.7,0
	c-0.8,0.9,0.1,6.6,0.2,8.1c0.5,10.1,1.1,20,1.5,30c-3.102,0.2-6.5-0.5-9.4,0c1.7,4.9,5.6,9.2,9.8,12.1c-0.5,8.3,1.2,17.1,0.5,25.3
	c-9.7-6.5-20.3-14.9-21.898-27.2c3.898-1.5,8-5.4,7.1-7.8c-1-2.6-7.5-2.1-10-2.8c-0.1-4,0-9.2-0.1-14.7
	C640.3,98.8,641,94.2,640.1,90c-0.398-2-4.698,0.1-4.698,0c-1.302,8.6,0.5,20-0.2,29.5c-8.9,0.2-1,6.4,2,9.5
	c3.898,11.2,8.5,23.9,25,30.1c-19.5,2.7-45.2-9.7-45.8-30.8c4.6-3.2,8.1-8.2,9.1-12.2c0.9-3.5-7.2-0.5-10.9-1.5
	c0-6.6-0.1-18.5,0-25.9c0-1.1,0.5-6.3-0.1-6.9c-0.1-0.1-5.3-0.8-5.9-0.2c-1,1-0.1,7.7-0.1,9.7c0.2,7.7-0.1,16.7,0.1,23.5
	c-1.898,0.9-10,0-10.6,1C597.6,116.5,600.5,120.3,601.5,121.5z M608.3,75.1c2.602,8.6,11.4,0.6,10.5-5.8c-0.3-2-2.6-7.7-4.3-7.7
	c-1.8,0-5.9,8.6-6.2,10.1C608.1,72.8,608.1,73.9,608.3,75.1z M336.1,261.4c-0.198,1,0.102,2.1-0.3,3c-111.5,0.6-223,0.9-334.5,1.4
	C0.4,177.7,0.9,89,1,0.7c273.8-0.3,547.8-0.3,821.6,0c0.302,79.9,0.2,163.2,0.2,244.1c0,5.5,1,12.9,0.102,17.2
	c-64.802,0.1-169.2,0.5-311.9,0.8c0.9-2.7,1.2-5.7-0.8-7.7c1.6-17.3,1.6-34.8-2.4-51.2c-2.3-9.3-6-17.9-8.2-27.1
	c-1.198-5.1-2.5-10.2-3.398-15.6c-1-6.3-1.4-15.5-3.602-20.7c3-5.6-0.198-13.4-3.198-18.7c1.898-2.9-1.302-4.6-3.9-3.4
	c-6.7-1.6-14.4-1-21.1,0.7c-1.602-0.7-3.2,0.2-4,1.6c-5.102-0.7-9.802-3.2-14.802-4.1c-1.5-2-0.698-5-2.6-6.7
	c5.3-7.4,6.4-20.8,6.4-30.5c0-0.1,0-0.2,0-0.3c0-1,0-2,0-3c5.3-3.1,8.198-11.9,2.5-16.2C458.1,51.7,446,49,439.6,48.1
	c-9.698-1.4-19.8-0.8-27.1,1.3c-13,3.6-17.9,9.6-21.4,21.6c-3,10.5-2.898,26.5,8.802,37.1c0.3,0.2,0.6,0.5,0.898,0.8l-0.1,0.1
	c-1.8,2.3-3.4,5.1-4.4,7.8c-2.3,2.1-3.1,5.6-5.8,7.4c-1.2-1.5-3.1-2-5-1.4c-7.8-1.7-16.7-2.1-24.6-0.7c-2.302-0.7-6.802-0.5-4.9,3
	c-2.4,2.7-8.5,16.4-2.8,17.6c0.1,0.2,0.2,0.3,0.3,0.5c-1.1,5.8-1.5,12-2.5,17.3c-2.6,14.4-10.4,27.9-13,42.3
	c-2.3,12.9-3.1,35.3-1.7,50.8C335.1,255.9,335.2,259.1,336.1,261.4z M181.9,75c2.2,7.8,9.2,2.1,10.2-2.8c0.7-3.2-1.8-10.4-4-10.5
	c-2-0.1-6,8.6-6.2,10.4C181.7,73,181.8,74.2,181.9,75z M157.7,82.2c1.1,5,6.1,3.6,8-0.9c0.9-2.3-0.4-9.6-2.9-9.7
	C160.8,71.6,156.8,79.8,157.7,82.2z M123.8,73.6c2.9,7.1,9.1,1.3,10.2-3c0.8-3.1-1.6-10.8-4.1-10.9C127.9,59.6,121.7,71,123.8,73.6z
	 M95.2,83.5c1.5,5.7,7.4,2.2,8.3-2.3c0.4-2.1-1.1-8.3-3.3-8.3C98,72.7,94.1,81.4,95.2,83.5z M68.6,74.1c2.1,8.4,10.4,2,10.6-3.9
	c0.1-2.3-2-9.1-4.3-9.1c-2-0.1-6.1,8.8-6.3,10.4C68.5,72.2,68.5,73.3,68.6,74.1z M58.6,115.9c1.6,3.8,7.3,10.5,12,12.1
	c2,14.1,11.5,30.4,26.3,34c4.8,1.2,9.6,1.8,14.6,1c2.5-0.4,11.9-2,14.7-3.7c0,1.5-0.8,3.5,0.2,4.5c0.7,0.7,4.5,0.4,4.9,0
	c0.9-0.8,0.7-3.1,0.8-5h0.2c1.1,1,7.8,2.1,9.1,2.4c6,1.4,13.2,2,19,1c16.1-2.8,26.9-18.3,27.7-32.9c4.8-2.4,10.9-6,12-11.5
	c-3.6,0.3-7.4,0.9-11.1,0.5c0-6.8,0-18.8,0-27.2c0-2,0.5-8-0.1-8.7c-0.9-1-7.2-0.7-7.2,0.1c-0.7,9.6,0.6,25.8-0.1,35.7
	c-2,0.1-3.1,0-5.5-0.1c-2.6-0.1-7.6-1.2-6.5,1.1c1.6,3.5,6.9,8.8,11.4,10.3c-4.4,17.5-22.4,32.5-40.7,29.2
	c11.4-3.7,19.9-14.8,21-26.6c2.6-2.9,5.2-6.3,6-10.1c-1.3-0.6-2.8,0-4.1-0.4c-0.2-8.3-0.2-20.9-0.4-28.7c0-1.1,0-3.7-0.3-4
	c0,0-4.4-0.5-4.9,0c-1.1,1-0.3,8.1-0.2,10.5c0.2,7.2,0.3,15.2,0.3,22.2c-8.5-1.8-2.6,6.4-1,9.8c-4.7,11-12,22.6-24.1,26l-0.3-0.1
	c0-0.1,0-0.2,0.1-0.3c-0.3-8.6,1.6-17.4,1.5-26c4.3-3,8.8-6.7,11.7-11.2c-3.8-0.9-7.8,0-11.6-0.9c-0.2-7.8-0.6-20-0.9-28.7
	c-0.1-2,0.5-8.5-0.5-9.5c-0.6-0.5-9.7-0.1-9.7,0.3c-0.9,11.4,2.4,27.5,1.9,37.9c-3.1,0.1-6.4-0.6-9.4,0.1c1.6,4.9,5.5,9.2,9.8,12
	c-0.5,8.4,1.1,17.1,0.5,25.5c-9.6-6.6-20.6-14.9-21.9-27.4c5.9-2.3,10.1-8.3,2.9-9.8c-2-0.4-3.6-0.3-6-0.8c-0.1-6.5-0.1-12.6-0.3-20
	c-0.1-2.2,0.4-9.1-0.3-9.8c-0.8-0.7-4.3,0.2-4.7,0.8c-0.6,0.8,0,5.9,0,7.6c0,6.5-0.2,16.5-0.1,21.7c-1.3,0.4-4,0.3-4.4,1.3
	c-0.9,2.2,4.9,5.9,6.5,8c3.8,10.9,7,24.8,24.3,29.5c-19.4,2.8-44.5-9.2-45-30.3c2.8-1.2,6.9-6.6,8.3-9.9c0.5-1.2,1.3-3.2,0.9-3.8
	s-9.1,0.3-11,0.1c0-8.3,0.1-22,0.2-29.6c0-1.1,0.1-2.9-0.1-3.1c-0.5-0.6-5.6-0.8-6-0.4s-0.2,5.1-0.2,6.4c0,8.6,0.2,19.4,0.2,26.8
	C66.8,115,57.5,113.3,58.6,115.9z"/>
<path fill="#FFFFFF" stroke="#000000" stroke-miterlimit="10" d="M48.8,377.9c6.3,1.5,11.8,5.699,18.2,7c0.7,2.5,0.3,5.199,0.3,7.8
	c-6.7-1.601-12.3-7-19-8.5C48,382.1,48.3,379.9,48.8,377.9z"/>
<path fill="#FFFFFF" stroke="#000000" stroke-miterlimit="10" d="M48.8,377.9c2.8-25.801,7.3-52.801-1.3-78c6.2-0.5,12.8-0.2,19.1,0
	c-6.4,27.898-3.2,56.898,0.4,85C60.6,383.7,55.1,379.4,48.8,377.9z"/>
<path fill="#FFFFFF" stroke="#000000" stroke-miterlimit="10" d="M48.3,384.2c6.7,1.5,12.3,6.899,19,8.5
	c-3.9,30-4.6,61.1,0.9,90.898c-0.6,1.102,0.3,3.102,0.2,4c-0.3,3.302-2.6,4.5-6.3,5.302c-4.6,1-15.8,0.198-12.5-9.102
	c0.9-1.8,1.2-4,1.6-6.1c5-27.9,2-59.4-2.4-87C48.3,388.6,47.5,385.9,48.3,384.2z"/>
<path fill="#FFFFFF" stroke="#000000" stroke-miterlimit="10" d="M33.1,483.8c-4.7-29.898-4.7-60.8-0.5-90.7
	c0-2.6,0.3-5.398-0.4-7.8C28.8,357,25.5,328,32,299.9c5.1-0.4,10.4-0.5,15.5,0.1c8.6,25.3,4,52.2,1.3,78c-0.5,2-0.8,4.2-0.6,6.2
	c-0.8,1.7,0.1,4.5,0.4,6.399c4.5,27.601,7.5,59.199,2.4,86.999c-0.4,2-0.7,4.302-1.6,6.102c-5.3-0.3-10.7,0.2-16,0.398
	c0-0.1,0-0.198,0-0.398L33.1,483.8z"/>
<path fill="#FFFFFF" stroke="#000000" stroke-miterlimit="10" d="M15.4,482.8c3.5-16.8,4.5-38.1,3-57.1c-0.9-12-4.3-33.101-4.9-41.2
	c6.8,1.4,12.4,7,19.2,8.5c-4.2,30-4.2,60.8,0.5,90.7h0.3c0,0.1,0,0.2,0,0.398c1.3,13.4-24.6,11.802-18.3-0.6
	C15.3,483.3,15.3,483.1,15.4,482.8z"/>
<path fill="#FFFFFF" stroke="#000000" stroke-miterlimit="10" d="M14.1,378.1c6.2,1.801,11.8,5.801,18.1,7.102
	c0.7,2.398,0.5,5.3,0.4,7.8c-6.8-1.5-12.4-7.101-19.2-8.5C13.4,382.4,13.8,380.2,14.1,378.1z"/>
<path fill="#FFFFFF" stroke="#000000" stroke-miterlimit="10" d="M12.5,299.8c6.4-0.7,13.1-0.3,19.5,0
	c-6.5,28.101-3.2,57.101,0.2,85.4c-6.3-1.4-11.9-5.3-18.1-7.101C17,352.2,21.7,325.1,12.5,299.8z"/>
<path fill="#FFFFFF" stroke="#000000" stroke-miterlimit="10" d="M12.5,299.8c9.1,25.3,4.4,52.4,1.6,78.3
	c-0.3,2.102-0.7,4.301-0.6,6.4c0.5,8,4,29.2,4.9,41.2c1.5,19,0.4,40.3-3,57.1h-0.2c-4.3-0.1-9.5,0.102-13.9,0
	c-1-61-0.1-122.3-0.4-183.5C4.7,299.5,8.8,298.9,12.5,299.8z"/>
<path fill="#FFFFFF" stroke="#000000" stroke-miterlimit="10" d="M1.3,482.8c4.3,0,9.5-0.1,13.9,0h0.2c0,0.2-0.1,0.5-0.1,0.7
	c-6.3,12.4,19.6,14.1,18.3,0.6c5.3-0.198,10.7-0.698,16-0.398c-3.3,9.3,7.9,10.1,12.5,9.1c3.6-0.8,5.9-2,6.3-5.3
	c0.1-0.9-0.8-3-0.2-4c3.8-0.2,7.8-0.3,11.6-0.1c0.5,0,1,0.1,1.5,0.1c-2.5,4.8,0.2,9.3,11.8,8.5c6.6-0.3,7.4-4.1,6.2-9.3
	c4.9-0.102,9.9-0.3,14.7,0.1c0.5,1.7-1.1,4.9-0.8,6.2c1.1,5,9.6,3.101,9.6,3.101c13-0.5,8.9-5.699,9.2-10.5
	c4.7-0.101,9.5-0.301,14.3,0.101c-0.5,4.5-1.3,9.3,5.6,10.399c16-0.5,12.9-5.5,11.7-9.801h0.1c4.5-0.1,9.1-0.199,13.6,0
	c-0.1,5.102-2.1,8,8.8,9.4c6.3-1.102,9-5.2,9-9.4c3.5-0.1,7.1-0.199,10.6,0.102c-0.5,4.2-3.5,9,7.9,9.8
	c12.4,0.3,10.4-6.7,9.4-10.601h10.8h0.1c-0.1,0.5-0.2,0.899-0.4,1.399c-0.9,3.8,0,7.7,7.7,8.7c11.8,0.8,10.7-5.3,10.1-9
	c4-0.102,7.9-0.2,11.8,0.3h0.1c-0.1,0.4-0.1,0.601-0.2,0.8l0,0c0,0.102,0,0.102,0,0.102c0,0.1,0,0.1,0,0.199l0,0
	c-0.5,3.399,0.3,7,10.7,8.399c12.5-1.7,6.6-5.899,6.9-9.6c3.4-0.2,6.8,0.198,10.2,0.5c-1.8,6.198,3.5,6.198,9.8,7.198
	c2.801-0.1,6.801,0.7,8.2-0.6c0.9-1.5,0-5.5-0.1-7.3c3-0.102,6.2-0.2,9.3-0.102c0.9,0,1.9,0.102,2.8,0.2c-1.898,4,5.2,7.9,10,8.7
	c13,0.3,8-5.7,7.8-9.8c3.9,0,7.802-0.101,11.602,0.5c-2.602,4.8,6.398,7.8,11.5,8.2c10.8-0.5,7.6-3.8,6.5-8.8
	c2.898-0.102,5.898-0.2,8.898-0.302c1.102,4.302,1.4,9.102,1.302,13.5c-5.2,0-10.5,0.2-15.7-0.1c-7.102,0.1-21,0.3-28.102,0.2
	c-7.8,0.398-25.3,0.1-33.1,0.199v0.101c-6.3,0.1-15.8,0-22.1-0.101v0.301c-5.6,0.398-26-0.102-31.6,0c-5.5,0.1-22.3,0.1-27.8,0
	V495.3c-6.5,0.301-22.1,0.301-28.4,0.301v0.101c-7,0.1-34,0-41-0.101c-19,0.5-38.1,0.399-57.1,0.199v0.2
	c-28.4,0.6-63.3,0.5-91.7,0.7C0.5,492.3,0.6,487.2,1.3,482.8z"/>
<path fill="#FFFFFF" stroke="#000000" stroke-miterlimit="10" d="M32.1,299.9c-6.4-0.4-13.1-0.801-19.5,0
	c-3.8-0.9-7.8-0.301-11.7-0.5c0.3-4-0.6-8.301,0.4-12.102c113.5,0.301,227.1,0.7,340.602,0.9c0.698,4.3,1.198,8.699,1.698,13.1
	c-2.1,0.301-4.3-0.3-6.3,0.4c-6.3-0.5-12.898-0.7-19.1,0c-3.3-0.9-7.102-0.602-10.4-0.2c-6.3-0.399-12.9-0.399-19.2,0
	c-3-0.601-6.3-0.601-9.3,0c-6.4-0.7-13.1-0.601-19.5-0.2c-3-0.6-6.3-0.199-9.4-0.199c-0.2,0-0.5,0-0.7,0c-6,0-13.5-0.601-19.3,0.199
	c-2.6-0.898-5.6-0.6-8.3-0.199c-6.4-0.399-13.1-0.5-19.4,0c-2.9-0.5-6-0.699-8.9-0.101c-6.4-0.5-13.1-0.7-19.5-0.101
	c-3.8-0.601-7.9-0.5-11.7,0c-6.4-0.399-13.2-0.801-19.6,0c-3.7-1-7.8-0.301-11.6-0.399l0.1-1.2c-0.7-0.199-0.7-0.199-1.4,0l0.1,1.2
	c-6.2,0-12.6-0.399-18.7,0.2c-4.3-0.7-8.9-0.5-13.2-0.102c-6.5-0.8-13.3-0.6-19.8-0.1c-3.9-0.6-8.1-0.4-11.9-0.2
	c-6.3-0.2-12.8-0.5-19.1,0C42.5,299.3,37.1,299.5,32.1,299.9z"/>
<path fill="none" stroke="#000000" stroke-width="2" d="M417.1,75.3c3.802-2.5,9.102-4.7,13.5-2.3"/>
<path fill="none" stroke="#000000" d="M400.9,90.8c-1.802-3,1.698-6.2,3.398-2.3"/>
<path fill="none" stroke="#000000" d="M442.8,99.3c0.602,0.2,1.2,0.7,1.102,1.4"/>
<path fill="none" stroke="#000000" d="M428.7,98.6c-0.4,0.2-0.8,0.5-0.9,0.9"/>
<path fill="none" stroke="#000000" d="M428.7,98.6c0.1-0.5,0.2-1,0.5-1.4"/>
<path fill="none" stroke="#000000" d="M441.2,92.2c-0.5,1.9-4.7-0.9-6.5,0.5"/>
<path fill="none" stroke="#000000" d="M438.9,79c-1.602,4,3.3,9.6,2.398,13.2"/>
<path fill="none" stroke="#000000" d="M443.1,109.9c-16.198,5-22.3-4.1-28.5-11.7"/>
<path fill="none" stroke="#000000" stroke-width="2" d="M447.9,71.5c-3.7-0.6-9.5,1.4-8.7,6"/>
<path fill="none" stroke="#000000" d="M463.3,140c1-3.3,0.4-6.9,1-10.3"/>
<path fill="none" stroke="#000000" d="M466.1,143c0.9-4,0.802-8.2,1.4-12.4"/>
<path fill="none" stroke="#000000" d="M470.9,144.9c0.198-4.7-0.2-9.6,0.1-14.3"/>
<path fill="none" stroke="#000000" d="M476.5,145c-0.7-4.6-0.2-9.4-0.4-14.1"/>
<path fill="none" stroke="#000000" d="M480.1,144.3c-0.6-4.6-0.8-9.3-1.3-13.9"/>
<path fill="none" stroke="#000000" d="M485.2,144.1c-1.2-4.9-2.602-9.8-4-14.6"/>
<path fill="none" stroke="#000000" d="M489.5,142.4c-2.1-4.6-3.6-9.5-5.5-14.2"/>
<path fill="none" stroke="#000000" d="M491.9,140.3c-1.2-4.3-2.102-8.5-3.2-12.8"/>
<path fill="none" stroke="#000000" d="M353.4,142.6c1.398-3.5,2.698-7.2,4.1-10.7"/>
<path fill="none" stroke="#000000" d="M357.8,143.7c1.5-4.2,3.2-8.2,5-12.3"/>
<path fill="none" stroke="#000000" d="M362.4,144.6c1.198-4.2,2.698-8.2,3.8-12.4"/>
<path fill="none" stroke="#000000" d="M367.8,144.8c0.4-3.9,0.7-7.9,1.2-11.8"/>
<path fill="none" stroke="#000000" d="M371.7,145.5c0.6-3.8,0.2-7.8,0.5-11.7"/>
<path fill="none" stroke="#000000" d="M377.5,145.2c0.3-3.9,0.6-7.8,0.7-11.7"/>
<path fill="none" stroke="#000000" d="M382.8,143.8c-0.5-3.3-0.1-6.8-0.398-10.2"/>
<path fill="none" stroke="#000000" d="M386.9,142c-0.302-3.1-0.4-6.3-0.7-9.4"/>
<path id="www.ABC-color.com" fill="none" stroke="#000000" d="M484.6,313c1-5.8-0.6-11.6,0-17.4"/>
<path fill="none" stroke="#000000" d="M489,312.6c0.6-5.6,1-11.199,1.1-16.8"/>
<path fill="none" stroke="#000000" d="M493.5,308.3c-0.8-3.7,0.5-7.8,0.5-11.6"/>
<path fill="none" stroke="#000000" d="M346.8,308.3c0.9-3.8-0.6-7.899-0.398-11.899"/>
<path fill="none" stroke="#000000" d="M351.1,312.9c-0.1-5.602-0.898-11.301-1-16.9"/>
<path fill="none" stroke="#000000" d="M355.8,313c-1-5.7,0.5-11.5,0-17.3"/>
<path fill="none" stroke="#000000" d="M414.1,522.3c-0.8-33,3.602-141.8,6-177.5"/>
<path fill="none" stroke="#000000" d="M428.7,98.6c0.398,0.2,0.8,0.5,1.2,0.7"/>
<path fill="none" stroke="#000000" d="M441.2,100.1c0.6-0.1,1.1-0.5,1.7-0.8"/>
<path fill="none" stroke="#000000" d="M442.8,99.3c-0.2-0.4-0.3-0.9-0.7-1.2"/>
<path fill="none" stroke="#000000" d="M465.4,179.9c0.1-2.6-0.9-4.9-1.5-7.3"/>
</svg>
