<?xml version="1.0" encoding="utf-8"?>
<!-- Generator: Adobe Illustrator 15.0.0, SVG Export Plug-In . SVG Version: 6.00 Build 0)  -->
<!DOCTYPE svg PUBLIC "-//W3C//DTD SVG 1.1//EN" "http://www.w3.org/Graphics/SVG/1.1/DTD/svg11.dtd">
<svg version="1.1" id="layer_x5F_www.ABC-color.com"
	 xmlns="http://www.w3.org/2000/svg" xmlns:xlink="http://www.w3.org/1999/xlink" x="0px" y="0px" width="822px" height="567px"
	 viewBox="0 0 822 567" enable-background="new 0 0 822 567" xml:space="preserve">
<rect display="none" fill="#FFFFFF" width="822" height="567"/>
<path fill="#FFFFFF" stroke="#000000" stroke-width="0.25" d="M598.2,394.1c-0.8,0-1.5-2.1-1.5-4.699c0-2.601,0.7-4.699,1.5-4.699
	s1.5,2.1,1.5,4.699S599,394.1,598.2,394.1z"/>
<path fill="#FFFFFF" stroke="#000000" stroke-width="0.25" d="M597.8,380c-1,0-1.8-2.1-1.8-4.7c0-2.6,0.8-4.7,1.8-4.7
	s1.8,2.102,1.8,4.7C599.7,377.9,598.8,380,597.8,380z"/>
<path fill="#FFFFFF" stroke="#000000" stroke-width="0.25" d="M592.4,338.4c-0.4-1.102-1-2.102-1.802-3l0.102-0.2
	c1.898-1.5,4.398-3.7,5-4.101c1.7-1,4-0.301,5,1.101c1,1.5,0.5,3.5-1.3,4.2C598.7,336.9,594.9,337.8,592.4,338.4L592.4,338.4
	L592.4,338.4z"/>
<path fill="#FFFFFF" stroke="#000000" stroke-width="0.25" d="M594.7,361.3c0-2.8,0.7-5,1.7-5s1.698,2.2,1.698,5s-0.8,5-1.698,5
	C595.5,366.3,594.7,364.1,594.7,361.3z"/>
<path fill="#FFFFFF" stroke="#000000" stroke-width="0.25" d="M595.3,349.3c1.102,1.4,0.4,3.4-1.398,4.2c-1.802,0.9-4.102,0.4-5-1.1
	c-0.302-0.602-1-2.4-1.7-4.5V347.8c1.6-0.399,2.898-1.3,3.898-2.5C592.9,346.9,594.9,348.8,595.3,349.3z"/>
<path fill="#FFFFFF" stroke="#000000" stroke-width="0.25" d="M592.8,342.1c2.5,0.602,5.9,1.301,6.602,1.5
	c1.1,0.5,1.698,1.301,1.8,2.301c0.1,0.699-0.102,1.301-0.5,2c-1,1.5-3.3,2.101-5,1.101c-0.602-0.399-2.7-2.2-4.602-3.7
	c0.802-0.898,1.302-2,1.5-3.3L592.8,342.1z"/>
<path fill="#FFFFFF" stroke="#000000" stroke-width="0.25" d="M592.4,338.4c2.5-0.5,6.3-1.301,7.1-1.4c2-0.1,3.7,1.4,3.7,3.1
	c0,1.7-1.7,3.2-3.7,3.102c-0.8-0.102-4.2-0.602-6.8-1.2H592.6c0.102-0.399,0.102-0.899,0.102-1.3
	C592.8,339.9,592.6,339.2,592.4,338.4L592.4,338.4L592.4,338.4z"/>
<path fill="#FFFFFF" stroke="#000000" stroke-width="0.25" d="M591.5,397.8c-0.6,0-1.2-2.3-1.2-5.2c0-2.898,0.5-5.199,1.2-5.199
	s1.2,2.301,1.2,5.199C592.7,395.4,592.2,397.8,591.5,397.8z"/>
<path fill="#FFFFFF" stroke="#000000" stroke-width="0.25" d="M590.5,335.5c-1-1-2.3-1.7-3.8-1.9c0.7-2.1,1.8-5.1,2.1-5.699
	c0.9-1.5,3.3-2,5-1.101c1.8,0.9,2.5,2.8,1.4,4.2c-0.4,0.5-2.8,2.8-4.7,4.4V335.5z"/>
<path fill="#FFFFFF" stroke="#000000" stroke-width="0.25" d="M589,378c0-3,0.7-5.3,1.5-5.3s1.5,2.399,1.5,5.3c0,3-0.7,5.4-1.5,5.4
	S589,381,589,378z"/>
<path fill="#FFFFFF" stroke="#000000" stroke-width="0.25" d="M589.2,368.3c-0.8,0-1.5-2.399-1.5-5.399s0.7-5.399,1.5-5.399
	s1.5,2.399,1.5,5.399S590,368.3,589.2,368.3z"/>
<path fill="#FFFFFF" stroke="#000000" stroke-width="0.25" d="M585.5,348c-1.1,0-2.1-0.2-3-0.7c-1.3-0.6-2.3-1.5-3-2.7
	c-0.6-0.898-1-1.898-1.1-3c-0.102-0.3-0.102-0.6-0.102-0.898c0-0.7,0.102-1.301,0.3-1.9c0.302-1,0.802-2,1.4-2.8
	c0.8-0.899,1.8-1.7,3-2.101c0.8-0.301,1.7-0.5,2.6-0.5c0.4,0,0.9,0,1.302,0.101c1.5,0.3,2.698,1,3.8,1.899
	c0.8,0.801,1.5,1.801,1.8,3c0.2,0.699,0.4,1.5,0.4,2.301c0,0.5,0,0.898-0.102,1.3c-0.2,1.2-0.8,2.3-1.5,3.3
	c-1,1.2-2.398,2.102-3.898,2.5C586.7,347.9,586.1,348,585.5,348z"/>
<path fill="#FFFFFF" stroke="#000000" stroke-width="0.25" d="M585.3,389.2c0,2.7-0.6,4.8-1.3,4.8s-1.3-2.2-1.3-4.8
	c0-2.7,0.6-4.9,1.3-4.9S585.3,386.5,585.3,389.2z"/>
<path fill="#FFFFFF" stroke="#000000" stroke-width="0.25" d="M582.9,333.9c-0.602-2.102-1.802-5.5-1.802-6.2
	c-0.1-1.7,1.7-3.101,3.7-3.101c0.7,0,1.3,0.199,1.9,0.399l0,0c1.1,0.5,1.898,1.5,1.8,2.601c-0.1,0.601-1,3.699-1.7,5.801
	c-0.398-0.102-0.8-0.102-1.3-0.102C584.6,333.4,583.7,333.6,582.9,333.9L582.9,333.9z"/>
<path fill="#FFFFFF" stroke="#000000" stroke-width="0.25" d="M583,382c-0.9,0-1.7-2.7-1.7-6s0.8-6,1.7-6s1.7,2.7,1.7,6
	S583.9,382,583,382z"/>
<path fill="#FFFFFF" stroke="#000000" stroke-width="0.25" d="M581.1,352.5c0.102-0.6,0.7-3.1,1.4-5.2c0.9,0.4,2,0.7,3,0.7
	c0.6,0,1.2-0.1,1.7-0.2v0.101c0.6,2.101,1.2,4,1.2,4.699c0.1,1.7-1.7,3.102-3.7,3.102S580.9,354.2,581.1,352.5z"/>
<path fill="#FFFFFF" stroke="#000000" stroke-width="0.25" d="M579.7,363c0-2.4,0.7-4.3,1.5-4.3s1.5,1.899,1.5,4.3s-0.7,4.3-1.5,4.3
	S579.7,365.4,579.7,363z"/>
<path fill="#FFFFFF" stroke="#000000" stroke-width="0.25" d="M574.2,349.3c0.398-0.5,3.398-3,5.2-4.6c0.698,1.2,1.8,2.1,3,2.7
	c-0.7,2.1-1.5,4.5-1.9,5.1c-0.9,1.5-3.3,2-5,1.1l0,0c-1.2-0.6-1.9-1.699-1.9-2.699C573.6,350.3,573.8,349.8,574.2,349.3z"/>
<path fill="#FFFFFF" stroke="#000000" stroke-width="0.25" d="M573.8,349c-1.7,1-4,0.3-5-1.1c-1-1.5-0.5-3.5,1.3-4.2
	c0.7-0.3,5-1.2,7.602-1.8c0.2,0,0.3-0.102,0.5-0.102h0.1c0.102,1.102,0.5,2.102,1.102,3C577.5,346.2,574.5,348.6,573.8,349z"/>
<path fill="#FFFFFF" stroke="#000000" stroke-width="0.25" d="M575.5,326.7c1.8-0.9,4.1-0.4,5,1.1c0.3,0.601,1.6,4,2.3,6l0,0
	c-1.2,0.4-2.2,1.2-3,2.101c-1.8-1.601-5.3-4.601-5.8-5.101C573,329.5,573.8,327.6,575.5,326.7z"/>
<path fill="#FFFFFF" stroke="#000000" stroke-width="0.25" d="M597.8,380c1,0,1.8-2.1,1.8-4.7c0-2.6-0.8-4.7-1.8-4.7
	s-1.8,2.102-1.8,4.7C596,377.9,596.8,380,597.8,380z M598.2,394.1c0.8,0,1.5-2.1,1.5-4.699c0-2.601-0.7-4.699-1.5-4.699
	s-1.5,2.1-1.5,4.699S597.3,394.1,598.2,394.1z M596.3,366.3c0.9,0,1.7-2.2,1.7-5s-0.8-5-1.7-5c-0.898,0-1.7,2.2-1.7,5
	C594.7,364.1,595.4,366.3,596.3,366.3z M591.5,397.8c0.7,0,1.2-2.3,1.2-5.2c0-2.898-0.5-5.199-1.2-5.199c-0.6,0-1.2,2.301-1.2,5.199
	C590.3,395.4,590.9,397.8,591.5,397.8z M589.2,368.3c0.8,0,1.5-2.399,1.5-5.399s-0.7-5.399-1.5-5.399s-1.5,2.399-1.5,5.399
	S588.3,368.3,589.2,368.3z M589,378c0,3,0.7,5.4,1.5,5.4s1.5-2.4,1.5-5.4s-0.7-5.3-1.5-5.3S589,375.1,589,378z M583,382
	c0.9,0,1.7-2.7,1.7-6s-0.8-6-1.7-6s-1.7,2.7-1.7,6S582.1,382,583,382z M584,394.1c0.7,0,1.3-2.199,1.3-4.8
	c0-2.7-0.6-4.899-1.3-4.899s-1.3,2.199-1.3,4.899C582.7,391.9,583.3,394.1,584,394.1z M579.7,363c0,2.4,0.7,4.3,1.5,4.3
	s1.5-1.899,1.5-4.3s-0.7-4.3-1.5-4.3S579.7,360.6,579.7,363z M582.5,434c-15,0.5-6.9-14.5-6.9-14.5s-20.8,0-25.5-12.7
	c0,0,3.802-7.898,7.7-14.1c0,0-12.2,0.2-12.7-4.8c0,0,15.5-22.4,25.2-31c2-1.801,3.8-3,5.102-3.301l0.1-0.101l0,0
	c1.8,0.899,4.1,0.399,5-1.101c0.3-0.601,1.2-3,1.9-5.101c-0.7,2.101-1.302,4.5-1.4,5.2c-0.1,1.7,1.7,3.1,3.7,3.1s3.8-1.398,3.7-3.1
	c-0.102-0.6-0.602-2.5-1.2-4.7c0.7,2.101,1.398,4,1.7,4.5c0.898,1.5,3.3,2,5,1.101c1.8-0.899,2.5-2.801,1.398-4.199
	c-0.398-0.5-2.398-2.4-4.2-4c1.9,1.5,3.9,3.3,4.602,3.699c1.7,1,4,0.301,5-1.101c0.398-0.601,0.6-1.3,0.5-2h0.1
	c0,0,26.7,21.399,27.7,33.5c0,0-1,7.5-5,10c0,0,5.5,21.602,2,24.602c0,0-4.7,3.198-11.2,7C605.1,426.6,591.3,433.8,582.5,434z"/>
<path fill="#FFFFFF" stroke="#000000" stroke-width="0.25" d="M570.3,356.8c-25.2,17.2-41.7,8-41.7,8c-5.5,0-20-16.5-20-16.5l19-0.5
	c14.5,14.601,45.5,3,45.5,3h0.5c0,1.101,0.7,2.101,1.9,2.7l-0.1,0.1C574.1,353.9,572.3,355.1,570.3,356.8L570.3,356.8z"/>
<path fill="#FFFFFF" stroke="#000000" stroke-width="0.25" d="M568.8,332.4c1-1.5,3.3-2.102,5-1.102
	c0.602,0.4,4.3,3.301,6.102,4.801c-0.7,0.801-1.2,1.699-1.4,2.801l0,0c-2.5-0.602-7.7-1.9-8.4-2.2
	C568.3,335.9,567.8,333.9,568.8,332.4z"/>
<path fill="#FFFFFF" stroke="#000000" stroke-width="0.25" d="M570,343.2c-2,0.1-3.7-1.4-3.7-3.101c0-1.699,1.7-3.199,3.7-3.101
	c0.8,0,6,1.3,8.5,1.8l0,0c-0.2,0.602-0.3,1.2-0.3,1.9c0,0.3,0,0.6,0.1,0.898h-0.1c-0.2,0-0.3,0.102-0.5,0.102
	C575.1,342.3,570.7,343.2,570,343.2z"/>
<path fill="#FFFFFF" stroke="#000000" stroke-width="0.25" d="M518.4,328.7c-23.5,0-30.802-28.601-30.802-28.601
	c-46-45.201-41.5-43.899-55.5-45.399c6.4-3.1,15.9-6.7,25-5.9c-0.198-3.3,0.2-6.8,0.802-10.5c104.8,5.4,128.3,85.4,128.698,86.7
	c-0.6-0.3-1.198-0.4-1.898-0.4c-2,0-3.8,1.4-3.7,3.102c0.1,0.6,1.2,4,1.8,6.199c-0.7-2.101-2-5.5-2.3-6c-0.9-1.5-3.3-2-5-1.101
	c-1.8,0.9-2.5,2.8-1.4,4.2c0.4,0.5,3.9,3.5,5.802,5.1c-1.9-1.5-5.5-4.398-6.102-4.8c-1.7-1-4-0.3-5,1.101c-1,1.5-0.5,3.5,1.3,4.199
	c0.7,0.301,5.9,1.602,8.4,2.201c-2.5-0.5-7.7-1.801-8.5-1.801c-2-0.1-3.7,1.4-3.7,3.1c0,1.701,1.7,3.201,3.7,3.102
	c0.7-0.102,5.1-0.898,7.8-1.5c-2.6,0.602-7,1.602-7.6,1.8c-1.8,0.802-2.4,2.802-1.3,4.2c1,1.5,3.3,2.102,5,1.102
	c0.6-0.4,3.698-2.802,5.6-4.302c-1.8,1.601-4.8,4.101-5.2,4.601c-0.398,0.5-0.5,1-0.5,1.5h-0.5c0,0-31,11.5-45.5-3
	c3-14.5-8-19.101-8-19.101C519.3,328.7,518.9,328.7,518.4,328.7C518.5,328.7,518.5,328.7,518.4,328.7z"/>
<path fill="#FFFFFF" stroke="#000000" stroke-width="0.25" d="M479.2,198.4c5.2,1.7,12.2-2,17.7-1.6c1.898,8,11.5,1.3,13.198-2.7
	c0.9-2-1.8-3.9-2.8-6.4c0.2,0,0.5,0,0.7,0c3.8,2.5,44.8,32.9,48.6,35.6c6.2,4.5,16.102,7.4,22.4,8.6c4.9,0.9,14.5-5.6,18.3-7.4
	c6.5-3,18-3.9,17.102-1.9c-0.7,1.4-7.2,2.8-8.9,3.5c5.4-0.3,12,1.7,11.7,4.8c-0.4-0.1-0.5,1.1-0.8,1c-0.5-0.3-1.102-0.6-1.7-0.9
	c0.1,0.7-0.102,2-0.4,2.6c-0.3,0.1-0.7,0.1-1.1,0.1c0.3,0.2,0.5,0.5,0.7,0.7c-0.4,0.4-0.802,1-1.5,1.2c-10.302,0.2-10.5-0.3-18,5.5
	c1.898,2.6,11.698,1.4,5.6,6.4c-0.3,0.6-23.4-0.2-30.9-3.1C523.5,227,500.5,212,479.2,198.4z"/>
<path fill="#FFFFFF" stroke="#000000" stroke-width="0.25" d="M449.7,183c-0.3-1.2-0.4-2.3-0.3-3.3l0.5,0.1
	c7.698-2,20.198-0.4,28.3,0.5c9.1,1,17.398-3.7,26.6-3.7l0.4-0.1c0,0.7-1.602,0.4-1.3,2c0.398,1.8,6.398,1.5,5,3
	c-0.2,0.2-0.302,0.4-0.5,0.6c-1.7,2.2-1.802,4-1.2,5.5c-5.3-0.1-13.3-1.4-17.9-0.6c-2.8,0.5-3.8,2.3-7.398,2
	c-0.602-0.1-4.802-2.1-5.802-2.4C460.6,181.2,452.5,183,449.7,183L449.7,183z"/>
<path fill="#FFFFFF" stroke="#000000" stroke-width="0.25" d="M494,327.8c3,2.601,8,5.2,15.7,2.9c3.8-1.101,6.8-1.9,8.8-2
	c0,0,0,0,0.1,0c0.4,0,0.802,0,1.102,0c0,0,11,4.5,8,19.1l-19,0.5c0,0-7.2,3-14.602-20.2C494,327.9,494,327.9,494,327.8z"/>
<path fill="#FFFFFF" stroke="#000000" stroke-width="0.25" d="M473.6,172c-4.198-0.2-7.398,2-12.5,2c-4,0-4.3-2.5-7.398,0
	c-1.102-0.8-1.9-1.6-2.602-2.4l0.2-0.2c2-0.3,0.2-1,2.9-1.9c1.8-0.6,4-2,5.2-2.4c3.398-1.1,11.398,1.9,12.8-2.2
	c9.8-2,16.3-3.3,19.2-3.3c0.3,0.3,0.6,0.6,0.898,1c1.4,1.4,1.8,3,1.602,5v0.1C489.9,167.9,475.1,168.5,473.6,172z"/>
<path fill="#FFFFFF" stroke="#000000" stroke-width="0.25" d="M487.6,300.1c0,0,7.302,28.602,30.802,28.602c-2,0.1-5,0.8-8.802,2
	c-7.6,2.3-12.698-0.301-15.698-2.9C491.8,321,489.7,312,487.6,300.1z"/>
<path fill="#FFFFFF" stroke="#000000" stroke-width="0.25" d="M468.6,304.6c8.302,3.2,19.102-4.5,19.102-4.5
	c2,11.9,4.2,20.9,6.3,27.7c-2.3-2-3.3-4.1-3.3-4.1C490.6,321.8,478.3,307.6,468.6,304.6L468.6,304.6z"/>
<path fill="#FFFFFF" stroke="#000000" stroke-width="0.25" d="M466.1,304.1c0.802,0.102,1.602,0.301,2.4,0.5
	c9.8,3,22.1,17.2,22.1,19.102c0,0,1,2.1,3.302,4.1c0,0.102,0,0.2,0.1,0.2c0,0-13.9,2.7-24.4-18.899c0,0-3.8-4.399-4.8-4.399l0.3-0.8
	C465.4,304,465.8,304.1,466.1,304.1z"/>
<path fill="#FFFFFF" stroke="#000000" stroke-width="0.25" d="M464.8,304.7c1.102,0,4.8,4.399,4.8,4.399
	C480.1,330.7,494,328,494,328c7.4,23.2,14.6,20.2,14.6,20.2s14.5,16.5,20,16.5c0,0,16.4,9.2,41.7-8l0,0c-9.7,8.6-25.2,31-25.2,31
	c0.5,5,12.7,4.8,12.7,4.8c-3.898,6.2-7.7,14.1-7.7,14.1c4.7,12.7,25.5,12.7,25.5,12.7s-8.1,15,6.9,14.5
	c8.8-0.3,22.6-7.398,32.3-13.1l5.7,21l6.1,28.6c-40.698,43.5-70.898,36-70.898,36c-12.8,10.5-27.3,9-35.8,6.602v-0.2
	c3.5-0.5,6-3.8,5.5-7.4c-0.5-3.6-3.802-6.1-7.302-5.6l0.802-4.5c3.398-1,5.398-4.602,4.398-8.102c-0.898-3.1-3.898-5-7-4.6l0,0
	l-1.1-5c3.398-1,5.398-4.6,4.398-8.1s-4.6-5.4-8.1-4.4l-1.1-5.2c3.398-1,5.398-4.6,4.398-8.1s-4.6-5.4-8.1-4.4l-1.2-3.898
	c3.4-1.102,5.3-4.7,4.3-8.2s-4.7-5.4-8.1-4.3l-1.7-3.7c2.899-2.102,3.6-6.2,1.399-9.102c-2.101-2.898-6.199-3.6-9.101-1.398
	l-1.399-5.8c2.899-2.102,3.601-6.2,1.399-9.102c-2.1-2.898-6.2-3.6-9.1-1.398l-2.7-6.2c2.899-2.102,3.6-6.2,1.399-9.102
	c-2.199-2.898-6.199-3.6-9.101-1.398l-3-8.2c3.601-0.3,6.2-3.5,5.9-7.101c-0.301-3.601-3.5-6.199-7-5.899l-1-3.101
	c3.6-0.399,6.1-3.601,5.699-7.199c-0.399-3.602-3.601-6.2-7.199-5.7l-1-4.7c3.3-1.3,5-5.102,3.699-8.5
	c-1.301-3.3-5.101-5-8.399-3.699l-0.8-3.5c3.3-1.301,5-5.101,3.699-8.5c-1.301-3.4-5.101-5-8.399-3.699l-0.2-3.5v-0.201
	c4.9-1.299,9.5-4.1,9.5-5.199C464.5,304.8,464.6,304.7,464.8,304.7z"/>
<path fill="#FFFFFF" stroke="#000000" stroke-width="0.25" d="M461.9,192.2c-1.7-9.8-8.4,1.2-11.2-6.6c-0.4-0.9-0.8-1.7-1-2.5h0.1
	c2.7,0,10.7-1.8,26.4,3.6c1,0.3,5.2,2.3,5.8,2.4c3.6,0.4,4.6-1.5,7.4-2c4.6-0.7,12.5,0.5,17.898,0.6c1,2.5,3.7,4.4,2.8,6.4
	c-1.698,4.1-11.3,10.7-13.198,2.7c-5.5-0.3-12.5,3.3-17.7,1.6c-0.8-0.5-1.7-1.1-2.5-1.6c-0.3-0.3-0.5-0.6-0.8-1
	c-0.9-1.3-1.602-2.8-3-3.5C470.3,191.1,464.8,192.3,461.9,192.2z"/>
<path fill="#FFFFFF" stroke="#000000" stroke-width="0.25" d="M453.8,174c3.102-2.5,3.4,0,7.4,0c5.1,0,8.3-2.1,12.5-2
	c1.5-3.5,16.3-4.1,20.3-4.4v-0.1c8.3-0.8,7.7,2.7,11.1,8.4c0.102,0.2,0.2,0.4,0.2,0.6l-0.398,0.1c-9.2,0-17.5,4.6-26.602,3.7
	c-8-0.8-20.6-2.5-28.3-0.5l-0.5-0.1C449.8,177.6,451.2,175.8,453.8,174z"/>
<path fill="#FFFFFF" stroke="#000000" stroke-width="0.25" d="M450.5,162.4c-4.5-0.4-6.8-1.9-7.6-5.6l0.6-0.1
	c1.5-1.9,5.8-1.7,7.5-3.5c3.3-3.4,1.5,0.7,6.4-1.3c2.6-1.1,5.5-4.3,8.3-6.3c2.7-2,5.3-2.9,7.3,0.1c0.8,1.2,0.5,3.4,0.2,4.9h-1.9
	c-0.8,0-1.8,0-1.898,0.2c-0.5,0.7,0.3,2.3-0.2,3c-1.9,2.5-10.2,1.3-11.3,4.4c-1-0.1-2.602-0.3-3.5,0.2
	C451.3,160.1,450.6,161.7,450.5,162.4z"/>
<path fill="#FFFFFF" stroke="#000000" stroke-width="0.25" d="M435.1,289l-7.8-26.8c0.5,0.8,11.2,15.9,21.7,27.7
	c0.6,2.699,4.3,6.8,2.1,11.1c0.5-2-4.1-6.5-6.5-9C443.4,290.7,436.1,286,435.1,289z"/>
<path fill="#FFFFFF" stroke="#000000" stroke-width="0.25" d="M449.5,167.6L449.5,167.6c-0.2-1.4,0.2-3,1-4.8c0-0.1,0.1-0.2,0.2-0.3
	c-0.102,0-0.102,0-0.2,0c0.1-0.8,0.8-2.3,3.8-4.1c0.9-0.6,2.5-0.4,3.5-0.2c1.102-3.1,9.5-1.9,11.3-4.4c0.5-0.7-0.3-2.3,0.2-3
	c0.102-0.1,1.102-0.2,1.9-0.2h1.898c2.2,0.1,5.302-1.5,6.7,0.2c0.602,0.7,0.3,2.1,0.2,2.9c0.1,0.1,0.3,0.1,0.5,0.2c-1,1-2,1.6-3.2,3
	c-3.3,0.2-7.898-1.3-8.8,2.5c-6.4,3.6-4.4,4.6-12.4,5C453.3,164.9,451.7,168.3,449.5,167.6z"/>
<path fill="#FFFFFF" stroke="#000000" stroke-width="0.25" d="M449.5,167.6c2.2,0.7,3.8-2.7,6.7-3.2c8-0.4,6-1.4,12.398-5
	c0.9-3.8,5.5-2.3,8.802-2.5c1.198-1.4,2.3-2,3.198-3c2.7,0.9,5.7,1.3,7.802,2.9c2.1,1.6,0.698,2.1,3,4.8c-3,0-9.4,1.3-19.2,3.3
	c-1.4,4.1-9.4,1.1-12.8,2.2c-1.102,0.4-3.302,1.8-5.2,2.4c-2.7,0.9-0.9,1.5-2.9,1.9l-0.2,0.2C450.1,170.4,449.5,169,449.5,167.6
	L449.5,167.6z"/>
<path fill="#FFFFFF" stroke="#000000" stroke-width="0.25" d="M426.5,258.9L426.5,258.9l-0.4-0.9l0,0c0.9-0.6,2.2-1.3,3.9-2.2
	c15.1,13.8,24.6,19.4,28.7,21.5C455.9,276.5,437.6,274.3,426.5,258.9z"/>
<path fill="#FFFFFF" stroke="#000000" stroke-width="0.25" d="M458.8,277.3c-4.1-2.1-13.6-7.8-28.7-21.5c0.7-0.3,1.4-0.7,2.102-1.1
	l0,0c14,1.5,9.5,0.2,55.5,45.399c0,0-10.8,7.699-19.102,4.5c-5.6-2.199-10.1-9.301-9.398-27.101C459.1,277.4,459,277.4,458.8,277.3
	L458.8,277.3z"/>
<path fill="#FFFFFF" stroke="#000000" stroke-width="0.25" d="M445.4,309.4c2.198,2,5.898,1.8,9.6,0.8v0.2l0.2,3.5
	c3.3-1.301,7.1,0.3,8.398,3.699c1.302,3.301-0.398,7.101-3.698,8.5l0.8,3.5c3.398-1.301,7.1,0.399,8.398,3.699
	c1.302,3.4-0.3,7.102-3.698,8.5l1,4.7c3.6-0.399,6.8,2.2,7.198,5.7c0.4,3.6-2.1,6.8-5.698,7.199l1,3.101c3.6-0.3,6.698,2.3,7,5.899
	c0.3,3.601-2.302,6.801-5.9,7.101l3,8.2c2.9-2.102,7-1.5,9.1,1.398c2.102,2.9,1.5,7-1.398,9.102l2.7,6.2
	c2.898-2.101,7-1.5,9.1,1.399s1.5,7-1.4,9.101l1.4,5.8c2.9-2.102,7-1.5,9.1,1.398c2.102,2.9,1.5,7-1.398,9.102l1.7,3.7
	c3.398-1.102,7.1,0.898,8.1,4.3c1.1,3.398-0.9,7.1-4.3,8.2l1.2,3.898c3.5-1,7.1,1,8.1,4.4c1,3.5-1,7.1-4.399,8.1l1.101,5.2
	c3.399-1,7,1,8.1,4.4c1.102,3.398-1,7.1-4.398,8.1l1.1,5l0,0c3.101-0.399,6.101,1.5,7,4.601c1,3.5-1,7.101-4.399,8.101l-0.801,4.5
	c3.602-0.5,6.801,2,7.301,5.6c0.5,3.602-2,6.9-5.5,7.4v0.2c8.5,2.3,23,3.898,35.801-6.602c0,0,30.199,7.5,70.898-36l1.4,6.7
	c-41,44.2-71.5,36.602-71.5,36.602c-19.5,16.1-43,4-43,4c-0.5-86.802-50-137.502-50-137.502C467.5,349.3,445.3,309.4,445.4,309.4
	L445.4,309.4z"/>
<path fill="#FFFFFF" stroke="#000000" stroke-width="0.25" d="M444.1,299.1L444.1,299.1c-0.3-0.6-1.698-5.898,0.5-7
	c2.4,2.5,7,7,6.5,9S444.1,299.1,444.1,299.1z"/>
<path fill="#FFFFFF" stroke="#000000" stroke-width="0.25" d="M444.1,299.1c0,0,6.5,4,7,2c2.302-4.3-1.5-8.398-2.1-11.1
	c6.1,6.9,12.1,12.7,16,13.9l-0.3,0.8c-0.2,0-0.3,0.1-0.3,0.399c0,1.101-4.602,3.899-9.5,5.199c-3.7,1-7.4,1.102-9.602-0.8
	c-0.3-0.2-0.5-0.5-0.7-0.8C441.3,303.8,443.9,299.4,444.1,299.1L444.1,299.1L444.1,299.1z"/>
<path fill="#FFFFFF" stroke="#000000" stroke-width="0.25" d="M439.1,100.8c1-0.3,1.7-1.1,1.7-2c0-1.2-1.1-2.2-2.6-2.2v-0.2
	c2.3,0,4.6-0.2,6.2,1.3C443.6,99.7,441.5,100.6,439.1,100.8z"/>
<path fill="#FFFFFF" stroke="#000000" stroke-width="0.25" d="M437.6,100.9c-1.1-0.2-1.898-1.1-1.898-2.1c0-1.2,1.2-2.2,2.6-2.2
	c1.4,0,2.602,1,2.602,2.2c0,1-0.7,1.8-1.7,2C438.6,100.9,438.1,100.9,437.6,100.9z"/>
<path fill="#FFFFFF" stroke="#000000" stroke-width="0.25" d="M431.6,99.6c1.9-2.2,3.4-3.2,6.2-3.2c0.2,0,0.3,0,0.5,0v0.2
	c-1.398,0-2.6,1-2.6,2.2c0,1,0.8,1.9,1.898,2.1C435.3,100.8,433,100.3,431.6,99.6z"/>
<path fill="#FFFFFF" stroke="#000000" stroke-width="0.25" d="M430.6,177.1c2.302,0,4.102-1.4,4.102-3.1s-1.8-3.2-4.102-3.2
	c-2.3,0-4.1,1.4-4.1,3.2C426.5,175.7,428.4,177.1,430.6,177.1z M431,182.2c-5.2,0-9.4-3.7-9.4-8.2s4.2-8.2,9.4-8.2s9.4,3.7,9.4,8.2
	S436.2,182.2,431,182.2z"/>
<path fill="#FFFFFF" stroke="#000000" stroke-width="0.25" d="M431,182.2c5.2,0,9.4-3.7,9.4-8.2s-4.2-8.2-9.4-8.2s-9.4,3.7-9.4,8.2
	S425.7,182.2,431,182.2z M431,197.2c-3.4-4.9-6.6-5.8-11.7-3c-0.2-3.8-1.1-6.1-3.3-7.3c-1.3-0.7-3-1-5.2-1.1c0.9-1.6,1.4-3,1.5-4.3
	c0.2-1.6-0.2-3-1.1-4.3c-0.8-1.1-2-2.2-3.602-3.2c0.302-0.2,0.602-0.4,0.9-0.6c2.4-1.7,3.7-3.4,3.9-5.4c0.198-1.7-0.302-3.6-1.5-5.9
	c6-0.1,8.198-2.4,8.5-8.3c5.198,2.8,8.3,1.9,11.698-3c3.302,4.9,6.4,5.8,11.602,3.3c0,1,0.2,1.9,0.398,2.7
	c0.802,3.6,3.102,5.2,7.602,5.6c0,0.1,0,0.3,0,0.4c-0.8,1.8-1.2,3.4-1.102,4.8c0.102,1.4,0.7,2.8,1.7,4c0.7,0.8,1.602,1.6,2.602,2.4
	c-2.5,1.9-3.9,3.7-4.302,5.7c-0.198,1-0.1,2.1,0.302,3.3c0.198,0.8,0.5,1.6,1,2.5c-5.602,0.4-7.802,2.7-8.102,8.3
	C437.5,191.4,434.3,192.3,431,197.2z"/>
<path fill="#FFFFFF" stroke="#000000" stroke-width="0.25" d="M430.6,177.1c-2.3,0-4.1-1.4-4.1-3.1s1.8-3.2,4.1-3.2
	c2.302,0,4.102,1.4,4.102,3.2C434.7,175.7,432.9,177.1,430.6,177.1z"/>
<path fill="#FFFFFF" stroke="#000000" stroke-width="0.25" d="M421.2,124.5c-3.8-0.4-4.3-3-6.102-5.4
	c8.802,3.5,11.802-0.9,16.802,0.8C426.5,123.9,425.9,124.7,421.2,124.5z"/>
<path fill="#FFFFFF" stroke="#000000" stroke-width="0.25" d="M429,211.2c-0.6,0.2-1.3,0.2-1.8-0.2s-0.8-0.9-0.7-1.5
	c-0.6-0.1-1.1-0.5-1.3-1.1s0-1.2,0.398-1.6c-0.398-0.4-0.6-1-0.398-1.6c0.2-0.6,0.8-1,1.398-1.1c-0.1-0.6,0.2-1.1,0.7-1.5
	s1.2-0.4,1.8-0.1c0.302-0.5,0.9-0.8,1.602-0.8s1.3,0.4,1.6,1c0.602-0.3,1.4-0.3,1.9,0.1c0.5,0.4,0.8,1,0.7,1.5
	c0.6,0.1,1.1,0.5,1.3,1.1s0,1.2-0.5,1.6c0.398,0.4,0.6,1,0.398,1.6c-0.198,0.6-0.8,1-1.398,1c0.1,0.6-0.2,1.1-0.8,1.5
	c-0.5,0.4-1.302,0.4-1.802,0.1c-0.3,0.5-0.898,0.8-1.6,0.8C429.9,212,429.3,211.7,429,211.2z"/>
<path fill="#FFFFFF" stroke="#000000" stroke-width="0.25" d="M427.1,230.6c-0.6,0.2-1.3,0.2-1.8-0.2s-0.8-1-0.7-1.5
	c-0.6-0.1-1.1-0.5-1.3-1.1c-0.2-0.6,0-1.2,0.4-1.6c-0.4-0.4-0.602-1-0.4-1.6s0.8-1,1.4-1.1c-0.102-0.6,0.2-1.1,0.7-1.5
	s1.3-0.4,1.8-0.1c0.3-0.5,0.898-0.8,1.6-0.8s1.3,0.4,1.602,1c0.6-0.3,1.398-0.3,1.898,0.1c0.5,0.4,0.8,1,0.7,1.5
	c0.6,0.1,1.1,0.5,1.3,1.1c0.2,0.6,0,1.2-0.5,1.6c0.4,0.4,0.602,1,0.4,1.6s-0.8,1-1.4,1c0.102,0.6-0.2,1.1-0.8,1.5
	c-0.5,0.3-1.3,0.4-1.8,0.1c-0.3,0.5-0.9,0.8-1.602,0.8C428,231.5,427.4,231.2,427.1,230.6z"/>
<path fill="#FFFFFF" stroke="#000000" stroke-width="0.25" d="M427.3,262.2l-0.898-3.3h0.1c11.1,15.3,29.4,17.5,32.3,18.4l0,0
	c0.102,0.1,0.2,0.1,0.4,0.2c-0.7,17.8,3.8,24.9,9.398,27.1l0,0c-0.8-0.3-1.6-0.398-2.398-0.5c-0.3,0-0.7-0.1-1.102-0.199
	c-3.898-1.301-9.898-7-16-13.899C438.6,278.1,427.9,263,427.3,262.2C427.4,262.2,427.4,262.2,427.3,262.2z"/>
<path fill="#FFFFFF" stroke="#000000" stroke-width="0.25" d="M424.7,258.9c0,0,0.5-0.4,1.5-0.9l0.3,1l0.9,3.3l0,0l7.8,26.8
	c-1,3,0,12.5-7,15.102c-7-2.5-6.602-10-7.602-13l4-29.5l0,0C424.6,260.7,424.7,259.9,424.7,258.9L424.7,258.9z"/>
<path fill="#FFFFFF" stroke="#000000" stroke-width="0.25" d="M425.2,208.4c0.2,0.6,0.7,1,1.3,1.1c-0.1,0.6,0.2,1.1,0.7,1.5
	s1.2,0.4,1.8,0.2c0.3,0.5,0.9,0.9,1.5,0.9c0.7,0,1.3-0.3,1.6-0.8c0.602,0.3,1.302,0.2,1.802-0.1c0.6-0.3,0.8-0.9,0.8-1.5
	c0.6-0.1,1.2-0.5,1.398-1c0.2-0.6,0.102-1.2-0.398-1.6c0.5-0.4,0.7-1,0.5-1.6s-0.7-1-1.3-1.1c0.1-0.5-0.102-1.1-0.7-1.5
	c-0.602-0.4-1.3-0.4-1.9-0.1c-0.3-0.6-0.898-1-1.6-1s-1.3,0.3-1.602,0.8c-0.6-0.2-1.3-0.2-1.8,0.1c-0.5,0.4-0.8,0.9-0.7,1.5
	c-0.6,0.1-1.198,0.5-1.398,1.1c-0.2,0.6,0,1.2,0.398,1.6C425.2,207.2,425,207.8,425.2,208.4z M424.9,210.5
	c-0.9-0.1-1.602-0.7-1.9-1.5s0-1.6,0.6-2.2c-0.6-0.6-0.8-1.4-0.5-2.2c0.302-0.8,1-1.3,1.9-1.5c-0.1-0.8,0.3-1.6,1-2.1
	c0.8-0.5,1.7-0.5,2.5-0.2c0.4-0.7,1.2-1.2,2.2-1.2s1.898,0.5,2.3,1.3c0.8-0.4,1.9-0.4,2.7,0.2c0.7,0.5,1.1,1.3,0.898,2.1
	c0.9,0.2,1.602,0.7,1.9,1.6c0.3,0.8,0,1.6-0.6,2.2c0.6,0.6,0.8,1.4,0.5,2.2c-0.302,0.8-1.102,1.3-2,1.5c0.1,0.8-0.302,1.6-1,2.1
	c-0.802,0.5-1.7,0.5-2.5,0.2c-0.4,0.7-1.302,1.1-2.2,1.1c-0.9,0-1.7-0.5-2.102-1.2c-0.8,0.3-1.8,0.3-2.5-0.2
	C425.1,212.1,424.7,211.3,424.9,210.5z"/>
<path fill="#FFFFFF" stroke="#000000" stroke-width="0.25" d="M425.4,248.4c-0.602,0.2-1.302,0.2-1.802-0.2
	c-0.5-0.4-0.8-1-0.698-1.5c-0.602-0.1-1.102-0.5-1.302-1.1c-0.198-0.6,0-1.2,0.4-1.6c-0.4-0.4-0.6-1-0.4-1.6
	c0.2-0.6,0.7-1,1.302-1.1c-0.102-0.6,0.198-1.1,0.698-1.5c0.5-0.4,1.2-0.4,1.802-0.1c0.3-0.5,0.898-0.8,1.5-0.8
	c0.698,0,1.3,0.4,1.6,1c0.6-0.3,1.3-0.3,1.9,0.1c0.5,0.4,0.8,1,0.698,1.5c0.602,0.1,1.102,0.5,1.302,1.1c0.198,0.6,0,1.2-0.5,1.6
	c0.398,0.4,0.6,1,0.398,1.6c-0.2,0.6-0.8,1-1.398,1c0.1,0.6-0.2,1.1-0.802,1.5c-0.5,0.3-1.198,0.4-1.8,0.1
	c-0.3,0.5-0.898,0.8-1.6,0.8C426.3,249.3,425.7,248.9,425.4,248.4z"/>
<path fill="#FFFFFF" stroke="#000000" stroke-width="0.25" d="M396.5,279.5c3.9-2,12.6-6.4,28.2-20.6v0.1l-0.2,2.5l0,0
	c-0.6,3.4-2.5,5.4-2.5,5.4c-0.4,0.5-0.7,1-1.1,1.5C407.9,285.2,396.5,279.5,396.5,279.5z"/>
<path fill="#FFFFFF" stroke="#000000" stroke-width="0.25" d="M423,114.7c0-0.6,0.1-1.5,0.1-2.2c1.4,1,1.4,0.8,1.9,2.3
	C424,115,424.5,114.9,423,114.7z"/>
<path fill="#FFFFFF" stroke="#000000" stroke-width="0.25" d="M424.7,223.6c-0.602,0.1-1.2,0.5-1.4,1.1c-0.2,0.6,0,1.2,0.4,1.6
	c-0.4,0.4-0.602,1-0.4,1.6s0.7,1,1.3,1.1c-0.1,0.6,0.2,1.1,0.7,1.5s1.2,0.4,1.8,0.2c0.302,0.5,0.9,0.9,1.5,0.9
	c0.7,0,1.302-0.3,1.602-0.8c0.6,0.3,1.3,0.2,1.8-0.1c0.6-0.4,0.8-0.9,0.8-1.5c0.602-0.1,1.2-0.5,1.4-1c0.2-0.6,0.1-1.2-0.4-1.6
	c0.4-0.4,0.602-1,0.5-1.6c-0.2-0.6-0.7-1-1.3-1.1c0.1-0.6-0.1-1.1-0.7-1.5c-0.6-0.4-1.3-0.4-1.898-0.1c-0.302-0.6-0.9-1-1.602-1
	s-1.3,0.3-1.6,0.8c-0.602-0.3-1.3-0.2-1.8,0.1C424.9,222.5,424.6,223,424.7,223.6z M423,230c-0.9-0.1-1.6-0.7-1.9-1.5
	c-0.3-0.8,0-1.7,0.602-2.2c-0.602-0.6-0.8-1.4-0.5-2.2c0.3-0.8,1-1.3,1.898-1.5c-0.1-0.8,0.2-1.6,1-2.1c0.802-0.5,1.7-0.5,2.5-0.2
	c0.4-0.7,1.2-1.2,2.2-1.2s1.9,0.5,2.3,1.3c0.802-0.4,1.9-0.4,2.7,0.2c0.7,0.5,1,1.4,0.9,2.1c0.898,0.2,1.6,0.7,1.8,1.5
	c0.3,0.8,0,1.7-0.6,2.2c0.6,0.6,0.8,1.4,0.5,2.2c-0.302,0.8-1.102,1.3-1.9,1.5c0.1,0.8-0.3,1.6-1.1,2.1c-0.802,0.5-1.7,0.5-2.5,0.2
	c-0.4,0.7-1.302,1.1-2.2,1.1c-0.9,0-1.8-0.5-2.2-1.2c-0.8,0.3-1.8,0.3-2.5-0.2C423.2,231.6,422.9,230.8,423,230z"/>
<path fill="#FFFFFF" stroke="#000000" stroke-width="0.25" d="M368,302.1c46-45.2,41-43.7,55-45.2l0.1-0.1
	c0.602,0.7,1.102,1.4,1.602,2.1c-15.602,14.2-24.3,18.6-28.2,20.6c0.8,17.1-3.2,24.4-8.5,26.9c-0.4,0.1-0.9,0.3-1.3,0.5l0,0
	C378.4,309.6,368,302.1,368,302.1z"/>
<path fill="#FFFFFF" stroke="#000000" stroke-width="0.25" d="M423.1,112.5c0,0.6-0.1,1.5-0.1,2.2c1.5,0.2,1,0.3,2,0.1
	C424.5,113.3,424.5,113.5,423.1,112.5z M421,114.9c0-1.1,0.4-2.2-0.4-2.5c0,0.9-1.698,1.3-1.898,2.6
	C419.4,115.1,420.4,114.9,421,114.9z M401.6,117.1c-10.1-18-0.5-42.4,19.2-48.8c11.3,11.3,33.5,21.1,32,39.8l0.3,0.5
	c2.5-1.5,1.802-6.8,6.302-8.7c2.3-0.4,3.898,2.9,3.6,4.9c-0.8,7-11.9,12-16.3,19.6c-0.5,0.5-1.102,1-1.602,1.5
	c-7.5,6.4-17.8,10.6-27.5,7.2C411,129.5,406.2,122.9,401.6,117.1z M415.1,119.2c1.802,2.3,2.302,5,6.102,5.4
	c4.7,0.1,5.3-0.7,10.7-4.5C426.8,118.3,423.9,122.7,415.1,119.2z M408.8,102.1c2.3,0,4.602-0.6,6.102-1.2c-1.9-2.3-3.4-3.2-6.2-3.2
	c-0.2,0-0.3,0-0.5,0c-2.3,0-4.602-0.2-6.2,1.3c0.9,2,3,2.9,5.4,3.1c0.3,0.1,0.5,0.1,0.8,0.1C408.4,102.2,408.6,102.2,408.8,102.1z
	 M444.5,97.7c-1.6-1.5-4-1.3-6.2-1.3c-0.2,0-0.3,0-0.5,0c-2.898,0-4.3,1-6.2,3.2c1.5,0.6,3.802,1.2,6.102,1.2
	c0.2,0.1,0.398,0.1,0.7,0.1c0.3,0,0.6,0,0.8-0.1C441.5,100.6,443.6,99.7,444.5,97.7z"/>
<path fill="#FFFFFF" stroke="#000000" stroke-width="0.25" d="M423,241.4c-0.6,0.1-1.1,0.5-1.3,1.1s0,1.2,0.398,1.6
	c-0.398,0.4-0.6,1-0.398,1.6c0.2,0.6,0.7,1,1.3,1.1c-0.1,0.6,0.1,1.1,0.7,1.5c0.5,0.4,1.2,0.4,1.8,0.2c0.3,0.5,0.8,0.9,1.5,0.9
	s1.3-0.3,1.6-0.8c0.5,0.3,1.2,0.2,1.802-0.1c0.5-0.4,0.8-0.9,0.8-1.5c0.6-0.1,1.1-0.5,1.398-1c0.2-0.6,0.102-1.2-0.398-1.6
	c0.398-0.4,0.6-1,0.5-1.6c-0.2-0.6-0.7-1-1.3-1.1c0.1-0.6-0.102-1.1-0.7-1.5c-0.602-0.4-1.3-0.4-1.9-0.1c-0.3-0.6-0.898-1-1.6-1
	s-1.2,0.3-1.5,0.8c-0.602-0.3-1.3-0.2-1.8,0.1C423.2,240.2,422.9,240.8,423,241.4z M420.1,244c-0.6-0.6-0.8-1.4-0.5-2.2
	c0.302-0.8,1-1.3,1.9-1.5c-0.1-0.8,0.2-1.6,1-2.1s1.7-0.5,2.5-0.2c0.4-0.7,1.2-1.2,2.1-1.2c1,0,1.802,0.5,2.2,1.3
	c0.8-0.4,1.9-0.4,2.7,0.2c0.7,0.5,1,1.3,0.9,2.1c0.898,0.2,1.6,0.7,1.8,1.5c0.3,0.8,0,1.7-0.602,2.2c0.602,0.6,0.802,1.4,0.5,2.2
	c-0.3,0.8-1.1,1.3-1.898,1.5c0.1,0.8-0.3,1.6-1,2.1c-0.8,0.5-1.7,0.5-2.5,0.2c-0.4,0.7-1.2,1.1-2.2,1.1c-0.9,0-1.7-0.5-2.1-1.2
	c-0.802,0.3-1.7,0.3-2.5-0.2c-0.7-0.5-1.102-1.3-1-2.1c-0.802-0.1-1.602-0.7-1.802-1.5C419.2,245.5,419.5,244.6,420.1,244z"/>
<path fill="#FFFFFF" stroke="#000000" stroke-width="0.25" d="M420.6,112.5c0.802,0.3,0.4,1.3,0.4,2.5c-0.6,0-1.6,0.2-2.2,0.2
	C418.9,113.8,420.6,113.4,420.6,112.5z"/>
<path fill="#FFFFFF" stroke="#000000" stroke-width="0.25" d="M292.5,515.3c19.5,16.102,43,4,43,4c0.5-86.8,50-137.5,50-137.5
	c-4-31.1,17.5-69.2,17.5-69.2c3.4,0.5,6.5,0.102,8-2.1c3.5-5,0.5-9.5,0.5-9.5c-0.5-1.5-1.9-3.5-2.9-4.9c1-1.1,1.9-1.898,2.4-2.1
	c5-2.5,8.5-6,9.5-3s0.6,10.5,7.6,13c7-2.5,6-12,7-15.1c1-3,8.302,1.699,9.5,3c-2.198,1.199-0.8,6.398-0.5,7l0,0
	c-0.198,0.3-2.898,4.699,0.5,9.5c0.2,0.3,0.5,0.6,0.7,0.8l0,0c0,0,22.2,39.8,18.2,70.899c0,0,49.5,50.699,50,137.499
	c0,0,23.5,12.102,43-4c0,0,30.5,7.5,71.5-36.6l2,25.6c-7,20.102-39.5,21.602-39.5,21.602c-2.5,22.1-57,24.6-57,24.6
	c-21,12-55,3.5-55,3.5c-33,14.5-73-1.5-73-1.5c-39,17.601-70-4-70-4c-29.5,9.5-62-19.6-62-19.6c-41,4-56.5-29.602-56.5-29.602
	l4-19.1C262,522.9,292.5,515.3,292.5,515.3z"/>
<path fill="#FFFFFF" stroke="#000000" stroke-width="0.25" d="M410.1,145c-0.698-0.9-1.5-1.5-2.398-1.8
	c1.398-1.2,9.898,0.3,10.1-7.8c0-0.4-0.1-0.9-0.1-1.5c0-0.2,0-0.4,0-0.6c9.7,3.4,20-0.8,27.5-7.2l0,0c6.1,23.5,19.1,19.7,19.5,19.7
	l0,0l1-0.1c-2.8,2.1-5.7,5.2-8.3,6.3c-4.802,2-3.102-2.1-6.4,1.3c-1.7,1.8-6,1.6-7.5,3.5l-0.6,0.1c-0.2-0.8-0.302-1.7-0.4-2.7
	c-5.1,2.5-8.3,1.5-11.6-3.3c-3.4,4.9-6.602,5.8-11.7,3c0.1-1.5-1.7-1.3-2-2.8C413.6,149.5,413.2,148.8,410.1,145z"/>
<path fill="#FFFFFF" stroke="#000000" stroke-width="0.25" d="M396.1,143.6c3.602-0.4,8.2-1.9,11.602-0.4c0.898,0.4,1.7,1,2.398,1.8
	c3.102,3.8,3.5,4.5,7.2,6c0.2,1.5,2,1.3,2,2.8c-0.3,6-2.5,8.2-8.5,8.3c-0.898,0-2.2-4.7-4.3-5.3c-0.6-2.2-1.5-3.3-3.1-4.4
	c-0.7-2.6-0.7-2.8-3.2-3.8C399.8,146.7,397.2,145.3,396.1,143.6z"/>
<path fill="#FFFFFF" stroke="#000000" stroke-width="0.25" d="M396.5,156.2c-1.2-7.2-10.5-8.5-15.8-6.2h-0.5H380.1
	c-0.198-0.2-0.6-0.5-0.698-0.6c0-1,0.6-3.1,0.8-4.3c3.6-1.5,11.398-1.3,15-1.4c0.3,0,0.6,0,1-0.1c1.1,1.6,3.7,3,4.1,5
	c2.4,0.9,2.4,1.1,3.2,3.8c1.7,1.1,2.6,2.2,3.1,4.4c2.102,0.6,3.4,5.3,4.302,5.3c1.198,2.3,1.698,4.2,1.5,5.9H412.1
	c-1.898-3.9-4.198-3.5-7-5.2C402,160.9,399.8,156.8,396.5,156.2z"/>
<path fill="#FFFFFF" stroke="#000000" stroke-width="0.25" d="M411.5,301.1c0,0-6.5,4-7,2c0-0.199,0-0.3,0-0.398
	c0.1-1.5,2.2-4.5,4.1-6.5C409.6,297.5,411,299.6,411.5,301.1z"/>
<path fill="#FFFFFF" stroke="#000000" stroke-width="0.25" d="M408.8,102.1c1.102-0.2,1.9-1.1,1.9-2.1c0-1.2-1.102-2.2-2.602-2.2
	v-0.2c0.2,0,0.302,0,0.5,0c2.9,0,4.302,1,6.2,3.2C413.4,101.6,411.1,102.1,408.8,102.1z"/>
<path fill="#FFFFFF" stroke="#000000" stroke-width="0.25" d="M405.6,100.1c0-1.2,1.102-2.2,2.602-2.2c1.398,0,2.6,1,2.6,2.2
	c0,1-0.8,1.9-1.898,2.1c-0.5,0-1,0-1.4,0C406.4,101.8,405.6,101,405.6,100.1z"/>
<path fill="#FFFFFF" stroke="#000000" stroke-width="0.25" d="M389.4,168.3c-5.102-1-10.602,0.8-15.7,0c-4.602-0.7-7.2-5.8-11.4-5.1
	c-0.7-4.8,3.3-7.1,7.4-7.5l2.8,0.7c7.6,1.1,13.9,5.8,20.9,8c3.8,1.2,8.398,0.3,10.5,3.3c2.398,3.3-0.7,6,4.5,5.7
	c-0.302,0.2-0.602,0.4-0.9,0.6c1.6,1.1,2.9,2.1,3.6,3.2C402.9,177.7,397.2,169.8,389.4,168.3z"/>
<path fill="#FFFFFF" stroke="#000000" stroke-width="0.25" d="M407.4,102.1c-2.4-0.2-4.5-1.1-5.4-3.1c1.6-1.5,4-1.3,6.2-1.3v0.2
	c-1.4,0-2.602,1-2.602,2.2C405.6,101,406.4,101.8,407.4,102.1z"/>
<path fill="#FFFFFF" stroke="#000000" stroke-width="0.25" d="M404.5,302.7c-0.3-0.5-2.2,0.6-3.5-5.5c9.5-10.9,19.5-28,20-28.7
	l-0.1-0.1c0.398-0.5,0.698-1,1.1-1.5c0,0,1.9-2,2.5-5.4l-4,29.5c-1-3-4.5,0.5-9.5,3c-0.5,0.3-1.4,1.1-2.4,2.1
	C406.7,298.2,404.6,301.2,404.5,302.7z"/>
<path fill="#FFFFFF" stroke="#000000" stroke-width="0.25" d="M425.8,212.6c0.8,0.5,1.7,0.6,2.5,0.2c0.4,0.7,1.2,1.2,2.102,1.2
	c0.898,0,1.8-0.4,2.198-1.1c0.802,0.4,1.802,0.3,2.5-0.2c0.802-0.5,1.2-1.3,1-2.1c0.9-0.1,1.602-0.7,2-1.5
	c0.302-0.8,0.102-1.6-0.5-2.2c0.602-0.6,0.9-1.4,0.602-2.2c-0.3-0.8-1-1.4-1.9-1.6c0.102-0.8-0.2-1.6-0.898-2.1
	c-0.802-0.6-1.802-0.6-2.7-0.2c-0.4-0.8-1.3-1.3-2.3-1.3c-0.9,0-1.802,0.5-2.2,1.2c-0.8-0.3-1.8-0.3-2.5,0.2
	c-0.8,0.5-1.102,1.3-1,2.1c-0.9,0.1-1.602,0.7-1.9,1.5s-0.1,1.6,0.5,2.2c-0.6,0.6-0.898,1.4-0.6,2.2c0.3,0.8,1,1.4,1.898,1.5
	C424.7,211.3,425.1,212.1,425.8,212.6z M423.9,232.1c0.8,0.5,1.698,0.6,2.5,0.2c0.398,0.7,1.198,1.2,2.198,1.2
	c0.9,0,1.802-0.4,2.2-1.1c0.8,0.4,1.8,0.3,2.5-0.2c0.8-0.5,1.102-1.3,1.102-2.1c0.898-0.1,1.6-0.7,1.898-1.5
	c0.3-0.8,0.102-1.6-0.5-2.2c0.602-0.5,0.9-1.4,0.602-2.2c-0.302-0.8-1-1.4-1.802-1.5c0.102-0.8-0.198-1.6-0.898-2.1
	c-0.8-0.6-1.8-0.6-2.7-0.2c-0.4-0.8-1.3-1.3-2.3-1.3c-0.9,0-1.8,0.5-2.2,1.2c-0.8-0.3-1.8-0.3-2.5,0.2c-0.8,0.5-1.1,1.3-1,2.1
	c-0.9,0.1-1.6,0.7-1.9,1.5c-0.3,0.8-0.1,1.7,0.5,2.2c-0.6,0.6-0.898,1.4-0.6,2.2s1,1.4,1.9,1.5C422.9,230.8,423.2,231.6,423.9,232.1
	z M422.3,249.9c0.7,0.5,1.7,0.6,2.5,0.2c0.4,0.7,1.2,1.2,2.102,1.2c0.898,0,1.698-0.4,2.198-1.1c0.802,0.4,1.7,0.3,2.5-0.2
	c0.802-0.5,1.102-1.3,1-2.1c0.9-0.1,1.602-0.7,1.9-1.5c0.3-0.8,0.1-1.6-0.5-2.2c0.6-0.5,0.9-1.4,0.6-2.2c-0.3-0.8-1-1.4-1.8-1.5
	c0.2-0.8-0.2-1.6-0.898-2.1c-0.802-0.6-1.802-0.6-2.7-0.2c-0.4-0.8-1.2-1.3-2.2-1.3c-0.9,0-1.7,0.5-2.1,1.2
	c-0.802-0.3-1.7-0.3-2.5,0.2c-0.802,0.5-1.102,1.3-1,2.1c-0.9,0.1-1.602,0.7-1.9,1.5c-0.3,0.8,0,1.7,0.5,2.2
	c-0.6,0.6-0.9,1.4-0.6,2.2c0.3,0.8,1,1.4,1.8,1.5C421.2,248.6,421.5,249.4,422.3,249.9z M385.6,192.2c1.4-1,2.7-1.1,6.5,0
	c3,0.8,8.102-5.4,10-1.3c2.7,0.4,4.102-1.9,6.5-2.4c3.102-0.6,5.602,1.7,7.302-1.6c2.198,1.2,3.1,3.5,3.3,7.3
	c5.2-2.8,8.3-1.9,11.7,3c3.3-4.9,6.398-5.8,11.6-3.3c0.3-5.6,2.5-7.9,8.1-8.3c2.802,7.8,9.4-3.1,11.2,6.6c2.9,0.2,8.5-1,11.102,0.2
	c1.398,0.7,2.1,2.1,3,3.5c-0.102,0.1-0.102,0.2-0.2,0.4c-2.602,4.3-14.4,24.3-17.7,42.1c-0.7,3.6-1,7.2-0.8,10.5
	c-9.102-0.9-18.7,2.7-25,5.9l0,0c-0.7,0.4-1.4,0.7-2.102,1.1c-1.6,0.9-3,1.7-3.898,2.2l0,0c-0.9,0.6-1.5,0.9-1.5,0.9
	c-0.5-0.7-1-1.4-1.602-2.1c-6-6.6-18.6-11.6-26.8-14.3c1.102-2.6,1.602-5.6,1.7-8.8C398.6,215.9,385.7,192.3,385.6,192.2
	L385.6,192.2z"/>
<path fill="#FFFFFF" stroke="#000000" stroke-width="0.25" d="M398.4,311.6c-4.9-1.6-9.102-4.1-9.102-5.1c0-0.2,0-0.3-0.1-0.3
	c0.1,0,0.2,0,0.398,0c3.102-0.3,7.2-4,11.5-8.9c1.302,6.101,3.2,5,3.5,5.5c0,0.2,0,0.3,0,0.4c0.5,2,7-2,7-2s3,4.5-0.5,9.5
	c-1.5,2.1-4.6,2.5-8,2.1C401.5,312.5,399.9,312,398.4,311.6z"/>
<path fill="#FFFFFF" stroke="#000000" stroke-width="0.25" d="M388,306.4c5.2-2.5,9.2-9.801,8.5-26.9c0,0,11.4,5.7,24.4-11.1
	l0.1,0.1c-0.5,0.8-10.5,17.8-20,28.7c-4.3,4.899-8.4,8.6-11.5,8.899c-0.1,0-0.2,0-0.4,0c-0.1-0.101-0.198-0.101-0.3,0.101l0,0
	C388.6,306.3,388.3,306.3,388,306.4z"/>
<path fill="#FFFFFF" stroke="#000000" stroke-width="0.25" d="M367,189.9c-5.5,3.7-10.8,2.5-13.8-2.8c-0.602-1-1.102-2-1.602-3
	c0.302-0.3,0.7-0.5,1.4-0.7c2.5,1.9,11.7-0.1,15.7,0.1c3.6,0.1,13.1,1.9,14.6-1.8c0.7-0.1,2.5-0.1,3,0c0.5,0.9,1.5,1.5,2,2.2
	c3.3-5.7,9.102,1,13.102,1.5c2.398,0.3,5.1,0.4,9.398,0.4c2.2,0,3.9,0.4,5.2,1.1c-1.7,3.3-4.2,1-7.3,1.6c-2.5,0.5-3.9,2.8-6.5,2.4
	c-1.9-4.2-7,2.1-10,1.3c-3.8-1.1-5.102-1-6.5,0c-0.7,0.5-1.3,1.1-2.3,1.9c-3.9,3.3-6.9,2.9-10.102,0.8
	C371.3,193.7,369.3,191.8,367,189.9z"/>
<path fill="#FFFFFF" stroke="#000000" stroke-width="0.25" d="M369.6,155.6c0.9-0.1,1.802-0.1,2.7,0c-1.2-5.4,3.3-6.2,7.602-5.6
	c0.198,0.2,0.398,0.3,0.1,0h0.5c5.4-2.3,14.7-1,15.8,6.2c3.3,0.5,5.5,4.7,8.602,6.5c2.8,1.6,5.1,1.3,7,5.2h0.3
	c-0.2,2-1.5,3.7-3.9,5.4c-5.3,0.3-2.2-2.4-4.5-5.7c-2.1-3-6.8-2.2-10.5-3.3c-7.1-2.2-13.3-6.9-20.898-8L369.6,155.6z"/>
<path fill="#FFFFFF" stroke="#000000" stroke-width="0.25" d="M361.7,329.8c2.1-6.8,4.3-15.8,6.3-27.7c0,0,10.4,7.5,18.7,4.9
	c-7.602,3.4-21.7,15.5-21.7,18.7C365,325.7,364,327.8,361.7,329.8z"/>
<path fill="#FFFFFF" stroke="#000000" stroke-width="0.25" d="M386,311.1C375.5,332.7,361.7,330,361.7,330H361.6
	c0-0.1,0-0.1,0.102-0.2c2.3-2,3.3-4.1,3.3-4.1c0-3.101,14.1-15.3,21.7-18.7l0,0c0.5-0.1,0.898-0.3,1.3-0.5c0.3-0.1,0.5-0.2,0.8-0.2
	C388,307,386,311.1,386,311.1z"/>
<path fill="#FFFFFF" stroke="#000000" stroke-width="0.25" d="M368.7,183.5c-4-0.2-13.3,1.8-15.7-0.1c-0.8,0.2-1.1,0.4-1.4,0.7
	c-0.198-0.3-0.3-0.6-0.5-1c-1.3-2.9-2-6-0.198-8.3h0.5c2.198,0.3,5.6,1.9,15.6-0.2c6.2-1.3,10.1,0.9,15.6,1.9
	c5.802,1,10.5,0,15.7,1.9c4.9,1.8,8.5,3.1,14.102,3.1c-0.2,1.3-0.7,2.7-1.5,4.3c-4.302,0-7-0.1-9.4-0.4c-4-0.5-9.8-7.2-13.1-1.5
	c-0.602-0.8-1.602-1.3-2-2.2c-0.602-0.1-2.302-0.1-3,0C381.8,185.4,372.3,183.6,368.7,183.5z"/>
<path fill="#FFFFFF" stroke="#000000" stroke-width="0.25" d="M362.3,163.1c4.3-0.7,6.9,4.4,11.4,5.1c5.1,0.8,10.7-1,15.7,0
	c7.8,1.5,13.5,9.4,21.8,8.9c1,1.3,1.3,2.7,1.1,4.3c-5.6-0.1-9.2-1.3-14.1-3.1c-5.2-1.9-9.9-0.9-15.7-1.9c-5.5-1-9.4-3.2-15.6-1.9
	c-10,2-13.4,0.5-15.602,0.2h-0.5c0.3-0.4,0.602-0.7,1-1c4.2-3.5,2.2-7.6,5-9.8C358.2,162.9,360.3,162.8,362.3,163.1z"/>
<path fill="#FFFFFF" stroke="#000000" stroke-width="0.25" d="M351,183.1c0,0-15.5-4-14.5-19.1c0,0-31-13,1-35.6
	c0,0-1.5-14.6,14-19.6c0,0-9-12.1,20.5-23.1c0,0,6-19.6,10-19.6c0,0-2.5-10.5,11.5-19.1c0,0,5.1-8,12.7-11.6
	c1.398-0.6,8.3-1.1,9.8-1.4l6.8-0.6c0,0,1.602-1.3,2.2-1.3c0.7,0,2.5,1.3,2.5,1.3l5.5,1.1c0,0,23.5,1.5,23,8.5c0,0,24,9.5,22.5,15.6
	c0,0,25.5,4,18.5,20.6c0,0,8.5,6.5,10.5,21.1c0,0,7,4,20,1.5c0,0,10.5,4,5,14.1c0,0-1.5,9.5,5.5,14c0,0,27,9,4,31.1l-3,0.5
	c0,0,4,17.6-12,19.6c0,0-4.8-1.5-8.7-4.5v-0.1c-2.398-1.2-4.6,3-5.398,5.4c-1.4,0.1-3,0.2-4.4,0.1c0.2-0.2,0.3-0.4,0.5-0.6
	c1.3-1.5-4.7-1.2-5-3c-0.3-1.6,1.3-1.3,1.3-2c0-0.1-0.1-0.3-0.2-0.6c-3.5-5.7-2.8-9.2-11.1-8.4c0.1-2-0.2-3.6-1.6-5
	c-0.4-0.4-0.7-0.7-0.9-1c-2.4-2.7-0.9-3.2-3-4.8s-5.1-2-7.8-2.9c-0.2-0.1-0.3-0.1-0.5-0.2c0.1-0.9,0.3-2.3-0.2-2.9
	c-1.4-1.7-4.5-0.1-6.7-0.2c0.3-1.4,0.602-3.6-0.2-4.9c-2-3-4.6-2.1-7.3-0.1l-1,0.1l0,0c-0.398,0-13.398,3.8-19.5-19.7l0,0
	c0.602-0.5,1.102-1,1.602-1.5c4.5-7.6,15.5-12.6,16.3-19.6c0.2-2.1-1.3-5.3-3.602-4.9c-4.5,1.9-3.8,7.2-6.3,8.7L453,108
	c1.5-18.7-20.7-28.5-32-39.8c-19.7,6.4-29.3,30.8-19.2,48.8c4.5,5.8,9.4,12.3,16,16.1c0,0.2,0,0.4,0,0.6c0,0.6,0.102,1.1,0.102,1.5
	c-0.102,8.1-8.7,6.6-10.102,7.8c-3.398-1.5-8,0.1-11.6,0.4c-0.3,0-0.7,0-1,0.1c-3.5,0.1-11.3-0.1-15,1.4c-0.2,1.2-0.8,3.3-0.8,4.3
	c0.1,0.1,0.398,0.4,0.698,0.6c-4.3-0.6-8.8,0.2-7.6,5.6c-0.9-0.1-1.8-0.1-2.7,0c-4.1,0.5-8.1,2.7-7.398,7.5
	c-2-0.4-4.102-0.3-5.5,0.8c-2.802,2.2-0.802,6.3-5,9.8c-0.4,0.3-0.7,0.6-1,1C349,177.2,349.7,180.2,351,183.1L351,183.1z"/>
<path fill="#FFFFFF" stroke="#000000" stroke-width="0.25" d="M368,302.1c-2,11.9-4.2,20.9-6.3,27.7c-3,2.601-8,5.2-15.7,2.9
	c-4.4-1.3-6.6-1.9-7.4-2C361,329.6,368,302.1,368,302.1z"/>
<path fill="#FFFFFF" stroke="#000000" stroke-width="0.25" d="M346,332.7c7.6,2.3,12.7-0.3,15.7-2.9c0,0.101,0,0.101-0.102,0.2
	c-7.398,23.3-14.6,20.3-14.6,20.3l-19-0.5c-3-14.5,8-19.1,8-19.1c0.9,0,1.7,0,2.6,0l0,0C339.4,330.8,341.6,331.4,346,332.7z"/>
<path fill="#FFFFFF" stroke="#000000" stroke-width="0.25" d="M356.4,401.6c2.1-2.898,6.198-3.6,9.1-1.5l3-5.5
	c-2.9-2.1-3.5-6.199-1.4-9.1c2.102-2.9,6.2-3.6,9.102-1.4l4.6-6.898c-3.6-0.301-6.2-3.5-5.898-7.102c0.3-3.6,3.5-6.199,7-5.898
	l0.898-3.102c-3.6-0.398-6.1-3.6-5.7-7.199c0.4-3.601,3.602-6.101,7.2-5.801l1-4.699c-3.3-1.301-5-5.101-3.7-8.5
	c1.302-3.301,5.102-5,8.4-3.699l1.6-3.9c-3.3-1.3-5-5.1-3.698-8.5c1.3-3.398,5.1-5,8.398-3.699c0.4-0.899,1.2-2.801,2-3.699
	c1.5,0.5,3.2,0.898,4.7,1.1c0,0-21.5,38.1-17.5,69.2c0,0-49.5,50.7-50,137.5c0,0-23.5,12-43-4c0,0-30.5,7.5-71.5-36.602l1.6-7.698
	c40.8,43.8,71.2,36.3,71.2,36.3c12.9,10.6,27.5,8.898,36,6.6v-0.3c-3.5-0.5-6-3.8-5.5-7.3c0.5-3.602,3.8-6.102,7.3-5.602l-1.5-5.6
	c-3.398-1-5.398-4.6-4.398-8.1s4.6-5.4,8.1-4.4V477c-3.5-1-5.398-4.6-4.398-8.1s4.6-5.4,8.1-4.4l1.7-4.2c-3.4-1-5.4-4.6-4.4-8.1
	s4.602-5.4,8.102-4.4l1.199-3.898c-3.399-1.102-5.399-4.7-4.301-8.2c1.102-3.5,4.7-5.4,8.102-4.3l1-4.4c-2.9-2.1-3.602-6.2-1.4-9.1
	c2.101-2.9,6.2-3.602,9.101-1.5l1.399-5.802C355,408.6,354.3,404.5,356.4,401.6z"/>
<path fill="#FFFFFF" stroke="#000000" stroke-width="0.25" d="M327,366.8c0,0-17.2,9.101-42.6-8.2c-1.3-0.898-2.5-1.8-3.8-2.8
	c0.7-0.3,1.2-0.7,1.6-1.3c0.4-0.5,0.5-1.1,0.5-1.7c2.5,0.9,31.5,10.8,45.3-3.1l19,0.5C347,350.3,332.5,366.8,327,366.8z"/>
<path fill="#FFFFFF" stroke="#000000" stroke-width="0.25" d="M281,343.7c2-0.101,3.7,1.399,3.7,3.1c0,1.701-1.6,3.2-3.7,3.101
	c-0.8-0.101-4.9-1-7.4-1.5h-0.2c0.1-0.5,0.2-1,0.2-1.601c0-0.6-0.1-1.1-0.2-1.6C275.9,344.6,280.2,343.8,281,343.7z"/>
<path fill="#FFFFFF" stroke="#000000" stroke-width="0.25" d="M282.2,339.1c1,1.5,0.5,3.5-1.3,4.2c-0.7,0.3-5,1.3-7.5,1.8
	c-0.3-1.1-0.8-2.199-1.5-3c1.9-1.5,4.7-3.8,5.3-4.1C278.8,337,281.1,337.6,282.2,339.1z"/>
<path fill="#FFFFFF" stroke="#000000" stroke-width="0.25" d="M277.7,369c0,3-0.8,5.3-1.8,5.3s-1.8-2.399-1.8-5.3
	c0-3,0.8-5.4,1.8-5.4S277.7,366,277.7,369z"/>
<path fill="#FFFFFF" stroke="#000000" stroke-width="0.25" d="M275.2,378.7c1,0,1.8,2.3,1.8,5.2c0,2.898-0.8,5.199-1.8,5.199
	s-1.8-2.301-1.8-5.199C273.3,381,274.2,378.7,275.2,378.7z"/>
<path fill="#FFFFFF" stroke="#000000" stroke-width="0.25" d="M274.5,393.1c0.5,0,0.8,1.801,0.8,4c0,2.2-0.4,4-0.8,4s-0.8-1.8-0.8-4
	C273.7,394.9,274,393.1,274.5,393.1z"/>
<path fill="#FFFFFF" stroke="#000000" stroke-width="0.25" d="M275.4,333.4c1.8,0.898,2.5,2.8,1.4,4.199c-0.4,0.5-3.2,2.899-5,4.5
	c-0.9-1-2.1-1.801-3.4-2.301c0.7-2.1,1.7-4.699,2-5.3C271.3,333,273.7,332.6,275.4,333.4z"/>
<path fill="#FFFFFF" stroke="#000000" stroke-width="0.25" d="M280.8,350.3c1.2,0.5,1.8,1.5,1.8,2.5c0,0.601-0.1,1.2-0.5,1.7
	c-0.4,0.6-1,1-1.6,1.3c-1.1,0.5-2.4,0.5-3.4-0.1c-0.6-0.3-3.1-2.5-4.9-4l0,0c-0.1-0.101-0.2-0.2-0.4-0.3c0.7-0.9,1.3-1.9,1.5-3h0.2
	C276,349,280.1,350,280.8,350.3z"/>
<path fill="#FFFFFF" stroke="#000000" stroke-width="0.25" d="M276.8,356c1.1,1.4,0.4,3.4-1.4,4.2c-1.8,0.8-4.1,0.399-5-1.101
	c-0.3-0.601-1.3-3.301-2-5.399c1.4-0.4,2.6-1.3,3.4-2.3c0.1,0.1,0.2,0.199,0.4,0.3l0,0C274,353.2,276.4,355.5,276.8,356z"/>
<path fill="#FFFFFF" stroke="#000000" stroke-width="0.25" d="M268.4,353.7c0.6,2.1,1.4,4.899,1.5,5.5c0.1,1.7-1.7,3.1-3.7,3.1
	s-3.8-1.399-3.7-3.1c0.1-0.601,0.8-3.3,1.5-5.4l0,0c0.6,0.2,1.3,0.3,2,0.3C266.8,354,267.6,353.9,268.4,353.7z"/>
<path fill="#FFFFFF" stroke="#000000" stroke-width="0.25" d="M267.3,392.4c0.7,0,1.3,1.898,1.3,4.198c0,2.302-0.6,4.2-1.3,4.2
	c-0.7,0-1.3-1.898-1.3-4.2C266,394.3,266.6,392.4,267.3,392.4z"/>
<ellipse fill="#FFFFFF" stroke="#000000" stroke-width="0.25" cx="267.2" cy="382.9" rx="1.5" ry="4.2"/>
<ellipse fill="#FFFFFF" stroke="#000000" stroke-width="0.25" cx="267" cy="368.8" rx="1.7" ry="4.9"/>
<path fill="#FFFFFF" stroke="#000000" stroke-width="0.25" d="M260.4,341.9c0.9-1,2.2-1.801,3.6-2.2c0.6-0.2,1.3-0.3,2-0.3
	c0.8,0,1.6,0.1,2.4,0.398c1.4,0.4,2.5,1.2,3.4,2.301c0.7,0.899,1.3,1.899,1.5,3c0.1,0.5,0.2,1.101,0.2,1.601s-0.1,1.1-0.2,1.6
	c-0.3,1.101-0.8,2.2-1.5,3c-0.9,1.101-2.1,1.9-3.4,2.3c-0.8,0.301-1.6,0.4-2.4,0.4c-0.7,0-1.4-0.1-2-0.3
	c-1.4-0.4-2.6-1.101-3.5-2.101c-0.9-0.899-1.5-2-1.8-3.199c-0.2-0.5-0.2-1.102-0.2-1.7c0-0.601,0.1-1.101,0.2-1.601
	C259,343.9,259.5,342.8,260.4,341.9z"/>
<path fill="#FFFFFF" stroke="#000000" stroke-width="0.25" d="M264,339.7c-0.6-2.101-1.4-4.601-1.4-5.3
	c-0.1-1.7,1.7-3.102,3.7-3.102s3.8,1.4,3.7,3.102c0,0.6-0.9,3.3-1.5,5.398c-0.8-0.3-1.5-0.398-2.4-0.398
	C265.3,339.4,264.6,339.5,264,339.7z"/>
<path fill="#FFFFFF" stroke="#000000" stroke-width="0.25" d="M264,339.7c-0.7-2.101-1.6-4.601-1.9-5.2c-0.4-0.7-1.2-1.2-2-1.4
	c21.6-97.3,129.5-99.3,138-99.3c-0.1,3.1-0.6,6.1-1.698,8.8c8.198,2.7,20.898,7.7,26.8,14.3L423.1,257c-14,1.5-9,0-55,45.2
	c0,0-7,27.5-29.398,28.6l0,0c-0.8,0-1.7,0-2.602,0c0,0-11,4.5-8,19.101c-13.898,13.899-42.898,4-45.3,3.101c0-1-0.7-2-1.8-2.5
	c-0.7-0.3-4.8-1.3-7.3-1.899c2.5,0.5,6.7,1.5,7.4,1.5c2,0.101,3.7-1.399,3.7-3.101s-1.6-3.2-3.7-3.101c-0.8,0-5.1,0.899-7.6,1.399
	c2.5-0.6,6.8-1.6,7.5-1.8c1.8-0.8,2.4-2.8,1.3-4.2c-1-1.5-3.4-2.1-5-1.1c-0.6,0.3-3.5,2.6-5.3,4.1c1.8-1.6,4.6-3.899,5-4.5
	c1.1-1.399,0.4-3.399-1.4-4.2c-1.8-0.898-4.1-0.398-5,1.102c-0.3,0.6-1.3,3.199-2,5.3c0.6-2.101,1.5-4.7,1.5-5.399
	c0.1-1.699-1.7-3.101-3.7-3.101s-3.8,1.399-3.7,3.101C262.6,335.1,263.3,337.6,264,339.7z"/>
<path fill="#FFFFFF" stroke="#000000" stroke-width="0.25" d="M264,353.8L264,353.8c-0.7,2.101-1.6,4.7-1.9,5.3
	c-0.9,1.5-3.3,2-5,1.102c-1.8-0.9-2.5-2.801-1.4-4.2c0.4-0.5,3-2.7,4.9-4.3C261.4,352.7,262.6,353.4,264,353.8z"/>
<path fill="#FFFFFF" stroke="#000000" stroke-width="0.25" d="M264,339.7c-1.4,0.399-2.6,1.2-3.6,2.2l0,0
	c-1.8-1.602-4.3-3.7-4.7-4.301c-1.1-1.399-0.4-3.399,1.4-4.199c0.9-0.5,2.1-0.5,3-0.301s1.6,0.699,2,1.399
	C262.4,335.1,263.3,337.6,264,339.7z"/>
<path fill="#FFFFFF" stroke="#000000" stroke-width="0.25" d="M260.5,351.7c-1.9,1.5-4.6,3.6-5.2,4c-1.7,1-4,0.3-5-1.101
	c-0.4-0.5-0.5-1-0.5-1.601c0-1.101,0.6-2.101,1.9-2.601c0.7-0.301,4.6-1.199,7.1-1.801C259,349.7,259.6,350.8,260.5,351.7z"/>
<path fill="#FFFFFF" stroke="#000000" stroke-width="0.25" d="M258,382.4c-0.5,0-1-2.102-1-4.7c0-2.601,0.5-4.7,1-4.7s1,2.1,1,4.7
	C259,380.3,258.5,382.4,258,382.4z"/>
<path fill="#FFFFFF" stroke="#000000" stroke-width="0.25" d="M257.7,361.3c0.7,0,1.3,2,1.3,4.5s-0.6,4.5-1.3,4.5
	c-0.7,0-1.3-2-1.3-4.5C256.3,363.3,256.9,361.3,257.7,361.3z"/>
<path fill="#FFFFFF" stroke="#000000" stroke-width="0.25" d="M258.7,345.1L258.7,345.1c-0.1,0.5-0.2,1.102-0.2,1.602
	c0,0.6,0.1,1.199,0.2,1.699c-2.5,0.5-6.5,1.399-7.2,1.399c-2,0.101-3.7-1.399-3.7-3.1c0-1.701,1.6-3.2,3.7-3.101
	C252.2,343.8,256.1,344.6,258.7,345.1z"/>
<path fill="#FFFFFF" stroke="#000000" stroke-width="0.25" d="M260.4,341.9c-0.8,0.898-1.4,2-1.7,3.199l0,0
	c-2.5-0.601-6.4-1.5-7.1-1.801c-1.8-0.8-2.4-2.8-1.3-4.199c1-1.5,3.3-2.101,5-1.101C255.9,338.3,258.5,340.4,260.4,341.9
	L260.4,341.9z"/>
<path fill="#FFFFFF" stroke="#000000" stroke-width="0.25" d="M267,364c-0.9,0-1.7,2.2-1.7,4.9c0,2.699,0.8,4.8,1.7,4.8
	s1.7-2.2,1.7-4.8C268.7,366.1,267.9,364,267,364z M267.3,400.8c0.7,0,1.3-1.898,1.3-4.2c0-2.3-0.6-4.199-1.3-4.199
	c-0.7,0-1.3,1.899-1.3,4.199C266,398.9,266.6,400.8,267.3,400.8z M267.2,387c0.8,0,1.5-1.9,1.5-4.2s-0.7-4.2-1.5-4.2
	c-0.8,0-1.5,1.9-1.5,4.2C265.7,385.2,266.3,387,267.2,387z M273.7,397.1c0,2.2,0.4,4,0.8,4s0.8-1.8,0.8-4c0-2.199-0.4-4-0.8-4
	S273.7,394.9,273.7,397.1z M273.3,383.9c0,2.898,0.8,5.199,1.8,5.199s1.8-2.301,1.8-5.199c0-2.9-0.8-5.2-1.8-5.2
	C274.2,378.7,273.3,381,273.3,383.9z M274,369c0,3,0.8,5.3,1.8,5.3s1.8-2.399,1.8-5.3c0-3-0.8-5.4-1.8-5.4S274,366,274,369z
	 M258,373c-0.5,0-1,2.1-1,4.7c0,2.6,0.5,4.7,1,4.7s1-2.102,1-4.7C259,375.1,258.5,373,258,373z M257.7,361.3c-0.7,0-1.3,2-1.3,4.5
	s0.6,4.5,1.3,4.5c0.7,0,1.3-2,1.3-4.5S258.4,361.3,257.7,361.3z M262,359.1c0.3-0.6,1.2-3.199,1.9-5.3c-0.6,2.101-1.4,4.8-1.5,5.4
	c-0.1,1.7,1.7,3.1,3.7,3.1s3.8-1.399,3.7-3.1c-0.1-0.601-0.9-3.4-1.5-5.5c0.7,2.1,1.6,4.8,2,5.399c0.9,1.5,3.3,2,5,1.101
	c1.8-0.9,2.5-2.8,1.4-4.2c-0.4-0.5-2.8-2.7-4.6-4.3c1.9,1.5,4.4,3.7,4.9,4c1.1,0.6,2.3,0.6,3.4,0.1c1.3,1,2.6,1.9,3.8,2.8l0,0
	c9.5,7.7,26.2,31.301,26.2,31.301c-0.5,5-12.7,4.899-12.7,4.899c4.2,6.9,7.7,12.7,7.7,12.7c-5,14-27,14-27,14l-0.4,0.2
	c1.4,2.5,2.5,3.2,3.4,5.3c1.3,3.3-12,9.5-13.5,9.5c-10,0-26.1-7.1-35.6-11.7c-4.5-2.2-7.4-3.8-7.4-3.8c-3.5-3,2-24.6,2-24.6
	c-4-2.5-5-10-5-10c1-12,27.7-33.5,27.7-33.5h0.1c0,0.6,0.2,1.1,0.5,1.6c1,1.5,3.3,2.1,5,1.1c0.6-0.398,3.4-2.398,5.2-4
	c-1.8,1.602-4.4,3.7-4.9,4.301c-1.1,1.399-0.4,3.399,1.4,4.199C258.8,361,261.1,360.6,262,359.1z M259.7,389.9
	c0-2.102-0.4-3.801-1-3.801c-0.5,0-1,1.699-1,3.801c0,2.1,0.5,3.898,1,3.898C259.2,393.7,259.7,392,259.7,389.9z"/>
<path fill="#FFFFFF" stroke="#000000" stroke-width="0.25" d="M361.8,330c0,0,13.8,2.7,24.3-18.9c0,0,2-4.1,2.802-4.898l0,0
	c0.1,0,0.198,0,0.3-0.102c0,0.102,0.1,0.2,0.1,0.301c0,1,4.3,3.5,9.102,5.101c-0.802,1-1.5,2.8-2,3.7
	c-3.4-1.301-7.102,0.3-8.4,3.699c-1.3,3.301,0.3,7.101,3.7,8.5L390.1,331.3c-3.3-1.3-7.1,0.3-8.398,3.7s0.398,7.1,3.7,8.5l-1,4.7
	c-3.602-0.4-6.802,2.2-7.2,5.8c-0.4,3.6,2.2,6.8,5.7,7.2l-0.9,3.1c-3.6-0.3-6.7,2.3-7,5.9c-0.3,3.6,2.3,6.8,5.9,7.1l-4.602,6.9
	c-2.898-2.101-7-1.5-9.1,1.399c-2.102,2.899-1.5,7,1.398,9.101l-3,5.5c-2.898-2.102-7-1.5-9.1,1.5c-2.1,2.898-1.5,7,1.4,9.1
	l-1.4,5.8c-2.9-2.1-7-1.5-9.1,1.5c-2.102,2.9-1.5,7,1.398,9.102l-1,4.398c-3.398-1.1-7.1,0.9-8.1,4.302
	c-1,3.398,0.898,7.1,4.3,8.198l-1.2,3.9c-3.398-1-7.1,1-8.1,4.4c-1,3.5,1,7.1,4.398,8.1l-1.699,4.2c-3.5-1-7.101,1-8.101,4.398
	c-1,3.5,1,7.102,4.4,8.102v5.5c-3.4-1-7.102,1-8.102,4.398c-1,3.5,1,7.102,4.4,8.102l1.5,5.6c-3.602-0.5-6.8,2-7.3,5.602
	c-0.5,3.5,1.898,6.8,5.5,7.3v0.3c-8.5,2.3-23.102,4-36-6.6c0,0-30.4,7.5-71.2-36.302l6.9-32.3l2.9-13.898
	c9.4,4.6,25.6,11.7,35.6,11.7c1.5,0,14.8-6.302,13.5-9.5c-0.8-2.102-1.9-2.9-3.4-5.302l0.4-0.198c0,0,22,0,27-14.002
	c0,0-3.5-5.799-7.699-12.699c0,0,12.199,0.199,12.699-4.899c0,0-16.6-23.601-26.2-31.3l0,0c25.4,17.3,42.6,8.199,42.6,8.199
	c5.5,0,20-16.6,20-16.6s7.2,3,14.6-20.301H361.8L361.8,330z"/>
<path fill="#FFFFFF" stroke="#000000" stroke-width="0.25" d="M353.1,187.1c3,5.3,8.4,6.5,13.802,2.8c2.3,2,4.3,3.8,6.198,5
	c-22.3,14.1-45.8,32.8-93.6,51c-7.5,2.9-30.6,3.7-30.9,3.1c-6.1-5.1,3.7-3.8,5.6-6.4c-7.6-5.8-7.8-5.3-18-5.5
	c-0.7-0.3-1.1-0.8-1.5-1.2c0.2-0.4,0.6-0.8,1.2-1.1c-2-0.5-1.8-1.9-1.6-2.6c-0.8,0.4-1.5,0.8-2.1,1.2c-0.3,0.1-0.4-1.1-0.8-1
	c-0.3-3,6.3-5.1,11.7-4.8c-1.8-0.7-8.3-2.1-8.9-3.5c-0.9-2,10.6-1.2,17.1,1.9c3.8,1.8,13.4,8.3,18.3,7.4c6.3-1.2,16.2-4.1,22.4-8.6
	c3.8-2.8,14.2-8.5,18-11c17.3-11.2,26.4-22.4,41-30.6l0,0c0.1,0.3,0.3,0.6,0.5,1C352,185.1,352.6,186.1,353.1,187.1z"/>
<path fill="#FFFFFF" stroke="#000000" stroke-width="0.25" d="M445,55.8c-2.6,2.5-6.5,4.5-11.1,1.2c-1-0.8-2-2.7-2.4-4.8
	c-0.7-3.7,0.2-8.1,4.8-8.1l1.3,2.8c0,0-2.8,3.1-2.3,5.1s3.102,2.5,5.602,1.3c2.5-1.2,6.8-9.2-10.802-16.1l2.802-2.4
	c0,0,18.698,8.6,15.3,16.8C448.3,51.5,447.1,53.8,445,55.8z"/>
<path fill="#FFFFFF" stroke="#000000" stroke-width="0.25" d="M454,58.9c0,2.1-1.9,3.8-4.3,3.8c-1.2,0-2.2-0.4-3-1.1
	c-0.8-0.7-1.3-1.6-1.3-2.7c0-1.2,0.6-2.2,1.5-2.9c0.698-0.5,1.698-0.9,2.698-0.9C452.1,55.1,454,56.8,454,58.9z"/>
<path fill="#FFFFFF" stroke="#000000" stroke-width="0.25" d="M423.5,41.2c0.5,0,1,0.1,1.4,0.4c0.8,0.5,1.3,1.4,1.3,2.4
	c0,1.5-1.2,2.7-2.602,2.8h-0.1c-1.5,0-2.8-1.2-2.8-2.8c0-1.1,0.7-2.1,1.6-2.5C422.7,41.3,423.1,41.2,423.5,41.2z"/>
<path fill="#FFFFFF" stroke="#000000" stroke-width="0.25" d="M416,34.1l2.2,2.5c-17,6.7-12.5,12.9-10.5,14.5c3,2.5,5.5,1,6-1
	s-1.5-4-1.5-4l2-2.5c4.5,0.4,4.8,4.8,4,8c-0.3,1.1-0.7,2-1.2,2.6c-5.5,7.2-12.2,1.4-15-1.6c-0.8-0.9-1.3-1.5-1.3-1.5
	C396.3,42.6,416,34.1,416,34.1z"/>
<path fill="#FFFFFF" stroke="#000000" stroke-width="0.25" d="M429.2,53.7c0,3.2-2.2,5.8-5,5.8s-5-2.6-5-5.8c0-0.6,0.1-1.2,0.2-1.7
	c0.6-2.2,2.3-3.8,4.3-4c0.2,0,0.3,0,0.5,0c2.398,0,4.398,2,4.898,4.6C429.1,52.9,429.2,53.3,429.2,53.7z"/>
<path fill="#FFFFFF" stroke="#000000" stroke-width="0.25" d="M459.8,47.4c0,1.5-1.3,2.8-3,2.8s-3-1.2-3-2.8c0-1.5,1.3-2.8,3-2.8
	S459.8,45.9,459.8,47.4z"/>
<path fill="#FFFFFF" stroke="#000000" stroke-width="0.25" d="M454,49.7c1.9,0,3.5,1.5,3.5,3.3s-1.6,3.3-3.5,3.3s-3.5-1.5-3.5-3.3
	C450.5,51.1,452.1,49.7,454,49.7z"/>
<path fill="#FFFFFF" stroke="#000000" stroke-width="0.25" d="M447.8,64c0,2.1-1.898,3.8-4.3,3.8c-2.1,0-3.8-1.3-4.2-3
	c-0.1-0.3-0.1-0.5-0.1-0.8c0-2.1,1.898-3.8,4.3-3.8c1.3,0,2.5,0.5,3.2,1.3C447.4,62.2,447.8,63.1,447.8,64z"/>
<path fill="#FFFFFF" stroke="#000000" stroke-width="0.25" d="M439.3,64.8c0.102,0.3,0.102,0.6,0.102,1c0,2.1-1.9,3.8-4.302,3.8
	c-2.398,0-4.3-1.7-4.3-3.8c0-2.1,1.9-3.8,4.3-3.8C437.2,62,438.8,63.2,439.3,64.8z"/>
<path fill="#FFFFFF" stroke="#000000" stroke-width="0.25" d="M428.2,30.1c0,0,7.8-3.3,4.8,4.5l-2.8,2.4l-5.2,4.4l-0.1,0.1
	c-0.4-0.3-0.9-0.4-1.4-0.4c-0.4,0-0.8,0.1-1.2,0.3l0,0l-4.1-4.8l-2.2-2.5c0,0-3-7.4,5.5-3.5C421.5,30.6,425,16.4,428.2,30.1z"/>
<path fill="#FFFFFF" stroke="#000000" stroke-width="0.25" d="M430.9,65.7c0,2.1-1.9,3.8-4.302,3.8c-2.398,0-4.3-1.7-4.3-3.8
	c0-0.1,0-0.3,0-0.4c0.2-1.9,2-3.4,4.2-3.4C429,62,430.9,63.6,430.9,65.7z"/>
<path fill="#FFFFFF" stroke="#000000" stroke-width="0.25" d="M422.4,65.1c0,0.1,0,0.2,0,0.3c-0.2,2-2,3.5-4.2,3.5
	c-2.4,0-4.3-1.7-4.3-3.8c0-0.2,0-0.4,0.1-0.6c0.3-1.8,2.1-3.1,4.2-3.1C420.5,61.3,422.4,63,422.4,65.1z"/>
<path fill="#FFFFFF" stroke="#000000" stroke-width="0.25" d="M413.9,64c0,0.1,0,0.3,0,0.4c-0.2,1.9-2,3.4-4.2,3.4
	c-2.4,0-4.3-1.7-4.3-3.8c0-0.6,0.198-1.3,0.5-1.8c0.698-1.2,2.1-2,3.8-2C412,60.3,413.9,61.9,413.9,64z"/>
<path fill="#FFFFFF" stroke="#000000" stroke-width="0.25" d="M406.3,60.5c0,0.6-0.2,1.2-0.5,1.7c-0.6,1.1-1.898,1.8-3.3,1.8
	c-2.1,0-3.8-1.6-3.8-3.5c0-1,0.398-1.9,1.1-2.5s1.602-1,2.602-1C404.6,57,406.3,58.6,406.3,60.5z"/>
<path fill="#FFFFFF" stroke="#000000" stroke-width="0.25" d="M399.8,52.9c0.602,0.6,1,1.5,1,2.5s-0.398,1.9-1,2.5
	c-0.6,0.6-1.398,1-2.3,1c-1.8,0-3.3-1.6-3.3-3.5s1.5-3.5,3.3-3.5C398.4,51.9,399.2,52.3,399.8,52.9z"/>
<path fill="#FFFFFF" stroke="#000000" stroke-width="0.25" d="M394,47.4c1.5,0,2.8,1.2,2.8,2.8c0,1.5-1.2,2.8-2.8,2.8
	s-2.8-1.2-2.8-2.8C391.3,48.6,392.5,47.4,394,47.4z"/>
<path fill="none" stroke="#000000" stroke-width="0.25" stroke-linecap="round" d="M429.2,94.3c4.5-5.1,13.1-5.6,15.898-1.5"/>
<path fill="none" stroke="#000000" stroke-width="0.25" stroke-linecap="round" d="M416.4,94.8c-3.2-5.4-11.2-2.9-14.802-2.4"/>
<path fill="none" stroke="#000000" stroke-width="0.25" stroke-linecap="round" d="M452.8,108.2c-0.2,0.7-0.5,1.2-0.6,1.9"/>
<path fill="none" stroke="#000000" stroke-width="0.25" stroke-linecap="round" d="M456.7,109.4c2.1-1,4.398-3.7,3.6-6.2
	c-0.3,0-0.7,0.2-1.1,0.4"/>
<path fill="none" stroke="#000000" stroke-width="0.25" stroke-linecap="round" d="M431.6,99.7c1.102-1,3.302-4.7,3.302-6.2"/>
<path fill="none" stroke="#000000" stroke-width="0.25" stroke-linecap="round" d="M435.7,96.6c1-0.6,2.5-2.8,2.3-3.9"/>
<path fill="none" stroke="#000000" stroke-width="0.25" stroke-linecap="round" d="M438.8,96.3c0.5-0.8,2.3-2,2.102-3.1"/>
<path fill="none" stroke="#000000" stroke-width="0.25" stroke-linecap="round" d="M440.9,96.5c1.6-0.9,1.698-1.3,2.698-2.4"/>
<path fill="none" stroke="#000000" stroke-width="0.25" stroke-linecap="round" d="M414.9,100.9c-1.102-1-3.5-4-3.5-5.5"/>
<path fill="none" stroke="#000000" stroke-width="0.25" stroke-linecap="round" d="M410.8,97.9c-1-0.6-2.1-2.2-1.898-3.4"/>
<path fill="none" stroke="#000000" stroke-width="0.25" stroke-linecap="round" d="M408.4,97.7c-0.5-0.8-1.9-2.4-1.802-3.5"/>
<path fill="none" stroke="#000000" stroke-width="0.25" stroke-linecap="round" d="M406.4,97.6c-1.602,0-1-1.8-2-2.9"/>
<path fill="none" stroke="#000000" stroke-width="0.25" d="M408.1,99.9c0,0.1,0,0.2,0,0.3"/>
<path fill="none" stroke="#000000" stroke-width="0.25" d="M438.1,98.7c0.102,0,0.102,0.1,0,0.2"/>
<path fill="none" stroke="#000000" stroke-width="0.25" d="M518.3,176.7c-4.8-3.6-8.2-9.2-0.3-16.6c0,0,10.5-3.5,10.5,1.5
	s4,5.5-4.5,7.5c0,0-3.5-4.5-2-4.5"/>
<path fill="none" stroke="#000000" stroke-width="0.25" d="M336.5,164.1c0,0,22.5-8.5,2.5-24.1c0,0-15.5,9-0.5,11"/>
<path fill="none" stroke="#000000" stroke-width="0.25" d="M359,154c0,0,8.6-7.7,6.1-21.7c-1-5.5,16.2,1.8,19.302-12.6
	c0.6-2.7,1.5-7.7-1-10.8c0,0-9.102-12.2,6.6-17.2c0,0,18.2-21.7-2.5-11.7c0,0-5.6,6.3,4.1,3.6"/>
<path fill="none" stroke="#000000" stroke-width="0.25" d="M382,66.2c0,0,4,11.5,15.5,1.5c0,0-4-20.6-12-1c0,0,1.5,3,4.5,1.5
	s5-6,1-5.5"/>
<path fill="none" stroke="#000000" stroke-width="0.25" d="M478.5,58.7c-5.5,7-2,24.6-15,14.1c-20.1-16.3,9-15.1,4-8"/>
<path fill="none" stroke="#000000" stroke-width="0.25" d="M497,79.3c0,0-9.5,21.6-19,8c-10.5-15,12.5-9,7.5-3"/>
<path fill="none" stroke="#000000" stroke-width="0.25" d="M539.5,161.1c-4,0.9-7.8-4.7-8.5-8c-1.6-6.9,2.9-8.2,8.4-8
	c4.6,2.9,0.698,5.2,0.5,7.9c-0.802,0.1-2.102,0.3-2.9,0.1"/>
<path fill="none" stroke="#000000" stroke-width="0.25" d="M507.5,100.4c0,0-7,20.1-21,9s-4.5-9,0-9s15.5,1.5,8,6"/>
<path fill="none" stroke="#000000" stroke-width="0.25" d="M372,85.3c-0.8,5.4,4,4.6,7.9,4.4c0.1-1.9,0.1-3.9,0-5.9
	c-1-0.4-1.4,0.1-1.9,0.4"/>
<path fill="none" stroke="#000000" stroke-width="0.25" d="M351,108.9c4.3,2.8,18.6,5.3,21,0c2.7-6-7.1-12.7-8.5-7"/>
<path fill="none" stroke="#000000" stroke-width="0.25" d="M337.5,128.5c0,0,18,8.5,19.5-3.5s-8-7-9.5-4"/>
<path fill="none" stroke="#000000" stroke-width="0.25" d="M532.5,117.9c-1.7,4.1-13.8,6.3-17.1,3.5c-6-5,0-12.9,6.6-10"/>
<path fill="none" stroke="#000000" stroke-width="0.25" d="M536.5,129c1.5,2.3,1.1,5.2,0.9,7.9c-5.602,1.3-12.102,7.7-17,3.2
	c-6.9-6.3,3-16.1,7.6-9.7"/>
<path fill="none" stroke="#000000" stroke-width="0.25" d="M446,74.3c4.9-3.5,8.8-3.7,9,3c0.1,4.4-4.3,8.3-7,3"/>
<path fill="none" stroke="#000000" stroke-width="0.25" d="M455,81.3c6.6-0.2,10,1.6,9.4,8.5c-1.802,0.4-3.4,0.6-5.302,0.5
	c-0.1-0.5,0-0.9-0.1-1.4"/>
<path fill="none" stroke="#000000" stroke-width="0.25" d="M465,90.3c0,2.4,1.9,3.1,2.7,5.2s0.3,4.8,0.5,7.1
	c7.3-0.9,7.398,8.9,4.5,12.4c3.6,1,8.2,1.5,10.1,4.5c1.4,2.2,1.3,6.9,0.7,9.4c6.4-0.2,16.5,6.3,10.5,12.3c3.3,0.9,6.4,2,9.5,3.3
	c0.1,2.7,0.2,5.6,0,8.3c-1,0.2-2.1,1.1-2.9,1.3c4.2,0.4,4.2,4.7,3.9,7.6c-1.2,0.5-1.9,1.1-3,1.4"/>
<path fill="none" stroke="#000000" stroke-width="0.25" d="M460,126.5c9.9,0,10.1,2.5,10.6,11.5c4.102,0.7,7.9,5.8,4.4,9.1"/>
<path fill="none" stroke="#000000" stroke-width="0.25" d="M498.5,125.9c3.8,0,8-0.9,10.3,2.9c1.9,3.2,0.2,6.6-2.398,8.6
	c4.5,2.3,9.8,9.8,3.1,13.6"/>
<path fill="none" stroke="#000000" stroke-width="0.25" d="M508,182.1c1.6,0.2,3.4,0,4.9-0.1c0.8-2.4,3-6.6,5.398-5.4"/>
<path id="www.ABC-color.com" fill="none" stroke="#000000" stroke-width="0.25" d="M396,121.9c-4.3,1.2-3.6,7.4-1.2,10.1
	c-0.6,0-1.2,0.1-1.7,0.1c-1.398,1.9-1.8,4.5,0.4,5.9"/>
<path fill="none" stroke="#000000" stroke-width="0.25" stroke-linecap="round" d="M234.4,232.1c4-1.9,9-3.2,14.6-0.1"/>
<path fill="none" stroke="#000000" stroke-width="0.25" stroke-linecap="round" d="M247.1,228.4c-1.1-0.4-2.3-0.7-3.7-0.8"/>
<path fill="none" stroke="#000000" stroke-width="0.25" stroke-linecap="round" d="M236.3,234.6c3.1-1.4,9.9-1.5,14.2,1.4"/>
<path fill="none" stroke="#000000" stroke-width="0.25" stroke-linecap="round" d="M614.7,230.9c-4.102-2.1-9.3-3.6-15.102-0.4"/>
<path fill="none" stroke="#000000" stroke-width="0.25" stroke-linecap="round" d="M601.5,226.9c1.1-0.4,2.3-0.7,3.7-0.8"/>
<path fill="none" stroke="#000000" stroke-width="0.25" stroke-linecap="round" d="M612.7,233.2c-2.9-1.5-10.102-1.7-14.5,1.2"/>
<path fill="none" stroke="#000000" stroke-width="0.25" d="M457.2,248.9c3.3,0.3,6.5,1.2,9.5,2.9"/>
<path fill="none" stroke="#000000" stroke-width="0.25" d="M388.7,240.4c0,0,3.1,0.8,7.6,2.2"/>
<path fill="none" stroke="#000000" stroke-width="0.2504" d="M227,396.4c0,0,19.3-38.301,24-41.102"/>
<path fill="none" stroke="#000000" stroke-width="0.2504" d="M277.9,421.2c-1.9-3.5-4.3-10.3-7.4-27.3"/>
<path fill="none" stroke="#000000" stroke-width="0.2504" d="M297.4,394c-4.7-7.8-10.1-16.8-11.9-20.2"/>
<path fill="none" stroke="#000000" stroke-width="0.2504" d="M623.6,388.5c-3.198-6.3-22.5-44.8-23.898-39.3"/>
<line fill="none" stroke="#000000" stroke-width="0.2504" x1="573.5" y1="369.8" x2="558.2" y2="392.2"/>
<line fill="none" stroke="#000000" stroke-width="0.2504" x1="580.7" y1="379.7" x2="575.7" y2="418.8"/>
</svg>
