<?xml version="1.0" encoding="utf-8"?>
<!-- Generator: Adobe Illustrator 15.0.0, SVG Export Plug-In . SVG Version: 6.00 Build 0)  -->
<!DOCTYPE svg PUBLIC "-//W3C//DTD SVG 1.1//EN" "http://www.w3.org/Graphics/SVG/1.1/DTD/svg11.dtd">
<svg version="1.1" id="layer_x5F_www.ABC-color.com"
	 xmlns="http://www.w3.org/2000/svg" xmlns:xlink="http://www.w3.org/1999/xlink" x="0px" y="0px" width="567px" height="822px"
	 viewBox="0 0 567 822" enable-background="new 0 0 567 822" xml:space="preserve">
<path fill="#FFFFFF" stroke="#000000" d="M177.7,381.2c1.3-1,3-1.3,4.6-1.6c0.4,3.5,0.7,7.8-2.1,10.4
	C178,387.9,176.5,384.3,177.7,381.2z"/>
<path fill="#FFFFFF" stroke="#000000" d="M211.5,195.1c2.8,7.8,5.9,16.6,9.4,24.2c10.5,22.5,30.6,56.4,48.5,62.8
	c0.3,0.1,0.5,0.3,1.1,0.2c27.4,3.8,45.3-50.1,49.6-68.3c1.2-5.1,2.602-12,3.5-16.8c0.302,0.1,0.5,0.1,0.802,0.2
	c0,0,0.8-0.3,1.698-2.1c0.302,0.5,2.2,3.5,3.102,1.7c0.2-0.4,0.5-1.2,0.8-2.2c0.1,0.3,0.7,1.3,1.5,2.2c-0.5,2.3-1.2,5.2-2,8.4
	c-6.4,26.2-21.5,78.1-47.6,83.6c-3,0.6-6.8,0.8-10.8,0.7c-0.1,0-0.1,0.1-0.2,0.1c-7.8,1-15.3-4.6-21.8-12
	c-17.6-19.9-32.8-53.7-42.7-76.7c-0.1-0.7-0.3-1.3-0.5-2c-0.1-0.2-0.2-0.4-0.3-0.6l0.2-0.2C209.4,201.9,210.9,195.2,211.5,195.1z"/>
<path fill="#FFFFFF" stroke="#000000" d="M206.2,199.3c0.1,0.6,0.3,1.3,0.5,2c3.5,15.5,6.3,38.4,0.1,52.7c-0.1,0.3-0.3,0.7-0.5,1
	c-1.8,3.3-6.2,6.5-9.6,6.5c4.4-19.4,7.2-40,3-59.8c0.9-0.9,1.3-3,1.6-3.9c1.2,1.1,3,1.9,4.4,0.7c0.1,0.1,0.1,0.1,0.1,0.2
	C206,198.9,206.1,199.1,206.2,199.3z"/>
<path fill="#FFFFFF" d="M0,0h567v822 M390.7,378.2c0-0.1,0.1-0.2,0.1-0.3c-0.3-3.9-1-7.7-2.3-11.4c-0.9-28.3-1.6-53.7-4.6-81.3
	c-2.102-18.8-7.2-39.3-8.9-55.7c-1-10.3-4.8-26.6-6.5-36.4c3.3-4.6-2.4-27.1-2.4-27.1H366c0.5-2.8-2.3-4.8-5.2-3.4
	c-10.7-2-22.3-1.2-32.898,1.2c-3.4-0.8-3.9,2.1-4.9,3.6c-6.8,0.7-16.7-1-23.899-0.7c-0.801-3.6-1.301-7.4-2.199-11
	c-0.9-0.2-1.7,0.4-2.5,0.3c-0.102-1.1,0.1-2.2-0.102-3.2c0-0.1,0.102-0.1,0.102-0.1c9.3-1.7,13.398-7.5,16.3-18
	c2.6-9.7,4.2-22.2,4.8-30.1c0,0,0,0,0.1,0c0-0.1,0-0.4,0.102-0.9c0.1-1.2,0.398-3.2,0.5-4.8c0.1-1.1,0.2-2.1,0.1-2.3l0,0
	c8-5.2,12.7-18.9,3.2-25.3c7.9-10-2.1-14.4-11.6-16.6c-8.001-1.8-16.001-2.2-20.501-2.5c-2.399,0-4.899,0-7.299,0
	c-8,0.6-14.4,1.3-21.8,3.5c-17.2,5.3-25.6,13.1-30,28c-2.7,9.1-3.7,20.1-1.8,30.6c1.8,9.8,6.4,24.7,17.4,31.2
	c0.1,0.2,0.1,0.6,0.2,0.8c-2.5,5.1-4.2,10.5-6.3,15.7c-8.6,0.3-17.4,1.5-25.9,0.7c-1-1.9-2.9-3.9-5.3-3.2c-11.7-2.1-24.2-3.4-36-1.2
	c-3.8-1.7-7.4,1.9-4.9,5.6c-4.8,9.7-8.7,21-6,31.9c0.3,0.4,0.1,1.3,0.2,1.9c-0.4,8.1-0.8,15.7-3,23.5c-1,3.6-2.7,7-3.5,10.6
	c-1.6,6.9-2.1,14.9-2.8,23.1c-0.9,11.8-2.9,23.9-4.3,35c-0.1,0.7-0.2,1.3-0.2,1.9c-3,24.8-3.5,50.2-3.5,75c-0.9,1.1-1.1,2.4-1.3,3.7
	c0,1,0,2,0,3c0.1,0.2,0.1,0.6,0.3,1c0,3.4,1,9.5,2.2,14.4c0.9,3.8,3.1,8.1,5.1,10.2h0.2c2.1,2.9,6,1.5,8.9,1
	c5.7,55,6.4,40.7,9.9,47.2c0.9,1.602,3,3.102,4.9,2.9c1.7,1.5,4.4,1.3,6.3,0.3c0.1,0.1,0.2,0.1,0.3,0.2c1.9,2.1,3,0.7,3.7-1
	c1.1-3,1.1-7.3,1.6-11.102c0.8-6.8,1.3-15,3.2-20.8c0.4-1.2,0.8-2.6,2-3.3c4.6,1.6,8.3,4.9,12.1,7.8c0,0,0,0.102-0.1,0.2
	c0.8,83,0.3,170.4,7.3,253.5c1.3,15.6,2.7,30.6,5.6,44.7c1.1,5.399,2.6,10.8,5.6,15.8c0,0,0,0.1-0.1,0.1
	c-0.4,12.302,0.4,31.302,4.4,44.602c1.7,5.7,5,14,11.9,14.2c0.1,0,0.2,0,0.4,0c6.3-0.302,9.2-8.2,10.4-13.302
	c2.3-9.898,2.5-28.398,0.9-39.8c0.9-1,2.2-1.2,3.4-1.5c0.1-0.2,0.4-0.398,0.7-0.5c0.5,1.3,0.3,3.9,0.6,5.3
	c6.3,3.302,14.5,12.4,21.5,6.4c9.4,7.5,25.8,26.8,38.2,31c4.398,1.5,5-2.1,6.2-5.3c0,0,0,0,0.1,0
	c10.601-10.4-10.399-29-20.899-37.601c0.399-0.301,1.399-0.5,2-0.699c5.601-1.4,6.399-3.5,7.801-8c0.898-3,1.8-7,2.398-10.102
	c4.9-24.199,7.2-49.398,9.8-74.199c3.7-35.399,6.7-71.699,9.602-107.801c3.1-39.1,5.3-78.1,8.398-115.398
	c0-0.301-0.1-0.602-0.198-0.801c3.8-3.101,7.5-6.899,12.198-8.601c2.602,2.801,2.302,7.2,3.102,10.5c1.7,7.5,1.3,18.4,3.2,25.101
	c0.1,0.199,0.1,1.199,1,1.5c1,0.199,1.8-0.5,2.398-1.199c1.8,1,4.3,1.199,5.8-0.301c1.802,0.101,3.7-1.101,4.5-2.601l0.4-0.2
	c5.8,0.801,7.4-33.2,8.1-47.8c3.2,0.9,8.5,2.1,9.5-2.4c2.2-5.7,2-12.399,2.7-18.5C390.8,378.6,390.7,378.4,390.7,378.2z"/>
<path fill="#FFFFFF" stroke="#000000" d="M390.8,377.9c0,0.1-0.1,0.2-0.1,0.3c-12.602-7.5-26.3-13.6-40.7-16.8
	c0.4-3.4,0.6-6.8,1.4-10.1c14.1-2.2,26.5,7,37,15.2C389.8,370.2,390.5,374,390.8,377.9z"/>
<path fill="#FFFFFF" stroke="#000000" d="M390.7,378.2c0.1,0.2,0.1,0.4,0.1,0.5c-0.7,6.1-0.5,12.8-2.7,18.5
	c-3.3,0-6.198-1.8-9.398-2.5c-6.3-3.5-13-6.6-19.5-9.9c-2.5-2.1-5.9-3.5-8.9-4.7c-0.898-6.1-1-12.5-0.3-18.7
	C364.3,364.6,378,370.7,390.7,378.2z"/>
<path fill="#FFFFFF" stroke="#000000" d="M383.8,285.3c3,27.5,3.8,52.9,4.602,81.3c-10.5-8.2-22.9-17.4-37-15.2
	c1.1-18.3-4.5-31.5-5.302-46.6c-0.6-11.4-3-20.4-5.198-30.6c-1.4-6.3-2.4-15.6-3.802-21.6c-2-8.6-3.3-17-5.198-24.8
	c-0.2-0.9-2-10.1-2.5-12.6l0,0c0.1-3.4,0.198-6.6,0.198-9.6h-0.1c0.8-3.3,1.5-6.1,2-8.4c1.2,1.4,3,2.3,4.5-0.6l0.1,0.1
	c0,0,4,6.1,6.5,1.6c0.7,0.6,3.602,3.2,5.602-0.1c1.1,5.7,5.398-0.6,5.398-0.6c4.302,4.8,7.102-2.5,7.102-2.5c2,2.5,4.1-1.3,4.398-2
	c1.4,2.4,2.602,1,2.602,1c0.3-0.1,0.5-0.3,0.7-0.6c1.698,9.8,5.5,26.1,6.5,36.4C376.6,246,381.8,266.5,383.8,285.3z"/>
<path fill="#FFFFFF" stroke="#000000" d="M378.7,394.8c3.2,0.7,6.1,2.5,9.398,2.5c-0.898,4.5-6.3,3.3-9.5,2.4
	C378.5,398.1,378.4,396.4,378.7,394.8z"/>
<path fill="#FFFFFF" stroke="#000000" d="M378.7,394.8c-0.2,1.601-0.102,3.3-0.102,4.9c-0.698,14.6-2.3,48.6-8.1,47.8l-0.4,0.2
	c-0.8,1.6-2.698,2.7-4.5,2.6c-1.5,1.5-4.1,1.3-5.8,0.3c-0.6,0.802-1.398,1.4-2.398,1.2c-0.9-0.398-1-1.3-1-1.5
	c-1.9-6.7-1.5-17.6-3.2-25.1c-0.8-3.3-0.5-7.7-3.102-10.5c-4.698,1.7-8.398,5.5-12.198,8.6c-0.2,0-0.7,0.2-1,0.4
	C332,427.1,330.1,422,330,419.6c6.7-4.8,13.2-10.5,18.2-17c3.3-3.5,7.5-7.3,8.7-12.2c1.198-1.6,1.3-3.7,2.3-5.4
	C365.7,388.2,372.3,391.3,378.7,394.8z"/>
<path fill="#FFFFFF" stroke="#000000" d="M368.4,193.3c-0.2,0.3-0.4,0.5-0.7,0.6c0,0-1.2,1.4-2.602-1c-0.3,0.7-2.398,4.4-4.398,2
	c0,0-2.8,7.3-7.102,2.5c0,0-4.3,6.3-5.398,0.6c-1.9,3.3-4.9,0.8-5.602,0.1c-2.5,4.5-6.5-1.6-6.5-1.6l-0.1-0.1
	c-1.5,2.9-3.3,2-4.5,0.6c-0.8-0.9-1.4-2-1.5-2.2c-0.3,1-0.6,1.8-0.8,2.2c-0.9,1.9-2.8-1.1-3.102-1.7c-0.898,1.8-1.698,2.1-1.698,2.1
	c-0.302-0.1-0.5-0.1-0.802-0.2c-4-3.6-2.398-14.5-1.698-21.8c0.3-3,0.398-5,0.898-7.9c12.3,7,30.2,7.8,42.5,0
	c0.3-0.5,0.4-0.9,0.5-1.4h0.102C366,166.2,371.7,188.7,368.4,193.3z"/>
<path fill="#FFFFFF" stroke="#000000" d="M360.7,162.7c2.898-1.4,5.7,0.6,5.2,3.4c-0.102,0.4-0.2,0.9-0.5,1.4
	c-12.4,7.8-30.2,7.1-42.5,0c1-1.6,1.5-4.4,4.898-3.6C336.9,172,351.8,170.1,360.7,162.7z"/>
<path fill="#FFFFFF" stroke="#000000" d="M359.2,384.9c-1,1.7-1.102,3.9-2.3,5.4c-2.7-2.8-6.2-6-6.5-10.2
	C353.3,381.4,356.7,382.8,359.2,384.9z"/>
<path fill="#FFFFFF" stroke="#000000" d="M356.9,390.3c-1.2,4.9-5.4,8.7-8.7,12.2C344.1,380.9,340.1,359,334.6,337.8
	c-1.1-5.8-2.5-11.8-4.698-17.3c-3.602-28.2-1.2-74.5-0.302-105.4c0.4,2.5,2.2,11.7,2.5,12.6c2,7.8,3.2,16.2,5.2,24.8
	c1.4,6,2.4,15.3,3.8,21.6c2.2,10.2,4.5,19.2,5.2,30.6c0.8,15.1,6.4,28.3,5.3,46.6c-0.8,3.3-1,6.7-1.398,10.1
	c-0.7,6.2-0.602,12.6,0.3,18.7C350.7,384.3,354.2,387.5,356.9,390.3z"/>
<path fill="#FFFFFF" stroke="#000000" d="M327.8,163.9c10.602-2.4,22.2-3.1,32.9-1.2C351.8,170.1,336.9,172,327.8,163.9z"/>
<path fill="#FFFFFF" stroke="#000000" d="M334.5,337.8c5.5,21.2,9.5,43.1,13.6,64.7c-4.898,6.6-11.398,12.3-18.198,17
	c-14.7,5-30.7,5.8-46.2,6.8c-4.3-9.2-7.7-19-12.1-28.1c-1-15.9-2.6-31.8-3.5-47.8c4.2-0.3,8.5,0,12.6-0.1c0.2-1.6,0.1-3.2,0.5-4.8
	C299,343.4,317.5,343.9,334.5,337.8z"/>
<path fill="#FFFFFF" stroke="#000000" d="M260.7,734.8c-1.7,1.4-3.3,3.2-5.4,4c0.1,0.102-0.2,0.3-0.6,0.5
	c-0.9,0.5-2.4,1.102-2.3,1.2c-0.3,0.1-0.6,0.3-0.7,0.5c-1.2,0.3-2.5,0.5-3.4,1.5c-7,1.5-15.3,2.5-21.6-1.8
	c-16.5-105.2-16-213.4-9.1-319.7c14.5,3.5,28.9,7.5,43.4,11c3.9-11,6.5-22.7,10.6-33.6c4.5,9.199,7.8,18.899,12.1,28.1
	c15.5-1,31.5-1.8,46.2-6.8c0.1,2.398,2,7.398,6.898,4.1c0.3-0.2,0.8-0.398,1-0.398c0.102,0.3,0.2,0.6,0.2,0.8
	c-3.1,37.3-5.3,76.2-8.4,115.398C326.7,575.7,323.7,611.9,320,647.4c-2.6,24.8-4.9,50-9.8,74.198c-0.602,3-1.5,7.102-2.4,10.102
	c-1.398,4.5-2.2,6.6-7.8,8c-0.5,0.1-1.6,0.398-2,0.7c-8.2,1.1-18,0.5-26.6-1.5C268,738,263.4,737,260.7,734.8z"/>
<path fill="#FFFFFF" stroke="#000000" d="M329.8,320.6c2.2,5.5,3.602,11.5,4.7,17.3c-17,6-35.5,5.6-53.3,7.8
	c-0.2-5.7-0.3-13-0.4-19.1h0.4C297.8,327.3,314.5,326.5,329.8,320.6z"/>
<path fill="#FFFFFF" stroke="#000000" d="M329.5,215.2L329.5,215.2c-0.9,30.9-3.3,77.2,0.3,105.4c-15.398,6-32.1,6.7-48.6,5.9h-0.4
	c0-0.7,0-1.4,0-2c-3.1-0.4-8.1-0.1-11.2-0.4c0.3-11.4,1.1-22.8,1.6-34.1c0.1,0,0.1-0.1,0.2-0.1c4,0.1,7.8-0.1,10.8-0.7
	c26-5.5,41.1-57.4,47.6-83.6h0.102C329.7,208.6,329.6,211.8,329.5,215.2z M276,300.1c2,3.6,9.9,2.3,8.3-2.6
	C282.7,292.5,273.2,294.3,276,300.1z M283.7,316.7c-1.2-4.9-10.5-3.2-8.7,2.1C277.7,321.5,282.6,321,283.7,316.7z"/>
<path fill="#FFFFFF" stroke="#000000" d="M322.9,167.5c-0.5,3-0.602,4.9-0.9,7.9c-0.8,7.3-2.3,18.2,1.7,21.8
	c-1,4.8-2.3,11.6-3.5,16.8c-4.2,18.2-22.2,72.1-49.6,68.3c-2.2-21.4-4.1-44-5.4-66.2c-0.5-9.3-1.1-19.8-0.7-29
	c0.1-3,0.5-6.1,1.1-8.8c0.3-0.3,0.3-0.8,0.3-1.3c0.1-0.1,0.1-0.2,0.2-0.3c0.1,0,0.2-0.1,0.3-0.1c11-2.7,21.7-6.3,32.6-9.6
	C306.2,166.5,316.1,168.2,322.9,167.5z M275.2,264.1c2.3,4.4,9.6,3.4,8.8-1.9C283.1,256.5,273.1,257,275.2,264.1z M274.3,235
	c0.2,4.6,9.1,3.8,8.9-1C283,228.1,273.7,228.3,274.3,235z M279.1,188.8c0.3-4.7-7.9-4.8-6.8,1.2
	C272.9,193.4,278.9,192.2,279.1,188.8z M272.8,210.1c0.2,4.9,7.3,4.7,8-0.8C279.8,204.4,271.7,204.7,272.8,210.1z"/>
<path fill="#FFFFFF" stroke="#000000" d="M319.4,71.4c9.5,6.3,4.8,20-3.2,25.3c-0.7-2.3-1.102-4.8-2.102-7c-0.8-4-2.1-8-3.3-11.9
	C313.8,75.8,316.7,73.7,319.4,71.4z"/>
<path fill="#FFFFFF" stroke="#000000" d="M307.9,54.8c9.5,2.2,19.398,6.6,11.6,16.6c-2.7,2.3-5.6,4.4-8.6,6.3
	c-3.4,1.2-6.9,3.6-10.602,2.9c-2.699-2.3-6.3-3.2-9.6-4c-10-2.3-20.7-3.4-30.8-4.4c-1.6,6.3-4.3,13.9-1.5,20.1
	c-0.7,4.3-5.8,14.5-10.6,16.3c-1.4-5.3-6.1-9.4-10.6-12.3c-6.6,1.6-6.5,8.8-5.5,14c1.3,6.9,5.5,14.9,12.4,16.1
	c0.1,0.1,0.2,0.2,0.3,0.3c-0.7,6.2,0.2,12.7-0.5,18.9c-10.9-6.6-15.5-21.4-17.4-31.2c-2-10.5-1-21.5,1.8-30.6
	c4.5-14.9,12.9-22.7,30-28c7.4-2.3,13.8-3,21.8-3.5c2.4,0,4.9,0,7.299,0C291.8,52.7,299.8,53,307.9,54.8z"/>
<path fill="#FFFFFF" stroke="#000000" d="M298,740.3c10.5,8.602,31.5,27.2,20.9,37.602H318.8c-9.8-4-24.399-10.802-31.899-18.7
	c-2.601-2.8-4.799-6.602-9-10.102c-6.4-5.3-14.5-7.898-23.1-9.5l-0.1-0.3c0.4-0.2,0.7-0.398,0.6-0.5c2.1-0.8,3.7-2.6,5.4-4
	c2.7,2.2,7.3,3.2,10.7,4C280,740.8,289.8,741.3,298,740.3z"/>
<path fill="#FFFFFF" stroke="#000000" d="M294.1,153c0.2,1.1,0,2.2,0.102,3.2c-6.5,2-13.2,3.5-19.8,5.4c-2.6,5-5.4,9.9-8.1,14.9
	c-0.1,0-0.3,0.1-0.3,0.1c-1.5-5.3-2.4-10.9-3.7-16.3c-7.8-1.5-13.8-7.6-18.3-13.8c-0.1-0.2-0.1-0.6-0.2-0.8
	c0.6-6.2-0.2-12.7,0.5-18.9c-0.1-0.1-0.2-0.2-0.3-0.3c-6.9-1.2-11.1-9.1-12.4-16.1c-1-5.2-1.1-12.4,5.5-14c4.6,2.9,9.2,7,10.6,12.3
	c4.8-1.8,9.9-12.1,10.6-16.3c-2.8-6.3-0.1-13.8,1.5-20.1c10.1,1,20.8,2.1,30.801,4.4c3.301,0.8,6.899,1.6,9.601,4
	c3.8,0.6,7.2-1.7,10.6-2.9c1.2,4,2.5,7.9,3.3,11.9c1,2.2,1.4,4.6,2.102,7l0,0c-0.102,0-0.2,0-0.4,0l0,0c-5.8-4.3-12.1,0.7-15.6,2
	c-0.5,0.3-0.4,0.9-0.5,1.4c1.1,4.2,11.6,5.1,15.7,4.6c-0.602,8-2.2,20.5-4.802,30.1c-2.898,10.5-7.1,16.4-16.299,18
	C294.2,152.9,294.2,152.9,294.1,153z M305.3,130.9l-0.5-0.4c-6.2-0.5-7.7,4.5-20.3-1.2l-0.2,0.1
	C287.7,136.4,294.4,143.5,305.3,130.9z M267.7,102c6.2,4.8,19.6,1.4,22,1.8c0-4.5-4.8-16.7-21.5-4C268.3,99.9,267.6,102,267.7,102z"
	/>
<path fill="#FFFFFF" stroke="#000000" d="M315.4,104.7c-4.102,0.6-14.602-0.4-15.7-4.6c0.1-0.5,0-1.1,0.5-1.4
	c3.5-1.4,9.8-6.4,15.6-2l0,0c0.102,0,0.3,0,0.4,0c0.1,0.3,0,1.2-0.102,2.3h-0.3c-3-5.3-11,1-4.8,5c1.4,0.5,3,0.4,4.3-0.2h0.3
	C315.5,104.2,315.5,104.5,315.4,104.7C315.5,104.7,315.5,104.7,315.4,104.7z"/>
<path fill="#FFFFFF" stroke="#000000" d="M315.8,99h0.3c-0.1,1.6-0.398,3.6-0.5,4.8h-0.3c-1.398,0.6-2.898,0.7-4.3,0.2
	C304.8,100,312.8,93.7,315.8,99z M313.6,100.7c0-0.2-0.1-0.5-0.1-0.6c-0.3-0.1-0.8-0.1-1.1,0.2c0,0.3-0.102,0.6,0.3,0.9
	C313,101.1,313.3,101,313.6,100.7z"/>
<path fill="#FFFFFF" stroke="#000000" d="M318.9,777.9c-1.2,3.3-1.802,6.8-6.2,5.3c-12.4-4.2-28.8-23.5-38.2-31
	c-7,6-15.2-3.2-21.5-6.4c-0.3-1.398,0-4-0.6-5.3c-0.1-0.1,1.4-0.7,2.3-1.2l0.1,0.3c8.7,1.602,16.7,4.2,23.1,9.5
	c4.2,3.5,6.4,7.4,9,10.102C294.4,767.1,309.1,773.9,318.9,777.9z"/>
<path fill="#FFFFFF" stroke="#000000" d="M313.4,100.1c0.1,0.1,0.1,0.4,0.1,0.6c-0.2,0.3-0.6,0.4-0.9,0.4
	c-0.398-0.3-0.3-0.6-0.3-0.9C312.6,100,313.1,100,313.4,100.1z"/>
<path fill="#FFFFFF" stroke="#000000" d="M304.8,130.5l0.5,0.4c-10.899,12.6-17.6,5.5-21-1.5l0.2-0.1
	C297.2,135,298.6,130,304.8,130.5z"/>
<path fill="#FFFFFF" stroke="#000000" d="M296.8,155.9c0.9,3.6,1.4,7.4,2.2,11c-10.9,3.3-21.6,6.9-32.6,9.6c2.7-5,5.4-9.9,8.1-14.9
	c6.6-1.9,13.3-3.3,19.8-5.4C295.1,156.3,295.9,155.7,296.8,155.9z"/>
<path fill="#FFFFFF" stroke="#000000" d="M282,96.3c-4.6-0.3-7.6,5.8-0.5,7.1c2.3,0.1,3.9-1.2,4-4.1c-0.2-1.8-2-2.5-3.6-2.8
	L282,96.3z M289.7,103.8c-2.4-0.4-15.8,3-22-1.8c-0.1,0,0.6-2.1,0.5-2.2C284.9,87.2,289.7,99.4,289.7,103.8z"/>
<path fill="#FFFFFF" stroke="#000000" d="M282,96.5c1.5,0.3,3.4,1,3.6,2.8c-0.199,2.9-1.7,4.2-4,4.1c-7.1-1.3-4.1-7.4,0.5-7.1
	L282,96.5z M282,99.8c-0.1-0.7-1.2-0.6-1.3,0c0,0.2,0.1,0.4,0.4,0.5C281.4,100.4,282,100.3,282,99.8z"/>
<path fill="#FFFFFF" stroke="#000000" d="M284.3,297.5c1.601,4.8-6.3,6.2-8.3,2.6C273.2,294.3,282.7,292.5,284.3,297.5z"/>
<path fill="#FFFFFF" stroke="#000000" d="M284,262.2c0.9,5.4-6.5,6.4-8.8,1.9C273.1,257,283.1,256.5,284,262.2z"/>
<path fill="#FFFFFF" stroke="#000000" d="M283.2,234c0.2,4.8-8.7,5.7-8.9,1C273.7,228.3,283,228.1,283.2,234z"/>
<path fill="#FFFFFF" stroke="#000000" d="M280.6,99.8c0.2-0.6,1.3-0.7,1.3,0c0,0.5-0.6,0.6-1,0.5C280.8,100.2,280.6,100,280.6,99.8z
	"/>
<path fill="#FFFFFF" stroke="#000000" d="M280.9,326.5c0.1,6,0.2,13.4,0.4,19.1c-0.3,1.6-0.3,3.2-0.5,4.8c-4.1,0.1-8.4-0.2-12.6,0.1
	c-4.7-0.2-9.5,0-14.1-1.1c-0.3-1.4-0.2-2.9-0.4-4.3c0.1-6.3,0.9-12.6,1.2-18.9c0.5-0.7,0.3-1.6,0.5-2.4c4.2,0.5,9.9,0.6,14.2,0.2
	c3.1,0.3,8.1,0,11.2,0.4C280.8,325.1,280.9,325.8,280.9,326.5z M277.9,342c-0.3-3.3-0.1-6.6-0.2-9.8c-2.9-2-6.2-3.6-9.4-5.3
	c-3.3,1.3-6.6,2.9-9.7,4.6c-0.3,3.3-0.5,6.7-0.1,10c3.3,1.7,6.4,3.7,9.7,5.2C271.5,345.3,274.8,343.7,277.9,342z"/>
<path fill="#FFFFFF" stroke="#000000" d="M275,318.8c-1.8-5.4,7.5-7,8.7-2.1C282.6,321,277.7,321.5,275,318.8z"/>
<path fill="#FFFFFF" stroke="#000000" d="M272.3,190c-1.1-5.9,7.1-5.8,6.8-1.2C278.9,192.2,272.9,193.4,272.3,190z"/>
<path fill="#FFFFFF" stroke="#000000" d="M277.7,332.2c0.1,3.3,0,6.6,0.2,9.8c-3.1,1.7-6.5,3.2-9.8,4.7c-3.3-1.5-6.5-3.5-9.7-5.2
	c-0.4-3.3-0.1-6.7,0.1-10c3.1-1.7,6.4-3.3,9.7-4.6C271.5,328.6,274.8,330.2,277.7,332.2z"/>
<path fill="#FFFFFF" stroke="#000000" d="M280.8,209.3c-0.7,5.4-7.8,5.7-8,0.8C271.7,204.7,279.8,204.4,280.8,209.3z"/>
<path fill="#FFFFFF" stroke="#000000" d="M270.5,282.3c-0.5,0-0.8-0.1-1.1-0.2c-17.9-6.4-38-40.3-48.5-62.8
	c-3.6-7.6-6.6-16.4-9.4-24.2c3.3-4.7,2.1-11.3,1.7-17c-0.4-5.1-0.8-10.3-1.5-14.2c0,0,0-0.1-0.1-0.1c0.1-0.3,0.2-0.6,0.3-0.8
	c8.5,0.9,17.3-0.4,25.9-0.7c9.3,5,18.6,9.9,28.1,14.7c0,0.4,0,0.9-0.3,1.3c-0.6,2.8-1,5.8-1.1,8.8c-0.4,9.2,0.2,19.7,0.7,29
	C266.4,238.4,268.4,261,270.5,282.3z"/>
<path fill="#FFFFFF" stroke="#000000" d="M249.4,278c6.5,7.4,14,13,21.8,12c-0.4,11.4-1.3,22.7-1.6,34.1c-4.3,0.4-10,0.3-14.2-0.2
	c-0.2,0.8-0.1,1.6-0.5,2.4c-14.9-1.1-30.2-1.9-44.5-6.6c0-0.1-0.1-0.2-0.1-0.3c1-21.5-0.9-43.1-3.8-64.2l-0.2-0.1
	c0.2-0.3,0.3-0.7,0.5-1c6.1-14.3,3.4-37.2-0.1-52.7C216.5,224.3,231.7,258,249.4,278z"/>
<path fill="#FFFFFF" stroke="#000000" d="M268.1,350.5c0.9,16,2.4,31.9,3.5,47.8c-4.1,10.9-6.7,22.602-10.6,33.602
	c-14.5-3.5-28.9-7.5-43.4-11c-2.3-0.602-4.6-1.5-6.9-1.602c-5.2-3.898-10.6-8.3-14.9-13.2c3.5-23.399,6.2-47.3,12-70.3
	c14.4,6.1,30.2,7.9,45.8,9.3c0.2,1.4,0.1,2.9,0.4,4.3C258.6,350.5,263.4,350.3,268.1,350.5z"/>
<path fill="#FFFFFF" stroke="#000000" d="M266,176.6c-0.1,0.1-0.1,0.2-0.2,0.3c-9.5-4.8-18.7-9.7-28.1-14.7
	c2.1-5.3,3.8-10.6,6.3-15.7c4.6,6.2,10.6,12.4,18.3,13.8C263.6,165.7,264.5,171.3,266,176.6z"/>
<path fill="#FFFFFF" stroke="#000000" d="M254.9,326.2c-0.4,6.3-1.1,12.6-1.2,18.9c-15.6-1.4-31.4-3.2-45.8-9.3
	c1.7-5.2,1.8-10.9,2.6-16.2C224.6,324.3,239.9,325.1,254.9,326.2z"/>
<path fill="#FFFFFF" stroke="#000000" d="M248.3,742.5c1.5,11.4,1.4,29.9-0.9,39.8c-1.2,5.102-4,13-10.4,13.3c-0.1,0-0.2,0-0.4,0
	c-6.9-0.198-10.2-8.5-11.9-14.198c-4-13.302-4.8-32.302-4.4-44.602c0,0,0-0.1,0.1-0.1c2.3,1.1,3.8,3.5,6.4,4
	C233,744.9,241.3,744,248.3,742.5z"/>
<path fill="#FFFFFF" stroke="#000000" d="M226.8,740.6c-2.6-0.5-4.1-3-6.4-4c-3-5-4.5-10.3-5.6-15.8c-2.9-14.1-4.4-29.1-5.6-44.7
	c-6.9-83.1-6.5-170.6-7.3-253.5c0,0,0-0.1,0.1-0.198c2.3,0.698,3.9,2.6,6,3.3c2.6-0.7,2.8-4.102,2.7-6.4c2.4,0.2,4.7,1,6.9,1.602
	C210.8,527.3,210.3,635.4,226.8,740.6z"/>
<path fill="#FFFFFF" stroke="#000000" d="M206.1,198.5l-0.2,0.2c0-0.1-0.1-0.1-0.1-0.2c-1.5,1.2-3.2,0.4-4.4-0.7
	c-0.3,0.9-0.8,3-1.6,3.9c0-0.1,0-0.1,0-0.2h-0.3c-1.8,1.5-3.9,0.8-5.2-0.9c0,0-5.7,3.6-7.5,0.9l-0.2,0.2c-1.9,0.8-4.7,0.7-5.3-1.8
	c-2,2.1-5.6,2.8-7.4,0c-2.3,1.1-5.3,0.5-6-2.2c-2.2,2.4-5,0.2-5.7-2.3c-0.5,0.1-1.1,0.2-1.5,0.6c-0.2-0.1-0.6-0.1-0.9-0.2
	c-2.6-10.8,1.3-22.2,6-31.9c13.4,9.1,32.1,7.3,45.9-0.4l0.1,0.1c0.8,4,1.2,9.2,1.5,14.2c0.4,5.7,1.6,12.3-1.7,17
	C210.9,195.2,209.4,201.9,206.1,198.5z"/>
<path fill="#FFFFFF" stroke="#000000" d="M211.9,162.9c-0.1,0.2-0.2,0.5-0.3,0.8c-13.8,7.7-32.5,9.4-45.9,0.4
	c-2.5-3.7,1.1-7.3,4.9-5.6c9.8,8,26.1,9.9,36,1.2C209,159,210.9,161,211.9,162.9z"/>
<path fill="#FFFFFF" stroke="#000000" d="M210.7,419.3c0.1,2.3-0.1,5.7-2.7,6.4c-2.1-0.8-3.8-2.602-6-3.3
	c-3.8-2.9-7.5-6.2-12.1-7.802c-1.2,0.7-1.6,2.2-2,3.302c-1.9,5.8-2.4,13.898-3.2,20.8c-0.5,3.898-0.5,8.2-1.6,11.1
	c-0.7,1.7-1.8,3.102-3.7,1c-0.1-0.1-0.2-0.1-0.3-0.2c-1.9,1-4.6,1.2-6.3-0.3c-2,0.102-4-1.3-4.9-2.898c-3.5-6.4-4.2,7.8-9.9-47.2
	c0.1-3.7,0.1-7.6-0.3-11.3c0-0.1,0.1-0.1,0.1-0.2c6.2-3.2,13.2-6.2,20-7.6c-1.3,3.1,0.2,6.7,2.5,8.8c4.6,5.8,10.1,11.1,15.6,16.1
	C200,411,205.4,415.4,210.7,419.3z"/>
<path fill="#FFFFFF" stroke="#000000" d="M210.3,319.3c0,0.1,0.1,0.2,0.1,0.3c-0.8,5.4-0.9,11-2.6,16.2c-5.8,23.1-8.6,46.9-12,70.3
	c-5.5-4.899-11-10.3-15.6-16.1c2.8-2.6,2.5-6.9,2.1-10.4c0.5-6.4,1.2-13-0.1-19.3c0.3-1.7-0.6-3.4-1-5c0.9-4.1,5.2-53.3,5.3-57.5
	c5.4-11.5,6.8-24.2,10.1-36.3c3.4,0,7.8-3.1,9.6-6.5l0.2,0.1C209.4,276.2,211.3,297.8,210.3,319.3z"/>
<path fill="#FFFFFF" stroke="#000000" d="M199.7,201.7c4.2,19.8,1.4,40.4-3,59.8c-3.4,12.1-4.7,24.8-10.1,36.3
	c-0.1,4.2-4.3,53.4-5.3,57.5c-10.5-9-30.2,5.3-38.8,11.7c0-24.8,0.6-50.2,3.5-75c0.1-0.6,0.2-1.3,0.2-1.9c1.5-11.2,3.4-23.2,4.3-35
	c0.6-8.2,1.1-16.2,2.8-23.1c0.9-3.6,2.5-7,3.5-10.6c2.2-7.8,2.6-15.4,3-23.5c-0.1-0.5,0.1-1.4-0.2-1.9c0.3,0.1,0.7,0.1,0.9,0.2
	c0.4-0.4,1-0.5,1.5-0.6c0.7,2.5,3.5,4.7,5.7,2.3c0.7,2.7,3.8,3.3,6,2.2c1.9,2.8,5.4,2.1,7.4,0c0.5,2.5,3.3,2.5,5.3,1.8l0.2-0.2
	c1.8,2.7,7.5-0.9,7.5-0.9c1.3,1.7,3.5,2.3,5.2,0.9h0.3C199.7,201.6,199.7,201.7,199.7,201.7z"/>
<path fill="#FFFFFF" stroke="#000000" d="M206.6,159.7c-9.9,8.8-26.3,6.9-36-1.2C182.4,156.3,194.9,157.5,206.6,159.7z"/>
<path fill="#FFFFFF" stroke="#000000" d="M182.3,360.3c1.3,6.3,0.6,13,0.1,19.3c-1.6,0.3-3.3,0.6-4.6,1.6c-6.9,1.4-13.9,4.4-20,7.6
	c0,0.1-0.1,0.1-0.1,0.2c-4.8,1.4-7.2,5.9-8.6,10.3h-0.2c-2-2-4.2-6.4-5.1-10.2c-1.2-4.9-2.2-11-2.2-14.4
	C152.4,367.1,168.1,352.7,182.3,360.3z"/>
<path fill="#FFFFFF" stroke="#000000" d="M181.3,355.3c0.4,1.6,1.3,3.3,1,5c-14.2-7.6-29.9,6.8-40.8,14.4c-0.2-0.4-0.2-0.8-0.3-1
	c0-1,0-2,0-3c0.2-1.3,0.4-2.6,1.3-3.7C151.1,360.6,170.8,346.3,181.3,355.3z"/>
<path fill="#FFFFFF" stroke="#000000" d="M157.6,389c0.4,3.7,0.4,7.6,0.3,11.3c-2.9,0.5-6.8,2-8.9-1
	C150.4,394.9,152.8,390.4,157.6,389z"/>
<path fill="none" stroke="#000000" stroke-width="2" stroke-linecap="round" d="M266.5,95.2c6-3.9,14.1-7.3,21-3.6"/>
<path fill="none" stroke="#000000" stroke-linecap="round" d="M238.1,107c3.1,0.4,4.6,3.9,6.4,6.1"/>
<path fill="none" stroke="#000000" stroke-linecap="round" d="M236.8,109.8c0.2-1,0.2-2.3,1.4-2.7"/>
<path fill="none" stroke="#000000" stroke-linecap="round" d="M244.3,126.8c1.2-0.1,2.4-0.1,3.6-0.2"/>
<path fill="none" stroke="#000000" stroke-linecap="round" d="M282.5,153.9c-10.8-3.5-18.9-15.5-23-26.1"/>
<path fill="none" stroke="#000000" stroke-linecap="round" d="M293,153.2c-3.4,0.7-7.6,1.7-10.5,0.7"/>
<path fill="none" stroke="#000000" stroke-linecap="round" d="M303.5,120.3c-1.2,3.9-7.1,2.5-9.6-0.9"/>
<path fill="none" stroke="#000000" stroke-linecap="round" d="M299.1,102.6c1.301,5,5.602,13.6,4.4,17.7"/>
<path fill="none" stroke="#000000" stroke-linecap="round" d="M299.8,100.1c-0.399,0.7-0.399,1.7-0.6,2.5"/>
<path fill="none" stroke="#000000" stroke-width="2" stroke-linecap="round" d="M314.1,89.7c-5.898-1.9-14.898,1.9-13.898,9"/>
<line fill="none" stroke="#000000" stroke-linecap="round" x1="187.8" y1="180.7" x2="186.7" y2="201.7"/>
<path fill="none" stroke="#000000" stroke-linecap="round" d="M194.2,200.8c0.6-7.2,0.8-14.4,0.9-21.6"/>
<path fill="none" stroke="#000000" stroke-linecap="round" d="M201.3,197.9c-0.8-6.1-0.1-12.5-0.5-18.7"/>
<path fill="none" stroke="#000000" stroke-linecap="round" d="M206.7,190.9c-0.3-3.6-0.3-7.2-0.6-10.8"/>
<path fill="none" stroke="#000000" stroke-linecap="round" d="M162,195.6c1.8-6.4,3.6-12.7,5.3-19"/>
<path fill="none" stroke="#000000" stroke-linecap="round" d="M167.7,197.9c2.4-7.6,4.5-15.3,7-22.8"/>
<path fill="none" stroke="#000000" stroke-linecap="round" d="M173.8,200c1.8-7.6,3.6-15.2,5.3-22.8"/>
<path fill="none" stroke="#000000" stroke-linecap="round" d="M181.2,200.1c0.7-6.6,0.9-13.2,1.5-19.7"/>
<path fill="none" stroke="#000000" stroke-linecap="round" d="M326.5,194.6c1-2.5,2-7.3,2-16.1"/>
<path fill="none" stroke="#000000" stroke-linecap="round" d="M166.8,446c-0.8-5.1-0.7-11.2-1.1-16.3"/>
<path fill="none" stroke="#000000" stroke-linecap="round" d="M172.8,450.4c-1.2-7.7-1.4-15.5-1.8-23.302"/>
<path fill="none" stroke="#000000" stroke-linecap="round" d="M179.1,450.7c-1.9-7.8,0.9-15.7-0.2-23.602"/>
<path fill="none" stroke="#000000" stroke-linecap="round" d="M359.8,450.7c1.7-7.7-0.8-15.602,0.2-23.4"/>
<path id="ABC-color.com" fill="none" stroke="#000000" stroke-linecap="round" d="M365.7,450.3c1.1-7,1.2-14.2,1.6-21.398"/>
<path fill="none" stroke="#000000" stroke-linecap="round" d="M370.5,447.5c0.8-5.6,1.4-13.8,1.7-19.5"/>
<path fill="none" stroke="#000000" d="M364.7,191.9c-1-2.5-2.102-7.3-2.8-16.5"/>
<path fill="none" stroke="#000000" d="M360.2,193.8c-2-4.3-3.7-17-3.7-17"/>
<path fill="none" stroke="#000000" stroke-linecap="round" d="M330.5,193.7c1.4-4.2,3.1-11.1,2.9-15"/>
<path fill="none" stroke="#000000" stroke-linecap="round" d="M337,194.4c1.8-6.2-0.1-15.3-0.1-15.3"/>
<path fill="none" stroke="#000000" stroke-linecap="round" d="M343.2,197c2.398-6.5-1.3-16.8-1.3-16.8"/>
<line fill="none" stroke="#000000" stroke-linecap="round" x1="353.6" y1="196.3" x2="351.8" y2="179.3"/>
<path fill="none" stroke="#000000" stroke-linecap="round" d="M348,196.5c-0.9-6.1-1.3-16.8-1.3-16.8"/>
<path fill="none" stroke="#000000" stroke-linecap="round" d="M205.8,198.6c0.4-1.2,0.6-6.5,0.9-7.7"/>
<path fill="none" stroke="#000000" stroke-linecap="round" stroke-linejoin="round" d="M269.6,499.4c2.1-18.5,5.1-36.5,8.5-54.802"
	/>
<path fill="none" stroke="#000000" stroke-linecap="round" stroke-linejoin="round" d="M265.5,654.7c-2.3-51.2-1.8-104.5,4.1-155.3"
	/>
<path fill="none" stroke="#000000" stroke-linecap="round" stroke-linejoin="round" d="M266,712.5c1.4-18.3,0.4-38.6-0.5-57.8"/>
<path fill="none" stroke="#000000" stroke-linecap="round" stroke-linejoin="round" d="M260.7,734.6c4.3-7.898,4.7-14.198,5.3-22.1"
	/>
</svg>
