<?xml version="1.0" encoding="utf-8"?>
<!-- Generator: Adobe Illustrator 15.0.0, SVG Export Plug-In . SVG Version: 6.00 Build 0)  -->
<!DOCTYPE svg PUBLIC "-//W3C//DTD SVG 1.1//EN" "http://www.w3.org/Graphics/SVG/1.1/DTD/svg11.dtd">
<svg version="1.1" id="layer_x5F_www.ABC-color.com"
	 xmlns="http://www.w3.org/2000/svg" xmlns:xlink="http://www.w3.org/1999/xlink" x="0px" y="0px" width="822px" height="567px"
	 viewBox="0 0 822 567" enable-background="new 0 0 822 567" xml:space="preserve">
<path fill="#FFFFFF" stroke="#000000" stroke-width="0.5" stroke-miterlimit="10" d="M523.21,509.5c4.5,3,7.5,15,7.5,15
	c-8,4.198-30.3,4.5-32.898,4.5c-3.2-4.802-8.102-12.7-13-21.802c-1-1.8-1.9-3.698-2.9-5.698c3,0.198,32.9,2.198,35.3-2.5l0.602-0.2
	C521.011,508,523.21,509.5,523.21,509.5z"/>
<path fill="#FFFFFF" stroke="#000000" stroke-width="0.5" stroke-miterlimit="10" d="M480.311,309.3
	c3.7,3.5,11.1,36.899,16.398,62.7c3.5,16.8,6,30.5,6,30.5c0.102,1.699,0.302,3.3,0.4,4.898c4.6,53.602,10.5,79.3,14.7,91.5
	l-0.602,0.2c-2.398,4.8-32.198,2.7-35.3,2.5c0.9,1.9,1.9,3.8,2.9,5.7l-0.599,0.301c-6.5-5.5-36.5,1-36.5,1c-12,2-29.5,3.5-29.5,3.5
	c-10.5-9-79-6-79-6c-42,11.5-70-12.5-70-12.5l-0.3-0.1c0.7-2.602,1.5-5.4,2.2-8.4c-11.2,0.9-19.6-6.7-21.8-8.9
	c6.6-18.698,13.8-46.3,20.3-73.5c3-12.398,5.7-24.699,8.2-36c6-27.3,10.4-49.1,11.2-53.398c4.4,1.6,10.2,2.6,18.1,2.699
	c0,0,58-5.5,67.5-91c0,0,0.3-1.5,0.6-3.5l2.9,0.5l0.5,0.3c-0.7,1.3-1.1,2.8-1,4.7c0.2,2.8,0.3,4.1,0.3,4.5l0,0
	c-0.8,14-2.2,83.201,43.2,89C421.21,320.5,453.011,333,480.311,309.3z"/>
<path fill="#FFFFFF" stroke="#000000" stroke-width="0.5" stroke-miterlimit="10" d="M479.71,260.5c0,0,0.5,9.5-1,9.5s-11-2-17.5-9
	c-0.398-0.5-0.8-1.2-1.198-2.1c-2.602-6.5-3.802-23.5-4.302-38.9c-0.6-15.5-0.398-29.5-0.398-29.5c-12.2-8.6-13.8-34.3-14-39.2
	c11.7,1.7,17.898,0.2,21.1-1.6l0.102,0.1c16,38,15.3,35.2,16.3,39.2c0.3,1.3,0.398,1.8,0.398,1.8c-0.1-0.1-0.398-1.2-0.398-0.3
	c0,1.1,0.5,36.4,0.8,56.4C479.61,255,479.71,260.5,479.71,260.5z"/>
<path fill="#FFFFFF" stroke="#000000" stroke-width="0.5" stroke-miterlimit="10" d="M483.91,286.699c-0.1,2.4-0.2,8.5-2.5,8
	c-1.7-0.399-3.8-13.5-3.8-13.5l-5.5-5.3c-2.2-4.3-5.8,2.2-5.8,2.2c-1,6.5-4,6.5-4,6.5c-4,0-1-23.5-1-23.5c6.5,7,16,9,17.5,9
	C478.71,270,484.11,282.2,483.91,286.699z"/>
<path fill="#FFFFFF" stroke="#000000" stroke-width="0.5" stroke-miterlimit="10" d="M452.71,128c2-0.8,3.102-2,3.7-3.3
	c1.5,1.5,13.102,13.9,9.3,21.8c0,0-0.6,1.7-3.398,3.2c-3.2,1.8-9.4,3.3-21.102,1.6c-0.6-0.1-1.3-0.2-2-0.3c0,0-5-2.7-6-12.1
	C444.41,133,452.71,128,452.71,128z"/>
<path fill="#FFFFFF" stroke="#000000" stroke-width="0.5" stroke-miterlimit="10" d="M406.311,74.3c3.1,5.8,14.7,3.5,15.2,3.7
	c0,0,3.5,6,11.3,4.3c4.398-1,7.398,3.7,9.1,8.7c-0.1,0.1-0.2,0.1-0.3,0.1l0.6,0.8c1.102,3.6,1.602,7.1,1.5,8.8
	c-0.1,1.3-2.6,5.4-4.398,6.7c-0.3-0.1-0.602-0.3-0.9-0.4c-7.398-3.1-14.3-5.5-14.3-5.5l-6.2-2h-0.2c0,0-0.198,0.1-0.6,0.3l0,0
	c-3.8,1.2-17.4,2.8-14-15.3C403.811,81.7,404.811,78.3,406.311,74.3z"/>
<path fill="#FFFFFF" stroke="#000000" stroke-width="0.5" stroke-miterlimit="10" d="M351.21,120c-0.898,20.5,18.7,35.2,21.602,37.3
	c0.7,2.7,2.3,4.5,4.3,4.9c1.9,0.3,3.8-0.9,5.3-2.9l0.8,0.1c9.9,0,33.102-11.4,50-20.4c1,9.4,6,12.1,6,12.1c-3.5,2-20,29-20,29
	c-6,13.5-1.5,19.5-1.5,19.5c-1,0-7.6-0.5-9,4c0,0-13-1.5-12,6c0,0-9-1-8.5,7c0,0-6.898,0.9-9.5,5.8l-0.5-0.3l-2.9-0.5
	c0.5-4.4,0.5-11.4-5.102-10l-0.898-0.1c0.398-2.7-0.4-6-3.602-9.4l2-24c-2.8-0.8-5.5-2.5-5.5-2.5s-17.5-16-18.5-35.7
	c1.5-8.6,4.4-15.1,7.2-20L351.21,120z"/>
<path fill="#FFFFFF" stroke="#000000" stroke-width="0.5" stroke-miterlimit="10" d="M375.011,144.8c-6.4-5.7-7.2-37.7-7.302-42.6
	c6-1.3,12.802-1.6,14.5-1.6c0,0,5,14,2.5,23c0,0,15.5-14.5,39.5-22c0,0,6.9,2.4,14.302,5.5c-4.4,8.6-55.301,36.5-55.301,36.5h-0.1
	c-0.8-1-1.7-1.6-2.8-1.7C378.41,141.6,376.511,142.8,375.011,144.8z"/>
<path fill="#FFFFFF" stroke="#000000" stroke-width="0.5" stroke-miterlimit="10" d="M426.811,46.8c0,7-1,4.5-1,4.5s-2.4-3-5.8-0.5
	c0,0-2.102,2.2-5.102,4c-0.5,0.3-1,0.5-1.3,0.4c0,0-11.3,3.3-12.6,0.2c0,0-5.802-11.6-16.602-13.6c0,0-1.898-0.5-3.898,2l-0.5-0.4
	c0,0-4.5-19.7,14.398-18.1V25c0.4,0,0.7,0,1.102,0.1c1.398,0.1,2.8,0.2,4.198,0.3l-0.397,1.2c1.898,1.2,4.7,3.7,5,7.4
	c0,0,7,10.6,13.898,7.2C418.11,41.1,426.811,39.8,426.811,46.8z"/>
<path fill="#FFFFFF" stroke="#000000" stroke-width="0.5" stroke-miterlimit="10" d="M432.811,82.2c-7.8,1.8-11.3-4.3-11.3-4.3
	c4.198,1.6,10.1-9.6,13.698-12c-19.198,4-21.8-10.9-21.8-10.9c0.4,0,0.8-0.1,1.3-0.4c3-1.8,5.102-4,5.102-4c3.5-2.5,5.8,0.5,5.8,0.5
	s1,2.5,1-4.5s-8.7-5.6-8.7-5.6c-6.899,3.4-13.899-7.2-13.899-7.2c-0.2-3.7-3-6.1-5-7.4l0.1-1.4c58.8,5.7,45.9,62.5,42.5,65.7
	C440.21,85.899,437.21,81.3,432.811,82.2z"/>
<path id="www.ABC-color.com" fill="#FFFFFF" stroke="#000000" stroke-width="0.5" stroke-miterlimit="10" d="M403.311,84.6
	c-3.3,18.1,10.2,16.5,14,15.3c-3.4,2.1-20.3,12.1-22.602,7.6c0,0-4,4.5-10.5-8l-0.1-0.1c1.6-2,2.3-5.9,2.3-5.9l-0.1-0.2
	c7.5-2,16.7-8.7,16.7-8.7H403.311z"/>
<path fill="#FFFFFF" stroke="#000000" stroke-width="0.5" stroke-miterlimit="10" d="M400.811,55.3c1.398,3.1,12.6-0.2,12.6-0.2
	s2.602,15,21.8,10.9c-3.6,2.4-9.5,13.5-13.698,12c-0.5-0.2-12.102,2.1-15.2-3.7c0,0-8.3-12.8-5.5-18.2L400.811,55.3L400.811,55.3z"
	/>
<path fill="#FFFFFF" stroke="#000000" stroke-width="0.5" stroke-miterlimit="10" d="M385.511,62.1c0-0.6,0.5-1.2,1-1.2
	c0.6,0,1,0.5,1,1.2c0,0.6-0.5,1.2-1,1.2C386.011,63.2,385.511,62.7,385.511,62.1z"/>
<path fill="#FFFFFF" stroke="#000000" stroke-width="0.5" stroke-miterlimit="10" d="M386.61,60.899c-0.6,0-1,0.5-1,1.2
	c0,0.6,0.5,1.2,1,1.2c0.6,0,1-0.5,1-1.2S387.21,60.899,386.61,60.899z M393.511,61.8c-9,8.2-10.9-1.1-10.9-1.5l0.1-0.5
	C386.61,60.899,392.41,61.6,393.511,61.8L393.511,61.8z"/>
<path fill="#FFFFFF" stroke="#000000" stroke-width="0.5" stroke-miterlimit="10" d="M433.21,138.899c-16.898,9.1-40.1,20.4-50,20.4
	l-0.8-0.1c1.2-1.6,2-3.8,2.4-6.3c0.6-3.8-0.2-7.3-1.8-9.4l0.1-0.1c0,0,50.9-27.9,55.3-36.5c0.3,0.1,0.602,0.2,0.9,0.4
	c8.8,3.7,17.898,8.2,16.898,10.6c0,0,1.4,3.6,0.2,6.7c-0.6,1.3-1.7,2.6-3.7,3.3C452.71,128,444.41,133,433.21,138.899z"/>
<path fill="#FFFFFF" stroke="#000000" stroke-width="0.5" stroke-miterlimit="10" d="M384.71,123.5c2.5-9-2.5-23-2.5-23
	c0.802,0,1.4-0.4,1.9-1.1l0.1,0.1c6.5,12.5,10.5,8,10.5,8c2.302,4.5,19.2-5.6,22.602-7.6l0,0c0.3-0.1,0.6-0.2,0.7-0.3l6.198,2
	C400.21,109,384.71,123.5,384.71,123.5z"/>
<path fill="#FFFFFF" stroke="#000000" stroke-width="0.5" stroke-miterlimit="10" d="M382.91,80.3c-1.7,0.4-8.8-2.1-8.8-2.1l0.6-4.3
	c0,0-3.398-1.9-0.8-6c0,0,2.9-4.5,3.102-5.8c0,0,0.5-3.1-0.2-3.7c0,0-0.5-0.5-0.9-1.3c1-7.6,2.7-11.5,4.3-13.5c2-2.5,3.9-2,3.9-2
	c10.7,1.9,16.6,13.6,16.6,13.6V56c-2.8,5.4,5.5,18.2,5.5,18.2c-1.5,4-2.5,7.4-3,10.3h-0.3c0,0-9.2,6.7-16.7,8.7
	c-2.1,0.6-4,0.8-5.6,0.4c0,0-5.2,2.3-4.2-7.8C376.511,85.899,386.21,79.6,382.91,80.3z M393.511,61.8L393.511,61.8
	c-1.102-0.1-6.9-0.9-10.802-2l-0.1,0.5C382.61,60.7,384.511,70,393.511,61.8z"/>
<path fill="#FFFFFF" stroke="#000000" stroke-width="0.5" stroke-miterlimit="10" d="M382.91,80.3c3.2-0.7-6.398,5.6-6.398,5.6
	s-1.9-0.2-1.9-1.5l1.2-2.3c0,0-3.602-1-1.7-3.9C374.11,78.2,381.21,80.7,382.91,80.3z"/>
<path fill="#FFFFFF" stroke="#000000" stroke-width="0.5" stroke-miterlimit="10" d="M375.011,144.8c1.5-2,3.398-3.2,5.3-2.9
	c1.1,0.2,2,0.8,2.8,1.7c1.6,2,2.4,5.5,1.8,9.4c-0.398,2.5-1.3,4.6-2.398,6.3c-1.5,2-3.4,3.2-5.302,2.9c-2-0.3-3.6-2.2-4.3-4.9
	c-0.5-1.8-0.6-4-0.3-6.2C372.91,148.6,373.811,146.399,375.011,144.8z"/>
<path fill="#FFFFFF" stroke="#000000" stroke-width="0.5" stroke-miterlimit="10" d="M477.61,281.2c0,0,2.2,13.1,3.8,13.5
	c2.3,0.5,2.4-5.6,2.5-8c0.2-4.5-5.2-16.7-5.2-16.7c1.5,0,1-9.5,1-9.5s-0.1-5.6-0.198-13.6c29.5,38.7,7.198,56.101,7.198,56.101
	c-2.1,2.3-4.198,4.399-6.398,6.3c-27.3,23.7-59.102,11.2-59.102,11.2c-45.398-5.801-43.898-75-43.198-89
	c0.198,0.8,0.198-2.5,0.198-2.5s-0.1,0.9-0.198,2.5c-0.102-0.4-0.2-1.6-0.302-4.5c-0.1-1.9,0.302-3.4,1-4.7
	c2.602-4.8,9.5-5.8,9.5-5.8c-0.5-8,8.5-7,8.5-7c-1-7.5,12-6,12-6c1.4-4.5,8-4,9-4c3-2,37,20.5,37,20.5h0.9
	c0.5,15.4,1.7,32.4,4.3,38.9c0.4,0.9,0.8,1.6,1.2,2.1c0,0-3,23.5,1,23.5c0,0,3,0,4-6.5c0,0,3.7-6.5,5.8-2.2L477.61,281.2z"/>
<path fill="#FFFFFF" stroke="#000000" stroke-width="0.5" stroke-miterlimit="10" d="M367.71,102.2c0.102,4.9,0.9,36.9,7.302,42.6
	c-1.2,1.6-2.102,3.8-2.4,6.3c-0.3,2.3-0.2,4.4,0.3,6.2c-2.898-2-22.5-16.8-21.6-37.3l-0.3-0.2c3.3-5.9,6.6-9.6,7.3-12.3
	C358.91,104.899,363.011,103.2,367.71,102.2z"/>
<path fill="#FFFFFF" stroke="#000000" stroke-width="0.5" stroke-miterlimit="10" d="M277.21,295.5c8-74.5,88.5-93.5,88.5-93.5
	c3.2,3.4,3.9,6.6,3.602,9.4l0.898,0.1c5.5-1.4,5.602,5.6,5.102,10c-0.2,2-0.602,3.5-0.602,3.5c-9.5,85.5-67.5,91-67.5,91
	c-7.9-0.102-13.8-1.2-18.1-2.7C273.61,307.699,277.21,295.5,277.21,295.5z"/>
<path fill="#FFFFFF" stroke="#000000" stroke-width="0.5" stroke-miterlimit="10" d="M343.811,139.899c1,19.6,18.5,35.7,18.5,35.7
	c-5,15-11,18-11,18c-38,18.5-54.2,27.6-60.7,34.4l-0.3-0.3c-22,4.5-25.2,3.2-25.2,3.2l-0.1-0.1c5-6.3,10.3-10.7,14.1-13.4
	c3.1-2.2,5.2-3.3,5.2-3.3l15.9-11.3l22.6-16.2c0,0,19.5-8.5,20-35.5C342.811,146.899,343.21,143.2,343.811,139.899z"/>
<path fill="#FFFFFF" stroke="#000000" stroke-width="0.5" stroke-miterlimit="10" d="M484.811,507.199c4.8,9.2,9.8,17,13,21.802
	c2.1,3.198,3.398,5,3.398,5c-3,4-55.5,2.5-55.5,2.5c-8,3.5-21.5,5.5-25.5,5.5c-28.898,0-83-5-83-5c-25.5,5-72-14.5-72-14.5
	c-7-3-1.5-11.5-1.5-11.5s2.4-7.5,5.2-17.602l0.3,0.102c0,0,28,24,70,12.5c0,0,68.5-3,79,6c0,0,17.5-1.5,29.5-3.5c0,0,30-6.5,36.5-1
	L484.811,507.199z"/>
<path fill="#FFFFFF" stroke="#000000" stroke-width="0.5" stroke-miterlimit="10" d="M238.21,498.5c3.3-2.802,7-10.9,11.1-22.4
	c2.2,2.3,10.6,9.9,21.8,8.9c-0.7,2.898-1.5,5.698-2.2,8.398c-2.8,10.102-5.2,17.602-5.2,17.602
	C242.71,512.5,238.21,498.5,238.21,498.5z"/>
<path fill="#FFFFFF" stroke="#000000" stroke-width="0.5" stroke-miterlimit="10" d="M265.11,230.899c0,0,3.2,1.3,25.2-3.2l0.3,0.3
	c-2.3,2.4-3.4,4.5-3.8,6.6c-1.5,8-7.2,13.3-7.2,13.3s-4.8,4.8-7.3,4.8s8.8-13.3,5.5-12.2c-1,0.3-3.4,1.5-6,3.5
	c-3.8,3-7.3,7.9-8.5,10c-2,3.5-10.5,3.5-10,1C255.51,245.1,260.01,237,265.11,230.899L265.11,230.899z"/>
<path fill="none" stroke="#000000" stroke-width="0.5" d="M376.011,72.2c0,0,0.5-2.5,1.698-0.2"/>
<line fill="none" stroke="#000000" stroke-width="0.5" x1="375.811" y1="82.1" x2="378.61" y2="81.5"/>
<path fill="none" stroke="#000000" d="M383.11,55.5c0,0,5.4-1.6,10.7,2.3"/>
<path fill="none" stroke="#000000" stroke-width="0.5" d="M365.21,219c0,0,3.5-3.1,4.102-7.6"/>
<line fill="none" stroke="#000000" stroke-width="0.5" x1="265.91" y1="243" x2="258.41" y2="256"/>
<line fill="none" stroke="#000000" stroke-width="0.5" x1="261.61" y1="242.7" x2="255.61" y2="255.899"/>
<path fill="none" stroke="#000000" stroke-width="0.5" d="M271.21,484.899c2.9-11.7,5.6-24.8,5.6-33.898"/>
<path fill="none" stroke="#000000" stroke-width="0.5" d="M481.91,501.399c-6.398-13.2-11.8-28-11.2-39.898"/>
<path fill="none" stroke="#000000" stroke-width="0.5" d="M416.61,211c0,0-7.8-3.3-7.8-7.5"/>
<path fill="none" stroke="#000000" stroke-width="0.5" d="M408.21,216.5c0,0-10-3.7-10.8-6.3"/>
<path fill="none" stroke="#000000" stroke-width="0.5" d="M396.61,224.5c0,0-3.2-5.8-9-7.8"/>
<path fill="none" stroke="#000000" d="M381.011,57.8c0,0,0,2.7,12.5,3.6"/>
</svg>
