<?xml version="1.0" encoding="utf-8"?>
<!-- Generator: Adobe Illustrator 15.0.0, SVG Export Plug-In . SVG Version: 6.00 Build 0)  -->
<!DOCTYPE svg PUBLIC "-//W3C//DTD SVG 1.1//EN" "http://www.w3.org/Graphics/SVG/1.1/DTD/svg11.dtd">
<svg version="1.1" id="Layer_1" xmlns="http://www.w3.org/2000/svg" xmlns:xlink="http://www.w3.org/1999/xlink" x="0px" y="0px"
	 width="567px" height="822px" viewBox="0 0 567 822" enable-background="new 0 0 567 822" xml:space="preserve">
<title>Coloring</title>
<desc>Vector coloring Image</desc>
<path fill="#FFFFFF" stroke="#000000" stroke-width="0.5" d="M289.8,106.4c-0.8,1.9,0-4.3,0-4.3s-3.5,3-4.1,4.6
	c-0.601,1.6,0-3.9,0-3.9s-4.2,2.6-4.2,4.2s-0.8-2.5-0.8-2.5s-4.9,4.7-5.2,9.3l0,0c-1.4,2-1.9,4.1-1.4,5.1c2.6,5.8,12.8,2.9,15.8-3.9
	c1.8-4.3,2.6-7.9,2.6-7.9l2.1-4.8C294.4,102.6,290.5,104.6,289.8,106.4z M230.3,112.7c7.6,0.8,18.2-1.3,29-6.3
	c2.9-1.3,5.6-2.8,8.1-4.3l-4.9,6.9c0,0,10.3-4.4,13.6-8.9c3.4-4.5-3.2,7.9-3.2,7.9s13.2-10.4,16-15.3
	c2.699-4.9,4.699,14.7,16.699,21.9c0,0,1.801,13.2-1.3,26.1c-1.3,5.3-3.3,10.6-6.6,14.8c-2.7,2.5-3.5,3.4-6.7,6.8
	c-3.9,4.2-14.4,7.5-19.9,5.4c-0.8-0.3-2.6-1.4-7.4-4.2c-1.3-0.7-2.7-1.6-4.4-2.5c-7.5-4.3-25-14.5-23.7-30.1c1.3-15.6-5.4-18-5.4-18
	L230.3,112.7z M238.5,114.9c0,0,1.8,4.8-0.1,2.8c-1.5-1.5-3.8-2.3-3.8-2.3c2,2.4,2.9,5.1,2.9,5.1s13.5,16.6,18,2
	c0.5-1.7,0.4-2.9-0.2-3.6c-1.1-1.9-8.6-5-8.6-5s1.2,4.2,0,2.4c-1.2-1.8-4-2.4-4-2.4s1.5,5.3,0.3,3.3
	C241.6,115.3,238.5,114.9,238.5,114.9z"/>
<path fill="#FFFFFF" stroke="#000000" stroke-width="0.5" d="M292.5,107.2c0,0-0.8,3.6-2.6,7.9c-2.9,6.8-13.101,9.7-15.8,3.9
	c-0.5-1,0-3.1,1.4-5.1l0,0c1.9-2.7,5.7-5.1,11.3-4.1C289,110.1,292.5,107.2,292.5,107.2z"/>
<path fill="#FFFFFF" stroke="#000000" stroke-width="0.5" d="M255.3,118.9c0.6,0.8,0.7,1.9,0.2,3.6c-4.5,14.6-18-2-18-2
	C246.1,118.3,253.3,116.4,255.3,118.9z"/>
<path fill="#FFFFFF" stroke="#000000" stroke-width="0.5" d="M255.3,118.9c-2-2.4-9.2-0.6-17.8,1.6c0,0-0.9-2.7-2.9-5.1
	c0,0,2.3,0.8,3.8,2.3c2,1.9,0.1-2.8,0.1-2.8s3.1,0.4,4.4,2.3c1.2,1.9-0.3-3.3-0.3-3.3s2.9,0.7,4,2.4c1.2,1.8,0-2.4,0-2.4
	S254.2,116.9,255.3,118.9z"/>
<path fill="#FFFFFF" stroke="#000000" stroke-width="0.5" d="M285.7,102.9c0,0-0.601,5.5,0,3.9c0.6-1.6,4.1-4.6,4.1-4.6
	s-0.8,6.1,0,4.3c0.7-1.8,4.7-3.8,4.9-3.9l-2.101,4.8c0,0-3.6,2.9-5.699,2.5c-5.601-1-9.3,1.4-11.3,4.1c0.3-4.6,5.2-9.3,5.2-9.3
	s0.8,4,0.8,2.5C281.5,105.5,285.7,102.9,285.7,102.9z"/>
<path fill="#FFFFFF" stroke="#000000" stroke-width="0.5" d="M255,56.6c-2.3,6.6-6.4,1-6.4,1C242.7,43.8,237.5,45,237.5,45
	c-3.2,3.6-2,18.8-2,18.8s0.5,7.6-5.3,3.3c-5.2-3.8-15.2-6.5-15.8-6.6l0,0c-1.8-2.2-3.8-4.2-6.3-5.9c0,0,14.1,1.4,23.3,9.1
	c0,0-1.8-18.4,4.2-24.7c0,0,11.1,3.3,15.5,14.7c0,0,0.9-16.4,6.4-20.4c0,0,7.1,2,12,17.4c0,0,11.1-16.9,18.2-17.4
	c0.3,0-1.4,2.7-3.3,7l0,0c-5.9,1.5-12.8,14.7-12.8,14.7c-2.5,3.8-4.2-1.1-4.2-1.1c-1.9-11.3-8.9-15.1-8.9-15.1
	C253.3,45.7,255,56.6,255,56.6z"/>
<path fill="#FFFFFF" stroke="#000000" stroke-width="0.5" d="M255,56.6c0,0-1.7-11,3.3-17.8c0,0,7,3.8,8.9,15.1c0,0,1.7,4.9,4.2,1.1
	c0,0,7-13.3,12.8-14.7c-1.9,4.1-4,9.6-5,15.4c-0.1,0.7-0.2,1.3-0.3,2c-1.7,0.1-4.7,1.4-6.2,3.6c-0.3,0.5-3.5,0.5-4.8-0.7
	c-1.3-1.2-6-4.4-9.5-0.4s-10.6,3.2-10.6,3.2c-3.9-1.9-6.9-1.1-9.6,5c-2.9,6.7-9.5,4.2-9.5,4.2c-3.6-1.5-7.6,0.8-7.6,0.8l-0.2,0.1
	c-1.4-4.5-3.5-9.1-6.6-13c0.6,0.2,10.6,2.8,15.8,6.6c5.8,4.2,5.3-3.3,5.3-3.3s-1.2-15.3,2-18.8c0,0,5.2-1.2,11.1,12.7
	C248.6,57.7,252.7,63.2,255,56.6z"/>
<path fill="#FFFFFF" stroke="#000000" stroke-width="0.5" d="M299.8,305.8L286.4,285.5L299.8,271l-33.3-63.7c0,0,29.8,30.1,44-7.1
	c11.8,6,20.8-13.7,22.3-15.5c1-1.2-1.7-8.3,20,15.5c13.7,15.1,37.3,42.6,77.7,91.8c0,0,2.7,6,0,10.3c-0.9,1.4-5.6,4.9-14.2,9
	c-14.1,6.6-38.899,14.7-75.1,17.6c-7.9,0.6-16.3,1-25.3,1.1L299.8,305.8z"/>
<path fill="#FFFFFF" stroke="#000000" stroke-width="0.5" d="M427.3,744.5c0,0,26.2,17.5,0,17.4c-23.3,0-56.3,2.6-80.8-5.7
	c-4.2-1.4-8.5-1.101-16.2-16.9c3-5.2,4.5-11,5.3-16.5C349.4,744.2,391.3,740.2,427.3,744.5z"/>
<path fill="#FFFFFF" stroke="#000000" stroke-width="0.5" d="M370.6,379.7c33.5,84.899,56.7,364.8,56.7,364.8
	c-36-4.3-77.899-0.3-91.8-21.7c1.5-11.399-0.4-21.3-0.4-21.3l-11.699-143l-13.101-145c0.601,0.1,1.2,0.1,1.9,0.1
	c1.2,0,2.399-0.199,3.6-0.5c3.8-1.1,6.8-4,8.2-7.699h0.6c19.101,11.5,22.9-4.5,15.9-10.5c-0.7-0.6-1.3-1.2-1.9-1.9
	C351.1,388.9,361.7,384.4,370.6,379.7z"/>
<path fill="#FFFFFF" stroke="#000000" stroke-width="0.5" d="M370.6,379.7c-8.899,4.7-19.5,9.2-32.1,13.4c-5.4-6.3-7-16.7-5.9-31.1
	c1.101-16-7.899-15.9-7.899-15.9c8.899-8.8,13.8-14.2,16.399-17.2c36.2-2.9,61-11,75.101-17.6C418.3,319.2,423.3,352.2,370.6,379.7z
	"/>
<path fill="#FFFFFF" stroke="#000000" stroke-width="0.5" d="M223.8,94.1c4.6-5.8,12.5-11.7,22.3-16.3c14.3-6.6,28.3-8.2,35.3-4.6
	c-1.1-2.1-1.7-4.2-2.1-6.4c-0.5-3-0.5-6.1-0.2-9.2c0.1-0.7,0.2-1.3,0.3-2c2.3-0.1,41.1-1.3,50.2,46.4c7.301,38.3,20.7,26.4,20,33.9
	c-0.699,7.6-10,34.1,1.7,32.3c11.3-1.7,7.5-7.7,7.3-8c0.7,0.3,25.5,13.4-5.699,39.9l0,0c-21.7-23.9-19-16.8-20-15.5
	c-1.5,1.8-10.5,21.5-22.301,15.5c-0.699-0.4-1.399-0.8-2.1-1.4c-0.7-0.5-1.4-1.1-2-1.8c-1.6-1.6-2.9-3.8-3.8-6.2
	c-0.4-1-0.8-2.2-1-3.3c-1.101-4.2-1.5-9.1-1.4-14.2c0-3.1,0.2-6.3,0.5-9.4c0.9-9.3,2.7-18,3.9-23.2H304.6
	c3-12.9,1.301-26.1,1.301-26.1c-12-7.2-14-26.8-16.7-21.9c-2.8,4.9-16,15.3-16,15.3s6.6-12.4,3.2-7.9s-13.6,8.9-13.6,8.9l4.9-6.9
	c-2.5,1.5-5.2,3-8.1,4.3c-10.8,5-21.5,7.1-29,6.3c-5-0.5-8.7-2.4-10.1-5.5C218.5,103.6,220,98.9,223.8,94.1z"/>
<path fill="#FFFFFF" stroke="#000000" stroke-width="0.5" d="M338.6,393.1c0.601,0.7,1.2,1.3,1.9,1.9c7,6,3.3,22-15.9,10.5H324
	c0.5-1.3,0.8-2.8,0.8-4.3v-16.7v-15.4V352v-6c0,0,9-0.1,7.9,15.9C331.6,376.4,333.1,386.8,338.6,393.1z"/>
<path fill="#FFFFFF" stroke="#000000" stroke-width="0.5" d="M341.2,328.9c-2.601,3-7.5,8.3-16.4,17.2c0-3.4-1.399-6.6-3.7-8.8
	c-2.3-2.3-5.399-3.7-8.899-3.7c-4.101,0-7.8,2-10,5l-2.4-32.8l16,24.2C324.8,329.9,333.3,329.5,341.2,328.9z"/>
<path fill="#FFFFFF" stroke="#000000" stroke-width="0.5" d="M335.5,722.8c-0.7,5.5-2.3,11.3-5.3,16.5
	c-4.601,8.2-12.7,14.9-26.5,16.7H303.6c-22,2-57.2,1.7-77.3-7.1c-35-15.2-106.2,10.5-106.2,10.5c-21.8-8-3.5-21-3.5-21l0.2-1.2
	c13.9-6.4,87.8-38.101,124.1-4.101c15.6,14.601,37.9,9.101,65.3,2.7c0,0,15.7-5.8,13.2-23C317.8,701.4,291.6,403.1,291.6,403.1
	l-0.1-0.6c2.8-0.4,5.5-0.9,8.1-1.5c0,3.5,1.4,6.6,3.7,8.9c1.8,1.899,4.3,3.1,7,3.5l13.101,145l11.699,143
	C335.1,701.5,337.1,711.4,335.5,722.8z"/>
<path fill="#FFFFFF" stroke="#000000" stroke-width="0.5" d="M324.8,384.5v16.7c0,0-17.8-19.1-25-12.4v-16.6
	C309.4,364.8,324.7,384.5,324.8,384.5L324.8,384.5z"/>
<path fill="#FFFFFF" stroke="#000000" stroke-width="0.5" d="M324.8,369.1v15.4h-0.1c0,0-15.3-19.7-24.9-12.3V358h0.3
	C306.7,349,324.8,369.1,324.8,369.1z"/>
<path fill="#FFFFFF" stroke="#000000" stroke-width="0.5" d="M324.8,352v17.1c0,0-18.1-20.1-24.7-11.1h-0.3v-11.9
	c0-1,0.101-1.9,0.3-2.9C312.1,336.4,321.8,347.8,324.8,352z"/>
<path fill="#FFFFFF" stroke="#000000" stroke-width="0.5" d="M302.2,338.6c2.3-3.1,5.899-5,10-5c3.5,0,6.6,1.4,8.899,3.7
	c2.301,2.3,3.7,5.4,3.7,8.8v6c-3-4.2-12.6-15.6-24.7-8.8C300.5,341.5,301.2,340,302.2,338.6z"/>
<path fill="#FFFFFF" stroke="#000000" stroke-width="0.5" d="M324.8,401.2c0,1.5-0.3,3-0.8,4.3c-1.3,3.7-4.4,6.6-8.2,7.7
	c0,0-3.1-15.101-16.1-12v-12.4C307,382.1,324.8,401.2,324.8,401.2z"/>
<path fill="#FFFFFF" stroke="#000000" stroke-width="0.5" d="M213.6,402v0.8c0,3,1.2,5.7,3.2,7.7c0.2,0.2,0.5,0.5,0.8,0.7
	c1.9,1.5,4.3,2.5,6.9,2.5c6,0,10.8-4.9,10.8-10.8c0,0,31.4,3.6,56.4-0.101l0.1,0.601c0,0,26.101,298.3,27.8,309.699
	c2.5,17.2-13.199,23-13.199,23c-27.4,6.4-49.601,12-65.3-2.699c-36.3-34-110.2-2.301-124.1,4.1l61-360.6c6.2,3.6,13.3,7.1,21.1,10.7
	c0.1,7,1.3,12.7,5.7,13.6c5.2,1,7.6-1.4,8.7-3.5v4.3H213.6z"/>
<path fill="#FFFFFF" stroke="#000000" stroke-width="0.5" d="M310.4,413.5c-2.7-0.4-5.101-1.7-7-3.5c-2.301-2.3-3.7-5.4-3.7-8.9
	c12.899-3.1,16.1,12,16.1,12c-1.1,0.301-2.3,0.5-3.6,0.5C311.6,413.7,311,413.6,310.4,413.5z"/>
<path fill="#FFFFFF" stroke="#000000" stroke-width="0.5" d="M308.4,198.8c0.699,0.6,1.399,1,2.1,1.4c-14.3,37.2-44,7.1-44,7.1
	l-1.8-3.5C264.8,203.9,295.1,231.7,308.4,198.8z"/>
<path fill="#FFFFFF" stroke="#000000" stroke-width="0.5" d="M306.4,197c0.699,0.7,1.399,1.3,2,1.8c-13.301,32.8-43.7,5-43.7,5
	l-3.6-6.8c-0.4-3.5-0.6-7-0.4-10.3l0,0c0,0,18.9,21.9,41.8,4.1C303.5,193.3,304.8,195.4,306.4,197z"/>
<path fill="#FFFFFF" stroke="#000000" stroke-width="0.5" d="M304.3,140.8h0.101c-1.2,5.1-3,13.9-3.9,23.2
	c-12.3,20.9-36.1,9.4-36.1,9.4c2.6-6.8,0.4-9-0.8-9.7v-0.1c4.8,2.8,6.6,3.9,7.4,4.2c5.5,2.1,16-1.3,19.9-5.4
	c3.199-3.3,4-4.3,6.699-6.8C301,151.3,303.1,146.1,304.3,140.8z"/>
<path fill="#FFFFFF" stroke="#000000" stroke-width="0.5" d="M299.8,305.8l2.4,32.8c-1,1.4-1.7,2.9-2.101,4.6
	c-0.199,0.9-0.3,1.9-0.3,2.9c-2.8,0.4-7.3,0.6-12.7,0.6v-0.6l-3.5-56.8l-0.3-0.3l3.3-3.5L299.8,305.8z"/>
<path fill="#FFFFFF" stroke="#000000" stroke-width="0.5" d="M301.5,187.5c0.3,1.2,0.6,2.3,1,3.3c-22.9,17.8-41.8-4.1-41.8-4.1l0,0
	c0.1-1.2,0.2-2.3,0.4-3.5C261.2,183.3,281.5,202.8,301.5,187.5z"/>
<path fill="#FFFFFF" stroke="#000000" stroke-width="0.5" d="M300.6,164c-0.3,3.1-0.5,6.3-0.5,9.4l0,0c-21.2,17.3-36.7,2.6-36.7,2.6
	c0.5-1,0.8-1.8,1.2-2.7C264.5,173.3,288.3,184.9,300.6,164z"/>
<path fill="#FFFFFF" stroke="#000000" stroke-width="0.5" d="M300.1,173.4c0,5,0.4,9.9,1.4,14.2c-20,15.3-40.3-4.2-40.3-4.2
	c0.3-1.8,0.7-3.6,1.3-5.2c0.3-0.7,0.5-1.4,0.9-2.1C263.4,176,278.9,190.7,300.1,173.4L300.1,173.4z"/>
<path fill="#FFFFFF" stroke="#000000" stroke-width="0.5" d="M266.6,207.3l33.3,63.7l-13.4,14.5l-3.3,3.5l-12.3,13.3l-3.7-16.7
	l-4.7,16.7l-11.6-11.9l-4.3-4.4l8.7-32l5-4.4l-9.4,34.8l9.4,9.3l7-23.1l5.9,22.7l21.5-22.5l-28.5-51.9c-2.1-6.7-4.1-14.4-5-21.8
	l3.6,6.8L266.6,207.3z"/>
<path fill="#FFFFFF" stroke="#000000" stroke-width="0.5" d="M235.2,388.3v-14.7v-17.3v-11.7c0,0,31.9,2.1,51.8,2.1
	c5.4,0,9.9-0.2,12.7-0.6V358v14.2v16.6v12.4c-2.601,0.6-5.3,1.1-8.101,1.5c-25.1,3.7-56.399,0.1-56.399,0.1v-1.7V388.3L235.2,388.3z
	"/>
<path fill="#FFFFFF" stroke="#000000" stroke-width="0.5" d="M266.2,218.8l28.5,51.9l-21.5,22.5l-5.9-22.7l-7,23.1l-9.4-9.3
	l9.4-34.8l13.2-11.6C273.5,238,269.7,229.7,266.2,218.8z"/>
<path fill="#FFFFFF" stroke="#000000" stroke-width="0.5" d="M287,346.1v0.6c-19.9,0.1-51.8-2.1-51.8-2.1c0-1.6-0.4-3.2-1-4.6
	c-0.5-1.2-1.3-2.2-2.2-3.1c-2-2-4.7-3.2-7.7-3.2c-6,0-10.8,4.9-10.8,10.8L196.2,330l0.1-1c8.4,1.3,17.4,1.7,26.8,1l27.8-39.6
	l11.6,11.9l4.7-16.7l3.7,16.7l12.3-13.3l0.3,0.3L287,346.1z"/>
<path fill="#FFFFFF" stroke="#000000" stroke-width="0.5" d="M279.2,66.9c0.4,2.2,1.1,4.4,2.1,6.4c-7-3.6-21-2-35.3,4.6
	c-9.8,4.5-17.8,10.5-22.3,16.3c0-0.4,0.2-4.9-0.6-11C223.1,83.2,252.6,54.7,279.2,66.9z"/>
<path fill="#FFFFFF" stroke="#000000" stroke-width="0.5" d="M279.1,57.7c-0.4,3-0.4,6.1,0.2,9.2c-26.6-12.1-56.1,16.3-56.1,16.3
	c-0.3-2.1-0.7-4.4-1.3-6.8c-0.2-0.9-0.5-1.9-0.8-2.9l0.2-0.1c0,0,4-2.4,7.6-0.8c0,0,6.6,2.5,9.5-4.2c2.7-6.1,5.8-6.9,9.6-5
	c0,0,7.1,0.8,10.6-3.2s8.2-0.8,9.5,0.4c1.3,1.2,4.5,1.1,4.8,0.7C274.4,59.1,277.3,57.8,279.1,57.7z"/>
<path fill="#FFFFFF" stroke="#000000" stroke-width="0.5" d="M273.5,238l-13.2,11.6l-5,4.4l-6,5.3l-2.7,2.4l-1.7-14l-3.8,17
	l-16-31.3c0,0,1.7-9,12.3-44c0.7-2.2,1.4-4.2,2-6c2.6-7,5.4-11.7,8.1-14.9c-7.5,24.5-15.2,59-15.2,59l8.5,22.3l4.6-16.6l3.9,16
	l1.6-1.5l15.4-16.8c0,0-16.9-40.5-3.8-52.6c-0.6,1.6-1,3.4-1.3,5.2c-0.2,1.1-0.3,2.3-0.4,3.5c-0.2,3.3-0.1,6.8,0.4,10.3
	c0.8,7.4,2.8,15.1,5,21.8C269.7,229.7,273.5,238,273.5,238z"/>
<path fill="#FFFFFF" stroke="#000000" stroke-width="0.5" d="M266.3,230.6l-15.4,16.8l-1.6,1.5l-3.9-16l-4.6,16.6l-8.5-22.3
	c0,0,7.8-34.5,15.2-59l0,0c8.1-9.5,15.5-5,15.5-5s0.3,0.1,0.6,0.3c1.2,0.6,3.4,2.9,0.8,9.7c-0.3,0.8-0.7,1.7-1.2,2.7
	c-0.3,0.7-0.6,1.4-0.9,2.1C249.4,190.2,266.3,230.6,266.3,230.6z"/>
<path fill="#FFFFFF" stroke="#000000" stroke-width="0.5" d="M263.8,163.6L263.8,163.6c-0.4-0.1-0.6-0.2-0.6-0.2s-7.4-4.5-15.5,5
	l0,0c-2.7,3.2-5.5,7.9-8.1,14.9c0,0-12.3-6.6-33.2,12.6c-6.1-0.5-15.9-16.9-5.9-10.5c10,6.3,22.3-6.7,22.3-15.1
	c0-8.4-11.9-11.1-19-29.6c-16.3-42.3,18-64.2,18-64.2l0,0c0.6,2.4,1,4.6,1.3,6.8c0.8,6.1,0.7,10.6,0.6,11c-3.8,4.8-5.3,9.5-3.6,13
	c1.5,3.1,5.1,5,10.1,5.5v0.2c0,0,6.6,2.4,5.4,18c-1.2,15.6,16.2,25.9,23.7,30.1C261,162,262.5,162.8,263.8,163.6z"/>
<path fill="#FFFFFF" stroke="#000000" stroke-width="0.5" d="M255.3,254l-8.7,32l4.3,4.4L223.1,330c-9.4,0.8-18.4,0.4-26.8-1
	c-27.7-4.2-49.8-17.6-62.3-26.7c-6.2-4.5-10-7.9-10.9-8.7c-3.3-2.7-1.7-6-1.7-6c27.7-46.7,44-42.7,72.3-78.2
	c4.5-5.6,8.6-10.1,12.5-13.6c20.8-19.2,33.2-12.6,33.2-12.6c-0.7,1.9-1.4,3.9-2,6c-10.7,35-12.3,44-12.3,44l16,31.3l3.8-17l1.7,14
	l2.7-2.4L255.3,254z"/>
<path fill="#FFFFFF" stroke="#000000" stroke-width="0.5" d="M235.2,401.2v1.7c0,6-4.9,10.8-10.8,10.8c-2.6,0-5-0.9-6.9-2.5l0.4-0.2
	C217.9,411,226.4,398.4,235.2,401.2z"/>
<path fill="#FFFFFF" stroke="#000000" stroke-width="0.5" d="M235.2,388.3v12.9c-8.8-2.8-17.3,9.8-17.3,9.8l-0.4,0.2
	c-0.3-0.2-0.5-0.5-0.8-0.7c-2-2-3.2-4.7-3.2-7.7V402C217,397.9,228.2,385.6,235.2,388.3z"/>
<path fill="#FFFFFF" stroke="#000000" stroke-width="0.5" d="M213.6,397.7v-13.2c0.7-0.8,14.1-18.1,21.7-10.9v14.7
	c-7.1-2.7-18.2,9.601-21.7,13.7V397.7z"/>
<path fill="#FFFFFF" stroke="#000000" stroke-width="0.5" d="M235.2,356.4v17.3c-7.6-7.2-21,10-21.7,10.9v-15
	C217.4,365.7,230.2,353.6,235.2,356.4z"/>
<path fill="#FFFFFF" stroke="#000000" stroke-width="0.5" d="M235.2,344.6v11.7c-5.1-2.8-17.9,9.3-21.7,13.1v-16
	c0.4-0.9,8.3-16.2,20.7-13.4l0,0C234.9,341.5,235.2,343,235.2,344.6z"/>
<path fill="#FFFFFF" stroke="#000000" stroke-width="0.5" d="M234.2,340.1L234.2,340.1c-12.4-2.8-20.2,12.5-20.7,13.4v-8.8
	c0-6,4.9-10.8,10.8-10.8c3,0,5.7,1.2,7.7,3.2C233,337.9,233.7,338.9,234.2,340.1z"/>
<path fill="#FFFFFF" stroke="#000000" stroke-width="0.5" d="M213.6,353.5v16v15v13.2c-1.1,2.1-3.5,4.5-8.7,3.5
	c-4.4-0.9-5.7-6.6-5.7-13.6c0-6.7,1-14.4,1.3-20c1.4-23,13.1-23,13.1-23V353.5L213.6,353.5z"/>
<path fill="#FFFFFF" stroke="#000000" stroke-width="0.5" d="M178,376.9c-65.6-37.6-44-74.6-44-74.6c12.4,9.1,34.6,22.5,62.3,26.7
	l-0.1,1l17.4,14.6c0,0-11.7,0-13.1,23c-0.3,5.6-1.4,13.3-1.3,20C191.3,384,184.3,380.5,178,376.9z"/>
<ellipse fill="#FFFFFF" stroke="#000000" stroke-width="0.25" cx="250.6" cy="121.5" rx="0.7" ry="1.6"/>
<ellipse fill="#FFFFFF" stroke="#000000" stroke-width="0.25" cx="283.3" cy="114.4" rx="0.9" ry="1.5"/>
<ellipse fill="#FFFFFF" stroke="#000000" stroke-width="0.25" cx="240.9" cy="55.7" rx="3.4" ry="3.3"/>
<ellipse fill="#FFFFFF" stroke="#000000" stroke-width="0.25" cx="260.6" cy="50.3" rx="3.4" ry="3.3"/>
<polygon fill="#FFFFFF" stroke="#000000" stroke-width="0.25" points="262.1,370.7 255.1,369.3 250,374.4 249.1,367.1 242.7,363.7 
	249.2,360.7 250.3,353.5 255.2,358.8 262.2,357.8 258.9,364.1 "/>
<polygon fill="#FFFFFF" stroke="#000000" stroke-width="0.25" points="285.1,388.8 277.2,387 271.1,392.5 270.4,384.3 263.3,380.3 
	270.8,377.1 272.5,369.1 277.8,375.3 285.9,374.3 281.7,381.4 "/>
<path fill="#FFFFFF" stroke="#000000" stroke-width="0.25" d="M224.4,194.7c0,0-11.3,4.1-10.8,16.1c0,0,1.4,4.3,4.9,1.3
	S224.4,194.7,224.4,194.7z"/>
<path fill="#FFFFFF" stroke="#000000" stroke-width="0.25" d="M204.8,210.6c0,0-11.3,4.1-10.8,16.1c0,0,1.4,4.3,4.9,1.3
	S204.8,210.6,204.8,210.6z"/>
<path fill="#FFFFFF" stroke="#000000" stroke-width="0.25" d="M196.7,245.6c0,0-11.3,4.1-10.8,16.1c0,0,1.4,4.3,4.9,1.3
	S196.7,245.6,196.7,245.6z"/>
<path fill="#FFFFFF" stroke="#000000" stroke-width="0.25" d="M177.1,261.5c0,0-11.3,4.1-10.8,16.1c0,0,1.4,4.3,4.9,1.3
	S177.1,261.5,177.1,261.5z"/>
<path fill="#FFFFFF" stroke="#000000" stroke-width="0.25" d="M177.1,239.1c0,0-11.3,4.1-10.8,16.1c0,0,1.4,4.3,4.9,1.3
	S177.1,239.1,177.1,239.1z"/>
<path fill="#FFFFFF" stroke="#000000" stroke-width="0.25" d="M157.5,254.9c0,0-11.3,4.1-10.8,16.1c0,0,1.4,4.3,4.9,1.3
	S157.5,254.9,157.5,254.9z"/>
<path fill="#FFFFFF" stroke="#000000" stroke-width="0.25" d="M187.9,275.2c0,0-11.3,4.1-10.8,16.1c0,0,1.4,4.3,4.9,1.3
	S187.9,275.2,187.9,275.2z"/>
<path fill="#FFFFFF" stroke="#000000" stroke-width="0.25" d="M168.3,291c0,0-11.3,4.1-10.8,16.1c0,0,1.4,4.3,4.9,1.3
	S168.3,291,168.3,291z"/>
<path fill="#FFFFFF" stroke="#000000" stroke-width="0.25" d="M228.8,247.5c0,0-11.3,4.1-10.8,16.1c0,0,1.4,4.3,4.9,1.3
	S228.8,247.5,228.8,247.5z"/>
<path fill="#FFFFFF" stroke="#000000" stroke-width="0.25" d="M209.2,263.3c0,0-11.3,4.1-10.8,16.1c0,0,1.4,4.3,4.9,1.3
	S209.2,263.3,209.2,263.3z"/>
<path fill="#FFFFFF" stroke="#000000" stroke-width="0.25" d="M208.2,282.7c0,0-10.2,6.3-7.4,18c0,0,2.2,4,5.1,0.3
	C208.7,297.4,208.2,282.7,208.2,282.7z"/>
<path fill="#FFFFFF" stroke="#000000" stroke-width="0.25" d="M181,299.6c0,0-10.2,6.3-7.4,18c0,0,2.2,4,5.1,0.3
	C181.6,314.3,181,299.6,181,299.6z"/>
<path fill="#FFFFFF" stroke="#000000" stroke-width="0.25" d="M155.4,282.1c0,0-11.3,4-11,16c0,0,1.4,4.4,4.9,1.4
	C152.9,296.5,155.4,282.1,155.4,282.1z"/>
<path fill="#FFFFFF" stroke="#000000" stroke-width="0.25" d="M138.6,274.6c0,0-10.2,6.3-7.4,18c0,0,2.2,4,5.1,0.3
	C139.1,289.2,138.6,274.6,138.6,274.6z"/>
<path fill="#FFFFFF" stroke="#000000" stroke-width="0.25" d="M190,229.2c0,0-10.2,6.3-7.4,18c0,0,2.2,4,5.1,0.3
	C190.5,243.9,190,229.2,190,229.2z"/>
<path fill="#FFFFFF" stroke="#000000" stroke-width="0.25" d="M208.8,223.1c0,0-10.2,6.3-7.4,18c0,0,2.2,4,5.1,0.3
	C209.3,237.8,208.8,223.1,208.8,223.1z"/>
<path fill="#FFFFFF" stroke="#000000" stroke-width="0.25" d="M222.2,219.3c0,0-10.2,6.3-7.4,18c0,0,2.2,4,5.1,0.3
	C222.7,233.9,222.2,219.3,222.2,219.3z"/>
<path fill="#FFFFFF" stroke="#000000" stroke-width="0.25" d="M214,242.9c0,0-11.5,3.6-11.6,15.6c0,0,1.2,4.4,4.9,1.6
	C210.9,257.3,214,242.9,214,242.9z"/>
<path fill="#FFFFFF" stroke="#000000" stroke-width="0.25" d="M195.2,289.7c0,0-10.2,6.3-7.4,18c0,0,2.2,4,5.1,0.3
	C195.7,304.4,195.2,289.7,195.2,289.7z"/>
<path fill="#FFFFFF" stroke="#000000" stroke-width="0.25" d="M202.3,305.9c0,0-10.2,6.3-7.4,18c0,0,2.2,4,5.1,0.3
	C202.8,320.5,202.3,305.9,202.3,305.9z"/>
<path fill="#FFFFFF" stroke="#000000" stroke-width="0.25" d="M221.9,270.1c0,0-10.2,6.3-7.4,18c0,0,2.2,4,5.1,0.3
	C222.4,284.7,221.9,270.1,221.9,270.1z"/>
<path fill="#FFFFFF" stroke="#000000" stroke-width="0.25" d="M234.2,262.7c0,0-10.2,6.3-7.4,18c0,0,2.2,4,5.1,0.3
	C234.7,277.3,234.2,262.7,234.2,262.7z"/>
<path fill="#FFFFFF" stroke="#000000" stroke-width="0.25" d="M217.9,302.6c0,0-10.2,6.3-7.4,18c0,0,2.2,4,5.1,0.3
	C218.4,317.2,217.9,302.6,217.9,302.6z"/>
<path fill="#FFFFFF" stroke="#000000" stroke-width="0.25" d="M227,285.5c0,0-7.9,9-1.8,19.4c0,0,3.3,3.1,5-1.2
	C231.9,299.3,227,285.5,227,285.5z"/>
<path fill="#FFFFFF" stroke="#000000" stroke-width="0.25" d="M241.2,274.2c0,0-7.9,9-1.8,19.4c0,0,3.3,3.1,5-1.2
	C246,288.1,241.2,274.2,241.2,274.2z"/>
<path fill="#FFFFFF" stroke="#000000" stroke-width="0.25" d="M286.6,223.1c0,0-5.1,10.9,3.7,19.1c0,0,4.101,2.1,4.4-2.5
	C295.1,235.1,286.6,223.1,286.6,223.1z"/>
<path fill="#FFFFFF" stroke="#000000" stroke-width="0.25" d="M301.8,243.2c0,0-7.899,9-1.8,19.4c0,0,3.3,3.1,5-1.2
	C306.7,257.1,301.8,243.2,301.8,243.2z"/>
<path fill="#FFFFFF" stroke="#000000" stroke-width="0.25" d="M297.8,279.5c0,0-5,10.9,3.8,19.1c0,0,4.101,2.1,4.4-2.5
	C306.4,291.4,297.8,279.5,297.8,279.5z"/>
<path fill="#FFFFFF" stroke="#000000" stroke-width="0.25" d="M306.7,266c0,0-7.9,9-1.8,19.4c0,0,3.3,3.1,5-1.2
	C311.5,279.8,306.7,266,306.7,266z"/>
<path fill="#FFFFFF" stroke="#000000" stroke-width="0.25" d="M312.5,299.3c0,0-7.9,9-1.8,19.4c0,0,3.3,3.1,5-1.2
	S312.5,299.3,312.5,299.3z"/>
<path fill="#FFFFFF" stroke="#000000" stroke-width="0.25" d="M320.8,306.1c0,0-4.6,11.1,4.5,18.9c0,0,4.101,1.9,4.3-2.7
	C329.8,317.7,320.8,306.1,320.8,306.1z"/>
<path fill="#FFFFFF" stroke="#000000" stroke-width="0.25" d="M319.9,281.1c0,0-7.9,9-1.801,19.4c0,0,3.301,3.1,5-1.2
	C324.8,294.9,319.9,281.1,319.9,281.1z"/>
<path fill="#FFFFFF" stroke="#000000" stroke-width="0.25" d="M316.4,255.8c0,0-7.9,9-1.801,19.4c0,0,3.301,3.1,5-1.2
	C321.2,269.6,316.4,255.8,316.4,255.8z"/>
<path fill="#FFFFFF" stroke="#000000" stroke-width="0.25" d="M306.7,219c0,0-7.9,9-1.8,19.4c0,0,3.3,3.1,5-1.2
	C311.5,232.8,306.7,219,306.7,219z"/>
<path fill="#FFFFFF" stroke="#000000" stroke-width="0.25" d="M313.2,204.9c0,0-1.601,11.9,9.3,17.1c0,0,4.5,0.8,3.5-3.8
	C324.9,213.8,313.2,204.9,313.2,204.9z"/>
<path fill="#FFFFFF" stroke="#000000" stroke-width="0.25" d="M320.2,229.2c0,0-7.9,9-1.8,19.4c0,0,3.3,3.1,5-1.2
	C325,243,320.2,229.2,320.2,229.2z"/>
<path fill="#FFFFFF" stroke="#000000" stroke-width="0.25" d="M326.4,252.4c0,0-7.9,9-1.801,19.4c0,0,3.301,3.1,5-1.2
	C331.3,266.3,326.4,252.4,326.4,252.4z"/>
<path fill="#FFFFFF" stroke="#000000" stroke-width="0.25" d="M332.2,276.2c0,0-7.9,9-1.8,19.4c0,0,3.3,3.1,5-1.2
	C337,290.1,332.2,276.2,332.2,276.2z"/>
<path fill="#FFFFFF" stroke="#000000" stroke-width="0.25" d="M336.4,302.2c0,0-7.9,9-1.801,19.4c0,0,3.301,3.1,5-1.2
	C341.3,316.1,336.4,302.2,336.4,302.2z"/>
<path fill="#FFFFFF" stroke="#000000" stroke-width="0.25" d="M326.7,223.1c0,0-5.2,10.8,3.5,19.1c0,0,4,2.1,4.5-2.5
	C335.1,235.1,326.7,223.1,326.7,223.1z"/>
<path fill="#FFFFFF" stroke="#000000" stroke-width="0.25" d="M332.9,246.9c0,0-5.2,10.8,3.5,19.1c0,0,4,2.1,4.5-2.5
	C341.3,259,332.9,246.9,332.9,246.9z"/>
<path fill="#FFFFFF" stroke="#000000" stroke-width="0.25" d="M325.9,201.2c0,0,11.5,3.3,11.899,15.3c0,0-1.1,4.4-4.8,1.7
	C329.3,215.5,325.9,201.2,325.9,201.2z"/>
<path fill="#FFFFFF" stroke="#000000" stroke-width="0.25" d="M337.8,195.1c0,0,11.5,3.3,11.9,15.3c0,0-1.101,4.4-4.8,1.7
	C341.2,209.3,337.8,195.1,337.8,195.1z"/>
<path fill="#FFFFFF" stroke="#000000" stroke-width="0.25" d="M334.9,224c0,0,11.5,3.3,11.899,15.3c0,0-1.1,4.4-4.8,1.7
	C338.3,238.2,334.9,224,334.9,224z"/>
<path fill="#FFFFFF" stroke="#000000" stroke-width="0.25" d="M346.9,218.8c0,0,11.5,3.3,11.899,15.3c0,0-1.1,4.4-4.8,1.7
	C350.3,233.1,346.9,218.8,346.9,218.8z"/>
<path fill="#FFFFFF" stroke="#000000" stroke-width="0.25" d="M356.6,210.9c0,0,11.5,3.3,11.9,15.3c0,0-1.1,4.4-4.8,1.7
	C359.9,225.1,356.6,210.9,356.6,210.9z"/>
<path fill="#FFFFFF" stroke="#000000" stroke-width="0.25" d="M343.8,246.8c0,0,11.5,3.3,11.9,15.3c0,0-1.101,4.4-4.8,1.7
	C347.2,261.1,343.8,246.8,343.8,246.8z"/>
<path fill="#FFFFFF" stroke="#000000" stroke-width="0.25" d="M350.6,239.4c0,0,11.5,3.3,11.9,15.3c0,0-1.1,4.4-4.8,1.7
	C354,253.7,350.6,239.4,350.6,239.4z"/>
<path fill="#FFFFFF" stroke="#000000" stroke-width="0.25" d="M362.5,230.2c0,0,11.5,3.3,11.9,15.3c0,0-1.101,4.4-4.801,1.7
	C365.9,244.4,362.5,230.2,362.5,230.2z"/>
<path fill="#FFFFFF" stroke="#000000" stroke-width="0.25" d="M337.8,270.6c0,0,11.5,3.3,11.9,15.3c0,0-1.101,4.4-4.8,1.7
	C341.2,284.8,337.8,270.6,337.8,270.6z"/>
<path fill="#FFFFFF" stroke="#000000" stroke-width="0.25" d="M349.7,266.2c0,0,11.5,3.3,11.899,15.3c0,0-1.1,4.4-4.8,1.7
	C353.1,280.5,349.7,266.2,349.7,266.2z"/>
<path fill="#FFFFFF" stroke="#000000" stroke-width="0.25" d="M340.9,293.3c0,0,11.5,3.3,11.899,15.3c0,0-1.1,4.4-4.8,1.7
	C344.3,307.5,340.9,293.3,340.9,293.3z"/>
<path fill="#FFFFFF" stroke="#000000" stroke-width="0.25" d="M355.7,287.7c0,0,11.5,3.3,11.899,15.3c0,0-1.1,4.4-4.8,1.7
	C359.1,302,355.7,287.7,355.7,287.7z"/>
<path fill="#FFFFFF" stroke="#000000" stroke-width="0.25" d="M361.7,261.1c0,0,11.5,3.3,11.899,15.3c0,0-1.1,4.4-4.8,1.7
	C365.1,275.4,361.7,261.1,361.7,261.1z"/>
<path fill="#FFFFFF" stroke="#000000" stroke-width="0.25" d="M370.8,254.4c0,0,11.5,3.3,11.9,15.3c0,0-1.101,4.4-4.8,1.7
	C374.2,268.6,370.8,254.4,370.8,254.4z"/>
<path fill="#FFFFFF" stroke="#000000" stroke-width="0.25" d="M376.8,236.7c0,0,11.5,3.3,11.9,15.3c0,0-1.101,4.4-4.8,1.7
	C380.2,251,376.8,236.7,376.8,236.7z"/>
<path fill="#FFFFFF" stroke="#000000" stroke-width="0.25" d="M385.4,263.3c0,0,11.5,3.3,11.899,15.3c0,0-1.1,4.4-4.8,1.7
	C388.8,277.6,385.4,263.3,385.4,263.3z"/>
<path fill="#FFFFFF" stroke="#000000" stroke-width="0.25" d="M397.3,261.6c0,0,11.5,3.3,11.9,15.3c0,0-1.101,4.4-4.8,1.7
	C400.7,275.9,397.3,261.6,397.3,261.6z"/>
<path fill="#FFFFFF" stroke="#000000" stroke-width="0.25" d="M376.8,275.5c0,0,11.5,3.3,11.9,15.3c0,0-1.101,4.4-4.8,1.7
	C380.2,289.8,376.8,275.5,376.8,275.5z"/>
<path fill="#FFFFFF" stroke="#000000" stroke-width="0.25" d="M368.5,287.7c0,0,11.5,3.3,11.9,15.3c0,0-1.101,4.4-4.801,1.7
	C371.9,302,368.5,287.7,368.5,287.7z"/>
<path fill="#FFFFFF" stroke="#000000" stroke-width="0.25" d="M356.6,306.8c0,0,11.5,3.3,11.9,15.3c0,0-1.1,4.4-4.8,1.7
	C359.9,321.1,356.6,306.8,356.6,306.8z"/>
<path fill="#FFFFFF" stroke="#000000" stroke-width="0.25" d="M341,310.5c0,0,9.9,5.3,11.9,12.2c0,0-2.2,4.8-6,2
	C343.2,322,341,310.5,341,310.5z"/>
<path fill="#FFFFFF" stroke="#000000" stroke-width="0.25" d="M391.4,286.7c0,0,11.5,3.3,11.899,15.3c0,0-1.1,4.4-4.8,1.7
	C395.5,301.6,392.6,291.8,391.4,286.7z"/>
<path fill="#FFFFFF" stroke="#000000" stroke-width="0.25" d="M371.2,304.6c0,0,8.899,3.2,9.3,14.4c0,0-0.8,4.1-3.7,1.5
	C373.9,317.9,371.2,304.6,371.2,304.6z"/>
<path fill="#FFFFFF" stroke="#000000" stroke-width="0.25" d="M382.8,297.9c0,0,11.5,3.3,11.9,15.3c0,0-1.101,4.4-4.8,1.7
	C386.1,312.1,382.8,297.9,382.8,297.9z"/>
<path fill="#FFFFFF" stroke="#000000" stroke-width="0.25" d="M411.5,281c0,0,11.5,3.3,11.9,15.3c0,0-1.101,4.4-4.801,1.7
	C414.9,295.2,411.5,281,411.5,281z"/>
<path fill="#FFFFFF" stroke="#000000" stroke-width="0.25" d="M405.5,289.9c0,0,11.5,3.3,11.9,15.3c0,0-1.101,4.4-4.801,1.7
	C408.9,304.2,405.5,289.9,405.5,289.9z"/>
<ellipse fill="#FFFFFF" stroke="#000000" stroke-width="0.25" cx="269.5" cy="320.9" rx="8.8" ry="8.8"/>
<ellipse fill="#FFFFFF" stroke="#000000" stroke-width="0.25" cx="275.1" cy="429" rx="8.8" ry="9.4"/>
<ellipse fill="#FFFFFF" stroke="#000000" stroke-width="0.25" cx="281.7" cy="505" rx="8.899" ry="9.8"/>
<path fill="#FFFFFF" stroke="#000000" stroke-width="0.25" d="M281.8,45.7c-1.9,0-3.4,1.5-3.4,3.3c0,1.3,0.7,2.3,1.8,2.9
	c0.5-2.2,1.2-4.3,1.9-6.2C282,45.7,281.9,45.7,281.8,45.7z"/>
<path fill="#FFFFFF" stroke="#000000" stroke-width="0.25" d="M221.2,67.2c0-1.8-1.5-3.3-3.4-3.3c-0.3,0-0.7,0.1-1,0.2
	c1.1,1.9,2.1,3.9,2.9,5.9C220.6,69.3,221.2,68.3,221.2,67.2z"/>
<path fill="#FFFFFF" stroke="#000000" stroke-width="0.25" d="M237.5,120.5c0,0,13.5,16.6,18,2C257.7,115.3,248.8,117.5,237.5,120.5
	z"/>
<path fill="#FFFFFF" stroke="#000000" stroke-width="0.25" d="M274.2,119c-1.1-2.4,3-11,12.7-9.3c2.1,0.4,5.699-2.5,5.699-2.5
	s-0.8,3.6-2.6,7.9C287,121.9,276.8,124.8,274.2,119z"/>
<ellipse fill="#FFFFFF" stroke="#000000" stroke-width="0.25" cx="249.8" cy="123.1" rx="3.6" ry="3.5"/>
<ellipse transform="matrix(-0.9584 -0.2854 0.2854 -0.9584 519.3484 308.0656)" fill="#FFFFFF" stroke="#000000" stroke-width="0.25" cx="282.12" cy="116.193" rx="3.7" ry="4.1"/>
<ellipse fill="#FFFFFF" cx="282.2" cy="116.3" rx="2" ry="1.9"/>
<ellipse fill="#FFFFFF" cx="250" cy="123.4" rx="2.1" ry="1.8"/>
<path fill="#FFFFFF" stroke="#000000" stroke-width="0.25" d="M262.1,148.1c0,0,4.2-0.8,5.5-2c1.1-0.9,2.1-1.3,4.3-1.2
	c0.9,0,2.2-0.4,2.5-0.9c0.6-0.9,2.8-1.3,4.9-1c3.6,0.6,5.2-1.5,7.101-1.7c0.5-0.1-1.301,9.8-10.3,11.3
	C267.1,154.2,262.1,148.1,262.1,148.1z"/>
<path fill="#FFFFFF" d="M266.1,148.7c4.1-0.3,11.4-1.7,15.7-3.7c3.4-1.6,0.8,3.3-4.9,4.8C268.5,152.1,265.2,148.7,266.1,148.7z"/>
<path fill="none" stroke="#000000" stroke-width="0.25" d="M262.5,124.8c0,0,1.8,8-0.4,11.2c-2.2,3.2,5.5,4.9,5.8,1.8"/>
<path fill="#FFFFFF" stroke="#000000" stroke-width="0.25" d="M277,159.8c0,0,4.4,0.9,6.3-3.1"/>
<path fill="none" stroke="#000000" stroke-width="0.5" d="M305.6,114.7c0,0,3.4-8.2-4.1-17.7"/>
<path fill="#FFFFFF" stroke="#000000" stroke-width="0.5" d="M334.2,182.7c0,0,0.8-6.8-4.7-18.8"/>
</svg>
