<?xml version="1.0" encoding="utf-8"?>
<!-- Generator: Adobe Illustrator 15.0.0, SVG Export Plug-In . SVG Version: 6.00 Build 0)  -->
<!DOCTYPE svg PUBLIC "-//W3C//DTD SVG 1.1//EN" "http://www.w3.org/Graphics/SVG/1.1/DTD/svg11.dtd">
<svg version="1.1" id="layer_x5F_www.ABC-color.com"
	 xmlns="http://www.w3.org/2000/svg" xmlns:xlink="http://www.w3.org/1999/xlink" x="0px" y="0px" width="567px" height="822px"
	 viewBox="0 0 567 822" enable-background="new 0 0 567 822" xml:space="preserve">
<polyline fill="#FFFFFF" points="0,822 0,0 567,0 567,822 "/>
<path fill="#FFFFFF" stroke="#000000" stroke-miterlimit="10" d="M337,411.4c3.7,10.1,7.5,22.1,7,26.1c0,0-6.5,3-16-11
	C328,426.5,337.5,421.8,337,411.4z"/>
<path fill="#FFFFFF" stroke="#000000" stroke-miterlimit="10" d="M488.2,749.2c1.7-0.602,6.2-1.8,11.3-0.2c18.5,6,12,18.5,12,18.5
	c-16.5,13.5-34,5-34,5C462.5,757,449,754,449,754c-31.5,5.5-43-1-43-1l-0.2,0.1c-3.8-9.198,1.7-26.1,1.7-26.1s1.5-4.5,6-1.5
	c0,0,13.8,7.9,22.6,6.3l2.602,0.2l0,0l0,0c0.7,0.6,19.3,14.6,19.3,14.6c23,18.5,29.5,3,29.5,3S487.8,749.4,488.2,749.2z"/>
<path fill="#FFFFFF" stroke="#000000" stroke-miterlimit="10" d="M442,759c-19.7,4-33.5-2-33.5-2c-1.2-1-2.1-2.3-2.7-3.9l0.2-0.1
	c0,0,11.5,6.5,43,1c0,0,13.5,3,28.5,18.5c0,0,17.5,8.5,34-5c-5.5,16-37.5,9.5-37.5,9.5c-20-22.5-29.5-18.5-29.5-18.5
	C443.7,758.7,442.8,758.9,442,759z"/>
<path fill="#FFFFFF" stroke="#000000" stroke-miterlimit="10" d="M482,739.5c0,0,8.4,3.6,6.2,9.7c-0.5,0.2-0.7,0.3-0.7,0.3
	s-6.5,15.5-29.5-3c0,0-18.6-14-19.3-14.6c0.1,0,0.3,0.198,0.8,0.6c0,0,43-14,34.5,0C474,732.5,485,727.5,482,739.5z"/>
<path id="ABC-color.com" fill="#FFFFFF" stroke="#000000" stroke-miterlimit="10" d="M442,759c2,5.5,1.5,13.5,1.5,13.5
	c-4.5,4-31,2.5-31,2.5c-9,0-4-18-4-18S422.3,763,442,759z"/>
<path fill="#FFFFFF" stroke="#000000" stroke-miterlimit="10" d="M428,620l10.5,111c-0.7,0.3-1.5,0.6-2.4,0.8
	c-8.898,1.7-22.6-6.3-22.6-6.3c2-15-6-38.5-6-38.5c-29-24-26-55.5-26-55.5v-0.9c1.1,0.302,2.4,0.4,4,0.4
	C385.5,631,407.5,635,428,620z"/>
<path fill="#FFFFFF" stroke="#000000" stroke-miterlimit="10" d="M375.9,323.9c-1.2,5.2-0.4,12.4,12.6,13.6c0,0,14.3-0.1,26.5,1.2
	c9.3,1,17.5,2.8,17.3,6l-1.8,4c0,0,12.8,4.3,2,9.3c0,0,2,7-7.5,10c0,0,2,8-17,9.5l-30.3,1.3H377.6c-0.5-3.8-3.1-3.3-3.1-3.3
	c2.5-5-5-12-5-12c4.5-5.5-6.5-12-6.5-12c1.8-5.7-3.3-8.6-6.4-9.8c0.802-1.6,4.4-9.3,8.7-17.4c4.5-8.4,9.8-17.2,13.602-20.3
	c0,0,10-0.5-1,14.5C378,318.5,376.6,320.8,375.9,323.9z"/>
<path fill="#FFFFFF" stroke="#000000" stroke-miterlimit="10" d="M427.9,602c-14.9,23.8-43.4,18-51.602,15.7l0,0
	c-1.5-0.4-2.3-0.7-2.3-0.7c-4.5-1-7-32-7-32c-19.1-0.8-35.5,0.9-48,3.2c-17,3.1-27,7.3-27,7.3c-13,6-23.4,8.9-31.6,9.7
	c-2.7,0.3-5.1,0.3-7.4,0.2c-23.4-1.302-24-17.9-24-17.9l-0.1-1.3c81.5-4.9,80.3-57.102,76.4-78.602l0.7-0.1l77.5-1.5
	c31.5-3,30.5,15.5,30.5,15.5c2,2.5,5.5,34,5.5,34c18,32,12,39.5,12,39.5C430.4,597.6,429.2,599.9,427.9,602z"/>
<path fill="#FFFFFF" stroke="#000000" stroke-miterlimit="10" d="M427.9,602c6.398,8.9,0.1,18,0.1,18c-20.5,15-42.5,11-42.5,11
	c-1.5,0-2.9-0.2-4-0.4c-8-2-6-10.398-5.3-12.898C384.5,620,413,625.8,427.9,602z"/>
<path fill="#FFFFFF" stroke="#000000" stroke-miterlimit="10" d="M413.5,329.5c0,0,15.5,4.5,1.5,9v0.2c-12.2-1.3-26.5-1.2-26.5-1.2
	c-12.9-1.3-13.7-8.5-12.6-13.6c4.898-0.7,27.198-3.6,36.6-1.9C412.5,322,420.5,328.5,413.5,329.5z"/>
<path fill="#FFFFFF" stroke="#000000" stroke-miterlimit="10" d="M356.6,341.7c3.102,1.2,8.102,4.1,6.4,9.8c0,0,11,6.5,6.5,12
	c0,0,7.5,7,5,12c0,0,2.7-0.5,3.1,3.3c0.2,1.6-0.1,4.1-1.1,7.7c0,0,13,9.5,2.5,14.5c0,0-6.8,2-10.4-2.6c-0.398-0.5-0.8-1.2-1.1-1.9
	c-3-7-2.5-21.5-26-50l13-5.5C354.5,341,355.4,341.2,356.6,341.7z"/>
<path fill="#FFFFFF" stroke="#000000" stroke-miterlimit="10" d="M372,296c0,0,2,7-1.5,11.5c0,0-12,15-9.5,16.5
	c1.7,1,3.5,0.6,4.4,0.3c-4.4,8.1-8,15.8-8.7,17.4c-1.2-0.5-2.102-0.7-2.102-0.7c0.302-0.4,0.602-0.7,0.802-1
	c3-4.5-5.802-4.5-5.802-4.5c5-5.5-4.5-7-4.5-7c0.9-1.9,1.2-3.3,1.102-4.4l0.898-0.1C347,324,366,292.5,372,296z"/>
<path fill="#FFFFFF" stroke="#000000" stroke-miterlimit="10" d="M337,411.4c-3.1-8.601-6-15.9-6-15.9c-4.5-10.5-21-28-21-28
	s12-14.5,31.5-21c23.5,28.5,23,43,26,50c0.3,0.7,0.7,1.4,1.1,1.9l-0.1,0.1c4,11.5-24.5,39-24.5,39
	C344.5,433.5,340.7,421.5,337,411.4z"/>
<path fill="#FFFFFF" stroke="#000000" stroke-miterlimit="10" d="M349.5,335.5c0,0,8.8,0,5.8,4.5c-0.2,0.3-0.5,0.6-0.8,1l-13,5.5
	c0,0-8.3-19.9-15.8-26.5c1.1-2.4,6-12.2,7.8-6c0,0,6.5-2.5,5,6.5c0,0,7.1-1,7.6,3.6c0.102,1.1-0.198,2.6-1.1,4.4
	C345,328.5,354.5,330,349.5,335.5z"/>
<path fill="#FFFFFF" stroke="#000000" stroke-miterlimit="10" d="M300.8,446.7c-1.7,2-2.8,3.3-2.8,3.3c-0.7,0.7-1.3,1.4-2,2
	c-4.4,4.3-8.1,6.9-11.3,8.3c-3.6,1.602-6.5,1.602-8.7,0.9c-0.1-0.102-0.1-0.2-0.1-0.2s0,0.1-0.1,0.1c-4.2-1.398-5.9-5.1-5.9-5.1
	c-7-15-49-38-49-38c-26.5-14.5-40.5-55-40.5-55l-1.8-0.2c1.3-20,3.8-43,8.8-43.8c0,0,13-16.5,27-11.5l0.3-0.6
	c7.4,3.2,14.1,8.4,19.2,16.1l2.5,1l37.1,55.5l2.4,3.5c0,0,22,1.5,34-15.5c0,0,16.5,17.5,21,28c0,0,3,7.3,6,15.9
	c0.398,10.399-9,15.1-9,15.1C319.9,425.7,306.5,440.1,300.8,446.7z"/>
<path fill="#FFFFFF" stroke="#000000" stroke-miterlimit="10" d="M294.5,691.5c-14.5-14-34-85-34-85l-0.1-1.3
	c8.3-0.8,18.7-3.7,31.6-9.7c0,0,9.9-4.1,27-7.3v0.3c11,25,8.5,111.5,8.5,111.5c12,20-4,29-4,29c-1.5,4.5-11.5,3-11.5,3
	c-36.5,16-55,6-55,6s11-39.5,4-52.5c-0.1-0.1-0.1-0.2-0.2-0.3C275.4,682.2,294,691.3,294.5,691.5z"/>
<path fill="#FFFFFF" stroke="#000000" stroke-miterlimit="10" d="M325.7,320c7.398,6.6,15.8,26.5,15.8,26.5
	c-19.5,6.5-31.5,21-31.5,21l-4.5-9.5c-8-20.5-16-22.5-16-22.5c19.5-7.5,31-17.5,31-17.5C322.1,317.5,323.9,318.3,325.7,320z"/>
<path fill="#FFFFFF" stroke="#000000" stroke-miterlimit="10" d="M303.2,499c-6.5,4.1-13.2,7.5-13.2,7.5
	c4.3-14.3-12.3-42.7-13.9-45.3c2.2,0.7,5.1,0.7,8.7-0.9l2.2,0.2c0,0,10,21.5,9.5,29.5c0,0,7.5,0.5,10-6c0,0-0.5-21.7-10.5-32
	c0.6-0.6,1.3-1.3,2-2c0,0,1-1.3,2.8-3.3c13.3,11.2,14.3,41.8,14.3,41.8C314.1,491.5,308.7,495.5,303.2,499z"/>
<path fill="#FFFFFF" stroke="#000000" stroke-miterlimit="10" d="M305.5,358l4.5,9.5c-11.5-21.5-19.5-15-19.5-15s-3-17-1-17
	C289.5,335.5,297.5,337.5,305.5,358z"/>
<path fill="#FFFFFF" stroke="#000000" stroke-miterlimit="10" d="M305.3,507.6c4,21.5,5.102,73.602-76.4,78.602
	c-1.4,0.1-2.9,0.2-4.4,0.2c-7.9,0.3-16.5,0.198-26-0.4l-21.5,3c0,0,29-30.9,33-66.9c9.2,2,42.1,6.9,73.5-16.1l6.5,0.5
	c0,0,6.7-3.3,13.2-7.5C303.6,500.2,304.5,503.3,305.3,507.6z"/>
<path fill="#FFFFFF" stroke="#000000" stroke-miterlimit="10" d="M296,452c10,10.3,10.5,32,10.5,32c-2.5,6.5-10,6-10,6
	c0.5-8-9.5-29.5-9.5-29.5l-2.2-0.2C287.9,458.9,291.7,456.4,296,452z"/>
<path fill="#FFFFFF" stroke="#000000" stroke-miterlimit="10" d="M290.5,352.5c0,0,8-6.5,19.5,15c-12,17-34,15.5-34,15.5
	c10-1.5,4.5-16.3,4.5-16.3c5.3,1.1,5.2-3.6,3.6-8.8L290.5,352.5z"/>
<path fill="#FFFFFF" stroke="#000000" stroke-miterlimit="10" d="M276.1,461.2c1.6,2.6,18.2,31,13.9,45.3l-6.5-0.5
	c2-3.5-12-37.5-12-37.5s0,0,4.4-7.4C276,461.2,276,461.2,276.1,461.2z"/>
<path fill="#FFFFFF" stroke="#000000" stroke-miterlimit="10" d="M284.1,357.9c1.602,5.2,1.7,9.9-3.6,8.8c0,0,5.5,14.8-4.5,16.3
	l-2.4-3.5c8.5-10.9-3.6-16.7-3.6-16.7c17.8-5.3-9.5-19.3-9.5-19.3c24-3.5-9.5-15-9.5-15c13,0.5,11.5-8.5,11.5-8.5
	c-0.9-7.2-24.6-15.3-29.2-16.8c-7.8-7.6-19.5-17.2-33.5-22.7c2.7,0.1,24.5,0.7,29.2,0.2l0.1-0.2c1,0.4,2.4,0.9,4.1,1.5
	c11.2,4.2,35.3,13.9,34.9,18.9c0,0,2.5,7.5-0.5,10c0,0,14.5,10.5,14,13.5c0,0,3,4.5-5,10.5c0,0,8.8,11.3,2.5,11
	C279,346,282.4,352.3,284.1,357.9z"/>
<path fill="#FFFFFF" stroke="#000000" stroke-miterlimit="10" d="M208.6,483.5l0.8-0.4c0.9,1.4,1.6,2.302,2.1,2.5c0,0,21,10,60-17
	c0,0,14,34,12,37.5C252,529.1,219.1,524.2,210,522.2c-1.6-0.3-2.5-0.602-2.5-0.602s-2-21.5-4.5-31.5
	C203,490,204.9,483.5,208.6,483.5z"/>
<path fill="#FFFFFF" stroke="#000000" stroke-miterlimit="10" d="M270,362.8c0,0,12.1,5.8,3.6,16.7L236.5,324l-2.5-1
	c0,0,15-0.5,9.5-8.5c0,0-3.7-4.9-10.2-11.3c4.6,1.5,28.3,9.5,29.2,16.8c0,0,1.5,9-11.5,8.5c0,0,33.5,11.5,9.5,15
	C260.5,343.5,287.8,357.5,270,362.8z"/>
<path fill="#FFFFFF" stroke="#000000" stroke-miterlimit="10" d="M275.9,461.1c-4.4,7.4-4.4,7.4-4.4,7.4c-39,27-60,17-60,17
	c-0.5-0.2-1.3-1-2.1-2.5c-7.7-12.6-26.6-69.3-29.4-76.5h-1.4c-0.1-5.6-0.5-10.5-1.1-14.5c0,0,0.2-13.7,1.2-29.2l1.8,0.2
	c0,0,14,40.5,40.5,55c0,0,42,23,49,38C270,456,271.8,459.8,275.9,461.1z"/>
<path fill="#FFFFFF" stroke="#000000" stroke-miterlimit="10" d="M182.3,99.8c-0.7-3.6-1.6-8.1-2.6-12.4c-0.4-1.6-0.7-3.3-1-4.8
	l0.3-0.1c18-29.5,48.8-5.3,58,6c7.6,9.4,12.4,11.8,15.5,10.3c8.2-4.2-6-12.3-6-12.3c-3-1.8,8.1-0.5,9.5,0.8c19.2,18.4-9,23.3-9,23.3
	c-0.5,10.5,0.9,15.6,4.8,18.5c21.8,16.3,11-10.8,11-10.8c-1.8-5,4.8,2.3,4.8,2.3c7.3,7.3-1.8,28.8-1.8,28.8
	c-11,12.5-18.8,3.3-18.8,3.3c-1.3,0.1-2.8-0.2-4.5-0.8c-11.6-3.9-30-20.7-30-20.7c-9.5-4-20.5-0.5-20.5-0.5l2.5,9.5
	c8,11.5,2.5,45.5,2.5,45.5c-6.5,19.5-9.9,36-1.8,36c17.3,0,4.3-18.8,4.3-18.8c7,0,9.9,0.1,11.5,3.5c14.9,31.6-17.3,34.9-28,32.3
	c-13.7-3.4-19.5-35-19.5-35c-17,2-9.5,30-9.5,30c2.5,17,8.6,19.3,15.5,21.5c19.8,6.3,16-5.3,14.3-9c-0.6-1.2,9.5,4.9,10.5,5.8
	c7.5,6.6-3.3,15.3-9.3,13.8c-5.5-1.4-16.5-2-16.5-2c14.5,4,7.5,12.5,7.5,12.5c-9.5,3.5-25.5,1-25.5,1c-4,7-17.5,9.5-17.5,9.5
	c-17-1.5-18.3-14.5-18.3-14.5c3.5,4,8.3,4,8.3,4c6.5-5,0.5-24,0.5-24c-0.5,2.5-7.5,10.5-7.5,10.5c-24.5,11.5-22-22-22-22
	c0.5-11,9.5-6,9.5-6c-1.5,0-3,3.5-3,3.5c1,9.5,6.5,2.5,6.5,2.5c3.5-1.5,1-16.5,1-16.5c-36.5,3.5-27.5-29.5-27.5-29.5
	c5.5-18,14-11,14-11C88,187,93,194,93,194c7.5,0.5,7-8,7-8c-6.3-15.9-17.5-19-6.3-38c0.5-0.9,1.1-4.9,0.1-4.8
	c-4.1,0.5-3.6-2.5-3.1-4.3c6-22.2,36.5-28,36.5-28l0.1-0.1c2.2,1.1,4.4,2.3,6.7,3.6c4,2.3,8,4.8,12.1,7.6c3,2.1,6.1,4.4,9.1,6.9
	c9.3,7.5,35.8-2.8,28.8-20.8C184,108.3,183.3,104.7,182.3,99.8z"/>
<path id="www.ABC-color.com" fill="#FFFFFF" stroke="#000000" stroke-miterlimit="10" d="M233.2,281.1l-0.1,1
	c-1.7-0.6-3.1-1.2-4.1-1.5l-0.1,0.2c-4.7,0.5-26.5-0.2-29.2-0.2c-7.4-2.9-15.4-4.7-23.8-4.5c0,0,7-8.5-7.5-12.5c0,0,11,0.6,16.5,2
	c6,1.5,16.7-7.2,9.3-13.8c-1-0.9-11.1-7-10.5-5.8c1.8,3.8,5.5,15.3-14.3,9c-6.9-2.2-13-4.5-15.5-21.5c0,0-7.5-28,9.5-30
	c0,0,5.8,31.6,19.5,35c10.7,2.6,42.9-0.7,28-32.3c-1.6-3.4-4.5-3.5-11.5-3.5c0,0,13,18.8-4.3,18.8c-8.1,0-4.8-16.5,1.8-36
	c0,0,5.5-34-2.5-45.5l-2.5-9.5c0,0,11-3.5,20.5,0.5c0,0,18.4,16.8,30,20.7c1.7,0.5,3.2,0.8,4.5,0.8l0.5,31.5
	c0,0,12.6,15.2,14.7,23.1c0.2,0.7,0.3,1.4,0.3,1.9c0,7-4.5,11-9,11l-0.5,13c-0.1-0.1-0.2-0.1-0.2,0c-0.8,0.3-5,1.7-9.2,5
	c0,0-3.7,3-6.7,7c0,0-2.7,1.7-1.3,3.3c0,0,6.3,6.3,14.3,7.2c0,0-3.5,5-2,10C248,265.5,261.3,284.2,233.2,281.1z M234,202.1
	c0.2,0,0.4,0,0.5,0c1.8-0.1,3.1-0.5,4-1.1c0.6-0.5,1.4-2.2,1.9-4.9c0.6-3.3,0.8-7.9-0.3-13.1c-0.6-2.9-1.6-6.1-3.1-9.3
	c-0.2-0.4-0.4-0.9-0.6-1.3c-0.8-1.6-1.8-3.2-2.9-4.8l-12.5,18c0,0-0.5,14,5,15.5C228.9,201.8,231.7,202.2,234,202.1z"/>
<path fill="#FFFFFF" stroke="#000000" stroke-miterlimit="10" d="M260.8,685.2c0.1,0.1,0.1,0.2,0.2,0.3c7,13-4,52.5-4,52.5
	c-19,2.5-16.5-2-16.5-2s-3.1-31.6-1.9-43.8c0.3-2.5,0.7-4.2,1.4-4.7C240,687.5,256.9,679.3,260.8,685.2z"/>
<path fill="#FFFFFF" stroke="#000000" stroke-miterlimit="10" d="M252.8,233c0.3,0.8,4.6,6.3,0.2,9.3l-3,2.2l3,3.8c0,0,3,3.7-3,7.2
	c-8-0.8-14.3-7.2-14.3-7.2c-1.3-1.7,1.3-3.3,1.3-3.3c3-4,6.7-7,6.7-7C247.8,234.7,252,233.3,252.8,233z"/>
<path fill="#FFFFFF" stroke="#000000" stroke-miterlimit="10" d="M233.3,303.3c6.5,6.3,10.2,11.3,10.2,11.3c5.5,8-9.5,8.5-9.5,8.5
	c-5.1-7.8-11.8-12.9-19.2-16.1c-25.9-11.5-59.8,0-59.8,0c-6-0.4-10.9-1-14.9-1.7c-31.5-5.5-7.1-18.8-7.1-18.8s13.5-2.5,17.5-9.5
	c0,0,16,2.5,25.5-1c8.4-0.2,16.4,1.6,23.8,4.5C213.8,286.1,225.5,295.7,233.3,303.3z"/>
<path fill="#FFFFFF" stroke="#000000" stroke-miterlimit="10" d="M240.1,182.9c1.1,5.3,0.9,9.9,0.3,13.1H240c-6.5-7.8-0.3-13-0.3-13
	L240.1,182.9z"/>
<path fill="#FFFFFF" stroke="#000000" stroke-miterlimit="10" d="M240,196l0.4,0.1c-0.5,2.7-1.3,4.5-1.9,4.9c-0.9,0.6-2.3,1-4,1.1
	c-0.2,0-0.4,0-0.5,0c-7.2-20.6,2.8-28.4,2.8-28.4l0.3-0.1c1.5,3.2,2.5,6.4,3.1,9.3l-0.4,0.1C239.8,183,233.5,188.3,240,196z"/>
<path fill="#FFFFFF" stroke="#000000" stroke-miterlimit="10" d="M211.7,706.7c11.4-5.8,16.7-10.102,27-14.5
	c-1.3,12.3,1.9,43.8,1.9,43.8c-5.4,2.9-80.6,0.4-83.7,0.3v-0.1L181,712c10,5.5,30-5,30-5C211.2,706.9,211.5,706.8,211.7,706.7z"/>
<path fill="#FFFFFF" stroke="#000000" stroke-miterlimit="10" d="M237,173.6l-0.3,0.1c0,0-10,7.7-2.8,28.4c-2.3,0-5-0.3-8-1.1
	c-5.5-1.5-5-15.5-5-15.5l12.5-18c1.1,1.6,2.1,3.2,2.9,4.8C236.6,172.8,236.8,173.2,237,173.6z"/>
<path fill="#FFFFFF" stroke="#000000" stroke-miterlimit="10" d="M178.7,407.5c0-0.3,0-0.6,0-1h1.4c2.7,7.3,21.6,64,29.4,76.5
	l-0.8,0.4c-3.7,0-5.6,6.5-5.6,6.5c2.5,10,4.5,31.5,4.5,31.5s0.9,0.3,2.5,0.6c-4,36-33,66.9-33,66.9l21.5-3
	c9.5,0.6,18.1,0.698,26,0.398v0.102c0,0-5.4,68.3-12.8,120.198c-0.2,0.102-0.5,0.2-0.7,0.302c0,0-20,10.5-30,5c0,0,1.5-14-19.5-10
	l-0.9-0.102C167,630.6,178,432.5,178,432.5l0.5-25H178.7z"/>
<path fill="#FFFFFF" stroke="#000000" stroke-miterlimit="10" d="M113,734.7c0-0.102,0-0.2,0-0.2c-10.5-42-44-42.5-44-42.5
	c-5.5,3.5,24.5,47,24.5,47c8.3,15.2,4.1,27.2,1.1,32.7c-1.1,2.1-2.1,3.3-2.1,3.3c-2.1,0.9-12.9-16.5-24-35.5
	c-12.9-22.2-26-46.5-26-46.5c-6-10-10-4-10-4c22.7,50,20.2,59,18.6,60.6l-0.6,0.4C29,750.5,14,658.5,14,658.5
	c62-11,72.7-188.7,94.5-252.5c3.5-10.4,31.6-100.7,31.6-100.7c4,0.7,8.9,1.3,14.9,1.7c0,0,33.9-11.5,59.8-0.1l-0.3,0.6
	c-14-5-27,11.5-27,11.5c-5.1,0.8-7.6,23.8-8.8,43.8c-1,15.5-1.2,29.2-1.2,29.2c0.6,4,1,8.9,1.1,14.5c0,0.3,0,0.6,0,1h-0.2l-0.5,25
	c0,0-11,198.1-17.4,269.4c-1.3,14.6-2.4,23.898-3.1,25.1l-0.5,8.3l-0.1,0.9l-0.1,0.1c0,0,0,0,0.1,0l-1.6,10l-4.5,35
	c0,0-9.8-31.8-18.3-30.3c-6.5,31.5-12.8,25-12.8,25C116.9,776,113.3,737.8,113,734.7z"/>
<path fill="#FFFFFF" stroke="#000000" stroke-miterlimit="10" d="M184,108.3c7,18-19.4,28.3-28.8,20.8c-3.1-2.5-6.1-4.8-9.1-6.9
	c4.3-0.8,30.1-5.9,36.2-22.4C183.3,104.7,184,108.3,184,108.3z"/>
<path fill="#FFFFFF" stroke="#000000" stroke-miterlimit="10" d="M179.7,87.4c0.9,4.3,1.8,8.8,2.6,12.4
	c-6.1,16.5-31.9,21.6-36.2,22.4c-4.1-2.8-8.1-5.4-12.1-7.6c0,0,10.5-4.8,9-13.8c0,0,21.5,10.3,23.5-13.3c0,0,8.3,5.8,12.8,0
	L179.7,87.4z"/>
<path fill="#FFFFFF" stroke="#000000" stroke-miterlimit="10" d="M161.5,702c21-4,19.5,10,19.5,10l-24.1,24.1l0.1-0.898l0.5-8.3
	c0.8-1.2,1.9-10.5,3.1-25.102L161.5,702z"/>
<path fill="#FFFFFF" stroke="#000000" stroke-miterlimit="10" d="M179.7,87.4l-0.5,0.1c-4.5,5.8-12.8,0-12.8,0
	c-2,23.5-23.5,13.3-23.5,13.3c1.5,9-9,13.8-9,13.8c-2.2-1.3-4.5-2.5-6.7-3.6c-4.5-2.3-8.9-4.3-13.3-6.1v-0.1
	c0.5-0.1,0.8-0.1,0.8-0.1c-4-12.3-19-6.8-19-6.8c-12.9-4.4-19-5.3-19-5.3l0,0c20-12,61.7,2.5,61.7,2.5c-2-6-8.3-39.3-8.3-39.3
	c9.5,0,28.3,18.3,28.3,18.3c-3.4-32.8,9-55.4,11.1-55.8h0.1c0.9,0.3,0.3,8.2,1.5,21.9c0-0.2-0.1-0.2-0.1-0.2c-7,17,3.5,25,3.5,25
	c0.6,3.7,0.8,3.8,1.8,7.3c0.7,2.5,1.5,6.2,2.4,10.3l0,0C179,84.1,179.4,85.8,179.7,87.4z M155.8,90.1c2.5-2.1,1.7-7.4-1.9-11.7
	c-3.6-4.4-8.6-6.2-11.2-4.1c-2.5,2.1-1.7,7.4,1.9,11.7C148.2,90.4,153.2,92.3,155.8,90.1z"/>
<path fill="#FFFFFF" stroke="#000000" stroke-miterlimit="10" d="M171.2,40.1c1.4,1,10,7.9,3.3,24.9c0,0-10.5-8-3.5-25
	C171,40,171.1,40,171.2,40.1z"/>
<path fill="#FFFFFF" stroke="#000000" stroke-miterlimit="10" d="M150.5,52.5c0,0,5.2-35,19.1-34.3c-2.1,0.3-14.6,22.9-11.1,55.8
	c0,0-18.8-18.3-28.3-18.3c0,0,6.3,33.3,8.3,39.3c0,0-41.7-14.5-61.7-2.5c1-0.7,30.5-21.9,48.7-17c0,0-13-42.5-7.5-49
	C118,26.5,146,41.5,150.5,52.5z"/>
<path fill="#FFFFFF" stroke="#000000" stroke-miterlimit="10" d="M153.9,78.4c3.6,4.4,4.5,9.6,1.9,11.7c-2.5,2.1-7.5,0.3-11.2-4.1
	c-3.6-4.4-4.5-9.6-1.9-11.7C145.3,72.2,150.3,74.1,153.9,78.4z"/>
<path fill="#FFFFFF" stroke="#000000" stroke-miterlimit="10" d="M114.8,104.5c0,0-0.3,0-0.8,0.1c-2.9,0.4-13.1,1-18.2-6.9
	C95.8,97.8,110.8,92.3,114.8,104.5z"/>
<path fill="#FFFFFF" stroke="#000000" stroke-miterlimit="10" d="M113,734.5c0,0,0,0.1,0,0.2c-5.9,14.5-14.5,30.6-18.1,37.1
	l-0.3-0.1c3-5.5,7.2-17.5-1.1-32.7c0,0-30-43.5-24.5-47C69,692,102.5,692.5,113,734.5z"/>
<path fill="#FFFFFF" stroke="#000000" stroke-miterlimit="10" d="M68.5,739.5L68.5,739.5l-17.4,10.2c1.6-1.602,4.1-10.7-18.6-60.602
	c0,0,4-6,10,4C42.5,693,55.7,717.3,68.5,739.5z"/>
<path fill="none" stroke="#000000" stroke-miterlimit="10" d="M224.5,586.5c0,0-5.4,68.3-12.8,120.2c-0.1,0.398-0.1,0.898-0.2,1.3"
	/>
<g>
	<path d="M247.1,111c-2.9,0.6-5.7,0.3-8.4-0.1c-2.8-0.5-5.4-1.4-7.9-2.6c-5.1-2.4-9.5-5.8-13.5-9.7c-2-1.9-3.8-4-5.6-6.2
		c-0.4-0.5-0.8-1.1-1.3-1.6s-1-1-1.5-1.4c-1.1-0.8-2.4-1.4-3.7-1.6c-1.3-0.2-2.7,0-4,0.6c-1.2,0.6-2.4,1.4-3.3,2.4
		c-2,1.9-3.5,4.3-4.8,6.7c1.3-2.4,2.8-4.8,4.8-6.8c1-1,2.1-1.8,3.4-2.4c1.3-0.6,2.7-0.9,4.1-0.7c2.8,0.4,5.2,2.3,6.8,4.6
		c1.8,2.1,3.6,4.1,5.6,6.1c4,3.8,8.5,7.1,13.5,9.3c2.5,1.1,5.1,2,7.8,2.4c2.7,0.4,5.5,0.6,8,0V111L247.1,111z"/>
</g>
<g>
	<path d="M246.7,153.4c-2-1.6-3.7-3.4-5.2-5.3c-1.5-2-2.9-4.1-3.9-6.3c-1-2.3-1.8-4.7-2.1-7.1c-0.3-2.5-0.2-4.9,0.2-7.4
		c-0.4,2.4-0.4,4.9,0,7.3c0.4,2.4,1.2,4.8,2.3,6.9c1.1,2.2,2.5,4.2,4,6.1c1.6,1.9,3.3,3.6,5.2,5L246.7,153.4z"/>
</g>
<g>
	<path d="M212.3,130.5c-0.2-3.1-0.6-6.1-1.3-9.1s-1.8-5.9-3.5-8.5c-0.8-1.3-1.9-2.4-3.1-3.3c-1.3-0.9-2.7-1.4-4.3-1.5
		c-3.1-0.3-6.1,0.9-8.8,2.5c2.6-1.6,5.6-2.9,8.8-2.7c1.6,0.1,3.1,0.6,4.4,1.5s2.4,2,3.3,3.3c1.8,2.6,2.9,5.6,3.8,8.6
		c0.8,3,1.4,6.1,1.6,9.3L212.3,130.5z"/>
</g>
<g>
	<polygon points="191.2,130.4 181.5,123 191.8,129.6 	"/>
</g>
<g>
	<path d="M163,203.8c-0.4-11.5-0.6-22.9-0.3-34.4c0.1-5.7,0.4-11.5,0.8-17.2c0.5-5.7,1.1-11.4,2.5-17c-1.3,5.6-1.8,11.3-2.2,17
		c-0.4,5.7-0.5,11.4-0.6,17.2c-0.1,11.4,0.2,22.9,0.8,34.3L163,203.8z"/>
</g>
<g>
	<path d="M93.3,193.6c1.5,1.3,3,2.5,4.8,3c0.9,0.3,1.8,0.3,2.7,0c0.9-0.3,1.6-0.8,2.3-1.5c1.3-1.4,2.2-3.1,3-4.9
		c0.8-1.8,1.5-3.6,2.2-5.5c2.7-7.4,5.3-15,8.7-22.1s7.7-13.9,13.1-19.8c5.4-5.8,11.9-10.6,19.1-13.9c-7.1,3.4-13.6,8.3-18.9,14.1
		c-5.3,5.8-9.5,12.7-12.8,19.8c-3.4,7.2-5.8,14.7-8.5,22.1c-0.7,1.9-1.4,3.7-2.2,5.5c-0.8,1.8-1.7,3.6-3.1,5.2
		c-0.7,0.8-1.6,1.4-2.6,1.8s-2.2,0.3-3.2,0c-2-0.6-3.7-1.9-5.2-3.2L93.3,193.6z"/>
</g>
<g>
	<path d="M107.5,223.6c1.9-8.3,4.2-16.5,6.7-24.6s5.3-16.1,8.5-24c3.2-7.8,6.8-15.6,11.4-22.7c2.3-3.6,4.9-7,8-9.9
		c1.6-1.4,3.2-2.8,5.1-3.8c1.9-1,3.9-1.7,6-1.9c-2.1,0.2-4.1,0.9-6,2c-1.8,1-3.5,2.4-5,3.8c-3.1,2.9-5.6,6.4-7.9,9.9
		c-4.5,7.2-8,14.9-11.2,22.8c-3.1,7.9-5.8,15.9-8.2,24c-2.4,8.1-4.6,16.3-6.4,24.6L107.5,223.6z"/>
</g>
<g>
	<path d="M122.8,250.7c0.3-9.6,1.2-19.2,2.5-28.7c1.3-9.5,3-19,5.4-28.3c2.3-9.3,5.2-18.5,9.1-27.3c3.9-8.8,8.7-17.2,15.2-24.3
		c-6.4,7.1-11.2,15.6-15,24.4s-6.6,18-8.9,27.3c-2.2,9.3-3.9,18.8-5.1,28.3s-2,19.1-2.3,28.6H122.8z"/>
</g>
<g>
	<path d="M150.1,276.7c-2.1-4-3.6-8.2-4.9-12.5c-1.3-4.3-2.2-8.7-3-13.1c-1.5-8.8-2.1-17.8-2-26.7c0.3-17.9,3.3-35.6,8-52.7
		c-4.6,17.2-7.4,34.9-7.5,52.7c0,8.9,0.6,17.8,2.2,26.5c0.8,4.4,1.8,8.7,3.1,12.9c1.3,4.2,2.8,8.4,4.9,12.3L150.1,276.7z"/>
</g>
<g>
	<path d="M169.3,264c-2.7,0.2-5.2-0.8-7.3-2.3s-3.8-3.5-5.1-5.6c-2.7-4.3-4.3-9.1-5.4-14c-2.2-9.8-2.7-19.8-2.6-29.8
		s0.8-19.9,1.9-29.8c1.1-9.9,2.5-19.8,4.1-29.6c-1.5,9.8-2.9,19.7-3.9,29.6s-1.6,19.8-1.6,29.8c0,9.9,0.6,19.9,2.9,29.6
		c1.2,4.8,2.8,9.6,5.4,13.7c1.3,2,3,3.9,4.9,5.3c1,0.7,2.1,1.2,3.2,1.6c1.1,0.4,2.4,0.6,3.5,0.4V264L169.3,264z"/>
</g>
<g>
	<path d="M93.6,143.2c2.7-2.9,5.5-5.6,8.5-8.1s6.1-4.9,9.4-7s6.8-3.9,10.5-5.2c3.7-1.3,7.6-2,11.5-1.6c-3.9-0.4-7.8,0.4-11.4,1.8
		s-7.1,3.3-10.3,5.4c-3.2,2.2-6.3,4.6-9.2,7.2c-2.9,2.6-5.7,5.3-8.2,8.2L93.6,143.2z"/>
</g>
<g>
	<path d="M190,208.8c-0.1-5.5-0.3-11-0.6-16.4c-0.3-5.5-0.7-10.9-1.3-16.4s-1.3-10.9-2.4-16.3c-0.5-2.7-1.2-5.4-2-8
		c-0.8-2.6-1.8-5.2-3.4-7.4c1.6,2.2,2.7,4.8,3.5,7.4c0.9,2.6,1.5,5.3,2.1,8c1.2,5.4,2,10.8,2.6,16.3c0.7,5.5,1.2,10.9,1.6,16.4
		s0.7,11,0.9,16.5L190,208.8z"/>
</g>
<g>
	<path d="M214.3,179.4c0.6-2.9,1.6-5.6,2.7-8.3c1.2-2.7,2.7-5.3,4.8-7.6c1-1.2,2.2-2.3,3.5-3.2c1.3-1,2.9-1.6,4.6-1.8
		c1.7-0.2,3.4,0,4.9,0.5s2.9,1.4,3.9,2.6l-0.2,0.4c-1.5-0.1-2.9-0.2-4.2-0.2c-1.3,0.1-2.5,0.3-3.7,0.6c-1.1,0.3-2.2,0.8-3.4,1.3
		c-1.1,0.5-2.3,1.2-3.3,2.1c-1,0.9-1.9,1.9-2.8,2.9c-0.9,1.1-1.7,2.2-2.5,3.4c-1.6,2.3-2.9,4.9-4.1,7.5L214.3,179.4z"/>
</g>
<path fill="none" stroke="#000000" stroke-miterlimit="10" d="M250,244.3c0,0-11.3,4-14.8,2"/>
<path fill="none" stroke="#000000" stroke-miterlimit="10" d="M235.3,240c0,0,3,9-4.8,10"/>
<g>
	<path d="M163.5,214.5c-1,0.1-2,0.4-2.9,0.9s-1.5,1.3-1.7,2.3c-0.3,0.9-0.1,1.9,0,3c0.1,1,0.2,2,0.4,3c0.6,4,1.4,8.1,2.7,11.9
		c1.3,3.8,3.1,7.5,6,10.4c2.8,2.9,6.9,4.4,11,4.1c-2,0.3-4.1,0.2-6.2-0.4c-2-0.6-3.8-1.7-5.4-3.1s-2.8-3.1-3.8-4.9
		c-1-1.8-1.9-3.7-2.6-5.7c-1.3-3.9-2.1-8-2.6-12.1c-0.1-1-0.2-2.1-0.2-3.1l-0.1-1.5c0-0.5,0-1.1,0.2-1.6c0.3-1.1,1.1-1.9,2.1-2.4
		C161.4,214.7,162.5,214.5,163.5,214.5z"/>
</g>
<g>
	<path d="M166,230.5c0.3,1.4,0.8,2.8,1.3,4.1c0.5,1.3,1.1,2.6,1.9,3.8c0.8,1.2,1.7,2.2,2.9,2.9c1.2,0.7,2.5,1.1,4,1.2
		c-1.4,0.3-3,0.1-4.4-0.5c-1.4-0.7-2.5-1.8-3.3-3c-0.8-1.3-1.4-2.7-1.8-4.1C166.1,233.4,166,232,166,230.5z"/>
</g>
<g>
	<path d="M228.4,280.5c-2.6-0.5-5.1-1.2-7.6-1.9c-2.5-0.8-4.9-1.6-7.3-2.6s-4.7-2.2-6.9-3.6c-2.2-1.4-4.2-3.2-5.6-5.3
		c1.5,2.1,3.6,3.8,5.8,5.1c2.2,1.4,4.5,2.4,6.9,3.4c2.4,0.9,4.9,1.7,7.4,2.4s5,1.2,7.5,1.6L228.4,280.5z"/>
</g>
<g>
	<path d="M316.9,375.3c-1,1.4-2.102,2.8-3.302,4.1c-0.6,0.6-1.198,1.3-1.898,1.8s-1.4,1.1-2.2,1.3c0.8-0.3,1.5-0.9,2.1-1.5
		c0.602-0.6,1.2-1.3,1.7-2c1-1.4,2-2.8,2.8-4.3L316.9,375.3z"/>
</g>
<g>
	<path d="M327.4,388.7c-1.2,2.2-2.602,4.2-4.102,6c-1.5,1.899-3.2,3.6-5.1,5.2c-1.9,1.5-3.9,2.899-6.2,3.8c-2.2,1-4.6,1.6-7,1.7
		c2.4-0.2,4.8-0.9,6.9-1.9c2.198-1,4.198-2.4,5.898-4c1.8-1.6,3.4-3.4,4.9-5.3c1.398-1.9,2.8-3.9,3.8-6L327.4,388.7z"/>
</g>
<g>
	<path d="M333.9,404.3c-1.102,1.2-2.302,2.3-3.602,3.3s-2.7,1.9-4.3,2.301c1.5-0.7,2.8-1.601,3.9-2.7
		c1.198-1.101,2.198-2.3,3.198-3.601L333.9,404.3z"/>
</g>
<g>
	<path d="M275,393.1c-0.2-1.5-0.3-3.1-0.3-4.6c0-0.8,0-1.6,0.2-2.3c0.1-0.4,0.1-0.8,0.2-1.2c0.1-0.2,0.1-0.4,0.2-0.6
		c0.1-0.2,0.2-0.4,0.5-0.6l0.2,0.6c-1.8-0.1-3.6,0.4-5.2,1.4c-1.5,1-2.7,2.5-3.4,4.2c-0.7,1.7-1,3.6-1.1,5.4c-0.1,1.9,0,3.8,0.2,5.6
		c-0.3-1.9-0.5-3.7-0.4-5.6c0-1.9,0.3-3.8,1-5.6c0.7-1.8,1.8-3.4,3.4-4.5c1.6-1.1,3.5-1.7,5.5-1.6l0.2,0.6c0,0-0.1,0.2-0.2,0.3
		c-0.1,0.2-0.1,0.3-0.2,0.5c-0.1,0.3-0.1,0.7-0.2,1.1c-0.1,0.7-0.1,1.5-0.1,2.2c0,1.5,0.2,3,0.4,4.5L275,393.1z"/>
</g>
<g>
	<path d="M278.4,383.2c0.9,1.5,1.6,3,2.3,4.5c0.7,1.5,1.3,3.1,1.8,4.7c-0.6-1.6-1.4-3.1-2.2-4.5c-0.8-1.4-1.7-2.9-2.7-4.2
		L278.4,383.2z"/>
</g>
<g>
	<path d="M181.3,335c1.8-0.7,3.8-0.8,5.7-0.2c1.8,0.6,3.4,1.9,4.5,3.4s1.8,3.2,2.4,5c0.6,1.8,0.9,3.5,1.2,5.4
		c-0.3-1.8-0.8-3.6-1.4-5.3c-0.6-1.7-1.4-3.3-2.6-4.7c-1.1-1.4-2.6-2.5-4.3-2.9c-1.7-0.4-3.5-0.3-5,0.4L181.3,335z"/>
</g>
<g>
	<path d="M185.9,320.5c3.3-0.6,6.7-0.3,9.8,0.9c3.1,1.2,5.8,3.2,7.8,5.7c2.1,2.5,3.6,5.4,4.7,8.5c1.1,3,1.8,6.2,2.4,9.4
		c-0.6-3.2-1.4-6.3-2.6-9.3s-2.7-5.8-4.8-8.2c-2.1-2.4-4.7-4.3-7.7-5.4c-3-1-6.3-1.3-9.3-0.6L185.9,320.5z"/>
</g>
<g>
	<path d="M197.6,309c2,0.3,3.9,0.7,5.8,1.2s3.8,1.1,5.7,1.8c1.8,0.7,3.7,1.6,5.3,2.7c0.8,0.6,1.6,1.2,2.1,2c0.6,0.8,1,1.7,1,2.7
		c-0.1-1-0.5-1.9-1.1-2.7c-0.6-0.8-1.4-1.4-2.2-1.9c-1.6-1.1-3.5-1.8-5.3-2.5c-1.9-0.6-3.7-1.1-5.7-1.5c-1.9-0.4-3.8-0.7-5.8-1
		L197.6,309z"/>
</g>
<g>
	<polygon points="412,329 389.5,329.5 412,328 	"/>
</g>
<g>
	<path d="M388.4,338c-3-0.3-6-0.5-9.102-0.3c-1.5,0.1-3,0.3-4.5,0.6c-1.398,0.4-3,1-3.898,2.2c0.898-1.3,2.398-2,3.8-2.4
		c1.5-0.5,3-0.7,4.5-0.9c3.1-0.3,6.1-0.3,9.2-0.2V338z"/>
</g>
<g>
	<path d="M431.4,349.5c-5.7-1.1-11.4-2.1-17.2-2.8c-2.9-0.3-5.8-0.6-8.7-0.7c-1.4-0.1-2.9-0.1-4.3,0c-1.4,0.1-2.9,0.2-4.2,1
		c1.2-0.8,2.8-1,4.2-1.1c1.5-0.1,2.898-0.2,4.398-0.2c2.9,0,5.802,0.2,8.7,0.5c5.8,0.5,11.602,1.3,17.3,2.3L431.4,349.5z"/>
</g>
<g>
	<path d="M432.5,358.5c-5.3-0.5-10.6-1-16-1.3c-2.7-0.2-5.3-0.3-8-0.3c-2.7-0.1-5.3-0.1-8,0.2c2.7-0.3,5.3-0.4,8-0.4s5.3,0,8,0.1
		c5.3,0.2,10.7,0.4,16,0.8V358.5z"/>
</g>
<g>
	<path d="M425,368.5c-4-0.4-8-0.8-12-1.2c-2-0.2-4-0.3-6-0.4c-1-0.1-2-0.1-3-0.1s-2,0-3,0.2c1-0.3,2-0.3,3-0.3s2,0,3,0
		c2,0,4,0.1,6,0.2c4,0.2,8,0.4,12,0.7V368.5z"/>
</g>
<g>
	<path d="M267.4,311.5c-1.3-0.4-2.4-0.9-3.6-1.5c-1.1-0.6-2.2-1.4-2.9-2.5c-0.4-0.6-0.6-1.2-0.5-1.9c0-0.7,0.2-1.3,0.6-1.9
		c0.7-1.1,1.6-2,2.6-2.7c-0.9,0.8-1.8,1.8-2.4,2.9c-0.3,0.5-0.4,1.1-0.4,1.7s0.2,1.1,0.6,1.6c0.7,1,1.8,1.6,2.9,2.1
		c1.1,0.5,2.3,0.9,3.5,1.2L267.4,311.5z"/>
</g>
<g>
	<path d="M276.9,335c-1.4-0.2-2.7-0.6-4-1.2c-1.2-0.6-2.6-1.4-3.1-2.8c-0.3-0.7-0.2-1.5,0-2.1c0.2-0.7,0.5-1.3,0.9-1.9
		c0.8-1.1,1.8-2.1,2.8-3c-1,0.9-1.9,2-2.6,3.1c-0.7,1.1-1.2,2.5-0.6,3.7c0.5,1.2,1.7,1.9,2.9,2.3c1.2,0.5,2.6,0.7,3.9,0.9L276.9,335
		z"/>
</g>
<g>
	<path d="M252.2,329c-1.5-0.4-3-0.8-4.4-1.6c-0.7-0.4-1.4-0.8-1.9-1.5c-0.2-0.4-0.4-0.8-0.4-1.2c0-0.4,0.1-0.9,0.3-1.2
		c0.4-0.7,1-1.3,1.6-1.7c0.6-0.5,1.3-0.9,1.9-1.3c1.3-0.7,2.7-1.4,4.2-1.9c-1.4,0.6-2.7,1.3-4,2.1c-1.3,0.8-2.6,1.7-3.3,3
		c-0.3,0.6-0.3,1.3,0.2,1.9c0.4,0.5,1.1,0.9,1.7,1.2c1.3,0.6,2.8,1,4.3,1.3L252.2,329z"/>
</g>
<g>
	<path d="M35.1,686.7c6.7-10.5,13.1-21.102,19.4-31.8c6.3-10.7,12.5-21.5,18.4-32.5c5.9-10.9,11.6-22,16.9-33.302
		C95,577.8,100,566.4,103.5,554.4c-3.5,12-8.3,23.5-13.5,34.8S79.2,611.6,73.3,622.6c-5.9,11-11.9,21.802-18.2,32.602
		c-6.3,10.8-12.6,21.398-19.3,32L35.1,686.7z"/>
</g>
<g>
	<path d="M67.6,693.2c6.3-10.3,12.3-20.8,18.1-31.4c5.8-10.6,11.4-21.3,16.6-32.2c5.2-10.898,10.2-21.898,14.5-33.198
		c2.1-5.7,4.1-11.4,5.8-17.2c1.7-5.8,3.1-11.7,3.9-17.7c-0.8,6-2.1,11.9-3.8,17.7c-1.7,5.8-3.6,11.6-5.7,17.2
		c-4.2,11.3-9.1,22.398-14.3,33.398c-5.2,10.9-10.7,21.7-16.4,32.4c-5.7,10.7-11.7,21.2-17.9,31.6L67.6,693.2z"/>
</g>
<g>
	<path d="M131.5,752c0.5-31.4,1.3-62.8,2.5-94.1c0.6-15.7,1.4-31.4,2.4-47c0.5-7.802,1.1-15.7,1.8-23.5
		c0.7-7.802,1.5-15.602,2.8-23.4c-1.3,7.7-2,15.6-2.7,23.4c-0.7,7.8-1.2,15.6-1.7,23.5c-0.9,15.698-1.6,31.3-2.1,47
		c-1.1,31.398-1.7,62.698-2,94.1H131.5z"/>
</g>
<g>
	<path d="M294.3,691.6c3,2.2,5.9,4.5,8.601,7.102c1.301,1.3,2.601,2.7,3.699,4.2c0.5,0.8,1,1.6,1.4,2.398c0.3,0.9,0.5,1.9,0,2.7
		c0.4-0.9,0.2-1.8-0.1-2.7c-0.4-0.8-0.9-1.6-1.4-2.3c-1.1-1.4-2.5-2.7-3.9-4c-2.8-2.4-5.8-4.6-8.8-6.6L294.3,691.6z"/>
</g>
<g>
	<path d="M365.9,584.5c1-0.3,2.1-0.9,3-1.5c0.898-0.7,1.8-1.5,2.5-2.4c1.398-1.898,2.3-4.198,2.6-6.5c-0.2,2.4-0.9,4.802-2.2,6.802
		c-0.7,1-1.5,2-2.398,2.698c-1,0.802-2,1.5-3.2,1.9L365.9,584.5z"/>
</g>
<g>
	<path d="M473.7,733c-1.4,0.6-2.8,0.9-4.2,1.2s-2.9,0.5-4.3,0.7c-2.9,0.3-5.8,0.3-8.7,0.1c2.9,0.1,5.8-0.1,8.6-0.6
		c1.4-0.2,2.802-0.5,4.2-0.9c1.4-0.4,2.7-0.8,4-1.4L473.7,733z"/>
</g>
<g>
	<path d="M482,739.6c-0.5,1.602-1.8,2.602-3.1,3.102c-1.302,0.6-2.802,0.8-4.2,0.8c-2.8,0.1-5.602-0.4-8.2-1
		c2.7,0.5,5.5,0.8,8.2,0.5c1.3-0.1,2.7-0.4,3.898-1c0.602-0.3,1.102-0.7,1.602-1.1c0.398-0.4,0.8-1,0.898-1.5L482,739.6z"/>
</g>
<g>
	<path d="M419.4,556c-1-0.4-2-0.8-2.9-1.2c-1-0.5-1.9-1-2.8-1.5c-1.8-1.1-3.4-2.5-4.7-4.2c1.4,1.602,3.1,2.802,4.9,3.802
		c1.8,1,3.8,1.698,5.698,2.198L419.4,556z"/>
</g>
</svg>
