<?xml version="1.0" encoding="utf-8"?>
<!-- Generator: Adobe Illustrator 15.0.0, SVG Export Plug-In . SVG Version: 6.00 Build 0)  -->
<!DOCTYPE svg PUBLIC "-//W3C//DTD SVG 1.1//EN" "http://www.w3.org/Graphics/SVG/1.1/DTD/svg11.dtd">
<svg version="1.1" id="layer_x5F_www.ABC-color.com"
	 xmlns="http://www.w3.org/2000/svg" xmlns:xlink="http://www.w3.org/1999/xlink" x="0px" y="0px" width="822px" height="567px"
	 viewBox="0 0 822 567" enable-background="new 0 0 822 567" xml:space="preserve">
<path fill="#FFFFFF" stroke="#000000" stroke-width="0.5" d="M398.8,178.6c1.2,4.5-3.3,3.7-3.3,3.7c-2.2,3.5-4.7-0.3-4.7-0.3
	c-4.7,2-2-3-2-3c-4.7-0.7,0-3.3,0-3.3c0-4.3,4.2-2,4.2-2c4.3-4,4.2,1.3,4.2,1.3C401.2,175.3,398.8,178.6,398.8,178.6z"/>
<path fill="#FFFFFF" stroke="#000000" stroke-width="0.5" d="M822.5,479.8V492v17.6l0,0c0-9.698,0-19.5,0-29.198l0,0
	c0-5.5,0-11,0-16.602c0-5.6,0-11.2,0-16.8v16V479.8z"/>
<path fill="#FFFFFF" stroke="#000000" stroke-width="0.5" d="M801.6,479c7.5,3.2,14.5,3.2,20.802,1.4c0,9.8,0,19.5-0.102,29.198
	c-5.2,0.4-11-0.5-17.3-3.5c5-3.8,9.8-10,9.8-10c2.4-5.698-15.898-13.3-17-13.698l-0.1-0.2C799.8,481.8,801,480.5,801.6,479z"/>
<path fill="#FFFFFF" stroke="#000000" stroke-width="0.5" d="M805.1,563.7c0,0,6.9-16.7-0.698-28.7c1.3,1.4,2.5,2.7,3.898,4
	c1.7,1.6,3.5,3.1,5.4,4.5c2.398,2.2,5.5,5.1,8.7,8.7c0,4.898,0,9.8,0.1,14.8h-23.3v-2.3C801.1,564.7,803.1,564.4,805.1,563.7z"/>
<path fill="#FFFFFF" stroke="#000000" stroke-width="0.5" d="M817.7,448.8c0.2,3.102-1.4,6.5-7.102,9.4c0,0,3.302,18-8.8,11.7
	c0,0-0.1-0.102-0.2-0.102c-0.3-0.2-0.698-0.398-1.1-0.6l-18.7-13.3c2.4-1.602,4.102-4.602,4.102-7.9c0-0.9-0.102-1.8-0.4-2.7
	l0.4-0.1l26.8-5.102C812.7,440.1,817.4,444,817.7,448.8z"/>
<path fill="#FFFFFF" stroke="#000000" stroke-width="0.5" d="M809.5,168.3c-3.3,0-6-2.7-6-6c0-3.3,2.7-6,6-6s6,2.7,6,6
	C815.5,165.6,812.8,168.3,809.5,168.3z"/>
<path fill="#FFFFFF" stroke="#000000" stroke-width="0.5" d="M786,445.2l-0.4,0.1v-0.1c-0.8-2.8-2.8-5-5.3-6
	c-0.2-0.102-0.398-0.2-0.6-0.2l0.7-0.1l11.1-28.302c0,0,16.7-7.8,15.7,12.2c0,0,16.7,4.3,5.5,17.3L786,445.2z"/>
<path fill="#FFFFFF" stroke="#000000" stroke-width="0.5" d="M801.7,469.8c0.1,0,0.1,0.102,0.2,0.102c12,6.3,8.8-11.7,8.8-11.7
	c5.7-2.9,7.3-6.3,7.1-9.4c0.9-0.3,0.2-1.7,3.7-1.8c0.3,0,0.7,0,1,0l0,0c0,5.6,0,11.2,0,16.8c0,5.602,0,11.102,0,16.602
	c-6.2,1.698-13.2,1.698-20.8-1.4c1.5-3.7,0-9,0-9V469.8z"/>
<path fill="#FFFFFF" stroke="#000000" stroke-width="0.5" d="M796.7,508.4c2.2,1.5,5.3,0.1,8.3-2.2c6.3,3,12.1,3.8,17.3,3.5
	c0,2.398,0,4.7,0,7.1l-0.2,9.5l0.2,14.9c0,3.7,0,7.3,0,11c-3.3-3.602-6.3-6.5-8.7-8.7c-3-2.7-5-4.2-5.398-4.5
	c-1.3-1.3-2.602-2.6-3.9-4c-2.398-3.8-6.3-7.1-12.3-9.3c1.8-1.4,0.9-5.4,0.9-5.4c8.5-3.398,1.198-8.1,1.198-8.1
	c1.7-1.602,2.302-2.8,2.2-3.9L796.7,508.4z"/>
<path fill="#FFFFFF" stroke="#000000" stroke-width="0.5" d="M797.7,482.3c-1.2,0.3-2.602,0.2-4.5-0.2c0,0-7,16.102-15,2v-2
	L777.6,457.2c1.602,0,3-0.5,4.302-1.3l18.698,13.3c0.4,0.2,0.802,0.398,1.102,0.6L801.6,469.9c0,0,1.5,5.3,0,9
	C801,480.5,799.8,481.8,797.7,482.3C797.8,482.3,797.8,482.3,797.7,482.3z"/>
<path fill="#FFFFFF" stroke="#000000" stroke-width="0.5" d="M787.1,525.4l-10.8-6c1.4-0.7,2.4-2.102,2.4-3.602
	c0-0.398-0.102-0.8-0.2-1.2l0.2-0.1l15.5-2.3c0,0,7.3,4.8-1.2,8.1c0,0,0.9,4-0.9,5.4c-0.8,0.6-2.198,0.7-4.3-0.101
	C787.6,525.6,787.3,525.5,787.1,525.4z"/>
<path fill="#FFFFFF" stroke="#000000" stroke-width="0.5" d="M533.5,191.3c-3.7-1.3-7.8-1.7-12.3-1.5c0-0.5,0-1,0-1.5
	c0-77.6,62.1-140.4,138.6-140.4C723,47.9,776.4,90.8,793,149.4l0.1,0.5c-4,0.8-8.198,1.6-12.398,2.5l0,0l-0.102-0.5
	C765.1,99.1,716.9,60.6,659.8,60.6c-69.6,0-126,57.2-126,127.7c0,1,0,2.1,0,3.1C533.7,191.3,533.6,191.3,533.5,191.3z"/>
<path fill="#FFFFFF" stroke="#000000" stroke-width="0.5" d="M780.1,180.1L780.1,180.1l14.9,5.1c0,0,1.2,6.7-8.5,5.7
	c0,0-4,7.6-12.8,2.3l-0.102-0.1c0,0,0-0.1,0.102-0.1l1.6-10.9V182c0.7-0.1,1.4-0.3,2-0.6C778.5,181.1,779.4,180.6,780.1,180.1z"/>
<path fill="#FFFFFF" stroke="#000000" stroke-width="0.5" d="M774.1,439.6c-0.198-1.6-2.3-16.698-6.8-30v0.102
	c0,0,0-0.102-0.1-0.102l0,0l0,0c-0.102-1.198-1.4-17.8,13.398-8.3c0,0,14.9-6.7,10.802,9.4L780.3,439l-0.7,0.1
	c-0.698-0.198-1.3-0.3-2-0.3C776.4,438.7,775.2,439,774.1,439.6z"/>
<path fill="#FFFFFF" stroke="#000000" stroke-width="0.5" d="M778.7,514.6l-0.2,0.102c0,0,0,0,0-0.102c-0.5-1.3-1.6-2.3-3.1-2.698
	l0.1-0.102l6.4-12.7c0,0,9.698-3.5,9.1,5.5c0,0,5.2,1,5.5,3.9c0.1,1-0.5,2.3-2.2,3.9L778.7,514.6z"/>
<path fill="#FFFFFF" stroke="#000000" stroke-width="0.5" d="M787.7,525.8c0,0,2.398,6.7-4.8,5.5c0,0-4,7.3-8.7,0.9v-0.9l-0.4-11.2
	c0.9,0,1.8-0.198,2.5-0.6l10.8,6C787.3,525.5,787.6,525.6,787.7,525.8L787.7,525.8z"/>
<path fill="#FFFFFF" stroke="#000000" stroke-width="0.5" d="M780.2,180.2L780.2,180.2c1.2-1.1,1.5-2.2,0.898-3.2l9-5.3l0,0
	c0.9-0.5,14.9-1.7,7.9,6c0,0,4.3,5.2-3,7.5L780.2,180.2z"/>
<path fill="#FFFFFF" stroke="#000000" stroke-width="0.5" d="M775.9,486.8c0.8-1.2,1.5-2.8,2.1-4.7h0.3v2c8,14.102,15-2,15-2
	c1.8,0.4,3.3,0.4,4.5,0.2l0,0l0.102,0.2c1.1,0.4,19.3,8,17,13.7c0,0-4.802,6.2-9.802,10c-3,2.3-6.1,3.7-8.3,2.2h-0.3
	c-0.3-2.9-5.5-3.9-5.5-3.9c0.6-9-9.1-5.5-9.1-5.5c1.198-3.4-0.2-4.6-1.9-4.8c-0.1,0-0.3,0-0.4,0l0.4-0.2L775.9,486.8z"/>
<path fill="#FFFFFF" stroke="#000000" stroke-width="0.5" d="M774.1,439.6c1.102-0.5,2.302-0.8,3.5-0.8c0.7,0,1.4,0.102,2,0.3
	c0.2,0.102,0.4,0.102,0.602,0.2c2.5,0.9,4.5,3.2,5.3,6v0.102c0.2,0.8,0.4,1.698,0.4,2.698c0,3.4-1.602,6.302-4.102,7.9
	c-1.3,0.8-2.7,1.3-4.3,1.3c-2.9,0-5.5-1.6-7-4.1c-0.9-1.5-1.4-3.2-1.4-5.102c0-1.398,0.302-2.6,0.802-3.8
	C770.9,442.1,772.3,440.5,774.1,439.6z"/>
<path fill="#FFFFFF" stroke="#000000" stroke-width="0.5" d="M775.9,486.8c-4.2,6.3-11.102,2.7-12.5-5.898
	c0,0-3.602,1.398-6.602,0.8c-3-0.602-5.3-3.5-2.1-12.2l0,0l16-16.5l0,0c1.5,2.5,4,4.1,7,4.1l0.6,24.9H778
	C777.4,484.1,776.7,485.6,775.9,486.8z"/>
<path fill="#FFFFFF" stroke="#000000" stroke-width="0.5" d="M746,523.7c0,0,1,14.1,11.5,16.5c0,0,8.8-5.2,8.1-9.5
	c0.602,2.6,2.602,4.2,4.602,4.1c0.5,2.102,2.1,7.8,3.8,14.8l0,0c1.3,5.302,2.6,11.5,3.5,17.4l0,0l-16.9,0.3L741,567h-1.6l0,0
	c-5.602-8.8-8.802-16.3-9-16.3v-0.3c14.198-1.2,10.1-23.102,10.1-23.102c2.1-1.1,3.7-2.3,4.9-3.7L746,523.7z"/>
<path fill="#FFFFFF" stroke="#000000" stroke-width="0.5" d="M775.3,182.1c-3.1,0.6-6.6,0.3-7-1.1c-0.398-1.1,0-2.3,1.3-3.3
	c0.7-0.6,1.7-1.1,2.9-1.5c0.9-0.3,1.8-0.5,2.8-0.6c2.7-0.3,5.3,0.3,5.9,1.4c0.6,1,0.2,2.1-1,3.1c-0.7,0.5-1.602,1-2.8,1.5
	C776.7,181.8,776,182,775.3,182.1z"/>
<path fill="#FFFFFF" stroke="#000000" stroke-width="0.5" d="M775.2,175.6c0-0.1,1.8-4.4,1.3-7h0.1c0,0,2.602-5.7,9.602-1.3
	c0,0,5.3,0.4,4.2,4.2l-0.302,0.1l-9,5.3C780.5,176,777.9,175.3,775.2,175.6L775.2,175.6z"/>
<path fill="#FFFFFF" stroke="#000000" stroke-width="0.5" d="M773.8,520c-1.7,0-3.2-0.7-4-1.9c-0.5-0.698-0.8-1.5-0.8-2.3
	c0-0.6,0.2-1.2,0.4-1.7c0.5-0.898,1.3-1.698,2.398-2.1c0.602-0.2,1.3-0.4,2-0.4c0.5,0,1.102,0.102,1.5,0.2
	c1.5,0.4,2.602,1.4,3.102,2.7c0,0,0,0,0,0.1c0.1,0.4,0.198,0.802,0.198,1.2c0,1.5-1,2.8-2.398,3.602
	C775.6,519.8,774.7,520,773.8,520z"/>
<path fill="#FFFFFF" stroke="#000000" stroke-width="0.5" d="M773.9,549.6c-1.7-7-3.302-12.698-3.802-14.8c1.5-0.1,3-1.2,3.9-3.5
	h0.2v0.9c4.6,6.398,8.7-0.9,8.7-0.9c7.3,1.2,4.8-5.5,4.8-5.5v-0.1c2.1,0.898,3.5,0.8,4.3,0.1c6,2.102,9.9,5.5,12.3,9.3
	c7.602,11.9,0.7,28.7,0.7,28.7c-2,0.7-4,0.9-6,0.9c-6.3,0-12-3.102-16.3-6.4c-5.3-4.1-8.602-8.7-8.7-8.7H773.9z"/>
<path fill="#FFFFFF" stroke="#000000" stroke-width="0.5" d="M774.1,549.5c0.102,0,3.4,4.6,8.7,8.7c4.3,3.398,10,6.398,16.3,6.398
	v2.302h-12.5H777.7h-0.4l0,0c-0.898-6-2.2-12.102-3.5-17.4l0,0H774.1z"/>
<path fill="#FFFFFF" stroke="#000000" stroke-width="0.5" d="M751.2,412.6c0,0,8.2-21.398,16.2-3.1l0,0l0,0l0,0
	c4.398,13.2,6.5,28.4,6.8,30c-1.8,0.9-3.3,2.6-4.102,4.6L769.7,444c0,0-21.9-10.1-23.7-11.4C741.3,429.1,737.3,415,751.2,412.6z"/>
<path fill="#FFFFFF" stroke="#000000" stroke-width="0.5" d="M791.9,231.5l-17.9-5.9l-0.1-0.1c1.5-1.2,2-2.5,1.198-3.6l10.802-6.2
	l0,0c1.1-0.6,18-2,9.5,7C795.5,222.7,800.8,228.9,791.9,231.5z"/>
<path fill="#FFFFFF" stroke="#000000" stroke-width="0.5" d="M774.1,225.6l17.9,5.9c0,0,1.5,7.8-10.3,6.7c0,0-4.8,8.9-15.4,2.7
	l-0.1-0.1l0.1-0.1l1.9-12.8v-0.1c0.8-0.2,1.7-0.4,2.5-0.7c1.398-0.5,2.5-1.1,3.3-1.7L774.1,225.6z"/>
<path fill="#FFFFFF" stroke="#000000" stroke-width="0.5" d="M749.2,287c2.1-1.6,2.7-3.4,1.7-5l14.698-8.6l0,0l0,0
	c1.7-0.9,24.4-2.7,12.9,9.7c0,0,7.1,8.4-4.9,12.1L749.4,287.1L749.2,287z"/>
<path fill="#FFFFFF" stroke="#000000" stroke-width="0.5" d="M768.3,181c0.5,1.4,3.9,1.7,7,1.1v0.1l-1.6,10.9l-0.102,0.1
	c-4.6,5.4-10.198-2-11.898-2c-12.5,0.1-5.5-6.6-5.5-6.6L768.3,181z"/>
<path fill="#FFFFFF" stroke="#000000" stroke-width="0.5" d="M767.9,498.6L767.9,498.6c-0.102-0.6-0.802-8.1,7.698-3.8
	c0,0,2.102-0.7,3.9-0.6c0.1,0,0.3,0,0.4,0c1.698,0.2,3.1,1.398,1.898,4.8l-6.398,12.7l-0.102,0.1c-0.5-0.2-1-0.2-1.5-0.2
	c-0.7,0-1.398,0.102-2,0.4C771.7,511.4,770.4,504.6,767.9,498.6L767.9,498.6z"/>
<path fill="#FFFFFF" stroke="#000000" stroke-width="0.5" d="M765.9,169.1c4.5-5.9,9.398-2.3,9.398-2.3c0.7,0.3,1,1,1.2,1.8
	c0.5,2.6-1.3,6.9-1.3,7v0.1c-0.9,0.1-1.9,0.3-2.8,0.6c-1.2,0.4-2.2,1-2.9,1.5c-3.3-0.5-5.8-1-7.6-1.5l0,0
	c-0.102,0-0.802-0.3-1.802-0.6C752.3,172.4,765.9,169.1,765.9,169.1z"/>
<path fill="#FFFFFF" stroke="#000000" stroke-width="0.5" d="M769.2,514.1c0,0-12.7-4.5-13.7-5.1c-2.7-1.6-4.2-7.8,3.8-8.8
	c0,0,3.9-9.8,8.602-1.602l0,0c2.6,6,3.8,12.802,3.898,13.5c-1.1,0.4-1.898,1.2-2.398,2.102L769.2,514.1z"/>
<path fill="#FFFFFF" stroke="#000000" stroke-width="0.5" d="M770.1,534.8c-2,0.102-4-1.5-4.6-4.1c0,0-8.7,2.7-5-5.102l9.3-7.398
	c0.9,1.1,2.3,1.898,4,1.898l0.4,11.2H774C773.1,533.6,771.6,534.7,770.1,534.8z"/>
<path fill="#FFFFFF" stroke="#000000" stroke-width="0.5" d="M768.1,227.9c-3.8,0.7-8,0.3-8.5-1.3c-0.5-1.3,0.102-2.6,1.602-3.8
	c0.898-0.6,2-1.2,3.5-1.8c1.1-0.4,2.2-0.6,3.3-0.7c3.3-0.3,6.4,0.4,7.2,1.6c0.7,1.1,0.3,2.4-1.2,3.6c-0.8,0.6-1.9,1.2-3.3,1.7
	C769.8,227.5,769,227.8,768.1,227.9z"/>
<path fill="#FFFFFF" stroke="#000000" stroke-width="0.5" d="M740.7,436.2c1.1-1.3,2.898-2.5,5.3-3.5
	c1.8,1.3,23.7,11.398,23.7,11.398l0.398,0.102c-0.5,1.2-0.8,2.398-0.8,3.8c0,1.9,0.5,3.6,1.4,5.1l0,0l-16,16.5l0,0
	c-0.2,0.102-11.7,8.2-11-5.5c0.1-2.6,0.7-6.1,2-10.6C745.6,453.4,734.1,443.5,740.7,436.2z"/>
<path fill="#FFFFFF" stroke="#000000" stroke-width="0.5" d="M768,220.2c0,0,2.2-5,1.6-8.1l0,0h0.102c0,0,3.1-6.7,11.6-1.5
	c0,0,6.4,0.4,5.102,4.9l-0.302,0.2l-10.8,6.2C774.4,220.7,771.2,220,768,220.2L768,220.2z"/>
<path fill="#FFFFFF" stroke="#000000" stroke-width="0.5" d="M769.8,518.1l-9.3,7.4c0,0-9.7,5.3-5.3-7.3c0,0-3.8-2.5-4-5.2
	c-0.102-1.5,0.8-3,4.3-4.2c1,0.602,13.7,5.102,13.7,5.102l0.2,0.1c-0.302,0.5-0.4,1.1-0.4,1.7C769,516.7,769.3,517.5,769.8,518.1z"
	/>
<path fill="#FFFFFF" stroke="#000000" stroke-width="0.5" d="M768.3,181l-12,3.7c-7.1-1.2-2.398-6.1-2.398-6.1
	c-1.5-4.8,3.5-3.9,6.3-3c0.5,0.2,1.1,0.4,1.8,0.6l0,0c1.8,0.5,4.3,1,7.6,1.5C768.3,178.8,767.9,179.9,768.3,181z"/>
<path fill="#FFFFFF" stroke="#000000" stroke-width="0.5" d="M751.2,513.1c0.2,2.7,4,5.2,4,5.2c-4.4,12.602,5.3,7.3,5.3,7.3
	c-3.6,7.802,5,5.102,5,5.102c0.8,4.3-8.1,9.5-8.1,9.5c-10.4-2.4-11.5-16.5-11.5-16.5L745.3,523.6c2.9-3.198,3.5-6.8,3-10.3
	L751.2,513.1z"/>
<path fill="#FFFFFF" stroke="#000000" stroke-width="0.5" d="M759.6,226.6c0.602,1.6,4.802,2,8.5,1.3v0.1l-1.898,12.8l-0.102,0.1
	c-5.6,6.4-12.3-2.3-14.3-2.3c-15.1,0.1-6.6-7.7-6.6-7.7L759.6,226.6z"/>
<path fill="#FFFFFF" stroke="#000000" stroke-width="0.5" d="M756.7,212.7c5.398-6.9,11.398-2.7,11.398-2.7
	c0.802,0.4,1.2,1.1,1.4,2.1l0,0c0.6,3.1-1.6,8.1-1.6,8.1v0.1c-1.102,0.1-2.302,0.4-3.302,0.7c-1.5,0.5-2.6,1.1-3.5,1.8
	c-4-0.6-7-1.2-9.198-1.8l0,0l0,0c-0.2-0.1-1.102-0.4-2.2-0.7C740.3,216.5,756.7,212.7,756.7,212.7z"/>
<path fill="#FFFFFF" stroke="#000000" stroke-width="0.5" d="M756.8,481.7c3,0.6,6.602-0.8,6.602-0.8c1.5,8.6,8.3,12.1,12.5,5.898
	l4,7.2l-0.4,0.2c-1.9-0.102-3.9,0.6-3.9,0.6c-8.5-4.3-7.8,3.2-7.8,3.8l0,0l0,0c-4.6-8.3-8.6,1.602-8.6,1.602l-3.5-5.5
	C755.7,494.6,760.2,488,756.8,481.7z"/>
<path fill="#FFFFFF" stroke="#000000" stroke-width="0.5" d="M741.2,279.7c0,0,2.898-7,2.1-11.2h0.102c0,0,4.3-9.3,15.698-2
	c0,0,8.602,0.6,6.9,6.7l-0.4,0.2l0,0L750.9,282C749.9,280.4,745.6,279.4,741.2,279.7L741.2,279.7z"/>
<path fill="#FFFFFF" stroke="#000000" stroke-width="0.5" d="M759.6,226.6l-14.5,4.3c-8.6-1.4-3-7.1-3-7.1
	c-1.8-5.5,4.2-4.5,7.602-3.5c0.6,0.2,1.3,0.5,2.2,0.7l0,0l0,0c2.198,0.6,5.198,1.2,9.198,1.8C759.7,224,759.2,225.3,759.6,226.6z"/>
<path fill="#FFFFFF" stroke="#000000" stroke-width="0.5" d="M749.4,287.2l24.198,8.1c0,0,2,10.7-13.898,9.2c0,0-6.5,12.2-20.9,3.8
	l-0.1-0.1c0-0.101,0.1-0.101,0.1-0.2l2.602-17.6V290.3c1.198-0.2,2.3-0.5,3.3-0.899c2-0.699,3.5-1.5,4.5-2.399L749.4,287.2z"/>
<path fill="#FFFFFF" stroke="#000000" stroke-width="0.5" d="M748.4,513.3c0.5,3.5-0.102,7.102-3,10.3
	c-1.2,1.302-2.802,2.602-4.9,3.7L705.3,508l-0.1-0.1c2.8-3.9,3.898-8.2,2.3-11.302c-0.2-0.3-0.3-0.6-0.5-0.898l0.4-0.2l25.398-20.4
	c0,0,14.7,1.2,14.102,13.7c-0.102,3.2-1.302,7.3-4,12.2C742.9,500.9,747.5,506.7,748.4,513.3z"/>
<path fill="#FFFFFF" stroke="#000000" stroke-width="0.5" d="M748.4,513.3c-0.9-6.6-5.5-12.3-5.5-12.3c2.698-4.9,3.898-9,4-12.2
	c0.898,1.5,4.6,6.9,8.8,5.9l3.5,5.5c-8.102,1.1-6.602,7.2-3.8,8.8c-3.4,1.1-4.4,2.7-4.302,4.2L748.4,513.3z"/>
<path fill="#FFFFFF" stroke="#000000" stroke-width="0.5" d="M741.4,290.3c-5.102,1-10.802,0.5-11.5-1.8
	c-0.602-1.8,0.1-3.6,2.198-5.3c1.102-0.9,2.7-1.7,4.7-2.5c1.4-0.5,3-0.8,4.5-1c4.4-0.4,8.7,0.5,9.7,2.2c1,1.5,0.4,3.4-1.7,5
	c-1.1,0.898-2.6,1.699-4.5,2.398C743.7,289.8,742.5,290.1,741.4,290.3z"/>
<ellipse fill="#FFFFFF" stroke="#000000" stroke-width="0.5" cx="743" cy="202.3" rx="5.5" ry="4"/>
<path fill="#FFFFFF" stroke="#000000" stroke-width="0.5" d="M737.2,436.2c0.6-2.4-2.5-4.602-2.5-4.602c5.8-5.6-2.9-7.5-2.9-7.5
	c0.102-1.898-0.2-3.198-0.8-4.1c0.8-4.2,0.7-7.9,0-11.1c2.5-1.9,10.9-17.501,13.9-12c3.1,5.898,6.3,10.198,6.3,15.698
	c-13.9,2.4-9.9,16.5-5.2,20c-2.4,1-4.2,2.302-5.3,3.5h-3.5V436.2z"/>
<path fill="#FFFFFF" stroke="#000000" stroke-width="0.5" d="M705.2,507.9l0.1,0.1l35.102,19.2c0,0,4.1,21.898-10.102,23.1
	c-0.398,0-0.8,0-1.2,0c-3.1,0-7.1-0.898-12-3.1c0,0-1.3,7.1-4.6,12.3v0.1c-3.8,6-10.2,9.602-20.4-3L694.2,516.9l-0.2-0.5
	c1.3-0.5,2.7-1.2,4-2C701,512.7,703.4,510.4,705.2,507.9z"/>
<path fill="#FFFFFF" stroke="#000000" stroke-width="0.5" d="M729.8,288.5c0.8,2.3,6.5,2.8,11.5,1.8v0.101l-2.6,17.601
	c0,0.101-0.102,0.101-0.102,0.2C731,317,721.9,305,719.1,305c-20.5,0.2-9-10.6-9-10.6L729.8,288.5z"/>
<path fill="#FFFFFF" stroke="#000000" stroke-width="0.5" d="M725.9,269.3c7.398-9.5,15.5-3.7,15.5-3.7c1.1,0.5,1.698,1.6,1.898,2.9
	c0.8,4.3-2.1,11.2-2.1,11.2v0.1c-1.5,0.2-3.102,0.5-4.5,1c-2,0.7-3.602,1.6-4.7,2.5c-5.4-0.8-9.5-1.6-12.4-2.5l0,0
	c-0.1-0.1-1.3-0.5-3-1C703.6,274.6,725.9,269.3,725.9,269.3z"/>
<path fill="#FFFFFF" stroke="#000000" stroke-width="0.5" d="M729,186.3c-4.7,0-8.5-2.7-8.5-6c0-3.3,3.8-6,8.5-6s8.5,2.7,8.5,6
	C737.5,183.6,733.7,186.3,729,186.3z"/>
<path fill="#FFFFFF" stroke="#000000" stroke-width="0.5" d="M732.2,457.3c2.3,6.7,11.398,6.7,11.398,6.7h0.102
	c-0.7,13.7,10.8,5.6,11,5.5c-3.2,8.7-0.9,11.5,2.1,12.2c3.5,6.3-1,12.898-1,12.898c-4.2,1-7.898-4.398-8.8-5.898
	c0.5-12.5-14.1-13.7-14.1-13.7c0.6-2.4,0.5-4.4,0-6C734.2,465.9,733.4,461.3,732.2,457.3L732.2,457.3z"/>
<path fill="#FFFFFF" stroke="#000000" stroke-width="0.5" d="M733.6,439.4c0,0,1.7,7.898-4.698,5l0,0
	c-0.2-0.102-0.4-0.2-0.602-0.302l-9.7-5.8c1.302-0.7,2.102-2,2.102-3.5c0-0.398,0-0.8-0.2-1.1h0.2l14-2.2c0,0,3.1,2.2,2.5,4.6
	C737,437.3,736,438.4,733.6,439.4z"/>
<path fill="#FFFFFF" stroke="#000000" stroke-width="0.5" d="M720.8,433.8h-0.2l0,0c-0.398-1.2-1.398-2.2-2.8-2.6l0.102-0.102
	l5.8-12.3c0,0,5.3-2.1,7.398,1.2c0.5,0.9,0.9,2.2,0.802,4.1c0,0,8.698,1.9,2.898,7.5L720.8,433.8z"/>
<path fill="#FFFFFF" stroke="#000000" stroke-width="0.5" d="M728.5,449.1c1.4-1.5,0.4-4.5,0.4-4.5v-0.1l0,0
	c6.398,2.8,4.698-5,4.698-5c2.4-1,3.4-2.2,3.602-3.3h3.398c-6.6,7.3,5,17.3,5,17.3c-1.198,4.5-1.8,8-2,10.6h-0.1
	c0,0-9.1,0-11.4-6.698H732C730.6,452.8,728.6,449.1,728.5,449.1L728.5,449.1z"/>
<path fill="#FFFFFF" stroke="#000000" stroke-width="0.5" d="M728.5,449.1c-0.6,0.7-1.8,1.2-4,0.802c0,0-3.6,7-7.8,0.8v-0.8l0,0
	l-0.3-10.802c0.8,0,1.6-0.198,2.198-0.6l9.7,5.8c0.2,0.102,0.4,0.2,0.602,0.3v0.102C728.9,444.6,729.9,447.5,728.5,449.1z"/>
<path fill="#FFFFFF" stroke="#000000" stroke-width="0.5" d="M729.8,288.5l-19.6,5.9c-11.602-1.9-4-9.801-4-9.801
	c-2.5-7.601,5.7-6.201,10.3-4.899c0.8,0.3,1.8,0.7,3,1l0,0c3,0.9,7,1.7,12.4,2.5C729.9,284.9,729.2,286.7,729.8,288.5z"/>
<path fill="#FFFFFF" stroke="#000000" stroke-width="0.5" d="M712.3,413c-0.3-2.4-1-4.4-1.898-6.1c1.198-2.602,7.3-14.9,11.3-13.102
	c0,0,7.3,5.2,9.398,15.102c0.7,3.198,0.802,6.898,0,11.1c-2-3.3-7.398-1.2-7.398-1.2c2.2-7-5.602-4.1-5.602-4.1
	c-2.6-1.4-4.198-1.5-5.198-1L712.3,413z"/>
<path fill="#FFFFFF" stroke="#000000" stroke-width="0.5" d="M712.6,559.6c3.302-5.3,4.602-12.3,4.602-12.3
	c4.898,2.2,8.8,3.102,12,3.102c0.398,0,0.8,0,1.2,0v0.3c0.198,0,3.398,7.5,9,16.3l0,0h-15.7H713.1H711.9c1-3,1.398-5.5,1-7.2
	L712.6,559.6z"/>
<path fill="#FFFFFF" stroke="#000000" stroke-width="0.5" d="M714.6,431.4c0.5-0.2,1.2-0.4,1.802-0.4c0.5,0,1,0.1,1.398,0.2
	c1.3,0.398,2.4,1.398,2.8,2.6l0,0c0.102,0.4,0.2,0.8,0.2,1.102c0,1.5-0.8,2.8-2.1,3.5c-0.602,0.398-1.4,0.6-2.2,0.6
	c-1.5,0-2.8-0.7-3.6-1.8c-0.5-0.602-0.7-1.4-0.7-2.2c0-0.6,0.2-1.1,0.398-1.6C712.9,432.5,713.7,431.8,714.6,431.4z"/>
<path fill="#FFFFFF" stroke="#000000" stroke-width="0.5" d="M709,449.3c0,0-3.3,1.102-4.7-0.2c-0.8-0.698-1-2.1,0.102-4.8l8.3-7.2
	c0.8,1.102,2.1,1.802,3.6,1.802l0.3,10.8l0,0h-0.2C714.8,455.1,709.9,453.8,709,449.3z"/>
<path fill="#FFFFFF" stroke="#000000" stroke-width="0.5" d="M711.1,418.4C711.1,418.3,711.1,418.3,711.1,418.4
	c0-0.102-0.1-0.4-0.1-0.802c0-1.1,0.2-3.1,1.8-3.8c1-0.5,2.7-0.398,5.2,1c0,0,7.8-2.898,5.6,4.102l-5.8,12.3l-0.1,0.1
	c-0.4-0.1-0.9-0.2-1.4-0.2c-0.7,0-1.3,0.102-1.8,0.4C714.5,430.7,713.4,424.1,711.1,418.4C711.1,418.3,711.1,418.4,711.1,418.4z"/>
<path fill="#FFFFFF" stroke="#000000" stroke-width="0.5" d="M703.4,419.8c0,0,3.5-9.5,7.698-1.5l0,0l0,0c2.302,5.8,3.4,12.4,3.5,13
	c-1,0.4-1.698,1.102-2.198,2l-0.2-0.1c0,0-11.4-4.4-12.3-4.9c-1.7-1.1-2.802-4.2-1.102-6.398C699.7,420.9,701.1,420.1,703.4,419.8z"
	/>
<path fill="#FFFFFF" stroke="#000000" stroke-width="0.5" d="M730.8,229.5l-17.898-5.9l-0.102-0.1c1.5-1.2,2-2.5,1.2-3.6l10.8-6.2
	l0,0c1.102-0.6,18-2,9.5,7C734.4,220.7,739.7,226.8,730.8,229.5z"/>
<path fill="#FFFFFF" stroke="#000000" stroke-width="0.5" d="M712.9,223.6l17.898,5.9c0,0,1.5,7.8-10.3,6.7c0,0-4.8,8.9-15.4,2.8
	l-0.1-0.1l0.1-0.1L707,226l0,0c0.8-0.2,1.7-0.4,2.5-0.7c1.4-0.5,2.5-1.1,3.3-1.7H712.9z"/>
<path fill="#FFFFFF" stroke="#000000" stroke-width="0.5" d="M704.5,444.4c0,0-5.2,3.1-5.7-1.2c-0.2-1.2,0.102-3.102,1-5.8
	c0,0-8.3-6,0.2-9c0.9,0.6,12.3,4.898,12.3,4.898l0.2,0.102c-0.2,0.5-0.4,1-0.4,1.6c0,0.8,0.302,1.6,0.7,2.2L704.5,444.4z"/>
<path fill="#5A9E58" stroke="#000000" stroke-width="0.5" d="M711.1,418.3L711.1,418.3L711.1,418.3L711.1,418.3z"/>
<path fill="#FFFFFF" stroke="#000000" stroke-width="0.5" d="M697,492.3c0,0,3.1-15.7,1.5-25.398c0.4-1.2,2-5.9,5.2-8.7
	c3.5-3,8.898-3.9,16.6,4.3c0,0,10.5-0.5,12.602,6.6c0.5,1.602,0.5,3.602,0,6l-25.4,20.4l-0.4,0.2c-1.898-2.602-5.6-3.602-9.898-2.9
	L697,492.3z"/>
<path fill="#FFFFFF" stroke="#000000" stroke-width="0.5" d="M707,225.9c-3.8,0.7-8,0.3-8.5-1.3c-0.5-1.3,0.1-2.6,1.6-3.8
	c0.9-0.6,2-1.2,3.5-1.8c1.102-0.4,2.2-0.6,3.302-0.7c3.3-0.3,6.398,0.4,7.198,1.6c0.7,1.1,0.302,2.4-1.198,3.6
	c-0.802,0.6-1.9,1.2-3.302,1.7C708.7,225.5,707.9,225.8,707,225.9z"/>
<path fill="#FFFFFF" stroke="#000000" stroke-width="0.5" d="M706.9,218.2c0,0,2.198-5,1.6-8.1h0.1c0,0,3.102-6.7,11.602-1.5
	c0,0,6.398,0.4,5.1,4.9l-0.3,0.2l-10.8,6.2C713.3,218.7,710.1,218,706.9,218.2L706.9,218.2z"/>
<path fill="#FFFFFF" stroke="#000000" stroke-width="0.5" d="M697.1,492.8c4.302-0.7,8,0.2,9.9,2.9c0.2,0.3,0.4,0.6,0.5,0.898
	c1.5,3.2,0.5,7.4-2.3,11.302c-1.8,2.5-4.2,4.8-7.2,6.6c-1.3,0.8-2.7,1.5-4,2c-6.4,2.6-12.5,1.6-14.5-2.6c-1.7-3.4-0.3-8.102,3-12.2
	c1.7-2.102,3.9-4.102,6.5-5.7C691.7,494.3,694.5,493.2,697.1,492.8z"/>
<path fill="#FFFFFF" stroke="#000000" stroke-width="0.5" d="M698.7,451.5c0.6-2,4.6-2.3,5.7-2.3c1.398,1.3,4.698,0.2,4.698,0.2
	c0.9,4.398,5.802,5.8,7.602,0.5h0.2v0.8c4.198,6.2,7.8-0.8,7.8-0.8c2.1,0.398,3.3,0,4-0.802h0.1c0,0,2,3.7,3.5,8.2
	c1.3,4,2.102,8.602,0.7,11.7c-2.1-7.1-12.6-6.6-12.6-6.6c-7.801-8.199-13.101-7.3-16.601-4.3L703.4,457.7
	C702.2,457.8,698,453.8,698.7,451.5z"/>
<path fill="#FFFFFF" stroke="#000000" stroke-width="0.5" d="M698.5,224.6c0.6,1.6,4.8,2,8.5,1.3l0,0l-1.9,12.8l-0.1,0.1
	c-5.6,6.4-12.3-2.3-14.3-2.3c-15.102,0.1-6.602-7.7-6.602-7.7L698.5,224.6z"/>
<path fill="#FFFFFF" stroke="#000000" stroke-width="0.5" d="M695.6,210.7c5.4-6.9,11.4-2.7,11.4-2.7c0.8,0.4,1.2,1.1,1.4,2.1
	c0.6,3.1-1.602,8.1-1.602,8.1v0.1c-1.1,0.1-2.3,0.4-3.3,0.7c-1.5,0.5-2.6,1.1-3.5,1.8c-4-0.6-7-1.2-9.1-1.8c0,0,0,0-0.102,0
	c-0.2-0.1-1.1-0.4-2.2-0.7C679.2,214.5,695.6,210.7,695.6,210.7z"/>
<path fill="#FFFFFF" stroke="#000000" stroke-width="0.5" d="M676.4,413c0,0,7.198,0.2,13.5,2.5l0,0c3.5,1.3,6.698,3.2,8.398,6.1
	l0.5,0.302c-1.8,2.198-0.6,5.3,1.102,6.398c-8.5,3.102-0.2,9-0.2,9c-0.9,2.7-1.2,4.602-1,5.8h-0.4c-0.2-0.1-1.6-1.198-3.7-3
	c-4.198-3.6-11-9.898-15-16.398C677.4,420.2,676,416.4,676.4,413z"/>
<path fill="#FFFFFF" stroke="#000000" stroke-width="0.5" d="M664.4,474.2c4.8-3.102,9.6-5,9.6-5c2.4-7.3,6-10.3,9.7-11.2
	c1.5-0.4,3.1-0.4,4.5-0.2c4.1,0.5,7.3,2.8,7.3,2.8c1.5,1.302,2.4,3.602,2.9,6.4c1.6,9.7-1.5,25.4-1.5,25.4l0.1,0.5
	c-2.6,0.398-5.4,1.5-8.1,3.198c-2.602,1.602-4.802,3.602-6.5,5.7c-7.5-1.898-13.2-3.8-17.302-5.8c0,0,0,0-0.1,0
	c-0.3-0.1-1.2-0.7-2.5-1.3C649.4,487,656.8,479.1,664.4,474.2L664.4,474.2z"/>
<path fill="#FFFFFF" stroke="#000000" stroke-width="0.5" d="M695.5,197.3c-3.9,0-7-1.8-7-4c0-2.2,3.1-4,7-4s7,1.8,7,4
	C702.5,195.5,699.4,197.3,695.5,197.3z"/>
<ellipse fill="#FFFFFF" stroke="#000000" stroke-width="0.5" cx="695.5" cy="176.8" rx="4" ry="5.5"/>
<path fill="#FFFFFF" stroke="#000000" stroke-width="0.5" d="M698.5,224.6l-14.5,4.3c-8.6-1.4-3-7.1-3-7.1c-1.8-5.5,4.2-4.5,7.6-3.5
	c0.602,0.2,1.302,0.5,2.2,0.7c0,0,0,0,0.102,0c2.198,0.6,5.198,1.2,9.1,1.8C698.6,222,698,223.3,698.5,224.6z"/>
<path fill="#FFFFFF" stroke="#000000" stroke-width="0.5" d="M690,415.4c0,0-6.6-12.9-2.8-15.7c0,0,17.1-3.8,23.1,7.3
	c0.9,1.7,1.602,3.7,1.9,6.1l0.6,0.7c-1.5,0.7-1.8,2.7-1.8,3.8c0,0.4,0,0.7,0,0.802l0,0l0,0l0,0c-4.2-7.9-7.7,1.5-7.7,1.5
	c-2.3,0.3-3.7,1.1-4.5,2.1l-0.5-0.3c-1.7-2.9-4.898-4.8-8.398-6.102l0,0L690,415.4z"/>
<path fill="#FFFFFF" stroke="#000000" stroke-width="0.5" d="M692.1,556.7c-4.198,8.3-8.898,9.2-13.198,7.3c-2.9-1.2-5.5-3.7-7.9-6
	c-2.9-2.9-5.2-5.7-6.5-5.7c-17.5,0.2-18.2-9.2-16.2-16.398c1.3-4.602,3.7-8.302,3.7-8.302l27.3-13.698
	c2.102,4.3,8.102,5.198,14.5,2.6l0.2,0.5L692.1,556.7z"/>
<path fill="#FFFFFF" stroke="#000000" stroke-width="0.5" d="M655.6,418.5c3-4.1,21.9,2.2,23.9,5.5l0.2-0.1
	c4,6.5,10.8,12.8,15,16.398c-11.102-5.398-13.7-1.7-13.7-1.7s-9-8.3-10.4-5.1c-1.1,2.6-0.398,6.2,0.5,7.9
	c-4.3-3.9-8.898-6.5-13.398-8.302C657.3,432.3,652.6,422.7,655.6,418.5z"/>
<path fill="#FFFFFF" stroke="#000000" stroke-width="0.5" d="M681,438.5c0,0,2.6-3.7,13.7,1.7c2.1,1.8,3.5,2.8,3.7,3h0.398
	c0.5,4.3,5.7,1.2,5.7,1.2c-1.2,2.698-0.9,4-0.1,4.8c-1.102,0-5,0.3-5.7,2.3c-0.7,2.3,3.5,6.3,4.5,6.3l0.398,0.4
	c-3.198,2.8-4.8,7.5-5.198,8.7c-0.5-2.802-1.4-5.102-2.9-6.4c0,0-3.2-2.2-7.3-2.8C687.5,456.9,677.6,446.5,681,438.5z"/>
<path fill="#FFFFFF" stroke="#000000" stroke-width="0.5" d="M699.9,267.5l-17.9-5.9l-0.1-0.1c1.5-1.2,2-2.5,1.198-3.6l10.9-6.3l0,0
	c1.4-0.6,17.9-1.9,9.5,7C703.5,258.7,708.8,264.9,699.9,267.5z"/>
<path fill="#FFFFFF" stroke="#000000" stroke-width="0.5" d="M682.1,261.6l17.9,5.9c0,0,1.5,7.8-10.3,6.7c0,0-4.8,8.9-15.4,2.7
	l-0.1-0.1l0.1-0.1l1.9-12.8l0,0c0.8-0.2,1.7-0.4,2.5-0.7c1.398-0.5,2.5-1.1,3.3-1.7L682.1,261.6z"/>
<path fill="#FFFFFF" stroke="#000000" stroke-width="0.5" d="M658.3,314.8l21.3,11c0,0,1.7,14.5-12.3,12.4c0,0-5.7,16.5-18.398,5.1
	l-0.2-0.1c0-0.101,0.1-0.2,0.2-0.3l2.3-23.801V319c1-0.3,2-0.7,3-1.3c1.7-0.9,3-2,3.898-3.2l0,0L658.3,314.8z"/>
<path fill="#FFFFFF" stroke="#000000" stroke-width="0.5" d="M679.6,325.9l-21.3-11l-0.2-0.102c1.802-2.199,2.4-4.699,1.5-6.8
	l12.9-11.601l0,0c1.3-1.199,21.5-3.801,11.3,13.101C683.9,309.4,690.1,320.8,679.6,325.9z"/>
<path fill="#FFFFFF" stroke="#000000" stroke-width="0.5" d="M679.4,567h-1.7c0.6-1.8,1.1-2.9,1.1-2.9l0.102-0.1
	c4.3,1.8,8.898,0.9,13.198-7.3c10.2,12.6,16.602,9,20.4,3V559.6l0.4,0.2c0.398,1.7,0,4.2-1,7.2H679.4L679.4,567z"/>
<path fill="#FFFFFF" stroke="#000000" stroke-width="0.5" d="M664.4,474.1C656.7,459.5,645.3,454.9,634.1,454.9
	c-2.198,0-4.398,0.198-6.5,0.5l-0.1-0.5c0,0-5.9-16.5-1-20.802c3.8-3.398,17.2-6.698,31.3-1.198c4.5,1.8,9,4.398,13.4,8.3
	c4.6,4.1,8.898,9.5,12.7,16.7c-3.7,0.898-7.302,3.898-9.7,11.198C674,469.1,669.2,471.1,664.4,474.1L664.4,474.1L664.4,474.1z"/>
<path fill="#FFFFFF" stroke="#000000" stroke-width="0.5" d="M676.1,263.9c-3.8,0.7-8,0.3-8.5-1.3c-0.5-1.3,0.102-2.6,1.602-3.8
	c0.898-0.6,2-1.2,3.5-1.8c1.1-0.4,2.2-0.6,3.3-0.7c3.3-0.3,6.4,0.4,7.2,1.6c0.7,1.1,0.3,2.4-1.2,3.6c-0.8,0.6-1.9,1.2-3.3,1.7
	C677.8,263.5,677,263.8,676.1,263.9z"/>
<path fill="#FFFFFF" stroke="#000000" stroke-width="0.5" d="M683.2,257.9c-0.8-1.2-3.9-1.9-7.2-1.6v-0.1c0,0,2.2-5,1.6-8.1l0,0
	h0.102c0,0,3.1-6.7,11.6-1.5c0,0,6.4,0.4,5.102,4.9l-0.302,0.1L683.2,257.9z"/>
<ellipse fill="#FFFFFF" stroke="#000000" stroke-width="0.5" cx="675" cy="203.8" rx="5.5" ry="6.5"/>
<path fill="#FFFFFF" stroke="#000000" stroke-width="0.5" d="M663.2,567c2.5-2.8,5.2-5.8,7.8-9c2.3,2.3,5,4.8,7.9,6l-0.102,0.1
	c0,0-0.5,1.102-1.1,2.9H663.2z"/>
<path fill="#FFFFFF" stroke="#000000" stroke-width="0.5" d="M667.6,262.6c0.602,1.6,4.802,2,8.5,1.3l0,0l-1.898,12.8l-0.102,0.1
	c-5.6,6.4-12.3-2.3-14.3-2.3c-15.1,0.1-6.6-7.7-6.6-7.7L667.6,262.6z"/>
<path fill="#FFFFFF" stroke="#000000" stroke-width="0.5" d="M664.7,248.7c5.398-6.9,11.398-2.7,11.398-2.7
	c0.802,0.4,1.2,1.1,1.4,2.1l0,0c0.6,3.1-1.6,8.1-1.6,8.1v0.1c-1.102,0.1-2.302,0.4-3.302,0.7c-1.5,0.5-2.6,1.1-3.5,1.8
	c-4-0.6-7-1.2-9.198-1.8l0,0l0,0c-0.2-0.1-1.102-0.4-2.2-0.7C648.3,252.5,664.7,248.7,664.7,248.7z"/>
<path fill="#FFFFFF" stroke="#000000" stroke-width="0.5" d="M670.5,433.4c1.4-3.102,10.4,5.1,10.4,5.1
	c-3.302,7.9,6.5,18.4,7.3,19.2c-1.5-0.2-3-0.2-4.5,0.2c-3.8-7.102-8.102-12.602-12.7-16.7C670.1,439.6,669.4,436,670.5,433.4z"/>
<path fill="#FFFFFF" stroke="#000000" stroke-width="0.5" d="M668.5,187.3c-3.9,0-7-2.7-7-6c0-3.3,3.1-6,7-6s7,2.7,7,6
	C675.5,184.6,672.4,187.3,668.5,187.3z"/>
<path fill="#FFFFFF" stroke="#000000" stroke-width="0.5" d="M651.1,304.8c0,0,2.602-9.399,1.9-15.2h0.1c0,0,3.7-12.5,13.802-2.699
	c0,0,7.6,0.801,6.1,9.101l-0.4,0.3l-12.9,11.6c-0.9-2.301-4.7-3.602-8.5-3L651.1,304.8z"/>
<path fill="#FFFFFF" stroke="#000000" stroke-width="0.5" d="M667.6,262.6l-14.5,4.3c-8.6-1.4-3-7.1-3-7.1
	c-1.8-5.5,4.2-4.5,7.602-3.5c0.6,0.2,1.3,0.5,2.2,0.7l0,0l0,0c2.198,0.6,5.198,1.2,9.198,1.8C667.7,260,667.2,261.3,667.6,262.6z"/>
<path fill="#FFFFFF" stroke="#000000" stroke-width="0.5" d="M653.5,200.3c-5,0-9-2-9-4.5s4-4.5,9-4.5s9,2,9,4.5
	C662.5,198.2,658.4,200.3,653.5,200.3z"/>
<path fill="#FFFFFF" stroke="#000000" stroke-width="0.5" d="M679.4,513.9L652.1,527.6c-16.1-4.398-5.6-22.8-5.6-22.8
	c-0.1-4.898,0.9-8,2.4-9.8c3.5-4.3,10-2.2,13.6-0.5c0.8,0.4,1.6,0.9,2.5,1.3h0.1c4.102,2,9.802,3.9,17.302,5.8
	C679.1,505.8,677.8,510.5,679.4,513.9z"/>
<path fill="#FFFFFF" stroke="#000000" stroke-width="0.5" d="M651.2,319.1c-4.5,1.301-9.5,0.602-10.102-2.398
	c-0.5-2.5,0.102-4.9,1.9-7.102c1-1.199,2.4-2.3,4.1-3.3c1.302-0.7,2.602-1.2,4-1.399c3.9-0.601,7.602,0.699,8.5,3
	c0.9,2.101,0.302,4.601-1.5,6.801l0,0c-1,1.199-2.3,2.199-3.898,3.199C653.3,318.4,652.3,318.8,651.2,319.1z"/>
<path fill="#FFFFFF" stroke="#000000" stroke-width="0.5" d="M641.1,316.7c0.7,3,5.7,3.8,10.102,2.399v0.101l-2.3,23.8
	c-0.102,0.1-0.102,0.2-0.2,0.3C642.1,355.1,634,338.9,631.6,339c-18,0.2-7.898-14.4-7.898-14.4L641.1,316.7z"/>
<path fill="#FFFFFF" stroke="#000000" stroke-width="0.5" d="M637.7,290.7c6.5-12.9,13.6-5,13.6-5c1,0.7,1.5,2.1,1.7,3.899
	c0.7,5.801-1.9,15.199-1.9,15.199v0.102c-1.3,0.199-2.698,0.6-4,1.398c-1.698,1-3.1,2.102-4.1,3.301
	c-4.8-1.101-8.3-2.199-10.9-3.399l0,0l0,0c-0.198-0.101-1.198-0.7-2.6-1.4C618.1,297.9,637.7,290.7,637.7,290.7z"/>
<path fill="#FFFFFF" stroke="#000000" stroke-width="0.5" d="M660.9,234.5l-17.9-5.9l-0.1-0.1c1.5-1.2,2-2.5,1.198-3.6l10.802-6.2
	l0,0c1.1-0.6,18-2,9.5,7C664.5,225.7,669.8,231.9,660.9,234.5z"/>
<path fill="#FFFFFF" stroke="#000000" stroke-width="0.5" d="M643.1,228.6l17.9,5.9c0,0,1.5,7.8-10.3,6.7c0,0-4.8,8.9-15.4,2.7
	l-0.1-0.1l0.1-0.1l1.9-12.8v-0.1c0.8-0.2,1.7-0.4,2.5-0.7c1.398-0.5,2.5-1.1,3.3-1.7L643.1,228.6z"/>
<path fill="#FFFFFF" stroke="#000000" stroke-width="0.5" d="M640.5,186.3c-2.2,0-4-1.6-4-3.5c0-1.9,1.8-3.5,4-3.5s4,1.6,4,3.5
	C644.5,184.7,642.7,186.3,640.5,186.3z"/>
<path fill="#FFFFFF" stroke="#000000" stroke-width="0.5" d="M630.2,225.8c0.898-0.6,2-1.2,3.5-1.8c1.1-0.4,2.2-0.6,3.3-0.7
	c3.3-0.3,6.4,0.4,7.2,1.6c0.7,1.1,0.3,2.4-1.2,3.6c-0.8,0.6-1.9,1.2-3.3,1.7c-0.8,0.3-1.602,0.5-2.5,0.7c-3.8,0.7-8,0.3-8.5-1.3
	C628.2,228.3,628.7,227,630.2,225.8z"/>
<path fill="#FFFFFF" stroke="#000000" stroke-width="0.5" d="M637,223.2c0,0,2.2-5,1.6-8.1l0,0h0.102c0,0,3.1-6.7,11.6-1.5
	c0,0,6.4,0.4,5.102,4.9l-0.302,0.2l-10.8,6.2C643.4,223.7,640.2,223,637,223.2L637,223.2z"/>
<path fill="#FFFFFF" stroke="#000000" stroke-width="0.5" d="M629.4,304.8c0.698,0.5,1.6,0.9,2.6,1.4l0,0l0,0
	c2.6,1.2,6.1,2.3,10.9,3.399c-1.802,2.199-2.4,4.601-1.9,7.101l-17.2,8c-10.2-2.601-3.5-13.2-3.5-13.2
	C618.2,301.1,625.3,303,629.4,304.8z"/>
<path fill="#FFFFFF" stroke="#000000" stroke-width="0.5" d="M649,495c0,0-22.2-6.9-41.7,2.7l-0.1-1.2c0,0-11.8-18.8-10.102-29
	c0,0,14.2-9.8,30.302-12.1c2.198-0.302,4.3-0.5,6.5-0.5c11.198,0,22.6,4.5,30.3,19.198l0,0c-7.602,4.9-15,12.802-1.8,20.4
	C659,492.9,652.5,490.8,649,495z"/>
<path fill="#FFFFFF" stroke="#000000" stroke-width="0.5" d="M628.6,229.6c0.602,1.6,4.802,2,8.5,1.3v0.1l-1.898,12.8l-0.102,0.1
	c-5.6,6.4-12.3-2.3-14.3-2.3c-15.1,0.1-6.6-7.7-6.6-7.7L628.6,229.6z"/>
<path fill="#FFFFFF" stroke="#000000" stroke-width="0.5" d="M625.7,215.7c5.398-6.9,11.398-2.7,11.398-2.7
	c0.802,0.4,1.2,1.1,1.4,2.1l0,0c0.6,3.1-1.6,8.1-1.6,8.1v0.1c-1.102,0.1-2.302,0.4-3.302,0.7c-1.5,0.5-2.6,1.1-3.5,1.8
	c-4-0.6-7-1.2-9.198-1.8l0,0l0,0c-0.2-0.1-1.102-0.4-2.2-0.7C609.3,219.5,625.7,215.7,625.7,215.7z"/>
<path fill="#FFFFFF" stroke="#000000" stroke-width="0.5" d="M648.3,535.9c-17,10.5-31,11.698-41.6,9.398
	c-16-3.5-24.4-14.898-24.4-14.898c5.2-17.802,14.8-27.5,25.102-32.602c19.5-9.6,41.698-2.7,41.698-2.7c-1.5,1.9-2.5,5-2.398,9.802
	c0,0-10.602,18.3,5.6,22.8c0,0-2.398,3.7-3.7,8.3L648.3,535.9z"/>
<path fill="#FFFFFF" stroke="#000000" stroke-width="0.5" d="M628.6,229.6l-14.5,4.3c-8.6-1.4-3-7.1-3-7.1
	c-1.8-5.5,4.2-4.5,7.602-3.5c0.6,0.2,1.3,0.5,2.2,0.7l0,0l0,0c2.198,0.6,5.198,1.2,9.198,1.8C628.7,227,628.2,228.3,628.6,229.6z"/>
<path fill="#FFFFFF" stroke="#000000" stroke-width="0.5" d="M622.5,199.3c-3.3,0-6-1.6-6-3.5c0-1.9,2.7-3.5,6-3.5s6,1.6,6,3.5
	C628.5,197.7,625.8,199.3,622.5,199.3z"/>
<path fill="#FFFFFF" stroke="#000000" stroke-width="0.5" d="M613.3,263.8c1.5-1.2,2-2.5,1.2-3.6l10.8-6.2h0.102l0,0
	c1.698-0.6,17.8-1.8,9.398,7.1c0,0,5.2,6.1-3.6,8.8l-17.9-5.9V263.8z"/>
<path fill="#FFFFFF" stroke="#000000" stroke-width="0.5" d="M613.4,263.9l17.898,5.9c0,0,1.5,7.8-10.3,6.7c0,0-4.8,8.9-15.4,2.8
	l-0.1-0.1l0.1-0.1l1.9-12.8l0,0c0.8-0.2,1.7-0.4,2.5-0.7c1.4-0.5,2.5-1.1,3.3-1.7H613.4L613.4,263.9z"/>
<path fill="#FFFFFF" stroke="#000000" stroke-width="0.5" d="M607.5,266.2c-3.8,0.7-8,0.3-8.5-1.3c-0.5-1.3,0.1-2.6,1.6-3.8
	c0.9-0.6,2-1.3,3.5-1.8c1-0.4,2.2-0.6,3.302-0.7c3.3-0.3,6.398,0.4,7.198,1.6c0.7,1.1,0.302,2.4-1.198,3.6
	c-0.802,0.6-1.9,1.2-3.302,1.7C609.2,265.8,608.3,266,607.5,266.2z"/>
<path fill="#FFFFFF" stroke="#000000" stroke-width="0.5" d="M614.5,260.2c-0.8-1.2-3.9-1.9-7.2-1.6v-0.1c0,0,2.2-5,1.602-8.1h0.1
	c0,0,3.1-6.7,11.6-1.5c0,0,6.4,0.4,5.102,4.9l-0.2,0.1h-0.1L614.5,260.2z"/>
<path fill="#FFFFFF" stroke="#000000" stroke-width="0.5" d="M597.3,567c3.602-15.1,9.3-21.3,9.3-21.3l0.102-0.4
	c10.6,2.3,24.6,1,41.6-9.398h0.2c-2.1,7.3-1.3,16.698,16.2,16.398c1.3,0,3.6,2.7,6.5,5.7c-2.7,3.2-5.3,6.2-7.8,9h-37.7H597.3z"/>
<path fill="#FFFFFF" stroke="#000000" stroke-width="0.5" d="M598.9,264.9c0.6,1.6,4.8,2,8.5,1.3l0,0l-1.9,12.8l-0.1,0.1
	c-5.602,6.4-12.302-2.3-14.302-2.3c-15.1,0.1-6.6-7.7-6.6-7.7L598.9,264.9z"/>
<path fill="#FFFFFF" stroke="#000000" stroke-width="0.5" d="M596.1,251c5.4-6.9,11.4-2.7,11.4-2.7c0.8,0.4,1.3,1.2,1.4,2.1
	c0.6,3.1-1.602,8.1-1.602,8.1v0.1c-1.1,0.1-2.3,0.4-3.3,0.7c-1.5,0.5-2.6,1.1-3.5,1.8c-4-0.6-7-1.2-9.1-1.8l0,0c0,0,0,0-0.102,0
	c-0.2-0.1-1.1-0.4-2.2-0.7C579.6,254.8,596.1,251,596.1,251z"/>
<ellipse fill="#FFFFFF" stroke="#000000" stroke-width="0.5" cx="603" cy="208.3" rx="5.5" ry="5"/>
<path fill="#FFFFFF" stroke="#000000" stroke-width="0.5" d="M579.7,305.3c2.3-1.3,2.898-2.8,1.8-4.1l16.6-7.101l0,0l0,0
	c1.9-0.699,27.4-2.199,14.5,8c0,0,8,6.899-5.5,10l-27.3-6.699L579.7,305.3z"/>
<path fill="#FFFFFF" stroke="#000000" stroke-width="0.5" d="M597.3,347.8c1.5-1.2,2-2.5,1.2-3.6l10.8-6.2h0.102l0,0
	c1.698-0.7,17.8-1.8,9.398,7.1c0,0,5.2,6.102-3.6,8.801l-17.9-5.899V347.8z"/>
<path fill="#FFFFFF" stroke="#000000" stroke-width="0.5" d="M597.4,347.9L615.3,353.8c0,0,1.5,7.8-10.3,6.7c0,0-4.8,8.9-15.4,2.8
	l-0.1-0.1l0.1-0.101l1.9-12.801v-0.1c0.8-0.2,1.7-0.4,2.5-0.7c1.4-0.5,2.5-1.101,3.3-1.7L597.4,347.9z"/>
<path fill="#FFFFFF" stroke="#000000" stroke-width="0.5" d="M598.9,264.9l-14.5,4.3c-8.602-1.4-3-7.1-3-7.1
	c-1.802-5.5,4.198-4.5,7.6-3.5c0.6,0.2,1.3,0.5,2.2,0.7c0,0,0,0,0.1,0l0,0c2.2,0.6,5.2,1.2,9.102,1.8
	C599,262.3,598.5,263.6,598.9,264.9z"/>
<path fill="#FFFFFF" stroke="#000000" stroke-width="0.5" d="M591.5,350.2c-3.8,0.7-8,0.3-8.5-1.3c-0.5-1.301,0.1-2.602,1.6-3.801
	c0.9-0.699,2-1.301,3.5-1.801c1-0.398,2.2-0.6,3.302-0.699c3.3-0.301,6.398,0.399,7.198,1.601c0.7,1.1,0.302,2.399-1.198,3.6
	c-0.802,0.601-1.9,1.2-3.302,1.7C593.2,349.8,592.3,350,591.5,350.2z"/>
<path fill="#FFFFFF" stroke="#000000" stroke-width="0.5" d="M598.5,344.2c-0.8-1.2-3.9-1.9-7.2-1.601v-0.101c0,0,2.2-5,1.602-8.101
	h0.1c0,0,3.1-6.699,11.6-1.5c0,0,6.4,0.399,5.102,4.899l-0.2,0.101h-0.1L598.5,344.2z"/>
<path fill="#FFFFFF" stroke="#000000" stroke-width="0.5" d="M570.5,299.3c0,0,3.3-5.7,2.4-9.2h0.1c0,0,4.8-7.6,17.7-1.699
	c0,0,9.7,0.5,7.8,5.5l-0.4,0.199l-16.6,7.102C580.3,299.9,575.5,299.1,570.5,299.3L570.5,299.3z"/>
<path fill="#FFFFFF" stroke="#000000" stroke-width="0.5" d="M582.9,348.9c0.6,1.6,4.8,2,8.5,1.3v0.1l-1.9,12.8l-0.1,0.102
	c-5.602,6.398-12.302-2.301-14.302-2.301c-15.1,0.101-6.6-7.699-6.6-7.699L582.9,348.9z"/>
<path fill="#FFFFFF" stroke="#000000" stroke-width="0.5" d="M580.1,335c5.4-6.9,11.4-2.7,11.4-2.7c0.8,0.4,1.2,1.2,1.4,2.101
	c0.6,3.101-1.602,8.101-1.602,8.101v0.101c-1.1,0.101-2.3,0.399-3.3,0.699c-1.5,0.5-2.6,1.102-3.5,1.801c-4-0.601-7-1.199-9.1-1.801
	l0,0c0,0,0,0-0.102,0c-0.2-0.1-1.1-0.398-2.2-0.699C563.6,338.8,580.1,335,580.1,335z"/>
<path fill="#FFFFFF" stroke="#000000" stroke-width="0.5" d="M584.5,198.3c-1-3-27.7,1-50.6-6.9c0-1,0-2.1,0-3.1
	c0-70.5,56.398-127.7,126-127.7c57.1,0,105.3,38.5,120.8,91.3l0.1,0.5c-25.7,5.2-53.8,11.1-58.2,8.9c-8-4-59,3-78,7
	S585.5,201.3,584.5,198.3z"/>
<path fill="#FFFFFF" stroke="#000000" stroke-width="0.5" d="M579.8,305.5l27.3,6.7c0,0,2.2,8.8-15.698,7.6c0,0-7.302,10-23.5,3.101
	L567.8,322.8l0.102-0.1l2.898-14.5V308.1c1.3-0.199,2.602-0.398,3.8-0.8c2.2-0.6,3.9-1.3,5.102-2c0,0,0,0,0.1,0L579.8,305.5
	L579.8,305.5z"/>
<path fill="#FFFFFF" stroke="#000000" stroke-width="0.5" d="M582.9,348.9l-14.5,4.3c-8.602-1.4-3-7.101-3-7.101
	c-1.802-5.601,4.198-4.5,7.6-3.5c0.6,0.199,1.3,0.5,2.2,0.699c0,0,0,0,0.1,0l0,0c2.2,0.602,5.2,1.2,9.102,1.801
	C583,346.3,582.5,347.6,582.9,348.9z"/>
<circle fill="#FFFFFF" stroke="#000000" stroke-width="0.5" cx="576" cy="216.8" r="5.5"/>
<path fill="#FFFFFF" stroke="#000000" stroke-width="0.5" d="M570.8,308.1c-5.8,0.801-12.2,0.4-13-1.5c-0.7-1.5,0.102-3,2.4-4.3
	c1.3-0.7,3-1.399,5.3-2c1.6-0.399,3.3-0.7,5.1-0.8c5-0.4,9.802,0.4,11,1.8c1.102,1.3,0.5,2.7-1.8,4.101c0,0,0,0-0.1,0
	c-1.3,0.699-3,1.399-5.102,2C573.4,307.6,572.1,307.9,570.8,308.1z"/>
<path fill="#FFFFFF" stroke="#000000" stroke-width="0.5" d="M553.4,290.8c8.3-7.8,17.398-3,17.398-3c1.2,0.5,1.9,1.3,2.2,2.4
	c0.9,3.5-2.4,9.2-2.4,9.2v0.1c-1.698,0.1-3.5,0.4-5.1,0.8c-2.3,0.601-4,1.3-5.3,2c-6.102-0.7-10.7-1.3-14-2l0,0
	c-0.2-0.1-1.602-0.399-3.4-0.8C528.3,295.1,553.4,290.8,553.4,290.8z"/>
<path fill="#FFFFFF" stroke="#000000" stroke-width="0.5" d="M557.7,306.6c0.898,1.9,7.3,2.301,13,1.5v0.102l-2.9,14.5l-0.1,0.1
	c-8.5,7.301-18.9-2.6-22-2.6c-23.102,0.1-10.102-8.7-10.102-8.7L557.7,306.6z"/>
<path fill="#FFFFFF" stroke="#000000" stroke-width="0.5" d="M577.9,244.5l-17.9-5.9l-0.1-0.1c1.5-1.2,2-2.5,1.198-3.6l10.802-6.2
	l0,0c1.1-0.6,18-2,9.5,7C581.5,235.7,586.8,241.9,577.9,244.5z"/>
<path fill="#FFFFFF" stroke="#000000" stroke-width="0.5" d="M560.1,238.6l17.9,5.9c0,0,1.5,7.8-10.3,6.7c0,0-4.8,8.9-15.4,2.7
	l-0.1-0.1l0.1-0.1l1.9-12.8l0,0c0.8-0.2,1.7-0.4,2.5-0.7c1.398-0.5,2.5-1.1,3.3-1.7L560.1,238.6z"/>
<path fill="#FFFFFF" stroke="#000000" stroke-width="0.5" d="M557.7,306.6L535.6,311.4c-13.1-1.602-4.5-8-4.5-8
	c-2.8-6.301,6.4-5.102,11.602-4c1,0.3,2.1,0.5,3.398,0.8l0,0c3.302,0.7,7.9,1.399,14,2C557.9,303.6,557,305.1,557.7,306.6z"/>
<path fill="#FFFFFF" stroke="#000000" stroke-width="0.5" d="M554.1,240.9c-3.8,0.7-8,0.3-8.5-1.3c-0.5-1.3,0.102-2.6,1.602-3.8
	c0.898-0.6,2-1.2,3.5-1.8c1.1-0.4,2.2-0.6,3.3-0.7c3.3-0.3,6.4,0.4,7.2,1.6c0.7,1.1,0.3,2.4-1.2,3.6c-0.8,0.6-1.9,1.2-3.3,1.7
	C555.8,240.5,555,240.8,554.1,240.9z"/>
<path fill="#FFFFFF" stroke="#000000" stroke-width="0.5" d="M561.2,234.9c-0.8-1.2-3.9-1.9-7.2-1.6v-0.1c0,0,2.2-5,1.6-8.1h0.102
	c0,0,3.1-6.7,11.6-1.5c0,0,6.4,0.4,5.102,4.9l-0.302,0.2L561.2,234.9z"/>
<path fill="#FFFFFF" stroke="#000000" stroke-width="0.5" d="M545.6,239.6c0.602,1.6,4.802,2,8.5,1.3l0,0l-1.898,12.8l-0.102,0.1
	c-5.6,6.4-12.3-2.3-14.3-2.3c-15.1,0.1-6.6-7.7-6.6-7.7L545.6,239.6z"/>
<path fill="#FFFFFF" stroke="#000000" stroke-width="0.5" d="M542.7,225.7c5.398-6.9,11.398-2.7,11.398-2.7
	c0.802,0.4,1.2,1.1,1.4,2.1c0.6,3.1-1.6,8.1-1.6,8.1v0.1c-1.102,0.1-2.302,0.4-3.302,0.7c-1.5,0.5-2.6,1.1-3.5,1.8
	c-4-0.6-7-1.2-9.198-1.8l0,0h-0.1c-0.3-0.1-1.1-0.4-2-0.7C526.3,229.5,542.7,225.7,542.7,225.7z"/>
<path fill="#FFFFFF" stroke="#000000" stroke-width="0.5" d="M545.6,239.6l-14.5,4.3c-8.6-1.4-3-7.1-3-7.1
	c-1.8-5.5,4.2-4.5,7.602-3.5c0.6,0.2,1.3,0.5,2,0.7h0.1l0,0c2.2,0.6,5.2,1.2,9.2,1.8C545.7,237,545.2,238.3,545.6,239.6z"/>
<path fill="#FFFFFF" stroke="#000000" stroke-width="0.5" d="M539.5,211.3c-3.9,0-7-1.6-7-3.5c0-1.9,3.1-3.5,7-3.5s7,1.6,7,3.5
	C546.5,209.7,543.4,211.3,539.5,211.3z"/>
<path fill="#FFFFFF" stroke="#000000" stroke-width="0.5" d="M527.9,275.5c1.5-1.2,2-2.5,1.198-3.6l10.802-6.2l0,0
	c1.1-0.6,18-2,9.5,7c0,0,5.198,6.1-3.602,8.8l-17.898-5.9V275.5z"/>
<path fill="#FFFFFF" stroke="#000000" stroke-width="0.5" d="M528.1,275.6l17.9,5.9c0,0,1.5,7.8-10.3,6.7c0,0-4.8,8.8-15.4,2.7
	l-0.1-0.102l0.1-0.1l1.9-12.8v-0.1c0.8-0.2,1.7-0.4,2.5-0.7c1.398-0.5,2.5-1.1,3.3-1.7L528.1,275.6z"/>
<path fill="#FFFFFF" stroke="#000000" stroke-width="0.5" d="M522.1,277.9c-3.8,0.7-8,0.3-8.5-1.3c-0.5-1.3,0.102-2.6,1.602-3.8
	c0.898-0.6,2-1.2,3.5-1.8c1.1-0.4,2.2-0.6,3.3-0.7c3.3-0.3,6.4,0.4,7.2,1.6c0.7,1.1,0.3,2.4-1.2,3.6c-0.8,0.6-1.9,1.2-3.3,1.7
	C523.8,277.5,523,277.8,522.1,277.9z"/>
<path fill="#FFFFFF" stroke="#000000" stroke-width="0.5" d="M494.5,418.1c-0.3,1.7-5.3,1.5-6-0.198c-0.7-1.7-3.7-0.302-7,1.5
	c2.8-5.802,29-32.7,40.7-32.7s7.7-0.301,7.7,1.199s15.698-5.301,16-6.301c0.3-1,4.198,0.301,2.698,3.5
	c-1.5,3.2-9.8,12.2-10.198,13.7c0,0-4.2,3.5-5.802,2.3c-1.698-1.198-5.198-0.3-5.198,2.302c0,2.698-3.7,3-4.5,2.698
	c-0.802-0.3-4.802,0.5-4.802,3s-6.198,3.302-7.3,1.302c-1.2-2-3.8,0.698-3.5,2.698s-6.5,1.802-7.3,0
	C499,411.3,494.8,416.4,494.5,418.1z"/>
<path fill="#FFFFFF" stroke="#000000" stroke-width="0.5" d="M522,270.2c0,0,2.2-5,1.6-8.1h0.102c0,0,3.1-6.7,11.6-1.5
	c0,0,6.4,0.4,5.102,4.9l-0.302,0.2l-10.8,6.2C528.4,270.7,525.2,270,522,270.2L522,270.2z"/>
<path fill="#FFFFFF" stroke="#000000" stroke-width="0.5" d="M513.6,276.6c0.602,1.6,4.802,2,8.5,1.3v0.1l-1.898,12.8L520.1,290.9
	c-5.6,6.398-12.3-2.301-14.3-2.301c-15.1,0.101-6.6-7.701-6.6-7.701L513.6,276.6z"/>
<path fill="#FFFFFF" stroke="#000000" stroke-width="0.5" d="M510.7,262.7c5.398-6.9,11.398-2.7,11.398-2.7
	c0.802,0.4,1.2,1.1,1.4,2.1c0.6,3.1-1.6,8.1-1.6,8.1v0.1c-1.102,0.1-2.302,0.4-3.302,0.7c-1.5,0.5-2.6,1.1-3.5,1.8
	c-4-0.6-7-1.2-9.198-1.8l0,0l0,0c-0.2-0.1-1.102-0.4-2.2-0.7C494.3,266.5,510.7,262.7,510.7,262.7z"/>
<path fill="#FFFFFF" stroke="#000000" stroke-width="0.5" d="M517,217.3c-3.6,0-6.5-1.8-6.5-4c0-2.2,2.9-4,6.5-4s6.5,1.8,6.5,4
	C523.5,215.5,520.6,217.3,517,217.3z"/>
<path fill="#FFFFFF" stroke="#000000" stroke-width="0.5" d="M492.8,240.7c1.5-1.2,1.9-2.5,1.2-3.6l10.9-6.3l0,0
	c1.398-0.6,17.898-1.9,9.5,7c0,0,5.198,6.1-3.602,8.8l-17.898-5.9H492.8z"/>
<path fill="#FFFFFF" stroke="#000000" stroke-width="0.5" d="M513.6,276.6l-14.5,4.3c-8.6-1.4-3-7.1-3-7.1
	c-1.8-5.5,4.2-4.5,7.602-3.5c0.6,0.2,1.3,0.5,2.2,0.7l0,0l0,0c2.198,0.6,5.198,1.2,9.198,1.8C513.7,274,513.2,275.3,513.6,276.6z"/>
<path fill="#FFFFFF" stroke="#000000" stroke-width="0.5" d="M520.8,189.8c-4.3,0.2-8.898,1.1-13.398,2.2v-0.1c0-1.2,0-2.4,0-3.7
	c0-85.3,68.3-154.5,152.5-154.5c70.1,0,129.198,48,147,113.3v0.3c-4.2,0.7-8.802,1.6-13.7,2.5l-0.102-0.5
	C776.4,90.7,723,47.8,659.8,47.8c-76.5,0-138.6,62.9-138.6,140.4c0,0.5,0,1,0,1.5H521.1C521,189.8,520.9,189.8,520.8,189.8z"/>
<path fill="#FFFFFF" stroke="#000000" stroke-width="0.5" d="M507.4,192c-4.7,1.2-9.302,2.8-13.7,4.5c-0.102-2.7-0.2-5.5-0.2-8.3
	c0-93.1,74.5-168.5,166.3-168.5c78.102,0,142.102,52,160,125.5v0.5c-3.2,0.2-7.7,0.8-13,1.7v-0.3C789,81.8,729.9,33.8,659.8,33.8
	c-84.2,0-152.5,69.2-152.5,154.5c0,1.2,0,2.5,0,3.7H507.4z"/>
<path fill="#FFFFFF" stroke="#000000" stroke-width="0.5" d="M493.7,196.5c-5,1.9-9.602,4-13.5,6c-0.4-4.7-0.5-9.4-0.5-14.2
	c0-18.7,2.8-36.7,7.898-53.7C510.2,59.9,578.7,5.7,659.8,5.7C731.5,5.7,793.4,48.1,822.4,109.6v36c-0.602,0-1.2,0.1-2.602,0.1v-0.5
	C801.9,71.7,737.9,19.7,659.8,19.7c-91.898,0-166.3,75.5-166.3,168.5C493.5,191,493.6,193.8,493.7,196.5z"/>
<path fill="#FFFFFF" stroke="#000000" stroke-width="0.5" d="M492.9,240.9l17.898,5.9c0,0,1.5,7.8-10.3,6.7c0,0-4.8,8.9-15.4,2.8
	l-0.1-0.1l0.1-0.1l1.9-12.8l0,0c0.9-0.2,1.7-0.4,2.5-0.7C490.9,242.1,492,241.5,492.9,240.9L492.9,240.9z"/>
<path fill="#FFFFFF" stroke="#000000" stroke-width="0.5" d="M491,214.3c-2.5,0-4.5-1.3-4.5-3c0-1.7,2-3,4.5-3s4.5,1.3,4.5,3
	C495.5,213,493.5,214.3,491,214.3z"/>
<path fill="#FFFFFF" stroke="#000000" stroke-width="0.5" d="M486.9,243.1c-3.802,0.7-8,0.3-8.5-1.3c-0.5-1.3,0.1-2.6,1.6-3.8
	c0.8-0.6,2-1.3,3.5-1.8c1-0.4,2.2-0.6,3.3-0.7c3.3-0.3,6.4,0.4,7.2,1.6c0.7,1.1,0.3,2.4-1.2,3.6c-0.8,0.6-1.898,1.2-3.398,1.7
	C488.6,242.8,487.8,243,486.9,243.1z"/>
<path fill="#FFFFFF" stroke="#000000" stroke-width="0.5" d="M486.8,235.5c0,0,2.2-5,1.602-8.1h0.1c0,0,3.1-6.7,11.6-1.5
	c0,0,6.4,0.4,5.102,4.9l-0.3,0.1l-10.9,6.3C493.2,235.9,490.1,235.2,486.8,235.5L486.8,235.5z"/>
<path fill="#FFFFFF" stroke="#000000" stroke-width="0.5" d="M809.5,168.3c3.3,0,6-2.7,6-6c0-3.3-2.7-6-6-6s-6,2.7-6,6
	C803.5,165.6,806.2,168.3,809.5,168.3z M753.9,178.6c0,0-4.602,4.9,2.398,6.1c0,0-7,6.7,5.5,6.6c1.7,0,7.3,7.4,11.9,2l0.1,0.1
	c8.8,5.2,12.8-2.3,12.8-2.3c9.7,1,8.5-5.7,8.5-5.7c7.302-2.3,3-7.5,3-7.5c7-7.8-7-6.5-7.898-6l0,0l0.3-0.1c1-3.8-4.2-4.2-4.2-4.2
	c-7-4.5-9.6,1.3-9.6,1.3H776.6c-0.1-0.8-0.5-1.4-1.198-1.8c0,0-5-3.6-9.4,2.3c0,0-13.6,3.3-5.7,6.5
	C757.3,174.8,752.4,173.9,753.9,178.6z M743,206.3c3,0,5.5-1.8,5.5-4c0-2.2-2.5-4-5.5-4s-5.5,1.8-5.5,4
	C737.5,204.5,739.9,206.3,743,206.3z M742.2,223.8c0,0-5.602,5.7,3,7.1c0,0-8.5,7.8,6.6,7.7c2,0,8.8,8.7,14.3,2.3l0.102,0.1
	c10.7,6.1,15.398-2.7,15.398-2.7c11.7,1.1,10.302-6.7,10.302-6.7c8.8-2.7,3.6-8.8,3.6-8.8c8.5-9.1-8.4-7.7-9.5-7l0,0l0.3-0.2
	c1.3-4.5-5.1-4.9-5.1-4.9c-8.5-5.3-11.602,1.5-11.602,1.5h-0.1c-0.2-0.9-0.6-1.7-1.4-2.1c0,0-6-4.2-11.398,2.7c0,0-16.5,3.8-6.9,7.6
	C746.4,219.3,740.4,218.3,742.2,223.8z M729,186.3c4.7,0,8.5-2.7,8.5-6c0-3.3-3.8-6-8.5-6s-8.5,2.7-8.5,6
	C720.5,183.6,724.3,186.3,729,186.3z M706.2,284.6c0,0-7.602,7.9,4,9.801c0,0-11.5,10.801,9,10.601c2.7,0,11.898,11.899,19.5,3.2
	l0.1,0.1c14.5,8.4,20.9-3.8,20.9-3.8c15.898,1.5,13.898-9.2,13.898-9.2c12-3.699,4.9-12.1,4.9-12.1c11.5-12.4-11.2-10.6-12.9-9.7
	l0,0l0.4-0.2c1.7-6.1-6.9-6.7-6.9-6.7c-11.5-7.2-15.698,2-15.698,2H743.3c-0.3-1.3-0.8-2.3-1.898-2.9c0,0-8.102-5.8-15.5,3.7
	c0,0-22.302,5.3-9.4,10.5C711.9,278.4,703.7,277,706.2,284.6z M688.5,193.3c0,2.2,3.1,4,7,4s7-1.8,7-4c0-2.2-3.1-4-7-4
	S688.5,191,688.5,193.3z M691.5,176.8c0,3,1.8,5.5,4,5.5s4-2.5,4-5.5s-1.8-5.5-4-5.5S691.5,173.7,691.5,176.8z M681.1,221.8
	c0,0-5.6,5.7,3,7.1c0,0-8.5,7.8,6.602,7.7c2,0,8.8,8.7,14.3,2.3l0.1,0.1c10.7,6.1,15.4-2.8,15.4-2.8c11.8,1.1,10.3-6.7,10.3-6.7
	c8.8-2.7,3.602-8.8,3.602-8.8c8.5-9.1-8.4-7.7-9.5-7l0,0l0.3-0.2c1.3-4.5-5.102-4.9-5.102-4.9c-8.5-5.3-11.6,1.5-11.6,1.5h-0.1
	c-0.2-0.9-0.602-1.7-1.4-2.1c0,0-6-4.2-11.4,2.7c0,0-16.398,3.8-6.898,7.6C685.3,217.3,679.2,216.3,681.1,221.8z M675,210.3
	c3,0,5.5-2.9,5.5-6.5c0-3.6-2.5-6.5-5.5-6.5s-5.5,2.9-5.5,6.5C669.5,207.4,671.9,210.3,675,210.3z M661.5,181.3c0,3.3,3.1,6,7,6
	s7-2.7,7-6c0-3.3-3.1-6-7-6S661.5,177.9,661.5,181.3z M644.5,195.8c0,2.5,4,4.5,9,4.5s9-2,9-4.5s-4-4.5-9-4.5
	S644.5,193.3,644.5,195.8z M650.2,259.8c0,0-5.602,5.7,3,7.1c0,0-8.5,7.8,6.6,7.7c2,0,8.8,8.7,14.3,2.3l0.102,0.1
	c10.7,6.1,15.398-2.7,15.398-2.7c11.7,1.1,10.302-6.7,10.302-6.7c8.8-2.7,3.6-8.8,3.6-8.8c8.4-9-8-7.7-9.5-7l0,0l0.3-0.1
	c1.3-4.5-5.1-4.9-5.1-4.9c-8.5-5.3-11.602,1.5-11.602,1.5h-0.1c-0.2-0.9-0.6-1.7-1.4-2.1c0,0-6-4.2-11.398,2.7c0,0-16.5,3.8-6.9,7.6
	C654.4,255.3,648.4,254.3,650.2,259.8z M640.5,186.3c2.2,0,4-1.6,4-3.5c0-1.9-1.8-3.5-4-3.5s-4,1.6-4,3.5
	C636.5,184.7,638.3,186.3,640.5,186.3z M622.5,199.3c3.3,0,6-1.6,6-3.5c0-1.9-2.7-3.5-6-3.5s-6,1.6-6,3.5
	C616.5,197.7,619.2,199.3,622.5,199.3z M620.3,311.4c0,0-6.7,10.6,3.5,13.199c0,0-10.1,14.601,7.9,14.399
	c2.398,0,10.398,16.101,17.1,4.3l0.2,0.102c12.7,11.398,18.4-5.102,18.4-5.102c14,2.102,12.3-12.398,12.3-12.398
	c10.5-5,4.3-16.4,4.3-16.4c10.2-16.9-10-14.3-11.3-13.1l0,0l0.398-0.301c1.5-8.301-6.1-9.101-6.1-9.101c-10.1-9.8-13.8,2.7-13.8,2.7
	h-0.1c-0.198-1.7-0.698-3.2-1.698-3.9c0,0-7.102-7.9-13.602,5c0,0-19.6,7.2-8.2,14.102C625.3,303,618.2,301.1,620.3,311.4z
	 M611.2,226.8c0,0-5.602,5.7,3,7.1c0,0-8.5,7.8,6.6,7.7c2,0,8.8,8.7,14.3,2.3l0.102,0.1c10.7,6.1,15.398-2.7,15.398-2.7
	c11.7,1.1,10.302-6.7,10.302-6.7c8.8-2.7,3.6-8.8,3.6-8.8c8.5-9.1-8.4-7.7-9.5-7l0,0l0.3-0.2c1.3-4.5-5.1-4.9-5.1-4.9
	c-8.5-5.3-11.602,1.5-11.602,1.5h-0.1c-0.2-0.9-0.6-1.7-1.4-2.1c0,0-6-4.2-11.398,2.7c0,0-16.5,3.9-6.9,7.6
	C615.4,222.3,609.4,221.3,611.2,226.8z M597.5,208.3c0,2.8,2.5,5,5.5,5s5.5-2.2,5.5-5c0-2.8-2.5-5-5.5-5S597.5,205.5,597.5,208.3z
	 M581.5,262.1c0,0-5.6,5.7,3,7.1c0,0-8.5,7.8,6.6,7.7c2,0,8.802,8.7,14.302,2.3l0.1,0.1c10.7,6.101,15.4-2.8,15.4-2.8
	c11.8,1.1,10.3-6.7,10.3-6.7c8.8-2.7,3.6-8.8,3.6-8.8c8.3-8.9-7.8-7.7-9.398-7.1l0,0l0.198-0.1c1.302-4.5-5.1-4.9-5.1-4.9
	c-8.5-5.3-11.6,1.5-11.6,1.5H608.8c-0.2-0.9-0.6-1.7-1.398-2.1c0,0-6-4.2-11.4,2.7c0,0-16.4,3.8-6.9,7.6
	C585.7,257.6,579.7,256.5,581.5,262.1z M570.5,216.8c0,3,2.5,5.5,5.5,5.5s5.5-2.5,5.5-5.5s-2.5-5.5-5.5-5.5S570.5,213.7,570.5,216.8
	z M565.5,346.1c0,0-5.6,5.7,3,7.102c0,0-8.5,7.8,6.6,7.699c2,0,8.802,8.699,14.302,2.301l0.1,0.1c10.7,6.102,15.4-2.8,15.4-2.8
	c11.8,1.101,10.3-6.7,10.3-6.7c8.8-2.699,3.6-8.8,3.6-8.8c8.3-8.899-7.8-7.7-9.398-7.101l0,0l0.198-0.101
	c1.302-4.5-5.1-4.899-5.1-4.899c-8.5-5.301-11.6,1.5-11.6,1.5H592.8c-0.2-0.899-0.6-1.699-1.398-2.101c0,0-6-4.2-11.4,2.7
	c0,0-16.4,3.8-6.9,7.6C569.7,341.6,563.7,340.5,565.5,346.1z M539.5,211.3c3.9,0,7-1.6,7-3.5c0-1.9-3.1-3.5-7-3.5s-7,1.6-7,3.5
	C532.5,209.7,535.6,211.3,539.5,211.3z M531.1,303.4c0,0-8.6,6.5,4.5,8c0,0-13,8.898,10.102,8.699c3.1,0,13.398,9.899,22,2.601
	l0.1,0.1c16.3,6.9,23.5-3.1,23.5-3.1C609.2,321,607,312.1,607,312.1c13.5-3.1,5.5-10,5.5-10c12.9-10.199-12.6-8.699-14.5-8l0,0l0,0
	l0.4-0.199c1.898-5.101-7.802-5.5-7.802-5.5c-13-6-17.698,1.699-17.698,1.699H572.8c-0.3-1.1-0.898-1.898-2.2-2.398
	c0,0-9.198-4.8-17.398,3c0,0-25.102,4.398-10.602,8.6C537.5,298.3,528.4,297.1,531.1,303.4z M528.2,236.8c0,0-5.602,5.7,3,7.1
	c0,0-8.5,7.8,6.6,7.7c2,0,8.8,8.7,14.3,2.3l0.102,0.1c10.7,6.1,15.398-2.7,15.398-2.7c11.7,1.1,10.302-6.7,10.302-6.7
	c8.8-2.7,3.6-8.8,3.6-8.8c8.5-9.1-8.4-7.7-9.5-7l0,0l0.3-0.2c1.3-4.5-5.1-4.9-5.1-4.9c-8.5-5.3-11.602,1.5-11.602,1.5h-0.1
	c-0.2-0.9-0.6-1.7-1.4-2.1c0,0-6-4.2-11.398,2.7c0,0-16.5,3.8-6.9,7.6C532.4,232.3,526.4,231.3,528.2,236.8z M510.5,213.3
	c0,2.2,2.9,4,6.5,4s6.5-1.8,6.5-4c0-2.2-2.9-4-6.5-4S510.5,211,510.5,213.3z M496.2,273.8c0,0-5.602,5.7,3,7.1c0,0-8.5,7.8,6.6,7.7
	c2,0,8.8,8.7,14.3,2.301l0.102,0.101c10.7,6.101,15.398-2.7,15.398-2.7c11.7,1.102,10.302-6.7,10.302-6.7c8.8-2.7,3.6-8.8,3.6-8.8
	c8.5-9.1-8.4-7.7-9.5-7l0,0l0.3-0.2c1.3-4.5-5.1-4.9-5.1-4.9c-8.5-5.3-11.602,1.5-11.602,1.5h-0.1c-0.2-0.9-0.6-1.7-1.4-2.1
	c0,0-6-4.2-11.398,2.7c0,0-16.5,3.8-6.9,7.6C500.4,269.3,494.4,268.3,496.2,273.8z M491,214.3c2.5,0,4.5-1.3,4.5-3c0-1.7-2-3-4.5-3
	s-4.5,1.3-4.5,3C486.5,213,488.5,214.3,491,214.3z M461,239c0,0-5.6,5.7,3,7.1c0,0-8.5,7.8,6.6,7.7c2,0,8.802,8.7,14.4,2.3l0.1,0.1
	c10.7,6.1,15.4-2.8,15.4-2.8c11.7,1.1,10.3-6.7,10.3-6.7c8.9-2.7,3.602-8.8,3.602-8.8c8.398-9-8.102-7.7-9.5-7l0,0l0.3-0.1
	c1.3-4.5-5.102-4.9-5.102-4.9c-8.5-5.3-11.6,1.5-11.6,1.5h-0.1c-0.2-0.9-0.602-1.7-1.4-2.1c0,0-6-4.2-11.4,2.7
	c0,0-16.398,3.9-6.898,7.6C465.2,234.5,459.2,233.5,461,239z M407.8,248.1c0,0-0.2,0.1-0.5,0.4l-0.5-0.7c-2.8,0-10.2-8-10.2-8
	c-2.8-8.1,1.302-20.5,6.102-31.1l24.398,2l0.4-0.4c9.5,10.3,20.5,20.3,25.5,18c3.9-1.9,9.1-9.2,13.8-19.3l0.7,0.3
	c0,0,5.1-3.1,12.7-6.8c3.898-1.9,8.6-4,13.5-6c4.398-1.7,9.1-3.3,13.7-4.5c4.5-1.2,9.1-2,13.398-2.2c0.102,0,0.2,0,0.3,0h0.102
	c4.398-0.2,8.6,0.2,12.3,1.5c0.1,0,0.3,0.1,0.4,0.1c22.898,7.8,49.6,3.9,50.6,6.9s41-26,60-30s70-11,78-7c4.5,2.2,32.5-3.7,58.2-8.9
	l0,0c4.2-0.8,8.398-1.7,12.398-2.5c4.9-0.9,9.602-1.8,13.7-2.5c5.3-0.9,9.8-1.5,13-1.7c1.4-0.1,2-0.2,2.602-0.1v0.1v47.1
	C782.1,395.6,577.4,397,551.2,396.4c4-1.2,7.7-2.602,8.6-3.602c2.3-2.5,16.7-4.5,17-13.3s-15.7-22.8-15.7-22.8
	s-62.8-71.301-84.5-76.7l-0.1-0.1c1.5-1,2.9-2.1,3.9-3.4c0,0,13.198-6.2-3.802-13.5C476.7,262.9,445.3,240.1,407.8,248.1z"/>
<path fill="#FFFFFF" stroke="#000000" stroke-width="0.5" d="M478.4,241.8c0.6,1.6,4.8,2,8.5,1.3l0,0L485,256c0,0.1-0.1,0.1-0.1,0.1
	c-5.602,6.4-12.4-2.3-14.4-2.3c-15.1,0.1-6.6-7.7-6.6-7.7L478.4,241.8z"/>
<path fill="#FFFFFF" stroke="#000000" stroke-width="0.5" d="M475.5,227.9c5.4-6.9,11.4-2.7,11.4-2.7c0.8,0.4,1.198,1.1,1.398,2.1
	c0.602,3.1-1.6,8.1-1.6,8.1v0.1c-1.102,0.1-2.3,0.4-3.3,0.7c-1.5,0.5-2.602,1.1-3.5,1.8c-4-0.6-7-1.2-9.2-1.8c0,0,0,0-0.102,0
	c-0.198-0.1-1.1-0.4-2.1-0.7C459.1,231.8,475.5,227.9,475.5,227.9z"/>
<path fill="#FFFFFF" stroke="#000000" stroke-width="0.5" d="M344.5,303.9c-15.6,15.3-37.3-8.801-42.2-14.602
	c0-0.199-0.1-0.5-0.1-0.898c-0.4-1.801-6.1-2.801-12.6-3.301c-9-0.699-19.4-0.5-19.4-0.5c0.3-1.801,12.6-10.101,23-16.601
	c7.5-4.8,13.898-8.7,13.898-8.7c0.102-0.1,0.2-0.3,0.4-0.5c15.1-9.7,49.1-8.5,49.1-8.5c21,5.2,30.302,23.5,30.302,23.5
	c-1.2-8.2,17.1-22.7,20.5-25.3c0.3-0.3,0.5-0.4,0.5-0.4c37.5-8,68.8,14.8,68.8,14.8c17,7.3,3.8,13.5,3.8,13.5
	c-1,1.2-2.4,2.4-3.9,3.4c-13.5,9-42.898,10.102-42.898,10.102c-10.8-1-29,18.8-29,18.8c-8.7,9.8-13.8,6.5-13.8,6.5
	C374.7,291.1,344.5,303.9,344.5,303.9z"/>
<path fill="#FFFFFF" stroke="#000000" stroke-width="0.5" d="M478.4,241.8l-14.5,4.3c-8.602-1.4-3-7.1-3-7.1
	c-1.802-5.6,4.198-4.5,7.698-3.5c0.602,0.2,1.302,0.5,2.102,0.7h0.1c2.2,0.6,5.2,1.2,9.2,1.8C478.5,239.2,478,240.5,478.4,241.8z"/>
<path fill="#FFFFFF" stroke="#000000" stroke-width="0.5" d="M480.2,202.5c-7.602,3.7-12.7,6.8-12.7,6.8l-0.7-0.3
	c6.602-14.3,12.2-34.3,12.2-52.7c0,0,5.2-11.4,8.3-21.8l0.2,0.1c-5.2,17-7.9,35-7.9,53.7C479.6,193,479.8,197.8,480.2,202.5z"/>
<path fill="#FFFFFF" stroke="#000000" stroke-width="0.5" d="M435.8,184.9c-7.2,4.6-15.8,4.5-22.1,3.5c-5.4-0.9-9.2-2.4-9.2-2.4
	l-0.2-0.1c0.3-0.6,0.5-1.4,0.5-2.4c0,0,3-0.6,2.8-3c5.302-0.1,28.7-1.2,32.602-10.5c2.3,4.3,2.5,8.2,2.5,8.2
	C440.7,181.1,438.3,183.3,435.8,184.9z"/>
<path fill="#FFFFFF" stroke="#000000" stroke-width="0.5" d="M427.2,159.7c7.1,2.1,10.898,6.4,13,10.3c-4,9.3-27.3,10.4-32.602,10.5
	c-0.1-0.8-0.5-1.9-1.6-3.1c0,0,1.2-1.9,1.3-3.5c1.9-0.3,19.9-3.2,19.9-13.3L427.2,159.7L427.2,159.7z"/>
<path fill="#FFFFFF" stroke="#000000" stroke-width="0.5" d="M427.2,160.6c0,10.1-18,13-19.9,13.3c0.102-1.2-0.398-2.4-2.5-2.6
	c14-3.2,10.2-9.9,8-12.6l0.7-0.1c5.6-0.4,10.1,0.1,13.7,1.2V160.6L427.2,160.6z"/>
<path fill="#FFFFFF" stroke="#000000" stroke-width="0.5" d="M427.2,210.6l-24.4-2c3.2-7.1,6.8-13.4,9-16.9
	c2.102,2.7,8.5,10.7,15.8,18.5L427.2,210.6z"/>
<path fill="#FFFFFF" stroke="#000000" stroke-width="0.5" d="M373.5,485.6c0,0,1.3,12.2,11.3,15c0,0,4,2.2,7.5,1
	c1.5-0.5,1.5-1.698,1.3-2.8c-0.3-2.2,2.602-2.6,3.602-1.398l0,0c2.3,2.898,4.3,5.1,4.3,5.1l0,0l0,0c-1.8-0.5-3.3-0.4-3.9,0.4
	c-0.5,0.6-0.6,1.5-0.198,2.6l16.3,13.3c1.1,0.102,2-0.1,2.5-0.7c0.7-0.8,0.5-2.3-0.4-4l0.5-0.1l0,0c1.3,0.4,12,12.3,12,12.3
	c1,1.2-1.8,5-1.8,5c-6,3.3-24.2-2.8-24.2-2.8c-10.5-1.3-17.2-12.7-19-18.2s-6-3.5-6-3.5l-0.5,9.8c-1.2,2-4.5,1.7-4.2-0.198
	c0.302-1.802,0.7-9.802,0.7-9.802C362.9,495.7,369.5,488.6,373.5,485.6L373.5,485.6z"/>
<path fill="#FFFFFF" stroke="#000000" stroke-width="0.5" d="M413.7,188.5c6.398,1,15,1.1,22.1-3.5c7.3,2.8,14.7,24.8,14.7,24.8
	c-0.5-8,11-38.5,11-38.5c1.5-3,5.5-15,5.5-15c1-6-4.5-13.5-3.5-24.5c0-0.7,0-1.4,0.3-1.9c10.7-18.6,10-5.9,10-5.9
	c1.102-1.5,7.2-11,8.2-10.6c2.4,0.9,5.2-0.8,6.7,6.5h0.3c1.3,2.6,0.2,8.5-1.7,14.8c-3.1,10.3-8.3,21.8-8.3,21.8
	c0,18.4-5.6,38.4-12.2,52.7c-4.7,10.2-9.8,17.5-13.8,19.3c-4.9,2.3-15.9-7.7-25.5-18c-7.3-7.9-13.7-15.9-15.8-18.5
	c1.2-2,1.898-3.1,1.898-3.1L413.7,188.5z"/>
<path fill="#FFFFFF" stroke="#000000" stroke-width="0.5" d="M350,151.4l0.3-0.1c0.102,0.4,0.3,0.9,0.3,1.6c0,2.3,29,11.7,30.7,10.7
	c1.5-0.9,3-13.6,3.3-17.7h0.9c9.2,0.3,15.7,3,20,5.8c4.9,3.1,7,6.4,7,6.4c0.1,0.2,0.3,0.4,0.5,0.6c2.2,2.6,6,9.4-8,12.6
	c0,0-1-8.2-7.7-4c0,0-3.5-8.2-9-0.3c0,0-6-3-5.7,3.7c0,0-10.5,0.5-3.3,8.2c0,0-0.5,0.7-0.898,1.7c-21.5,6.6-55.9,6-55.9,6
	c-9.7-2.8-8.6-10.3-7.5-13.7c0.3-1,0.6-1.7,0.6-1.7C322,161.3,350,151.4,350,151.4z"/>
<path fill="#FFFFFF" stroke="#000000" stroke-width="0.5" d="M401.5,502.4c2.3,0.698,5.2,2.3,8.1,4.6c2.802,2.3,5,4.9,6.102,7
	c0.898,1.7,1.1,3.2,0.398,4c-0.5,0.6-1.3,0.8-2.5,0.7l-16.3-13.3c-0.398-1-0.3-2,0.2-2.602C398.2,502,399.7,501.9,401.5,502.4
	L401.5,502.4z"/>
<path fill="#FFFFFF" stroke="#000000" stroke-width="0.5" d="M379.4,185.7c-0.9-0.5-1.4-1.1-1.602-1.8c-0.3-1.1,0-2.4,0.5-3.4
	c0.4-1,0.9-1.7,0.9-1.7c-7.2-7.7,3.3-8.2,3.3-8.2c-0.3-6.7,5.7-3.7,5.7-3.7c5.5-7.8,9,0.3,9,0.3c6.7-4.2,7.7,4,7.7,4
	c2,0.3,2.6,1.4,2.5,2.6c-0.102,1.7-1.302,3.5-1.302,3.5c1,1.3,1.5,2.3,1.602,3.1c0.3,2.5-2.8,3-2.8,3c0,1-0.2,1.8-0.5,2.4
	c-1.102,2.1-3.602,1.8-3.602,1.8c0.9,4.9-2.8,4.3-4.3,3.9l0,0c-0.4-0.1-0.5-0.2-0.6-0.2h-0.2c-3,5-6.5-1.1-6.5-1.1
	c-8.5,3.8-7.8-4-7.8-4c-0.4,0-0.7-0.1-1-0.2c-0.102,0-0.102,0-0.2-0.1C379.8,185.9,379.6,185.8,379.4,185.7z M395.5,182.3
	c0,0,4.5,0.8,3.3-3.7c0,0,2.3-3.3-1.7-3.7c0,0,0.2-5.3-4.198-1.3c0,0-4.2-2.3-4.2,2c0,0-4.7,2.7,0,3.3c0,0-2.7,5,2,3
	C390.8,181.9,393.3,185.8,395.5,182.3z"/>
<path fill="#FFFFFF" stroke="#000000" stroke-width="0.5" d="M381.2,163.6c-1.7,1-30.7-8.3-30.7-10.7c0-0.7-0.1-1.2-0.3-1.6
	c-0.3-1-0.4-1.3,2.3-1.8c0,0,18.7,8.3,25.7,8.3c0,0,3-9.3,2.3-13c0,0,4-2.3,4,0c0,0.2,0,0.6,0,1C384.2,150,382.7,162.7,381.2,163.6z
	"/>
<path fill="#FFFFFF" stroke="#000000" stroke-width="0.5" d="M380.3,186c0.3,0.1,0.602,0.2,1,0.2c0,0-0.7,7.8,7.8,4
	c0,0,3.5,6.1,6.5,1.1h0.2c0,0,0.2,0.1,0.602,0.2l0,0c1.5,0.4,5.198,1,4.3-3.9c0,0,2.5,0.3,3.6-1.8l0.2,0.1c0,0,3.8,1.5,9.2,2.4v0.1
	c0,0-0.8,1.1-1.9,3.1c-2.1,3.6-5.7,9.8-9,16.9c-4.8,10.6-8.898,23.1-6.1,31.1c-12.4,18.1-37.4,1.5-37.7,1.3h-0.3
	c-0.602-13.4-13.5-29.2-13.5-29.2v-0.1c0.5-0.1,0.898-0.3,1.2-0.4c3.198-1.5,25.3-10.7,33.698-25l0.102-0.4
	C380.2,186,380.3,186,380.3,186z"/>
<path fill="#FFFFFF" stroke="#000000" stroke-width="0.5" d="M298.5,182.6c2.3-9.5,7-5.8,7-5.8s2.3,37.4,72.3,7.1
	c0.2,0.7,0.7,1.4,1.602,1.8v0.1C293.8,231.6,298.5,182.6,298.5,182.6z"/>
<path fill="#FFFFFF" stroke="#000000" stroke-width="0.5" d="M374.2,120.6c-2.2,0-4-2.1-4.3-4.8c0-0.2,0-0.5,0-0.8
	c0-3,1.898-5.5,4.3-5.5c0.7,0,1.3,0.2,1.898,0.6c1.4,0.9,2.4,2.8,2.4,4.9C378.5,118.1,376.5,120.6,374.2,120.6z"/>
<path fill="#FFFFFF" stroke="#000000" stroke-width="0.5" d="M373.4,485.5c1.1-0.8,1.898-1.4,2.198-1.6
	c1.5-1.2-1.698-27.5-1.698-27.5l-0.102-0.2c8.8-3.5,16.602-7,23.5-10l0.2,0.5c0,0-5.5,30.5-6.7,36.8c0,0.2-0.1,0.4-0.1,0.7
	c-0.2,3.7,3.3,9.2,6.3,13.1l0,0c-1-1.2-3.9-0.898-3.6,1.4c0.1,1.2,0.198,2.3-1.302,2.8c-3.5,1.2-7.5-1-7.5-1
	C374.8,497.8,373.5,485.6,373.4,485.5L373.4,485.5z"/>
<path fill="#FFFFFF" stroke="#000000" stroke-width="0.5" d="M378.2,157.9c-7,0-25.7-8.3-25.7-8.3c2.7-1.7-1.7-13-1.7-13l-0.3-0.5
	c7.8-4.8,18-13.9,18.3-19.5c-0.3,13.1,11.7,28.3,11.7,28.3C381.2,148.6,378.2,157.9,378.2,157.9z"/>
<path fill="#FFFFFF" stroke="#000000" stroke-width="0.5" d="M359,241.1c0.3,0.2,25.2,16.7,37.7-1.3c0,0,7.3,8,10.2,8l0.5,0.7
	c-3.4,2.6-21.7,17.1-20.5,25.3c0,0-9.302-18.3-30.302-23.5c1.7-2.7,2.302-5.9,2.2-9.2H359z"/>
<path fill="#FFFFFF" stroke="#000000" stroke-width="0.5" d="M326.7,215.4l-0.102-0.9h0.102c6.398-0.7,14.898-1.7,18.398-2.6v0.1
	c0,0,12.9,15.8,13.5,29.2c0.102,3.3-0.5,6.4-2.198,9.2c0,0-34-1.2-49.102,8.5c-0.2,0.1-0.3,0.3-0.398,0.5c0,0-6.4,3.9-13.9,8.7
	l-0.1-0.2l-6.1-3c5.6-3.6,11.4-8.3,16.601-14.3C303.5,250.4,324.6,228.8,326.7,215.4z"/>
<path fill="#FFFFFF" stroke="#000000" stroke-width="0.5" d="M352.5,49.8c-2.5,0-4.5-3.6-4.5-8c0-4.4,2-8,4.5-8s4.5,3.6,4.5,8
	C357,46.2,355,49.8,352.5,49.8z"/>
<path fill="#FFFFFF" stroke="#000000" stroke-width="0.5" d="M344.2,98.8c0-2.2,1.898-4,4.3-4s4.3,1.8,4.3,4c0,2.2-1.898,4-4.3,4
	S344.2,101,344.2,98.8z"/>
<path fill="#FFFFFF" stroke="#000000" stroke-width="0.5" d="M348.5,94.8c-2.4,0-4.3,1.8-4.3,4c0,2.2,1.898,4,4.3,4s4.3-1.8,4.3-4
	C352.8,96.6,350.8,94.8,348.5,94.8z M345.3,104c-2.5,0.2-6.8-2.5-6.8-2.5c0.2-0.6,0.3-1.2,0.5-1.8c2.7-8,8.9-7.5,13.4-5.9l0,0
	c3,1.1,5.198,2.7,5.198,2.7S352.2,103.6,345.3,104z"/>
<path fill="#FFFFFF" stroke="#000000" stroke-width="0.5" d="M339,99.8c-1-1.1-3.4-3.7-3.5-4.5c-0.3-2.1,5.9-5.6,8-6
	c2.8-0.6,8.6,4.2,9,4.5v0.1C347.9,92.2,341.7,91.7,339,99.8z"/>
<path fill="#FFFFFF" stroke="#000000" stroke-width="0.5" d="M340.2,130.6c0,0-14.5-1.9-12.7-3.7c4.1-4.3,9.4-2.3,9.4-2.3
	s4.3-6.5,11.698-4C348.5,120.6,342.6,130.6,340.2,130.6z"/>
<path fill="#FFFFFF" stroke="#000000" stroke-width="0.5" d="M333,50.8c-1.7,0-3-2.1-3-4.8s1.3-4.8,3-4.8s3,2.1,3,4.8
	S334.6,50.8,333,50.8z"/>
<path fill="#FFFFFF" stroke="#000000" stroke-width="0.5" d="M298.5,182.6c0,0-4.7,49,80.8,3.2v-0.1c0.2,0.1,0.5,0.2,0.8,0.3
	l-0.1,0.4c-8.3,14.3-30.5,23.5-33.7,25c-0.3,0.1-0.7,0.3-1.2,0.4c-3.5,0.9-12,2-18.398,2.6H326.6c-4.3,0.5-7.6,0.8-7.6,0.8
	c-7.3,0.5-13-0.1-17.4-1.5l0,0c-15.8-4.9-16.5-18.5-16.5-18.5c0-0.2-0.1-0.4-0.1-0.6C283,182.6,298.5,182.6,298.5,182.6z"/>
<path fill="#FFFFFF" stroke="#000000" stroke-width="0.5" d="M319.5,110.5c-2.4,0-4.3-1.7-4.3-3.8c0-2.1,1.898-3.8,4.3-3.8
	s4.3,1.7,4.3,3.8c0,1.1-0.5,2.1-1.398,2.7c-0.602,0.3-1.4,0.7-2.5,1C319.7,110.5,319.6,110.5,319.5,110.5z"/>
<path fill="#FFFFFF" stroke="#000000" stroke-width="0.5" d="M352.5,49.8c2.5,0,4.5-3.6,4.5-8c0-4.4-2-8-4.5-8s-4.5,3.6-4.5,8
	C348,46.2,350,49.8,352.5,49.8z M333,50.8c1.7,0,3-2.1,3-4.8s-1.3-4.8-3-4.8s-3,2.1-3,4.8S331.3,50.8,333,50.8z M305.3,42.8
	c3.4-5.3,7.9-11,14.2-16.5c0,0,15,23.5,29-4c0,0,14.7,3.9,23.4,16.6c3,4.4,5.3,9.8,6.1,16.4c0,0-47.5-11-82,13
	C296,68.3,296.5,56.7,305.3,42.8z M312.5,55.8c1.9,0,3.5-3.5,3.5-7.8s-1.6-7.8-3.5-7.8S309,43.7,309,48S310.5,55.8,312.5,55.8z"/>
<path fill="#FFFFFF" stroke="#000000" stroke-width="0.5" d="M310.8,108.4c0,0,3.2-8.6,9.3-8c6.602,0.6,5.602,3.1,4.9,5.6
	c-0.4,1.5-0.6,2.6-2.6,3.6c0.8-0.7,1.398-1.7,1.398-2.7c0-2.1-1.898-3.8-4.3-3.8s-4.3,1.7-4.3,3.8s1.898,3.8,4.3,3.8
	c0.1,0,0.3,0,0.4,0c-1,0.3-2.102,0.6-3.602,1c-7.898,1.9-7.7-0.1-6.8-1.7C310,109,310.8,108.4,310.8,108.4z"/>
<path fill="#FFFFFF" stroke="#000000" stroke-width="0.5" d="M305.5,176.8c1.3-6,9.3-4,9.3-4l0,0c-1.1,3.4-2.2,10.8,7.5,13.7
	c0,0,34.4,0.7,55.9-6c-0.4,1-0.8,2.3-0.5,3.4C307.8,214.2,305.5,176.8,305.5,176.8z"/>
<path fill="#FFFFFF" stroke="#000000" stroke-width="0.5" d="M312.5,55.8c-1.9,0-3.5-3.5-3.5-7.8s1.6-7.8,3.5-7.8s3.5,3.5,3.5,7.8
	S314.4,55.8,312.5,55.8z"/>
<path fill="#FFFFFF" stroke="#000000" stroke-width="0.5" d="M309.5,109.8c0.3-3.4-2.5-7.5-2.5-7.5s3.5-2,3.5-5s9.5,3.1,9.5,3.1
	c-6-0.6-9.3,8-9.3,8S310,109,309.5,109.8L309.5,109.8z"/>
<path fill="#FFFFFF" stroke="#000000" stroke-width="0.5" d="M339,99.8c-0.2,0.6-0.3,1.2-0.5,1.8c0,0,4.3,2.6,6.8,2.5
	c6.8-0.5,12.4-7.4,12.4-7.4s-2.3-1.6-5.2-2.7l0,0v-0.1c-0.3-0.3-6.2-5.1-9-4.5c-2.1,0.4-8.3,3.9-8,6C335.6,96,338,98.7,339,99.8z
	 M336.8,124.6c0,0-5.3-2-9.398,2.3c-1.802,1.9,12.698,3.7,12.698,3.7c2.5,0,8.302-10,8.302-10C341.1,118.1,336.8,124.6,336.8,124.6z
	 M310.5,97.3c0,3-3.5,5-3.5,5s2.8,4.1,2.5,7.5h0.1c-1,1.5-1.1,3.5,6.802,1.7c1.398-0.3,2.6-0.7,3.6-1c1-0.1,1.8-0.4,2.5-1
	c2-1,2.2-2.1,2.6-3.6c0.602-2.5,1.7-4.9-4.898-5.6C320,100.3,310.5,94.3,310.5,97.3z M319,126.3c-4.4-3.1-12.8-18.3-14.5-25.9
	c-0.2-0.7-0.3-1.3-0.5-1.9c-0.4-1.9-0.6-3.1-0.6-3.1c-1.2-18.8,13.6-16.7,15-16.5l0.1-0.2h0.1c6.2,1.2,13.2,0.7,13.2,0.7
	c34.602-3.1,36.4,12.3,36.4,12.3c-1.2,11.1,4.3,13.6,4.3,13.6s4.4-9,5-1c0.2,2.3-0.5,4.2-1.4,5.9c-0.6-0.4-1.198-0.6-1.898-0.6
	c-2.4,0-4.3,2.5-4.3,5.5c0,0.3,0,0.5,0,0.8c-0.7,0.4-1.102,0.5-1.102,0.5c0,0.1,0,0.1,0,0.2c-0.2,5.6-10.5,14.7-18.3,19.5
	c-2.5,1.6-4.8,2.7-6.4,3.1C334.5,141.8,325.2,130.6,319,126.3z"/>
<path fill="#FFFFFF" stroke="#000000" stroke-width="0.5" d="M246.1,205.6c2.3-14.6,9.5-32.9,24.9-55.9c0,0,26-12,20-47
	c0,0-25-9.5,0.5-34c0,0-5.7-18.9,13.8-26c-8.8,13.9-9.3,25.5-9.3,25.5c34.5-24,82-13,82-13c-0.8-6.6-3.1-12.1-6.1-16.4l0.698-0.5
	c1.9,1.1,23.2,14.4,19.4,36.9c0,0,12.5,19.5,6,30c0,0,20.5,13.5,9,46l-1.6,0.4c-4.302-2.8-10.802-5.5-20-5.8h-0.9c0-0.4,0-0.8,0-1
	c0-2.3-4,0-4,0s-12-15.3-11.7-28.3c0-0.1,0-0.1,0-0.2c0,0,0.4-0.2,1.102-0.5c0.3,2.7,2.1,4.8,4.3,4.8c2.398,0,4.3-2.5,4.3-5.5
	c0-2.2-1-4.1-2.4-4.9c1-1.6,1.602-3.6,1.4-5.9c-0.6-8-5,1-5,1s-5.5-2.5-4.3-13.6c0,0-1.9-15.4-36.4-12.3c0,0-7,0.6-13.2-0.7h-0.1
	l-0.1,0.2c-1.4-0.2-16.2-2.3-15,16.5c0,0,0.199,1.2,0.6,3.1c0.1,0.6,0.3,1.2,0.5,1.9c1.8,7.6,10.1,22.8,14.5,25.9
	c6.2,4.3,15.5,15.5,25.1,13c1.602-0.4,3.9-1.6,6.4-3.1l0.3,0.5c0,0,4.3,11.3,1.7,13c-2.6,0.5-2.5,0.8-2.3,1.8l-0.3,0.1
	c0,0-28,9.8-34.5,19.7c0,0-0.302,0.6-0.602,1.7l0,0c0,0-8-2-9.3,4c0,0-4.7-3.7-7,5.8c0,0-15.5,0-13.6,12c0,0.2,0.1,0.4,0.1,0.6
	c0,0,0.7,13.6,16.5,18.5v0.2c0,0-3.2,22-9,26c0,0-10.1,8.9-20.1,17.6C267.7,255.7,240.2,243.4,246.1,205.6z"/>
<path fill="#FFFFFF" stroke="#000000" stroke-width="0.5" d="M247.4,304.3c0.4,0.101,0.8-0.1,0.9-0.8c0.5-2.2,0.2-8,0.8-11.7
	c0.7-3.7,6.7-10.5,13.3-16.2c0,0,11.6-2.7,24.4-11l6.1,3l0.1,0.2c-10.3,6.6-22.7,14.8-23,16.601c0,0,10.5-0.199,19.4,0.5
	c-12.1,1.301-18.4,22.5-18.4,22.5C258.8,326.5,249.1,307.9,247.4,304.3z"/>
<path fill="#FFFFFF" stroke="#000000" stroke-width="0.5" d="M239.7,514.8c0,0-4.3,1.3-3.3-2.5s5.2-9.8,5.2-9.8l-0.3-0.2
	c7-8.7,32.6-71.6,32.6-71.6l0.2-0.3c0.1,0.1,0.2,0.198,0.4,0.198c7.9,5,13.8,2.7,15.1,10.9c0.6,3.8,2.1,7.9,3.9,11.5h-0.1
	l-36.7,51.7c0,0-6,15.7-9.3,13.8C244,516.6,245.7,512.1,239.7,514.8z"/>
<path fill="#FFFFFF" stroke="#000000" stroke-width="0.5" d="M0.4,411.9l247.2-0.7c1.5,5.8,6.4,14.2,21.7,15.7l0.2-0.2l0.1,0.1
	c0.4,0.4,0.8,0.7,1.2,1.102c1.1,0.898,2.1,1.698,3.2,2.398l-0.2,0.3c0,0-25.6,63-32.6,71.602l0,0c-0.3,0.3-0.5,0.6-0.7,0.7
	c-1.8,1.398-2.4,1.898-2.5,1.8c0.9-1,1.7-1.8,2.2-2.2c-0.9,0.8-2.3,2.2-2.2,2.2c-7.2,7.599-25,28.898-15.8,45.699
	c0,0,3.7,4.8,10.3,0c6.7-4.802,20.2-10.2,24.2-45.802l36.7-51.698h0.1c2.6,5.1,5.8,9,7.9,9c3.5,0,15.8,13,52.5,1.5
	c7.1-2.2,13.8-4.7,20.1-7.2l0.1,0.2c0,0,3.2,26.3,1.7,27.5c-0.3,0.198-1.2,0.8-2.2,1.6c-4,3.1-10.5,10.1-0.3,21.1
	c0,0-0.3,8-0.7,9.802c-0.3,1.8,3,2.198,4.2,0.198l0.5-9.8c0,0,4.2-2,6,3.5s8.5,16.8,19,18.2c0,0,18.2,6.2,24.2,2.8
	c0,0,2.8-3.8,1.8-5c0,0-10.7-12-12-12.3l0,0l-0.5,0.1c-1.1-2.1-3.3-4.6-6.1-7c-2.9-2.3-5.8-4-8.102-4.6l0,0c0,0-2-2.1-4.3-5.1
	c-3-4-6.6-9.4-6.3-13.102c0-0.2,0-0.398,0.1-0.7c1.2-6.3,6.7-36.8,6.7-36.8l-0.2-0.5c13.4-5.7,23.102-9,28.7-5.2
	c10.5,7.2,9.8,10.5,12.8,9s3.802,3.302,14-4.8c10.2-8.2,25.7-20,28.5-25.8c3.302-1.8,6.302-3.2,7-1.5c0.7,1.7,5.7,1.8,6,0.2
	c0.302-1.7,4.5-6.8,5.302-5c0.8,1.8,7.698,2,7.3,0c-0.3-2,2.3-4.7,3.5-2.7s7.3,1.2,7.3-1.3s4-3.3,4.8-3s4.5,0,4.5-2.7
	s3.5-3.5,5.2-2.3s5.8-2.3,5.8-2.3c-0.2,0.898,6.8-0.602,12.9-2.4c26.1,0.7,230.898-0.7,271.2-203.6V447c-0.302,0-0.7,0-1,0
	c-3.5,0-2.802,1.5-3.7,1.8c-0.3-4.8-5-8.7-5-8.7c11.1-13-5.5-17.3-5.5-17.3c1-20-15.7-12.2-15.7-12.2
	c4.2-16.1-10.8-9.398-10.8-9.398c-14.8-9.5-13.5,7.1-13.4,8.3c-8-18.3-16.2,3.1-16.2,3.1c0-5.5-3.1-9.8-6.3-15.698
	c-3-5.5-11.398,10.1-13.898,12c-2.102-10-9.4-15.102-9.4-15.102c-4-1.8-10,10.5-11.3,13.102c-6-11.102-23.102-7.302-23.102-7.302
	c-3.8,2.802,2.802,15.7,2.802,15.7v0.2c-6.302-2.3-13.5-2.5-13.5-2.5c-0.5,3.4,0.898,7.2,3.198,10.8l-0.199,0.1
	c-1.9-3.302-20.9-9.602-23.9-5.5c-3,4.198,1.7,13.8,2.1,14.5c-14-5.5-27.398-2.2-31.3,1.198c-4.898,4.302,1,20.802,1,20.802
	l0.102,0.5c-16.2,2.3-30.302,12.1-30.302,12.1c-1.698,10.2,10.102,29,10.102,29l0.1,1.2c-10.3,5.1-19.898,14.8-25.1,32.6
	c0,0,8.398,11.5,24.398,14.9l-0.1,0.398c0,0-5.7,6.2-9.3,21.302"/>
<path fill="#FFFFFF" stroke="#000000" stroke-width="0.5" d="M231.9,241.5l-17.9-5.9l-0.1-0.1c1.5-1.2,1.9-2.5,1.2-3.6l10.9-6.2l0,0
	c1.1-0.6,18-2,9.5,7C235.5,232.7,240.8,238.9,231.9,241.5z"/>
<path fill="#FFFFFF" stroke="#000000" stroke-width="0.5" d="M229.3,537.7c0.3,0.2,0.7,0.398,1.2,0.398s1-0.1,1.5-0.3
	s1.3-1,1.7-0.898c0.7-0.802,1.4-2,1.7-1.2c0.4-1.3,0.7-2.102,0.9-1.102c0.3-1.5,0.5-2,0.9-0.8c0-1.6,0.1-2.1,0.8-1.2
	c-0.3-1.398-0.1-1.698,1-0.898c-0.8-1.2-0.7-1.5,0.5-1.2c-0.9-0.8-0.7-1,0.8-1.1c-1.2-0.4-1-0.602,0.4-1.102
	c-1.1,0-0.6-0.398,0.8-1.2c-0.8,0.102-0.8-0.1-0.4-0.698c-0.1-0.2,0.4-0.7,0.9-1.4c-0.7,0.1,0-1,0.3-1.9
	c-0.3-0.198-0.2-0.898-0.3-1.5c-0.3-0.3-0.4-0.698-0.7-1c-0.4-0.198-0.8-0.3-1.2-0.398c-0.5,0.1-1,0.398-1.5,0.3
	c-0.6,0.5-1.2,1.3-1.7,0.9c-0.5,1.1-1,2.1-1.8,1.3c0,1.3-0.1,1.898-0.8,1c0.3,1.398,0.1,1.7-0.9,0.8c0.6,1.4,0.5,1.7-0.8,1.1
	c0.8,1.102,0.4,1.301-1,0.9c1.1,0.9,0.9,1.2-0.5,1.2c1.1,0.5,0.6,0.8-0.8,1.1c1.1,0.3,0.7,0.7-0.5,1.101
	c0.8,0.199,0.1,0.601-0.7,1.101c0.5,0.399-0.2,1.3-0.6,2.1c0.1,0.602-0.2,1.301-0.2,1.9s0.1,1,0.3,1.5
	C228.7,537.2,228.9,537.5,229.3,537.7z M232.5,550.4c-6.7,4.8-10.3,0-10.3,0c-9.1-16.802,8.6-38.102,15.8-45.7
	c0.1,0,0.7-0.4,2.5-1.8c0.2-0.2,0.4-0.4,0.7-0.7l0,0l0.3,0.2c0,0-4.2,6-5.2,9.8s3.3,2.5,3.3,2.5c6-2.7,4.3,1.8,7.7,3.7
	c3.3,1.8,9.3-13.802,9.3-13.802C252.7,540.3,239.2,545.6,232.5,550.4z"/>
<path fill="#FFFFFF" stroke="#000000" stroke-width="0.5" d="M222.3,338.4c-5.7,2.699-3.8-1-7.7-1.5c-3.8-0.5,10-24.5,10-24.5
	l0.5-0.102c3.3,4,9.6,9.2,20.7,16.2l-0.2,0.3c0,0-6,14.102-7.3,17.9c-0.1-1.801-1.6-5.301-2.7-2.801c-1.3,3.199-6.8,1.301-8.2,1.301
	S228,335.8,222.3,338.4z"/>
<path fill="#FFFFFF" stroke="#000000" stroke-width="0.5" d="M231.2,389.4c-2.7,0.8-4.8-4.7-5.3-4.301
	c-0.5,0.301,12.3-37.5,12.3-37.5c0.1-0.101,0.2-0.5,0.2-0.899c1.3-3.8,7.3-17.9,7.3-17.9l0.2-0.3c1.7,1.1,3.5,2.2,5.5,3.3
	c0,0-5.7,43.5,1.8,47s9.8,1.2,11.2,4.2c1.3,3-1.7,5.8,0.2,7.5c1.8,1.7,5.3,4.3,3.3,5.3s-4.3-1.3-4.3,1.2c0,2,2.3,8.4,2.2,12.2h-0.5
	c-2.2-3.2-4.8,0.8-7.5,0.3c-2.7-0.5-3.3-4-3.5-8c-0.2-4-5.5-0.5-7.3-0.5s-3.2-3-3.8-5.8c-0.7-2.8-5,1.2-7.3-0.5
	C233.3,392.9,233.8,388.6,231.2,389.4z"/>
<path fill="#FFFFFF" stroke="#000000" stroke-width="0.5" d="M229.3,537.7c-0.3-0.2-0.6-0.602-0.8-1c-0.2-0.4-0.3-0.9-0.3-1.5
	c0-0.602,0.3-1.3,0.2-1.9c0.4-0.8,1.1-1.7,0.6-2.1c0.8-0.5,1.4-1,0.7-1.102c1.1-0.5,1.5-0.8,0.5-1.1c1.4-0.3,1.9-0.6,0.8-1.1
	c1.4,0,1.6-0.301,0.5-1.2c1.4,0.399,1.8,0.2,1-0.9c1.2,0.602,1.3,0.2,0.8-1.1c1,0.899,1.2,0.5,0.9-0.8c0.7,0.898,0.8,0.3,0.8-1
	c0.7,0.8,1.2-0.2,1.8-1.301c0.5,0.399,1.1-0.399,1.7-0.899c0.4,0.1,1-0.2,1.5-0.3c0.4,0.1,0.8,0.199,1.2,0.398
	c0.3,0.301,0.5,0.7,0.7,1c0.1,0.5-0.1,1.301,0.3,1.5c-0.3,0.9-1,1.9-0.3,1.9c-0.6,0.7-1.1,1.2-0.9,1.399
	c-0.4,0.5-0.4,0.699,0.4,0.699c-1.4,0.801-1.9,1.102-0.8,1.2c-1.4,0.5-1.6,0.7-0.4,1.101c-1.5,0.101-1.7,0.301-0.8,1.101
	c-1.2-0.3-1.3,0-0.5,1.2c-1.1-0.801-1.3-0.602-1,0.898c-0.7-1-0.8-0.5-0.8,1.2c-0.4-1.2-0.6-0.7-0.9,0.8c-0.2-1-0.5-0.199-0.9,1.102
	c-0.3-0.801-1,0.398-1.7,1.199c-0.4-0.101-1.1,0.699-1.7,0.899c-0.5,0.101-1,0.3-1.5,0.3C230,538.1,229.6,538,229.3,537.7z"/>
<ellipse fill="#FFFFFF" stroke="#000000" stroke-width="0.5" cx="223" cy="210.3" rx="7.5" ry="4"/>
<path fill="#FFFFFF" d="M232.9,287.1c-0.9,1.2-1.5,2.4-1.8,3.5c0,0-1.9,2.602-3.5,5.2c0,0-0.1,0.101-0.1,0.2l-0.2-0.1
	c-0.8,0.5-6.1,3.8-6.2,1.3C221,294.4,231.6,287.4,232.9,287.1z"/>
<path fill="none" stroke="#000000" stroke-width="0.5" d="M227.4,295.8c-0.8,0.5-6.1,3.8-6.2,1.3c-0.2-2.699,10.4-9.6,11.8-10
	c-0.9,1.2-1.5,2.4-1.8,3.5c0,0-1.9,2.602-3.5,5.2c0,0-0.1,0.101-0.1,0.2L227.4,295.8z"/>
<path fill="#FFFFFF" stroke="#000000" stroke-width="0.5" d="M229.8,300.1c0,0-2.3,1.7-3.8,0.7c-0.7-0.5,0.3-2.6,1.6-4.8
	c0,0,0.1-0.1,0.1-0.2c1.6-2.6,3.5-5.2,3.5-5.2c0.3-1.1,0.9-2.3,1.8-3.5c5.1-6.898,18.7-14.2,19.6-13.5c0.1,0.1,0.3-0.1,0.7-0.3
	c2.5-1.6,10.8-8.6,19.1-15.8c10-8.7,20.1-17.6,20.1-17.6c5.8-4,9-26,9-26v-0.2l0,0c4.5,1.4,10.2,2,17.4,1.5c0,0,3.3-0.3,7.6-0.8
	l0.1,0.9c-2.1,13.4-23.199,35-23.199,35c-5.2,6-11,10.7-16.601,14.3c-12.8,8.3-24.4,11-24.4,11c-6.7,5.7-12.7,12.5-13.3,16.2
	c-0.7,3.7-0.3,9.5-0.8,11.7c-0.1,0.6-0.5,0.8-0.9,0.8c-1-0.1-2.6-1.8-2.9-1.8c-0.5,0-0.7-8.3-0.7-8.3s0.7-3.2-2.7-4
	C237.8,289.4,229.8,300.1,229.8,300.1z"/>
<path fill="#FFFFFF" stroke="#000000" stroke-width="0.5" d="M222,306.7c-1.1-4.7,4-6,4-6c1.5,1,3.8-0.7,3.8-0.7s8-10.7,11.3-9.8
	c3.3,0.8,2.7,4,2.7,4s0.2,8.3,0.7,8.3c0.4,0,1.9,1.6,2.9,1.8c1.7,3.601,11.3,22.2,23.7,3.3c0,0,6.4-21.199,18.4-22.5
	c6.5,0.5,12.2,1.5,12.6,3.301c0.101,0.301,26.7,30.801,42.301,15.5c0,0,30.198-12.801,46.3,11.301c0,0,5.2,3.3,13.8-6.5
	c0,0,18.2-19.801,29-18.801c0,0,29.4-1.101,42.9-10.101l0.1,0.1c21.7,5.3,84.5,76.7,84.5,76.7s16,14,15.7,22.801
	s-14.7,10.801-17,13.301c-0.9,1-4.602,2.398-8.602,3.6c-6.1,1.8-13.1,3.3-12.898,2.4c0.3-1.5,8.7-10.5,10.2-13.7s-2.302-4.5-2.7-3.5
	c-0.3,1-16,7.8-16,6.3s4-1.199-7.7-1.199s-37.8,26.801-40.7,32.699c-2.8,5.8-18.3,17.7-28.5,25.8c-10.2,8.2-11,3.301-14,4.801
	s-2.3-1.801-12.8-9c-5.6-3.801-15.3-0.5-28.7,5.199c-6.898,2.9-14.8,6.5-23.5,10c-6.2,2.5-12.898,5-20.1,7.2
	c-36.7,11.5-49-1.5-52.5-1.5c-2.101,0-5.3-3.898-7.9-9c-1.8-3.5-3.3-7.7-3.9-11.5c-1.3-8.2-7.2-5.898-15.1-10.898
	c-0.1-0.102-0.2-0.2-0.4-0.2c-1-0.7-2.1-1.5-3.2-2.4c-0.4-0.398-0.8-0.7-1.2-1.1l-0.1-0.102c-8-8.1-4.4-15.5-4.4-15.5
	c0.4-0.5,0.5-1.3,0.5-2.198l0,0c0.1-3.802-2.2-10.102-2.2-12.201c0-2.5,2.3-0.199,4.3-1.199s-1.5-3.7-3.3-5.301
	c-1.8-1.699,1.2-4.5-0.2-7.5c-1.3-3-3.7-0.699-11.2-4.199s-1.8-47-1.8-47c-1.9-1.1-3.8-2.2-5.5-3.301
	C234.5,321.3,228.2,316,224.9,312C223.2,310,222.3,308.2,222,306.7z"/>
<path fill="#FFFFFF" stroke="#000000" stroke-width="0.5" d="M214.7,336.9c3.8,0.5,2,4.199,7.7,1.5c5.7-2.7,3.8,6.8,5.2,6.8
	s6.8,1.8,8.2-1.3c1.1-2.602,2.6,0.898,2.7,2.8c-0.2,0.7-0.3,1-0.2,0.899c0,0-12.8,37.801-12.3,37.5s2.7,5.199,5.3,4.301
	c2.7-0.801,2.2,3.5,4.5,5.199c2.3,1.699,6.7-2.301,7.3,0.5c0.7,2.801,2,5.801,3.8,5.801c1.8,0,7.2-3.5,7.3,0.5c0.2,4,0.8,7.5,3.5,8
	c2.7,0.5,5.3-3.5,7.5-0.302h0.5l0,0c0,0.9-0.2,1.602-0.5,2.2c0,0-3.6,7.4,4.4,15.5l-0.2,0.2c-15.3-1.5-20.1-9.9-21.7-15.7
	c-0.8-3.1-0.7-5.5-0.7-5.5C203.2,393.1,224.2,375.6,224.2,375.6C188.4,364.9,208.5,345.4,208.5,345.4
	c-19-22.801,13.3-38.7,13.3-38.7h0.2c0.3,1.5,1.3,3.3,3.2,5.6l-0.5,0.101C224.7,312.4,210.8,336.4,214.7,336.9z"/>
<path fill="#FFFFFF" stroke="#000000" stroke-width="0.5" d="M189.9,282.8c2.2-1.5,2.8-3.1,1.7-4.5l15.8-7.9l0,0
	c1.8-0.8,26.1-2.5,13.8,8.9c0,0,7.6,7.7-5.2,11.101l-26-7.399L189.9,282.8z"/>
<path fill="#FFFFFF" stroke="#000000" stroke-width="0.5" d="M214,235.6l17.9,5.9c0,0,1.5,7.8-10.3,6.7c0,0-4.8,8.9-15.4,2.7
	l-0.1-0.1l0.1-0.1l1.9-12.8v-0.1c0.9-0.2,1.7-0.4,2.5-0.7c1.4-0.5,2.5-1.1,3.3-1.7L214,235.6z"/>
<path fill="#FFFFFF" stroke="#000000" stroke-width="0.5" d="M208.1,237.9c-3.8,0.7-7.9,0.3-8.5-1.3c-0.5-1.3,0.1-2.6,1.6-3.8
	c0.8-0.6,2-1.2,3.5-1.8c1.1-0.4,2.2-0.6,3.3-0.7c3.3-0.3,6.4,0.4,7.2,1.6c0.7,1.1,0.3,2.4-1.2,3.6c-0.8,0.6-1.9,1.2-3.3,1.7
	C209.8,237.5,209,237.8,208.1,237.9z"/>
<path fill="#FFFFFF" stroke="#000000" stroke-width="0.5" d="M215.2,231.9c-0.8-1.2-3.9-1.9-7.2-1.6v-0.1c0,0,2.2-5,1.6-8.1h0.1
	c0,0,3.1-6.7,11.6-1.5c0,0,6.4,0.4,5.1,4.9l-0.3,0.2L215.2,231.9z"/>
<path fill="#FFFFFF" stroke="#000000" stroke-width="0.5" d="M199.6,236.6c0.6,1.6,4.8,2,8.5,1.3v0.1l-1.9,12.8l-0.1,0.1
	c-5.6,6.4-12.3-2.3-14.4-2.3c-15.1,0.1-6.6-7.7-6.6-7.7L199.6,236.6z"/>
<path fill="#FFFFFF" stroke="#000000" stroke-width="0.5" d="M196.7,222.7c5.4-6.9,11.4-2.7,11.4-2.7c0.8,0.4,1.2,1.1,1.4,2.1
	c0.6,3.1-1.6,8.1-1.6,8.1v0.1c-1.1,0.1-2.3,0.4-3.3,0.7c-1.5,0.5-2.6,1.1-3.5,1.8c-4-0.6-7-1.2-9.2-1.8l0,0c0,0,0,0-0.1,0
	c-0.2-0.1-1.1-0.4-2.1-0.7C180.3,226.5,196.7,222.7,196.7,222.7z"/>
<path fill="#FFFFFF" stroke="#000000" stroke-width="0.5" d="M199.6,236.6l-14.5,4.3c-8.6-1.4-2.9-7.1-2.9-7.1
	c-1.8-5.5,4.2-4.5,7.6-3.5c0.6,0.2,1.3,0.5,2.1,0.7h0.1l0,0c2.2,0.6,5.2,1.2,9.2,1.8C199.7,234,199.2,235.3,199.6,236.6z"/>
<path fill="#FFFFFF" stroke="#000000" stroke-width="0.5" d="M181.4,285.9c1.3-0.2,2.5-0.5,3.6-0.801c2.1-0.699,3.7-1.399,4.9-2.201
	l0,0l0.1,0.2l26,7.4c0,0,2.1,9.8-14.9,8.399c0,0-6.9,11.199-22.4,3.5l-0.1-0.101l0.1-0.101L181.4,285.9L181.4,285.9z"/>
<path fill="#FFFFFF" stroke="#000000" stroke-width="0.5" d="M181.4,285.9c-5.5,0.898-11.5,0.398-12.4-1.602
	c-0.7-1.7,0.1-3.3,2.3-4.8c1.2-0.8,2.9-1.6,5-2.2c1.5-0.5,3.2-0.8,4.8-0.9c4.7-0.4,9.3,0.5,10.4,2c1,1.4,0.4,3-1.7,4.5l0,0
	c-1.2,0.8-2.8,1.6-4.9,2.201C183.9,285.4,182.7,285.7,181.4,285.9L181.4,285.9z"/>
<path fill="#FFFFFF" stroke="#000000" stroke-width="0.5" d="M164.9,266.7c7.9-8.7,16.6-3.4,16.6-3.4c1.2,0.5,1.8,1.5,2,2.6
	c0.9,3.9-2.3,10.3-2.3,10.3v0.1c-1.6,0.1-3.3,0.4-4.8,0.9c-2.1,0.7-3.8,1.4-5,2.2c-5.8-0.7-10.1-1.5-13.3-2.3l0,0H158
	c-0.4-0.1-1.6-0.5-3.1-0.9C141,271.5,164.9,266.7,164.9,266.7z"/>
<path fill="#FFFFFF" stroke="#000000" stroke-width="0.5" d="M181.2,276.2c0,0,3.1-6.3,2.3-10.3h0.1c0,0,4.5-8.5,16.8-1.9
	c0,0,9.3,0.5,7.4,6.2l-0.4,0.2l-15.8,7.9C190.5,276.8,186,275.9,181.2,276.2L181.2,276.2z"/>
<path fill="#FFFFFF" stroke="#000000" stroke-width="0.5" d="M153.6,346.2l23.5,10.2c0,0,1.9,13.398-13.5,11.5
	c0,0-6.3,15.3-20.3,4.699l-0.2-0.101c0.1-0.101,0.1-0.2,0.2-0.3l2.5-22v-0.1c1.1-0.3,2.2-0.699,3.2-1.1c1.9-0.9,3.3-1.9,4.4-3
	L153.6,346.2z"/>
<path fill="#FFFFFF" stroke="#000000" stroke-width="0.5" d="M153.4,346c2-2,2.6-4.3,1.6-6.3l14.2-10.7l0,0
	c1.4-1.1,23.7-3.5,12.5,12.1c0,0,6.9,10.5-4.7,15.2l-23.5-10.2L153.4,346z"/>
<path fill="#FFFFFF" stroke="#000000" stroke-width="0.5" d="M169,284.2c0.8,2.1,6.9,2.5,12.4,1.6l0,0v0.101l-2.8,16.101
	c0,0.101-0.1,0.101-0.1,0.101c-8.1,8.101-17.9-2.899-20.9-2.899c-21.9,0.2-9.6-9.7-9.6-9.7L169,284.2z"/>
<path fill="#FFFFFF" stroke="#000000" stroke-width="0.5" d="M171.5,220.3c-3.3,0-6-2-6-4.5s2.7-4.5,6-4.5s6,2,6,4.5
	C177.5,218.2,174.8,220.3,171.5,220.3z"/>
<path fill="#FFFFFF" stroke="#000000" stroke-width="0.5" d="M169,284.2l-21,5.399c-12.4-1.801-4.3-8.899-4.3-8.899
	c-2.6-7,6.1-5.7,11.1-4.5c0.9,0.3,1.9,0.6,3.1,0.9h0.1l0,0c3.2,0.8,7.5,1.5,13.3,2.3C169.1,280.9,168.4,282.6,169,284.2z"/>
<path fill="#754026" stroke="#000000" stroke-width="0.5" d="M162.8,77.2c-1-0.6-1.1-1.2-1-1.7c0.3-0.9,1.6-1.5,1.4-2
	c0.5,0.7,1.7,0.8,4,1.3c1.4,0.3,3.1,0.7,1.8,0.9c-0.8,0.1-3.1,0.3-3.1,0.3s-2,0.2-2.6,0.8C163.1,77.1,163,77.2,162.8,77.2
	L162.8,77.2L162.8,77.2z"/>
<path fill="#FFFFFF" stroke="#000000" stroke-width="0.5" d="M145.6,336.9c0,0,2.9-8.7,2.1-14h0.1c0,0,4.1-11.602,15.2-2.5
	c0,0,8.4,0.699,6.7,8.398l-0.4,0.301L155,339.8c-1-2.1-5.1-3.3-9.4-2.8V336.9z"/>
<path fill="#141630" stroke="#000000" stroke-width="0.5" d="M156.9,72.6c0-0.2,0.2-0.3,0.4-0.3c0.2,0,0.4,0.1,0.4,0.3
	c0,0.2-0.2,0.3-0.4,0.3C157.1,72.9,156.9,72.8,156.9,72.6z"/>
<path fill="#FFFFFF" stroke="#000000" stroke-width="0.5" d="M157,95.9c17.4,6,3.2,39.1-10.2,39.8c-0.7,0-1.3-0.8-0.4-2.4
	c9.1-16.6,4.8-21.5,2.5-21.6l-0.2-0.2c0,0,0,0,0.1,0c6.8-4.9,7.8-13.1,7.9-15.4l0,0h0.1C156.9,96.2,156.9,96.2,157,95.9z"/>
<path fill="#FFFFFF" stroke="#000000" stroke-width="0.5" d="M148,237.3c-4.7,0-8.5-1.8-8.5-4c0-2.2,3.8-4,8.5-4s8.5,1.8,8.5,4
	C156.5,235.5,152.7,237.3,148,237.3z"/>
<path fill="#FFFFFF" stroke="#000000" stroke-width="0.5" d="M145.8,350.1c-4.9,1.2-10.4,0.602-11.2-2.3c-0.6-2.3,0.1-4.5,2.1-6.5
	c1.1-1.1,2.6-2.1,4.6-3.1c1.4-0.7,2.9-1.101,4.4-1.3c4.3-0.602,8.4,0.699,9.4,2.8c0.9,2,0.4,4.2-1.6,6.3c-1.1,1.1-2.5,2.1-4.4,3
	C148,349.5,146.9,349.8,145.8,350.1z"/>
<path fill="#FFFFFF" stroke="#000000" stroke-width="0.5" d="M130.8,323.9c7.1-11.9,15-4.602,15-4.602c1.1,0.7,1.6,2,1.9,3.602
	c0.8,5.3-2.1,14-2.1,14v0.1c-1.5,0.2-3,0.6-4.4,1.3c-1.9,0.9-3.4,1.9-4.6,3.101c-5.2-1-9.2-2-12-3.101l0,0c-0.2-0.1-1.4-0.7-2.9-1.3
	C109.3,330.5,130.8,323.9,130.8,323.9z"/>
<path fill="#FFFFFF" stroke="#000000" stroke-width="0.5" d="M144.1,82.3c-0.9-1.4-1.5-4.9,2.3-4.6c11.2,1.1,8.8-1.7,15.5-2.2l0,0
	c-0.2,0.5,0,1.1,1,1.7l0,0c-1,0.7-3.1,2.5-4.4,10.8c-1.8,0.3-9.6-2-11.1-2.6C146.2,85,145.1,84,144.1,82.3z"/>
<path fill="#FFFFFF" stroke="#000000" stroke-width="0.5" d="M92.9,70.2c-13.5-5,16.9-5.6,40,12.1c0.4,0.3,0.9,0.7,1.3,1
	c0,0,4.7,6.2,5.4,5.4c0.8-0.8,0.1-1.9,1.1-2.5c0.8-0.5-0.4-0.3,1.2-0.2c0.5,0,14.8,5.8,14.8,9.9V96c0,0,0,0,0,0.1l0,0
	c-0.1,2.3-1.1,10.5-7.9,15.4c0,0,0,0-0.1,0c-0.5,0.4-1.1,0.7-1.6,1c-0.6,0-2.1,0.9-4.4,1.4c-2.2,0.5-31.7,1.4-32.3,1.6
	c0,0-0.4,0.1-0.9,0.4c-6.1,0.2-11.5-0.6-12.4-2.1c-0.3-0.6,0-1.3,1.1-2.1c13.1-9.1,19.4-14.1,22.4-16.8c1.6-1.4,2.2-2.2,2.5-2.6
	c0.4-0.6-0.9-2.4-2.9-3.8c-2-1.5-5.6-5-5.6-5l-5.3-6.6C103.2,73.9,94.3,70.7,92.9,70.2z"/>
<path fill="#FFFFFF" stroke="#000000" stroke-width="0.5" d="M134.6,347.9c0.8,2.8,6.3,3.5,11.2,2.3v0.1l-2.5,22
	c-0.1,0.101-0.1,0.2-0.2,0.3c-7.3,10.9-16.2-4-18.8-4c-19.8,0.2-8.7-13.3-8.7-13.3L134.6,347.9z"/>
<path fill="#FFFFFF" stroke="#000000" stroke-width="0.5" d="M156.2,73.3c-0.1-0.1,2-0.1,2,0.1c0.2-0.4,0.4-1.4-0.3-1.7
	c-0.7-0.3-1-0.2-1.4,0C156,71.9,155.5,72.9,156.2,73.3z M133.9,80.9c2.7,1.5,5-0.9,5-0.9s13.1-22.2,24.3-6.4c0.2,0.4-1.1,1.1-1.4,2
	l0,0c-6.6,0.5-4.3,3.3-15.5,2.2c-3.8-0.4-3.1,3.1-2.3,4.6c1,1.7,2.1,2.7,3.3,3.2c1.5,0.6,9.3,2.9,11.1,2.6c-0.1,0.3-0.1,0.6-0.1,0.9
	c-0.3,1.8-0.6,3-0.8,3.5c0-0.2,0-0.1-0.2,0.3c-0.1,0.3,0,0.2,0.2-0.3c0,0.2-0.2,0.9-0.3,1.7l0,0c-0.1,0.7-0.3,1.5-0.3,1.8
	c0,0,0,0,0,0.1h-0.1c0,0,0,0,0-0.1V96c0-4.1-14.3-9.8-14.8-9.9c-1.6-0.1-0.5-0.3-1.2,0.2c-1,0.6-0.3,1.7-1.1,2.5
	c-0.8,0.8-5.4-5.4-5.4-5.4c-0.4-0.4-0.9-0.7-1.3-1L133.9,80.9z"/>
<path fill="#FFFFFF" stroke="#000000" stroke-width="0.5" d="M107.4,301.8c1.6-1.399,2.1-3,1.3-4.3l11.6-7.5l0,0
	c1.2-0.8,19.3-2.4,10.2,8.5c0,0,5.6,7.3-3.9,10.6l-19.1-7.1L107.4,301.8z"/>
<path fill="#FFFFFF" stroke="#000000" stroke-width="0.5" d="M121.8,336.9c0.8,0.398,1.8,0.8,2.9,1.3l0,0c2.9,1.1,6.8,2.1,12,3.1
	c-2,2-2.7,4.3-2.1,6.5l-19,7.4c-11.2-2.4-3.9-12.2-3.9-12.2C109.3,333.5,117.2,335.3,121.8,336.9z"/>
<path fill="#FFFFFF" stroke="#000000" stroke-width="0.5" d="M113.3,152.8c0,0,9.3-4.3,12.2-7.3c0.6-0.6,1.1-1.1,1.7-1.7
	c-0.7,0.6-2.5,0.7-3.3,0.6c-0.2-0.9,1-2.8,1.7-3.3c1.8-1.4,4.1-1.9,6.1-3.1c1-0.6,1.9-1.2,2.8-1.9l-0.1-0.1c-0.5,0.1-1,0.1-1.5,0.1
	c-0.9-1.2,0.9-2.2,1.6-2.9c1.2-1.2,2.1-1.8,3.5-2.8c1.1-0.7,2.3-1.3,3.4-2c1-0.6,3.3-3,4-4l0.1-0.3c-0.8-0.2-1.9,0.1,1.1-3.7
	c5.3-6.6,1.3-6.4,0.8-7.6c0-0.1-0.1-0.1-0.3-0.1c0.6-0.3,1.1-0.7,1.6-1l0.2,0.2c2.2,0.1,6.6,5-2.5,21.6c-0.8,1.5-0.2,2.4,0.4,2.4
	c13.4-0.7,27.6-33.8,10.2-39.8c-0.1,0.3-0.1,0.3-0.1,0.1c0,0,0,0,0-0.1c0-0.3,0.2-1,0.3-1.8l0,0c0,0,3.3,1.9,7.4,3.9
	c8.4,4.2-0.1,24.9-0.4,25.6c-2.1,6.2-6.3,11.7-11.9,14.6C119,155.8,113.3,152.8,113.3,152.8z"/>
<path fill="#FFFFFF" stroke="#000000" stroke-width="0.5" d="M122.5,230.3c-3.3,0-6-1.6-6-3.5c0-1.9,2.7-3.5,6-3.5s6,1.6,6,3.5
	C128.5,228.7,125.8,230.3,122.5,230.3z"/>
<path fill="#FFFFFF" stroke="#000000" stroke-width="0.5" d="M116.8,257.5c1.5-1.2,1.9-2.5,1.2-3.6l10.9-6.3l0,0l0,0
	c1.4-0.6,17.9-1.9,9.5,7.1c0,0,5.2,6.1-3.6,8.8l-17.9-5.9L116.8,257.5z"/>
<path fill="#FFFFFF" stroke="#000000" stroke-width="0.5" d="M116.9,257.6l17.9,5.9c0,0,1.5,7.8-10.3,6.7c0,0-4.8,8.9-15.4,2.8
	l-0.1-0.1l0.1-0.1L111,260l0,0c0.9-0.2,1.7-0.4,2.5-0.7C114.9,258.8,116,258.2,116.9,257.6L116.9,257.6z"/>
<path fill="#FFFFFF" stroke="#000000" stroke-width="0.5" d="M104.1,254.8c0.8-0.6,2-1.2,3.5-1.8c1.1-0.4,2.2-0.6,3.3-0.7
	c3.3-0.3,6.4,0.4,7.2,1.6c0.7,1.1,0.3,2.4-1.2,3.6c-0.8,0.6-1.9,1.2-3.4,1.7c-0.8,0.3-1.6,0.5-2.5,0.7c-3.8,0.7-7.9,0.3-8.5-1.3
	C102,257.3,102.6,256,104.1,254.8z"/>
<path fill="#FFFFFF" stroke="#000000" stroke-width="0.5" d="M110.9,252.2c0,0,2.2-5,1.6-8.1h0.1c0,0,3.1-6.7,11.6-1.5
	c0,0,6.4,0.4,5.1,4.9l-0.3,0.2l0,0l-10.9,6.3C117.3,252.7,114.1,252,110.9,252.2L110.9,252.2z"/>
<path fill="#FFFFFF" stroke="#000000" stroke-width="0.5" d="M101.2,304.7c0.9-0.2,1.8-0.5,2.6-0.8c1.5-0.602,2.7-1.301,3.6-2.102
	l0.1,0.102l19.1,7.1c0,0,1.6,9.4-11,8c0,0-5.1,10.7-16.5,3.3l-0.1-0.1c0-0.101,0.1-0.101,0.1-0.2L101.2,304.7L101.2,304.7z"/>
<path fill="#FFFFFF" stroke="#000000" stroke-width="0.5" d="M102.5,258.6c0.6,1.6,4.8,2,8.5,1.3l0,0l-1.9,12.8l-0.1,0.1
	c-5.6,6.4-12.3-2.3-14.4-2.3c-15.1,0.1-6.6-7.7-6.6-7.7L102.5,258.6z"/>
<path fill="#FFFFFF" stroke="#000000" stroke-width="0.5" d="M99.6,244.7c5.4-6.9,11.4-2.7,11.4-2.7c0.8,0.4,1.2,1.2,1.4,2.1
	c0.6,3.1-1.6,8.1-1.6,8.1v0.1c-1.1,0.1-2.3,0.3-3.3,0.7c-1.5,0.5-2.6,1.1-3.5,1.8c-4-0.6-7-1.2-9.2-1.8c0,0,0,0-0.1,0
	c-0.2-0.1-1.1-0.4-2.2-0.7C83.2,248.5,99.6,244.7,99.6,244.7z"/>
<path fill="#FFFFFF" stroke="#000000" stroke-width="0.5" d="M101.2,304.7c-4,0.899-8.5,0.399-9.1-1.601
	c-0.5-1.601,0.1-3.199,1.7-4.601c0.9-0.8,2.1-1.5,3.7-2.101c1.1-0.5,2.4-0.801,3.6-0.899c3.5-0.399,6.9,0.5,7.7,1.899
	c0.8,1.399,0.3,2.899-1.3,4.301c-0.9,0.8-2.1,1.5-3.6,2.1C103,304.2,102.1,304.5,101.2,304.7L101.2,304.7z"/>
<path fill="#FFFFFF" stroke="#000000" stroke-width="0.5" d="M108.7,297.4c-0.8-1.5-4.2-2.301-7.7-1.9v-0.1c0,0,2.3-6.102,1.7-9.801
	h0.1c0,0,3.4-8.101,12.4-1.801c0,0,6.8,0.5,5.5,5.9l-0.3,0.199L108.7,297.4z"/>
<path fill="#FFFFFF" stroke="#000000" stroke-width="0.5" d="M102.5,258.6L88,262.9c-8.5-1.4-2.9-7.1-2.9-7.1
	c-1.8-5.5,4.2-4.5,7.6-3.5c0.6,0.2,1.3,0.5,2.2,0.7H95c2.2,0.6,5.2,1.2,9.2,1.8C102.6,256,102,257.3,102.5,258.6z"/>
<path fill="#FFFFFF" stroke="#000000" stroke-width="0.5" d="M92.1,303.1c0.6,2,5.1,2.4,9.1,1.602l0,0v0.1l-2.1,15.4
	c0,0-0.1,0.1-0.1,0.199c-6,7.601-13.2-2.801-15.3-2.801c-16.2,0.2-7.1-9.3-7.1-9.3L92.1,303.1z"/>
<path fill="#FFFFFF" stroke="#000000" stroke-width="0.5" d="M89,286.4c5.8-8.3,12.2-3.2,12.2-3.2c0.9,0.5,1.3,1.399,1.5,2.5
	c0.6,3.7-1.7,9.8-1.7,9.8v0.1c-1.2,0.102-2.4,0.4-3.6,0.9c-1.6,0.6-2.8,1.4-3.7,2.1c-4.3-0.699-7.5-1.398-9.8-2.199l0,0
	c0,0,0,0-0.1,0c-0.3-0.101-1.1-0.5-2.3-0.801C71.4,291,89,286.4,89,286.4z"/>
<path fill="#FFFFFF" stroke="#000000" stroke-width="0.5" d="M92,234.3c-3.6,0-6.5-2.5-6.5-5.5s2.9-5.5,6.5-5.5s6.5,2.5,6.5,5.5
	S95.6,234.3,92,234.3z"/>
<path fill="#FFFFFF" stroke="#000000" stroke-width="0.5" d="M92.1,303.1L76.6,308.2c-9.1-1.7-3.1-8.5-3.1-8.5
	c-2-6.7,4.5-5.4,8.2-4.3c0.6,0.3,1.4,0.6,2.3,0.8h0.1l0,0c2.3,0.7,5.5,1.5,9.8,2.2C92.1,299.9,91.6,301.5,92.1,303.1z"/>
<path fill="#FFFFFF" stroke="#000000" stroke-width="0.5" d="M39.5,349.2c1.1-0.3,2.2-0.8,3.2-1.4c1.8-1.1,3.3-2.3,4.3-3.6l0,0
	l0.2,0.2l23.3,12.5c0,0,1.9,16.398-13.4,14.1c0,0-6.2,18.7-20.1,5.8l-0.2-0.1c0.1-0.101,0.1-0.2,0.2-0.3L39.5,349.2L39.5,349.2z"/>
<path fill="#FFFFFF" stroke="#000000" stroke-width="0.5" d="M67.8,77.5c-3,2.1-2-1-7.9,1c-0.7,0.2-17.3,0.6-13.6-1
	C97.9,55.8,105,64.3,122,73.1c2.8,1.4,7.1,3,10.4,6.6c0.5,0.6,1,1,1.5,1.2l-1.1,1.4c-23.1-17.7-53.4-17.1-40-12.1
	c1.4,0.5,10.3,3.7,16.5,6.7l5.3,6.6c0,0,3.7,3.5,5.6,5c2,1.4,3.3,3.2,2.9,3.8c-0.3,0.4-0.9,1.2-2.5,2.6l-2.5-1.4
	c0.3-0.2,0.5-0.4,0.8-0.6c-0.4,0.1-7.6,1.5-10.1-1.6c-0.4-0.5,3.1-4.5-2.9-6.8c-2-0.8-15.7-2.7-12.2-5.5c0.7-0.6-4,0.6-5.8,0.6
	c-9,0.3-3.4-3-5.6-2.7c-2.5,0.3-4.5,2.2-7.6,2.3c0,0,1-3.7-5.2,0.2C68.8,79.8,70.9,75.4,67.8,77.5z"/>
<path fill="#FFFFFF" stroke="#000000" stroke-width="0.5" d="M291,102.8c6,35-20,47-20,47c-15.4,23-22.6,41.3-24.9,55.9
	c-6.1-7-80.1-6.1-90.6,1.6c-11,8-61,13-75,4c-13.2-8.5-73.1,8.1-80.2,10l0.2-221c275.3,0,546.8,0,822,0v109.3
	C793.4,48.1,731.5,5.7,659.8,5.7c-81.1,0-149.6,54.3-172.3,128.9l-0.2-0.1c1.9-6.3,3-12.1,1.7-14.8h-0.3c-1.602-7.3-4.4-5.6-6.7-6.5
	c-1-0.4-7.1,9.2-8.2,10.6c0,0,0.7-12.6-10,5.9c-0.3,0.5-0.2,1.2-0.3,1.9c-1,11,4.5,18.5,3.5,24.5c0,0-4,12-5.5,15
	c0,0-11.5,30.5-11,38.5c0,0-7.3-22-14.7-24.8c2.5-1.6,4.8-3.8,6.8-6.7c0,0-0.198-3.9-2.5-8.2c-2.1-3.9-5.898-8.2-13-10.3
	c-3.6-1.1-8.1-1.6-13.698-1.2l-0.7,0.1c-0.2-0.2-0.4-0.4-0.5-0.6c0,0-2.102-3.3-7-6.4l1.6-0.4c11.5-32.5-9-46-9-46
	c6.5-10.5-6-30-6-30c3.8-22.5-17.5-35.8-19.398-36.9l-0.7,0.5C363,26,348.3,22.1,348.3,22.1c-14,27.5-29,4-29,4
	c-6.2,5.5-10.8,11.2-14.2,16.5c-19.5,7-13.8,26-13.8,26C266,93.3,291,102.8,291,102.8z M33.7,119.1c0.2,0.7,3,0.2,3,0.2
	s53.2-5.5,55.5-5.7c1.9-0.2,2.8,0,3.1,0.3c0.7,0.7-1.5,2.1-1.5,2.1l-43.4,23l-5.3,3.1c0,0-3.7,2-3.2,2.5c0.9,0.8,6.9-1.8,6.9-1.8
	c1.7-1.8,53.2-23.7,60.7-26.8c0.6-0.2,0.9-0.4,0.9-0.4c0.5-0.2,30-1.1,32.3-1.6c2.4-0.5,3.9-1.4,4.4-1.4c0.1,0,0.2,0,0.3,0.1
	c0.6,1.3,4.6,1-0.8,7.6c-3,3.8-1.9,3.5-1.1,3.7l-0.1,0.3c-0.6,1-3,3.4-4,4c-1.1,0.7-2.3,1.2-3.4,2c-1.4,1-2.3,1.6-3.5,2.8
	c-0.7,0.7-2.5,1.7-1.6,2.9c0.5,0,1,0,1.5-0.1l0.1,0.1c-0.9,0.7-1.8,1.3-2.8,1.9c-1.9,1.2-4.3,1.8-6.1,3.1c-0.8,0.6-2,2.4-1.7,3.3
	c0.8,0,2.6,0,3.3-0.6c-0.6,0.6-1.1,1.1-1.7,1.7c-2.9,3-12.2,7.3-12.2,7.3s5.7,3,39-14.5c5.6-2.9,9.8-8.4,11.9-14.6
	c0.3-0.8,8.8-21.4,0.4-25.6c-4-2-7.4-3.9-7.4-3.9l0,0l0,0c0.1-0.7,0.3-1.5,0.3-1.7c0.2-0.6,0.5-1.7,0.8-3.5c0-0.3,0.1-0.6,0.1-0.9
	c1.3-8.3,3.5-10.1,4.4-10.8l0,0c0.1-0.1,0.3-0.2,0.4-0.3c0.7-0.6,2.6-0.8,2.6-0.8s2.3-0.2,3.1-0.3c1.3-0.2-0.3-0.6-1.8-0.9
	c-2.2-0.5-3.5-0.7-4-1.3C152,57.8,138.9,80,138.9,80s-2.3,2.4-5,0.9c-0.5-0.3-1-0.7-1.5-1.2c-3.3-3.6-7.7-5.2-10.4-6.6
	c-17-8.7-24.1-17.3-75.8,4.5c-3.7,1.5,12.9,1.2,13.6,1c6-2,4.9,1.1,7.9-1c3.1-2.1,1,2.3,1.7,1.8c6.2-3.9,5.2-0.2,5.2-0.2
	c3.1-0.1,5.1-1.9,7.6-2.3c2.2-0.3-3.4,3,5.6,2.7c1.8-0.1,6.5-1.2,5.8-0.6c-3.5,2.8,10.2,4.7,12.2,5.5c6,2.3,2.5,6.3,2.9,6.8
	c2.5,3.1,9.7,1.7,10.1,1.6c-0.2,0.2-0.5,0.4-0.8,0.6c-17,13.3-82.7,24.3-82.7,24.3S33.5,118.6,33.7,119.1z"/>
<path fill="#FFFFFF" stroke="#000000" stroke-width="0.5" d="M62.9,323.5c1.4-1.3,23.5-4.3,12.4,14.8c0,0,6.8,12.9-4.7,18.601
	l-23.3-12.5l-0.2-0.199c2-2.5,2.6-5.301,1.6-7.7L62.9,323.5L62.9,323.5z"/>
<path fill="#FFFFFF" stroke="#000000" stroke-width="0.5" d="M52.4,240.1c1.5-1.2,1.9-2.5,1.2-3.6l10.9-6.3l0,0
	c1.4-0.6,17.9-1.9,9.5,7.1c0,0,5.2,6.1-3.6,8.8l-17.9-5.9L52.4,240.1z"/>
<path fill="#FFFFFF" stroke="#000000" stroke-width="0.5" d="M52.5,240.3l17.9,5.9c0,0,1.5,7.8-10.3,6.7c0,0-4.8,8.9-15.4,2.8
	l-0.1-0.1l0.1-0.1l1.9-12.8l0,0c0.9-0.2,1.7-0.4,2.5-0.7C50.5,241.5,51.6,240.9,52.5,240.3L52.5,240.3z"/>
<path fill="#FFFFFF" stroke="#000000" stroke-width="0.5" d="M39.6,237.4c0.9-0.7,2-1.3,3.5-1.8c1.1-0.4,2.2-0.6,3.3-0.7
	c3.3-0.3,6.4,0.4,7.2,1.6c0.7,1.1,0.3,2.4-1.2,3.6c-0.8,0.6-1.9,1.2-3.4,1.7c-0.8,0.3-1.6,0.5-2.5,0.7c-3.8,0.7-8,0.3-8.5-1.3
	C37.6,239.9,38.1,238.6,39.6,237.4z"/>
<path fill="#FFFFFF" stroke="#000000" stroke-width="0.5" d="M53.6,236.5c-0.8-1.2-3.9-1.9-7.2-1.6v-0.1c0,0,2.2-5,1.6-8.1h0.1
	c0,0,3.1-6.7,11.6-1.5c0,0,6.4,0.4,5.1,4.9l-0.3,0.2L53.6,236.5z"/>
<path fill="#FFFFFF" stroke="#000000" stroke-width="0.5" d="M38,241.2c0.6,1.6,4.8,2,8.5,1.3l0,0l-1.9,12.8l-0.1,0.1
	c-5.6,6.4-12.3-2.3-14.4-2.3c-15.1,0.1-6.6-7.7-6.6-7.7L38,241.2z"/>
<path fill="#FFFFFF" stroke="#000000" stroke-width="0.5" d="M35.2,227.3c5.4-6.9,11.4-2.7,11.4-2.7c0.8,0.4,1.2,1.2,1.4,2.1
	c0.6,3.1-1.6,8.1-1.6,8.1v0.1c-1.1,0.1-2.3,0.4-3.3,0.7c-1.5,0.5-2.6,1.1-3.5,1.8c-4-0.6-7-1.2-9.2-1.8c0,0,0,0-0.1,0
	c-0.2-0.1-1.1-0.4-2.2-0.7C18.7,231.2,35.2,227.3,35.2,227.3z"/>
<path fill="#FFFFFF" stroke="#000000" stroke-width="0.5" d="M48.9,142.8c0,0-6.1,2.6-6.9,1.8c-0.5-0.5,3.2-2.5,3.2-2.5l5.3-3.1
	l43.4-23c0,0,2.2-1.4,1.5-2.1l1.9-0.1c0.9,1.6,6.3,2.3,12.4,2.1C102,119.1,50.6,141,48.9,142.8z"/>
<path fill="#FFFFFF" stroke="#000000" stroke-width="0.5" d="M39.5,349.2c-4.9,1.5-10.3,0.7-11.1-2.8c-0.6-2.801,0.1-5.602,2.1-8
	c1.1-1.4,2.6-2.602,4.5-3.801c1.4-0.801,2.9-1.301,4.4-1.5c4.2-0.699,8.3,0.801,9.3,3.399c1,2.399,0.4,5.2-1.6,7.7l0,0
	c-1.1,1.3-2.5,2.5-4.3,3.6C41.8,348.4,40.7,348.9,39.5,349.2L39.5,349.2z"/>
<path fill="#FFFFFF" stroke="#000000" stroke-width="0.5" d="M63.5,291.4L41.6,285.6l-0.1-0.1c1.8-1.2,2.3-2.4,1.5-3.5l13.3-6.1l0,0
	c1.5-0.6,22-2,11.6,6.9C67.9,282.8,74.3,288.8,63.5,291.4z"/>
<path fill="#FFFFFF" stroke="#000000" stroke-width="0.5" d="M24.7,317.1c7.1-14.6,14.9-5.699,14.9-5.699
	c1.1,0.801,1.6,2.399,1.8,4.399c0.8,6.5-2.1,17.2-2.1,17.2v0.1c-1.5,0.2-3,0.7-4.4,1.5c-1.9,1.102-3.4,2.4-4.5,3.801
	c-5.2-1.199-9.1-2.5-12-3.801c-0.1,0-1.3-0.8-2.9-1.5C3.3,325.2,24.7,317.1,24.7,317.1z"/>
<path fill="#FFFFFF" stroke="#000000" stroke-width="0.5" d="M41.5,285.6l21.9,5.801c0,0,1.8,7.699-12.6,6.601c0,0-5.9,8.7-18.9,2.7
	l-0.1-0.102l0.1-0.1l2.4-12.6V287.8c1.1-0.2,2.1-0.399,3-0.6c1.8-0.5,3.2-1.101,4.1-1.7l0,0L41.5,285.6z"/>
<path fill="#FFFFFF" stroke="#000000" stroke-width="0.5" d="M39.4,333c0,0,2.8-10.6,2.1-17.2h0.1c0,0,4.1-14.2,15.1-3.1
	c0,0,8.3,0.899,6.6,10.3l-0.4,0.4l-14.1,13.1c-1-2.6-5.1-4.1-9.3-3.4L39.4,333z"/>
<path fill="#FFFFFF" stroke="#000000" stroke-width="0.5" d="M28.4,346.5c0.8,3.5,6.2,4.3,11.1,2.8l0,0v0.101L37,376.3
	c-0.1,0.101-0.1,0.2-0.2,0.3c-7.3,13.301-16-4.898-18.7-4.898c-19.7,0.3-8.6-16.2-8.6-16.2L28.4,346.5z"/>
<path fill="#FFFFFF" stroke="#000000" stroke-width="0.5" d="M25.8,282.8c1-0.6,2.5-1.2,4.3-1.8c1.3-0.4,2.7-0.6,4.1-0.7
	c4-0.3,7.8,0.4,8.8,1.6c0.9,1.1,0.4,2.4-1.5,3.5l0,0c-1,0.6-2.4,1.199-4.1,1.699c-0.9,0.301-2,0.5-3,0.601
	c-4.6,0.7-9.8,0.3-10.4-1.3C23.3,285.3,23.9,284,25.8,282.8z"/>
<path fill="#FFFFFF" stroke="#000000" stroke-width="0.5" d="M34.1,280.3c0,0,2.6-4.9,1.9-8h0.1c0,0,3.8-6.6,14.2-1.4
	c0,0,7.8,0.4,6.3,4.8l-0.4,0.2L42.9,282C42,280.8,38.1,280,34.1,280.3L34.1,280.3z"/>
<path fill="#FFFFFF" stroke="#000000" stroke-width="0.5" d="M33.7,119.1c-0.2-0.5,1.9-1.3,1.9-1.3s65.6-11,82.7-24.3l2.5,1.4
	c-3,2.7-9.3,7.7-22.4,16.8c-1.2,0.8-1.5,1.5-1.1,2.1l-1.9,0.1c-0.3-0.3-1.2-0.5-3.1-0.3c-2.3,0.2-55.5,5.7-55.5,5.7
	S33.9,119.8,33.7,119.1z"/>
<path fill="#FFFFFF" stroke="#000000" stroke-width="0.5" d="M38,241.2l-14.5,4.3c-8.6-1.4-3-7.1-3-7.1c-1.8-5.6,4.2-4.5,7.6-3.5
	c0.6,0.2,1.3,0.5,2.2,0.7c0,0,0,0,0.1,0c2.2,0.6,5.2,1.2,9.2,1.8C38.1,238.6,37.6,239.9,38,241.2z"/>
<path fill="#FFFFFF" stroke="#000000" stroke-width="0.5" d="M23.8,286.6c0.7,1.602,5.8,2,10.4,1.301v0.101l-2.4,12.601l-0.1,0.101
	c-6.9,6.3-15.1-2.2-17.6-2.2c-18.5,0.1-8.1-7.6-8.1-7.6L23.8,286.6z"/>
<path fill="#FFFFFF" stroke="#000000" stroke-width="0.5" d="M20.3,272.9c6.7-6.8,14-2.6,14-2.6c1,0.4,1.5,1.1,1.7,2.1
	c0.7,3.1-1.9,8-1.9,8v0.1c-1.4,0.1-2.8,0.3-4.1,0.7c-1.8,0.5-3.2,1.1-4.3,1.8c-4.9-0.6-8.5-1.2-11.2-1.8l0,0
	c-0.3-0.1-1.3-0.4-2.7-0.7C0.2,276.7,20.3,272.9,20.3,272.9z"/>
<path fill="#FFFFFF" stroke="#000000" stroke-width="0.5" d="M15.7,333.1c0.8,0.5,1.8,1,2.9,1.5c2.9,1.301,6.8,2.602,12,3.801
	c-2,2.5-2.7,5.199-2.1,8l-18.9,9c-11.2-2.899-3.9-14.899-3.9-14.899C3.3,328.9,11.2,331,15.7,333.1z"/>
<path fill="#FFFFFF" stroke="#000000" stroke-width="0.5" d="M23.8,286.6L6,290.8c-4-0.5-5.4-1.6-5.8-2.8v-1.1
	c0.4-1.602,2.1-3.102,2.1-3.102c-2.2-5.5,5.1-4.4,9.4-3.5c0.7,0.2,1.6,0.5,2.7,0.7l0,0c2.7,0.6,6.4,1.2,11.2,1.8
	C23.9,284,23.3,285.3,23.8,286.6z"/>
<path fill="#FFFFFF" stroke="#000000" stroke-width="0.5" d="M215.5,210.3c0,2.2,3.4,4,7.5,4s7.5-1.8,7.5-4c0-2.2-3.4-4-7.5-4
	S215.5,208,215.5,210.3z M182.2,233.8c0,0-5.6,5.7,2.9,7.1c0,0-8.5,7.8,6.6,7.7c2,0,8.8,8.7,14.4,2.3l0.1,0.1
	c10.7,6.1,15.4-2.7,15.4-2.7c11.7,1.1,10.3-6.7,10.3-6.7c8.8-2.7,3.6-8.8,3.6-8.8c8.5-9.1-8.4-7.7-9.5-7l0,0l0.3-0.2
	c1.3-4.5-5.1-4.9-5.1-4.9c-8.5-5.3-11.6,1.5-11.6,1.5h-0.1c-0.2-0.9-0.6-1.7-1.4-2.1c0,0-6-4.2-11.4,2.7c0,0-16.5,3.8-6.9,7.6
	C186.4,229.3,180.4,228.3,182.2,233.8z M171.5,220.3c3.3,0,6-2,6-4.5s-2.7-4.5-6-4.5s-6,2-6,4.5
	C165.5,218.2,168.2,220.3,171.5,220.3z M139.5,233.3c0,2.2,3.8,4,8.5,4s8.5-1.8,8.5-4c0-2.2-3.8-4-8.5-4S139.5,231,139.5,233.3z
	 M143.8,280.7c0,0-8.1,7.2,4.3,8.899c0,0-12.3,9.801,9.6,9.699c2.9,0,12.8,10.9,20.9,2.9l0.1,0.1c15.5,7.7,22.4-3.5,22.4-3.5
	c17.1,1.4,14.9-8.398,14.9-8.398c12.8-3.4,5.2-11.102,5.2-11.102c12.3-11.4-12-9.7-13.8-8.9l0,0l0.4-0.2c1.8-5.6-7.4-6.2-7.4-6.2
	c-12.3-6.6-16.8,1.9-16.8,1.9h-0.1c-0.3-1.2-0.9-2.1-2-2.6c0,0-8.7-5.3-16.6,3.4c0,0-23.9,4.9-10,9.6
	C149.8,275,141.1,273.7,143.8,280.7z M116.5,226.8c0,1.9,2.7,3.5,6,3.5s6-1.6,6-3.5c0-1.9-2.7-3.5-6-3.5S116.5,224.8,116.5,226.8z
	 M111.7,343c0,0-7.4,9.8,3.9,12.2c0,0-11.1,13.5,8.7,13.3c2.6,0,11.5,14.9,18.8,4l0.2,0.1c14,10.5,20.3-4.699,20.3-4.699
	c15.4,1.899,13.5-11.5,13.5-11.5c11.6-4.601,4.7-15.199,4.7-15.199C193,325.6,170.7,328,169.3,329.1l0,0l0.4-0.3
	c1.7-7.7-6.7-8.399-6.7-8.399c-11.1-9-15.2,2.5-15.2,2.5h-0.1c-0.2-1.601-0.8-2.899-1.9-3.601c0,0-7.9-7.3-15,4.601
	c0,0-21.6,6.601-9.1,13C117.2,335.3,109.3,333.5,111.7,343z M92,234.3c3.6,0,6.5-2.5,6.5-5.5s-2.9-5.5-6.5-5.5s-6.5,2.5-6.5,5.5
	S88.4,234.3,92,234.3z M85.1,255.8c0,0-5.6,5.7,2.9,7.1c0,0-8.5,7.8,6.6,7.7c2,0,8.8,8.7,14.4,2.3l0.1,0.1
	c10.7,6.1,15.4-2.8,15.4-2.8c11.8,1.1,10.3-6.7,10.3-6.7c8.8-2.7,3.6-8.8,3.6-8.8c8.4-9-8.1-7.7-9.5-7.1l0,0l0.3-0.2
	c1.3-4.5-5.1-4.9-5.1-4.9c-8.5-5.3-11.6,1.5-11.6,1.5h-0.1c-0.2-0.9-0.6-1.7-1.4-2.1c0,0-6-4.2-11.4,2.7c0,0-16.5,3.8-6.9,7.6
	C89.3,251.3,83.2,250.3,85.1,255.8z M73.4,299.7c0,0-6,6.8,3.1,8.5c0,0-9.1,9.399,7.1,9.3c2.1,0,9.4,10.4,15.3,2.8L99,320.4
	c11.4,7.398,16.5-3.301,16.5-3.301c12.6,1.301,11-8,11-8c9.5-3.199,3.9-10.601,3.9-10.601c9.1-10.899-9-9.2-10.2-8.5l0,0l0.3-0.2
	c1.4-5.398-5.5-5.9-5.5-5.9c-9.1-6.3-12.4,1.8-12.4,1.8h-0.1c-0.2-1.102-0.6-2-1.5-2.5c0,0-6.4-5.1-12.2,3.199
	c0,0-17.6,4.601-7.4,9.101C77.9,294.3,71.5,293.1,73.4,299.7z M28.3,234.9c-3.4-1-9.5-2-7.6,3.5c0,0-5.6,5.7,3,7.1
	c0,0-8.5,7.8,6.6,7.7c2,0,8.8,8.7,14.4,2.3l0.1,0.1c10.7,6.1,15.4-2.8,15.4-2.8c11.7,1.1,10.3-6.7,10.3-6.7c8.9-2.7,3.6-8.8,3.6-8.8
	c8.4-9-8.1-7.7-9.5-7.1l0,0l0.3-0.2c1.3-4.5-5.1-4.9-5.1-4.9c-8.5-5.3-11.6,1.5-11.6,1.5h-0.1c-0.2-0.9-0.6-1.7-1.4-2.1
	c0,0-6-4.2-11.4,2.7C35.2,227.3,18.7,231.2,28.3,234.9z M5.7,340.6c0,0-7.3,12,3.9,14.9c0,0-11.1,16.5,8.6,16.2
	c2.6,0,11.4,18.2,18.7,4.899l0.2,0.101c13.9,12.899,20.1-5.8,20.1-5.8C72.5,373.3,70.6,356.8,70.6,356.8c11.5-5.7,4.7-18.6,4.7-18.6
	c11.1-19.101-11-16.101-12.4-14.8l0,0l0.4-0.4c1.7-9.4-6.6-10.3-6.6-10.3c-11.1-11.101-15.1,3.1-15.1,3.1h-0.1
	c-0.2-2-0.8-3.6-1.8-4.399c0,0-7.8-8.899-14.9,5.699c0,0-21.4,8.102-9,16C11.2,331,3.3,328.9,5.7,340.6z M0.3,288
	c0.3,1.2,1.8,2.3,5.8,2.8c0,0-10.4,7.7,8.1,7.601c2.5,0,10.8,8.601,17.6,2.199l0.1,0.102c13.1,6,18.9-2.7,18.9-2.7
	c14.4,1.101,12.6-6.601,12.6-6.601c10.8-2.601,4.4-8.699,4.4-8.699c10.4-8.9-10.1-7.6-11.6-6.9l0,0l0.4-0.2c1.6-4.4-6.3-4.8-6.3-4.8
	c-10.4-5.2-14.2,1.4-14.2,1.4H36c-0.2-0.9-0.8-1.7-1.7-2.1c0,0-7.4-4.2-14,2.6c0,0-20.1,3.8-8.5,7.5c-4.2-1-11.6-2-9.4,3.5
	c0,0-1.8,1.5-2.1,3.1l-0.1-65.6c7.1-1.9,67-18.5,80.2-10c14,9,64,4,75-4c10.5-7.7,84.5-8.6,90.6-1.6c-5.9,37.8,21.6,50.1,26.3,51.9
	c-8.3,7.2-16.6,14.2-19.1,15.8c-0.4,0.3-0.7,0.4-0.7,0.3c-0.9-0.7-14.5,6.6-19.6,13.5c-1.3,0.301-11.9,7.301-11.8,10
	c0.1,2.5,5.5-0.801,6.2-1.301l0.2,0.102c-1.3,2.199-2.3,4.3-1.6,4.8c0,0-5.1,1.2-4,6h-0.2c0,0-32.3,15.8-13.3,38.7
	c0,0-20.2,19.5,15.7,30.199c0,0-21,17.5,22.8,30.199c0,0-0.2,2.4,0.7,5.5L0.4,411.9L0.3,288z"/>
<path fill="#5494D5" stroke="#000000" stroke-width="0.5" d="M0.3,288c-0.1-0.4-0.1-0.7,0-1.1V288z"/>
<path fill="none" stroke="#000000" d="M357,88.6c0,0-16-6.2-21.6,0"/>
<path fill="none" stroke="#000000" stroke-width="0.25" d="M325.6,102.8c0,0-0.198,15,2.9,15s4.5-0.8,7.6-2.6"/>
<path id="www.ABC-color.com" fill="none" stroke="#000000" d="M304,98.5c4.3-4.9,12.9-4.3,12.9-4.3"/>
<path fill="none" stroke="#000000" stroke-width="0.25" d="M343.5,323.9c0,0-21,41.3-85.2,4"/>
<path fill="none" stroke="#000000" stroke-width="0.25" d="M381.5,331.3c0,0-21,95-60,95"/>
<path fill="none" stroke="#000000" stroke-width="0.25" d="M411.5,322.3c0,0,8,94,32,102"/>
<path fill="none" stroke="#000000" stroke-width="0.25" d="M463.5,301.3c0,0,53,39,59,68"/>
<path fill="none" stroke="#000000" stroke-width="0.5" d="M489,121.3l-7,13.5"/>
<path fill="none" stroke="#000000" stroke-width="0.5" d="M470.5,129.8c0,0,1.2-2.6,2.6-4.9"/>
<path fill="none" stroke="#000000" stroke-width="0.5" d="M483.5,114.3c0,0-3,5-7.5,13.5"/>
<line fill="none" stroke="#000000" stroke-width="0.5" x1="487" y1="115.8" x2="478.5" y2="132.3"/>
<path fill="none" stroke="#000000" stroke-width="0.25" d="M601.3,526.1c5.2-4.698,19.102-16.5,33.7-10.198"/>
<path fill="none" stroke="#000000" stroke-width="0.25" d="M613.2,475.4c0,0,25-9.4,34.8,2.8"/>
<path fill="none" stroke="#000000" stroke-width="0.25" d="M636.1,440.1c0,0,31.302,10.2,31.602,18.9"/>
<path fill="none" stroke="#000000" stroke-width="0.25" d="M786,539.8c0,0,8.3,7.8,12.9,15.7"/>
<path fill="none" stroke="#000000" stroke-width="0.25" d="M753.3,548.4c0,0,2.5,9.1,7.102,18.6"/>
<path fill="none" stroke="#000000" stroke-width="0.25" d="M645.1,550.8c0,0-9.898,7.5-19.6,16.2"/>
</svg>
