<?xml version="1.0" encoding="utf-8"?>
<!-- Generator: Adobe Illustrator 15.0.0, SVG Export Plug-In . SVG Version: 6.00 Build 0)  -->
<!DOCTYPE svg PUBLIC "-//W3C//DTD SVG 1.1//EN" "http://www.w3.org/Graphics/SVG/1.1/DTD/svg11.dtd">
<svg version="1.1" id="layer_x5F_www.ABC-color.com"
	 xmlns="http://www.w3.org/2000/svg" xmlns:xlink="http://www.w3.org/1999/xlink" x="0px" y="0px" width="567px" height="822px"
	 viewBox="0 0 567 822" enable-background="new 0 0 567 822" xml:space="preserve">
<path fill="none" stroke="#000000" stroke-width="0.5" d="M279,88.5c0,0,1.8-9.8,16.6-7.2"/>
<path fill="none" stroke="#000000" stroke-width="0.5" d="M258.8,83.3c6-4.8,13.5,1.8,13.5,1.8"/>
<path fill="#FFFFFF" stroke="#000000" stroke-width="0.5" d="M448.5,744.8c0,0,1.5,6-8.3,5.8c0,0-21.3-0.3-23.3,16.5
	c0,0-1.5,9.302-22.5,8.302c0,0-14,17.8-28.802,0c0,0-8-8-34.3,15c0,0-26.8,11.5-39.3-2.302c0,0-12-15.8-32.8-11.3c0,0-26,3.5-41,0
	c0,0-22-6-29.3-14.8c0,0-11-5.5-28.5-0.8c0,0-3.3-9,6-19.8c0,0,4.3-3.302,5-18c22,1.8,43.8-2.802,56,0.5c0,0-3,14.5,3,17
	c0,0,23.5,11.5,66.8-1.302c0,0,33.3-7.3,38.8,0c0,0,37,15,50.3-12.8c0,0,2-3,20.3-1.3c0,0,13.5-0.8,24.602-4.4
	C431.8,723.5,435.3,736.5,448.5,744.8z"/>
<path fill="#FFFFFF" stroke="#000000" stroke-width="0.5" d="M0.3,708.3l165.3-59.5c-4.6,17.602-9.1,31.2-12.3,33.8
	c0,0-11.3,16.5-8.3,21.802c0,0,4.8,17.5,26.8,19.3c-0.8,14.8-5,18-5,18c-9.3,10.8-6,19.8-6,19.8c17.5-4.8,28.5,0.8,28.5,0.8
	c7.3,8.8,29.3,14.8,29.3,14.8c15,3.5,41,0,41,0c20.8-4.5,32.8,11.301,32.8,11.301c12.5,13.801,39.3,2.301,39.3,2.301
	c26.3-23,34.3-15,34.3-15c14.8,17.8,28.8,0,28.8,0c21,1,22.5-8.301,22.5-8.301c2-16.801,23.3-16.5,23.3-16.5
	c9.802,0.301,8.302-5.801,8.302-5.801c-13.2-8.199-16.7-21.199-17.2-23.398c5.8-1.9,11-4.7,13.2-8.602c0,0-31.802-50.5-36-60.5
	c0,0-15.102-47.398-20.9-79.199L567.3,495.3v327"/>
<path fill="#FFFFFF" stroke="#000000" stroke-width="0.5" d="M377.9,363.3c-5-2.6-12.5,0.9-14.302,1.8c-0.198,0.1-0.5,0.1-0.6,0.1
	c-2,0-2.5-3.1-1.4-4.5c0.302-0.4,0.802-0.5,1.302-0.6c1.198-0.2,2.6,0.1,2.898-1c1.5-6.4,5.102,0,5.5-1.8c0.7-2.8,2.602-4,4.602-1.4
	c0.898,1.2,1.198,2.1,2.198,1.3c0.102-0.1,0.102-0.1,0.2-0.2c0.7-0.7,1.102-2.1,2-2.1c1,0,2.102,1,2.102,2c0,1.6-3.102,4.3-4.5,5.7
	C377.9,362.9,377.9,363.1,377.9,363.3z"/>
<path fill="#FFFFFF" stroke="#000000" stroke-width="0.5" d="M362.8,379.7c0.3-5.2,0.3-10.2,0.2-14.6c0.2,0,0.4,0,0.6-0.1
	c1.802-0.9,9.302-4.4,14.302-1.8c0.1,9.6,0.6,16.6,1.8,18.3c5,7,13.3,21.5,14,21.5c0,0,4,4.5,0.8,20.8c0,0-5,6-9.3,0.8
	c0,0-1.8-5.8-1-11.5c0,0-14.5-17.3-14-7.5c0,0.9,0.398,4.601,1,10.4c-1.7,1.3-6.9,4.5-7.7-2.2c0,0-3-7.3-1-30.3
	C362.6,382.2,362.7,381,362.8,379.7z"/>
<path fill="#FFFFFF" stroke="#000000" stroke-width="0.5" d="M0.3,458.3l222.1-90.4c-1.8,5.6-3.3,11.4-4.4,17.1
	c0,0-21.5,68.8-30.5,164.3c0,0-11.5,59.9-22,99.5L0.3,708.3V458.3z"/>
<path fill="#FFFFFF" stroke="#000000" stroke-width="0.5" d="M363,365.1c0.1,4.4,0.1,9.4-0.2,14.6c-5.1-21.9-16.1-40.6-25.3-54.6
	l20.2-8.6h0.1c1.2,13.6,2.602,25.8,2.602,25.8c2.1,9.7,1.898,5.2,2.398,17.9c-0.5,0.1-0.898,0.2-1.3,0.6
	C360.5,362.1,361,365.1,363,365.1z"/>
<path fill="#FFFFFF" stroke="#000000" stroke-width="0.5" d="M378.3,357.1c-0.1-14.8,0.8-34.3,1.602-50.5h0.3l187.1-73.2v261.9
	l-179.6,77.8c-1.3-7.398-2.102-13.898-2.102-18.8c0,0-10.898-104.3-14.3-138.3c-0.6-5.8-0.898-9.6-1-10.4c-0.5-9.8,14,7.5,14,7.5
	c-0.8,5.802,1,11.5,1,11.5c4.3,5.302,9.3-0.8,9.3-0.8c3.302-16.3-0.8-20.8-0.8-20.8c-0.8,0-9-14.5-14-21.5
	c-1.2-1.7-1.7-8.7-1.8-18.3c0-0.2,0-0.4,0-0.5c1.4-1.4,4.6-4.1,4.5-5.7c0-1-1.2-2-2.1-2C379.3,355.1,378.9,356.5,378.3,357.1z"/>
<path fill="#FFFFFF" stroke="#000000" stroke-width="0.5" d="M567.3,218.3v15.1l-187.1,73.2h-0.3c0.398-7.6,0.8-14.4,1.198-19.6h0.2
	L567.3,218.3z"/>
<path fill="#FFFFFF" stroke="#000000" stroke-width="0.5" d="M357.9,316.5H357.8l-20.2,8.6c0,0,0,0,0-0.1c-0.698-1-1.3-2-2-3
	c-4.3-6.4-8.398-11.6-11.5-15.3l32.2-12.3C356.6,301.1,357.2,309,357.9,316.5z"/>
<path fill="#FFFFFF" stroke="#000000" stroke-width="0.5" d="M142.7,376.3l90.1-35.3c-3.8,8.3-7.4,17.4-10.4,26.8L0.3,458.3V432
	L142.7,376.3z"/>
<path fill="#FFFFFF" stroke="#000000" stroke-width="0.5" d="M158.2,351c-2.9,3.2-5.6,5.8-6.5,8.8c-3.5,11.4-7.4,15.1-9.3,15.9
	c-0.9,0.4-1.4,0-1.2-0.5c-1.9,3.9,1.8-17.8,1.8-17.8c2.3-5,0.3-12.8,11.8-26.5c0.2-0.2,0.2-0.6,0.4-0.8
	c5.4-12.8,11.6-16.4,11.6-16.4c0.5-0.4,4.3-3.8,10.3-9.7c0-0.1,0.1-0.1,0.2-0.2l8.3,13l0.1,0.3l0,0c-3.7,2.4-4.1,2.5-10,6.5
	c-6.5,3.5-4.3,20.3-4.3,20.3c-3.3,16.5-12.5,20.5-12.5,20.5C151.8,368.5,158.3,351,158.2,351L158.2,351z"/>
<path fill="#FFFFFF" stroke="#000000" stroke-width="0.5" d="M185.7,317.3L185.7,317.3l-0.1-0.4l-8.3-13c-0.1,0.1-0.1,0.1-0.2,0.2
	l0,0c0-1.7-0.8-4.3,0.5-5.5c0.7-0.7,2.2-0.7,2.9,0c0.4,0.4,0.3,1.1,0.2,1.8c-0.1,0.5-0.2,1-0.1,1.4c0.2,1.3,1,0.8,2.5,0.6
	c3.2-0.5,3.8,1.7,2.4,4.1c-0.9,1.6,6.1-0.6,2.8,5.1c-0.7,1.2,1.1,2,1.7,3.1c0.1,0.3,0.2,0.5,0.2,0.8
	C190,317.5,187.1,319.5,185.7,317.3z"/>
<path fill="#FFFFFF" stroke="#000000" stroke-width="0.5" d="M183,302.3c-1.5,0.3-2.3,0.7-2.5-0.6c-0.1-0.4,0-0.9,0.1-1.4
	c18.8-18.2,51.8-50.6,51.8-50.6c2.5-2.3,4.1-23.1,4.6-30.1c2.7,4.3,11.3,18.5,16.7,32l-4.6,20.9c-2.1,4-39,28.9-59,42l-0.3,0.1
	c-0.6-1.2-2.4-2-1.7-3.1c3.3-5.7-3.7-3.5-2.8-5.1C186.8,304,186.3,301.8,183,302.3z"/>
<path fill="#FFFFFF" stroke="#000000" stroke-width="0.5" d="M324,306.8c3.1,3.7,7.2,8.9,11.5,15.3c0.7,1,1.3,2,2,3c0,0,0,0,0,0.1
	c9.2,14,20.2,32.7,25.3,54.6c-0.1,1.2-0.2,2.5-0.3,3.8c-2,23,1,30.3,1,30.3c0.8,6.698,6,3.398,7.7,2.198
	c3.398,34,14.3,138.302,14.3,138.302c0,4.898,0.8,11.398,2.1,18.8c5.7,31.8,20.9,79.2,20.9,79.2c4.3,10,36,60.5,36,60.5
	c-2.2,3.898-7.3,6.6-13.2,8.6c-11.1,3.7-24.6,4.4-24.6,4.4c-18.3-1.802-20.3,1.3-20.3,1.3C373.1,755,336.1,740,336.1,740
	c-5.5-7.3-38.8,0-38.8,0c-43.3,12.8-66.8,1.3-66.8,1.3c-6-2.5-3-17-3-17c-12.3-3.3-34,1.3-56-0.5S145,704.3,145,704.3
	c-3-5.3,8.3-21.8,8.3-21.8c3.1-2.6,7.6-16.2,12.3-33.8c10.5-39.602,22-99.5,22-99.5C196.5,453.8,218,385,218,385
	c1.1-5.7,2.6-11.5,4.4-17.1c3-9.4,6.6-18.5,10.4-26.8c10.6-23.3,22.2-40.3,22.2-40.3c8.8-19.3,3.5-31.5,3.5-31.5
	c-0.3-5-2.1-11.3-4.7-17.6c-5.5-13.6-14-27.7-16.7-32c-0.5-0.9-0.9-1.4-0.9-1.4c0-1.8,8.5-4.8,8.5-4.8c8.5-3.8,16.8,3.3,16.8,3.3
	c1-0.3,9.8,14.3,9.8,14.3l6.3-11.8c13.9-10.7,46.2,11,51.9,15l-0.1,0.2c0,0-14.802,26.8-14.5,33.5c0,0-3.802,19.2,2.698,31.3
	l0.5,0.7C318.1,300,320.3,302.4,324,306.8z"/>
<path fill="#FFFFFF" stroke="#000000" stroke-width="0.5" d="M365.7,359.1c-0.3,1.1-1.7,0.8-2.9,1c-0.5-12.7-0.2-8.1-2.398-17.9
	c0,0-1.4-12.2-2.602-25.8c-0.7-7.5-1.3-15.4-1.7-22c-0.398-7.5-0.398-13.2,0.302-14.5c0,0-9.9-22.6-12.5-44.4
	c15.698-0.8,26.6-6.6,26.6-6.6c0.1-0.2,0.3-0.5,0.4-0.7c1,6.5,5.1,33.6,10.8,48c0,0-0.3,4.1-0.7,10.7c-0.3,5.3-0.8,12.1-1.2,19.6
	c-0.898,16.2-1.7,35.8-1.6,50.5c-0.102,0.1-0.102,0.1-0.2,0.2c-1,0.8-1.3-0.1-2.2-1.3c-2-2.6-3.898-1.4-4.6,1.4
	C370.8,359.1,367.3,352.8,365.7,359.1z"/>
<path fill="#FFFFFF" stroke="#000000" stroke-width="0.5" d="M253.9,22.6c-8.7,6.3-7.3,11.3-7.3,11.3l8-1.7l2.7-6L253.9,22.6z
	 M280.2,24.6l-3.9,4.3l1,4.3l10.3,2.7C287.5,35.9,288.8,30.9,280.2,24.6z M300.6,46.9c-15.398-18.3-58.7-8-58.7-8
	c0-20.3,27-27,27-27c6.6,1.2,12.5,6.1,17.4,11.8C294.9,33.7,300.3,46.3,300.6,46.9z M272,33.8l0.1-6.8l5.7-3.8l-6.5-2.2l-2-5.5
	l-3.9,4.4l-6.8-0.3l3.9,5.6l-2.3,6.4l6.5-2L272,33.8z"/>
<polygon id="www.ABC-color.com" fill="#FFFFFF" stroke="#000000" stroke-width="0.5" points="272.1,27 272,33.8 266.7,29.6 
	260.1,31.6 262.5,25.2 258.5,19.7 265.4,19.9 269.3,15.5 271.3,21 277.8,23.2 "/>
<path fill="#FFFFFF" stroke="#000000" stroke-width="0.5" d="M300.6,46.9c-0.3-0.6-5.699-13.2-14.199-23.2l0.899-0.1
	c0,0,33-14.7,59.7,59.7c0,0,12.7,44.3,36.3,60.7c0,0,7.3,12.3-0.7,33.7c0,0,4.302,13.3,1.2,24c-1.6,5.5-5.1,10.4-12.2,12.5
	c-2.3-11.8-9-24.6-9-24.6c-0.5-0.7-2.5-1.1-5.5-1.4c0.5-3.3,4.2-32.3-33.5-39c0,0-2.5,0.2-5.6-1.8c-5.2-3.4-12.2-13.1-11.9-41.2
	c0.302-0.6,0.602-1.3,0.802-2l2,4l2-4l4.398-0.6l-3.2-3.1l0.7-4.3l0.602-0.4c0,0,2.3-7.3,0-9.7c-2.302-2.4-5,3.7-5,3.7H308
	c-0.8-10.2-4.1-20.2-4.1-20.2l-2.102-0.1c-10.3,1.3-32,3.6-44.6,1.6c-3.1-0.5-5.6-1.2-7.3-2.3c0,0-19.8-9.4-7.8-30.1
	C241.9,38.9,285.2,28.6,300.6,46.9z"/>
<path fill="#FFFFFF" stroke="#000000" stroke-width="0.5" d="M66.2,81.9L29.7,77c0,0-9.6,19.7-0.3,32.5c0,0,20.4-3.9,38,2.9
	C67.4,112.3,53.9,93,66.2,81.9z M37,75.6c0,0,5.1-1.2,12-1c5.3,0.1,11.6,1,17.5,3.7c0,0-10.5-18-0.9-28.5l-28.4-4.6
	C37.2,45.2,29.8,63.6,37,75.6z M67.1,118.3L26.4,112c0,0-10.7,25.3-0.3,41.7c0,0,22.7-5,42.3,3.7C68.4,157.3,53.4,132.6,67.1,118.3z
	 M161,71.1l-36.5-4.9c0,0-9.6,19.7-0.3,32.5c0,0,20.4-3.9,38,2.9C162.2,101.5,148.7,82.3,161,71.1z M131.7,64.8c0,0,5.1-1.2,12-1
	c5.3,0.1,11.6,1,17.5,3.7c0,0-10.5-18-0.9-28.5L132,34.4C132,34.4,124.5,52.9,131.7,64.8z M121.2,101.2c0,0-4.4,10.3-4.8,22.1
	l-39.8-6c0,0-12.7,25.3-2.3,41.7c0,0,25-7.7,44.7,1c0,0-15.8-22.1-2.6-36.4c-0.2,6.5,0.8,13.5,4.5,19.3c0,0,22.7-5,42.3,3.7
	c0,0-15-24.7-1.3-39L121.2,101.2z M110.3,82.9c0,0-7.8-17.1,1.1-26.5l-26.5-4.1c0,0-7.7,15.3-1,26C83.9,78.3,97.4,77.3,110.3,82.9z
	 M113.9,85.9l-33.5-5.5c0,0-10.9,19.3-2.9,33.4c0,0,20.2-1.9,36.6,6.3C114.1,120,101.6,97.1,113.9,85.9z M567.3,0.3v209.4
	c-23.5,3.9-32.3-6.7-32.3-6.7c-18.7,8-30.7,3.4-30.7,3.4c-7-2.5-11-6.1-11-6.1c-44,20-50-1-50-1c-28.5,20.2-55.3,5-59.5,2.4
	c3.102-10.8-1.2-24-1.2-24c8-21.3,0.7-33.7,0.7-33.7C359.6,127.7,347,83.3,347,83.3C320.3,9,287.3,23.6,287.3,23.6l-0.899,0.1
	c-4.899-5.7-10.899-10.6-17.399-11.8c0,0-27,6.7-27,27c-12,20.7,7.8,30.1,7.8,30.1c1.7,1.1,4.2,1.8,7.3,2.3v0.2
	c1,10.6,1,8.1,1.8,11.8c0,0,0.5,1.9,1.9,3.6l0,0c0.4,1.8-1.3,7.1-0.3,12.3c1.2,6.5,3.2,9.4,5.3,13.3c2.3,4.2,5,7.3,5.9,8.2
	c5.3,5,2.3,4,7.4,7.4c0.1,0.3,0,10.4-0.9,20.6h-0.6c-0.6,0.1-0.3,0.2-2.9-0.2c-17.6-2.7-25.6,14.2-27.9,20.3l-0.6-0.1
	c-7.2,4.5-9.6,17.2-10.2,28.5h-0.5c-19,24-44-2-44-2c-16.9,10.7-31,9.3-40,6.1c0,0,16-4.1,16-46.1l-34,1c0,0,4,6-9,7l-90,5
	c0,0-17.4-17.2-19-17.7c-2-0.6-2-0.6-2-0.6s-6-2.1,15.3,21.3c0,0,2.1,25.2,15,31c-8.2-2.5-13.4-6-13.4-6c-15,11-30,8.2-30,8.2V0.3
	H567.3z M146.6,28.1h14.2l-3.7-2.7l3.5-2.8l-14.2,0.7L146.6,28.1z M99.1,33.8h14.2l-3.7-2.7l3.5-2.8L98.9,29L99.1,33.8z M101.8,50.9
	l3.8-11.9l-12.8-0.8l1.3,11.7L101.8,50.9z M51.8,38.1H66l-3.7-2.7l3.5-2.8l-14.2,0.7L51.8,38.1z"/>
<path fill="#FFFFFF" stroke="#000000" stroke-width="0.5" d="M253.9,22.6l3.3,3.7l-2.7,6l-8,1.7C246.6,33.9,245.3,28.9,253.9,22.6z"
	/>
<path fill="#FFFFFF" stroke="#000000" stroke-width="0.5" d="M280.2,24.6c8.7,6.3,7.3,11.3,7.3,11.3l-10.3-2.7l-1-4.3L280.2,24.6z"
	/>
<path fill="#FFFFFF" stroke="#000000" stroke-width="0.5" d="M235.8,197.3c0.6-11.4,3-24,10.2-28.5l0.6,0.1
	c-0.5,1.3-0.7,2.1-0.7,2.1c-1.3,27,25.3,38.3,25.3,38.3s16-20.3,37.3-19c0,0,34.6-3.2,48.5-2c3,0.2,5,0.7,5.5,1.4
	c0,0,6.7,12.8,9,24.6c1,5.3,1.2,10.4-0.6,14.1c-0.102,0.3-0.2,0.5-0.4,0.7c0,0-10.9,5.8-26.6,6.6c-4.302,0.2-8.9,0.1-13.7-0.7
	c0,0-0.3-0.2-0.9-0.6c-5.7-4-38-25.7-51.9-15l-6.3,11.8c0,0-8.8-14.5-9.8-14.3c0,0-8.3-7-16.8-3.3c0,0-8.5,3-8.5,4.8
	C236.3,218.3,235.1,208.4,235.8,197.3z"/>
<path fill="#FFFFFF" stroke="#000000" stroke-width="0.5" d="M282.9,172.7c2.4,0.5,3.9,3.5,3.3,6.8c-0.601,3.3-3.1,5.7-5.5,5.2
	c-2.5-0.5-3.9-3.5-3.3-6.8C277.9,174.6,280.4,172.3,282.9,172.7z"/>
<path fill="#FFFFFF" stroke="#000000" stroke-width="0.5" d="M286.2,179.6c0.6-3.3-0.9-6.4-3.3-6.8c-2.5-0.5-4.9,1.9-5.5,5.2
	s0.9,6.4,3.3,6.8C283.1,185.2,285.6,182.9,286.2,179.6z M283.3,172.8c19.5-4.5,34.3-25,34.3-25l0.4-0.3c3.1,2,5.6,1.8,5.6,1.8
	c37.802,6.6,34.102,35.7,33.5,39c-13.898-1.1-48.5,2-48.5,2c-21.3-1.3-37.3,19-37.3,19S244.6,198,246,171c0,0,0.2-0.8,0.7-2.1
	c2.3-6.1,10.4-23,27.9-20.3c2.6,0.4,2.4,0.2,2.9,0.2h0.6c0,0.3-0.1,0.6-0.1,1C276.6,165.3,283.3,172.8,283.3,172.8z"/>
<path fill="#FFFFFF" stroke="#000000" stroke-width="0.5" d="M317.9,147.5l-0.4,0.3c0,0-14.8,20.5-34.3,25c0,0-6.6-7.5-5.3-23
	c0-0.3,0-0.6,0.1-1c0.9-10.2,0.9-20.3,0.9-20.6c4.2,2.8,10.3,1,14-3.5c7.199-8.6,10.398-12.8,13-18.3v-0.1
	C305.7,134.4,312.7,144.1,317.9,147.5z"/>
<polygon fill="#FFFFFF" stroke="#000000" stroke-width="0.5" points="312.7,96.3 311.9,100.6 315.1,103.7 310.7,104.3 308.8,108.3 
	306.8,104.3 302.4,103.7 305.6,100.6 304.8,96.2 308.8,98.3 312.7,96.2 "/>
<path fill="#FFFFFF" stroke="#000000" stroke-width="0.5" d="M289.8,105.5l-9.5,10.3l-9.5-8.1C271.5,108.1,279.5,113.6,289.8,105.5z
	"/>
<path fill="#FFFFFF" stroke="#000000" stroke-width="0.5" d="M270.8,107.7l9.5,8.1l9.5-10.3C279.5,113.6,271.5,108.1,270.8,107.7z
	 M306,106.3v0.1c-2.6,5.4-5.8,9.6-13,18.3c-3.8,4.5-9.8,6.3-14,3.5c-5.1-3.4-2.1-2.4-7.4-7.4c-1-0.9-3.6-4-5.9-8.2
	c-2.1-3.9-4.2-6.8-5.3-13.3c-0.9-5.2,0.7-10.5,0.3-12.3l0,0c1.8,2.5,5.1,4.7,10.6,1.7l1-3.6c0,0-7.5-6.5-13.5-1.8
	c-0.8-3.7-0.7-1.2-1.8-11.8v-0.2c12.6,2,34.3-0.3,44.6-1.6l2.102,0.1c0,0,3.3,10,4.1,20.2h0.4c0,0,2.7-6,5-3.7c2.3,2.3,0,9.7,0,9.7
	l-0.602,0.4v-0.1l-3.898,2.1l-3.9-2.1l0.801,4.4l-3.199,3.1l4.398,0.6C306.6,105,306.3,105.7,306,106.3z M296.5,81.5
	c-0.3-0.1-0.6-0.1-0.9-0.2c-14.8-2.6-16.6,7.2-16.6,7.2C294,93.2,296.5,81.5,296.5,81.5z"/>
<path fill="#FFFFFF" stroke="#000000" stroke-width="0.5" d="M290.8,86c0,1.5-1.6,2.8-3.5,2.8c-1.899,0-3.5-1.2-3.5-2.8
	s1.601-2.8,3.5-2.8C289.2,83.2,290.8,84.5,290.8,86z"/>
<path fill="#FFFFFF" stroke="#000000" stroke-width="0.5" d="M296.5,81.5c0,0-2.5,11.8-17.5,7.1c0,0,1.8-9.8,16.6-7.2
	C295.9,81.4,296.2,81.4,296.5,81.5z M287.3,88.8c1.9,0,3.5-1.2,3.5-2.8s-1.6-2.8-3.5-2.8c-1.899,0-3.5,1.2-3.5,2.8
	S285.3,88.8,287.3,88.8z"/>
<path fill="#FFFFFF" stroke="#000000" stroke-width="0.5" d="M266.6,89.3c1.4,0,2.6-1.2,2.6-2.8s-1.2-2.8-2.6-2.8s-2.6,1.2-2.6,2.8
	S265.2,89.3,266.6,89.3z M272.3,85l-1,3.6c-5.5,3-8.8,0.8-10.6-1.7c-1.3-1.8-1.9-3.6-1.9-3.6C264.8,78.5,272.3,85,272.3,85z"/>
<path fill="#FFFFFF" stroke="#000000" stroke-width="0.5" d="M269.3,86.5c0,1.5-1.2,2.8-2.6,2.8c-1.4,0-2.6-1.2-2.6-2.8
	s1.2-2.8,2.6-2.8C268.1,83.8,269.3,85,269.3,86.5z"/>
<polygon fill="#FFFFFF" stroke="#000000" stroke-width="0.5" points="160.8,28.1 146.6,28.1 146.4,23.3 160.6,22.6 157.1,25.4 "/>
<polygon fill="#FFFFFF" stroke="#000000" stroke-width="0.5" points="113.3,33.8 99.1,33.8 98.9,28.9 113.1,28.3 109.6,31.1 "/>
<polygon fill="#FFFFFF" stroke="#000000" stroke-width="0.5" points="65.9,38.1 51.8,38.1 51.6,33.3 65.8,32.6 62.3,35.4 "/>
<path fill="#FFFFFF" stroke="#000000" stroke-width="0.5" d="M37.2,45.2l28.4,4.6c-9.5,10.5,0.9,28.5,0.9,28.5
	c-5.9-2.7-12.2-3.6-17.5-3.7c-6.9-0.1-12,1-12,1C29.8,63.6,37.2,45.2,37.2,45.2z"/>
<path fill="#FFFFFF" stroke="#000000" stroke-width="0.5" d="M84.9,52.3l26.5,4.1c-8.9,9.4-1.1,26.5-1.1,26.5
	C97.5,77.2,84,78.2,84,78.2C77.2,67.6,84.9,52.3,84.9,52.3z"/>
<polygon fill="#FFFFFF" stroke="#000000" stroke-width="0.5" points="105.5,39 101.8,50.9 94.1,49.9 92.8,38.3 "/>
<path fill="#FFFFFF" stroke="#000000" stroke-width="0.5" d="M132,34.4l28.4,4.6c-9.5,10.5,0.9,28.5,0.9,28.5
	c-5.9-2.7-12.2-3.6-17.5-3.7c-6.9-0.1-12,1-12,1C124.5,52.9,132,34.4,132,34.4z"/>
<path fill="#FFFFFF" stroke="#000000" stroke-width="0.5" d="M124.4,66.2l36.5,4.9c-12.3,11.2,1.2,30.4,1.2,30.4
	c-17.7-6.8-38-2.9-38-2.9C114.8,85.9,124.4,66.2,124.4,66.2z"/>
<path fill="#FFFFFF" stroke="#000000" stroke-width="0.5" d="M26.4,111.9l40.7,6.3c-13.7,14.3,1.3,39,1.3,39
	c-19.7-8.7-42.3-3.7-42.3-3.7C15.8,137.3,26.4,111.9,26.4,111.9z"/>
<path fill="#FFFFFF" stroke="#000000" stroke-width="0.5" d="M29.7,76.9l36.5,4.9c-12.3,11.2,1.2,30.4,1.2,30.4
	c-17.7-6.8-38-2.9-38-2.9C20.1,96.7,29.7,76.9,29.7,76.9z"/>
<path fill="#FFFFFF" stroke="#000000" stroke-width="0.5" d="M114.1,120c-16.4-8.2-36.6-6.3-36.6-6.3c-8-14.1,2.9-33.4,2.9-33.4
	l33.5,5.5C101.6,97.1,114.1,120,114.1,120z"/>
<path fill="#FFFFFF" stroke="#000000" stroke-width="0.5" d="M116.4,123.2c0,0.1,0,0.2,0,0.3c-13.3,14.3,2.6,36.4,2.6,36.4
	c-19.7-8.7-44.7-1-44.7-1c-10.3-16.3,2.3-41.7,2.3-41.7L116.4,123.2z"/>
<path fill="#FFFFFF" stroke="#000000" stroke-width="0.5" d="M121.2,101.2l40.7,6.3c-13.7,14.3,1.3,39,1.3,39
	c-19.7-8.7-42.3-3.7-42.3-3.7c-3.7-5.8-4.7-12.8-4.5-19.3c0.1-0.1,0.1-0.2,0.2-0.2h-0.2C116.8,111.5,121.2,101.2,121.2,101.2z"/>
<path fill="#FFFFFF" stroke="#000000" stroke-width="0.5" d="M151.8,359.8c0.9-3,3.6-5.6,6.5-8.8l0,0c0,0-6.5,17.5,0.8,13.5
	c0,0,9.3-4,12.5-20.5c0,0-2.3-16.8,4.3-20.3c5.8-4,6.3-4.1,10-6.5c1.4,2.2,4.3,0.2,4.4-1.8c0-0.3-0.1-0.6-0.2-0.8l0.3-0.1
	c20-13.1,56.9-38,59-42l4.6-20.9c2.5,6.3,4.4,12.6,4.7,17.6c0,0,5.3,12.3-3.5,31.5c0,0-11.6,17.1-22.2,40.3l-90.1,35.3l-0.3-0.6
	C144.3,375,148.2,371.2,151.8,359.8z"/>
<path fill="#FFFFFF" stroke="#000000" stroke-width="0.5" d="M567.3,209.6v8.7l-186,68.7h-0.2c0.4-6.6,0.7-10.7,0.7-10.7
	c-5.7-14.4-9.8-41.5-10.8-48c1.8-3.7,1.6-8.8,0.6-14.1c7.102-2.1,10.602-7,12.2-12.5c4.102,2.6,31,17.9,59.5-2.4c0,0,6,21,50,1
	c0,0,4,3.6,11,6.1c0,0,12,4.6,30.7-3.4C534.9,202.9,543.8,213.5,567.3,209.6z"/>
<path fill="#FFFFFF" stroke="#000000" stroke-width="0.5" d="M317.5,299.3c-6.5-12.1-2.7-31.3-2.7-31.3
	c-0.3-6.8,14.5-33.5,14.5-33.5l0.102-0.2c0.6,0.4,0.898,0.6,0.898,0.6c4.9,0.7,9.5,0.9,13.7,0.7c2.6,21.8,12.5,44.4,12.5,44.4
	c-0.7,1.3-0.7,7-0.3,14.5L324,306.8c-3.6-4.4-6-6.8-6-6.8L317.5,299.3z"/>
<path fill="#FFFFFF" stroke="#000000" stroke-width="0.5" d="M236.3,218.3c0,0,0.3,0.5,0.9,1.4c-0.5,7.1-2.1,27.9-4.6,30.1
	c0,0-33.1,32.4-51.8,50.6c0.1-0.7,0.2-1.4-0.2-1.8c-0.7-0.7-2.2-0.7-2.9,0c-1.2,1.2-0.5,3.8-0.5,5.5l0,0c-6,5.9-9.8,9.2-10.3,9.7
	c0,0-6.2,3.6-11.6,16.4c-0.1,0.3-0.1,0.6-0.4,0.8c-11.5,13.8-9.5,21.5-11.8,26.5c0,0-3.7,21.6-1.8,17.8c-0.2,0.5,0.2,0.8,1.2,0.5
	l0.3,0.6L0.3,432V204.4c0,0,15,2.8,30-8.2c0,0,5.1,3.5,13.4,6l0,0c1.4,0.6,2.8,1,4.4,1.1l0,0c11.2,2.4,26.4,2,42.1-9.1
	c0,0,6,21,50,1c0,0,4,3.6,11,6.1c9,3.2,23.1,4.6,40-6.1c0,0,25,26,44,2h0.5C235.1,208.4,236.3,218.3,236.3,218.3z"/>
<path fill="#FFFFFF" stroke="#000000" stroke-width="0.5" d="M48.1,203.4L48.1,203.4c-1.6-0.3-3.1-0.7-4.5-1.1l0,0
	c-12.9-5.8-15-31-15-31C7.3,147.9,13.3,150,13.3,150s0,0,2,0.6c1.6,0.5,19,17.7,19,17.7l90-5c13-1,9-7,9-7l34-1
	c0,42-16,46.1-16,46.1c-7-2.5-11-6.1-11-6.1c-44,20-50-1-50-1C74.5,205.4,59.3,205.8,48.1,203.4z M161.3,165.8v-7.5H156v7.5H161.3z
	 M151.9,166v-7.5h-5.2v7.5H151.9z M141.8,166v-7.5h-5v7.5H141.8z"/>
<rect x="156" y="158.3" fill="#FFFFFF" stroke="#000000" stroke-width="0.5" width="5.3" height="7.5"/>
<rect x="146.6" y="158.5" fill="#FFFFFF" stroke="#000000" stroke-width="0.5" width="5.2" height="7.5"/>
<rect x="136.8" y="158.5" fill="#FFFFFF" stroke="#000000" stroke-width="0.5" width="5" height="7.5"/>
<line fill="none" stroke="#000000" stroke-width="4" x1="97.8" y1="50.8" x2="97.8" y2="54"/>
<line fill="none" stroke="#000000" stroke-width="4" x1="97.3" y1="79.3" x2="97.3" y2="83"/>
<line fill="none" stroke="#000000" stroke-width="4" x1="95.8" y1="114.8" x2="95.9" y2="120.6"/>
<line fill="none" stroke="#000000" stroke-width="4" x1="95.8" y1="155.5" x2="96.3" y2="165.1"/>
<line fill="none" stroke="#000000" stroke-width="3" x1="48.8" y1="79" x2="49" y2="74.5"/>
<line fill="none" stroke="#000000" stroke-width="3" x1="47.8" y1="108" x2="48" y2="115.5"/>
<line fill="none" stroke="#000000" stroke-width="3" x1="47.8" y1="152.3" x2="47.8" y2="167.6"/>
<line fill="none" stroke="#000000" x1="146.3" y1="21.5" x2="145.3" y2="36"/>
<line fill="none" stroke="#000000" x1="50.5" y1="46.8" x2="51.5" y2="32.3"/>
<line fill="none" stroke="#000000" x1="98.5" y1="38" x2="98.8" y2="27.5"/>
<line fill="none" stroke="#000000" stroke-width="3" x1="143.5" y1="68.3" x2="143.7" y2="63.8"/>
<line fill="none" stroke="#000000" stroke-width="3" x1="142.5" y1="97.3" x2="142.8" y2="104.8"/>
<line fill="none" stroke="#000000" stroke-width="3" x1="142.5" y1="141.5" x2="142.8" y2="156"/>
<path fill="#1F1E21" stroke="#000000" d="M36.3,170.5c0.6,0,1.1,0.5,1.1,1.2c0,0.7-0.5,1.2-1.1,1.2"/>
<line fill="none" stroke="#000000" x1="36.3" y1="172.9" x2="36.4" y2="179.8"/>
<path fill="none" stroke="#000000" d="M33.6,177.1c1.5,3,3.1,4.2,5.3,0.2"/>
<line fill="none" stroke="#000000" x1="34.9" y1="175.3" x2="37.6" y2="175.1"/>
<line fill="none" stroke="#000000" stroke-width="0.25" x1="12.4" y1="149.6" x2="51.5" y2="32.3"/>
<line fill="none" stroke="#000000" stroke-width="0.25" x1="140.3" y1="141.9" x2="134.6" y2="155.8"/>
<line fill="none" stroke="#000000" stroke-width="0.25" x1="144.3" y1="141.9" x2="150.4" y2="154.9"/>
<line fill="none" stroke="#000000" stroke-width="0.25" x1="55.8" y1="75.4" x2="55.9" y2="80.8"/>
<line fill="none" stroke="#000000" stroke-width="0.25" x1="42.8" y1="74.8" x2="42.6" y2="78.1"/>
<line fill="none" stroke="#000000" stroke-width="0.25" x1="42.4" y1="108.4" x2="42.4" y2="113.8"/>
<line fill="none" stroke="#000000" stroke-width="0.25" x1="52.8" y1="108.8" x2="52.1" y2="116.1"/>
<line fill="none" stroke="#000000" stroke-width="0.25" x1="51.9" y1="152.4" x2="55.9" y2="165.9"/>
<line fill="none" stroke="#000000" stroke-width="0.25" x1="92.8" y1="78.4" x2="92.9" y2="82.6"/>
<line fill="none" stroke="#000000" stroke-width="0.25" x1="102.4" y1="80.1" x2="102.6" y2="83.6"/>
<line fill="none" stroke="#000000" stroke-width="0.25" x1="89.6" y1="114.1" x2="89.6" y2="119.1"/>
<line fill="none" stroke="#000000" stroke-width="0.25" x1="101.1" y1="115.9" x2="101.1" y2="120.6"/>
<line fill="none" stroke="#000000" stroke-width="0.25" x1="90.6" y1="155.9" x2="87.9" y2="164.6"/>
<line fill="none" stroke="#000000" stroke-width="0.25" x1="101.6" y1="156.1" x2="103.3" y2="163.3"/>
<line fill="none" stroke="#000000" stroke-width="0.25" x1="140.6" y1="63.9" x2="140.6" y2="68.1"/>
<line fill="none" stroke="#000000" stroke-width="0.25" x1="147.9" y1="64.3" x2="147.4" y2="68.3"/>
<line fill="none" stroke="#000000" stroke-width="0.25" x1="138.1" y1="97.3" x2="138.1" y2="103.3"/>
<line fill="none" stroke="#000000" stroke-width="0.25" x1="146.1" y1="98.3" x2="146.3" y2="104.8"/>
<path fill="#1F1E21" stroke="#000000" d="M36.3,172.9c-0.6,0-1.1-0.5-1.1-1.2c0-0.7,0.5-1.2,1.1-1.2"/>
<line fill="none" stroke="#000000" stroke-width="0.25" x1="44.3" y1="152.4" x2="39.1" y2="167.8"/>
<path fill="none" stroke="#000000" d="M307.3,68.9c0,0-1.3,0.2-3.5,0.5"/>
<line fill="none" stroke="#000000" x1="381.9" y1="178.7" x2="378.6" y2="184.3"/>
<path fill="none" stroke="#000000" stroke-width="0.5" d="M272.5,101.3c2.8,1,9.1-1.7,9.1-1.7"/>
<path fill="none" stroke="#000000" stroke-width="0.5" d="M272.5,82c0,0-2.8,18.3,0,19.3"/>
<path fill="none" stroke="#000000" stroke-width="3" d="M259.5,77.4c-0.1,0.1,5-3.9,12.9,2"/>
<path fill="none" stroke="#000000" stroke-width="3" d="M280.5,79c0,0,4.8-6.3,17.8-2.8"/>
<path fill="none" stroke="#000000" d="M300.6,46.9c0,0,5.7,6.5,12.5,15.3"/>
</svg>
