<?xml version="1.0" encoding="utf-8"?>
<!-- Generator: Adobe Illustrator 15.0.0, SVG Export Plug-In . SVG Version: 6.00 Build 0)  -->
<!DOCTYPE svg PUBLIC "-//W3C//DTD SVG 1.1//EN" "http://www.w3.org/Graphics/SVG/1.1/DTD/svg11.dtd">
<svg version="1.1" id="layer_x5F_www.ABC-color.com"
	 xmlns="http://www.w3.org/2000/svg" xmlns:xlink="http://www.w3.org/1999/xlink" x="0px" y="0px" width="822px" height="567px"
	 viewBox="0 0 822 567" enable-background="new 0 0 822 567" xml:space="preserve">
<path fill="#FFFFFF" stroke="#000000" d="M445.2,84.6c1.2,3.4,2.398,6.8,3.5,9.9h-0.2l-3,1.8c-1.4-3-3.3-5.9-5.6-8.7l0,0
	C441.7,86.6,443.4,85.6,445.2,84.6z"/>
<path fill="#FFFFFF" stroke="#000000" d="M382.8,127.2c0.7-1.5,6.102,0.6,8.602,1.7c-3.602,0.5-4.4,4.7-4.602,7l0,0l-4.3-4.3l1.7-1
	C384.2,130.5,382.5,127.9,382.8,127.2z"/>
<path fill="#FFFFFF" stroke="#000000" d="M329.9,297.2c-7.602,7-20.4,17-36.5,23.399l-98-4.101l65.7-23L329.9,297.2L329.9,297.2z"/>
<path fill="#FFFFFF" stroke="#000000" d="M415.5,41.8c0,0,21.7-6,28,1.3c0,0,1.8,2.8,4.6,7.3c3.602,5.9,8.802,14.8,13.4,24.3
	c1.4,2.9,2.7,5.8,4,8.7c3.5,8.3,6.2,16.4,6.7,23c0,0-1.5,6.3-3.4,13.5c-2.3,9-5.2,19.3-6.2,20.4c-0.198-0.6-0.398-0.9-0.398-0.9
	c0-3.7-14.2-6.5-14.2-6.5l0,0c0.1-0.5,1.2-4,1.7-9.2c0,0,0,0,0-0.1c1.3-6,3.1-12.9,4.7-13.8c0,0-2.7-6.7-5.802-15.4
	c-1.1-3.1-2.3-6.4-3.5-9.9C441.2,73.1,437.7,61.2,438,56.2c0.1-1.5,0.5-2.4,1.5-2.4c-23.7,0.7-28.1-1-21.3-3.7v-0.3
	c-2.602,0-4.4-0.6-2.7-2.8v-0.4c-4.3-0.2-1-1.9-1-1.9v-0.3c-0.9-0.1-1.5-0.4-1.4-0.9l-0.198-0.3C413.6,42.8,414.4,42.3,415.5,41.8z"
	/>
<path fill="#FFFFFF" stroke="#000000" d="M262.7,267.8l80.8,2.9v0.5l0,0c0,0-9,2-5.7,18c0,0-2.8,3.3-7.898,8L329.8,297.1l-68.7-3.6
	l0.8-25.8L262.7,267.8z"/>
<path fill="#FFFFFF" stroke="#000000" d="M396.2,161.2c0,0-17.4-7.8-21-6.5c-0.9-6.2,2.7-9.5,2.7-9.5l0.1-0.1
	c-2.6-2.8-3.5-5.9-3.6-8.5c-0.2-3.1,0.6-5.5,0.6-5.5c-1.1-2.3-2-4.4-2.7-6.4c-7.398-19.6-1.3-28,2.4-32.5c1-1.2,1.8-2.1,2.1-2.9h0.7
	c0,0,26.1-9,48.6-2.1c2.5,0.8,5,1.7,7.4,2.9c1.7,0.8,2.5,1.5,2.5,1.5s-0.5-4.1-1.8-9.5c2.2,1.8,4.1,3.7,5.7,5.6
	c2.398,2.8,4.198,5.7,5.6,8.7c4.8,9.9,5,20.2,4.2,27.3c0,0,0,0,0,0.1c-1,4.6-1.7,8.7-1.7,9.2l0,0c-22.5,13-14.5,27.5-14.5,27.5
	s0,0-0.5,4.5s-9.5,11.5-11,12.5s-13.5,1.5-14.5-4.5s7.5-7.5,7.5-7.5c-7.5,7.5-2,7-2,7c16,0,13.5-28.5,13.5-28.5
	c0.2-0.8,0.3-1.7,0.3-2.8l0,0c0-9.2-7.3-27.7-7.3-27.7c-11.1-0.3-18.8-1.5-24.2-3.3l-0.1,0.3c0,0-10.7,8.7-13.3,7.3
	c0,0-4.302,17.7,6.698,34c0,0,4.602,4.2,10.4,7.6v0.1L396.2,161.2z"/>
<polygon fill="#FFFFFF" stroke="#000000" points="822.5,91.6 822.5,108.8 517.8,108.7 547.5,93.5 "/>
<path fill="#FFFFFF" stroke="#000000" d="M452.8,187.5c-5.3,2-12.7-25.3-19.3-27c0,0-8-14.5,14.5-27.5c0,0,14.2,2.8,14.2,6.5
	c0,0.9,0.1,1.2,0.398,0.9c0.7,1.7,2,5.7,2.802,10.6c0.8,5.2,0.898,11.5-1.102,17.5c0,0-0.6,1.8-1.7,4.3
	C460.3,178,456.4,186.1,452.8,187.5z"/>
<path fill="#FFFFFF" stroke="#000000" d="M406.8,128.9c1.9-9,11.602-1.1,12-0.7l0,0c-0.7,2.7-11.7,4-11.7,4H406.4
	C406.5,130.9,406.6,129.8,406.8,128.9z"/>
<path fill="#FFFFFF" stroke="#000000" d="M516,124.5l-42,20.3l-0.1-0.1c16.6-12.6,31.1-24.6,43.698-36l0.102,0.1L516,124.5z"/>
<path fill="#FFFFFF" stroke="#000000" d="M537.7,62.4c-1.8-9.1-3.3-21-0.8-29.3c0.898-0.8,1.698-1.5,2.5-2.3
	c4.898,12.2,2.5,24.2,1.1,28.9c-0.9,0.9-1.7,1.8-2.6,2.6L537.7,62.4z"/>
<path fill="#FFFFFF" stroke="#000000" d="M591.8,1.5c0.8,4,1.5,6,1.7,6.5c0,1.7-2.6,3.1-5.7,3.1c-0.7,0-1.398-0.1-2-0.2l-0.6,0.1
	c-0.602-2.7-0.9-5.9-0.7-9.5H591.8z"/>
<path fill="#FFFFFF" stroke="#000000" d="M441.8,245.5c0.3-0.5,0.602-1,0.7-1.6c0.3-1.3,9-36.7,9-36.7l0.3-1.2
	c1.8-4.2,2.5-10.1,1.102-18.4c3.6-1.4,7.5-9.5,9.698-14.7l0,0c0.5,1.8,1,3.6,1.4,5.3c2.3,9.1,3.5,17,3.9,23.9
	c0.5,8.8-0.5,15.8-2.2,21.4C459.2,243.9,441.8,245.5,441.8,245.5L441.8,245.5z"/>
<path fill="#FFFFFF" stroke="#000000" d="M558.1,9.5L558.1,9.5c-3.3,5.3-1.1,17.8,1.2,27.3c1.5,6.2,3.102,11.1,3.4,11.9v-0.1
	c0,1.9-2.8,3.4-6.3,3.4c-3.302,0-5.9-1.3-6.302-3.1c0-0.1,0-0.2,0-0.4c0,0,5.2-12.5-0.898-27.6C552.7,17.1,555.7,13.3,558.1,9.5z"/>
<path fill="#FFFFFF" stroke="#000000" d="M144.2,141.5c4.1,1.7,8.7,2.6,13.6,2.6c5.7,0,11.1-1.3,15.9-3.5l0.1,0.2
	c9.9,0.9,21.9,3,31.7,6.7c0,0-39.5,11-92,0C113.5,147.5,127.9,143.6,144.2,141.5z"/>
<path fill="#FFFFFF" stroke="#000000" d="M398.8,159.5L398.8,159.5c1.5,0.8,3.102,1.6,4.7,2.2v0.1l2.3,11.5l2.3,11.5
	c0,0,12,3.7,22.7,11.7c0,0,4.7-9.7,7.3-11.3L433,165c0.5-4.5,0.5-4.5,0.5-4.5c6.7,1.7,14,29,19.3,27c1.5,8.4,0.7,14.3-1.1,18.4
	l-0.3,1.2c0,0-8.7,35.3-9,36.7c-0.2,0.6-0.4,1.1-0.7,1.6c-5.4,8.2-33.602,1.7-33.602,1.7c6.2-8.2-0.398-25.2-0.698-26l0,0
	c-9.9-5-12.7-18.7-12.7-18.7s14.3-14,1.3-41.3L398.8,159.5z"/>
<path fill="#FFFFFF" stroke="#000000" d="M189.8,189c1.2,0,5.4,0.5,6.7,6.5c-39,28.5-74,0-74,0s0.5-3.1,5.5-4.6l3.2,5.3
	c0,0,31.3,14.3,54.3-0.7L189.8,189z"/>
<polygon fill="#FFFFFF" stroke="#000000" points="45.2,222.8 44.5,245.7 0.5,246.2 0.5,222.8 33.8,222.8 "/>
<path fill="#FFFFFF" stroke="#000000" d="M378.2,461.2c0,0,6.7,36,14,39.3l0,0c0.6,3.7,1.6,4.7,1.6,4.7c9,1.3,7.3,4,7.3,4
	c-1.3,6-15.698,1.3-15.698,1.3l-8.302-7.7c3.302-17.7-3.698-23.7-3.698-23.7L366.1,490.4L360.4,488.1l7-13.3
	C367.2,464.5,375.5,461.2,378.2,461.2z"/>
<path fill="#FFFFFF" stroke="#000000" d="M553,1.5c-14,22.8-47,46.1-91.6,73.3C456.8,65.3,451.6,56.4,448,50.5
	c38.5-22.7,62.3-36.3,73.1-49H553z"/>
<path fill="#FFFFFF" stroke="#000000" d="M603.5,1.5V11l-11.9,11.1c7.5-13.2,9.5-20.6,9.5-20.6H603.5z"/>
<path fill="#FFFFFF" stroke="#000000" d="M574.1,48.4c7.802-10.3,13.4-19.1,17.5-26.3L590,35l-15.8,13.5L574.1,48.4z"/>
<path fill="#FFFFFF" stroke="#000000" d="M445.5,258.8c0.2,0.1,1.9,0.6-0.3-1.3c-1.5-1.3-2.5-5.9-2.9-9l380.3,11.7v23.7L455,273.8
	C449.3,266.2,445.6,259.1,445.5,258.8z"/>
<path fill="#FFFFFF" stroke="#000000" d="M406.8,162.8c0,0,18.7-13.2,20-21.6c0,1.1-0.1,2-0.3,2.8c0,0,2.5,28.5-13.5,28.5
	c0,0-5.5,0.5,2-7c0,0-8.5,1.5-7.5,7.5l-1.7,0.3l-2.3-11.5v-0.1C404.6,162.2,405.7,162.5,406.8,162.8z"/>
<path fill="#FFFFFF" stroke="#000000" d="M410.5,146.5c0,0-3,6.3-4.3,6.7c-1.3,0.3-4.7,1-4.7,1l-5.7-5
	C395.8,149.2,407.2,148.2,410.5,146.5z"/>
<path fill="#FFFFFF" stroke="#000000" d="M195.3,316.5c0.2-6,0.4-13,0.5-20.5c23.3-9.5,45.3-19.1,66-28.6l0.2,0.4l-0.8,25.8
	l-65.7,23L195.3,316.5z"/>
<path fill="#FFFFFF" stroke="#000000" d="M350.2,281.5l-12.3,7.7c-3.302-16,5.698-18,5.698-18l0,0c0.5,0,0.9-0.1,1.302-0.1v0.4
	C348,271.4,350.2,281.5,350.2,281.5z"/>
<path fill="#FFFFFF" stroke="#000000" d="M473.9,144.6l0.1,0.1l-1.5,15.8l-8.3,7.9c2-6,1.898-12.3,1.1-17.5
	C468.2,148.9,471.1,146.7,473.9,144.6z"/>
<polygon fill="#FFFFFF" stroke="#000000" points="34.5,1.5 33.8,222.8 0.5,222.8 0.5,1.5 "/>
<path fill="#FFFFFF" stroke="#000000" d="M363.9,150c-2.302-1.6-4.7-3.2-6.602-4.4c2.8-1.5,5.7-3,8.5-4.5l0.2,0.4
	C363.6,145.7,363.8,148.9,363.9,150z"/>
<path fill="#FFFFFF" stroke="#000000" d="M262.5,71.7c2.2,0,3.2,0.4,3.2-0.9c0-0.8-1.5-2.3-2.8-2.3c-1.3,0-2.4,1.3-2.8,1.8
	C259.3,71.5,261.2,71.7,262.5,71.7z M257.5,91.6c-2.1-0.4-4-1.2-5.7-2.4c-5.3-3.5-8.8-10.4-8.8-18.7c0-4.4,3.3-8,10-11
	c2.4,3.5,15.8,2.2,17,9.3c1.3,7.1-3.5,14.8-7.5,19.2C260.3,90.3,258.3,91.7,257.5,91.6z M251.3,71.9c1.3,0,3.2-0.2,2.3-1.4
	c-0.4-0.5-1.5-1.8-2.8-1.8c-1.3,0-2.8,1.5-2.8,2.3C248.1,72.3,249.1,71.9,251.3,71.9z M257.3,85.2c0,0,6-5,5-4.3c-4,3-7.1,2-8.8,0.8
	l-1.5-1.3c0,0,0.5,0.7,1.5,1.3L257.3,85.2z"/>
<path fill="#FFFFFF" stroke="#000000" d="M354.1,134.1c6.302-3.2,11.4-6,17.7-9.3l0.5-0.2c0.8,2,1.7,4.1,2.7,6.4
	c0,0-0.8,2.4-0.6,5.5H374.3c-2.8,1.5-5.7,3.1-8.5,4.6s-5.7,3-8.5,4.5c-1.6-1-2.898-1.8-3.8-2.1C353.5,143.5,353.8,139.7,354.1,134.1
	L354.1,134.1z"/>
<polygon fill="#FFFFFF" stroke="#000000" points="822.5,32.9 822.5,47.5 574.3,48.5 590,35 "/>
<path fill="#FFFFFF" stroke="#000000" d="M273.2,254.7l-0.1-0.2c0,3.5-5.2,6.3-11.7,6.3s-11.7-2.8-11.7-6.3c0,0,1.1-3.4,2-9
	c1.6-9.9,2.5-26.8-4.7-44.7v-0.1c6.4-3,13.3-6.3,20.5-9.8c-3.9,13.6-1.6,32.3,1.2,45.9C270.7,246.4,272.9,253.5,273.2,254.7z"/>
<path fill="#FFFFFF" stroke="#000000" d="M571.4,36.3c0,1.7-2.602,3.1-5.7,3.1c-3,0-5.4-1.2-5.7-2.8c0-0.1,0-0.2,0-0.3
	c0,0,3.7-13.1-1.8-26.8l0,0c1.7-2.7,3-5.3,4.1-8h5.8c-2.3,7.4-0.3,19.4,1.5,27.3c1,4.3,1.9,7.3,2,7.7L571.4,36.3z"/>
<path fill="#FFFFFF" stroke="#000000" d="M208.5,219.5c6.8,16.9,6.4,32.9,5,43h-0.2c-6.9,3.1-15.2,7.2-17,8.1
	c0.2-16.3,0.3-32.9,0.3-46.5l0,0c0,0,4.2-1.9,11.7-5.3L208.5,219.5z"/>
<path fill="#FFFFFF" stroke="#000000" d="M822.5,342.7v23.8l-252.3-14.1c5.7-4,9-7.301,6.3-7.9c-4.5-1.1-14.6-6.4-26.5-13.2
	L822.5,342.7z"/>
<polygon fill="#FFFFFF" stroke="#000000" points="822.5,9.5 822.5,20.2 591.6,22.1 591.6,22.1 603.5,11 "/>
<path fill="#FFFFFF" stroke="#000000" d="M540.9,75.3c0,2.2-3.302,4-7.302,4c-4.1,0-7.398-1.8-7.398-4c0,0,0.3-0.7,0.6-1.9
	c1.3-4.6,3.8-16.6-1.8-30.5c4.3-3.3,8.2-6.6,11.9-9.8c-2.5,8.3-1.102,20.2,0.8,29.3C539.1,69.3,540.7,74.5,540.9,75.3L540.9,75.3z"
	/>
<path fill="#FFFFFF" stroke="#000000" d="M425.8,63.3c3.4-1.9,8.8-5.3,12-7.1h0.3c-0.3,5,3.2,17,7.102,28.3c-1.7,1-3.5,2-5.2,3l0,0
	c-1.7-2-3.5-3.8-5.7-5.6C432.7,75.9,430,68.2,425.8,63.3z"/>
<path fill="#FFFFFF" stroke="#000000" d="M473,78.8c5.7,14.3,4.8,27.8,3.5,35.6c-2.5,1.9-5.1,3.8-7.7,5.6c1.9-7.2,3.4-13.5,3.4-13.5
	c-0.5-6.6-3.2-14.7-6.7-23l0.3-0.1C468.2,81.8,470.6,80.3,473,78.8z"/>
<path fill="#FFFFFF" stroke="#000000" d="M262.8,70.5c0-0.2-0.1-0.3-0.3-0.3s-0.3,0.1-0.3,0.3s0.1,0.3,0.3,0.3
	S262.8,70.7,262.8,70.5z M260.2,70.4c0.4-0.5,1.5-1.8,2.8-1.8s2.8,1.6,2.8,2.3c0,1.3-1,0.9-3.2,0.9
	C261.2,71.7,259.3,71.5,260.2,70.4z"/>
<path fill="#FFFFFF" stroke="#000000" d="M822.5,163.5v18l-358.6-3.4c-0.4-1.7-0.9-3.5-1.4-5.3l0,0c1-2.5,1.7-4.3,1.7-4.3l8.3-7.9
	L822.5,163.5z"/>
<polygon fill="#FFFFFF" stroke="#000000" points="822.5,78.5 822.5,91.6 547.5,93.5 548.5,79.3 "/>
<path fill="#FFFFFF" stroke="#000000" d="M251.9,245.5c-7.9,3.9-15.2,7.4-21.6,10.5c-2.8-13.8-5.3-32.9-1.2-46.7
	c5.5-2.6,11.5-5.4,18.1-8.5v0.1C254.4,218.7,253.5,235.6,251.9,245.5z"/>
<path fill="#FFFFFF" stroke="#000000" d="M517.6,108.6c11.7-10.5,21.802-20.4,30.5-29.7l0.4,0.3l-1,14.2l-29.8,15.3L517.6,108.6z"/>
<path fill="#FFFFFF" stroke="#000000" d="M506.5,91c-2.1-10.3-3.9-24.2-1.1-33.8c0.898-0.6,1.8-1.2,2.6-1.9
	c5.6,13.9,4.2,26.2,2.9,32.1l-0.302-0.1C509.3,88.6,507.9,89.8,506.5,91z"/>
<path fill="#FFFFFF" stroke="#000000" d="M548.5,78.5L571,64h251.5v14.5l-274,0.8l-0.4-0.3C548.3,78.8,548.4,78.6,548.5,78.5
	L548.5,78.5z"/>
<path fill="#FFFFFF" stroke="#000000" d="M116.5,171.5c50.4,11.9,85.5-1.7,86.2-2l-10.8,16.3l-2.1,3.2l-4.3,6.5
	c-23,15-54.3,0.7-54.3,0.7l-3.2-5.3L116.5,171.5z"/>
<path fill="#FFFFFF" stroke="#000000" d="M585.3,11c0.9,4.5,2.4,7.4,2.7,8c0,1.7-2.6,3.1-5.7,3.1c-1,0-2-0.1-2.8-0.4l-0.4,0.1
	C577.4,16.3,575.9,8.3,578,1.5h6.6C584.3,5.1,584.7,8.3,585.3,11z"/>
<path fill="#FFFFFF" stroke="#000000" d="M389.5,79.2c1.1-4.9,1.8-7.5,5.7-7.3c0.7,0,4.3,2,4.3,2l4-5.7l4.7,5.3
	c0.6-1.1,4.7-3.3,4.7-3.3c8.198-0.5,6,8.7,6,8.7s-0.4-0.1-1.2-0.3C406.1,75.8,389.5,79.2,389.5,79.2z"/>
<path fill="#FFFFFF" stroke="#000000" d="M548.3,22c0.3-0.3,0.602-0.7,0.9-1c6.1,15.1,0.898,27.6,0.898,27.6c0,0.1,0,0.2,0,0.4
	l-0.6,0.1C547.7,40.5,546.1,29.3,548.3,22z"/>
<path fill="#FFFFFF" stroke="#000000" d="M255.8,55.5c-1.2,0-2.2-1.2-2.2-2.6s1-2.6,2.2-2.6c1.2,0,2.2,1.2,2.2,2.6
	S257,55.5,255.8,55.5z"/>
<path fill="#FFFFFF" stroke="#000000" d="M378.2,461.2c2.3,0,4.5-13.3,5.2-17.2c5,1.2,10.898,1.8,18,1.2
	c-8.5,17-8.5,39.398-8.5,39.398c-1.2,7.9-1.102,12.9-0.602,16l0,0C384.8,497.2,378.2,461.2,378.2,461.2z"/>
<path fill="#FFFFFF" stroke="#000000" d="M249.1,334.5l-54.6-3c0.3-3.4,0.6-8.6,0.8-15h0.2l98,4.1c-13.6,5.4-29.6,8.301-47,4.602
	c0,0,1.1,3.6,3.1,9.199L249.1,334.5z"/>
<path fill="#FFFFFF" stroke="#000000" d="M386.9,135.8c0.198-2.2,1-6.5,4.6-7c0.2,0,0.5,0,0.7,0c0,0,4,3.3,4.3,7.3l-9.7,1
	C386.8,137.2,386.8,136.6,386.9,135.8z"/>
<polygon fill="#FFFFFF" stroke="#000000" points="822.5,47.5 822.5,64 571,64 574.3,48.5 "/>
<path fill="#FFFFFF" stroke="#000000" d="M525,42.9c5.6,13.8,3.1,25.9,1.8,30.5h-0.2c-1.398,1.3-2.698,2.5-4.1,3.8
	c-2.1-9.8-3.7-22.5-0.9-31.6C522.8,44.6,523.9,43.7,525,42.9z"/>
<polygon fill="#FFFFFF" stroke="#000000" points="591.6,22.1 822.5,20.2 822.5,32.9 590,35 "/>
<path fill="#FFFFFF" stroke="#000000" d="M374.2,157.5c0,0-5-3.8-10.3-7.5c-0.2-1.2-0.302-4.4,2.1-8.5l-0.2-0.4
	c2.9-1.5,5.7-3,8.5-4.6h0.102c0.1,2.6,1,5.8,3.6,8.5l-0.1,0.1c0,0-3.602,3.3-2.7,9.5c-0.4,0.1-0.602,0.4-0.602,0.8
	C374.5,156,374.4,156.7,374.2,157.5L374.2,157.5z"/>
<path fill="#FFFFFF" stroke="#000000" d="M389.5,79.2c0,0,16.6-3.4,28.1-0.7c0.802,0.2,1.2,0.3,1.2,0.3s2.2-9.1-6-8.7
	c0,0-4,2.3-4.7,3.3l-4.698-5.3l-4,5.7c0,0-3.602-2-4.302-2C391.3,71.7,390.6,74.3,389.5,79.2z M425.4,83.6
	C407.8,77,384.1,83.1,384.1,83.1l-0.398-0.6c3.8-11.6,2.5-15.3,8.398-15c1.102,0.1,6.2,2.7,6.2,2.7l4.8-9.4l5,7.3
	c1-0.8,1.9-1.4,2.9-1.9c3.4-1.8,6.5-1.8,6.5-1.8c9.7,0.7,9.8,19.9,9.8,19.9s-0.1,0-0.3-0.1C426.7,84.1,426.2,83.9,425.4,83.6z"/>
<polygon fill="#FFFFFF" stroke="#000000" points="822.5,1.5 822.5,9.5 603.5,11 603.5,1.5 "/>
<path fill="#FFFFFF" stroke="#000000" d="M403.2,121.2c12.2-2.3,15.6,6.7,15.7,7c-0.4-0.3-10.102-8.2-12,0.7l-0.302-0.1l-5.698-4.3
	l3-1C403.8,123.5,402.6,121.3,403.2,121.2z"/>
<path fill="#FFFFFF" stroke="#000000" d="M467.8,202l354.7,6.9v22l-356.7-7.3l-0.3-0.1C467.3,217.8,468.3,210.8,467.8,202z"/>
<path fill="#FFFFFF" stroke="#000000" d="M491.6,66.7c5.802,14.4,4.102,27.9,2.802,34.1c-1.602,1.2-3.2,2.5-4.802,3.7
	c-2.1-11.2-3.698-25.8-0.698-36.1C489.8,67.8,490.7,67.2,491.6,66.7L491.6,66.7z"/>
<path fill="#FFFFFF" stroke="#000000" d="M465.5,83.5c-1.3-2.9-2.6-5.8-4-8.7C506,47.6,539,24.3,553,1.5h9.2
	c-1.102,2.6-2.5,5.3-4.102,8c-2.398,3.8-5.398,7.7-8.898,11.6c-0.3,0.3-0.602,0.6-0.9,1c-2.7,2.9-5.6,5.8-8.898,8.8
	c-0.802,0.8-1.602,1.5-2.5,2.3C533.3,36.4,529.3,39.7,525,43c-1.1,0.9-2.3,1.8-3.5,2.7c-4.2,3.2-8.8,6.5-13.5,9.8
	c-0.9,0.6-1.8,1.2-2.6,1.9c-4.4,3.1-9.102,6.2-13.9,9.4c-0.9,0.6-1.8,1.2-2.6,1.8C483.8,72,478.5,75.4,473,78.9
	c-2.4,1.5-4.8,3.1-7.2,4.6H465.5z"/>
<path fill="#FFFFFF" stroke="#000000" d="M449.8,123.7c0.7-7.2,0.5-17.5-4.2-27.3l3-1.8h0.2c3.2,8.7,5.8,15.4,5.8,15.4
	C452.8,110.7,451.1,117.6,449.8,123.7z"/>
<path fill="#FFFFFF" stroke="#000000" d="M426.2,276.5c0,0-23.7-26-27.7-23.3l-0.2-0.4l9.9-5.6c0,0,28.2,6.5,33.6-1.7l0,0
	c0,0,0.102,1.3,0.4,3c0.5,3.1,1.398,7.7,2.898,9c2.2,1.9,0.5,1.4,0.302,1.3l0,0C445.4,258.8,430.2,265.8,426.2,276.5z"/>
<path fill="#FFFFFF" stroke="#000000" d="M238.6,101.6c-0.4,0.3-0.8,0.6-1.2,0.9l-0.7-0.5c-8.3-2.8-1.8-13.3-1.8-13.3
	c-4.3-0.5-3-14-3-14c-2.3-5,3.8-13,3.8-13c-2-7.5,6.9-7.6,6.9-7.6h0.1l2.3,4.4h0.1h7.9v1c-6.8,3-10,6.6-10,11
	c0,8.3,3.5,15.2,8.8,18.7l0,0c0,0,0,3.8-5.3,8.5c0,0-1.4,0.3-3.4,1.2C241.8,99.5,240.2,100.4,238.6,101.6z"/>
<path fill="#FFFFFF" stroke="#000000" d="M374.7,223l-22.2-0.7l-0.1-0.1c7-3.8,13.8-7.6,20.398-11.4c0.4,3.6,1,7.5,1.9,11.5
	c0,0.2,0.1,0.4,0.1,0.6L374.7,223z"/>
<path fill="#FFFFFF" stroke="#000000" d="M484.3,126.3c-5.2,0-9.3-2.3-9.3-5.1c0,0,0.9-2.5,1.6-6.8c1.302-7.8,2.102-21.3-3.5-35.6
	c5.5-3.5,10.802-7,15.9-10.3c-3,10.3-1.4,24.9,0.7,36.1c1.7,8.9,3.7,15.8,4,16.8v-0.1C493.6,124,489.4,126.3,484.3,126.3z"/>
<path fill="#FFFFFF" stroke="#000000" d="M574.1,48.4l0.2,0.1L571,64l-22.5,14.5C558.9,67.4,567.3,57.3,574.1,48.4z"/>
<path fill="#FFFFFF" stroke="#000000" d="M362.5,173.2c6.1,0,10.7-10.3,11.8-15.6c0.2-0.8,0.3-1.5,0.3-2c0-0.4,0.2-0.7,0.602-0.8
	c3.6-1.3,21,6.5,21,6.5c13,27.3-1.3,41.3-1.3,41.3c-10.5-2.4-17.7-5.5-22.7-8.8l0,0c-4.102-2.7-6.602-5.5-8.102-8.2
	C360.2,178.8,362.5,173.2,362.5,173.2z"/>
<path fill="#FFFFFF" stroke="#000000" d="M354.8,91.2c-1.7-8,0.3-1.3,0.3-1.3s12.7-5.3,13.7-8.7c0,0,10-2.2,10.9-4.8l0.8,0.2
	c-0.9,3.2-2.1,7-3.6,11.4c0.1,0.4,0,0.7-0.2,1.1c-0.4,0.8-1.2,1.7-2.102,2.9c-5.8,3.1-13.6,7.5-19.398,10.5
	C355.4,97.4,355.2,93.1,354.8,91.2z"/>
<polygon fill="#FFFFFF" stroke="#000000" points="75.2,245.5 74.5,261.5 74.5,261.6 0.5,262.8 0.5,246.2 44.5,245.7 "/>
<path fill="#FFFFFF" stroke="#000000" d="M255.8,55.5c1.2,0,2.2-1.2,2.2-2.6s-1-2.6-2.2-2.6c-1.2,0-2.2,1.2-2.2,2.6
	C253.7,54.3,254.6,55.5,255.8,55.5z M245.1,58.6c0-0.1,0-0.1-0.1,0l-2.3-4.4l-6-11.7l13.5,7.7l5.3-7.3l5.3,6.4l13.5-8l-3.7,13.4
	l-1,3.7L253,58.5L245.1,58.6z"/>
<path fill="#FFFFFF" stroke="#000000" d="M197.2,206.8c0,0,65.5-28.4,139.8-65.1h0.2c0.1,2.4,0.3,4.8,0.7,7.1c0,0,0.1,2.1,2.5,5.6
	c-2.802,1.5-5.602,2.9-8.4,4.4c-6.8,3.5-13.4,6.9-19.9,10.2c-3.5,1.7-6.898,3.4-10.199,5.1c-7.101,3.5-14,7-20.7,10.2
	c-4.6,2.3-9.1,4.5-13.5,6.6c-7.2,3.5-14.1,6.8-20.5,9.8c-6.5,3.1-12.6,6-18.1,8.5c-8.4,3.9-15.5,7.2-20.8,9.6
	c-7.5,3.4-11.7,5.3-11.7,5.3l0,0c0-6.7,0-12.6,0-17.3H197.2L197.2,206.8z"/>
<path fill="#FFFFFF" stroke="#000000" d="M501.6,108.7c-4.5,0-8.198-2-8.198-4.4c0,0,0.398-1.3,0.898-3.5c1.3-6.2,3-19.7-2.8-34.1
	v-0.1c4.8-3.2,9.5-6.4,13.9-9.4c-2.802,9.5-1,23.5,1.1,33.8c1.4,7,3,12.2,3.3,13.3l0,0C509.8,106.7,506.1,108.7,501.6,108.7z"/>
<path fill="#FFFFFF" stroke="#000000" d="M822.5,315.1v27.7L550,331.3c-15-8.5-32.8-19.6-46.1-27.899L822.5,315.1z"/>
<path fill="#FFFFFF" stroke="#000000" d="M355.2,89.8c0,0-2-6.7-0.3,1.3c0.398,2,0.5,6.2,0.5,11.4c-0.102,9.7-0.7,22.8-1.302,31.5
	l0,0c-0.3,5.6-0.6,9.4-0.6,9.4c0.9,0.3,2.2,1.1,3.8,2.1c2,1.2,4.3,2.8,6.602,4.4c5.198,3.7,10.3,7.5,10.3,7.5h0.1
	c-1.1,5.3-5.7,15.6-11.8,15.6c-7.5-4.5-12.7-8.5-16.3-12c-2.7-2.6-4.602-4.9-5.8-6.7c-2.4-3.6-2.5-5.6-2.5-5.6
	c-0.4-2.3-0.602-4.7-0.7-7.1c-0.4-10.2,1.3-21.4,3.6-31.4c3.8-16.3,9-29.2,9-29.2l8.7-11.3c11.7-10,13.7-3,13.7-3v0.1
	c4-0.5,2.8,3.1,2.398,4c6.302-0.9,1.9,3.1,0.602,4.2c2.6-0.3,4.8-0.2,4.6,1c0,0.1,0,0.2-0.1,0.3c-0.9,2.6-10.9,4.8-10.9,4.8
	C367.8,84.5,355.2,89.8,355.2,89.8z"/>
<path fill="#FFFFFF" stroke="#000000" d="M113.5,147.5c52.5,11,92,0,92,0l-2.6,22h-0.1l0,0c-0.8,0.3-35.8,13.9-86.2,2L113.5,147.5z"
	/>
<path fill="#FFFFFF" stroke="#000000" d="M558.2,9.5c5.5,13.7,1.8,26.8,1.8,26.8c0,0.1,0,0.2,0,0.3l-0.7,0.1
	C557,27.3,554.9,14.7,558.2,9.5z"/>
<path fill="#FFFFFF" stroke="#000000" d="M230.2,256c1.9,9.3,4,16.2,4.3,17.4l-0.1-0.2c0,3.5-5.2,6.3-11.7,6.3
	c-6.4,0-11.7-2.8-11.7-6.3c0,0,1.4-4,2.3-10.7c1.4-10.1,1.9-26.1-5-43l-0.3-0.6c5.4-2.5,12.4-5.7,20.8-9.6
	C225,223,227.4,242.2,230.2,256z"/>
<path fill="#FFFFFF" stroke="#000000" d="M822.5,181.5v27.3L467.8,202c-0.3-6.8-1.5-14.7-3.898-23.9L822.5,181.5z"/>
<polygon fill="#FFFFFF" stroke="#000000" points="822.5,125.5 822.5,142.9 474,144.7 516,124.5 "/>
<path fill="#FFFFFF" stroke="#000000" d="M491.2,413.2c0,0,2.7-7,8.6-11.602c-0.398,11.102-1.6,21-1.6,21S491.8,415.8,491.2,413.2z"
	/>
<path fill="#FFFFFF" stroke="#000000" d="M158.5,78.6c18.4,0,33.2,15.2,33.2,33.9c0,12.9-7.4,23.1-18,28.1
	c-4.8,2.3-10.2,3.5-15.9,3.5c-4.9,0-9.5-0.9-13.6-2.6c-11.3-4.7-19-15.3-19-29C125.3,93.7,140.1,78.6,158.5,78.6z"/>
<path fill="#FFFFFF" stroke="#000000" d="M440.2,490.8c0,0,11.2,33.5,25.7,34l5.698,15c0.5,1.3,0.7,2.2,0.7,3c0,1.7-1,2-1,2
	c-4.3,2.7-17.7-10.7-18.3-12c-0.7-1.3-8.7-16.3-8.7-16.3l0.3,10h-3.3l-4.3-1c0,0,0-1.3,0.3-6s-3-17.3-3.3-19.7
	c-0.3-1.8,4.2-4.7,6.1-9.1L440.2,490.8z"/>
<path fill="#FFFFFF" stroke="#000000" d="M414.8,58.5c4.5-0.5,8.102,1.5,10.9,4.8C430,68.2,432.6,75.9,434.1,82
	c1.302,5.3,1.802,9.5,1.802,9.5s-0.802-0.7-2.5-1.5c-2.4-1.2-4.802-2.1-7.4-2.9l0.9-2.8c0.198,0.1,0.3,0.1,0.3,0.1
	s-0.102-19.3-9.8-19.9c0,0-3,0-6.5,1.8l-1.5-2.4C409.8,59.2,414.8,58.5,414.8,58.5z"/>
<path fill="#FFFFFF" stroke="#000000" d="M455,273.8l367.5,10.1V315l-318.6-11.7c-11.602-7.3-19.7-12.6-19.7-12.6
	C473.5,294.8,462.5,283.9,455,273.8z"/>
<polygon fill="#FFFFFF" stroke="#000000" points="822.5,142.9 822.5,163.5 472.5,160.6 474,144.7 "/>
<path fill="#FFFFFF" stroke="#000000" d="M408.2,184.8l-2.3-11.5l1.698-0.3c1,6,13,5.5,14.5,4.5s10.5-8,11-12.5l5.2,20.2
	c-2.7,1.7-7.3,11.3-7.3,11.3C420.2,188.5,408.2,184.8,408.2,184.8z"/>
<path fill="#FFFFFF" stroke="#000000" d="M548.3,22c-2.2,7.3-0.6,18.4,1.3,27.1c1.4,6.5,3.102,11.6,3.4,12.6c0,2-2.9,3.5-6.5,3.5
	s-6.5-1.6-6.5-3.5c0,0,0.3-0.8,0.7-2.1c1.3-4.7,3.8-16.7-1.102-28.9C542.7,27.8,545.6,24.9,548.3,22z"/>
<path fill="#FFFFFF" stroke="#000000" d="M473.9,144.6c-2.802,2.1-5.7,4.3-8.602,6.4c-0.8-4.9-2.1-8.9-2.8-10.6
	c1-1.1,3.9-11.5,6.2-20.4c2.6-1.9,5.2-3.7,7.7-5.6c-0.7,4.3-1.602,6.8-1.602,6.8c0,2.8,4.2,5.1,9.3,5.1c5.2,0,9.302-2.3,9.302-5.1
	v0.1c-0.302-1.1-2.302-7.9-4-16.8c1.6-1.2,3.198-2.5,4.8-3.7c-0.5,2.2-0.9,3.5-0.9,3.5c0,2.5,3.7,4.4,8.2,4.4s8.2-2,8.2-4.4l0,0
	c-0.3-1.1-1.9-6.4-3.3-13.3c1.398-1.2,2.8-2.4,4.198-3.5l0.302,0.1c-0.5,2.4-1,3.8-1,3.8c0,2.5,3.698,4.4,8.198,4.4s8.2-2,8.2-4.4
	c-0.398-1.2-2.2-6.8-3.8-14.2c1.4-1.3,2.8-2.5,4.1-3.8h0.2c-0.398,1.3-0.6,1.9-0.6,1.9c0,2.2,3.3,4,7.398,4
	c4.102,0,7.302-1.8,7.302-4v0.1c-0.302-0.8-1.802-6.1-3.2-13l0.3-0.1c0.9-0.9,1.7-1.8,2.6-2.6c-0.398,1.3-0.698,2.1-0.698,2.1
	c0,2,2.898,3.5,6.5,3.5c3.6,0,6.5-1.6,6.5-3.5c-0.302-1-2-6.1-3.4-12.6l0.6-0.1c0.302,1.7,3,3.1,6.302,3.1c3.5,0,6.3-1.5,6.3-3.4
	v0.1c-0.3-0.8-1.9-5.7-3.4-11.9l0.7-0.1c0.3,1.6,2.7,2.8,5.7,2.8c3.2,0,5.7-1.4,5.7-3.1v0.1c-0.102-0.4-1-3.4-2-7.7l0.5-0.1
	c0.3,1.6,2.698,2.8,5.698,2.8c3.2,0,5.7-1.4,5.7-3.1c0,0.1,0,0.1,0,0.1v-0.1l0,0c-0.3-0.6-1.398-3.1-2.398-6.5L579.3,22
	c0.8,0.3,1.8,0.4,2.8,0.4c3.102,0,5.7-1.4,5.7-3.1c0,0,0,0,0,0.1v-0.1l0,0c-0.3-0.6-1.8-3.6-2.7-8l0.602-0.1c0.6,0.1,1.3,0.2,2,0.2
	c3.2,0,5.7-1.4,5.7-3.1c-0.2-0.5-0.802-2.5-1.7-6.5h9.3c0,0-2,7.4-9.5,20.6l0,0l0,0l0,0c-4.1,7.1-9.7,16-17.5,26.3
	c-6.8,9-15.2,19.1-25.5,30.1l0,0c-0.1,0.1-0.3,0.3-0.4,0.4c-8.698,9.3-18.8,19.2-30.5,29.7C505,120,490.5,132,473.9,144.6z"/>
<path fill="#FFFFFF" stroke="#000000" d="M581.4,28.4c0,1.7-2.602,3.1-5.7,3.1c-3,0-5.4-1.2-5.7-2.8c0-0.1,0-0.2,0-0.3
	c2.2-12.6,0.3-21.3-2-26.8h9.9c-2.102,6.8-0.5,14.8,1.1,20.3C580.1,25.3,581.2,27.8,581.4,28.4z"/>
<path fill="#FFFFFF" stroke="#000000" d="M372.2,193.7c4.898,3.3,12.2,6.4,22.7,8.8c0,0,2.8,13.7,12.698,18.7l0,0
	c0.302,0.7,6.9,17.8,0.7,26l-9.898,5.6l-2.4,1.4c-3.5-1.8-6.5-4.1-9.1-6.9c-6.2-6.6-9.802-15.6-11.802-24.4c0-0.2-0.1-0.4-0.1-0.6
	c-0.9-4-1.5-7.9-1.9-11.5C371.8,201.8,372.1,194.8,372.2,193.7z"/>
<path fill="#FFFFFF" stroke="#000000" d="M372.3,124.6l-0.5,0.2c-6.398,3.3-11.398,6.1-17.7,9.3c0.5-8.8,1.2-21.9,1.302-31.5
	c5.698-3.1,13.6-7.4,19.398-10.5C371,96.6,364.9,105,372.3,124.6z"/>
<path fill="#FFFFFF" stroke="#000000" d="M251.7,70.7c0-0.2-0.1-0.3-0.3-0.3c-0.2,0-0.3,0.1-0.3,0.3c0,0.2,0.1,0.3,0.3,0.3
	C251.5,71,251.7,70.8,251.7,70.7z M251.3,71.9c-2.2,0-3.2,0.4-3.2-0.9c0-0.8,1.5-2.3,2.8-2.3c1.3,0,2.4,1.3,2.8,1.8
	C254.5,71.7,252.6,71.9,251.3,71.9z"/>
<path fill="#FFFFFF" stroke="#000000" d="M465.8,223.5l356.7,7.3v29.3l-380.3-11.7c-0.3-1.7-0.4-3-0.4-3s17.3-1.6,23.7-22.1
	L465.8,223.5z"/>
<path fill="#FFFFFF" stroke="#000000" d="M426.1,87.1c-22.6-6.9-48.6,2.1-48.6,2.1h-0.7c0.2-0.4,0.3-0.8,0.2-1.1
	c1.5-4.4,2.6-8.1,3.6-11.4c3.5-11.8,4.302-16.3,10.602-15.8c1.5,0.1,5.7,5,5.7,5l6.3-17.3l6.3,15.3l1.5,2.4
	c-0.9,0.5-1.9,1.1-2.9,1.9l-5-7.3l-4.8,9.4c0,0-5.1-2.6-6.2-2.7c-5.898-0.3-4.698,3.3-8.398,15l0.398,0.6c0,0,23.7-6.1,41.302,0.5
	c0.8,0.3,1.3,0.5,1.6,0.7L426.1,87.1z"/>
<path fill="#FFFFFF" stroke="#000000" d="M526.3,91.3c0,2.5-3.7,4.4-8.2,4.4s-8.198-2-8.198-4.4c0,0,0.5-1.4,1-3.8
	c1.3-5.9,2.698-18.2-2.9-32.1c4.8-3.3,9.3-6.6,13.5-9.8c-2.8,9.1-1.2,21.8,0.9,31.6C524.1,84.4,525.9,90.1,526.3,91.3z"/>
<path fill="#FFFFFF" stroke="#000000" d="M337,141.7c-74.3,36.7-139.8,65.1-139.8,65.1h-0.6c0-5.7,0-9.7,0-11.3
	c-1.3-6-5.5-6.5-6.7-6.5l2.1-3.2c7.9-3.8,76.3-37.1,148.9-75.5c-2.302,10-4,21.1-3.602,31.4H337L337,141.7z"/>
<path fill="#FFFFFF" stroke="#000000" d="M434.8,435.8c0,0,5.2,1.7,12.4,4.7l11.6,65.6l7,18.7c-14.5-0.5-25.7-34-25.7-34l-0.198-0.1
	c0.5-1.2,0.898-2.5,0.898-3.9c0-0.398,0-0.8-0.1-1.398c-1.4-9.602-14.2-45.9-14.2-45.9l-0.1-0.3
	C429.1,438.2,431.9,437.1,434.8,435.8z"/>
<path fill="#FFFFFF" stroke="#000000" d="M568,1.5c2.3,5.6,4.2,14.2,2,26.8c0,0.1,0,0.2,0,0.3l-0.5,0.1
	C567.7,20.9,565.8,8.9,568,1.5z"/>
<polygon fill="#FFFFFF" stroke="#000000" points="822.5,108.8 822.5,125.5 516,124.5 517.8,108.7 "/>
<path fill="#FFFFFF" stroke="#000000" d="M406.8,128.9c-0.2,0.9-0.3,2-0.3,3.3h0.7c0,0,11-1.3,11.7-4l0,0c-0.102-0.3-3.5-9.3-15.7-7
	c-0.602,0.1,0.7,2.3,0.7,2.3l-3,1l5.698,4.3L406.8,128.9z M382.8,127.2c-0.3,0.8,1.3,3.3,1.3,3.3l-1.698,1l4.3,4.3l0,0
	c-0.102,0.8,0,1.3,0,1.3l9.7-1c-0.302-4-4.302-7.3-4.302-7.3c-0.3,0-0.5,0-0.698,0C388.9,127.8,383.5,125.7,382.8,127.2z
	 M388.5,151.8c-11-16.3-6.7-34-6.7-34c2.7,1.3,13.3-7.3,13.3-7.3l0.102-0.3c5.398,1.7,13.1,3,24.2,3.3c0,0,7.198,18.5,7.3,27.7l0,0
	c-1.2,8.4-20,21.6-20,21.6c-1.102-0.3-2.2-0.7-3.3-1.1c-1.602-0.7-3.2-1.5-4.7-2.3C393.1,156.1,388.5,151.8,388.5,151.8z
	 M406.2,153.2c1.3-0.3,4.3-6.7,4.3-6.7c-3.3,1.7-14.7,2.7-14.7,2.7l5.7,5C401.5,154.2,404.8,153.5,406.2,153.2z"/>
<path fill="#FFFFFF" stroke="#000000" d="M576.5,344.5c2.7,0.7-0.7,3.9-6.3,7.9c-11.3,8.1-32,19.398-32,19.398L538.1,371.9
	c-7.6-5.7-18.8-12.801-32.6-18.5c0,0-35.7-26-33-44.7c12-3,11.7-18,11.7-18s8.2,5.3,19.7,12.6c13.3,8.4,31.198,19.4,46.1,27.9
	C561.9,338.1,572,343.4,576.5,344.5z"/>
<path fill="#FFFFFF" stroke="#000000" d="M237.5,102.5c0.4-0.3,0.8-0.6,1.2-0.9c1.7,2.2,11.9,15.8,12.1,16.4v0.4h-16.3
	c-1.1,0-2.1-0.1-3.1-0.4C230.6,110.5,233.8,105.6,237.5,102.5z"/>
<path fill="#FFFFFF" stroke="#000000" d="M258.1,118.2v0.2h-7.4V118c-0.2-0.7-10.5-14.2-12.1-16.4c1.6-1.2,3.2-2,4.5-2.6l0.1,0.3
	C243.3,99.2,258.4,114.1,258.1,118.2z"/>
<path fill="#FFFFFF" stroke="#000000" d="M268.6,99l0.1-0.3c1,0.3,2.4,0.8,3.8,1.5l-0.1,0.3c0,0-6,15.9-5.6,17.3v0.7h-7.6v-0.2
	C265.2,100.7,267,101.7,268.6,99z"/>
<path fill="#FFFFFF" stroke="#000000" d="M332,159c-4,13.2-1.8,31,1,44.3c2.1,10,4.5,17.5,4.9,18.7l-0.102-0.2
	c0,3.5-5.2,6.3-11.7,6.3c-6.398,0-11.698-2.8-11.698-6.3c0,0,1.3-3.5,2.3-9.4c1.6-9.6,2.5-25.6-4.602-42.9L312,169
	c6.5-3.3,13.2-6.7,19.9-10.2L332,159z"/>
<path fill="#FFFFFF" stroke="#000000" d="M370.2,308.8c26-11.3,32,3.3,32,3.3c18.3,25.301,24.3,20.301,24.3,20.301
	c-6.3,38,8.3,103.301,8.3,103.301c-2.898,1.3-5.7,2.398-8.398,3.398c-9.602,3.5-17.9,5.302-25.102,5.9c-7.1,0.6-13,0-18-1.2
	c-16.398-4-22.2-15.1-22.2-15.1c-32.698-46.7-40-40.3-40-40.3S358.5,337.5,370.2,308.8z"/>
<path fill="#FFFFFF" stroke="#000000" d="M269,236.7c5.8-2.9,10.8-5.3,17-8.5c-0.9,6.2-2.2,9.9-2.2,9.9c0,3.5,5.2,6.3,11.7,6.3
	s11.7-2.8,11.7-6.3l0.1,0.3c-0.3-0.8-2.6-8.5-4.6-18.8c0.1-0.1,0.2-0.1,0.3-0.2c4.4-2.3,8.9-4.7,13.4-7.1l0.398,0.1
	c-1,5.9-2.3,9.4-2.3,9.4c0,3.5,5.2,6.3,11.7,6.3c6.398,0,11.7-2.8,11.7-6.3l0.1,0.2c-0.4-1.2-2.8-8.7-4.9-18.7h0.2
	c4.7-2.6,9.4-5.1,14.102-7.8c-0.9,5.8-2.102,9.3-2.102,9.3c0,3.5,5.2,6.3,11.7,6.3c6.4,0,11.7-2.8,11.7-6.3l0.1,0.3
	c-0.1-0.6-2.6-9.7-4.6-19.6l0,0c1.5,2.7,4.1,5.5,8.1,8.2l0,0c-0.1,1.2-0.398,8.2,0.602,17.1c-6.602,3.8-13.4,7.6-20.4,11.4
	c-27.2,14.9-57.3,30-90.6,45.2c-20.7,9.5-42.7,19-66,28.6c0.2-8,0.3-16.6,0.4-25.3c1.9-0.9,10.1-5,17-8.1h0.2
	c-0.9,6.6-2.3,10.7-2.3,10.7c0,3.5,5.2,6.3,11.7,6.3c6.4,0,11.7-2.8,11.7-6.3l0.1,0.2c-0.3-1.1-2.4-8-4.3-17.4
	c6.4-3,13.7-6.6,21.6-10.5c-0.9,5.6-2,9-2,9c0,3.5,5.2,6.3,11.7,6.3s11.7-2.8,11.7-6.3l0.1,0.2c-0.4-1.2-2.5-8.3-4.4-17.9L269,236.7
	z"/>
<path fill="#FFFFFF" stroke="#000000" d="M257.4,102.9c-0.1,0-0.3,0-0.4,0.1c-6.1-0.1-10.5-5.3-10.5-5.3c5.3-4.8,5.3-8.5,5.3-8.5
	l0,0c1.7,1.2,3.7,2,5.7,2.4c0.8,0.2,2.8-1.3,5-3.6l0,0c0,0-1,5.5,4.3,10.3c-3.2,3.3-6.3,4.6-9,4.7
	C257.6,103,257.5,102.9,257.4,102.9z"/>
<path fill="#FFFFFF" stroke="#000000" d="M196.5,195.5c0,1.6,0,5.6,0,11.3c0,4.8,0,10.7,0,17.3c0,13.6-0.1,30.2-0.3,46.5
	c-0.1,8.7-0.2,17.3-0.4,25.3c-0.1,7.6-0.3,14.6-0.5,20.5c-0.2,6.398-0.5,11.6-0.8,15c-3,32-72,25-72,0c0-17.4,0-44.301,0-70.7
	c0-25.1,0-49.7,0-65.3C122.5,195.5,157.5,224,196.5,195.5z"/>
<path fill="#FFFFFF" stroke="#000000" d="M312.3,169.5c7,17.3,6.2,33.3,4.602,42.9l-0.4-0.1c-4.5,2.4-9,4.8-13.4,7.1
	c-0.1,0.1-0.199,0.1-0.3,0.2c-2.7-13.7-4.899-32.1-0.899-45.5c3.399-1.7,6.8-3.4,10.199-5.1L312.3,169.5z"/>
<path fill="#FFFFFF" stroke="#000000" d="M368.5,204.8c0,3.5-5.2,6.3-11.7,6.3c-6.398,0-11.7-2.8-11.7-6.3c0,0,1.2-3.5,2.102-9.3
	c1.3-8,2-20.3-1.4-34l0.3-0.3c3.602,3.5,8.9,7.5,16.302,12c0,0-2.302,5.6,1.5,12.3l0,0c2,10,4.5,19.1,4.6,19.6v-0.3H368.5z"/>
<path fill="#FFFFFF" stroke="#000000" d="M386.7,247.3l-0.2,0.2l-35.3-1.3l1.3-23.3v-0.6l22.2,0.7h0.2
	C377,231.6,380.6,240.6,386.7,247.3z"/>
<path fill="#FFFFFF" stroke="#000000" d="M280.7,29.3c7.3,0,13.2,5.1,13.2,11.4v70.5c0,6.3-5.9,11.4-13.2,11.4h-48.4
	c-7.3,0-13.2-5.1-13.2-11.4V40.8c0-6.3,5.9-11.4,13.2-11.4h48.4V29.3z M258.1,118.4h1h7.6h11.8c1.2,0,2.3-0.1,3.4-0.4
	c5-1.3,8.6-5.2,8.6-10V44c0-5.7-5.4-10.4-12-10.4h-44c-6.6,0-12,4.7-12,10.4v64c0,4.8,3.8,8.8,8.9,10c1,0.2,2.1,0.4,3.1,0.4h16.3
	H258.1z"/>
<path fill="#FFFFFF" stroke="#000000" d="M453.8,315c4.7-11.5,18.7-6.1,18.7-6.1c-2.7,18.699,33,44.699,33,44.699
	c13.8,5.601,24.9,12.801,32.6,18.5c7.302,5.5,11.4,9.5,11.4,9.5c-9.3,22.999-36,15.999-36,15.999c-5.7-0.698-10.2,1.302-13.7,4
	c-5.898,4.7-8.6,11.602-8.6,11.602S451.9,353.6,453.8,315z"/>
<path fill="#FFFFFF" stroke="#000000" d="M268.7,98.7l-0.1,0.3c-1.6,2.7-3.4,1.7-9.5,19.3v0.2h-1v-0.2c0.3-4.1-14.9-19-14.9-19
	l-0.1-0.3c2-0.9,3.4-1.2,3.4-1.2s4.4,5.2,10.5,5.3c-1,0.3-1.8,1.9-1.8,3.7c0,2.1,1,3.8,2.2,3.8c1.2,0,2.2-1.7,2.2-3.8
	c0-1.9-0.8-3.5-1.8-3.8c2.8-0.2,5.9-1.4,9-4.7C266.8,98.2,267.5,98.4,268.7,98.7z"/>
<path fill="#FFFFFF" stroke="#000000" d="M343.5,270.7l-80.8-2.9v-0.3l88.398-21.3l35.302,1.3l0.198-0.2
	c2.602,2.8,5.602,5.1,9.102,6.9c0,0-27.3,16-33,16c-5.4,0-8.7,0-17.9,0.9c-0.398,0-0.898,0.1-1.3,0.1V270.7L343.5,270.7z"/>
<path fill="#FFFFFF" stroke="#000000" d="M379.8,76.2c0.102-1.2-2.1-1.3-4.6-1c1.3-1.1,5.6-5.1-0.602-4.2c0.4-0.9,1.602-4.5-2.398-4
	v-0.1c0,0-2-7-13.7,3l-8.7,11.3c0,0-5.3,12.9-9,29.2c-72.6,38.4-141,71.6-148.9,75.5l10.8-16.3l0,0h0.1l2.6-22
	c-9.7-3.7-21.8-5.8-31.7-6.7l-0.1-0.2c10.6-5.1,18-15.2,18-28.1c0-18.8-14.9-33.9-33.2-33.9c-18.3,0-33.2,15.2-33.2,33.9
	c0,13.8,7.6,24.4,19,29c-16.3,2.1-30.7,6-30.7,6l3,24L128,191c-5,1.5-5.5,4.6-5.5,4.6c0,15.6,0,40.2,0,65.3h-0.7l-47.3,0.8v-0.1
	l0.7-16l-30.7,0.3l0.7-22.9H33.8L34.5,1.5h486.7c-10.8,12.7-34.602,26.3-73.102,49c-2.8-4.5-4.6-7.3-4.6-7.3c-6.3-7.3-28-1.3-28-1.3
	c-1.1,0.5-1.9,1-2.6,1.5l0.198,0.3c-0.1,0.5,0.5,0.8,1.4,0.9v0.3c0,0-3.3,1.7,1,1.9v0.4c-1.7,2.1,0.1,2.7,2.7,2.8v0.3
	c-6.8,2.6-2.3,4.3,21.3,3.7c-0.9,0-1.4,0.9-1.5,2.4h-0.3c-3.2,1.8-8.602,5.2-12,7.1c-2.8-3.3-6.4-5.4-10.9-4.8c0,0-5,0.7-5.3,5.3
	l-6.3-15.3L396.9,66c0,0-4.2-4.9-5.7-5c-6.3-0.5-7.102,4-10.602,15.8l-0.8-0.2C379.8,76.3,379.8,76.2,379.8,76.2z M219.1,111.2
	c0,6.3,5.9,11.4,13.2,11.4h48.4c7.3,0,13.2-5.1,13.2-11.4V40.8c0-6.3-5.9-11.4-13.2-11.4h-48.4c-7.3,0-13.2,5.1-13.2,11.4V111.2
	L219.1,111.2z"/>
<path fill="#FFFFFF" stroke="#000000" d="M281.8,117.5c0.8-7.2-2-11.8-5.3-14.6l0.8-0.1c8.3-2.8,1.8-13.3,1.8-13.3
	c4.3-0.5,3-14,3-14c2.3-5-3.8-13-3.8-13c1.9-7.2-7.1-7.7-7.7-7.8l3.7-13.4l-13.5,8l-5.3-6.4l-5.3,7.3l-13.5-7.7l6,11.7h-0.1
	c0,0-8.9,0.1-6.9,7.6c0,0-6,8-3.8,13c0,0-1.3,13.5,3,14c0,0-6.5,10.5,1.8,13.3l0.7,0.5c-3.6,3.1-6.8,8-6.1,15.6
	c-5.1-1.2-8.9-5.2-8.9-10V44c0-5.7,5.4-10.4,12-10.4h44c6.6,0,12,4.7,12,10.4v64c0,4.7-3.6,8.7-8.6,10V117.5L281.8,117.5z"/>
<path fill="#FFFFFF" stroke="#000000" d="M266.8,117.7c-0.4-1.4,5.6-17.3,5.6-17.3l0.1-0.3c1.3,0.7,2.6,1.5,3.9,2.6
	c3.3,2.9,6.1,7.5,5.3,14.6l0.1,0.5c-1.1,0.3-2.2,0.4-3.4,0.4h-11.8v-0.5H266.8z"/>
<path fill="#FFFFFF" stroke="#000000" d="M301.8,174.1c-4,13.4-1.8,31.8,0.9,45.5c2,10.3,4.398,18,4.6,18.8l-0.1-0.3
	c0,3.5-5.2,6.3-11.7,6.3s-11.7-2.8-11.7-6.3c0,0,1.3-3.7,2.2-9.9c1.5-10,2.2-26.5-4.9-43.8l-0.1-0.2
	C287.7,181.1,294.6,177.7,301.8,174.1z"/>
<path fill="#FFFFFF" stroke="#000000" d="M278.3,62.5c0,0,6,8,3.8,13c0,0,1.3,13.5-3,14c0,0,6.5,10.5-1.8,13.3l-0.8,0.1
	c-1.3-1.1-2.6-1.9-3.9-2.6c-1.4-0.7-2.8-1.2-3.8-1.5c-1.2-0.4-2-0.5-2-0.5c-5.3-4.8-4.3-10.3-4.3-10.3l0,0
	c4.1-4.4,8.8-12.1,7.5-19.2c-1.3-7.1-14.6-5.7-17-9.3v-1l16.5-0.1l1-3.7C271.2,54.8,280.2,55.3,278.3,62.5z"/>
<path fill="#FFFFFF" stroke="#000000" d="M426.5,332.5c3,3.3,27-16.7,27-16.7c0.1-0.3,0.2-0.6,0.3-0.899
	C451.9,353.6,491.1,413.1,491.1,413.1c0.7,2.7,7,9.302,7,9.302c-5.3,31-37,24.3-37,24.3c-4.898-2.5-9.8-4.602-13.898-6.3
	c-7.2-3-12.4-4.7-12.4-4.7S420.2,370.5,426.5,332.5z"/>
<path fill="#FFFFFF" stroke="#000000" d="M370.2,308.8c0,0-6.7,3-20-27.3c0,0-2.102-10.1-5.2-10.1V271c9.3-0.9,12.5-0.9,17.9-0.9
	c5.698,0,33-16,33-16l2.398-1.4l0.2,0.4c4-2.7,27.7,23.3,27.7,23.3c4-10.7,19.3-17.7,19.3-17.7l0,0c0.1,0.2,3.8,7.4,9.4,14.9
	c7.5,10.1,18.6,21,29.198,17.1c0,0,0.302,15-11.698,18c0,0-14-5.4-18.7,6.1c-0.102,0.3-0.2,0.601-0.3,0.9c0,0-24,20-27,16.7
	c0,0-6,5-24.302-20.301C402.2,312.2,396.2,297.5,370.2,308.8z"/>
<path fill="#FFFFFF" stroke="#000000" d="M257,103c0.2,0,0.5,0,0.7,0c1,0.3,1.8,1.8,1.8,3.8c0,2.1-1,3.8-2.2,3.8
	c-1.2,0-2.2-1.7-2.2-3.8C255.2,104.9,256,103.3,257,103z"/>
<path fill="#FFFFFF" stroke="#000000" d="M261.8,267.4c33.3-15.3,63.4-30.4,90.602-45.2l0.1,0.1v0.6l-1.3,23.3l-88.4,21.3v0.3h-0.7
	L261.8,267.4z"/>
<path fill="#FFFFFF" stroke="#000000" d="M350.2,281.5c13.3,30.3,20,27.3,20,27.3c-11.7,28.7-49,79.7-49,79.7c-22.3,16-42,3-42,3
	c-11.6-9.6-23.9-41.3-29.5-57.1c-2-5.602-3.1-9.2-3.1-9.2c17.4,3.7,33.4,0.8,47-4.601c16.1-6.399,28.8-16.399,36.5-23.399
	c5.102-4.7,7.9-8,7.9-8L350.2,281.5z"/>
<path fill="#FFFFFF" stroke="#000000" d="M333,203.3c-2.8-13.3-5-31.1-1-44.3l-0.1-0.2c2.8-1.4,5.6-2.9,8.398-4.4
	c1.2,1.9,3.102,4.1,5.8,6.7l-0.3,0.3c3.4,13.7,2.7,26.1,1.4,34c-4.7,2.6-9.4,5.2-14.102,7.8L333,203.3z"/>
<path fill="#FFFFFF" stroke="#000000" d="M281.2,184.5c7,17.3,6.4,33.8,4.9,43.8c-6.2,3.2-11.2,5.5-17,8.5h-0.2
	c-2.7-13.6-5.1-32.3-1.2-45.9c4.4-2.1,8.9-4.3,13.5-6.6V184.5L281.2,184.5z"/>
<path fill="#FFFFFF" stroke="#000000" d="M262.3,81c1-0.8-5,4.3-5,4.3l-3.8-3.4C255.1,83,258.2,84,262.3,81z"/>
<path fill="#FFFFFF" stroke="#000000" d="M252,80.5l1.5,1.3C252.5,81.2,252,80.5,252,80.5z"/>
<path fill="none" stroke="#000000" stroke-width="0.5" d="M258.6,75.9c-0.5-0.9-1-1.2-1.4-1.2c-0.9,0-1.3,1.2-1.3,1.2"/>
<path fill="none" stroke="#000000" d="M383.5,97c0,0-2.1,8.5,12.1,13.3"/>
<path fill="none" stroke="#000000" d="M377.8,145.2c1.2,1.2,3.7,2.8,5.7,3.7"/>
<path fill="none" stroke="#000000" d="M396.5,136.2c-0.3,2.1-0.9,7.3,1,7.3c3,0,7.3-2.3,7.3-2.3"/>
<path fill="none" stroke="#000000" d="M403.2,119.5c0,0,8-6,14-1.3"/>
<path fill="none" stroke="#000000" d="M392.2,123.8c0,0-8-0.3-9.7,2.7"/>
<path id="www.ABC-color.com" fill="none" stroke="#000000" d="M407.5,221.2c4.9,2.5,11.7,2.8,20.7-2"/>
<path fill="none" stroke="#000000" d="M439.2,215.8c0,0,8.7-0.6,12.6-9.9"/>
<path fill="none" stroke="#000000" d="M375.2,75.2c-3,0.4-7,1.3-7,1.3"/>
<path fill="none" stroke="#000000" d="M374.6,71c-1.898,0.4-5.6,1.3-9.398,2.5"/>
<path fill="none" stroke="#000000" d="M371.5,67.1c0.9,0-3.3,0.8-8.4,3.7"/>
<line fill="none" stroke="#000000" stroke-width="0.25" x1="395.8" y1="273.8" x2="373.8" y2="297.8"/>
<line fill="none" stroke="#000000" stroke-width="0.25" x1="426.2" y1="281.2" x2="425.8" y2="315.8"/>
<path fill="none" stroke="#000000" d="M426.5,43.2c0,0-8.1,1.4-12,1.4"/>
<path fill="none" stroke="#000000" d="M415.5,46.8c2.1,0,6.4-0.2,12-0.9"/>
<path fill="none" stroke="#000000" d="M426.8,48.8c0,0-5.1,1.1-8.7,1.1"/>
<path fill="none" stroke="#000000" stroke-width="3" stroke-linecap="round" stroke-linejoin="round" d="M392.2,133.3
	c0,0.5-0.4,0.8-0.8,0.8c-0.4,0-0.802-0.4-0.802-0.8"/>
<path fill="none" stroke="#000000" stroke-width="3" stroke-linecap="round" stroke-linejoin="round" d="M411.5,127.5
	c0.5,0,1,0.5,1,1s-0.5,1-1,1"/>
</svg>
