<?xml version="1.0" encoding="utf-8"?>
<!-- Generator: Adobe Illustrator 15.0.0, SVG Export Plug-In . SVG Version: 6.00 Build 0)  -->
<!DOCTYPE svg PUBLIC "-//W3C//DTD SVG 1.1//EN" "http://www.w3.org/Graphics/SVG/1.1/DTD/svg11.dtd">
<svg version="1.1" id="Layer_1" xmlns="http://www.w3.org/2000/svg" xmlns:xlink="http://www.w3.org/1999/xlink" x="0px" y="0px"
	 width="822px" height="567px" viewBox="0 0 822 567" enable-background="new 0 0 822 567" xml:space="preserve">
<path fill="#FFFFFF" stroke="#000000" d="M397.027,128.583c0.7-1.5,6.1,0.6,8.6,1.7c-3.6,0.5-4.399,4.7-4.6,7l0,0l-4.3-4.3l1.7-1
	C398.327,131.982,396.627,129.382,397.027,128.583z"/>
<path fill="#FFFFFF" stroke="#000000" d="M429.627,43.282c0,0,21.7-6,28,1.3c0,0,1.801,2.8,4.601,7.3c3.6,5.9,8.8,14.8,13.399,24.3
	c1.4,2.9,2.7,5.8,4,8.7c3.5,8.3,6.2,16.4,6.7,23c0,0-1.5,6.3-3.399,13.5c-2.301,9-5.2,19.3-6.2,20.4c-0.2-0.6-0.4-0.9-0.4-0.9
	c0-3.7-14.2-6.5-14.2-6.5l0,0c0.101-0.5,1.2-4,1.7-9.2c0,0,0,0,0-0.1c1.3-6,3.101-12.9,4.7-13.8c0,0-2.7-6.7-5.8-15.4
	c-1.101-3.1-2.3-6.4-3.5-9.9c-3.9-11.4-7.4-23.3-7.101-28.3c0.101-1.5,0.5-2.4,1.5-2.4c-23.699,0.7-28.1-1-21.3-3.7v-0.3
	c-2.6,0-4.399-0.6-2.7-2.8v-0.4c-4.3-0.2-1-1.9-1-1.9v-0.3c-0.899-0.1-1.5-0.4-1.399-0.9l-0.2-0.3
	C427.728,44.282,428.627,43.782,429.627,43.282z"/>
<path fill="#FFFFFF" stroke="#000000" d="M410.327,162.583c0,0-17.399-7.8-21-6.5c-0.899-6.2,2.7-9.5,2.7-9.5l0.1-0.1
	c-2.6-2.8-3.5-5.9-3.6-8.5c-0.2-3.1,0.6-5.5,0.6-5.5c-1.1-2.3-2-4.4-2.699-6.4c-7.4-19.6-1.301-28,2.399-32.5
	c1-1.2,1.8-2.1,2.101-2.9h0.699c0,0,26.101-9,48.601-2.1c2.5,0.8,5,1.7,7.399,2.9c1.7,0.8,2.5,1.5,2.5,1.5s-0.5-4.1-1.8-9.5
	c2.2,1.8,4.101,3.7,5.7,5.6c2.4,2.8,4.2,5.7,5.6,8.7c4.801,9.9,5,20.2,4.2,27.3c0,0,0,0,0,0.1c-1,4.6-1.7,8.7-1.7,9.2l0,0
	c-22.5,13-14.5,27.5-14.5,27.5s0,0-0.5,4.5s-9.5,11.5-11,12.5s-13.5,1.5-14.5-4.5s7.5-7.5,7.5-7.5c-7.5,7.5-2,7-2,7
	c16,0,13.5-28.5,13.5-28.5c0.2-0.8,0.301-1.7,0.301-2.8l0,0c0-9.2-7.301-27.7-7.301-27.7c-11.1-0.3-18.8-1.5-24.199-3.3l-0.101,0.3
	c0,0-10.7,8.7-13.3,7.3c0,0-4.3,17.7,6.7,34c0,0,4.6,4.2,10.399,7.6v0.1L410.327,162.583z"/>
<path fill="#FFFFFF" stroke="#000000" d="M467.027,188.982c-5.3,2-12.7-25.3-19.3-27c0,0-8-14.5,14.5-27.5c0,0,14.2,2.8,14.2,6.5
	c0,0.9,0.1,1.2,0.399,0.9c0.7,1.7,2,5.7,2.8,10.6c0.801,5.2,0.9,11.5-1.1,17.5c0,0-0.6,1.8-1.7,4.3
	C474.428,179.482,470.627,187.583,467.027,188.982z"/>
<path fill="#FFFFFF" stroke="#000000" d="M421.027,130.382c1.9-9,11.6-1.1,12-0.7l0,0c-0.7,2.7-11.7,4-11.7,4h-0.7
	C420.627,132.382,420.827,131.282,421.027,130.382z"/>
<path fill="#FFFFFF" stroke="#000000" d="M455.928,246.882c0.3-0.5,0.6-1,0.699-1.6c0.301-1.3,9-36.7,9-36.7l0.301-1.2
	c1.8-4.2,2.5-10.1,1.1-18.4c3.6-1.4,7.5-9.5,9.7-14.7l0,0c0.5,1.8,1,3.6,1.399,5.3c2.301,9.1,3.5,17,3.9,23.9
	c0.5,8.8-0.5,15.8-2.2,21.4C473.327,245.382,456.027,246.982,455.928,246.882L455.928,246.882z"/>
<path fill="#FFFFFF" stroke="#000000" d="M413.027,160.982L413.027,160.982c1.5,0.8,3.1,1.6,4.7,2.2v0.1l2.3,11.5l2.3,11.5
	c0,0,12,3.7,22.7,11.7c0,0,4.7-9.7,7.3-11.3l-5.2-20.2c0.5-4.5,0.5-4.5,0.5-4.5c6.7,1.7,14,29,19.301,27
	c1.5,8.4,0.699,14.3-1.101,18.4l-0.3,1.2c0,0-8.7,35.3-9,36.7c-0.2,0.6-0.4,1.1-0.7,1.6c-5.399,8.2-33.6,1.7-33.6,1.7
	c6.2-8.2-0.4-25.2-0.7-26l0,0c-9.9-5-12.7-18.7-12.7-18.7s14.3-14,1.3-41.3L413.027,160.982z"/>
<path fill="#FFFFFF" stroke="#000000" d="M392.327,462.582c0,0,6.7,36,14,39.301l0,0c0.601,3.699,1.601,4.699,1.601,4.699
	c9,1.301,7.3,4,7.3,4c-1.3,6-15.7,1.301-15.7,1.301l-8.3-7.7c3.3-17.7-3.7-23.7-3.7-23.7l-7.3,11.3l-5.7-2.3l7-13.3
	C381.327,465.982,389.627,462.582,392.327,462.582z"/>
<path fill="#FFFFFF" stroke="#000000" d="M421.027,164.282c0,0,18.7-13.2,20-21.6c0,1.1-0.1,2-0.3,2.8c0,0,2.5,28.5-13.5,28.5
	c0,0-5.5,0.5,2-7c0,0-8.5,1.5-7.5,7.5l-1.7,0.3l-2.3-11.5v-0.1C418.827,163.583,419.928,163.982,421.027,164.282z"/>
<path fill="#FFFFFF" stroke="#000000" d="M424.627,147.982c0,0-3,6.3-4.3,6.7c-1.3,0.3-4.7,1-4.7,1l-5.699-5
	C410.027,150.583,421.327,149.583,424.627,147.982z"/>
<path fill="#FFFFFF" stroke="#000000" d="M364.327,282.982l-12.3,7.7c-3.3-16,5.7-18,5.7-18l0,0c0.5,0,0.899-0.1,1.3-0.1v0.4
	C362.228,272.882,364.327,282.982,364.327,282.982z"/>
<path fill="#FFFFFF" stroke="#000000" d="M403.627,80.583c1.101-4.9,1.801-7.5,5.7-7.3c0.7,0,4.3,2,4.3,2l4-5.7l4.7,5.3
	c0.601-1.1,4.7-3.3,4.7-3.3c8.2-0.5,6,8.7,6,8.7s-0.4-0.1-1.2-0.3C420.327,77.282,403.627,80.583,403.627,80.583z"/>
<path fill="#FFFFFF" stroke="#000000" d="M392.327,462.582c2.3,0,4.5-13.3,5.2-17.199c5,1.199,10.9,1.8,18,1.199
	c-8.5,17-8.5,39.4-8.5,39.4c-1.2,7.9-1.1,12.9-0.6,16l0,0C399.027,498.582,392.327,462.582,392.327,462.582z"/>
<path fill="#FFFFFF" stroke="#000000" d="M401.027,137.282c0.2-2.2,1-6.5,4.6-7c0.2,0,0.5,0,0.7,0c0,0,4,3.3,4.3,7.3l-9.699,1
	C401.027,138.583,400.928,138.083,401.027,137.282z"/>
<path fill="#FFFFFF" stroke="#000000" d="M403.627,80.583c0,0,16.601-3.4,28.101-0.7c0.8,0.2,1.2,0.3,1.2,0.3s2.199-9.1-6-8.7
	c0,0-4,2.3-4.7,3.3l-4.7-5.3l-4,5.7c0,0-3.6-2-4.3-2C405.428,73.183,404.827,75.782,403.627,80.583z M439.527,85.083
	c-17.6-6.6-41.3-0.5-41.3-0.5l-0.4-0.6c3.8-11.6,2.5-15.3,8.4-15c1.1,0.1,6.2,2.7,6.2,2.7l4.8-9.4l5,7.3c1-0.8,1.899-1.4,2.899-1.9
	c3.4-1.8,6.5-1.8,6.5-1.8c9.7,0.7,9.801,19.9,9.801,19.9s-0.101,0-0.301-0.1C440.827,85.583,440.327,85.382,439.527,85.083z"/>
<path fill="#FFFFFF" stroke="#000000" d="M417.327,122.583c12.2-2.3,15.601,6.7,15.7,7c-0.4-0.3-10.1-8.2-12,0.7l-0.3-0.1l-5.7-4.3
	l3-1C418.027,124.982,416.728,122.782,417.327,122.583z"/>
<path fill="#FFFFFF" stroke="#000000" d="M440.327,277.982c0,0-23.7-26-27.7-23.3l-0.199-0.4l9.899-5.6c0,0,28.2,6.5,33.601-1.7l0,0
	c0,0,0.1,1.3,0.399,3c0.5,3.1,1.4,7.7,2.9,9c2.2,1.9,0.5,1.4,0.3,1.3l0,0C459.527,260.282,444.327,267.282,440.327,277.982z"/>
<path fill="#FFFFFF" stroke="#000000" d="M376.627,174.583c6.101,0,10.7-10.3,11.801-15.6c0.199-0.8,0.3-1.5,0.3-2
	c0-0.4,0.2-0.7,0.6-0.8c3.601-1.3,21,6.5,21,6.5c13,27.3-1.3,41.3-1.3,41.3c-10.5-2.4-17.7-5.5-22.7-8.8l0,0
	c-4.1-2.7-6.6-5.5-8.1-8.2C374.327,180.282,376.627,174.583,376.627,174.583z"/>
<path fill="#FFFFFF" stroke="#000000" d="M369.327,91.282c0,0-2-6.7-0.3,1.3c0.4,2,0.5,6.2,0.5,11.4c-0.1,9.7-0.7,22.8-1.3,31.5l0,0
	c-0.3,5.6-0.601,9.4-0.601,9.4c0.9,0.3,2.2,1.1,3.801,2.1c2,1.2,4.3,2.8,6.6,4.4c5.2,3.7,10.3,7.5,10.3,7.5h0.101
	c-1.101,5.3-5.7,15.6-11.801,15.6c-7.5-4.5-12.699-8.5-16.3-12c-2.7-2.6-4.6-4.9-5.8-6.7c-2.4-3.6-2.5-5.6-2.5-5.6
	c-0.4-2.3-0.6-4.7-0.7-7.1c-0.399-10.2,1.3-21.4,3.601-31.4c3.8-16.3,9-29.2,9-29.2l8.699-11.3c11.7-10,13.7-3,13.7-3v0.1
	c4-0.5,2.8,3.1,2.4,4c6.3-0.9,1.899,3.1,0.6,4.2c2.601-0.3,4.8-0.2,4.601,1c0,0.1,0,0.2-0.101,0.3c-0.899,2.6-10.899,4.8-10.899,4.8
	C382.027,85.982,369.327,91.282,369.327,91.282z"/>
<path fill="#FFFFFF" stroke="#000000" d="M505.327,414.582c0,0,2.7-7,8.601-11.6c-0.4,11.1-1.601,21-1.601,21
	S506.027,417.282,505.327,414.582z"/>
<path fill="#FFFFFF" stroke="#000000" d="M454.327,492.282c0,0,11.2,33.5,25.7,34l5.7,15c0.5,1.3,0.7,2.2,0.7,3c0,1.7-1,2-1,2
	c-4.301,2.7-17.7-10.7-18.301-12c-0.699-1.3-8.699-16.3-8.699-16.3l0.3,10h-3.3l-4.301-1c0,0,0-1.3,0.301-6
	c0.3-4.7-3-17.3-3.301-19.7c-0.3-1.8,4.2-4.7,6.101-9.1L454.327,492.282z"/>
<path fill="#FFFFFF" stroke="#000000" d="M429.027,59.982c4.5-0.5,8.1,1.5,10.9,4.8c4.3,4.9,6.899,12.6,8.399,18.7
	c1.3,5.3,1.8,9.5,1.8,9.5s-0.8-0.7-2.5-1.5c-2.399-1.2-4.8-2.1-7.399-2.9l0.899-2.8c0.2,0.1,0.301,0.1,0.301,0.1
	s-0.101-19.3-9.801-19.9c0,0-3,0-6.5,1.8l-1.5-2.4C424.027,60.583,429.027,59.982,429.027,59.982z"/>
<path fill="#FFFFFF" stroke="#000000" d="M422.327,186.282l-2.3-11.5l1.7-0.3c1,6,13,5.5,14.5,4.5s10.5-8,11-12.5l5.2,20.2
	c-2.7,1.7-7.301,11.3-7.301,11.3C434.327,189.982,422.327,186.282,422.327,186.282z"/>
<path fill="#FFFFFF" stroke="#000000" d="M386.327,195.083c4.9,3.3,12.2,6.4,22.7,8.8c0,0,2.8,13.7,12.7,18.7l0,0
	c0.3,0.7,6.899,17.8,0.7,26l-9.9,5.6l-2.4,1.4c-3.5-1.8-6.5-4.1-9.1-6.9c-6.2-6.6-9.8-15.6-11.8-24.4c0-0.2-0.101-0.4-0.101-0.6
	c-0.899-4-1.5-7.9-1.899-11.5C385.928,203.282,386.228,196.282,386.327,195.083z"/>
<path fill="#FFFFFF" stroke="#000000" d="M440.327,88.583c-22.6-6.9-48.6,2.1-48.6,2.1h-0.7c0.2-0.4,0.3-0.8,0.2-1.1
	c1.5-4.4,2.6-8.1,3.6-11.4c3.5-11.8,4.3-16.3,10.601-15.8c1.5,0.1,5.699,5,5.699,5l6.301-17.3l6.3,15.3l1.5,2.4
	c-0.9,0.5-1.9,1.1-2.9,1.9l-5-7.3l-4.8,9.4c0,0-5.1-2.6-6.2-2.7c-5.899-0.3-4.7,3.3-8.399,15l0.399,0.6c0,0,23.7-6.1,41.3,0.5
	c0.801,0.3,1.301,0.5,1.601,0.7L440.327,88.583z"/>
<path fill="#FFFFFF" stroke="#000000" d="M449.027,437.282c0,0,5.2,1.7,12.4,4.7l11.6,65.6l7,18.7c-14.5-0.5-25.7-34-25.7-34
	l-0.2-0.1c0.5-1.2,0.9-2.5,0.9-3.9c0-0.399,0-0.8-0.1-1.399c-1.4-9.601-14.2-45.9-14.2-45.9l-0.101-0.3
	C443.228,439.683,446.027,438.582,449.027,437.282z"/>
<path fill="#FFFFFF" stroke="#000000" d="M421.027,130.382c-0.2,0.9-0.3,2-0.3,3.3h0.7c0,0,11-1.3,11.699-4l0,0
	c-0.1-0.3-3.5-9.3-15.699-7c-0.601,0.1,0.699,2.3,0.699,2.3l-3,1l5.7,4.3L421.027,130.382z M397.027,128.583
	c-0.3,0.8,1.3,3.3,1.3,3.3l-1.7,1l4.301,4.3l0,0c-0.101,0.8,0,1.3,0,1.3l9.699-1c-0.3-4-4.3-7.3-4.3-7.3c-0.3,0-0.5,0-0.7,0
	C403.027,129.282,397.627,127.083,397.027,128.583z M402.627,153.282c-11-16.3-6.699-34-6.699-34c2.699,1.3,13.3-7.3,13.3-7.3
	l0.1-0.3c5.4,1.7,13.101,3,24.2,3.3c0,0,7.2,18.5,7.3,27.7l0,0c-1.2,8.4-20,21.6-20,21.6c-1.1-0.3-2.2-0.7-3.3-1.1
	c-1.6-0.7-3.2-1.5-4.7-2.3C407.228,157.482,402.627,153.282,402.627,153.282z M420.327,154.583c1.3-0.3,4.3-6.7,4.3-6.7
	c-3.3,1.7-14.699,2.7-14.699,2.7l5.699,5C415.627,155.583,419.027,154.982,420.327,154.583z"/>
<path fill="#FFFFFF" stroke="#000000" d="M590.627,345.982c2.7,0.7-0.699,3.9-6.3,7.9c-11.3,8.1-32,19.399-32,19.399l-0.1,0.101
	c-7.601-5.7-18.8-12.801-32.601-18.5c0,0-35.699-26-33-44.7c12-3,11.7-18,11.7-18s8.2,5.3,19.7,12.6c13.3,8.4,31.2,19.4,46.1,27.9
	C576.027,339.582,586.127,344.883,590.627,345.982z"/>
<path fill="#FFFFFF" stroke="#000000" d="M384.327,310.282c26-11.3,32,3.3,32,3.3c18.3,25.301,24.3,20.301,24.3,20.301
	c-6.3,38,8.301,103.3,8.301,103.3c-2.9,1.3-5.7,2.399-8.4,3.399c-9.6,3.5-17.9,5.301-25.1,5.9c-7.101,0.6-13,0-18-1.2
	c-16.4-4-22.2-15.101-22.2-15.101c-32.7-46.699-40-40.299-40-40.299S372.627,338.982,384.327,310.282z"/>
<path fill="#FFFFFF" stroke="#000000" d="M468.027,316.383c4.7-11.5,18.7-6.101,18.7-6.101c-2.7,18.7,33,44.7,33,44.7
	c13.8,5.6,24.899,12.8,32.6,18.5c7.3,5.5,11.4,9.5,11.4,9.5c-9.3,23-36,16-36,16c-5.7-0.7-10.2,1.3-13.7,4
	c-5.9,4.7-8.6,11.6-8.6,11.6S466.027,355.082,468.027,316.383z"/>
<path fill="#FFFFFF" stroke="#000000" d="M440.627,333.982c3,3.3,27-16.7,27-16.7c0.101-0.3,0.2-0.6,0.301-0.899
	c-1.9,38.699,37.3,98.199,37.3,98.199c0.7,2.7,7,9.301,7,9.301c-5.3,31-37,24.3-37,24.3c-4.9-2.5-9.8-4.601-13.9-6.3
	c-7.2-3-12.399-4.7-12.399-4.7S434.327,371.982,440.627,333.982z"/>
<path fill="#FFFFFF" stroke="#000000" d="M384.327,310.282c0,0-6.7,3-20-27.3c0,0-2.1-10.1-5.2-10.1v-0.4
	c9.301-0.9,12.5-0.9,17.9-0.9c5.7,0,33-16,33-16l2.4-1.4l0.199,0.4c4-2.7,27.7,23.3,27.7,23.3c4-10.7,19.3-17.7,19.3-17.7l0,0
	c0.101,0.2,3.801,7.4,9.4,14.9c7.5,10.1,18.6,21,29.2,17.1c0,0,0.3,15-11.7,18c0,0-14-5.4-18.7,6.1c-0.1,0.3-0.2,0.601-0.3,0.9
	c0,0-24,20-27,16.7c0,0-6,5-24.3-20.301C416.327,313.582,410.327,298.982,384.327,310.282z"/>
<path fill="#FFFFFF" stroke="#000000" d="M364.327,282.982c13.3,30.3,20,27.3,20,27.3c-11.7,28.7-49,79.7-49,79.7
	c-22.3,16-42,3-42,3c-11.6-9.6-23.9-41.3-29.5-57.1c-2-5.601-3.1-9.2-3.1-9.2c17.4,3.7,33.4,0.8,47-4.601
	c16.1-6.399,28.8-16.399,36.5-23.399c5.1-4.7,7.899-8,7.899-8L364.327,282.982z"/>
<path fill="none" stroke="#000000" d="M397.627,98.482c0,0-2.1,8.5,12.101,13.3"/>
<path fill="none" stroke="#000000" d="M410.627,137.583c-0.3,2.1-0.899,7.3,1,7.3c3,0,7.301-2.3,7.301-2.3"/>
<path fill="none" stroke="#000000" d="M417.327,120.982c0,0,8-6,14-1.3"/>
<path fill="none" stroke="#000000" d="M406.327,125.282c0,0-8-0.3-9.7,2.7"/>
<path fill="none" stroke="#000000" d="M421.627,222.683c4.9,2.5,11.7,2.8,20.7-2"/>
<path fill="none" stroke="#000000" d="M453.327,217.282c0,0,8.7-0.6,12.601-9.9"/>
<path fill="none" stroke="#000000" d="M389.327,76.683c-3,0.4-7,1.3-7,1.3"/>
<path fill="none" stroke="#000000" d="M388.728,72.382c-1.9,0.4-5.601,1.3-9.4,2.5"/>
<path fill="none" stroke="#000000" d="M385.728,68.583c0.899,0-3.3,0.8-8.4,3.7"/>
<line fill="none" stroke="#000000" stroke-width="0.25" x1="410.027" y1="275.282" x2="388.027" y2="299.282"/>
<line fill="none" stroke="#000000" stroke-width="0.25" x1="440.327" y1="282.583" x2="440.027" y2="317.282"/>
<path fill="none" stroke="#000000" d="M440.627,44.583c0,0-8.1,1.4-12,1.4"/>
<path fill="none" stroke="#000000" d="M429.627,48.282c2.101,0,6.4-0.2,12-0.9"/>
<path fill="none" stroke="#000000" d="M441.027,50.282c0,0-5.1,1.1-8.7,1.1"/>
<path fill="none" stroke="#000000" stroke-width="3" stroke-linecap="round" stroke-linejoin="round" d="M406.327,134.782
	c0,0.5-0.399,0.8-0.8,0.8s-0.8-0.4-0.8-0.8"/>
<path fill="none" stroke="#000000" stroke-width="3" stroke-linecap="round" stroke-linejoin="round" d="M425.627,128.982
	c0.5,0,1,0.5,1,1s-0.5,1-1,1"/>
</svg>
