<?xml version="1.0" encoding="utf-8"?>
<!-- Generator: Adobe Illustrator 15.0.0, SVG Export Plug-In . SVG Version: 6.00 Build 0)  -->
<!DOCTYPE svg PUBLIC "-//W3C//DTD SVG 1.1//EN" "http://www.w3.org/Graphics/SVG/1.1/DTD/svg11.dtd">
<svg version="1.1" id="layer_x5F_www.ABC-color.com"
	 xmlns="http://www.w3.org/2000/svg" xmlns:xlink="http://www.w3.org/1999/xlink" x="0px" y="0px" width="567px" height="822px"
	 viewBox="0 0 567 822" enable-background="new 0 0 567 822" xml:space="preserve">
<path fill="#FFFFFF" stroke="#000000" d="M221,168.2c3.2,0.3,6.7-0.5,9.7,0.4C228.5,170.4,222.6,170.8,221,168.2z"/>
<path fill="#FFFFFF" stroke="#000000" d="M216.2,166.6c5.9-3,14.2-1.8,20.5,0.3c-2.3,5.3-7.4,8.7-13.3,8.5
	C220,174.5,218.5,169.5,216.2,166.6z M230.7,168.6c-3-0.9-6.5-0.2-9.7-0.4C222.6,170.8,228.5,170.4,230.7,168.6z"/>
<path fill="#FFFFFF" stroke="#000000" d="M223.2,156.2c1,0.3,1.2,1.4,1.2,2.8c-0.8,0-2,0.2-2.8,0.2
	C221.8,157.6,223.2,157.3,223.2,156.2z"/>
<path id="layer_x5F_www.ABC-color.com_1_" fill="#FFFFFF" stroke="#000000" d="M230,158.4c-0.2,1.4-1.2,0.2-3,0c0-0.8,0-1.6,0-2.4
	C229.4,156,229.4,156.6,230,158.4z"/>
<path fill="#FFFFFF" stroke="#000000" d="M249.2,138.9c0-1.5-1.4-2.7-3.2-2.7V136c2.8,0,5.8-0.3,7.8,1.6c-1.1,2.5-3.8,3.6-6.8,3.9
	C248.3,141.1,249.2,140.1,249.2,138.9z"/>
<path fill="#FFFFFF" stroke="#000000" d="M246,136.2c1.8,0,3.2,1.2,3.2,2.7c0,1.2-0.9,2.2-2.2,2.6c-0.6,0.1-1.2,0.1-1.8,0.1
	c-1.4-0.3-2.4-1.3-2.4-2.6C242.8,137.4,244.2,136.2,246,136.2z"/>
<path fill="#FFFFFF" stroke="#000000" d="M245.4,136c0.2,0,0.4,0,0.6,0v0.2c-1.8,0-3.2,1.2-3.2,2.7c0,1.3,1,2.3,2.4,2.6
	c-2.9,0-5.8-0.7-7.6-1.5C240,137.2,241.8,136,245.4,136z"/>
<path fill="#FFFFFF" stroke="#000000" d="M209,137.6c3.6,0,5.4,1.2,7.8,4c-1.8,0.8-4.7,1.5-7.6,1.5c1.4-0.3,2.4-1.4,2.4-2.6
	c0-1.5-1.4-2.7-3.2-2.7v-0.2C208.6,137.6,208.8,137.6,209,137.6z"/>
<path fill="#FFFFFF" stroke="#000000" d="M208.4,137.8c1.8,0,3.2,1.2,3.2,2.7c0,1.3-1,2.3-2.4,2.6c-0.6,0-1.2,0-1.8-0.1
	c-1.3-0.4-2.2-1.4-2.2-2.5C205.2,139,206.6,137.8,208.4,137.8z"/>
<path fill="#FFFFFF" stroke="#000000" d="M208.4,137.8c-1.8,0-3.2,1.2-3.2,2.7c0,1.2,0.9,2.2,2.2,2.5c-3-0.3-5.6-1.3-6.8-3.8
	c2-1.9,5-1.6,7.8-1.6V137.8z"/>
<path fill="#FFFFFF" stroke="#000000" d="M411,121.5l1.2,0.3c-2.2-0.3-8.5-0.7-9.102-0.7c-10.5,1-12.1-0.6-12.1-0.6s-14-7-11-14
	c5.4,0,12.5,0,18.2,0c0.6,1.7,1.3,3.3,2.2,4.8c0.198,0.4,0.398,0.8,0.698,1.3C403,117.5,407,119.5,411,121.5z"/>
<path fill="#FFFFFF" stroke="#000000" d="M398.2,106.5c-5.7,0-12.7,0-18.2,0c0,0-9-2-5-10c7.6,0,15.3,0,22.9,0
	C396.8,99.9,397,103.3,398.2,106.5z"/>
<path fill="#FFFFFF" stroke="#000000" d="M415.5,82c0,0.9,0,1.7,0,2.5C410.9,85,408,86,408,86c-5.7,3.2-8.8,6.8-10.1,10.5
	c-7.602,0-15.302,0-22.9,0c0,0-11-8-7-14C383.3,82.5,400.1,82,415.5,82z"/>
<path fill="#FFFFFF" stroke="#000000" d="M363,62.5c0,0,23.1,1.5,52.5,2.9c0,5.2,0,11.1,0,16.6c-15.4,0-32.2,0.5-47.5,0.5
	C368,82.5,353.7,63.9,363,62.5z"/>
<path fill="#FFFFFF" stroke="#000000" d="M416,53.5v-12h119l1,24c-12.2,4.3-73.8,2.2-120,0V65V53.5z"/>
<polygon fill="#FFFFFF" stroke="#000000" points="533,0.5 535,41.5 416,41.5 415,0.5 "/>
<polygon fill="#FFFFFF" stroke="#000000" points="567,0.5 567,78.5 535,41.5 533,0.5 "/>
<polygon fill="#FFFFFF" stroke="#000000" points="567,78.5 567,101 557,89.5 537.5,67.2 536,65.5 535,41.5 "/>
<path fill="#FFFFFF" stroke="#000000" d="M557,89.5l1,19l-22-18.2c0-6.8,0-17.6,0-24.8l1.5,1.7L557,89.5z"/>
<path fill="#FFFFFF" stroke="#000000" d="M536,90.3l22,18.2c0,7.9-0.7,12.3-4.1,16.4c-1.5,1.8-3.602,3.6-6.4,5.6c-6.8,4.9-7,3-16,8
	c-4.5,1.9-15.4,5.6-20.9,11.1l0,0c0.7-8.6,2.602-16.7,7.5-22.1c7.302-5.5,8.802-4.3,16-11c6.7-6.2,9.302-15.2,2-25.6
	C536,90.7,536,90.5,536,90.3z"/>
<path fill="#FFFFFF" stroke="#000000" d="M415.5,82c0-5.4,0-11.4,0-16.6c0.2,0,0.3,0,0.5,0c46.3,2.3,107.8,4.3,120,0
	c0,7.3,0,18,0,24.8l-1-0.8c-42.5-20.5-64.5,35-64.5,35c-12.7-39.6-41.3-41.5-55-40C415.5,83.7,415.5,82.9,415.5,82z M491.5,86.5
	c-7-7-16-0.5-16-0.5c0-5.5-4-12.5-4-12.5c-6,2-4.5,14-4.5,14c-7.5-6.5-17.5-0.5-17.5-0.5c16.5,7,21.5,25,21.5,25
	C477,95.5,491.5,86.5,491.5,86.5z"/>
<path fill="#FFFFFF" stroke="#000000" d="M475.5,86c0,0,9-6.5,16,0.5c0,0-14.5,9-20.5,25.5c0,0-5-18-21.5-25c0,0,10-6,17.5,0.5
	c0,0-1.5-12,4.5-14C471.5,73.5,475.5,80.5,475.5,86z"/>
<path fill="#FFFFFF" stroke="#000000" d="M471.3,168.7c0,0,0.2-0.3,0.5-0.7c2.2-3.3,11.5-16.4,20.2-16
	C492,152,490.5,163.5,471.3,168.7z"/>
<path fill="#FFFFFF" stroke="#000000" d="M471.3,168.7c-28.8-5.2-19.8-16.7-19.8-16.7c6.3,2,14.8,11.1,18.3,15
	c0.102,0.1,0.102,0.1,0.2,0.2c0.4,0.5,0.8,0.9,1.2,1.4L471.3,168.7L471.3,168.7z"/>
<path fill="#FFFFFF" stroke="#000000" d="M471.8,168c-0.3,0.5-0.5,0.7-0.5,0.7l0,0l-0.1-0.1c-0.2-0.2-0.602-0.7-1.2-1.4
	c-0.1-0.1-0.1-0.1-0.2-0.2c-12.3-15,0.2-22.5,0.2-22.5C484.8,145.8,474.2,164.1,471.8,168z"/>
<path fill="#FFFFFF" stroke="#000000" d="M471.3,168.7L471.3,168.7C490.5,163.5,492,152,492,152c-8.8-0.4-18.1,12.8-20.2,16
	c2.4-3.9,13-22.2-1.8-23.5c0,0-12.5,7.4-0.2,22.5c-3.398-3.9-12-13-18.3-15C451.5,152,442.5,163.5,471.3,168.7z M536,90.9
	c7.3,10.4,4.7,19.4-2,25.6c-7.2,6.7-8.8,5.5-16,11c-4.9,5.5-6.8,13.6-7.5,22.1c-0.7,9.1,0,18.7,0,26.4v0.4l-72.5-2.2
	c0.1-3.9,0.9-45.8-25.8-52.5l-1.2-0.3c-4-2-8-4-10-8.9c-0.2-0.5-0.5-0.9-0.7-1.3c-0.898-1.5-1.7-3.1-2.2-4.8
	c-1.1-3.2-1.398-6.6-0.198-10c1.3-3.7,4.3-7.3,10.1-10.5c0,0,2.9-0.9,7.5-1.5c13.7-1.6,42.3,0.3,55,40c0,0,22-55.5,64.5-35
	C535.4,90,535.7,90.4,536,90.9z"/>
<path fill="#FFFFFF" stroke="#000000" d="M224.4,159c0-1.4-0.2-2.5-1.2-2.8c0,1.1-1.4,1.4-1.6,3C222.4,159.2,223.6,159,224.4,159z
	 M256.6,171c-1.2,1.1-2.4,2.2-3.7,3.2c-9.2,7.2-21.3,11.6-32.7,7.6c-8.3-4.7-14.3-12.8-20-20c-12.6-22.4-0.7-52.8,24-60.8
	c14.1,14.1,41.8,26.3,40,49.6c4-1.3,2.2-7.6,8.3-10.1c2.9-0.5,4.8,3.6,4.5,6.1C276,155.3,262.2,161.5,256.6,171z M227,158.4
	c1.8,0.2,2.8,1.4,3,0c-0.6-1.8-0.6-2.4-3-2.4C227,156.8,227,157.6,227,158.4z M253.8,137.6c-2-1.9-5-1.6-7.8-1.6c-0.2,0-0.4,0-0.6,0
	c-3.6,0-5.4,1.2-7.8,4c1.9,0.8,4.7,1.5,7.6,1.5c0.3,0.1,0.5,0.1,0.8,0.1c0.4,0,0.7-0.1,1-0.1C250,141.2,252.7,140.1,253.8,137.6z
	 M236.7,166.9c-6.3-2.1-14.6-3.2-20.5-0.3c2.3,2.9,3.8,7.9,7.2,8.7C229.3,175.5,234.4,172.1,236.7,166.9z M216.8,141.6
	c-2.4-2.8-4.2-4-7.8-4c-0.2,0-0.4,0-0.6,0c-2.8,0-5.8-0.3-7.8,1.6c1.1,2.5,3.8,3.6,6.8,3.8c0.3,0.1,0.7,0.2,1,0.2
	c0.3,0,0.6,0,0.8-0.1C212.1,143.1,215,142.4,216.8,141.6z"/>
<path fill="#FFFFFF" stroke="#000000" d="M302.7,208.7c-1.9-2.9-5.7-7.1-15.5-8.9c-28.5-5.2-33.7-22.2-34.3-25.6
	c1.3-1,2.5-2.1,3.7-3.2c5.6-9.5,19.4-15.7,20.4-24.4c0.3-2.6-1.7-6.6-4.5-6.1c-6.1,2.5-4.2,8.8-8.3,10.1c1.8-23.3-25.9-35.5-40-49.6
	c-24.7,8-36.6,38.4-24,60.8c5.7,7.2,11.7,15.3,20,20c0,0.3,0,0.5,0,0.8c0,0.8,0.4,1.3,0.6,1.8c-0.1,4-0.3,4.9-1.8,6.6
	c-18,18-24,15.5-34,19.5c-2.7,1.1-4.7,2.6-6.3,4.4l0,0c5.3-12.7,4.9-50,4-60c-2-22-2.5-39,1.7-48.2c11.4-24.9,26.7-38.4,60.3-36.4
	C290,72.8,292.7,166,302.7,208.7z"/>
<path fill="#FFFFFF" stroke="#000000" d="M301.9,338.6c-3.7-3.2-7.2-6-10.4-8.1c0,0-14.5-9-5-29.5c1-2.2,8.5-32,10.2-38.7
	c0,0,10,24.5,10.7,38.5c0.698,14,8.698,50.3,8.698,50.3c0.102,0.4,0.102,0.8,0.2,1.2C311.3,347.3,306.5,342.6,301.9,338.6z"/>
<path fill="#FFFFFF" stroke="#000000" d="M176.3,312.8c0.7-14,11.7-39,11.7-39l0.1-0.1l0.9,1.7l13,29.5c0,0,10,22.5-0.5,31.5
	c0,0-1.8,2.1-5.1,6.5c-5.3,7.1-14.7,20.2-26.9,40.2v-28.8C171.9,342.7,175.9,322.5,176.3,312.8z"/>
<path fill="#FFFFFF" stroke="#000000" d="M286.8,350.2c-9.6,6.1-18.8,9.7-27.5,11.4c-6.6,1.3-12.9,1.6-18.8,1
	c-11.3-1-20.9-4.6-28.3-8.6c-10-5.3-15.7-11-15.7-11h-0.1c3.3-4.4,5.1-6.5,5.1-6.5c10.5-9,0.5-31.5,0.5-31.5l-13-29.5l-0.9-1.7
	L179,255c-2-7.5,0-13,0-13c14-15,62.5,13.5,62.5,13.5C255,239,294,232,299,239.5s-2,21.5-2,21.5s-0.1,0.5-0.3,1.3
	c-1.7,6.7-9.2,36.5-10.2,38.7c-9.5,20.5,5,29.5,5,29.5c3.2,2.1,6.7,4.9,10.4,8.1C296.8,343.2,291.7,347,286.8,350.2z"/>
<path fill="#FFFFFF" stroke="#000000" d="M170,241.1c1.8-5.9,3.1-11.7,3.9-17.3c0.6-2.1,1.9-5.8,4.8-9c1.6-1.7,3.6-3.3,6.3-4.4
	c10-4,16-1.5,34-19.5c1.5-1.7,1.7-2.6,1.8-6.6c-0.3-0.5-0.6-0.9-0.6-1.8c0-0.3,0-0.5,0-0.8c11.4,4,23.4-0.4,32.7-7.6
	c0.6,3.5,5.8,20.4,34.3,25.6c9.8,1.8,13.6,6,15.5,8.9l0,0c0.6,0.9,1,1.6,1.3,2.1c3.2,24.4,25,53.9,27.4,84.1
	c0.5,6.7,0.5,14.7,0.8,21.6c0.5,11.2-1.8,26.1,1.6,34.4c3.5,8.7,13.7,10.1,20.5,15.2c8.4,6.3,11.9,13.2,11.9,23.8
	c0,0-0.8,2-2.602,0.7l-0.398-0.1c-0.102,0.8-0.3,1.6-0.5,2.4c-0.2,0.6-1.9,1.6-2,1.2c-0.102-1-0.2-2.1-0.3-3.1
	c-0.7,1.1-2.302,3.1-3.602-1.4c-0.1,1.2-0.3,2.4-0.7,3.5c-0.698-0.1-1.398-0.1-2.1-0.7c-3.2-9.5-6.9-11.6-13.8-13.8
	c-1.5-0.5-3.2-1-5.102-1.6c-0.898,4.6,5.2,6.9,1,10c-0.8,0.3-0.699,3.3-8.699-8c-0.399-0.4-2-6.8-2.699-7c-2.5-11-6.7-9.5-8.5-19.9
	c-0.102-0.4-0.102-0.8-0.2-1.2c0,0-8-36.3-8.7-50.3S296.6,262,296.6,262c0.2-0.9,0.301-1.3,0.301-1.3s7-14,2-21.5s-44-0.5-57.5,16
	c0,0-48.5-28.5-62.5-13.5c0,0-2,5.5,0,13l9.1,18.8l-0.1,0.1c0,0-11,25-11.7,39c-0.5,9.7-4.4,29.9-6.8,41.5c-1.1,5.2-1.9,8.7-1.9,8.7
	c-1.6,11.7-6.1,9.7-8.6,21.1c-0.6,0.2-2.2,6.6-2.7,7c-8,11.3-7.9,8.3-8.7,8c-4.2-3.101,1.9-5.4,1-10c-10.3,3.3-15,3.7-19,15.4
	c-0.7,0.601-1.4,0.601-2.1,0.7c-0.4-1.1-0.6-2.3-0.6-3.5c-1,6.5-3,3-3.7,1.5c-0.1,1-0.1,2-0.3,3c-0.1,0.5-1.9-0.6-2-1.2
	c-0.2-0.899-0.4-1.7-0.5-2.5h-0.2c-2,1.7-2.8-0.5-2.8-0.5c0.1-10.6,3.5-17.5,11.9-23.8c6.8-5.1,16.9-6.6,20.4-15.2
	c3.4-8.3,1.1-23.2,1.6-34.4c0.3-6.9,0.3-14.9,0.8-21.6C154.1,283.6,164.1,261.3,170,241.1z"/>
<path fill="#FFFFFF" stroke="#000000" d="M20.9,749.5c-1.9-2.6-2.4-6-2.4-6c29.7-98.3,59.7-176,86.5-236
	c25.2-56.1,47.6-96.8,64.5-124.4c12.3-20,21.6-33.1,26.9-40.2h0.1c0,0,5.8,5.7,15.7,11L103.5,784.5c-12,8-18-8.5-18-8.5
	c-18,7-19.5-9.8-19.5-9.8c-12.7,6.7-15-8.7-15-8.7l-7,0.5c0,0-10,1-11-7.8c-0.1-0.5-1,0.1-1.5,0.3C26,753.7,22.8,752,20.9,749.5z"/>
<path fill="#FFFFFF" stroke="#000000" d="M240.5,362.6v0.4l-48,438.5c-18,16-28,2-28,2c-14,4-20-8-20-8c-16,10-23-3-23-3
	c-13,3-18-8-18-8L212.2,354C219.6,357.9,229.3,361.6,240.5,362.6z"/>
<path fill="#FFFFFF" stroke="#000000" d="M0.5,748.5l20.4,1c1.9,2.5,5.1,4.3,10.6,1c0.4-0.3,1.4-0.9,1.5-0.3c1,8.8,11,7.8,11,7.8
	l7-0.5c0,0,2.3,15.3,15,8.7c0,0,1.5,16.8,19.5,9.8c0,0,6,16.5,18,8.5c0,0,5,11,18,8c0,0,7,13,23,3c0,0,6,12,20,8c0,0,10,14,28-2
	c0,0,30,32,46,2c0,0,40,27,50-4c0,0,26,30,45-10c0,0,15,15,27-2c0,0,18.5,14.5,29.4-6c0.198-0.4,0-0.9-0.2-1.3
	c2.6,5.7,19.3,9.8,20.898-4.5c0.102-1.102,1.7-1.2,1.9-1c6.7,5.6,14.2,6.1,18.1,3.5c4.7,0.5,5-8.602,9.102-9.9
	c0.6-0.2,1.3-1,1.898-0.7c18.9,9.4,17.602-5.1,26.102-8c0.5-0.198,1.1-0.8,1.5-0.5c19.8,10.9,19.6-8.1,24-12.3
	c0.5-0.398,0.898-0.898,1.2-1.3c0,0,25.698,17.6,38.1-8.2l0.4,0.2h25h9.1v85"/>
<path fill="#FFFFFF" stroke="#000000" d="M286.8,350.2l207.7,395.3c-0.4,0.4-0.8,0.9-1.2,1.3c-4.398,4.2-4.3,23.2-24,12.3
	c-0.5-0.3-1,0.4-1.5,0.5c-8.398,2.9-7.2,17.4-26.1,8c-0.602-0.3-1.3,0.4-1.9,0.7c-4,1.3-4.398,10.5-9.1,9.9
	c-3.9,2.6-11.4,2.2-18.102-3.5c-0.198-0.2-1.8-0.102-1.898,1c-1.602,14.2-18.3,10.1-20.9,4.5l0,0c-0.1-0.102-0.1-0.3-0.2-0.4
	c0-0.1,0-0.1-0.1-0.2l-130.2-418C268,359.8,277.2,356.3,286.8,350.2z"/>
<path fill="#FFFFFF" stroke="#000000" d="M393,448.9c17.6,25.1,35.4,51.898,52.2,78.1c26.5,41.3,50.8,81.3,68.8,111.6
	c19.2,32.302,31.3,53.602,31.3,53.602c21.7,34.3-7.8,28.3-7.8,28.3c-1.1,7-2.8,12.5-4.9,16.8c-12.398,25.8-38.1,8.2-38.1,8.2
	L286.8,350.2c4.9-3.1,10-7,15.101-11.6c4.601,4,9.399,8.7,14.399,13.7c1.8,10.3,6,8.9,8.5,19.9c0.602,0.2,2.2,6.6,2.7,7
	c8,11.3,7.9,8.3,8.7,8c4.2-3.1-1.9-5.4-1-10c1.898,0.6,3.6,1.1,5.1,1.6C356.8,398.8,374.8,423,393,448.9z"/>
<path fill="#FFFFFF" stroke="#000000" d="M514,638.6l-4-440.1h0.5l45.5,1l2,538h-25l-0.4-0.2c2.102-4.3,3.802-9.8,4.9-16.8
	c0,0,29.5,6,7.8-28.3C545.3,692.2,533.3,670.9,514,638.6z"/>
<path fill="#FFFFFF" stroke="#000000" d="M514,638.6c-18-30.3-42.3-70.3-68.8-111.6l0.8-0.5L438,195c75.1,0.2,70,0,72,0.5v3
	L514,638.6z"/>
<path fill="#FFFFFF" stroke="#000000" d="M393,448.9l-2-328.4c0,0,1.5,1.5,12.1,0.6c0.5,0,6.9,0.4,9.102,0.7
	c26.7,6.7,26,48.5,25.8,52.5l-7-0.2l7,21l8,331.5l-0.8,0.5C428.3,500.8,410.6,474,393,448.9z"/>
<path fill="#FFFFFF" stroke="#000000" d="M175,96l9,0.5V88l7.7-0.3V77.5h1.3h7l0.5-9h9.5l1-9.5l152,3.5c-9.3,1.4,5,20,5,20
	c-4,6,7,14,7,14c-4,8,5,10,5,10c-3,7,11,14,11,14l2,328.4C374.8,423,356.8,398.8,340.1,378.8C347,381,350.7,383,353.9,392.6
	c0.698,0.6,1.398,0.6,2.1,0.7c0.4-1.1,0.6-2.3,0.7-3.5c1.3,4.4,3,2.4,3.6,1.4c0.102,1.1,0.2,2.1,0.3,3.1c0.102,0.5,1.802-0.6,2-1.2
	c0.2-0.8,0.4-1.6,0.5-2.4l0.4,0.1c1.8,1.4,2.6-0.7,2.6-0.7c-0.1-10.6-3.5-17.5-11.898-23.8c-6.8-5.1-16.9-6.6-20.5-15.2
	c-3.4-8.3-1.102-23.2-1.602-34.4c-0.3-6.9-0.3-14.9-0.8-21.6c-2.398-30.3-24.2-59.8-27.399-84.1c-0.301-0.5-0.801-1.3-1.301-2.1l0,0
	c-10-42.7-12.699-135.9-58-138.5c-33.6-2-48.9,11.5-60.3,36.4c-4.2,9.2-3.7,26.2-1.7,48.2c0.9,10,1.3,47.3-4,60l0,0
	c-2.9,3.2-4.3,6.9-4.8,9c-0.7,5.5-2.1,11.3-3.9,17.3l-1.5-137.6V103h4l-0.5-7l0,0H175z"/>
<path fill="#FFFFFF" stroke="#000000" d="M567,101v636.5h-9l-2-538c0,0,7-1,6-17l-6.5,0.1v-0.1L554,125l-0.1-0.1
	c3.398-4.1,4.1-8.5,4.1-16.4l-1-19L567,101z"/>
<path fill="#FFFFFF" stroke="#000000" d="M562,182.5c1,16-6,17-6,17l-45.5-1H510v-3l2.7-12.6l0.3,0.1l42.5-0.4L562,182.5z"/>
<path fill="#FFFFFF" stroke="#000000" d="M555.5,182.5L555.5,182.5L513,183l-0.3-0.1l1.3-6.4l-3.5-0.1V176c0-7.6-0.7-17.3,0-26.4
	l0,0c5.5-5.5,16.5-9.2,20.9-11.1c9-5,9.198-3.1,16-8c2.8-2,4.8-3.8,6.398-5.6l0.102,0.1L555.5,182.5z"/>
<path fill="#FFFFFF" stroke="#000000" d="M438,174.2l72.5,2.2l3.5,0.1l-1.3,6.4l-2.7,12.6c-2-0.5,3.1-0.3-72-0.5l-7-21L438,174.2z"
	/>
<path fill="#FFFFFF" stroke="#000000" d="M415.5,65.4C386.1,64,363,62.5,363,62.5L211,59L65,56.5L0.5,57V45.5l415.5,8V65v0.5
	C415.8,65.5,415.7,65.5,415.5,65.4z"/>
<polygon fill="#FFFFFF" stroke="#000000" points="416,41.5 416,53.5 0.5,45.5 0.5,35.5 "/>
<polygon fill="#FFFFFF" stroke="#000000" points="415,0.5 416,41.5 0.5,35.5 0.5,0.5 "/>
<path fill="#FFFFFF" stroke="#000000" d="M389.7,780.2c0.2,0.5,0.398,1,0.2,1.3c-10.9,20.5-29.4,6-29.4,6c-12,17-27,2-27,2
	c-19,40-45,10-45,10c-10,31-50,4-50,4c-16,30-46-2-46-2l48-438.5v-0.4c5.9,0.5,12.1,0.3,18.8-1l130.2,418c0,0.102,0,0.102,0.1,0.2
	C389.6,779.8,389.7,780,389.7,780.2C389.7,780.1,389.7,780.2,389.7,780.2z"/>
<polygon fill="#FFFFFF" stroke="#000000" points="211,59 210,68.5 200.5,68.5 199,68.5 70,67.5 65,66.5 65,56.5 "/>
<polygon fill="#FFFFFF" stroke="#000000" points="200.5,68.5 200,77.5 193,77.5 78,76.5 71,76.5 70,67.5 199,68.5 "/>
<polygon fill="#FFFFFF" stroke="#000000" points="193,77.5 191.7,77.5 191.7,87.7 184,88 88,86.5 79,86.5 78,76.5 "/>
<polygon fill="#FFFFFF" stroke="#000000" points="184,88 184,96.5 175,96 172,96 100,95.5 89,95.5 88,86.5 "/>
<polygon fill="#FFFFFF" stroke="#000000" points="172,96 172.5,103 168.5,103 104,103.5 100,103.5 100,95.5 "/>
<path fill="#FFFFFF" stroke="#000000" d="M168.5,103.5l1.5,137.6c-5.9,20.2-15.8,42.5-17.7,65.9c-0.5,6.7-0.5,14.7-0.8,21.6
	c-0.5,11.2,1.8,26.1-1.6,34.4c-3.5,8.7-13.7,10.1-20.4,15.2c-8.4,6.3-11.9,13.2-11.9,23.8c0,0,0.8,2.2,2.8,0.5h0.2
	c0.1,0.8,0.3,1.6,0.5,2.5c0.1,0.6,1.9,1.6,2,1.2c0.1-1,0.2-2,0.3-3c0.7,1.6,2.6,5,3.7-1.5c0.1,1.2,0.3,2.399,0.6,3.5
	c0.7-0.101,1.4-0.101,2.1-0.7c4-11.7,8.6-12.1,19-15.4c0.9,4.6-5.2,6.9-1,10c0.8,0.301,0.7,3.301,8.7-8c0.4-0.4,2-6.8,2.7-7
	c2.6-11.4,7-9.4,8.6-21.1c0,0,0.8-3.5,1.9-8.7v28.8c-16.9,27.6-39.3,68.2-64.5,124.4l0,0l-1-404l64.5-0.5v0.5H168.5z"/>
<path fill="#FFFFFF" stroke="#000000" d="M105,507.5L105,507.5c-26.8,60-56.8,137.8-86.5,236c0,0,0.5,3.4,2.4,6l-20.4-1v-682H65l5,1
	l1,9h7l1,10h9l1,9h11v8h4L105,507.5z"/>
<polygon fill="#FFFFFF" stroke="#000000" points="65,56.5 65,66.5 0.5,66.5 0.5,57 "/>
<path fill="none" stroke="#000000" stroke-linecap="round" stroke-linejoin="round" d="M237.5,131.1c4.8-2.7,13.5-4.8,17.1,0.3"/>
<path fill="none" stroke="#000000" stroke-linecap="round" stroke-linejoin="round" d="M214.2,131.8c-4-3-9.6-1.4-14-0.8"/>
<path fill="none" stroke="#000000" stroke-linecap="round" stroke-linejoin="round" d="M224.2,101c3.5-3.3,9-4.2,11.2-8.8"/>
<path fill="none" stroke="#000000" stroke-linecap="round" stroke-linejoin="round" d="M269,152.2c2.6-1.3,5.5-4.6,4.5-7.8"/>
<path fill="none" stroke="#000000" stroke-linecap="round" stroke-linejoin="round" d="M237.6,140c1.4-1.2,4-5.4,4-7.2"/>
<path fill="none" stroke="#000000" stroke-linecap="round" stroke-linejoin="round" d="M242.8,136.2c1.2-0.8,2.4-2.2,2.2-3.6"/>
<path fill="none" stroke="#000000" stroke-linecap="round" stroke-linejoin="round" d="M245.8,135.6c0.6-1,2.2-2,2-3.4"/>
<path fill="none" stroke="#000000" stroke-linecap="round" stroke-linejoin="round" d="M248,135.6c2,0,1.8-1.8,3-3.2"/>
<path fill="none" stroke="#000000" stroke-linecap="round" stroke-linejoin="round" d="M216.8,141.6c-1.4-1.2-4.4-5-4.4-6.8"/>
<path fill="none" stroke="#000000" stroke-linecap="round" stroke-linejoin="round" d="M211.6,137.8c-1.2-0.8-2.6-2.8-2.4-4.2"/>
<path fill="none" stroke="#000000" stroke-linecap="round" stroke-linejoin="round" d="M208.6,137.2c-0.6-1-2.4-2.6-2.2-4"/>
<path fill="none" stroke="#000000" stroke-linecap="round" stroke-linejoin="round" d="M206.4,137.6c-2,0-1.6-2.4-2.8-3.8"/>
<path fill="none" stroke="#000000" stroke-linecap="round" stroke-linejoin="round" d="M264.2,150.6c-0.1,0.2-0.6,0.8-0.8,2.4"/>
<path fill="none" stroke="#000000" stroke-linecap="round" stroke-linejoin="round" d="M123.4,401.7c0.4-6,1.1-12.2,7.3-15.5"/>
<path fill="none" stroke="#000000" stroke-linecap="round" stroke-linejoin="round" d="M125.3,386.8c-3.4,3.9-5.5,8.3-5,14.5"/>
<path fill="none" stroke="#000000" stroke-linecap="round" stroke-linejoin="round" d="M126.9,401.7c-0.3-5.4,2.2-11.7,7.7-13.9"/>
<path fill="none" stroke="#000000" stroke-linecap="round" stroke-linejoin="round" d="M360.3,389.6c-0.398-6-1.1-12.1-7.3-15.5"/>
<path fill="none" stroke="#000000" stroke-linecap="round" stroke-linejoin="round" d="M358.3,374.8c3.4,4,5.602,8.5,4.9,14.9"/>
<path fill="none" stroke="#000000" stroke-linecap="round" stroke-linejoin="round" d="M356.7,389.7c0.3-5.4-2.2-11.7-7.7-13.9"/>
<path fill="none" stroke="#000000" d="M52,791.1"/>
<path fill="none" stroke="#000000" d="M78,791"/>
<path fill="none" stroke="#000000" stroke-width="0.5" stroke-linecap="round" stroke-linejoin="round" d="M512,100.2
	c3-0.7,13-5.2,14,4.8"/>
<path fill="none" stroke="#000000" stroke-width="0.5" stroke-linecap="round" stroke-linejoin="round" d="M477.5,140
	c0,0,11.3-29.2,33.5-39.5"/>
<path fill="none" stroke="#000000" stroke-width="0.5" stroke-linecap="round" stroke-linejoin="round" d="M406,104.5
	c0,0,15-40.5,56,35.5"/>
</svg>
