<?xml version="1.0" encoding="utf-8"?>
<!-- Generator: Adobe Illustrator 15.0.0, SVG Export Plug-In . SVG Version: 6.00 Build 0)  -->
<!DOCTYPE svg PUBLIC "-//W3C//DTD SVG 1.1//EN" "http://www.w3.org/Graphics/SVG/1.1/DTD/svg11.dtd">
<svg version="1.1" id="Layer_1" xmlns="http://www.w3.org/2000/svg" xmlns:xlink="http://www.w3.org/1999/xlink" x="0px" y="0px"
	 width="822px" height="567px" viewBox="0 0 822 567" enable-background="new 0 0 822 567" xml:space="preserve">
<rect x="0.3" y="0.3" display="none" fill="#FFFFFF" width="822" height="567"/>
<path fill="#FFFFFF" stroke="#000000" stroke-width="0.5" d="M428.4,424.9l-33,1.5c2.3-12.301-0.2-36.2-0.2-36.2l-4.9-85
	c0,0,12.9,67.5,22.4,74.5C412.8,379.8,414.6,410.3,428.4,424.9z"/>
<path fill="#FFFFFF" stroke="#000000" stroke-width="0.5" d="M417.3,51.3c8.2,2.2,17.4,5.4,27,10c7.8,3.7,15.8,8.2,24,13.9
	c8.5,5.9,17.101,12.9,25.5,21.4c7.3,7.3,14.4,15.6,21.3,25c6,8.2,11.801,17.3,17.301,27.4c5.6,10.3,10.899,21.5,15.8,33.9
	c4,10,7.7,20.8,11,32.3c3.3,11.1,6.2,22.9,8.8,35.5c2.7,13,5,26.9,7,41.7c1.5,11.6,2.8,23.699,3.7,36.399
	c0.8,10.101,1.399,20.601,1.7,31.5c0.399,11.8,0.6,24,0.6,36.7c0,8.9-0.2,17.9-0.5,27.3v0.7H444.3c-2.399-16.3-5.3-33-7.5-36.2
	c0,0-14-72.7-23.5-76.899c19.101,5,42.7,10,49,5.399c0,0,12-14,8-18c-2-2-10-6.5-17.5-10.5c-7.3-3.899-14.1-7.3-14.5-7.5
	c1.3,0.4,53,15.7,56-9c0,0,3-13-27-12c0,0,19-2,13-11c0,0-45,6.6-77.399-6.5c-7.4-3-14.2-7.1-19.601-12.5l10.2-32.8l0.2-0.2
	c3.7,3.1,8.399,5,13.6,5c2.8,0,5.5-0.6,8-1.6c1.101,6,18.601,18.7,26.5,18.6c20.601-0.3,48.5-29,48.5-29c3.5-0.5,7.7-4.3,7.7-4.3
	l7.8-3.2c0,0,2.5-3.5-2.5-3c-4.8,0.5-10,2.1-10.3,2.2c0.6-0.5,12.2-10.7,9.3-13.2c-0.5-0.4-1.399-0.2-2.6,0.4
	c-0.9-0.2-4-0.5-8.4,3.1l-7,9.3c-4.7,4.4-5,5.7-5,5.7c-10,9-39.5,17-39.5,17l-15.5-10.5l-0.1-0.1c2.6-3.5,4.1-7.8,4.1-12.4
	c0-8.1-4.5-15.1-11.2-18.6l0.2-0.4c0,0,9-17-11-25c0,0,6.101-19.9-8.3-35.5c0,0,5.8-14.5-5.5-26.3l-1.3-0.3c-2.3,1.4-4.2,3.1-5.7,5
	l-0.3-0.3c0-1.8-3.8-4-3.8-4c-1.5,0-4.5,4.3-4.5,4.3l0,0c-1.7-2.7-3.5-4.3-3.5-4.3c-2.4,1.5-4.301,3.6-5.801,5.9
	c-0.5-3.8-4.3-6.4-4.3-6.4c-1.399,0.9-3.6,5.5-4,6.2c-2.2-2.7-4.5-4.2-4.5-4.2c-12.8,11.8-3.5,24.8-3.5,24.8c-3.3,7.3,0.3-5-8.3,23
	c0,0,0.6,3.5-6.7,16c-1.399,2.4-12,3.3-14.3,11.3c-1,3.3,2.3,10,7.1,11.8c-3.8,3.8-6.1,9.1-6.1,14.9c0,5.7,2.3,10.8,5.9,14.6
	l-0.4,0.4c0,0-48.2,54.3-62.8,52.7c0,0-23.2,3.8-23.2,10.8c0,0-1.8,2.8,0.2,3.2l0.1,0.1c-0.9,0.7-1.4,1.5-1.3,2.2
	c0.1,0.5,0.6,0.6,1.5,0.4v0.1c0.7,3.6,14-4.2,14.3-3.2c0.1,0.4,2.8-0.1,1.7,0.7c-0.6,0.4-0.7,0.3-3.3,1.7c-2.6,1.3-3.1,2.6-3.7,3.3
	c-0.7,0.9-0.3,1.5-1.3,2.7c-1,1.1,18.7-5.3,19.7-13.3c0.5-4,35.701-16.8,35.701-16.8c13.3-8.2,35.5-38.5,35.5-38.5v-0.1
	c0.8,0.1,1.6,0.1,2.5,0.1c7.699,0,14.399-4.1,18.1-10.3c0.5,2,0.9,3.3,0.9,3.3l8,38c0,0-0.5,8.4-11.601,16.9
	c-11.5,8.8-34.5,17.6-80.4,17.1c0,0-8,27,36,20c0,0-40,11-30,25c0,0,7,14,39,3c-0.301,0.601-9.7,21,11,22c10.899,0.5,24.5-7.8,35-16
	c0,1,2,60.101,8,70c0,0,0.1,18.101,0.699,37.3L195.1,426.4v-0.2c0,0-1.3-10.3-2.3-27.5c-0.6-10.2-1.2-22.8-1.4-37.2
	c-0.2-12.8-0.1-26.9,0.6-41.9c0.6-13.5,1.5-27.8,3.1-42.399c1.5-14,3.5-28.3,6.1-42.7c2.5-13.7,5.7-27.3,9.5-40.7
	c3.4-11.7,7.3-23.2,11.9-34.2c3.8-9.1,7.9-17.9,12.6-26.3c5-9.1,10.6-17.7,16.8-25.8c5.7-7.4,11.8-14.3,18.6-20.6
	c7.3-6.9,15.4-13.1,24.1-18.4c7.9-4.8,16.3-9,25.4-12.3C327,53.6,334.2,51.6,341.8,50c7.2-1.5,14.801-2.6,22.7-3.2
	c4.8-0.4,9.601-0.6,14.7-0.6c0,0,7.1-0.5,18.5,1C403.3,48,409.9,49.3,417.3,51.3z"/>
<path fill="#FFFFFF" stroke="#000000" stroke-width="0.5" d="M0.3,426.2h26.3l48.9,0.1L152,426.4h43.3L379,426.6
	c0.6,19.7,1.8,40.5,4,44c0,0-1.2,5-3.6,11c-3.4,8.2-9.301,18.101-18,18.7c0,0-6,2-3,5s16,0,16,0l23.5-22c0,0,6-8-3-12.5
	c0,0-2.601-30.7,0.3-42.7c0.1-0.5,0.3-1.1,0.399-1.699l33-1.5c0.4,0.5,0.9,0.899,1.301,1.3l11,36.5c0,0,0.3,1.5,0.899,3.899
	c2.3,9.601,9.4,33.4,22.101,34.601c0,0,7-3,6-8c0,0-9.601-20.8-18.5-32c-0.801-1.101-1.7-2.101-2.5-3c0,0-2-16.4-4.5-33.3h136.3H624
	h76.7H749.6h72.7l0,0v142.3"/>
<path fill="#FFFFFF" stroke="#000000" stroke-width="0.5" d="M768.3,383.1c1.101-6,1.601-12.5,1.101-19.1
	c-0.4-5.2-1.4-10.5-3.2-15.8c-2.4-7.3-6.3-14.601-12.101-21.8c0,0-13.3-9.301-1.3-30h-21.5c0,0-8.7-36,20.7-64.7l-0.4-0.8
	c5.2-2.6,10.7-5.8,16.4-9.9c0,0,42.7-5.3,39.3-59.3c0,0,22-111.3-46-79.3c0,0-30.7-54.7-64.7-12.7c0,0-38-12-44,14
	c0,0-42.699,16.7-1.3,66c0,0-30.7,66,24,72c0,0,9,10.6,25.601,15.5l-0.2,0.8c11.3,3.8,10.1,53.6,10,58.1h-13.3
	c12,20.7-1.301,30-1.301,30c-4.399,5.5-7.699,11.101-10.1,16.7c-2.8,6.5-4.4,13-5,19.3c-0.6,5.601-0.4,11,0.2,16.2
	c3.3,26.4,19.5,46.5,19.5,46.5v0.3H624c0-11.6,2.2-23.399-9.5-28.199l0.2-0.4c0-9.9,2.2-21.9-4-30c-1.4-1.8-3-3.2-4.9-4.1V361.8
	c9.7-0.1,8.9-1.8,8.9-11.3c0-7.1,0.399-11.6-3.3-17.3c-1.7-2.7-3.101-4.3-4.7-5.2l0.1-0.1c3.5,0,7.101,0.1,10.5-0.101
	c3.8-10.5,8-26.3-3.399-33.1c-1.801-1.101-4.4-2-7.4-2.601l0.2-0.899c9.5-2.5,16.899-31.1,9.8-39.9c-1.7-2.1-3.7-3.1-6-3.4l-0.4-0.8
	c10.601-5.7,11.801-10.9,11.9-22.6c0-8.6-2.2-14-10.7-15.3c-1.3-0.2-2.7-0.4-4-0.4v-0.9c3.5-2.6,3.101-15.9,0.9-19.5
	c-2.5-4.1-11.101-8.6-15.4-10c-0.6-0.2-1.2-0.4-1.899-0.5c5.199-0.3,9.3-16.7,9.699-20.7c1-8.8-3.6-13.3-11.5-15.8
	c-2.3-0.7-5-1.2-7.899-1.4v-0.8c6.899-6.3,11.2-13.4,6.5-23.2c-4.2-8.6-9-9.5-18.5-9.5c-5.3,0-9.9,1.5-14.4,3.4l-0.3-0.7
	c1.9-4.4,2-18.3-0.5-22.8c-4-7.2-13.5-5.2-20.8-5.2c-0.8,0-1.601,0.1-2.5,0.2l-0.101-0.9c10-11.3,0.301-17.5-2.5-22.2
	c-4.5-7.4-12-10.1-20.8-9.2c-1.899,0.2-4.5,1.2-7.3,2.6c0.2-0.8,11.4-44.4-31-21.9c3.8-8.3,3.5-16.7-0.4-19.4
	C462.2,5.8,453.1,7,445.3,9.1c-0.899,0.2-1.8,0.6-2.8,1.1l-0.6-0.5c1.5-4.9,1.899-7.6,1.8-9.3h378.6v424.7h-72.8
	C749.5,424.9,763.8,407.2,768.3,383.1z"/>
<path fill="#FFFFFF" stroke="#000000" stroke-width="0.5" d="M807.3,161.6c3.3,54-39.3,59.3-39.3,59.3c-5.7,4.1-11.2,7.3-16.4,9.9
	c-20.899,10.4-38,10-50.699,6.2c-16.601-4.9-25.601-15.5-25.601-15.5c-54.7-6-24-72-24-72c-41.3-49.3,1.3-66,1.3-66
	c6-26,44-14,44-14c34-42,64.7,12.7,64.7,12.7C829.3,50.3,807.3,161.6,807.3,161.6z M799.6,172.3c3.601-2.2,4.801-7.3,2.7-11.3
	c-1.8-3.3-5.2-4.9-8.399-4.1l0,0c2.199-2.6,2.6-6.5,0.899-9.8c-2.2-4-6.899-5.5-10.5-3.2c-2.2,1.3-3.5,3.6-3.7,6.2l0,0
	c-0.199-0.9-0.5-1.8-0.899-2.7c-2.101-4-6.9-5.5-10.5-3.2c-3.601,2.3-4.8,7.3-2.7,11.3c0.5,1,1.2,1.8,2,2.5l0,0
	c-2.2-1.2-4.9-1.3-7.2,0.1c-3.7,2.2-4.899,7.3-2.7,11.3c1.801,3.4,5.5,5,8.801,4c-2.4,2.6-2.9,6.7-1.101,10
	c2.101,4,6.9,5.5,10.5,3.2c2.2-1.3,3.5-3.7,3.7-6.3l0,0c0.2,1,0.5,2,1,2.9c2.2,4,6.9,5.5,10.5,3.2c3.7-2.2,4.9-7.3,2.7-11.3
	c-0.5-1-1.2-1.8-2-2.5l0,0C794.8,173.6,797.4,173.6,799.6,172.3z M778.8,122.6c0-4.8-3.2-8.7-7.5-9.8c4.2-1.1,7.3-5.1,7.3-9.8
	c0-5.6-4.399-10.1-9.8-10.1c-3.3,0-6.2,1.6-7.899,4.2H760.8c0.4-1.1,0.7-2.3,0.7-3.6c0-5.6-4.4-10.1-9.8-10.1
	c-5.4,0-9.8,4.5-9.8,10.1c0,1.4,0.3,2.6,0.699,3.8h-0.1c-1.8-2.5-4.7-4.2-7.9-4.2c-5.399,0-9.8,4.5-9.8,10.1c0,4.5,2.9,8.4,6.9,9.7
	v0.1c-4,1.3-6.9,5.1-6.9,9.6c0,5.6,4.4,10.1,9.8,10.1c3.2,0,6-1.6,7.801-4.1c-0.4,1.1-0.601,2.2-0.601,3.4c0,5.6,4.4,10.1,9.8,10.1
	c5.4,0,9.801-4.5,9.801-10.1c0-1.4-0.301-2.6-0.7-3.8h0.1c1.8,2.7,4.7,4.5,8.101,4.5C774.4,132.7,778.8,128.1,778.8,122.6z
	 M750.7,223c0-3-2.7-5.5-6.4-6.1c3.601-0.7,6.3-3.2,6.3-6.1c0-3.5-3.8-6.3-8.5-6.3c-2.8,0-5.3,1-6.899,2.6l0,0
	c0.399-0.7,0.5-1.5,0.5-2.3c0-3.5-3.8-6.3-8.5-6.3s-8.5,2.8-8.5,6.3c0,0.8,0.2,1.6,0.6,2.4h-0.1c-1.5-1.6-4-2.6-6.8-2.6
	c-4.7,0-8.5,2.8-8.5,6.3c0,2.9,2.5,5.3,6,6.1l0,0c-3.4,0.8-5.9,3.2-5.9,6c0,3.5,3.8,6.3,8.5,6.3c2.8,0,5.2-1,6.8-2.5
	c-0.3,0.7-0.5,1.4-0.5,2.1c0,3.5,3.8,6.3,8.5,6.3s8.5-2.8,8.5-6.3c0-0.9-0.2-1.6-0.6-2.4l0,0c1.5,1.7,4.1,2.8,7,2.8
	C747,229.3,750.7,226.4,750.7,223z M750,176.5c0-4.4-2.1-8.1-5-9.1c2.8-1.1,4.9-4.7,4.9-9c0-5.2-3-9.3-6.601-9.3
	c-2.2,0-4.2,1.5-5.399,3.9l0,0c0.3-1,0.399-2.2,0.399-3.3c0-5.2-3-9.3-6.6-9.3c-3.7,0-6.601,4.2-6.601,9.3c0,1.2,0.2,2.4,0.5,3.5
	h-0.1c-1.2-2.3-3.2-3.8-5.4-3.8c-3.6,0-6.6,4.2-6.6,9.3c0,4.2,2,7.8,4.7,8.9v0.1c-2.7,1.2-4.6,4.7-4.6,8.9c0,5.1,3,9.3,6.6,9.3
	c2.2,0,4.1-1.5,5.3-3.7l0,0c-0.3,1-0.4,2-0.4,3.1c0,5.1,3,9.3,6.601,9.3c3.6,0,6.6-4.2,6.6-9.3c0-1.3-0.2-2.4-0.5-3.5l0,0
	c1.2,2.5,3.2,4.1,5.5,4.1C747,185.8,750,181.6,750,176.5z M710.5,117.9c0-4.7-3.2-8.7-7.4-9.8c4.2-1.2,7.301-5.1,7.301-9.8
	c0-5.6-4.4-10.1-9.801-10.1c-3.3,0-6.199,1.6-7.899,4.2l0,0c0.399-1.1,0.6-2.3,0.6-3.6c0-5.6-4.399-10.1-9.8-10.1s-9.8,4.5-9.8,10.1
	c0,1.3,0.3,2.6,0.7,3.8H674.3c-1.8-2.5-4.7-4.1-7.899-4.1c-5.4,0-9.801,4.5-9.801,10.1c0,4.5,2.9,8.4,6.9,9.7v0.1
	c-4,1.3-6.9,5.1-6.9,9.6c0,5.6,4.4,10.1,9.801,10.1c3.199,0,6-1.6,7.8-4c-0.4,1.1-0.601,2.2-0.601,3.4c0,5.6,4.4,10.1,9.801,10.1
	c5.399,0,9.8-4.5,9.8-10.1c0-1.3-0.3-2.6-0.7-3.8l0,0c1.8,2.7,4.7,4.5,8.1,4.5C706.1,128,710.5,123.5,710.5,117.9z M706.8,183.9
	c0-4.7-3.2-8.7-7.399-9.8c4.199-1.2,7.199-5.1,7.199-9.8c0-5.6-4.399-10.1-9.8-10.1c-3.3,0-6.2,1.6-7.899,4.2H688.8
	c0.4-1.1,0.7-2.3,0.7-3.6c0-5.6-4.4-10.1-9.8-10.1c-5.4,0-9.8,4.5-9.8,10.1c0,1.3,0.3,2.6,0.699,3.8h-0.1c-1.8-2.5-4.7-4.1-7.9-4.1
	c-5.399,0-9.8,4.5-9.8,10.1c0,4.5,2.9,8.4,6.9,9.7v0.1c-4,1.3-6.9,5.1-6.9,9.6c0,5.6,4.4,10.1,9.8,10.1c3.2,0,6-1.6,7.801-4
	c-0.4,1.1-0.601,2.2-0.601,3.4c0,5.6,4.4,10.1,9.8,10.1c5.4,0,9.801-4.5,9.801-10.1c0-1.3-0.301-2.6-0.7-3.8h0.1
	c1.8,2.7,4.7,4.5,8.101,4.5C702.4,194,706.8,189.5,706.8,183.9z"/>
<path fill="#FFFFFF" stroke="#000000" stroke-width="0.5" d="M792.6,172.6c0.801,0.7,1.4,1.5,2,2.5c2.2,4,1,9.1-2.699,11.3
	c-3.601,2.2-8.4,0.8-10.5-3.2c-0.5-0.9-0.801-1.9-1-2.9l0,0c-0.2,2.6-1.5,4.9-3.7,6.3c-3.7,2.2-8.4,0.8-10.5-3.2
	c-1.8-3.4-1.3-7.5,1.1-10c-3.3,1-7-0.6-8.8-4c-2.2-4-1-9.1,2.7-11.3c2.3-1.4,5-1.4,7.2-0.1l0,0c-0.801-0.7-1.4-1.5-2-2.5
	c-2.101-4-1-9.1,2.699-11.3c3.7-2.2,8.4-0.8,10.5,3.2c0.5,0.9,0.801,1.8,0.9,2.7l0,0c0.3-2.5,1.6-4.8,3.7-6.2
	c3.7-2.2,8.3-0.8,10.5,3.2c1.8,3.3,1.3,7.2-0.9,9.8l0,0c3.2-0.7,6.601,0.8,8.4,4.1c2.2,4,0.899,9.1-2.7,11.3
	C797.4,173.6,794.8,173.6,792.6,172.6L792.6,172.6z M785.3,174.4c4.7-2.9,6.2-9.3,3.4-14.4s-8.8-7-13.4-4.1
	c-4.7,2.9-6.2,9.3-3.399,14.4C774.7,175.4,780.7,177.2,785.3,174.4z"/>
<path fill="#FFFFFF" stroke="#000000" stroke-width="0.5" d="M788.8,159.9c2.8,5.1,1.2,11.6-3.399,14.4c-4.7,2.9-10.7,1-13.4-4.1
	c-2.7-5.1-1.2-11.6,3.4-14.4C780,153,786,154.8,788.8,159.9z"/>
<path fill="#FFFFFF" stroke="#000000" stroke-width="0.5" d="M771.3,112.8c4.3,1.1,7.5,5,7.5,9.8c0,5.6-4.399,10.1-9.8,10.1
	c-3.4,0-6.4-1.8-8.1-4.5H760.8c0.5,1.2,0.7,2.5,0.7,3.8c0,5.6-4.4,10.1-9.8,10.1c-5.4,0-9.8-4.5-9.8-10.1c0-1.2,0.199-2.3,0.6-3.4
	c-1.8,2.5-4.6,4.1-7.8,4.1c-5.4,0-9.8-4.5-9.8-10.1c0-4.5,2.899-8.4,6.899-9.6v-0.1c-4-1.3-6.899-5.1-6.899-9.7
	c0-5.6,4.399-10.1,9.8-10.1c3.3,0,6.1,1.6,7.899,4.2h0.101c-0.5-1.2-0.7-2.5-0.7-3.8c0-5.6,4.4-10.1,9.8-10.1
	c5.4,0,9.8,4.5,9.8,10.1c0,1.3-0.199,2.5-0.699,3.6h0.1c1.8-2.5,4.7-4.2,7.9-4.2c5.399,0,9.8,4.5,9.8,10.1
	C778.6,107.7,775.5,111.6,771.3,112.8z M764.2,112.9c0-7.1-5.601-12.9-12.5-12.9c-6.9,0-12.5,5.8-12.5,12.9s5.6,12.9,12.5,12.9
	C758.6,125.8,764.2,120,764.2,112.9z"/>
<path fill="#FFFFFF" stroke="#000000" stroke-width="0.5" d="M769.4,363.9c0.5,6.699,0,13.1-1.101,19.1c-47.2,22.4-86-5.1-86-5.1
	l-1.2,0.199c-0.699-5.199-0.8-10.6-0.199-16.199C687.3,366.2,723.4,385.9,769.4,363.9L769.4,363.9z"/>
<path fill="#FFFFFF" stroke="#000000" stroke-width="0.5" d="M769.4,363.9H769.3c-45.899,22-82,2.3-88.5-2
	c0.601-6.301,2.2-12.801,5-19.301l0.8,0.301c0,0,32.5,27.5,79.601,5.199C768,353.4,769,358.7,769.4,363.9z"/>
<path fill="#FFFFFF" stroke="#000000" stroke-width="0.5" d="M751.7,100c6.899,0,12.5,5.8,12.5,12.9s-5.601,12.9-12.5,12.9
	c-6.9,0-12.5-5.8-12.5-12.9C739.3,105.8,744.8,100,751.7,100z"/>
<path fill="#FFFFFF" stroke="#000000" stroke-width="0.5" d="M710.6,295.9h14.2v0.3h6.5h21.5c-12,20.7,1.3,30,1.3,30
	c5.801,7.2,9.7,14.6,12.101,21.8c-47.101,22.3-79.601-5.2-79.601-5.2l-0.8-0.3c2.4-5.6,5.7-11.2,10.101-16.7c0,0,13.3-9.3,1.3-30
	H710.6V295.9z"/>
<path fill="#FFFFFF" stroke="#000000" stroke-width="0.5" d="M724.8,295.9h-14.2c0.101-4.5,1.301-54.4-10-58.101l0.2-0.8
	c12.7,3.8,29.8,4.1,50.7-6.2l0.4,0.8c-29.301,28.7-20.7,64.7-20.7,64.7h-6.5V295.9H724.8z"/>
<path fill="#FFFFFF" stroke="#000000" stroke-width="0.5" d="M768.3,383.1c-4.5,24.101-18.8,41.9-18.8,41.9h-48.9v-0.3
	c0,0-16.199-20.101-19.5-46.5l1.2-0.2C682.3,377.9,721.1,405.5,768.3,383.1z"/>
<path fill="#FFFFFF" stroke="#000000" stroke-width="0.5" d="M710.1,216.9L710.1,216.9c-3.5-0.8-6-3.2-6-6.1
	c0-3.5,3.801-6.3,8.5-6.3c2.801,0,5.301,1,6.801,2.6h0.1c-0.4-0.7-0.6-1.5-0.6-2.4c0-3.5,3.8-6.3,8.5-6.3c4.699,0,8.5,2.8,8.5,6.3
	c0,0.8-0.2,1.6-0.5,2.3l0,0c1.5-1.6,4-2.6,6.899-2.6c4.7,0,8.5,2.8,8.5,6.3c0,2.9-2.7,5.4-6.3,6.1c3.7,0.7,6.4,3.2,6.4,6.1
	c0,3.5-3.801,6.3-8.5,6.3c-2.9,0-5.5-1.1-7-2.8l0,0c0.399,0.7,0.6,1.5,0.6,2.4c0,3.5-3.8,6.3-8.5,6.3s-8.5-2.8-8.5-6.3
	c0-0.7,0.2-1.5,0.5-2.1c-1.6,1.5-4,2.5-6.8,2.5c-4.7,0-8.5-2.8-8.5-6.3C704.2,220.1,706.7,217.7,710.1,216.9z M738.2,216.9
	c0-4.5-4.8-8.1-10.8-8.1s-10.801,3.6-10.801,8.1S721.4,225,727.4,225S738.2,221.4,738.2,216.9z"/>
<path fill="#FFFFFF" stroke="#000000" stroke-width="0.5" d="M725.5,182.1L725.5,182.1c-1.2,2.3-3.1,3.7-5.3,3.7
	c-3.7,0-6.601-4.2-6.601-9.3c0-4.2,2-7.7,4.601-8.9v-0.1c-2.7-1.2-4.7-4.7-4.7-8.9c0-5.2,3-9.3,6.6-9.3c2.2,0,4.2,1.5,5.4,3.8h0.1
	c-0.3-1.1-0.5-2.3-0.5-3.5c0-5.2,3-9.3,6.601-9.3c3.7,0,6.6,4.2,6.6,9.3c0,1.2-0.2,2.3-0.399,3.3l0,0c1.199-2.3,3.199-3.9,5.399-3.9
	c3.7,0,6.601,4.2,6.601,9.3c0,4.3-2.101,7.9-4.9,9c2.9,1,5,4.7,5,9.1c0,5.1-3,9.3-6.6,9.3c-2.301,0-4.301-1.6-5.5-4.1l0,0
	c0.3,1.1,0.5,2.3,0.5,3.5c0,5.1-3,9.3-6.601,9.3c-3.7,0-6.6-4.2-6.6-9.3C725.1,184.1,725.2,183.1,725.5,182.1z M740.1,167.6
	c0-6.6-3.8-11.9-8.399-11.9c-4.7,0-8.4,5.3-8.4,11.9s3.8,11.9,8.4,11.9C736.3,179.5,740.1,174.2,740.1,167.6z"/>
<path fill="#FFFFFF" stroke="#000000" stroke-width="0.5" d="M731.7,155.7c4.7,0,8.399,5.3,8.399,11.9s-3.8,11.9-8.399,11.9
	c-4.7,0-8.4-5.3-8.4-11.9S727,155.7,731.7,155.7z"/>
<path fill="#FFFFFF" stroke="#000000" stroke-width="0.5" d="M727.4,208.9c6,0,10.8,3.6,10.8,8.1s-4.8,8.1-10.8,8.1
	S716.6,221.5,716.6,217S721.4,208.9,727.4,208.9z"/>
<path fill="#FFFFFF" stroke="#000000" stroke-width="0.5" d="M703,108.1c4.3,1.1,7.4,5.1,7.4,9.8c0,5.6-4.4,10.1-9.801,10.1
	c-3.399,0-6.399-1.8-8.1-4.5l0,0c0.5,1.2,0.7,2.5,0.7,3.8c0,5.6-4.4,10.1-9.8,10.1c-5.4,0-9.801-4.5-9.801-10.1
	c0-1.2,0.2-2.3,0.601-3.4c-1.8,2.4-4.601,4-7.8,4c-5.4,0-9.801-4.5-9.801-10.1c0-4.5,2.9-8.4,6.9-9.6v-0.1c-4-1.3-6.9-5.1-6.9-9.7
	c0-5.6,4.4-10.1,9.801-10.1c3.3,0,6.1,1.6,7.899,4.1h0.101c-0.5-1.2-0.7-2.5-0.7-3.8c0-5.6,4.399-10.1,9.8-10.1s9.8,4.5,9.8,10.1
	c0,1.3-0.2,2.5-0.6,3.6l0,0c1.8-2.5,4.7-4.2,7.899-4.2c5.4,0,9.801,4.5,9.801,10.1C710.3,103,707.2,106.9,703,108.1z M695.9,108.3
	c0-7.1-5.601-12.9-12.5-12.9c-6.9,0-12.5,5.8-12.5,12.9c0,7.1,5.6,12.9,12.5,12.9C690.3,121.1,695.9,115.4,695.9,108.3z"/>
<path fill="#FFFFFF" stroke="#000000" stroke-width="0.5" d="M699.3,174.1c4.3,1.1,7.4,5.1,7.4,9.8c0,5.6-4.4,10.1-9.8,10.1
	c-3.4,0-6.4-1.8-8.101-4.5h-0.1c0.5,1.2,0.7,2.5,0.7,3.8c0,5.6-4.4,10.1-9.801,10.1c-5.399,0-9.8-4.5-9.8-10.1
	c0-1.2,0.2-2.3,0.601-3.4c-1.801,2.4-4.601,4-7.801,4c-5.399,0-9.8-4.5-9.8-10.1c0-4.5,2.9-8.4,6.9-9.6v-0.1c-4-1.3-6.9-5.1-6.9-9.7
	c0-5.6,4.4-10.1,9.8-10.1c3.301,0,6.101,1.6,7.9,4.1h0.1c-0.5-1.2-0.699-2.5-0.699-3.8c0-5.6,4.399-10.1,9.8-10.1
	c5.399,0,9.8,4.5,9.8,10.1c0,1.3-0.2,2.5-0.7,3.6h0.101c1.8-2.5,4.699-4.2,7.899-4.2c5.4,0,9.8,4.5,9.8,10.1
	C706.6,169,703.5,172.9,699.3,174.1z M692.2,174.3c0-7.1-5.601-12.9-12.5-12.9c-6.9,0-12.5,5.8-12.5,12.9c0,7.1,5.6,12.9,12.5,12.9
	C686.6,187.1,692.2,181.4,692.2,174.3z"/>
<path fill="#FFFFFF" stroke="#000000" stroke-width="0.5" d="M683.4,95.4c6.899,0,12.5,5.8,12.5,12.9c0,7.1-5.601,12.9-12.5,12.9
	c-6.9,0-12.5-5.8-12.5-12.9C670.9,101.2,676.5,95.4,683.4,95.4z"/>
<ellipse fill="#FFFFFF" stroke="#000000" stroke-width="0.5" cx="679.7" cy="174.3" rx="12.5" ry="12.9"/>
<path fill="#FFFFFF" stroke="#000000" stroke-width="0.5" d="M614.4,396.7c11.699,4.899,9.5,16.6,9.5,28.2H580.6v-0.7
	c0.301-9.3,0.4-18.4,0.5-27.3c10.801,0.6,22.101-4.601,32.7-0.601C614,396.5,614.2,396.6,614.4,396.7z"/>
<path fill="#FFFFFF" stroke="#000000" stroke-width="0.5" d="M610,246.9l0.4,0.8c-4.9-0.8-10.601,1.4-15.2,2
	c-8.3,1.1-18.9,1-27.2,1.1c-2.6-12.6-5.6-24.4-8.8-35.5c2.399-1.8,10.8-0.9,14-1.8c3.6-1,7.5-1.4,11.3-2.3c7-1.7,15-3,22.6-2.6
	c1.4,0.1,2.7,0.2,4,0.4c8.5,1.3,10.7,6.8,10.7,15.3C621.9,236,620.6,241.2,610,246.9z"/>
<path fill="#FFFFFF" stroke="#000000" stroke-width="0.5" d="M613.8,294.4c11.4,6.8,7.2,22.5,3.4,33.1c-3.5,0.2-7,0.1-10.5,0.1
	L606.6,327.7c-2.399-1.4-5.1-1.4-9.899-1.4c-5.101,0-13.8-0.3-17.8,2.5c-1-12.7-2.2-24.8-3.7-36.399l0.899-0.101
	c7-2.3,20.9-2.5,30.5-0.5C609.4,292.4,611.9,293.3,613.8,294.4z"/>
<path fill="#FFFFFF" stroke="#000000" stroke-width="0.5" d="M616.4,251.1c7.1,8.8-0.301,37.4-9.801,39.9l-0.199,0.9
	c-9.601-2.101-23.5-1.9-30.5,0.5l-0.9,0.1c-1.9-14.8-4.3-28.6-7-41.7c8.3-0.1,18.9,0,27.2-1.1c4.6-0.6,10.399-2.8,15.2-2
	C612.7,248,614.8,249,616.4,251.1z"/>
<path fill="#FFFFFF" stroke="#000000" stroke-width="0.5" d="M610.6,366.3c6.2,8.101,4,20.101,4,30l-0.199,0.4
	c-0.2-0.101-0.4-0.2-0.7-0.3c-10.601-4-21.9,1.199-32.7,0.6c0.1-12.7-0.1-24.9-0.6-36.7h1.399c7.9,0,17.101-1.6,23.8,1.9
	C607.5,363.1,609.2,364.4,610.6,366.3z"/>
<path fill="#FFFFFF" stroke="#000000" stroke-width="0.5" d="M605.7,361.6v0.601c-6.7-3.4-15.8-1.9-23.8-1.9h-1.4
	c-0.4-10.899-1-21.399-1.7-31.5c4.101-2.8,12.7-2.6,17.8-2.5c4.801,0,7.601,0,9.9,1.4c1.6,1,3,2.6,4.7,5.2
	c3.7,5.699,3.3,10.3,3.3,17.3C614.6,359.8,615.3,361.5,605.7,361.6z"/>
<path fill="#FFFFFF" stroke="#000000" stroke-width="0.5" d="M590.9,177.6c0.6,0.1,1.3,0.3,1.899,0.5c4.3,1.4,12.9,5.9,15.4,10
	c2.2,3.6,2.7,16.9-0.9,19.5v0.9c-7.6-0.5-15.6,0.9-22.6,2.6c-3.8,0.9-7.7,1.3-11.3,2.3c-3.301,0.9-11.601,0-14,1.8
	c-3.4-11.5-7.101-22.3-11-32.3l0,0C562.1,183.3,577.1,174.4,590.9,177.6z"/>
<path fill="#FFFFFF" stroke="#000000" stroke-width="0.5" d="M589.1,141.1c7.801,2.5,12.5,7,11.5,15.8c-0.399,4-4.5,20.4-9.699,20.7
	c-13.801-3.2-28.801,5.7-42.7,5.3l0,0c-4.9-12.4-10.2-23.7-15.8-33.9l0.199-0.1c3.801-1.4,7.9-3.8,12-4c6.2-0.3,10-2.9,16-4
	c5.601-1.1,13.601-1.8,20.601-1.2C584.1,139.9,586.8,140.4,589.1,141.1z"/>
<path fill="#FFFFFF" stroke="#000000" stroke-width="0.5" d="M587.7,115.7c4.7,9.8,0.399,16.9-6.5,23.2v0.8
	c-7-0.5-15,0.2-20.601,1.2c-6,1.1-9.899,3.8-16,4c-4.1,0.2-8.199,2.6-12,4L532.4,149c-5.5-10.1-11.301-19.2-17.301-27.4l0,0
	c7.2-3.9,14.5-5.9,22.801-6.7c6.3-0.6,11.5-3.1,16.899-5.3c4.5-1.8,9.101-3.4,14.4-3.4C578.8,106.3,583.6,107.1,587.7,115.7z"/>
<path fill="#FFFFFF" stroke="#000000" stroke-width="0.5" d="M554.6,108.9l0.301,0.7c-5.4,2.2-10.7,4.7-16.9,5.3
	c-8.3,0.8-15.6,2.8-22.8,6.7l0,0c-6.9-9.5-14.101-17.8-21.3-25C498.3,93.8,520.2,83,530.8,81.2c1-0.2,1.8-0.2,2.5-0.2
	c7.3,0,16.9-2.1,20.8,5.2C556.6,90.6,556.5,104.6,554.6,108.9z"/>
<path fill="#FFFFFF" stroke="#000000" stroke-width="0.5" d="M528.1,58.1c2.801,4.6,12.5,10.8,2.5,22.2l0.101,0.9
	C520.1,83,498.2,93.8,493.8,96.6c-8.5-8.5-17-15.5-25.5-21.4c4-4.5,20.4-17.9,31.601-23.6l0,0c2.899-1.5,5.399-2.4,7.3-2.6
	C516.1,48,523.6,50.7,528.1,58.1z"/>
<path fill="#FFFFFF" stroke="#000000" stroke-width="0.5" d="M499.7,169.2c1.2-0.6,2.1-0.8,2.6-0.4c2.9,2.4-8.7,12.7-9.3,13.2
	c0.3-0.1,5.5-1.7,10.3-2.2c5-0.5,2.5,3,2.5,3L498,186c0,0-4.2,3.8-7.7,4.3c0,0-27.899,28.7-48.5,29c-7.899,0.1-25.3-12.6-26.5-18.6
	c3.601-1.5,6.601-3.9,8.9-7l0.1,0.1l15.5,10.5c0,0,29.5-8,39.5-17c0,0,0.3-1.2,5-5.7l7-9.3C495.7,168.6,498.8,169,499.7,169.2z"/>
<path fill="#FFFFFF" stroke="#000000" stroke-width="0.5" d="M469,29.7c42.4-22.5,31.2,21.1,31,21.9l0,0
	c-11.2,5.7-27.6,19-31.6,23.6c-8.2-5.7-16.301-10.3-24-13.9c9.1-9.1,11.899-14.7,19.699-23.7C466,35.1,467.7,32.4,469,29.7z"/>
<path fill="#FFFFFF" stroke="#000000" stroke-width="0.5" d="M413.2,311.9c-9.8-2.601-18.4-5.2-22.8-6.601c-2-0.6-3.101-1-3.101-1
	s-7.2,7.4-17,15c-10.5,8.2-24.1,16.5-35,16c-20.7-1-11.3-21.399-11-22c-32,11-39-3-39-3c-10-14,30-25,30-25c-44,7-36-20-36-20
	c45.9,0.5,68.9-8.3,80.4-17.1l0.2,0.3c0,0,15.3,37.7,42.8-5.3l0.1-0.3c32.4,13.1,77.4,6.5,77.4,6.5c6,9-13,11-13,11
	c30-1,27,12,27,12c-3,24.7-54.7,9.4-56,9c0.399,0.2,7.2,3.6,14.5,7.5c7.5,4,15.5,8.5,17.5,10.5c4,4-8,18-8,18
	C456,321.8,432.3,316.9,413.2,311.9z"/>
<path fill="#FFFFFF" stroke="#000000" stroke-width="0.5" d="M469.8,493.3c1,5-6,8-6,8c-12.8-1.2-19.8-25-22.1-34.6l0,0
	c0,0,11.6,11.6,9.6-5.4l0,0C460.2,472.5,469.8,493.3,469.8,493.3z"/>
<path fill="#FFFFFF" stroke="#000000" stroke-width="0.5" d="M469,29.7c-1.2,2.7-2.9,5.4-5.1,7.9c-7.801,9-10.601,14.5-19.7,23.7
	c-9.601-4.6-18.8-7.8-27-10c0.399-10.3,14.2-35.1,25.2-41.2c1-0.5,1.899-0.9,2.8-1.1c7.8-2,16.899-3.3,23.3,1.3
	C472.5,13,472.8,21.4,469,29.7z"/>
<path fill="#FFFFFF" stroke="#000000" stroke-width="0.5" d="M444.3,424.9c2.5,16.899,4.5,33.3,4.5,33.3c0.8,0.899,1.7,1.899,2.5,3
	l0,0c2,17-9.6,5.399-9.6,5.399l0,0c-0.601-2.399-0.9-3.899-0.9-3.899l-11-36.5c-0.5-0.4-0.899-0.9-1.3-1.3
	c-13.8-14.601-15.7-45.2-15.7-45.2c-9.5-7-22.399-74.5-22.399-74.5c4.399,1.399,13,4,22.8,6.6c9.5,4.101,23.5,76.9,23.5,76.9
	C439,391.9,441.9,408.7,444.3,424.9z"/>
<path fill="#FFFFFF" stroke="#000000" stroke-width="0.5" d="M443.7,0.3c0.1,1.7-0.2,4.5-1.8,9.3l0.6,0.5
	c-11,6.1-24.9,30.9-25.2,41.2c-7.3-2-13.899-3.2-19.5-4l0.101-1c-1.301-12.1,6.699-34,10.699-46H443.7z"/>
<path fill="#FFFFFF" stroke="#000000" stroke-width="0.5" d="M401.2,161.1c1.899-0.6,3.899-0.9,6-0.9c3.5,0,6.899,0.9,9.8,2.4
	c6.7,3.5,11.2,10.5,11.2,18.6c0,4.7-1.5,9-4.101,12.4c-2.3,3.1-5.3,5.5-8.899,7c-2.5,1-5.2,1.6-8,1.6c-5.2,0-10-1.9-13.601-5
	c-4.5-3.9-7.399-9.6-7.399-16C386.3,171.7,392.6,163.7,401.2,161.1z"/>
<path fill="#FFFFFF" stroke="#000000" stroke-width="0.5" d="M406.3,137.3c20,8,11,25,11,25l-0.2,0.4c-2.899-1.5-6.3-2.4-9.8-2.4
	c-2.1,0-4.1,0.3-6,0.9c-2.399-0.9-15.2-0.6-15.2-0.6l1.301-14.3c9.3-13.3-0.7-31-0.7-31c-11.7,7.7-24.3,2-24.3,2s1.899-7.8-1.5,1.5
	c-3.601,10-2,18.5,3.5,27c1.6,2.4,4.1,3.5,6.899,3.8l-2.399,11.2c-2.601,1.1-10.601-0.9-11.5,1.8l-0.101,0.1
	c-3.6-2.8-8-4.4-12.899-4.4c-5.801,0-11,2.4-14.9,6.1c-4.9-1.9-8.1-8.5-7.1-11.8c2.3-8,13-9,14.3-11.3c7.2-12.5,6.7-16,6.7-16
	c8.5-28,5-15.8,8.3-23c0,0,29.8,14.8,46.5-0.5C412.4,117.3,406.3,137.3,406.3,137.3z"/>
<path fill="#FFFFFF" stroke="#000000" stroke-width="0.5" d="M363.9,0.3H408.6c-4,12-12,33.9-10.699,46l-0.101,1
	c-11.5-1.5-18.5-1-18.5-1c-5,0-9.899,0.2-14.7,0.6C364.6,39.4,365.6,10.5,363.9,0.3z"/>
<path fill="#FFFFFF" stroke="#000000" stroke-width="0.5" d="M402.9,242.7L402.8,243c-27.5,43-42.8,5.3-42.8,5.3l-0.2-0.3
	c11.101-8.5,11.601-16.9,11.601-16.9c7.6,5.9,12-1,12-1C388.7,235.7,395.5,239.7,402.9,242.7z"/>
<path fill="#FFFFFF" stroke="#000000" stroke-width="0.5" d="M363.3,94.1c0.2-1,1.2-7,4.5-12.2c1.4-2.3,3.3-4.4,5.8-5.9
	c0,0,1.801,1.5,3.5,4.3c1.7,2.7,3.4,6.7,3.101,11.5c0,0.4,0,0.7-0.101,1.1c0,0.1,0,0.1,0,0.1s0,0,0-0.1c0.2-1,1.4-7.3,5.5-12.6
	c1.5-1.9,3.301-3.6,5.7-5l1.3,0.3c11.301,11.8,5.5,26.3,5.5,26.3c-16.8,15.3-46.5,0.5-46.5,0.5s-9.3-13,3.5-24.8
	c0,0,2.301,1.4,4.5,4.2C361.8,84.5,364,88.7,363.3,94.1z"/>
<path fill="#FFFFFF" stroke="#000000" stroke-width="0.5" d="M394.8,470.8c9,4.5,3,12.5,3,12.5l-23.5,22c0,0-13,3-16,0s3-5,3-5
	c8.7-0.6,14.601-10.5,18-18.7C379.3,481.5,382.9,484.3,394.8,470.8z"/>
<path fill="#FFFFFF" stroke="#000000" stroke-width="0.5" d="M378.9,426.6c-0.601-19.199-0.7-37.3-0.7-37.3c-6-9.899-8-69-8-70
	c9.8-7.6,17-15,17-15s1.1,0.4,3.1,1l4.9,85c0,0,2.5,23.9,0.2,36.2c-0.101,0.6-0.2,1.1-0.4,1.7c-2.9,11.899-0.3,42.7-0.3,42.7
	c-11.8,13.5-15.5,10.8-15.5,10.8c2.5-5.9,3.6-11,3.6-11C380.7,467,379.5,446.3,378.9,426.6z"/>
<path fill="#FFFFFF" stroke="#000000" stroke-width="0.5" d="M393.6,197.2l-0.199,0.2l-10.2,32.8c0,0-4.4,6.9-12,1l-8-38
	c0,0-0.4-1.3-0.9-3.3c1.9-3.1,2.9-6.8,2.9-10.7c0-6.7-3.2-12.7-8.101-16.6l0.101-0.1c0.899-2.8,8.899-0.7,11.5-1.8l8.5,10.5
	l8.8-10.8c0,0,12.8-0.2,15.2,0.6c-8.7,2.6-15,10.6-15,20.1C386.3,187.6,389.1,193.4,393.6,197.2z"/>
<path fill="#FFFFFF" stroke="#000000" stroke-width="0.5" d="M371.2,149.6c-2.8-0.3-5.4-1.4-6.9-3.8c-5.5-8.5-7.1-17-3.5-27
	c3.4-9.3,1.5-1.5,1.5-1.5s12.7,5.7,24.3-2c0,0,10,17.7,0.7,31C387.3,146.3,378.3,150.3,371.2,149.6z M387.1,126.4
	c0-1.5-1.1-2.7-3.8-2.7s-5.7,2.2-6.8,3.3c-1,1,2.9,1.2,5.7,1.2C384.8,128.3,387.1,127.9,387.1,126.4z M379.4,139.4
	c0,0-1.5-0.2-5.101,1.2c0,0-3.1-1.4-5.5-0.7c0,0,1.5,2.1,5.2,3.4C374.3,143.4,377.5,142.9,379.4,139.4z M366.8,128.3
	c2.9,0,5.101,0,5-0.8c-0.2-1.2-2.5-2.9-5-3.5c-2.8-0.7-5.2,1-5.2,2.2C361.6,127.3,363.9,128.3,366.8,128.3z"/>
<path fill="#FFFFFF" stroke="#000000" stroke-width="0.5" d="M387.3,146.3l-1.3,14.3l-8.8,10.8l-8.5-10.5l2.399-11.2
	C378.3,150.3,387.3,146.3,387.3,146.3z"/>
<path fill="#FFFFFF" stroke="#000000" stroke-width="0.5" d="M383.3,123.8c2.8,0,3.8,1.2,3.8,2.7s-2.199,1.9-5,1.9
	c-2.8,0-6.699-0.2-5.699-1.2C377.6,125.9,380.5,123.8,383.3,123.8z"/>
<path fill="#FFFFFF" stroke="#000000" stroke-width="0.5" d="M385.3,80l0.3,0.3c-4.199,5.3-5.399,11.6-5.5,12.6
	c0-0.4,0.101-0.8,0.101-1.1c0.3-4.8-1.4-8.7-3.101-11.5l0,0c0,0,3-4.3,4.5-4.3C381.5,76,385.3,78.3,385.3,80z"/>
<path fill="#FFFFFF" stroke="#000000" stroke-width="0.5" d="M374.3,140.6c3.601-1.4,5.101-1.2,5.101-1.2c-1.9,3.5-5,4-5.4,3.9
	c-3.8-1.3-5.2-3.4-5.2-3.4C371.1,139.1,374.3,140.6,374.3,140.6z"/>
<path fill="#FFFFFF" stroke="#000000" stroke-width="0.5" d="M371.8,127.4c0.101,0.9-2.1,0.8-5,0.8c-2.899,0-5.2-1-5.2-2.2
	s2.4-2.9,5.2-2.2C369.3,124.5,371.6,126.2,371.8,127.4z"/>
<path fill="#FFFFFF" stroke="#000000" stroke-width="0.5" d="M363.5,75.5c0,0,3.8,2.7,4.3,6.4c-3.3,5.2-4.3,11.2-4.5,12.2
	c0.7-5.4-1.5-9.6-3.7-12.4C359.9,81,362.1,76.4,363.5,75.5z"/>
<path fill="#FFFFFF" stroke="#000000" stroke-width="0.5" d="M363.9,0.3c1.699,10.3,0.699,39.2,0.699,46.6
	c-7.899,0.6-15.5,1.7-22.699,3.2c-2.601-10.6-5.601-19.2-6-27.8c-0.2-4.6-2-4.1-1.301-8c1.4-6.6,0.601-11.1-1.5-14H363.9z"/>
<path fill="#FFFFFF" stroke="#000000" stroke-width="0.5" d="M362.3,190c-3.7,6.2-10.399,10.3-18.1,10.3c-0.8,0-1.7,0-2.5-0.1
	c-4.9-0.6-9.3-2.9-12.601-6.3c-3.699-3.8-5.899-8.9-5.899-14.6c0-5.8,2.399-11,6.1-14.9c3.8-3.8,9.101-6.1,14.9-6.1
	c4.899,0,9.399,1.7,12.899,4.4c4.9,3.8,8.101,9.8,8.101,16.6C365.3,183.2,364.2,186.8,362.3,190z"/>
<path fill="#FFFFFF" stroke="#000000" stroke-width="0.5" d="M242.8,257.8c0-7,23.2-10.8,23.2-10.8c14.7,1.7,62.8-52.7,62.8-52.7
	l0.4-0.4c3.3,3.4,7.7,5.7,12.6,6.3v0.1c0,0-22.2,30.3-35.5,38.5c0,0-35.2,12.9-35.7,16.8c-1,8-20.7,14.4-19.7,13.3
	c1.1-1.1,0.6-1.8,1.3-2.7c0.5-0.7,1.1-2,3.7-3.3c2.7-1.3,2.7-1.3,3.3-1.7c1.1-0.8-1.5-0.2-1.7-0.7c-0.3-1-13.6,6.8-14.3,3.2v-0.1
	c-0.9,0.2-1.4,0.1-1.5-0.4c-0.1-0.8,0.4-1.5,1.3-2.2l-0.1-0.1C240.9,260.6,242.8,257.8,242.8,257.8z"/>
<path fill="#FFFFFF" stroke="#000000" stroke-width="0.5" d="M335.9,22.3c0.399,8.6,3.3,17.2,6,27.8c-7.601,1.6-14.801,3.7-21.7,6.2
	l-0.3-0.7c0-4.7-6.801-13.4-11.9-20.8c-3.2-4.8-5.6-11.8-10.1-15.2c0.1-10.5,2.2-10.8,10-17.3c0.899-0.7,1.8-1.4,2.8-2H333
	c2.1,2.9,3,7.4,1.5,14C333.9,18.1,335.7,17.7,335.9,22.3z"/>
<path fill="#FFFFFF" stroke="#000000" stroke-width="0.5" d="M297.9,19.6c4.5,3.4,6.9,10.4,10.1,15.2c5,7.5,11.9,16.2,11.9,20.8
	l0.3,0.7c-9.101,3.4-17.5,7.5-25.4,12.3l-0.2-0.4c-7.3-10-7.2-10.8-10.7-14c-14-12.7-8.7-7.3-16-13.3c-6-11.3-3.7-9.6,2-16
	c12.5-14,15.6-8.3,23.3-7.3C295,17.8,296.6,18.5,297.9,19.6z"/>
<path fill="#FFFFFF" stroke="#000000" stroke-width="0.5" d="M95.6,371.1c0.1-5.3-0.4-10.699-1.8-16.3
	c-2.1-9.1-6.4-18.399-13.7-27.5c0,0-13.3-9.3-1.3-30H61.3v-1l4-50.7c0,0,40.7,16,34.7-40c0,0,46.7-2,28-54.7c0,0,17.3-54-32-57.3
	c0,0-4.7-56-50-19.3c0,0-29.8-6.9-45.7,13.5V0.3h310.4c-1,0.6-1.9,1.3-2.8,2c-7.8,6.5-9.9,6.8-10,17.3c-1.4-1-2.9-1.8-4.7-2
	c-7.8-1-10.8-6.6-23.3,7.3c-5.7,6.4-8,4.7-2,16c-7.7-6.3-8.4-5.9-14.7-4c-22,6.7-16.8,17.5-4.8,30.2c-1.8-1-3.7-2-5.8-2.8
	c-5.6-2.3-10.6-8.2-15.3-4c-4.2,3.7-36,14.9-8.8,32.6c-2.3-0.7-4.9-1.5-7.8-2.6c-8.1-2.9-14-9.3-24.7,14.7c-3,6.8,0.6,13.7,6.9,16.5
	c-9.4,4.6-11.7,20.4-4.6,29l0,0c-2,0-3.8,0.1-5.6,0.5c-8.4,1.9-13.2,5.8-14,14c-0.5,5.1-1.7,16.6,1.3,20.7l0.3,1.4
	c-4.8,1-8.8,3.2-11.6,7.3c-3.7,5.5-3,17-2.7,24c0.4,7.7,5.4,10.5,6.6,16.6c-3.2,0.9-5.9,2.4-7.5,4.6c-5.7,7.6-1.4,32.3,3,39.4
	c0.9,0.1,2,0.3,3,0.2c-3.8,1.6-6.8,4.1-8.3,8.1c-2.6,6.8-8.4,34.5,4.3,34.5l1.1,1.601c-0.6,0.5-1.1,1.1-1.6,1.699
	c-6.4,8.101-3.8,25.801-3.2,35.9c2.5,0.7,4.8,1.7,6.5,3.5l0.1,0.1c-1.3,0.7-2.5,1.5-3.6,2.5c-4.3,4.301-6.5,31.7,0.2,33.4v0.1
	c-6.9,4.7-4.7,16.801-4.7,25.301v0.8L75.4,426.6V426.2c0,0,11.3-14,17-34.101C94.3,385.4,95.5,378.4,95.6,371.1z"/>
<path fill="#FFFFFF" stroke="#000000" stroke-width="0.5" d="M294.6,68.3l0.2,0.4C286.1,74,278,80.1,270.7,87l-0.1-0.1
	c-6.8-5.7-11.7-13.8-22.2-19.8c-12-12.7-17.2-23.5,4.8-30.2c6.3-1.9,6.9-2.3,14.7,4c7.3,6,2,0.7,16,13.3
	C287.4,57.4,287.3,58.3,294.6,68.3z"/>
<path fill="#FFFFFF" stroke="#000000" stroke-width="0.5" d="M270.6,86.9l0.1,0.1c-6.7,6.3-12.9,13.2-18.6,20.6l-0.9-0.7
	c-12.7-11-17.4-9.4-32.8-14.1c-27.2-17.7,4.6-28.9,8.8-32.6c4.7-4.2,9.8,1.7,15.3,4c2.1,0.9,4.1,1.8,5.8,2.8
	C258.9,73.1,263.7,81.2,270.6,86.9z"/>
<path fill="#FFFFFF" stroke="#000000" stroke-width="0.5" d="M218.4,92.9c15.4,4.6,20.1,3.1,32.8,14.1l0.9,0.7
	c-6.2,8.1-11.8,16.7-16.8,25.8c-5.7-2.1-11-5.3-18.1-9.8c-5.6-3.5-14.1-4.3-20.6-3.4c-1.4,0.2-2.6,0.6-3.8,1.2
	c-6.3-2.8-9.9-9.7-6.9-16.5c10.7-24,16.6-17.6,24.7-14.7C213.5,91.3,216.1,92.1,218.4,92.9z"/>
<path fill="#FFFFFF" stroke="#000000" stroke-width="0.5" d="M192.8,121.4c1.2-0.6,2.4-1,3.8-1.2c6.5-1,15.1-0.2,20.6,3.4
	c7.1,4.5,12.5,7.6,18.1,9.8c-4.7,8.4-8.8,17.2-12.6,26.3l-0.2-0.1c-9.9-2.6-23.1-9.1-34.3-9.2l0,0
	C181.1,141.8,183.4,126,192.8,121.4z"/>
<path fill="#FFFFFF" stroke="#000000" stroke-width="0.5" d="M222.6,159.6l0.2,0.1c-4.6,11.1-8.5,22.5-11.9,34.2
	c-13.1-4.2-29.1-9.3-40.7-7l-0.3-1.4c-3-4-1.9-15.5-1.3-20.7c0.9-8.2,5.7-12.1,14-14c1.8-0.4,3.7-0.6,5.6-0.5
	C199.5,150.5,212.7,157,222.6,159.6z"/>
<path fill="#FFFFFF" stroke="#000000" stroke-width="0.5" d="M210.9,193.9c-3.9,13.4-7,27-9.5,40.7l-2.8-0.3c-8.3,0-25.4-2.5-36,0.6
	c-1.3-6.1-6.3-8.8-6.6-16.6c-0.3-7-1-18.5,2.7-24c2.8-4.1,6.8-6.4,11.6-7.3C181.8,184.6,197.8,189.7,210.9,193.9z"/>
<path fill="#FFFFFF" stroke="#000000" stroke-width="0.5" d="M162.6,234.8c10.7-3.1,27.7-0.6,36-0.6l2.8,0.3
	c-2.7,14.3-4.7,28.7-6.1,42.7c-9.5,0-24.5-2.3-34.1,1.8c-1,0.1-2.2-0.1-3-0.2c-4.4-7.1-8.7-31.8-3-39.4
	C156.7,237.2,159.3,235.8,162.6,234.8z"/>
<path fill="#FFFFFF" stroke="#000000" stroke-width="0.5" d="M195.3,426.3v0.2H152v-0.8c0-8.4-2.1-20.601,4.7-25.3
	c0.8-0.5,1.6-0.9,2.6-1.301c9.1-3,23.9-0.3,33.7-0.3C194,416,195.3,426.3,195.3,426.3z"/>
<path fill="#FFFFFF" stroke="#000000" stroke-width="0.5" d="M161.1,279c9.7-4,24.6-1.8,34.1-1.8c-1.5,14.6-2.5,28.899-3.1,42.399
	l-2.2-0.1c-10.1,0-24.3-3-31.8,3.7L157,321.6c-12.7,0-7-27.699-4.3-34.5C154.3,283.1,157.3,280.6,161.1,279z"/>
<path fill="#FFFFFF" stroke="#000000" stroke-width="0.5" d="M189.9,319.6l2.2,0.101c-0.6,15-0.7,29.1-0.6,41.899h-0.3
	c-8.8,0.301-22.8-1.6-31.3,2.801l-0.1-0.101c-1.8-1.8-4.1-2.8-6.5-3.5c-0.6-10.1-3.2-27.8,3.2-35.899c0.5-0.601,1-1.2,1.6-1.7
	C165.6,316.6,179.8,319.6,189.9,319.6z"/>
<path fill="#FFFFFF" stroke="#000000" stroke-width="0.5" d="M191.6,361.6c0.2,14.4,0.8,27,1.4,37.2c-9.8,0-24.6-2.6-33.7,0.3
	c-1,0.301-1.8,0.7-2.6,1.301V400.3c-6.7-1.7-4.4-29.1-0.2-33.399c1-1,2.2-1.9,3.6-2.5c8.5-4.301,22.5-2.5,31.3-2.801H191.6z"/>
<path fill="#FFFFFF" stroke="#000000" stroke-width="0.5" d="M127.9,150.9c18.7,52.7-28,54.7-28,54.7c6,56-34.7,40-34.7,40
	c-8.7,8-20.7-2.7-20.7-2.7s-44.3,5.3-44.3-25.3V87.7c15.9-20.4,45.7-13.5,45.7-13.5c45.3-36.7,50,19.3,50,19.3
	C145.3,96.9,127.9,150.9,127.9,150.9z M128.2,181c0-3.3-2.9-6.1-6.7-6.9c3.8-0.8,6.5-3.6,6.5-6.9c0-3.9-4-7.1-8.8-7.1
	c-2.9,0-5.5,1.2-7.1,2.9H112c0.4-0.8,0.6-1.6,0.6-2.5c0-3.9-4-7.1-8.8-7.1c-4.9,0-8.8,3.2-8.8,7.1c0,0.9,0.2,1.8,0.6,2.7h-0.1
	c-1.6-1.8-4.2-2.9-7.1-2.9c-4.9,0-8.8,3.2-8.8,7.1c0,3.2,2.6,5.9,6.2,6.8l0,0c-3.6,0.9-6.2,3.6-6.2,6.8c0,3.9,4,7.1,8.8,7.1
	c2.9,0,5.5-1.1,7.1-2.9l0,0c-0.3,0.8-0.5,1.5-0.5,2.4c0,3.9,4,7.1,8.8,7.1c4.9,0,8.8-3.2,8.8-7.1c0-1-0.2-1.9-0.6-2.7l0,0
	c1.6,1.9,4.3,3.1,7.3,3.1C124.3,188.2,128.2,185,128.2,181z M118.9,121.5c0-2.2-2.3-4.1-5.5-4.6c3.1-0.5,5.3-2.4,5.3-4.6
	c0-2.7-3.2-4.8-7.2-4.8c-2.4,0-4.5,0.8-5.8,2l0,0c0.3-0.5,0.5-1.1,0.5-1.7c0-2.6-3.2-4.8-7.2-4.8s-7.2,2.1-7.2,4.8
	c0,0.7-1.2,0.1-0.8,0.6c-1.3-1.2-2.1-0.8-4.5-0.8c-4,0-7.2,2.1-7.2,4.8c0,2.2,2.1,4,5.1,4.6l0,0c-2.9,0.6-5,2.4-5,4.6
	c0,2.6,3.2,4.8,7.2,4.8c2.4,0,4.4-0.8,5.8-1.9c-0.3,0.5-0.4,1-0.4,1.6c0,2.6,3.2,4.8,7.2,4.8s7.2-2.1,7.2-4.8c0-0.6-0.2-1.2-0.5-1.8
	l0,0c1.3,1.3,3.5,2.1,6,2.1C115.7,126.3,118.9,124.1,118.9,121.5z M91.5,225.7c0-2.7-2.3-5-5.3-5.6c3-0.6,5.2-2.9,5.2-5.5
	c0-3.2-3.1-5.8-7-5.8c-2.3,0-4.4,0.9-5.7,2.4l0,0c0.3-0.6,0.5-1.3,0.5-2.1c0-3.2-3.1-5.8-7-5.8c-3.9,0-7,2.6-7,5.8
	c0,0.8,0.2,1.5,0.5,2.2h-0.1c-1.3-1.4-3.3-2.4-5.7-2.4c-3.9,0-7,2.6-7,5.8c0,2.6,2.1,4.8,4.9,5.5l0,0c-2.8,0.7-4.9,2.9-4.9,5.5
	c0,3.2,3.1,5.8,7,5.8c2.3,0,4.3-0.9,5.6-2.3l0,0c-0.3,0.6-0.4,1.3-0.4,1.9c0,3.2,3.1,5.8,7,5.8s7-2.6,7-5.8c0-0.8-0.2-1.5-0.5-2.2
	l0,0c1.3,1.5,3.4,2.5,5.8,2.5C88.4,231.5,91.5,228.9,91.5,225.7z M86.8,98.2c0-3.6-2.3-6.7-5.5-7.5c3.1-0.9,5.4-3.9,5.4-7.4
	c0-4.3-3.3-7.7-7.3-7.7c-2.4,0-4.6,1.3-5.9,3.2l0,0C73.8,77.9,74,77,74,76c0-4.3-3.3-7.7-7.3-7.7s-7.3,3.5-7.3,7.7
	c0,1,0.2,2,0.5,2.9h-0.1c-1.3-1.9-3.5-3.2-5.9-3.2c-4,0-7.3,3.5-7.3,7.7c0,3.5,2.2,6.4,5.1,7.4v0.1c-3,1-5.1,3.9-5.1,7.4
	c0,4.3,3.2,7.7,7.3,7.7c2.4,0,4.5-1.2,5.8-3.1l0,0c-0.3,0.8-0.4,1.7-0.4,2.6c0,4.3,3.3,7.7,7.3,7.7s7.3-3.4,7.3-7.7
	c0-1-0.2-2-0.5-2.9l0,0c1.3,2,3.5,3.4,6,3.4C83.5,105.9,86.8,102.5,86.8,98.2z M84.6,150.6c0-4.1-3-7.5-7.2-8.5c4-1,7-4.4,7-8.4
	c0-4.8-4.2-8.7-9.4-8.7c-3.1,0-5.9,1.4-7.6,3.6h-0.1c0.4-1,0.6-2,0.6-3.1c0-4.8-4.2-8.7-9.4-8.7s-9.4,3.9-9.4,8.7
	c0,1.2,0.3,2.3,0.7,3.3h-0.1c-1.7-2.2-4.5-3.6-7.6-3.6c-5.2,0-9.4,3.9-9.4,8.7c0,3.9,2.8,7.3,6.7,8.4v0.1c-3.8,1.1-6.6,4.4-6.6,8.3
	c0,4.8,4.2,8.7,9.4,8.7c3.1,0,5.8-1.4,7.6-3.5c-0.4,0.9-0.5,1.9-0.5,2.9c0,4.8,4.2,8.7,9.4,8.7c5.2,0,9.4-3.9,9.4-8.7
	c0-1.2-0.2-2.3-0.7-3.3l0,0c1.7,2.3,4.6,3.9,7.8,3.9C80.4,159.3,84.6,155.4,84.6,150.6z M67.5,193.3c0-2.9-1.8-5.3-4.3-5.9
	c2.4-0.7,4.2-3.1,4.2-5.9c0-3.4-2.5-6.1-5.7-6.1c-1.9,0-3.6,1-4.6,2.5l0,0c0.2-0.7,0.4-1.4,0.4-2.2c0-3.4-2.5-6.1-5.7-6.1
	c-3.1,0-5.7,2.7-5.7,6.1c0,0.8,0.2,1.6,0.4,2.3l0,0c-1-1.5-2.7-2.5-4.6-2.5c-3.1,0-5.7,2.7-5.7,6.1c0,2.7,1.7,5.1,4,5.8l0,0
	c-2.3,0.8-4,3.1-4,5.8c0,3.4,2.5,6.1,5.7,6.1c1.9,0,3.5-1,4.5-2.4l0,0c-0.2,0.6-0.3,1.3-0.3,2c0,3.4,2.5,6.1,5.7,6.1
	c3.1,0,5.7-2.7,5.7-6.1c0-0.8-0.1-1.6-0.4-2.3l0,0c1,1.6,2.8,2.7,4.7,2.7C64.9,199.4,67.5,196.7,67.5,193.3z M42.8,224.8
	c0-3.4-1.9-6.3-4.5-7c2.5-0.8,4.4-3.7,4.4-7c0-4-2.7-7.3-5.9-7.3c-2,0-3.7,1.2-4.8,3l0,0c0.3-0.8,0.4-1.7,0.4-2.6
	c0-4-2.6-7.2-5.9-7.2s-5.9,3.2-5.9,7.2c0,1,0.1,1.9,0.4,2.8l0,0c-1.1-1.8-2.8-3-4.8-3c-3.3,0-5.9,3.2-5.9,7.2c0,3.3,1.8,6,4.2,6.9
	l0,0c-2.4,0.9-4.1,3.7-4.1,6.9c0,4,2.6,7.2,5.9,7.2c1.9,0,3.7-1.1,4.7-2.9c-0.2,0.8-0.3,1.6-0.3,2.4c0,4,2.7,7.2,5.9,7.2
	c3.2,0,5.9-3.2,5.9-7.2c0-1-0.2-1.9-0.5-2.7l0,0c1.1,1.9,2.9,3.2,4.9,3.2C40.1,232,42.8,228.8,42.8,224.8z M41.9,112.4
	c0-3-2.2-5.6-5.1-6.3c2.9-0.7,5-3.2,5-6.2c0-3.6-3-6.4-6.8-6.4c-2.3,0-4.3,1-5.5,2.7l0,0c0.3-0.7,0.5-1.5,0.5-2.3
	c0-3.6-3-6.4-6.8-6.4c-3.7,0-6.8,2.9-6.8,6.4c0,0.9,0.2,1.7,0.5,2.4h-0.1c-1.2-1.6-3.2-2.6-5.5-2.6c-3.7,0-6.8,2.9-6.8,6.4
	c0,2.9,2,5.4,4.8,6.2l0,0c-2.8,0.8-4.7,3.3-4.7,6.1c0,3.6,3,6.4,6.8,6.4c2.2,0,4.2-1,5.4-2.6l0,0c-0.3,0.7-0.4,1.4-0.4,2.2
	c0,3.6,3,6.4,6.8,6.4c3.7,0,6.8-2.9,6.8-6.4c0-0.9-0.2-1.7-0.5-2.4l0,0c1.2,1.7,3.3,2.8,5.6,2.8C38.9,118.8,41.9,116,41.9,112.4z
	 M31.5,162.1c0-4.5-1.7-8.3-4-9.4c2.2-1.1,3.9-4.8,3.9-9.3c0-5.3-2.3-9.6-5.2-9.6c-1.7,0-3.3,1.6-4.2,4l0,0c0.2-1.1,0.3-2.2,0.3-3.5
	c0-5.3-2.3-9.6-5.2-9.6s-5.2,4.3-5.2,9.6c0,1.3,0.1,2.5,0.4,3.7l0,0c-0.9-2.4-2.5-4-4.2-4c-2.9,0-5.2,4.3-5.2,9.6
	c0,4.3,1.6,8,3.7,9.2v0.1c-2.1,1.2-3.6,4.9-3.6,9.2c0,5.3,2.3,9.6,5.2,9.6c1.7,0,3.2-1.5,4.1-3.9c-0.2,1-0.3,2.1-0.3,3.2
	c0,5.3,2.3,9.6,5.2,9.6c2.9,0,5.2-4.3,5.2-9.6c0-1.3-0.1-2.5-0.4-3.6l0,0c0.9,2.6,2.5,4.2,4.3,4.2C29.2,171.7,31.5,167.4,31.5,162.1
	z"/>
<path fill="#FFFFFF" stroke="#000000" stroke-width="0.5" d="M121.5,174.1c3.9,0.8,6.7,3.6,6.7,6.9c0,3.9-4,7.1-8.8,7.1
	c-3,0-5.7-1.3-7.3-3.1l0,0c0.4,0.8,0.6,1.7,0.6,2.7c0,3.9-4,7.1-8.8,7.1c-4.9,0-8.8-3.2-8.8-7.1c0-0.8,0.2-1.6,0.5-2.4l0,0
	c-1.6,1.7-4.2,2.9-7.1,2.9c-4.9,0-8.8-3.2-8.8-7.1c0-3.2,2.6-5.9,6.2-6.8l0,0c-3.6-0.9-6.2-3.6-6.2-6.8c0-3.9,3.9-7.1,8.8-7.1
	c2.9,0,5.5,1.2,7.1,2.9h0.1c-0.4-0.8-0.6-1.7-0.6-2.7c0-3.9,4-7.1,8.8-7.1c4.9,0,8.8,3.2,8.8,7.1c0,0.9-0.2,1.8-0.6,2.5h0.1
	c1.6-1.8,4.2-2.9,7.1-2.9c4.9,0,8.8,3.2,8.8,7.1C128,170.5,125.3,173.3,121.5,174.1z M115.1,174.3c0-5-5-9.1-11.3-9.1
	c-6.2,0-11.3,4.1-11.3,9.1s5,9.1,11.3,9.1C110.1,183.3,115.1,179.3,115.1,174.3z"/>
<path fill="#FFFFFF" stroke="#000000" stroke-width="0.5" d="M113.5,116.8c3.1,0.5,5.5,2.4,5.5,4.6c0,2.6-3.2,4.8-7.2,4.8
	c-2.5,0-4.7-0.8-6-2.1l0,0c0.3,0.5,0.5,1.2,0.5,1.8c0,2.6-3.2,4.8-7.2,4.8s-7.2-2.1-7.2-4.8c0-0.6,0.1-1.1,0.4-1.6
	c-1.3,1.2-3.4,1.9-5.8,1.9c-4,0-7.2-2.1-7.2-4.8c0-2.1,2.1-4,5-4.6l0,0c-2.9-0.6-5.1-2.4-5.1-4.6c0-2.6,3.2-4.8,7.2-4.8
	c2.4,0,3.2-0.4,4.5,0.8c-0.4-0.6,0.8,0,0.8-0.6c0-2.6,3.2-4.8,7.2-4.8s7.2,2.1,7.2,4.8c0,0.6-0.2,1.2-0.5,1.7l0,0
	c1.3-1.2,3.4-2,5.8-2c4,0,7.2,2.1,7.2,4.8C118.8,114.4,116.5,116.3,113.5,116.8z M108.3,116.9c0-3.4-4.1-6.1-9.2-6.1
	s-9.2,2.7-9.2,6.1s4.1,6.1,9.2,6.1C104.1,123,108.3,120.3,108.3,116.9z"/>
<ellipse fill="#FFFFFF" stroke="#000000" stroke-width="0.5" cx="103.8" cy="174.3" rx="11.3" ry="9.1"/>
<path fill="#FFFFFF" stroke="#000000" stroke-width="0.5" d="M99.1,110.8c5.1,0,9.2,2.7,9.2,6.1s-4.1,6.1-9.2,6.1s-9.2-2.7-9.2-6.1
	S94,110.8,99.1,110.8z"/>
<path fill="#FFFFFF" stroke="#000000" stroke-width="0.5" d="M93.8,354.8c1.3,5.5,1.8,11,1.8,16.3c-48.8,23.2-86.4-0.699-89-2.8H6.5
	c0.1-6.5,1.2-13.3,3.6-20.2l0.5,0.2c0,0,35.3,29.3,82.7,6.7L93.8,354.8z"/>
<path fill="#FFFFFF" stroke="#000000" stroke-width="0.5" d="M93.8,354.8l-0.6,0.101c-47.3,22.699-82.7-6.7-82.7-6.7L10,348
	c2.4-7,6.3-14.2,11.9-21.2c0,0,13.3-9.3,1.3-30h19.3h8.2v0.3h10.5h17.5c-12,20.7,1.3,30,1.3,30C87.4,336.4,91.7,345.7,93.8,354.8z"
	/>
<path fill="#FFFFFF" stroke="#000000" stroke-width="0.5" d="M95.6,371.1c-0.1,7.301-1.3,14.301-3.1,20.7l-0.9-0.2
	C44.3,414.3,8.9,384.9,8.9,384.9L8,385.1c-1.1-5.3-1.7-11-1.6-16.8h0.1C9.1,370.4,46.8,394.3,95.6,371.1z"/>
<path fill="#FFFFFF" stroke="#000000" stroke-width="0.5" d="M91.6,391.6l0.9,0.2c-5.7,20-17,34.101-17,34.101v0.399l-48.9-0.1v-0.7
	c0,0-13.8-17.1-18.6-40.5l0.9-0.2C8.9,384.9,44.3,414.3,91.6,391.6z"/>
<path fill="#FFFFFF" stroke="#000000" stroke-width="0.5" d="M65.6,211.3c-0.3-0.7-0.5-1.4-0.5-2.2c0-3.2,3.1-5.8,7-5.8s7,2.6,7,5.8
	c0,0.7-0.2,1.4-0.5,2.1l0,0c1.3-1.4,3.3-2.4,5.7-2.4c3.9,0,7,2.6,7,5.8c0,2.7-2.2,4.9-5.2,5.5c3.1,0.6,5.3,2.9,5.3,5.6
	c0,3.2-3.1,5.8-7,5.8c-2.4,0-4.5-1-5.8-2.5l0,0c0.3,0.7,0.5,1.4,0.5,2.2c0,3.2-3.1,5.8-7,5.8s-7-2.6-7-5.8c0-0.7,0.1-1.3,0.4-1.9
	l0,0c-1.3,1.4-3.3,2.3-5.6,2.3c-3.9,0-7-2.6-7-5.8c0-2.6,2.1-4.8,4.9-5.5l0,0c-2.9-0.7-4.9-2.9-4.9-5.5c0-3.2,3.1-5.8,7-5.8
	C62.3,209,64.3,209.9,65.6,211.3L65.6,211.3z M81.1,220.3c0-4-4-7.3-8.9-7.3c-4.9,0-8.9,3.3-8.9,7.3s4,7.3,8.9,7.3
	C77.1,227.6,81.1,224.3,81.1,220.3z"/>
<path fill="#FFFFFF" stroke="#000000" stroke-width="0.5" d="M59.9,102.9L59.9,102.9c-1.3,1.9-3.4,3.1-5.8,3.1c-4,0-7.3-3.4-7.3-7.7
	c0-3.5,2.1-6.4,5.1-7.4v-0.1c-3-1-5.1-3.9-5.1-7.4c0-4.3,3.3-7.7,7.3-7.7c2.4,0,4.6,1.3,5.9,3.2h0.1C59.6,78,59.5,77,59.5,76
	c0-4.3,3.3-7.7,7.3-7.7s7.3,3.5,7.3,7.7c0,1-0.2,1.9-0.5,2.8l0,0c1.3-1.9,3.5-3.2,5.9-3.2c4,0,7.3,3.4,7.3,7.7
	c0,3.6-2.3,6.5-5.4,7.4c3.2,0.8,5.5,3.9,5.5,7.5c0,4.3-3.3,7.7-7.3,7.7c-2.5,0-4.7-1.4-6-3.4l0,0c0.4,0.9,0.5,1.9,0.5,2.9
	c0,4.3-3.3,7.7-7.3,7.7s-7.3-3.4-7.3-7.7C59.5,104.5,59.7,103.7,59.9,102.9z M76,90.9c0-5.4-4.1-9.8-9.3-9.8c-5.2,0-9.3,4.4-9.3,9.8
	s4.1,9.8,9.3,9.8C71.9,100.7,76,96.3,76,90.9z"/>
<path fill="#FFFFFF" stroke="#000000" stroke-width="0.5" d="M49.7,155.9c-1.7,2.1-4.5,3.5-7.6,3.5c-5.2,0-9.4-3.9-9.4-8.7
	c0-3.9,2.8-7.2,6.6-8.3v-0.1c-3.9-1.1-6.7-4.4-6.7-8.4c0-4.8,4.2-8.7,9.4-8.7c3.1,0,5.9,1.4,7.6,3.6h0.1c-0.4-1-0.7-2.1-0.7-3.3
	c0-4.8,4.2-8.7,9.4-8.7c5.2,0,9.4,3.9,9.4,8.7c0,1.1-0.2,2.1-0.6,3.1h0.1c1.7-2.2,4.5-3.6,7.6-3.6c5.2,0,9.4,3.9,9.4,8.7
	c0,4.1-3,7.4-7,8.4c4.1,0.9,7.2,4.4,7.2,8.5c0,4.8-4.2,8.7-9.4,8.7c-3.3,0-6.1-1.5-7.8-3.9l0,0c0.4,1,0.7,2.1,0.7,3.3
	c0,4.8-4.2,8.7-9.4,8.7c-5.2,0-9.4-3.9-9.4-8.7C49.2,157.8,49.4,156.8,49.7,155.9z M70.6,142.3c0-6.1-5.4-11.1-12-11.1
	s-12,5-12,11.1c0,6.1,5.4,11.1,12,11.1C65.3,153.4,70.6,148.4,70.6,142.3z"/>
<path fill="#FFFFFF" stroke="#000000" stroke-width="0.5" d="M72.2,212.9c4.9,0,8.9,3.3,8.9,7.3s-4,7.3-8.9,7.3
	c-4.9,0-8.9-3.3-8.9-7.3S67.3,212.9,72.2,212.9z"/>
<path fill="#FFFFFF" stroke="#000000" stroke-width="0.5" d="M66.8,81c5.1,0,9.3,4.4,9.3,9.8c0,5.4-4.1,9.8-9.3,9.8
	c-5.2,0-9.3-4.4-9.3-9.8C57.5,85.5,61.7,81,66.8,81z"/>
<path fill="#FFFFFF" stroke="#000000" stroke-width="0.5" d="M58.6,131.1c6.6,0,12,5,12,11.1c0,6.1-5.4,11.1-12,11.1s-12-5-12-11.1
	C46.6,136.1,52,131.1,58.6,131.1z"/>
<path fill="#FFFFFF" stroke="#000000" stroke-width="0.5" d="M46.4,197L46.4,197c-1,1.5-2.7,2.4-4.6,2.4c-3.1,0-5.7-2.7-5.7-6.1
	c0-2.7,1.7-5.1,4-5.8l0,0c-2.3-0.8-4-3.1-4-5.8c0-3.4,2.6-6.1,5.7-6.1c1.9,0,3.6,1,4.6,2.5l0,0c-0.3-0.7-0.4-1.5-0.4-2.3
	c0-3.4,2.6-6.1,5.7-6.1c3.1,0,5.7,2.7,5.7,6.1c0,0.8-0.1,1.5-0.4,2.2l0,0c1-1.5,2.7-2.5,4.6-2.5c3.1,0,5.7,2.7,5.7,6.1
	c0,2.8-1.8,5.2-4.2,5.9c2.5,0.6,4.3,3,4.3,5.9c0,3.4-2.5,6.1-5.7,6.1c-2,0-3.7-1.1-4.7-2.7l0,0c0.3,0.7,0.4,1.5,0.4,2.3
	c0,3.4-2.5,6.1-5.7,6.1c-3.1,0-5.7-2.7-5.7-6.1C46.1,198.3,46.2,197.6,46.4,197z M59,187.5c0-4.3-3.3-7.8-7.3-7.8s-7.3,3.5-7.3,7.8
	s3.3,7.8,7.3,7.8S59,191.8,59,187.5z"/>
<path fill="#FFFFFF" stroke="#000000" stroke-width="0.5" d="M50.8,296.9h-8.2l2-54c0,0,12,10.7,20.7,2.7l-4,50.7v1H50.8V296.9z"/>
<path fill="#FFFFFF" stroke="#000000" stroke-width="0.5" d="M51.8,179.7c4,0,7.3,3.5,7.3,7.8s-3.3,7.8-7.3,7.8s-7.3-3.5-7.3-7.8
	S47.8,179.7,51.8,179.7z"/>
<path fill="#FFFFFF" stroke="#000000" stroke-width="0.5" d="M44.6,242.9l-2,54H23.3c12,20.699-1.3,30-1.3,30
	c-5.6,7-9.4,14.1-11.9,21.199C7.7,355,6.7,361.7,6.5,368.3C6.3,374.1,7,379.8,8,385.1c4.7,23.4,18.6,40.5,18.6,40.5v0.7H0.3V217.6
	C0.3,248.3,44.6,242.9,44.6,242.9z"/>
<path fill="#FFFFFF" stroke="#000000" stroke-width="0.5" d="M31.9,228.8c0.3,0.9,0.5,1.8,0.5,2.7c0,4-2.6,7.2-5.9,7.2
	s-5.9-3.2-5.9-7.2c0-0.9,0.1-1.7,0.3-2.4c-1.1,1.8-2.8,2.9-4.7,2.9c-3.3,0-5.9-3.2-5.9-7.2c0-3.3,1.8-6,4.1-6.9l0,0
	c-2.4-0.9-4.2-3.7-4.2-6.9c0-4,2.6-7.2,5.9-7.2c2,0,3.7,1.2,4.8,3l0,0c-0.3-0.9-0.4-1.8-0.4-2.8c0-4,2.6-7.2,5.9-7.2
	c3.3,0,5.9,3.2,5.9,7.2c0,0.9-0.1,1.8-0.4,2.6l0,0c1.1-1.8,2.8-3,4.8-3c3.3,0,5.9,3.3,5.9,7.3c0,3.3-1.9,6.2-4.4,7
	c2.6,0.8,4.5,3.6,4.5,7c0,4-2.6,7.2-5.9,7.2C34.8,232,33,230.8,31.9,228.8L31.9,228.8z M34,217.9c0-5.1-3.4-9.2-7.5-9.2
	c-4.2,0-7.6,4.1-7.6,9.2s3.4,9.2,7.6,9.2C30.6,227.1,34,223,34,217.9z"/>
<path fill="#FFFFFF" stroke="#000000" stroke-width="0.5" d="M36.8,106.1c3,0.7,5.1,3.2,5.1,6.3c0,3.6-3,6.4-6.8,6.4
	c-2.3,0-4.4-1.1-5.6-2.8l0,0c0.3,0.8,0.5,1.6,0.5,2.4c0,3.6-3,6.4-6.8,6.4c-3.7,0-6.8-2.9-6.8-6.4c0-0.8,0.1-1.5,0.4-2.2l0,0
	c-1.2,1.6-3.2,2.6-5.4,2.6c-3.7,0-6.8-2.9-6.8-6.4c0-2.9,2-5.3,4.7-6.1l0,0c-2.8-0.8-4.8-3.3-4.8-6.2c0-3.6,3-6.4,6.8-6.4
	c2.2,0,4.2,1,5.5,2.6h0.1c-0.3-0.8-0.5-1.6-0.5-2.4c0-3.6,3-6.4,6.8-6.4c3.7,0,6.8,2.9,6.8,6.4c0,0.8-0.2,1.6-0.5,2.3l0,0
	c1.2-1.6,3.2-2.7,5.5-2.7c3.7,0,6.8,2.9,6.8,6.4C41.8,102.9,39.6,105.4,36.8,106.1z M23.2,114.5c4.8,0,8.6-3.7,8.6-8.2
	S28,98,23.2,98c-4.8,0-8.6,3.7-8.6,8.2S18.5,114.5,23.2,114.5z"/>
<path fill="#FFFFFF" stroke="#000000" stroke-width="0.5" d="M26.4,208.6c4.2,0,7.5,4.1,7.5,9.2c0,5.1-3.4,9.2-7.5,9.2
	c-4.2,0-7.6-4.1-7.6-9.2C18.8,212.7,22.3,208.6,26.4,208.6z"/>
<path fill="#FFFFFF" stroke="#000000" stroke-width="0.5" d="M27.6,152.8c2.3,1,4,4.8,4,9.4c0,5.3-2.3,9.6-5.2,9.6
	c-1.8,0-3.4-1.7-4.3-4.2l0,0c0.3,1.1,0.4,2.4,0.4,3.6c0,5.3-2.3,9.6-5.2,9.6c-2.9,0-5.2-4.3-5.2-9.6c0-1.1,0.1-2.2,0.3-3.2
	c-1,2.3-2.5,3.9-4.1,3.9c-2.9,0-5.2-4.3-5.2-9.6c0-4.3,1.5-8,3.6-9.2V153c-2.1-1.2-3.7-4.9-3.7-9.2c0-5.3,2.3-9.6,5.2-9.6
	c1.7,0,3.3,1.6,4.2,4l0,0c-0.3-1.1-0.4-2.4-0.4-3.7c0-5.3,2.3-9.6,5.2-9.6c2.9,0,5.2,4.3,5.2,9.6c0,1.2-0.1,2.4-0.3,3.5l0,0
	c0.9-2.4,2.5-4,4.2-4c2.9,0,5.2,4.3,5.2,9.6C31.4,147.9,29.8,151.7,27.6,152.8z M17.2,165.2c3.7,0,6.6-5.5,6.6-12.3
	c0-6.8-3-12.3-6.6-12.3c-3.7,0-6.6,5.5-6.6,12.3C10.6,159.7,13.5,165.2,17.2,165.2z"/>
<path fill="#FFFFFF" stroke="#000000" stroke-width="0.5" d="M31.9,106.3c0,4.5-3.9,8.2-8.6,8.2c-4.8,0-8.6-3.7-8.6-8.2
	s3.9-8.2,8.6-8.2C28,98,31.9,101.7,31.9,106.3z"/>
<path fill="#FFFFFF" stroke="#000000" stroke-width="0.5" d="M23.8,152.9c0,6.8-3,12.3-6.6,12.3c-3.7,0-6.6-5.5-6.6-12.3
	c0-6.8,3-12.3,6.6-12.3C20.9,140.6,23.8,146.1,23.8,152.9z"/>
<line fill="none" stroke="#000000" stroke-width="0.25" x1="315.3" y1="285.3" x2="355.1" y2="269.6"/>
<line fill="none" stroke="#000000" stroke-width="0.25" x1="324.3" y1="313.3" x2="361.3" y2="280.8"/>
<line fill="none" stroke="#000000" stroke-width="0.25" x1="387.3" y1="304.3" x2="384.3" y2="284.8"/>
<line fill="none" stroke="#000000" stroke-width="0.25" x1="438.3" y1="281.3" x2="398.8" y2="270.3"/>
<line fill="none" stroke="#000000" stroke-width="0.25" x1="467.3" y1="260.3" x2="407.3" y2="257.8"/>
<line fill="none" stroke="#000000" stroke-width="0.25" x1="502.3" y1="168.8" x2="493.3" y2="176.6"/>
<path fill="none" stroke="#000000" stroke-width="0.25" d="M365.9,126.2c0-0.3,0.199-0.6,0.5-0.6c0.3,0,0.5,0.3,0.5,0.6"/>
<path fill="none" stroke="#000000" stroke-width="0.25" d="M382.1,125.9c0.301,0,0.601,0.2,0.601,0.5c0,0.3-0.3,0.5-0.601,0.5"/>
<line fill="none" stroke="#000000" stroke-width="0.25" x1="356.3" y1="97.8" x2="355.5" y2="85.5"/>
<line fill="none" stroke="#000000" stroke-width="0.25" x1="372.5" y1="85.8" x2="372.3" y2="99.3"/>
<line fill="none" stroke="#000000" stroke-width="0.25" x1="390.5" y1="84.5" x2="390.3" y2="97"/>
<path fill="none" stroke="#000000" stroke-width="0.25" d="M372.9,135.3c0,0-1-0.3-1,0.5"/>
<path fill="none" stroke="#000000" stroke-width="0.25" d="M374.6,135.3c0,0,1.101-0.3,1,0.9"/>
<line fill="none" stroke="#000000" stroke-width="0.25" x1="243.1" y1="257.6" x2="254.9" y2="252.9"/>
<path fill="none" stroke="#000000" stroke-width="0.25" d="M492.1,174.8c2.7-2.4,5.301-4.4,7.2-5.5"/>
<path fill="none" stroke="#000000" stroke-width="0.25" d="M243.3,260.8c4-3,14.3-5.6,14.3-5.6"/>
<path fill="none" stroke="#000000" stroke-width="0.25" d="M259.3,257.6c-5.5,0.8-12.3,5-15.6,6"/>
<line fill="none" stroke="#000000" stroke-width="0.25" x1="490.6" y1="183.9" x2="492.9" y2="181.9"/>
<path fill="none" stroke="#000000" stroke-width="0.25" d="M375.1,135.5c-1.3-3.4-2.8-0.3-2.8-0.3"/>
<path fill="none" stroke="#000000" stroke-width="0.25" d="M360.8,122.1c0,0,2,2.2,2.9,2"/>
<path fill="none" stroke="#000000" stroke-width="0.25" d="M362.6,122.1c0,0,0.5,1.2,2.2,1.7"/>
<path fill="none" stroke="#000000" stroke-width="0.25" d="M360.1,123.8c0,0,1,0.8,2.5,0.9"/>
<path fill="none" stroke="#000000" stroke-width="0.25" d="M387.6,123c0,0,0,1.4-1.6,1.4"/>
<path fill="none" stroke="#000000" stroke-width="0.25" d="M387.1,121.6c0,0-0.6,1.9-1.8,2.1"/>
<path fill="none" stroke="#000000" stroke-width="0.25" d="M385.3,121.6c0,0-0.7,2-2,2.1"/>
</svg>
