<?xml version="1.0" encoding="utf-8"?>
<!-- Generator: Adobe Illustrator 15.0.0, SVG Export Plug-In . SVG Version: 6.00 Build 0)  -->
<!DOCTYPE svg PUBLIC "-//W3C//DTD SVG 1.1//EN" "http://www.w3.org/Graphics/SVG/1.1/DTD/svg11.dtd">
<svg version="1.1" id="layer_x5F_www.ABC-color.com"
	 xmlns="http://www.w3.org/2000/svg" xmlns:xlink="http://www.w3.org/1999/xlink" x="0px" y="0px" width="822px" height="567px"
	 viewBox="0 0 822 567" enable-background="new 0 0 822 567" xml:space="preserve">
<polyline fill="#FFFFFF" points="0,0 822,0 822,567 "/>
<path fill="#FFFFFF" stroke="#000000" stroke-miterlimit="10" d="M415.7,103.5c-0.4,0.3-0.9,0.5-1.3,0.5c-0.802,0-1.5-0.5-2-1.3
	c-0.7-1.1-1.2-2.8-1.2-4.6c0-2.4,0.8-4.6,1.898-5.5c0.4-0.3,0.802-0.5,1.2-0.5c1.8,0,3.2,2.6,3.2,5.9
	C417.5,100.5,416.8,102.5,415.7,103.5z"/>
<path fill="#FFFFFF" stroke="#000000" stroke-miterlimit="10" d="M413.9,44.3c0,0,0,0.7-0.4,0.9c-0.4,0.1-0.8,0.2-1.2,0.3l0,0
	c-1.1,0-1.7-0.7-1.7-1.6s0.9-1.7,2-1.7C413.6,43,413.9,44.3,413.9,44.3z"/>
<path fill="#FFFFFF" stroke="#000000" stroke-miterlimit="10" d="M412.6,42.1c-1.1,0-2,0.8-2,1.7c0,0.9,0.602,1.6,1.7,1.6
	c-4.5,0.9-5.898-2.2-5.898-2.2C409.6,40.8,411.5,41.2,412.6,42.1z"/>
<path fill="#FFFFFF" stroke="#000000" stroke-miterlimit="10" d="M695.5,172.9L695.5,172.9c-0.7-5.5,5.1-6.6,8.3-6.8
	c1.2-0.1,2,0,2,0c19.2,3,20.5-11.3,20.5-11.3c0.102-6.4,4.602-8.2,5.9-8.6c-3.3,1.3,2,8.5,2,8.5c9.1-12.2,15.1-4.5,15.1-4.5
	c-5.7-3.1-8.898,11-8.898,11c20.1-12.4,30.1,8,30.6,9c-1.5-3-5.9-0.2-5.9-0.2c10.102,4.5,7.7,18.2,7.7,18.2
	c-6.7-10.1-26.2-6.5-26.2-6.5c12,5.6,16.2,23.8,16.2,23.8c-4.1-4.7-7.1-0.2-7.1-0.2c8.7,11.6,16.5,1.6,16.5,1.6
	c3-8,13.1-5.6,13.1-5.6c10,0.8,5.602,15.7,5.602,15.7c-1.802-11.9-9.7-5.8-9.7-5.8c0.8,18.4-11.602,17.6-11.602,17.6
	c-8.5-1.2-15.198-4.7-18-6.4c-0.398-0.3-0.8-0.6-1.3-0.8c0.2,0.1,0.7,0.4,1.3,0.8c17.2,12-12.698,28.2-12.698,28.2
	c-23.5,6.3-18.9,13-18.9,13c22.8,6.7,24.8-3.9,24.8-3.9s0.3-7.5,1.4-0.1c1,7.4-8.2,10.4-8.2,10.4c-47,7.9-19-18-19-18
	c13.2-7.3,12.1-11.2,12.1-11.2c-1-18.6-19.1-16.4-19.1-16.4s-10.9-10.7-5.8-20.5c-0.3-0.7-3.9-6.5-2.102-8c3.7-3,17.9-2,17.9-2
	c2.7,0.3,3.8,1.1,1.9-1.4c-10.5-13.6-23.9-9.2-23.7-10.5c0,0,3.3-2.8-0.8-5.4c-0.2,0.1-0.4,0.2-0.602,0.3l-0.1-0.1
	C698.8,176.9,696.5,173.6,695.5,172.9z"/>
<path fill="#FFFFFF" stroke="#000000" stroke-miterlimit="10" d="M758.7,126.7c-30.5-12.8-34.102,1.1-34.102,1.1
	c-1.1,23.6-37.5,28.7-37.5,28.7c1.802,5.9,15.5,9.3,16.802,9.6c-3.2,0.2-9,1.3-8.302,6.7l-0.1,0.1c-7.5-6-43.6-33.3-78.3-28.5
	c-0.4-0.9-1-1.8-1.7-2.7c-7-8.7,13.4-12.5,13.4-12.5c1.3-1.7,3.698-3.5,6.698-5.3c11.9-7.3,32.9-14.6,32.9-14.6
	c2-3.1,13.5-5.2,13.5-5.2c28-5.3,30,1.3,30,1.3c-5.3-2.7-21.3,0-21.3,0c-18.101,5.3-13.101,29.7-12.2,30.3c14,11,37.6-13,37.6-13
	C735.7,104.8,758.7,126.7,758.7,126.7z"/>
<path fill="#FFFFFF" stroke="#000000" stroke-miterlimit="10" d="M724,192.5c1.9,2.5,0.8,1.6-1.9,1.4c0,0-14.198-1-17.898,2
	c-1.8,1.4,1.8,7.3,2.1,8c-5.1,9.8,5.8,20.5,5.8,20.5c-0.5,2.1-2.1,5-4.1,8h-0.5c0.9-3.3-3.6-4.2-3.6-4.2c1.198-3.6-2.302-5-2.302-5
	c2.4-3.3-1.698-4.2-1.698-4.2c2.1-3-2.102-5-2.102-5c1.4-3-2.1-4-2.1-4c1.2-2-2.102-3.5-2.102-3.5c1.802-2.9-1-4.4-1-4.4
	c1.102-2.5-1.3-3.3-1.3-3.3c0.9-2.3-1.7-3.1-1.7-3.1c0.2-6,10.7-13.7,10.7-13.7C700,183.3,713.4,178.9,724,192.5z"/>
<path fill="#FFFFFF" stroke="#000000" stroke-miterlimit="10" d="M640.9,267.5c0,0.1,0,0.1,0,0.2c-0.5-0.4-2.602-2.5-1.102-4.6
	c0.102-0.1,0.102-0.2,0.2-0.2c0.3-0.4,14.4,6.8,15.3,5.4c0,0-3.398-16,3.4-41.6c0,0,15.898-35.9,40.1-49.6
	c0.2-0.1,0.4-0.2,0.602-0.3c4.1,2.6,0.8,5.4,0.8,5.4s-10.5,7.7-10.7,13.7c0,0,2.6,0.9,1.7,3.1c0,0,2.398,0.8,1.3,3.3
	c0,0,2.8,1.5,1,4.4c0,0,3.3,1.5,2.1,3.5c0,0,3.5,1,2.102,4c0,0,4.2,2,2.1,5c0,0,4.102,0.9,1.7,4.2c0,0,3.5,1.4,2.3,5
	c0,0,4.5,0.9,3.602,4.2h0.5c-0.802,1.1-1.602,2.3-2.5,3.5H705.3c-5-0.3-3.8-5.9-3.8-5.9c-3.5-1.3-2.4-4.9-2.4-4.9
	c-4.1-0.2-2.198-3.9-2.198-3.9c-3.7-0.3-2.5-4.8-2.5-4.8c-3.2-0.8-1.802-4.2-1.802-4.2c-2.3-0.3-1.398-3.8-1.398-3.8
	c-3.3-0.4-2.7-3.6-2.7-3.6c-2.6-0.8-1.7-3.1-1.7-3.1c-2.3-0.7-1.399-3.3-1.399-3.3c-33.5,31.8-26,70.4-26,70.4s9.301,5,17,3.5
	l0.199,0.1c0,0.1-0.1,0.2-0.1,0.2c0.5,1.1,0.2,2.7-1.3,3.5c0-0.1,0-0.1,0.1-0.2h-0.1c0,0-7.3,2.8-16.3-1.7l-0.602,5.5l-0.3,2.5
	c0,0-0.1,0-0.2,0c-0.5,0-1.6,0-2.1-0.2c-0.4-0.2-1.602-0.6-1.602-0.6c0-0.1,0-0.2,0.102-0.2c0.2-0.7,0.398-1.5,0.6-2.2
	c0.5-2.1,0.8-4.3,0.5-6.2c0,0-12.3-4.1-14.398-5.2L640.9,267.5L640.9,267.5z"/>
<path fill="#FFFFFF" stroke="#000000" stroke-miterlimit="10" d="M705.3,235.8L705.3,235.8c-6.1,8.1-14.1,16.3-14.1,16.3
	c-6.9,4.8-11.5,12.4-14.602,20.3l-0.198-0.1c-7.7,1.5-17-3.5-17-3.5s-7.5-38.5,26-70.4c0,0-0.9,2.5,1.398,3.3c0,0-0.898,2.3,1.7,3.1
	c0,0-0.6,3.2,2.7,3.6c0,0-0.9,3.5,1.398,3.8c0,0-1.398,3.3,1.802,4.2c0,0-1.102,4.5,2.5,4.8c0,0-1.9,3.7,2.198,3.9
	c0,0-1.1,3.5,2.4,4.9C701.6,229.9,700.4,235.5,705.3,235.8z M676.5,238.5c0,0,16.8-6.1,5.6-23.3h-1.5
	C680.7,215.2,673.1,223.2,676.5,238.5z"/>
<path fill="#FFFFFF" stroke="#000000" stroke-miterlimit="10" d="M508.2,205.3c1.3-1.1,2.6-2.3,3.898-3.6c1.2-1.2,2.4-2.4,3.802-3.7
	c15,9.3,34.698,2.7,34.698,2.7l16.802,3.6c0,0-11.9-7.1-11-7.8c0.6-0.5,19.398,2.9,18.8,2.4c-2.7-2.5-10.5-3.3-11-6.4
	c-1-5.3,13-1,10.398-2.8c0,0-15.1-2.5-19.398-2.7c-2.5-0.2,11.7-3.2,11.7-3.2s-28.4-2.6-11.5-9c0,0,5.3-3.5,18.198,3.5
	c0,0,4.802,4.8,12.4,17.6c0,0,4.9,6.1,21.9-1.7c-0.5,0.1-10.9,2.4-15.7,0.5c0,0-14.102-16,8.898-13.6c0,0,21.302,1,18.802,9.4
	c0,0,9.6-5.8-14.102-15.3c0,0-16.5-17,11.602-18.5c0,0,2.8-6.3-0.302-12.4c34.7-4.7,70.802,22.5,78.302,28.5
	c0.898,0.8,3.198,4,3.198,4l0.102,0.1c-24.2,13.8-40.102,49.6-40.102,49.6c-6.8,25.6-3.398,41.6-3.398,41.6
	c-0.9,1.4-15-5.8-15.3-5.4c-0.102,0.1-0.102,0.2-0.2,0.2l-0.102-0.1c-3.6-12.9-9.8-27.4-9.8-27.4c-4.8-10.3,14.2-25.3,15.7-26.5
	c-41.1,23.5-40.1,52-40.1,52c-0.801,4.7-4.4,11.3-9.9,19.3c-32-6.5-74-23.4-112-65.1C497.4,212.5,503.3,209.5,508.2,205.3z"/>
<path fill="#FFFFFF" stroke="#000000" stroke-miterlimit="10" d="M681.9,223.9c2,0,3.6,1.4,3.6,3.1s-1.6,3.2-3.6,3.2
	s-3.602-1.4-3.602-3.2C678.3,225.3,679.9,223.9,681.9,223.9z"/>
<path fill="#FFFFFF" stroke="#000000" stroke-miterlimit="10" d="M682.1,215.2c11.102,17.2-5.6,23.3-5.6,23.3
	c-3.4-15.3,4.2-23.3,4.2-23.3H682.1z M685.5,227c0-1.7-1.6-3.1-3.6-3.1s-3.602,1.4-3.602,3.1s1.602,3.2,3.602,3.2
	S685.5,228.8,685.5,227z"/>
<path id="www.ABC-color.com" fill="#FFFFFF" stroke="#000000" stroke-miterlimit="10" d="M675.3,275.8c0,0.1,0,0.1-0.1,0.2
	c-4.5,13.4-5,26.3-5,26.3C658.8,325.9,647.1,313.5,647.1,313.5c-2.3-1.5,1.7-15.7,1.7-15.7l-0.1-0.1c0.398-0.2,0.8-0.5,0.898-0.9
	c0.102-0.399,0-0.899-0.3-1.3l0.2-0.2c1.2-2.5,2-4.1,3.6-5.899l0.602,0.101l0,0c0.1,0,0.5,0.101,1.1,0.101
	c3.602,0,6.5-2.399,6.5-5.399c0-1.9-1.2-3.6-3.1-4.6l0.6-5.5c9,4.5,16.3,1.7,16.3,1.7h0.2V275.8z M656.5,308.8
	c1.9,0,5.5-2.899,2.2-2.899C658.7,305.8,654.6,308.8,656.5,308.8z"/>
<path fill="#FFFFFF" stroke="#000000" stroke-miterlimit="10" d="M653.8,289.5L653.8,289.5l-0.6-0.1c0.6-0.602,1.2-1.2,2-1.9
	c-0.102-0.1-0.102-0.1-0.2-0.2c2.1-0.1,3.8-1.5,3.8-3.2c0-0.8-0.398-1.6-1-2.1c0.102,0,0.2,0,0.2,0l0.3-2.5
	c1.9,1,3.102,2.7,3.102,4.6c0,3-2.9,5.4-6.5,5.4C654.3,289.6,653.9,289.6,653.8,289.5z"/>
<path fill="#FFFFFF" stroke="#000000" stroke-miterlimit="10" d="M658.7,305.8c3.3,0-0.4,2.9-2.2,2.9
	C654.6,308.8,658.7,305.8,658.7,305.8z"/>
<path fill="#FFFFFF" stroke="#000000" stroke-miterlimit="10" d="M657.8,282.1c0.602,0.6,1,1.3,1,2.1c0,1.7-1.7,3.2-3.8,3.2
	c-0.9-0.801-1.9-0.9-2.4-0.801c0.4-1.301-1-3.399-1.3-3.801c0.5-0.9,1.602-1.6,2.9-1.9h0.1c0,0.1,0,0.2-0.1,0.2c0,0,1.2,0.3,1.6,0.6
	C656.3,282.1,657.4,282.1,657.8,282.1z"/>
<path id="ABC-color.com" fill="#FFFFFF" stroke="#000000" stroke-miterlimit="10" d="M640.9,267.6c0,0,0-0.1,0-0.2h0.198
	c2,1.1,14.4,5.2,14.4,5.2c0.3,1.9,0,4.1-0.5,6.2l0,0c-3.2,0-5.8,1.9-6.4,4.4c0,0-3.3,0.5-9.198,0.8c1.398-2.1,2.5-3.4,2.5-3.4
	C642.7,278,642.2,273.2,640.9,267.6z"/>
<path fill="#FFFFFF" stroke="#000000" stroke-miterlimit="10" d="M652.6,286.6c0.5,0,1.5,0,2.4,0.801c0.1,0,0.1,0.101,0.2,0.199
	c-0.8,0.7-1.4,1.301-2,1.9c-1.602,1.8-2.5,3.3-3.602,5.9L649.4,295.6c-0.302-0.398-0.9-0.8-1.5-1c-0.302-0.1-0.602-0.1-0.9-0.1
	c0-0.6,0.4-3.8,2.7-7.4c0.7-0.1,2-0.199,2.5-0.398C652.3,286.7,652.4,286.6,652.6,286.6z"/>
<path fill="#FFFFFF" stroke="#000000" stroke-miterlimit="10" d="M651.3,282.9L651.3,282.9l-2.8,0.3c0.6-2.5,3.2-4.4,6.4-4.4l0,0
	c-0.2,0.8-0.4,1.5-0.602,2.2h-0.1C652.9,281.2,651.8,281.9,651.3,282.9z"/>
<path fill="#FFFFFF" stroke="#000000" stroke-miterlimit="10" d="M484.3,222.4c-1.8-2-3.7-4-5.5-6.1c0,0,0-0.1-0.1-0.1
	c-8.5-9.8-16.9-20.9-24.9-33.5c0.8-1.5,1.4-3.1,1.8-4.5c0.5,0.8,1,1.6,1.5,2.3c8.5,13.1,17.4,24.5,26.5,34.5
	c38,41.7,79.9,58.6,112,65.1c18.9,3.8,34.4,4.1,43.602,3.7c5.898-0.3,9.2-0.8,9.2-0.8l2.8-0.3c0,0,0,0,0-0.1
	c0.3,0.4,1.7,2.5,1.3,3.8c-0.2,0-0.3,0.1-0.3,0.1c-0.5,0.2-1.8,0.3-2.5,0.4c-0.3,0-0.5,0-0.5,0l-5,0.8c0,0-2.9,0.5-8,0.7
	c-8.9,0.5-24.5,0.3-43.9-3.7C561.6,278.5,521.4,262.2,484.3,222.4z"/>
<path fill="#FFFFFF" stroke="#000000" stroke-miterlimit="10" d="M647,294.4c0.3,0,0.6,0,0.9,0.1c0.6,0.2,1.198,0.5,1.5,1
	c0.3,0.4,0.5,0.8,0.3,1.3c-0.102,0.4-0.4,0.7-0.9,0.9s-1.2,0.3-1.898,0.1c-0.602-0.2-1.102-0.5-1.4-0.8c-0.4-0.4-0.6-0.9-0.4-1.4
	C645.3,294.8,646.1,294.4,647,294.4z"/>
<path fill="#FFFFFF" stroke="#000000" stroke-miterlimit="10" d="M649.3,287.1c0,0,0.2,0,0.5,0c-2.398,3.5-2.7,6.7-2.7,7.4
	c-0.898,0-1.698,0.4-1.898,1.1c-0.102,0.5,0,1,0.398,1.4c-2,3.1-3,8.6-3,8.6c-2.8,3.5-7.1,1.301-7.1,1.301
	c-4.6-5.101-2.3-12.199,0.9-18.101l0,0c5.1-0.3,8-0.7,8-0.7L649.3,287.1z"/>
<path fill="#FFFFFF" stroke="#000000" stroke-miterlimit="10" d="M635.6,123.9c-2.898,1.8-5.3,3.6-6.698,5.3c0,0-20.4,3.8-13.4,12.5
	c0.7,0.9,1.3,1.8,1.7,2.7c3,6.2,0.3,12.4,0.3,12.4c-28,1.5-11.6,18.5-11.6,18.5c23.8,9.5,14.1,15.3,14.1,15.3
	c2.4-8.3-18.8-9.4-18.8-9.4c-23-2.4-8.9,13.6-8.9,13.6c4.8,1.9,15.2-0.4,15.7-0.5c-17,7.8-21.9,1.7-21.9,1.7
	c-7.6-12.9-12.398-17.6-12.398-17.6c-12.8-7-18.2-3.5-18.2-3.5c-16.9,6.4,11.5,9,11.5,9s-14.3,3-11.7,3.2c4.3,0.3,19.4,2.7,19.4,2.7
	c2.6,1.8-11.4-2.5-10.4,2.8c0.601,3.1,8.3,3.8,11,6.4c0.5,0.5-18.3-2.9-18.8-2.4c-0.9,0.7,11,7.8,11,7.8l-16.8-3.6
	c0,0-19.7,6.7-34.7-2.7c-0.2-0.1-0.4-0.3-0.7-0.4c0,0-8.7-32.4,30.101-35.6c0,0,17.801-37.9,40-35.9
	C585.2,126,622.2,113.3,635.6,123.9z"/>
<path fill="#FFFFFF" stroke="#000000" stroke-miterlimit="10" d="M592.4,284.9L592.4,284.9c-17.802,24.898-47.2,55.8-47.2,55.8
	c2.1,12-44.102,66.6-44.102,66.6c0.602,17.4-4.5,21.602-4.5,21.602c-10.8,6.3-24,42.3-24,42.3c-7.5,14.1,3.302,31.5,3.302,31.5
	c2.698,3.898,16.5,3.3,16.5,3.3s-11.4,8.7-21.2,7.2c-2.3-4-5-6.8-7.102-8.4c-0.1,0-1.5,1.9-1.5,1.9l-1.698-4
	c-0.4-0.3-1.4,1.2-1.4,1.2s-0.9-3.102-1.5-3.602c-0.4-0.398-2.3,1.2-2.3,1.2s-0.4-4-1-4.9c-2.602-3.898-2.102-6.5-2.102-6.5
	c-0.6-4.8,16.802-43.8,16.802-43.8C474.8,433.7,473.3,416.9,473.3,416.9C488.9,404.6,489.2,396.8,489.2,396.8
	c-0.4-14.7-0.602-25.7-0.5-33.899c0.1-26.301,1.898-25,1.898-25l0.7-2c-20.5,16.699-27.1,17-41.7,20.5
	c-1.698,0.399-3.5,0.801-5.5,1.399c-11.198,3-20.698,4.3-30.3,3.8c-0.7-1.898-1.3-3.8-1.8-5.699l-0.3-0.199
	c0.1-0.2,0.2-0.301,0.3-0.5c4.2-7,7.5-15.2,7.5-15.2c1.8-2.8-1.4-4.8-1.4-4.8s-2.8-1.9-1.8-5.801L415.9,329.1
	c5-6.6,9.398-12.6,13.198-18c5.4,0.301,10.7-1.3,16.9-6.6c0,0,12.6,16.2,31.5,0.9l6.5-82.9C521.4,262.2,561.6,278.5,592.4,284.9z"/>
<path fill="#FFFFFF" stroke="#000000" stroke-miterlimit="10" d="M512,201.5L512,201.5c-1.2,1.4-2.5,2.6-3.8,3.7
	c-17.602,2-50.8-24.7-50.8-24.7l-0.2,0.1c-0.5-0.8-1-1.5-1.5-2.3c0.6-2,0.898-3.5,0.898-3.5S486.2,202.1,512,201.5z"/>
<path fill="#FFFFFF" stroke="#000000" stroke-miterlimit="10" d="M492.5,506c9.9,6.6,14.4,17.4,14.4,17.4
	c-21,5.398-32.102-0.9-32.102-0.9c-0.8-3.7-2.1-6.7-3.5-9.3C481.1,514.7,492.5,506,492.5,506z"/>
<path fill="#FFFFFF" stroke="#000000" stroke-miterlimit="10" d="M491.5,336l-0.7,2c0,0-1.8-1.3-1.898,25
	c-49.5,34-41.802,42.6-41.802,42.6c4.5,9-14.398,26.7-14.398,26.7C415.9,443.4,404.8,485.4,404.8,485.4
	c-8.1,14.1,0.9,17.398,0.9,17.398c2.7,3.8-9.4,5.7-11.602,6c0.2-5.898-2.1-10.8-2.1-10.8c-1-1-2.4,2.5-2.4,2.5s-0.8-6.4-1.1-6.9
	c-0.5-0.8-1.9,2.2-1.9,2.2s0-6.1-0.198-6.8c-0.5-1.7-3,2.3-3,2.3l3.1-8.5c2.3-37.5,26.3-49.2,26.3-49.2c8.5-7.5,5.7-24.3,5.7-24.3
	c13.8-12.898,12.9-19.199,12.9-19.199c7.398-25.699,18-33.101,18.3-33.301l-0.102-0.3C464.4,353,471,352.7,491.5,336z"/>
<path fill="#FFFFFF" stroke="#000000" stroke-miterlimit="10" d="M484.3,222.4l-6.5,82.9c-18.898,15.3-31.5-0.899-31.5-0.899
	C440.1,309.8,434.9,311.3,429.4,311c4.5-6.4,8.198-12,11.3-17l0.5,0.3l27.3,0.601c-7.6-10.399,2.2-21.601,2.2-21.601
	c-5.602-11,0.398-14.6,0.398-14.6c-6-13,0.802-16.8,0.802-16.8c-5.9-8.9-0.5-14.4-0.5-14.4c-2.102-7.6,2.8-10,2.8-10l-0.102-0.4
	c2-0.4,3.602-0.7,4.802-1c0,0,0,0,0.1,0.1C480.6,218.4,482.5,220.4,484.3,222.4z"/>
<path fill="#FFFFFF" stroke="#000000" stroke-miterlimit="10" d="M473.9,217.3l0.1,0.4c0,0-4.9,2.4-2.8,10c0,0-5.4,5.5,0.5,14.4
	c0,0-6.8,3.8-0.8,16.8c0,0-6,3.6-0.4,14.6c0,0-9.9,11.2-2.2,21.6l-27.3-0.6l-0.5-0.3c17.1-27.4,14.9-34.3,14.9-34.3
	c-6.9-18.5-12.7-31.1-17.2-39.4h0.1C455.5,220,467,218.5,473.9,217.3z"/>
<path fill="#FFFFFF" stroke="#000000" stroke-miterlimit="10" d="M455.7,178.3c-0.5,1.4-1,3-1.8,4.5c-1.302,2.5-3.2,4.7-5.602,4.9
	c0,0-1.3-0.2-3-0.6l0,0c-0.898-0.2-1.898-0.4-2.898-0.8l0,0c-0.9-0.3-1.9-0.6-2.602-1c-0.8-0.4-1.398-0.9-1.6-1.5
	c-0.2-0.4-0.2-0.9-0.2-1.5c0.2-4.4,5.6-12.9,5.6-12.9s8.102-0.9,11.5,2.2c0.9,0.8,1.4,1.8,1.5,3.2
	C456.7,174.9,456.3,176.4,455.7,178.3z"/>
<path fill="#FFFFFF" stroke="#000000" stroke-miterlimit="10" d="M445.8,163.1c0,0,12-0.4,9.7,8.3l-0.4,0.2
	c-3.5-3.1-11.5-2.2-11.5-2.2L445.8,163.1z"/>
<path fill="#FFFFFF" stroke="#000000" stroke-miterlimit="10" d="M409.7,302.8c1.898-4.7,3.7-9.3,4.7-12.5
	c0.398-1.3,0.8-2.399,0.898-3.2c0,0,6.7-14.6,16.2-20.3c0,0-28.8-20.4-31.2-39c8.602-3.6,15.3-13.5,15.3-13.5
	c3.102-4.7,5.9-5.2,8.302-7.2c1.3-1,2.5-2,3.6-2.8v0.1c0,0,3.9,3.1,10.7,15.8c4.5,8.4,10.3,20.9,17.2,39.4c0,0,2.198,6.9-14.9,34.3
	c-3.1,5-6.8,10.6-11.3,17c-3.8,5.398-8.2,11.398-13.2,18c-1.6,2.1-3.2,4.199-4.9,6.398c0,0-12.698-5.6-10.6-11.199
	C400.7,324.3,405.5,313.1,409.7,302.8z"/>
<path fill="#FFFFFF" stroke="#000000" stroke-miterlimit="10" d="M448.3,187.7c3.102,13.3-1.898,16.4-4.398,17.1
	c3.398-3,1.6-16.3,1.398-17.7C447,187.5,448.3,187.7,448.3,187.7z"/>
<path fill="#FFFFFF" stroke="#000000" stroke-miterlimit="10" d="M445.8,163.1l-2.3,6.3c-23.8-14.4-25.8-18.3-25.8-18.3
	c1.3-7.1,1.5-14.3,1.2-21.5C420,133.3,426.4,152.6,445.8,163.1z"/>
<path fill="#FFFFFF" stroke="#000000" stroke-miterlimit="10" d="M445.3,187.1c0.2,1.4,2,14.6-1.398,17.7l0,0
	c-0.7,0.2-1.302,0.2-1.302,0.2s-3.6-16.7-0.3-18.6l0,0C443.4,186.7,444.4,186.9,445.3,187.1L445.3,187.1z"/>
<path fill="#FFFFFF" stroke="#000000" stroke-miterlimit="10" d="M442.4,186.4c-3.302,1.9,0.3,18.6,0.3,18.6c-6-3-3-19.3-3-19.3
	l0.2-0.4C440.5,185.7,441.5,186,442.4,186.4z"/>
<path fill="#FFFFFF" stroke="#000000" stroke-miterlimit="10" d="M412,179.2c-2-0.7-4-1.4-6-2.3c-10.9-4.7-20.6-12.3-27.4-21.9
	c-6-8.4-13.1-23.1-7.698-32.9c1.1-1.9,2.6-3.6,4.698-5.1c5.102-3.4,11.302-5.3,17.2-6.5v0.1c0,0,5.9,30.4,24.9,40.4
	c0,0,2,3.9,25.8,18.3c0,0-5.3,8.5-5.6,12.9h-0.4C429,183.1,420.3,181.9,412,179.2z"/>
<path fill="#FFFFFF" stroke="#000000" stroke-miterlimit="10" d="M430.5,198.8c3,0.6,1.7,2.1,1.4,2.6c0,0-1.802,1.2-4.302,3.1
	c-1.1,0.8-2.3,1.8-3.6,2.8c-2.5,2-5.2,2.5-8.3,7.2c0,0-6.8,9.9-15.3,13.5s-5.9-2.3-5.9-2.3s12.3-4.8,16.9-12.6
	c1.698-2.9,5.6-6.2,9.898-8.8C423.6,203,426.7,197.9,430.5,198.8z"/>
<path fill="#FFFFFF" stroke="#000000" stroke-miterlimit="10" d="M430.5,198.8c-3.8-0.9-6.8,4.2-9.1,5.6c-4.302,2.5-8.2,5.9-9.9,8.8
	c-4.6,7.8-16.9,12.6-16.9,12.6s-10.3-1.6-10.8-5.6h-0.1c-1-10.1-1.2-22.7-1.2-22.7c5.9-0.9,18.5,20.3,18.5,20.3
	c3.6-0.9,5.9-5.4,5.9-5.4c0.398-4.5,8.1-9,8.1-9c1.7-3.4,7.9-7.2,10.8-8.7C426.5,195.2,428.9,197.1,430.5,198.8z"/>
<path fill="#FFFFFF" stroke="#000000" stroke-miterlimit="10" d="M425.5,194.5c-2.8,1.5-9,5.3-10.8,8.7c0,0-7.602,4.5-8.102,9
	c0,0-2.3,4.5-5.898,5.4c0,0-12.602-21.1-18.5-20.3l0.5-12.1v-0.3c10.898,1.7,23,2.2,30.6-1.9c0,0,3.602,3.6,13.5,10.8
	C427,193.8,426.4,194,425.5,194.5z"/>
<path fill="#FFFFFF" stroke="#000000" stroke-miterlimit="10" d="M419.6,15.4v0.1c-0.198-0.4-0.5-0.6-0.8-0.7
	c-1.3-0.5-3.2,1.2-4.2,3.9c-1,2.6-0.8,5.2,0.5,5.7h0.102v0.2c-0.102,0.7-0.2,1.3-0.2,1.9c-8.8-2.6-39.3,0.6-40.5,0.7
	c-0.3-0.5-0.5-1.1-0.8-1.7c0.1,0.1,0.2,0.1,0.2,0.1c1.698-5.6-2.9-5.9-2.9-5.9c0,0.1,0,0.2,0,0.3c-0.9-2-1.6-3.6-1.6-4
	c0,0,6.198-0.1,8.898,5.4c0.8,1.6,2.9-8.8,2.9-8.8c2.898,1.4,7.2,6.5,7.2,6.5c0.1-2.4,5.3-9,5.3-9c2.7,1,5,7.9,5,7.9
	c0.398-2.9,7.398-9.2,7.398-9.2c1.5-0.2,4.102,9.8,4.102,9.8C412.6,8.8,422.6,8,422.6,8C422,9.6,421.5,11.4,419.6,15.4z M406.5,18.9
	c0-2.4-0.8-4.4-1.7-4.4c-0.898,0-1.7,2-1.7,4.4s0.802,4.4,1.7,4.4C405.8,23.3,406.5,21.3,406.5,18.9z M395.8,19.8
	c0-2.1-0.7-3.9-1.6-3.9c-0.9,0-1.602,1.7-1.602,3.9c0,2.2,0.7,3.9,1.602,3.9C395,23.6,395.8,21.9,395.8,19.8z M384.5,24.2
	c0.9-0.2,1.3-1.8,0.9-3.5c-0.4-1.8-1.4-3-2.302-2.8c-0.898,0.2-1.3,1.8-0.8,3.5C382.6,23.1,383.6,24.4,384.5,24.2z"/>
<path fill="#FFFFFF" stroke="#000000" stroke-miterlimit="10" d="M405.8,502.8c17.102,0.3,18,17.7,18,17.7
	c-25.2,0.9-30.898-5.7-30.898-5.7c0.8-2,1.198-4.1,1.198-6C396.4,508.4,408.5,506.6,405.8,502.8z"/>
<path fill="#FFFFFF" stroke="#000000" stroke-miterlimit="10" d="M431.6,267c-9.5,5.6-16.198,20.3-16.198,20.3
	c-0.2,0.8-0.5,1.8-0.9,3.2c-3.7-0.1-21.8-3.6-21.8-3.6C382.1,284.8,355.1,275,355.1,275l-0.198-0.3c5.5-2.9,10.898-6.1,16.198-9.5
	c3-1,6-3,9-4c8-4,12-16,5-23c-2.3-1.9-4.698-3.7-7.1-5.5c8.1,2.7,8.1-0.9,8.1-0.9c-1.1-1.7-1.8-6.2-2.398-11.5h0.1
	c0.5,4,10.8,5.6,10.8,5.6s-2.698,5.8,5.9,2.3C402.8,246.5,431.6,267,431.6,267z"/>
<path fill="#FFFFFF" stroke="#000000" stroke-miterlimit="10" d="M401.1,364.5c-3.1-0.9-7.698-2.2-10.3-6.9c-0.5-1-1-2-1.3-3.3
	c-0.4-1.3,0.1-2.5,1.2-3.6c3.398-3.5,12.8-6.101,19.7-8.9c4.8-2,8.3-4,8-6.6c0,0,3.1,2,1.398,4.8c0,0-3.2,8.3-7.5,15.2
	c-0.1,0.2-0.2,0.3-0.3,0.5c-3.3,5.3-7.2,9.8-10.6,8.8C401.3,364.5,401.2,364.5,401.1,364.5z"/>
<path fill="#FFFFFF" stroke="#000000" stroke-miterlimit="10" d="M419.6,15.5v-0.1c-1.698,7.9-3.8,9-4.398,8.9H415.1
	c-1.3-0.5-1.5-3-0.5-5.7c1-2.6,2.9-4.4,4.2-3.9C419.1,14.9,419.4,15.2,419.6,15.5z"/>
<path fill="#FFFFFF" stroke="#000000" stroke-miterlimit="10" d="M419,129.6c0.3,7.2,0,14.4-1.2,21.5
	c-19-10-24.898-40.4-24.898-40.4v-0.1c0.6-0.1,1.198-0.2,1.8-0.4c5.8-1.1,15.1-1.1,17.8-7.6c0.5,0.8,1.2,1.3,2,1.3
	c0.5,0,0.9-0.2,1.3-0.5C417.3,112.1,418.6,120.8,419,129.6z"/>
<path fill="#FFFFFF" stroke="#000000" stroke-miterlimit="10" d="M418.4,335.2c0.398,2.5-3.2,4.6-8,6.6
	c0.198-3.899,0.898-6.3,0.898-6.3c1.7-2.2,3.3-4.3,4.9-6.4l0.398,0.301C415.5,333.3,418.4,335.2,418.4,335.2z"/>
<path fill="#FFFFFF" stroke="#000000" stroke-miterlimit="10" d="M412.6,42.1c-1.1-0.9-3-1.3-6.1,1.2c0,0,1.4,3.1,5.9,2.2l0,0
	c0.398-0.1,0.8-0.2,1.198-0.3c0.4-0.1,0.4-0.9,0.4-0.9S413.6,43,412.6,42.1z M417.8,50.6c0.8,0.9-1.3,2.7-3.6,2.1
	c-1.602-0.4,0,3.5,0,3.5s1.7,0.6,0.398,2c-0.3,0.4,1.302,0.8,0,2.3c0,0-0.3,1.7,0.102,3.2c0.5,1.7-1.8,3.8-7.3,2l-4.5-2l-0.602,3.5
	c0,0,0.602,1.1-0.398,2.4c-0.802,1.2-1,5.1-1.102,6.5c-3.7-3.1-7.898-5.7-12.398-7.7L388.6,68c6.802,0,4.9-16.5,4.9-16.5
	c-3.4-7.6,0.5-10.3,0.5-10.3c0-1.8,5.4,4,5.4,4c1.8-1.8,2.3-5.9,2.3-5.9c-1.102-3.9-0.102-5.1-0.102-5.1c1.802-4.9,5.302,2.5,8,1.6
	c0.802-0.3,4,0.5,4,0.5s0.5,0.7,1.2,1.4l-0.1,0.1c0,0,0.1,2-0.102,4.2C414.4,45.5,414,46.3,417.8,50.6z"/>
<path fill="#FFFFFF" stroke="#000000" stroke-miterlimit="10" d="M417.7,39.1c0.1,1.9-1.7,0.2-2.9-1.3c-0.7-0.8-1.2-1.4-1.2-1.4
	s-3.3-0.7-4-0.5c-2.698,1-6.198-6.5-8-1.6c0,0-1,1.1,0.102,5.1c0,0-0.5,4.1-2.3,5.9c0,0-5.4-5.9-5.4-4c0,0-3.8,2.7-0.5,10.3
	c0,0,1.8,16.5-4.9,16.5l-0.198,0.4c-3.2-1.5-6.602-2.7-10.102-3.6v-0.1c0,0-9.7-17.3-1.898-33.6c6-2.9,38.8-1.4,38.8-1.4
	c0-0.2,0-0.3,0-0.5h0.1c0.7,1.8,0.8,0.8,1.2,3.1C416.6,32.4,417.5,34.1,417.7,39.1z"/>
<path fill="#FFFFFF" stroke="#000000" stroke-miterlimit="10" d="M414,361.6c1.5,3.801,3.7,7.7,7.3,12.2c0,0-4.8,8.5-13.1-1.1
	c0,0-3.102-3.5-7-8.2c0.1,0,0.1,0,0.2,0c3.398,0.9,7.3-3.5,10.6-8.8l0.3,0.2C412.7,357.8,413.3,359.7,414,361.6z"/>
<path fill="#FFFFFF" stroke="#000000" stroke-miterlimit="10" d="M415.3,29.4c0,0.1,0,0.3,0,0.5c0,0-32.898-1.5-38.8,1.4
	c0,0-0.9-1.8-2-4.1c1.3-0.1,31.7-3.3,40.5-0.7C415,27.4,415.2,28.3,415.3,29.4z"/>
<path fill="#FFFFFF" stroke="#000000" stroke-miterlimit="10" d="M412,179.2l1.5,3.8c-7.5,4.1-19.6,3.6-30.6,1.9
	c-13.2-2.1-24.802-6-24.802-6H357.7c0.398-3.1,0.6-6.3,0.7-9.4h0.6c0,0,14,12.6,47,7.5C407.9,177.8,409.9,178.5,412,179.2z"/>
<path fill="#FFFFFF" stroke="#000000" stroke-miterlimit="10" d="M400.9,76.2c5.198,4.4,9.5,9.8,12.198,16.5
	c-1.1,0.9-1.898,3-1.898,5.5C405.6,84.7,368.5,75,368.5,75h-0.6c0.3-4.1-0.4-8.2-1.2-12.1c3.898,0.4,7.898,1.1,11.8,2.1
	c3.5,0.9,6.8,2.1,10.1,3.6C393,70.5,397.1,73,400.9,76.2z"/>
<path fill="#FFFFFF" stroke="#000000" stroke-miterlimit="10" d="M346.8,278.5c-15.7,7.1-32.1,11.2-49.8,10.5c-12-1-24,7-36,9
	c-2,1-6,3-6,0c-2-9,3-18,4.7-26.8c-0.1,0.1-0.1,0.2-0.2,0.3C263,261,270,251,268,239c-7-8,2-18,5-26c32-11,48-43,63-71c1-3,4-5,5-7
	c9-18,16-35,25-53c1.1-2.3,1.7-4.6,1.9-7.1h0.6c0,0,37.2,9.7,42.7,23.1c0,1.9,0.5,3.5,1.2,4.6c-2.7,6.5-12,6.5-17.802,7.6
	c-0.6,0.1-1.198,0.2-1.8,0.4c-6,1.2-12.2,3.1-17.2,6.5c-2.1,1.5-3.698,3.2-4.698,5.1l0,0C364.2,130.6,360,146,359,156
	c-0.5,4.5-0.5,9-0.6,13.4c-0.102,3.1-0.2,6.3-0.7,9.4c-0.2,1.4-0.4,2.8-0.7,4.1c-1,8,0,15,1,23c1.6,11.9,10.7,19.4,19.9,26.5
	c2.398,1.9,4.8,3.7,7.1,5.5c7,7,3,19-5,23c-3,1-6,3-9,4c-5.3,3.5-10.7,6.7-16.2,9.5C352.2,275.9,349.5,277.3,346.8,278.5z"/>
<path fill="#FFFFFF" stroke="#000000" stroke-miterlimit="10" d="M398,325.3c0.9-0.399,1.7-0.8,2.7-1
	c-2.102,5.5,10.6,11.2,10.6,11.2s-0.7,2.4-0.898,6.3c-6.9,2.8-16.2,5.4-19.7,8.9c-3.4-4.7-5.8-8-5.4-9.5
	C386.5,336.9,391,328.8,398,325.3z"/>
<path fill="#FFFFFF" stroke="#000000" stroke-miterlimit="10" d="M414.4,290.4c-1.102,3.199-2.802,7.699-4.7,12.5
	c-1.7-1.4-2.102-2-2.102-2c-3,1.5-5.698,2.6-8.198,3.398c-17.9,5.301-23.602-7.898-23.602-7.898c-23.398,8.1-27.1-5.7-28.8-7.801
	c-3-3.601-0.6-9.201-0.2-10.101c2.7-1.2,5.4-2.5,8-3.9l0.2,0.3c0,0,27,9.701,37.6,11.9C392.6,286.8,410.7,290.3,414.4,290.4z"/>
<path fill="#FFFFFF" stroke="#000000" stroke-miterlimit="10" d="M407.6,300.8c0,0,0.4,0.601,2.102,2c-4.2,10.3-9,21.5-9,21.5
	c-0.9,0.3-1.8,0.601-2.7,1c2.8-15.8,1.5-20.8,1.5-20.8l-0.1-0.3C401.9,303.5,404.6,302.4,407.6,300.8z"/>
<path fill="#FFFFFF" stroke="#000000" stroke-miterlimit="10" d="M404.9,14.5c0.898,0,1.698,2,1.698,4.4s-0.8,4.4-1.698,4.4
	c-0.9,0-1.7-2-1.7-4.4S403.9,14.5,404.9,14.5z"/>
<path fill="#FFFFFF" stroke="#000000" stroke-miterlimit="10" d="M333.5,315c0,6.9-24,33.3-24,33.3c-2.7,6.4-18.5,14.3-29.3,19.101
	c-5.9,2.601-10.3,4.301-10.3,4.301h-0.2c-0.9-1.4-2.3-2.602-4.3-3.301c-9.3-3.101,4-1.601,4.5-1.601
	c-0.2-0.399-5.6-12.899-17.5-16.899l7.4-0.5c0,0-18.5-13.399-40.9-14V335.3c1.8-4.5,4.2-10.2,4.2-10.2
	c-31.5-36.898-7.6-74.3-7.6-74.3l9.9-13.5c12.7-14.5,30.3-21.5,47.5-25.3l0.2,0.9c-3,8-12,18-5,26c2,12-5,22-8.5,32.5
	c0.1-0.1,0.1-0.2,0.2-0.3C258,280,253,289,255,298c0,3,4,1,6,0c12-2,24-10,36-9c17.7,0.7,34.1-3.4,49.8-10.5
	c-0.398,0.9-2.8,6.5,0.2,10.1c1.7,2.102,5.4,15.9,28.8,7.801c0,0,5.8,13.199,23.602,7.899l0.1,0.3c0,0,1.3,5.102-1.5,20.801
	c-7.1,3.5-11.5,11.601-12.7,15.801c-0.398,1.5,2,4.898,5.4,9.5c-1.102,1.1-1.602,2.3-1.2,3.6c0.401,1.301,0.8,2.301,1.3,3.301
	c-7.7-2.399-15.8-6.101-21.898-9.801C345.8,334.1,333.5,315,333.5,315z"/>
<path fill="#FFFFFF" stroke="#000000" stroke-miterlimit="10" d="M394.1,15.9c0.9,0,1.602,1.7,1.602,3.9c0,2.2-0.7,3.9-1.602,3.9
	c-0.898,0-1.6-1.7-1.6-3.9C392.5,17.6,393.2,15.9,394.1,15.9z"/>
<path fill="#FFFFFF" stroke="#000000" stroke-miterlimit="10" d="M406,176.9c-32.9,5.2-47-7.5-47-7.5h-0.6c0.1-4.5,0.1-9,0.6-13.4
	c1-10,5.2-25.4,11.8-33.8l0,0c-5.398,9.8,1.7,24.5,7.7,32.9C385.4,164.6,395.1,172.2,406,176.9z"/>
<path fill="#FFFFFF" stroke="#000000" stroke-miterlimit="10" d="M385.4,20.7c0.398,1.8,0,3.3-0.9,3.5c-0.9,0.2-1.9-1.1-2.3-2.8
	c-0.4-1.8,0-3.3,0.8-3.5C383.9,17.6,384.9,18.9,385.4,20.7z"/>
<path fill="#FFFFFF" stroke="#000000" stroke-miterlimit="10" d="M383.6,220.1c0.5,5.2,1.302,9.8,2.4,11.5c0,0,0,3.6-8.1,0.9
	c-9.2-7.1-18.302-14.6-19.9-26.5c-1-8-2-15-1-23c0.3-1.4,0.5-2.8,0.7-4.1h0.398c0,0,11.602,3.9,24.802,6v0.3l-0.5,12.1
	C382.4,197.4,382.6,210,383.6,220.1z"/>
<path fill="#FFFFFF" stroke="#000000" stroke-miterlimit="10" d="M371.1,20c0-0.1,0-0.2,0-0.3c0,0,4.602,0.3,2.9,5.9
	c0,0-0.1,0-0.2-0.1C373.1,25.1,371.6,23.9,371.1,20z"/>
<path fill="#FFFFFF" stroke="#000000" stroke-miterlimit="10" d="M368.9,347.8L368.9,347.8c-0.7-0.3-27.9-13.3-28.2-5.5
	c0,0,30.6,24-27,51c0,0-30.9,18.602-15.3,34.5c0,0,19,28.7,16.199,35.4c-2.8,6.6-19.5,35.3-19.5,41.1c-4.3,6.102-22.1-8.5-22.1-8.5
	s3.5-7.898,9-11c1.2-0.7-1.8-0.898-1.8-0.898s2-1.9,2.4-2.602c1.1-2.1-1.6-0.7-1.8-0.6c0.2-0.2,4.2-3.9,4.6-4.8
	c0.5-0.9-1.9-0.302-1.9-0.302s4.1-6.1,6.3-9.5c0.3-0.1,0.9-0.5,1.9-1.5c0,0,9.2-7.398-19.3-33.198c-0.6-0.602-11.5-6.602-12.2-7
	c0,0-4.8-7.802,1.2-11.102c0,0,26.1-14.398,24.6-26.1c0,0-4.1-19.2-5.9-19.5v-0.1c10.8-4.8,26.6-12.699,29.3-19.1
	c0,0,24-26.4,24-33.3C333.5,315,345.8,334.1,368.9,347.8z"/>
<path fill="#FFFFFF" stroke="#000000" stroke-miterlimit="10" d="M273,495.7c0,0,17.8,14.6,22.1,8.5c0,19.8-9,22.5-9,22.5
	c-11.7-0.9-18-31.5-18-31.5L273,495.7z"/>
<path fill="#FFFFFF" stroke="#000000" stroke-miterlimit="10" d="M251,398.1c9,11.7,1.5,24.7,1.5,24.7c-3.6,9.5-12.4,10.8-12.4,10.8
	c-26.1,11.302-17.8,18.9-17.8,18.9c13.9,12.1,10.7-2.7,10.6-3.3C241,462.9,227,460.6,227,460.6c-23.9-9.898-9-20.3-9-20.3
	c25.2-15.8,18.9-39.1,18.9-39.1c-0.6-3-1.4-5.7-2.4-8c-7-17.7-21.9-17.9-33.6-14.7c-9.1,2.5-16.2,7-16.2,7c-45,13-70.2-23-70.2-23
	c-23.9-1.8-24.3-50.8-24.3-50.8c-11.7-37.4,20.7-55.4,20.7-55.4c18.5-32.4,42.8-38.7,42.8-38.7c23-13.1,71.6,19.8,71.6,19.8
	l-9.9,13.5c-18.9-0.9-39.2,18.9-39.2,18.9c-24.8,23.9-4.9,63-4.9,63c11.3,5.9,35.5,3.601,35.5,3.601c4.1-0.801,8.1-1.101,12-1
	c22.4,0.601,40.9,14,40.9,14l-7.4,0.5c12,4,17.4,16.5,17.5,16.899c-0.5-0.1-13.8-1.5-4.5,1.601c2.1,0.699,3.4,1.899,4.3,3.301
	c2.9,4.699,0.6,12,0.6,12s-7.9-14-14-4.102c-0.3,0.5,1.1,0.102,1.6,0.2c7.3,2,6.9,17.8,6.9,17.8c0-5.8-10.8-6.8-10.8-6.8
	c6.3,5,6.3,16.7,6.3,16.7C259.1,403.6,251.5,398.4,251,398.1z"/>
<path fill="#FFFFFF" stroke="#000000" stroke-miterlimit="10" d="M201.1,378.4c11.7-3.2,26.6-3,33.6,14.699
	c-35.4,16.801-53,74.499-53,74.499c-6.6,13.802-8.1,49.802-8.1,49.802c4.5,13.198,15.6,14.398,15.6,14.398s2.4,13.8-11.4,19.5
	c-0.5-2.5-7.7-11.1-11.6-14.3c-0.8-0.7-0.7,4.1-0.7,4.1s-1.9-5.398-2.7-6.3c-1-1.2-1.1,4.7-1.1,4.7s-1.8-1.3-2.2-1.9
	c-0.8-1.5-0.5-6.898-0.5-6.898l-2,2.398l-3.1-10.3c-5.4-2.7-3.6-11.398-3.6-11.398c4.8-3,15-50.7,15-50.7c3-10.8,1.5-39,1.5-39
	c31.8-18,34.5-42.9,34.5-42.9L201.1,378.4z"/>
<path fill="#FFFFFF" stroke="#000000" stroke-miterlimit="10" d="M210.2,544.8c6.9,4.2,1.5,7.8,1.5,7.8c-0.9,1.2-24.9,2.4-24.9,2.4
	c-9,1.5-9-3.6-9-3.6c13.8-5.7,11.4-19.5,11.4-19.5C196.7,531.5,210.2,544.8,210.2,544.8z"/>
<g>
	<path d="M222.9,240.1c-5.4-2.4-10.9-4.4-16.6-6.1c-5.7-1.7-11.4-3-17.3-3.8c-5.8-0.8-11.8-1.1-17.7-0.4c-5.9,0.6-11.7,2.3-16.7,5.5
		c5-3.2,10.8-5,16.7-5.7c5.9-0.7,11.9-0.5,17.7,0.2c5.9,0.7,11.7,2,17.4,3.6c5.7,1.6,11.3,3.6,16.8,5.9L222.9,240.1z"/>
</g>
<g>
	<path d="M220.7,243.7c-4.8-1.8-9.8-3.3-14.9-4.5c-5-1.2-10.2-2-15.3-2.5c-5.2-0.4-10.4-0.4-15.5,0.5c-5.1,0.9-10.1,2.6-14.4,5.5
		c4.2-3,9.3-4.8,14.4-5.8c5.1-0.9,10.4-1.1,15.6-0.8c5.2,0.3,10.4,1.1,15.5,2.2c5.1,1.1,10.1,2.5,15.1,4.3L220.7,243.7z"/>
</g>
<g>
	<path d="M219.4,245.5c-3.8-0.7-7.6-1.3-11.4-1.8s-7.7-0.8-11.5-1c-3.8-0.2-7.7-0.2-11.6,0.2c-1.9,0.2-3.8,0.5-5.7,1
		c-1.8,0.5-3.7,1.2-5.2,2.5c1.5-1.3,3.3-2,5.1-2.6c1.9-0.6,3.8-0.9,5.7-1.1c3.8-0.5,7.7-0.5,11.6-0.4c3.9,0.1,7.7,0.4,11.6,0.8
		s7.7,0.9,11.5,1.5L219.4,245.5z"/>
</g>
<g>
	<path d="M217.2,248.2c-2.7-0.4-5.5-0.6-8.2-0.8c-2.7-0.2-5.5-0.3-8.3-0.2c-2.7,0.1-5.5,0.3-8.2,0.9c-1.3,0.3-2.7,0.7-3.9,1.3
		c-1.2,0.6-2.4,1.5-2.9,2.8c0.5-1.3,1.6-2.3,2.8-2.9c1.2-0.7,2.6-1.1,3.9-1.4c2.7-0.7,5.5-1,8.2-1.1c2.8-0.2,5.5-0.2,8.3-0.1
		c2.8,0.1,5.5,0.3,8.3,0.6V248.2L217.2,248.2z"/>
</g>
<g>
	<path d="M172.6,334.2c-5-0.9-9.7-3-13.9-5.9c-4.1-2.899-7.6-6.7-10.2-11s-4.2-9.1-5.1-14.1c-0.9-4.9-1.1-10-0.9-14.9
		c-0.2,5,0.1,10,1.1,14.9c1,4.899,2.7,9.6,5.3,13.899c2.6,4.199,6.1,7.899,10.2,10.699c4.1,2.801,8.8,4.801,13.6,5.5L172.6,334.2z"
		/>
</g>
<g>
	<path d="M184.8,336.8c-6.1,0.5-12.2,0.2-18.2-0.7c-6-1-11.9-2.6-17.4-5.199c-5.5-2.601-10.6-6.101-14.8-10.399
		c-4.2-4.3-7.5-9.5-9.9-15.101c2.4,5.5,5.8,10.601,10.1,14.899c4.2,4.3,9.3,7.7,14.8,10.101c5.5,2.5,11.3,4,17.3,4.899
		c5.9,0.8,12,1.101,17.9,0.5L184.8,336.8z"/>
</g>
<g>
	<path d="M111.9,256.5c-2.6,3.5-4.9,7.3-6.8,11.3s-3.3,8.2-4.2,12.5c-0.8,4.3-1,8.8-0.1,13.101c0.8,4.301,2.7,8.5,5.3,12
		c-2.7-3.5-4.6-7.601-5.5-12s-0.9-8.899-0.1-13.299s2.2-8.6,4-12.7s4-7.9,6.7-11.6L111.9,256.5z"/>
</g>
<g>
	<path d="M91,311.3c0.3,3,1.1,6,2.1,8.9c1,2.899,2.4,5.7,4.2,8.1c1.8,2.4,4.2,4.5,7,5.9c2.8,1.3,5.9,1.899,9,1.8
		c-3.1,0.2-6.2-0.3-9.1-1.5c-2.9-1.3-5.3-3.3-7.3-5.8c-2-2.4-3.4-5.2-4.6-8.2c-1.1-2.9-1.9-5.9-2.4-9.1L91,311.3z"/>
</g>
<g>
	<path d="M115.2,362.5c5.2,1.2,10.5,2.2,15.8,2.7c2.7,0.2,5.3,0.399,8,0.2c1.3-0.102,2.7-0.301,4-0.602c1.3-0.3,2.6-0.8,3.6-1.699
		c-1,0.899-2.3,1.5-3.5,1.899c-1.3,0.399-2.6,0.601-4,0.7c-2.7,0.3-5.4,0.199-8.1,0.1c-2.7-0.199-5.4-0.398-8-0.8
		c-2.7-0.399-5.3-0.8-8-1.399L115.2,362.5z"/>
</g>
<g>
	<path d="M252.7,350.8c-4.1-1.2-8.3-2.3-12.4-3.2c-4.2-0.898-8.4-1.699-12.7-2.3c-4.2-0.5-8.5-0.899-12.8-0.8
		c-2.1,0.1-4.3,0.3-6.4,0.7c-2.1,0.399-4.2,1.1-6,2.3c1.8-1.2,3.8-1.9,5.9-2.4c2.1-0.5,4.2-0.699,6.4-0.8c4.3-0.2,8.6,0,12.9,0.5
		c4.3,0.5,8.5,1.2,12.7,2c4.2,0.8,8.4,1.8,12.6,3L252.7,350.8z"/>
</g>
<g>
	<path d="M262,367c-3.1-1.9-6.3-3.5-9.6-5.1c-3.3-1.5-6.7-2.801-10.2-3.801s-7.1-1.699-10.7-1.699s-7.3,0.8-10.3,3
		c2.9-2.301,6.6-3.102,10.3-3.2c3.7-0.101,7.3,0.6,10.8,1.5c3.5,0.899,7,2.2,10.3,3.6c3.4,1.4,6.6,3,9.8,4.9L262,367z"/>
</g>
<g>
	<path d="M256.2,380.1c-2.3,0.102-4.6-0.199-6.8-0.8c-2.2-0.5-4.3-1.399-6.3-2.399c-4-2-7.5-5-10.4-8.399
		c3,3.3,6.6,6.101,10.6,7.899c2,0.899,4.1,1.601,6.3,2.101c2.1,0.399,4.4,0.7,6.5,0.5L256.2,380.1z"/>
</g>
<g>
	<path d="M256,391.9c-2.9-0.7-5.8-1.602-8.6-2.602c-1.4-0.5-2.8-1.1-4.1-1.8c-0.7-0.399-1.3-0.7-1.9-1.2s-1.2-1.1-1.2-1.8
		c0,0.8,0.7,1.3,1.3,1.7c0.6,0.398,1.3,0.8,1.9,1.1c1.3,0.602,2.8,1.102,4.2,1.5c2.8,0.9,5.7,1.5,8.6,2.102L256,391.9z"/>
</g>
<g>
	<path d="M250.7,398.2c-1.9-1.3-3.7-2.601-5.5-4.101c-1.8-1.399-3.5-2.899-5-4.601c1.6,1.601,3.5,2.899,5.3,4.2
		c1.9,1.3,3.8,2.5,5.7,3.6L250.7,398.2z"/>
</g>
<g>
	<path d="M332.7,314.6c-0.8-1.398-1.5-2.699-2-4.199c-0.602-1.399-1.102-2.899-1.5-4.301c-0.9-2.898-1.5-5.898-1.9-8.898
		c0.602,3,1.4,5.898,2.4,8.699c0.5,1.399,1.1,2.801,1.7,4.199c0.6,1.301,1.3,2.7,2.198,3.9L332.7,314.6z"/>
</g>
<g>
	<path d="M222.5,324.8c0.3-0.3,0.6-0.8,0.8-1.3c0.2-0.5,0.4-1,0.5-1.5c0.2-1,0.2-2.1,0.1-3.2c0.3,1,0.5,2.2,0.4,3.3
		c0,0.602-0.1,1.102-0.3,1.7c-0.2,0.601-0.3,1.101-0.7,1.601L222.5,324.8z"/>
</g>
<g>
	<path d="M491,335.8c0.4-0.3,0.9-0.7,1.3-1.1c0.4-0.4,0.8-0.8,1.2-1.2c0.8-0.9,1.6-1.8,2.3-2.7c-0.6,1-1.2,2-1.898,3
		c-0.302,0.5-0.7,1-1.102,1.4c-0.398,0.5-0.8,0.899-1.2,1.399L491,335.8z"/>
</g>
<g>
	<path d="M340.9,342.3c-0.802-0.2-1.4-0.5-2-0.899c-0.602-0.399-1.102-0.899-1.602-1.399c-1-1.101-1.6-2.3-2.1-3.601
		c0.6,1.199,1.5,2.301,2.5,3.199c0.5,0.4,1.1,0.801,1.6,1.102c0.602,0.3,1.2,0.5,1.8,0.6L340.9,342.3z"/>
</g>
<g>
	<path d="M622.3,143.9c0.2-0.6,0.5-1.2,0.8-1.7c0.302-0.5,0.7-1,1.102-1.5c0.8-0.9,1.8-1.6,2.898-2c-1.1,0.5-1.898,1.3-2.5,2.3
		c-0.3,0.5-0.6,1-0.8,1.5s-0.398,1.1-0.5,1.6L622.3,143.9z"/>
</g>
<g>
	<path d="M626.2,143.2c1.8-1.5,3.8-2.9,5.8-4.1c1-0.6,2.1-1.2,3.2-1.6c1.1-0.4,2.3-0.8,3.398-0.9c-1.198,0.1-2.3,0.6-3.3,1.1
		c-1.1,0.5-2.1,1.1-3,1.8c-1.898,1.3-3.7,2.8-5.398,4.5L626.2,143.2z"/>
</g>
<g>
	<path d="M633.4,143.9c1.3-1.2,2.698-2.4,4.1-3.5c0.7-0.6,1.4-1.1,2.2-1.6s1.5-1,2.398-1.2c-0.8,0.3-1.6,0.8-2.3,1.4
		s-1.398,1.2-2,1.8c-1.3,1.2-2.5,2.5-3.7,3.8L633.4,143.9z"/>
</g>
<g>
	<path d="M641,145.5c0.3-1,0.8-1.9,1.4-2.8c0.6-0.9,1.3-1.6,2.1-2.2c1.7-1.2,3.8-1.7,5.7-1.5c-2-0.1-4,0.6-5.4,1.9
		c-0.7,0.6-1.3,1.4-1.8,2.2c-0.5,0.8-0.8,1.8-1,2.6L641,145.5z"/>
</g>
<g>
	<path d="M647,146.5c0.7-0.8,1.4-1.6,2.2-2.3c0.398-0.3,0.8-0.7,1.3-0.9c0.4-0.3,1-0.5,1.5-0.5c-0.5,0.1-1,0.4-1.3,0.7
		c-0.4,0.3-0.7,0.7-1.102,1.1c-0.6,0.8-1.198,1.6-1.698,2.5L647,146.5z"/>
</g>
<g>
	<path d="M652.6,148.3c1.5-1.9,3.102-3.7,4.9-5.3c0.9-0.8,1.9-1.5,2.9-2.1c1.1-0.5,2.3-0.9,3.5-0.4c-1.2-0.4-2.4,0-3.302,0.6
		c-1,0.6-1.898,1.4-2.698,2.2c-1.7,1.7-3.102,3.6-4.4,5.5L652.6,148.3z"/>
</g>
<g>
	<path d="M659.8,151.1c0.2-0.5,0.5-0.9,0.8-1.3c0.302-0.4,0.7-0.7,1.102-1c0.8-0.6,1.8-0.9,2.7-0.9c-0.9,0.2-1.802,0.7-2.4,1.3
		c-0.3,0.3-0.6,0.7-0.8,1.1c-0.2,0.4-0.4,0.8-0.5,1.2L659.8,151.1z"/>
</g>
<g>
	<path d="M664.5,153.6c0.5-1,1.2-1.8,1.8-2.6c0.7-0.8,1.5-1.5,2.3-2.2c1.7-1.3,3.602-2.2,5.602-2.7c-2,0.6-3.8,1.7-5.3,3.1
		c-0.7,0.7-1.4,1.5-2,2.3c-0.602,0.8-1.102,1.7-1.5,2.6L664.5,153.6z"/>
</g>
<g>
	<path d="M668.6,155.6c1-0.8,2-1.4,3.102-1.9c1.1-0.5,2.3-0.9,3.5-0.8c-1.2,0-2.3,0.6-3.2,1.2c-1,0.6-1.8,1.4-2.6,2.2L668.6,155.6z"
		/>
</g>
<g>
	<path d="M676.6,159.5c0.4-0.4,0.802-0.8,1.302-1.1c0.5-0.3,0.898-0.6,1.5-0.8c0.5-0.2,1.1-0.3,1.6-0.3c0.6,0,1.1,0.2,1.5,0.5
		c-0.5-0.2-1-0.3-1.5-0.3c-0.5,0.1-1,0.2-1.4,0.5c-0.898,0.5-1.6,1.3-2.198,2.1L676.6,159.5z"/>
</g>
<g>
	<polygon points="685.6,165 688.8,162.2 686.3,165.7 	"/>
</g>
<g>
	<polygon points="689.6,168.2 691.6,165.7 690.5,168.7 	"/>
</g>
<g>
	<polygon points="679.6,161.5 682.6,159.7 680.2,162.3 	"/>
</g>
<g>
	<path d="M554.8,187.1c-1.5,0.3-2.898,0.6-4.398,0.7c-1.5,0.2-3,0.2-4.5,0.2c-1.5-0.1-3-0.3-4.302-1c-0.698-0.4-1.198-0.9-1.5-1.6
		c-0.3-0.7-0.398-1.5-0.3-2.2c0,0.7,0,1.5,0.4,2.1c0.3,0.6,0.898,1.1,1.5,1.5c1.3,0.6,2.8,0.8,4.2,0.8c1.5,0,2.898-0.2,4.3-0.4
		c1.398-0.2,2.898-0.6,4.3-1L554.8,187.1z"/>
</g>
<g>
	<path d="M555.7,197.4c-0.602-0.6-1.602-1.1-2.5-1.4c-0.9-0.3-2-0.5-3-0.5c-2-0.1-4.102,0.1-6.102,0.6c2-0.6,4-1,6.102-1.1
		c1,0,2.1,0.1,3.2,0.3c1,0.3,2.1,0.6,3,1.4L555.7,197.4z"/>
</g>
<g>
	<path d="M549.8,200.6c-2-0.3-3.898-0.7-5.8-1.1c-1.9-0.5-3.8-1-5.6-1.9c1.8,0.7,3.698,1.1,5.698,1.4c1.9,0.3,3.9,0.5,5.802,0.6
		L549.8,200.6z"/>
</g>
<g>
	<path d="M545.6,161.9c-0.6,1.6-1.198,3.3-1.398,5c-0.102,0.8-0.102,1.7,0.398,2.5c0.4,0.7,1.4,0.9,2.302,0.8
		c-0.4,0.1-0.9,0.1-1.302,0.1c-0.398-0.1-0.898-0.3-1.198-0.7c-0.602-0.8-0.7-1.7-0.7-2.6s0.1-1.8,0.3-2.7c0.2-0.9,0.4-1.7,0.7-2.6
		L545.6,161.9z"/>
</g>
<g>
	<path d="M545.2,162.5c-2.2,2.2-4.3,4.6-6.3,7c-2,2.5-3.802,5-5.302,7.8c-1.5,2.7-2.898,5.7-3.198,8.8c-0.102,1.6,0,3.2,0.698,4.6
		c0.7,1.4,1.802,2.6,3.2,3.4c-1.398-0.8-2.6-1.9-3.3-3.3c-0.7-1.4-1-3.1-0.9-4.6c0.2-3.2,1.5-6.2,3-9c1.5-2.8,3.302-5.4,5.2-8
		c1.9-2.5,4-5,6.2-7.3L545.2,162.5z"/>
</g>
<g>
	<path d="M593.1,181.4c-2.698-1-5.398-2.2-8-3.5c-2.6-1.3-5.198-2.7-7.6-4.4c-1.2-0.8-2.4-1.7-3.4-2.7c-1.1-1-2-2.1-2.698-3.5
		c-0.7-1.3-0.9-2.9-0.4-4.3s1.5-2.5,2.6-3.4c-1.1,0.9-2.1,2.1-2.5,3.5c-0.398,1.4-0.1,2.9,0.5,4.1c0.7,1.3,1.7,2.3,2.7,3.3
		c1.102,1,2.2,1.8,3.4,2.6c2.398,1.6,5,2.9,7.6,4.1c2.602,1.2,5.3,2.3,8,3.2L593.1,181.4z"/>
</g>
<g>
	<path d="M605.5,175.7c-3-2-5.8-4.2-8.4-6.5c-2.6-2.4-5.1-5-7.1-7.9c-2-2.9-3.7-6.2-4-9.8c-0.1-1.8,0.1-3.6,0.8-5.2
		c0.7-1.7,1.7-3.1,2.9-4.4c-1.2,1.3-2.2,2.8-2.8,4.5c-0.602,1.6-0.802,3.4-0.7,5.2c0.398,3.5,2.1,6.7,4.1,9.5
		c2.102,2.8,4.602,5.3,7.2,7.6c2.7,2.3,5.5,4.4,8.4,6.3L605.5,175.7z"/>
</g>
<g>
	<path d="M614.6,139.7c-2.1,0.4-4.1,0.6-6.198,0.7c-2.102,0.1-4.2,0-6.2-0.5c-1-0.3-2-0.7-2.9-1.4c-0.8-0.7-1.398-1.7-1.5-2.8
		c-0.1-1.1,0.102-2.1,0.4-3.1s0.8-1.9,1.3-2.8c-0.9,1.8-1.8,3.8-1.5,5.9c0.1,1,0.7,1.9,1.5,2.5c0.8,0.6,1.8,1,2.7,1.2
		c2,0.4,4,0.4,6.1,0.3c2-0.2,4.102-0.5,6-1L614.6,139.7z"/>
</g>
<g>
	<path d="M584.7,126.9c-1.2,0.3-2.5,0.9-3.7,1.6s-2.3,1.5-3.3,2.4c-2.102,1.8-3.9,4-5.4,6.3c-3.1,4.7-5.2,9.9-6.7,15.3
		c1.4-5.4,3.302-10.8,6.302-15.6c1.5-2.4,3.3-4.6,5.3-6.6c2.1-1.9,4.5-3.6,7.398-4.4L584.7,126.9z"/>
</g>
<g>
	<path d="M617.1,156.8c-0.3-1.7-0.898-3.4-1.6-5c-0.7-1.6-1.7-3.1-2.9-4.4c-1.198-1.3-2.8-2.2-4.6-2.5c-1.8-0.3-3.6-0.1-5.3,0.5
		c1.7-0.6,3.5-1,5.3-0.7c1.8,0.2,3.5,1.1,4.9,2.4c1.398,1.3,2.398,2.8,3.198,4.4c0.802,1.6,1.5,3.4,1.9,5.2L617.1,156.8z"/>
</g>
<g>
	<path d="M628.3,129.5c0.2,0.4,0.102,0.6,0,0.8c0,0.2-0.1,0.4-0.2,0.5c-0.198,0.3-0.398,0.6-0.6,0.8c-0.5,0.5-1,0.9-1.5,1.3
		c-1.1,0.7-2.2,1.3-3.3,1.9c1-0.7,2.1-1.5,3-2.3c0.5-0.4,0.898-0.9,1.2-1.4c0.198-0.2,0.3-0.5,0.398-0.7c0-0.1,0.102-0.2,0.102-0.3
		s0-0.2,0-0.1L628.3,129.5z"/>
</g>
<g>
	<path d="M690.9,105.8c-3,0.7-6,1.7-8.9,3c-2.9,1.2-5.7,2.7-8.3,4.4c-5.3,3.4-10,7.8-13.102,13.4c2.9-5.6,7.5-10.3,12.802-13.8
		c2.6-1.8,5.398-3.3,8.3-4.6c2.898-1.3,5.898-2.4,9-3.2L690.9,105.8z"/>
</g>
<g>
	<path d="M667.6,110.2c-3.398,2.2-6.6,4.5-9.698,7.1c-1.5,1.3-3,2.7-4.302,4.2c-0.698,0.8-1.3,1.6-1.8,2.4
		c-0.5,0.9-0.898,1.8-0.898,2.8c0-1,0.3-2,0.8-2.9c0.5-0.9,1.1-1.7,1.7-2.5c1.3-1.6,2.698-3,4.198-4.4c3-2.7,6.102-5.2,9.5-7.6
		L667.6,110.2z"/>
</g>
<g>
	<path d="M725.3,127.1c-2.3,1.9-4.7,3.7-7.1,5.5c-2.4,1.7-4.9,3.4-7.5,4.9c-5.102,3.1-10.5,5.8-16.2,7.4c5.7-1.8,11-4.7,16-7.8
		c2.5-1.6,4.9-3.3,7.3-5.1c2.4-1.8,4.7-3.6,6.9-5.6L725.3,127.1z"/>
</g>
<g>
	<path d="M735.4,154.4c-0.7,0.7-1.4,1.7-1.9,2.7c-0.6,1-1.1,2-1.6,3c-1,2-1.9,4.2-2.802,6.3c0.7-2.2,1.4-4.4,2.302-6.5
		c0.398-1.1,0.898-2.1,1.398-3.2c0.602-1,1.102-2,1.9-3L735.4,154.4z"/>
</g>
<g>
	<path d="M741.3,161.4c-0.8,0.5-1.5,1.2-2.2,1.8c-0.698,0.7-1.3,1.4-1.898,2.1c-0.602,0.8-1.102,1.6-1.4,2.5
		c-0.3,0.9-0.5,1.9-0.398,2.9c-0.2-1-0.102-2,0.1-2.9c0.3-1,0.7-1.9,1.2-2.7c0.5-0.8,1.1-1.6,1.8-2.4c0.7-0.7,1.4-1.4,2.1-2.1
		L741.3,161.4z"/>
</g>
<g>
	<path d="M765.5,170.9c-1.4-1-2.9-1.8-4.5-2.5c-1.6-0.7-3.2-1.2-4.9-1.5c-1.698-0.3-3.398-0.2-5.1,0.4c-1.6,0.6-3,1.7-4.1,3.1
		c1-1.4,2.3-2.7,4-3.3c1.6-0.7,3.5-0.8,5.198-0.6c1.802,0.2,3.5,0.6,5.102,1.3c1.7,0.6,3.2,1.4,4.8,2.3L765.5,170.9z"/>
</g>
<g>
	<path d="M746.9,181.9c-2.802-1.8-5.802-3.5-8.802-4.9c-3-1.5-6.198-2.8-9.398-3.8c-1.602-0.5-3.3-0.8-4.9-1
		c-1.7-0.2-3.398-0.1-5,0.4c-1.6,0.5-2.898,1.7-3.6,3.3c-0.7,1.5-0.9,3.3-0.9,5c0-1.7,0.102-3.4,0.8-5c0.7-1.6,2-2.9,3.7-3.5
		c1.602-0.6,3.4-0.7,5.102-0.6c1.698,0.1,3.398,0.5,5,0.9c3.3,0.9,6.5,2.2,9.6,3.6c3.1,1.4,6.1,3,9,4.8L746.9,181.9z"/>
</g>
<g>
	<path d="M755.8,205.7c-1.2-2.6-2.7-5.2-4.5-7.5c-1.8-2.3-3.8-4.5-6.2-6c-1.198-0.8-2.6-1.4-4-1.7c-1.398-0.3-2.898-0.3-4.3,0
		c-2.898,0.7-5.3,2.5-7.398,4.6c2-2.1,4.398-4.1,7.3-4.8c1.398-0.4,3-0.4,4.398-0.2c1.5,0.3,2.9,0.9,4.2,1.6
		c2.602,1.5,4.7,3.7,6.602,6c1.898,2.3,3.5,4.8,4.8,7.5L755.8,205.7z"/>
</g>
<g>
	<path d="M782.5,211.3c-1.1,3-3.5,5.2-6.3,6.4c-2.8,1.2-5.9,1.3-8.9,1.1c-3-0.3-5.8-1.1-8.6-2c-2.8-1-5.5-2.2-8.102-3.5
		c2.7,1.2,5.4,2.4,8.2,3.2c2.8,0.9,5.7,1.6,8.602,1.8c2.898,0.2,5.898-0.1,8.5-1.2c2.6-1.1,4.8-3.4,5.6-6L782.5,211.3z"/>
</g>
<g>
	<path d="M730.6,242.2c1.602-3.2,3-6.4,3.9-9.9c0.9-3.4,1.3-7,0.3-10.4c-0.5-1.7-1.3-3.3-2.5-4.6c-1.2-1.3-2.6-2.4-4.2-3.2
		c-3.198-1.6-6.698-2.4-10.3-2.8c3.5,0.3,7.102,1,10.4,2.6c1.6,0.8,3.1,1.8,4.3,3.2c1.2,1.3,2.2,3,2.7,4.7c1.1,3.5,0.8,7.3,0,10.8
		s-2.3,6.9-3.8,10.1L730.6,242.2z"/>
</g>
<g>
	<path d="M644.8,209c3.2-2,6.602-3.8,10.102-5.3c1.8-0.7,3.5-1.4,5.398-1.8c0.9-0.2,1.9-0.4,2.8-0.4c0.9,0,1.9,0.1,2.802,0.5
		c-1.802-0.7-3.802-0.3-5.5,0.1c-1.802,0.5-3.602,1.2-5.302,2c-3.398,1.6-6.6,3.6-9.698,5.7L644.8,209z"/>
</g>
<g>
	<path d="M751.7,222.8c-1.2-0.6-2.2-1.3-3.102-2.2c-0.898-0.9-1.6-1.9-2.3-3c-1.3-2.1-2-4.5-2.398-6.9c0.6,2.4,1.5,4.7,2.8,6.7
		c0.7,1,1.5,1.9,2.398,2.7c0.9,0.8,1.9,1.5,2.9,1.8L751.7,222.8z"/>
</g>
<g>
	<path d="M720.4,263.8c-0.602,0-1.102-0.1-1.7-0.3c-0.5-0.2-1.102-0.5-1.4-1c-0.398-0.5-0.398-1.2-0.2-1.7c0.102-0.5,0.4-1,0.7-1.4
		c-0.2,0.5-0.398,1-0.398,1.5c-0.102,0.5,0.1,1,0.398,1.3c0.602,0.6,1.8,0.7,2.7,0.6L720.4,263.8z"/>
</g>
<g>
	<path d="M725,194.6c-1.2-0.2-2.3-0.5-3.4-0.9c-0.5-0.2-1.1-0.5-1.5-0.8c-0.5-0.3-0.898-0.8-1.1-1.3c0.3,0.5,0.7,0.9,1.2,1.1
		c0.5,0.3,1,0.4,1.6,0.6c1.102,0.3,2.2,0.4,3.3,0.4L725,194.6z"/>
</g>
<g>
	<path d="M706.2,203.4c4.2-1.5,8.6-2.2,13-2.2c4.398,0,8.898,1,12.6,3.5c3.7,2.4,6.3,6.3,7.8,10.4s2,8.5,2.102,12.9
		c-0.2-4.4-0.8-8.7-2.4-12.8c-1.5-4.1-4.1-7.8-7.8-10.1c-3.7-2.3-8.1-3.2-12.4-3.1c-4.3,0.1-8.6,0.9-12.698,2.4L706.2,203.4z"/>
</g>
<g>
	<path d="M515.3,197c0.9,0,1.8-0.2,2.7-0.4c0.9-0.2,1.8-0.5,2.6-0.9c0.802-0.4,1.602-0.9,2-1.7c0.5-0.8,0.602-1.7,0.4-2.7
		c0.3,0.9,0.3,1.9-0.2,2.8c-0.398,0.9-1.2,1.5-2,2s-1.7,0.9-2.6,1.2c-0.9,0.3-1.8,0.5-2.8,0.6L515.3,197z"/>
</g>
<g>
	<path d="M591.6,195c-1.1-1-2-2.1-2.898-3.2c-0.9-1.1-1.7-2.3-2.4-3.5c-1.5-2.4-2.7-5.1-3.6-7.7c1.1,2.6,2.398,5.1,4,7.5
		c0.8,1.2,1.7,2.3,2.6,3.3c0.9,1,1.9,2.1,3,2.9L591.6,195z"/>
</g>
<g>
	<path d="M686.3,156.3c-0.398-0.6-0.898-1.3-1.398-1.9s-1.102-1.1-1.802-1.5c-0.698-0.4-1.398-0.6-2.198-0.4
		c-0.802,0.2-1.4,0.7-1.9,1.4c0.4-0.7,1-1.3,1.8-1.6c0.8-0.3,1.7-0.1,2.5,0.2s1.5,0.9,2.102,1.4c0.6,0.6,1.198,1.1,1.698,1.8
		L686.3,156.3z"/>
</g>
<g>
	<path d="M677.8,136.3c-0.2-0.2-0.898-0.1-1.3,0.1c-0.5,0.2-1,0.5-1.4,0.9c-0.898,0.7-1.6,1.7-2.3,2.6c0.5-1.1,1.2-2.1,2-3
		c0.4-0.5,0.9-0.9,1.4-1.2c0.6-0.3,1.2-0.6,2.1-0.3L677.8,136.3z"/>
</g>
<g>
	<path d="M772.5,187.6c-0.8-2.1-1.9-4.2-3.2-6.1s-2.8-3.6-4.7-5c-1.8-1.4-4-2.3-6.3-2.4c-2.3-0.2-4.6,0.4-6.7,1.4
		c2.102-1,4.4-1.7,6.802-1.6c2.398,0.1,4.698,0.9,6.6,2.3c2,1.3,3.6,3.1,5,5c1.4,1.9,2.6,4,3.5,6.2L772.5,187.6z"/>
</g>
<g>
	<path d="M685.4,222.5c-0.302-1.2-0.4-2.4-0.5-3.6c0-1.2,0-2.4,0.3-3.6c0.2-1.2,0.7-2.4,1.398-3.3c0.7-1,1.802-1.7,2.9-2.1
		c-1.1,0.5-2,1.3-2.7,2.3c-0.6,1-1,2.1-1.2,3.3c-0.198,1.2-0.1,2.3,0,3.5c0.102,1.2,0.4,2.3,0.7,3.4L685.4,222.5z"/>
</g>
<g>
	<path d="M685.4,226.2c0-1,0-2,0.198-3c0.102-1,0.4-1.9,0.7-2.9c0.602-1.8,1.8-3.6,3.5-4.6c-1.6,1.1-2.5,2.9-3,4.7
		c-0.2,0.9-0.398,1.9-0.398,2.8c-0.102,0.9,0,1.9,0.1,2.8L685.4,226.2z"/>
</g>
<g>
	<path d="M682,216.2c-0.2-0.7-0.3-1.4-0.3-2.2c0-0.7,0.1-1.4,0.2-2.1c0.3-1.4,1.198-2.6,2.198-3.5c-1,1-1.6,2.3-1.698,3.6
		c-0.102,0.7-0.102,1.3,0,2c0.1,0.6,0.3,1.3,0.5,1.9L682,216.2z"/>
</g>
<g>
	<path d="M685.4,226.6c0-0.9,0.1-1.8,0.3-2.6c0.2-0.9,0.5-1.7,0.898-2.5c0.4-0.8,1-1.5,1.802-1.9c0.698-0.5,1.6-0.7,2.5-0.6
		c-0.802,0.1-1.7,0.4-2.302,0.9c-0.698,0.5-1.1,1.2-1.5,1.9c-0.3,0.8-0.5,1.6-0.6,2.4c-0.1,0.8-0.1,1.7,0,2.4H685.4z"/>
</g>
<path fill="none" stroke="#000000" stroke-miterlimit="10" d="M704.1,195.9c0,0-3,1-3.8,3.3"/>
<g>
	<path d="M697.2,193.8c1-1.2,2.3-2.2,3.7-3c1.398-0.8,2.898-1.4,4.5-1.7c1.6-0.3,3.198-0.4,4.8-0.2c1.6,0.2,3.1,0.7,4.5,1.4
		c-3.102-0.7-6.2-0.9-9.102-0.2c-1.5,0.3-2.898,0.8-4.3,1.4C699.9,192.1,698.5,192.8,697.2,193.8z"/>
</g>
<g>
	<path d="M402.9,64.2c-0.7,0-1-0.3-1.302-0.6c-0.3-0.3-0.5-0.6-0.698-1c-0.4-0.7-0.602-1.4-0.802-2.2c0.302,0.7,0.7,1.3,1.2,1.9
		c0.2,0.3,0.5,0.5,0.8,0.7c0.302,0.2,0.602,0.2,0.7,0.2L402.9,64.2z"/>
</g>
<g>
	<path d="M414.8,58.7c-0.7,0.2-1.3,0.3-1.898,0.3c-0.602,0-1.302,0-1.9,0c-1.3-0.2-2.5-0.7-3.3-1.7c0.898,0.8,2.2,1.2,3.3,1.2
		c0.6,0,1.2-0.1,1.8-0.2c0.602-0.1,1.2-0.3,1.7-0.5L414.8,58.7z"/>
</g>
<g>
	<path d="M394.2,51.1c0.1,0.3,0.3,0.6,0.5,0.8c0.2,0.3,0.398,0.5,0.6,0.8c0.5,0.5,1.102,0.8,1.8,0.8c-0.698,0.1-1.5-0.1-2.1-0.4
		c-0.3-0.2-0.6-0.4-0.9-0.7c-0.3-0.3-0.5-0.5-0.8-0.8L394.2,51.1z"/>
</g>
<g>
	<path d="M395.1,44c-0.198,0.6-0.198,1.1-0.198,1.6s0,1,0.1,1.5c0.1,1,0.5,1.9,0.7,3.1c-0.9-0.7-1.5-1.7-1.7-2.9
		c-0.1-0.6-0.1-1.2,0.1-1.8C394.2,44.8,394.6,44.3,395.1,44z"/>
</g>
<g>
	<path d="M404.4,42.4c0.898-1.6,2.3-3,4.198-3.5c0.9-0.2,2-0.3,2.9,0.1s1.7,0.9,2.2,1.7l-0.102,0.1c-0.898-0.3-1.698-0.6-2.5-0.8
		c-0.8-0.2-1.6-0.4-2.398-0.3c-0.8,0.1-1.602,0.5-2.3,1C405.7,41.1,405,41.7,404.4,42.4L404.4,42.4z"/>
</g>
<g>
	<polygon points="431.2,266.7 435.3,266.3 431.4,267.7 	"/>
</g>
<g>
	<polygon points="455.4,178.1 453,176.1 455.9,177.2 	"/>
</g>
<g>
	<polygon points="454.1,182.1 451.4,180.4 454.4,181.2 	"/>
</g>
<g>
	<polygon points="452.4,185.3 450.1,183.9 452.8,184.4 	"/>
</g>
</svg>
