<?xml version="1.0" encoding="utf-8"?>
<!-- Generator: Adobe Illustrator 15.0.0, SVG Export Plug-In . SVG Version: 6.00 Build 0)  -->
<!DOCTYPE svg PUBLIC "-//W3C//DTD SVG 1.1//EN" "http://www.w3.org/Graphics/SVG/1.1/DTD/svg11.dtd">
<svg version="1.1" id="layer_x5F_www.ABC-color.com"
	 xmlns="http://www.w3.org/2000/svg" xmlns:xlink="http://www.w3.org/1999/xlink" x="0px" y="0px" width="822px" height="567px"
	 viewBox="0 0 822 567" enable-background="new 0 0 822 567" xml:space="preserve">
<polygon fill="#FFFFFF" stroke="#000000" points="774.7,145.7 770.8,150.2 772.3,155.9 766.9,153.6 761.9,156.8 762.4,150.9 
	757.8,147.2 763.6,145.8 765.7,140.3 768.8,145.4 "/>
<polygon fill="#FFFFFF" stroke="#000000" points="772.3,215.9 767.8,221.5 770,228.4 763.2,225.9 757.3,230 757.6,222.8 
	751.8,218.5 758.8,216.6 761.1,209.7 765.1,215.7 "/>
<polygon fill="#FFFFFF" stroke="#000000" points="755.8,324.2 759.1,327.5 754.5,328 752.3,332.1 750.4,327.9 745.8,327.2 
	749.2,324 748.5,319.4 752.6,321.7 756.7,319.6 "/>
<polygon fill="#FFFFFF" stroke="#000000" points="727.9,267.4 730.4,271.2 725.9,270.9 723.2,274.5 722,270.1 717.8,268.6 
	721.5,266.2 721.7,261.7 725.2,264.5 729.5,263.2 "/>
<polygon fill="#FFFFFF" stroke="#000000" points="637.2,289.2 641.6,293.8 635.2,294.5 632.2,300.2 629.5,294.3 623.2,293.2 
	627.9,288.8 627.1,282.5 632.7,285.7 638.5,282.9 "/>
<polygon fill="#FFFFFF" stroke="#000000" points="648.7,218.2 644.3,225.5 647.8,233.3 639.5,231.4 633.2,237.2 632.4,228.6 
	625,224.4 632.8,221.1 634.6,212.7 640.2,219.2 "/>
<polygon fill="#FFFFFF" stroke="#000000" points="694.6,182.7 687.2,183.8 683.8,190.5 680.5,183.8 673.1,182.7 678.5,177.4 
	677.2,170 683.8,173.5 690.5,170 689.2,177.4 "/>
<polygon fill="#FFFFFF" stroke="#000000" points="619.4,121.5 614.6,126.1 615.6,132.7 609.8,129.5 603.8,132.5 605.1,126 
	600.4,121.3 607,120.4 610,114.5 612.8,120.5 "/>
<polygon fill="#FFFFFF" stroke="#000000" points="712.7,104.3 706.1,105.2 703.2,111.2 700.2,105.2 693.7,104.3 698.4,99.6 
	697.3,93.1 703.2,96.2 709,93.1 707.9,99.6 "/>
<polygon fill="#FFFFFF" stroke="#000000" points="754.5,26.3 748,30.2 747.5,37.7 741.8,32.7 734.5,34.5 737.5,27.6 733.5,21.2 
	741,21.9 745.9,16.1 747.5,23.5 "/>
<polygon fill="#FFFFFF" stroke="#000000" points="677.5,25.8 681.8,30.1 675.8,30.9 673,36.2 670.5,30.8 664.5,29.8 668.9,25.7 
	668,19.8 673.2,22.6 678.6,19.9 "/>
<polygon fill="#FFFFFF" stroke="#000000" points="601.8,60.8 592.6,62.2 588.5,70.5 584.4,62.2 575.2,60.8 581.8,54.3 580.3,45.2 
	588.5,49.5 596.7,45.2 595.2,54.3 "/>
<polygon fill="#FFFFFF" stroke="#000000" points="529,98.1 525.3,99.3 524.1,103.1 521.8,99.8 517.8,99.8 520.2,96.7 519,92.9 
	522.7,94.2 525.9,91.9 525.8,95.8 "/>
<path fill="#FFFFFF" stroke="#000000" d="M345.6,110c0,0,7.102-2.6,7.102-1.1c0,0-5.102,10.7-14.8,0.6
	C338,109.5,342.3,108.1,345.6,110z"/>
<path fill="#FFFFFF" stroke="#000000" d="M356.2,93.6c0-0.3-0.3-0.6-0.602-0.6c-0.3,0-0.6,0.3-0.6,0.6c0,0.3,0.3,0.6,0.6,0.6
	C356,94.1,356.2,93.9,356.2,93.6z M355.6,91.1c1.4,0,2.602,1.1,2.602,2.4c0,1.4-1.102,2.4-2.602,2.4c-0.1,0-0.198,0-0.3,0
	c-1.3-0.1-2.2-1.2-2.2-2.4C353.1,92.2,354.2,91.1,355.6,91.1z"/>
<path fill="#FFFFFF" stroke="#000000" d="M334.8,93.9c0-0.3-0.3-0.6-0.6-0.6s-0.602,0.3-0.602,0.6c0,0.3,0.302,0.6,0.602,0.6
	C334.6,94.5,334.8,94.2,334.8,93.9z M334.4,91.6c1.3,0,2.398,1,2.398,2.3c0,1.2-1,2.2-2.3,2.3h-0.1c-0.102,0-0.2,0-0.302,0
	c-1.198-0.1-2.1-1.1-2.1-2.2C332,92.6,333.1,91.6,334.4,91.6z"/>
<path fill="#FFFFFF" stroke="#000000" d="M334.2,93.3c0.3,0,0.6,0.3,0.6,0.6c0,0.3-0.3,0.6-0.6,0.6s-0.602-0.3-0.602-0.6
	C333.6,93.6,333.9,93.3,334.2,93.3z"/>
<path fill="#FFFFFF" stroke="#000000" d="M355.6,93c0.302,0,0.602,0.3,0.602,0.6c0,0.3-0.3,0.6-0.602,0.6c-0.3,0-0.6-0.3-0.6-0.6
	C355,93.2,355.3,93,355.6,93z"/>
<path fill="#FFFFFF" stroke="#000000" d="M348.1,94.3c0,0,7.302-7.6,13.302-0.8c0,0-0.602,2.8-5.802,2.5c1.4,0,2.602-1.1,2.602-2.4
	c0-1.3-1.102-2.4-2.602-2.4c-1.398,0-2.6,1.1-2.6,2.4c0,1.3,1,2.3,2.2,2.4C353.5,95.8,351.1,95.3,348.1,94.3z"/>
<path fill="#FFFFFF" stroke="#000000" d="M327.9,93.5c6-6.9,13.6,0.9,13.6,0.9c-2.8,1.3-5.1,1.7-7,1.7c1.3-0.1,2.3-1.1,2.3-2.3
	c0-1.3-1.1-2.3-2.398-2.3c-1.302,0-2.4,1-2.4,2.3c0,1.1,0.9,2.1,2.1,2.2C329.8,96,327.9,93.5,327.9,93.5z"/>
<path fill="#FFFFFF" stroke="#000000" d="M355.6,96c5.102,0.3,5.802-2.5,5.802-2.5c-6-6.9-13.302,0.8-13.302,0.8
	c3,1.1,5.4,1.6,7.2,1.7C355.4,96,355.5,96,355.6,96z M328.8,105c0,0.1,0,0.2,0.102,0.3c-0.302-0.6-1.102-2.2-2.802-5.9
	c-4.3-9,3.9-18.8,5.302-20.9c1.398-2.1,14.398-2.4,14.398-2.4c4.9-3.1,15.102,5.3,16.8,6.9c1.602,1.6,0.2,12.1,0.2,12.1l0.102,0.5
	c0,0,0.398-2.6,2-4.3c1.6-1.7,3.5,0.5,3.8,1s-2.602,7.8-2.8,8.4c-0.102,0.6-3,3.7-3,3.7l-0.302-0.9l-1,7.5l-0.1,0.6l-0.1,0.7
	c0,0.1-0.102,0.1-0.2,0.2c-3.5,4.2-11,9.4-11.8,10.2c-0.9,0.8-1.302-0.3-4.802,0c-3,0.2-7.698-4-9.1-5.3c-0.3-0.2-0.4-0.4-0.4-0.4
	c-1.1-0.7-2.1-1.8-2.898-3c-2.102-3.3-3.2-7.7-3.5-9C329.2,106.1,328.8,105.2,328.8,105z M352.8,108.9c0-1.5-7.1,1.1-7.1,1.1
	c-3.4-1.9-7.602-0.5-7.602-0.5C347.6,119.6,352.8,108.9,352.8,108.9z M341.5,94.4c0,0-7.6-7.8-13.6-0.9c0,0,1.898,2.5,6.198,2.6
	c0.102,0,0.2,0,0.302,0h0.1C336.4,96.1,338.7,95.7,341.5,94.4z"/>
<path fill="#FFFFFF" stroke="#000000" d="M327,67.3c3.3-1.4,23.4-9.1,37.2-0.5l1-4.1l0.398,0.1c4.2,5,7,12.5,6.802,21
	c-0.602,18.4-10.5,27.4-10.5,27.4h-0.2l1-7.5l0.3,0.9c0,0,2.9-3.1,3-3.7s3-7.9,2.8-8.4s-2.1-2.6-3.8-1s-2,4.3-2,4.3l-0.1-0.5
	c0,0,1.398-10.5-0.2-12.1c-1.602-1.6-11.9-10-16.8-6.9c0,0-13,0.3-14.4,2.4c-1.4,2.1-9.5,11.9-5.3,20.9c1.7,3.7,2.5,5.3,2.8,5.9
	c0.3,1.3,1.3,5.7,3.5,9c-2.1-0.3-8.9-1.9-13.1-27.6c-2.2-13.1,0-19.8,5.5-24.4l0.5-0.2l1.698,4.5L327,67.3z"/>
<path fill="#FFFFFF" stroke="#000000" d="M350.1,53.7L350.1,53.7l6.7-6.2l2.8,6.5l8.7-5l-3.2,13.7l-1,4.1
	c-13.8-8.6-33.898-0.9-37.198,0.5l-0.102-0.6l-1.7-4.5l-4-10.5l9.302,5.5l2.5-8.8l6.3,6.7l6.5-8L350.1,53.7z"/>
<polygon fill="#FFFFFF" stroke="#000000" points="493.8,54.8 497.9,59.7 491.6,60 488.2,65.3 486,59.4 479.8,57.8 484.8,53.9 
	484.4,47.6 489.7,51.1 495.5,48.7 "/>
<polygon fill="#FFFFFF" stroke="#000000" points="436.5,15.7 430.6,18.7 429.7,25.3 425,20.6 418.5,21.8 421.5,15.9 418.3,10.1 
	424.9,11.1 429.5,6.3 430.5,12.8 "/>
<path fill="#FFFFFF" stroke="#000000" d="M389.8,135.6l-40.6,10.8c-0.102,0-0.3,0-0.4,0l-38-7.3c10.8-4.6,22.4-11.8,23.4-12.4
	l0.898-8.8l0.302-0.3c1.398,1.3,6.198,5.5,9.1,5.3c3.5-0.3,3.9,0.8,4.8,0c0.9-0.7,8.4-6,11.8-10.2l0.2,7.4h0.102
	C361.5,120.2,363,133.4,389.8,135.6z"/>
<path fill="#FFFFFF" stroke="#000000" d="M349.5,146.4c2.2,0,4,1.5,4,3.3c0,1.8-1.8,3.3-4,3.3c-0.1,0-0.3,0-0.4,0
	c-2-0.2-3.6-1.5-3.6-3.2c0-1.6,1.5-2.9,3.4-3.2h0.1l0.3-0.1C349.3,146.4,349.4,146.4,349.5,146.4z"/>
<path fill="#FFFFFF" stroke="#000000" d="M348.5,153l-57.5,8.5c0-0.5,0.1-1,0.2-1.5l0,0c1.9-14.7,10.3-17.5,10.3-17.5
	c2.8-0.7,6.1-1.9,9.4-3.3l38,7.3c-1.9,0.3-3.4,1.6-3.4,3.2c0,1.7,1.6,3.1,3.6,3.2v0.2L348.5,153z"/>
<path fill="#FFFFFF" stroke="#000000" d="M349.3,146.4l40.602-10.8c1.198,0.1,2.5,0.2,3.8,0.2l0,0c20.8,2.6,43.3,13.1,63.398,19.2
	c14.7,4.4,29.5,9.1,44.102,14.2l-87.602-9.7l-64.398-6.4v-0.2c0.1,0,0.3,0,0.398,0c2.2,0,4-1.5,4-3.3c0-1.8-1.8-3.3-4-3.3
	C349.4,146.4,349.3,146.4,349.3,146.4z"/>
<path fill="#FFFFFF" stroke="#000000" d="M381.8,235.8l0.7,6c-35,1.2-59.3-5.7-59.3-5.7l3-6c0,0,42.3,8.3,54.8,2.8h0.1
	C381.3,233.9,381.5,234.9,381.8,235.8z"/>
<path fill="#FFFFFF" stroke="#000000" d="M304.8,202c2.4-6.2,3.9-11.1,3-12.9l5.3-5.3c0,0-0.698,5.1,4.7,7.7
	c0.2,1.4,3.4,23.9,6,23.9c0,0-1.3,13.7,2.3,14.7l-3,6l-3.698,10.7c0,0-4.302,17-9.302,38.4c-0.1-6.7-2.198-12.6-2.5-19.4
	c-0.398-8.1-0.1-16.3-0.5-24.3c-0.5-11.7-4.699-21.7-4.8-33.6C303.2,205.9,304.1,203.9,304.8,202z"/>
<path fill="#FFFFFF" stroke="#000000" d="M452,302c6.1,18.8-2.2,6.4-4.5,1.6c-0.1-0.5-0.3-1.1-0.4-1.6c-0.3-0.1-0.1,0.6,0.4,1.6
	c0.1,0.4,0.2,0.801,0.3,1.2c3.5,15.601-1.5,7.3-3.7,1.3L443.9,306.2c0.6,3,1.3,7.5,0,7.899c-2.302,0.801-2-2.399-6.802-13.699
	c-0.5-1.301-2.398-7.801-2.698-8.7c0.198,1.1,1.898,13.399-3.2,12.5c0,0-1.8-10-1.602-11.601c0,0-0.198-10.399,0.602-13.899
	c0,0-0.9-6-0.8-9.4c0,0,0-29.6-1.5-49.8h-0.2c0,0-4.2-12-15.8-18.7c0,0-5.4-5.6-10.802-11.8c13.5,1,21.102-19,21.102-19l0.1-0.1
	c11.3,13.5,29,36.5,27.602,47.2c0,0-1,8.1-8.2,49.1l2.5,9.2c0,0,16.2,32.3,12.1,33.5c-0.7,0.199-2.898-3.7-4.5-7.102L452,302z"/>
<path fill="#FFFFFF" stroke="#000000" d="M397.2,523.5c10.7,2,10.7-8.7,10.7-8.7l-0.2-1.398c6.6,7.898-2.602,12.1-2.602,12.1
	c-22,3-20.5-10-20.5-10h0.4c0.1,0.5,0.2,1,0.3,1.7C385.8,520.8,397.2,523.5,397.2,523.5z"/>
<path fill="#FFFFFF" stroke="#000000" d="M400.5,500.5c2.9,6.5,7.1,12.9,7.1,12.9l0.2,1.398c0,0,0,10.7-10.7,8.7
	c0,0-11.3-2.7-12-6.3c-0.1-0.7-0.198-1.3-0.3-1.7c-0.398-2-0.398-2-0.398-2s1.1-8,1.698-12.8c0.2-1.7,0.302-3.102,0.302-3.5
	c0-1.7,0-1.7,0-1.7S385.1,491,385.1,485l0.102-0.5c4.1,0.5,9.2,0.5,13.1-0.1v0.198c0.3,1.7,0.3,3.4-0.2,4.7
	c-0.898,2.102,0.102,5.8,1.602,9.602C400,499.4,400.3,499.9,400.5,500.5z"/>
<path fill="#FFFFFF" stroke="#000000" d="M323.8,527.5c-8.5-0.1-17.2,0.4-25.7-0.1c-0.1-0.5,0-0.9-0.1-1.4l0.4-0.5
	c0.199,0.2,0.5,0.3,0.8,0.3l23.7-0.3c0,0,13.1-15,31.698-21c0.9-0.3,1.2-1.6,1-3l0,0c1.302,1.9,2.2,7.9,4,11.5c-3.5,3-6,2-11.5,5
	c-0.1-2.2,0.5-4.8,0.5-7C341.1,517.1,331.5,522.9,323.8,527.5z"/>
<path fill="#FFFFFF" stroke="#000000" d="M355.5,501.5c0.3,1.4-0.1,2.7-1,3c-18.6,6-31.7,21-31.7,21l-23.7,0.3
	c-0.3-0.1-0.5-0.2-0.8-0.3c-1.9-1.3-0.3-5.6,1.101-6.3c1.3-0.7,4.399,1.3,5.699,0.7c11.101-5.2,17.4-11,21-16.102
	c3.7-5.2,4.5-9.5,4.602-11.2l14.8-5.3c3.2,5.5,7.6,10.9,7.6,10.9C354.4,498.8,355.2,500.2,355.5,501.5L355.5,501.5z"/>
<path fill="#FFFFFF" stroke="#000000" d="M56,567.5c0,0,117.4-51.5,269.6-64l0.602,0.3c-3.602,5-9.9,10.9-21,16.102
	c-1.3,0.6-4.4-1.302-5.7-0.7c-1.3,0.7-3,5-1.1,6.3L298,526c0.1,0.5,0,0.9,0.1,1.4c8.5,0.398,17.2,0,25.7,0.1
	c7.8-4.6,17.3-10.5,24.7-16.5c0,2.3-0.6,4.8-0.5,7c5.5-3,8-2,11.5-5c-1.8-3.6-2.7-9.6-4-11.5c9.8-0.5,19.8-0.8,30-0.9l0.7,0.102
	c-0.601,4.799-1.7,12.799-1.7,12.799s0,0,0.4,2h-0.4c0,0-1.5,13,20.5,10c0,0,9.2-4.1,2.6-12.1c0,0-4.198-6.4-7.1-12.9
	c96,0.4,205.3,17.3,317,67"/>
<path fill="#FFFFFF" stroke="#000000" d="M351.6,308c0.5,10,1.9,20.4,3.602,30.2c-4-2-10.5-6.2-13.8-9.101
	C347.1,317.3,351.6,308,351.6,308L351.6,308z"/>
<path fill="#FFFFFF" stroke="#000000" d="M386.5,495.5c0,0,0,0,0,1.7c0,0.398-0.1,1.8-0.3,3.5l-0.7-0.102
	c-10.2,0.102-20.2,0.5-30,0.9c0,0,0,0,0-0.1c-0.3-1.302-1-2.602-2.3-3.302c0,0-4.4-5.398-7.602-10.898l5-1.8
	c-1.698-2.9-3.398-5.802-3.5-8c0,0-7.5-25.7-8.198-48.302c0,0-12.5-40-16.2-42.8c0,0-1.602-3.399-1.5-8.899
	c0.1-5,11.5-29.899,20.3-48.399c3.3,2.899,9.8,7.101,13.8,9.101c2.3,13.101,5,25,6.8,32.801c1.4,6.398,2.802,11.6,2.5,13.5
	c-1.1,6.898,2.2,17.198,1.5,20.5c-0.698,3.3,3.5,24.5,3.2,29.5c-0.8,11.3,4,24.6,6.3,35.5c0.602,2.898,0.802,10,3.102,12.3
	c1,1,3.6,1.7,6.8,2.1l-0.1,0.5C385.2,491,386.5,495.5,386.5,495.5z"/>
<path fill="#FFFFFF" stroke="#000000" d="M351.6,308L351.6,308c0,0-4.6,9.3-10.1,21c-8.8,18.6-20.2,43.5-20.3,48.4
	c-0.2,5.5,1.5,8.898,1.5,8.898c3.8,2.7,16.2,42.8,16.2,42.8C339.6,451.8,347.1,477.4,347.1,477.4c0.102,2.198,1.802,5.1,3.5,8
	l-5,1.8l-14.8,5.3l-3.898,1.4c-1.9-7.4-30.4-93.5-30.4-93.5c-5-19-3-29-3-29c-2.3-3.9,8.3-51.102,16.7-86.301
	c5.1-21.399,9.3-38.399,9.3-38.399l3.7-10.7c0,0,24.3,6.8,59.3,5.7l4.3,8.3c0,0,8.2,6.6,9.5,101.699
	c0.102,8.301,0.2,17.4,0.2,27.101c0,10.7,1.8,35.8,2,40.8c0.4,8.4,3.3,27.2,3,31.7l1.5,20c0,0,2-0.5,1,11h-0.5
	c-0.9,0.9-2.8,1.5-5.1,1.9c-3.9,0.6-9,0.7-13.102,0.1c-3.2-0.398-5.7-1.1-6.8-2.1c-2.3-2.3-2.5-9.4-3.1-12.3
	c-2.302-11-7-24.302-6.302-35.5c0.302-5-3.8-26.201-3.198-29.5c0.6-3.302-2.602-13.602-1.5-20.5c0.3-1.9-1.102-7.102-2.5-13.5
	c-1.802-7.9-4.5-19.701-6.802-32.801C353.6,328.5,352.1,318,351.6,308z"/>
<path fill="#FFFFFF" stroke="#000000" d="M447.5,303.6c2.3,4.801,10.6,17.301,4.5-1.6h0.1c1.602,3.4,3.802,7.3,4.5,7.1
	c4.102-1.199-12.1-33.5-12.1-33.5l-2.5-9.2c7.1-41,8.2-49.1,8.2-49.1c1.398-10.7-16.3-33.8-27.602-47.2
	c-5.198-6.2-9.1-10.4-9.1-10.4l87.6,9.7c1.4,0.5,2.7,1,4.102,1.4c7.7,2.8,96,33.4,100.3,40.8c2.7,4.6-20-5-21,27
	c-0.2,7-14.9,1.1-15,8c-0.1,10-5.5,13.1-5.5,23c0,8.6-34.9,22.8-39.5,30c-11.2,17.2-2.4,30.801-10,50c-6.4,16.2-15.5,12.4-30,23
	c-6.3,4.602-13,46.802-21.5,48c-9.8,1.4-31.5-42.898-39.1-47.8c-6.302-4.1-13.102-7.899-19.102-12.5c-2.898-2.2-5.5-6.2-8.6-8.3
	c-1.3-95.1-9.5-101.7-9.5-101.7l-4.3-8.3l-0.7-6c-0.3-1-0.5-1.9-0.7-2.9c-3.7-18,7.7-35.1,8-46.5c0-0.6,0-1.1,0.1-1.6
	c0.5-10.1,2.602-7.7,2.602-7.7c2,3.1,5.8,7.6,9.5,11.9C406.6,195.4,412,201,412,201c11.7,6.7,15.8,18.7,15.8,18.7h0.2
	c1.5,20.2,1.5,49.8,1.5,49.8c-0.1,3.4,0.8,9.4,0.8,9.4c-0.8,3.4-0.6,13.9-0.6,13.9c-0.3,1.601,1.6,11.601,1.6,11.601
	c5.102,0.899,3.4-11.399,3.2-12.5c0.2,0.801,2.1,7.399,2.7,8.699c4.8,11.2,4.398,14.4,6.8,13.7c1.3-0.399,0.6-4.8,0-7.899l0.2-0.101
	c2.2,6,7.2,14.3,3.7-1.3C447.7,304.4,447.6,304,447.5,303.6z"/>
<path fill="#FFFFFF" stroke="#000000" d="M291,161.5l57.5-8.5l0.6,0.1l64.4,6.4c0,0,3.9,4.2,9.1,10.4l-0.1,0.1c0,0-7.6,20-21.1,19
	c-3.7-4.2-7.5-8.8-9.5-11.9c0,0-2.102-2.4-2.602,7.7c0,0.5,0,1.1-0.1,1.6c-0.3,11.4-11.8,28.5-8,46.5h-0.1
	c-12.5,5.5-54.8-2.8-54.8-2.8c-3.7-1-2.3-14.7-2.3-14.7c-2.6,0-5.8-22.5-6-23.9c-5.4-2.6-4.7-7.7-4.7-7.7l-5.3,5.3
	c0.9,1.7-0.6,6.7-3,12.9c-17.4,3.9-23.3-11.5-23.3-11.5h-0.1c4.6-12.9,9.7-30.5,9.7-30.5l0,0C291.1,160.5,291,161,291,161.5z"/>
<path fill="#FFFFFF" stroke="#000000" d="M302.3,208c-6.4,14.5-15.8,31.8-15.8,31.8l0.2,0.1c-3.3,13.6-9.7,26.9-11.3,38.1
	c-1.3,9.2-14.3,30.3-14.9,30.1c-6.8,1.801-0.6-6.1-1.3-9.8c-8.1,2.601-7.9,3.2-13.7,12.3c-0.5,0.5-1.1,0.5-1.7,0.5
	c-0.1-0.3-0.2-0.699-0.1-1.1h-0.3c-1.6,2.4-2.3,0.6-2.5-0.1c-0.1,0.6-0.2,1.1-0.2,1.699c-0.1,0.399-0.9-0.5-1.1,0
	c-2.2-1.899,0-9.399,3.2-14c-1.4,1.101-6,6-7.3,5.5c-1.9-0.601,5.1-10.399,10.7-14.101c3.3-2.2,13-6.1,15.1-11.2
	c2.7-6.6,4.6-17,5-25.8c0.3-5.5,5.9-21.9,6.3-27.2c1.3-14.7,4-23.3,4-23.3c1.3-2.4,2.9-6.4,4.6-11h0.1c0,0,6,15.4,23.3,11.5
	C304.1,203.9,303.2,205.9,302.3,208z"/>
<polygon fill="#FFFFFF" stroke="#000000" points="192.1,267.6 189,269.8 189.1,273.5 186.1,271.3 182.5,272.5 183.7,268.9 
	181.5,265.9 185.2,266 187.4,262.9 188.5,266.5 "/>
<polygon fill="#FFFFFF" stroke="#000000" points="163,299.5 160,301.2 159.8,304.7 157.2,302.4 153.8,303.2 155.2,300 153.4,297.1 
	156.9,297.4 159.1,294.8 159.8,298.2 "/>
<polygon fill="#FFFFFF" stroke="#000000" points="235.4,338.2 231.2,342 231.9,347.6 227,344.8 221.8,347.2 223,341.6 219.2,337.5 
	224.8,336.9 227.6,332 229.8,337.2 "/>
<polygon fill="#FFFFFF" stroke="#000000" points="102.5,273.2 105.7,277.6 100.3,277.5 97.2,281.8 95.6,276.7 90.5,275 94.9,272 
	94.9,266.6 99.2,269.8 104.3,268.1 "/>
<polygon fill="#FFFFFF" stroke="#000000" points="77.5,310.5 73.1,315.1 74.5,321.4 68.7,318.6 63.2,321.8 64,315.5 59.2,311.2 
	65.5,310.1 68.1,304.2 71.2,309.8 "/>
<polygon fill="#FFFFFF" stroke="#000000" points="61.5,232.5 57.1,237.1 58.5,243.4 52.7,240.6 47.2,243.8 48,237.5 43.2,233.2 
	49.5,232.1 52.1,226.2 55.2,231.8 "/>
<polygon fill="#FFFFFF" stroke="#000000" points="93.3,177.8 86.3,178.8 83.2,185.2 80,178.8 73,177.8 78.1,172.9 76.9,165.9 
	83.2,169.2 89.4,165.9 88.2,172.9 "/>
<polygon fill="#FFFFFF" stroke="#000000" points="138.1,210.3 133.6,212.6 133.1,217.6 129.5,214.1 124.5,215.2 126.7,210.6 
	124.2,206.2 129.2,206.9 132.6,203.2 133.5,208.2 "/>
<polygon fill="#FFFFFF" stroke="#000000" points="210.6,193.8 203.6,194.8 200.5,201.2 197.4,194.8 190.4,193.8 195.4,188.9 
	194.2,181.9 200.5,185.2 206.8,181.9 205.6,188.9 "/>
<polygon fill="#FFFFFF" stroke="#000000" points="132.8,147 135.9,150.7 131,151 128.5,155.2 126.7,150.6 122,149.5 125.8,146.4 
	125.4,141.5 129.5,144.2 134,142.3 "/>
<polygon fill="#FFFFFF" stroke="#000000" points="56.8,128.5 59.9,132.4 54.9,132.5 52.2,136.5 50.6,131.9 45.8,130.5 49.8,127.5 
	49.6,122.6 53.7,125.5 58.3,123.8 "/>
<polygon fill="#FFFFFF" stroke="#000000" points="88.4,74.1 84.8,76.7 84.8,81 81.3,78.4 77.2,79.8 78.6,75.7 76,72.2 80.3,72.2 
	82.9,68.6 84.2,72.8 "/>
<polygon fill="#FFFFFF" stroke="#000000" points="132.4,75.5 128,77.4 127.1,82.1 123.9,78.5 119.2,79.2 121.6,75 119.5,70.7 
	124.2,71.7 127.7,68.4 128.2,73.2 "/>
<polygon fill="#FFFFFF" stroke="#000000" points="195,100.5 191.5,107.2 195,113.8 187.6,112.6 182.3,118 181.3,110.5 174.5,107.2 
	181.3,103.8 182.3,96.4 187.6,101.8 "/>
<polygon fill="#FFFFFF" stroke="#000000" points="239.8,121.5 243.9,126.4 237.6,126.6 234.2,132 232,126 225.8,124.5 230.8,120.6 
	230.4,114.2 235.7,117.8 241.5,115.4 "/>
<polygon fill="#FFFFFF" stroke="#000000" points="253.5,71.8 247.8,76.6 248.5,84.1 242.1,80.2 235.2,83.2 237,75.9 232,70.2 
	239.5,69.7 243.3,63.2 246.2,70.2 "/>
<polygon fill="#FFFFFF" stroke="#000000" points="192.8,22.2 187.7,25.4 187.5,31.4 182.9,27.5 177.2,29.2 179.4,23.6 176.1,18.7 
	182,19.1 185.7,14.4 187.2,20.2 "/>
<polygon fill="#FFFFFF" stroke="#000000" points="128.4,23.4 122,26.4 120.9,33.3 116.1,28.1 109.2,29.2 112.6,23 109.5,16.8 
	116.3,18.1 121.3,13.2 122.2,20.2 "/>
<polygon fill="#FFFFFF" stroke="#000000" points="56,42.9 49.4,43.9 46.5,49.8 43.6,43.9 37,42.9 41.8,38.3 40.6,31.7 46.5,34.8 
	52.4,31.7 51.3,38.3 "/>
<path fill="#FFFFFF" stroke="#000000" d="M310.9,139.2c-3.302,1.4-6.602,2.6-9.4,3.3c0,0-8.4,2.8-10.3,17.5l0,0l0,0
	c0,0-5,17.6-9.7,30.5c-1.7,4.6-3.3,8.6-4.6,11c0,0-2.7,8.7-4,23.3c-0.4,5.3-6.1,21.7-6.3,27.2c-0.4,8.8-2.3,19.3-5,25.8
	c-2.1,5.1-11.8,9-15.1,11.2c-5.6,3.7-12.6,13.4-10.7,14.1c1.3,0.5,5.9-4.398,7.3-5.5c-3.2,4.602-5.4,12.102-3.2,14
	c0.1-0.5,1,0.4,1.1,0c0.1-0.5,0.1-1.1,0.2-1.699c0.2,0.699,0.9,2.5,2.5,0.101h0.3c0,0.399,0,0.8,0.1,1.101
	c0.5-0.101,1.1-0.101,1.7-0.5c5.8-9.101,5.6-9.699,13.7-12.301c0.7,3.7-5.5,11.602,1.3,9.801c0.6,0.199,13.6-20.899,14.9-30.101
	c1.5-11.1,7.9-24.5,11.3-38.1l-0.2-0.1c0,0,9.4-17.3,15.8-31.8c0.101,11.8,4.301,21.9,4.801,33.6c0.398,8,0.1,16.2,0.5,24.3
	c0.3,6.8,2.398,12.7,2.5,19.4c-8.4,35.2-18.9,82.301-16.7,86.301c0,0-2,10,3,28.999c0,0,28.5,86.102,30.398,93.5l3.9-1.398
	c-0.2,1.7-1,6-4.6,11.2L325.8,503.6C173.4,516,56,567.5,56,567.5H0.5V0.5h822v567h-105c-111.7-49.7-221-66.6-317-67
	c-0.3-0.6-0.5-1.1-0.7-1.7c-1.6-3.8-2.5-7.5-1.6-9.6c0.5-1.2,0.5-2.9,0.2-4.7v-0.2c2.3-0.398,4.198-1,5.1-1.898h0.5
	c0.9-11.5-1-11-1-11l-1.5-20c0.3-4.5-2.6-23.2-3-31.7c-0.2-5-2-30.2-2-40.801c0-9.801-0.1-18.801-0.2-27.101
	c3,2,5.7,6.101,8.602,8.3c6,4.602,12.8,8.4,19.1,12.5c7.6,5,29.2,49.302,39.1,47.802c8.5-1.201,15.2-43.4,21.5-48.001
	c14.5-10.601,23.602-6.801,30-23c7.602-19.301-1.198-32.801,10-50c4.602-7.199,39.5-21.399,39.5-30c0-9.9,5.4-13,5.5-23
	c0.102-6.9,14.802-1,15-8c1-32,23.7-22.4,21-27c-4.3-7.4-92.6-38.1-100.3-40.8c-1.398-0.5-2.7-1-4.1-1.4
	c-14.602-5.1-29.3-9.8-44.102-14.2c-20.1-6.1-42.6-16.5-63.398-19.2l0,0c-1.3-0.1-2.602-0.1-3.8-0.2
	c-26.802-2.2-28.302-15.4-28.302-15.4h-0.1l-0.2-7.4c0.102-0.1,0.102-0.1,0.2-0.2l0.1-0.7l0.102-0.6h0.2c0,0,9.898-9,10.5-27.4
	c0.3-8.6-2.602-16.1-6.802-21l-0.398-0.1l3.2-13.7l-8.7,5l-2.8-6.5l-6.7,6.2l-0.102,0.1l-4.3-6.7l-6.5,8l-6.3-6.7l-2.5,8.8l-9.3-5.5
	l4,10.5l-0.5,0.2c-5.5,4.6-7.7,11.4-5.5,24.4c4.3,25.7,11,27.3,13.1,27.6c0.8,1.2,1.7,2.3,2.9,3c0,0,0.1,0.1,0.398,0.4l-0.3,0.3
	L334.4,127C333.3,127.4,321.7,134.5,310.9,139.2z M770.8,150.2l3.9-4.5l-5.9-0.3l-3.1-5l-2.102,5.5l-5.8,1.4l4.602,3.7l-0.5,5.9
	l5-3.2l5.5,2.3L770.8,150.2z M767.8,221.5l4.5-5.6l-7.2-0.1l-4-6l-2.3,6.8l-6.898,1.9l5.8,4.3l-0.3,7.2l5.898-4.1l6.8,2.5
	L767.8,221.5z M759.1,327.5l-3.198-3.3l0.898-4.5l-4.1,2.1l-4-2.3l0.7,4.6l-3.4,3.2l4.6,0.8l2,4.2l2.102-4.1L759.1,327.5z M748,30.2
	l6.5-3.8l-7-2.8l-1.6-7.4L741,22l-7.5-0.7l4,6.4l-3,6.9l7.3-1.8l5.602,5L748,30.2z M730.4,271.2l-2.5-3.7l1.6-4.2l-4.3,1.3l-3.5-2.8
	l-0.102,4.5l-3.8,2.5l4.3,1.5l1.2,4.4l2.8-3.6L730.4,271.2z M706.1,105.2l6.602-1l-4.8-4.6l1.1-6.5l-5.9,3.1l-5.898-3.1l1.1,6.5
	l-4.8,4.6l6.6,1l2.9,6L706.1,105.2z M687.2,183.8l7.398-1.1l-5.398-5.3l1.3-7.4l-6.7,3.5l-6.7-3.5l1.302,7.4l-5.4,5.3l7.4,1.1
	l3.3,6.8L687.2,183.8z M681.8,30.1l-4.3-4.3l1.1-5.9l-5.398,2.7l-5.3-2.9l0.898,6l-4.398,4.1l6,1l2.6,5.4l2.8-5.4L681.8,30.1z
	 M644.3,225.5l4.4-7.3l-8.5,1l-5.602-6.4l-1.698,8.4l-7.9,3.4l7.4,4.2l0.8,8.5l6.3-5.8l8.3,1.9L644.3,225.5z M641.6,293.8l-4.5-4.7
	l1.302-6.3l-5.802,2.8l-5.6-3.2l0.9,6.4l-4.802,4.3l6.302,1.2l2.6,5.9l3.1-5.7L641.6,293.8z M614.6,126.1l4.802-4.6l-6.602-1l-2.8-6
	l-3,5.9l-6.6,0.9l4.698,4.7l-1.198,6.5l5.898-3l5.8,3.2L614.6,126.1z M592.6,62.2l9.2-1.3l-6.7-6.5l1.602-9.2l-8.2,4.3l-8.2-4.3
	l1.602,9.2l-6.602,6.5l9.2,1.3l4.1,8.3L592.6,62.2z M525.3,99.3l3.8-1.1l-3.198-2.3l0.1-4l-3.2,2.4l-3.7-1.3l1.302,3.8l-2.4,3.1h4
	l2.3,3.3L525.3,99.3z M497.9,59.7l-4.102-4.9l1.7-6.1l-5.9,2.4l-5.3-3.5l0.4,6.3l-5,3.9l6.2,1.6l2.198,5.9l3.4-5.4L497.9,59.7z
	 M430.6,18.7l5.9-3l-6-2.9l-1-6.6l-4.6,4.8l-6.602-1l3.2,5.8l-3,5.9l6.5-1.2l4.7,4.7L430.6,18.7z M247.8,76.6l5.8-4.9l-7.4-1.6
	l-2.8-7l-3.8,6.5l-7.5,0.5l5,5.6l-1.8,7.3l6.9-3l6.4,4L247.8,76.6z M243.9,126.4l-4.1-4.9l1.7-6.1l-5.9,2.4l-5.3-3.5l0.4,6.3l-5,3.9
	l6.1,1.5l2.2,5.9l3.4-5.4L243.9,126.4z M231.2,342l4.2-3.8l-5.6-1.101l-2.3-5.199l-2.7,5l-5.6,0.6l3.9,4.1l-1.2,5.5l5.1-2.398
	l4.9,2.898L231.2,342z M203.6,194.8l7-1l-5.1-4.9l1.2-7l-6.3,3.3l-6.3-3.3l1.2,7l-5.1,4.9l7,1l3.1,6.4L203.6,194.8z M191.5,107.2
	l3.5-6.7l-7.4,1.3l-5.3-5.4l-1.1,7.4l-6.8,3.3l6.8,3.3l1.1,7.5l5.3-5.4l7.4,1.3L191.5,107.2z M187.7,25.4l5-3.2l-5.6-2.1l-1.5-5.8
	l-3.7,4.7l-5.9-0.4l3.3,4.9l-2.2,5.5l5.7-1.6l4.6,3.8L187.7,25.4z M189,269.8l3.1-2.2l-3.6-1.1l-1.1-3.6l-2.2,3.1h-3.8l2.3,3
	l-1.2,3.6l3.6-1.2l3,2.3L189,269.8z M160,301.2l3-1.7l-3.2-1.3l-0.7-3.4l-2.2,2.601l-3.4-0.399l1.8,3l-1.4,3.2l3.4-0.801l2.6,2.301
	L160,301.2z M133.6,212.6l4.5-2.4l-4.6-2.1l-0.9-5l-3.4,3.7l-5-0.7l2.5,4.4l-2.2,4.5l5-1l3.6,3.5L133.6,212.6z M135.9,150.7
	l-3.2-3.7l1.3-4.7l-4.5,1.9l-4.1-2.7l0.4,4.9l-3.8,3.1l4.8,1.1l1.8,4.6l2.5-4.2L135.9,150.7z M128,77.4l4.4-1.9l-4.2-2.3l-0.5-4.8
	l-3.5,3.3l-4.7-1l2.1,4.3l-2.4,4.1l4.8-0.6l3.2,3.6L128,77.4z M122,26.4l6.3-2.9l-6.2-3.2l-0.9-6.9l-5,4.9l-6.9-1.3l3.1,6.3
	l-3.4,6.1l6.9-1l4.8,5.1L122,26.4z M105.7,277.6l-3.2-4.3l1.8-5.1l-5.1,1.7l-4.3-3.3v5.4l-4.4,3.1l5.1,1.6l1.6,5.1l3.1-4.4
	L105.7,277.6z M86.3,178.8l7-1l-5.1-4.9l1.2-7l-6.3,3.3l-6.3-3.3l1.2,7l-5.1,4.9l7,1l3.1,6.4L86.3,178.8z M84.8,76.7l3.6-2.5
	l-4.2-1.3l-1.3-4.2l-2.5,3.6L76,72.2l2.6,3.5l-1.4,4.1l4.1-1.4l3.5,2.6V76.7z M73.1,315.1l4.4-4.6l-6.4-0.7l-3.1-5.6l-2.6,5.8
	l-6.3,1.2l4.8,4.3l-0.8,6.3l5.5-3.2l5.8,2.7L73.1,315.1z M57.1,237.1l4.4-4.6l-6.4-0.7l-3.1-5.6l-2.6,5.8l-6.3,1.2l4.8,4.3l-0.8,6.3
	l5.5-3.2l5.8,2.7L57.1,237.1z M59.9,132.4l-3-3.9l1.5-4.7l-4.6,1.7l-4-2.9l0.2,4.9l-4,3l4.8,1.4l1.6,4.7l2.8-4.1L59.9,132.4z
	 M49.4,43.9l6.6-1l-4.8-4.6l1.1-6.5l-5.9,3.1l-5.9-3.1l1.1,6.5L37,42.9l6.6,1l2.9,6L49.4,43.9z"/>
<path fill="none" stroke="#000000" d="M355.5,190.5c5.3,3,24.9,5.3,28.3-6.7"/>
<path fill="none" stroke="#000000" d="M341,103.3c0,0,0.3,2.4,2.3,1.1"/>
<path fill="none" stroke="#000000" d="M350,103.1c0,0-0.3,2.4-2.3,1.1"/>
<path fill="none" stroke="#000000" d="M342.9,103c0,0,2.6,6.1,5.3-0.3"/>
<path fill="none" stroke="#000000" d="M341.6,89.8c0,0-7.6-5.4-12.5-3.9"/>
<path fill="none" stroke="#000000" d="M347,89.8c0,0,8.1-8.1,13.8-3.5"/>
<line fill="none" stroke="#000000" x1="338" y1="489.5" x2="343" y2="501"/>
<path fill="none" stroke="#000000" d="M452.4,303.3c-0.302-1.2-4.602-11.2-4.602-11.2"/>
<line fill="none" stroke="#000000" x1="447.1" y1="302" x2="444.1" y2="294.8"/>
<line fill="none" stroke="#000000" x1="443.3" y1="303.2" x2="440.3" y2="296.1"/>
<path id="www.ABC-color.com" fill="none" stroke="#000000" d="M443.3,303.2c0,0,0.3,1.2,0.7,2.899"/>
<path fill="none" stroke="#000000" d="M352.1,287.2c-0.698,5.8-0.8,14.2-0.5,20.8"/>
<path fill="none" stroke="#000000" stroke-linecap="round" d="M240.9,311.6c0.9-5.1,3.1-13.199,8.4-16.1"/>
<path fill="none" stroke="#000000" stroke-linecap="round" d="M245.8,294.6c-0.9,0.602-1.8,1.602-2.6,2.801"/>
<path fill="none" stroke="#000000" stroke-linecap="round" d="M243.9,309.4c0.5-3.7,4.3-10.5,8.8-12.301"/>
<line fill="none" stroke="#000000" x1="334.2" y1="127.5" x2="333.3" y2="136.2"/>
<line fill="none" stroke="#000000" x1="313.1" y1="183" x2="312.7" y2="179.5"/>
<line fill="none" stroke="#000000" x1="361.4" y1="120.9" x2="361.6" y2="128.8"/>
<path fill="none" stroke="#000000" d="M339.2,191.2c0,0,3.5-1.2,6.1-5.8"/>
<path fill="none" stroke="#000000" stroke-linecap="round" d="M288.6,229.3c-0.3,3.5-1,7-1.8,10.6"/>
<path fill="none" stroke="#000000" d="M318.3,191.8c3.7,1.6,10,2.1,20.8-0.6"/>
</svg>
