<?xml version="1.0" encoding="utf-8"?>
<!-- Generator: Adobe Illustrator 15.0.0, SVG Export Plug-In . SVG Version: 6.00 Build 0)  -->
<!DOCTYPE svg PUBLIC "-//W3C//DTD SVG 1.1//EN" "http://www.w3.org/Graphics/SVG/1.1/DTD/svg11.dtd">
<svg version="1.1" id="Layer_x5F_www.ABC-color.com"
	 xmlns="http://www.w3.org/2000/svg" xmlns:xlink="http://www.w3.org/1999/xlink" x="0px" y="0px" width="822px" height="567px"
	 viewBox="0 0 822 567" enable-background="new 0 0 822 567" xml:space="preserve">
<rect x="0.5" y="0.5" display="none" fill="#FFFFFF" width="822" height="567"/>
<path fill="#FFFFFF" stroke="#000000" d="M761.5,531.4c-15,12-36-3-36-3c-9,8-27-3-27-3c0-32.302,2.2-60.2,5.6-84.4
	c11.102-78,35.102-117,40.4-135.4c69.7,2.5,77.3-6.3,78-9.1v235c-5,12-31-2-31-2C783.5,543.4,761.5,531.4,761.5,531.4z"/>
<path fill="#FFFFFF" stroke="#000000" d="M745.5,295.5c0,0,77,0,77-8v8v0.9c-0.7,2.898-8.3,11.699-78,9.1
	C746.5,298.6,745.5,295.5,745.5,295.5z"/>
<path fill="#FFFFFF" stroke="#000000" d="M633.5,1.5v-1h189v287c0,8-77,8-77,8C618.5,267,627.3,68.3,632.1,14.8
	C632.8,6.3,633.5,1.5,633.5,1.5z"/>
<path fill="#FFFFFF" stroke="#000000" d="M598.7,394.6c-0.8,0-1.5-2.1-1.5-4.699c0-2.601,0.7-4.699,1.5-4.699s1.5,2.1,1.5,4.699
	S599.5,394.6,598.7,394.6z"/>
<path fill="#FFFFFF" stroke="#000000" d="M598.3,380.5c-1,0-1.8-2.1-1.8-4.7c0-2.6,0.8-4.7,1.8-4.7s1.8,2.102,1.8,4.7
	C600.2,378.4,599.3,380.5,598.3,380.5z"/>
<path fill="#FFFFFF" stroke="#000000" d="M592.9,338.9c-0.4-1.102-1-2.102-1.802-3l0.102-0.2c1.898-1.5,4.398-3.7,5-4.101
	c1.7-1,4-0.301,5,1.101c1,1.5,0.5,3.5-1.3,4.2C599.2,337.4,595.4,338.3,592.9,338.9L592.9,338.9L592.9,338.9z"/>
<path fill="#FFFFFF" stroke="#000000" d="M595.2,361.8c0-2.8,0.7-5,1.7-5s1.698,2.2,1.698,5s-0.8,5-1.698,5
	C596,366.8,595.2,364.6,595.2,361.8z"/>
<path fill="#FFFFFF" stroke="#000000" d="M595.8,349.8c1.102,1.4,0.4,3.4-1.398,4.2c-1.802,0.9-4.102,0.4-5-1.1
	c-0.302-0.602-1-2.4-1.7-4.5V348.3c1.6-0.399,2.898-1.3,3.898-2.5C593.4,347.4,595.4,349.3,595.8,349.8z"/>
<path fill="#FFFFFF" stroke="#000000" d="M593.3,342.6c2.5,0.602,5.9,1.301,6.602,1.5c1.1,0.5,1.698,1.301,1.8,2.301
	c0.1,0.699-0.102,1.301-0.5,2c-1,1.5-3.3,2.101-5,1.101c-0.602-0.399-2.7-2.2-4.602-3.7c0.802-0.898,1.302-2,1.5-3.3L593.3,342.6z"
	/>
<path fill="#FFFFFF" stroke="#000000" d="M592.9,338.9c2.5-0.5,6.3-1.301,7.1-1.4c2-0.1,3.7,1.4,3.7,3.1c0,1.7-1.7,3.2-3.7,3.102
	c-0.8-0.102-4.2-0.602-6.8-1.2H593.1c0.102-0.399,0.102-0.899,0.102-1.3C593.3,340.4,593.1,339.7,592.9,338.9L592.9,338.9
	L592.9,338.9z"/>
<path fill="#FFFFFF" stroke="#000000" d="M592,398.3c-0.6,0-1.2-2.3-1.2-5.2c0-2.898,0.5-5.199,1.2-5.199s1.2,2.301,1.2,5.199
	C593.2,395.9,592.7,398.3,592,398.3z"/>
<path fill="#FFFFFF" stroke="#000000" d="M591,336c-1-1-2.3-1.7-3.8-1.9c0.7-2.1,1.8-5.1,2.1-5.699c0.9-1.5,3.3-2,5-1.101
	c1.8,0.9,2.5,2.8,1.4,4.2c-0.4,0.5-2.8,2.8-4.7,4.4V336z"/>
<path fill="#FFFFFF" stroke="#000000" d="M589.5,378.5c0-3,0.7-5.3,1.5-5.3s1.5,2.399,1.5,5.3c0,3-0.7,5.4-1.5,5.4
	S589.5,381.5,589.5,378.5z"/>
<path fill="#FFFFFF" stroke="#000000" d="M589.7,368.8c-0.8,0-1.5-2.399-1.5-5.399s0.7-5.399,1.5-5.399s1.5,2.399,1.5,5.399
	S590.5,368.8,589.7,368.8z"/>
<path fill="#FFFFFF" stroke="#000000" d="M586,348.5c-1.1,0-2.1-0.2-3-0.7c-1.3-0.6-2.3-1.5-3-2.7c-0.6-0.898-1-1.898-1.1-3
	c-0.102-0.3-0.102-0.6-0.102-0.898c0-0.7,0.102-1.301,0.3-1.9c0.302-1,0.802-2,1.4-2.8c0.8-0.899,1.8-1.7,3-2.101
	c0.8-0.301,1.7-0.5,2.6-0.5c0.4,0,0.9,0,1.302,0.101c1.5,0.3,2.698,1,3.8,1.899c0.8,0.801,1.5,1.801,1.8,3
	c0.2,0.699,0.4,1.5,0.4,2.301c0,0.5,0,0.898-0.102,1.3c-0.2,1.2-0.8,2.3-1.5,3.3c-1,1.2-2.398,2.102-3.898,2.5
	C587.2,348.4,586.6,348.5,586,348.5z"/>
<path fill="#FFFFFF" stroke="#000000" d="M585.8,389.7c0,2.7-0.6,4.8-1.3,4.8s-1.3-2.2-1.3-4.8c0-2.7,0.6-4.9,1.3-4.9
	S585.8,387,585.8,389.7z"/>
<path fill="#FFFFFF" stroke="#000000" d="M583.4,334.4c-0.602-2.102-1.802-5.5-1.802-6.2c-0.1-1.7,1.7-3.101,3.7-3.101
	c0.7,0,1.3,0.199,1.9,0.399l0,0c1.1,0.5,1.898,1.5,1.8,2.601c-0.1,0.601-1,3.699-1.7,5.801c-0.398-0.102-0.8-0.102-1.3-0.102
	C585.1,333.9,584.2,334.1,583.4,334.4L583.4,334.4z"/>
<path fill="#FFFFFF" stroke="#000000" d="M583.5,382.5c-0.9,0-1.7-2.7-1.7-6s0.8-6,1.7-6s1.7,2.7,1.7,6S584.4,382.5,583.5,382.5z"/>
<path fill="#FFFFFF" stroke="#000000" d="M581.6,353c0.102-0.6,0.7-3.1,1.4-5.2c0.9,0.4,2,0.7,3,0.7c0.6,0,1.2-0.1,1.7-0.2v0.101
	c0.6,2.101,1.2,4,1.2,4.699c0.1,1.7-1.7,3.102-3.7,3.102S581.4,354.7,581.6,353z"/>
<path fill="#FFFFFF" stroke="#000000" d="M580.2,363.5c0-2.4,0.7-4.3,1.5-4.3s1.5,1.899,1.5,4.3s-0.7,4.3-1.5,4.3
	S580.2,365.9,580.2,363.5z"/>
<path fill="#FFFFFF" stroke="#000000" d="M574.7,349.8c0.398-0.5,3.398-3,5.2-4.6c0.698,1.2,1.8,2.1,3,2.7c-0.7,2.1-1.5,4.5-1.9,5.1
	c-0.9,1.5-3.3,2-5,1.1l0,0c-1.2-0.6-1.9-1.699-1.9-2.699C574.1,350.8,574.3,350.3,574.7,349.8z"/>
<path fill="#FFFFFF" stroke="#000000" d="M574.3,349.5c-1.7,1-4,0.3-5-1.1c-1-1.5-0.5-3.5,1.3-4.2c0.7-0.3,5-1.2,7.602-1.8
	c0.2,0,0.3-0.102,0.5-0.102h0.1c0.102,1.102,0.5,2.102,1.102,3C578,346.7,575,349.1,574.3,349.5z"/>
<path fill="#FFFFFF" stroke="#000000" d="M576,327.2c1.8-0.9,4.1-0.4,5,1.1c0.3,0.601,1.6,4,2.3,6l0,0c-1.2,0.4-2.2,1.2-3,2.101
	c-1.8-1.601-5.3-4.601-5.8-5.101C573.5,330,574.3,328.1,576,327.2z"/>
<path fill="#FFFFFF" stroke="#000000" d="M598.3,380.5c1,0,1.8-2.1,1.8-4.7c0-2.6-0.8-4.7-1.8-4.7s-1.8,2.102-1.8,4.7
	C596.5,378.4,597.3,380.5,598.3,380.5z M598.7,394.6c0.8,0,1.5-2.1,1.5-4.699c0-2.601-0.7-4.699-1.5-4.699s-1.5,2.1-1.5,4.699
	S597.8,394.6,598.7,394.6z M596.8,366.8c0.9,0,1.7-2.2,1.7-5s-0.8-5-1.7-5c-0.898,0-1.7,2.2-1.7,5
	C595.2,364.6,595.9,366.8,596.8,366.8z M592,398.3c0.7,0,1.2-2.3,1.2-5.2c0-2.898-0.5-5.199-1.2-5.199c-0.6,0-1.2,2.301-1.2,5.199
	C590.8,395.9,591.4,398.3,592,398.3z M589.7,368.8c0.8,0,1.5-2.399,1.5-5.399s-0.7-5.399-1.5-5.399s-1.5,2.399-1.5,5.399
	S588.8,368.8,589.7,368.8z M589.5,378.5c0,3,0.7,5.4,1.5,5.4s1.5-2.4,1.5-5.4s-0.7-5.3-1.5-5.3S589.5,375.6,589.5,378.5z
	 M583.5,382.5c0.9,0,1.7-2.7,1.7-6s-0.8-6-1.7-6s-1.7,2.7-1.7,6S582.6,382.5,583.5,382.5z M584.5,394.6c0.7,0,1.3-2.199,1.3-4.8
	c0-2.7-0.6-4.899-1.3-4.899s-1.3,2.199-1.3,4.899C583.2,392.4,583.8,394.6,584.5,394.6z M580.2,363.5c0,2.4,0.7,4.3,1.5,4.3
	s1.5-1.899,1.5-4.3s-0.7-4.3-1.5-4.3S580.2,361.1,580.2,363.5z M583,434.5c-15,0.5-6.9-14.5-6.9-14.5s-20.8,0-25.5-12.7
	c0,0,3.802-7.898,7.7-14.1c0,0-12.2,0.2-12.7-4.8c0,0,15.5-22.4,25.2-31c2-1.801,3.8-3,5.102-3.301l0.1-0.101l0,0
	c1.8,0.899,4.1,0.399,5-1.101c0.3-0.601,1.2-3,1.9-5.101c-0.7,2.101-1.302,4.5-1.4,5.2c-0.1,1.7,1.7,3.1,3.7,3.1s3.8-1.398,3.7-3.1
	c-0.102-0.6-0.602-2.5-1.2-4.7c0.7,2.101,1.398,4,1.7,4.5c0.898,1.5,3.3,2,5,1.101c1.8-0.899,2.5-2.801,1.398-4.199
	c-0.398-0.5-2.398-2.4-4.2-4c1.9,1.5,3.9,3.3,4.602,3.699c1.7,1,4,0.301,5-1.101c0.398-0.601,0.6-1.3,0.5-2h0.1
	c0,0,26.7,21.399,27.7,33.5c0,0-1,7.5-5,10c0,0,5.5,21.602,2,24.602c0,0-4.7,3.198-11.2,7C605.6,427.1,591.8,434.3,583,434.5z"/>
<path fill="#FFFFFF" stroke="#000000" d="M570.8,357.3c-25.2,17.2-41.7,8-41.7,8c-5.5,0-20-16.5-20-16.5l19-0.5
	c14.5,14.601,45.5,3,45.5,3h0.5c0,1.101,0.7,2.101,1.9,2.7l-0.1,0.1C574.6,354.4,572.8,355.6,570.8,357.3L570.8,357.3z"/>
<path fill="#FFFFFF" stroke="#000000" d="M569.3,332.9c1-1.5,3.3-2.102,5-1.102c0.602,0.4,4.3,3.301,6.102,4.801
	c-0.7,0.801-1.2,1.699-1.4,2.801l0,0c-2.5-0.602-7.7-1.9-8.4-2.2C568.8,336.4,568.3,334.4,569.3,332.9z"/>
<path fill="#FFFFFF" stroke="#000000" d="M570.5,343.7c-2,0.1-3.7-1.4-3.7-3.101c0-1.699,1.7-3.199,3.7-3.101c0.8,0,6,1.3,8.5,1.8
	l0,0c-0.2,0.602-0.3,1.2-0.3,1.9c0,0.3,0,0.6,0.1,0.898h-0.1c-0.2,0-0.3,0.102-0.5,0.102C575.6,342.8,571.2,343.7,570.5,343.7z"/>
<path fill="#FFFFFF" stroke="#000000" d="M518.9,329.2c-23.5,0-30.802-28.601-30.802-28.601c-46-45.201-41.5-43.899-55.5-45.399
	c6.4-3.1,15.9-6.7,25-5.9c-0.198-3.3,0.2-6.8,0.802-10.5c104.8,5.4,128.3,85.4,128.698,86.7c-0.6-0.3-1.198-0.4-1.898-0.4
	c-2,0-3.8,1.4-3.7,3.102c0.1,0.6,1.2,4,1.8,6.199c-0.7-2.101-2-5.5-2.3-6c-0.9-1.5-3.3-2-5-1.101c-1.8,0.9-2.5,2.8-1.4,4.2
	c0.4,0.5,3.9,3.5,5.802,5.1c-1.9-1.5-5.5-4.398-6.102-4.8c-1.7-1-4-0.3-5,1.101c-1,1.5-0.5,3.5,1.3,4.199
	c0.7,0.301,5.9,1.602,8.4,2.201c-2.5-0.5-7.7-1.801-8.5-1.801c-2-0.1-3.7,1.4-3.7,3.1c0,1.701,1.7,3.201,3.7,3.102
	c0.7-0.102,5.1-0.9,7.8-1.5c-2.6,0.6-7,1.6-7.6,1.8c-1.8,0.8-2.4,2.8-1.3,4.2c1,1.5,3.3,2.1,5,1.1c0.6-0.398,3.698-2.8,5.6-4.3
	c-1.8,1.601-4.8,4.101-5.2,4.601c-0.398,0.5-0.5,1-0.5,1.5h-0.5c0,0-31,11.5-45.5-3c3-14.5-8-19.101-8-19.101
	C519.8,329.2,519.4,329.2,518.9,329.2C519,329.2,519,329.2,518.9,329.2z"/>
<path fill="#FFFFFF" stroke="#000000" d="M479.7,198.9c5.2,1.7,12.2-2,17.7-1.6c1.898,8,11.5,1.3,13.198-2.7c0.9-2-1.8-3.9-2.8-6.4
	c0.2,0,0.5,0,0.7,0c3.8,2.5,44.8,32.9,48.6,35.6c6.2,4.5,16.102,7.4,22.4,8.6c4.9,0.9,14.5-5.6,18.3-7.4c6.5-3,18-3.9,17.102-1.9
	c-0.7,1.4-7.2,2.8-8.9,3.5c5.4-0.3,12,1.7,11.7,4.8c-0.4-0.1-0.5,1.1-0.8,1c-0.5-0.3-1.102-0.6-1.7-0.9c0.1,0.7-0.102,2-0.4,2.6
	c-0.3,0.1-0.7,0.1-1.1,0.1c0.3,0.2,0.5,0.5,0.7,0.7c-0.4,0.4-0.802,1-1.5,1.2c-10.302,0.2-10.5-0.3-18,5.5
	c1.898,2.6,11.698,1.4,5.6,6.4c-0.3,0.6-23.4-0.2-30.9-3.1C524,227.5,501,212.5,479.7,198.9z"/>
<path fill="#FFFFFF" stroke="#000000" d="M450.2,183.5c-0.3-1.2-0.4-2.3-0.3-3.3l0.5,0.1c7.698-2,20.198-0.4,28.3,0.5
	c9.1,1,17.398-3.7,26.6-3.7l0.4-0.1c0,0.7-1.602,0.4-1.3,2c0.398,1.8,6.398,1.5,5,3c-0.2,0.2-0.302,0.4-0.5,0.6
	c-1.7,2.2-1.802,4-1.2,5.5c-5.3-0.1-13.3-1.4-17.9-0.6c-2.8,0.5-3.8,2.3-7.398,2c-0.602-0.1-4.802-2.1-5.802-2.4
	C461.1,181.7,453,183.5,450.2,183.5L450.2,183.5z"/>
<path fill="#FFFFFF" stroke="#000000" d="M494.5,328.3c3,2.601,8,5.2,15.7,2.9c3.8-1.101,6.8-1.9,8.8-2c0,0,0,0,0.1,0
	c0.4,0,0.802,0,1.102,0c0,0,11,4.5,8,19.1l-19,0.5c0,0-7.2,3-14.602-20.2C494.5,328.4,494.5,328.4,494.5,328.3z"/>
<path fill="#FFFFFF" stroke="#000000" d="M474.1,172.5c-4.198-0.2-7.398,2-12.5,2c-4,0-4.3-2.5-7.398,0
	c-1.102-0.8-1.9-1.6-2.602-2.4l0.2-0.2c2-0.3,0.2-1,2.9-1.9c1.8-0.6,4-2,5.2-2.4c3.398-1.1,11.398,1.9,12.8-2.2
	c9.8-2,16.3-3.3,19.2-3.3c0.3,0.3,0.6,0.6,0.898,1c1.4,1.4,1.8,3,1.602,5v0.1C490.4,168.4,475.6,169,474.1,172.5z"/>
<path fill="#FFFFFF" stroke="#000000" d="M488.1,300.6c0,0,7.302,28.602,30.802,28.602c-2,0.1-5,0.8-8.802,2
	c-7.6,2.3-12.698-0.301-15.698-2.9C492.3,321.5,490.2,312.5,488.1,300.6z"/>
<path fill="#FFFFFF" stroke="#000000" d="M469.1,305.1c8.302,3.2,19.102-4.5,19.102-4.5c2,11.9,4.2,20.9,6.3,27.7
	c-2.3-2-3.3-4.1-3.3-4.1C491.1,322.3,478.8,308.1,469.1,305.1L469.1,305.1z"/>
<path fill="#FFFFFF" stroke="#000000" d="M466.6,304.6c0.802,0.102,1.602,0.301,2.4,0.5c9.8,3,22.1,17.2,22.1,19.102
	c0,0,1,2.1,3.302,4.1c0,0.102,0,0.2,0.1,0.2c0,0-13.9,2.7-24.4-18.899c0,0-3.8-4.399-4.8-4.399l0.3-0.8
	C465.9,304.5,466.3,304.6,466.6,304.6z"/>
<path fill="#FFFFFF" stroke="#000000" d="M465.3,305.2c1.102,0,4.8,4.399,4.8,4.399c10.5,21.601,24.4,18.899,24.4,18.899
	c7.4,23.2,14.6,20.2,14.6,20.2s14.5,16.5,20,16.5c0,0,16.4,9.199,41.7-8l0,0c-9.7,8.6-25.2,31-25.2,31c0.5,5,12.7,4.8,12.7,4.8
	c-3.898,6.2-7.7,14.1-7.7,14.1c4.7,12.7,25.5,12.7,25.5,12.7s-8.1,15,6.9,14.5c8.8-0.3,22.6-7.398,32.3-13.1l5.7,21l6.1,28.6
	c-40.698,43.5-70.898,36-70.898,36c-12.8,10.5-27.3,9-35.8,6.602v-0.2c3.5-0.5,6-3.8,5.5-7.4c-0.5-3.6-3.802-6.1-7.302-5.6
	l0.802-4.5c3.398-1,5.398-4.602,4.398-8.102c-0.898-3.1-3.898-5-7-4.6l0,0l-1.1-5c3.398-1,5.398-4.6,4.398-8.1s-4.6-5.4-8.1-4.4
	l-1.1-5.2c3.398-1,5.398-4.6,4.398-8.1s-4.6-5.4-8.1-4.4L506,443.9c3.4-1.102,5.3-4.7,4.3-8.2s-4.7-5.4-8.1-4.3l-1.7-3.7
	c2.9-2.102,3.6-6.2,1.4-9.102c-2.102-2.898-6.2-3.6-9.102-1.398l-1.398-5.8c2.898-2.102,3.6-6.2,1.398-9.102
	c-2.1-2.898-6.2-3.6-9.1-1.398l-2.7-6.2c2.899-2.101,3.6-6.2,1.399-9.101c-2.199-2.899-6.199-3.601-9.101-1.399l-3-8.2
	c3.601-0.3,6.2-3.5,5.9-7.1c-0.301-3.602-3.5-6.2-7-5.9l-1-3.1c3.6-0.4,6.1-3.602,5.699-7.2c-0.399-3.601-3.601-6.2-7.199-5.7
	l-1-4.7c3.3-1.3,5-5.101,3.699-8.5c-1.301-3.3-5.101-5-8.399-3.7l-0.8-3.5c3.3-1.3,5-5.1,3.7-8.5c-1.302-3.398-5.102-5-8.4-3.699
	l-0.2-3.5v-0.199c4.9-1.301,9.5-4.102,9.5-5.2C465,305.3,465.1,305.2,465.3,305.2z"/>
<path fill="#FFFFFF" stroke="#000000" d="M462.4,192.7c-1.7-9.8-8.4,1.2-11.2-6.6c-0.4-0.9-0.8-1.7-1-2.5h0.1
	c2.7,0,10.7-1.8,26.4,3.6c1,0.3,5.2,2.3,5.8,2.4c3.6,0.4,4.6-1.5,7.4-2c4.6-0.7,12.5,0.5,17.898,0.6c1,2.5,3.7,4.4,2.8,6.4
	c-1.698,4.1-11.3,10.7-13.198,2.7c-5.5-0.3-12.5,3.3-17.7,1.6c-0.8-0.5-1.7-1.1-2.5-1.6c-0.3-0.3-0.5-0.6-0.8-1
	c-0.9-1.3-1.602-2.8-3-3.5C470.8,191.6,465.3,192.8,462.4,192.7z"/>
<path fill="#FFFFFF" stroke="#000000" d="M454.3,174.5c3.102-2.5,3.4,0,7.4,0c5.1,0,8.3-2.1,12.5-2c1.5-3.5,16.3-4.1,20.3-4.4V168
	c8.3-0.8,7.7,2.7,11.1,8.4c0.102,0.2,0.2,0.4,0.2,0.6l-0.398,0.1c-9.2,0-17.5,4.6-26.602,3.7c-8-0.8-20.6-2.5-28.3-0.5l-0.5-0.1
	C450.3,178.1,451.7,176.3,454.3,174.5z"/>
<path fill="#FFFFFF" stroke="#000000" d="M451,162.9c-4.5-0.4-6.8-1.9-7.6-5.6l0.6-0.1c1.5-1.9,5.8-1.7,7.5-3.5
	c3.3-3.4,1.5,0.7,6.4-1.3c2.6-1.1,5.5-4.3,8.3-6.3c2.7-2,5.3-2.9,7.3,0.1c0.8,1.2,0.5,3.4,0.2,4.9h-1.9c-0.8,0-1.8,0-1.898,0.2
	c-0.5,0.7,0.3,2.3-0.2,3c-1.9,2.5-10.2,1.3-11.3,4.4c-1-0.1-2.602-0.3-3.5,0.2C451.8,160.6,451.1,162.2,451,162.9z"/>
<path fill="#FFFFFF" stroke="#000000" d="M435.6,289.5l-7.8-26.8c0.5,0.8,11.2,15.9,21.7,27.7c0.6,2.699,4.3,6.8,2.1,11.1
	c0.5-2-4.1-6.5-6.5-9C443.9,291.2,436.6,286.5,435.6,289.5z"/>
<path fill="#FFFFFF" stroke="#000000" d="M450,168.1L450,168.1c-0.2-1.4,0.2-3,1-4.8c0-0.1,0.1-0.2,0.2-0.3c-0.102,0-0.102,0-0.2,0
	c0.1-0.8,0.8-2.3,3.8-4.1c0.9-0.6,2.5-0.4,3.5-0.2c1.102-3.1,9.5-1.9,11.3-4.4c0.5-0.7-0.3-2.3,0.2-3c0.102-0.1,1.102-0.2,1.9-0.2
	h1.898c2.2,0.1,5.302-1.5,6.7,0.2c0.602,0.7,0.3,2.1,0.2,2.9c0.1,0.1,0.3,0.1,0.5,0.2c-1,1-2,1.6-3.2,3c-3.3,0.2-7.898-1.3-8.8,2.5
	c-6.4,3.6-4.4,4.6-12.4,5C453.8,165.4,452.2,168.8,450,168.1z"/>
<path fill="#FFFFFF" stroke="#000000" d="M450,168.1c2.2,0.7,3.8-2.7,6.7-3.2c8-0.4,6-1.4,12.398-5c0.9-3.8,5.5-2.3,8.802-2.5
	c1.198-1.4,2.3-2,3.198-3c2.7,0.9,5.7,1.3,7.802,2.9c2.1,1.6,0.698,2.1,3,4.8c-3,0-9.4,1.3-19.2,3.3c-1.4,4.1-9.4,1.1-12.8,2.2
	c-1.102,0.4-3.302,1.8-5.2,2.4c-2.7,0.9-0.9,1.5-2.9,1.9l-0.2,0.2C450.6,170.9,450,169.5,450,168.1L450,168.1z"/>
<path fill="#FFFFFF" stroke="#000000" d="M427,259.4L427,259.4l-0.4-0.9l0,0c0.9-0.6,2.2-1.3,3.9-2.2c15.1,13.8,24.6,19.4,28.7,21.5
	C456.4,277,438.1,274.8,427,259.4z"/>
<path fill="#FFFFFF" stroke="#000000" d="M459.3,277.8c-4.1-2.1-13.6-7.8-28.7-21.5c0.7-0.3,1.4-0.7,2.102-1.1l0,0
	c14,1.5,9.5,0.2,55.5,45.399c0,0-10.8,7.699-19.102,4.5c-5.6-2.199-10.1-9.301-9.398-27.101C459.6,277.9,459.5,277.9,459.3,277.8
	L459.3,277.8z"/>
<path fill="#FFFFFF" stroke="#000000" d="M445.9,309.9c2.198,2,5.898,1.8,9.6,0.8v0.2l0.2,3.5c3.3-1.301,7.1,0.3,8.398,3.699
	c1.302,3.301-0.398,7.101-3.698,8.5l0.8,3.5c3.398-1.301,7.1,0.399,8.398,3.699c1.302,3.4-0.3,7.102-3.698,8.5l1,4.7
	c3.6-0.399,6.8,2.2,7.198,5.7c0.4,3.6-2.1,6.8-5.698,7.199l1,3.101c3.6-0.3,6.698,2.3,7,5.899c0.3,3.601-2.302,6.801-5.9,7.101
	l3,8.2c2.9-2.102,7-1.5,9.1,1.398c2.102,2.9,1.5,7-1.398,9.102l2.7,6.2c2.898-2.102,7-1.5,9.1,1.398c2.1,2.9,1.5,7-1.4,9.102
	l1.4,5.8c2.9-2.102,7-1.5,9.1,1.398c2.102,2.9,1.5,7-1.398,9.102l1.7,3.7c3.398-1.102,7.1,0.898,8.1,4.3c1.1,3.398-0.9,7.1-4.3,8.2
	l1.2,3.898c3.5-1,7.1,1,8.1,4.4c1,3.5-1,7.1-4.399,8.1l1.101,5.2c3.398-1,7,1,8.1,4.4c1.102,3.398-1,7.1-4.398,8.1l1.1,5l0,0
	c3.1-0.4,6.1,1.5,7,4.6c1,3.5-1,7.102-4.4,8.102l-0.8,4.5c3.602-0.5,6.8,2,7.3,5.6c0.5,3.602-2,6.9-5.5,7.4v0.2
	c8.5,2.3,23,3.898,35.802-6.602c0,0,30.198,7.5,70.898-36l1.4,6.7c-41,44.2-71.5,36.602-71.5,36.602c-19.5,16.1-43,4-43,4
	c-0.5-86.802-50-137.5-50-137.5C468,349.8,445.8,309.9,445.9,309.9L445.9,309.9z"/>
<path fill="#FFFFFF" stroke="#000000" d="M444.6,299.6L444.6,299.6c-0.3-0.6-1.698-5.898,0.5-7c2.4,2.5,7,7,6.5,9
	S444.6,299.6,444.6,299.6z"/>
<path fill="#FFFFFF" stroke="#000000" d="M444.6,299.6c0,0,6.5,4,7,2c2.302-4.3-1.5-8.398-2.1-11.1c6.1,6.9,12.1,12.7,16,13.9
	l-0.3,0.8c-0.2,0-0.3,0.1-0.3,0.399c0,1.101-4.602,3.899-9.5,5.199c-3.7,1-7.4,1.102-9.602-0.8c-0.3-0.2-0.5-0.5-0.7-0.8
	C441.8,304.3,444.4,299.9,444.6,299.6L444.6,299.6L444.6,299.6z"/>
<path fill="#FFFFFF" stroke="#000000" d="M439.6,101.3c1-0.3,1.7-1.1,1.7-2c0-1.2-1.1-2.2-2.6-2.2v-0.2c2.3,0,4.6-0.2,6.2,1.3
	C444.1,100.2,442,101.1,439.6,101.3z"/>
<path fill="#FFFFFF" stroke="#000000" d="M438.1,101.4c-1.1-0.2-1.898-1.1-1.898-2.1c0-1.2,1.2-2.2,2.6-2.2c1.4,0,2.602,1,2.602,2.2
	c0,1-0.7,1.8-1.7,2C439.1,101.4,438.6,101.4,438.1,101.4z"/>
<path fill="#FFFFFF" stroke="#000000" d="M432.1,100.1c1.9-2.2,3.4-3.2,6.2-3.2c0.2,0,0.3,0,0.5,0v0.2c-1.398,0-2.6,1-2.6,2.2
	c0,1,0.8,1.9,1.898,2.1C435.8,101.3,433.5,100.8,432.1,100.1z"/>
<path fill="#FFFFFF" stroke="#000000" d="M431.1,177.6c2.302,0,4.102-1.4,4.102-3.1s-1.8-3.2-4.102-3.2c-2.3,0-4.1,1.4-4.1,3.2
	C427,176.2,428.9,177.6,431.1,177.6z M431.5,182.7c-5.2,0-9.4-3.7-9.4-8.2s4.2-8.2,9.4-8.2s9.4,3.7,9.4,8.2S436.7,182.7,431.5,182.7
	z"/>
<path fill="#FFFFFF" stroke="#000000" d="M431.5,182.7c5.2,0,9.4-3.7,9.4-8.2s-4.2-8.2-9.4-8.2s-9.4,3.7-9.4,8.2
	S426.2,182.7,431.5,182.7z M431.5,197.7c-3.4-4.9-6.6-5.8-11.7-3c-0.2-3.8-1.1-6.1-3.3-7.3c-1.3-0.7-3-1-5.2-1.1
	c0.9-1.6,1.4-3,1.5-4.3c0.2-1.6-0.2-3-1.1-4.3c-0.8-1.1-2-2.2-3.602-3.2c0.302-0.2,0.602-0.4,0.9-0.6c2.4-1.7,3.7-3.4,3.9-5.4
	c0.198-1.7-0.302-3.6-1.5-5.9c6-0.1,8.198-2.4,8.5-8.3c5.198,2.8,8.3,1.9,11.698-3c3.302,4.9,6.4,5.8,11.602,3.3
	c0,1,0.2,1.9,0.398,2.7c0.802,3.6,3.102,5.2,7.602,5.6c0,0.1,0,0.3,0,0.4c-0.8,1.8-1.2,3.4-1.102,4.8c0.102,1.4,0.7,2.8,1.7,4
	c0.7,0.8,1.602,1.6,2.602,2.4c-2.5,1.9-3.9,3.7-4.302,5.7c-0.198,1-0.1,2.1,0.302,3.3c0.198,0.8,0.5,1.6,1,2.5
	c-5.602,0.4-7.802,2.7-8.102,8.3C438,191.9,434.8,192.8,431.5,197.7z"/>
<path fill="#FFFFFF" stroke="#000000" d="M431.1,177.6c-2.3,0-4.1-1.4-4.1-3.1s1.8-3.2,4.1-3.2c2.302,0,4.102,1.4,4.102,3.2
	C435.2,176.2,433.4,177.6,431.1,177.6z"/>
<path fill="#FFFFFF" stroke="#000000" d="M421.7,125c-3.8-0.4-4.3-3-6.102-5.4c8.802,3.5,11.802-0.9,16.802,0.8
	C427,124.4,426.4,125.2,421.7,125z"/>
<path fill="#FFFFFF" stroke="#000000" d="M429.5,211.7c-0.6,0.2-1.3,0.2-1.8-0.2s-0.8-0.9-0.7-1.5c-0.6-0.1-1.1-0.5-1.3-1.1
	s0-1.2,0.398-1.6c-0.398-0.4-0.6-1-0.398-1.6c0.2-0.6,0.8-1,1.398-1.1c-0.1-0.6,0.2-1.1,0.7-1.5s1.2-0.4,1.8-0.1
	c0.302-0.5,0.9-0.8,1.602-0.8s1.3,0.4,1.6,1c0.602-0.3,1.4-0.3,1.9,0.1c0.5,0.4,0.8,1,0.7,1.5c0.6,0.1,1.1,0.5,1.3,1.1
	s0,1.2-0.5,1.6c0.398,0.4,0.6,1,0.398,1.6c-0.198,0.6-0.8,1-1.398,1c0.1,0.6-0.2,1.1-0.8,1.5c-0.5,0.4-1.302,0.4-1.802,0.1
	c-0.3,0.5-0.898,0.8-1.6,0.8C430.4,212.5,429.8,212.2,429.5,211.7z"/>
<path fill="#FFFFFF" stroke="#000000" d="M427.6,231.1c-0.6,0.2-1.3,0.2-1.8-0.2s-0.8-1-0.7-1.5c-0.6-0.1-1.1-0.5-1.3-1.1
	c-0.2-0.6,0-1.2,0.4-1.6c-0.4-0.4-0.602-1-0.4-1.6s0.8-1,1.4-1.1c-0.102-0.6,0.2-1.1,0.7-1.5s1.3-0.4,1.8-0.1
	c0.3-0.5,0.898-0.8,1.6-0.8s1.3,0.4,1.602,1c0.6-0.3,1.398-0.3,1.898,0.1c0.5,0.4,0.8,1,0.7,1.5c0.6,0.1,1.1,0.5,1.3,1.1
	c0.2,0.6,0,1.2-0.5,1.6c0.4,0.4,0.602,1,0.4,1.6s-0.8,1-1.4,1c0.102,0.6-0.2,1.1-0.8,1.5c-0.5,0.3-1.3,0.4-1.8,0.1
	c-0.3,0.5-0.9,0.8-1.602,0.8C428.5,232,427.9,231.7,427.6,231.1z"/>
<path fill="#FFFFFF" stroke="#000000" d="M427.8,262.7l-0.898-3.3h0.1c11.1,15.3,29.4,17.5,32.3,18.4l0,0c0.102,0.1,0.2,0.1,0.4,0.2
	c-0.7,17.8,3.8,24.9,9.398,27.1l0,0c-0.8-0.3-1.6-0.398-2.398-0.5c-0.3,0-0.7-0.1-1.102-0.199c-3.898-1.301-9.898-7-16-13.899
	C439.1,278.6,428.4,263.5,427.8,262.7C427.9,262.7,427.9,262.7,427.8,262.7z"/>
<path fill="#FFFFFF" stroke="#000000" d="M425.2,259.4c0,0,0.5-0.4,1.5-0.9l0.3,1l0.9,3.3l0,0l7.8,26.8c-1,3,0,12.5-7,15.102
	c-7-2.5-6.602-10-7.602-13l4-29.5l0,0C425.1,261.2,425.2,260.4,425.2,259.4L425.2,259.4z"/>
<path fill="#FFFFFF" stroke="#000000" d="M425.7,208.9c0.2,0.6,0.7,1,1.3,1.1c-0.1,0.6,0.2,1.1,0.7,1.5s1.2,0.4,1.8,0.2
	c0.3,0.5,0.9,0.9,1.5,0.9c0.7,0,1.3-0.3,1.6-0.8c0.602,0.3,1.302,0.2,1.802-0.1c0.6-0.3,0.8-0.9,0.8-1.5c0.6-0.1,1.2-0.5,1.398-1
	c0.2-0.6,0.102-1.2-0.398-1.6c0.5-0.4,0.7-1,0.5-1.6s-0.7-1-1.3-1.1c0.1-0.5-0.102-1.1-0.7-1.5c-0.602-0.4-1.3-0.4-1.9-0.1
	c-0.3-0.6-0.898-1-1.6-1s-1.3,0.3-1.602,0.8c-0.6-0.2-1.3-0.2-1.8,0.1c-0.5,0.4-0.8,0.9-0.7,1.5c-0.6,0.1-1.198,0.5-1.398,1.1
	c-0.2,0.6,0,1.2,0.398,1.6C425.7,207.7,425.5,208.3,425.7,208.9z M425.4,211c-0.9-0.1-1.602-0.7-1.9-1.5s0-1.6,0.6-2.2
	c-0.6-0.6-0.8-1.4-0.5-2.2c0.302-0.8,1-1.3,1.9-1.5c-0.1-0.8,0.3-1.6,1-2.1c0.8-0.5,1.7-0.5,2.5-0.2c0.4-0.7,1.2-1.2,2.2-1.2
	s1.898,0.5,2.3,1.3c0.8-0.4,1.9-0.4,2.7,0.2c0.7,0.5,1.1,1.3,0.898,2.1c0.9,0.2,1.602,0.7,1.9,1.6c0.3,0.8,0,1.6-0.6,2.2
	c0.6,0.6,0.8,1.4,0.5,2.2c-0.302,0.8-1.102,1.3-2,1.5c0.1,0.8-0.302,1.6-1,2.1c-0.802,0.5-1.7,0.5-2.5,0.2
	c-0.4,0.7-1.302,1.1-2.2,1.1c-0.9,0-1.7-0.5-2.102-1.2c-0.8,0.3-1.8,0.3-2.5-0.2C425.6,212.6,425.2,211.8,425.4,211z"/>
<path fill="#FFFFFF" stroke="#000000" d="M425.9,248.9c-0.602,0.2-1.302,0.2-1.802-0.2c-0.5-0.4-0.8-1-0.698-1.5
	c-0.602-0.1-1.102-0.5-1.302-1.1c-0.198-0.6,0-1.2,0.4-1.6c-0.4-0.4-0.6-1-0.4-1.6c0.2-0.6,0.7-1,1.302-1.1
	c-0.102-0.6,0.198-1.1,0.698-1.5c0.5-0.4,1.2-0.4,1.802-0.1c0.3-0.5,0.898-0.8,1.5-0.8c0.698,0,1.3,0.4,1.6,1
	c0.6-0.3,1.3-0.3,1.9,0.1c0.5,0.4,0.8,1,0.698,1.5c0.602,0.1,1.102,0.5,1.302,1.1c0.198,0.6,0,1.2-0.5,1.6
	c0.398,0.4,0.6,1,0.398,1.6c-0.2,0.6-0.8,1-1.398,1c0.1,0.6-0.2,1.1-0.802,1.5c-0.5,0.3-1.198,0.4-1.8,0.1
	c-0.3,0.5-0.898,0.8-1.6,0.8C426.8,249.8,426.2,249.4,425.9,248.9z"/>
<path fill="#FFFFFF" stroke="#000000" d="M397,280c3.9-2,12.6-6.4,28.2-20.6v0.1L425,262l0,0c-0.6,3.4-2.5,5.4-2.5,5.4
	c-0.4,0.5-0.7,1-1.1,1.5C408.4,285.7,397,280,397,280z"/>
<path fill="#FFFFFF" stroke="#000000" d="M423.5,115.2c0-0.6,0.1-1.5,0.1-2.2c1.4,1,1.4,0.8,1.9,2.3
	C424.5,115.5,425,115.4,423.5,115.2z"/>
<path fill="#FFFFFF" stroke="#000000" d="M425.2,224.1c-0.602,0.1-1.2,0.5-1.4,1.1c-0.2,0.6,0,1.2,0.4,1.6c-0.4,0.4-0.602,1-0.4,1.6
	s0.7,1,1.3,1.1c-0.1,0.6,0.2,1.1,0.7,1.5s1.2,0.4,1.8,0.2c0.302,0.5,0.9,0.9,1.5,0.9c0.7,0,1.302-0.3,1.602-0.8
	c0.6,0.3,1.3,0.2,1.8-0.1c0.6-0.4,0.8-0.9,0.8-1.5c0.602-0.1,1.2-0.5,1.4-1c0.2-0.6,0.1-1.2-0.4-1.6c0.4-0.4,0.602-1,0.5-1.6
	c-0.2-0.6-0.7-1-1.3-1.1c0.1-0.6-0.1-1.1-0.7-1.5c-0.6-0.4-1.3-0.4-1.898-0.1c-0.302-0.6-0.9-1-1.602-1s-1.3,0.3-1.6,0.8
	c-0.602-0.3-1.3-0.2-1.8,0.1C425.4,223,425.1,223.5,425.2,224.1z M423.5,230.5c-0.9-0.1-1.6-0.7-1.9-1.5c-0.3-0.8,0-1.7,0.602-2.2
	c-0.602-0.6-0.8-1.4-0.5-2.2c0.3-0.8,1-1.3,1.898-1.5c-0.1-0.8,0.2-1.6,1-2.1c0.802-0.5,1.7-0.5,2.5-0.2c0.4-0.7,1.2-1.2,2.2-1.2
	s1.9,0.5,2.3,1.3c0.802-0.4,1.9-0.4,2.7,0.2c0.7,0.5,1,1.4,0.9,2.1c0.898,0.2,1.6,0.7,1.8,1.5c0.3,0.8,0,1.7-0.6,2.2
	c0.6,0.6,0.8,1.4,0.5,2.2c-0.302,0.8-1.102,1.3-1.9,1.5c0.1,0.8-0.3,1.6-1.1,2.1c-0.802,0.5-1.7,0.5-2.5,0.2
	c-0.4,0.7-1.302,1.1-2.2,1.1c-0.9,0-1.8-0.5-2.2-1.2c-0.8,0.3-1.8,0.3-2.5-0.2C423.7,232.1,423.4,231.3,423.5,230.5z"/>
<path fill="#FFFFFF" stroke="#000000" d="M368.5,302.6c46-45.2,41-43.7,55-45.2l0.1-0.1c0.602,0.7,1.102,1.4,1.602,2.1
	C409.6,273.6,400.9,278,397,280c0.8,17.1-3.2,24.4-8.5,26.9c-0.4,0.1-0.9,0.3-1.3,0.5l0,0C378.9,310.1,368.5,302.6,368.5,302.6z"/>
<path fill="#FFFFFF" stroke="#000000" d="M423.6,113c0,0.6-0.1,1.5-0.1,2.2c1.5,0.2,1,0.3,2,0.1C425,113.8,425,114,423.6,113z
	 M421.5,115.4c0-1.1,0.4-2.2-0.4-2.5c0,0.9-1.698,1.3-1.898,2.6C419.9,115.6,420.9,115.4,421.5,115.4z M402.1,117.6
	c-10.1-18-0.5-42.4,19.2-48.8c11.3,11.3,33.5,21.1,32,39.8l0.3,0.5c2.5-1.5,1.802-6.8,6.302-8.7c2.3-0.4,3.898,2.9,3.6,4.9
	c-0.8,7-11.9,12-16.3,19.6c-0.5,0.5-1.102,1-1.602,1.5c-7.5,6.4-17.8,10.6-27.5,7.2C411.5,130,406.7,123.4,402.1,117.6z
	 M415.6,119.7c1.802,2.3,2.302,5,6.102,5.4c4.7,0.1,5.3-0.7,10.7-4.5C427.3,118.8,424.4,123.2,415.6,119.7z M409.3,102.6
	c2.3,0,4.602-0.6,6.102-1.2c-1.9-2.3-3.4-3.2-6.2-3.2c-0.2,0-0.3,0-0.5,0c-2.3,0-4.602-0.2-6.2,1.3c0.9,2,3,2.9,5.4,3.1
	c0.3,0.1,0.5,0.1,0.8,0.1C408.9,102.7,409.1,102.7,409.3,102.6z M445,98.2c-1.6-1.5-4-1.3-6.2-1.3c-0.2,0-0.3,0-0.5,0
	c-2.898,0-4.3,1-6.2,3.2c1.5,0.6,3.802,1.2,6.102,1.2c0.2,0.1,0.398,0.1,0.7,0.1c0.3,0,0.6,0,0.8-0.1
	C442,101.1,444.1,100.2,445,98.2z"/>
<path fill="#FFFFFF" stroke="#000000" d="M423.5,241.9c-0.6,0.1-1.1,0.5-1.3,1.1s0,1.2,0.398,1.6c-0.398,0.4-0.6,1-0.398,1.6
	c0.2,0.6,0.7,1,1.3,1.1c-0.1,0.6,0.1,1.1,0.7,1.5c0.5,0.4,1.2,0.4,1.8,0.2c0.3,0.5,0.8,0.9,1.5,0.9s1.3-0.3,1.6-0.8
	c0.5,0.3,1.2,0.2,1.802-0.1c0.5-0.4,0.8-0.9,0.8-1.5c0.6-0.1,1.1-0.5,1.398-1c0.2-0.6,0.102-1.2-0.398-1.6c0.398-0.4,0.6-1,0.5-1.6
	c-0.2-0.6-0.7-1-1.3-1.1c0.1-0.6-0.102-1.1-0.7-1.5c-0.602-0.4-1.3-0.4-1.9-0.1c-0.3-0.6-0.898-1-1.6-1s-1.2,0.3-1.5,0.8
	c-0.602-0.3-1.3-0.2-1.8,0.1C423.7,240.7,423.4,241.3,423.5,241.9z M420.6,244.5c-0.6-0.6-0.8-1.4-0.5-2.2c0.302-0.8,1-1.3,1.9-1.5
	c-0.1-0.8,0.2-1.6,1-2.1s1.7-0.5,2.5-0.2c0.4-0.7,1.2-1.2,2.1-1.2c1,0,1.802,0.5,2.2,1.3c0.8-0.4,1.9-0.4,2.7,0.2
	c0.7,0.5,1,1.3,0.9,2.1c0.898,0.2,1.6,0.7,1.8,1.5c0.3,0.8,0,1.7-0.602,2.2c0.602,0.6,0.802,1.4,0.5,2.2c-0.3,0.8-1.1,1.3-1.898,1.5
	c0.1,0.8-0.3,1.6-1,2.1c-0.8,0.5-1.7,0.5-2.5,0.2c-0.4,0.7-1.2,1.1-2.2,1.1c-0.9,0-1.7-0.5-2.1-1.2c-0.802,0.3-1.7,0.3-2.5-0.2
	c-0.7-0.5-1.102-1.3-1-2.1c-0.802-0.1-1.602-0.7-1.802-1.5C419.7,246,420,245.1,420.6,244.5z"/>
<path fill="#FFFFFF" stroke="#000000" d="M421.1,113c0.802,0.3,0.4,1.3,0.4,2.5c-0.6,0-1.6,0.2-2.2,0.2
	C419.4,114.3,421.1,113.9,421.1,113z"/>
<path fill="#FFFFFF" stroke="#000000" d="M293,515.8c19.5,16.102,43,4,43,4c0.5-86.8,50-137.5,50-137.5c-4-31.1,17.5-69.2,17.5-69.2
	c3.4,0.5,6.5,0.102,8-2.1c3.5-5,0.5-9.5,0.5-9.5c-0.5-1.5-1.9-3.5-2.9-4.9c1-1.1,1.9-1.898,2.4-2.1c5-2.5,8.5-6,9.5-3
	s0.6,10.5,7.6,13c7-2.5,6-12,7-15.1c1-3,8.302,1.699,9.5,3c-2.198,1.199-0.8,6.398-0.5,7l0,0c-0.198,0.3-2.898,4.699,0.5,9.5
	c0.2,0.3,0.5,0.6,0.7,0.8l0,0c0,0,22.2,39.8,18.2,70.899c0,0,49.5,50.699,50,137.499c0,0,23.5,12.102,43-4c0,0,30.5,7.5,71.5-36.6
	l2,25.6C623.5,523.2,591,524.7,591,524.7c-2.5,22.1-57,24.6-57,24.6c-21,12-55,3.5-55,3.5c-33,14.5-73-1.5-73-1.5
	c-39,17.602-70-4-70-4c-29.5,9.5-62-19.6-62-19.6c-41,4-56.5-29.602-56.5-29.602l4-19.1C262.5,523.4,293,515.8,293,515.8z"/>
<path fill="#FFFFFF" stroke="#000000" d="M410.6,145.5c-0.698-0.9-1.5-1.5-2.398-1.8c1.398-1.2,9.898,0.3,10.1-7.8
	c0-0.4-0.1-0.9-0.1-1.5c0-0.2,0-0.4,0-0.6c9.7,3.4,20-0.8,27.5-7.2l0,0c6.1,23.5,19.1,19.7,19.5,19.7l0,0l1-0.1
	c-2.8,2.1-5.7,5.2-8.3,6.3c-4.802,2-3.102-2.1-6.4,1.3c-1.7,1.8-6,1.6-7.5,3.5l-0.6,0.1c-0.2-0.8-0.302-1.7-0.4-2.7
	c-5.1,2.5-8.3,1.5-11.6-3.3c-3.4,4.9-6.602,5.8-11.7,3c0.1-1.5-1.7-1.3-2-2.8C414.1,150,413.7,149.3,410.6,145.5z"/>
<path fill="#FFFFFF" stroke="#000000" d="M396.6,144.1c3.602-0.4,8.2-1.9,11.602-0.4c0.898,0.4,1.7,1,2.398,1.8
	c3.102,3.8,3.5,4.5,7.2,6c0.2,1.5,2,1.3,2,2.8c-0.3,6-2.5,8.2-8.5,8.3c-0.898,0-2.2-4.7-4.3-5.3c-0.6-2.2-1.5-3.3-3.1-4.4
	c-0.7-2.6-0.7-2.8-3.2-3.8C400.3,147.2,397.7,145.8,396.6,144.1z"/>
<path fill="#FFFFFF" stroke="#000000" d="M397,156.7c-1.2-7.2-10.5-8.5-15.8-6.2h-0.5H380.6c-0.199-0.2-0.6-0.5-0.699-0.6
	c0-1,0.6-3.1,0.8-4.3c3.6-1.5,11.399-1.3,15-1.4c0.3,0,0.6,0,1-0.1c1.1,1.6,3.7,3,4.1,5c2.4,0.9,2.4,1.1,3.2,3.8
	c1.7,1.1,2.6,2.2,3.1,4.4c2.102,0.6,3.4,5.3,4.302,5.3c1.198,2.3,1.698,4.2,1.5,5.9H412.6c-1.898-3.9-4.198-3.5-7-5.2
	C402.5,161.4,400.3,157.3,397,156.7z"/>
<path fill="#FFFFFF" stroke="#000000" d="M412,301.6c0,0-6.5,4-7,2c0-0.199,0-0.3,0-0.398c0.1-1.5,2.2-4.5,4.1-6.5
	C410.1,298,411.5,300.1,412,301.6z"/>
<path fill="#FFFFFF" stroke="#000000" d="M409.3,102.6c1.102-0.2,1.9-1.1,1.9-2.1c0-1.2-1.102-2.2-2.602-2.2v-0.2
	c0.2,0,0.302,0,0.5,0c2.9,0,4.302,1,6.2,3.2C413.9,102.1,411.6,102.6,409.3,102.6z"/>
<path fill="#FFFFFF" stroke="#000000" d="M406.1,100.6c0-1.2,1.102-2.2,2.602-2.2c1.398,0,2.6,1,2.6,2.2c0,1-0.8,1.9-1.898,2.1
	c-0.5,0-1,0-1.4,0C406.9,102.3,406.1,101.5,406.1,100.6z"/>
<path fill="#FFFFFF" stroke="#000000" d="M389.9,168.8c-5.101-1-10.601,0.8-15.7,0c-4.601-0.7-7.2-5.8-11.4-5.1
	c-0.7-4.8,3.3-7.1,7.4-7.5l2.8,0.7c7.6,1.1,13.9,5.8,20.9,8c3.8,1.2,8.399,0.3,10.5,3.3c2.398,3.3-0.7,6,4.5,5.7
	c-0.302,0.2-0.602,0.4-0.9,0.6c1.6,1.1,2.9,2.1,3.6,3.2C403.4,178.2,397.7,170.3,389.9,168.8z"/>
<path fill="#FFFFFF" stroke="#000000" d="M407.9,102.6c-2.4-0.2-4.5-1.1-5.4-3.1c1.6-1.5,4-1.3,6.2-1.3v0.2
	c-1.4,0-2.602,1-2.602,2.2C406.1,101.5,406.9,102.3,407.9,102.6z"/>
<path fill="#FFFFFF" stroke="#000000" d="M405,303.2c-0.3-0.5-2.2,0.6-3.5-5.5c9.5-10.9,19.5-28,20-28.7l-0.1-0.1
	c0.398-0.5,0.698-1,1.1-1.5c0,0,1.9-2,2.5-5.4l-4,29.5c-1-3-4.5,0.5-9.5,3c-0.5,0.3-1.4,1.1-2.4,2.1
	C407.2,298.7,405.1,301.7,405,303.2z"/>
<path fill="#FFFFFF" stroke="#000000" d="M426.3,213.1c0.8,0.5,1.7,0.6,2.5,0.2c0.4,0.7,1.2,1.2,2.102,1.2
	c0.898,0,1.8-0.4,2.198-1.1c0.802,0.4,1.802,0.3,2.5-0.2c0.802-0.5,1.2-1.3,1-2.1c0.9-0.1,1.602-0.7,2-1.5
	c0.302-0.8,0.102-1.6-0.5-2.2c0.602-0.6,0.9-1.4,0.602-2.2c-0.3-0.8-1-1.4-1.9-1.6c0.102-0.8-0.2-1.6-0.898-2.1
	c-0.802-0.6-1.802-0.6-2.7-0.2c-0.4-0.8-1.3-1.3-2.3-1.3c-0.9,0-1.802,0.5-2.2,1.2c-0.8-0.3-1.8-0.3-2.5,0.2
	c-0.8,0.5-1.102,1.3-1,2.1c-0.9,0.1-1.602,0.7-1.9,1.5s-0.1,1.6,0.5,2.2c-0.6,0.6-0.898,1.4-0.6,2.2c0.3,0.8,1,1.4,1.898,1.5
	C425.2,211.8,425.6,212.6,426.3,213.1z M424.4,232.6c0.8,0.5,1.698,0.6,2.5,0.2c0.398,0.7,1.198,1.2,2.198,1.2
	c0.9,0,1.802-0.4,2.2-1.1c0.8,0.4,1.8,0.3,2.5-0.2c0.8-0.5,1.102-1.3,1.102-2.1c0.898-0.1,1.6-0.7,1.898-1.5
	c0.3-0.8,0.102-1.6-0.5-2.2c0.602-0.5,0.9-1.4,0.602-2.2c-0.302-0.8-1-1.4-1.802-1.5c0.102-0.8-0.198-1.6-0.898-2.1
	c-0.8-0.6-1.8-0.6-2.7-0.2c-0.4-0.8-1.3-1.3-2.3-1.3c-0.9,0-1.8,0.5-2.2,1.2c-0.8-0.3-1.8-0.3-2.5,0.2c-0.8,0.5-1.1,1.3-1,2.1
	c-0.9,0.1-1.6,0.7-1.9,1.5c-0.3,0.8-0.1,1.7,0.5,2.2c-0.6,0.6-0.898,1.4-0.6,2.2s1,1.4,1.9,1.5C423.4,231.3,423.7,232.1,424.4,232.6
	z M422.8,250.4c0.7,0.5,1.7,0.6,2.5,0.2c0.4,0.7,1.2,1.2,2.102,1.2c0.898,0,1.698-0.4,2.198-1.1c0.802,0.4,1.7,0.3,2.5-0.2
	c0.802-0.5,1.102-1.3,1-2.1c0.9-0.1,1.602-0.7,1.9-1.5c0.3-0.8,0.1-1.6-0.5-2.2c0.6-0.5,0.9-1.4,0.6-2.2c-0.3-0.8-1-1.4-1.8-1.5
	c0.2-0.8-0.2-1.6-0.898-2.1c-0.802-0.6-1.802-0.6-2.7-0.2c-0.4-0.8-1.2-1.3-2.2-1.3c-0.9,0-1.7,0.5-2.1,1.2
	c-0.802-0.3-1.7-0.3-2.5,0.2c-0.802,0.5-1.102,1.3-1,2.1c-0.9,0.1-1.602,0.7-1.9,1.5c-0.3,0.8,0,1.7,0.5,2.2
	c-0.6,0.6-0.9,1.4-0.6,2.2c0.3,0.8,1,1.4,1.8,1.5C421.7,249.1,422,249.9,422.8,250.4z M386.1,192.7c1.4-1,2.7-1.1,6.5,0
	c3,0.8,8.101-5.4,10-1.3c2.7,0.4,4.102-1.9,6.5-2.4c3.102-0.6,5.602,1.7,7.302-1.6c2.198,1.2,3.1,3.5,3.3,7.3
	c5.2-2.8,8.3-1.9,11.7,3c3.3-4.9,6.398-5.8,11.6-3.3c0.3-5.6,2.5-7.9,8.1-8.3c2.802,7.8,9.4-3.1,11.2,6.6c2.9,0.2,8.5-1,11.102,0.2
	c1.398,0.7,2.1,2.1,3,3.5c-0.102,0.1-0.102,0.2-0.2,0.4c-2.602,4.3-14.4,24.3-17.7,42.1c-0.7,3.6-1,7.2-0.8,10.5
	c-9.102-0.9-18.7,2.7-25,5.9l0,0c-0.7,0.4-1.4,0.7-2.102,1.1c-1.6,0.9-3,1.7-3.898,2.2l0,0c-0.9,0.6-1.5,0.9-1.5,0.9
	c-0.5-0.7-1-1.4-1.602-2.1c-6-6.6-18.6-11.6-26.8-14.3c1.102-2.6,1.602-5.6,1.7-8.8C399.1,216.4,386.2,192.8,386.1,192.7
	L386.1,192.7z"/>
<path fill="#FFFFFF" stroke="#000000" d="M398.9,312.1c-4.9-1.6-9.102-4.1-9.102-5.1c0-0.2,0-0.3-0.1-0.3c0.1,0,0.2,0,0.399,0
	c3.101-0.3,7.2-4,11.5-8.9c1.302,6.101,3.2,5,3.5,5.5c0,0.2,0,0.3,0,0.4c0.5,2,7-2,7-2s3,4.5-0.5,9.5c-1.5,2.1-4.6,2.5-8,2.1
	C402,313,400.4,312.5,398.9,312.1z"/>
<path fill="#FFFFFF" stroke="#000000" d="M388.5,306.9c5.2-2.5,9.2-9.801,8.5-26.9c0,0,11.4,5.7,24.4-11.1l0.1,0.1
	c-0.5,0.8-10.5,17.8-20,28.7c-4.3,4.899-8.4,8.6-11.5,8.899c-0.1,0-0.2,0-0.4,0c-0.1-0.101-0.199-0.101-0.3,0.101l0,0
	C389.1,306.8,388.8,306.8,388.5,306.9z"/>
<path fill="#FFFFFF" stroke="#000000" d="M367.5,190.4c-5.5,3.7-10.8,2.5-13.8-2.8c-0.601-1-1.101-2-1.601-3
	c0.301-0.3,0.7-0.5,1.4-0.7c2.5,1.9,11.7-0.1,15.7,0.1c3.6,0.1,13.1,1.9,14.6-1.8c0.7-0.1,2.5-0.1,3,0c0.5,0.9,1.5,1.5,2,2.2
	c3.3-5.7,9.102,1,13.102,1.5c2.398,0.3,5.1,0.4,9.398,0.4c2.2,0,3.9,0.4,5.2,1.1c-1.7,3.3-4.2,1-7.3,1.6c-2.5,0.5-3.9,2.8-6.5,2.4
	c-1.9-4.2-7,2.1-10,1.3c-3.8-1.1-5.101-1-6.5,0c-0.7,0.5-1.3,1.1-2.3,1.9c-3.9,3.3-6.9,2.9-10.101,0.8
	C371.8,194.2,369.8,192.3,367.5,190.4z"/>
<path fill="#FFFFFF" stroke="#000000" d="M370.1,156.1c0.9-0.1,1.801-0.1,2.7,0c-1.2-5.4,3.3-6.2,7.601-5.6
	c0.199,0.2,0.399,0.3,0.1,0h0.5c5.4-2.3,14.7-1,15.8,6.2c3.3,0.5,5.5,4.7,8.602,6.5c2.8,1.6,5.1,1.3,7,5.2h0.3
	c-0.2,2-1.5,3.7-3.9,5.4c-5.3,0.3-2.2-2.4-4.5-5.7c-2.1-3-6.8-2.2-10.5-3.3c-7.1-2.2-13.3-6.9-20.899-8L370.1,156.1z"/>
<path fill="#FFFFFF" stroke="#000000" d="M362.2,330.3c2.1-6.8,4.3-15.8,6.3-27.7c0,0,10.4,7.5,18.7,4.9
	c-7.601,3.4-21.7,15.5-21.7,18.7C365.5,326.2,364.5,328.3,362.2,330.3z"/>
<path fill="#FFFFFF" stroke="#000000" d="M386.5,311.6c-10.5,21.602-24.3,18.9-24.3,18.9H362.1c0-0.1,0-0.1,0.101-0.2
	c2.3-2,3.3-4.1,3.3-4.1c0-3.101,14.1-15.3,21.7-18.7l0,0c0.5-0.1,0.899-0.3,1.3-0.5c0.3-0.1,0.5-0.2,0.8-0.2
	C388.5,307.5,386.5,311.6,386.5,311.6z"/>
<path fill="#FFFFFF" stroke="#000000" d="M369.2,184c-4-0.2-13.3,1.8-15.7-0.1c-0.8,0.2-1.1,0.4-1.4,0.7c-0.199-0.3-0.3-0.6-0.5-1
	c-1.3-2.9-2-6-0.199-8.3h0.5c2.199,0.3,5.6,1.9,15.6-0.2c6.2-1.3,10.1,0.9,15.6,1.9c5.801,1,10.5,0,15.7,1.9
	c4.9,1.8,8.5,3.1,14.102,3.1c-0.2,1.3-0.7,2.7-1.5,4.3c-4.302,0-7-0.1-9.4-0.4c-4-0.5-9.8-7.2-13.1-1.5c-0.601-0.8-1.601-1.3-2-2.2
	c-0.601-0.1-2.301-0.1-3,0C382.3,185.9,372.8,184.1,369.2,184z"/>
<path fill="#FFFFFF" stroke="#000000" d="M362.8,163.6c4.3-0.7,6.9,4.4,11.4,5.1c5.1,0.8,10.7-1,15.7,0c7.8,1.5,13.5,9.4,21.8,8.9
	c1,1.3,1.3,2.7,1.1,4.3c-5.6-0.1-9.2-1.3-14.1-3.1c-5.2-1.9-9.9-0.9-15.7-1.9c-5.5-1-9.4-3.2-15.6-1.9c-10,2-13.4,0.5-15.601,0.2
	h-0.5c0.3-0.4,0.601-0.7,1-1c4.2-3.5,2.2-7.6,5-9.8C358.7,163.4,360.8,163.3,362.8,163.6z"/>
<path fill="#FFFFFF" stroke="#000000" d="M351.5,183.6c0,0-15.5-4-14.5-19.1c0,0-31-13,1-35.6c0,0-1.5-14.6,14-19.6
	c0,0-9-12.1,20.5-23.1c0,0,6-19.6,10-19.6c0,0-2.5-10.5,11.5-19.1c0,0,5.1-8,12.7-11.6c1.398-0.6,8.3-1.1,9.8-1.4l6.8-0.6
	c0,0,1.602-1.3,2.2-1.3c0.7,0,2.5,1.3,2.5,1.3l5.5,1.1c0,0,23.5,1.5,23,8.5c0,0,24,9.5,22.5,15.6c0,0,25.5,4,18.5,20.6
	c0,0,8.5,6.5,10.5,21.1c0,0,7,4,20,1.5c0,0,10.5,4,5,14.1c0,0-1.5,9.5,5.5,14c0,0,27,9,4,31.1l-3,0.5c0,0,4,17.6-12,19.6
	c0,0-4.8-1.5-8.7-4.5V177c-2.398-1.2-4.6,3-5.398,5.4c-1.4,0.1-3,0.2-4.4,0.1c0.2-0.2,0.3-0.4,0.5-0.6c1.3-1.5-4.7-1.2-5-3
	c-0.3-1.6,1.3-1.3,1.3-2c0-0.1-0.1-0.3-0.2-0.6c-3.5-5.7-2.8-9.2-11.1-8.4c0.1-2-0.2-3.6-1.6-5c-0.4-0.4-0.7-0.7-0.9-1
	c-2.4-2.7-0.9-3.2-3-4.8s-5.1-2-7.8-2.9c-0.2-0.1-0.3-0.1-0.5-0.2c0.1-0.9,0.3-2.3-0.2-2.9c-1.4-1.7-4.5-0.1-6.7-0.2
	c0.3-1.4,0.602-3.6-0.2-4.9c-2-3-4.6-2.1-7.3-0.1l-1,0.1l0,0c-0.398,0-13.398,3.8-19.5-19.7l0,0c0.602-0.5,1.102-1,1.602-1.5
	c4.5-7.6,15.5-12.6,16.3-19.6c0.2-2.1-1.3-5.3-3.602-4.9c-4.5,1.9-3.8,7.2-6.3,8.7l-0.3-0.5c1.5-18.7-20.7-28.5-32-39.8
	c-19.7,6.4-29.3,30.8-19.2,48.8c4.5,5.8,9.4,12.3,16,16.1c0,0.2,0,0.4,0,0.6c0,0.6,0.102,1.1,0.102,1.5
	c-0.102,8.1-8.7,6.6-10.102,7.8c-3.398-1.5-8,0.1-11.6,0.4c-0.3,0-0.7,0-1,0.1c-3.5,0.1-11.3-0.1-15,1.4c-0.2,1.2-0.8,3.3-0.8,4.3
	c0.1,0.1,0.399,0.4,0.699,0.6c-4.3-0.6-8.8,0.2-7.6,5.6c-0.9-0.1-1.8-0.1-2.7,0c-4.1,0.5-8.1,2.7-7.399,7.5
	c-2-0.4-4.101-0.3-5.5,0.8c-2.801,2.2-0.801,6.3-5,9.8c-0.4,0.3-0.7,0.6-1,1C349.5,177.7,350.2,180.7,351.5,183.6L351.5,183.6z"/>
<path fill="#FFFFFF" stroke="#000000" d="M368.5,302.6c-2,11.9-4.2,20.9-6.3,27.7c-3,2.601-8,5.2-15.7,2.9c-4.4-1.3-6.6-1.9-7.4-2
	C361.5,330.1,368.5,302.6,368.5,302.6z"/>
<path fill="#FFFFFF" stroke="#000000" d="M346.5,333.2c7.6,2.3,12.7-0.3,15.7-2.9c0,0.101,0,0.101-0.101,0.2
	c-7.399,23.3-14.6,20.3-14.6,20.3l-19-0.5c-3-14.5,8-19.1,8-19.1c0.9,0,1.7,0,2.6,0l0,0C339.9,331.3,342.1,331.9,346.5,333.2z"/>
<path fill="#FFFFFF" stroke="#000000" d="M356.9,402.1c2.1-2.898,6.199-3.6,9.1-1.5l3-5.5c-2.9-2.1-3.5-6.199-1.4-9.1
	c2.101-2.9,6.2-3.6,9.101-1.4l4.6-6.898c-3.6-0.301-6.2-3.5-5.899-7.102c0.3-3.6,3.5-6.199,7-5.898l0.899-3.102
	c-3.6-0.398-6.1-3.6-5.7-7.199c0.4-3.601,3.601-6.101,7.2-5.801l1-4.699c-3.3-1.301-5-5.101-3.7-8.5c1.301-3.301,5.101-5,8.4-3.699
	l1.6-3.9c-3.3-1.3-5-5.1-3.699-8.5c1.3-3.398,5.1-5,8.399-3.699c0.4-0.899,1.2-2.801,2-3.699c1.5,0.5,3.2,0.898,4.7,1.1
	c0,0-21.5,38.1-17.5,69.2c0,0-49.5,50.7-50,137.5c0,0-23.5,12-43-4c0,0-30.5,7.5-71.5-36.602l1.6-7.698
	c40.8,43.8,71.2,36.3,71.2,36.3c12.9,10.6,27.5,8.898,36,6.6V514c-3.5-0.5-6-3.8-5.5-7.3c0.5-3.602,3.8-6.102,7.3-5.602l-1.5-5.6
	c-3.399-1-5.399-4.6-4.399-8.1s4.6-5.4,8.1-4.4v-5.5c-3.5-1-5.399-4.6-4.399-8.1s4.6-5.4,8.1-4.4l1.7-4.2c-3.4-1-5.4-4.6-4.4-8.1
	s4.601-5.4,8.101-4.4l1.199-3.898c-3.399-1.102-5.399-4.7-4.3-8.2c1.101-3.5,4.7-5.4,8.101-4.3l1-4.4c-2.9-2.1-3.601-6.2-1.4-9.1
	c2.1-2.9,6.2-3.602,9.1-1.5l1.4-5.802C355.5,409.1,354.8,405,356.9,402.1z"/>
<path fill="#FFFFFF" stroke="#000000" d="M327.5,367.3c0,0-17.2,9.101-42.6-8.2c-1.3-0.898-2.5-1.8-3.8-2.8c0.7-0.3,1.2-0.7,1.6-1.3
	c0.4-0.5,0.5-1.1,0.5-1.7c2.5,0.9,31.5,10.8,45.3-3.1l19,0.5C347.5,350.8,333,367.3,327.5,367.3z"/>
<path fill="#FFFFFF" stroke="#000000" d="M281.5,344.2c2-0.101,3.7,1.399,3.7,3.1c0,1.701-1.6,3.2-3.7,3.101
	c-0.8-0.101-4.9-1-7.4-1.5h-0.2c0.1-0.5,0.2-1,0.2-1.601c0-0.6-0.1-1.1-0.2-1.6C276.4,345.1,280.7,344.3,281.5,344.2z"/>
<path fill="#FFFFFF" stroke="#000000" d="M282.7,339.6c1,1.5,0.5,3.5-1.3,4.2c-0.7,0.3-5,1.3-7.5,1.8c-0.3-1.1-0.8-2.199-1.5-3
	c1.9-1.5,4.7-3.8,5.3-4.1C279.3,337.5,281.6,338.1,282.7,339.6z"/>
<path fill="#FFFFFF" stroke="#000000" d="M278.2,369.5c0,3-0.8,5.3-1.8,5.3s-1.8-2.399-1.8-5.3c0-3,0.8-5.4,1.8-5.4
	S278.2,366.5,278.2,369.5z"/>
<path fill="#FFFFFF" stroke="#000000" d="M275.7,379.2c1,0,1.8,2.3,1.8,5.2c0,2.898-0.8,5.199-1.8,5.199s-1.8-2.301-1.8-5.199
	C273.8,381.5,274.7,379.2,275.7,379.2z"/>
<path fill="#FFFFFF" stroke="#000000" d="M275,393.6c0.5,0,0.8,1.801,0.8,4c0,2.2-0.4,4-0.8,4s-0.8-1.8-0.8-4
	C274.2,395.4,274.5,393.6,275,393.6z"/>
<path fill="#FFFFFF" stroke="#000000" d="M275.9,333.9c1.8,0.898,2.5,2.8,1.4,4.199c-0.4,0.5-3.2,2.899-5,4.5
	c-0.9-1-2.1-1.801-3.4-2.301c0.7-2.1,1.7-4.699,2-5.3C271.8,333.5,274.2,333.1,275.9,333.9z"/>
<path fill="#FFFFFF" stroke="#000000" d="M281.3,350.8c1.2,0.5,1.8,1.5,1.8,2.5c0,0.601-0.1,1.2-0.5,1.7c-0.4,0.6-1,1-1.6,1.3
	c-1.1,0.5-2.4,0.5-3.4-0.1c-0.6-0.3-3.1-2.5-4.9-4l0,0c-0.1-0.101-0.2-0.2-0.4-0.3c0.7-0.9,1.3-1.9,1.5-3h0.2
	C276.5,349.5,280.6,350.5,281.3,350.8z"/>
<path fill="#FFFFFF" stroke="#000000" d="M277.3,356.5c1.1,1.4,0.4,3.4-1.4,4.2c-1.8,0.8-4.1,0.399-5-1.101
	c-0.3-0.601-1.3-3.301-2-5.399c1.4-0.4,2.6-1.3,3.4-2.3c0.1,0.1,0.2,0.199,0.4,0.3l0,0C274.5,353.7,276.9,356,277.3,356.5z"/>
<path fill="#FFFFFF" stroke="#000000" d="M268.9,354.2c0.6,2.1,1.4,4.899,1.5,5.5c0.1,1.7-1.7,3.1-3.7,3.1s-3.8-1.399-3.7-3.1
	c0.1-0.601,0.8-3.3,1.5-5.4l0,0c0.6,0.2,1.3,0.3,2,0.3C267.3,354.5,268.1,354.4,268.9,354.2z"/>
<path fill="#FFFFFF" stroke="#000000" d="M267.8,392.9c0.7,0,1.3,1.898,1.3,4.198c0,2.302-0.6,4.2-1.3,4.2c-0.7,0-1.3-1.898-1.3-4.2
	C266.5,394.8,267.1,392.9,267.8,392.9z"/>
<ellipse fill="#FFFFFF" stroke="#000000" cx="267.7" cy="383.4" rx="1.5" ry="4.2"/>
<ellipse fill="#FFFFFF" stroke="#000000" cx="267.5" cy="369.3" rx="1.7" ry="4.9"/>
<path fill="#FFFFFF" stroke="#000000" d="M260.9,342.4c0.9-1,2.2-1.801,3.6-2.2c0.6-0.2,1.3-0.3,2-0.3c0.8,0,1.6,0.1,2.4,0.398
	c1.4,0.4,2.5,1.2,3.4,2.301c0.7,0.899,1.3,1.899,1.5,3c0.1,0.5,0.2,1.101,0.2,1.601s-0.1,1.1-0.2,1.6c-0.3,1.101-0.8,2.2-1.5,3
	c-0.9,1.101-2.1,1.9-3.4,2.3c-0.8,0.301-1.6,0.4-2.4,0.4c-0.7,0-1.4-0.1-2-0.3c-1.4-0.4-2.6-1.101-3.5-2.101
	c-0.9-0.899-1.5-2-1.8-3.199c-0.2-0.5-0.2-1.102-0.2-1.7c0-0.601,0.1-1.101,0.2-1.601C259.5,344.4,260,343.3,260.9,342.4z"/>
<path fill="#FFFFFF" stroke="#000000" d="M264.5,340.2c-0.6-2.101-1.4-4.601-1.4-5.3c-0.1-1.7,1.7-3.102,3.7-3.102
	s3.8,1.4,3.7,3.102c0,0.6-0.9,3.3-1.5,5.398c-0.8-0.3-1.5-0.398-2.4-0.398C265.8,339.9,265.1,340,264.5,340.2z"/>
<path fill="#FFFFFF" stroke="#000000" d="M264.5,340.2c-0.7-2.101-1.6-4.601-1.9-5.2c-0.4-0.7-1.2-1.2-2-1.4
	c21.6-97.3,129.5-99.3,138-99.3c-0.1,3.1-0.6,6.1-1.698,8.8c8.198,2.7,20.898,7.7,26.8,14.3l-0.102,0.1c-14,1.5-9,0-55,45.2
	c0,0-7,27.5-29.399,28.6l0,0c-0.8,0-1.7,0-2.601,0c0,0-11,4.5-8,19.101c-13.899,13.899-42.899,4-45.3,3.101c0-1-0.7-2-1.8-2.5
	c-0.7-0.3-4.8-1.3-7.3-1.899c2.5,0.5,6.7,1.5,7.4,1.5c2,0.101,3.7-1.399,3.7-3.101s-1.6-3.2-3.7-3.101c-0.8,0-5.1,0.899-7.6,1.399
	c2.5-0.6,6.8-1.6,7.5-1.8c1.8-0.8,2.4-2.8,1.3-4.2c-1-1.5-3.4-2.1-5-1.1c-0.6,0.3-3.5,2.6-5.3,4.1c1.8-1.6,4.6-3.899,5-4.5
	c1.1-1.399,0.4-3.399-1.4-4.2c-1.8-0.898-4.1-0.398-5,1.102c-0.3,0.6-1.3,3.199-2,5.3c0.6-2.101,1.5-4.7,1.5-5.399
	c0.1-1.699-1.7-3.101-3.7-3.101s-3.8,1.399-3.7,3.101C263.1,335.6,263.8,338.1,264.5,340.2z"/>
<path fill="#FFFFFF" stroke="#000000" d="M264.5,354.3L264.5,354.3c-0.7,2.101-1.6,4.7-1.9,5.3c-0.9,1.5-3.3,2-5,1.102
	c-1.8-0.9-2.5-2.801-1.4-4.2c0.4-0.5,3-2.7,4.9-4.3C261.9,353.2,263.1,353.9,264.5,354.3z"/>
<path fill="#FFFFFF" stroke="#000000" d="M264.5,340.2c-1.4,0.399-2.6,1.2-3.6,2.2l0,0c-1.8-1.602-4.3-3.7-4.7-4.301
	c-1.1-1.399-0.4-3.399,1.4-4.199c0.9-0.5,2.1-0.5,3-0.301s1.6,0.699,2,1.399C262.9,335.6,263.8,338.1,264.5,340.2z"/>
<path fill="#FFFFFF" stroke="#000000" d="M261,352.2c-1.9,1.5-4.6,3.6-5.2,4c-1.7,1-4,0.3-5-1.101c-0.4-0.5-0.5-1-0.5-1.601
	c0-1.101,0.6-2.101,1.9-2.601c0.7-0.301,4.6-1.199,7.1-1.801C259.5,350.2,260.1,351.3,261,352.2z"/>
<path fill="#FFFFFF" stroke="#000000" d="M258.5,382.9c-0.5,0-1-2.102-1-4.7c0-2.601,0.5-4.7,1-4.7s1,2.1,1,4.7
	C259.5,380.8,259,382.9,258.5,382.9z"/>
<path fill="#FFFFFF" stroke="#000000" d="M258.2,361.8c0.7,0,1.3,2,1.3,4.5s-0.6,4.5-1.3,4.5c-0.7,0-1.3-2-1.3-4.5
	C256.8,363.8,257.4,361.8,258.2,361.8z"/>
<path fill="#FFFFFF" stroke="#000000" d="M259.2,345.6L259.2,345.6c-0.1,0.5-0.2,1.102-0.2,1.602c0,0.6,0.1,1.199,0.2,1.699
	c-2.5,0.5-6.5,1.399-7.2,1.399c-2,0.101-3.7-1.399-3.7-3.1c0-1.701,1.6-3.2,3.7-3.101C252.7,344.3,256.6,345.1,259.2,345.6z"/>
<path fill="#FFFFFF" stroke="#000000" d="M260.9,342.4c-0.8,0.898-1.4,2-1.7,3.199l0,0c-2.5-0.601-6.4-1.5-7.1-1.801
	c-1.8-0.8-2.4-2.8-1.3-4.199c1-1.5,3.3-2.101,5-1.101C256.4,338.8,259,340.9,260.9,342.4L260.9,342.4z"/>
<path fill="#FFFFFF" stroke="#000000" d="M267.5,364.5c-0.9,0-1.7,2.2-1.7,4.9c0,2.699,0.8,4.8,1.7,4.8s1.7-2.2,1.7-4.8
	C269.2,366.6,268.4,364.5,267.5,364.5z M267.8,401.3c0.7,0,1.3-1.898,1.3-4.2c0-2.3-0.6-4.199-1.3-4.199c-0.7,0-1.3,1.899-1.3,4.199
	C266.5,399.4,267.1,401.3,267.8,401.3z M267.7,387.5c0.8,0,1.5-1.9,1.5-4.2s-0.7-4.2-1.5-4.2c-0.8,0-1.5,1.9-1.5,4.2
	C266.2,385.7,266.8,387.5,267.7,387.5z M274.2,397.6c0,2.2,0.4,4,0.8,4s0.8-1.8,0.8-4c0-2.199-0.4-4-0.8-4S274.2,395.4,274.2,397.6z
	 M273.8,384.4c0,2.898,0.8,5.199,1.8,5.199s1.8-2.301,1.8-5.199c0-2.9-0.8-5.2-1.8-5.2C274.7,379.2,273.8,381.5,273.8,384.4z
	 M274.5,369.5c0,3,0.8,5.3,1.8,5.3s1.8-2.399,1.8-5.3c0-3-0.8-5.4-1.8-5.4S274.5,366.5,274.5,369.5z M258.5,373.5
	c-0.5,0-1,2.1-1,4.7c0,2.6,0.5,4.7,1,4.7s1-2.102,1-4.7C259.5,375.6,259,373.5,258.5,373.5z M258.2,361.8c-0.7,0-1.3,2-1.3,4.5
	s0.6,4.5,1.3,4.5c0.7,0,1.3-2,1.3-4.5S258.9,361.8,258.2,361.8z M262.5,359.6c0.3-0.6,1.2-3.199,1.9-5.3c-0.6,2.101-1.4,4.8-1.5,5.4
	c-0.1,1.7,1.7,3.1,3.7,3.1s3.8-1.399,3.7-3.1c-0.1-0.601-0.9-3.4-1.5-5.5c0.7,2.1,1.6,4.8,2,5.399c0.9,1.5,3.3,2,5,1.101
	c1.8-0.9,2.5-2.8,1.4-4.2c-0.4-0.5-2.8-2.7-4.6-4.3c1.9,1.5,4.4,3.7,4.9,4c1.1,0.6,2.3,0.6,3.4,0.1c1.3,1,2.6,1.9,3.8,2.8l0,0
	c9.5,7.7,26.2,31.301,26.2,31.301c-0.5,5-12.7,4.899-12.7,4.899c4.2,6.9,7.7,12.7,7.7,12.7c-5,14-27,14-27,14l-0.4,0.2
	c1.4,2.5,2.5,3.2,3.4,5.3c1.3,3.3-12,9.5-13.5,9.5c-10,0-26.1-7.1-35.6-11.7c-4.5-2.2-7.4-3.8-7.4-3.8c-3.5-3,2-24.6,2-24.6
	c-4-2.5-5-10-5-10c1-12,27.7-33.5,27.7-33.5h0.1c0,0.6,0.2,1.1,0.5,1.6c1,1.5,3.3,2.1,5,1.1c0.6-0.398,3.4-2.398,5.2-4
	c-1.8,1.602-4.4,3.7-4.9,4.301c-1.1,1.399-0.4,3.399,1.4,4.199C259.3,361.5,261.6,361.1,262.5,359.6z M260.2,390.4
	c0-2.102-0.4-3.801-1-3.801c-0.5,0-1,1.699-1,3.801c0,2.1,0.5,3.898,1,3.898C259.7,394.2,260.2,392.5,260.2,390.4z"/>
<path fill="#FFFFFF" stroke="#000000" d="M236.5,0.5v1c0,0-0.2,3.2-0.6,9c-3.4,46.4-23.3,258.1-102.4,291.1c-2,6-133-2-133-2V0.5
	H236.5z"/>
<path fill="#FFFFFF" stroke="#000000" d="M235.9,10.5c0.4-5.8,0.6-9,0.6-9v-1h397v1c0,0-0.7,4.8-1.4,13.3l-1.6-0.2
	c-38,30.1-70,1-70,1c-48,26.1-76-4-76-4c-56,21.1-91-1-91-1c-41,33.1-82-3-82-3c-44,32.1-75,3-75,3L235.9,10.5z"/>
<path fill="#FFFFFF" stroke="#000000" d="M311.5,7.5c0,0,41,36.1,82,3c0,0,35,22.1,91,1c0,0,28,30.1,76,4c0,0,32,29.1,70-1l1.6,0.2
	c-4.8,53.5-13.6,252.2,113.4,280.8c0,0,1,3-1,10C739.3,324,715.2,363,704.1,441c-12.6,0-25.898,0.1-38.5,0.1
	c-12.6,0-31.398-3.3-43.198,1l-1.5,0.302l-5.7-21c6.5-3.802,11.2-7,11.2-7c3.5-3-2-24.602-2-24.602c4-2.5,5-10,5-10
	c-1-12.1-27.7-33.5-27.7-33.5H601.6c-0.1-1-0.698-1.8-1.8-2.3c-0.7-0.3-4.1-1-6.6-1.5c2.5,0.5,6,1.1,6.8,1.2
	c2,0.1,3.7-1.4,3.7-3.101c0-1.699-1.7-3.199-3.7-3.101c-0.8,0-4.5,0.899-7.1,1.399c2.5-0.601,6.3-1.5,6.898-1.801
	c1.8-0.8,2.4-2.8,1.3-4.199c-1-1.5-3.3-2.101-5-1.101c-0.6,0.399-3.1,2.5-5,4.101c1.802-1.601,4.2-3.801,4.7-4.399
	c1.102-1.399,0.4-3.399-1.398-4.2c-1.802-0.898-4.102-0.398-5,1.102C589.1,329,588,332,587.3,334.1c0.602-2.1,1.602-5.199,1.7-5.8
	c0.1-1.1-0.7-2.1-1.8-2.6l0,0c-0.4-1.3-23.8-81.3-128.7-86.7c3.3-17.8,15.1-37.9,17.7-42.1c0.3,0.2,0.6,0.4,1,0.6
	c0.398,0.4,0.8,0.9,1.398,1.1c0.4,0.2,0.7,0.3,1.102,0.4c21.3,13.5,44.3,28.6,89.8,45.9c7.5,2.9,30.6,3.7,30.9,3.1
	c6.1-5.1-3.7-3.8-5.602-6.4c7.602-5.8,7.8-5.3,18-5.5c0.7-0.3,1.102-0.8,1.5-1.2c-0.1-0.3-0.3-0.5-0.7-0.7c0.4,0,0.802,0,1.102-0.1
	c0.3-0.6,0.5-1.9,0.398-2.6c0.602,0.3,1.2,0.6,1.7,0.9c0.3,0.1,0.4-1.1,0.8-1c0.302-3-6.3-5.1-11.698-4.8c1.8-0.7,8.3-2.1,8.898-3.5
	c0.9-2-10.6-1.2-17.1,1.9c-3.8,1.8-13.4,8.3-18.3,7.4c-6.301-1.2-16.2-4.1-22.4-8.6c-3.8-2.8-44.8-33.1-48.6-35.6
	c-0.2,0-0.5,0-0.7,0c-0.602-1.5-0.5-3.3,1.2-5.5c1.5,0.1,3,0,4.398-0.1c0.8-2.4,3-6.6,5.4-5.4v0.1c3.899,2.9,8.7,4.5,8.7,4.5
	c16-2,12-19.6,12-19.6l3-0.5c23-22.1-4-31.1-4-31.1c-7-4.5-5.5-14-5.5-14c5.5-10-5-14.1-5-14.1c-13,2.5-20-1.5-20-1.5
	c-2-14.6-10.5-21.1-10.5-21.1c7-16.6-18.5-20.6-18.5-20.6c1.5-6-22.5-15.6-22.5-15.6c0.5-7-23-8.5-23-8.5L428,34
	c0,0-1.8-1.4-2.5-1.3c-0.6,0-2.2,1.3-2.2,1.3l-6.8,0.6c-1.5,0.3-8.4,0.8-9.8,1.4C399,39.6,394,47.6,394,47.6
	c-14,8.5-11.5,19.1-11.5,19.1c-4,0-10,19.6-10,19.6c-29.5,11-20.5,23.1-20.5,23.1c-15.5,5-14,19.6-14,19.6c-32,22.6-1,35.6-1,35.6
	c-1,15.1,14.5,19.1,14.5,19.1c-14.6,8.2-23.7,19.4-41,30.6c-3.8,2.5-14.2,8.3-18,11c-6.2,4.5-16.1,7.4-22.4,8.6
	c-4.9,0.9-14.5-5.6-18.3-7.4c-6.5-3.1-18-3.9-17.1-1.9c0.7,1.4,7.2,2.8,8.9,3.5c-5.4-0.3-12,1.7-11.7,4.8c0.4-0.1,0.5,1.1,0.8,1
	c0.7-0.4,1.4-0.8,2.1-1.2c-0.2,0.6-0.4,2,1.6,2.6c-0.6,0.3-1.1,0.7-1.2,1.1c0.4,0.4,0.8,1,1.5,1.2c10.3,0.2,10.5-0.3,18,5.5
	c-1.9,2.6-11.7,1.4-5.6,6.4c0.3,0.6,23.4-0.2,30.9-3.1c47.8-18.2,71.3-36.9,93.6-51c3.301,2.1,6.301,2.6,10.101-0.8
	c0.899-0.8,1.6-1.5,2.3-1.9l0.1,0.1c0,0,12.9,23.6,12.301,41.6c-8.4,0-116.3,2-138,99.3c-1-0.3-2.1-0.2-3,0.3
	c-1.8,0.9-2.5,2.8-1.4,4.2c0.4,0.5,2.9,2.7,4.7,4.3c-1.9-1.5-4.4-3.6-5.1-3.9c-1.7-1-4-0.398-5,1.102s-0.5,3.5,1.3,4.199
	c0.7,0.301,4.6,1.199,7.1,1.801c-2.5-0.5-6.4-1.301-7.2-1.4c-2-0.1-3.7,1.4-3.7,3.102c0,1.699,1.6,3.199,3.7,3.1
	c0.8-0.1,4.7-0.9,7.2-1.4c-2.5,0.602-6.4,1.5-7.1,1.802c-1.2,0.5-1.9,1.5-1.9,2.6h-0.1c0,0-26.7,21.4-27.7,33.5c0,0,1,7.5,5,10
	c0,0-5.5,21.601-2,24.601c0,0,3,1.601,7.4,3.801l-2.9,13.898l-0.5-0.1c-23.3,0-45.5,0-68.9,0c-6-57.7-20-111.7-25.1-130.5
	c-1.3-4.5-2-7-2-7c79.2-33,99-244.7,102.4-291.1h0.6C236.5,10.5,267.5,39.6,311.5,7.5z"/>
<path fill="#FFFFFF" stroke="#000000" d="M362.3,330.5c0,0,13.8,2.7,24.3-18.9c0,0,2-4.1,2.801-4.898l0,0c0.1,0,0.199,0,0.3-0.102
	c0,0.102,0.1,0.2,0.1,0.301c0,1,4.3,3.5,9.102,5.101c-0.802,1-1.5,2.8-2,3.7c-3.4-1.301-7.102,0.3-8.4,3.699
	c-1.3,3.301,0.3,7.101,3.7,8.5l-1.601,3.899c-3.3-1.3-7.1,0.3-8.399,3.7s0.399,7.1,3.7,8.5l-1,4.7c-3.601-0.4-6.801,2.2-7.2,5.8
	c-0.4,3.6,2.2,6.8,5.7,7.2l-0.9,3.1c-3.6-0.3-6.7,2.3-7,5.9c-0.3,3.6,2.3,6.8,5.9,7.1l-4.601,6.9c-2.899-2.101-7-1.5-9.1,1.399
	c-2.101,2.899-1.5,7,1.399,9.101l-3,5.5c-2.899-2.102-7-1.5-9.1,1.5c-2.1,2.898-1.5,7,1.4,9.1L357,417c-2.9-2.1-7-1.5-9.1,1.5
	c-2.101,2.9-1.5,7,1.399,9.1l-1,4.4c-3.399-1.1-7.1,0.9-8.1,4.3c-1,3.4,0.899,7.102,4.3,8.2l-1.2,3.9c-3.399-1-7.1,1-8.1,4.398
	c-1,3.5,1,7.102,4.399,8.102l-1.699,4.198c-3.5-1-7.101,1-8.101,4.4c-1,3.5,1,7.1,4.4,8.1v5.5c-3.4-1-7.101,1-8.101,4.4
	c-1,3.5,1,7.1,4.4,8.1l1.5,5.602c-3.6-0.5-6.8,2-7.3,5.6c-0.5,3.5,1.899,6.8,5.5,7.3v0.302c-8.5,2.3-23.101,4-36-6.602
	c0,0-30.4,7.5-71.2-36.3l6.9-32.3l2.9-13.9c9.4,4.602,25.6,11.7,35.6,11.7c1.5,0,14.8-6.3,13.5-9.5c-0.8-2.1-1.9-2.9-3.4-5.3
	l0.4-0.2c0,0,22,0,27-14c0,0-3.5-5.8-7.7-12.699c0,0,12.201,0.199,12.701-4.9c0,0-16.601-23.6-26.201-31.301l0,0
	c25.4,17.301,42.6,8.201,42.6,8.201c5.5,0,20-16.601,20-16.601s7.2,3,14.601-20.3L362.3,330.5z"/>
<path fill="#FFFFFF" stroke="#000000" d="M353.6,187.6c3,5.3,8.4,6.5,13.801,2.8c2.3,2,4.3,3.8,6.199,5
	c-22.3,14.1-45.8,32.8-93.6,51c-7.5,2.9-30.6,3.7-30.9,3.1c-6.1-5.1,3.7-3.8,5.6-6.4c-7.6-5.8-7.8-5.3-18-5.5
	c-0.7-0.3-1.1-0.8-1.5-1.2c0.2-0.4,0.6-0.8,1.2-1.1c-2-0.5-1.8-1.9-1.6-2.6c-0.8,0.4-1.5,0.8-2.1,1.2c-0.3,0.1-0.4-1.1-0.8-1
	c-0.3-3,6.3-5.1,11.7-4.8c-1.8-0.7-8.3-2.1-8.9-3.5c-0.9-2,10.6-1.2,17.1,1.9c3.8,1.8,13.4,8.3,18.3,7.4c6.3-1.2,16.2-4.1,22.4-8.6
	c3.8-2.8,14.2-8.5,18-11c17.3-11.2,26.4-22.4,41-30.6l0,0c0.1,0.3,0.3,0.6,0.5,1C352.5,185.6,353.1,186.6,353.6,187.6z"/>
<path fill="#FFFFFF" stroke="#000000" d="M135.5,308.6c5.2,18.801,19.1,72.801,25.1,130.5c3,29.2,4,59.302,0.9,86.302
	c0,0-25,18.1-36,1c0,0-17,22.1-33,6c-11.7-11.7-10-2-10-2s-13,21.1-29,3c0,0-10,9-25-2c0,0-20,16.1-28,0V309.6
	C14.5,314.6,135.5,308.6,135.5,308.6z"/>
<path fill="#FFFFFF" stroke="#000000" d="M133.5,301.6c0,0,0.7,2.5,2,7c0,0-121,6-135,1v-10C0.5,299.6,131.5,307.6,133.5,301.6z"/>
<path fill="#FFFFFF" stroke="#000000" d="M445.5,56.3c-2.6,2.5-6.5,4.5-11.1,1.2c-1-0.8-2-2.7-2.4-4.8c-0.7-3.7,0.2-8.1,4.8-8.1
	l1.3,2.8c0,0-2.8,3.1-2.3,5.1s3.102,2.5,5.602,1.3c2.5-1.2,6.8-9.2-10.802-16.1l2.802-2.4c0,0,18.698,8.6,15.3,16.8
	C448.8,52,447.6,54.3,445.5,56.3z"/>
<path fill="#FFFFFF" stroke="#000000" d="M454.5,59.4c0,2.1-1.9,3.8-4.3,3.8c-1.2,0-2.2-0.4-3-1.1c-0.8-0.7-1.3-1.6-1.3-2.7
	c0-1.2,0.6-2.2,1.5-2.9c0.698-0.5,1.698-0.9,2.698-0.9C452.6,55.6,454.5,57.3,454.5,59.4z"/>
<path fill="#FFFFFF" stroke="#000000" d="M424,41.7c0.5,0,1,0.1,1.4,0.4c0.8,0.5,1.3,1.4,1.3,2.4c0,1.5-1.2,2.7-2.602,2.8H424
	c-1.5,0-2.8-1.2-2.8-2.8c0-1.1,0.7-2.1,1.6-2.5C423.2,41.8,423.6,41.7,424,41.7z"/>
<path fill="#FFFFFF" stroke="#000000" d="M416.5,34.6l2.2,2.5c-17,6.7-12.5,12.9-10.5,14.5c3,2.5,5.5,1,6-1s-1.5-4-1.5-4l2-2.5
	c4.5,0.4,4.8,4.8,4,8c-0.3,1.1-0.7,2-1.2,2.6c-5.5,7.2-12.2,1.4-15-1.6c-0.8-0.9-1.3-1.5-1.3-1.5C396.8,43.1,416.5,34.6,416.5,34.6z
	"/>
<path fill="#FFFFFF" stroke="#000000" d="M429.7,54.2c0,3.2-2.2,5.8-5,5.8s-5-2.6-5-5.8c0-0.6,0.1-1.2,0.2-1.7
	c0.6-2.2,2.3-3.8,4.3-4c0.2,0,0.3,0,0.5,0c2.398,0,4.398,2,4.898,4.6C429.6,53.4,429.7,53.8,429.7,54.2z"/>
<path fill="#FFFFFF" stroke="#000000" d="M460.3,47.9c0,1.5-1.3,2.8-3,2.8s-3-1.2-3-2.8c0-1.5,1.3-2.8,3-2.8S460.3,46.4,460.3,47.9z
	"/>
<path fill="#FFFFFF" stroke="#000000" d="M454.5,50.2c1.9,0,3.5,1.5,3.5,3.3s-1.6,3.3-3.5,3.3s-3.5-1.5-3.5-3.3
	C451,51.6,452.6,50.2,454.5,50.2z"/>
<path fill="#FFFFFF" stroke="#000000" d="M448.3,64.5c0,2.1-1.898,3.8-4.3,3.8c-2.1,0-3.8-1.3-4.2-3c-0.1-0.3-0.1-0.5-0.1-0.8
	c0-2.1,1.898-3.8,4.3-3.8c1.3,0,2.5,0.5,3.2,1.3C447.9,62.7,448.3,63.6,448.3,64.5z"/>
<path fill="#FFFFFF" stroke="#000000" d="M439.8,65.3c0.102,0.3,0.102,0.6,0.102,1c0,2.1-1.9,3.8-4.302,3.8
	c-2.398,0-4.3-1.7-4.3-3.8c0-2.1,1.9-3.8,4.3-3.8C437.7,62.5,439.3,63.7,439.8,65.3z"/>
<path fill="#FFFFFF" stroke="#000000" d="M428.7,30.6c0,0,7.8-3.3,4.8,4.5l-2.8,2.4l-5.2,4.4l-0.1,0.1c-0.4-0.3-0.9-0.4-1.4-0.4
	c-0.4,0-0.8,0.1-1.2,0.3l0,0l-4.1-4.8l-2.2-2.5c0,0-3-7.4,5.5-3.5C422,31.1,425.5,16.9,428.7,30.6z"/>
<path fill="#FFFFFF" stroke="#000000" d="M431.4,66.2c0,2.1-1.9,3.8-4.302,3.8c-2.398,0-4.3-1.7-4.3-3.8c0-0.1,0-0.3,0-0.4
	c0.2-1.9,2-3.4,4.2-3.4C429.5,62.5,431.4,64.1,431.4,66.2z"/>
<path fill="#FFFFFF" stroke="#000000" d="M422.9,65.6c0,0.1,0,0.2,0,0.3c-0.2,2-2,3.5-4.2,3.5c-2.4,0-4.3-1.7-4.3-3.8
	c0-0.2,0-0.4,0.1-0.6c0.3-1.8,2.1-3.1,4.2-3.1C421,61.8,422.9,63.5,422.9,65.6z"/>
<path fill="#FFFFFF" stroke="#000000" d="M414.4,64.5c0,0.1,0,0.3,0,0.4c-0.2,1.9-2,3.4-4.2,3.4c-2.4,0-4.3-1.7-4.3-3.8
	c0-0.6,0.198-1.3,0.5-1.8c0.698-1.2,2.1-2,3.8-2C412.5,60.8,414.4,62.4,414.4,64.5z"/>
<path fill="#FFFFFF" stroke="#000000" d="M406.8,61c0,0.6-0.2,1.2-0.5,1.7c-0.6,1.1-1.898,1.8-3.3,1.8c-2.1,0-3.8-1.6-3.8-3.5
	c0-1,0.398-1.9,1.1-2.5s1.602-1,2.602-1C405.1,57.5,406.8,59.1,406.8,61z"/>
<path fill="#FFFFFF" stroke="#000000" d="M400.3,53.4c0.602,0.6,1,1.5,1,2.5s-0.398,1.9-1,2.5c-0.6,0.6-1.398,1-2.3,1
	c-1.8,0-3.3-1.6-3.3-3.5s1.5-3.5,3.3-3.5C398.9,52.4,399.7,52.8,400.3,53.4z"/>
<path fill="#FFFFFF" stroke="#000000" d="M394.5,47.9c1.5,0,2.8,1.2,2.8,2.8c0,1.5-1.2,2.8-2.8,2.8s-2.8-1.2-2.8-2.8
	C391.8,49.1,393,47.9,394.5,47.9z"/>
<path fill="none" stroke="#000000" stroke-linecap="round" d="M429.7,94.8c4.5-5.1,13.1-5.6,15.898-1.5"/>
<path fill="none" stroke="#000000" stroke-linecap="round" d="M416.9,95.3c-3.2-5.4-11.2-2.9-14.802-2.4"/>
<path fill="none" stroke="#000000" stroke-linecap="round" d="M453.3,108.7c-0.2,0.7-0.5,1.2-0.6,1.9"/>
<path fill="none" stroke="#000000" stroke-linecap="round" d="M457.2,109.9c2.1-1,4.398-3.7,3.6-6.2c-0.3,0-0.7,0.2-1.1,0.4"/>
<path fill="none" stroke="#000000" stroke-linecap="round" d="M432.1,100.2c1.102-1,3.302-4.7,3.302-6.2"/>
<path fill="none" stroke="#000000" stroke-linecap="round" d="M436.2,97.1c1-0.6,2.5-2.8,2.3-3.9"/>
<path fill="none" stroke="#000000" stroke-linecap="round" d="M439.3,96.8c0.5-0.8,2.3-2,2.102-3.1"/>
<path fill="none" stroke="#000000" stroke-linecap="round" d="M441.4,97c1.6-0.9,1.698-1.3,2.698-2.4"/>
<path fill="none" stroke="#000000" stroke-linecap="round" d="M415.4,101.4c-1.102-1-3.5-4-3.5-5.5"/>
<path fill="none" stroke="#000000" stroke-linecap="round" d="M411.3,98.4c-1-0.6-2.1-2.2-1.898-3.4"/>
<path fill="none" stroke="#000000" stroke-linecap="round" d="M408.9,98.2c-0.5-0.8-1.9-2.4-1.802-3.5"/>
<path fill="none" stroke="#000000" stroke-linecap="round" d="M406.9,98.1c-1.602,0-1-1.8-2-2.9"/>
<path fill="none" stroke="#000000" d="M408.6,100.4c0,0.1,0,0.2,0,0.3"/>
<path fill="none" stroke="#000000" d="M438.6,99.2c0.102,0,0.102,0.1,0,0.2"/>
<path fill="none" stroke="#000000" d="M518.8,177.2c-4.8-3.6-8.2-9.2-0.3-16.6c0,0,10.5-3.5,10.5,1.5s4,5.5-4.5,7.5
	c0,0-3.5-4.5-2-4.5"/>
<path fill="none" stroke="#000000" d="M337,164.6c0,0,22.5-8.5,2.5-24.1c0,0-15.5,9-0.5,11"/>
<path fill="none" stroke="#000000" d="M359.5,154.5c0,0,8.6-7.7,6.1-21.7c-1-5.5,16.2,1.8,19.301-12.6c0.6-2.7,1.5-7.7-1-10.8
	c0,0-9.101-12.2,6.6-17.2c0,0,18.2-21.7-2.5-11.7c0,0-5.6,6.3,4.1,3.6"/>
<path fill="none" stroke="#000000" d="M382.5,66.7c0,0,4,11.5,15.5,1.5c0,0-4-20.6-12-1c0,0,1.5,3,4.5,1.5s5-6,1-5.5"/>
<path fill="none" stroke="#000000" d="M479,59.2c-5.5,7-2,24.6-15,14.1c-20.1-16.3,9-15.1,4-8"/>
<path fill="none" stroke="#000000" d="M497.5,79.8c0,0-9.5,21.6-19,8c-10.5-15,12.5-9,7.5-3"/>
<path fill="none" stroke="#000000" d="M540,161.6c-4,0.9-7.8-4.7-8.5-8c-1.6-6.9,2.9-8.2,8.4-8c4.6,2.9,0.698,5.2,0.5,7.9
	c-0.802,0.1-2.102,0.3-2.9,0.1"/>
<path fill="none" stroke="#000000" d="M508,100.9c0,0-7,20.1-21,9s-4.5-9,0-9s15.5,1.5,8,6"/>
<path fill="none" stroke="#000000" d="M372.5,85.8c-0.8,5.4,4,4.6,7.9,4.4c0.1-1.9,0.1-3.9,0-5.9c-1-0.4-1.4,0.1-1.9,0.4"/>
<path fill="none" stroke="#000000" d="M351.5,109.4c4.3,2.8,18.6,5.3,21,0c2.7-6-7.1-12.7-8.5-7"/>
<path fill="none" stroke="#000000" d="M338,129c0,0,18,8.5,19.5-3.5s-8-7-9.5-4"/>
<path fill="none" stroke="#000000" d="M533,118.4c-1.7,4.1-13.8,6.3-17.1,3.5c-6-5,0-12.9,6.6-10"/>
<path fill="none" stroke="#000000" d="M537,129.5c1.5,2.3,1.1,5.2,0.9,7.9c-5.602,1.3-12.102,7.7-17,3.2c-6.9-6.3,3-16.1,7.6-9.7"/>
<path fill="none" stroke="#000000" d="M446.5,74.8c4.9-3.5,8.8-3.7,9,3c0.1,4.4-4.3,8.3-7,3"/>
<path fill="none" stroke="#000000" d="M455.5,81.8c6.6-0.2,10,1.6,9.4,8.5c-1.802,0.4-3.4,0.6-5.302,0.5c-0.1-0.5,0-0.9-0.1-1.4"/>
<path fill="none" stroke="#000000" d="M465.5,90.8c0,2.4,1.9,3.1,2.7,5.2s0.3,4.8,0.5,7.1c7.3-0.9,7.398,8.9,4.5,12.4
	c3.6,1,8.2,1.5,10.1,4.5c1.4,2.2,1.3,6.9,0.7,9.4c6.4-0.2,16.5,6.3,10.5,12.3c3.3,0.9,6.4,2,9.5,3.3c0.1,2.7,0.2,5.6,0,8.3
	c-1,0.2-2.1,1.1-2.9,1.3c4.2,0.4,4.2,4.7,3.9,7.6c-1.2,0.5-1.9,1.1-3,1.4"/>
<path fill="none" stroke="#000000" d="M460.5,127c9.9,0,10.1,2.5,10.6,11.5c4.102,0.7,7.9,5.8,4.4,9.1"/>
<path fill="none" stroke="#000000" d="M499,126.4c3.8,0,8-0.9,10.3,2.9c1.9,3.2,0.2,6.6-2.398,8.6c4.5,2.3,9.8,9.8,3.1,13.6"/>
<path fill="none" stroke="#000000" d="M508.5,182.6c1.6,0.2,3.4,0,4.9-0.1c0.8-2.4,3-6.6,5.398-5.4"/>
<path fill="none" stroke="#000000" d="M396.5,122.4c-4.3,1.2-3.6,7.4-1.2,10.1c-0.6,0-1.2,0.1-1.7,0.1c-1.399,1.9-1.8,4.5,0.4,5.9"
	/>
<path fill="none" stroke="#000000" stroke-linecap="round" d="M234.9,232.6c4-1.9,9-3.2,14.6-0.1"/>
<path fill="none" stroke="#000000" stroke-linecap="round" d="M247.6,228.9c-1.1-0.4-2.3-0.7-3.7-0.8"/>
<path fill="none" stroke="#000000" stroke-linecap="round" d="M236.8,235.1c3.1-1.4,9.9-1.5,14.2,1.4"/>
<path fill="none" stroke="#000000" stroke-linecap="round" d="M615.2,231.4c-4.102-2.1-9.3-3.6-15.102-0.4"/>
<path fill="none" stroke="#000000" stroke-linecap="round" d="M602,227.4c1.1-0.4,2.3-0.7,3.7-0.8"/>
<path fill="none" stroke="#000000" stroke-linecap="round" d="M613.2,233.7c-2.9-1.5-10.102-1.7-14.5,1.2"/>
<path fill="none" stroke="#000000" stroke-linecap="round" d="M126.5,527.4c-0.9-10.5-5.3-19.802-5.8-31.7c-0.6-14.9-0.2-30-0.2-45
	c0-11.8,2.9-30.3-3-40.8"/>
<path fill="none" stroke="#000000" stroke-linecap="round" d="M83.5,527.4c0.8-5.9-1.9-10.9-3.2-16.5c-3.6-15.602-5.1-30.7-5.8-46.5
	c-0.6-16.2-1.1-32.2-1.1-48.4"/>
<path fill="none" stroke="#000000" stroke-linecap="round" d="M52.5,533.4c-7.1-14.2-10.1-33.4-15-48.9c-6.4-20.3-7-39.3-7-60.5"/>
<path fill="none" stroke="#000000" stroke-linecap="round" d="M28.5,531.4c-8.3-7.602-14.1-22.5-17-33.9c-5.6-22-3.5-34.9-3.5-53.4"
	/>
<path fill="none" stroke="#000000" stroke-linecap="round" d="M182.5,100.9c0,0-26,179.6-84,202.7"/>
<path fill="none" stroke="#000000" stroke-linecap="round" d="M113.5,110.9c0,0,10.8,148.9-44.2,192.1"/>
<path fill="none" stroke="#000000" stroke-linecap="round" d="M665.5,93.8c0,0-28.1,127.3,91.9,201.601"/>
<path fill="none" stroke="#000000" stroke-linecap="round" d="M692.5,97.8c0,0-11.7,139.7,86.3,197"/>
<path fill="none" stroke="#000000" stroke-linecap="round" d="M725.5,528.4c0,0-1-54.2,19-98.4"/>
<line fill="none" stroke="#000000" stroke-linecap="round" x1="761.5" y1="531.4" x2="770.5" y2="438.1"/>
<line fill="none" stroke="#000000" stroke-linecap="round" x1="791.5" y1="529.4" x2="792.5" y2="444.1"/>
<line fill="none" stroke="#000000" stroke-linecap="round" x1="822.5" y1="0.5" x2="822.5" y2="567.5"/>
<path fill="none" stroke="#000000" d="M457.7,249.4c3.3,0.3,6.5,1.2,9.5,2.9"/>
<path fill="none" stroke="#000000" d="M389.2,240.9c0,0,3.1,0.8,7.6,2.2"/>
<path fill="none" stroke="#000000" d="M227.5,396.9c0,0,19.3-38.301,24-41.102"/>
<path fill="none" stroke="#000000" d="M278.4,421.7c-1.9-3.5-4.3-10.3-7.4-27.3"/>
<path fill="none" stroke="#000000" d="M297.9,394.5c-4.7-7.8-10.1-16.8-11.9-20.2"/>
<path fill="none" stroke="#000000" d="M624.1,389c-3.198-6.3-22.5-44.8-23.898-39.3"/>
<line fill="none" stroke="#000000" x1="574" y1="370.3" x2="558.7" y2="392.7"/>
<line fill="none" stroke="#000000" x1="581.2" y1="380.2" x2="576.2" y2="419.3"/>
</svg>
