<?xml version="1.0" encoding="utf-8"?>
<!-- Generator: Adobe Illustrator 15.0.0, SVG Export Plug-In . SVG Version: 6.00 Build 0)  -->
<!DOCTYPE svg PUBLIC "-//W3C//DTD SVG 1.1//EN" "http://www.w3.org/Graphics/SVG/1.1/DTD/svg11.dtd">
<svg version="1.1" id="Layer_1" xmlns="http://www.w3.org/2000/svg" xmlns:xlink="http://www.w3.org/1999/xlink" x="0px" y="0px"
	 width="822px" height="567px" viewBox="0 0 822 567" enable-background="new 0 0 822 567" xml:space="preserve">
<rect x="0.4" display="none" fill="#FFFFFF" width="822" height="567"/>
<path fill="#FFFFFF" stroke="#000000" stroke-width="0.5" d="M398.8,178.6c1.2,4.5-3.3,3.7-3.3,3.7c-2.2,3.5-4.7-0.3-4.7-0.3
	c-4.7,2-2-3-2-3c-4.7-0.7,0-3.3,0-3.3c0-4.3,4.2-2,4.2-2c4.3-4,4.2,1.3,4.2,1.3C401.2,175.2,398.8,178.6,398.8,178.6z"/>
<path fill="#FFFFFF" stroke="#000000" stroke-width="0.5" d="M494.5,418.1c-0.3,1.7-5.3,1.5-6-0.199c-0.7-1.7-3.7-0.301-7,1.5
	c2.8-5.801,29-32.7,40.7-32.7s7.7-0.3,7.7,1.2s15.699-5.301,16-6.301c0.3-1,4.199,0.301,2.699,3.5c-1.5,3.2-9.8,12.2-10.199,13.7
	c0,0-4.2,3.5-5.801,2.3c-1.699-1.199-5.199-0.3-5.199,2.301c0,2.699-3.7,3-4.5,2.699c-0.801-0.3-4.801,0.5-4.801,3
	s-6.199,3.301-7.3,1.301c-1.2-2-3.8,0.699-3.5,2.699s-6.5,1.801-7.3,0C499,411.2,494.8,416.4,494.5,418.1z"/>
<path fill="#FFFFFF" stroke="#000000" stroke-width="0.5" d="M344.5,303.9c-15.6,15.3-37.3-8.801-42.2-14.601
	c0-0.2-0.1-0.5-0.1-0.899c-0.4-1.801-6.1-2.801-12.6-3.301c-9-0.699-19.4-0.5-19.4-0.5c0.3-1.8,12.6-10.1,23-16.6
	c7.5-4.8,13.899-8.7,13.899-8.7c0.101-0.1,0.2-0.3,0.4-0.5c15.1-9.7,49.1-8.5,49.1-8.5c21,5.2,30.301,23.5,30.301,23.5
	c-1.2-8.2,17.1-22.7,20.5-25.3c0.3-0.3,0.5-0.4,0.5-0.4c37.5-8,68.8,14.8,68.8,14.8c17,7.3,3.8,13.5,3.8,13.5
	c-1,1.2-2.4,2.4-3.9,3.4c-13.5,9-42.899,10.101-42.899,10.101c-10.8-1-29,18.8-29,18.8c-8.7,9.8-13.8,6.5-13.8,6.5
	C374.7,291.1,344.5,303.9,344.5,303.9z"/>
<path fill="#FFFFFF" stroke="#000000" stroke-width="0.5" d="M435.8,184.9c-7.2,4.6-15.8,4.5-22.1,3.5c-5.4-0.9-9.2-2.4-9.2-2.4
	l-0.2-0.1c0.3-0.6,0.5-1.4,0.5-2.4c0,0,3-0.6,2.8-3c5.301-0.1,28.7-1.2,32.601-10.5c2.3,4.3,2.5,8.2,2.5,8.2
	C440.7,181.1,438.3,183.3,435.8,184.9z"/>
<path fill="#FFFFFF" stroke="#000000" stroke-width="0.5" d="M427.2,159.7c7.1,2.1,10.899,6.4,13,10.3c-4,9.3-27.3,10.4-32.601,10.5
	c-0.1-0.8-0.5-1.9-1.6-3.1c0,0,1.2-1.9,1.3-3.5c1.9-0.3,19.9-3.2,19.9-13.3V159.7z"/>
<path fill="#FFFFFF" stroke="#000000" stroke-width="0.5" d="M427.2,160.6c0,10.1-18,13-19.9,13.3c0.101-1.2-0.399-2.4-2.5-2.6
	c14-3.2,10.2-9.9,8-12.6l0.7-0.1c5.6-0.4,10.1,0.1,13.7,1.2V160.6z"/>
<path fill="#FFFFFF" stroke="#000000" stroke-width="0.5" d="M373.5,485.6c0,0,1.3,12.2,11.3,15c0,0,4,2.2,7.5,1
	c1.5-0.5,1.5-1.699,1.3-2.8c-0.3-2.2,2.601-2.6,3.601-1.399l0,0c2.3,2.899,4.3,5.1,4.3,5.1l0,0l0,0c-1.8-0.5-3.3-0.4-3.9,0.4
	c-0.5,0.6-0.6,1.5-0.199,2.6l16.3,13.3c1.1,0.101,2-0.1,2.5-0.7c0.7-0.8,0.5-2.3-0.4-4l0.5-0.1l0,0c1.3,0.4,12,12.3,12,12.3
	c1,1.2-1.8,5-1.8,5c-6,3.3-24.2-2.8-24.2-2.8c-10.5-1.3-17.2-12.7-19-18.2s-6-3.5-6-3.5l-0.5,9.8c-1.2,2-4.5,1.7-4.2-0.199
	c0.301-1.801,0.7-9.801,0.7-9.801C362.9,495.6,369.5,488.6,373.5,485.6L373.5,485.6z"/>
<path fill="#FFFFFF" stroke="#000000" stroke-width="0.5" d="M413.7,188.4c6.399,1,15,1.1,22.1-3.5c7.3,2.8,14.7,24.8,14.7,24.8
	c-0.5-8,11-38.5,11-38.5c1.5-3,5.5-15,5.5-15c1-6-4.5-13.5-3.5-24.5c0-0.7,0-1.4,0.3-1.9c10.7-18.6,10-5.9,10-5.9
	c1.101-1.5,7.2-11,8.2-10.6c2.4,0.9,5.2-0.8,6.7,6.5h0.3c1.3,2.6,0.2,8.5-1.7,14.8c-3.1,10.3-8.3,21.8-8.3,21.8
	c0,18.4-5.6,38.4-12.2,52.7c-4.7,10.2-9.8,17.5-13.8,19.3c-4.9,2.3-15.9-7.7-25.5-18c-7.3-7.9-13.7-15.9-15.8-18.5
	c1.2-2,1.899-3.1,1.899-3.1L413.7,188.4z"/>
<path fill="#FFFFFF" stroke="#000000" stroke-width="0.5" d="M350,151.4l0.3-0.1c0.101,0.4,0.3,0.9,0.3,1.6c0,2.3,29,11.7,30.7,10.7
	c1.5-0.9,3-13.6,3.3-17.7h0.9c9.2,0.3,15.7,3,20,5.8c4.9,3.1,7,6.4,7,6.4c0.1,0.2,0.3,0.4,0.5,0.6c2.2,2.6,6,9.4-8,12.6
	c0,0-1-8.2-7.7-4c0,0-3.5-8.2-9-0.3c0,0-6-3-5.7,3.7c0,0-10.5,0.5-3.3,8.2c0,0-0.5,0.7-0.899,1.7c-21.5,6.6-55.9,6-55.9,6
	c-9.7-2.8-8.6-10.3-7.5-13.7c0.3-1,0.6-1.7,0.6-1.7C322,161.2,350,151.4,350,151.4z"/>
<path fill="#FFFFFF" stroke="#000000" stroke-width="0.5" d="M401.5,502.4c2.3,0.699,5.2,2.3,8.1,4.6c2.801,2.3,5,4.9,6.101,7
	c0.899,1.7,1.1,3.2,0.399,4c-0.5,0.6-1.3,0.8-2.5,0.7l-16.3-13.3c-0.399-1-0.3-2,0.2-2.601C398.2,502,399.7,501.9,401.5,502.4
	L401.5,502.4z"/>
<path fill="#FFFFFF" stroke="#000000" stroke-width="0.5" d="M379.4,185.6c-0.9-0.5-1.4-1.1-1.601-1.8c-0.3-1.1,0-2.4,0.5-3.4
	c0.4-1,0.9-1.7,0.9-1.7c-7.2-7.7,3.3-8.2,3.3-8.2c-0.3-6.7,5.7-3.7,5.7-3.7c5.5-7.8,9,0.3,9,0.3c6.7-4.2,7.7,4,7.7,4
	c2,0.3,2.6,1.4,2.5,2.6c-0.101,1.7-1.301,3.5-1.301,3.5c1,1.3,1.5,2.3,1.601,3.1c0.3,2.5-2.8,3-2.8,3c0,1-0.2,1.8-0.5,2.4
	c-1.101,2.1-3.601,1.8-3.601,1.8c0.9,4.9-2.8,4.3-4.3,3.9l0,0c-0.4-0.1-0.5-0.2-0.6-0.2h-0.2c-3,5-6.5-1.1-6.5-1.1
	c-8.5,3.8-7.8-4-7.8-4c-0.4,0-0.7-0.1-1-0.2c-0.101,0-0.101,0-0.2-0.1C379.8,185.9,379.6,185.8,379.4,185.6z M395.5,182.2
	c0,0,4.5,0.8,3.3-3.7c0,0,2.3-3.3-1.7-3.7c0,0,0.2-5.3-4.199-1.3c0,0-4.2-2.3-4.2,2c0,0-4.7,2.7,0,3.3c0,0-2.7,5,2,3
	C390.8,181.9,393.3,185.7,395.5,182.2z"/>
<path fill="#FFFFFF" stroke="#000000" stroke-width="0.5" d="M381.2,163.6c-1.7,1-30.7-8.3-30.7-10.7c0-0.7-0.1-1.2-0.3-1.6
	c-0.3-1-0.4-1.3,2.3-1.8c0,0,18.7,8.3,25.7,8.3c0,0,3-9.3,2.3-13c0,0,4-2.3,4,0c0,0.2,0,0.6,0,1C384.2,150,382.7,162.6,381.2,163.6z
	"/>
<path fill="#FFFFFF" stroke="#000000" stroke-width="0.5" d="M380.3,186c0.3,0.1,0.601,0.2,1,0.2c0,0-0.7,7.8,7.8,4
	c0,0,3.5,6.1,6.5,1.1h0.2c0,0,0.2,0.1,0.601,0.2l0,0c1.5,0.4,5.199,1,4.3-3.9c0,0,2.5,0.3,3.6-1.8l0.2,0.1c0,0,3.8,1.5,9.2,2.4v0.1
	c0,0-0.8,1.1-1.9,3.1c-2.1,3.6-5.7,9.8-9,16.9c-4.8,10.6-8.899,23.1-6.1,31.1c-12.4,18.1-37.4,1.5-37.7,1.3h-0.3
	c-0.601-13.4-13.5-29.2-13.5-29.2v-0.1c0.5-0.1,0.899-0.3,1.2-0.4c3.199-1.5,25.3-10.7,33.699-25l0.101-0.4
	C380.2,186,380.3,186,380.3,186z"/>
<path fill="#FFFFFF" stroke="#000000" stroke-width="0.5" d="M298.5,182.6c2.3-9.5,7-5.8,7-5.8s2.3,37.4,72.3,7.1
	c0.2,0.7,0.7,1.4,1.601,1.8v0.1C293.8,231.6,298.5,182.6,298.5,182.6z"/>
<path fill="#FFFFFF" stroke="#000000" stroke-width="0.5" d="M374.2,120.6c-2.2,0-4-2.1-4.3-4.8c0-0.2,0-0.5,0-0.8
	c0-3,1.899-5.5,4.3-5.5c0.7,0,1.3,0.2,1.899,0.6c1.4,0.9,2.4,2.8,2.4,4.9C378.5,118.1,376.5,120.6,374.2,120.6z"/>
<path fill="#FFFFFF" stroke="#000000" stroke-width="0.5" d="M373.4,485.5c1.1-0.8,1.899-1.4,2.199-1.6
	c1.5-1.2-1.699-27.5-1.699-27.5l-0.101-0.2c8.8-3.5,16.601-7,23.5-10l0.2,0.5c0,0-5.5,30.5-6.7,36.8c0,0.2-0.1,0.4-0.1,0.7
	c-0.2,3.7,3.3,9.2,6.3,13.1l0,0c-1-1.2-3.9-0.899-3.6,1.4c0.1,1.2,0.199,2.3-1.301,2.8c-3.5,1.2-7.5-1-7.5-1
	C374.8,497.7,373.5,485.6,373.4,485.5L373.4,485.5z"/>
<path fill="#FFFFFF" stroke="#000000" stroke-width="0.5" d="M378.2,157.9c-7,0-25.7-8.3-25.7-8.3c2.7-1.7-1.7-13-1.7-13l-0.3-0.5
	c7.8-4.8,18-13.9,18.3-19.5c-0.3,13.1,11.7,28.3,11.7,28.3C381.2,148.6,378.2,157.9,378.2,157.9z"/>
<path fill="#FFFFFF" stroke="#000000" stroke-width="0.5" d="M359,241.1c0.3,0.2,25.2,16.7,37.7-1.3c0,0,7.3,8,10.2,8l0.5,0.7
	c-3.4,2.6-21.7,17.1-20.5,25.3c0,0-9.301-18.3-30.301-23.5c1.7-2.7,2.301-5.9,2.2-9.2H359z"/>
<path fill="#FFFFFF" stroke="#000000" stroke-width="0.5" d="M326.7,215.4l-0.101-0.9h0.101c6.399-0.7,14.899-1.7,18.399-2.6v0.1
	c0,0,12.9,15.8,13.5,29.2c0.101,3.3-0.5,6.4-2.199,9.2c0,0-34-1.2-49.101,8.5c-0.2,0.1-0.3,0.3-0.399,0.5c0,0-6.4,3.9-13.9,8.7
	l-0.1-0.2l-6.1-3c5.6-3.6,11.4-8.3,16.6-14.3C303.5,250.4,324.6,228.8,326.7,215.4z"/>
<path fill="#FFFFFF" stroke="#000000" stroke-width="0.5" d="M352.5,49.7c-2.5,0-4.5-3.6-4.5-8c0-4.4,2-8,4.5-8s4.5,3.6,4.5,8
	C357,46.1,355,49.7,352.5,49.7z"/>
<path fill="#FFFFFF" stroke="#000000" stroke-width="0.5" d="M344.2,98.7c0-2.2,1.899-4,4.3-4s4.3,1.8,4.3,4c0,2.2-1.899,4-4.3,4
	S344.2,100.9,344.2,98.7z"/>
<path fill="#FFFFFF" stroke="#000000" stroke-width="0.5" d="M348.5,94.7c-2.4,0-4.3,1.8-4.3,4c0,2.2,1.899,4,4.3,4s4.3-1.8,4.3-4
	C352.8,96.5,350.8,94.7,348.5,94.7z M345.3,104c-2.5,0.2-6.8-2.5-6.8-2.5c0.2-0.6,0.3-1.2,0.5-1.8c2.7-8,8.9-7.5,13.4-5.9l0,0
	c3,1.1,5.199,2.7,5.199,2.7S352.2,103.6,345.3,104z"/>
<path fill="#FFFFFF" stroke="#000000" stroke-width="0.5" d="M339,99.8c-1-1.1-3.4-3.7-3.5-4.5c-0.3-2.1,5.9-5.6,8-6
	c2.8-0.6,8.6,4.2,9,4.5v0.1C347.9,92.2,341.7,91.7,339,99.8z"/>
<path fill="#FFFFFF" stroke="#000000" stroke-width="0.5" d="M340.2,130.6c0,0-14.5-1.9-12.7-3.7c4.1-4.3,9.4-2.3,9.4-2.3
	s4.3-6.5,11.699-4C348.5,120.6,342.6,130.6,340.2,130.6z"/>
<path fill="#FFFFFF" stroke="#000000" stroke-width="0.5" d="M333,50.7c-1.7,0-3-2.1-3-4.8c0-2.7,1.3-4.8,3-4.8s3,2.1,3,4.8
	C336,48.6,334.6,50.7,333,50.7z"/>
<path fill="#FFFFFF" stroke="#000000" stroke-width="0.5" d="M298.5,182.6c0,0-4.7,49,80.8,3.2v-0.1c0.2,0.1,0.5,0.2,0.8,0.3
	l-0.1,0.4c-8.3,14.3-30.5,23.5-33.7,25c-0.3,0.1-0.7,0.3-1.2,0.4c-3.5,0.9-12,2-18.399,2.6H326.6c-4.3,0.5-7.6,0.8-7.6,0.8
	c-7.3,0.5-13-0.1-17.4-1.5l0,0c-15.8-4.9-16.5-18.5-16.5-18.5c0-0.2-0.1-0.4-0.1-0.6C283,182.6,298.5,182.6,298.5,182.6z"/>
<path fill="#FFFFFF" stroke="#000000" stroke-width="0.5" d="M319.5,110.5c-2.4,0-4.3-1.7-4.3-3.8c0-2.1,1.899-3.8,4.3-3.8
	s4.3,1.7,4.3,3.8c0,1.1-0.5,2.1-1.399,2.7c-0.601,0.3-1.4,0.7-2.5,1C319.7,110.5,319.6,110.5,319.5,110.5z"/>
<path fill="#FFFFFF" stroke="#000000" stroke-width="0.5" d="M352.5,49.7c2.5,0,4.5-3.6,4.5-8c0-4.4-2-8-4.5-8s-4.5,3.6-4.5,8
	C348,46.1,350,49.7,352.5,49.7z M333,50.7c1.7,0,3-2.1,3-4.8c0-2.7-1.3-4.8-3-4.8s-3,2.1-3,4.8C330,48.6,331.3,50.7,333,50.7z
	 M305.3,42.8c3.4-5.3,7.9-11,14.2-16.5c0,0,15,23.5,29-4c0,0,14.7,3.9,23.4,16.6c3,4.4,5.3,9.8,6.1,16.4c0,0-47.5-11-82,13
	C296,68.2,296.5,56.7,305.3,42.8z M312.5,55.7c1.9,0,3.5-3.5,3.5-7.8c0-4.3-1.6-7.8-3.5-7.8s-3.5,3.5-3.5,7.8
	C309,52.2,310.5,55.7,312.5,55.7z"/>
<path fill="#FFFFFF" stroke="#000000" stroke-width="0.5" d="M310.8,108.3c0,0,3.2-8.6,9.3-8c6.601,0.6,5.601,3.1,4.9,5.6
	c-0.4,1.5-0.6,2.6-2.6,3.6c0.8-0.7,1.399-1.7,1.399-2.7c0-2.1-1.899-3.8-4.3-3.8s-4.3,1.7-4.3,3.8c0,2.1,1.899,3.8,4.3,3.8
	c0.1,0,0.3,0,0.4,0c-1,0.3-2.101,0.6-3.601,1c-7.899,1.9-7.7-0.1-6.8-1.7C310,109,310.8,108.3,310.8,108.3z"/>
<path fill="#FFFFFF" stroke="#000000" stroke-width="0.5" d="M305.5,176.7c1.3-6,9.3-4,9.3-4l0,0c-1.1,3.4-2.2,10.8,7.5,13.7
	c0,0,34.4,0.7,55.9-6c-0.4,1-0.8,2.3-0.5,3.4C307.8,214.2,305.5,176.7,305.5,176.7z"/>
<path fill="#FFFFFF" stroke="#000000" stroke-width="0.5" d="M312.5,55.7c-1.9,0-3.5-3.5-3.5-7.8c0-4.3,1.6-7.8,3.5-7.8
	s3.5,3.5,3.5,7.8C316,52.2,314.4,55.7,312.5,55.7z"/>
<path fill="#FFFFFF" stroke="#000000" stroke-width="0.5" d="M309.5,109.7c0.3-3.4-2.5-7.5-2.5-7.5s3.5-2,3.5-5s9.5,3.1,9.5,3.1
	c-6-0.6-9.3,8-9.3,8S310,109,309.5,109.7L309.5,109.7z"/>
<path fill="#FFFFFF" stroke="#000000" stroke-width="0.5" d="M339,99.8c-0.2,0.6-0.3,1.2-0.5,1.8c0,0,4.3,2.6,6.8,2.5
	c6.8-0.5,12.4-7.4,12.4-7.4s-2.3-1.6-5.2-2.7l0,0v-0.1c-0.3-0.3-6.2-5.1-9-4.5c-2.1,0.4-8.3,3.9-8,6C335.6,96,338,98.7,339,99.8z
	 M336.8,124.6c0,0-5.3-2-9.399,2.3c-1.801,1.9,12.699,3.7,12.699,3.7c2.5,0,8.301-10,8.301-10C341.1,118.1,336.8,124.6,336.8,124.6z
	 M310.5,97.2c0,3-3.5,5-3.5,5s2.8,4.1,2.5,7.5h0.1c-1,1.5-1.1,3.5,6.801,1.7c1.399-0.3,2.6-0.7,3.6-1c1-0.1,1.8-0.4,2.5-1
	c2-1,2.2-2.1,2.6-3.6c0.601-2.5,1.7-4.9-4.899-5.6C320,100.3,310.5,94.2,310.5,97.2z M319,126.2c-4.4-3.1-12.8-18.3-14.5-25.9
	c-0.2-0.7-0.3-1.3-0.5-1.9c-0.4-1.9-0.6-3.1-0.6-3.1c-1.2-18.8,13.6-16.7,15-16.5l0.1-0.2h0.1c6.2,1.2,13.2,0.7,13.2,0.7
	c34.601-3.1,36.4,12.3,36.4,12.3c-1.2,11.1,4.3,13.6,4.3,13.6s4.4-9,5-1c0.2,2.3-0.5,4.2-1.4,5.9c-0.6-0.4-1.199-0.6-1.899-0.6
	c-2.4,0-4.3,2.5-4.3,5.5c0,0.3,0,0.5,0,0.8c-0.7,0.4-1.101,0.5-1.101,0.5c0,0.1,0,0.1,0,0.2c-0.2,5.6-10.5,14.7-18.3,19.5
	c-2.5,1.6-4.8,2.7-6.4,3.1C334.5,141.7,325.2,130.5,319,126.2z"/>
<path fill="#FFFFFF" stroke="#000000" stroke-width="0.5" d="M246.1,205.6c2.3-14.6,9.5-32.9,24.9-55.9c0,0,26-12,20-47
	c0,0-25-9.5,0.5-34c0,0-5.7-18.9,13.8-26c-8.8,13.9-9.3,25.5-9.3,25.5c34.5-24,82-13,82-13c-0.8-6.6-3.1-12.1-6.1-16.4l0.699-0.5
	c1.9,1.1,23.2,14.4,19.4,36.9c0,0,12.5,19.5,6,30c0,0,20.5,13.5,9,46l-1.6,0.4c-4.301-2.8-10.801-5.5-20-5.8h-0.9c0-0.4,0-0.8,0-1
	c0-2.3-4,0-4,0s-12-15.3-11.7-28.3c0-0.1,0-0.1,0-0.2c0,0,0.4-0.2,1.101-0.5c0.3,2.7,2.1,4.8,4.3,4.8c2.399,0,4.3-2.5,4.3-5.5
	c0-2.2-1-4.1-2.4-4.9c1-1.6,1.601-3.6,1.4-5.9c-0.6-8-5,1-5,1s-5.5-2.5-4.3-13.6c0,0-1.9-15.4-36.4-12.3c0,0-7,0.6-13.2-0.7h-0.1
	l-0.1,0.2c-1.4-0.2-16.2-2.3-15,16.5c0,0,0.2,1.2,0.6,3.1c0.1,0.6,0.3,1.2,0.5,1.9c1.8,7.6,10.1,22.8,14.5,25.9
	c6.2,4.3,15.5,15.5,25.1,13c1.601-0.4,3.9-1.6,6.4-3.1l0.3,0.5c0,0,4.3,11.3,1.7,13c-2.6,0.5-2.5,0.8-2.3,1.8l-0.3,0.1
	c0,0-28,9.8-34.5,19.7c0,0-0.301,0.6-0.601,1.7l0,0c0,0-8-2-9.3,4c0,0-4.7-3.7-7,5.8c0,0-15.5,0-13.6,12c0,0.2,0.1,0.4,0.1,0.6
	c0,0,0.7,13.6,16.5,18.5v0.2c0,0-3.2,22-9,26c0,0-10.1,8.9-20.1,17.6C267.7,255.7,240.2,243.4,246.1,205.6z"/>
<path fill="#FFFFFF" stroke="#000000" stroke-width="0.5" d="M247.4,304.3c0.4,0.101,0.8-0.1,0.9-0.8c0.5-2.2,0.2-8,0.8-11.7
	c0.7-3.7,6.7-10.5,13.3-16.2c0,0,11.6-2.7,24.4-11l6.1,3l0.1,0.2c-10.3,6.6-22.7,14.8-23,16.601c0,0,10.5-0.2,19.4,0.5
	c-12.1,1.3-18.4,22.5-18.4,22.5C258.8,326.5,249.1,307.9,247.4,304.3z"/>
<path fill="#FFFFFF" stroke="#000000" stroke-width="0.5" d="M239.7,514.7c0,0-4.3,1.3-3.3-2.5s5.2-9.8,5.2-9.8l-0.3-0.2
	c7-8.7,32.6-71.601,32.6-71.601l0.2-0.3c0.1,0.101,0.2,0.2,0.4,0.2c7.9,5,13.8,2.7,15.1,10.9c0.6,3.8,2.1,7.899,3.9,11.5h-0.1
	L256.7,504.6c0,0-6,15.7-9.3,13.801C244,516.6,245.7,512.1,239.7,514.7z"/>
<path fill="#FFFFFF" stroke="#000000" stroke-width="0.5" d="M229.3,537.7c0.3,0.2,0.7,0.399,1.2,0.399s1-0.1,1.5-0.3
	s1.3-1,1.7-0.899c0.7-0.801,1.4-2,1.7-1.2c0.4-1.3,0.7-2.101,0.9-1.101c0.3-1.5,0.5-2,0.9-0.8c0-1.6,0.1-2.1,0.8-1.2
	c-0.3-1.399-0.1-1.699,1-0.899c-0.8-1.2-0.7-1.5,0.5-1.2c-0.9-0.8-0.7-1,0.8-1.1c-1.2-0.4-1-0.601,0.4-1.101
	c-1.1,0-0.6-0.399,0.8-1.2c-0.8,0.101-0.8-0.1-0.4-0.699c-0.1-0.2,0.4-0.7,0.9-1.4c-0.7,0.1,0-1,0.3-1.9
	c-0.3-0.199-0.2-0.899-0.3-1.5c-0.3-0.3-0.4-0.699-0.7-1c-0.4-0.199-0.8-0.3-1.2-0.399c-0.5,0.1-1,0.399-1.5,0.3
	c-0.6,0.5-1.2,1.3-1.7,0.9c-0.5,1.1-1,2.1-1.8,1.3c0,1.3-0.1,1.899-0.8,1c0.3,1.399,0.1,1.7-0.9,0.8c0.6,1.4,0.5,1.7-0.8,1.1
	c0.8,1.101,0.4,1.301-1,0.9c1.1,0.9,0.9,1.2-0.5,1.2c1.1,0.5,0.6,0.8-0.8,1.1c1.1,0.3,0.7,0.7-0.5,1.101c0.8,0.199,0.1,0.6-0.7,1.1
	c0.5,0.4-0.2,1.3-0.6,2.1c0.1,0.601-0.2,1.3-0.2,1.9c0,0.6,0.1,1,0.3,1.5C228.7,537.2,228.9,537.5,229.3,537.7z M232.5,550.4
	c-6.7,4.8-10.3,0-10.3,0c-9.1-16.801,8.6-38.101,15.8-45.7c0.1,0,0.7-0.4,2.5-1.8c0.2-0.2,0.4-0.4,0.7-0.7l0,0l0.3,0.2
	c0,0-4.2,6-5.2,9.8s3.3,2.5,3.3,2.5c6-2.7,4.3,1.8,7.7,3.7c3.3,1.8,9.3-13.801,9.3-13.801C252.7,540.2,239.2,545.6,232.5,550.4z"/>
<path fill="#FFFFFF" stroke="#000000" stroke-width="0.5" d="M222.3,338.4c-5.7,2.699-3.8-1-7.7-1.5c-3.8-0.5,10-24.5,10-24.5
	l0.5-0.101c3.3,4,9.6,9.2,20.7,16.2l-0.2,0.3c0,0-6,14.101-7.3,17.9c-0.1-1.8-1.6-5.3-2.7-2.8c-1.3,3.199-6.8,1.3-8.2,1.3
	S228,335.7,222.3,338.4z"/>
<path fill="#FFFFFF" stroke="#000000" stroke-width="0.5" d="M231.2,389.4c-2.7,0.8-4.8-4.7-5.3-4.301
	c-0.5,0.301,12.3-37.5,12.3-37.5c0.1-0.1,0.2-0.5,0.2-0.899c1.3-3.8,7.3-17.9,7.3-17.9l0.2-0.3c1.7,1.1,3.5,2.2,5.5,3.3
	c0,0-5.7,43.5,1.8,47s9.8,1.2,11.2,4.2c1.3,3-1.7,5.8,0.2,7.5c1.8,1.7,5.3,4.3,3.3,5.3s-4.3-1.3-4.3,1.2c0,2,2.3,8.4,2.2,12.2h-0.5
	c-2.2-3.2-4.8,0.8-7.5,0.3c-2.7-0.5-3.3-4-3.5-8c-0.2-4-5.5-0.5-7.3-0.5s-3.2-3-3.8-5.8c-0.7-2.8-5,1.2-7.3-0.5
	C233.3,392.9,233.8,388.6,231.2,389.4z"/>
<path fill="#FFFFFF" stroke="#000000" stroke-width="0.5" d="M229.3,537.7c-0.3-0.2-0.6-0.601-0.8-1c-0.2-0.4-0.3-0.9-0.3-1.5
	c0-0.601,0.3-1.3,0.2-1.9c0.4-0.8,1.1-1.7,0.6-2.1c0.8-0.5,1.4-1,0.7-1.101c1.1-0.5,1.5-0.8,0.5-1.1c1.4-0.3,1.9-0.6,0.8-1.1
	c1.4,0,1.6-0.301,0.5-1.2c1.4,0.399,1.8,0.2,1-0.9c1.2,0.601,1.3,0.2,0.8-1.1c1,0.899,1.2,0.5,0.9-0.8c0.7,0.899,0.8,0.3,0.8-1
	c0.7,0.8,1.2-0.2,1.8-1.301c0.5,0.4,1.1-0.399,1.7-0.899c0.4,0.1,1-0.2,1.5-0.3c0.4,0.1,0.8,0.199,1.2,0.399c0.3,0.3,0.5,0.7,0.7,1
	c0.1,0.5-0.1,1.3,0.3,1.5c-0.3,0.9-1,1.9-0.3,1.9c-0.6,0.7-1.1,1.2-0.9,1.4c-0.4,0.5-0.4,0.699,0.4,0.699
	c-1.4,0.801-1.9,1.101-0.8,1.2c-1.4,0.5-1.6,0.7-0.4,1.101c-1.5,0.1-1.7,0.3-0.8,1.1c-1.2-0.3-1.3,0-0.5,1.2
	c-1.1-0.8-1.3-0.601-1,0.899c-0.7-1-0.8-0.5-0.8,1.2c-0.4-1.2-0.6-0.7-0.9,0.8c-0.2-1-0.5-0.199-0.9,1.101c-0.3-0.8-1,0.399-1.7,1.2
	c-0.4-0.101-1.1,0.699-1.7,0.899c-0.5,0.101-1,0.3-1.5,0.3C230,538.1,229.6,538,229.3,537.7z"/>
<path fill="#FFFFFF" d="M232.9,287.1c-0.9,1.2-1.5,2.4-1.8,3.5c0,0-1.9,2.601-3.5,5.2c0,0-0.1,0.101-0.1,0.2l-0.2-0.1
	c-0.8,0.5-6.1,3.8-6.2,1.3C221,294.4,231.6,287.4,232.9,287.1z"/>
<path fill="none" stroke="#000000" stroke-width="0.5" d="M227.4,295.8c-0.8,0.5-6.1,3.8-6.2,1.3c-0.2-2.699,10.4-9.6,11.8-10
	c-0.9,1.2-1.5,2.4-1.8,3.5c0,0-1.9,2.601-3.5,5.2c0,0-0.1,0.101-0.1,0.2L227.4,295.8z"/>
<path fill="#FFFFFF" stroke="#000000" stroke-width="0.5" d="M229.8,300.1c0,0-2.3,1.7-3.8,0.7c-0.7-0.5,0.3-2.6,1.6-4.8
	c0,0,0.1-0.1,0.1-0.2c1.6-2.6,3.5-5.2,3.5-5.2c0.3-1.1,0.9-2.3,1.8-3.5c5.1-6.899,18.7-14.2,19.6-13.5c0.1,0.1,0.3-0.1,0.7-0.3
	c2.5-1.6,10.8-8.6,19.1-15.8c10-8.7,20.1-17.6,20.1-17.6c5.8-4,9-26,9-26v-0.2l0,0c4.5,1.4,10.2,2,17.4,1.5c0,0,3.3-0.3,7.6-0.8
	l0.1,0.9c-2.1,13.4-23.2,35-23.2,35c-5.2,6-11,10.7-16.6,14.3c-12.8,8.3-24.4,11-24.4,11c-6.7,5.7-12.7,12.5-13.3,16.2
	c-0.7,3.7-0.3,9.5-0.8,11.7c-0.1,0.6-0.5,0.8-0.9,0.8c-1-0.1-2.6-1.8-2.9-1.8c-0.5,0-0.7-8.3-0.7-8.3s0.7-3.2-2.7-4
	C237.8,289.4,229.8,300.1,229.8,300.1z"/>
<path fill="#FFFFFF" stroke="#000000" stroke-width="0.5" d="M222,306.7c-1.1-4.7,4-6,4-6c1.5,1,3.8-0.7,3.8-0.7s8-10.7,11.3-9.8
	c3.3,0.8,2.7,4,2.7,4s0.2,8.3,0.7,8.3c0.4,0,1.9,1.6,2.9,1.8c1.7,3.601,11.3,22.2,23.7,3.3c0,0,6.4-21.199,18.4-22.5
	c6.5,0.5,12.2,1.5,12.6,3.301c0.1,0.3,26.7,30.8,42.3,15.5c0,0,30.199-12.801,46.3,11.3c0,0,5.2,3.3,13.8-6.5c0,0,18.2-19.8,29-18.8
	c0,0,29.4-1.101,42.9-10.101l0.1,0.1c21.7,5.3,84.5,76.7,84.5,76.7s16,14,15.7,22.801c-0.3,8.8-14.7,10.8-17,13.3
	c-0.9,1-4.601,2.399-8.601,3.6c-6.1,1.8-13.1,3.3-12.899,2.4c0.3-1.5,8.7-10.5,10.2-13.7s-2.301-4.5-2.7-3.5c-0.3,1-16,7.8-16,6.3
	s4-1.2-7.7-1.2s-37.8,26.801-40.7,32.7c-2.8,5.8-18.3,17.7-28.5,25.8c-10.2,8.2-11,3.301-14,4.801s-2.3-1.801-12.8-9
	c-5.6-3.801-15.3-0.5-28.7,5.199c-6.899,2.9-14.8,6.5-23.5,10c-6.2,2.5-12.899,5-20.1,7.2c-36.7,11.5-49-1.5-52.5-1.5
	c-2.1,0-5.3-3.899-7.9-9c-1.8-3.5-3.3-7.7-3.9-11.5c-1.3-8.2-7.2-5.899-15.1-10.899c-0.1-0.101-0.2-0.2-0.4-0.2
	c-1-0.7-2.1-1.5-3.2-2.4c-0.4-0.399-0.8-0.7-1.2-1.1l-0.1-0.101c-8-8.1-4.4-15.5-4.4-15.5c0.4-0.5,0.5-1.3,0.5-2.199l0,0
	c0.1-3.801-2.2-10.101-2.2-12.2c0-2.501,2.3-0.2,4.3-1.2s-1.5-3.7-3.3-5.301c-1.8-1.699,1.2-4.5-0.2-7.5
	c-1.3-3-3.7-0.699-11.2-4.199s-1.8-47-1.8-47c-1.9-1.1-3.8-2.2-5.5-3.301C234.5,321.3,228.2,316,224.9,312
	C223.2,310,222.3,308.2,222,306.7z"/>
<path fill="#FFFFFF" stroke="#000000" stroke-width="0.5" d="M214.7,336.9c3.8,0.5,2,4.199,7.7,1.5c5.7-2.7,3.8,6.8,5.2,6.8
	s6.8,1.8,8.2-1.3c1.1-2.601,2.6,0.899,2.7,2.8c-0.2,0.7-0.3,1-0.2,0.899c0,0-12.8,37.801-12.3,37.5c0.5-0.3,2.7,5.2,5.3,4.301
	c2.7-0.801,2.2,3.5,4.5,5.199c2.3,1.7,6.7-2.3,7.3,0.5c0.7,2.801,2,5.801,3.8,5.801c1.8,0,7.2-3.5,7.3,0.5c0.2,4,0.8,7.5,3.5,8
	c2.7,0.5,5.3-3.5,7.5-0.301h0.5l0,0c0,0.9-0.2,1.601-0.5,2.2c0,0-3.6,7.4,4.4,15.5l-0.2,0.2c-15.3-1.5-20.1-9.9-21.7-15.7
	c-0.8-3.1-0.7-5.5-0.7-5.5c-43.8-12.7-22.8-30.2-22.8-30.2C188.4,364.9,208.5,345.4,208.5,345.4c-19-22.801,13.3-38.7,13.3-38.7h0.2
	c0.3,1.5,1.3,3.3,3.2,5.6l-0.5,0.101C224.7,312.4,210.8,336.4,214.7,336.9z"/>
<path fill="#FFFFFF" stroke="#000000" stroke-width="0.5" d="M178.7,302.3l-0.1-0.1l0.1-0.101"/>
<path fill="#5494D5" stroke="#000000" stroke-width="0.5" d="M0.3,288c-0.1-0.4-0.1-0.7,0-1.1V288z"/>
<path fill="none" stroke="#000000" d="M357,88.6c0,0-16-6.2-21.6,0"/>
<path fill="none" stroke="#000000" stroke-width="0.25" d="M325.6,102.8c0,0-0.199,15,2.9,15s4.5-0.8,7.6-2.6"/>
<path fill="none" stroke="#000000" d="M304,98.4c4.3-4.9,12.9-4.3,12.9-4.3"/>
<path fill="none" stroke="#000000" stroke-width="0.25" d="M343.5,323.9c0,0-21,41.3-85.2,4"/>
<path fill="none" stroke="#000000" stroke-width="0.25" d="M381.5,331.2c0,0-21,95-60,95"/>
<path fill="none" stroke="#000000" stroke-width="0.25" d="M411.5,322.2c0,0,8,94,32,102"/>
<path fill="none" stroke="#000000" stroke-width="0.25" d="M463.5,301.2c0,0,53,39,59,68"/>
<line fill="none" stroke="#000000" stroke-width="0.5" x1="489" y1="121.2" x2="482" y2="134.7"/>
<path fill="none" stroke="#000000" stroke-width="0.5" d="M470.5,129.7c0,0,1.2-2.6,2.6-4.9"/>
<path fill="none" stroke="#000000" stroke-width="0.5" d="M483.5,114.2c0,0-3,5-7.5,13.5"/>
<line fill="none" stroke="#000000" stroke-width="0.5" x1="487" y1="115.7" x2="478.5" y2="132.2"/>
</svg>
