<?xml version="1.0" encoding="utf-8"?>
<!-- Generator: Adobe Illustrator 15.0.0, SVG Export Plug-In . SVG Version: 6.00 Build 0)  -->
<!DOCTYPE svg PUBLIC "-//W3C//DTD SVG 1.1//EN" "http://www.w3.org/Graphics/SVG/1.1/DTD/svg11.dtd">
<svg version="1.1" id="layer_x5F_www.ABC-color.com"
	 xmlns="http://www.w3.org/2000/svg" xmlns:xlink="http://www.w3.org/1999/xlink" x="0px" y="0px" width="567px" height="822px"
	 viewBox="0 0 567 822" enable-background="new 0 0 567 822" xml:space="preserve">
<path fill="#FFFFFF" stroke="#000000" stroke-miterlimit="10" d="M261.9,372.7c0-5.3,3-9.5,6.7-9.5c3.7,0,6.7,4.3,6.7,9.5
	c0,2-0.4,3.8-1.1,5.3l-2.2,0.1c-2.2,0-4.101,1.5-5.3,3.7c-0.4-0.2-0.801-0.4-1.2-0.7c-0.101-0.1-0.3-0.2-0.4-0.3
	c-0.1-0.1-0.3-0.2-0.399-0.4c-0.2-0.2-0.5-0.5-0.7-0.8c-0.2-0.2-0.3-0.4-0.4-0.7c-0.1-0.2-0.2-0.3-0.3-0.5c-0.4-0.8-0.7-1.6-0.9-2.5
	c0-0.1-0.1-0.3-0.1-0.4c0-0.2-0.1-0.3-0.1-0.5s-0.101-0.4-0.101-0.7l0,0c0-0.2,0-0.3,0-0.5c0-0.1,0-0.3,0-0.4
	C261.9,373.1,261.9,372.9,261.9,372.7z"/>
<path fill="#FFFFFF" stroke="#000000" stroke-miterlimit="10" d="M261.9,399.3c0-5.3,3-9.5,6.7-9.5c3.7,0,6.7,4.3,6.7,9.5
	c0,5.2-3,9.5-6.7,9.5C264.9,408.8,261.9,404.5,261.9,399.3z"/>
<path fill="#FFFFFF" stroke="#000000" stroke-miterlimit="10" d="M295.7,422.6c0,4.802-3,8.802-6.7,8.802s-6.7-3.9-6.7-8.802
	c0-4.898,3-8.698,6.7-8.698S295.7,417.8,295.7,422.6z"/>
<path fill="#FFFFFF" stroke="#000000" stroke-miterlimit="10" d="M315.8,424.8c-3.7,0-6.7-4.3-6.7-9.5c0-5.3,3-9.5,6.7-9.5
	s6.7,4.3,6.7,9.5C322.5,420.6,319.5,424.8,315.8,424.8z"/>
<path fill="#FFFFFF" stroke="#000000" stroke-miterlimit="10" d="M320.199,388.3c-3.699,0-6.699-4.3-6.699-9.5
	c0-5.2,3-9.5,6.699-9.5c3.7,0,6.7,4.3,6.7,9.5C326.9,384,323.8,388.3,320.199,388.3z"/>
<path fill="#FFFFFF" stroke="#000000" stroke-miterlimit="10" d="M300.4,365.1c0,2.8-1,5.2-2.5,6.8v0.1
	c-1.601,0-3.101,0.6-4.399,1.6c-0.101,0.1-0.2,0.2-0.3,0.3c-3.4-0.4-6.102-4.1-6.102-8.7c0-4.8,3-8.8,6.7-8.8
	S300.4,360.3,300.4,365.1z"/>
<path fill="#FFFFFF" stroke="#000000" stroke-miterlimit="10" d="M296,384.7c4.398,0,8,4.1,8,9.1c0,5.101-3.602,9.101-8,9.101
	c-4.4,0-8-4.101-8-9.101S291.5,384.7,296,384.7z"/>
<path fill="#FFFFFF" stroke="#000000" stroke-miterlimit="10" d="M296,403c4.398,0,8-4.1,8-9.1c0-5.1-3.602-9.1-8-9.1
	c-4.4,0-8,4.1-8,9.1C288,398.9,291.5,403,296,403z M293.2,373.9c0.1-0.1,0.198-0.2,0.3-0.3c1.3-1,2.8-1.5,4.398-1.6c0,0,0,0,0.102,0
	c2.398,0,4.5,1.2,6,3.1c1.199,1.6,2,3.7,2,6c0,0.8-0.102,1.5-0.301,2.3l0,0c0.5-0.1,1-0.2,1.601-0.2c4.399,0,8,4.1,8,9.2
	c0,0.8-0.101,1.6-0.3,2.3c-0.9,3.899-4,6.8-7.7,6.8c0.399,1.1,0.601,2.3,0.601,3.5c0,4.1-2.301,7.6-5.601,8.7
	c-0.8,0.3-1.601,0.398-2.399,0.398c-3.399,0-6.199-2.398-7.399-5.8c-1.399,1.4-3.2,2.2-5.2,2.2c-2.699,0-5.2-1.6-6.6-4
	c-0.9-1.5-1.4-3.2-1.4-5.1c0-2.7,1-5.101,2.6-6.8l-0.1-0.1c-2.3-1.6-3.9-4.5-3.9-7.8c0-1,0.101-2,0.4-2.9c0.6-2,1.8-3.7,3.3-4.8
	c1.2-0.9,2.7-1.4,4.299-1.4c1.5,0,3,0.5,4.201,1.4C290.6,377,291.7,375.1,293.2,373.9z"/>
<path fill="#FFFFFF" stroke="#000000" stroke-miterlimit="10" d="M302.6,414.4c1.5,1.6,2.5,4.1,2.5,6.8c0,1.6-0.3,3.1-0.899,4.398
	c-1.2,2.602-3.3,4.302-5.7,4.302c0.3,1,0.5,2.198,0.5,3.398c0,4.8-3,8.7-6.7,8.7c-2.8,0-5.2-2.3-6.2-5.5
	c-1.199,1.3-2.7,2.1-4.398,2.1c-3.7,0-6.7-3.898-6.7-8.8c0-2.6,0.899-4.898,2.2-6.5l-0.101-0.1c-1.1-0.9-2.1-2.3-2.6-3.9
	c-0.4-1.1-0.601-2.3-0.601-3.6c0-4.2,3.601-8.3,6.7-9.2c1.4,2.4,3.9,4,6.601,4c2,0,3.8-0.8,5.198-2.2c1.201,3.4,4,5.8,7.4,5.8
	c0.801,0,1.6-0.198,2.398-0.398L302.6,414.4z M289,431.4c3.7,0,6.7-3.9,6.7-8.802c0-4.898-3-8.698-6.7-8.698s-6.7,3.898-6.7,8.698
	C282.3,427.4,285.3,431.4,289,431.4z"/>
<path fill="#FFFFFF" stroke="#000000" stroke-miterlimit="10" d="M309.199,415.3c0,5.3,3,9.5,6.7,9.5c3.699,0,6.699-4.3,6.699-9.5
	c0-5.3-3-9.5-6.699-9.5C312.1,405.8,309.199,410,309.199,415.3z M327.6,414.5c1.9,1.7,3.2,4.7,3.2,8.2c0,5.3-3,9.5-6.7,9.5
	c-1.3,0-2.5-0.5-3.5-1.4c-0.699,4.2-3.399,7.3-6.5,7.3c-3.699,0-6.699-4.3-6.699-9.5c0-0.8,0.101-1.6,0.199-2.398
	c-0.399,0.1-0.899,0.2-1.3,0.2c-0.5,0-1.101-0.102-1.601-0.302l-0.6-0.3c0.6-1.3,0.899-2.8,0.899-4.398c0-2.802-1-5.302-2.5-6.802
	l-0.2-0.6c3.2-1.2,5.601-4.6,5.601-8.7c0-1.2-0.2-2.399-0.601-3.5c3.7,0,6.8-2.899,7.7-6.8c1.699,1,3,2.9,3.699,5.3
	c0.5-0.6,1.101-1.1,1.7-1.5c0.101,0,0.199-0.1,0.3-0.1c0.7-0.4,1.601-0.601,2.399-0.601c3.7,0,6.7,4.301,6.7,9.5
	c0,2.801-0.899,5.301-2.2,7.101v-0.2H327.6z"/>
<path fill="#FFFFFF" stroke="#000000" stroke-miterlimit="10" d="M313.5,378.8c0,5.3,3,9.5,6.699,9.5c3.7,0,6.7-4.3,6.7-9.5
	c0-5.2-3-9.5-6.7-9.5C316.5,369.3,313.5,373.6,313.5,378.8z M312,368c-0.101-0.8-0.2-1.6-0.2-2.4c0-5.3,3-9.5,6.7-9.5
	c3.199,0,5.8,3.1,6.5,7.3c1-0.9,2.199-1.4,3.5-1.4c1.699,0,3.3,0.9,4.5,2.5c1.3,1.7,2.199,4.2,2.199,7c0,3.5-1.3,6.5-3.199,8.1
	l-0.101,0.1c1.399,1.8,2.199,4.3,2.199,7.1c0,5.3-3,9.5-6.699,9.5c-1.7,0-3.2-0.9-4.399-2.3c-0.5,1.8-1.301,3.3-2.4,4.3l0,0
	c-0.1,0-0.199,0.101-0.3,0.101c-0.601,0.399-1.2,0.899-1.7,1.5c-0.699-2.4-2-4.3-3.699-5.3c0.199-0.7,0.3-1.5,0.3-2.3
	c0-5.1-3.601-9.2-8-9.2c-0.5,0-1.101,0.1-1.601,0.2l0,0c0.2-0.7,0.301-1.5,0.301-2.3c0-2.3-0.801-4.4-2-6c2.899-0.4,5.3-3.4,5.8-7.2
	C310.199,368,311.6,367.9,312,368z"/>
<path fill="#FFFFFF" stroke="#000000" stroke-miterlimit="10" d="M297.9,372c1.5-1.6,2.5-4.1,2.5-6.8c0-4.8-3-8.8-6.699-8.8
	c-3.7,0-6.7,3.9-6.7,8.8c0,4.6,2.7,8.4,6.101,8.7c-1.5,1.3-2.601,3.1-3,5.2c-1.201-0.9-2.701-1.4-4.201-1.4
	c-1.6,0-3.1,0.5-4.299,1.4c-1.8-1.6-2.899-4.2-2.899-7.3c0-3.2,1.3-6,3.199-7.5l0.101-0.1c-0.601-0.7-1.101-1.5-1.4-2.4l0,0
	c-0.5-1.2-0.8-2.6-0.8-4.1c0-4.8,3-8.8,6.7-8.8c1.7,0,3.2,0.8,4.398,2.1c1-3.2,3.4-5.5,6.201-5.5c0.199,0,0.5,0,0.699,0.1
	c3.399,0.4,6,4.2,6,8.7c0,1.2-0.199,2.3-0.5,3.4c3.601,0,6.601,3.9,6.601,8.8c0,0.5,0,1-0.101,1.5c-0.5,3.8-2.8,6.8-5.8,7.2
	C302.5,373.3,300.3,372.1,297.9,372C297.9,372.1,297.9,372.1,297.9,372L297.9,372z"/>
<path fill="#FFFFFF" stroke="#000000" stroke-miterlimit="10" d="M265.7,384.1c-1.2-1.4-2.7-2.3-4.4-2.3c-2,0-3.7,1.2-5,3.1
	l-0.3-0.2c-0.5-1.3-1.5-2.5-1.5-4c0-2.8,0.899-5.3,2.2-7.1l-0.101-0.1c-1.899-1.7-3.2-4.7-3.2-8.1c0-4.1,1.801-7.6,4.4-8.9
	c0.7-0.4,1.5-0.6,2.3-0.6c1.3,0,2.5,0.5,3.5,1.4c0.7-4.2,3.3-7.3,6.5-7.3c3.7,0,6.7,4.3,6.7,9.5c0,0.8-0.1,1.6-0.2,2.4l0,0
	c0.4-0.1,0.9-0.2,1.3-0.2c0.601,0,2-0.2,2.601,0.1l0,0c0.399,0.9,0.8,1.8,1.399,2.4l-0.1,0.1c-1.9,1.5-3.2,4.3-3.2,7.5
	c0,3,1.2,5.7,2.9,7.3c-1.5,1.1-2.7,2.8-3.3,4.8l-0.4-0.2c-1-3.3-3.4-5.7-6.1-5.7l2.199-0.1c0.7-1.5,1.101-3.3,1.101-5.3
	c0-5.3-3-9.5-6.7-9.5c-3.7,0-6.7,4.3-6.7,9.5c0,0.2,0,0.5,0,0.7c0,0.1,0,0.3,0,0.4c0,0.2,0,0.3,0,0.5l0,0c0,0.2,0.101,0.4,0.101,0.7
	c0,0.2,0.1,0.3,0.1,0.5c0,0.1,0.1,0.3,0.1,0.4c0.2,0.9,0.5,1.8,0.9,2.5c0.1,0.2,0.2,0.3,0.3,0.5c0.101,0.2,0.3,0.5,0.4,0.7
	c0.2,0.3,0.399,0.6,0.7,0.8c0.1,0.1,0.199,0.3,0.399,0.4c0.101,0.1,0.3,0.2,0.4,0.3c0.399,0.3,0.8,0.6,1.2,0.7
	C266.2,382.5,265.9,383.2,265.7,384.1z"/>
<path fill="#FFFFFF" stroke="#000000" stroke-miterlimit="10" d="M261.9,399.3c0,5.3,3,9.5,6.7,9.5c3.7,0,6.7-4.3,6.7-9.5
	c0-5.2-3-9.5-6.7-9.5C264.9,389.8,261.9,394,261.9,399.3z M281.9,394.7l0.101,0.1c-1.601,1.7-2.601,4.101-2.601,6.8
	c0,1.9,0.5,3.7,1.4,5.101c-3,0.8-6.7,4.898-6.7,9.2c0,1.3,0.2,2.5,0.601,3.6c-1.2,1.5-2.7,2.4-4.4,2.4c-3.1,0-5.8-3.102-6.5-7.302
	c-1,0.9-2.2,1.4-3.5,1.4c-1.6,0-3.1-0.8-4.3-2.2c-1.5-1.8-2.4-4.399-2.4-7.3c0-3.5,1.3-6.5,3.2-8.1l0.1-0.101
	c-1.399-1.8-2.199-4.3-2.199-7.1c0-2.5,0.6-4.7,1.699-6.4c1.2-1.9,3-3.1,5-3.1c1.7,0,3.2,0.9,4.4,2.3c0.2-0.8,0.5-1.6,0.9-2.3
	c1.199-2.3,3.1-3.7,5.3-3.7c2.7,0,5.1,2.4,6.1,5.7l0.4,0.2c-0.3,0.9-0.4,1.9-0.4,2.9C278,390.2,279.5,393.1,281.9,394.7z"/>
<path fill="#FFFFFF" stroke="#000000" stroke-miterlimit="10" d="M244.5,352.3l12.7,2.4l0.699,1.7c-2.6,1.3-4.399,4.8-4.399,8.9
	c0,3.5,1.3,6.5,3.2,8.1l0.1,0.1c-1.4,1.8-2.2,4.3-2.2,7.1c0,1.5,1,2.7,1.5,4l0.3,0.2c-1.1,1.7-1.699,3.9-1.699,6.4
	c0,2.8,0.899,5.3,2.199,7.1l-0.1,0.101c-1.9,1.699-3.2,4.699-3.2,8.1c0,3,0.9,5.6,2.4,7.3l-1.3,1.2c-0.4,0-0.801,0.1-1.4,0.3
	c-6.9,2-13.8-3.899-13.8-3.899s11.399-8.4,6.899-7.9C242,404,232.7,399.6,232.7,399.6s19.6-8.899,11.199-9.399
	c-8.399-0.5-13.3-12.3-10.399-10.4c3,2,17.8-2,11.899-4C239.5,373.8,238,364,238,364s12.399,2.5,8.899-3
	C243.4,355.7,244.5,352.3,244.5,352.3z"/>
<path fill="#FFFFFF" stroke="#000000" stroke-miterlimit="10" d="M256.6,350.7c-0.3-2.7-0.399-5.9,0.4-6.5c1.6-1.3,7.3,4.8,8.6,3.2
	c1.2-1.4-1-10.6,0.101-12c1.6-2.1,10.399,5,10.399,5c0.5-5.4,7.3-9.3,8.7-9.3c1.5,0,3,18.3,3,14.3c0-3.9,4.5-13.2,8.8-14.2
	c3.601-0.8,3.7,12.6,3.9,14.2l-2.8,0.3c-0.2,0-0.5-0.1-0.7-0.1c-2.8,0-5.2,2.3-6.2,5.5c-1.2-1.3-2.7-2.1-4.399-2.1
	c-3.699,0-6.699,3.9-6.699,8.8c0,1.5,0.3,2.9,0.8,4.1c-0.601-0.3-2-0.1-2.601-0.1c-0.5,0-0.899,0.1-1.3,0.2l0,0
	c0.101-0.8,0.2-1.5,0.2-2.4c0-5.3-3-9.5-6.7-9.5c-3.1,0-5.8,3.1-6.5,7.3c-1-0.9-2.2-1.4-3.5-1.4c-0.8,0-1.6,0.2-2.3,0.6l-0.7-1.7
	C257.2,354.7,256.9,352.9,256.6,350.7z"/>
<path fill="#FFFFFF" stroke="#000000" stroke-miterlimit="10" d="M311.8,365.6c0,0.8,0.101,1.6,0.2,2.4c-0.4-0.1-1.9-0.1-2.301-0.1
	c0.101-0.5,0.101-1,0.101-1.5c0-4.8-3-8.7-6.601-8.8c0.301-1,0.5-2.2,0.5-3.4c0-4.5-2.6-8.3-5.999-8.7l2.8-0.3
	c0,0.3,0.1,0.2,0.199-0.5c0.5-4.4,7-10.9,9.801-10.9c2.8,0,0.8,19,3,15.3c0,0,10.5-10.4,12.5-9s-1.1,16.9-0.1,12.9
	c1-3.9,13.3-2.9,15.3-1.4c1.3,1-2.399,6.4-4.899,9.7c-1.101,1.5-2,2.6-2,2.6s0.101,0,0.2,0.1l-1.5,0.3c-1.2-1.5-2.801-2.5-4.5-2.5
	c-1.301,0-2.5,0.5-3.5,1.4c-0.7-4.2-3.301-7.3-6.5-7.3C314.8,356.1,311.8,360.4,311.8,365.6z"/>
<path fill="#FFFFFF" stroke="#000000" stroke-miterlimit="10" d="M335.1,446.3c-2.3-2.898-8.6-12.6-10.6-12l-0.4-2.1
	c3.7,0,6.7-4.3,6.7-9.5c0-3.5-1.3-6.5-3.2-8.2l-0.1-0.1c1.399-1.802,2.199-4.301,2.199-7.102c0-5.3-3-9.5-6.699-9.5
	c-0.801,0-1.7,0.2-2.4,0.601l0,0c1.101-1.101,1.9-2.601,2.4-4.3c1.199,1.5,2.699,2.3,4.399,2.3c3.699,0,6.699-4.3,6.699-9.5
	c0-2.8-0.899-5.3-2.199-7.1l0.101-0.1c1.899-1.7,3.199-4.7,3.199-8.1c0-2.8-0.8-5.3-2.199-7l1.5-0.3c1.1,0.5,7.199,3.2,7.899,5.3
	c0.199,0.7,0.199,1.7,0,2.8c-0.7,3.6-3,8.1-0.101,7.8c4.399-0.4,6-1.8,6.7-0.3c1.399,2.7-4.5,10.1-6.7,10.1
	c-2.899,0,15.2,7.399,12,8.6c-2.5,0.9-15.5,0-15.5,0s16.899,9.9,13,10.4c-11.101,1.5-11.7-2.3-12-1c-0.5,2,19.2,15.7,12.3,14.2
	c-6.899-1.5-11.699-2.2-11.699-2.2l5.399,10.399l-11.399-2C334.3,428.2,337.699,449.4,335.1,446.3z"/>
<path fill="#FFFFFF" stroke="#000000" stroke-miterlimit="10" d="M255.9,414c1.2,1.3,2.601,2.2,4.301,2.2c1.3,0,2.5-0.5,3.5-1.4
	c0.699,4.2,3.3,7.3,6.5,7.3c1.699,0,3.3-0.898,4.399-2.398c0.601,1.6,1.5,3,2.601,3.898l0.1,0.102c-1.4,1.6-2.2,3.898-2.2,6.5
	c0,4.8,3,8.8,6.7,8.8c1.7,0,3.2-0.8,4.4-2.1c1,3.198,3.398,5.5,6.199,5.5c3.699,0,6.699-3.9,6.699-8.7c0-1.2-0.199-2.3-0.5-3.4
	c2.4,0,4.5-1.8,5.7-4.3l0.601,0.3c0.5,0.2,1.101,0.3,1.601,0.3s0.899-0.1,1.3-0.198c-0.101,0.8-0.2,1.6-0.2,2.398
	c0,5.3,3,9.5,6.7,9.5c3.101,0,5.8-3.1,6.5-7.3c1,0.9,2.2,1.4,3.5,1.4l0.399,2.1c-0.5,0.1-0.699,0.9-0.601,2.4
	c0.5,7.898-2.6,19.698-5.399,17.8c-2.399-1.7-8-12.9-10.399-10.4c-2.2,2.3,1.2,18.5-2.2,15.5c-6.8-6-9.1-17-11.1-13.5
	s-5.7,13.5-7.7,12.5s2-17.5-3-14c-9.2,6.5-17.4,4.9-17.4,4.9s9.9-13.3,4.9-9.9c-4.9,3.4-13.3,0-13.3,0s8.899-10.398,3.8-9.398
	c-5.099,1-9.2,0.5-11.2-3c-1.8-3.2,7.5-12.102,3.9-12.102L255.9,414z"/>
<path fill="#FFFFFF" stroke="#000000" stroke-miterlimit="10" d="M372.199,343.6l-16.601,34.5l-13.3-5.9c0.2-1,0.3-2,0-2.8
	c-0.7-2.1-6.8-4.8-7.899-5.3c-0.101,0-0.2-0.1-0.2-0.1s0.899-1.1,2-2.6L352,368.7l16-28.5C369.4,341.4,370.8,342.5,372.199,343.6z"
	/>
<path fill="#FFFFFF" stroke="#000000" stroke-miterlimit="10" d="M354.6,247.1c-1.3,6.1,13.601,4,13.601,4l-6.8,38.1
	c0,0,0,28.6,6.8,51.1c-11.8-10-18.699-19.4-22.8-27.4c-0.5-1.5-1.301-3.1-2.301-4.9l0,0c-4.3-10.6-3.399-17.4-3.399-17.4
	C348.199,270.4,352.5,255,354.6,247.1L354.6,247.1z"/>
<path fill="#FFFFFF" stroke="#000000" stroke-miterlimit="10" d="M343.1,308.1c0.2,1.1,3.601,20.4-25.1,10.2
	c-29.602-10.5-41.8-6.5-41.8-6.5c0.899-1.1,1.699-2.3,2.5-3.7c1.899-3.3,3.5-7.4,4.1-12.5c2.3,0.7,30,8.3,55.399-24.7
	c0,0-2.601,17.8,1.5,19.7C339.699,290.6,338.8,297.5,343.1,308.1L343.1,308.1z"/>
<path fill="#FFFFFF" stroke="#000000" stroke-miterlimit="10" d="M345.3,313c7.399,20.2-21.2,14.9-27.399,11.2
	c-6.601-4-41.8-12.4-41.8-12.4s12.2-4,41.8,6.5c28.8,10.2,25.399-9,25.101-10.2C343.699,309.6,344.5,311.3,345.3,313z"/>
<path fill="#FFFFFF" stroke="#000000" stroke-miterlimit="10" d="M368.199,340.4l-16,28.5l-15.8-7.3c2.5-3.3,6.199-8.7,4.899-9.7
	c-2-1.5-14.3-2.5-15.3,1.4c-1,3.9,2.1-11.4,0.1-12.9s-12.5,9-12.5,9c-2.199,3.7-0.199-15.3-3-15.3c-2.8,0-9.3,6.4-9.8,10.9
	c-0.101,0.7-0.101,0.8-0.199,0.5c-0.201-1.6-0.301-15-3.899-14.2c-4.302,1-8.802,10.3-8.802,14.2c0,4-1.5-14.3-3-14.3
	c-1.5,0-8.299,3.9-8.698,9.3l-6.9-16.2c-0.5-1.5-0.8-3.5-0.9-5.9h0.9c0,0,3.5-2,6.9-6.5c0,0,35.199,8.5,41.8,12.4
	c6.1,3.7,34.8,9,27.399-11.2C349.4,320.9,356.4,330.4,368.199,340.4z"/>
<path fill="#FFFFFF" stroke="#000000" stroke-miterlimit="10" d="M282.8,295.5c-0.6,5.1-2.2,9.2-4.1,12.5
	c-0.801,1.4-1.601,2.6-2.5,3.7c-3.5,4.5-6.9,6.5-6.9,6.5h-0.9c-0.399-11.9,4.2-32.1,4.2-32.1s3.9,0,10.101-1.8
	C283.2,288.5,283.2,292.2,282.8,295.5z"/>
<path fill="#FFFFFF" stroke="#000000" stroke-miterlimit="10" d="M242.1,336.5c-3.1-4-5.6-8.4-5.8-12.3c-0.4-7.4-0.3-28.5-0.2-43.4
	c0.101-9,0.2-15.8,0.2-15.8c11.9,11.8,39.8,5.9,39.8,5.9l-3.6,15.3c0,0-4.601,20.2-4.2,32.1c0.1,2.4,0.4,4.4,0.9,5.9l6.899,16.2
	c0,0-8.8-7.1-10.399-5c-1.2,1.4,1.1,10.6-0.101,12c-1.3,1.6-7-4.5-8.6-3.2c-0.8,0.6-0.601,3.8-0.4,6.5
	C254.6,349.1,247.3,343.2,242.1,336.5z"/>
<path fill="#FFFFFF" stroke="#000000" stroke-miterlimit="10" d="M352.1,193.6c0,0,1.301,0.1,3.5,1c-14.899,8.5-13.1,29.8-13.1,29.8
	c-4.601-13.5-29.601-10.3-30.2-10.2l0,0c-3.5-2.4-6.2-3.6-6.2-3.6s16.101-10.4,31.7,0C337.9,210.7,342.4,193.6,352.1,193.6z"/>
<path id="ABC-color.com" fill="#FFFFFF" stroke="#000000" stroke-miterlimit="10" d="M367.9,204.3c11.101,13-6.5,31.8-12.101,36.8
	c0,0-0.399,2.1-1.3,6c-2,7.9-6.301,23.3-14.801,43.5c-4.101-1.9-1.5-19.7-1.5-19.7c-25.399,33-53.1,25.4-55.399,24.7
	c0.4-3.3,0.4-7-0.2-11.2c9.3-2.8,23.9-9.7,37.8-27.3c17-21.3,1.399-36.3-8.101-42.8c0.601-0.1,25.601-3.3,30.2,10.2
	c0,0-1.801-21.3,13.1-29.8C358.5,195.9,363,198.5,367.9,204.3z"/>
<path fill="#FFFFFF" stroke="#000000" stroke-miterlimit="10" d="M321.5,193c0,0-6.2-1.4-5.2,2c0.899,3.3,9.2,2.8,10.5,3
	c0.101-0.8,4.101-5-0.601-6.8C321.3,189.3,321.5,193,321.5,193z M329.1,200c-2.1-0.4-15.899,0.4-17.5-5c-1.6-5.7,7.2-4.1,7.2-4.1
	s1-5.4,9.3-2.3C336,191.6,329.3,198.7,329.1,200z"/>
<path fill="#FFFFFF" stroke="#000000" stroke-miterlimit="10" d="M326.199,191.2c4.7,1.8,0.7,6.1,0.601,6.8c-1.3-0.2-9.5,0.2-10.5-3
	c-1-3.4,5.2-2,5.2-2S321.3,189.3,326.199,191.2z"/>
<path fill="#FFFFFF" stroke="#000000" stroke-miterlimit="10" d="M323.4,164.8c4.101,9.4-5.7,23.5-5.7,23.5
	c-12.899,2.2-46.1-17.3-46.1-17.3c0.9-1.2,1.601-2.6,2.2-4c0.5,0.3,29.399,16.8,41.899,17.3c0,0,6-8.1,4-22
	C321.699,164.1,323.4,164.8,323.4,164.8z"/>
<path fill="#FFFFFF" stroke="#000000" stroke-miterlimit="10" d="M317.699,188.3c0,0,9.801-14.1,5.7-23.5
	c28.601,1.5,28.699,28.8,28.699,28.8c-9.699-0.1-14.3,17.1-14.3,17.1c-15.7-10.4-31.7,0-31.7,0c-1.999-11.3-38-36-38-36
	c1.4-1,2.5-2.2,3.5-3.6C271.6,171.1,304.8,190.5,317.699,188.3z M318.8,190.9c0,0-8.8-1.6-7.2,4.1c1.601,5.4,15.399,4.6,17.5,5
	c0.2-1.3,6.899-8.4-1-11.4C319.8,185.5,318.8,190.9,318.8,190.9z"/>
<path fill="#FFFFFF" stroke="#000000" stroke-miterlimit="10" d="M368.199,162.4C389.1,196,397,192.7,387.8,223.6
	s-19.601,27.6-19.601,27.6s-14.8,2-13.601-4h-0.1c1-3.9,1.3-6,1.3-6c5.601-5,23.2-23.8,12.101-36.8c-4.899-5.8-9.399-8.4-12.301-9.6
	c-2.199-0.9-3.5-1-3.5-1s-0.1-27.3-28.699-28.8c0,0-1.7-0.7-3.801-2.5l0,0C319.6,162.4,347.199,128.8,368.199,162.4z"/>
<path fill="#FFFFFF" stroke="#000000" stroke-miterlimit="10" d="M323.699,127.5l6.899-0.2c0,0-3.8,12.6-17.899,8.1l4.7-5.1
	C317.4,130.3,321.8,130.8,323.699,127.5z"/>
<path fill="#FFFFFF" stroke="#000000" stroke-miterlimit="10" d="M325.199,77.1l0.899,10.6c-4.8,2.6-4.399-8.1-4.399-8.1l0,0
	C323.699,78,325.199,77.1,325.199,77.1z"/>
<path fill="#FFFFFF" stroke="#000000" stroke-miterlimit="10" d="M318.8,82.4c1-1.1,2-2,3-2.8l0,0c0,0-0.5,10.7,4.399,8.1l0.2,2.7
	c-0.7,1.9-1.399,3.3-2,4.4C316.4,94.8,318.8,82.4,318.8,82.4L318.8,82.4z"/>
<path fill="#FFFFFF" stroke="#000000" stroke-miterlimit="10" d="M318.8,82.4c0,0-2.399,12.4,5.601,12.4c-2.399,4.4-4,3.4-4,3.4
	C310.9,93.6,314.4,87,318.8,82.4L318.8,82.4z"/>
<path fill="#FFFFFF" stroke="#000000" stroke-miterlimit="10" d="M266.8,156.5c1.3,0,2.3-3.1,2.3-6.9c0-3.8-1-6.9-2.3-6.9
	c-1.3,0-2.3,3.1-2.3,6.9C264.5,153.4,265.5,156.5,266.8,156.5z M266.4,160.9c-7.6-12.2-1.8-19.7-1.8-19.7s3.5-9.7,6,0.1l0,0
	C274.3,156.2,266.4,160.9,266.4,160.9z"/>
<path fill="#FFFFFF" stroke="#000000" stroke-miterlimit="10" d="M266.8,142.6c1.3,0,2.3,3.1,2.3,6.9s-1,6.9-2.3,6.9
	c-1.3,0-2.3-3.1-2.3-6.9C264.5,145.8,265.5,142.6,266.8,142.6z"/>
<path fill="#FFFFFF" stroke="#000000" stroke-miterlimit="10" d="M293.6,94.8c0,0,4.5,3,7,10.6C291,104.3,293.5,95.2,293.6,94.8
	L293.6,94.8z"/>
<path fill="#FFFFFF" stroke="#000000" stroke-miterlimit="10" d="M296.9,113.4c-12.399-4.4-6.601-16.3-6.601-16.3
	c1.8-1.5,3.101-2.2,3.3-2.3c-0.1,0.4-2.6,9.5,7,10.6c0.399,1.1,0.7,2.4,1,3.7C302.1,111,299.9,112.4,296.9,113.4z"/>
<path fill="#FFFFFF" stroke="#000000" stroke-miterlimit="10" d="M290.3,97.1c0,0-5.8,12,6.601,16.3c-5.601,1.9-14,2.6-14,2.6
	C281.3,106.5,286.6,100.2,290.3,97.1z"/>
<path fill="#FFFFFF" stroke="#000000" stroke-miterlimit="10" d="M312.6,147.6c0.301,7.6,4,12.2,7,14.8c2,13.9-4,22-4,22
	c-12.5-0.5-41.398-17-41.898-17.3c4.3-10.1,3.199-23.9,3.199-23.9c-1.1-1.1-3.8-1.6-6.399-1.9c-2.5-9.8-6-0.1-6-0.1
	c-5.9-4.9,0-13.3,0-13.3c0-2,12.399-3.9,12.399-3.9c1.5-3.5-7.899-8.4-7.899-8.4V101l32.601-43c6.899,1.5,22.699,9.7,22.699,9.7
	l0.8,9.4c0,0-1.5,1-3.399,2.6c-1,0.8-2,1.7-3,2.8c-4.399,4.6-7.899,11.2,1.7,15.8c0,0,1.601,0.9,4-3.4c0.601-1.1,1.3-2.6,2-4.4
	c18.8,16.8,8.899,39.9,8.899,39.9c-1.5,18.7-6.899,19.2-6.899,19.2C327,150,319.9,148.9,312.6,147.6z M296.9,113.4
	c3-1,5.199-2.4,4.8-4.3c-0.3-1.3-0.601-2.6-1-3.7c-2.601-7.6-6.999-10.6-6.999-10.6l0,0c-0.2,0.1-1.5,0.8-3.301,2.3
	c-3.699,3.1-9.101,9.3-7.399,18.9C282.9,116,291.3,115.4,296.9,113.4z M330.6,127.4l-6.899,0.2c-1.899,3.3-6.3,2.8-6.3,2.8l-4.7,5.1
	C326.9,140,330.6,127.4,330.6,127.4z"/>
<path fill="#FFFFFF" stroke="#000000" stroke-miterlimit="10" d="M496.699,83.4v3.7c-0.8,10.5-8.8,23.5-32,39.8
	c-23.199-16.3-31.199-29.3-32-39.8v-3.7c0.899-11,8.101-16.7,14.399-17.4c1-0.1,2-0.1,2.9-0.1c7.199,0,10.699,3.1,14.699,7.9
	c4-4.7,7.399-7.9,14.7-7.9c0.899,0,1.899,0,2.899,0.1C488.6,66.7,495.8,72.4,496.699,83.4z"/>
<path fill="#FFFFFF" stroke="#000000" stroke-miterlimit="10" d="M442.699,36.8v3.7c-0.8,10.5-8.8,23.5-32,39.8
	C387.5,64,379.5,51,378.699,40.5v-3.7c0.899-11,8.101-16.7,14.399-17.4c1-0.1,2-0.2,2.9-0.2c7.3,0,10.699,3.1,14.699,7.9
	c4-4.7,7.399-7.9,14.7-7.9c0.899,0,1.899,0.1,2.899,0.2C434.6,20,441.8,25.8,442.699,36.8z"/>
<path fill="#FFFFFF" stroke="#000000" stroke-miterlimit="10" d="M259.4,19.8c11.9,1.3,11.801,9.9,8.5,12.7
	C264.6,35.2,259.4,19.8,259.4,19.8z"/>
<path fill="#FFFFFF" stroke="#000000" stroke-miterlimit="10" d="M255.9,49.2c2.7,0,4.9,2.3,4.9,5.1c0,2.8-2.2,5.1-4.9,5.1
	c-2.699,0-4.899-2.3-4.899-5.1C251,51.5,253.2,49.2,255.9,49.2z"/>
<path id="www.ABC-color.com" fill="#FFFFFF" stroke="#000000" stroke-miterlimit="10" d="M254.8,14.7c4.8-5.1,26,11.1,26,11.1
	C262,45,269.2,72.3,269.2,72.3l-18.4,15.4l0.4-19.8v-0.3c0,0-18.601-15.8,2.899-26.3c0,0-1.5-7.8-1.6-15.1
	C252.4,21.4,252.8,16.7,254.8,14.7z M267.9,32.4c3.301-2.8,3.4-11.3-8.5-12.7C259.4,19.8,264.6,35.2,267.9,32.4z M260.8,54.3
	c0-2.8-2.2-5.1-4.9-5.1c-2.699,0-4.899,2.3-4.899,5.1c0,2.8,2.2,5.1,4.899,5.1C258.6,59.5,260.8,57.2,260.8,54.3z"/>
<path fill="#FFFFFF" stroke="#000000" stroke-miterlimit="10" d="M273.8,167.1c-0.6,1.4-1.3,2.8-2.2,4c-1,1.4-2.1,2.6-3.5,3.6
	c-32.1-17.8-44.899,6.9-44.899,6.9c-4,13.8-25.7,24.2-25.7,24.2c-6.9-6.9,8.7-30.3,8.7-30.3c5.1-53.3,13.699-53.3,13.699-53.3
	c5.4-7.8,10.7-20.6,16.2-23.9c1.601-0.9,14.7-24.6,15.2-30.4l-0.4,19.8l18.4-15.4c0,0-7.2-27.3,11.6-46.4
	c15.301-17.3,26.3,3.3,26.3,3.3c5.399-5,13.3,2,13.3,2c10.4-6.4,15.301,4.4,15.301,4.4C356,47,324.4,67.7,324.4,67.7
	S308.6,59.5,301.7,58l-32.6,43v14.6c0,0,9.4,4.9,7.9,8.4c0,0-12.4,2-12.4,3.9c0,0-5.899,8.4,0,13.3c0,0-5.8,7.6,1.8,19.7
	c0,0,7.9-4.7,4.101-19.6l0,0c2.6,0.2,5.3,0.7,6.399,1.9C277,143.1,278.1,157,273.8,167.1z"/>
<path fill="#FFFFFF" stroke="#000000" stroke-miterlimit="10" d="M312.3,214.3c9.601,6.5,25.101,21.4,8.101,42.8
	c-14,17.5-28.5,24.5-37.8,27.3c-6.2,1.8-10.1,1.8-10.1,1.8l3.6-15.3c0,0-28,5.9-39.8-5.9c0,0-0.1,6.7-0.2,15.8H236l-13.4-7.4
	c0,0-48.399-17.3-35.1-58.7c0,0,6.2-6.9,9.899-8.9c0,0,21.7-10.4,25.7-24.2c0,0,12.8-24.7,44.9-6.9c0,0,36,24.7,38,36
	C306.1,210.7,308.8,212,312.3,214.3L312.3,214.3z"/>
<path fill="#FFFFFF" stroke="#000000" stroke-miterlimit="10" d="M242.1,336.5c-9.7,3.4-24-17.6-24.399-18.2
	c1.5-8.8,2.5-17.1,2.5-24.2l2.5-20.7l13.399,7.4h0.101c-0.101,14.9-0.2,36,0.199,43.4C236.5,328.1,239,332.5,242.1,336.5z"/>
<path fill="#FFFFFF" stroke="#000000" stroke-miterlimit="10" d="M242.1,336.5l-35.9,29.3c3.8-13,8.6-31,11.5-47.6
	C218.1,318.9,232.4,339.9,242.1,336.5z"/>
<path fill="#FFFFFF" stroke="#000000" stroke-miterlimit="10" d="M217.7,318.3c-2.9,16.6-7.7,34.5-11.5,47.6
	c-3.2,11-5.801,18.5-5.801,18.5s-76.5,181-111.6,188.4c-1.7,0.4-3.2,0.5-4.6,0.4c-26.9-1.7,7.3-85,2.1-100
	c-5.4-15.8,60.8-78.9,60.8-78.9c-10.899,2-10.899-8.4-10.899-8.4c38.5-35,22.399-144.5,22.399-144.5
	c-22.1-58.7-10.8-55.6-3.899-60.5c6.899-4.9,4.6-33.4,4.6-33.4c-16.8-32.5,19.3-44.9,33.6-59.7c14.301-14.8,23-31.9,23-31.9
	c4.4-16.3,36.601-29.6,36.601-29.6c0.1,7.3,1.6,15.1,1.6,15.1C232.7,51.9,251.2,67.7,251.2,67.7V68c-0.5,5.8-13.601,29.5-15.2,30.4
	c-5.5,3.3-10.8,16.1-16.2,23.9c0,0-8.5,0-13.7,53.3c0,0-15.6,23.4-8.7,30.3c-3.699,2-9.899,8.9-9.899,8.9
	c-13.3,41.4,35.1,58.7,35.1,58.7l-2.5,20.7C220.2,301.1,219.2,309.5,217.7,318.3z"/>
<path fill="#FFFFFF" stroke="#000000" stroke-miterlimit="10" d="M425.1,779.7c-18.1-28.8,25.5-138.4-69.5-401.6l16.601-34.5
	c6.5,5.1,14.2,10.2,23.5,15.4c60.601,33.5,70.5,112.5,72.399,120.4c2,7.898,13.2,119,39.5,182.198c30.7,73.5,38.2,70.4,38.2,70.4
	s-45.601,57.2-102.8,55.9C434,787.6,428.5,785,425.1,779.7z"/>
<path fill="#FFFFFF" stroke="#000000" stroke-miterlimit="10" d="M84.2,573.1c1.399,0.102,2.899,0,4.6-0.398
	c35.1-7.4,111.6-188.4,111.6-188.4s2.5-7.5,5.801-18.5l35.899-29.3c5.3,6.8,12.5,12.6,14.601,14.2c0.199,2.2,0.6,4.1,0.6,4.1
	l-12.7-2.4c0,0-1.1,3.4,2.4,8.8c3.5,5.4-8.9,3-8.9,3s1.5,9.9,7.4,11.8c5.899,2-8.9,5.9-11.9,4c-3-2,2,9.9,10.4,10.4
	c8.399,0.5-11.2,9.4-11.2,9.4s9.3,4.4,13.7,3.9c4.399-0.5-6.9,7.898-6.9,7.898s6.9,5.9,13.8,3.9c0.601-0.2,1-0.3,1.4-0.3
	c3.7,0-5.6,8.898-3.9,12.1c2,3.5,6.101,4,11.2,3c5.101-1-3.8,9.4-3.8,9.4s8.4,3.398,13.3,0c4.9-3.5-4.899,9.898-4.899,9.898
	s8.199,1.5,17.399-4.898c5-3.5,1.101,13,3,14c2,1,5.699-9.102,7.699-12.5c2-3.5,4.301,7.5,11.1,13.5c3.4,3,0-13.2,2.2-15.5
	c2.4-2.5,7.9,8.7,10.4,10.398c2.899,2,5.899-9.898,5.399-17.8c-0.101-1.5,0.101-2.2,0.601-2.398c2-0.602,8.3,9.1,10.6,12
	c2.5,3.1-0.899-18.102-0.899-18.102l11.399,2l-5.399-10.398c0,0,4.801,0.698,11.7,2.198s-12.8-12.199-12.3-14.199
	c0.3-1.301,0.899,2.399,12,1c4-0.5-13-10.4-13-10.4s13,0.9,15.5,0c3.1-1.2-14.9-8.6-12-8.6c2.3,0,8.1-7.4,6.699-10.1
	c-0.8-1.5-2.3-0.1-6.699,0.3c-2.801,0.3-0.601-4.2,0.1-7.8l13.301,5.9c95,263.2,51.3,372.8,69.5,401.6
	c-13.399,15.5-98.7,15.4-98.7,15.4c-5.8,24.7-105.2,3.3-105.2,3.3s-9.399,1.9-12.1-10.7l-0.8,0.2c0,0-128,10.5-166.301-36.2
	c0,0-9.199-2,0-24.3c0,0-5.899-6.6-23-24.3C1.9,685.2,84.2,573.2,84.2,573.1L84.2,573.1z"/>
<g>
	<path d="M276.5,100c0.6-1.9,1.6-3.6,2.6-5.2c1.101-1.6,2.4-3.2,3.9-4.5c1.5-1.3,3.1-2.8,5.1-3.4s4.102-0.8,6.102-0.1v0.3
		c-1.801,1-3.5,1.7-5,2.5c-1.5,0.9-3.2,1.4-4.7,2.5c-1.5,1-2.9,2.3-4.2,3.6c-1.3,1.3-2.5,2.8-3.5,4.4L276.5,100z"/>
</g>
<g>
	<path d="M324.9,72.5c-0.399,0-1,0.1-1.5,0.2c-0.5,0.1-1,0.3-1.601,0.4c-1,0.4-2.101,0.8-3.101,1.4c-2,1.1-3.8,2.6-5.399,4.4
		c1.2-2,2.7-3.9,4.5-5.6c0.899-0.8,1.899-1.6,3-2.2c0.5-0.3,1.101-0.6,1.7-0.9c0.6-0.3,1.199-0.5,2-0.7L324.9,72.5z"/>
</g>
<g>
	<path d="M296,90c0.3,1-0.102,2.1-0.602,3s-1.198,1.7-1.898,2.5c-0.7,0.7-1.4,1.5-2.3,2c-0.9,0.6-1.802,1-2.802,1.3l-0.1-0.1
		c0.7-0.8,1.5-1.4,2.301-2c0.799-0.6,1.601-1.2,2.299-1.8c0.701-0.6,1.4-1.4,2-2.2C295.5,92,296,91,296,90L296,90z"/>
</g>
<g>
	<path d="M294.3,91.2c0.101,0.9,0,1.8-0.3,2.7c-0.102,0.4-0.3,0.9-0.602,1.3c-0.299,0.3-0.698,0.6-1.198,0.7l-0.101-0.1
		c0.101-0.5,0.299-0.9,0.5-1.2c0.199-0.4,0.5-0.7,0.699-1C293.7,92.8,294,92,294.3,91.2L294.3,91.2z"/>
</g>
<g>
	<path d="M292.2,92.2c0.1,0.9,0.1,1.8-0.101,2.8c-0.101,0.5-0.201,1-0.5,1.4c-0.301,0.4-0.701,0.7-1.201,0.8l-0.1-0.1
		c0.1-0.5,0.301-0.9,0.4-1.3c0.1-0.4,0.398-0.7,0.6-1.1C291.7,93.9,291.9,93.1,292.2,92.2L292.2,92.2z"/>
</g>
<g>
	<path d="M329.1,71.6c0.2,0.8,0,1.7-0.399,2.5c-0.399,0.8-0.899,1.5-1.399,2.1c-0.5,0.6-1.101,1.3-1.8,1.7
		c-0.7,0.5-1.4,0.9-2.301,1.1l-0.101-0.1c0.5-0.7,1.101-1.2,1.7-1.8c0.601-0.5,1.3-1,1.8-1.5c0.601-0.5,1.101-1.1,1.5-1.8
		C328.699,73.1,329.1,72.4,329.1,71.6L329.1,71.6z"/>
</g>
<g>
	<path d="M327.8,72.5c0.101,0.7,0,1.5-0.2,2.2c-0.101,0.4-0.199,0.8-0.399,1.1c-0.3,0.3-0.601,0.5-1,0.6l-0.101-0.1
		c0-0.4,0.2-0.8,0.301-1.1c0.1-0.3,0.399-0.5,0.5-0.8C327.199,73.9,327.5,73.2,327.8,72.5L327.8,72.5z"/>
</g>
<g>
	<path d="M326.1,73.3c0.101,0.7,0.101,1.5,0,2.3c-0.1,0.4-0.1,0.8-0.399,1.1c-0.3,0.3-0.601,0.6-1.101,0.7l-0.1-0.1
		c0.1-0.5,0.199-0.8,0.3-1.1c0.101-0.3,0.3-0.6,0.5-0.9C325.6,74.8,325.9,74.1,326.1,73.3L326.1,73.3z"/>
</g>
<g>
	<path d="M307.5,29.5c-2.602,2.5-5.2,4.8-7.9,7.2c-2.699,2.3-5.5,4.6-8.3,6.6c2.8-2.2,5.4-4.6,8-7c2.601-2.4,5.101-4.9,7.5-7.5
		L307.5,29.5z"/>
</g>
<g>
	<path d="M320.9,31.2c-0.2,1.4-0.7,2.6-1.399,3.7c-0.601,1.2-1.4,2.2-2.2,3.2c-1.7,2-3.601,3.7-5.7,5.1c2-1.6,3.899-3.4,5.301-5.4
		c0.699-1,1.399-2.1,1.899-3.3c0.5-1.1,0.899-2.4,1-3.5L320.9,31.2z"/>
</g>
<g>
	<path d="M336.199,35.4c0.5,1.1,0.2,2.2-0.3,3.1s-1.2,1.6-1.899,2.2c-1.5,1.2-3.2,2-4.9,2.7c1.7-0.8,3.301-1.8,4.601-3
		c0.7-0.6,1.2-1.3,1.601-2.1c0.3-0.8,0.399-1.7,0.101-2.3L336.199,35.4z"/>
</g>
<g>
	<polygon points="301.199,57.8 303.699,50.7 302.199,58.1 	"/>
</g>
<g>
	<path d="M269.3,101.4c-2.3,1.3-4.4,3-6.3,4.8c-1.9,1.8-3.7,3.8-5.3,6c-3.101,4.3-5.4,9.3-6.5,14.6c1-5.3,3.1-10.4,6.1-14.8
		c1.5-2.2,3.2-4.3,5.2-6.2c1.899-1.9,4-3.7,6.399-5.1L269.3,101.4z"/>
</g>
<g>
	<path d="M269.2,116c-1.801,0.6-3.5,1.2-5.2,2.1c-0.8,0.4-1.7,0.8-2.4,1.4c-0.399,0.3-0.7,0.6-1,0.9c-0.3,0.3-0.5,0.8-0.5,1.3
		c-0.1-0.5,0.101-1,0.4-1.3c0.3-0.4,0.6-0.7,1-1c0.7-0.6,1.5-1.1,2.3-1.6c1.6-1,3.3-1.8,5.1-2.6L269.2,116z"/>
</g>
<g>
	<path d="M205.7,175.4c2.199-5.8,4.6-11.5,7.3-17c1.399-2.8,2.8-5.5,4.5-8.1c0.8-1.3,1.7-2.6,2.8-3.7c0.5-0.6,1.1-1.1,1.7-1.6
		c0.6-0.4,1.3-0.8,2.1-0.8c-0.8,0-1.5,0.4-2.1,0.9c-0.601,0.5-1.101,1-1.7,1.6c-1,1.2-1.9,2.4-2.7,3.8c-1.6,2.6-3,5.4-4.3,8.2
		c-2.6,5.6-4.8,11.3-6.8,17.1L205.7,175.4z"/>
</g>
<g>
	<path d="M235.9,97.9c1.9-0.3,3.7-0.6,5.601-1.1c0.899-0.2,1.8-0.5,2.7-0.9c0.899-0.4,1.699-0.8,2.399-1.4c-0.6,0.7-1.5,1.2-2.3,1.7
		c-0.9,0.4-1.7,0.8-2.7,1.1c-1.8,0.7-3.6,1.2-5.5,1.6L235.9,97.9z"/>
</g>
<g>
	<path d="M219.7,121.8c2.3-0.8,4.5-1.7,6.699-2.7c2.2-1,4.301-2.2,6.301-3.5c-1.9,1.5-4,2.8-6.101,4c-2.1,1.2-4.3,2.2-6.6,3.2
		L219.7,121.8z"/>
</g>
<g>
	<path d="M159.1,147c0.4-0.2,0.9-0.6,1.4-0.9c0.5-0.3,0.899-0.7,1.399-1.1c0.9-0.8,1.7-1.6,2.601-2.4c1.7-1.6,3.3-3.4,4.899-5.1
		c3.2-3.5,6.2-7.1,9.101-10.8c-2.8,3.8-5.7,7.5-8.7,11.2c-1.5,1.8-3.1,3.6-4.7,5.3c-0.8,0.9-1.7,1.7-2.5,2.5
		c-0.399,0.4-0.899,0.8-1.399,1.2s-0.9,0.7-1.601,1.1L159.1,147z"/>
</g>
<g>
	<path d="M154.5,180.3c2.899-1.2,5.7-2.5,8.5-3.8c2.8-1.4,5.5-2.9,8.1-4.5c2.601-1.6,5.2-3.4,7.601-5.3c2.399-2,4.6-4.2,6.3-6.8
		c-1.601,2.7-3.8,5-6.101,7c-2.399,2-4.899,3.9-7.5,5.6c-2.6,1.7-5.3,3.3-8.1,4.7c-2.8,1.5-5.5,2.8-8.4,4.1L154.5,180.3z"/>
</g>
<g>
	<path d="M146.7,393.9c5.699-7.6,10.899-15.6,15.6-23.9c4.701-8.3,9.1-16.8,12.8-25.5c3.8-8.8,7-17.8,9.4-27
		c2.399-9.2,4-18.7,4.399-28.2c-0.3,9.5-1.8,19-4.199,28.3c-2.301,9.3-5.5,18.3-9.2,27.1c-3.7,8.8-7.9,17.4-12.601,25.7
		c-4.699,8.3-9.8,16.4-15.5,24.1L146.7,393.9z"/>
</g>
<g>
	<path d="M86.5,475.2c5.5-4.3,11-8.8,16.3-13.3c5.4-4.5,10.7-9.102,15.8-13.9c5.2-4.7,10.3-9.6,15.101-14.7
		c4.8-5.1,9.5-10.398,13.3-16.3c-3.7,6-8.4,11.3-13.101,16.5c-4.8,5.1-9.8,10.1-14.899,14.9c-5.101,4.8-10.4,9.5-15.7,14.1
		c-5.3,4.6-10.7,9.1-16.2,13.5L86.5,475.2z"/>
</g>
<g>
	<path d="M301.699,172.7c1.101,0.1,2.199,0.3,3.301,0.6c1.1,0.3,2.1,0.6,3.199,1.4c0.101,0.1,0.301,0.2,0.399,0.4
		c0.101,0.1,0.101,0.3,0.101,0.3l0,0c0,0,0,0,0-0.1l-0.101-0.1c0,0-0.199-0.1-0.3-0.1s-0.2,0.1-0.3,0.1c-0.101,0-0.2,0.2-0.101,0.2
		c0,0,0-0.2,0.101-0.3l0.1-0.4c0.101-0.5,0.301-1.1,0.4-1.6c0.399-1,0.8-2.2,1.8-2.8c-0.601,0.9-0.8,2-1,3
		c-0.101,0.5-0.2,1.1-0.3,1.6l-0.101,0.4c0,0.2,0,0.2-0.101,0.5c0,0-0.101,0.2-0.2,0.2c0,0-0.199,0.1-0.3,0.1s-0.3-0.1-0.3-0.1
		c-0.101,0-0.101-0.1-0.101-0.1c-0.101-0.1-0.101-0.1-0.101-0.2v-0.1c0-0.1,0-0.1,0-0.1s-0.101-0.1-0.2-0.2
		c-0.3-0.3-0.8-0.5-1.3-0.7c-0.5-0.2-1-0.4-1.5-0.7C303.699,173.6,302.699,173.2,301.699,172.7z"/>
</g>
<g>
	<path d="M323.3,252.7c1.899,0.2,3.899,0,5.899-0.4c1.899-0.5,3.8-1.2,5.5-2.3c3.399-2.1,6.101-5.3,7.899-8.9
		c-1.699,3.7-4.199,7.1-7.601,9.4c-1.699,1.1-3.6,2-5.6,2.6c-2,0.5-4,0.8-6.2,0.7L323.3,252.7z"/>
</g>
<g>
	<path d="M356.199,241.5c-0.601,0.5-1.3,0.7-2,0.7c-0.699,0-1.399-0.4-1.8-0.9c-1-0.9-1.5-2.1-2-3.2c0.601,1.1,1.3,2.1,2.3,2.8
		c0.5,0.3,1,0.5,1.5,0.5s1-0.3,1.301-0.7L356.199,241.5z"/>
</g>
<g>
	<path d="M312.6,148.1c-0.899,0-1.5-0.2-2.3-0.4c-0.7-0.2-1.399-0.4-2.101-0.6c-1.399-0.4-2.801-0.9-4.1-1.4
		c-2.701-1-5.4-2-8.101-3.2c2.699,1,5.5,1.9,8.199,2.7c1.399,0.4,2.801,0.8,4.2,1.1c0.699,0.2,1.399,0.3,2.101,0.4
		c0.699,0.1,1.5,0.2,2,0.2L312.6,148.1z"/>
</g>
<g>
	<path d="M208.6,787.7c-0.7-3.2-0.8-6.602-0.7-9.9c0.101-3.3,0.5-6.6,1-9.8c1-6.5,2.601-12.8,4.4-19.1
		c1.8-6.302,3.9-12.5,6.1-18.602c2.301-6.1,4.5-12.2,6.4-18.5c3.9-12.398,7.1-25.1,10-37.8c2.9-12.7,5.3-25.5,7.6-38.4
		c4.5-25.698,8-51.6,10.9-77.5c1.5-13,2.8-26,3.9-39c0.6-6.5,1.1-13,1.6-19.5c0.4-6.5,0.9-13,1.1-19.6c-0.1,6.5-0.6,13-1,19.6
		c-0.399,6.5-0.899,13-1.5,19.5c-1.1,13-2.399,26-3.8,39c-2.8,26-6.3,51.9-10.7,77.602c-2.199,12.898-4.699,25.7-7.5,38.5
		c-2.8,12.8-6,25.398-9.899,37.898c-1.9,6.2-4.101,12.4-6.4,18.5c-2.2,6.102-4.3,12.302-6.1,18.602s-3.3,12.6-4.3,19
		c-0.5,3.2-0.801,6.398-0.9,9.7c-0.1,3.198,0,6.5,0.7,9.6L208.6,787.7z"/>
</g>
<g>
	<path d="M43.1,723.6c2.7-5.699,5.6-11.3,8.6-16.899c3-5.602,6-11.102,9.1-16.7c6.1-11.1,12.3-22.1,18.5-33.1l18.6-33
		c6.2-11,12.4-22.102,18.2-33.302c11.4-22.6,23-45.1,34.8-67.398c5.9-11.2,11.9-22.3,18-33.4c3.101-5.5,6.2-11,9.301-16.5
		c1.6-2.7,3.199-5.398,4.899-8.1c0.8-1.3,1.7-2.7,2.601-3.9c0.5-0.6,0.899-1.3,1.399-1.898c0.5-0.602,1-1.2,1.7-1.602
		c-0.7,0.4-1.2,1-1.7,1.602c-0.5,0.6-1,1.3-1.399,1.898c-0.9,1.3-1.801,2.602-2.601,4c-1.7,2.7-3.3,5.4-4.899,8.102
		c-3.2,5.5-6.301,11-9.301,16.5c-6.1,11.1-12,22.3-17.899,33.5c-11.7,22.398-23.2,44.898-34.5,67.5
		c-5.8,11.3-11.9,22.3-18.101,33.398l-18.4,33c-6.2,11-12.4,22.102-18.4,33.2c-3,5.5-6,11.1-9,16.7
		c-2.899,5.6-5.899,11.2-8.5,16.898L43.1,723.6z"/>
</g>
<g>
	<path d="M325.9,794.9c2.5-12.9,4.601-25.9,6.5-39c1.899-13,3.601-26.102,5-39.2c2.899-26.2,5-52.5,6.3-78.8
		c1.3-26.302,1.7-52.7,1-79c-0.601-26.302-2.3-52.7-5.2-78.9c3,26.2,4.7,52.5,5.4,78.9c0.699,26.398,0.399,52.698-0.801,79.1
		c-1.199,26.3-3.199,52.6-6.101,78.9C336.6,730,334.9,743.1,333.1,756.1c-1.899,13.102-3.899,26.102-6.399,39L325.9,794.9z"/>
</g>
<g>
	<path d="M276,270.4c1-0.3,2.1-0.6,3-1.1c1-0.5,1.899-1,2.5-2c-0.4,1-1.3,1.8-2.2,2.4c-0.9,0.6-1.9,1.2-3,1.6L276,270.4z"/>
</g>
<g>
	<path d="M236,265.4c-0.9-0.8-1.8-1.6-2.5-2.6c-0.7-0.9-1.3-2-1.601-3.1c0.5,1.1,1.2,2,2,2.8c0.801,0.8,1.7,1.5,2.7,2.1L236,265.4z"
		/>
</g>
<g>
	<path d="M219.9,214.3c0,3.7,0.4,7.5,1.2,11.1c0.7,3.6,1.8,7.2,3.3,10.6s3.5,6.5,6,9.3c2.5,2.7,5.5,5,8.801,6.6
		c3.3,1.6,6.899,2.6,10.5,3.1c3.699,0.5,7.399,0.5,11.1,0.2c3.7-0.3,7.4-0.9,11-1.7c3.6-0.8,7.2-1.8,10.8-3
		c-7,2.7-14.3,4.7-21.7,5.5c-7.399,0.8-15.3,0.1-22.1-3.2c-3.4-1.7-6.5-4-9-6.8s-4.5-6.1-6-9.6C220.8,229.4,219.5,221.8,219.9,214.3
		z"/>
</g>
<g>
	<path d="M311.1,97.1c0.801,1.1,1.601,2.3,2.5,3.4c0.801,1.1,1.7,2.2,2.5,3.3c1.801,2.1,3.601,4.3,5.7,5.9
		c0.5,0.4,1.101,0.8,1.7,1.1c0.3,0.1,0.6,0.2,1,0.4c0.3,0.2,0.699,0.4,1,0.8c0.6,0.6,0.699,1.5,0.6,2.3c-0.1,0.8-0.3,1.5-0.699,2.1
		c-0.7,1.3-1.7,2.4-2.899,3.2c-0.601,0.4-1.301,0.7-2,0.8c-0.7,0.1-1.5,0-2-0.5c0.6,0.4,1.3,0.4,2,0.2c0.6-0.2,1.199-0.5,1.8-0.9
		c1.101-0.8,1.899-1.9,2.5-3.1c0.5-1.2,0.8-2.6,0-3.5c-0.2-0.2-0.399-0.4-0.7-0.5c-0.199-0.1-0.6-0.2-0.899-0.4
		c-0.699-0.3-1.3-0.7-1.899-1.2c-2.2-1.8-4-4-5.7-6.2C313.9,102,312.4,99.6,311.1,97.1z"/>
</g>
<g>
	<path d="M316.3,134.7c2.101-0.7,4.2-1.3,6.101-2.1c2-0.8,3.899-1.8,5.699-3c-1.3,1.8-3.3,3.1-5.3,4c-1,0.4-2.101,0.7-3.2,1
		C318.5,134.6,317.4,134.8,316.3,134.7z"/>
</g>
</svg>
