<?xml version="1.0" encoding="utf-8"?>
<!-- Generator: Adobe Illustrator 15.0.0, SVG Export Plug-In . SVG Version: 6.00 Build 0)  -->
<!DOCTYPE svg PUBLIC "-//W3C//DTD SVG 1.1//EN" "http://www.w3.org/Graphics/SVG/1.1/DTD/svg11.dtd">
<svg version="1.1" id="layer_x5F_www.ABC-color.com"
	 xmlns="http://www.w3.org/2000/svg" xmlns:xlink="http://www.w3.org/1999/xlink" x="0px" y="0px" width="567px" height="822px"
	 viewBox="0 0 567 822" enable-background="new 0 0 567 822" xml:space="preserve">
<polyline fill="none" stroke="#000000" points="17,794.6 18.4,802.6 20.2,794.7 22,802.6 23.5,794.6 "/>
<polyline fill="none" stroke="#000000" points="24.8,794.7 26.1,802.5 27.9,794.6 29.4,802.5 31.2,794.6 "/>
<polyline fill="none" stroke="#000000" points="32.5,794.6 33.7,802.3 35.5,794.6 37.1,802.3 38.6,794.6 "/>
<line fill="none" stroke="#000000" x1="52" y1="791.3" x2="52" y2="802.9"/>
<line fill="none" stroke="#000000" x1="62.7" y1="798.7" x2="64.6" y2="798.7"/>
<polyline fill="none" stroke="#000000" points="78,791.2 78,802.9 80.8,802.9 "/>
<path fill="none" stroke="#000000" d="M70,801.5c-0.3,0.8-0.9,1.3-1.4,1.3c-1.1,0-1.9-1.8-1.9-4s0.9-4,1.9-4c0.7,0,1.2,0.7,1.6,1.7"
	/>
<path fill="none" stroke="#000000" d="M73.1,803c-0.9,0-1.7-1.9-1.7-3.8c0-2.2,0.9-4,1.9-4s1.9,1.8,1.9,4s-0.6,3.7-1.4,3.7"/>
<path fill="none" stroke="#000000" d="M61,801.3c-0.4,0.8-0.9,1.3-1.4,1.3c-1.1,0-1.9-1.8-1.9-4c0-2.198,0.9-4,1.9-4
	c0.7,0,1.2,0.7,1.6,1.7"/>
<path fill="none" stroke="#000000" d="M52,796.5c0.3-0.6,1.3-0.6,1.8-0.6c0.7,0,1.7,1,1.7,3.3c0,1.3,0,2.3-0.9,2.898
	c-0.2,0.2-0.8,0.4-1.1,0.4"/>
<path fill="none" stroke="#000000" stroke-width="1.0581" d="M45.7,795.2c0,0,3.6-3.2,3.3,2.398c0,0-0.1,3.5,0.1,4.4
	c0.1,0.4,0.9,0.4,0.9,0.4"/>
<path fill="none" stroke="#000000" d="M41.6,802.6c0.7,0,0.7-1.1,0-1.1C40.9,801.5,40.9,802.6,41.6,802.6L41.6,802.6z"/>
<path fill="none" stroke="#000000" d="M82.8,803.1c-0.8,0-1.2-2.198-1.2-4c0-2.198,0.9-4,1.9-4s1.9,1.802,1.9,4c0,2.2-0.9,4-1.9,4"
	/>
<line fill="none" stroke="#000000" x1="87.4" y1="794.5" x2="87.3" y2="803.4"/>
<path fill="none" stroke="#000000" d="M90.8,795.8c0,0-2.2-2.3-3.4,1.4"/>
<line fill="none" stroke="#000000" x1="108.5" y1="795" x2="108.5" y2="803.4"/>
<path fill="none" stroke="#000000" d="M112.2,803.4v-6c0,0-1.5-3.9-3.7,0"/>
<path fill="none" stroke="#000000" d="M115.7,803.4V797.3c0,0-1-3.6-3.5-0.2"/>
<path fill="none" stroke="#000000" d="M99.9,801.6c-0.3,0.802-0.9,1.302-1.4,1.302c-1.1,0-1.9-1.802-1.9-4c0-2.2,0.9-4,1.9-4
	c0.7,0,1.2,0.698,1.6,1.698"/>
<path fill="none" stroke="#000000" d="M103.5,802.8c-1.1-0.5-2.2-7.7,0.9-7.898c1.1-0.102,1.9,1.8,1.9,4c0,2.198-0.9,4-1.9,4"/>
<path fill="none" stroke="#000000" d="M93,803.3c0.7,0,0.7-1.1,0-1.1S92.3,803.3,93,803.3L93,803.3z"/>
<path fill="none" stroke="#000000" d="M49,799.1c-0.3-0.6-0.6-1.398-1.7-1.398c-0.7,0-1.6,0.1-1.6,2.398c0,1.302,0.5,1.802,0.9,2
	c0.2,0.102,0.8,0.4,1.1,0.4"/>
<path fill="#FFFFFF" stroke="#000000" stroke-miterlimit="10" d="M125.2,220.3l5.4,9.3l-1,1.2c-1.4,0-3.3,0.7-5.5,2.7
	c0,0-4.3,2.6-5.6,6.1l-1.8-0.7C119.1,232.5,122,226.2,125.2,220.3z"/>
<path fill="#FFFFFF" stroke="#000000" stroke-miterlimit="10" d="M567.7,716.8v102H567.6v4.5H0.6V714.5c0,0,12.9,9.8,19.7,6
	c6.8-3.8,39.5-19,66.7-5c-0.2,3.9-0.4,7.9-0.6,11.9c-0.2,5.398-0.4,10.8-0.5,16.198c0,0,22.6,38.102,66.3,30.302
	c0,0,0.1-0.802,0.2-2.302c3.6,1.102,58.7,17.5,76.3,6.9c0.7-0.5,1.4-1.3,2.1-2.4h0.1c0,0,67,7.802,83.8-7c0,0,0.1-1.398,0.2-3.898
	h0.5c0,0,67,10.1,79.398-11.7c22.602,14.5,62.2-21,78.9-37.7c24.398-2.6,82.5-7.8,91.398,0.4c0.102,0.1,0.2,0.2,0.302,0.3l0.1,0.1
	h2.2L567.7,716.8L567.7,716.8z"/>
<path fill="#FFFFFF" stroke="#000000" stroke-miterlimit="10" d="M566.6,656.4l1,60.398h-2.3l-0.1-0.1c-0.102-0.101-0.2-0.2-0.3-0.3
	c-8.802-8.2-67-3-91.4-0.4c4.9-4.9,7.8-8.1,7.8-8.1c-0.1-7.301-0.6-14.9-1.3-22.801l0,0c-0.5-4.899-1-10-1.7-15.101
	c-0.898-6.7-1.898-13.6-3.2-20.6c1.302,0,2.602,0,4,0.1c41.802,0.7,73.802,0.9,73.802,0.9h0.8c0.2,3.6,0.6,7.1,1.5,7.6
	C559.1,660.2,566.6,654.8,566.6,656.4z"/>
<path fill="#FFFFFF" stroke="#000000" stroke-miterlimit="10" d="M567.7,369.2l-0.2-0.1h0.1l-31.8-7.5l-0.3-0.1
	c0.5-1.9,0.8-3.9,1-5.8l0,0c0.1-0.6,0.1-1.3,0.1-1.9c0-0.4,0-0.7,0-1.1c0-0.8,0-1.5,0-2.3c-0.3-13.2-6.1-24.4-6.1-24.4
	c-7.2-3.9-11.4,2.2-13.5,6.8c0,0.1,0,0.1-0.1,0.2l0,0c-1.5-10.6,0.8-30.3,0.8-30.3s9.8-20.9,15-33.4c0.1,0.7,0.5,1.8,1.3,3.1
	c0.2,0.3,0.5,0.7,0.7,1c1.2,1.5,3.1,3.1,6.2,4.2c0.5,0.2,0.898,0.3,1.398,0.4c0.102,0,0.3,0,0.4,0c0.398,0,0.8,0,1.1,0
	c0.2,0,0.4-0.1,0.602-0.1c6.1-1.2,9.5-11.6,9.5-11.6c3-3,5.8-4.1,8-4.3c0.198,0,0.3,0,0.5,0c0.3,0,0.6,0,0.898,0
	c2.102,0.1,3.7,1.1,3.7,1.1v0.1C567.1,266.5,567.7,369.2,567.7,369.2z"/>
<path fill="#FFFFFF" stroke="#000000" stroke-miterlimit="10" d="M567.1,0.5v262.7c-4.198-11.3-13.6-14.7-21.8-15.5
	c-0.5-0.1-1.1-0.1-1.6-0.1l-2.5-0.1c-0.9,0-1.7,0-2.5,0.1c-0.2,0-0.3,0-0.5,0c-0.102,0-0.2,0-0.3,0c-0.602,0-1.102,0.1-1.7,0.1
	c-2.2,0.2-3.5,0.5-3.5,0.5c-12.5,13.2-5.5,19.4-3.5,20.8c-4.8,8-10.602,18.9-12.102,21.6l3-57.5c2.302-1.8,13.102-16.1,15.802-21.5
	c0.1-0.1,0.1-0.2,0.198-0.3c1,6.8,3.602,8.8,6.2,9.1c0.102,0,0.2,0,0.3,0c0.102,0,0.2,0,0.302,0c2.698,0,5.198-1.7,5.198-1.7
	c7.5,0,8.302-34,8.302-34c0.198-0.9,0.698-3,1.398-5.5c0-0.2,0.102-0.3,0.102-0.5c1.398-5.5,3.198-12.9,3.698-14.7
	c0-0.1,0-0.1,0-0.2c0-0.1,0-0.1,0-0.1v-0.1c-1.6,3-14.3,10.5-14.3,10.5c-23.398,9.8-13.6,35.5-13.6,35.5l0.5,0.9
	c0.6-0.4,1.2-0.7,1.7-0.9c0.8-0.3,0.698,0.3,0.3,1.4c-0.102-0.4-0.2-0.8-0.2-1.3c-0.4,0.2-1,0.5-1.7,0.9
	C529.6,213.5,520.9,221,520.9,221v-0.2L518.6,187l0.802-0.8c0,0-0.102,0-0.102-0.1c-0.3-0.1-0.6-0.3-0.898-0.5
	c0.3,0.2,0.6,0.3,0.898,0.5c2.5,1.3,4.5,2.3,4.5,2.3c4.4,0-2.1-22.6-2.3-23.4c0,0,0.2,0.2,2.3,2.3c0.102,0.1,0.2,0.1,0.2,0.2
	c0.1,0.1,0.1,0.1,0.2,0.2c0.1,0.1,0.3,0.2,0.398,0.4c2.102,1.6,6.2,4,8.802,5.4c0.198,0.1,0.3,0.2,0.5,0.3
	c0.198,0.1,0.3,0.2,0.5,0.3c0.198,0.1,0.3,0.2,0.5,0.3c0.398,0.2,0.698,0.4,0.8,0.4c0.1,0,0.1,0.1,0.1,0.1
	c3.8-1.5-5.3-21.9-5.3-21.9l0,0c3.8,1.2,7.2,1.1,8.8,0.9c0.102,0,0.102,0,0.2,0s0.1,0,0.2,0c0.1,0,0.2,0,0.3,0s0.1,0,0.2,0
	c0.1,0,0.1,0,0.1,0c1.2-0.5,1.5-1.6,1.102-3c-0.102-0.2-0.102-0.5-0.2-0.7c-0.102-0.2-0.2-0.4-0.3-0.6c-0.102-0.2-0.2-0.3-0.302-0.5
	c-1.3-2.5-3.6-5.4-5.5-7.6c-0.1-0.2-0.3-0.3-0.398-0.5c-0.2-0.1-0.3-0.3-0.4-0.5c-0.2-0.2-0.3-0.3-0.5-0.5s-0.3-0.4-0.5-0.5
	c-0.2-0.2-0.3-0.4-0.5-0.5c0.102,0.1,0.2,0.2,0.4,0.2c0.2,0.1,0.3,0.2,0.5,0.2c0.1,0,0.2,0,0.3,0.1c0.1,0,0.2,0,0.3,0
	c0,0,0,0,0.102,0h0.1c0.4,0,0.8-0.2,1.3-0.4c0.102,0,0.102-0.1,0.2-0.1c0.1-0.1,0.2-0.1,0.2-0.2c0.2-0.1,0.398-0.3,0.6-0.5
	c0.4-0.3,0.7-0.7,1-1.1c0.2-0.3,0.4-0.6,0.602-0.9c0.198-0.3,0.398-0.6,0.6-1c0.5-0.9,1-1.7,1.3-2.6c0.101-0.3,0.3-0.6,0.4-0.8l0,0
	c0.1-0.3,0.3-0.6,0.398-0.8c0.102-0.1,0.102-0.3,0.2-0.4c0.2-0.4,0.3-0.7,0.4-1c0.1-0.3,0.2-0.5,0.2-0.6s0-0.1,0-0.1
	c0.8-4.5-11.302-9.8-11.302-9.8c3,0,8.302-12.1,8.302-12.1c0-0.2,0-0.3,0-0.5c0-0.1,0-0.2-0.102-0.3c-1-3-9.3-4.3-14.8-4.8
	c-0.2,0-0.4,0-0.5,0c-0.4,0-0.7-0.1-1-0.1c-0.2,0-0.3,0-0.5,0c-0.8-0.1-1.4-0.1-1.9-0.1s-0.898,0-0.898,0c3.8-3,3-15.8,3-15.8
	c-0.3-0.1-0.602-0.1-0.9-0.2c-0.7-0.1-1.3-0.2-2-0.2c-4.7-0.2-9.1,1.7-12,3.4l-0.1,0.1l0,0c-0.2,0.1-0.4,0.2-0.602,0.4
	c-0.198,0.1-0.3,0.2-0.5,0.3c-0.198,0.1-0.3,0.2-0.5,0.3c-0.8,0.5-1.398,1-1.6,1.1c4.4-3.8-0.8-13.5-0.8-13.5
	C492.6,80.2,488.1,90,488.1,90c-3.8-5.3-9.8-11.3-9.8-11.3c-6.7,1.5-1.7,20.4-1.5,21.1c-3-5.3-16.6-6.8-20.398-6.8
	c-0.302,0-0.602,0-0.802,0.1c-0.1,0.1-0.3,0.1-0.398,0.2c-0.102,0.1-0.2,0.1-0.3,0.2c-2.302,2.3,0.698,11.6,3.3,18.1
	c0.1,0.3,0.3,0.6,0.398,0.9c0.102,0.3,0.302,0.7,0.4,1c0.1,0.1,0.1,0.3,0.2,0.5c0.1,0.3,0.3,0.6,0.398,0.9
	c0.102,0.3,0.302,0.6,0.4,0.9c0,0.1,0.1,0.2,0.1,0.3c0.102,0.2,0.102,0.3,0.2,0.5c0.102,0.1,0.102,0.3,0.2,0.4
	c0.2,0.5,0.4,0.8,0.4,1c-3.302-5.9-11.802-6.1-13.9-6c-0.3,0.7-0.7,1.7-1.2,3c-0.7,1.6-0.8,3.2-0.6,4.8c0,0.2,0,0.3,0.1,0.5
	c0.102,0.5,0.2,1,0.4,1.5c0.1,0.2,0.2,0.5,0.2,0.7c0.1,0.2,0.198,0.4,0.198,0.6c0.102,0.3,0.302,0.6,0.4,0.9c1,1.9,2.2,3.7,3.5,5.2
	c0.2,0.3,0.4,0.5,0.7,0.7c0.3,0.3,0.5,0.6,0.8,0.9c0.1,0.1,0.3,0.3,0.4,0.5l0,0c0.1,0.1,0.3,0.3,0.398,0.4c0.4,0.4,0.8,0.8,1.2,1.1
	l0.1,0.1c0.2,0.2,0.5,0.4,0.7,0.6c0.5,0.4,0.9,0.8,1.102,0.9c-4.5-3.1-8.5-0.8-11.302,1.9c-0.198,0.1-0.3,0.3-0.398,0.4
	c-2.102,2.2-3.4,4.6-3.5,4.7c0,7.8,17.1,12.2,19.398,12.8c0.2,0,0.302,0.1,0.302,0.1c-0.5,0-1,0.1-1.5,0.3
	c-0.102,0-0.2,0.1-0.302,0.1c-4.6,2.4-8.8,13.1-8.8,13.1c-5.8,9.4,18.102,2.3,20.3,1.6h-0.1c-4.3,1.9-3.5,15-3.5,15
	c-2.2,5.9,13,0.2,13.6,0c-2.198,5.3-0.698,15.8-0.698,15.8c0.198,1.3,1,1.5,2.198,1c0.102,0,0.2-0.1,0.302-0.1
	c0.198-0.1,0.3-0.2,0.5-0.3c5.5-3,16.8-15.7,18-17.1c-0.102,0.1-0.2,0.3-0.4,0.5c-0.3,0.5-0.9,1.4-1.8,3c-2.2,3.6-1.7,19,5,15.7
	c0.3-0.1,0.6-0.3,1-0.6c3.8-2.7,4.898-9,5.1-14.4c0.102-5.3-0.6-9.8-0.6-9.8s0,0,0.1,0.2c0.102,0.6,0.8,4.9,0.602,9.8h0.1h0.8
	l0.8,65.4v0.3c0,0-18.5-13-26.898-17.2c-1.5-0.1-2.7-0.4-3.4-0.6l-0.5-0.4c0.102,0.1,0.2,0.2,0.3,0.3c-0.198-0.1-0.3-0.1-0.398-0.1
	l0,0l-0.2-0.2c0-0.8,1.601-0.4,4.101,0.9c0.199,0,0.301,0,0.5,0c1.5,0.1,3.101,0.1,4.601-0.3c0.1,0,0.2-0.1,0.3-0.1
	c0.101,0,0.2,0,0.3-0.1c1.2-0.4,2.301-1,3.102-2c3-3.6-10.5-27.9-42.4-16.7c-0.399,0.1-0.8,0.3-1.2,0.4
	c-0.398,0.2-0.898,0.3-1.3,0.5c-0.5,0.2-0.899,0.4-1.399,0.6c-0.5,0.2-1,0.4-1.5,0.7c-1.801,0.8-3.801,1.8-5.699,2.9
	c-0.301,0.2-0.7,0.4-1.102,0.6c-0.3,0.2-0.699,0.4-1,0.6c-5,2.9-10.398,6.6-16.199,11.3l0,0c-0.301-2-0.5-4-0.899-6
	c-0.101-0.4-0.2-0.9-0.2-1.3c-0.3-1.7-0.6-3.4-1-5.2c-0.1-0.3-0.1-0.6-0.2-1c-0.5-2.7-1.1-5.4-1.8-8.2c-0.399-1.6-0.5-1-1.2-4.9
	c0-0.1-0.1-0.3-0.199-0.6c0-0.1,0-0.1-0.101-0.2c-0.5-1.8-1-3.6-1.5-5.4c-0.899-2.9-1.8-5.8-2.8-8.8c0-0.2-0.101-0.3-0.2-0.4
	c-0.099-0.1-0.1-0.3-0.1-0.4c-0.102-0.3-0.2-0.5-0.301-0.8c-0.899-2.6-1.899-5.3-2.899-7.9c-0.3-0.8-0.7-1.7-1-2.6
	c-0.101-0.1-0.101-0.3-0.2-0.4c-3.1-7.8-9.899-22.1-9.899-22.1c-8.5-22.7-29.5-22.1-29.5-22.1c-0.601-1.7-1-2.7-1-2.7
	c-4.399-19-41.899-26.8-41.899-26.8l-1-0.2c4.7-19.9,4.6-39,4.6-39c-15.6-42.8-99.399-56.7-99.399-56.7
	c-61.6,76.5-51,135.2-51,135.2c0.2,1,0.4,1.9,0.7,2.8c-3.2,0.3-23.2,2.9-18.2,23.7c0,0-10.5,10.7-21.9,27.2l0,0l-1.4-1
	c5-7.4,7.9-17.1,6.2-29.8c0,0,31.8-24.1,18.9-61.9c0,0,6.1-49.1-24.9-59.7c0,0,9.9-30.1-17.5-31.2c-1.3-0.1-2.7,0-4.1,0
	c-0.5,0-1,0.1-1.5,0.1s-0.9,0.1-1.4,0.1c-0.4,0-0.8,0.1-1.2,0.1c-2.9,0.4-6.2,1-9.8,2l0,0c-0.1-0.5-3-11.4-7.6-16.8L567.1,0.5z"/>
<path fill="#FFFFFF" stroke="#000000" stroke-miterlimit="10" d="M566.9,369l-0.302,1.1c-3.5,1.1-5.3,3-5.3,3v19h-0.8
	c-14.7,2.6-30.1,4.6-44.4,6.1l-0.1-1V397.1l-1.4-21.1c-0.898-0.6-1.698-1.2-2.398-1.8l0,0c0.7,0.6,1.6,1.2,2.5,1.8l0,0
	c3.3,2.2,7.5,4.4,9.898,5.6c0.102,0.1,0.2,0.1,0.302,0.2c0.898,0.5,1.5,0.8,1.698,0.8l0,0c-0.1-0.2-0.198-0.4-0.198-0.7
	c0-0.2,0-0.4,0-0.6c0.3-4.3,7-14.6,7-14.6c0.8-1.8,1.398-3.6,1.898-5.4c0.5-1.9,0.8-3.8,1-5.7c-0.2,1.9-0.5,3.9-1,5.8v0.1l0.4,0.1
	L566.9,369z"/>
<path fill="#FFFFFF" stroke="#000000" stroke-miterlimit="10" d="M566.6,643.4v13c0-1.5-7.5,3.8-11.3,1.5
	c-0.898-0.5-1.3-4.102-1.5-7.602c-0.1-3.1-0.1-6.3-0.1-7.6C561.2,643.9,566.1,644.4,566.6,643.4z"/>
<path fill="#FFFFFF" stroke="#000000" stroke-miterlimit="10" d="M566.6,623.6V643.4c-0.5,1-5.398,0.5-12.898-0.802
	c-13.102-2.398-34-7.398-52.102-12l0,0c-11.698-3-25.198-6.5-31.698-8.3c-0.802-3.5-1.5-6.8-2.2-10.1c10.3,1.1,20.3,1.898,29.8,2.1
	c14.9,2.2,43.8,6.5,58.3,8.4c4.3,0.5,7.4,0.898,8.5,0.898h2.299V623.6z"/>
<path fill="#FFFFFF" stroke="#000000" stroke-miterlimit="10" d="M566.6,604.6v19h-2.3c-1.1,0-4.2-0.3-8.5-0.898l0.2-1.4l1.5-17.5
	l0.1-0.5C563.2,604.1,566.6,604.6,566.6,604.6z"/>
<path fill="#FFFFFF" stroke="#000000" stroke-miterlimit="10" d="M566.6,582.5v22.1c0,0-3.398-0.5-9-1.3
	c-10.8-1.5-29.698-4.3-47.5-7.1c-22.5-3.602-43.1-7.4-43.1-9.102l0,0v-4.6v-1.1c15.8-0.7,31-2.2,45-4.9c9.5,2,32.7,6.7,45.6,7.5
	C563,584.4,566.6,584,566.6,582.5z"/>
<path fill="#FFFFFF" stroke="#000000" stroke-miterlimit="10" d="M566.6,543.7v38.8c0,1.5-3.6,1.8-9,1.5l0.5-22.8l0.302-14.5
	L558.3,545.6C562.5,545.3,565.4,544.7,566.6,543.7z"/>
<path fill="#FFFFFF" stroke="#000000" stroke-miterlimit="10" d="M566.6,520.8v22.8c-1.198,1-4.198,1.602-8.398,1.9
	c-5.7,0.5-13.5,0.4-22.4,0.1c-30.398-1.198-71.898-5.8-71.898-5.8l-1.4-17.8c9.8-1,19.7-2.4,29.7-4c9.6,0.9,42.8,3.8,64.5,3.3
	C560.5,521.3,563.8,521.1,566.6,520.8z"/>
<path fill="#FFFFFF" stroke="#000000" stroke-miterlimit="10" d="M566.6,466v54.8c-2.8,0.3-6.1,0.4-9.8,0.5v-0.5
	c-0.1-7-0.2-13-0.2-18.3c0-10.5,0.102-17.8,0.302-22.8c0.1-3.9,0.3-6.4,0.398-7.9l-0.5-2.8C561,468.1,564.4,467.1,566.6,466z"/>
<path fill="#FFFFFF" stroke="#000000" stroke-miterlimit="10" d="M566.6,456.1v9.9c-2.198,1.1-5.6,2.1-9.8,3
	c-27.2,5.6-89.398,6.9-94.1,7l-0.3-13.5c42.8-1.4,80.698-3.1,96.698-5C563,457.1,565.6,456.6,566.6,456.1z"/>
<path fill="#FFFFFF" stroke="#000000" stroke-miterlimit="10" d="M566.6,437.9v18.3c-1,0.5-3.6,0.898-7.5,1.398L559,457
	c1.5-10.7,0.8-20.6,0.8-20.6l0.102-0.4C563,436.4,565.3,437.1,566.6,437.9z"/>
<path fill="#FFFFFF" stroke="#000000" stroke-miterlimit="10" d="M566.6,418.8v19c-1.3-0.8-3.6-1.398-6.698-1.898
	c-7-1.2-17.9-1.802-29.9-2c-29.2-0.602-64.5,0.898-64.5,0.898h-0.2c0.102-5.5-1-12.2-1.3-13.5c14.3-0.8,40.2-2.5,67.1-5.8
	c7,1.2,21.802,4.1,30.2,4C563.7,419.6,565.5,419.4,566.6,418.8z"/>
<path fill="#FFFFFF" stroke="#000000" stroke-miterlimit="10" d="M566.6,370.1v48.7c-1.1,0.602-2.898,0.8-5.3,0.8V411.2v-19v-19
	C561.3,373.1,563.2,371.2,566.6,370.1z"/>
<path fill="#FFFFFF" stroke="#000000" stroke-miterlimit="10" d="M567.1,263.2c0,0-1.6-1-3.698-1.1c-0.302,0-0.602,0-0.9,0
	c-0.1,0-0.3,0-0.5,0c-2.3,0.2-5,1.3-8,4.3c0,0-3.3,10.4-9.5,11.6c-0.2,0-0.4,0.1-0.6,0.1c-0.4,0-0.7,0-1.102,0c-0.1,0-0.3,0-0.398,0
	c-0.4-0.1-0.802-0.2-1.302-0.4c-3.1-1.1-5.1-2.7-6.3-4.2c-0.3-0.3-0.5-0.7-0.7-1c-0.898-1.4-1.1-2.6-1.198-3.3c0,0,0,0.1-0.102,0.2
	c-5.2,12.5-15,33.4-15,33.4s-2.3,19.6-0.8,30.3l0,0c-0.9,2.1-1.4,3.9-1.5,4.3l0.8,12.1l-0.2-0.4l-0.8-11.7
	c0.102-0.4,0.602-2.3,1.602-4.5H516.8c-1.5-10.6,0.8-30.3,0.8-30.3s10.102-20.9,15.2-33.5c0.3-0.8,0.7-1.6,1-2.3
	c0.102-0.3,0.3-0.7,0.4-1c0.1-0.4,0.3-0.8,0.398-1.1c0.4-1.1,0.7-2,0.9-2.7c0-0.1,0.1-0.3,0.1-0.4s0-0.1,0-0.1s0,0,0-0.1
	c0-0.2,0.102-0.3,0.102-0.5c0-0.2,0.1-0.4,0.1-0.6c0-0.2,0-0.3-0.1-0.4c0,0-0.102,0-0.2,0l0,0c0,0-0.1,0.1-0.2,0.1
	c-0.1,0.1-0.2,0.2-0.398,0.4c0,0.1,0.8,0.8,0.8,0.9c-0.2,0.3-1.4-0.1-1.7,0.3c-0.1,0.2-0.3,0.4-0.4,0.5c-0.5,0.8-1.1,1.7-1.8,2.8
	l0,0c-0.5,0.8-1,1.6-1.5,2.6c-0.2,0.3-0.3,0.5-0.5,0.8c-0.1,0.2-0.2,0.4-0.398,0.6c-5.302,9.1-12.2,21.9-12.2,22.3v-0.7
	c1.398-2.7,7.3-13.6,12.1-21.6c-2-1.4-9-7.6,3.5-20.8c0,0,1.4-0.3,3.5-0.5c0.5,0,1.101-0.1,1.7-0.1c0.1,0,0.2,0,0.3,0
	c0.2,0,0.3,0,0.5,0c0.8,0,1.601-0.1,2.5-0.1l2.5,0.1c0.5,0,1.101,0.1,1.601,0.1C553.4,248.5,562.9,251.9,567.1,263.2z"/>
<path fill="#FFFFFF" stroke="#000000" stroke-miterlimit="10" d="M561.5,163.8L561.5,163.8c0,0.1,0,0.2-0.1,0.2c0,0,0,0.1,0,0.2
	c-0.5,1.9-2.302,9.2-3.7,14.7c0,0.2-0.102,0.3-0.102,0.5c-0.698,2.5-1.3,4.6-1.5,5.5c0,0-0.698,34-8.3,34c0,0-2.3,1.7-5,1.7
	c-0.1,0-0.2,0-0.3,0s-0.2,0-0.3,0c-2.5-0.3-5.2-2.3-6.2-9.1c0-0.1,0-0.1,0.1-0.1c0-0.1,0-0.2,0-0.2c0.5-1.1,0.5-1.6-0.3-1.4
	c-0.5,0.2-1.1,0.5-1.7,0.9l-0.5-0.9c0,0-9.8-25.6,13.602-35.5C547.2,174.3,559.9,166.8,561.5,163.8z"/>
<path fill="#FFFFFF" stroke="#000000" stroke-miterlimit="10" d="M561.3,411.2v8.398c-8.398,0-23.1-2.8-30.2-4
	c9.802-1.198,19.802-2.6,29.4-4.3h0.8V411.2z"/>
<path fill="#FFFFFF" stroke="#000000" stroke-miterlimit="10" d="M561.3,392.2v19h-0.8c-9.6,1.7-19.6,3.1-29.4,4.3
	c-27,3.3-52.898,5-67.1,5.8c-7.1,0.4-11.4,0.5-11.4,0.5s-2.698-0.5-7.5-1.3c-7.198-1.2-26.6-4.4-41.198-6.7l0,0
	c-2.802-7.3-5.5-14-7.9-20.1l0.6-0.3c2,0.3-4.898-12.4-2.898-12.1c1.1,0.2,17.398,5.3,13.6,7.6c-1.1,0.7,1,6.3,2.2,6.5
	c14.5,2.2,26.8,4.2,34.9,5.5c6.6,1.1,10.5,1.699,10.5,1.699s3.898-0.1,10.6-0.5c8.7-0.5,22.1-1.3,37.6-2.8c3.9-0.399,8-0.8,12.2-1.2
	c0.3,0,0.602-0.1,0.9-0.1c14.3-1.5,29.7-3.5,44.398-6.1h0.7L561.3,392.2L561.3,392.2z"/>
<path fill="#FFFFFF" stroke="#000000" stroke-miterlimit="10" d="M559.9,435.9L559.8,436.3c0,0,0.8,9.9-0.8,20.602l0.1,0.6
	c-16,1.9-53.898,3.6-96.698,5c-5.5,0.2-11,0.4-16.602,0.5c-7,0.2-16.3-0.2-23.398,0l0,0c-2.2-6.2-4.4-12.1-6.602-17.9l2.7-0.3
	l26.5-1c2.4-0.2,4.8-0.3,7.2-0.398c36.6-2.2,68.7-5.302,77.7-9.5C542,434.1,552.9,434.7,559.9,435.9z"/>
<path fill="#FFFFFF" stroke="#000000" stroke-miterlimit="10" d="M558.2,545.6l0.1,1.102l-0.3,14.5h-2
	c-11.8,7.2-27,12.1-44.1,15.398c-14,2.7-29.2,4.2-45,4.9c-1.5,0.1-5.2-0.1-6.7,0c-2.102-8-4-15.2-5.9-21.6c2.102-0.102,8.9-1,11-1
	c24-1,49.102-4.602,70.5-13C544.7,546.1,552.6,546.1,558.2,545.6z M489.4,569.6c0-2.3-4.2-4.198-9.4-4.198s-9.4,1.898-9.4,4.198
	c0,2.302,4.2,4.2,9.4,4.2S489.4,571.9,489.4,569.6z"/>
<path fill="#FFFFFF" stroke="#000000" stroke-miterlimit="10" d="M558,561.2l-0.5,22.8c-12.9-0.8-36.2-5.5-45.6-7.5
	c17.198-3.2,32.3-8.2,44.1-15.4L558,561.2z"/>
<path fill="#FFFFFF" stroke="#000000" stroke-miterlimit="10" d="M557.6,603.3l-0.1,0.5c-14.3,8.5-35.5,11.2-60,10.5
	c-9.5-0.3-19.5-1-29.8-2.1c-1-4.5-2-8.9-3-13.102l0.7-0.198c0.5,0,1,0.1,1.6,0.198c14.2,1.302,30.1,1,43-2.198l0.1-0.7
	C527.9,599.1,546.8,601.8,557.6,603.3z"/>
<path fill="#FFFFFF" stroke="#000000" stroke-miterlimit="10" d="M557.6,603.8l-1.5,17.5l-0.198,1.4
	c-14.602-1.8-43.4-6.102-58.302-8.4C522.1,615.1,543.3,612.4,557.6,603.8z"/>
<path fill="#FFFFFF" stroke="#000000" stroke-miterlimit="10" d="M556.8,469l0.5,2.8c-0.1,1.5-0.3,4-0.398,7.9H556.8
	c-13.398,8.398-32.6,13.8-54.2,17.2c-3,0.5-3.1-1.602-6.198-1.2c-2.102,0.3-0.9-6.3-3-6.102C489.7,490,479.8,499.7,476.1,500
	c-4.198,0.4-8.5,0.7-12.8,0.9l-0.1-1.4l-0.5-23.6C467.3,475.8,529.6,474.5,556.8,469z"/>
<path fill="#FFFFFF" stroke="#000000" stroke-miterlimit="10" d="M556.8,479.7L556.8,479.7c-0.1,5-0.3,12.3-0.2,22.8H556
	c-21.1,7-42.5,12-63.7,15.5c-10,1.7-19.898,3-29.7,4c-5.1,0.5-10.198,1-15.198,1.4c-3.2,0.3-1.5,0.1-4.302,0.3
	c-0.198-0.5-0.3-1-0.398-1.3c-2.2-6.802-4.4-13.602-6.602-20.302l0.9-0.3c4.4,0,4.4-0.1,8.9-0.2c5.8-0.198,11.6-0.398,17.398-0.698
	c4.3-0.2,8.602-0.5,12.8-0.9c3.7-0.3,13.602-10,17.302-10.4c2.1-0.198,0.898,6.302,3,6.102c3.1-0.4,3.198,1.7,6.198,1.2
	C524.2,493.5,543.4,488.1,556.8,479.7z"/>
<path fill="#FFFFFF" stroke="#000000" stroke-miterlimit="10" d="M556.8,520.8v0.5c-21.6,0.4-54.8-2.398-64.5-3.3
	c21.2-3.5,42.602-8.5,63.7-15.5h0.6C556.6,507.8,556.7,513.9,556.8,520.8z"/>
<path fill="#FFFFFF" stroke="#000000" stroke-miterlimit="10" d="M553.8,650.2H553c0,0-32-0.2-73.8-0.9c-1.3,0-2.602,0-4-0.1
	c-0.8-4.8-1.7-9.7-2.7-14.602l0.8-0.198c0.9-0.102,1.7-0.2,2.602-0.302c0.3,0,0.6-0.1,0.8-0.1c0.7-0.1,1.5-0.2,2.2-0.2
	c1.398-0.2,2.8-0.3,4.1-0.5s2.6-0.3,3.8-0.5c0.9-0.1,1.8-0.2,2.602-0.3c6.3-0.9,10.6-1.7,12.3-2l0,0c18.1,4.6,39,9.6,52.1,12
	C553.7,644,553.7,647.2,553.8,650.2z"/>
<path fill="#FFFFFF" stroke="#000000" stroke-miterlimit="10" d="M530.6,119.1c0,0,12.102,5.3,11.302,9.8c0,0,0,0,0,0.1
	s-0.102,0.3-0.2,0.6c-0.102,0.3-0.2,0.6-0.4,1c-0.1,0.1-0.1,0.3-0.2,0.4c-0.1,0.3-0.198,0.6-0.398,0.8l0,0
	c-0.102,0.3-0.2,0.5-0.4,0.8c-0.399,0.8-0.899,1.7-1.3,2.6c-0.2,0.3-0.4,0.6-0.6,1c-0.2,0.3-0.4,0.6-0.602,0.9
	c-0.3,0.4-0.6,0.8-1,1.1c-0.2,0.2-0.398,0.4-0.6,0.5c-0.102,0.1-0.2,0.1-0.2,0.2c-0.1,0.1-0.1,0.1-0.2,0.1
	c-0.398,0.3-0.8,0.4-1.3,0.4h-0.1c0,0,0,0-0.102,0c-0.1,0-0.2,0-0.3,0s-0.2,0-0.3-0.1c-0.2,0-0.3-0.1-0.5-0.2
	c-0.102-0.1-0.2-0.1-0.4-0.2c-0.398-0.5-0.7-0.8-0.8-0.9c0.3,0.4,0.5,0.7,0.8,0.9c0.2,0.2,0.3,0.3,0.5,0.5
	c0.102,0.2,0.3,0.3,0.5,0.5c0.2,0.2,0.3,0.3,0.5,0.5c0.102,0.1,0.3,0.3,0.4,0.5c0.1,0.2,0.3,0.3,0.398,0.5
	c1.9,2.2,4.302,5.1,5.5,7.6c0.102,0.2,0.2,0.4,0.302,0.5c0.1,0.2,0.198,0.4,0.3,0.6c0.1,0.2,0.2,0.5,0.2,0.7
	c0.398,1.4,0.1,2.5-1.102,3c0,0,0,0-0.1,0c0,0-0.102,0-0.2,0s-0.2,0-0.3,0c-0.102,0-0.102,0-0.2,0s-0.1,0-0.2,0
	c-1.6,0.1-5,0.2-8.8-0.9l0,0c0,0,9.1,20.4,5.3,21.9c0,0,0,0-0.1-0.1c-0.102-0.1-0.4-0.2-0.8-0.4c-0.2-0.1-0.302-0.2-0.5-0.3
	c-0.2-0.1-0.302-0.2-0.5-0.3c-0.2-0.1-0.302-0.2-0.5-0.3c-2.602-1.5-6.7-3.9-8.802-5.4c-0.198-0.1-0.3-0.2-0.398-0.4
	c-0.102-0.1-0.102-0.1-0.2-0.2s-0.2-0.1-0.2-0.2c-2.1-2.1-2.3-2.3-2.3-2.3c0.2,0.8,6.7,23.4,2.3,23.4c0,0-2-1-4.5-2.3
	c-0.3-0.1-0.6-0.3-0.898-0.5c-0.2-0.1-0.302-0.2-0.5-0.3c-0.2-0.1-0.302-0.2-0.5-0.3c-2.802-1.6-5.802-3.4-7-4.5
	c-0.102-0.1-0.102-0.1-0.102-0.1c-0.1-0.1-0.1-0.1-0.2-0.2c-1.198-1.9-1.5-2.2-1.5-2.3l0,0c-0.1-0.2-0.1-0.2-0.1-0.2
	s0.7,4.5,0.6,9.8c-0.198,5.4-1.3,11.7-5.1,14.4c-0.3,0.2-0.7,0.4-1,0.6c-6.4,2.9-7-12.2-4.8-15.8c1.7-2.6,2.1-3.4,2.3-3.7
	c-0.1,0.1-0.3,0.4-0.6,0.7c0.198-0.3,0.3-0.5,0.398-0.5c-1.3,1.4-12.5,14.1-18,17.1c-0.2,0.1-0.398,0.2-0.5,0.3
	c-0.1,0.1-0.2,0.1-0.3,0.1c-1.2,0.4-1.9,0.1-2-1.1c0,0-1.6-10.5,0.7-15.8c-0.602,0.2-15.8,5.9-13.602,0c0,0-0.8-12.7,3.302-14.9h0.1
	l0,0c0.1,0,0.2-0.1,0.3-0.1c-1.2,0.4-26.3,8.1-20.398-1.5c0,0,4.1-10.4,8.6-13c0.1-0.1,0.2-0.1,0.3-0.1c0.5-0.2,1-0.3,1.5-0.3
	c0,0-0.1,0-0.3-0.1c0.2,0,0.3,0,0.5,0c0,0-19.7-4.5-19.7-12.8c0,0,1.2-2.3,3.3-4.6c0.102-0.1,0.302-0.3,0.4-0.4
	c2.7-2.8,6.8-5,11.3-1.9c-0.2-0.1-0.5-0.5-1.1-0.9c-0.2-0.2-0.4-0.4-0.7-0.6l-0.101-0.1c-0.399-0.4-0.801-0.7-1.199-1.1
	c-0.2-0.1-0.301-0.3-0.4-0.4l0,0c-0.1-0.1-0.3-0.3-0.398-0.5c-0.302-0.3-0.5-0.6-0.802-0.9c-0.198-0.2-0.398-0.5-0.698-0.7
	c-1.302-1.5-2.602-3.3-3.5-5.2c-0.102-0.3-0.302-0.6-0.4-0.9c-0.1-0.2-0.2-0.4-0.2-0.6c-0.1-0.2-0.2-0.5-0.2-0.7
	c-0.198-0.5-0.3-1-0.398-1.5c0-0.2-0.102-0.3-0.102-0.5c-0.198-1.6-0.1-3.2,0.602-4.8c0.5-1.3,0.898-2.3,1.2-3
	c2.1-0.1,10.6,0.1,13.898,6c0-0.1-0.2-0.5-0.398-1c0-0.1-0.102-0.3-0.2-0.4c-0.102-0.2-0.102-0.3-0.2-0.5c0-0.1-0.1-0.2-0.1-0.3
	c-0.102-0.3-0.2-0.6-0.4-0.9c-0.1-0.3-0.3-0.6-0.4-0.9c-0.1-0.1-0.1-0.3-0.198-0.5c-0.102-0.3-0.302-0.6-0.4-1
	c-0.1-0.3-0.2-0.6-0.4-0.9c-2.5-6.4-5.5-15.8-3.3-18.1c0.102-0.1,0.2-0.2,0.3-0.2c0.102-0.1,0.2-0.1,0.4-0.2
	c0.2-0.1,0.5-0.1,0.8-0.1c3.8,0,17.4,1.5,20.4,6.8c-0.2-0.7-5.2-19.7,1.5-21.1c0,0,6,6,9.8,11.3c0,0,4.5-9.8,15.1-12.8
	c0,0,5.2,9.7,0.802,13.5c0.198-0.1,0.8-0.6,1.6-1.1c0.2-0.1,0.3-0.2,0.5-0.3s0.3-0.2,0.5-0.3s0.4-0.2,0.6-0.4l0,0
	c0,0,0.102,0,0.102-0.1c2.898-1.7,7.3-3.6,12-3.4c0.7,0,1.3,0.1,2,0.2c0.3,0.1,0.6,0.1,0.898,0.2c0,0,0.802,12.8-3,15.8
	c0,0,0.302,0,0.9,0c0.5,0,1.1,0.1,1.9,0.1c0.198,0,0.3,0,0.5,0c0.3,0,0.698,0.1,1,0.1c0.198,0,0.3,0,0.5,0
	c5.5,0.5,13.898,1.9,14.8,4.8c0,0.1,0.1,0.2,0.1,0.3c0,0.2,0,0.3,0,0.5C538.9,106.9,533.6,119.1,530.6,119.1z M525.3,139.9
	c0-20.6-13.2-37.4-29.5-37.4s-29.5,16.7-29.5,37.4c0,20.6,13.2,37.4,29.5,37.4S525.3,160.5,525.3,139.9z"/>
<path fill="#FFFFFF" stroke="#000000" stroke-miterlimit="10" d="M536.6,350.4c0,0.8,0,1.5,0,2.3c0,0.4,0,0.7,0,1.1
	c0,0.6-0.1,1.3-0.1,1.9l0,0c-0.2,1.9-0.5,3.8-1,5.7c-0.5,1.8-1.1,3.6-1.9,5.4c0,0-6.698,10.3-7,14.6c0,0.2,0,0.4,0,0.6
	c0,0.3,0,0.5,0.102,0.7c-0.2-0.1-0.8-0.3-1.7-0.8c-0.1-0.1-0.2-0.1-0.3-0.2c-2.4-1.3-6.602-3.5-9.9-5.7v0.1l0,0
	c-0.898-0.6-1.8-1.2-2.5-1.8c-0.2-0.2-0.398-0.4-0.6-0.5c-4.5-3.8-4.5-3.8-4.5-3.8s-1.5-1.2-3.8-3.2c-5.4-4.7-14.802-13.5-18.9-20.7
	c0-0.1-0.1-0.1-0.1-0.2c-2.302-4-2.9-7.5,0.1-9.2c0,0,0.1-0.1,0.3-0.2c0.102,0,0.2-0.1,0.3-0.1c0.102-0.1,0.302-0.2,0.5-0.3
	c0.302-0.1,0.602-0.3,1-0.5c0.302-0.1,0.602-0.3,1-0.4c4.5-1.9,12.7-4.3,19.4,0.9l9.1,13.6v-0.4l0.2,0.4l-0.8-12.1
	c0.1-0.4,0.7-2.2,1.5-4.3h0.1c2.102-4.6,6.302-10.7,13.5-6.8C530.6,326.2,536.3,337.3,536.6,350.4z"/>
<path fill="#FFFFFF" stroke="#000000" stroke-miterlimit="10" d="M536,211.1c0,0.1,0,0.1-0.1,0.1c0,0.1,0,0.2,0,0.2
	c-0.102,0.1-0.102,0.2-0.2,0.3c0-0.2,0-0.4-0.102-0.5c-2.198,4.9-13.5,20.1-16,21.9l-3,58.2c0,0,0.102-0.2,0.302-0.6v0.7
	c0-0.5,6.898-13.2,12.198-22.3c0.102-0.2,0.2-0.4,0.4-0.6c0.2-0.3,0.3-0.5,0.5-0.8c0.5-0.9,1.1-1.8,1.5-2.6l0,0
	c0.7-1.1,1.3-2,1.8-2.8c0.102-0.2,0.3-0.4,0.4-0.5c0.3-0.5,1.5,0,1.7-0.3c0,0,0,0,0,0.1v0.1c0,0.1-0.102,0.3-0.102,0.4
	c-0.2,0.7-0.5,1.7-0.898,2.7c-0.102,0.4-0.302,0.7-0.4,1.1c-0.1,0.3-0.3,0.6-0.4,1c-0.3,0.8-0.6,1.5-1,2.3
	c-5.1,12.5-15.198,33.5-15.198,33.5S515.1,322.3,516.6,333h0.102c-1,2.2-1.5,4.1-1.602,4.5l0.802,11.7l-8.9-13.3
	c-0.1,0-0.1-0.1-0.2-0.1l0.8-5.1c-0.198-0.5-0.5-1.1-0.898-1.7c-0.102-0.1-0.2-0.3-0.3-0.5c-0.102-0.2-0.302-0.4-0.4-0.6
	c-0.2-0.3-0.4-0.6-0.6-0.9c-0.102-0.2-0.2-0.3-0.4-0.5c-0.8-1.1-1.7-2.2-2.6-3.4c-0.302-0.3-0.5-0.7-0.802-1c0,0-0.1-0.1-0.1-0.2
	c-0.3-0.3-0.6-0.7-0.9-1c-0.1-0.1-0.1-0.1-0.198-0.2c-0.302-0.4-0.7-0.8-1-1.2c-1.602-1.8-3.302-3.7-5-5.5
	c-0.302-0.3-0.602-0.6-0.802-0.9c-3.1-3.3-6.1-6.4-8.3-8.6c-0.1-0.1-0.3-0.3-0.398-0.4c-0.602-0.6-1.102-1.1-1.602-1.5
	c-0.1-0.1-0.2-0.2-0.3-0.3c-0.5-0.5-0.9-0.9-1.1-1l-0.102-0.1l0,0l0,0c0-0.1,0-0.1,0-0.1c0.102-0.2,0.2-0.3,0.3-0.4h0.102l0,0
	c0,0,0.1,0,0.2,0c0.398,0,0.898,0.2,1.6,0.6c6.1,3.5,22.7,21.1,22.7,21.1v-0.2c0.1,0.1,0.1,0.1,0.1,0.1L508,261
	c-0.4-2.2-7.1-8.4-13.8-14.2c-4.102-3.5-8.102-6.8-13.5-11.1c0.7,0.2,1.898,0.5,3.398,0.6c8.4,4.2,26.9,17.2,26.9,17.2v-0.3
	c0.1,0.1,0.1,0.1,0.1,0.1l-0.8-65.7H509.4c0,0.1,0,0.1,0,0.2H509.3c0.2-4.8-0.5-9.1-0.6-9.8c0.1,0.2,0.5,0.8,1.398,2.1
	c0.102,0.1,0.2,0.2,0.302,0.3l0.1,0.1c1.2,1.2,4.2,3,7.1,4.6c0.102,0.1,0.2,0.1,0.302,0.2c0.198,0.1,0.3,0.2,0.5,0.3
	c0.3,0.2,0.6,0.3,0.898,0.5l-0.8,0.8l2.3,34c0,0,0,0,0.102-0.1v0.2c0,0,8.698-7.5,13.398-10.4c0.7-0.4,1.3-0.7,1.7-0.9
	C535.9,210.3,535.9,210.7,536,211.1z"/>
<path fill="#FFFFFF" stroke="#000000" stroke-miterlimit="10" d="M465.5,434.8c0,0,35.4-1.5,64.5-0.898c-9,4.1-41.2,7.198-77.7,9.5
	c3.2-0.5,6.7-0.9,9.4-0.9c2.6,0,3.5-3.5,3.6-7.6h0.2V434.8z"/>
<path fill="#FFFFFF" stroke="#000000" stroke-miterlimit="10" d="M495.8,102.5c16.3,0,29.5,16.7,29.5,37.4
	c0,20.6-13.2,37.4-29.5,37.4s-29.5-16.7-29.5-37.4C466.3,119.3,479.5,102.5,495.8,102.5z"/>
<path fill="#FFFFFF" stroke="#000000" stroke-miterlimit="10" d="M516.1,397.3l0.102,1c-0.3,0-0.602,0.101-0.9,0.101
	c-4.2,0.5-8.2,0.899-12.2,1.199c-15.5,1.4-28.898,2.301-37.6,2.801l1.5-29.9c-6-10.7-21.1,1.5-21.1,1.5l-1.4,27.2
	c-8.1-1.3-20.4-3.3-34.9-5.5c-1.198-0.2-3.3-5.8-2.198-6.5c3.8-2.3-12.5-7.5-13.602-7.6c-1.898-0.3,4.9,12.4,2.9,12.1L396.1,394
	c-9.1-22.7-15.199-36.5-15.199-36.5l-0.199-0.2c9.1-6.5,18.8-14.8,24-23.1c0,0,1-1.5,2.5-4.5l0.6,0.1c1.2,0.3,2.601,0.5,4.101,0.9
	c0.601,0.1,1.199,0.3,1.899,0.4c1.7,0.4,3.4,0.7,5.3,1.1c19.801,4.2,51.801,11.1,64.5,14.4l0,0l0.9-0.5c4.1,7.2,13.5,16,18.899,20.7
	c2.301,2,3.801,3.2,3.801,3.2s0,0,4.5,3.8c0.199,0.2,0.398,0.3,0.6,0.5l0,0c-0.2-0.2-0.5-0.4-0.7-0.5c-4.5-3.8-4.5-3.8-4.5-3.8
	s-1.5-1.2-3.8-3.1l0,0l0,0l0,0l0.7,31.7h0.1L516.1,397.3z"/>
<path fill="#FFFFFF" stroke="#000000" stroke-miterlimit="10" d="M516.1,397.2v0.1l-12.1,1.2l-0.7-31.6c2.3,1.9,3.8,3.1,3.8,3.1
	s0,0,4.5,3.8c0.2,0.2,0.5,0.4,0.7,0.5c0.7,0.6,1.5,1.2,2.4,1.8L516.1,397.2z"/>
<path fill="#FFFFFF" stroke="#000000" stroke-miterlimit="10" d="M510.1,596.3L510,597c-13,3.2-28.9,3.5-43,2.2V599v-11.9
	C467,588.9,487.6,592.7,510.1,596.3z"/>
<path fill="#FFFFFF" stroke="#000000" stroke-miterlimit="10" d="M507.7,261c0,0.1,0,0.1,0,0.2l-0.8,61v0.2
	c0,0-16.602-17.6-22.7-21.1c-0.602-0.4-1.2-0.6-1.602-0.6c0.4,0,1,0.2,1.7,0.6c0,0,15.4,3.4,17-1.5c0-0.1,0.102-0.3,0.102-0.4
	s0-0.3,0-0.5c0-0.3,0-0.6-0.102-0.9c-0.2-0.8-0.7-1.8-1.398-2.9c-0.2-0.2-0.302-0.5-0.5-0.7c0,0-22.7-30.9-56.7-32.4
	c0,0,5.3,46.9,28.7,56.7c0,0,16.6,0.8,10.6-17.3l0,0l0.1,0.1c0.2,0.2,0.5,0.5,1.102,1c0.1,0.1,0.2,0.2,0.3,0.3
	c0.4,0.4,1,0.9,1.6,1.5c0.102,0.1,0.302,0.3,0.4,0.4c2.2,2.2,5.2,5.2,8.3,8.6c0.3,0.3,0.602,0.6,0.8,0.9c1.7,1.8,3.4,3.7,5,5.5
	c0.302,0.4,0.7,0.8,1,1.2c0,0.1,0.102,0.1,0.2,0.2c0.3,0.3,0.602,0.7,0.9,1c0,0.1,0.1,0.1,0.1,0.2c0.3,0.4,0.602,0.7,0.8,1
	c1,1.2,1.9,2.4,2.602,3.4c0.1,0.2,0.2,0.3,0.398,0.5c0.2,0.3,0.4,0.6,0.602,0.9c0.1,0.2,0.3,0.4,0.398,0.6
	c0.102,0.2,0.2,0.3,0.302,0.5c0.398,0.6,0.698,1.2,0.898,1.7L507,336c-6.8-5.1-15-2.6-19.4-0.7c-0.398,0.1-0.698,0.3-1,0.4
	c-0.398,0.2-0.8,0.4-1,0.5c-0.198,0.1-0.3,0.2-0.5,0.3c-0.1,0-0.198,0.1-0.3,0.1c-0.2,0.1-0.3,0.2-0.3,0.2c-3,1.7-2.4,5.2-0.1,9.2
	c0,0.1,0.1,0.1,0.1,0.2l-0.9,0.5c-12.698-3.4-44.698-10.2-64.5-14.4c-1.898-0.4-3.698-0.8-5.3-1.1c-0.7-0.1-1.3-0.3-1.898-0.4
	c-1.5-0.3-2.9-0.6-4.102-0.9l-0.6-0.1c5.898-11.6,19.898-45.1,13.898-93.5c-0.1-0.5-0.1-1-0.198-1.5l0,0
	c0.5,0.2,36.3,14,52.698,12.1h0.102c1.398-0.2,2.7-0.5,3.8-0.9c0,0,5.1-0.4,5.1-4.3c0-1.3-0.5-2.9-2.6-5.9c0.1,0.1,0.4,0.3,0.7,0.6
	c0.398,0.3,0.8,0.6,1.398,1.1c0.102,0.1,0.2,0.2,0.4,0.3c0.5,0.4,1,0.8,1.6,1.2c0.302,0.2,0.602,0.5,0.9,0.7
	c0.2,0.2,0.4,0.3,0.6,0.5c0.302,0.2,0.602,0.5,0.9,0.7c3.3,2.7,7.4,6.1,11.1,9.4c0.2,0.2,0.302,0.3,0.5,0.5
	c0.2,0.2,0.4,0.4,0.602,0.5c0.1,0.1,0.3,0.2,0.398,0.4c0.802,0.7,1.602,1.5,2.4,2.2c0.3,0.3,0.6,0.5,0.8,0.8
	c2.7,2.6,4.7,4.8,5.4,6.2c0,0.1,0.1,0.2,0.1,0.2C507.7,260.9,507.7,261,507.7,261z"/>
<path fill="#FFFFFF" stroke="#000000" stroke-miterlimit="10" d="M535.9,545.7c-21.4,8.5-46.5,12-70.5,13l-1.4-18.9
	C464,539.9,505.5,544.6,535.9,545.7z"/>
<path fill="#FFFFFF" stroke="#000000" stroke-miterlimit="10" d="M501.5,298.9c0,0.2,0,0.3,0,0.5c0,0.2-0.1,0.3-0.1,0.4
	c-1.7,4.7-17,1.4-17,1.4v0.1c-0.7-0.4-1.302-0.6-1.7-0.6c-0.102,0-0.102,0-0.2,0l0,0h-0.1c-0.102,0-0.302,0.2-0.302,0.4v0.1l0,0
	c6,18.1-10.6,17.3-10.6,17.3c-23.4-9.8-28.7-56.7-28.7-56.7c34,1.5,56.7,32.4,56.7,32.4c0.2,0.2,0.3,0.5,0.5,0.7
	c0.8,1.1,1.2,2.1,1.4,2.9C501.5,298.3,501.5,298.6,501.5,298.9z"/>
<path fill="#FFFFFF" stroke="#000000" stroke-miterlimit="10" d="M501.7,630.6c-1.7,0.302-6,1.102-12.3,2
	c-0.802,0.102-1.7,0.2-2.602,0.302c-1.2,0.198-2.5,0.3-3.8,0.5c-1.3,0.198-2.7,0.3-4.1,0.5c-0.7,0.1-1.4,0.198-2.2,0.198
	c-0.3,0-0.5,0.102-0.8,0.102c-0.802,0.1-1.7,0.2-2.602,0.3l-0.8,0.2c-0.8-4.102-1.7-8.2-2.6-12.3C476.5,624.1,490,627.7,501.7,630.6
	z"/>
<path fill="#FFFFFF" stroke="#000000" stroke-miterlimit="10" d="M450.3,217.1c31.9-11.1,45.4,13.2,42.4,16.7
	c-0.8,1-1.9,1.6-3.102,2c-0.1,0-0.198,0-0.3,0.1c-0.1,0-0.2,0.1-0.3,0.1c-1.6,0.4-3.4,0.3-4.9,0.2c0.102,0,0.2,0.1,0.302,0.1
	c-0.2,0-0.302,0-0.5,0c-2.5-1.3-4.102-1.7-4.102-0.9l0.2,0.2c0,0,0,0-0.1,0c0,0,0.1,0,0.1,0.1c2.1,3.1,2.6,4.7,2.6,5.9
	c0,3.9-5.1,4.3-5.1,4.3c-1.1,0.4-2.4,0.7-3.8,0.9h-0.1c-16.6,1.6-52.5-12.2-52.5-12.2c5.7-4.6,11-8.3,16-11.2
	c0.302-0.2,0.7-0.4,1-0.6c0.4-0.2,0.7-0.4,1.102-0.6c2-1.1,3.898-2,5.7-2.9c0.5-0.2,1-0.4,1.5-0.7c0.5-0.2,0.898-0.4,1.398-0.6
	c0.4-0.2,0.9-0.3,1.3-0.5C449.5,217.4,449.9,217.3,450.3,217.1z"/>
<path fill="#FFFFFF" stroke="#000000" stroke-miterlimit="10" d="M480,565.4c5.2,0,9.4,1.898,9.4,4.198c0,2.302-4.2,4.2-9.4,4.2
	s-9.4-1.898-9.4-4.2C470.6,567.3,474.8,565.4,480,565.4z"/>
<path fill="#FFFFFF" stroke="#000000" stroke-miterlimit="10" d="M473.6,716c-16.698,16.7-56.3,52.1-78.898,37.7
	c0-1,0.7-8.602,1.3-20.5l0.2-0.5c8.8-2.3,8,5.5,15.3-1.5c2.7-2.602,13.1,0.8,16-8.602c0,0,8.7,5.4,16-3.898c0,0,10.2-1.5,16.8-12.4
	c0,0,8.7,2.3,11.7-9.3c0,0,7-3.9,8.2-11.9c0.7,7.9,1.2,15.5,1.3,22.802C481.4,707.8,478.5,711.1,473.6,716z"/>
<path fill="#FFFFFF" stroke="#000000" stroke-miterlimit="10" d="M480.1,685L480.1,685c-1.1,8-8.198,11.9-8.198,11.9
	c-2.9,11.698-11.7,9.3-11.7,9.3c-6.5,10.898-16.8,12.398-16.8,12.398c-7.302,9.302-16,3.9-16,3.9c-2.9,9.3-13.302,6-16,8.6
	c-7.302,7-6.5-0.8-15.302,1.5l-0.198,0.5c0.198-4.8,0.5-10.398,0.698-16.5c8.802-2.3,9,3.602,16.2-3.398
	c2.7-2.602,13.102,0.8,16-8.5c0,0,8.7,5.398,16-3.9c0,0,10.2-1.5,16.8-12.398c0,0,8.7,2.3,11.602-9.302c0,0,4.1-1.398,5-9.1
	C479.1,675.1,479.7,680.1,480.1,685z"/>
<path fill="#FFFFFF" stroke="#000000" stroke-miterlimit="10" d="M147,439.8c3.1-8,6-15.1,8.6-21.3c3.5-8.2,6.4-14.8,8.6-19.6
	c2.9-6.4,4.7-9.7,4.7-9.7l0.2-0.3c13.9,7,30.9,10.5,51.9,8.1c0,0,0.7-0.3,1.8-0.8h0.8c0,0,47.3,27.2,85.2-18.7
	c0,0,45.2,28.8,72.102-20.2c0,0,6,13.8,15.198,36.5c2.4,6.101,5.102,12.8,7.9,20.102c3.2,8.3,6.7,17.198,10.2,26.698
	c0.5,1.4,1.1,2.9,1.6,4.4c2.102,5.8,4.3,11.8,6.602,17.9c2.1,5.698,4.198,11.6,6.3,17.6c2.5,7,4.898,14.2,7.398,21.5
	c2.2,6.7,4.5,13.4,6.602,20.3c0.1,0.4,0.3,0.8,0.398,1.3c0.9,2.7,2.602,7.7,4.9,14.9c1.8,5.7,4,12.8,6.4,21.2
	c1.8,6.398,3.8,13.6,5.898,21.6c1.4,5.5,2.9,11.5,4.4,17.8l0,0c1,4.2,2,8.5,3,13.102c0.7,3.3,1.5,6.7,2.2,10.1
	c0.898,4.101,1.8,8.3,2.6,12.3c1,4.9,1.9,9.801,2.7,14.602c1.2,7,2.3,13.898,3.2,20.6c-0.9,7.7-5,9.101-5,9.101
	c-2.9,11.699-11.602,9.301-11.602,9.301C455.2,699.1,445,700.6,445,700.6c-7.3,9.301-16,3.9-16,3.9c-2.9,9.3-13.3,5.899-16,8.5
	c-7.3,7-7.5,1.1-16.2,3.399l0,0l-1.898,6c-5.802,6.199-17.5,0-17.5,0c-2.2,8.5-13.102,3.101-13.102,3.101
	c-10.2,8.5-15.3-0.8-15.3-0.8c-4.4,7.8-16,1.5-16,1.5c-5.4,5.8-14.6,1.5-15.9,0.8c-0.198,3.2-0.3,6.2-0.5,9.1
	c-1.698,6.301-7.698,2.4-7.698,2.4c-8.7,10.1-15.302,2.3-15.302,2.3c-12.398,7.8-21.1-2.3-21.1-2.3c-3.6,9.3-16-2.3-16-2.3
	c-13.1,6.199-17.3,0.3-17.3,0.3s0,0.1-0.1,0.399l0,0c-0.2,0.699-0.7,2.5-2.4,4.801c-6.6,9.5-11.4,1.3-11.7,0.8
	c-5.8,6.2-13.8,0-13.8,0c-5.8,5.399-18.2-2.3-18.2-2.3c-10.2,9.3-18.2,0.8-18.2,0.8c-13.9,6.2-18.7-5.2-18.7-5.2
	c0,0.2-0.2,1.5-0.7,3.101s-1.3,3.399-2.5,4.399l-7.3-3.1c-10.9,6.199-16-5.5-16-5.5c-7.3,5.5-12.4-4.7-12.4-4.7
	c-8.7,3.1-13.1-9.3-13.1-9.3c-9.5,0.6-15.2-6.5-16.9-9.2l0,0c1.3-21.3,3.4-42,6-62c0.9-6.5,1.8-13,2.8-19.3
	c0.7-4.301,1.4-8.602,2.1-12.801c1-5.899,2.1-11.801,3.2-17.5c1.8-9.5,3.7-18.699,5.7-27.699c1.7-7.5,3.4-14.801,5.2-21.9
	c1.4-5.8,2.9-11.5,4.4-17.1c1.6-6.102,3.3-12.102,5-17.801c1.7-5.801,3.3-11.399,5-16.801c1.5-4.8,2.9-9.398,4.4-13.898
	c2.5-7.7,5-15,7.4-21.9c2-5.7,4-11.1,5.9-16.1C145.2,444.4,146.1,442.1,147,439.8z"/>
<path fill="#FFFFFF" stroke="#000000" stroke-miterlimit="10" d="M467,587.1V599v0.2c-0.5,0-1-0.102-1.6-0.2l-0.7,0.2l0,0
	c-1.5-6.3-3-12.2-4.4-17.8c1.5-0.102,5.2,0.1,6.7,0v1.1V587.1L467,587.1z"/>
<path fill="#FFFFFF" stroke="#000000" stroke-miterlimit="10" d="M467,372.4l-1.5,29.9c-6.7,0.4-10.6,0.5-10.6,0.5
	s-3.802-0.6-10.5-1.7l1.398-27.2C445.9,373.9,460.9,361.7,467,372.4z"/>
<path fill="#FFFFFF" stroke="#000000" stroke-miterlimit="10" d="M464,539.9l1.4,18.898c-2.102,0.102-8.9,1-11,1
	c-2.4-8.5-4.602-15.5-6.4-21.2l-0.6-15.1c5-0.4,10.1-0.9,15.198-1.4L464,539.9z"/>
<path fill="#FFFFFF" stroke="#000000" stroke-miterlimit="10" d="M464,421.3c0.2,1.3,1.4,8,1.3,13.5c-0.1,4.2-1,7.602-3.6,7.602
	c-2.7,0-6.3,0.5-9.4,0.898c-2.398,0.2-4.8,0.3-7.2,0.4v-7.3v-15.5l0.102-0.5c4.8,0.8,7.5,1.3,7.5,1.3S456.9,421.7,464,421.3z"/>
<path fill="#FFFFFF" stroke="#000000" stroke-miterlimit="10" d="M463.2,499.5l0.1,1.4c-5.8,0.398-11.6,0.6-17.398,0.698v-27V463.7
	V463c5.6-0.2,11.198-0.3,16.6-0.5l0.3,13.5L463.2,499.5z"/>
<path fill="#FFFFFF" stroke="#000000" stroke-miterlimit="10" d="M447.4,523.5l0.6,15.1c-2.3-7.198-4-12.1-4.9-14.898
	C445.9,523.6,444.2,523.7,447.4,523.5z"/>
<path fill="#FFFFFF" stroke="#000000" stroke-miterlimit="10" d="M445.9,474.7v27c-4.5,0.1-4.5,0.2-8.9,0.2l-0.9,0.3
	c-2.398-7.3-4.898-14.5-7.398-21.5l0.7-0.2C434.9,478.6,440.4,476.7,445.9,474.7z"/>
<path fill="#FFFFFF" stroke="#000000" stroke-miterlimit="10" d="M445.9,463.7V474.6c-5.4,2.102-10.9,4-16.5,5.7l-0.7,0.2
	c-2.102-6-4.2-11.9-6.3-17.6l0,0c7.1-0.2,16.398,0.198,23.398,0L445.9,463.7z"/>
<path fill="#FFFFFF" stroke="#000000" stroke-miterlimit="10" d="M445.2,420.6l-0.102,0.5v15.5c-11.6,1.802-19.5,2.802-30.898,4.102
	c-3.602-9.5-7-18.5-10.2-26.7l0,0C418.6,416.2,438,419.4,445.2,420.6z"/>
<path fill="#FFFFFF" stroke="#000000" stroke-miterlimit="10" d="M445.1,436.6v7.302l-26.5,1l-2.698,0.3
	c-0.5-1.5-1.102-2.9-1.602-4.4C425.6,439.4,433.5,438.3,445.1,436.6z"/>
<path fill="#FFFFFF" stroke="#000000" stroke-miterlimit="10" d="M421,236.2c6,48.4-8,81.9-13.9,93.5c-1.5,2.9-2.5,4.5-2.5,4.5
	c-5.198,8.3-14.898,16.6-24,23.1C369.3,365.4,358.9,371,358.9,371c-16,8.3-28.2-12.4-28.2-12.4c-1.5-2.2-2.602-4.3-3.3-6.2
	c8.698,5.6,7.198-1.6,7.198-1.6c7.802,2.6,6.302-5.2,6.302-5.2c11.198,0.8,4.398-9.9,4.398-9.9c11.2-8.3-2.898-13.5-2.898-13.5
	c5.3-4.2-2-7.8-2-7.8c-1-10.4-11.7-6.2-11.7-6.2c-2.9-7.3-9.2,0.5-9.2,0.5c-8.3-1.6-4.9,8-4.9,8l-0.1,0.1c-3.9-5.2-8.6-14-5.7-24.5
	c0.3-1.2,0.8-2.5,1.4-3.8c0,0,13.1-27.5,37.398-33.1c0,0,10.7-2.8,12.602-14.9l6.3,3l3.4-5.2l9.698,7.8l2.4-8.3l6.1,6.5l2.2-7
	l4.4,3.6l3.398-5.7l5.301,4.7l3.399-7.8l4.4,5.7l4.398-6.7l4.9,5.2L421,236.2z"/>
<path fill="#FFFFFF" stroke="#000000" stroke-miterlimit="10" d="M420.9,234.7c0.1,0.5,0.1,1,0.198,1.5h-0.3L415.9,231l-4.4,6.7
	l-4.4-5.7l-3.398,7.8l-5.3-4.7l-3.4,5.7l-4.4-3.6l1.802-2.4l1.1,0.8l2.4-5.7l5.8,3.1l1.898-6.7l7.802,4.7l3.398-7.3l5.102,4.9
	C420.3,230.7,420.6,232.7,420.9,234.7z"/>
<path fill="#FFFFFF" stroke="#000000" stroke-miterlimit="10" d="M420,228.7l-5.1-4.9l-3.4,7.3l-7.8-4.7l-1.9,6.7L396,230l-2.4,5.7
	l-1.1-0.8l-5.2-3.8l-0.2,6.2l-6.1-4.1l-3.4,6.2l-8.3-6.2l-3.7,5.7l-2.6-2c8.3-12.9,11.9-27.4,12.9-41.3l8.6,4.5l4.9-5.4l5.1,4.4
	l2.4-4.7l4.398,4.7l3.9-5.7l2.898,4.1l2.301-5.9c0.101,0.2,0.199,0.5,0.301,0.8c0,0.1,0.1,0.3,0.1,0.4c0,0.1,0.102,0.3,0.2,0.4
	c0.8,2.3,1.8,5.8,2.8,8.8l-0.3,0.1c-0.2-0.4-2.601-4.9-6.8,1.6c0,0-10.2-0.5-1,7.8c0,0-5.3,9.8,2.398,7.8c0,0,1.9,6.2,7.301,1
	c0,0,1.5,1,3.399,2.1l0,0c0.4,1.7,0.7,3.5,1,5.2C419.8,227.8,419.9,228.3,420,228.7z M395.5,225.8c0,0,6.8-4.1,1.9-10.4
	c0,0,2.898-9.8-4.4-8.8c0,0-6.8-6.7-8.7,2.6c0,0-10.2,4.7-3.398,11.4c0,0-3.4,5.7,5.8,5.7C386.7,226.4,390.1,232.1,395.5,225.8z"/>
<path fill="#FFFFFF" stroke="#000000" stroke-miterlimit="10" d="M418.8,222.2L418.8,222.2c-2-1-3.398-2.1-3.398-2.1
	c-5.302,5.2-7.302-1-7.302-1c-7.8,2.1-2.398-7.8-2.398-7.8c-9.2-8.3,1-7.8,1-7.8c4.2-6.5,6.6-1.9,6.8-1.6l0.3-0.1
	c0.7,2.2,1.3,4.3,1.602,5.4c0,0.1,0,0.2,0.1,0.2c0.1,0.2,0.1,0.4,0.2,0.6c-0.7-0.9-1.8-1.5-2.8-1.5c-2.302,0-4.102,2.4-4.102,5.4
	s1.8,5.4,4.102,5.4c0.198,0,0.3,0,0.5,0c0.5,0,0.898-0.2,1.3-0.5c0,0,0.1,0,0.1-0.1c1.2-0.8,2-2.2,2.2-4c0.7,2.8,1.3,5.5,1.8,8.2
	C418.7,221.6,418.7,221.9,418.8,222.2z"/>
<path fill="#FFFFFF" stroke="#000000" stroke-miterlimit="10" d="M415.5,208.1c0.8,3.9,0.9,3.3,1.2,4.9c-0.8,2-1.3,3.3-2.2,4
	l-0.1,0.1c-0.4,0.3-0.802,0.4-1.302,0.5c-0.1,0-0.3,0-0.5,0c-2.3,0-4.1-2.4-4.1-5.4s1.8-5.4,4.1-5.4
	C413.8,206.7,414.8,207.2,415.5,208.1z"/>
<path fill="#FFFFFF" stroke="#000000" stroke-miterlimit="10" d="M407.4,183.8v-0.2c1,2.7,2,5.3,2.898,7.9l-2.3,5.9l-2.9-4.1
	L401.2,199l-4.4-4.7L394.4,199l-5.102-4.4L384.4,200l-8.602-4.5c0.102-1.4,0.2-2.9,0.2-4.3l7.7,5.1l5.8-7.3l3.9,5.7l2.398-5.7
	l4.4,4.7l1.898-6.2l3.9,3.1L407.4,183.8z"/>
<path fill="#FFFFFF" stroke="#000000" stroke-miterlimit="10" d="M407.4,183.8l-1.302,6.9l-3.898-3.1l-1.9,6.2l-4.398-4.7l-2.4,5.7
	l-3.9-5.7l-5.8,7.3l-7.7-5.1c0.802-24.9-6.398-47.4-9.1-54.9c24.7,2.9,29.5,22.7,29.5,22.7c3.8,7.4,7,14.5,9.9,21.5
	c0.1,0.1,0.1,0.3,0.198,0.4C406.9,182.1,407.2,183,407.4,183.8z"/>
<path fill="#FFFFFF" stroke="#000000" stroke-miterlimit="10" d="M397.4,215.5c4.898,6.2-1.9,10.4-1.9,10.4
	c-5.3,6.2-8.8,0.5-8.8,0.5c-9.2,0-5.8-5.7-5.8-5.7c-6.802-6.7,3.398-11.4,3.398-11.4c2-9.3,8.7-2.6,8.7-2.6
	C400.3,205.6,397.4,215.5,397.4,215.5z M395,217c0-3-2.2-5.4-4.9-5.4c-2.698,0-4.898,2.4-4.898,5.4s2.2,5.4,4.898,5.4
	C392.8,222.5,395,220,395,217z"/>
<path fill="#FFFFFF" stroke="#000000" stroke-miterlimit="10" d="M396.7,716.6L396.7,716.6c-0.2,6.102-0.4,11.7-0.7,16.5l-2.7,7.302
	c-5.8,6.198-17.5,0-17.5,0c-2.2,8.5-13.1,3.1-13.1,3.1c-10.2,8.5-15.3-0.8-15.3-0.8c-4.4,7.8-16,1.5-16,1.5
	c-5.802,6.2-14.802,1.1-14.802,1.1H316c0.2-2.8,0.3-5.8,0.5-8.899c0.2-2.899,0.3-6,0.5-9.101c1.3,0.601,10.5,4.9,15.9-0.8
	c0,0,11.6,6.2,16-1.5c0,0,5.1,9.3,15.3,0.8c0,0,10.898,5.5,13.1-3.1c0,0,11.7,6.2,17.5,0L396.7,716.6z"/>
<path fill="#FFFFFF" stroke="#000000" stroke-miterlimit="10" d="M393.3,740.4l2.7-7.302c-0.6,11.9-1.2,19.5-1.3,20.5
	c-12.4,21.802-79.4,11.7-79.4,11.7h-0.5c0.2-3.2,0.5-8.2,0.8-14.5c0.102-1.7,0.2-3.5,0.302-5.5h0.6c0,0,9,5.2,14.8-1.1
	c0,0,11.7,6.2,16-1.5c0,0,5.102,9.3,15.3,0.8c0,0,10.9,5.4,13.102-3.1C375.8,740.5,387.4,746.7,393.3,740.4z"/>
<path fill="#FFFFFF" stroke="#000000" stroke-miterlimit="10" d="M390.1,211.6c2.7,0,4.9,2.4,4.9,5.4s-2.2,5.4-4.9,5.4
	c-2.698,0-4.898-2.4-4.898-5.4S387.4,211.6,390.1,211.6z"/>
<path fill="#FFFFFF" stroke="#000000" stroke-miterlimit="10" d="M387.2,231l5.2,3.8l-1.802,2.4l-2.198,7l-6.102-6.5L379.9,246
	l-9.7-7.8l-3.4,5.2l-6.3-3c0.9-1.2,1.7-2.5,2.5-3.7l2.6,2l3.7-5.7l8.3,6.2l3.4-6.2l6.1,4.1L387.2,231z"/>
<path fill="#FFFFFF" stroke="#000000" stroke-miterlimit="10" d="M380.7,357.2l0.2,0.2c-27,49-72.102,20.2-72.102,20.2
	c-10.199-4.7-20.398-23.3-20.398-23.3l0.1-0.3c6.8,2.4,20.4,5.2,31.2-4.9c0,0,0.2-0.5,2.7-2.6c2.398-2.1,3.6-1,3.6-1s0,2.8,1.5,6.8
	c0.7,1.9,1.8,4,3.3,6.2c0,0,12.2,20.7,28.2,12.4C359,370.9,369.4,365.3,380.7,357.2z"/>
<path fill="#FFFFFF" stroke="#000000" stroke-miterlimit="10" d="M353.7,147.4c-2.3,0.8-9.5,0.5-17-0.2l0.1-0.8
	c0,0-4.398-11.3-21.898-15.5l-0.602-0.4c4-7.3,6.8-15.7,8.8-24l1,0.2c0,0,37.5,7.8,41.9,26.8c0,0,0.4,0.9,1,2.7
	c2.7,7.5,9.9,29.9,9.1,54.9c0,1.4-0.1,2.8-0.198,4.3c-0.9,13.9-4.5,28.4-12.9,41.3c-0.8,1.2-1.7,2.5-2.5,3.7c0,0,3.6-63.7-17.7-85.1
	C348.1,152,353.4,147.7,353.7,147.4z"/>
<path fill="#FFFFFF" stroke="#000000" stroke-miterlimit="10" d="M342.8,155.4c21.3,21.4,17.7,85.1,17.7,85.1
	c-1.9,12-12.6,14.9-12.6,14.9c-24.302,5.7-37.4,33.1-37.4,33.1c-0.6,1.3-1,2.5-1.4,3.8c0.2-13.6-9.8-59.6-9.8-59.6
	c-5.1-19-1.8-18.3-1.8-18.3c9.5-6.6,17.5-43.1,17.5-43.1l-0.1-0.3c11.398-4.6,11.3-13.6,11.3-13.6
	C331.9,159.5,342.8,155.4,342.8,155.4z"/>
<path fill="#FFFFFF" stroke="#000000" stroke-miterlimit="10" d="M353.7,147.4c-0.3,0.3-5.602,4.6-10.9,7.9c0,0-10.898,4.1-16.8,2
	c0,0,0.2,9-11.3,13.6c-5,2-12.4,3.2-23,2.3c0,0-1.101-5.6-3.8-8.8c0.898-0.9,17.8-17.7,26.198-19.5l0,0c0.7-0.2,1.4-0.2,2-0.1
	c0,0,10.5,1.5,20.5,2.3C344.2,147.9,351.5,148.3,353.7,147.4z"/>
<path fill="#FFFFFF" stroke="#000000" stroke-miterlimit="10" d="M342.5,322.2c0,0,14.1,5.2,2.9,13.5c0,0,6.8,10.6-4.4,9.9
	c0,0,1.5,7.8-6.3,5.2c0,0,1.398,7.2-7.2,1.6c-1.5-3.9-1.5-6.8-1.5-6.8c15.1,8.8,11.2-19.2,11.2-19.2c-11.602-18.6-18-4.7-18-4.7
	s-2.102-1.8-4.4-4.9l0.102-0.1c0,0-3.4-9.6,4.898-8c0,0,6.3-7.8,9.2-0.5c0,0,10.7-4.1,11.7,6.2C340.6,314.4,347.9,318,342.5,322.2z"
	/>
<path fill="#FFFFFF" stroke="#000000" stroke-miterlimit="10" d="M337.2,326.3c0,0,3.898,28-11.2,19.2c0,0,9.2-11.4-6.8-23.8
	C319.2,321.7,325.5,307.7,337.2,326.3z"/>
<path fill="#FFFFFF" stroke="#000000" stroke-miterlimit="10" d="M336.8,146.5l-0.1,0.8c-10-0.9-20.5-2.3-20.5-2.3
	c-0.602-0.1-1.3-0.1-2,0.1V145c0.7-1.9-4.4-7-4.4-7l-0.2-0.2c1.7-2.2,3.302-4.6,4.7-7.2l0.602,0.4
	C332.4,135.2,336.8,146.5,336.8,146.5z"/>
<path fill="#FFFFFF" stroke="#000000" stroke-miterlimit="10" d="M327.7,67.6c0,0,0.1,19.1-4.602,39c-2,8.3-4.8,16.7-8.8,24
	c-1.398,2.6-3,5-4.7,7.2c-3.6,4.6-7.999,8.4-13.198,10.7c0,0-5.9,8.9-10.7,14.1c-1.8,1.9-3.4,3.3-4.6,3.6c-1.9,0.5-3.5-2-4.9-5.1
	c4.2-1.7,8.6-5.4,11.8-13c0,0,13.6-24.3,11.9-56.5c-0.102-2.4-0.301-4.8-0.602-7.2c0,0-7-42.7-53-55.8c-4.2-1.2-8.8-2.2-13.7-2.8
	c0,0-5.2,3.1-11.6,11.4c-6.8,8.6-15,22.9-20.4,45.3c0,0,1.1,30.3,6.6,48.6c0,0,15.6,15.3,24.3,19.9c1,0.5,1.9,0.9,2.7,1.1
	c0,0,1.5-1.9,28.8,9.3c0,0,6.3,2.5,13.1-0.2c0.2,1.3,0.3,2.6,0.2,3.6c-0.1,1.1-0.4,1.9-0.9,2.4c0,0-1.8,3.5-5.8,1.9s-4-0.8-4-0.8
	s-36.8-3.2-46.9-3.8c-1.1-0.1-1.9-0.1-2.3-0.1c0,0-7.3,0.6-15.6-0.7c-9.1-1.4-19.5-5.2-22.7-14.8c-0.3-0.9-0.5-1.8-0.7-2.8
	c0,0-10.6-58.7,51-135.2C228.3,10.9,312,24.9,327.7,67.6z"/>
<path fill="#FFFFFF" stroke="#000000" stroke-miterlimit="10" d="M319.2,321.7c16,12.4,6.8,23.8,6.8,23.8s-1.2-1.1-3.6,1
	c-2.4,2.1-2.7,2.6-2.7,2.6c-10.8,10.1-24.5,7.3-31.2,4.9c-0.4-0.2-0.8-0.3-1.2-0.5c-1.899-0.7-3-1.3-3-1.3c-2.9-2.6-17,14.5-17,14.5
	c-9.7,4.1-4.4-6.2-4.4-6.2l-0.1-0.1c-2.3,1.9-3.8,3.2-3.8,3.2c-7.6-2.5,2-10,2.4-10.3l0,0c4.9,1,19.9-17.9,19.9-17.9
	c1.9,1.6,9.2-0.8,9.2-0.8c0.5,5.2,8.2,8.3,10,6.5c1.1-1.1,0-6.5,0-6.5c0-4.4-8-8.3-8-8.3c3.1-2.5,2.9-4.5,2-5.9
	c1-1.1,11.1,1.2,11.1,1.2C311.9,325.3,319.2,321.7,319.2,321.7z"/>
<path fill="#FFFFFF" stroke="#000000" stroke-miterlimit="10" d="M314.8,316.8c2.3,3.1,4.4,4.9,4.4,4.9s-7.3,3.6-13.601,0
	c0,0-10.101-2.3-11.101-1.2c-0.8-1.2-2-1.9-2-1.9c3.899-10.4-13.6-10.9-13.6-10.9c1.4-9.3,10.701-16.6,10.701-16.6
	c5.301-3.1,2.899-8.8,2.899-8.8c-3.399,0.3-8.101,3.7-11.7,6.8l-0.1-0.1c1.5-6.6-10.2-55.9-10.2-55.9c0-1.6-0.4-3.3-1.2-5l0.1-0.1
	c0,0,2.9-33.8,8.9-38.7c0,0,8,0.4,8.398-1.9c0,0,7.701-3.3,5.102-14.2c10.602,0.9,17.9-0.3,23-2.3l0.102,0.3c0,0-8,36.5-17.5,43.1
	c0,0-3.301-0.8,1.799,18.3c0,0,10.001,46,9.801,59.6C306.2,302.8,310.9,311.6,314.8,316.8z"/>
<path fill="#FFFFFF" stroke="#000000" stroke-miterlimit="10" d="M316.4,736.4c-0.2,3.1-0.302,6.1-0.5,8.898
	c-0.102,1.9-0.2,3.8-0.302,5.5h-0.1c-0.7,9.3-7.5,3.602-7.5,3.602c-8.7,10.1-15.3,2.3-15.3,2.3c-12.4,7.8-21.1-2.3-21.1-2.3
	c-3.6,9.3-16-2.302-16-2.302c-13.1,6.2-18.2-0.3-18.2-0.3s0,2.2-1.1,4.9c1-5.7,1.9-12.2,2.7-19.5l0,0c0.1-0.2,0.1-0.4,0.1-0.4
	s4.1,6,17.3-0.3c0,0,12.4,11.7,16,2.3c0,0,8.7,10.102,21.1,2.3c0,0,6.601,7.802,15.3-2.3C308.8,738.9,314.8,742.7,316.4,736.4z"/>
<path fill="#FFFFFF" stroke="#000000" stroke-miterlimit="10" d="M315.6,750.8L315.6,750.8c-0.3,6.3-0.6,11.3-0.698,14.5
	c-0.102,2.5-0.2,3.9-0.2,3.9c-16.801,14.8-83.8,7-83.8,7h-0.1c2.1-3.5,3.9-10.3,5.5-19.4c1.1-2.7,1.1-4.898,1.1-4.898
	s5.1,6.5,18.2,0.3c0,0,12.4,11.7,16,2.3c0,0,8.7,10.1,21.1,2.3c0,0,6.6,7.8,15.3-2.3C308,754.4,314.8,760.1,315.6,750.8z"/>
<path fill="#FFFFFF" stroke="#000000" stroke-miterlimit="10" d="M309.9,137.9c0,0,5.1,5,4.398,7v0.1l0,0
	c-8.398,1.7-25.3,18.5-26.199,19.5c-0.601-0.7-1.301-1.3-2-1.7l-0.301-0.3c4.9-5.2,10.7-14.1,10.7-14.1c5.2-2.3,9.6-6,13.2-10.7
	L309.9,137.9z"/>
<path fill="#FFFFFF" stroke="#000000" stroke-miterlimit="10" d="M300.5,334.6c0,0,1.1,5.3,0,6.5c-1.7,1.9-9.5-1.3-10-6.5
	c0,0-7.3,2.3-9.2,0.8c0,0-15.1,18.9-19.9,17.9l0,0c-0.5,0.1-12.2,3.5-14.6,1l-0.2,0.1c-2.1-4.1-6.2-14.2-0.7-25.7
	c0.4-0.9,0.9-2,1.3-3.3c0.6,1,2.6,3.5,4.9,1c0,0,15.1-28.5,23.3-32.1c0,0,2.3-2.4,5.3-5.1c3.6-3.1,8.3-6.6,11.7-6.8
	c0,0,2.398,5.7-2.9,8.8c0,0-9.2,7.3-10.7,16.6c0,0,17.5,0.5,13.601,10.9c0,0,1.301,0.7,2,1.9c0.899,1.4,1.101,3.4-2,5.9
	C292.5,326.3,300.5,330.2,300.5,334.6z"/>
<path fill="#FFFFFF" stroke="#000000" stroke-miterlimit="10" d="M299.9,91.5C301.6,123.7,288,148,288,148
	c-3.2,7.5-7.6,11.2-11.8,13c-0.2-0.5-0.4-1-0.6-1.4c-0.8-3.6-2.1-7.1-2.2-7.6c0.1,0.4,0.9,4.1,2.2,7.6c0.1,0.5,0.2,1,0.3,1.5
	c-6.8,2.6-13.1,0.2-13.1,0.2C235.5,150,234,152,234,152c-0.8-0.2-1.7-0.6-2.7-1.1c-7.5-7.2-15.9-39.3-15.9-39.3
	c-8.4-22.1,9.8-36.9,9.8-36.9c12.4-1.9,11.7-23.7,11.7-23.7c9.5,17.9,32.8,11.3,32.8,11.3C286.7,69.1,298.7,89.4,299.9,91.5z
	 M268.8,139.5c9-6.2,8.8-18.6,8.8-18.6c-1.5,2.2-4,5.9-5.3,5.9c-5.8,0-7.3,3.1-7.3,3.1c-5.5-0.3-5.5,2.5-8.2,4
	c-2.6,1.6-7.6-0.6-7.6-0.6C256,143,268.8,139.5,268.8,139.5z M287.1,83.9C259.9,74.6,266,96.3,266,96.3
	C285,98.9,287.1,83.9,287.1,83.9z M256.7,72.6c0,0,7.6-5.4,23.3,1.5c0,0-10.6-15.5-26.6-5.8C253.4,68.4,250.8,72.3,256.7,72.6z
	 M237.7,82.4c3.6-4.7,0.4-8.2,0.4-8.2c-18.2,10.1-17.8,21-17.8,21C230.8,85.5,237.7,82.4,237.7,82.4z M244.9,105.4
	c-17.5-17.6-23.8,7.5-23.8,7.5C237.4,118.1,244.9,105.4,244.9,105.4z"/>
<path fill="#FFFFFF" stroke="#000000" stroke-miterlimit="10" d="M299.3,84.3c0.3,2.4,0.5,4.8,0.601,7.2
	c-1.199-2.1-13.199-22.4-30.101-29.3c0,0-23.3,6.6-32.8-11.3c0,0,0.7,21.8-11.7,23.7c0,0-18.2,14.8-9.8,36.9c0,0,8.4,32.1,15.9,39.3
	c-8.7-4.5-24.3-19.9-24.3-19.9c-5.5-18.3-6.6-48.6-6.6-48.6C206,60,214.2,45.7,221,37l0.4,0.3c0,0,8-4.7,11.7-1.2
	c0,0,5.8-7.8,13.1-7l0.2-0.7C292.3,41.6,299.3,84.3,299.3,84.3z"/>
<path fill="#FFFFFF" stroke="#000000" stroke-miterlimit="10" d="M288.4,354.3c0,0,10.199,18.7,20.398,23.3
	c-37.9,45.9-85.2,18.7-85.2,18.7h-0.8c4.2-2,14.9-8.1,20.9-18.8l0.2,0.1c41.5,4.7,43.201-23.8,43.201-23.8l0.101-0.3
	c0.399,0.2,0.8,0.3,1.2,0.5V354.3z"/>
<path fill="#FFFFFF" stroke="#000000" stroke-miterlimit="10" d="M291.8,173.3c2.601,10.9-5.1,14.2-5.1,14.2
	c-0.4,2.3-8.4,1.9-8.4,1.9c-2.9,2.5-6.9-1.4-6.9-1.4c0-5.6-4.6-13.2-4.6-13.2c-0.4-0.7-0.6-1.3-0.8-1.9c-1.1-3-0.6-4.6-0.6-4.6
	s0-0.8,4,0.8s5.8-1.9,5.8-1.9c0.6-0.5,0.8-1.3,0.9-2.4c0.1-1,0-2.3-0.2-3.6c0.1,0,0.2-0.1,0.3-0.1c1.3,3.1,3,5.6,4.9,5.1
	c1.2-0.3,2.8-1.7,4.6-3.6l0.3,0.3c0.8,0.4,1.5,1,2,1.7C290.7,167.7,291.8,173.3,291.8,173.3z"/>
<path fill="#FFFFFF" stroke="#000000" stroke-miterlimit="10" d="M287.2,353.5l-0.101,0.3c0,0-1.699,28.5-43.201,23.8l-0.2-0.1
	c1-1.7,1.9-3.6,2.5-5.6c1.3-3.6,2-7.7,1.8-12.1c-0.1-1.1-0.2-2.3-0.3-3.5c0,0-0.5-0.7-1.1-1.9l0.2-0.1c2.4,2.5,14-0.9,14.6-1
	c-0.4,0.3-10,7.8-2.4,10.3c0,0,1.5-1.3,3.8-3.2l0.1,0.1c0,0-5.3,10.4,4.4,6.2c0,0,14.1-17.1,17-14.5
	C284.2,352.2,285.3,352.8,287.2,353.5z"/>
<path fill="#FFFFFF" stroke="#000000" stroke-miterlimit="10" d="M280.7,289l0.1,0.1c-3.1,2.7-5.3,5.1-5.3,5.1
	c-8.3,3.6-23.3,32.1-23.3,32.1c-2.4,2.5-4.3,0-4.9-1c1.2-3.6,2-8.7,0.6-14.9c-2.2-9.5-9.9-21.5-30.1-34.2c0,0,23.7-22.2,10.4-65.5
	c0,0,7.5-6,25.1,2.1c0,0,1.5,0.9,2.9-1c1.3,1.2,10,8.9,13.2,16.2c0.8,1.7,1.2,3.4,1.2,5C270.5,233.1,282.2,282.4,280.7,289z"/>
<path fill="#FFFFFF" stroke="#000000" stroke-miterlimit="10" d="M274.8,84c3,0,5.5,2.3,5.5,5s-2.5,5.1-5.5,5.1s-5.5-2.3-5.5-5.1
	S271.7,84,274.8,84z"/>
<path fill="#FFFFFF" stroke="#000000" stroke-miterlimit="10" d="M277.5,120.9c0,0,0.3,12.4-8.8,18.6c0,0-12.8,3.4-19.5-6.2
	c0,0,5,2.2,7.6,0.6c2.6-1.5,2.6-4.3,8.2-4c0,0,1.4-3.1,7.3-3.1C273.6,126.8,276.1,123.1,277.5,120.9z"/>
<path fill="#FFFFFF" stroke="#000000" stroke-miterlimit="10" d="M271.4,188c0,0,4,3.9,6.9,1.4c-6,4.9-8.9,38.7-8.9,38.7l-0.1,0.1
	c-3.2-7.3-11.8-15.1-13.2-16.2c0.9-1.2,1.7-3.6,2-8.1C258.1,203.8,258.5,191.7,271.4,188z"/>
<path fill="#FFFFFF" stroke="#000000" stroke-miterlimit="10" d="M266,96.3c0,0-6.1-21.8,21.1-12.4C287.1,83.9,285,98.9,266,96.3z
	 M280.2,89.1c0-2.8-2.5-5-5.5-5s-5.5,2.3-5.5,5c0,2.7,2.4,5.1,5.5,5.1C277.8,94.2,280.2,91.9,280.2,89.1z"/>
<path fill="#FFFFFF" stroke="#000000" stroke-miterlimit="10" d="M266.9,174.8c0,0,4.6,7.6,4.6,13.2c-12.9,3.7-13.3,15.7-13.3,15.7
	c-0.3,4.5-1.1,6.9-2,8.1c-1.4,1.9-2.9,1-2.9,1c-17.7-8.2-25.1-2.1-25.1-2.1c-6,1.9-8.9,7.4-9.5,7.4c-0.5,0,0.2-4.3,0.2-4.3
	c0.3-3.1,2.3-7.4,5.1-12c3.4-5.6,8-11.5,11.9-16.3c4.3-5.3,7.7-9,7.7-9c2.6-4.6,20.8-3.8,22.5-3.7
	C266.2,173.5,266.5,174.1,266.9,174.8z"/>
<path fill="#FFFFFF" stroke="#000000" stroke-miterlimit="10" d="M280,74.2c-15.7-7-23.3-1.5-23.3-1.5c-5.8-0.4-3.3-4.3-3.3-4.3
	C269.4,58.7,280,74.2,280,74.2z"/>
<path fill="#FFFFFF" stroke="#000000" stroke-miterlimit="10" d="M265.4,168.2c0,0-0.5,1.6,0.6,4.6c-1.7-0.1-19.9-0.9-22.5,3.7
	c0,0-3.4,3.8-7.7,9c-2.5-4-14.9-18.3-17.3-21.1C228.6,165,265.4,168.2,265.4,168.2z"/>
<path fill="#FFFFFF" stroke="#000000" stroke-miterlimit="10" d="M248,359.7c0.1,4.5-0.6,8.5-1.8,12.1c-1.8,1.9-12.6,12.2-15.8-5.7
	c0,0-19.1,1.5-7.5-16.1c0,0-17.5-8.7,0-17.9c0,0-10.6-17.1,4.6-15c0,0,1.1-19.4,12.2-3.9c0,0,0.3-15.5,8.1-2.9
	c1.4,6.2,0.6,11.3-0.6,14.9c-0.1-0.2-0.2-0.4-0.2-0.4s-7.8-10.9-13.5-0.2c0,0-16.4,41.5,14.2,35L248,359.7z"/>
<path fill="#FFFFFF" stroke="#000000" stroke-miterlimit="10" d="M248,359.7h-0.3c-30.6,6.6-14.2-35-14.2-35
	c5.6-10.7,13.5,0.2,13.5,0.2s0.1,0.2,0.2,0.4c-0.4,1.3-0.9,2.4-1.3,3.3c-5.5,11.5-1.4,21.7,0.7,25.7c0.6,1.2,1.1,1.9,1.1,1.9
	C247.9,357.4,248,358.6,248,359.7z"/>
<path fill="#FFFFFF" stroke="#000000" stroke-miterlimit="10" d="M246.3,28.5l-0.2,0.7c-7.3-0.8-13.1,7-13.1,7
	c-3.7-3.5-11.7,1.2-11.7,1.2L221,37c6.5-8.3,11.6-11.4,11.6-11.4C237.5,26.3,242.1,27.3,246.3,28.5z"/>
<path fill="#FFFFFF" stroke="#000000" stroke-miterlimit="10" d="M117.6,319.7c-6.5-20.6-7.7-37.3-7.7-37.3
	c-0.9-8.4-0.2-16.9,1.5-25.2l2.2,10l8-7l1.8,7.4l7.3-5.4l1.8,6.2l6.1-3.5l5.9,6.2l6.6-5.8l4.4,7.4l7.4-4.2l4.2,5.8l6.2-6.6l4.7,5.8
	l6.6-6.2l5.5,6.2l5.8-7.8l7.6,6.2l7.1-5c0,2.3-0.1,4.5-0.2,6.9c0,0,5.8,1.9,7.3,2.3c20.3,12.7,27.9,24.7,30.1,34.2
	c-7.8-12.6-8.1,2.9-8.1,2.9c-11.1-15.5-12.2,3.9-12.2,3.9c-15.1-2.1-4.6,15-4.6,15c-17.5,9.1,0,17.9,0,17.9
	c-11.6,17.7,7.5,16.1,7.5,16.1c3.2,17.9,13.9,7.6,15.8,5.7c-0.7,2-1.6,3.9-2.5,5.6c-6.1,10.7-16.7,16.7-20.9,18.8
	c-1.1,0.5-1.8,0.8-1.8,0.8c-21,2.4-38.1-1.1-51.9-8.1C140.2,374.3,125.2,344.2,117.6,319.7z"/>
<path fill="#FFFFFF" stroke="#000000" stroke-miterlimit="10" d="M224.3,758.3c-5.8,6.2-13.9,0-13.9,0c-5.8,5.5-18.2-2.3-18.2-2.3
	c-10.2,9.3-18.2,0.8-18.2,0.8c-13.8,6.2-19.7-6.2-19.7-6.2s0.1,1.7-0.4,3.5c0.4-4.398,0.9-9.398,1.4-14.898
	c0.5-1.602,0.7-2.9,0.7-3.102c0,0,4.9,11.4,18.7,5.2c0,0,8,8.5,18.2-0.8c0,0,12.4,7.8,18.2,2.3c0,0,8,6.2,13.8,0
	c0.3,0.5,5,8.7,11.7-0.8c1.6-2.3,2.2-4.1,2.4-4.8c-0.8,7.3-1.7,13.898-2.7,19.5c-0.1,0.3-0.2,0.5-0.4,0.8
	C231,768.1,224.6,758.9,224.3,758.3z"/>
<path fill="#FFFFFF" stroke="#000000" stroke-miterlimit="10" d="M238.1,74.2c0,0,3.3,3.5-0.4,8.2c0,0-6.9,3.1-17.5,12.8
	C220.2,95.2,219.9,84.3,238.1,74.2z"/>
<path fill="#FFFFFF" stroke="#000000" stroke-miterlimit="10" d="M233,101.1c3,0,5.4,2.3,5.4,5.1c0,2.8-2.4,5-5.4,5s-5.5-2.3-5.5-5
	C227.5,103.5,230,101.1,233,101.1z"/>
<path fill="#FFFFFF" stroke="#000000" stroke-miterlimit="10" d="M235.9,757.5c0.1-0.3,0.3-0.6,0.4-0.8
	c-1.6,9.1-3.4,15.898-5.5,19.398c-0.7,1.102-1.4,1.9-2.1,2.4c-17.6,10.5-72.7-5.8-76.3-6.9c0.3-3.1,0.8-9.198,1.6-17.6
	c0.5-1.8,0.4-3.5,0.4-3.5s5.8,12.4,19.7,6.2c0,0,8,8.5,18.2-0.8c0,0,12.4,7.8,18.2,2.3c0,0,8,6.2,13.9,0
	C224.6,758.9,231,768.1,235.9,757.5z"/>
<path fill="#FFFFFF" stroke="#000000" stroke-miterlimit="10" d="M221.1,112.9c0,0,6.3-25.1,23.8-7.5
	C244.9,105.4,237.4,118.1,221.1,112.9z M238.4,106.2c0-2.8-2.4-5.1-5.4-5.1s-5.5,2.3-5.5,5.1c0,2.8,2.5,5,5.5,5
	S238.4,109,238.4,106.2z"/>
<path fill="#FFFFFF" stroke="#000000" stroke-miterlimit="10" d="M235.8,185.6c-3.9,4.7-8.5,10.7-11.9,16.3l-0.4-0.2
	c0,0-12.5-30.7-22.9-38c8.3,1.3,15.6,0.7,15.6,0.7c0.4,0,1.2,0,2.3,0.1C220.9,167.2,233.3,181.5,235.8,185.6z"/>
<path fill="#FFFFFF" stroke="#000000" stroke-miterlimit="10" d="M228.1,210.7c13.3,43.3-10.4,65.5-10.4,65.5
	c-1.5-0.4-7.3-2.3-7.3-2.3c0.1-2.3,0.2-4.6,0.2-6.9s0-4.5-0.1-6.7c-0.2-7.6-1-14.6-2.3-21.1c-0.5-2.8-1.1-5.5-1.8-8.1
	c-12.1-45.7-46.7-58.6-46.7-58.6c-5-20.8,15-23.4,18.2-23.7c3.2,9.6,13.5,13.4,22.7,14.8c10.4,7.3,22.9,38,22.9,38l0.4,0.2
	c-2.8,4.6-4.9,8.9-5.1,12c0,0-0.7,4.3-0.2,4.3S222.1,212.7,228.1,210.7z"/>
<path fill="#FFFFFF" stroke="#000000" stroke-miterlimit="10" d="M210.6,260.3c0.1,2.2,0.1,4.4,0.1,6.7l-7.1,5l-7.6-6.2l-5.8,7.8
	l-5.5-6.2l-6.6,6.2l-4.7-5.8l-6.2,6.6l-4.2-5.8l-7.4,4.2l-4.4-7.4l-6.6,5.8l-5.9-6.2l-6.1,3.5l-1.8-6.2l-7.3,5.4l-1.8-7.4l-8,7
	l-2.2-10c0.4-2.3,1-4.5,1.6-6.7l0.2,0.1l2.6,9.7l7.3-4.7l0.7,5.1l7.3-5.4l3.3,7.8l6.5-5.1l4,6.2l8-4.7l4,7.8l7.3-6.2l3.3,6.2
	l6.2-6.6l4.7,5.8l6.6-6.2l5.5,6.2l5.8-7.8l7.6,6.2L210.6,260.3z"/>
<path fill="#FFFFFF" stroke="#000000" stroke-miterlimit="10" d="M210.6,260.3l-6.7,4.7l-7.6-6.2l-5.8,7.8l-5.5-6.2l-6.6,6.2
	l-4.7-5.8l-6.2,6.6l-3.3-6.2l-7.3,6.2l-4-7.8l-8,4.7l-4-6.2l-6.5,5.1l-3.3-7.8l-7.3,5.4l-0.7-5.1l-7.3,4.7l-2.6-9.7l-0.2-0.1
	c1.1-3.9,2.3-7.8,3.8-11.6l1.8,0.7c-0.8,2.2-0.5,4.7,2.7,7.1c0,0,0,9.7,9.1,3.1c0,0,9.5,0.8,6.9-6.6c0,0,4.7-5-2.6-7.8
	c0,0-1.3-4.6-5-4.6l1-1.2l9.9-5.4l2.5,7.4l8-6.6l5.4,4.3l2.7-0.8l5-1.5l5.8,6.2l6.6-6.2l5.1,7.8l6.9-6.2l2.6,8.2l5.8-6.2l10.9,8.9
	l0.5-0.1C209.6,245.7,210.3,252.7,210.6,260.3z M190,255.6c0,0,12.4,0.4,7.3-6.6c0,0,2.2-12-5.1-7.8c0,0-9.5-7-10.6,2.3
	c0,0-10.9,7,0.7,10.9C182.4,254.5,187.4,261.1,190,255.6z M162.7,254.8c0,0,9.1-0.8,5.1-8.9c0,0,6.2-7.8-4-8.2c0,0-4.7-8.2-10.2-0.4
	c0,0-7.3,0-4.4,8.5c0,0-3.6,7.4,5.1,9.3C154.3,255.2,158.7,259.9,162.7,254.8z"/>
<path fill="#FFFFFF" stroke="#000000" stroke-miterlimit="10" d="M208.3,239.2l-0.5,0.1l-10.9-8.9l-5.8,6.2l-2.6-8.2l-6.9,6.2
	l-5.1-7.8l-6.6,6.2l-5.8-6.2l-5,1.5l-2.7,0.8l-5.4-4.3l-8,6.6l-2.5-7.4l-9.9,5.4l-5.4-9.3c0.9-1.7,1.8-3.4,2.8-5l0.5,0.3l4,7.8
	l9.8-5.4l2.5,7.4l8-6.6l5.7,5.9l7.4-4l5.8,6.2l6.6-6.2l5.1,7.8l6.9-6.2l2.6,8.1l5.8-6.2l7.7,7h0.1
	C207.2,233.7,207.8,236.4,208.3,239.2z"/>
<path fill="#FFFFFF" stroke="#000000" stroke-miterlimit="10" d="M206.5,231.1h-0.1l-7.7-7l-5.8,6.2l-2.6-8.1l-6.9,6.2l-5.1-7.8
	l-6.6,6.2l-5.8-6.2l-7.4,4l-5.7-5.9l-8,6.6l-2.5-7.4l-9.8,5.4l-4-7.8l-0.5-0.3c3.2-5.6,6.6-10.9,9.9-15.6l0,0
	c11.4-16.5,21.9-27.2,21.9-27.2S194.4,185.4,206.5,231.1z"/>
<path fill="#FFFFFF" stroke="#000000" stroke-miterlimit="10" d="M197.3,249c5.1,7-7.3,6.6-7.3,6.6c-2.6,5.4-7.6-1.2-7.6-1.2
	c-11.7-3.9-0.7-10.9-0.7-10.9c1.1-9.3,10.6-2.3,10.6-2.3C199.5,237,197.3,249,197.3,249z M193.6,248.2c0-2.1-2.6-3.9-5.8-3.9
	c-3.2,0-4.4,2.9-4.4,5.1c0,2.1,1.2,2.7,4.4,2.7C191,252.1,193.6,250.4,193.6,248.2z"/>
<path fill="#FFFFFF" stroke="#000000" stroke-miterlimit="10" d="M187.8,244.3c3.2,0,5.8,1.8,5.8,3.9c0,2.1-2.6,3.9-5.8,3.9
	c-3.2,0-4.4-0.6-4.4-2.7S184.6,244.3,187.8,244.3z"/>
<path fill="#FFFFFF" stroke="#000000" stroke-miterlimit="10" d="M45.1,389.1c0.5,1.8,4.2,8,5.2,10.5l-0.2,1.7
	c-30.2-3.1-38.3-8.4-38.3-8.4h-1.5l-0.2-21.3c-0.9,0.8-1.7,0.2-2.4-0.7l-0.3-8.5l0.3,1l0,0l-0.3-1c0,0-0.1-10.1,0-25l0,0
	c1.5-0.4,20.2-5.2,51.9-10.4c1.6-0.3,3.1-0.5,4.8-0.8c0.1,0,0.3,0,0.4-0.1c2.8-0.4,5.6-0.9,8.6-1.3l0,0c1.7-0.3,3.5-0.5,5.2-0.8
	c1.7-0.3,3.6-0.5,5.4-0.8c1.8-0.3,3.7-0.5,5.6-0.8l0,0c1.9-0.3,3.8-0.5,5.7-0.7c1.9-0.2,3.9-0.5,5.9-0.7c3.9-0.5,12.3-1.2,16.7-1.4
	c7.6,24.5,22.6,54.6,51.5,69.2l-0.2,0.3c0,0-1.7,3.3-4.7,9.7c-1.3,0.101-9.2-6.9-10.5-6.8c-1.8,0.2-5.8-5.5-7.5-5.3
	c-1.5,0.2,3.9,11.2,2.4,11.3c-6.9,0.7-13.4,1.3-19.7,1.8c-6.3,0.5-12.3,0.9-18.1,1.101l1.5-29.5c-6-10.7-21.1,1.5-21.1,1.5
	l-1.5,28.6c-10.2,0.1-19.5-0.2-28-0.7c-6.8-0.399-6.5-6.4-8.3-6.6c-1.5-0.1-0.8-9-2.3-9.1c-1.2-0.1-4.5,3.6-5.9,3.8
	c-0.1-0.2-0.1-0.4-0.2-0.5C45,388.7,45,388.9,45.1,389.1z"/>
<path fill="#FFFFFF" stroke="#000000" stroke-miterlimit="10" d="M167.8,245.9c4,8.1-5.1,8.9-5.1,8.9c-4,5.1-8.4,0.4-8.4,0.4
	c-8.7-2-5.1-9.3-5.1-9.3c-2.9-8.5,4.4-8.5,4.4-8.5c5.5-7.8,10.2,0.4,10.2,0.4C174,238.1,167.8,245.9,167.8,245.9z M164.3,245.9
	c0-3.1-2.5-5.6-5.6-5.6c-3.1,0-5.6,2.5-5.6,5.6s2.5,5.6,5.6,5.6C161.8,251.5,164.3,249,164.3,245.9z"/>
<path fill="#FFFFFF" stroke="#000000" stroke-miterlimit="10" d="M50.1,401.3l0.2-1.7c0.1,0.301,0.2,0.5,0.2,0.601
	c0.5-0.5-4.3-8.4-5.3-11.1c1.4-0.2,4.7-3.9,5.9-3.8c1.5,0.1,0.7,9,2.3,9.1c1.7,0.1,1.5,6.1,8.3,6.6c8.5,0.5,17.8,0.8,28,0.7
	c5.5,0,11.3-0.2,17.3-0.5l3.8-0.2c5.8-0.3,11.8-0.6,18.1-1.1c6.3-0.5,12.9-1.101,19.7-1.801c1.5-0.199-3.9-11.2-2.4-11.3
	c1.8-0.2,5.8,5.5,7.5,5.3c1.2-0.1,9.2,6.9,10.5,6.8c-2.2,4.8-5.2,11.399-8.6,19.6c-12.2-0.6-23-1.3-23-1.3l-0.1-0.8
	c-8.1,0.6-15.6,1.1-22.6,1.5c-7,0.3-13.5,0.5-19.6,0.6c-21.6,0.3-37.5-0.8-49-2.6C27.2,417.3,17,417.8,10.2,418v-12.2v-13h1.5
	C11.8,392.9,20,398.2,50.1,401.3z"/>
<path fill="#FFFFFF" stroke="#000000" stroke-miterlimit="10" d="M158.7,240.3c3.1,0,5.6,2.5,5.6,5.6s-2.5,5.6-5.6,5.6
	c-3.1,0-5.6-2.5-5.6-5.6S155.6,240.3,158.7,240.3z"/>
<path fill="#FFFFFF" stroke="#000000" stroke-miterlimit="10" d="M93.5,1.8c4.7,5.4,7.6,16.8,7.6,16.8h0.1l0,0
	c3.6-0.9,6.8-1.6,9.8-2c0.4,0,0.8-0.1,1.2-0.1c0.5-0.1,0.9-0.1,1.4-0.1s1-0.1,1.5-0.1c1.4-0.1,2.8-0.1,4.1,0
	c27.3,1.1,17.4,31.2,17.4,31.2C167.5,58,161.5,107,161.5,107c12.9,37.8-18.9,61.9-18.9,61.9c6.1,46.1-47.6,53-47.6,53
	c-12.8,19.5-20.4,25.3-24.8,25.6c-0.3,0-0.5,0-0.8,0c-0.1,0-0.3,0-0.4-0.1c-0.1,0-0.3-0.1-0.4-0.1c-4-1.1-4.5-7.3-4.5-7.3l-0.1,0.1
	c0-0.1,0-0.1,0-0.1c-5.4,5.5-11,8.2-16.4,9c-0.6,0.1-1.1,0.1-1.7,0.2c-0.3,0-0.6,0-0.9,0s-0.6,0-0.9,0c-14.9,0-28.1-12.7-30.8-15.4
	c0.3-1.7,0.7-3.3,1-4.7c1.2-5,2.6-8.5,4.2-9.9c0.1-0.1,0.2-0.2,0.3-0.3c0,0,4.6-0.5,12-2.8c0.9-0.3,1.8-0.6,2.7-0.9
	c0.9-0.3,1.8-0.6,2.7-1c2.3-0.9,4.7-1.9,7.3-3.1l0,0c0.7-0.4,1.5-0.7,2.2-1.1c0.7-0.4,1.5-0.8,2.3-1.2c8.4-4.5,17.8-10.9,27-20.2
	c0.4-0.4,0.8-0.8,1.3-1.3l0,0c0.8-0.9,1.7-1.8,2.5-2.7l0,0c0.4-0.5,0.8-0.9,1.2-1.4c0.8-0.9,1.7-1.9,2.5-2.9
	c0.9-1.1,1.8-2.2,2.7-3.4c0.4-0.6,0.9-1.1,1.3-1.7c0.6-0.8,1.3-1.7,1.9-2.6l-12.9,2.3l3.8-12.8c0,0,0,0,0,0.1V162
	c-0.6,0.9-19,28-28.7,30.9c0,0-0.1-0.6-0.3-1.8c0-0.2,0-0.3-0.1-0.5c-0.1-0.5-0.1-1.1-0.2-1.7c0-0.3-0.1-0.5-0.1-0.8
	c0-0.4-0.1-0.8-0.1-1.2s-0.1-0.8-0.1-1.3l0,0c0-0.6-0.1-1.2-0.1-1.8c-0.1-1.7-0.1-3.6,0-5.4c0.2-3.9,0.9-7.7,2.4-10.4l0,0v-0.1
	l-6-1.5c0,0,0,0,0,0.1v0.1c0,0.2,0,0.6-0.1,1.2c0,0.1,0,0.2,0,0.4c0,0.1,0,0.1,0,0.2c0,0.3,0,0.7-0.1,1.1c0,0.3,0,0.5,0,0.8
	c0,0.1,0,0.2,0,0.3c-0.1,0.8-0.1,1.7-0.2,2.6c0,0.3,0,0.5-0.1,0.8l0,0c0,0.3,0,0.5-0.1,0.8l0,0c0,0,0,0,0,0.1c0,0.5-0.1,1.1-0.1,1.6
	c0,0.4-0.1,0.8-0.1,1.2l0,0c-0.1,1.4-0.3,2.9-0.5,4.3c0,0.3-0.1,0.5-0.1,0.8l0,0c0,0.2-0.1,0.5-0.1,0.7l0,0
	c-0.1,0.5-0.1,0.9-0.2,1.4l0,0c0,0.2-0.1,0.4-0.1,0.6c-0.5,2.7-1.2,4.9-1.9,5.9c0,0-14.4,13.6-20.4,12.8c0,0,0,0,0-0.1
	c0,0,0-0.1,0-0.2c0-0.2,0-0.4-0.1-0.6l0,0c0-0.1,0-0.2,0-0.3c-0.1-0.6-0.2-1.3-0.3-2.2c0-0.2,0-0.4-0.1-0.6v-0.1
	c0-0.2-0.1-0.5-0.1-0.8c-0.1-0.5-0.1-1-0.2-1.6c0-0.1,0-0.1,0-0.2c0-0.5-0.1-1-0.1-1.6c-0.1-0.7-0.1-1.5-0.2-2.3
	c0-0.3,0-0.5-0.1-0.8c0-0.4,0-0.8-0.1-1.2c-0.1-0.9-0.1-1.9-0.1-2.9c-0.5-12.3,0.5-28.6,7.4-36.4c0,0,10.6,3,22.7-9h-0.1l0.1-0.1
	L40,141.7c0,0-9.8,5.3-16.6,0c0,0-6.5-11.1-7.9-23.9c-0.1-0.9-0.2-1.7-0.2-2.6c-0.1-1.2-0.1-2.3,0-3.5c0-0.4,0-0.8,0.1-1.2
	c0.1-1.2,0.2-2.3,0.4-3.5l0,0l0,0v-0.1c0,0-5.3-9.8-9.1-1.5c0,0,0,0,0,0.1l0,0c0,0,0.5,2.1,1.1,5.5c0.1,0.5,0.2,1.1,0.3,1.7
	c0.1,0.4,0.1,0.8,0.2,1.2c0.1,0.7,0.2,1.4,0.3,2.1c0.1,0.6,0.2,1.3,0.3,2c0.1,1,0.3,2,0.4,3.1c0.1,0.4,0.1,0.8,0.1,1.2
	c0.1,0.4,0.1,0.8,0.1,1.2c0.1,0.8,0.2,1.6,0.3,2.5c0,0.4,0.1,0.8,0.1,1.3c0.2,1.7,0.3,3.4,0.4,5.1c0,0.3,0,0.5,0,0.8
	c0,0.3,0,0.5,0,0.8c0.1,3.3,0.2,6.6,0,9.8c0,0.7-0.1,1.3-0.1,1.9c-0.1,0.8-0.1,1.6-0.2,2.4c-0.1,0.8-0.2,1.5-0.3,2.3l0,0
	c0,0.3-0.1,0.6-0.1,0.9l0,0c-1.3,7.1-4,12.8-9,14.9V1.3H93C93.1,1.4,93.3,1.6,93.5,1.8z M94.3,78.3L86,70.8c0,0.1,0,0.1,0.1,0.1H86
	c0.5,1.5,0.9,3.1,1,4.8c0.1,1.3,0.1,2.5,0,3.8c-0.1,1-0.2,2-0.4,3c0,0,0,0,0,0.1c-0.1,0.5-0.2,0.9-0.3,1.4c-0.2,0.7-0.3,1.4-0.5,2
	c-0.2,0.7-0.4,1.4-0.6,2c-0.2,0.5-0.4,1-0.6,1.5c-0.4,1-0.8,2-1.3,3.1c-0.2,0.4-0.4,0.8-0.6,1.2c-0.1,0.3-0.3,0.6-0.5,0.9
	c-0.2,0.4-0.4,0.9-0.6,1.3c-0.2,0.4-0.5,0.9-0.7,1.3c-0.1,0.3-0.3,0.6-0.5,0.9c0,0.1-0.1,0.2-0.1,0.3c0,0,0,0,0,0.1
	c-0.3,0.6-0.6,1.1-1,1.7c-0.3,0.4-0.5,0.9-0.8,1.3s-0.5,0.8-0.8,1.2c-3.8,5.9-7.4,10.2-8.1,10.9c0,0,0,0,0.1,0l-0.1,0.1
	c-1.7-0.6-2.3-0.7-2.4-0.7c0.2,0.1,2.3,0.8,2.3,0.8s0,0,0.1-0.1c0.7,0.2,1.7,0.5,2.9,0.9c9.8,3,21.9-36.3,21.9-36.3v-0.1H94.3
	L94.3,78.3z M45.7,38.6L45.7,38.6c0.1-0.7-2.1-0.3-8.1,2C36,41.2,23.7,46.4,23.5,45c0-0.3,0-0.5-0.1-0.7c0-0.3,0-0.5,0-0.8
	c0-0.9,0-1.8,0-2.6c0-0.4,0-0.7,0.1-1c0.1-0.7,0.1-1.3,0.2-1.9c0-0.2,0.1-0.5,0.1-0.7c0.1-0.5,0.2-0.9,0.3-1.2
	c0-0.2,0.1-0.3,0.1-0.5c0.6-2.2,1.3-3.2,1.3-3.2l0,0c0-0.1,0-0.1,0-0.1l-6-1.5c-1.4,1.7-2,4.2-2.1,7c0,0.9,0,1.8,0,2.7
	c0,0.3,0,0.7,0.1,1c0,0.7,0.1,1.4,0.2,2.1l0,0c0.1,0.7,0.2,1.4,0.3,2.1l0,0c0.1,0.3,0.1,0.6,0.2,0.9c0.1,0.6,0.2,1.2,0.4,1.8l0,0
	c0.4,1.6,0.8,3.3,1.2,4.8c0.3,1.1,0.6,2.1,0.9,3.1c0.1,0.3,0.2,0.7,0.3,1c0.1,0.3,0.2,0.6,0.3,0.9c1.4,4.3,2.7,7.3,2.7,7.3l5.3-2.3
	c0,0,0,0,0-0.1l0,0c-1.8-3.6-3.1-6.9-4-9.8l0,0C25.9,51.9,45.7,40.5,45.7,38.6z"/>
<path fill="#FFFFFF" stroke="#000000" stroke-miterlimit="10" d="M86.9,715.4c0.1-1.2,0.1-2.4,0.2-3.602c1.7,2.602,7.4,9.8,16.9,9.2
	c0,0,4.4,12.4,13.1,9.3c0,0,5.1,10.102,12.4,4.7c0,0,5.1,11.7,16,5.5l7.3,3.1c1.2-1,2-2.8,2.5-4.398c-0.5,5.5-1,10.5-1.4,14.898
	c-0.5,1.7-1.7,3.602-4.2,4c-1.5,0.302-4.9-2.1-4.9-2.1c-10.9,6.2-16-5.4-16-5.4c-7.3,5.4-12.4-4.698-12.4-4.698
	c-8.8,3.1-13.1-9.302-13.1-9.302c-9.6,0.602-15.3-6.698-17-9.198C86.5,723.3,86.7,719.4,86.9,715.4z"/>
<path fill="#FFFFFF" stroke="#000000" stroke-miterlimit="10" d="M153.9,754c-0.8,8.3-1.3,14.5-1.6,17.6
	c-0.1,1.5-0.2,2.302-0.2,2.302c-43.7,7.8-66.3-30.302-66.3-30.302c0.1-5.5,0.3-10.8,0.5-16.198c1.7,2.6,7.3,9.898,17,9.198
	c0,0,4.4,12.4,13.1,9.302c0,0,5.1,10.1,12.4,4.698c0,0,5.1,11.7,16,5.4c0,0,3.3,2.4,4.9,2.1C152.2,757.6,153.4,755.7,153.9,754z"/>
<path fill="#FFFFFF" stroke="#000000" stroke-miterlimit="10" d="M155.6,418.5c-2.6,6.2-5.5,13.3-8.6,21.3c-22-2.7-37-5-37-5h-0.2
	c1.1-6.898,0.2-16,0.2-16V417.9c7-0.4,14.6-0.802,22.6-1.5l0.1,0.8C132.6,417.3,143.4,417.9,155.6,418.5z"/>
<path fill="#FFFFFF" stroke="#000000" stroke-miterlimit="10" d="M147,439.8c-0.9,2.3-1.8,4.602-2.7,7l0,0c-19.5-2-36.6-6-36.6-6
	c1-1.398,1.6-3.6,2-6.1l0,0h0.2C110,434.8,125,437.1,147,439.8z"/>
<path fill="#FFFFFF" stroke="#000000" stroke-miterlimit="10" d="M144.3,446.9L144.3,446.9c-1.9,5.1-3.9,10.5-5.9,16.1
	c-8.5-0.5-21.8,0.5-29.9-0.1c-5.9-0.4-11.7-0.802-17.4-1.2c-41.5-3-74.6-5.9-79.4-6.3c-0.1,0-0.1,0-0.2,0l-0.4-2.302V441.7
	c0,0,54.4,1.5,79.3-0.8c0,0,13.6,5.3,17.4,0C107.7,440.9,124.8,444.8,144.3,446.9z"/>
<path fill="#FFFFFF" stroke="#000000" stroke-miterlimit="10" d="M136.5,198.7l1.4,1c-3.3,4.8-6.7,10-9.9,15.6
	c-0.9,1.6-1.9,3.3-2.8,5c-3.1,5.9-6.1,12.2-8.5,18.6c-1.4,3.8-2.7,7.6-3.8,11.6c-0.6,2.2-1.1,4.5-1.6,6.7
	c-1.7,8.3-2.3,16.8-1.5,25.2c0,0,1.3,16.6,7.7,37.3c-4.4,0.3-12.9,1-16.7,1.4c-2,0.2-4,0.5-5.9,0.7c-1.9,0.3-3.9,0.5-5.7,0.7l0,0
	c-1.9,0.3-3.7,0.5-5.6,0.8c-1.8,0.3-3.6,0.5-5.4,0.8c-1.8,0.3-3.5,0.5-5.2,0.8l0,0c-2.9,0.4-5.8,0.9-8.6,1.3c-0.1,0-0.3,0-0.4,0.1
	c-1.6,0.3-3.2,0.5-4.8,0.8c-31.8,5.2-50.4,10-51.9,10.4c0.2-29.8,1.2-78.7,5.8-103.6v-0.1c2.8,2.8,15.9,15.4,30.8,15.4
	c0.3,0,0.6,0,0.9,0c0.3,0,0.6,0,0.9,0c0.6,0,1.1-0.1,1.7-0.2c5.4-0.8,11.1-3.4,16.4-8.9l0.1-0.1c0,0,0.5,6.2,4.5,7.3
	c0.1,0,0.3,0.1,0.4,0.1c0.1,0,0.3,0,0.4,0.1c0.3,0,0.5,0,0.8,0c4.4-0.3,12-5.9,24.9-25.6C95.1,221.9,123.2,218.3,136.5,198.7z"/>
<path fill="#FFFFFF" stroke="#000000" stroke-miterlimit="10" d="M138.4,463c-2.4,6.9-4.9,14.2-7.4,21.9c-1.4-0.302-7.6,5.8-8.9,5.5
	c-1-0.2-5.3,0.8-5.3,0.8c-1.3-0.3,7.1-9.3,6-9.5c-8.1-1.7-13.2-3-14.6-3.3l0.3-15.4C116.6,463.5,129.9,462.5,138.4,463z"/>
<path fill="#FFFFFF" stroke="#000000" stroke-miterlimit="10" d="M137.2,243.2c2.5,7.4-6.9,6.6-6.9,6.6c-9.1,6.6-9.1-3.1-9.1-3.1
	c-3.2-2.4-3.5-4.9-2.7-7.1c1.3-3.5,5.6-6.1,5.6-6.1c2.3-2,4.1-2.7,5.5-2.7c3.7,0,5,4.6,5,4.6C141.9,238.1,137.2,243.2,137.2,243.2z
	 M133.2,241.4c0-2.9-2-5.2-4.4-5.2c-2.4,0-4.4,2.4-4.4,5.2c0,2.9,2,5.2,4.4,5.2C131.2,246.7,133.2,244.3,133.2,241.4z"/>
<path fill="#FFFFFF" stroke="#000000" stroke-miterlimit="10" d="M128.8,236.2c2.4,0,4.4,2.4,4.4,5.2c0,2.9-2,5.2-4.4,5.2
	c-2.4,0-4.4-2.3-4.4-5.2S126.4,236.2,128.8,236.2z"/>
<path fill="#FFFFFF" stroke="#000000" stroke-miterlimit="10" d="M109.1,496.7c-0.5,0-0.9-0.102-1.4-0.2l0.4-18.3
	c1.4,0.398,6.5,1.6,14.6,3.3c1.2,0.3-7.3,9.2-6,9.5c0,0,4.3-1,5.3-0.8c1.3,0.3,7.5-5.8,8.9-5.5c-1.5,4.5-3,9.2-4.4,13.898
	C119.2,498.2,115.7,497.5,109.1,496.7z"/>
<path fill="#FFFFFF" stroke="#000000" stroke-miterlimit="10" d="M126.5,498.8c-1.7,5.4-3.4,11.102-5,16.8
	c-3.9-0.398-10.7-0.698-14.5-1.198c-5.8-0.7-11.3-1.4-16.7-2.102c-7.5-1-14.5-2.2-21.1-3.3c-12.6-2.2-23.5-4.4-32.5-6.5
	c-4.4-1-1.5-3.9-2.2-5.7c3.4,0.5,6.8,1.102,9.8,1.9l18.1-9.102c8.3,1.602,17.4,3.2,27.2,4.602c5.9,0.8,11.9,1.7,18.1,2.398
	c0.4,0,0.9,0.102,1.4,0.2C115.7,497.5,119.2,498.2,126.5,498.8z"/>
<path fill="#FFFFFF" stroke="#000000" stroke-miterlimit="10" d="M121.5,515.7c-1.7,5.8-3.3,11.7-5,17.8c-7-1.9-7.9-2.5-9.9-3.1
	l0.3-15.602v-0.3C110.7,514.9,117.5,515.3,121.5,515.7z"/>
<path fill="#FFFFFF" stroke="#000000" stroke-miterlimit="10" d="M116.5,533.5c-1.5,5.6-3,11.3-4.4,17.1l0,0c-3,0-2.9-0.698-5.9-0.8
	l0.4-19.398C108.6,531,109.5,531.6,116.5,533.5z"/>
<path fill="#FFFFFF" stroke="#000000" stroke-miterlimit="10" d="M112.2,371.6l-1.5,29.5l-3.8,0.2c-6.1,0.3-11.8,0.4-17.3,0.5
	l1.5-28.6C91.1,373.1,106.2,361,112.2,371.6z"/>
<path fill="#FFFFFF" stroke="#000000" stroke-miterlimit="10" d="M112.1,550.6L112.1,550.6c-1.8,7.102-3.5,14.4-5.1,21.9l-0.8-0.2
	c-6.1-0.1-11.9-0.2-17.4-0.398c-2.7-0.102-5.2-0.2-7.7-0.302l0,0c-49-1.898-67.4-6.398-71.9-7.8l-0.4-25c3.4-1.3,7.6-2.5,12.2-3.5
	c18.1,8.602,43.6,12.4,68.6,13.8c5.6,0.302,11.2,0.5,16.6,0.602C109.2,549.8,109.1,550.6,112.1,550.6z M66.7,562.7
	c0-2.3-3-4.2-6.8-4.2c-3.8,0-6.8,1.9-6.8,4.2s3.1,4.2,6.8,4.2C63.6,566.9,66.7,565,66.7,562.7z"/>
<path fill="#FFFFFF" stroke="#000000" stroke-miterlimit="10" d="M110,418.8c0,0,0.8,9-0.2,16l0,0c-0.4,2.5-1,4.7-2,6.102
	c-3.8,5.3-17.4,0-17.4,0V434.8v-16.2c6-0.1,12.6-0.3,19.6-0.6V418.8z"/>
<path fill="#FFFFFF" stroke="#000000" stroke-miterlimit="10" d="M108.4,462.9l-0.3,15.398l-0.4,18.3
	c-6.2-0.698-12.3-1.5-18.1-2.398l1-20.602l0.5-11.8C96.7,462.1,102.5,462.5,108.4,462.9z"/>
<path fill="#FFFFFF" stroke="#000000" stroke-miterlimit="10" d="M107,514.5v0.3l-0.3,15.602l-0.4,19.398c-5.4-0.1-11-0.3-16.6-0.6
	l0.4-21.5l0.3-15.4C95.6,513.1,101.2,513.8,107,514.5z"/>
<path fill="#FFFFFF" stroke="#000000" stroke-miterlimit="10" d="M106.2,572.3l0.8,0.2c-2,9-3.9,18.2-5.7,27.7l-0.4-0.102
	c-3,0.2,0,0-3,0.102c-3,0.1-6,0.2-9,0.3v-11.1V572C94.3,572.1,100.1,572.2,106.2,572.3z"/>
<path fill="#FFFFFF" stroke="#000000" stroke-miterlimit="10" d="M100.9,600.1l0.4,0.102c-1.1,5.8-2.2,11.6-3.2,17.5h-0.2
	c-3,0.1-7.6-0.102-10.6,0c-3.8,0.1-7.6,0.2-11.3,0.2c-33.5,0.5-60.9-0.102-66.8-0.302L8.8,606.9l-0.1-1.4c8.4-0.7,22.3-3.2,36-6.1
	L45,600.8c0,0,20.5,0.3,43.8-0.3c3-0.1,6-0.2,9-0.3C100.9,600.1,97.9,600.3,100.9,600.1z"/>
<path fill="#FFFFFF" stroke="#000000" stroke-miterlimit="10" d="M97.9,617.7h0.2c-0.7,4.2-1.4,8.5-2.1,12.8h-0.4
	c-1.2-0.3-2.5,0.2-3.8,0.9c-0.4,0.198-0.8,0.398-1.1,0.6c-0.3,0.2-0.6,0.3-0.8,0.5c-0.2,0.1-0.4,0.2-0.5,0.3
	c-0.1,0-0.2,0.102-0.3,0.102c-0.2,0.1-0.3,0.1-0.5,0.198c-0.2,0-0.3,0.102-0.5,0.102c-0.1,0-0.2,0-0.2,0c-0.3,0-0.5,0-0.8-0.102
	c-0.2-0.1-0.3-0.198-0.5-0.3l0.7-15.1C90.2,617.6,94.8,617.7,97.9,617.7z"/>
<path fill="#FFFFFF" stroke="#000000" stroke-miterlimit="10" d="M95.6,630.5H96c-1,6.4-1.9,12.8-2.8,19.3
	c-41.6,1.9-77.8,3.9-82.3,2.9L9.6,647.1V646.4c22-1.9,76.4-7.102,77-13.802c0.1,0.2,0.3,0.302,0.5,0.302c0.2,0.1,0.5,0.1,0.8,0.1
	c0.1,0,0.1,0,0.2,0s0.3-0.1,0.5-0.1c0.2,0,0.3-0.102,0.5-0.2c0.1,0,0.2-0.102,0.3-0.102c0.2-0.1,0.4-0.198,0.5-0.3
	c0.3-0.1,0.5-0.3,0.8-0.5c0.4-0.2,0.8-0.398,1.1-0.6C93.1,630.7,94.4,630.2,95.6,630.5z"/>
<path fill="#FFFFFF" stroke="#000000" stroke-miterlimit="10" d="M94.2,78.4L94.2,78.4c-0.6,2-12.3,39.1-21.9,36.2
	c-1.2-0.4-2.1-0.7-2.8-0.9c0.8-1,4.4-5.2,8-11c0.3-0.4,0.5-0.8,0.8-1.2c0.3-0.4,0.5-0.9,0.8-1.3c0.3-0.6,0.7-1.1,1-1.7
	c0,0,0,0,0-0.1s0.1-0.2,0.1-0.3c0.1-0.3,0.3-0.6,0.5-0.9c0.2-0.4,0.5-0.8,0.7-1.3c0.2-0.4,0.4-0.9,0.6-1.3c0.2-0.3,0.3-0.6,0.5-0.9
	c0.2-0.4,0.4-0.8,0.6-1.2c0.4-1,0.9-2,1.3-3.1c0.2-0.5,0.4-1,0.6-1.5c0.2-0.7,0.4-1.4,0.6-2c0.2-0.7,0.4-1.4,0.5-2
	c0.1-0.4,0.2-0.9,0.3-1.4c0,0,0,0,0-0.1c0.2-1,0.4-2,0.4-3c0.1-1.3,0.1-2.6,0-3.8c-0.1-1.6-0.4-3.2-0.9-4.7L94.2,78.4z"/>
<path fill="#FFFFFF" stroke="#000000" stroke-miterlimit="10" d="M91.1,461.7l-0.5,11.8c-5.9-0.6-57.8-5.9-81.7-6.4
	C5.5,467,2.7,467,0.6,467.2V456c0,0,6.4,2.9,11-0.6c0.1,0,0.1-0.102,0.2-0.102C16.4,455.9,49.5,458.8,91.1,461.7z"/>
<path fill="#FFFFFF" stroke="#000000" stroke-miterlimit="10" d="M90.5,473.6l-1,20.602c-9.8-1.4-18.9-3-27.2-4.602
	c-3.3-0.6,6.6-2.698,0.7-6.1c-1.6-0.9-4.4-1.9-9-3.1c-16.5-4-39.6-6.2-45.4-6.7l0.1-6.602C32.8,467.7,84.6,473,90.5,473.6z"/>
<path fill="#FFFFFF" stroke="#000000" stroke-miterlimit="10" d="M90.3,434.8v6.102c-24.9,2.3-79.3,0.8-79.3,0.8v-4.5
	c0.1,0,0.1,0,0.1,0c1.8-0.102,3.8-0.3,5.9-0.5C43.1,434.8,90.3,434.8,90.3,434.8z"/>
<path fill="#FFFFFF" stroke="#000000" stroke-miterlimit="10" d="M90.3,418.6v16.2c0,0-47.3,0-73.3,1.8c-2.1,0.102-4.1,0.4-5.9,0.5
	H11c-10.5,0.7,0-1.5-10.6,0.7V418c0,0,3.2,0.2,9.8,0c6.7-0.2,17-0.7,31.1-2.1C52.9,417.7,68.7,418.9,90.3,418.6z"/>
<path fill="#FFFFFF" stroke="#000000" stroke-miterlimit="10" d="M90.3,512.3L90,527.7h-0.4c0,0-41.7,1.6-68.5,7.7
	c-4.6,1-8.8,2.198-12.2,3.5c-3.8,1.398-6.7,3-8.3,4.8v-22.8c0.9-2,3.7-3.7,7.6-5.102c18.2-6.3,61-6.3,61-6.3l0.1-0.4
	C75.8,510.2,82.9,511.3,90.3,512.3z"/>
<path fill="#FFFFFF" stroke="#000000" stroke-miterlimit="10" d="M90,527.7l-0.4,21.5c-25-1.4-50.4-5.2-68.6-13.8
	c26.8-6,68.5-7.7,68.5-7.7H90z"/>
<path fill="#FFFFFF" stroke="#000000" stroke-miterlimit="10" d="M88.8,589.4v11.1c-23.2,0.6-43.8,0.3-43.8,0.3l-0.3-1.398
	C66.8,594.8,88.8,589.4,88.8,589.4z"/>
<path fill="#FFFFFF" stroke="#000000" stroke-miterlimit="10" d="M88.8,571.9V589.3c0,0-22,5.4-44.1,10.102
	c-13.8,2.898-27.6,5.398-36,6.1c-4.8,0.4-7.8,0.2-8.2-0.9v-22.1c0.8,1.3,4.2,1.7,9.1,1.5c18.9-0.6,61-10,71.5-12.4l0,0
	C83.6,571.8,86.2,571.9,88.8,571.9z"/>
<path fill="#FFFFFF" stroke="#000000" stroke-miterlimit="10" d="M75.4,175.1l12.9-2.3c-0.6,0.9-1.2,1.7-1.9,2.6
	c-0.4,0.6-0.9,1.2-1.3,1.7c-0.9,1.1-1.8,2.3-2.7,3.4c-0.8,1-1.6,1.9-2.5,2.9c-0.4,0.5-0.8,0.9-1.2,1.4l0,0c-0.8,0.9-1.7,1.8-2.5,2.7
	l0,0c-0.4,0.4-0.8,0.9-1.3,1.3c-9.2,9.3-18.6,15.7-27,20.2c-0.8,0.4-1.5,0.8-2.3,1.2c-0.8,0.4-1.5,0.7-2.2,1.1l0,0
	c-2.6,1.2-5,2.3-7.3,3.1c-0.9,0.4-1.8,0.7-2.7,1c-1,0.3-1.9,0.6-2.7,0.9c-7.3,2.3-12,2.8-12,2.8c-0.1,0.1-0.2,0.2-0.3,0.3
	c-1.7,1.5-3,5-4.2,9.9c-0.4,1.4-0.7,3-1,4.7v0.1l-0.1-0.1c-2.3,12.4-3.6,30.8-4.5,49.9s-1.2,38.8-1.3,53.8c0,0,0,0,0.1,0l0,0
	c-0.1,14.8,0,25,0,25l0.3,8.5l-6.8,3.1l-0.3-208c5.1-2.1,7.8-7.8,9-15l0,0c0.1-0.3,0.1-0.6,0.1-0.9l0,0c0.1-0.8,0.2-1.5,0.3-2.3
	c0.1-0.8,0.2-1.6,0.2-2.4c0-0.6,0.1-1.3,0.1-1.9c0.2-3.2,0.1-6.5,0-9.8c0-0.3,0-0.5,0-0.8c0-0.3,0-0.5,0-0.8
	c-0.1-1.7-0.2-3.5-0.4-5.1c0-0.4-0.1-0.8-0.1-1.3c-0.1-0.8-0.2-1.7-0.3-2.5c0-0.4-0.1-0.8-0.1-1.2c0-0.4-0.1-0.8-0.1-1.2
	C9.2,120,9,119,8.9,118c-0.1-0.7-0.2-1.3-0.3-2s-0.2-1.4-0.3-2.1c-0.1-0.4-0.1-0.8-0.2-1.2c-0.1-0.6-0.2-1.1-0.3-1.7
	c-0.5-3.1-1-5.1-1.1-5.5c3.7-8,8.8,1,9.1,1.5l0,0c-0.2,1.2-0.3,2.3-0.4,3.5c0,0.4,0,0.8-0.1,1.2c-0.1,1.2,0,2.3,0,3.5
	c0,0.9,0.1,1.7,0.2,2.6c1.4,12.9,7.9,24,7.9,24c6.8,5.3,16.6,0,16.6,0l10.5,1.5c-12.1,12-22.6,8.9-22.6,8.9
	c-7,7.9-7.9,24.3-7.4,36.5c0,1,0.1,2,0.1,2.9c0,0.4,0,0.8,0.1,1.2c0,0.3,0,0.5,0.1,0.8c0,0.8,0.1,1.5,0.2,2.3c0,0.6,0.1,1.1,0.1,1.6
	c0,0.1,0,0.1,0,0.2c0.1,0.5,0.1,1.1,0.2,1.6c0,0.3,0,0.5,0.1,0.8v0.1c0,0.2,0,0.4,0.1,0.6c0.1,0.9,0.2,1.7,0.3,2.2
	c0,0.1,0,0.2,0,0.3l0,0c0,0.3,0.1,0.5,0.1,0.6s0,0.1,0,0.2c0,0.2,0,0.3,0,0.3c6,0.8,20.4-12.8,20.4-12.8c0.8-1,1.4-3.3,1.9-6
	c0-0.2,0.1-0.4,0.1-0.6l0,0c0.1-0.5,0.2-0.9,0.2-1.4l0,0c0-0.2,0.1-0.5,0.1-0.7l0,0c0-0.3,0.1-0.5,0.1-0.8c0.2-1.4,0.4-2.9,0.5-4.3
	l0,0c0-0.4,0.1-0.8,0.1-1.2c0-0.5,0.1-1.1,0.1-1.6c0,0,0,0,0-0.1l0,0c0-0.3,0-0.5,0.1-0.8l0,0c0-0.3,0-0.5,0.1-0.8
	c0.1-0.9,0.1-1.8,0.2-2.6c0-0.1,0-0.2,0-0.3c0-0.3,0-0.5,0-0.8c0-0.4,0-0.8,0.1-1.1c0-0.1,0-0.1,0-0.2c0-0.1,0-0.3,0-0.4
	c0-0.6,0.1-1,0.1-1.2c0-0.1,0-0.1,0-0.1l6,1.5c-1.6,2.6-2.2,6.5-2.4,10.4c-0.1,1.8-0.1,3.7,0,5.4c0,0.6,0.1,1.3,0.1,1.8l0,0
	c0,0.4,0.1,0.9,0.1,1.3s0.1,0.8,0.1,1.2c0,0.3,0.1,0.5,0.1,0.8c0.1,0.6,0.1,1.2,0.2,1.7c0,0.2,0,0.4,0.1,0.5
	c0.1,1.2,0.3,1.9,0.3,1.9c9.5-2.9,27.5-29.2,28.6-30.9L75.4,175.1z"/>
<path fill="#FFFFFF" stroke="#000000" stroke-miterlimit="10" d="M93.2,649.9c-2.7,19.898-4.7,40.6-6,62l0,0
	c-0.1,1.198-0.1,2.398-0.2,3.6c-27.1-13.9-59.9,1.2-66.7,5c-6.8,3.8-19.7-6-19.7-6l-0.1-58.1l11.3,0.8l-1-4.3
	C15.4,653.8,51.5,651.8,93.2,649.9z"/>
<path fill="#FFFFFF" stroke="#000000" stroke-miterlimit="10" d="M87.3,617.7l-0.7,15.1c-0.6,6.7-55.1,11.9-77,13.8
	c-5.5,0.5-9,0.7-9,0.7v-22.1c1.2,1,4.5,1.3,9.1,1.3c20.4,0,66.4-8.2,66.4-8.2V617.9C79.7,617.8,83.4,617.8,87.3,617.7z"/>
<path fill="#FFFFFF" stroke="#000000" stroke-miterlimit="10" d="M76,617.9v0.398c0,0-46,8.2-66.4,8.2l-0.4-8.9
	C15.1,617.7,42.5,618.4,76,617.9z"/>
<path fill="#FFFFFF" stroke="#000000" stroke-miterlimit="10" d="M69.3,509.1l-0.1,0.4c0,0-42.9,0-61,6.3l-0.1-0.3L8.4,495h0.4
	c0,0,13.3,0.1,25.7,1.9c0.7,1.8-2.2,4.698,2.2,5.698C45.7,504.6,56.7,506.9,69.3,509.1z"/>
<path fill="#FFFFFF" stroke="#000000" stroke-miterlimit="10" d="M59.9,558.5c3.8,0,6.8,1.9,6.8,4.2s-3,4.2-6.8,4.2
	c-3.8,0-6.8-1.9-6.8-4.2S56.2,558.5,59.9,558.5z"/>
<path fill="#FFFFFF" stroke="#000000" stroke-miterlimit="10" d="M63.1,483.6c5.9,3.4-4,5.4-0.7,6.102l-18.1,9.1
	C44.3,498.8,43.5,483.9,63.1,483.6z"/>
<path fill="#FFFFFF" stroke="#000000" stroke-miterlimit="10" d="M54.1,480.5c4.6,1.1,7.4,2.1,9,3.1c-19.6,0.4-18.8,15.2-18.8,15.2
	c-3-0.8-6.3-1.398-9.8-1.898C22.1,495,8.8,495,8.8,495H8.4l0.3-21.2C14.5,474.3,37.6,476.5,54.1,480.5z"/>
<path fill="#FFFFFF" stroke="#000000" stroke-miterlimit="10" d="M81.1,571.7C70.5,574,28.4,583.4,9.6,584l-0.3-20.1
	C13.7,565.2,32,569.8,81.1,571.7z"/>
<path id="www.ABC-color.com" fill="#FFFFFF" stroke="#000000" stroke-miterlimit="10" d="M45.7,38.6L45.7,38.6
	C45.3,40.7,25,52.4,25.3,53.3l0,0l0,0v0.1c0.9,2.9,2.2,6.2,4,9.7L24,65.5c0,0-1.3-3-2.7-7.2c-0.1-0.3-0.2-0.6-0.3-0.9
	c-0.1-0.3-0.2-0.6-0.3-1c-0.3-1-0.6-2-0.9-3.1c-0.4-1.6-0.9-3.2-1.2-4.8l0,0c-0.1-0.6-0.3-1.2-0.4-1.8c-0.1-0.3-0.1-0.6-0.2-0.9l0,0
	c-0.1-0.7-0.2-1.4-0.3-2.1l0,0c-0.1-0.7-0.2-1.4-0.2-2.1c0-0.4-0.1-0.7-0.1-1c0-0.9,0-1.8,0-2.7c0.1-2.8,0.8-5.2,2.1-6.9l6,1.5
	c-0.2,0.3-0.8,1.4-1.3,3.2c0,0.1-0.1,0.3-0.1,0.5c-0.1,0.4-0.2,0.8-0.3,1.2c0,0.2-0.1,0.4-0.1,0.7c-0.1,0.6-0.2,1.2-0.2,1.9
	c0,0.3,0,0.7-0.1,1c0,0.8,0,1.6,0,2.6c0,0.3,0,0.5,0,0.8c0,0.3,0,0.6,0.1,0.8c0.1,1.4,12.5-3.8,14.1-4.4
	C43.4,38.4,45.6,38,45.7,38.6z"/>
<path fill="#FFFFFF" stroke="#000000" stroke-miterlimit="10" d="M10.8,652.8l1,4.3l-11.3-0.8v-9.1c0,0,3.5-0.3,9-0.7v0.7
	L10.8,652.8z"/>
<path fill="#FFFFFF" stroke="#000000" stroke-miterlimit="10" d="M11.5,455.4v0.198c-4.6,3.5-11,0.602-11,0.602v-18.3
	c10.5-2.302,0.1,0,10.6-0.7v4.5V453.1L11.5,455.4z"/>
<path fill="#FFFFFF" stroke="#000000" stroke-miterlimit="10" d="M10.3,405.9V418.1c-6.6,0.2-9.8,0-9.8,0l0.4-44l6.8-3.1
	c0.8,0.9,1.6,1.5,2.4,0.7l0.2,21.3V405.9z"/>
<path fill="#FFFFFF" stroke="#000000" stroke-miterlimit="10" d="M9.2,563.9L9.6,584c-4.9,0.2-8.2-0.2-9.1-1.5v-38.8
	c1.7-1.8,4.6-3.4,8.3-4.8L9.2,563.9z"/>
<path fill="#FFFFFF" stroke="#000000" stroke-miterlimit="10" d="M9.2,617.6l0.4,8.9c-4.5,0-7.8-0.4-9.1-1.3V604.6
	c0.4,1.102,3.5,1.302,8.2,0.9l0.1,1.4L9.2,617.6z"/>
<path fill="#FFFFFF" stroke="#000000" stroke-miterlimit="10" d="M8.8,467.2l-0.1,6.6L8.4,495l-0.3,20.6l0.1,0.302
	c-3.9,1.398-6.7,3-7.6,5.1v-53.6C2.6,467.1,5.4,467.1,8.8,467.2z"/>
</svg>
