<?xml version="1.0" encoding="utf-8"?>
<!-- Generator: Adobe Illustrator 15.0.0, SVG Export Plug-In . SVG Version: 6.00 Build 0)  -->
<!DOCTYPE svg PUBLIC "-//W3C//DTD SVG 1.1//EN" "http://www.w3.org/Graphics/SVG/1.1/DTD/svg11.dtd">
<svg version="1.1" id="Layer_1" xmlns="http://www.w3.org/2000/svg" xmlns:xlink="http://www.w3.org/1999/xlink" x="0px" y="0px"
	 width="567px" height="822px" viewBox="0 0 567 822" enable-background="new 0 0 567 822" xml:space="preserve">
<path fill="#FFFFFF" stroke="#000000" stroke-miterlimit="10" d="M351.2,777.2c-4.2,12.899-13.5,24.6-33.101,25.2
	c-18.3,0.5-61.1,1.8-73.1,0c-20-3-35.2-5.601-42.6-19.101c0,0-1.5-2.399-3.4-6.399C203.7,778.7,269.6,804.9,351.2,777.2z"/>
<path fill="#FFFFFF" stroke="#000000" stroke-miterlimit="10" d="M199.1,776.8c1.8,3.9,3.4,6.4,3.4,6.4c-33.9,5.2-63.5-7-63.5-7
	c-3.2-5.101-5.7-9.8-7.6-14c0,0,40.1,14.6,63.4,6.5l1.1-0.3C196.9,771.6,198,774.5,199.1,776.8z"/>
<path fill="#FFFFFF" stroke="#000000" stroke-miterlimit="10" d="M193.7,718.8c0,0,8.7-1.7,20,7C191,735.9,191.8,755,195.8,768.4
	l-1.1,0.3c-23.3,8.1-63.4-6.5-63.4-6.5C104.3,702.1,193.7,718.8,193.7,718.8z"/>
<path fill="#FFFFFF" stroke="#000000" stroke-miterlimit="10" d="M353.8,742.4c0,0,2.8,18.399-2.6,34.8
	c-81.6,27.7-147.5,1.5-152.1-0.3c-1.1-2.301-2.2-5.2-3.2-8.5c-4.1-13.4-4.8-32.5,17.9-42.601c0,0,53.1-17.399,96.601,13.9
	C310.3,739.7,336.6,756.3,353.8,742.4z"/>
<path fill="#FFFFFF" stroke="#000000" stroke-miterlimit="10" d="M356.6,581.8c12.301,39.8,7.601,53.8-2.8,74.4
	c-10.6,20.899,0,86.2,0,86.2c-17.3,13.899-43.5-2.7-43.5-2.7c-43.5-31.3-96.6-13.9-96.6-13.9c-11.3-8.7-20-7-20-7
	c47-60.899,7.8-147.899,7.8-147.899S285.2,620.5,356.6,581.8z"/>
<path fill="#FFFFFF" stroke="#000000" stroke-miterlimit="10" d="M338.5,526.8c-0.7-4.899-1.6-11.399-2.5-18.5l15.2-32.2
	c0-2.5-1.8-6.199-4.4-10.1c0,0,37.5-5.5,58.2-17.7c2.8,28.5-9.5,65.7-55.7,112.2c-2-5.3-4.1-11.1-6.6-17.2c-0.9-2.3-1.9-4.7-2.9-7.1
	C339.9,536.1,339.3,532.5,338.5,526.8z"/>
<path fill="#FFFFFF" stroke="#000000" stroke-miterlimit="10" d="M400.8,429.8c2.101,5.7,3.5,11.8,4.2,18.4
	c-20.6,12.2-58.2,17.7-58.2,17.7c-2-3-4.3-6.2-6.5-9C341.5,456.6,390.1,442.5,400.8,429.8L400.8,429.8z"/>
<path fill="#FFFFFF" stroke="#000000" stroke-miterlimit="10" d="M332.9,448.3c-0.101,0.101-0.101,0.2-0.2,0.3l-2.9-0.399
	c5.2-1.601,61-19.5,64.4-32.2l0,0c2.5,4.3,4.8,8.9,6.6,13.9l0,0c-10.7,12.699-59.3,26.8-60.5,27.1
	C336.4,452,332.9,448.3,332.9,448.3z"/>
<path fill="#FFFFFF" stroke="#000000" stroke-miterlimit="10" d="M353.7,572.8c1.1,3.2,2,6.2,2.899,9.101
	C285.2,620.6,201.5,571,201.5,571c-1.4-3.6-2.8-7.1-4-10.5l0.9-0.3C198.5,560,285,607.6,353.7,572.8z"/>
<path fill="#FFFFFF" stroke="#000000" stroke-miterlimit="10" d="M348.8,561c0.2-0.2,0.4-0.4,0.601-0.6c1.6,4.3,3,8.399,4.399,12.3
	C285,607.6,198.5,560,198.5,560l-0.9,0.3c-1.7-4.8-3.3-9.399-4.6-14C193,546.4,283.8,593.5,348.8,561z"/>
<path fill="#FFFFFF" stroke="#000000" stroke-miterlimit="10" d="M349.3,560.5c-0.2,0.2-0.399,0.4-0.6,0.6
	c-65,32.5-155.8-14.6-155.8-14.6c-1.6-5.4-3-10.6-4.2-15.7l1.1-0.3c0,0,76.8,45.4,152.8,12.8h0.101
	C345.2,549.4,347.4,555.1,349.3,560.5z"/>
<path fill="#FFFFFF" stroke="#000000" stroke-miterlimit="10" d="M342.8,543.3L342.8,543.3c-76.1,32.601-152.9-12.8-152.9-12.8
	l-1.1,0.3c-1.4-5.899-2.5-11.7-3.4-17.3l0,0c0,0,54,31.4,153.2,13.4c0.801,5.699,1.4,9.3,1.4,9.3C340.9,538.6,341.8,541,342.8,543.3
	z"/>
<path fill="#FFFFFF" stroke="#000000" stroke-miterlimit="10" d="M336,508.3c0.9,7.101,1.8,13.601,2.5,18.5
	c-99.2,18-153.2-13.399-153.2-13.399l0,0c-1-6.5-1.7-12.7-2.1-18.7C188.6,497.7,242.9,525.7,336,508.3z"/>
<path fill="#FFFFFF" stroke="#000000" stroke-miterlimit="10" d="M334.7,497.3c0.399,3.8,0.899,7.5,1.399,11
	C243,525.7,188.7,497.7,183.3,494.7c-0.4-6.5-0.5-12.7-0.4-18.601c2.7,1.301,63.8,30.5,150.1,12.601l0.8-0.101
	C334,491.5,334.3,494.4,334.7,497.3z"/>
<path fill="#FFFFFF" stroke="#000000" stroke-miterlimit="10" d="M333.7,488.6l-0.8,0.101C246.5,506.6,185.5,477.4,182.8,476.1
	c0.2-6.8,0.8-13.1,1.6-19.199c0,0,59.7,32.8,147.4,9.8C332.2,473.3,332.9,480.9,333.7,488.6z"/>
<path fill="#FFFFFF" stroke="#000000" stroke-miterlimit="10" d="M329.8,448.1l2.9,0.4c-1.2,2.6-1.3,9.4-0.9,18.2
	c-87.7,22.899-147.4-9.8-147.4-9.8c0.8-5.9,1.9-11.4,3.2-16.5h1.6c0,0,70.8,31.199,140.1,7.8C329.5,448.3,329.6,448.2,329.8,448.1z"
	/>
<path fill="#FFFFFF" stroke="#000000" stroke-miterlimit="10" d="M394.2,415.9L394.2,415.9c-3.4,12.699-59.101,30.6-64.4,32.199
	c-0.3,0.101-0.399,0.101-0.399,0.101C260,471.6,189.3,440.4,189.3,440.4h-1.6c1.5-6.101,3.3-11.801,5.3-16.9
	c0,0,108.1,45.6,190.4-22.2C387.2,405.5,391,410.4,394.2,415.9z"/>
<path fill="#FFFFFF" stroke="#000000" stroke-miterlimit="10" d="M367.3,386.6c5,3.8,10.601,8.6,16,14.7
	C301.1,469.1,193,423.5,193,423.5c4-10.5,8.5-19,12.7-25.5C205.6,398,279.5,445,367.3,386.6z"/>
<path fill="#FFFFFF" stroke="#000000" stroke-miterlimit="10" d="M352.1,376.9c0,0,6.601,3.2,15.2,9.7
	C279.5,445,205.6,398,205.6,398c6.8-10.6,12.5-15.9,12.5-15.9l0.3-0.5C243.7,396.5,288.1,408.6,352.1,376.9z"/>
<path fill="#FFFFFF" stroke="#000000" stroke-miterlimit="10" d="M234.4,217.1c3.7,0,6.8,2.9,6.8,6.5s-3,6.5-6.8,6.5
	c-3.7,0-6.7-2.9-6.7-6.5C227.7,220.1,230.7,217.1,234.4,217.1z"/>
<path fill="#FFFFFF" stroke="#000000" stroke-miterlimit="10" d="M241.1,197.7c7.5,0,12.4,6.9,10.9,15.5
	c-2.3,12.7-7.6,21.7-15.1,21.7c-7.4,0-15.4-7-15.4-19.9C221.6,202.1,233.7,197.7,241.1,197.7z M241.2,223.7c0-3.6-3-6.5-6.8-6.5
	c-3.7,0-6.7,2.9-6.7,6.5c0,3.6,3,6.5,6.7,6.5C238.1,230.2,241.2,227.3,241.2,223.7z"/>
<path fill="#FFFFFF" stroke="#000000" stroke-miterlimit="10" d="M275,223.4c3.6,0,6.5,3.1,6.5,7c0,3.8-2.9,7-6.5,7s-6.5-3.1-6.5-7
	C268.6,226.5,271.5,223.4,275,223.4z"/>
<path fill="#FFFFFF" stroke="#000000" stroke-miterlimit="10" d="M276.4,242.3c-6.8,0-13.1-5.7-10.6-22.3
	c1.8-12.2,7.8-14.9,14.5-14.9c6.8,0,14.7,7.4,13.9,16.5C293,236.1,283.2,242.3,276.4,242.3z M268.6,230.4c0,3.8,2.9,7,6.5,7
	s6.5-3.1,6.5-7s-2.9-7-6.5-7S268.6,226.5,268.6,230.4z"/>
<path fill="#FFFFFF" stroke="#000000" stroke-miterlimit="10" d="M396.9,242.9c47.399-20,43.899,31.3,43.899,31.3
	C425.2,323,386,293.4,386,293.4c-3.9,19.5-12.3,40.3-19.8,56.3c-7.5,16.1-14.101,27.2-14.101,27.2c-64,31.7-108.3,19.6-133.7,4.7
	c-17.1-10-25.5-21.3-25.5-21.3c-60-66.1-20.9-112.2-20.9-112.2c19.1-26.1,27-67.9,27-67.9s27-0.9,35.7-38.3c0,0,9.2,39.5,25.2,37.4
	c3.7-0.5-2.6-27,13.8-38.3c0,0,20.1,57.9,41,63.1c0,0,0-30.3,10.399-41.3c0,0,2.801,66.7,27.801,75.4c0,0-4.2-34.1,5.699-40.6
	c0,0,20.801,61.8,14.301,83.5L396.9,242.9z M294.2,221.6c0.7-9.1-7.2-16.5-13.9-16.5c-6.8,0-12.8,2.7-14.5,14.9
	c-2.4,16.6,3.9,22.3,10.6,22.3C283.2,242.3,293,236.1,294.2,221.6z M252,213.2c1.5-8.6-3.4-15.5-10.9-15.5
	c-7.4,0-19.6,4.4-19.6,17.3s7.9,19.9,15.4,19.9S249.8,225.9,252,213.2z"/>
<path fill="#FFFFFF" stroke="#000000" stroke-miterlimit="10" d="M417.3,330.7c-1,1.6-21.2,32.8-51.1,19
	c7.5-16,15.899-36.8,19.8-56.3c0,0,39.2,29.6,54.8-19.1c0,0,3.5-51.3-43.899-31.3L373,281.2c6.4-21.7-14.3-83.5-14.3-83.5
	c-9.9,6.5-5.7,40.6-5.7,40.6c-25.1-8.7-27.8-75.4-27.8-75.4c-10.4,11-10.4,41.3-10.4,41.3c-20.899-5.2-41-63.1-41-63.1
	c-16.4,11.3-10.1,37.8-13.8,38.3c-16,2.1-25.2-37.4-25.2-37.4c-8.7,37.4-35.7,38.3-35.7,38.3s-57-13-22.7-80.9c0,0-4.1,0-26,11.3
	c-20,10.3,20.4-28.5,21.9-36.6c0,0-25.4,6.2-28-0.8C135.2,49.3,255.5-8.2,292,35c0,0,17.9-43.5,66.6-1.7
	c0,0,57.801-31.3,99.601,27.8c0,0,80,73.9,41.8,169.6c0,0-12.2,107.9-97.4,126.1L417.3,330.7z"/>
<g>
	<path d="M252,242.2c-0.7,1.7-1.9,3.1-3.3,4.3c-1.3,1.2-2.8,2.3-4.4,3.3c-3.2,1.8-6.6,3.1-10.1,4.2s-7,1.8-10.6,2.4
		c-1.8,0.3-3.6,0.6-5.4,0.8l-2.7,0.3c-0.8,0.1-1.6,0.5-2.4,0.9c-3,1.7-5.3,4.7-6.4,8c-0.6,1.7-0.8,3.4-0.7,5.1s0.7,3.4,1.5,4.9
		c1.7,3.1,4.6,5.4,7.6,7.2c3,1.9,6.3,3.4,9.7,4.6c-3.5-0.9-7-2.1-10.2-3.8c-3.1-1.8-6.1-4.3-8-7.5c-0.9-1.6-1.5-3.5-1.7-5.3
		c-0.2-1.9,0.1-3.8,0.7-5.5c1.2-3.5,3.6-6.6,6.9-8.6c0.8-0.5,1.7-0.8,2.7-1c1-0.1,1.8-0.2,2.7-0.3c1.8-0.2,3.6-0.5,5.3-0.8
		c3.5-0.6,7.1-1.4,10.5-2.4c3.4-1,6.8-2.3,9.9-4.1c1.6-0.8,3.1-1.7,4.5-2.8c0.7-0.5,1.4-1.1,2-1.8C251,243.7,251.6,243.1,252,242.2z
		"/>
</g>
<path fill="none" stroke="#000000" stroke-miterlimit="10" d="M198.8,317.8c0,0,8.5,38.4,50.7,10.9"/>
<g>
	<path d="M246.9,319.1c0.2,0.8,0.3,1.5,0.5,2.2c0.1,0.7,0.2,1.5,0.3,2.2c0.3,1.4,0.8,2.8,1.7,3.9c0.8,1.1,2,2,3.4,2.4
		c0.7,0.2,1.4,0.3,2.1,0.3c0.7,0.2,1.5,0.3,2.2,0.4c-0.7,0.3-1.5,0.5-2.3,0.6c-0.8,0-1.6-0.2-2.3-0.4c-1.5-0.5-2.9-1.4-3.9-2.7
		s-1.5-2.8-1.9-4.3c-0.2-0.8-0.3-1.5-0.3-2.3C246.5,320.6,246.7,319.8,246.9,319.1z"/>
</g>
<g>
	<path d="M193,319.4c0.8-0.2,1.5-0.5,2.1-0.8c0.7-0.2,1.3-0.6,1.9-1c1.2-0.9,2.1-2,2.8-3.4c0.7-1.3,1.2-2.8,1.5-4.3
		c0.2-0.7,0.3-1.5,0.4-2.3c0.3-0.7,0.5-1.5,0.7-2.3c0.2,0.8,0.2,1.6,0.3,2.4c-0.1,0.8-0.2,1.6-0.4,2.3c-0.3,1.6-0.8,3.1-1.6,4.5
		c-0.7,1.4-1.8,2.8-3.1,3.7c-0.7,0.5-1.4,0.9-2.2,1.1C194.6,319.7,193.7,319.7,193,319.4z"/>
</g>
<g>
	<polygon points="351.2,475.6 358.6,476.1 351.2,476.6 	"/>
</g>
<g>
	<polygon points="332.5,448.5 326,432.6 333.4,448 	"/>
</g>
<g>
	<path d="M221.5,188.1c3-1.1,6.2-1.7,9.4-2.1c3.2-0.3,6.4-0.3,9.7,0.1c3.2,0.4,6.5,1.2,9.4,2.8s5.5,3.7,7.3,6.4l-0.1,0.1
		c-2.6-1.8-5.3-3.5-8.1-4.7c-2.8-1.2-5.7-2.4-8.7-3c-3-0.6-6.2-0.8-9.3-0.7s-6.3,0.5-9.4,1.3L221.5,188.1z"/>
</g>
<g>
	<path d="M306,211.2c-2.3-2.3-4.8-4.4-7.4-6.3c-2.6-1.9-5.3-3.7-8.199-5.2c-2.9-1.5-5.9-2.4-8.9-3.1c-3-0.6-6.2-0.6-9.3,0.4
		l-0.1-0.2c2.7-2.1,6.4-2.7,9.7-2.2c3.4,0.4,6.5,2,9.4,3.6c2.899,1.7,5.5,3.7,8,5.8c2.5,2.2,4.8,4.5,6.899,7L306,211.2z"/>
</g>
<g>
	<path d="M415.8,254.7c2.3-0.1,4.5,0.4,6.7,1.3c2.1,0.9,4,2.5,5.3,4.5s1.9,4.4,2.101,6.7c0.199,2.3-0.101,4.7-0.5,6.9V274
		c-0.4,3-1.5,5.8-3,8.3s-3.7,4.7-6.4,6.1s-5.7,1.9-8.6,1.7c-2.9-0.2-5.7-0.9-8.4-1.9v-0.1c2.7,0.8,5.5,1.4,8.4,1.4
		c2.8,0,5.699-0.5,8.199-1.9s4.5-3.5,6-5.9c1.4-2.4,2.4-5.1,2.9-7.9l0,0l0,0c0.4-2.2,0.7-4.4,0.6-6.7c-0.1-2.2-0.699-4.5-1.8-6.4
		c-1.1-1.9-2.899-3.5-4.899-4.5C420.2,255.5,418,254.9,415.8,254.7L415.8,254.7z"/>
</g>
<g>
	<path d="M234.2,142.2c-2.3-5.8-3.6-11.8-4.2-17.9c-0.6-6.1-0.2-12.3,1.2-18.3c1.5-6,4.1-11.6,7.8-16.6c3.7-4.9,8.3-9.1,13.4-12.4
		c-5,3.4-9.6,7.6-13.2,12.6c-3.6,4.9-6.1,10.6-7.5,16.5c-1.4,5.9-1.6,12.1-1,18.1c0.7,6,2.1,12,4.4,17.6L234.2,142.2z"/>
</g>
<g>
	<path d="M273.2,141.3c-1-5.2-1-10.5-0.3-15.7c0.8-5.2,2.4-10.3,4.9-14.9c2.5-4.6,6-8.7,10-12c4-3.3,8.601-6,13.4-8
		c-4.8,2.1-9.3,4.8-13.2,8.2s-7.3,7.5-9.7,12c-2.4,4.6-4,9.6-4.6,14.7c-0.6,5.1-0.5,10.4,0.5,15.4L273.2,141.3z"/>
</g>
<g>
	<path d="M324.6,162.8c0.4-2.7,1.101-5.3,2.101-7.8s2.399-4.9,4.2-6.9c1.8-2,4-3.7,6.399-4.7c2.5-1.1,5.2-1.5,7.8-1.4
		c-2.699,0-5.3,0.5-7.699,1.7c-2.4,1.1-4.5,2.8-6.2,4.8s-2.9,4.4-3.8,6.8c-0.9,2.5-1.601,5-1.801,7.6L324.6,162.8z"/>
</g>
<g>
	<path d="M358.1,197.6c0.9-4.1,2.801-7.9,5.2-11.3c2.4-3.3,5.601-6.2,9.2-8.2s7.6-3.3,11.7-3.9c4.1-0.6,8.2-0.5,12.3-0.1
		c-4.1-0.4-8.2-0.3-12.2,0.3c-4,0.7-8,2-11.399,4c-3.5,2.1-6.5,4.9-8.801,8.2c-2.3,3.3-4,7.1-4.8,11H358.1z"/>
</g>
<g>
	<path d="M176,98.9c4.7-2.2,9.4-4.7,13.8-7.4c2.2-1.4,4.4-2.8,6.6-4.3c2.1-1.5,4.2-3.2,6-5c-1.8,1.9-3.8,3.6-5.9,5.2
		s-4.2,3.1-6.4,4.5c-4.4,2.9-9,5.5-13.7,7.9L176,98.9z"/>
</g>
<g>
	<path d="M172,73.6c5.2-2.1,10.3-4.4,15.4-6.8c5.1-2.4,10.1-4.8,15.1-7.5c-4.9,2.8-9.8,5.4-14.8,7.9s-10.1,4.9-15.2,7.2L172,73.6z"
		/>
</g>
<g>
	<path d="M292.3,34.6c1.9,1.3,3.601,2.6,5.4,4.1c1.7,1.4,3.3,3,4.8,4.6c1.5,1.6,2.9,3.4,4.1,5.3c1.2,1.9,2.101,4,2.4,6.2
		c-0.5-2.2-1.4-4.2-2.7-6.1c-1.2-1.9-2.7-3.5-4.2-5.1c-1.6-1.6-3.199-3-5-4.4c-1.699-1.4-3.5-2.7-5.399-3.8L292.3,34.6z"/>
</g>
<g>
	<path d="M358.9,33.7c-2,1.2-3.9,2.6-5.7,4.1s-3.5,3.1-5.101,4.8c-1.6,1.7-3,3.6-4.1,5.7c-1.1,2-2,4.2-2.4,6.6
		c0.301-2.3,1.101-4.6,2.2-6.7c1.101-2.1,2.4-4.1,4-5.9c1.5-1.8,3.2-3.5,5-5.1c1.8-1.6,3.601-3,5.601-4.3L358.9,33.7z"/>
</g>
<g>
	<path d="M499.5,230.7c0.3-5.1-0.1-10.3-1.1-15.3c-0.9-5.1-2.4-10-4.5-14.7c-2.101-4.7-4.801-9.1-8.2-13.1
		c-3.3-3.9-7.3-7.4-11.601-10.2c4.4,2.7,8.4,6.1,11.801,10c3.399,3.9,6.3,8.3,8.5,13c2.199,4.7,3.8,9.7,4.8,14.8
		c1,5.1,1.5,10.3,1.3,15.5H499.5z"/>
</g>
<g>
	<path d="M396.5,242.7c1-1.5,2-2.8,3.1-4.2c1.101-1.3,2.2-2.7,3.5-3.9c1.2-1.2,2.601-2.4,4.101-3.2c0.8-0.4,1.6-0.8,2.399-0.9
		c0.9-0.2,1.801-0.1,2.5,0.3c-0.8-0.4-1.699-0.4-2.5-0.2c-0.8,0.2-1.6,0.6-2.3,1c-1.399,0.9-2.7,2.1-3.899,3.4
		c-2.301,2.5-4.301,5.3-6.101,8.2L396.5,242.7z"/>
</g>
<g>
	<path d="M416.9,330.3c1.699-2.1,3.5-4,5.399-5.8c1.9-1.8,3.8-3.6,5.9-5.3c4-3.4,8.3-6.4,12.7-9.2c-4.301,2.9-8.5,6.1-12.4,9.6
		c-2,1.7-3.8,3.5-5.6,5.4c-1.801,1.9-3.601,3.8-5.101,5.9L416.9,330.3z"/>
</g>
<g>
	<path d="M458,61.6c-2.9-1.1-5.9-1.9-8.9-2.6s-6.1-1.2-9.199-1.4c-3.101-0.2-6.2-0.2-9.301,0.3c-3.1,0.5-6.1,1.5-8.699,3.2
		c2.6-1.8,5.6-2.9,8.699-3.4c3.101-0.6,6.2-0.7,9.4-0.6c3.1,0.1,6.3,0.6,9.3,1.2c3.101,0.6,6.101,1.4,9.101,2.4L458,61.6z"/>
</g>
<g>
	<path d="M267.8,722.6c-0.8-6.3-1.1-12.5-1.2-18.8c0-6.3,0.2-12.6,0.9-18.8c1.3-12.5,4.1-24.9,9.2-36.4c-5,11.5-7.5,24-8.7,36.4
		c-0.6,6.2-0.8,12.5-0.6,18.8c0.1,6.3,0.5,12.5,1.4,18.7L267.8,722.6z"/>
</g>
</svg>
