<?xml version="1.0" encoding="utf-8"?>
<!-- Generator: Adobe Illustrator 15.0.0, SVG Export Plug-In . SVG Version: 6.00 Build 0)  -->
<!DOCTYPE svg PUBLIC "-//W3C//DTD SVG 1.1//EN" "http://www.w3.org/Graphics/SVG/1.1/DTD/svg11.dtd">
<svg version="1.1" id="layer_x5F_www.ABC-color.com"
	 xmlns="http://www.w3.org/2000/svg" xmlns:xlink="http://www.w3.org/1999/xlink" x="0px" y="0px" width="567px" height="822px"
	 viewBox="0 0 567 822" enable-background="new 0 0 567 822" xml:space="preserve">
<polyline fill="#FFFFFF" points="0,0 567,0 567,822 "/>
<path fill="#FFFFFF" stroke="#000000" stroke-miterlimit="10" d="M406.9,179.7c0.3,0.9,0.698,1.7,1,2.6v0.2
	C407.7,181.8,407.3,180.8,406.9,179.7z"/>
<path fill="#FFFFFF" stroke="#000000" stroke-miterlimit="10" d="M385,198.7l-8.6-4.5c0.1-1.4,0.198-2.9,0.198-4.3l7.7,5.1l5.8-7.3
	l3.9,5.7l2.4-5.7l4.398,4.7l1.9-6.2l3.898,3.1l1.302-6.8v-0.2c1,2.7,2,5.3,2.898,7.9l-2.3,5.9l-2.9-4.1l-3.898,5.7l-4.4-4.7
	l-2.398,4.7l-5.102-4.4L385,198.7z"/>
<path fill="#FFFFFF" stroke="#000000" stroke-miterlimit="10" d="M367.4,135c24.698,2.9,29.5,22.7,29.5,22.7
	c3.698,7.4,7,14.5,9.898,21.6c0.102,0.1,0.102,0.3,0.2,0.4c0.4,1.1,0.8,2,1,2.8l-1.3,6.8l-3.9-3.1l-1.898,6.2l-4.4-4.7l-2.4,5.7
	l-3.898-5.7l-5.8,7.3l-7.7-5.1C377.3,165,370.1,142.6,367.4,135z"/>
<path fill="#FFFFFF" stroke="#000000" stroke-miterlimit="10" d="M140.9,222.9l-9.8,5.4l-5.4-9.3c0.9-1.7,1.8-3.4,2.8-5l0.5,0.3
	l4,7.8l9.8-5.4l2.5,7.4l8-6.6l5.7,5.9l7.4-4l5.8,6.2l6.6-6.2l5.1,7.8l6.9-6.2l2.5,8.2l5.8-6.2l7.7,7h0.1c0.7,2.6,1.3,5.3,1.8,8.1
	l-0.5,0.1l-10.9-8.9l-5.8,6.2l-2.6-8.2l-6.9,6.2l-5.1-7.8l-6.6,6.2l-5.8-6.2l-5,1.5l-2.7,0.8l-5.4-4.3l-8,6.6L140.9,222.9z"/>
<path fill="#FFFFFF" stroke="#000000" stroke-miterlimit="10" d="M367.2,242.2l-6.3-3c0.898-1.2,1.698-2.4,2.5-3.7l2.6,2l3.6-5.7
	l8.302,6.2l3.398-6.2l6.102,4.1l0.198-6.2l6.302,4.7l2.398-5.7l5.8,3.1l1.9-6.7l7.8,4.7l3.4-7.3l5.1,4.9c0.4,2.5,0.8,5,1.102,7.5
	H421.1l-4.898-5.2l-4.4,6.7l-4.398-5.7l-3.4,7.8l-5.3-4.7l-3.4,5.7L391,236l-2.2,7l-6.1-6.5l-2.4,8.3l-9.7-7.8L367.2,242.2z"/>
<path fill="#FFFFFF" stroke="#000000" stroke-miterlimit="10" d="M244.3,376.3c41.5,4.7,43.2-23.8,43.2-23.8l0.1-0.2
	c0.4,0.2,0.801,0.3,1.2,0.5l-0.1,0.3c0,0,10.2,18.6,20.398,23.3C271.3,422.2,224,395,224,395h-0.8c4.2-2,14.9-8.1,20.9-18.8
	L244.3,376.3z"/>
<path fill="#FFFFFF" stroke="#000000" stroke-miterlimit="10" d="M406.1,210.1c-9.198-8.3,1-7.8,1-7.8c4.2-6.5,6.602-1.9,6.802-1.6
	l0.3-0.1c0.7,2.4,1.398,4.5,1.7,5.7c0.1,0.2,0.1,0.4,0.198,0.6c-0.698-0.9-1.698-1.5-2.8-1.5c-2.3,0-4.1,2.4-4.1,5.4
	s1.8,5.4,4.1,5.4c0.7,0,1.3-0.2,1.8-0.5c0,0,0.102,0,0.102-0.1c1.2-0.8,2-2.2,2.2-3.9c0.698,2.8,1.3,5.5,1.8,8.2
	c0.1,0.4,0.1,0.7,0.2,1l0,0c-1.9-1-3.4-2.1-3.4-2.1c-5.4,5.2-7.3-1-7.3-1C400.7,219.9,406.1,210.1,406.1,210.1z"/>
<path fill="#FFFFFF" stroke="#000000" stroke-miterlimit="10" d="M317.3,726c1.3,0.6,10.5,4.9,15.9-0.8c0,0,11.6,6.2,16-1.602
	c0,0,5.1,9.302,15.3,0.802c0,0,10.9,5.398,13.1-3.102c0,0,11.7,6.2,17.5,0l1.9-6l0,0c-0.2,6.102-0.5,11.7-0.7,16.5l-2.7,7.3
	c-5.8,6.2-17.5,0-17.5,0C373.9,747.6,363,742.2,363,742.2c-10.2,8.6-15.3-0.8-15.3-0.8c-4.4,7.8-16,1.5-16,1.5
	c-5.8,6.198-14.8,1-14.8,1H316.3c0.2-2.802,0.3-5.802,0.5-8.9C317,732.3,317.2,729.2,317.3,726z"/>
<path fill="#FFFFFF" stroke="#000000" stroke-miterlimit="10" d="M286.1,161.2c4.9-5.2,10.7-14.1,10.7-14.1
	c5.2-2.3,9.602-6,13.2-10.7l0.2,0.2c0,0,5.1,5,4.398,7v0.1l0,0c-8.5,1.7-25.3,18.5-26.198,19.5c-0.602-0.7-1.301-1.3-2-1.7
	L286.1,161.2z"/>
<path fill="#FFFFFF" stroke="#000000" stroke-miterlimit="10" d="M219,216.9c-0.5,0,0.2-4.3,0.2-4.3c0.3-3.1,2.3-7.5,5.1-12
	c3.4-5.6,8-11.6,11.9-16.3c4.3-5.2,7.7-9,7.7-9c2.6-4.6,20.8-3.8,22.5-3.7c0.2,0.6,0.5,1.2,0.8,1.9c0,0,4.6,7.6,4.6,13.2
	c-12.9,3.7-13.3,15.7-13.3,15.7c-0.3,4.5-1.1,6.9-2,8.1c-1.4,1.9-2.9,1-2.9,1c-17.7-8.2-25.1-2.1-25.1-2.1
	C222.5,211.4,219.6,216.9,219,216.9z"/>
<path fill="#FFFFFF" stroke="#000000" stroke-miterlimit="10" d="M288.5,163.2c0.9-0.9,17.8-17.7,26.2-19.5l0,0
	c0.7-0.2,1.398-0.2,2-0.1c0,0,10.5,1.5,20.5,2.3c7.5,0.7,14.8,1,17,0.2c0,0-5.5,4.5-10.9,8c0,0-10.898,4.1-16.8,1.9
	c0,0,0.2,9.1-11.3,13.6c-5.102,2-12.4,3.2-23,2.3C292.2,172,291.2,166.4,288.5,163.2z"/>
<path fill="#FFFFFF" stroke="#000000" stroke-miterlimit="10" d="M228,315.9c0,0,1.1-19.4,12.2-3.9c0,0,0.3-15.5,8.1-2.9
	c1.4,6.2,0.6,11.4-0.6,14.9c-0.1-0.2-0.2-0.4-0.2-0.4s-7.8-10.9-13.5-0.2c0,0-16.4,41.6,14.2,35h0.3c0.1,4.5-0.6,8.5-1.8,12.1
	c-1.8,1.9-12.6,12.2-15.8-5.7c0,0-19.1,1.5-7.5-16.1c0,0-17.5-8.7,0-17.9C223.4,330.9,212.8,313.8,228,315.9z"/>
<path fill="#FFFFFF" stroke="#000000" stroke-miterlimit="10" d="M238.5,72.9c0,0,3.3,3.5-0.4,8.2c0,0-6.9,3.1-17.5,12.8
	C220.7,93.9,220.3,83,238.5,72.9z"/>
<path fill="#FFFFFF" stroke="#000000" stroke-miterlimit="10" d="M116.1,259l7.3-4.7l0.7,5l7.3-5.4l3.3,7.8l6.6-5l4,6.2l8-4.7l4,7.8
	l7.3-6.2l3.3,6.2l6.2-6.6l4.7,5.8l6.6-6.2l5.5,6.2l5.8-7.8l7.7,6.2l6.7-4.7c0.1,2.2,0.1,4.4,0.1,6.7l-7.2,4.9l-7.6-6.2l-5.8,7.8
	L185,266l-6.6,6.2l-4.7-5.8l-6.2,6.6l-4.2-5.7l-7.4,4.2l-4.4-7.4l-6.6,5.8l-6-6.2l-6.1,3.5L131,261l-7.3,5.4L122,259l-8,7l-2.2-10
	c0.4-2.3,1-4.5,1.6-6.7l0.2,0.1L116.1,259z"/>
<path fill="#FFFFFF" stroke="#000000" stroke-miterlimit="10" d="M103.7,735.3c-9.6,0.602-15.3-6.7-17-9.2
	c0.2-5.198,0.5-10.3,0.8-15.5c1.7,2.602,7.4,9.802,16.9,9.2c0,0,4.4,12.4,13.1,9.3c0,0,5.1,10.102,12.4,4.7c0,0,5.1,11.7,16,5.4
	l7.3,3.1c1.2-1,2-2.8,2.4-4.398c-0.5,5.5-1,10.5-1.4,14.898c-0.5,1.7-1.7,3.602-4.2,4c-1.5,0.3-4.9-2.1-4.9-2.1
	c-10.9,6.2-16-5.4-16-5.4c-7.3,5.4-12.4-4.7-12.4-4.7C108.1,747.7,103.7,735.3,103.7,735.3z"/>
<path fill="#FFFFFF" stroke="#000000" stroke-miterlimit="10" d="M390.6,221.2c-2.698,0-4.898-2.4-4.898-5.4s2.2-5.4,4.898-5.4
	c2.7,0,4.9,2.4,4.9,5.4S393.2,221.2,390.6,221.2z"/>
<path id="www.ABC-color.com" fill="#FFFFFF" stroke="#000000" stroke-miterlimit="10" d="M182.8,253.2c0,0,5.1,6.6,7.6,1.2
	c0,0,12.4,0.4,7.3-6.6c0,0,2.2-12-5.1-7.8c0,0-9.5-7-10.6,2.3C182.1,242.3,171.1,249.3,182.8,253.2z M154.7,254c0,0,4.4,4.7,8.4-0.4
	c0,0,9.1-0.8,5.1-8.9c0,0,6.2-7.8-4-8.2c0,0-4.7-8.2-10.2-0.4c0,0-7.3,0-4.4,8.6C149.6,244.7,146,252,154.7,254z M124.5,232.2
	c0,0-11.3,7-2.9,13.2c0,0,0,9.7,9.1,3.1c0,0,9.5,0.8,6.9-6.6c0,0,4.7-5-2.6-7.8C135.1,234.2,132.5,225.2,124.5,232.2z M113.4,249.3
	c2.9-10.6,7.3-20.8,12.3-30.2l5.4,9.3l9.8-5.4l2.5,7.4l8-6.6l5.4,4.3l2.7-0.8l5-1.5l5.8,6.2l6.6-6.2l5.1,7.8l6.9-6.2l2.6,8.2
	l5.8-6.2l10.9,8.9l0.5-0.1c1.2,6.4,2,13.4,2.2,21.1l-6.7,4.7l-7.7-6.2l-5.8,7.8l-5.5-6.2l-6.6,6.2l-4.7-5.8l-6.2,6.6l-3.3-6.2
	l-7.3,6.2l-4-7.8l-8,4.7l-4-6.2l-6.6,5l-3.3-7.8l-7.3,5.4l-0.7-5l-7.3,4.7l-2.5-9.7V249.3z"/>
<path fill="#FFFFFF" stroke="#000000" stroke-miterlimit="10" d="M218.1,275c20.3,12.7,27.9,24.7,30.1,34.2
	c-7.8-12.6-8.1,2.9-8.1,2.9c-11.1-15.5-12.2,3.9-12.2,3.9c-15.1-2.1-4.6,15-4.6,15c-17.5,9.1,0,17.9,0,17.9
	c-11.6,17.7,7.5,16.1,7.5,16.1c3.2,17.9,14,7.6,15.8,5.7c-0.7,2-1.6,3.9-2.5,5.6c-6.1,10.7-16.7,16.7-20.9,18.8
	c-1.1,0.5-1.8,0.8-1.8,0.8c-21,2.4-38.1-1.1-51.9-8.1c-53.2-27-59.2-106.5-59.2-106.5c-0.9-8.4-0.2-16.9,1.5-25.2l2.2,10l8-7
	l1.8,7.4l7.3-5.4l1.8,6.2l6.1-3.5l6,6.2l6.6-5.8l4.4,7.4l7.4-4.2l4.2,5.7l6.2-6.6l4.7,5.8l6.6-6.2l5.5,6.2l5.8-7.8l7.6,6.2l7.2-4.9
	c0,2.2-0.1,4.5-0.2,6.9C210.8,272.6,216.7,274.6,218.1,275z"/>
<path fill="#FFFFFF" stroke="#000000" stroke-miterlimit="10" d="M188.3,243.1c3.2,0,5.8,1.7,5.8,3.9s-2.6,3.9-5.8,3.9
	c-3.2,0-4.4-0.6-4.4-2.7C183.9,246.1,185,243.1,188.3,243.1z"/>
<path fill="#FFFFFF" stroke="#000000" stroke-miterlimit="10" d="M103.7,735.3c0,0,4.4,12.4,13.1,9.3c0,0,5.1,10.102,12.4,4.7
	c0,0,5.1,11.7,16,5.4c0,0,3.3,2.398,4.9,2.1c2.5-0.5,3.7-2.3,4.2-4c-0.8,8.4-1.3,14.5-1.6,17.602c-0.1,1.5-0.2,2.3-0.2,2.3
	c-43.7,7.8-66.3-30.3-66.3-30.3c0.1-5.4,0.3-10.9,0.5-16.2C88.4,728.6,94.1,735.9,103.7,735.3z"/>
<path fill="#FFFFFF" stroke="#000000" stroke-miterlimit="10" d="M237.8,750.6c0,0,0,2.2-1.1,4.9c1-5.7,1.9-12.2,2.7-19.5l0,0
	c0.1-0.2,0.1-0.4,0.1-0.4s4.1,6,17.2-0.3c0,0,12.4,11.7,16,2.3c0,0,8.7,10.102,21.1,2.302c0,0,6.601,7.8,15.3-2.302
	c0,0,6,3.802,7.7-2.398c-0.2,3.1-0.3,6.1-0.5,8.898c-0.1,1.9-0.2,3.7-0.3,5.5l0,0c-0.7,9.302-7.5,3.602-7.5,3.602
	c-8.7,10.1-15.3,2.3-15.3,2.3c-12.4,7.8-21.1-2.3-21.1-2.3c-3.6,9.3-16-2.3-16-2.3C242.9,757,237.8,750.6,237.8,750.6z"/>
<path fill="#FFFFFF" stroke="#000000" stroke-miterlimit="10" d="M160.2,171.2c0,0,34.6,12.9,46.7,58.6h-0.1l-7.7-7l-5.8,6.2
	l-2.5-8.2l-6.9,6.2l-5.1-7.8l-6.6,6.2l-5.8-6.2l-7.4,4l-5.7-5.9l-8,6.6l-2.5-7.4l-9.8,5.4l-4-7.8l-0.5-0.3
	C142.7,189,160.2,171.2,160.2,171.2z"/>
<path fill="#FFFFFF" stroke="#000000" stroke-miterlimit="10" d="M396.6,731.4c8.802-2.302,8,5.398,15.302-1.5
	c2.698-2.602,13.1,0.8,16-8.602c0,0,8.698,5.4,16-3.898c0,0,10.198-1.5,16.8-12.4c0,0,8.7,2.3,11.7-9.3c0,0,7-3.9,8.198-11.9
	c0.7,7.9,1.2,15.5,1.302,22.8c0,0-57.602,64.5-86.7,45.802c0.1-1,0.7-8.602,1.3-20.5L396.6,731.4z"/>
<path fill="#FFFFFF" stroke="#000000" stroke-miterlimit="10" d="M259.4,362.4c-7.6-2.5,2-10,2.4-10.3l0,0
	c4.9,1,19.9-17.9,19.9-17.9c1.9,1.6,9.2-0.8,9.2-0.8c0.5,5.2,8.199,8.3,10,6.5c1.1-1.1,0-6.5,0-6.5c0-4.4-8-8.3-8-8.3
	c3.1-2.5,2.898-4.5,2-5.9c1-1.1,11.1,1.2,11.1,1.2c6.3,3.6,13.6,0,13.6,0c16,12.4,6.802,23.8,6.802,23.8s-1.2-1-3.602,1
	c-2.398,2.1-2.7,2.6-2.7,2.6c-10.8,10.1-24.5,7.3-31.199,4.9c-0.399-0.2-0.801-0.3-1.199-0.5c-1.9-0.7-3-1.3-3-1.3
	c-2.9-2.6-17,14.5-17,14.5c-9.7,4.1-4.4-6.2-4.4-6.2l-0.1-0.1C260.9,361.1,259.4,362.4,259.4,362.4z"/>
<path fill="#FFFFFF" stroke="#000000" stroke-miterlimit="10" d="M247.1,353.1c-2.1-4-6.2-14.2-0.7-25.7c0.4-0.9,0.9-2,1.3-3.3
	c0.6,1,2.6,3.5,5,1c0,0,15.1-28.5,23.3-32.1c0,0,2.3-2.4,5.3-5.1c3.601-3.1,8.3-6.6,11.7-6.8c0,0,2.4,5.7-2.9,8.8
	c0,0-9.2,7.3-10.7,16.6c0,0,17.5,0.5,13.6,10.9c0,0,1.3,0.7,2,1.9c0.9,1.4,1.1,3.4-2,5.9c0,0,8,3.9,8,8.3c0,0,1.1,5.3,0,6.5
	c-1.7,1.8-9.5-1.3-10-6.5c0,0-7.3,2.3-9.2,0.8c0,0-15.1,18.9-19.9,17.9l0,0c-0.5,0.1-12.2,3.5-14.6,1L247.1,353.1z"/>
<path fill="#FFFFFF" stroke="#000000" stroke-miterlimit="10" d="M154.7,749.3c0,0,5.8,12.4,19.7,6.2c0,0,8,8.5,18.2-0.8
	c0,0,12.4,7.8,18.2,2.3c0,0,8,6.2,13.9,0c0.3,0.5,6.7,9.8,11.6-0.8c0.1-0.3,0.2-0.602,0.4-0.8c-1.6,9.1-3.4,15.898-5.5,19.398
	c-0.7,1.102-1.4,1.9-2.1,2.4c-17.6,10.5-72.7-5.8-76.3-6.9c0.3-3.1,0.8-9.2,1.6-17.6C154.8,751,154.7,749.3,154.7,749.3z"/>
<path fill="#FFFFFF" stroke="#000000" stroke-miterlimit="10" d="M231.8,149.5c-8.7-4.5-24.3-19.9-24.3-19.9
	c-5.5-18.3-6.6-48.6-6.6-48.6c5.4-22.4,13.6-36.7,20.4-45.3l0.4,0.3c0,0,8-4.7,11.7-1.2c0,0,5.8-7.8,13.1-7l0.2-0.7
	c46,13.1,53,55.8,53,55.8c0.3,2.4,0.5,4.8,0.6,7.2c-1.2-2.1-13.2-22.4-30.1-29.3c0,0-23.3,6.6-32.8-11.3c0,0,0.7,21.8-11.7,23.7
	c0,0-18.2,14.8-9.8,36.9C215.9,110.2,224.4,142.3,231.8,149.5z"/>
<path fill="#FFFFFF" stroke="#000000" stroke-miterlimit="10" d="M188.3,250.9c3.2,0,5.8-1.7,5.8-3.9s-2.6-3.9-5.8-3.9
	c-3.2,0-4.4,2.9-4.4,5S185,250.9,188.3,250.9z M190.4,254.4c-2.5,5.4-7.6-1.2-7.6-1.2c-11.7-3.9-0.7-10.9-0.7-10.9
	c1.1-9.3,10.6-2.3,10.6-2.3c7.3-4.3,5.1,7.8,5.1,7.8C202.8,254.7,190.4,254.4,190.4,254.4z"/>
<ellipse fill="#FFFFFF" stroke="#000000" stroke-miterlimit="10" cx="275.2" cy="87.8" rx="5.5" ry="5"/>
<path fill="#FFFFFF" stroke="#000000" stroke-miterlimit="10" d="M409,210.8c0-3,1.8-5.4,4.1-5.4c1.102,0,2.102,0.6,2.802,1.5
	c0.8,3.9,0.898,3.3,1.198,4.9c-0.8,2-1.398,3.3-2.198,3.9l-0.102,0.1c-0.5,0.3-1.1,0.5-1.8,0.5C410.9,216.3,409,213.9,409,210.8z"/>
<path fill="#FFFFFF" stroke="#000000" stroke-miterlimit="10" d="M396.5,731.9c0.2-4.802,0.5-10.4,0.7-16.5
	c8.8-2.302,9,3.6,16.2-3.4c2.698-2.6,13.1,0.8,16-8.6c0,0,8.698,5.398,16-3.9c0,0,10.198-1.6,16.8-12.4c0,0,8.7,2.302,11.6-9.3
	c0,0,4-1.398,5-9.1c0.7,5.1,1.2,10.2,1.7,15.1l0,0c-1.1,8-8.2,11.9-8.2,11.9c-2.898,11.7-11.7,9.3-11.7,9.3
	c-6.6,10.9-16.8,12.4-16.8,12.4c-7.3,9.3-16,3.898-16,3.898c-2.898,9.3-13.3,5.9-16,8.602c-7.3,7-6.5-0.7-15.3,1.5V731.9
	L396.5,731.9z"/>
<path fill="#FFFFFF" stroke="#000000" stroke-miterlimit="10" d="M201,162.4c8.3,1.3,15.6,0.7,15.6,0.7c0.4,0,1.2,0,2.3,0.1
	c2.4,2.8,14.8,17.1,17.3,21.1c-3.9,4.7-8.5,10.7-11.9,16.3l-0.4-0.2C224,200.4,211.5,169.6,201,162.4z"/>
<path fill="#FFFFFF" stroke="#000000" stroke-miterlimit="10" d="M248.2,355c0,0-0.5-0.7-1.1-1.9l0.2-0.1c2.4,2.5,14-0.9,14.6-1
	c-0.4,0.3-10,7.8-2.4,10.3c0,0,1.5-1.3,3.8-3.2l0.1,0.1c0,0-5.3,10.4,4.4,6.2c0,0,14.1-17.1,17-14.5c0,0,1.101,0.6,3,1.3l-0.1,0.2
	c0,0-1.7,28.5-43.2,23.8l-0.2-0.1c1-1.7,1.8-3.6,2.5-5.6c1.3-3.6,2-7.7,1.8-12.1C248.4,357.3,248.3,356.2,248.2,355z"/>
<path fill="#FFFFFF" stroke="#000000" stroke-miterlimit="10" d="M297.9,213.2c9.5-6.6,17.5-43.1,17.5-43.1l-0.102-0.3
	c11.4-4.6,11.3-13.6,11.3-13.6c5.802,2.1,16.802-1.9,16.802-1.9c21.3,21.4,17.698,85.1,17.698,85.1c-1.898,12-12.6,14.9-12.6,14.9
	c-24.3,5.7-37.4,33.1-37.4,33.1c-0.6,1.3-1,2.5-1.398,3.8c0.2-13.6-9.8-59.6-9.8-59.6C294.6,212.4,297.9,213.2,297.9,213.2z"/>
<path fill="#FFFFFF" stroke="#000000" stroke-miterlimit="10" d="M319.6,320.4c0,0,6.302-14,18,4.7c0,0,3.9,28-11.198,19.2
	C326.4,344.2,335.7,332.8,319.6,320.4z"/>
<path fill="#FFFFFF" stroke="#000000" stroke-miterlimit="10" d="M324.5,105.6c0,0,37.5,7.8,41.9,26.8c0,0,0.398,0.9,1,2.7
	c2.698,7.5,9.898,29.9,9.1,54.9c0,1.4-0.1,2.8-0.2,4.3c-0.898,13.9-4.5,28.4-12.898,41.3c-0.802,1.2-1.602,2.5-2.5,3.7
	c0,0,3.6-63.7-17.7-85.1c5.5-3.5,10.898-8,10.898-8c-2.3,0.8-9.5,0.5-17-0.2l0.102-0.8c0,0-4.4-11.3-21.9-15.5l-0.6-0.4
	c4-7.3,6.8-15.7,8.8-24L324.5,105.6z"/>
<path fill="#FFFFFF" stroke="#000000" stroke-miterlimit="10" d="M415.8,206.3c-0.3-1.1-1-3.3-1.7-5.7h0.102
	C414.8,202.6,415.3,204.5,415.8,206.3z"/>
<path fill="#FFFFFF" stroke="#000000" stroke-miterlimit="10" d="M218.9,163.2c10.1,0.6,46.9,3.8,46.9,3.8s-0.5,1.6,0.6,4.6
	c-1.7-0.1-19.9-0.9-22.5,3.7c0,0-3.4,3.7-7.7,9C233.8,180.3,221.4,166,218.9,163.2z"/>
<path fill="#FFFFFF" stroke="#000000" stroke-miterlimit="10" d="M237.8,750.6c0,0,5.1,6.5,18.2,0.302c0,0,12.4,11.698,16,2.3
	c0,0,8.7,10.1,21.1,2.3c0,0,6.602,7.8,15.302-2.3c0,0,6.8,5.7,7.5-3.602h0.1c-0.3,6.302-0.6,11.302-0.8,14.5
	c-0.102,2.5-0.2,3.9-0.2,3.9c-16.8,14.8-83.8,7-83.8,7h-0.1c2.1-3.5,3.9-10.3,5.5-19.4C237.8,752.7,237.8,750.6,237.8,750.6z"/>
<path fill="#FFFFFF" stroke="#000000" stroke-miterlimit="10" d="M266.5,95.1c18.9,2.6,21.1-12.4,21.1-12.4
	C260.4,73.3,266.5,95.1,266.5,95.1z M280.4,72.9c0,0-10.6-15.5-26.6-5.8c0,0-2.5,3.9,3.3,4.3C257.1,71.4,264.7,65.9,280.4,72.9z
	 M234.5,150.6c-0.8-0.2-1.7-0.6-2.7-1.1c-7.5-7.2-15.9-39.3-15.9-39.3c-8.4-22.1,9.8-36.9,9.8-36.9c12.4-1.9,11.7-23.7,11.7-23.7
	c9.5,17.9,32.8,11.3,32.8,11.3c16.899,7,28.899,27.2,30.1,29.3c1.7,32.2-11.899,56.5-11.899,56.5c-3.199,7.5-7.601,11.2-11.799,12.9
	c-0.2-0.5-0.4-0.9-0.6-1.4c-0.8-3.6-2-7.1-2.2-7.6c0.1,0.4,0.9,4.1,2.2,7.6c0.1,0.5,0.2,1,0.3,1.5c-6.8,2.6-13.1,0.2-13.1,0.2
	C236,148.7,234.5,150.6,234.5,150.6z M221.5,111.7c16.3,5.2,23.8-7.5,23.8-7.5C227.8,86.5,221.5,111.7,221.5,111.7z M269.2,138.3
	c9-6.2,8.8-18.6,8.8-18.6c-1.5,2.2-3.9,5.9-5.3,5.9c-5.8,0-7.3,3.1-7.3,3.1c-5.5-0.3-5.5,2.5-8.2,4c-2.6,1.6-7.6-0.6-7.6-0.6
	C256.4,141.7,269.2,138.3,269.2,138.3z M238.2,81.1c3.6-4.7,0.4-8.2,0.4-8.2c-18.2,10.1-17.8,21-17.8,21
	C231.2,84.2,238.2,81.1,238.2,81.1z"/>
<path fill="#FFFFFF" stroke="#000000" stroke-miterlimit="10" d="M104.5,719.8c-9.5,0.602-15.2-6.5-16.9-9.2l0,0
	C98.8,525.2,169.3,388,169.3,388l0.2-0.3c13.9,7,30.9,10.5,51.9,8.1c0,0,0.7-0.3,1.8-0.8h0.8c0,0,47.3,27.2,85.2-18.6
	c0,0,45.2,28.8,72.1-20.2c0,0,80.7,184.3,97.5,312.5c-1,7.7-5,9.1-5,9.1c-2.898,11.7-11.6,9.3-11.6,9.3
	c-6.602,10.9-16.8,12.4-16.8,12.4c-7.302,9.3-16,3.9-16,3.9c-2.9,9.3-13.302,5.898-16,8.6c-7.302,7-7.5,1.1-16.2,3.4l0,0l-1.9,6
	c-5.8,6.198-17.5,0-17.5,0c-2.2,8.5-13.1,3.1-13.1,3.1c-10.2,8.6-15.3-0.8-15.3-0.8c-4.4,7.8-16,1.6-16,1.6
	c-5.4,5.8-14.602,1.5-15.9,0.8c-0.2,3.2-0.3,6.2-0.5,9.102c-1.6,6.3-7.7,2.398-7.7,2.398C300.6,747.7,294,739.9,294,739.9
	c-12.4,7.8-21.1-2.302-21.1-2.302c-3.6,9.302-16-2.3-16-2.3c-13.1,6.2-17.2,0.3-17.2,0.3s0,0.102-0.1,0.4l0,0
	c-0.2,0.7-0.7,2.5-2.4,4.8c-6.6,9.5-11.4,1.3-11.7,0.8c-5.8,6.2-13.8,0-13.8,0c-5.8,5.4-18.2-2.3-18.2-2.3
	c-10.2,9.3-18.2,0.8-18.2,0.8c-13.9,6.2-18.7-5.198-18.7-5.198c0,0.198-0.2,1.5-0.7,3.1s-1.3,3.4-2.4,4.4l-7.3-3.102
	c-10.9,6.2-16-5.398-16-5.398c-7.3,5.398-12.4-4.7-12.4-4.7C108.8,732.2,104.5,719.8,104.5,719.8z"/>
<path fill="#FFFFFF" stroke="#000000" stroke-miterlimit="10" d="M315.2,315.5c-3.9-5.2-8.602-14-5.7-24.5c0.3-1.2,0.8-2.5,1.4-3.8
	c0,0,13.1-27.5,37.398-33.1c0,0,10.7-2.8,12.602-14.9l6.3,3l3.398-5.2l9.7,7.8l2.4-8.3l6.1,6.5l2.2-7l4.4,3.6l3.398-5.7l5.3,4.7
	l3.4-7.8l4.4,5.7l4.398-6.7l4.9,5.2h0.3c7.6,60.6-16.4,97.9-16.4,97.9c-5.199,8.3-14.898,16.5-24,23.1
	c-11.3,8.1-21.699,13.7-21.699,13.7c-16,8.3-28.199-12.4-28.199-12.4c-1.602-2.2-2.602-4.3-3.301-6.2c8.699,5.6,7.199-1.6,7.199-1.6
	c7.801,2.6,6.301-5.2,6.301-5.2c11.199,0.8,4.399-9.9,4.399-9.9c11.2-8.3-2.899-13.5-2.899-13.5c5.301-4.1-1.899-7.8-1.899-7.8
	c-1-10.4-11.7-6.2-11.7-6.2c-2.899-7.3-9.2,0.5-9.2,0.5C311.9,305.9,315.3,315.5,315.2,315.5L315.2,315.5z"/>
<path fill="#FFFFFF" stroke="#000000" stroke-miterlimit="10" d="M315.3,315.5c0,0-3.398-9.6,4.9-8c0,0,6.3-7.8,9.2-0.5
	c0,0,10.698-4.1,11.698,6.2c0,0,7.302,3.6,1.9,7.8c0,0,14.1,5.2,2.9,13.5c0,0,6.8,10.6-4.4,9.9c0,0,1.5,7.8-6.3,5.2
	c0,0,1.398,7.2-7.2,1.6c-1.5-3.9-1.5-6.8-1.5-6.8c15.1,8.8,11.2-19.2,11.2-19.2c-11.602-18.6-18-4.7-18-4.7S317.6,318.6,315.3,315.5
	L315.3,315.5z"/>
<path fill="#FFFFFF" stroke="#000000" stroke-miterlimit="10" d="M414.2,200.6L414.2,200.6c-1-3.2-2.2-6.9-3-9.3
	C412.3,194.5,413.3,197.6,414.2,200.6z"/>
<path fill="#FFFFFF" stroke="#000000" stroke-miterlimit="10" d="M257.1,71.4c-5.8-0.4-3.3-4.3-3.3-4.3c16-9.7,26.6,5.8,26.6,5.8
	C264.7,65.9,257.1,71.4,257.1,71.4z"/>
<path fill="#FFFFFF" stroke="#000000" stroke-miterlimit="10" d="M207.6,129.7c0,0,15.6,15.3,24.3,19.9c1,0.5,1.9,0.9,2.7,1.1
	c0,0,1.5-1.9,28.8,9.3c0,0,6.3,2.5,13.1-0.2c0.2,1.3,0.3,2.6,0.2,3.6c-0.1,1.1-0.4,1.9-0.9,2.3c0,0-1.8,3.5-5.8,1.9s-4-0.8-4-0.8
	s-36.8-3.2-46.9-3.8c-1.1-0.1-1.9-0.1-2.3-0.1c0,0-7.3,0.6-15.6-0.7c-9.1-1.4-19.5-5.2-22.7-14.8c-0.3-0.9-0.5-1.8-0.7-2.8
	c0,0-10.6-58.7,51-135.2c0,0,83.8,14,99.4,56.7c0,0,0.1,19.1-4.602,39c-2,8.3-4.8,16.7-8.8,24c-1.398,2.6-3,5-4.7,7.2
	c-3.6,4.6-7.999,8.4-13.198,10.7c0,0-5.9,8.9-10.7,14.1c-1.8,1.9-3.4,3.3-4.6,3.6c-1.9,0.5-3.5-2-4.9-5.1c4.2-1.7,8.6-5.4,11.8-12.9
	c0,0,13.6-24.3,11.9-56.5c-0.102-2.4-0.301-4.8-0.602-7.2c0,0-7-42.7-53-55.8c-4.2-1.2-8.8-2.2-13.7-2.8c0,0-5.2,3.1-11.6,11.4
	c-6.8,8.6-15,22.9-20.4,45.3C201,81.1,202.1,111.4,207.6,129.7z"/>
<path fill="#FFFFFF" stroke="#000000" stroke-miterlimit="10" d="M288.9,352.7c6.8,2.4,20.398,5.2,31.198-4.9c0,0,0.2-0.5,2.7-2.6
	c2.4-2.1,3.602-1,3.602-1s0,2.8,1.5,6.8c0.698,1.9,1.8,4,3.3,6.2c0,0,12.1,20.7,28.2,12.4c0,0,10.398-5.5,21.698-13.7l0.2,0.2
	c-27,48.9-72.1,20.2-72.1,20.2c-10.2-4.7-20.4-23.3-20.4-23.3L288.9,352.7z"/>
<path fill="#FFFFFF" stroke="#000000" stroke-miterlimit="10" d="M413.1,216.3c0.602,0,1.2-0.2,1.802-0.5
	C414.4,216.1,413.9,216.3,413.1,216.3z"/>
<path fill="#FFFFFF" stroke="#000000" stroke-miterlimit="10" d="M410.8,190.2c0.102,0.2,0.2,0.5,0.3,0.7
	C411,190.7,410.9,190.4,410.8,190.2z"/>
<path fill="#FFFFFF" stroke="#000000" stroke-miterlimit="10" d="M233.4,34.9c-3.6-3.5-11.7,1.2-11.7,1.2l-0.4-0.3
	c6.5-8.3,11.6-11.4,11.6-11.4c4.9,0.7,9.4,1.6,13.7,2.8l-0.2,0.7C239.3,27.1,233.4,34.9,233.4,34.9z"/>
<path fill="#FFFFFF" stroke="#000000" stroke-miterlimit="10" d="M390.6,221.2c2.7,0,4.9-2.4,4.9-5.4s-2.2-5.4-4.9-5.4
	c-2.698,0-4.898,2.4-4.898,5.4S387.9,221.2,390.6,221.2z M384.7,208c1.898-9.3,8.7-2.6,8.7-2.6c7.3-1,4.398,8.8,4.398,8.8
	c4.9,6.2-1.898,10.4-1.898,10.4c-5.302,6.2-8.7,0.5-8.7,0.5c-9.2,0-5.8-5.7-5.8-5.7C374.5,212.7,384.7,208,384.7,208z"/>
<path fill="#FFFFFF" stroke="#000000" stroke-miterlimit="10" d="M315.4,129.7c17.5,4.3,21.898,15.5,21.898,15.5l-0.1,0.8
	c-10-0.9-20.5-2.3-20.5-2.3c-0.602-0.1-1.2-0.1-2,0.1v-0.1c0.7-1.9-4.4-7-4.4-7l-0.2-0.2c1.7-2.2,3.302-4.6,4.7-7.2L315.4,129.7z"/>
<path fill="#FFFFFF" stroke="#000000" stroke-miterlimit="10" d="M233.4,110c-3,0-5.5-2.3-5.5-5s2.4-5,5.5-5s5.5,2.3,5.5,5
	S236.4,110,233.4,110z"/>
<path fill="#FFFFFF" stroke="#000000" stroke-miterlimit="10" d="M154.7,749.3c0,0,0.1,1.7-0.4,3.5c0.4-4.398,0.9-9.398,1.4-14.898
	c0.5-1.602,0.7-2.9,0.7-3.102c0,0,4.9,11.4,18.7,5.2c0,0,8,8.6,18.2-0.8c0,0,12.4,7.8,18.2,2.3c0,0,8,6.2,13.8,0
	c0.3,0.5,5,8.7,11.7-0.8c1.6-2.3,2.2-4.102,2.4-4.8c-0.8,7.3-1.7,13.898-2.7,19.5c-0.1,0.3-0.2,0.5-0.4,0.8
	c-5,10.6-11.3,1.3-11.6,0.8c-5.8,6.2-13.9,0-13.9,0c-5.8,5.4-18.2-2.3-18.2-2.3c-10.2,9.3-18.2,0.8-18.2,0.8
	C160.6,761.7,154.7,749.3,154.7,749.3z"/>
<path fill="#FFFFFF" stroke="#000000" stroke-miterlimit="10" d="M159.1,239c-3.1,0-5.7,2.5-5.7,5.6s2.5,5.6,5.7,5.6
	c3.2,0,5.6-2.5,5.6-5.6S162.2,239,159.1,239z M154.7,254c-8.7-1.9-5.1-9.3-5.1-9.3c-2.9-8.6,4.4-8.6,4.4-8.6
	c5.5-7.8,10.2,0.4,10.2,0.4c10.2,0.4,4,8.2,4,8.2c4,8.2-5.1,8.9-5.1,8.9C159.1,258.6,154.7,254,154.7,254z"/>
<path fill="#FFFFFF" stroke="#000000" stroke-miterlimit="10" d="M281.1,287.8c1.5-6.6-10.2-55.9-10.2-55.9c0-1.6-0.5-3.3-1.2-5
	l0.1-0.1c0,0,2.9-33.8,8.9-38.7c0,0,8,0.4,8.399-1.9c0,0,7.699-3.3,5.101-14.2c10.6,0.9,17.898-0.3,23-2.3l0.1,0.3
	c0,0-8,36.5-17.5,43.1c0,0-3.3-0.8,1.8,18.3c0,0,10,46,9.802,59.6c-2.9,10.5,1.8,19.3,5.698,24.5c2.302,3.1,4.4,4.9,4.4,4.9
	s-7.3,3.6-13.6,0c0,0-10.102-2.3-11.102-1.2c-0.8-1.2-2-1.9-2-1.9c3.9-10.4-13.6-10.9-13.6-10.9c1.4-9.3,10.7-16.6,10.7-16.6
	c5.301-3.1,2.899-8.8,2.899-8.8C289.4,281.3,284.7,284.7,281.1,287.8L281.1,287.8z"/>
<path fill="#FFFFFF" stroke="#000000" stroke-miterlimit="10" d="M387.2,225.1c0,0,3.398,5.7,8.7-0.5c0,0,6.8-4.1,1.898-10.4
	c0,0,2.9-9.8-4.398-8.8c0,0-6.802-6.7-8.7,2.6c0,0-10.2,4.7-3.4,11.4C381.3,219.4,377.9,225.1,387.2,225.1z M369.7,231.8l-3.602,5.7
	l-2.6-2c8.3-12.9,11.9-27.4,12.9-41.3l8.6,4.5l4.9-5.4l5.1,4.4l2.4-4.7l4.398,4.7l3.9-5.7l2.898,4.1l2.302-5.9
	c0.1,0.2,0.198,0.5,0.3,0.7c0,0.1,0.1,0.3,0.1,0.4c0.8,2.3,1.9,6,2.9,9.3l-0.3,0.1c-0.2-0.4-2.602-4.9-6.802,1.6
	c0,0-10.198-0.5-1,7.8c0,0-5.398,9.8,2.4,7.8c0,0,1.899,6.2,7.3,1c0,0,1.5,1,3.4,2.1l0,0c0.398,1.7,0.699,3.5,1,5.2
	c0.1,0.4,0.1,0.9,0.199,1.3l-5.101-4.9l-3.399,7.3l-7.801-4.7l-1.898,6.7l-5.801-3.1l-2.399,5.7l-6.3-4.7l-0.2,6.2l-6.101-4.1
	l-3.399,6.2L369.7,231.8z"/>
<path fill="#FFFFFF" stroke="#000000" stroke-miterlimit="10" d="M233.4,99.9c-3,0-5.5,2.3-5.5,5c0,2.7,2.4,5,5.5,5s5.5-2.3,5.5-5
	C238.9,102.2,236.4,99.9,233.4,99.9z M221.5,111.7c0,0,6.3-25.1,23.8-7.5C245.3,104.2,237.8,116.8,221.5,111.7z"/>
<path fill="#FFFFFF" stroke="#000000" stroke-miterlimit="10" d="M124.9,240.2c0-2.9,2-5.2,4.4-5.2c2.4,0,4.4,2.3,4.4,5.2
	c0,2.9-2,5.2-4.4,5.2C126.9,245.4,124.9,243.1,124.9,240.2z"/>
<path fill="#FFFFFF" stroke="#000000" stroke-miterlimit="10" d="M234,323.5c5.6-10.7,13.5,0.2,13.5,0.2s0.1,0.2,0.2,0.4
	c-0.4,1.3-0.9,2.4-1.3,3.3c-5.5,11.5-1.4,21.7,0.7,25.7c0.6,1.2,1.1,1.9,1.1,1.9c0.1,1.2,0.2,2.4,0.3,3.5h-0.3
	C217.6,365.1,234,323.5,234,323.5z"/>
<path fill="#FFFFFF" stroke="#000000" stroke-miterlimit="10" d="M153.5,244.7c0-3.1,2.5-5.6,5.7-5.6c3.2,0,5.6,2.5,5.6,5.6
	c0,3.1-2.5,5.6-5.6,5.6C156.1,250.3,153.5,247.8,153.5,244.7z"/>
<path fill="#FFFFFF" stroke="#000000" stroke-miterlimit="10" d="M130.7,248.5c-9.1,6.6-9.1-3.1-9.1-3.1c-8.4-6.2,2.9-13.2,2.9-13.2
	c8-7,10.6,1.9,10.6,1.9c7.3,2.7,2.6,7.8,2.6,7.8C140.2,249.3,130.7,248.5,130.7,248.5z M124.9,240.2c0,2.9,2,5.2,4.4,5.2
	c2.4,0,4.4-2.3,4.4-5.2c0-2.9-2-5.2-4.4-5.2C126.9,235,124.9,237.3,124.9,240.2z"/>
<path fill="#FFFFFF" stroke="#000000" stroke-miterlimit="10" d="M317,744.1c0,0,9,5.2,14.8-1c0,0,11.7,6.2,16-1.5
	c0,0,5.102,9.302,15.3,0.802c0,0,10.9,5.398,13.102-3.102c0,0,11.7,6.2,17.5,0l2.7-7.3c-0.602,11.9-1.2,19.5-1.302,20.5
	C382.7,774.3,315.7,764.2,315.7,764.2h-0.5c0.2-3.2,0.5-8.2,0.8-14.5c0.1-1.7,0.2-3.5,0.3-5.5L317,744.1z"/>
<path fill="#FFFFFF" stroke="#000000" stroke-miterlimit="10" d="M228.5,209.5c0,0,7.5-6,25.1,2.1c0,0,1.5,0.9,2.9-1
	c1.3,1.2,10,8.9,13.2,16.2c0.8,1.7,1.2,3.4,1.2,5c0,0,11.7,49.3,10.2,55.9l0.1,0.1c-3.1,2.7-5.3,5.1-5.3,5.1
	c-8.3,3.6-23.3,32.1-23.3,32.1c-2.4,2.5-4.3,0-5-1c1.2-3.6,2-8.7,0.6-14.9c-2.2-9.5-9.9-21.5-30.1-34.2
	C218.1,275,241.8,252.8,228.5,209.5z"/>
<path fill="#FFFFFF" stroke="#000000" stroke-miterlimit="10" d="M265.4,128.7c0,0,1.4-3.1,7.3-3.1c1.3,0,3.8-3.7,5.3-5.9
	c0,0,0.3,12.4-8.8,18.6c0,0-12.8,3.4-19.5-6.2c0,0,5,2.2,7.6,0.6C259.9,131.1,259.9,128.3,265.4,128.7z"/>
<path fill="#FFFFFF" stroke="#000000" stroke-miterlimit="10" d="M266.5,171.6c-1.1-3-0.6-4.6-0.6-4.6s0-0.8,4,0.8
	c4,1.6,5.8-1.9,5.8-1.9c0.6-0.4,0.8-1.3,0.9-2.3s0-2.3-0.2-3.6c0.1,0,0.2-0.1,0.3-0.1c1.3,3.1,3,5.6,4.9,5.1
	c1.2-0.3,2.8-1.7,4.6-3.6l0.3,0.3c0.8,0.4,1.4,1,2,1.7c2.7,3.2,3.8,8.8,3.8,8.8c2.601,10.9-5.101,14.2-5.101,14.2
	c-0.399,2.3-8.399,1.9-8.399,1.9c-2.9,2.5-6.9-1.4-6.9-1.4c0-5.6-4.6-13.2-4.6-13.2C266.9,172.9,266.7,172.2,266.5,171.6z"/>
<path fill="#FFFFFF" stroke="#000000" stroke-miterlimit="10" d="M269.7,226.8c-3.2-7.3-11.8-15.1-13.2-16.2c0.9-1.2,1.7-3.6,2-8.1
	c0,0,0.4-12,13.3-15.7c0,0,4,3.9,6.9,1.4c-6,4.9-8.9,38.7-8.9,38.7L269.7,226.8z"/>
<path fill="#FFFFFF" stroke="#000000" stroke-miterlimit="10" d="M178.4,147.6c3.2,9.6,13.5,13.4,22.7,14.8
	c10.4,7.3,22.9,38,22.9,38l0.4,0.2c-2.8,4.6-4.9,8.9-5.1,12c0,0-0.7,4.3-0.2,4.3s3.5-5.4,9.5-7.4c13.3,43.3-10.4,65.5-10.4,65.5
	c-1.5-0.4-7.3-2.3-7.3-2.3c0.1-2.3,0.2-4.6,0.2-6.9c0-2.3,0-4.5-0.1-6.7c-0.2-7.6-1-14.6-2.2-21.1c-0.5-2.8-1.1-5.5-1.8-8.1
	c-12.1-45.7-46.7-58.6-46.7-58.6C155.2,150.5,175.2,147.8,178.4,147.6z"/>
<path fill="#FFFFFF" stroke="#000000" stroke-miterlimit="10" d="M275.2,82.8c-3,0-5.5,2.3-5.5,5c0,2.7,2.4,5,5.5,5
	c3.1,0,5.5-2.3,5.5-5C280.7,85.1,278.2,82.8,275.2,82.8z M266.5,95.1c0,0-6.1-21.8,21.1-12.4C287.6,82.7,285.4,97.7,266.5,95.1z"/>
<path fill="none" stroke="#000000" d="M367.4,135c0,0,20.898-0.5,29.398,22.1c0,0,6.8,14.3,9.9,22.2c0.1,0.1,0.1,0.3,0.2,0.4
	c0.398,1.1,0.8,2,1,2.8c0.198,0.5,0.3,0.9,0.3,1.2"/>
<path fill="none" stroke="#000000" stroke-width="0.3762" d="M222.3,35.5c0,0,8-4.7,11.7-1.2c0,0,5.8-7.8,13.1-7"/>
<path fill="none" stroke="#000000" stroke-width="0.3762" d="M246.3,98c0,0-17.7-22.8-25,10.1"/>
<path fill="none" stroke="#000000" stroke-width="0.3762" d="M263.4,103.9c0,0-21.5-37.7,23.2-25.9"/>
<path fill="none" stroke="#000000" stroke-width="0.3762" d="M251,116c0,0-1.5,7.4,4,2.7c0,0,10.2,8.9,13.1-6.6c0,0,3.5-1.7,0.4-3.9
	"/>
<path fill="none" stroke="#000000" stroke-width="0.3762" d="M263,133.1c0,0,6.1,0,8.2-4"/>
<path fill="none" stroke="#000000" stroke-width="0.3762" d="M208.1,129.2c0,0-3.6-1.6-9.1-5.1"/>
<path fill="none" stroke="#000000" stroke-width="0.3762" d="M235,150.1c0,0-14.9-3.1-34.2-16.3"/>
<path fill="none" stroke="#000000" stroke-width="0.3762" d="M300.6,105.5c0,0,4.7-11.7,5.802-28.7"/>
<path fill="none" stroke="#000000" stroke-width="0.3762" d="M286.2,186.7c0,0,2.7-7,1.3-9.3"/>
<path fill="none" stroke="#000000" stroke-width="0.3762" d="M275.5,167c0,0,4,3.7,3.1,5.4"/>
<path fill="none" stroke="#000000" stroke-width="0.3762" d="M282.7,164.1c0,0,3.6,4.3,2.7,6"/>
<path fill="none" stroke="#000000" stroke-width="0.3762" d="M321.5,151.5c0,0,1.8,3.9,5.5,4.1"/>
<path fill="none" stroke="#000000" stroke-width="0.3762" d="M264.5,176.8c0,0-12.6,3.5-15.8,9.9"/>
<path fill="none" stroke="#000000" stroke-width="0.3762" d="M266.5,181.8c0,0-13.8,7.4-13.3,15.2"/>
<path fill="none" stroke="#000000" stroke-width="0.3762" d="M293.8,162.6c0,0,8.2-3.1,8.7-5.2"/>
<path fill="none" stroke="#000000" stroke-width="0.3762" d="M296.4,165.3c0,0,6.199-1.4,9.698-0.8"/>
<path fill="none" stroke="#000000" stroke-width="0.3762" d="M310.8,136.2c0,0,5.102,5.1,4.4,7"/>
<path fill="none" stroke="#000000" stroke-width="0.3762" d="M279.3,187.6c0,0,3.6-6.6,1.5-8.9"/>
<path fill="none" stroke="#000000" stroke-width="0.3762" d="M293.4,316.8c0,0-5.301,1.6-13.602-1.6"/>
<path fill="none" stroke="#000000" stroke-width="0.3762" d="M235.4,45.3c0,0-2.6,23.3-10.9,23.3"/>
<path fill="none" stroke="#000000" stroke-width="0.3762" d="M233.6,39c0,0-0.4,12.8-8.7,18.3"/>
<path fill="none" stroke="#000000" stroke-width="0.3762" d="M235.4,38.6c0,0,5.5,7,11.3,7"/>
<path fill="none" stroke="#000000" stroke-width="0.3762" d="M237.9,45.6c0,0,11.7,12,21.5,11.3"/>
<line fill="none" stroke="#000000" stroke-width="0.3762" x1="174.5" y1="150.1" x2="177.1" y2="154"/>
<line fill="none" stroke="#000000" stroke-width="0.3762" x1="169.4" y1="152.5" x2="171.6" y2="158.3"/>
<line fill="none" stroke="#000000" stroke-width="0.3762" x1="178.2" y1="165.7" x2="180.4" y2="170.7"/>
<line fill="none" stroke="#000000" stroke-width="0.3762" x1="164.3" y1="158.7" x2="170.2" y2="161"/>
<line fill="none" stroke="#000000" stroke-width="0.3762" x1="164" y1="164.5" x2="169.4" y2="166.1"/>
<line fill="none" stroke="#000000" stroke-width="0.3762" x1="170.5" y1="172.3" x2="174.2" y2="171.5"/>
<line fill="none" stroke="#000000" stroke-width="0.3762" x1="172" y1="163" x2="175.6" y2="167.2"/>
<line fill="none" stroke="#000000" stroke-width="0.3762" x1="178.2" y1="159.1" x2="182.6" y2="163"/>
<line fill="none" stroke="#000000" stroke-width="0.3762" x1="187.3" y1="160.6" x2="190.6" y2="167.2"/>
<line fill="none" stroke="#000000" stroke-width="0.3762" x1="198.6" y1="165.7" x2="195.3" y2="170.3"/>
<line fill="none" stroke="#000000" stroke-width="0.3762" x1="186.2" y1="171.5" x2="190.9" y2="175"/>
<line fill="none" stroke="#000000" stroke-width="0.3762" x1="178.9" y1="176.6" x2="185.1" y2="175.4"/>
<line fill="none" stroke="#000000" stroke-width="0.3762" x1="184.7" y1="183.2" x2="190.2" y2="182.8"/>
<line fill="none" stroke="#000000" stroke-width="0.3762" x1="196" y1="176.6" x2="196" y2="182.8"/>
<line fill="none" stroke="#000000" stroke-width="0.3762" x1="200" y1="174.2" x2="207" y2="176.2"/>
<line fill="none" stroke="#000000" stroke-width="0.3762" x1="203" y1="180.1" x2="202.2" y2="186.7"/>
<line fill="none" stroke="#000000" stroke-width="0.3762" x1="212.8" y1="185.9" x2="206.2" y2="184.3"/>
<line fill="none" stroke="#000000" stroke-width="0.3762" x1="192.8" y1="192.1" x2="199.3" y2="190.9"/>
<line fill="none" stroke="#000000" stroke-width="0.3762" x1="204.8" y1="191.3" x2="204.8" y2="200.6"/>
<line fill="none" stroke="#000000" stroke-width="0.3762" x1="197.9" y1="197.5" x2="201.9" y2="197.9"/>
<line fill="none" stroke="#000000" stroke-width="0.3762" x1="210.6" y1="192.5" x2="217.2" y2="192.9"/>
<line fill="none" stroke="#000000" stroke-width="0.3762" x1="215.3" y1="196" x2="212.8" y2="201.8"/>
<line fill="none" stroke="#000000" stroke-width="0.3762" x1="203.7" y1="206.9" x2="209.5" y2="203"/>
<line fill="none" stroke="#000000" stroke-width="0.3762" x1="217.9" y1="206.5" x2="212.8" y2="208"/>
<line fill="none" stroke="#000000" stroke-width="0.3762" x1="207.7" y1="215" x2="211.3" y2="211.1"/>
<line fill="none" stroke="#000000" stroke-width="0.3762" x1="228.8" y1="215.8" x2="222.6" y2="220.8"/>
<line fill="none" stroke="#000000" stroke-width="0.3762" x1="213.5" y1="216.2" x2="219.7" y2="219.7"/>
<line fill="none" stroke="#000000" stroke-width="0.3762" x1="213.5" y1="221.2" x2="209.5" y2="227.4"/>
<line fill="none" stroke="#000000" stroke-width="0.3762" x1="216.8" y1="228.6" x2="221.5" y2="225.5"/>
<line fill="none" stroke="#000000" stroke-width="0.3762" x1="212.4" y1="232.5" x2="217.9" y2="237.9"/>
<line fill="none" stroke="#000000" stroke-width="0.3762" x1="213.2" y1="244.5" x2="215.3" y2="239.9"/>
<line fill="none" stroke="#000000" stroke-width="0.3762" x1="214.3" y1="255.4" x2="217.2" y2="248"/>
<line fill="none" stroke="#000000" stroke-width="0.3762" x1="215.3" y1="268.2" x2="214.6" y2="261.6"/>
<line fill="none" stroke="#000000" stroke-width="0.3762" x1="225.9" y1="230.9" x2="229.6" y2="235.6"/>
<line fill="none" stroke="#000000" stroke-width="0.3762" x1="228.1" y1="222" x2="229.2" y2="228.6"/>
<line fill="none" stroke="#000000" stroke-width="0.3762" x1="221.9" y1="232.1" x2="221.2" y2="239.5"/>
<line fill="none" stroke="#000000" stroke-width="0.3762" x1="225.9" y1="239.9" x2="222.6" y2="245.7"/>
<line fill="none" stroke="#000000" stroke-width="0.3762" x1="225.5" y1="253.1" x2="227.7" y2="246.9"/>
<line fill="none" stroke="#000000" stroke-width="0.3762" x1="223.7" y1="257" x2="220.8" y2="252.7"/>
<line fill="none" stroke="#000000" stroke-width="0.3762" x1="217.5" y1="260.1" x2="220.4" y2="264.7"/>
<line fill="none" stroke="#000000" stroke-width="0.3762" x1="325" y1="109" x2="332.3" y2="115.2"/>
<line fill="none" stroke="#000000" stroke-width="0.3762" x1="324.3" y1="114.8" x2="322.4" y2="121"/>
<line fill="none" stroke="#000000" stroke-width="0.3762" x1="323.5" y1="127.6" x2="330.1" y2="128"/>
<line fill="none" stroke="#000000" stroke-width="0.3762" x1="327.2" y1="118.3" x2="331.6" y2="122.9"/>
<line fill="none" stroke="#000000" stroke-width="0.3762" x1="337.7" y1="113.6" x2="335.6" y2="118.3"/>
<line fill="none" stroke="#000000" stroke-width="0.3762" x1="333" y1="131.1" x2="336.7" y2="123.3"/>
<line fill="none" stroke="#000000" stroke-width="0.3762" x1="340.7" y1="121" x2="348.7" y2="121.8"/>
<line fill="none" stroke="#000000" stroke-width="0.3762" x1="345" y1="127.2" x2="341.4" y2="133.4"/>
<line fill="none" stroke="#000000" stroke-width="0.3762" x1="354.5" y1="126.8" x2="361.8" y2="127.6"/>
<line fill="none" stroke="#000000" stroke-width="0.3762" x1="349.4" y1="130.7" x2="348.7" y2="137.3"/>
<line fill="none" stroke="#000000" stroke-width="0.3762" x1="356" y1="135.8" x2="359.6" y2="136.5"/>
<line fill="none" stroke="#000000" stroke-width="0.3762" x1="336.7" y1="136.9" x2="341.4" y2="140.4"/>
<line fill="none" stroke="#000000" stroke-width="0.3762" x1="364.3" y1="137.3" x2="363.2" y2="143.5"/>
<line fill="none" stroke="#000000" stroke-width="0.3762" x1="366.2" y1="152.5" x2="369.8" y2="152.9"/>
<line fill="none" stroke="#000000" stroke-width="0.3762" x1="366.2" y1="145.9" x2="369.4" y2="147.8"/>
<line fill="none" stroke="#000000" stroke-width="0.3762" x1="358.5" y1="148.6" x2="357.8" y2="156.4"/>
<line fill="none" stroke="#000000" stroke-width="0.3762" x1="349.4" y1="154.8" x2="354.5" y2="154.8"/>
<line fill="none" stroke="#000000" stroke-width="0.3762" x1="363.2" y1="159.9" x2="366.2" y2="163.3"/>
<line fill="none" stroke="#000000" stroke-width="0.3762" x1="370.2" y1="160.2" x2="364.7" y2="156.7"/>
<line fill="none" stroke="#000000" stroke-width="0.3762" x1="354.1" y1="164.1" x2="361.4" y2="164.1"/>
<line fill="none" stroke="#000000" stroke-width="0.3762" x1="359.2" y1="171.1" x2="365.1" y2="169.2"/>
<line fill="none" stroke="#000000" stroke-width="0.3762" x1="369.8" y1="171.5" x2="370.9" y2="167.6"/>
<line fill="none" stroke="#000000" stroke-width="0.3762" x1="373.8" y1="178.5" x2="373.8" y2="174.2"/>
<line fill="none" stroke="#000000" stroke-width="0.3762" x1="362.5" y1="176.2" x2="366.5" y2="178.1"/>
<line fill="none" stroke="#000000" stroke-width="0.3762" x1="363.2" y1="184.7" x2="365.1" y2="187.8"/>
<line fill="none" stroke="#000000" stroke-width="0.3762" x1="370.9" y1="185.1" x2="370.2" y2="188.6"/>
<line fill="none" stroke="#000000" stroke-width="0.3762" x1="350.5" y1="139.3" x2="354.1" y2="142.4"/>
<line fill="none" stroke="#000000" stroke-width="0.3762" x1="365.4" y1="199.5" x2="364.3" y2="206.9"/>
<line fill="none" stroke="#000000" stroke-width="0.3762" x1="366.9" y1="193.3" x2="370.5" y2="196.4"/>
<line fill="none" stroke="#000000" stroke-width="0.3762" x1="371.6" y1="203" x2="374.2" y2="197.5"/>
<line fill="none" stroke="#000000" stroke-width="0.3762" x1="369.8" y1="213.1" x2="368" y2="207.6"/>
<line fill="none" stroke="#000000" stroke-width="0.3762" x1="366.9" y1="219.3" x2="365.1" y2="213.5"/>
<line fill="none" stroke="#000000" stroke-width="0.3762" x1="365.4" y1="227.8" x2="364.7" y2="220.8"/>
<line fill="none" stroke="#000000" stroke-width="0.3762" x1="362.9" y1="193.6" x2="365.4" y2="189.4"/>
<line fill="none" stroke="#000000" stroke-width="0.3762" x1="350.5" y1="125.3" x2="351.6" y2="117.9"/>
<line fill="none" stroke="#000000" stroke-width="0.3762" x1="230.3" y1="167.2" x2="234.3" y2="170.3"/>
<line fill="none" stroke="#000000" stroke-width="0.3762" x1="240.8" y1="172.7" x2="245.6" y2="168.4"/>
<line fill="none" stroke="#000000" stroke-width="0.3762" x1="236.8" y1="175.4" x2="236.8" y2="168"/>
<line fill="none" stroke="#000000" stroke-width="0.3762" x1="252.5" y1="167.2" x2="258.7" y2="168"/>
<line fill="none" stroke="#000000" stroke-width="0.3762" x1="295.9" y1="152.9" x2="299.5" y2="148.6"/>
<line fill="none" stroke="#000000" stroke-width="0.3762" x1="310.1" y1="140.8" x2="307.1" y2="144.3"/>
<line fill="none" stroke="#000000" stroke-width="0.3762" x1="265.3" y1="192.1" x2="270" y2="192.9"/>
<line fill="none" stroke="#000000" stroke-width="0.3762" x1="265.3" y1="198.3" x2="267.8" y2="201"/>
<line fill="none" stroke="#000000" stroke-width="0.3762" x1="262.3" y1="203.4" x2="261.6" y2="208"/>
<line fill="none" stroke="#000000" stroke-width="0.3762" x1="268.9" y1="206.9" x2="268.2" y2="211.1"/>
<line fill="none" stroke="#000000" stroke-width="0.3762" x1="269.3" y1="196" x2="271.8" y2="198.7"/>
<line fill="none" stroke="#000000" stroke-width="0.3762" x1="297.7" y1="175.4" x2="299.5" y2="179.3"/>
<line fill="none" stroke="#000000" stroke-width="0.3762" x1="306.4" y1="177.3" x2="306.1" y2="182.8"/>
<line fill="none" stroke="#000000" stroke-width="0.3762" x1="296.6" y1="185.9" x2="298.8" y2="190.2"/>
<line fill="none" stroke="#000000" stroke-width="0.3762" x1="292.2" y1="192.5" x2="291.1" y2="197.9"/>
<line fill="none" stroke="#000000" stroke-width="0.3762" x1="286" y1="192.5" x2="285.7" y2="199.1"/>
<line fill="none" stroke="#000000" stroke-width="0.3762" x1="278" y1="196.4" x2="283.1" y2="197.9"/>
<line fill="none" stroke="#000000" stroke-width="0.3762" x1="305.3" y1="190.9" x2="300.6" y2="196"/>
<line fill="none" stroke="#000000" stroke-width="0.3762" x1="294.4" y1="194.8" x2="299.5" y2="201"/>
<line fill="none" stroke="#000000" stroke-width="0.3762" x1="291.1" y1="203.8" x2="284.2" y2="205.3"/>
<line fill="none" stroke="#000000" stroke-width="0.3762" x1="278.4" y1="204.5" x2="282.7" y2="208"/>
<line fill="none" stroke="#000000" stroke-width="0.3762" x1="278.4" y1="211.1" x2="276.5" y2="215"/>
<line fill="none" stroke="#000000" stroke-width="0.3762" x1="287.8" y1="210.4" x2="292.9" y2="213.5"/>
<line fill="none" stroke="#000000" stroke-width="0.3762" x1="295.5" y1="203" x2="295.5" y2="208.8"/>
<line fill="none" stroke="#000000" stroke-width="0.3762" x1="289.7" y1="187.4" x2="293.3" y2="188.2"/>
<line fill="none" stroke="#000000" stroke-width="0.3762" x1="282.7" y1="214.6" x2="280.6" y2="219.3"/>
<line fill="none" stroke="#000000" stroke-width="0.3762" x1="274.4" y1="222.4" x2="277.3" y2="225.1"/>
<line fill="none" stroke="#000000" stroke-width="0.3762" x1="287.8" y1="215" x2="289.7" y2="220.8"/>
<line fill="none" stroke="#000000" stroke-width="0.3762" x1="282.4" y1="226.3" x2="285.7" y2="231.3"/>
<line fill="none" stroke="#000000" stroke-width="0.3762" x1="291.5" y1="226.7" x2="289.7" y2="232.1"/>
<line fill="none" stroke="#000000" stroke-width="0.3762" x1="278.4" y1="233.3" x2="280.2" y2="238.7"/>
<line fill="none" stroke="#000000" stroke-width="0.3762" x1="296.6" y1="235.2" x2="294.4" y2="241"/>
<line fill="none" stroke="#000000" stroke-width="0.3762" x1="280.9" y1="246.9" x2="283.8" y2="250"/>
<line fill="none" stroke="#000000" stroke-width="0.3762" x1="284.6" y1="237.5" x2="284.2" y2="244.2"/>
<line fill="none" stroke="#000000" stroke-width="0.3762" x1="288.6" y1="236.8" x2="289.3" y2="244.5"/>
<line fill="none" stroke="#000000" stroke-width="0.3762" x1="275.8" y1="236" x2="278" y2="241.8"/>
<line fill="none" stroke="#000000" stroke-width="0.3762" x1="296.9" y1="243.8" x2="293.7" y2="246.9"/>
<line fill="none" stroke="#000000" stroke-width="0.3762" x1="296.6" y1="252.3" x2="301.7" y2="246.9"/>
<line fill="none" stroke="#000000" stroke-width="0.3762" x1="293.3" y1="223.2" x2="296.2" y2="225.9"/>
<line fill="none" stroke="#000000" stroke-width="0.3762" x1="280.2" y1="256.6" x2="282" y2="260.9"/>
<line fill="none" stroke="#000000" stroke-width="0.3762" x1="287.5" y1="250.8" x2="284.9" y2="253.9"/>
<line fill="none" stroke="#000000" stroke-width="0.3762" x1="292.2" y1="253.5" x2="289.3" y2="259.7"/>
<line fill="none" stroke="#000000" stroke-width="0.3762" x1="296.9" y1="262" x2="299.1" y2="255.8"/>
<line fill="none" stroke="#000000" stroke-width="0.3762" x1="288.6" y1="263.6" x2="292.9" y2="267.5"/>
<line fill="none" stroke="#000000" stroke-width="0.3762" x1="283.8" y1="268.6" x2="284.9" y2="275.2"/>
<line fill="none" stroke="#000000" stroke-width="0.3762" x1="288.6" y1="269.4" x2="290.4" y2="275.2"/>
<line fill="none" stroke="#000000" stroke-width="0.3762" x1="299.9" y1="266.3" x2="296.9" y2="273.3"/>
<line fill="none" stroke="#000000" stroke-width="0.3762" x1="302.8" y1="262" x2="303.9" y2="265.5"/>
<line fill="none" stroke="#000000" stroke-width="0.3762" x1="300.6" y1="271.3" x2="305.3" y2="274.1"/>
<line fill="none" stroke="#000000" stroke-width="0.3762" x1="301" y1="277.2" x2="297.7" y2="280.3"/>
<line fill="none" stroke="#000000" stroke-width="0.3762" x1="283.3" y1="279.6" x2="285.5" y2="282"/>
<path fill="none" stroke="#000000" stroke-width="0.3762" d="M280.3,326.1c0.5-3.6,13.101-1.6,13.101-1.6"/>
<path fill="none" stroke="#000000" stroke-width="0.3762" d="M262.3,351.5c0,0-10.2,7.8-2.4,10.4c0,0,11.2-9.3,17.5-15.5"/>
<path fill="none" stroke="#000000" stroke-width="0.3762" d="M156.7,732.3c6.5-66.3,20.7-193.8,35.7-210.398"/>
<path fill="none" stroke="#000000" stroke-width="0.3762" d="M240,735.1c8.2-71.3,9.9-210.1,18.7-231.8"/>
<path fill="none" stroke="#000000" stroke-width="0.3762" d="M317.9,725.5c2.3-43.1,5.398-106.7,5-126.6"/>
<path fill="none" stroke="#000000" stroke-width="0.3762" d="M397.6,714.9c1.602-46.802,1-127.302-18.698-178.2"/>
<line fill="none" stroke="#000000" stroke-width="0.3762" x1="301.2" y1="284.7" x2="304.6" y2="287.3"/>
<line fill="none" stroke="#000000" stroke-width="0.3762" x1="296.3" y1="288.3" x2="293.4" y2="291.4"/>
<line fill="none" stroke="#000000" stroke-width="0.3762" x1="302.2" y1="293.5" x2="301.2" y2="299.7"/>
<line fill="none" stroke="#000000" stroke-width="0.3762" x1="295.4" y1="293.5" x2="291.5" y2="300.2"/>
<line fill="none" stroke="#000000" stroke-width="0.3762" x1="287.1" y1="294" x2="289.5" y2="298.1"/>
<line fill="none" stroke="#000000" stroke-width="0.3762" x1="285.7" y1="300.7" x2="289.1" y2="303.3"/>
<line fill="none" stroke="#000000" stroke-width="0.3762" x1="296.3" y1="302.3" x2="294.9" y2="307"/>
<line fill="none" stroke="#000000" stroke-width="0.3762" x1="305.6" y1="301.3" x2="306.1" y2="308"/>
<line fill="none" stroke="#000000" stroke-width="0.3762" x1="300.7" y1="306.4" x2="301.2" y2="313.2"/>
<line fill="none" stroke="#000000" stroke-width="0.3762" x1="310.4" y1="316.3" x2="304.6" y2="313.2"/>
<line fill="none" stroke="#000000" stroke-width="0.3762" x1="322.6" y1="355.1" x2="322.1" y2="358.8"/>
<line fill="none" stroke="#000000" stroke-width="0.3762" x1="309.5" y1="357.2" x2="313.3" y2="359.3"/>
<line fill="none" stroke="#000000" stroke-width="0.3762" x1="299.7" y1="359.8" x2="305.1" y2="362.9"/>
<line fill="none" stroke="#000000" stroke-width="0.3762" x1="312.9" y1="362.9" x2="311.9" y2="365.5"/>
<line fill="none" stroke="#000000" stroke-width="0.3762" x1="325" y1="358.8" x2="328.9" y2="363.9"/>
<line fill="none" stroke="#000000" stroke-width="0.3762" x1="323.1" y1="365.5" x2="321.6" y2="371.7"/>
<line fill="none" stroke="#000000" stroke-width="0.3762" x1="316.3" y1="368.6" x2="315.3" y2="372.7"/>
<line fill="none" stroke="#000000" stroke-width="0.3762" x1="331.8" y1="370.7" x2="339.6" y2="373.3"/>
<line fill="none" stroke="#000000" stroke-width="0.3762" x1="327.4" y1="373.8" x2="328.4" y2="377.9"/>
<line fill="none" stroke="#000000" stroke-width="0.3762" x1="330.3" y1="375.3" x2="336.2" y2="379"/>
<line fill="none" stroke="#000000" stroke-width="0.3762" x1="334.2" y1="364.4" x2="331.8" y2="366.5"/>
<line fill="none" stroke="#000000" stroke-width="0.3762" x1="344.4" y1="371.7" x2="348.3" y2="374.3"/>
<line fill="none" stroke="#000000" stroke-width="0.3762" x1="341" y1="377.9" x2="345.4" y2="377.9"/>
<line fill="none" stroke="#000000" stroke-width="0.3762" x1="358.5" y1="371.7" x2="354.6" y2="377.4"/>
<line fill="none" stroke="#000000" stroke-width="0.3762" x1="367.3" y1="370.1" x2="364.8" y2="372.7"/>
<line fill="none" stroke="#000000" stroke-width="0.3762" x1="288.6" y1="361.3" x2="290" y2="368.1"/>
<line fill="none" stroke="#000000" stroke-width="0.3762" x1="296.8" y1="367" x2="295.4" y2="372.2"/>
<line fill="none" stroke="#000000" stroke-width="0.3762" x1="300.2" y1="377.4" x2="294.4" y2="377.9"/>
<line fill="none" stroke="#000000" stroke-width="0.3762" x1="285.2" y1="370.1" x2="282.3" y2="373.8"/>
<line fill="none" stroke="#000000" stroke-width="0.3762" x1="276.9" y1="378.4" x2="276.4" y2="381"/>
<line fill="none" stroke="#000000" stroke-width="0.3762" x1="270.1" y1="378.4" x2="261.9" y2="384.7"/>
<line fill="none" stroke="#000000" stroke-width="0.3762" x1="258.9" y1="379.5" x2="261.4" y2="381"/>
<line fill="none" stroke="#000000" stroke-width="0.3762" x1="251.7" y1="380" x2="258" y2="383.6"/>
<line fill="none" stroke="#000000" stroke-width="0.3762" x1="245.3" y1="382.1" x2="248.3" y2="384.1"/>
<path fill="none" stroke="#000000" stroke-width="0.3762" d="M243.9,387.8c1.9,0.5,3.9,1,3.9,1"/>
<line fill="none" stroke="#000000" stroke-width="0.3762" x1="236.1" y1="390.3" x2="236.1" y2="395.5"/>
<line fill="none" stroke="#000000" stroke-width="0.3762" x1="243.4" y1="395.5" x2="248.7" y2="391.4"/>
<line fill="none" stroke="#000000" stroke-width="0.3762" x1="255.5" y1="391.9" x2="250.2" y2="396.6"/>
<line fill="none" stroke="#000000" stroke-width="0.3762" x1="251.7" y1="387.8" x2="258" y2="386.7"/>
<line fill="none" stroke="#000000" stroke-width="0.3762" x1="260.9" y1="396" x2="258" y2="398.1"/>
<line fill="none" stroke="#000000" stroke-width="0.3762" x1="265.3" y1="389.3" x2="269.6" y2="391.9"/>
<line fill="none" stroke="#000000" stroke-width="0.3762" x1="273.5" y1="386.7" x2="278.4" y2="388.8"/>
<line fill="none" stroke="#000000" stroke-width="0.3762" x1="285.7" y1="380.5" x2="283.7" y2="385.2"/>
<line fill="none" stroke="#000000" stroke-width="0.3762" x1="291.5" y1="374.8" x2="289.5" y2="379"/>
<line fill="none" stroke="#000000" stroke-width="0.3762" x1="295.9" y1="382.6" x2="291.5" y2="387.8"/>
<line fill="none" stroke="#000000" stroke-width="0.3762" x1="279.8" y1="391.9" x2="284.2" y2="391.9"/>
<ellipse stroke="#000000" stroke-width="1.1982" cx="232.5" cy="105" rx="1.9" ry="2.3"/>
<ellipse stroke="#000000" stroke-width="1.2107" cx="274.8" cy="87.7" rx="2.2" ry="2.3"/>
</svg>
