<?xml version="1.0" encoding="utf-8"?>
<!-- Generator: Adobe Illustrator 15.0.0, SVG Export Plug-In . SVG Version: 6.00 Build 0)  -->
<!DOCTYPE svg PUBLIC "-//W3C//DTD SVG 1.1//EN" "http://www.w3.org/Graphics/SVG/1.1/DTD/svg11.dtd">
<svg version="1.1" id="Abc-color.com" xmlns="http://www.w3.org/2000/svg" xmlns:xlink="http://www.w3.org/1999/xlink" x="0px"
	 y="0px" width="822px" height="567px" viewBox="0 0 822 567" enable-background="new 0 0 822 567" xml:space="preserve">
<g id="COLOR">
	<path fill="#FFFFFF" stroke="#000000" stroke-miterlimit="10" d="M537.5,164.1c2.7-1.3,6.2,0.4,7.7,3.7l5.899,12.9l15.4,34
		l36.9,81.3l3.6,7.9c1.5,3.3,0.4,7-2.4,8.3l-0.199,0.1l-11.2,5l-3.8,1.7c-2.4,1.1-5.101,0.1-6.801-2.2c-0.3-0.399-0.6-0.8-0.899-1.3
		l-37.9-83.6L529.3,200l-9.5-20.9c-1.5-3.3-0.5-6.9,2.4-8.3l2-0.9l10.399-4.7L537.5,164.1z"/>
	<path fill="#FFFFFF" stroke="#000000" stroke-miterlimit="10" d="M355.2,192.6c-10.9,9.7-15.7,17.7-14.3,21.8
		c-56.8,12.7-136.5-6.7-136.5-6.7h-0.5c-0.2-7.5,1.6-14.1,4.5-19.5c1.8-3.4,4-6.3,6.4-8.8c4.7-5,10.2-8.3,14.6-9.8
		c1.7-0.6,4.1-0.9,7.2-0.9c18.1-0.7,57.5,6.4,71.8,21.4c16,16.6,44,2.7,46.199,1.6L355.2,192.6z"/>
	<path fill="#FFFFFF" stroke="#000000" stroke-miterlimit="10" d="M340.9,214.4c0,0,78.899,13.3,116.1,13.3
		c23.7,0,41.8,2.4,72.3-27.7l14.4,31.8c-5.9,3.1-12.7,6.2-20.601,9.2c-3,1.1-6,2.1-9.1,3c-15.6,4.5-33.2,6.4-51.1,6.4
		c-17,0-34.101-1.7-50-4.6c-33.5-6-61.4-17-69.7-27.5C342.1,216.9,341.3,215.6,340.9,214.4z"/>
	<path fill="#FFFFFF" stroke="#000000" stroke-miterlimit="10" d="M214.3,179l0.3,0.3c-2.4,2.5-4.6,5.5-6.4,8.8l-61.1-9.5
		c0,0-2.8-0.5-6-2c-4.4-2-9.7-5.7-9.7-12.1C141.4,166.4,210,179,214.3,179z"/>
	<path fill="#FFFFFF" stroke="#000000" stroke-miterlimit="10" d="M204.3,207.7c0,0,79.8,19.4,136.5,6.7c0.4,1.2,1.2,2.6,2.3,3.9
		l-0.899,0.6C316.6,241,293,241,293,241s-22.8,0.4-43.3,1.2c-7.3,0.3-14.2,0.6-19.8,1c-21.3,1.6-19,0-25-26.5
		c-0.7-3.1-1.1-6.1-1.1-9H204.3z"/>
	<path fill="#FFFFFF" stroke="#000000" stroke-miterlimit="10" d="M251.6,248.5c2.7,9.7,4.5,19,5.6,27c2,14.2,2,24,2,24.2l-3.3,0.1
		l-26.5,0.5l-16.1,0.3h-0.4h-1.5c-0.6-1.6-1.1-3-1.7-4.6c-0.4-1.2-0.9-2.3-1.3-3.5c-0.8-2.1-1.6-4.1-2.4-6.1
		c-7.1-17.4-14.7-30.4-22.5-39.601c-55.3-64.3-123.6,54-123.6,54l-24.3-4.6c50.1-101.8,90.9-115.8,90.9-115.8
		c5.2-1.6,10-2.9,14.8-3.9c3.2,1.5,6,2,6,2l61.1,9.5c-2.9,5.5-4.7,12-4.5,19.5c0.1,2.9,0.4,5.9,1.1,9c6.1,26.5,3.8,28.1,25,26.5
		c5.6-0.4,12.5-0.7,19.8-1C250.4,244.3,251,246.4,251.6,248.5z"/>
	<path fill="#FFFFFF" stroke="#000000" stroke-miterlimit="10" d="M522.3,170.9c-2.899,1.3-3.899,5-2.399,8.3l9.5,20.9
		c-30.5,30.1-48.601,27.7-72.301,27.7c-37.199,0-116.1-13.3-116.1-13.3c-1.3-4,3.4-12,14.3-21.8c14.7-13.1,40.5-29.1,77.601-43.1
		c22.6-8.5,44.699-13.5,64.399-15.5l12.4,8.3l14.7,27.6L522.3,170.9z M445,193.5c0,0,6,1.5,1,9.5c-3.5,5.5,13.5-6,15.5-11.5
		c0,0,32,2.5,46-17c0,0-24,15-47.5,3.5s-37.5,7-43.5,11S396,205.5,380,204.5c0,0,19.5,4,28.5-1c0,0-8.1,11.5-16.5,12.5
		c-0.1,0-0.2,0-0.3,0c0.1,0,0.2,0,0.3,0c4.2-0.4,31.3-3.7,35.5-18c0,0-1,14.5-7,16C420.5,214,437.5,212,445,193.5z"/>
	<path fill="#FFFFFF" stroke="#000000" stroke-miterlimit="10" d="M214.3,179c-4.3,0-72.9-12.6-82.8-14.5c0-3.5,1.6-7.9,5.9-13.2
		c17.5-22,44-10.7,58.4-4.6c14.3,6.1,27.1,17.3,40.6,22c-3,0-5.5,0.2-7.2,0.9c-4.4,1.4-9.8,4.7-14.6,9.8L214.3,179z"/>
	<path fill="#FFFFFF" stroke="#000000" stroke-miterlimit="10" d="M575.9,196.2c-1.301,6.3-4.301,12.4-9.601,18.4l-15.399-34
		l0.699-0.3c0,0,4.7-5.3,8.7-7.3l0.601-0.3C565.5,181.9,570.6,189.7,575.9,196.2z"/>
	<path fill="#FFFFFF" stroke="#000000" stroke-miterlimit="10" d="M548.8,138.5c3.2,13.2,7.4,24.5,12.2,34.2l-0.6,0.3
		c-4,2-8.7,7.3-8.7,7.3l-0.7,0.3l-5.9-12.9c-1.5-3.3-5-5-7.699-3.7l-2.7,1.2l-11.4-26l14-4C541.5,136.1,545.3,137.2,548.8,138.5z"/>
	<path fill="#FFFFFF" stroke="#000000" stroke-miterlimit="10" d="M659,189c7.9-19.6,6.6-38.5-2.8-42.3
		c-9.5-3.9-23.601,8.9-31.5,28.4c-7.9,19.6-6.7,38.5,2.8,42.4C637,221.3,651.1,208.5,659,189z M624.6,225.4
		c-3.8,0.2-10-1.1-17.199-4.4c-9.5-4.3-20.801-12-31.4-24.9c-5.3-6.5-10.4-14.2-15-23.5c-4.8-9.7-9-21-12.2-34.2
		c-0.1-0.3-0.2-0.6-0.2-0.9c0,0,11.9-2,28.2-3.4c3-0.3,6.101-0.5,9.4-0.7c29.2-1.9,66.6-1.2,78.5,13.5c7.7,9.4,8.399,62.8-26,75.6
		C634.4,224.2,629.8,225.2,624.6,225.4z"/>
	<path fill="#FFFFFF" stroke="#000000" stroke-miterlimit="10" d="M380.9,393.2c2.5,0.399,4.899,0.7,7.199,1
		c8.2,1.2,15.5,2.1,21.4,2.7c42,4.1,54.3-5.4,58.8-15.301c0.101-0.199,0.2-0.3,0.2-0.5c3.4-7.899,2.1-16,7.3-17.199
		c8.5-2.101,6.601,8.6,6.601,8.6c-0.4,3.1-1,5.9-1.7,8.6c0,0.2-0.101,0.301-0.101,0.5c-2.6,9.9-7.3,17-13.5,22
		c-13.8,11.2-35.3,12.2-59.199,11c-2.101-0.1-4.4-0.3-6.801-0.5c-38.1-3-112.6-15.5-155.5-23.3c-17.9-3.3-30.2-5.8-32.1-6.6
		c-0.1,0-0.8-0.101-1.7-0.101c-0.9,0-2.1,0-3.6,0c-5.1,0-12.6,0.301-15.8,0.801c5-3.5,8.8-10.7,9.8-19.301
		c0.7-5.3,0.3-10.6-1.2-14.699c7.2,6.699,15.6,13.199,15.6,13.199s0.9,0.2,2.4,0.5c0.3,0.101,0.6,0.101,1,0.2
		c5.4,1,17,3.3,32.1,6.101C287.7,377.5,342.4,387.5,380.9,393.2z"/>
	<path fill="#FFFFFF" stroke="#000000" stroke-miterlimit="10" d="M398.6,378.9c2.4,0.1,4.801,0.199,7.2,0.3
		c18,0.399,31.3-2.8,41.2-7.9v4.601c0,3.199,2.2,5.699,5,5.699h16.3c-4.5,9.9-16.8,19.4-58.8,15.301c-5.9-0.601-13.2-1.5-21.4-2.7
		L398.6,378.9z"/>
	<path fill="#FFFFFF" stroke="#000000" stroke-miterlimit="10" d="M409.4,363.3c3.699,0.5,6.399,0.8,7.6,0.7
		c7.9-0.6,19.1,0.7,30-9.1c1.5-1.301,3-2.9,4.5-4.7c5-6.101,9.8-14.8,14.1-27.8c0,0,7.7-12.101,10.2,0.5c0,0,1.7,29.5-24.3,45.8
		c-1.4,0.899-2.9,1.7-4.5,2.5c-9.9,5-23.2,8.3-41.2,7.899c-2.399,0-4.8-0.199-7.2-0.3c-67-3-142.6-26.5-142.6-26.5
		s-12.4-11.5,2.5-20.8C258.6,331.5,376.4,358.5,409.4,363.3z"/>
	<path fill="#FFFFFF" stroke="#000000" stroke-miterlimit="10" d="M495.7,277.4v98.5c0,3.199-2.2,5.699-5,5.699H480.6
		c0.101-0.199,0.101-0.3,0.101-0.5c0.7-2.699,1.3-5.5,1.7-8.6c0,0,2-10.7-6.601-8.6c-5.2,1.199-3.899,9.3-7.3,17.199
		c-0.1,0.2-0.1,0.301-0.2,0.5H452c-2.8,0-5-2.6-5-5.699V371.3c1.6-0.8,3.1-1.7,4.5-2.5c25.9-16.3,24.3-45.8,24.3-45.8
		c-2.5-12.6-10.2-0.5-10.2-0.5c-4.3,13-9.1,21.7-14.1,27.8c-1.5,1.8-3,3.3-4.5,4.7v-77.5c0-3.2,2.2-5.7,5-5.7h38.7
		C493.4,271.7,495.7,274.2,495.7,277.4z"/>
	<path fill="#FFFFFF" stroke="#000000" stroke-miterlimit="10" d="M750.7,347.8c0,0-13.7,2.5-31.9-15.7
		c-8.8-8.8-35.6-30.899-67.1-32.399c-2.601-0.101-5.101-0.101-7.8,0.1c-12.5,0.8-25.601,5.2-38.5,15.101l-1.2-2.7l0.2-0.101
		c2.8-1.199,3.899-5,2.399-8.3l-3.6-7.899c8.8-7.4,18.5-13.9,29.3-19.2c6.8-3.3,13.8-6.3,21.4-8.5c0,0,1.8-0.4,4.8-0.9
		c18.899-2.8,88.5-6.9,117.7,78.9l-10.7,0.6L750.7,347.8z"/>
	<path fill="#FFFFFF" stroke="#000000" stroke-miterlimit="10" d="M651.7,299.7c31.5,1.5,58.3,23.6,67.1,32.399
		c18.2,18.2,31.9,15.7,31.9,15.7l15.1-0.899c11.4,20.8,16.5,45.399,14.7,71.8c-5.2,76-56.9,115.399-114.3,116.899
		c-0.8,0-1.4,0-2.2,0c-58.4,0-105.8-55.699-105.8-124.399c0-12.8,1.7-25.2,4.7-36.8C573.1,351.6,584.3,335,595.7,323.5l8.8,19.2
		c-13.6,16.8-22,39.399-22,64.399c0,51.601,35.5,93.5,79.3,93.5c41.7,0,75.8-37.699,79.101-85.699c0.399-3.2,0.5-6.4,0.5-9.7
		c0-11.899-2.2-23.3-6.2-33.5c-0.601-1.7-1.3-3.399-2.101-5.101C720.4,335.4,693.2,313.801,661.7,313.801
		c-18.2,0-34.9,7.299-48.3,19.5l-8.2-18.101c12.899-9.899,26-14.3,38.5-15.101c1.6,1.301,3.7,1.801,5.6,0.9L651.7,299.7z"/>
	<path fill="#FFFFFF" stroke="#000000" stroke-miterlimit="10" d="M672.8,324c26,0,48.8,17.1,60.5,42.4
		c0.8,1.699,1.4,3.399,2.101,5.1c3.899,10.9,6,23,6,35.5c0,2.6-0.101,5.2-0.301,7.8c-4,40.101-33.199,71.2-68.3,71.2
		c-21.899,0-41.2-11.9-53.6-30.5c8.899,8.8,20.5,13.8,33,13.8c29.3,0,53-28,53-62.3c0-34.4-23.7-62.2-53-62.2
		c-10.601,0-20.4,3.7-28.601,10.101l-1.8-4C634.3,334.4,652.5,324,672.8,324z"/>
	<path fill="#FFFFFF" stroke="#000000" stroke-miterlimit="10" d="M733.2,366.4C721.6,341.1,698.7,324,672.7,324
		c-20.3,0-38.5,10.4-51.101,26.8l-8.1-17.8c13.4-12.2,30.1-19.5,48.3-19.5C693.3,313.5,720.5,335.2,733.2,366.4z"/>
	<path fill="#FFFFFF" stroke="#000000" stroke-miterlimit="10" d="M741,414.7c-3.4,48-37.4,85.7-79.1,85.7
		c-43.801,0-79.301-41.801-79.301-93.5c0-25,8.4-47.601,22-64.4l9.4,20.6c-0.5,1.101-1.2,2.101-1.7,3.2c-8.1,10.8-13,25-13,40.601
		c0,19.6,7.8,37.199,19.8,48.5c12.4,18.6,31.7,30.5,53.601,30.5C707.9,485.9,737,454.8,741,414.7z"/>
	<path fill="#FFFFFF" stroke="#000000" stroke-miterlimit="10" d="M646.6,429.6c-8.699,1.801-17.5-5.8-19.8-16.899
		c-1.2-6-0.3-11.9,2.3-16.2L638,416c0,0,10.2,8.8,11-5l-9.8-21.7c8.399-1.2,16.8,6.2,19,17C660.5,417.4,655.3,427.8,646.6,429.6z"/>
	<path fill="#FFFFFF" stroke="#000000" stroke-miterlimit="10" d="M659,189c-7.9,19.5-22,32.3-31.5,28.5
		c-9.5-3.9-10.7-22.8-2.8-42.4c7.899-19.5,22-32.3,31.5-28.4C665.5,150.5,666.9,169.4,659,189z"/>
	<path fill="#FFFFFF" stroke="#000000" stroke-miterlimit="10" d="M610.4,47.4c0,0,7.1,0.7,4,6.1L597.3,64.7
		c-3-1.3-3.899-5.1-4.1-6.1L610.4,47.4z"/>
	<path fill="#FFFFFF" stroke="#000000" stroke-miterlimit="10" d="M652.2,344.8c29.3,0,53,27.8,53,62.2s-23.7,62.3-53,62.3
		c-12.601,0-24.101-5.1-33-13.8c-12.101-11.3-19.8-28.9-19.8-48.5c0-15.5,4.8-29.8,13-40.6c0.6-0.9,1.3-1.7,2-2.5l14.8,32.6
		c-2.5,4.4-3.5,10.2-2.3,16.2c2.3,11.1,11.1,18.6,19.8,16.899c8.7-1.8,13.8-12.199,11.5-23.3c-2.2-10.8-10.601-18.2-19-17
		L623.6,354.8C631.8,348.5,641.6,344.8,652.2,344.8z"/>
	<path fill="#FFFFFF" stroke="#000000" stroke-miterlimit="10" d="M607.3,221c7.2,3.3,13.4,4.6,17.2,4.4c5.2-0.2,9.8-1.3,13.9-2.8
		l20.3,44.8c-3.101,0.5-4.8,0.9-4.8,0.9c-7.601,2.2-14.601,5.1-21.4,8.5L607.3,221z"/>
	<path fill="#FFFFFF" stroke="#000000" stroke-miterlimit="10" d="M604.2,312.2l1.2,2.7L613.6,333l8.101,17.8l1.8,4l15.6,34.5
		L649,411c-0.8,13.7-11,5-11,5l-8.9-19.5l-14.8-32.6l-0.3-0.7l-9.4-20.601l-8.8-19.199l-2.8-6.2L604.2,312.2z"/>
	<path fill="#FFFFFF" stroke="#000000" stroke-miterlimit="10" d="M597.7,27.7c3.5,5.6-1.2,15.1-10.7,21c-6.8,4.4-14.2,5.7-19.2,3.9
		c0.5-5.1,4.101-6.8,4.101-6.8c0-4.6-3-1.3-3-1.3s-2.9,2.4-4.101,6.4c-0.5-0.5-1-1-1.3-1.6c-3.6-5.6,1.1-15.1,10.6-21
		C583.5,22.3,594,22,597.7,27.7z"/>
	<path fill="#FFFFFF" stroke="#000000" stroke-miterlimit="10" d="M593.2,58.6c0.2,1,1.1,4.7,4.1,6.1l-8.8,5.7
		c-1-0.6-1.7-1.5-2.2-2.3c-0.7-1.2-1.2-3-1.5-4L593.2,58.6z"/>
	<path fill="#FFFFFF" stroke="#000000" stroke-miterlimit="10" d="M582.4,316.6c1.699,2.301,4.399,3.4,6.8,2.2l3.8-1.7l2.8,6.2
		c-11.5,11.5-22.6,28.101-32.8,50.9c-4.4,9.899-8.7,20.8-12.8,33.2l-15.8,0.5c1.899-5.2,3.899-12,6.1-21
		C548,368.6,561.5,341.1,582.4,316.6z"/>
	<path fill="#FFFFFF" stroke="#000000" stroke-miterlimit="10" d="M586.4,68.1c0.5,0.9,1.199,1.7,2.199,2.3l-6.3,4
		c-2.2-1.3-3.399-4.5-3.899-6.1l1.699-1.1l2.301-1.5l2.5-1.7C585.2,65,585.6,66.9,586.4,68.1z"/>
	<path fill="#FFFFFF" stroke="#000000" stroke-miterlimit="10" d="M580.1,121.5l6,12c-3.3,0.2-6.399,0.5-9.399,0.7l-3.8-9.2
		L537.3,135.2l-14,4l11.4,26l-10.4,4.7l-14.7-27.6L497.2,134l-58.9-39.5c0,0-7.5-5.3-19.1-1.1c0.8-2,0.6-4.9-0.8-7.8
		c-1.301-2.7-3.301-4.8-5.101-5.3l8.9-2.2c0,0,15.1-3.9,23.1,1.3l69.5,51.1l55.7-16.8l-0.2-31.6c0,0-2.3-8.7,4.9-11.8l3.3-2.2
		c0.5,1.6,1.7,4.7,3.9,6.1l-3.301,2.2c0,0-3.399,3-1.6,6.8l2.5,34l-0.4,0.1L580.1,121.5z"/>
	<path fill="#FFFFFF" stroke="#000000" stroke-miterlimit="10" d="M571.9,45.8c0,0-3.7,1.7-4.101,6.8c-0.1,0.4-0.1,0.7-0.1,1.2
		c0,0-1.8,5,14.7,11.9l-2.301,1.5c-17-7.1-15.899-12.6-15.899-12.6c0-1.3,0.2-2.6,0.6-3.6c1.2-4,4.101-6.4,4.101-6.4
		S571.9,41.2,571.9,45.8z"/>
	<path fill="#FFFFFF" stroke="#000000" stroke-miterlimit="10" d="M401.1,414.2c2.4,0.2,4.7,0.3,6.801,0.5
		c23.8,1.2,45.3,0.2,59.199-11c3.5-0.7,13.101-2.5,16.801-3.3c6.8-1.4,12.3-9.9,17.199-21.7c0.9-2.2,1.801-4.5,2.7-7
		c9.3-25.7,16.7-62.3,26.7-82.3c2.2-4.4,4.5-8,7-10.5c20.8-20.8,24.8,6.1,24.8,6.1s-8.899,41.4-18.2,86.1c-1.3,6-2.5,11.2-3.6,15.9
		c-2.2,9-4.3,15.8-6.1,21c-4.301,12-7.5,15.5-9,16.8C468.7,470.2,409.9,421.9,401.1,414.2z"/>
	<path fill="#FFFFFF" stroke="#000000" stroke-miterlimit="10" d="M514,244v16.5H391.5c-1.7,0-3.3,0.9-4.2,2.3l-18.3-1.3
		c-2.8-0.2-5.1,1.9-5.3,4.6l-0.601,9.4H341.4l0.699-10.1c0.2-2.8-1.899-5.1-4.6-5.3l-59.9-4.1c-2.8-0.2-5.1,1.9-5.3,4.6l-1,14.9h-14
		c-1.1-8-2.9-17.3-5.6-27H408.6c1.9,0,3.601-1.1,4.4-2.7c15.9,2.8,33.1,4.6,50,4.6C480.8,250.4,498.4,248.4,514,244z"/>
	<path fill="#FFFFFF" stroke="#000000" stroke-miterlimit="10" d="M416.5,189c6-4,20-22.5,43.5-11s47.5-3.5,47.5-3.5
		c-14,19.5-46,17-46,17c-2,5.5-19,17-15.5,11.5c5-8-1-9.5-1-9.5c-7.5,18.5-24.5,20.5-24.5,20.5c6-1.5,7-16,7-16
		c-4.2,14.3-31.2,17.5-35.5,18c8.3-1,16.5-12.5,16.5-12.5c-9,5-28.5,1-28.5,1C396,205.5,410.5,193,416.5,189z"/>
	<path fill="#FFFFFF" stroke="#000000" stroke-miterlimit="10" d="M398.6,378.9l-10.5,15.3c-2.3-0.3-4.699-0.7-7.199-1l-127-31
		l-19.6-4.8c7.1-9.5-3.5-51.601-4.9-57.101l26.5-0.5c35.2,8.2,90.1,13.7,130.6,17c30.2,2.4,52.3,3.601,52.3,3.601L409.4,363.3
		c-32.9-4.8-150.8-31.8-150.8-31.8c-14.9,9.3-2.5,20.8-2.5,20.8S331.6,375.9,398.6,378.9z"/>
	<path fill="#FFFFFF" stroke="#000000" stroke-miterlimit="10" d="M425.9,309.5l-39.4-2.7l-20.4-1.399c-2.8-0.2-4.8-2.601-4.6-5.301
		l1.7-24.6l0.6-9.4c0.2-2.8,2.601-4.8,5.3-4.6l18.301,1.3l41.6,2.9c2.8,0.2,4.8,2.6,4.6,5.3l-2.3,33.9
		C431.1,307.6,428.7,309.7,425.9,309.5z"/>
	<path fill="#FFFFFF" stroke="#000000" stroke-miterlimit="10" d="M413.3,80.4c1.8,0.6,3.8,2.6,5.101,5.3c1.5,2.9,1.699,5.8,0.8,7.8
		c-0.101,0-0.101,0.1-0.2,0.1l-17.6,4.7c0.699-1.9,0.399-4.7-1-7.6c-1.601-3.3-4.101-5.5-6.301-5.5l5.5-1.3l6.9-1.8L413.3,80.4z"/>
	<path fill="#FFFFFF" stroke="#000000" stroke-miterlimit="10" d="M400.4,90.7c1.3,2.9,1.699,5.7,1,7.6l-16.801,4.5
		c1-1.8,0.7-5-0.699-8c-1.5-3.2-3.9-5.2-6-5.5l16-4.1h0.1C396.3,85.2,398.8,87.4,400.4,90.7z"/>
	<path fill="#FFFFFF" stroke="#000000" stroke-miterlimit="10" d="M391.7,216c0.1,0,0.2,0,0.3,0C391.9,216,391.8,216,391.7,216z"/>
	<path fill="#FFFFFF" stroke="#000000" stroke-miterlimit="10" d="M391.5,260.5H514h11.5c2.8,0,5,2.2,5,5v23.9
		c-10,20-17.4,56.6-26.7,82.3c-0.899,2.5-1.8,4.8-2.7,7c-4.899,11.8-10.5,20.3-17.199,21.7c-3.7,0.699-13.301,2.6-16.801,3.3
		c6.2-5,10.9-12.101,13.5-22H490.7c2.8,0,5-2.601,5-5.7v-98.5c0-3.2-2.2-5.7-5-5.7H452c-2.8,0-5,2.6-5,5.7V355
		c-10.9,9.7-22.1,8.5-30,9.1c-1.3,0.101-3.9-0.199-7.6-0.699l29.399-42.9c0,0-22.1-1.2-52.3-3.6v-10l39.4,2.699
		c2.8,0.2,5.1-1.899,5.3-4.6l2.3-33.9c0.2-2.8-1.9-5.1-4.6-5.3l-41.601-2.9C388.2,261.4,389.8,260.5,391.5,260.5z"/>
	<path fill="#FFFFFF" stroke="#000000" stroke-miterlimit="10" d="M377.9,89.4c2.1,0.3,4.5,2.3,6,5.5c1.5,3,1.699,6.2,0.699,8
		L328.3,118c1.2-1.7,1.101-5-0.5-8.3c-1.6-3.4-4.3-5.6-6.399-5.6l-0.101-0.6L377.9,89.4z"/>
	<path fill="#FFFFFF" stroke="#000000" stroke-miterlimit="10" d="M383.9,41.6c0,0.4-0.101,0.6-0.101,1l-4.7-2.9
		c0,0-8.6-2.8-8.6,0.3c0,0-4,8.4,8.4,6.7L382.3,49c-4.1,9.5-15.8,16.4-29.8,16.4c-17.5,0-31.6-10.7-31.6-23.7
		c0-13.1,14.1-23.7,31.6-23.7C369.8,17.9,383.9,28.5,383.9,41.6z"/>
	<path fill="#FFFFFF" stroke="#000000" stroke-miterlimit="10" d="M379,39.7l4.7,2.9l15.5,9.6c0,0,5,2.9,5,9.6
		c0,5.8,1.8,17.5,2.2,20.3l-6.9,1.8c-0.3-1.3-1.7-12.6-1.7-18.1c0-5.8-3.899-8.4-3.899-8.4L382.1,48.9l-3.399-2.3
		c-12.4,1.7-8.4-6.7-8.4-6.7C370.4,36.9,379,39.7,379,39.7z"/>
	<path fill="#FFFFFF" stroke="#000000" stroke-miterlimit="10" d="M343.2,218.3c8.399,10.5,36.2,21.5,69.7,27.5
		c-0.801,1.6-2.5,2.7-4.4,2.7H251.6c-0.6-2.1-1.2-4.2-1.9-6.3c20.5-0.8,43.3-1.2,43.3-1.2s23.6,0,49.3-22.1L343.2,218.3z"/>
	<path fill="#FFFFFF" stroke="#000000" stroke-miterlimit="10" d="M334.4,304l-59.9-4.1c-2.8-0.2-4.8-2.601-4.6-5.301l1.3-19.1
		l1-14.9c0.2-2.8,2.6-4.8,5.3-4.6l59.9,4.1c2.8,0.2,4.8,2.6,4.6,5.3l-0.7,10.1l-1.6,23.9C339.6,302.1,337.2,304.2,334.4,304z"/>
	<path fill="#FFFFFF" stroke="#000000" stroke-miterlimit="10" d="M334.4,304c2.8,0.2,5.1-1.9,5.3-4.7l1.6-23.9H363l-1.7,24.6
		c-0.2,2.7,1.9,5.1,4.601,5.3l20.399,1.4v10c-40.5-3.3-95.3-8.8-130.6-17l3.3-0.101c0-0.199,0-10.1-2-24.2h14l-1.3,19.1
		c-0.2,2.8,1.9,5.1,4.6,5.3L334.4,304z"/>
	<path fill="#FFFFFF" stroke="#000000" stroke-miterlimit="10" d="M327.8,109.8c1.601,3.3,1.7,6.6,0.5,8.3c-0.3,0.5-0.6,0.7-1.1,1
		c-2.3,1.1-5.7-1.2-7.601-5.3c-1.899-4-1.699-8.1,0.601-9.2c0.399-0.1,0.7-0.3,1.2-0.3C323.5,104.2,326.2,106.4,327.8,109.8z"/>
	<path fill="#FFFFFF" stroke="#000000" stroke-miterlimit="10" d="M229.4,300.3c1.4,5.5,12,47.601,4.9,57.101l19.6,4.8
		c-0.5,3-1.1,5.899-1.7,8.7c-15.1-2.801-26.7-5-32.1-6.101c1.6-5.6,2.7-11.5,3.1-17.6c0.1-2.101,0.2-4.3,0.2-6.3
		c0-10.101-1.7-19.9-4.8-28.7c-0.5-1.4-1-2.8-1.7-4.2c-1.1-2.6-2.3-5-3.6-7.4L229.4,300.3z"/>
	<path fill="#FFFFFF" stroke="#000000" stroke-miterlimit="10" d="M209.7,296c0.6,1.6,1.1,3,1.7,4.6h1.5h0.4
		c1.3,2.4,2.5,4.9,3.6,7.4c0.6,1.4,1.2,2.8,1.7,4.2c3.1,8.899,4.8,18.6,4.8,28.7c0,2.1-0.1,4.3-0.2,6.3c-0.4,6.1-1.5,12-3.1,17.6
		c-0.4-0.1-0.7-0.1-1-0.2c-1.5-0.3-2.4-0.5-2.4-0.5s-8.4-6.399-15.6-13.199c-1.5-4.301-4-7.601-7-9.4c0-0.2,0.1-0.4,0.1-0.7
		c0-10.399-2.7-20-7.2-28L209.7,296z"/>
	<path fill="#FFFFFF" stroke="#000000" stroke-miterlimit="10" d="M159.1,416.6c21.9,0,41.1-12.8,52.7-32.399c0.9,0,1.6,0,1.7,0.1
		c1.8,0.7,14.2,3.3,32.1,6.601c-15.7,35.1-48,53.3-82.9,54.199c-0.6,0-1.1,0-1.8,0c-38.5,0-71.1-29.8-81.9-70.899l23.7,3
		C113.6,400.6,134.8,416.6,159.1,416.6z"/>
	<path fill="#FFFFFF" stroke="#000000" stroke-miterlimit="10" d="M208.2,384.2c1.5,0,2.7,0,3.6,0
		C200.2,403.7,181,416.6,159.1,416.6c-24.3,0-45.5-16-56.4-39.5l21.5,2.7c0.1,0.101,0.2,0.2,0.3,0.3
		c10.1,15.101,25.7,24.7,43.4,24.7C183.8,404.9,198.1,396.8,208.2,384.2z"/>
	<path fill="#FFFFFF" stroke="#000000" stroke-miterlimit="10" d="M203,288.5L203,288.5l1.4-1l1.4-1l0.1-0.1c0.8,2,1.6,4,2.4,6.1
		c0.4,1.2,0.9,2.3,1.3,3.5l-22.8,16.9l-31.1,23l-16.2-2l0,0l41.1-29.4L203,288.5z"/>
	<path fill="#FFFFFF" stroke="#000000" stroke-miterlimit="10" d="M118.9,308c28.8-58.1,84.1-19.5,84.1-19.5l-22.2,15.9
		c-7.7-8.601-18.1-13.9-29.6-13.9C138.3,290.5,126.7,297.3,118.9,308z"/>
	<path fill="#FFFFFF" stroke="#000000" stroke-miterlimit="10" d="M183.4,246.9c7.9,9.1,15.4,22.1,22.5,39.6l-0.1,0.1l-1.4,1
		c-11.6-13.7-27.6-22.3-45.3-22.3c-31.8,0-58.2,27.4-63.3,63.2l-19.2-2.4c7.3-47,42.2-82.7,84.2-82.7c1.7,0,3.5,0.1,5.1,0.2
		C172.2,244.2,177.9,245.4,183.4,246.9z"/>
	<path fill="#FFFFFF" stroke="#000000" stroke-miterlimit="10" d="M192.5,385c3.2-0.5,10.6-0.8,15.8-0.8
		c-10.2,12.6-24.4,20.7-40.3,20.7c-17.7,0-33.4-9.601-43.4-24.7c7.3,7.1,16.6,11.2,26.8,11.2c7,0,13.6-2.2,19.4-5.7l13.8,1.7
		C187.4,387.8,190.1,386.9,192.5,385L192.5,385z"/>
	<path fill="#FFFFFF" stroke="#000000" stroke-miterlimit="10" d="M186.9,312.9c4.6,8,7.2,17.6,7.2,28c0,0.3-0.1,0.5-0.1,0.699
		c-1.1-0.699-2.4-1.1-3.7-1.3l-34.6-4.399L186.9,312.9z"/>
	<path fill="#FFFFFF" stroke="#000000" stroke-miterlimit="10" d="M201.1,351c1.5,4.1,1.9,9.4,1.2,14.7c-1.1,8.6-4.9,15.8-9.8,19.3
		c0,0,0,0-0.1,0c-2.4,2-5.1,2.8-7.9,2.4l-13.8-1.7l-46.5-5.9l-21.5-2.7l-23.7-3l-13.9-1.8c-7.3-0.899-12.3-9.7-12.3-20.8
		c0-1.5,0.1-3,0.4-4.6c0.4-3.2,1.1-6.101,2.2-8.7c3-7.9,8.8-13.101,14.6-13.101c0.4,0,0.7,0.101,1.1,0.101l5.6,0.7l19.2,2.399
		l13.7,1.7l30.1,3.8l16.2,2l34.6,4.4c1.3,0.2,2.5,0.7,3.7,1.3C197.1,343.4,199.6,346.7,201.1,351z"/>
	<path fill="#FFFFFF" stroke="#000000" stroke-miterlimit="10" d="M203,288.5c0,0-55.4-38.6-84.1,19.5c-4.6,6.2-7.9,13.7-9.4,22.1
		L95.8,328.4c5.1-35.801,31.4-63.2,63.3-63.2c17.8,0,33.8,8.6,45.3,22.3L203,288.5L203,288.5z"/>
	<path fill="#FFFFFF" stroke="#000000" stroke-miterlimit="10" d="M151.2,290.5c11.5,0,21.9,5.3,29.6,13.9L139.7,333.8l0,0
		l-30.1-3.8c1.5-8.3,4.7-15.9,9.4-22.1C126.7,297.3,138.3,290.5,151.2,290.5z"/>
	<path fill="#FFFFFF" stroke="#000000" stroke-miterlimit="10" d="M124.2,379.8l46.5,5.9c-5.9,3.5-12.4,5.7-19.4,5.7
		c-10.2,0-19.5-4.101-26.8-11.2C124.4,380.1,124.3,379.9,124.2,379.8z"/>
	<path fill="#FFFFFF" stroke="#000000" stroke-miterlimit="10" d="M41.3,336.6l14.1,1.601c-1.1,2.7-1.8,5.6-2.2,8.7
		c-0.2,1.6-0.4,3.199-0.4,4.6l-15.1-1.8C37.8,349.8,38.4,341.7,41.3,336.6z"/>
	<path fill="none" stroke="#000000" stroke-miterlimit="10" d="M176,366.7c-0.3,2-2.4,3.399-4.7,3.1l-90.8-13
		c-2.3-0.3-3.9-2.3-3.6-4.3l0.8-5.9c0.3-2,2.4-3.399,4.7-3.1l90.8,13c2.3,0.3,3.9,2.3,3.6,4.3L176,366.7z"/>
	<path fill="none" stroke="#000000" stroke-miterlimit="10" d="M562.3,285c0,0-22.3,0-29.3,35s-9,119-81,93"/>
</g>
<g id="LINE">
	<g>
		<path d="M640,142c0,0-1.1,0.7-3,2s-4.4,3.4-7.3,6.2c-1.4,1.4-2.9,2.9-4.3,4.7c-1.4,1.7-2.9,3.7-4.2,5.7c-1.4,2-2.601,4.3-3.7,6.6
			c-1.1,2.3-2.1,4.8-2.9,7.3c-0.8,2.5-1.399,5-1.899,7.6c-0.2,1.3-0.4,2.5-0.601,3.8c-0.1,1.3-0.199,2.5-0.3,3.7
			c-0.1,1.2-0.1,2.4-0.1,3.6c0,1.2,0.1,2.3,0.1,3.5c0,1.1,0.101,2.2,0.2,3.3s0.2,2.1,0.3,3.1c0.3,2,0.5,3.8,0.9,5.3
			c0.3,1.6,0.6,3,0.899,4.1c0.601,2.2,0.9,3.5,0.9,3.5s-0.4-1.3-1.1-3.5c-0.4-1.1-0.7-2.5-1.101-4c-0.399-1.6-0.7-3.4-1.1-5.3
			c-0.2-1-0.3-2-0.4-3.1c-0.1-1.1-0.3-2.2-0.3-3.3c-0.1-1.1-0.2-2.3-0.2-3.5c0-1.2,0-2.4,0.101-3.7c0.1-1.2,0.199-2.5,0.3-3.8
			c0.2-1.3,0.3-2.6,0.5-3.9c0.5-2.6,1.1-5.2,1.899-7.7c0.801-2.5,1.9-5,3-7.4c1.2-2.3,2.4-4.6,3.9-6.7c1.4-2.1,2.9-4,4.4-5.7
			c1.5-1.7,3-3.3,4.5-4.6c2.899-2.7,5.6-4.7,7.5-6C638.8,142.6,640,142,640,142z"/>
	</g>
	<g>
		<path d="M172,151c0,0,0.6,0.3,1.6,0.9c0.5,0.3,1.1,0.7,1.8,1c0.7,0.4,1.5,0.8,2.4,1.3c0.9,0.5,1.9,1,2.9,1.5
			c0.5,0.3,1,0.6,1.6,0.9c0.5,0.3,1.1,0.6,1.6,0.9c1.1,0.6,2.3,1.1,3.5,1.7c1.2,0.5,2.5,0.9,3.8,1.3c1.3,0.4,2.6,0.8,3.8,1.1
			c1.3,0.4,2.5,0.7,3.7,1c1.2,0.3,2.4,0.6,3.5,0.9c1.1,0.3,2.2,0.5,3.1,0.8c1.9,0.5,3.6,0.9,4.7,1.1c1.1,0.3,1.8,0.5,1.8,0.5v0.1
			c0,0-0.7-0.1-1.8-0.2c-0.6-0.1-1.3-0.2-2.1-0.2c-0.8-0.1-1.7-0.3-2.7-0.4c-1-0.2-2.1-0.4-3.2-0.6c-1.1-0.3-2.3-0.6-3.5-0.9
			c-1.2-0.4-2.5-0.8-3.7-1.2c-1.3-0.5-2.5-0.9-3.8-1.5l-1.9-0.8c-0.6-0.3-1.3-0.5-1.9-0.8c-1.2-0.5-2.4-1-3.6-1.4
			c-1.2-0.5-2.3-0.9-3.4-1.4c-1.1-0.5-2-1.1-2.9-1.6c-1.7-1-3.1-2-4.1-2.7C172.5,151.5,172,151,172,151L172,151z"/>
	</g>
	<g>
		<path d="M235,187c0,0,4.4,1.5,10.9,3.7c1.6,0.6,3.4,1.1,5.3,1.7c1.9,0.6,3.9,1.2,5.9,1.9c2.1,0.6,4.2,1.3,6.3,2
			c2.2,0.6,4.4,1.3,6.6,1.9c2.2,0.6,4.4,1.3,6.6,1.9c1.1,0.3,2.2,0.6,3.2,0.9c1.1,0.3,2.1,0.5,3.2,0.8c1,0.2,2.1,0.5,3.1,0.7
			s2,0.4,3,0.6c1.9,0.4,3.8,0.7,5.5,1c0.8,0.1,1.7,0.3,2.4,0.4c0.8,0.1,1.5,0.2,2.2,0.2c1.4,0.2,2.6,0.3,3.6,0.3
			c2,0,3.2,0.1,3.2,0.1v0.1c0,0-1.2,0-3.2,0.1c-1,0.1-2.2,0-3.6-0.1c-0.7,0-1.4-0.1-2.2-0.1c-0.8-0.1-1.6-0.2-2.5-0.3
			c-1.7-0.2-3.6-0.5-5.5-0.9c-1-0.2-2-0.4-3-0.6c-1-0.2-2.1-0.5-3.1-0.7c-1.1-0.2-2.1-0.5-3.2-0.7c-1.1-0.3-2.2-0.6-3.3-0.8
			c-2.2-0.5-4.4-1.2-6.6-1.8c-2.2-0.6-4.4-1.3-6.6-2c-2.2-0.7-4.3-1.4-6.3-2.1c-4.1-1.4-7.9-2.7-11.1-3.9
			C239.2,188.8,235,187,235,187L235,187z"/>
	</g>
	<g>
		<path d="M453,283.7c0,0,0.6,0,1.7-0.1c1.1,0,2.7-0.1,4.5-0.2c1.899,0,4.1-0.1,6.399-0.2c2.301,0,4.801-0.1,7.301-0.1s5,0,7.3,0.1
			c2.3,0,4.5,0.1,6.399,0.2c1.9,0,3.4,0.1,4.5,0.2c1.101,0.1,1.7,0.1,1.7,0.1s-0.6,0-1.7,0.1c-1.1,0-2.699,0.1-4.5,0.2
			c-1.899,0-4.1,0.1-6.399,0.2c-2.3,0-4.8,0-7.3,0.1c-2.5,0-5,0-7.301-0.1c-2.3,0-4.5-0.101-6.399-0.2c-1.9,0-3.4-0.1-4.5-0.2
			C453.6,283.7,453,283.7,453,283.7z"/>
	</g>
	<g>
		<path d="M452.7,289.3c0,0,0.6,0,1.7-0.1c1.1,0,2.699-0.101,4.5-0.2c1.8-0.1,4.1-0.1,6.399-0.2c2.3,0,4.8,0,7.3-0.1
			c2.5,0,5,0,7.301,0.1c2.3,0,4.5,0.101,6.399,0.2c1.9,0,3.4,0.1,4.5,0.2c1.101,0.1,1.7,0.1,1.7,0.1s-0.6,0-1.7,0.101
			c-1.1,0-2.7,0.1-4.5,0.199c-1.899,0-4.1,0.101-6.399,0.2c-2.301,0-4.801,0-7.301,0.101c-2.5,0-5,0-7.3-0.101
			c-2.3,0-4.5-0.1-6.399-0.2c-1.9,0-3.4-0.1-4.5-0.199C453.3,289.4,452.7,289.3,452.7,289.3z"/>
	</g>
	<g>
		<path d="M453,294.7c0,0,0.6,0,1.7-0.101c1.1,0,2.7-0.1,4.5-0.199c1.899,0,4.1-0.101,6.399-0.2c2.301,0,4.801,0,7.301-0.101
			c2.5,0,5,0,7.3,0.101c2.3,0,4.5,0.1,6.399,0.2c1.9,0,3.4,0.1,4.5,0.199c1.101,0.101,1.7,0.101,1.7,0.101s-0.6,0-1.7,0.1
			c-1.1,0-2.699,0.101-4.5,0.2c-1.899,0-4.1,0.1-6.399,0.2c-2.3,0-4.8,0-7.3,0.1c-2.5,0-5,0-7.301-0.1c-2.3,0-4.5-0.101-6.399-0.2
			c-1.9,0-3.4-0.1-4.5-0.2C453.6,294.7,453,294.7,453,294.7z"/>
	</g>
	<g>
		<path d="M451.7,300.7c0,0,0.6,0,1.7-0.101c1.1,0,2.699-0.1,4.5-0.199c1.8-0.101,4.1-0.101,6.399-0.2c2.3,0,4.8,0,7.3-0.101
			c2.5,0,5,0,7.301,0.101c2.3,0,4.5,0.1,6.399,0.2c1.9,0,3.4,0.1,4.5,0.199c1.101,0.101,1.7,0.101,1.7,0.101s-0.6,0-1.7,0.1
			c-1.1,0-2.7,0.101-4.5,0.2c-1.899,0-4.1,0.1-6.399,0.2c-2.301,0-4.801,0-7.301,0.1c-2.5,0-5,0-7.3-0.1c-2.3,0-4.5-0.101-6.399-0.2
			c-1.9,0-3.4-0.1-4.5-0.2C452.3,300.7,451.7,300.7,451.7,300.7z"/>
	</g>
	<g>
		<path d="M452.7,306.3c0,0,0.6,0,1.7-0.1c1.1,0,2.699-0.101,4.5-0.2c1.899,0,4.1-0.1,6.399-0.2c2.3,0,4.8,0,7.3-0.1
			c2.5,0,5,0,7.301,0.1c2.3,0,4.5,0.101,6.399,0.2c1.9,0.1,3.4,0.1,4.5,0.2c1.101,0.1,1.7,0.1,1.7,0.1s-0.6,0-1.7,0.101
			c-1.1,0-2.7,0.1-4.5,0.199c-1.8,0.101-4.1,0.101-6.399,0.2c-2.301,0-4.801,0-7.301,0.101c-2.5,0-5,0-7.3-0.101
			c-2.3,0-4.5-0.1-6.399-0.2c-1.9,0-3.4-0.1-4.5-0.199C453.3,306.4,452.7,306.3,452.7,306.3z"/>
	</g>
	<g>
		<path d="M452.3,312c0,0,0.601,0,1.7-0.1c1.1,0,2.7-0.101,4.5-0.2c1.9,0,4.1-0.101,6.4-0.2c2.3,0,4.8,0,7.3-0.1c2.5,0,5,0,7.3,0.1
			c2.3,0,4.5,0.1,6.4,0.2c1.899,0.1,3.399,0.1,4.5,0.2c1.1,0.1,1.699,0.1,1.699,0.1s-0.6,0-1.699,0.1c-1.101,0-2.7,0.101-4.5,0.2
			c-1.801,0.101-4.101,0.101-6.4,0.2c-2.3,0-4.8,0-7.3,0.1c-2.5,0-5,0-7.3-0.1c-2.301,0-4.5-0.1-6.4-0.2c-1.9,0-3.4-0.1-4.5-0.2
			C453,312,452.3,312,452.3,312z"/>
	</g>
	<g>
		<path d="M745,335c0,0-0.7-1.8-2.1-4.7c-1.5-2.899-3.801-7-7.101-11.6c-1.7-2.3-3.5-4.7-5.7-7.101c-1-1.199-2.199-2.399-3.399-3.6
			c-0.601-0.6-1.2-1.2-1.8-1.8c-0.601-0.601-1.301-1.2-1.9-1.8c-0.7-0.601-1.3-1.2-2-1.7c-0.7-0.601-1.4-1.101-2.1-1.7l-1.101-0.8
			l-1.1-0.8c-0.7-0.5-1.5-1.101-2.2-1.601c-3.1-2-6.3-4-9.7-5.6c-0.8-0.4-1.7-0.8-2.5-1.2l-2.6-1.1c-1.7-0.801-3.5-1.301-5.2-1.9
			s-3.5-1-5.3-1.5c-1.7-0.5-3.5-0.8-5.2-1.2c-1.7-0.3-3.4-0.5-5.1-0.8c-0.801-0.1-1.7-0.2-2.5-0.3C675.6,284.1,674.8,284,674,284
			c-1.6-0.2-3.2-0.2-4.7-0.3c-1.5,0-3-0.2-4.399-0.1c-2.801,0.1-5.4,0-7.7,0.3c-2.3,0.2-4.3,0.3-5.9,0.5c-3.3,0.399-5.1,0.6-5.1,0.6
			v-0.1c0,0,1.899-0.301,5.1-0.9c1.601-0.3,3.601-0.5,5.9-0.7c2.3-0.3,4.899-0.4,7.7-0.5c1.399-0.1,2.899,0,4.399,0s3.101,0,4.7,0.2
			s3.3,0.2,5,0.5s3.4,0.5,5.2,0.8c1.7,0.4,3.5,0.7,5.3,1.2s3.5,1,5.3,1.6c1.7,0.7,3.5,1.2,5.3,2l2.601,1.101
			c0.899,0.399,1.7,0.8,2.5,1.2c3.399,1.6,6.6,3.699,9.7,5.699c0.8,0.5,1.5,1.101,2.199,1.601l1.101,0.8l1.1,0.9
			c0.7,0.6,1.4,1.1,2.101,1.699c0.699,0.601,1.3,1.2,2,1.801c0.699,0.6,1.3,1.199,1.899,1.8c0.601,0.6,1.2,1.2,1.8,1.8
			c1.2,1.3,2.301,2.4,3.4,3.7c2.2,2.399,4,4.899,5.6,7.2c3.2,4.6,5.5,8.8,7,11.699C744.4,333.2,745,335,745,335L745,335z"/>
	</g>
	<g>
		<path d="M278,272c0,0,0.7-0.6,1.9-1.4c0.7-0.4,1.5-0.9,2.4-1.4c0.9-0.5,2-1,3.3-1.5c0.6-0.2,1.3-0.5,1.9-0.7
			c0.7-0.2,1.4-0.4,2.1-0.6c1.4-0.5,3-0.8,4.6-1.1c0.8-0.2,1.6-0.2,2.5-0.4c0.8-0.1,1.7-0.3,2.5-0.3c1.7-0.1,3.5-0.3,5.2-0.3
			c1.8,0,3.5,0,5.2,0.2c1.7,0.2,3.4,0.2,5,0.5c1.601,0.2,3.2,0.4,4.7,0.7c1.5,0.3,2.9,0.6,4.101,0.9c0.6,0.1,1.3,0.3,1.8,0.4
			c0.6,0.2,1.1,0.3,1.6,0.5c1,0.3,1.9,0.6,2.601,0.8c1.5,0.5,2.3,0.7,2.3,0.7s-0.9-0.2-2.3-0.5c-0.7-0.2-1.601-0.4-2.7-0.6
			c-0.5-0.1-1.101-0.2-1.601-0.4c-0.6-0.1-1.199-0.2-1.8-0.3c-1.3-0.2-2.7-0.5-4.1-0.7c-1.5-0.2-3-0.4-4.7-0.6
			c-1.6-0.3-3.3-0.3-5-0.4c-1.7-0.2-3.4-0.1-5.2-0.1c-1.7-0.1-3.5,0.1-5.2,0.2c-0.9,0-1.7,0.2-2.5,0.3c-0.8,0.1-1.6,0.2-2.4,0.3
			c-1.6,0.3-3.1,0.5-4.6,1c-0.7,0.2-1.4,0.3-2.1,0.6c-0.7,0.2-1.3,0.4-1.9,0.6c-0.6,0.2-1.2,0.5-1.7,0.7c-0.6,0.2-1.1,0.4-1.6,0.6
			c-1,0.4-1.8,0.8-2.5,1.2c-0.7,0.4-1.2,0.7-1.5,0.9C278.2,271.9,278,272,278,272z"/>
	</g>
	<g>
		<path d="M287,287c0,0,0.2,0.1,0.4,0.3c0.3,0.2,0.7,0.4,1.3,0.601c0.6,0.3,1.3,0.5,2.1,0.8c0.4,0.2,0.8,0.3,1.3,0.399
			c0.5,0.101,1,0.301,1.5,0.4c1,0.2,2.2,0.5,3.4,0.6c1.2,0.2,2.5,0.2,3.8,0.4c0.7,0,1.3,0,2,0c0.7,0,1.4,0.1,2.1,0
			c1.4-0.1,2.8-0.1,4.2-0.4c1.4-0.199,2.801-0.3,4.2-0.6c1.4-0.3,2.7-0.5,4-0.9c1.3-0.399,2.5-0.699,3.7-1
			c1.2-0.399,2.3-0.8,3.3-1.1s1.9-0.7,2.7-1s1.5-0.6,2.1-0.8c1.2-0.5,1.801-0.7,1.801-0.7s-0.601,0.3-1.801,0.9
			c-0.6,0.3-1.199,0.6-2,1c-0.399,0.199-0.8,0.399-1.3,0.6c-0.399,0.2-0.899,0.4-1.399,0.6c-1,0.4-2.101,0.801-3.2,1.301
			c-1.2,0.399-2.4,0.8-3.7,1.199c-1.3,0.4-2.7,0.7-4.1,1c-1.4,0.301-2.801,0.5-4.301,0.7c-1.399,0.2-2.899,0.2-4.3,0.3
			c-0.7,0.101-1.4,0-2.1,0c-0.7,0-1.4,0-2.1-0.1c-1.4-0.1-2.7-0.3-3.9-0.5c-1.2-0.2-2.4-0.5-3.4-0.8s-2-0.601-2.8-1
			c-0.8-0.3-1.5-0.7-2-1C287.6,287.5,287,287,287,287z"/>
	</g>
	<g>
		<path d="M373,280c0,0,0.7-0.4,2-1s3.2-1.5,5.5-2.4c1.2-0.4,2.4-0.9,3.8-1.3c1.4-0.4,2.8-0.9,4.3-1.2c3-0.8,6.301-1.4,9.601-1.7
			c1.6-0.2,3.3-0.2,4.899-0.2c0.801,0,1.601,0.1,2.4,0.1c0.8,0.1,1.6,0.1,2.4,0.2c1.5,0.2,3,0.5,4.399,0.9c1.4,0.4,2.7,0.8,3.8,1.3
			c0.601,0.3,1.101,0.5,1.601,0.7c0.5,0.3,1,0.5,1.399,0.8c0.9,0.5,1.601,1,2.2,1.4c1.101,0.9,1.7,1.4,1.7,1.4s-0.7-0.5-1.9-1.3
			c-0.6-0.3-1.3-0.8-2.199-1.3c-0.4-0.2-0.9-0.4-1.4-0.7c-0.5-0.2-1.1-0.4-1.6-0.7c-1.101-0.4-2.4-0.8-3.801-1.1
			c-1.399-0.3-2.8-0.5-4.3-0.7c-0.8-0.1-1.5-0.1-2.3-0.2c-0.8,0-1.6-0.1-2.4,0c-1.6,0-3.199,0.1-4.8,0.3c-3.2,0.3-6.5,0.8-9.399,1.6
			c-3,0.7-5.7,1.5-8.101,2.3C376,278.7,373,280,373,280z"/>
	</g>
	<g>
		<path d="M379,293c0,0,0.7,0.3,1.8,0.8c0.601,0.3,1.3,0.5,2.101,0.9c0.8,0.3,1.8,0.7,2.8,1c0.5,0.2,1.1,0.3,1.6,0.5
			c0.601,0.1,1.2,0.3,1.8,0.5c1.2,0.3,2.5,0.5,3.801,0.8c0.699,0.1,1.399,0.2,2.1,0.3c0.3,0.101,0.7,0.101,1,0.2l1.1,0.1
			c0.7,0.101,1.4,0.101,2.2,0.2c0.7,0.101,1.4,0,2.2,0c0.7,0,1.5,0.101,2.2,0c0.7,0,1.399-0.1,2.2-0.1c1.399,0,2.8-0.3,4.199-0.5
			c1.4-0.2,2.601-0.601,3.801-0.8c0.6-0.2,1.199-0.301,1.8-0.4c0.6-0.2,1.1-0.4,1.6-0.6c1-0.4,2-0.601,2.8-1
			c0.801-0.4,1.5-0.7,2.101-1c1.2-0.5,1.8-0.801,1.8-0.801s-0.6,0.4-1.8,1c-0.601,0.301-1.3,0.7-2,1.101c-0.8,0.399-1.7,0.8-2.8,1.2
			c-0.5,0.199-1.101,0.399-1.601,0.6c-0.6,0.2-1.2,0.4-1.8,0.5c-1.2,0.3-2.5,0.8-3.9,1c-1.399,0.2-2.8,0.5-4.199,0.6
			c-0.7,0.101-1.5,0.101-2.2,0.2c-0.7,0.101-1.5,0-2.2,0s-1.5,0-2.2-0.1c-0.7-0.101-1.5-0.101-2.2-0.2c-0.399,0-0.699-0.1-1.1-0.1
			c-0.4-0.101-0.7-0.101-1.1-0.2c-0.7-0.101-1.4-0.2-2.101-0.3c-1.399-0.301-2.7-0.601-3.899-1c-0.601-0.2-1.2-0.4-1.801-0.5
			c-0.6-0.2-1.1-0.4-1.6-0.601c-1-0.399-2-0.8-2.8-1.2c-0.8-0.399-1.5-0.699-2.101-1C379.6,293.4,379,293,379,293z"/>
	</g>
	<g>
		<path d="M228,290c0,0-0.7-2.7-2.3-7.3c-1.6-4.6-4-11.2-7.6-18.8s-8.2-16.2-14.3-24.7c-3.1-4.2-6.5-8.4-10.4-12.3
			c-3.8-3.9-8.1-7.5-12.8-10.5c-4.7-3-9.7-5.4-15-7c-5.2-1.6-10.6-2.3-15.8-2.3c-5.2,0-10.2,0.7-14.8,1.8s-8.9,2.6-12.8,4.2
			c-1,0.4-1.9,0.8-2.8,1.2c-0.9,0.4-1.8,0.9-2.6,1.3c-1.7,0.8-3.3,1.7-4.8,2.5c-3,1.7-5.5,3.2-7.5,4.5c-2.1,1.3-3.6,2.4-4.7,3.1
			c-1.1,0.7-1.7,1.1-1.7,1.1L98,227c0,0,0.6-0.4,1.6-1.2c1.1-0.8,2.6-1.9,4.6-3.3s4.5-3,7.5-4.7c1.5-0.8,3-1.8,4.8-2.6
			c0.9-0.4,1.7-0.9,2.6-1.3s1.9-0.8,2.8-1.3c3.9-1.7,8.1-3.3,12.8-4.5c4.7-1.2,9.8-1.9,15.1-1.9c5.3,0,10.8,0.7,16.1,2.4
			c5.3,1.6,10.4,4.1,15.1,7.2c4.7,3.1,9,6.7,12.8,10.7c3.9,3.9,7.3,8.2,10.3,12.4c6.1,8.6,10.7,17.3,14.2,24.9
			c3.5,7.6,5.9,14.2,7.4,18.8C227.4,287.3,228,290,228,290L228,290z"/>
	</g>
	<g>
		<path d="M654,181c0,0-0.2,0.6-0.5,1.6c-0.4,1-0.9,2.5-1.6,4.3c-0.7,1.7-1.601,3.8-2.601,5.9c-1,2.1-2.3,4.3-3.6,6.5
			c-0.7,1.1-1.4,2.1-2.101,3.1c-0.699,1-1.5,2-2.3,2.9c-0.8,0.9-1.6,1.7-2.5,2.4c-0.399,0.3-0.8,0.7-1.3,1c-0.2,0.1-0.4,0.3-0.6,0.4
			c-0.2,0.1-0.4,0.2-0.7,0.3c-0.8,0.5-1.7,0.7-2.5,0.9c-0.8,0.1-1.5,0.2-2,0.1c-0.6,0-1-0.2-1.3-0.3S630,210,630,210s0.2,0,0.4,0.1
			c0.3,0.1,0.699,0.1,1.3,0.1c0.5,0,1.2-0.1,1.899-0.3c0.7-0.2,1.5-0.5,2.301-1c0.199-0.1,0.399-0.2,0.6-0.4
			c0.2-0.1,0.4-0.3,0.6-0.4c0.4-0.3,0.801-0.6,1.2-1c0.8-0.7,1.5-1.5,2.3-2.4c0.7-0.9,1.5-1.8,2.2-2.8s1.4-2,2.101-3.1
			c1.3-2.1,2.5-4.3,3.6-6.4s2.1-4,2.9-5.7C653,183.3,654,181,654,181z"/>
	</g>
</g>
</svg>
