<?xml version="1.0" encoding="utf-8"?>
<!-- Generator: Adobe Illustrator 15.0.2, SVG Export Plug-In . SVG Version: 6.00 Build 0)  -->
<!DOCTYPE svg PUBLIC "-//W3C//DTD SVG 1.1//EN" "http://www.w3.org/Graphics/SVG/1.1/DTD/svg11.dtd">
<svg version="1.1" id="layer_x5F_www.ABC-color.com"
	 xmlns="http://www.w3.org/2000/svg" xmlns:xlink="http://www.w3.org/1999/xlink" x="0px" y="0px" width="822px" height="567px"
	 viewBox="0 0 822 567" enable-background="new 0 0 822 567" xml:space="preserve">
<polyline fill="none" stroke="#000000" points="16.9,540.4 18.2,548.4 20.1,540.5 21.9,548.4 23.3,540.4 "/>
<polyline fill="none" stroke="#000000" points="24.7,540.5 26,548.3 27.8,540.4 29.3,548.3 31,540.4 "/>
<polyline fill="none" stroke="#000000" points="32.3,540.4 33.6,548.1 35.4,540.4 37,548.1 38.4,540.4 "/>
<line fill="none" stroke="#000000" x1="51.9" y1="537.1" x2="51.9" y2="548.7"/>
<line fill="none" stroke="#000000" x1="62.6" y1="544.5" x2="64.5" y2="544.5"/>
<polyline fill="none" stroke="#000000" points="77.9,537 77.9,548.8 80.7,548.8 "/>
<path fill="none" stroke="#000000" d="M69.9,547.3c-0.3,0.8-0.9,1.3-1.4,1.3c-1.1,0-1.9-1.8-1.9-4c0-2.199,0.9-4,1.9-4
	c0.7,0,1.2,0.7,1.6,1.7"/>
<path fill="none" stroke="#000000" d="M73,548.8c-0.9,0-1.7-1.899-1.7-3.8c0-2.2,0.9-4,1.9-4s1.9,1.8,1.9,4s-0.6,3.7-1.4,3.7"/>
<path fill="none" stroke="#000000" d="M60.8,547.1c-0.4,0.801-0.9,1.301-1.4,1.301c-1.1,0-1.9-1.801-1.9-4c0-2.2,0.9-4,1.9-4
	c0.7,0,1.2,0.699,1.6,1.699"/>
<path fill="none" stroke="#000000" d="M51.9,542.3c0.3-0.6,1.3-0.6,1.8-0.6c0.7,0,1.7,1,1.7,3.3c0,1.3,0,2.3-0.9,2.9
	c-0.2,0.199-0.8,0.399-1.1,0.399"/>
<path fill="none" stroke="#000000" stroke-width="1.0581" d="M45.6,541c0,0,3.6-3.2,3.3,2.4c0,0-0.1,3.5,0.1,4.399
	c0.1,0.4,0.9,0.4,0.9,0.4"/>
<path fill="none" stroke="#000000" d="M41.4,548.4c0.7,0,0.7-1.101,0-1.101C40.7,547.3,40.7,548.4,41.4,548.4L41.4,548.4z"/>
<path fill="none" stroke="#000000" d="M82.7,549c-0.8,0-1.2-2.2-1.2-4c0-2.2,0.9-4,1.9-4s1.9,1.8,1.9,4s-0.9,4-1.9,4"/>
<line fill="none" stroke="#000000" x1="87.2" y1="540.4" x2="87.2" y2="549.2"/>
<path fill="none" stroke="#000000" d="M90.6,541.6c0,0-2.2-2.3-3.4,1.4"/>
<line fill="none" stroke="#000000" x1="108.4" y1="540.8" x2="108.4" y2="549.3"/>
<path fill="none" stroke="#000000" d="M112.1,549.3v-6c0,0-1.5-3.899-3.7,0"/>
<path fill="none" stroke="#000000" d="M115.5,549.3v-6.1c0,0-1-3.601-3.5-0.2"/>
<path fill="none" stroke="#000000" d="M99.8,547.4c-0.3,0.8-0.9,1.3-1.4,1.3c-1.1,0-1.9-1.8-1.9-4s0.9-4,1.9-4
	c0.7,0,1.2,0.7,1.6,1.7"/>
<path fill="none" stroke="#000000" d="M103.4,548.6c-1.1-0.5-2.2-7.699,0.9-7.899c1.1-0.101,1.9,1.8,1.9,4s-0.9,4-1.9,4"/>
<path fill="none" stroke="#000000" d="M92.9,549.1c0.7,0,0.7-1.1,0-1.1C92.2,548,92.2,549.1,92.9,549.1L92.9,549.1z"/>
<path fill="none" stroke="#000000" d="M48.9,544.9c-0.3-0.601-0.6-1.4-1.7-1.4c-0.7,0-1.6,0.1-1.6,2.4c0,1.3,0.5,1.8,0.9,2
	c0.2,0.1,0.8,0.399,1.1,0.399"/>
<path fill="#FFFFFF" stroke="#000000" d="M760.2,567.5H75.5c13.5-3.8,42.8-11.7,83.3-20c10.2-2.1,21.1-4.2,32.6-6.3
	c54.7-10,123.9-19.5,200.1-22.7c23.9-1,48.6-1.4,73.7-1c62.5,1.1,127.899,7.1,192.7,20.9c11.899,2.5,23.8,5.3,35.6,8.399
	C716,552.7,738.2,559.5,760.2,567.5z"/>
<path fill="#FFFFFF" stroke="#000000" d="M722.4,416c-4,11.6-10.101,20.8-15.7,24.5c-0.7-16.2-2.4-30.5-5.601-41.2
	c5.801-12,13.601-19.5,19.2-17.6C727.1,384,728,399.3,722.4,416z"/>
<path fill="#FFFFFF" stroke="#000000" d="M651.9,394.8c5.5-19.399,20.899-15.2,31.8-15.2c8.2,0,13.8,7.5,17.399,19.601
	c3.2,10.7,4.9,25,5.601,41.2c0.2,5.8,0.399,11.8,0.399,18c0,27.199-4.5,74-13.3,87.899l-0.1,0.5c-11.8-3.1-23.7-5.899-35.601-8.399
	c-7.699-13.5-13.699-86.4-14.5-93.7c3.601,3.3,7.4,4.7,11.4,3c9.4-4,2.8-34.2-4.1-52.4L651.9,394.8z"/>
<path fill="#FFFFFF" stroke="#000000" d="M619.2,388.2c5-10,22.3-14.8,29.7,2.399c0.6,1.4,1.3,3,1.899,4.7
	c6.9,18.3,13.5,48.4,4.101,52.4c-4,1.7-7.801,0.399-11.4-3c-0.1-0.7-0.1-0.8,0,0c-5.6-5.2-10.6-15.2-15.1-25.7
	C620.9,401.8,614.3,397.8,619.2,388.2z"/>
<path fill="#FFFFFF" stroke="#000000" d="M556.9,134.5c-0.101,0.1-0.301,0.1-0.4,0.2c-0.3,0.1-0.6,0.2-1,0.2c-3.9,0-7.1-8-7.3-18.1
	c0-0.2,0-0.5,0-0.7c0-10.4,3.3-18.8,7.3-18.8s7.3,8.4,7.3,18.8C562.8,125.2,560.3,132.8,556.9,134.5z"/>
<path fill="#FFFFFF" stroke="#000000" d="M539.2,182.1c4.399,2.4,7.5,7.3,9.1,13.9c3.8,15.7-1.2,40.7-17.899,61.7
	c-29.4,37.1-45.801,69.2-54.9,80.1h-0.2c-2.3-38.2-5.399-65.3-9.399-84.4c2.5-7.9,6-16.3,10.5-24.6c14.1-26.3,35.399-45,51.199-48
	C532,180,535.9,180.4,539.2,182.1z"/>
<path fill="#FFFFFF" stroke="#000000" d="M544,156c-2.7,0-4.8-4.3-4.8-9.7c0-5.4,2.2-9.7,4.8-9.7s4.8,4.3,4.8,9.7
	C548.8,151.7,546.7,156,544,156z"/>
<path fill="#FFFFFF" stroke="#000000" d="M544,156c2.7,0,4.8-4.3,4.8-9.7c0-5.4-2.2-9.7-4.8-9.7s-4.8,4.3-4.8,9.7
	C539.2,151.7,541.3,156,544,156z M527.6,180.7c-3-7.1-4.8-16.6-4.8-27.1c0-7.1,0.8-13.9,2.3-19.6c1.601-6.3,4-11.5,6.801-15.1
	c2.699-3.4,5.699-5.3,9-5.3c2.5,0,4.899,1.1,7.1,3.1h0.2c0.1,10,3.3,18.1,7.3,18.1c0.3,0,0.7,0,1-0.2c0.2-0.1,0.3-0.1,0.4-0.2v0.1
	c1.399,5.7,2.199,12.1,2.199,19c0,20.2-10.3,32.1-10.899,42.4c-1.601-6.6-4.7-11.6-9.101-13.9c-3.199-1.7-7.199-2.1-11.5-1.2V180.7z
	"/>
<path fill="#FFFFFF" stroke="#000000" d="M532,118.9c-2.8,3.6-5.2,8.8-6.8,15.1c-2.7-1.1-4.8-5.4-4.8-10.7c0-6,2.699-10.9,6.1-10.9
	C528.9,112.4,531,115,532,118.9z"/>
<path fill="#FFFFFF" stroke="#000000" d="M465.9,253.5c4,19.1,7.199,46.2,9.399,84.4c0.5,8.6,1,17.8,1.4,27.6
	c2.8,65.2-12.7,120.9-11.5,151.2v0.899c-25.101-0.399-49.8,0-73.7,1c-0.1-38.699-11.8-88-10.5-153c0-0.6,0-1.1,0-1.699
	c0.5-26.9,1.6-49.101,3-67.4c6.9-87.1,23.7-87.5,45.4-87.5C445.9,208.8,457.8,215.1,465.9,253.5z"/>
<path fill="#FFFFFF" stroke="#000000" d="M318.4,181.8c19-4.8,47.399,42.7,63.6,106.101c0.7,2.8,1.4,5.6,2,8.399
	c-1.5,18.4-2.5,40.5-3,67.4c-23.2-8.2-32.6-1.8-59.4-62.2c-12.899-29.1-19.6-55.9-19-78c1.5,0.6,3,0.6,4.301,0.1
	c5.8-2.3,6.199-15.1,0.899-28.6c-0.1-0.3-0.3-0.6-0.399-1C310,187.3,313.7,183,318.4,181.8z"/>
<path fill="#FFFFFF" stroke="#000000" d="M287.8,174.5c5.6-2.2,14.2,6.4,19.601,19.4c0,0.1,0.1,0.1,0.1,0.2c0.1,0.3,0.3,0.6,0.4,1
	c5.3,13.6,4.899,26.4-0.9,28.6c-1.3,0.5-2.8,0.4-4.3-0.1c-5.3-2-11.6-9.8-15.7-20.4C281.6,189.6,282,176.7,287.8,174.5z"/>
<path fill="#FFFFFF" stroke="#000000" d="M217.3,360.3c10.7,0,19.4,15.9,19.4,35.5c0,19.601-20.8,56.7-31.5,56.7l-0.5,0.1
	c-1.5-7.699-4-14.699-7.2-20.5c-0.1-0.1-0.1-0.3-0.2-0.399l0.2-0.101c-0.5-11.699,0.4-25.899,0.4-35.699
	C197.9,376.2,206.6,360.3,217.3,360.3z"/>
<path fill="#FFFFFF" stroke="#000000" d="M172.8,413.6c9.7,0,18.4,6.9,24.5,17.9c0.1,0.1,0.1,0.3,0.2,0.4c3.2,5.8,5.7,12.8,7.2,20.5
	c1.1,5.6,1.7,11.6,1.7,17.8c0,0.5,0,1,0,1.5c-0.3,19.5-6.1,49.899-15,69.399c-11.5,2.101-22.4,4.2-32.6,6.301
	c-11.4-18.7-19.6-54.801-19.6-77.2C139.1,439,154.2,413.6,172.8,413.6z"/>
<path fill="#FFFFFF" stroke="#000000" d="M1,92.4C117.4,91.2,105.2,0.7,105.2,0.7V0.5h717.3v567h-62.3
	c-21.9-8-44.2-14.8-66.601-20.6l0.101-0.5c8.8-13.9,13.3-60.7,13.3-87.9c0-6.2-0.1-12.2-0.4-18c5.7-3.7,11.801-12.9,15.7-24.5
	c5.601-16.6,4.7-32-2.1-34.3c-5.601-1.9-13.4,5.6-19.2,17.6c-3.6-12.2-9.2-19.6-17.4-19.6c-11,0-26.399-4.3-31.8,15.2l-1.1,0.399
	c-0.601-1.7-1.3-3.2-1.9-4.7c-7.399-17.199-24.7-12.5-29.7-2.399c-4.899,9.7,1.7,13.7,9.101,30.899c4.5,10.5,9.5,20.5,15.1,25.7l0,0
	c0.8,7.3,6.8,80.2,14.5,93.7c-64.8-13.8-130.2-19.9-192.7-20.9V516.7c-1.199-30.3,14.301-86,11.5-151.2
	c-0.399-9.8-0.899-19-1.399-27.6h0.2c9.1-10.9,25.5-43,54.899-80.101c16.7-21.1,21.601-46,17.9-61.7
	c0.6-10.3,10.899-22.2,10.899-42.4c0-6.9-0.8-13.4-2.199-19v-0.1c3.3-1.7,5.899-9.3,5.899-18.4c0-10.4-3.3-18.8-7.3-18.8
	s-7.3,8.4-7.3,18.8c0,0.2,0,0.5,0,0.7H548c-2.2-2-4.6-3.1-7.1-3.1c-3.301,0-6.4,1.9-9,5.3c-0.9-3.8-3.101-6.5-5.5-6.5
	c-3.301,0-6.101,4.9-6.101,10.9c0,5.2,2,9.6,4.8,10.7c-1.5,5.8-2.3,12.5-2.3,19.6c0,10.4,1.8,19.9,4.8,27.1v0.2
	c-15.8,3-37.1,21.7-51.199,48c-4.5,8.3-8,16.6-10.5,24.6c-8.101-38.4-20-44.7-36.5-44.7c-21.801,0-38.5,0.4-45.4,87.5
	c-0.6-2.8-1.3-5.6-2-8.4C365.8,224.7,337.4,177.2,318.4,182c-4.7,1.2-8.4,5.5-11,12.2c0-0.1,0-0.1-0.101-0.2
	c-5.3-12.9-13.9-21.5-19.6-19.4c-5.8,2.2-6.2,15.1-0.9,28.6c4.1,10.5,10.4,18.4,15.7,20.4c-0.6,22.1,6,48.9,19,78
	c26.9,60.4,36.2,54,59.4,62.2c0,0.601,0,1.101,0,1.7c-1.301,65,10.399,114.3,10.5,153c-76.2,3.2-145.4,12.7-200.101,22.7
	c8.9-19.4,14.7-49.9,15-69.4c0-0.5,0-1,0-1.5c0-6.2-0.6-12.2-1.7-17.8l0.5-0.1c10.7,0,31.5-37.101,31.5-56.7
	c0-19.601-8.7-35.5-19.4-35.5c-10.7,0-19.4,15.899-19.4,35.5c0,9.8-0.9,23.899-0.4,35.7l-0.2,0.1c-6.1-11-14.9-17.9-24.5-17.9
	c-18.6,0-33.6,25.4-33.6,56.7c0,22.4,8.2,58.5,19.6,77.2c-40.5,8.3-69.7,16.2-83.3,20h-75V92.4H1z"/>
<path fill="#FFFFFF" stroke="#000000" d="M62.3,47.7c-5.8-1.8-6.8,4.3-6.8,4.3c-6-1-7.8,4.3-7.8,4.3c-0.8,2.3-20,7.3-20,7.3
	c9.5,5.3,29.5,0.5,29.5,0.5s5.8-3,9.3-6.8C70,53.6,77.8,32,78,31.3L62.3,47.7z M42.5,18.5c1.6,2.9,6.9,3.1,11.7,0.5
	c4.8-2.7,7.4-7.2,5.8-10.1s-6.9-3.1-11.7-0.5C43.5,11,40.9,15.5,42.5,18.5z M105.2,0.7c0,0,12.2,90.5-104.2,91.7H0.5V0.5h104.7V0.7z
	 M8.3,40.3c1.6,2.9,6.9,3.1,11.7,0.5c4.8-2.7,7.4-7.2,5.8-10.1c-1.6-2.9-6.8-3.1-11.7-0.5C9.3,32.8,6.7,37.3,8.3,40.3z"/>
<path fill="#FFFFFF" stroke="#000000" d="M47.8,56.2c0,0,1.8-5.3,7.8-4.3c0,0,1-6,6.8-4.3L78,31.2c-0.2,0.7-8,22.3-11.5,26
	C63,61,57.2,64,57.2,64s-20,4.8-29.5-0.5C27.8,63.4,47,58.4,47.8,56.2z"/>
<path id="layer_x5F_www.ABC-color.com_1_" fill="#FFFFFF" stroke="#000000" d="M51.3,9.7c2.1,0,3.8,1.8,3.8,3.9
	c0,2.2-1.7,3.9-3.8,3.9c-2.1,0-3.8-1.8-3.8-3.9C47.5,11.4,49.2,9.7,51.3,9.7z"/>
<path fill="#FFFFFF" stroke="#000000" d="M51.3,17.5c2.1,0,3.8-1.8,3.8-3.9c0-2.2-1.7-3.9-3.8-3.9c-2.1,0-3.8,1.8-3.8,3.9
	C47.5,15.8,49.2,17.5,51.3,17.5z M42.5,18.5c-1.6-2.9,1-7.5,5.8-10.2C53.2,5.6,58.4,5.8,60,8.8s-1,7.5-5.8,10.1
	C49.4,21.6,44.1,21.4,42.5,18.5z"/>
<path fill="#FFFFFF" stroke="#000000" d="M17,31.5c2.1,0,3.8,1.8,3.8,3.9c0,2.2-1.7,3.9-3.8,3.9s-3.8-1.8-3.8-3.9S14.9,31.5,17,31.5
	z"/>
<path fill="#FFFFFF" stroke="#000000" d="M20,40.7c-4.8,2.7-10.1,2.5-11.7-0.5c-1.6-2.9,1-7.5,5.8-10.1c4.8-2.7,10.1-2.5,11.7,0.5
	C27.4,33.5,24.8,38.1,20,40.7z M17,31.5c-2.1,0-3.8,1.8-3.8,3.9c0,2.2,1.7,3.9,3.8,3.9s3.8-1.8,3.8-3.9S19.1,31.5,17,31.5z"/>
<g>
	<polygon points="9.7,102.8 34.7,202.9 8.7,103 	"/>
</g>
<g>
	<polygon points="42.4,99.1 64.4,159.9 41.5,99.4 	"/>
</g>
<g>
	<polygon points="74.5,88.7 115.9,167.1 73.6,89.2 	"/>
</g>
<g>
	<polygon points="99.3,78.9 138.3,117.4 98.6,79.6 	"/>
</g>
<g>
	<polygon points="117.4,51.6 190.4,99.3 116.8,52.4 	"/>
</g>
<g>
	<polygon points="126.4,29.1 180.1,53.8 126,30 	"/>
</g>
<g>
	<polygon points="135.4,9.1 246.2,33.8 135.2,10 	"/>
</g>
<g>
	<path d="M24.6,61.2c0.7,0.2,1.3,0.5,1.9,0.9c0.5,0.4,1,1.1,1.2,1.7c0.2,0.7,0.2,1.4,0,2c-0.1,0.6-0.4,1.2-0.7,1.8
		c0.4-1.2,0.7-2.5,0.2-3.7c-0.2-0.5-0.6-1-1.1-1.3c-0.5-0.3-1.1-0.5-1.6-0.6L24.6,61.2z"/>
</g>
<g>
	<path d="M74.8,28.6c0.1,0.7,0.5,1.5,0.9,2.1c0.5,0.6,1.1,1.2,1.9,1.5c1.5,0.7,3.3,0.7,5,0.5c-1.6,0.4-3.4,0.6-5.1,0
		c-0.8-0.3-1.6-0.8-2.2-1.5c-0.6-0.7-1.1-1.5-1.3-2.4L74.8,28.6z"/>
</g>
<g>
	<path d="M32.5,26.6c0.7,2.6,1.5,5.2,2.3,7.8c0.8,2.6,1.8,5.1,2.8,7.6c0.5,1.2,1.1,2.5,1.8,3.6c0.3,0.6,0.7,1.1,1.1,1.6s0.9,1,1.6,1
		c0.6,0,1-0.6,1.6-1.1c0.5-0.5,1-0.9,1.5-1.3c1.1-0.9,2.1-1.7,3.3-2.4c-1.1,0.7-2.2,1.6-3.2,2.5c-0.5,0.4-1,0.9-1.5,1.4L43.1,48
		c-0.2,0.3-0.6,0.5-1,0.5c-0.8,0-1.3-0.6-1.8-1.1s-0.9-1.1-1.2-1.7c-0.7-1.2-1.3-2.4-1.9-3.6c-1.1-2.5-2.1-5-3.1-7.6
		c-0.9-2.6-1.8-5.1-2.6-7.7L32.5,26.6z"/>
</g>
<g>
	<path d="M336.8,195.2c0.8-0.5,1.4-1.2,1.8-2c0.4-0.8,0.7-1.7,1-2.7c0.301-0.9,0.5-1.9,0.9-2.8c0.4-0.9,0.9-1.8,1.5-2.5
		c-0.6,0.8-1,1.6-1.3,2.6c-0.3,0.9-0.4,1.9-0.601,2.8c-0.199,1-0.399,1.9-0.8,2.9c-0.399,0.9-1.1,1.8-1.899,2.5L336.8,195.2z"/>
</g>
<g>
	<path d="M359,260.5c0-0.8,0.2-1.7,0.6-2.5c0.301-0.8,0.801-1.5,1.2-2.2c0.9-1.3,2-2.5,3-3.8c-0.8,1.4-1.8,2.7-2.5,4.1
		c-0.8,1.4-1.3,2.9-1.2,4.4H359z"/>
</g>
<g>
	<path d="M305.9,257.2c-2.301-1.9-4.601-4-7-5.9c2.6,1.6,5,3.4,7.6,5.1L305.9,257.2z"/>
</g>
<g>
	<path d="M508.9,195.4c-0.601-0.5-1.2-1.2-1.601-1.8c-0.399-0.7-0.8-1.4-1.2-2.1c-0.699-1.4-1.199-2.9-1.8-4.3
		c0.7,1.4,1.4,2.8,2.2,4.1c0.8,1.3,1.7,2.6,2.9,3.4L508.9,195.4z"/>
</g>
<g>
	<path d="M527.4,256.9c2.1,0.1,4.3-0.7,6.3-1.7s3.899-2.2,5.899-3.3c-1.899,1.2-3.699,2.6-5.6,3.7c-1,0.6-2,1.1-3.1,1.5
		c-1.101,0.4-2.2,0.7-3.4,0.7L527.4,256.9z"/>
</g>
<g>
	<path d="M476,230.8c0-0.4,0-0.8,0-1.1c0-0.4-0.1-0.8-0.1-1.1c-0.101-0.8-0.301-1.5-0.5-2.3c-0.4-1.5-0.9-3-1.4-4.5
		c0.6,1.5,1.3,2.9,1.8,4.4c0.3,0.7,0.5,1.5,0.7,2.3c0.1,0.4,0.2,0.8,0.2,1.2c0.1,0.4,0.1,0.8,0.1,1.2L476,230.8z"/>
</g>
<g>
	<path d="M405.7,351.5c-1.2-4-2.3-8-4.4-11.7c2.4,3.5,3.8,7.5,5.3,11.3L405.7,351.5z"/>
</g>
<g>
	<path d="M395.4,238.1c0-0.1-0.101-0.4-0.2-0.6l-0.3-0.7l-0.7-1.4l-1.4-2.7l-1.5-2.7l-0.7-1.4l-0.399-0.7c0-0.1-0.101-0.1,0-0.2
		l0.1,0.2l0.2,0.3l-0.2-0.3l-0.1-0.2c0.1-0.1,0.1,0.1,0.1,0.1l0.4,0.6l0.899,1.3l1.7,2.6l1.7,2.6l0.8,1.3l0.4,0.7
		c0.1,0.3,0.3,0.4,0.3,0.9L395.4,238.1z"/>
</g>
<g>
	<path d="M455.5,356c1.1-1.7,2.3-3.2,3.4-4.8c1.1-1.601,2.1-3.3,2.5-5.2c-0.2,2-1.101,3.8-2.101,5.5s-2.1,3.4-2.899,5.1L455.5,356z"
		/>
</g>
<g>
	<path d="M457.3,323.2c0.7-0.9,1.3-1.9,1.8-2.9c0.601-1,1.101-2,1.5-3.1c0.9-2.101,1.801-4.3,2.5-6.5c-0.6,2.2-1.199,4.5-2,6.7
		c-0.399,1.1-0.8,2.199-1.3,3.199s-1.1,2.101-1.7,3.101L457.3,323.2z"/>
</g>
<g>
	<path d="M442.8,254.7c2.4-2.5,4.601-5.2,6.4-8.2c-1.601,3.1-3.5,6-5.7,8.8L442.8,254.7z"/>
</g>
<g>
	<path d="M357.4,346.9C356.6,346,356.3,345.1,355.8,344.1c-0.399-0.899-0.7-1.899-1.1-2.8c-0.4-0.899-0.7-1.899-1.2-2.8
		c-0.2-0.4-0.5-0.9-0.8-1.3c-0.3-0.4-0.601-0.8-1.101-1c0.5,0.1,0.9,0.5,1.2,0.899c0.3,0.4,0.601,0.801,0.9,1.301
		c0.5,0.899,1,1.8,1.399,2.699c0.4,0.9,0.9,1.801,1.301,2.7c0.5,0.9,0.899,1.8,1.6,2.4L357.4,346.9z"/>
</g>
<g>
	<path d="M398.5,447.5c-0.7-0.9-1.3-1.7-2-2.6c-0.7-0.801-1.4-1.7-2.2-2.5c-1.5-1.601-3-3.2-4.5-4.9c1.601,1.6,3.2,3.1,4.8,4.6
		c0.801,0.801,1.601,1.5,2.4,2.301c0.8,0.8,1.6,1.6,2.3,2.5L398.5,447.5z"/>
</g>
<g>
	<path d="M398.5,318.9c-1.8-3-3.4-6.101-5.6-8.801c2.5,2.4,4.5,5.4,6.5,8.2L398.5,318.9z"/>
</g>
<g>
	<polygon points="300.2,198.7 300.7,195.6 301.2,198.7 	"/>
</g>
<g>
	<path d="M285.3,190.5c-0.3-0.5-0.6-1-1-1.4c-0.4-0.4-0.9-0.7-1.5-0.9c-1.1-0.4-2.4-0.6-3.6-1c1.2,0.2,2.5,0.2,3.7,0.5
		c0.6,0.2,1.2,0.4,1.8,0.8c0.5,0.4,1,0.9,1.4,1.4L285.3,190.5z"/>
</g>
<g>
	<polygon points="297.8,191.4 298.3,185.3 298.8,191.4 	"/>
</g>
<g>
	<polygon points="540.3,127.1 540.8,118.1 541.3,127.1 	"/>
</g>
<g>
	<path d="M390.8,259.7c-0.899-0.7-1.7-1.6-2.399-2.4c-0.801-0.8-1.5-1.7-2.2-2.6c-0.7-0.9-1.4-1.8-2-2.7c-0.601-0.9-1.2-1.9-1.601-3
		c0.4,1,1.101,1.9,1.801,2.8c0.699,0.9,1.399,1.7,2.199,2.5c0.801,0.8,1.5,1.6,2.301,2.4c0.8,0.8,1.6,1.5,2.5,2.1L390.8,259.7z"/>
</g>
<g>
	<path d="M447,229.9c0.6-1,1.4-1.7,2.2-2.5c0.8-0.8,1.6-1.5,2.399-2.2l4.9-4.2l-4.6,4.5c-0.801,0.8-1.5,1.5-2.2,2.3
		c-0.7,0.8-1.4,1.6-1.9,2.5L447,229.9z"/>
</g>
<g>
	<polygon points="488.5,312.7 498.3,310.8 488.8,313.7 	"/>
</g>
<g>
	<polygon points="497.6,298.2 506.8,296.2 497.8,299.1 	"/>
</g>
<g>
	<polygon points="540.6,218.2 553.5,213.8 540.9,219.1 	"/>
</g>
<g>
	<polygon points="337,321 320.1,315 337.3,320 	"/>
</g>
<g>
	<polygon points="318.8,287.6 307.4,284.7 319,286.7 	"/>
</g>
<g>
	<polygon points="508.5,283 520.1,279.3 508.8,284 	"/>
</g>
<g>
	<polygon points="523.5,237.7 531.7,232 524.1,238.4 	"/>
</g>
<g>
	<polygon points="468.9,420.1 480.8,411.4 469.5,420.9 	"/>
</g>
<g>
	<polygon points="472.6,371.6 482,366.5 473.1,372.4 	"/>
</g>
<g>
	<polygon points="455.4,445.1 460.1,436.2 456.4,445.5 	"/>
</g>
<g>
	<polygon points="521.6,188.6 514.7,178.1 522.4,188.1 	"/>
</g>
<g>
	<polygon points="489.4,212.3 483.8,202.9 490.3,211.7 	"/>
</g>
<g>
	<polygon points="538.2,234.6 548.6,231.4 538.5,235.5 	"/>
</g>
<g>
	<polygon points="555,151.6 563.8,146.5 555.6,152.4 	"/>
</g>
<g>
	<polygon points="525.2,149.9 517.7,141.1 526,149.2 	"/>
</g>
<g>
	<polygon points="354.9,226.9 361.4,218.1 355.7,227.4 	"/>
</g>
<g>
	<polygon points="386.5,417.2 376.5,409.6 387.1,416.4 	"/>
</g>
<g>
	<polygon points="470.1,397.1 479.5,387.8 470.8,397.8 	"/>
</g>
<g>
	<polygon points="451.3,279.5 458.9,272 452,280.2 	"/>
</g>
<g>
	<polygon points="411.8,215.8 409.2,207.1 412.7,215.5 	"/>
</g>
<g>
	<polygon points="444.5,216.1 448,205.9 445.5,216.4 	"/>
</g>
<g>
	<polygon points="426.9,210.9 425.6,203.5 427.9,210.7 	"/>
</g>
<g>
	<polygon points="411.7,268.9 409.7,257.8 412.7,268.7 	"/>
</g>
<g>
	<polygon points="426.7,282.1 430.7,271.3 427.7,282.4 	"/>
</g>
<g>
	<polygon points="422.9,304.6 414.2,296.8 423.5,303.9 	"/>
</g>
<g>
	<polygon points="428.8,323.4 436.7,314.8 429.6,324.1 	"/>
</g>
<g>
	<polygon points="418.7,242.9 414.7,226.8 419.7,242.6 	"/>
</g>
<g>
	<polygon points="434.2,353.6 437.7,343.3 435.2,353.9 	"/>
</g>
<g>
	<polygon points="427.2,372.5 421.2,361.8 428.1,372 	"/>
</g>
<g>
	<polygon points="398.3,379.6 391.7,370.3 399.1,379 	"/>
</g>
<g>
	<polygon points="440.2,399 446.2,389.8 441.1,399.5 	"/>
</g>
<g>
	<polygon points="416.7,408.3 415.7,398.3 417.7,408.2 	"/>
</g>
<g>
	<polygon points="446.3,438.9 454.7,430.3 447,439.6 	"/>
</g>
<g>
	<polygon points="492.2,240.2 495.2,229.3 493.2,240.4 	"/>
</g>
<g>
	<polygon points="511.7,220.7 513.7,207.8 512.7,220.8 	"/>
</g>
<g>
	<polygon points="530.2,205.2 531.2,194.8 531.2,205.3 	"/>
</g>
<g>
	<polygon points="504.4,269.9 512.7,263.8 505,270.7 	"/>
</g>
<g>
	<polygon points="485.7,265.3 484.7,253.8 486.7,265.2 	"/>
</g>
<g>
	<polygon points="419.2,441 415.7,434.3 420.1,440.5 	"/>
</g>
<g>
	<polygon points="440.9,472.9 452.2,465.8 441.5,473.7 	"/>
</g>
<g>
	<polygon points="422.3,480.1 416.7,473.3 423,479.4 	"/>
</g>
<g>
	<polygon points="406.2,485.5 401.2,471.8 407.1,485.1 	"/>
</g>
<g>
	<polygon points="440.7,500 446.2,491.3 441.6,500.5 	"/>
</g>
<g>
	<polygon points="364.2,289.3 364.7,276.8 365.2,289.3 	"/>
</g>
<g>
	<polygon points="363.7,317.1 366.7,308.8 364.7,317.4 	"/>
</g>
<g>
	<polygon points="350.7,293.2 351.7,279.3 351.7,293.3 	"/>
</g>
<g>
	<polygon points="336.2,293.5 332.7,286.3 337.1,293 	"/>
</g>
<g>
	<polygon points="347.7,251.2 350.2,240.8 348.7,251.4 	"/>
</g>
<g>
	<polygon points="332.8,264.6 327.2,256.3 333.6,264 	"/>
</g>
<g>
	<polygon points="335.7,241.7 337.7,227.8 336.7,241.8 	"/>
</g>
<g>
	<polygon points="321.3,233.1 312.7,222.8 322,232.4 	"/>
</g>
<g>
	<polygon points="328.2,215.2 331.2,204.3 329.2,215.4 	"/>
</g>
<g>
	<polygon points="320.7,186.7 322.2,175.3 321.7,186.8 	"/>
</g>
<g>
	<polygon points="350.2,214.6 355.2,201.3 351.1,214.9 	"/>
</g>
<g>
	<polygon points="369.2,261.2 372.2,243.8 370.2,261.3 	"/>
</g>
<g>
	<polygon points="481.8,292 489.7,280.8 482.6,292.5 	"/>
</g>
<g>
	<polygon points="556.8,112.4 564.7,105.3 557.5,113.1 	"/>
</g>
<g>
	<polygon points="552.3,103.1 546.7,95.8 553.1,102.4 	"/>
</g>
<g>
	<polygon points="524.2,116.6 528.7,105.8 525.1,116.9 	"/>
</g>
<g>
	<polygon points="522.6,123.8 515.2,121.8 522.8,122.8 	"/>
</g>
<g>
	<polygon points="551.4,168.8 562.7,162.8 551.9,169.7 	"/>
</g>
<g>
	<polygon points="528,168.2 516.2,161.8 528.4,167.3 	"/>
</g>
<g>
	<polygon points="544.8,146 551.2,138.3 545.6,146.6 	"/>
</g>
<g>
	<polygon points="390.4,475.2 381.2,468.3 391,474.4 	"/>
</g>
<g>
	<polygon points="463.4,473.9 472.7,467.8 464,474.7 	"/>
</g>
<g>
	<polygon points="293.1,209.8 285.2,207.8 293.3,208.8 	"/>
</g>
<g>
	<polygon points="295.2,180.7 297.2,171.8 296.2,180.8 	"/>
</g>
<g>
	<polygon points="140.6,470.4 133,463.9 141.2,469.6 	"/>
</g>
<g>
	<polygon points="144.3,502.5 137.3,498.5 144.7,501.7 	"/>
</g>
<g>
	<polygon points="184.7,484.2 190.6,477.3 185.5,484.8 	"/>
</g>
<g>
	<polygon points="158.6,423.5 154.8,413 159.5,423.1 	"/>
</g>
<g>
	<polygon points="143.5,447.9 137.9,440.3 144.3,447.2 	"/>
</g>
<g>
	<polygon points="201.1,376.9 196,368.2 201.9,376.4 	"/>
</g>
<g>
	<polygon points="174.4,419.5 179.7,405.7 175.3,419.8 	"/>
</g>
<g>
	<polygon points="199.9,484.8 206.9,479.1 200.6,485.5 	"/>
</g>
<g>
	<polygon points="198.7,399.4 192.4,391.8 199.4,398.7 	"/>
</g>
<g>
	<polygon points="157.4,493.8 153.6,483.3 158.3,493.4 	"/>
</g>
<g>
	<polygon points="184.6,517.8 186.3,509.4 185.6,517.9 	"/>
</g>
<g>
	<polygon points="165.4,523 158.5,514.8 166.1,522.4 	"/>
</g>
<g>
	<polygon points="186.5,442.6 190,430 187.4,442.8 	"/>
</g>
<g>
	<polygon points="214.3,363.4 211.8,352.4 215.3,363.2 	"/>
</g>
<g>
	<polygon points="228.6,374 231.1,365.5 229.6,374.2 	"/>
</g>
<g>
	<polygon points="164.7,456.2 162.1,445.7 165.6,455.9 	"/>
</g>
<g>
	<polygon points="668.4,467.3 662.7,459.7 669.2,466.6 	"/>
</g>
<g>
	<polygon points="633.1,386.5 630.6,377.9 634.1,386.2 	"/>
</g>
<g>
	<polygon points="635.1,426.1 628.8,417.9 635.8,425.4 	"/>
</g>
<g>
	<polygon points="623.7,407.4 616.6,403.9 624.1,406.5 	"/>
</g>
<g>
	<polygon points="619.9,386.1 614.2,380.3 620.6,385.4 	"/>
</g>
<g>
	<polygon points="678,381.9 683.9,372.4 678.9,382.3 	"/>
</g>
<g>
	<polygon points="663,386.1 654.8,377.3 663.7,385.4 	"/>
</g>
<g>
	<polygon points="690.2,392.1 697.3,382.1 691,392.7 	"/>
</g>
<g>
	<polygon points="712,386 708.8,378.5 712.9,385.5 	"/>
</g>
<g>
	<polygon points="718.4,387.7 728.8,385.7 718.6,388.6 	"/>
</g>
<g>
	<polygon points="715.7,410.8 727.6,402.1 716.4,411.6 	"/>
</g>
<g>
	<polygon points="711.8,423.4 722.7,423.3 711.8,424.4 	"/>
</g>
<g>
	<polygon points="672,410.2 667.6,400.9 672.8,409.7 	"/>
</g>
<g>
	<polygon points="646,475.2 638.5,466.3 646.7,474.5 	"/>
</g>
<g>
	<polygon points="701.8,476.2 712.4,468.8 702.4,477 	"/>
</g>
<g>
	<polygon points="701.1,498.2 708.2,490 701.9,498.8 	"/>
</g>
<g>
	<polygon points="702.4,458.7 712.4,452.4 703,459.5 	"/>
</g>
<g>
	<polygon points="661.7,506.6 655.4,497.3 662.5,506 	"/>
</g>
<g>
	<polygon points="239.4,393.8 231.8,399.5 238.8,393.1 	"/>
</g>
<g>
	<polygon points="236.7,413.2 225.8,420.1 236.1,412.4 	"/>
</g>
<g>
	<polygon points="178.7,463.2 185.6,454.5 179.5,463.8 	"/>
</g>
<g>
	<polygon points="209.2,431.7 213.1,426.5 210,432.2 	"/>
</g>
<g>
	<polygon points="202.6,422 203.1,411.5 203.6,422 	"/>
</g>
<g>
	<polygon points="684.1,451.3 688.1,440 685.1,451.6 	"/>
</g>
<g>
	<polygon points="668.6,448 669.1,441 669.6,448 	"/>
</g>
<g>
	<polygon points="683.7,419.2 689.1,409.5 684.5,419.7 	"/>
</g>
<g>
	<polygon points="690.7,494.2 696.1,485 691.5,494.7 	"/>
</g>
<g>
	<polygon points="688.1,513.3 693.1,503 689.1,513.7 	"/>
</g>
<g>
	<polygon points="674.6,495.7 670.6,486 675.6,495.2 	"/>
</g>
<g>
	<polygon points="683.6,477.9 685.6,469 684.6,478 	"/>
</g>
<g>
	<polygon points="641.6,408.9 643.1,395 642.6,409 	"/>
</g>
<g>
	<polygon points="645.1,435 645.6,422 646.1,435 	"/>
</g>
<g>
	<polygon points="200.7,466.2 207.6,457.5 201.5,466.8 	"/>
</g>
<g>
	<polygon points="216,435.5 225.1,435 216.2,436.5 	"/>
</g>
<g>
	<polygon points="230.3,385.1 238.6,378 230.9,385.8 	"/>
</g>
<g>
	<polygon points="215.6,394.2 220.6,385 216.6,394.7 	"/>
</g>
<g>
	<polygon points="211.1,380.5 211.6,369.5 212.1,380.5 	"/>
</g>
<g>
	<polygon points="220.1,412.4 222.6,403 221.1,412.6 	"/>
</g>
<g>
	<path d="M48.9,57.8c1.1,0,2.4-0.3,3.5-0.6c1.2-0.4,2.3-0.9,3.3-1.6c2.1-1.3,3.8-3.2,5.2-5.3c-1.2,2.2-2.8,4.2-4.9,5.7
		c-1,0.8-2.1,1.4-3.3,1.9c-1.2,0.5-2.4,0.8-3.8,0.9V57.8z"/>
</g>
<g>
	<polygon points="285.2,178.3 282.4,171.8 286.1,177.8 	"/>
</g>
</svg>
