<?xml version="1.0" encoding="utf-8"?>
<!-- Generator: Adobe Illustrator 15.0.0, SVG Export Plug-In . SVG Version: 6.00 Build 0)  -->
<!DOCTYPE svg PUBLIC "-//W3C//DTD SVG 1.1//EN" "http://www.w3.org/Graphics/SVG/1.1/DTD/svg11.dtd">
<svg version="1.1" id="layer_x5F_www.ABC-color.com"
	 xmlns="http://www.w3.org/2000/svg" xmlns:xlink="http://www.w3.org/1999/xlink" x="0px" y="0px" width="822px" height="567px"
	 viewBox="0 0 822 567" enable-background="new 0 0 822 567" xml:space="preserve">
<path fill="#FFFFFF" stroke="#000000" d="M508.1,395.7c2.5-0.601,0.9,2,0.5,3.8h-0.1l-8.1,0.2l-0.2-0.102c0.1,0,0.1-0.1,0.2-0.1
	c1.198-0.9,2.198-1.4,2.5-2.3c3.6-1-1.602-0.2-0.7-1.4c4.7-1,2.398-2.699,2.7-3.5c2,0.602,2.6,0.2,2.698-0.699l0,0
	C510.7,394.7,508,394.3,508.1,395.7z"/>
<rect x="0.5" y="510.5" fill="#FFFFFF" stroke="#000000" width="822" height="17"/>
<path fill="#FFFFFF" stroke="#000000" d="M822.5,500.6v9.9H0.5v-19.3l1,2.6c0.9,5.602,11.5,11.102,18,10h72
	c6.5-1.1,12.2-5.398,11.3-11.1l-27.3-78.3c0.7,4.3-5.3-12.4-14-11l-61,1.698V393.4h139.3l-2.5,8.398L91.5,403.4
	c-6.5,1.1-6.9,11.398-6,17l27,71c0.9,5.6,11.5,11.1,18,10h72c6.5-1.102,12.2-5.4,11.3-11.102L183.7,414c0.2-0.7-0.9-8.6-9.8-10.5
	l2.1-10h16.6c2.1,3.7,4.2,7.4,6.4,11c-3.2,3.5-3.3,10.7-2.5,15.1l12.9,33.9c-0.2,0.5-0.2,1-0.2,1.6l2.4,4.102l11.9,31.398
	c0.9,5.602,11.5,11.102,18,10h72c6.5-1.1,12.2-5.398,11.3-11.1l-27.3-78.3c0.7,4.3-5.3-12.4-14-11l-47.9,1.398l-6.3-9.1l246.2,0.3
	l0.2,0.102c-0.8,1.5-2.5,3.8-3.2,5.1c0.3,0.1,0,1.2-0.6,2.3l-37.5,1.102c-6.5,1.1-6.9,11.398-6,17l27,71c0.898,5.6,11.5,11.1,18,10
	h72c6.5-1.102,12.198-5.4,11.3-11.102L534.6,424.9c0.9,0.1,1.4,0.5,1.7-0.2c0.102-5.602,1.3-2.2,1.7-4.3c-2.1-2.2,0.4-2.4,0.4-4.102
	c-2.5,1.8,0-3.898-0.302-6.7c-1.3,2.7-0.698-3.398-0.698-4c0-0.698,0.1-1-0.102-2.198c-0.6,1.1-0.398-2.5-0.6-3.802
	c0.1,4.302-0.5-2.698-0.7-4.3c0.1,2.9-0.8-0.3-1.2-2.398h91.3c0,1,0.102,1.898,0,2.398c-0.1,1-0.198,1.9-0.3,2.8l-77.5,2.2
	c-6.5,1.102-6.898,11.4-6,17l27,71c0.9,5.602,11.5,11.102,18,10h72c6.5-1.1,12.2-5.398,11.3-11.1l-27.198-78
	c0-0.102,0.1-0.2,0.198-0.4c0.602-1.398,1.2-3,1.7-4.8c0.9-1.9,0.9-3.7,1.3-5.5c2.302-1.3,2-2.3,2.302-3.8c0.898-0.9,1.6-1.602,2-2
	c0.5,0.6,0.898,1.199,1.398,1.8c1.9,3.1,2.4,3,3.602,4.5c4.5,2.7,2.898,3,3.6,4.2l-0.9,0.5c-2.8,3.6-2.898,10.5-2.198,14.7l27,71
	c0.898,5.6,11.5,11.1,18,10h72c6.5-1.102,12.198-5.4,11.3-11.102L757.4,410c0.698,4.3-5.302-12.4-14-11l-52.302,1.5
	c-0.1-0.4-0.198-0.8-0.3-1.1c-0.5-2-0.8-4.2-1.6-5.9c-0.102-0.1-0.2-0.2-0.4-0.5l133.602,0.2v7.898l-43,1.2
	c-6.5,1.102-6.9,11.4-6,17l27,71c0.898,5.602,11.5,11.102,18,10h4.1V500.6z M427.5,500.6c6.5-1.1,12.2-5.398,11.3-11.1l-27.3-78.3
	c0.7,4.3-5.3-12.4-14-11l-81,2.3c-6.5,1.1-6.9,11.4-6,17l27,71c0.9,5.6,11.5,11.1,18,10h72V500.6z"/>
<path fill="#FFFFFF" stroke="#000000" d="M822.5,401.4V500.6h-4c-6.5,1.102-17.1-4.398-18-10l-27-71c-0.9-5.6-0.5-15.898,6-17
	L822.5,401.4z"/>
<path fill="#FFFFFF" stroke="#000000" d="M822.5,371.5v22l-133.6-0.2c-0.602-1-1.302-3.2-2-4.6c-0.802-1.601-1.602-3.2-2.5-4.8
	c-3.302-2.301-2.102-3.801-3.2-5.5c-2.4,1.1-2.102-3.301-3.102-4.602c-0.5,1.801-1.5-0.8-2.398-2.5L822.5,371.5z"/>
<path fill="#FFFFFF" stroke="#000000" d="M453.7,303.2c-1.8,1.399-3.102,2.6-3.102,3.2c0,0.8,1.302,2.6,3.2,4.3
	c2.5,2.3,6.2,4.5,9.7,4.5c3.1,0,7-1,10.3-1.4c3.3-0.399,5.9-0.5,6.2,1.4c2.4,3.5,1.9,1.1,4.1,2.2c0.2,2.5,2.302,1.398,3.5,3.1
	c-1.198,0.1-0.6,1.1,0.4,2.6c1.1,1.7,2.5,3.301,3,5.102c-0.1,5.398,0.9,3.398,1.3,5.5c-1.7,1,0.602,1.898,0.7,3.1
	c-2.3-1.5,0.2,2.602,0.4,4c-1.9-4,0.198,0.5,0.3,2.5c-0.9-1.1,0.3,4.7,0.398,6.301c2.802,4,0.5,7.101,0.5,8.301
	c1.9-0.7,0.102,1.199,0.102,1.199c1.3-1.399-0.9,1.399-2.3,3.801c-0.602,4.1-2.9,5.5-4.9,8.398H214.6l0,0l-4.1-5.898l10-49.2
	c0,0-0.1-1.601-0.3-5.101h0.3c0,0,48,17.101,53.8-14.199c3.2-17.2,2.8-35.7,0.9-52.3c7,0.5,15.9-1.9,23.3-1.9c0.9,3.1,5.1,4,9.5,4.5
	c4.4,0.5,10,0.2,15.9-0.5c6-0.7,12.3-1.7,18.5-2.5c6.198-0.8,12.198-1.5,17.3-1.5c13,2.8,22.7,0,34.1,0c6.3,7,22.8,0,34.2,0
	c1.1,2.2,4.5,3.3,9.3,3.7s11.102,0.1,17.9-0.4c7.398-0.4,14.2-1.4,21.2-2c18.198,6.5,13.8-1.2,19.398-1.2c9.2,11.3,22.2,0,33.2,0
	c-9.5,7.9,21.8,0,32.5,0c-0.9,7.3,9.6,7.3,22.8,5.4c6.602-0.9,13.9-2.3,20.8-3.4c6.9-1.1,13.4-2,18.302-2c16.6,3.7,23.5,0,34.8,0
	c3.398,14.4,22.1,0,32.5,0c-10,9.8,9.6,5.9,21.898,4.5c12.302-1.5,26.7-4.5,35.2-4.5c21,4.2,31.9,0,44.102,0
	c-4.2,15.5,21.898,0,28.5,0c-0.302,1.1,0.6,1.5,2.1,1.5v127.5l-146.7-0.2c-0.2-0.5-0.5-0.898-0.7-1.1c-0.8-0.4-1.8-1.7-2.698-2.3
	c-1.7-0.4,0.698-1,1.5-2.9c-1.802,0.5,0.8-2.1,1.198-3.5c-1,0.2,0.802-2.899,1-4.6c-1.8-4.101,0.4-3.601,0.4-5.7
	c-1.2,0.4-1.3-0.6-1-2.1c-0.4-2.5,0.7-3.4,0.5-4.5c-2.8,0.1-0.5-2.4-0.8-3.602c-2.8-1.898-0.7-2.5-1.2-3.8c-1.9,1-1-2.7-1.6-4
	c-0.2,3.3-1.302-2.8-2.102-4.2c0.102,1.9-1.3-2.3-2.1-3.5c-2.9-1.398-1.602-2.3-2.5-3.5c-1.5,1.102-1.8-2.398-2.9-3.6
	c0.4,2.8-2.1-2.4-3.3-3.7c1.5,1.601,2-1.8,4-3.5c0.6,0.2,2.9-2.3,3.7-3.2c0.1,0,0.3,0.102,0.398,0.102c1.7,0.398,2.9-0.701,5.4,0.5
	c1.2,0,2.7-0.602,4.3-1c1.4-0.4,2.5-0.602,2.8,0c2.2-0.602,3-2.4,6-2.701c1.802-1.1,2.5-2.299,4.4-4.1c0.9-1.101,1-2.801,1.2-4.301
	s0.398-2.898,1.6-3.5c0-1.398-3.3-2.8-0.7-4.1c-0.5-1.301-3.698-0.9-2-3.7c-0.898-1.2-3.5-0.3-4.5-3.5c-1.698-1.1-2.898-1-2.8-2
	c-1.5-0.7-2.898-1.1-4.5-1.4c-1.6-0.3-3.398-0.5-5.7-0.7c-1.898,0-3.5,0.2-5.398,0.6c-1.7,0.4-3.3,0.9-4.8,1.6
	c-3,1.4-5,6.9-7.302,5.6c-1.8,2.3-0.3,4.8-2.8,7.8c0,1.399,1.2,1.899,0.602,4.601c0.398,1.5,1.3,2.399,2.1,3.199
	c0.5,0.602,1.6,1.4,2.4,2.102L657.6,304c0.4,1.2,0.102,1.2-0.5,2.4c-0.5,2-2,2.398-5.1,2.398c-0.5,0.7-1.8,0-3.2,0
	c0.8,0.602-2.898,0-4.6,0c0.398,0.301-3.602,0-5.5,0c-3.4,1.2-3.9,0-5.8,0.102c-1.4,2.299-3.802,0.1-5.602,0.199
	c1.4,1.801-3.398,0.101-4.898,0.199c-4.7,0.602-4.9,0.4-5.4,0.7c-2.3,1.5-1.1,0.2-3,0.399c-1.3,2.301-2.1,0.301-3.4,0.399l0,0
	c-0.1,0-0.1,0-0.198,0c-0.5,2.601-3.302,0.4-4.102,0.5c1.602,2.101-4,0.601-5.6,0.7c0.2,0.5-3,0.2-4.9,0.4
	c-0.5,0.1-3.8,0.398-5.7,0.5c-1.8-1.301-3.8,0.3-5.698,0.398c1-1.6-2.7,0.102-3.802,0.2c2.102-1.2-2.198,0.101-3.3,0.101
	c-2.7-0.101-4.3,0-6.1-0.101c0.6-0.101-3.4-0.3-4.5-0.601c0.898-0.101-2-0.699-2.4-1.199c-0.3,0-0.7,0-1.8-0.102
	c-2.8-0.398-2.8-0.3-4.7-0.5c-3.7-0.6-2-0.3-3-0.398c-4.2-0.2-2.1-0.301-3.2-0.5c-2.3,0.6-1-0.301-2.398-0.602
	c-0.5,1.2-3.102-0.699-4.102-1c2.302,1.801-1.3-0.699-2.398-1.199c2.398,1.699-2.4-0.899-3.2-1.399c-0.3-0.2-2.7-1.899-3.3-3.2
	c1-1.199-1.4-1.3-3.5-3.199c1.6-0.101-2.2-2.101-3.5-3.4c-0.3-0.699-2.7-2.6-4-4c-0.5-3.5-2.8-2.799-4-4.199
	c1.8-1.5-2.5-2.7-3.5-3.9c1-0.5-1.9-2.3-2.5-3.2c-0.602-0.9-0.9-1.7-0.9-2.1c1.2-2.1,0.8-4.4,2.2-5.5c0.3-1.6-1.1-2.7-0.4-4.1
	c-0.5-1.1-2.8-1-3-2.7c-1.3-0.7-2.898-0.1-3.6-2c-1.6-0.5-3.1,0.4-5.2-0.3c-1.898,0-3.8-0.1-5.5-1.1c-1.898,0-3.7,0.7-6,0.6
	c-1.898,0.3-3.7,0.3-4.6-0.4c-3,0.2-4.7,1.6-6.2,0.2c-1.1-0.2-2.8,1.1-5.4,2.6c-1.198,0.9-2.3,3.4-3.698,3.1c-1.2,1.2-2,4.6-3.7,3.8
	c-1.2,1.3-2.5,5.2-3.3,4.2c-1,1.4-0.802,3.8-2.4,4.2c-0.6,1.3,0.4,2-1.1,3.799c-0.102,1.201,1.1,0.9,0.6,3.101
	c0.5,0.8,1.7,0.399,3.2,0.899c0.398,1.101,1.7,5.201-2,7.301C464.1,296.2,457.6,300.2,453.7,303.2z"/>
<path fill="#FFFFFF" stroke="#000000" d="M524,197.8c2.6-0.2,5.1-0.3,7.6-0.3c7.7,0.6,12.9,0.8,16.802,0.8
	c8.5,0,10.898-0.8,18.898-0.8c-2.398,2.9,23.3,0,34.7,0c-13.7,2.7,5.8,3.7,10.6,4.2c4.9,0.5,10.802,0.2,17.2-0.5
	c12.7-1.3,27.102-3.7,37.4-3.7c26.7,1.8,40.1,0,58,0c-7.3,2.1,1.3,2.1,13.5,1.6s28-1.6,35.2-1.6c20.898,9.4,36.8,1.3,48.6,0.1V244
	c-1.4,0-2.4-0.4-2.1-1.5c-6.602,0-32.602,15.5-28.5,0c-12.302,0-23.102,4.2-44.102,0c-8.5,0-23,3-35.2,4.5
	c-12.198,1.5-31.8,5.3-21.898-4.5c-10.4,0-29.102,14.4-32.5,0c-11.2,0-18.2,3.7-34.8,0c-5,0-11.4,0.9-18.302,2
	c-6.898,1.1-14.198,2.5-20.8,3.4c-13.2,1.8-23.8,1.8-22.8-5.4c-10.7,0-42,7.9-32.5,0c-11,0-24,11.3-33.2,0
	c-5.6,0-1.2,7.7-19.398,1.2c-7.102,0.7-13.802,1.6-21.2,2c-6.8,0.5-13,0.8-17.9,0.4c-4.8-0.4-8.2-1.5-9.3-3.7c-11.4,0-27.9,7-34.2,0
	c-11.398,0-21.1,2.8-34.1,0c-5.2,0-11.102,0.7-17.3,1.5c-6.2,0.8-12.602,1.8-18.5,2.5c-6,0.7-11.5,1-15.9,0.5
	c-4.5-0.5-8.6-1.4-9.5-4.5c-7.4,0-16.4,2.4-23.3,1.9c-2.2-19.4-6.4-36.3-9.1-45.9l0,0c7.4,0.3,3.7-1,7.5-1c20.7,4.3,20.8,0,31.4,0
	c-7.4,4.9,21.2,0,32,0c13.5,3.4,24.3,3.4,34.5,2.5s19.7-2.5,30.6-2.5c14.2,0.7,21.802,0,32.7,0c10.7,6.2,21.8,0,32.602,0
	c-11.302,4.8,7.198,4.2,21.198,3.2c4-0.3,7.5-0.5,10-0.7c5.602-0.4,11.2-1,16.802-1.6C518.3,198.2,521.2,197.9,524,197.8z"/>
<path fill="#FFFFFF" stroke="#000000" d="M822.5,0.5v197.1c-11.8,1.1-27.7,9.3-48.6-0.1c-7.2,0-23,1-35.2,1.6
	c-12.2,0.5-20.7,0.5-13.5-1.6c-17.9,0-31.2,1.8-58,0c-10.3,0-24.7,2.5-37.4,3.7c-6.398,0.6-12.3,0.9-17.2,0.5
	c-4.898-0.5-24.3-1.5-10.6-4.2c-11.4,0-37.1,2.9-34.7,0c-8.1,0-10.398,0.8-18.898,0.8v-0.8c13.8-4.6,33.398-27.6,36.5-31.5
	c27.6-7.7,51.698-36.3,55.5-32.5c5,5,36-19,40-34s-27-33-27-33c6-1,7-25,4-38s-58-1-58-1c-60-47-130-2-138,10s-22-11-40-18
	s-36,6-45,21s12,44,12,44s-44,13-41,35s40,19,49,39c7.1,15.7,36.3,22.2,67,16.5l0,0c0,0,29,12.5,25,25.5v0.2
	c-14,0.9-32.5,1.5-21.2-3.2c-10.8,0-21.9,6.2-32.602,0c-10.898,0-18.6,0.7-32.698,0c-10.9,0-20.4,1.7-30.602,2.5s-21,0.8-34.5-2.5
	c-10.7,0-39.4,4.9-32,0c-10.6,0-10.7,4.3-31.4,0c-3.9,0-0.2,1.3-7.5,1l0,0c-0.4-1.3-0.7-2.4-1-3.4c-0.9-3.2-1.5-4.9-1.5-4.9
	s-1-3.4-3.3-7.6c-5.9-10.7-20-26.4-46-1.7l-2.6,0.6c-2.6-0.1-5.6-0.2-9.1-0.4v-0.3c0,0-1.4-2.6-0.9-7.8l0,0
	c7.9,4.1,15.5-5.5,15.5-5.5c8.9-5.7,10.8-12.7,10.8-12.7c5.8-7,2.4-16.2,2.4-16.2c3.7-8.9-9.5-18.7-9.5-18.7
	c1.4-14.1-3.6-36.3-13.5-32.2c-2.9,1.3-9.6-5.7-15.4-5.7c-5.8,0-20.2,28.5-20.2,28.5c-18.3-2.9-20.2,5.7-20.2,5.7
	c1.8,5.9,9.4,8.9,18.3,10.3c-1.9,2.6-7.7,9.6-13.6,8c0,0-2.2,9.8,6.1,12.3l-1.7,8.5l11.5-0.6l-10.5,6.3c0,0,1.5,6.9,11.9,9.9
	c8.9,2.6,7.5,7.9,6.6,8.7v0.4c-3.2-0.1-6.7-0.3-10.3-0.4c-0.7-0.1-1.3,0.3-1.7,0.9h-1.1c-0.8-0.4-2.5-1-3.8,0.4l-1.6,0.1
	c-0.9,0-2.1,0.3-3,1.5l-0.7,0.1c0,0-2.5,0-4.1,1.7c-1.6,6.9-0.9,7.7,0.9,13.6c-2.8,0-6.7,0-13.3-0.4c-7.9,0-15.6,0-23,0
	c-15.9,0-51-6.4-44.1,0c-13.4,0-24.2-8.5-36.1,0c-10.6,0-15.2-1.6-26.8,0c-1.7,0-2.5-0.6-4.7,0c-1.5,0-5.7-1.1-4.1,0
	c-0.5,0-1.2-0.3-1.9-0.4V0.5H822.5z"/>
<path fill="#FFFFFF" stroke="#000000" d="M784.8,488.6c0.9,5.602-4.8,10-11.3,11.102h-72c-6.5,1.1-17.1-4.4-18-10l-27-71
	c-0.7-4.2-0.7-11.102,2.2-14.7l0.898-0.5c0,0.1,0.102,0.2,0.2,0.3c3.3-1,2,2.8,3.102,4.102c0.198-4.802,0.198-0.102,1.1,1.1
	c-0.7-5.3,2.1,2.8,2.7,3.5c-0.7-2.2,2.398,2.8,3.5,4c4.1,1.8,4,4.5,5.5,5.8c1-1.8,1.898,0.5,2.5,1.602c-0.4,0.8-0.5,5.6-0.5,5.6
	c0-0.1-1.8,0.5-3.7,1.7c-1.8,1.3-3.7,3.3-3.7,6.5c0,6.3,18.4,1.6,18.4,1.6l4-7.3l0.2-0.8c2.8,0.6,5-0.102,5.898-3.602
	c0.3-1.398,0.3-3.3-0.1-5.698c-1.2-2-0.4-2.5-0.7-3.802c-2.8-2-0.7-2.8-1.1-4.3c-3,0.102-1-3.1-1.5-4.7
	c-1.802,1.602-1.102-3.3-1.802-5c-1.198-0.1-1.898-1.6-2.3-3.198l52.3-1.5c8.7-1.4,14.7,15.3,14,11L784.8,488.6z"/>
<path fill="#FFFFFF" stroke="#000000" d="M472,400.6c0.5-1.198,0.9-2.198,0.6-2.3c0.602-1.3,2.302-3.7,3.2-5.1
	c0.5-0.9,0.602-1.4,0.102-1.2c1.198-2.2,2.3-2.5,3.6-6.6c1.2-2.2,2.5-4.4,3.7-6.602c1.2-2.1,7-5.8,3.5-6.1c0.3-0.5,0.5-0.9,0.8-1.2
	c2.1-2.899,4.4-4.3,4.9-8.399c1.398-2.399,3.698-5.199,2.3-3.801c0,0,1.8-1.898-0.102-1.199c-0.1-1.199,2.302-4.301-0.5-8.301
	c-0.1-1.6-1.398-7.5-0.398-6.3c-0.2-2-2.2-6.5-0.3-2.5c-0.2-1.3-2.602-5.399-0.4-4c-0.1-1.2-2.4-2.101-0.7-3.101
	c-0.398-2.101-1.398,0-1.3-5.5c-0.5-1.801-2-3.301-3-5.101c-1-1.399-1.6-2.399-0.4-2.601c-1.198-1.699-3.3-0.6-3.5-3.1
	c-2.1-1.101-1.6,1.399-4.1-2.199c-0.3-1.9-2.9-1.9-6.2-1.4s-7.3,1.4-10.3,1.4c-3.5,0-7.2-2.301-9.7-4.5l0.2-0.201
	c0,0,3.4-2.199,3.4-4.101c0-1.8-3.4-3-3.7-3.198c4-3.102,10.398-7,10.398-7c3.7-2.201,2.4-6.302,2-7.302
	c0.4,0.2,0.9,0.4,1.302,0.802c1.1,0.1,2.398-1.302,4.6-0.701c1.6-0.299,3.2-0.601,3.9,0c1.698-0.299,3.198-0.799,4.898-1.199
	c1.7-0.5,3.5-0.9,5.7-1c0.9-0.2,2.2-0.4,3-1c1.1-0.4,2.6-0.2,3.2-1.2c0.2-0.101,0.5-0.101,0.7-0.2c-0.2,0.801-0.602,1.9-0.7,3.1
	c1.3,1.802,0.2,2.302,0.2,4.102c1.698,1.7-0.2,3.898-0.102,5.898c0.7,0.5,0.8,2,0.7,3.802c-0.1,1.8-0.3,3.899-0.1,5.5
	c0.898,3.5,0.8,6.3,1.5,9.198c1.698,1.302,1.6,5.602,2.8,7.701c1.2,1.601,2.6,3.799,4.3,4.799c3.9,2.102,6.7,2.9,8.9,2.701
	c2.198-0.301,3.698-1.301,4.8-2.899c0.7-2.601,2-3.802,2.8-6.2c-1.5-1.898,0.6-4,0.3-7.2c-0.8-0.6-1-2.399-1.1-4.5
	c-0.102-2.1,0-4.6-0.4-6.5c-1.2-2.8-0.8-4-1.2-6c-1.898-1.399-0.898-3.899-1.398-5.8c-1.102,0.5-1-3.602-1.5-5.2
	c-0.5-0.899-1-3-1.602-4.2c-0.6-1.3-1.1-2.4-1.698-3c2.6-1,3.8-2.1,4.3-1.4c0,0.5,0.3,1.2,0.898,2.1c0.602,0.9,3.5,2.8,2.5,3.2
	c1,1.2,5.302,2.398,3.5,3.898c1.302,1.4,3.602,0.701,4,4.201c1.4,1.399,3.7,3.299,4,4c1.302,1.299,5.2,3.299,3.5,3.399
	c2.102,2,4.5,2,3.5,3.2c0.602,1.3,3,3,3.302,3.199c0.8,0.5,5.6,3.101,3.198,1.399c1.2,0.4,4.802,2.9,2.4,1.2c1,0.3,3.6,2.2,4.1,1
	c1.4,0.3,0.102,1.2,2.4,0.602c1.1,0.198-1,0.398,3.2,0.5c1,0.198-0.7-0.201,3,0.398c1.898,0.2,1.898,0.102,4.7,0.5
	c1.198,0.102,1.6,0.102,1.8,0.102c0.398,0.5,3.3,1.1,2.398,1.198c1.2,0.302,5.102,0.4,4.5,0.601c1.802,0.101,3.4,0,6.102,0.101
	c1.1,0,5.398-1.3,3.3-0.101c1.1,0,4.8-1.799,3.8-0.199c1.9-0.1,3.9-1.7,5.7-0.4c1.9-0.199,5.2-0.398,5.7-0.5
	c1.898-0.199,5.1,0.102,4.898-0.398c1.602-0.102,7.2,1.398,5.602-0.7c0.8-0.101,3.6,2.1,4.1-0.5c0.102,0,0.2,0,0.2,0
	c0.2,2.3,1,0.2,0,0l0,0c1.3-0.2,2.1,1.8,3.4-0.4c1.898-0.3,0.698,1.101,3-0.399c0.5-0.299,0.698-0.199,5.398-0.699
	c1.4-0.1,6.2,1.5,4.9-0.2c1.8-0.101,4.2,2.2,5.6-0.2c1.9,0,2.4,1.1,5.8-0.1c1.9,0,5.9,0.3,5.5,0c1.7,0,5.4,0.6,4.602,0
	c1.3,0,2.7,0.699,3.2,0c3.1,0,4.6-0.301,5.1-2.4c0.6-1.199,0.8-1.199,0.5-2.398l0.3-0.602c0.7,0.5,1.102,1,0.7,1.102
	c1.2,0.998,5,2.998,4.1,2.398c1.4,0.6,2.7,1,4.4,1.5c-0.8,0.9-3.1,3.4-3.7,3.2c-2,1.7-2.5,5.101-4,3.5c1.2,1.2,3.7,6.5,3.3,3.7
	c1,1.199,1.302,4.8,2.9,3.6c0.9,1.2-0.5,2.102,2.5,3.5c0.8,1.2,2.2,5.301,2.1,3.5c0.802,1.4,2,7.4,2.102,4.2c0.6,1.399-0.3,5,1.6,4
	c0.5,1.3-1.6,1.899,1.2,3.8c0.3,1.301-2,3.801,0.8,3.602c0.2,1.199-0.898,2-0.5,4.5c-0.2,1.5-0.2,2.5,1,2.1
	c0,2.102-2.2,1.602-0.398,5.7c-0.302,1.7-2,4.899-1,4.601c-0.4,1.399-3,3.899-1.2,3.5c-0.8,1.899-3.102,2.5-1.5,2.899
	c0.898,0.5,1.898,1.8,2.7,2.3c0.198,0.2,0.398,0.602,0.698,1.102c0.9,1.699,1.9,4.3,2.4,2.5c1,1.398,0.7,5.8,3.1,4.6
	c1,1.7-0.198,3.1,3.2,5.5c0.8,1.5,1.7,3.1,2.5,4.8c0.7,1.3,1.4,3.601,2,4.601c0.102,0.199,0.3,0.399,0.4,0.5
	c0.8,1.699,1.1,3.899,1.6,5.899c0.102,0.4,0.2,0.8,0.3,1.102c0.5,1.6,1.102,3.1,2.302,3.198c0.6,1.7,0,6.5,1.8,5
	c0.5,1.602-1.5,4.9,1.5,4.7c0.398,1.5-1.7,2.3,1.1,4.3c0.3,1.4-0.5,1.802,0.7,3.802c0.3,2.398,0.4,4.3,0.1,5.698
	c-0.8,3.5-3.1,4.2-5.898,3.602c-2.5-0.602-5.4-2.2-8-3.7c-2.7-1.6-6.302-5.9-6.302-3.1c-0.198-0.602-0.3-0.7-0.398-0.5
	c-0.602-1.102-1.5-3.4-2.5-1.602c-1.5-1.398-1.4-4-5.5-5.8c-1.102-1.2-4.102-6.2-3.5-4c-0.602-0.7-3.5-8.8-2.7-3.5
	c-0.899-1.2-0.899-5.9-1.1-1.1c-1.102-1.302,0.198-5.102-3.102-4.102c-0.1-0.1-0.1-0.2-0.2-0.3c-0.698-1.2,0.9-1.4-3.6-4.2
	c-1.2-1.5-1.7-1.5-3.6-4.5c-0.5-0.6-0.9-1.199-1.4-1.8c-0.7-0.899-1.4-1.8-2.2-2.899c-0.6-0.801-2-2.301-3-3.5
	c-1-1.101-1.6-1.899-0.5-1.199c-1.2-1.602-3.5-3-3.398-4.602c-1.102-1.5-2.2-3-3.302-4.5c-1.1-1.5-3.1-7.8-3.1-4.398
	c-1-1.4-1-6.102-2.8-4.102c-0.9-1.3,1.1-2.699-2.5-3.8c-0.8-1.2,1.2-0.8-2.1-3.399c-0.602-1-1.7-2.301-1.7-2.899
	c-0.8-1.4-2.5-2.7-3.7-3.8c-1.3-1.102-2.6-1.7-1.3-2.4c-1.8-1.3-6.102,1.9-5.4-2.3c-1.8-0.2-4.2,4.3-5.2,0.399
	c-1.398,0.399-1.2,3-3.1,2.601c-0.4-0.101-0.9-0.3-1.5-0.7c-1.8,1-4,2.7-4.6,3.2l0,0c-1.102,0.6-4,1.8-4.2,1.899l0,0
	c-1.602,0.699-4.602,2.199-1.3,1.5c-0.7,0.399-2.9,0.899-3.102,1c0,0,0.2,0,0.7-0.101c-0.8,0.3-2.8,0.7-3.3,2.2
	c-1,0.5-0.3-0.9-2.8,1.398c-0.9,0.4-5.602,0.602-2.802,1.301c-1.398,0.601-7.398,0.601-4.198,1.699c-1.4,0.5-3.802-1-4.102,1.5
	c-1.3,0.5-0.398-1.898-4,1.301c-1.3,0.399-0.7-0.601-3.898,1.101c-2.602,0.7-8.802-1.601-7.5,1.7c-0.102,0-0.102,0-0.2,0
	c-2.4,0.3-4.4-2.5-7,1c-2.9,0.3-5.602,0.5-8.3,0.6c-2.602,0.102-9.5-2.3-7.5,0c-2.4-0.1-4.2-0.8-6-1.199
	c-0.302-0.101-0.602-0.199-1-0.199C529,371,526.6,370.8,525.6,371.6c-1.698-0.3-7.398-2.398-4.698-0.8c-1.4-0.3-4.302-2.2-3.602-0.7
	c-2-0.398-1.5-1.6-3.7-0.3c-0.398,0.3,0.802,0.2-2,4.2c-0.398,1.2-4,6.4-1.5,4.1c-0.6,1.5-3.3,3.7-1.8,5c-0.5,1.4,0.9,7.5-1.7,4.102
	c-0.3,0.898,0.9,3.199,0.802,4.5c-0.102,0.8-0.7,1.3-2.7,0.699c-0.3,0.801,2,2.5-2.7,3.5c-0.9,1.199,4.3,0.399,0.7,1.399
	c-0.4,0.8-1.4,1.4-2.5,2.3c0,0.102-0.102,0.102-0.2,0.102c-0.7,0.7-1,1.5,0.5,2.5c-0.8,1.6-1.5,3-2.3,4.5s-4.8,4.3-2.4,4.7
	c-0.8,1.398-6.3,2.398-2.6,4c-0.9,1.198-4.7-0.5-2.7,3.398c-0.9,1-2.6-1.8-2.8,2.602c-1,0.698-1.602-0.9-2.9,1.8
	c-4.898,2.1-7.898,2.3-9.898,1.398c-0.302-0.1-0.5-0.198-0.7-0.398c-1.5-1-2.4-2.7-3.2-4.5c-0.6-1.3-0.5-3.8-1.1-5.102
	c-0.4-0.8-1-1-2.2-0.3c-0.8-0.6,3.5-5.1,0.3-5.398c0.5-1.4,1.2-2.7,2-4.4C470.5,403.6,471.4,401.9,472,400.6z M482.5,299
	c0,0,1.8-9.1-8.6-4.7l-0.4,4.7H482.5z"/>
<path fill="#FFFFFF" stroke="#000000" d="M692.9,431.2l-0.2,0.8l-4,7.3c0,0-18.4,4.8-18.4-1.6c0-3.2,1.8-5.2,3.7-6.5
	c1.8-1.3,3.7-1.8,3.7-1.7c0,0,0.1-4.8,0.5-5.6c0.2,0.3,0.3,0.5,0.398,0.5l0,0c0-2.802,3.602,1.5,6.302,3.1
	C687.5,429,690.4,430.6,692.9,431.2z"/>
<path fill="#FFFFFF" stroke="#000000" d="M667.2,307.9c-1.7-0.4-3-0.9-4.4-1.5c0.9,0.6-2.898-1.5-4.1-2.4c0.398-0.2,0-0.6-0.7-1.1
	c-0.8-0.602-2-1.4-2.4-2.102c-0.898-0.8-1.698-1.699-2.1-3.199c0.6-2.699-0.6-3.199-0.6-4.601c2.5-3,1-5.5,2.8-7.8
	c2.3,1.398,4.3-4.2,7.3-5.6c1.5-0.7,3.1-1.2,4.8-1.6c1.9-0.3,3.5-0.6,5.4-0.6c2.3,0.2,4.1,0.4,5.7,0.7c1.6,0.3,3,0.7,4.5,1.4
	c-0.102,1,1.1,1,2.8,2c1,3.3,3.6,2.4,4.5,3.5c-1.7,2.8,1.6,2.399,2,3.7c-2.602,1.3,0.7,2.699,0.7,4.1c-1.102,0.602-1.4,2-1.602,3.5
	s-0.3,3.2-1.2,4.301c-2,1.699-2.698,2.899-4.398,4.101c-2.9,0.3-3.8,2-6,2.7c-0.2-0.7-1.4-0.4-2.8,0c-1.602,0.3-3.102,1-4.302,1
	c-2.5-1.301-3.698-0.2-5.398-0.5C667.5,308,667.4,308,667.2,307.9z"/>
<path fill="#FFFFFF" stroke="#000000" d="M633.5,63.5L633.5,63.5c11-15.9,2.4-27.4,2.4-27.4c-2.602-3.5-4.602,0.1-4.602,0.1
	S622.6,47.6,633.5,63.5z M634.5,124.5L634.5,124.5c11-15.9,2.4-27.4,2.4-27.4c-2.602-3.5-4.602,0.1-4.602,0.1
	S623.6,108.6,634.5,124.5z M551.1,96.7L551.1,96.7C569.4,90.2,569,75.8,569,75.8c0-4.4-3.8-2.6-3.8-2.6S551.5,77.4,551.1,96.7z
	 M564.5,163.5L564.5,163.5c11-15.9,2.4-27.4,2.4-27.4c-2.602-3.5-4.602,0.1-4.602,0.1S553.6,147.6,564.5,163.5z M578.5,101.5
	L578.5,101.5c11-15.9,2.4-27.4,2.4-27.4c-2.602-3.5-4.602,0.1-4.602,0.1S567.6,85.6,578.5,101.5z M578.8,49.5L578.8,49.5
	c1.5-19.3-11.8-24.8-11.8-24.8c-4-1.7-4,2.4-4,2.4S561.3,41.3,578.8,49.5z M592.8,147.5L592.8,147.5c1.5-19.3-11.8-24.8-11.8-24.8
	c-4-1.7-4,2.4-4,2.4S575.3,139.3,592.8,147.5z M604.1,63.7L604.1,63.7C622.4,57.2,622,42.8,622,42.8c0-4.4-3.8-2.6-3.8-2.6
	S604.5,44.4,604.1,63.7z M605.1,123.7L605.1,123.7c18.302-6.5,17.9-20.9,17.9-20.9c0-4.4-3.8-2.6-3.8-2.6S605.5,104.4,605.1,123.7z
	 M605.8,98.5L605.8,98.5c1.5-19.3-11.8-24.8-11.8-24.8c-4-1.7-4,2.4-4,2.4S588.3,90.3,605.8,98.5z M544.3,159
	c-19.398-10.9-12.5-18.7-26.8-14.5c-7,2-9.4,4.7-11.3,7.8c-2.8,4.4-4.602,9.7-17.7,15.2c-1.7,0.7-3.4,1.4-5.2,2
	c-6.5,2.4-13.2,4.2-19.8,5.4c-30.7,5.7-59.9-0.8-67-16.5c-9-20-46-17-49-39s41-35,41-35s-21-29-12-44s27-28,45-21s32,30,40,18
	s78-57,138-10c0,0,55-12,58,1s2,37-4,38c0,0,31,18,27,33s-35,39-40,34c-3.8-3.8-27.9,24.8-55.5,32.5c-4,1.1-8.1,1.8-12.2,1.9
	c-4.8,0.1-9.6-0.6-14.398-2.4c-1.602-0.6-3.2-1.2-4.602-1.9C550.1,162.1,547,160.5,544.3,159z M518.8,66.5L518.8,66.5
	c1.5-19.3-11.8-24.8-11.8-24.8c-4-1.7-4,2.4-4,2.4S501.3,58.3,518.8,66.5z M521.1,50.7L521.1,50.7C539.4,44.2,539,29.8,539,29.8
	c0-4.4-3.8-2.6-3.8-2.6S521.5,31.4,521.1,50.7z M518.5,109.5L518.5,109.5c11-15.9,2.4-27.4,2.4-27.4c-2.602-3.5-4.602,0.1-4.602,0.1
	S507.6,93.6,518.5,109.5z M533.1,144.7L533.1,144.7c18.302-6.5,17.9-20.9,17.9-20.9c0-4.4-3.8-2.6-3.8-2.6S533.5,125.4,533.1,144.7z
	 M546.8,109.5L546.8,109.5c1.5-19.3-11.8-24.8-11.8-24.8c-4-1.7-4,2.4-4,2.4S529.3,101.3,546.8,109.5z M549.5,48.5L549.5,48.5
	c11-15.9,2.4-27.4,2.4-27.4c-2.602-3.5-4.602,0.1-4.602,0.1S538.6,32.6,549.5,48.5z M485.8,161.5L485.8,161.5
	c1.5-19.3-11.8-24.8-11.8-24.8c-4-1.7-4,2.4-4,2.4S468.3,153.3,485.8,161.5z M487.1,106.7L487.1,106.7
	C505.4,100.2,505,85.8,505,85.8c0-4.4-3.8-2.6-3.8-2.6S487.5,87.4,487.1,106.7z M490.5,60.5L490.5,60.5c11-15.9,2.4-27.4,2.4-27.4
	c-2.602-3.5-4.602,0.1-4.602,0.1S479.6,44.6,490.5,60.5z M409.1,109.7L409.1,109.7C427.4,103.2,427,88.8,427,88.8
	c0-4.4-3.8-2.6-3.8-2.6S409.5,90.4,409.1,109.7z M414.1,165.7L414.1,165.7c18.302-6.5,17.9-20.9,17.9-20.9c0-4.4-3.8-2.6-3.8-2.6
	S414.5,146.4,414.1,165.7z M435.8,58.5L435.8,58.5c1.5-19.3-11.8-24.8-11.8-24.8c-4-1.7-4,2.4-4,2.4S418.3,50.3,435.8,58.5z
	 M439.5,113.5L439.5,113.5c11-15.9,2.4-27.4,2.4-27.4c-2.602-3.5-4.602,0.1-4.602,0.1S428.6,97.6,439.5,113.5z M452.5,168.5
	L452.5,168.5c11-15.9,2.4-27.4,2.4-27.4c-2.602-3.5-4.602,0.1-4.602,0.1S441.6,152.6,452.5,168.5z M458.1,65.7L458.1,65.7
	C476.4,59.2,476,44.8,476,44.8c0-4.4-3.8-2.6-3.8-2.6S458.5,46.4,458.1,65.7z M467.8,110.5L467.8,110.5
	c1.5-19.3-11.8-24.8-11.8-24.8c-4-1.7-4,2.4-4,2.4S450.3,102.3,467.8,110.5z M375.5,132.5L375.5,132.5c11-15.9,2.4-27.4,2.4-27.4
	c-2.602-3.5-4.602,0.1-4.602,0.1S364.6,116.6,375.5,132.5z M406.5,58.5L406.5,58.5c11-15.9,2.4-27.4,2.4-27.4
	c-2.602-3.5-4.602,0.1-4.602,0.1S395.6,42.6,406.5,58.5z M400.8,126.5L400.8,126.5c1.5-19.3-11.8-24.8-11.8-24.8
	c-4-1.7-3.9,2.4-3.9,2.4S383.3,118.3,400.8,126.5z"/>
<path fill="#FFFFFF" stroke="#000000" d="M670.8,487.6c0.9,5.602-4.8,10-11.3,11.102h-72c-6.5,1.1-17.1-4.4-18-10l-27-71
	c-0.9-5.602-0.5-15.9,6-17l77.5-2.2c-0.1,1.2-0.3,2.4-0.4,3.7c0.5-1.5-0.6,8-0.398,9c0,0,2,0.8,4.6,1.5l0,0c0,0-13.2,3.5-13.5,11.1
	c-0.2,4.102,15.602,0,17.5-0.6c1.8-0.602,4.9-8.9,4.9-8.9l-0.102-0.6c1.302-0.2,2.302-0.602,3.2-1.3c0.7-0.602,1.3-1.5,1.8-2.7
	L670.8,487.6z"/>
<path fill="#FFFFFF" stroke="#000000" d="M643.6,409.6c-0.6,1.2-1.198,2.2-1.8,2.7c-0.8,0.7-1.898,1.102-3.2,1.3
	c-2.698,0.4-6.1-0.3-8.8-1c-2.6-0.698-4.6-1.5-4.6-1.5c-0.2-0.898,1-10.5,0.398-9c0.102-1.198,0.2-2.398,0.4-3.698
	c0.1-0.9,0.2-1.802,0.3-2.802c0.102-0.5,0-1.398,0-2.398c-0.2-3.102-0.6-7.102,0.7-4.9c0.2-2-1.8-4.5,0.5-5.1
	c0.1-1.301-2.2,0.1,0.2-2c-1.102-0.2-2.8,1.699-3.9-2.602c-0.7-0.699-3.898-8-2.2-2.5c-0.698-0.898-1.8-6.699-2.3-3.1
	c-0.398-0.6-0.2-1.7-0.5-2.5c-0.2-0.6-0.6-1-1.8-0.9c-0.8-1.199,2.2-0.3-2.2-3.6c-1.1-1.8-3-8.3-2.5-5.7c-0.8-1.8-1-3.7-3-4.1
	c-1.3-2.5,0.3-1.601-1.7-3.8c1.9,0.5,1.7-2.2,3.102-2.602c1.1,3.9,3.398-0.699,5.2-0.398c-0.7,4.1,3.698,0.898,5.398,2.3
	c-1.3,0.8,0,1.3,1.3,2.399c1.302,1.101,3,2.301,3.7,3.801c-0.1,0.6,1,1.898,1.7,2.898c3.3,2.602,1.3,2.2,2.1,3.4
	c3.602,1,1.602,2.5,2.5,3.8c1.802-2,1.802,2.7,2.802,4.101c0-3.399,2,2.899,3.1,4.399s2.2,3,3.3,4.5c-0.1,1.7,2.3,3.101,3.4,4.601
	c-1.102-0.699-0.5,0.101,0.5,1.199c1,1.2,2.398,2.7,3,3.5c0.8,1.102,1.5,2,2.2,2.9c-0.4,0.398-1.102,1.1-2,2
	c-0.302,1.6,0.1,2.6-2.302,3.8c-0.398,1.8-0.398,3.6-1.3,5.5c-0.5,1.8-1.1,3.5-1.7,4.8C643.7,409.3,643.6,409.5,643.6,409.6z"/>
<path fill="#FFFFFF" stroke="#000000" d="M638.6,413.6l0.102,0.602c0,0-3.102,8.3-4.9,8.898c-1.8,0.602-17.6,4.7-17.5,0.602
	c0.3-7.602,13.5-11.102,13.5-11.102l0,0C632.5,413.3,635.9,414,638.6,413.6z"/>
<path fill="#FFFFFF" stroke="#000000" d="M636.9,97.1c0,0,8.698,11.4-2.302,27.4l0,0c-11-15.9-2.3-27.3-2.3-27.3
	S634.3,93.6,636.9,97.1z"/>
<path fill="#FFFFFF" stroke="#000000" d="M635.9,36.1c0,0,8.698,11.4-2.302,27.4l0,0c-11-15.9-2.3-27.3-2.3-27.3
	S633.3,32.6,635.9,36.1z"/>
<path fill="#FFFFFF" stroke="#000000" d="M623.8,378.6c1.102,4.301,2.7,2.4,3.9,2.602c-2.4,2.1-0.102,0.8-0.2,2
	c-2.3,0.6-0.3,3-0.5,5.1c-1.3-2.3-0.8,1.801-0.7,4.9H535c-0.1-0.602-0.2-1.2-0.2-1.4c0-0.898,0.3-1.699,0-2.898
	c-1.1,3-1-4.801-1.5-7.4c0.3,2-1.5-7-2.3-10.1l0,0c0.4,0.1,0.7,0.1,1,0.199c1.9,0.5,3.7,1.101,6,1.199c-2-2.3,4.9,0.102,7.5,0
	c2.6-0.1,5.4-0.3,8.3-0.6c2.602-3.5,4.602-0.7,7-1v0.199l58-1c0.3,0.801,0,1.899,0.5,2.5c0.4-3.601,1.602,2.199,2.3,3.101
	C619.9,370.6,623.1,377.9,623.8,378.6z"/>
<path id="www.ABC-color.com" fill="#FFFFFF" stroke="#000000" d="M623,102.9c0,0,0.4,14.4-17.9,20.9l0,0
	c0.4-19.3,14.102-23.5,14.102-23.5S622.9,98.5,623,102.9z"/>
<path fill="#FFFFFF" stroke="#000000" d="M622,42.9c0,0,0.4,14.4-17.9,20.9l0,0c0.4-19.3,14.102-23.5,14.102-23.5
	S621.9,38.5,622,42.9z"/>
<path fill="#FFFFFF" stroke="#000000" d="M597.4,356.7c0.198-0.101,3.1-1.3,4.198-1.9c-0.198,0.2-0.198,0.2,0.302-0.2
	c-0.102,0-0.2,0.102-0.302,0.2c0.602-0.5,2.802-2.1,4.602-3.2c0.6,0.4,1.1,0.602,1.5,0.7c2,2.2,0.398,1.4,1.7,3.8
	c1.898,0.4,2.198,2.301,3,4.102c-0.5-2.602,1.398,3.898,2.5,5.699c4.398,3.301,1.5,2.399,2.198,3.601
	c1.2-0.101,1.602,0.3,1.802,0.899l-58,1v-0.199c0,0,0.1,0,0.198,0c-1.198-3.301,5-1,7.5-1.7c3.302-1.7,2.602-0.7,3.9-1.101
	c3.6-3.199,2.6-0.801,4-1.301c0.3-2.5,2.7-1,4.1-1.5c-3.198-1.1,2.802-1.1,4.2-1.699c-2.8-0.801,1.9-0.899,2.8-1.301
	c2.5-2.3,1.802-0.898,2.802-1.398c0.5-1.602,2.5-2,3.3-2.2c-0.5,0.101-0.7,0.101-0.7,0.101c0.2-0.101,2.4-0.601,3.1-1
	C592.8,358.8,595.8,357.4,597.4,356.7L597.4,356.7z"/>
<path fill="#FFFFFF" stroke="#000000" d="M594,73.7c0,0,13.3,5.5,11.8,24.8l0,0C588.3,90.3,590,76.1,590,76.1S590,72,594,73.7z"/>
<path fill="#FFFFFF" stroke="#000000" d="M581,122.7c0,0,13.3,5.5,11.8,24.8l0,0c-17.5-8.2-15.8-22.4-15.8-22.4S577,121,581,122.7z"
	/>
<path fill="#FFFFFF" stroke="#000000" d="M580.9,74.1c0,0,8.698,11.4-2.302,27.4l0,0c-11-15.9-2.3-27.3-2.3-27.3
	S578.3,70.6,580.9,74.1z"/>
<path fill="#FFFFFF" stroke="#000000" d="M567,24.7c0,0,13.3,5.5,11.8,24.8l0,0C561.3,41.3,563,27.1,563,27.1S563,23,567,24.7z"/>
<path fill="#FFFFFF" stroke="#000000" d="M572.9,167.9c4.1-0.1,8.198-0.8,12.198-1.9c-3.198,3.8-22.8,26.9-36.5,31.5v0.8
	c-3.898,0-9.1-0.2-16.8-0.8c-2.5,0-5,0.1-7.6,0.3c7.6-4,18.7-34.3,20.3-38.7c2.7,1.5,5.8,3,9.6,4.6l-0.398,0.9l-9,23L572.9,167.9z"
	/>
<path fill="#FFFFFF" stroke="#000000" d="M572.9,167.9l-28.4,19.6l9-23l0.4-0.9c1.398,0.6,3,1.2,4.6,1.9
	C563.3,167.3,568.1,168,572.9,167.9z"/>
<path fill="#FFFFFF" stroke="#000000" d="M569,75.9c0,0,0.4,14.4-17.9,20.9l0,0c0.4-19.3,14.102-23.5,14.102-23.5
	S568.9,71.5,569,75.9z"/>
<path fill="#FFFFFF" stroke="#000000" d="M566.9,136.1c0,0,8.698,11.4-2.302,27.3l0,0c-11-15.9-2.3-27.3-2.3-27.3
	S564.3,132.6,566.9,136.1z"/>
<path fill="#FFFFFF" stroke="#000000" d="M469.8,414.6c0.2,0-1.5,4.302-2.8,6.5c-1.6,2.7-1.1,1.102-4.8,2.302
	c-6.7,2.198-9.5,6.698-4.3,8.3c3.898,1.2,11,0.3,12.898,0.3c1.9,0,3.4-7.3,3.4-7.3l0.1-0.602c0.2,0.102,0.5,0.302,0.7,0.4
	c2,0.9,5,0.8,9.9-1.4c1.3-2.698,2-1,2.898-1.8c0.2-4.398,1.9-1.6,2.8-2.6c-2-3.9,1.802-2.2,2.7-3.4c-3.7-1.6,1.8-2.6,2.602-4
	c-2.302-0.398,1.6-3.2,2.398-4.7s1.602-2.898,2.3-4.5c-1.5-1-1.198-1.8-0.5-2.5l0.2,0.102l8.102-0.2h0.1c-0.1,0.3-0.1,0.6-0.1,0.9
	c2.3-4.4,0.5,3.5,0.6,5.1c0.5-0.9,0.3,3.1,0.5,4.7c4.7,0.1,1,6.1,1.7,8.2c1.8-3.5,1.5,3.698,2.398,4c0.802-0.2,1.9,0.698,3.302,1.1
	c0.698,0.2,1.5,0.4,2.3,0.7v0.1c0,0-5.2,4.8-8.9,4.102c-3.7-0.602-6.398,6.698-2.1,7.898c4.3,1.3,18.398,1.3,18.398,1.3s1-2.8,2-5.6
	s2-5.5,2-5.5v-0.1c0.102,0,0.102,0,0.2,0c1.8-1.302,3.102-1.4,3.9-1.302l22.1,63.4c0.9,5.6-4.8,10-11.3,11.1h-72
	c-6.5,1.102-17.1-4.398-18-10l-27-71c-0.9-5.6-0.5-15.898,6-17l37.5-1.1c-0.6,1.4-1.5,3-1.9,3.9c-0.8,1.6-1.6,3-2,4.398
	c3.302,0.3-1.1,4.8-0.3,5.4c1.2-0.7,1.8-0.5,2.2,0.3L469.8,414.6z"/>
<path fill="#FFFFFF" stroke="#000000" d="M551.9,21.1c0,0,8.698,11.4-2.302,27.4l0,0c-11-15.9-2.3-27.3-2.3-27.3
	S549.3,17.6,551.9,21.1z"/>
<path fill="#FFFFFF" stroke="#000000" d="M551,123.9c0,0,0.4,14.4-17.9,20.9l0,0c0.4-19.3,14.102-23.5,14.102-23.5
	S550.9,119.5,551,123.9z"/>
<path fill="#FFFFFF" stroke="#000000" d="M535,84.7c0,0,13.3,5.5,11.8,24.8l0,0c-17.5-8.2-15.8-22.4-15.8-22.4S531,83,535,84.7z"/>
<path fill="#FFFFFF" stroke="#000000" d="M539,29.9c0,0,0.4,14.4-17.9,20.9l0,0c0.4-19.3,14.102-23.5,14.102-23.5
	S538.9,25.5,539,29.9z"/>
<path fill="#FFFFFF" stroke="#000000" d="M535,393.2c0.4,2.1,1.2,5.3,1.2,2.399c0.3,1.499,0.8,8.601,0.7,4.301
	c0.198,1.3,0,4.898,0.6,3.8c0.2,1.2,0.1,1.6,0.1,2.2c0,0.698-0.6,6.8,0.7,4c0.3,2.698-2.2,8.5,0.3,6.698c0,1.7-2.5,2-0.398,4.102
	c-0.5,2.1-1.602-1.3-1.7,4.3c-0.3,0.7-0.8,0.3-1.7,0.2c-0.898-0.102-2.1,0-3.898,1.3c-0.102,0-0.102,0-0.2,0
	c-2.8-0.2-6.102-0.9-9.2-1.6c-0.7-0.2-1.4-0.4-2.1-0.5c-0.802-0.2-1.602-0.5-2.302-0.7c-1.3-0.4-2.5-1.4-3.3-1.102
	c-0.898-0.3-0.5-7.5-2.398-4c-0.7-2.198,2.898-8.198-1.7-8.198c-0.2-1.602,0-5.602-0.5-4.7c-0.102-1.602,1.7-9.5-0.602-5.102
	c0-0.198,0-0.5,0.102-0.898c0.398-1.8,2-4.4-0.5-3.8c-0.102-1.5,2.6-1-0.5-4.102l0,0c0.1-1.3-1.102-3.6-0.8-4.5
	c2.5,3.301,1.1-2.699,1.698-4.1c-1.5-1.301,1.302-3.5,1.802-5c-2.5,2.3,1.1-2.9,1.5-4.102c2.698-4,1.6-3.898,2-4.199
	c2.198-1.301,1.6-0.101,3.698,0.299c-0.6-1.5,2.2,0.4,3.602,0.701c-2.7-1.601,3,0.5,4.7,0.799c1-0.799,3.5-0.5,5.3-0.198l0,0
	c0.7,3,2.5,12,2.3,10.101c0.5,2.6,0.4,10.399,1.5,7.399c0.2,1.198,0,1.899,0,2.899C534.8,392,534.9,392.5,535,393.2z"/>
<path fill="#FFFFFF" stroke="#000000" d="M544.3,159c-1.6,4.4-12.6,34.7-20.3,38.7c-2.9,0.2-5.8,0.4-8.8,0.7
	c-5.602,0.5-11.2,1.1-16.8,1.6l-2-11.5c0,0,29-19,21-44C531.8,140.3,524.9,148.1,544.3,159z"/>
<path fill="#FFFFFF" stroke="#000000" d="M530.6,426.4v0.1c0,0-1,2.8-2,5.5c-1,2.8-2,5.6-2,5.6s-14.1,0-18.398-1.3
	s-1.5-8.6,2.1-7.898c3.7,0.6,8.9-4.102,8.9-4.102v-0.1c0.7,0.2,1.398,0.398,2.1,0.5C524.4,425.6,527.8,426.3,530.6,426.4z"/>
<path fill="#FFFFFF" stroke="#000000" d="M520.9,82.1c0,0,8.698,11.4-2.302,27.4l0,0c-11-15.9-2.3-27.3-2.3-27.3
	S518.3,78.6,520.9,82.1z"/>
<path fill="#FFFFFF" stroke="#000000" d="M518.9,315.1c0.198,3.2-1.9,5.301-0.302,7.2c-0.8,2.3-2.1,3.601-2.8,6.2
	c-1.2,1.6-2.7,2.7-4.8,2.9c-2.2,0.199-5-0.602-8.9-2.7c-1.8-1-3.198-3.2-4.3-4.8c-1.2-2.2-1.1-6.4-2.8-7.7c-0.7-2.9-0.7-5.7-1.5-9.2
	c-0.2-1.6,0-3.7,0.1-5.5c0.102-1.8,0-3.3-0.698-3.8c-0.102-2,1.898-4.2,0.1-5.9c0.1-1.8,1.2-2.3-0.2-4.1c0-1.3,0.5-2.4,0.7-3.101
	c1.8-0.399,3.4,0,4-0.701c1.2-0.3,2-0.6,3.1-1.4c1-0.5,2.102-0.9,3.602-1c2.1-0.8,3.7-1.3,5.3-1.3c0.2-0.1,0.4-0.1,0.601-0.2
	c0.5,0.6,1.101,1.7,1.699,3c0.5,1.2,1,3.3,1.602,4.2c0.5,1.6,0.398,5.699,1.5,5.199c0.5,1.899-0.5,4.399,1.398,5.801
	c0.5,2,0,3.199,1.2,6c0.4,2,0.3,4.398,0.4,6.5C517.9,312.7,518.1,314.4,518.9,315.1z"/>
<path fill="#FFFFFF" stroke="#000000" d="M507,41.7c0,0,13.3,5.5,11.8,24.8l0,0C501.3,58.3,503,44.1,503,44.1S503,40,507,41.7z"/>
<path fill="#FFFFFF" stroke="#000000" d="M517.5,144.5c8,25-21,44-21,44l2,11.5c-2.5,0.2-6,0.5-10,0.7v-0.2c4-13-25-25.5-25-25.5
	l0,0c6.6-1.2,13.3-3,19.8-5.4l0.2,0.5l10,7.5c0,0,15-12,13-25l-0.3-0.2C508.1,149.2,510.5,146.5,517.5,144.5z"/>
<path fill="#FFFFFF" stroke="#000000" d="M466,288.9c-1.5-0.602-2.7-0.102-3.2-0.9c0.5-2.2-0.7-1.9-0.6-3.1c1.6-1.8,0.5-2.5,1.1-3.8
	c1.7-0.3,1.5-2.8,2.4-4.2c0.8,1,2.1-2.8,3.3-4.2c1.7,0.8,2.4-2.6,3.7-3.8c1.398,0.3,2.5-2.2,3.7-3.1c2.6-1.5,4.3-2.8,5.398-2.6
	c1.5,1.4,3.2,0,6.2-0.2c0.9,0.8,2.6,0.7,4.6,0.4c2.302,0,4.102-0.7,6-0.6c1.802,1,3.7,1.1,5.5,1.1c2.102,0.7,3.7-0.1,5.2,0.3
	c0.7,1.9,2.3,1.3,3.602,2c0.198,1.7,2.5,1.5,3,2.7c-0.7,1.4,0.698,2.5,0.398,4.1c-1.398,1.1-1,3.4-2.2,5.5
	c-0.5-0.7-1.698,0.5-4.3,1.4c-0.2,0.1-0.398,0.2-0.6,0.2c-1.5,0-3.2,0.5-5.3,1.3c-1.5,0.1-2.602,0.6-3.602,1
	c-1.1,0.8-1.898,1-3.1,1.4c-0.7,0.7-2.3,0.3-4,0.7c-0.2,0-0.5,0.1-0.7,0.2c-0.5,1-2.1,0.8-3.2,1.2c-0.8,0.5-2.1,0.699-3,1
	c-2.1,0.1-4,0.5-5.7,1c-1.698,0.5-3.3,1-4.898,1.199c-0.8-0.5-2.3-0.301-3.9,0c-2.2-0.601-3.398,0.699-4.6,0.699
	C466.9,289.3,466.5,289,466,288.9z"/>
<path fill="#FFFFFF" stroke="#000000" d="M506.5,152.5c2,13-13,25-13,25l-10-7.5l-0.2-0.5c1.7-0.6,3.5-1.3,5.2-2
	c13.1-5.5,14.9-10.8,17.7-15.2L506.5,152.5z"/>
<path fill="#FFFFFF" stroke="#000000" d="M505,85.9c0,0,0.4,14.4-17.9,20.9l0,0c0.4-19.3,14.102-23.5,14.102-23.5
	S504.9,81.5,505,85.9z"/>
<path fill="#FFFFFF" stroke="#000000" d="M492.9,33.1c0,0,8.698,11.4-2.302,27.4l0,0c-11-15.9-2.3-27.3-2.3-27.3
	S490.3,29.6,492.9,33.1z"/>
<path fill="#FFFFFF" stroke="#000000" d="M214.5,371.3h272.9c-0.302,0.4-0.5,0.8-0.802,1.2c3.4,0.3-2.3,4-3.5,6.1
	c-1.198,2.102-2.5,4.301-3.698,6.602c-1.302,4.199-2.4,4.5-3.602,6.6c0.602-0.199,0.4,0.4-0.1,1.2l-0.2-0.101L229.3,392.6
	L214.5,371.3L214.5,371.3z"/>
<path fill="#FFFFFF" stroke="#000000" d="M474,136.7c0,0,13.3,5.5,11.8,24.8l0,0c-17.5-8.2-15.8-22.4-15.8-22.4S470,135,474,136.7z"
	/>
<path fill="#FFFFFF" stroke="#000000" d="M473.9,294.3c10.398-4.399,8.6,4.7,8.6,4.7h-9L473.9,294.3z"/>
<path fill="#FFFFFF" stroke="#000000" d="M476,44.9c0,0,0.4,14.4-17.9,20.9l0,0c0.4-19.3,14.102-23.5,14.102-23.5
	S475.9,40.5,476,44.9z"/>
<path fill="#FFFFFF" stroke="#000000" d="M474.3,424.1l-0.1,0.602c0,0-1.5,7.3-3.4,7.3c-1.898,0-8.898,0.9-12.898-0.3
	c-5.2-1.602-2.4-6,4.3-8.3c3.6-1.2,3.1,0.398,4.8-2.302c1.3-2.198,3-6.5,2.8-6.5l0.2-0.1c0.7,1.3,0.6,3.9,1.1,5.1
	C471.9,421.4,472.8,423.1,474.3,424.1z"/>
<path fill="#FFFFFF" stroke="#000000" d="M456,85.7c0,0,13.3,5.5,11.8,24.8l0,0c-17.5-8.2-15.8-22.4-15.8-22.4S452,84,456,85.7z"/>
<path fill="#FFFFFF" stroke="#000000" d="M457.3,306.4c0,1.898-3.398,4.1-3.398,4.1l-0.2,0.2c-1.9-1.7-3.2-3.5-3.2-4.3
	c0-0.602,1.3-1.801,3.1-3.2C454,303.3,457.3,304.6,457.3,306.4z"/>
<path fill="#FFFFFF" stroke="#000000" d="M454.9,141.1c0,0,8.698,11.4-2.302,27.3l0,0c-11-15.9-2.3-27.3-2.3-27.3
	S452.3,137.6,454.9,141.1z"/>
<path fill="#FFFFFF" stroke="#000000" d="M441.9,86.1c0,0,8.698,11.4-2.302,27.4l0,0c-11-15.9-2.3-27.3-2.3-27.3
	S439.3,82.6,441.9,86.1z"/>
<path fill="#FFFFFF" stroke="#000000" d="M438.8,489.6c0.9,5.602-4.8,10-11.3,11.102h-72c-6.5,1.1-17.1-4.4-18-10l-27-71
	c-0.9-5.602-0.5-15.9,6-17l81-2.3c8.7-1.4,14.7,15.3,14,11L438.8,489.6z"/>
<path fill="#FFFFFF" stroke="#000000" d="M424,33.7c0,0,13.3,5.5,11.8,24.8l0,0C418.3,50.3,420,36.1,420,36.1S420,32,424,33.7z"/>
<path fill="#FFFFFF" stroke="#000000" d="M432,144.9c0,0,0.4,14.4-17.9,20.9l0,0c0.4-19.3,14.102-23.5,14.102-23.5
	S431.9,140.5,432,144.9z"/>
<path fill="#FFFFFF" stroke="#000000" d="M427,88.9c0,0,0.4,14.4-17.8,20.9l0,0c0.398-19.3,14.1-23.5,14.1-23.5S426.9,84.5,427,88.9
	z"/>
<path fill="#FFFFFF" stroke="#000000" d="M408.9,31.1c0,0,8.698,11.4-2.302,27.4l0,0c-11-15.9-2.3-27.3-2.3-27.3
	S406.3,27.6,408.9,31.1z"/>
<path fill="#FFFFFF" stroke="#000000" d="M389,101.7c0,0,13.3,5.5,11.8,24.8l0,0c-17.5-8.2-15.8-22.4-15.8-22.4S385,100,389,101.7z"
	/>
<path fill="#FFFFFF" stroke="#000000" d="M377.9,105.1c0,0,8.698,11.4-2.302,27.4l0,0c-11-15.9-2.3-27.3-2.3-27.3
	S375.3,101.6,377.9,105.1z"/>
<path fill="#FFFFFF" stroke="#000000" d="M324.8,489.6c0.9,5.602-4.8,10-11.3,11.102h-72c-6.5,1.1-17.1-4.4-18-10l-11.9-31.4
	l0.3,0.4c0,0,48.5-24.8,48.8-27.7c0.7-6.4-17.1-19-17.1-19l-7.8-11.3l47.9-1.4c8.7-1.398,14.7,15.3,14,11L324.8,489.6z"/>
<path fill="#FFFFFF" stroke="#000000" d="M275,244.4c1.9,16.6,2.3,35.1-0.9,52.3l-20.9,0.1L244,182.6h15.3l0.7-0.2
	c2.3,4.2,3.3,7.6,3.3,7.6s0.6,1.8,1.5,4.9c0.3,1,0.6,2.2,1,3.4C268.6,208.1,272.8,225,275,244.4z"/>
<path fill="#FFFFFF" stroke="#000000" d="M218.8,287.9c-20.1-12.7-46.1-31.8-51.1-35.4c2.1,0,4.1-0.5,5.8-1.3c0.5-0.2,1-0.5,1.5-0.8
	l1,0.2c0,0,20.7,14.5,40.4,25.2c-3.2-37-7.2-84.9-8.2-86.1c-1.8-2.2-25.6-6.6-34.7,0.6c-0.7,0.5-1.2,1.3-1.6,2.3
	c-0.1,0.2-0.2,0.4-0.2,0.6l-0.4-0.2c0,0,3.4-12.6-1.8-13.3c3.7,0.2,7.1,0.3,10.3,0.4c9.1,0.4,16.5,0.7,22.5,0.9
	c3.5,0.1,6.5,0.3,9.1,0.4l2.6-0.6c26-24.6,40.2-9,46,1.7l-0.7,0.2H244l9.2,114.2l20.9-0.102c-5.8,31.4-53.8,14.2-53.8,14.2H220
	c-0.3-4.3-0.8-11.601-1.8-22.399L218.8,287.9z"/>
<path fill="#FFFFFF" stroke="#000000" d="M243.5,413c0,0,17.8,12.6,17.1,19c-0.3,2.8-48.8,27.7-48.8,27.7l-0.3-0.4l-2.2-5.7
	c1.9-6.3,14.4-12.3,16.9-22.8c0.3-1,0.9-2.3,1.9-3.5C232.7,421,243.5,413,243.5,413z"/>
<path fill="#FFFFFF" stroke="#000000" d="M192.6,393.5c-4.5-8.1-8.6-16.3-11.5-23.2c-2.5-6.1-4-11.3-3.9-14.5
	c1.1-28.2,5.8-41,6.5-42.7c16.4,1.5,36.6,3,36.6,3l-10,49.2l4.1,5.9l14.8,21.3l6.3,9.1l7.8,11.302c0,0-10.8,8-15.3,14.198l-0.6-0.3
	l-8,5.7c-3.5-2.2-12-14.1-20.5-28.1C196.9,400.9,194.7,397.2,192.6,393.5z"/>
<path fill="#FFFFFF" stroke="#000000" d="M200.9,127v-0.1c1.8-1,18.9,3.8,20-7c0,0,13.1,9.8,9.5,18.7c0,0,3.4,9.2-2.4,16.2
	c0,0-1.9,7-10.8,12.7c0,0-7.6,9.6-15.5,5.5l0,0c0.2-2.2,0.8-4.9,1.9-8c0,0,2.2-0.2,3.1-10.2c1-10-4.7-5.7-4.7-5.7s-0.3-12.7-5-13
	c-4.7-0.3-7.1-8.3-7.1-8.3v-0.2C194.9,127.5,199,127.1,200.9,127z"/>
<path fill="#FFFFFF" stroke="#000000" d="M227.5,426.9l0.6,0.3c-0.9,1.3-1.6,2.5-1.9,3.5c-2.5,10.5-15,16.5-16.9,22.8l-12.9-33.9
	c-0.7-4.398-0.6-11.698,2.5-15.1c8.5,14,17,26,20.5,28.1L227.5,426.9z"/>
<path fill="#FFFFFF" stroke="#000000" d="M207.3,87.7c9.9-4.2,14.9,18.1,13.5,32.2c-1,10.8-18.2,5.9-20,7v0.1
	c-1.8,0.2-5.9,0.5-11.1,0.6c-0.7,0-1.4,0-2.1,0v-0.1c-15.2-1.9-16-16.9-16-16.9S186.1,82,191.9,82C197.7,82,204.4,89,207.3,87.7z"/>
<path fill="#FFFFFF" stroke="#000000" d="M183.7,313.1c-6.5-0.6-12.5-1.199-16.2-1.699c-1.8-0.199-3.2-0.5-3.8-0.601
	c-4.6-1.399,2.1-52.2,3-58.4c0.3,0,0.6,0,0.9,0c5,3.7,31,22.8,51.1,35.4l-0.5,0.8c0.9,10.801,1.5,18.102,1.8,22.4
	c0.2,3.5,0.3,5.1,0.3,5.1S200.1,314.6,183.7,313.1z"/>
<path fill="#FFFFFF" stroke="#000000" d="M213.8,490.4c0.9,5.6-4.8,10-11.3,11.1h-72c-6.5,1.1-17.1-4.4-18-10l-27-71
	c-0.9-5.6-0.5-15.9,6-17l45.8-1.6l-5.9,19.6l4.9,1.9L124,432c0,0-27.3,0.9-15.6,11.4l55.5,1.3l3.7-11.4l6.4-29.8
	c8.9,1.9,10,9.8,9.8,10.5l-0.2-0.5c0.1,0.5,0.2,0.6,0.2,0.5L213.8,490.4z"/>
<path fill="#FFFFFF" stroke="#000000" d="M175,250.4c-0.5,0.3-1,0.5-1.5,0.8c-1.8,0.8-3.8,1.2-5.8,1.3c-0.6-0.4-0.8-0.6-0.8-0.6
	s0,0.2-0.1,0.6c-4.5-0.2-9.2-2.4-12-7.6c-2-3.7-3.1-8.8-2.6-15.8c1-15.4-1.8-25,2.9-29.6c0.9-0.9,2.2-1.6,3.8-2.2
	c7.4-2.4,8.2-4.9,12.5-4.2l0.4,0.2c0.1-0.2,0.1-0.4,0.2-0.6c0.4-1,1-1.8,1.6-2.3c9-7.3,32.8-2.8,34.7-0.6c1,1.2,5,49,8.2,86.1
	C196.8,265,176,250.5,176,250.5L175,250.4z"/>
<path fill="#FFFFFF" stroke="#000000" d="M201.9,149c0,0,5.7-4.3,4.7,5.7s-3.1,10.2-3.1,10.2c-1.2,3.1-1.7,5.8-1.9,8
	c-0.5,5.2,0.9,7.8,0.9,7.8v0.3c-6-0.3-13.4-0.6-22.5-0.9v-0.4c0.8-0.9,2.3-6.1-6.6-8.7c-10.3-3-11.9-9.9-11.9-9.9l10.5-6.3
	l-11.5,0.6l1.7-8.5c-8.2-2.5-6.1-12.3-6.1-12.3c5.9,1.6,11.7-5.4,13.6-8c5.9,0.9,12.4,1.2,18,1.1c0.7,0,1.4,0,2.1,0v0.2
	c0,0,2.4,7.9,7.1,8.3C201.6,136.6,201.9,149,201.9,149z M172.6,136.5l9.3,2.1C181.8,138.6,174.3,123.9,172.6,136.5z"/>
<path fill="#FFFFFF" stroke="#000000" d="M192.6,393.5H176l5-23.1l0.2-0.102C184,377.2,188.1,385.4,192.6,393.5z"/>
<path fill="#FFFFFF" stroke="#000000" d="M169.7,126.5c-8.8-1.4-16.4-4.4-18.3-10.3c0,0,1.9-8.6,20.2-5.7c0,0,0.8,15,16,16.9v0.1
	C182.1,127.7,175.6,127.5,169.7,126.5z"/>
<path fill="#FFFFFF" stroke="#000000" d="M181.8,138.6l-9.3-2.1C174.3,123.9,181.8,138.6,181.8,138.6z"/>
<path fill="#FFFFFF" stroke="#000000" d="M176,393.5l-2.1,10l-6.4,29.8l-31.3-9.8l-4.9-1.9l5.9-19.6l2.5-8.4l5.6-18.6l1.3-3.5
	l20.8-59.3l0.1-0.601c3.7,0.5,9.6,1.101,16.2,1.699c-0.7,1.7-5.3,14.5-6.5,42.7c-0.1,3.2,1.4,8.3,3.9,14.5l-0.2,0.101L176,393.5z"/>
<path fill="#FFFFFF" stroke="#000000" d="M166.8,180.6h1.1c0.5-0.6,1.1-1,1.7-0.9c5.2,0.8,1.8,13.3,1.8,13.3
	c-4.3-0.6-5.1,1.8-12.5,4.2c-1.6,0.5-2.9,1.2-3.8,2.2l-0.1-0.1c-0.2-0.5-0.3-1-0.4-1.4c-1.9-5.8-2.6-6.6-0.9-13.6
	c1.6-1.7,4.1-1.7,4.1-1.7l0.7-0.1c0.9-1.3,2.2-1.5,3-1.5l1.6-0.1C164.3,179.6,166,180.2,166.8,180.6z"/>
<path fill="#FFFFFF" stroke="#000000" d="M167.5,311.5l-0.1,0.6L146.6,371.4h-0.2H0.5v-129c1.5,0,3.3,0.1,6.3,0.1
	c20.4,0.3,10.4-0.4,15.9-0.3c13.8,5,11.4,0.3,18,0.3c-2.9,8,3.2-0.3,13.2-0.2c-7.9,6.5-1,0.2,7.5,0.2c4.4,4.5,19.7,0,23.8,0
	c11.5,0.6,18.9,0.5,25.5,0.4c9.6,6.2,12.5-0.4,20.7-0.4c-3.2,8.7,5.3,0.5,16.8,0.4c-0.3,2.7,2.8,2.7,6.7,1.9l0,0
	c2.8,5.2,7.5,7.4,12,7.6c-0.8,6.2-7.6,57-3,58.4C164.4,311,165.7,311.2,167.5,311.5z"/>
<path fill="#FFFFFF" stroke="#000000" d="M167.5,433.3l-3.7,11.4l-55.5-1.3C96.7,432.9,124,432,124,432l12.3-8.6L167.5,433.3z"/>
<path fill="#FFFFFF" stroke="#000000" d="M155,199.3l0.1,0.1c-4.7,4.6-1.9,14.2-2.9,29.6c-0.5,7,0.6,12.2,2.6,15.8l0,0
	c-3.9,0.7-6.9,0.8-6.7-1.9c-11.4,0.1-20,8.3-16.8-0.4c-8.2,0-11.1,6.6-20.7,0.4c-6.6,0.1-14,0.2-25.5-0.4c-4.1,0-19.4,4.5-23.8,0
	c-8.5,0-15.4,6.3-7.5-0.2c-10-0.1-16.1,8.2-13.2,0.2c-6.6,0-4.2,4.7-18-0.3c-5.5-0.1,4.5,0.6-15.9,0.3c-2.9,0-4.7,0-6.3-0.1V197
	c0.6,0.2,1.3,0.4,1.9,0.4c-1.5-1.1,2.7,0,4.1,0c2.2-0.6,3.1,0,4.7,0c11.7-1.6,16.3,0,26.8,0c11.9-8.5,22.7,0,36.1,0
	c-7-6.4,28.2,0,44.1,0c7.4,0,15.1,0,23,0c6.6,0.4,10.4,0.5,13.3,0.4C154.6,198.4,154.8,198.8,155,199.3z"/>
<polygon fill="#FFFFFF" stroke="#000000" points="146.7,371.3 145.4,374.9 139.8,393.5 0.5,393.5 0.5,371.3 146.5,371.3 "/>
<path fill="#FFFFFF" stroke="#000000" d="M102.8,492.8c0.9,5.602-4.8,10-11.3,11.102h-72c-6.5,1.1-17.1-4.4-18-10l-1-2.602v-86
	l61-1.7c8.7-1.398,14.7,15.302,14,11L102.8,492.8z"/>
<line fill="none" stroke="#000000" x1="211.4" y1="365.7" x2="205.9" y2="364.4"/>
<path fill="none" stroke="#000000" d="M217.5,286.9c7.7,4.8,14.9,8.8,20.2,10.898"/>
<path fill="none" stroke="#000000" d="M217.6,276.1c7,3.8,13.8,7,19.5,9"/>
<path fill="none" stroke="#000000" d="M168.8,180.9c-1.4,1.8-2,5.8-2,5.8"/>
<path fill="none" stroke="#000000" d="M164,181.3c-0.7,0.8-1.3,2.3-1.5,4.8"/>
<path fill="none" stroke="#000000" d="M159.4,182.9c-0.7,1-1.2,2.6-1.1,5.1"/>
<path fill="none" stroke="#000000" d="M215,181.8c13.7,0.5,14.7,0.5,17.2,0.5"/>
<line fill="none" stroke="#000000" x1="209.3" y1="190" x2="228.5" y2="191.2"/>
<line fill="none" stroke="#000000" x1="227.3" y1="198.9" x2="235.9" y2="275.6"/>
<path fill="none" stroke="#000000" d="M188.7,169c0,0-6.7,3.2-11.6,3.2"/>
<path fill="none" stroke="#000000" d="M631,379.5c-2.7,2.4,2.3-2.5,2.3-3.3"/>
<path fill="none" stroke="#000000" d="M673.4,368.2c-1.7-0.3-5.2-2.9-5.2-2.9"/>
<path fill="none" stroke="#000000" d="M499.4,357.5c2.398-3.1,3.698-1.9,3.698-1.9"/>
</svg>
