<?xml version="1.0" encoding="utf-8"?>
<!-- Generator: Adobe Illustrator 15.0.0, SVG Export Plug-In . SVG Version: 6.00 Build 0)  -->
<!DOCTYPE svg PUBLIC "-//W3C//DTD SVG 1.1//EN" "http://www.w3.org/Graphics/SVG/1.1/DTD/svg11.dtd">
<svg version="1.1" id="layer_x5F_www.ABC-color.com"
	 xmlns="http://www.w3.org/2000/svg" xmlns:xlink="http://www.w3.org/1999/xlink" x="0px" y="0px" width="567px" height="822px"
	 viewBox="0 0 567 822" enable-background="new 0 0 567 822" xml:space="preserve">
<polyline fill="#FFFFFF" points="0,0 567,0 567,822 "/>
<path id="www.ABC-color.com" fill="none" stroke="#000000" stroke-miterlimit="10" d="M186.3,302.9l-0.3,0.4
	c-19.7-11.9-27-20.3-27-20.3c2.4-1.8,8.1-17.3,12.4-29.9l0.3,0.1C171.7,253.4,176.3,282.6,186.3,302.9z"/>
<path fill="#FFFFFF" stroke="#000000" stroke-miterlimit="10" d="M274.2,360c1.8-1.2,3.2-1.3,3.7-1.2c0.1,0,0.1,0,0.2,0
	c0,0,1.6,0.5,3.6,1.7c4.899,3,12.7,10.1,8.6,24.6c0,0-0.3,2.3-1.5,3.7l0,0c-0.899,0.8-2.3,1.1-4.3-0.1c0,0-1.2,0.5-2,1.2
	c0,0,0,0-0.1,0.1c-0.3,0.3-0.6,0.6-0.7,1h-0.3c0,0-0.2-0.3-0.6-0.7c-1-1.3-3-3.8-3.2-4.3c0,0,0,0,0-0.1l0,0v-0.1l0,0
	c0.2-0.7,1-3.7,2.7-3.5c0,0,4.8,3.5,5.101,0.3c0,0,0.301-1.1,0.301-2.9c0-0.1,0-0.2,0-0.3v-0.1c0-0.1,0-0.2,0-0.3v-0.1
	c0-0.1,0-0.2,0-0.4c0-0.5,0-1,0-1.6c-0.102-1-0.2-2.2-0.5-3.4c0-0.2-0.102-0.4-0.102-0.6c-0.199-0.8-0.5-1.7-0.8-2.6
	c-0.1-0.2-0.2-0.4-0.3-0.6c-0.2-0.4-0.4-0.9-0.6-1.3c-0.1-0.2-0.2-0.4-0.4-0.6c-0.4-0.7-0.8-1.3-1.3-1.9c-0.2-0.2-0.3-0.4-0.5-0.6
	c-1.7-2-3.9-3.8-7-5.2C274.3,360,274.2,360,274.2,360S274.1,360,274.2,360C274.1,360,274.1,360,274.2,360z"/>
<path fill="#FFFFFF" stroke="#000000" stroke-miterlimit="10" d="M290.3,385.1c4.101-14.6-3.7-21.6-8.6-24.6l2.6-1.3
	c0.5,0.4,1,0.6,1.3,0.8l0,0c0.301,0.2,0.602,0.3,0.602,0.3c0.3,0.1,0.6,0.2,0.898,0.3c0,0,0.102,0,0.2,0c2.8,0.3,3.3-4.3,3.101-8.9
	c0-0.5,0-0.9-0.101-1.3c0-0.2,0-0.4,0-0.6c0-0.3-0.1-0.6-0.1-0.9c0-0.2,0-0.4-0.101-0.5c-0.199-2.4-0.601-4.3-0.601-4.8
	c0-0.1,0-0.1,0-0.1c0.3-0.4,0.399-0.7,0.5-1l0,0c0-0.1,0-0.1,0.101-0.2h0.301c1.1,1.4,2.199,2.7,3.199,3.9
	c0.101,0.1,0.101,0.1,0.199,0.2c18.7,25.6,5.602,46.4,5.602,46.4c-0.102,0-0.102,0.1-0.2,0.1l0,0c-0.101,0.1-0.3,0.3-0.4,0.4
	c-9.3,8.4-15.8-0.5-15.8-0.5c-1.1-0.6-1.4-1.2-1.3-1.8c0.1-0.4,0.4-0.7,0.7-1c0,0,0,0,0.1-0.1c0.8-0.7,1.8-1.1,1.8-1.1
	c2.2,1.3,3.601,0.9,4.5,0l0,0C290,387.4,290.3,385.1,290.3,385.1z"/>
<path fill="#FFFFFF" stroke="#000000" stroke-miterlimit="10" d="M260.8,428.8c0.9-0.6,1.8-1.3,2.4-2.5l0,0c0,0,0.1-0.1,0.1-0.3
	c0.1-0.1,0.1-0.3,0.2-0.6c0.1-0.2,0.2-0.5,0.3-0.802l0,0c0.1-0.3,0.2-0.5,0.3-0.8c2.2-5.898,6.9-21,3.8-34.8c-0.5-5.6-0.4-10.3,0-14
	c0.1-0.9,0.2-1.7,0.3-2.5c0.3-2.2,0.8-4,1.3-5.6c1.3-3.7,3-5.7,4.7-6.8c3.1,1.4,5.4,3.2,7,5.2c0.2,0.2,0.3,0.4,0.5,0.6
	c0.5,0.6,0.9,1.3,1.3,1.9c0.1,0.2,0.2,0.4,0.4,0.6c0.2,0.4,0.4,0.9,0.6,1.3c0.1,0.2,0.2,0.4,0.3,0.6c0.399,0.9,0.601,1.7,0.8,2.6
	c0,0.2,0.1,0.4,0.1,0.6c0.302,1.2,0.4,2.3,0.5,3.4c0,0.6,0,1.1,0,1.6c0,0.1,0,0.2,0,0.4v0.1c0,0.1,0,0.2,0,0.3v0.1
	c0,0.1,0,0.2,0,0.3c-0.1,1.7-0.299,2.8-0.299,2.8c-0.5,3.1-5.101-0.3-5.101-0.3c-1.7-0.4-2.5,2.8-2.7,3.6l0,0v0.1l0,0c0,0,0,0,0,0.1
	c0.2,0.6,2.2,3.1,3.2,4.3c0.4,0.4,0.6,0.7,0.6,0.7h0.3c-0.2,0.6,0.2,1.2,1.3,1.8c0,0,6.5,8.9,15.8,0.5c0.101-0.1,0.3-0.2,0.399-0.4
	l0,0c0,0,0.101-0.1,0.201-0.1c0,0,13.1-20.8-5.602-46.4c1.2,0.3,6.2,1.1,12.5,1.1c3.5,0,7.4-0.3,11.3-1c0,0,62.602,122.6,57.8,134.4
	c0,0-8.898,15.898-17.8,11c0,0-16.8,16.8-28.3,10.398c0,0-1.899,1.5-5.1,3.3c-7.2,3.9-20,9.2-29.502,1.2c0,0-25.099,15-41.398,7.8
	l1.3-13.898l6.9-72.102C261.6,428.5,261.3,428.6,260.8,428.8z"/>
<path fill="#FFFFFF" stroke="#000000" stroke-miterlimit="10" d="M285.7,329.2c0,0,5,0.7,11.399,1.2c0.199,0,0.301,0,0.5,0.1
	c0.301,0,0.601,0,1,0.1c0.199,0,0.301,0,0.5,0s0.301,0,0.5,0c6.399,0.5,13.499,0.7,18.199,0.1l-0.2,15.8c-4,0.8-7.898,1-11.3,1
	c-6.3,0-11.3-0.9-12.5-1.1c0-0.1-0.1-0.1-0.199-0.2c-0.899-1.2-2.101-2.6-3.199-3.9H290.1c0,0.1,0,0.1-0.1,0.2l0,0
	c0-0.1,0.1-0.2,0.1-0.3c2.301-6.3-4.5-9.5-5.699-10c0.899-0.7,1.199-1.6,1.199-2.6C285.7,329.4,285.7,329.3,285.7,329.2z"/>
<path fill="#FFFFFF" stroke="#000000" stroke-miterlimit="10" d="M208.8,349c5.1-15,13.2-25.5,20-24.8v-0.1c3,0.3,9.4,0,19.5-4.8
	c0.2,0,20.2-12.3,35.3,3.5c0,0,0.5,0.9,1,2.1c0,0.1,0,0.1,0.102,0.2c0.5,1.1,1,2.6,1,4v0.1c0,0,0,0,0,0.1v0.1c0,0.1,0,0.2,0,0.3
	c0,1-0.301,1.9-1.2,2.6c1.2,0.5,8,3.7,5.7,10c0,0.1-0.102,0.2-0.102,0.3c-0.1,0.3-0.3,0.7-0.5,1c0,0,0,0,0,0.1l0,0
	c0,0,0.4,2.1,0.7,4.7c0,0.2,0,0.4,0.101,0.5c0,0.3,0.101,0.6,0.101,0.9c0,0.2,0,0.4,0,0.6c0,0.4,0.101,0.9,0.101,1.3
	c0.199,4.5-0.301,9.2-3.101,8.9c-0.101,0-0.101,0-0.2,0c-0.199-0.1-0.5-0.1-0.699-0.3c0,0-0.301-0.1-0.601-0.3H285.9l0,0
	c-0.399-0.2-0.801-0.4-1.301-0.8c-1-0.8-2.1-2.2-2.1-4.4c0-0.1,0-0.2,0-0.3c0.1-1,0.3-2.1,0.9-3.5c0,0,0,0-0.1,0.1
	c0-0.1,0.1-0.1,0.1-0.2c-0.1,0.1-0.7,0.7-3.6-3.9c0,0-6.8,1.1-8.4-3.5c0,0-5.7,3.5-8.9,2c0,0-4,3.9-9.7,7.1c-0.1,0-0.2,0.1-0.3,0.2
	l0.1-0.2c-3.9,2.1-8.4,3.8-13,4.1c-0.3,0-0.6,0-0.9,0c-0.3,0-0.6,0-0.8,0c0,0,0,0-0.1,0c-2.4-0.1-4.9-0.8-7.3-2.1
	c0,0-16.8-5.7-21.1-5.5c0,0,0,0.1-0.1,0.1H209C209,349,208.9,349,208.8,349z"/>
<path fill="#FFFFFF" stroke="#000000" stroke-miterlimit="10" d="M263.9,424.6c-0.1,0.302-0.2,0.602-0.3,0.802
	c-0.1,0.198-0.2,0.398-0.2,0.6c-0.1,0.2-0.1,0.3-0.1,0.3l0,0c-0.6,1.102-1.5,1.9-2.4,2.5c-0.4,0.2-1,0.4-1.6,0.602l0,0
	c-1.9,0.6-4.6,1.198-6.8,0.398c-1.7-0.6-5.9-1.8-8.1-2.7l-0.1-0.1c-0.1-0.1-0.3-0.2-0.3-0.4c-7.2-8.1,1.1-39.8,1.1-39.8
	c1.4-14.4,3.2-22.9,4.7-27.9c0.8-2.7,1.5-4.4,2.6-6.3c0.1,0,0.2-0.1,0.3-0.2c5.7-3.2,9.7-7.1,9.7-7.1c3.2,1.5,8.9-2,8.9-2
	c1.6,4.5,8.4,3.5,8.4,3.5c2.9,4.6,3.6,4,3.6,3.9c0,0.1,0,0.1-0.1,0.2c-0.5,1.3-0.8,2.4-0.8,3.4c0,0.1,0,0.2,0,0.3
	c0,2.2,1.1,3.6,2.1,4.4l-2.6,1.3c-2.1-1.2-3.6-1.7-3.6-1.7s-0.1,0-0.2,0c-0.6-0.1-2.1-0.1-3.7,1.2c0,0,0,0-0.1,0h0.1
	c-1.6,1.1-3.4,3.1-4.7,6.8c-0.5,1.5-1,3.4-1.3,5.6c-0.1,0.8-0.2,1.6-0.3,2.5c-0.4,3.8-0.4,8.4,0,14c3,13.899-1.6,28.898-3.8,34.8
	C264.1,424.1,264,424.4,263.9,424.6L263.9,424.6z"/>
<path fill="#FFFFFF" stroke="#000000" stroke-miterlimit="10" d="M214.9,397.5L214.9,397.5v0.3c-0.7,0-1.3,0-1.9-0.1
	c-8.1-1.7-11.1-19.4-6.5-39.7c0.8-3,1.6-6,2.5-8.9c0,0,0-0.1,0-0.2h0.1c5-0.1,21,5.4,21,5.4c2.4,1.3,4.9,2,7.3,2.1h-0.1
	c-0.3,2.4-0.6,4.8-1.3,7.4C231.9,382.4,222.7,396.6,214.9,397.5z"/>
<path fill="#FFFFFF" stroke="#000000" stroke-miterlimit="10" d="M231.3,509.3c-1.3,0-2.8-0.398-4.8-1.398c0,0-34.5,2.5-38.7-7.7
	h-0.1c0,0-6.7,6.2-15.7,8.1v0.102l-0.1-0.4c-6.8,1.5-14.7,0.7-22.1-6.5c0,0-11.6,2-10.5-5.4c0,0,7.3-100.2,23.7-115l0,0l0.1-0.1
	c8.7,5.9,33.4,20.7,51.8,16.8v-0.3l0,0c0.1,0,0.2,0,0.3,0c7.8-0.9,16.8-15,21.1-33.6c0.5-2.5,1-4.9,1.3-7.4c0.3,0,0.5,0,0.8,0
	c0.3,0,0.6,0,0.9,0c4.6-0.2,9.2-1.8,12.9-3.9c-1.1,2-1.8,3.6-2.6,6.3c-1.5,4.9-3.3,13.5-4.7,27.9c0,0-8.3,31.7-1.1,39.8
	c0.1,0.102,0.2,0.302,0.3,0.4l0.1,0.1c-0.7-0.3-1.1-0.5-1.3-0.6v0.5v0.3l-8.1,80.8v0.4C233.5,509,232.5,509.3,231.3,509.3z"/>
<path fill="#FFFFFF" stroke="#000000" stroke-miterlimit="10" d="M264.7,159.1h0.1l0,0c16.5,36.6,7.6,89.4,7.6,89.4
	c0,0.1,0.1,0.2,0.2,0.2v0.1c3.2,5,20.5-0.5,20.5-0.5c13.9-13.1-5-84.2-5.699-86.7c0.101,0,0.101,0,0.199,0
	c1.9,0.4,3.2,0.3,4.102,0.1l0,0c1.398-0.2,2-0.8,2.199-1c0.699,0.5,1.301,0.7,1.899,0.6l0,0c1.7,0.2,2.7-1.6,2.9-2.1
	c0.5,0.3,0.899,0.3,1.399,0.3l0,0c2.399,0.1,4.5-3.1,4.899-3.8c0.899,0.5,1.7,0.8,2.5,0.9c0,0,0.1,0,0.2,0
	c3.6,0.8,4.898-2.5,5.2-3.3c2.8,1.8,27.5,17.9,26.398,30.6c0,0,17.3,40.7,20.5,44.6c0,0,53.4,105.1,60.8,117.1l0,0
	c-0.1-0.1-0.1-0.1-0.1-0.2c-0.5,0.8-2,3.2-3.8,5.8c-1.8,2.6-4,5.2-5.7,6.4c0,0-2.5,3.9-6.4,8.4c0.102,0,0.102,0.1,0.2,0.1
	c0,0,0,0,0,0.1c-6,6.9-15.1,15.3-22.5,11.9c0,0-35.6-8-57.6-85.8c0-0.1-9.2,32.3-6.8,38.4c-4.7,0.6-11.802,0.4-18.2-0.1
	c-0.2,0-0.4,0-0.5,0c-0.2,0-0.3,0-0.5,0c-0.3,0-0.601-0.1-1-0.1c-0.2,0-0.3,0-0.5-0.1c-6.4-0.5-11.4-1.2-11.4-1.2s0,0,0-0.1
	c0,0,0,0,0-0.1v-0.1c-0.1-1.4-0.5-2.8-1-4c0-0.1,0-0.1-0.1-0.2c-0.5-1.2-1-2.1-1-2.1c-15.1-15.8-35.1-3.5-35.3-3.5
	c-10.2,4.8-16.5,5.1-19.5,4.8v0.1c-6.8-0.8-14.9,9.8-20,24.8c0.1,0,0.1,0,0.2,0c0,0.1,0,0.1,0,0.2c-1,2.9-1.8,5.9-2.5,8.9
	c-4.6,20.3-1.6,38,6.5,39.7c0.6,0.101,1.2,0.101,1.9,0.101c-18.4,3.899-43-11-51.8-16.8l-0.1,0.1c-1.9-1.3-3.1-2.1-3.1-2.1
	c-65-39.6-56.5-89.2-56.5-89.2c5.7-27.8,49.2-121.9,49.2-121.9C160,145,213,134.2,213,134.2s15.6,20.1,38.9,19.8
	C257.6,158.9,263.4,159.1,264.7,159.1C264.6,159.1,264.6,159.1,264.7,159.1L264.7,159.1z M186,303.4l0.3-0.4
	c-10-20.3-14.6-49.6-14.6-49.6l-0.3-0.1c-4.3,12.6-10,28.1-12.4,29.9C159,283.1,166.3,291.5,186,303.4z"/>
<path fill="#FFFFFF" stroke="#000000" stroke-miterlimit="10" d="M200.6,683.9c0.6,0.3,1.2,0.6,1.8,1c0.2,0.1,0.4,0.198,0.7,0.3
	c1.9,1,3.8,2,5.6,2.8c1.4,0.7,2.7,1.2,3.7,1.6c0.2,0.102,0.5,0.2,0.6,0.2c0.8,0.3,1.4,0.4,1.9,0.5l-11.6,14.3L172,693.3v10.9
	l-0.2-0.102V693c0,0,18.9-11.4,20-14c0,0,0.2,0.1,0.6,0.4c0.1,0.1,0.2,0.1,0.4,0.198c0.6,0.302,1.4,0.802,2.4,1.4
	c0.1,0.1,0.2,0.1,0.4,0.2c0.5,0.3,1.1,0.6,1.7,1c0.3,0.1,0.5,0.3,0.8,0.399c0.2,0.101,0.4,0.199,0.6,0.301c0.3,0.1,0.5,0.3,0.8,0.5
	c0,0,0.1,0,0.1,0.1c0.3,0.2,0.6,0.3,0.8,0.5C200.5,683.9,200.5,683.9,200.6,683.9z"/>
<path fill="#FFFFFF" stroke="#000000" stroke-miterlimit="10" d="M274.7,119.5l0.1-0.1C274.7,119.5,274.7,119.5,274.7,119.5z"/>
<path fill="#FFFFFF" stroke="#000000" stroke-miterlimit="10" d="M298.6,107.9c1.602,0.4,8.302,1.7,10.102-2
	c0.398-0.6,0.6-1.5,0.6-2.5v-0.1c0-0.1,0-0.2,0-0.3s0-0.2,0-0.4c0-0.1,0-0.1,0-0.2c0-2-0.8-7-6.699-9.2c0,0-1.801-4.2-2-8.7
	c0-0.3,0-0.6,0-0.9v-0.1c0-0.1,0-0.2,0-0.3l0,0c0-0.1,0-0.1,0-0.2c0.101-1.6,0.399-3.1,1.101-4.4c0.7-1.3,1.8-2.3,3.3-3.1V75l0,0
	v-0.1c0,0,0.1-0.1,0.2-0.1l-0.2-0.4l0,0c3.8-0.1,10.8,0.3,14.3,5.4h1.102c-0.302,0.7-0.802,1.5-1.5,2.1c-0.2-0.1-0.4-0.2-0.7-0.3
	c-0.2-0.1-0.4-0.2-0.602-0.3c-0.1-0.1-0.198-0.1-0.3-0.1c-0.898-0.4-1.8-0.8-2.7-1v0.1c-0.1,0-0.198,0-0.3-0.1
	c-0.1,0-0.2-0.1-0.3-0.1l0,0c-3.1-0.7-5.9,0-7.8,0.8V81c-0.399,0.2-0.7,0.3-1,0.5c0,0-0.101,0-0.101,0.1
	c-1.199,0.6-1.899,1.1-2.101,1.1c0.101,5.5,3.8,7.2,7.9,7.2h0.1c2.9,0,6.1-1,8.3-2.1c0,0,0,0,0,0.1c0.5,6.3,0.602,15.9-2.7,21.8
	c-0.1,0.2-0.198,0.4-0.3,0.5c-0.2,0.3-0.398,0.6-0.6,0.8c-0.102,0.2-0.2,0.3-0.4,0.5s-0.3,0.4-0.5,0.5c-0.5,0.5-1.1,1-1.7,1.4
	c-2.5-2.4-3.8-3.2-3.8-3.2c-1.8-1.2-9.199-1.3-9.199-1.3c-0.601-0.2-1.301-0.2-1.899-0.2v-0.1C298.4,108.4,298.5,108.3,298.6,107.9z
	"/>
<path fill="#FFFFFF" stroke="#000000" stroke-miterlimit="10" d="M279,124.4c0,6.4-6.6,9.2-7.5,9.6c-1.3-2.7,3.1-13.5,3.1-13.5
	c0-0.2-0.1-0.3-0.1-0.5c0-0.1,0.1-0.3,0.2-0.4l0.1-0.1c0-0.1,0-0.1,0.1-0.2c0.4-0.8,1.1-1.9,2.1-3.1c0.2-0.2,0.3-0.4,0.5-0.6
	c3.2-3.7,8.9-7.9,17.1-5.8c0,0,1.301-0.9,3.7-0.8v-0.3c0,0,0-0.1,0.101-0.2h0.101c0.5,0,1.101,0.2,1.899,0.2
	c0,0,7.501,0.1,9.199,1.3c0,0,1.302,0.8,3.802,3.2c0,0,0,0-0.2,0c0,0-0.102,0,0,0.1l0,0c0.1,0,0.1,0.1,0.2,0.1l0.1,0.1
	c0.101,0.1,0.3,0.4,0.601,0.6l0,0c0.5,0.5,0.899,1.1,1.301,1.8c0,0,0.1,0,0.398-0.1c0.602,2.5,4.5,18.4-1.2,13.4
	c-0.1-0.1-0.1-0.2-0.198-0.3c-0.802-1.4-1.4-2.3-1.4-2.3l-3-3.3l-0.1,0.1l-0.4-0.4l-2.7-3c-8.899-5-19.899,1-19.899,1v0.1
	c-0.1,0-0.1,0.1-0.1,0.1s0,0,0.1,0.1C283.7,128.3,279,124.4,279,124.4z"/>
<path fill="#FFFFFF" stroke="#000000" stroke-miterlimit="10" d="M172,704.4l19.4,7.898l0.4,0.2c0,0-16.9,8.5-20.8,8.8v-0.1h-0.2
	l-0.2-0.2h-0.2c0.2,0,0.3-0.2,0.5-0.3c0,0,0.8-10.7,0.8-27.8V704l0.2,0.1v0.302L172,704.4L172,704.4z"/>
<path fill="#FFFFFF" stroke="#000000" stroke-miterlimit="10" d="M289.9,75c0.1,0,0.199,0,0.3,0.1h0.1c0.5,0.2,0.8,0.3,0.8,0.3
	s0-0.1-0.1-0.1c0.2,0.1,0.3,0.1,0.4,0.1c-1.102-1.2,1.3-5.4,1.3-5.4c-1.7-0.2-3.3-0.4-4.9-0.5c-0.5,0-1,0-1.5-0.1
	c-1.1,0-2.2,0-3.2,0c-0.5,0-0.9,0-1.4,0.1c-13.9,0.8-16.8,8.1-17.1,8.6c0.1,0,0.1-0.1,0.2-0.1v0.1C278.3,72.9,286.7,74.1,289.9,75z
	 M263.1,84.3l0.1,0.1c0,0-0.1,0-0.1,0.1c-0.2,0-0.2,0-0.2,0c7.8,6.5,20.3,5.4,20.3,5.4c2.899-0.2,4.3-1.1,4.899-2.3
	c1.301-2.4-0.801-5.8-0.801-5.8c-1.3-0.5-2.398-0.9-3.7-1c-1.6-0.3-3.2-0.4-4.7-0.4c-0.2,0-0.5,0-0.7,0c-0.4,0-0.7,0-1.1,0.1
	c-0.4,0-0.9,0.1-1.3,0.1c-2.1,0.2-4.1,0.7-5.8,1.2c-0.3,0.1-0.6,0.2-0.9,0.3c-1.5,0.4-2.9,1-3.9,1.4c-0.1,0.1-0.3,0.1-0.4,0.2
	c-0.2,0.1-0.3,0.1-0.4,0.2c-0.1,0-0.2,0.1-0.3,0.1s-0.1,0-0.2,0.1c0,0,0,0-0.1,0c-0.4,0.2-0.6,0.3-0.8,0.3
	C263.3,84.3,263.3,84.3,263.1,84.3z M265.7,60.7c1.7,1.2,3,1.7,4,1.9c0,0,0,0,0.1,0c2.1,0.4,2.9-0.7,3.2-1.3c1.4,1.5,2.7,2,3.9,1.9
	l0,0l0,0l0,0c2.1,0.1,3.8-1.5,4.3-2c1.4,1.4,2.6,2,3.6,2.1l0,0c2.601,0.6,4-1.8,4.4-2.5c2,2,3.6,2.5,4.8,2.4c1.3,0.1,2.1-0.6,2.5-1
	c1.1,1.4,2.2,1.8,3.3,1.8l0,0c1.9,0.1,3.5-1.3,4-1.8c0.9,1,1.8,1.4,2.7,1.3c1.9,0.1,3.6-1.7,4.1-2.4c0.7,0.8,1.602,1.3,2.5,1.6
	c0.102,0,0.2,0.1,0.2,0.1c1.102,0.4,2.4,0.5,3.5,0.5c0.8,0,1.602-0.1,2.2-0.2c-3.1,2.2,2.8,11.5,1.4,16.4H319.3c0,0,0,0,0-0.1
	s0-0.3,0-0.6l0,0c-0.1-2.2-1.6-9.8-17.3-9c0,0,0,0,0.1,0.1H302c0,0,0.8,1.3,0.9,2.7c0,0,0,0.1,0,0.2c0,0.5-0.102,1-0.5,1.5
	c0,0,0,0,0.1,0c0,0.1-0.1,0.1-0.1,0.2c0,0,1-0.1,2.5-0.1v0.4c-2,1.1-3.2,2.7-3.9,4.6c-2.3,5.8,1.3,14.1,1.3,14.1
	c7.5,2.9,6.7,10.1,6.7,10.1c0,0.6-0.1,1.1-0.2,1.5c-1.7,4-8.6,2.6-10.2,2.2l0,0v0.1c0,0.1-0.1,0.2-0.1,0.3l0,0c0,0.1,0,0.2-0.1,0.2
	v0.1c0,0.1-0.102,0.1-0.102,0.1v0.1c0,0.1-0.1,0.2-0.1,0.2c-2.301-0.1-3.602,0.8-3.602,0.8c-8.398-1.9-14.1,2.5-17.3,6.2
	c-0.2,0.2-0.4,0.4-0.5,0.6c-1,1.2-1.7,2.3-2.1,3.1c0,0.1-0.1,0.1-0.1,0.2l-0.1,0.1c-0.1,0.2-0.2,0.3-0.2,0.4
	c-1.5-4.2-11.5-9.7-11.5-9.7c1.6-3.6-5.7-7.5-5.7-7.5H257c-0.1-0.1-0.2-0.1-0.2-0.1l0,0c-3-2.3,0.8-30,0.8-30c4-3.8,2.4-8.1,1.8-9.5
	c0.4,0.4,0.8,0.7,1.1,0.8l0,0C263.5,65.4,265.4,61.3,265.7,60.7z"/>
<path fill="#FFFFFF" stroke="#000000" stroke-miterlimit="10" d="M246.9,587.4l-0.1,0.5c0,0,0,0-0.1,0c-0.3,0.6-0.9,8.6-1.2,11.698
	c0,0.2,0,0.302,0,0.4s0,0.2,0,0.3l0,0l0,0v0.102c0.1-1.602,0.7-12.102,1.3-13.302c0,0,0,0,0.2,0.102l0,0l0,0L246.9,587.4
	L246.9,587.4z"/>
<path fill="#FFFFFF" stroke="#000000" stroke-miterlimit="10" d="M246.5,591l0.2-1.7v-0.1l-0.4,4.8c-0.2,3.2-0.4,6.3-0.4,6.3v0.5
	l0,0c-0.1-0.1-0.2-0.1-0.3-0.2c0-0.1,0-0.198,0-0.3l0,0l0,0c0-0.1,0-0.2,0-0.3v-0.4L246.5,591z"/>
<path fill="#FFFFFF" stroke="#000000" stroke-miterlimit="10" d="M246.9,587.9l-0.2,1.398v0.102l-0.2,1.698l-0.9,8.5
	C245.9,596.4,246.5,588.4,246.9,587.9C246.8,587.8,246.8,587.8,246.9,587.9z"/>
<path fill="#FFFFFF" stroke="#000000" stroke-miterlimit="10" d="M281.7,611c-0.1,0.1-0.3,0.2-0.4,0.2
	C281.4,611.2,281.5,611.1,281.7,611z"/>
<path fill="#FFFFFF" stroke="#000000" stroke-miterlimit="10" d="M281.3,611.3c-0.1,0.102-0.2,0.102-0.3,0.2
	C281.1,611.4,281.2,611.3,281.3,611.3z"/>
<path fill="#FFFFFF" stroke="#000000" stroke-miterlimit="10" d="M302.6,74.5c0.301-0.5,0.4-1,0.4-1.5c0-0.1,0-0.1,0-0.2
	c0-1.2-0.6-2.3-0.8-2.7c15.3-0.9,17,6.4,17.2,8.9l0,0c0,0.3,0,0.5,0,0.6c-3.302-5.1-10.5-5.6-14.301-5.4
	C303.8,74.3,302.9,74.4,302.6,74.5z"/>
<path fill="#FFFFFF" stroke="#000000" stroke-miterlimit="10" d="M274.5,600.7c-4.5-0.602-8.5-1.9-12.1-3.4
	C266,598.8,270,600.1,274.5,600.7z"/>
<path fill="#FFFFFF" stroke="#000000" stroke-miterlimit="10" d="M265.6,575.4c12.3,0.198,24.1,5.6,28.9,8.1
	c0.2,0.1,0.3,0.2,0.5,0.2c1.2,0.6,1.8,1,1.8,1s-0.3,5.398-0.6,12.898H296c0,0-0.1,0-0.1,0.102c0,0,0,0,0-0.102h-0.2
	c-2.9,1.2-5.601,2.102-8.3,2.5c-2,0.4-3.9,0.602-5.7,0.7h-0.1l0,0l0,0c-0.2,0-0.4,0-0.6,0c-0.8,0-1.6,0-2.3,0h-0.1
	c-0.9,0-1.8-0.1-2.7-0.2c-0.4-0.1-0.9-0.1-1.3-0.198c-4.4-0.602-8.5-1.9-12.1-3.4c-0.4-0.2-0.7-0.3-1.1-0.5c-0.3-0.1-0.7-0.3-1-0.5
	c-0.5-0.3-1-0.5-1.6-0.8c-2.9-1.5-5.4-3.2-7.3-4.602c-1.3-1.1-2.4-1.8-3.2-2.6c0.1-0.1-0.2-0.3-0.5-0.4c-0.1-0.1-0.3-0.198-0.3-0.3
	c0,0.102,0.1,0.102,0.1,0.2c0,0-0.1,0-0.1-0.1l0,0c-0.1-0.301-0.3-0.4-0.4-0.4v-0.1l0,0l0.1-0.5c0,0,0-0.2,0-0.301v-0.199l0.2-1.7
	c0.1-1.5,0.4-3.601,0.7-4.5c5.1-3.3,10.5-4.5,16.9-4.7h0.3C265.3,575.4,265.4,575.4,265.6,575.4z"/>
<path fill="#FFFFFF" stroke="#000000" stroke-miterlimit="10" d="M245.6,599.5v0.4C245.6,599.8,245.6,599.7,245.6,599.5z"/>
<path fill="#FFFFFF" stroke="#000000" stroke-miterlimit="10" d="M269.6,62.6c-1-0.2-2.3-0.8-4-2c0,0,0,0,0,0.1
	c-0.1-0.1-0.2-0.1-0.3-0.2c0,0-1.9,4.5-4.6,3.4l0,0c-0.4-0.3-0.9-0.6-1.4-1.2c0,0.1,0.1,0.2,0.2,0.4c-0.2-0.1-0.4-0.3-0.5-0.6
	c0.2,0.4,3,5.5-1.6,9.9c0,0-4.1,29.5-0.5,30.2c0.1,0.1,0.2,0.1,0.3,0.1c1.2,0.7,6.9,4.3,5.5,7.4c0,0,10.8,6,11.6,10.2
	c0,0-4.8,11.9-2.9,13.7c0,0,0,0,0.1,0c0.1,0.1,0.1,0.2,0.2,0.3c0,0,7.6-2.7,7.6-9.6c0,0,4.6,3.8,7.8-2.9c0.9,1,3.5,3.7,7.102,5.2
	c0,0,0,0,0.1,0c4.102,1.9,9.7,2.3,15.602-3.4l2.699,2.9c0,0,0.601,0.9,1.399,2.3c0.2,0.2,0.5,0.4,0.7,0.6
	c3.398,5.9,10.398,20.2-1.602,23.7c0,0,0,0.1,0,0.2c-0.198-0.1-0.3-0.2-0.3-0.2s-1,4-4.898,3.4c0,0-0.102,0-0.2,0
	c-0.7-0.2-1.5-0.5-2.4-1c0,0,0,0-0.1,0.1c-0.102,0-0.2-0.1-0.2-0.1s-2.101,3.6-4.7,3.9l0,0c-0.398,0-0.898-0.1-1.398-0.4
	c0,0,0,0.1-0.102,0.1c-0.1,0-0.199-0.1-0.3-0.1c0,0-0.899,2.2-2.7,2.3l0,0c-0.5,0-1.1-0.3-1.8-0.8c0,0,0,0.1-0.101,0.1
	s-0.101-0.1-0.199-0.1c0,0-0.4,0.8-2,1.2l0,0c-0.9,0.2-2.2,0.2-4-0.1c0,0,0,0-0.102,0c-0.1,0-0.1,0-0.199,0c0,0,0,0,0,0.1
	c0,0,0,0-0.101,0c-0.1-0.3-0.1-0.4-0.1-0.4s-2.9,0.8-6.1-1.1l0,0c-0.2-0.2-0.5-0.3-0.7-0.5c0,0,0,0-0.1,0c-0.1-0.1-0.3-0.2-0.4-0.3
	c0,0-4.7,0.3-7.1-1.1l0,0c-0.5-0.4-0.9-0.9-0.9-1.6c0,0-0.1,0.2-0.3,0.5c-0.1-0.2-0.2-0.5-0.2-0.8c0,0-2.9,4.6-6.3,2.9
	c0,0,0,0-0.1,0c-0.2-0.1-0.3-0.2-0.5-0.3c0,0.1,0.1,0.2,0.1,0.3h-0.1c0,0,0,0-0.1,0l0,0c-1.7,0-7.1-0.5-12.4-5
	c-0.1-0.1-0.2-0.2-0.4-0.3l0,0c-0.3-0.3-0.7-0.6-1-0.9l-0.1-0.1c-3-2.9-5.9-7.2-8.3-13.6c-2.2-6.3-3.8-14.7-4.1-25.7
	c0,0-0.1,0-0.3,0.1c0-0.2,0-0.4,0-0.5c0,0-4.6,1.2-7.8-1.8c0,0,0,0.1,0,0.2c-2.9-2.4-3.2-1.7-3.2-6.8c0,0-1.6,4.8-3.6,3.8
	c-2.1-1-2.2-4.2-2.1-6.3c0.5-3,0-2.1,0,0c0,0-20.6,4.2-0.5-27c0,0,0.5-59,29.9-62.9c0,0,49.9-8.4,70.8,21.8c0,0,8,17.3,3.2,25.5l0,0
	c0,0,0,0-0.1,0.1c-0.2,0.3-0.602,0.8-1.302,1.5c-0.398,0.3-0.8,0.7-1.198,1c0,0-0.102,0-0.102,0.1c-0.6,0.3-1.3,0.6-2,0.9
	c-0.2,0-0.3,0.2-0.3,0.2s-0.1,0-0.3,0c0,0-0.102,0-0.2,0l0,0l0,0l0,0c-1.1,0.1-3.6,0.3-5.8-0.3c-0.102,0-0.2-0.1-0.2-0.1
	c-0.9-0.4-1.8-0.9-2.4-1.8c0,0,0,0.1-0.198,0.2c-0.102-0.1-0.102-0.1-0.2-0.2c0,0-1.8,2.4-4,2.5c-0.8,0-1.7-0.5-2.5-1.5
	c0,0-0.101,0.1-0.2,0.2c-0.1,0-0.1-0.1-0.1-0.2c0,0-1.801,1.9-3.801,2l0,0c-1-0.1-2.101-0.6-3.101-2c0,0-0.101,0.1-0.2,0.2
	c0-0.1-0.1-0.1-0.1-0.2c0,0-0.801,1.1-2.301,1.2c-1.199,0-2.699-0.7-4.699-2.7c0,0,0,0.1-0.102,0.2C289,61,289,61,288.9,60.9
	c0,0-1.4,3-4.201,2.7l0,0c-1-0.2-2.099-0.9-3.399-2.3c0,0-0.1,0.1-0.2,0.2c0,0-0.1-0.1-0.2-0.2c0,0-1.8,2.1-4.2,2.2l0,0l0,0l0,0
	c-1.2-0.1-2.5-0.6-3.8-2.2c0,0,0,0.1-0.1,0.3c-0.1-0.1-0.1-0.2-0.2-0.3C272.7,61.1,272.1,63,269.6,62.6
	C269.7,62.6,269.7,62.6,269.6,62.6z"/>
<path fill="#FFFFFF" stroke="#000000" stroke-miterlimit="10" d="M282.2,610.7c-0.1,0-0.1,0.1-0.2,0.1
	C282.1,610.8,282.1,610.8,282.2,610.7z"/>
<path fill="#FFFFFF" stroke="#000000" stroke-miterlimit="10" d="M306.3,80.9c0.102,0,0.102-0.1,0.2-0.1c1.7-0.8,4.4-1.4,7.6-0.8
	l0,0c0.102,0,0.2,0,0.302,0.1c0.1,0,0.198,0.1,0.3,0.1v0.2c0,0.3,0,0.5,0,0.8v0.1c0,0.2,0,0.3,0,0.3c-0.2,2.3-1.3,5.4-4.602,5.7
	c-0.898,0.1-1.698-0.3-2.3-0.9c-1-1-1.5-2.5-1.5-3.8c-0.1-0.4-0.1-0.8-0.1-1.2v-0.1C306.3,81.2,306.3,81.1,306.3,80.9
	C306.3,81,306.3,81,306.3,80.9C306.3,81,306.3,80.9,306.3,80.9z"/>
<path fill="#FFFFFF" stroke="#000000" stroke-miterlimit="10" d="M462.9,393.6c0,0,1.898,4.4,0,6.3c-0.2,0.1-0.2,0.399-0.2,0.6
	c0,0.6,0.5,1.7,0.2,2.1c-0.5,1.101-1.302,1.4-2.102,2h-0.1c-2,1.301-3.3,0.301-4.2,0.601c-0.1,0-0.1,0-0.2,0.1
	c-0.1,0.101-0.2,0.101-0.398,0.2c-0.802,0.6-2.2,1.7-3.7,1.1c-2.102-0.899-3-3.3-6.7-7.399c-1.1-1.2-2.4-2.4-3.5-3.6
	c-3.7-3.9-7-7.8-7-7.8s0,0-0.2,0c-0.898-0.6-7-4.9-4.8,2.8c0,0.1,0,0.2,0.1,0.3c0,0,2.2,3.5,2.7,5.4c0,0,9.8,10.5-0.3,7.4
	c-4.9-1.5-15.2-14.3-15.2-14.3s-5.398-5.6-3.3-14.7c-3.3-5.6-7.5-7.8-9.2-8.5c1.9-2.2,3.5-4.3,4.602-5.8c1.1-1.5,1.8-2.5,1.8-2.5
	c3.5-2.2,8.5-10.5,9.5-12.1c0.6,0.8,3.398,3.5,6.1,6.2c3,3,6.102,5.9,6.3,5.9C450.1,368.1,452.1,375.6,462.9,393.6z"/>
<path fill="#FFFFFF" stroke="#000000" stroke-miterlimit="10" d="M420.5,345.4c0,0,0.1,0.1,0.1,0.2c-1,1.6-6,9.9-9.5,12.1
	c0,0-0.6,1-1.8,2.5c-1.1,1.5-2.7,3.6-4.6,5.8c-0.102,0-0.102-0.1-0.2-0.1c3.8-4.5,6.4-8.4,6.4-8.4c1.8-1.1,3.898-3.8,5.698-6.4
	C418.4,348.5,420,346.2,420.5,345.4z"/>
<path fill="#FFFFFF" stroke="#000000" stroke-miterlimit="10" d="M324.8,84.7c7.102,15.2,0.8,22.4,0.8,22.4
	c-1.1,5.4-8.1,8.3-9.8,8.9c0-0.2-0.1-0.3-0.1-0.3c-0.7-0.6-1.2-1-1.602-1.4l0,0c-0.198-0.2-0.398-0.4-0.6-0.6l-0.1-0.1
	c-0.102-0.1-0.102-0.1-0.102-0.2c0.7-0.4,1.3-0.9,1.8-1.5c0.2-0.2,0.301-0.4,0.5-0.5c0.102-0.2,0.301-0.3,0.4-0.5
	c0.2-0.3,0.399-0.5,0.6-0.8c0.102-0.2,0.2-0.4,0.301-0.5c3.399-5.9,3.399-15.7,2.899-21.9c0,0-0.1,0.1-0.2,0.1
	c-0.3-3.4-0.6-5.8-0.6-5.8s0,0,0.1,0h0.102c0.8-0.4,1.3-1.2,1.6-2.1c1.4-4.9-4.8-14.4-1.398-16.4c0.198,0,0.3-0.1,0.398-0.1
	c0.8-0.3,1.602-0.6,2.3-1.1c0,0,0.102,0,0.102-0.1c0.6-0.4,1.1-0.7,1.5-1.1c0.398-0.4,0.7-0.9,1-1.4l0.1-0.1l0,0
	C331.6,70.9,324.8,84.7,324.8,84.7z"/>
<path fill="#FFFFFF" stroke="#000000" stroke-miterlimit="10" d="M324.1,505.8C330.6,560.3,304.9,575,304.9,575
	c-1.102,2.4-2.7,2.7-4.301,2.1c0-0.198,0-0.3,0-0.5c-2.199-0.8-4.301-3.5-4.301-3.5c-3.5-2.198-6.8-3.898-10-5.1h-0.1
	c-2.2-0.8-4.4-1.4-6.6-1.8c-5.6-1.102-10.9-1-15.5-0.5c-8.3,1-14.3,3.6-15.7,4.2c0-0.102,0-0.2,0-0.2v-0.5l4.9-54.5
	c16.7,6.898,41.301-7.9,41.301-7.9C304.1,515,317,509.7,324.1,505.8z"/>
<path fill="#FFFFFF" stroke="#000000" stroke-miterlimit="10" d="M324.7,59.6c-0.3,0.5-0.602,1-1,1.4c-0.4,0.4-0.9,0.8-1.5,1.1
	c0.398-0.3,0.8-0.6,1.2-1C324.1,60.5,324.5,59.9,324.7,59.6z"/>
<path fill="#FFFFFF" stroke="#000000" stroke-miterlimit="10" d="M303,738.8c9,8.102,19.2,17.102,17.8,18.9c0,0,2.7,15.898-21,10.2
	c0,0-24.9-10.802-37.8-20.9c0,0-17.5-2.3-23-12.9c0,0-1.3-6.8,6.5-15.198v0.1c0,0,0.1,0,0.2,0.1l0,0c0,0,2.2,1.801,5.7,4.4
	c2.5,1.9,5.7,4.1,9.3,6.5c0.5,0.4,1.1,0.7,1.6,1.1c1,0.602,2,1.301,3,1.9C278.7,741,295.2,747.8,303,738.8z"/>
<path fill="#FFFFFF" stroke="#000000" stroke-miterlimit="10" d="M319.3,63.3c-3.398,2.1,2.8,11.5,1.4,16.4h-0.2
	c1.4-4.9-4.6-14.3-1.4-16.4C319.1,63.3,319.2,63.3,319.3,63.3z"/>
<path fill="#FFFFFF" stroke="#000000" stroke-miterlimit="10" d="M320.5,79.8h0.2c-0.3,0.9-0.8,1.7-1.602,2.1H319
	C319.7,81.2,320.2,80.5,320.5,79.8z"/>
<path fill="#FFFFFF" stroke="#000000" stroke-miterlimit="10" d="M319.7,87.6c0.5,6.3,0.5,16.1-2.9,21.9c3.3-5.9,3.2-15.5,2.7-21.8
	c0,0,0,0,0-0.1C319.6,87.6,319.6,87.6,319.7,87.6z"/>
<path fill="#FFFFFF" stroke="#000000" stroke-miterlimit="10" d="M319.4,63.2c0.198,0,0.3,0,0.3,0c-0.102,0-0.3,0-0.4,0.1
	C319.3,63.3,319.3,63.3,319.4,63.2z"/>
<path fill="#FFFFFF" stroke="#000000" stroke-miterlimit="10" d="M319.4,63.2c0,0-0.102,0-0.102,0.1c-0.1,0-0.1,0-0.2,0
	c0,0,0.102,0,0.102-0.1l0,0l0,0C319.3,63.3,319.3,63.3,319.4,63.2z"/>
<path fill="#FFFFFF" stroke="#000000" stroke-miterlimit="10" d="M319.4,63.2c-0.102,0-0.102,0-0.2,0l0,0
	C319.3,63.2,319.3,63.2,319.4,63.2z"/>
<path fill="#FFFFFF" stroke="#000000" stroke-miterlimit="10" d="M319.2,63.3l-0.102,0.1c-0.6,0.1-1.3,0.2-2.198,0.2
	c-1.102,0-2.302-0.1-3.5-0.5C315.6,63.6,318.1,63.4,319.2,63.3z"/>
<path fill="#FFFFFF" stroke="#000000" stroke-miterlimit="10" d="M318.7,81.7c0,0,0.5,2.4,0.6,5.9c-2.2,1.2-5.3,2.2-8.2,2.2H311
	c-4,0-7.5-1.8-7.5-7.2c0,0,0.6-0.5,1.7-1.1c0,0,0.1,0,0.1-0.1c0.3-0.2,0.601-0.3,1-0.4c0,0.1,0,0.2,0,0.3v0.1c0,0.4,0,0.7,0,1
	c0,1.4,0.602,3,1.7,4c0.6,0.7,1.5,1.1,2.5,1c3.3-0.5,4.4-3.5,4.6-5.7c0,0,0-0.1,0-0.3v-0.2c0-0.3,0-0.4,0-0.8v-0.3
	c0,0-0.1,0-0.198,0l0,0c0.1,0,0.198,0,0.3,0.1c0.8,0.2,1.5,0.5,2.3,0.8c0.1,0,0.2,0.1,0.3,0.1c0.2,0.1,0.4,0.2,0.602,0.3
	C318.4,81.6,318.6,81.6,318.7,81.7z"/>
<path fill="#FFFFFF" stroke="#000000" stroke-miterlimit="10" d="M316.5,110c0.1-0.2,0.2-0.4,0.3-0.5
	C316.7,109.7,316.6,109.9,316.5,110z"/>
<path fill="#FFFFFF" stroke="#000000" stroke-miterlimit="10" d="M315.7,115.6c0,0,0,0.1,0.1,0.3c-0.2,0.1-0.398,0.1-0.398,0.1
	c-0.4-0.7-0.802-1.3-1.302-1.8C314.5,114.6,315,115,315.7,115.6z"/>
<path fill="#FFFFFF" stroke="#000000" stroke-miterlimit="10" d="M317.4,81c-0.802-0.4-1.602-0.7-2.302-0.8c-0.1,0-0.198,0-0.3-0.1
	V80C315.6,80.3,316.5,80.6,317.4,81z"/>
<path fill="#FFFFFF" stroke="#000000" stroke-miterlimit="10" d="M314.9,81.4c0,0.1,0,0.3,0,0.3c-0.2,2.3-1.302,5.3-4.602,5.7
	c-1,0.1-1.8-0.4-2.5-1c0.602,0.6,1.4,0.9,2.3,0.9c3.302-0.3,4.4-3.5,4.602-5.7c0,0,0-0.1,0-0.3v-0.1c0-0.3,0-0.4,0-0.8v-0.2
	c0,0,0.1,0,0.2,0v0.3c0,0.3,0,0.5,0,0.8V81.4z"/>
<path fill="#FFFFFF" stroke="#000000" stroke-miterlimit="10" d="M314.4,129c0.1,0.1,0.1,0.2,0.198,0.3
	c-0.198-0.2-0.398-0.4-0.698-0.6c-0.802-1.4-1.4-2.3-1.4-2.3l-2.7-2.9l0.102-0.1l3,3.3C313,126.8,313.7,127.7,314.4,129z"/>
<path fill="#FFFFFF" stroke="#000000" stroke-miterlimit="10" d="M313.3,113.5c-0.1,0-0.1-0.1-0.2-0.1l0,0
	C313.2,113.4,313.3,113.5,313.3,113.5z"/>
<path fill="#FFFFFF" stroke="#000000" stroke-miterlimit="10" d="M312.7,153c0,0,0.1,0.1,0.3,0.2c-0.3,0.8-1.6,4-5.2,3.3
	C311.7,157.1,312.7,153,312.7,153z"/>
<path fill="#FFFFFF" stroke="#000000" stroke-miterlimit="10" d="M314.1,80c-3.198-0.6-5.898,0-7.6,0.8c-0.1,0-0.1,0.1-0.2,0.1v-0.1
	C308.3,80,311,79.3,314.1,80z"/>
<path fill="#FFFFFF" stroke="#000000" stroke-miterlimit="10" d="M311,89.8c-4.1,0.1-7.8-1.7-7.9-7.2c0.102,0,0.801-0.6,2.102-1.1
	c-1.102,0.6-1.7,1.1-1.7,1.1C303.6,88,307.1,89.8,311,89.8z"/>
<path fill="#FFFFFF" stroke="#000000" stroke-miterlimit="10" d="M310.5,61.1c0,0.1,0.1,0.1,0.2,0.2c-0.5,0.6-2.2,2.5-4.102,2.4
	C308.7,63.6,310.5,61.1,310.5,61.1z"/>
<path fill="#FFFFFF" stroke="#000000" stroke-miterlimit="10" d="M309.5,123.2l0.4,0.4c-5.801,5.8-11.4,5.3-15.602,3.4
	c1.5,0.6,3.2,1,5,1c3.102,0,6.5-1.2,10.102-4.7l-2.7-3c-8.4-4.7-18.5,0.4-19.7,1v-0.1c0,0,11-6,19.9-1L309.5,123.2z"/>
<path fill="#FFFFFF" stroke="#000000" stroke-miterlimit="10" d="M309.4,103.2c0,0.1,0,0.1,0,0.1c0,1-0.2,1.9-0.602,2.5
	c0.102-0.2,0.2-0.4,0.3-0.6C309.2,104.6,309.4,104,309.4,103.2z"/>
<path fill="#FFFFFF" stroke="#000000" stroke-miterlimit="10" d="M306.7,120.3l2.7,3c-3.5,3.5-7,4.7-10.102,4.7c-1.8,0-3.5-0.4-5-1
	h-0.1c-4.2-2-7-5.5-7-5.5c0,0.1-0.102,0.2-0.102,0.3c-0.1-0.2-0.199-0.3-0.3-0.3c0,0,0-0.1,0.101-0.1
	C288.1,120.7,298.3,115.6,306.7,120.3z"/>
<path fill="#FFFFFF" stroke="#000000" stroke-miterlimit="10" d="M309,105.2c-0.1,0.2-0.1,0.4-0.3,0.6c-2,3.4-8.5,2.1-10,1.7v-0.1
	C300.4,107.8,307.3,109.2,309,105.2z"/>
<path fill="#FFFFFF" stroke="#000000" stroke-miterlimit="10" d="M306.3,81c0,0.1-0.1,0.2-0.1,0.4C306.3,81.2,306.3,81.1,306.3,81
	L306.3,81z"/>
<path fill="#FFFFFF" stroke="#000000" stroke-miterlimit="10" d="M319.4,79c-0.2-2.4-1.9-9.7-17.2-8.9C302.1,70,302.1,70,302.1,70
	C317.8,69.2,319.3,76.8,319.4,79z"/>
<path fill="#FFFFFF" stroke="#000000" stroke-miterlimit="10" d="M305.1,75v0.2c-1.5,0.8-2.6,1.9-3.3,3.1
	C302.5,77,303.5,75.9,305.1,75z"/>
<path fill="#FFFFFF" stroke="#000000" stroke-miterlimit="10" d="M305.1,75L305.1,75c-1.6,0.9-2.6,2.1-3.3,3.4
	c-0.2,0.4-0.399,0.8-0.6,1.1C301.8,77.6,303,76,305.1,75L305.1,75z"/>
<path fill="#FFFFFF" stroke="#000000" stroke-miterlimit="10" d="M304.9,155.5c0.1,0,0.199,0.1,0.199,0.1
	c-0.399,0.7-2.5,3.8-4.899,3.8C302.8,159.1,304.9,155.5,304.9,155.5z"/>
<path fill="#FFFFFF" stroke="#000000" stroke-miterlimit="10" d="M303.7,62.2c0,0.1,0.1,0.1,0.1,0.2c-0.5,0.5-2.1,1.9-4,1.8
	C301.9,64.1,303.7,62.2,303.7,62.2z"/>
<path fill="#FFFFFF" stroke="#000000" stroke-miterlimit="10" d="M298.7,107.5c1.5,0.4,8,1.7,10-1.7c-1.8,3.8-8.5,2.4-10.101,2
	C298.7,107.8,298.7,107.7,298.7,107.5z"/>
<path fill="#FFFFFF" stroke="#000000" stroke-miterlimit="10" d="M303,73c0,0.5-0.1,1-0.4,1.5c-0.1,0-0.1,0-0.1,0
	C302.9,74,303,73.5,303,73z"/>
<path fill="#FFFFFF" stroke="#000000" stroke-miterlimit="10" d="M301.2,79.5c0.2-0.4,0.3-0.8,0.6-1.1c-0.7,1.4-1,2.9-1.1,4.4
	C300.7,81.7,300.9,80.5,301.2,79.5z"/>
<path fill="#FFFFFF" stroke="#000000" stroke-miterlimit="10" d="M300.7,577.2c0.1,2-0.2,8.2-3.8,7.7c0,0-0.7-0.4-1.801-1
	c-0.101-0.102-0.301-0.2-0.5-0.2c-4.801-2.5-16.701-8-28.899-8.102c-0.2,0-0.3,0-0.5,0h-0.3c-5.8,0-11.6,1.2-16.8,4.4
	c-0.1-0.3-0.1-1.8,0.1-3.8c0-0.2,0-0.2,0-0.3c0-0.102,0-0.102,0-0.301c0-1.5,0.2-3.301,0.3-5.301v-0.1c2.5-1.101,19.7-8.2,37.8-1.5
	c3.3,1.2,6.7,2.899,10.2,5.1C296.3,573.7,298.4,576.3,300.7,577.2C300.6,577.2,300.7,577.2,300.7,577.2z"/>
<path fill="#FFFFFF" stroke="#000000" stroke-miterlimit="10" d="M300.7,577.2C300.7,577.2,300.6,577.2,300.7,577.2
	c-2.3-0.9-4.3-3.5-4.3-3.5c-3.5-2.3-6.801-3.9-10.2-5.102c-18.1-6.698-35.3,0.4-37.8,1.5l0,0c1.4-0.6,7.5-3.198,15.7-4.198
	c4.6-0.5,9.9-0.602,15.5,0.5c2.2,0.398,4.4,1,6.6,1.8h0.1c3.3,1.2,6.601,2.8,10,5.1c0,0,2.101,2.7,4.3,3.5
	C300.7,576.8,300.7,577,300.7,577.2z"/>
<path fill="#FFFFFF" stroke="#000000" stroke-miterlimit="10" d="M298.8,107.4c0,0.1,0,0.1,0,0.1l0,0
	C298.7,107.5,298.7,107.4,298.8,107.4C298.7,107.4,298.8,107.4,298.8,107.4z"/>
<path fill="#FFFFFF" stroke="#000000" stroke-miterlimit="10" d="M298.7,107.5L298.7,107.5c0,0.2,0,0.3-0.101,0.4l0,0l0,0
	C298.6,107.8,298.7,107.6,298.7,107.5z"/>
<path fill="#FFFFFF" stroke="#000000" stroke-miterlimit="10" d="M298.6,158.9c0.102,0.1,0.2,0.1,0.301,0.1
	c-0.199,0.5-1.199,2.3-2.899,2.1C297.7,161.1,298.6,158.9,298.6,158.9z"/>
<path fill="#FFFFFF" stroke="#000000" stroke-miterlimit="10" d="M298.6,107.9c-0.1,0.4-0.199,0.6-0.199,0.6v-0.1
	c0-0.1,0-0.1,0.101-0.2v-0.1C298.5,108,298.6,107.9,298.6,107.9L298.6,107.9z"/>
<path fill="#FFFFFF" stroke="#000000" stroke-miterlimit="10" d="M298.5,108.2c0,0.1,0,0.1-0.1,0.2v-0.1
	C298.4,108.3,298.4,108.3,298.5,108.2z"/>
<path fill="#FFFFFF" stroke="#000000" stroke-miterlimit="10" d="M294.8,109.3c0,0,1.2-0.9,3.601-0.8c0,0.1-0.101,0.2-0.101,0.2v0.3
	c-2.399-0.1-3.7,0.8-3.7,0.8c-8.3-2.2-13.898,2.1-17.1,5.8C280.6,111.8,286.4,107.5,294.8,109.3z"/>
<path fill="#FFFFFF" stroke="#000000" stroke-miterlimit="10" d="M296.3,62.2c0,0.1,0.101,0.1,0.101,0.2c-0.301,0.4-1.199,1-2.5,1
	C295.5,63.3,296.3,62.2,296.3,62.2z"/>
<path fill="#FFFFFF" stroke="#000000" stroke-miterlimit="10" d="M295.9,597.7C295.9,597.8,295.9,597.8,295.9,597.7
	c-2.801,1.2-5.5,2-8.102,2.5c-2,0.398-4,0.6-5.9,0.7h-0.1c1.9-0.102,3.801-0.302,5.7-0.7c2.7-0.5,5.399-1.3,8.3-2.5H295.9z"/>
<path fill="#FFFFFF" stroke="#000000" stroke-miterlimit="10" d="M294.8,731.1c2.4,2.302,5.2,4.802,8.3,7.602
	c-7.8,9-24.3,2.3-37.6-5.7c10.6,3,27.8-3,27.8-3l0.5-0.3l0.2,0.2C294.1,730.3,294.4,730.8,294.8,731.1z"/>
<path fill="#FFFFFF" stroke="#000000" stroke-miterlimit="10" d="M245.3,714.7l-0.1-0.4l0,0c0.5-0.1,1-0.398,1.7-1
	c0.1-0.1,0.2-0.2,0.3-0.3c0.2-0.1,0.3-0.3,0.5-0.5c0.1-0.1,0.2-0.2,0.3-0.3c0.3-0.3,0.6-0.602,0.8-0.9
	c4.4-4.8,10.4-14.398,10.4-14.398l-16,2.898v0.102H243c-0.5-3.802-1-7.802-1.4-12.302h0.2l0,0l24.1-1.698l13.8-11.2l0.3-0.2
	c-2.5,0.6-17-5.4-17-5.4s0,0.102-0.1,0.102c-1.7,2.5-20.4,13.398-21.5,14.199c0-0.899-0.2-1.801-0.2-2.601v-0.3v-0.3l-0.1-1.7
	c0,0.5,0.1,1,0.1,1.5l-0.6-8.4l0,0l10.8-8.398h-0.1l0.1-0.102l-10.2-3.1v-0.2v-0.3l1.1-12.8c5.7,3.8,18.5,8.5,18.5,8.5
	c2.5,1.6,17-8.7,17-8.7s0,0-0.1,0c0.1-0.1,0.2-0.2,0.2-0.2c-5.4,0.601-17.3-8.7-27.5-10.399c-0.1,0-0.1,0-0.1,0
	c-0.7-0.101-1.4-0.199-2.1-0.199c0,0,0,0-0.1,0c-2.3-0.2-4,0-5.2,0.199c-0.1,0-0.2,0-0.3,0V636l1.1-12.3c0.5,0,1-0.102,1.5-0.102
	c16.8-1.5,31.9-9.6,38.7-13.8c1.3-0.8,2.4-1.5,3-2c-0.102,0.102-0.2,0.102-0.301,0.2c0.199-0.1,0.301-0.2,0.5-0.3
	c-0.301,0.2-0.601,0.399-0.899,0.5l0,0c-0.9,0.5-1.9,0.899-2.9,1.3c-12.8,4.1-30.8-5-37.5-8.7l0,0v-0.5c0,0,0.2-3.1,0.4-6.3l0.4-4.8
	l0.4-1.2c0.9,0.7,2.8,2.2,4.1,3c5.1,3.8,14.1,9,25.3,9.9l0,0c0.7,0.1,1.4,0.1,2.1,0.1c0,0,0.1,0,0.2,0h0.1c0.3,0,0.6,0,0.9,0h0.1
	c0.3,0,0.7,0,1,0c0.1,0,0.1,0,0.2,0c0.2,0,0.4,0,0.7,0h0.1h0.1c1.9-0.1,3.9-0.3,5.9-0.7c2.7-0.6,5.3-1.3,8.101-2.5
	c-0.199,4.5-0.5,9.7-0.801,15H294.9c-1.7,9.3-27.2,18-27.2,18l0.3,0.102c-0.1,0-0.1,0-0.1,0l19.8,7.398l5.7-2.898
	c-0.301,2.1-0.4,3.5-0.602,4c0,0-0.6,3.898-1.6,9.8c-2.9,5.398-19.5,12-19.5,12v0.1l0,0c1.1,3.8,17,5.7,17,5.7h0.5
	c-0.5,4.4-0.801,9.1-1,13.5c-1.602,1.5-8.6,7.4-8.6,7.4c0.1,0,0.1,0,0.2,0c-0.1,0.1-0.2,0.198-0.2,0.198c3-0.3,7.9,0.9,8.4,1
	c0,1.802,0,3.5,0.2,5c0,0-0.2,2.802-0.301,7c-0.101-0.198-0.199-0.3-0.399-0.398c0,0,0,0-0.101-0.102c0,0-0.101-0.1-0.199-0.1
	c-3.2-2.2-14.8-1.4-14.8-1.4c-9.2,10.102-12.1,18.5-12.1,18.5c0.2,0.2,0.5,0.4,0.7,0.5c0.3,0.2,0.7,0.4,1.1,0.602
	c2.1,1.1,5,1.7,8,2.1l0,0c0.6,0.102,1.1,0.102,1.7,0.2c0.3,0,0.6,0.1,0.9,0.1c8.2,0.602,16.8-0.398,16.8-0.398h0.2
	c0.8,3.6,2.1,6.8,3.8,9.2l-0.5,0.3c0,0-17.1,6-27.8,3c-1-0.602-2-1.2-3-1.9c-0.5-0.399-1.1-0.7-1.6-1.1c-8-5.2-14-10.2-15.1-10.9
	v-0.1l0.2-0.102c0,0-0.2-1.198-0.6-3.6v-0.1l-0.2-0.9c0.1,0,0.1,0,0.2,0C245.2,714.4,245.3,714.5,245.3,714.7z"/>
<path fill="#FFFFFF" stroke="#000000" stroke-miterlimit="10" d="M295.2,612.8c-0.5,8.7-1,17.4-1.601,22.5L293.4,635.4
	c0-0.102,0-0.2,0-0.302l-5.9,3l-19.6-7.3C269.8,630.2,293.5,621.8,295.2,612.8z"/>
<path fill="#FFFFFF" stroke="#000000" stroke-miterlimit="10" d="M293.8,160.4c0.101,0.1,0.101,0.1,0.2,0.1c-0.2,0.3-0.8,0.8-2.2,1
	C293.4,161.2,293.8,160.4,293.8,160.4z"/>
<path fill="#FFFFFF" stroke="#000000" stroke-miterlimit="10" d="M293.5,635.1c0,0.102,0,0.2,0,0.302l-5.7,2.898L268,630.9
	c0,0,0,0,0.1,0l19.6,7.3L293.5,635.1z"/>
<path fill="#FFFFFF" stroke="#000000" stroke-miterlimit="10" d="M287.4,161.5c1.5,5.6,19.198,73.5,5.6,86.4c0,0-16.7,5.2-20.3,0.7
	c0.3-2,8.7-53.6-7.8-89.6c0.2,0,0.3,0,0.3,0s0,0,0.1,0c2.9,1.9,5.6-1,6.4-2.1c0.2,0.5,0.6,0.9,1.2,1.2l0,0c2,1.5,6.7,1.4,7.4,1.4
	c0.3,0.2,0.6,0.4,0.8,0.5l0,0C283.9,161.9,286.5,161.7,287.4,161.5z"/>
<path fill="#FFFFFF" stroke="#000000" stroke-miterlimit="10" d="M291.4,75.4c-0.102,0-0.2,0-0.4-0.1c-0.6-1.3,1.5-5.3,1.5-5.3
	c-1.7-0.2-3.2-0.4-4.7-0.5c1.5,0.1,3.101,0.3,4.9,0.5C292.7,70,290.3,74.2,291.4,75.4z"/>
<path fill="#FFFFFF" stroke="#000000" stroke-miterlimit="10" d="M292.5,70c0,0-2.1,4-1.5,5.3c-0.2-0.1-0.5-0.1-0.8-0.2
	c0,0,0,0-0.101,0s-0.199,0-0.301-0.1c-3-0.9-11.3-2.2-25,3.1c0.3-0.9,3.6-7.7,16.9-8.5c0.5,0,0.9,0,1.4-0.1c1,0,2.1,0,3.2,0
	c0.5,0,1,0,1.5,0.1C289.3,69.6,290.9,69.8,292.5,70z"/>
<path fill="#FFFFFF" stroke="#000000" stroke-miterlimit="10" d="M291.4,649.3c-0.602,4.8-1.602,11.102-2.2,17.7l0,0
	c0-0.1,0-0.1,0-0.2h-0.5c0,0-15.5-1.898-16.9-5.6C272.8,660.9,288.8,654.5,291.4,649.3z"/>
<path fill="#FFFFFF" stroke="#000000" stroke-miterlimit="10" d="M294.3,127c-3.6-1.5-6.2-4.2-7.1-5.2c0-0.1,0.1-0.2,0.1-0.3
	C287.3,121.5,290,125,294.3,127z"/>
<path fill="#FFFFFF" stroke="#000000" stroke-miterlimit="10" d="M289.5,343.6c0.1,0.5,0.4,2.4,0.6,4.8
	C289.9,345.7,289.5,343.6,289.5,343.6L289.5,343.6z"/>
<path fill="#FFFFFF" stroke="#000000" stroke-miterlimit="10" d="M289.8,720.6h-0.2c0,0-8.6,1-16.8,0.4c-0.3,0-0.6,0-0.9-0.1
	c-0.6-0.102-1.1-0.102-1.7-0.2l0,0c-3-0.4-5.9-1-8-2.102c-0.4-0.198-0.8-0.398-1.1-0.6c-0.3-0.2-0.5-0.4-0.7-0.5
	c0,0,2.9-8.4,12.1-18.5c0.1,0.1,11.4-0.7,14.8,1.4c0.101,0,0.101,0.1,0.2,0.1c0,0,0,0,0.1,0.1c0.2,0.2,0.301,0.302,0.4,0.5V701
	c0.1,0.1,0.1,0.2,0.2,0.2C288.1,706.6,288.4,714.1,289.8,720.6z"/>
<path fill="#FFFFFF" stroke="#000000" stroke-miterlimit="10" d="M289.2,666.8c0,0,0,0.102,0,0.2h-0.5c0,0-15.9-2-17-5.7l0,0
	c1.4,3.7,16.899,5.602,16.899,5.602h0.601V666.8z"/>
<path fill="#FFFFFF" stroke="#000000" stroke-miterlimit="10" d="M289,60.7c0.1,0.1,0.1,0.1,0.2,0.2c-0.4,0.7-1.8,3.1-4.4,2.5
	C287.6,63.7,289,60.7,289,60.7z"/>
<path fill="#FFFFFF" stroke="#000000" stroke-miterlimit="10" d="M287.3,81.9c0,0,2.101,3.3,0.9,5.6c-0.601,1.1-2,2-4.8,2.2
	c0,0-12.5,1-20.2-5.3c0.3-0.1,0.5-0.3,0.7-0.4l0,0c0.1,0,0.2-0.1,0.2-0.1c0.1,0,0.2-0.1,0.3-0.1c0.1-0.1,0.3-0.1,0.4-0.2
	c0.1-0.1,0.3-0.1,0.4-0.2c1-0.4,2.4-0.9,3.9-1.4c0.3-0.1,0.6-0.2,0.9-0.3c1.7-0.5,3.6-0.9,5.7-1v0.1c-0.5,0.6-0.6,1.4-0.6,2.3
	c0,2.3,0.5,4.4,3.8,4.4c2,0,3.1-0.6,3.7-1.5c0.1-0.1,0.1-0.1,0.1-0.2c0.6-0.8,0.8-1.8,1.1-2.8s0.2-1.3-0.1-2.1
	C285,81.1,286.1,81.4,287.3,81.9z"/>
<path fill="#FFFFFF" stroke="#000000" stroke-miterlimit="10" d="M288.2,680.6C288,683.4,288,686.2,288,688.9
	c-0.5-0.2-5.2-1.302-8.2-1.102C281,686.9,287,682,288.2,680.6z"/>
<path fill="#FFFFFF" stroke="#000000" stroke-miterlimit="10" d="M288.1,688.9v0.1c-0.5-0.1-5.398-1.3-8.398-1c0,0,0.1-0.1,0.2-0.2
	C282.9,687.6,287.6,688.8,288.1,688.9z"/>
<path fill="#FFFFFF" stroke="#000000" stroke-miterlimit="10" d="M287.9,701L287.9,701c-0.102-0.1-0.2-0.3-0.4-0.4
	C287.7,700.7,287.8,700.8,287.9,701z"/>
<path fill="#FFFFFF" stroke="#000000" stroke-miterlimit="10" d="M287.6,161.5c0,0-0.1,0-0.199,0v-0.1
	C287.5,161.5,287.6,161.5,287.6,161.5z"/>
<path fill="#FFFFFF" stroke="#000000" stroke-miterlimit="10" d="M287.3,161.2c0,0,0,0.1,0.101,0.4c-0.899,0.2-3.5,0.4-6.199-1.5
	C284.4,162,287.3,161.2,287.3,161.2z"/>
<path fill="#FFFFFF" stroke="#000000" stroke-miterlimit="10" d="M284.4,388.7c2,1.2,3.398,0.9,4.3,0.1c-0.9,0.9-2.3,1.3-4.5,0
	c0,0-1,0.4-1.8,1.1C283.2,389.2,284.4,388.7,284.4,388.7z"/>
<path fill="#FFFFFF" stroke="#000000" stroke-miterlimit="10" d="M286.3,608.2c0.3-0.2,0.601-0.4,0.9-0.5
	c-0.101,0.1-0.3,0.2-0.5,0.3C286.5,608,286.4,608.1,286.3,608.2z"/>
<path fill="#FFFFFF" stroke="#000000" stroke-miterlimit="10" d="M286.9,121.3c0,0.1,0,0.1-0.102,0.1l-0.1-0.1
	C286.7,121.3,286.8,121.3,286.9,121.3z"/>
<path fill="#FFFFFF" stroke="#000000" stroke-miterlimit="10" d="M288.2,87.5c-0.601,1.2-2,2.1-4.9,2.3c0,0-12.5,1.1-20.3-5.4
	c0,0,0,0,0.2,0c0.2,0,0.2,0,0.2,0l0,0c7.6,6.3,20.2,5.3,20.2,5.3C286.2,89.5,287.6,88.6,288.2,87.5z"/>
<path fill="#FFFFFF" stroke="#000000" stroke-miterlimit="10" d="M286.5,360.3c0.2,0.1,0.5,0.2,0.7,0.3c-0.3,0-0.5-0.1-0.9-0.3
	c0,0-0.3-0.1-0.6-0.3h0.1C286.2,360.1,286.5,360.3,286.5,360.3z"/>
<path fill="#FFFFFF" stroke="#000000" stroke-miterlimit="10" d="M286.3,608.2c0.101-0.102,0.3-0.102,0.4-0.2
	c-0.7,0.5-1.601,1-2.601,1.6c-0.101,0-0.101,0.102-0.201,0.102h-0.1c-4.3,2.6-11.5,6.5-20.1,9.5c-0.5,0.2-1,0.3-1.5,0.5
	c-1.5,0.5-3.1,1-4.8,1.398c-3.9,1-8,1.802-12.1,2.302c-0.5,0-1.1,0.1-1.6,0.1v-0.3l2-22.3c6.6,3.898,24.7,12.698,37.3,8.698
	C284.2,609.3,285.2,608.8,286.3,608.2L286.3,608.2z"/>
<path fill="#FFFFFF" stroke="#000000" stroke-miterlimit="10" d="M285.4,382.4c0,0,0.199-1.1,0.3-2.8c-0.101,1.8-0.3,2.9-0.3,2.9
	c-0.301,3.2-5.102-0.3-5.102-0.3c-1.7-0.3-2.5,2.7-2.7,3.5c0.1-0.8,1-4,2.7-3.6C280.3,382.1,284.9,385.5,285.4,382.4z"/>
<path fill="#FFFFFF" stroke="#000000" stroke-miterlimit="10" d="M283.3,609.5c1.101-0.3,2.101-0.8,2.9-1.3
	c-1,0.6-2.101,1-3.1,1.398c-12.7,4-30.7-4.8-37.3-8.698v-0.2C252.5,604.5,270.5,613.6,283.3,609.5z"/>
<path fill="#FFFFFF" stroke="#000000" stroke-miterlimit="10" d="M294.5,583.6c-4.8-2.5-16.7-7.898-28.9-8.1
	C277.8,575.6,289.7,581.1,294.5,583.6z"/>
<path fill="#FFFFFF" stroke="#000000" stroke-miterlimit="10" d="M283.6,80.8c0.5,0.8,0.6,1,0.2,2.3c-0.2,0.9-0.4,1.9-0.9,2.6
	c0,0.1-0.1,0.1-0.1,0.2c-0.7,0.8-1.7,1.4-3.6,1.4c-3.3,0-3.8-2.1-3.8-4.4c0-0.8,0.3-1.5,0.6-2.3v-0.2c0.4,0,0.9-0.1,1.3-0.1
	c0.4,0,0.7-0.1,1.1-0.1c0.2,0,0.5,0,0.7,0c1.5,0,3.1,0.1,4.7,0.5l0,0C283.8,80.8,283.7,80.8,283.6,80.8z"/>
<path fill="#FFFFFF" stroke="#000000" stroke-miterlimit="10" d="M283.8,83.1c0.5-1.2,0.3-1.5-0.2-2.3c0.1,0,0.1,0,0.2,0
	c0.3,0.7,0.4,1,0.1,2.1c-0.2,1-0.5,2-1.1,2.8C283.4,84.9,283.6,84,283.8,83.1z"/>
<path fill="#FFFFFF" stroke="#000000" stroke-miterlimit="10" d="M264.9,78c13.6-5.3,22-3.9,25-3.1C286.7,74.1,278.3,72.9,264.9,78
	C264.9,78.1,264.9,78.1,264.9,78z"/>
<path fill="#FFFFFF" stroke="#000000" stroke-miterlimit="10" d="M283.1,351.1C283.1,351,283.1,351,283.1,351.1
	c-0.5,1.3-0.7,2.4-0.8,3.4C282.3,353.5,282.5,352.4,283.1,351.1z"/>
<path fill="#FFFFFF" stroke="#000000" stroke-miterlimit="10" d="M281.9,601h-0.1l0,0C281.8,601,281.8,601,281.9,601z"/>
<path fill="#FFFFFF" stroke="#000000" stroke-miterlimit="10" d="M281.7,365.8c-0.2-0.2-0.3-0.4-0.5-0.6
	C281.4,365.4,281.6,365.6,281.7,365.8z"/>
<path fill="#FFFFFF" stroke="#000000" stroke-miterlimit="10" d="M281.7,601L281.7,601h-0.1H281.7z"/>
<path fill="#FFFFFF" stroke="#000000" stroke-miterlimit="10" d="M281.6,601c-0.2,0-0.4,0-0.7,0C281.1,601,281.3,601,281.6,601
	C281.5,601,281.6,601,281.6,601L281.6,601z"/>
<path fill="#FFFFFF" stroke="#000000" stroke-miterlimit="10" d="M281.5,601c-0.2,0-0.4,0-0.6,0c-0.1,0-0.1,0-0.2,0h0.1
	C281.1,601,281.3,601,281.5,601z"/>
<path fill="#FFFFFF" stroke="#000000" stroke-miterlimit="10" d="M281.1,61.1c0,0.1,0.1,0.1,0.2,0.2c-0.5,0.5-2.2,2.1-4.3,2
	C279.3,63.2,281.1,61.1,281.1,61.1z"/>
<path fill="#FFFFFF" stroke="#000000" stroke-miterlimit="10" d="M280.9,601h-0.1c-0.3,0-0.7,0-1,0h-0.1c-0.3,0-0.6,0-0.9,0h-0.1
	C279.4,601,280.1,601,280.9,601z"/>
<path fill="#FFFFFF" stroke="#000000" stroke-miterlimit="10" d="M280.4,159.5c-0.8,0-5.5,0.1-7.4-1.4c2.4,1.3,7.1,1.1,7.1,1.1
	C280.1,159.3,280.2,159.4,280.4,159.5z"/>
<path fill="#FFFFFF" stroke="#000000" stroke-miterlimit="10" d="M280,674.6l-0.3,0.2l-14,11.2l-24,1.6c-0.2-1.398-0.3-2.698-0.5-4
	c1.4-0.698,20.2-11.8,21.7-14.3c0,0,0-0.1,0.1-0.1C263,669.2,277.4,675.2,280,674.6z"/>
<polygon fill="#FFFFFF" stroke="#000000" stroke-miterlimit="10" points="279.7,674.9 265.9,686 241.7,687.7 241.7,687.7 265.7,686 
	"/>
<path fill="#FFFFFF" stroke="#000000" stroke-miterlimit="10" d="M278.8,601h-0.1c0,0-0.1,0-0.2,0h0.1
	C278.6,601,278.7,601,278.8,601z"/>
<path fill="#FFFFFF" stroke="#000000" stroke-miterlimit="10" d="M250.5,636.2c10.2,1.6,22.1,11,27.5,10.398c0,0-0.1,0.102-0.2,0.2
	c-5.3,0.5-17.3-8.7-27.4-10.398c-1.1-0.2-2.1-0.302-2.9-0.4c0.3,0,0.5,0,0.8,0c0,0,0,0,0.1,0C249,636,249.7,636.1,250.5,636.2
	C250.4,636.2,250.4,636.2,250.5,636.2z"/>
<path fill="#FFFFFF" stroke="#000000" stroke-miterlimit="10" d="M277.9,358.8c-0.5-0.1-2,0.1-3.7,1.2
	C275.8,358.7,277.3,358.6,277.9,358.8z"/>
<path fill="#FFFFFF" stroke="#000000" stroke-miterlimit="10" d="M250.3,636.3c10.1,1.602,22.1,10.9,27.4,10.4
	c-1.8,1.3-14.4,10.1-16.8,8.6c0,0-13-4.8-18.6-8.6V646.6v-0.5c-0.2-0.1-0.3-0.3-0.5-0.398l0.8-8.9c1.1-0.3,2.8-0.7,4.7-0.7
	C248.2,636,249.2,636.2,250.3,636.3z"/>
<path fill="#FFFFFF" stroke="#000000" stroke-miterlimit="10" d="M278.5,601c-0.7,0-1.4-0.1-2.1-0.1l0,0c-10.9-0.9-19.8-6-24.9-9.7
	c1.9,1.398,4.3,2.898,7.2,4.398c0.5,0.302,1,0.5,1.6,0.802c0.3,0.198,0.7,0.3,1,0.5c0.4,0.198,0.7,0.3,1.1,0.5
	c3.6,1.5,7.6,2.8,12.1,3.398c0.4,0.102,0.9,0.102,1.3,0.2C276.7,600.9,277.6,601,278.5,601z"/>
<path fill="#FFFFFF" stroke="#000000" stroke-miterlimit="10" d="M275.8,600.8c0.9,0.102,1.8,0.102,2.7,0.2
	C277.6,601,276.7,600.9,275.8,600.8z"/>
<path fill="#FFFFFF" stroke="#000000" stroke-miterlimit="10" d="M274.5,600.7c0.4,0.1,0.9,0.1,1.3,0.2
	C275.4,600.8,274.9,600.7,274.5,600.7z"/>
<path fill="#FFFFFF" stroke="#000000" stroke-miterlimit="10" d="M274.3,360c3.1,1.4,5.3,3.2,7,5.2
	C279.6,363.2,277.3,361.4,274.3,360C274.2,360,274.3,360,274.3,360z"/>
<path fill="#FFFFFF" stroke="#000000" stroke-miterlimit="10" d="M274.5,120c0.1,0.2,0.1,0.3,0.1,0.5c0,0-4.3,10.8-3.1,13.5
	c-0.1,0-0.1,0-0.1,0c-1.9-1.8,2.9-13.7,2.9-13.7S274.3,120.2,274.5,120z"/>
<path fill="#FFFFFF" stroke="#000000" stroke-miterlimit="10" d="M274.5,120c-0.1,0.2-0.2,0.4-0.2,0.4c-0.8-4.2-11.6-10.2-11.6-10.2
	c1.4-3.1-4.3-6.7-5.5-7.4h0.1c0,0,7.3,3.9,5.7,7.5C263,110.2,273,115.8,274.5,120z"/>
<path fill="#FFFFFF" stroke="#000000" stroke-miterlimit="10" d="M272.7,61.1c0.1,0.1,0.1,0.2,0.2,0.3c-0.3,0.5-1.1,1.7-3.2,1.3
	C272.1,63,272.7,61.1,272.7,61.1z"/>
<path fill="#FFFFFF" stroke="#000000" stroke-miterlimit="10" d="M263.7,619.2c6.7-2.3,12.5-5.2,16.8-7.5
	c-7.8,4.398-20.7,10.398-35.1,11.7c4.2-0.4,8.3-1.2,12.1-2.302c1.6-0.398,3.2-0.898,4.8-1.398C262.7,619.6,263.2,619.4,263.7,619.2z
	"/>
<path fill="#FFFFFF" stroke="#000000" stroke-miterlimit="10" d="M264.9,159.1c16.5,35.9,8.1,87.6,7.8,89.6
	c-0.1-0.1-0.1-0.2-0.2-0.2C272.5,248.4,281.4,195.7,264.9,159.1L264.9,159.1z"/>
<path fill="#FFFFFF" stroke="#000000" stroke-miterlimit="10" d="M271.6,156.2c0,0.3,0.1,0.5,0.2,0.8c-0.9,1.1-3.5,4-6.4,2.1
	C268.7,160.8,271.6,156.2,271.6,156.2z"/>
<path fill="#FFFFFF" stroke="#000000" stroke-miterlimit="10" d="M267.9,389c3.1,13.7-1.6,28.9-3.8,34.8
	C266.3,417.9,270.9,402.8,267.9,389z"/>
<path fill="#FFFFFF" stroke="#000000" stroke-miterlimit="10" d="M265.4,83.4c1-0.4,2.4-1,3.9-1.4C267.8,82.4,266.5,82.9,265.4,83.4
	z"/>
<path fill="#FFFFFF" stroke="#000000" stroke-miterlimit="10" d="M265.4,60.5c0.1,0.1,0.2,0.1,0.3,0.2c-0.2,0.5-2.2,4.7-4.9,3.1
	C263.5,65,265.4,60.5,265.4,60.5z"/>
<path fill="#FFFFFF" stroke="#000000" stroke-miterlimit="10" d="M265.2,159c0,0-0.1,0-0.3,0l0,0l0,0c0-0.1-0.1-0.2-0.1-0.3
	C264.9,158.9,265.1,159,265.2,159z"/>
<path fill="#FFFFFF" stroke="#000000" stroke-miterlimit="10" d="M264.9,159L264.9,159C264.9,159.1,264.9,159.1,264.9,159L264.9,159
	L264.9,159L264.9,159z"/>
<path fill="#FFFFFF" stroke="#000000" stroke-miterlimit="10" d="M264.9,159L264.9,159c-0.1,0-0.1,0-0.1,0
	C264.8,159.1,264.8,159,264.9,159z"/>
<path fill="#FFFFFF" stroke="#000000" stroke-miterlimit="10" d="M264,84c-0.2,0.1-0.5,0.3-0.7,0.4c0,0,0,0-0.1,0
	C263.4,84.3,263.7,84.1,264,84z"/>
<path fill="#FFFFFF" stroke="#000000" stroke-miterlimit="10" d="M263.9,424.6c-0.1,0.302-0.2,0.602-0.3,0.802
	C263.6,425.2,263.7,424.9,263.9,424.6z"/>
<path fill="#FFFFFF" stroke="#000000" stroke-miterlimit="10" d="M263.3,84.4L263.3,84.4c0,0,0,0-0.2,0
	C263.2,84.4,263.2,84.4,263.3,84.4L263.3,84.4z"/>
<path fill="#FFFFFF" stroke="#000000" stroke-miterlimit="10" d="M261.6,428.5l-6.9,72.1l6.8-71.198v-0.5h-0.8
	c0.1,0,0.1-0.102,0.1-0.102C261.3,428.6,261.6,428.5,261.6,428.5z"/>
<path fill="#FFFFFF" stroke="#000000" stroke-miterlimit="10" d="M234.9,508.5v-0.4l8.1-80.8V427v-0.5c0.1,0.1,0.6,0.4,1.3,0.6
	c0,0,0.1,0.102,0.2,0.102l0,0l0.1,0.1c0.1,0.102,0.1,0.102,0.2,0.2l0.3,0.2c6.8,3.1,11.3,2.8,14.1,1.7l0,0
	c0.6-0.2,1.2-0.4,1.6-0.602l-0.1,0.102h0.8v0.5l-6.8,71.198l-1.3,13.802l-0.1,0.6c-0.1,0-0.2-0.1-0.3-0.1l-4.9,55.398
	c0,0,0,0.2,0,0.3c0,0.102,0,0.102,0,0.2c0,0,0,0,0,0.102l0,0c-0.1,1.698-0.3,3.398-0.3,4.8c0,0.1,0,0.1,0,0.2c0,0,0,0.1,0,0.198
	c0,0.2,0,0.2,0,0.302c-0.2,2.1-0.2,4.1,0,3.8c0.1,0,0.2-0.102,0.3-0.2c0,0,0,0.1,0.1,0c0,0.1-0.1,0.2-0.1,0.3c0,0,0,0-0.1,0
	c-0.3,0.8-0.6,3-0.8,4.8l-0.1,2.302l0,0l-0.2-0.5c0,0.1,0,0.3,0,0.3l0,0c-0.6,1.2-1.2,11.7-1.3,13.3v0.1v0.102l0,0v0.199v0.301
	l-2.1,22.5c0.1,0,0.2,0,0.3,0v0.1c-0.2,0-0.3,0-0.4,0l-1.1,12.8c0,0,0.1,0,0.2,0v0.301l-0.8,9.199c0.2,0.102,0.3,0.301,0.5,0.5
	c0.1,0.102,0.2,0.102,0.3,0.2v0.3c-0.2-0.1-0.3-0.199-0.4-0.3v0.5l-1.1,13.101v0.101h0.1l-0.6,7c0,0.6,0.1,1.2,0.1,1.8l-7.9,81.7
	v0.3l-0.5-0.1v0.3v0.399l-2.9,31.5h0.5v0.199l-2.2,25.5v0.4c-8.6,2.7-12.5,2-19.5-2.8V806l2.7-28.1v-0.5l2.7-29.4v-0.3V747.6
	l1.9-19.5V727.7V727l3.3-36.2v-0.2h0.2L220,677v-0.5v-0.3c0,0-0.1,0-0.2,0V676v-0.3l1.5-16.102c0.1-0.1,0.2-0.198,0.2-0.198v-0.2
	v-0.5l1.4-15.602v-0.3l-0.2,0.102V642.8l1.9-21v-0.3c0.1-0.1,0.1-0.1,0.2-0.2v-0.2v-0.5l1-10.1l1-10.1v-0.2c0,0,0.1,0,0.2-0.101
	l1.3-14.601V585v-0.399v-0.199c-0.1-0.102-0.2-0.102-0.3-0.2V584c0.1,0.1,0.2,0.1,0.3,0.2l0.9-10.4v-0.3v-0.8
	c-0.1-0.2-0.2-0.3-0.3-0.4c0.1-0.1,0.2-0.3,0.4-0.5v-0.2V571.2l5.9-62.8V508.1c-0.1,0-0.2,0.102-0.4,0.102L234.9,508.5z"/>
<path fill="#FFFFFF" stroke="#000000" stroke-miterlimit="10" d="M260.3,596.3c0.3,0.2,0.7,0.3,1,0.5
	C261,596.7,260.6,596.5,260.3,596.3z"/>
<path fill="#FFFFFF" stroke="#000000" stroke-miterlimit="10" d="M257.4,72.4c4.6-4.4,1.8-9.5,1.6-9.9c0.2,0.2,0.4,0.4,0.5,0.6
	c0.6,1.4,2.2,5.7-1.8,9.5c0,0-3.8,27.7-0.8,30C253.3,101.9,257.4,72.4,257.4,72.4z"/>
<path fill="#FFFFFF" stroke="#000000" stroke-miterlimit="10" d="M243.1,699.9l16-2.9c0,0-6,9.5-10.4,14.4
	c4.4-4.9,10.2-14.2,10.2-14.2L243,700C243.1,700,243.1,699.9,243.1,699.9z"/>
<path fill="#FFFFFF" stroke="#000000" stroke-miterlimit="10" d="M243.1,700l15.9-2.8c0,0-5.9,9.3-10.2,14.2
	c-0.3,0.3-0.6,0.6-0.8,0.898c-0.1,0.102-0.2,0.2-0.3,0.3c-0.2,0.2-0.3,0.302-0.5,0.5c-0.1,0.102-0.2,0.2-0.3,0.302
	c-0.7,0.5-1.3,0.898-1.7,0.898v0.102l0,0l0,0C244.6,711.1,243.9,706.2,243.1,700z"/>
<path fill="#FFFFFF" stroke="#000000" stroke-miterlimit="10" d="M260.7,730.1c-3.6-2.3-6.8-4.6-9.3-6.5
	c-3.6-2.6-5.7-4.398-5.7-4.398l0,0C246.7,720,252.8,724.9,260.7,730.1z"/>
<path fill="#FFFFFF" stroke="#000000" stroke-miterlimit="10" d="M259.1,429.5c-2.8,1.1-7.3,1.4-14.1-1.7l-0.3-0.2
	c-0.1,0-0.1-0.1-0.2-0.198c-0.1,0-0.1-0.102-0.1-0.102l0,0l-0.1-0.1c2.2,0.8,6.4,2.1,8.1,2.7C254.5,430.6,257.2,430.1,259.1,429.5z"
	/>
<path fill="#FFFFFF" stroke="#000000" stroke-miterlimit="10" d="M253.3,515l-4.9,54.5v0.5c0,0,0,0.1,0,0.2c0,0,0,0-0.1,0
	c-0.2,0.1-0.3,0.1-0.3,0.1l4.9-55.398C253.1,514.9,253.2,514.9,253.3,515z"/>
<path fill="#FFFFFF" stroke="#000000" stroke-miterlimit="10" d="M252.4,352.5l-0.1,0.2c-3.7,2.1-8.3,3.7-12.9,3.9
	C244,356.3,248.5,354.6,252.4,352.5z"/>
<path fill="#FFFFFF" stroke="#000000" stroke-miterlimit="10" d="M251.9,153.8L251.9,153.8c-0.4-0.3-0.7-0.5-1-0.9
	C251.2,153.2,251.5,153.5,251.9,153.8z"/>
<path fill="#FFFFFF" stroke="#000000" stroke-miterlimit="10" d="M251.8,153.8C228.5,154.1,213,134,213,134c4.8,0,8.1-2,10.6-4.8
	c1.1,1.1,9.9,8.3,18.6,9.8c2.3,6.6,5.4,11,8.6,13.9l0.1,0.1C251.2,153.3,251.5,153.5,251.8,153.8z"/>
<polygon fill="#FFFFFF" stroke="#000000" stroke-miterlimit="10" points="251.4,663.2 251.3,663.3 241.2,660.3 241.2,660.2 "/>
<path fill="#FFFFFF" stroke="#000000" stroke-miterlimit="10" d="M251.3,663.3l-10.7,8.3v0.102l0,0l0,0c-0.1-0.9-0.1-1.8-0.2-2.7
	l0.2-2l0.6-6.8L251.3,663.3z"/>
<path fill="#FFFFFF" stroke="#000000" stroke-miterlimit="10" d="M248.3,636c0.7,0,1.4,0.1,2.1,0.2C249.6,636.1,248.9,636,248.3,636
	z"/>
<path fill="#FFFFFF" stroke="#000000" stroke-miterlimit="10" d="M248.4,570.1v0.102c-0.1,2-0.3,3.8-0.3,5.3c0,0.2,0,0.2,0,0.3
	c0,0.2,0,0.2,0,0.3c-0.1,1.9-0.2,3.5-0.1,3.801c-0.1,0-0.2,0.101-0.3,0.199c0,0,0-1.5,0-3.8c0-0.1,0-0.1,0-0.3c0-0.1,0-0.1,0-0.2
	c0.1-1.899,0.3-4,0.3-4.899v-0.101v-0.1c0,0,0-0.102,0-0.2s0-0.3,0-0.3S248.2,570.2,248.4,570.1
	C248.3,570.1,248.4,570.1,248.4,570.1z"/>
<path fill="#FFFFFF" stroke="#000000" stroke-miterlimit="10" d="M248.4,570.1L248.4,570.1C248.4,570.1,248.3,570.1,248.4,570.1
	C248.3,570.1,248.4,570.1,248.4,570.1z"/>
<path fill="#FFFFFF" stroke="#000000" stroke-miterlimit="10" d="M248.2,636c-0.3,0-0.6,0-0.8,0c-2-0.1-3.4,0-4.5,0.4
	c0,0-0.1,0-0.2,0V636.3c0.1,0,0.2,0,0.3,0C244.2,636,245.9,635.8,248.2,636z"/>
<path fill="#FFFFFF" stroke="#000000" stroke-miterlimit="10" d="M248.1,570.7v0.1C248.1,570.8,248.1,570.8,248.1,570.7
	C248.1,570.8,248.1,570.7,248.1,570.7z"/>
<path fill="#FFFFFF" stroke="#000000" stroke-miterlimit="10" d="M248.1,570.8C248.1,570.8,248.1,570.9,248.1,570.8
	c0,1-0.2,3-0.3,4.8C247.8,574.2,247.9,572.5,248.1,570.8z"/>
<path fill="#FFFFFF" stroke="#000000" stroke-miterlimit="10" d="M248.1,570.9c0,0.898-0.2,3-0.3,4.898c0-0.1,0-0.1,0-0.2
	C247.9,573.8,248,571.9,248.1,570.9z"/>
<path fill="#FFFFFF" stroke="#000000" stroke-miterlimit="10" d="M247.9,580.2C247.9,580.2,248,580.1,247.9,580.2
	c-0.2,0.898-0.5,3-0.6,4.5l-0.2,1.7v0.198c0,0.102,0,0.302,0,0.302l-0.1,0.5l0.1-2.302C247.3,583.2,247.6,580.9,247.9,580.2z"/>
<path fill="#FFFFFF" stroke="#000000" stroke-miterlimit="10" d="M247.8,588c0.1,0.1,0.2,0.2,0.3,0.3c-0.2-0.1-0.4-0.2-0.5-0.398
	C247.6,587.9,247.7,588,247.8,588z"/>
<path fill="#FFFFFF" stroke="#000000" stroke-miterlimit="10" d="M247.8,588c-0.1,0-0.1-0.1-0.2-0.1c0-0.102-0.1-0.102-0.1-0.2
	C247.5,587.8,247.6,587.9,247.8,588z"/>
<path fill="#FFFFFF" stroke="#000000" stroke-miterlimit="10" d="M247.8,576.3c0,2.3,0,3.8,0,3.8
	C247.6,580.3,247.6,578.4,247.8,576.3z"/>
<path fill="#FFFFFF" stroke="#000000" stroke-miterlimit="10" d="M247.4,587.8c-0.1-0.1-0.3-0.1-0.3-0.2L247,587.4
	C247.1,587.5,247.2,587.6,247.4,587.8z"/>
<path fill="#FFFFFF" stroke="#000000" stroke-miterlimit="10" d="M247.1,587.6L247.1,587.6L247,588c-0.1,0-0.1-0.1-0.2-0.1l0.1-0.5
	C246.9,587.5,247,587.5,247.1,587.6z"/>
<path fill="#FFFFFF" stroke="#000000" stroke-miterlimit="10" d="M247,587.4c0.1,0,0.3,0.198,0.4,0.398
	C247.2,587.6,247.1,587.5,247,587.4L247,587.4z"/>
<path fill="#FFFFFF" stroke="#000000" stroke-miterlimit="10" d="M247,587.5l0.1,0.2C247,587.5,246.9,587.5,247,587.5
	C246.9,587.4,246.9,587.4,247,587.5C247,587.4,247,587.4,247,587.5z"/>
<path fill="#FFFFFF" stroke="#000000" stroke-miterlimit="10" d="M247,587.4L247,587.4L247,587.4L247,587.4L247,587.4z"/>
<path fill="#FFFFFF" stroke="#000000" stroke-miterlimit="10" d="M247,588l-0.4,1.2l0.2-1.4C246.9,587.9,247,588,247,588z"/>
<path fill="#FFFFFF" stroke="#000000" stroke-miterlimit="10" d="M247,587.3v0.102c0,0,0,0-0.1,0L247,587.3L247,587.3z"/>
<path fill="#FFFFFF" stroke="#000000" stroke-miterlimit="10" d="M247,587.4L247,587.4C246.9,587.4,246.9,587.4,247,587.4L247,587.4
	L247,587.4z"/>
<path fill="#FFFFFF" stroke="#000000" stroke-miterlimit="10" d="M246.8,586.8l0.2,0.5c-0.2-0.2-0.2-0.1-0.2-0.1l0,0
	C246.8,587.1,246.8,586.9,246.8,586.8z"/>
<path fill="#FFFFFF" stroke="#000000" stroke-miterlimit="10" d="M242.8,636.3c1.1-0.3,2.6-0.5,4.5-0.398c-2,0-3.6,0.398-4.7,0.698
	V636.4V636.3C242.7,636.3,242.8,636.3,242.8,636.3z"/>
<path fill="#FFFFFF" stroke="#000000" stroke-miterlimit="10" d="M245.8,600.8v0.2c-0.1-0.1-0.2-0.1-0.3-0.2c0,0,0,0,0-0.2
	C245.6,600.7,245.7,600.7,245.8,600.8z"/>
<path fill="#FFFFFF" stroke="#000000" stroke-miterlimit="10" d="M245.8,600.9l-2,22.3v0.3c-0.1,0-0.2,0-0.3,0l2.1-22.5v-0.3
	C245.6,600.8,245.7,600.9,245.8,600.9z"/>
<path fill="#FFFFFF" stroke="#000000" stroke-miterlimit="10" d="M245.5,600.3c0,0.102,0,0.2,0,0.3l0,0l0,0v-0.1V600.3L245.5,600.3z
	"/>
<path fill="#FFFFFF" stroke="#000000" stroke-miterlimit="10" d="M245.5,600.6c0,0.102,0,0.2,0,0.2V600.6L245.5,600.6z"/>
<path fill="#FFFFFF" stroke="#000000" stroke-miterlimit="10" d="M245.2,714.3l0.1,0.4C245.3,714.5,245.2,714.4,245.2,714.3
	L245.2,714.3z"/>
<path fill="#FFFFFF" stroke="#000000" stroke-miterlimit="10" d="M244.3,427.2l0.1,0.1C244.3,427.3,244.3,427.2,244.3,427.2
	C244.2,427.2,244.3,427.2,244.3,427.2z"/>
<path fill="#FFFFFF" stroke="#000000" stroke-miterlimit="10" d="M244.3,427.2C244.3,427.2,244.2,427.2,244.3,427.2
	c-0.1,0-0.1-0.102-0.1-0.102S244.2,427.1,244.3,427.2z"/>
<path fill="#FFFFFF" stroke="#000000" stroke-miterlimit="10" d="M243.7,623.7l-1.1,12.3v0.2c-0.1,0-0.2,0.1-0.3,0.1v0.102
	c-0.1,0-0.1,0-0.2,0l1.1-12.802C243.5,623.7,243.6,623.7,243.7,623.7z"/>
<path fill="#FFFFFF" stroke="#000000" stroke-miterlimit="10" d="M242.7,636.4v0.1v0.2c-0.1,0-0.2,0-0.3,0.1v-0.3
	C242.5,636.4,242.6,636.4,242.7,636.4z"/>
<path fill="#FFFFFF" stroke="#000000" stroke-miterlimit="10" d="M242.7,636.2v0.1c-0.1,0-0.2,0.102-0.3,0.102V636.3
	C242.4,636.3,242.5,636.3,242.7,636.2z"/>
<path fill="#FFFFFF" stroke="#000000" stroke-miterlimit="10" d="M242.6,636.7l-0.8,8.898c0.2,0.102,0.3,0.302,0.5,0.4v0.5v0.1
	c-0.1-0.1-0.2-0.198-0.3-0.198c-0.2-0.2-0.3-0.302-0.5-0.5l0.8-9.2C242.5,636.8,242.5,636.7,242.6,636.7z"/>
<path fill="#FFFFFF" stroke="#000000" stroke-miterlimit="10" d="M242.3,646.9l-1.1,12.8v0.3v0.2l-0.3-0.102v0.2h-0.1v-0.1
	l1.1-13.101v-0.5C242,646.7,242.2,646.8,242.3,646.9z"/>
<path fill="#FFFFFF" stroke="#000000" stroke-miterlimit="10" d="M232.7,751.1c16.4,12.9,43.5,27.302,7.9,32.602
	c0,0-4.6,0.3-10.8-0.5h-0.1V783.1l2.9-31.5v-0.5l0,0H232.7z"/>
<path fill="#FFFFFF" stroke="#000000" stroke-miterlimit="10" d="M240.6,671.8l0.6,8.4c0-0.5-0.1-1-0.1-1.5s-0.1-1-0.1-1.602
	C240.9,675.4,240.7,673.6,240.6,671.8L240.6,671.8z"/>
<polygon fill="#FFFFFF" stroke="#000000" stroke-miterlimit="10" points="241.2,660.2 241.2,660.3 240.9,660.3 240.9,660.1 "/>
<path fill="#FFFFFF" stroke="#000000" stroke-miterlimit="10" d="M241.2,660.3l-0.6,6.8l-0.2,2c0-0.6-0.1-1.198-0.1-1.8l0.6-7H241.2
	z"/>
<path fill="#FFFFFF" stroke="#000000" stroke-miterlimit="10" d="M238.1,113.6c0.2,10.9,1.8,18.9,4.1,25.2
	c-8.7-1.3-17.5-8.7-18.6-9.8c5.5-6.1,6.5-16.1,6.7-17.6c0.1,0.1,0.2,0.2,0.3,0.3C233.3,114.3,237,113.8,238.1,113.6z"/>
<path fill="#FFFFFF" stroke="#000000" stroke-miterlimit="10" d="M238.1,113.1c0,0.2,0,0.4,0,0.5c-1.1,0.2-4.8,0.7-7.5-1.9
	c-0.1-0.1-0.2-0.2-0.3-0.3c0-0.1,0-0.2,0-0.2C233.5,114.3,238.1,113.1,238.1,113.1z"/>
<path fill="#FFFFFF" stroke="#000000" stroke-miterlimit="10" d="M237.6,356.5L237.6,356.5c-0.1,0-0.1,0-0.1,0
	S237.5,356.5,237.6,356.5C237.5,356.5,237.6,356.5,237.6,356.5z"/>
<path fill="#FFFFFF" stroke="#000000" stroke-miterlimit="10" d="M237.6,356.5c-0.3,2.4-0.8,4.8-1.3,7.4
	c-4.3,18.6-13.3,32.7-21.1,33.6c-0.1,0-0.2,0-0.3,0c7.8-0.9,17-15.2,21.1-33.6c0.6-2.5,1-4.9,1.3-7.4h0.1c0,0,0,0,0.1,0
	C237.5,356.5,237.5,356.5,237.6,356.5z"/>
<path fill="#FFFFFF" stroke="#000000" stroke-miterlimit="10" d="M237.5,356.5L237.5,356.5c-0.1,0-0.1,0-0.1,0
	c-2.4-0.1-4.9-0.8-7.3-2.1c0,0-16.1-5.5-21-5.4c0,0,0-0.1,0.1-0.1c4.3-0.1,21.1,5.5,21.1,5.5C232.6,355.8,235.2,356.4,237.5,356.5z"
	/>
<path fill="#FFFFFF" stroke="#000000" stroke-miterlimit="10" d="M228.9,572.7c-3.8-2.5-7.6-4.4-11.3-5.7l0,0
	c-2.6-0.9-5.1-1.6-7.5-2.1l0,0c-6.4-1.302-12.3-1.2-17.2-0.602c-9.2,1.2-15.2,4.3-15.2,4.3c0,0.102-0.1,0.102-0.1,0.2
	c-15.5,4.4-6.3-56.3-5.6-60.3v-0.1c9-2,15.7-8.102,15.7-8.102h0.1c4.1,10.2,38.7,7.7,38.7,7.7c2,1.1,3.5,1.4,4.8,1.4
	c1.2,0,2.2-0.302,3.6-0.9v0.2c0.1,0,0.2-0.102,0.4-0.102v0.302l-5.9,62.8v0.399v0.199C229.1,572.4,229,572.6,228.9,572.7
	L228.9,572.7z"/>
<polygon fill="#FFFFFF" stroke="#000000" stroke-miterlimit="10" points="232.5,751.1 232.5,751.5 229.6,783.1 229.6,783.2 
	229.2,783.2 232,751.7 232,751.2 232,750.9 232.5,751 "/>
<path fill="#FFFFFF" stroke="#000000" stroke-miterlimit="10" d="M229.2,573.9v0.3l-0.9,10.398c-0.1-0.1-0.2-0.1-0.3-0.198V584.1
	V583.9l1-10.4v-0.3v-0.5c0,0,0,0,0.1-0.102c0.1,0.102,0.2,0.2,0.3,0.4v0.9L229.2,573.9L229.2,573.9z"/>
<path fill="#FFFFFF" stroke="#000000" stroke-miterlimit="10" d="M228.9,572.7L228.9,572.7c0,0.1,0,0.1,0,0.1V572.7z"/>
<path fill="#FFFFFF" stroke="#000000" stroke-miterlimit="10" d="M228.9,573.3v0.3l-1,10.4v0.2v0.3c-6-3.7-29.4-16.5-48.6-4.3
	c0,0.2-4.2-6.4-1.7-11.3h0.1c0,0,6-3.2,15.2-4.4c4.9-0.6,10.8-0.7,17.2,0.6c2.4,0.5,4.9,1.2,7.4,2.102h0.1
	c3.6,1.398,7.5,3.3,11.3,5.7V573.3z"/>
<path fill="#FFFFFF" stroke="#000000" stroke-miterlimit="10" d="M228.9,572.7v0.1c-3.8-2.398-7.6-4.3-11.3-5.7h-0.1l0.1-0.1l0,0
	C221.2,568.3,225,570.1,228.9,572.7z"/>
<path fill="#FFFFFF" stroke="#000000" stroke-miterlimit="10" d="M228.2,585.3v0.5l-1.3,14.602c-0.1,0-0.1,0-0.2,0.1v-0.1
	c-0.1,0-0.1,0-0.2,0.1V600v-0.3l1.3-14.602v-0.5l0,0c0.1,0.102,0.2,0.102,0.3,0.2v0.2v0.3L228.2,585.3L228.2,585.3z"/>
<path fill="#FFFFFF" stroke="#000000" stroke-miterlimit="10" d="M227.9,584.5v0.5l-1.3,14.6v0.302v0.5c-5.5,2.1-10.7,3-15.4,3.1
	c-0.5,0-1.1,0-1.6,0c-19.2-0.4-31.1-13.8-31.1-13.8s-1.6-2.4,1-9.5C198.3,567.9,221.9,580.9,227.9,584.5L227.9,584.5z"/>
<path fill="#FFFFFF" stroke="#000000" stroke-miterlimit="10" d="M226.8,600.3v0.2l-1,10.1l-1,10.102v0.5v0.2c0,0-0.1,0.1-0.2,0.198
	V621.4l0,0V621.1V620.7v-0.2V620l1-10.1l0.9-9.5C226.6,600.4,226.7,600.4,226.8,600.3z"/>
<path fill="#FFFFFF" stroke="#000000" stroke-miterlimit="10" d="M226.8,600.3L226.8,600.3c-0.1,0.102-0.1,0.102-0.2,0.102V600.3
	C226.6,600.3,226.7,600.3,226.8,600.3z"/>
<path fill="#FFFFFF" stroke="#000000" stroke-miterlimit="10" d="M226.6,600.4L226.6,600.4c-5.5,2.1-10.7,3-15.4,3.1
	C215.9,603.3,221.1,602.4,226.6,600.4z"/>
<path fill="#FFFFFF" stroke="#000000" stroke-miterlimit="10" d="M226.6,600.4l-0.9,9.5l-1,10.1v0.5v0.2v0.398v0.302
	c-6.8,7.198-22.6,13.198-26.4,14.698c-0.1,0-0.1,0-0.2,0.102c-0.3,0.1-0.5,0.2-0.5,0.2h0.1c-0.1,0.1-0.2,0.1-0.2,0.1l22.1,8.1
	l3.3-1.6l-1.4,15.1v0.5v0.102l-0.1,0.8c-0.1,0.1-0.2,0.2-0.3,0.3l0.1-0.7c-5.1,5.4-19.4,11-19.5,10.801c0.4,1.101,2.1,2.199,4.3,3
	c0.1,0,0.3,0.101,0.4,0.101c4.4,1.7,10.9,2.8,13.6,3.1v0.2l-1.3,13.7v0.3v0.3h-0.3v-0.1l-3.2-0.3c-0.4,0.1-1.1,0-2-0.301
	c-0.2-0.101-0.4-0.101-0.6-0.199c-1.1-0.4-2.4-1-3.7-1.602c-1.8-0.8-3.7-1.8-5.6-2.8c-0.2-0.1-0.5-0.2-0.7-0.3
	c-0.6-0.3-1.2-0.7-1.8-1c-0.1,0-0.1,0-0.1-0.1c-0.3-0.2-0.6-0.302-0.8-0.5c0,0-0.1,0-0.1-0.102c-0.3-0.2-0.6-0.3-0.8-0.5
	c-0.2-0.1-0.4-0.2-0.6-0.3c-0.3-0.1-0.5-0.3-0.8-0.4c-0.6-0.3-1.2-0.698-1.7-1c-0.1-0.1-0.3-0.198-0.4-0.198c-1-0.602-1.8-1-2.4-1.4
	c-0.1-0.1-0.2-0.1-0.4-0.2c-0.4-0.2-0.6-0.399-0.6-0.399c-1.1,2.5-20,14-20,14l0.8-13.801l9.8-7.5l-9.7-3.3c0-1.3,0.2-2.7,0.2-4.1
	c-0.2,0-0.2-0.102,0-0.102c0.3-4.5,0.5-7.698,0.6-8.8c0,0.3,0,0.8,0,1.5c0,1,0.8,1.8,2.1,2.602c0.3,0.198,0.6,0.398,0.9,0.5
	c0.1,0.1,0.3,0.1,0.4,0.198c4.7,2.2,12.5,3.4,12.5,3.4c2.7,1.8,18.9-9.6,18.9-9.6c-0.1,0-0.3,0-0.4,0c0.2-0.102,0.3-0.2,0.3-0.2
	c-5.9,0.8-19.1-10.7-30.5-11.4c-1.1-0.1-2.9,0.4-3.5,0.602v-1l1-14C203,627.9,219,611.1,220,610c-0.1,0.1-0.3,0.2-0.4,0.3
	c0.2-0.2,0.3-0.3,0.4-0.399c-15.7,11.301-39.7-3.301-43.2-5.5l0,0c0.5-5.301,0.9-10.301,1.6-14.699c0,0,11.9,13.5,31.3,13.8
	c0.5,0,1.1,0,1.6,0C215.9,603.4,221.1,602.5,226.6,600.4z"/>
<path fill="#FFFFFF" stroke="#000000" stroke-miterlimit="10" d="M224.7,621.5v0.3l-1.9,21v0.102l0,0v-0.4v-0.3V642L224.7,621.5
	L224.7,621.5z"/>
<path fill="#FFFFFF" stroke="#000000" stroke-miterlimit="10" d="M224.7,621.3v0.2c0,0,0,0-0.1,0L224.7,621.3L224.7,621.3z"/>
<path fill="#FFFFFF" stroke="#000000" stroke-miterlimit="10" d="M224.7,621.3v0.2c-6.9,7.2-22.9,13.3-26.4,14.6
	C202.1,634.5,217.9,628.6,224.7,621.3z"/>
<path fill="#FFFFFF" stroke="#000000" stroke-miterlimit="10" d="M224.7,621.5l-1.9,20.5v0.2v0.3v0.4l-3.1,1.5l-22-8.102
	c0.1-0.1,0.3-0.1,0.4-0.2c0.1,0,0.1,0,0.2-0.1C201.8,634.8,217.8,628.8,224.7,621.5z"/>
<path fill="#FFFFFF" stroke="#000000" stroke-miterlimit="10" d="M223,642.8v0.3l-1.4,15.602v0.5v0.2c-0.1,0.1-0.1,0.198-0.2,0.198
	l0.1-0.8v-0.1v-0.5l1.4-15.102l0,0V643L223,642.8z"/>
<polygon fill="#FFFFFF" stroke="#000000" stroke-miterlimit="10" points="222.8,642.9 222.8,643 222.8,643 "/>
<path fill="#FFFFFF" stroke="#000000" stroke-miterlimit="10" d="M222.8,642.9L222.8,642.9l-3.3,1.698l-22.1-8.1
	c0,0,0.1-0.1,0.2-0.1l22,8.1L222.8,642.9z"/>
<path fill="#FFFFFF" stroke="#000000" stroke-miterlimit="10" d="M221.1,659.2l-0.1,0.7c-5.5,5.198-19,10.3-19,10.3
	c0.3,1.1,1.8,2,3.8,2.898c-2.2-0.898-3.9-1.898-4.3-3C201.7,670.1,216,664.6,221.1,659.2z"/>
<path fill="#FFFFFF" stroke="#000000" stroke-miterlimit="10" d="M221,659.9l-1.5,16.3c-2.5-0.3-8.8-1.3-13.3-3
	c-0.1,0-0.3-0.102-0.4-0.102c-2-0.8-3.5-1.8-3.8-2.898C202,670.1,215.5,665.1,221,659.9z"/>
<path fill="#FFFFFF" stroke="#000000" stroke-miterlimit="10" d="M220,676.6v0.5l-1.3,13.7h-0.2v-0.3v-0.3l1.3-13.7v-0.2
	c0.1,0,0.1,0,0.2,0V676.6z"/>
<path fill="#FFFFFF" stroke="#000000" stroke-miterlimit="10" d="M219.8,609.9c-0.1,0.1-0.2,0.198-0.4,0.398
	c-15.6,10.7-39.2-3.6-42.8-5.8v-0.1C180.1,606.6,204.1,621.2,219.8,609.9z"/>
<path fill="#FFFFFF" stroke="#000000" stroke-miterlimit="10" d="M212.8,747.8l1.9-19.398V728v-0.5l0.2,0.1l3.3-36.198V691v-0.2h0.3
	v0.2l-3.3,36.2v0.6v0.4l-1.9,19.5v0.1v0.3l-2.7,29.4h-0.3c-3.5-2-6.7-4.5-9.2-7.7c0,0-6.4-9.2-26.7-20.899
	c0,0-11.6-18.301-3.5-27.801h0.2v0.102c-0.1,0-0.1,0-0.2,0l2.5,8c0,0,4,3.8,9.5,8.1l0.1-0.1l0,0l-0.3,0.199
	c8.9,6.801,21.8,14.699,30,10.5L212.8,747.8L212.8,747.8z"/>
<path fill="#FFFFFF" stroke="#000000" stroke-miterlimit="10" d="M218.2,690.9v0.398l-3.3,36.2l-0.2-0.1v-0.1l-1.4-0.8l-6.1-3.7
	L183,737.3c0,0-0.1,0-0.1-0.1c-5.6-4.2-9.5-8.101-9.5-8.101l-2.3-7.801c3.9-0.3,20.8-8.8,20.8-8.8l-0.4-0.2c0.2-0.1,0.3-0.1,0.3-0.1
	l-19.7-8v-10.9l31.3,11.4l11.6-14.3c0.2,0,0.4,0,0.6,0l2.7,0.3v0.2L218.2,690.9L218.2,690.9z"/>
<path fill="#FFFFFF" stroke="#000000" stroke-miterlimit="10" d="M218.2,690.6v0.102l-2.7-0.3c-0.2,0-0.4,0-0.6,0l0.1-0.2
	L218.2,690.6z"/>
<path fill="#FFFFFF" stroke="#000000" stroke-miterlimit="10" d="M217.6,567c-0.1,0-0.1,0.1-0.1,0.1c-2.5-0.898-5-1.6-7.4-2.1v-0.1
	C212.5,565.3,215,566,217.6,567z"/>
<path fill="#FFFFFF" stroke="#000000" stroke-miterlimit="10" d="M215,690.3l-0.1,0.2c-0.5-0.1-1.1-0.2-1.9-0.5
	C214,690.2,214.7,690.3,215,690.3z"/>
<path fill="#FFFFFF" stroke="#000000" stroke-miterlimit="10" d="M214.7,728v0.5l-1.9,19.4c-8.2,4-21-3.802-29.7-10.5l24-14.4
	l6.2,3.5l1.4,0.9V728z"/>
<polygon fill="#FFFFFF" stroke="#000000" stroke-miterlimit="10" points="214.7,727.3 214.7,727.4 213.3,726.5 "/>
<path fill="#FFFFFF" stroke="#000000" stroke-miterlimit="10" d="M212.8,747.8L212.8,747.8v0.2c-8.3,4.2-21.1-3.8-30-10.5l0.3-0.2
	C191.8,744.1,204.6,751.9,212.8,747.8z"/>
<path fill="#FFFFFF" stroke="#000000" stroke-miterlimit="10" d="M210.1,564.9v0.1c-6.4-1.3-12.3-1.2-17.2-0.6c0,0,0,0,0-0.102
	C197.8,563.7,203.7,563.6,210.1,564.9L210.1,564.9z"/>
<path fill="#FFFFFF" stroke="#000000" stroke-miterlimit="10" d="M208.4,653.8c0,0-0.1,0.102-0.3,0.2l0,0
	c-6,0.2-18.9-10.7-30.1-11.4c-1.3-0.198-3.7,0.602-3.7,0.602V643c0.6-0.2,2.4-0.7,3.5-0.6C189.3,643.1,202.5,654.5,208.4,653.8z"/>
<path fill="#FFFFFF" stroke="#000000" stroke-miterlimit="10" d="M178,642.5c11.2,0.7,24,11.7,30.1,11.4
	c-2.1,1.5-16,11.198-18.6,9.398c0,0-7.7-1.2-12.4-3.3c-0.1-0.1-0.3-0.1-0.4-0.2c-0.3-0.2-0.7-0.3-0.9-0.5c-1.2-0.7-2-1.5-2-2.398
	c0-2-0.1-2.5-0.2-1.602c0-2-0.2,1.8-0.8,8.7c0.5-7.2,0.8-14.7,1.1-22.2h0.2h0.2v1.2c0,0,0.1,0,0.2,0v0.2
	C174.4,643.1,176.8,642.3,178,642.5z"/>
<path fill="#FFFFFF" stroke="#000000" stroke-miterlimit="10" d="M219.4,610.3c-2.8,2.8-18.6,17.5-44.1,17.5l-1,14h-0.2h-0.2
	c0.6-13.1,1.4-26,2.5-37.398l0,0l0,0v0.1C180.2,606.7,203.8,621.1,219.4,610.3z"/>
<path fill="#FFFFFF" stroke="#000000" stroke-miterlimit="10" d="M192.9,564.3C192.9,564.3,192.9,564.4,192.9,564.3
	c-9.2,1.3-15.2,4.4-15.2,4.4h-0.1c0-0.102,0.1-0.102,0.1-0.2C177.7,568.6,183.7,565.5,192.9,564.3z"/>
<path fill="#FFFFFF" stroke="#000000" stroke-miterlimit="10" d="M172,704.1l19.7,8c0,0-0.1,0.102-0.3,0.102l-19.4-7.9V704.1z"/>
<path fill="#FFFFFF" stroke="#000000" stroke-miterlimit="10" d="M183.1,737.3L183,737.4c-5.6-4.4-9.5-8.102-9.5-8.102l-2.5-8
	c0.1,0,0.1,0,0.2,0l2.3,7.8c0,0,4,3.9,9.5,8.102C183,737.3,183,737.3,183.1,737.3z"/>
<path fill="#FFFFFF" stroke="#000000" stroke-miterlimit="10" d="M182.5,671.6l-9.8,7.5l-0.8,13.802c0.2-7.4,0.5-15.802,1-24.602
	L182.5,671.6z"/>
<path fill="#FFFFFF" stroke="#000000" stroke-miterlimit="10" d="M173.8,656.9c0,0.898,0.8,1.698,2,2.398c-1.3-0.8-2.1-1.6-2.1-2.6
	c0-0.601,0-1.101,0-1.5C173.7,654.5,173.8,654.9,173.8,656.9z"/>
<path fill="none" stroke="#000000" stroke-width="0.375" d="M298.7,107.5c0.5-1.7,0.5-4.7-4.3-4.8"/>
<path fill="none" stroke="#000000" stroke-width="0.375" d="M295.2,122.1c0,0,4.8,2.4,8.3,0.5"/>
<path fill="none" stroke="#000000" stroke-width="0.375" d="M288.6,79.6c0,0-7.1-6.5-25.2,4.8"/>
<path fill="none" stroke="#000000" stroke-width="0.375" d="M304.6,78.9c0,0,8.302-2.6,14.602,2.4"/>
<path fill="none" stroke="#000000" stroke-width="0.375" d="M276.8,159.7c0,0,13.7,62.5,7.3,80.3"/>
<path fill="none" stroke="#000000" stroke-width="0.375" d="M456.4,405.4c-0.602-0.9-13.802-17-16.802-19.2"/>
<path fill="none" stroke="#000000" stroke-width="0.375" d="M460.9,404.8c-0.602-1.1-13.7-19.4-17.2-22.2"/>
<path fill="none" stroke="#000000" stroke-width="0.375" d="M462.8,400.5c0,0-11.898-16.2-14.3-19.8"/>
<path fill="none" stroke="#000000" stroke-width="0.375" d="M430.2,390.6c0,0-4.4-5.9-4.4-9.9"/>
<path fill="none" stroke="#000000" stroke-width="0.375" d="M435.1,387.8c-0.8-0.8-4.898-4.4-6-6.6"/>
<path fill="none" stroke="#000000" stroke-width="0.375" d="M193,564.6c0,0-5.4-17.898-2.2-29.698"/>
<path fill="none" stroke="#000000" stroke-width="0.375" d="M210.1,565c0,0-2.1-12.3,0.3-17.6"/>
<path fill="none" stroke="#000000" stroke-width="0.375" d="M217.4,567.1c1.6-1.398,16.5-15.8,10.2-41.6"/>
<path fill="none" stroke="#000000" stroke-width="0.375" d="M266.6,541c-2.1,8.7-2.5,25.1-2.5,25.1"/>
<path fill="none" stroke="#000000" stroke-width="0.375" d="M279.8,550.6c-2.1,4.7-0.2,16.102-0.2,16.102"/>
<path fill="none" stroke="#000000" stroke-width="0.375" d="M286.2,568.3c1.3-1.2,14.899-14.1,9.2-37.5"/>
<line fill="none" stroke="#000000" x1="324.6" y1="292.1" x2="316" y2="233.1"/>
<path fill="none" stroke="#000000" stroke-width="0.375" d="M284.3,332.2c0,0-9.8-10.2-14-9.6"/>
<path fill="#FFFFFF" stroke="#000000" stroke-width="0.375" d="M290.5,352.5c0,0-3-9-17.3-15.2"/>
<line fill="none" stroke="#000000" stroke-width="0.375" x1="290" y1="342.3" x2="272" y2="329.4"/>
<path fill="none" stroke="#000000" stroke-miterlimit="10" d="M186.3,302.9c0,0,21.4,17.6,42.6,21.3"/>
</svg>
