<?xml version="1.0" encoding="utf-8"?>
<!-- Generator: Adobe Illustrator 15.0.0, SVG Export Plug-In . SVG Version: 6.00 Build 0)  -->
<!DOCTYPE svg PUBLIC "-//W3C//DTD SVG 1.1//EN" "http://www.w3.org/Graphics/SVG/1.1/DTD/svg11.dtd">
<svg version="1.1" id="Layer_1" xmlns="http://www.w3.org/2000/svg" xmlns:xlink="http://www.w3.org/1999/xlink" x="0px" y="0px"
	 width="822px" height="567px" viewBox="0 0 822 567" enable-background="new 0 0 822 567" xml:space="preserve">
<rect display="none" fill="#FFFFFF" width="822" height="567"/>
<path fill="#FFFFFF" stroke="#000000" stroke-miterlimit="10" d="M267.3,341.2c-0.5-1-0.3-1.7-0.3-1.7l-90.5-2.7l0.1,0.2l-14.2-0.8
	c-5.3-0.7-7.1-6.9-7.1-6.9s1.1-24.899,2.1-30.5c1-5.7,6-5.899,6-5.899h29c11.3,14,18.7-0.2,18.7-0.2s7.6,0.5,18.3,1.2
	c24,1.5,63.6,3.899,68,3.699c4.6-0.3,5.7,2.7,5.9,4.301c0.1,0.6,0.1,1,0.1,1s0.3,33.3,0,38.3c-0.3,5-2.7,4.3-2.7,4.3
	c-1.5,0.1-2.9,0.3-4.3,0.4c-1.8,0.1-3.5,0.199-5,0.3c-2.8,0.1-5.3,0.2-7.5,0.1c-4.6-0.1-8-0.6-10.5-1.2
	C269.5,343.9,267.9,342.4,267.3,341.2z"/>
<path fill="#FFFFFF" stroke="#000000" stroke-miterlimit="10" d="M291.5,346.8v7h-0.8L284,353v-6v-0.8c2.2,0.1,4.7,0,7.5-0.101
	V346.8z"/>
<path fill="#FFFFFF" stroke="#000000" stroke-miterlimit="10" d="M296.5,375.8v0.4c-1.7,0.1-3.4,0.2-5,0.3V372v-0.3v-18v-7V346
	c1.6-0.1,3.2-0.2,5-0.3v7.8v0.2v2.5v15.5V375.8z"/>
<path fill="#FFFFFF" stroke="#000000" stroke-miterlimit="10" d="M181.6,339.2l5.9,11.6h24v-10.5L181.6,339.2z M267.1,339.5
	c0,0-0.2,0.7,0.3,1.7l-0.3,0.1l-48.5-1.3v11.8l55,0.5V345c2.5,0.7,5.8,1.1,10.5,1.2v0.8v6l6.8,0.8h0.8v18v0.3l-60-2.3V364.4
	l-7.9-0.301l-9.1-0.3v6h-7v9l-0.1,1l-6.2-0.6l-0.2-15.4h-16.5v-13l-7.8-13.8l-0.1-0.2L267.1,339.5z"/>
<path fill="#FFFFFF" stroke="#000000" stroke-miterlimit="10" d="M351.9,549.2l-0.101,1c-17-1.5-22.3-14.601-30-27.101v-1.3
	l-0.2-25.899l0.101-0.2C324.5,525.9,339.2,543.8,351.9,549.2z"/>
<path fill="#FFFFFF" stroke="#000000" stroke-miterlimit="10" d="M681.1,106.1L697,248.3c0,0-6.3-17-11.2,5L667.4,122
	c9.899,13.8,13-6.6,13-6.6l0.5-9.3H681.1z"/>
<path fill="#FFFFFF" stroke="#000000" stroke-miterlimit="10" d="M472.3,321.7c-0.2,0-0.399,0-0.6,0h-12.3
	c-0.5,0-0.9-0.101-1.301-0.3c-1.5-0.5-2.5-2-2.5-3.601v-0.3c0-0.4,0.101-0.8,0.2-1.1c0.5-1.601,2-2.7,3.7-2.7h0.5h11.8
	c2.101,0,3.8,1.7,3.8,3.8v0.3c0,0.3,0,0.5-0.1,0.8C475.1,320.3,473.9,321.5,472.3,321.7z"/>
<path fill="#FFFFFF" stroke="#000000" stroke-miterlimit="10" d="M641.2,195.1c0,0,1.3,9.6,0.3,12.7l-14,31.8l-0.9,0.1l-0.899-9.8
	l10.3-23c3-2.7,4.4-7.3,5-11.8H641.2z"/>
<path fill="#FFFFFF" stroke="#000000" stroke-miterlimit="10" d="M638.5,193.1c0,0.4-0.1,0.8-0.2,1.2c-0.5,3.5-1.7,8.1-4.3,11.5
	l-8.8,18.7l-2.2-24.3l0,0l3.1-10.2l0,0C629.5,189,634.3,188.7,638.5,193.1z"/>
<path fill="#FFFFFF" stroke="#000000" stroke-miterlimit="10" d="M627.4,186.2l4.5-17c4.1,5.8,7.3,12.1,6.6,16.6c0,0,0.2,1.6,0.2,4
	c-3.9-3.5-8-3.9-11.3-3.4V186.2z"/>
<path fill="#FFFFFF" stroke="#000000" stroke-miterlimit="10" d="M638.5,185.8c0.7-4.5-2.5-10.7-6.6-16.6c-2.4-3.4-5-6.7-7.301-9.4
	c-3.1-3.6-5.6-6.1-5.8-6.3l0,0l-0.5-5.7c0,0,3.5,3.3,7.7,8.2c2.4,2.8,5,6,7.4,9.5c3.699,5.4,6.899,11.3,7.6,16.5
	c0,0,0.6,4.2,0.3,9.4c0,1.2-0.1,2.4-0.3,3.7c-0.6,4.5-2,9.1-5,11.8l0.5-1.1H634c2.5-3.4,3.8-7.9,4.3-11.5
	c0.101-0.4,0.101-0.8,0.2-1.2c0.1-1.2,0.2-2.3,0.2-3.3C638.8,187.4,638.5,185.8,638.5,185.8z"/>
<path fill="#FFFFFF" stroke="#000000" stroke-miterlimit="10" d="M641.5,207.8c1-3.1-0.3-12.7-0.3-12.7H641c0.2-1.2,0.3-2.5,0.3-3.7
	c0.7,1,4,6.1,2.9,16.4H641.5z"/>
<path fill="#FFFFFF" stroke="#000000" stroke-miterlimit="10" d="M627.6,239.6l14-31.8h2.7c0,0.2,0,0.5-0.1,0.7l0,0L627.6,244.9
	h-0.5l-0.5-5.3H627.6z"/>
<path fill="#FFFFFF" stroke="#000000" stroke-miterlimit="10" d="M644.3,207.8c1.101-10.2-2.2-15.4-2.899-16.4
	c0.3-5.1-0.301-9.4-0.301-9.4c-0.699-5.2-3.899-11.1-7.6-16.5l26.3-94.8l0,0l0.5,8.5c3,4.3,3.4,20,3.4,20L663.6,100l-7,48.1
	l-14.3,98.6l-0.399,2.8v0.1l-14.4-0.9l-0.3-3.8h0.5l16.6-36.4l0,0l0.3-0.7H644.3L644.3,207.8z M650.3,165.2c0.8-3.5,0-6.6-1.899-7.1
	c-1.801-0.4-4,2-4.801,5.4c-0.8,3.5,0,6.6,1.9,7C647.3,171.1,649.5,168.6,650.3,165.2z"/>
<path fill="#FFFFFF" stroke="#000000" stroke-miterlimit="10" d="M644.2,208.5c0-0.3,0.1-0.5,0.1-0.7h0.3L644.2,208.5z"/>
<polygon fill="#FFFFFF" stroke="#000000" stroke-miterlimit="10" points="625.3,224.5 634,205.8 636.5,205.8 636,206.9 625.7,229.9 
	"/>
<path fill="#FFFFFF" stroke="#000000" stroke-miterlimit="10" d="M625.3,224.5l0.5,5.4l0.9,9.8l0.5,5.3l0.3,3.8l-46.1-2.9
	l-9.801,0.5l-13.6,20l-36,53l-2.2,0.1l-26.6,1.5c0,0-3.3-0.9-2-5.2l12-75.5l0.7-144.2l62.199,12.7l49.601,10l1.6,18l1,11l0.5,5.7
	l0,0l1.8,20.1l1.301,14.7l0.3,3.5l0.8,8.4l0,0L625.3,224.5z M622.3,234.3L613,132.5c-0.6-5.3-6.4-7.3-6.4-7.3l-34-7.8
	c-4.8-0.8-5.199,4.5-5.199,4.5l5.199,110.3c0.301,5.3,5.801,4.5,5.801,4.5L618,239C621.8,239.8,622.3,234.3,622.3,234.3z M562.8,239
	c5.5-0.5,4.5-6.8,4.5-6.8l-5.8-109.5c-1.3-7.3-6.8-8.3-6.8-8.3l-39-7.5c-3,1-4.3,6.3-4.3,6.3L509.1,227.5C510,238,518,237,518,237
	L562.8,239z M547.2,272.8c3.5-4.3-0.3-9.4-0.3-9.4l-10.4-13.8c-1-2.9-4-2.8-4-2.8H516c-5.8-1-7.8,6-7.8,6L500,305.4
	c-1.3,7.8,4.3,8.1,4.3,8.1l10.5-0.2c5.8,1.3,8.8-3.6,8.8-3.6L547.2,272.8z"/>
<path fill="#FFFFFF" stroke="#000000" stroke-miterlimit="10" d="M620.1,282.3c0,0-22-2.5-36.1,3.601c0,0-3.3,2.899,0,3.399
	c0,0,21.9-7.3,39.1-3.399C623.1,285.9,625.8,283.5,620.1,282.3z M613.7,454.4c5.7,6.199,12.3,9.699,19.3,9.699
	c21.7,0,39.3-33.3,39.3-74.5c0-41.199-17.6-74.5-39.3-74.5c-2.2,0-4.3,0.301-6.4,1c-3.5,1.101-6.8,3-10,5.801
	C603.1,333.7,593.7,359.5,593.7,389.6c0,25.301,6.6,47.601,16.8,61.101l0,0C611.6,452,612.6,453.2,613.7,454.4z M573.8,371.8
	l-29.3,24.5c0,0-1.4,6,3.9,5.9l29.399-26.5C577.9,375.7,579.8,369.8,573.8,371.8z M550.5,434.5c3.8-0.7,24.3-24.3,24.3-24.3
	s2.8-5.101-1-8l-25.7,28.5C548.1,430.7,546.8,435.2,550.5,434.5z M608.8,295c-4.5-4.5-41.8,8.5-41.8,8.5c-3.3,4.3,2.8,5.1,2.8,5.1
	c12-7,35-9.8,35-9.8C610.3,299.8,608.8,295,608.8,295z M575.1,297c0,0,5.7,2,4.9-3l-4-3.8c8-4.4,8-10.5,8-10.5l6.1,2
	c0,0,6-0.8,7-1.5c0,0-1.3-0.2-3.3-0.4l0,0l7.5-2.3c0,0,29.4-1.1,35.2,5.4l3.3-1.2c0,0,9,8,11.5,4.8c0,0,4.601-1.8,5.9,1.4
	c0.5,1.3,0.5,3.5-0.7,7c0,0,2.5,8.899,6.1,6.899c8.301-4.5,7.801,8.101,4,10.101c0,0,1,5.399,3.5,8.899
	c0.5,0.7,1.301,1.101,2.301,1.3c1.699,0.4,3.699,0.4,4.6,1.7c1,1.4,0.5,4.3-3.1,11c0,0,0.399,6.8,4.8,8.601
	c6,2.399,5.8,6.899-0.601,13c0,0-0.899,4.6-0.3,8.699c0.5,3.101,1.8,6,5,6.5c0,0,6.8,6.5-5.3,8.801V396.6c0,0,12.5,10.2-2.8,11.5
	l-2.601,15c0,0,13.9,12.101-5.199,11.601l-2.7,9.399c0,0,10.7,15-5,11l-3.5,8.801c0,0,5.3,19.6-8,9.8l-3.8,4.5
	c0,0,0.3,11.7-5.5,11.399c-0.301,0-4.301,1-5.5-2.899L628.8,487c0,0,1.5,6.3-2.8,6l-12.4,1.5c4.4-9.8,0-10.3,0-10.3
	C611,484.5,607.2,497,607.2,497l-18.2-1.7l12.4-15.399c0,0,2.8-5.5-2.5-3.5c-5.301,2-15.801,17-15.801,17l-12-6.801
	c0,0,19.801-21,19.801-25s-5.801-3-5.801-3l-20.6,23l-0.9,0.301l-11-11.301l28.301-31.3c1.8-5.5-4-5-4-5l-29,27.5l0,0
	c0.1-0.2,0.1-0.399,0.199-0.6c0.101-0.3-2.3-5.8-2.199-6.101l-4.4-3.5h14.9v-15L546,437l-11-11c0,0,3-2.2,3.8-7.6
	c0.8-5.101-4.6-13.4-5.2-14.301c2.101,2.7,9.2,11.601,12.4,10.5c3.8-1.3,2-4.399,2-4.399l-13.8-13.9c0,0,0.899-1.2,1.899-2.5h9.301
	v-14h-1.2v-0.5c0,0-4.101-17-8-22.7c-0.601-0.899-1.2-1.5-1.601-1.8h5.4c1.3-1,2.1-2.399,2.6-3.8c0.7-1.9,0.801-4.1,0.601-6.2
	c-0.101-1.5-0.5-3.1-0.8-4.5c-0.601-2.1-1.301-3.899-1.801-5.1c0-0.101-0.1-0.2-0.1-0.3c-0.3-0.801-0.6-1.4-0.6-1.4h0.1l0,0
	l10.6,16.3c0,0,4.4,1.101,3.801-5L543,329.5c0,0-1.1-1.1-2-1.1l0,0c0.8,0,3.5-0.2,6-1.9c3-2,6.5-8.8,6.5-8.8V309.6l0.3-0.199
	l7.2,11.5c0,0,5.5,0.5,5.5-2.101c0-0.5,0-0.899,0-1.2l-5.9-9.3l0.301-0.2c8.6-9.5,6.1-19,6.1-19L575.1,297z M593.8,317.3
	c0,0,2.5-3.399-2.8-3.3c0,0-26,9.1-34,16.3c0,0-3.5,3.8,1.8,4.7L593.8,317.3z M583,344.8c0,0,3.8-6.3-3.8-4.5L547.8,362
	c0,0-3.399,5.8,3.8,5.5L583,344.8z"/>
<path fill="#FFFFFF" stroke="#000000" stroke-miterlimit="10" d="M635.9,388.7c0-7.4-3.101-13.5-6.9-13.5s-6.9,6-6.9,13.5
	c0,7.399,3.101,13.399,6.9,13.399C632.8,402.2,635.9,396.2,635.9,388.7z M638.5,388.3c0,5.601-0.8,10.9-2.1,15.5
	c-2.5,6.4-6.4,6.4-7.5,6.4c-8.601,0-14.101-8.8-14.101-20.8c0-11.9,5.5-20.4,14.101-20.4c1.5,0,6.699,0.8,8.3,6.9c0,0,0,0,0,0.1
	c0.1,0.5,0.2,1,0.3,1.4v0.1C638.2,380.9,638.5,384.5,638.5,388.3z"/>
<path fill="#FFFFFF" stroke="#000000" stroke-miterlimit="10" d="M382.1,469.4c0.601-6.4,3.7-11.301,7-11
	c2.2,0.199,3.9,2.699,4.601,6.3c-0.5-1-1.2-1.601-2.101-1.7H391.4l-2.801-0.2H388.4v0.2c-2-0.2-3.801,2.8-4.101,6.6
	c-0.399,3.801,0.9,7.2,2.9,7.4v-0.1h3.1c0.9,0.1,1.9-0.601,2.601-1.7c-1.301,3.899-3.601,6.5-6,6.3
	C383.7,481.2,381.5,475.8,382.1,469.4z"/>
<path fill="#FFFFFF" stroke="#000000" stroke-miterlimit="10" d="M303,379.9c-6.4,0.6-24.2,6.699-24.2,6.699l-23.8-2.3l0,0
	c15.2-3.399,27.6-4.1,36.5-4.3C296.5,379.9,300.3,380,303,379.9z"/>
<path fill="#FFFFFF" stroke="#000000" stroke-miterlimit="10" d="M291.5,376.5c1.6-0.1,3.3-0.2,5-0.3c3-0.2,6.1-0.3,9.5-0.5
	c0,0,1.2,0.1,1.5,1.1c0.1,0.5,0.1,1.101-0.4,2c-0.3,0.601-1.5,0.9-3.5,1c-0.2,0-0.4,0-0.7,0c-2.7,0.101-6.5,0-11.5,0.101
	c-8.9,0.199-21.3,0.899-36.5,4.3l0,0l-5-0.5C250,383.8,256.1,379,291.5,376.5z"/>
<path fill="#FFFFFF" stroke="#000000" stroke-miterlimit="10" d="M297,371.8c0,0,11.7-0.399,10.5,5h-0.1c-0.301-1-1.5-1.1-1.5-1.1
	c-3.4,0.2-6.5,0.3-9.5,0.5v-0.4v-4H297z"/>
<path fill="#FFFFFF" stroke="#000000" stroke-miterlimit="10" d="M203.9,275.1c0.8,1,0.9,2.5,0.3,4c-0.5,1.6-1.7,3.2-3.4,4.5
	c-2.1,1.7-4.6,2.5-6.4,2.2c-1-0.1-1.9-0.5-2.5-1.3l-0.4-0.4c1.7,0,4.5-1.2,7.2-3.3c2.5-1.9,4.2-4.1,4.8-5.8L203.9,275.1z"/>
<path fill="#FFFFFF" stroke="#000000" stroke-miterlimit="10" d="M345.8,396.1c8.8-8.399,18.8-13.5,29.101-13.899l0,0v0.399
	c-23.7,9.2-44.4,37.7-51.101,74.101c-0.3,1.5-1.399,4.8-1.6,6.3l-0.9,2.3l-0.2-22.399l-0.1-8.4h0.5c4.5-11.8,10.5-22.6,17.6-31.2
	c1-1.2,2-2.399,3-3.5C343.4,398.5,344.6,397.2,345.8,396.1z"/>
<path fill="#FFFFFF" stroke="#000000" stroke-miterlimit="10" d="M388.8,430c12.9,2.4,20.3,21.2,16.4,42.1
	c-3.8,20.9-17.4,35.801-30.3,33.5c-4.101-0.8-7.601-3.199-10.5-6.8l0,0c-3.2-9.3-4.101-21-1.801-33.3c2.7-14.6,9.2-26.9,17.301-34.4
	l0,0C382.8,429.8,385.8,429.5,388.8,430z M394.6,470.2c0.2-2.2-0.1-4.3-0.899-5.601c-0.7-3.6-2.4-6.1-4.601-6.3
	c-3.3-0.3-6.399,4.601-7,11c-0.6,6.4,1.601,11.8,4.9,12.101c2.4,0.199,4.7-2.4,6-6.301C393.8,474,394.4,472.2,394.6,470.2z
	 M386.2,489c0.5-0.8-0.101-2.2-1.4-3s-2.8-0.8-3.3,0s0.1,2.2,1.4,3C384.2,489.9,385.7,489.9,386.2,489z M384.4,454.3
	c0.699-1.399,0.6-2.899-0.301-3.3c-0.899-0.5-2.199,0.3-2.899,1.7c-0.7,1.399-0.601,2.899,0.3,3.3
	C382.4,456.5,383.7,455.7,384.4,454.3z M375.9,472.3c1,0,1.699-1.3,1.699-2.899c-0.1-1.601-0.899-2.801-1.899-2.7
	c-1,0-1.7,1.3-1.7,2.899C374,471.2,375,472.4,375.9,472.3z"/>
<path fill="#FFFFFF" stroke="#000000" stroke-miterlimit="10" d="M636.5,403.8c1.3-4.6,2.1-9.8,2.1-15.5c0-3.8-0.3-7.399-1-10.8
	v-0.1c-0.1-0.5-0.199-1-0.3-1.4c0,0,0,0,0-0.1C634.8,364.6,629,356.6,622.2,356.6c-9,0-16.4,14.2-16.4,31.7s7.3,31.7,16.4,31.7
	C628.3,420,633.7,413.5,636.5,403.8z M616.7,321.9c16,8.3,27.6,33.5,27.6,63.199c0,33.4-14.7,61-33.7,65.5l0,0
	c-10.199-13.5-16.8-35.8-16.8-61.1C593.8,359.5,603.2,333.7,616.7,321.9z M625.5,342.8c1.1-0.399,1.4-2.399,0.6-4.6
	c-0.8-2.101-2.3-3.601-3.399-3.2c-1.101,0.4-1.4,2.4-0.601,4.6C622.9,341.8,624.4,343.2,625.5,342.8z M624.8,436.2
	c1.4-1.8,1.8-3.9,0.8-4.601c-0.899-0.699-2.8,0.2-4.199,2c-1.4,1.801-1.801,3.9-0.801,4.601S623.4,438,624.8,436.2z"/>
<path fill="#FFFFFF" stroke="#000000" stroke-miterlimit="10" d="M567,289.3c0,0,2.5,9.5-6.1,19l-0.301,0.2l-3.899-6.2
	c0,0-4.3-2-5.5,3.3l2.5,4l-0.3,0.2v8.101c0,0-3.601,6.8-6.5,8.8c-2.5,1.7-5.101,1.899-6,1.899l0,0c-0.9,0-1.601,1-0.9,5.101h-0.1
	l-28.5,6.6C507.4,329.9,495,329,495,329h-18.8v-0.5c-2,0-3.101-2.9-3.601-5l45.7,1.2l1.5-5l2.2-0.101l36-53l3,3.5l11.6,0.2l13-19.8
	l57,3.4l15,34.3l-0.3,0.2c-1.3-3.2-5.899-1.4-5.899-1.4c-2.5,3.3-11.5-4.8-11.5-4.8s-10.5-10.8-38.5-4.2l-7.5,2.3l0,0
	c-2.4-0.2-6-0.4-9.801-0.1c0,0,0,6.1-8,10.5l-4-3.8C572,286.5,567.8,285.3,567,289.3z"/>
<path fill="#FFFFFF" stroke="#000000" stroke-miterlimit="10" d="M307.6,376.8c1.2-5.399-10.5-5-10.5-5h-0.5v-15.5l36.9-0.3
	l41.5,13.8h15.2c0.2,0.5,0.7,1.3,1.6,2.101c0.7,0.699,1.601,1.3,2.8,2c1.601,0.8,3.7,1.5,6.4,1.699c1.1,0.101,2.2,0.101,3.5,0.101
	v10.8c-1.4-0.5-2.9-1-4.5-1.5c-2.8-0.8-5.9-1.5-9.3-2c-4.7-0.7-9.9-1-15.8-0.8l0,0C364.6,382.6,354.6,387.7,345.8,396.1l-1.3-0.5
	l-16.7-9.199l-9-5c0,0,3.4-3.7-1.899-3.601c-5.301,0.101-9.801,1-9.801,1C307.6,377.9,307.6,377.3,307.6,376.8L307.6,376.8z
	 M353.8,373c0-2.1-1.2-3.8-2.6-3.8c-1.4,0-2.601,1.7-2.601,3.8s1.2,3.8,2.601,3.8C352.6,376.8,353.8,375.1,353.8,373z M335.8,372
	c0-2.1-1.2-3.8-2.6-3.8c-1.4,0-2.601,1.7-2.601,3.8s1.2,3.8,2.601,3.8C334.6,375.8,335.8,374.1,335.8,372z"/>
<path fill="#FFFFFF" stroke="#000000" stroke-miterlimit="10" d="M734.9,302.6c0,0,3.5-0.199,1.199,4.2L723.3,320.9
	c-0.6-0.101-11.5-10-11.5-10s-2.3-1.2-5-0.801L706.4,308L734.9,302.6z"/>
<path fill="#FFFFFF" stroke="#000000" stroke-miterlimit="10" d="M698.5,341.9v-12.2l1.6-12.8c1.7-4.601,4.301-6.2,6.601-6.601
	c2.7-0.399,5,0.8,5,0.8s11,9.9,11.5,10l-0.8,0.9l-0.4,0.4l-19,20.5c-4.5,4-4.6,0-4.6,0v-1H698.5z M710.4,316.9
	c0-1.601-1.2-2.9-2.7-2.9s-2.7,1.3-2.7,2.9c0,1.6,1.2,2.899,2.7,2.899S710.4,318.5,710.4,316.9z"/>
<path fill="#FFFFFF" stroke="#000000" stroke-miterlimit="10" d="M711.6,274.3l4.9,3.3c0,0-2.4,2.8-4.4,6.7L711.6,274.3L711.6,274.3
	z"/>
<path fill="#FFFFFF" stroke="#000000" stroke-miterlimit="10" d="M711,273.9l0.6,0.4l0,0l0.5,10c-1.199,2.3-2.199,4.9-2.6,7.601
	l-1.6-1.101L708.1,272l0,0L711,273.9z"/>
<path fill="#FFFFFF" stroke="#000000" stroke-miterlimit="10" d="M696,248.3L696,248.3c0,0-6.9,3.8-1.5,11c0,0,3.8-3.8,4-5.5
	C698.7,252.3,696.2,248.5,696,248.3z M696.7,248.8l14.3,10.5c0,0,3,7.8,0,14.6l-2.9-1.9l-3.1-2.1l-5.3-3.5l-3-2l-4.3-2.9l-4.301-2.9
	l0.7-1.9l-3.2-3.4c4.9-22,11.2-5,11.2-5L696.7,248.8z"/>
<path fill="#FFFFFF" stroke="#000000" stroke-miterlimit="10" d="M707.7,313.9c1.5,0,2.7,1.3,2.7,2.899c0,1.601-1.2,2.9-2.7,2.9
	s-2.7-1.3-2.7-2.9C705,315.2,706.2,313.9,707.7,313.9z"/>
<path fill="#FFFFFF" stroke="#000000" stroke-miterlimit="10" d="M699.5,285l4.7,3.2l3.7,2.6l1.6,1.101l-6.3,16.699L676.9,324
	c-0.9-1.3-2.9-1.3-4.601-1.7l-1.7-55.5h2v-0.5l0,0l19.5,13.5l4.5,3.1L699.5,285z"/>
<polygon fill="#FFFFFF" stroke="#000000" stroke-miterlimit="10" points="705.1,269.9 708.2,272 708.1,272 707.9,290.8 704.2,288.2 
	705,270 "/>
<path fill="#FFFFFF" stroke="#000000" stroke-miterlimit="10" d="M706.3,308l0.4,2.1c-2.3,0.4-4.9,2-6.601,6.601l-1.6,12.8v12.2
	L692,349.1L673.8,335c3.601-6.6,4-9.6,3.101-11l26.3-15.4L706.3,308z M685.5,331.5c0-2.3-1.4-4.2-3.1-4.2
	c-1.7,0-3.101,1.9-3.101,4.2s1.4,4.2,3.101,4.2C684.2,335.8,685.5,333.9,685.5,331.5z"/>
<polygon fill="#FFFFFF" stroke="#000000" stroke-miterlimit="10" points="699.8,266.4 705.1,269.9 705,270 704.2,288.2 699.5,285 
	699.5,266.8 "/>
<polygon fill="#FFFFFF" stroke="#000000" stroke-miterlimit="10" points="696.8,264.3 699.8,266.4 699.5,266.8 699.5,285 
	696.5,282.9 696.5,282.8 696.5,264.8 "/>
<path fill="#FFFFFF" stroke="#000000" stroke-miterlimit="10" d="M696,248.3c0.2,0.2,2.6,4,2.5,5.5c-0.2,1.7-4,5.5-4,5.5
	C689.2,252.1,696,248.3,696,248.3L696,248.3z"/>
<polygon fill="#FFFFFF" stroke="#000000" stroke-miterlimit="10" points="696.8,264.3 696.5,264.8 696.5,282.8 696.5,282.9 
	692,279.8 692.5,261.6 692.6,261.5 "/>
<polygon fill="#FFFFFF" stroke="#000000" stroke-miterlimit="10" points="692.6,261.5 692.5,261.6 692,279.8 672.5,266.3 
	672.5,266.3 671.1,249.5 671.1,249.5 686.5,263.8 688.3,258.6 "/>
<path fill="#FFFFFF" stroke="#000000" stroke-miterlimit="10" d="M692,349.2l-14.1,16.1h-0.2c-0.601-4.1,0.3-8.7,0.3-8.7
	c6.4-6.1,6.7-10.6,0.6-13c-4.399-1.8-4.8-8.6-4.8-8.6L692,349.2z"/>
<polygon fill="#FFFFFF" stroke="#000000" stroke-miterlimit="10" points="688.3,258.6 686.5,263.8 671.1,249.5 671.1,249.5 
	669.5,229.6 669.5,229.6 672.5,232.3 675.2,241.8 685.9,253.3 689,256.7 "/>
<path fill="#FFFFFF" stroke="#000000" stroke-miterlimit="10" d="M669,224.8L669,224.8l-12.4-76.6h-0.1l7-48.1v15.4
	c1.4,2.8,2.7,4.9,3.9,6.6l18.5,131.3l-10.7-11.5l-2.601-9.5l-3.1-2.7l0,0L669,224.8z"/>
<path fill="#FFFFFF" stroke="#000000" stroke-miterlimit="10" d="M661.3,19.8l0.101-4c-0.5-8,2.1-8.5,2.1-8.5l0.1-0.2
	c0,0,4.4-1.9,4.9,6.6l16.3,66.6c0,0,5.2,14.2-3.3,15.8l-0.5,10l-0.5,9.3c0,0-3.1,20.4-13,6.6c-1.2-1.7-2.5-3.8-3.9-6.6V100
	l0.101-0.8c0,0-0.4-15.7-3.4-20l-0.5-8.5l0,0L661.3,19.8z M683.2,87.8c0-2-1-3.7-2.2-3.7s-2.2,1.6-2.2,3.7c0,2.1,1,3.7,2.2,3.7
	S683.2,89.8,683.2,87.8z M676.9,114.5c0-1.9-0.801-3.4-1.801-3.4s-1.8,1.5-1.8,3.4s0.8,3.4,1.8,3.4S676.9,116.3,676.9,114.5z
	 M667.3,76.5c0-2.1-0.8-3.8-1.8-3.8s-1.8,1.7-1.8,3.8s0.8,3.8,1.8,3.8S667.3,78.6,667.3,76.5z"/>
<path fill="#FFFFFF" stroke="#000000" stroke-miterlimit="10" d="M682.5,327.3c1.7,0,3.1,1.9,3.1,4.2s-1.399,4.2-3.1,4.2
	s-3.1-1.9-3.1-4.2S680.8,327.3,682.5,327.3z"/>
<path fill="#FFFFFF" stroke="#000000" stroke-miterlimit="10" d="M681,84.1c1.2,0,2.2,1.6,2.2,3.7c0,2.1-1,3.7-2.2,3.7
	s-2.2-1.6-2.2-3.7C678.8,85.7,679.8,84.1,681,84.1z"/>
<ellipse fill="#FFFFFF" stroke="#000000" stroke-miterlimit="10" cx="675" cy="114.5" rx="1.8" ry="3.4"/>
<polygon fill="#FFFFFF" stroke="#000000" stroke-miterlimit="10" points="670.5,266.8 667,266.8 666.9,266.3 663.8,256.8 
	663.4,246.8 662.5,224.8 669,224.8 669,224.8 669.5,229.6 671.1,249.5 672.5,266.3 672.5,266.8 "/>
<path fill="#FFFFFF" stroke="#000000" stroke-miterlimit="10" d="M670.5,266.8l1.7,55.5c-0.9-0.2-1.7-0.6-2.3-1.3
	c-2.601-3.5-3.5-8.9-3.5-8.9c3.8-2,4.3-14.6-4-10.1c-3.601,2-6.101-6.9-6.101-6.9c1.2-3.5,1.2-5.699,0.7-7l0.3-0.199l1.8,4
	l2.301-1.601L651.3,266.5l15.5-0.3l0.2,0.5h3.5V266.8z"/>
<path fill="#FFFFFF" stroke="#000000" stroke-miterlimit="10" d="M665.5,72.6c1,0,1.8,1.7,1.8,3.8s-0.8,3.8-1.8,3.8
	s-1.8-1.7-1.8-3.8S664.5,72.6,665.5,72.6z"/>
<polygon fill="#FFFFFF" stroke="#000000" stroke-miterlimit="10" points="663.8,256.8 666.9,266.3 651.4,266.5 644.3,249.8 
	641.8,249.6 641.8,249.5 642.2,246.7 642.5,246.8 663.4,246.8 "/>
<polygon fill="#FFFFFF" stroke="#000000" stroke-miterlimit="10" points="651.4,266.5 661.5,290.3 659.3,291.9 657.5,287.9 
	642.5,253.5 585.5,250.1 572.5,270 569.9,266.8 581.4,245.8 627.4,248.7 641.8,249.6 644.3,249.8 "/>
<path fill="#FFFFFF" stroke="#000000" stroke-miterlimit="10" d="M661.5,15.8l-0.1,4H659.6h-7h-5v-5c0,0,0.5-8,5.101-7.5
	c4.6,0.5,10.899,0,10.899,0S661,7.8,661.5,15.8z"/>
<path fill="#FFFFFF" stroke="#000000" stroke-miterlimit="10" d="M633,315.1c21.7,0,39.3,33.301,39.3,74.5
	c0,41.2-17.6,74.4-39.3,74.4c-7,0-13.6-3.5-19.3-9.7c2.1,0.601,4.2,0.9,6.3,0.9c21.7,0,39.3-31.4,39.3-70.101
	c0-34.699-14.1-63.5-32.7-69.1C628.7,315.5,630.8,315.1,633,315.1z"/>
<path fill="#FFFFFF" stroke="#000000" stroke-miterlimit="10" d="M661.3,19.8l-1.6,51L646.6,69.6l5.9-23.8v-0.4c3.5-3,3-6.4,3-6.4
	l4-19.3h1.8V19.8z"/>
<path fill="#FFFFFF" stroke="#000000" stroke-miterlimit="10" d="M646.6,69.5l13.101,1.2l-26.3,94.8c-2.4-3.5-5-6.7-7.4-9.5
	l8.7-30.8h0.1c5,1.5,4.8-4.3,3.7-5.5c-1.2-1.3-4.9-1.9-4.9-1.9L646.6,69.5L646.6,69.5z"/>
<path fill="#FFFFFF" stroke="#000000" stroke-miterlimit="10" d="M659.5,19.8l-4,19.3c0,0,0.5,3.4-3,6.4v0.4h-5.1v-0.5
	c0,0-2-0.3-0.7-5.8L648,35l4.5-15.2H659.5z"/>
<polygon fill="#FFFFFF" stroke="#000000" stroke-miterlimit="10" points="652.5,19.8 648.1,34.9 647.5,34.8 647.5,19.8 "/>
<polygon fill="#FFFFFF" stroke="#000000" stroke-miterlimit="10" points="652.5,45.8 646.6,69.5 646.5,69.5 633.6,117.9 
	627.5,115.9 647.3,45.8 647.4,45.8 "/>
<path fill="#FFFFFF" stroke="#000000" stroke-miterlimit="10" d="M648.4,158.1c1.899,0.5,2.699,3.6,1.899,7.1
	c-0.8,3.4-3,5.9-4.899,5.4c-1.801-0.4-2.7-3.6-1.9-7C644.4,160.1,646.6,157.7,648.4,158.1z"/>
<path fill="#FFFFFF" stroke="#000000" stroke-miterlimit="10" d="M626.6,316.1c18.5,5.601,32.7,34.4,32.7,69.101
	c0,38.7-17.6,70.1-39.3,70.1c-2.2,0-4.3-0.3-6.3-0.899c-1.101-1.101-2.101-2.4-3.101-3.7c19.101-4.5,33.7-32.101,33.7-65.5
	c0-29.7-11.6-54.9-27.6-63.2C619.8,319.2,623.1,317.2,626.6,316.1z"/>
<path fill="#FFFFFF" stroke="#000000" stroke-miterlimit="10" d="M639.8,281.8l-3.3,1.2c-5.8-6.5-35.2-5.4-35.2-5.4
	C629.3,270.9,639.8,281.8,639.8,281.8z"/>
<path fill="#FFFFFF" stroke="#000000" stroke-miterlimit="10" d="M634.7,125.3c-4.601-1.4-10.101-2.6-12.9-3.5
	c-0.899-0.3-1.5-0.5-1.8-0.7c-1.7-1.5-1.7-8.1,7.4-4.9l0.1-0.3l6.1,2c0,0,3.7,0.6,4.9,1.9C639.6,121,639.8,126.8,634.7,125.3
	C634.8,125.3,634.7,125.3,634.7,125.3z"/>
<path fill="#FFFFFF" stroke="#000000" stroke-miterlimit="10" d="M638.7,189.8c0,1-0.101,2.1-0.2,3.3c-4.1-4.4-9-4.1-12.3-3.1
	c-2.3,0.7-3.9,1.8-3.9,1.8l-0.3-3.5c0,0,2.2-1.4,5.5-1.9C630.7,185.9,634.8,186.3,638.7,189.8z"/>
<path fill="#FFFFFF" stroke="#000000" stroke-miterlimit="10" d="M634.7,125.3L626,156c-4.2-4.9-7.7-8.2-7.7-8.2l-1-11l4.5-15.1
	C624.6,122.6,630.2,123.9,634.7,125.3z"/>
<path fill="#FFFFFF" stroke="#000000" stroke-miterlimit="10" d="M622.2,356.6c6.8,0,12.6,8,15.1,19.301c-1.6-6-6.8-6.9-8.3-6.9
	c-8.6,0-14.1,8.4-14.1,20.4s5.5,20.8,14.1,20.8c1.2,0,5.1,0,7.5-6.4c-2.8,9.7-8.1,16.2-14.3,16.2c-9,0-16.4-14.2-16.4-31.7
	S613.1,356.6,622.2,356.6z"/>
<path fill="#FFFFFF" stroke="#000000" stroke-miterlimit="10" d="M628.9,375.3c3.8,0,6.899,6,6.899,13.5c0,7.4-3.1,13.4-6.899,13.4
	c-3.801,0-6.9-6-6.9-13.4C622,381.3,625.1,375.3,628.9,375.3z"/>
<path fill="#FFFFFF" stroke="#000000" stroke-miterlimit="10" d="M632,169.2l-4.5,17v0.2c-3.2,0.5-5.5,1.9-5.5,1.9l-1.3-14.7l4-13.8
	C626.9,162.5,629.6,165.8,632,169.2z"/>
<path fill="#FFFFFF" stroke="#000000" stroke-miterlimit="10" d="M626.1,338.2c0.801,2.2,0.5,4.2-0.6,4.6c-1.1,0.4-2.6-1-3.4-3.2
	c-0.8-2.199-0.5-4.199,0.601-4.6C623.8,334.6,625.3,336.1,626.1,338.2z"/>
<path fill="#FFFFFF" stroke="#000000" stroke-miterlimit="10" d="M626.2,190L626.2,190l-3.101,10.2l-0.8-8.4
	C622.3,191.7,623.8,190.7,626.2,190z"/>
<path fill="#FFFFFF" stroke="#000000" stroke-miterlimit="10" d="M625.6,431.6c0.9,0.7,0.601,2.7-0.8,4.601
	c-1.399,1.8-3.3,2.7-4.2,2c-0.899-0.7-0.5-2.7,0.801-4.601C622.8,431.8,624.7,430.9,625.6,431.6z"/>
<path fill="#FFFFFF" stroke="#000000" stroke-miterlimit="10" d="M624.6,159.8l-4,13.8l-1.8-20.1
	C619.1,153.8,621.5,156.2,624.6,159.8z"/>
<path fill="#FFFFFF" stroke="#000000" stroke-miterlimit="10" d="M620.1,282.3c5.801,1.3,3,3.601,3,3.601
	C605.9,282,584,289.3,584,289.3c-3.3-0.5,0-3.399,0-3.399C598.1,279.8,620.1,282.3,620.1,282.3z"/>
<path fill="#FFFFFF" stroke="#000000" stroke-miterlimit="10" d="M613,132.5l9.3,101.8c0,0-0.5,5.5-4.3,4.8l-39.8-2.3
	c0,0-5.5,0.8-5.8-4.5l-5-110.3c0,0,0.399-5.3,5.199-4.5l34,7.8C606.5,125.3,612.4,127.3,613,132.5z"/>
<polygon fill="#FFFFFF" stroke="#000000" stroke-miterlimit="10" points="614.5,114.5 615.7,118.8 566.1,108.8 503.9,96.1 
	503.5,96.1 503.5,90.5 504,90.5 "/>
<path fill="#FFFFFF" stroke="#000000" stroke-miterlimit="10" d="M613.7,484.3c0,0,4.399,0.5,0,10.3c0,0-1.9,4.301-6.4,2.601
	C607.3,497.1,611.1,484.5,613.7,484.3z"/>
<path fill="#FFFFFF" stroke="#000000" stroke-miterlimit="10" d="M608.8,295c0,0,1.5,4.8-4,3.8c0,0-23,2.8-35,9.8c0,0-6-0.8-2.8-5.1
	C567,303.5,604.3,290.5,608.8,295z"/>
<path fill="#FFFFFF" stroke="#000000" stroke-miterlimit="10" d="M599,476.5c5.3-2,2.5,3.5,2.5,3.5l-12.4,15.4c0,0-5.8,2.6-5.8-1.9
	C583.3,493.5,593.8,478.5,599,476.5z"/>
<path fill="#FFFFFF" stroke="#000000" stroke-miterlimit="10" d="M593.8,279.9c2,0.2,3.3,0.4,3.3,0.4c-1,0.8-7,1.5-7,1.5l-6.1-2
	C587.8,279.5,591.3,279.7,593.8,279.9z"/>
<path fill="#FFFFFF" stroke="#000000" stroke-miterlimit="10" d="M591,314c5.3-0.1,2.8,3.3,2.8,3.3l-35,17.7
	c-5.3-0.8-1.8-4.7-1.8-4.7C565,323,591,314,591,314z"/>
<path fill="#FFFFFF" stroke="#000000" stroke-miterlimit="10" d="M585.3,458.8c0,0,5.8-1,5.8,3s-19.8,25-19.8,25s-7.3,2-7.5-4.8
	l0.9-0.3L585.3,458.8z"/>
<path fill="#FFFFFF" stroke="#000000" stroke-miterlimit="10" d="M579.3,340.3c7.5-1.8,3.8,4.5,3.8,4.5l-31.5,22.7
	c-7.199,0.3-3.8-5.5-3.8-5.5L579.3,340.3z"/>
<polygon fill="#FFFFFF" stroke="#000000" stroke-miterlimit="10" points="581.4,245.8 569.9,266.8 558,266.3 571.5,246.3 "/>
<path fill="#FFFFFF" stroke="#000000" stroke-miterlimit="10" d="M577,434.5c0,0,5.8-0.5,4,5l-28.3,31.3c0,0-7.5,0.5-4.7-8.8l0,0
	L577,434.5z"/>
<path fill="#FFFFFF" stroke="#000000" stroke-miterlimit="10" d="M580,294c0.8,5-4.9,3-4.9,3l-8.1-7.8c0.8-4,5-2.8,5-2.8l4,3.8
	L580,294z"/>
<path fill="#FFFFFF" stroke="#000000" stroke-miterlimit="10" d="M573.8,371.8c6-2,4.101,3.9,4.101,3.9l-29.4,26.5
	c-5.3,0.1-3.9-5.9-3.9-5.9L573.8,371.8z"/>
<path fill="#FFFFFF" stroke="#000000" stroke-miterlimit="10" d="M573.8,402.2c3.8,2.899,1,8,1,8s-20.5,23.6-24.3,24.3
	s-2.5-3.8-2.5-3.8L573.8,402.2z"/>
<polygon fill="#FFFFFF" stroke="#000000" stroke-miterlimit="10" points="569.9,266.8 572.5,270 560.9,269.8 558,266.3 "/>
<path fill="#FFFFFF" stroke="#000000" stroke-miterlimit="10" d="M567.3,232.3c0,0,1,6.3-4.5,6.8l-44.8-2c0,0-8,1-8.8-9.5l2.3-114.3
	c0,0,1.3-5.3,4.3-6.3l39,7.5c0,0,5.5,1,6.8,8.3L567.3,232.3z"/>
<path fill="#FFFFFF" stroke="#000000" stroke-miterlimit="10" d="M566.5,317.8c0,0.3,0,0.601,0,1.2c0,2.7-5.5,2.1-5.5,2.1l-7.2-11.5
	l-2.5-4c1.3-5.3,5.5-3.3,5.5-3.3l3.9,6.2L566.5,317.8z"/>
<polygon fill="#FFFFFF" stroke="#000000" stroke-miterlimit="10" points="546,437 556.5,436.8 556.5,451.8 541.7,451.8 540.5,451.8 
	540.5,443.8 541,443.3 540.5,439.1 540.4,439.1 541,437.1 541.2,437.1 "/>
<path fill="#FFFFFF" stroke="#000000" stroke-miterlimit="10" d="M554.5,344.8c0.7,6.101-3.8,5-3.8,5L540.1,333.5l0,0
	c-0.699-4,0-5.1,0.9-5.1s2,1.1,2,1.1L554.5,344.8z"/>
<path fill="#FFFFFF" stroke="#000000" stroke-miterlimit="10" d="M548.1,410.2c0,0,1.7,3.1-2,4.399
	c-3.199,1.101-10.3-7.8-12.399-10.5c0-0.1-0.101-0.1-0.101-0.1c-0.3-0.4-0.5-0.7-0.5-0.7s-3.8-6.3,1.2-7L548.1,410.2z"/>
<path fill="#FFFFFF" stroke="#000000" stroke-miterlimit="10" d="M547,263.4c0,0,3.7,5.2,0.3,9.4l-23.7,36.9c0,0-3,4.8-8.8,3.6
	l-10.5,0.2c0,0-5.5-0.3-4.3-8.1l8.2-52.601c0,0,2-7,7.8-6h16.5c0,0,3-0.1,4,2.8L547,263.4z"/>
<path fill="#FFFFFF" stroke="#000000" stroke-miterlimit="10" d="M535,426l11,11l-4.8,0.1c-0.3-0.199-4.5-2.899-6.2-5.699
	C533.3,428.5,535,426,535,426z"/>
<polygon fill="#FFFFFF" stroke="#000000" stroke-miterlimit="10" points="536.2,393.8 532.5,393.8 532.5,388.2 532.5,383.2 
	532.5,379.8 536.2,379.8 541,379.8 544.4,379.8 545.5,379.8 545.5,393.8 "/>
<path fill="#FFFFFF" stroke="#000000" stroke-miterlimit="10" d="M535.5,366.4l-1.2-2.601l-1.5-3.1l-1.1-2.4c0,0,0.1-1,0.399-1.899
	c0.4-1.301,1.2-2.5,2.601-1.5c0.5,0.3,1,0.899,1.6,1.8c3.9,5.7,8,22.7,8,22.7v0.5H541v-0.5l-5-11.7L535.5,366.4L535.5,366.4z"/>
<path fill="#FFFFFF" stroke="#000000" stroke-miterlimit="10" d="M543.3,344.8c0.2,2.101,0.101,4.3-0.6,6.2l-0.2-0.1l-29.8-1.101
	l0,0c0-0.8,0-1.5,0-2.3c0-1,0-1.9-0.101-2.8h30.7V344.8z"/>
<path fill="#FFFFFF" stroke="#000000" stroke-miterlimit="10" d="M543.3,344.8h-30.7c-0.199-1.8-0.6-3.3-1.1-4.7l28.5-6.6
	c0,0,0.2,0.6,0.6,1.4L522,340l20.5,0.3C542.9,341.7,543.2,343.2,543.3,344.8z"/>
<path fill="#FFFFFF" stroke="#000000" stroke-miterlimit="10" d="M542.6,350.9l0.2,0.1c-0.5,1.4-1.399,2.8-2.6,3.8h-5.4
	c-1.399-1-2.2,0.3-2.6,1.5l-19.5-2l0,0c0.1-1.6,0.1-3.1,0.2-4.5l0,0L542.6,350.9z"/>
<path fill="#FFFFFF" stroke="#000000" stroke-miterlimit="10" d="M542.5,340.3L522,340l18.6-5.1c0,0.1,0.101,0.199,0.101,0.3
	C541.3,336.4,542,338.2,542.5,340.3z"/>
<path fill="#FFFFFF" stroke="#000000" stroke-miterlimit="10" d="M541.2,437.1H541l-0.5,2l0,0l-23.3-1.1l-5.9-8.1l0.9-0.601
	c0,0,1.2-4.8,3.399-4.5L535,426c0,0-1.8,2.5,0,5.4C536.7,434.2,540.9,436.9,541.2,437.1z"/>
<path fill="#FFFFFF" stroke="#000000" stroke-miterlimit="10" d="M541,379.3v0.5h-4.8v-0.5c1.399-4.3-0.5-12.2-0.7-12.899l0.5,1.1
	L541,379.3z"/>
<path fill="#FFFFFF" stroke="#000000" stroke-miterlimit="10" d="M508.6,433.4l-1.8-2.4l-5.3-7.2h-4c0,0,0.1-1.3,0.1-3h7
	l6.601,9.101l5.899,8.1l23.301,1.1l0,0h0.1l0.5,4.2l-0.5,0.5h-24.3L508.6,433.4z"/>
<path fill="#FFFFFF" stroke="#000000" stroke-miterlimit="10" d="M533.6,404c0.601,1,6,9.2,5.2,14.3c-0.8,5.4-3.8,7.601-3.8,7.601
	l-19.5-1.2c-2.3-0.3-3.4,4.5-3.4,4.5l-0.899,0.6l-6.601-9.1v-0.4c3.601-1.5,4.101-6.899,4.101-6.899s0.899-11.5,1.899-25.301h0.301
	c0,0,1.899,0.801,7.1-1.8c4.9-2.399,11.8,1.3,14.5,1.8v5.601h3.7c-1,1.3-1.9,2.5-1.9,2.5c-5,0.8-1.2,7-1.2,7S533.2,403.5,533.6,404
	C533.5,404,533.6,404,533.6,404z"/>
<path fill="#FFFFFF" stroke="#000000" stroke-miterlimit="10" d="M535.5,366.4c0.2,0.699,2.2,8.6,0.7,12.899v0.5h-3.7v3.4
	c-2.7-0.5-9.6-4.3-14.5-1.8c-4.9,2.399-6.9,1.899-7.1,1.8c0.5-6.7,0.899-13.601,1.199-19.9l22.101,0.5L535.5,366.4L535.5,366.4z"/>
<path fill="#FFFFFF" stroke="#000000" stroke-miterlimit="10" d="M532.8,360.7l1.5,3.1l-22.1-0.5c0-0.899,0.1-1.7,0.1-2.5h0.3h20
	L532.8,360.7z"/>
<path fill="#FFFFFF" stroke="#000000" stroke-miterlimit="10" d="M531.7,358.2l1.1,2.399l-0.3,0.101h-20h-0.3
	c0.1-2.3,0.2-4.5,0.3-6.5l19.5,2C531.8,357.2,531.7,358.2,531.7,358.2z"/>
<path fill="#FFFFFF" stroke="#000000" stroke-miterlimit="10" d="M532.5,383.2v5c-2.7-0.5-9.6-4.3-14.5-1.8
	c-5.3,2.6-7.1,1.8-7.1,1.8H510.6c0.101-1.601,0.2-3.3,0.301-5c0.199,0.1,2.199,0.6,7.1-1.8C523,379,529.8,382.7,532.5,383.2z"/>
<path fill="#FFFFFF" stroke="#000000" stroke-miterlimit="10" d="M519.8,319.4l-1.5,5l-45.7-1.2c-0.199-0.601-0.3-1.2-0.3-1.5
	c1.601-0.2,2.8-1.5,3.2-3l0.8,0.2l7.3,0.1l12.7-78.8L462,239l-2.2,74.3v0.5h-0.5c-1.7,0-3.2,1.101-3.7,2.7H455.4v-44.7v-36.3h0.5
	l31-0.2c7.5-0.8,9.199-8.8,9.199-8.8L494,107c0-5.3-7-4-7-4l-65,3.1l-0.8-0.1c0.1-1.3,0.1-2.1,0.1-2.1c0.101-1.8,0.2-3.3,0.3-4.7
	l81.801-3.1h0.3L503,240.3l-12,75.5c-1.3,4.3,2,5.2,2,5.2L519.8,319.4z"/>
<path fill="#FFFFFF" stroke="#000000" stroke-miterlimit="10" d="M417.5,344.8l0.5-4.5l0.2-1.8c0,0,3.899-12.9,34.399-10.3
	c0,0,1,4.6,11.7,5.1c0,0,8,0.4,12-4.6h18.8c0,0,12.4,0.899,16.4,11.3c0.5,1.4,0.9,3,1.1,4.7c0.101,0.899,0.101,1.8,0.101,2.8
	c0,0.7,0,1.5,0,2.3c0,1.4-0.101,2.9-0.2,4.5l0,0c-0.1,2-0.2,4.2-0.3,6.5c0,0.8-0.101,1.7-0.101,2.5c-0.3,6.3-0.8,13.2-1.199,19.9
	c-0.101,1.7-0.2,3.3-0.301,5c-1,13.8-1.899,25.3-1.899,25.3s-0.5,5.4-4.101,6.9v0.399h-7c0-3.899-0.699-10.2-4.399-10
	c-3.7,0.101-5,6.2-5.4,10h-25.2v-1.7c-6-20.699-10.6,1.2-10.6,1.2l-0.4,0.5h-12L439.4,420.9c-4.4-11.2-10.801-20-19-25.101l0,0
	c-0.2-0.2-2.5-2.6-7.5-5.399l0,0l4-39.301L417.5,344.8z"/>
<polygon fill="#FFFFFF" stroke="#000000" stroke-miterlimit="10" points="506.8,430.9 508.6,433.4 504.6,434.7 501.5,438.8 
	487.9,438.8 485.5,441.8 476.3,441.8 473.5,445.8 462.9,445.8 454.5,430.9 454.5,430.8 506.8,431 "/>
<path fill="#FFFFFF" stroke="#000000" stroke-miterlimit="10" d="M497.6,420.8c0,1.7-0.1,3-0.1,3h4l5.3,7.2l0,0l-52.2-0.2h-4v15h-5
	h-0.5c-0.5-5.6-1.5-11-2.8-16l0.3-0.1h5.5l0.301-6.5l3.3-0.5v-2l0.399-0.5c0,0,4.601-21.9,10.601-1.2v1.7v3h25c0,0,0-1.3,0.2-3
	c0.5-3.8,1.8-9.9,5.399-10C496.9,410.6,497.6,416.9,497.6,420.8z M494.9,423.8c1-5-1.301-6.3-1.301-6.3c-2,0-2.3,6.3-2.3,6.3H494.9z
	 M456,423.8h3.8c0,0-0.7-7-2.3-6.8C455.9,417.3,456,423.8,456,423.8z"/>
<path fill="#FFFFFF" stroke="#000000" stroke-miterlimit="10" d="M503.5,90.5v5.6l-81.8,3.1c0.2-1.7,0.3-3.1,0.5-4.3L503.5,90.5z"/>
<path fill="#FFFFFF" stroke="#000000" stroke-miterlimit="10" d="M494,107l2.2,119.5c0,0-1.7,8-9.2,8.8l-31,0.2h-0.5v-0.7h-27h-0.4
	c0.9-18.4,2.301-51.6,1.101-57.1c-1.7-7.7-9.5-8.3-9.5-8.3c-1-14.5,1-53.8,1.5-63.2l0.8,0.1l65-3.1C487,103,494,101.8,494,107z"/>
<path fill="#FFFFFF" stroke="#000000" stroke-miterlimit="10" d="M496.2,240.3l-12.7,78.8l-7.3-0.1l-0.8-0.2c0-0.3,0.1-0.5,0.1-0.8
	v-0.3c0-2.101-1.7-3.8-3.8-3.8h-11.8v-0.5L462,239L496.2,240.3z"/>
<path fill="#FFFFFF" stroke="#000000" stroke-miterlimit="10" d="M493.5,417.5c0,0,2.3,1.3,1.3,6.3h-3.7
	C491.2,423.8,491.5,417.5,493.5,417.5z"/>
<path fill="#FFFFFF" stroke="#000000" stroke-miterlimit="10" d="M462.5,420.8h25.2c-0.2,1.7-0.2,3-0.2,3h-25V420.8z"/>
<path fill="#FFFFFF" stroke="#000000" stroke-miterlimit="10" d="M476.3,328.3v0.5c-4,5-12,4.601-12,4.601
	c-10.8-0.5-11.7-5.101-11.7-5.101s3.2-2.5,5.5-6.8c0.4,0.2,0.9,0.3,1.301,0.3h12.3c0.2,0,0.399,0,0.6,0c0.101,0.4,0.2,0.9,0.3,1.5
	C473.2,325.4,474.3,328.3,476.3,328.3z"/>
<path fill="#FFFFFF" stroke="#000000" stroke-miterlimit="10" d="M459.9,423.8H456c0,0-0.2-6.5,1.5-6.8
	C459.2,416.8,459.9,423.8,459.9,423.8z"/>
<path fill="#FFFFFF" stroke="#000000" stroke-miterlimit="10" d="M455.5,318c0,1.6,1,3,2.5,3.6c-2.3,4.301-5.5,6.801-5.5,6.801
	c-30.5-2.7-34.4,10.3-34.4,10.3s0.101-0.8,0.4-2.2c1.1-4.4,4.3-14.1,12.9-17.4h0.1l23.9-2.5h0.199c-0.1,0.4-0.199,0.7-0.199,1.101
	v0.3H455.5z"/>
<path fill="#FFFFFF" stroke="#000000" stroke-miterlimit="10" d="M455.5,271.8v44.7l-23.9,2.5c0,0,1.101-4.8,0.101-13.7
	c-0.7-5.8-4.601-8.8-7.2-10.2l7-22.5l0,0L455.5,271.8z"/>
<path fill="#FFFFFF" stroke="#000000" stroke-miterlimit="10" d="M428.9,272.6L416.1,273c0-1.2,0-2,0-2l1.101-17.5
	c10,0.3,10.399-6.6,10.399-6.6s0.301-4.9,0.601-12.2h0.399h27v0.7v36.3l-24,0.8L428.9,272.6z"/>
<path fill="#FFFFFF" stroke="#000000" stroke-miterlimit="10" d="M451.5,420.8v2l-3.3,0.5l-0.3,6.5h-5.5L442.1,429.9
	c-0.8-3.2-1.8-6.2-2.899-9l0.2-0.101H451.5z"/>
<path fill="#FFFFFF" stroke="#000000" stroke-miterlimit="10" d="M381.5,550.9c-0.7-0.101-1.4-0.2-2.1-0.301
	c-27.301-5-42.801-44.8-34.7-88.899c8.1-44.101,36.8-75.7,64.1-70.7c4.2,0.8,8.101,2.4,11.7,4.7l0,0c8.1,5.2,14.6,14,19,25.1
	c1.1,2.8,2.1,5.9,2.9,9c1.3,5,2.3,10.4,2.8,16c1,10.7,0.5,22.2-1.601,34.101C435.5,522.8,408.1,554,381.5,550.9z M421,476.2
	c4.8-26.101-4.4-49.601-20.6-52.601c-7.101-1.3-14.4,1.601-20.7,7.4l0,0c-8,7.5-14.601,19.8-17.3,34.4c-2.301,12.3-1.4,24,1.8,33.3
	l0,0c3.6,10.399,10.2,17.7,18.7,19.3C399.3,521,416.3,502.2,421,476.2z"/>
<path fill="#FFFFFF" stroke="#000000" stroke-miterlimit="10" d="M424.5,295.1c2.6,1.4,6.5,4.4,7.2,10.2
	c1,8.8-0.101,13.7-0.101,13.7h-0.1c-8.6,3.3-11.9,13-12.9,17.4L417.9,336.3l-5.9,1h-0.5v-8.5c0,0-7.6-12.399-17.1,0l-2.7,0.601
	H391.6l-0.1-7.601h0.1h4v-6l13-7h10c1.7,0,3-1.3,3-3v-11.7h0.7C422.3,294.1,423.2,294.4,424.5,295.1z M421.5,319.8l3.1-10.7
	c0,0-7.1,2.7-6.699,10.7H421.5z M410.5,319.8l5.7-8H412.6l-5.6,4.3l1.1,3.7H410.5z"/>
<path fill="#FFFFFF" stroke="#000000" stroke-miterlimit="10" d="M431.5,272.5L431.5,272.5l-7,22.5c-1.3-0.7-2.3-1-2.3-1l6.7-21.5
	H431.5z"/>
<path fill="#FFFFFF" stroke="#000000" stroke-miterlimit="10" d="M409.5,283.6c-0.6,0.3-1.3,0.5-2,0.7c-3.1,0.8-4.2,4.2-4.6,5.5
	H397.1c0-2.2,0.301-11,8-14c2.4-0.9,2.9-6.3,3-9c0-0.9,0-1.5,0-1.5v-11.2c0,0-3.5,0-6.899-0.8H401c-1-1.1-5-6.4-4.6-17.7
	c0-0.3,0-0.5,0-0.8c0.699-19.1,2-59.9,2-59.9s3.5-5.5,11.5-6c0,0-0.601-40.8,1.6-62.7c0.2-1.9,0.4-3.8,0.7-5.3
	c0.1-0.8,0.2-1.5,0.399-2.1c0.2-0.8,0.301-1.6,0.5-2.3c1.801-8.1,4.2-11.3,6.301-13.8c-0.4,0.9-0.801,2.1-0.9,3.4
	c-0.5,3.5,0.4,6.4,1.9,6.7c0.899,0.1,1.8-0.7,2.5-2c0,0-0.4,0.8-0.801,4.5c-0.1,1.1-0.3,2.6-0.5,4.3c-0.1,1.4-0.199,2.9-0.3,4.7
	c0,0,0,0.8-0.1,2.1c-0.5,9.5-2.601,48.8-1.5,63.2c0,0,7.8,0.7,9.5,8.3c1.2,5.5-0.2,38.8-1.101,57.1c-0.3,7.3-0.6,12.2-0.6,12.2
	s-0.4,7-10.4,6.6l-1.1,17.5c0,0,0.1,0.8,0,2C416,275.9,415,281.2,409.5,283.6z M422.5,239.4v-53.2c0-5.2-4.2-9.4-9.4-9.4H413
	c-5.2,0-9.4,4.2-9.4,9.4v53.2c0,5.2,4.2,9.4,9.4,9.4h0.2C418.3,248.8,422.5,244.6,422.5,239.4z"/>
<path fill="#FFFFFF" stroke="#000000" stroke-miterlimit="10" d="M409.5,283.6c5.4-2.4,6.4-7.7,6.5-10.6l12.8-0.4l-6.7,21.5H421.4
	v-1.3c0-1.7-1.301-3-3-3H403c0.3-1.3,1.4-4.7,4.6-5.5C408.3,284.1,408.9,283.9,409.5,283.6z"/>
<path fill="#FFFFFF" stroke="#000000" stroke-miterlimit="10" d="M424.7,309.1l-3.101,10.7H418C417.5,311.8,424.7,309.1,424.7,309.1
	z"/>
<path fill="#FFFFFF" stroke="#000000" stroke-miterlimit="10" d="M419.5,82.5c0.7-1.6,1.8-2.7,2.8-2.5c1.5,0.2,2.4,3.2,1.9,6.7
	c-0.2,1.5-0.601,2.8-1.2,3.8c-0.7,1.4-1.6,2.2-2.5,2c-1.5-0.2-2.4-3.2-1.9-6.7C418.8,84.6,419.1,83.5,419.5,82.5z"/>
<path fill="#FFFFFF" stroke="#000000" stroke-miterlimit="10" d="M422.5,186.2v53.2c0,5.2-4.2,9.4-9.4,9.4H413
	c-5.2,0-9.4-4.2-9.4-9.4v-53.2c0-5.2,4.2-9.4,9.4-9.4h0.2C418.3,176.8,422.5,181,422.5,186.2z"/>
<path fill="#FFFFFF" stroke="#000000" stroke-miterlimit="10" d="M403,289.8h15.6c1.7,0,3,1.3,3,3v1.3v11.7c0,1.7-1.3,3-3,3h-10h-21
	h-4.8v-0.5l-1.7,0.101c-0.899-0.5-1.5-1.5-1.5-2.601v-13c0-1.7,1.301-3,3-3H397.2H403z"/>
<path fill="#FFFFFF" stroke="#000000" stroke-miterlimit="10" d="M400.5,423.6c16.1,3,25.4,26.5,20.6,52.601
	c-4.8,26.1-21.8,44.8-38,41.8c-8.5-1.6-15.1-8.9-18.699-19.3c2.8,3.6,6.399,6,10.5,6.8c12.899,2.4,26.5-12.6,30.3-33.5
	s-3.5-39.7-16.4-42.1c-3-0.601-6-0.2-8.899,1C386.1,425.2,393.4,422.3,400.5,423.6z"/>
<path fill="#FFFFFF" stroke="#000000" stroke-miterlimit="10" d="M402.9,356.8l3.8-5.2l2.8-3.8l8.4-11.5l0.699,0.101
	c-0.3,1.3-0.399,2.199-0.399,2.199L418,340.4h-0.1L394.6,373.9l0,0c-1.199-0.601-2.1-1.301-2.8-2l0.101-0.101l3.8-5.3L402.9,356.8z"
	/>
<path fill="#FFFFFF" stroke="#000000" stroke-miterlimit="10" d="M418,340.3l-0.5,4.5L401,375.6l0,0c-2.8-0.199-4.8-0.899-6.4-1.699
	l0,0L418,340.3L418,340.3z"/>
<polygon fill="#FFFFFF" stroke="#000000" stroke-miterlimit="10" points="417.9,336.3 409.5,347.8 404,347.8 389.5,345.8 
	389.5,340.8 389.5,340.1 391.7,340 391.7,337.8 411.5,337.8 411.5,337.3 412,337.3 "/>
<path fill="#FFFFFF" stroke="#000000" stroke-miterlimit="10" d="M401,375.6l16.5-30.699l-0.6,6.1L405,375.7h-0.5
	C403.3,375.7,402.1,375.7,401,375.6L401,375.6z"/>
<path fill="#FFFFFF" stroke="#000000" stroke-miterlimit="10" d="M416.9,350.9l-4,39.3c-2.301-1.3-5-2.601-8.4-3.8V375.6h0.5
	L416.9,350.9z"/>
<polygon fill="#FFFFFF" stroke="#000000" stroke-miterlimit="10" points="416.3,311.8 410.5,319.8 408.2,319.8 407.1,316.1 
	412.7,311.8 "/>
<path fill="#FFFFFF" stroke="#000000" stroke-miterlimit="10" d="M404.5,386.4c3.3,1.199,6.1,2.6,8.4,3.8l0,0
	c4.899,2.8,7.3,5.3,7.5,5.399c-3.601-2.3-7.5-3.899-11.7-4.699c-27.3-5-56,26.6-64.101,70.699c-8.1,44.101,7.4,83.801,34.7,88.9
	c0.7,0.1,1.4,0.2,2.101,0.3l-18.101-0.5V549.9c-23.1-12.4-35.3-49.7-27.8-90.301c8.1-43.899,36.2-76,64.4-74.8
	C401.6,385.4,403.1,385.9,404.5,386.4z"/>
<path fill="#FFFFFF" stroke="#000000" stroke-miterlimit="10" d="M412.3,96.1l0.8,0.2c-0.199,0.7-0.3,1.5-0.5,2.3
	c-0.1,0.7-0.199,1.4-0.399,2.1l-38.101,2.5l3.301-5.6L412.3,96.1z"/>
<path fill="#FFFFFF" stroke="#000000" stroke-miterlimit="10" d="M374.3,103.3l38.101-2.5c-0.2,1.6-0.5,3.4-0.7,5.3L385.6,107
	c-9.199,0-9.3,6.5-9.3,6.5l-15.7,93.9l-0.1,0.1l-0.9-2.7H358.9v-1.5L374.3,103.3z"/>
<path fill="#FFFFFF" stroke="#000000" stroke-miterlimit="10" d="M385.6,107l26.101-0.9c-2.2,21.9-1.601,62.7-1.601,62.7
	c-8,0.5-11.5,6-11.5,6s-1.199,40.8-2,59.9l0,0h-38h-0.3l-0.1-9.9h0.399l7.601-0.4l-5.601-17l0.101-0.1l15.7-93.9
	C376.3,113.5,376.4,107,385.6,107z"/>
<path fill="#FFFFFF" stroke="#000000" stroke-miterlimit="10" d="M411.5,337.3v0.5h-19.9l-0.1-8.399h0.1l2.7-0.601
	c9.601-12.399,17.101,0,17.101,0v8.5H411.5z"/>
<path fill="#FFFFFF" stroke="#000000" stroke-miterlimit="10" d="M409.5,347.8l-2.8,3.8l-0.4-0.3c0,0-8.2-1.5-14.7-1.5s-9.3,6-9.3,6
	l-0.1,0.101c-3-2.5-6.7-3.601-6.7-3.601l4,6.5v8H375l-2.8-1.1l0.399-0.9c2.801-10-20.199-12.5-20.199-12.5H351.8v-4.5h0.8h6
	l0.301,0.101l0.5,3.899h11.3l0.2-5.6V346.1l13.8,0.101v-5.9l5-0.2v0.7v5l14.5,2H409.5z"/>
<polygon fill="#FFFFFF" stroke="#000000" stroke-miterlimit="10" points="408.6,308.8 395.5,315.8 395.5,321.8 391.5,321.8 
	391.4,321.8 391.3,313.6 387.5,313.5 387.5,308.8 "/>
<path fill="#FFFFFF" stroke="#000000" stroke-miterlimit="10" d="M408.2,265.3c0,0,0,0.6,0,1.5l-7-0.5l0.2-12.8
	c0,0-0.101-0.1-0.2-0.2h0.2c3.3,0.8,6.899,0.8,6.899,0.8v11.2H408.2z"/>
<path fill="#FFFFFF" stroke="#000000" stroke-miterlimit="10" d="M401.1,266.3l7,0.5c-0.1,2.7-0.6,8.1-3,9c-7.8,3-8.1,11.8-8,14
	h-14.6c-1.7,0-3,1.3-3,3v13c0,1.101,0.6,2.101,1.5,2.601l-6.5,0.399v-20v-16h10v13h7v-13h9.5L401.1,266.3z"/>
<path fill="#FFFFFF" stroke="#000000" stroke-miterlimit="10" d="M406.7,351.6l-3.8,5.2h-8.4l1.3,9.7l-3.8,5.3l-0.1,0.101
	c-0.9-0.9-1.4-1.7-1.601-2.101h0.3l0.2-3H386v-0.5l-0.8-6.8c-0.601-1.5-1.7-2.7-3-3.7l0.1-0.1c0,0,2.8-6,9.3-6s14.7,1.5,14.7,1.5
	L406.7,351.6z"/>
<polygon fill="#FFFFFF" stroke="#000000" stroke-miterlimit="10" points="402.9,356.8 395.8,366.5 394.5,356.8 "/>
<path fill="#FFFFFF" stroke="#000000" stroke-miterlimit="10" d="M391.6,272.8h-7h-10H367h-15.1l-3.4-32h-52v-0.5l25.5-4.6v0.1h2.4
	h0.3h10.8h13l0.1-0.1c0.601,0.7,3.601,3.2,9.5-0.2v-0.7h0.301h38l0,0c0,0.3,0,0.5,0,0.8c-0.4,11.3,3.6,16.6,4.6,17.7
	c0.1,0.1,0.2,0.2,0.2,0.2l-0.2,12.8l-0.1,6.5H391.6z"/>
<path fill="#FFFFFF" stroke="#000000" stroke-miterlimit="10" d="M400,385c-28.1-1.2-56.3,30.9-64.4,74.8
	c-7.5,40.7,4.7,78,27.801,90.3v0.4l-6.101-0.1v-0.5c-22-13.4-33.3-50.4-25.899-90.7c7.699-41.8,33-73.101,59.3-76V383.1
	C394.1,383.5,397.2,384.2,400,385z"/>
<path fill="#FFFFFF" stroke="#000000" stroke-miterlimit="10" d="M393.7,464.6c0.3,1.7,0.399,3.7,0.3,5.801
	c-0.2,1.699-0.5,3.3-1,4.699c-0.7,1.101-1.7,1.801-2.6,1.7c-2-0.2-3.301-3.399-2.9-7.3c0.3-2.7,1.2-4.9,2.5-6c0.5-0.4,1-0.6,1.5-0.6
	h0.2C392.5,463,393.2,463.7,393.7,464.6z"/>
<polygon fill="#FFFFFF" stroke="#000000" stroke-miterlimit="10" points="391.7,337.8 391.7,340 389.5,340.1 384.5,340.3 
	384.5,339.8 371,332.8 371,332.3 370.5,319.4 371.8,312.8 382.4,313.3 382.7,308.8 387.5,308.8 387.5,313.5 391.3,313.6 
	391.4,321.8 391.5,329.4 "/>
<polygon fill="#FFFFFF" stroke="#000000" stroke-miterlimit="10" points="391.6,272.8 391.5,285.8 384.5,285.8 384.5,272.8 "/>
<path fill="#FFFFFF" stroke="#000000" stroke-miterlimit="10" d="M388.7,462.8l2.8,0.2c-0.5,0-1,0.2-1.5,0.6
	c-1.3,1.101-2.2,3.301-2.5,6c-0.4,3.801,1,7.101,2.9,7.301H387.3v0.1c-2-0.2-3.2-3.5-2.899-7.4c0.399-3.8,2.1-6.8,4.1-6.6v-0.2
	H388.7z"/>
<path fill="#FFFFFF" stroke="#000000" stroke-miterlimit="10" d="M390.7,383v0.1c-26.3,2.801-51.601,34.2-59.3,76
	C324,499.4,335.3,536.5,357.3,549.8v0.5H356.9c-1.801,0.101-3.5,0-5-0.1l0.1-1c-12.7-5.4-27.4-23.3-30.3-53.5l-0.101,0.2
	l-0.3-30.601l0.9-2.3c0.2-1.5,1.399-4.8,1.6-6.3c6.7-36.4,27.4-64.9,51.101-74.101V382.2C380.8,382,386.1,382.4,390.7,383z"/>
<polygon fill="#FFFFFF" stroke="#000000" stroke-miterlimit="10" points="390.2,369.8 375,369.8 333.4,356 296.5,356.3 296.5,353.8 
	296.5,353.6 334.3,352.6 351.8,357.5 351.9,357.6 372.2,365.7 375,366.8 379.5,366.8 386,366.8 390.7,366.8 390.5,369.8 "/>
<path fill="#FFFFFF" stroke="#000000" stroke-miterlimit="10" d="M384.8,486c1.3,0.8,1.9,2.2,1.4,3s-2,0.8-3.3,0
	c-1.301-0.8-1.9-2.2-1.4-3S383.5,485.2,384.8,486z"/>
<path fill="#FFFFFF" stroke="#000000" stroke-miterlimit="10" d="M386,366.3v0.5h-6.4v-8l-4-6.5c0,0,3.7,1.101,6.7,3.601
	c1.2,1,2.3,2.199,3,3.699L386,366.3z"/>
<path fill="#FFFFFF" stroke="#000000" stroke-miterlimit="10" d="M384.1,451c0.9,0.5,1,1.9,0.301,3.3c-0.7,1.4-2,2.101-2.9,1.7
	c-0.9-0.5-1-2-0.3-3.3C382,451.3,383.3,450.6,384.1,451z"/>
<polygon fill="#FFFFFF" stroke="#000000" stroke-miterlimit="10" points="384.5,340.3 384.5,346.2 370.8,346.1 366.8,346 
	366.5,332.8 371,332.8 384.5,339.8 "/>
<path fill="#FFFFFF" stroke="#000000" stroke-miterlimit="10" d="M382.7,308.8l-0.3,4.5l-10.601-0.5l0.8-4h-3.8v-3l2.2-6.5l-0.4-6.5
	h-4h-0.3L367,273v-0.3h7.5v16v20l6.5-0.4c0.4,0.3,1,0.4,1.5,0.4h0.2V308.8z"/>
<path fill="#FFFFFF" stroke="#000000" stroke-miterlimit="10" d="M377.6,469.4c0.101,1.5-0.699,2.8-1.699,2.899
	c-1,0-1.801-1.2-1.9-2.7s0.7-2.8,1.7-2.899C376.7,466.7,377.6,467.9,377.6,469.4z"/>
<path fill="#FFFFFF" stroke="#000000" stroke-miterlimit="10" d="M352.4,352.3c0,0,22.899,2.5,20.199,12.5l-0.399,0.9l-20.3-8.101
	L351.8,357.4v-5.2h0.601V352.3z"/>
<polygon fill="#FFFFFF" stroke="#000000" stroke-miterlimit="10" points="371.8,312.8 370.5,319.4 370.5,319.5 359.5,308.8 
	368.8,308.8 372.5,308.8 "/>
<polygon fill="#FFFFFF" stroke="#000000" stroke-miterlimit="10" points="371,332.3 371,332.8 366.5,332.8 366.8,346 370.8,346.1 
	370.8,346.2 370.5,351.8 359.3,351.8 358.8,347.9 358.5,347.8 358.5,338.9 356.1,331 352.4,330 351.8,330 351.8,305.8 359.5,305.8 
	359.9,305.8 368.8,305.8 368.8,308.8 359.5,308.8 370.5,319.5 370.5,319.4 "/>
<polygon fill="#FFFFFF" stroke="#000000" stroke-miterlimit="10" points="370.5,292.8 371,299.3 368.8,305.8 359.9,305.8 366,299.4 
	366.3,292.8 366.5,292.8 "/>
<polygon fill="#FFFFFF" stroke="#000000" stroke-miterlimit="10" points="367,272.8 367,273 366.3,292.8 366,299.4 359.9,305.8 
	359.5,305.8 351.8,305.8 351.8,272.8 351.9,272.8 "/>
<polygon fill="#FFFFFF" stroke="#000000" stroke-miterlimit="10" points="348.5,224.6 341.5,224.5 349,204.8 358.8,204.8 
	359.5,204.8 360.4,207.5 366,224.5 358.5,224.9 358.1,224.9 358.1,224.8 "/>
<polygon fill="#FFFFFF" stroke="#000000" stroke-miterlimit="10" points="358.5,338.9 358.5,347.8 352.5,347.8 351.8,347.8 
	351.8,330 352.4,330 356.1,331 "/>
<path fill="#FFFFFF" stroke="#000000" stroke-miterlimit="10" d="M358.2,234.8v0.7c-5.9,3.3-8.9,0.8-9.5,0.2
	c-0.101-0.1-0.101-0.2-0.101-0.2v-10.9l9.5,0.1v0.1L358.2,234.8z"/>
<path fill="#FFFFFF" stroke="#000000" stroke-miterlimit="10" d="M351.2,369.3c1.399,0,2.6,1.7,2.6,3.8c0,2.101-1.2,3.801-2.6,3.801
	c-1.4,0-2.601-1.7-2.601-3.801C348.6,371,349.7,369.3,351.2,369.3z"/>
<path fill="#FFFFFF" stroke="#000000" stroke-miterlimit="10" d="M351.8,305.8V330v17.8v4.5v5.2l-17.5-4.8l-37.8,1v-7.8
	c1.4-0.101,2.8-0.2,4.3-0.4c0,0,2.4,0.7,2.7-4.3s0-38.3,0-38.3s0-0.4-0.1-1h0.1h9l-16-61h52l3.4,32H351.8V305.8z"/>
<path fill="#FFFFFF" stroke="#000000" stroke-miterlimit="10" d="M344.5,395.5l1.3,0.5c-1.2,1.2-2.399,2.4-3.6,3.7l-0.3-0.3
	l-14.4-3.7v-9l0.3-0.5L344.5,395.5z"/>
<path fill="#FFFFFF" stroke="#000000" stroke-miterlimit="10" d="M342,399.5l0.3,0.3c-1,1.101-2,2.3-3,3.5l-17.6-2.7h-0.9
	l-0.1-8.399l0.2-1.601l-2.601-0.3l-31.7-3l0,0c0,0,19.9-6.7,31.7-6c0.2,0,0.4,0,0.601,0l9,5l-0.301,0.5v9L342,399.5z"/>
<path fill="#FFFFFF" stroke="#000000" stroke-miterlimit="10" d="M321.6,400.5l17.601,2.7C332.1,411.9,326,422.6,321.6,434.4H321
	l-0.2-21.7l-0.1-12.2H321.6z"/>
<polygon fill="#FFFFFF" stroke="#000000" stroke-miterlimit="10" points="335.5,228.8 335.5,235.8 324.7,235.8 324.5,235.8 
	325,228.8 "/>
<path fill="#FFFFFF" stroke="#000000" stroke-miterlimit="10" d="M333.2,368.3c1.399,0,2.6,1.7,2.6,3.8c0,2.101-1.2,3.801-2.6,3.801
	c-1.4,0-2.601-1.7-2.601-3.801C330.6,370,331.7,368.3,333.2,368.3z"/>
<path fill="#FFFFFF" stroke="#000000" stroke-miterlimit="10" d="M323.1,235.5l-1.1,0.2l-25.5,4.6c0,0,8-5.5-0.5-9L323.1,235.5z"/>
<polygon fill="#FFFFFF" stroke="#000000" stroke-miterlimit="10" points="321.6,495.9 321.8,521.8 321.6,521.8 309.2,523.9 "/>
<polygon fill="#FFFFFF" stroke="#000000" stroke-miterlimit="10" points="321.3,465.3 321.6,495.9 309.2,523.9 297.5,525.9 "/>
<polygon fill="#FFFFFF" stroke="#000000" stroke-miterlimit="10" points="321.1,442.9 321.3,465.3 297.5,525.9 286.7,527.7 
	286.5,527 "/>
<polygon fill="#FFFFFF" stroke="#000000" stroke-miterlimit="10" points="321,434.5 321.1,442.9 286.5,527 286.7,527.7 276.5,529.5 
	281.4,507.6 284.1,495.7 284.1,495.7 320.8,412.8 320.8,412.8 "/>
<polygon fill="#FFFFFF" stroke="#000000" stroke-miterlimit="10" points="320.7,400.5 320.8,412.8 320.8,412.8 284.1,495.7 
	296.1,441.8 296.1,441.7 317.7,391.6 320.8,390.5 320.7,392.1 "/>
<path fill="#FFFFFF" stroke="#000000" stroke-miterlimit="10" d="M316.9,377.8c5.199-0.1,1.899,3.601,1.899,3.601
	c-0.2,0-0.399,0-0.6,0c-11.8-0.801-31.7,6-31.7,6l0,0l-7.7-0.7c0,0,17.8-6.101,24.2-6.7c0.2,0,0.5,0,0.7,0c2-0.1,3.2-0.4,3.5-1
	C307.2,378.8,311.7,377.9,316.9,377.8z"/>
<polygon fill="#FFFFFF" stroke="#000000" stroke-miterlimit="10" points="201.2,379.2 207.5,379.8 218.3,380.8 230,381.9 250,383.8 
	255,384.3 278.8,386.5 286.5,387.3 318.2,390.3 317.7,391.6 306.4,395.3 306.2,396.3 54.9,369.8 67.5,366.5 "/>
<polygon fill="#FFFFFF" stroke="#000000" stroke-miterlimit="10" points="306.2,396.3 306.4,395.3 317.7,391.6 296.1,441.7 "/>
<path fill="#FFFFFF" stroke="#000000" stroke-miterlimit="10" d="M296,275.4c-0.4-3.1-0.9-6-1.5-8.6c-0.9-4.5-1.9-8.2-2.7-11
	c-1.3-4.5-2.3-7-2.3-7h-33.7h-20.3v42h13.1h48.9C297.3,285.2,296.7,280,296,275.4z M296.5,240.8l16,61h-9h-0.1
	c-0.2-1.6-1.3-4.6-5.9-4.3c-4.4,0.2-44-2.2-68-3.7v-53h0.5H296.5z"/>
<path fill="#FFFFFF" stroke="#000000" stroke-miterlimit="10" d="M306.2,396.3l-10.1,45.5l0,0l-12,53.9l0,0l-2.7,12L39.9,466.5
	l-8.5,15.8c0.4-1.3,23.5-84,23.5-112.6L306.2,396.3z"/>
<path fill="#FFFFFF" stroke="#000000" stroke-miterlimit="10" d="M297.5,290.8h-48.9V289.4l9.5-13.4c0,0,0,0,0.1,0
	c12.6,0.3,37-0.5,37.8-0.5C296.7,280,297.3,285.2,297.5,290.8z"/>
<path fill="#FFFFFF" stroke="#000000" stroke-miterlimit="10" d="M296.1,231.3c8.5,3.5,0.5,9,0.5,9v0.5H230v-0.5
	C230,240.3,287.6,227.8,296.1,231.3z"/>
<path fill="#FFFFFF" stroke="#000000" stroke-miterlimit="10" d="M258.1,275.9c-3.8-0.1-6.6-0.2-7.6-0.6c-4.3-1.7,0-8.5,0-8.5h9h35
	l0,0c0.5,2.6,1,5.5,1.5,8.6C295.2,275.4,270.8,276.2,258.1,275.9C258.2,275.9,258.1,275.9,258.1,275.9z"/>
<path fill="#FFFFFF" stroke="#000000" stroke-miterlimit="10" d="M294.6,266.8L294.6,266.8h-35v-11h0.5h31.5h0.3
	C292.7,258.6,293.7,262.3,294.6,266.8z"/>
<path fill="#FFFFFF" stroke="#000000" stroke-miterlimit="10" d="M291.9,255.8h-0.3H260v-0.5l-4.2-6.5h33.7
	C289.5,248.8,290.6,251.2,291.9,255.8z"/>
<path fill="#FFFFFF" stroke="#000000" stroke-miterlimit="10" d="M291.5,372v4.5c-35.5,2.5-41.5,7.3-41.5,7.3l-20-1.899v-0.5
	c0,0,2-14.9-6.5-14.9l0.1-2.3l7.9,0.3v5.4L291.5,372z"/>
<path fill="#FFFFFF" stroke="#000000" stroke-miterlimit="10" d="M281.4,507.6l-4.9,21.801l-4.3,5.3l-242.7-49l1.8-3.4l0,0l8.5-15.8
	L281.4,507.6z"/>
<path fill="#FFFFFF" stroke="#000000" stroke-miterlimit="10" d="M273.5,345v7.3l-55-0.5V340l48.5,1.3l0.3-0.1
	C267.9,342.4,269.5,343.9,273.5,345z"/>
<path fill="#FFFFFF" stroke="#000000" stroke-miterlimit="10" d="M260,255.3v0.5h-0.5v11h-9c0,0-4.3,6.8,0,8.5
	c1,0.4,3.8,0.5,7.6,0.6l-9.5,13.4v1.4h-13.1v-42h20.3L260,255.3z"/>
<path fill="#FFFFFF" stroke="#000000" stroke-miterlimit="10" d="M223.5,366.5c8.5,0,6.5,14.9,6.5,14.9v0.5l-11.7-1.101
	C218.3,380.8,217.7,366.5,223.5,366.5z"/>
<path fill="#FFFFFF" stroke="#000000" stroke-miterlimit="10" d="M223.6,364.1l-0.1,2.301c-5.9,0-5.2,14.3-5.2,14.3l-10.9-1l0.1-1
	v-9h7v-6L223.6,364.1z"/>
<polygon fill="#FFFFFF" stroke="#000000" stroke-miterlimit="10" points="211.5,340.3 211.5,350.8 187.5,350.8 181.6,339.2 "/>
<path fill="#FFFFFF" stroke="#000000" stroke-miterlimit="10" d="M210.7,292.3l0.5,0.3c0,0-7.3,14.2-18.7,0.2l0.5-0.5
	c0,0,1.9-4,1.3-5.899l0.1-0.601c1.9,0.2,4.3-0.6,6.4-2.2c1.7-1.3,2.9-2.9,3.4-4.5l0.3,0.1C206.8,284,210.7,292.3,210.7,292.3z"/>
<path fill="#FFFFFF" stroke="#000000" stroke-miterlimit="10" d="M203.4,273c0.4,0.5,0.4,1.1,0.1,2c-0.6,1.6-2.4,3.9-4.8,5.8
	c-2.7,2.1-5.4,3.3-7.2,3.3c-0.7,0-1.2-0.2-1.5-0.6c-1.1-1.4,1-4.8,4.7-7.7C198.5,272.9,202.3,271.7,203.4,273z"/>
<g>
	<path d="M160,315.7c11.5,0,23,0,34.5,0.2c11.5,0.1,23,0.399,34.5,0.6c11.5,0.3,23,0.7,34.5,1.2c5.8,0.3,11.5,0.6,17.3,1
		c2.9,0.2,5.7,0.399,8.6,0.7c1.4,0.1,2.9,0.3,4.3,0.5c1.4,0.199,2.9,0.399,4.2,0.8c-1.4-0.4-2.8-0.5-4.3-0.7
		c-1.4-0.1-2.9-0.3-4.3-0.4c-2.9-0.199-5.7-0.3-8.6-0.5c-5.7-0.3-11.5-0.5-17.3-0.699c-11.5-0.4-23-0.7-34.5-1l-34.5-0.9L160,315.7z
		"/>
</g>
<g>
	<path d="M177,298.7c-0.3,1.3-0.6,2.6-0.7,3.899c-0.2,1.301-0.4,2.601-0.5,3.9c-0.3,2.6-0.4,5.2-0.4,7.9c0,2.6,0.1,5.199,0.4,7.899
		c0.3,2.601,0.7,5.2,1.3,7.8c-0.5-1.199-0.9-2.5-1.2-3.8c-0.3-1.3-0.6-2.6-0.8-3.899c-0.5-2.601-0.6-5.301-0.6-8
		c0-2.7,0.2-5.301,0.7-8C175.4,303.7,176,301.1,177,298.7z"/>
</g>
<g>
	<path d="M217.3,298.7c-0.2,1.3-0.4,2.6-0.5,3.899c-0.2,1.301-0.3,2.601-0.4,3.9c-0.2,2.6-0.4,5.2-0.4,7.9c-0.1,2.6,0,5.199,0.2,7.8
		c0.1,1.3,0.3,2.6,0.5,3.899c0.2,1.301,0.4,2.601,0.7,3.9c-0.5-1.2-0.9-2.5-1.2-3.8c-0.3-1.3-0.6-2.601-0.7-3.9
		c-0.4-2.6-0.5-5.3-0.5-8c0.1-2.7,0.3-5.3,0.7-7.899C216,303.8,216.5,301.2,217.3,298.7z"/>
</g>
<g>
	<path d="M248,295.3c-0.2,1.601-0.4,3.3-0.5,4.9c-0.1,1.6-0.2,3.3-0.3,4.899c-0.1,3.301-0.2,6.601-0.2,9.9s0.1,6.6,0.3,9.9
		c0.1,1.699,0.2,3.3,0.3,5c0.1,1.699,0.3,3.3,0.4,5c-0.7-3.301-1.1-6.5-1.4-9.9c-0.3-3.3-0.5-6.6-0.5-10c0-3.3,0.1-6.7,0.4-10
		C246.8,301.9,247.2,298.6,248,295.3z"/>
</g>
<g>
	<path d="M184.7,295.3c0.7,1.8,1.3,3.601,2.1,5.4c0.8,1.8,1.6,3.5,2.6,5.1c1,1.601,2.2,3.101,3.7,4.101s3.4,1.1,5.1,0.399
		c1.7-0.6,3.3-1.7,4.8-2.899c1.5-1.2,2.8-2.5,4.2-3.9c1.4-1.3,2.7-2.7,4.1-4.1c1.4-1.4,2.7-2.7,4.1-4c-2.5,2.899-5,5.899-7.6,8.699
		c-1.3,1.4-2.7,2.801-4.2,4c-1.5,1.2-3.1,2.4-5,3.101c-1,0.3-2,0.5-3,0.399c-1-0.1-2-0.5-2.9-1c-1.7-1.1-2.9-2.8-3.9-4.5
		C186.8,302.8,185.6,299.1,184.7,295.3z"/>
</g>
<g>
	<path d="M65,380c0.1,3.4,0.1,6.9,0,10.3c-0.1,3.4-0.3,6.9-0.6,10.3c-0.6,6.9-1.6,13.7-2.9,20.4c-1.5,6.7-3.3,13.4-6.1,19.8
		c-1.4,3.2-3,6.2-4.9,9.101c-2,2.8-4.3,5.5-7,7.6l-0.1-0.1c2.6-2.2,4.7-4.9,6.6-7.801c1.8-2.899,3.3-6,4.7-9.1
		c2.6-6.3,4.4-13,5.8-19.7s2.4-13.5,3.1-20.3C64.4,393.7,64.9,386.9,65,380L65,380z"/>
</g>
</svg>
