<?xml version="1.0" encoding="utf-8"?>
<!-- Generator: Adobe Illustrator 15.0.0, SVG Export Plug-In . SVG Version: 6.00 Build 0)  -->
<!DOCTYPE svg PUBLIC "-//W3C//DTD SVG 1.1//EN" "http://www.w3.org/Graphics/SVG/1.1/DTD/svg11.dtd">
<svg version="1.1" id="layer_x5F_www.ABC-color.com"
	 xmlns="http://www.w3.org/2000/svg" xmlns:xlink="http://www.w3.org/1999/xlink" x="0px" y="0px" width="567px" height="822px"
	 viewBox="0 0 567 822" enable-background="new 0 0 567 822" xml:space="preserve">
<path fill="#FFFFFF" stroke="#000000" d="M90.4,434.1v6.102c-24.9,2.3-79.3,0.8-79.3,0.8v-4.5c0.1,0,0.1,0,0.1,0
	c1.8-0.1,3.8-0.3,5.9-0.5C43.1,434.1,90.4,434.1,90.4,434.1z"/>
<path fill="#FFFFFF" stroke="#000000" d="M109.7,434L109.7,434h0.3c0,0,49.3,9.1,124.5,12.3c-52.8,5.9-126.8-6.2-126.8-6.2
	C108.7,438.7,109.4,436.5,109.7,434z"/>
<path fill="#FFFFFF" stroke="#000000" d="M264,466h0.4l0.3,13.2c-54.9-2-95.1-11.5-105.3-14.102C201.3,467.3,241.7,468.3,264,466z"
	/>
<path fill="#FFFFFF" stroke="#000000" d="M218.1,495.3l-0.1,1.2c-32,5.2-73.6,3.6-110.2-0.7l0.4-18.3c1.4,0.4,6.5,1.6,14.6,3.3
	c1.2,0.3-7.3,9.2-6,9.5c0,0,4.3-1,5.3-0.8c1.3,0.3,9.9-6.9,11.3-6.6C153.1,486.9,182.9,492,218.1,495.3z"/>
<path fill="#FFFFFF" stroke="#000000" d="M62.4,488.9c-3.3-0.602,6.6-2.7,0.7-6.102c-1.6-0.898-4.4-1.898-9-3.1
	c-16.5-4-39.6-6.2-45.4-6.7l0.1-6.6c24,0.5,75.8,5.8,81.7,6.398l-1,20.602C79.9,492,70.7,490.5,62.4,488.9z"/>
<path fill="#FFFFFF" stroke="#000000" d="M69.3,508.3l-0.1,0.4c0,0-42.9,0-61,6.398l-0.1-0.3l0.3-20.6h0.4c0,0,13.3,0.1,25.7,1.898
	c0.7,1.802-2.2,4.7,2.2,5.7C45.8,503.9,56.7,506.1,69.3,508.3z"/>
<path fill="#FFFFFF" stroke="#000000" d="M175.8,545.4l-0.1,0.6c0,0-32.2,3.7-69.4,3.1l0.4-19.398
	C112.2,531.4,136.9,539,175.8,545.4z"/>
<path fill="#FFFFFF" stroke="#000000" d="M267,514.1V533.7c-11.1-0.602-22-1.602-32.5-2.7c-2.9-0.3-16.9-8.3-19.6-8.6
	c-0.1,0-0.2,0-0.2,0c-2.7,0,4.8,7,1.7,6.6c-33.1-4.2-59.1-9.5-68.9-11.7c20.8,1.2,43.3,1.601,67.1,0.8
	C231.4,517.4,249,516.1,267,514.1z"/>
<path fill="#FFFFFF" stroke="#000000" d="M387.5,524.4c-30.5,8.898-67,11.1-102.4,10.1l-1.3-20.4
	C287.1,514.7,329.4,523.3,387.5,524.4z"/>
<path fill="#FFFFFF" stroke="#000000" d="M510.1,595.5l-0.1,0.7c-13.4,3.3-28.5,3.5-43,2v-11.9C467,588.1,487.7,591.9,510.1,595.5z"
	/>
<path fill="#FFFFFF" stroke="#000000" d="M448.9,581.1l1.3,14.802c-28.3-5-51.2-14.2-51.2-14.2l-0.2-0.4c1-0.399,2.102-0.7,3.2-1.1
	V579.6C417.5,580.6,433.3,581.2,448.9,581.1z"/>
<path fill="#FFFFFF" stroke="#000000" d="M448.1,538.5l0.802,19.8c-40.2-0.1-73.2-6.3-73.2-6.3l-0.2-1.8
	C398.8,547.7,423.1,543.9,448.1,538.5z"/>
<path fill="#FFFFFF" stroke="#000000" d="M329,571.9l-0.1,0.698c-12.602,4.5-28.301,6.2-44.5,6.2L284,564.4
	C288.2,565.3,305.2,568.5,329,571.9z"/>
<path fill="#FFFFFF" stroke="#000000" d="M266.6,567.3l-0.3,9.9l-0.1,1.1c-25.6-1.5-49.6-5.898-60.7-8.1
	C224.1,569.5,244.4,568.6,266.6,567.3z"/>
<path fill="#FFFFFF" stroke="#000000" d="M90,527l-0.4,21.5c-25-1.4-50.4-5.2-68.6-13.8c26.8-6.102,68.5-7.7,68.5-7.7H90z"/>
<path fill="#FFFFFF" stroke="#000000" d="M81.1,570.9C70.5,573.3,28.4,582.6,9.6,583.3l-0.3-20.2C13.8,564.5,32.1,569,81.1,570.9z"
	/>
<path fill="#FFFFFF" stroke="#000000" d="M76,617.1v0.4c0,0-46,8.2-66.4,8.2l-0.4-8.9C15.1,617,42.5,617.7,76,617.1z"/>
<path fill="#FFFFFF" stroke="#000000" d="M164.8,626.8c-3.6,1-35,9.9-58.5,11.5l-0.4-11.6C110.9,626.7,133.5,626.8,164.8,626.8z"/>
<path fill="#FFFFFF" stroke="#000000" d="M218.8,598.3c15.4,1.102,31.6,1.7,48.2,1.7v0.1v9.302c-40.1-0.602-68.7-2.4-68.7-2.4
	l-0.1-0.2c8.5-2.1,15.6-4.5,20.4-7.399L218.8,598.3z"/>
<path fill="#FFFFFF" stroke="#000000" d="M285.1,600v-0.4c25-0.8,50.602-3.198,75.2-8.1l0.3,1.6c16.302,3.2,33.802,6.7,51.5,9.9
	l-0.1,0.8c-23.3,2.602-48.2,4.2-72.5,5c-3.5,0.102-15.4-5.8-18.9-5.7c-3,0.102,2.302,6.2-0.698,6.2c-12,0.2-23.7,0.3-34.7,0.2V600
	H285.1z"/>
<path fill="#FFFFFF" stroke="#000000" d="M565,715.6c-11.4-10.698-98.6,0.4-98.6,0.4c-25.7,16.6-97.5,1.5-104.302,2.3
	c-33.5,3.7-104.3-12.8-104.3-12.8c-22-4.6-63.5,6-95.3,17.3s-77.9-10.6-77.9-10.6c-23.5-7.602-57.5,3.7-64.3,7.5
	c-6.8,3.8-19.7-6-19.7-6L0.5,655.6l11.3,0.802l-1-4.302c9.2,2,138.8-4.898,210.9-9c3.4-0.198,17.2,5.102,20.3,4.9
	c2.9-0.2-4.8-5.8-2.2-5.9c18-1,29.4-1.698,29.4-1.698s-1.5,4.6,11.3,2.3s3.8-1.5,4.5-6.102c7.5,11.4,268,12.9,268,12.9h0.8
	c0.2,3.6,0.602,7.1,1.5,7.6c3.8,2.302,11.3-3,11.3-1.5l1,60.4h-2.3l-0.1-0.1C565.2,715.8,565.1,715.7,565,715.6z"/>
<path fill="#FFFFFF" stroke="#000000" d="M0.6,713.7c0,0,12.9,9.8,19.7,6c6.8-3.8,40.8-15.102,64.3-7.5c0,0,46.1,21.898,77.9,10.6
	s73.3-21.898,95.3-17.3c0,0,70.8,16.5,104.3,12.8c6.802-0.8,78.602,14.3,104.302-2.3c0,0,87.198-11.1,98.6-0.4
	c0.1,0.102,0.2,0.2,0.3,0.302l0.102,0.1h2.298V716v102H567.6v4.5"/>
<path fill="#FFFFFF" stroke="#000000" d="M566.7,642.7V655.6c0-1.5-7.5,3.802-11.3,1.5c-0.9-0.6-1.302-4.1-1.5-7.6
	c-0.102-3.1-0.102-6.3-0.102-7.6C561.2,643.2,566.2,643.7,566.7,642.7z"/>
<path fill="#FFFFFF" stroke="#000000" d="M512,575.8c9.5,2,32.7,6.7,45.6,7.5c5.4,0.3,9,0,9-1.5V603.9c0,0-3.398-0.5-9-1.302
	c-10.8-1.5-29.698-4.198-47.5-7.1c-22.5-3.6-43.1-7.4-43.1-9.1l0,0v-4.6v-1.1C482.8,580,498,578.5,512,575.8z"/>
<path fill="#FFFFFF" stroke="#000000" d="M566.7,581.8c0,1.5-3.602,1.8-9,1.5l0.5-22.8l0.3-14.5l-0.1-1.1
	c4.198-0.302,7.198-1,8.398-1.9v38.8H566.7z"/>
<path fill="#FFFFFF" stroke="#000000" d="M492.4,517.3c9.6,0.9,42.8,3.7,64.5,3.3c3.698-0.1,7-0.3,9.8-0.5V542.9
	c-1.2,1-4.2,1.6-8.4,1.898c-5.7,0.5-13.5,0.4-22.398,0.102c-30.4-1.2-71.9-5.9-71.9-5.9l-1.4-17.8
	C472.4,520.3,482.4,519,492.4,517.3z"/>
<path fill="#FFFFFF" stroke="#000000" d="M556.8,468.2c4.3-0.9,7.7-1.9,9.8-3V520c-2.8,0.3-6.1,0.4-9.8,0.5V520
	c-0.1-7-0.2-13-0.2-18.3c0-10.5,0.102-17.8,0.302-22.8c0.1-3.9,0.3-6.4,0.398-7.9L556.8,468.2z"/>
<path fill="#FFFFFF" stroke="#000000" d="M559.2,456.8c3.8-0.5,6.398-0.898,7.5-1.398v9.898c-2.2,1.102-5.602,2.102-9.8,3
	c-27.2,5.602-89.4,6.9-94.102,6.9l-0.3-13.4C505.3,460.3,543.2,458.6,559.2,456.8z"/>
<path fill="#FFFFFF" stroke="#000000" d="M559.9,435.2c3.1,0.5,5.398,1.2,6.698,1.898V455.4c-1,0.5-3.6,0.898-7.5,1.398l-0.1-0.6
	c1.5-10.7,0.8-20.602,0.8-20.602L559.9,435.2z"/>
<path fill="#FFFFFF" stroke="#000000" d="M557.7,602.6c5.6,0.802,9,1.302,9,1.302v19h-2.3c-1.102,0-4.2-0.302-8.5-0.9l0.198-1.4
	l1.5-17.5L557.7,602.6z"/>
<path fill="#FFFFFF" stroke="#000000" d="M497.6,613.6c14.9,2.2,43.802,6.5,58.302,8.4c4.3,0.5,7.398,0.9,8.5,0.9h2.3v19.8
	c-0.5,1-5.4,0.5-12.9-0.8c-13.1-2.4-34-7.4-52.1-12l0,0c-19.3-4.9-35.5-9.302-35.5-9.302l0.8-7.6l0.2-1.5
	C477.7,612.6,487.9,613.4,497.6,613.6z"/>
<path fill="#FFFFFF" stroke="#000000" d="M561.4,418.8V410.4v-19v-19c0,0,1.8-2,5.3-3v48.7C565.6,418.6,563.7,418.8,561.4,418.8z"/>
<path fill="#FFFFFF" stroke="#000000" d="M561.4,410.4v8.399c-8.4,0-23.102-2.8-30.2-4.1c9.8-1.2,19.8-2.602,29.398-4.3H561.4z"/>
<path fill="#FFFFFF" stroke="#000000" d="M556.1,560.4h2l-0.5,22.8c-12.898-0.8-36.198-5.5-45.6-7.5
	C529.1,572.6,544.3,567.6,556.1,560.4z"/>
<path fill="#FFFFFF" stroke="#000000" d="M497.6,613.6c24.5,0.7,45.7-2,60-10.5l-1.5,17.5L555.9,622
	C541.3,620.2,512.5,615.9,497.6,613.6z"/>
<path fill="#FFFFFF" stroke="#000000" d="M556.9,520.6c-21.602,0.4-54.802-2.398-64.5-3.3c21.198-3.5,42.6-8.5,63.698-15.5h0.602
	c0,5.3,0.1,11.3,0.2,18.3V520.6z"/>
<path fill="#FFFFFF" stroke="#000000" d="M470.6,568.8c0,2.3,4.2,4.2,9.4,4.2s9.4-1.9,9.4-4.2s-4.2-4.2-9.4-4.2
	S470.6,566.5,470.6,568.8z M330.4,561.2c1.5-0.102,6-4.5,7.5-4.602c1.5-0.1,3-3.3,4.6-3.398c10.7-0.7,21.7-1.7,32.9-2.9l0.198,1.8
	c0,0,33,6.2,73.2,6.302c5.4,0,10.9-0.102,16.602-0.302c24-1,49.1-4.6,70.5-13c8.8,0.302,16.698,0.4,22.398-0.1l0.102,1.1
	l-0.302,14.5h-2c-11.8,7.2-27,12.102-44.1,15.4c-14,2.7-29.2,4.2-45,4.8c-6,0.3-12,0.4-18.1,0.4c-15.602,0.1-31.4-0.5-46.802-1.5
	c-27-1.8-52.6-4.8-73.198-7.7c-23.802-3.4-40.802-6.6-45.101-7.4l-0.3-9.6c14.2,0.2,29.1,0,44.5-0.8
	C329.9,554,328.6,561.3,330.4,561.2z"/>
<path fill="#FFFFFF" stroke="#000000" d="M445.1,443.1v0.9c0,0,3.302-0.7,7.2-1.3c36.602-2.2,68.7-5.3,77.7-9.5
	c12,0.2,22.9,0.8,29.9,2L559.8,435.6c0,0,0.8,9.9-0.8,20.602l0.1,0.6c-16,1.9-53.898,3.602-96.698,5c-5.5,0.2-11,0.4-16.602,0.5
	c-10.7,0.3-21.6,0.602-32.398,0.9C347,465,284.3,466,284.3,466h-0.8l0.8-18.2V447.4c11.5,0,23.3-0.2,35.5-0.5v0.898L445.1,443.1z"/>
<path fill="#FFFFFF" stroke="#000000" d="M533.6,209c0,0-9.8-25.6,13.602-35.5c0,0,12.7-7.5,14.3-10.5c0,0,0,0,0,0.1s0,0.1,0,0.1
	c0,0.1,0,0.1,0,0.2c-0.5,1.9-2.3,9.2-3.7,14.7c0,0.2-0.1,0.3-0.1,0.5c-0.7,2.5-1.3,4.6-1.5,5.5c0,0-0.7,34-8.3,34
	c0,0-2.302,1.7-5,1.7c-0.102,0-0.2,0-0.302,0c-0.1,0-0.198,0-0.3,0c-2.5-0.3-5.2-2.3-6.2-9.1c0-0.1,0-0.1,0.102-0.1
	c0-0.1,0-0.2,0-0.2c0.5-1.1,0.5-1.7-0.3-1.4c-0.5,0.2-1.102,0.5-1.7,0.9L533.6,209z"/>
<path fill="#FFFFFF" stroke="#000000" d="M547.9,218.1c0,0-2.5,1.8-5.2,1.7c2.6,0,5-1.7,5-1.7c7.6,0,8.3-34,8.3-34
	c0.3-0.9,0.9-3,1.5-5.5c-0.6,2.5-1.1,4.6-1.4,5.5C556.2,184.1,555.4,218.1,547.9,218.1z"/>
<path fill="#FFFFFF" stroke="#000000" d="M541.6,128.8c-0.1,0.3-0.198,0.6-0.398,1C541.4,129.4,541.5,129.1,541.6,128.8z"/>
<path fill="#FFFFFF" stroke="#000000" d="M540.4,131.8c-0.4,0.8-0.802,1.7-1.302,2.6C539.5,133.5,540,132.7,540.4,131.8z"/>
<path fill="#FFFFFF" stroke="#000000" d="M538.4,135.3c-0.2,0.3-0.4,0.6-0.602,0.9C538,135.9,538.2,135.6,538.4,135.3z"/>
<path fill="#FFFFFF" stroke="#000000" d="M541.1,277c-3.1-1.2-5-2.7-6.198-4.2C536.1,274.3,538.1,275.9,541.1,277
	c0.5,0.2,1,0.3,1.4,0.3C542,277.3,541.6,277.2,541.1,277z"/>
<path fill="#FFFFFF" stroke="#000000" d="M399.1,581.8c0,0,22.9,9.102,51.2,14.2c5.4,1,11.102,1.8,16.8,2.3
	c14.5,1.5,29.602,1.3,43-2l0.102-0.7c17.8,2.802,36.7,5.602,47.5,7.102l-0.102,0.5c-14.3,8.5-35.5,11.2-60,10.5
	c-9.698-0.3-19.898-1-30.398-2.2c-5.9-0.7-12-1.4-18.102-2.3c-12.198-1.7-24.698-3.8-37.1-6.102c-17.7-3.198-35.2-6.698-51.5-9.898
	l-0.3-1.602c13.2-2.698,26.2-6,38.6-10.198L399.1,581.8z"/>
<path fill="#FFFFFF" stroke="#000000" d="M536.1,210.3c0,0.1,0,0.2,0,0.2c0,0.1,0,0.1-0.1,0.1c0-0.1,0-0.2,0-0.2
	S536,210.4,536.1,210.3z"/>
<path fill="#FFFFFF" stroke="#000000" d="M534.9,259.8c0.1-0.2,0.3-0.3,0.398-0.4c0.102-0.1,0.102-0.1,0.2-0.1l0,0
	c0.1,0,0.2,0,0.2,0c0.1,0.1,0.1,0.2,0.1,0.4c0,0.2,0,0.3-0.1,0.6c0,0.2-0.102,0.3-0.102,0.5C535.7,260.7,534.9,259.8,534.9,259.8z"
	/>
<path fill="#FFFFFF" stroke="#000000" d="M535.4,259.3c0.1-0.1,0.198-0.1,0.198,0C535.6,259.3,535.6,259.3,535.4,259.3z"/>
<path fill="#FFFFFF" stroke="#000000" d="M535.8,360.9l31.8,7.5h-0.1l-0.6-0.1l-31-7.3l-0.4-0.1v-0.1L535.8,360.9z"/>
<path fill="#FFFFFF" stroke="#000000" d="M535.5,261.3c-0.3,1-0.7,2.3-1.3,3.9C534.7,263.6,535.2,262.3,535.5,261.3z"/>
<path fill="#FFFFFF" stroke="#000000" d="M532.9,268.5c0.1,0.7,0.398,1.9,1.198,3.3c-0.8-1.3-1.198-2.4-1.3-3.1
	C532.9,268.6,532.9,268.5,532.9,268.5z"/>
<path fill="#FFFFFF" stroke="#000000" d="M530.5,152.3c3.8,1.1,7.2,1,8.8,0.9C537.7,153.3,534.3,153.4,530.5,152.3z"/>
<path fill="#FFFFFF" stroke="#000000" d="M359.8,626.7c31.102,8.398,63.7,9.7,89.8,8.7c5.4-0.2,10.5-0.5,15.2-0.9
	c9.8-0.8,18.2-1.8,24.5-2.7c6.3-0.898,10.602-1.7,12.3-2l0,0c18.102,4.602,39,9.602,52.102,12c0,1.4,0,4.5,0.1,7.602H553
	c0,0-260.4-1.5-268-12.9l-0.8-8.4v-1.9c26.2-0.301,52.2-0.602,75.5-1.102L359.8,626.7z"/>
<path fill="#FFFFFF" stroke="#000000" d="M526.8,381.9L526.8,381.9c-0.1-0.2-0.2-0.4-0.2-0.7C526.6,381.5,526.7,381.7,526.8,381.9z"
	/>
<path fill="#FFFFFF" stroke="#000000" d="M520.1,232.5l-3,57.5c-0.198,0.4-0.3,0.6-0.3,0.6l3-58.2c2.5-1.8,13.8-17,16-21.9
	c0,0.2,0,0.4,0.102,0.6C533.2,216.4,522.4,230.8,520.1,232.5z"/>
<path fill="#FFFFFF" stroke="#000000" d="M521.3,84.2c-0.7-0.1-1.3-0.2-2-0.2C520,84,520.7,84,521.3,84.2z"/>
<path fill="#FFFFFF" stroke="#000000" d="M519.3,185.6l-0.8,0.8l2.3,33.8c-0.1,0.1-0.1,0.1-0.1,0.1l-2.3-34l0.8-0.8
	C519.2,185.6,519.3,185.6,519.3,185.6z"/>
<ellipse fill="#FFFFFF" stroke="#000000" cx="495.8" cy="139.2" rx="29.5" ry="37.4"/>
<path fill="#FFFFFF" stroke="#000000" d="M517.1,332.1c2.102-4.6,6.302-10.7,13.5-6.8c0,0,5.802,11.1,6.102,24.4
	c-0.3-13.1-6.102-24.2-6.102-24.2c-7.198-3.9-11.398,2.2-13.5,6.8H517C517.1,332.2,517.1,332.2,517.1,332.1z"/>
<path id="www.ABC-color.com" fill="#FFFFFF" stroke="#000000" d="M517,332.3c-1.5-10.6,0.8-30.3,0.8-30.3s9.8-20.9,15-33.4
	c0.102,0.7,0.5,1.8,1.3,3.1c0.2,0.3,0.5,0.7,0.7,1c1.2,1.5,3.102,3.1,6.2,4.2c0.5,0.2,0.9,0.3,1.4,0.3c0.1,0,0.3,0,0.398,0
	c0.4,0,0.8,0,1.102,0c0.198,0,0.398-0.1,0.6-0.1c6.1-1.2,9.5-11.6,9.5-11.6c3-3,5.8-4.1,8-4.3c0.2,0,0.3,0,0.5,0c0.3,0,0.6,0,0.9,0
	c2.1,0.1,3.698,1.1,3.698,1.1l0.602,106.1l-0.2-0.1h0.1l-31.8-7.5l-0.3-0.1c0.5-1.9,0.8-3.9,1-5.8l0,0c0.1-0.6,0.1-1.3,0.1-1.9
	c0-0.4,0-0.7,0-1.1c0-0.8,0-1.5,0-2.3c-0.3-13.2-6.1-24.4-6.1-24.4c-7.2-3.9-11.4,2.2-13.5,6.8C517.1,332.2,517.1,332.2,517,332.3
	L517,332.3z"/>
<path fill="#FFFFFF" stroke="#000000" d="M514.8,375.3c-0.898-0.6-1.8-1.2-2.5-1.8c-0.2-0.2-0.398-0.4-0.6-0.5
	c-4.5-3.8-4.5-3.8-4.5-3.8s-1.5-1.2-3.8-3.2c-5.4-4.7-15-13.6-19-20.8c-2.302-4-2.9-7.5,0.1-9.2c0,0,0.1-0.1,0.3-0.2
	c0.102,0,0.2-0.1,0.3-0.2c0.102-0.1,0.302-0.2,0.5-0.3c0.302-0.2,0.602-0.3,1-0.5c0.302-0.2,0.602-0.3,1-0.5
	c4.5-1.9,12.7-4.3,19.4,0.9l9.1,13.6v-0.4l0.2,0.3l-0.8-12.1c0.1-0.4,0.7-2.2,1.5-4.3h0.1c2.102-4.6,6.302-10.7,13.5-6.8
	c0,0,5.7,11,6.102,24.2c0,0.8,0,1.5,0,2.3c0,0.4,0,0.7,0,1.1c0,0.6-0.102,1.3-0.102,1.9l0,0c-0.198,1.9-0.5,3.8-1,5.7
	c-0.5,1.8-1.1,3.6-1.898,5.4c0,0-6.7,10.3-7,14.6c0,0.2,0,0.4,0,0.6c0,0.3,0,0.5,0.1,0.7c-0.2-0.1-0.8-0.3-1.7-0.8
	c-0.1-0.1-0.198-0.1-0.3-0.2c-2.398-1.3-6.6-3.5-9.898-5.7l0,0H514.8L514.8,375.3z"/>
<path fill="#FFFFFF" stroke="#000000" d="M516.8,332.2c-1.5-10.6,0.8-30.3,0.8-30.3s10.102-20.9,15.2-33.5c0.3-0.8,0.7-1.6,1-2.3
	c0.102-0.3,0.3-0.7,0.4-1c0.6-1.6,1.1-2.9,1.3-3.9c0-0.2,0.1-0.3,0.1-0.4c0-0.1,0-0.1,0-0.1v-0.1c0-0.2,0.102-0.3,0.102-0.5
	c0-0.2,0.1-0.4,0.1-0.6s0-0.3-0.1-0.4c0,0-0.102,0-0.2,0l0,0c0,0-0.1,0.1-0.2,0.1c-0.1,0.1-0.2,0.2-0.398,0.4l0.8,0.9
	c-0.2,0.3-1.4-0.1-1.7,0.3c-0.1,0.2-0.3,0.4-0.4,0.6c-0.5,0.8-1.1,1.7-1.8,2.8l0,0c-0.5,0.8-1,1.7-1.5,2.6c-0.2,0.3-0.3,0.5-0.5,0.8
	c-0.1,0.2-0.2,0.4-0.399,0.6c-5.301,9.1-12.199,21.9-12.199,22.3v-0.7c1.398-2.7,7.3-13.6,12.1-21.6c-2-1.4-9-7.6,3.5-20.8
	c0,0,1.4-0.3,3.5-0.5c0.5,0,1.101-0.1,1.7-0.1c0.1,0,0.2,0,0.3,0c0.2,0,0.3,0,0.5,0c0.8,0,1.601-0.1,2.5-0.1l2.5,0.1
	c0.5,0,1.101,0.1,1.601,0.1c8.101,0.8,17.601,4.2,21.801,15.5c0,0-1.602-1-3.7-1.1c-0.3,0-0.601,0-0.9,0c-0.1,0-0.3,0-0.5,0
	c-2.3,0.2-5,1.3-8,4.3c0,0-3.3,10.4-9.5,11.6c-0.199,0-0.399,0.1-0.6,0.1c-0.4,0-0.7,0-1.101,0c-0.101,0-0.301,0-0.399,0
	c-0.4-0.1-0.8-0.2-1.3-0.3c-3.102-1.2-5.102-2.7-6.301-4.2c-0.301-0.3-0.5-0.7-0.699-1c-0.9-1.4-1.102-2.6-1.2-3.3
	c0,0.1,0,0.1-0.101,0.2c-5.199,12.5-15,33.4-15,33.4s-2.301,19.6-0.801,30.3l0,0c-0.898,2.1-1.398,3.9-1.5,4.3l0.801,12.1
	l-0.199-0.3l-0.801-11.7C515.4,336.3,515.9,334.4,516.8,332.2L516.8,332.2z"/>
<path fill="#FFFFFF" stroke="#000000" d="M514.8,375.2c3.3,2.2,7.5,4.4,9.9,5.7c-2.5-1.2-6.602-3.4-9.9-5.6V375.2z"/>
<path fill="#FFFFFF" stroke="#000000" d="M514.8,375.3L514.8,375.3c3.3,2.2,7.5,4.4,9.9,5.6c0.1,0.1,0.2,0.1,0.3,0.2
	c0.9,0.5,1.5,0.7,1.7,0.8l0,0c-0.102-0.2-0.2-0.4-0.2-0.7c0-0.2,0-0.4,0-0.6c0.3-4.3,7-14.6,7-14.6c0.8-1.8,1.4-3.6,1.9-5.4
	c0.5-1.9,0.8-3.8,1-5.7c-0.2,1.9-0.5,3.9-1,5.8v0.1l0.398,0.1l31,7.3l-0.3,1.1c-3.5,1.1-5.3,3-5.3,3v19h-0.8
	c-14.7,2.6-30.102,4.6-44.4,6.101l-0.1-1V396.3l-1.4-21.1c-0.9-0.6-1.7-1.2-2.4-1.8l0,0C513,374.1,513.9,374.7,514.8,375.3z"/>
<path fill="#FFFFFF" stroke="#000000" d="M509.3,186.9h0.9l0.8,65.7c0,0,0,0-0.1-0.1l-0.802-65.4h-0.8
	C509.3,187.1,509.3,187,509.3,186.9z"/>
<path fill="#FFFFFF" stroke="#000000" d="M510.1,179.6c0,0.1,0.102,0.1,0.2,0.2c-0.1-0.1-0.2-0.2-0.3-0.3c-0.9-1.3-1.2-1.9-1.4-2.1
	l0,0C508.6,177.4,508.9,177.8,510.1,179.6z"/>
<path fill="#FFFFFF" stroke="#000000" d="M519.4,83.9c-4.7-0.2-9.2,1.8-12.102,3.5C510.1,85.7,514.6,83.7,519.4,83.9z"/>
<path fill="#FFFFFF" stroke="#000000" d="M507.2,335.1l8.898,13.3v0.4l-9.1-13.6V335C507.1,335,507.1,335.1,507.2,335.1z"/>
<path fill="#FFFFFF" stroke="#000000" d="M506.7,87.8c0.2-0.1,0.398-0.2,0.6-0.4C507.1,87.6,506.9,87.7,506.7,87.8z"/>
<path fill="#FFFFFF" stroke="#000000" d="M503.3,366.1c2.3,1.9,3.8,3.1,3.8,3.1s0,0,4.5,3.8c0.2,0.2,0.5,0.4,0.7,0.5
	c0.7,0.6,1.5,1.2,2.4,1.8l1.398,21.101v0.1l-12.1,1.2L503.3,366.1z"/>
<path fill="#FFFFFF" stroke="#000000" d="M503.3,366.1l0.7,31.6h-0.1l-0.7-31.7L503.3,366.1C503.2,366,503.2,366,503.3,366.1
	C503.3,366,503.3,366,503.3,366.1z"/>
<path fill="#FFFFFF" stroke="#000000" d="M501.8,321.4c0.3,0.4,0.602,0.7,0.8,1C502.4,322,502.1,321.7,501.8,321.4z"/>
<path fill="#FFFFFF" stroke="#000000" d="M282.9,498.7c18.1,0.2,36.8-0.4,55.6-2c10.1,1,57.6,5.6,107.5,4.2
	c5.8-0.2,11.6-0.4,17.4-0.7c4.3-0.2,8.6-0.5,12.8-0.9c3.7-0.3,13.6-10,17.3-10.398c2.1-0.2,0.9,6.398,3,6.1c3.1-0.4,3.2,1.6,6.2,1.2
	c21.5-3.4,40.8-8.8,54.2-17.2h0.1c-0.2,5-0.3,12.3-0.3,22.8H556.1c-21.1,7-42.5,12-63.698,15.5c-10,1.7-19.9,3-29.7,4
	c-5.102,0.5-10.2,1-15.2,1.4c-21.1,1.7-41.3,2-60,1.7c-58.1-1.102-100.399-9.7-103.7-10.3L282.9,498.7L282.9,498.7z"/>
<path fill="#FFFFFF" stroke="#000000" d="M471.5,317.8c-23.4-9.8-28.7-56.7-28.7-56.7c34,1.5,56.7,32.5,56.7,32.5
	c0.2,0.2,0.3,0.5,0.5,0.7c0.8,1.1,1.2,2.1,1.4,2.9c0.1,0.3,0.1,0.6,0.1,0.9c0,0.2,0,0.3,0,0.5c0,0.2-0.1,0.3-0.1,0.4
	c-1.7,4.7-17,1.4-17,1.4v0.1c-0.7-0.4-1.302-0.6-1.7-0.6c-0.102,0-0.102,0-0.2,0l0,0h-0.1c-0.102,0-0.302,0.2-0.302,0.4v0.1l0,0
	C488.1,318.6,471.5,317.8,471.5,317.8z"/>
<path fill="#FFFFFF" stroke="#000000" d="M507,335.2c-6.7-5.2-15-2.8-19.4-0.9c4.4-2,12.602-4.4,19.4,0.7V335.2z"/>
<path fill="#FFFFFF" stroke="#000000" d="M498.2,186.2c-2.2,3.6-1.602,18.7,4.8,15.8c-6.7,3.3-7.2-12.1-5-15.7
	c0.9-1.6,1.5-2.5,1.8-3c0.3-0.3,0.5-0.6,0.602-0.7C500.3,182.8,499.9,183.6,498.2,186.2z"/>
<path fill="#FFFFFF" stroke="#000000" d="M496.5,495c-2.1,0.3-0.9-6.3-3-6.1c-3.7,0.398-13.6,10.1-17.3,10.398
	c-4.2,0.4-8.5,0.7-12.8,0.9l-0.102-1.4l-0.5-23.6c4.602-0.102,66.9-1.4,94.102-6.9l0.5,2.8c-0.102,1.5-0.302,4-0.4,7.9h-0.1
	c-13.4,8.4-32.602,13.8-54.2,17.2C499.7,496.6,499.5,494.6,496.5,495z"/>
<path fill="#FFFFFF" stroke="#000000" d="M480,573c-5.2,0-9.4-1.9-9.4-4.2s4.2-4.2,9.4-4.2s9.4,1.9,9.4,4.2
	C489.5,571.1,485.2,573,480,573z"/>
<path fill="#FFFFFF" stroke="#000000" d="M489,235.3c-1.5,0.4-3.2,0.4-4.6,0.3c-0.102-0.1-0.2-0.1-0.302-0.1
	C485.6,235.6,487.4,235.6,489,235.3z"/>
<path fill="#FFFFFF" stroke="#000000" d="M484.4,300.3c0,0,15.3,3.4,17-1.4c-1.602,4.8-17,1.5-17,1.5V300.3z"/>
<path fill="#FFFFFF" stroke="#000000" d="M483.6,345.8c-15.6-4.1-31-7.8-46.3-11.1C452.6,338,468,341.7,483.6,345.8L483.6,345.8z"/>
<path fill="#FFFFFF" stroke="#000000" d="M482.1,300.3c0-0.2,0.2-0.3,0.302-0.4C482.3,300,482.2,300.1,482.1,300.3z"/>
<path fill="#FFFFFF" stroke="#000000" d="M494.2,246.1c-4.102-3.5-8.102-6.8-13.5-11.1c0.7,0.2,1.898,0.5,3.398,0.6
	c8.4,4.2,26.9,17.2,26.9,17.2v-0.3c0.1,0.1,0.1,0.1,0.1,0.1l-0.8-65.7H509.4c0,0.1,0,0.1,0,0.2H509.3c0.2-4.8-0.5-9.1-0.6-9.7
	c0.1,0.2,0.5,0.8,1.398,2.1c0.102,0.1,0.2,0.2,0.302,0.3l0.1,0.1c1.2,1.2,4.2,3,7.1,4.6c0.102,0.1,0.2,0.1,0.302,0.2
	c0.198,0.1,0.3,0.2,0.5,0.3c0.3,0.2,0.6,0.3,0.898,0.5l-0.8,0.8l2.3,34c0,0,0,0,0.102-0.1v0.2c0,0,8.698-7.5,13.398-10.4
	c0.7-0.4,1.3-0.7,1.7-0.9c0,0.4,0.1,0.8,0.2,1.3c0,0.1,0,0.1-0.102,0.1c0,0.1,0,0.2,0,0.2c-0.1,0.1-0.1,0.2-0.198,0.3
	c0-0.2,0-0.4-0.102-0.6c-2.2,4.9-13.5,20.1-16,21.9l-3,58.2c0,0,0.102-0.2,0.3-0.6v0.7c0-0.5,6.9-13.2,12.2-22.3
	c0.102-0.2,0.2-0.4,0.4-0.6c0.2-0.3,0.3-0.5,0.5-0.8c0.5-0.9,1.1-1.8,1.5-2.6l0,0c0.7-1.1,1.3-2,1.8-2.8c0.1-0.2,0.3-0.4,0.4-0.6
	c0.3-0.5,1.5,0,1.698-0.3c0,0,0,0,0,0.1v0.1c0,0.1-0.1,0.3-0.1,0.4c-0.3,1-0.8,2.3-1.3,3.9c-0.101,0.3-0.3,0.6-0.4,1
	c-0.3,0.7-0.6,1.5-1,2.3c-5.1,12.5-15.2,33.5-15.2,33.5s-2.3,19.6-0.8,30.3h0.102c-1,2.2-1.5,4.1-1.602,4.5l0.8,11.7l-8.898-13.3
	c-0.102,0-0.102-0.1-0.2-0.1l0.8-5.1c-0.2-0.5-0.5-1.1-0.898-1.7c-0.102-0.2-0.2-0.3-0.302-0.5c-0.1-0.2-0.3-0.4-0.398-0.6
	c-0.2-0.3-0.4-0.6-0.602-0.9c-0.1-0.2-0.198-0.3-0.398-0.5c-0.8-1.1-1.7-2.2-2.602-3.4c-0.3-0.3-0.5-0.7-0.8-1
	c0-0.1-0.1-0.1-0.1-0.2c-0.3-0.3-0.602-0.7-0.9-1c-0.1-0.1-0.1-0.1-0.2-0.2c-0.3-0.4-0.698-0.8-1-1.2c-1.6-1.8-3.3-3.7-5-5.5
	c-0.3-0.3-0.6-0.6-0.8-0.9c-3.1-3.3-6.1-6.4-8.3-8.6c-0.1-0.1-0.3-0.3-0.399-0.4c-0.601-0.6-1.101-1.1-1.601-1.5
	c-0.1-0.1-0.2-0.2-0.3-0.3c-0.5-0.5-0.9-0.9-1.101-1L482,300.4l0,0l0,0c0-0.1,0-0.1,0-0.1c0.101-0.2,0.2-0.3,0.3-0.4h0.102l0,0
	c0,0,0.1,0,0.199,0c0.399,0,0.899,0.2,1.601,0.7c6.1,3.5,22.7,21.1,22.7,21.1v-0.2c0.1,0.1,0.1,0.1,0.1,0.1l0.9-61.3
	C507.6,258.1,500.9,251.9,494.2,246.1z"/>
<path fill="#FFFFFF" stroke="#000000" d="M466.3,139.2c0,20.6,13.2,37.4,29.5,37.4s29.5-16.7,29.5-37.4c0-20.7-13.2-37.4-29.5-37.4
	S466.3,118.5,466.3,139.2z M447.1,110.8c2.102-0.1,10.602,0.1,13.9,6c0-0.1-0.2-0.5-0.4-1c0-0.1-0.1-0.3-0.198-0.4
	c-0.102-0.2-0.102-0.3-0.2-0.5c0-0.1-0.102-0.2-0.102-0.3c-0.1-0.3-0.198-0.6-0.398-0.9c-0.102-0.3-0.3-0.6-0.4-0.9
	c-0.1-0.1-0.1-0.3-0.2-0.5c-0.1-0.3-0.3-0.7-0.398-1c-0.102-0.3-0.2-0.6-0.4-0.9c-2.5-6.4-5.5-15.7-3.3-18.1
	c0.1-0.1,0.2-0.2,0.3-0.2c0.102-0.1,0.2-0.1,0.4-0.2s0.5-0.1,0.8-0.1c3.8,0,17.4,1.5,20.4,6.8c-0.2-0.7-5.2-19.6,1.5-21.1
	c0,0,6,6,9.8,11.3c0,0,4.5-9.8,15.1-12.8c0,0,5.2,9.7,0.8,13.5c0.2-0.2,0.802-0.6,1.602-1.1c0.2-0.1,0.3-0.2,0.5-0.3
	s0.3-0.2,0.5-0.3c0.2-0.1,0.398-0.2,0.6-0.4l0,0c2.9-1.7,7.3-3.7,12.102-3.5c0.698,0,1.3,0.1,2,0.2c0.3,0.1,0.6,0.1,0.898,0.2
	c0,0,0.8,12.8-3,15.8c0,0,0.3,0,0.9,0c0.5,0,1.1,0.1,1.898,0.1c0.2,0,0.302,0,0.5,0c0.302,0,0.7,0.1,1,0.1c0.2,0,0.302,0,0.5,0.1
	c5.5,0.6,13.9,1.9,14.802,4.8c0,0.1,0.1,0.2,0.1,0.3c0,0.2,0,0.3,0,0.5c0,0-5.3,12.1-8.3,12.1c0,0,12.1,5.3,11.3,9.8c0,0,0,0,0,0.1
	s-0.1,0.3-0.2,0.6c-0.1,0.3-0.2,0.6-0.398,1c-0.102,0.1-0.102,0.3-0.2,0.4c-0.102,0.3-0.2,0.6-0.4,0.8l0,0
	c-0.1,0.3-0.2,0.5-0.398,0.8c-0.4,0.8-0.9,1.7-1.302,2.6c-0.198,0.3-0.398,0.6-0.6,1c-0.2,0.3-0.4,0.6-0.6,0.9
	c-0.302,0.4-0.602,0.8-1,1.2c-0.2,0.2-0.4,0.4-0.602,0.5c-0.1,0.1-0.2,0.1-0.2,0.2c-0.1,0.1-0.1,0.1-0.198,0.1
	c-0.4,0.3-0.802,0.4-1.302,0.5h-0.1c0,0,0,0-0.1,0c-0.102,0-0.2,0-0.302,0c-0.1,0-0.198,0-0.3-0.1c-0.2,0-0.3-0.1-0.5-0.2
	c-0.1-0.1-0.2-0.1-0.398-0.2c-0.4-0.5-0.7-0.8-0.802-0.9c0.302,0.4,0.5,0.7,0.802,0.9c0.198,0.2,0.3,0.3,0.5,0.5
	c0.1,0.2,0.3,0.3,0.5,0.5c0.198,0.2,0.3,0.3,0.5,0.5c0.1,0.2,0.3,0.3,0.398,0.5c0.102,0.2,0.3,0.3,0.4,0.5
	c1.898,2.2,4.3,5.1,5.5,7.6c0.1,0.2,0.2,0.4,0.3,0.5c0.1,0.2,0.2,0.4,0.3,0.6c0.102,0.2,0.2,0.5,0.2,0.7c0.4,1.4,0.1,2.5-1.1,3
	c0,0,0,0-0.102,0c0,0-0.1,0-0.2,0c-0.1,0-0.198,0-0.3,0c-0.1,0-0.1,0-0.2,0c-0.1,0-0.1,0-0.198,0c-1.602,0.1-5,0.2-8.802-0.9l0,0
	c0,0,9.102,20.4,5.302,21.9c0,0,0,0-0.102-0.1c-0.1-0.1-0.398-0.2-0.8-0.4c-0.2-0.1-0.3-0.2-0.5-0.3c-0.2-0.1-0.3-0.2-0.5-0.3
	s-0.3-0.2-0.5-0.3c-2.6-1.5-6.7-3.9-8.8-5.4c-0.2-0.1-0.3-0.2-0.4-0.4c-0.1-0.1-0.1-0.1-0.2-0.2c-0.1-0.1-0.198-0.1-0.198-0.2
	c-2.102-2.1-2.302-2.3-2.302-2.3c0.2,0.8,6.7,23.4,2.302,23.4c0,0-2-1-4.5-2.3c-0.302-0.2-0.602-0.3-0.9-0.5
	c-0.2-0.1-0.3-0.2-0.5-0.3s-0.3-0.2-0.5-0.3c-2.8-1.6-5.8-3.4-7-4.5c-0.1,0-0.1-0.1-0.1-0.1c-0.102-0.1-0.102-0.2-0.2-0.2
	c-1.2-1.9-1.5-2.2-1.5-2.3l0,0c-0.102-0.2-0.102-0.2-0.102-0.2s0.7,4.5,0.602,9.8c-0.2,5.4-1.3,11.7-5.102,14.4
	c-0.3,0.2-0.698,0.4-1,0.6c-6.398,2.9-7-12.2-4.8-15.8c1.7-2.6,2.102-3.4,2.3-3.6c-0.1,0.1-0.3,0.4-0.6,0.7c0.2-0.3,0.3-0.5,0.4-0.6
	c-1.302,1.4-12.5,14.1-18,17.1c-0.2,0.1-0.4,0.2-0.5,0.3c-0.102,0-0.2,0.1-0.302,0.1c-1.198,0.4-1.898,0.2-2-1.1
	c0,0-1.6-10.5,0.7-15.8c-0.6,0.2-15.8,5.9-13.6,0c0,0-0.8-12.7,3.3-14.9h0.1l0,0c0.102,0,0.2-0.1,0.302-0.1
	c-1.2,0.4-26.302,8.1-20.4-1.5c0,0,4.1-10.4,8.6-13c0.102-0.1,0.2-0.1,0.302-0.2c0.5-0.2,1-0.3,1.5-0.3c0,0-0.102,0-0.302-0.1
	c0.2,0,0.302,0,0.5,0c0,0-19.698-4.5-19.698-12.8c0,0,1.198-2.3,3.3-4.6c0.1-0.2,0.3-0.3,0.398-0.4c2.7-2.8,6.802-5,11.302-1.9
	c-0.2-0.2-0.5-0.5-1.102-0.9c-0.2-0.2-0.398-0.4-0.7-0.6l-0.1-0.1c-0.4-0.4-0.8-0.7-1.2-1.2c-0.2-0.1-0.3-0.3-0.398-0.4l0,0
	c-0.102-0.1-0.302-0.3-0.4-0.5c-0.3-0.3-0.5-0.6-0.8-0.9c-0.2-0.2-0.4-0.5-0.7-0.7c-1.3-1.5-2.6-3.3-3.5-5.2c-0.1-0.3-0.3-0.6-0.4-1
	c-0.1-0.2-0.198-0.4-0.198-0.6c-0.102-0.2-0.2-0.5-0.2-0.7c-0.2-0.5-0.3-1-0.4-1.5c0-0.2-0.1-0.3-0.1-0.5
	c-0.2-1.6-0.102-3.2,0.6-4.8C446.4,112.5,446.8,111.5,447.1,110.8z"/>
<path fill="#FFFFFF" stroke="#000000" d="M480.6,235c5.4,4.3,9.5,7.6,13.5,11.1c6.802,5.8,13.5,12,13.802,14.2l-0.9,61.3
	c0,0,0,0-0.1-0.1l0.8-61c0-0.1,0-0.1,0-0.2c0-0.1,0-0.1-0.102-0.2c0-0.1-0.1-0.2-0.1-0.2c-0.7-1.4-2.7-3.6-5.4-6.2
	c-0.3-0.3-0.6-0.5-0.8-0.8c-0.7-0.7-1.5-1.4-2.398-2.2c-0.102-0.1-0.302-0.2-0.4-0.4c-0.2-0.2-0.4-0.4-0.6-0.5
	c-0.2-0.2-0.302-0.3-0.5-0.5c-3.7-3.3-7.802-6.7-11.102-9.4c-0.3-0.2-0.6-0.5-0.898-0.7c-0.2-0.2-0.4-0.3-0.602-0.5
	c-0.3-0.3-0.6-0.5-0.898-0.7c-0.602-0.5-1.102-0.9-1.602-1.2c-0.1-0.1-0.2-0.2-0.398-0.3c-0.5-0.4-1-0.8-1.4-1.1
	c-0.1-0.2-0.2-0.4-0.4-0.5C480.4,235,480.5,235,480.6,235z"/>
<path fill="#FFFFFF" stroke="#000000" d="M480.4,235c0.1,0.2,0.3,0.4,0.398,0.5c-0.3-0.3-0.6-0.5-0.7-0.6c0,0,0,0,0-0.1
	C480.1,234.9,480.2,234.9,480.4,235z"/>
<path fill="#FFFFFF" stroke="#000000" d="M480.1,234.6l0.5,0.4c-0.1,0-0.198,0-0.3-0.1C480.3,234.9,480.2,234.7,480.1,234.6z"/>
<path fill="#FFFFFF" stroke="#000000" d="M480,234.8C480,234.9,480,234.9,480,234.8C480,234.9,479.9,234.8,480,234.8
	C479.9,234.8,479.9,234.8,480,234.8L480,234.8z"/>
<path fill="#FFFFFF" stroke="#000000" d="M479.8,234.6l0.2,0.2c0,0,0,0-0.1,0c0,0,0.1,0,0.1,0.1c2.1,3.1,2.6,4.7,2.6,6
	c0,3.9-5.1,4.3-5.1,4.3c-1.1,0.4-2.4,0.7-3.8,0.9H473.6c-16.6,1.6-52.5-12.2-52.5-12.2c5.7-4.6,11-8.3,16-11.2
	c0.302-0.2,0.7-0.4,1-0.6c0.4-0.2,0.7-0.4,1.102-0.6c2-1.1,3.898-2,5.7-2.9c0.5-0.2,1-0.5,1.5-0.7c0.5-0.2,0.898-0.4,1.398-0.6
	c0.4-0.2,0.9-0.3,1.3-0.5c0.4-0.1,0.802-0.3,1.2-0.4c31.9-11.1,45.4,13.2,42.4,16.7c-0.8,1-1.9,1.6-3.102,2c-0.1,0-0.198,0-0.3,0.1
	c-0.1,0-0.2,0.1-0.3,0.1c-1.6,0.4-3.4,0.3-4.9,0.2c0.102,0,0.2,0.1,0.302,0.1c-0.2,0-0.302,0-0.5,0
	C481.4,234.2,479.8,233.8,479.8,234.6z"/>
<path fill="#FFFFFF" stroke="#000000" d="M466.3,620.6c0,0,16.102,4.4,35.5,9.302c-1.7,0.3-6,1.1-12.3,2
	c-6.3,0.898-14.7,1.898-24.5,2.698L466.3,620.6z"/>
<path fill="#FFFFFF" stroke="#000000" d="M467.2,611.4L467,613l-0.8,7.6l-1.4,13.9l-15.2,0.9l-0.5-15.602l-0.3-9.1l0.2-1.601
	C455.2,610,461.3,610.8,467.2,611.4z"/>
<path fill="#FFFFFF" stroke="#000000" d="M467,586.4V598.3c-5.7-0.6-11.3-1.398-16.8-2.3l-1.3-14.8c6.1,0,12.1-0.2,18.1-0.4v1.102
	V586.4L467,586.4z"/>
<path fill="#FFFFFF" stroke="#000000" d="M479.8,183.4c-0.6,0.2-15.8,5.9-13.6,0c0,0-0.8-13.1,3.5-15c-4,2.3-3.3,14.9-3.3,14.9
	c-2.2,5.9,13,0.2,13.6,0c-2.3,5.3-0.7,15.8-0.7,15.8c0.102,1.2,0.9,1.5,2,1.1c-1.3,0.5-2.1,0.3-2.2-1
	C479.1,199.3,477.6,188.7,479.8,183.4z"/>
<path fill="#FFFFFF" stroke="#000000" d="M464,539.1l1.4,18.9c-5.602,0.2-11.2,0.3-16.602,0.3l-0.8-19.8l-0.6-15.8
	c5-0.4,10.1-0.9,15.198-1.4L464,539.1z"/>
<path fill="#FFFFFF" stroke="#000000" d="M530.1,433.1c-29.198-0.6-64.5,0.9-64.5,0.9H465.4c0.1-5.5-1-12.2-1.302-13.5
	c14.302-0.7,40.2-2.5,67.102-5.8c7,1.2,21.8,4.1,30.2,4.1c2.398,0,4.198-0.2,5.3-0.8v19c-1.3-0.8-3.602-1.4-6.7-1.9
	C552.9,434,542,433.4,530.1,433.1z"/>
<path fill="#FFFFFF" stroke="#000000" d="M449.6,635.4l15.2-0.9C460.1,634.9,455,635.2,449.6,635.4z"/>
<path fill="#FFFFFF" stroke="#000000" d="M464,539.1c0,0,41.5,4.7,71.9,5.9c-21.4,8.5-46.5,12-70.5,13L464,539.1z"/>
<path fill="#FFFFFF" stroke="#000000" d="M445.2,419.9c4.8,0.8,7.5,1.3,7.5,1.3s4.2-0.102,11.398-0.5c0.2,1.3,1.4,8,1.302,13.5
	c-0.102,4.1-1,7.6-3.602,7.6c-2.7,0-6.3,0.5-9.398,0.9c-2.4,0.2-4.802,0.3-7.2,0.5v-7.3v-15.5V419.9L445.2,419.9z"/>
<path fill="#FFFFFF" stroke="#000000" d="M463.3,500.1c-5.8,0.4-11.6,0.602-17.398,0.7v-27V463v-0.7c5.6-0.2,11.198-0.398,16.6-0.5
	l0.3,13.4l0.5,23.6L463.3,500.1L463.3,500.1z"/>
<path fill="#FFFFFF" stroke="#000000" d="M530.1,433.1c-9,4.102-41.198,7.2-77.698,9.5c3.198-0.5,6.698-0.898,9.398-0.898
	c2.602,0,3.5-3.5,3.602-7.602h0.198C465.5,434.1,500.9,432.6,530.1,433.1z"/>
<path fill="#FFFFFF" stroke="#000000" d="M454.9,402.1c0,0-3.802-0.699-10.5-1.699l1.398-27.2c0,0,15.102-12.2,21.102-1.5l-1.5,30
	C458.9,401.9,454.9,402.1,454.9,402.1z"/>
<path fill="#FFFFFF" stroke="#000000" d="M460.6,115.8c-0.1-0.1-0.1-0.3-0.198-0.4C460.4,115.6,460.5,115.7,460.6,115.8z"/>
<path fill="#FFFFFF" stroke="#000000" d="M458.4,110.5c-2.5-6.4-5.602-15.8-3.302-18.1C452.9,94.7,455.9,104.1,458.4,110.5z"/>
<path fill="#FFFFFF" stroke="#000000" d="M448.1,619.8h1l0.5,15.602c-26.1,1-58.698-0.302-89.8-8.7v-1.5
	C406.8,624.1,442.9,622.5,448.1,619.8z"/>
<path fill="#FFFFFF" stroke="#000000" d="M449.7,166.7c-5.9,9.6,19.2,1.9,20.398,1.5c-0.1,0-0.198,0.1-0.3,0.1l0,0
	c-2.1,0.7-26,7.8-20.3-1.5c0,0,4.2-10.7,8.8-13.1C453.8,156.3,449.7,166.7,449.7,166.7z"/>
<path fill="#FFFFFF" stroke="#000000" d="M410.8,484.9c1.2-0.302-9.8,9.6-8.7,9.3c1.4-0.4,7.7-4.2,9.102-4.602
	c1.8-0.5,10.898-7.8,12.7-8.3c7.5-2.2,14.8-4.7,22.1-7.398v27c-49.9,1.398-97.4-3.102-107.5-4.2
	C362.7,494.6,387.2,490.9,410.8,484.9z"/>
<path fill="#FFFFFF" stroke="#000000" d="M440.6,140.3c0,8.3,19.7,12.8,19.7,12.8c-0.2,0-0.3,0-0.5,0
	c-2.398-0.6-19.398-5-19.398-12.8c0.1,0,1.398-2.4,3.5-4.7C441.8,137.9,440.6,140.3,440.6,140.3z"/>
<path fill="#FFFFFF" stroke="#000000" d="M422.7,331.8c2.7,0.5,5.3,1.1,8,1.6C428.1,332.8,425.4,332.3,422.7,331.8z"/>
<path fill="#FFFFFF" stroke="#000000" d="M420.9,233.9c5.8-4.7,11.1-8.4,16.198-11.3c-5,2.9-10.3,6.6-16,11.2
	c0,0,35.802,13.8,52.5,12.2C457.3,247.9,421.4,234.1,420.9,233.9z"/>
<path fill="#FFFFFF" stroke="#000000" d="M285.8,380.1c30.602,1.7,75.2,7.6,110.9,12.8c2,0.3-4.9-12.4-2.9-12.1
	c1.102,0.2,17.4,5.3,13.602,7.6c-1.102,0.7,1,6.3,2.198,6.5c14.5,2.2,26.802,4.2,34.9,5.5c6.6,1.1,10.5,1.699,10.5,1.699
	s3.9-0.1,10.6-0.5c8.7-0.5,22.102-1.3,37.602-2.8c3.898-0.399,8-0.8,12.2-1.2c0.3,0,0.6-0.1,0.898-0.1c14.3-1.5,29.7-3.5,44.4-6.1
	h0.8v19h-0.8c-9.602,1.699-19.602,3.1-29.4,4.3c-27,3.3-52.898,5-67.1,5.8c-7.102,0.4-11.4,0.5-11.4,0.5s-2.7-0.5-7.5-1.3
	c-7.2-1.2-19.1-3.102-33.7-5.4c-26.3-4-61.1-9-91.898-12.3c-0.7-0.1-1.5-0.2-2.2-0.2c-1-0.1-8.7,10.9-9.7,10.8
	c-1.3-0.1-15.898,5.302-8.3-1.5c0.899-0.899,8.8-10.199,7.5-10.3c-7.8-0.7-15.101-1.3-21.899-1.7l0,0L285.7,380h0.1V380.1
	L285.8,380.1z"/>
<path fill="#FFFFFF" stroke="#000000" d="M371.7,530.4c5,0,9.1,1.398,9.1,3c0,1.698-4.1,3-9.1,3s-9.102-1.4-9.102-3
	C362.6,531.7,366.7,530.4,371.7,530.4z"/>
<path fill="#FFFFFF" stroke="#000000" d="M371.7,536.5c5,0,9.1-1.4,9.1-3c0-1.7-4.1-3-9.1-3s-9.102,1.4-9.102,3
	S366.7,536.5,371.7,536.5z M107,514v-0.3c12.6,1.398,26.1,2.7,40.4,3.5l0,0c9.8,2.1,35.8,7.5,68.9,11.7
	c3.1,0.398-4.4-6.602-1.7-6.602c0.1,0,0.1,0,0.2,0c2.8,0.3,16.8,8.3,19.6,8.602c10.4,1.1,21.3,2,32.5,2.698
	c6,0.4,12,0.602,18.1,0.802c35.4,1,71.9-1.2,102.4-10.102c18.6,0.4,38.898,0,60-1.7L448,538.4c-25,5.398-49.3,9.198-72.6,11.8
	c-11.2,1.2-22.2,2.2-32.9,2.898c-1.6,0.102-3.1,3.302-4.6,3.4s-6.102,4.5-7.5,4.6c-1.802,0.102-0.5-7.198-2.2-7.198
	c-15.4,0.698-30.3,0.898-44.5,0.8c-5.6-0.102-11.2-0.2-16.6-0.4c-35.4-1.3-66.2-4.898-91.2-9c-38.9-6.398-63.6-14-69.1-15.8L107,514
	z"/>
<path fill="#FFFFFF" stroke="#000000" d="M106.2,571.6c26.1,0.4,58.7,0.102,99.2-1.398c11.1,2.3,35.1,6.6,60.7,8.1
	c6,0.4,12.1,0.601,18.2,0.5c16.2-0.1,32-1.7,44.5-6.2l0.102-0.699c20.5,2.899,46.198,6,73.198,7.699v0.602
	c-1.1,0.398-2.1,0.699-3.198,1.1c-12.4,4.2-25.4,7.601-38.602,10.2c-24.6,4.899-50.2,7.3-75.2,8.1C279,599.9,273,600,267,600
	c-16.6,0-32.9-0.6-48.2-1.7c-24.8-1.7-47.4-4.5-65.7-7.2c-26.4-4-43.9-7.898-46.6-8.5L106.2,571.6z"/>
<path fill="#FFFFFF" stroke="#000000" d="M337.8,319c6,0.6,12.102,1.4,18.3,2.1C350,320.3,343.9,319.6,337.8,319z"/>
<path fill="#FFFFFF" stroke="#000000" d="M445.1,443.1l-125.3,4.7V446.9c39.102-1.2,81.5-4.4,125.3-11V443.1L445.1,443.1z"/>
<path fill="#FFFFFF" stroke="#000000" d="M319.9,317.2c5.898,0.5,11.898,1.1,18,1.8C331.8,318.3,325.8,317.7,319.9,317.2z"/>
<path fill="#FFFFFF" stroke="#000000" d="M293.6,429.1c6.5,0,11.7,2.7,11.7,6.102c0,3.398-5.2,6.1-11.7,6.1s-11.7-2.7-11.7-6.1
	C281.9,431.8,287.1,429.1,293.6,429.1z"/>
<path fill="#FFFFFF" stroke="#000000" d="M159.3,465.2c10.2,2.6,50.4,12.1,105.3,14.1c5.9,0.2,12,0.3,18.2,0.4
	c5.2,0,10.4,0,15.8-0.2c1.5,0-3-7.3-1.5-7.3c1.801-0.102,3-0.9,8.301,6.1c0.899,1.2,4.501,0.8,6.001,0.8c0.8,0,3-0.198,3.8-0.198
	c30.8-1.7,64.1-6.4,98.1-15.602c10.8-0.3,21.7-0.6,32.4-0.898v0.698V474c-7.2,2.7-14.602,5.2-22.102,7.4
	c-1.8,0.5-10.898,7.8-12.698,8.3c-1.4,0.398-7.7,4.2-9.102,4.6c-1.2,0.3,9.8-9.6,8.7-9.3c-23.6,6-48,9.7-72.4,11.8
	c-18.8,1.602-37.398,2.102-55.6,2c-5.3,0-10.6-0.1-15.9-0.3c-17.1-0.5-33.5-1.6-48.9-3.1c-35.1-3.302-65-8.4-84.7-12.302
	c-1.4-0.3-10,6.9-11.3,6.602c-1-0.2-5.3,0.8-5.3,0.8c-1.3-0.3,7.1-9.3,6-9.5c-8.1-1.7-13.2-3-14.6-3.3l0.3-15.4
	C125,463.3,142.3,464.3,159.3,465.2z"/>
<path fill="#FFFFFF" stroke="#000000" d="M285.1,399.2c6.7,0.399,14.102,1,21.9,1.7c1.2,0.1-6.6,9.5-7.5,10.3
	c-7.5,6.898,7.1,1.398,8.3,1.5c1,0.1,8.7-10.9,9.7-10.8c0.7,0.1,1.5,0.199,2.2,0.199c30.8,3.301,65.6,8.301,91.898,12.301
	c-36.3,4.8-82.698,6.398-127.198,6.5L285.1,399.2L285.1,399.2z"/>
<path fill="#FFFFFF" stroke="#000000" d="M283.8,514l1.3,20.4c-6.1-0.2-12.1-0.5-18.1-0.802V514v-15.7c5.2,0.2,10.5,0.3,15.9,0.3
	v0.102L283.8,514z"/>
<path fill="#FFFFFF" stroke="#000000" d="M285.1,600v9.5c-6.3,0-12.3-0.1-18.1-0.2V600l0,0c6,0,12-0.1,18.1-0.3V600z"/>
<path fill="#FFFFFF" stroke="#000000" d="M285.1,609.5c11.102,0.1,22.802,0,34.7-0.2c3-0.1-2.3-6.1,0.7-6.2
	c3.5-0.1,15.3,5.802,18.9,5.7c24.3-0.8,49.198-2.3,72.5-5l0.1-0.8c12.3,2.3,24.8,4.3,37.1,6.1L448.9,610.7l0.3,9.1h-1
	c-5.3,2.601-41.4,4.3-88.3,5.3c-23.302,0.5-49.302,0.9-75.5,1.102c-5.3,0-10.602,0.1-15.9,0.1c-37.5,0.3-74.4,0.4-103.7,0.4
	c-31.3,0-53.9-0.102-58.9-0.102l-0.3-9.898v-0.4c33.8-1.3,69.1-4,92.8-9.7l0.1,0.2c0,0,28.6,1.8,68.7,2.4
	C272.8,609.4,278.9,609.5,285.1,609.5z"/>
<path fill="#FFFFFF" stroke="#000000" d="M284.4,447.4v0.398l-0.8,18.2l-0.6,13.6c-6.2,0-12.3-0.1-18.2-0.398l-0.3-13.2l-0.4-17.5
	v-1.3C270.6,447.3,277.4,447.4,284.4,447.4z"/>
<path fill="#FFFFFF" stroke="#000000" d="M284.4,628.2l0.8,8.398c-0.8,4.602,8.3,3.802-4.5,6.102c-12.8,2.3-11.3-2.3-11.3-2.3
	l-0.8-12.2v-1.8c5.3,0,10.6-0.102,15.9-0.102L284.4,628.2z"/>
<path fill="#FFFFFF" stroke="#000000" d="M298.7,479.5c-5.4,0.1-10.601,0.2-15.8,0.2l0.6-13.602h0.8c0,0,62.7-1.1,129.102-2.8
	c-34,9.2-67.302,13.9-98.102,15.602c-0.8,0-3,0.198-3.8,0.198c-1.5,0.102-5.1,0.4-6-0.8c-5.3-7-6.5-6.2-8.3-6.1
	C295.7,472.2,300.2,479.4,298.7,479.5z"/>
<path fill="#FFFFFF" stroke="#000000" d="M283.9,564.5l0.4,14.4c-6.1,0-12.2-0.2-18.2-0.5l0.1-1.102l0.3-9.898l0.4-12.9
	c5.4,0.2,11,0.3,16.6,0.4L283.9,564.5z"/>
<path fill="#FFFFFF" stroke="#000000" d="M264.7,376.2c0,0,15.1-21.7,21.1-1.5l-0.2,5.4l-0.6,19.1l-0.7,21.8c-6.9,0-13.6,0-20.4-0.1
	l0.4-22.2l0.3-19L264.7,376.2z"/>
<path fill="#FFFFFF" stroke="#000000" d="M267,498.4V514.1c-18,2.102-35.6,3.302-52.5,3.9c-23.8,0.9-46.3,0.4-67.1-0.8l0,0
	c-14.3-0.8-27.9-2.102-40.4-3.5c-5.8-0.7-11.3-1.4-16.7-2.102c-7.5-1.1-14.5-2.198-21.1-3.3c-12.6-2.2-23.5-4.398-32.5-6.5
	c-4.4-1-1.5-3.898-2.2-5.7c3.4,0.5,6.8,1.102,9.8,1.9l18.1-9.1c8.3,1.6,17.4,3.198,27.2,4.6c5.9,0.9,11.9,1.7,18.1,2.4
	c36.6,4.3,78.2,5.898,110.2,0.698l0.1-1.198C233.5,496.7,249.9,497.9,267,498.4z"/>
<path fill="#FFFFFF" stroke="#000000" d="M281.9,435.2c0,3.398,5.2,6.1,11.7,6.1s11.7-2.7,11.7-6.1c0-3.4-5.2-6.102-11.7-6.102
	S281.9,431.8,281.9,435.2z M109.8,434c1.1-6.9,0.2-15.9,0.2-15.9V417.2c7-0.4,14.6-0.8,22.6-1.5l0.1,0.8c0,0,42.3,2.7,97.4,3.9
	c1.8,0,13.3-10.801,15.1-10.7c2.2,0.1,0,6.8,2.3,6.898c1.5,0-2.3,4.2-0.8,4.2c5.7,0.102,11.5,0.2,17.4,0.2l0.8,0.3l19.6-0.1V421
	c44.5-0.1,90.9-1.7,127.2-6.5c14.5,2.2,26.5,4.2,33.7,5.4l-0.102,0.5v15.5c-43.898,6.6-86.3,9.898-125.3,11
	c-12.2,0.398-24,0.5-35.5,0.5c-6.9,0-13.7-0.102-20.4-0.2c-10.2-0.2-20.1-0.5-29.5-0.9c-75.2-3.1-124.5-12.3-124.5-12.3H109.8z"/>
<path fill="#FFFFFF" stroke="#000000" d="M175.8,545.4c25,4.1,55.9,7.698,91.2,9l-0.4,12.898c-22.1,1.2-42.5,2.2-61.1,2.9
	c-40.6,1.5-73.2,1.8-99.2,1.399c-6.1-0.101-11.9-0.199-17.4-0.399c-2.7-0.101-5.2-0.2-7.7-0.3l0,0c-49-1.9-67.4-6.4-71.9-7.801
	l-0.4-25c3.4-1.301,7.6-2.5,12.2-3.5c18.1,8.601,43.6,12.399,68.6,13.801c5.6,0.3,11.2,0.5,16.6,0.6c37.2,0.7,69.4-3.1,69.4-3.1
	L175.8,545.4z M60,566.2c3.8,0,6.8-1.9,6.8-4.2s-3-4.2-6.8-4.2s-6.8,1.9-6.8,4.2S56.2,566.2,60,566.2z"/>
<path fill="#FFFFFF" stroke="#000000" d="M153.1,591c18.3,2.7,40.8,5.5,65.7,7.2l-0.1,1c-4.9,2.898-11.9,5.3-20.4,7.398
	c-23.7,5.7-59,8.5-92.8,9.7c-6.1,0.2-12.2,0.4-18.1,0.5c-3.8,0.102-7.6,0.2-11.3,0.2c-33.5,0.5-60.9-0.1-66.8-0.3L8.9,606l-0.1-1.4
	c8.4-0.698,22.3-3.198,36-6.1l0.3,1.4c0,0,20.5,0.3,43.8-0.301c6-0.199,12.1-0.399,18.1-0.699c21.8-1.102,41.9-3.2,46-7.4L153.1,591
	z"/>
<path fill="#FFFFFF" stroke="#000000" d="M132.6,415.7c31.5-2.5,71.1-7.4,120.8-15.9c2.8-0.5,6.5-0.899,10.9-1.1l-0.4,22.2
	c-5.9,0-11.7-0.102-17.4-0.2c-1.5,0,2.3-4.2,0.8-4.2c-2.3,0,0-6.8-2.3-6.9c-1.8,0-13.4,10.801-15.1,10.7
	c-55-1.2-97.4-3.898-97.4-3.898L132.6,415.7z"/>
<path fill="#FFFFFF" stroke="#000000" d="M90.4,417.8c6-0.1,12.6-0.3,19.6-0.6v0.898c0,0,0.8,9-0.2,15.9l0,0c-0.4,2.5-1,4.7-2,6.1
	c-3.8,5.302-17.4,0-17.4,0V434V417.8z"/>
<path fill="#FFFFFF" stroke="#000000" d="M108.5,462.2l-0.3,15.398l-0.4,18.302c-6.2-0.7-12.3-1.5-18.1-2.4l1-20.6l0.5-11.802
	C96.8,461.4,102.6,461.8,108.5,462.2z"/>
<path fill="#FFFFFF" stroke="#000000" d="M90.4,440.1c0,0,13.6,5.302,17.4,0c0,0,74,12.102,126.8,6.2c9.5,0.4,19.3,0.7,29.5,0.9v1.3
	l0.4,17.5h-0.4c-22.3,2.3-62.6,1.3-104.6-0.8c-17-0.9-34.4-1.9-50.9-3c-5.9-0.4-11.7-0.8-17.4-1.2c-41.5-3-74.6-5.9-79.4-6.3
	c-0.1,0-0.1,0-0.2,0l-0.4-2.3V441C11.1,440.9,65.5,442.4,90.4,440.1z"/>
<path fill="#FFFFFF" stroke="#000000" d="M106.5,582.6l0.5,16.5c-6,0.302-12.1,0.5-18.1,0.7v-11.2V571.2
	c5.5,0.2,11.2,0.3,17.4,0.398L106.5,582.6z"/>
<path fill="#FFFFFF" stroke="#000000" d="M106.5,582.6c2.6,0.602,20.1,4.5,46.6,8.5L153,591.7c-4.2,4.2-24.3,6.398-46,7.398
	L106.5,582.6z"/>
<path fill="#FFFFFF" stroke="#000000" d="M91.1,372.4c0,0,15.1-12.2,21.1-1.5l-1.5,29.5l-3.8,0.199c-6.1,0.301-11.8,0.4-17.3,0.5
	L91.1,372.4z"/>
<path fill="#FFFFFF" stroke="#000000" d="M86.6,632c1.9,1.8,5.9-3.1,9.1-2.3c1.6,0.398-4.9,8.2-3,8.398c4,0.5,8.6,0.5,13.6,0.102
	c23.6-1.602,54.9-10.4,58.5-11.5c29.3,0,66.3-0.102,103.7-0.4v1.8l0.8,12.2c0,0-11.4,0.7-29.4,1.7c-2.6,0.2,5.1,5.8,2.2,5.9
	c-3.1,0.198-16.9-5.102-20.3-4.9c-72.1,4.1-201.6,11-210.9,9l-1.3-5.6v-0.7C31.5,643.9,86,638.7,86.6,632z"/>
<path fill="#FFFFFF" stroke="#000000" d="M93.1,0.5c4.9,5.1,8,16.8,8.1,17.3h-0.1c0,0-3.1-12.2-8.1-17.3H93.1z"/>
<path fill="#FFFFFF" stroke="#000000" d="M90,527l0.3-15.4c5.3,0.7,10.9,1.5,16.7,2.102v0.3l-0.3,15.6l-0.4,19.4
	c-5.4-0.1-11-0.3-16.6-0.6L90,527z"/>
<path fill="#FFFFFF" stroke="#000000" d="M11.1,436.4c-10.5,0.698,0-1.5-10.6,0.698v-19.8c0,0,3.2,0.2,9.8,0
	c6.7-0.2,17-0.7,31.1-2.1c11.5,1.8,27.3,2.898,49,2.6V434c0,0-47.3,0-73.3,1.8c-2.1,0.102-4.1,0.4-5.9,0.5
	C11.2,436.4,11.2,436.4,11.1,436.4z"/>
<path fill="#FFFFFF" stroke="#000000" d="M90.3,511.6L90,527h-0.4c0,0-41.7,1.6-68.5,7.7c-4.6,1-8.8,2.2-12.2,3.5
	c-3.8,1.398-6.7,3-8.3,4.8v-22.8c0.9-2,3.7-3.7,7.6-5.102c18.2-6.398,61-6.398,61-6.398l0.1-0.4C75.9,509.4,82.9,510.5,90.3,511.6z"
	/>
<path fill="#FFFFFF" stroke="#000000" d="M88.9,588.6v11.2c-23.2,0.602-43.8,0.3-43.8,0.3l-0.3-1.398
	C66.9,594.1,88.9,588.6,88.9,588.6z"/>
<path fill="#FFFFFF" stroke="#000000" d="M0.5,581.8c0.8,1.3,4.2,1.7,9.1,1.5c18.9-0.7,61-10,71.5-12.398l0,0
	c2.5,0.1,5.1,0.198,7.7,0.3V588.6c0,0-22,5.5-44.1,10.102c-13.8,2.898-27.6,5.398-36,6.1c-4.8,0.4-7.8,0.2-8.2-0.899V581.8z"/>
<path fill="#FFFFFF" stroke="#000000" d="M95.6,629.7c-3.2-0.8-7.2,4.1-9.1,2.3l0.7-15.1c5.9-0.102,12-0.302,18.1-0.5v0.398l0.3,9.9
	l0.4,11.6c-5,0.3-9.6,0.3-13.6-0.1C90.8,637.9,97.3,630.1,95.6,629.7z"/>
<path fill="#FFFFFF" stroke="#000000" d="M86.9,78.7c-0.1,1-0.2,2-0.4,3C86.7,80.7,86.8,79.7,86.9,78.7z"/>
<path fill="#FFFFFF" stroke="#000000" d="M86,70l8.3,7.5c0,0,0,0,0,0.1l-8.2-7.5C86,70.1,86,70.1,86,70z"/>
<path fill="#FFFFFF" stroke="#000000" d="M85.1,176.3c-0.9,1.2-1.8,2.3-2.7,3.4C83.3,178.6,84.2,177.5,85.1,176.3z"/>
<path fill="#FFFFFF" stroke="#000000" d="M72.4,113.8c-1.2-0.4-2.1-0.7-2.8-0.9c0.9-1,4.9-5.8,8.8-12.2c0.3-0.4,0.5-0.9,0.8-1.3
	c0.3-0.6,0.7-1.1,1-1.7c0,0,0,0,0-0.1s0.1-0.2,0.1-0.3c0.1-0.3,0.3-0.6,0.5-0.8c0.2-0.4,0.5-0.8,0.7-1.3c0.2-0.4,0.4-0.9,0.6-1.3
	c0.2-0.3,0.3-0.6,0.5-0.9c0.2-0.4,0.4-0.8,0.6-1.2c0.4-1,0.9-2,1.3-3.1c0.2-0.5,0.4-1,0.6-1.5c0.2-0.7,0.4-1.4,0.6-2
	c0.2-0.7,0.4-1.4,0.5-2c0.1-0.5,0.2-0.9,0.3-1.4v-0.1c0.2-1,0.4-2,0.4-3c0.1-1.3,0.1-2.6,0-3.8c-0.1-1.6-0.4-3.2-0.9-4.7l8.2,7.5
	l0,0C93.6,79.6,81.9,116.7,72.4,113.8z"/>
<path fill="#FFFFFF" stroke="#000000" d="M70.2,246.7c4.4-0.3,12-6.1,24.8-25.6c0,0,53.7-6.8,47.6-52.9c0,0,31.8-24.1,18.9-61.9
	c0,0,6-49.1-24.9-59.7c0,0,9.8-30.1-17.4-31.2c27.4,1,17.5,31.2,17.5,31.2c31,10.6,24.9,59.7,24.9,59.7
	c12.9,37.8-18.9,61.9-18.9,61.9c6,46.1-47.6,52.9-47.6,52.9C82.2,240.8,74.6,246.4,70.2,246.7z"/>
<path fill="#FFFFFF" stroke="#000000" d="M78.4,100.8c-3.9,6.4-7.9,11.1-8.8,12.2h-0.1C70.3,112.1,74.3,107.3,78.4,100.8z"/>
<path fill="#FFFFFF" stroke="#000000" d="M62.4,488.9L44.3,498c0,0-0.7-14.8,18.8-15.2C69,486.2,59.1,488.2,62.4,488.9z"/>
<path fill="#FFFFFF" stroke="#000000" d="M74.9,187.9c-9.2,9.3-18.6,15.7-27,20.2C56.3,203.6,65.7,197.1,74.9,187.9z"/>
<path fill="#FFFFFF" stroke="#000000" d="M60,557.8c3.8,0,6.8,1.9,6.8,4.2s-3,4.2-6.8,4.2s-6.8-1.9-6.8-4.2S56.2,557.8,60,557.8z"/>
<path fill="#FFFFFF" stroke="#000000" d="M64,239.3c-5.4,5.5-11,8.1-16.4,8.9C53,247.4,58.6,244.8,64,239.3
	C64,239.2,64,239.3,64,239.3z"/>
<path fill="#FFFFFF" stroke="#000000" d="M79.1,161.6c-1.2,1.7-19.2,28-28.6,30.9c0,0-0.1-0.7-0.3-1.9c0.2,1.1,0.3,1.8,0.3,1.8
	c9.6-3,28.1-30.1,28.7-30.9L79.1,161.6L79.1,161.6z"/>
<path fill="#FFFFFF" stroke="#000000" d="M49.8,186.4c0,0.4,0.1,0.8,0.1,1.2C49.9,187.2,49.8,186.8,49.8,186.4z"/>
<path fill="#FFFFFF" stroke="#000000" d="M49.6,183.3c0,0.6,0.1,1.2,0.1,1.8C49.6,184.5,49.6,183.9,49.6,183.3z"/>
<path fill="#FFFFFF" stroke="#000000" d="M45.6,209.3c0.8-0.4,1.5-0.8,2.3-1.2C47.1,208.5,46.4,208.9,45.6,209.3z"/>
<path fill="#FFFFFF" stroke="#000000" d="M46,165.9l6,1.5v0.1l-6-1.5C46,165.9,46,165.9,46,165.9z"/>
<path fill="#FFFFFF" stroke="#000000" d="M45.9,169c0,0.3,0,0.5,0,0.8C45.8,169.5,45.8,169.2,45.9,169z"/>
<path fill="#FFFFFF" stroke="#000000" d="M45.3,388.4c1.1,2.8,5.9,10.7,5.3,11.1c-0.5-1.8-4.9-9.1-5.5-11.1
	C45.2,388.4,45.2,388.4,45.3,388.4z"/>
<path fill="#FFFFFF" stroke="#000000" d="M11.9,392.2c0,0,8.2,5.3,38.5,8.399c1.2,0.101-6.6-12.3-5.3-12.2l0,0c0.6,2,5,9.3,5.5,11.1
	c0.5-0.5-4.3-8.4-5.3-11.1c1.4-0.2,4.7-3.9,5.9-3.8c1.5,0.1,0.7,9,2.3,9.1c1.7,0.1,1.5,6.1,8.3,6.6c8.5,0.5,17.8,0.8,28,0.7v0.3
	l17.4-0.8l3.8-0.2c5.8-0.3,11.8-0.7,18.1-1.1c6.3-0.5,12.9-1.101,19.7-1.8c1.5-0.2-3.9-11.2-2.4-11.3c1.8-0.2,5.8,5.6,7.5,5.3
	c1.2-0.1,7.1,4.6,8.4,4.5c26.8-3.2,57.7-8.1,93.5-15.1c2.4-0.5,5.4-0.8,9-1l-0.3,19c-4.5,0.2-8.2,0.601-10.9,1.101
	c-49.7,8.5-89.3,13.399-120.8,15.899c-8.1,0.602-15.6,1.102-22.6,1.5c-7,0.3-13.5,0.5-19.6,0.602c-21.6,0.3-37.5-0.9-49-2.602
	C16.9,411.6,12,405.2,12,405.2h-1.5v-12.9h1.4V392.2z"/>
<path fill="#FFFFFF" stroke="#000000" d="M45.1,388.4c-0.1-0.3-0.1-0.4,0-0.5c0,0.1,0.1,0.3,0.2,0.5
	C45.2,388.4,45.2,388.4,45.1,388.4z"/>
<path fill="#FFFFFF" stroke="#000000" d="M44.5,183c-0.1,0.5-0.1,0.9-0.2,1.4C44.3,183.9,44.4,183.5,44.5,183z"/>
<path fill="#FFFFFF" stroke="#000000" d="M44.3,498c-3-0.8-6.3-1.4-9.8-1.9C22.1,494.3,8.8,494.2,8.8,494.2H8.4L8.7,473
	c5.8,0.5,28.9,2.7,45.4,6.7c4.6,1.1,7.4,2.1,9,3.1C43.6,483.2,44.3,498,44.3,498z"/>
<path fill="#FFFFFF" stroke="#000000" d="M25.3,52.6c0.9,2.9,2.2,6.2,4,9.8l0,0C27.5,58.9,26.2,55.6,25.3,52.6
	C25.3,52.7,25.3,52.7,25.3,52.6z"/>
<path fill="#FFFFFF" stroke="#000000" d="M25.5,31.5c-0.2,0.3-0.8,1.4-1.3,3.2c0,0.1-0.1,0.3-0.1,0.5c-0.1,0.4-0.2,0.8-0.3,1.2
	c0,0.2-0.1,0.5-0.1,0.7c-0.1,0.6-0.2,1.2-0.2,1.9c0,0.3,0,0.7-0.1,1c0,0.8,0,1.6,0,2.5c0,0.3,0,0.5,0,0.8c0,0.3,0,0.6,0.1,0.8
	c0.1,1.4,12.5-3.8,14.1-4.4c5.8-2.2,8-2.7,8.1-2.1l0,0c-0.4,2.3-20.7,14-20.4,15l0,0l0,0v0.1c0.9,2.9,2.2,6.2,4,9.7L24,64.7
	c0,0-1.7-3.9-3.3-9.1c-0.3-1-0.6-2-0.9-3.1c-0.4-1.6-0.9-3.2-1.2-4.8l0,0c-0.1-0.6-0.3-1.2-0.4-1.8c-0.1-0.3-0.1-0.6-0.2-0.9l0,0
	c-0.1-0.7-0.2-1.4-0.3-2.1l0,0c-0.1-0.7-0.2-1.4-0.2-2.1c0-0.4-0.1-0.7-0.1-1c0-0.9,0-1.8,0-2.7c0.1-2.8,0.8-5.2,2.1-6.9L25.5,31.5z
	"/>
<path fill="#FFFFFF" stroke="#000000" d="M37.6,39.9c-1.6,0.6-14,5.8-14.1,4.4c0-0.3,0-0.6-0.1-0.8c0,0.2,0,0.5,0.1,0.7
	c0.2,1.4,12.5-3.8,14.1-4.4c6-2.3,8.2-2.7,8.1-2C45.6,37.2,43.4,37.6,37.6,39.9z"/>
<path fill="#FFFFFF" stroke="#000000" d="M69.5,113c-1.7-0.6-2.3-0.7-2.4-0.7c0.2,0.1,2.3,0.8,2.3,0.8S69.4,113.1,69.5,113
	c0.7,0.2,1.7,0.5,2.9,0.9c9.8,3,21.9-36.3,21.9-36.3l0,0l0,0c0-0.1,0-0.1,0-0.1L86,70c0,0,0,0.1,0.1,0.1H86c0.5,1.5,0.9,3.1,1,4.8
	c0.1,1.3,0.1,2.5,0,3.8c-0.1,1-0.2,2-0.4,3v0.1c-0.1,0.5-0.2,0.9-0.3,1.4c-0.2,0.7-0.3,1.4-0.5,2c-0.2,0.7-0.4,1.4-0.6,2
	c-0.2,0.5-0.4,1-0.6,1.5c-0.4,1-0.8,2.1-1.3,3.1c-0.2,0.4-0.4,0.8-0.6,1.2c-0.1,0.3-0.3,0.6-0.5,0.9c-0.2,0.4-0.4,0.9-0.6,1.3
	c-0.2,0.4-0.5,0.9-0.7,1.3c-0.1,0.3-0.3,0.6-0.5,0.8c0,0.1-0.1,0.2-0.1,0.3c0,0,0,0,0,0.1c-0.3,0.6-0.6,1.1-1,1.7
	c-0.3,0.5-0.5,0.9-0.8,1.3c-4,6.5-8.1,11.3-8.9,12.2C69.5,112.9,69.5,112.9,69.5,113L69.5,113z M18.5,47.7c0.4,1.7,0.8,3.3,1.2,4.8
	c0.3,1.1,0.6,2.1,0.9,3.1c1.7,5.3,3.3,9.2,3.3,9.2l5.3-2.3v-0.1l0,0c-1.8-3.6-3.1-6.9-4-9.8l0,0c0.6-1.4,20.4-12.9,20.4-14.8l0,0
	c0.1-0.7-2.1-0.3-8.1,2c-1.6,0.6-13.9,5.8-14.1,4.4c0-0.3,0-0.5-0.1-0.7c0-0.3,0-0.6,0-0.8c0-0.9,0-1.8,0-2.5c0-0.4,0-0.7,0.1-1
	c0.1-0.7,0.1-1.3,0.2-1.9c0-0.2,0.1-0.5,0.1-0.7c0.1-0.4,0.2-0.9,0.3-1.2c0-0.2,0.1-0.3,0.1-0.5c0.6-2.2,1.3-3.2,1.3-3.2l0,0
	c0-0.1,0-0.1,0-0.1l-6-1.5c-1.4,1.7-2,4.2-2.1,7c0,0.9,0,1.8,0,2.7c0,0.3,0,0.7,0.1,1c0,0.7,0.1,1.4,0.2,2.1l0,0
	c0.1,0.7,0.2,1.4,0.3,2.1l0,0c0.1,0.3,0.1,0.6,0.2,0.9C18.3,46.4,18.4,47.1,18.5,47.7L18.5,47.7z M9.6,122.7
	c0.1,0.8,0.2,1.6,0.3,2.5c0,0.4,0.1,0.8,0.1,1.3c0.2,1.7,0.3,3.4,0.4,5.1c0,0.3,0,0.5,0,0.8c0,0.3,0,0.5,0,0.8
	c0.1,3.3,0.2,6.6,0,9.7c0,0.7-0.1,1.3-0.1,1.9c-0.1,0.8-0.1,1.6-0.2,2.4c-0.1,0.8-0.2,1.5-0.3,2.3l0,0c0,0.3-0.1,0.6-0.1,0.9l0,0
	c-1.3,7.1-4,12.8-9,14.9V0.5H93c5,5.1,8.1,17.3,8.1,17.3h0.1l0,0c3.6-0.9,6.8-1.6,9.8-2c0.4-0.1,0.8-0.1,1.2-0.2
	c0.5-0.1,0.9-0.1,1.4-0.1s1-0.1,1.5-0.1c1.4-0.1,2.8-0.1,4.1,0c27.3,1.1,17.4,31.2,17.4,31.2c30.9,10.6,24.9,59.7,24.9,59.7
	c12.9,37.8-18.9,61.9-18.9,61.9c6.1,46.1-47.6,52.9-47.6,52.9c-12.8,19.5-20.4,25.2-24.8,25.6c-0.3,0-0.5,0-0.8,0
	c-0.1,0-0.3,0-0.4-0.1c-0.1,0-0.3-0.1-0.4-0.1c-4-1.1-4.5-7.3-4.5-7.3l-0.1,0.1c0-0.1,0-0.1,0-0.1c-5.4,5.5-11,8.2-16.4,9
	c-0.6,0.1-1.1,0.1-1.7,0.2c-0.3,0-0.6,0-0.9,0.1c-0.3,0-0.6,0-0.9,0c-14.9,0-28.1-12.7-30.8-15.4c0.3-1.7,0.7-3.3,1-4.7
	c1.2-5,2.6-8.5,4.2-9.9c0.1-0.1,0.2-0.2,0.3-0.3c0,0,4.6-0.5,12-2.8c0.9-0.3,1.8-0.6,2.7-0.9s1.8-0.6,2.7-1c2.3-0.9,4.7-1.9,7.3-3.1
	l0,0c0.7-0.4,1.5-0.7,2.2-1.1c0.8-0.4,1.5-0.8,2.3-1.2c8.4-4.5,17.8-10.9,27-20.2c0.4-0.4,0.8-0.8,1.3-1.3l0,0
	c0.8-0.9,1.7-1.8,2.5-2.7l0,0c0.4-0.5,0.8-0.9,1.2-1.4c0.8-0.9,1.7-1.9,2.5-2.9c0.9-1.1,1.8-2.2,2.7-3.4c0.4-0.6,0.9-1.2,1.3-1.7
	c0.6-0.8,1.3-1.7,1.9-2.6l-12.9,2.3l3.8-12.8c0,0,0,0,0,0.1v-0.2c-0.6,0.9-19,28-28.7,30.9c0,0-0.1-0.7-0.3-1.8c0-0.2,0-0.3-0.1-0.5
	c-0.1-0.5-0.1-1.1-0.2-1.7c0-0.3-0.1-0.5-0.1-0.8c0-0.4-0.1-0.8-0.1-1.2c0-0.4-0.1-0.8-0.1-1.3l0,0c0-0.6-0.1-1.2-0.1-1.8
	c-0.1-1.7-0.1-3.6,0-5.4c0.2-3.9,0.9-7.7,2.4-10.3l0,0v-0.1l-6-1.5c0,0,0,0,0,0.1v0.1c0,0.2,0,0.6-0.1,1.2c0,0.1,0,0.2,0,0.4
	c0,0.1,0,0.1,0,0.2c0,0.3,0,0.7-0.1,1.1c0,0.3,0,0.5,0,0.8c0,0.1,0,0.2,0,0.3c-0.1,0.8-0.1,1.7-0.2,2.6c0,0.3,0,0.5-0.1,0.8l0,0
	c0,0.3,0,0.5-0.1,0.8l0,0c0,0,0,0,0,0.1c0,0.5-0.1,1.1-0.1,1.6c0,0.4-0.1,0.8-0.1,1.2l0,0c-0.1,1.4-0.3,2.9-0.5,4.3
	c0,0.3-0.1,0.5-0.1,0.8l0,0c0,0.2-0.1,0.5-0.1,0.7l0,0c-0.1,0.5-0.1,0.9-0.2,1.4l0,0c-0.5,2.9-1.2,5.4-2,6.5
	c0,0-14.4,13.6-20.4,12.8c0,0,0,0,0-0.1s0-0.1,0-0.2c0-0.2,0-0.4-0.1-0.6l0,0c0-0.1,0-0.2,0-0.3c-0.1-0.6-0.2-1.3-0.3-2.2
	c0-0.2,0-0.4-0.1-0.6v-0.1c0-0.2-0.1-0.5-0.1-0.8c-0.1-0.5-0.1-1-0.2-1.6c0-0.1,0-0.1,0-0.2c0-0.5-0.1-1.1-0.1-1.6
	c-0.1-0.7-0.1-1.5-0.2-2.3c0-0.3,0-0.5-0.1-0.8c0-0.4,0-0.8-0.1-1.2c-0.1-0.9-0.1-1.9-0.1-2.9c-0.5-12.3,0.5-28.6,7.4-36.4
	c0,0,10.6,3,22.7-9h-0.1l0.1-0.1L40,141.1c0,0-9.8,5.3-16.6,0c0,0-6.5-11.1-7.9-23.9c-0.1-0.9-0.2-1.7-0.2-2.6
	c-0.1-1.2-0.1-2.3,0-3.5c0-0.4,0-0.8,0.1-1.2c0.1-1.2,0.2-2.3,0.4-3.5l0,0l0,0v-0.1c0,0-5.3-9.8-9.1-1.5c0,0,0,0,0,0.1l0,0
	c0,0,0.6,2.8,1.4,7.2c0.1,0.4,0.1,0.8,0.2,1.2c0.1,0.7,0.2,1.4,0.3,2.1c0.1,0.6,0.2,1.3,0.3,2c0.1,1,0.3,2,0.4,3
	c0.1,0.4,0.1,0.8,0.1,1.2C9.5,121.9,9.5,122.3,9.6,122.7z"/>
<path fill="#FFFFFF" stroke="#000000" d="M21.8,203.7c6,0.8,20.4-12.8,20.4-12.8c0.8-1.1,1.5-3.5,2-6.5c-0.5,3-1.2,5.5-2,6.6
	c0,0-14.4,13.6-20.4,12.8c0,0,0-0.1,0-0.3C21.8,203.6,21.8,203.7,21.8,203.7z"/>
<path fill="#FFFFFF" stroke="#000000" d="M21.7,203.3c0-0.2-0.1-0.4-0.1-0.6C21.7,203,21.7,203.2,21.7,203.3z"/>
<path fill="#FFFFFF" stroke="#000000" d="M19.5,30.1c-1.4,1.7-2,4.1-2.1,6.9c0.1-2.8,0.8-5.3,2.1-7l6,1.5c0,0,0,0,0,0.1L19.5,30.1z"
	/>
<path fill="#FFFFFF" stroke="#000000" d="M15.4,117.2c1.4,12.8,7.9,23.9,7.9,23.9c6.8,5.3,16.6,0,16.6,0l10.6,1.5l-0.1,0.1
	l-10.5-1.5c0,0-9.8,5.3-16.6,0C23.3,141.2,16.8,130,15.4,117.2z"/>
<path fill="#FFFFFF" stroke="#000000" d="M59.3,326.3c-31.8,5.2-50.4,10-51.9,10.4c0.2-29.8,1.2-78.7,5.8-103.6
	c2.9,3,16,15.5,30.9,15.3c0.3,0,0.6,0,0.9,0s0.6,0,0.9-0.1c0.6,0,1.1-0.1,1.7-0.2c5.4-0.8,11.1-3.4,16.4-8.9
	c0.1,0.8,0.8,6.3,4.6,7.2c0.1,0,0.3,0.1,0.4,0.1s0.3,0,0.4,0.1c0.3,0,0.5,0,0.8,0c4.4-0.3,12-5.9,24.9-25.6c0,0,53.6-6.8,47.6-52.9
	c0,0,31.8-24.1,18.9-61.9c0,0,6.1-49.1-24.9-59.7c0,0,9.9-30.1-17.5-31.2c-1.3-0.1-2.7,0-4.1,0c-0.5,0-1,0.1-1.5,0.1
	s-0.9,0.1-1.4,0.1c-0.4,0.1-0.8,0.1-1.2,0.2c-2.9,0.4-6.2,1-9.8,2c-0.1-0.5-3.2-12.2-8.1-17.3h474.4l-0.4,261.9
	c-4.198-11.3-13.6-14.7-21.8-15.5c-0.5-0.1-1.1-0.1-1.6-0.1l-2.5-0.1c-0.9,0-1.7,0-2.5,0.1c-0.2,0-0.3,0-0.5,0c-0.102,0-0.2,0-0.3,0
	c-0.602,0-1.102,0.1-1.7,0.1c-2.2,0.2-3.5,0.5-3.5,0.5c-12.5,13.2-5.5,19.4-3.5,20.8c-4.8,8-10.602,18.9-12.102,21.6l3-57.5
	c2.302-1.8,13.102-16.1,15.802-21.5c1,6.7,3.8,8.6,6.3,8.7c0.1,0,0.2,0,0.3,0s0.2,0,0.3,0c2.7,0.1,5.2-1.7,5.2-1.7
	c7.5,0,8.3-34,8.3-34c0.2-0.9,0.7-3,1.4-5.5c0-0.2,0.1-0.3,0.1-0.5c1.5-5.5,3.3-12.9,3.7-14.7c0-0.1,0-0.1,0-0.2c0-0.1,0-0.1,0-0.1
	v-0.1c-1.6,3-14.3,10.5-14.3,10.5c-23.4,9.8-13.602,35.5-13.602,35.5l0.5,0.9c-0.3,0.2-0.6,0.4-0.898,0.6c-4.5,3-11.602,9-12.4,9.8
	l-2.3-33.8l0.8-0.8c0,0-0.1,0-0.1-0.1l0,0c2.5,1.3,4.5,2.3,4.5,2.3c4.398,0-2.102-22.6-2.3-23.4c0,0,0.198,0.2,2.3,2.3
	c0.1,0.1,0.2,0.2,0.2,0.2c0.1,0.1,0.1,0.1,0.198,0.2c0.102,0.1,0.302,0.2,0.4,0.4c2.1,1.6,6.2,4,8.8,5.4c0.2,0.1,0.3,0.2,0.5,0.3
	s0.3,0.2,0.5,0.3c0.2,0.1,0.3,0.2,0.5,0.3c0.4,0.2,0.7,0.4,0.8,0.4c0.102,0,0.102,0.1,0.102,0.1c3.8-1.5-5.3-21.9-5.3-21.9l0,0
	c3.8,1.2,7.198,1.1,8.8,0.9c0.1,0,0.1,0,0.2,0c0.1,0,0.1,0,0.198,0c0.102,0,0.2,0,0.302,0c0.1,0,0.1,0,0.198,0
	c0.102,0,0.102,0,0.102,0c1.2-0.5,1.5-1.6,1.1-3c-0.1-0.2-0.1-0.5-0.2-0.7c-0.1-0.2-0.198-0.4-0.3-0.6c-0.1-0.2-0.2-0.4-0.3-0.5
	c-1.2-2.5-3.6-5.4-5.5-7.6c-0.1-0.2-0.3-0.3-0.4-0.5c-0.198-0.2-0.3-0.3-0.398-0.5c-0.2-0.2-0.3-0.3-0.5-0.5
	c-0.2-0.2-0.3-0.4-0.5-0.5c-0.2-0.2-0.3-0.4-0.5-0.5c0.1,0.1,0.2,0.2,0.398,0.2c0.2,0.1,0.302,0.2,0.5,0.2c0.102,0,0.2,0,0.302,0.1
	c0.1,0,0.198,0,0.3,0c0,0,0,0,0.1,0h0.102c0.398,0,0.8-0.2,1.3-0.5c0.1,0,0.1-0.1,0.2-0.1c0.1-0.1,0.198-0.1,0.198-0.2
	c0.2-0.1,0.4-0.3,0.602-0.5c0.398-0.3,0.7-0.7,1-1.2c0.2-0.3,0.398-0.6,0.6-0.9c0.2-0.3,0.4-0.6,0.601-1c0.5-0.9,1-1.7,1.301-2.6
	c0.1-0.3,0.3-0.6,0.398-0.8l0,0c0.102-0.3,0.301-0.6,0.4-0.8c0.1-0.1,0.1-0.3,0.2-0.4c0.2-0.4,0.3-0.7,0.398-1
	c0.102-0.3,0.2-0.5,0.2-0.6s0-0.1,0-0.1c0.8-4.5-11.3-9.8-11.3-9.8c3,0,8.3-12.1,8.3-12.1c0-0.2,0-0.3,0-0.5c0-0.1,0-0.2-0.1-0.3
	c-0.9-3-9.3-4.3-14.8-4.8c-0.2,0-0.4,0-0.5-0.1c-0.4,0-0.7-0.1-1-0.1c-0.2,0-0.302,0-0.5,0c-0.802-0.1-1.4-0.1-1.9-0.1s-0.9,0-0.9,0
	c3.802-3,3-15.8,3-15.8c-0.3-0.1-0.6-0.1-0.898-0.2c-0.7-0.1-1.3-0.2-2-0.2c-4.8-0.2-9.2,1.8-12.102,3.5l0,0
	c-0.198,0.1-0.398,0.2-0.6,0.4c-0.2,0.1-0.3,0.2-0.5,0.3s-0.3,0.2-0.5,0.3c-0.8,0.6-1.4,1-1.6,1.1C508.3,85.7,503.1,76,503.1,76
	C492.5,79,488,88.8,488,88.8c-3.8-5.3-9.8-11.3-9.8-11.3c-6.7,1.5-1.7,20.4-1.5,21.1c-3-5.3-16.602-6.8-20.4-6.8
	c-0.3,0-0.6,0-0.8,0.1c-0.1,0.1-0.3,0.1-0.4,0.2c-0.1,0.1-0.198,0.1-0.3,0.2c-2.3,2.3,0.7,11.6,3.3,18.1
	c0.102,0.3,0.302,0.6,0.4,0.9c0.1,0.3,0.3,0.7,0.4,1c0.1,0.1,0.1,0.3,0.198,0.5c0.102,0.3,0.302,0.6,0.4,0.9
	c0.1,0.3,0.3,0.6,0.4,0.9c0,0.1,0.1,0.2,0.1,0.3c0.1,0.2,0.1,0.3,0.2,0.5c0.1,0.1,0.1,0.3,0.2,0.4c0.198,0.5,0.398,0.8,0.398,1
	c-3.3-5.9-11.8-6.1-13.898-6c-0.302,0.7-0.7,1.7-1.2,3c-0.7,1.6-0.8,3.2-0.602,4.8c0,0.2,0,0.3,0.102,0.5c0.1,0.5,0.2,1,0.398,1.5
	c0.102,0.2,0.2,0.5,0.2,0.7c0.102,0.2,0.2,0.4,0.2,0.6c0.1,0.3,0.3,0.6,0.4,1c0.898,1.9,2.198,3.7,3.5,5.2
	c0.198,0.3,0.398,0.5,0.698,0.7c0.302,0.3,0.5,0.6,0.802,0.9c0.1,0.1,0.3,0.3,0.398,0.5l0,0c0.102,0.2,0.3,0.3,0.4,0.4
	c0.398,0.4,0.8,0.8,1.2,1.2l0.1,0.1c0.2,0.2,0.5,0.4,0.7,0.6c0.5,0.5,0.898,0.8,1.1,0.9c-4.5-3.1-8.5-0.9-11.3,1.9
	c-0.2,0.2-0.3,0.3-0.4,0.4c-2.1,2.2-3.398,4.6-3.5,4.7c0,7.7,17.102,12.2,19.4,12.8c-0.4,0.1-0.8,0.2-1.2,0.4
	c-0.1,0-0.2,0.1-0.3,0.2c-4.6,2.4-8.8,13.1-8.8,13.1c-5.8,9.4,18.1,2.3,20.3,1.5h-0.1c-4.302,1.9-3.5,15-3.5,15
	c-2.2,5.9,13,0.2,13.6,0c-2.2,5.3-0.7,15.8-0.7,15.8c0.2,1.3,1,1.5,2.2,1c0.1,0,0.2-0.1,0.3-0.1c0.2-0.1,0.3-0.2,0.5-0.3
	c5-2.6,14.9-13.5,17.7-16.6c-0.3,0.5-0.9,1.4-1.8,3c-2.2,3.6-1.7,19,5,15.7c0.398-0.2,0.8-0.4,1.2-0.7c3.898-2.7,5-8.8,5.1-14.2h0.8
	l0.8,65.4c-1.398-1-17.3-12.2-25.698-16.6c-0.302-0.1-0.5-0.3-0.802-0.4c1.5,0.1,3.102,0.1,4.602-0.3c0.1,0,0.2-0.1,0.3-0.1
	s0.2,0,0.3-0.1c1.3-0.4,2.4-1,3.3-2.1c3-3.6-10.6-28-42.6-16.6c-0.4,0.1-0.8,0.3-1.2,0.4c-0.398,0.2-0.898,0.3-1.3,0.5
	c-0.5,0.2-0.9,0.4-1.4,0.6c-0.5,0.2-1,0.4-1.5,0.7c-1.8,0.8-3.8,1.8-5.698,2.9c-0.302,0.2-0.7,0.4-1.102,0.6c-0.3,0.2-0.7,0.4-1,0.6
	c-5,2.9-10.398,6.6-16.2,11.3c0.5,0.2,36.302,14,52.7,12.1h0.102c1.6-0.2,3-0.4,4.1-0.9c0,0,9.2-0.8,2.9-9.6
	c0.398,0.3,0.8,0.7,1.398,1.1c0.102,0.1,0.2,0.2,0.4,0.3c0.5,0.4,1,0.8,1.6,1.2c0.3,0.2,0.602,0.5,0.9,0.7
	c0.2,0.2,0.398,0.3,0.6,0.5c0.3,0.2,0.602,0.5,0.9,0.7c3.3,2.7,7.398,6.1,11.1,9.4c0.2,0.2,0.3,0.3,0.5,0.5
	c0.2,0.2,0.4,0.4,0.602,0.5c0.1,0.1,0.3,0.2,0.398,0.4c0.8,0.7,1.602,1.5,2.4,2.2c0.3,0.3,0.6,0.5,0.8,0.8c2.7,2.6,4.7,4.8,5.4,6.2
	c0,0.1,0.1,0.2,0.1,0.2c0,0.1,0,0.1,0.1,0.2c0,0.1,0,0.1,0,0.2l-0.8,61c-1.398-1.4-16.8-17.7-22.6-21c0,0,15.398,3.4,17-1.5
	c0-0.1,0.1-0.3,0.1-0.4c0-0.2,0-0.3,0-0.5c0-0.3,0-0.6-0.1-0.9c-0.2-0.8-0.7-1.8-1.4-2.9c-0.2-0.2-0.3-0.5-0.5-0.7
	c0,0-22.7-31-56.7-32.5c0,0,5.302,46.9,28.7,56.7c0,0,16.602,0.8,10.602-17.3l0,0l0.1,0.1c0.2,0.2,0.5,0.5,1.1,1
	c0.102,0.1,0.2,0.2,0.302,0.3c0.398,0.4,1,0.9,1.6,1.5c0.1,0.1,0.3,0.3,0.4,0.4c2.198,2.2,5.198,5.2,8.3,8.6
	c0.3,0.3,0.6,0.6,0.8,0.9c1.7,1.8,3.4,3.7,5,5.5c0.3,0.4,0.7,0.8,1,1.2c0,0.1,0.1,0.1,0.2,0.2c0.3,0.3,0.6,0.7,0.898,1
	c0,0.1,0.102,0.1,0.102,0.2c0.3,0.4,0.6,0.7,0.8,1c1,1.2,1.9,2.4,2.6,3.4c0.102,0.2,0.2,0.3,0.4,0.5c0.2,0.3,0.4,0.6,0.6,0.9
	c0.102,0.2,0.302,0.4,0.4,0.6c0.1,0.2,0.2,0.3,0.3,0.5c0.4,0.6,0.7,1.2,0.9,1.7l-0.7,5c-6.8-5.1-15-2.6-19.4-0.7
	c-0.398,0.2-0.698,0.3-1,0.5c-0.398,0.2-0.8,0.4-1,0.5c-0.198,0.1-0.3,0.2-0.5,0.3c-0.1,0.1-0.198,0.1-0.3,0.2
	c-0.398,0.2-0.5,0.3-0.5,0.3c-3,1.7-2.5,5.2-0.1,9.2l-0.602,0.6c-15.6-4.1-31-7.8-46.3-11.1c-2.2-0.5-4.398-0.9-6.5-1.4l0,0
	c-2.7-0.6-5.3-1.1-8-1.6c-4-0.8-8-1.5-12-2.3c-2-0.4-4-0.7-5.898-1.1c-2-0.4-4-0.7-5.9-1c-1.3-0.2-2.6-0.5-3.9-0.7
	c-13.1-2.2-26.1-4.1-38.8-5.7c-6.1-0.8-12.2-1.5-18.3-2.1c-6-0.7-12-1.2-18-1.8c-11.9-1.1-23.5-1.9-35-2.5
	c-42.3-2.4-81.6-1.9-116.4-0.1c-5,0.3-9.9,0.6-14.7,0.9c-2.4,0.2-4.8,0.3-7.1,0.5c-1.2,0.1-2.3,0.2-3.5,0.3
	c-2.3,0.2-4.6,0.4-6.9,0.6c-1.1,0.1-2.3,0.2-3.4,0.3s-2.3,0.2-3.4,0.3c-2.2,0.2-4.4,0.4-6.6,0.6c-1.1,0.1-2.2,0.2-3.3,0.3
	c-1.1,0.1-2.2,0.2-3.2,0.3c-1.1,0.1-2.1,0.2-3.2,0.3c-4.2,0.5-8.3,0.9-12.3,1.4c-2,0.2-4,0.5-5.9,0.7s-3.9,0.5-5.7,0.7l0,0
	c-1.9,0.3-3.7,0.5-5.6,0.8c-1.8,0.3-3.6,0.5-5.4,0.8c-1.8,0.3-3.5,0.5-5.2,0.8l0,0c-2.9,0.4-5.8,0.9-8.6,1.3c-0.1,0-0.3,0-0.4,0.1
	C62.5,325.7,60.9,326,59.3,326.3z"/>
<path fill="#FFFFFF" stroke="#000000" d="M14.2,228.3c-0.3,1.4-0.7,3-1,4.7C13.5,231.3,13.8,229.7,14.2,228.3z"/>
<path fill="#FFFFFF" stroke="#000000" d="M0.5,455.4c0,0,6.4,2.898,11-0.602c0.1,0,0.1-0.1,0.2-0.1c4.8,0.398,37.9,3.398,79.4,6.3
	l-0.5,11.8c-5.9-0.6-57.8-5.898-81.7-6.398c-3.4-0.102-6.2-0.102-8.3,0.1v-11.1H0.5L0.5,455.4z"/>
<path fill="#FFFFFF" stroke="#000000" d="M11.5,454.8c-4.6,3.5-11,0.602-11,0.602V437.1c10.5-2.3,0.1,0,10.6-0.698v4.5V452.3
	l0.4,2.3V454.8z"/>
<path fill="#FFFFFF" stroke="#000000" d="M7.7,370.2c-0.7-0.8-1.4-1.8-2-2.4c-2.1-1.8-4.8,5.5-4.8,5.5l-0.3-208
	c5.1-2.1,7.8-7.8,9-15l0,0c0.1-0.3,0.1-0.6,0.1-0.9l0,0c0.1-0.8,0.2-1.5,0.3-2.3c0.1-0.8,0.2-1.6,0.2-2.4c0-0.6,0.1-1.3,0.1-1.9
	c0.2-3.2,0.1-6.5,0-9.7c0-0.3,0-0.5,0-0.8c0-0.3,0-0.5,0-0.8c-0.1-1.7-0.2-3.5-0.4-5.1c0-0.4-0.1-0.8-0.1-1.3
	c-0.1-0.8-0.2-1.7-0.3-2.5c0-0.4-0.1-0.8-0.1-1.2s-0.1-0.8-0.1-1.2c-0.1-1.1-0.3-2.1-0.4-3c-0.1-0.7-0.2-1.4-0.3-2
	c-0.1-0.7-0.2-1.4-0.3-2.1c-0.1-0.4-0.1-0.8-0.2-1.2c-0.7-4-1.3-6.7-1.4-7.2c3.7-8,8.8,1,9.1,1.5l0,0c-0.2,1.2-0.3,2.3-0.4,3.5
	c0,0.4,0,0.8-0.1,1.2c-0.1,1.2,0,2.3,0,3.5c0,0.9,0.1,1.7,0.2,2.6c1.4,12.8,7.9,24,7.9,24c6.8,5.3,16.6,0,16.6,0l10.5,1.5
	c-12.1,12-22.6,8.9-22.6,8.9c-7,7.9-7.9,24.3-7.4,36.5c0,1,0.1,2,0.1,2.9c0,0.4,0,0.8,0.1,1.2c0,0.3,0,0.5,0.1,0.8
	c0,0.8,0.1,1.5,0.2,2.3c0,0.6,0.1,1.1,0.1,1.6c0,0.1,0,0.1,0,0.2c0.1,0.6,0.1,1.1,0.2,1.6c0,0.3,0,0.5,0.1,0.8v0.1
	c0,0.2,0,0.4,0.1,0.6c0.1,0.9,0.2,1.7,0.3,2.2c0,0.1,0,0.2,0,0.3l0,0c0,0.3,0.1,0.5,0.1,0.6s0,0.1,0,0.2c0,0.2,0,0.3,0,0.3
	c6,0.8,20.4-12.8,20.4-12.8c0.9-1.1,1.5-3.6,2-6.6l0,0c0.1-0.5,0.2-0.9,0.2-1.4l0,0c0-0.2,0.1-0.5,0.1-0.7l0,0
	c0-0.3,0.1-0.5,0.1-0.8c0.2-1.4,0.4-2.9,0.5-4.3l0,0c0-0.4,0.1-0.8,0.1-1.2c0-0.6,0.1-1.1,0.1-1.6c0,0,0,0,0-0.1l0,0
	c0-0.3,0-0.5,0.1-0.8l0,0c0-0.3,0-0.5,0.1-0.8c0.1-0.9,0.1-1.8,0.2-2.6c0-0.1,0-0.2,0-0.3c0-0.3,0-0.5,0-0.8c0-0.4,0-0.8,0.1-1.1
	c0-0.1,0-0.1,0-0.2s0-0.3,0-0.4c0-0.6,0.1-1,0.1-1.2c0-0.1,0-0.1,0-0.1l6,1.5c-1.6,2.6-2.2,6.5-2.4,10.4c-0.1,1.8-0.1,3.7,0,5.4
	c0,0.6,0.1,1.2,0.1,1.8l0,0c0,0.4,0.1,0.9,0.1,1.3c0,0.4,0.1,0.8,0.1,1.2c0,0.3,0.1,0.5,0.1,0.8c0.1,0.6,0.1,1.2,0.2,1.7
	c0,0.2,0,0.4,0.1,0.5c0.1,1.2,0.3,1.9,0.3,1.9c9.5-2.9,27.5-29.2,28.6-30.9l-3.7,12.7l12.9-2.3c-0.6,0.9-1.2,1.7-1.9,2.6
	c-0.4,0.6-0.9,1.2-1.3,1.7c-0.9,1.2-1.8,2.3-2.7,3.4c-0.8,1-1.6,1.9-2.5,2.9c-0.4,0.5-0.8,0.9-1.2,1.4l0,0c-0.8,0.9-1.7,1.8-2.5,2.7
	l0,0c-0.4,0.4-0.8,0.9-1.3,1.3c-9.2,9.2-18.6,15.7-27,20.2c-0.8,0.4-1.5,0.8-2.3,1.2c-0.8,0.4-1.5,0.7-2.2,1.1l0,0
	c-2.6,1.2-5,2.3-7.3,3.1c-0.9,0.4-1.8,0.7-2.7,1c-1,0.3-1.9,0.6-2.7,0.9c-7.3,2.3-12,2.8-12,2.8c-0.1,0.1-0.2,0.2-0.3,0.3
	c-1.7,1.5-3,5-4.2,9.9c-0.4,1.4-0.7,3-1,4.7v0.1l-0.1-0.1c-2.3,12.4-3.6,30.8-4.5,49.9c-0.9,19.1-1.2,38.8-1.3,53.8c0,0,0,0,0.1,0
	l0,0c-0.1,14.8,0,24.9,0,24.9L7.7,370.2z"/>
<path fill="#FFFFFF" stroke="#000000" d="M10.3,144.8c0-0.6,0.1-1.3,0.1-1.9C10.4,143.5,10.4,144.1,10.3,144.8z"/>
<path fill="#FFFFFF" stroke="#000000" d="M10.3,144.8c-0.1,0.8-0.1,1.6-0.2,2.4C10.2,146.4,10.3,145.6,10.3,144.8z"/>
<path fill="#FFFFFF" stroke="#000000" d="M10.1,370.8c-0.9,0.8-1.7,0.2-2.4-0.7l-0.3-8.5l0.3,1l0,0l-0.3-1c0,0-0.1-10.1,0-24.9l0,0
	c1.5-0.4,20.2-5.2,51.9-10.4c1.6-0.3,3.1-0.5,4.8-0.8c0.1,0,0.3,0,0.4-0.1c2.8-0.4,5.6-0.9,8.6-1.3l0,0c1.7-0.3,3.5-0.5,5.2-0.8
	c1.7-0.3,3.6-0.5,5.4-0.8c1.8-0.3,3.7-0.5,5.6-0.8l0,0c1.9-0.3,3.8-0.5,5.7-0.7s3.9-0.5,5.9-0.7c4-0.5,8.1-0.9,12.3-1.4
	c1-0.1,2.1-0.2,3.2-0.3s2.1-0.2,3.2-0.3c1.1-0.1,2.2-0.2,3.3-0.3c2.2-0.2,4.4-0.4,6.6-0.6c1.1-0.1,2.2-0.2,3.4-0.3
	c1.1-0.1,2.3-0.2,3.4-0.3c2.3-0.2,4.6-0.4,6.9-0.6c1.2-0.1,2.3-0.2,3.5-0.3c2.4-0.2,4.7-0.3,7.1-0.5c4.8-0.3,9.7-0.6,14.7-0.9
	c34.8-1.9,74.1-2.3,116.4,0.1c11.5,0.6,23.1,1.5,35,2.5c5.898,0.5,11.898,1.1,18,1.8c6,0.7,12.1,1.4,18.3,2.1
	c12.8,1.6,25.7,3.5,38.8,5.7c1.3,0.2,2.6,0.4,3.9,0.7c2,0.3,4,0.7,5.898,1c2,0.3,4,0.7,5.9,1.1c4,0.7,8,1.5,12,2.3
	c2.7,0.5,5.3,1.1,8,1.6l0,0c2.2,0.4,4.398,0.9,6.5,1.4c15.3,3.3,30.7,6.9,46.3,11.1l0,0l0.6-0.6c-2.398-4-2.898-7.5,0.102-9.2
	c0,0,0.2-0.1,0.5-0.3c-0.2,0.1-0.3,0.2-0.3,0.2c-3,1.7-2.4,5.2-0.102,9.2c4,7.2,13.602,16.1,19,20.8c2.3,2,3.8,3.2,3.8,3.2
	s0,0,4.5,3.8c0.2,0.2,0.4,0.3,0.602,0.5l0,0c-0.2-0.2-0.5-0.4-0.7-0.5c-4.5-3.8-4.5-3.8-4.5-3.8s-1.5-1.2-3.8-3.1l0,0c0,0,0,0,0-0.1
	l0,0l0.7,31.7h0.1l12.1-1.2l0.102,1c-0.3,0-0.602,0.101-0.9,0.101c-4.2,0.399-8.2,0.8-12.2,1.199c-15.5,1.4-28.898,2.301-37.6,2.801
	l1.5-30c-6-10.7-21.1,1.5-21.1,1.5l-1.4,27.2c-8.1-1.3-20.4-3.3-34.9-5.5c-1.198-0.2-3.3-5.8-2.198-6.5c3.8-2.3-12.5-7.4-13.602-7.6
	c-1.898-0.3,4.9,12.4,2.9,12.1c-35.7-5.3-80.3-11.2-110.9-12.8h-0.102l0.201-5.4c-6-20.2-21.101,1.5-21.101,1.5l-0.1,3.6
	c-3.6,0.2-6.6,0.5-9,1c-35.8,7-66.7,11.9-93.5,15.1c-1.3,0.1-7.2-4.6-8.4-4.5c-1.8,0.2-5.8-5.5-7.5-5.3c-1.5,0.2,3.9,11.2,2.4,11.3
	c-6.9,0.7-13.4,1.301-19.7,1.801c-6.3,0.5-12.3,0.899-18.1,1.1l1.5-29.5c-6-10.7-21.1,1.5-21.1,1.5L89.6,401
	c-10.2,0.1-19.5-0.2-28-0.7c-6.8-0.399-6.5-6.5-8.3-6.6c-1.5-0.1-0.8-9-2.3-9.1c-1.2-0.1-4.5,3.6-5.9,3.8c-0.1-0.2-0.1-0.4-0.2-0.5
	c-0.1,0.1-0.1,0.3,0,0.5l0,0c-1.3-0.1,6.5,12.3,5.3,12.2c-30.3-3.1-38.5-8.399-38.5-8.399h-1.5L10.1,370.8z"/>
<path fill="#FFFFFF" stroke="#000000" d="M9.3,563.1l0.3,20.2c-4.9,0.2-8.2-0.2-9.1-1.5V543c1.7-1.8,4.6-3.4,8.3-4.8L9.3,563.1z"/>
<path fill="#FFFFFF" stroke="#000000" d="M0.5,646.5c0,0,3.5-0.3,9-0.7v0.7l1.3,5.6l1,4.302L0.5,655.6V646.5z"/>
<path fill="#FFFFFF" stroke="#000000" d="M9.6,625.8c-4.5,0-7.8-0.398-9.1-1.398V603.8c0.4,1.102,3.5,1.3,8.2,0.9l0.1,1.398
	l0.4,10.7L9.6,625.8z"/>
<path fill="#FFFFFF" stroke="#000000" d="M0.5,624.4c1.2,1,4.5,1.398,9.1,1.398c20.4,0,66.4-8.2,66.4-8.2V617.2
	c3.7,0,7.5-0.102,11.3-0.2l-0.7,15c-0.6,6.7-55.1,11.9-77,13.8c-5.5,0.5-9,0.7-9,0.7v-22.1H0.5z"/>
<path fill="#FFFFFF" stroke="#000000" d="M7.7,370.2c0.8,0.9,1.6,1.5,2.4,0.7l0.2,21.3V405.1v12.2c-6.6,0.2-9.8,0-9.8,0l0.4-44
	L7.7,370.2z"/>
<path fill="#FFFFFF" stroke="#000000" d="M8.2,515c-3.9,1.4-6.7,3-7.6,5.1v-53.6c2.1-0.2,4.9-0.2,8.3-0.1L8.7,473l-0.3,21.2
	l-0.3,20.6L8.2,515z"/>
<path fill="#FFFFFF" stroke="#000000" d="M7.4,361.7l0.3,1l0,0L7.4,361.7z"/>
<path fill="#FFFFFF" stroke="#000000" d="M13.2,233.1C8.6,258,7.6,306.9,7.4,336.7c-0.1,0-0.1,0-0.1,0c0.1-14.9,0.4-34.7,1.3-53.8
	C9.5,263.9,10.9,245.4,13.2,233.1C13.1,233.1,13.2,233.1,13.2,233.1z"/>
<path fill="#FFFFFF" stroke="#000000" d="M6.6,104.8c3.8-8.3,9.1,1.5,9.1,1.5s0,0,0,0.1C15.4,105.9,10.3,96.8,6.6,104.8L6.6,104.8z"
	/>
<path fill="#FFFFFF" stroke="#000000" d="M7.7,370.2l-6.8,3.1c0,0,2.7-7.4,4.8-5.5C6.3,368.4,7,369.4,7.7,370.2z"/>
<path fill="#FFFFFF" stroke="#000000" d="M9.6,150.3c-1.3,7.1-4,12.8-9,15v-0.1C5.7,163.1,8.4,157.4,9.6,150.3z"/>
<g>
	<path d="M212.1,389.8c-0.7,0.5-1.4,0.9-2.1,1.4c-0.6,0.5-1.3,1.1-1.6,1.8c-0.4,0.7-0.3,1.5,0.2,2.1s1.2,1.1,2,1.5
		c-0.8-0.3-1.6-0.6-2.2-1.2c-0.3-0.3-0.6-0.7-0.7-1.2c-0.1-0.5,0.1-1,0.3-1.4c0.4-0.8,1.1-1.4,1.8-1.8
		C210.5,390.5,211.3,390.1,212.1,389.8z"/>
</g>
<g>
	<path d="M334.5,390.5c-1.4-0.1-2.8-0.2-4.1-0.3c-0.7,0-1.4,0-2,0.1c-0.602,0.1-1.4,0.2-1.802,0.6c-0.398,0.4-0.1,1,0.302,1.5
		c0.398,0.5,0.898,1,1.398,1.5c1,0.9,2.102,1.7,3.2,2.6c-1.2-0.7-2.4-1.4-3.5-2.3c-0.5-0.4-1.1-0.9-1.5-1.5c-0.2-0.3-0.4-0.6-0.6-1
		c-0.102-0.4-0.102-0.9,0.198-1.2c0.602-0.6,1.4-0.6,2.102-0.7c0.7-0.1,1.398-0.1,2.1,0C331.8,390,333.2,390.2,334.5,390.5z"/>
</g>
<g>
	<path d="M498.6,442.5c1.5-0.1,3-0.1,4.602,0c1.5,0.1,3,0.3,4.5,0.6c0.7,0.2,1.5,0.4,2.2,0.9c0.3,0.2,0.698,0.6,0.8,1
		c0.1,0.5-0.2,0.9-0.5,1.2c-1.102,1.1-2.602,1.7-4,2.3c0.7-0.4,1.3-0.7,2-1.2c0.6-0.398,1.3-0.8,1.7-1.398
		c0.198-0.302,0.398-0.602,0.3-0.9c0-0.3-0.3-0.5-0.602-0.7c-0.6-0.398-1.3-0.6-2-0.8c-1.398-0.4-3-0.5-4.5-0.7
		C501.6,442.7,500.1,442.6,498.6,442.5z"/>
</g>
<g>
	<path d="M404.1,448.6c-1.198,0.2-2.5,0.302-3.698,0.5c-1.2,0.2-2.5,0.4-3.602,0.9c-0.5,0.2-1.2,0.5-1.3,0.9
		c-0.1,0.398,0.4,0.898,0.9,1.198c1,0.7,2.198,1.2,3.3,1.802c-1.2-0.302-2.4-0.802-3.5-1.4c-0.3-0.2-0.5-0.4-0.8-0.6
		c-0.2-0.2-0.5-0.602-0.302-1.102c0.102-0.398,0.4-0.6,0.7-0.8s0.602-0.3,0.9-0.4c1.2-0.398,2.5-0.6,3.7-0.8
		C401.6,448.6,402.8,448.6,404.1,448.6z"/>
</g>
<g>
	<path d="M386,419.2c-0.7,0.8-1.3,1.6-1.8,2.398c-0.5,0.9-0.9,1.802-1.102,2.7c-0.198,0.9,0,1.9,0.602,2.7
		c0.5,0.8,1.398,1.4,2.2,1.9c-1-0.302-1.9-0.9-2.602-1.7s-0.898-2-0.8-3c0.2-1.102,0.6-2,1.2-2.9C384.5,420.6,385.2,419.8,386,419.2
		z"/>
</g>
<g>
	<path d="M172,422.9c-1.1,0.5-2.3,0.898-3.4,1.398s-2.2,1-3.2,1.602c-0.5,0.3-1,0.6-1.4,1c-0.4,0.398-0.8,0.898-0.7,1.398
		c0.1,0.5,0.6,0.9,1.1,1.2s1.1,0.6,1.6,0.8c-0.6-0.1-1.2-0.3-1.7-0.6s-1.1-0.7-1.3-1.4s0.3-1.398,0.7-1.8c0.5-0.5,1-0.8,1.5-1.1
		c1.1-0.602,2.2-1.102,3.3-1.5C169.6,423.5,170.8,423.2,172,422.9z"/>
</g>
<g>
	<path d="M169,476.5c-0.9-0.2-1.9-0.3-2.8-0.3c-0.5,0-0.9,0-1.3,0.1c-0.4,0.102-0.8,0.3-0.9,0.602c-0.2,0.3-0.1,0.8,0,1.198
		c0.1,0.4,0.3,0.802,0.5,1.302c0.4,0.8,1,1.6,1.5,2.398c-0.7-0.7-1.3-1.398-1.8-2.2c-0.3-0.398-0.5-0.8-0.7-1.3s-0.3-1-0.1-1.6
		c0.2-0.602,0.8-0.8,1.3-0.9c0.5-0.1,1-0.1,1.5,0C167.2,475.9,168.1,476.1,169,476.5z"/>
</g>
<g>
	<path d="M128.2,524c-1-0.3-2.1-0.6-3.1-0.7c-0.5,0-1.1-0.1-1.5,0.102c-0.4,0.198-0.4,0.698-0.3,1.198c0.3,1,0.9,1.9,1.5,2.802
		c0.6,0.898,1.2,1.8,1.9,2.6c-0.8-0.8-1.5-1.6-2.2-2.4c-0.7-0.898-1.3-1.8-1.7-2.898c-0.1-0.301-0.1-0.602-0.1-0.9
		c0.1-0.3,0.3-0.7,0.6-0.8c0.6-0.3,1.2-0.2,1.7-0.101C126.2,523.1,127.2,523.5,128.2,524z"/>
</g>
<g>
	<path d="M30.6,547.4c-1.2,0-2.4-0.102-3.5,0.1c-0.5,0.1-1.1,0.3-1.4,0.7c-0.3,0.398-0.4,0.898-0.2,1.398c0.3,1.102,1,2,1.7,3
		c0.3,0.5,0.7,0.9,1.1,1.4c0.2,0.2,0.4,0.4,0.6,0.7l0.1,0.1c-0.2,0.102,0,0.102-0.1,0.102l0,0l0,0l0,0l0,0l0,0l-0.1-0.2l-0.3-0.3
		l0.3,0.3l0.2,0.1l0,0l0,0l0,0l0,0l0,0c0,0,0.1-0.1-0.1,0.102l-0.1-0.102c-0.2-0.2-0.4-0.398-0.7-0.6c-0.4-0.4-0.8-0.8-1.2-1.3
		c-0.8-0.9-1.5-1.9-1.8-3.102c-0.2-0.6-0.2-1.398,0.3-1.898s1.1-0.7,1.7-0.7C28.3,547,29.5,547.2,30.6,547.4z"/>
</g>
<g>
	<path d="M14,514.9c-0.8,0.398-1.6,0.8-2.4,1.198c-0.7,0.5-1.5,1-1.9,1.7c-0.3,0.7,0.4,1.4,1.1,1.9c0.7,0.5,1.6,0.899,2.4,1.2
		c-0.9-0.2-1.8-0.5-2.6-0.9c-0.4-0.2-0.8-0.5-1.1-0.9c-0.3-0.398-0.5-1-0.2-1.5c0.5-1,1.3-1.398,2.1-1.8
		C12.2,515.4,13.1,515.1,14,514.9z"/>
</g>
<g>
	<path d="M410.9,502.9c-1.302,0.6-2.602,1.198-3.802,2c-0.6,0.398-1.1,0.8-1.6,1.398c-0.4,0.5-0.7,1.2-0.5,1.8
		c0.1,0.602,0.6,1.2,1.1,1.602c0.5,0.5,1.102,0.8,1.7,1.2c1.2,0.698,2.5,1.3,3.9,1.898c-1.4-0.398-2.7-0.898-4-1.5
		c-0.7-0.3-1.3-0.7-1.8-1.2c-0.602-0.5-1.102-1.1-1.302-1.898c-0.198-0.8,0.2-1.602,0.7-2.2s1.102-1,1.7-1.4
		C408.2,503.8,409.5,503.3,410.9,502.9z"/>
</g>
<g>
	<path d="M329.3,536.8c-0.7,0.602-1.3,1.2-2,1.8c-0.6,0.602-1.2,1.302-1.398,2.102c-0.102,0.398-0.102,0.8,0.1,1.1
		s0.5,0.601,0.9,0.8c0.698,0.4,1.6,0.7,2.398,1c-0.898-0.1-1.8-0.199-2.6-0.6c-0.4-0.2-0.8-0.5-1.102-0.9c-0.3-0.398-0.3-1-0.1-1.5
		c0.3-0.898,1-1.6,1.6-2.199C327.8,537.7,328.5,537.2,329.3,536.8z"/>
</g>
<g>
	<path d="M382.2,564c-1.8-0.4-3.602-0.8-5.3-1.1c-1.802-0.302-3.602-0.7-5.4-0.9s-3.6-0.4-5.3,0.1c-0.4,0.102-0.8,0.302-1,0.7
		c-0.2,0.3-0.2,0.8-0.102,1.2c0.2,0.9,0.802,1.6,1.302,2.4c-0.602-0.7-1.2-1.4-1.5-2.302c-0.102-0.398-0.2-1,0.1-1.398
		c0.3-0.4,0.7-0.7,1.2-0.9c0.898-0.3,1.8-0.398,2.8-0.398c0.9,0,1.8,0.1,2.7,0.198c1.8,0.2,3.6,0.602,5.398,1
		C378.7,562.9,380.5,563.4,382.2,564z"/>
</g>
<g>
	<path d="M510.7,555.7c-0.602,0.6-1.3,1.2-1.9,1.8c-0.6,0.6-1.1,1.3-1.5,2c-0.2,0.4-0.3,0.8-0.3,1.1c0,0.4,0.2,0.7,0.5,0.9
		c0.6,0.5,1.5,0.7,2.4,0.9c-0.9,0-1.802-0.102-2.602-0.602c-0.398-0.2-0.7-0.7-0.8-1.2c0-0.5,0.1-1,0.3-1.398
		c0.4-0.8,1-1.5,1.7-2.102C509.2,556.7,509.9,556.1,510.7,555.7z"/>
</g>
<g>
	<path d="M314.9,501.4c-0.802,0.5-1.602,1.1-2.302,1.8c-0.698,0.7-1.3,1.5-1.198,2.398c0.1,0.9,0.898,1.5,1.698,2
		c0.802,0.5,1.7,0.9,2.7,1.302c-1-0.2-1.898-0.5-2.8-0.9c-0.5-0.2-0.9-0.5-1.3-0.9c-0.4-0.398-0.7-0.898-0.7-1.398
		c-0.1-0.602,0.2-1.102,0.4-1.602c0.3-0.398,0.6-0.8,1-1.1C313.1,502.3,314,501.8,314.9,501.4z"/>
</g>
<g>
	<path d="M230.2,535.3c-0.8,0.5-1.6,1.102-2.4,1.7c-0.8,0.6-1.5,1.2-2.1,1.9c-0.3,0.398-0.5,0.8-0.4,1.198c0,0.4,0.4,0.7,0.7,1
		c0.8,0.5,1.8,0.802,2.7,1c-1-0.1-2-0.198-2.9-0.698c-0.4-0.2-0.9-0.602-1-1.302c-0.1-0.6,0.2-1.1,0.5-1.5c0.6-0.8,1.4-1.398,2.3-2
		C228.4,536.1,229.3,535.7,230.2,535.3z"/>
</g>
<g>
	<path d="M195.4,608.5c-1,0.4-1.9,0.8-2.8,1.2c-0.9,0.5-1.8,1-2.5,1.6c-0.3,0.3-0.6,0.7-0.8,1.2c-0.1,0.4,0,0.9,0.2,1.3
		c0.5,0.9,1.3,1.5,2.1,2.102c-0.9-0.5-1.8-1-2.4-1.9c-0.3-0.5-0.4-1.1-0.3-1.6c0.1-0.602,0.5-1,0.9-1.4c0.8-0.7,1.7-1.2,2.7-1.6
		C193.4,609,194.4,608.7,195.4,608.5z"/>
</g>
<g>
	<path d="M321.7,628.8c1.8,0.5,3.5,1.102,5.2,1.8c1.698,0.7,3.398,1.4,5,2.302c0.8,0.5,1.6,0.898,2.3,1.698
		c0.1,0.2,0.3,0.5,0.3,0.802c-0.1,0.3-0.3,0.5-0.5,0.698c-0.5,0.2-0.9,0.302-1.4,0.4c-1.8,0.2-3.698,0.1-5.5-0.1
		c1.802,0,3.7,0,5.4-0.302c0.8-0.1,2-0.5,1.4-1.198c-0.5-0.602-1.4-1.102-2.102-1.5c-1.6-0.9-3.3-1.602-4.898-2.302
		C325.1,630.2,323.4,629.5,321.7,628.8z"/>
</g>
<g>
	<path d="M518.3,624.3c-2.398-0.2-4.8-0.5-7.2-0.5c-0.6,0-1.198,0-1.8,0.102c-0.6,0.1-1.2,0.198-1.5,0.6c-0.398,0.4-0.1,1,0.2,1.5
		s0.7,0.9,1.1,1.4c-0.5-0.4-0.898-0.802-1.3-1.2c-0.2-0.2-0.398-0.5-0.5-0.8c-0.1-0.302-0.1-0.7,0.2-1c0.5-0.602,1.1-0.7,1.7-0.802
		c0.6-0.1,1.2-0.1,1.8-0.1c1.2,0,2.4,0.1,3.6,0.3C515.9,623.8,517.1,624,518.3,624.3z"/>
</g>
<g>
	<path d="M398.8,612.2c2-0.102,4,0,6.102,0.2c2,0.1,4,0.3,6,0.6c-2,0.1-4,0-6.102-0.2C402.8,612.7,400.8,612.5,398.8,612.2z"/>
</g>
<g>
	<path d="M432.1,566.2c2.9,0,5.802,0.1,8.802,0c1.5,0,2.898-0.102,4.3-0.3c0.7-0.102,1.398-0.302,2.1-0.5c0.602-0.2,1.4-0.7,1.4-1.4
		c0,0.4-0.102,0.7-0.4,1s-0.6,0.5-0.898,0.6c-0.7,0.302-1.4,0.5-2.102,0.7c-1.398,0.3-2.898,0.4-4.398,0.5c-1.5,0-2.9,0-4.4-0.1
		C435,566.6,433.5,566.4,432.1,566.2z"/>
</g>
<g>
	<path d="M136.5,599.4c2.4-0.2,4.8-0.302,7.3-0.5c1.2-0.102,2.4-0.2,3.6-0.302c0.6-0.1,1.2-0.1,1.8-0.198c0.6-0.102,1.2-0.2,1.7-0.5
		c-1,0.698-2.3,0.898-3.5,1.1c-1.2,0.2-2.4,0.3-3.6,0.4C141.4,599.6,138.9,599.6,136.5,599.4z"/>
</g>
<g>
	<path d="M176.5,579c-1.4,0.2-2.7,0.4-4.1,0.6c-1.3,0.302-2.8,0.5-3.8,1.2c-0.2,0.2-0.4,0.4-0.3,0.602c0,0.198,0.3,0.5,0.5,0.698
		c0.5,0.4,1.1,0.802,1.7,1.102c1.2,0.6,2.5,1.2,3.7,1.7c-1.3-0.4-2.6-0.802-3.9-1.4c-0.6-0.3-1.3-0.6-1.8-1.1
		c-0.3-0.2-0.6-0.5-0.7-1c-0.1-0.5,0.2-0.9,0.5-1.102c0.6-0.398,1.3-0.6,2-0.8c0.7-0.2,1.4-0.3,2.1-0.4
		C173.7,579.1,175.1,579,176.5,579z"/>
</g>
<g>
	<path d="M164.4,553.4c-3.1-0.102-6.2-0.102-9.3-0.102s-6.2,0-9.3,0.102c-3.1,0.1-6.2,0.198-9.2,0.8c-0.7,0.2-1.5,0.398-2,0.8
		c-0.3,0.2-0.2,0.6,0,0.9c0.2,0.3,0.5,0.5,0.8,0.698c1.3,0.9,2.7,1.5,4.2,2.102c-1.5-0.5-2.9-1-4.3-1.9c-0.3-0.2-0.7-0.398-0.9-0.8
		c-0.1-0.2-0.2-0.4-0.3-0.6c0-0.2,0.1-0.5,0.3-0.602c0.6-0.6,1.4-0.8,2.2-1c3.1-0.7,6.2-0.8,9.3-0.898c3.1-0.102,6.2-0.102,9.3,0
		C158.2,553,161.3,553.2,164.4,553.4z"/>
</g>
<g>
	<path d="M97.2,446.3c-2,0-4.1-0.1-6.1,0.2c-0.5,0.1-1,0.2-1.4,0.3c-0.5,0.102-0.9,0.4-1.1,0.7c-0.2,0.4-0.1,0.9,0.1,1.3
		c0.2,0.4,0.5,0.8,0.9,1.2c-0.4-0.3-0.8-0.7-1.1-1.1c-0.3-0.4-0.5-1-0.3-1.602c0.3-0.6,0.8-0.8,1.3-1s1-0.3,1.5-0.398
		c1-0.102,2.1-0.102,3.1-0.102C95.2,446,96.2,446.1,97.2,446.3z"/>
</g>
<g>
	<path d="M204.5,499.9c-1.4,0.6-2.9,1.3-4.2,2.1c-0.7,0.4-1.3,0.8-1.9,1.3s-1.1,1.102-1.2,1.8c-0.2,0.7,0.1,1.4,0.5,2
		c0.5,0.602,1.1,1,1.8,1.4c1.3,0.8,2.8,1.4,4.2,2c-1.5-0.4-3-0.9-4.4-1.7c-0.7-0.398-1.4-0.898-1.9-1.5c-0.5-0.6-0.9-1.5-0.7-2.398
		c0.2-0.802,0.8-1.5,1.4-2s1.3-1,2-1.302C201.5,500.9,203,500.3,204.5,499.9z"/>
</g>
<g>
	<path d="M479.1,233.5c-1.398-0.6-2.8-1.2-4.3-1.7c-1.398-0.5-2.898-1-4.398-1.4c-2.9-0.8-5.9-1.5-9-1.8c-3-0.4-6.102-0.4-9.102-0.1
		c-3,0.4-6,1.2-8.7,2.7c2.602-1.6,5.602-2.6,8.7-3.1c3.102-0.5,6.2-0.4,9.2,0c3.1,0.4,6.1,1.1,9,2
		C473.5,231,476.4,232.1,479.1,233.5z"/>
</g>
<g>
	<path d="M535.8,210.1c0.602,0.1,1.102-0.2,1.602-0.5c0.5-0.3,0.898-0.7,1.3-1.1c0.8-0.8,1.398-1.8,1.898-2.7c1.102-1.9,2-4,2.7-6.1
		c0.8-2.1,1.4-4.3,2.102-6.4c0.6-2.2,1.198-4.3,1.8-6.5c-0.4,2.2-0.8,4.4-1.4,6.6c-0.5,2.2-1.2,4.4-2,6.5s-1.7,4.2-2.898,6.2
		c-0.602,1-1.302,1.9-2.102,2.7c-0.398,0.4-0.898,0.8-1.398,1C536.9,210,536.4,210.2,535.8,210.1z"/>
</g>
<g>
	<path d="M535.1,261.4c0.7-1.4,1.7-2.7,3-3.6c1.302-1,2.802-1.7,4.302-2c1.6-0.3,3.198-0.4,4.8-0.2c1.6,0.2,3.1,0.7,4.5,1.3
		c-3-0.9-6.2-1.4-9.2-0.7c-1.5,0.3-2.9,1-4.2,1.9C537.1,259,536,260.1,535.1,261.4z"/>
</g>
<g>
	<path d="M481.4,299.9c-1.5-2.4-3-4.8-4.602-7.2c-1.6-2.4-3.2-4.8-4.898-7.1c-1.7-2.3-3.4-4.6-5.4-6.7c-1-1-2-2-3.2-2.8
		c-0.6-0.4-1.2-0.7-1.898-0.9c-0.7-0.2-1.4,0-2,0.5c0.5-0.5,1.3-0.8,2-0.7c0.698,0.1,1.398,0.4,2,0.8c1.198,0.8,2.3,1.7,3.3,2.7
		c2,2,3.8,4.3,5.5,6.6c1.7,2.3,3.3,4.7,4.8,7.2C478.6,294.9,480.1,297.4,481.4,299.9z"/>
</g>
<g>
	<path d="M462.1,98.7c1,0.9,1.9,1.8,2.802,2.8c0.898,1,1.698,2,2.5,3.2c-1-0.9-1.9-1.8-2.802-2.8C463.6,100.9,462.8,99.8,462.1,98.7
		z"/>
</g>
<g>
	<path d="M480.6,86.7c0.7,1.1,1.2,2.2,1.7,3.3s1,2.3,1.3,3.5c-0.698-1.1-1.198-2.2-1.698-3.3C481.4,89.1,480.9,88,480.6,86.7z"/>
</g>
<g>
	<path d="M499.5,82.7c-0.2,1.3-0.5,2.6-0.9,3.9c-0.398,1.3-0.8,2.5-1.3,3.7c0.2-1.3,0.5-2.6,0.9-3.9
		C498.5,85.1,498.9,83.9,499.5,82.7z"/>
</g>
<g>
	<path d="M516,90.2c-0.9,1.1-1.9,2.2-2.9,3.2s-2.1,2-3.198,2.8C510.8,95.1,511.8,94,512.8,93S514.9,91,516,90.2z"/>
</g>
<g>
	<path d="M532.2,107.8c-1.2,0.7-2.4,1.2-3.7,1.7s-2.6,0.9-3.9,1.3c1.2-0.7,2.4-1.2,3.7-1.7S530.9,108.1,532.2,107.8z"/>
</g>
<g>
	<path d="M536.8,128.7c-0.8,0.1-1.5,0.1-2.3,0.1c-0.8-0.1-1.5-0.1-2.2-0.4c0.8-0.2,1.5-0.2,2.3-0.1
		C535.3,128.4,536.1,128.5,536.8,128.7z"/>
</g>
<g>
	<path d="M538.1,149.7c-1-0.5-1.898-1.1-2.8-1.7c-0.898-0.6-1.7-1.3-2.5-2.1c1,0.5,1.9,1.1,2.8,1.7
		C536.5,148.3,537.3,148.9,538.1,149.7z"/>
</g>
<g>
	<path d="M531.9,167.1c-0.802-0.5-1.4-1.1-2.102-1.7c-0.6-0.6-1.2-1.3-1.7-2c0.802,0.5,1.4,1.1,2.102,1.7
		C530.8,165.7,531.4,166.3,531.9,167.1z"/>
</g>
<g>
	<path d="M520,180c-0.8-0.3-1.4-0.8-2.1-1.3c-0.602-0.5-1.2-1-1.7-1.7c0.8,0.3,1.398,0.8,2.1,1.3C518.9,178.8,519.5,179.3,520,180z"
		/>
</g>
<g>
	<path d="M501.8,193.6c-0.1-1.8,0-3.6,0.2-5.3c0.1-1.8,0.3-3.5,0.6-5.3c0.102,1.8,0,3.6-0.198,5.3
		C502.3,190.1,502.1,191.8,501.8,193.6z"/>
</g>
<g>
	<path d="M483.7,193.6c0.7-1.5,1.6-2.9,2.398-4.3c0.9-1.4,1.802-2.7,2.9-4c-0.7,1.5-1.6,2.9-2.4,4.3
		C485.7,191,484.7,192.3,483.7,193.6z"/>
</g>
<g>
	<path d="M470.1,181.5c0.9-0.9,1.9-1.7,2.802-2.4c1-0.7,2-1.5,3.198-2.1c-0.898,0.9-1.898,1.7-2.8,2.4
		C472.2,180.2,471.2,180.9,470.1,181.5z"/>
</g>
<g>
	<path d="M456.5,165.7c0.9-0.8,1.9-1.5,2.9-2.1s2-1.2,3.1-1.7c-0.9,0.8-1.9,1.5-2.9,2.1S457.6,165.2,456.5,165.7z"/>
</g>
<g>
	<path d="M446.5,142.3c1.8-0.2,3.5-0.2,5.3-0.3c1.8,0,3.5,0.1,5.3,0.3c-1.8,0.2-3.5,0.2-5.3,0.3
		C450.1,142.5,448.3,142.5,446.5,142.3z"/>
</g>
<g>
	<path d="M451.5,118.3c1.5,0.8,2.9,1.8,4.3,2.8c1.4,1,2.8,2,4.102,3.2c-1.5-0.8-2.9-1.8-4.302-2.8
		C454.1,120.5,452.8,119.5,451.5,118.3z"/>
</g>
</svg>
