<?xml version="1.0" encoding="utf-8"?>
<!-- Generator: Adobe Illustrator 15.0.0, SVG Export Plug-In . SVG Version: 6.00 Build 0)  -->
<!DOCTYPE svg PUBLIC "-//W3C//DTD SVG 1.1//EN" "http://www.w3.org/Graphics/SVG/1.1/DTD/svg11.dtd">
<svg version="1.1" id="layer_x5F_www.ABC-color.com"
	 xmlns="http://www.w3.org/2000/svg" xmlns:xlink="http://www.w3.org/1999/xlink" x="0px" y="0px" width="822px" height="567px"
	 viewBox="0 0 822 567" enable-background="new 0 0 822 567" xml:space="preserve">
<polyline fill="#FFFFFF" points="0.5,0 822.5,0 822.5,567 "/>
<path fill="#FFFFFF" stroke="#1A171B" d="M384,75.5l-0.5,30.9c-6.5,0.3-11.9,1-15.9,1.7C295.5,122,238,130,192.2,134.1
	c-11.7,1-22.6,1.8-32.9,2.4c-10.2,0.5-19.6,0.9-28.4,1c-31.4,0.5-54.4-1.4-71.1-4.2c-35.9-6.1-42.9-16.5-42.9-16.5h-2.2V95.7h2.2
	c0,0,11.8,8.6,55.9,13.6c1.8,0.2-9.5-20-7.7-19.8c1.8,0.2,6.9-6.3,8.8-6.2c2.1,0.2,1,14.7,3.3,14.9c2.5,0.2,2.2,10,12,10.7
	c12.3,0.9,25.8,1.3,40.6,1.2v0.5l25.2-1.3l5.6-0.3c8.4-0.4,17.1-1.1,26.2-1.9c9.1-0.8,18.7-1.8,28.6-2.9c2.2-0.3-5.6-18.2-3.4-18.4
	c2.5-0.3,8.4,9,11,8.7c1.8-0.2,10.4,7.5,12.2,7.3C274,96.5,318.9,88.6,371,77.1C374.4,76.4,378.8,75.8,384,75.5z"/>
<path fill="#FFFFFF" stroke="#1A171B" d="M822.5,404.4c0,2.5-5.2,3-13.1,2.5L810.1,369.8l0.4-23.6l-0.1-1.8
	c6.1-0.602,10.5-1.602,12.198-3.2v63.2H822.5z"/>
<path fill="#FFFFFF" stroke="#1A171B" d="M822.5,214.7V304c-4.1,0.5-8.9,0.7-14.2,0.8V304c-0.2-11.4-0.3-21.2-0.3-29.8
	c-0.1-17.2,0.1-29.1,0.4-37.2c0.198-6.4,0.5-10.5,0.698-12.9l-0.8-4.6C814.4,218.1,819.3,216.5,822.5,214.7z"/>
<path fill="#FFFFFF" stroke="#1A171B" d="M811.7,200.9c5.6-0.8,9.3-1.5,10.8-2.3v16.1c-3.2,1.8-8.1,3.4-14.3,4.8
	c-39.5,9.1-129.9,11.2-136.602,11.3l-0.398-21.9C733.4,206.6,788.5,203.9,811.7,200.9z"/>
<path fill="#FFFFFF" stroke="#1A171B" d="M822.5,503.6c-0.7,1.602-7.9,0.802-18.7-1.3c-19-3.8-49.3-12-75.6-19.5l0,0
	c-28.102-8-51.5-15.1-51.5-15.1l1.1-12.4l0.2-2.5c15.3,1.9,30.1,3.2,44.1,3.602c21.7,3.698,63.5,10.6,84.7,13.6
	c6.3,0.9,10.8,1.4,12.3,1.4h3.302V503.6H822.5z"/>
<path fill="#FFFFFF" stroke="#1A171B" d="M812.7,165.7c4.5,0.8,7.898,1.9,9.8,3.2v29.8c-1.5,0.8-5.3,1.5-10.8,2.3l-0.102-1
	c2.2-17.4,1.102-33.5,1.102-33.5V165.7z"/>
<path fill="#FFFFFF" stroke="#1A171B" d="M822.5,137.9c-1.6,0.9-4.3,1.3-7.7,1.3v-13.7v-31v-31c0,0,2.7-3.2,7.7-5V137.9z"/>
<path fill="#FFFFFF" stroke="#1A171B" d="M809.4,438.3c8.1,1.3,13.1,2,13.1,2v31h-3.3c-1.5,0-6-0.5-12.3-1.398l0.3-2.302l2.2-28.5
	V438.3z"/>
<path fill="#FFFFFF" stroke="#1A171B" d="M743.1,394.7c13.7,3.2,47.5,10.8,66.302,12.2c7.898,0.5,13.1,0,13.1-2.5V440.3
	c0,0-5-0.8-13.1-2c-15.7-2.5-43.2-6.898-69-11.5c-32.7-5.8-62.602-12-62.602-14.898V411.8V404.4l-0.1-1.802
	C700.7,401.5,722.9,399,743.1,394.7z"/>
<path fill="#FFFFFF" stroke="#1A171B" d="M803.9,514.7c-0.2-5-0.102-10.2-0.102-12.4c10.8,2.2,18,2.9,18.7,1.3V524.7
	c0-2.5-11,6.2-16.4,2.5C804.8,526.2,804.2,520.5,803.9,514.7z"/>
<path fill="#FFFFFF" stroke="#1A171B" d="M803.8,502.3c0,2.2-0.1,7.4,0.102,12.4l-1.2,0.1c0,0-378.102-2.5-389.102-21.1l-1.1-13.602
	V477c38.1-0.4,75.8-1,109.6-1.8v2.5c45.2,13.6,92.5,15.8,130.4,14.2c7.8-0.302,15.2-0.802,22.1-1.4c14.301-1.2,26.4-2.9,35.602-4.3
	c9.199-1.5,15.398-2.7,17.898-3.2l0,0C754.5,490.2,784.8,498.4,803.8,502.3z"/>
<path fill="#FFFFFF" stroke="#1A171B" d="M479.5,370.9c2.2-0.102,8.8-7.301,11-7.4c2.2-0.2,4.4-5.4,6.7-5.5
	c15.6-1.1,31.5-2.7,47.8-4.8l0.3,2.899c0,0,48,10,106.3,10.199c7.802,0,15.9-0.1,24-0.5C710.4,364.2,746.9,358.4,777.9,344.6
	c12.8,0.5,24.3,0.602,32.5-0.199l0.1,1.801l-0.4,23.6l-2.898-0.1c-17.102,11.699-39.2,19.8-64,25c-20.3,4.3-42.4,6.8-65.4,7.898
	c-8.7,0.5-17.399,0.7-26.2,0.7c-22.6,0.2-45.6-0.8-67.898-2.398c-39.2-2.9-76.4-7.802-106.301-12.602
	c-34.601-5.5-59.199-10.7-65.399-12.1l-0.4-15.7c20.7,0.3,42.2,0,64.7-1.2C478.8,359.1,476.9,371.1,479.5,370.9z M710.4,383.3
	c0-3.8-6.102-6.8-13.7-6.8c-7.602,0-13.7,3.1-13.7,6.8c0,3.8,6.1,6.8,13.7,6.8C704.3,390.1,710.4,387.1,710.4,383.3z"/>
<path fill="#FFFFFF" stroke="#1A171B" d="M769.3,162.4c17.4,0.4,33.3,1.3,43.4,3.3l-0.102,0.7c0,0,1.102,16.1-1.1,33.5l0.1,1
	c-23.198,3-78.3,5.8-140.398,8.1c-7.9,0.3-16,0.6-24.102,0.9c-15.6,0.5-31.398,1-47.1,1.5C503.6,214.3,412.6,216,412.6,216
	l-1.199-0.1l1.199-29.7v-0.6c16.601,0,33.801-0.3,51.5-0.9v1.5c0,0,96.699-2.1,181.899-7.7v1.5c0,0,4.7-1.1,10.5-2.2
	C709.6,174.2,756.3,169.1,769.3,162.4z"/>
<path fill="#FFFFFF" stroke="#1A171B" d="M579.2,404.4c0,0,33.3,14.898,74.3,23.1c7.9,1.6,16.1,2.9,24.4,3.8
	c21.1,2.3,43,2.102,62.5-3.3l0.198-1.2c25.802,4.602,53.302,9,69,11.5l-0.1,0.8C788.8,453,758,457.4,722.4,456.3
	c-14.102-0.398-28.9-1.7-44.102-3.6c-8.6-1.102-17.398-2.3-26.2-3.7c-17.8-2.8-35.898-6.3-53.8-9.9
	c-25.7-5.198-51.1-10.898-74.7-16.1l-0.398-2.6c19.2-4.302,38.1-9.802,56.1-16.7L579.2,404.4z"/>
<path fill="#FFFFFF" stroke="#1A171B" d="M771,132.5c10.2,2,31.6,6.6,43.9,6.6c3.398,0,6.1-0.4,7.698-1.3v31
	c-1.898-1.3-5.3-2.3-9.8-3.2c-10.1-1.9-26-2.9-43.398-3.3c-42.302-0.9-93.7,1.5-93.7,1.5h-0.2c0.2-9-1.5-19.8-1.9-21.9
	C694.2,140.8,731.8,138,771,132.5z"/>
<path fill="#FFFFFF" stroke="#1A171B" d="M714.7,299.5c14,1.4,62.2,6.1,93.6,5.4c5.3-0.102,10.102-0.4,14.2-0.801v37.199
	c-1.7,1.602-6,2.602-12.2,3.2c-8.2,0.8-19.6,0.7-32.5,0.2c-44.1-1.9-104.398-9.5-104.398-9.5l-2-29
	C685.7,304.3,700.1,302.2,714.7,299.5z"/>
<path fill="#FFFFFF" stroke="#1A171B" d="M696.7,376.5c7.6,0,13.7,3.1,13.7,6.8c0,3.8-6.102,6.8-13.7,6.8
	c-7.602,0-13.7-3.1-13.7-6.8S689.1,376.5,696.7,376.5z"/>
<path fill="#FFFFFF" stroke="#1A171B" d="M678.1,452.7l-0.198,2.5L676.8,467.6l-2,22.7l-22.1,1.4l-0.7-25.4l-0.4-14.8l0.302-2.5
	C660.7,450.4,669.5,451.7,678.1,452.7z"/>
<path id="www.ABC-color.com" fill="#FFFFFF" stroke="#1A171B" d="M677.8,411.9V431.3c-8.3-0.898-16.5-2.3-24.398-3.8l-1.9-24.2
	c8.8,0,17.6-0.3,26.2-0.7l0.1,1.802L677.8,411.9L677.8,411.9z"/>
<path fill="#FFFFFF" stroke="#1A171B" d="M673.4,335l2.1,30.7c-8.2,0.399-16.2,0.5-24,0.5l-1.2-32.2l-0.898-25.7
	c7.3-0.6,14.6-1.399,22.1-2.3L673.4,335z"/>
<path fill="#FFFFFF" stroke="#1A171B" d="M652.6,491.7l22.102-1.4C667.8,490.9,660.4,491.4,652.6,491.7z"/>
<path fill="#FFFFFF" stroke="#1A171B" d="M672.5,271.5c-8.4,0.6-16.9,0.9-25.3,1.2v-43.9V211v-1.2c8.1-0.3,16.2-0.6,24.1-0.9
	l0.4,21.9l0.7,38.4L672.5,271.5z"/>
<path fill="#FFFFFF" stroke="#1A171B" d="M675.7,111c-9.7,0.6-15.4,0.8-15.4,0.8s-5.6-1.1-15.2-2.8l2.102-44.3
	c0,0,21.898-19.8,30.7-2.5L675.7,111z"/>
<path fill="#FFFFFF" stroke="#1A171B" d="M673.5,142c-10.4,0.6-16.5,0.9-16.5,0.9s-3.9-0.7-10.8-2c-10.5-1.9-27.8-5.1-48.9-8.7
	c-38.2-6.6-88.8-14.7-133.398-20.1c-1.102-0.1-2.2-0.3-3.302-0.4c-1.398-0.2-12.6,17.8-14,17.6c-1.8-0.2-23,8.7-12.1-2.5
	c1.4-1.4,12.7-16.6,10.9-16.8c-11.302-1.2-22-2.1-31.7-2.8H413.6l0.9-31.1h0.2c44.398,2.7,109.2,12.3,161,20.9
	c2.898,0.5-7-20.2-4.2-19.8c1.6,0.3,25.2,8.7,19.7,12.4c-1.5,1.1,1.5,10.2,3.2,10.5c21.1,3.6,38.898,6.8,50.6,9
	c9.6,1.8,15.2,2.8,15.2,2.8s5.7-0.2,15.398-0.8c12.7-0.8,32.102-2.2,54.7-4.5c5.7-0.6,11.602-1.2,17.7-2
	c21.2-2.5,43.9-5.8,65.7-10.1h1.1v31h-1.1c-14,2.8-28.5,5.1-42.8,7.1C731.8,138,694.2,140.8,673.5,142z"/>
<path fill="#FFFFFF" stroke="#1A171B" d="M646.2,140.8c6.898,1.3,10.8,2,10.8,2s6.1-0.2,16.5-0.9c0.4,2.1,2.1,13,1.9,21.9
	c-0.102,6.7-1.4,12.4-5.2,12.4c-3.9,0-9.102,0.7-13.7,1.5c-3.5,0.3-7,0.5-10.5,0.7v-11.8v-25.2L646.2,140.8z"/>
<path fill="#FFFFFF" stroke="#1A171B" d="M159.1,163.8c1.5-11.3,0.4-26,0.4-26l-0.1-1.4c10.2-0.6,21.2-1.3,32.9-2.4l0.1,1.3
	c0,0,61.4,4.4,141.4,6.3c2.5,0.1,19.4-17.5,21.9-17.5c3.3,0.1,0,11.1,3.3,11.2c2.2,0.1-3.3,6.8-1.1,6.8c8.3,0.1,16.698,0.2,25.3,0.3
	l1.1,0.5l28.5-0.2v-0.2c64.602-0.2,132-2.8,184.7-10.6c21.1,3.6,38.4,6.8,48.9,8.7l-0.102,0.8v25.2c-63.7,10.7-125.3,16.1-182,18
	c-17.7,0.6-34.8,0.9-51.5,0.9c-10,0-19.898-0.1-29.6-0.3c-14.8-0.3-29.102-0.8-42.9-1.4c-109.2-5.1-180.8-20-180.8-20H159.1
	L159.1,163.8z M443,165.8c0-5.5-7.6-9.9-17-9.9s-17,4.4-17,9.9s7.6,9.9,17,9.9S443,171.3,443,165.8z"/>
<path fill="#FFFFFF" stroke="#1A171B" d="M539.4,320.7c7.3,0,13.198,2.2,13.198,5c0,2.7-5.898,5-13.198,5
	c-7.302,0-13.102-2.2-13.102-5C526.3,323,532.2,320.7,539.4,320.7z"/>
<path fill="#FFFFFF" stroke="#1A171B" d="M539.4,320.7c-7.302,0-13.102,2.2-13.102,5c0,2.7,5.9,5,13.102,5
	c7.3,0,13.198-2.2,13.198-5C552.6,323,546.7,320.7,539.4,320.7z M490.4,363.5c-2.2,0.1-8.802,7.3-11,7.4
	c-2.602,0.199-0.7-11.801-3.2-11.602c-22.4,1.2-44,1.5-64.7,1.2c-8.2-0.101-16.3-0.3-24.1-0.601c-51.4-2-96.2-7.899-132.5-14.601
	c-56.4-10.399-92.3-22.8-100.4-25.8l0.5-25.4V293.7c18.2,2.399,37.9,4.3,58.7,5.7c0,0,0,0,0.1,0c14.3,3.5,52,12.199,100,19
	c4.5,0.699-6.3-10.7-2.398-10.7c0.1,0,0.198,0,0.3,0c4,0.5,24.3,13.6,28.5,14.1c15.1,1.8,31,3.3,47.1,4.3
	c8.7,0.602,17.5,1,26.3,1.301c51.4,1.699,104.4-2,148.7-16.399c27,0.601,56.4,0,87.102-2.7L650.3,334
	c-36.3,8.7-71.6,15-105.398,19.2c-16.302,2-32.302,3.6-47.802,4.8C494.8,358.1,492.6,363.3,490.4,363.5z"/>
<path fill="#FFFFFF" stroke="#1A171B" d="M491.1,265.9c14.7,1.7,83.602,9.1,156,6.8c8.4-0.3,16.9-0.6,25.302-1.2
	c6.198-0.4,12.398-0.9,18.6-1.4c5.4-0.5,19.8-16.2,25.1-16.9c3.102-0.4,1.4,10.3,4.4,9.9c4.5-0.6,4.6,2.7,9,1.9
	c31.3-5.5,59.2-14.3,78.7-27.9h0.1c-0.3,8.1-0.5,20-0.398,37.2H807.1c-30.6,11.3-61.8,19.5-92.5,25.2c-14.5,2.7-29,4.9-43.198,6.6
	C664,307,656.6,307.7,649.3,308.4c-30.7,2.699-60,3.3-87.1,2.699c-84.3-1.899-145.7-15.801-150.5-16.899l-1.4-24.9v-0.1
	C436.7,269.4,463.9,268.4,491.1,265.9z"/>
<path fill="#FFFFFF" stroke="#1A171B" d="M426,155.9c9.4,0,17,4.4,17,9.9s-7.6,9.9-17,9.9s-17-4.4-17-9.9S416.6,155.9,426,155.9z"/>
<path fill="#FFFFFF" stroke="#1A171B" d="M414.8,67.2l-0.3,8.8l-0.9,31.1l-1,35.5c-9.898,0-19.8,0-29.6-0.1l0.5-36.1l0.5-30.9
	l0.1-5.8C384.1,69.7,406,34.3,414.8,67.2z"/>
<path fill="#FFFFFF" stroke="#1A171B" d="M413.7,434.2V449.6c-9.102,0-17.9-0.198-26.3-0.3v-15.1V434c8.698,0,17.5-0.2,26.3-0.5
	V434.2z"/>
<path fill="#FFFFFF" stroke="#1A171B" d="M411.8,294.2l1.9,33.3c-8.8-0.3-17.602-0.7-26.3-1.3v-31.9v-25.6c7.6,0.3,15.3,0.4,23,0.5
	v0.1L411.8,294.2z"/>
<path fill="#FFFFFF" stroke="#1A171B" d="M412.6,480l1.102,13.6c-1.102,7.4,12.1,6.2-6.602,9.9c-18.6,3.7-16.398-3.7-16.398-3.7
	L389.6,480v-2.9c7.7,0,15.302-0.1,23-0.198V480z"/>
<path fill="#FFFFFF" stroke="#1A171B" d="M412.6,185.6v0.6l-1.198,29.7l-0.9,22.2c-9,0-17.9-0.2-26.4-0.6l-0.398-21.6l-0.602-28.5
	v-2.1C392.7,185.5,402.5,185.6,412.6,185.6z"/>
<path fill="#FFFFFF" stroke="#1A171B" d="M412,376.2l0.6,23.5c-8.8,0-17.6-0.3-26.398-0.9l0.1-1.898l0.5-16.102l0.602-21
	c7.898,0.3,15.898,0.5,24.1,0.601L412,376.2z"/>
<path fill="#FFFFFF" stroke="#1A171B" d="M412.6,399.7c23.5-0.102,46.4-2.8,64.7-10.2l0.102-1.2c29.8,4.7,67.1,9.7,106.3,12.602
	l-0.102,1c-1.5,0.6-3.1,1.198-4.6,1.8c-18.1,6.898-36.9,12.3-56.1,16.7c-35.7,8-72.802,12-109.2,13.198
	c-8.8,0.302-17.602,0.5-26.3,0.5c-24.2,0-47.7-1-70-2.8c-36.101-2.8-68.8-7.3-95.3-11.8c-38.4-6.5-63.8-12.8-67.6-13.8l-0.4-17.9
	c37.9,0.7,85.2,0.2,144.1-2.3c16.1,3.7,50.898,10.8,88.2,13.3C394.9,399.4,403.8,399.7,412.6,399.7z"/>
<path fill="#FFFFFF" stroke="#1A171B" d="M387.4,268.6v25.6c-26.2,3.399-51.7,5.399-76.2,6.399c-34.5,1.399-67.2,0.699-97.4-1.301
	h-0.1c-20.8-1.398-40.4-3.3-58.7-5.699c-8.4-1.101-16.4-2.301-24.2-3.5c-10.8-1.699-21-3.5-30.6-5.399c-18.3-3.5-34.2-7.2-47.2-10.6
	c-6.4-1.6-2.2-6.4-3.2-9.3c5,0.8,9.8,1.8,14.2,3.1L90.3,253c12,2.6,25.3,5.1,39.5,7.4c8.5,1.4,17.3,2.7,26.3,3.9
	c53.2,6.9,113.5,9.7,160,1.1l0.2-1.9C338.7,266,362.6,267.8,387.4,268.6z"/>
<path fill="#FFFFFF" stroke="#1A171B" d="M387.4,359.9l-0.602,21c-32.1,2-61.7,3.5-88.7,4.699C239.2,388,191.9,388.5,154,387.9
	c-8.9-0.102-17.3-0.4-25.2-0.602c-3.9-0.1-7.6-0.3-11.2-0.5l0,0c-71.2-3-97.8-10.5-104.3-12.699L12.7,333.4c5-2.102,11-4,17.7-5.7
	c26.4,13.899,63.3,20.2,99.5,22.5c8.1,0.5,16.2,0.8,24.1,1c54,1.1,100.8-5,100.8-5l0.1-0.9C291.2,352,336,357.8,387.4,359.9z
	 M96.7,372.2c0-3.8-4.4-6.8-9.9-6.8s-9.9,3-9.9,6.8s4.4,6.8,9.9,6.8C92.2,379,96.7,375.9,96.7,372.2z"/>
<path fill="#FFFFFF" stroke="#1A171B" d="M287.7,445.3c0,0,41.5,3,99.7,3.9c8.398,0.2,17.198,0.3,26.3,0.3c16.1,0.1,33,0,50.398-0.3
	c4.4-0.102-3.3-10,1.102-10.102c5.1-0.198,22.3,9.5,27.398,9.302C527.9,447.1,564,444.6,597.8,440.3l0.2-1.3
	c17.9,3.7,36,7.1,53.8,9.9l-0.3,2.5l0.4,14.8h-1.5c-7.602,4.3-60.102,7-128.302,8.7c-33.8,0.8-71.5,1.398-109.6,1.8
	c-7.7,0.1-15.3,0.1-23,0.2c-54.4,0.5-108.1,0.6-150.6,0.6c-45.4,0-78.2-0.1-85.6-0.2l-0.5-16.1v-0.7c49.1-2.1,100.4-6.5,134.7-15.8
	L287.7,445.3z"/>
<path fill="#FFFFFF" stroke="#1A171B" d="M317.4,431.3L317.3,432.9c-7.1,4.698-17.3,8.698-29.7,12c-34.3,9.3-85.6,13.8-134.7,15.8
	c-8.9,0.3-17.7,0.6-26.3,0.898c-5.5,0.102-11,0.302-16.4,0.302c-48.6,0.898-88.4-0.2-97-0.5L12.6,444l-0.1-2.2
	c12.3-1.1,32.3-5.3,52.3-9.898l0.4,2.198c0,0,29.8,0.5,63.6-0.398c8.7-0.3,17.6-0.602,26.3-1.102c31.6-1.698,60.8-5.198,66.9-12.1
	l0.1-1C248.6,424,281.3,428.5,317.4,431.3z"/>
<path fill="#FFFFFF" stroke="#1A171B" d="M231.1,214.6c14.8,4.3,73.3,19.7,153,22.9c8.602,0.4,17.4,0.5,26.4,0.6
	c7.5,0.1,15.1,0,22.9-0.3c2.198-0.1-4.4-11.9-2.2-11.9c2.6-0.1,4.398-1.5,12,9.9c1.3,2,6.6,1.4,8.8,1.2c1.1-0.1,4.4-0.3,5.5-0.3
	c44.7-2.8,93.1-10.4,142.5-25.4c15.7-0.5,31.5-1,47.1-1.5v1.2v17.8c-10.5,4.5-21.198,8.5-32,12.1c-2.6,0.8-15.8,12.7-18.398,13.5
	c-2,0.6-11.102,6.8-13.102,7.4c-1.698,0.5,14.302-15.6,12.602-15.1c-34.3,9.8-69.8,15.8-105,19.2c-27.2,2.5-54.4,3.5-80.7,3.2
	c-7.7,0-15.4-0.2-23-0.5c-24.8-0.9-48.7-2.7-71.1-5c-51-5.4-94.3-13.6-123-20c-2-0.4-14.5,11.2-16.4,10.7c-1.4-0.3-7.7,1.2-7.7,1.2
	c-1.9-0.4,10.4-15.1,8.7-15.5c-11.8-2.8-19.2-4.8-21.2-5.4l0.5-25C181.2,211.5,206.3,213.2,231.1,214.6z"/>
<path fill="#FFFFFF" stroke="#1A171B" d="M162.7,61l-2.1,48l-5.6,0.3c-8.8,0.4-17.2,0.7-25.2,0.7l2.2-46.6
	C132,63.5,153.9,43.7,162.7,61z"/>
<path fill="#FFFFFF" stroke="#1A171B" d="M159.4,137.9c0,0,1.2,14.7-0.4,26l0,0c-0.5,4.1-1.4,7.7-2.9,10c-5.5,8.7-25.2,0-25.2,0V164
	v-26.4c8.8-0.1,18.3-0.5,28.4-1L159.4,137.9z"/>
<path fill="#FFFFFF" stroke="#1A171B" d="M157.2,209.7l-0.5,25l-0.6,29.7c-9-1.2-17.8-2.5-26.3-3.9l1.4-33.6l0.8-19.3
	C140.2,208.4,148.6,209.1,157.2,209.7z"/>
<path id="ABC-color.com" fill="#FFFFFF" stroke="#1A171B" d="M154.4,405.7l0.7,26.8c-8.8,0.5-17.6,0.9-26.3,1.1V415.4V387
	c7.9,0.3,16.3,0.5,25.2,0.6L154.4,405.7z"/>
<path fill="#FFFFFF" stroke="#1A171B" d="M152.8,461.4l0.5,16.1l0.6,18.8c-7.2,0.5-14,0.5-19.7-0.2c-2.7-0.3,6.7-12.898,4.4-13.6
	c-4.6-1.4-10.4,6.7-13.2,3.7l1-24.602c8.6-0.198,17.4-0.5,26.3-0.898L152.8,461.4z"/>
<path fill="#FFFFFF" stroke="#1A171B" d="M15.8,175.1c0,0,78.9,2.5,115.1-1.2c0,0,19.7,8.7,25.2,0c0,0,107.4,19.6,184,10.1
	c13.7,0.6,28,1.1,42.9,1.4v2.1l0.6,28.5H383c-32.4,3.7-90.9,2.1-151.9-1.4c-24.8-1.4-49.9-3.1-73.9-4.9c-8.6-0.6-17-1.3-25.2-1.9
	c-60.3-4.8-108.4-9.6-115.3-10.3c-0.1,0-0.2,0-0.3,0l-0.6-3.8V175.1L15.8,175.1z"/>
<path fill="#FFFFFF" stroke="#1A171B" d="M125.4,486.2c2.7,3,8.5-5.102,13.2-3.7c2.3,0.7-7.1,13.3-4.4,13.6
	c5.7,0.802,12.5,0.802,19.7,0.2c34.2-2.6,79.7-17,85-18.7c42.6,0,96.2-0.1,150.6-0.6v2.9l1.1,19.8c0,0-16.6,1.1-42.698,2.8
	c-3.802,0.2,7.398,9.4,3.198,9.6c-4.6,0.302-24.6-8.3-29.6-8C216.9,510.7,28.8,522,15.3,518.7l-1.9-9.102l-0.1-1.1
	C45.5,505.6,124.6,497.1,125.4,486.2z"/>
<path fill="#FFFFFF" stroke="#1A171B" d="M130.9,290.2c7.8,1.2,15.9,2.399,24.2,3.5v0.399l-0.5,25.399L154,351.1
	c-7.9-0.199-16-0.5-24.1-1l0.6-35L130.9,290.2z"/>
<path fill="#FFFFFF" stroke="#1A171B" d="M16.7,197.5c6.9,0.7,55,5.5,115.3,10.3l-0.8,19.3c-8.6-1-83.9-9.5-118.7-10.4
	c-4.9-0.1-9-0.1-12,0.1v-18.2c0,0,9.3,4.7,15.9-0.9C16.5,197.6,16.6,197.5,16.7,197.5z"/>
<path fill="#FFFFFF" stroke="#1A171B" d="M130.9,290.2l-0.4,25h-0.6c0,0-60.6,2.7-99.5,12.5c-6.7,1.7-12.7,3.6-17.7,5.7
	c-5.5,2.3-9.7,4.898-12.1,7.8V304c1.4-3.3,5.4-6,11.1-8.3c26.4-10.4,88.7-10.4,88.7-10.4l0.1-0.6
	C109.9,286.6,120.1,288.5,130.9,290.2z"/>
<path fill="#FFFFFF" stroke="#1A171B" d="M117.5,386.7L117.5,386.7c3.6,0.2,7.4,0.3,11.2,0.5V415.6c0,0-32,8.9-64,16.4
	c-20,4.7-40.1,8.8-52.3,9.9c-6.9,0.6-11.3,0.198-11.9-1.5v-35.9c1.2,2.1,6,2.7,13.1,2.5C41.1,405.8,102.2,390.6,117.5,386.7z"/>
<path fill="#FFFFFF" stroke="#1A171B" d="M126.5,461.6l-1,24.602C124.6,497.1,45.5,505.6,13.6,508.6c-8,0.7-13.1,1.102-13.1,1.102
	v-35.9C2.3,475.4,7,476,13.6,476c29.7-0.1,96.5-13.4,96.5-13.4V462C115.5,461.9,120.9,461.8,126.5,461.6z"/>
<path fill="#FFFFFF" stroke="#1A171B" d="M59.8,133.3c16.7,2.9,39.7,4.7,71.1,4.2v26.4c0,0-68.6,0-106.4,3c-3.1,0.2-5.9,0.6-8.5,0.8
	c-0.1,0-0.1,0-0.2,0c-15.2,1.2-0.1-2.5-15.3,1.2v-32.2c0,0,4.6,0.3,14.3,0C24.5,136.4,39.4,135.5,59.8,133.3z"/>
<path fill="#FFFFFF" stroke="#1A171B" d="M86.8,365.4c5.4,0,9.9,3,9.9,6.8s-4.4,6.8-9.9,6.8s-9.9-3-9.9-6.8S81.3,365.4,86.8,365.4z"
	/>
<path fill="#FFFFFF" stroke="#1A171B" d="M90.4,253.2L64.1,268c0,0-1.1-24.1,27.3-24.8C100,248.8,85.6,252.1,90.4,253.2z"/>
<path fill="#FFFFFF" stroke="#1A171B" d="M91.4,243.3C63,243.9,64.1,268,64.1,268c-4.3-1.3-9.2-2.3-14.2-3.1
	c-18-2.9-37.3-3.1-37.3-3.1H12l0.5-34.5c8.5,0.8,42,4.4,65.9,11C85,240.1,89.1,241.8,91.4,243.3z"/>
<path fill="#FFFFFF" stroke="#1A171B" d="M15.5,518.9l1.4,7l-16.4-1.2v-14.9c0,0,5-0.398,13.1-1.1l0.1,1.1L15.5,518.9z"/>
<path fill="#FFFFFF" stroke="#1A171B" d="M0.5,168.9c15.3-3.7,0.1,0,15.3-1.2v7.4v18.6l0.6,3.8v0.3c-6.7,5.6-15.9,0.9-15.9,0.9
	V168.9z"/>
<path fill="#FFFFFF" stroke="#1A171B" d="M14.8,116.8v19.9c-9.6,0.3-14.3,0-14.3,0L1,65c0,0,4-12,7-9c2,2.1,4.2,7.4,6.5,5l0.3,34.7
	V116.8z"/>
<path fill="#FFFFFF" stroke="#1A171B" d="M13.2,374l0.5,32.8c-7.1,0.3-11.9-0.398-13.1-2.5v-63.2c2.4-2.898,6.6-5.5,12.1-7.8
	L13.2,374z"/>
<path fill="#FFFFFF" stroke="#1A171B" d="M12.5,216.6l-0.1,10.7l-0.5,34.5l-0.5,33.5l0.1,0.4c-5.7,2.2-9.7,5-11.1,8.3v-87.2
	C3.5,216.5,7.6,216.5,12.5,216.6z"/>
<path fill="#FFFFFF" stroke="#1A171B" d="M0.5,440.3c0.6,1.8,5,2.102,11.9,1.5l0.1,2.2l0.6,17.4l0.5,14.6c-6.6,0-11.4-0.6-13.1-2.2
	V440.3z"/>
<g>
	<path d="M307.1,93.9c-1.1,0.8-2.1,1.5-3.1,2.3c-1,0.7-2,1.7-2.5,2.9c-0.2,0.6-0.3,1.2-0.2,1.8c0.101,0.6,0.4,1.1,0.7,1.6
		c0.8,1,1.8,1.7,2.9,2.5l0,0c-1.2-0.5-2.4-1.1-3.301-2.2c-0.399-0.5-0.699-1.2-0.8-1.9c-0.1-0.7,0.101-1.4,0.4-2
		c0.7-1.2,1.5-2.2,2.5-3.1C304.7,95,305.8,94.3,307.1,93.9L307.1,93.9z"/>
</g>
<g>
	<path d="M484.6,95.1c-2.1-0.2-4.1-0.5-6.198-0.6c-1-0.1-2.102-0.2-3.102,0c-0.5,0.1-1,0.2-1.5,0.4c-0.5,0.2-0.898,0.5-1.1,1
		c-0.2,0.4-0.102,0.9,0.1,1.4s0.5,0.9,0.8,1.3c0.602,0.8,1.302,1.6,2.102,2.3c1.5,1.4,3.1,2.8,4.6,4.2l0,0c-1.8-1.1-3.398-2.4-5-3.8
		c-0.8-0.7-1.5-1.5-2.1-2.4c-0.3-0.4-0.602-0.9-0.7-1.4c-0.2-0.5-0.2-1.1,0.1-1.6c0.302-0.5,0.802-0.8,1.302-1
		c0.5-0.2,1-0.3,1.5-0.4c1-0.2,2.1-0.2,3.1-0.2C480.5,94.2,482.6,94.5,484.6,95.1L484.6,95.1z"/>
</g>
<g>
	<path d="M722.5,180.6c2.3-0.1,4.5-0.1,6.8,0.2c2.2,0.3,4.5,0.7,6.7,1.2c1.1,0.3,2.2,0.6,3.1,1.4c0.4,0.4,0.802,1,0.802,1.7
		c0,0.7-0.4,1.2-0.7,1.7c-0.7,0.9-1.7,1.6-2.602,2.2c-1,0.6-2,1.1-3,1.6l0,0c1.9-1.2,3.9-2.4,5.302-4.1c0.3-0.4,0.6-0.9,0.6-1.4
		s-0.2-0.9-0.6-1.3c-0.802-0.7-1.802-1.2-2.9-1.5c-2.1-0.7-4.4-1-6.6-1.1L722.5,180.6L722.5,180.6z"/>
</g>
<g>
	<path d="M585.5,190.6c-1.9,0.3-3.7,0.5-5.5,0.8c-1.8,0.2-3.7,0.5-5.4,1.3c-0.8,0.4-1.698,1-1.8,1.7c0,0.4,0.102,0.8,0.4,1.1
		s0.6,0.6,1,0.9c1.5,1.1,3.1,1.9,4.8,2.8l0,0c-1.8-0.6-3.5-1.3-5.1-2.5c-0.4-0.3-0.802-0.6-1.102-1c-0.3-0.4-0.6-0.9-0.5-1.5
		c0.102-0.6,0.5-1,0.9-1.3c0.398-0.3,0.8-0.5,1.3-0.7c0.9-0.3,1.8-0.6,2.7-0.8c0.898-0.2,1.8-0.5,2.7-0.7
		C581.7,190.6,583.6,190.5,585.5,190.6L585.5,190.6z"/>
</g>
<g>
	<path d="M559.2,142.2c-1,1.2-1.9,2.6-2.7,3.9c-0.9,1.3-1.6,2.8-1.7,4.4c-0.1,1.6,0.2,3.2,1,4.5s2.102,2.4,3.4,3.2l0,0
		c-1.5-0.6-2.9-1.6-3.8-3c-0.9-1.4-1.102-3.2-0.802-4.8c0.302-1.6,0.9-3.1,1.602-4.6C556.9,144.5,557.9,143.2,559.2,142.2
		L559.2,142.2z"/>
</g>
<g>
	<path d="M249,148.4c-1.7,0.8-3.4,1.5-5,2.2c-1.7,0.7-3.4,1.5-4.8,2.6c-0.7,0.6-1.4,1.2-2,1.9c-0.6,0.7-1,1.5-0.8,2.3
		c0.2,0.8,0.8,1.5,1.5,2c0.7,0.5,1.5,1,2.4,1.4l0,0c-0.9-0.3-1.8-0.6-2.6-1.1c-0.8-0.5-1.6-1.2-1.8-2.2c-0.2-1.1,0.4-2,1-2.7
		c0.6-0.7,1.4-1.3,2.2-1.8c1.6-1,3.2-1.9,4.8-2.8C245.5,149.5,247.2,148.8,249,148.4L249,148.4z"/>
</g>
<g>
	<path d="M244.6,236.5c-1.4-0.3-2.8-0.6-4.3-0.7c-0.7-0.1-1.4-0.1-2.1,0.1c-0.7,0.2-1.2,0.8-1.3,1.5c-0.1,1.4,0.6,2.7,1.2,4
		c0.7,1.3,1.4,2.5,2.1,3.8l0,0c-1-1.1-1.8-2.3-2.5-3.6c-0.4-0.6-0.7-1.3-0.9-2c-0.2-0.7-0.3-1.5-0.1-2.2c0.2-0.8,0.8-1.3,1.5-1.6
		c0.7-0.3,1.4-0.4,2.2-0.4C241.9,235.4,243.3,235.8,244.6,236.5L244.6,236.5z"/>
</g>
<g>
	<path d="M185.4,314.6c-1.6-0.5-3.2-1.1-4.8-1.398c-0.4-0.102-0.8-0.102-1.2-0.102s-0.8,0.102-1.1,0.4c-0.3,0.3-0.4,0.7-0.4,1.1
		c0,0.4,0.1,0.801,0.2,1.2c0.6,1.5,1.5,3,2.3,4.4l2.7,4.2l0,0c-1.1-1.2-2.2-2.602-3.1-4c-0.9-1.4-1.7-2.9-2.2-4.602
		c-0.2-0.8-0.3-1.8,0.3-2.5c0.6-0.699,1.6-0.699,2.5-0.6C182.4,313,184,313.7,185.4,314.6L185.4,314.6z"/>
</g>
<g>
	<path d="M44,353c-1.8-0.1-3.6-0.2-5.3,0.1c-0.8,0.2-1.7,0.5-2.2,1.301c-0.4,0.801-0.3,1.699-0.1,2.601c0.6,1.7,1.6,3.2,2.6,4.601
		c0.5,0.699,1,1.399,1.6,2.199c0.3,0.301,0.6,0.7,0.8,1l0.1,0.102l0,0h-0.1c0,0-0.1,0.1,0,0.199l0,0l0,0l0,0V365l-0.2-0.3l-0.4-0.5
		l0,0l0.5,0.5l0.2,0.2l0.1,0.1l0,0l0,0l0,0v0.2h-0.1l0,0l-0.1-0.101c-0.3-0.3-0.7-0.601-1-1c-0.6-0.699-1.2-1.399-1.7-2.101
		c-1.1-1.5-2-3.101-2.4-4.899c-0.2-0.899-0.3-1.899,0.2-2.699c0.4-0.801,1.3-1.4,2.2-1.602C40.4,352.3,42.3,352.5,44,353L44,353z"/>
</g>
<g>
	<path d="M19.9,299.7c-1.2,0.6-2.4,1.3-3.6,1.899c-0.6,0.301-1.2,0.699-1.7,1.101c-0.5,0.399-0.9,1-1.1,1.7c-0.2,0.6,0,1.3,0.4,1.8
		s0.9,1,1.4,1.3c1.1,0.8,2.3,1.4,3.6,2l0,0c-1.3-0.3-2.7-0.8-3.8-1.6c-0.6-0.4-1.1-0.9-1.5-1.5c-0.4-0.602-0.5-1.5-0.2-2.102
		c0.3-0.699,0.8-1.199,1.2-1.699c0.5-0.5,1-0.899,1.6-1.301C17.3,300.5,18.6,300,19.9,299.7L19.9,299.7z"/>
</g>
<g>
	<path d="M595.3,279.8c-2,0.9-3.898,2-5.6,3.2c-0.9,0.6-1.7,1.3-2.4,2.2c-0.6,0.899-1,2-0.8,3s0.9,1.899,1.6,2.7
		c0.802,0.8,1.602,1.398,2.5,2c1.802,1.199,3.802,2.1,5.7,3.1l0,0c-2.1-0.7-4.1-1.5-6-2.7c-0.898-0.6-1.8-1.3-2.6-2.1
		s-1.4-1.8-1.5-3c-0.2-1.101,0.3-2.2,0.898-3.2c0.602-0.9,1.4-1.7,2.302-2.4C591.2,281.4,593.2,280.4,595.3,279.8L595.3,279.8z"/>
</g>
<g>
	<path d="M477,335.6c-1,1-2,1.9-2.9,2.9c-1,0.9-1.898,2-2.198,3.3c-0.102,0.7-0.102,1.3,0.1,1.9c0.3,0.6,0.7,1,1.3,1.399
		c1.102,0.699,2.4,1.199,3.7,1.601l0,0c-1.4-0.101-2.8-0.4-4-1.2c-0.6-0.4-1.1-1-1.4-1.7c-0.3-0.7-0.198-1.5,0-2.1
		c0.2-0.7,0.602-1.3,0.9-1.9c0.4-0.6,0.7-1.2,1.2-1.7C474.7,337.2,475.8,336.3,477,335.6L477,335.6z"/>
</g>
<g>
	<path d="M553.7,380.3l-7.9-2c-2.6-0.7-5.2-1.399-7.898-1.6c-1.302-0.101-2.7-0.2-4-0.2c-1.302,0-2.7,0.2-3.802,0.7
		c-0.6,0.3-1,0.7-1.198,1.3c-0.2,0.6-0.102,1.2,0.1,1.9c0.4,1.3,1.1,2.398,1.8,3.6l0,0c-0.898-1-1.7-2.2-2.1-3.5
		c-0.2-0.7-0.4-1.4-0.2-2.1c0.2-0.7,0.8-1.301,1.4-1.602c1.3-0.699,2.698-0.699,4.1-0.699s2.7,0.199,4.1,0.399
		c2.7,0.5,5.302,0.899,8,1.5C548.6,378.4,551.2,379.2,553.7,380.3L553.7,380.3z"/>
</g>
<g>
	<path d="M740,366.6l-2.8,2.9c-1,0.9-1.9,2-2.3,3.2c-0.2,0.6-0.4,1.3-0.4,1.899c0,0.601,0.3,1.199,0.8,1.601
		c1,0.8,2.3,1.2,3.602,1.5l0,0c-0.7,0-1.4-0.101-2-0.2c-0.7-0.2-1.302-0.4-1.9-0.9s-0.9-1.199-0.9-2c0-0.699,0.302-1.398,0.602-2
		c0.7-1.199,1.5-2.3,2.3-3.398C737.8,368.2,738.8,367.3,740,366.6L740,366.6z"/>
</g>
<g>
	<path d="M456.2,277.4c-1.2,0.9-2.4,1.9-3.5,2.9c-0.5,0.5-1.102,1.1-1.4,1.7c-0.398,0.6-0.6,1.4-0.5,2.1c0.2,1.5,1.3,2.602,2.5,3.4
		s2.602,1.5,4,2.1l0,0c-1.5-0.398-3-0.898-4.3-1.8c-0.7-0.399-1.3-1-1.7-1.6c-0.5-0.601-0.8-1.4-0.8-2.2s0.3-1.5,0.6-2.2
		c0.4-0.7,0.802-1.3,1.302-1.9C453.4,278.9,454.7,278,456.2,277.4L456.2,277.4z"/>
</g>
<g>
	<path d="M333.4,333.1l-3.602,2.7c-1.2,0.8-2.398,1.8-3.1,3.101c-0.4,0.601-0.602,1.301-0.602,2c0.102,0.699,0.5,1.199,1.102,1.699
		c1.2,0.801,2.6,1.301,4,1.7l0,0c-1.5-0.1-3-0.399-4.3-1.3c-0.602-0.4-1.2-1.2-1.2-2s0.398-1.6,0.8-2.2c0.4-0.6,1-1.2,1.5-1.7
		s1-1.1,1.6-1.6C330.7,334.5,332,333.7,333.4,333.1L333.4,333.1z"/>
</g>
<g>
	<path d="M283,453.4c-1.5,0.6-2.9,1.3-4.3,2c-1.4,0.6-2.8,1.5-3.8,2.698c-0.5,0.602-0.8,1.302-0.9,2.102c-0.1,0.7,0.1,1.5,0.4,2.1
		c0.7,1.3,1.9,2.4,3.1,3.4l0,0c-1.4-0.8-2.7-1.8-3.5-3.2c-0.4-0.7-0.6-1.6-0.4-2.5c0.2-0.8,0.6-1.6,1.2-2.2c0.6-0.6,1.2-1.1,1.8-1.6
		s1.3-1,2-1.4C279.9,454.2,281.4,453.7,283,453.4L283,453.4z"/>
</g>
<g>
	<path d="M466,486.8c2.6,0.8,5.1,1.9,7.6,3c2.4,1.2,4.802,2.5,7.2,3.9c1.2,0.7,2.3,1.398,3.2,2.6c0.2,0.3,0.4,0.602,0.4,1.102
		c0,0.398-0.2,0.8-0.5,1.1c-0.602,0.5-1.302,0.6-2,0.8c-2.7,0.5-5.5,0.3-8.2,0.102V499.3c2.7-0.1,5.398,0,8.1-0.5
		c0.602-0.1,1.3-0.3,1.8-0.7c0.2-0.198,0.4-0.398,0.4-0.698c0-0.302-0.1-0.5-0.3-0.802c-0.8-1-1.9-1.898-3-2.6
		c-2.2-1.5-4.7-2.7-7.2-3.7C470.9,489.1,468.5,488,466,486.8L466,486.8z"/>
</g>
<g>
	<path d="M751,479.4c-1.8-0.2-3.6-0.4-5.3-0.7c-1.8-0.3-3.5-0.602-5.3-0.4c-0.9,0.102-1.802,0.2-2.602,0.4s-1.7,0.6-2,1.2
		c-0.3,0.698,0.102,1.6,0.5,2.3c0.5,0.7,1,1.398,1.602,2.1l0,0c-0.7-0.6-1.302-1.2-1.9-2c-0.3-0.398-0.5-0.8-0.7-1.2
		c-0.2-0.398-0.2-1,0-1.5s0.602-0.898,1-1.1c0.4-0.2,0.9-0.3,1.3-0.4c0.9-0.198,1.802-0.198,2.7-0.198c1.8,0.1,3.602,0.198,5.4,0.3
		C747.5,478.5,749.3,478.9,751,479.4L751,479.4z"/>
</g>
<g>
	<path d="M577.8,459.5c1.5-0.1,2.9,0,4.4,0.1c1.5,0.2,2.898,0.4,4.398,0.4c2.9,0,5.9,0.2,8.802,0.7v0.1
		c-2.9,0.102-5.9-0.1-8.802-0.5c-1.5-0.2-2.898-0.2-4.398-0.2C580.7,460,579.2,459.9,577.8,459.5L577.8,459.5z"/>
</g>
<g>
	<path d="M626,383.9c2.1,0,4.3,0.1,6.4,0.199c2.1,0.199,4.3,0.301,6.398,0.101c2.102-0.2,4.3-0.4,6.3-0.8c1-0.2,2.102-0.5,3-0.9
		c0.9-0.4,1.802-1.2,1.9-2.3h0.1c0,0.5-0.1,1.1-0.5,1.6c-0.3,0.4-0.8,0.8-1.3,1.101c-1,0.5-2,0.899-3.1,1.101
		c-2.102,0.5-4.3,0.601-6.4,0.601c-2.2,0-4.3,0-6.398,0.101C630.3,384.5,628.1,384.4,626,383.9L626,383.9z"/>
</g>
<g>
	<path d="M197.5,438.5c1.8-0.2,3.5-0.3,5.3-0.3c1.8,0,3.5,0,5.3-0.2c1.7-0.2,3.5-0.4,5.2-0.7c0.9-0.1,1.7-0.3,2.6-0.398
		c0.8-0.2,1.7-0.4,2.5-0.802l0,0c-0.7,0.602-1.6,0.9-2.4,1.2c-0.9,0.2-1.7,0.4-2.6,0.602c-1.7,0.3-3.5,0.398-5.3,0.5
		c-1.8,0-3.5,0.198-5.3,0.398C201,438.7,199.2,438.7,197.5,438.5L197.5,438.5z"/>
</g>
<g>
	<path d="M255.6,405.1c-2,0.302-4.1,0.602-6.1,0.9c-1,0.2-2,0.3-3,0.6c-1,0.302-2,0.7-2.6,1.4c-0.3,0.4-0.5,0.8-0.3,1.3
		c0.1,0.4,0.5,0.8,0.8,1.2c0.7,0.7,1.6,1.2,2.5,1.7c1.8,1,3.6,1.898,5.5,2.8l0,0c-2-0.6-3.9-1.4-5.7-2.4c-0.9-0.5-1.8-1.1-2.5-1.8
		c-0.4-0.398-0.7-0.8-0.9-1.398c-0.2-0.602,0.1-1.2,0.5-1.602c0.8-0.7,1.8-1.1,2.8-1.398c1-0.302,2-0.602,3-0.802
		C251.5,405.1,253.5,405,255.6,405.1L255.6,405.1z"/>
</g>
<g>
	<path d="M238,362.9l-13.6-0.301c-4.5-0.199-9.1-0.301-13.6,0c-2.3,0.101-4.5,0.301-6.8,0.5c-2.2,0.199-4.5,0.5-6.7,1.101
		c-0.5,0.2-1.1,0.3-1.6,0.6c-0.5,0.2-1,0.5-1.2,0.9c-0.3,0.399-0.1,0.899,0.2,1.3c0.3,0.4,0.7,0.8,1.2,1.1
		c1.8,1.301,3.9,2.301,5.9,3.301l0,0c-2.1-0.801-4.2-1.699-6.1-3c-0.5-0.301-0.9-0.699-1.3-1.199c-0.2-0.2-0.3-0.5-0.4-0.801
		s0-0.699,0.1-1c0.3-0.601,0.9-0.899,1.4-1.199c0.5-0.301,1.1-0.4,1.6-0.602c2.2-0.6,4.5-0.898,6.8-1.1c2.3-0.2,4.5-0.3,6.8-0.3
		l13.6-0.2C229,362.2,233.5,362.4,238,362.9L238,362.9z"/>
</g>
<g>
	<path d="M140.5,186.9c-1.5,0-3-0.1-4.5-0.1c-1.5-0.1-3-0.2-4.5,0.2c-0.7,0.2-1.4,0.4-2.1,0.7c-0.6,0.3-1.2,0.8-1.4,1.4
		c-0.1,0.6,0.1,1.4,0.4,2c0.3,0.7,0.7,1.3,1.2,1.9l0,0c-0.6-0.5-1.1-1.1-1.5-1.8c-0.4-0.7-0.7-1.5-0.5-2.3c0.2-0.9,1-1.4,1.7-1.7
		c0.7-0.3,1.5-0.5,2.3-0.6c1.5-0.1,3-0.3,4.6-0.3C137.5,186.3,139,186.5,140.5,186.9L140.5,186.9z"/>
</g>
<g>
	<path d="M296.1,274.9c-2.2,1-4.3,2.1-6.3,3.3c-1,0.6-2,1.3-2.8,2.1c-0.8,0.8-1.5,1.9-1.7,3c-0.2,1.2,0.2,2.3,0.9,3.2
		c0.7,0.9,1.6,1.7,2.6,2.3c2,1.3,4.1,2.3,6.3,3.3l0,0c-2.3-0.699-4.5-1.6-6.5-2.898c-1-0.7-2-1.5-2.7-2.5c-0.7-1-1.1-2.301-0.8-3.5
		c0.3-1.2,1.1-2.2,1.9-3.1s1.7-1.7,2.7-2.3C291.6,276.5,293.8,275.5,296.1,274.9L296.1,274.9z"/>
</g>
</svg>
