<?xml version="1.0" encoding="utf-8"?>
<!-- Generator: Adobe Illustrator 15.0.0, SVG Export Plug-In . SVG Version: 6.00 Build 0)  -->
<!DOCTYPE svg PUBLIC "-//W3C//DTD SVG 1.1//EN" "http://www.w3.org/Graphics/SVG/1.1/DTD/svg11.dtd">
<svg version="1.1" id="Layer_1" xmlns="http://www.w3.org/2000/svg" xmlns:xlink="http://www.w3.org/1999/xlink" x="0px" y="0px"
	 width="822px" height="567px" viewBox="0 0 822 567" enable-background="new 0 0 822 567" xml:space="preserve">
<title>Coloring sun</title>
<desc>Vector coloring sun</desc>
<g>
	<polygon fill="#FFFFFF" stroke="#000000" points="400,232.5 452.7,35.2 425.8,237.6 550,75.5 447.7,252.3 624.5,150 462.4,274.2 
		664.8,247.4 467.5,300 664.8,352.7 462.4,325.8 624.5,450 447.7,347.7 550,524.5 425.8,362.4 452.7,564.8 400,367.5 347.4,564.8 
		374.2,362.4 250,524.5 352.3,347.7 175.5,450 337.6,325.8 135.2,352.7 332.5,300 135.2,247.4 337.6,274.2 175.5,150 352.3,252.3 
		250,75.5 374.2,237.6 347.4,35.2 	"/>
</g>
</svg>
