<?xml version="1.0" encoding="utf-8"?>
<svg version="1.2" baseProfile="tiny" id="Coloring"
	 xmlns="http://www.w3.org/2000/svg" xmlns:xlink="http://www.w3.org/1999/xlink" x="0px" y="0px" width="800px" height="600px"
	 viewBox="0 0 800 600">
		 <!--abc-color.com-->
			<title>Coloring Sun.</title>
			<desc>Vector coloring sun.</desc>
<circle fill="#FFFFFF" stroke="#000000" cx="389" cy="293.5" r="125"/>
<polygon fill="#FFFFFF" stroke="#000000" points="368.5,431.5 388.5,569 408.5,431.5 "/>
<polygon fill="#FFFFFF" stroke="#000000" points="426.7,427.3 500.8,544.7 463.2,411 "/>
<polygon fill="#FFFFFF" stroke="#000000" points="477.8,400.4 593.4,477.4 504.6,370.6 "/>
<polygon fill="#FFFFFF" stroke="#000000" points="513.6,355 650.6,378.5 526,317 "/>
<polygon fill="#FFFFFF" stroke="#000000" points="527.8,299 662.5,264.7 523.7,259.2 "/>
<polygon fill="#FFFFFF" stroke="#000000" points="518.1,242 627.2,156 498.1,207.4 "/>
<polygon fill="#FFFFFF" stroke="#000000" points="486,194 550.7,71 453.7,170.5 "/>
<polygon fill="#FFFFFF" stroke="#000000" points="446.2,24.5 398,154.8 437.2,163.1 "/>
<polygon fill="#FFFFFF" stroke="#000000" points="331.8,24.5 340.8,163.1 380,154.8 "/>
<polygon fill="#FFFFFF" stroke="#000000" points="324.3,170.5 227.3,71 292,194 "/>
<polygon fill="#FFFFFF" stroke="#000000" points="279.9,207.4 150.8,156 259.9,242 "/>
<polygon fill="#FFFFFF" stroke="#000000" points="254.3,259.2 115.5,264.7 250.2,299 "/>
<polygon fill="#FFFFFF" stroke="#000000" points="252,317 127.4,378.5 264.4,355 "/>
<polygon fill="#FFFFFF" stroke="#000000" points="273.4,370.6 184.6,477.4 300.2,400.4 "/>
<polygon fill="#FFFFFF" stroke="#000000" points="314.8,411 277.1,544.7 351.3,427.3 "/>
<text x="30" y="800" font-size="12">www.ABC-COLOR.COM</text>
</svg>
