<?xml version="1.0" encoding="utf-8"?>
<!-- Generator: Adobe Illustrator 15.0.0, SVG Export Plug-In . SVG Version: 6.00 Build 0)  -->
<!DOCTYPE svg PUBLIC "-//W3C//DTD SVG 1.1//EN" "http://www.w3.org/Graphics/SVG/1.1/DTD/svg11.dtd">
<svg version="1.1" id="Abc-color.com" xmlns="http://www.w3.org/2000/svg" xmlns:xlink="http://www.w3.org/1999/xlink" x="0px"
	 y="0px" width="800px" height="600px" viewBox="0 0 800 600" enable-background="new 0 0 800 600" xml:space="preserve">
<title>Coloring sun.</title>
<desc>Merry with the direct rays of the sun.</desc>
<g id="face">
	<circle id="kolo" fill="#FFFFFF" stroke="#000000" stroke-miterlimit="10" cx="400" cy="300" r="100"/>
	<path id="brow_right" stroke="#000000" d="M459.867,258.369c0,0-6.822-12-19.654-12.667c-12.834-0.667-11.568-2.983-11.104-4.54
		c1.11-3.736,6.938-7.04,17.604,0S459.867,258.369,459.867,258.369z"/>
	<path id="brow_left" stroke="#000000" d="M340.133,259.083c0,0,6.821-12,19.653-12.667c12.834-0.667,11.567-2.983,11.104-4.54
		c-1.112-3.736-6.938-7.04-17.604,0S340.133,259.083,340.133,259.083z"/>
	<path id="smile" fill="#FFFFFF" stroke="#000000" d="M434.008,316.523c0,0-5.041,18.48-13.899,32.136
		c-9.289,14.325-22.789,23.315-39.063,0c-5.08-7.28-10.439-17.71-16.021-32.12C365.819,317.266,404.318,352.145,434.008,316.523z"/>
	<path id="tongue" fill="#FFFFFF" stroke="#000000" d="M401.308,345.904c0,0,12.2-11.051,18.801,2.75
		c-9.289,14.326-22.79,23.316-39.063,0C381.036,348.654,389.475,335.07,401.308,345.904z"/>
	<path id="cornea" fill="#FFFFFF" stroke="#000000" d="M383.077,300.104c2.16-4.315,3.43-9.605,3.43-15.33
		c0-14.5-8.17-26.25-18.25-26.25s-18.25,11.75-18.25,26.25c0,5.021,0.98,9.725,2.68,13.7v0.01c1.472-0.52,3.48-1.14,5.83-1.655
		c1.83-0.41,3.86-0.75,6.011-0.938c2.359-0.2,4.859-0.21,7.381,0.104c1.979,0.25,3.961,0.688,5.898,1.396
		C379.616,298.044,381.399,298.935,383.077,300.104z"/>
	<path id="cornea_right" fill="#FFFFFF" stroke="#000000" d="M423.189,297.39c1.938-0.709,3.92-1.146,5.897-1.396
		c2.521-0.313,5.021-0.305,7.381-0.104c2.15,0.188,4.182,0.528,6.011,0.938c2.352,0.517,4.359,1.137,5.83,1.655v-0.01
		c1.699-3.977,2.682-8.679,2.682-13.7c0-14.499-8.171-26.249-18.25-26.249c-10.08,0-18.25,11.75-18.25,26.249
		c0,5.725,1.271,11.015,3.431,15.33C419.598,298.935,421.381,298.044,423.189,297.39z"/>
	<path id="eyeball" fill="#FFFFFF" stroke="#000000" d="M377.807,297.387c-6.852-2.645-13.565-1.844-19.29-0.56
		c-0.608-1.938-0.782-4.236-0.782-6.5c0-8.49,4.789-15.37,10.688-15.37c5.91-0.001,10.689,6.879,10.689,15.369
		C379.113,292.823,378.541,295.307,377.807,297.387"/>
	<path id="eyeball_right" fill="#FFFFFF" stroke="#000000" d="M423.189,297.387c-0.733-2.08-1.308-4.563-1.306-7.061
		c0-8.49,4.778-15.37,10.688-15.369c5.897,0,10.688,6.88,10.688,15.37c0,2.264-0.174,4.562-0.783,6.5
		C436.756,295.543,430.041,294.742,423.189,297.387"/>
	<path id="pupil_left" stroke="#000000" d="M374.008,290.146c0,2.38-0.82,4.438-2.1,5.848c-2.521-0.312-4.957-0.314-7.381-0.104
		c-1.24-1.398-2.021-3.413-2.021-5.743c0-4.229,2.568-7.66,5.75-7.66S374.008,285.915,374.008,290.146z"/>
	<path id="pupil_right" stroke="#000000" d="M432.74,282.485c3.182,0,5.75,3.433,5.75,7.66c0,2.33-0.781,4.345-2.021,5.743
		c-2.424-0.211-4.858-0.207-7.381,0.104c-1.279-1.409-2.1-3.468-2.1-5.848C426.988,285.915,429.559,282.485,432.74,282.485z"/>
	<ellipse id="gleam_left" fill="#FFFFFF" cx="365.987" cy="286.172" rx="1.028" ry="1.082"/>
	<ellipse id="gleam_right" fill="#FFFFFF" cx="430.205" cy="286.172" rx="1.028" ry="1.082"/>
</g>
<g id="face_line">
	<path id="cheek_left" d="M386.507,303.118c0,0-13.708-12.11-42.156-1.456C344.351,301.662,372.007,286.383,386.507,303.118z"/>
	<path id="cheek_right" d="M456.646,301.662c-28.447-10.654-42.155,1.456-42.155,1.456
		C428.989,286.383,456.646,301.662,456.646,301.662z"/>
	<path id="nose" d="M393.483,312.363c0,0-1.668-3.407,1.771-4.188c0.833-0.292,0.735-0.896,0.735-0.896s-0.383-4.771,4.785-4.604
		h1.002c0,0,3.957-0.042,4.063,4.526c-0.104,0.744,0.834,0.958,0.834,0.958s2.754,1.094,1.021,4.188c0,0,2.977-2.916-1.148-4.771
		c0,0,0.269-5.365-4.649-5.824l-1.324,0.002c0,0-5.229-0.271-5.354,5.822C395.212,307.584,390.857,308.971,393.483,312.363z"/>
	<path id="fossa_left" d="M365.723,313.451c0.802,1.021,0.689,2.515-0.313,3.396c-0.996,0.881-2.494,0.817-3.416-0.104
		c0.594,0.477,1.787,0.209,2.752-0.646C365.719,315.243,366.123,314.1,365.723,313.451z"/>
	<path id="fossa_right" d="M433.791,316.605c-1.074-0.803-1.314-2.271-0.604-3.359c-0.346,0.684,0.15,1.779,1.191,2.563
		c1.033,0.772,2.244,0.939,2.797,0.416C436.344,317.213,434.855,317.4,433.791,316.605z"/>
</g>
<g>
	<line fill="none" stroke="#000000" x1="400.2" y1="415" x2="400.5" y2="550"/>
	<line fill="none" stroke="#000000" x1="399.5" y1="50" x2="399.8" y2="185"/>
	<line fill="none" stroke="#000000" x1="379.8" y1="186.8" x2="356.1" y2="53.9"/>
	<line fill="none" stroke="#000000" x1="420.2" y1="413.2" x2="443.9" y2="546.1"/>
	<line fill="none" stroke="#000000" x1="314" y1="65.2" x2="360.4" y2="192"/>
	<line fill="none" stroke="#000000" x1="439.6" y1="408" x2="486" y2="534.8"/>
	<line fill="none" stroke="#000000" x1="525.4" y1="516.3" x2="457.7" y2="399.5"/>
	<line fill="none" stroke="#000000" x1="342.3" y1="200.5" x2="274.6" y2="83.7"/>
	<line fill="none" stroke="#000000" x1="474.1" y1="387.9" x2="561.1" y2="491.2"/>
	<line fill="none" stroke="#000000" x1="238.9" y1="108.8" x2="325.9" y2="212.1"/>
	<line fill="none" stroke="#000000" x1="311.8" y1="226.3" x2="208.2" y2="139.7"/>
	<line fill="none" stroke="#000000" x1="591.8" y1="460.3" x2="488.2" y2="373.7"/>
	<line fill="none" stroke="#000000" x1="499.7" y1="357.3" x2="616.8" y2="424.6"/>
	<line fill="none" stroke="#000000" x1="183.2" y1="175.4" x2="300.3" y2="242.7"/>
	<line fill="none" stroke="#000000" x1="291.8" y1="260.9" x2="164.9" y2="215"/>
	<line fill="none" stroke="#000000" x1="635.1" y1="385" x2="508.2" y2="339.1"/>
	<line fill="none" stroke="#000000" x1="153.7" y1="257.1" x2="286.7" y2="280.3"/>
	<line fill="none" stroke="#000000" x1="646.3" y1="342.9" x2="513.3" y2="319.7"/>
	<line fill="none" stroke="#000000" x1="650" y1="299.5" x2="515" y2="299.8"/>
	<line fill="none" stroke="#000000" x1="285" y1="300.2" x2="150" y2="300.5"/>
	<line fill="none" stroke="#000000" x1="286.8" y1="320.2" x2="153.9" y2="343.9"/>
	<line fill="none" stroke="#000000" x1="646.1" y1="256.1" x2="513.2" y2="279.8"/>
	<line fill="none" stroke="#000000" x1="292" y1="339.6" x2="165.2" y2="386"/>
	<line fill="none" stroke="#000000" x1="634.8" y1="214" x2="508" y2="260.4"/>
	<line fill="none" stroke="#000000" x1="300.5" y1="357.7" x2="183.7" y2="425.4"/>
	<line fill="none" stroke="#000000" x1="616.3" y1="174.6" x2="499.5" y2="242.3"/>
	<line fill="none" stroke="#000000" x1="312.1" y1="374.1" x2="208.8" y2="461.1"/>
	<line fill="none" stroke="#000000" x1="591.2" y1="138.9" x2="487.9" y2="225.9"/>
	<line fill="none" stroke="#000000" x1="560.3" y1="108.2" x2="473.7" y2="211.8"/>
	<line fill="none" stroke="#000000" x1="326.3" y1="388.2" x2="239.7" y2="491.8"/>
	<line fill="none" stroke="#000000" x1="342.7" y1="399.7" x2="275.4" y2="516.8"/>
	<line fill="none" stroke="#000000" x1="524.6" y1="83.2" x2="457.3" y2="200.3"/>
	<line fill="none" stroke="#000000" x1="485" y1="64.9" x2="439.1" y2="191.8"/>
	<line fill="none" stroke="#000000" x1="360.9" y1="408.2" x2="315" y2="535.1"/>
	<line fill="none" stroke="#000000" x1="380.3" y1="413.3" x2="357.1" y2="546.3"/>
	<line fill="none" stroke="#000000" x1="442.9" y1="53.7" x2="419.7" y2="186.7"/>
</g>
</svg>
