<?xml version="1.0" encoding="utf-8"?>
<!-- Generator: Adobe Illustrator 15.0.0, SVG Export Plug-In . SVG Version: 6.00 Build 0)  -->
<!DOCTYPE svg PUBLIC "-//W3C//DTD SVG 1.1//EN" "http://www.w3.org/Graphics/SVG/1.1/DTD/svg11.dtd">
<svg version="1.1" id="Layer_1" xmlns="http://www.w3.org/2000/svg" xmlns:xlink="http://www.w3.org/1999/xlink" x="0px" y="0px"
	 width="822px" height="567px" viewBox="0 0 822 567" enable-background="new 0 0 822 567" xml:space="preserve">
<g id="Path">
	<path fill="none" stroke="#000000" stroke-miterlimit="10" d="M387,97c104.9,0,190,85.1,190,190c0,104.9-85.1,190-190,190
		c-104.9,0-190-85.1-190-190C197,182.1,282.1,97,387,97z M478,258.4c6.4-9.1,10.3-21.3,10.3-34.7c0-28-17-50.7-38-50.7
		s-38,22.7-38,50.7c0,7.3,1.2,14.3,3.3,20.6c5.801,0.6,11.5,1.3,17.101,2.2c15.6,2.5,30,6.3,42.899,11
		C476.4,257.7,477.2,258,478,258.4z M475.7,376.8c0-3.5-2.8-6.3-6.3-6.3s-6.301,2.8-6.301,6.3c0,0.5,0.101,1,0.2,1.5
		c-22.2,6.601-48.3,10.5-76.2,10.7c-0.8,0-1.699,0-2.5,0c-25.699,0-49.8-3.1-71-8.6c0.101-0.301,0.101-0.7,0.101-1.101
		c0-3.5-2.8-6.3-6.3-6.3c-3.5,0-6.3,2.8-6.3,6.3s2.8,6.3,6.3,6.3c2.1,0,3.899-1,5-2.5c4.199,4.2,55.1,57.2,74.8,57.101
		C409.3,440.1,451.1,396,464.9,381.1c1.199,1.2,2.8,2,4.6,2C472.8,383.1,475.7,380.3,475.7,376.8z M387,344
		c15.7,0,28.5-14.2,28.5-31.7s-28.5-76-28.5-76s-28.5,58.5-28.5,76S371.3,344,387,344z M349,223.7c0-7.1-1.1-13.9-3.1-20
		C340.1,185.7,326.6,173,311,173c-21,0-38,22.7-38,50.7c0,14.6,4.6,27.8,12.1,37c4-1.7,8.1-3.3,12.4-4.7
		c13.3-4.5,28.1-8.1,44.1-10.3c1.301-0.2,2.601-0.4,3.9-0.5C347.7,238.6,349,231.3,349,223.7z"/>
	<path fill="none" stroke="#000000" stroke-miterlimit="10" d="M653,293.3l-44.9,9.601l43,16l-45.6,5.3l41.2,20.1l-45.9,0.8
		l39.101,24l-45.7-3.6l36.6,27.6l-45.2-8l33.801,31l-44.2-12.3L606,438l-42.8-16.5l27.2,37l-41-20.6l23.5,39.399L534,452.9
		l19.6,41.5L517.3,466.3l15.5,43.2L499.4,478l11.199,44.5L480.4,488l6.899,45.4L460.6,496.1l2.5,45.801l-23-39.7L438.2,548.1
		L419,506.3l-6.4,45.4l-15-43.4L387,553l-10.7-44.6l-15,43.399L354.9,506.4l-19,41.6l-1.9-45.9l-23,39.7l2.5-45.8l-26.7,37.3
		l6.9-45.399l-30.2,34.5l11.2-44.5l-33.4,31.5l15.5-43.2l-36.3,28.1l19.6-41.5l-38.8,24.4l23.5-39.4l-41,20.601l27.2-37L168,438
		l30.6-34.2l-44.2,12.3l33.8-31l-45.2,8l36.6-27.6l-45.7,3.6l39.1-24l-45.9-0.8l41.2-20.1l-45.6-5.3l43-16l-44.9-9.601l44.3-11.8
		l-43.7-13.9l45.3-7.5l-42-18.1l45.8-3.1l-40.2-22.1l45.9,1.4l-37.9-25.8l45.5,5.8l-35.2-29.4l44.7,10.2L161,146.4l43.5,14.4
		l-28.9-35.6l42,18.6l-25.4-38.2l40,22.5l-21.6-40.5l37.6,26.3l-17.6-42.4l34.9,29.8l-13.4-43.9l31.8,33l-9.1-45l28.5,35.9
		l-4.7-45.6l24.9,38.5l-0.3-45.9l21.1,40.8l4.2-45.7l17,42.6l8.5-45.1l13,44.2L399.9,21l8.5,45.1l17-42.6l4.199,45.7L450.7,28.4
		l-0.3,45.9L475.3,35.8l-4.7,45.6l28.5-35.9l-9.1,45l31.8-33L508.4,101.4L543.3,71.6L525.8,114L563.4,87.7L541.8,128.2l40-22.5
		L556.4,143.9l42-18.6l-28.9,35.6l43.5-14.4l-32.2,32.6l44.7-10.2l-35.2,29.4l45.5-5.8L597.9,218.3l45.899-1.4L603.5,239l45.8,3.1
		l-42.2,18.1l45.301,7.5l-43.7,13.9L653,293.3z M577,287c0-104.9-85.1-190-190-190c-104.9,0-190,85.1-190,190
		c0,104.9,85.1,190,190,190C491.9,477,577,391.9,577,287z"/>
	<path fill="none" stroke="#000000" stroke-miterlimit="10" d="M488.3,223.7c0,13.4-3.899,25.6-10.3,34.7c-0.8-0.3-1.6-0.6-2.5-0.9
		c4-5.6,6.4-13,6.4-21.1c0-17.5-11.301-31.7-25.301-31.7s-25.3,14.2-25.3,31.7c0,3.5,0.5,6.9,1.3,10.1c-5.5-0.9-11.199-1.6-17.1-2.2
		c-2.1-6.3-3.3-13.2-3.3-20.6c0-28,17-50.7,38-50.7C471.3,173,488.3,195.7,488.3,223.7z"/>
	<path fill="none" stroke="#000000" stroke-miterlimit="10" d="M469.3,370.5c3.5,0,6.3,2.8,6.3,6.3s-2.8,6.3-6.3,6.3
		c-1.8,0-3.399-0.8-4.6-2L463.1,378.2c-0.1-0.5-0.199-1-0.199-1.5C463,373.3,465.8,370.5,469.3,370.5z"/>
	<path fill="none" stroke="#000000" stroke-miterlimit="10" d="M387,389c27.9-0.2,53.9-4.1,76.2-10.7c0.2,0.7,0.5,1.4,0.899,2
		C400.7,435.7,331.7,395.6,312.7,382.5c0.399-0.6,0.6-1.4,0.8-2.1c21.2,5.5,45.3,8.6,71,8.6C385.3,389,386.2,389,387,389z"/>
	<circle fill="none" stroke="#000000" stroke-miterlimit="10" cx="460.5" cy="231.1" r="3.2"/>
	<path fill="none" stroke="#000000" stroke-miterlimit="10" d="M463.6,231.1c0-1.7-1.399-3.2-3.199-3.2c-1.7,0-3.2,1.4-3.2,3.2
		c0,1.7,1.399,3.2,3.2,3.2C462.2,234.3,463.6,232.9,463.6,231.1z M469.3,236.3c0,7-5.7,12.7-12.7,12.7s-12.699-5.7-12.699-12.7
		s5.699-12.7,12.699-12.7C463.7,223.7,469.3,229.3,469.3,236.3z"/>
	<path fill="none" stroke="#000000" stroke-miterlimit="10" d="M475.6,257.4c-12.8-4.7-27.3-8.4-42.899-11
		c-0.9-3.2-1.3-6.6-1.3-10.1c0-17.5,11.3-31.7,25.3-31.7s25.3,14.2,25.3,31.7C482,244.4,479.6,251.8,475.6,257.4z M456.7,249
		c7,0,12.7-5.7,12.7-12.7s-5.7-12.7-12.7-12.7s-12.7,5.7-12.7,12.7S449.7,249,456.7,249z"/>
	<path fill="none" stroke="#000000" stroke-miterlimit="10" d="M415.5,312.3c0,17.5-12.8,31.7-28.5,31.7s-28.5-14.2-28.5-31.7
		s28.5-76,28.5-76S415.5,294.8,415.5,312.3z"/>
	<path fill="none" stroke="#000000" stroke-miterlimit="10" d="M464.1,380.3c0.2,0.3,0.4,0.601,0.7,0.8
		c-13.899,14.9-55.7,59-77.7,59.101c-19.699,0.1-70.6-52.9-74.8-57.101c0.2-0.199,0.3-0.399,0.4-0.699
		C331.7,395.6,400.7,435.7,464.1,380.3z"/>
	<path fill="none" stroke="#000000" stroke-miterlimit="10" d="M345.9,203.7c2,6.1,3.1,12.9,3.1,20c0,7.7-1.3,14.9-3.6,21.5
		c-1.301,0.2-2.601,0.3-3.9,0.5c0.7-3,1.1-6.1,1.1-9.3c0-17.5-11.3-31.7-25.3-31.7S292,218.8,292,236.3c0,7.4,2.1,14.3,5.5,19.7
		c-4.3,1.5-8.4,3-12.4,4.7c-7.4-9.2-12.1-22.4-12.1-37c0-28,17-50.7,38-50.7C326.7,173,340.1,185.6,345.9,203.7z"/>
	<circle fill="none" stroke="#000000" stroke-miterlimit="10" cx="319.9" cy="229.9" r="3.2"/>
	<path fill="none" stroke="#000000" stroke-miterlimit="10" d="M319.9,226.7c-1.7,0-3.2,1.4-3.2,3.2c0,1.7,1.399,3.2,3.2,3.2
		c1.8,0,3.199-1.4,3.199-3.2C323,228.1,321.6,226.7,319.9,226.7z M317.3,223.7c7,0,12.7,5.7,12.7,12.7s-5.7,12.7-12.7,12.7
		s-12.7-5.7-12.7-12.7C304.7,229.3,310.3,223.7,317.3,223.7z"/>
	<path fill="none" stroke="#000000" stroke-miterlimit="10" d="M317.3,249c7,0,12.7-5.7,12.7-12.7s-5.7-12.7-12.7-12.7
		s-12.7,5.7-12.7,12.7C304.7,243.3,310.3,249,317.3,249z M341.5,245.7c-15.9,2.3-30.8,5.8-44.1,10.3c-3.4-5.4-5.5-12.2-5.5-19.7
		c0-17.5,11.3-31.7,25.3-31.7s25.3,14.2,25.3,31.7C342.7,239.6,342.3,242.7,341.5,245.7z"/>
	<path fill="none" stroke="#000000" stroke-miterlimit="10" d="M313.4,380.4l-1.2,2.8c-1.2,1.5-3,2.5-5,2.5c-3.5,0-6.3-2.8-6.3-6.3
		s2.8-6.301,6.3-6.301s6.3,2.801,6.3,6.301C313.5,379.7,313.5,380,313.4,380.4z"/>
</g>
</svg>
