<?xml version="1.0" encoding="utf-8"?>
<!-- Generator: Adobe Illustrator 15.0.0, SVG Export Plug-In . SVG Version: 6.00 Build 0)  -->
<!DOCTYPE svg PUBLIC "-//W3C//DTD SVG 1.1//EN" "http://www.w3.org/Graphics/SVG/1.1/DTD/svg11.dtd">
<svg version="1.1" id="Layer_1" xmlns="http://www.w3.org/2000/svg" xmlns:xlink="http://www.w3.org/1999/xlink" x="0px" y="0px"
	 width="822px" height="567px" viewBox="0 0 822 567" enable-background="new 0 0 822 567" xml:space="preserve">
<title>Radiant sun coloring</title>
<desc>Vector coloring radiant sun. Author Lobaz Roman. In the public domain. Site www.abc-color.com</desc>
<g>
	<polygon fill="#FFFFFF" stroke="#000000" points="411,148.5 463.7,18.7 462.7,158.8 561,59 506.5,188 635.5,133.5 535.7,231.8 
		675.8,230.9 546,283.5 675.8,336.2 535.7,335.2 635.5,433.5 506.5,379 561,508 462.7,408.2 463.7,548.3 411,418.5 358.4,548.3 
		359.3,408.2 261,508 315.5,379 186.5,433.5 286.3,335.2 146.2,336.2 276,283.5 146.2,230.9 286.3,231.8 186.5,133.5 315.5,188 
		261,59 359.3,158.8 358.4,18.7 	"/>
	<polygon fill="#FFFFFF" stroke="#000000" points="411,216 463.7,18.7 436.8,221.1 561,59 458.7,235.8 635.5,133.5 473.4,257.7 
		675.8,230.9 478.5,283.5 675.8,336.2 473.4,309.3 635.5,433.5 458.7,331.2 561,508 436.8,345.9 463.7,548.3 411,351 358.4,548.3 
		385.2,345.9 261,508 363.3,331.2 186.5,433.5 348.6,309.3 146.2,336.2 343.5,283.5 146.2,230.9 348.6,257.7 186.5,133.5 
		363.3,235.8 261,59 385.2,221.1 358.4,18.7 	"/>
	<circle fill="#FFFFFF" stroke="#000000" cx="411" cy="283.5" r="67.5"/>
</g>
</svg>
