<?xml version="1.0" encoding="utf-8"?>
<!-- Generator: Adobe Illustrator 15.0.0, SVG Export Plug-In . SVG Version: 6.00 Build 0)  -->
<!DOCTYPE svg PUBLIC "-//W3C//DTD SVG 1.1//EN" "http://www.w3.org/Graphics/SVG/1.1/DTD/svg11.dtd">
<svg version="1.1" id="Layer_1" xmlns="http://www.w3.org/2000/svg" xmlns:xlink="http://www.w3.org/1999/xlink" x="0px" y="0px"
	 width="822px" height="567px" viewBox="0 0 822 567" enable-background="new 0 0 822 567" xml:space="preserve">
<title>Sun</title>
<desc>Vector coloring sun</desc>
<path fill="#FFFFFF" stroke="#000000" d="M396.1,481.6c-0.1-9.6-0.3-19.1-0.399-28.1c-0.101-4.5-0.101-8.8-0.2-12.9
	c-0.1-4.1-0.2-7.8-0.2-11.399c-0.3-14.3-0.5-23.7-0.5-23.7H394.4c0,0-0.2,9.4-0.5,23.7c-0.101,3.6-0.2,7.399-0.2,11.5
	c-0.101,4.1-0.101,8.399-0.2,12.899c-0.1,9-0.3,18.5-0.4,28c-0.1,4.801-0.199,9.5-0.3,14.2c-0.1,4.7-0.2,9.3-0.2,13.8
	s0,8.801,0.101,12.9c0,2.1,0.1,4,0.1,6c0.101,1.9,0.101,3.8,0.2,5.6c0.1,3.601,0.3,6.9,0.4,9.801c0.199,2.899,0.3,5.399,0.5,7.5
	c0.199,2.1,0.199,4,0.399,5.1c0.101,1.1,0.2,2,0.2,2h0.4c0,0,0.1-0.8,0.199-2c0.101-1.1,0.2-2.9,0.4-5s0.3-4.7,0.5-7.6
	c0.1-2.9,0.3-6.2,0.4-9.801c0.1-1.8,0.1-3.699,0.199-5.6c0-1.9,0.101-3.9,0.101-6c0.1-4.1,0.1-8.4,0.1-12.9
	c-0.1-4.5-0.1-9.1-0.2-13.8C396.3,491.1,396.2,486.4,396.1,481.6z"/>
<path fill="#FFFFFF" stroke="#000000" d="M429.4,549.2c-0.101-2.101-0.301-4.601-0.5-7.5c-0.2-2.9-0.5-6.2-0.801-9.8
	c-0.199-1.801-0.3-3.601-0.5-5.601C427.4,524.4,427.2,522.4,427,520.4c-0.4-4.101-0.9-8.4-1.5-12.801c-0.6-4.399-1.2-9-1.9-13.699
	c-0.699-4.7-1.399-9.4-2.1-14.101c-1.3-9.5-2.7-18.899-4-27.8c-0.6-4.4-1.3-8.7-1.8-12.8c-0.601-4.101-1.2-7.9-1.7-11.4
	c-2.1-14.2-3.5-23.6-3.5-23.6l-0.4,0.1c0,0,1,9.5,2.5,23.8c0.4,3.601,0.801,7.4,1.2,11.5c0.4,4.101,0.9,8.4,1.4,12.801
	c1,8.899,2,18.399,3.1,27.899c0.5,4.7,1,9.5,1.5,14.2s1,9.3,1.5,13.7c0.601,4.399,1.101,8.7,1.8,12.8c0.301,2,0.601,4,0.9,5.9
	c0.3,1.899,0.6,3.8,0.9,5.5c0.6,3.5,1.1,6.8,1.699,9.6c0.5,2.9,1,5.4,1.4,7.4c0.4,2.1,0.7,3.699,1,4.8c0.2,1.1,0.4,1.7,0.4,1.7
	l0.399-0.101c0,0,0-0.6-0.1-1.7C429.6,553,429.5,551.3,429.4,549.2z"/>
<path fill="#FFFFFF" stroke="#000000" d="M462.4,542.9c-0.4-2.101-0.801-4.601-1.4-7.4c-0.6-2.9-1.2-6.1-2-9.6
	c-0.4-1.801-0.8-3.601-1.2-5.5c-0.399-1.9-0.899-3.801-1.3-5.801c-0.9-4-2-8.199-3.1-12.5c-1.2-4.3-2.301-8.8-3.601-13.3
	s-2.5-9.1-3.8-13.7c-2.5-9.199-5-18.399-7.4-27.1c-1.199-4.3-2.3-8.5-3.399-12.4c-1.101-4-2.101-7.699-3.101-11.1
	c-3.8-13.8-6.399-23-6.399-23l-0.4,0.1c0,0,2.2,9.301,5.4,23.301c0.8,3.5,1.7,7.3,2.6,11.3c1,4,2,8.2,3,12.6
	c2.101,8.7,4.3,18,6.5,27.3c1.101,4.601,2.2,9.301,3.3,13.9c1,4.6,2.2,9.1,3.2,13.4c1.101,4.3,2.2,8.5,3.4,12.5
	c0.6,2,1.1,3.899,1.6,5.8c0.5,1.899,1.101,3.6,1.601,5.399c1,3.4,2,6.601,2.8,9.4c0.899,2.8,1.7,5.2,2.3,7.2c0.7,2,1.2,3.6,1.5,4.6
	c0.4,1.101,0.6,1.601,0.6,1.601l0.4-0.101c0,0-0.1-0.6-0.3-1.7C463.1,546.6,462.8,544.9,462.4,542.9z"/>
<path fill="#FFFFFF" stroke="#000000" d="M494.5,532.3c-0.6-2-1.4-4.399-2.3-7.2c-0.9-2.8-2-5.899-3.2-9.199
	c-0.6-1.7-1.2-3.4-1.9-5.301c-0.699-1.8-1.399-3.699-2.1-5.6c-1.4-3.9-3-7.9-4.6-12.1c-1.7-4.101-3.4-8.4-5.301-12.801
	c-1.8-4.3-3.699-8.699-5.5-13.1c-3.699-8.8-7.3-17.6-10.699-25.9c-1.7-4.1-3.4-8.1-5-11.899c-1.601-3.8-3.101-7.4-4.5-10.7
	c-5.601-13.2-9.301-22-9.301-22l-0.399,0.1c0,0,3.3,8.9,8.3,22.4c1.2,3.4,2.6,7,4,10.8s3,7.9,4.5,12.101
	c3.2,8.399,6.5,17.3,9.9,26.199c1.699,4.5,3.3,8.9,5,13.301c1.6,4.399,3.3,8.699,4.899,12.899c1.7,4.2,3.3,8.2,4.9,11.9
	c0.8,1.899,1.6,3.7,2.3,5.5c0.8,1.8,1.5,3.5,2.2,5.1c1.399,3.3,2.8,6.3,4,8.9c1.2,2.6,2.3,4.899,3.2,6.8c0.899,1.9,1.6,3.4,2.1,4.4
	s0.8,1.5,0.8,1.5l0.4-0.101c0,0-0.2-0.6-0.5-1.7C495.6,535.9,495.1,534.3,494.5,532.3z"/>
<path fill="#FFFFFF" stroke="#000000" d="M525,517.9c-0.9-1.9-2-4.2-3.2-6.801c-1.3-2.6-2.7-5.6-4.3-8.8c-0.8-1.6-1.7-3.3-2.5-5
	c-0.9-1.7-1.8-3.5-2.8-5.3c-1.9-3.6-3.9-7.5-6.101-11.4c-2.199-3.899-4.5-7.899-6.8-12c-2.3-4.1-4.7-8.199-7.1-12.399
	c-4.7-8.3-9.5-16.601-13.9-24.4c-2.2-3.899-4.399-7.6-6.399-11.2c-2.101-3.6-4-6.899-5.801-10C458.9,398.2,454.2,389.9,454.2,389.9
	l-0.3,0.199c0,0,4.399,8.5,11.1,21.2c1.7,3.2,3.5,6.601,5.4,10.3c1.899,3.601,3.899,7.5,6,11.4c4.199,7.9,8.699,16.4,13.1,24.8
	c2.2,4.2,4.4,8.5,6.6,12.601c2.2,4.199,4.4,8.199,6.5,12.199c2.2,3.9,4.301,7.7,6.4,11.2c1,1.8,2,3.5,3,5.2s1.9,3.3,2.9,4.8
	c1.8,3.101,3.6,5.9,5.1,8.4s2.9,4.6,4,6.399c1.1,1.801,2,3.101,2.6,4.101c0.601,0.899,1,1.399,1,1.399l0.301-0.199
	c0,0-0.2-0.5-0.7-1.601C526.6,521.3,525.9,519.8,525,517.9z"/>
<path fill="#FFFFFF" stroke="#000000" d="M553.4,499.8c-1.101-1.8-2.5-3.899-4.101-6.399c-1.6-2.4-3.399-5.2-5.399-8.2
	c-1-1.5-2-3-3.101-4.601c-1.1-1.6-2.2-3.199-3.399-4.899c-2.301-3.4-4.801-6.9-7.5-10.5c-2.7-3.601-5.4-7.3-8.301-11
	c-2.8-3.7-5.699-7.601-8.6-11.4c-5.7-7.6-11.5-15.3-16.8-22.399c-2.7-3.601-5.3-7-7.8-10.301c-2.5-3.3-4.801-6.399-7-9.199
	c-8.7-11.4-14.4-19-14.4-19l-0.3,0.199c0,0,5.5,7.801,13.6,19.601c2,2.899,4.3,6.1,6.601,9.5c2.399,3.399,4.8,6.899,7.399,10.6
	c5.101,7.3,10.601,15.101,16.101,23c2.699,3.9,5.5,7.8,8.199,11.7c2.7,3.9,5.4,7.6,7.9,11.3c2.6,3.601,5.2,7.101,7.7,10.4
	c1.2,1.6,2.5,3.2,3.6,4.8c1.2,1.5,2.3,3,3.4,4.4c2.2,2.8,4.3,5.399,6.1,7.699c1.8,2.301,3.5,4.2,4.8,5.801
	c1.4,1.6,2.4,2.899,3.101,3.699c0.7,0.801,1.1,1.301,1.1,1.301l0.3-0.2c0,0-0.3-0.5-0.899-1.5C555.4,502.9,554.5,501.6,553.4,499.8z
	"/>
<path fill="#FFFFFF" stroke="#000000" d="M579.3,478.2c-1.3-1.601-2.899-3.601-4.8-5.8c-1.9-2.2-4-4.7-6.4-7.4
	c-1.199-1.3-2.399-2.8-3.699-4.2c-1.301-1.399-2.601-2.899-4-4.5c-2.7-3.1-5.7-6.2-8.7-9.5c-3.101-3.2-6.3-6.6-9.601-9.899
	c-3.3-3.4-6.6-6.801-10-10.2c-6.6-6.9-13.3-13.7-19.5-20.101c-3.1-3.199-6.1-6.3-9-9.3c-2.899-2.899-5.6-5.7-8.1-8.3
	c-10-10.2-16.7-17.1-16.7-17.1l-0.3,0.3c0,0,6.4,7.1,16,17.7c2.4,2.699,5,5.5,7.7,8.6c2.8,3,5.7,6.2,8.7,9.6
	c6,6.601,12.5,13.7,18.899,20.801c3.2,3.5,6.4,7.1,9.601,10.6c3.1,3.5,6.3,6.9,9.3,10.2c3.1,3.3,6.1,6.399,8.899,9.3
	c1.4,1.5,2.801,2.9,4.2,4.3c1.4,1.4,2.7,2.7,4,3.9c2.5,2.5,4.9,4.8,7,6.8c2.101,2,4,3.8,5.5,5.2c1.5,1.399,2.7,2.5,3.601,3.3
	c0.8,0.7,1.3,1.1,1.3,1.1l0.3-0.3c0,0-0.4-0.5-1.1-1.399C581.7,481.1,580.6,479.8,579.3,478.2z"/>
<path fill="#FFFFFF" stroke="#000000" d="M602.3,453.5c-1.5-1.5-3.399-3.2-5.5-5.2c-2.1-2-4.6-4.2-7.3-6.6c-1.3-1.2-2.7-2.4-4.2-3.7
	s-3-2.6-4.5-3.9c-3.1-2.699-6.399-5.5-9.8-8.3c-3.5-2.8-7.1-5.7-10.8-8.6c-3.7-2.9-7.4-5.9-11.2-8.9c-7.5-6-14.9-11.899-21.9-17.5
	c-3.5-2.8-6.899-5.5-10.1-8.1c-3.2-2.5-6.3-5-9.1-7.2c-11.2-8.9-18.7-14.8-18.7-14.8l-0.3,0.3c0,0,7.199,6.2,18.1,15.6
	c2.7,2.301,5.6,4.9,8.8,7.601c3.101,2.7,6.4,5.5,9.8,8.399c6.801,5.801,14.101,12,21.301,18.2c3.6,3.101,7.199,6.2,10.8,9.3
	c3.5,3.101,7.1,6.101,10.5,9c3.5,2.801,6.8,5.601,10,8.101c1.6,1.3,3.2,2.5,4.7,3.7c1.5,1.199,3,2.3,4.399,3.399
	c2.8,2.2,5.5,4.2,7.8,5.9c2.301,1.7,4.4,3.2,6.101,4.399c1.7,1.2,3,2.2,4,2.801c0.899,0.6,1.399,1,1.399,1l0.301-0.301
	c0,0-0.4-0.399-1.2-1.199C605,456.1,603.8,455,602.3,453.5z"/>
<path fill="#FFFFFF" stroke="#000000" d="M622,426.2c-1.7-1.3-3.7-2.7-6.1-4.4c-2.4-1.7-5.101-3.6-8-5.6c-1.5-1-3-2.101-4.601-3.2
	c-1.6-1.1-3.3-2.2-5-3.3c-3.399-2.3-7-4.601-10.8-7c-3.8-2.4-7.7-4.8-11.8-7.2c-4-2.4-8.101-4.9-12.2-7.4c-8.1-5-16.3-10-23.9-14.6
	c-3.8-2.3-7.5-4.6-11-6.7c-3.5-2.1-6.8-4.1-9.899-6c-12.3-7.399-20.4-12.399-20.4-12.399l-0.2,0.3c0,0,8,5.3,19.9,13.2
	c3,2,6.2,4.1,9.6,6.399c3.4,2.3,7,4.601,10.801,7.101c7.5,4.899,15.5,10.199,23.399,15.399c4,2.601,8,5.3,11.9,7.9
	c3.899,2.6,7.8,5.1,11.5,7.6c3.8,2.4,7.5,4.7,11,6.8c1.8,1.101,3.5,2.101,5.1,3.101c1.7,1,3.3,1.899,4.8,2.8
	c3.101,1.8,5.9,3.4,8.5,4.9c2.5,1.399,4.801,2.699,6.601,3.6c1.8,1,3.3,1.8,4.3,2.3s1.5,0.8,1.5,0.8l0.2-0.3c0,0-0.5-0.399-1.4-1
	C625,428.4,623.7,427.4,622,426.2z"/>
<path fill="#FFFFFF" stroke="#000000" d="M638.2,396.7c-1.8-1-4.101-2.3-6.601-3.601c-2.6-1.399-5.5-2.899-8.699-4.5
	c-1.601-0.8-3.301-1.699-5-2.6c-1.7-0.9-3.5-1.8-5.301-2.7c-3.699-1.8-7.6-3.7-11.6-5.6c-4.1-1.9-8.3-3.8-12.6-5.7
	c-4.301-1.9-8.601-3.9-13-5.8c-8.7-3.9-17.4-7.9-25.601-11.5c-4.1-1.8-8-3.601-11.8-5.3c-3.7-1.7-7.3-3.2-10.6-4.7
	c-13.101-5.8-21.8-9.7-21.8-9.7l-0.2,0.4c0,0,8.6,4.199,21.399,10.6c3.2,1.6,6.7,3.3,10.4,5.1c3.7,1.801,7.6,3.7,11.6,5.7
	c8,3.9,16.601,8.101,25.2,12.3c4.3,2.101,8.601,4.2,12.8,6.301c4.2,2.1,8.4,4.1,12.4,6.1c4.1,1.9,8,3.7,11.7,5.4
	c1.899,0.8,3.7,1.6,5.5,2.399s3.5,1.5,5.1,2.2c3.3,1.4,6.3,2.7,9,3.8c2.7,1.101,5.101,2,7,2.8c2,0.801,3.5,1.4,4.5,1.7
	c1.101,0.4,1.601,0.601,1.601,0.601l0.199-0.4c0,0-0.5-0.3-1.5-0.9C641.4,398.5,640,397.7,638.2,396.7z"/>
<path fill="#FFFFFF" stroke="#000000" d="M650.5,365.3c-1.9-0.8-4.3-1.7-7-2.8c-2.7-1-5.8-2.2-9.2-3.4c-1.7-0.6-3.399-1.3-5.3-1.899
	c-1.8-0.601-3.7-1.3-5.6-2c-3.9-1.4-8-2.7-12.2-4.101c-4.3-1.3-8.7-2.699-13.2-4.1s-9.1-2.8-13.6-4.1
	C575.3,340.1,566.1,337.3,557.6,334.6c-4.3-1.3-8.399-2.6-12.3-3.8c-3.899-1.2-7.6-2.3-11.1-3.3c-13.7-4.1-22.9-6.9-22.9-6.9
	l-0.1,0.4c0,0,9,3.1,22.6,7.9c3.4,1.199,7,2.5,10.9,3.8c3.899,1.3,8,2.7,12.2,4.2c8.5,2.899,17.5,6,26.5,9.1c4.5,1.6,9,3.1,13.5,4.7
	c4.399,1.6,8.8,3,13.1,4.5c4.3,1.399,8.4,2.7,12.3,3.8c2,0.6,3.9,1.2,5.7,1.7c1.9,0.5,3.7,1,5.4,1.5c3.399,1,6.6,1.8,9.399,2.6
	s5.3,1.4,7.3,1.9s3.601,0.899,4.7,1.2c1.101,0.3,1.7,0.399,1.7,0.399l0.1-0.399c0,0-0.6-0.2-1.6-0.7S652.5,366.1,650.5,365.3z"/>
<path fill="#FFFFFF" stroke="#000000" d="M658.9,332.6c-2-0.5-4.5-1.199-7.301-1.899c-2.8-0.7-6-1.5-9.5-2.3
	c-1.699-0.4-3.6-0.801-5.5-1.2c-1.899-0.4-3.8-0.8-5.8-1.3c-4-0.9-8.3-1.7-12.7-2.601c-4.399-0.8-9-1.6-13.6-2.399
	c-4.6-0.801-9.3-1.601-14.1-2.4c-9.4-1.6-18.801-3.3-27.601-4.8c-4.399-0.8-8.7-1.5-12.7-2.2s-7.899-1.3-11.399-1.9
	c-14.101-2.399-23.601-4-23.601-4L515,306c0,0,9.3,2,23.4,5c3.5,0.7,7.3,1.6,11.3,2.4c4,0.8,8.3,1.699,12.6,2.6
	c8.8,1.8,18.101,3.8,27.5,5.7c4.7,1,9.3,2,13.9,2.899c4.6,1,9.1,1.9,13.5,2.801c4.4,0.8,8.7,1.6,12.7,2.3c2,0.3,4,0.7,5.899,1
	c1.9,0.3,3.801,0.6,5.5,0.899c3.5,0.601,6.801,1,9.7,1.4c2.9,0.4,5.4,0.7,7.5,1c2.101,0.2,3.7,0.5,4.8,0.6
	c1.101,0.101,1.7,0.2,1.7,0.2l0.101-0.399c0,0-0.601-0.2-1.7-0.5C662.5,333.6,660.9,333.2,658.9,332.6z"/>
<path fill="#FFFFFF" stroke="#000000" d="M663,299.2c-2.1-0.3-4.6-0.601-7.5-0.9s-6.2-0.7-9.7-1c-1.8-0.2-3.6-0.399-5.6-0.5
	c-1.9-0.2-3.9-0.3-6-0.5c-4.101-0.399-8.4-0.7-12.9-1c-4.5-0.2-9.1-0.5-13.8-0.7c-4.7-0.199-9.5-0.399-14.2-0.6
	c-9.5-0.5-19.1-0.9-28-1.3c-4.5-0.2-8.8-0.4-12.899-0.601c-4.101-0.199-8-0.3-11.601-0.5c-14.3-0.6-23.899-1-23.899-1v0.4
	c0,0,9.5,0.8,23.8,2c3.6,0.3,7.399,0.6,11.5,1c4.1,0.3,8.399,0.7,12.899,1c8.9,0.7,18.5,1.5,28,2.2c4.801,0.399,9.5,0.8,14.2,1.2
	c4.7,0.399,9.3,0.699,13.8,1.1c4.5,0.3,8.801,0.5,12.9,0.7c2.1,0.1,4,0.2,6,0.2c1.9,0.1,3.8,0.1,5.6,0.199
	c3.601,0.101,6.9,0.101,9.801,0.201c2.899,0,5.5,0,7.6,0s3.7,0,4.9,0c1.1,0,1.699,0,1.699,0v-0.4c0,0-0.6-0.1-1.699-0.301
	C666.7,299.7,665,299.5,663,299.2z"/>
<path fill="#FFFFFF" stroke="#000000" d="M655.3,265.4c-2.899,0-6.2,0.1-9.8,0.2c-1.8,0.1-3.7,0.1-5.6,0.2c-1.9,0.1-3.9,0.2-6,0.2
	c-4.101,0.1-8.4,0.4-12.9,0.7c-4.5,0.3-9.1,0.7-13.8,1.1c-4.7,0.4-9.4,0.8-14.2,1.2c-9.5,0.8-19,1.5-28,2.2c-4.5,0.4-8.8,0.7-12.9,1
	c-4.1,0.3-8,0.7-11.5,1c-14.3,1.2-23.8,2-23.8,2v0.4c0,0,9.5-0.4,23.9-1c3.6-0.2,7.5-0.3,11.6-0.5c4.101-0.2,8.4-0.4,12.9-0.6
	c8.899-0.4,18.5-0.9,28-1.3c4.8-0.2,9.5-0.4,14.2-0.6c4.699-0.2,9.3-0.4,13.8-0.7c4.5-0.3,8.8-0.6,12.899-1c2-0.2,4-0.4,6-0.5
	c1.9-0.2,3.801-0.4,5.601-0.5c3.6-0.3,6.8-0.7,9.7-1c2.899-0.3,5.399-0.6,7.5-0.9c2.1-0.3,3.699-0.5,4.8-0.7
	c1.1-0.2,1.7-0.3,1.7-0.3v-0.4c0,0-0.601,0-1.7,0c-1.101,0-2.8,0-4.9,0C660.8,265.4,658.2,265.4,655.3,265.4z"/>
<path fill="#FFFFFF" stroke="#000000" d="M641.4,234.3c-1.801,0.3-3.601,0.6-5.5,0.9c-1.9,0.3-3.9,0.6-5.9,1
	c-4.1,0.7-8.3,1.4-12.7,2.3c-4.399,0.9-8.899,1.8-13.5,2.8c-4.6,1-9.3,2-13.899,2.9c-9.4,1.9-18.7,3.9-27.5,5.7
	c-4.4,0.9-8.601,1.8-12.601,2.6c-4,0.9-7.8,1.7-11.3,2.4c-14,3-23.4,5-23.4,5l0.101,0.4c0,0,9.399-1.6,23.6-4
	c3.5-0.6,7.4-1.2,11.4-1.9c4-0.7,8.3-1.4,12.7-2.2c8.8-1.5,18.199-3.2,27.6-4.8c4.7-0.8,9.4-1.6,14.1-2.4
	c4.601-0.8,9.2-1.6,13.601-2.4c4.399-0.8,8.6-1.7,12.7-2.6c2-0.4,4-0.9,5.8-1.3c1.899-0.4,3.7-0.8,5.5-1.2c3.5-0.8,6.7-1.6,9.5-2.3
	c2.8-0.7,5.3-1.3,7.3-1.9c2-0.5,3.6-0.9,4.7-1.3c1.1-0.3,1.7-0.5,1.7-0.5l-0.101-0.4c0,0-0.6,0.1-1.7,0.2
	c-1.1,0.1-2.699,0.3-4.8,0.6c-2.1,0.2-4.6,0.6-7.5,1C648.2,233.3,645,233.8,641.4,234.3z"/>
<path fill="#FFFFFF" stroke="#000000" d="M633.4,203.9c-1.7,0.5-3.5,1-5.4,1.5c-1.9,0.6-3.8,1.1-5.7,1.7
	c-3.899,1.2-8.1,2.5-12.3,3.8c-4.2,1.4-8.6,2.9-13.1,4.5c-4.4,1.5-9,3.1-13.5,4.7c-9,3.1-18.101,6.2-26.5,9.1
	c-4.2,1.5-8.301,2.9-12.2,4.2c-3.9,1.4-7.5,2.6-10.9,3.8c-13.5,4.7-22.6,7.9-22.6,7.9l0.1,0.4c0,0,9.101-2.8,22.9-6.9
	c3.399-1,7.1-2.2,11.1-3.3c3.9-1.2,8.101-2.5,12.3-3.8c8.601-2.6,17.7-5.4,26.801-8.3c4.6-1.4,9.1-2.8,13.6-4.1
	c4.5-1.3,8.9-2.7,13.2-4.1s8.399-2.8,12.2-4.1c1.899-0.7,3.8-1.3,5.6-2c1.8-0.7,3.6-1.3,5.3-1.9c3.4-1.2,6.4-2.4,9.2-3.4
	c2.7-1,5.1-2,7-2.8c1.9-0.8,3.5-1.4,4.5-1.8s1.6-0.7,1.6-0.7l-0.1-0.4c0,0-0.6,0.1-1.7,0.4c-1.1,0.2-2.7,0.7-4.7,1.2
	s-4.5,1.1-7.3,1.9C640,202,636.8,202.9,633.4,203.9z"/>
<path fill="#FFFFFF" stroke="#000000" d="M616.4,176.8c-1.801,0.8-3.601,1.6-5.5,2.4c-3.801,1.6-7.7,3.5-11.7,5.4
	c-4,2-8.2,4-12.4,6.1c-4.2,2.1-8.5,4.2-12.8,6.3c-8.6,4.2-17.1,8.4-25.2,12.3c-4,2-7.899,3.9-11.6,5.7s-7.2,3.5-10.4,5.1
	c-12.8,6.4-21.399,10.6-21.399,10.6l0.199,0.4c0,0,8.7-3.9,21.801-9.7c3.3-1.5,6.8-3,10.6-4.7c3.7-1.7,7.7-3.5,11.8-5.3
	c8.2-3.7,16.9-7.6,25.601-11.5c4.399-1.9,8.699-3.9,13-5.8c4.3-1.9,8.5-3.8,12.6-5.7c4-1.9,7.9-3.8,11.6-5.6
	c1.801-0.9,3.601-1.8,5.301-2.7c1.699-0.9,3.399-1.7,5-2.6c3.199-1.6,6.1-3.2,8.699-4.6c2.601-1.4,4.801-2.6,6.601-3.6
	s3.3-1.8,4.2-2.4c1-0.6,1.5-0.9,1.5-0.9l-0.2-0.4c0,0-0.601,0.2-1.601,0.6c-1.1,0.4-2.6,1-4.5,1.7c-2,0.7-4.3,1.7-7,2.8
	c-2.699,1.1-5.699,2.4-9,3.8C619.9,175.3,618.2,176.1,616.4,176.8z"/>
<path fill="#FFFFFF" stroke="#000000" d="M601.3,150c-1.7,1-3.399,2-5.1,3.1c-3.5,2.1-7.2,4.4-11,6.8s-7.601,4.9-11.5,7.6
	c-3.9,2.6-7.9,5.2-11.9,7.9c-8,5.2-16,10.5-23.399,15.4c-3.7,2.5-7.4,4.8-10.801,7.1c-3.399,2.3-6.6,4.4-9.6,6.4
	c-11.9,7.9-19.9,13.2-19.9,13.2l0.2,0.3c0,0,8.2-4.9,20.4-12.4c3.1-1.9,6.399-3.9,9.899-6s7.2-4.4,11-6.7
	c7.601-4.7,15.801-9.7,23.9-14.6c4.1-2.5,8.2-5,12.2-7.4c4-2.4,8-4.9,11.8-7.2c3.8-2.4,7.4-4.7,10.8-7c1.7-1.1,3.4-2.2,5-3.3
	c1.601-1.1,3.101-2.1,4.601-3.2c3-2,5.6-3.9,8-5.6c2.399-1.7,4.399-3.2,6.1-4.4s3-2.2,3.9-2.9c0.899-0.7,1.399-1,1.399-1l-0.2-0.3
	c0,0-0.5,0.3-1.5,0.8s-2.399,1.3-4.3,2.3c-1.8,1-4.1,2.2-6.6,3.6s-5.4,3.1-8.5,4.9C604.6,148,603,149,601.3,150z"/>
<path fill="#FFFFFF" stroke="#000000" d="M578.4,128.9c-3.2,2.5-6.601,5.3-10,8.1c-3.4,2.9-7,5.9-10.5,9
	c-3.601,3.1-7.2,6.2-10.801,9.3c-7.3,6.2-14.5,12.4-21.3,18.2c-3.399,2.9-6.7,5.7-9.8,8.4c-3.1,2.7-6,5.2-8.8,7.6
	c-10.8,9.4-18.101,15.6-18.101,15.6l0.301,0.3c0,0,7.5-5.9,18.699-14.8c2.801-2.2,5.801-4.6,9.101-7.2c3.2-2.6,6.6-5.3,10.1-8.1
	c7-5.6,14.4-11.6,21.9-17.5c3.7-3,7.5-5.9,11.2-8.9c3.699-2.9,7.3-5.8,10.8-8.6c3.399-2.9,6.8-5.6,9.8-8.3c1.5-1.3,3.1-2.7,4.5-3.9
	c1.4-1.3,2.8-2.5,4.2-3.7c2.7-2.4,5.1-4.6,7.3-6.6c2.1-2,4-3.7,5.5-5.2c1.5-1.4,2.7-2.6,3.5-3.4c0.8-0.8,1.2-1.2,1.2-1.2l-0.3-0.3
	c0,0-0.5,0.3-1.4,1c-0.9,0.6-2.3,1.6-4,2.8s-3.8,2.7-6.1,4.4c-2.301,1.7-5,3.7-7.801,5.9c-1.399,1.1-2.899,2.2-4.399,3.4
	C581.5,126.4,580,127.6,578.4,128.9z"/>
<path fill="#FFFFFF" stroke="#000000" d="M539.3,126.5c-3.2,3.5-6.399,7-9.6,10.6c-6.4,7.1-12.9,14.1-18.9,20.8
	c-3,3.3-5.899,6.5-8.7,9.6c-2.699,3.1-5.3,5.9-7.699,8.6c-9.601,10.6-16,17.7-16,17.7l0.3,0.3c0,0,6.7-6.8,16.7-17.1
	c2.5-2.6,5.199-5.3,8.1-8.3c2.9-2.9,5.9-6,9-9.3c6.2-6.4,12.9-13.3,19.5-20.1c3.3-3.4,6.7-6.8,10-10.2c3.3-3.3,6.5-6.7,9.6-9.9
	c3.101-3.3,6-6.4,8.7-9.5c1.4-1.5,2.7-3,4-4.5s2.5-2.9,3.7-4.2c2.4-2.7,4.5-5.2,6.4-7.4c1.899-2.2,3.5-4.2,4.8-5.8
	c1.3-1.6,2.399-2.9,3.1-3.8s1.101-1.4,1.101-1.4l-0.301-0.3c0,0-0.399,0.4-1.3,1.1c-0.8,0.7-2,1.9-3.6,3.3c-1.5,1.4-3.4,3.2-5.5,5.2
	c-2.101,2-4.5,4.3-7,6.8c-1.3,1.3-2.601,2.6-4,3.9c-1.4,1.4-2.8,2.8-4.2,4.3c-2.9,2.9-5.9,6-8.9,9.3
	C545.6,119.6,542.5,123,539.3,126.5z"/>
<path fill="#FFFFFF" stroke="#000000" d="M518.6,109.7c-2.699,3.9-5.399,7.8-8.199,11.7c-5.5,7.8-11,15.6-16.101,23
	c-2.6,3.7-5.1,7.2-7.399,10.6c-2.301,3.4-4.601,6.6-6.601,9.5c-8.2,11.8-13.6,19.6-13.6,19.6l0.3,0.2c0,0,5.8-7.6,14.4-19
	c2.199-2.9,4.5-5.9,7-9.2c2.5-3.3,5.1-6.7,7.8-10.3c5.399-7.2,11.1-14.8,16.8-22.4c2.9-3.8,5.8-7.6,8.6-11.4
	c2.9-3.7,5.601-7.5,8.301-11c2.6-3.6,5.1-7.1,7.5-10.5c1.199-1.7,2.3-3.3,3.399-4.9C541.9,84,542.9,82.5,543.9,81
	c2-3,3.8-5.7,5.399-8.2c1.601-2.4,3-4.6,4.101-6.4c1.1-1.8,2-3.2,2.6-4.1c0.6-1,0.9-1.5,0.9-1.5l-0.301-0.2c0,0-0.399,0.5-1.1,1.3
	c-0.7,0.8-1.8,2.1-3.1,3.7c-1.4,1.6-3,3.6-4.801,5.8c-1.8,2.3-3.899,4.8-6.1,7.7c-1.1,1.4-2.3,2.9-3.4,4.4
	c-1.199,1.5-2.399,3.1-3.6,4.8c-2.5,3.3-5.1,6.7-7.7,10.4C524,102,521.3,105.8,518.6,109.7z"/>
<path fill="#FFFFFF" stroke="#000000" d="M489.3,108.2c-4.5,8.4-8.899,16.9-13.1,24.8c-2.101,4-4.101,7.8-6,11.4
	c-1.9,3.6-3.7,7.1-5.4,10.3c-6.6,12.7-11.1,21.2-11.1,21.2l0.3,0.2c0,0,4.8-8.3,11.9-20.7c1.8-3.1,3.699-6.5,5.8-10
	c2-3.6,4.2-7.3,6.399-11.2c4.4-7.8,9.2-16.1,13.9-24.4c2.4-4.1,4.8-8.3,7.1-12.4c2.4-4.1,4.601-8.1,6.801-12
	c2.199-3.9,4.199-7.7,6.1-11.4c0.9-1.8,1.9-3.6,2.8-5.3c0.9-1.7,1.7-3.4,2.5-5c1.601-3.2,3.101-6.2,4.3-8.8
	c1.301-2.6,2.4-4.9,3.2-6.8c0.9-1.9,1.601-3.4,2-4.4c0.5-1,0.7-1.6,0.7-1.6l-0.3-0.2c0,0-0.3,0.5-1,1.4
	c-0.601,0.9-1.5,2.3-2.601,4.1c-1.1,1.8-2.5,3.9-4,6.4s-3.3,5.3-5.1,8.4c-0.9,1.5-1.9,3.1-2.9,4.8s-2,3.4-3,5.2
	c-2.1,3.5-4.199,7.3-6.399,11.2c-2.101,3.9-4.3,8-6.5,12.2C493.8,99.7,491.5,103.9,489.3,108.2z"/>
<path fill="#FFFFFF" stroke="#000000" d="M452.2,136.1c-1.4,3.8-2.8,7.5-4,10.8c-5,13.4-8.3,22.4-8.3,22.4l0.399,0.1
	c0,0,3.7-8.8,9.3-22c1.4-3.3,2.9-6.9,4.5-10.7c1.601-3.8,3.2-7.8,5-11.9c3.4-8.3,7.101-17.1,10.7-25.9c1.8-4.4,3.7-8.8,5.5-13.1
	c1.8-4.3,3.601-8.6,5.3-12.8c1.601-4.2,3.2-8.2,4.601-12.1c0.7-1.9,1.399-3.8,2.1-5.6c0.601-1.8,1.3-3.6,1.9-5.3
	c1.2-3.4,2.3-6.5,3.2-9.2c0.899-2.8,1.699-5.2,2.3-7.2c0.6-2,1.1-3.6,1.5-4.6c0.3-1.1,0.5-1.7,0.5-1.7l-0.4-0.1c0,0-0.3,0.5-0.8,1.5
	s-1.2,2.5-2.1,4.4c-0.9,1.9-2,4.2-3.2,6.8c-1.2,2.7-2.601,5.6-4,8.9c-0.7,1.6-1.5,3.4-2.2,5.1c-0.8,1.8-1.5,3.6-2.3,5.5
	c-1.601,3.8-3.2,7.8-4.9,11.9c-1.6,4.2-3.3,8.5-4.899,12.9c-1.601,4.4-3.301,8.9-5,13.3c-3.4,8.9-6.801,17.9-9.9,26.2
	C455.1,128.2,453.6,132.2,452.2,136.1z"/>
<path fill="#FFFFFF" stroke="#000000" d="M425.6,164.6c0,0,2.601-9.2,6.4-23c1-3.5,2-7.2,3.1-11.1c1.101-4,2.2-8.1,3.4-12.4
	c2.4-8.6,4.9-17.9,7.4-27.1c1.3-4.6,2.6-9.2,3.8-13.7c1.3-4.5,2.5-9,3.6-13.3c1.101-4.3,2.2-8.5,3.101-12.5c0.5-2,0.899-3.9,1.3-5.8
	c0.399-1.9,0.8-3.7,1.2-5.5c0.8-3.5,1.399-6.7,2-9.6c0.6-2.9,1.1-5.4,1.399-7.4c0.4-2.1,0.7-3.7,0.9-4.8s0.3-1.7,0.3-1.7l-0.4-0.1
	c0,0-0.199,0.6-0.6,1.6c-0.4,1.1-0.9,2.6-1.5,4.6c-0.7,2-1.5,4.4-2.3,7.2c-0.9,2.8-1.8,5.9-2.8,9.4c-0.5,1.7-1,3.5-1.601,5.4
	c-0.5,1.9-1.1,3.8-1.6,5.8c-1.101,3.9-2.2,8.1-3.4,12.5c-1.1,4.3-2.2,8.8-3.2,13.4c-1.1,4.6-2.199,9.2-3.3,13.9
	c-2.2,9.3-4.5,18.6-6.5,27.3c-1,4.4-2,8.6-3,12.6c-0.899,4-1.8,7.8-2.6,11.3c-3.3,14-5.4,23.3-5.4,23.3L425.6,164.6z"/>
<path fill="#FFFFFF" stroke="#000000" d="M410.5,161.8c0,0,1.4-9.5,3.5-23.6c0.5-3.5,1.1-7.4,1.7-11.4c0.6-4.1,1.2-8.3,1.8-12.8
	c1.3-8.9,2.6-18.3,4-27.8c0.7-4.7,1.4-9.5,2.1-14.1c0.7-4.6,1.301-9.2,1.9-13.7c0.6-4.4,1.1-8.7,1.5-12.8c0.2-2,0.4-4,0.6-5.9
	c0.2-1.9,0.301-3.8,0.5-5.6c0.301-3.6,0.601-6.8,0.801-9.8c0.199-2.9,0.399-5.4,0.5-7.5c0.1-2.1,0.199-3.7,0.3-4.9
	c0-1.1,0.1-1.7,0.1-1.7H429.4c0,0-0.101,0.6-0.4,1.7c-0.2,1.1-0.5,2.7-1,4.8c-0.4,2.1-0.9,4.6-1.4,7.4c-0.5,2.9-1.1,6.1-1.699,9.6
	c-0.301,1.8-0.601,3.6-0.9,5.5c-0.3,1.9-0.6,3.9-0.9,5.9c-0.6,4.1-1.199,8.3-1.8,12.8c-0.5,4.4-1.1,9-1.5,13.7
	c-0.5,4.7-1,9.4-1.5,14.2c-1.1,9.5-2.1,19-3.1,27.9c-0.5,4.5-1,8.8-1.4,12.8c-0.399,4.1-0.8,7.9-1.2,11.5
	c-1.5,14.3-2.5,23.8-2.5,23.8H410.5z"/>
<path fill="#FFFFFF" stroke="#000000" d="M392.9,84.4c0.1,9.6,0.3,19.1,0.399,28.1c0.101,4.5,0.101,8.8,0.2,12.9s0.2,8.3,0.2,11.9
	c0.3,14.3,0.5,24.2,0.5,24.2h0.399c0,0,0.2-9.9,0.5-24.2c0.101-3.6,0.2-7.6,0.2-11.7c0.101-4.1,0.101-8.5,0.2-13
	c0.1-9,0.3-18.5,0.4-28.1c0.1-4.8,0.199-9.6,0.3-14.3c0.1-4.7,0.2-9.3,0.2-13.8s0-8.8-0.101-12.9c0-2.1-0.1-4.1-0.1-6
	c-0.101-1.9-0.101-3.8-0.2-5.6c-0.1-3.6-0.3-6.9-0.4-9.8c-0.199-2.9-0.3-5.4-0.5-7.5c-0.199-2.1-0.199-3.5-0.399-4.6
	c-0.101-1.1-0.2-1.5-0.2-1.5h-0.4c0,0-0.1,0.3-0.199,1.5c-0.101,1.1-0.2,2.6-0.4,4.7c-0.2,2.1-0.3,4.6-0.5,7.5
	c-0.1,2.9-0.3,6.2-0.4,9.7c-0.1,1.8-0.1,3.6-0.199,5.6c0,1.9-0.101,3.9-0.101,6c-0.1,4.1-0.1,8.4-0.1,12.9c0.1,4.5,0.1,9.1,0.2,13.8
	C392.7,74.9,392.8,79.6,392.9,84.4z"/>
<path fill="#FFFFFF" stroke="#000000" d="M360.6,16.8c0.101,2.1,0.301,4.6,0.5,7.5c0.2,2.9,0.5,6.2,0.801,9.8
	c0.199,1.8,0.3,3.6,0.5,5.6c0.199,1.9,0.399,3.9,0.6,5.9c0.4,4.1,0.9,8.4,1.5,12.8s1.2,9,1.9,13.7c0.699,4.7,1.399,9.4,2.1,14.1
	c1.3,9.5,2.7,18.9,4,27.8c0.6,4.4,1.3,8.7,1.8,12.8c0.601,4.1,1.2,7.9,1.7,11.4c2.1,14.2,3.5,23.6,3.5,23.6h0.4c0,0-1-9.5-2.5-23.8
	c-0.4-3.6-0.801-7.4-1.2-11.5c-0.4-4.1-0.9-8.4-1.4-12.8c-1-8.9-2-18.4-3.1-27.9c-0.5-4.7-1-9.5-1.5-14.2c-0.5-4.7-1-9.3-1.5-13.7
	c-0.601-4.4-1.101-8.7-1.8-12.8c-0.301-2-0.601-4-0.9-5.9c-0.3-1.9-0.6-3.7-0.9-5.5c-0.6-3.5-1.1-6.8-1.699-9.6
	c-0.5-2.9-1-5.4-1.4-7.4c-0.4-2.1-0.7-3.7-1-4.8c-0.2-1.1-0.4-1.7-0.4-1.7H360.2c0,0,0,0.6,0.1,1.7C360.4,13,360.5,14.7,360.6,16.8z
	"/>
<path fill="#FFFFFF" stroke="#000000" d="M327.6,23.1c0.4,2.1,0.801,4.6,1.4,7.4c0.6,2.9,1.2,6.1,2,9.6c0.4,1.7,0.8,3.6,1.2,5.5
	c0.399,1.9,0.899,3.8,1.3,5.8c0.9,4,2,8.2,3.1,12.5c1.2,4.3,2.301,8.8,3.601,13.3s2.5,9.1,3.8,13.7c2.5,9.2,5,18.4,7.4,27.1
	c1.199,4.3,2.3,8.5,3.399,12.4c1.101,4,2.101,7.7,3.101,11.1c3.899,13.8,6.399,23,6.399,23l0.4-0.1c0,0-2.2-9.3-5.4-23.3
	c-0.8-3.5-1.7-7.3-2.6-11.3c-1-4-2-8.2-3-12.6c-2.101-8.7-4.3-18-6.5-27.3c-1.101-4.6-2.2-9.3-3.3-13.9c-1-4.6-2.2-9.1-3.2-13.4
	c-1.101-4.3-2.2-8.5-3.4-12.5c-0.6-2-1.1-3.9-1.6-5.8c-0.5-1.9-1.101-3.6-1.601-5.4c-1-3.4-2-6.6-2.8-9.4
	c-0.899-2.8-1.7-5.2-2.3-7.2c-0.7-2-1.2-3.6-1.5-4.6c-0.4-1.1-0.6-1.6-0.6-1.6l-0.4,0.1c0,0,0.1,0.6,0.3,1.7
	C326.9,19.4,327.2,21.1,327.6,23.1z"/>
<path fill="#FFFFFF" stroke="#000000" d="M295.5,33.7c0.6,2,1.4,4.4,2.3,7.2c0.9,2.8,2,5.9,3.2,9.2c0.6,1.7,1.2,3.4,1.9,5.3
	c0.7,1.8,1.4,3.7,2.1,5.6c1.4,3.9,3,7.9,4.6,12.1c1.7,4.1,3.4,8.4,5.301,12.8c1.8,4.3,3.699,8.7,5.5,13.1
	c3.699,8.8,7.3,17.6,10.699,25.9c1.7,4.1,3.4,8.1,5,11.9c1.601,3.8,3.101,7.4,4.5,10.7c5.601,13.2,9.301,22,9.301,22l0.399-0.1
	c0,0-3.3-8.9-8.3-22.4c-1.2-3.4-2.6-7-4-10.8c-1.4-3.8-3-7.9-4.5-12.1c-3.2-8.4-6.5-17.3-9.9-26.2c-1.699-4.5-3.3-8.9-5-13.3
	c-1.6-4.4-3.3-8.7-4.899-12.9c-1.7-4.2-3.3-8.2-4.9-11.9c-0.8-1.9-1.6-3.7-2.3-5.5c-0.8-1.8-1.5-3.5-2.2-5.1c-1.4-3.3-2.8-6.3-4-8.9
	c-1.2-2.6-2.3-4.9-3.2-6.8s-1.6-3.4-2.1-4.4s-0.8-1.5-0.8-1.5l-0.4,0.1c0,0,0.2,0.6,0.5,1.7C294.4,30.1,294.9,31.7,295.5,33.7z"/>
<path fill="#FFFFFF" stroke="#000000" d="M265,48.1c0.9,1.9,2,4.2,3.2,6.8c1.3,2.6,2.7,5.6,4.3,8.8c0.8,1.6,1.7,3.3,2.5,5
	c0.9,1.7,1.8,3.5,2.8,5.3c1.9,3.6,3.9,7.5,6.1,11.4c2.2,3.9,4.5,7.9,6.8,12c2.3,4.1,4.7,8.2,7.1,12.4c4.7,8.3,9.5,16.6,13.9,24.4
	c2.2,3.9,4.399,7.6,6.399,11.2c2.101,3.6,4,6.9,5.801,10c7.199,12.4,11.899,20.7,11.899,20.7l0.4-0.2c0,0-4.4-8.5-11.101-21.2
	c-1.699-3.2-3.5-6.6-5.399-10.3c-1.9-3.6-3.9-7.5-6-11.4c-4.2-7.9-8.7-16.4-13.1-24.8c-2.2-4.2-4.4-8.5-6.6-12.6
	c-2.2-4.2-4.4-8.2-6.5-12.2c-2.2-3.9-4.3-7.7-6.4-11.2c-1-1.8-2-3.5-3-5.2s-1.9-3.3-2.9-4.8c-1.8-3.1-3.6-5.9-5.1-8.4
	s-2.9-4.6-4-6.4c-1.1-1.8-2-3.2-2.6-4.1c-0.6-0.9-1-1.4-1-1.4l-0.4,0.2c0,0,0.2,0.5,0.7,1.6C263.4,44.7,264.1,46.2,265,48.1z"/>
<path fill="#FFFFFF" stroke="#000000" d="M236.6,66.2c1.1,1.8,2.5,3.9,4.1,6.4c1.6,2.4,3.4,5.2,5.4,8.2c1,1.5,2,3,3.1,4.6
	c1.1,1.6,2.2,3.2,3.4,4.9c2.3,3.4,4.8,6.9,7.5,10.5c2.7,3.6,5.4,7.3,8.3,11c2.8,3.8,5.7,7.6,8.6,11.4c5.7,7.6,11.5,15.3,16.8,22.4
	c2.7,3.6,5.3,7,7.8,10.3c2.5,3.3,4.8,6.4,7,9.2c8.7,11.4,14.4,19,14.4,19l0.3-0.2c0,0-5.5-7.8-13.6-19.6c-2-2.9-4.3-6.1-6.6-9.5
	c-2.4-3.4-4.8-6.9-7.4-10.6c-5.1-7.3-10.6-15.1-16.1-23c-2.7-3.9-5.5-7.8-8.2-11.7s-5.4-7.6-7.9-11.3c-2.6-3.6-5.2-7.1-7.7-10.4
	c-1.2-1.6-2.5-3.2-3.6-4.8c-1.2-1.5-2.3-3-3.4-4.4c-2.2-2.8-4.3-5.4-6.1-7.7c-1.8-2.3-3.5-4.2-4.8-5.8c-1.4-1.6-2.4-2.9-3.1-3.7
	c-0.7-0.8-1.1-1.3-1.1-1.3l-0.3,0.2c0,0,0.3,0.5,0.9,1.5C234.6,63.1,235.5,64.4,236.6,66.2z"/>
<path fill="#FFFFFF" stroke="#000000" d="M210.7,87.8c1.3,1.6,2.9,3.6,4.8,5.8c1.9,2.2,4,4.7,6.4,7.4c1.2,1.3,2.4,2.8,3.7,4.2
	c1.3,1.4,2.6,2.9,4,4.5c2.7,3.1,5.7,6.2,8.7,9.5c3.1,3.2,6.3,6.6,9.6,9.9c3.3,3.4,6.6,6.8,10,10.2c6.6,6.9,13.3,13.7,19.5,20.1
	c3.1,3.2,6.1,6.3,9,9.3c2.9,2.9,5.6,5.7,8.1,8.3c10,10.2,16.7,17.1,16.7,17.1l0.3-0.3c0,0-6.4-7.1-16-17.7c-2.4-2.7-5-5.5-7.7-8.6
	c-2.8-3-5.7-6.2-8.7-9.6c-6-6.6-12.5-13.7-18.9-20.8c-3.2-3.5-6.4-7.1-9.6-10.6c-3.1-3.5-6.3-6.9-9.3-10.2c-3.1-3.3-6.1-6.4-8.9-9.3
	c-1.4-1.5-2.8-2.9-4.2-4.3c-1.4-1.4-2.7-2.7-4-3.9c-2.5-2.5-4.9-4.8-7-6.8c-2.1-2-4-3.8-5.5-5.2c-1.5-1.4-2.7-2.5-3.6-3.3
	c-0.8-0.7-1.3-1.1-1.3-1.1l-0.3,0.3c0,0,0.4,0.5,1.1,1.4C208.3,84.9,209.4,86.2,210.7,87.8z"/>
<path fill="#FFFFFF" stroke="#000000" d="M187.7,112.5c1.5,1.5,3.4,3.2,5.5,5.2c2.1,2,4.6,4.2,7.3,6.6c1.3,1.2,2.7,2.4,4.2,3.7
	s3,2.6,4.5,3.9c3.1,2.7,6.4,5.5,9.8,8.3c3.5,2.8,7.1,5.7,10.8,8.6c3.7,2.9,7.4,5.9,11.2,8.9c7.5,6,14.9,11.9,21.9,17.5
	c3.5,2.8,6.9,5.5,10.1,8.1c3.2,2.5,6.3,5,9.1,7.2c11.2,8.9,18.7,14.8,18.7,14.8l0.3-0.3c0,0-7.2-6.2-18.1-15.6
	c-2.7-2.3-5.6-4.9-8.8-7.6c-3.1-2.7-6.4-5.5-9.8-8.4c-6.8-5.8-14.1-12-21.3-18.2c-3.6-3.1-7.2-6.2-10.8-9.3c-3.5-3.1-7.1-6.1-10.5-9
	c-3.5-2.8-6.8-5.6-10-8.1c-1.6-1.3-3.2-2.5-4.7-3.7c-1.5-1.2-3-2.3-4.4-3.4c-2.8-2.2-5.5-4.2-7.8-5.9c-2.3-1.7-4.4-3.2-6.1-4.4
	c-1.7-1.2-3-2.2-4-2.8c-0.9-0.6-1.4-1-1.4-1l-0.3,0.3c0,0,0.4,0.4,1.2,1.2C185,109.9,186.2,111,187.7,112.5z"/>
<path fill="#FFFFFF" stroke="#000000" d="M168,139.8c1.7,1.3,3.7,2.7,6.1,4.4c2.4,1.7,5.1,3.6,8,5.6c1.5,1,3,2.1,4.6,3.2
	c1.6,1.1,3.3,2.2,5,3.3c3.4,2.3,7,4.6,10.8,7c3.8,2.4,7.7,4.8,11.8,7.2c4,2.4,8.1,4.9,12.2,7.4c8.1,5,16.3,10,23.9,14.6
	c3.8,2.3,7.5,4.6,11,6.7c3.5,2.1,6.8,4.1,9.9,6c12.3,7.4,20.4,12.4,20.4,12.4l0.2-0.3c0,0-8-5.3-19.9-13.2c-3-2-6.2-4.1-9.6-6.4
	c-3.4-2.3-7-4.6-10.8-7.1c-7.5-4.9-15.5-10.2-23.4-15.4c-4-2.6-8-5.3-11.9-7.9c-3.9-2.6-7.8-5.1-11.5-7.6c-3.8-2.4-7.5-4.7-11-6.8
	c-1.8-1.1-3.5-2.1-5.1-3.1c-1.7-1-3.3-1.9-4.8-2.8c-3.1-1.8-5.9-3.4-8.5-4.9c-2.5-1.4-4.8-2.7-6.6-3.6c-1.8-1-3.3-1.8-4.3-2.3
	s-1.5-0.8-1.5-0.8l-0.2,0.3c0,0,0.5,0.4,1.4,1C165,137.6,166.3,138.6,168,139.8z"/>
<path fill="#FFFFFF" stroke="#000000" d="M151.8,169.3c1.8,1,4.1,2.3,6.6,3.6c2.6,1.4,5.5,2.9,8.7,4.6c1.6,0.8,3.3,1.7,5,2.6
	c1.7,0.9,3.5,1.8,5.3,2.7c3.7,1.8,7.6,3.7,11.6,5.6c4.1,1.9,8.3,3.8,12.6,5.7c4.3,1.9,8.6,3.9,13,5.8c8.7,3.9,17.4,7.9,25.6,11.5
	c4.1,1.8,8,3.6,11.8,5.3c3.7,1.7,7.3,3.2,10.6,4.7c13.1,5.8,21.8,9.7,21.8,9.7l0.2-0.4c0,0-8.6-4.2-21.4-10.6
	c-3.2-1.6-6.7-3.3-10.4-5.1c-3.7-1.8-7.6-3.7-11.6-5.7c-8-3.9-16.6-8.1-25.2-12.3c-4.3-2.1-8.6-4.2-12.8-6.3
	c-4.2-2.1-8.4-4.1-12.4-6.1c-4.1-1.9-8-3.7-11.7-5.4c-1.9-0.8-3.7-1.6-5.5-2.4c-1.8-0.8-3.5-1.5-5.1-2.2c-3.3-1.4-6.3-2.7-9-3.8
	c-2.7-1.1-5.1-2-7-2.8c-2-0.8-3.5-1.4-4.5-1.7c-1.1-0.4-1.6-0.6-1.6-0.6l-0.2,0.4c0,0,0.5,0.3,1.5,0.9
	C148.6,167.5,150,168.3,151.8,169.3z"/>
<path fill="#FFFFFF" stroke="#000000" d="M139.5,200.7c1.9,0.8,4.3,1.7,7,2.8c2.7,1,5.8,2.2,9.2,3.4c1.7,0.6,3.4,1.2,5.3,1.9
	c1.8,0.6,3.7,1.3,5.6,2c3.9,1.4,8,2.7,12.2,4.1c4.3,1.3,8.7,2.7,13.2,4.1s9.1,2.8,13.6,4.1c9.1,2.8,18.3,5.6,26.8,8.3
	c4.3,1.3,8.4,2.6,12.3,3.8c3.9,1.2,7.6,2.3,11.1,3.3c13.7,4.1,22.9,6.9,22.9,6.9l0.1-0.4c0,0-9-3.1-22.6-7.9
	c-3.4-1.2-7-2.5-10.9-3.8c-3.9-1.3-8-2.7-12.2-4.2c-8.5-2.9-17.5-6-26.5-9.1c-4.5-1.6-9-3.1-13.5-4.7c-4.4-1.6-8.8-3-13.1-4.5
	c-4.3-1.4-8.4-2.7-12.3-3.8c-2-0.6-3.9-1.2-5.7-1.7c-1.9-0.5-3.7-1-5.4-1.5c-3.4-1-6.6-1.8-9.4-2.6c-2.8-0.8-5.3-1.4-7.3-1.9
	s-3.6-0.9-4.7-1.2c-1.1-0.3-1.7-0.4-1.7-0.4l-0.1,0.4c0,0,0.6,0.2,1.6,0.7S137.5,199.9,139.5,200.7z"/>
<path fill="#FFFFFF" stroke="#000000" d="M131.1,233.4c2,0.5,4.5,1.2,7.3,1.9c2.8,0.7,6,1.5,9.5,2.3c1.7,0.4,3.6,0.8,5.5,1.2
	c1.9,0.4,3.8,0.8,5.8,1.3c4,0.9,8.3,1.7,12.7,2.6c4.4,0.8,9,1.6,13.6,2.4c4.6,0.8,9.3,1.6,14.1,2.4c9.4,1.6,18.8,3.3,27.6,4.8
	c4.4,0.8,8.7,1.5,12.7,2.2s7.9,1.3,11.4,1.9c14.1,2.4,23.5,4,23.5,4l0.1-0.4c0,0-9.3-2-23.4-5c-3.5-0.7-7.3-1.6-11.3-2.4
	c-4-0.8-8.3-1.7-12.6-2.6c-8.8-1.8-18.1-3.8-27.5-5.7c-4.7-1-9.3-2-13.9-2.9c-4.6-1-9.1-1.9-13.5-2.8c-4.4-0.8-8.7-1.6-12.7-2.3
	c-2-0.3-4-0.7-5.9-1c-1.9-0.3-3.8-0.6-5.5-0.9c-3.5-0.6-6.8-1-9.7-1.4s-5.4-0.7-7.5-1c-2.1-0.2-3.7-0.5-4.8-0.6s-1.7-0.2-1.7-0.2
	l-0.1,0.4c0,0,0.6,0.2,1.7,0.5C127.5,232.4,129.1,232.8,131.1,233.4z"/>
<path fill="#FFFFFF" stroke="#000000" d="M127,266.8c2.1,0.3,4.6,0.6,7.5,0.9c2.9,0.3,6.2,0.7,9.7,1c1.8,0.2,3.6,0.4,5.6,0.5
	c1.9,0.2,3.9,0.3,6,0.5c4.1,0.4,8.4,0.7,12.9,1c4.5,0.2,9.1,0.5,13.8,0.7c4.7,0.2,9.5,0.4,14.2,0.6c9.5,0.5,19.1,0.9,28,1.3
	c4.5,0.2,8.8,0.4,12.9,0.6c4.1,0.2,8,0.3,11.6,0.5c14.3,0.6,23.9,1,23.9,1V275c0,0-9.5-0.8-23.8-2c-3.6-0.3-7.4-0.6-11.5-1
	c-4.1-0.3-8.4-0.7-12.9-1c-8.9-0.7-18.4-1.5-28-2.2c-4.8-0.4-9.5-0.8-14.2-1.2c-4.7-0.4-9.3-0.7-13.8-1.1c-4.5-0.3-8.8-0.5-12.9-0.7
	c-2.1-0.1-4-0.2-6-0.2c-1.9-0.1-3.8-0.1-5.6-0.2c-3.6-0.1-6.9-0.1-9.8-0.2c-2.9,0-5.5,0-7.6,0s-3.7,0-4.9,0c-1.1,0-1.7,0-1.7,0v0.4
	c0,0,0.6,0.1,1.7,0.3C123.3,266.3,125,266.5,127,266.8z"/>
<path fill="#FFFFFF" stroke="#000000" d="M134.7,300.6c2.9,0,6.2-0.1,9.8-0.199c1.8-0.101,3.7-0.101,5.6-0.2
	c1.9-0.101,3.9-0.2,6-0.2c4.1-0.1,8.4-0.4,12.9-0.7s9.1-0.7,13.8-1.1c4.7-0.4,9.4-0.8,14.2-1.2c9.5-0.8,19-1.5,28-2.2
	c4.5-0.399,8.8-0.7,12.9-1s8-0.7,11.5-1c14.3-1.2,23.8-2,23.8-2V290.4c0,0-9.5,0.399-23.9,1c-3.6,0.199-7.5,0.299-11.6,0.5
	c-4.1,0.199-8.4,0.399-12.9,0.6c-8.9,0.4-18.5,0.9-28,1.3c-4.8,0.2-9.5,0.399-14.2,0.601c-4.7,0.199-9.3,0.399-13.8,0.699
	c-4.5,0.301-8.8,0.601-12.9,1c-2,0.2-4,0.4-6,0.5c-1.9,0.2-3.8,0.4-5.6,0.5c-3.6,0.301-6.8,0.7-9.7,1c-2.9,0.301-5.4,0.601-7.5,0.9
	s-3.7,0.5-4.8,0.7c-1.1,0.2-1.7,0.3-1.7,0.3v0.4c0,0,0.6,0,1.7,0c1.1,0,2.8,0,4.9,0C129.2,300.6,131.8,300.6,134.7,300.6z"/>
<path fill="#FFFFFF" stroke="#000000" d="M148.6,331.7c1.8-0.3,3.6-0.601,5.5-0.9s3.9-0.6,5.9-1c4.1-0.7,8.3-1.399,12.7-2.3
	c4.4-0.9,8.9-1.8,13.5-2.8c4.6-1,9.3-2,13.9-2.9c9.4-1.899,18.7-3.899,27.5-5.7c4.4-0.899,8.6-1.8,12.6-2.6c4-0.9,7.8-1.7,11.3-2.4
	c14-3,23.4-5,23.4-5l-0.1-0.399c0,0-9.4,1.6-23.5,4c-3.5,0.6-7.4,1.2-11.4,1.899c-4,0.7-8.3,1.4-12.7,2.2
	c-8.8,1.5-18.2,3.2-27.6,4.8c-4.7,0.801-9.4,1.601-14.1,2.4c-4.6,0.8-9.2,1.6-13.6,2.4c-4.4,0.8-8.6,1.699-12.7,2.6
	c-2,0.4-4,0.9-5.8,1.3c-1.9,0.4-3.7,0.8-5.5,1.2c-3.5,0.8-6.7,1.6-9.5,2.3c-2.8,0.7-5.3,1.3-7.3,1.9c-2,0.5-3.6,0.899-4.7,1.3
	c-1.1,0.3-1.7,0.5-1.7,0.5l0.1,0.4c0,0,0.6-0.101,1.7-0.2c1.1-0.101,2.8-0.3,4.8-0.601c2.1-0.199,4.6-0.6,7.5-1
	C141.8,332.7,145,332.2,148.6,331.7z"/>
<path fill="#FFFFFF" stroke="#000000" d="M156.6,362.1c1.7-0.5,3.5-1,5.4-1.5c1.9-0.6,3.8-1.1,5.7-1.699c3.9-1.2,8.1-2.5,12.3-3.801
	c4.2-1.399,8.6-2.899,13.1-4.5c4.4-1.5,9-3.1,13.5-4.699c9-3.101,18.1-6.2,26.5-9.101c4.2-1.5,8.3-2.899,12.2-4.2
	c3.9-1.3,7.5-2.6,10.9-3.8c13.5-4.7,22.6-7.899,22.6-7.899l-0.1-0.4c0,0-9.1,2.8-22.9,6.9c-3.4,1-7.1,2.199-11.1,3.3
	c-3.9,1.2-8.1,2.5-12.3,3.8c-8.6,2.6-17.7,5.4-26.8,8.3c-4.6,1.4-9.1,2.8-13.6,4.101c-4.5,1.3-8.9,2.699-13.2,4.1
	c-4.3,1.4-8.4,2.8-12.2,4.1c-1.9,0.7-3.8,1.301-5.6,2c-1.8,0.7-3.6,1.301-5.3,1.9c-3.4,1.2-6.4,2.4-9.2,3.4c-2.7,1-5.1,2-7,2.8
	S136,366.6,135,367s-1.6,0.7-1.6,0.7l0.1,0.399c0,0,0.6-0.1,1.7-0.399c1.1-0.2,2.7-0.7,4.7-1.2s4.5-1.1,7.3-1.9
	C150,364,153.2,363.1,156.6,362.1z"/>
<path fill="#FFFFFF" stroke="#000000" d="M173.6,389.2c1.8-0.8,3.6-1.601,5.5-2.4c3.8-1.6,7.7-3.5,11.7-5.399c4-2,8.2-4,12.4-6.101
	c4.2-2.1,8.5-4.2,12.8-6.3c8.6-4.2,17.1-8.4,25.2-12.3c4-2,7.9-3.9,11.6-5.7c3.7-1.8,7.2-3.5,10.4-5.1
	c12.8-6.4,21.4-10.601,21.4-10.601l-0.2-0.399c0,0-8.7,3.899-21.8,9.699c-3.3,1.5-6.8,3-10.6,4.7c-3.7,1.7-7.7,3.5-11.8,5.3
	c-8.2,3.7-16.9,7.601-25.6,11.5c-4.4,1.9-8.7,3.9-13,5.801c-4.3,1.899-8.5,3.8-12.6,5.699c-4,1.9-7.9,3.801-11.6,5.601
	c-1.8,0.899-3.6,1.8-5.3,2.7c-1.7,0.899-3.4,1.699-5,2.6c-3.2,1.6-6.1,3.2-8.7,4.5c-2.6,1.4-4.8,2.6-6.6,3.6
	c-1.8,1-3.3,1.801-4.2,2.4c-1,0.6-1.5,0.9-1.5,0.9l0.2,0.399c0,0,0.6-0.2,1.6-0.6c1.1-0.4,2.6-1,4.5-1.7c2-0.7,4.3-1.7,7-2.8
	c2.7-1.101,5.7-2.4,9-3.8C170.1,390.7,171.8,389.9,173.6,389.2z"/>
<path fill="#FFFFFF" stroke="#000000" d="M188.7,416c1.7-1,3.4-2,5.1-3.1c3.5-2.101,7.2-4.4,11-6.801c3.7-2.399,7.6-4.899,11.5-7.6
	c3.9-2.6,7.9-5.2,11.9-7.9c8-5.199,16-10.5,23.4-15.399c3.7-2.5,7.4-4.8,10.8-7.101c3.4-2.3,6.6-4.399,9.6-6.399
	c11.9-7.9,19.9-13.2,19.9-13.2l-0.2-0.3c0,0-8.2,4.899-20.4,12.399c-3.1,1.9-6.4,3.9-9.9,6c-3.5,2.101-7.2,4.4-11,6.7
	c-7.6,4.7-15.8,9.7-23.9,14.601c-4.1,2.5-8.2,5-12.2,7.399c-4,2.4-8,4.9-11.8,7.2c-3.8,2.4-7.4,4.7-10.8,7c-1.7,1.1-3.4,2.2-5,3.3
	c-1.6,1.101-3.1,2.101-4.6,3.2c-3,2-5.6,3.9-8,5.6c-2.4,1.7-4.4,3.2-6.1,4.4s-3,2.2-3.9,2.9c-0.9,0.699-1.4,1-1.4,1l0.2,0.3
	c0,0,0.5-0.3,1.5-0.8s2.4-1.301,4.3-2.301c1.8-1,4.1-2.199,6.6-3.6s5.4-3.1,8.5-4.9C185.4,418,187,417,188.7,416z"/>
<path fill="#FFFFFF" stroke="#000000" d="M211.6,437.1c3.2-2.5,6.6-5.3,10-8.1c3.4-2.9,7-5.9,10.5-9c3.6-3.1,7.2-6.2,10.8-9.3
	c7.3-6.2,14.5-12.4,21.3-18.2c3.4-2.9,6.7-5.7,9.8-8.4c3.1-2.699,6-5.199,8.8-7.6c10.8-9.4,18.1-15.6,18.1-15.6l-0.3-0.301
	c0,0-7.5,5.9-18.7,14.801c-2.8,2.199-5.8,4.6-9.1,7.199c-3.2,2.601-6.6,5.301-10.1,8.101c-7,5.6-14.4,11.6-21.9,17.5
	c-3.7,3-7.5,5.899-11.2,8.899c-3.7,2.9-7.3,5.801-10.8,8.601c-3.4,2.899-6.8,5.6-9.8,8.3c-1.5,1.3-3.1,2.7-4.5,3.9
	c-1.4,1.3-2.8,2.5-4.2,3.699c-2.7,2.4-5.1,4.601-7.3,6.601c-2.1,2-4,3.7-5.5,5.2c-1.5,1.399-2.7,2.6-3.5,3.399s-1.2,1.2-1.2,1.2
	l0.3,0.3c0,0,0.5-0.3,1.4-1c0.9-0.6,2.3-1.6,4-2.8s3.8-2.7,6.1-4.4c2.3-1.699,5-3.699,7.8-5.899c1.4-1.101,2.9-2.2,4.4-3.4
	C208.5,439.6,210,438.4,211.6,437.1z"/>
<path fill="#FFFFFF" stroke="#000000" d="M250.7,439.5c3.2-3.5,6.4-7,9.6-10.6c6.4-7.101,12.9-14.101,18.9-20.801
	c3-3.3,5.9-6.5,8.7-9.6c2.7-3.1,5.3-5.9,7.7-8.6c9.6-10.601,16-17.7,16-17.7l-0.3-0.3c0,0-6.7,6.8-16.7,17.1
	c-2.5,2.6-5.2,5.3-8.1,8.3c-2.9,2.9-5.9,6-9,9.3C271.3,413,264.6,419.9,258,426.7c-3.3,3.399-6.7,6.8-10,10.2
	c-3.3,3.3-6.5,6.699-9.6,9.899c-3.1,3.3-6,6.4-8.7,9.5c-1.4,1.5-2.7,3-4,4.5c-1.3,1.5-2.5,2.9-3.7,4.2c-2.4,2.7-4.5,5.2-6.4,7.4
	c-1.9,2.199-3.5,4.199-4.8,5.8c-1.3,1.6-2.4,2.899-3.1,3.8c-0.7,0.9-1.1,1.4-1.1,1.4l0.3,0.3c0,0,0.4-0.4,1.3-1.101
	c0.8-0.699,2-1.899,3.6-3.3c1.5-1.399,3.4-3.2,5.5-5.2c2.1-2,4.5-4.3,7-6.8c1.3-1.3,2.6-2.6,4-3.899c1.4-1.4,2.8-2.801,4.2-4.301
	c2.9-2.899,5.9-6,8.9-9.3C244.4,446.4,247.5,443,250.7,439.5z"/>
<path fill="#FFFFFF" stroke="#000000" d="M271.4,456.3c2.7-3.899,5.4-7.8,8.2-11.7c5.5-7.8,11-15.6,16.1-23
	c2.6-3.699,5.1-7.199,7.4-10.6c2.3-3.4,4.6-6.6,6.6-9.5c8.2-11.8,13.6-19.6,13.6-19.6l-0.3-0.2c0,0-5.8,7.6-14.4,19
	c-2.199,2.899-4.5,5.899-7,9.2c-2.5,3.3-5.1,6.699-7.8,10.3c-5.4,7.2-11.1,14.8-16.8,22.399c-2.9,3.801-5.8,7.601-8.6,11.4
	c-2.9,3.7-5.6,7.5-8.3,11c-2.6,3.6-5.1,7.1-7.5,10.5c-1.2,1.7-2.3,3.3-3.4,4.9c-1.1,1.6-2.1,3.1-3.1,4.6c-2,3-3.8,5.7-5.4,8.2
	c-1.6,2.399-3,4.6-4.1,6.399c-1.1,1.801-2,3.2-2.6,4.101c-0.6,1-0.9,1.5-0.9,1.5l0.3,0.2c0,0,0.4-0.5,1.1-1.301
	c0.7-0.8,1.8-2.1,3.1-3.699c1.4-1.601,3-3.601,4.8-5.801c1.8-2.3,3.9-4.8,6.1-7.699c1.1-1.4,2.3-2.9,3.4-4.4
	c1.2-1.5,2.4-3.1,3.6-4.8c2.5-3.3,5.1-6.7,7.7-10.4C266,464,268.7,460.2,271.4,456.3z"/>
<path fill="#FFFFFF" stroke="#000000" d="M300.7,457.8c4.5-8.399,8.899-16.899,13.1-24.8c2.101-4,4.101-7.8,6-11.4
	c1.9-3.6,3.7-7.1,5.4-10.3c6.6-12.7,11.1-21.2,11.1-21.2L335.9,389.9c0,0-4.801,8.3-11.9,20.699c-1.8,3.101-3.7,6.5-5.8,10
	c-2,3.601-4.2,7.301-6.4,11.2c-4.399,7.8-9.2,16.101-13.9,24.4c-2.4,4.1-4.8,8.3-7.1,12.399c-2.4,4.101-4.6,8.101-6.8,12
	c-2.2,3.9-4.2,7.7-6.1,11.4c-0.9,1.8-1.9,3.6-2.8,5.3s-1.7,3.4-2.5,5c-1.6,3.2-3.1,6.2-4.3,8.8c-1.3,2.601-2.4,4.9-3.2,6.801
	c-0.9,1.899-1.6,3.399-2,4.399c-0.5,1-0.7,1.601-0.7,1.601l0.4,0.199c0,0,0.3-0.5,1-1.399c0.6-0.9,1.5-2.3,2.6-4.101
	c1.1-1.8,2.5-3.899,4-6.399s3.3-5.3,5.1-8.4c0.9-1.5,1.9-3.1,2.9-4.8s2-3.4,3-5.2c2.1-3.5,4.2-7.3,6.4-11.2
	c2.1-3.899,4.3-8,6.5-12.199C296.3,466.3,298.5,462.1,300.7,457.8z"/>
<path fill="#FFFFFF" stroke="#000000" d="M337.8,429.9c1.4-3.801,2.8-7.5,4-10.801c5-13.399,8.3-22.399,8.3-22.399L349.7,396.6
	c0,0-3.7,8.801-9.3,22c-1.4,3.301-2.9,6.9-4.5,10.7c-1.601,3.8-3.2,7.8-5,11.9c-3.4,8.3-7.101,17.1-10.7,25.899
	c-1.8,4.4-3.7,8.801-5.5,13.101s-3.601,8.6-5.3,12.8c-1.601,4.2-3.2,8.2-4.601,12.1c-0.7,1.9-1.4,3.801-2.1,5.601
	c-0.6,1.8-1.3,3.6-1.9,5.3c-1.2,3.4-2.3,6.5-3.2,9.2c-0.9,2.8-1.7,5.2-2.3,7.2c-0.6,2-1.1,3.6-1.5,4.6c-0.3,1.1-0.5,1.7-0.5,1.7
	l0.4,0.1c0,0,0.3-0.5,0.8-1.5s1.2-2.5,2.1-4.399c0.9-1.9,2-4.2,3.2-6.801c1.2-2.699,2.6-5.6,4-8.899c0.7-1.601,1.5-3.4,2.2-5.101
	c0.8-1.8,1.5-3.6,2.3-5.5c1.601-3.8,3.2-7.8,4.9-11.899c1.6-4.2,3.3-8.5,4.899-12.9c1.601-4.399,3.301-8.899,5-13.3
	c3.4-8.9,6.801-17.9,9.9-26.2C334.9,437.8,336.4,433.8,337.8,429.9z"/>
<path fill="#FFFFFF" stroke="#000000" d="M364.4,401.4c0,0-2.601,9.199-6.4,23c-1,3.5-2,7.199-3.1,11.1c-1.101,4-2.2,8.1-3.4,12.4
	c-2.4,8.6-4.9,17.899-7.4,27.1c-1.3,4.6-2.6,9.2-3.8,13.7c-1.3,4.5-2.5,9-3.6,13.3c-1.101,4.3-2.101,8.5-3.101,12.5
	c-0.5,2-0.899,3.9-1.3,5.8c-0.399,1.9-0.8,3.7-1.2,5.5c-0.8,3.5-1.399,6.7-2,9.601c-0.6,2.899-1.1,5.399-1.399,7.399
	c-0.4,2.101-0.7,3.7-0.9,4.8c-0.2,1.101-0.3,1.7-0.3,1.7l0.4,0.101c0,0,0.199-0.601,0.6-1.601c0.4-1.1,0.9-2.6,1.5-4.6
	c0.7-2,1.5-4.4,2.3-7.2c0.9-2.8,1.8-5.9,2.8-9.4c0.5-1.699,1-3.5,1.601-5.399c0.5-1.9,1.1-3.8,1.6-5.8c1.101-3.9,2.2-8.101,3.4-12.5
	c1.1-4.301,2.2-8.801,3.2-13.4c1.1-4.6,2.199-9.2,3.3-13.9c2.2-9.3,4.5-18.6,6.5-27.3c1-4.399,2-8.6,3-12.6
	c0.899-4,1.8-7.8,2.6-11.3c3.3-14,5.4-23.301,5.4-23.301L364.4,401.4z"/>
<path fill="#FFFFFF" stroke="#000000" d="M379.5,404.2c0,0-1.4,9.5-3.5,23.6c-0.5,3.5-1.1,7.4-1.7,11.4c-0.6,4.1-1.2,8.3-1.8,12.8
	c-1.3,8.9-2.6,18.3-4,27.8c-0.7,4.7-1.4,9.5-2.1,14.101c-0.7,4.6-1.301,9.199-1.9,13.699c-0.6,4.4-1.1,8.7-1.5,12.801
	c-0.2,2-0.4,4-0.6,5.899c-0.2,1.9-0.301,3.8-0.5,5.601c-0.301,3.6-0.601,6.8-0.801,9.8c-0.199,2.899-0.399,5.399-0.5,7.5
	c-0.1,2.1-0.199,3.7-0.3,4.899c0,1.101-0.1,1.7-0.1,1.7l0.399,0.101c0,0,0.101-0.601,0.4-1.7c0.2-1.101,0.5-2.7,1-4.8
	c0.4-2.101,0.9-4.601,1.4-7.4c0.5-2.9,1.1-6.1,1.699-9.6c0.301-1.801,0.601-3.601,0.9-5.5c0.3-1.9,0.6-3.9,0.9-5.9
	c0.6-4.1,1.199-8.3,1.8-12.8c0.5-4.4,1.1-9,1.5-13.7c0.5-4.7,1-9.4,1.5-14.2c1-9.5,2.1-19,3.1-27.899c0.5-4.5,1-8.801,1.4-12.801
	c0.399-4.1,0.8-7.899,1.2-11.5c1.5-14.3,2.5-23.8,2.5-23.8L379.5,404.2z"/>
<circle fill="#FFFFFF" stroke="#000000" cx="395" cy="283" r="100"/>
</svg>
