<?xml version="1.0" encoding="utf-8"?>
<!-- Generator: Adobe Illustrator 15.0.0, SVG Export Plug-In . SVG Version: 6.00 Build 0)  -->
<!DOCTYPE svg PUBLIC "-//W3C//DTD SVG 1.1//EN" "http://www.w3.org/Graphics/SVG/1.1/DTD/svg11.dtd">
<svg version="1.1" id="Layer_1" xmlns="http://www.w3.org/2000/svg" xmlns:xlink="http://www.w3.org/1999/xlink" x="0px" y="0px"
	 width="822px" height="567px" viewBox="0 0 822 567" enable-background="new 0 0 822 567" xml:space="preserve">
<title>radiant sun coloring</title>
<desc>Vector coloring radiant sun. Author Lobaz Roman. In the public domain. Site www.abc-color.com</desc>
<g>
	<polygon fill="#FFFFFF" stroke="#000000" points="422,148.5 474.7,18.7 473.7,158.8 572,59 517.5,188 646.5,133.5 546.7,231.8 
		686.8,230.9 557,283.5 686.8,336.2 546.7,335.2 646.5,433.5 517.5,379 572,508 473.7,408.2 474.7,548.3 422,418.5 369.4,548.3 
		370.3,408.2 272,508 326.5,379 197.5,433.5 297.3,335.2 157.2,336.2 287,283.5 157.2,230.9 297.3,231.8 197.5,133.5 326.5,188 
		272,59 370.3,158.8 369.4,18.7 	"/>
	<path fill="#FFFFFF" stroke="#000000" d="M646.5,133.5l-137,79.3c4.3,5.3,8.1,11,11.3,16.9L646.5,133.5z"/>
	<path fill="#FFFFFF" stroke="#000000" d="M369.4,548.3L410.3,395.4c-6.8-0.7-13.6-2.102-20-4L369.4,548.3z"/>
	<path fill="#FFFFFF" stroke="#000000" d="M197.5,133.5l125.6,96.2c3.2-6,7.101-11.7,11.301-16.9L197.5,133.5z"/>
	<path fill="#FFFFFF" stroke="#000000" d="M157.2,336.2L314.1,315.4c-1.899-6.5-3.199-13.102-4-20L157.2,336.2z"/>
	<path fill="#FFFFFF" stroke="#000000" d="M157.2,230.9L310.1,271.8c0.7-6.8,2.101-13.6,4-20L157.2,230.9z"/>
	<path fill="#FFFFFF" stroke="#000000" d="M474.7,18.7l-40.9,152.9c6.8,0.7,13.602,2.1,20,4L474.7,18.7z"/>
	<path fill="#FFFFFF" stroke="#000000" d="M197.5,433.5l137-79.3c-4.3-5.3-8.1-11-11.3-16.9L197.5,433.5z"/>
	<path fill="#FFFFFF" stroke="#000000" d="M272,508l96.2-125.6c-6-3.2-11.7-7.102-16.9-11.301L272,508z"/>
	<path fill="#FFFFFF" stroke="#000000" d="M646.5,433.5l-125.6-96.3c-3.2,6-7.102,11.7-11.302,16.899L646.5,433.5z"/>
	<path fill="#FFFFFF" stroke="#000000" d="M572,59l-96.3,125.6c6,3.2,11.7,7.1,16.898,11.3L572,59z"/>
	<path fill="#FFFFFF" stroke="#000000" d="M686.8,230.9L529.9,251.7c1.898,6.5,3.198,13.1,4,20L686.8,230.9z"/>
	<path fill="#FFFFFF" stroke="#000000" d="M572,508l-79.3-137c-5.3,4.3-11,8.1-16.9,11.3L572,508z"/>
	<path fill="#FFFFFF" stroke="#000000" d="M369.4,18.7l20.8,156.9c6.5-1.9,13.1-3.2,20-4L369.4,18.7z"/>
	<path fill="#FFFFFF" stroke="#000000" d="M272,59l79.3,137c5.3-4.3,11-8.1,16.9-11.3L272,59z"/>
	<path fill="#FFFFFF" stroke="#000000" d="M474.7,548.3L453.9,391.4c-6.5,1.898-13.102,3.199-20,4L474.7,548.3z"/>
	<path fill="#FFFFFF" stroke="#000000" d="M686.8,336.2L533.9,295.3c-0.7,6.8-2.102,13.601-4,20L686.8,336.2z"/>
	<circle fill="#FFFFFF" stroke="#000000" cx="422" cy="283.5" r="112.5"/>
</g>
</svg>
