<?xml version="1.0" encoding="utf-8"?>
<!-- Generator: Adobe Illustrator 15.0.0, SVG Export Plug-In . SVG Version: 6.00 Build 0)  -->
<!DOCTYPE svg PUBLIC "-//W3C//DTD SVG 1.1//EN" "http://www.w3.org/Graphics/SVG/1.1/DTD/svg11.dtd">
<svg version="1.1" id="Layer_1" xmlns="http://www.w3.org/2000/svg" xmlns:xlink="http://www.w3.org/1999/xlink" x="0px" y="0px"
	 width="822px" height="567px" viewBox="0 0 822 567" enable-background="new 0 0 822 567" xml:space="preserve">
<title>Coloring sun</title>
<desc>Vector coloring sun</desc>
<g>
	<polygon fill="#FFFFFF" stroke="#000000" points="400,165 452.7,35.2 451.7,175.3 550,75.5 495.5,204.5 624.5,150 524.7,248.3 
		664.8,247.4 535,300 664.8,352.7 524.7,351.7 624.5,450 495.5,395.5 550,524.5 451.7,424.7 452.7,564.8 400,435 347.4,564.8 
		348.3,424.7 250,524.5 304.5,395.5 175.5,450 275.3,351.7 135.2,352.7 265,300 135.2,247.4 275.3,248.3 175.5,150 304.5,204.5 
		250,75.5 348.3,175.3 347.4,35.2 	"/>
</g>
</svg>
