<?xml version="1.0" encoding="utf-8"?>
<!-- Generator: Adobe Illustrator 15.0.0, SVG Export Plug-In . SVG Version: 6.00 Build 0)  -->
<!DOCTYPE svg PUBLIC "-//W3C//DTD SVG 1.1//EN" "http://www.w3.org/Graphics/SVG/1.1/DTD/svg11.dtd">
<svg version="1.1" id="abc-color.com" xmlns="http://www.w3.org/2000/svg" xmlns:xlink="http://www.w3.org/1999/xlink" x="0px"
	 y="0px" width="822px" height="567px" viewBox="0 0 822 567" enable-background="new 0 0 822 567" xml:space="preserve">
<g id="COLORING">
	<circle fill="#FFFFFF" stroke="#000000" stroke-miterlimit="10" cx="400" cy="280" r="170"/>
</g>
<g id="LINE">
	<g>
		<polygon points="402.5,462.1 399.5,550 396.5,462.1 		"/>
	</g>
	<g>
		<polygon points="425.8,460.3 433.9,547.9 419.9,461 		"/>
	</g>
	<g>
		<polygon points="448.2,455.6 467.1,541.6 442.3,457.1 		"/>
	</g>
	<g>
		<polygon points="469.8,448.2 499.4,531 464.3,450.4 		"/>
	</g>
	<g>
		<polygon points="490.4,438.1 530.1,516.6 485.1,441 		"/>
	</g>
	<g>
		<polygon points="509.5,425.5 558.7,498.4 504.6,429.1 		"/>
	</g>
	<g>
		<polygon points="526.8,410.7 584.8,476.8 522.5,414.8 		"/>
	</g>
	<g>
		<polygon points="542.2,393.7 608,452 538.4,398.4 		"/>
	</g>
	<g>
		<polygon points="555.4,375 627.9,424.6 552.2,380.1 		"/>
	</g>
	<g>
		<polygon points="566.1,354.8 644.3,395 563.5,360.3 		"/>
	</g>
	<g>
		<polygon points="575.3,333.8 656.8,363.4 573.4,339.5 		"/>
	</g>
	<g>
		<polygon points="579.4,311.2 665.3,330.6 578.3,317.1 		"/>
	</g>
	<g>
		<polygon points="581.9,288.5 669.5,297 581.5,294.5 		"/>
	</g>
	<g>
		<polygon points="581.5,265.5 669.5,263 581.9,271.5 		"/>
	</g>
	<g>
		<polygon points="578.3,242.9 665.3,229.4 579.4,248.8 		"/>
	</g>
	<g>
		<polygon points="573.6,220.4 656.8,196.6 575.5,226.1 		"/>
	</g>
	<g>
		<polygon points="563.5,199.7 644.3,165 566.1,205.2 		"/>
	</g>
	<g>
		<polygon points="552.2,179.9 627.9,135.4 555.4,185 		"/>
	</g>
	<g>
		<polygon points="538.4,161.6 608,108 542.2,166.3 		"/>
	</g>
	<g>
		<polygon points="522.5,145.2 584.8,83.2 526.8,149.3 		"/>
	</g>
	<g>
		<polygon points="504.6,130.9 558.7,61.6 509.5,134.5 		"/>
	</g>
	<g>
		<polygon points="485.1,119 530.1,43.4 490.4,121.9 		"/>
	</g>
	<g>
		<polygon points="464.3,109.6 499.4,29 469.8,111.8 		"/>
	</g>
	<g>
		<polygon points="442.3,102.9 467.1,18.4 448.2,104.4 		"/>
	</g>
	<g>
		<polygon points="419.9,99 433.9,12.1 425.8,99.7 		"/>
	</g>
	<g>
		<polygon points="396.5,97.9 399.5,10 402.5,97.9 		"/>
	</g>
	<g>
		<polygon points="374.2,99.7 366.1,12.1 380.1,99 		"/>
	</g>
	<g>
		<polygon points="351.8,104.4 332.9,18.4 357.7,102.9 		"/>
	</g>
	<g>
		<polygon points="330.2,111.8 300.6,29 335.7,109.6 		"/>
	</g>
	<g>
		<polygon points="309.6,121.9 269.9,43.4 314.9,119 		"/>
	</g>
	<g>
		<polygon points="290.5,134.5 241.3,61.6 295.4,130.9 		"/>
	</g>
	<g>
		<polygon points="273.2,149.3 215.2,83.2 277.5,145.2 		"/>
	</g>
	<g>
		<polygon points="257.8,166.3 192,108 261.6,161.6 		"/>
	</g>
	<g>
		<polygon points="244.6,185 172.1,135.4 247.8,179.9 		"/>
	</g>
	<g>
		<polygon points="233.9,205.2 155.7,165 236.5,199.7 		"/>
	</g>
	<g>
		<polygon points="223.4,225.8 143.2,196.6 225.2,220.1 		"/>
	</g>
	<g>
		<polygon points="220.6,248.8 134.7,229.4 221.7,242.9 		"/>
	</g>
	<g>
		<polygon points="218.1,271.5 130.5,263 218.5,265.5 		"/>
	</g>
	<g>
		<polygon points="218.5,294.5 130.5,297 218.1,288.5 		"/>
	</g>
	<g>
		<polygon points="221.7,317.1 134.7,330.6 220.6,311.2 		"/>
	</g>
	<g>
		<polygon points="226.8,339.4 143.2,363.4 225,333.7 		"/>
	</g>
	<g>
		<polygon points="236.5,360.3 155.7,395 233.9,354.8 		"/>
	</g>
	<g>
		<polygon points="247.8,380.1 172.1,424.6 244.6,375 		"/>
	</g>
	<g>
		<polygon points="261.6,398.4 192,452 257.8,393.7 		"/>
	</g>
	<g>
		<polygon points="277.5,414.8 215.2,476.8 273.2,410.7 		"/>
	</g>
	<g>
		<polygon points="295.4,429.1 241.3,498.4 290.5,425.5 		"/>
	</g>
	<g>
		<polygon points="314.9,441 269.9,516.6 309.6,438.1 		"/>
	</g>
	<g>
		<polygon points="335.7,450.4 300.6,531 330.2,448.2 		"/>
	</g>
	<g>
		<polygon points="357.7,457.1 332.9,541.6 351.8,455.6 		"/>
	</g>
	<g>
		<polygon points="380.1,461 366.1,547.9 374.2,460.3 		"/>
	</g>
</g>
</svg>
