<?xml version="1.0" encoding="utf-8"?>
<!-- Generator: Adobe Illustrator 15.0.0, SVG Export Plug-In . SVG Version: 6.00 Build 0)  -->
<!DOCTYPE svg PUBLIC "-//W3C//DTD SVG 1.1//EN" "http://www.w3.org/Graphics/SVG/1.1/DTD/svg11.dtd">
<svg version="1.1" id="layer_x5F_www.ABC-color.com"
	 xmlns="http://www.w3.org/2000/svg" xmlns:xlink="http://www.w3.org/1999/xlink" x="0px" y="0px" width="822px" height="567px"
	 viewBox="0 0 822 567" enable-background="new 0 0 822 567" xml:space="preserve">
<path fill="#FFFFFF" stroke="#000000" d="M605,483c0,0-7,19-20,20c0,0-29.2,18.7-97.9-36.9c-4.3-3.5-8.8-7.3-13.398-11.398L513,440
	c-0.5,2.3-0.4,4.6,0.2,6.9C518,465.5,554.1,485.2,579,479C579,479,596,450,605,483z"/>
<path fill="#FFFFFF" stroke="#000000" d="M374,441l39.3,14.8c-4.6,4.102-9.1,7.9-13.398,11.4C331.2,522.7,302,504,302,504
	c-13-1-20-20-20-20c9-33,26-4,26-4c24.9,6.2,60.9-13.5,65.8-32.1C374.4,445.6,374.5,443.3,374,441z"/>
<path fill="#FFFFFF" stroke="#000000" d="M451.3,511l-0.3,32c0,0-3,4-7,4l-2.8,0.7c-3.102-0.9-5.2-3.7-5.2-3.7l-0.3-34.2
	c2.6-0.8,11.7-3,14.3,1.2H451.3z"/>
<path fill="#FFFFFF" stroke="#000000" d="M451.6,470.5L451.4,498l-0.102,13H450c-2.6-4.3-11.7-2-14.3-1.2L435.6,499l-0.198-27.5
	c2.3,0.3,5.1,0.3,8.6-0.5l0.1-0.8C447.1,470.8,449.6,470.8,451.6,470.5z"/>
<path fill="#FFFFFF" stroke="#000000" d="M510,411c0,0,7,10,3,29l-39.3,14.8c-3-2.6-6-5.398-9.102-8.3C464.9,426.6,464,397,464,397
	v-14C464,383,499,390,510,411z"/>
<path fill="#FFFFFF" stroke="#000000" d="M423,384v14c0,0-0.9,29.6-0.6,49.5c-3.102,2.9-6.102,5.6-9.102,8.3L374,441
	c-4-19,3-29,3-29C388,391,423,384,423,384z"/>
<path id="www.ABC-color.com" fill="#FFFFFF" stroke="#000000" d="M464.6,446.5c-0.1,9.8-0.6,17.2-1.6,17.5
	c-2.3,0.8-4.5,5.4-11.4,6.5c-2,0.3-4.5,0.3-7.5-0.3L444,471c-3.5,0.8-6.3,0.8-8.6,0.5c-6.9-1-9.102-5.7-11.4-6.5
	c-1-0.3-1.4-7.7-1.6-17.5C422.1,427.6,423,398,423,398c7-12,20-11,20-11l1-1c0,0,13-1,20,11C464,397,464.9,426.6,464.6,446.5z"/>
<path fill="#FFFFFF" stroke="#000000" d="M464,383v14c-7-12-20-11-20-11l-1,1c0,0-13-1-20,11v-14v-17l41-1V383z"/>
<path fill="#FFFFFF" stroke="#000000" d="M461,291c0,0,50,38,3,75l-41,1c-47-37,3-75,3-75L461,291z"/>
<path fill="#FFFFFF" stroke="#000000" d="M461,291l-35,1c0,0,6-20.1,0.5-30.8l0.5-0.3l33.6-1C455,270.6,461,291,461,291z"/>
<path fill="#FFFFFF" stroke="#000000" d="M465,241c0,0,10,7-1,15c-1.5,1-2.6,2.4-3.4,4l-33.6,1l-0.5,0.3l0,0c-0.8-1.7-2-3.1-3.5-4.3
	c-11-8-1-15-1-15L465,241z"/>
<path fill="#FFFFFF" stroke="#000000" d="M466,219l-1,22l-43,1l-1-22v-0.5c14.6,0,29-0.2,43.1-0.7c0.602,0,1.302,0,1.9-0.1V219z"/>
<path fill="#FFFFFF" stroke="#000000" d="M484,206.1V218c-6,0.3-12,0.5-18,0.7c-0.6,0-1.3,0-1.9,0.1c-14.1,0.5-28.5,0.7-43.1,0.7
	c-177.2,0-323.3-35-343.2-80c0-1.9-0.8-20.6-0.3-22.5c0,50,154.7,90.5,345.5,90.5c14.6,0,29-0.2,43.1-0.7
	C472.1,206.6,478.1,206.4,484,206.1z"/>
<path fill="#FFFFFF" stroke="#000000" d="M677,191L677,191c-50.5,13.8-117.9,23.4-193,27v-11.9c74.4-3.5,140.6-13.2,190.3-27
	l1.7,0.9L677,191z"/>
<path fill="#FFFFFF" stroke="#000000" d="M674.3,179.1c57.5-16,93.102-37.4,94.102-61h0.3c-0.5,8.5-1.9,24.9-4.7,28.9
	c-12.2,17-43.3,32.1-87,44l0,0l-1-11L674.3,179.1z"/>
<path fill="#FFFFFF" stroke="#000000" d="M768.5,117c0,0.4,0,0.7,0,1.1c-1.1,23.6-36.6,45.1-94.1,61l-277-152.3
	c8.5-0.2,17-0.3,25.6-0.3C613.8,26.5,768.5,67,768.5,117z"/>
<path fill="#FFFFFF" stroke="#000000" d="M397.4,26.8l277,152.3c-49.802,13.8-115.9,23.5-190.302,27V205L197,49l-0.1-0.4
	c1.7-0.4,3.4-0.8,5.2-1.1C255.8,35.7,323.4,28.2,397.4,26.8z"/>
<path fill="#FFFFFF" stroke="#000000" d="M484,205v1.1c-5.9,0.3-11.9,0.5-17.9,0.7c-14.1,0.5-28.5,0.7-43.1,0.7
	C232.2,207.5,77.5,167,77.5,117c0-27.3,46.3-51.8,119.4-68.4L197,49L484,205z"/>
</svg>
