<?xml version="1.0" encoding="utf-8"?>
<!-- Generator: Adobe Illustrator 15.0.0, SVG Export Plug-In . SVG Version: 6.00 Build 0)  -->
<!DOCTYPE svg PUBLIC "-//W3C//DTD SVG 1.1//EN" "http://www.w3.org/Graphics/SVG/1.1/DTD/svg11.dtd">
<svg version="1.1" id="www.ABC-color.com" xmlns="http://www.w3.org/2000/svg" xmlns:xlink="http://www.w3.org/1999/xlink" x="0px"
	 y="0px" width="822px" height="567px" viewBox="0 0 822 567" enable-background="new 0 0 822 567" xml:space="preserve">
<rect display="none" fill="#FFFFFF" width="822" height="567"/>
<path fill="#FFFFFF" stroke="#000000" d="M401.1,37.8C538.2,37.8,649.4,149,649.4,286.1c0,137.102-111.2,248.302-248.301,248.302
	C264,534.401,152.8,423.2,152.8,286.1C152.9,149,264,37.8,401.1,37.8z M619.3,293.8c0-4.7-3.8-8.399-8.399-8.399
	c-4.601,0-8.4,3.801-8.4,8.399c0,4.601,3.801,8.4,8.4,8.4S619.3,298.4,619.3,293.8z M593.6,397.3c2.301-4,0.9-9.2-3.1-11.5
	s-9.2-0.899-11.5,3.101c-2.301,4-0.9,9.199,3.1,11.501C586.199,402.7,591.3,401.3,593.6,397.3z M585.3,185.3
	c4-2.3,5.399-7.5,3.101-11.5c-2.3-4-7.5-5.4-11.5-3.1c-4,2.3-5.4,7.5-3.101,11.5S581.199,187.6,585.3,185.3z M553.5,291.5
	c0-4.4-3.601-8-8-8h-39.6H394.7c-0.101,0-0.3,0-0.399,0c-1.8,0.1-3.5,0.8-4.899,1.9L291.5,250.5l-66.4-23.1
	c-1.3-0.6-2.7-0.4-3.8,0.3c-0.6,0.4-1.1,1-1.5,1.8c-0.9,2,0,4.4,2.1,5.3l66.6,23.2l98,34.8c0.6,3.8,3.899,6.8,7.899,6.8h111.3h39.7
	C549.9,299.5,553.5,295.9,553.5,291.5z M503,471.5c4-2.3,5.399-7.5,3.1-11.5c-2.299-4-7.399-5.4-11.5-3.1c-4,2.3-5.399,7.5-3.1,11.5
	S499,473.8,503,471.5z M505.699,102.6c2.301-4,0.899-9.1-3.101-11.5c-4-2.3-9.199-0.9-11.5,3.1c-2.3,4-0.899,9.1,3.101,11.5
	C498.3,108,503.4,106.7,505.699,102.6z M404.199,78.7c0-4.6-3.8-8.4-8.399-8.4c-4.601,0-8.399,3.8-8.399,8.4
	c0,4.6,3.8,8.4,8.399,8.4C400.4,87.1,404.199,83.4,404.199,78.7z M404.199,489.4c0-4.602-3.8-8.4-8.399-8.4
	c-4.601,0-8.399,3.8-8.399,8.4c0,4.6,3.8,8.398,8.399,8.398C400.4,497.8,404.199,494,404.199,489.4z M401.199,438.7
	c0-3.7-3-6.7-6.699-6.7c-3.7,0-6.7,3-6.7,6.7s3,6.7,6.7,6.7C398.199,445.5,401.199,442.4,401.199,438.7z M396,264.5v-15.1
	c0-1.6-1.2-2.5-2.5-2.5h-0.1c-1.301,0-2.399,0.8-2.399,2.5v15.1c0,1.6,1,3.5,2.399,3.5h0.101C394.8,268,396,266.2,396,264.5z
	 M297.6,115.8c4-2.3,5.4-7.5,3.1-11.5c-2.3-4-7.499-5.4-11.499-3.1c-4,2.3-5.4,7.5-3.101,11.5C288.5,116.7,293.6,118.1,297.6,115.8z
	 M300.4,458.3c2.3-4,0.9-9.2-3.1-11.5s-9.2-0.898-11.5,3.102c-2.3,4-0.9,9.198,3.1,11.5C292.9,463.7,298.1,462.3,300.4,458.3z
	 M238,192c2.3-4,0.899-9.2-3.101-11.5s-9.1-0.9-11.5,3.1c-2.3,4-1,9.2,3.101,11.5C230.5,197.4,235.6,196,238,192z M229.6,390.6
	c4-2.3,5.4-7.5,3.101-11.5c-2.301-4-7.5-5.398-11.5-3.1s-5.4,7.5-3.101,11.5C220.5,391.6,225.6,392.9,229.6,390.6z M208.6,293.8
	c0-4.7-3.8-8.399-8.399-8.399c-4.601,0-8.4,3.801-8.4,8.399c0,4.601,3.8,8.4,8.4,8.4C204.9,302.2,208.6,298.4,208.6,293.8z"/>
<path fill="#FFFFFF" stroke="#000000" d="M610.9,285.4c4.601,0,8.399,3.8,8.399,8.398c0,4.602-3.8,8.4-8.399,8.4
	c-4.601,0-8.399-3.801-8.399-8.4C602.5,289.1,606.199,285.4,610.9,285.4z"/>
<path fill="#FFFFFF" stroke="#000000" d="M403,12.6c152,0,275.3,123.3,275.3,275.3c0,152-123.2,275.3-275.3,275.3
	c-152,0-275.3-123.3-275.3-275.3C127.7,135.9,250.9,12.6,403,12.6z M649.4,286.1C649.4,149,538.2,37.8,401.1,37.8
	C264,37.8,152.9,149,152.9,286.1c0,137.102,111.2,248.302,248.3,248.302C538.3,534.4,649.4,423.2,649.4,286.1z"/>
<path fill="#FFFFFF" stroke="#000000" d="M590.5,385.8c4,2.3,5.399,7.5,3.1,11.5c-2.299,4-7.5,5.4-11.5,3.102
	c-4-2.302-5.399-7.501-3.1-11.501C581.4,384.9,586.5,383.5,590.5,385.8z"/>
<path fill="#FFFFFF" stroke="#000000" d="M588.3,173.8c2.3,4,0.899,9.2-3.101,11.5c-4,2.3-9.199,0.9-11.5-3.1
	c-2.3-4-1-9.2,3.101-11.5C580.9,168.4,586,169.8,588.3,173.8z"/>
<path fill="#FFFFFF" stroke="#000000" d="M506.1,460c2.301,4,1,9.1-3.1,11.5c-4,2.3-9.2,1-11.5-3.1c-2.301-4-0.9-9.2,3.1-11.5
	C498.6,454.6,503.699,456,506.1,460z"/>
<path fill="#FFFFFF" stroke="#000000" d="M502.699,91.2c4,2.3,5.399,7.5,3.101,11.5s-7.5,5.4-11.5,3.1c-4-2.3-5.399-7.5-3.101-11.5
	C493.5,90.2,498.6,88.9,502.699,91.2z"/>
<path fill="#FFFFFF" stroke="#000000" d="M395.8,70.3c4.601,0,8.399,3.8,8.399,8.4c0,4.6-3.8,8.4-8.399,8.4
	c-4.601,0-8.399-3.8-8.399-8.4C387.4,74.1,391.1,70.3,395.8,70.3z"/>
<path fill="#FFFFFF" stroke="#000000" d="M395.8,481c4.601,0,8.399,3.8,8.399,8.4c0,4.6-3.8,8.398-8.399,8.398
	c-4.601,0-8.399-3.8-8.399-8.398C387.4,484.7,391.1,481,395.8,481z"/>
<path fill="#FFFFFF" stroke="#000000" d="M394.5,432c3.699,0,6.699,3,6.699,6.7s-3,6.7-6.699,6.7c-3.7,0-6.7-3-6.7-6.7
	C387.699,435,390.8,432,394.5,432z"/>
<path fill="#FFFFFF" stroke="#000000" d="M396,249.5v15.1c0,1.6-1.2,3.5-2.5,3.5h-0.1c-1.301,0-2.399-1.8-2.399-3.5v-15.1
	c0-1.6,1-2.5,2.399-2.5h0.101C394.8,247,396,247.8,396,249.5z"/>
<path fill="#FFFFFF" stroke="#000000" d="M394.699,299.5c-4.101,0-7.5-2.9-8.101-6.7l2.801-7.3c1.3-1.1,3-1.8,4.899-1.9
	c0.101,0,0.3,0,0.399,0c4.5,0,8.2,3.6,8.2,8C402.9,295.9,399.3,299.5,394.699,299.5z"/>
<path fill="#FFFFFF" stroke="#000000" d="M386.6,292.7c0.601,3.8,4,6.7,8.101,6.7c4.5,0,8.2-3.602,8.2-8c0-4.4-3.7-8-8.2-8h111.1
	H545.4c4.399,0,8,3.6,8,8c0,4.398-3.601,8-8,8h-39.7H394.5C390.5,299.5,387.199,296.6,386.6,292.7z"/>
<path fill="#FFFFFF" stroke="#000000" d="M389.4,285.4l-2.801,7.3c-0.1-0.4-0.1-0.8-0.1-1.2v-0.3l0.1-1c0-0.101,0-0.2,0.101-0.3
	c0.101-0.301,0.101-0.5,0.2-0.801l0.1-0.399C387.5,287.4,388.4,286.3,389.4,285.4z"/>
<path fill="#FFFFFF" stroke="#000000" d="M386.699,289.9c0,0.1,0,0.199-0.101,0.3l-0.1,1v0.3c0,0.4,0,0.8,0.1,1.2l-98-34.8
	L222,234.7c-2-0.9-3-3.2-2.101-5.3c0.301-0.8,0.9-1.3,1.5-1.8c1.101-0.7,2.5-0.9,3.801-0.3l66.399,23.1l97.9,34.9
	c-1.101,0.9-1.9,2-2.4,3.4L387,289.1C386.8,289.4,386.699,289.6,386.699,289.9z"/>
<path fill="#FFFFFF" stroke="#000000" d="M300.699,104.3c2.301,4,0.9,9.2-3.1,11.5c-4,2.3-9.2,1-11.5-3.1c-2.3-4-1-9.2,3.101-11.5
	C293.3,98.9,298.4,100.3,300.699,104.3z"/>
<path fill="#FFFFFF" stroke="#000000" d="M297.3,446.8c4,2.3,5.399,7.5,3.1,11.5c-2.299,4-7.5,5.4-11.5,3.102
	c-4-2.302-5.399-7.5-3.1-11.5C288.099,445.901,293.3,444.5,297.3,446.8z"/>
<path fill="#FFFFFF" stroke="#000000" d="M234.9,180.5c4,2.3,5.4,7.5,3.101,11.5s-7.5,5.4-11.5,3.1c-4-2.3-5.4-7.4-3.101-11.5
	C225.8,179.6,230.9,178.2,234.9,180.5z"/>
<path fill="#FFFFFF" stroke="#000000" d="M232.7,379.1c2.3,4,0.899,9.2-3.101,11.5c-4,2.301-9.1,0.9-11.5-3.1
	c-2.3-4-0.899-9.2,3.101-11.5S230.4,375.1,232.7,379.1z"/>
<path fill="#FFFFFF" stroke="#000000" d="M200.2,285.4c4.6,0,8.399,3.8,8.399,8.398c0,4.602-3.8,8.4-8.399,8.4
	c-4.601,0-8.4-3.801-8.4-8.4C191.8,289.1,195.6,285.4,200.2,285.4z"/>
<g>
	<polygon points="396.3,445.4 394.4,462.5 392.3,445.5 	"/>
</g>
<line fill="none" stroke="#000000" stroke-width="2" x1="394" y1="299" x2="394" y2="432"/>
<line fill="none" stroke="#000000" stroke-width="2" x1="393.699" y1="284" x2="393.5" y2="268"/>
<g>
	<polygon points="392.3,247 393.3,236.5 394.3,247 	"/>
</g>
<path fill="none" stroke="#000000" stroke-width="2" d="M396,264.5c0,1.6-1.2,3.5-2.5,3.5h-0.1c-1.301,0-2.399-1.8-2.399-3.5v-15.1
	c0-1.6,1.1-2.5,2.399-2.5h0.101c1.3,0,2.5,0.8,2.5,2.5L396,264.5L396,264.5z"/>
<path fill="none" stroke="#000000" stroke-width="2" d="M394.5,432c3.699,0,6.699,3,6.699,6.7s-3,6.7-6.699,6.7
	c-3.7,0-6.7-3-6.7-6.7C387.699,435,390.8,432,394.5,432"/>
</svg>
