<?xml version="1.0" encoding="utf-8"?>
<!-- Generator: Adobe Illustrator 15.0.0, SVG Export Plug-In . SVG Version: 6.00 Build 0)  -->
<!DOCTYPE svg PUBLIC "-//W3C//DTD SVG 1.1//EN" "http://www.w3.org/Graphics/SVG/1.1/DTD/svg11.dtd">
<svg version="1.1" id="layer_x5F_www.ABC-color.com"
	 xmlns="http://www.w3.org/2000/svg" xmlns:xlink="http://www.w3.org/1999/xlink" x="0px" y="0px" width="822px" height="567px"
	 viewBox="0 0 822 567" enable-background="new 0 0 822 567" xml:space="preserve">
<path fill="#FFFFFF" stroke="#000000" d="M210.6,263.6l-0.2,0.4l-1.5,44.4l-19.3-8.602l0.4-14.5l0.9-30.8
	C197.3,257.5,203.9,260.6,210.6,263.6z"/>
<polygon fill="#FFFFFF" stroke="#000000" points="620.3,422.3 619,423.3 607,433 578.9,429 595.1,417.9 "/>
<path fill="#FFFFFF" stroke="#000000" d="M619.6,424.2C612,435,601,449.2,598.4,452.6l-0.2-0.198c0.7-0.9,1.398-1.9,2.1-2.9
	c2.8-4,4.8-12.4,6.7-16.6l11.9-9.602L619.6,424.2z"/>
<path fill="#FFFFFF" stroke="#000000" d="M726.1,394.8c2.802-4,4.802-12.399,6.7-16.6l11.9-9.601l0.7,0.801
	c-7.302,10.398-17.802,24-20.9,28l-0.2-0.102C724.9,396.5,725.5,395.7,726.1,394.8z"/>
<polygon fill="#FFFFFF" stroke="#000000" points="746,367.6 744.8,368.6 732.8,378.3 704.7,374.3 720.9,363.2 "/>
<polygon fill="#FFFFFF" stroke="#000000" points="584.6,318.3 582.1,368.4 558.8,359.6 559.5,349 560.7,328.2 572,324.4 "/>
<polygon fill="#FFFFFF" stroke="#000000" points="594,314.1 591.7,361.9 591.5,365.3 582.1,368.4 584.6,318.3 594,313.7 "/>
<polygon fill="#FFFFFF" stroke="#000000" points="618.8,304.1 619.6,321 594.7,313.9 601,311.8 607.7,309.1 "/>
<polygon fill="#FFFFFF" stroke="#000000" points="620.1,295.3 629.9,291.7 645,283.5 644.8,307.2 639.3,309.9 619.6,321 
	618.8,304.1 619,304 618.4,295.9 "/>
<polygon fill="#FFFFFF" stroke="#000000" points="584.6,318.3 572,324.4 570.8,315.6 618.4,295.9 618.8,304.1 607.7,309.1 
	601,311.8 594.7,313.9 594,313.7 "/>
<polygon fill="#FFFFFF" stroke="#000000" points="570.8,315.6 572,324.4 560.7,328.2 535.6,341 528.6,344.5 529.9,335.1 "/>
<path id="www.ABC-color.com" fill="#FFFFFF" stroke="#000000" d="M315.3,343.4l0.8-30.301l0.4-0.801c6.4,2.9,12.8,5.801,19.1,8.7v50
	l-20.8-10.7L315.3,343.4z"/>
<path fill="#FFFFFF" stroke="#000000" d="M353.1,329l-1,31.2l-0.198,6.3l-16.4,4.4v-50C341.5,323.7,347.4,326.3,353.1,329z"/>
<path fill="#FFFFFF" stroke="#000000" d="M693.1,389.8c-20.8,17.5-52.1,7.9-52.1,7.9l-34.4-10.5l-93.3-35.5l0,0l15.3-7.3l6.9-3.5
	l0.4,0.8l22.8,7.2h0.6l-0.6,10.6l23.3,8.8l9.4-3.1l0.198-3.4h0.302l19.5,6.9c0,0,50.698,20.8,81.6,19.8L693.1,389.8z"/>
<path fill="#FFFFFF" stroke="#000000" d="M503.3,368.8l-1.1,3.4v-3.4v-11.7l11.1-5.3l0,0l93.3,35.5l34.4,10.5
	c0,0,31.3,9.602,52.1-7.899c4.5-3.801,8.5-8.801,11.602-15.601l28.1,4c-2,4.2-4,12.601-6.7,16.601c-0.6,0.899-1.198,1.699-1.8,2.501
	C688.8,443.1,597.1,406,599.6,406.8L503.3,368.8z"/>
<polygon fill="#FFFFFF" stroke="#000000" points="528.6,335.7 528.6,344.5 513.3,351.8 502.2,357.1 502.8,348.3 "/>
<path fill="#FFFFFF" stroke="#000000" d="M479,358.4l23.3-12V357.1v11.7v3.4L480.9,385.4C479.5,377.7,478.7,374.9,479,358.4z"/>
<path fill="#FFFFFF" stroke="#000000" d="M455,416.9l-12,3.3v-49.8l0.3-0.602c4.4,2,8.5,3.801,12.3,5.4l-0.5,37L455,416.9z"/>
<path fill="#FFFFFF" stroke="#000000" d="M443.4,369.7l-0.302,0.6v49.8l-21.398-9.6l0.6-16.3l1.3-32.101l0.5-1
	C431,364.2,437.5,367.1,443.4,369.7z"/>
<path fill="#FFFFFF" stroke="#000000" d="M455.5,412.2c0,0,80.7,32.1,111.8,31.1v1.3c-20.8,17.5-52.1,7.9-52.1,7.9L483.1,439.9
	l-44.698-17C374.8,397.1,184.2,307.4,58.8,242l16.8-8.8l6.7,3l-0.8,9l17.6,8.8h10.7l0.4-8.2h0.2l79.2,39.601h0.4l-0.4,14.5
	l19.3,8.601l9-4.2l0.4-5h0.3l96.7,44.102l-0.5,16.898l20.8,10.7l16.4-4.399l0.2-6.301h1.1l68.5,34h0.602l-0.602,16.3l21.4,9.602
	l12-3.3l0.1-4.7h0.2V412.2z"/>
<path fill="#FFFFFF" stroke="#000000" d="M478.6,463.1L478.6,463.1l-45.1-16.3C314.7,395.6,56.1,268.2,56.1,268.2
	c-16.4-17.6,2.7-26.2,2.7-26.2c125.4,65.4,316,155.1,379.7,180.9l44.7,17l32.1,12.6c0,0,31.2,9.6,52.102-7.9
	c4.5-3.8,8.5-8.898,11.6-15.6l28.1,4c-2,4.2-4,12.6-6.698,16.6c-0.7,1-1.4,2-2.102,2.9C563.5,496.5,480.1,463.9,478.6,463.1
	L478.6,463.1z"/>
<path fill="#FFFFFF" stroke="#000000" d="M220.8,268.4l-0.3,0.7l-2.2,30.2l-0.4,5l-9,4.2l1.5-44.4l0.2-0.4
	C213.9,265.2,217.3,266.8,220.8,268.4z"/>
<path fill="#FFFFFF" stroke="#000000" d="M101.3,213.5l-0.3,0.9L99.1,254l-17.6-8.8l0.8-9l0.5,0.2l1.9-28.3l-1.7-1.2
	C86.5,208.1,94.5,210.8,101.3,213.5z"/>
<path fill="#FFFFFF" stroke="#000000" d="M111.7,218L111.7,218l-1.5,27.7l-0.4,8.2H99.1l1.9-39.6l0.3-0.9c2.2,0.9,4.3,1.7,6,2.6
	C108.7,216.7,110.1,217.3,111.7,218z"/>
<path fill="#FFFFFF" stroke="#000000" d="M480.8,385.4c0.102,0.6-9.3-3.301-25.2-10.301c-3.8-1.699-7.898-3.5-12.3-5.399
	C437.4,367.1,430.9,364.2,424,361.1c-20.3-9.1-44.7-20.199-70.9-32.1c-5.8-2.6-11.6-5.3-17.6-8c-6.3-2.9-12.7-5.8-19.1-8.7
	c-32-14.6-65.102-29.8-95.7-43.9c-3.4-1.6-6.8-3.2-10.2-4.7c-6.7-3.1-13.3-6.1-19.7-9c-33.4-15.4-61.7-28.5-79.2-36.6
	c-1.5-0.7-3-1.4-4.3-2c-1.8-0.8-3.8-1.7-6-2.6c-6.8-2.7-14.8-5.4-18.4-6.6L72,199.3v-25.8l407,184.9
	C478.7,374.9,479.5,377.7,480.8,385.4z"/>
<path fill="#FFFFFF" stroke="#000000" d="M344.8,273.2c0,0,152.4,75.1,157.4,73.2l-23.3,12L72,173.5l11.3-5.7l19.1-7.1l0.2,0.5
	L344.8,273.2z"/>
<path fill="#FFFFFF" stroke="#000000" d="M502.8,348.3l-0.6,8.8V346.4c-5,1.898-157.4-73.2-157.4-73.2l-242.1-112l-0.2-0.5l9.8-3.6
	l19.9-7.3v0.1l217,99.4L528.6,335.7L502.8,348.3z"/>
<polygon fill="#FFFFFF" stroke="#000000" points="645,283.5 629.9,291.7 620.1,295.3 215,118.8 237.2,110.3 "/>
<path fill="#FFFFFF" stroke="#000000" d="M618.4,295.9L570.8,315.6c-0.6-2.5-207.5-95-207.5-95l-189.5-85.1l-0.3-0.8l15.6-5.9l26-10
	l405.1,176.4L618.4,295.9z"/>
<path fill="#FFFFFF" stroke="#000000" d="M529.9,335.1l-1.302,9.4v-8.8L349.2,249.3l-217-99.4v-0.1l26.7-9.7l14.6-5.5l0.3,0.8
	l189.5,85.1c0,0,206.9,92.5,207.5,95L529.9,335.1z"/>
</svg>
