<?xml version="1.0" encoding="utf-8"?>
<!-- Generator: Adobe Illustrator 15.0.0, SVG Export Plug-In . SVG Version: 6.00 Build 0)  -->
<!DOCTYPE svg PUBLIC "-//W3C//DTD SVG 1.1//EN" "http://www.w3.org/Graphics/SVG/1.1/DTD/svg11.dtd">
<svg version="1.1" id="layer_x5F_www.ABC-color.com"
	 xmlns="http://www.w3.org/2000/svg" xmlns:xlink="http://www.w3.org/1999/xlink" x="0px" y="0px" width="822px" height="567px"
	 viewBox="0 0 822 567" enable-background="new 0 0 822 567" xml:space="preserve">
<path fill="#FFFFFF" stroke="#000000" d="M645,283.5l-15.1,8.2c-2.602-6.101-5.5-12.1-8.602-18.1L645,283.5z"/>
<path fill="#FFFFFF" stroke="#000000" d="M645.1,350.9c0.7,10.3,0.2,20.5-1.698,30.398c-0.802,4.102-1.802,8.102-3,12.102
	c-0.7,2.398-1.602,4.8-2.5,7.1l-0.802-0.1c8.4-38.4-6.698-97.7-71.698-189.2l21.6,10.3c4,5.1,8,10.3,11.8,15.7
	c4.602,6.5,9,13.2,13.2,20.1c1.1,1.9,2.2,3.7,3.3,5.6c2.102,3.6,4,7.2,5.9,10.8l0,0c3.1,6,6,12,8.6,18.1
	c2.8,6.7,5.4,13.4,7.5,20.101c0.9,2.801,1.7,5.5,2.4,8.301c0.7,2.5,1.3,5,1.8,7.398C643.4,335.4,644.6,343.2,645.1,350.9z"/>
<path fill="#FFFFFF" stroke="#000000" d="M679.6,187.3C744.9,255.2,747.5,317.9,740.7,354.7c7.5-76.5-78.7-164.3-78.7-164.3
	L679.6,187.3z"/>
<path fill="#FFFFFF" stroke="#000000" d="M740.7,354.7c-1.4,14-5.9,27.5-14.602,40.2C695.3,439.6,631.9,419.2,631.9,419.2
	l-1.4-0.102c2.8-5.6,5.1-11.8,6.6-18.6l0.802,0.1c0.898-2.398,1.8-4.698,2.5-7.1c5.898,2.101,34.3,10.9,53.198-4.5
	c11.4-9.3,19.4-27.399,16.802-61.101l20-7.101l-5.7-20.8l-19.5-1.9c3.398-12-23.7-48.8-28.8-55.5l10.5-11.8l-15.7-19.5l-14.8,5.3
	l-0.302-0.9l-8.198-10.1l13.8-15.1C662,190.4,748.2,278.2,740.7,354.7z"/>
<path fill="#FFFFFF" stroke="#000000" d="M710.5,327.7l-65.4,23.2c-0.5-7.7-1.698-15.5-3.398-23.4l83.2-27.7l5.698,20.8L710.5,327.7
	z"/>
<path fill="#FFFFFF" stroke="#000000" d="M724.9,299.9L641.7,327.6c-0.5-2.5-1.2-5-1.8-7.398l65.5-22.102L724.9,299.9z"/>
<path fill="#FFFFFF" stroke="#000000" d="M693.4,388.6l0.3,0.301c-18.9,15.399-47.3,6.601-53.2,4.5c1.3-4,2.3-8,3-12.101h0.2l0,0
	c0,0,0.1,0,0.2,0.101l0,0c0.1,0,0.1,0,0.198,0.101c0,0,0.102,0,0.2,0.101l0,0c0,0,0,0,0.102,0c0,0,0,0,0.1,0
	C648,383.1,666.6,389.7,693.4,388.6z"/>
<path fill="#FFFFFF" stroke="#000000" d="M671.4,211.2l15.698,19.5l-74.8,26.4l-0.2,0.1c-4.198-6.9-8.6-13.6-13.198-20.1l0.198-0.1
	l57.5-20.5L671.4,211.2z"/>
<path fill="#FFFFFF" stroke="#000000" d="M676.6,242.5l-0.198,0.2l-61,20.1H615.3c-1.1-1.9-2.2-3.7-3.3-5.6l0.2-0.1l74.8-26.4
	L676.6,242.5z"/>
<path id="www.ABC-color.com" fill="#FFFFFF" stroke="#000000" d="M645,283.5l1.9,22l-9.5,6.3c-2.102-6.8-4.7-13.5-7.5-20.1
	L645,283.5z"/>
<path fill="#FFFFFF" stroke="#000000" d="M601.3,409.4c4.102-5.802,7.3-12.602,8.9-20.5c1-4.9,1.5-10.102,1.3-15.9
	c-0.1-2.3-0.3-4.7-0.5-7.1c-2.4-20.602-7.2-38.602-13-54.102c-1-2.6-2-5.1-3-7.5c-2.2-5.3-4.6-10.398-7-15.1l0,0
	c-10-19.6-21.1-34.1-28.9-44.2c-6.398-8.3-10.6-13.7-10.3-16.8c0.602-7.6,16.7-17,16.7-17c65,91.5,80.1,150.8,71.7,189.2
	c-1.5,6.8-3.7,13-6.602,18.6c-28.198,55.4-115.3,51.7-115.3,51.7C492.6,473.8,57,261.6,57,261.6c-12.7-13.7-3-17.9,1.9-19.1
	c1.4-0.4,2.5-0.4,2.5-0.4S468.9,454.7,510.5,444c0,0,54,1.3,83.1-25.7C596.4,415.6,599,412.7,601.3,409.4z M626.8,357.1L622.4,338.2
	l-8.2,5.7l5,16.398L626.8,357.1z M587.1,261.5l-8.8-14.5l-6.898,5.7l8.8,13.2L587.1,261.5z"/>
<polygon fill="#FFFFFF" stroke="#000000" points="622.3,338.2 626.8,357.1 619.2,360.3 614.2,343.9 "/>
<path fill="#FFFFFF" stroke="#000000" d="M611.6,373c0.2,5.7-0.3,11-1.3,15.9l-1.1-0.2l-86.102-41l-0.198-0.4l5.8-2.7l10.398-5.3
	v0.101l20.302,10.101l-0.602,10.2l22,9.398l1.3-0.6l9.4-3.1l0.1-3L611.6,373L611.6,373z"/>
<path fill="#FFFFFF" stroke="#000000" d="M609.2,388.7l1.1,0.2c-1.7,7.898-4.8,14.698-8.898,20.5L502.3,357.7V357.1l20.7-9.8
	l0.2,0.4L609.2,388.7z"/>
<path fill="#FFFFFF" stroke="#000000" d="M584.6,318.3L572,324.4l-1.3-8.801l24.2-11.301c1,2.5,2,5,3,7.5l-4,1.9l0,0L584.6,318.3z"
	/>
<path fill="#FFFFFF" stroke="#000000" d="M364.5,209.3h-0.1c0-2.3-1.102-4.4-1.102-4.4l-168.2-78.8l0.2-0.5l19.9-6.7L588,289.2l0,0
	c2.4,4.7,4.8,9.8,7,15.1l-24.2,11.3c-0.6-2.398-192-88-206.6-94.6L364.5,209.3z"/>
<polygon fill="#FFFFFF" stroke="#000000" points="594,313.8 591.7,362.3 591.5,365.3 582.1,368.4 584.6,318.3 594,313.7 "/>
<path fill="#FFFFFF" stroke="#000000" d="M593.4,418.1l0.1,0.102c-29.1,26.898-83.1,25.7-83.1,25.7C468.9,454.6,61.3,242,61.3,242
	s-1,0.1-2.5,0.4V242l16.8-8.8l6.7,3l-0.8,9l17.6,8.8h10.7l0.4-8.2h0.2l79.2,39.601h0.4l-0.4,14.5l18.9,6.899V306l9.4-1.8l0.4-5h0.3
	l95.6,43.399h1.1l-0.5,17.601l20.8,10.7l16.4-4.4l0.2-6.3h1.1l68.5,34h0.602l-0.602,16.3l19.7,10.2l1,0.5l12.6-4.4l0.102-6.6
	C462.8,414,528.7,444.3,593.4,418.1z"/>
<path fill="#FFFFFF" stroke="#000000" d="M588,289.2L215.2,118.9l19.1-6.5h0.6l0.1,7.5l16.3,8.2l13.8-3.8L265,115h0.7l95,41.5h0.5
	l-0.5,14.5l20.1,8.2l10.102-2.5l-0.102-7.6h0.7l87.4,40.6l-0.602,14.8l22,11.9l17.602-6.3l0.1-6.6l41,21.5
	C566.9,255.1,577.9,269.6,588,289.2z"/>
<polygon fill="#FFFFFF" stroke="#000000" points="578.3,247 587.1,261.5 580.2,265.9 571.4,252.7 "/>
<polygon fill="#FFFFFF" stroke="#000000" points="559.4,349.4 560.7,328.2 572,324.4 584.6,318.3 582.1,368.4 580.8,369.1 
	558.8,359.6 "/>
<polygon fill="#FFFFFF" stroke="#000000" points="570.8,315.6 572,324.4 560.7,328.2 539.1,339.2 528.6,344.5 528.6,335.7 
	528.5,335.7 528.6,335.3 "/>
<path fill="#FFFFFF" stroke="#000000" d="M570.8,315.6l-42.1,19.7l-0.102,0.3l-181-82.3h-1.3V230l0.102-0.2l5.6,2.7
	c10.7,5,11.9-3.1,11.9-3.1l0.3-8.4C378.8,227.6,570.2,313.2,570.8,315.6z"/>
<path fill="#FFFFFF" stroke="#000000" d="M530.5,161.5l-0.6,20.1c-4.4,6.3-11.302,2.5-11.302,2.5l0.602-17.6
	c8.2,0,10.3-2.9,10.8-5.1L530.5,161.5z"/>
<path fill="#FFFFFF" stroke="#000000" d="M529.9,159c0,0,0.398,1.1,0.1,2.4c-0.4,2.2-2.6,5.1-10.8,5.1c-10,0-184.7-80.6-269.8-120.1
	c-6.6-3.1-12.7-5.9-18.1-8.4c-17.2-8-27.8-13-27.8-13l20.1-5.7L529.9,159z"/>
<polygon fill="#FFFFFF" stroke="#000000" points="528.6,335.7 528.6,344.5 522.9,347.3 502.2,357.1 502.2,348.8 "/>
<path fill="#FFFFFF" stroke="#000000" d="M528.6,335.7L502.2,348.8V346.4c-5,1.898-155.3-74.8-155.3-74.8H346.3v-18.2h1.3
	L528.6,335.7L528.6,335.7z"/>
<path fill="#FFFFFF" stroke="#000000" d="M501.6,176.3l-21-9.7l-90.3-41.9l-10.1-4.7l-17.602-8.2l-98-45.5L250.8,60l-2-0.9l0.6-12.6
	l0,0c85.1,39.5,259.8,120,269.8,120l-0.602,17.6L501.6,176.3z"/>
<polygon fill="#FFFFFF" stroke="#000000" points="518,223.5 517.9,230.1 500.3,236.4 501.6,176.3 518.6,184.2 "/>
<path fill="#FFFFFF" stroke="#000000" d="M502.2,348.8v8.3v0.602v14.5L480.8,385.4c-1.3-7.699-2.1-10.5-1.898-27l23.3-12
	L502.2,348.8L502.2,348.8z"/>
<path fill="#FFFFFF" stroke="#000000" d="M502.2,346.4l-23.3,12L72,173.5l11.3-5.7h0.8l-0.2,6.9l17,7.6l12.6-1.9l-0.1-7.6h0.1
	l75.5,34.6h1l0.3,15.8l13.8,6.3l12-6.3l0.4-8.3l1.5,0.1l100.6,46.5h0.602l-1.2,20.1l19.5,7.6l8.8-4.4v-13.2h0.602
	C346.9,271.6,497.2,348.3,502.2,346.4z"/>
<polygon fill="#FFFFFF" stroke="#000000" points="478.9,209.6 480.6,166.5 501.6,176.3 500.3,236.4 478.3,224.4 "/>
<path fill="#FFFFFF" stroke="#000000" d="M455.7,375.2c-3.8-1.7-7.9-3.5-12.3-5.4c-5.9-2.6-12.4-5.5-19.302-8.6
	C403.8,352.1,379.4,341,353.2,329.1c-5.8-2.6-11.602-5.3-17.602-8c-6.3-2.898-12.698-5.8-19.1-8.699
	c-32-14.601-65.1-29.799-95.7-43.899c-3.4-1.6-6.8-3.2-10.2-4.7c-6.7-3.1-13.3-6.1-19.7-9c-33.4-15.4-61.7-28.5-79.2-36.6
	c-1.5-0.7-3-1.4-4.3-2c-1.8-0.8-3.8-1.7-6-2.6c-6.8-2.7-14.8-5.4-18.4-6.6l-11-7.7v-25.8l407,184.899c-0.2,16.5,0.6,19.301,1.9,27
	C480.9,386,471.6,382.1,455.7,375.2z"/>
<path fill="#FFFFFF" stroke="#000000" d="M455.2,410.3L455.1,416.9l-12.6,4.398l-1-0.5l1-2l0.6-48.398l0.302-0.602
	c4.398,2,8.5,3.801,12.3,5.4L455.2,410.3z"/>
<path fill="#FFFFFF" stroke="#000000" d="M443.4,369.7l-0.302,0.6l-0.6,48.4l-1,2l-19.7-10.2l0.602-16.3l1.3-32.101l0.5-1
	C431,364.2,437.5,367.1,443.4,369.7z"/>
<polygon fill="#FFFFFF" stroke="#000000" points="390.8,169.1 390.9,176.6 380.8,179.1 380.2,120 390.3,124.6 "/>
<polygon fill="#FFFFFF" stroke="#000000" points="380.2,120 380.8,179.1 360.7,171 361.2,156.5 362.6,111.8 "/>
<path fill="#FFFFFF" stroke="#000000" d="M364.1,221l-0.3,8.4c0,0-1.3,8.2-11.898,3.1l0.6-18.2v-0.1c9.7,1.4,11.8-1.9,11.8-5h0.102
	L364.1,221z"/>
<path fill="#FFFFFF" stroke="#000000" d="M363.2,204.9c0,0,1.1,2.1,1.1,4.4c0,3.1-2.1,6.4-11.8,5c-1-0.1-2-0.3-3.2-0.6L55.7,70.3
	L72,65.9c0,0,16.4,9.4,16.4,8.8c0-0.5,83.3-21.5,122.7-31.4c12.2-3.1,20.1-5.1,20.1-5.1l0.1-0.3c5.4,2.5,11.5,5.3,18.1,8.4l0,0
	L103.5,82.9L124.2,93l70.8,33.2L363.2,204.9z"/>
<path fill="#FFFFFF" stroke="#000000" d="M353.1,329l-1,31.2l-0.198,6.3l-16.4,4.4v-50C341.5,323.7,347.4,326.3,353.1,329z"/>
<path fill="#FFFFFF" stroke="#000000" d="M218.5,168.6l-12.5-6l-17-8.1L158.9,140L113,118l-13.2-6.3L85.9,105l-29-13.9l-1.3-20.8
	l293.7,143.4c1.102,0.2,2.2,0.4,3.2,0.6v0.1l-0.6,18.2l-5.602-2.7l-7.398-3.5l-17.2-8.3L218.5,168.6z"/>
<polygon fill="#FFFFFF" stroke="#000000" points="346.3,229.9 346.3,230.1 346.3,253.3 346.3,271.6 346.3,284.8 337.4,289.2 
	338.7,226.9 339,226.4 "/>
<polygon fill="#FFFFFF" stroke="#000000" points="321.7,218.1 339,226.4 338.7,226.9 337.4,289.2 317.9,281.6 319.1,261.5 
	320.3,242.1 "/>
<path fill="#FFFFFF" stroke="#000000" d="M335.5,321v50l-20.8-10.7l0.5-17.6L316,313.1l0.4-0.8C322.9,315.2,329.3,318.1,335.5,321z"
	/>
<polygon fill="#FFFFFF" stroke="#000000" points="321.7,218.1 321.7,218.1 320.3,242.1 319.2,242 217.4,193 218.5,168.6 "/>
<polygon fill="#FFFFFF" stroke="#000000" points="320.3,242.1 319.1,261.5 318.6,261.5 217.9,215 216.4,214.9 217.4,193 319.2,242 
	"/>
<polygon fill="#FFFFFF" stroke="#000000" points="265,115 265.1,124.4 251.3,128.2 250.6,60.3 250.8,60 264.6,66.4 264.5,66.5 "/>
<path fill="#FFFFFF" stroke="#000000" d="M250.6,60.3l0.6,67.9l-16.3-8.2l-0.1-7.5l-0.6-49l-0.1-0.3c8.9-2.5,14.5-4.1,14.5-4.1
	l2,0.9V60.3L250.6,60.3z"/>
<path fill="#FFFFFF" stroke="#000000" d="M249.4,46.4L248.8,59c0,0-5.6,1.6-14.5,4.1c-32.5,9.1-108.5,30.4-110,29.9l-20.8-10.1
	L249.4,46.4z"/>
<path fill="#FFFFFF" stroke="#000000" d="M231.3,38l-0.1,0.3c0,0-7.9,2-20.1,5.1l0,0l-5.7-3.1L203.5,25C203.5,25,214,30,231.3,38z"
	/>
<path fill="#FFFFFF" stroke="#000000" d="M220.8,268.4l-0.3,0.7l-2.2,30.2l-0.4,5l-9.4,1.8l1.9-42l0.2-0.4
	C213.9,265.2,217.3,266.8,220.8,268.4z"/>
<polygon fill="#FFFFFF" stroke="#000000" points="217.4,193 216.4,214.9 216.1,223.2 204.1,229.4 206,162.6 218.5,168.6 "/>
<path fill="#FFFFFF" stroke="#000000" d="M208.5,306v0.8l-18.9-6.899l0.4-14.5l0.9-30.799c6.4,2.9,13,6,19.7,9l-0.2,0.4L208.5,306z"
	/>
<polygon fill="#FFFFFF" stroke="#000000" points="189.5,180.3 189,154.4 206,162.6 204.1,229.4 190.3,223.2 190,207.4 "/>
<polygon fill="#FFFFFF" stroke="#000000" points="189.5,180.3 190,207.4 189,207.4 113.5,172.8 113.5,172.8 113.3,156.7 131,150.3 
	131.1,150.8 "/>
<polygon fill="#FFFFFF" stroke="#000000" points="189,154.4 189.5,180.3 131.1,150.8 131,150.3 158.8,140.1 158.9,140 "/>
<polygon fill="#FFFFFF" stroke="#000000" points="113.3,156.7 113.5,172.8 113.5,180.4 101,182.3 99.7,111.8 99.8,111.6 113,118 
	112.9,118.1 "/>
<path fill="#FFFFFF" stroke="#000000" d="M111.7,218L111.7,218l-1.5,27.7l-0.4,8.2H99.1l1.9-39.6l0.3-0.9c2.2,0.9,4.3,1.7,6,2.6
	C108.7,216.7,110.1,217.3,111.7,218z"/>
<path fill="#FFFFFF" stroke="#000000" d="M101.3,213.5l-0.3,0.9L99.1,254l-17.6-8.8l0.8-9l0.5,0.2l1.9-28.3l-1.7-1.2
	C86.5,208.1,94.5,210.8,101.3,213.5z"/>
<polygon fill="#FFFFFF" stroke="#000000" points="99.7,111.8 101,182.3 84,174.7 84.2,167.8 85.9,105 99.8,111.6 "/>
</svg>
