<?xml version="1.0" encoding="utf-8"?>
<!-- Generator: Adobe Illustrator 15.0.0, SVG Export Plug-In . SVG Version: 6.00 Build 0)  -->
<!DOCTYPE svg PUBLIC "-//W3C//DTD SVG 1.1//EN" "http://www.w3.org/Graphics/SVG/1.1/DTD/svg11.dtd">
<svg version="1.1" id="Layer_1" xmlns="http://www.w3.org/2000/svg" xmlns:xlink="http://www.w3.org/1999/xlink" x="0px" y="0px"
	 width="822px" height="567px" viewBox="0 0 822 567" enable-background="new 0 0 822 567" xml:space="preserve">
<g id="COLORING">
	<path fill="#FFFFFF" stroke="#000000" stroke-miterlimit="10" d="M482.5,16.3v442.2l-337.8-28.3
		C144.7,430.2,227.7,220.3,482.5,16.3z"/>
	<path fill="#FFFFFF" stroke="#000000" stroke-miterlimit="10" d="M150,480c0,0-9.6-8.1,0-15h550.2c0,0,5.899,7.2,0,15
		C699.9,480.4,150,480,150,480z"/>
	<path fill="#FFFFFF" stroke="#000000" stroke-miterlimit="10" d="M151.4,480c0,0,484.6,0,548.6,0c-8.9,49-83.3,79.8-83.3,79.8
		c-41.5-14.2-99.101,2.4-99.101,2.4c-47.3-18.5-100.6,0-100.6,0c-44.4-17.101-101.5,0-101.5,0c-55.2-20-103.8-2.601-106.9-5.5
		C186,535.8,151.4,480,151.4,480z"/>
</g>
</svg>
