<?xml version="1.0" encoding="utf-8"?>
<!-- Generator: Adobe Illustrator 15.0.0, SVG Export Plug-In . SVG Version: 6.00 Build 0)  -->
<!DOCTYPE svg PUBLIC "-//W3C//DTD SVG 1.1//EN" "http://www.w3.org/Graphics/SVG/1.1/DTD/svg11.dtd">
<svg version="1.1" id="layer_x5F_www.ABC-color.com"
	 xmlns="http://www.w3.org/2000/svg" xmlns:xlink="http://www.w3.org/1999/xlink" x="0px" y="0px" width="822px" height="567px"
	 viewBox="0 0 822 567" enable-background="new 0 0 822 567" xml:space="preserve">
<path fill="#FFFFFF" stroke="#000000" d="M761.1,145.6c6.9,49.9-28.6,96.5-65.698,144.4c-4.5,5.2-9.602,10-13,16
	c-6.802,5.8-13.2,13-19,20c-5,3.3-9.7,8-13,13c-16.802,14.3-36.9,33.7-62,47.6C565.3,399.4,531.1,411.3,510.2,397.3
	c0.2-0.1,0.3-0.2,0.5-0.3c18.8,3.5,41.6-5.5,60.7-16.3c33.3-18.8,67.8-50.101,90.198-74.2c21.9-23.6,46-53.5,65.2-87.3
	c16.3-28.8,29.7-59.1,25.602-88C754.6,131.6,758.7,145.3,761.1,145.6z"/>
<path fill="#FFFFFF" stroke="#000000" d="M695.4,290c17.6,18.9,29.6,51.6,25.398,74.5c-8.6,47.1-62.7,5-70.398-25.5
	c3.3-5,8-9.7,13-13c10.8,13.2,18,33.9,35.8,38.5c1.898-0.5,2.5-2.5,3.398-3.9c0.2-19.8-9.698-38.5-20.3-54.6
	C685.8,299.9,690.9,295.1,695.4,290z"/>
<path fill="#FFFFFF" stroke="#000000" d="M654,235.2c-3.5,9.1-12.4,15.6-16,24.7c2.6,8.9,5,18,6.9,27c-8.4-0.5-16.5-6.602-24.9-9.3
	c-7.9,4.1-14.4,12.3-22.5,15.7c-1.6-9.6,1.4-19.4,0.5-29.2c-5.4-6.1-12.5-10.9-18.5-16.6c-1-0.4-1.5-1.5-1.6-2.4
	c8-4,17.1-4.9,25.3-8.4c3.7-8.8,5.7-19,9.7-27.3c6.3,6.3,9.398,16.4,15,23.8C636.5,234.5,645.7,233.8,654,235.2z"/>
<path fill="#FFFFFF" stroke="#000000" d="M682.6,192.7c0.9,22.1-1,44.2-1.198,66.3c-19,21.3-39.302,42.6-60.102,62.4
	c-18.3-1.301-36.7-3.5-54.898-5.4c-3.802-20.6,0.6-45,0-67c19.8-20.9,39.6-43.5,60.898-62.5C645.7,189.2,664.3,189.9,682.6,192.7z
	 M638,259.9c3.6-9.1,12.5-15.5,16-24.7c-8.3-1.4-17.5-0.7-26.1-2c-5.602-7.4-8.7-17.5-15-23.8c-4,8.2-6,18.4-9.7,27.3
	c-8.2,3.5-17.3,4.4-25.3,8.4c0.1,0.9,0.6,1.9,1.6,2.4c6,5.7,13.1,10.5,18.5,16.6c0.9,9.8-2.1,19.5-0.5,29.2
	c8.2-3.5,14.6-11.6,22.5-15.7c8.3,2.7,16.5,8.8,24.9,9.3C643,277.8,640.5,268.7,638,259.9z"/>
<path fill="#FFFFFF" stroke="#000000" d="M752.4,131c4.1,29-9.2,59.3-25.602,88c-19.2,33.8-43.3,63.7-65.2,87.3
	C639.2,330.5,604.7,361.7,571.4,380.5c-19.102,10.8-42,19.9-60.7,16.3c-0.2,0.102-0.3,0.2-0.5,0.3
	C477.3,376.4,498.1,330.7,513.9,300.9C533,265,564.3,226,588.7,200.2c22.8-24.1,50.8-49.2,82.7-67.8C696,118.3,736.9,98.3,752.4,131
	z M730.8,180.5c5-18.3,5-43.9-18.5-46c-31.898-2.8-88,40.5-125.3,81c-36.3,39.5-68.6,89.8-73.9,124.9c-0.698,4.398-0.5,9.1-0.6,13.5
	c1.6,15.199,10.9,24,26.8,22.5c39.2-3.801,77.5-38,111.7-73C690.2,263.3,721.3,215.3,730.8,180.5z"/>
<path fill="#FFFFFF" stroke="#000000" d="M712.3,134.5c23.5,2.1,23.5,27.7,18.5,46c-9.5,34.8-40.6,82.8-79.898,123
	c-34.102,35-72.5,69.2-111.7,73c-15.9,1.5-25.2-7.3-26.8-22.5c0.1-4.5-0.102-9.1,0.6-13.5c5.3-35.2,37.5-85.5,73.9-124.9
	C624.2,175,680.3,131.7,712.3,134.5z M681.4,259c0.198-22.1,2.1-44.2,1.198-66.3c-18.3-2.8-37-3.5-55.3-6.2
	c-21.3,19-41.1,41.6-60.898,62.5c0.6,22-3.7,46.4,0,67c18.198,1.9,36.6,4.1,54.898,5.4C642.1,301.6,662.4,280.3,681.4,259z"/>
<path fill="none" stroke="#000000" d="M182.1,318.7c26.5,6.6-1.9,50.8-15.6,20.3C163,327.8,171.7,316.1,182.1,318.7z"/>
<path id="www.ABC-color.com" fill="none" stroke="#000000" d="M250.5,336.5c19.8-0.3,17.7,38.4-3.6,30.7c-4.3-1.5-6.6-4.7-8.4-10.3
	C235.1,346.1,242.2,336.6,250.5,336.5z"/>
<path fill="none" stroke="#000000" d="M266.6,262.5c19.8-1.9,20,37.7-2.3,30.6c-4.6-1.5-7-4.398-8.9-10.1
	C252.7,272.3,258.2,263.3,266.6,262.5z"/>
<path fill="none" stroke="#000000" d="M194,247.6c26.9,4.5,0.5,52.9-15,19.9C176.5,255.6,185.4,246.1,194,247.6z"/>
<path fill="#FFFFFF" stroke="#000000" d="M332,254c26.1,61.3-0.3,139.5-65.5,165.5c-12.1,4.8-24.3,7.9-40,8
	c-63.1,0.4-115.6-55.3-117-118.5c-1.7-53.4,28-101.9,75.5-120.6C245.9,164.4,308.3,198.4,332,254z M264.4,293.1
	c22.2,7.102,22-32.5,2.3-30.6c-8.4,0.8-13.9,9.8-11.1,20.5C257.4,288.7,259.8,291.6,264.4,293.1z M246.9,367.2
	c21.4,7.7,23.4-31,3.6-30.7c-8.3,0.1-15.4,9.6-12,20.5C240.2,362.5,242.6,365.7,246.9,367.2z M179,267.5c15.6,33,42-15.4,15-19.9
	C185.4,246.1,176.5,255.6,179,267.5z M166.5,339c13.7,30.5,42.1-13.7,15.6-20.3C171.7,316.1,163,327.8,166.5,339z"/>
<path fill="#FFFFFF" stroke="#000000" d="M222.5,154c105.9-2.2,173.2,111.7,140.4,206.5c-27.602,79.7-116.8,126.4-197,87.7
	c-48-23.102-79.4-72.3-84.4-126.3C72.2,234,141.3,155.7,222.5,154z M266.5,419.5c65.2-26,91.6-104.3,65.5-165.5
	c-23.7-55.6-86.1-89.6-147-65.6c-47.5,18.7-77.3,67.2-75.5,120.6c1.4,63.2,53.9,118.9,117,118.5
	C242.2,427.3,254.3,424.3,266.5,419.5z"/>
<path fill="#FFFFFF" stroke="#000000" d="M378,296.1c4.8,71.9-38.4,148.302-115,169.2C174,489.5,81.9,419.9,73.6,328
	c-16.4-118.5,102-217.6,209.6-170.3C337.3,181.6,374,237,378,296.1z M362.8,360.5c32.8-94.8-34.5-208.7-140.4-206.5
	c-81.2,1.7-150.3,80-141,168c5,54,36.4,103.1,84.4,126.3C246,486.9,335.3,440.2,362.8,360.5z"/>
</svg>
