<?xml version="1.0" encoding="utf-8"?>
<!-- Generator: Adobe Illustrator 15.0.0, SVG Export Plug-In . SVG Version: 6.00 Build 0)  -->
<!DOCTYPE svg PUBLIC "-//W3C//DTD SVG 1.1//EN" "http://www.w3.org/Graphics/SVG/1.1/DTD/svg11.dtd">
<svg version="1.1" id="Layer_x5F_www.ABC-color.com"
	 xmlns="http://www.w3.org/2000/svg" xmlns:xlink="http://www.w3.org/1999/xlink" x="0px" y="0px" width="822px" height="567px"
	 viewBox="0 0 822 567" enable-background="new 0 0 822 567" xml:space="preserve">
<rect display="none" fill="#FFFFFF" width="822" height="567"/>
<path fill="#FFFFFF" stroke="#000000" d="M483.5,316.3c5.4-8.7,22-16.8,22-16.8c-0.5-1.3-1-2.2-1.6-3l0.1-0.1c1,1.3,2.3,2.6,4,3.8
	c0,0-7,24.5,4.5,29.5c0,0,1.8,4.5,2,9c0.1,2.8,0.4,5.3,0.9,7.399c-0.5-2.101-0.802-4.601-0.9-7.5
	C514.5,338.5,484.9,334.6,483.5,316.3L483.5,316.3z"/>
<path fill="#FFFFFF" stroke="#000000" d="M504.1,296.4l-0.1,0.1c-3.4-4.6-7.4-0.5-7.4-0.5c-3.5,5-14,9.5-14,9.5
	c-3.6-1.8-5-15.8-5.398-28.8c3.3,3.6,10.3,10.2,12.3,4.7c0,0,4.3,8.6,12,9C501.7,292.3,502.5,294.4,504.1,296.4z"/>
<path fill="#FFFFFF" stroke="#000000" d="M463.1,281.3c-0.5,8.7-1.6,15.2-1.6,15.2c-0.5,10-10.5,1.5-10.5,1.5c-6-3-12-7.5-12-7.5
	c-0.6,0.8-1,1.5-1.3,2.1c1.5-5.3-0.2-10-0.2-10c1-0.8,1.9-1.6,2.6-2.4c4.4,1.2,9.802,1.7,10.5-2.9c0,0,10.7,10,12,4
	C462.7,281.3,462.8,281.3,463.1,281.3z"/>
<path fill="#FFFFFF" stroke="#000000" d="M419.5,306.2c10.8-2.2,15.5-7,17.5-11.7c-0.4,1.8,0,3,0,3c10.6,3.1,15.4,11.5,17.5,17.4
	l-1.5,0.6c0,0-14,25.5-28.5,4c0,0-0.5,17.4-13.4,2.6C427.5,319.6,419.5,306.2,419.5,306.2z"/>
<path fill="#FFFFFF" stroke="#000000" d="M483.5,316.3L483.5,316.3c-0.8,1.2-1.3,2.5-1.5,3.7c-2,10-2,10-2,10s-8.5,138-4,162
	c0,0,0,8,4,18.5c4.7,12.3-35,14-36,5c-0.5-4.5,0.5-11,5-24.5c0,0,11-150,7-170c0,0-0.3-2.6-1.5-6.1c-2.1-5.9-6.8-14.301-17.5-17.4
	c0,0-0.4-1.2,0-3l0,0c0.3-0.6,0.5-1.2,0.7-1.8l0,0c0.3-0.7,0.7-1.4,1.3-2.101c0,0,6,4.5,12,7.5c0,0,10,8.5,10.5-1.5
	c0,0,1.1-6.5,1.6-15.201l0,0c2.102-0.1,11-0.8,12.2-6.6c0,0,0.7,0.8,1.7,2c0.4,13,1.8,27,5.4,28.801c0,0,10.5-4.5,14-9.5
	c0,0,4.1-4.101,7.398,0.5c0.5,0.801,1.102,1.699,1.602,3C505.5,299.5,489,307.6,483.5,316.3z"/>
<path fill="#FFFFFF" stroke="#000000" d="M653.6,270.1c2,9.6,1.5,20.9-5.6,32.4c0,0,2.5,30-15.5,25.5c0,0-11,25-39.5,9.5
	c0,0,0,0,0,0.2c-0.7,2.1-8.5,24.1-25.7,24.3c-6.2-0.1-13.7-3-22.7-10.5c0,0,0,0-0.1,0.1c-1,0.7-9.5,6.4-17.1,6.5
	c-4.7-0.1-9.2-2.6-11.4-10.199c-0.2-0.601-0.3-1.199-0.5-1.801c-0.5-2.1-0.8-4.6-0.9-7.398c-0.198-4.5-2-9-2-9
	c-11.5-5-4.5-29.5-4.5-29.5c-1.698-1.2-3-2.5-4-3.801c-1.5-2-2.398-4.101-2.8-6c2.4,0.101,5-0.5,8-2.399c0,0,8.7,6.7,13.3,0.7
	c0,0,8.7,9.3,14,3.3c0,0,14.7,1.3,11.302-6c0,0,14,4.7,11.3-4c0,0,7.3-5.3-0.7-12.7c0,0,7.3-6.7,0-10c0,0,1.3-19.3-6.7-16.7
	c0,0-0.7-18.7-11.3-15.3c0,0,3.3-15.3-8-10c0,0,1-2.5,1.6-5.4c0.5,0.1,0.7,0.3,0.7,0.3c14.5-18.5,27.5,11,27.5,11
	c14.5-19.5,20-1,20-1c14.5-15.5,22.5,10.5,22.5,10.5c13-15.5,24-2,24-2s10.2,4.9,12.2,12.1c0.1,0.2,0.1,0.4,0.2,0.6
	c0.1,0.5,0.1,1,0.1,1.6l0,0v0.1c0,0,7.2,8.4,10.9,20.7l0,0c0.1,0.4,0.2,0.8,0.3,1.2C653.1,268.1,653.3,269.1,653.6,270.1z"/>
<path fill="#FFFFFF" stroke="#000000" d="M629,230.7c0,0-11-13.5-24,2c0,0-8-26-22.5-10.5c0,0-5.5-18.5-20,1c0,0-13-29.5-27.5-11
	c0,0-0.3-0.1-0.7-0.3c1-4.7,1.2-10.5-5-9.2c0,0,16-12,6.7-15.3c0,0,4-14.7-4-10c0,0-1.3-21.3-10.7-16c0,0-10,0.7-10,7.3
	c0,0-8.7-6-9.3,5.3c0,0-8-10.7-11.3-3.3c0,0-1.2-14.2-6.4-11.9c1.9-2.2,3.7-3.6,3.7-3.6c-7-9.5,7-10.5,7-10.5
	c0.1-5.5,0.8-9.8,2-13.1c6.8-19.2,28.5-6.9,28.5-6.9c16-21,33,14,33,14c24.2-8.1,26.8,8.9,26.8,17.2c2.5-5.9,14.7-1.2,14.7-1.2
	c0-0.1,0.1-0.1,0.1-0.2l0,0c2.102-0.4,23.2-4,20.802,14.5c0,0,23-6.5,14,17c0,0,17.5,11.5-1,34c0,0,2,7.5-5,10.5
	c0,0,10.398,5,12.198,12.3C639.3,235.6,629,230.7,629,230.7z"/>
<path fill="#FFFFFF" stroke="#000000" d="M539.5,82.3c0,0,0.1-0.3,0.2-0.9c-0.102,0.6-0.2,1-0.2,1.1c0.1-0.1,0.4-1.8,1.1-6.4
	c2.102-0.5,24.7-5.3,28,6.2c0.102,0.2,0.102,0.4,0.102,0.6c0.2,0.9,0.3,2,0.2,3.1l0,0c0,0.1,0,0.1,0,0.2c0,0,19.8-5.6,26.8,18.4
	c0.3,1.2,0.7,2.5,0.898,3.9c0.602,2.9,1,6,1.2,9.6l0,0l0,0v0.1c0,0,2.8,4.4,4.7,10.6c0.3,1.2,0.7,2.4,0.9,3.6
	c1.398,6.8,1.3,14.9-3.602,22.1c0,0,0,0,0.2,0c0,0.1-0.1,0.1-0.1,0.2c0,0-12.2-4.7-14.7,1.2c0.1-8.3-2.602-25.3-26.8-17.2
	c0,0-17-35-33-14c0,0-21.802-12.3-28.5,6.9c-0.302-1.7-4-19.1-13.5-13.9c0,0,1-26.5-25.5-16c0,0,5-31.5-16-22c0,0,3-26.5-16.5-24
	l-0.302,0.1c2-3.3,16.602-26.7,27.302-21.1c0,0,13-26.5,30-11.5c0,0,11.1,1.7,13.898,11.2c0.102,0.3,0.102,0.6,0.2,0.9
	c0,0.2,0.1,0.4,0.1,0.6c0.5,3,0.302,6.7-1.3,11.2c0,0,0,0,0.102,0c0,0,0,0.1,0,0.2c0,0,19.1,0,22.1,10.2c0,0.1,0.1,0.3,0.1,0.5
	c0.2,0.8,0.302,1.7,0.2,2.6l0,0c0,0,0,0.1,0,0.2c0,0,19.5-3,22.8,7.6c0.102,0.2,0.102,0.4,0.2,0.7c0.3,1.4,0.3,3.1,0,5.1
	c-0.1,0.7-0.2,1.4-0.3,2c-0.1,0-0.2,0-0.2,0S539.5,82,539.5,82.3z"/>
<path fill="#FFFFFF" stroke="#000000" d="M394.5,74.2c0,0,7.5-28,30.5-18c0,0,0.1-0.1,0.2-0.4l0.3-0.1c19.5-2.5,16.5,24,16.5,24
	c21-9.5,16,22,16,22c26.5-10.5,25.5,16,25.5,16c9.5-5.2,13.2,12.2,13.5,13.9c-1.2,3.3-1.9,7.6-2,13.1c0,0-14,1-7,10.5
	c0,0-1.8,1.3-3.7,3.6c-0.3,0.1-0.6,0.3-1,0.6c0,0-7.3-4.7-12,2c0,0-11.3,6.7-10-2.7c0,0,11.3-10,2.7-14.7c0,0,0.7-20-14.7-15.3
	c0,0-10.7-10.7-15.3-3.3c0,0-12-2.7-12,7.3c0,0-10-7.3-12,3.3c0,0-8.7,5.3-6,14.7c0,0-5.3,3.3-0.7,12.7c0,0-14.7-10-14.7-1.3
	c0,0-4.698,1.3-4.698,10.7c0,0-1.5,0.1-3.2,1c-10.2-9.8-17.3,7.5-17.3,7.5c-21-20-34-2.5-34-2.5s-3.5-21,10-17c0,0,0-0.1,0-0.2
	c0,0-0.2-0.6-0.4-1.7c-1.2-5.6-3.8-22.3,7.4-22.7c0,0-5-24,12.5-25.5c0,0,0-0.1-0.102-0.2l0,0c0,0-1.5-2.6-2.5-5.9
	c-0.2-0.6-0.3-1.1-0.398-1.7c-1.2-6.2,0.6-13.4,17.5-10.7c0,0,0-0.1-0.102-0.3v-0.1l0,0C372.8,89.2,369.6,66.3,394.5,74.2z"/>
<path fill="#FFFFFF" stroke="#000000" d="M463.1,281.3L463.1,281.3c-0.3,0-0.5,0-0.5,0c-1.3,6-12-4-12-4c-0.8,4.6-6.1,4.1-10.5,2.9
	c-3.3-0.9-6.1-2.3-6.1-2.3c-4,6.7-14.7-4-14.7-4c-4,12.7-17.3,9.3-17.3,9.3c-6.7,6-11.3-9.3-11.3-9.3c-9.3,4-13.3-3.3-13.3-3.3
	c-7.302,4-14-5.3-14-5.3c-6.7,1.3-3.302-9.3-3.302-9.3c-8,1.3-8-9.3-8-9.3c-6-1.3-2-10.7-2-10.7c-1.3-14,4-9.3,4-9.3
	c-10-12,0-12,0-12c-4-8.7,2.7-13.3,2.7-13.3c0.7-14.7,8.7-9.3,8.7-9.3c0-10,10-6,10-6c-0.4-7.6,2.8-10.9,5.5-12.3
	c1.7-0.9,3.2-1,3.2-1c0-9.3,4.7-10.7,4.7-10.7c0-8.7,14.698,1.3,14.698,1.3c-4.698-9.3,0.7-12.7,0.7-12.7c-2.7-9.3,6-14.7,6-14.7
	c2-10.7,12-3.3,12-3.3c0-10,12-7.3,12-7.3c4.7-7.3,15.3,3.3,15.3,3.3C464.7,124,464,144,464,144c8.7,4.7-2.7,14.7-2.7,14.7
	c-1.3,9.3,10,2.7,10,2.7c4.7-6.7,12-2,12-2c0.3-0.3,0.7-0.5,1-0.6c5.2-2.3,6.4,11.9,6.4,11.9c3.3-7.3,11.3,3.3,11.3,3.3
	c0.7-11.3,9.3-5.3,9.3-5.3c0-6.7,10-7.3,10-7.3c9.3-5.3,10.7,16,10.7,16c8-4.7,4,10,4,10c9.3,3.3-6.7,15.3-6.7,15.3
	c6.102-1.2,6,4.6,5,9.2c-0.6,2.9-1.6,5.4-1.6,5.4c11.3-5.3,8,10,8,10c10.7-3.3,11.3,15.3,11.3,15.3c8-2.7,6.7,16.7,6.7,16.7
	c7.3,3.3,0,10,0,10c8,7.3,0.7,12.7,0.7,12.7c2.698,8.7-11.302,4-11.302,4c3.302,7.3-11.3,6-11.3,6c-5.3,6-14-3.3-14-3.3
	c-4.7,6-13.3-0.7-13.3-0.7c-3,1.9-5.7,2.5-8,2.4c-7.7-0.5-12-9-12-9c-2,5.5-9-1.1-12.3-4.7c-1.102-1.2-1.7-2-1.7-2
	C474.2,280.5,465.3,281.2,463.1,281.3z"/>
<path fill="#FFFFFF" stroke="#000000" d="M411.1,322.2c0.602,1.899,5.7,19-7.6,4.899c0.2,0.699,6.8,21.301-6,9
	c0.2,0.399,9.4,21.399-5,7c0,0,3,24-8,10c0,0,2,23.5-16.5,6c0,0-22.5,22.5-25.5-4c0,0-11.5,20.5-18-10c0,0-19,14-18-1.5
	c0,0-29.5,24-23.5-9c0,0-20.5,1-15.5-19c0,0-8-24,5.5-30.5c0,0-18-12,5-21.5c0,0-23-11.5-6-32c0,0-22-28,13-39.5
	c0,0,9.5-39.5,44.5-13.5c0,0-3.5-21,10-17c0,0.1,0,0.2,0,0.2c-13.5-4-10,17-10,17s13-17.5,34,2.5c0,0,7-17.2,17.3-7.5
	c-2.6,1.4-5.898,4.7-5.5,12.3c0,0-10-4-10,6c0,0-8-5.3-8.7,9.3c0,0-6.698,4.7-2.698,13.3c0,0-10,0,0,12c0,0-5.302-4.7-4,9.3
	c0,0-4,9.3,2,10.7c0,0,0,10.7,8,9.3c0,0-3.302,10.7,3.3,9.3c0,0,6.7,9.3,14,5.3c0,0,4,7.3,13.3,3.3c0,0,4.7,15.3,11.3,9.3
	c0,0,13.3,3.3,17.3-9.3c0,0,10.7,10.701,14.7,4c0,0,2.8,1.3,6.102,2.3c-0.7,0.8-1.5,1.6-2.602,2.4c0,0,1.602,4.7,0.2,10l0,0
	c-0.3,0.699-0.5,1.301-0.7,1.801l0,0c-2,4.699-6.8,9.5-17.5,11.699C419.5,306.2,427.5,319.6,411.1,322.2c0-0.101,0-0.101-0.1-0.2
	C411,322,411,322.1,411.1,322.2z"/>
</svg>
