<?xml version="1.0" encoding="utf-8"?>
<!-- Generator: Adobe Illustrator 15.0.0, SVG Export Plug-In . SVG Version: 6.00 Build 0)  -->
<!DOCTYPE svg PUBLIC "-//W3C//DTD SVG 1.1//EN" "http://www.w3.org/Graphics/SVG/1.1/DTD/svg11.dtd">
<svg version="1.1" id="layer_x5F_www.ABC-color.com"
	 xmlns="http://www.w3.org/2000/svg" xmlns:xlink="http://www.w3.org/1999/xlink" x="0px" y="0px" width="822px" height="567px"
	 viewBox="0 0 822 567" enable-background="new 0 0 822 567" xml:space="preserve">
<rect display="none" fill="#FFFFFF" width="822" height="567"/>
<path fill="#FFFFFF" stroke="#000000" d="M483.5,315.5C479,324.3,480,330,480,330s-8.5,138-4,162c0,0,0,8,4,18.5
	c4.7,12.3-35,14-36,5c-0.5-4.5,0.5-11,5-24.5c0,0,11-150,7-170c0,0-0.3-3.8-1.3-6.8C469.2,303.9,483.5,315.5,483.5,315.5z"/>
<path id="www.ABC-color.com" fill="#FFFFFF" stroke="#000000" d="M621,169c0,0,23-6.5,14,17c0,0,17.5,11.5-1,34c0,0,2,7.5-5,10.5
	c0,0,12.5,6,12.5,14.5c0,0,24.5,28.5,6.5,57.5c0,0,2.5,30-15.5,25.5c0,0-11,25-39.5,9.5c0,0,0,0,0,0.2c-0.7,2.1-8.5,24.1-25.7,24.3
	c-6.2-0.1-13.7-3-22.7-10.5c0,0,0,0-0.1,0.1c-1,0.7-9.5,6.4-17.1,6.5c-6.302-0.199-12.102-4.6-12.802-19.6c0,0-30.5-4-31-23
	c0,0-14.3-11.6-28.8-1.3c-0.6,0.399-1.1,0.8-1.7,1.3c0,0-14,25.5-28.5,4c0,0-0.5,17.5-13.5,2.5c0.2,0.6,6.302,19.8-7.5,5
	c0.2,0.7,6.802,21.3-6,9c0,0,9.5,21.5-5,7c0,0,3,24-8,10c0,0,2,23.5-16.5,6c0,0-22.5,22.5-25.5-4c0,0-11.5,20.5-18-10
	c0,0-19,14-18-1.5c0,0-29.5,24-23.5-9c0,0-20.5,1-15.5-19c0,0-8-24,5.5-30.5c0,0-18-12,5-21.5c0,0-23-11.5-6-32c0,0-22-28,13-39.5
	c0,0,9.5-39.5,44.5-13.5c0,0-3.5-21,10-17c0,0-6.5-24,7-24.5c0,0-5-24,12.5-25.5c0,0-13.5-23,14.5-18.5c0,0-6-27.5,21-19
	c0,0,7.5-28,30.5-18c0,0,16-27.5,27.5-21.5c0,0,13-26.5,30-11.5c0,0,20,3,13,24c0,0,23,0,22.5,13.5c0,0,26-4,23,13.5
	c-0.1,0.7,29-4.3,28,12c0,0,26.5-7.5,29,32c0,0,13,20.5,2,36.5C600,154.5,623.5,149.5,621,169z"/>
</svg>
