<?xml version="1.0" encoding="utf-8"?>
<!-- Generator: Adobe Illustrator 15.0.0, SVG Export Plug-In . SVG Version: 6.00 Build 0)  -->
<!DOCTYPE svg PUBLIC "-//W3C//DTD SVG 1.1//EN" "http://www.w3.org/Graphics/SVG/1.1/DTD/svg11.dtd">
<svg version="1.1" id="layer_x5F_www.ABC-color.com"
	 xmlns="http://www.w3.org/2000/svg" xmlns:xlink="http://www.w3.org/1999/xlink" x="0px" y="0px" width="567px" height="822px"
	 viewBox="0 0 567 822" enable-background="new 0 0 567 822" xml:space="preserve">
<path fill="#FFFFFF" stroke="#000000" stroke-miterlimit="10" d="M295.3,416.6l3,40.4c0,0-14.8-10-19,17.4c0,0-2.4-4.5-6.9-7.802
	V447v-37.6c1.101-1.101,2.301-2.301,3.5-3.7C276,405.7,287,415.4,295.3,416.6z"/>
<path id="ABC-color.com" fill="#FFFFFF" stroke="#000000" stroke-miterlimit="10" d="M302,541c0,0,1,0.2,2.5,0.2
	c-2.602,0.898-12.5,5.6-7.8,21.8c0,0-27.301,9.3,0,17.3c-1.2-0.2-30.4-4.898-19.301,16.7c0,0,17,15.1,33.9,9.2
	c-3.101,7.398,1.3,65.3,2,73.3C301.6,679.8,289.1,682.4,294.1,693c0,0-12.399-0.8-21.5,1.3c0,0-0.2-6.2,0-18.898l0,0
	c11.601-7.4,20-27.102,20-27.102c12.799-31.3-20-24.7-20-24.7c-1,0.4-2,0.7-2.899,0.9c0,0-0.4-42.3,0-65
	c8,0.4,17.198-0.8,14.399-8.6c0,0-20.899-6.9-14.399-10.7c9.199-5.3,24.5-5.602,2.899-22.4c2.2-1.2,4.3-3.398,6.2-6.898
	c1.2-2.2,1-10,1-10s3.4,11.198,11,11.3c4.4,0.1,10-3.3,15.3-8.7c0,0-4.7,6,5.301,7.3C311.3,511,281.3,535.7,302,541z"/>
<path fill="#FFFFFF" stroke="#000000" stroke-miterlimit="10" d="M344,797.4c-16.7,11.1-39-0.4-39-0.4c-24.3,24.6-32.601-6-32.601-6
	C246.8,805,232,791.1,232,791.1s30.6-0.1,37.6-38.5c1.601-3.5,3.4-7.698,5.3-12.898c0,0,17.2-2,27.2-14.7c0,0-19.3,40,10,27.3
	l4.2-4.2C312.8,769.5,344,797.4,344,797.4z"/>
<path fill="#FFFFFF" stroke="#000000" stroke-miterlimit="10" d="M81.2,720.8c0.199-0.1,0.3-0.2,0.5-0.3
	C81.6,720.6,81.4,720.7,81.2,720.8z M80.9,721c-21.199,11.5-30.5-4.6-30.5-4.6c-18.3-34.7,9.4-23.7,9.4-23.7
	c33.8,35,67.5,15,67.5,15c-17.3-8.7-11.2-10-11.2-10c8.8-20,35.9,10,35.9,10c-3.9-13.102,14.6-7.602,15.3-7.3
	c-19.1-13.2-1.3-19.9-1-20c8.1,1.8,18.8-20.7,18.8-20.7c-1.5,27.3,22.9,4,22.9,4c16.7,38,35.3-5.3,35.3-5.3
	c10,21.398,20.4,22.698,29.1,17.1c-0.199,12.7,0,18.9,0,18.9c-7.899,1.8-13.3,5.698-5.8,14l-6.399,5.3c0,0-52.2,12,14.6,26
	c-1.8,5.2-3.6,9.398-5.3,12.898C258.3,776.2,252,763,252,763c-3.601-1.2-6.101-18.2-6.601-22c2.101,18.2-16.8,25.3-16.8,25.3
	c-13.3,6.7-23.3-20-23.3-20c0.7,11.3-10.7,24.7-10.7,24.7c-11.2,3.7-15.7-6.2-17.399-12.5c-0.101-1.5-0.5-3.1-1-4.8
	c0,0,0.199,2.1,1,4.8c1.3,14.6-13.9,20.9-13.9,20.9c-19.3,4.398-16-19.802-16-19.802C126.7,789,112.6,777,112.6,777
	c-31.399-35.3,7.4-22,7.4-22c15.3,6,32-12,32-12c-32,19.4-41.3-14-41.3-14c-16.5,21.3-32.3,12-32.3,12
	C59.7,734.6,76.3,723.7,80.9,721z"/>
<path fill="#FFFFFF" stroke="#000000" stroke-miterlimit="10" d="M313.199,679.5c8.899-0.2,17.399,0.9,17.399,0.9
	c14.7,16.8,20-15.4,20-15.4c6.7,14,16.2,29.4,16.2,29.4c29.8,17.1,6.899-27.802,6.5-28.7c42.7,50.6,25.3-6.7,25.3-6.7l17.301,21.4
	c36,15.398,18.699-14.802,18.699-14.802c11.101,8.302,18.9,10.802,24.301,10.102c1-0.102,1.8-0.3,2.699-0.602
	c1.801-0.6,3.2-1.6,4.4-2.898c23.699-7.2-6.301,27.2-7,28c43-24.7,38.399-7.7,38.399-7.7c-1.301,8.3-20,15-20,15l20-4.7
	c36.699-9.3,23.3,9.3,23.3,9.3c-24,7.302-10,11.302-10,11.302C539.4,712.7,562,693.4,556,718.1c-6,24.7-42.7,22-42.7,22l3.3,10
	c-10,20-57.699-7.3-57.699-7.3c11.6,22.7-0.301,19.3-4.301,19.3c-11.199,0-26.8-11-27.3-11.3l8,12c-5.3,32.3-25.3-7.1-25.8-8
	c3.5,11.3-12.9,26-12.9,26c-25.3,10-13.3-42-13.3-42c-16.7,10.9-29.101-8-30-9.3C366,751,346,761,346,761
	c-26.7,8.7-17.301-25.3-17.301-25.3l-12.5,12.5L312,752.4C282.7,765,302,725,302,725c-10,12.7-27.2,14.7-27.2,14.7
	c-66.8-14-14.6-26-14.6-26l6.399-5.3c-7.399-8.4-2.1-12.302,5.8-14c9.101-2.102,21.5-1.302,21.5-1.302
	C289.1,682.4,301.5,679.8,313.199,679.5z"/>
<path fill="#FFFFFF" stroke="#000000" stroke-miterlimit="10" d="M56,620.5c-0.9-0.6-38.4-25.7-17-35.5c0,0,8.6-16,24.1,18
	c0,0,25.2,28.4,37.4,15.9c0,0-5.8-26.602,19.5-12.602c0,0,2.8,20.7,32,17.3c0,0-12.601-9.198-7.4-20.698
	c3.7-8,7.2-4.5,31.601,15.898c0,0-5.9,10.8,25.1,3.8c2.1-0.5,20.7,3,20.7,3s-13.3-16-5.3-19.3c0,0,23.3-12,31.3,3.3
	c0,0-3.4,22.302,21.6,14.9c0.9-0.3,1.9-0.6,2.9-0.9c0,0,32.8-6.698,20,24.7c0,0-8.399,19.602-20,27.102l0,0
	c-8.7,5.6-19.101,4.3-29.101-17.102c0,0-18.699,43.3-35.3,5.3c0,0-24.399,23.302-22.899-4c0,0-10.801,22.4-18.801,20.7
	c-2.899-0.6-5.399-4.398-7-13.3l4.7-12.7c0,0-37.899,27.102-38,14.7c-0.1-7.8,10.7-15.3,19.3-24.7C154.5,634.5,98.8,676.4,93.5,657
	c-0.9-3.3-5.7-12.7-5.7-12.7S47,677,46.2,656.3c0,0,2.8-16.398,16.699-18c0.101,0,0.2,0,0.301,0c0,0-0.101,0-0.301,0
	C59.2,638.6,25.5,640.7,17.5,625.6C17.4,625.7,8.7,610.1,56,620.5z"/>
<path fill="#FFFFFF" stroke="#000000" stroke-miterlimit="10" d="M373.3,665.7c0.399,0.898,23.399,45.8-6.5,28.7
	c0,0-9.601-15.4-16.2-29.4c0,0-5.3,32.2-20,15.4c0,0-8.5-1.102-17.399-0.9c-0.601-8-5.101-66-2-73.3c3.2-1.102,6.3-3,9.399-5.8
	c0,0,3.301,36.398,20,7.198c0,0,58,51.5,22-18.5c0.601,0.602,24.899,21.9,43.301,14c0,0,20-1.3,19.3,10.7c0,0,21.3-16.3,13.3,17.2
	c0,0,44-33.2,32.7,2.8c0,0,49.3-39.3,52.7-22c0,0,0,10.7-9.301,22c0,0,40-27.398,41.301-15.3c0,0-4,15.3-14,23.3
	c0,0,13.3,28.7-43.301,16c0,0,1.7,22.8-27.3-4c0,0,0.601,12.4-5.3,18.7c-1.2,1.3-2.601,2.3-4.4,2.9c-0.8,0.3-1.699,0.5-2.699,0.6
	c-5.399,0.6-13.2-1.9-24.301-10.1c0,0,17.301,30.198-18.699,14.8l-17.2-21.7C398.699,659,416,716.3,373.3,665.7z"/>
<path fill="#FFFFFF" stroke="#000000" stroke-miterlimit="10" d="M269.6,624.6C244.6,632,248,609.7,248,609.7
	c-8-15.3-31.3-3.3-31.3-3.3c-8,3.3,5.3,19.3,5.3,19.3s-18.5-3.5-20.7-3c-31,7-25.1-3.8-25.1-3.8s2-18.5,13.5-19.602
	c2.8,4.5,8,5.7,17.6-1c0,0,12.9-14.7,7.9-24.2c3.3,4.802,12.5,17.5,16.8,18c0,0,22.899-0.5,7.1-19.398c5.8,6,15.9,15.398,20.9,15
	c0,0,11.3-20.7-1.3-29.3c0.399,0.1,5.399,1,10.899,1.3C269.2,582.3,269.6,624.6,269.6,624.6z"/>
<path fill="#FFFFFF" stroke="#000000" stroke-miterlimit="10" d="M215.2,574.1c-0.301-0.6-0.7-1.198-1.2-1.698
	C214.2,572.6,214.6,573.2,215.2,574.1z M101.9,546.4c0.301,0.198,0.5,0.3,0.801,0.5C102.5,546.8,102.3,546.6,101.9,546.4z
	 M188.7,567.9c-25.3,33.6-19.3,6.399-19.3,6.399l-8,7.3c-32.699,18.602-14-13.698-14-13.698c-42,23.6-40.5,7.1-40.5,7.1
	c-10.5,9.3-31.699,6-31.699,6C54.9,577,86,559.7,86,559.7c-23.5,0-17.101-17.3-17.101-17.3c8.4-10.602,28.4,1.1,33,4
	c-8.6-6.102-4.899-16-4.899-16c11-12.7,27.6,18,27.6,18C148,562.3,144,535,144,535c8-27.3,21.3,2.7,21.3,2.7c6.7,12,13.3,0,13.3,0
	c19.3-13.3,16.9-18,16.9-18c1.899-1.3,4-4.7,5.8-12.7c0,0,4.9,36.9,26-3.3c0,0,21.9,33,19.3-1.3c0,0,14.3,21.8,25.8,15.6
	c21.601,16.8,6.301,17.1-2.899,22.4C263.1,544.1,284,551,284,551c2.7,7.8-6.4,9-14.4,8.6c-5.5-0.198-10.5-1.198-10.899-1.3
	c12.6,8.7,1.3,29.3,1.3,29.3c-5,0.5-15-9-20.9-15c-1.2-1.5-2.7-3-4.399-4.698c0.3,0.3,2,2.198,4.399,4.698
	c15.8,18.9-7.1,19.4-7.1,19.4c-4.3-0.5-13.5-13.2-16.8-18c5,9.5-7.9,24.2-7.9,24.2c-9.6,6.7-14.9,5.5-17.6,1
	C184.4,590.4,188.5,568.8,188.7,567.9z"/>
<path fill="#FFFFFF" stroke="#000000" stroke-miterlimit="10" d="M296.6,580.3c-27.3-8,0-17.3,0-17.3c-4.6-16.2,5.2-20.9,7.801-21.8
	l0,0c3.699,0,10.5-1.4,15.3-9.9c-2.399,4.9-8.5,19.4,0.8,24.4c0,0,21.301,4,26-22.7c0,0,0,14.5,8.2,11.1
	c10.601-1.1,8.5,20.9,8.5,20.9c17.899-7.7,25.7-7.7,28.8-5.4l0,0c3.601,2.7,1.101,8.302,1.101,8.302c9.301,12.3,32,9.1,32,9.1
	c16.7-10.7,44-1.3,44-1.3c6,10.7-29.3,16.7-29.3,16.7c-10.399,6-21.7-2.102-25.399-5.2c-0.399-0.4-0.801-0.7-1.2-1.102
	c0.101,0.102,0.5,0.5,1.2,1.102c7.8,8-8.601,15.898-8.601,15.898c-18.399,7.9-42.7-13.398-43.3-14c36,70-22,18.5-22,18.5
	c-16.7,29.2-20-7.198-20-7.198c-3.101,2.8-6.2,4.698-9.4,5.8c-16.898,6-33.898-9.2-33.898-9.2C266.2,575.5,295.4,580.1,296.6,580.3z
	"/>
<path fill="#FFFFFF" stroke="#000000" stroke-miterlimit="10" d="M304.5,541.2L304.5,541.2c-1.602,0-2.5-0.2-2.5-0.2
	c-20.7-5.3,9.3-30,9.3-30c-10-1.3-5.3-7.3-5.3-7.3c-5.301,5.3-10.9,8.7-15.3,8.7c-7.601-0.102-11-11.302-11-11.302s0.199,7.802-1,10
	c-1.9,3.5-4,5.7-6.2,6.9c-11.601,6.2-25.8-15.6-25.8-15.6c2.6,34.3-19.301,1.3-19.301,1.3c-21.1,40.2-26,3.3-26,3.3
	c-1.8,8-3.899,11.4-5.8,12.7c-2.3,1.6-4.1,0-4.1,0c-39.9,25.3-23.4-8.4-23.4-8.4c-14,7.602-18-6.3-18-6.3
	c-42,19.3-37.399-12-37.399-12c-21.4,3.3-26.7-6.7-26.7-6.7c-8.101-10.7,4.8-14.1,4.8-14.1c-18.5-1.3-22.5-12.602-28-31.3
	c-10.5-35.7,46.3,17.3,46.3,17.3s3.7,14,5.4,1.2c3.1-23.102,15.6-1.5,15.6-1.5c4-37.7,20-11,20-11c1.3,11.3,11.7,8.3,15.3,11.3
	c3,2.5,6.9,21.898,8.4,13.3c6.2-35.3,40.2-3.4,40.2-3.4c1.7-3.5,3.399-5.698,5.1-6.898c9.9-7.102,19.5,17.6,19.5,17.6
	c1.2-8.1,10.601-10.7,10.601-10.7c10.3-7.6,18.1-5.398,23.199-1.698c4.5,3.3,6.9,7.8,6.9,7.8c4.1-27.4,19-17.4,19-17.4
	s17.8,32.7,35,1.3c0,0,12.8-5.198,18.7-0.3c29.8,24.4,25.3-5,25.3-5c24.8,15.3,33.8,12.9,36.899,7.602l0,0
	C437.8,466.7,415.3,486.8,415.3,486.8c9.3,0,25.7-12.7,25.7-12.7c21.6-23.3,32.3-1.3,32.3-1.3c0,18-32.3,27.9-32.3,27.9
	c8.3,13.2,44.3-3.9,44.3-3.9c40.7-29.3,21.3,14.7,21.3,14.7c3.301,0.7,23.301-4.7,23.301-4.7c16.6-10.7,18.699,0.7,18.699,0.7
	c0,16.3-28.3,20.5-33.8,21.2c-0.3,0-0.601,0-0.899,0.1c0,0,0.3,0,0.899-0.1c4.601,0.1,5.8,10.1,5.8,10.1c0,11.3-26,7.3-26,7.3
	c20,12.7,7.301,19.2,7.301,19.2c-27.301,11.8-56.5-23.5-56.5-23.5v13.9c-14,27.5-30.101-12.9-30.101-12.9
	c-7.301,25.3-18.801-2.7-18.801-2.7c-0.8,1.7-1.6,3.102-2.399,4.302c-10,13.898-26.899-3-26.899-3c-3.8-2.602-0.3-10.602,0-11.302
	l-4.601,7.302c-3.199,3.6-5.8,5.6-7.8,6.398c-8.2,3.4-8.2-11.1-8.2-11.1c-4.699,26.7-26,22.7-26,22.7c-9.399-5-3.3-19.5-0.8-24.4
	c0.3-0.4,0.5-0.9,0.7-1.4c0-0.1,0.1-0.1,0.1-0.198c0,0,0,0.1-0.1,0.198c-0.101,0.302-0.4,0.7-0.7,1.4
	C315.1,539.8,308.199,541.2,304.5,541.2z"/>
<path fill="#FFFFFF" stroke="#000000" stroke-miterlimit="10" d="M272.5,447v19.6c-5.101-3.698-12.9-5.898-23.2,1.7
	c0,0-9.5,2.602-10.6,10.7c0,0-9.7-24.7-19.5-17.6c0,0-11.801-15.602,5.899-28c2.3,2.8,6.5,4.898,13.7-0.4
	C238.7,433,232.3,478.3,272.5,447z"/>
<path id="www.ABC-color.com" fill="#FFFFFF" stroke="#000000" stroke-miterlimit="10" d="M490.699,425c1.399,0.6,32.7,14.7,4,18
	c0,0-24-2.7-35.399-10c0,0,10,35.5-28.7,3.4c0,0-20.699-7.102-15.3,13.398c0,0,1.5,6.4-1.101,10.8
	c-3.101,5.302-12.101,7.7-36.899-7.6c0,0,4.399,29.5-25.3,5c-5.9-4.9-18.7,0.3-18.7,0.3c-17.2,31.3-35-1.3-35-1.3l-3-40.4
	c7.101,1,12.2-4.198,6.899-26.898c0,0,37.399,49.3,19.801-4.7c0,0,40,19.3,26.699-5.3c0,0,6.5,1.1,12.7,1.3c0,0,20,6.1,15.3,20.1
	c0,0,33.301-32,28.7,3.301c0,0,61.3-32.7,45.3-2.7c0,0,62.7-45.3,30.7-2c0,0,58-3.7,47.3,14.8
	C528.699,414.5,503.4,430.3,490.699,425z"/>
<path fill="#FFFFFF" stroke="#000000" stroke-miterlimit="10" d="M149.3,382.2c28.7,19.3,48.9,5.1,48.9,5.1l0,0
	c-0.9,5.2,6.8,7.1,39.8-5c0,0-30,35.3,14.7,16c0,0-3.601,34.7,19.8,11.101V447c-40.2,31.3-33.8-14-33.8-14
	c-7.2,5.3-11.4,3.2-13.7,0.4c-1.7-2.102-2.3-4.602-2.3-4.602c-38,29.102-30-5.398-30-5.398C154,439.1,161.4,415.8,161.4,415.8
	c-35.3,19.4-40-4.2-40-4.2c-6,7.2-20.8,3-20.8,3c-36.2-8.5-1.8-18.8-1.8-18.8c-8.6,0-23.1-17.3-23.1-17.3
	c-5.7-38.7,31.1-3.5,31.1-3.5c20.8,17.9,25.2,12.5,25.2,12.5C122,362.5,149.3,382.2,149.3,382.2z"/>
<path fill="#FFFFFF" stroke="#000000" stroke-miterlimit="10" d="M272.5,348v-20.8v-29.9c3.8-1.4,8.899-3.8,15.5-7.4
	c0,0-13.7,17.3-4,25.3c0,0,3.3,2.2,8.3,0.1l0.3,0.6v27c-11.8-6-12.5,9.3-12.5,9.3c-2.1-6-5-5.8-7.399-4.2H272.5z"/>
<path fill="#FFFFFF" stroke="#000000" stroke-miterlimit="10" d="M272.5,348l0.1,0.1c-2.2,1.5-3.899,4.2-3.899,4.2
	S244,366.9,256,348c8.8-13.7-5.4-20.5-15.3-15c-0.4-1.4-2.101-8.1,0.899-10.7l0,0c2.8-2.3,6-5.3,9.7-9.3c0,0,11.5,33.8,21.2,14.2
	L272.5,348L272.5,348z"/>
<path fill="#FFFFFF" stroke="#000000" stroke-miterlimit="10" d="M240.7,333c9.899-5.6,24,1.3,15.3,15
	c-12.101,18.9,12.7,4.3,12.7,4.3s1.699-2.7,3.899-4.2c2.4-1.6,5.3-1.8,7.4,4.2c0,0,0.7-15.3,12.5-9.3v-27l-0.3-0.6
	c3.8-1.6,8.699-5.8,13.8-15.4c0.399-0.8,0.1-1.7,0.1-2.7c0.301-29.3,7.4,36,23.601,23.3c5.5-4.3,10-13.3,0-28.7
	c0.601,0.6,21.399,19.9,35.601,16.7c0,0,0.7-3,0-7.5c21.899,5.5,30.101-8.2,30.101-8.2c34-22,34.699-9.4,34.699-9.4
	c10,5.3-25.3,28-25.3,28c-9.3,8.7,28-5.4,28-5.4c40.7-18.7,17.3,8,17.3,8c-13.3,18.7,4,14.8,4,14.8c9.301-9.9,38.7-14.8,38.7-14.8
	c9.101,8.4-15.3,18.8-16.601,19.3c10.601-3.9,8,6.7,8,6.7c-4,8.7-28,0-28,0l6,7.7c6.7,26.3-25.3,7.7-25.3,7.7
	c-5.2,11.1-16.2,0.5-16.7,0c16.7,42-12,18.9-12,18.9c-7.3-23.1-20-21.6-20-21.6c12,10.7,4,14,4,14c-5.3,6.6-39.699-6.3-40.601-6.7
	c31.301,18,21.101,20.9,9.9,20.6c-6.2-0.2-12.7-1.3-12.7-1.3C362,404.3,322,385,322,385c17.6,53.9-19.801,4.7-19.801,4.7
	c5.301,22.7,0.199,27.898-6.899,26.898C287,415.4,276,405.7,276,405.7c-1.2,1.399-2.4,2.6-3.5,3.7C249,433,252.7,398.3,252.7,398.3
	c-44.7,19.3-14.7-16-14.7-16c-32.9,12.1-40.601,10.3-39.8,5c1-5.7,12.1-15.4,12.1-15.4c-43,21.6-20.6-5-20.6-5
	c-54.301,15.3-17.101-9.3-17.101-9.3c-32,3.4-34.7-13.9-34.7-13.9c-4.699-18.6,34,4.2,34,4.2c11.301-39,23.301-3,23.301-3
	c22.699-32.7,23.3,0,23.3,0c1.7,11.4,11.3,8.7,11.3,8.7c1.2-1.1,2.5-7.3,2.7-8.7C233.8,339,237,335.1,240.7,333z"/>
<path fill="#FFFFFF" stroke="#000000" stroke-miterlimit="10" d="M154.7,282.3l-5.301-12.7c-2.699-18.7,34,12.7,34,12.7
	c-16-23.3-3.3-22.7-3.3-22.7c4-12.7,27.3,22.7,27.3,22.7c0.7-19.3,23.101-5.5,23.101-5.5c1.3,4.1,6.7,5.5,22.5-3.5
	c-1,0.9-29.2,27,16.7,7.3c0,0-19.4,24.8,2.899,16.7v29.9c-9.7,19.6-21.2-14.2-21.2-14.2c-3.6,4-6.899,7.1-9.699,9.3l0,0
	c-22.2,17.6-21.601-13.2-21.601-13.2c-43.3,32.2-21.3-9.5-21.3-9.5c-31.8,22.8-17.3-2.7-17.3-2.7c-36,24.9-27.3,3.3-27.3,3.3
	c-47.301,18.7-27.301-6.7-27.301-6.7c-7.3,4.7-25.3,6-28.699-7.3c-3.301-13.3,34.699-4,34.699-4l-3.3-8.7
	C130,257.2,154.1,281.7,154.7,282.3z"/>
<path fill="#FFFFFF" stroke="#000000" stroke-miterlimit="10" d="M229.6,244.9c0.5-0.2,0.9-0.4,1.3-0.7
	C230.8,244.3,230.3,244.6,229.6,244.9z M253,273.4c-15.8,9-21.2,7.6-22.5,3.5C229,272.2,233,264,233,264c-14,7.3-19.3,4-19.3,4
	c-20-14,18-15.3,18-15.3c-9.801-2.6-4.801-6.2-2.101-7.7c-7.3,3-17.3-0.7-17.3-0.7c-52-11.8,2-18.2,2-18.2
	c-19.3-25.3,23.3-10,23.3-10s2.101,4.3,6.9,4.6c8.399,0.7,12.899-13.4,14.6-12.5c2.2,1.1-4.5,16.2-2.899,18.2
	c8.399,10.3,14.8,3.2,19.399-2.3c2.7-3.3,2-15.3,8.3-14.7c0,0-6.3,12-3.7,20c0,0,15.301,16.7,22,0c0,0,9.3,20.7,22,13.3
	c0,0,8-10.7,0-23.3c0.5,0.4,17.7,12.6,32,10.8c33.601,26.8,79.101-38.5,77.3-18.7c-3,32.8-27,38.9-27,38.9c29.301-0.4,33.7,7,33.7,7
	c4.601,20.9-68.2,1.5-71.2,0.7c17.2,6,15.9,16,15.9,16c-2,16.7-35.301,4.7-35.301,4.7c11.301,7.4,14.7,16.3,15.601,22.5
	c0.7,4.5,0,7.5,0,7.5c-14.2,3.3-35-16.1-35.601-16.7c10,15.3,5.399,24.4,0,28.7c-16.199,12.7-23.3-52.7-23.601-23.3
	c0,0.9,0.301,1.9-0.1,2.7c-5.101,9.7-9.899,13.8-13.801,15.4c-5,2.1-8.3-0.1-8.3-0.1c-9.7-8,4-25.3,4-25.3
	c-6.601,3.6-11.7,6-15.5,7.4c-22.3,8-2.9-16.7-2.9-16.7C223.7,300.3,252,274.3,253,273.4z"/>
<path fill="#FFFFFF" stroke="#000000" stroke-miterlimit="10" d="M197.6,180.7c1.5,0.7,3,1.3,4.7,1.8
	C202.1,182.4,200.2,181.6,197.6,180.7z M197.6,180.7c-15.1-7-17.399-21.1-12.5-27c4.7-5.6,41.7,24.9,41.7,24.9
	c5.8-8.5,16.3-2.5,16.7-2.3l0,0c5.5,6.4,21.5-9.2,21.5-9.2c15-12,23,10,23,10c18,35,34,4,34,4c2.6,5.4,5.399,8.7,8.1,10.4
	c12.4,14.7,44.9,2.3,44.9,2.3c8-5.7,10,4.2,10,4.2c0,12.8-31.7,16.3-36.7,16.8c10.899-0.8,16.899,12.1,16.899,12.1
	c-2.7,2-5.7,3.1-8.899,3.5c-14.399,1.8-31.5-10.5-32-10.8c8,12.7,0,23.3,0,23.3c-12.7,7.3-22-13.3-22-13.3c-6.7,16.7-22,0-22,0
	c-2.7-8,3.7-20,3.7-20c-6.3-0.7-5.601,11.4-8.3,14.7c-4.601,5.6-11,12.7-19.4,2.3c-1.6-2,5.1-17,2.9-18.2
	c-1.7-0.9-6.2,13.2-14.601,12.5c-4.8-0.4-6.899-4.6-6.899-4.6c-4.101-4.6-1.9-6.5-0.2-7.3c0.5-0.1,1-0.3,1.5-0.4
	c-0.2,0-0.8,0.1-1.5,0.4c-11.4,2.8-14.601-9.4-14.601-9.4c-20.6,23.1-41.199-5.7-41.199-5.7c-29.301,3-37.301-9.7-37.301-9.7
	c2.7-21.5,37.7-1.5,37.7-1.5C182,176.3,191.6,178.6,197.6,180.7z"/>
<path fill="#FFFFFF" stroke="#000000" stroke-miterlimit="10" d="M254,154c-5-1-16-3-18-15s23.7,0,23.7,0s6.3,11,23.8,0
	c0,0,22.199,35.7,30.5,0l0,0c1.199-0.6,70.5-32.6,13.6,16c0,0,12.9,5.6,43.101-12c0,0,59.7-33.7,11.301,12l-20.7,6
	c0,0,35.7,13-10.3,20c0,0-10.2,17.2-20.9,10.4c-2.699-1.7-5.399-5-8.1-10.4c0,0-16,31-34-4c0,0-8-22-23-10c0,0-16,15.7-21.5,9.2
	c-0.101-0.1-0.101-0.1-0.2-0.2l-5.3-7C213.5,149.4,252.3,153.8,254,154z"/>
<path fill="#FFFFFF" stroke="#000000" stroke-miterlimit="10" d="M276.4,89.7C283.1,87.6,288,110,288,110c27-52,26-13,26-13
	s19.1-16,12,14c0,0-11.101,1.3-16,8c0,0,16.199-9.7,16.6,3.1c0,0,0.801,1,0.4,3.1c-0.5,2.8-3.2,7.4-13,13.8l0,0
	c-8.301,35.7-30.5,0-30.5,0c-17.5,11-23.8,0-23.8,0c-2.301-5-20.7-10-20.7-10c-63.3,2-2-19-2-19c-30-16,10-9,10-9
	c-27-26-10-32-10-32c3-7,30,41,30,41C270.3,96.1,273.5,90.6,276.4,89.7z"/>
<path fill="#FFFFFF" stroke="#000000" stroke-miterlimit="10" d="M287.4,61.1c-0.801-7.9-6-64.2,8.899-47.4c0,0,9.7,11,9.7,28.3
	c0,0,32.3,7.3,0,14c0,0,59.199-4,22.3,12.3c-15.101,6.7-5.7,7.4,10.7,5c0,0,40.699-12,7,6.7c0,0,44,10-1,20c0,0-9,24.2-18,25.2
	c0.399-2-0.4-3.1-0.4-3.1C326.2,109.2,310,119,310,119c5-6.7,16-8,16-8c7-30-12-14-12-14s1-39-26,13c0,0-4.9-22.4-11.601-20.3
	C271.7,87.2,239.8,69.6,277,77c0,0-17.8-11.7,0-7c0,0-12.7-6.3-12-20C265,50,284.5,36.3,287.4,61.1z"/>
</svg>
