<?xml version="1.0" encoding="utf-8"?>
<!-- Generator: Adobe Illustrator 15.0.0, SVG Export Plug-In . SVG Version: 6.00 Build 0)  -->
<!DOCTYPE svg PUBLIC "-//W3C//DTD SVG 1.1//EN" "http://www.w3.org/Graphics/SVG/1.1/DTD/svg11.dtd">
<svg version="1.1" id="layer_x5F_www.ABC-color.com"
	 xmlns="http://www.w3.org/2000/svg" xmlns:xlink="http://www.w3.org/1999/xlink" x="0px" y="0px" width="822px" height="567px"
	 viewBox="0 0 822 567" enable-background="new 0 0 822 567" xml:space="preserve">
<rect display="none" fill="#FFFFFF" width="822" height="567"/>
<path fill="#FFFFFF" stroke="#000000" d="M641.5,245.2c0,0,24.5,28.5,6.5,57.5c0,0,2.5,30-15.5,25.5c0,0-11,25-39.5,9.5
	c0,0,0,0,0,0.2c-0.7,2.1-8.5,24.1-25.7,24.3c-6.2-0.101-13.7-3-22.7-10.5c0,0,0,0-0.1,0.1c-1,0.7-9.5,6.4-17.1,6.5
	c-6.302-0.2-12.102-4.5-12.802-19.6c-0.198-4.5-2-9-2-9c-11.5-5-4.5-29.5-4.5-29.5c-10-7-6.5-17.5-6.5-17.5c-10.5-15,2-20,2-20
	c-3.198-11.1-0.698-15.7,1.5-17.7c1.302-1.1,2.5-1.3,2.5-1.3c-4.5-15.5,10.5-17.5,10.5-17.5c-0.5-21,17-14,17-14
	c14.5-18.5,27.5,11,27.5,11c14.5-19.5,20-1,20-1c14.5-15.5,22.5,10.5,22.5,10.5c13-15.5,24-2,24-2S641.5,236.7,641.5,245.2z"/>
<path fill="#FFFFFF" stroke="#000000" d="M621,169.2c0,0,23-6.5,14,17c0,0,17.5,11.5-1,34c0,0,2,7.5-5,10.5c0,0-11-13.5-24,2
	c0,0-8-26-22.5-10.5c0,0-5.5-18.5-20,1c0,0-13-29.5-27.5-11c0,0-17.5-7-17,14c0,0-15,2-10.5,17.5c0,0-1.2,0.2-2.5,1.3
	c-14.9,4.6-22.3-0.7-24.3-2.7c-0.4-0.4-0.7-0.7-0.7-0.7c-8.5-1.5-4-18-4-18c-3.6-6.3-4.7-11.9-4.5-16.5c0.2-1.3,0.4-2.7,0.5-4.2
	c1.3-6.3,4.5-9.8,4.5-9.8c-7-15.5,5.5-17,5.5-17c-7.5-11,6-21,6-21c-7-9.5,7-10.5,7-10.5c0.1-5.5,0.8-9.8,2-13.1
	c6.8-19.2,28.5-6.9,28.5-6.9c16-21,33,14,33,14c24.2-8.1,26.8,8.9,26.8,17.2c-0.5,1.1-0.6,2.5-0.3,4.3c0,0,0.3-1.7,0.3-4.3
	c2.5-5.9,14.7-1.2,14.7-1.2S623.5,149.7,621,169.2z"/>
<path fill="#FFFFFF" stroke="#000000" d="M598,118.2c0,0,13,20.5,2,36.5c0,0-12.2-4.7-14.7,1.2c0.102-8.3-2.6-25.3-26.8-17.2
	c0,0-17-35-33-14c0,0-21.8-12.3-28.5,6.9c-0.3-1.7-4-19.1-13.5-13.9c0,0,1-26.5-25.5-16c0,0,5-31.5-16-22c0,0,3-26.5-16.5-24
	l-0.3,0.1c2-3.3,16.6-26.7,27.3-21.1c0,0,13-26.5,30-11.5c0,0,20,3,13,24c0,0,23,0,22.5,13.5c0,0,26-4,23,13.5
	c-0.1,0.7-0.2,1.4-0.3,2c-0.102,0-0.2,0-0.2,0s-1,6-1,6.3c0.1-0.1,0.4-1.8,1.1-6.4c2.302-0.5,29.302-6.2,28.302,10
	C569,86.2,595.5,78.7,598,118.2z"/>
<path id="www.ABC-color.com" fill="#FFFFFF" stroke="#000000" d="M483.6,316.3c0-0.2,0-0.399,0-0.6c0,0-14.698-11.8-29.3-1
	c-0.398,0.3-0.8,0.6-1.2,1c0,0-14,25.5-28.5,4c0,0-0.5,17.5-13.5,2.5l0,0c16.5-2.5,8.5-16,8.5-16c24.5-5,18-23.5,18-23.5
	c9.5-7,3.5-17.5,3.5-17.5c6-8-4.5-17.5-4.5-17.5c7.302-9.6,4.2-16,0.4-19.6c0.7,0.6,1.4,1.1,2,1.6c4.2,4,9.9,9.6,14.8,9.7
	c0.102,0.1,0.2,0.1,0.3,0.2c0,0,0.302-0.1,0.7-0.3c1.102-0.2,2.102-0.6,3.102-1.5l0,0c0.198-0.1,0.398-0.3,0.698-0.4l0,0
	c1.9-1,8.2-4.7,3.2-10.4c0-0.6-0.1-1.2-0.2-1.7c0,0,7.802-5.9,10-18c-0.1,4.6,0.9,10.1,4.5,16.5c0,0-4.5,16.5,4,18
	c0,0,0.2,0.3,0.7,0.7c2.2,2.1,10.102,8.1,24.3,2.7c-2.198,1.9-4.698,6.6-1.5,17.7c0,0-12.5,5-2,20c0,0-3.5,10.5,6.5,17.5
	c0,0-7,24.5,4.5,29.5c0,0,1.802,4.5,2,9C514.5,338.7,484.7,334.8,483.6,316.3z"/>
<path fill="#FFFFFF" stroke="#000000" d="M497,131.5c-1.2,3.3-1.9,7.6-2,13.1c0,0-14,1-7,10.5c0,0-13.5,10-6,21c0,0-12.5,1.5-5.5,17
	c0,0-3.3,3.6-4.5,9.8c-0.3,1.3-0.4,2.7-0.5,4.2c-2.1,12.1-10,18-10,18c0.1,0.5,0.2,1.1,0.2,1.7c3.8,4.6,0.2,8.3-3.2,10.4l0,0
	c-0.3,0.1-0.5,0.2-0.5,0.2c-0.1,0.1-0.1,0.1-0.2,0.2l0,0c-1.2,0.7-2.398,1.2-3.1,1.5c-0.3,0-0.602,0.1-1,0.1
	c-2.602-2.1,3.5,4.5-14.8-9.7c-2.2-2-3.9-3.6-4.9-3.9c-1.7-1.1-3-1.6-3-1.6c8-23-5-28.5-5-28.5c-9.5-28-39-13-39-13
	c-13.5-26-23.5-1.5-23.5-1.5c-21-20-34-2.5-34-2.5s-3.5-21,10-17c0,0-6.5-24,7-24.5c0,0-5-24,12.5-25.5c0,0-13.5-23,14.5-18.5
	c0,0-6-27.5,21-19c0,0,7.5-28,30.5-18c0,0,0.1-0.1,0.2-0.4l0.3-0.1c19.5-2.5,16.5,24,16.5,24c21-9.5,16,22,16,22
	c26.5-10.5,25.5,16,25.5,16C493.1,112.4,496.7,129.8,497,131.5z"/>
<path fill="#FFFFFF" stroke="#000000" d="M483.5,315.7c0,0.2,0,0.399,0,0.6c-0.8,1.2-1.3,2.5-1.6,3.7c-2,10-2,10-2,10
	s-8.5,138-4,162c0,0,0,8,4,18.5c4.698,12.3-35,14-36,5c-0.5-4.5,0.5-11,5-24.5c0,0,11-150,7-170c0,0-0.302-2.5-1.4-5.9l-0.3-0.398
	C468.9,303.8,483.5,315.7,483.5,315.7z"/>
<path fill="#FFFFFF" stroke="#000000" d="M436.5,247.7c0,0,10.5,9.5,4.5,17.5c0,0,6,10.5-3.5,17.5c0,0,6.5,18.5-18,23.5
	c0,0,8,13.5-8.5,16l0,0c0.2,0.6,6.3,19.8-7.5,5c0.2,0.7,6.8,21.3-6,9c0,0,9.5,21.5-5,7c0,0,3,24-8,10c0,0,2,23.5-16.5,6
	c0,0-22.5,22.5-25.5-4c0,0-11.5,20.5-18-10c0,0-19,14-18-1.5c0,0-29.5,24-23.5-9c0,0-20.5,1-15.5-19c0,0-8-24,5.5-30.5
	c0,0-18-12,5-21.5c0,0-23-11.5-6-32c0,0-22-28,13-39.5c0,0,9.5-39.5,44.5-13.5c0,0,13-17.5,34,2.5c0,0,10-24.5,23.5,1.5
	c0,0,29.5-15,39,13c0,0,13,5.5,5,28.5c0,0,1.3,0.5,3,1.6c1,0.8,2,1.6,2.9,2.3l0,0C440.8,231.7,443.8,238.1,436.5,247.7z"/>
</svg>
