<?xml version="1.0" encoding="utf-8"?>
<!-- Generator: Adobe Illustrator 15.0.0, SVG Export Plug-In . SVG Version: 6.00 Build 0)  -->
<!DOCTYPE svg PUBLIC "-//W3C//DTD SVG 1.1//EN" "http://www.w3.org/Graphics/SVG/1.1/DTD/svg11.dtd">
<svg version="1.1" id="layer_x5F_www.ABC-color.com"
	 xmlns="http://www.w3.org/2000/svg" xmlns:xlink="http://www.w3.org/1999/xlink" x="0px" y="0px" width="567px" height="822px"
	 viewBox="0 0 567 822" enable-background="new 0 0 567 822" xml:space="preserve">
<path fill="#FFFFFF" stroke="#000000" stroke-miterlimit="10" d="M458.5,511.8c0,0,28,3.3,22.6,52c-6.199,11.5-58.3,93.8-174.6,72.8
	l-0.9-0.1c0.2-2.4,0.5-4.2,0.9-5.4c0,0-2.7-15.3-6.7-17.3c0,0-2.7-2.7-6,20.7c0,0-151.3,10.7-158-94c0,0-0.7-18.7,20.7-18
	c0,0-27.601-28.7-16.7-71.3c0,0,4-57.3,30.7-54.7c0,0-15.3-72.7,16.7-97.3c0,0,20.699-38,34-36.7c0,0-30-24-10.101-58.3
	c0,0,27.5-35.7,28.8-67.7c0,0-31.3,9.3,66.7-120c0,0,80,119.3,58,119.3c0,0-4.399,37.8,12.301,57.1c0,0,39,46.2,5,66.2
	c0,0,12,9.7,22.699,29.7c0,0,72.7,50.3,34,131C438.5,419.8,487.199,467.8,458.5,511.8z"/>
<path fill="#FFFFFF" stroke="#000000" stroke-miterlimit="10" d="M293.8,634.5c3.3-23.3,6-20.7,6-20.7c4,2,6.7,17.3,6.7,17.3
	c-0.4,1.2-0.7,3.102-0.9,5.4c-2.5,30.1,9.5,145.2,9.5,145.2c-4-2.7-21.3,0-21.3,0C299.8,745.2,293.8,634.5,293.8,634.5z"/>
<g>
	<path d="M306.4,602.8c12.8-0.898,25.5-2.5,38.199-4.7c12.601-2.198,25.2-4.898,37.5-8.398c12.301-3.5,24.5-7.8,36-13.5
		c5.7-2.8,11.301-6,16.601-9.7c5.301-3.7,10.2-7.9,14.5-12.7c-4.199,4.9-9.101,9.102-14.3,12.9c-5.2,3.799-10.801,7-16.5,10
		c-11.5,5.8-23.601,10.3-35.899,14c-12.301,3.7-24.9,6.6-37.601,8.898c-12.7,2.302-25.399,4.102-38.301,5.2L306.4,602.8z"/>
</g>
<g>
	<path d="M308.9,521.5c5,0.4,10.101,0.3,15.199,0.1c5.101-0.198,10.101-0.698,15.101-1.3c10.101-1.3,20-3.6,29.601-7
		c9.601-3.398,18.7-8,27-13.898c8.3-5.9,15.601-13.2,21.399-21.602c-5.699,8.5-12.899,15.9-21.101,22
		c-8.199,6.102-17.399,10.8-27,14.4c-9.6,3.6-19.6,6-29.699,7.6c-5.101,0.8-10.2,1.3-15.301,1.602c-5.1,0.3-10.199,0.398-15.399,0.1
		L308.9,521.5z"/>
</g>
<g>
	<path d="M314.8,479.6c11.2-4.3,22.2-9.6,32.8-15.398c10.601-5.9,20.801-12.5,30.301-20s18.3-16,25.399-25.8
		c3.5-4.9,6.601-10.2,9-15.7c2.399-5.601,4.101-11.4,4.899-17.5c-0.7,6-2.3,11.899-4.601,17.6c-2.3,5.601-5.399,10.9-8.899,15.9
		c-7,10-15.7,18.6-25.2,26.3c-9.399,7.7-19.601,14.4-30.199,20.5c-10.601,6-21.5,11.5-32.801,16L314.8,479.6z"/>
</g>
<g>
	<path d="M308.4,440.9c5.199-2.302,10.199-4.9,15.101-7.802c4.899-2.8,9.699-5.898,14.399-9.1c9.399-6.5,18.199-13.7,26.399-21.7
		c8.101-8,15.5-16.7,21.899-26.2s11.7-19.7,15.601-30.4c-3.8,10.8-8.899,21.1-15.2,30.7c-6.199,9.6-13.5,18.5-21.601,26.6
		c-8.1,8.1-16.899,15.5-26.199,22.2c-4.7,3.3-9.5,6.5-14.399,9.398c-4.9,2.9-10,5.7-15.2,8.102L308.4,440.9z"/>
</g>
<g id="ABC-color.com">
	<path d="M308.1,384.4c6.9-6.3,13.5-12.9,19.9-19.7c6.399-6.8,12.6-13.8,18.399-21.2c5.8-7.3,11.3-14.9,16-23
		c2.3-4,4.5-8.2,6.3-12.5s3.2-8.8,3.8-13.5c-0.6,4.7-1.899,9.2-3.6,13.6c-1.701,4.4-3.801,8.6-6.101,12.7
		c-4.601,8.2-9.899,15.9-15.601,23.4s-11.8,14.6-18.101,21.6c-6.3,6.9-12.8,13.7-19.7,20.2L308.1,384.4z"/>
</g>
<g>
	<path d="M305.6,129.6c-2.1-5.1-4-10.2-5.8-15.3c-1.8-5.2-3.5-10.3-5-15.6c-1.5-5.2-2.8-10.5-3.899-15.9
		c-1-5.4-1.801-10.8-1.699-16.2c0.1,5.5,1,10.8,2.199,16.1c1.199,5.3,2.699,10.5,4.301,15.7c1.699,5.2,3.499,10.3,5.499,15.4
		c2,5.1,4,10.1,6.301,15L305.6,129.6z"/>
</g>
<g>
	<path d="M307.9,110.8c1.8-3.8,3.399-7.8,4.899-11.8s2.899-8,4.2-12.1c2.6-8.2,4.699-16.5,6-25c-1,8.5-2.7,17-5,25.3
		c-1.101,4.1-2.4,8.3-3.801,12.3c-1.399,4.1-2.8,8.1-4.5,12.1L307.9,110.8z"/>
</g>
<g>
	<path d="M307.9,220.1c3.8-8.5,7.3-17.1,10.699-25.8c3.4-8.7,6.601-17.4,9.601-26.2c3-8.8,5.7-17.7,7.899-26.8
		c2.2-9,4.101-18.2,4.601-27.5c-0.3,9.3-2,18.5-4.101,27.6c-2.1,9.1-4.699,18.1-7.5,27c-2.8,8.9-5.899,17.7-9.1,26.5
		c-3.2,8.7-6.601,17.4-10.301,26L307.9,220.1z"/>
</g>
<g>
	<path d="M302.4,176.5c-4.301-4.7-8.399-9.6-12.301-14.6c-3.898-5-7.6-10.2-11-15.5c-3.399-5.4-6.5-10.9-9-16.8
		c-1.2-2.9-2.3-5.9-3.1-9s-1.2-6.3-1.101-9.4c0,3.2,0.5,6.3,1.4,9.4c0.9,3,2,6,3.3,8.9c2.601,5.8,5.9,11.2,9.4,16.4
		c3.5,5.2,7.399,10.3,11.399,15.2s8.199,9.6,12.6,14.1L302.4,176.5z"/>
</g>
<g>
	<path d="M302.4,239.1c-4.301-5.3-8.5-10.7-12.5-16.1c-4-5.5-8-11-11.699-16.7c-3.801-5.7-7.301-11.5-10.5-17.5
		c-1.601-3-3.101-6.1-4.4-9.2c-1.3-3.2-2.4-6.4-2.8-9.8c0.5,3.4,1.7,6.6,3,9.7s2.899,6.1,4.6,9.1c3.3,5.9,7,11.6,10.9,17.1
		c3.899,5.6,7.899,11,12.101,16.3s8.399,10.6,12.799,15.8L302.4,239.1z"/>
</g>
<g>
	<path d="M308,276.6c4.699-6.7,9.1-13.5,13.399-20.4c4.3-6.9,8.399-14,12.199-21.2c3.801-7.2,7.4-14.6,10.4-22.2
		c1.5-3.8,2.8-7.7,3.899-11.6c1-3.9,1.8-8,2-12.1c0,4.1-0.7,8.1-1.7,12.1s-2.2,7.9-3.601,11.7c-2.8,7.7-6.3,15.1-9.899,22.4
		c-3.7,7.3-7.7,14.5-11.8,21.5c-4.2,7-8.5,14-13.101,20.8L308,276.6z"/>
</g>
<g>
	<path d="M297.1,317.5c-6.6-7.8-12.8-15.9-18.7-24.2c-5.899-8.3-11.5-16.8-16.699-25.6c-5.101-8.8-9.801-17.9-13.601-27.4
		c-1.899-4.7-3.5-9.6-4.7-14.6c-1.199-5-1.899-10-1.899-15.1c0.1,5.1,0.899,10.2,2.2,15.1c1.3,4.9,3,9.7,4.899,14.4
		c3.9,9.4,8.7,18.4,14,27.1c5.3,8.7,11,17.1,17,25.3c6,8.2,12.4,16.2,19,23.8L297.1,317.5z"/>
</g>
<g>
	<path d="M297.3,362c-7.6-4.7-15-9.8-22.1-15.2c-7.101-5.4-14-11.1-20.5-17.3s-12.6-12.8-17.7-20.2c-2.5-3.7-4.8-7.6-6.4-11.8
		c-1.7-4.1-2.8-8.6-2.7-13.1c0,4.5,1.2,8.9,2.9,13c1.7,4.1,4,7.9,6.6,11.6c5.2,7.3,11.4,13.7,17.9,19.7c6.6,6,13.6,11.6,20.8,16.8
		c7.2,5.2,14.601,10.2,22.3,14.7L297.3,362z"/>
</g>
<g>
	<path d="M297.4,410.9c-9.301-4.7-18.199-9.9-27-15.4c-8.8-5.5-17.3-11.4-25.399-17.9c-8.101-6.5-15.8-13.5-22.4-21.5
		c-3.3-4-6.2-8.3-8.6-13c-2.3-4.6-3.9-9.7-4.101-14.9c0.301,5.2,2,10.2,4.4,14.7c2.4,4.6,5.4,8.8,8.7,12.8
		c6.7,7.9,14.5,14.7,22.6,21c8.2,6.3,16.8,12,25.601,17.4c8.8,5.3,17.898,10.4,27.1,14.9L297.4,410.9z"/>
</g>
<g>
	<path d="M288.8,458.8c-10.5-4.2-20.5-9.3-30.1-15.1c-9.601-5.8-18.801-12.3-27.2-19.8c-8.4-7.5-15.9-15.9-21.8-25.4
		c-5.9-9.5-10-20.2-11.2-31.3c1.399,11.1,5.7,21.7,11.7,31.1c6,9.4,13.699,17.7,22.1,24.9c8.4,7.3,17.6,13.6,27.3,19.2
		c9.601,5.6,19.7,10.5,30,14.5L288.8,458.8z"/>
</g>
<g>
	<path d="M297.6,504.1c-10.199-3-20.2-6.198-30.2-9.8c-10-3.5-19.899-7.3-29.6-11.5c-9.701-4.2-19.3-8.8-28.3-14.3
		c-4.5-2.8-8.9-5.8-12.7-9.5c-1.9-1.8-3.7-3.8-5.2-6c-1.399-2.2-2.6-4.7-2.7-7.4c0.2,2.602,1.4,5.102,2.801,7.302
		c1.5,2.198,3.3,4.1,5.199,5.898c3.9,3.5,8.301,6.5,12.801,9.2c9.1,5.4,18.699,9.8,28.399,13.8c9.7,4,19.7,7.602,29.7,11
		c10,3.3,20.101,6.5,30.3,9.2L297.6,504.1z"/>
</g>
<g>
	<path d="M293.6,552.1c-12-3.5-23.8-7.5-35.398-11.8c-11.7-4.398-23.2-9.2-34.4-14.6c-11.2-5.5-22.1-11.5-32.2-18.9
		c-5-3.7-9.7-7.8-13.8-12.5c-4-4.7-7.4-10.2-8.6-16.3c1.199,6.1,4.699,11.5,8.8,16.2c4.1,4.7,8.899,8.7,13.899,12.3
		c10.1,7.3,21.1,13.1,32.3,18.4c11.199,5.3,22.8,9.898,34.5,14.1c11.699,4.2,23.5,8,35.5,11.3L293.6,552.1z"/>
</g>
<g>
	<path d="M289.3,593.2c-10.7,1.7-21.5,2.3-32.4,2.2c-10.8-0.102-21.6-1.102-32.199-3.5c-10.5-2.302-20.9-6-30.101-11.7
		c-4.6-2.9-8.9-6.2-12.6-10.101c-3.8-3.898-7-8.198-9.601-13c2.7,4.7,6,9,9.801,12.802c3.8,3.8,8.1,7.1,12.699,9.8
		c9.2,5.5,19.5,9,30,11.1c10.5,2.102,21.301,3,32,2.9c10.7-0.102,21.5-0.9,32-2.7L289.3,593.2z"/>
</g>
<g>
	<path d="M302.199,86.3c0.9-4.9,1.699-9.8,2.4-14.7c0.699-4.9,1.299-9.8,1.8-14.8c0.5-4.9,0.899-9.9,1-14.9s0.101-10-0.899-14.8
		c1.199,4.8,1.399,9.9,1.399,14.8c0,5-0.2,10-0.5,14.9c-0.301,5-0.801,9.9-1.301,14.9c-0.6,5-1.2,9.9-1.899,14.8L302.199,86.3z"/>
</g>
<g>
	<path d="M308.199,333c3.601-2.7,7.101-5.7,10.5-8.8c3.399-3.1,6.601-6.3,9.601-9.8c3-3.4,5.8-7.1,8.101-11.1
		c2.199-3.9,4.101-8.3,4.3-12.9c-0.101,4.6-1.699,9.1-3.899,13.1c-2.2,4.1-4.8,7.9-7.7,11.5c-2.899,3.6-6,7-9.3,10.2
		c-3.3,3.2-6.7,6.4-10.3,9.3L308.199,333z"/>
</g>
<g>
	<path d="M304.5,567.8c8.8-0.398,17.699-1.3,26.5-2.6c8.8-1.3,17.5-3,26.199-5.3c8.601-2.302,17.101-5.102,25.2-8.802
		c8.101-3.698,15.8-8.398,22.199-14.6c-6.3,6.4-14,11.2-22,15.1c-8.1,3.9-16.5,6.9-25.1,9.302c-8.601,2.398-17.4,4.3-26.2,5.8
		s-17.7,2.6-26.699,3.1L304.5,567.8z"/>
</g>
<path fill="none" stroke="#000000" stroke-width="0.25" stroke-miterlimit="10" d="M307.6,579.9c0,3.3,0,6.5,0,9.8"/>
<path fill="none" stroke="#000000" stroke-width="0.25" stroke-miterlimit="10" d="M307.4,536c0,6.3,0.101,12.6,0.101,18.8"/>
<path fill="none" stroke="#000000" stroke-width="0.25" stroke-miterlimit="10" d="M307.199,491.3
	c0.101,5.8,0.101,11.602,0.101,17.4"/>
<path fill="none" stroke="#000000" stroke-width="0.25" stroke-miterlimit="10" d="M306.699,454c0.101,5.1,0.101,10.2,0.2,15.2"/>
<path fill="none" stroke="#000000" stroke-width="0.25" stroke-miterlimit="10" d="M306.4,409c0,8.5,0.101,17.1,0.101,25.6"/>
<path fill="none" stroke="#000000" stroke-width="0.25" stroke-miterlimit="10" d="M306.699,367.5c-0.101,4.4-0.101,8.7-0.199,13.1"
	/>
<path fill="none" stroke="#000000" stroke-width="0.25" stroke-miterlimit="10" d="M307.6,297.9c-0.199,9.1-0.3,18.1-0.5,27.2"/>
<path fill="none" stroke="#000000" stroke-width="0.25" stroke-miterlimit="10" d="M309.199,234.1c-0.5,9.4-0.8,18.8-1.101,28.1"/>
<path fill="none" stroke="#000000" stroke-width="0.25" stroke-miterlimit="10" d="M307.8,170.6c0.2,9.4,0.601,18.9,0.899,28.3"/>
<path fill="none" stroke="#000000" stroke-width="0.25" stroke-miterlimit="10" d="M304.5,157.4c0.1-7,0.1-13.9,0.1-20.9"/>
<path fill="none" stroke="#000000" stroke-width="0.25" stroke-miterlimit="10" d="M303.3,218.6c0.3-10,0.601-19.9,0.8-29.9"/>
<path fill="none" stroke="#000000" stroke-width="0.25" stroke-miterlimit="10" d="M300.3,294.7c0.8-17,1.5-34,2.101-51"/>
<path fill="none" stroke="#000000" stroke-width="0.25" stroke-miterlimit="10" d="M297.699,344.2c0.301-5.7,0.601-11.4,0.9-17.2"/>
<path fill="none" stroke="#000000" stroke-width="0.25" stroke-miterlimit="10" d="M296,383.6c0.2-5.3,0.5-10.6,0.7-15.9"/>
<path fill="none" stroke="#000000" stroke-width="0.25" stroke-miterlimit="10" d="M294.2,445.6c0.1-9.3,0.399-18.6,0.6-27.8"/>
<path fill="none" stroke="#000000" stroke-width="0.25" stroke-miterlimit="10" d="M294,482.6c0-5.1,0-10.198,0-15.398"/>
<path fill="none" stroke="#000000" stroke-width="0.25" stroke-miterlimit="10" d="M294,532c0-7.2,0-14.4,0-21.6"/>
<path fill="none" stroke="#000000" stroke-width="0.25" stroke-miterlimit="10" d="M293.9,576.7c0-6.3,0.101-12.602,0.101-18.8"/>
</svg>
