<?xml version="1.0" encoding="utf-8"?>
<!-- Generator: Adobe Illustrator 15.0.0, SVG Export Plug-In . SVG Version: 6.00 Build 0)  -->
<!DOCTYPE svg PUBLIC "-//W3C//DTD SVG 1.1//EN" "http://www.w3.org/Graphics/SVG/1.1/DTD/svg11.dtd">
<svg version="1.1" id="layer_x5F_www.ABC-color.com"
	 xmlns="http://www.w3.org/2000/svg" xmlns:xlink="http://www.w3.org/1999/xlink" x="0px" y="0px" width="822px" height="567px"
	 viewBox="0 0 822 567" enable-background="new 0 0 822 567" xml:space="preserve">
<rect display="none" fill="#FFFFFF" width="822" height="567"/>
<path fill="#FFFFFF" stroke="#000000" stroke-miterlimit="10" d="M502.5,304.4c0.5,0.1,1,0.3,1.3,0.398c0.102,0,0.2,0.102,0.2,0.102
	c0.2,0.1,0.3,0.1,0.3,0.1h0.102h0.1c0.4,0,0.9,0,1.3,0l0,0c7.102,0,10.7-4.2,12.4-8.3c0.1-0.3,0.2-0.5,0.3-0.7
	c0.1-0.3,0.2-0.5,0.3-0.7c0.102-0.3,0.2-0.5,0.3-0.8c0.2-0.7,0.4-1.3,0.5-1.9c0.102-0.398,0.102-0.8,0.2-1.199
	c0.2-1.5,0.3-2.601,0.3-2.801c0.2-1.3,0.4-2.5,0.7-3.5c0-0.199,0.102-0.398,0.2-0.6c0.2-0.8,0.5-1.5,0.8-2.1
	c0.102-0.1,0.102-0.3,0.2-0.4c0.2-0.3,0.3-0.6,0.5-0.8c0.1-0.1,0.2-0.2,0.2-0.3l0,0c0.1-0.1,0.2-0.2,0.3-0.3s0.2-0.2,0.3-0.3
	l0.3-0.3c0.102-0.1,0.2-0.2,0.302-0.3c0.198-0.2,0.398-0.3,0.5-0.4l0.3-0.2c3.1-0.9,3.2-0.9,3.3-0.9c2,0,4.2,0.8,5.8,1.7
	c1.602,0.8,2.602,1.7,2.602,1.7l0.1,0.1h0.2c0.398,0,0.8,0,1.2,0c0,0,0,0,0.1,0c4.7,0,7.6-2.2,9.1-5c0.801-1.4,1.301-3,1.5-4.5
	c0.301-1.5,0.4-3,0.4-4.3c0-0.9,0-1.7-0.1-2.4c-0.102-0.6-0.102-1.1-0.102-1.3c0.102-0.2,0.2-0.5,0.2-0.7c0.5-1.3,1.1-2.1,1.8-2.8
	c0.102-0.1,0.2-0.2,0.3-0.3c0.9-0.7,2-1,3-1l0,0c2,0,4.2,1,5.9,2s2.9,2,2.9,2l0.1,0.1h0.1c1.602,0.5,3.102,0.8,4.5,0.8
	c2.7,0,4.802-1,6.5-2.6l0.602-0.6l0,0l1.5-2.1l0.8-1.7c0.1-0.2,0.2-0.4,0.2-0.6l0.398-1c0.802-2.3,1.2-4.6,1.5-6.8
	c0.302-2.2,0.302-4.1,0.302-5.3c0-0.9,0-1.4,0-1.6l0,0c0.1-0.7,0.5-1.4,1.198-1.9l1.302-0.7l0,0l0.8-0.3l0.898-0.3
	c2.5-0.7,5.9-0.9,9.102-0.9c5.5,0,10.6,0.6,10.6,0.6h0.3l0,0l0.2-0.2c1.3-1.4,2.101-2.7,2.7-4c0.6-1.3,0.8-2.5,0.8-3.6
	c0-3.4-2.1-6.1-4.3-8s-4.4-3-4.8-3.1c-0.8-0.6-1.5-1.2-2.2-1.8c-0.7-0.6-1.3-1.1-1.8-1.7c-0.4-0.4-0.8-0.8-1.102-1.1
	c-0.1-0.1-0.198-0.3-0.3-0.4c-0.2-0.2-0.398-0.5-0.6-0.7c-0.102-0.1-0.2-0.3-0.3-0.4c-0.2-0.2-0.302-0.4-0.4-0.6l0,0
	c-0.2-0.2-0.3-0.4-0.4-0.6c-0.5-0.9-0.8-1.7-1-2.4c-0.1-0.4-0.1-0.9-0.1-1.2l0,0l0,0c0-0.4,0.1-0.8,0.1-1.1
	c0-0.1,0.102-0.2,0.102-0.3l0.7-1.3c0.1-0.1,0.198-0.3,0.3-0.4c0.1-0.1,0.2-0.2,0.3-0.3l0.1-0.1c0-0.1,0.102-0.1,0.2-0.2l0.5-0.4
	c0.2-0.1,0.4-0.3,0.5-0.4c0.7-0.5,1.4-0.9,2-1.1c0.5-0.2,0.9-0.3,0.9-0.3c3.898-1.7,5.3-4.4,5.3-7.1c0,0,0,0,0-0.1
	c0-2.5-1.1-5.1-2.3-7.1l0,0c-0.102-0.1-0.2-0.3-0.2-0.4l0,0c-0.1-0.1-0.2-0.3-0.2-0.4c-1.6-2.4-2.3-3.1-2.6-3.5
	c0.7-1.5,1.3-2.8,1.6-4.1c0.3-1.2,0.5-2.3,0.5-3.3l0,0c0-3.5-2-5.6-3.8-6.7c-1.3-0.8-2.5-1.1-3.2-1.3c0.601-2.7,0.9-5,0.9-6.9
	c0-1.8-0.3-3.3-0.7-4.5c-0.5-1.2-1.1-2.1-1.9-2.8c-0.8-0.7-1.699-1.1-2.699-1.4c-1-0.3-1.899-0.4-2.899-0.4c-1.2,0-2.4,0.2-3.3,0.3
	c-1,0.2-1.7,0.4-2.102,0.4c-0.6,0.1-1.1,0.2-1.699,0.2c-1.801,0-3.199-0.7-4.301-1.8c-1.1-1.1-2-2.8-2.6-4.7
	c-0.2-0.7-0.4-1.4-0.6-2.2l0,0c-0.102-0.5-0.2-1-0.302-1.5c0,0,0,0,0-0.1c-0.1-0.5-0.1-1-0.198-1.4c0-0.1,0-0.1,0-0.1
	c-0.102-1-0.2-2.1-0.302-3.1c0-0.5,0-1-0.1-1.5c0-0.7,0-1.5,0-2.1c0-0.1,0-0.1,0-0.2s0-0.1,0-0.2v-1.7c0-0.2,0-0.3,0-0.5v-1.3
	c0-0.2,0-0.3,0-0.5v-0.7c0-0.3,0-0.5,0-0.7V129l0.5-2.4c0.1-0.8,0.3-1.5,0.4-2.2c0.1-0.7,0.198-1.4,0.198-2l0.102-1.8v-0.9v-0.8l0,0
	l-0.102-0.8v-0.4c0.5-0.2,1.602-0.7,3.102-1.3s3.398-1.3,5.6-2.1c2.602-0.9,5.5-1.7,8.5-2.4c3-0.6,6-1.1,8.9-1.1
	c6.6,0.1,11.6,2.2,12,9.5v0.3l0.3,0.1c0,0,1.5,0.8,3.8,2.2s5.3,3.4,8.3,5.9c6,4.9,12,11.7,12,18.7l0,0c0,3-1.1,6.2-3.8,9.4
	l-0.398,0.5l0.6,0.3c0,0,0.5,0.2,1.2,0.6c0.7,0.4,1.6,1,2.6,1.7c1.9,1.5,3.7,3.7,3.7,6.5l0,0c0,2.7-1.7,6.2-7,10.4l-0.5,0.4l0.5,0.4
	c0,0,1,0.8,2.4,2.2c1.398,1.4,3.3,3.3,5.198,5.6c3.802,4.5,7.5,10.1,7.5,14.7l0,0c0,2.2-0.8,4.2-3,5.8l-0.5,0.4l0.4,0.4
	c0,0,1.4,1.3,3.5,3.5c2.1,2.2,4.9,5.3,7.6,8.7c5.5,6.9,11.102,15.4,11.102,21.6l0,0c0,3.1-1.3,5.5-4.7,7.2l-0.7,0.3l0.601,0.5
	c1.101,0.9,1.801,1.8,2.199,2.7c0.4,0.9,0.602,1.9,0.602,2.8c0,1.5-0.4,2.8-0.9,3.8c-0.399,1-0.899,1.6-0.899,1.6l-0.199,0.3
	l0.199,0.3c1.699,2,2.801,3.9,3.5,5.5c0.699,1.7,1,3.1,1,4.4c0,1.2-0.199,2.3-0.601,3.2c-0.399,0.9-0.8,1.7-1.3,2.3s-1,1.1-1.3,1.4
	c-0.301,0.2-0.5,0.4-0.5,0.4c-0.102,0-0.2,0.1-0.4,0.1l0,0c-1.1,0-3.1-1-5.1-2.1c-1-0.5-2-1.1-2.9-1.5c-0.899-0.4-1.8-0.7-2.6-0.7
	c-0.5,0-1,0.1-1.4,0.6c-0.399,0.4-0.5,0.9-0.5,1.6c0,0.9,0.3,2.2,0.8,4c0.602,1.7,1.5,3.9,2.801,6.7c3.601,7.7,4,21.9,4,26.1
	c0,0.102,0,0.102,0,0.2c0,0.601,0,1,0,1c-0.101,3.101-1.399,5.8-3.301,8.101c-1.898,2.301-4.398,4.199-6.898,5.601
	c-1.9,1.101-3.801,2-5.4,2.7c-1.599,0.699-3,1.101-3.8,1.398c0.1-0.6,0.3-1.6,0.5-2.5c0.1-0.898,0.3-1.799,0.3-2.398
	c0-0.2,0-0.399,0-0.5c0-0.102-0.2-0.5-0.6-0.5c-0.5,0.101-0.5,0.3-0.7,0.5c-0.2,0.398-0.5,1-0.9,2c-0.399,1-0.899,2.3-1.5,4
	c-1.5,4.3-4.1,6.898-6.8,8.3c-2.7,1.5-5.6,1.8-8,1.899c-1.8,0-3.3-0.199-4.1-0.399c0.3-0.601,0.699-1.7,1-2.7
	c0.398-1,0.699-2.1,0.699-2.6c0-0.102,0-0.2-0.101-0.4c-0.1-0.199-0.3-0.3-0.5-0.3l0,0c-0.399,0-0.5,0.2-0.8,0.399
	c-0.3,0.301-0.7,0.899-1.3,1.699c-0.602,0.801-1.301,2-2.2,3.5c-2.3,3.9-5.7,6.201-9.101,7.5c-3.5,1.301-7.101,1.701-9.899,1.701
	c-3.2,0-5.4-0.5-5.4-0.4l-0.3-0.1l-0.2,0.299c-2,3.201-4.5,5.201-7.199,6.4c-2.699,1.2-5.399,1.6-8,1.6
	c-2.699,0-5.101-0.398-6.801-0.898c-1.8-0.399-2.8-0.899-2.8-0.899l-0.2-0.101l-0.199,0.101c-1.899,1.101-3.801,1.8-5.601,2.3
	s-3.6,0.7-5.3,0.7c-5.601,0-10.4-2.2-13.9-4.5c-1.3-0.899-2.5-1.7-3.398-2.5c-0.9-0.7-1.5-1.301-1.9-1.7l0.101-0.101
	c0,0,0.101-0.101,0.101-0.2c0.1-0.199,0.199-0.3,0.3-0.398c0.101-0.2,0.2-0.301,0.3-0.5c0.101-0.2,0.2-0.4,0.301-0.602
	c0.101-0.199,0.199-0.3,0.199-0.398c0,0,0,0,0-0.102v-0.1c0.101-0.2,0.2-0.5,0.2-0.7c0-0.101,0.101-0.3,0.101-0.399
	c0-0.101,0-0.101,0-0.199c0-0.2,0-0.301,0.101-0.5l0,0c0-0.2,0-0.4,0-0.602c0-1.699-0.7-3.1-1.4-4.3c-0.1-0.101-0.199-0.3-0.3-0.399
	c-0.101-0.101-0.2-0.301-0.3-0.399c-0.101-0.101-0.2-0.2-0.301-0.3c-0.3-0.301-0.5-0.602-0.699-0.801l0,0
	c-0.101-0.101-0.2-0.199-0.301-0.3c-0.101-0.801-0.601-1.301-1.199-1.5c-0.101,0-0.2,0-0.2-0.101c-0.101,0-0.3-0.102-0.399-0.102
	h-0.101c-1,0-2.2,0.4-3.5,1.102s-2.601,1.5-4,2.3c-1.3,0.8-2.601,1.7-3.601,2.3c-1,0.7-1.8,1.102-2.101,1.2
	c-0.199,0-0.399,0.101-0.5,0.101c-0.1,0-0.1,0-0.199,0l0,0h-0.101c-0.101,0-0.2-0.101-0.3-0.101c-0.101,0-0.2-0.101-0.2-0.2
	l-0.101-0.1l0,0l-0.101-0.102c-0.199-0.5-0.399-1.199-0.399-2.1l0,0c0-0.1,0-0.3,0-0.4c0-0.1,0-0.3,0-0.398l0,0
	c0-0.301,0-0.602,0.101-0.9l0,0c0-0.3,0.101-0.6,0.101-0.898c0.101-0.5,0.199-0.9,0.3-1.4c0-0.2,0.101-0.3,0.101-0.5
	s0.101-0.3,0.101-0.5c0.101-0.3,0.101-0.6,0.199-0.9c0.2-0.6,0.301-1.199,0.5-1.699c0.101-0.301,0.2-0.5,0.2-0.801
	c0.2-0.6,0.399-1.199,0.5-1.699c0.101-0.199,0.101-0.301,0.2-0.5c0.1-0.399,0.199-0.699,0.199-0.699c0.2-0.7,0.301-1.2,0.301-1.801
	c0-0.301,0-0.601-0.101-0.899c0-0.101,0-0.2-0.101-0.3c0-0.102-0.1-0.2-0.1-0.301l0,0c-0.102-0.301-0.301-0.699-0.602-0.899
	c-0.1-0.101-0.1-0.198-0.199-0.3c-0.101-0.102-0.199-0.2-0.301-0.301c-0.1-0.1-0.199-0.199-0.3-0.199l-0.3-0.2
	c-0.101,0-0.101-0.101-0.2-0.101c-0.2-0.1-0.399-0.199-0.5-0.301c-0.2-0.1-0.399-0.199-0.5-0.199c-0.1,0-0.2-0.1-0.3-0.1
	c-0.9-0.301-1.9-0.5-2.7-0.601s-1.5-0.101-2-0.101c-0.1,0-0.2,0-0.2,0l0,0c-1.8-2.399-3.398-4.601-4.6-6.5
	c-0.3-0.399-0.5-0.8-0.7-1.101c0,0,0-0.101-0.1-0.101c-0.2-0.399-0.4-0.699-0.602-1.101c-0.199-0.3-0.3-0.6-0.5-0.8
	c-0.199-0.4-0.398-0.7-0.6-1.1c-0.2-0.4-0.4-0.7-0.601-1.102c-0.301-0.5-0.5-1-0.699-1.5c-0.2-0.5-0.4-0.898-0.5-1.3
	c0-0.2-0.102-0.3-0.102-0.5c-0.1-0.399-0.2-0.7-0.3-1v-0.101c-0.1-0.301-0.1-0.601-0.1-0.899c0-0.2,0-0.399,0-0.601l0,0
	c0-0.5,0.1-0.801,0.199-1.199c0.101-0.2,0.199-0.4,0.301-0.602c0.1-0.199,0.199-0.3,0.398-0.398c0.102-0.102,0.102-0.102,0.2-0.2
	l0.8-0.399l1.8-0.199c0,0,0,0,0.102,0c0.2,0,0.3,0,0.5,0c0.1,0,0.3,0,0.5,0C501.4,304.1,502,304.3,502.5,304.4z"/>
<path fill="#FFFFFF" stroke="#000000" stroke-miterlimit="10" d="M267.5,352.5c0.1-0.1,0.2-0.1,0.3-0.2c0.1,0,0.1-0.1,0.2-0.1l0,0
	c0,0,0.1,0,0.1-0.101c0.1-0.101,0.3-0.199,0.4-0.301l0.5-0.5c0.1-0.1,0.3-0.199,0.4-0.398l0.3-0.301c0.1-0.101,0.2-0.199,0.3-0.301
	l0,0c0.1-0.1,0.2-0.199,0.3-0.398c0,0,0,0,0-0.102c0,0,0,0,0-0.1c0.1-0.2,0.2-0.301,0.3-0.5v-0.1c0-0.1,0.1-0.1,0.1-0.199
	c0.2-0.301,0.3-0.5,0.4-0.801c0.9,0.602,2.8,1.9,4.9,3.102c2.2,1.1,4.6,2.1,6.7,2.1l0,0c1.1,0,2.2-0.3,3-1.199
	c0.8-0.899,1.2-2.199,1.2-4c0-1.399-0.3-3.199-0.8-5.399c-0.6-2.2-1.4-4.8-2.6-7.8l0.1-0.102c0.4-0.398,1.3-1,2.2-1.6
	c0.2-0.102,0.4-0.2,0.6-0.4c0.2-0.1,0.4-0.199,0.6-0.3s0.4-0.2,0.6-0.3c0.2-0.102,0.4-0.2,0.6-0.301c0.8-0.399,1.6-0.601,2.3-0.601
	l0,0c0.5,0,0.8,0.101,1.2,0.3c0.3,0.2,0.6,0.602,0.8,1.301c0,0.101,0,0.199,0,0.301c0,0.1,0,0.199,0,0.398c0,0.2,0,0.5,0,0.801
	c0,0.101,0,0.199,0,0.301c0,0.199,0,0.398,0,0.699c0,0.601,0,1.301,0,2c0,0.199,0,0.399,0,0.601v0.2c0,2.1,0.1,4.8,0.2,7.5
	c0.1,2.898,0.4,5.898,0.8,8.8c0.8,5.8,2.1,10.899,4.8,12.8l0,0l0,0c0,0,3.8,1.7,9.2,3.301c5.3,1.699,12.2,3.301,18.3,3.301
	c2.102,0,4-0.2,5.9-0.602c1.898-0.398,3.5-1.1,4.898-2.199c2.802-2,4.602-5.399,4.602-10.399l0,0c0-3.5-0.8-7.8-2.7-13.101
	s-4.8-11.5-9-19c-0.1-0.301-1.6-4.5-4.9-9.699c-0.198-0.301-0.398-0.701-0.698-1c-0.4-0.602-0.802-1.201-1.2-1.801
	c-0.2-0.301-0.4-0.601-0.7-0.899c-0.2-0.3-0.5-0.601-0.7-0.9c-0.5-0.7-1.1-1.399-1.7-2.1l-0.8-0.9c-0.2-0.2-0.3-0.3-0.398-0.5
	c-0.102-0.2-0.302-0.3-0.5-0.5c-0.302-0.3-0.5-0.6-0.802-0.8c-0.198-0.2-0.5-0.5-0.698-0.7c-0.302-0.3-0.7-0.6-1-0.899
	c-0.302-0.301-0.602-0.5-0.802-0.699c-0.198-0.2-0.398-0.301-0.6-0.5c-0.3-0.301-0.7-0.602-1.1-0.801
	c-0.4-0.301-0.802-0.601-1.2-0.899c-0.5-0.3-1-0.7-1.5-1s-1-0.601-1.5-0.8c-0.5-0.301-0.9-0.5-1.4-0.7c-0.398-0.2-0.7-0.3-1.1-0.5
	l0,0l-0.601-0.3l-0.3-0.102l0,0c-1.6-0.6-2.8-1-4.2-1.398c0.9-0.5,2.2-1.301,3.601-2.301c1.2-0.899,2.398-2,3.3-3.199l1.3-2.5l0.2-1
	V291v-0.4v-0.1v-0.2v-0.2V290c0.9,0.6,2.2,1.5,3.7,2.3c1.5,0.7,3.1,1.3,4.5,1.3h0.1l1.602-0.3c0.398-0.2,0.8-0.399,1.1-0.8l0,0
	c0.1-0.1,0.2-0.2,0.2-0.3c0.1-0.2,0.3-0.4,0.398-0.601l0,0c0.102-0.101,0.102-0.199,0.2-0.301l0,0c0-0.1,0.102-0.3,0.102-0.398
	l0.198-0.9c0.102-0.2,0.4-1.1,0.7-2.4l0,0c0-0.1,0.102-0.3,0.102-0.5l0,0c0-0.199,0.1-0.3,0.1-0.5c0.1-0.3,0.1-0.699,0.2-1v-0.3
	c0-0.3,0.1-0.7,0.1-1.1v-1.4v-0.1l-0.3-2.6c0-0.3-0.1-0.5-0.2-0.7l-3.3-4.8c-0.1-0.1-0.2-0.2-0.4-0.2l-3.198-1.3
	c0.1-0.1,0.1-0.2,0.198-0.2c0.102-0.1,0.2-0.2,0.302-0.3c1-1,1.6-1.5,2.1-1.9c1.9-1.5,4.4-3.1,6.8-3.1l0,0c0.4,0,0.801,0,1.2,0.1
	c0.2,0,0.4,0.1,0.601,0.2c0.199,0.1,0.399,0.2,0.601,0.3l0.6,0.3c0.102,0.1,0.2,0.1,0.301,0.2c0.199,0.2,0.399,0.3,0.601,0.5
	l0.5,0.6c0.1,0.1,0.2,0.2,0.3,0.3c0.101,0.3,0.2,1.4,0.4,2.8c0.199,1.5,0.398,3.4,0.6,5.6v0.1c0.2,2,0.3,4.1,0.3,6.1
	c0,5.5-0.8,10.899-3.1,12.8l-0.2,0.2v0.3c0,0.1,0.2,1.2,1.601,2.6c1.399,1.4,4,3,8.801,4.2c0.3,0.101,0.898,0.4,1.6,0.5l0,0
	c0.3,0,0.7-0.2,0.9-0.5c0.398-0.6,0.8-1,1.1-1.3c0.4-0.3,0.8-0.4,1.101-0.4l0,0c0.801,0,1.601,0.5,2.301,1.5
	c0.699,1,1.1,2.301,1.1,3.602l0,0c0,1.5-0.5,3.1-2,4.398l-0.3,0.301l0.2,0.301c0,0,0.898,1.3,2.1,3.3c1.3,2,3,4.601,4.7,7.399
	c3.399,5.5,6.899,11.601,7.1,13.101l0.102,0.8l0.699-0.398c0,0,15.101-10.102,18.199-25.801l0,0l0,0c0,0-0.398-16-8.699-28.5
	c0,0,0,0-0.101-0.1c-0.1-0.1-0.1-0.2-0.2-0.3l-0.1-0.2l0,0l-0.101-0.1l-0.899-1.2c0,0,0-0.1-0.101-0.1
	c-0.399-0.5-0.699-0.9-1.101-1.3c0.4-0.2,1.101-0.5,1.9-0.8c1.5-0.5,3.5-1,5.6-1c1.101,0,2.3,0.1,3.4,0.5
	c0.398,0.7,1.898,3.3,4.3,5.8c2.399,2.5,5.7,4.801,9.5,4.801c2.1,0,4.2-0.699,6.399-2.399s4.5-4.4,6.699-8.3
	c0.301,0.3,0.801,0.8,1.4,1.3c0.1,0.1,0.2,0.2,0.399,0.3c0.301,0.2,0.601,0.5,0.899,0.7c0.2,0.1,0.4,0.2,0.5,0.4
	c1.4,0.9,3.101,1.7,4.8,1.7h0.5c0.602-0.1,0.9-0.2,1.102-0.2c-0.301,0.6-0.7,1.4-1.2,2.4l0,0l-0.2,0.4l0,0l0,0
	c-1.399,2.898-3.3,6.898-4.8,10.699c-1.602,4-2.8,7.801-2.8,10.101c0,0.7,0.1,1.2,0.398,1.7s0.8,0.699,1.3,0.8
	c0.2,0,0.602,0.101,1.2,0.101c1.4,0,4-0.5,7.7-3c3.601-2.5,8.3-6.9,14.2-15.101c0,0,0.1-0.101,0.1-0.2c0.2-0.3,0.4-0.5,0.5-0.8
	c0.4-0.5,0.801-1.101,1.102-1.601c0.398-0.601,0.8-1.101,1.199-1.699l1.801-2.7c0.1,0,0.199,0,0.398,0c0.9,0,2.5,0.1,3.9,0.6
	c0.7,0.3,1.3,0.601,1.7,1.101c0.398,0.5,0.699,1.101,0.699,1.899c0,1.4,0,2.101,0.199,2.601l-0.1,0.101l0,0l0,0
	c-0.4,0.399-0.8,0.899-1.2,1.5c-0.1,0.2-0.3,0.3-0.399,0.5c-0.5,0.8-0.899,1.7-0.899,2.601l0,0v0.301l0.1,0.3l0.5,1
	c0.102,0.101,0.301,0.3,0.5,0.399l0.602,0.301l0,0c1.398,0.299,2,0.398,2.8,0.398c0.3,0,0.7,0,1.1,0c0.4,0,0.801-0.101,1.301-0.101
	c0.199,0,0.301,0,0.5-0.101c0.5-0.1,1-0.1,1.5-0.199c0.5-0.101,1.101-0.2,1.699-0.301c0.602-0.1,1.2-0.199,1.9-0.399
	c0.399-0.101,0.899-0.199,1.399-0.3s1-0.2,1.5-0.399c8-2.3,9.301-2.7,10.699-3.2c0.102,0,0.301,0,0.5,0c0.602,0,1.5,0,2.602,0.102
	c1.1,0.1,2.3,0.199,3.5,0.5c1.6,0.299,2.898,0.799,3.6,1.5c0.101,0.1,0.101,0.1,0.2,0.199c0.1,0.101,0.2,0.301,0.2,0.399
	c0.1,0.101,0.1,0.3,0.1,0.399c0,0,0,0,0,0.101l0,0l-0.1,0.601l-0.102,0.199l0,0L474,296.9c-0.1,0.1-0.2,0.3-0.3,0.398l-1,1.2
	l-0.3,0.3l0,0c-0.301,0.102-1.301,0.2-2.602,0.5c-0.2,0-0.398,0.102-0.6,0.102c-0.102,0-0.3,0.1-0.4,0.1c-0.1,0-0.3,0.1-0.398,0.1
	c-0.102,0-0.2,0-0.2,0.102c-1.5,0.3-3.3,0.8-5.3,1.3l-3.5,1c-0.2,0-0.301,0.101-0.5,0.101c-2.5,0.801-5.2,1.601-7.801,2.699
	c-2.801,1.102-5.399,2.301-7.801,3.7c-4.699,2.8-8.199,6.2-8.199,10.399v0.101v0.101c0,0,0.899,3.601,3,7.199
	c2.101,3.602,5.5,7.301,10.5,7.301c2.801,0,6-1.199,9.699-4.101c3.5-2.7,7.4-7,12.4-14.101c0.1-0.101,0.2-0.301,0.3-0.399
	c1.3-1.899,2.601-4,4-6.2c0.101,0,0.3-0.1,0.5-0.199c0.101,0,0.3-0.101,0.4-0.199c0.5-0.201,1.1-0.4,1.8-0.602
	c0.3-0.101,0.5-0.101,0.8-0.199c0.5-0.101,1.1-0.199,1.6-0.199l0,0c1,0,1.802,0.199,2.4,0.799c0.2,0.101,0.3,0.301,0.4,0.5
	c0.1,0.201,0.198,0.4,0.3,0.701l0.3,2c-0.1,0.199-0.3,0.699-0.6,1.5c-0.102,0.1-0.102,0.299-0.2,0.5
	c-0.102,0.199-0.2,0.398-0.3,0.699c-0.102,0.1-0.102,0.301-0.2,0.5l-0.3,0.699l-1.302,2.899l0,0l-1.198,2.5
	c-0.102,0.2-0.2,0.301-0.2,0.5c-3.4,7.399-8.5,16.399-11.9,17.399L466.9,338.7l0.1,0.399c0,0,0.2,0.9,0.8,1.7
	c0.602,0.8,1.602,1.7,3.4,1.7c1.6,0,3.6-0.6,6.3-2.4c2.5-1.6,5.6-4.199,10.1-8.8l0.302-0.3c0.6-0.6,1.1-1.2,1.698-1.9
	c0.302,0.102,0.802,0.2,1.5,0.5c0.7,0.301,1.4,0.602,2.2,1c1,0.602,2,1.301,2.7,2.2c0.7,0.9,1.2,2.101,1.2,3.4
	c0,1.1-0.3,2.399-1.102,3.899c-0.5,0.199-1.898,0.801-4,1.601c-2.1,0.8-4.8,2-7.8,3.3c-0.1,0.1-0.3,0.1-0.5,0.2
	c-10.6,4.5-24.5,10.899-27.7,15v0.1v0.101c0,0-0.3,1-0.6,2.399c-0.3,1.4-0.6,3.3-0.6,5.2s0.3,3.8,1.3,5.3s2.7,2.5,5.2,2.5l0,0
	c1.8,0,4.1-0.5,7-1.7c2.898-1.199,6.3-3,10.5-5.699c0,0,2.898-2.399,6.698-5.699c3.7-3.301,8.4-7.602,12.4-11.801l0.1-0.101
	c0.302-0.3,0.5-0.5,0.7-0.8c1.2-1.3,2.3-2.6,3.2-3.8c0.2-0.2,0.4-0.5,0.5-0.7c0.2-0.2,0.3-0.5,0.5-0.7l0,0
	c0.3-0.5,0.6-0.899,0.9-1.3l1.198-2.9c0-0.1,0-0.3,0-0.398V340.1c0,0,0,0,0-0.1c0-0.2,0.102-0.5,0.102-1v-0.1c0-0.2,0.1-0.4,0.1-0.7
	c0-0.2,0-0.4,0-0.5l0.102-1.7c0-0.2,0-0.3,0-0.5v-0.3c0-0.3,0-0.7,0-1.101v-1.5v-1.801c0-0.3,0-0.5-0.102-0.8
	c0-0.2,0-0.399-0.1-0.601V329c0-0.2,0-0.3-0.102-0.5c0-0.1,0-0.1,0-0.2c0-0.1,0-0.3-0.1-0.399V327.8l-0.101-0.5
	c0-0.2-0.101-0.3-0.101-0.5l-0.2-0.5v-0.1l0,0c0,0,0,0,0-0.101l0,0h0.602c0.199,0,0.3,0,0.5,0h0.199h0.101h0.5c0.1,0,0.2,0,0.3,0
	h0.3c0.2,0,0.4,0.101,0.602,0.101c0.398,0.1,0.8,0.2,1.1,0.3c0.8,0.3,1.5,0.7,2.102,1.2c0.5,0.5,0.8,1.2,0.8,2.1
	c0,0.4-0.102,0.9-0.2,1.5l-0.8,2.5c-0.102,0.2-0.2,0.5-0.2,0.8l-0.2,0.9c-0.1,0.4-0.2,0.9-0.3,1.3l-0.9,6.101c0,1,0.102,1.8,0.5,2.5
	c0,0.101,0.102,0.199,0.102,0.3c0.1,0.101,0.2,0.301,0.398,0.399c0.2,0.2,0.5,0.301,0.802,0.4c0.1,0,0.198,0,0.3,0.1
	c0.1,0,0.2,0,0.3,0l0,0c0.1,0,0.2,0,0.4,0h0.1c0.1,0,0.2,0,0.3-0.1c0.102,0,0.102,0,0.2-0.1l0,0c0.5-0.201,1.3-0.701,2.2-1.201
	c1-0.699,2.3-1.5,3.6-2.299c2.602-1.701,5.4-3.201,6.9-3.201l0,0c0.7,0.101,0.898,0.101,1,1v0.201l0.2,0.1c0,0,0.8,0.6,1.5,1.699
	c0.8,1.101,1.5,2.5,1.5,4.201c0,0.699-0.102,1.398-0.4,2.1l-0.9,1.4c-0.1,0.1-0.198,0.199-0.198,0.299L527.6,351
	c-0.1,0.1-0.1,0.199-0.198,0.199c-1.4,0.5-13.5,5.101-31.4,15l-0.1,0.101L495.8,366.4c0,0-1,1.5-2.6,3.6c-1.602,2.2-3.9,5.1-6.5,8.1
	c-5.102,6-11.4,12.2-15.602,13.102H470.9l-0.102,0.1c0,0-2.8,3.2-5.5,9.4S459.9,416.2,459.9,428.6c0,9.302,1.5,20.4,5.8,33.2l0,0
	l0,0c0,0,0.398,0.7,1,1.9c0.6,1.1,1.398,2.8,2.2,4.5c1.6,3.5,3.198,7.8,3.198,10.3l0,0l0,0c0,3.1,1.2,5,2.302,7.1
	c1.1,2.102,2.198,4.4,2.198,8.802l-0.6,2.3l0.3,0.2c0,0,0.9,0.6,2.3,1.6c1.302,1,3.2,2.3,5,3.9c3.602,3.1,7.102,7.198,7.102,10.3
	l0,0c0,0.7-0.2,1.3-0.5,2l-0.102,0.2l0.102,0.3c-7.102,2.6-11.8,5.3-11.8,5.398H478.3v0.102c-0.8,0.898-1.898,1.6-3.3,2
	c-1.4,0.398-3,0.6-4.7,0.6c-2.3,0-4.898-0.3-7.5-0.8c-2.5-0.5-5.1-1.1-7.398-1.8c-2.302-0.7-4.302-1.3-5.802-1.8s-2.5-0.802-3-0.802
	c-0.1,0-0.198,0-0.3,0c-20.2,0-21.7,4.602-24.8,5c-1,0.102-1.9,0.2-2.8,0.2c-2.102,0-4-0.398-5.7-0.898s-3.1-1.2-4.3-1.9
	c-2.4-1.4-3.7-2.8-3.7-2.8l-0.2-0.2h-0.2c-4.3,0.3-9.1,2.3-13.1,4.5c-4,2.1-7.1,4.4-7.9,5c-0.698-0.2-1.1-0.6-1.398-1
	s-0.4-1-0.4-1.7l0,0c0-2.2,1.5-5.5,3.102-8.2c1.6-2.699,3.1-4.699,3.1-4.699l1.1-1.399l-1.6,0.6c-3.3,1.301-7,5.7-10,9.801
	c-3,4.199-5.3,8.199-5.7,8.801c-1.6,1.398-3.5,1.898-5.398,1.898l0,0c-3.4,0-7.102-1.6-10-3.199c-1.4-0.801-2.602-1.601-3.5-2.199
	c-0.9-0.602-1.302-1-1.4-1c-0.899-1-1.3-2.5-1.3-4.102c0-4.398,2.898-9.8,2.898-9.8l0.4-0.7H353c-1.7,0-3.5,1-5.2,2.4
	s-3.398,3.2-4.898,5.1c-1.4,1.7-2.602,3.301-3.5,4.602c-0.9,1.3-1.5,2.3-1.7,2.6c-1.5,1-3.7,1.3-5.9,1.3c-1.8,0-3.6-0.199-4.898-0.5
	c-1.302-0.3-2.2-0.5-2.2-0.5H324.6h-0.1c-0.6,0-1-0.1-1.2-0.3s-0.3-0.5-0.3-0.899l0,0c0-1.801,2.2-5.601,4.4-8.601
	c2.198-3.1,4.398-5.8,4.398-5.8l0.5-0.601l-0.8-0.199c-0.2,0-0.3,0-0.5,0c-1.5,0-3.6,1.1-6.1,2.699
	c-2.5,1.601-5.302,3.801-7.9,5.899c-1.9,1.5-3.7,3-5.2,4.4c-1.6,1.398-2.898,2.5-3.8,3.398c0.4-1.398,1.1-3.5,2-6s2-5.398,3.2-8.199
	c0.8-2,1.7-4,2.6-5.801c0.9-1.898,1.9-3.6,2.8-5.1c1.9-3,3.9-5,5.4-5.2h0.3l0.102-0.3c0,0,0.6-1.3,1.198-3.7
	c0.602-2.5,1.2-6.1,1.4-11c0-0.6,0-1.3,0-2c0-2.7,0.2-6,0.5-9.399s0.7-6.899,1.3-10.301c1.102-6.6,2.8-12.5,4.602-14.6l0.1-0.2v-0.2
	c0,0-0.1-1.199-0.3-3c-0.2-1.898-0.3-4.398-0.3-7.3c0-6.2,0.698-13.7,3.5-17.398l0.1-0.102V415.2c0,0,0.1-0.699,0.1-1.799
	c0-0.102,0-0.102,0-0.201c0-5.799-3-23.101-33.5-25.199c-0.3-0.101-2-0.5-4.399-1.2c-2.4-0.699-5.6-1.699-8.7-2.898
	c-1.7-0.602-3.3-1.301-4.8-2.102c-1.5-0.699-3-1.5-4.2-2.3c-2.4-1.601-3.9-3.399-3.9-4.899v-0.101V374.4c0,0-0.4-1.301-1-3.2
	s-1.6-4.399-2.8-7c-1-2.199-2.2-4.3-3.6-6.101c-1.4-1.8-2.9-3.199-4.6-3.8h0.1c0.1,0,0.2-0.101,0.3-0.101c0.1-0.1,0.3-0.1,0.4-0.199
	s0.3-0.1,0.4-0.2c0,0,0.1,0,0.1-0.101c0.3-0.1,0.5-0.299,0.8-0.399L267.5,352.5z"/>
<path fill="#FFFFFF" stroke="#000000" stroke-miterlimit="10" d="M181.5,177.4c1.3,0,2.9,0.7,5.1,2.9l0.1,0.3h0.1h0.3
	c0,0,1-0.2,2.6-0.4c1.6-0.2,3.7-0.4,6-0.4c3,0,6.1,0.3,8.5,1.3c1.2,0.5,2.1,1.1,2.8,1.9s1,1.8,1,3.1c0,0.4,0,0.8-0.1,1.3
	s-0.2,1-0.4,1.5l-0.1,0.3l0.2,0.2c0,0,0.2,0.3,0.5,0.8c0.3,0.5,0.7,1.2,1.2,2.1c0.8,1.8,1.7,4.1,1.7,6.5c0,1.5-0.4,3.1-1.3,4.5
	c-0.9,1.4-2.4,2.7-4.8,3.8c-0.1,0-0.2,0-0.3,0c-0.8,0-2.5,0-4.7,0.2c-2.2,0.2-4.9,0.5-7.4,1c-2.5,0.6-5.1,1.4-7,2.6
	c-1.9,1.2-3.2,2.9-3.2,5.2c0,1.3,0.4,2.7,1.3,4.3l0.1,0.2h0.3c0,0,0.5,0,1.3,0.2c0.8,0.1,1.8,0.4,2.8,0.9s1.9,1.1,2.6,2.1
	c0.7,0.9,1.2,2.1,1.4,3.7c-0.3,0-0.6-0.1-1-0.1H191c-2.5,0-6.7,1.6-8.3,10.1c0,0.1,0,0.2,0,0.3c0,0.9,0.6,1.7,1.4,2.5
	c0.8,0.8,1.8,1.5,2.8,2.3c0.4,0.3,0.8,0.6,1.2,0.8c0.4,0.3,0.8,0.5,1.1,0.7l0.7,0.4l0.4,0.2l0.4,0.2c0.2,0.9,1,4.3,2.9,7.5
	c1.9,3.2,4.9,6.2,9.5,6.2l1.3-0.1c1.7-0.3,2-0.4,3.3-0.8h0.2c0.2-0.1,0.5-0.2,0.7-0.3c0,0.2-0.1,0.5-0.1,0.8
	c-0.1,0.8-0.2,1.9-0.3,3.1l-0.1,1.3l-0.1,2.9v1.6c0,0.8,0,1.5,0,2.3c0,1.2,0.1,2.5,0.3,3.7v0.1c0.2,2,0.6,4,1.2,5.7
	c0.6,1.7,1.4,3.2,2.5,4.3c1.1,1.1,2.5,1.8,4.3,1.8c0.5,0,1.1-0.1,1.7-0.2c0.7-0.1,1.4-0.399,2.1-0.7l1-0.5c0.2,0.2,0.5,0.5,0.8,0.8
	c0.1,0.1,0.3,0.3,0.5,0.398c0.2,0.2,0.4,0.301,0.5,0.5c0.1,0.102,0.2,0.2,0.3,0.301c0.1,0.101,0.2,0.199,0.3,0.301
	c0.2,0.199,0.4,0.398,0.7,0.5c0.2,0.199,0.5,0.299,0.8,0.5c0.1,0.1,0.3,0.199,0.4,0.299l0.9,0.5c0.3,0.201,0.6,0.301,0.9,0.5
	c0.2,0.101,0.3,0.201,0.5,0.201c0.3,0.1,0.7,0.299,1,0.398c0.3,0.102,0.7,0.301,1.1,0.4l4.2,0.6c1.6,0,3.4-0.3,5.2-1
	c1.8-0.699,3.7-1.8,5.6-3.3c-0.4,1.399-1,3.601-1.5,6c-0.5,2.5-0.8,5.2-0.8,7.8c0,2.602,0.4,5.102,1.5,7
	c0.3,0.602,0.7,1.102,1.2,1.5c0.2,0.2,0.4,0.301,0.6,0.5c0.1,0.102,0.2,0.2,0.3,0.2c0.1,0.101,0.2,0.101,0.4,0.2
	c1.4,0.5,2.2,0.699,3,0.699c0.5,0.699,2.2,3.101,4.7,5.301c2.5,2.199,5.8,4.199,9.6,4.3l0,0c3.4,0,7-1.7,10.6-6
	c0.1,0,0.3,0.101,0.5,0.101c0.2,0,0.4,0.101,0.7,0.101c0.2,0,0.4,0.1,0.6,0.1c0.8,0.101,1.8,0.2,2.9,0.2c0,0,0,0,0.1,0
	c2.7,0,6.1-0.5,11.5-4.8l1-1.5c0.1-0.2,0.2-0.4,0.3-0.5l0.5-1.101l0,0l0,0c0.3,0.101,0.7,0.199,1.3,0.301c0.2,0,0.4,0.1,0.6,0.1
	c0.2,0,0.4,0.1,0.6,0.1c0.4,0.102,0.9,0.102,1.4,0.102h0.8c0.2,0,0.4,0,0.6,0c0.3,0,0.7,0,1-0.102c0.4,0,0.7-0.1,1.101-0.199
	c0.1,0,0.3,0,0.399-0.101c0.101,0,0.2-0.1,0.3-0.1c0.301-0.101,0.601-0.2,1-0.3l2.2-1c0.101-0.102,0.2-0.2,0.4-0.301l1.1-0.899
	l0.2-0.2l0.3-0.3c0.3,0.1,0.602,0.3,0.9,0.399c0.1,0,0.3,0.101,0.398,0.199c0.4,0.2,0.802,0.4,1.2,0.602c0.102,0,0.2,0.1,0.3,0.1
	c0.302,0.2,0.602,0.3,0.9,0.5s0.6,0.4,0.899,0.6c0.399,0.2,0.699,0.5,1.101,0.7c0.8,0.601,1.6,1.101,2.3,1.7
	c0.2,0.2,0.5,0.4,0.7,0.6c0.2,0.2,0.399,0.301,0.6,0.5c0.4,0.301,0.802,0.7,1.102,1c1.1,1,2.1,2.102,3,3.102
	c0.3,0.398,0.6,0.699,0.898,1.1c1.2,1.5,2.302,3,3.302,4.4c1,1.5,1.8,2.898,2.5,4.1c0.198,0.301,0.3,0.5,0.398,0.801
	c0.602,1.199,1.102,2.301,1.5,3.199c0.2,0.4,0.3,0.7,0.5,1c0.102,0.2,0.2,0.4,0.3,0.602c0,0.1,0.102,0.199,0.102,0.3
	c0.1,0.101,0.1,0.3,0.1,0.3c-0.1,0.301-0.398,1-0.8,1.9c-0.4,0.898-1,2-1.8,3.1c-1.8,2.6-4.5,5.1-8.3,5.1l0,0
	c-2.2,0-4.802-0.799-7.802-3l-0.398-0.299l-0.3,0.399c0,0-0.302,0.3-0.7,0.8c-0.4,0.5-1.102,1.2-2,1.9
	c-1.7,1.398-3.9,2.699-6.4,2.699l0,0c-1,0-2.1-0.199-3.2-0.801c-1.1-0.6-2.2-1.5-3.4-2.898c0-0.102,0-0.301,0-0.4
	c0-2.699,0.1-4.5,0.1-4.5v-0.1V332.3c-0.4-1.6-1.6-2.399-2.8-2.399c0,0,0,0-0.1,0c-3.4,0.101-7.9,4.101-7.9,4.101l-0.1,0.101
	l-0.2,0.2l0.1,0.101c-0.1,0.3-0.4,1-0.9,1.8c-0.6,1.2-1.4,2.8-2.4,4.5c-1.9,3.2-4.5,6.3-6.4,6.3c0,0,0,0-0.1,0
	c-0.4,0-0.8-0.1-1.2-0.4l0,0c0,0-0.1-0.1-0.2-0.199l-0.5-0.399l-0.2,0.601c0,0.201-0.1,0.301-0.2,0.399c-0.2,0.399-0.4,0.8-0.6,1.2
	c-0.1,0.102-0.2,0.3-0.3,0.398c-0.1,0.201-0.3,0.4-0.5,0.602c-0.1,0.102-0.2,0.3-0.4,0.398c-0.2,0.201-0.3,0.301-0.5,0.5
	c-0.6,0.602-1.3,1-2,1.4c-0.1,0.1-0.2,0.1-0.3,0.2l-0.6,0.3c-0.1,0-0.2,0.1-0.3,0.1l-0.5,0.201c-0.1,0-0.2,0.1-0.3,0.1h-0.1
	l-0.4,0.101l-0.7,0.2c-0.1,0-0.1,0-0.2,0h-0.2h-0.2l0,0l0,0c-0.1,0-0.7-0.102-1.5-0.102c-1.6,0-4.1,0.102-6.4,0.9
	c-2.3,0.801-4.4,2.301-5.1,5c0,0-1.3,4.1-3.6,8.2c-2.4,4.101-5.8,8.101-9.7,8.101c0,0,0,0-0.1,0c-1.6,0-3.3-0.601-5.3-2.101
	l-0.6-0.5l-0.2,0.7c0,0-0.3,0.8-0.7,2c-0.5,1.199-1.2,2.8-2.1,4.3c-1.9,3.2-4.6,6.2-8,6.2l0,0c-2.2,0-4.8-1.2-7.8-4.7l-0.1-0.101
	h-0.2c0,0-0.9-0.199-2.2-0.601c-1.3-0.401-3.1-1.101-4.9-2.199c-3.6-2.101-7.2-5.5-7.4-10.7l-0.1-1.199l-0.8,0.898
	c0,0-0.3,0.4-0.9,0.9s-1.4,1.3-2.4,2c-2,1.398-4.6,2.8-7,2.8l0,0c-3,0-6-2-7.8-9.5l-0.1-0.5l-0.5,0.101c0,0-0.3,0.101-0.9,0.199
	c-0.5,0.102-1.3,0.102-2.1,0.102c-1.5,0-3.2-0.2-4.5-1c-1.3-0.801-2.2-2.2-2.2-4.5c0-1.7,0.5-4,1.8-7.102c0.2-0.5,0.3-1,0.4-1.398
	l0,0c0-0.7-0.4-1.301-0.9-1.5c-0.5-0.301-1.1-0.301-1.6-0.301c-0.6,0-1.1,0.101-1.3,0.101c-0.3,0-1.2-0.101-2.4-0.3
	c-1.2-0.2-2.8-0.5-4.3-1c-3.4-1-6.5-2.7-6.5-4.9v-0.1c0-1,0.6-2.301,2.1-3.9l0.1-0.1v-0.2c0,0,0.1-0.399,0.1-0.899
	c0.1-0.601,0.1-1.4,0.1-2.301c0-1.8-0.3-4.1-1.3-6c-1.1-1.9-3.1-3.4-6.3-3.4l0,0c-0.4,0-0.7,0-1.1,0c-0.2,0-1.1-0.199-2.3-0.5
	c-1.1-0.299-2.6-0.799-4-1.398c-3.2-1.301-6.2-3.5-6.2-6.102c0,0,0,0,0-0.1c0-1.5,0.9-3.3,3.3-5.5l0.9-0.8l-1.1-0.101
	c0,0-1-0.101-2.4-0.3c-1.4-0.2-3.3-0.601-5.2-1.2c-3.8-1.199-7.3-3.199-7.3-6.399c0,0,0,0,0-0.101c0-0.8,0.2-1.8,0.8-2.899l0.1-0.2
	l-0.1-0.2c0,0-0.3-0.5-0.8-1.5c-0.5-0.899-1.1-2.3-1.7-3.899c-0.6-1.601-1.3-3.5-1.7-5.5c-0.5-2-0.8-4.199-0.8-6.299
	c0-3.4,0.8-6.9,3-9.7l0.2-0.3l-0.3-0.3c0,0-0.5-0.6-1.3-1.7s-1.8-2.6-2.9-4.3c-2.1-3.5-4.2-8-4.2-11.9l0,0c0-3.6,1.6-6.6,6.6-8.3
	l0.4-0.1v-0.4c0,0,0-0.5-0.1-1.3c0-0.8-0.1-2-0.1-3.3c0-2.2,0.1-5,0.4-7.9c0.3-2.9,0.8-6,1.6-8.9c1.7-5.6,4.6-9.9,9.6-9.9l0,0
	c0.8,0,1.6,0.1,2.5,0.3l0.3,0.1l0.2-0.3c0,0,0.8-1.1,2.1-2.9c1.3-1.7,3.1-4,5.3-6.3c4.2-4.6,9.7-9.1,14.1-9.1l0,0
	c1.4,0,2.6,0.4,3.8,1.3l0.5,0.4l0.3-0.6c0,0,0.3-0.7,0.9-1.8c0.6-1.1,1.4-2.5,2.5-3.9c2.1-2.9,5.2-5.6,8.6-5.6l0,0
	c1.2,0,2.4,0.3,3.8,1.1l0.6,0.4l0.1-0.8c0,0,0.1-0.6,0.3-1.4c0.2-0.8,0.5-1.9,0.9-3C178,179.4,179.4,177.4,181.5,177.4L181.5,177.4z
	"/>
<path fill="#FFFFFF" stroke="#000000" stroke-miterlimit="10" d="M187.3,179.4c-0.1-0.3-0.2-0.8-0.4-1.4c-0.3-1.1-0.5-2.7-0.5-4.5
	c0.1-6.3,3-15.6,20.7-19.1l0.5-0.1l-0.2-0.5c0,0-1.2-4-1.2-8.5c0,0,0,0,0-0.1c0-3.1,0.5-6.3,2.3-8.8c1.7-2.5,4.7-4.2,9.6-4.2
	c2.3,0,5,0.4,8.2,1.2l0.6,0.2V133c0,0,0.1-1.2,0.4-3c0.3-1.8,0.9-4.3,1.8-6.7c1.8-4.9,5-9.5,10.3-9.5l0,0c1.1,0,2.4,0.2,3.8,0.7
	l0.8,0.3l-0.2-0.9c0,0-0.2-0.8-0.2-2c0-1.8,0.3-4.6,2-7c1.7-2.5,4.7-4.7,10.2-5.4c0.3,0,0.9-0.1,1.7-0.1s1.7,0,2.7,0
	c4,0,9.1,0.1,9.1,0.1h0.7l-0.2-0.7c0,0-1.7-5.5-1.7-10.7l0,0V88c0-2.2,0.3-4.4,1.2-5.9c0.4-0.8,1-1.4,1.8-1.8
	c0.7-0.4,1.7-0.7,2.8-0.7c1.9,0,4.4,0.7,7.7,2.3l0.3,0.1l0.3-0.2c0,0,0.7-0.6,2-1.5c1.3-0.9,3-2.1,5.1-3.3c4.1-2.4,9.4-4.7,14-4.7
	l0,0c3.3,0,6.2,1.1,8.2,4.3l0.4-0.3L312.3,76c-0.398-0.7-0.6-1.5-0.6-2.5l0,0c0-3.3,2.3-8.1,5.6-12s7.7-6.9,11.602-6.9l0,0l0,0
	c4.3,0,8.5,3.6,10.8,14.5c0.1,0.4,0.2,0.8,0.2,1.2l1,0.1c0,0,0.1-0.5,0.398-1.4c0.4-1.4,1.3-3.8,2.4-6.5c1.1-2.8,2.6-5.9,4.3-8.9
	c3.4-6,7.9-11.1,12.8-11.1c0,0,0,0,0.102,0c0.6,0,1.3,0.1,2,0.3l0,0l0,0c0,0,1.5,0.2,3.698,0.6c2.2,0.4,5.2,1,8.2,1.8
	c6,1.6,11.8,4.4,11.602,7.6l1,0.2c0,0,0.6-1.5,1.8-3.7c1.1-2.2,2.7-5.2,4.5-8.3s3.8-6.2,5.898-8.7c2.102-2.5,4.2-4.4,6-5
	c0.102,0,0.102,0,0.2,0c2.2,0,15.8,0.5,19.2,10.2v0.1l0.1,0.1c0,0,1.102,1.3,3,2.5c2,1.3,4.9,2.5,8.7,2.5c2.5,0,5.2-0.5,8.4-1.9
	l0.1-0.1l0.102-0.1c0,0,0.398-0.5,1-1.4c0.6-0.8,1.6-1.9,2.698-3c2.2-2.2,5.2-4.3,8-4.3l0,0c2.5,0,5.102,1.6,7.4,6.6l0,0l0,0
	c0,0,0.2,0.3,0.6,0.9c0.302,0.5,0.802,1.3,1.302,2.2s0.898,1.9,1.198,2.9c0.302,1,0.602,2.1,0.602,3.1c0,1.8-0.7,3.3-2.9,4.2
	l-0.6,0.2l0.3,0.5c0,0,0.6,0.9,1.8,1.9c1.2,0.9,3.102,1.8,5.7,1.8c1.1,0,2.3-0.2,3.6-0.6c1.302-0.4,2.802-1,4.4-1.9
	c0.3,0,1.2,0.1,2.4,0.3c1.198,0.2,2.6,0.5,4.1,1c1.7,0.6,3.3,1.4,4.5,2.6c1.2,1.2,2,2.8,2,4.8c0,1.5-0.4,3.4-1.5,5.6
	c0,0-0.3,0.8-0.5,2c-0.3,1.2-0.5,2.8-0.5,4.6c-0.1,5.2,2.3,12,13,12.6h0.1h0.102c0,0,8.1-3.2,14.399-3.2l0,0
	c2.101,0,3.801,0.3,5.101,1.2c1.3,0.8,2,2.2,2,4.3c0,0.7-0.101,1.4-0.2,2.2v0.1v0.1c0,0,1.2,4.5,4.5,9.1c3.3,4.5,8.8,9.1,17.3,9.1
	c2.9,0,6.2-0.5,9.8-1.8c0.5,0,2.7,0.1,5,1.2c2.302,1.2,4.602,3.4,5.4,7.9c0.1,0.9,0.2,2,0.2,3.1c0,0.8,0,1.8-0.101,2.7
	c-0.199,1.6-0.5,3.4-1,5.4l0,0l0,0c0,0,0,0,0,0.1c0,0.1,0,0.2,0,0.3s0,0.1,0,0.2c0,0.3-0.101,0.6-0.101,1c0,0.1,0,0.3,0,0.4
	c0,0.6-0.1,1.3-0.1,2c0,0.6,0,1.2,0,1.9c0,1.4,0,3,0.2,4.6c0,0.5,0.1,1.1,0.1,1.6c0.2,2.2,0.7,4.4,1.3,6.4
	c0.601,2,1.601,3.8,2.9,5.1c1.3,1.3,3,2.1,5,2.1c0.6,0,1.2-0.1,1.8-0.2c0.4-0.1,1.2-0.3,2.1-0.5c0.9-0.2,2-0.3,3.102-0.3
	c1.8,0,3.5,0.3,4.898,1.5c0.102,0.1,0.2,0.1,0.301,0.2c0.199,0.2,0.301,0.3,0.5,0.5c0.101,0.1,0.101,0.2,0.199,0.3
	c0.102,0.2,0.301,0.4,0.4,0.6c0.6,1.2,1,2.7,1,4.9c0,1.9-0.3,4.3-1,7.1l-0.1,0.6l0.6,0.1c0,0,0.1,0,0.2,0c0.1,0,0.398,0.1,0.6,0.1
	c0.101,0,0.2,0,0.2,0.1l0,0c0.2,0,0.3,0.1,0.5,0.1c0.2,0.1,0.4,0.1,0.6,0.2c0.2,0.1,0.301,0.1,0.5,0.2c0,0,0.102,0.1,0.2,0.1
	c0.2,0.1,0.4,0.2,0.5,0.3c0.9,0.5,1.7,1.2,2.3,2.1c0.602,1,1,2.2,1,3.7c0,1.8-0.6,4.2-2.1,7.2l-0.2,0.3l0.2,0.3c0,0,0.3,0.4,0.8,1
	c0.5,0.6,1.2,1.5,1.9,2.6c0.3,0.5,0.7,1.1,1,1.7c0.2,0.3,0.3,0.6,0.5,0.9c0.1,0.3,0.3,0.6,0.398,1c0.5,1.3,0.802,2.6,0.802,3.8l0,0
	c0,1.2-0.302,2.4-1,3.4c-0.7,1-1.9,2-3.7,2.8c0,0-3.8,1.1-5.5,4l-0.5,1.1c-0.2,0.5-0.3,1.1-0.3,1.8c0,3,2.198,6.9,8.698,11.9l0,0
	l0,0c0,0,0.5,0.3,1.302,0.7c0.8,0.5,1.898,1.1,3,2.1c0.398,0.3,0.8,0.7,1.198,1.1c0.302,0.3,0.5,0.5,0.802,0.8
	c0.1,0.1,0.198,0.3,0.398,0.4c0.2,0.3,0.4,0.6,0.602,0.9c0.8,1.3,1.3,2.7,1.3,4.2l0,0c0,1-0.2,2-0.7,3.2c-0.5,1.1-1.3,2.3-2.4,3.6
	c-0.6-0.1-2-0.2-3.8-0.4c-1.899-0.1-4.2-0.3-6.6-0.3c-0.4,0-0.8,0-1.2,0c-1.6,0-3.3,0.1-4.8,0.3c-1.2,0.1-2.3,0.3-3.3,0.6
	c-1.302,0.4-2.5,0.8-3.4,1.5s-1.5,1.5-1.5,2.7c0,0.1,0,0.6,0,1.6c0,1.2,0,3.1-0.3,5.2c-0.2,2.1-0.7,4.4-1.4,6.6
	c-0.8,2.2-1.8,4.1-3.2,5.6c-0.6,0.6-1.199,1-1.898,1.4c-0.2,0.1-0.4,0.2-0.602,0.3c-1,0.4-2,0.6-3.3,0.6c-0.6,0-1.2,0-1.899-0.2
	l-1.601-0.4c-0.2-0.1-0.399-0.1-0.6-0.2c0,0,0,0-0.102-0.1l-0.1-0.1l-0.1-0.1L563,261.3c-0.1,0-0.1-0.1-0.2-0.1c0,0,0,0-0.1-0.1
	c0,0-0.101,0-0.101-0.1c-0.101,0-0.101-0.1-0.199-0.1l0,0c-0.101,0-0.101-0.1-0.2-0.1l0,0c-0.101-0.1-0.101-0.1-0.2-0.2
	s-0.2-0.1-0.2-0.2c-0.1-0.1-0.199-0.1-0.3-0.2c-0.1-0.1-0.2-0.1-0.3-0.2l0,0c-0.101-0.1-0.2-0.1-0.3-0.2l0,0
	c-0.101-0.1-0.301-0.2-0.5-0.3l-0.101-0.1c-0.101-0.1-0.2-0.1-0.301-0.2c-0.3-0.2-0.6-0.3-0.8-0.5l-0.2-0.1
	c-0.1-0.1-0.199-0.1-0.399-0.2c-0.199-0.1-0.5-0.2-0.699-0.3c0,0-0.101,0-0.101-0.1l-0.2-0.1c-0.3-0.1-0.5-0.2-0.8-0.3l-0.8-0.2
	c-0.699-0.1-1.3-0.2-2-0.3c-1.3,0-2.6,0.4-3.699,1.3c-0.101,0.1-0.301,0.2-0.399,0.4c-0.101,0.1-0.301,0.3-0.4,0.4
	c-0.8,0.9-1.399,2-1.899,3.5v0.1v0.1c0,0,0,0.3,0.101,0.8c0,0.1,0,0.1,0,0.2c0.1,0.6,0.1,1.5,0.1,2.6v0.1c0,0.3,0,0.6,0,1
	c0,0.1,0,0.2,0,0.2c0,0.2,0,0.4,0,0.7c0,0.1,0,0.1,0,0.2c0,0.1,0,0.3,0,0.4c0,0.2,0,0.4-0.1,0.5c0,0.3-0.101,0.6-0.101,0.9
	c-0.101,0.8-0.301,1.6-0.601,2.3c-0.1,0.3-0.2,0.6-0.3,0.9c-0.101,0.2-0.2,0.4-0.3,0.6c-0.101,0.2-0.2,0.3-0.301,0.5l0,0
	c-0.5,0.8-1,1.5-1.699,2.2c-0.301,0.3-0.601,0.5-0.9,0.7c-0.2,0.1-0.3,0.2-0.5,0.3c-1.3,0.8-3.1,1.3-5.3,1.3c-0.101,0-0.3,0-0.5,0
	s-0.3,0-0.5,0c-0.4-0.3-1.601-1.1-3.2-1.9c-1.6-0.8-3.6-1.5-5.7-1.5c-1.8,0-3.6,0.6-5.199,2.1c-0.101,0.1-0.199,0.2-0.301,0.3
	c-0.398,0.4-0.8,1-1.1,1.5c-0.5,0.9-1,1.9-1.4,3.1c-0.1,0.4-0.199,0.8-0.3,1.299c-0.2,0.701-0.3,1.4-0.399,2.201
	c0,0.299-0.101,0.5-0.101,0.799v0.101l0,0c0,0,0,1-0.2,2.5c-0.199,1.5-0.6,3.399-1.5,5.399c-0.898,2-2.1,3.9-3.898,5.301
	c-0.2,0.199-0.5,0.4-0.7,0.5s-0.4,0.3-0.601,0.4c-0.399,0.199-0.699,0.398-1.101,0.5c-0.3,0.1-0.5,0.199-0.8,0.299
	c-0.3,0.101-0.601,0.201-0.9,0.301c-0.199,0-0.398,0.1-0.6,0.1c-0.3,0.101-0.7,0.101-1.101,0.2l-1.199,0.101c-0.2,0-0.4,0-0.602,0
	c-0.398,0-0.8,0-1.1,0c-0.2,0-0.5-0.2-1-0.301l0,0c-0.101,0-0.2-0.1-0.3-0.1c-0.2-0.1-0.5-0.1-0.7-0.2
	c-0.3-0.101-0.601-0.101-0.8-0.2c-0.602-0.1-1.2-0.199-1.9-0.3c-0.3,0-0.7,0-1,0s-0.6,0-0.8,0c-0.8,0.101-1.601,0.3-2.3,0.8
	c-0.9,0.601-1.5,1.7-1.5,3.101l0,0c0,1.301,0.398,2.801,1.199,4.801c0.101,0.199,0.199,0.5,0.301,0.8c0.398,1,1,2,1.6,3.2
	c0.2,0.399,0.5,0.8,0.7,1.199l0,0c0.1,0.101,0.2,0.301,0.2,0.399c0,0.1,0.1,0.2,0.199,0.301l0.301,0.399c0.3,0.399,0.5,0.8,0.8,1.3
	c0.1,0.2,0.2,0.4,0.399,0.601c0.5,0.801,1,1.5,1.601,2.301c0.2,0.199,0.3,0.5,0.5,0.699c0.399,0.601,0.8,1.101,1.3,1.7
	c0,0,0,0,0,0.101l0,0c0.2,0.3,0.4,0.5,0.601,0.8l0,0l0,0c0.101,0.2,0.2,0.399,0.301,0.7c0,0.101,0.1,0.199,0.1,0.3
	c0,0,0,0.102,0,0.2s0,0.199,0.101,0.199c0,0.101,0.101,0.2,0.101,0.399c0.101,0.2,0.101,0.5,0.101,0.801v0.101l0,0
	c0,0.101,0,0.3,0.101,0.399c0.1,0.5,0.1,1.101,0.2,1.699c0,0.7,0.1,1.4,0.1,2.101c0,3.801-0.5,7.399-0.5,7.399l0,0l0,0
	c0,0,0,0,0,0.101c0,0.601-0.3,1.399-0.8,2.301c-0.101,0.199-0.2,0.399-0.3,0.601c-0.2,0.399-0.5,0.801-0.801,1.301
	c-0.199,0.199-0.301,0.398-0.5,0.699c-0.199,0.199-0.301,0.5-0.5,0.699c-0.399,0.5-0.801,1-1.199,1.5c-0.801,1-1.801,2-2.7,3.102
	c-0.8,0.6-1.7,0.799-2.601,0.799c-2.101,0-4.601-1.398-6.5-2.898c-1.301-1-2.301-1.899-2.801-2.5c4.2-1.801,7.801-3.201,9.801-4
	c0.101,0,0.101,0,0.199-0.102c0.4-0.199,0.7-0.299,0.9-0.398c0.199-0.101,0.3-0.102,0.399-0.201c0.101,0,0.101,0,0.101,0l0,0
	l0.2-0.1l0.1-0.199c0.9-1.701,1.3-3.201,1.3-4.5c0-0.801-0.199-1.5-0.398-2.201c-0.102-0.299-0.301-0.699-0.4-1
	c-0.2-0.299-0.3-0.6-0.6-0.899c-0.2-0.3-0.4-0.5-0.7-0.8c-0.8-0.801-1.8-1.5-2.7-2c-0.1-0.101-0.3-0.101-0.399-0.2
	c-1.801-0.899-3.5-1.199-3.5-1.199L490,326.4l-0.199,0.199c-0.301,0.301-0.601,0.6-0.899,1l-0.101,0.1
	c-0.301,0.301-0.5,0.5-0.7,0.801H488c-0.5,0-2.1-0.1-3.6-1s-2.801-2.801-2.801-6.301c0-0.5,0-1,0.101-1.6v-0.4l-0.399-0.1
	c0.101-0.101,0.101-0.301,0.199-0.4c0.2-0.299,0.301-0.6,0.4-0.899c1-2.3,1.899-4.3,2.399-5.601c0.101-0.199,0.101-0.299,0.199-0.5
	c0.101-0.199,0.2-0.5,0.301-0.6l0,0c0-0.101,0-0.101,0.101-0.199c0.1-0.301,0.199-0.5,0.199-0.5V310.3v0.7c0-1.9-0.5-3.2-1.399-4
	c-0.7-0.7-1.7-1-2.601-1.1c-0.199,0-0.3,0-0.5,0c-0.5,0-1,0.1-1.601,0.199c-2.199,0.399-4.199,1.399-4.199,1.399l-0.101,0.101
	l-0.101,0.101c-1,1.7-2.101,3.3-3.101,4.8c-0.2,0.2-0.3,0.5-0.5,0.7c0,0,0,0.1-0.1,0.1c0,0.101-0.102,0.101-0.102,0.2l0,0l0,0
	l-0.199-0.1h-0.199c-0.5,0.1-1.102,0.199-1.5,0.199l0,0c-3.2,0-5.301-2.699-6.602-5.601c-0.6-1.3-1-2.601-1.3-3.601
	s-0.399-1.801-0.399-2c0.101,0,0.101,0,0.199,0c0.602-0.199,1.102-0.301,1.7-0.5c0.601-0.199,1.2-0.301,1.8-0.5
	c0.5-0.101,1-0.199,1.4-0.399c1.3-0.3,2.5-0.601,3.6-0.8c0.4-0.102,0.9-0.2,1.2-0.301c0,0,0.101,0,0.2,0
	c0.2,0,0.399-0.101,0.601-0.101c0.199,0,0.399-0.1,0.601-0.1c0.1,0,0.199,0,0.3-0.101l0,0c0.399-0.101,0.7-0.101,0.8-0.199
	c0.101,0,0.2,0,0.2,0h0.2l0.1-0.102c0.301-0.3,0.601-0.6,0.9-0.898c0.1-0.102,0.199-0.2,0.199-0.301
	c0.101-0.199,0.301-0.399,0.399-0.5c0.101-0.199,0.301-0.399,0.301-0.5c0.399-0.699,0.601-1.301,0.601-1.899
	c0-0.3-0.101-0.5-0.101-0.8c0-0.102-0.101-0.2-0.101-0.4c-0.101-0.2-0.3-0.4-0.399-0.6c-0.101-0.102-0.2-0.2-0.301-0.301
	c-0.199-0.199-0.399-0.301-0.6-0.5c-0.9-0.601-2.101-0.899-3.301-1.199c-1.199-0.301-2.5-0.4-3.601-0.5
	c-1.1-0.102-2.1-0.102-2.699-0.102c-0.399,0-0.601,0-0.601,0h-0.101H464c-2.1,0.7-4,1.301-5.8,1.801c-3,0.899-5.5,1.5-7.601,2
	c-1.5,0.301-2.8,0.601-4,0.801c-0.199,0-0.3,0.1-0.5,0.1c-0.199,0-0.3,0-0.399,0.1c-1.101,0.102-2,0.2-2.8,0.2
	c-1.5,0-2.4-0.2-2.9-0.5c-0.1-0.1-0.199-0.2-0.3-0.2c-0.101-0.1-0.2-0.199-0.2-0.3c0,0,0-0.1-0.1-0.1
	c-0.101-0.2-0.101-0.3-0.101-0.5c0-0.101,0-0.2,0-0.3c0-0.102,0-0.2,0.101-0.301c0.1-0.199,0.199-0.5,0.3-0.801
	c0.101-0.199,0.3-0.5,0.399-0.699c0.101-0.101,0.101-0.199,0.2-0.301c0.101-0.199,0.3-0.398,0.399-0.6c0.101-0.2,0.3-0.4,0.399-0.5
	c0.101-0.102,0.2-0.2,0.301-0.301c0.1-0.101,0.1-0.101,0.199-0.199c0.101-0.102,0.2-0.2,0.2-0.2l0,0c0.101,0,0.101,0,0.101,0
	l0.199-0.101l0,0c0.301-0.301,0.301-0.399,0.301-0.399l0.1-0.101c0,0,0-0.101,0.101-0.101v-0.101l0,0l0,0l0,0l-0.399-0.299
	l-0.399-0.301c0,0,0,0-0.101,0.101l0,0l0,0c0-0.101,0-0.3-0.101-0.5c0-0.3,0-0.5,0-0.9c0-0.1,0-0.2,0-0.3l0,0
	c0-0.8-0.199-1.5-0.601-2l-0.399-0.5l0,0c-0.101-0.1-0.3-0.3-0.399-0.4l0,0l-0.3-0.2c-0.101-0.1-0.2-0.1-0.301-0.2
	c-0.199-0.1-0.399-0.2-0.601-0.3c-0.199-0.1-0.399-0.2-0.6-0.2c-1.601-0.6-3.301-0.7-4.301-0.7c-0.399,0-0.699,0-0.699,0h-0.301
	L433,282.7c-1.1,1.7-2.199,3.399-3.199,4.899c-0.301,0.399-0.601,0.801-0.899,1.199c-0.2,0.301-0.4,0.5-0.601,0.801
	c-0.7,0.199-1.301,0.199-2,0.199l0,0c-3,0-6.399-1.3-9-2.6c-1-0.5-1.899-1-2.601-1.4c-0.7-0.398-1.3-0.8-1.601-1
	c0.301-0.5,0.5-1,0.7-1.4c0-0.1,0.101-0.2,0.199-0.3c0.101-0.1,0.101-0.3,0.2-0.4c0-0.1,0-0.1,0.101-0.1
	c0.101-0.2,0.199-0.3,0.199-0.5c0,0,0-0.1,0.101-0.1c0,0,0,0,0-0.1l0.101-0.1c0.101-0.2,0.2-0.3,0.2-0.4v-0.1l0,0l-0.801-0.6
	c-0.8,0.8-1.601,1-2.5,1l0,0c-0.899,0-1.8-0.3-2.699-0.7c-0.7-0.3-1.301-0.7-1.9-1.1c-0.199-0.1-0.398-0.3-0.6-0.4
	c-1-0.8-1.9-1.6-2.301-2L404,277.4l-0.1-0.1l-0.101-0.1l0,0l0,0l-0.5-0.5l0,0l-0.3,0.6c-0.899,1.5-1.699,2.9-2.5,4
	c-0.1,0.2-0.3,0.4-0.399,0.6c-1.3,1.7-2.5,2.9-3.699,3.9c-0.101,0.101-0.301,0.2-0.4,0.3c-0.3,0.2-0.5,0.4-0.8,0.5
	c-0.3,0.2-0.5,0.301-0.8,0.4c-0.301,0.1-0.5,0.3-0.801,0.3c-0.101,0-0.3,0.101-0.399,0.2c-0.3,0.1-0.5,0.2-0.7,0.2
	c-0.3,0.1-0.5,0.1-0.699,0.2c-0.2,0.1-0.5,0.1-0.7,0.1c-0.199,0-0.5,0-0.699,0l0,0c-2.301,0-4.4-1-6.301-2.3
	c-0.399-0.3-0.699-0.601-1.101-0.9c-0.699-0.6-1.3-1.2-1.899-1.9c-2.399-2.6-3.699-5.2-3.8-5.2l-0.101-0.2l-0.2-0.1
	c-1.3-0.5-2.6-0.6-3.899-0.6c-4.5,0-8.5,2.2-8.5,2.2l-0.5,0.3l0.399,0.5c0.2,0.3,0.5,0.5,0.7,0.8c0.2,0.2,0.399,0.4,0.5,0.7
	c0.3,0.3,0.5,0.7,0.8,1c0.101,0.2,0.301,0.4,0.4,0.6c-0.7,1.2-1.601,2-2.4,2.4c-0.899,0.5-1.8,0.7-2.699,0.7l0,0
	c-1.7,0-3.5-0.7-4.801-1.4c-1.3-0.7-2.199-1.398-2.199-1.398l-0.399-0.3l-0.301,0.4c-1.601,1.9-3.101,3.102-4.601,3.9
	s-3,1.1-4.399,1.1H345c-6.899,0-12.699-8.4-13.5-9.7c-0.1-0.8-0.1-1.6-0.199-2.4c0-0.1,0-0.2,0-0.3c-0.101-0.7-0.101-1.4-0.2-2
	c-0.101-0.8-0.199-1.4-0.3-2c0-0.2,0-0.3-0.101-0.5c0-0.1,0-0.2,0-0.3c0-0.2-0.101-0.4-0.101-0.5c0,0,0,0,0-0.1s0-0.2-0.101-0.2l0,0
	c0-0.1,0-0.1,0-0.2s0-0.2,0-0.2v-0.1l-0.1-0.1c-0.2-0.3-0.4-0.5-0.601-0.8c-0.601-0.7-1.301-1.2-2-1.6c-0.2-0.1-0.5-0.2-0.7-0.3
	s-0.5-0.2-0.7-0.2c-0.199-0.1-0.5-0.1-0.699-0.1c-0.2,0-0.5,0-0.7,0l0,0c-5.5,0.1-10.699,6.5-10.8,6.5l-0.5,0.7l0.899,0.1
	c0.2,0,0.399,0.1,0.601,0.1c0.399,0.1,0.699,0.2,1,0.3c0.3,0.1,0.601,0.2,0.899,0.3c0.3,0.1,0.601,0.3,0.8,0.4
	c0.601,0.3,1.2,0.7,1.601,1.2c0.101,0,0.101,0.1,0.101,0.1l0.101,0.1c0.101,0.1,0.2,0.2,0.3,0.3c0.2,0.2,0.301,0.4,0.4,0.6
	c1.1,1.6,1.399,3.6,1.399,5.6c0,3.601-1.2,6.8-1.2,6.8l0,0l0,0c-0.2,1.102-0.601,1.9-1.101,2.301
	c-0.5,0.399-1.101,0.601-1.899,0.601l0,0c-1.7,0-3.899-1-5.601-2.101c-1.8-1.101-3-2.101-3-2.101l-0.8,0.601
	c0.101,0.301,0.199,0.5,0.199,0.801c0.101,0.3,0.101,0.5,0.101,0.8l0,0c0,0.399-0.101,0.899-0.199,1.3c-0.2,0.6-0.5,1.2-0.899,1.7
	c-0.101,0.1-0.2,0.3-0.301,0.399c-0.601,0.801-1.4,1.601-2.2,2.301c-0.3,0.199-0.6,0.5-0.9,0.699c-0.3,0.199-0.6,0.399-0.899,0.601
	c-0.299,0.2-0.5,0.399-0.8,0.5c-0.301,0.2-0.5,0.3-0.801,0.5c-0.199,0.1-0.5,0.3-0.699,0.399c-0.9,0.5-1.4,0.801-1.4,0.801l-1.3,0.6
	l1.399,0.3c0.2,0,0.4,0.101,0.601,0.101c0.201,0,0.5,0.101,0.7,0.199c0,0,0,0,0.1,0s0.3,0.102,0.4,0.102
	c0.3,0.1,0.6,0.199,0.899,0.3c0.299,0.101,0.601,0.2,0.9,0.3c0.2,0.102,0.5,0.2,0.7,0.301c0.3,0.101,0.5,0.199,0.8,0.301
	c-0.2,0.3-0.5,0.5-0.7,0.699l0,0c-0.1,0.101-0.3,0.199-0.4,0.301c-0.1,0.1-0.3,0.199-0.399,0.3l0,0c-0.101,0.1-0.2,0.1-0.3,0.2
	c-0.5,0.3-0.9,0.5-1.4,0.699c-0.4,0.199-0.8,0.301-1.2,0.399c-0.2,0-0.3,0.101-0.5,0.101c-0.5,0.101-0.899,0.101-1.399,0.199
	c-0.101,0-0.301,0-0.4,0c-0.2,0-0.4,0-0.6,0c-0.8,0-1.6-0.1-2.3-0.199c-0.3,0-0.5-0.101-0.8-0.101c-0.1,0-0.2,0-0.4-0.101
	c-0.3-0.101-0.6-0.101-0.9-0.199c-0.1,0-0.1,0-0.2-0.102c-0.1,0-0.2-0.1-0.3-0.1c-0.1,0-0.1,0-0.1,0l-0.5-0.2l-0.2,0.399
	c-0.9,2.201-2.2,3.801-3.7,5l0,0c-0.1,0.101-0.3,0.201-0.4,0.301s-0.3,0.199-0.4,0.3l0,0c-0.1,0.101-0.3,0.2-0.4,0.3l0,0
	c-0.1,0.1-0.3,0.2-0.4,0.2l0,0c-0.1,0.101-0.3,0.101-0.4,0.2c-1.7,0.8-3.6,1.199-5.3,1.4c-0.6,0-1.1,0.1-1.7,0.1
	c-1.3,0-2.5-0.1-3.3-0.301c-0.8-0.1-1.3-0.299-1.3-0.299L274,311.8l-0.2,0.3c-0.9,1.101-1.8,2-2.6,2.801c-0.8,0.8-1.7,1.399-2.6,1.8
	c-0.4,0.2-0.8,0.399-1.3,0.601c-1.2,0.5-2.4,0.7-3.6,0.7l0,0c-2.3,0-4.4-0.801-6.3-2c-0.1,0-0.1-0.101-0.2-0.101l0,0
	c-1.2-0.801-2.2-1.601-3.1-2.5c-2.5-2.301-3.9-4.7-4-4.7l-0.1-0.2h-0.3c-1.3,0-2.3-0.301-3.1-0.7c-0.8-0.5-1.4-1.101-1.9-1.899
	c-1-1.601-1.3-3.899-1.3-6.399V299.4c0-6.899,2.8-15.2,2.8-15.2l-0.8-0.5c-1.1,1-2.1,1.8-3.1,2.5c-0.5,0.301-1,0.601-1.5,0.899
	c-0.3,0.101-0.5,0.301-0.7,0.4c-0.2,0.1-0.5,0.199-0.7,0.3l-1.4,0.5c-0.5,0.101-0.9,0.3-1.4,0.3c-0.4,0.101-0.9,0.2-1.3,0.2
	L234,288.9l0,0l-2-0.102c-1.1-0.199-2.1-0.398-3-0.8c-1.5-0.601-2.8-1.301-3.9-2.101c-1.4-1-2.3-1.899-2.9-2.5
	c-0.1-0.1-0.2-0.2-0.3-0.3s-0.2-0.2-0.2-0.2l0,0l0,0l-0.3-0.3l-0.4,0.2c-1.9,1-3.4,1.399-4.7,1.399c-1.5,0-2.6-0.5-3.6-1.5
	c-0.9-0.9-1.7-2.3-2.2-3.9c-0.6-1.6-0.9-3.5-1.1-5.5c-0.2-2-0.3-4-0.3-6c0-0.7,0-1.4,0-2c0-0.3,0-0.7,0-1c0-0.3,0-0.6,0-0.9
	c0-0.3,0-0.6,0.1-0.9c0.2-3.2,0.5-5.5,0.5-5.6l0.1-0.9l-0.8,0.4c-2.2,1.1-4.1,1.5-5.8,1.5c-2.2,0-4.1-0.8-5.6-2
	c-1.5-1.2-2.7-2.8-3.6-4.5c-1.8-3.3-2.4-6.6-2.4-6.6v-0.2l-0.2-0.1c0,0-0.5-0.3-1.2-0.7c-0.7-0.4-1.7-1-2.7-1.7
	c-0.1-0.1-0.2-0.2-0.4-0.3c-0.2-0.2-0.5-0.3-0.7-0.5c-0.1-0.1-0.2-0.2-0.4-0.3c-0.2-0.2-0.4-0.4-0.6-0.5c-0.1-0.1-0.2-0.2-0.3-0.3
	c-0.1-0.1-0.2-0.2-0.3-0.3c-0.1-0.1-0.3-0.3-0.4-0.4c-0.5-0.6-0.8-1-0.8-1.4c0,0,0,0,0-0.1s0-0.1,0-0.1c0.4-2.1,1-3.7,1.6-5
	c0.2-0.3,0.3-0.6,0.5-0.9c0.4-0.7,0.8-1.2,1.3-1.7c0.1-0.1,0.2-0.2,0.3-0.3c1-0.9,1.9-1.3,2.8-1.4c0.1,0,0.1,0,0.2,0
	c0.3-0.1,0.6-0.1,0.8-0.1c0.8,0,1.4,0.2,1.4,0.2l0.7,0.2V228l0,0c0-0.7-0.1-1.4-0.2-2c-0.1-0.4-0.2-0.8-0.4-1.2
	c-0.8-2-2.4-3.3-3.9-4c-0.9-0.4-1.8-0.7-2.5-0.9c-0.7-0.2-1.3-0.3-1.7-0.3c-0.1-0.2-0.2-0.3-0.3-0.5l-0.4-1
	c-0.2-0.5-0.3-0.9-0.3-1.3l-0.1-0.8v-0.1c0-1,0.3-1.9,0.9-2.7c0.1-0.2,0.3-0.3,0.5-0.5c0.1-0.1,0.2-0.2,0.3-0.2
	c0.2-0.2,0.3-0.3,0.5-0.5c0.4-0.3,0.8-0.6,1.3-0.8c0.2-0.1,0.5-0.3,0.7-0.4c0.3-0.1,0.5-0.2,0.8-0.3l0,0c0.3-0.1,0.5-0.2,0.8-0.3
	c0.3-0.1,0.6-0.2,0.9-0.3c0.6-0.2,1.2-0.4,1.8-0.5c0.3-0.1,0.6-0.1,0.9-0.2c0.6-0.1,1.2-0.3,1.8-0.4c0.5-0.1,0.9-0.1,1.4-0.2
	c0.3,0,0.6-0.1,0.9-0.1c0.3,0,0.6-0.1,0.9-0.1c0.8-0.1,1.6-0.2,2.4-0.2h0.1c0.1,0,0.2,0,0.3,0s0.3,0,0.4,0c0.4,0,0.8,0,1.1-0.1
	c0.1,0,0.2,0,0.3,0c0.7,0,1.2,0,1.7,0h0.5c0.1,0,0.1,0,0.2,0c0.3,0,0.4,0,0.4,0h0.1h0.1c1.4-0.6,2.6-1.4,3.5-2.2
	c0.1-0.1,0.2-0.2,0.3-0.3c1.1-1,1.8-2.1,2.3-3.3c0.1-0.3,0.2-0.6,0.3-0.9c0.2-0.9,0.3-1.7,0.3-2.6c0,0,0,0,0-0.1
	c0-2.3-0.7-4.5-1.5-6.2c-0.8-1.8-1.6-3-2-3.5c0.3-1,0.5-2,0.5-2.9c0,0,0,0,0-0.1c0-0.6-0.1-1.1-0.2-1.6c-0.1-0.3-0.2-0.6-0.3-0.9
	c-0.3-0.6-0.6-1.1-1.1-1.5l0,0c-0.8-0.8-1.8-1.4-2.9-1.8c-2.6-1-5.8-1.3-8.9-1.3c-0.8,0-1.5,0-2.2,0.1c-0.4,0-0.8,0-1.2,0.1
	c-0.3,0-0.5,0-0.8,0.1c-0.3,0-0.7,0.1-1,0.1c-0.1,0-0.1,0-0.2,0c-0.4,0-0.7,0.1-1.1,0.1l-0.7,0.1C188,179.3,187.6,179.4,187.3,179.4
	z"/>
<path fill="none" stroke="#000000" stroke-width="0.5" d="M340.3,458.9c6.2-8.7,7.102-40,7.102-55.7l0,0
	c0-5.5-0.102-9.101-0.102-9.101l0,0l0,0h0.5c0,0,0.102,3.601,0.102,9.199l0,0c0,15.7-0.802,47-7.102,56l0,0L340.3,458.9L340.3,458.9
	z"/>
<path fill="none" stroke="#000000" stroke-width="0.5" d="M332.8,497.3c0,0,4.9-4.398,9.8-11.7l0,0
	c5-7.398,10.102-17.698,10.602-29.6l0,0h0.5c-1,24.1-20.602,41.7-20.602,41.7l0,0l0,0L332.8,497.3L332.8,497.3z"/>
<path fill="none" stroke="#000000" stroke-width="0.5" d="M345.3,464.9c0,0,2.4-5.5,4.7-15.102l0,0c2.4-9.6,4.7-23.3,4.7-39.8l0,0
	h0.5c0,33-9.5,55.1-9.5,55.1l0,0l0,0L345.3,464.9L345.3,464.9z"/>
<path fill="none" stroke="#000000" stroke-width="0.5" d="M329.8,479.8c0,0,1.102-0.898,2.2-3.5l0,0c1.1-2.6,2.2-6.8,2.2-13.3l0,0
	h0.5c0,13.1-4.5,17.1-4.602,17.2l0,0l0,0L329.8,479.8L329.8,479.8z"/>
<path fill="none" stroke="#000000" stroke-width="0.5" d="M348.8,496.9c0,0,2-2.9,3-9.9l0,0l0.5,0.1c-1,7-3,10.102-3,10.102l0,0l0,0
	L348.8,496.9L348.8,496.9z"/>
<path fill="none" stroke="#000000" stroke-width="0.5" d="M345.3,359c0-6.9-2.898-15.7-5.7-22.7l0,0
	c-2.8-6.899-5.698-12.1-5.698-12.2l0,0l0.398-0.199c0,0,11.5,21,11.5,35.101l0,0L345.3,359L345.3,359z M333.8,324.1L333.8,324.1
	L333.8,324.1L333.8,324.1L333.8,324.1L333.8,324.1z"/>
<path fill="none" stroke="#000000" stroke-width="0.5" d="M353.7,351c0-4.9-2.602-12.2-5.2-18.2l0,0c-2.6-6-5.2-10.7-5.2-10.7l0,0
	l0,0l0.4-0.199c0,0,10.5,19,10.5,29.101l0,0L353.7,351L353.7,351z"/>
<path fill="none" stroke="#000000" stroke-width="0.5" d="M309.4,375.7l0.198-0.4c0,0,3.602,1.9,8.5,3.9l0,0
	c4.9,2,11.2,3.899,16.5,3.899l0,0c3,0,5.802-0.601,7.7-2.301l0,0l0.3,0.4c-2.1,1.699-4.898,2.398-8,2.398l0,0
	C323.8,383.6,309.4,375.7,309.4,375.7L309.4,375.7z"/>
<path fill="none" stroke="#000000" stroke-width="0.5" d="M314.4,384.7l0.3-0.4c0,0,2.8,1.601,6.7,3.3l0,0
	c3.898,1.602,8.898,3.301,13.1,3.301l0,0c1.4,0,2.7-0.199,3.9-0.601l0,0l0.198,0.5c-1.3,0.4-2.6,0.601-4.1,0.601l0,0
	C325.8,391.4,314.5,384.8,314.4,384.7L314.4,384.7z M314.4,384.7L314.4,384.7L314.4,384.7L314.4,384.7L314.4,384.7L314.4,384.7z"/>
<path fill="none" stroke="#000000" stroke-width="0.5" d="M377.3,321.8c0,0,8.9-10,8.9-19.8l0,0h0.5c0,10.1-9.102,20.1-9.102,20.2
	l0,0l0,0L377.3,321.8L377.3,321.8z"/>
<path fill="none" stroke="#000000" stroke-width="0.5" d="M396.8,306.1c0-3.1,0.5-6.699,1.9-10.199l0,0l0.5,0.199
	c-1.4,3.4-1.9,6.9-1.9,10l0,0c0,5.301,1.4,9.4,1.4,9.4l0,0l-0.5,0.2C398.3,315.6,396.8,311.5,396.8,306.1L396.8,306.1z"/>
<path fill="none" stroke="#000000" stroke-width="0.5" d="M416.2,337.3c0-5.5,0.898-19.7,10.7-25l0,0l0.198,0.4
	c-9.398,5.1-10.398,19.2-10.398,24.6l0,0c0,1.4,0.1,2.2,0.1,2.2l0,0l0,0h-0.5C416.3,339.5,416.2,338.7,416.2,337.3L416.2,337.3z"/>
<path fill="none" stroke="#000000" stroke-width="0.5" d="M440.2,362.3c0-5.7,1.1-11.3,4.7-14.5l0,0l0.3,0.4
	c-3.4,3-4.5,8.6-4.5,14.2l0,0c0,8.699,2.6,17.6,2.6,17.6l0,0l0,0l-0.5,0.1C442.8,380.1,440.2,371.2,440.2,362.3L440.2,362.3z"/>
<path fill="none" stroke="#000000" stroke-width="0.5" d="M430.6,328.6c0-2.1,0.302-4.6,1.102-7.699l0,0l0.5,0.101
	c-0.8,3-1.102,5.5-1.102,7.5l0,0c0,2.7,0.5,4.7,1,5.899l0,0c0.5,1.301,1,1.801,1,1.801l0,0l-0.398,0.3
	C432.8,336.6,430.6,334.2,430.6,328.6L430.6,328.6z"/>
<path fill="none" stroke="#000000" stroke-width="0.5" d="M357.8,510.4c0-4.102,0.7-11.4,2.9-24.5l0,0l0.5,0.1
	c-2.2,13-2.9,20.3-2.9,24.4l0,0c0,2.3,0.2,3.5,0.5,4.198l0,0c0.3,0.7,0.5,0.7,0.5,0.7l0,0h0.102l0,0l0,0l0.3,0.4
	c0,0-0.102,0.1-0.3,0.1l0,0C358.6,515.7,357.9,515,357.8,510.4L357.8,510.4z"/>
<path fill="none" stroke="#000000" stroke-width="0.5" d="M368.4,478.4c0-6.5,1-14.102,4.398-21.102l0,0l0.4,0.2
	c-3.3,6.9-4.3,14.4-4.3,20.8l0,0c0,8.8,1.8,15.5,1.8,15.5l0,0l0,0l-0.5,0.102C370.3,494.1,368.4,487.3,368.4,478.4L368.4,478.4z"/>
<path fill="none" stroke="#000000" stroke-width="0.5" d="M358.5,451.7c0-8,1-17,4.8-23.3l0,0l0.4,0.3c-3.7,6.2-4.7,15.1-4.7,23.1
	l0,0c0,10.3,1.7,19.2,1.7,19.2l0,0l-0.5,0.1C360.3,471,358.5,462.1,358.5,451.7L358.5,451.7z"/>
<path fill="none" stroke="#000000" stroke-width="0.5" d="M367,426.4c0-6.302,0.3-13.5,1.3-20.4l0,0l0.5,0.1
	c-1,6.9-1.3,14.102-1.3,20.4l0,0c0,10,0.8,17.6,0.8,17.6l0,0l-0.5,0.102C367.7,444,367,436.4,367,426.4L367,426.4z"/>
<path fill="none" stroke="#000000" stroke-width="0.5" d="M359.4,399.8c0-4.399,1.198-9.399,5.5-13.399l0,0l0.3,0.399
	c-4.102,3.9-5.3,8.7-5.3,13.102l0,0c0,6.1,2.398,11.1,2.398,11.1l0,0l0,0l-0.5,0.2C361.8,411.1,359.4,406,359.4,399.8L359.4,399.8z"
	/>
<path fill="none" stroke="#000000" stroke-width="0.5" d="M334.8,444.4c0,0,7.102-11.2,7.102-21.4l0,0c0-2.2-0.302-4.4-1.102-6.3
	l0,0l0.5-0.2c0.8,2.1,1.102,4.3,1.102,6.5l0,0c0,10.5-7.2,21.7-7.2,21.7l0,0l0,0L334.8,444.4L334.8,444.4z"/>
<path fill="none" stroke="#000000" stroke-width="0.5" d="M348.2,374.1c0-2.1,0.898-5.1,3.6-9.3l0,0l0.4,0.3c-2.7,4.102-3.5,7-3.5,9
	l0,0c0,1.602,0.5,2.602,1,3.301l0,0c0.5,0.699,0.898,0.899,0.898,0.899l0,0l-0.198,0.4C350.3,378.7,348.2,377.5,348.2,374.1
	L348.2,374.1z"/>
<path fill="none" stroke="#000000" stroke-width="0.5" d="M456.1,460.7c0-0.602,0-1.2,0.102-1.8l0,0l0.5,0.1
	c-0.102,0.5-0.102,1.1-0.102,1.7l0,0c0,5.7,3.102,14.898,6.302,22.6l0,0c3.1,7.7,6.3,14,6.3,14l0,0l0,0l-0.4,0.2
	C468.8,497.6,456.2,472.4,456.1,460.7L456.1,460.7z"/>
<path fill="none" stroke="#000000" stroke-width="0.5" d="M453.8,485.5h0.5c0,7.7,1.9,12.9,3.7,16.2l0,0c1.9,3.3,3.7,4.6,3.7,4.6
	l0,0l-0.3,0.4C461.3,506.7,453.7,501.1,453.8,485.5L453.8,485.5z"/>
<path fill="none" stroke="#000000" stroke-width="0.5" d="M452.2,441L452.2,441L452.2,441L452.2,441L452.2,441L452.2,441z
	 M451.7,441c0,0,0.898-40,10.6-47.7l0,0l0.3,0.4c-4.6,3.6-7.3,15.5-8.698,26.398l0,0c-1.4,10.9-1.7,20.9-1.7,20.9l0,0L451.7,441
	L451.7,441z"/>
<path fill="none" stroke="#000000" stroke-width="0.5" d="M474.5,380.3c0,0,0.2,0,0.6-0.2l0,0c0.4-0.199,1-0.6,1.802-1.398l0,0
	c1.6-1.5,4-4.5,7-10.2l0,0l0.398,0.2c-6,11.5-9.6,12.1-9.7,12.1l0,0L474.5,380.3L474.5,380.3z"/>
<path fill="none" stroke="#000000" stroke-width="0.5" d="M454.8,349.9c0,0,3.5-6,9-14.5l0,0l0.4,0.3c-5.5,8.5-9,14.5-9,14.5l0,0
	l0,0L454.8,349.9L454.8,349.9z"/>
<path fill="none" stroke="#000000" stroke-width="0.5" d="M457.3,345.8c2-1.8,4.3-2.399,6.2-2.399l0,0c3.1,0,5.5,1.301,5.5,1.301
	l0,0l0,0l-0.2,0.398c0,0-0.6-0.3-1.6-0.6l0,0c-1-0.3-2.3-0.6-3.7-0.6l0,0c-1.9,0-4,0.5-5.9,2.199l0,0L457.3,345.8L457.3,345.8z"/>
<path fill="none" stroke="#000000" stroke-width="0.5" d="M444.7,412.7c0-4.8,0.6-18.2,7.6-28.4l0,0l0.4,0.3
	c-6.8,10-7.5,23.4-7.5,28.102l0,0c0,1.1,0,1.7,0,1.7l0,0h-0.5C444.7,414.5,444.7,413.9,444.7,412.7L444.7,412.7z"/>
<path fill="none" stroke="#000000" stroke-width="0.5" d="M446.7,454.3c0-2.3,0.1-5,0.6-8.3l0,0l0.5,0.1
	c-0.398,3.302-0.6,6-0.6,8.302l0,0c0,6,1,8.6,1,8.6l0,0l-0.5,0.2C447.8,463.1,446.7,460.4,446.7,454.3L446.7,454.3z"/>
<path fill="none" stroke="#000000" stroke-width="0.5" d="M372.5,355.8c0,0,2.2-0.399,4.5-2.5l0,0c2.3-2.1,4.8-6.1,5.3-13.3l0,0h0.5
	c-1,14.6-10.1,16.2-10.2,16.2l0,0l0,0L372.5,355.8L372.5,355.8z"/>
<path fill="none" stroke="#000000" stroke-width="0.5" d="M369.3,342.3c0,0,4-4.399,5.9-12.399l0,0l0.5,0.101
	c-2,8.101-6,12.601-6.102,12.601l0,0l0,0L369.3,342.3L369.3,342.3z"/>
<path fill="none" stroke="#000000" stroke-width="0.5" d="M361.8,378c0,0,2-15.2,18.2-17.7l0,0l0.1,0.5
	c-15.8,2.5-17.8,17.3-17.8,17.3l0,0l0,0L361.8,378L361.8,378z"/>
<path fill="none" stroke="#000000" stroke-width="0.5" d="M369.7,389.5c0,0,0.398-17.6,9.7-19.7l0,0l0.1,0.5
	c-4.3,0.9-6.7,5.7-7.9,10.3l0,0c-1.198,4.602-1.398,8.9-1.398,8.9l0,0l0,0H369.7L369.7,389.5z"/>
<path fill="none" stroke="#000000" stroke-width="0.5" d="M365.3,523.9c0,0,8-11,9.5-22.9l0,0l0.5,0.1
	c-1.5,12.102-9.5,23.102-9.5,23.102l0,0l0,0L365.3,523.9L365.3,523.9z"/>
<path fill="none" stroke="#000000" stroke-width="0.5" d="M330.3,518.3c0,0,3.602-3.1,7.3-6.898l0,0c3.7-3.7,7.4-8.102,7.602-10.5
	l0,0h0.5C345.1,506.1,330.6,518.5,330.6,518.6l0,0l0,0L330.3,518.3L330.3,518.3z"/>
<path fill="none" stroke="#000000" stroke-width="0.5" d="M439.1,492.5c0-2.3,0.2-4.8,0.7-7.5l0,0l0.5,0.1
	c-0.5,2.7-0.7,5.102-0.7,7.4l0,0c0,7.2,2,12.5,4.102,16.1l0,0c2,3.5,4,5.302,4,5.302l0,0l0,0l-0.3,0.398
	C447.3,514.2,439.1,507,439.1,492.5L439.1,492.5z"/>
<path fill="none" stroke="#000000" stroke-width="0.5" d="M331.9,489.8c0,0,12.398-7,12.898-15.8l0,0h0.5
	c-0.6,9.2-13.1,16.2-13.1,16.2l0,0l0,0L331.9,489.8L331.9,489.8z"/>
<path fill="none" stroke="#000000" stroke-width="0.5" d="M333.4,481.3c0,0,0.198-0.1,0.6-0.6l0,0c0.4-0.4,0.9-1.102,1.6-2.2l0,0
	c1.2-2.2,2.7-6.1,3.7-12.5l0,0l0.5,0.1c-2,13-6,15.602-6.1,15.7l0,0l0,0L333.4,481.3L333.4,481.3z"/>
<path fill="none" stroke="#000000" stroke-width="0.5" d="M341.8,405.5c0,0,0-3.5,0-9.5l0,0h0.5c0,6,0,9.5,0,9.5l0,0H341.8
	L341.8,405.5z"/>
<path fill="none" stroke="#000000" stroke-width="0.5" d="M352.1,390.9c-0.398-0.4-0.8-1.102-0.8-2.4l0,0c0-1.7,0.602-4.3,2.5-8.5
	l0,0l0.5,0.2c-1.898,4.2-2.5,6.8-2.5,8.3l0,0c0,1.2,0.4,1.8,0.7,2.1l0,0c0.3,0.301,0.6,0.301,0.6,0.301l0,0v0.5
	C353,391.2,352.5,391.2,352.1,390.9L352.1,390.9z"/>
<path fill="none" stroke="#000000" stroke-width="0.5" d="M448.5,364.6c0-4.3,0.8-10.3,5.5-10.398l0,0v0.5c-2.1,0-3.3,1.398-4.1,3.3
	l0,0c-0.7,2-0.9,4.5-0.9,6.601l0,0c0,2.399,0.3,4.301,0.3,4.301l0,0l0,0l-0.5,0.1C448.8,369,448.5,367.1,448.5,364.6L448.5,364.6z"
	/>
<path id="www.ABC-color.com" fill="none" stroke="#000000" stroke-width="0.5" d="M412.6,314.2L412.6,314.2L412.6,314.2L412.6,314.2
	L412.6,314.2L412.6,314.2z M412.4,313.8c0,0,12-7,17.398-16.399l0,0l0.4,0.199c-5.5,9.602-17.5,16.5-17.602,16.602l0,0L412.4,313.8
	L412.4,313.8z"/>
<path fill="none" stroke="#000000" stroke-width="0.5" d="M380.4,290.9c-0.802-3.7-2.2-7.5-3.5-8.102l0,0l0.198-0.4
	c1.7,0.9,2.9,4.8,3.802,8.5l0,0c0.898,3.699,1.398,7.199,1.398,7.199l0,0l0,0l-0.5,0.102C381.8,298,381.3,294.5,380.4,290.9
	L380.4,290.9z"/>
<path fill="none" stroke="#000000" stroke-width="0.5" d="M433.9,303.8c0,0,7.698-4.6,12.5-4.6l0,0c0.198,0,0.5,0,0.698,0l0,0
	l-0.1,0.5c-0.2,0-0.4,0-0.6,0l0,0c-4.5,0-12.2,4.5-12.2,4.5l0,0l0,0L433.9,303.8L433.9,303.8z"/>
<path fill="none" stroke="#000000" stroke-width="0.5" d="M437.8,344.4c0,0,3.8-6.602,11.9-6.7l0,0c0.3,0,0.6,0,0.898,0l0,0v0.5
	c-0.3,0-0.6,0-0.8,0l0,0c-7.8,0-11.398,6.399-11.398,6.399l0,0l0,0L437.8,344.4L437.8,344.4z"/>
<path fill="none" stroke="#000000" stroke-width="0.5" d="M458.7,388.5c0-2,0.3-9.2,5.8-9.2l0,0v0.5c-2.4,0-3.7,1.601-4.5,3.601l0,0
	c-0.7,1.899-0.8,4.199-0.8,5.101l0,0c0,0.3,0,0.5,0,0.5l0,0l0,0h-0.5C458.7,389,458.7,388.8,458.7,388.5L458.7,388.5z"/>
<path fill="none" stroke="#000000" stroke-width="0.5" d="M475.8,513.7c-1.1-1.102-2.1-3.102-2.1-7.2l0,0h0.5c0,4,1,5.9,1.898,6.8
	l0,0c0.9,0.9,1.802,0.9,1.802,0.9l0,0v0.5C478,514.7,476.9,514.7,475.8,513.7L475.8,513.7z"/>
<path fill="none" stroke="#000000" stroke-width="0.5" d="M465,510.6c0-1,0.1-2.1,0.2-3.198l0,0l0.5,0.1c-0.2,1.1-0.2,2.1-0.2,3.1
	l0,0c0,5,1.7,8.7,1.7,8.802l0,0l0,0l-0.5,0.198C466.8,519.6,465,515.7,465,510.6L465,510.6z"/>
<path fill="none" stroke="#000000" stroke-width="0.5" d="M281.8,361.5l0.5-0.1c0.7,5.699,3.5,9.5,6,11.898l0,0
	c2.5,2.4,4.9,3.4,4.9,3.4l0,0l0,0l-0.2,0.5C292.9,377.2,283.3,373.2,281.8,361.5L281.8,361.5z"/>
<path fill="none" stroke="#000000" stroke-width="0.5" d="M286.8,363.5h0.5c0.2,3.3,5.1,6.8,10.1,9.4l0,0
	c4.9,2.6,9.8,4.398,9.8,4.398l0,0l-0.2,0.5C306.9,377.7,287.4,370.9,286.8,363.5L286.8,363.5z"/>
<path fill="none" stroke="#000000" stroke-width="0.5" d="M500.8,356.8c0,0,9-9,17.7-9.6l0,0v0.5c-4.2,0.2-8.5,2.6-11.8,4.899l0,0
	c-3.3,2.301-5.5,4.5-5.5,4.5l0,0l0,0L500.8,356.8L500.8,356.8z"/>
<path fill="none" stroke="#000000" stroke-width="0.5" d="M480.9,341.8c0,0,2.898-0.899,5.698-2.2l0,0c2.9-1.3,5.7-3.1,5.602-4.6
	l0,0h0.5c-0.102,2-3,3.7-5.9,5l0,0c-2.898,1.3-5.8,2.2-5.8,2.2l0,0l0,0L480.9,341.8L480.9,341.8z"/>
<path fill="none" stroke="#000000" stroke-width="0.5" d="M471.3,325.4c0,0,3-7.5,8.602-12.102l0,0l0.3,0.4
	c-5.4,4.398-8.4,11.898-8.4,11.898l0,0L471.3,325.4L471.3,325.4z"/>
<path fill="none" stroke="#000000" stroke-width="0.5" d="M446.5,479c0-4.3,0.6-8.3,2.3-11.6l0,0l0.4,0.198
	C447.6,470.7,447,474.7,447,478.9l0,0c0,12.3,5.3,26.398,5.3,26.5l0,0l-0.5,0.198C451.8,505.6,446.5,491.4,446.5,479L446.5,479z"/>
<path fill="none" stroke="#000000" stroke-width="0.5" d="M322.1,308.5c-4.1-2.9-8.3-6-8.398-8l0,0h0.5c-0.102,1.5,4,4.8,8.1,7.6
	l0,0c4.102,2.801,8.2,5.2,8.2,5.2l0,0l-0.2,0.4C330.4,313.7,326.2,311.3,322.1,308.5L322.1,308.5z"/>
</svg>
