<?xml version="1.0" encoding="utf-8"?>
<!-- Generator: Adobe Illustrator 15.0.0, SVG Export Plug-In . SVG Version: 6.00 Build 0)  -->
<!DOCTYPE svg PUBLIC "-//W3C//DTD SVG 1.1//EN" "http://www.w3.org/Graphics/SVG/1.1/DTD/svg11.dtd">
<svg version="1.1" id="layer_x5F_www.ABC-color.com"
	 xmlns="http://www.w3.org/2000/svg" xmlns:xlink="http://www.w3.org/1999/xlink" x="0px" y="0px" width="822px" height="567px"
	 viewBox="0 0 822 567" enable-background="new 0 0 822 567" xml:space="preserve">
<rect display="none" fill="#FFFFFF" width="822" height="567"/>
<path fill="#FFFFFF" stroke="#000000" d="M431.1,57.3C436,49,449,28.7,449,28.7l1.4,1.4c0,0,13.1,20.2,17.898,28.6L459.4,58
	L482,87.3l-18.6-2.8c0,0,28.198,23.7,30.198,23.7h-24c0,0,7.5,3.5,30.9,23l-19.3,1.4l33.7,21.6L486,150l36.4,26.5l-26.102-1.4
	l39.9,30.7l-31.602-2.1L544.4,233h-1H513l48.1,39.1l-28.898-0.7l65.3,59.3h-44.7l61.9,55.8l-62.5-2.1l84.6,69.1l-64.6-7.7l2.8,20.9
	l-24.1-16.8l-7.5,21.6l-22.7-21.6L510.4,481.3L487,454.1l-8.9,13.5L467.7,483.4l-18.602-30L431.4,475.9l-3.7,4.698l-6.2-11.398
	c0-1.102-0.1-1.3-0.2-0.4l-8.7-16L389.2,480l-10.3-31.4L356.2,470.2L348.6,448.6l-24,16.7L327.4,444.4L262.8,452.1L347.4,383
	l-62.602,2.1l63.9-59.3l-46.7,3.5l65.3-59.3l-28.899,0.7l47.801-38.9l0.3-0.2h-31.602l39.9-29.3l-31.6,2.1l39.898-30.7l-26.1,1.4
	l36.398-26.5l-28.898,4.2l33.7-21.6l-19.2-1.4c23.398-19.5,30.898-23,30.898-23h-24c2.102,0,30.2-23.7,30.2-23.7l-18.6,2.8
	l22.7-29.3L431.1,57.3z"/>
<path id="www.ABC-color.com" fill="#FFFFFF" stroke="#000000" d="M583.9,567H334.5c0,0,33.1-15.4,62.7-24.6
	c15.6-4.802,34.5-8.802,55.8-9.7c1.4-0.102,2.9-0.102,4.3-0.102c2.8-0.1,5.7-0.1,8.5,0c10.102,0.2,20.602,1.102,31.5,3
	c-0.1,0-0.1,0-0.2-0.1c0.2,0,0.4,0.1,0.5,0.1C520.2,539.4,559.1,553.3,583.9,567z"/>
<path fill="#FFFFFF" stroke="#000000" d="M453,532.7c-21.4,0.898-40.4,4.898-56.1,9.7L396.8,542.1c10.2-9.5,16.4-26.898,20.102-42.5
	c3.398-14.198,4.6-26.898,4.6-30.398l6.2,11.398l3.7-4.698l17.698-22.5l18.602,30L478.1,467.6c0.102,4.602,0.602,17.802,2.9,31.5
	c2.5,15.7,7.3,31.9,16.3,36.302c-10.8-1.802-21.3-2.7-31.3-2.9c-2.9-0.1-5.7-0.1-8.5,0C455.9,532.6,454.4,532.7,453,532.7z"/>
</svg>
