<?xml version="1.0" encoding="utf-8"?>
<!-- Generator: Adobe Illustrator 15.0.0, SVG Export Plug-In . SVG Version: 6.00 Build 0)  -->
<!DOCTYPE svg PUBLIC "-//W3C//DTD SVG 1.1//EN" "http://www.w3.org/Graphics/SVG/1.1/DTD/svg11.dtd">
<svg version="1.1" id="layer_x5F_www.ABC-color.com"
	 xmlns="http://www.w3.org/2000/svg" xmlns:xlink="http://www.w3.org/1999/xlink" x="0px" y="0px" width="822px" height="567px"
	 viewBox="0 0 822 567" enable-background="new 0 0 822 567" xml:space="preserve">
<rect display="none" fill="#FFFFFF" width="822" height="567"/>
<path id="www.ABC-color.com" fill="#FFFFFF" stroke="#000000" stroke-miterlimit="10" d="M381.7,475.3c1.3-1.398,2.3-2.8,2.898-4.2
	C384.6,471.1,383.5,472.7,381.7,475.3z M291.2,302.7c0.4-0.2,0.8-0.5,1.1-0.7C292.1,302.1,291.8,302.3,291.2,302.7z M346.2,297.9
	c0.5-0.801,0.8-1.4,1-1.9C347,296.2,346.7,296.9,346.2,297.9z M358.9,342.4c-0.102,0.1-0.4,0.3-0.9,0.6
	C358.3,342.8,358.6,342.6,358.9,342.4z M291.2,302.7c-10.1,5.3-55.6,9.6-67.4,10.7c15.9-2.602,67.3-26.102,67.3-26.102
	c-8.5,0.801-14.4-9.3-14.4-9.3c4.7-2.1,79.5-4.2,79.5-4.2c62.3-4.3,51.6-26.2,51.6-26.2c0.602,6.5-15.3,7.2-23.8,8
	c-5.8,0.6-1-13.2,1.7-19.6c0.5-0.7,0.898-1.3,1.1-2c0.9-2.4,0.102-1-1.1,2c-5.5,7.1-25.102,14.5-32.9,15.2
	c-8.398,0.8,15.8-20.6,16.4-21.2c-9.2,6.6-41.9,12.1-43.602,7.4c-1.698-4.8,21.302-8.6,21.302-8.6l-16.102-0.9
	c-8.5,0.8-4.2-5.3-4.2-5.3c16,0.1,69.302-8.2,69.302-8.2c13.5-0.4,8.898-23,8.898-23c-5.898,2.2-14.898,11.3-23.3,13.7
	s-2.5-13.7-2.5-13.7c-7,3.9-19.1,5.9-24,6.4s8.6-13.1,5.1-11.1s-11.698,6-22.8,6.3c-11,0.2,0.3-9.9,0.3-9.9
	c23.9-7.2,37.802-3.6,37.802-3.6c7.5,0.9,30.698-0.4,30.698-0.4c6.102-0.6,0.802-17.3,0.802-17.3c-4.7,2.1-17.802,7.4-22.602,7.9
	c-4.898,0.5,8.8-11.5,5.3-8.7c-3.398,2.8-20.3,6.8-26.398,7.4c-6,0.6,0.3-7.1,0.5-7.4c-5.9,3-21.602-7.8-21.602-7.8
	c1.602-9.2,38-1.1,38-1.1C386.4,154,407.9,147,407.9,147c-0.602-6.5-9-4.1-10.4-6.4c-1.5-2.3-12.2,1.2-19.5,1.9s-13.9-4.4-13.9-4.4
	c5.602-5.4,42.9-1.6,42.9-1.6c-0.5-5.7-19.4-10.5-19.4-10.5c-14.898-1.1,3.2-5.2-24.398,2.3c-8.8,2.4,8.8-10.7,8.8-10.7
	c13.1-4.5,35.5-1.7,35.5-1.7c9.4-5,5.1-11.1,5.1-11.1c-2.1,3.5-12,2.8-12,2.8c-6.1,0.6-15.6-9.2-15.6-9.2c18.9,4.8,25-8.9,25-8.9
	s-4.7-2.8-12.5-2.1c-6.1,0.6,20.1-10.6,15.1-9.6c-24.198,4.7-1.198-13-1.198-13s-7.5-1.8-13.602-0.4
	c-5.898,1.4,17.102-19.9,17.7-20.5c-0.7,0.4-33.4,20.1-6.6-5.1c8.898-8.4,8.398-15.5,8.398-15.5s9,10.1,11,12.1
	c29.9,30-1.2,26.4-1.2,26.4c14.102,6,18.4,25.3,14.7,25.7c-3.7,0.3-10.398-5.6-10.398-5.6l0.198,15.6c16.5,5.8,27.5,4.8,27.5,4.8
	s-11.1,12.5-12.6,9.4c-1.5-3.1-6.7-5.9-8.8-1.6c-2,4.3-0.4,9.1-0.4,9.1c15,2.7,16.3,3.4,16.3,3.4c11-0.2,18.4,13,18.802,16.3
	c0.3,3.2-21.5-6.3-22.7-6.8c9,4.9,5.898,10.9,5.898,10.9c-5.898,2.2-16.398-4.2-16.398-4.2c-14.602,1.4-10,10.8-10,10.8
	c13.5-0.5,51.8,14.8,54.6,17.8c8.602,9.4-31.1-3.6-31.1-3.6c1.6,4-8,6.5-8,6.5c-7.3,0.7-14.602-11.7-17.9-7.3s-2.3,15-2.3,15
	c0.3,3.3,35.3,9,35.3,9c54.3,7.8,54.602,17.6,54.602,17.8c-4.2,7.8-41.2-6.8-44.9-6.4c-11.5,1.1-0.1,11.5-0.1,11.5
	c-7.2,2.3-18.5-13-18.5-13l-4.602,3.7c-2.1,4.3-16.898-9.9-20.3-6.3c-3.4,3.6,1.1,12.2,2.6,14.5c7.802,12.5,34.4,13.1,34.4,13.1
	c65.5-9.5,75.1,1.1,75.1,1.1c0.5,5.7-35.1,5.8-35.1,5.8c-3.3,4.4,19.3,9.6,19.3,9.6c-0.6,6.6-50.6-1.8-50.6-1.8
	c0.5,4.9,9.7,11.4,9.7,11.4c-7,3.9-34.7-15.6-34.7-15.6c2.1,9.6-11.3,10.1-11.3,10.1c1.198,26.1,79.6,35.1,79.6,35.1
	c19.5-1.8,79.6-3.4,79.6-3.4c0.802,8.1-71.3,13.3-71.3,13.3c32.7,7.6,17.2,13.1,17.2,13.1c-4.6,2.9-45.6-13.699-45.6-13.699
	C516.3,305.4,506.3,303.8,506.3,303.8c-36.3-21.9-43.3-18-43.3-18c0.5,5.7,9.5,8.9,9.5,8.9c-3.1,6-30.8-7.3-31.5-7.7
	c22.3,40.5,61.7,28.6,61.7,28.6C593.9,291.4,578,306,578,306c-3,6.8-45.5,13.3-50.3,14.6c-9.4,2.5,25.898,0.801,29.898,3.7
	c6.802,5-32.398,8.8-32.398,8.8c32.1,14.2,81.3,2.102,81.3,2.102c74.5-31.602,68.6-15.5,68.6-15.5c0.7,7.3-59.3,22.8-59.3,22.8
	s0,0,3.7-0.3c3.6-0.301,39-3.7,36.2,5.6c-2.8,9.102-37.8,3.9-39,3.7c24.2,9.2,21.2,16,21.2,16
	c-9.302,5.8-65.102-11.899-65.102-11.899C585.9,364.2,582.9,371.9,582.9,371.9C571.3,373,534.8,354.3,525.2,349.3
	c-0.8-0.6-1.5-1-2.3-1.2c0,0,0.8,0.5,2.3,1.2c5.1,3.9,8.7,14.5,6.8,17.601c-4.3,7-26.7-22.101-35.9-15.5
	c-9.198,6.601-5.3,9.5-5.3,9.5c-59.5-18.101-31.6,3.801-31.6,3.801c1,10.6,15.898,12.398,15.898,12.398
	c8.102,7.4,114.4,0.7,111.4,7.5c-3,6.801-51.3,4-51.3,4c28.7,3.9,29.8,16,29.8,16c-12.9,7-83.1-7.698-83.1-7.698
	c8,6.6,73.3,20.898,73.3,20.898c36.898,12.9,39.1-2.1,51.2-4.8c12-2.8,5.898,10.1,5.898,10.1c6.9-5.6,44.4-11.6,41.102-7.198
	c-3.302,4.398-18.302,14-18.302,14s-58.8,15.398,1.602,4c60.398-11.5,74.8-2.2,74.8-2.2c-10.1,4.8-44.6,8.898-59.6,10.5
	c-2.5-0.102-4.802,0.1-7,0.7c0,0,2.698-0.302,7-0.7c14.198,0.3,31.898,9.3,31.898,9.3c-21.898,2.1-43,0-43,0
	c0.7,7.3,69.7,22.1,69.7,22.1c-16.2,10.5-53.3-4-53.3-4c-7.2,1.5-43-12.3-43-12.3c-0.2,10.7-1.102,14.8-1.102,14.8
	c-9.6,0.9-27.698-12.5-28.3-12.898c0,0,0.5,1.1,12,22.6c6.4,12.102-46.5-36.6-63.6-35c-17.101,1.602,10.399,18.7,10.399,18.7
	c3.801,14.4-18.699,10-19.101,5.9c-0.399-4.102-30.5-10.2-31.1-3.602c-0.602,6.602,9.699,11.4,4.199,18.5
	c-5.5,7.102-30.101-6.2-30.101-6.2c0.601,6.5,29.2,48.9,17.4,54.102c-11.801,5.201-38.4-42.3-41.602-37
	c-3.199,5.2-0.398,34.5-11.5,47c-11.1,12.5-10.3-44.102-10.3-44.102c-38.7,20-19.3-22-21.399-18.5
	c-2.101,3.5-29.601,24.9-35.699,25.5c-4.801,0.5,10.398-22.5,17-32.1c-14.801,16.2-71.801,38.1-71.801,38.1
	c-10.601,5.102-15-2.699-15-2.699s8.8-11.5,0.1-11.5c-8.6,0-30.8,25-36.9,26.399c-5.9,1.4,11-21.8,11.4-22.398
	C252.2,514.8,140,523.7,140,523.7c-17.4-1.602-2-8-2-8c89.1-6.8,106.1-22.3,106.1-22.3c-8.4,1.6-42.3,7.3-42.3,7.3
	c-69.9-11.4-44.5-15.5-44.5-15.5c43.2,1.7,106.4-6,106.4-6c-11,1-47.6-9.4-47.6-9.4c-7.6-2.6,48.1,2,48.1,2
	c34.399,12.3,92.7-8,92.7-8L336.1,464.9C353.7,463.9,380.7,442.8,387.4,437.8c0.698-0.3,1.198-0.6,1.398-0.898
	c0.3-0.4-0.2,0-1.398,0.898c-7,3.102-35.7,9.2-35.7,9.2s-0.9-9.8-5.4-5.2c-4.5,4.5-31.8,15.3-36.6,15.8
	c-4.8,0.5,15.8-20.6,16.399-21.199C317.9,441.3,268.7,453.3,268.7,453.3s8.8-10.7,5.3-9.5c-3.6,1.2-34,4-45.1,4.3
	c-11.1,0.2-6.9-7.5-6.9-7.5c43.6,6.5,138.1-22.1,138.1-22.1l-16.198-1.8C373.4,416.4,393.3,380.1,393.3,380.1l-16.6,6.5
	c-0.8,5-40.602,26-45.5,26.4c-4.9,0.5,3.8-11.8,3.8-11.8l2-4.3c-2.2,4.3-46,20.698-54.5,21.5C275.1,419.1,301,401.3,312,395.6
	c3.4-1.3,5-1.898,3.8-1.699c-0.8,0.199-2.1,0.801-3.8,1.699c-13.3,4.9-53.6,18.5-59.4,19.102c-6.4,0.6,4.1-9.2,6.8-11.602
	c-8.8,7.2-38.5,16.2-44.6,15.2c-12.4-2.1,31.3-24.8,41.6-30.1c0.8-0.3,1.5-0.7,2.1-1.101c-0.2,0.101-0.9,0.5-2.1,1.101
	c-11.6,4.899-42.6,6.399-42.6,6.399c-11.6,6.801-35.6,0.899-40.1-7.699c-4-7.602,55-8.301,68.9-8.4c0.9,0,1.9,0,2.9,0c0,0-1,0-2.9,0
	c-15.8-0.7-18.1-13.6-18.1-13.6c11.6,5.5,84,4.3,84,4.3c11.1-1,43.4-22.3,49.4-26.3c-8.302,4.699-36,2-44.302,2
	c-8.6,0,6.802-6.4,6.802-6.4c5.3,4.4,66.198-15.3,66.198-15.3c17-2.4,19.7-38.8,19.7-38.8c-8.898,9.898-31,23.398-39.6,23.398
	c-4.9,0-3.102-5-0.5-9.199c2.3-2.399,3.898-4.399,4-5.899c0,0-2.2,2.7-4,5.899C359.2,305.7,345,315.2,340.6,316.9
	c-4.898,1.8,2.7-13.7,5.602-19.2c-5.5,8.399-29.8,31.3-37.602,32c-8.5,0.8,11.4-22.4,11.4-22.4s11-14.1-2.7-2.2
	c-13.6,11.9-56.7,24.2-56.7,24.2C259,323.9,285.3,306.5,291.2,302.7z"/>
</svg>
