<?xml version="1.0" encoding="utf-8"?>
<!-- Generator: Adobe Illustrator 15.0.0, SVG Export Plug-In . SVG Version: 6.00 Build 0)  -->
<!DOCTYPE svg PUBLIC "-//W3C//DTD SVG 1.1//EN" "http://www.w3.org/Graphics/SVG/1.1/DTD/svg11.dtd">
<svg version="1.1" id="layer_x5F_www.ABC-color.com"
	 xmlns="http://www.w3.org/2000/svg" xmlns:xlink="http://www.w3.org/1999/xlink" x="0px" y="0px" width="822px" height="567px"
	 viewBox="0 0 822 567" enable-background="new 0 0 822 567" xml:space="preserve">
<rect display="none" fill="#FFFFFF" width="822" height="567"/>
<path fill="#FFFFFF" stroke="#000000" d="M461.5,296.5c-0.5,10-10.5,1.5-10.5,1.5c-6-3-12-7.5-12-7.5c-0.6,0.8-1,1.5-1.3,2.1
	c1.5-5.3-0.2-10-0.2-10c9.5-7,3.5-17.5,3.5-17.5c6-8-4.5-17.5-4.5-17.5c2.6-3.4,4.1-8.7,4.5-11.3c4.9,0.8,7.9,1.6,7.9,1.6
	C470.5,244.5,461.5,296.5,461.5,296.5z"/>
<path fill="#FFFFFF" stroke="#000000" d="M424.5,319.7c0,0-0.5,17.5-13.5,2.5l0,0c0,0,0,0,0.1,0c16.4-2.5,8.4-16,8.4-16
	c10.8-2.2,15.5-7,17.5-11.7c-0.4,1.8,0,3,0,3c10.6,3.1,15.4,11.5,17.5,17.4H454c-0.9,0.6,0,0-0.9,0.699
	C453,315.7,439,341.2,424.5,319.7z"/>
<path fill="#FFFFFF" stroke="#000000" d="M504.1,296.5c1,1.3,2.302,2.5,3.9,3.7c0,0-7,24.5,4.5,29.5c0,0,1.8,4.5,2,9
	c0.1,2.8,0.4,5.3,0.9,7.399c-0.5-2.101-0.802-4.601-0.9-7.5c0,0-29.6-3.899-31-22.199c5.4-8.7,22-16.801,22-16.801
	c-0.5-1.199-1-2.199-1.5-2.899L504.1,296.5z"/>
<path fill="#FFFFFF" stroke="#000000" d="M504,296.6c-3.4-4.6-7.5-0.6-7.5-0.6c-3.5,5-14,9.5-14,9.5c-7-3.5-5.5-52-5.5-52
	c7.4-5.9,17.2-4.6,25-1.9c0.1,2.3,0.5,7.5,1.5,11c0,0-12.5,5-2,20c0,0-2.4,7.3,2.6,13.8L504,296.6z"/>
<path fill="#FFFFFF" stroke="#000000" d="M504.9,245.5c-13.5-4.2-27.4-3.5-27.4-3.5c-6-8.5,0-24,0-24c2.5-15,19.5-7.5,19.5-7.5
	c6.5-3,19.5,5.5,19.5,5.5c1,1.4,2.2,1.1,3.3,0.4c-1.1,2.3-1.8,5.4-1.7,9.8c0,0-15,2-10.5,17.5c0,0-1.198,0.2-2.5,1.3L504.9,245.5z"
	/>
<path id="www.ABC-color.com" fill="#FFFFFF" stroke="#000000" d="M531,292c6.9-1.5-6.7-28.8-7-29.5c2.1,2,27.5,12.5,28.5,14
	c2.1,3.2,6.5-1,6.5-1c1.8-1.4-16.5-10.4-27.7-15.6c-0.8-0.4-2.8-0.6-2.2-1C541.9,251.5,542.9,248.5,541.9,248c-1.802-0.8-19,8-19,8
	c-4.802-5.1-11.4-8.4-18.102-10.5l0.2-0.5c1.3-1.1,2.5-1.3,2.5-1.3c-4.5-15.5,10.5-17.5,10.5-17.5c-0.1-4.4,0.6-7.5,1.7-9.8
	c1.398-1,2.7-3,3.1-3.6l0,0c5-3.4,12.2-0.5,12.2-0.5c14.5-18.5,27.5,11,27.5,11c14.5-19.5,20-1,20-1c14.5-15.5,22.5,10.5,22.5,10.5
	c13-15.5,24-2,24-2s10.2,4.9,12.2,12.1c0.1,0.2,0.1,0.4,0.2,0.6c0.1,0.5,0.1,1,0.1,1.6l0,0v0.1c0,0,7.7,8.9,11.3,21.9
	c0.3,1,0.5,2,0.8,3.1c2,9.6,1.5,20.899-5.6,32.399c0,0,2.5,30-15.5,25.5c0,0-11,25-39.5,9.5c0,0,0,0,0,0.199
	c-0.7,2.102-8.5,24.102-25.7,24.301c-6.2-0.101-13.7-3-22.7-10.5c0,0,0,0-0.1,0.101c-1,0.7-9.5,6.399-17.1,6.5
	c-4.7-0.101-9.2-2.601-11.4-10.2c-0.2-0.6-0.3-1.2-0.5-1.8c-0.5-2.101-0.8-4.601-0.9-7.4c-0.198-4.5-2-9-2-9
	c-11.5-5-4.5-29.5-4.5-29.5c-1.698-1.2-2.898-2.399-3.898-3.7c-5-6.5-2.602-13.8-2.602-13.8c-10.5-15,2-20,2-20
	c-1-3.5-1.5-8.7-1.5-11c7.4,2.6,13,6.4,13,6.4C519.5,262,531,292,531,292z"/>
<path fill="#FFFFFF" stroke="#000000" d="M523,212.5c0-6.5-27-11.5-27-11.5c4-0.5,24.5-16,24.5-16c0.5-4.5-1.5-6-1.5-6
	c-10.5,9.5-35,20.5-35,20.5c-5,2.1-8.9,3.4-11.9,4c1.5-5,4.5-10.3,4.5-10.3c-7-15.5,5.5-17,5.5-17c-7.5-11,6-21,6-21
	c-7-9.5,7-10.5,7-10.5c0.102-5.5,0.802-9.8,2-13.1c6.802-19.2,28.5-6.9,28.5-6.9c16-21,33,14,33,14c24.2-8.1,26.802,8.9,26.802,17.2
	c2.5-5.9,14.698-1.2,14.698-1.2c0-0.1,0.102-0.1,0.102-0.2c2-0.4,23.2-4,20.8,14.5c0,0,23-6.5,14,17c0,0,17.5,11.5-1,34
	c0,0,2,7.5-5,10.5c0,0,10.4,5,12.2,12.3c-2-7.2-12.2-12.1-12.2-12.1s-11-13.5-24,2c0,0-8-26-22.5-10.5c0,0-5.5-18.5-20,1
	c0,0-13-29.5-27.5-11c0,0-7.1-2.9-12.2,0.5C523,212.6,523,212.5,523,212.5z"/>
<path fill="#FFFFFF" stroke="#000000" d="M540.7,76c2.2-0.5,26.8-5.7,28.3,7.9c0,0.2,0,0.4,0.1,0.6c0,0.5,0,1,0,1.6l0,0
	c0,0.1,0,0.1,0,0.2c0,0,19.802-5.6,26.802,18.4c0.3,1.2,0.698,2.5,0.898,3.9c0.602,2.9,1,6,1.2,9.6l0,0v0.1c0,0,2.8,4.4,4.7,10.6
	c0.3,1.2,0.7,2.4,0.898,3.6c1.4,6.8,1.302,14.9-3.6,22.1c0,0,0,0,0.2,0c0,0.1-0.102,0.1-0.102,0.2c0,0-12.198-4.7-14.698,1.2
	c0.1-8.3-2.602-25.3-26.802-17.2c0,0-17-35-33-14c0,0-21.8-12.3-28.5,6.9c-0.3-1.7-4-19.1-13.5-13.9c0,0,1-26.5-25.5-16
	c0,0,5-31.5-16-22c0,0,3-26.5-16.5-24l-0.3,0.1c2-3.3,16.602-26.7,27.3-21.1c0,0,13-26.5,30-11.5c0,0,11.102,1.7,13.9,11.2
	c0.1,0.3,0.1,0.6,0.2,0.9c0.7,3.1,0.5,7-1.102,11.8c0,0,0,0,0.102,0c0,0,0,0.1,0,0.2c0,0,19.1,0,22.1,10.2
	c0,0.1,0.102,0.3,0.102,0.4c0.198,0.8,0.3,1.7,0.198,2.7l0,0c1.102-0.2,25.9-3.6,23,13.5C540.9,74.7,540.8,75.4,540.7,76z"/>
<path fill="#FFFFFF" stroke="#000000" d="M483.5,117.7c9.5-5.2,13.2,12.2,13.5,13.9c-1.2,3.3-1.9,7.6-2,13.1c0,0-14,1-7,10.5
	c0,0-13.5,10-6,21c0,0-12.5,1.5-5.5,17c0,0-3,5.3-4.5,10.3c-11.7,2.3-10.1-5-10.1-5c-1-5-26-43-26-43c1-9.5-0.5-20-0.5-20
	c-2.5-6-6.5-0.5-6.5-0.5c3,6-1,18-1,18c-0.5-7.5-16.5-9-16.5-9c-4.5-0.5-3.5,4-3.5,4c10.5-1,21.5,16,21.5,16c22.5,24,32,62,32,62
	c0,5.5-2,10-2,10c-5.5-5.6-14-8.1-23.102-8.8c-1.7-1.6-1.398-1.3-2.398-1.4c-1.7-1.1-3-1.6-3-1.6c8-23-5-28.5-5-28.5
	c-9.5-28-39-13-39-13c-13.5-26-23.5-1.5-23.5-1.5c-21-20-34-2.5-34-2.5s-3.5-21,10-17c0,0,0-0.1,0-0.2c0,0-0.2-0.6-0.4-1.7
	c-1.2-5.6-3.8-22.3,7.4-22.7c0,0-5-24,12.5-25.5c0,0,0-0.1-0.102-0.2l0,0c0,0-1.5-2.6-2.5-5.9c-0.2-0.6-0.3-1.1-0.398-1.7
	c-1.2-6.2,0.6-13.4,17.5-10.7c0,0,0-0.1-0.102-0.3c-0.5-2.9-4.3-26.7,21.102-18.7c0,0,7.5-28,30.5-18c0,0,0.1-0.1,0.198-0.4
	l0.302-0.1c19.5-2.5,16.5,24,16.5,24c21-9.5,16,22,16,22C484.5,91.2,483.5,117.7,483.5,117.7z"/>
<path fill="#FFFFFF" stroke="#000000" d="M496,201c0,0,27,5,27,11.5c0,0,0,0.1-0.1,0.2l0,0c-1.2,0.8-2.302,2-3.102,3.6
	c-1.1,0.8-2.3,1-3.3-0.4c0,0-13-8.5-19.5-5.5c0,0-17-7.5-19.5,7.5c0,0-6,15.5,0,24c0,0,13.8-0.7,27.4,3.5
	c6.698,2.1,13.3,5.4,18.1,10.5c0,0,17.2-8.8,19-8c0.9,0.4,0,3.5-12.8,10.9c-0.7,0.4,1.398,0.7,2.2,1c11.2,5.3,29.4,14.2,27.7,15.6
	c0,0-4.398,4.2-6.5,1c-1-1.5-26.398-12-28.5-14c0.302,0.7,13.9,28,7,29.5c0,0-11.5-30-16-34c0,0-5.6-3.8-13-6.4
	c-7.8-2.7-17.6-4-25,1.9c0,0-1.5,48.5,5.5,52c0,0,10.5-4.5,14-9.5c0,0,4.102-4.102,7.5,0.6c0.5,0.7,1.102,1.7,1.5,2.9
	c0,0-16.5,8.1-22,16.8c-0.8,1.2-1.3,2.5-1.5,3.7c-2,10-2,10-2,10s-8.5,138-4,162c0,0,0,8,4,18.5c4.7,12.3-35,14-36,5
	c-0.5-4.5,0.5-11,5-24.5c0,0,11-150,7-170c0,0-0.3-2.602-1.5-6.102c-2.1-5.898-6.8-14.3-17.5-17.398c0,0-0.398-1.2,0-3l0,0
	c0.302-0.602,0.5-1.2,0.7-1.801l0,0c0.3-0.699,0.7-1.399,1.3-2.101c0,0,6,4.5,12,7.5c0,0,10,8.5,10.5-1.5c0,0,9-52-12.5-58.5
	c0,0-3.1-0.9-7.898-1.6c-13.3-2-40-3.1-54.602,16.6c0,0-10.5,18-14,17s-2.5-0.5,1-5c0,0,5.5-12.5,6.5-15.5s-1-2-1-2s-1-3.5-6.5-1.5
	c0,0-19.5-3-20.5-6c0,0-4-2,0.5-2c0,0,19.5,2.5,28.5,0c0,0-15-8-17-11c0,0,2-1.5,4-0.5c0,0,17.5,11,26,6c0,0,22.602-6.8,42.4-5.3
	c9.1,0.7,17.6,3.1,23.1,8.8c0,0,2-4.5,2-10c0,0-9.5-38-32-62c0,0-11-17-21.5-16c0,0-1-4.5,3.5-4c0,0,16,1.5,16.5,9c0,0,4-12,1-18
	c0,0,4-5.5,6.5,0.5c0,0,1.5,10.5,0.5,20c0,0,25,38,26,43c0,0-1.6,7.3,10.102,5c3-0.6,6.898-1.8,11.898-4c0,0,24.5-11,35-20.5
	c0,0,2,1.5,1.5,6C520.5,185,500,200.5,496,201z"/>
<path fill="#FFFFFF" stroke="#000000" d="M436.4,227.2c-19.802-1.5-42.4,5.3-42.4,5.3c-8.5,5-26-6-26-6c-2-1-4,0.5-4,0.5
	c2,3,17,11,17,11c-9,2.5-28.5,0-28.5,0c-4.5,0-0.5,2-0.5,2c1,3,20.5,6,20.5,6c5.5-2,6.5,1.5,6.5,1.5s2-1,1,2s-6.5,15.5-6.5,15.5
	c-3.5,4.5-4.5,4-1,5s14-17,14-17c14.6-19.8,41.3-18.6,54.6-16.6c-0.398,2.6-2,7.9-4.5,11.3c0,0,10.5,9.5,4.5,17.5
	c0,0,6,10.5-3.5,17.5c0,0,1.602,4.7,0.2,10l0,0c-0.3,0.7-0.5,1.3-0.7,1.8l0,0c-2,4.7-6.8,9.5-17.5,11.7c0,0,8,13.5-8.398,16
	L411.1,322.1c0,0,0,0.102,0.102,0.2l0,0l0,0l0,0c0.6,2,5.6,18.9-7.602,4.8c0.2,0.7,6.802,21.301-6,9c0,0,9.5,21.5-5,7c0,0,3,24-8,10
	c0,0,2,23.5-16.5,6c0,0-22.5,22.5-25.5-4c0,0-11.5,20.5-18-10c0,0-19,14-18-1.5c0,0-29.5,24-23.5-9c0,0-20.5,1-15.5-19
	c0,0-8-24,5.5-30.5c0,0-18-12,5-21.5c0,0-23-11.5-6-32c0,0-22-28,13-39.5c0,0,9.5-39.5,44.5-13.5v0.2c0,0,13-17.5,34,2.5
	c0,0,10-24.5,23.5,1.5c0,0,29.5-15,39,13c0,0,13,5.5,5,28.5c0,0,1.302,0.5,3,1.6C435,226,434.7,225.6,436.4,227.2z"/>
</svg>
