<?xml version="1.0" encoding="utf-8"?>
<!-- Generator: Adobe Illustrator 15.0.0, SVG Export Plug-In . SVG Version: 6.00 Build 0)  -->
<!DOCTYPE svg PUBLIC "-//W3C//DTD SVG 1.1//EN" "http://www.w3.org/Graphics/SVG/1.1/DTD/svg11.dtd">
<svg version="1.1" id="layer_x5F_www.ABC-color.com"
	 xmlns="http://www.w3.org/2000/svg" xmlns:xlink="http://www.w3.org/1999/xlink" x="0px" y="0px" width="822px" height="567px"
	 viewBox="0 0 822 567" enable-background="new 0 0 822 567" xml:space="preserve">
<rect display="none" fill="#FFFFFF" width="822" height="567"/>
<path fill="#FFFFFF" stroke="#000000" d="M338,122.6c0-0.6-0.4-1.1-1-1.7C337.6,122,338,122.6,338,122.6z M496.3,227.5
	c3.2-1-1.2-5.7-1.2-5.7c2.4-1.9-1.6-5.7-1.6-5.7c3.2-3.3-2.4-7.6-2.4-7.6c3.2-1.4-2-6.7-2-6.7c2.4-2.9-0.8-3.8-0.8-3.8
	c1.602-4.3-0.8-5.9-0.8-5.9h-0.2c-0.2-0.7-3-8.8-5.2,0.3c0,0-2.8,0.8-1.398,5.2c0,0-3.2,0.8-1,3.8c0,0-5.4,5-2.2,6.6
	c0,0-5.7,4-2.7,7.5c0,0-4.1,3.6-1.8,5.6c0,0-4.6,4.6-1.4,5.7c0,0-3,6.1,1.802,5.8c0,0,1,7,5.1,4.7l0.2-0.1c2.398,9.6,8.5,0,8.5,0
	c4.8,4.1,7.1-3.8,7.1-3.8C499.1,233.7,496.3,227.5,496.3,227.5z M400,43.7c0-0.3-0.1-0.6-0.2-0.9C399.9,43.4,400,43.7,400,43.7z
	 M268.5,315.1c2.3,2,4,3.301,4.2,3.4C271.5,316.8,270.1,315.7,268.5,315.1z M550,397.5c0,0-5.3,12-16.7,6c0,0-6.7,16-16.7,4.7
	c0,0-8.698,13.398-18,4.7c0,0-10.698,10-16.698,0.698c0,0-9.302,14.102-11.302,7.4s-8,2-12.698,3.3c-2,0.602-5.4,0.7-8.602,0.2
	c0.5-5,1.4-8.7,2.7-10.7c0,0,48.3-18.3,88-85c0,0,1-9-11,3c0,0-9.3,17.7-14.7,17.7c-5.3,0-2.7-2.7-2.7-2.7s2.7-8,3.302-12
	c0,0-9.302-3.3-11.302,23.301c0,0-11.3,18-17.3,19.301l2-17.301c0,0-8.7,0.699-12.7,20c0,0-8,13.301-22,13.301
	c-7,0-4.698-17.301-4.698-17.301s1.3-3.301-0.7-11.301c0,0-8-50.699,6.7-66c0,0,76-50.7,78-58c0,0,0-13.3-11.302-6.7
	c0,0-6,13.3-12,16c0,0,2.7-28-7.3-30c0,0-5.3,3.3-1.3,8.7c0,0,4,22.7-5.3,25.3c0,0-15.3,12-24.7,12.7c0,0,10-16.7,6.7-21.3
	c0,0-2.7-3.3-8,0.7c0,0-2.7,29.3-24,39.3c0,0-14,42.7-11.3-26.7c0,0-0.2-6.7-0.7-9.3c-1.3-7.3-8.7-16-8.7-16s-14-44.7-18-40.7
	s6.7,44.7,10,50c3.3,5.3,5.3,33.3,5.3,46.7c0,0,1.3,20-6.7,21.3c0,0-35.3-7.3-38.698-18c0,0-3.302-22-8-26.7c0,0-7.302,2.7-6,9.3
	c1.3,6.7,8.698,18.701,4.698,20.701c0,0-14.698-0.699-18-7.301c-1.3-2.5-1.398-3.199-1.1-3.3c0.2,0.3,0.4,0.5,0.5,0.601
	c1.3,1.301-0.1-0.601-0.5-0.601c-3.3-4.2-17.2-25.8-23.5-21.4c0,0,0.7,3.3,3.3,8.7c0,0,16,14.7,14,17.301c0,0-28.7,1.301-25.3,3.301
	c0,0,1.3,10,6,8c0,0,32-7.301,54.7,6.699c0,0,36.7,14,40,28.699c0,0,8.7,60.7-5.3,68c0,0-8.7,12-57.302-20c0,0,1.302-20-10-29.3
	c0,0-1.3,3.3-1.3,6s6.7,15.3,2,15.3s-5.3-4-7.3-4s-5.3-14.699-6-8.699c0,0-0.8,11.399,2,15.301c14.7,20.698,50.6,39.3,64.7,39.3
	c2.6,0,8.2,3.6,12,8.398c-5.602,0-8.3-4.1-8.3-4.1s-7.302,4.6-14.7-0.8c0,0-17.3,6-20.7-5.3c0,0-16,13.398-18.7-4.7
	c0,0-20.7,8.7-20.7-1.3c0,0-15.3,0.698-15.3-8c0,0-14.7,6.698-15.3,1.3c0,0-0.7-5.4,3.3-8.7c0,0-18.7-1.3-17.3-5.3c0,0,4-4.7,7.3-8
	c0,0-27.3-3.301-24.7-9.4c0,0,12-3.3,10-3.3c0,0-22-10-13.3-14c0,0,8.7-4,12-7.399c0,0-16,1.301-14.7-9.399c0,0,2-8,9.3-10.7
	c0,0-12-2-12-12c0,0,6.1-2.7,11.1-0.8c-4.5-4-11.1-10.9-11.1-16.601c0,0,6.3-3,10.3-2.301c1.7,1.301,2.9,2.2,3,2.301
	c-0.5-1.399-1.6-2-3-2.301c-5.1-4-14.4-12.5-9-16.5c0,0,10.8-7.7,14.7-8.2c0.8,0.5,1.3,0.8,1.3,0.8c0-0.7-0.5-0.9-1.3-0.8
	c-4.9-3.2-21.4-14.3-14-16.5c0,0,8-6,13.3-4.7L260,233c0,0,4.7-4,14-1.3c0,0-19.3-13.4-11.3-16.7c0,0,12.7-0.7,16.7,0.7
	c4,1.3,0-2.7,0-2.7s-14-14.7-10.7-18.7c0,0,16.7-2.7,18.7-0.7c0,0-15.3-17.4-9.3-18.7c0,0,19.4-2.7,24.3-0.8c0.6,0.5,1,0.8,1,0.8
	c-0.101-0.3-0.5-0.6-1-0.8c-4.101-3.3-18.601-15.5-12.3-21.3c0,0,16.3,1.2,19,4.2c0.102,0.2,0.2,0.4,0.302,0.4
	c-0.102-0.1-0.102-0.3-0.302-0.4c-1.6-2.5-8.8-14.6-7-20c0,0,16-4.4,18.4-0.4c0.1,0.4,0.2,0.7,0.3,0.8c0-0.3-0.1-0.5-0.3-0.8
	c-1.2-3.5-5.7-17.8-1-21.3c0,0,13.7,2.4,17.6,5.7c-3.6-6-15.5-26-11-26c0,0,15.9-1.6,21.5,1.9c1.102,1.8,1.9,3,1.9,3
	c0-1.3-0.7-2.3-1.9-3c-3.5-5.8-10.198-18.1-6.1-20.6c0,0,23.8-2,24.6,0.6c-0.3-0.7-5.898-17.2-1.3-21.2c0,0,14,1.2,16.4,5.7
	c0.1,0.5,0.3,0.8,0.3,0.9c0-0.3-0.1-0.6-0.3-0.9c-1.5-4.8-7.4-25.1-0.4-25.1c0,0,16.9,2.3,19.102,6.5c-1-4-5-20.5,0.898-20.5
	c0,0,13.7,6.5,13.3,11.9c0.2-2,1.7-18.3,7.302-13.9c0,0,10,4,10,10c0,0,11.3-22.7,12-18.1c0,0,7.198,10.3,7.5,15.5
	c-0.602,1.5-0.9,2.5-0.9,2.5c0.7-0.5,1-1.4,0.9-2.5c1.6-3.8,5.6-10.5,13.8-9.5c0,0,6.398,10.5,8,13.7c0.5,1.1,0.7,2,0.3,2.6
	c-0.6,0.5-0.8,0.7-0.3,0.4c0.1-0.1,0.3-0.2,0.3-0.4c2.9-2.5,15.7-12.5,15.7-7c0,0,3.3,8.7-0.7,14c0,0,17.3-10.7,17.3-2
	c0,0-2.7,8-6,11.4c0,0,19.3-10.7,19.3-4c0,0-3.3,4-10,10.7c-3.3,3.3,0.7,3.3,0.7,3.3s16.7-6.7,17.3,0c0,0-3.3,8-11.3,14
	c0,0,19.3-8,20-2c0,0-6,12-13.3,12.7c0,0,22-2,22,2c0,0-8.7,14.4-9.3,16.4l16.7,2c0,0-6,8-9.302,12c0,0,20.7-5,17.302,1
	c0,0,0.698,5.4-6,14c0,0,18.698-1.4,15.3,2c-1.3,1.3-6.7,12-9.3,12.7c-3.5,0.9,20,4.7,20,4.7c0,6-13.302,12.7-13.302,12.7
	c10.7,3.3,13.302,4,13.302,4c6,1.3-9.302,18.7-9.302,18.7c2-2,18.7,0.7,18.7,0.7c3.3,4-10.7,18.7-10.7,18.7s-4,4,0,2.7
	c4-1.3,16.7-0.7,16.7-0.7c8,3.3-11.3,16.7-11.3,16.7c9.3-2.7,14,1.3,14,1.3s-4-1.3-0.7,2.7s-12,14.7-12,14.7
	c5.3-1.3,14.7,6.7,14.7,6.7c7,2.2-9.7,13.6-16.2,17.8c-1.5,0.2-2.5,0.6-2.5,1.6c0,0,1-0.6,2.5-1.6c4.9-0.5,15.5,2.2,15.5,2.2
	c5.7,4.1-5.8,12.7-11.3,16.3c-1.3,0.102-2.3,0.5-2.7,1.7c0.102-0.1,1.2-0.7,2.7-1.7c4.5-0.199,12.6,5.102,12.6,5.102
	c0,8.699-14,14.699-14,14.699c9.302,2.699,14,2.699,14,2.699c0,10-12,12-12,12c7.302,2.7,9.302,10.7,9.302,10.7
	c1.3,10.7-18,10-18,10c3.3,3.3,13.3,8,13.3,8c10,10.3-17.2,5-16.7,6c2.7,4.7,15.3,10,15.3,10c2.7,6-20.7,7.4-20.7,7.4
	c3.302,3.3,3.302,10,3.302,10c1.3,4-17.302,5.399-17.302,5.399S560.7,398.8,550,397.5z M568.2,313.7c3.2-1-1.2-5.7-1.2-5.7
	c2.4-1.9-1.6-5.7-1.6-5.7c3.198-3.3-2.4-7.6-2.4-7.6c3.2-1.4-2-6.7-2-6.7c2.4-2.9-0.8-3.8-0.8-3.8c1.6-4.3-0.8-5.9-0.8-5.9h-0.2
	c-0.2-0.7-2.9-8.8-5.2,0.3c0,0-2.8,0.8-1.4,5.2c0,0-3.198,0.8-0.898,3.8c0,0-5.4,5-2.2,6.602c0,0-5.8,4-2.7,7.5
	c0,0-4.1,3.6-1.8,5.699c0,0-4.6,4.601-1.4,5.699c0,0-3,6.102,1.802,5.801c0,0,1,7,5.1,4.699l0.2-0.1c2.398,9.6,8.5,0,8.5,0
	c4.8,4.1,7.1-3.8,7.1-3.8C571,320,568.2,313.7,568.2,313.7z M537.3,185.5c3.2-1-1.2-5.7-1.2-5.7c2.4-1.9-1.6-5.7-1.6-5.7
	c3.2-3.3-2.4-7.6-2.4-7.6c3.2-1.4-2-6.7-2-6.7c2.4-2.9-0.8-3.8-0.8-3.8c1.602-4.3-0.8-5.9-0.8-5.9h-0.2c-0.2-0.7-3-8.8-5.2,0.3
	c0,0-2.8,0.8-1.398,5.2c0,0-3.2,0.8-1,3.8c0,0-5.4,5-2.2,6.6c0,0-5.7,4-2.7,7.5c0,0-4.1,3.6-1.8,5.6c0,0-4.6,4.6-1.4,5.7
	c0,0-3,6.1,1.802,5.8c0,0,1,7,5.1,4.7l0.2-0.1c2.398,9.6,8.5,0,8.5,0c4.8,4.1,7.1-3.8,7.1-3.8C540.1,191.7,537.3,185.5,537.3,185.5z
	 M499.2,336.7c3.2-1-1.2-5.7-1.2-5.7c2.4-1.9-1.6-5.7-1.6-5.7c3.198-3.3-2.4-7.6-2.4-7.6c3.2-1.4-2-6.7-2-6.7
	c2.4-2.9-0.8-3.8-0.8-3.8c1.6-4.3-0.8-5.9-0.8-5.9h-0.2c-0.2-0.7-2.9-8.8-5.2,0.3c0,0-2.8,0.801-1.4,5.2c0,0-3.198,0.8-0.898,3.8
	c0,0-5.4,5-2.2,6.602c0,0-5.8,4-2.7,7.5c0,0-4.1,3.6-1.8,5.699c0,0-4.6,4.601-1.4,5.699c0,0-3,6.102,1.802,5.801c0,0,1,7,5.1,4.699
	l0.2-0.1c2.398,9.6,8.5,0,8.5,0c4.8,4.1,7.1-3.8,7.1-3.8C502,343,499.2,336.7,499.2,336.7z M492.3,116.5c3.2-1-1.2-5.7-1.2-5.7
	c2.4-1.9-1.6-5.7-1.6-5.7c3.2-3.3-2.4-7.6-2.4-7.6c3.2-1.4-2-6.7-2-6.7c2.4-2.9-0.8-3.8-0.8-3.8c1.602-4.3-0.8-5.9-0.8-5.9h-0.2
	c-0.2-0.7-3-8.8-5.2,0.3c0,0-2.8,0.8-1.398,5.2c0,0-3.2,0.8-1,3.8c0,0-5.4,5-2.2,6.6c0,0-5.7,4-2.7,7.5c0,0-4.1,3.6-1.8,5.6
	c0,0-4.6,4.6-1.4,5.7c0,0-3,6.1,1.802,5.8c0,0,1,7,5.1,4.7l0.2-0.1c2.398,9.6,8.5,0,8.5,0c4.8,4.1,7.1-3.8,7.1-3.8
	C495.1,122.7,492.3,116.5,492.3,116.5z M458.3,180.5c3.2-1-1.2-5.7-1.2-5.7c2.4-1.9-1.6-5.7-1.6-5.7c3.2-3.3-2.4-7.6-2.4-7.6
	c3.2-1.4-2-6.7-2-6.7c2.4-2.9-0.8-3.8-0.8-3.8c1.602-4.3-0.8-5.9-0.8-5.9h-0.2c-0.2-0.7-3-8.8-5.2,0.3c0,0-2.8,0.8-1.398,5.2
	c0,0-3.2,0.8-1,3.8c0,0-5.4,5-2.2,6.6c0,0-5.7,4-2.7,7.5c0,0-4.1,3.6-1.8,5.6c0,0-4.6,4.6-1.4,5.7c0,0-3,6.1,1.802,5.8
	c0,0,1,7,5.1,4.7l0.2-0.1c2.398,9.6,8.5,0,8.5,0c4.8,4.1,7.1-3.8,7.1-3.8C461.1,186.7,458.3,180.5,458.3,180.5z M444.3,86.5
	c3.2-1-1.2-5.7-1.2-5.7c2.4-1.9-1.6-5.7-1.6-5.7c3.2-3.3-2.4-7.6-2.4-7.6c3.2-1.4-2-6.7-2-6.7c2.4-2.9-0.8-3.8-0.8-3.8
	c1.602-4.3-0.8-5.9-0.8-5.9h-0.2c-0.2-0.7-3-8.8-5.2,0.3c0,0-2.8,0.8-1.398,5.2c0,0-3.2,0.8-1,3.8c0,0-5.4,5-2.2,6.6
	c0,0-5.7,4-2.7,7.5c0,0-4.1,3.6-1.8,5.6c0,0-4.6,4.6-1.4,5.7c0,0-3,6.1,1.802,5.8c0,0,1,7,5.1,4.7l0.2-0.1c2.398,9.6,8.5,0,8.5,0
	c4.8,4.1,7.1-3.8,7.1-3.8C447.1,92.7,444.3,86.5,444.3,86.5z M414.2,150.7c3.2-1-1.2-5.7-1.2-5.7c2.4-1.9-1.6-5.7-1.6-5.7
	c3.198-3.3-2.4-7.6-2.4-7.6c3.2-1.4-2-6.7-2-6.7c2.4-2.9-0.8-3.8-0.8-3.8c1.6-4.3-0.8-5.9-0.8-5.9h-0.2c-0.2-0.7-3-8.8-5.2,0.3
	c0,0-2.8,0.8-1.4,5.2c0,0-3.198,0.8-0.898,3.8c0,0-5.4,5-2.2,6.6c0,0-5.8,4-2.7,7.5c0,0-4.1,3.6-1.8,5.6c0,0-4.6,4.6-1.4,5.7
	c0,0-3,6.1,1.802,5.8c0,0,1,7,5.1,4.7l0.2-0.1c2.398,9.6,8.5,0,8.5,0c4.8,4.1,7.1-3.8,7.1-3.8C417,157,414.2,150.7,414.2,150.7z
	 M404.2,357.7c3.2-1-1.2-5.7-1.2-5.7c2.4-1.9-1.6-5.7-1.6-5.7c3.198-3.3-2.4-7.6-2.4-7.6c3.2-1.4-2-6.7-2-6.7
	c2.4-2.9-0.8-3.8-0.8-3.8c1.6-4.3-0.8-5.9-0.8-5.9h-0.2c-0.2-0.7-3-8.8-5.2,0.3c0,0-2.8,0.801-1.4,5.2c0,0-3.198,0.8-0.898,3.8
	c0,0-5.4,5-2.2,6.602c0,0-5.8,4-2.7,7.5c0,0-4.1,3.6-1.8,5.699c0,0-4.6,4.601-1.4,5.699c0,0-3,6.102,1.802,5.801c0,0,1,7,5.1,4.699
	l0.2-0.1c2.398,9.6,8.5,0,8.5,0c4.8,4.1,7.1-3.8,7.1-3.8C407,364,404.2,357.7,404.2,357.7z M392.1,243.4c3.2-1-1.198-5.7-1.198-5.7
	c2.398-1.9-1.602-5.7-1.602-5.7c3.2-3.3-2.398-7.7-2.398-7.7c3.198-1.4-2-6.7-2-6.7c2.398-2.9-0.802-3.8-0.802-3.8
	c1.602-4.3-0.8-5.9-0.8-5.9h-0.2c-0.198-0.7-2.898-8.8-5.198,0.3c0,0-2.802,0.8-1.4,5.2c0,0-3.2,0.8-0.9,3.8c0,0-5.398,5-2.198,6.6
	c0,0-5.802,4-2.7,7.5c0,0-4.102,3.6-1.8,5.6c0,0-4.602,4.6-1.4,5.7c0,0-3,6.1,1.8,5.8c0,0,1,7,5.102,4.7l0.198-0.1
	c2.4,9.6,8.5,0,8.5,0c4.802,4.1,7.102-3.8,7.102-3.8C394.9,249.6,392.1,243.4,392.1,243.4z M360.2,171.7c3.2-1-1.2-5.7-1.2-5.7
	c2.4-1.9-1.6-5.7-1.6-5.7c3.198-3.3-2.4-7.6-2.4-7.6c3.2-1.4-2-6.7-2-6.7c2.4-2.9-0.8-3.8-0.8-3.8c1.6-4.3-0.8-5.9-0.8-5.9h-0.2
	c-0.2-0.7-3-8.8-5.2,0.3c0,0-2.8,0.8-1.4,5.2c0,0-3.198,0.8-0.898,3.8c0,0-5.4,5-2.2,6.6c0,0-5.8,4-2.7,7.5c0,0-4.1,3.6-1.8,5.6
	c0,0-4.6,4.6-1.4,5.7c0,0-3,6.1,1.802,5.8c0,0,1,7,5.1,4.7l0.2-0.1c2.398,9.6,8.5,0,8.5,0c4.8,4.1,7.1-3.8,7.1-3.8
	C363,178,360.2,171.7,360.2,171.7z M332.2,346.7c3.2-1-1.2-5.7-1.2-5.7c2.4-1.9-1.6-5.7-1.6-5.7c3.198-3.3-2.4-7.6-2.4-7.6
	c3.2-1.4-2-6.7-2-6.7c2.4-2.9-0.8-3.8-0.8-3.8c1.6-4.3-0.8-5.9-0.8-5.9h-0.2c-0.2-0.7-3-8.8-5.2,0.3c0,0-2.8,0.801-1.4,5.2
	c0,0-3.198,0.8-0.898,3.8c0,0-5.4,5-2.2,6.602c0,0-5.8,4-2.7,7.5c0,0-4.1,3.6-1.8,5.699c0,0-4.6,4.601-1.4,5.699
	c0,0-3,6.102,1.802,5.801c0,0,1,7,5.1,4.699l0.2-0.1c2.398,9.6,8.5,0,8.5,0c4.8,4.1,7.1-3.8,7.1-3.8
	C335,353,332.2,346.7,332.2,346.7z M331.2,235.7c3.2-1-1.2-5.7-1.2-5.7c2.4-1.9-1.6-5.7-1.6-5.7c3.198-3.3-2.4-7.6-2.4-7.6
	c3.2-1.4-2-6.7-2-6.7c2.4-2.9-0.8-3.8-0.8-3.8c1.6-4.3-0.8-5.9-0.8-5.9h-0.2c-0.2-0.7-3-8.8-5.2,0.3c0,0-2.8,0.8-1.4,5.2
	c0,0-3.198,0.8-0.898,3.8c0,0-5.4,5-2.2,6.6c0,0-5.8,4-2.7,7.5c0,0-4.1,3.6-1.8,5.6c0,0-4.6,4.6-1.4,5.7c0,0-3,6.1,1.802,5.8
	c0,0,1,7,5.1,4.7l0.2-0.1c2.398,9.6,8.5,0,8.5,0c4.8,4.1,7.1-3.8,7.1-3.8C334,242,331.2,235.7,331.2,235.7z"/>
<path fill="#FFFFFF" stroke="#000000" d="M449.3,424.4c-3.2,30.198,5.7,105.3,5.7,105.3c-16,11-39,1-43,1s3-93,3-93V436
	c-0.2-3.1-1.8-6.2-4-8.9c-3.8-4.8-9.4-8.398-12-8.398c-14.1,0-50-18.7-64.7-39.301c-2.8-3.899-2-15.301-2-15.301c0.7-6,4,8.7,6,8.7
	s2.7,4,7.3,4c4.7,0-2-12.7-2-15.3c0-2.7,1.302-6,1.302-6c11.3,9.3,10,29.3,10,29.3c48.698,32,57.3,20,57.3,20c14-7.3,5.3-68,5.3-68
	c-3.3-14.7-40-28.7-40-28.7c-22.7-14-54.7-6.699-54.7-6.699c-4.7,2-6-8-6-8c-3.3-2,25.3-3.301,25.3-3.301c2-2.699-14-17.3-14-17.3
	c-2.698-5.3-3.3-8.7-3.3-8.7c6.3-4.4,20.2,17.2,23.5,21.4c-0.2,0-0.1,0.7,1.102,3.3c3.3,6.7,18,7.3,18,7.3c4-2-3.302-14-4.7-20.7
	c-1.3-6.7,6-9.3,6-9.3c4.7,4.7,8,26.7,8,26.7c3.3,10.7,38.7,18,38.7,18c8-1.3,6.698-21.3,6.698-21.3c0-13.3-2-41.3-5.3-46.7
	c-3.3-5.3-14-46-10-50s18,40.7,18,40.7s7.3,8.7,8.7,16c0.5,2.6,0.7,9.3,0.7,9.3c-2.7,69.3,11.3,26.7,11.3,26.7
	c21.3-10,24-39.3,24-39.3c5.3-4,8-0.7,8-0.7c3.3,4.7-6.7,21.3-6.7,21.3c9.3-0.7,24.7-12.7,24.7-12.7c9.3-2.7,5.3-25.3,5.3-25.3
	c-4-5.3,1.3-8.7,1.3-8.7c10,2,7.302,30,7.302,30c6-2.7,12-16,12-16c11.3-6.7,11.3,6.7,11.3,6.7c-2,7.3-78,58-78,58
	c-14.7,15.3-6.7,66-6.7,66c2,8,0.7,11.3,0.7,11.3s-2.3,17.301,4.7,17.301c14,0,22-13.301,22-13.301c4-19.3,12.698-20,12.698-20
	l-2,17.301c6-1.301,17.302-19.301,17.302-19.301c2-26.699,11.3-23.3,11.3-23.3c-0.7,4-3.3,12-3.3,12s-2.7,2.7,2.698,2.7
	c5.302,0,14.7-17.7,14.7-17.7c12-12,11-3,11-3c-39.7,66.7-88,85-88,85C450.7,415.7,449.9,419.4,449.3,424.4z"/>
<path fill="#FFFFFF" stroke="#000000" d="M348.5,285.4c0.4,0,1.7,1.8,0.5,0.6C348.9,285.9,348.7,285.7,348.5,285.4z"/>
<path fill="#FFFFFF" stroke="#000000" d="M498,331c0,0,4.4,4.8,1.2,5.7c0,0,2.8,6.2-2,5.7c0,0-2.3,7.898-7.102,3.8
	c0,0-6.1,9.6-8.5,0l-0.198,0.1c-4.102,2.3-5.102-4.7-5.102-4.7c-4.8,0.2-1.8-5.8-1.8-5.8c-3.2-1.1,1.4-5.7,1.4-5.7
	c-2.302-2,1.8-5.699,1.8-5.699c-3.102-3.5,2.7-7.5,2.7-7.5c-3.2-1.601,2.198-6.601,2.198-6.601c-2.3-3,0.9-3.8,0.9-3.8
	c-1.4-4.4,1.4-5.2,1.4-5.2c2.3-9.1,5-0.899,5.198-0.3h0.2c0,0,2.4,1.5,0.8,5.9c0,0,3.2,1,0.802,3.8c0,0,5.198,5.3,2,6.7
	c0,0,5.6,4.3,2.398,7.6C496.4,325.3,500.4,329.1,498,331z"/>
<path fill="#FFFFFF" stroke="#000000" d="M403,352c0,0,4.4,4.8,1.2,5.7c0,0,2.8,6.2-2,5.7c0,0-2.3,7.898-7.102,3.8
	c0,0-6.1,9.6-8.5,0l-0.198,0.1c-4.102,2.3-5.102-4.7-5.102-4.7c-4.8,0.2-1.8-5.8-1.8-5.8c-3.1-1.1,1.4-5.7,1.4-5.7
	c-2.302-2,1.8-5.699,1.8-5.699c-3.102-3.5,2.7-7.5,2.7-7.5c-3.1-1.601,2.2-6.601,2.2-6.601c-2.3-3,0.9-3.8,0.9-3.8
	c-1.4-4.4,1.4-5.2,1.4-5.2c2.3-9.1,5-0.899,5.198-0.3h0.2c0,0,2.4,1.5,0.8,5.9c0,0,3.2,1,0.802,3.8c0,0,5.198,5.3,2,6.7
	c0,0,5.6,4.3,2.398,7.6C401.4,346.3,405.4,350.1,403,352z"/>
<path fill="#FFFFFF" stroke="#000000" d="M413,145c0,0,4.4,4.8,1.2,5.7c0,0,2.8,6.2-2,5.7c0,0-2.3,7.9-7.102,3.8c0,0-6.1,9.6-8.5,0
	l-0.198,0.1c-4.102,2.3-5.102-4.7-5.102-4.7c-4.8,0.2-1.8-5.8-1.8-5.8c-3.1-1.1,1.4-5.7,1.4-5.7c-2.302-2,1.8-5.6,1.8-5.6
	c-3.102-3.5,2.7-7.5,2.7-7.5c-3.102-1.6,2.198-6.6,2.198-6.6c-2.3-3,0.9-3.8,0.9-3.8c-1.4-4.4,1.4-5.2,1.4-5.2
	c2.3-9.1,5-0.9,5.198-0.3h0.2c0,0,2.4,1.5,0.8,5.9c0,0,3.2,1,0.802,3.8c0,0,5.198,5.3,2,6.7c0,0,5.6,4.3,2.398,7.6
	C411.4,139.3,415.4,143.1,413,145z"/>
<path fill="#FFFFFF" stroke="#000000" d="M567,308c0,0,4.4,4.8,1.2,5.7c0,0,2.8,6.2-2,5.7c0,0-2.3,7.898-7.102,3.8
	c0,0-6.1,9.6-8.5,0l-0.198,0.1c-4.102,2.3-5.102-4.7-5.102-4.7c-4.8,0.2-1.8-5.8-1.8-5.8c-3.2-1.1,1.4-5.7,1.4-5.7
	c-2.302-2,1.8-5.699,1.8-5.699c-3.102-3.5,2.7-7.5,2.7-7.5c-3.2-1.601,2.198-6.601,2.198-6.601c-2.3-3,0.9-3.8,0.9-3.8
	c-1.4-4.4,1.4-5.2,1.4-5.2c2.3-9.1,5-0.9,5.199-0.3h0.199c0,0,2.4,1.5,0.801,5.9c0,0,3.199,1,0.801,3.8c0,0,5.199,5.3,2,6.7
	c0,0,5.6,4.3,2.398,7.6C565.4,302.3,569.4,306.1,567,308z"/>
<path fill="#FFFFFF" stroke="#000000" d="M330,230c0,0,4.4,4.8,1.2,5.7c0,0,2.8,6.2-2,5.7c0,0-2.3,7.9-7.102,3.8c0,0-6.1,9.6-8.5,0
	l-0.198,0.1c-4.102,2.3-5.102-4.7-5.102-4.7c-4.8,0.2-1.8-5.8-1.8-5.8c-3.1-1.1,1.4-5.7,1.4-5.7c-2.301-2,1.8-5.6,1.8-5.6
	c-3.102-3.5,2.7-7.5,2.7-7.5c-3.102-1.6,2.198-6.6,2.198-6.6c-2.3-3,0.9-3.8,0.9-3.8c-1.4-4.4,1.4-5.2,1.4-5.2
	c2.3-9.1,5-0.9,5.198-0.3h0.2c0,0,2.4,1.5,0.8,5.9c0,0,3.2,1,0.802,3.8c0,0,5.198,5.3,2,6.7c0,0,5.6,4.3,2.398,7.6
	C328.4,224.3,332.4,228.1,330,230z"/>
<path fill="#FFFFFF" stroke="#000000" d="M536.1,179.8c0,0,4.4,4.8,1.2,5.7c0,0,2.8,6.2-2,5.7c0,0-2.3,7.9-7.1,3.8
	c0,0-6.102,9.6-8.5,0l-0.2,0.1c-4.1,2.3-5.1-4.7-5.1-4.7c-4.802,0.2-1.802-5.8-1.802-5.8c-3.198-1.1,1.4-5.7,1.4-5.7
	c-2.3-2,1.8-5.6,1.8-5.6c-3.1-3.5,2.7-7.5,2.7-7.5c-3.1-1.6,2.2-6.6,2.2-6.6c-2.3-3,1-3.8,1-3.8c-1.5-4.4,1.398-5.2,1.398-5.2
	c2.302-9.1,5-0.9,5.2-0.3h0.2c0,0,2.4,1.6,0.8,5.9c0,0,3.2,1,0.8,3.8c0,0,5.2,5.3,2,6.7c0,0,5.602,4.3,2.4,7.6
	C534.5,174,538.5,177.9,536.1,179.8z"/>
<path fill="#FFFFFF" stroke="#000000" d="M390.9,237.7c0,0,4.398,4.8,1.198,5.7c0,0,2.802,6.2-2,5.7c0,0-2.3,7.9-7.1,3.8
	c0,0-6.1,9.6-8.5,0l-0.2,0.1c-4.1,2.3-5.1-4.7-5.1-4.7c-4.8,0.2-1.8-5.8-1.8-5.8c-3.102-1.1,1.398-5.7,1.398-5.7
	c-2.3-2,1.8-5.6,1.8-5.6c-3.1-3.5,2.7-7.5,2.7-7.5c-3.1-1.6,2.2-6.6,2.2-6.6c-2.3-3,0.9-3.8,0.9-3.8c-1.4-4.4,1.398-5.2,1.398-5.2
	c2.3-9.1,5-0.9,5.2-0.3h0.2c0,0,2.398,1.6,0.8,5.9c0,0,3.2,1,0.8,3.8c0,0,5.2,5.3,2,6.7c0,0,5.602,4.3,2.4,7.7
	C389.3,232,393.3,235.8,390.9,237.7z"/>
<path id="www.ABC-color.com" fill="#FFFFFF" stroke="#000000" d="M443.1,80.8c0,0,4.4,4.8,1.2,5.7c0,0,2.8,6.2-2,5.7
	c0,0-2.3,7.9-7.1,3.8c0,0-6.102,9.6-8.5,0l-0.2,0.1c-4.1,2.3-5.1-4.7-5.1-4.7c-4.802,0.2-1.802-5.8-1.802-5.8
	c-3.198-1.1,1.4-5.7,1.4-5.7c-2.3-2,1.8-5.6,1.8-5.6c-3.1-3.5,2.7-7.5,2.7-7.5c-3.1-1.6,2.2-6.6,2.2-6.6c-2.3-3,1-3.8,1-3.8
	c-1.5-4.4,1.398-5.2,1.398-5.2c2.302-9.1,5-0.9,5.2-0.3h0.2c0,0,2.4,1.6,0.8,5.9c0,0,3.2,1,0.8,3.8c0,0,5.2,5.3,2,6.7
	c0,0,5.602,4.3,2.4,7.6C441.5,75,445.5,78.9,443.1,80.8z"/>
<path fill="#FFFFFF" stroke="#000000" d="M491.1,110.8c0,0,4.4,4.8,1.2,5.7c0,0,2.8,6.2-2,5.7c0,0-2.3,7.9-7.1,3.8
	c0,0-6.102,9.6-8.5,0l-0.2,0.1c-4.1,2.3-5.1-4.7-5.1-4.7c-4.802,0.2-1.802-5.8-1.802-5.8c-3.198-1.1,1.4-5.7,1.4-5.7
	c-2.3-2,1.8-5.6,1.8-5.6c-3.1-3.5,2.7-7.5,2.7-7.5c-3.1-1.6,2.2-6.6,2.2-6.6c-2.3-3,1-3.8,1-3.8c-1.5-4.4,1.398-5.2,1.398-5.2
	c2.302-9.1,5-0.9,5.2-0.3h0.2c0,0,2.4,1.6,0.8,5.9c0,0,3.2,1,0.8,3.8c0,0,5.2,5.3,2,6.7c0,0,5.602,4.3,2.4,7.6
	C489.5,105,493.5,108.9,491.1,110.8z"/>
<path fill="#FFFFFF" stroke="#000000" d="M495.1,221.8c0,0,4.4,4.8,1.2,5.7c0,0,2.8,6.2-2,5.7c0,0-2.3,7.9-7.1,3.8
	c0,0-6.102,9.6-8.5,0l-0.2,0.1c-4.1,2.3-5.1-4.7-5.1-4.7c-4.802,0.2-1.802-5.8-1.802-5.8c-3.198-1.1,1.4-5.7,1.4-5.7
	c-2.3-2,1.8-5.6,1.8-5.6c-3.1-3.5,2.7-7.5,2.7-7.5c-3.1-1.6,2.2-6.6,2.2-6.6c-2.3-3,1-3.8,1-3.8c-1.5-4.4,1.398-5.2,1.398-5.2
	c2.302-9.1,5-0.9,5.2-0.3h0.2c0,0,2.4,1.6,0.8,5.9c0,0,3.2,1,0.8,3.8c0,0,5.2,5.3,2,6.7c0,0,5.602,4.3,2.4,7.6
	C493.5,216,497.5,219.9,495.1,221.8z"/>
<path fill="#FFFFFF" stroke="#000000" d="M457.1,174.8c0,0,4.4,4.8,1.2,5.7c0,0,2.8,6.2-2,5.7c0,0-2.3,7.9-7.1,3.8
	c0,0-6.102,9.6-8.5,0l-0.2,0.1c-4.1,2.3-5.1-4.7-5.1-4.7c-4.802,0.2-1.802-5.8-1.802-5.8c-3.198-1.1,1.4-5.7,1.4-5.7
	c-2.3-2,1.8-5.6,1.8-5.6c-3.1-3.5,2.7-7.5,2.7-7.5c-3.1-1.6,2.2-6.6,2.2-6.6c-2.3-3,1-3.8,1-3.8c-1.5-4.4,1.398-5.2,1.398-5.2
	c2.302-9.1,5-0.9,5.2-0.3h0.2c0,0,2.4,1.6,0.8,5.9c0,0,3.2,1,0.8,3.8c0,0,5.2,5.3,2,6.7c0,0,5.602,4.3,2.4,7.6
	C455.5,169,459.5,172.9,457.1,174.8z"/>
<path fill="#FFFFFF" stroke="#000000" d="M331,341c0,0,4.4,4.8,1.2,5.7c0,0,2.8,6.2-2,5.7c0,0-2.3,7.898-7.102,3.8
	c0,0-6.1,9.6-8.5,0l-0.198,0.1c-4.102,2.3-5.102-4.7-5.102-4.7c-4.8,0.2-1.8-5.8-1.8-5.8c-3.1-1.1,1.4-5.7,1.4-5.7
	c-2.302-2,1.8-5.699,1.8-5.699c-3.102-3.5,2.7-7.5,2.7-7.5c-3.1-1.601,2.2-6.601,2.2-6.601c-2.3-3,0.9-3.8,0.9-3.8
	c-1.4-4.4,1.4-5.2,1.4-5.2c2.3-9.1,5-0.899,5.198-0.3h0.2c0,0,2.4,1.5,0.8,5.9c0,0,3.2,1,0.802,3.8c0,0,5.198,5.3,2,6.7
	c0,0,5.6,4.3,2.398,7.6C329.4,335.3,333.4,339.1,331,341z"/>
<path fill="#FFFFFF" stroke="#000000" d="M359,166c0,0,4.4,4.8,1.2,5.7c0,0,2.8,6.2-2,5.7c0,0-2.3,7.9-7.102,3.8c0,0-6.1,9.6-8.5,0
	l-0.198,0.1c-4.102,2.3-5.102-4.7-5.102-4.7c-4.8,0.2-1.8-5.8-1.8-5.8c-3.1-1.1,1.4-5.7,1.4-5.7c-2.302-2,1.8-5.6,1.8-5.6
	c-3.102-3.5,2.7-7.5,2.7-7.5c-3.102-1.6,2.198-6.6,2.198-6.6c-2.3-3,0.9-3.8,0.9-3.8c-1.4-4.4,1.4-5.2,1.4-5.2
	c2.3-9.1,5-0.9,5.198-0.3h0.2c0,0,2.4,1.5,0.8,5.9c0,0,3.2,1,0.802,3.8c0,0,5.198,5.3,2,6.7c0,0,5.6,4.3,2.398,7.6
	C357.4,160.3,361.4,164.1,359,166z"/>
<path fill="#FFFFFF" stroke="#000000" d="M302.3,174c0.5,0.2,0.9,0.5,1,0.8C303.3,174.7,302.9,174.4,302.3,174z"/>
</svg>
