<?xml version="1.0" encoding="utf-8"?>
<!-- Generator: Adobe Illustrator 15.0.0, SVG Export Plug-In . SVG Version: 6.00 Build 0)  -->
<!DOCTYPE svg PUBLIC "-//W3C//DTD SVG 1.1//EN" "http://www.w3.org/Graphics/SVG/1.1/DTD/svg11.dtd">
<svg version="1.1" id="layer_x5F_www.ABC-color.com"
	 xmlns="http://www.w3.org/2000/svg" xmlns:xlink="http://www.w3.org/1999/xlink" x="0px" y="0px" width="822px" height="567px"
	 viewBox="0 0 822 567" enable-background="new 0 0 822 567" xml:space="preserve">
<rect display="none" fill="#FFFFFF" width="822" height="567"/>
<path fill="#FFFFFF" stroke="#000000" stroke-width="0.25" d="M535.9,345.4c-5.9,1.5,0-15.301,0-15.301
	c2.1-6.899-8.4-6.301-8.4-6.301l-0.1-0.1c3.898-3.801,6.8-7.301,6.8-9.2c0,0,1.5-9-0.5-13.101c-12.3-14.601-10.9-18.601-7.3-19.399
	c2.898-0.6,7.3,0.9,7.3,0.9c15.1,0.9,15.1-14.4,15.1-14.4c2.5-17.1,17.102-6.8,17.102-6.8c14.6,0.9,11.6-15.3,11.6-15.3
	c1.4-4,4.2-4.9,6.9-4.6c4.1,0.5,8.198,3.7,8.198,3.7c17.102,5,15.602-19,15.602-19c0.5-6.3,24.6-3.6,24.6-3.6
	c10.102-9.9-5.5-16.2-5.5-16.2c-17.6-12.2-2.5-16.2-2.5-16.2c11.602-4.5-0.5-16.2-0.5-16.2c7.102-12.2-5-13.5-5-13.5
	c5-18.1-9.6-14-12.1-13.5c-13.5,2.4-10.602-22.6-10.602-22.6c1.302-4.4,1.4-7.8,0.9-10.4c-1.7-8.9-1.5-9.2-1.5-9.2
	s37.5-18.8,38.5,2.9c0,0,37.6,19.5,21.4,39.1c0,0,17.8,7.4,0.5,21.1c0,0,24.6,21.6,12.5,30.6c0,0,36.698,35.5,18.1,44.2
	c6.3,5,1.2,12.3,1.2,12.3c10.5,12.7,0.5,19,0.5,19c-4.2,1.6-20.4-15.3-9.4,8.4c4.602,9.898,4.2,29,4.2,29
	c-0.5,13.699-21.4,19.5-21.4,19.5s3.102-14.801-2.1,0c-5.201,14.8-20.9,10.6-20.9,10.6s5.7-13.699-2.1-0.5
	c-7.8,13.2-26.1,9.5-26.1,9.5c-8.9,14.301-26.7,6.9-26.7,6.9c-17.2,10-32.4-6.301-32.4-6.301c5.7-5.801-1.1-11.601-1.1-11.601
	C550.5,334.3,538,344.8,535.9,345.4z"/>
<path fill="#FFFFFF" stroke="#000000" stroke-width="0.25" d="M447.1,211.8c4.9-4.7,12.802-7.1,24.802,0c0,0,9.8-10.9,15.198-6.5
	c0.5,0.4,0.9,0.9,1.302,1.6c4.898,8,37.3-14.1,33,6.1c0,0,28.8-5.5,26.898,7.4c0,0,23.9-4.3,25.7,13.5c0,0,10.4-1.2,10.4,7.4
	l-0.102,0.5c-2.8-0.3-5.5,0.6-6.898,4.6c0,0,3,16.2-11.602,15.3c0,0-14.6-10.4-17.1,6.8c0,0,0,15.3-15.101,14.4
	c0,0-4.399-1.5-7.301-0.9c-3.699,0.8-5,4.9,7.301,19.4c2,4,0.5,13.1,0.5,13.1c0,2-2.899,5.5-6.801,9.2l0.102,0.1
	c2.1,4.7,0.5,15.3,0.5,15.3c0,2.301-3.2,6.5-7.301,11C515.3,354.2,507,344.9,507,344.9V344.8c7.101-3,12.601-5.2,12.601-5.2
	c5.199-10-7.301-12.699-7.301-12.699c-0.699,0.801-1.398,1.5-2,2.199l-0.1-0.1c0,0-8.4,0.5-7.3-10l-0.602-0.2
	c2.5-5.399,4.2-9.899,4.2-9.899c0-8.399-9.899-3.199-9.899-3.199c-1.5,2.398-2.899,4.6-4.199,6.699l-0.5-0.301
	c-8.9,2.102-11-12.1-11-12.1l-0.102-0.4c7.5-2.199,13.7-3.3,13.7-3.3c8.9-8.399-9.399-7.899-9.399-7.899
	c-34.601,11.5-26.399,0.899-23.699-2c0.3,0.199,0.6-0.5,0.699-0.699c-0.101,0.1-0.301,0.3-0.699,0.699
	c-0.2-0.199-0.4-0.899-0.4-2.799c0-4.8-7.8-4.2-7.8-4.2c-1.7,2.8-3.4,5.201-5,7.5c-6.8,1.899-17-5.399-17-5.399c1.2-2.4,2-4,2.1-4.2
	c-4.199,4.2-11.5-3.7-11.5-3.7s13.301-17-0.8-22.5c0,0,7.8-7.2,4.3-12.6l0.602-0.3c0,0-2.4-13.5,13.5-12.3
	C439.5,225.9,441.3,217.3,447.1,211.8z"/>
<path fill="#FFFFFF" stroke="#000000" stroke-width="0.25" d="M627.3,206.6c0,0,15.602,6.3,5.5,16.2c0,0-24.1-2.7-24.6,3.6
	c0,0,1.5,23.9-15.602,19c0,0-4.1-3.2-8.198-3.7l0.1-0.5c0-8.6-10.4-7.4-10.4-7.4c-1.8-17.8-25.698-13.5-25.698-13.5
	c1.8-12.9-26.9-7.4-26.9-7.4c4.3-20.3-28.2,1.8-33-6.1c-0.4-0.7-0.8-1.2-1.3-1.6c-5.4-4.4-15.2,6.5-15.2,6.5
	c-12.1-7.1-19.9-4.7-24.8,0l2.2-4.9c-12.802-31.9,9.8-39.9,9.8-39.9c-8.602-28.2,1.2-22.1,1.2-22.1c-2.9-5.2-2.102-10,0-14.1
	c3.698-7,11.6-11.7,11.6-11.7c0-22.7,31.2-11.1,31.2-11.1c1.2-24.5,30.6-20.3,30.6-20.3c0-9.2,16.3-10.1,16.3-10.1
	s6.802,25.9,32.4,16.9c0,0,9.1-0.3,11.2,9.1l2.5,1.2c0,0-0.2,0.3,1.5,9.2c0.5,2.6,0.3,6-0.9,10.4c0,0-2.898,25,10.602,22.6
	c2.5-0.5,17.1-4.5,12.1,13.5c0,0,12.1,1.3,5,13.5c0,0,12.1,11.7,0.5,16.2C624.8,190.3,609.7,194.4,627.3,206.6z"/>
<path fill="#FFFFFF" stroke="#000000" stroke-width="0.25" d="M425.4,238.4c-1.4-2.2-4.7-4.1-11-5.2c0,0,17.698-25.2-9.2-28.9
	c0,0,10.398-17.2-6.7-14.7c0,0-6.4-17.3-14.8-16.2c-1-2.9-9.7-29.4,10.5-31.7c0,0,5.5-25.2,22.6-9.2c0,0,9.8-24.5,20.2-11.1
	c0,0,21.4-8,23.2,9.2l0,0c-2.2,4.1-3,8.9,0,14.1c0,0-9.8-6.1-1.2,22.1c0,0-22.6,8-9.8,39.9l-2.2,4.9c-5.8,5.5-7.6,14.1-7.6,14.1
	c-15.9-1.2-13.5,12.3-13.5,12.3L425.4,238.4z"/>
<path fill="#FFFFFF" stroke="#000000" stroke-width="0.25" d="M527,72.4c0,0,26.1-10.6,23,5.3c0,0-16.3,0.8-16.3,10.1
	c0,0-29.4-4.3-30.602,20.3c0,0-31.198-11.7-31.198,11.1c0,0-7.802,4.7-11.602,11.7l0,0c-1.8-17.2-23.2-9.2-23.2-9.2
	C426.7,108.2,416.9,132.8,416.9,132.8C399.8,116.8,394.3,142,394.3,142c-20.2,2.3-11.5,28.8-10.5,31.7c-1.3,0.2-2.8,0.8-4.2,2.1
	c0,0-11-23.9-29.398-11.7c0,0,2.398-15.3-15.3-9.2c0,0-8.9-4.8-22,1.6c2.698-4.7,1.198-12,1.198-12c5.5-13.5-19-17.8-19-17.8
	c14.7-6.7-1.8-20.9-1.8-20.9c10.4-9.2-11.4-20.5-11.4-20.5S273,55.7,295,66.8c0,0,22.8-18.6,31.4-5.3c-5.802-9,23.198-44,29.8-6.3
	c0,0,9.398-33.3,23.5-29.6c0,0,25.1,3.2,25.1,11.1c0,0,11-24.8,19.3-27.4c0,0,16.7-0.5,20.9,11.1c0,0,7.3,9,20.4,3.2
	c0,0,13.1-19.5,20.898-2.1c0,0,8.4,11.6,0.5,14.8c0,0,4.7,7.4,15.7,1c0,0,19.9,0.5,12.5,15.8C515,52.9,508.7,71.4,527,72.4z"/>
<path fill="#FFFFFF" stroke="#000000" stroke-width="0.25" d="M317.6,284.3c0.2-0.4,0.2-0.7-0.1-0.7
	C317.5,283.6,317.6,283.9,317.6,284.3z M259.4,270.5c-14.5,9.9-26.3-0.8-26.3-0.8c-18.3,7.1-12.9-21-12.9-21
	c26,6.3,28.4-11.2,28.4-11.2c28.1-1.2,32.4-23.3,32.4-23.3c14.7,3.7,16.5-27,16.5-27c14.7,2.5,8.6-27,8.6-27c3.4-0.2,5.5-1.8,6.7-4
	c13.102-6.3,22-1.6,22-1.6c17.7-6.1,15.3,9.2,15.3,9.2c18.302-12.3,29.4,11.7,29.4,11.7c1.4-1.3,2.8-1.9,4.2-2.1
	c8.398-1.1,14.8,16.2,14.8,16.2c17.1-2.5,6.7,14.7,6.7,14.7c26.898,3.7,9.2,28.9,9.2,28.9c6.3,1.1,9.6,3,11,5.2
	c3.5,5.5-4.302,12.6-4.302,12.6c14.102,5.5,0.802,22.5,0.802,22.5c-14.102,25.9-27.7,0.5-27.7,0.5c-5.7-2.1-12.5,1.6-12.5,1.6
	c1,1.2,1.898,2.4,2.8,3.6l-0.1,0.1c-4.7,7.9-13.602,0.5-13.602,0.5c-12.1,14.3-23.8-4-24.5-5.2c-0.398-5.1-1.1-9-1.1-9
	c-6.3-8.4-16.2,3.7-16.2,3.7c12.5,2.1,6.8,17.4,6.8,17.4c-1.5,8.3-12.6-0.601-13-1l0,0c-3.7,2.6-4.7,0-5-1.4
	c-1.3,2.3-9.5,9.101-7.8,9.7c-4.9,4.4-6.7-11.7-6.7-11.7c-4.8,8.7-13,10.8-13,10.8c-13.4,12.301-26.4-2.8-26.4-2.8
	C250.6,290.3,259.1,271.2,259.4,270.5z"/>
<path fill="#FFFFFF" stroke="#000000" stroke-width="0.25" d="M312.9,156.2c-1.2,2.2-3.302,3.8-6.7,4c0,0,6.1,29.5-8.6,27
	c0,0-1.8,30.7-16.5,27c0,0-4.3,22.1-32.4,23.3c0,0-2.4,17.5-28.4,11.2c-15.6,5.5-19.4-9.5-19.4-9.5s-9.1-3.6-8.6-5.5
	c2.6-9.5,10.2-7.5,10.2-7.5c0-5.9-9.1-6.3-9.1-6.3c-8.1-10.3,22.6-9.9,22.6-9.9c2.7-0.9,4.4-2,5.5-3.2c4.3-4.9-2.3-11.5-2.3-11.5
	c4.9-10.7-22.6-7.1-22.6-7.1s-10.3-9.5-0.9-17.5c0,0-8.4-21.6,20.9-27.5c0,0-8.9-30.1,20.4-22.2c0,0,2.1-25.3,17.8-20.1
	c0,0-2.6-13.7,13.1-15.8c2.1-0.3,14.1,0,14.1,0s21.8,11.2,11.4,20.5c0,0,16.5,14.1,1.8,20.9c0,0,24.5,4.3,19,17.8
	C314.1,144.2,315.5,151.5,312.9,156.2z"/>
<path fill="#FFFFFF" stroke="#000000" stroke-width="0.25" d="M283.4,347.5c-1.8,5.1-7.3,6.5-8.6,6.8c-0.1,0-0.2,0-0.2,0s0,0-0.1,0
	c0,0-11.5-1.1-13.1,5.8c0,0-7.8,25.301-20.4,15.301c0,0-7.3,23.801-20.4,8.399c0,0-15.2-3.2-15.7-14.8c0,0-15.2,16.4-19.9-4.2
	c0,0-16.3,3.7-8.9-13.7c1.6-3.699-3.1-2.6-3.1-2.6s-21.4-2.1-12-11.6c0,0,2.6-13.701-8.4-12.701c0,0-21.9-4.199-9.9-15.299
	c0,0-20.4-1.602-15.2-12.102c0,0-10.5-17.9-2.1-29c0,0-18.8-22.7-1.6-28.5c0,0-2.6-37.5,15.2-33.3c0,0,17.3-25.9,27.2-17.9
	c0,0,7.3-16.9,17.2-11.1c0,0,2.1-16.4,12-6.3c-9.4,8,0.9,17.5,0.9,17.5s27.4-3.6,22.6,7.1c0,0,6.6,6.6,2.3,11.5
	c-1.1,1.2-2.8,2.3-5.5,3.2c0,0-30.7-0.4-22.6,9.9c0,0,9.1,0.4,9.1,6.3c0,0-7.6-2-10.2,7.5c-0.5,2,8.6,5.5,8.6,5.5s3.8,15.1,19.4,9.5
	c0,0-5.4,28.1,12.9,21c0,0,11.8,10.7,26.3,0.8c-0.3,0.7-8.9,19.8,4.3,19.8c0,0,12.9,15.102,26.4,2.8c0,0,8.1-2,13-10.8
	c0,0,1.8,16.102,6.699,11.7c-1.6-0.5,6.5-7.3,7.802-9.7c0.3,1.398,1.3,3.898,5,1.398l0,0C325,292,313,297.8,313,297.8
	c22,4.7,30.8,30.101,30.8,30.101S338,346.4,323.4,335.8c0,0-9.102,12.2-17.302,1.7c0-3.2,0.102-5.4,0.102-5.4
	c-1.601-5.8-10.4,2.101-10.4,2.101s-7,16.7-12.2,13.399l-0.1-0.1C283.6,347.6,283.5,347.5,283.4,347.5z"/>
<path fill="#FFFFFF" stroke="#000000" stroke-width="0.25" d="M456.3,442.1c-0.7,2.802-1.2,5.7-1.5,8.602
	c-0.398,2.898-0.7,5.898-1.3,8.6c-5.6,22.2-32,22.2-47.4,14.8C396.2,467.9,390.7,454.4,391,442c0-25.8,14.6-46.6,32.6-46.6
	S456.3,416.3,456.3,442.1z M449.7,450.9c0.6-3.102,1-6.4,1.2-9.5c0-21.5-12.2-38.9-27.2-38.9s-27.2,17.4-27.2,38.9
	c-2.5,17.3,12.9,27.1,26.1,29.6C434.7,473.5,447.9,466.1,449.7,450.9z"/>
<path fill="#FFFFFF" stroke="#000000" stroke-width="0.25" d="M450.9,441.4c-0.2,3.1-0.602,6.3-1.2,9.5
	c-1.8,15.198-15,22.6-27.102,20.1c-13.198-2.5-28.6-12.3-26.1-29.6c0-21.5,12.2-38.9,27.2-38.9C438.8,402.5,450.9,419.9,450.9,441.4
	z"/>
<path fill="#FFFFFF" stroke="#000000" stroke-width="0.25" d="M289.2,375.4c0,0-6.1-22.2-14.4-21.102c1.3-0.3,6.8-1.699,8.6-6.8
	c0.1,0,0.2,0.101,0.2,0.2l0.1,0.1c3,2.2,24.398,17,12.2-13.398c0,0,8.9-7.9,10.4-2.102c0,0-0.1,2.102-0.1,5.4
	c0.1,9.1,0.8,27,5.8,30.5c0,0,72.1,31.7,31.9-40.102c0,0-8.9-25.3-30.802-30.1c0,0,12-5.8,9.4-12.1c0.5,0.398,11.5,9.299,13,1
	c0,0,5.8-15.3-6.8-17.4c0,0,9.898-12.1,16.2-3.7c0,0,0.698,4,1.1,9c0.6,7.5,0.6,17.399-3.2,20.5c0,0,0.5,4.2,10.5,6.601
	c0.602,0.199,1.7,0.801,2.102,0.199c3.698-6.3,10.398,3.7,4.698,9c0,0,14.102,21.602,14.602,25.301c0,0,15.7-10.601,18.8-26.899
	c0,0-0.4-17.2-9.2-30.2l0,0c-0.8-1.2-1.8-2.4-2.8-3.6c0,0,6.8-3.7,12.5-1.6c0,0,13.6,25.299,27.7-0.5c0,0,7.3,7.9,11.5,3.7
	c-0.102,0.2-0.9,1.8-2.102,4.2c-3.8,7.899-11.198,24.3-6.8,24.3c0,0,8.2,3,23.8-18.898c1.602-2.2,3.2-4.7,5-7.5
	c0,0,7.802-0.5,7.802,4.2c0,1.9,0.198,2.6,0.398,2.8c-2.7,2.898-11,13.5,23.7,2c0,0,18.3-0.5,9.4,7.898c0,0-6.2,1.102-13.7,3.301
	c-11.102,3.301-25,9.101-25,17.301c0,0,9,36.398,36.5-4.4c1.398-2,2.8-4.2,4.2-6.7c0,0,9.898-5.3,9.898,3.2c0,0-1.7,4.4-4.2,9.9
	c-3.698,7.898-9,17.898-13,19.199c0,0,1.9,11.399,21-8.899c0.602-0.7,1.302-1.4,2-2.2c0,0,12.5,2.6,7.302,12.7
	c0,0-5.5,2.2-12.602,5.2c-11.1,4.8-26,11.699-29.2,15.898c0,0-9.398,29,23,7.9c0,0,11.802-9.9,19.9-18.5c4.2-4.5,7.3-8.7,7.3-11
	c0,0,1.602-10.602-0.5-15.301c0,0,10.5-0.5,8.4,6.301c0,0-5.9,16.8,0,15.3c2.1-0.5,14.6-11.101,15.2-5.8c0,0,6.8,5.8,1.1,11.6
	c0,0-13.1,4.7-32.9,15.801c0,0-16.698,24.301-26.1,26.399c0,0-21.4,24.8-5.2,73.9c0,0,6.8,12.1,6.8,17.898c0,6.3,4.7,7.4,4.7,16.9
	l-0.5,2.1c0,0,17.9,11.5,14.9,19c-0.102,0.2-0.2,0.4-0.3,0.601l0.198,0.5C506,527.2,500.9,530.2,500.9,530.2
	C494.1,538.1,469,527.6,467.4,527.6c-21.4,0-22.5,4.7-26.102,5.301c-10.8,1.601-17.8-5.801-17.8-5.801c-9.4,0.5-22,10-22,10
	c-7.3-2.1,4.2-17.398,4.2-17.398c-6.8,2.6-16.2,19.5-16.2,19.5c-7.8,6.898-22-4.7-22-4.7c-4.2-4.8,1.6-15.3,1.6-15.3
	c-6.3,0-15.698,15.3-15.698,15.3c-4.7,3.2-14.102,0.5-14.102,0.5c-7.3,0,7.3-17.4,7.3-17.4c-4.6-1-25,17.9-25.6,18.5
	c0.1-0.3,4-13.199,8.8-23.1c2.9-5.9,6.102-10.8,9-11.2c0,0,2.3-5.1,2.602-15.3c0-0.7,0-1.4,0-2.101c0-11.601,2.6-31.699,6.8-36.399
	c0,0-2.602-21.601,3.1-29.6c0,0,3.7-25.302-34.5-28.001C316.9,390.2,289.2,383.4,289.2,375.4z M454.7,450.7
	c0.398-2.9,0.8-5.9,1.5-8.602c0-25.8-14.602-46.6-32.7-46.6c-18,0-32.6,20.9-32.6,46.6C390.6,454.4,396.1,468,406,474.2
	c15.4,7.398,41.8,7.398,47.4-14.8C454,456.6,454.3,453.6,454.7,450.7z"/>
<line fill="none" stroke="#000000" stroke-width="0.5" x1="287.2" y1="359.7" x2="289.6" y2="367"/>
<path fill="none" stroke="#000000" stroke-width="0.5" d="M292.7,372.6c0,0,2.4,4.301,5.5,4.301"/>
<line fill="none" stroke="#000000" stroke-width="0.5" x1="307.4" y1="381.8" x2="312.3" y2="382.4"/>
<path fill="none" stroke="#000000" stroke-width="0.5" d="M323.9,386.7c0,0,7.3-2.5,7.3,0"/>
<path fill="none" stroke="#000000" stroke-width="0.5" d="M347.1,395.3c0,0,3.7,2.5,4.302,6.8"/>
<path fill="none" stroke="#000000" stroke-width="0.5" d="M356.3,408.8c0,0,3.102,6.102,0.602,10.4"/>
<path fill="none" stroke="#000000" stroke-width="0.5" d="M353.3,431.5c-1.2,11.7-0.6,20.3-0.6,20.3"/>
<path fill="none" stroke="#000000" stroke-width="0.5" d="M351.4,464.6c0,0-4.302,10.4-1.802,16.602"/>
<path fill="none" stroke="#000000" stroke-width="0.5" d="M346.5,491.6c0,0,1.8,2.5-3.1,12.9"/>
<path fill="none" stroke="#000000" stroke-width="0.5" d="M358.1,396.5c3.102,9.8,6.7,12.9,6.102,17.2"/>
<path fill="none" stroke="#000000" stroke-width="0.5" d="M363,432.1c0.6,2.5-1.2,9.802-1.2,14.102"/>
<path fill="none" stroke="#000000" stroke-width="0.5" d="M361.2,455.4c0,0,3.1,8.6-1.2,12.3"/>
<path fill="none" stroke="#000000" stroke-width="0.5" d="M356.9,478.8c0,0,9.198,11,0.6,15.3"/>
<path fill="none" stroke="#000000" stroke-width="0.5" d="M357.5,504.5c0,0-1.8,0.6-2.4,8.6"/>
<path fill="none" stroke="#000000" stroke-width="0.5" d="M341,381.2c3.1,1.2,13.5,0.6,13.5,3.1"/>
<path fill="none" stroke="#000000" stroke-width="0.5" d="M297,362.1c0,0,3.1,12.301,10.4,12.301"/>
<path fill="none" stroke="#000000" stroke-width="0.5" d="M336.1,301.4c0,0,6.102,6.1,6.7,9.199"/>
<path fill="none" stroke="#000000" stroke-width="0.5" d="M349,323.5c0,0,3.7,4.3,3.1,7.4"/>
<path fill="none" stroke="#000000" stroke-width="0.5" d="M357.5,341.9c0,0,3.7,6.8,2.4,12.3"/>
<path fill="none" stroke="#000000" stroke-width="0.5" d="M364.3,361.5c0,0,3.7,10.4-0.6,11.7"/>
<path fill="none" stroke="#000000" stroke-width="0.5" d="M366.1,377.5c0,0-3.1,3.7-1.8,9.8"/>
<path fill="none" stroke="#000000" stroke-width="0.5" d="M365.5,397.7c0,0,6.1,12.3,4.3,16.6"/>
<path fill="none" stroke="#000000" stroke-width="0.5" d="M369.8,424.7c0,0,2.4,9.2,0.602,12.898"/>
<path fill="none" stroke="#000000" stroke-width="0.5" d="M367.9,452.4c0,0,4.3,1.198-0.602,11"/>
<path fill="none" stroke="#000000" stroke-width="0.5" d="M364.3,473.8c0,0,5.5,8.602,1.8,13.5"/>
<path fill="none" stroke="#000000" stroke-width="0.5" d="M367.3,500.2c0,0,0.602,2.5-2.398,9.2"/>
<path fill="none" stroke="#000000" stroke-width="0.5" d="M366.7,341.9c0,0-3.102-15.301-6.102-15.301"/>
<path fill="none" stroke="#000000" stroke-width="0.5" d="M354.5,314.9c0,0-3.7-8.602-7.3-8.602"/>
<path fill="none" stroke="#000000" stroke-width="0.5" d="M376.5,347.4c0,0,2.4-4.9,6.7-9.801"/>
<path fill="none" stroke="#000000" stroke-width="0.5" d="M391.2,337c0,0,6.7-8,6.7-13.5"/>
<path fill="none" stroke="#000000" stroke-width="0.5" d="M399.1,297.7c0,0,1.2,5.5,1.2,9.8"/>
<path fill="none" stroke="#000000" stroke-width="0.5" d="M410.1,305.7c0,0,3.7-1.8-1.198-10.4"/>
<path fill="none" stroke="#000000" stroke-width="0.5" d="M501.3,518.6c0,0-8-3.1-8.6-6.8"/>
<path fill="none" stroke="#000000" stroke-width="0.5" d="M489.1,494.7c0,0-3.698-6.8-3.698-11.7"/>
<path fill="none" stroke="#000000" stroke-width="0.5" d="M480.5,468.3c0,0-2.4-7.398-2.4-11.7"/>
<path fill="none" stroke="#000000" stroke-width="0.5" d="M475,446.8c0,0,0-11,0.6-14.7"/>
<path fill="none" stroke="#000000" stroke-width="0.5" d="M475,416.1c0,0,3.7-10.398,4.9-12.898"/>
<path fill="none" stroke="#000000" stroke-width="0.5" d="M486.6,390.4c0,0,2.4-11,10.4-11"/>
<path fill="none" stroke="#000000" stroke-width="0.5" d="M509.9,369.5c0,0,9.8-12.3,13.5-12.3"/>
<path fill="none" stroke="#000000" stroke-width="0.5" d="M475,397.1c0,0,3.7-8,0.6-12.898"/>
<path fill="none" stroke="#000000" stroke-width="0.5" d="M484.2,398.3c0,0-1.2-6.8-2.4-11"/>
<path fill="none" stroke="#000000" stroke-width="0.5" d="M468.9,429c0,0,0-11,0-15.3"/>
<path fill="none" stroke="#000000" stroke-width="0.5" d="M470.7,455.4c0,0-1.2-3.7,0-12.302"/>
<path fill="none" stroke="#000000" stroke-width="0.5" d="M475.6,474.5c0,0-5.5-6.1-4.3-10.4"/>
<path fill="none" stroke="#000000" stroke-width="0.5" d="M482.3,499c0,0-6.1-5.5-6.1-11"/>
<path fill="none" stroke="#000000" stroke-width="0.5" d="M489.1,518.6c0,0-8-3.698-7.3-8"/>
<path id="www.ABC-color.com" fill="none" stroke="#000000" stroke-width="0.5" d="M471.3,367.7c3.102-9.8,5.5-14.7,5.5-14.7"/>
<path fill="none" stroke="#000000" stroke-width="0.5" d="M484.2,349.2c0,0,8-2.5,10.398-2.5"/>
<path fill="none" stroke="#000000" stroke-width="0.5" d="M479.9,341.9c0,0-1.802-5.5,2.398-8"/>
<path fill="none" stroke="#000000" stroke-width="0.5" d="M487.8,330.2c0,0,4.3-8,6.7-12.3"/>
<path fill="none" stroke="#000000" stroke-width="0.5" d="M465.8,343.1c0,0-3.1-11-8.6-14.1"/>
<path fill="none" stroke="#000000" stroke-width="0.5" d="M465.8,364c0,0,0.602-9.2,3.7-12.3"/>
<path fill="none" stroke="#000000" stroke-width="0.5" d="M471.3,382.4c0,0-6.7-2.5-6.7-8.602"/>
<path fill="none" stroke="#000000" stroke-width="0.5" d="M372.8,370.1c0,0,6.102-11-0.6-16"/>
<path fill="none" stroke="#000000" stroke-width="0.5" d="M374.7,522.9c0,0,3.7-12.9,0.6-18.4"/>
<path fill="none" stroke="#000000" stroke-width="0.5" d="M381.4,530.3c0,0,7.3-6.1,6.1-12.898"/>
<path fill="none" stroke="#000000" stroke-width="0.5" d="M474.4,522.9c0,0-4.9-6.102-4.9-11.7"/>
<path fill="none" stroke="#000000" stroke-width="0.5" d="M448.1,311.8c0,0,0.602-4.3,9.2-7.399"/>
<path fill="none" stroke="#000000" stroke-width="0.5" d="M451.1,300.1c0,0,3.102-2.5,3.7-6.1"/>
<path fill="none" stroke="#000000" stroke-width="0.5" d="M436.4,316.1c0,0,3.1-3.1,4.3-9.199"/>
</svg>
