<?xml version="1.0" encoding="utf-8"?>
<!-- Generator: Adobe Illustrator 15.0.0, SVG Export Plug-In . SVG Version: 6.00 Build 0)  -->
<!DOCTYPE svg PUBLIC "-//W3C//DTD SVG 1.1//EN" "http://www.w3.org/Graphics/SVG/1.1/DTD/svg11.dtd">
<svg version="1.1" id="Layer_1" xmlns="http://www.w3.org/2000/svg" xmlns:xlink="http://www.w3.org/1999/xlink" x="0px" y="0px"
	 width="32px" height="32px" viewBox="0 0 32 32" enable-background="new 0 0 32 32" xml:space="preserve">
<g>
	<path fill="#CC3333" d="M29.426,15.382l-1.371,0.194c0.011,0.274,0.036,0.546,0.027,0.826c-0.223,6.671-5.812,11.9-12.483,11.68
		c-4.888-0.162-8.991-3.209-10.754-7.448l-1.305,0.407c1.936,4.776,6.533,8.218,12.014,8.4c7.423,0.246,13.64-5.57,13.886-12.994
		C29.452,16.088,29.443,15.734,29.426,15.382z"/>
	<polygon fill="#CC3333" points="28.732,13.179 30.336,16.431 27.126,16.431 	"/>
	<path fill="#339933" d="M3.92,15.599C4.142,8.926,9.73,3.698,16.402,3.92c4.887,0.162,8.99,3.209,10.754,7.448l1.304-0.409
		c-1.935-4.774-6.531-8.216-12.013-8.398C9.025,2.313,2.809,8.131,2.561,15.554c-0.012,0.359-0.003,0.713,0.015,1.066l1.35-0.191
		C3.914,16.153,3.911,15.878,3.92,15.599z"/>
	<polygon fill="#339933" points="3.284,18.017 1.68,14.766 4.889,14.766 	"/>
</g>
</svg>
