<?xml version="1.0" encoding="utf-8"?>
<!-- Generator: Adobe Illustrator 15.0.0, SVG Export Plug-In . SVG Version: 6.00 Build 0)  -->
<!DOCTYPE svg PUBLIC "-//W3C//DTD SVG 1.1//EN" "http://www.w3.org/Graphics/SVG/1.1/DTD/svg11.dtd">
<svg version="1.1" id="Layer_1" xmlns="http://www.w3.org/2000/svg" xmlns:xlink="http://www.w3.org/1999/xlink" x="0px" y="0px"
	 width="32px" height="32px" viewBox="0 0 32 32" enable-background="new 0 0 32 32" xml:space="preserve">
<g opacity="0.5">
	<path d="M16,0C7.289,0,0.204,6.961,0.005,15.624C0.19,8.066,5.937,2,13,2c7.18,0,13,6.268,13,14c0,1.657,1.343,3,3,3s3-1.343,3-3
		C32,7.163,24.837,0,16,0z"/>
</g>
<g opacity="0.5">
	<path fill="#FFFFFF" d="M16,32c8.711,0,15.796-6.961,15.995-15.624C31.811,23.934,26.063,30,19,30c-7.18,0-13-6.268-13-14
		c0-1.657-1.343-3-3-3s-3,1.343-3,3C0,24.837,7.163,32,16,32z"/>
</g>
</svg>
