<?xml version="1.0" encoding="utf-8"?>
<!-- Generator: Adobe Illustrator 15.0.0, SVG Export Plug-In . SVG Version: 6.00 Build 0)  -->
<svg version="1.2" baseProfile="tiny" id="Layer_1" xmlns="http://www.w3.org/2000/svg" xmlns:xlink="http://www.w3.org/1999/xlink"
	 x="0px" y="0px" width="600px" height="600px" viewBox="0 0 600 600" xml:space="preserve">
<path fill-rule="evenodd" fill="#000066" d="M599.879,295.398H505.65c-2.943-108.929-91.101-196.812-200.14-199.294V0.061H295.47
	v96.072C186.733,98.958,98.922,186.689,95.979,295.398H0.061V305.4h95.858c2.355,109.237,90.438,197.565,199.551,200.397v94.058
	h10.041v-94.021c109.416-2.498,197.845-90.978,200.201-200.435h94.167V295.398z M295.47,106.136v95.055
	c-50.88,2.694-91.615,43.358-94.423,94.207h94.438V201.13h10.012v94.268h95.102c-2.824-51.067-43.891-91.861-95.088-94.246v-95.054
	c103.543,2.483,187.172,85.889,190.115,189.3h-94.815v9.994h-95.313v95.6h-10.012v-95.6h-94.559v-9.994h-94.923
	C108.933,192.199,192.245,108.951,295.47,106.136z M105.943,305.4h95.043c2.265,51.377,43.226,92.632,94.483,95.348v95.055
	C191.868,492.973,108.284,409.129,105.943,305.4z M305.511,495.839v-95.053c51.574-2.409,92.882-43.79,95.147-95.386h95.028
	C493.348,409.347,409.43,493.349,305.511,495.839z"/>
</svg>
