<?xml version="1.0" encoding="utf-8"?>
<!-- Generator: Adobe Illustrator 15.0.0, SVG Export Plug-In . SVG Version: 6.00 Build 0)  -->
<!DOCTYPE svg PUBLIC "-//W3C//DTD SVG 1.1//EN" "http://www.w3.org/Graphics/SVG/1.1/DTD/svg11.dtd">
<svg version="1.1" id="Layer_1" xmlns="http://www.w3.org/2000/svg" xmlns:xlink="http://www.w3.org/1999/xlink" x="0px" y="0px"
	 width="38.375px" height="38.375px" viewBox="0 0 38.375 38.375" enable-background="new 0 0 38.375 38.375" xml:space="preserve">
<g opacity="0.3">
	<polygon points="34.063,23.354 32.417,22 31.375,23.004 31.375,32 7.375,32 7.375,22.453 6.396,23.354 4.75,22 3.375,23.324 
		3.375,36 35.375,36 35.375,22.146 	"/>
	<path d="M4.75,18.938L5.979,20l1.396-1.167V8h2v10h18V8h2.343l1.657,1.657v10.153l1.042-0.873L33.646,20l1.729-1.446V8l-4-4h-28
		v16.089L4.75,18.938z M19.375,8h4v8h-4V8z"/>
</g>
<g>
	
		<polygon fill="#FFFFFF" stroke="#1A1A1A" stroke-width="0.25" stroke-linecap="round" stroke-linejoin="round" stroke-miterlimit="10" points="
		32.688,21.354 31.042,20 30,21.004 30,30 6,30 6,20.453 5.021,21.354 3.375,20 2,21.324 2,34 34,34 34,20.146 	"/>
	
		<path fill="#FFFFFF" stroke="#1A1A1A" stroke-width="0.25" stroke-linecap="round" stroke-linejoin="round" stroke-miterlimit="10" d="
		M3.375,16.938L4.604,18L6,16.833V6h2v10h18V6h2.343L30,7.657V17.81l1.042-0.873L32.271,18L34,16.554V6l-4-4H2v16.089L3.375,16.938z
		 M18,6h4v8h-4V6z"/>
</g>
</svg>
