<?xml version="1.0" encoding="utf-8"?>
<!-- Generator: Adobe Illustrator 15.0.0, SVG Export Plug-In . SVG Version: 6.00 Build 0)  -->
<!DOCTYPE svg PUBLIC "-//W3C//DTD SVG 1.1//EN" "http://www.w3.org/Graphics/SVG/1.1/DTD/svg11.dtd">
<svg version="1.1" id="Layer_1" xmlns="http://www.w3.org/2000/svg" xmlns:xlink="http://www.w3.org/1999/xlink" x="0px" y="0px"
	 width="32px" height="27.178px" viewBox="0 0 32 27.178" enable-background="new 0 0 32 27.178" xml:space="preserve">
<path fill="#FFFFFF" stroke="#000000" stroke-linecap="round" stroke-linejoin="round" stroke-miterlimit="10" d="M18.896,13.513
	v2.897h3.432l-3.89,3.891c-2.456,2.458-6.743,2.458-9.2,0l-2.05,2.045c1.775,1.776,4.139,2.757,6.652,2.757
	c2.515,0,4.87-0.98,6.645-2.757l4.206-4.201v4.06h2.896v-8.691H18.896z M13.103,10.616H9.67l3.891-3.89
	c2.455-2.459,6.741-2.459,9.199,0l2.051-2.046c-1.774-1.776-4.14-2.756-6.654-2.756c-2.513,0-4.87,0.979-6.644,2.756L7.308,8.881
	V4.822H4.411v8.691h8.691V10.616z"/>
</svg>
