<?xml version="1.0" encoding="utf-8"?>
<!-- Generator: Adobe Illustrator 15.0.0, SVG Export Plug-In . SVG Version: 6.00 Build 0)  -->
<!DOCTYPE svg PUBLIC "-//W3C//DTD SVG 1.1//EN" "http://www.w3.org/Graphics/SVG/1.1/DTD/svg11.dtd">
<svg version="1.1" id="Layer_1" xmlns="http://www.w3.org/2000/svg" xmlns:xlink="http://www.w3.org/1999/xlink" x="0px" y="0px"
	 width="1340px" height="1340px" viewBox="0 0 1340 1340" enable-background="new 0 0 1340 1340" xml:space="preserve">
<linearGradient id="SVGID_1_" gradientUnits="userSpaceOnUse" x1="724.707" y1="230.7754" x2="724.707" y2="1113.0688">
	<stop  offset="0" style="stop-color:#4AD92E"/>
	<stop  offset="1" style="stop-color:#0F9E36"/>
</linearGradient>
<path style="-webkit-svg-shadow: 10px 10px 40px rgba(0, 0, 0, 0.6)"  fill="url(#SVGID_1_)" stroke="#000000" stroke-width="3" d="M475.975,635.096C519.098,702.089,553.596,759.086,630,878
	c136-236,324-512,635.879-647.225c-26.817,198.327-28.317,216.326,15.002,336.034c-260.809,112.511-431.8,286.772-629.79,546.259
	c-113.995-140.993-344.983-277.486-482.56-325.23C334.607,708.089,378.104,682.59,475.975,635.096z"/>
<path fill="url(#SVGID_1_)" stroke="#000000" stroke-width="3" d="M475.975,635.096C519.098,702.089,553.596,759.086,630,878
	c136-236,324-512,635.879-647.225c-26.817,198.327-28.317,216.326,15.002,336.034c-260.809,112.511-431.8,286.772-629.79,546.259
	c-113.995-140.993-344.983-277.486-482.56-325.23C334.607,708.089,378.104,682.59,475.975,635.096z"/>
</svg>
