<?xml version="1.0" encoding="utf-8"?>
<!-- Generator: Adobe Illustrator 15.0.0, SVG Export Plug-In . SVG Version: 6.00 Build 0)  -->
<!DOCTYPE svg PUBLIC "-//W3C//DTD SVG 1.1//EN" "http://www.w3.org/Graphics/SVG/1.1/DTD/svg11.dtd">
<svg version="1.1" id="Layer_1" xmlns="http://www.w3.org/2000/svg" xmlns:xlink="http://www.w3.org/1999/xlink" x="0px" y="0px"
	 width="137.221px" height="177.05px" viewBox="0 0 137.221 177.05" enable-background="new 0 0 137.221 177.05"
	 xml:space="preserve">
<g style="opacity: 0.4;">
	<path fill-rule="evenodd" clip-rule="evenodd" fill="#D0C62A" stroke="#000000" stroke-width="0.25" stroke-miterlimit="10" d="
		M30.871,135.342c0-2.26,1.125-5.929-1.02-5.929c-1.037,0-0.973,3.182-1.281,4.653c-0.603,2.962-1.86,7.493,0.951,9.574
		c5.569,4.132,5.575-0.006,11.486-3.478l3.286-2.034c0.788-0.585,0.869-0.887,0.684-1.768c-1.46,0-1.884,0.701-2.973,1.321
		c-0.852,0.481-2.075,1.044-3.158,1.136c0.087-1.083,1.489-1.778,2.979-3.767c0.423-0.567,3.512-3.802,1.315-3.802
		c-0.684,0-1.553,1.455-2.503,2.405c-0.499,0.498-2.307,2.162-2.816,2.301c0.186-0.678,1.895-3.043,2.295-3.64
		c1.287-1.93,2.179-2.411,2.208-3.721c-1.345-0.313-1.826-0.33-3.976,2.567l-1.82,2.475c-0.475,0.685-0.174,0.476-0.748,0.685
		c0.052-0.661,1.611-4.145,2.22-4.938c1.727-2.26,0.301-2.48-0.244-2.301C35.67,127.762,34.042,135.076,30.871,135.342
		L30.871,135.342z"/>
	<path fill-rule="evenodd" clip-rule="evenodd" fill="#D0C62A" stroke="#000000" stroke-width="0.25" stroke-miterlimit="10" d="
		M123.073,33.734c0-2.26,1.13-5.929-1.02-5.929c-1.032,0-0.974,3.182-1.275,4.654c-0.608,2.961-1.866,7.493,0.944,9.574
		c5.569,4.132,5.575-0.006,11.486-3.477c2.318-1.362,4.329-2.121,3.97-3.802c-1.46,0-1.883,0.701-2.973,1.321
		c-0.852,0.481-2.075,1.043-3.158,1.136c0.093-1.083,1.495-1.779,2.979-3.767c0.423-0.568,3.512-3.801,1.315-3.801
		c-0.556,0-1.043,0.713-1.345,1.112c-0.903,1.188-1.431,1.542-2.479,2.428c-0.609,0.51-0.713,0.957-1.49,1.165
		c0.191-0.719,0.134-0.336,0.517-0.916l1.772-2.724c1.293-1.93,2.18-2.411,2.208-3.72c-1.338-0.313-1.825-0.331-3.976,2.567
		l-1.819,2.475c-0.475,0.684-0.174,0.475-0.747,0.684c0.156-1.866,3.065-6.079,3.065-6.543c0-0.637-0.608-0.852-1.09-0.695
		c-1.257,0.412-3.616,5.535-4.375,6.467C124.835,32.859,124.563,33.613,123.073,33.734L123.073,33.734z"/>
	<path fill-rule="evenodd" clip-rule="evenodd" fill="#D0C62A" stroke="#000000" stroke-width="0.25" stroke-miterlimit="10" d="
		M62.763,99.974c0-1.56,0.127-2.017,0.307-3.391c0.127-0.974-0.07-2.538-1.328-2.538c-1.031,0-0.973,3.182-1.274,4.653
		c-0.609,2.962-1.866,7.493,0.944,9.574c5.569,4.132,5.575-0.006,11.486-3.478c0.626-0.371,1.037-0.632,1.657-1.002
		c1.744-1.032,2.619-1.362,2.318-2.8c-1.461,0-1.89,0.701-2.979,1.321c-0.852,0.481-2.068,1.044-3.158,1.136
		c0.081-0.985,0.806-1.321,1.38-1.895c0.73-0.713,0.974-1.037,1.6-1.872c0.423-0.568,3.512-3.802,1.315-3.802
		c-0.685,0-1.554,1.455-2.504,2.405c-0.498,0.498-2.301,2.161-2.811,2.301c0.15-0.568,0.568-0.974,1.061-1.803l2.411-3.518
		c0.597-0.765,0.996-0.759,1.025-2.04c-1.339-0.313-1.825-0.33-3.976,2.567l-1.82,2.475c-0.475,0.684-0.174,0.476-0.748,0.684
		c0.157-1.865,3.065-6.079,3.065-6.543c0-0.637-0.608-0.852-1.089-0.695c-0.852,0.278-2.371,2.985-2.805,3.75
		C65.903,97.105,64.913,99.794,62.763,99.974L62.763,99.974z"/>
	<path fill-rule="evenodd" clip-rule="evenodd" fill="#D0C62A" stroke="#000000" stroke-width="0.25" stroke-miterlimit="10" d="
		M94.248,66.854c0-1.559,0.127-2.017,0.307-3.39c0.128-0.974-0.069-2.538-1.326-2.538c-1.038,0-0.975,3.181-1.275,4.653
		c-0.608,2.961-1.866,7.493,0.944,9.574c5.569,4.132,5.575-0.006,11.486-3.477l3.286-2.034c0.788-0.585,0.869-0.887,0.684-1.768
		c-2.074,0-3.188,2.208-6.132,2.457c0.094-1.083,1.49-1.779,2.979-3.767c0.423-0.568,3.512-3.802,1.315-3.802
		c-0.713,0-3.895,4.323-5.314,4.706c0.15-0.568,0.568-0.974,1.061-1.802l2.411-3.518c0.597-0.765,0.996-0.759,1.025-2.04
		c-1.345-0.313-1.825-0.331-3.976,2.567c-0.464,0.62-0.812,1.008-1.258,1.605c-0.793,1.061-0.527,1.27-1.31,1.553
		c0.157-1.866,3.065-6.079,3.065-6.542c0-0.412-0.666-1.71-2.225,0.429C97.789,62.757,96.763,66.646,94.248,66.854L94.248,66.854z"
		/>
	<path fill-rule="evenodd" clip-rule="evenodd" fill="#C92027" stroke="#000000" stroke-width="0.25" stroke-miterlimit="10" d="
		M95.848,32.952c0-0.07,0.127-0.168,0.139-0.139l1.675-3.025c0.313-0.417,0.857-0.968,0.956-1.466
		c0.122-0.626-0.573-2.654-2.283-0.07c-0.968,1.466-0.962,1.02-2.173,3.147c-0.47,0.834-0.417,1.234-1.345,1.315
		c0.053-0.585,0.249-2.243,0.359-2.712c0.134-0.574,1.495-3.627,0.053-3.627c-1.467,0-1.548,4.815-3.895,8.78
		c-2.336,3.94-0.041,5.494,1.147,7.053c1.066,1.396,2.19,2.04,3.818,1.82c2.475-0.336,2.782-0.371,4.77-1.183
		c1.611-0.661,2.903-0.765,4.382-1.547c-0.365-4.347-6.752,0.973-5.558-2.04l1.437-1.872c1.061-0.956,4.121-3.286,4.121-4.671
		c0-1.101-0.47-1.536-1.351-0.974c-0.672,0.429-0.626,0.916-1.275,1.42l-3.101,2.005c0.359-0.539,0.632-0.689,1.072-1.176
		c0.707-0.794,2.811-3.587,2.811-4.549c0-0.626-0.19-1.229-0.816-1.229c-0.608,0-1.576,1.519-2.307,2.394
		c-0.788,0.939-1.738,1.536-2.394,2.515L95.848,32.952z"/>
	<path fill-rule="evenodd" clip-rule="evenodd" fill="#C92027" stroke="#000000" stroke-width="0.25" stroke-miterlimit="10" d="
		M32.471,101.44l0.539-0.759c0.174-0.365,0.203-0.481,0.382-0.847c0.759-1.564,1.739-2.48,1.849-3.024
		c0.122-0.626-0.58-2.654-2.283-0.07c-0.974,1.467-0.962,1.021-2.173,3.147c-0.469,0.834-0.417,1.234-1.344,1.315
		c0.307-3.651,1.901-6.34,0.411-6.34c-1.466,0-1.547,4.815-3.9,8.779c-1.061,1.791-1.391,3.46-0.267,5.401
		c0.487,0.835,2.115,2.469,2.932,3.002c1.936,1.264,5.337-0.006,7.07-0.713c1.617-0.661,2.903-0.765,4.387-1.548
		c-0.365-4.346-6.751,0.975-5.558-2.039c0.411-1.032,2.399-2.753,3.309-3.478c0.637-0.504,0.376-0.365,0.875-0.962
		c0.869-1.043,1.374-0.829,1.374-2.515c0-0.835-0.753-0.939-1.351-0.563c-1.025,0.649,0.076,0.504-2.034,1.884
		c-0.649,0.423-1.686,1.367-2.341,1.541c0.261-0.389,3.883-4.195,3.883-5.726c0-0.626-0.191-1.229-0.817-1.229
		c-0.62,0-0.893,0.66-1.2,1.055c-0.348,0.44-0.718,0.869-1.113,1.339c-0.782,0.938-1.732,1.535-2.388,2.515L32.471,101.44z"/>
	<path fill-rule="evenodd" clip-rule="evenodd" fill="#C92027" stroke="#000000" stroke-width="0.25" stroke-miterlimit="10" d="
		M64.368,66.072c0-0.069,0.122-0.168,0.139-0.139l1.669-3.025c0.313-0.417,0.858-0.968,0.956-1.466
		c0.128-0.626-0.574-2.654-2.283-0.07c-0.968,1.466-0.962,1.02-2.167,3.147c-0.475,0.834-0.417,1.234-1.35,1.315
		c0.307-3.651,1.907-6.34,0.411-6.34c-1.466,0-1.547,4.816-3.894,8.78c-2.335,3.941-0.041,5.494,1.147,7.053
		c1.072,1.396,2.19,2.04,3.825,1.82c2.475-0.336,2.782-0.371,4.764-1.182c1.617-0.661,2.903-0.765,4.381-1.547
		c-0.364-4.347-6.751,0.974-5.557-2.04c0.968-2.44,5.557-4.167,5.557-6.954c0-0.834-0.753-0.939-1.35-0.563
		c-1.026,0.649,0.075,0.504-2.034,1.884c-0.649,0.423-1.687,1.368-2.341,1.542l2.167-2.539c0.463-0.614,1.715-2.486,1.715-3.187
		c0-0.626-0.186-1.229-0.817-1.229c-0.603,0-1.57,1.519-2.307,2.394c-0.782,0.939-1.738,1.536-2.393,2.515L64.368,66.072z"/>
	<path fill-rule="evenodd" clip-rule="evenodd" fill="#C92027" stroke="#000000" stroke-width="0.25" stroke-miterlimit="10" d="
		M117.145,5.314c0,0.649,0.464,1.628,0.748,2.121c0.481,0.834,2.109,2.469,2.927,3.002c0.968,0.626,1.095,0.631,2.307,0.469
		c2.479-0.336,2.787-0.371,4.77-1.182c1.616-0.661,2.903-0.765,4.381-1.547c-0.365-4.346-6.752,0.974-5.558-2.04
		c0.174-0.435,0.411-0.643,0.689-0.985c1.379-1.658,2.429-2.075,3.32-3.222c0.69-0.881,1.003-0.898,1.548-1.93h-2.104
		c-0.44,0.052-0.847,0.186-1.293,0.493c-0.625,0.429-1.675,1.379-2.329,1.553c0.591-0.887,1.049-0.939,1.634-2.046h-8.994
		c-0.446,0.84-0.776,1.559-1.274,2.411C117.597,2.956,117.145,4.543,117.145,5.314L117.145,5.314z"/>
	<path fill-rule="evenodd" clip-rule="evenodd" fill="#D0C62A" stroke="#000000" stroke-width="0.25" stroke-miterlimit="10" d="
		M0,177.05c2.249-1.188,3.431-3.158,5.25-4.155l4.312-2.643c0.626-0.562,0.609-0.857,0.458-1.588c-2.075,0-3.193,2.208-6.137,2.458
		c0.093-1.084,1.495-1.779,2.979-3.768c0.563-0.753,0.887-1.124,1.466-1.813c1.304-1.536,0.267-3.205-1.495-0.881
		c-0.475,0.626-0.626,0.771-1.159,1.298c-0.544,0.551-0.748,0.649-1.321,1.136c-0.608,0.51-0.707,0.956-1.489,1.165
		c0.151-0.568,0.568-0.979,1.061-1.803l2.411-3.518c0.597-0.765,0.997-0.759,1.025-2.04c-1.338-0.313-1.82-0.33-3.976,2.567
		l-1.82,2.475c-0.469,0.684-0.174,0.476-0.747,0.678c0.156-1.859,3.065-6.073,3.065-6.536c0-0.853-0.904-0.91-1.466-0.476
		c-0.354,0.267-0.985,1.205-1.251,1.634c-0.927,1.479-1.13,1.501-1.165,2.516v2.046c0,3.518,0,7.029,0,10.541v0.18v0.174v0.174
		V177.05z"/>
	<path fill-rule="evenodd" clip-rule="evenodd" fill="#C92027" stroke="#000000" stroke-width="0.25" stroke-miterlimit="10" d="
		M0,135.545v3.68l4.039-3.935c0.846-0.87,1.072-0.783,1.072-2.197c0-0.794-0.695-0.897-1.217-0.643
		c-0.603,0.301-0.678,0.741-1.09,1.199L0,135.545z"/>
	<path fill-rule="evenodd" clip-rule="evenodd" fill="#C92027" stroke="#000000" stroke-width="0.25" stroke-miterlimit="10" d="
		M0,141.068v2.863c1.652-0.794,3.489-0.985,5.111-1.844C4.851,138.964,1.292,140.766,0,141.068L0,141.068z"/>
	<path fill-rule="evenodd" clip-rule="evenodd" fill="#C92027" stroke="#000000" stroke-width="0.25" stroke-miterlimit="10" d="
		M0,135.139c0.753-0.504,3.274-3.824,3.274-4.908c0-0.863-0.527-2.15-1.936-0.296c-0.412,0.545-0.684,0.661-1.032,1.217
		c-0.162,0.261-0.255,0.604-0.307,0.991V135.139z"/>
	<path fill-rule="evenodd" clip-rule="evenodd" fill="#871E1A" stroke="#000000" stroke-width="0.25" stroke-miterlimit="10" d="
		M0,129.617h0.203c0-0.174,0.082-0.632,0.082-0.649c0.011-0.313-0.082-0.197-0.082-0.782H0V129.617z"/>
</g>
</svg>
