<?xml version="1.0" encoding="utf-8"?>
<!-- Generator: Adobe Illustrator 15.0.0, SVG Export Plug-In . SVG Version: 6.00 Build 0)  -->
<svg version="1.2" baseProfile="tiny" id="Layer_1" xmlns="http://www.w3.org/2000/svg" xmlns:xlink="http://www.w3.org/1999/xlink"
	 x="0px" y="0px" width="480px" height="226px" viewBox="0 0 480 226" xml:space="preserve">
<g>
	<polygon fill="#BF7400" points="118.794,140.421 83.44,105.065 48.084,69.71 48.084,115.421 23.084,140.421 48.084,165.421 
		48.084,140.421 83.439,175.776 48.084,175.776 48.084,211.132 83.439,211.132 118.795,211.132 118.794,211.131 	"/>
	<polygon fill="#BF7400" points="48.084,69.709 48.084,34.354 12.729,34.354 12.729,69.709 30.406,69.709 	"/>
	<polygon fill="#BF7400" points="98.084,34.354 123.084,9.354 73.084,9.354 48.084,34.354 85.584,34.354 	"/>
</g>
<polygon fill="#BF7400" stroke="#000000" stroke-miterlimit="10" points="175.578,135.244 246.288,135.244 246.288,205.955 
	210.933,170.599 228.611,152.921 210.933,170.599 "/>
<polygon fill="#BF7400" stroke="#000000" stroke-miterlimit="10" points="246.288,135.244 175.578,135.244 175.578,64.533 
	210.934,99.888 193.255,117.566 210.934,99.888 "/>
<polygon fill="#BF7400" stroke="#000000" stroke-miterlimit="10" points="175.578,205.955 210.933,205.955 210.933,188.277 
	210.933,205.955 246.289,205.955 210.933,170.599 "/>
<polygon fill="#BF7400" stroke="#000000" stroke-miterlimit="10" points="150.578,135.244 175.578,160.244 175.578,135.243 
	163.078,135.243 175.578,135.243 175.578,110.244 "/>
<polygon fill="#BF7400" stroke="#000000" stroke-miterlimit="10" points="175.578,170.599 175.578,205.955 193.256,188.276 
	184.417,179.437 193.256,188.276 210.933,170.599 "/>
<polygon fill="#BF7400" stroke="#000000" stroke-miterlimit="10" points="175.578,29.177 175.578,64.532 157.9,64.532 157.9,46.854 
	157.9,64.532 140.222,64.532 140.222,29.177 "/>
<polygon fill="#BF7400" stroke="#000000" stroke-miterlimit="10" points="200.578,4.177 250.578,4.177 225.578,29.177 
	213.078,29.177 213.078,16.677 213.078,29.177 175.578,29.177 "/>
</svg>
