<?xml version="1.0" encoding="utf-8"?>
<!-- Generator: Adobe Illustrator 15.0.0, SVG Export Plug-In . SVG Version: 6.00 Build 0)  -->
<svg version="1.2" baseProfile="tiny" id="Layer_1" xmlns="http://www.w3.org/2000/svg" xmlns:xlink="http://www.w3.org/1999/xlink"
	 x="0px" y="0px" width="240.094px" height="300px" viewBox="0 0 240.094 300" xml:space="preserve">
<polygon fill="#BF7400" points="96.617,170.4 167.327,170.4 167.327,241.111 131.972,205.755 149.65,188.078 131.972,205.755 "/>
<polygon fill="#BF7400" points="167.327,170.4 96.617,170.4 96.617,99.688 131.973,135.044 114.294,152.722 131.973,135.044 "/>
<polygon fill="#BF7400" points="96.616,241.111 131.972,241.111 131.972,223.433 131.972,241.111 167.327,241.111 131.972,205.755 
	"/>
<polygon fill="#BF7400" points="71.617,168.753 96.617,193.753 96.617,168.751 84.117,168.751 96.617,168.751 96.617,143.753 "/>
<polygon fill="#BF7400" points="96.616,205.755 96.616,241.111 114.295,223.432 105.456,214.593 114.295,223.432 131.972,205.755 
	"/>
<polygon fill="#BF7400" points="96.617,64.333 96.617,99.688 78.939,99.688 78.939,82.011 78.939,99.688 61.261,99.688 
	61.261,64.333 "/>
<polygon fill="#BF7400" points="121.617,39.333 171.617,39.333 146.617,64.333 134.117,64.333 134.117,51.833 134.117,64.333 
	96.617,64.333 "/>
</svg>
