<?xml version="1.0" encoding="utf-8"?>
<!-- Generator: Adobe Illustrator 15.0.0, SVG Export Plug-In . SVG Version: 6.00 Build 0)  -->
<!DOCTYPE svg PUBLIC "-//W3C//DTD SVG 1.1//EN" "http://www.w3.org/Graphics/SVG/1.1/DTD/svg11.dtd">
<svg version="1.1" id="Layer_1" xmlns="http://www.w3.org/2000/svg" xmlns:xlink="http://www.w3.org/1999/xlink" x="0px" y="0px"
	 width="633px" height="382px" viewBox="0 0 633 382" enable-background="new 0 0 633 382" xml:space="preserve">
<g>
	
		<path fill="#FFFFFF" stroke="#231F20" stroke-width="5" stroke-linecap="round" stroke-linejoin="round" stroke-miterlimit="10" d="
		M185.022,288.932c0,18.33,0.873,36.223,3.055,50.625H153.6l-3.491-26.621H148.8c-11.347,16.584-34.477,31.422-64.59,31.422
		c-42.769,0-64.59-30.113-64.59-60.662c0-51.062,45.388-78.991,126.998-78.555v-4.365c0-17.457-4.801-49.314-48.006-48.878
		c-20.075,0-40.587,5.673-55.425,15.711l-8.729-25.749c17.457-10.91,43.205-18.33,69.827-18.33
		c65.026,0,80.737,44.078,80.737,86.411V288.932L185.022,288.932z M147.49,231.761c-41.896-0.872-89.465,6.546-89.465,47.569
		c0,25.313,16.584,36.659,35.786,36.659c27.931,0,45.824-17.457,51.934-35.351c1.309-3.928,1.746-8.291,1.746-12.22L147.49,231.761
		L147.49,231.761z"/>
	
		<path fill="#FFFFFF" stroke="#231F20" stroke-width="5" stroke-linecap="round" stroke-linejoin="round" stroke-miterlimit="10" d="
		M428.975,29.7v255.304c0,18.766,0.438,40.15,1.745,54.553h-34.477l-1.746-36.66h-0.872c-11.783,23.566-37.096,41.461-71.573,41.461
		c-51.061,0-90.774-43.205-90.774-107.358c-0.437-70.7,43.642-113.469,94.703-113.469c32.73,0,54.552,15.275,63.717,31.858h0.872
		V29.7H428.975z M390.569,214.305c0-5.238-0.437-11.348-1.745-16.585c-5.674-24.003-26.621-44.078-55.425-44.078
		c-39.714,0-63.281,34.914-63.281,81.172c0,43.205,21.384,78.557,62.408,78.557c25.749,0,49.314-17.457,56.298-45.824
		c1.31-5.236,1.745-10.474,1.745-16.584V214.305z"/>
	
		<path fill="#FFFFFF" stroke="#231F20" stroke-width="5" stroke-linecap="round" stroke-linejoin="round" stroke-miterlimit="10" d="
		M487.449,300.715c11.783,6.982,31.857,14.838,51.062,14.838c27.494,0,40.586-13.529,40.586-31.422
		c0-18.33-10.909-28.367-38.841-38.841c-38.404-13.966-56.298-34.478-56.298-59.79c0-34.041,27.931-61.971,72.882-61.971
		c21.385,0,40.15,5.673,51.497,13.093l-9.165,27.494c-8.292-4.801-23.565-12.22-43.205-12.22c-22.692,0-34.913,13.093-34.913,28.804
		c0,17.893,12.22,25.749,39.714,36.222c36.224,13.529,55.426,31.859,55.426,63.717c0,37.531-29.24,63.717-78.556,63.717
		c-23.13,0-44.515-6.109-59.353-14.838L487.449,300.715z"/>
</g>
<text transform="matrix(1 0 0 1 4.3457 339.5557)" display="none" fill="#FFFFFF" enable-background="new    " font-family="'ArialMT'" font-size="436.4116">ads</text>
<linearGradient id="SVGID_1_" gradientUnits="userSpaceOnUse" x1="321.167" y1="809.084" x2="321.167" y2="466.4101" gradientTransform="matrix(1 0 0 1 -6 -450)">
	<stop  offset="0" style="stop-color:#D60000"/>
	<stop  offset="1" style="stop-color:#DE0000"/>
</linearGradient>
<path opacity="0.77" fill="url(#SVGID_1_)" stroke="#000000" stroke-width="0.25" stroke-linecap="round" enable-background="new    " d="
	M315.167,19.917c-93.66,0-169.583,75.924-169.583,169.583c0,93.654,75.924,169.584,169.583,169.584
	c93.656,0,169.583-75.93,169.583-169.584C484.75,95.84,408.822,19.917,315.167,19.917z M196.584,191.248
	c0-23.95,7.154-46.203,19.371-64.847l164.062,164.063c-18.644,12.21-40.899,19.367-64.843,19.367
	C249.674,309.831,196.584,256.74,196.584,191.248z M415.699,253.92L252.495,90.715c18.196-11.371,39.63-18.05,62.672-18.05
	c65.493,0,118.583,53.091,118.583,118.583C433.75,214.29,427.07,235.721,415.699,253.92z"/>
</svg>
