<?xml version="1.0" encoding="utf-8"?>
<!-- Generator: Adobe Illustrator 15.0.0, SVG Export Plug-In . SVG Version: 6.00 Build 0)  -->
<!DOCTYPE svg PUBLIC "-//W3C//DTD SVG 1.1//EN" "http://www.w3.org/Graphics/SVG/1.1/DTD/svg11.dtd">
<svg version="1.1" id="Layer_1" xmlns="http://www.w3.org/2000/svg" xmlns:xlink="http://www.w3.org/1999/xlink" x="0px" y="0px"
	 width="254.25px" height="250.75px" viewBox="0 0 254.25 250.75" enable-background="new 0 0 254.25 250.75" xml:space="preserve">
<polygon fill="#00CC00" points="161.105,188.896 111.105,138.896 161.105,88.896 161.105,138.896 136.105,138.896 161.105,138.896 
	"/>
<polygon fill="#00CC00" points="181.816,209.605 111.105,209.605 111.105,138.896 146.461,174.251 128.783,191.929 146.461,174.251 
	"/>
<polygon fill="#333333" points="186.105,63.896 161.105,38.896 161.105,63.897 173.605,63.897 161.105,63.897 161.105,88.896 "/>
<polygon fill="#333333" points="186.105,63.895 211.105,88.895 211.105,63.894 198.605,63.894 211.105,63.894 211.105,38.895 "/>
<polygon fill="#CC33CC" points="75.75,209.604 40.395,174.249 75.75,174.249 84.589,183.088 75.75,191.927 84.589,183.088 
	111.105,209.604 "/>
<polygon fill="#0000CC" points="161.105,159.606 161.105,124.251 178.783,124.251 161.105,124.251 161.105,88.896 196.461,124.251 
	"/>
<polygon fill="#CCCCCC" points="211.105,88.896 198.605,101.396 186.105,88.896 198.605,101.396 186.105,113.896 161.105,88.896 
	186.105,63.896 "/>
</svg>
