<?xml version="1.0" encoding="utf-8"?>
<!-- Generator: Adobe Illustrator 15.0.0, SVG Export Plug-In . SVG Version: 6.00 Build 0)  -->
<!DOCTYPE svg PUBLIC "-//W3C//DTD SVG 1.1//EN" "http://www.w3.org/Graphics/SVG/1.1/DTD/svg11.dtd">
<svg version="1.1" id="Layer_1" xmlns="http://www.w3.org/2000/svg" xmlns:xlink="http://www.w3.org/1999/xlink" x="0px" y="0px"
	 width="254.25px" height="250.75px" viewBox="0 0 254.25 250.75" enable-background="new 0 0 254.25 250.75" xml:space="preserve">
<polygon fill="#00CC00" points="175.869,150.377 105.158,150.377 105.158,79.666 140.514,115.021 122.836,132.699 140.514,115.021 
	"/>
<polygon fill="#00CC00" points="105.158,150.377 175.869,150.377 175.869,221.086 140.514,185.731 158.191,168.053 140.514,185.731 
	"/>
<polygon fill="#333333" points="80.159,150.377 105.159,175.377 105.159,150.375 92.659,150.375 105.159,150.375 105.159,125.376 
	"/>
<polygon fill="#333333" points="105.159,185.731 105.159,221.087 122.838,203.409 113.999,194.57 122.838,203.409 140.515,185.731 
	"/>
<polygon fill="#CC33CC" points="155.158,44.31 105.159,44.311 130.158,19.311 142.658,19.311 142.658,31.811 142.658,19.311 
	180.158,19.31 "/>
<polygon fill="#0000CC" points="175.868,221.087 140.514,221.087 140.514,203.409 140.514,221.087 105.159,221.087 140.514,185.731 
	"/>
<polygon fill="#CCCCCC" points="105.159,79.666 87.481,79.666 87.481,61.988 87.481,79.666 69.804,79.666 69.804,44.311 
	105.159,44.311 "/>
</svg>
