<?xml version="1.0" encoding="utf-8"?>
<!-- Generator: Adobe Illustrator 15.0.0, SVG Export Plug-In  -->
<!DOCTYPE svg PUBLIC "-//W3C//DTD SVG 1.1//EN" "http://www.w3.org/Graphics/SVG/1.1/DTD/svg11.dtd" [
	<!ENTITY ns_flows "http://ns.adobe.com/Flows/1.0/">
]>
<svg version="1.1"
	 xmlns="http://www.w3.org/2000/svg" xmlns:xlink="http://www.w3.org/1999/xlink" xmlns:a="http://ns.adobe.com/AdobeSVGViewerExtensions/3.0/"
	 x="0px" y="0px" width="126px" height="82px" viewBox="2.63 0 126 82" enable-background="new 2.63 0 126 82" xml:space="preserve"
	>
<defs>
</defs>
<path fill-rule="evenodd" clip-rule="evenodd" fill="#2F3030" d="M71.158,77.438l1.458-0.172
	C72.159,77.952,71.673,78.296,71.158,77.438L71.158,77.438z M45.839,70.922l0.2,2.858c-1.372,0.057-2.344,0.771-2.344-0.943
	C43.695,71.551,44.438,70.894,45.839,70.922L45.839,70.922z M93.906,72.38c0.687-0.543,1.458-1.086,2.344-0.829l0.086,1.029
	l-0.629,0.629l-1.429,0.085L93.906,72.38z M48.468,71.208c0.344,0.457,0.657,0.629,1.314,0.915c1,0.457,0.801-0.144,0.715,0.514
	c-1.258,0.229-2.058,0.2-3.086-0.143C47.896,72.065,48.097,71.865,48.468,71.208L48.468,71.208z M108.396,71.294v-2.43
	C109.453,68.979,109.51,71.151,108.396,71.294L108.396,71.294z M21.833,69.607l1.229-0.143c0.229,1.058,0.314,0.857,0.314,2.144
	c-0.829-0.058-1.315-0.258-1.829-0.571C21.548,70.408,21.634,70.008,21.833,69.607L21.833,69.607z M45.353,68.922l1.629,0.114
	l-0.057,0.972C45.839,70.465,45.382,70.322,45.353,68.922L45.353,68.922z M26.491,68.293l0.144,0.515
	c0.743,0.343,0.229-0.457,0.714,0.629c-0.285,1.028-0.257,0.914-1.429,1.086c-0.343-0.543-0.543-0.657-0.628-1.314
	c-0.058-0.515,0.113-1.144,0.485-1.344C27.235,67.722,25.892,67.75,26.491,68.293L26.491,68.293z M87.162,70.979
	c-0.172-1.458,0-0.771,0.914-2.229c0.829-1.286,1.029-0.229,1.601-1.543c0.629,1.543,1,0.086,1.086,1.515l-1.6,0.229
	C88.705,70.036,88.648,71.065,87.162,70.979L87.162,70.979z M13.86,67.808l-0.086-0.657l0.801,0.057
	C14.46,67.836,14.546,67.95,13.86,67.808L13.86,67.808z M39.837,66.778c-0.027-0.086-0.171-1.143,0.144-1.771
	c0.628-0.058,0.8,0.143,1.229,0.399l0.028,1.286C40.552,66.95,40.523,67.064,39.837,66.778L39.837,66.778z M45.096,68.293
	c-0.399-0.914-0.343-1.286-0.171-2.486c1.4,0,1.343,0.829,0.857,1.887C45.496,68.265,45.468,68.093,45.096,68.293L45.096,68.293z
	 M30.664,65.321l0.429-0.601c0.943,0.457,0.285,0.028,0.857,0.686c0.943,1.086,1.2,0.915,0.343,2.058
	C30.808,66.578,31.265,66.492,30.664,65.321L30.664,65.321z M28.435,64.863l0.973-0.257l0.371,0.972
	c0.343,1.229-0.801-0.771,0.114,0.343l-1.486,0.058L28.435,64.863z M24.005,66.636l-0.229-1.058
	c0.601-0.743,1.687-1.743,1.915-0.257C25.862,66.407,24.691,66.492,24.005,66.636L24.005,66.636z M18.919,65.721
	c-0.943,0.229-0.515,0.286-1.43-0.085C17.318,64.178,19.262,63.092,18.919,65.721L18.919,65.721z M84.133,65.778v-0.886
	c0.771,0.085,0.657,0,0.886,0.657C84.562,65.807,84.818,65.721,84.133,65.778L84.133,65.778z M99.993,64.378
	c0.515-0.601,0.887-0.8,1.772-1c0.085,0.114,0.399,0.457,0.457,0.8c0.2,1-0.372,1.458-1.4,1.2
	C100.022,65.178,100.279,64.921,99.993,64.378L99.993,64.378z M60.385,63.264C62.242,65.406,58.87,65.692,60.385,63.264
	L60.385,63.264z M75.617,62.663c0.914-0.4,1.972-0.2,2.715,0.2c1.343,0.743,0.914,1.657,0.686,2.229c0,0-2.857-0.171-2.915-0.171
	C74.96,64.721,75.303,63.406,75.617,62.663L75.617,62.663z M38.181,64.32c-0.172-0.429-0.314-0.8-0.058-1.343
	C38.638,63.292,38.78,63.777,38.181,64.32L38.181,64.32z M41.609,63.006l1.028-0.257c0.314,0.8,0.372,0.6-0.143,1.314
	C41.638,63.892,41.694,63.921,41.609,63.006L41.609,63.006z M111.539,62.435c0.743-0.857,1.343-0.686,2.172-0.314
	c0,0-0.143,1.086-1.543,0.715C111.425,62.635,111.968,62.806,111.539,62.435L111.539,62.435z M18.147,60.806
	c1.6,0.057,1.742,0.8,1.086,2.086c-0.601-0.314-0.4-0.2-0.715-0.886C18.09,61.12,18.233,61.691,18.147,60.806L18.147,60.806z
	 M41.267,62.12c-1.658,0.743-1.601-0.229-1.344-1.857c1.029-0.515,2.858-0.571,3.916,0c0,0.8,0.028,0.657-0.372,1.172
	c-1-0.601,0.144-0.687-1.629-0.857C41.638,61.034,41.495,61.663,41.267,62.12L41.267,62.12z M33.607,60.263
	c0.687-0.629,0.972-0.771,1.286,0.229C33.836,61.52,33.922,60.605,33.607,60.263L33.607,60.263z M23.52,60.263l0.171-0.4
	c0.772-1.343,1.486-1.343,3.23-0.485c0.285,0.143,0.771,0.485,0.828,0.886c0.2,1.172,0.029,0.229-0.114,0.629
	c-0.743,0.314-2.629,0.314-3.315-0.029L23.52,60.263z M77.331,60.977l0.172-2.257c0.028-0.058,0.143-0.229,0.2-0.258
	c0.457-0.457-0.314-0.371,1.114-0.429l0.286,1.972C78.132,61.063,78.188,60.92,77.331,60.977L77.331,60.977z M82.361,60.806
	c-0.028-1.829,0.942-2.286,1.972-3.001l2.4,0.343c0.429,0.886,0.286,0.629,0.943,1.314c-1.543,0.2-1.086,0.715-2.372,0.857
	C83.133,60.577,84.619,60.834,82.361,60.806L82.361,60.806z M56.983,59.263c-1.285-0.2-1.371,0.343-1-1.458
	C57.47,57.776,57.384,58.091,56.983,59.263L56.983,59.263z M70.559,59.348c-0.771-0.429-0.715-0.229-0.8-1.343
	c1.028,0,0.771,0.028,1.571,0.257C71.016,59.033,71.302,58.948,70.559,59.348L70.559,59.348z M31.436,57.662
	c1.571-0.144,2.515-0.486,2.458,1.058c-0.486,0.313-1.029,0.399-1.744,0.514C31.692,58.72,31.436,58.548,31.436,57.662
	L31.436,57.662z M76.589,56.004c0.571,0.286,0.914,0.029,0.771,1.858l-1.286,0.028C75.76,55.775,76.417,56.176,76.589,56.004
	L76.589,56.004z M96.136,56.176l0.057,1.543c-1.028,0.286-1.715,0.2-2.457-0.086c0.085-1.086,0.028-0.771,0.857-1.2
	C95.393,56.033,95.05,55.976,96.136,56.176L96.136,56.176z M101.851,57.719c0.086-0.857,0.314-1.485,0.543-2.2
	c1.001,0.057,0.772,0.143,1.63,0.286C104.138,57.633,103.68,57.833,101.851,57.719L101.851,57.719z M84.333,57.119
	c-0.086-2.115,0.371-0.314,1.4-1.887l0.515,0.657l1.972,0.172C87.791,58.062,86.162,56.376,84.333,57.119L84.333,57.119z
	 M39.81,56.376c-0.572,0.457-0.43,0.429-1.4,0.429c0.229-0.857-0.372-0.629,0.485-1.029C40.209,55.176,39.552,55.861,39.81,56.376
	L39.81,56.376z M26.72,57.548l-1.6,0.285c-0.344-0.6-0.657-0.828-0.743-1.686c0.2-0.2,0.086-0.114,0.372-0.314
	c0.027-0.028,0.229-0.143,0.285-0.2l0.258-0.229c0.285-0.258,1.257-1.229,1.771-0.2C27.378,55.861,26.72,55.461,26.72,57.548
	L26.72,57.548z M80.418,54.633c0.629,0.343,1.028,0.314,0.543,1.229C79.989,55.719,79.932,55.604,80.418,54.633L80.418,54.633z
	 M68.272,54.433c0.257,0.171,0.657,0.485,0.686,0.8c0.086,0.572-0.429,0.601-0.629,0.743L68.272,54.433z M44.067,55.404
	c0.257-0.543-0.344-0.429,0.371-0.457c0.771-0.029,0.258,0,0.486,0.457C43.753,56.09,44.267,55.49,44.067,55.404L44.067,55.404z
	 M34.579,54.747c1.515-0.715,1.658,0.485,1.229,1c-0.485,0.286,0.629,0.229-0.6,0.257c-0.457,0-0.515-0.114-0.829-0.229
	c-0.028-0.543-0.085-0.2,0.028-0.6c0-0.058,0.029-0.172,0.058-0.229C34.465,54.89,34.522,54.804,34.579,54.747L34.579,54.747z
	 M74.646,55.204c-0.943,0.771-1.258,2.486-2.229,1.515c-0.343-0.371-0.286-1.2,0.172-1.457
	C72.931,55.062,74.188,55.176,74.646,55.204L74.646,55.204z M48.64,54.061v1.915c-1.771,0.086-1.771,0.144-3.059-0.515
	C46.124,54.947,47.896,54.232,48.64,54.061L48.64,54.061z M64.986,56.29c-0.943-0.028-0.314,0.143-0.857-0.286l-0.687-0.6
	l1.372-1.629c0.743-0.715,0-0.601,0.914-0.571l0.172,1.485C64.672,55.719,65.529,55.232,64.986,56.29L64.986,56.29z M27.778,55.118
	c-0.372-0.942-0.144-1.371-0.115-2.4c1.201-0.028,1.201-0.143,2.059,0.2c0.285,0.743,0.199,0.715,0.143,1.743
	c-0.258,0.172-0.4,0.286-0.829,0.429C27.721,55.519,27.892,55.146,27.778,55.118L27.778,55.118z M78.303,53.232
	c1.172,0.229,0.972,1.2,0.629,1.371c-0.8,0.344-0.914-0.229-0.914-0.657C78.046,52.718,78.046,53.575,78.303,53.232L78.303,53.232z
	 M14.661,54.918c0-0.6-0.058-2.143,1-2.457l0.914,0.085l0.258,1.43c-0.115,0.628-0.258,0.828-0.915,0.942
	C15.575,54.947,15.003,54.918,14.661,54.918L14.661,54.918z M3.43,54.519c-0.086-0.486-0.2-0.572,0.028-1.115
	c0.258-0.657,0.285-0.485,0.801-0.6C4.687,53.547,4.744,54.918,3.43,54.519L3.43,54.519z M86.905,53.232
	c0.314-0.572-0.2-0.715,1-0.543c0.829,0.114,0.886,0.457,1.086,0.8c-0.172,0.144,0.114,0.429-1.029,0.429
	C86.419,53.918,87.104,53.461,86.905,53.232L86.905,53.232z M19.633,52.86l-0.743,1.973c-0.485-0.687-1.199-2.087,0.115-2.173
	C20.319,52.575,19.09,52.604,19.633,52.86L19.633,52.86z M106.395,53.461c-1.2-0.143-1.114-1.058-0.8-2.43
	c1.286-0.085,1.857-0.199,2.058,1.001c0.114,0.6,0.143,1.657-0.571,1.771C105.623,54.061,106.48,53.547,106.395,53.461
	L106.395,53.461z M99.564,51.546c0.715,0.4,0.543,0.058,0.743,0.972l-0.714,0.543C99.165,52.261,99.165,52.289,99.564,51.546
	L99.564,51.546z M39.666,53.832l-0.058-0.114c-0.285,0.657,0.515,0.458-0.514,0.572c-0.658-0.144-1.915-2.887,0.229-2.601
	c0.972,0.143,0.629,0.628,1.314,0.942c1.2,0.457,1.286-0.257,1.258,1.458L39.666,53.832z M36.579,51.604l0.058,0.914
	c-0.485,0.286,0.058,0.258-0.657,0.258c-0.229,0-0.457-0.115-0.801-0.258C35.665,51.689,35.694,51.804,36.579,51.604L36.579,51.604z
	 M27.577,52.261c0,0,0.286,1.257-2.114,0.343c0.171-0.715-0.028-0.8,0.8-0.943c0.029,0,0.715,0.029,0.743,0.029
	C27.663,51.918,27.292,51.689,27.577,52.261L27.577,52.261z M101.451,51.546c0.143-0.314-0.4-0.629,0.8-0.629
	c1.344-0.028,0.629,0.2,0.771,0.629c-0.343,0.286,0.715,0.372-0.771,0.343C100.822,51.86,101.88,51.86,101.451,51.546
	L101.451,51.546z M96.05,51.289c0.257-0.429-0.086-0.771,1.114-0.687c1.4,0.086,0.743-0.028,0.972,0.943
	c-0.171,0.144,0.515,0.743-1.229,0.457C95.535,51.804,96.336,51.632,96.05,51.289L96.05,51.289z M90.306,50.26
	c2.486,0.458,2.2,2.144,0.829,1.572C90.105,51.432,90.277,51.432,90.306,50.26L90.306,50.26z M65.357,51.203
	c0.515-0.257,1.028-0.429,1.801-0.371c-0.029,0.714-0.172,0.914-0.486,1.314C65.843,52.061,65.814,51.66,65.357,51.203
	L65.357,51.203z M2.486,51.289c0.2-0.314-0.114-0.715,1.772-0.457c0.771,0.114,0.257-0.029,0.686,0.229
	c-0.143,0.514-0.086,0.657-0.943,0.771C3.029,51.975,2.858,51.889,2.486,51.289L2.486,51.289z M31.063,50.574
	c0.029-0.943,0.543-1.629,1.287-2.2c0.457,0.857,0.399,0.886,0.457,2.229l0.943,0.372c0,0.914,0.027,1.4-0.943,1.515
	c-0.2-0.286-0.115,0.028-0.2-0.515C32.293,50.117,32.437,51.317,31.063,50.574L31.063,50.574z M44.61,50.746
	c-1.144,0.114-2.43,0.171-3.287-0.2c0.115-1.144,0.4-0.943,1.658-0.915C44.181,49.66,44.696,49.432,44.61,50.746L44.61,50.746z
	 M28.55,51.175l-2.858-0.172c-0.028-0.143-0.058-0.314-0.085-0.285l-0.086-0.4c-0.229-2.4,2.657-0.687,2.657-0.687
	C28.807,50.146,28.578,50.317,28.55,51.175L28.55,51.175z M94.964,49.117c1.515-0.915,1.2-0.029,1.314,0.485
	c0,0,0.2,0.543-0.8,0.314C94.735,49.746,95.164,49.574,94.964,49.117L94.964,49.117z M77.846,50.774
	c-0.6-1.172-0.886-2.114,0.686-2.629c0.4,0.457,0.515,0.743,0.943,1.229C78.761,50.46,79.274,50.774,77.846,50.774L77.846,50.774z
	 M59.47,50.146c-0.085,1.801,0.172,1.2,0.458,2.372l-1.571-0.028c-0.286-1.887-0.943-1.572-1.172-2.858
	c-0.058-0.428-0.058-1.143-0.058-1.571c1.001,0.429,0.915,0.657,1.086,0.743c1.314,0.057,2.001-0.286,2.743-0.028
	C60.87,50.117,60.785,49.803,59.47,50.146L59.47,50.146z M13.917,48.374c0.372,0.314,0.943,0.657,1.201,1
	C13.86,50.46,13.518,49.86,13.917,48.374L13.917,48.374z M109.31,49.088c-0.143-1.114-0.229-1.343,0.172-2.172
	c0.629,0.2,1.457,0.772,1.715,1.486C110.624,48.859,110.225,49.088,109.31,49.088L109.31,49.088z M15.804,46.459
	c1.972,0.172,2.515,1.801,2.058,2.258c-0.058,0.028-0.144,0-0.171,0.086c-0.029,0.086-0.144,0.057-0.172,0.086
	c-0.914,0.114-0.943-0.058-1.857-0.286L15.804,46.459z M55.556,47.431c-0.973-0.114-1.058-0.257-2.344-0.314
	c-0.371-0.972-0.543-1.543,0.886-1.629C55.813,45.401,55.526,45.916,55.556,47.431L55.556,47.431z M73.131,47.288v-1.344h1.571
	c-0.114,0.829,0.229,0.372-0.371,0.915C73.902,47.23,73.702,47.174,73.131,47.288L73.131,47.288z M20.948,45.487
	c0.314-0.2-0.314-0.057,0.656-0.371c0.43-0.114,0.286-0.286,0.744-0.058c0.514,0.286,0.313,1.229,0.285,1.857
	C20.747,46.802,20.919,46.174,20.948,45.487L20.948,45.487z M105.623,44.973c0.657,0.114,0.857-0.171,0.771,0.743
	c-0.057,0.715-0.229,0.486-0.771,0.743C104.938,44.916,105.595,45.03,105.623,44.973L105.623,44.973z M14.175,44.802
	c0.828-0.687,0.172-0.571,1.286-0.801c0.371,0.687,0.457,0.857,0.399,1.973c-1.343,0.114-2.914,0.085-3.857-0.486
	C12.231,44.858,11.488,44.916,14.175,44.802L14.175,44.802z M90.334,46.03c-0.028-0.6-0.343-1.515,1.601-1.829v1.4
	C91.363,45.83,91.021,45.944,90.334,46.03L90.334,46.03z M75.931,45.23c0.029,0.057-0.057,0.4-0.057,0.485
	c-0.886-0.257-1,0.286-0.601-1.058C75.96,44.973,75.617,44.63,75.931,45.23L75.931,45.23z M17.318,43.544
	c2.886-0.114,0.942,2.829,0.085,1.4C17.232,44.63,17.318,43.916,17.318,43.544L17.318,43.544z M88.705,45.287
	c-0.314-0.285-0.114,0.4-0.457-0.571c-0.4-1.086-0.114-1.543,0.457-1.915C89.306,43.516,89.163,44.63,88.705,45.287L88.705,45.287z
	 M55.099,44.087h0.942c-0.257,0.657-0.229,0.657-0.915,0.857L55.099,44.087z M96.107,42.973c2-1.029,0.485-0.601,1.972-1.029
	c-0.029,0.458-0.029,1.201-0.086,1.629c-0.172,0.887-0.343,0.801-0.571,1.058c-0.801,0-1.144,0-1.286-0.828
	C96.078,43.516,96.107,43.229,96.107,42.973L96.107,42.973z M80.246,44.287c0.486,0.429,0.743,0.429,0.657,1.372
	c-1.686,0.143-1.543,0.057-1.715-1.515c-1.114-0.372-1.371-0.058-1.886-0.829c0.515-0.771-0.086-0.371,1.172-0.571
	c0.515-0.086,0.914-0.144,1.486-0.114C80.275,43.458,80.246,43.201,80.246,44.287L80.246,44.287z M51.926,43.83
	c-0.399-0.2-0.743-0.486-0.942-0.715c0,0,1.686-1.543,2.114,0.429C52.44,44.201,52.697,44.173,51.926,43.83L51.926,43.83z
	 M24.72,41.772c0.771,0,0.914,0.086,1.344,0.543c1.686,1.829-0.973,1.058-1.486,1L24.72,41.772z M37.723,41.572
	c-0.628-1.114-0.028-0.286,0.028-0.686l0.829,0.028c0.086,0.286,0.2-0.372,0.086,0.686l-0.286,0.429
	C37.638,41.744,38.208,42.458,37.723,41.572L37.723,41.572z M122.827,37.285c-0.571-0.742-0.629-0.828-0.229-1.686
	c1.229,0.172,1.257,0.571,1.429,0.686C123.599,36.971,123.627,37.057,122.827,37.285L122.827,37.285z M5.229,16.451
	c0.344-1.199,0.715-1.657,1.601-2.2c1.2-0.743,1.144-1.114,2.515-1.399c1.144-0.658,1.943-1.4,3.145-1.572
	c0.257-0.829,0.914-1.029,1.857-1.172c0.285-0.143,0.257-0.143,0.514-0.172c0.601-0.686,0.371-0.371,1.258-0.6
	c1.743-0.457,0.314-0.801,3.744-1.172l0.399,0.057c0.458-0.629-0.457-0.086,0.714-0.629c0.229-0.113,0.486-0.171,0.715-0.229
	c0.601-0.113,1.344-0.113,1.887-0.371c0.485-0.2,0.828-0.543,1.343-0.657c0.657-0.114,1.314-0.086,2.058-0.257
	c1.457-0.372,1.715-0.601,3.572-0.801c1.344-0.143,2.058-0.6,3.314-0.8c2.43-0.372,4.973-0.972,7.402-1.114
	c1.4-0.058,2.344-0.286,3.887-0.258c1.429,0,2.229-0.371,3.743-0.514c7.431-0.629,14.146-0.115,21.176-0.458
	c2.115-0.085,6.688,0.629,7.974,0.715c1.314,0.058,2.314-0.086,3.486,0.628c1.687-0.143,3.687,0.172,5.115,0.572l9.603,1.486
	c1.657,0.886,2.114,0.686,4.315,1.086c1.114,0.199,1.171,0.543,2.4,0.742l4.801,1.086c0.2,0.058,1.372,1.001,1.629,1.229
	c0.829,0.171,1.343,0.485,2.286,0.743c0.972,0.285,1.058,0.429,1.801,0.914c0.942,0.286,2.144,0.829,2.657,1.372
	c1.314,1.343,1.258,0.314,2.087,1.8h-0.258c2.458,0.857,6.173,5.859,3.687,9.717l-0.543,0.801c-0.285,1.086,0.114,0.2-0.4,0.886
	c-0.742,1.001-2.8,2.801-3.915,3.115c-0.285,0.114-0.8,0.543-1.485,0.857c-0.2,0.229-0.114,0.229-0.372,0.457
	c-0.771,0.714,0.543-0.314-0.285,0.229c-0.486,0.343-0.258,0.172-0.801,0.286c-1.143,0.199-1.371,0.914-2.915,0.828
	c-0.285,0.43,0.657,0.058-0.6,0.658c-0.515,0.229-0.229,0.199-1,0.171l0.114-0.171l-1.943,1c-1.314,0.6-0.372,0.4-2.344,0.6v0.115
	c-0.4,0.686-0.143,0.714-2.458,1.143l-1.857,0.543c-0.657,0.143-0.343,0.029-0.743-0.028c-2.172,0.171-3.829,0.886-5.829,1.144
	c0,0.027,0,0.828,0,0.885c-0.086,0.543-0.344,0.829-0.771,0.572c-0.857-0.486,0.257-0.143-0.515-0.515
	c-0.687-0.314-4.059,0.286-5.688,0.2c-1.6-0.172-2.486,0.371-4.029,0.6c-1.4,0.229-3.115,0.029-4.43,0.201
	c-0.514,0.714,0.887,0.285-1.028,0.57l-3.372,0.172c-5.573,0.486-8.545,0.429-14.289,0.229c-1.571-0.057-3.401,0.286-4.858,0.115
	c-1.457-0.201-3.258-0.458-4.715-0.058c-2.372,0.657-1.458-0.372-3.373-0.8c-1.514-0.344-3.314-0.115-4.486-0.229l-4.172-0.715
	c-0.771-0.086-1.286,0.028-2.314-0.115c-3.315-0.457-1.744-0.371-3.916-0.914c-1.086-0.257-1.258-0.285-2.429-0.257
	c-0.886,0-1.114,0.028-1.829-0.372c-0.343-0.229-0.172-0.199-0.743-0.428c0-0.029-8.773-2.172-12.06-3.658
	c-0.629-0.286-1.258-0.115-2-0.4c-0.543-0.2-0.744-0.572-1.516-0.743l-0.771,0.915c-0.6,0.656-0.113,0.371-0.914,0.8
	c-2.029-0.8-0.486-2.058-0.4-3.887c-0.629-0.144-0.857-0.2-1.486-0.515l-0.057-0.686c-1-0.086-1.314-0.601-1.743-1.144
	c-1.028-0.171-1.601-0.2-1.687-1.229c-0.514-1.915-1.629-1.601-1.257-7.431C5.63,16.623,4.173,17.166,5.229,16.451L5.229,16.451z
	 M41.838,1.705c-0.629-0.028-2.001,0.258-2.715,0.429c-1.229,0.314-1.515,0.286-2.943,0.4c-2.286,0.143-3.229,0.972-5.772,0.857
	c-0.43,0.571,0.143,0.286-1.201,0.485c-1.543,0.229,0.43,0.457-2.943,0.658c-1.199,0.085-1.257,0.342-1.972,0.686
	c-0.657,0.314-1.457,0.285-2.172,0.485c-3.429,1.058-5.658,2.716-7.974,2.743c-2.771,1.973-2.028,0.629-6.201,3.716
	c-1.742,1.286,0.515-1.028-2.314,1.8c-4.001,4.03-2.4,3.572-3.144,5.116C2.2,19.709,1.915,19.51,1.829,20.367
	c-0.229,2.229,0.029,5.801,0,8.201c-0.086,5.459,0.029,11.004-0.143,16.434c-0.086,3.114,0.6,14.718-0.086,16.461l1.029,2.258
	l1.086,0.257c0.942,2.572,2.2,2.458,2.801,3.687h0.085c1.429,0.314,0.629,0,2.172,1.144c0.687,0.515,0.257,0.429,1.343,1
	c0.229,0.114,0.372,0.143,0.515,0.286c0.429,0.371,0.229,0.057,0.458,0.743l0.199,0.028c0.658,0.057,0.686,0.086,1.086,0.4
	c0.601,0.429-0.314-0.372,0.258,0.229c0.229,0.257,0.172,0.229,0.371,0.485l0.543-0.2c1.715-0.114,1.372,0.915,3.83,0.887
	c0-1.372-0.201-1.372,0.686-1.943c0.686,0.371,0.657,0.686,0.857,1.257l1.343-1.629c0.144,0.2,0.743,1.772,0.771,1.887
	c0.144,0.828-1.058,0.742-1.687,0.942c0.516,0.715-0.514,0.144,0.887,0.715l2.658,0.943c0.771,0.229,0.57,0.485,1.629,0.686
	c0.686,0.143,1.485,0.143,2.199,0.257c0.83,0.172,1.229,0.572,1.629,0.687c1.229,0.343,3.801-0.029,4.716,0.171
	c2.286,0.486-1.229,0.343,3.63,1.229c0.314,0.057,0.543,0.028,0.971,0.143c2.602,0.715,2.001,0.715,5.287,0.8
	c4.716,0.114,9.488,1.144,13.574,0.915c1.144-0.058,1.344,0.057,2.43,0.143s2.286-0.543,4.601-0.371
	c0.801,0.057,1.458,0.457,2.172,0.485c1.229,0.086,3.087-0.343,4.573-0.314c3.2,0.114,6.287,0.114,8.916-0.828
	c0.886-0.314,6.944,0.514,8.03-0.915c1.028-0.057,2.086,0.028,3.144,0c1.314-0.028,2.229-0.629,3.115-0.257
	c0.657-0.515,1.743-0.629,2.686-0.743c1.486-0.172,1.658,0.028,2.43-0.857l2.657-0.143l-0.229,0.057c1.601-1.829,1.4-0.743,3.43-1.4
	c1.028-0.343,0.343-0.6,1.629-0.857c1-0.199,1.143,0.086,1.914-0.429c1.001-0.686,0.458-0.399,1.943-0.6l3.372-1.372
	c0.629-0.515,0.515-0.771,1.629-0.743c0-0.714,0.915-0.8,1.772-1.143c0.371-0.172,0.6-0.4,1.086-0.657
	c0.257-0.601-0.114-0.286,0.314-0.629c0.457-0.343,0.143-0.172,0.771-0.2c0.571-0.629,1.8-1.4,2.972-2.801l0.4-0.429
	c0.057-0.057,0.143-0.114,0.2-0.143c0.114-0.687,0.171-0.4,0.457-1.058c0.143-0.343,0.114-0.457,0.229-0.715
	c0.286-0.6,0.114-0.285,0.429-0.514c-0.172-3.229,2.429-0.772,1.715-12.203c-0.286-4.43,0.314-9.402,0-13.804
	c-0.286-4.43,0.371-9.346,0.143-13.775c-0.114-2-0.6-1.314-1.143-2.457c-1.258-2.772-0.172-0.972-1.801-3.544
	c-0.629-0.972-0.914-1.715-2.344-2.743c-1-0.572-0.6-0.629-1.229-1c-0.171-0.144-1.801-0.687-3.029-2.001
	c-1.4-0.229-1.143-0.714-2.286-1.086l-4.63-1.886c-1.285-0.572-1.028-0.344-2.086-1.001c-0.857-0.313-1.771-0.229-2.486-0.543
	c-1.028-0.485-0.229-0.399-1.886-0.743c-1.801-0.343-0.144-0.371-4.401-1.028l-8.573-2.001c-0.057-0.028-0.143-0.057-0.171-0.171
	c-0.058-0.086-0.144-0.086-0.2-0.144l-0.144,0.144c-2.429,0.171-3.4-0.544-5.172-0.629c-1.658-0.114-4.059-0.314-5.573-0.257
	l-7.516-0.115c-0.8-0.028-1.028-0.285-1.687-0.399c-2.057-0.343-15.918-0.2-18.318,0.028C47.981,1.219,44.667,1.791,41.838,1.705
	L41.838,1.705z"/>
<path fill-rule="evenodd" clip-rule="evenodd" fill="#A1DBE3" d="M47.325,3.82l-1.258-0.086c-0.343,0.4,0.457,0.258-0.914,0.343
	c-3.145,0.257-1.43,0.543-2.887,0.601c-1.572,0.086-3.201,0.028-4.772,0.143c-0.714,0.657-0.886,0.801-2.258,0.828
	c-6.43,0.229-3.229,1.258-9.173,1.229c-1.172,0.229-0.658,0.429-1.572,0.743c-0.629,0.2-1.4,0.172-1.914,0.314
	c-0.943,0.285-0.601,0.486-1.658,0.742c-1.943,0.43-3.058,0.973-5.087,1.688l-2.915,1.257c-0.314,0.485-0.257,0.628-0.914,0.915
	c-2.915,1.257-0.2,0.371-1.973,1.171l-2.857,1.829c-0.571,0.6-0.857,1.058-1.629,1.486c-0.171,1.2-0.143,0.343-0.714,1.229
	c-0.086,0.172-0.229,0.543-0.286,0.658c-0.343,0.485-0.057,0.229-0.571,0.399c1.171,7.858,2.915,5.345,4.029,7.944l3.372,1.687
	c0.172,0.171,0.086,0.229,0.6,0.629c0.857,0.714,1.172,0.687,1.516,0.915l0.686,0.771c1.686-0.029,2.258,0.028,3.029,0.942
	c1.771,0.2,2.172-0.143,3.572-0.085l0.028,1.371c2.343-0.314,1.8,0.286,2.915,0.743c0.743,0.314,2.601,0.257,3.516,0.286l0.8,0.943
	c2.943-0.258,4.572,0.714,5.658,0.914c0.829,0.143,2.172,0.229,2.915,0.486c1.486,0.485,0.686,0.285,2.829,0.399
	c4.63,0.257,7.944,1.114,12.488,1.172c9.088,0.085,17.661,0.058,26.605-0.114l0.601-0.429c0.343-0.172,0.343-0.2,0.857-0.229
	c3.229-0.199,7.23,0.058,10.202-1.057c0.914-0.343,3.115-0.229,4.315-0.4c0.629-0.514,0.771-0.629,1.715-0.715
	c0.886-0.085,1.914-0.113,2.8-0.143c1.086-1,1.029-0.771,3.001-1c1.486-0.172,1.743-0.886,3.144-0.914
	c1.372-0.172,0.771-0.258,1.771-0.658c0.743-0.342,1.658-0.371,2.516-0.428l-0.114,0.171c0.229-0.543-0.172-0.343,0.514-0.743
	c0.601-0.371,0.743-0.143,1.086-0.086l-0.114-0.143l0.314-0.657c0.429-0.2,1.715-0.515,1.972-0.657
	c1.172-0.686-0.399-0.743,2.201-0.914l1.028-0.887l0.915-0.143l-0.258,0.029l0.172-0.801c1.257-0.457,1.686-1.686,2.743-2.286
	c0-0.601-0.086-0.086,0.429-0.086c0.286-1.286,0.314-0.144,0.857-1.571c0.286-0.801,0.515-1.029,0.686-1.458
	c0.601-1.657-0.457-2.144-0.6-3.286c-1.658-1-1.144-1.687-2.601-2.83l-0.943-0.943c-0.571-0.485-1.4-0.257-1.229-1.257
	c-0.943-0.2-0.801-0.257-1.372-0.857l-2.058-0.257l-0.086-0.857c-2.429-0.2-1.371-0.686-3.229-1.029
	c-1.171-0.199-2.972-1.429-4.344-1.857c-0.6-0.2-1.114-0.086-1.714-0.2c-1.572-0.313,0.343-0.571-3.173-1.028
	c-1.8-0.229-1-0.658-3.114-0.857c-1.372-0.143-2.63-0.143-3.772-0.515c-1.715-0.543-1.144-0.485-3.516-0.657
	c-1.485-0.086-2.143-0.086-2.972-0.829l-6.315-0.399l0.028-0.658c-1.372,0.115-7.173,0.058-8.487-0.113
	c-2.658-0.4-5.602-0.058-8.373-0.172C58.47,3.306,53.012,3.849,47.325,3.82L47.325,3.82z"/>
<path fill-rule="evenodd" clip-rule="evenodd" fill="#C7C7C6" d="M28.035,35.457c1.343,0.914,4.144,1.086,5.716,1.4
	c0.942,0.199,1.629,0.457,2.686,0.656l15.489,1.516c4.43,0.057,9.259,0.57,13.546,0.399c1.343-0.058,2.286-0.085,3.629-0.028
	l9.745-0.6c1.314-0.172,3.029,0.027,4.43-0.201c1.543-0.229,2.43-0.771,4.029-0.6l6.974-1.143c2-0.258,3.657-0.973,5.829-1.144
	c0.314-0.343-0.057-0.086,0.601-0.486l4.458-1.171v-0.115v-0.514c-1.4,0.028-1.657,0.742-3.144,0.914c-1.972,0.229-1.915,0-3.001,1
	c-0.886,0.029-1.914,0.058-2.8,0.143c-0.943,0.086-1.086,0.201-1.715,0.715c-1.2,0.172-3.401,0.058-4.315,0.4
	c-2.972,1.114-6.973,0.857-10.202,1.057c-0.515,0.029-0.515,0.058-0.857,0.229l-0.601,0.429c-8.944,0.172-17.518,0.199-26.605,0.114
	c-4.544-0.058-7.858-0.915-12.488-1.172c-2.144-0.114-1.343,0.086-2.829-0.399c-0.743-0.258-2.086-0.344-2.915-0.486
	C32.607,36.171,30.979,35.199,28.035,35.457L28.035,35.457z"/>
<path fill-rule="evenodd" clip-rule="evenodd" fill="#6A6A6A" d="M13.546,71.779c0.344,0.344-0.028,0.144,0.657,0.601
	c0.458,0.286,0.229,0.2,0.687,0.229c2.543,0.771,1.114,0.371,2.429,1c0.657,0.314,6.059,1.544,7.315,2.601
	c0.686-0.743,2.144,0.687,5.287,0.829l5.087,1.258l0.515-0.144c3,0.258,1.801,0.572,3.144,0.743
	c3.486,0.486,20.204,1.687,22.091,1.314c1.229-0.229,2.629-0.229,3.886,0.029c3.315,0.657,28.178-1.486,28.864-2.572
	c-0.887-0.372-1.801,0.229-3.115,0.257c-1.058,0.028-2.115-0.057-3.144,0c-1.086,1.429-7.145,0.601-8.03,0.915
	c-2.629,0.942-5.716,0.942-8.916,0.828c-1.486-0.028-3.344,0.4-4.573,0.314c-0.714-0.028-1.371-0.429-2.172-0.485
	c-2.314-0.172-3.515,0.457-4.601,0.371s-1.286-0.2-2.43-0.143c-4.086,0.229-8.858-0.801-13.574-0.915
	c-3.286-0.085-2.686-0.085-5.287-0.8c-0.428-0.114-0.656-0.086-0.971-0.143c-4.858-0.887-1.344-0.743-3.63-1.229
	c-0.915-0.2-3.486,0.172-4.716-0.171c-0.399-0.114-0.799-0.515-1.629-0.687c-0.714-0.114-1.514-0.114-2.199-0.257
	c-1.059-0.2-0.857-0.457-1.629-0.686l-2.658-0.943c-1.4-0.571-0.371,0-0.887-0.715c0.629-0.2,1.83-0.114,1.687-0.942
	c-0.028-0.114-0.628-1.687-0.771-1.887l-1.343,1.629c-0.2-0.571-0.172-0.886-0.857-1.257c-0.887,0.571-0.686,0.571-0.686,1.943
	C14.918,72.694,15.261,71.665,13.546,71.779L13.546,71.779z"/>
<path fill-rule="evenodd" clip-rule="evenodd" fill="#C7C7C6" d="M93.507,77.667c-0.687,1.086-25.549,3.229-28.864,2.572
	c-1.257-0.258-2.657-0.258-3.886-0.029c-1.887,0.372-18.604-0.828-22.091-1.314c-1.343-0.171-0.144-0.485-3.144-0.743l0.257,0.887
	c0.886,0.057,2.743,0.171,3.572,0.343c2.058,0.399-0.886,0.285,2.772,0.714c2.286,0.258,4.857,0.114,7.145,0.229
	c2.143,0.114,4.486,0.543,6.658,0.801c2.086,0.285,5.029,0,7.287,0.057c0.457,0.743-0.028,0.058,1.486,0
	c3.172-0.114,9.002,0.344,11.574-0.514c2.143-0.715,5.516,0.057,8.858-0.972c1.429-0.429,2.829-0.314,4.287-0.543
	c0.914-0.144,0.943-0.372,1.771-0.515c3.572-0.687,3.372,0.285,5.802-1.144l0.399-0.229C96.222,77.438,94.593,78.238,93.507,77.667
	L93.507,77.667z"/>
<path fill-rule="evenodd" clip-rule="evenodd" fill="#6A6A6A" d="M10.003,32.342c-0.771-1.344-0.229-2.229,0.828-1.115
	L10.003,32.342z M78.846,38.801l-9.745,0.6c-1.343-0.057-2.286-0.029-3.629,0.028c-4.287,0.171-9.116-0.343-13.546-0.399
	l-15.489-1.516c-1.057-0.199-1.743-0.457-2.686-0.656c-1.572-0.314-4.373-0.486-5.716-1.4c-0.485,0.085-4.772-0.772-5.516-1.201
	l-1.114-0.485c-0.715-0.286-0.4-0.144-0.601-0.286l-1.058,0.057c-1.172-1.314-1.457-0.399-3.143-1.113
	c-0.516-0.229-0.801-0.572-1.486-0.687c-1.572-0.286-0.344,0.372-3.145-1.2c-0.342-0.2-1.714-1.801-3.857-2.715l0.057,0.686
	c0.629,0.314,0.857,0.371,1.486,0.515c-0.086,1.829-1.629,3.087,0.4,3.887c0.801-0.429,0.314-0.144,0.914-0.8l0.771-0.915
	c0.771,0.171,0.973,0.543,1.516,0.743c0.742,0.285,1.371,0.114,2,0.4c3.286,1.486,12.06,3.629,12.06,3.658
	c0.571,0.229,0.4,0.199,0.743,0.428c0.715,0.4,0.943,0.372,1.829,0.372c1.171-0.028,1.343,0,2.429,0.257
	c2.172,0.543,0.601,0.457,3.916,0.914c1.028,0.144,1.543,0.029,2.314,0.115l4.172,0.715c1.172,0.113,2.973-0.115,4.486,0.229
	c1.915,0.428,1.001,1.457,3.373,0.8c1.457-0.4,3.258-0.144,4.715,0.058c1.457,0.171,3.287-0.172,4.858-0.115
	c5.744,0.2,8.716,0.258,14.289-0.229l3.372-0.172C79.732,39.086,78.332,39.515,78.846,38.801L78.846,38.801z"/>
<path fill-rule="evenodd" clip-rule="evenodd" fill="#C7C7C6" d="M3.144,65.007c-0.199-0.715-2.172-1.887-1.543-3.544
	c-0.857-2.172-0.057-29.979-0.229-36.066c-0.229-9.402,1.172-6.973,1.914-10.059l-1,0.113c-0.657,3.258-0.771,0.686-1.114,3.43
	C0.972,20.453,0.4,20.738,0,22.253c0.629,0.343,0.4-0.028,1.001,0.458c0.085,2.057-0.314,1.257-0.486,2.486
	c-0.229,1.914,0.258,6.572,0.229,8.43L0.114,50.975c-0.229,1.543,0.371,0.314,0.543,2c0.2,1.658-0.257,9.46,1.172,11.146
	l0.343,0.371C2.801,65.063,2.229,64.921,3.144,65.007L3.144,65.007z"/>
<path fill-rule="evenodd" clip-rule="evenodd" fill="#6A6A6A" d="M5.059,13.365c-0.171,0.6,0.085,0.229-0.314,0.657
	c-0.771,0.8,0.114,0-0.8,0.458c-0.115,0.143-0.4,0.6-0.658,0.857c-0.742,3.086-2.143,0.656-1.914,10.059
	c0.172,6.088-0.629,33.895,0.229,36.066c0.686-1.743,0-13.347,0.086-16.461c0.172-5.43,0.057-10.975,0.143-16.434
	c0.029-2.4-0.229-5.973,0-8.201c0.086-0.857,0.371-0.658,0.657-1.286c0.743-1.544-0.857-1.086,3.144-5.116
	c2.829-2.828,0.572-0.514,2.314-1.8c4.173-3.087,3.43-1.743,6.201-3.716c-1.229-0.085-1.485,0.572-2.657,1.001
	c-1.915,0.686-4.372,2.458-5.973,3.657C4.915,13.565,6.001,13.107,5.059,13.365L5.059,13.365z"/>
<path fill-rule="evenodd" clip-rule="evenodd" fill="#9D9D9C" d="M120.169,13.766c1.43,1.028,1.715,1.771,2.344,2.743
	c1.629,2.572,0.543,0.771,1.801,3.544c0.543,1.143,1.028,0.457,1.143,2.457c0.229,4.43-0.429,9.346-0.143,13.775
	c0.314,4.401-0.286,9.374,0,13.804c0.714,11.431-1.887,8.974-1.715,12.203l0.601-0.629c0.028-0.028,0.057-0.086,0.085-0.144
	l0.4-0.543c0.2-1.314,1.486-0.6,1.114-9.688c-0.114-3.344,0-7.059,0.029-10.402c-0.058-1.658-0.286-1.372,0-3.145
	c0.229-1.314-0.058-1.428-0.114-2.657c-0.086-1.972,0.199-3.687,0.257-5.573c0.028-2-0.229-3.601-0.028-5.544
	c0.343-3.887-0.829-2.886-1.258-4.458l0.028-0.143l-1.114-2.115c-0.086-0.686-1.2-2.229-1.715-2.744
	c-0.114-0.113-0.257-0.257-0.371-0.371c-1.372-1.429-0.915-1.429-2.314-1.829c0.485,0.972,0.057,0.172,0.485,0.743L120.169,13.766z"
	/>
<path fill-rule="evenodd" clip-rule="evenodd" fill="#9D9D9C" d="M31.864,5.506c2.286-0.229,4.544-0.914,6.916-1.172
	c1.029-0.113,2.658-0.229,3.458-0.399c1.257-0.257,2.286-0.458,3.829-0.2l1.258,0.086l3.915-0.771
	c2.257-0.314,10.603-0.457,12.774-0.344c2.829,0.144,5.943-0.285,8.573,0.258c1.914,0.4,7.087,0.257,8.287,0.828
	c1.172-0.285,9.202,1.458,10.917,1.744c1,0.143,1.6-0.029,2.715,0.171c1.172,0.229,1.457,0.571,2.515,0.829
	c0.943,0.229,1.829,0.172,2.715,0.4c0.857,0.199,1.515,0.571,2.429,0.714c-0.742-0.571-0.657,0-1.6-1.028
	c-2.201-0.4-2.658-0.2-4.315-1.086l-9.603-1.486c-1.429-0.4-3.429-0.715-5.115-0.572c-1.943-0.113-4.829-0.342-6.458-0.6
	c-3.687-0.629-15.976-0.571-19.519-0.371c-8.117,0.485-13.375,1-21.148,2.258L31.864,5.506z"/>
<path fill-rule="evenodd" clip-rule="evenodd" fill="#C7C7C6" d="M47.325,3.82c5.687,0.028,11.145-0.515,16.689-0.314
	c2.771,0.114,5.715-0.229,8.373,0.172c1.314,0.171,7.115,0.229,8.487,0.113c-1.2-0.571-6.373-0.428-8.287-0.828
	c-2.63-0.543-5.744-0.114-8.573-0.258C61.843,2.592,53.497,2.734,51.24,3.049L47.325,3.82z"/>
<path fill-rule="evenodd" clip-rule="evenodd" fill="#9D9D9C" d="M43.867,1.191c1.429,0.285,2.657-0.172,3.972-0.372
	c2.115-0.314,10.688-0.257,13.289-0.399c1.086-0.058,14.688,0.113,16.146,0.543l1.028,0.457c1.515-0.058,3.915,0.143,5.573,0.257
	c1.771,0.085,2.743,0.8,5.172,0.629c-1.6-1.657-7.458-0.8-10.83-1.601c-3.144-0.743-27.75-1.058-32.008-0.143
	c-0.457,0.086-0.771,0.086-1.229,0.171L43.867,1.191z"/>
<path fill-rule="evenodd" clip-rule="evenodd" fill="#C7C7C6" d="M35.008,78.296l-5.087-1.258c-3.144-0.143-4.602-1.572-5.287-0.829
	c-1.8-0.285-1.629-0.714-2.715-1.028c-0.714-0.2-1.057-0.058-1.629-0.172c-0.742-0.114,0.143,0.086-0.828-0.485
	c-0.601-0.343-1.601-0.286-2.4-0.629l-2.172-1.286c-0.457-0.028-0.229,0.058-0.687-0.229c-0.686-0.457-0.313-0.257-0.657-0.601
	l-0.543,0.2c-0.457-0.028-0.6,0.086-1.114-0.229c-0.743-0.429-0.4-0.314-0.601-0.886l-0.199-0.028c-1.115-0.4-1.658-1.086-2.458-1.4
	c-1.715-1.2-4.516-2.43-5.173-4.173h0.086l-0.4-0.257c0,1.028,0.857,2.372,1.857,2.943l1.486,0.914
	c0.743,0.543,0.886,0.314,1.457,0.743l1.344,1.086c0.857,0.572,0.715,0.258,1.486,0.657c0.342,0.172,0.342,0.2,0.485,0.314
	l1.058,0.572c1.515,0.514,0.571-0.314,1.143,0.914c1.715,0.114,1.629,0.114,2.801,0.771c2.229,1.229,10.773,3.458,12.918,3.572
	c1.942,0.114,1.057,0.515,2.657,0.715C32.778,78.324,34.093,78.438,35.008,78.296L35.008,78.296z"/>
<path fill-rule="evenodd" clip-rule="evenodd" fill="#6A6A6A" d="M20.262,8.221c1.458-0.342,3.63-1.199,4.858-1.543
	c0.828-0.257,1.857-0.285,2.743-0.486c1.028-0.229,1.715-0.485,2.944-0.628l1.057-0.058l2.543-0.742
	c7.773-1.258,13.031-1.772,21.148-2.258c3.543-0.2,15.832-0.258,19.519,0.371c1.629,0.258,4.515,0.486,6.458,0.6
	c-1.172-0.714-2.172-0.57-3.486-0.628c-1.286-0.086-5.858-0.8-7.974-0.715c-7.029,0.343-13.745-0.171-21.176,0.458
	c-1.515,0.143-2.314,0.514-3.743,0.514c-1.543-0.028-2.486,0.2-3.887,0.258c-2.43,0.143-4.973,0.742-7.402,1.114
	c-1.257,0.2-1.971,0.657-3.314,0.8c-1.857,0.2-2.115,0.429-3.572,0.801c-0.743,0.171-1.4,0.143-2.058,0.257
	c-0.515,0.114-0.857,0.457-1.343,0.657C23.034,7.25,22.291,7.25,21.69,7.363c-0.229,0.058-0.485,0.115-0.715,0.229
	C19.805,8.135,20.72,7.592,20.262,8.221L20.262,8.221z"/>
<path fill-rule="evenodd" clip-rule="evenodd" fill="#C7C7C6" d="M123.599,62.292c0.143,0.972-0.571,2.2-1.143,3
	c-0.344,0.486-0.486,0.515-0.887,0.972c-0.628,0.629-0.343,0.543-1.057,0.887c-0.2,0.514,0.285,0.057-0.429,0.514
	c-0.343,0.258,0.057,0-0.601,0.172c-0.086,0.171-0.114,0.286-0.257,0.485l-3.001,2.058l-1.258,0.2
	c-0.571,1.029-1.828,1.258-2.8,1.743l-7.116,2.601c-0.686,0.172-1.457,0.172-2.086,0.372c-1.144,0.371-0.343,0.515-1.915,0.686
	l0.229-0.057v0.485c1.258,0.028,1.172-0.457,3.83-0.914c1.629-0.286,1.771-0.943,3.715-1.229c1.686-0.257,0.714,0.029,1.771-0.6
	c1.029-0.629,0.543,0.028,2.544-1.058c0.057-0.058,0.257-0.143,0.343-0.172l1.229-0.686c0.915-0.714,2.2-1,3.887-2.172l2.772-2.029
	c1.886-2.343,1.686-1.857,2.343-3.687c0.571-1.657,0.686,0.028,0.943-1.457c0.057-0.258,0.028-1.144,0.028-1.43l-0.4,0.543
	c-0.028,0.058-0.057,0.115-0.085,0.144L123.599,62.292z"/>
<path fill-rule="evenodd" clip-rule="evenodd" fill="#C7C7C6" d="M115.14,12.937c-0.2-0.2-0.172-0.2-0.485-0.372
	c-0.058-0.057-0.286-0.143-0.344-0.171c-0.229-0.114-0.457-0.229-0.657-0.314c-4.687-2.601-1.457-0.286-5.658-2.657
	c-2.829-1.629-3.687-0.258-5.144-1.915l-0.687,0.143c-0.914-0.143-1.571-0.515-2.429-0.714c-0.886-0.229-1.771-0.172-2.715-0.4
	c-1.058-0.258-1.343-0.6-2.515-0.829c-1.115-0.2-1.715-0.028-2.715-0.171c-1.715-0.286-9.745-2.029-10.917-1.744l-0.028,0.658
	l6.315,0.399c0.829,0.743,1.486,0.743,2.972,0.829c2.372,0.172,1.801,0.114,3.516,0.657c1.143,0.372,2.4,0.372,3.772,0.515
	c2.114,0.199,1.314,0.629,3.114,0.857c3.516,0.457,1.601,0.715,3.173,1.028c0.6,0.114,1.114,0,1.714,0.2
	c1.372,0.429,3.173,1.658,4.344,1.857c1.858,0.344,0.801,0.829,3.229,1.029l0.086,0.857L115.14,12.937z"/>
<path fill-rule="evenodd" clip-rule="evenodd" fill="#9D9D9C" d="M106.909,6.792c0.686-0.229,3.401,1.229,4.344,1.601
	c2.086,0.771,3.744,1.887,4.43,1.887c-0.2-0.601,0.229-0.201-0.485-0.715l-8.402-3.4c-1.657-0.258-1.657-0.658-3.2-1.001
	c-1.687-0.371-1.629-0.743-3.458-0.915l-7.116-1.6c-1.086-0.429-2.429-0.572-3.829-0.486c0.057,0.058,0.143,0.058,0.2,0.144
	c0.028,0.114,0.114,0.143,0.171,0.171l8.573,2.001c4.258,0.657,2.601,0.686,4.401,1.028c1.657,0.344,0.857,0.258,1.886,0.743
	C105.138,6.563,106.052,6.479,106.909,6.792L106.909,6.792z"/>
<path fill-rule="evenodd" clip-rule="evenodd" fill="#C7C7C6" d="M5.059,13.365c0.942-0.258-0.144,0.2,0.457-0.258
	c1.601-1.199,4.058-2.972,5.973-3.657c1.172-0.429,1.429-1.086,2.657-1.001c0.83-1.143,1.544-0.628,2.688-1.143
	c2.657-1.2,2.8-1.2,5.973-2.115c0.543-0.143,0.857-0.314,1.343-0.485c0.686-0.229,1.171-0.257,1.714-0.714
	c-2.657-0.201-3.143,0.885-4.914,1.171c-2.63,0.372-1.258,0.429-2.602,0.886c-0.6,0.2-1,0.172-1.543,0.457
	c-0.857,0.458,0.143,0.286-1.229,0.601c-0.715,0.172-0.686,0.058-1.43,0.372c-2.172,0.943-1.742,1-3.943,1.857
	c-0.943,0.371-0.4,0.257-1.028,0.657C8.888,10.164,5.259,11.536,5.059,13.365L5.059,13.365z"/>
<path fill-rule="evenodd" clip-rule="evenodd" fill="#6A6A6A" d="M43.867,1.191c-0.028,0.027-0.601,0.143-0.886,0.199
	c-0.314,0.058-0.172,0-0.486,0.086c-0.857,0.2-0.457,0.114-0.657,0.229c2.829,0.086,6.144-0.486,8.944-0.771
	c2.4-0.229,16.262-0.371,18.318-0.028c0.658,0.114,0.887,0.371,1.687,0.399l7.516,0.115l-1.028-0.457
	c-1.458-0.43-15.061-0.601-16.146-0.543c-2.601,0.143-11.174,0.085-13.289,0.399C46.524,1.02,45.296,1.477,43.867,1.191
	L43.867,1.191z"/>
<path fill-rule="evenodd" clip-rule="evenodd" fill="#9D9D9C" d="M20.262,8.221l-0.399-0.057L14.86,9.936
	c-0.257,0.029-0.229,0.029-0.514,0.172l-1.857,1.172c-1.201,0.172-2.001,0.914-3.145,1.572c-0.4,0.656-0.057,0.229-0.571,0.628
	c-0.571,0.458,0.028-0.171-0.571,0.4l2.229-1.172c0.658-0.543,1.372-0.972,2.486-1.086l2.915-1.257
	c2.029-0.715,3.144-1.258,5.087-1.688c1.058-0.256,0.715-0.457,1.658-0.742c0.514-0.143,1.285-0.114,1.914-0.314
	c0.914-0.314,0.4-0.515,1.572-0.743c0.8-0.343,3.515-0.657,4.744-1.314c-1.229,0.143-1.916,0.399-2.944,0.628
	c-0.886,0.201-1.915,0.229-2.743,0.486C23.892,7.021,21.72,7.879,20.262,8.221L20.262,8.221z"/>
<path fill-rule="evenodd" clip-rule="evenodd" fill="#C7C7C6" d="M31.864,5.506l-1.057,0.058c-1.229,0.657-3.944,0.972-4.744,1.314
	c5.943,0.028,2.743-1,9.173-1.229c1.372-0.027,1.544-0.171,2.258-0.828c1.571-0.114,3.2-0.057,4.772-0.143
	c1.457-0.058-0.258-0.344,2.887-0.601c1.371-0.085,0.571,0.058,0.914-0.343c-1.543-0.258-2.572-0.057-3.829,0.2
	c-0.8,0.171-2.429,0.286-3.458,0.399C36.408,4.592,34.15,5.277,31.864,5.506L31.864,5.506z"/>
<path fill-rule="evenodd" clip-rule="evenodd" fill="#6A6A6A" d="M82.361,60.806c2.258,0.028,0.771-0.229,2.943-0.486
	c1.286-0.143,0.829-0.657,2.372-0.857c-0.657-0.686-0.515-0.429-0.943-1.314l-2.4-0.343C83.304,58.52,82.333,58.977,82.361,60.806
	L82.361,60.806z"/>
<path fill-rule="evenodd" clip-rule="evenodd" fill="#C7C7C6" d="M8.116,27.826c2.144,0.914,3.516,2.515,3.857,2.715
	c2.801,1.572,1.572,0.914,3.145,1.2c0.686,0.114,0.971,0.457,1.486,0.687c1.686,0.714,1.971-0.201,3.143,1.113l1.058-0.057
	l-0.028-1.371c-1.4-0.058-1.801,0.285-3.572,0.085c-0.771-0.914-1.344-0.972-3.029-0.942l-0.686-0.771
	c-0.344-0.229-0.658-0.201-1.516-0.915c-0.514-0.4-0.428-0.458-0.6-0.629l-3.372-1.687C8.487,27.54,8.116,27.111,8.116,27.826
	L8.116,27.826z"/>
<path fill-rule="evenodd" clip-rule="evenodd" fill="#6A6A6A" d="M59.47,50.146c1.315-0.343,1.4-0.028,1.486-1.371
	c-0.742-0.258-1.429,0.085-2.743,0.028c-0.171-0.086-0.085-0.314-1.086-0.743c0,0.429,0,1.144,0.058,1.571
	c0.229,1.286,0.886,0.972,1.172,2.858l1.571,0.028C59.642,51.346,59.385,51.946,59.47,50.146L59.47,50.146z"/>
<path fill-rule="evenodd" clip-rule="evenodd" fill="#C7C7C6" d="M125.828,40.887l0.229-1.687c-0.029-2.114,0.399-0.114,0.057-3.887
	c-0.2-2.515,0.457-4.658,0.172-8.944c-0.172-2.486,1.457-5.431-1.601-6.859c0.429,1.572,1.601,0.571,1.258,4.458
	c-0.2,1.943,0.057,3.544,0.028,5.544c-0.058,1.887-0.343,3.602-0.257,5.573c0.057,1.229,0.343,1.343,0.114,2.657
	C125.542,39.515,125.771,39.229,125.828,40.887L125.828,40.887z"/>
<path fill-rule="evenodd" clip-rule="evenodd" fill="#6A6A6A" d="M76.103,64.921c0.058,0,2.915,0.171,2.915,0.171
	c0.229-0.571,0.657-1.485-0.686-2.229c-0.743-0.4-1.801-0.601-2.715-0.2C75.303,63.406,74.96,64.721,76.103,64.921L76.103,64.921z"
	/>
<path fill-rule="evenodd" clip-rule="evenodd" fill="#6A6A6A" d="M25.862,3.992c-0.543,0.457-1.028,0.485-1.714,0.714
	c-0.485,0.171-0.8,0.343-1.343,0.485c-3.173,0.915-3.315,0.915-5.973,2.115c-1.144,0.515-1.857,0-2.688,1.143
	c2.315-0.027,4.545-1.686,7.974-2.743c0.715-0.2,1.515-0.171,2.172-0.485c0.715-0.344,0.772-0.601,1.972-0.686
	c3.373-0.201,1.4-0.43,2.943-0.658c1.344-0.199,0.771,0.086,1.201-0.485C27.978,3.049,27.521,4.221,25.862,3.992L25.862,3.992z"/>
<path fill-rule="evenodd" clip-rule="evenodd" fill="#9D9D9C" d="M30.407,3.392c2.543,0.114,3.486-0.715,5.772-0.857
	c1.429-0.114,1.714-0.086,2.943-0.4c0.714-0.171,2.086-0.457,2.715-0.429c0.2-0.114-0.2-0.028,0.657-0.229
	c0.314-0.086,0.172-0.028,0.486-0.086c0.285-0.057,0.857-0.172,0.886-0.199c-2.001-0.658-5.259,0.399-7.173,0.742
	c-1.829,0.344-2.687,0.229-5.002,0.771C30.407,2.991,30.636,3.077,30.407,3.392L30.407,3.392z"/>
<path fill-rule="evenodd" clip-rule="evenodd" fill="#6A6A6A" d="M101.051,75.98c1.572-0.171,0.771-0.314,1.915-0.686
	c0.629-0.2,1.4-0.2,2.086-0.372l7.116-2.601c0.972-0.485,2.229-0.714,2.8-1.743c-1.114-0.028-1,0.229-1.629,0.743l-3.372,1.372
	c-1.485,0.2-0.942-0.086-1.943,0.6c-0.771,0.515-0.914,0.229-1.914,0.429c-1.286,0.258-0.601,0.515-1.629,0.857
	C102.451,75.237,102.651,74.151,101.051,75.98L101.051,75.98z"/>
<path fill-rule="evenodd" clip-rule="evenodd" fill="#6A6A6A" d="M27.635,60.892c0.144-0.4,0.314,0.543,0.114-0.629
	c-0.057-0.4-0.543-0.743-0.828-0.886c-1.744-0.857-2.458-0.857-3.23,0.485l-0.171,0.4l0.8,0.6
	C25.006,61.206,26.892,61.206,27.635,60.892L27.635,60.892z"/>
<path fill-rule="evenodd" clip-rule="evenodd" fill="#9D9D9C" d="M121.284,18.824c0.143,1.143,1.2,1.629,0.6,3.286
	c-0.171,0.429-0.399,0.657-0.686,1.458c-0.543,1.428-0.571,0.285-0.857,1.571c0.686,0.058,0.229,0.257,0.771-0.114l0.543-0.801
	c2.486-3.857-1.229-8.859-3.687-9.717c0.4,0.973-0.086,0.372,0.886,1.059c1.629,1.143,1.372,1.8,2.43,2.343V18.824z"/>
<path fill-rule="evenodd" clip-rule="evenodd" fill="#9D9D9C" d="M4.687,25.454c0.43,0.171,0.543,0.143,1,0.429
	c0.772,0.543,0.229,0.028,0.687,0.8c0.429,0.543,0.743,1.058,1.743,1.144c0-0.715,0.371-0.286-0.114-0.572
	c-0.771-0.229-0.485-0.143-1.028-0.686c-1.486-1.486-1.516-0.457-2.258-2.314c-0.486-1.201-1.286-2.857-1-4.401
	c0.229-1.257-0.029-0.257,0.257-0.543L3.944,18.48c0.199-0.171,0.571-0.543,0.828-0.771l0.771-0.686l0.143-0.572H5.229
	c-1.057,0.715,0.4,0.172-1.8,1.572C3.058,23.854,4.173,23.539,4.687,25.454L4.687,25.454z"/>
<path fill-rule="evenodd" clip-rule="evenodd" fill="#9D9D9C" d="M115.14,12.937c0.571,0.601,0.429,0.657,1.372,0.857
	c-0.429-1.257-1.314-1.257-2.172-1.657c-0.372-0.172-0.286-0.086-0.486-0.258l-0.371-0.543c-0.743-0.485-0.829-0.629-1.801-0.914
	c-0.943-0.258-1.457-0.572-2.286-0.743c-1.486-0.2-0.629-0.171-1.571-0.771c-0.486-0.314-1.029-0.314-1.629-0.458
	c-1.515-0.342-2.115-0.457-3.344-0.942c1.457,1.657,2.314,0.286,5.144,1.915c4.201,2.371,0.972,0.057,5.658,2.657
	c0.2,0.086,0.429,0.2,0.657,0.314c0.058,0.028,0.286,0.114,0.344,0.171C114.968,12.736,114.939,12.736,115.14,12.937L115.14,12.937z
	"/>
<path fill-rule="evenodd" clip-rule="evenodd" fill="#6A6A6A" d="M41.267,62.12c0.229-0.457,0.371-1.086,0.571-1.543
	c1.772,0.171,0.629,0.257,1.629,0.857c0.4-0.515,0.372-0.372,0.372-1.172c-1.058-0.571-2.887-0.515-3.916,0
	C39.666,61.892,39.608,62.863,41.267,62.12L41.267,62.12z"/>
<path fill-rule="evenodd" clip-rule="evenodd" fill="#6A6A6A" d="M45.839,70.922c-1.4-0.028-2.144,0.629-2.144,1.915
	c0,1.715,0.972,1,2.344,0.943L45.839,70.922z"/>
<path fill-rule="evenodd" clip-rule="evenodd" fill="#6A6A6A" d="M26.72,57.548c0-2.087,0.658-1.687,0.344-2.344
	c-0.515-1.028-1.486-0.058-1.771,0.2l-0.258,0.229c-0.057,0.058-0.258,0.172-0.285,0.2c-0.286,0.2-0.172,0.114-0.372,0.314
	c0.086,0.857,0.399,1.086,0.743,1.686L26.72,57.548z"/>
<path fill-rule="evenodd" clip-rule="evenodd" fill="#6A6A6A" d="M77.303,43.315c0.515,0.771,0.771,0.457,1.886,0.829
	c0.172,1.571,0.029,1.657,1.715,1.515c0.086-0.943-0.171-0.943-0.657-1.372c0-1.086,0.029-0.829-0.285-1.657
	c-0.572-0.029-0.972,0.028-1.486,0.114C77.217,42.944,77.817,42.544,77.303,43.315L77.303,43.315z"/>
<path fill-rule="evenodd" clip-rule="evenodd" fill="#C7C7C6" d="M8.202,13.88c-0.429,0.743-0.6,0.429-1.286,1.114
	c-0.429,0.457-0.8,1.029-1.229,1.457l-0.143,0.572c0.771-0.429,1.058-0.887,1.629-1.486l2.857-1.829
	c1.772-0.8-0.942,0.086,1.973-1.171c0.657-0.287,0.6-0.43,0.914-0.915c-1.114,0.114-1.828,0.543-2.486,1.086L8.202,13.88z"/>
<path fill-rule="evenodd" clip-rule="evenodd" fill="#6A6A6A" d="M39.608,53.718l-0.656-0.143l0.113-1.314
	c0.515,0,0.629,0.515,0.887,0.972c-0.314,0.171-0.029,0.171-0.286,0.6l2.229,0.258c0.028-1.715-0.058-1.001-1.258-1.458
	c-0.686-0.314-0.343-0.8-1.314-0.942c-2.144-0.286-0.887,2.457-0.229,2.601C40.123,54.176,39.323,54.375,39.608,53.718
	L39.608,53.718z"/>
<path fill-rule="evenodd" clip-rule="evenodd" fill="#6A6A6A" d="M25.521,50.317l0.086,0.4c0.027-0.029,0.057,0.143,0.085,0.285
	l2.858,0.172c0.028-0.857,0.257-1.029-0.372-1.544C28.178,49.631,25.292,47.917,25.521,50.317L25.521,50.317z"/>
<path fill-rule="evenodd" clip-rule="evenodd" fill="#6A6A6A" d="M27.778,55.118c0.113,0.028-0.058,0.4,1.257-0.028
	c0.429-0.143,0.571-0.257,0.829-0.429c0.057-1.028,0.143-1-0.143-1.743c-0.857-0.343-0.857-0.229-2.059-0.2
	C27.635,53.747,27.406,54.176,27.778,55.118L27.778,55.118z"/>
<path fill-rule="evenodd" clip-rule="evenodd" fill="#6A6A6A" d="M87.162,70.979c1.486,0.086,1.543-0.943,2.001-2.029l1.6-0.229
	c-0.086-1.429-0.457,0.028-1.086-1.515c-0.571,1.314-0.771,0.257-1.601,1.543C87.162,70.208,86.99,69.521,87.162,70.979
	L87.162,70.979z"/>
<path fill-rule="evenodd" clip-rule="evenodd" fill="#6A6A6A" d="M14.175,44.802c-2.687,0.114-1.943,0.057-2.172,0.686
	c0.943,0.571,2.515,0.601,3.857,0.486c0.058-1.115-0.028-1.286-0.399-1.973C14.347,44.23,15.003,44.115,14.175,44.802L14.175,44.802
	z"/>
<path fill-rule="evenodd" clip-rule="evenodd" fill="#6A6A6A" d="M32.607,51.975c0.085,0.543,0,0.229,0.2,0.515
	c0.971-0.114,0.943-0.601,0.943-1.515l-0.943-0.372c-0.058-1.343,0-1.371-0.457-2.229c-0.744,0.571-1.258,1.257-1.287,2.2
	C32.437,51.317,32.293,50.117,32.607,51.975L32.607,51.975z"/>
<path fill-rule="evenodd" clip-rule="evenodd" fill="#9D9D9C" d="M93.507,77.667c1.086,0.571,2.715-0.229,3.886-0.4
	c1.915-0.143,1.915-0.771,3.887-0.857v-0.485l-2.657,0.143c-0.771,0.886-0.943,0.686-2.43,0.857
	C95.25,77.038,94.164,77.152,93.507,77.667L93.507,77.667z"/>
<path fill-rule="evenodd" clip-rule="evenodd" fill="#C7C7C6" d="M8.002,27.254c-1.114-2.6-2.858-0.086-4.029-7.944
	c-0.286,0.286-0.028-0.714-0.257,0.543c-0.286,1.544,0.514,3.2,1,4.401c0.742,1.857,0.771,0.828,2.258,2.314
	C7.517,27.111,7.23,27.025,8.002,27.254L8.002,27.254z"/>
<path fill-rule="evenodd" clip-rule="evenodd" fill="#6A6A6A" d="M14.661,54.918c0.342,0,0.914,0.029,1.257,0
	c0.657-0.114,0.8-0.314,0.915-0.942l-0.258-1.43l-0.914-0.085C14.604,52.775,14.661,54.318,14.661,54.918L14.661,54.918z"/>
<path fill-rule="evenodd" clip-rule="evenodd" fill="#6A6A6A" d="M17.519,48.889c0.028-0.029,0.143,0,0.172-0.086
	c0.027-0.086,0.113-0.058,0.171-0.086c0.457-0.457-0.086-2.086-2.058-2.258l-0.143,2.144C16.575,48.831,16.604,49.003,17.519,48.889
	L17.519,48.889z"/>
<path fill-rule="evenodd" clip-rule="evenodd" fill="#6A6A6A" d="M84.333,57.119c1.829-0.743,3.458,0.942,3.887-1.058l-1.972-0.172
	l-0.515-0.657C84.704,56.805,84.247,55.004,84.333,57.119L84.333,57.119z"/>
<path fill-rule="evenodd" clip-rule="evenodd" fill="#6A6A6A" d="M54.098,45.487c-1.429,0.086-1.257,0.657-0.886,1.629
	c1.286,0.058,1.371,0.2,2.344,0.314C55.526,45.916,55.813,45.401,54.098,45.487L54.098,45.487z"/>
<path fill-rule="evenodd" clip-rule="evenodd" fill="#C7C7C6" d="M28.035,35.457l-0.8-0.943c-0.915-0.029-2.772,0.028-3.516-0.286
	c-1.115-0.457-0.572-1.058-2.915-0.743c0.2,0.143-0.114,0,0.601,0.286l1.114,0.485C23.263,34.685,27.55,35.542,28.035,35.457
	L28.035,35.457z"/>
<path fill-rule="evenodd" clip-rule="evenodd" fill="#6A6A6A" d="M64.986,56.29c0.543-1.058-0.314-0.571,0.914-1.601l-0.172-1.485
	c-0.914-0.029-0.171-0.144-0.914,0.571l-1.372,1.629l0.687,0.6C64.672,56.433,64.043,56.262,64.986,56.29L64.986,56.29z"/>
<path fill-rule="evenodd" clip-rule="evenodd" fill="#6A6A6A" d="M106.395,53.461c-0.114-1.229-0.657-0.715,0-1.857
	c0.629,0.086,1.144,0.057,0.601,1.629L106.395,53.461z M106.395,53.461c0.086,0.086-0.771,0.6,0.687,0.343
	c0.714-0.114,0.686-1.172,0.571-1.771c-0.2-1.2-0.771-1.086-2.058-1.001C105.28,52.403,105.194,53.318,106.395,53.461
	L106.395,53.461z"/>
<path fill-rule="evenodd" clip-rule="evenodd" fill="#6A6A6A" d="M77.331,60.977c0.857-0.057,0.801,0.086,1.772-0.972l-0.286-1.972
	c-1.429,0.058-0.657-0.028-1.114,0.429c-0.058,0.028-0.172,0.2-0.2,0.258L77.331,60.977z"/>
<path fill-rule="evenodd" clip-rule="evenodd" fill="#6A6A6A" d="M101.851,57.719c1.829,0.114,2.287-0.086,2.173-1.914
	c-0.857-0.144-0.629-0.229-1.63-0.286C102.165,56.233,101.937,56.861,101.851,57.719L101.851,57.719z"/>
<path fill-rule="evenodd" clip-rule="evenodd" fill="#6A6A6A" d="M96.107,42.973c0,0.257-0.029,0.543,0.028,0.829
	c0.143,0.828,0.485,0.828,1.286,0.828c0.229-0.257,0.399-0.171,0.571-1.058c0.057-0.428,0.057-1.171,0.086-1.629
	C96.593,42.372,98.107,41.943,96.107,42.973L96.107,42.973z"/>
<path fill-rule="evenodd" clip-rule="evenodd" fill="#6A6A6A" d="M48.64,54.061c-0.743,0.172-2.516,0.887-3.059,1.4
	c1.287,0.658,1.287,0.601,3.059,0.515V54.061z"/>
<path fill-rule="evenodd" clip-rule="evenodd" fill="#6A6A6A" d="M77.846,50.774c1.429,0,0.915-0.314,1.629-1.4
	c-0.429-0.485-0.543-0.771-0.943-1.229C76.96,48.66,77.246,49.603,77.846,50.774L77.846,50.774z"/>
<path fill-rule="evenodd" clip-rule="evenodd" fill="#6A6A6A" d="M96.136,56.176c-1.086-0.2-0.743-0.143-1.543,0.257
	c-0.829,0.429-0.772,0.114-0.857,1.2c0.742,0.286,1.429,0.372,2.457,0.086L96.136,56.176z"/>
<path fill-rule="evenodd" clip-rule="evenodd" fill="#6A6A6A" d="M41.323,50.546c0.857,0.371,2.144,0.314,3.287,0.2
	c0.086-1.314-0.43-1.086-1.629-1.115C41.724,49.603,41.438,49.402,41.323,50.546L41.323,50.546z"/>
<path fill-rule="evenodd" clip-rule="evenodd" fill="#C7C7C6" d="M121.284,18.824v-0.915c-1.058-0.543-0.801-1.2-2.43-2.343
	c-0.972-0.687-0.485-0.086-0.886-1.059h0.258c-1.286-0.342-0.629-0.457-1.715-0.714c-0.172,1,0.657,0.771,1.229,1.257l0.943,0.943
	C120.141,17.138,119.626,17.824,121.284,18.824L121.284,18.824z"/>
<path fill-rule="evenodd" clip-rule="evenodd" fill="#6A6A6A" d="M100.822,65.378c1.028,0.258,1.601-0.2,1.4-1.2
	c-0.058-0.343-0.372-0.686-0.457-0.8c-0.886,0.2-1.258,0.399-1.772,1C100.279,64.921,100.022,65.178,100.822,65.378L100.822,65.378z
	"/>
<path fill-rule="evenodd" clip-rule="evenodd" fill="#6A6A6A" d="M87.305,38c1.629,0.086,5.001-0.515,5.688-0.2
	c0.771,0.372-0.343,0.028,0.515,0.515c0.428,0.257,0.686-0.029,0.771-0.572c0-0.057,0-0.857,0-0.885L87.305,38z"/>
<path fill-rule="evenodd" clip-rule="evenodd" fill="#6A6A6A" d="M33.894,58.72c0.057-1.544-0.887-1.201-2.458-1.058
	c0,0.886,0.257,1.058,0.714,1.571C32.864,59.119,33.407,59.033,33.894,58.72L33.894,58.72z"/>
<path fill-rule="evenodd" clip-rule="evenodd" fill="#6A6A6A" d="M94.278,73.294l1.429-0.085l0.629-0.629l-0.086-1.029
	c-0.886-0.257-1.657,0.286-2.344,0.829L94.278,73.294z"/>
<path fill-rule="evenodd" clip-rule="evenodd" fill="#6A6A6A" d="M31.95,65.406c-0.572-0.657,0.086-0.229-0.857-0.686l-0.429,0.601
	c0.601,1.171,0.144,1.257,1.629,2.143C33.15,66.321,32.894,66.492,31.95,65.406L31.95,65.406z"/>
<path fill-rule="evenodd" clip-rule="evenodd" fill="#6A6A6A" d="M21.548,71.037c0.514,0.313,1,0.514,1.829,0.571
	c0-1.286-0.086-1.086-0.314-2.144l-1.229,0.143C21.634,70.008,21.548,70.408,21.548,71.037L21.548,71.037z"/>
<path fill-rule="evenodd" clip-rule="evenodd" fill="#6A6A6A" d="M115.911,10.765c-0.285-0.2-0.086-0.114-0.229-0.485
	c-0.686,0-2.344-1.115-4.43-1.887c-0.942-0.371-3.658-1.829-4.344-1.601c1.058,0.657,0.801,0.429,2.086,1.001l4.63,1.886
	C114.769,10.051,114.511,10.536,115.911,10.765L115.911,10.765z"/>
<path fill-rule="evenodd" clip-rule="evenodd" fill="#6A6A6A" d="M26.635,68.808l-0.114,0.829c-0.829-0.029-0.658,0.257-0.658-0.972
	l0.629-0.372c-0.6-0.543,0.744-0.571-0.714-0.429c-0.372,0.2-0.543,0.829-0.485,1.344c0.085,0.657,0.285,0.771,0.628,1.314
	c1.172-0.172,1.144-0.058,1.429-1.086C26.863,68.351,27.378,69.15,26.635,68.808L26.635,68.808z"/>
<path fill-rule="evenodd" clip-rule="evenodd" fill="#6A6A6A" d="M102.165,7.649l0.687-0.143c1.229,0.485,1.829,0.601,3.344,0.942
	c0.6,0.144,1.143,0.144,1.629,0.458c0.942,0.601,0.085,0.571,1.571,0.771c-0.257-0.229-1.429-1.172-1.629-1.229l-4.801-1.086
	c-1.229-0.199-1.286-0.543-2.4-0.742C101.508,7.649,101.423,7.078,102.165,7.649L102.165,7.649z"/>
<path fill-rule="evenodd" clip-rule="evenodd" fill="#9D9D9C" d="M24.634,76.209c-1.257-1.057-6.658-2.286-7.315-2.601
	c-1.314-0.629,0.114-0.229-2.429-1l2.172,1.286c0.8,0.343,1.8,0.286,2.4,0.629c0.971,0.571,0.086,0.371,0.828,0.485
	c0.572,0.114,0.915-0.028,1.629,0.172C23.005,75.495,22.834,75.924,24.634,76.209L24.634,76.209z"/>
<path fill-rule="evenodd" clip-rule="evenodd" fill="#6A6A6A" d="M109.31,49.088c0.915,0,1.314-0.229,1.887-0.686
	c-0.258-0.714-1.086-1.286-1.715-1.486C109.081,47.745,109.167,47.974,109.31,49.088L109.31,49.088z"/>
<path fill-rule="evenodd" clip-rule="evenodd" fill="#6A6A6A" d="M74.646,55.204c-0.458-0.028-1.715-0.143-2.058,0.058
	c-0.458,0.257-0.515,1.086-0.172,1.457C73.388,57.69,73.702,55.976,74.646,55.204L74.646,55.204z"/>
<path fill-rule="evenodd" clip-rule="evenodd" fill="#6A6A6A" d="M24.005,66.636c0.687-0.144,1.857-0.229,1.687-1.314
	c-0.229-1.486-1.314-0.486-1.915,0.257L24.005,66.636z"/>
<path fill-rule="evenodd" clip-rule="evenodd" fill="#6A6A6A" d="M120.341,25.14c-0.229,1.086-2.086,2.63-3.344,3.173l0.258-0.029
	c-0.286,0.6,0.057,0.314-0.458,0.743c1.115-0.314,3.173-2.114,3.915-3.115c0.515-0.686,0.115,0.2,0.4-0.886
	C120.569,25.396,121.026,25.197,120.341,25.14L120.341,25.14z"/>
<path fill-rule="evenodd" clip-rule="evenodd" fill="#6A6A6A" d="M22.634,46.916c0.028-0.628,0.229-1.571-0.285-1.857
	c-0.458-0.229-0.314-0.057-0.744,0.058c-0.971,0.314-0.342,0.171-0.656,0.371C20.919,46.174,20.747,46.802,22.634,46.916
	L22.634,46.916z"/>
<path fill-rule="evenodd" clip-rule="evenodd" fill="#6A6A6A" d="M97.164,50.603c-1.2-0.085-0.857,0.258-1.114,0.687
	c0.286,0.343-0.515,0.515,0.857,0.714c1.743,0.286,1.058-0.313,1.229-0.457C97.907,50.574,98.564,50.688,97.164,50.603
	L97.164,50.603z"/>
<path fill-rule="evenodd" clip-rule="evenodd" fill="#6A6A6A" d="M24.577,43.315c0.514,0.058,3.172,0.829,1.486-1
	c-0.43-0.457-0.572-0.543-1.344-0.543L24.577,43.315z"/>
<path fill-rule="evenodd" clip-rule="evenodd" fill="#C7C7C6" d="M116.997,28.313c1.258-0.543,3.115-2.087,3.344-3.173
	c-0.515,0-0.429-0.515-0.429,0.086c-1.058,0.601-1.486,1.829-2.743,2.286L116.997,28.313z"/>
<path fill-rule="evenodd" clip-rule="evenodd" fill="#C7C7C6" d="M110.824,31.541l0.629-0.086c0.686-0.285,1.458-0.771,2.4-1
	c0.144-0.114,0.4-0.343,0.629-0.514l0.829-0.629c-2.601,0.171-1.029,0.229-2.201,0.914c-0.257,0.143-1.543,0.457-1.972,0.657
	L110.824,31.541z"/>
<path fill-rule="evenodd" clip-rule="evenodd" fill="#6A6A6A" d="M39.837,66.778c0.687,0.286,0.715,0.172,1.4-0.086l-0.028-1.286
	c-0.429-0.257-0.601-0.457-1.229-0.399C39.666,65.636,39.81,66.692,39.837,66.778L39.837,66.778z"/>
<path fill-rule="evenodd" clip-rule="evenodd" fill="#9D9D9C" d="M105.166,33.428v0.514c1.972-0.199,1.029,0,2.344-0.6l1.943-1
	c-0.857,0.057-1.772,0.086-2.516,0.428C105.938,33.17,106.538,33.256,105.166,33.428L105.166,33.428z"/>
<path fill-rule="evenodd" clip-rule="evenodd" fill="#6A6A6A" d="M3.544,65.264H3.458c0.057,0.058,0.114,0.058,0.143,0.172
	c0.029,0.085,2.029,1.829,2.916,2.229c-0.601-1.229-1.858-1.114-2.801-3.687L2.63,63.721C3.286,64.721,3.2,64.035,3.544,65.264
	L3.544,65.264z"/>
<path fill-rule="evenodd" clip-rule="evenodd" fill="#6A6A6A" d="M45.096,68.293c0.372-0.2,0.4-0.028,0.687-0.6
	c0.485-1.058,0.543-1.887-0.857-1.887C44.753,67.007,44.696,67.379,45.096,68.293L45.096,68.293z"/>
<path fill-rule="evenodd" clip-rule="evenodd" fill="#6A6A6A" d="M100.107,35.714c0.4,0.058,0.086,0.171,0.743,0.028l1.857-0.543
	c2.315-0.429,2.058-0.457,2.458-1.143l-4.458,1.171C100.051,35.628,100.422,35.371,100.107,35.714L100.107,35.714z"/>
<path fill-rule="evenodd" clip-rule="evenodd" fill="#6A6A6A" d="M47.411,72.494c1.028,0.343,1.828,0.371,3.086,0.143
	c0.086-0.657,0.285-0.057-0.715-0.514c-0.657-0.286-0.971-0.458-1.314-0.915C48.097,71.865,47.896,72.065,47.411,72.494
	L47.411,72.494z"/>
<path fill-rule="evenodd" clip-rule="evenodd" fill="#6A6A6A" d="M8.631,69.437c0.8,0.314,1.343,1,2.458,1.4
	c-0.229-0.687-0.029-0.372-0.458-0.743c-0.143-0.144-0.286-0.172-0.515-0.286c-1.086-0.571-0.656-0.485-1.343-1
	c-1.543-1.144-0.743-0.829-2.172-1.144c0.343,0.486-0.171,0.058,0.571,0.601l1.058,0.629C8.603,69.236,8.316,68.95,8.631,69.437
	L8.631,69.437z"/>
<path fill-rule="evenodd" clip-rule="evenodd" fill="#6A6A6A" d="M76.589,56.004c-0.172,0.172-0.829-0.229-0.515,1.887l1.286-0.028
	C77.503,56.033,77.16,56.29,76.589,56.004L76.589,56.004z"/>
<path fill-rule="evenodd" clip-rule="evenodd" fill="#6A6A6A" d="M5.229,16.451h0.457c0.201-0.686,0.058-0.314,0.43-0.828
	c0.229-0.371,0.229-0.429,0.457-0.715c0.285-0.314,1.285-0.857,1.629-1.028c0.6-0.571,0,0.058,0.571-0.4
	c0.515-0.399,0.171,0.028,0.571-0.628c-1.371,0.285-1.314,0.656-2.515,1.399C5.944,14.794,5.573,15.252,5.229,16.451L5.229,16.451z"
	/>
<path fill-rule="evenodd" clip-rule="evenodd" fill="#6A6A6A" d="M17.318,43.544c0,0.372-0.086,1.086,0.085,1.4
	C18.261,46.373,20.204,43.43,17.318,43.544L17.318,43.544z"/>
<path fill-rule="evenodd" clip-rule="evenodd" fill="#6A6A6A" d="M2.486,51.289c0.372,0.6,0.543,0.686,1.515,0.543
	c0.857-0.114,0.801-0.258,0.943-0.771c-0.429-0.258,0.086-0.114-0.686-0.229C2.372,50.574,2.687,50.975,2.486,51.289L2.486,51.289z"
	/>
<path fill-rule="evenodd" clip-rule="evenodd" fill="#6A6A6A" d="M91.135,51.832c1.371,0.571,1.657-1.114-0.829-1.572
	C90.277,51.432,90.105,51.432,91.135,51.832L91.135,51.832z"/>
<path fill-rule="evenodd" clip-rule="evenodd" fill="#6A6A6A" d="M90.334,46.03c0.687-0.086,1.029-0.2,1.601-0.429v-1.4
	C89.991,44.516,90.306,45.431,90.334,46.03L90.334,46.03z"/>
<path fill-rule="evenodd" clip-rule="evenodd" fill="#6A6A6A" d="M25.463,52.604c2.4,0.914,2.114-0.343,2.114-0.343
	c-0.285-0.571,0.086-0.343-0.571-0.571c-0.028,0-0.714-0.029-0.743-0.029C25.435,51.804,25.634,51.889,25.463,52.604L25.463,52.604z
	"/>
<path fill-rule="evenodd" clip-rule="evenodd" fill="#6A6A6A" d="M116.512,13.794c1.086,0.257,0.429,0.372,1.715,0.714
	c-0.829-1.485-0.772-0.457-2.087-1.8c-0.514-0.543-1.715-1.086-2.657-1.372l0.371,0.543c0.2,0.172,0.114,0.086,0.486,0.258
	C115.197,12.537,116.083,12.537,116.512,13.794L116.512,13.794z"/>
<path fill-rule="evenodd" clip-rule="evenodd" fill="#6A6A6A" d="M87.905,52.689c-1.2-0.172-0.686-0.029-1,0.543
	c0.199,0.229-0.486,0.686,1.057,0.686c1.144,0,0.857-0.285,1.029-0.429C88.791,53.146,88.734,52.804,87.905,52.689L87.905,52.689z"
	/>
<path fill-rule="evenodd" clip-rule="evenodd" fill="#6A6A6A" d="M18.919,65.721c0.343-2.629-1.601-1.543-1.43-0.085
	C18.404,66.007,17.976,65.949,18.919,65.721L18.919,65.721z"/>
<path fill-rule="evenodd" clip-rule="evenodd" fill="#6A6A6A" d="M50.983,43.115c0.199,0.229,0.543,0.515,0.942,0.715
	c0.771,0.343,0.515,0.371,1.172-0.286C52.669,41.572,50.983,43.115,50.983,43.115L50.983,43.115z"/>
<path fill-rule="evenodd" clip-rule="evenodd" fill="#6A6A6A" d="M19.233,62.892c0.656-1.286,0.514-2.029-1.086-2.086
	c0.086,0.886-0.058,0.314,0.371,1.2C18.833,62.691,18.633,62.577,19.233,62.892L19.233,62.892z"/>
<path fill-rule="evenodd" clip-rule="evenodd" fill="#9D9D9C" d="M122.484,64.578c-0.286,0.771-0.343,0.972-0.972,1.429
	c-0.086,0.058-0.429,0.257-0.571,0.4c-0.515,0.485-0.314,0.399-0.429,0.743c0.714-0.344,0.429-0.258,1.057-0.887
	c0.4-0.457,0.543-0.485,0.887-0.972c0.571-0.8,1.285-2.028,1.143-3c-0.314,0.229-0.143-0.086-0.429,0.514
	c-0.114,0.258-0.086,0.372-0.229,0.715C122.655,64.178,122.599,63.892,122.484,64.578L122.484,64.578z"/>
<path fill-rule="evenodd" clip-rule="evenodd" fill="#6A6A6A" d="M122.827,37.285c0.8-0.229,0.771-0.314,1.2-1
	c-0.172-0.114-0.2-0.514-1.429-0.686C122.198,36.457,122.256,36.543,122.827,37.285L122.827,37.285z"/>
<path fill-rule="evenodd" clip-rule="evenodd" fill="#6A6A6A" d="M88.705,45.287c0.458-0.657,0.601-1.771,0-2.486
	c-0.571,0.372-0.857,0.829-0.457,1.915C88.591,45.688,88.391,45.002,88.705,45.287L88.705,45.287z"/>
<path fill-rule="evenodd" clip-rule="evenodd" fill="#6A6A6A" d="M120.169,13.766l-0.485-0.715c-0.429-0.571,0,0.229-0.485-0.743
	l-0.372-0.114c-0.343-0.114-1.4-0.629-1.601-0.771c-0.8-0.571-0.257-0.801-1.314-0.657c1.229,1.314,2.858,1.857,3.029,2.001
	C119.569,13.137,119.169,13.193,120.169,13.766L120.169,13.766z"/>
<path fill-rule="evenodd" clip-rule="evenodd" fill="#6A6A6A" d="M19.005,52.66c-1.314,0.086-0.601,1.486-0.115,2.173l0.743-1.973
	C19.09,52.604,20.319,52.575,19.005,52.66L19.005,52.66z"/>
<path fill-rule="evenodd" clip-rule="evenodd" fill="#9D9D9C" d="M115.911,10.765c1.058-0.144,0.515,0.086,1.314,0.657
	c0.2,0.143,1.258,0.657,1.601,0.771c-0.457-1.343-0.314-0.4-1.343-1.314c-0.715-0.629-0.657-0.686-1.801-0.6
	C115.825,10.65,115.626,10.564,115.911,10.765L115.911,10.765z"/>
<path fill-rule="evenodd" clip-rule="evenodd" fill="#6A6A6A" d="M46.925,70.008l0.057-0.972l-1.629-0.114
	C45.382,70.322,45.839,70.465,46.925,70.008L46.925,70.008z"/>
<path fill-rule="evenodd" clip-rule="evenodd" fill="#6A6A6A" d="M56.983,59.263c0.4-1.172,0.486-1.486-1-1.458
	C55.612,59.605,55.698,59.063,56.983,59.263L56.983,59.263z"/>
<path fill-rule="evenodd" clip-rule="evenodd" fill="#9D9D9C" d="M115.312,29.313l-0.829,0.629
	c-0.229,0.171-0.485,0.399-0.629,0.514l1.458-0.571c0.686-0.314,1.2-0.743,1.485-0.857c0.515-0.429,0.172-0.144,0.458-0.743
	l-0.915,0.143L115.312,29.313z"/>
<path fill-rule="evenodd" clip-rule="evenodd" fill="#9D9D9C" d="M8.631,69.437c-0.314-0.486-0.028-0.2-0.4-0.543l-1.058-0.629
	c-0.742-0.543-0.229-0.114-0.571-0.601H6.517c-0.887-0.399-2.887-2.144-2.916-2.229c-0.028-0.114-0.086-0.114-0.143-0.172
	C4.115,67.007,6.916,68.236,8.631,69.437L8.631,69.437z"/>
<path fill-rule="evenodd" clip-rule="evenodd" fill="#6A6A6A" d="M3.43,54.519c1.314,0.399,1.257-0.972,0.829-1.715
	c-0.516,0.114-0.543-0.058-0.801,0.6C3.229,53.946,3.344,54.032,3.43,54.519L3.43,54.519z"/>
<path fill-rule="evenodd" clip-rule="evenodd" fill="#6A6A6A" d="M73.131,47.288c0.571-0.114,0.771-0.058,1.2-0.429
	c0.6-0.543,0.257-0.086,0.371-0.915h-1.571V47.288z"/>
<path fill-rule="evenodd" clip-rule="evenodd" fill="#6A6A6A" d="M111.539,62.435c0.429,0.371-0.114,0.2,0.629,0.4
	c1.4,0.371,1.543-0.715,1.543-0.715C112.882,61.749,112.282,61.577,111.539,62.435L111.539,62.435z"/>
<path fill-rule="evenodd" clip-rule="evenodd" fill="#6A6A6A" d="M35.551,55.404c-0.629,0.286,0,0.371-0.771,0.028
	C35.208,54.775,34.979,54.489,35.551,55.404L35.551,55.404z M35.808,55.747c0.43-0.515,0.286-1.715-1.229-1
	c-0.057,0.057-0.114,0.143-0.114,0.2c-0.028,0.057-0.058,0.171-0.058,0.229c-0.113,0.399-0.057,0.057-0.028,0.6
	c0.314,0.114,0.372,0.229,0.829,0.229C36.437,55.976,35.322,56.033,35.808,55.747L35.808,55.747z"/>
<path fill-rule="evenodd" clip-rule="evenodd" fill="#6A6A6A" d="M29.893,65.921c-0.915-1.114,0.229,0.886-0.114-0.343l-0.371-0.972
	l-0.973,0.257l-0.028,1.115L29.893,65.921z"/>
<path fill-rule="evenodd" clip-rule="evenodd" fill="#6A6A6A" d="M67.158,50.832c-0.772-0.058-1.286,0.114-1.801,0.371
	c0.457,0.457,0.485,0.857,1.314,0.943C66.986,51.746,67.129,51.546,67.158,50.832L67.158,50.832z"/>
<path fill-rule="evenodd" clip-rule="evenodd" fill="#9D9D9C" d="M3.144,65.007l0.4,0.257C3.2,64.035,3.286,64.721,2.63,63.721
	l-1.029-2.258C0.972,63.12,2.944,64.292,3.144,65.007L3.144,65.007z"/>
<path fill-rule="evenodd" clip-rule="evenodd" fill="#6A6A6A" d="M108.396,71.294c1.114-0.143,1.058-2.315,0-2.43V71.294z"/>
<path fill-rule="evenodd" clip-rule="evenodd" fill="#9D9D9C" d="M106.395,53.461l0.601-0.229c0.543-1.572,0.028-1.543-0.601-1.629
	C105.737,52.746,106.28,52.232,106.395,53.461L106.395,53.461z"/>
<path fill-rule="evenodd" clip-rule="evenodd" fill="#6A6A6A" d="M70.559,59.348c0.743-0.399,0.457-0.314,0.771-1.086
	c-0.8-0.229-0.543-0.257-1.571-0.257C69.844,59.119,69.787,58.919,70.559,59.348L70.559,59.348z"/>
<path fill-rule="evenodd" clip-rule="evenodd" fill="#6A6A6A" d="M102.251,50.917c-1.2,0-0.657,0.314-0.8,0.629
	c0.429,0.314-0.629,0.314,0.8,0.343c1.486,0.029,0.429-0.057,0.771-0.343C102.88,51.117,103.595,50.889,102.251,50.917
	L102.251,50.917z"/>
<path fill-rule="evenodd" clip-rule="evenodd" fill="#6A6A6A" d="M78.932,54.604c0.343-0.171,0.543-1.143-0.629-1.371
	c-0.257,0.343-0.257-0.515-0.285,0.714C78.018,54.375,78.132,54.947,78.932,54.604L78.932,54.604z"/>
<path fill-rule="evenodd" clip-rule="evenodd" fill="#9D9D9C" d="M117.826,68.779c-0.486,0.257-0.715,0.485-1.086,0.657
	c-0.114,0.229-0.4,0.743-0.515,0.942l3.001-2.058c0.143-0.199,0.171-0.314,0.257-0.485l-0.571,0.114
	c-0.4,0.601,0.485-0.143-0.457,0.543C117.969,68.864,118.54,68.521,117.826,68.779L117.826,68.779z"/>
<path fill-rule="evenodd" clip-rule="evenodd" fill="#6A6A6A" d="M118.912,67.95l0.571-0.114l1.029-0.686
	c0.114-0.344-0.086-0.258,0.429-0.743c0.143-0.144,0.485-0.343,0.571-0.4c0.629-0.457,0.686-0.657,0.972-1.429
	c-0.058,0.028-0.144,0.086-0.2,0.143l-0.4,0.429C120.712,66.55,119.483,67.321,118.912,67.95L118.912,67.95z"/>
<path fill-rule="evenodd" clip-rule="evenodd" fill="#6A6A6A" d="M38.409,56.805c0.971,0,0.828,0.028,1.4-0.429
	c-0.258-0.515,0.399-1.2-0.915-0.601C38.037,56.176,38.638,55.947,38.409,56.805L38.409,56.805z"/>
<path fill-rule="evenodd" clip-rule="evenodd" fill="#6A6A6A" d="M96.278,49.603c-0.114-0.515,0.2-1.4-1.314-0.485
	c0.2,0.457-0.229,0.629,0.515,0.8C96.479,50.146,96.278,49.603,96.278,49.603L96.278,49.603z"/>
<path fill-rule="evenodd" clip-rule="evenodd" fill="#6A6A6A" d="M106.395,45.716c0.086-0.914-0.114-0.629-0.771-0.743
	c-0.028,0.058-0.686-0.057,0,1.486C106.166,46.202,106.338,46.431,106.395,45.716L106.395,45.716z"/>
<path fill-rule="evenodd" clip-rule="evenodd" fill="#6A6A6A" d="M13.917,48.374c-0.399,1.486-0.057,2.086,1.201,1
	C14.86,49.031,14.289,48.688,13.917,48.374L13.917,48.374z"/>
<path fill-rule="evenodd" clip-rule="evenodd" fill="#6A6A6A" d="M42.495,64.063c0.515-0.715,0.457-0.515,0.143-1.314l-1.028,0.257
	C41.694,63.921,41.638,63.892,42.495,64.063L42.495,64.063z"/>
<path fill-rule="evenodd" clip-rule="evenodd" fill="#6A6A6A" d="M35.979,52.775c0.715,0,0.172,0.028,0.657-0.258l-0.058-0.914
	c-0.885,0.2-0.914,0.086-1.4,0.914C35.522,52.66,35.751,52.775,35.979,52.775L35.979,52.775z"/>
<path fill-rule="evenodd" clip-rule="evenodd" fill="#6A6A6A" d="M60.385,63.264C58.87,65.692,62.242,65.406,60.385,63.264
	L60.385,63.264z"/>
<path fill-rule="evenodd" clip-rule="evenodd" fill="#9D9D9C" d="M10.831,31.227c-1.057-1.114-1.6-0.229-0.828,1.115L10.831,31.227z
	"/>
<path fill-rule="evenodd" clip-rule="evenodd" fill="#C7C7C6" d="M3.973,19.31c0.515-0.171,0.229,0.086,0.571-0.399
	c0.057-0.115,0.2-0.486,0.286-0.658c0.571-0.886,0.543-0.028,0.714-1.229l-0.771,0.686c-0.257,0.229-0.629,0.601-0.828,0.771
	L3.973,19.31z"/>
<path fill-rule="evenodd" clip-rule="evenodd" fill="#6A6A6A" d="M14.86,9.936l5.002-1.771c-3.43,0.371-2.001,0.715-3.744,1.172
	C15.231,9.564,15.461,9.25,14.86,9.936L14.86,9.936z"/>
<path fill-rule="evenodd" clip-rule="evenodd" fill="#9D9D9C" d="M110.824,31.541l0.114,0.143c1.544,0.086,1.772-0.629,2.915-0.828
	v-0.4c-0.942,0.229-1.715,0.715-2.4,1L110.824,31.541z"/>
<path fill-rule="evenodd" clip-rule="evenodd" fill="#6A6A6A" d="M37.751,40.887c-0.057,0.399-0.656-0.429-0.028,0.686
	c0.485,0.886-0.085,0.172,0.657,0.457l0.286-0.429c0.114-1.058,0-0.399-0.086-0.686L37.751,40.887z"/>
<path fill-rule="evenodd" clip-rule="evenodd" fill="#9D9D9C" d="M109.339,32.513c0.771,0.028,0.485,0.058,1-0.171
	c1.257-0.601,0.314-0.229,0.6-0.658c-0.343-0.057-0.485-0.285-1.086,0.086C109.167,32.17,109.567,31.97,109.339,32.513
	L109.339,32.513z"/>
<path fill-rule="evenodd" clip-rule="evenodd" fill="#9D9D9C" d="M39.608,53.718l0.058,0.114c0.257-0.429-0.028-0.429,0.286-0.6
	c-0.258-0.457-0.372-0.972-0.887-0.972l-0.113,1.314L39.608,53.718z"/>
<path fill-rule="evenodd" clip-rule="evenodd" fill="#6A6A6A" d="M33.607,60.263c0.314,0.343,0.229,1.257,1.286,0.229
	C34.579,59.491,34.294,59.634,33.607,60.263L33.607,60.263z"/>
<path fill-rule="evenodd" clip-rule="evenodd" fill="#6A6A6A" d="M99.594,53.061l0.714-0.543c-0.2-0.914-0.028-0.571-0.743-0.972
	C99.165,52.289,99.165,52.261,99.594,53.061L99.594,53.061z"/>
<path fill-rule="evenodd" clip-rule="evenodd" fill="#9D9D9C" d="M13.003,71.979c-0.199-0.257-0.143-0.229-0.371-0.485
	c-0.572-0.601,0.343,0.2-0.258-0.229c-0.4-0.314-0.428-0.344-1.086-0.4c0.2,0.571-0.143,0.457,0.601,0.886
	C12.403,72.065,12.546,71.951,13.003,71.979L13.003,71.979z"/>
<path fill-rule="evenodd" clip-rule="evenodd" fill="#6A6A6A" d="M6.373,26.683c-0.457-0.771,0.086-0.257-0.687-0.8
	c-0.457-0.286-0.57-0.258-1-0.429C4.772,26.482,5.345,26.512,6.373,26.683L6.373,26.683z"/>
<path fill-rule="evenodd" clip-rule="evenodd" fill="#6A6A6A" d="M114.968,70.579l1.258-0.2c0.114-0.199,0.4-0.714,0.515-0.942
	C115.883,69.779,114.968,69.865,114.968,70.579L114.968,70.579z"/>
<path fill-rule="evenodd" clip-rule="evenodd" fill="#6A6A6A" d="M80.961,55.861c0.485-0.914,0.086-0.886-0.543-1.229
	C79.932,55.604,79.989,55.719,80.961,55.861L80.961,55.861z"/>
<path fill-rule="evenodd" clip-rule="evenodd" fill="#9D9D9C" d="M26.635,68.808l-0.144-0.515l-0.629,0.372
	c0,1.229-0.171,0.942,0.658,0.972L26.635,68.808z"/>
<polygon fill-rule="evenodd" clip-rule="evenodd" fill="#C7C7C6" points="124.713,19.367 124.57,17.566 123.599,17.252 "/>
<path fill-rule="evenodd" clip-rule="evenodd" fill="#9D9D9C" d="M5.687,16.451c0.43-0.428,0.801-1,1.229-1.457
	c0.687-0.686,0.857-0.371,1.286-1.114c-0.344,0.171-1.344,0.714-1.629,1.028c-0.229,0.286-0.229,0.344-0.457,0.715
	C5.744,16.137,5.888,15.766,5.687,16.451L5.687,16.451z"/>
<path fill-rule="evenodd" clip-rule="evenodd" fill="#C7C7C6" d="M3.944,14.48c0.914-0.458,0.028,0.342,0.8-0.458
	c0.399-0.429,0.144-0.058,0.314-0.657C4.03,13.365,4.173,13.395,3.944,14.48L3.944,14.48z"/>
<path fill-rule="evenodd" clip-rule="evenodd" fill="#6A6A6A" d="M68.329,55.976c0.2-0.143,0.715-0.171,0.629-0.743
	c-0.028-0.314-0.429-0.629-0.686-0.8L68.329,55.976z"/>
<path fill-rule="evenodd" clip-rule="evenodd" fill="#6A6A6A" d="M75.874,45.716c0-0.085,0.086-0.429,0.057-0.485
	c-0.313-0.601,0.029-0.258-0.657-0.572C74.874,46.002,74.988,45.459,75.874,45.716L75.874,45.716z"/>
<path fill-rule="evenodd" clip-rule="evenodd" fill="#6A6A6A" d="M84.133,65.778c0.686-0.058,0.429,0.028,0.886-0.229
	c-0.229-0.657-0.114-0.572-0.886-0.657V65.778z"/>
<path fill-rule="evenodd" clip-rule="evenodd" fill="#6A6A6A" d="M55.126,44.944c0.687-0.2,0.658-0.2,0.915-0.857h-0.942
	L55.126,44.944z"/>
<path fill-rule="evenodd" clip-rule="evenodd" fill="#6A6A6A" d="M71.158,77.438c0.515,0.857,1.001,0.514,1.458-0.172L71.158,77.438
	z"/>
<path fill-rule="evenodd" clip-rule="evenodd" fill="#6A6A6A" d="M113.854,30.455v0.4c0.543-0.114,0.314,0.057,0.801-0.286
	c0.828-0.543-0.486,0.485,0.285-0.229c0.258-0.229,0.172-0.229,0.372-0.457L113.854,30.455z"/>
<path fill-rule="evenodd" clip-rule="evenodd" fill="#6A6A6A" d="M38.181,64.32c0.6-0.543,0.457-1.028-0.058-1.343
	C37.866,63.521,38.009,63.892,38.181,64.32L38.181,64.32z"/>
<path fill-rule="evenodd" clip-rule="evenodd" fill="#6A6A6A" d="M44.438,54.947c-0.715,0.028-0.114-0.086-0.371,0.457
	c0.199,0.086-0.314,0.686,0.857,0C44.696,54.947,45.21,54.918,44.438,54.947L44.438,54.947z"/>
<path fill-rule="evenodd" clip-rule="evenodd" fill="#6A6A6A" d="M12.489,11.279l1.857-1.172
	C13.403,10.25,12.746,10.45,12.489,11.279L12.489,11.279z"/>
<path fill-rule="evenodd" clip-rule="evenodd" fill="#6A6A6A" d="M117.826,68.779c0.714-0.258,0.143,0.085,0.629-0.286
	c0.942-0.686,0.057,0.058,0.457-0.543c-0.629,0.028-0.314-0.143-0.771,0.2C117.712,68.493,118.083,68.179,117.826,68.779
	L117.826,68.779z"/>
<path fill-rule="evenodd" clip-rule="evenodd" fill="#6A6A6A" d="M13.86,67.808c0.686,0.143,0.6,0.028,0.715-0.601l-0.801-0.057
	L13.86,67.808z"/>
<path fill-rule="evenodd" clip-rule="evenodd" fill="#9D9D9C" d="M34.779,55.433c0.771,0.343,0.143,0.258,0.771-0.028
	C34.979,54.489,35.208,54.775,34.779,55.433L34.779,55.433z"/>
<path fill-rule="evenodd" clip-rule="evenodd" fill="#9D9D9C" d="M119.483,67.836c0.657-0.172,0.258,0.086,0.601-0.172
	c0.714-0.457,0.229,0,0.429-0.514L119.483,67.836z"/>
</svg>
