<?xml version="1.0" encoding="utf-8"?>
<!-- Generator: Adobe Illustrator 15.0.0, SVG Export Plug-In . SVG Version: 6.00 Build 0)  -->
<!DOCTYPE svg PUBLIC "-//W3C//DTD SVG 1.1//EN" "http://www.w3.org/Graphics/SVG/1.1/DTD/svg11.dtd">
<svg version="1.1" id="Layer_1" xmlns="http://www.w3.org/2000/svg" xmlns:xlink="http://www.w3.org/1999/xlink" x="0px" y="0px"
	 width="32px" height="32px" viewBox="0 0 32 32" enable-background="new 0 0 32 32" xml:space="preserve">
<g>
	<path fill="#CC3333" d="M30.809,15.318l-1.513,0.214c0.013,0.303,0.04,0.603,0.03,0.912c-0.246,7.358-6.41,13.127-13.769,12.883
		c-5.391-0.179-9.917-3.54-11.862-8.216L2.256,21.56c2.135,5.268,7.206,9.065,13.252,9.266c8.188,0.271,15.045-6.144,15.317-14.333
		C30.838,16.097,30.828,15.706,30.809,15.318z"/>
	<polygon fill="#CC3333" points="30.043,12.888 31.813,16.475 28.272,16.475 	"/>
	<path fill="#339933" d="M2.675,15.557C2.919,8.197,9.083,2.43,16.443,2.675c5.391,0.179,9.916,3.54,11.861,8.215l1.439-0.451
		c-2.133-5.266-7.204-9.063-13.251-9.264C8.306,0.903,1.448,7.32,1.175,15.508c-0.013,0.396-0.003,0.787,0.016,1.175l1.489-0.21
		C2.668,16.169,2.664,15.865,2.675,15.557z"/>
	<polygon fill="#339933" points="1.973,18.225 0.203,14.638 3.743,14.638 	"/>
</g>
</svg>
