<?xml version="1.0" encoding="utf-8"?>
<!-- Generator: Adobe Illustrator 15.0.0, SVG Export Plug-In . SVG Version: 6.00 Build 0)  -->
<!DOCTYPE svg PUBLIC "-//W3C//DTD SVG 1.1 Tiny//EN" "http://www.w3.org/Graphics/SVG/1.1/DTD/svg11-tiny.dtd">
<svg version="1.1" baseProfile="tiny" id="Layer_1" xmlns="http://www.w3.org/2000/svg" xmlns:xlink="http://www.w3.org/1999/xlink"
	 x="0px" y="0px" width="1063.447px" height="497.5px" viewBox="0 102.5 1063.447 497.5" xml:space="preserve">
<path d="M566.336,125.43H271.579c-29.013,0-52.763,23.75-52.763,52.763v316.596c0,29.013,23.736,52.77,52.763,52.77h316.596
	c29.015,0,52.771-23.757,52.771-52.77V207.917L566.336,125.43z M535.418,283.725c0,14.507-11.896,26.384-26.404,26.384H350.72
	c-14.525,0-26.385-11.877-26.385-26.384V151.808h211.058v131.917H535.418z M509.027,178.193h-52.771v105.532h52.771V178.193z"/>
<g>
	<path d="M768.136,422.815l-1.282-16.675c-3.849-34.63,7.695-72.467,39.761-110.944c28.857-33.989,44.891-59,44.891-87.858
		c0-32.706-20.521-54.51-60.923-55.151c-23.087,0-48.738,7.696-64.771,19.88l-15.392-40.402
		c21.163-15.391,57.717-25.652,91.705-25.652c73.749,0,107.097,45.532,107.097,94.271c0,43.608-24.369,75.032-55.15,111.586
		c-28.217,33.348-38.479,61.564-36.555,94.271l0.643,16.674L768.136,422.815L768.136,422.815z M754.027,512.597
		c0-23.728,16.031-40.4,38.478-40.4s37.837,16.674,37.837,40.4c0,22.445-14.75,39.762-38.479,39.762
		C769.418,552.357,754.027,535.042,754.027,512.597z"/>
</g>
</svg>
