<?xml version="1.0" encoding="utf-8"?><!-- Generated by IcoMoon.io --><!DOCTYPE svg PUBLIC "-//W3C//DTD SVG 1.1//EN" "http://www.w3.org/Graphics/SVG/1.1/DTD/svg11.dtd"><svg version="1.1" xmlns="http://www.w3.org/2000/svg" xmlns:xlink="http://www.w3.org/1999/xlink" width="33" height="32" viewBox="0 0 33 32"><rect width="100%" height="100%" fill="none" /><g fill="#444" transform="scale(0.03125 0.03125)"><path d="M992 0h-928c-26.304 0-64 37.696-64 64v896c0 26.304 37.696 64 64 64h928c26.304 0 64-37.696 64-64v-896c0-26.304-37.696-64-64-64zM1024 960c-0.192 9.088-22.912 31.808-32 32h-928c-9.088-0.192-31.808-22.912-32-32v-896c0.192-9.088 22.912-31.808 32-32h928c9.088 0.192 31.808 22.912 32 32v896zM528 176c-35.296 0-64 28.704-64 64s28.704 64 64 64 64-28.704 64-64-28.704-64-64-64zM528 272c-17.632 0-32-14.368-32-32s14.368-32 32-32 32 14.368 32 32-14.368 32-32 32zM784 688c-35.296 0-64 28.704-64 64s28.704 64 64 64 64-28.704 64-64-28.704-64-64-64zM784 784c-17.632 0-32-14.368-32-32s14.368-32 32-32 32 14.368 32 32-14.368 32-32 32zM272 528c-35.296 0-64 28.704-64 64s28.704 64 64 64 64-28.704 64-64-28.704-64-64-64zM272 624c-17.632 0-32-14.368-32-32s14.368-32 32-32 32 14.368 32 32-14.368 32-32 32zM272 480c8.832 0 16-7.168 16-16v-288c0-8.832-7.168-16-16-16s-16 7.168-16 16v288c0 8.832 7.168 16 16 16zM272 704c-8.832 0-16 7.168-16 16v96c0 8.832 7.168 16 16 16s16-7.168 16-16v-96c0-8.832-7.168-16-16-16zM528 352c-8.832 0-16 7.168-16 16v448c0 8.832 7.168 16 16 16s16-7.168 16-16v-448c0-8.832-7.168-16-16-16zM784 640c8.832 0 16-7.168 16-16v-448c0-8.832-7.168-16-16-16s-16 7.168-16 16v448c0 8.832 7.168 16 16 16z" /></g></svg>