<?xml version="1.0" encoding="utf-8"?><!-- Generated by IcoMoon.io --><!DOCTYPE svg PUBLIC "-//W3C//DTD SVG 1.1//EN" "http://www.w3.org/Graphics/SVG/1.1/DTD/svg11.dtd"><svg version="1.1" xmlns="http://www.w3.org/2000/svg" xmlns:xlink="http://www.w3.org/1999/xlink" width="32" height="32" viewBox="0 0 32 32"><rect width="100%" height="100%" fill="none" /><g fill="#444" transform="scale(0.03125 0.03125)"><path d="M0 1007.328c0 8.832 7.168 16 16 16h995.552c2.144 0 4.224-0.416 6.176-1.248s3.712-2.016 5.184-3.488c0.032-0.032 0.064-0.032 0.096-0.064 0.096-0.096 0.096-0.288 0.224-0.384 1.632-1.76 2.688-3.904 3.424-6.24 0.224-0.736 0.32-1.44 0.448-2.208 0.128-0.8 0.48-1.504 0.48-2.336 0-1.28-0.448-2.4-0.736-3.584-0.096-0.448 0.096-0.896-0.064-1.344l-101.12-310.88c-0.768-2.4-2.112-4.608-3.904-6.368l-547.744-547.776c-0.576-0.896-0.992-1.856-1.76-2.656l-119.648-119.648c-19.424-19.424-51.040-19.424-70.496 0l-167.52 167.52c-9.408 9.408-14.592 21.92-14.592 35.232s5.184 25.856 14.592 35.264l116.992 116.992c0.576 0.864 0.96 1.856 1.728 2.624l546.88 550.56c1.888 1.92 4.192 3.296 6.784 4.064l214.816 64-885.792 0c-8.832-0.032-16 7.136-16 15.968zM203.584 325.152l501.984 495.552-18.464 64.064-519.84-523.296 36.32-36.32zM730.112 800l-503.936-497.44 77.984-77.984 499.424 500.736v74.688h-73.472zM823.52 700l-496.736-498.048 33.248-33.248 518.752 518.752-55.264 12.544zM735.616 832h83.968c8.832 0 16-7.168 16-16v-85.92l64.224-14.592 87.136 267.84-271.616-80.928 20.288-70.4zM32 217.856c0-4.768 1.856-9.216 5.216-12.608l167.52-167.52c6.944-6.944 18.24-6.976 25.248 0l107.904 107.904-192.736 192.736-107.904-107.904c-3.392-3.36-5.248-7.84-5.248-12.608z" /></g></svg>