<?xml version="1.0" encoding="utf-8"?>
<!-- Generator: Adobe Illustrator 15.0.0, SVG Export Plug-In . SVG Version: 6.00 Build 0)  -->
<!DOCTYPE svg PUBLIC "-//W3C//DTD SVG 1.1//EN" "http://www.w3.org/Graphics/SVG/1.1/DTD/svg11.dtd">
<svg version="1.1" id="Layer_1" xmlns="http://www.w3.org/2000/svg" xmlns:xlink="http://www.w3.org/1999/xlink" x="0px" y="0px"
	 width="691.667px" height="32px" viewBox="0 0 691.667 32" enable-background="new 0 0 691.667 32" xml:space="preserve">
<path fill="#444444" d="M34,30.5v-19c0-0.276-0.225-0.5-0.5-0.5S33,11.224,33,11.5v19c0,0.275-0.225,0.5-0.5,0.5h-31
	C1.224,31,1,30.775,1,30.5v-19C1,11.224,0.776,11,0.5,11S0,11.224,0,11.5v19C0,31.327,0.673,32,1.5,32h31
	C33.327,32,34,31.327,34,30.5z M4.5,23C4.224,23,4,23.225,4,23.5S4.224,24,4.5,24H6v3.5C6,27.775,6.224,28,6.5,28S7,27.775,7,27.5
	V24h6v3.5c0,0.275,0.224,0.5,0.5,0.5s0.5-0.225,0.5-0.5V24h6v3.5c0,0.275,0.225,0.5,0.5,0.5s0.5-0.225,0.5-0.5V24h6v3.5
	c0,0.275,0.225,0.5,0.5,0.5s0.5-0.225,0.5-0.5V24h1.5c0.275,0,0.5-0.225,0.5-0.5S29.775,23,29.5,23H28v-5h1.5
	c0.275,0,0.5-0.225,0.5-0.5S29.775,17,29.5,17H28v-4.5c0-0.276-0.225-0.5-0.5-0.5S27,12.224,27,12.5V17h-6v-4.5
	c0-0.276-0.225-0.5-0.5-0.5S20,12.224,20,12.5V17h-6v-4.5c0-0.276-0.224-0.5-0.5-0.5S13,12.224,13,12.5V17H7v-4.5
	C7,12.224,6.776,12,6.5,12S6,12.224,6,12.5V17H4.5C4.224,17,4,17.225,4,17.5S4.224,18,4.5,18H6v5H4.5z M27,18v5h-6v-5H27z M20,18v5
	h-6v-5H20z M7,18h6v5H7V18z M28.5,3h4.25C32.837,3,33,3,33,3.5V8H1V3.5C1,3.224,1.224,3,1.5,3h4C5.776,3,6,2.776,6,2.5
	S5.776,2,5.5,2h-4C0.673,2,0,2.673,0,3.5v5C0,8.776,0.224,9,0.5,9h33C33.775,9,34,8.776,34,8.5v-5C34,2.394,33.354,2,32.75,2H28.5
	C28.225,2,28,2.224,28,2.5S28.225,3,28.5,3z M22.5,3C22.775,3,23,2.776,23,2.5S22.775,2,22.5,2h-11C11.224,2,11,2.224,11,2.5
	S11.224,3,11.5,3H22.5z M9,4.5v-4C9,0.224,8.776,0,8.5,0S8,0.224,8,0.5v4C8,4.776,8.224,5,8.5,5S9,4.776,9,4.5z M25.5,5
	C25.775,5,26,4.776,26,4.5v-4C26,0.224,25.775,0,25.5,0S25,0.224,25,0.5v4C25,4.776,25.225,5,25.5,5z"/>
<path fill="#444444" d="M67,0H38c-0.822,0-2,1.178-2,2v28c0,0.822,1.178,2,2,2h29c0.822,0,2-1.178,2-2V2C69,1.178,67.822,0,67,0z
	 M68,30c-0.006,0.284-0.716,0.994-1,1H38c-0.284-0.006-0.994-0.716-1-1V2c0.006-0.284,0.716-0.994,1-1h29
	c0.284,0.006,0.994,0.716,1,1V30z M52.5,5.5c-1.103,0-2,0.897-2,2s0.897,2,2,2c1.104,0,2-0.897,2-2S53.604,5.5,52.5,5.5z M52.5,8.5
	c-0.551,0-1-0.449-1-1s0.449-1,1-1s1,0.449,1,1S53.051,8.5,52.5,8.5z M60.5,21.5c-1.104,0-2,0.896-2,2s0.896,2,2,2s2-0.896,2-2
	S61.604,21.5,60.5,21.5z M60.5,24.5c-0.551,0-1-0.449-1-1s0.449-1,1-1s1,0.449,1,1S61.051,24.5,60.5,24.5z M44.5,16.5
	c-1.103,0-2,0.896-2,2s0.897,2,2,2s2-0.896,2-2S45.603,16.5,44.5,16.5z M44.5,19.5c-0.551,0-1-0.449-1-1s0.449-1,1-1s1,0.449,1,1
	S45.051,19.5,44.5,19.5z M44.5,15c0.276,0,0.5-0.224,0.5-0.5v-9C45,5.224,44.776,5,44.5,5S44,5.224,44,5.5v9
	C44,14.776,44.224,15,44.5,15z M44.5,22c-0.276,0-0.5,0.225-0.5,0.5v3c0,0.275,0.224,0.5,0.5,0.5s0.5-0.225,0.5-0.5v-3
	C45,22.225,44.776,22,44.5,22z M52.5,11c-0.276,0-0.5,0.224-0.5,0.5v14c0,0.275,0.224,0.5,0.5,0.5s0.5-0.225,0.5-0.5v-14
	C53,11.224,52.776,11,52.5,11z M60.5,20c0.275,0,0.5-0.225,0.5-0.5v-14C61,5.224,60.775,5,60.5,5S60,5.224,60,5.5v14
	C60,19.775,60.225,20,60.5,20z"/>
<path fill="#444444" d="M71,31.48c0,0.276,0.224,0.5,0.5,0.5h31.111c0.066,0,0.132-0.013,0.193-0.039
	c0.061-0.025,0.115-0.063,0.161-0.108c0.001-0.001,0.002-0.001,0.003-0.002c0.004-0.003,0.004-0.009,0.008-0.013
	c0.051-0.055,0.084-0.121,0.106-0.194c0.007-0.022,0.01-0.045,0.015-0.069c0.004-0.025,0.014-0.047,0.014-0.072
	c0-0.041-0.014-0.075-0.022-0.112c-0.003-0.015,0.003-0.028-0.002-0.042l-3.16-9.715c-0.024-0.075-0.065-0.145-0.122-0.199
	L82.688,4.296c-0.018-0.028-0.031-0.058-0.055-0.083l-3.739-3.739c-0.607-0.607-1.595-0.607-2.203,0l-5.235,5.235
	C71.162,6.003,71,6.394,71,6.81s0.162,0.808,0.456,1.102l3.656,3.656c0.018,0.027,0.03,0.058,0.054,0.082l17.09,17.206
	c0.059,0.06,0.131,0.103,0.212,0.127l6.714,2H71.5C71.224,30.98,71,31.205,71,31.48z M77.362,10.163l15.687,15.485l-0.576,2.002
	L76.227,11.298L77.362,10.163z M93.816,25.002L78.068,9.457l2.437-2.437l15.606,15.648v2.334H93.816z M96.734,21.877L81.212,6.313
	l1.039-1.039l16.211,16.21L96.734,21.877z M93.988,26.002h2.623c0.277,0,0.5-0.225,0.5-0.5v-2.686l2.008-0.455l2.723,8.369
	l-8.488-2.528L93.988,26.002z M72,6.81c0-0.149,0.058-0.288,0.163-0.394l5.235-5.235c0.217-0.217,0.57-0.218,0.789,0l3.372,3.372
	l-6.023,6.023l-3.372-3.372C72.058,7.099,72,6.959,72,6.81z"/>
<path fill="#444444" d="M121,32c8.822,0,16-7.178,16-16s-7.178-16-16-16c-8.822,0-16,7.178-16,16S112.178,32,121,32z M121,1
	c8.271,0,15,6.729,15,15c0,8.271-6.729,15-15,15c-8.271,0-15-6.729-15-15C106,7.729,112.729,1,121,1z M125.061,21.767
	c0.099,0.099,0.227,0.146,0.354,0.146s0.256-0.049,0.354-0.146c0.194-0.194,0.194-0.512,0-0.707L121,16.292V9.318
	c0-0.276-0.224-0.5-0.5-0.5s-0.5,0.224-0.5,0.5V16.5c0,0.133,0.053,0.26,0.146,0.354L125.061,21.767z M108,16c0,0.553,0.448,1,1,1
	s1-0.447,1-1c0-0.552-0.448-1-1-1S108,15.447,108,16z M132,16c0,0.553,0.447,1,1,1s1-0.447,1-1c0-0.552-0.447-1-1-1
	S132,15.447,132,16z M120,4c0,0.552,0.448,1,1,1c0.553,0,1-0.448,1-1s-0.447-1-1-1C120.448,3,120,3.447,120,4z M120,28
	c0,0.553,0.448,1,1,1c0.553,0,1-0.447,1-1s-0.447-1-1-1C120.448,27,120,27.447,120,28z M112,8c0,0.552,0.448,1,1,1s1-0.448,1-1
	s-0.448-1-1-1S112,7.447,112,8z M128,24c0,0.553,0.447,1,1,1s1-0.447,1-1s-0.447-1-1-1S128,23.447,128,24z M129,8
	c0,0.552,0.447,1,1,1s1-0.448,1-1s-0.447-1-1-1S129,7.447,129,8z M112,24c0,0.553,0.448,1,1,1s1-0.447,1-1s-0.448-1-1-1
	S112,23.447,112,24z"/>
<path fill="#444444" d="M162.038,27.869c0.429,0.434,0.429,1.133,0,1.566c-0.429,0.433-1.122,0.434-1.55,0L147.96,16.784
	c-0.429-0.434-0.429-1.134,0-1.566l12.528-12.653c0.429-0.434,1.121-0.434,1.55,0c0.428,0.434,0.429,1.133,0,1.566L150.614,16
	L162.038,27.869z"/>
<path fill="#444444" d="M181.96,4.129c-0.429-0.434-0.429-1.133,0-1.566c0.429-0.433,1.122-0.434,1.55,0l12.528,12.651
	c0.429,0.434,0.429,1.134,0,1.566L183.51,29.434c-0.429,0.434-1.121,0.434-1.55,0c-0.428-0.434-0.429-1.133,0-1.566l11.424-11.869
	L181.96,4.129z"/>
<rect x="207" y="-0.001" fill="none" width="32" height="32"/>
<path fill="#444444" d="M223,2.999c-7.18,0-13,5.82-13,13c0,7.18,5.82,13,13,13c7.18,0,13-5.82,13-13
	C236,8.818,230.18,2.999,223,2.999z M225.039,20.782c-0.98,1.473-1.979,2.607-3.658,2.607c-1.146-0.187-1.617-1.008-1.369-1.845
	l2.16-7.154c0.053-0.175-0.035-0.362-0.195-0.419c-0.159-0.056-0.471,0.151-0.741,0.447l-1.306,1.571
	c-0.035-0.264-0.004-0.7-0.004-0.876c0.981-1.473,2.593-2.635,3.686-2.635c1.039,0.106,1.531,0.937,1.351,1.85l-2.175,7.189
	c-0.029,0.162,0.057,0.326,0.204,0.379c0.16,0.056,0.496-0.151,0.767-0.447l1.305-1.57
	C225.098,20.143,225.039,20.606,225.039,20.782z M224.748,11.438c-0.826,0-1.496-0.602-1.496-1.488c0-0.886,0.67-1.487,1.496-1.487
	s1.496,0.602,1.496,1.487C226.244,10.836,225.574,11.438,224.748,11.438z"/>
<rect x="367" fill="#444444" width="32" height="32"/>
<path fill="#FFFFFF" d="M258.025,12.543c-0.535-0.297-1.208-0.104-1.504,0.429l-2.052,3.695l-1.175-1.175
	c-0.432-0.432-1.132-0.432-1.563,0c-0.432,0.432-0.432,1.132,0,1.564l2.212,2.211c0.208,0.209,0.491,0.325,0.781,0.325
	c0.051,0,0.103-0.003,0.153-0.011c0.343-0.049,0.645-0.255,0.813-0.558l2.765-4.976C258.751,13.513,258.559,12.84,258.025,12.543
	L258.025,12.543z"/>
<path fill="#4CD964" d="M298,3.5l-15,15l-7-7l-5,5l12,12l20-20L298,3.5z"/>
<path fill="#FF2D55" d="M331.422,24.089L331.422,24.089l-8.09-8.09l8.09-8.09l0,0c0.087-0.087,0.15-0.189,0.191-0.297
	c0.109-0.297,0.047-0.643-0.191-0.881l-3.82-3.822c-0.24-0.239-0.586-0.3-0.883-0.191c-0.107,0.041-0.21,0.104-0.297,0.19l0,0
	l-8.09,8.09l-8.09-8.089l0,0c-0.087-0.086-0.189-0.15-0.297-0.19c-0.297-0.112-0.643-0.048-0.881,0.191l-3.821,3.821
	c-0.239,0.238-0.3,0.584-0.19,0.881c0.039,0.108,0.103,0.21,0.19,0.297l0,0l8.089,8.09l-8.089,8.09l0,0
	c-0.087,0.088-0.151,0.189-0.19,0.297c-0.111,0.297-0.048,0.644,0.19,0.883l3.821,3.82c0.238,0.238,0.584,0.301,0.881,0.191
	c0.107-0.041,0.211-0.104,0.298-0.191l0,0l8.089-8.09l8.09,8.09l0,0c0.087,0.088,0.189,0.15,0.297,0.191
	c0.297,0.111,0.643,0.047,0.883-0.191l3.82-3.82c0.238-0.239,0.303-0.586,0.191-0.883C331.572,24.279,331.509,24.177,331.422,24.089
	z"/>
<path fill="#FFFFFF" d="M351.091,11.782c-0.012-0.095-0.17-0.095-0.182,0c-0.395,3.176-2.411,3.831-2.411,6.038
	c0,1.363,1.145,2.469,2.502,2.469s2.502-1.106,2.502-2.469C353.502,15.613,351.485,14.958,351.091,11.782z M350.711,15.293
	c-0.027,0.098-0.056,0.199-0.085,0.303c-0.179,0.636-0.383,1.357-0.383,2.192c0,0.452-0.268,0.613-0.517,0.613
	c-0.285,0-0.517-0.233-0.517-0.521c0-0.986,0.475-1.63,0.895-2.199c0.131-0.177,0.255-0.345,0.355-0.514
	c0.047-0.077,0.17-0.073,0.227,0.003C350.712,15.206,350.721,15.251,350.711,15.293L350.711,15.293z"/>
</svg>
