<?xml version="1.0" encoding="utf-8"?>
<!-- Generator: Adobe Illustrator 15.0.0, SVG Export Plug-In . SVG Version: 6.00 Build 0)  -->
<!DOCTYPE svg PUBLIC "-//W3C//DTD SVG 1.1//EN" "http://www.w3.org/Graphics/SVG/1.1/DTD/svg11.dtd">
<svg version="1.1" id="Layer_1" xmlns="http://www.w3.org/2000/svg" xmlns:xlink="http://www.w3.org/1999/xlink" x="0px" y="0px" width="600px" height="600px" viewBox="0 0 600 600" enable-background="new 0 0 600 600" xml:space="preserve"><g><path d="M454.183,94.396H253.803l-20.2,133.317c12.12-1.616,23.432-3.232,42.823-3.232c41.207,0,80.798,8.888,113.117,28.279c41.208,22.624,75.143,68.678,75.143,136.549c0,102.614-81.606,179.372-195.532,179.372c-57.367,0-105.038-16.159-130.893-32.319l17.775-54.135c21.815,12.928,64.639,29.087,113.118,29.087c66.254,0,124.429-43.631,123.622-114.733c0-69.486-46.056-117.157-150.285-117.157c-30.703,0-54.135,2.424-73.526,5.656L202.9,34.604h251.282V94.396z"/></g></svg>
