<?xml version="1.0" encoding="utf-8"?>
<!-- Generator: Adobe Illustrator 15.0.0, SVG Export Plug-In . SVG Version: 6.00 Build 0)  -->
<!DOCTYPE svg PUBLIC "-//W3C//DTD SVG 1.1//EN" "http://www.w3.org/Graphics/SVG/1.1/DTD/svg11.dtd">
<svg version="1.1" id="Layer_1" xmlns="http://www.w3.org/2000/svg" xmlns:xlink="http://www.w3.org/1999/xlink" x="0px" y="0px"
	 width="120px" height="30px" viewBox="-3 -6.5 120 30" enable-background="new -3 -6.5 120 30" xml:space="preserve">
<rect x="87" y="-6.5" fill="none" width="30" height="30"/>
<rect x="57" y="-6.5" fill="none" width="30" height="30"/>
<rect x="27" y="-6.5" fill="none" width="30" height="30"/>
<path fill="#424242" d="M2,8.5c0-0.276,0.098-0.512,0.293-0.707S2.724,7.5,3,7.5h15.586l-5.297-5.289C13.096,2.018,13,1.781,13,1.5
	c0-0.287,0.095-0.525,0.285-0.715S13.713,0.5,14,0.5c0.281,0,0.518,0.096,0.711,0.289l7,7C21.904,7.982,22,8.219,22,8.5
	s-0.096,0.518-0.289,0.711l-7,7C14.518,16.404,14.281,16.5,14,16.5c-0.287,0-0.525-0.095-0.715-0.285S13,15.787,13,15.5
	c0-0.281,0.096-0.518,0.289-0.711L18.586,9.5H3c-0.276,0-0.512-0.098-0.707-0.293S2,8.776,2,8.5L2,8.5z"/>
<path fill="#424242" d="M42.125,18.75c-0.276,0-0.512-0.098-0.707-0.293s-0.293-0.431-0.293-0.707V2.164l-5.289,5.297
	c-0.193,0.193-0.43,0.289-0.711,0.289c-0.287,0-0.525-0.095-0.715-0.285s-0.285-0.428-0.285-0.715c0-0.281,0.096-0.518,0.289-0.711
	l7-7c0.193-0.193,0.43-0.289,0.711-0.289s0.518,0.096,0.711,0.289l7,7c0.193,0.193,0.289,0.43,0.289,0.711
	c0,0.287-0.095,0.525-0.285,0.715S49.412,7.75,49.125,7.75c-0.281,0-0.518-0.096-0.711-0.289l-5.289-5.297V17.75
	c0,0.276-0.098,0.512-0.293,0.707S42.401,18.75,42.125,18.75L42.125,18.75z"/>
<path fill="#424242" d="M82,8.5c0,0.276-0.098,0.512-0.293,0.707S81.276,9.5,81,9.5H65.414l5.297,5.289
	C70.904,14.982,71,15.219,71,15.5c0,0.287-0.095,0.525-0.285,0.715S70.287,16.5,70,16.5c-0.281,0-0.518-0.096-0.711-0.289l-7-7
	C62.096,9.018,62,8.781,62,8.5s0.096-0.518,0.289-0.711l7-7C69.482,0.596,69.719,0.5,70,0.5c0.287,0,0.525,0.095,0.715,0.285
	S71,1.213,71,1.5c0,0.281-0.096,0.518-0.289,0.711L65.414,7.5H81c0.276,0,0.512,0.098,0.707,0.293S82,8.224,82,8.5L82,8.5z"/>
<path fill="#424242" d="M102-1.5c0.276,0,0.512,0.098,0.707,0.293S103-0.776,103-0.5v15.586l5.289-5.297
	C108.482,9.596,108.719,9.5,109,9.5c0.287,0,0.525,0.095,0.715,0.285S110,10.213,110,10.5c0,0.281-0.096,0.518-0.289,0.711l-7,7
	c-0.193,0.193-0.43,0.289-0.711,0.289s-0.518-0.096-0.711-0.289l-7-7C94.096,11.018,94,10.781,94,10.5
	c0-0.287,0.095-0.525,0.285-0.715S94.713,9.5,95,9.5c0.281,0,0.518,0.096,0.711,0.289L101,15.086V-0.5
	c0-0.276,0.098-0.512,0.293-0.707S101.724-1.5,102-1.5L102-1.5z"/>
</svg>
