<?xml version="1.0" encoding="utf-8"?>
<!-- Generator: Adobe Illustrator 15.0.0, SVG Export Plug-In . SVG Version: 6.00 Build 0)  -->
<!DOCTYPE svg PUBLIC "-//W3C//DTD SVG 1.1//EN" "http://www.w3.org/Graphics/SVG/1.1/DTD/svg11.dtd">
<svg version="1.1" id="Layer_1" xmlns="http://www.w3.org/2000/svg" xmlns:xlink="http://www.w3.org/1999/xlink" x="0px" y="0px"
	 width="32.004px" height="32px" viewBox="0 0 32.004 32" enable-background="new 0 0 32.004 32" xml:space="preserve">
<path fill="#8E8E8E" d="M23.888,8.952l-0.453-0.455c-1.997-1.997-4.652-3.098-7.477-3.098c-2.823,0-5.481,1.101-7.477,3.098
	c-2.021,2.021-3.097,4.728-3.097,7.483c0,1.288,0.233,2.586,0.717,3.831C6.167,19.982,6.358,20.066,6.529,20
	c0.169-0.066,0.254-0.259,0.188-0.429c-1.427-3.665-0.55-7.828,2.229-10.607c1.872-1.873,4.363-2.902,7.01-2.902
	c2.648,0,5.137,1.03,7.01,2.902l0.403,0.404h-3.117c-0.183,0-0.33,0.148-0.33,0.33s0.147,0.33,0.33,0.33h3.965
	c0.183,0,0.331-0.146,0.331-0.33V5.732c0-0.182-0.148-0.33-0.331-0.33c-0.182,0-0.33,0.147-0.33,0.33V8.952L23.888,8.952z
	 M11.658,21.924H7.695c-0.096,0-0.18,0.043-0.24,0.108c-0.005,0.003-0.008,0.003-0.01,0.005c-0.064,0.064-0.087,0.286-0.08,0.313
	v3.871c0,0.182,0.146,0.33,0.329,0.33s0.329-0.148,0.329-0.33v-3.137l0.442,0.439c1.996,1.997,4.652,3.098,7.477,3.098
	c2.825,0,5.481-1.101,7.478-3.098c2.916-2.914,3.872-7.297,2.437-11.162c-0.063-0.171-0.253-0.257-0.424-0.194
	c-0.172,0.064-0.26,0.257-0.196,0.425c1.348,3.625,0.45,7.732-2.282,10.465c-1.872,1.873-4.363,2.904-7.012,2.904
	c-2.646,0-5.137-1.031-7.01-2.904l-0.471-0.471h3.198c0.183,0,0.332-0.148,0.332-0.33C11.992,22.072,11.843,21.924,11.658,21.924z"
	/>
</svg>
