<?xml version="1.0" encoding="utf-8"?>
<!-- Generator: Adobe Illustrator 15.0.0, SVG Export Plug-In . SVG Version: 6.00 Build 0)  -->
<!DOCTYPE svg PUBLIC "-//W3C//DTD SVG 1.1//EN" "http://www.w3.org/Graphics/SVG/1.1/DTD/svg11.dtd">
<svg version="1.1" id="Layer_1" xmlns="http://www.w3.org/2000/svg" xmlns:xlink="http://www.w3.org/1999/xlink" x="0px" y="0px"
	 width="32px" height="32px" viewBox="0 0 32 32" enable-background="new 0 0 32 32" xml:space="preserve">
<g id="icomoon-ignore">
	<line fill="none" stroke="#449FDB" x1="0" y1="0" x2="0" y2="0"/>
</g>
<path fill="#007AFF" d="M25.333,5.333c0.382,0,0.7,0.126,0.953,0.38s0.38,0.571,0.38,0.953c0,0.375-0.129,0.691-0.385,0.948
	l-8.396,8.385l8.396,8.385c0.256,0.257,0.385,0.573,0.385,0.948c0,0.382-0.127,0.699-0.38,0.953c-0.253,0.253-0.571,0.38-0.953,0.38
	c-0.376,0-0.691-0.128-0.948-0.385L16,17.884L7.615,26.28c-0.257,0.257-0.573,0.385-0.948,0.385c-0.382,0-0.7-0.127-0.953-0.38
	c-0.253-0.254-0.38-0.571-0.38-0.953c0-0.375,0.128-0.691,0.385-0.948l8.396-8.385L5.719,7.614C5.462,7.357,5.334,7.042,5.334,6.666
	c0-0.382,0.126-0.7,0.38-0.953s0.571-0.38,0.953-0.38c0.375,0,0.691,0.128,0.948,0.385L16,14.114l8.385-8.396
	C24.642,5.461,24.957,5.333,25.333,5.333z"/>
</svg>
