<?xml version="1.0" encoding="utf-8"?>
<!-- Generator: Adobe Illustrator 15.0.0, SVG Export Plug-In . SVG Version: 6.00 Build 0)  -->
<!DOCTYPE svg PUBLIC "-//W3C//DTD SVG 1.1//EN" "http://www.w3.org/Graphics/SVG/1.1/DTD/svg11.dtd">
<svg version="1.1" id="Layer_1" xmlns="http://www.w3.org/2000/svg" xmlns:xlink="http://www.w3.org/1999/xlink" x="0px" y="0px"
	 width="600px" height="600px" viewBox="0 0 600 600" enable-background="new 0 0 600 600" xml:space="preserve">
<g>
	<circle cx="299.955" cy="72.015" r="21.344"/>
	<ellipse cx="234.962" cy="99.015" rx="21.277" ry="21.344"/>
	<ellipse cx="198.079" cy="156.015" rx="21.277" ry="21.344"/>
	<ellipse cx="181.132" cy="223.015" rx="21.277" ry="21.344"/>
	<ellipse cx="175.151" cy="296.015" rx="21.277" ry="21.344"/>
	<ellipse cx="182.129" cy="363.015" rx="21.276" ry="21.344"/>
	<ellipse cx="199.076" cy="427.015" rx="21.277" ry="21.344"/>
	<ellipse cx="236.956" cy="481.015" rx="21.276" ry="21.344"/>
	<circle cx="299.955" cy="507.015" r="21.344"/>
	<circle cx="362.955" cy="481.015" r="21.344"/>
	<circle cx="400.955" cy="427.015" r="21.344"/>
	<circle cx="417.955" cy="363.015" r="21.344"/>
	<circle cx="424.955" cy="296.015" r="21.344"/>
	<circle cx="418.955" cy="223.015" r="21.344"/>
	<circle cx="401.955" cy="156.015" r="21.344"/>
	<circle cx="364.955" cy="99.015" r="21.344"/>
	<circle cx="299.955" cy="72.015" r="21.344"/>
</g>
</svg>
