<?xml version="1.0" encoding="utf-8"?>
<!-- Generator: Adobe Illustrator 15.0.0, SVG Export Plug-In . SVG Version: 6.00 Build 0)  -->
<!DOCTYPE svg PUBLIC "-//W3C//DTD SVG 1.1//EN" "http://www.w3.org/Graphics/SVG/1.1/DTD/svg11.dtd">
<svg version="1.1" xmlns="http://www.w3.org/2000/svg" xmlns:xlink="http://www.w3.org/1999/xlink" x="0px" y="0px" width="600px"
	 height="600px" viewBox="0 0 600 600" enable-background="new 0 0 600 600" xml:space="preserve">
<g id="Layer_3">
	<polyline fill="none" stroke="#000000" stroke-miterlimit="10" points="300,76.36 275.944,78.472 251.972,85.403 227.986,98.706 
		203.993,119.706 185.415,144.004 172.349,168.002 162.729,192.001 155.709,216 150.758,240 147.286,264 145.5,288 145.5,312 
		147.827,336 151.382,360 156.746,384 164.23,408 174.441,432 188.292,456 197.12,468 215.998,487.741 239.999,504.859 264,515.262 
		288,520.5 312,520.5 336,514.969 360,504.798 384,487.695 402.774,468.031 411.572,456.016 425.363,432.008 435.576,408.004 
		443.095,384.002 448.456,360.001 451.913,336 453.639,312 453.779,288 452.374,264 449.297,240 444.385,216 437.372,192 
		432,177.775 420,153.155 408,134.589 396,120.039 372,98.994 348,85.586 324,78.52 300,76.36 	"/>
</g>
<g id="Layer_2" display="none">
	<text transform="matrix(1 0 0 1 94.5889 511.502)" display="inline" font-family="'Microsoft-Yi-Baiti'" font-size="800">0</text>
</g>
<g id="Layer_1" display="none">
</g>
</svg>
