<?xml version="1.0" encoding="utf-8"?>
<!-- Generator: Adobe Illustrator 15.0.0, SVG Export Plug-In . SVG Version: 6.00 Build 0)  -->
<!DOCTYPE svg PUBLIC "-//W3C//DTD SVG 1.1//EN" "http://www.w3.org/Graphics/SVG/1.1/DTD/svg11.dtd">
<svg version="1.1" xmlns="http://www.w3.org/2000/svg" xmlns:xlink="http://www.w3.org/1999/xlink" x="0px" y="0px" width="600px"
	 height="600px" viewBox="0 0 600 600" enable-background="new 0 0 600 600" xml:space="preserve">
<g id="Layer_3">
	<polyline fill="none" stroke="#000000" stroke-miterlimit="10" points="204,144.25 228,120.125 250.667,106 274.667,96.5 
		300,93.25 324,96.5 349.125,107.125 376.75,129.188 399,156.063 407.5,180 407.5,204 397.75,230 383.875,252 359.938,276 
		335.969,300 311.984,322 287.992,342 263.996,360 239.998,384 222.75,402.75 210.875,426.875 199.208,451.292 191.5,480 
		191.5,504.5 216,504.5 240,504.5 264,504.5 288,504.5 312,504.5 336,504.5 360,504.5 382,504.5 408,504.5 	"/>
</g>
<g id="Layer_2">
	<g>
		<path d="M418.417,192.751c0,33.856-16.016,64.978-48.047,93.359l-97.656,79.297c-17.712,15.625-30.273,32.946-37.695,51.953
			c-7.422,19.012-11.133,39.715-11.133,62.109h191.016v32.031H185.604c-0.263-5.469-0.458-9.827-0.586-13.086
			c-0.134-3.254-0.195-6.312-0.195-9.18c0-25.52,4.229-49.671,12.695-72.461c8.459-22.785,21.289-43.555,38.477-62.305
			l96.484-81.641c18.225-14.063,31.836-27.795,40.82-41.211c8.984-13.409,13.604-26.367,13.867-38.867
			c0-11.975-1.758-23.175-5.273-33.594c-3.516-10.413-8.856-19.397-16.016-26.953c-7.166-7.55-16.083-13.538-26.758-17.969
			c-10.682-4.425-23.182-6.641-37.5-6.641c-21.094,0-39.521,3.906-55.273,11.719c-15.759,7.813-29.492,20.185-41.211,37.109
			l-24.219-16.797c6.506-10.156,14.258-19.141,23.242-26.953s18.75-14.453,29.297-19.922s21.612-9.631,33.203-12.5
			c11.584-2.862,23.242-4.297,34.961-4.297c17.188,0,32.94,2.802,47.266,8.398c14.318,5.603,26.623,13.477,36.914,23.633
			c10.284,10.156,18.292,22.4,24.023,36.719C415.548,159.03,418.417,175.045,418.417,192.751z"/>
	</g>
</g>
<g id="Layer_1" display="none">
</g>
</svg>
