<?xml version="1.0" encoding="utf-8"?>
<!-- Generator: Adobe Illustrator 15.0.0, SVG Export Plug-In . SVG Version: 6.00 Build 0)  -->
<!DOCTYPE svg PUBLIC "-//W3C//DTD SVG 1.1//EN" "http://www.w3.org/Graphics/SVG/1.1/DTD/svg11.dtd">
<svg version="1.1" xmlns="http://www.w3.org/2000/svg" xmlns:xlink="http://www.w3.org/1999/xlink" x="0px" y="0px" width="600px"
	 height="600px" viewBox="0 0 600 600" enable-background="new 0 0 600 600" xml:space="preserve">
<g id="Layer_3">
	<polyline fill="none" stroke="#000000" stroke-miterlimit="10" points="191.649,168 203.824,144 227.912,120 251.957,105.25 
		276,96.5 299,96.5 326.5,105.75 348,120.125 371.75,144.063 383.5,168 387,192 383.5,216 371.75,240 347.875,264.25 324,276.5 
		300,276.5 276,276.5 300,276.5 324,276.5 348,288.063 374.766,309.266 395.75,336.016 407.5,360 409.75,384 407.5,408 398.75,435 
		383.875,456 359.938,480.25 336,492.75 312,495.5 288,495.5 264,492.75 237.688,482.688 216,468.188 192,444.094 180,420.047 	"/>
</g>
<g id="Layer_2">
	<g>
		<path d="M432.089,389.627c0,19.274-3.388,36.914-10.156,52.93c-6.775,16.016-16.083,29.688-27.93,41.016
			c-11.854,11.328-25.977,20.117-42.383,26.367s-34.119,9.375-53.125,9.375c-18.75,0-35.876-2.539-51.367-7.617
			c-15.497-5.078-28.906-12.305-40.234-21.68s-20.447-20.703-27.344-33.984c-6.903-13.281-11.133-28.254-12.695-44.922h31.25
			c0.781,10.938,3.839,21.16,9.18,30.664c5.334,9.509,12.366,17.645,21.094,24.414c8.722,6.774,19.073,12.109,31.055,16.016
			c11.975,3.906,25,5.859,39.063,5.859c14.581,0,28.125-2.344,40.625-7.031s23.37-11.262,32.617-19.727
			c9.24-8.46,16.467-18.616,21.68-30.469c5.206-11.848,7.813-25.062,7.813-39.648c0-15.101-2.674-28.449-8.008-40.039
			c-5.341-11.585-12.83-21.289-22.461-29.102c-9.638-7.813-21.356-13.672-35.156-17.578c-13.807-3.907-29.041-5.86-45.703-5.86
			h-13.672v-31.25h4.297c30.206,0,54.162-6.769,71.875-20.313c17.706-13.538,26.563-34.112,26.563-61.719
			c0-12.5-2.088-23.633-6.25-33.398c-4.169-9.766-10.028-17.969-17.578-24.609c-7.557-6.641-16.474-11.651-26.758-15.039
			c-10.291-3.381-21.552-5.078-33.789-5.078c-23.962,0-44.141,5.798-60.547,17.383c-16.406,11.591-26.435,29.236-30.078,52.93
			h-30.859c2.862-15.881,7.813-30.139,14.844-42.773c7.031-12.628,15.753-23.303,26.172-32.031
			c10.413-8.722,22.327-15.362,35.742-19.922c13.409-4.553,27.93-6.836,43.555-6.836c18.225,0,34.503,2.869,48.828,8.594
			c14.318,5.731,26.495,13.544,36.523,23.438c10.021,9.9,17.706,21.552,23.047,34.961c5.334,13.416,8.008,27.93,8.008,43.555
			c0,8.337-0.849,17.06-2.539,26.172c-1.697,9.119-4.56,17.773-8.594,25.977c-4.041,8.203-9.442,15.692-16.211,22.461
			c-6.775,6.775-15.106,11.981-25,15.625c11.975,4.431,22.589,10.419,31.836,17.969c9.24,7.556,17.053,16.278,23.438,26.172
			c6.378,9.899,11.193,20.703,14.453,32.422C430.459,365.018,432.089,377.127,432.089,389.627z"/>
	</g>
</g>
<g id="Layer_1" display="none">
</g>
</svg>
