<?xml version="1.0" encoding="utf-8"?>
<!-- Generator: Adobe Illustrator 15.0.0, SVG Export Plug-In . SVG Version: 6.00 Build 0)  -->
<!DOCTYPE svg PUBLIC "-//W3C//DTD SVG 1.1//EN" "http://www.w3.org/Graphics/SVG/1.1/DTD/svg11.dtd">
<svg version="1.1" xmlns="http://www.w3.org/2000/svg" xmlns:xlink="http://www.w3.org/1999/xlink" x="0px" y="0px" width="600px"
	 height="600px" viewBox="0 0 600 600" enable-background="new 0 0 600 600" xml:space="preserve">
<g id="Layer_3">
	<polyline stroke="#000000" stroke-miterlimit="10" points="359.5,96 359.5,120 359.5,144 359.5,168 359.5,192 359.5,216 359.5,240 
		359.5,264 359.5,288 359.5,312 359.5,336 359.5,359 359.5,384 359.5,408 359.5,432 359.5,456 359.5,480 359.5,504 	"/>
	<polyline fill="none" stroke="#000000" stroke-miterlimit="10" points="348,96.25 330.546,120.125 313.092,144.063 
		295.637,168.032 278.183,192.016 260.261,216.651 243.273,240.003 225.819,264.001 208.364,288.001 190.909,312 173.455,336.25 
		156,360.5 179.75,360.5 204.25,360.5 228,360.5 252,360.5 276,360.5 299.667,360.5 324,360.5 347.75,360.5 372.25,360.5 396,360.5 
		420,360.5 	"/>
</g>
<g id="Layer_2">
	<path d="M445.37,380.252h-75.781v131.25h-31.25v-131.25H153.964v-35.938L325.058,83.767h44.531v265.235h75.781V380.252z
		 M338.339,349.002V116.58L185.604,349.002H338.339z"/>
</g>
<g id="Layer_1" display="none">
</g>
</svg>
