<?xml version="1.0" encoding="utf-8"?>
<!-- Generator: Adobe Illustrator 15.0.0, SVG Export Plug-In . SVG Version: 6.00 Build 0)  -->
<!DOCTYPE svg PUBLIC "-//W3C//DTD SVG 1.1//EN" "http://www.w3.org/Graphics/SVG/1.1/DTD/svg11.dtd">
<svg version="1.1" xmlns="http://www.w3.org/2000/svg" xmlns:xlink="http://www.w3.org/1999/xlink" x="0px" y="0px" width="600px"
	 height="600px" viewBox="0 0 600 600" enable-background="new 0 0 600 600" xml:space="preserve">
<g id="Layer_3">
	<polyline fill="none" stroke="#000000" stroke-miterlimit="10" points="216,96.5 240,96.5 264,96.5 288,96.5 312,96.5 336,96.5 
		360,96.5 384,96.5 408,96.5 	"/>
	<polyline fill="none" stroke="#000000" stroke-miterlimit="10" points="216,96 213,120 210,144 207,168 204,192 201,216 198,240 
		195,264 192,288 216,272.25 240,260.75 264,252.5 288,248 312,252.5 339,261.25 363.188,272.938 384,288.063 408,312.031 
		422.758,333.258 432,360.008 430.5,396.004 422.333,432.002 408,456.001 387,480 360,498.667 336,509.583 312,516.5 288,516.5 
		264,510.917 240,504.125 216,492.063 192,470.698 176.333,444.016 168,420.008 	"/>
</g>
<g id="Layer_2">
	<path d="M434.823,369.705c0,21.094-2.93,40.759-8.789,58.984c-5.859,18.23-14.716,34.051-26.563,47.461
		c-11.854,13.415-26.63,23.962-44.336,31.641c-17.713,7.678-38.416,11.523-62.109,11.523c-16.931,0-32.685-2.344-47.266-7.031
		c-14.587-4.688-27.539-11.523-38.867-20.508s-20.703-20.179-28.125-33.594c-7.422-13.41-12.305-28.84-14.648-46.289h34.766
		c2.344,13.281,6.378,24.743,12.109,34.375c5.725,9.637,12.823,17.517,21.289,23.633c8.459,6.121,17.834,10.681,28.125,13.672
		c10.284,2.996,21.155,4.492,32.617,4.492c19.006,0,35.479-3.382,49.414-10.156c13.928-6.77,25.451-15.687,34.57-26.758
		c9.112-11.066,15.82-23.566,20.117-37.5c4.297-13.929,6.445-28.187,6.445-42.773c0-15.101-2.344-29.035-7.031-41.797
		c-4.688-12.757-11.523-23.828-20.508-33.204c-8.984-9.375-19.989-16.663-33.008-21.875c-13.025-5.206-27.869-7.813-44.531-7.813
		c-16.406,0-32.617,2.869-48.633,8.594c-16.016,5.731-29.883,14.844-41.602,27.344h-32.031c2.862-37.5,5.725-73.957,8.594-109.375
		c2.862-35.413,5.859-71.741,8.984-108.984H414.12v31.25h-187.5l-14.453,148.047c5.987-5.725,12.823-10.479,20.508-14.258
		c7.678-3.772,15.686-6.641,24.023-8.594c8.331-1.953,16.797-3.32,25.391-4.102s16.797-1.172,24.609-1.172
		c18.225,0,35.217,3.516,50.977,10.547c15.753,7.031,29.297,16.602,40.625,28.711s20.245,26.367,26.758,42.774
		C431.563,333.377,434.823,350.955,434.823,369.705z"/>
</g>
<g id="Layer_1" display="none">
</g>
</svg>
