<?xml version="1.0" encoding="utf-8"?>
<!-- Generator: Adobe Illustrator 15.0.0, SVG Export Plug-In . SVG Version: 6.00 Build 0)  -->
<!DOCTYPE svg PUBLIC "-//W3C//DTD SVG 1.1//EN" "http://www.w3.org/Graphics/SVG/1.1/DTD/svg11.dtd">
<svg version="1.1" xmlns="http://www.w3.org/2000/svg" xmlns:xlink="http://www.w3.org/1999/xlink" x="0px" y="0px" width="600px"
	 height="600px" viewBox="0 0 600 600" enable-background="new 0 0 600 600" xml:space="preserve">
<g id="Layer_3">
	<polyline fill="none" stroke="#000000" stroke-miterlimit="10" points="407.824,156 395.911,132 377,108 351.863,92.364 324,84.5 
		299,81.5 276,84.5 252,96.25 225.438,117.563 204,144.063 191.75,168.031 183.5,192 174.116,216 170.614,240 167.5,264 167.5,288 
		167.5,312 167.5,336 169.417,360 172.833,384 179.5,408 185.697,432 200.021,459.854 215.938,480 234.901,497.067 263.984,510.333 
		286.667,516.5 312,516.5 336,514.25 360,504.125 384,492.063 405.667,468.031 417.667,444.016 424.584,420.008 429.5,396 
		429.5,372 427.75,348 421.209,324 407.938,300.5 383.969,276 363.534,260.7 336,252.5 312,248.667 288,252.5 264,259.333 
		240,272.167 216,288.063 189.234,309.266 167.5,336 	"/>
</g>
<g id="Layer_2">
	<path d="M432.479,375.955c0,19.274-2.539,37.566-7.617,54.883c-5.078,17.321-12.958,32.488-23.633,45.508
		c-10.682,13.024-24.091,23.438-40.234,31.25c-16.15,7.813-34.766,11.719-55.859,11.719c-22.656,0-42.578-4.561-59.766-13.672
		c-17.188-9.113-31.641-22.395-43.359-39.844c-11.719-17.444-20.575-38.929-26.563-64.453c-5.994-25.52-8.984-54.688-8.984-87.5
		c0-78.382,11.584-137.628,34.766-177.735c23.175-40.1,59.375-60.156,108.594-60.156c29.688,0,54.425,8.337,74.219,25
		c19.787,16.669,32.813,40.625,39.063,71.875h-31.25c-3.906-21.094-13.544-37.237-28.906-48.438
		c-15.369-11.194-33.984-16.797-55.859-16.797c-14.844,0-28.455,3.974-40.82,11.914c-12.372,7.947-23.242,19.531-32.617,34.766
		s-16.931,33.856-22.656,55.859c-5.731,22.009-9.247,47.07-10.547,75.195c17.444-14.063,35.089-24.805,52.93-32.227
		c17.834-7.422,37.305-11.133,58.398-11.133c18.225,0,34.826,3.583,49.805,10.742c14.972,7.166,27.667,16.931,38.086,29.297
		c10.412,12.372,18.487,26.629,24.219,42.774C429.61,340.933,432.479,357.986,432.479,375.955z M397.323,379.861
		c0-14.063-2.148-27.539-6.445-40.43s-10.486-24.219-18.555-33.984c-8.075-9.766-18.036-17.579-29.883-23.438
		c-11.854-5.859-25.195-8.789-40.039-8.789c-8.337,0-16.992,1.367-25.977,4.102s-17.773,6.445-26.367,11.133
		s-16.931,10.224-25,16.602c-8.075,6.384-15.369,13.22-21.875,20.508c1.038,53.649,10.547,94.141,28.516,121.484
		s42.053,41.016,72.266,41.016c14.844,0,28.058-3.059,39.648-9.18c11.584-6.116,21.35-14.191,29.297-24.219
		c7.94-10.022,13.995-21.546,18.164-34.57C395.235,407.076,397.323,393.667,397.323,379.861z"/>
</g>
<g id="Layer_1" display="none">
</g>
</svg>
