<?xml version="1.0" encoding="utf-8"?>
<!-- Generator: Adobe Illustrator 15.0.0, SVG Export Plug-In . SVG Version: 6.00 Build 0)  -->
<!DOCTYPE svg PUBLIC "-//W3C//DTD SVG 1.1//EN" "http://www.w3.org/Graphics/SVG/1.1/DTD/svg11.dtd">
<svg version="1.1" xmlns="http://www.w3.org/2000/svg" xmlns:xlink="http://www.w3.org/1999/xlink" x="0px" y="0px" width="600px"
	 height="600px" viewBox="0 0 600 600" enable-background="new 0 0 600 600" xml:space="preserve">
<g id="Layer_3">
	<polyline fill="none" stroke="#000000" stroke-miterlimit="10" points="210.333,180 216.083,156 228.042,132 252.021,116.5 
		276,108.5 300,105.5 324,108.5 350.375,117.875 372,132.125 384,156.063 387.667,180.031 384,204.016 372,228.008 356.748,248.752 
		332.749,272.751 312,288.001 288,300 264,309.5 240,324 216,348 200,372 191.5,396 191.5,420 200.625,447.125 215.875,468 
		237.594,482.594 264,492.5 288,495.5 312,495 336,492.5 362.125,482.375 384,468.125 398.094,446.406 407.5,420 407.5,396 399,372 
		383.875,348 360.438,327.063 335.969,312 314.242,298.242 287.992,281.5 263.996,264 251.998,252 227.999,228 216,204.25 
		210.333,180 	"/>
</g>
<g id="Layer_2">
	<path d="M412.558,180.251c0,20.056-5.859,39.587-17.578,58.594c-11.719,19.013-29.432,35.291-53.125,48.828
		c17.969,9.119,32.617,18.103,43.945,26.954c11.328,8.855,20.245,17.969,26.758,27.344c6.506,9.375,10.938,19.012,13.281,28.906
		c2.344,9.899,3.516,20.446,3.516,31.641c0,19.274-3.32,36.133-9.961,50.586s-15.76,26.629-27.344,36.523
		c-11.591,9.899-25.33,17.321-41.211,22.266c-15.888,4.943-33.075,7.422-51.563,7.422c-18.494,0-35.614-2.479-51.367-7.422
		c-15.759-4.944-29.364-12.366-40.82-22.266c-11.462-9.895-20.508-22.07-27.148-36.523s-9.961-31.312-9.961-50.586
		c0-22.132,7.159-42.773,21.484-61.914c14.319-19.141,38.281-36.39,71.875-51.758c-27.869-15.881-47.595-32.94-59.18-51.172
		c-11.591-18.225-17.383-37.366-17.383-57.422c0-16.406,2.862-30.92,8.594-43.555c5.725-12.628,13.604-23.242,23.633-31.836
		c10.022-8.594,21.875-15.039,35.547-19.336s28.577-6.445,44.727-6.445c16.144,0,31.115,2.148,44.922,6.445
		c13.8,4.297,25.781,10.681,35.938,19.141c10.156,8.466,18.097,19.013,23.828,31.641
		C409.688,148.94,412.558,163.589,412.558,180.251z M398.104,402.518c-1.307-14.063-4.822-25.843-10.547-35.352
		c-5.731-9.504-12.958-17.773-21.68-24.805c-8.729-7.031-18.817-13.41-30.273-19.141c-11.463-5.726-23.572-11.976-36.328-18.75
		c-22.919,10.418-40.955,20.379-54.102,29.883c-13.153,9.509-22.986,18.426-29.492,26.758c-6.513,8.337-10.547,15.954-12.109,22.852
		c-1.563,6.902-2.344,13.086-2.344,18.555c0,14.063,2.862,26.434,8.594,37.109c5.725,10.681,13.214,19.598,22.461,26.758
		c9.241,7.165,19.727,12.566,31.445,16.211c11.719,3.649,23.565,5.469,35.547,5.469c13.281,0,25.977-1.819,38.086-5.469
		c12.109-3.645,22.656-9.046,31.641-16.211c8.984-7.16,16.144-16.077,21.484-26.758C395.821,428.951,398.36,416.58,398.104,402.518z
		 M380.917,180.251c0-11.456-1.953-21.545-5.859-30.273c-3.906-8.722-9.51-16.016-16.797-21.875
		c-7.294-5.859-15.955-10.284-25.977-13.281c-10.028-2.991-21.033-4.492-33.008-4.492c-11.981,0-22.986,1.501-33.008,4.492
		c-10.028,2.997-18.622,7.422-25.781,13.281c-7.166,5.859-12.695,13.153-16.602,21.875c-3.906,8.728-5.859,18.817-5.859,30.273
		c0,9.9,2.014,19.08,6.055,27.539c4.034,8.466,9.766,16.406,17.188,23.828s16.272,14.453,26.563,21.094
		c10.284,6.641,21.808,12.958,34.57,18.945c25.256-10.938,44.659-24.023,58.203-39.258
		C374.142,217.166,380.917,199.783,380.917,180.251z"/>
</g>
<g id="Layer_1" display="none">
</g>
</svg>
