<?xml version="1.0" encoding="utf-8"?>
<!-- Generator: Adobe Illustrator 15.0.0, SVG Export Plug-In . SVG Version: 6.00 Build 0)  -->
<!DOCTYPE svg PUBLIC "-//W3C//DTD SVG 1.1//EN" "http://www.w3.org/Graphics/SVG/1.1/DTD/svg11.dtd">
<svg version="1.1" xmlns="http://www.w3.org/2000/svg" xmlns:xlink="http://www.w3.org/1999/xlink" x="0px" y="0px" width="600px"
	 height="600px" viewBox="0 0 600 600" enable-background="new 0 0 600 600" xml:space="preserve">
<g id="Layer_3">
	<polyline fill="none" stroke="#000000" stroke-miterlimit="10" points="419.5,288 419.5,264 416.334,240 407.5,216 395.75,192 
		383.875,168 371.938,144 347.969,120 323.984,108 299.992,99 275.75,101.5 252,108.5 226.25,130.75 203.75,156.125 191.5,180 
		188.5,204 187.5,228 191.5,252 203.75,276 225.063,302.813 251.938,324.25 276,336.5 300,339 324,336.5 350.333,325.917 
		371.667,315.75 395.75,303 419.5,288 419.5,312 419.5,336 416,366 407.5,396 395.75,420 383.875,444 371.938,468 347.969,492.25 
		324,504.5 300,506.333 276,504.5 252,495.333 228,480.125 204,456.063 191.75,432.031 	"/>
</g>
<g id="Layer_2">
	<g>
		<path d="M432.089,285.33c0,77.869-11.658,136.329-34.961,175.391c-23.31,39.063-59.705,58.594-109.18,58.594
			c-29.95,0-54.822-8.137-74.609-24.414c-19.794-16.272-32.294-39.387-37.5-69.336h32.031c1.563,11.462,4.62,21.16,9.18,29.102
			c4.553,7.946,10.413,14.392,17.578,19.336c7.159,4.949,15.558,8.532,25.195,10.742c9.631,2.215,20.178,3.32,31.641,3.32
			c14.844,0,28.516-3.645,41.016-10.938c12.5-7.288,23.565-18.098,33.203-32.422c9.631-14.319,17.511-32.227,23.633-53.711
			c6.115-21.484,9.961-46.289,11.523-74.414c-6.513,4.949-13.544,9.704-21.094,14.258c-7.557,4.559-15.82,8.66-24.805,12.305
			c-8.984,3.649-18.817,6.579-29.492,8.789c-10.682,2.215-22.528,3.32-35.547,3.32c-18.231,0-34.9-3.516-50-10.547
			c-15.106-7.031-27.997-16.602-38.672-28.711c-10.681-12.109-19.013-26.233-25-42.383c-5.994-16.144-8.984-33.331-8.984-51.563
			c0-19.269,2.795-37.695,8.398-55.273c5.597-17.578,13.733-33.136,24.414-46.68c10.675-13.538,23.889-24.28,39.648-32.227
			c15.753-7.94,33.655-11.914,53.711-11.914c22.394,0,42.188,4.626,59.375,13.867c17.188,9.247,31.641,22.791,43.359,40.625
			c11.719,17.841,20.636,39.783,26.758,65.82C429.024,222.311,432.089,251.999,432.089,285.33z M399.667,277.908
			c0-28.125-2.674-52.795-8.008-74.023c-5.341-21.222-12.695-38.995-22.07-53.32c-9.375-14.319-20.508-25.128-33.398-32.422
			c-12.891-7.288-26.893-10.938-41.992-10.938c-14.844,0-28.192,3.259-40.039,9.766c-11.853,6.513-21.875,14.978-30.078,25.391
			c-8.203,10.419-14.521,22.333-18.945,35.742c-4.431,13.416-6.641,26.892-6.641,40.43c0,14.325,2.148,27.869,6.445,40.625
			c4.297,12.763,10.547,23.962,18.75,33.594c8.203,9.637,18.359,17.254,30.469,22.852c12.109,5.603,25.842,8.398,41.211,8.398
			c8.331,0,17.053-1.105,26.172-3.32c9.112-2.21,18.225-5.335,27.344-9.375c9.112-4.035,17.969-8.918,26.563-14.649
			C384.042,290.933,392.11,284.683,399.667,277.908z"/>
	</g>
</g>
<g id="Layer_1" display="none">
</g>
</svg>
