<?xml version="1.0" encoding="utf-8"?>
<!-- Generator: Adobe Illustrator 15.0.0, SVG Export Plug-In . SVG Version: 6.00 Build 0)  -->
<!DOCTYPE svg PUBLIC "-//W3C//DTD SVG 1.1//EN" "http://www.w3.org/Graphics/SVG/1.1/DTD/svg11.dtd">
<svg version="1.1" id="Layer_1" xmlns="http://www.w3.org/2000/svg" xmlns:xlink="http://www.w3.org/1999/xlink" x="0px" y="0px"
	 width="600px" height="600px" viewBox="0 0 600 600" enable-background="new 0 0 600 600" xml:space="preserve">
<text transform="matrix(1 0 0 1 122.2734 531.3945)" display="none" font-family="'MyriadPro-Regular'" font-size="720">2</text>
<path d="M154.673,531.395v-38.881l49.68-48.24c119.521-113.76,174.24-174.24,174.24-244.8c0-47.52-22.32-91.44-92.16-91.44
	c-42.479,0-77.76,21.6-99.36,39.6l-20.16-44.64c31.68-26.64,78.48-47.52,132.48-47.52c100.08,0,142.561,69.12,142.561,136.08
	c0,86.4-62.641,156.241-161.28,251.281l-36.72,34.561v1.439h209.52v52.561H154.673z"/>
<polyline points="192.849,113.909 289.818,82.091 373.151,113.909 402.697,202.545 379.97,293.434 358.758,325.272 "/>
</svg>
