<?xml version="1.0" encoding="utf-8"?>
<!-- Generator: Adobe Illustrator 15.0.0, SVG Export Plug-In . SVG Version: 6.00 Build 0)  -->
<!DOCTYPE svg PUBLIC "-//W3C//DTD SVG 1.1//EN" "http://www.w3.org/Graphics/SVG/1.1/DTD/svg11.dtd">
<svg version="1.1" id="Layer_1" xmlns="http://www.w3.org/2000/svg" xmlns:xlink="http://www.w3.org/1999/xlink" x="0px" y="0px"
	 width="240.094px" height="300px" viewBox="0 0 240.094 300" enable-background="new 0 0 240.094 300" xml:space="preserve">
<polygon fill="#33CCCC" points="160.401,156.789 160.402,156.789 160.402,121.434 125.047,156.789 125.049,156.789 125.047,156.789 
	125.047,156.789 89.691,121.434 89.691,121.434 89.691,121.434 39.691,121.434 39.691,171.434 64.691,146.434 89.691,171.434 
	89.692,171.432 89.692,192.145 89.692,192.145 54.337,227.5 89.691,227.5 125.047,192.145 160.402,192.145 195.758,227.5 
	195.758,156.789 "/>
<polygon fill="#CCCC33" points="160.402,71.434 160.402,71.434 135.402,96.433 160.403,121.434 185.402,96.434 "/>
</svg>
