<?xml version="1.0" encoding="utf-8"?>
<!-- Generator: Adobe Illustrator 15.0.0, SVG Export Plug-In . SVG Version: 6.00 Build 0)  -->
<!DOCTYPE svg PUBLIC "-//W3C//DTD SVG 1.1//EN" "http://www.w3.org/Graphics/SVG/1.1/DTD/svg11.dtd">
<svg version="1.1" id="Layer_1" xmlns="http://www.w3.org/2000/svg" xmlns:xlink="http://www.w3.org/1999/xlink" x="0px" y="0px"
	 width="600px" height="600px" viewBox="0 0 600 600" enable-background="new 0 0 600 600" xml:space="preserve">
<text transform="matrix(1 0 0 1 218.4697 297)" font-family="'ArialMT'" font-size="290">L</text>
<image overflow="visible" enable-background="new    " width="1500" height="1025" xlink:href="en-cursive1.gif"  transform="matrix(4.375 0 0 4.375 -418.5 -1873.9023)">
</image>
<path fill="none" d="M1706.5,752.5c-24.036-0.442-51.327,15.479-74.667,45.333c-56.239,71.936-103.775,216.52-155.333,296.667
	c-23.783,36.971-52.398,53.935-76,55c-96,4.333-106.666-47.667-62-80c14.356-10.393,46.813-7.998,83.333,3.667
	c77.106,24.628,119.334,84,174.667,81.333s88-30,88-30"/>
</svg>
