<?xml version="1.0" encoding="utf-8"?>
<!-- Generator: Adobe Illustrator 15.0.0, SVG Export Plug-In . SVG Version: 6.00 Build 0)  -->
<!DOCTYPE svg PUBLIC "-//W3C//DTD SVG 1.1//EN" "http://www.w3.org/Graphics/SVG/1.1/DTD/svg11.dtd">
<svg version="1.1" id="Layer_1" xmlns="http://www.w3.org/2000/svg" xmlns:xlink="http://www.w3.org/1999/xlink" x="0px" y="0px"
	 width="600px" height="600px" viewBox="0 0 600 600" enable-background="new 0 0 600 600" xml:space="preserve">
<text transform="matrix(1 0 0 1 218.4697 297)" display="none" enable-background="new    " font-family="'ArialMT'" font-size="290">B</text>
<image overflow="visible" enable-background="new    " width="1500" height="1025" xlink:href="en-cursive1.gif"  transform="matrix(4.375 0 0 4.375 -959.9727 -1869.4023)">
</image>
<line fill="none" x1="277.833" y1="97.167" x2="143.167" y2="501.167"/>
<path fill="none" d="M265.833,159.167c0,0,72.117-63.672,133.333-64.667c21.914-0.356,51.734,4.839,63.333,27.333
	c10.556,20.471,20.558,43.762,18.667,66.629c-3.165,38.266-30.345,75.346-76,96.037c-26.978,12.227-60.854,13.729-105.678,12
	c-22.947-0.885-48.762-0.69-77.989-4.333c30.86,1.076,56.394,3.884,77.638,4.667c58.223,2.146,79.898,5.094,95.029,14.667
	c13.116,8.297,24.647,25.541,30.333,35.667c9.229,16.436,14.108,32.482,12.5,51.356c-1.47,17.255-7.992,36.872-29.166,61.31
	C363.5,511,272.5,536.166,188.5,409.833"/>
</svg>
