<?xml version="1.0" encoding="utf-8"?>
<!-- Generator: Adobe Illustrator 15.0.0, SVG Export Plug-In . SVG Version: 6.00 Build 0)  -->
<!DOCTYPE svg PUBLIC "-//W3C//DTD SVG 1.1//EN" "http://www.w3.org/Graphics/SVG/1.1/DTD/svg11.dtd">
<svg version="1.1" id="Layer_1" xmlns="http://www.w3.org/2000/svg" xmlns:xlink="http://www.w3.org/1999/xlink" x="0px" y="0px"
	 width="600px" height="600px" viewBox="0 0 600 600" enable-background="new 0 0 600 600" xml:space="preserve">
<text transform="matrix(1 0 0 1 218.4697 297)" font-family="'ArialMT'" font-size="290">M</text>
<image overflow="visible" enable-background="new    " width="1500" height="1025" xlink:href="en-cursive1.gif"  transform="matrix(4.375 0 0 4.375 -2326.6875 -2530.9688)">
</image>
<path fill="none" d="M149.601,109.103c11.764,8.199,20.5,38.644,15.461,69.836c-5.851,36.219-27.38,82.471-45.228,129.022
	c-31.457,82.046-64.395,165.021-72.228,195.622c25.837-67.816,47.316-136.923,71.155-198.782
	c14.801-38.409,30.512-74.023,48.74-104.801c32.969-55.667,78.894-101.878,123.093-93.897c30.26,5.463,55.907,17.397,50.907,71.397
	c-1.813,50.687-25.313,115.653-49,178c-25.731,67.73-51.933,131.624-57.404,151.082c15.405-45.645,35.678-98.153,54.644-152.654
	C307.994,301.471,324.82,246.95,346,206c38.811-75.038,99.643-108.989,146.5-95.5c65.633,18.895,13,148-27,248
	c-18.85,47.125-31.921,80.576-34.5,103.464c-2.894,25.681,6.335,38.062,14.086,41.536c43.498,19.499,95.995-25.416,95.995-25.416"/>
</svg>
