<?xml version="1.0" encoding="utf-8"?>
<!-- Generator: Adobe Illustrator 15.0.0, SVG Export Plug-In . SVG Version: 6.00 Build 0)  -->
<!DOCTYPE svg PUBLIC "-//W3C//DTD SVG 1.1//EN" "http://www.w3.org/Graphics/SVG/1.1/DTD/svg11.dtd">
<svg version="1.1" id="Layer_1" xmlns="http://www.w3.org/2000/svg" xmlns:xlink="http://www.w3.org/1999/xlink" x="0px" y="0px"
	 width="600px" height="600px" viewBox="0 0 600 600" enable-background="new 0 0 600 600" xml:space="preserve">
<text transform="matrix(1 0 0 1 218.4697 297)" font-family="'ArialMT'" font-size="290">m</text>
<image overflow="visible" enable-background="new    " width="1500" height="1025" xlink:href="en-cursive1.gif"  transform="matrix(4.375 0 0 4.375 -1350.5938 -669.0781)">
</image>
<path fill="none" d="M123.167,205.167c11.654,5.681,27.122,18.043,28.667,34c5.527,57.07-50,159.333-50,159.333
	s50-130.667,75.333-157.333s50.207-40.641,76.667-34.667c23.525,5.312,39.721,19.477,41.333,42.667
	c2.079,29.908-15.509,64.582-28.529,95.863c-12.36,29.696-20.137,56.804-20.137,56.804s30.638-105.135,79.333-162
	c22.751-26.567,63.502-36.428,81.334-31.333c17.668,5.048,33.714,19.126,30.666,46.667c-3.571,32.279-28.294,80.02-31.333,108
	c-2.587,23.812,6.191,31.197,20.667,32.666c46,4.667,94-30,94-30"/>
</svg>
