<?xml version="1.0" encoding="utf-8"?>
<!-- Generator: Adobe Illustrator 15.0.0, SVG Export Plug-In . SVG Version: 6.00 Build 0)  -->
<!DOCTYPE svg PUBLIC "-//W3C//DTD SVG 1.1//EN" "http://www.w3.org/Graphics/SVG/1.1/DTD/svg11.dtd">
<svg version="1.1" id="Layer_1" xmlns="http://www.w3.org/2000/svg" xmlns:xlink="http://www.w3.org/1999/xlink" x="0px" y="0px"
	 width="600px" height="600px" viewBox="0 0 600 600" enable-background="new 0 0 600 600" xml:space="preserve">
<text transform="matrix(1 0 0 1 218.4697 297)" font-family="'ArialMT'" font-size="290">d</text>
<image overflow="visible" enable-background="new    " width="1500" height="1025" xlink:href="en-cursive1.gif"  transform="matrix(4.375 0 0 4.375 -2110.4102 70)">
</image>
<path fill="none" d="M361.832,299.17c-18.67-19.331-130.667,10.666-178.003,88.002c-15.112,24.689-16.14,61.332-0.079,82.328
	c12.996,16.989,38.955,22.814,63.75,11c16.927-8.065,41.73-23.577,63-49.5c29.674-36.167,131.998-347.83,131.998-347.83
	s-36.891,107.302-71.664,206.33c-20.22,57.584-42.985,108.932-48.834,143.75c-2.063,12.282-1.629,23.068-0.5,29
	c5.145,27.022,37.287,28.106,66.25,18.75c26.409-8.532,50.081-26.496,50.081-26.496"/>
</svg>
