<?xml version="1.0" encoding="utf-8"?>
<!-- Generator: Adobe Illustrator 15.0.0, SVG Export Plug-In . SVG Version: 6.00 Build 0)  -->
<!DOCTYPE svg PUBLIC "-//W3C//DTD SVG 1.1//EN" "http://www.w3.org/Graphics/SVG/1.1/DTD/svg11.dtd">
<svg version="1.1" id="Layer_1" xmlns="http://www.w3.org/2000/svg" xmlns:xlink="http://www.w3.org/1999/xlink" x="0px" y="0px"
	 width="600px" height="600px" viewBox="0 0 600 600" enable-background="new 0 0 600 600" xml:space="preserve">
<text transform="matrix(1 0 0 1 218.4697 297)" font-family="'ArialMT'" font-size="290">h</text>
<image overflow="visible" enable-background="new    " width="1500" height="1025" xlink:href="en-cursive1.gif"  transform="matrix(4.375 0 0 4.375 -4265.8906 61)">
</image>
<path fill="none" d="M248.5,333.5c0,0,81.333-79.667,114-135s35.333-97,5.999-109.333s-58.665,67.333-80.999,126
	c-9.867,25.917-26.361,88.598-45.269,146.935C218.339,435.815,192.5,504.5,192.5,504.5s18.869-75.159,58.297-131.631
	c29.576-42.361,63.746-71.513,105.035-65.369c16.515,2.457,19.302,14.159,22.667,23.668c10.096,28.526-21.222,77.159-34,116
	c-7.808,23.732,5.927,45.389,23.001,46.332c54.332,3.001,85-28,85-28"/>
</svg>
