<?xml version="1.0" encoding="utf-8"?>
<!-- Generator: Adobe Illustrator 15.0.0, SVG Export Plug-In . SVG Version: 6.00 Build 0)  -->
<!DOCTYPE svg PUBLIC "-//W3C//DTD SVG 1.1//EN" "http://www.w3.org/Graphics/SVG/1.1/DTD/svg11.dtd">
<svg version="1.1" id="Layer_1" xmlns="http://www.w3.org/2000/svg" xmlns:xlink="http://www.w3.org/1999/xlink" x="0px" y="0px"
	 width="600px" height="600px" viewBox="0 0 600 600" enable-background="new 0 0 600 600" xml:space="preserve">
<text transform="matrix(1 0 0 1 218.4697 297)" font-family="'ArialMT'" font-size="290">g</text>
<image overflow="visible" enable-background="new    " width="1500" height="1025" xlink:href="en-cursive1.gif"  transform="matrix(4.375 0 0 4.375 -3651.5 -141)">
</image>
<path fill="none" d="M431.5,98.5c-45-9.333-151,34-181,84s-20,89.333,24,105c10.573,3.765,36.188-0.581,59-15
	c13.56-8.571,24.731-22.683,35-35.333c44.347-54.639,66.667-134,66.667-134S328.166,425.5,290.833,483.5
	c-20.422,31.728-47.593,18.296-59-1c-9.446-15.978-5.618-34.354-0.333-49c5.484-15.2,47.37-67.318,97-105
	c55.945-42.476,120-64,120-64"/>
</svg>
