<?xml version="1.0" encoding="utf-8"?>
<!-- Generator: Adobe Illustrator 15.0.0, SVG Export Plug-In . SVG Version: 6.00 Build 0)  -->
<!DOCTYPE svg PUBLIC "-//W3C//DTD SVG 1.1//EN" "http://www.w3.org/Graphics/SVG/1.1/DTD/svg11.dtd">
<svg version="1.1" id="Layer_1" xmlns="http://www.w3.org/2000/svg" xmlns:xlink="http://www.w3.org/1999/xlink" x="0px" y="0px"
	 width="600px" height="600px" viewBox="0 0 600 600" enable-background="new 0 0 600 600" xml:space="preserve">
<text transform="matrix(1 0 0 1 218.4697 297)" font-family="'ArialMT'" font-size="290">n</text>
<image overflow="visible" enable-background="new    " width="1500" height="1025" xlink:href="en-cursive1.gif"  transform="matrix(4.375 0 0 4.375 -2162.5 -674)">
</image>
<path fill="none" d="M208.5,206.5c14.473,11.133,27.774,27.969,24.5,55.5c-2.909,24.46-14.617,50.584-24.562,75.562
	C194.387,372.854,181.5,403.5,181.5,403.5s11.42-30.912,26.5-68.5c10.276-25.614,19.887-54.579,38-78
	c22.152-28.645,53.686-46.677,85.5-48.5c22.829-1.308,37.151,14.34,40.5,29c6.527,28.573-17.837,71.981-26.5,109
	c-5.583,23.854-0.551,39.325,10.5,45c37,19,88.5-15,99.5-24"/>
</svg>
