<?xml version="1.0" encoding="utf-8"?>
<!-- Generator: Adobe Illustrator 15.0.0, SVG Export Plug-In . SVG Version: 6.00 Build 0)  -->
<!DOCTYPE svg PUBLIC "-//W3C//DTD SVG 1.1//EN" "http://www.w3.org/Graphics/SVG/1.1/DTD/svg11.dtd">
<svg version="1.1" id="Layer_1" xmlns="http://www.w3.org/2000/svg" xmlns:xlink="http://www.w3.org/1999/xlink" x="0px" y="0px"
	 width="600px" height="600px" viewBox="0 0 600 600" enable-background="new 0 0 600 600" xml:space="preserve">
<text transform="matrix(1 0 0 1 218.4697 297)" font-family="'ArialMT'" font-size="290">k</text>
<image overflow="visible" enable-background="new    " width="1500" height="1025" xlink:href="en-cursive1.gif"  transform="matrix(4.375 0 0 4.375 -5844.5 32)">
</image>
<path fill="none" d="M250.5,305.5c0,0,46.231-52.622,82.667-111c14.069-22.542,24.999-38.667,40.666-79.333
	S330.5,68.5,305.167,127.833c-25.333,59.333-128,359.333-128,359.333s18.757-73.115,60.246-129.079
	c22.494-30.342,45.447-47.531,77.087-58.254c29.598-10.03,39.092-0.863,45,6.667c12.057,15.367-8.012,47.363-23,59.667
	c-9.191,7.546-22.607,13.779-42.667,14c-28.681,0.314-50-12-50-12s62.333,120,116.667,117.333s80-30,80-30"/>
</svg>
