<?xml version="1.0" encoding="utf-8"?>
<!-- Generator: Adobe Illustrator 15.0.0, SVG Export Plug-In . SVG Version: 6.00 Build 0)  -->
<!DOCTYPE svg PUBLIC "-//W3C//DTD SVG 1.1//EN" "http://www.w3.org/Graphics/SVG/1.1/DTD/svg11.dtd">
<svg version="1.1" id="Layer_1" xmlns="http://www.w3.org/2000/svg" xmlns:xlink="http://www.w3.org/1999/xlink" x="0px" y="0px"
	 width="600px" height="600px" viewBox="0 0 600 600" enable-background="new 0 0 600 600" xml:space="preserve">
<text transform="matrix(1 0 0 1 218.4697 297)" font-family="'ArialMT'" font-size="290">f</text>
<image overflow="visible" enable-background="new    " width="1500" height="1025" xlink:href="en-cursive1.gif"  transform="matrix(3.2408 0 0 3.2408 -2284.7695 57.5)">
</image>
<path fill="none" d="M256.093,290.591C256.093,290.591,368,186,393,125.5s-26.822-72.3-48.411-11.9
	c-12.321,34.471-52.833,151.915-88.089,249.233c-18.507,51.087-59,136.417-49,155.667s26.147,12.661,39.908,0.5
	c13.852-12.242,26.214-33.788,31.184-60.417c4.255-22.796,4.774-45.849,0.287-61.038c-5.962-20.18-18.286-28.957-18.286-28.957
	s35.906,10.578,73.24-13.755"/>
</svg>
