<?xml version="1.0" encoding="utf-8"?>
<!-- Generator: Adobe Illustrator 15.0.0, SVG Export Plug-In . SVG Version: 6.00 Build 0)  -->
<!DOCTYPE svg PUBLIC "-//W3C//DTD SVG 1.1//EN" "http://www.w3.org/Graphics/SVG/1.1/DTD/svg11.dtd">
<svg version="1.1" id="Layer_1" xmlns="http://www.w3.org/2000/svg" xmlns:xlink="http://www.w3.org/1999/xlink" x="0px" y="0px"
	 width="600px" height="600px" viewBox="0 0 600 600" enable-background="new 0 0 600 600" xml:space="preserve">
<text transform="matrix(1 0 0 1 218.4697 297)" font-family="'ArialMT'" font-size="290">ле</text>
<image overflow="visible" enable-background="new    " width="1461" height="707" xlink:href="ru-cursive1.jpg"  transform="matrix(5.0162 0 0 5.0162 -753.0596 -2486.2764)">
</image>
<path fill="none" d="M116.5,175.5c9.333-10.667,61-59.667,88-61c89.333,3-165,325-101,354c18.682,8.465,56.896-10.149,91-52
	c82.731-101.522,178-301,178-301S282.724,273.131,245,378.637c-17.147,47.957-30.313,85.145-7.5,91.863
	c25.733,7.579,94.833-52.753,137-110c77.454-105.152,131-244,131-244s-40.147,84.263-82.466,166.966
	c-18.303,35.771-42.822,65.438-55.034,97.511c-17.429,45.772-18.696,81.887-6.5,91.523c40.5,32,137-87,137-87"/>
</svg>
