<?xml version="1.0" encoding="utf-8"?>
<!-- Generator: Adobe Illustrator 15.0.0, SVG Export Plug-In . SVG Version: 6.00 Build 0)  -->
<!DOCTYPE svg PUBLIC "-//W3C//DTD SVG 1.1//EN" "http://www.w3.org/Graphics/SVG/1.1/DTD/svg11.dtd">
<svg version="1.1" id="Layer_1" xmlns="http://www.w3.org/2000/svg" xmlns:xlink="http://www.w3.org/1999/xlink" x="0px" y="0px"
	 width="600px" height="600px" viewBox="0 0 600 600" enable-background="new 0 0 600 600" xml:space="preserve">
<text transform="matrix(1 0 0 1 218.4697 297)" font-family="'ArialMT'" font-size="290">Т</text>
<image overflow="visible" enable-background="new    " width="1461" height="707" xlink:href="ru-cursive1.jpg"  transform="matrix(3.5626 0 0 3.5626 -1869.623 -1236.4004)">
</image>
<path fill="none" d="M250,228.5c-37.5,68-60.243,142.269-109.5,203c-14.593,17.993-39.5,23.914-47.5,23c-35-4-34-36.5-34-36.5"/>
<line fill="none" x1="348.5" y1="228" x2="236.5" y2="451.5"/>
<path fill="none" d="M442.5,229c0,0-59.5,117.5-80,161.5s-14,59,1.5,62.5s94.5-63.5,94.5-63.5"/>
<path fill="none" d="M145.5,275c0.75-53,30.25-76.25,62.5-76.5s345.5-4.5,345.5-4.5"/>
</svg>
