<?xml version="1.0" encoding="utf-8"?>
<!-- Generator: Adobe Illustrator 15.0.0, SVG Export Plug-In . SVG Version: 6.00 Build 0)  -->
<!DOCTYPE svg PUBLIC "-//W3C//DTD SVG 1.1//EN" "http://www.w3.org/Graphics/SVG/1.1/DTD/svg11.dtd">
<svg version="1.1" id="Layer_1" xmlns="http://www.w3.org/2000/svg" xmlns:xlink="http://www.w3.org/1999/xlink" x="0px" y="0px"
	 width="600px" height="600px" viewBox="0 0 600 600" enable-background="new 0 0 600 600" xml:space="preserve">
<text transform="matrix(1 0 0 1 218.4697 297)" font-family="'ArialMT'" font-size="290">Ц</text>
<image overflow="visible" enable-background="new    " width="1461" height="707" xlink:href="ru-cursive1.jpg"  transform="matrix(5.0162 0 0 5.0162 -6200.0674 -1927.7373)">
</image>
<path fill="none" d="M173.5,147.5c0,0,75-85,101-51s-189,299-118,348c26.135,18.037,94.802-44.19,140-106
	c77.589-106.104,134-248,134-248s-37.973,78.344-78.709,158.209C307.479,335.584,260.651,425.017,275.5,437c28.5,23,59,1.5,59,1.5
	s44.333,68-1,106s-70-3.333-40-31c12.229-11.277,49.644-36.026,87.202-63.868C435.286,409.169,492.5,364.5,492.5,364.5"/>
</svg>
