<?xml version="1.0" encoding="utf-8"?>
<!-- Generator: Adobe Illustrator 15.0.0, SVG Export Plug-In . SVG Version: 6.00 Build 0)  -->
<!DOCTYPE svg PUBLIC "-//W3C//DTD SVG 1.1//EN" "http://www.w3.org/Graphics/SVG/1.1/DTD/svg11.dtd">
<svg version="1.1" id="Layer_1" xmlns="http://www.w3.org/2000/svg" xmlns:xlink="http://www.w3.org/1999/xlink" x="0px" y="0px"
	 width="600px" height="600px" viewBox="0 0 600 600" enable-background="new 0 0 600 600" xml:space="preserve">
<text transform="matrix(1 0 0 1 218.4697 297)" font-family="'ArialMT'" font-size="290">Я</text>
<image overflow="visible" enable-background="new    " width="1461" height="707" xlink:href="ru-cursive1.jpg"  transform="matrix(5.0162 0 0 5.0162 -6395.0596 -2479.2764)">
</image>
<path fill="none" d="M120.5,429.5c22,70.333,48,39.667,135-20s182.667-208.667,181.334-266.667s-94.668-25-115.334-1.333
	s-85.333,108-38,147c17.189,14.163,45.355,8.178,71.482-12.482C400.8,239.786,446.249,164.325,457.5,115.5
	c-46.857,132.677-143.25,269.75-152.25,321.25c-3.307,18.92,8.679,45.156,34.25,34.5c44.035-18.352,117-82.75,117-82.75"/>
</svg>
