<?xml version="1.0" encoding="utf-8"?>
<!-- Generator: Adobe Illustrator 15.0.0, SVG Export Plug-In . SVG Version: 6.00 Build 0)  -->
<!DOCTYPE svg PUBLIC "-//W3C//DTD SVG 1.1//EN" "http://www.w3.org/Graphics/SVG/1.1/DTD/svg11.dtd">
<svg version="1.1" id="Layer_1" xmlns="http://www.w3.org/2000/svg" xmlns:xlink="http://www.w3.org/1999/xlink" x="0px" y="0px"
	 width="600px" height="600px" viewBox="0 0 600 600" enable-background="new 0 0 600 600" xml:space="preserve">
<text transform="matrix(1 0 0 1 218.4697 297)" font-family="'ArialMT'" font-size="290">Ж</text>
<image overflow="visible" enable-background="new    " width="1461" height="707" xlink:href="ru-cursive1.jpg"  transform="matrix(3.3506 0 0 3.3506 -3855.8625 -379.7549)">
</image>
<path fill="none" d="M113.169,233.163c107.998-93.33,161.594-35.907,84.998,97.004S59.372,458.673,56.603,398.586
	c22.897,122.247,142.564-67.753,142.564-67.753l152.921-134.737L239.172,431.162c0,0,154.833-130.479,159.414-140.571
	s29.879-63.909,65.08-85.591c39.544-24.357,86.271-17.308,69.913,25.594C561,196,465.172,135.182,392.586,305.591
	s10.576,155.583,97.495,74.996"/>
</svg>
