<?xml version="1.0" encoding="utf-8"?>
<!-- Generator: Adobe Illustrator 15.0.0, SVG Export Plug-In . SVG Version: 6.00 Build 0)  -->
<!DOCTYPE svg PUBLIC "-//W3C//DTD SVG 1.1//EN" "http://www.w3.org/Graphics/SVG/1.1/DTD/svg11.dtd">
<svg version="1.1" id="Layer_1" xmlns="http://www.w3.org/2000/svg" xmlns:xlink="http://www.w3.org/1999/xlink" x="0px" y="0px"
	 width="600px" height="600px" viewBox="0 0 600 600" enable-background="new 0 0 600 600" xml:space="preserve">
<text transform="matrix(1 0 0 1 218.4697 297)" font-family="'ArialMT'" font-size="290">Ч</text>
<image overflow="visible" enable-background="new    " width="1461" height="707" xlink:href="ru-cursive1.jpg"  transform="matrix(5.0162 0 0 5.0162 -73.0596 -2479.2764)">
</image>
<path fill="none" d="M154.5,185.167c0,0,68-76.667,96-52.667s-75.333,138.667-24.667,174c19.72,13.752,87.37-35.9,118.167-70
	c18.507-20.493,28.742-40.932,37.75-58.354c14.516-28.074,21.416-48.313,21.416-48.313s-43.423,92.771-84.797,180.798
	c-39.366,83.755-77.339,162.751-56.536,171.202C304.5,499.166,402.5,400.5,402.5,400.5"/>
</svg>
