<?xml version="1.0" encoding="utf-8"?>
<!-- Generator: Adobe Illustrator 15.0.0, SVG Export Plug-In . SVG Version: 6.00 Build 0)  -->
<!DOCTYPE svg PUBLIC "-//W3C//DTD SVG 1.1//EN" "http://www.w3.org/Graphics/SVG/1.1/DTD/svg11.dtd">
<svg version="1.1" id="Layer_1" xmlns="http://www.w3.org/2000/svg" xmlns:xlink="http://www.w3.org/1999/xlink" x="0px" y="0px"
	 width="600px" height="600px" viewBox="0 0 600 600" enable-background="new 0 0 600 600" xml:space="preserve">
<text transform="matrix(1 0 0 1 218.4697 297)" font-family="'ArialMT'" font-size="290">Й</text>
<image overflow="visible" enable-background="new    " width="1461" height="707" xlink:href="ru-cursive1.jpg"  transform="matrix(5.0162 0 0 5.0162 -2005.0596 -1344.2764)">
</image>
<path fill="none" d="M161.5,193.5c252.5-207-84,251-17,269s157-100.5,253-321c-34.349,57.129-60.246,121.835-81,161.5
	c-70.794,135.296-66.309,163.468-40.333,162.167C313.447,463.301,398.5,389.5,398.5,389.5"/>
<path fill="none" d="M309.834,100.833c0,0,2.334,21.667,31,19s48.666-18.667,48.666-18.667"/>
</svg>
