<?xml version="1.0" encoding="utf-8"?>
<!-- Generator: Adobe Illustrator 15.0.0, SVG Export Plug-In . SVG Version: 6.00 Build 0)  -->
<!DOCTYPE svg PUBLIC "-//W3C//DTD SVG 1.1//EN" "http://www.w3.org/Graphics/SVG/1.1/DTD/svg11.dtd">
<svg version="1.1" id="Layer_1" xmlns="http://www.w3.org/2000/svg" xmlns:xlink="http://www.w3.org/1999/xlink" x="0px" y="0px"
	 width="600px" height="600px" viewBox="0 0 600 600" enable-background="new 0 0 600 600" xml:space="preserve">
<text transform="matrix(1 0 0 1 218.4697 297)" font-family="'ArialMT'" font-size="290">Ф</text>
<image overflow="visible" enable-background="new    " width="1461" height="707" xlink:href="ru-cursive1.jpg"  transform="matrix(5.0162 0 0 5.0162 -4512.8252 -1904.7373)">
</image>
<path fill="none" d="M406.5,117.5c-20.519,50.905-46.355,92.372-66.5,128.057C324.848,272.4,306.208,315.141,294,337
	c-50.56,90.536-57.378,107.358-84.833,120.833c-47.299,23.214-95.334,5.334-89.667-32.333"/>
<path fill="none" d="M339.834,238.499c-5.333-66.667-94.608-41.937-138,20.668c-24.793,35.771-34.424,81.457-26.667,98.667
	c21.333,47.333,121.333-18,121.333-18"/>
<path fill="none" d="M342.5,238.167c0,0,77.999-65.333,113.333-34.333s-7.334,105.333-37,136.333s-105.333,60.333-123.667-3"/>
</svg>
