<?xml version="1.0" encoding="utf-8"?>
<!-- Generator: Adobe Illustrator 15.0.0, SVG Export Plug-In . SVG Version: 6.00 Build 0)  -->
<!DOCTYPE svg PUBLIC "-//W3C//DTD SVG 1.1//EN" "http://www.w3.org/Graphics/SVG/1.1/DTD/svg11.dtd">
<svg version="1.1" id="Layer_1" xmlns="http://www.w3.org/2000/svg" xmlns:xlink="http://www.w3.org/1999/xlink" x="0px" y="0px"
	 width="600px" height="600px" viewBox="0 0 600 600" enable-background="new 0 0 600 600" xml:space="preserve">
<text transform="matrix(1 0 0 1 218.4697 297)" font-family="'ArialMT'" font-size="290">У</text>
<image overflow="visible" enable-background="new    " width="1461" height="707" xlink:href="ru-cursive1.jpg"  transform="matrix(5.0162 0 0 5.0162 -3736.0596 -1886.2764)">
</image>
<path fill="none" d="M179.833,180.5c126.666-122.841,119-22,90,20.667s-44.333,71.333-19.333,92c5.192,4.292,21.295,6.22,40.667-2
	c12.577-5.337,24.942-16.594,42-28.667c14.301-10.121,36.769-25.932,52.333-46.333c31.599-41.417,53.667-93,53.667-93
	s-93.333,189.333-124.667,252c-31.334,62.667-104.001,156.667-163.333,57.334"/>
</svg>
