<?xml version="1.0" encoding="utf-8"?>
<!-- Generator: Adobe Illustrator 15.0.0, SVG Export Plug-In . SVG Version: 6.00 Build 0)  -->
<!DOCTYPE svg PUBLIC "-//W3C//DTD SVG 1.1//EN" "http://www.w3.org/Graphics/SVG/1.1/DTD/svg11.dtd">
<svg version="1.1" id="Layer_1" xmlns="http://www.w3.org/2000/svg" xmlns:xlink="http://www.w3.org/1999/xlink" x="0px" y="0px"
	 width="600px" height="600px" viewBox="0 0 600 600" enable-background="new 0 0 600 600" xml:space="preserve">
<text transform="matrix(1 0 0 1 218.4697 297)" font-family="'ArialMT'" font-size="290">Щ</text>
<image overflow="visible" enable-background="new    " width="1461" height="707" xlink:href="ru-cursive1.jpg"  transform="matrix(5.0162 0 0 5.0162 -1820.9893 -2518.1904)">
</image>
<path fill="none" d="M101.5,143.5c0,0,76-80,102-59S32,397,86,438c17.34,13.165,64.977-5.236,103.979-53.979
	C272.438,280.969,361.5,87.5,361.5,87.5S322.471,169.687,280,249c-29.336,54.785-64.349,103.314-72.788,142.398
	c-4.99,23.111-3.387,39.653,8.288,45.102c26.501,12.367,87.888-26.38,138-94c63.346-85.476,138-259,138-259s-39.724,86.902-81.5,171
	c-39.154,78.817-80.773,154.567-74,171.5c14,35,62.5,5.5,62.5,5.5s35.75,77.25-3,109s-73.75-13.25-34-42s193-143,193-143"/>
</svg>
