<?xml version="1.0" encoding="utf-8"?>
<!-- Generator: Adobe Illustrator 15.0.0, SVG Export Plug-In . SVG Version: 6.00 Build 0)  -->
<!DOCTYPE svg PUBLIC "-//W3C//DTD SVG 1.1//EN" "http://www.w3.org/Graphics/SVG/1.1/DTD/svg11.dtd">
<svg version="1.1" id="Layer_1" xmlns="http://www.w3.org/2000/svg" xmlns:xlink="http://www.w3.org/1999/xlink" x="0px" y="0px"
	 width="600px" height="600px" viewBox="0 0 600 600" enable-background="new 0 0 600 600" xml:space="preserve">
<text transform="matrix(1 0 0 1 218.4697 297)" font-family="'ArialMT'" font-size="290">Д</text>
<image overflow="visible" enable-background="new    " width="1461" height="707" xlink:href="ru-cursive1.jpg"  transform="matrix(5.0162 0 0 5.0162 -3501.3877 -748.2764)">
</image>
<path fill="none" d="M383.5,157.5c-60,114-156.332,352.334-240.332,326.334s-31.336-56.668-5.668-59.334
	c15.865-1.647,39.4,29.51,77.001,45.334c23.232,9.777,53.155,11.449,85.999,2.666c27.866-7.452,85.919-57.774,125.85-125.18
	c69.793-117.816,99.215-272.826-77.183-234.82c-34.142,7.356-71.667,16-121.667,73s-28,139-28,139"/>
</svg>
