<?xml version="1.0" encoding="utf-8"?>
<!-- Generator: Adobe Illustrator 15.0.0, SVG Export Plug-In . SVG Version: 6.00 Build 0)  -->
<!DOCTYPE svg PUBLIC "-//W3C//DTD SVG 1.1//EN" "http://www.w3.org/Graphics/SVG/1.1/DTD/svg11.dtd">
<svg version="1.1" id="Layer_1" xmlns="http://www.w3.org/2000/svg" xmlns:xlink="http://www.w3.org/1999/xlink" x="0px" y="0px"
	 width="600px" height="600px" viewBox="0 0 600 600" enable-background="new 0 0 600 600" xml:space="preserve">
<text transform="matrix(1 0 0 1 218.4697 297)" font-family="'ArialMT'" font-size="290">а</text>
<image overflow="visible" enable-background="new    " width="1461" height="707" xlink:href="ru-cursive1.jpg"  transform="matrix(5.0162 0 0 5.0162 -586.0596 -831.2764)">
</image>
<path fill="none" d="M354.5,254.5c-54-110-147,30-166,67c-8.994,17.516-8.734,61.819,15,74.5c26.402,14.105,78.25-6.317,103-49.5
	c47-82,74-130,74-130S317.875,309.875,310,362c-2.233,14.783,2.272,31.634,11,35.5c39.5,17.5,150.5-86,150.5-86"/>
</svg>
