<?xml version="1.0" encoding="utf-8"?>
<!-- Generator: Adobe Illustrator 15.0.0, SVG Export Plug-In . SVG Version: 6.00 Build 0)  -->
<!DOCTYPE svg PUBLIC "-//W3C//DTD SVG 1.1//EN" "http://www.w3.org/Graphics/SVG/1.1/DTD/svg11.dtd">
<svg version="1.1" id="Layer_1" xmlns="http://www.w3.org/2000/svg" xmlns:xlink="http://www.w3.org/1999/xlink" x="0px" y="0px"
	 width="600px" height="600px" viewBox="0 0 600 600" enable-background="new 0 0 600 600" xml:space="preserve">
<text transform="matrix(1 0 0 1 218.4697 297)" font-family="'ArialMT'" font-size="290">ф</text>
<image overflow="visible" enable-background="new    " width="1461" height="707" xlink:href="ru-cursive1.jpg"  transform="matrix(5.0162 0 0 5.0162 -4802.0596 -2024.7764)">
</image>
<line fill="none" x1="358.088" y1="172.097" x2="190.096" y2="521.579"/>
<path fill="none" d="M335.167,213.166c9.333-53.333-65.667-57.333-114.333-13.666S168.167,312.164,170.5,324.499
	S219,386.332,294.334,299"/>
<path fill="none" d="M337.833,211.166c0,0,44.667-53.335,97.334-42.667s27.333,83.332,6,111.333s-49.916,54.418-75.917,64.417
	c-69.25,21-67-41.5-67-41.5"/>
</svg>
