<?xml version="1.0" encoding="utf-8"?>
<!-- Generator: Adobe Illustrator 15.0.0, SVG Export Plug-In . SVG Version: 6.00 Build 0)  -->
<!DOCTYPE svg PUBLIC "-//W3C//DTD SVG 1.1//EN" "http://www.w3.org/Graphics/SVG/1.1/DTD/svg11.dtd">
<svg version="1.1" id="Layer_1" xmlns="http://www.w3.org/2000/svg" xmlns:xlink="http://www.w3.org/1999/xlink" x="0px" y="0px"
	 width="600px" height="600px" viewBox="0 0 600 600" enable-background="new 0 0 600 600" xml:space="preserve">
<text transform="matrix(1 0 0 1 218.4697 297)" font-family="'ArialMT'" font-size="290">щ</text>
<image overflow="visible" enable-background="new    " width="1461" height="707" xlink:href="ru-cursive1.jpg"  transform="matrix(5.0162 0 0 5.0162 -2283.0596 -2582.2764)">
</image>
<path fill="none" d="M192.5,200.5c0,0-106,163-47,175c22.125,4.5,66.264-18.887,96-50c49.561-51.855,83-125,83-125
	s-23.06,48.924-42.667,88c-21.274,42.396-37.842,75.593,0.667,86c74,20,175-171,175-171s-89.667,142.333-55,166
	s50.667-6.333,50.667-6.333S497.166,436.5,451.5,471.5s-52.167-2.5-49.833-19.167c1.123-8.021,52.625-43.656,103.273-80.94
	C559.523,331.212,613.5,289.5,613.5,289.5"/>
</svg>
