<?xml version="1.0" encoding="utf-8"?>
<!-- Generator: Adobe Illustrator 15.0.0, SVG Export Plug-In . SVG Version: 6.00 Build 0)  -->
<!DOCTYPE svg PUBLIC "-//W3C//DTD SVG 1.1//EN" "http://www.w3.org/Graphics/SVG/1.1/DTD/svg11.dtd">
<svg version="1.1" id="Layer_1" xmlns="http://www.w3.org/2000/svg" xmlns:xlink="http://www.w3.org/1999/xlink" x="0px" y="0px"
	 width="600px" height="600px" viewBox="0 0 600 600" enable-background="new 0 0 600 600" xml:space="preserve">
<text transform="matrix(1 0 0 1 218.4697 297)" font-family="'ArialMT'" font-size="290">я</text>
<image overflow="visible" enable-background="new    " width="1461" height="707" xlink:href="ru-cursive1.jpg"  transform="matrix(5.0162 0 0 5.0162 -6714.5596 -2579.2764)">
</image>
<path fill="none" d="M182.596,341.588C179,374,249.678,406.68,319.089,308.59s20.412-110.756,15.745-112.09S248.593,182.093,252,250
	c3.407,67.906,83.834,30.5,83.834,30.5s35.838-67.144,41.752-76.905c-0.444,1.125-16.958,33.867-34.752,69.905
	c-12.324,24.96-27.888,50.189-28.334,73c-1.09,55.745,86.83,12.514,142.582-49.91"/>
</svg>
