<?xml version="1.0" encoding="utf-8"?>
<!-- Generator: Adobe Illustrator 15.0.0, SVG Export Plug-In . SVG Version: 6.00 Build 0)  -->
<!DOCTYPE svg PUBLIC "-//W3C//DTD SVG 1.1//EN" "http://www.w3.org/Graphics/SVG/1.1/DTD/svg11.dtd">
<svg version="1.1" id="Layer_1" xmlns="http://www.w3.org/2000/svg" xmlns:xlink="http://www.w3.org/1999/xlink" x="0px" y="0px"
	 width="600px" height="600px" viewBox="0 0 600 600" enable-background="new 0 0 600 600" xml:space="preserve">
<text transform="matrix(1 0 0 1 218.4697 297)" font-family="'ArialMT'" font-size="290">ж</text>
<image overflow="visible" enable-background="new    " width="1461" height="707" xlink:href="ru-cursive1.jpg"  transform="matrix(5.0162 0 0 5.0162 -6497.0596 -838.2764)">
</image>
<path fill="none" d="M106.5,243.5c36-48.5,166-77,110,53s-155.5,103-139,46c-1.767,73.014,66.75,44.25,85.75,27.5
	c7.998-7.051,20.489-19.396,30.302-33.302C207.051,317.566,217,297,217,297l112.5-87.5l-85,175c0,0,118-103.75,118-104
	c-0.291-15.569,21.989-46.737,51-63.667c37.448-21.854,83.63-23.604,81,24.667c19.333-35.333-80.334-77-130,33
	c-18.173,40.25-32.271,99.082-5,108.334c47.259,16.033,108.332-0.735,144-41"/>
</svg>
