<?xml version="1.0" encoding="utf-8"?>
<!-- Generator: Adobe Illustrator 15.0.0, SVG Export Plug-In . SVG Version: 6.00 Build 0)  -->
<!DOCTYPE svg PUBLIC "-//W3C//DTD SVG 1.1//EN" "http://www.w3.org/Graphics/SVG/1.1/DTD/svg11.dtd">
<svg version="1.1" id="Layer_1" xmlns="http://www.w3.org/2000/svg" xmlns:xlink="http://www.w3.org/1999/xlink" x="0px" y="0px"
	 width="600px" height="600px" viewBox="0 0 600 600" enable-background="new 0 0 600 600" xml:space="preserve">
<text transform="matrix(1 0 0 1 218.4697 297)" font-family="'ArialMT'" font-size="290">ш</text>
<image overflow="visible" enable-background="new    " width="1461" height="707" xlink:href="ru-cursive1.jpg"  transform="matrix(5.0162 0 0 5.0162 -1170.0596 -2570.2764)">
</image>
<path fill="none" d="M183.5,217.5c0,0-96,155-46,169c18.301,5.124,82.41-30.633,111-60c22.125-22.726,34.03-48.097,44-68.333
	c12.344-25.057,20-42.667,20-42.667s-92,161-39,174c19.341,4.744,83.225-39.099,112-70c17.966-19.293,29.149-41.621,39-59
	c17.606-31.062,26-52,26-52s-60.919,95.482-67,146c-1.753,14.562,9.945,31.763,18,34c36,10,136-92,136-92"/>
</svg>
