<?xml version="1.0" encoding="utf-8"?>
<!-- Generator: Adobe Illustrator 15.0.0, SVG Export Plug-In . SVG Version: 6.00 Build 0)  -->
<!DOCTYPE svg PUBLIC "-//W3C//DTD SVG 1.1//EN" "http://www.w3.org/Graphics/SVG/1.1/DTD/svg11.dtd">
<svg version="1.1" id="Layer_1" xmlns="http://www.w3.org/2000/svg" xmlns:xlink="http://www.w3.org/1999/xlink" x="0px" y="0px"
	 width="600px" height="600px" viewBox="0 0 600 600" enable-background="new 0 0 600 600" xml:space="preserve">
<text transform="matrix(1 0 0 1 218.4697 297)" font-family="'ArialMT'" font-size="290">ะบ</text>
<image overflow="visible" enable-background="new    " width="1461" height="707" xlink:href="ru-cursive1.jpg"  transform="matrix(5.0162 0 0 5.0162 -3023.333 -1417.3467)">
</image>
<path fill="none" d="M268.5,212.5l-88.474,178.279c0,0,11.505-25.343,29.724-59.362c8.293-15.484,14.424-34.049,27.75-50.583
	c14.201-17.62,37-31,56-46.667c76-62.667,72,23.833,72,23.833"/>
<path fill="none" d="M431.167,306.5c0,0-118,120-138,73.333c-6.643-15.501,2.699-47.237-5.667-61.666
	c-16.822-29.012-50.042,2.625-52.708-25.709"/>
</svg>
